<?xml version="1.0" encoding="UTF-8" standalone="no"?>
<svg
   xmlns:dc="http://purl.org/dc/elements/1.1/"
   xmlns:cc="http://creativecommons.org/ns#"
   xmlns:rdf="http://www.w3.org/1999/02/22-rdf-syntax-ns#"
   xmlns:svg="http://www.w3.org/2000/svg"
   xmlns="http://www.w3.org/2000/svg"
   xmlns:sodipodi="http://sodipodi.sourceforge.net/DTD/sodipodi-0.dtd"
   xmlns:inkscape="http://www.inkscape.org/namespaces/inkscape"
   viewBox="0 0 472.44096 332.59843"
   height="88mm"
   width="125mm"
   xml:space="preserve"
   id="svg2"
   version="1.1"
   sodipodi:docname="beach.svg"
   inkscape:version="1.0.2-2 (e86c870879, 2021-01-15)"><sodipodi:namedview
     pagecolor="#ffffff"
     bordercolor="#666666"
     borderopacity="1"
     objecttolerance="10"
     gridtolerance="10"
     guidetolerance="10"
     inkscape:pageopacity="0"
     inkscape:pageshadow="2"
     inkscape:window-width="1920"
     inkscape:window-height="1017"
     id="namedview31"
     showgrid="false"
     fit-margin-top="0"
     fit-margin-left="0"
     fit-margin-right="0"
     fit-margin-bottom="0"
     inkscape:zoom="0.74964368"
     inkscape:cx="430.65478"
     inkscape:cy="437.91037"
     inkscape:window-x="-8"
     inkscape:window-y="-8"
     inkscape:window-maximized="1"
     inkscape:current-layer="svg2"
     borderlayer="true"
     inkscape:document-rotation="0"
     units="mm" /><metadata
     id="metadata8"><rdf:RDF><cc:Work
         rdf:about=""><dc:format>image/svg+xml</dc:format><dc:type
           rdf:resource="http://purl.org/dc/dcmitype/StillImage" /><dc:title></dc:title></cc:Work></rdf:RDF></metadata><defs
     id="defs6"><clipPath
       id="clipPath18"
       clipPathUnits="userSpaceOnUse"><path
         id="path16"
         d="M 0,660 H 660 V 0 H 0 Z"
         inkscape:connector-curvature="0" /></clipPath></defs><path
     inkscape:connector-curvature="0"
     d="M -3.1563616,332.28623 H 477.12495 V 2.4599539 H -3.1563616 Z"
     style="fill:#93dcf7;fill-opacity:1;fill-rule:evenodd;stroke:none;stroke-width:0.433764;stroke-opacity:1"
     id="path20"
     clip-path="none"
     sodipodi:nodetypes="ccccc" /><path
     inkscape:connector-curvature="0"
     d="M -4.2139362,99.491136 -5.6245382,257.76597 353.1461,282.84265 531.90136,159.40116 516.72998,58.882808 C 435.59299,34.773944 407.34786,154.5039 372.38154,114.87279 L 353.1461,94.352412 c -11.98933,-9.771775 -27.08801,-9.771775 -39.07735,0 -8.73406,7.118248 -19.28345,9.152528 -29.17872,5.62667 C 274.99441,96.453727 266.62297,87.677325 261.7359,75.705716 257.32392,64.898046 248.81781,58.16795 239.56993,58.16795 c -9.24788,0 -17.75436,6.730096 -22.16635,17.537766 -3.71909,9.111522 -10.09085,15.790597 -17.62082,18.473126 -7.53109,2.684044 -15.55985,1.135448 -22.20697,-4.282148 -11.75912,-9.584202 -26.56816,-9.584202 -38.32728,0 -4.73397,3.858481 -10.45198,4.961417 -15.81527,3.050175 C 118.06996,91.036145 113.53272,86.27879 110.8838,79.7898 73.590531,-17.249713 18.936076,98.576225 -4.2139362,99.491136 Z"
     style="fill:#cfeff6;fill-opacity:1;fill-rule:evenodd;stroke:none;stroke-width:0.433764;stroke-opacity:1"
     id="path22"
     clip-path="none"
     sodipodi:nodetypes="ccccccccccsccccccc" /><path
     inkscape:connector-curvature="0"
     d="M 353.1461,135.47827 C 457.25189,146.10363 472.83328,62.059162 503.82373,45.812044 L 504.60393,163.4182 353.1461,254.84585 -5.48385,265.78907 -33.131596,156.37795 c 0.50775,-32.84689 36.1876497,-64.215227 72.469232,-54.69427 21.923156,6.73379 36.903273,27.3162 65.769484,20.20136 7.11318,-2.52247 14.54422,-3.36179 21.95268,-2.42094 12.34143,1.56711 24.26945,6.76762 34.92531,15.22739 12.32073,9.78027 28.20182,5.30755 36.51269,-10.28548 5.83424,-10.94572 15.45979,-17.14111 25.50815,-16.41784 10.04798,0.72278 19.11982,8.26469 24.03811,19.98422 4.56695,10.8817 12.98955,17.88441 22.31982,18.55566 9.32914,0.67124 18.26706,-5.08146 23.68416,-15.24438 7.10264,-13.32615 20.67523,-17.14961 31.20544,-8.78991 0.94155,0.7468 1.89245,1.46408 2.85279,2.15035 7.88847,5.64116 16.37462,9.26206 25.03983,10.83416"
     style="fill:#51b5e2;fill-opacity:1;fill-rule:evenodd;stroke:none;stroke-width:0.433764;stroke-opacity:1"
     id="path24"
     clip-path="none"
     sodipodi:nodetypes="cccccccccccccccccc" /><path
     inkscape:connector-curvature="0"
     d="m 353.1461,152.27576 c 77.03476,-3.82176 72.02603,-28.91413 152.28057,-40.81337 l -1.62605,126.55426 -150.65452,-5.39489 -248.03898,7.36485 -128.71717,-67.81117 c 8.358189,-16.10865 20.9085592,-36.54902 41.054875,-28.4379 56.546037,34.36917 62.651561,-5.9664 109.614975,-2.24193 12.34143,1.0549 24.26945,4.55525 34.92531,10.24945 12.32073,6.58455 28.20182,3.57238 36.51269,-6.92268 5.83424,-7.36783 15.45979,-11.53744 25.50815,-11.05176 10.04798,0.48818 19.11982,5.56314 24.03811,13.45169 4.56695,7.32533 12.98955,12.03816 22.31982,12.49032 9.32914,0.45167 18.26706,-3.41982 23.68416,-10.26096 7.10264,-8.96995 20.67523,-11.54296 31.20544,-5.9168 0.94155,0.5032 1.89245,0.98641 2.85279,1.44758 7.88847,3.79746 16.37462,6.23493 25.03983,7.29331"
     style="fill:#3e94c4;fill-opacity:1;fill-rule:evenodd;stroke:none;stroke-width:0.433764;stroke-opacity:1"
     id="path26"
     clip-path="none"
     sodipodi:nodetypes="ccccccccccccccccc" /><path
     inkscape:connector-curvature="0"
     d="M -3.1563616,332.28623 H 501.90018 V 167.3731 H -3.1563616 Z"
     style="fill:#6dd0f6;fill-opacity:1;fill-rule:evenodd;stroke:none;stroke-width:0.433764;stroke-opacity:1"
     id="path28"
     clip-path="none" /><path
     inkscape:connector-curvature="0"
     d="m 130.11271,251.39552 c 8.8108,0 15.95406,2.81759 15.95406,6.29291 0,3.47586 -7.14326,6.29344 -15.95406,6.29344 -8.81116,0 -15.95405,-2.81758 -15.95405,-6.29344 0,-3.47532 7.14289,-6.29291 15.95405,-6.29291 m 132.95104,-61.60077 c 13.40444,0 24.26983,2.87761 24.26983,6.42747 0,3.54988 -10.86539,6.42699 -24.26983,6.42699 -13.40296,0 -24.26833,-2.87711 -24.26833,-6.42699 0,-3.54986 10.86537,-6.42747 24.26833,-6.42747 m -85.76706,33.91257 c -7.38477,0 -13.37173,2.43045 -13.37173,5.4281 0,2.99717 5.98696,5.4281 13.37173,5.4281 7.38476,0 13.37172,-2.43093 13.37172,-5.4281 0,-2.99765 -5.98696,-5.4281 -13.37172,-5.4281 m -224.534274,10.8562 V 178.08021 H 139.25151 c 1.86538,0.006 3.73151,0.0133 5.59726,0.0201 12.3892,0.047 23.77405,1.88622 29.9694,4.84187 6.19497,2.95514 6.28676,6.59106 0.24111,9.56967 -4.15242,2.04581 -4.08923,4.54278 0.16552,6.57356 4.25474,2.02978 12.07398,3.29225 20.58308,3.32527 11.38823,0.0437 21.48323,2.0288 25.32947,4.98194 3.84624,2.95313 0.63534,6.2519 -8.05621,8.28019 -8.6908,2.02826 -21.03748,2.35741 -30.97902,0.82632 -9.06582,-1.39605 -20.39425,-0.96286 -27.73802,1.05991 -7.34376,2.02278 -8.91535,5.14349 -3.84773,7.64044 3.89965,1.92125 3.84022,4.26615 -0.15611,6.17238 -3.99595,1.90573 -11.33933,3.0927 -19.33085,3.1237 -8.64001,0.033 -169.625856,0.0551 -178.266994,0.068"
     style="fill:#5bc4f0;fill-opacity:1;fill-rule:evenodd;stroke:none;stroke-width:0.433764;stroke-opacity:1"
     id="path30"
     clip-path="none" /><path
     style="fill:#8edaf6;fill-opacity:1;fill-rule:evenodd;stroke:none;stroke-width:0.433764;stroke-opacity:1"
     clip-path="none"
     d="m 347.74283,170.50576 c -22.33788,0 -40.44617,13.61852 -40.44617,30.4175 0,17.34568 -18.6969,31.40519 -41.76035,31.40519 -26.35937,0 -50.71696,10.57648 -63.89683,27.74459 -18.23358,23.75215 -51.9322,38.38347 -88.40048,38.38347 -2.72716,0 -118.2883887,0.0992 -120.9798099,0.29527 v 33.53443 H 352.95764 353.1461 508.78475 V 170.50576 H 353.1461 352.95764 Z"
     id="path32"
     inkscape:connector-curvature="0" /><path
     style="fill:#ffffff;fill-opacity:1;fill-rule:evenodd;stroke:none;stroke-width:0.433764;stroke-opacity:1"
     clip-path="none"
     d="m 352.75045,174.42792 10.72056,0.1019 c -23.18125,2.30455 -43.88879,20.0265 -42.17855,34.52433 1.7958,15.22034 -13.19114,31.28902 -33.47364,35.89079 -23.18123,5.25853 -43.50647,19.39835 -53.3201,37.09318 -12.95907,23.36548 -39.16807,42.25055 -69.4158,50.24814 h 187.66753 0.39565 140.53203 V 174.42792 H 369.50905 Z"
     id="path34"
     inkscape:connector-curvature="0"
     sodipodi:nodetypes="cccccccccccc" /><path
     style="fill:#fdf7b7;fill-opacity:1;fill-rule:evenodd;stroke:none;stroke-width:0.433764;stroke-opacity:1"
     clip-path="none"
     d="m 353.1461,177.25616 v 7.4e-4 h -0.11243 l 11.28479,0.0653 c -22.41535,0.84153 -39.52201,28.49876 -37.95778,45.37712 1.79581,19.36996 -13.19186,41.61957 -33.47363,49.69569 -23.18122,9.23105 -43.507,29.57105 -53.32064,53.35922 -0.90767,2.19985 -1.88284,4.37823 -2.91652,6.53206 h 116.38378 0.11353 144.42328 V 177.2569 H 386.43734 Z"
     id="path36"
     inkscape:connector-curvature="0"
     sodipodi:nodetypes="cccccccccccccc" /><path
     inkscape:connector-curvature="0"
     d="m 308.57194,78.152669 c 11.69781,0 21.23873,-8.791406 21.23873,-19.571039 0,-10.779288 -9.54092,-19.570692 -21.23873,-19.570692 -11.69819,0 -21.23836,8.791404 -21.23836,19.570692 0,10.779633 9.54017,19.571039 21.23836,19.571039"
     style="fill:#ffffff;fill-opacity:1;fill-rule:evenodd;stroke:none;stroke-width:0.361088;stroke-opacity:1"
     id="path40"
     clip-path="none" /><path
     inkscape:connector-curvature="0"
     d="M 236.64905,37.930641 H 131.23216 l 2.93969,-1.699155 c 3.20074,-1.850713 6.23297,-4.179113 9.03875,-6.939178 7.07405,-6.960686 16.73723,-6.960686 23.81091,0 6.11372,6.014822 14.46484,6.014822 20.57856,0 10.3286,-10.163422 24.43798,-10.163422 34.76733,0 4.52031,4.448216 8.81982,6.991197 14.28165,8.638333"
     style="fill:#ffffff;fill-opacity:1;fill-rule:evenodd;stroke:none;stroke-width:0.433764;stroke-opacity:1"
     id="path44"
     clip-path="none" /><path
     inkscape:connector-curvature="0"
     d="M 250.88707,81.128817 H 169.898 l 2.25883,-1.305508 c 2.45896,-1.422551 4.78852,-3.21074 6.9443,-5.331562 5.43437,-5.34756 12.85827,-5.34756 18.29303,0 4.6971,4.621789 11.11288,4.621789 15.81036,0 7.93471,-7.80751 18.77527,-7.80751 26.70998,0 3.47383,3.417833 6.7769,5.371082 10.97257,6.63707"
     style="fill:#ffffff;fill-opacity:1;fill-rule:evenodd;stroke:none;stroke-width:0.433764;stroke-opacity:1"
     id="path48"
     clip-path="none" /><g
     id="g1013"
     transform="matrix(0.46170725,0,0,-0.43251858,-26.529164,297.78131)"
     style="stroke:none;stroke-width:0.814715"><path
       inkscape:connector-curvature="0"
       id="path42"
       transform="matrix(0.75000002,0,0,-0.75000002,0,660.00002)"
       d="m 1335.5234,775.2832 -23.3593,38.98633 a 157.95455,76.136366 0 0 0 -54.209,-4.72461 157.95455,76.136366 0 0 0 -157.9551,76.13672 157.95455,76.136366 0 0 0 157.9551,76.13672 157.95455,76.136366 0 0 0 157.9531,-76.13672 157.95455,76.136366 0 0 0 -87.2207,-67.97852 l 15.5098,-38.9414 z"
       clip-path="none"
       style="opacity:0.2;fill:#000000;fill-opacity:1;fill-rule:evenodd;stroke:none;stroke-width:1.08629;stroke-opacity:1" /><g
       id="g1005"
       style="stroke:none;stroke-width:0.814715"><path
         inkscape:connector-curvature="0"
         d="M 898.482,149.823 1002.83,74.246 c 3.941,-2.852 8.928,4.525 5.004,7.312 l -104.109,73.937 z"
         style="fill:#463d3b;fill-opacity:1;fill-rule:evenodd;stroke:none;stroke-width:0.814715;stroke-opacity:1"
         id="path46"
         clip-path="none" /><g
         id="g999"
         style="stroke:none;stroke-width:0.814715"><path
           inkscape:connector-curvature="0"
           clip-path="none"
           id="path50"
           style="fill:#ffffff;fill-opacity:1;fill-rule:evenodd;stroke:none;stroke-width:0.814715;stroke-opacity:1"
           d="m 907.776,250.601 c -56.873,-15.117 -102.226,-74.009 -101.3,-131.538 0.925,-57.53 47.779,-91.913 104.652,-76.795 56.871,15.116 102.226,74.009 101.301,131.539 -0.926,57.529 -47.782,91.912 -104.653,76.794" /><path
           inkscape:connector-curvature="0"
           clip-path="none"
           id="path52"
           style="fill:#f68413;fill-opacity:1;fill-rule:evenodd;stroke:none;stroke-width:0.814715;stroke-opacity:1"
           d="m 851.612,218.567 c -11.961,-11.243 -22.114,-24.518 -29.743,-38.911 17.851,-7.124 38.532,-10.573 60.983,-11.723 42.904,0.767 85.738,-1.737 128.4,-12.027 0.863,5.948 1.272,11.931 1.177,17.901 -0.152,9.411 -1.54,18.198 -3.992,26.256 -39.765,-4.37 -81.998,-16.197 -125.585,-32.13 -9.411,18.006 -19.767,34.947 -31.24,50.634 m 56.164,32.034 c -9.301,-2.471 -18.291,-6.12 -26.822,-10.736 -2.66,-23.816 -1.306,-47.83 1.898,-71.932 -25.322,-30.106 -47.817,-61.253 -63.302,-94.974 7.313,-11.434 17.388,-20.384 29.412,-26.265 5.686,42.394 17.558,82.606 33.89,121.239 11.608,-44.248 27.8,-83.145 46.407,-119.224 -5.877,-2.629 -11.936,-4.795 -18.131,-6.441 -8.976,-2.387 -17.698,-3.537 -26.033,-3.56 -5.145,41.054 -5.924,84.113 -2.243,129.225 34.183,25.655 70.507,45.9 108.217,62.65 -8.78,9.378 -19.889,16.243 -32.596,20.074 -25.46,-23.759 -50.668,-51.313 -75.621,-82.724 -26.331,-17.404 -51.581,-37.807 -75.21,-62.705 -0.69,4.442 -1.09,9.057 -1.166,13.835 -0.152,9.402 0.939,18.839 3.109,28.116 24.373,9.999 48.809,16.123 73.267,20.754 40.932,-11.818 78.827,-30.526 114.98,-53.181 -7.98,-15.508 -18.888,-29.777 -31.848,-41.668 -29.497,29.504 -57.62,60.634 -83.132,94.849 9.663,28.737 22.972,57.229 39.544,85.502 -4.783,-0.581 -9.663,-1.517 -14.62,-2.834" /></g></g></g></svg>
