<?xml version="1.0" encoding="UTF-8" standalone="no"?>
<svg
   xmlns:dc="http://purl.org/dc/elements/1.1/"
   xmlns:cc="http://creativecommons.org/ns#"
   xmlns:rdf="http://www.w3.org/1999/02/22-rdf-syntax-ns#"
   xmlns:svg="http://www.w3.org/2000/svg"
   xmlns="http://www.w3.org/2000/svg"
   xmlns:sodipodi="http://sodipodi.sourceforge.net/DTD/sodipodi-0.dtd"
   xmlns:inkscape="http://www.inkscape.org/namespaces/inkscape"
   id="Layer_1"
   enable-background="new 0 0 313.928 611.914"
   xml:space="preserve"
   viewBox="0 0 332.59842 472.44094"
   version="1.1"
   y="0px"
   x="0px"
   sodipodi:docname="bell.svg"
   width="88mm"
   height="125mm"
   inkscape:version="1.0.2-2 (e86c870879, 2021-01-15)"><defs
   id="defs49" /><sodipodi:namedview
   pagecolor="#ffffff"
   bordercolor="#666666"
   borderopacity="1"
   objecttolerance="10"
   gridtolerance="10"
   guidetolerance="10"
   inkscape:pageopacity="0"
   inkscape:pageshadow="2"
   inkscape:window-width="1920"
   inkscape:window-height="1017"
   id="namedview47"
   showgrid="false"
   units="mm"
   inkscape:zoom="0.69454204"
   inkscape:cx="170.0596"
   inkscape:cy="425.21645"
   inkscape:window-x="-8"
   inkscape:window-y="-8"
   inkscape:window-maximized="1"
   inkscape:current-layer="Layer_1" />

<g
   stroke="#231f20"
   stroke-width="1.5"
   stroke-miterlimit="10"
   id="g18"
   transform="matrix(1,0,0,0.76093885,17.277572,3.6988262)">
		<radialGradient
   id="SVGID_1_"
   gradientUnits="userSpaceOnUse"
   cy="389.76999"
   cx="84.723999"
   gradientTransform="translate(72,-112)"
   r="19.264999">
		<stop
   style="stop-color:#FFFFFF"
   offset="0"
   id="stop4" />
		<stop
   style="stop-color:#000000"
   offset="1"
   id="stop6" />
	</radialGradient>
	<path
   d="m 135.91,275.69 c 4.635,-6.004 12.54,-8.537 19.877,-8.747 6.309,-0.438 12.631,1.532 17.877,4.993 1.971,1.595 3.66,3.491 5.404,5.325 1.832,3.293 3.031,7.052 2.51,10.883 -5.805,-0.987 -11.512,-2.793 -17.441,-2.799 -5.797,-0.487 -11.624,-0.207 -17.415,0.254 -5.009,0.722 -9.896,2.038 -14.84,3.063 -0.64,-4.66 1.14,-9.36 4.03,-12.96 z"
   fill="url(#SVGID_1_)"
   id="path9"
   style="fill:url(#SVGID_1_)" />
		<radialGradient
   id="SVGID_2_"
   gradientUnits="userSpaceOnUse"
   cy="393.88"
   cx="84.767998"
   gradientTransform="translate(72,-112)"
   r="24.58">
		<stop
   style="stop-color:#FFFFFF"
   offset="0"
   id="stop11" />
		<stop
   style="stop-color:#000000"
   offset="1"
   id="stop13" />
	</radialGradient>
	<path
   d="m 147.34,264.02 c 4.509,-1.602 9.345,-1.205 14.035,-1.073 7.068,1.136 14.07,4.012 19.072,9.28 4.908,5.424 6.52,13.45 4.6,20.44 -1.273,0.971 -2.467,2.059 -3.771,2.99 -4.65,1.755 -9.373,3.389 -14.297,4.168 -6.229,1.648 -12.768,1.191 -19.079,0.402 -4.084,-0.829 -8.421,-1.019 -12.132,-3.089 -2.053,-0.825 -3.97,-1.926 -5.995,-2.801 -0.304,-0.353 -0.909,-1.058 -1.212,-1.409 -0.721,-3.55 -1.256,-7.206 -0.466,-10.796 0.142,-2.654 1.813,-4.771 3.012,-7.02 3.38,-5.91 9.76,-9.52 16.23,-11.09 m -11.43,11.67 c -2.892,3.604 -4.67,8.308 -4.027,12.969 4.944,-1.025 9.833,-2.341 14.84,-3.062 5.79,-0.459 11.618,-0.739 17.415,-0.256 5.932,0.007 11.639,1.814 17.441,2.802 0.521,-3.833 -0.678,-7.591 -2.508,-10.885 -1.742,-1.834 -3.438,-3.733 -5.406,-5.324 -5.244,-3.462 -11.563,-5.432 -17.877,-4.992 -7.33,0.2 -15.24,2.73 -19.87,8.74 m -0.64,16.94 c 13.278,5.163 28.817,5.258 41.643,-1.227 -9.064,-1.89 -18.357,-2.41 -27.583,-1.738 -4.72,0.81 -9.63,0.99 -14.06,2.97 m 10.26,4.39 c -0.196,0.98 1.445,1.714 2.229,1.25 0.28,-1.05 -1.44,-1.75 -2.23,-1.25 m 4.73,0.83 c -0.402,1.147 -0.029,1.538 1.127,1.177 0.4,-1.15 0.02,-1.54 -1.13,-1.18 z"
   fill="url(#SVGID_2_)"
   id="path16"
   style="fill:url(#SVGID_2_)" />
</g>
<path
   d="m 152.54757,224.22651 c 4.437,-1.51122 9.345,-1.64667 14.063,-2.25846 9.225,-0.50983 18.522,-0.11262 27.583,1.32327 -12.83,4.93849 -28.37,4.8624 -41.64,0.93595 z"
   fill="#ffffff"
   id="path20"
   style="stroke-width:0.872318" />
<linearGradient
   id="SVGID_3_"
   y2="544.75"
   gradientUnits="userSpaceOnUse"
   x2="179.49001"
   gradientTransform="matrix(1,0,0,0.76093885,89.277572,-81.526325)"
   y1="544.75"
   x1="-9.7287998">
	<stop
   style="stop-color:#FFFFFF"
   offset="0"
   id="stop22" />
	<stop
   style="stop-color:#F39F2C"
   offset=".5091"
   id="stop24" />
	<stop
   style="stop-color:#000000"
   offset="1"
   id="stop26" />
</linearGradient>
<path
   d="m 145.17757,228.92151 c 7.181,-2.52176 15.018,-3.69132 22.825,-4.40584 7.13,-0.15599 14.367,-0.36069 21.328,1.06151 9.484,0.97781 18.453,4.36018 25.268,9.47217 8.902,6.1948 14.426,14.56056 19.459,22.75359 4.008,6.39036 6.391,13.23425 8.713,20.07281 0.682,3.4227 1.553,6.82029 2.404,10.21788 0.297,4.34192 1.676,8.58796 1.449,12.95194 1.381,7.09728 0.787,14.31707 0.941,21.48131 0.203,5.20101 -0.965,10.3579 -0.766,15.55663 -0.16,4.47128 0,8.94788 -0.563,13.40013 -0.152,7.87877 -0.184,15.76285 0.029,23.64009 0.74,3.91579 0.303,7.90463 1.395,11.78923 0.199,3.9934 0.678,7.97464 1.998,11.85542 1.01,5.06557 2.732,10.0444 4.711,14.94028 1.227,4.39518 3.682,8.7584 7.906,11.99772 3.814,2.50045 7.748,6.19252 6.113,10.29246 -4.201,0.60951 -8.305,1.62689 -12.568,1.96931 -4.842,0.42536 -9.572,1.39632 -14.451,1.53786 -23.641,1.59797 -47.4,2.10323 -71.142,2.0766 -18.138,-0.0533 -36.313,0.0434 -54.396,-1.1376 -6.764,-0.74192 -13.646,-0.46646 -20.374998,-1.43437 -5.255,-0.83171 -10.918,-0.68104 -15.743,-2.67775 -1.099,-4.19353 3.462,-7.28218 6.779,-10.08853 5.219,-3.68903 6.443,-9.22029 8.52,-14.14128 3.251,-9.45999 5.493998,-19.13685 5.965998,-28.91416 1.1,-6.40558 0.803,-12.88878 1.042,-19.32937 -0.424,-4.43703 -0.26,-8.89309 -0.74,-13.32251 -1.017,-6.0137 -0.098,-12.10198 -1.144,-18.1035 0.135,-8.51262 -1.161998,-17.01611 -0.232998,-25.51732 0.1,-6.97781 0.536998,-13.98454 2.286998,-20.83907 0.09,-3.72556 1.85,-7.24186 2.595,-10.88447 2.364,-7.96475 5.945,-15.7659 11.309,-22.86393 6.593,-9.58783 16.033,-18.6354 29.083,-23.41409 z"
   fill="url(#SVGID_3_)"
   id="path29"
   style="fill:url(#SVGID_3_);stroke-width:0.872318" />
<path
   d="m 167.95757,221.51757 c 8.606,-0.82714 17.313,0.1636 25.764,1.4572 6.904,1.11782 13.242,3.57413 19.059,6.55244 1.281,0.98694 2.768,1.80267 4.197,2.66177 4.592,3.2142 8.063,7.19011 11.92,10.87686 3.389,4.81217 6.994,9.60609 9.555,14.70286 3.176,4.45986 4.848,9.42575 6.742,14.25923 0.529,2.16335 1.129,4.33203 2.104,6.4033 0.744,6.50755 3.053,12.86291 2.967,19.43818 1.313,4.5877 0.33,9.31694 1.205,13.9503 0.305,4.4629 0.4,8.96005 -0.307,13.40774 -0.176,5.88814 0.199,11.79379 -0.709,17.6515 -0.17,12.34927 -0.561,24.70616 0.102,37.04859 0.5,2.47533 0.805,4.96208 0.98,7.46481 1.094,3.14648 0.57,6.4695 1.799,9.60153 0.932,2.67622 1.256,5.45136 2.172,8.13063 1.197,3.05973 1.973,6.19708 3.434,9.20355 0.65,1.22968 0.857,2.59176 1.693,3.77426 0.861,1.10564 1.486,2.31934 2.459,3.38389 2.203,2.54458 5.904,4.1281 7.748,6.88726 2.32,2.62296 3.123,6.29373 1.107,9.16551 -0.998,1.79277 -3.947,1.79277 -6.068,2.16487 -10.844,1.91985 -21.936,2.75612 -32.975,3.70653 -3.25,0.086 -6.5,0.10577 -9.74,0.2747 -6.129,0.32949 -12.293,0.0479 -18.385,0.68561 -10.59,0.15675 -21.172,0.34014 -31.746,0.68941 -11.79,-0.0548 -23.569,-0.54179 -35.368,-0.49081 -2.801,0.0107 -5.57,-0.43221 -8.374,-0.46112 -12.998,-0.0373 -25.896,-1.0988 -38.748998,-2.44718 -4.189,-0.24274 -8.209,-1.24566 -12.284,-1.95181 -0.722,-0.74496 -1.428,-1.49829 -2.116,-2.2501 -1.819,-3.10159 -0.048,-6.44515 2.271,-9.06735 2.565,-3.0643 7.138,-4.99175 8.836,-8.50729 2.476,-4.6014 4.063,-9.45391 5.622,-14.27065 0.696,-3.74686 2.283,-7.38491 2.445,-11.18428 0.147,-2.47001 1.164,-4.85327 1.064,-7.33164 0.553,-2.17325 0.905,-4.36855 0.848,-6.59126 0.931,-13.78136 0.318,-27.61371 -0.887,-41.37224 -0.164,-4.82435 -0.087,-9.67154 -0.989,-14.45708 0.155,-8.04693 -0.753,-16.14332 0.669,-24.14002 -0.005,-4.50933 1.17,-8.94941 1.445,-13.43895 1.813,-7.7981 3.809998,-15.58783 7.082998,-23.11275 2.384,-5.25048 5.642,-10.26583 9.078,-15.15714 5.13,-6.57832 11.223,-12.82563 19.064,-17.68422 9.9,-6.156 22.69,-8.92581 35.27,-9.62588 m -22.78,7.40394 c -13.055,4.77489 -22.49,13.82473 -29.085,23.40952 -5.36,7.09956 -8.942,14.90147 -11.307,22.86393 -0.746,3.6449 -2.502,7.15891 -2.596,10.88599 -1.748,6.8553 -2.186,13.86202 -2.285998,20.83907 -0.929,8.50045 0.368998,17.00927 0.233998,25.51656 1.043,6.00381 0.126,12.09361 1.144,18.1035 0.48,4.42943 0.317,8.88548 0.74,13.32328 -0.24,6.44135 0.058,12.92455 -1.042,19.32861 -0.474,9.7773 -2.716998,19.45492 -5.965998,28.91415 -2.076,4.92175 -3.301,10.4515 -8.52,14.14205 -3.315,2.80634 -7.878,5.89575 -6.778,10.08853 4.824,1.99594 10.489,1.84604 15.742,2.67698 6.728998,0.96715 13.609998,0.69245 20.374998,1.43361 18.084,1.18098 36.259,1.0851 54.396,1.13836 23.741,0.0259 47.5,-0.4771 71.143,-2.0766 4.881,-0.14001 9.611,-1.11021 14.449,-1.53709 4.268,-0.34243 8.367,-1.35904 12.57,-1.96931 1.635,-4.1007 -2.299,-7.79126 -6.115,-10.29246 -4.225,-3.24008 -6.68,-7.60026 -7.908,-11.99773 -1.973,-4.89588 -3.699,-9.87394 -4.709,-14.94027 -1.318,-3.88079 -1.797,-7.86202 -1.994,-11.85619 -1.092,-3.88383 -0.656,-7.87267 -1.396,-11.78694 -0.213,-7.88028 -0.186,-15.76589 -0.031,-23.64161 0.564,-4.45378 0.404,-8.9281 0.564,-13.39937 -0.199,-5.20026 0.967,-10.3541 0.764,-15.5574 -0.156,-7.165 0.438,-14.38098 -0.939,-21.4813 0.223,-4.36246 -1.154,-8.60926 -1.449,-12.95118 -0.855,-3.39455 -1.725,-6.79442 -2.406,-10.21941 -2.322,-6.83627 -4.707,-13.6794 -8.713,-20.07052 -5.033,-8.19531 -10.557,-16.56412 -19.459,-22.75512 -6.813,-5.11427 -15.783,-8.4936 -25.266,-9.47064 -6.969,-1.42296 -14.199,-1.21903 -21.33,-1.06227 -7.79,0.71528 -15.63,1.88712 -22.81,4.40583 z"
   id="path31"
   style="stroke-width:0.872318" />
<linearGradient
   id="SVGID_4_"
   y2="253.96001"
   gradientUnits="userSpaceOnUse"
   x2="109.11"
   gradientTransform="matrix(1,0,0,0.76093885,89.277572,-81.526325)"
   y1="253.96001"
   x1="60.869999">
	<stop
   style="stop-color:#FFFFFF"
   offset="0"
   id="stop33" />
	<stop
   style="stop-color:#8C5325"
   offset="0"
   id="stop35" />
	<stop
   style="stop-color:#673D1B"
   offset=".2606"
   id="stop37" />
	<stop
   style="stop-color:#000000"
   offset="1"
   id="stop39" />
</linearGradient>
<path
   stroke="#000000"
   stroke-miterlimit="10"
   d="m 162.23757,22.825024 c 2.567,-1.024224 5.079,-2.339887 8.105,-2.35054 1.042,-0.326443 2.2,-0.530375 3.334,-0.354598 2.842,0.47787 5.859,0.501459 8.422,1.676349 5,2.382499 8.582,6.288398 10.426,10.519218 2.342,4.217123 3.025,8.81776 4.318,13.260121 0.711,4.089285 0.438,8.249338 1.408,12.311229 0.119,3.761321 0.432,7.581995 -0.637,11.286246 0.102,8.25923 -2.625,16.277243 -3.957,24.429181 -1.313,4.171466 -1.816,8.43729 -2.918,12.63463 -1.107,2.34064 -0.607,4.91566 -1.643,7.26544 -0.426,0.96715 -0.402,1.99214 -0.564,2.99582 -1.266,2.77514 -0.664,5.80748 -1.705,8.62448 -1.391,6.91769 -2.074,13.90083 -3.271,20.83983 -0.262,6.29068 -1.531,12.50983 -1.691,18.79443 -0.873,5.51833 -0.359,11.09905 -1.137,16.62651 -0.191,7.33621 0.088,14.68993 -0.691,21.99798 h -10.514 c -0.595,-6.56309 -0.128,-13.15891 -0.642,-19.7281 -1.042,-4.8137 -0.112,-9.7248 -1.265,-14.52251 -0.261,-4.15397 -0.614,-8.30794 -0.846,-12.45429 -1.02,-3.1404 -0.476,-6.39797 -1.229,-9.55891 -0.74,-6.49842 -1.487,-12.99304 -3.132,-19.4009 -0.409,-3.98732 -1.481,-7.91072 -2.39,-11.83869 -0.207,-3.24692 -1.383,-6.38504 -2.151,-9.56196 -0.375,-4.0033 -1.996,-7.847556 -2.582,-11.824984 -0.375,-2.530883 -1.438,-4.969692 -1.784,-7.508184 -0.776,-5.032088 -2.52,-9.965255 -2.531,-15.058219 0.112,-2.35054 -0.84,-4.637161 -0.783,-6.983135 0.027,-4.459102 -0.313,-8.94788 0.643,-13.362848 0.078,-5.630947 1.324,-11.172865 2.892,-16.659234 1.64,-4.398987 3.76,-9.027018 8.51,-12.079904 z"
   fill="url(#SVGID_4_)"
   id="path42"
   style="fill:url(#SVGID_4_);stroke-width:0.872318" />
<metadata
   id="metadata44"><rdf:RDF><cc:Work><dc:format>image/svg+xml</dc:format><dc:type
         rdf:resource="http://purl.org/dc/dcmitype/StillImage" /><cc:license
         rdf:resource="http://creativecommons.org/publicdomain/zero/1.0/" /><dc:publisher><cc:Agent
           rdf:about="http://openclipart.org/"><dc:title>Openclipart</dc:title></cc:Agent></dc:publisher><dc:title>Simple Bell</dc:title><dc:date>2012-06-08T17:37:03</dc:date><dc:description /><dc:source>https://openclipart.org/detail/170482/simple-bell-by-tikigiki-170482</dc:source><dc:creator><cc:Agent><dc:title>TikiGiki</dc:title></cc:Agent></dc:creator><dc:subject><rdf:Bag><rdf:li>abstract</rdf:li><rdf:li>free form</rdf:li><rdf:li>freeform</rdf:li><rdf:li>retro</rdf:li><rdf:li>school</rdf:li><rdf:li>shape</rdf:li><rdf:li>shapes</rdf:li></rdf:Bag></dc:subject></cc:Work><cc:License
       rdf:about="http://creativecommons.org/publicdomain/zero/1.0/"><cc:permits
         rdf:resource="http://creativecommons.org/ns#Reproduction" /><cc:permits
         rdf:resource="http://creativecommons.org/ns#Distribution" /><cc:permits
         rdf:resource="http://creativecommons.org/ns#DerivativeWorks" /></cc:License></rdf:RDF></metadata></svg>
