<?xml version="1.0" encoding="UTF-8"?>
<!DOCTYPE svg PUBLIC "-//W3C//DTD SVG 1.1//EN" "http://www.w3.org/Graphics/SVG/1.1/DTD/svg11.dtd">
<svg version="1.1" xmlns="http://www.w3.org/2000/svg" xmlns:xlink="http://www.w3.org/1999/xlink" x="0" y="0" width="610" height="222" viewBox="0, 0, 610, 222">
  <g id="Layer_1">
    <path d="M411.42,156.458 C409.426,185.355 403.609,200.865 401.834,203.373 C400.94,203.357 398.903,203.4 393.638,203.545 C385.02,203.785 364.995,204.338 362.47,203.427 C362.349,203.307 362.188,203.182 361.946,202.992 C361.245,202.443 360.798,202.047 360.521,201.762 C360.953,201.746 361.45,201.745 361.816,201.744 C363.859,201.738 364.868,201.707 365.456,201.062 C365.722,200.773 365.849,200.399 365.816,200.014 C364.625,185.904 363.338,133 364.221,111.351 C364.338,108.464 360.536,107.279 357.479,106.328 C356.659,106.073 355.589,105.741 355.076,105.487 C355.248,104.563 355.726,103.603 358.334,103.603 L358.355,103.603 C373.556,103.327 398.366,103.212 401.093,104.05 C402.93,105.946 413.613,124.7 411.42,156.458 M604.636,144.644 L604.472,144.548 L605.567,142.533 L604.636,144.644 z M603.743,138.212 L604.841,136.598 L603.922,138.332 L603.743,138.212 z M600.882,87.253 L600.635,87.102 C601.249,86.157 601.813,85.175 602.296,84.148 C601.917,85.216 601.444,86.259 600.882,87.253 M598.562,152.174 L598.074,151.647 C599.211,150.53 600.344,149.408 601.507,148.305 L601.876,148.628 C600.79,149.821 599.674,150.995 598.562,152.174 M597.157,145.158 L600.618,141.847 L601.08,142.263 L597.754,145.799 L597.157,145.158 z M594.725,94.74 L594.186,94.11 C595.415,93.101 596.582,92.016 597.661,90.847 L598.125,91.256 C597.079,92.495 595.935,93.653 594.725,94.74 M591.119,158.381 L590.515,157.534 C591.79,156.573 593.086,155.641 594.379,154.701 L594.943,155.403 C593.674,156.4 592.407,157.404 591.119,158.381 M589.659,151.115 L593.477,148.223 L594.158,149.056 L590.352,152.059 L589.659,151.115 z M583.01,163.678 L582.426,162.676 L586.531,160.198 L587.125,161.122 L583.01,163.678 z M581.688,156.434 L585.724,153.849 L586.386,154.845 L582.282,157.419 L581.688,156.434 z M574.425,168.151 L573.95,167.128 L578.226,164.982 L578.778,166.034 L574.425,168.151 z M573.348,161.16 L577.565,158.871 L578.05,159.768 L573.68,161.856 L573.348,161.16 z M565.392,171.665 L565.087,170.722 L569.565,169.058 L569.961,170.05 L565.392,171.665 z M569.017,163.23 L569.189,163.659 C567.64,164.125 566.1,164.603 564.555,165.034 C566.041,164.404 567.534,163.822 569.017,163.23 M563.127,151.18 L564.211,151.621 C563.587,153.145 562.803,154.596 561.912,155.968 L560.949,155.344 C561.8,154.021 562.541,152.629 563.127,151.18 M563.567,137.436 C563.087,135.94 562.462,134.492 561.705,133.115 L562.706,132.562 C563.506,133.998 564.167,135.512 564.68,137.075 L563.567,137.436 z M564.53,142.015 L565.716,141.904 C565.877,143.554 565.83,145.228 565.563,146.863 L564.383,146.678 C564.62,145.137 564.671,143.568 564.53,142.015 M556.183,144.893 L557.365,145.12 C557.044,146.756 556.487,148.329 555.773,149.815 L554.708,149.307 C555.378,147.895 555.892,146.412 556.183,144.893 M555.944,135.374 C556.358,136.103 556.708,136.873 556.975,137.675 C557.103,138.075 557.23,138.487 557.294,138.898 L557.525,140.13 L556.356,140.283 C556.207,139.528 556.117,138.756 555.866,138.039 C555.631,137.315 555.316,136.613 554.94,135.943 L555.944,135.374 z M558.938,159.86 L555.504,163.332 L554.763,162.519 L558.092,159.119 L558.938,159.86 z M555.779,125.823 L556.504,125 C557.732,126.076 558.884,127.245 559.927,128.508 L559.063,129.22 C558.065,128.002 556.961,126.869 555.779,125.823 M551.102,165.58 L551.755,166.437 L547.779,169.228 L547.203,168.346 L551.102,165.58 z M552.019,122.932 L547.921,120.505 L548.408,119.573 L552.615,122.038 L552.019,122.932 z M553.223,154.022 C552.255,155.343 551.191,156.584 550.059,157.756 L549.246,156.975 C550.34,155.829 551.366,154.619 552.291,153.343 L553.223,154.022 z M552.054,132.303 C550.926,131.217 549.674,130.251 548.358,129.376 L548.966,128.455 C550.331,129.354 551.64,130.35 552.836,131.488 L552.054,132.303 z M543.123,170.849 L543.632,171.744 L539.35,174.015 L538.901,173.114 L543.123,170.849 z M543.596,118.488 L539.113,116.824 L539.427,115.87 L543.988,117.538 L543.596,118.488 z M545.775,160.228 L546.484,161.072 L542.61,164.018 L541.995,163.134 L545.775,160.228 z M544.24,127.003 L539.884,125.057 L540.269,124.077 L544.721,126.04 L544.24,127.003 z M534.523,115.465 L529.857,114.374 L530.048,113.437 L534.771,114.518 L534.523,115.465 z M535.375,123.449 L530.773,122.137 L531.017,121.165 L535.683,122.47 L535.375,123.449 z M534.955,176.054 L530.453,177.858 L530.119,176.961 L534.561,175.154 L534.955,176.054 z M534.193,168.875 L533.753,167.948 L537.971,165.71 L538.5,166.62 L534.193,168.875 z M555.519,171.106 C553.022,172.761 550.377,174.178 547.635,175.345 C544.908,176.544 542.103,177.55 539.239,178.318 C533.517,179.879 527.664,180.847 521.784,181.216 C527.608,180.354 533.379,179.158 538.918,177.281 C540.315,176.85 541.66,176.273 543.031,175.783 C544.365,175.195 545.726,174.674 547.018,174.004 C549.639,172.749 552.155,171.289 554.52,169.629 C559.253,166.322 563.376,162.164 566.439,157.317 C569.495,152.473 571.557,147.005 572.438,141.347 C572.552,140.64 572.645,139.931 572.718,139.22 C572.733,139.054 572.763,138.836 572.766,138.715 C572.777,138.592 572.771,138.449 572.767,138.306 C572.744,138.009 572.712,137.698 572.643,137.375 C572.384,136.086 571.897,134.751 571.332,133.464 C570.182,130.879 568.664,128.424 566.953,126.126 C563.512,121.529 559.267,117.512 554.435,114.363 C549.619,111.19 544.208,108.91 538.548,107.584 C532.886,106.206 526.982,105.899 521.105,106.228 C525.809,105.499 530.631,105.377 535.41,105.89 L538.2,105.408 L538.245,105.719 L536.014,105.955 C536.946,106.066 537.877,106.193 538.802,106.355 C542.999,107.104 547.105,108.424 550.98,110.259 C552.141,110.059 553.302,109.861 554.462,109.675 L554.517,110.059 C553.401,110.16 552.286,110.254 551.169,110.346 C552.648,111.054 554.093,111.833 555.495,112.691 C560.605,115.843 565.159,119.926 568.812,124.726 C570.627,127.134 572.248,129.7 573.512,132.488 C574.133,133.89 574.696,135.327 575,136.93 C575.079,137.328 575.128,137.75 575.156,138.187 C575.162,138.411 575.168,138.637 575.147,138.882 C575.133,139.127 575.109,139.273 575.088,139.474 C575.007,140.227 574.905,140.976 574.78,141.722 C573.813,147.687 571.622,153.467 568.281,158.506 C564.978,163.574 560.538,167.84 555.519,171.106 M556.202,174.58 L556.018,173.98 L560.548,172.376 L560.818,173.139 L556.202,174.58 z M546.721,176.467 L551.414,175.372 L551.493,175.708 C549.901,175.975 548.311,176.231 546.721,176.467 M520.966,179.526 C522.51,179.344 524.057,178.932 525.583,178.488 L525.845,179.387 C524.289,179.829 522.719,180.243 521.069,180.433 L520.966,179.526 z M529.36,169.81 L529.703,170.75 L525.026,172.147 L524.806,171.197 L529.36,169.81 z M526.097,121.098 L521.369,120.342 L521.484,119.398 L526.279,120.137 L526.097,121.098 z M520.484,111.975 L525.282,112.595 L525.14,113.518 L520.385,112.88 L520.484,111.975 z M515.537,173.969 L515.388,173.056 L520.115,172.201 L520.295,173.133 L515.537,173.969 z M511.486,181.438 L511.398,180.577 L516.184,180.065 L516.278,180.946 L511.486,181.438 z M516.64,119.02 L516.613,119.945 L514.245,119.97 C513.454,119.982 512.646,120.064 511.847,120.107 L511.786,119.209 C512.589,119.16 513.38,119.075 514.194,119.058 L516.64,119.02 z M510.832,111.371 L515.665,111.565 L515.607,112.448 L510.816,112.233 L510.832,111.371 z M505.978,175.275 L505.875,174.407 L510.641,173.785 L510.764,174.676 L505.978,175.275 z M501.89,182.344 L501.815,181.53 L506.607,181.066 L506.689,181.904 L501.89,182.344 z M501.179,111.587 L506.001,111.427 L506.021,112.266 L501.21,112.404 L501.179,111.587 z M496.375,176.209 L496.307,175.389 L501.096,174.938 L501.181,175.782 L496.375,176.209 z M492.289,183.143 L492.226,182.375 L497.023,181.966 L497.09,182.757 L492.289,183.143 z M491.543,112.064 L496.361,111.805 L496.398,112.596 L491.586,112.83 L491.543,112.064 z M486.758,176.855 L486.715,176.084 L491.514,175.768 L491.57,176.563 L486.758,176.855 z M482.674,183.829 L482.625,183.107 L487.428,182.756 L487.484,183.501 L482.674,183.829 z M481.917,112.657 L486.731,112.349 L486.775,113.095 L481.964,113.379 L481.917,112.657 z M477.126,177.271 L477.1,176.551 L481.91,176.343 L481.944,177.088 L477.126,177.271 z M473.05,184.394 L473.014,183.718 L477.821,183.428 L477.864,184.126 L473.05,184.394 z M472.297,113.295 L477.108,112.975 L477.152,113.673 L472.341,113.969 L472.297,113.295 z M467.487,177.499 L467.475,176.829 L472.29,176.712 L472.308,177.406 L467.487,177.499 z M463.424,184.829 L463.398,184.2 L468.205,183.976 L468.237,184.628 L463.424,184.829 z M462.678,113.914 L467.489,113.61 L467.529,114.262 L462.716,114.542 L462.678,113.914 z M457.85,177.568 L457.849,176.95 L462.661,176.908 L462.667,177.552 L457.85,177.568 z M453.792,185.107 L453.778,184.565 L458.589,184.389 L458.609,184.996 L453.792,185.107 z M453.059,114.481 L457.868,114.199 L457.902,114.804 L453.084,115.023 L453.059,114.481 z M453.033,177.542 L448.214,177.47 L448.219,176.967 L453.036,176.967 L453.033,177.542 z M444.154,185.212 L444.149,184.806 L448.965,184.704 L448.973,185.178 L444.154,185.212 z M443.435,114.95 L448.248,114.733 L448.268,115.209 L443.449,115.357 L443.435,114.95 z M443.396,177.367 L438.58,177.236 L438.586,176.883 L443.404,176.939 L443.396,177.367 z M434.515,185.158 L434.516,184.889 L439.333,184.867 L439.334,185.205 L434.515,185.158 z M433.762,177.079 L428.946,176.898 L428.953,176.691 L433.77,176.799 L433.762,177.079 z M429.695,185.067 L424.878,184.934 L424.881,184.801 L429.699,184.866 L429.695,185.067 z M424.132,176.693 L419.32,176.466 L419.322,176.408 L424.137,176.562 L424.132,176.693 z M420.065,184.752 L415.509,184.537 L420.068,184.688 L420.065,184.752 z M420.326,122.42 L420.323,122.493 L415.509,122.265 L420.326,122.42 z M419.356,115.258 L419.354,115.326 L414.54,115.117 L419.356,115.258 z M434.777,122.909 L434.78,122.616 L439.598,122.598 L439.598,122.965 L434.777,122.909 z M432.308,154.777 C428.504,154.451 426.02,152.515 426.168,150.98 C426.302,149.59 428.625,148.241 431.886,148.241 C432.227,148.241 432.578,148.257 432.936,148.287 C433.553,148.34 434.116,148.453 434.655,148.585 C434.651,148.486 434.648,148.386 434.642,148.286 C435.949,149.142 436.753,150.278 436.753,151.531 C436.753,152.913 435.777,154.155 434.224,155.031 L434.237,154.786 C433.631,154.834 432.986,154.836 432.308,154.777 M428.175,146.744 C425.816,147.489 424.196,148.956 424.017,150.795 C423.788,153.173 426.044,155.342 429.447,156.315 C429.22,156.328 428.991,156.336 428.757,156.336 C424.344,156.336 420.763,154.186 420.763,151.531 C420.763,148.996 424.034,146.925 428.175,146.744 M424.171,115.458 L424.172,115.322 L428.99,115.316 L428.99,115.521 L424.171,115.458 z M429.958,122.815 L425.139,122.677 L425.142,122.529 L429.961,122.593 L429.958,122.815 z M433.806,115.248 L438.622,115.123 L438.629,115.463 L433.81,115.52 L433.806,115.248 z M449.241,122.964 L444.419,122.982 L444.416,122.541 L449.232,122.448 L449.241,122.964 z M458.883,122.806 L454.062,122.909 L454.049,122.322 L458.866,122.183 L458.883,122.806 z M468.522,122.498 L463.703,122.666 L463.68,122.019 L468.496,121.826 L468.522,122.498 z M478.158,122.087 L473.34,122.305 L473.309,121.607 L478.122,121.365 L478.158,122.087 z M487.789,121.591 L482.974,121.849 L482.934,121.102 L487.745,120.817 L487.789,121.591 z M497.417,121.027 L492.604,121.316 L492.555,120.518 L497.364,120.204 L497.417,121.027 z M507.038,120.419 L502.228,120.726 L502.171,119.878 L506.979,119.545 L507.038,120.419 z M547.817,104.502 L543.036,105.152 L542.95,104.579 L547.699,103.759 L547.817,104.502 z M557.359,103.043 C555.775,103.315 554.183,103.557 552.595,103.805 L552.443,102.904 C554.021,102.605 555.597,102.298 557.177,102.025 L557.359,103.043 z M564.066,108.558 L559.308,109.422 L559.185,108.755 L563.871,107.694 L564.066,108.558 z M562.111,102.182 L561.9,101.111 L564.249,100.617 C565.025,100.44 565.79,100.241 566.561,100.053 L566.854,101.158 C566.063,101.342 565.272,101.538 564.481,101.71 L562.111,102.182 z M573.434,106.112 L568.782,107.467 L568.507,106.463 L573.089,105.057 L573.434,106.112 z M571.505,99.742 L571.108,98.612 L575.564,96.891 L576.023,97.954 L571.505,99.742 z M582.48,102.601 C580.995,103.246 579.511,103.898 578.014,104.512 L577.585,103.413 C579.044,102.77 580.517,102.162 581.989,101.548 L582.48,102.601 z M580.405,95.87 L579.904,94.886 L584.097,92.595 L584.638,93.493 L580.405,95.87 z M590.917,97.773 L586.794,100.36 L586.261,99.408 L590.339,96.93 L590.917,97.773 z M588.675,90.785 L588.121,90.01 L591.913,87.104 L592.435,87.696 L588.675,90.785 z M598.625,80.234 C597.812,81.633 596.874,82.967 595.826,84.204 L595.354,83.792 C596.425,82.614 597.435,81.374 598.305,80.035 L598.625,80.234 z M410.421,111.281 C419.432,111.077 428.434,110.633 437.432,110.15 C446.431,109.724 455.428,109.234 464.416,108.636 C482.376,107.447 500.397,106.339 518.142,103.732 C535.869,100.986 553.551,97.196 570.402,91.104 C574.597,89.544 578.723,87.796 582.657,85.692 C586.574,83.586 590.352,81.124 593.384,77.923 C594.891,76.327 596.196,74.516 596.978,72.478 C597.776,70.453 598.015,68.206 597.593,66.041 C597.205,63.874 596.246,61.814 595.023,59.947 C593.808,58.069 592.339,56.346 590.749,54.753 C594.045,57.753 597.157,61.364 598.208,65.918 C598.738,68.167 598.584,70.585 597.816,72.783 C597.064,74.993 595.753,76.965 594.242,78.698 C591.168,82.155 587.323,84.75 583.382,87.007 C579.417,89.249 575.267,91.124 571.056,92.806 C562.624,96.172 553.885,98.636 545.105,100.785 C536.303,102.898 527.451,104.692 518.502,106.097 C509.532,107.429 500.533,108.2 491.534,108.91 C482.532,109.575 473.529,110.16 464.514,110.508 C446.493,111.214 428.456,111.775 410.421,111.281 M517.433,83.424 L517.486,83.22 L522.141,84.484 L522.098,84.641 L517.433,83.424 z M516.617,87.962 L511.939,86.797 L511.993,86.579 L516.661,87.792 L516.617,87.962 z M508.141,80.816 L512.82,81.998 L512.757,82.247 L508.071,81.111 L508.141,80.816 z M507.25,85.673 L502.551,84.587 L502.625,84.275 L507.313,85.409 L507.25,85.673 z M498.761,78.572 L503.454,79.674 L503.374,80.017 L498.674,78.96 L498.761,78.572 z M497.844,83.539 L493.129,82.528 L493.216,82.122 L497.925,83.18 L497.844,83.539 z M489.351,76.479 L494.061,77.506 L493.966,77.941 L489.25,76.957 L489.351,76.479 z M488.407,81.553 L483.682,80.612 L483.783,80.11 L488.5,81.099 L488.407,81.553 z M479.912,74.519 L484.635,75.48 L484.528,76.009 L479.799,75.094 L479.912,74.519 z M478.951,79.705 L474.214,78.828 L474.326,78.235 L479.058,79.156 L478.951,79.705 z M470.441,72.714 L475.179,73.599 L475.067,74.199 L470.328,73.334 L470.441,72.714 z M469.476,77.97 L464.731,77.142 L464.84,76.514 L469.585,77.359 L469.476,77.97 z M460.947,71.04 L465.696,71.862 L465.585,72.497 L460.837,71.691 L460.947,71.04 z M459.982,76.343 L455.227,75.572 L455.333,74.911 L460.089,75.698 L459.982,76.343 z M451.432,69.482 L456.192,70.246 L456.083,70.914 L451.325,70.167 L451.432,69.482 z M450.467,74.831 L445.705,74.118 L445.808,73.422 L450.572,74.153 L450.467,74.831 z M441.9,68.034 L446.669,68.745 L446.563,69.445 L441.796,68.752 L441.9,68.034 z M440.938,73.432 L436.167,72.771 L436.266,72.041 L441.039,72.719 L440.938,73.432 z M432.354,66.69 L437.128,67.35 L437.026,68.086 L432.253,67.443 L432.354,66.69 z M431.391,72.136 L426.615,71.525 L426.71,70.764 L431.491,71.389 L431.391,72.136 z M422.792,65.453 L427.574,66.061 L427.476,66.827 L422.696,66.236 L422.792,65.453 z M421.833,70.941 L417.049,70.38 L417.142,69.585 L421.927,70.161 L421.833,70.941 z M413.219,64.31 L418.008,64.868 L417.913,65.67 L413.127,65.129 L413.219,64.31 z M412.262,69.844 L407.473,69.329 L407.562,68.5 L412.353,69.03 L412.262,69.844 z M403.636,63.261 L408.429,63.773 L408.339,64.608 L403.548,64.112 L403.636,63.261 z M402.682,68.839 L397.888,68.372 L397.973,67.508 L402.768,67.994 L402.682,68.839 z M394.042,62.303 L398.84,62.771 L398.755,63.637 L393.959,63.186 L394.042,62.303 z M393.093,67.925 L388.295,67.5 L388.375,66.605 L393.176,67.046 L393.093,67.925 z M384.443,61.433 L389.242,61.855 L389.163,62.757 L384.364,62.349 L384.443,61.433 z M383.496,67.098 L378.695,66.716 L378.769,65.785 L383.572,66.185 L383.496,67.098 z M374.833,60.645 L379.637,61.027 L379.563,61.962 L374.76,61.595 L374.833,60.645 z M373.892,66.355 L369.087,66.013 L369.156,65.05 L373.962,65.407 L373.892,66.355 z M365.217,59.94 L370.025,60.282 L369.957,61.248 L365.151,60.922 L365.217,59.94 z M364.282,65.69 L359.474,65.39 L359.537,64.393 L364.347,64.711 L364.282,65.69 z M355.597,59.313 L360.407,59.616 L360.344,60.613 L355.537,60.328 L355.597,59.313 z M354.667,65.107 L349.859,64.844 L349.914,63.813 L354.725,64.094 L354.667,65.107 z M345.972,58.762 L350.785,59.027 L350.728,60.059 L345.917,59.809 L345.972,58.762 z M345.047,64.6 L340.236,64.373 L340.286,63.309 L345.1,63.552 L345.047,64.6 z M336.342,58.284 L341.157,58.515 L341.106,59.578 L336.295,59.364 L336.342,58.284 z M335.424,64.164 L330.611,63.974 L330.654,62.877 L335.47,63.084 L335.424,64.164 z M326.71,57.881 L331.526,58.074 L331.483,59.171 L326.669,58.994 L326.71,57.881 z M325.798,63.802 L320.984,63.646 L321.02,62.517 L325.838,62.689 L325.798,63.802 z M317.075,57.548 L321.893,57.706 L321.855,58.835 L317.042,58.692 L317.075,57.548 z M316.169,63.509 L311.364,63.39 L311.392,62.226 L316.203,62.361 L316.169,63.509 z M307.439,57.287 L312.256,57.407 L312.226,58.569 L307.414,58.466 L307.439,57.287 z M306.553,63.292 L301.738,63.213 L301.757,62.019 L306.577,62.112 L306.553,63.292 z M297.799,57.116 L302.618,57.187 L302.599,58.382 L297.785,58.313 L297.799,57.116 z M296.923,63.148 L292.107,63.096 L292.116,61.915 L296.936,61.952 L296.923,63.148 z M288.152,58.219 L288.157,57.052 L292.978,57.074 L292.968,58.256 L288.152,58.219 z M287.292,63.062 L282.476,63.05 L282.475,61.901 L287.295,61.898 L287.292,63.062 z M278.515,57.069 L283.336,57.052 L283.336,58.199 L278.52,58.202 L278.515,57.069 z M272.844,63.082 L272.834,61.969 L277.654,61.924 L277.66,63.056 L272.844,63.082 z M268.876,57.164 L273.696,57.105 L273.706,58.225 L268.889,58.266 L268.876,57.164 z M263.213,63.195 L263.196,62.114 L268.014,62.03 L268.028,63.129 L263.213,63.195 z M259.238,57.339 L264.056,57.242 L264.076,58.328 L259.259,58.409 L259.238,57.339 z M253.586,63.385 L253.559,62.338 L258.377,62.216 L258.401,63.281 L253.586,63.385 z M249.602,57.593 L254.421,57.456 L254.446,58.51 L249.632,58.63 L249.602,57.593 z M243.959,63.655 L243.926,62.641 L248.743,62.48 L248.773,63.511 L243.959,63.655 z M239.973,57.925 L244.787,57.748 L244.821,58.77 L240.01,58.929 L239.973,57.925 z M234.341,64.003 L234.299,63.021 L239.112,62.82 L239.151,63.82 L234.341,64.003 z M230.349,58.333 L235.161,58.117 L235.199,59.107 L230.391,59.306 L230.349,58.333 z M224.726,64.428 L224.679,63.477 L229.488,63.239 L229.533,64.205 L224.726,64.428 z M220.731,58.82 L225.538,58.566 L225.584,59.521 L220.781,59.76 L220.731,58.82 z M215.108,64.931 L215.054,64.015 L219.865,63.735 L219.917,64.669 L215.108,64.931 z M211.107,59.387 L215.918,59.093 L215.971,60.016 L211.163,60.294 L211.107,59.387 z M205.492,65.513 L205.433,64.63 L210.244,64.313 L210.3,65.212 L205.492,65.513 z M201.49,60.032 L206.296,59.699 L206.356,60.59 L201.549,60.907 L201.49,60.032 z M195.883,66.178 L195.82,65.326 L200.625,64.969 L200.688,65.837 L195.883,66.178 z M191.878,60.76 L196.683,60.386 L196.746,61.244 L191.945,61.601 L191.878,60.76 z M186.282,66.921 L186.212,66.104 L191.016,65.705 L191.082,66.54 L186.282,66.921 z M182.273,61.566 L187.075,61.152 L187.143,61.979 L182.345,62.376 L182.273,61.566 z M176.688,67.749 L176.615,66.965 L181.415,66.523 L181.484,67.323 L176.688,67.749 z M172.679,62.459 L177.476,62.003 L177.548,62.796 L172.753,63.237 L172.679,62.459 z M167.103,68.661 L167.026,67.91 L171.819,67.426 L171.894,68.194 L167.103,68.661 z M163.095,63.437 L167.886,62.939 L167.962,63.698 L163.172,64.181 L163.095,63.437 z M157.529,69.66 L157.45,68.944 L162.237,68.416 L162.315,69.15 L157.529,69.66 z M153.523,64.505 L158.307,63.959 L158.386,64.687 L153.604,65.216 L153.523,64.505 z M147.963,70.754 L147.881,70.069 L152.666,69.495 L152.747,70.196 L147.963,70.754 z M143.958,65.664 L148.743,65.072 L148.824,65.768 L144.043,66.343 L143.958,65.664 z M138.406,71.94 L138.32,71.289 L143.099,70.667 L143.184,71.334 L138.406,71.94 z M134.404,66.923 L139.179,66.281 L139.266,66.942 L134.491,67.568 L134.404,66.923 z M128.862,73.228 L128.773,72.61 L133.545,71.937 L133.632,72.57 L128.862,73.228 z M124.864,68.282 L129.632,67.59 L129.719,68.219 L124.953,68.896 L124.864,68.282 z M119.333,74.612 L119.247,74.048 L124.007,73.312 L124.096,73.911 L119.333,74.612 z M115.344,69.766 L120.1,69.004 L120.191,69.601 L115.432,70.318 L115.344,69.766 z M109.822,76.09 L109.744,75.622 L114.492,74.819 L114.575,75.336 L109.822,76.09 z M105.85,71.383 L110.594,70.559 L110.677,71.065 L105.928,71.842 L105.85,71.383 z M100.33,77.692 L100.261,77.318 L105.001,76.452 L105.074,76.873 L100.33,77.692 z M96.441,73.497 L96.372,73.131 L101.108,72.239 L101.183,72.652 L96.441,73.497 z M90.858,79.434 L90.802,79.154 L95.528,78.218 L95.589,78.544 L90.858,79.434 z M16.01,54.753 C16.884,53.401 18.027,52.245 19.248,51.204 L19.272,51.233 C18.045,52.263 16.895,53.408 16.01,54.753 M19.557,56.054 L19.581,56.082 C18.355,57.112 17.204,58.259 16.319,59.602 C17.193,58.251 18.337,57.097 19.557,56.054 M104.257,96.387 L107.98,96.973 L111.676,97.646 C114.138,98.118 116.606,98.475 119.073,98.875 C128.951,100.41 138.897,101.565 148.834,102.797 C158.778,103.988 168.739,105.058 178.704,106.08 C188.666,107.17 198.641,108.121 208.612,109.139 C198.6,108.659 188.602,107.941 178.6,107.245 C168.605,106.467 158.618,105.596 148.635,104.624 C138.65,103.676 128.689,102.476 118.747,101.036 C116.264,100.651 113.77,100.312 111.308,99.855 L107.605,99.208 L103.898,98.655 C98.932,97.885 93.984,97.027 89.047,96.103 C79.188,94.185 69.383,91.97 59.673,89.364 C49.981,86.717 40.324,83.784 31.063,79.764 C26.441,77.749 21.879,75.532 17.629,72.747 C15.503,71.368 13.437,69.853 11.589,68.079 C9.731,66.322 8.061,64.321 6.853,62.021 C5.679,59.715 5.031,57.057 5.379,54.449 C5.737,51.85 7.005,49.474 8.696,47.572 C12.114,43.742 16.73,41.385 21.374,39.58 C19.085,40.597 16.85,41.744 14.771,43.125 C12.701,44.5 10.731,46.066 9.185,47.985 C7.621,49.876 6.528,52.16 6.287,54.553 C6.056,56.955 6.732,59.355 7.899,61.461 C9.083,63.573 10.694,65.441 12.514,67.084 C14.321,68.742 16.344,70.161 18.449,71.46 C22.645,74.082 27.181,76.168 31.781,78.052 C41.025,81.748 50.571,84.726 60.235,87.244 C69.902,89.766 79.677,91.886 89.5,93.74 C94.405,94.695 99.326,95.586 104.257,96.387 M210.564,147.842 C210.682,144.395 210.803,141.065 210.914,137.969 C211.226,129.371 211.494,121.944 211.522,117.835 L211.522,117.783 C211.199,103.189 218.479,99.761 222.389,97.916 C222.699,97.771 222.98,97.639 223.23,97.514 C224.83,96.714 230.96,95.985 237.21,95.985 C242.247,95.985 247.362,96.46 250.237,97.749 C251.609,98.363 252.504,99.854 252.893,102.175 C253.653,106.692 252.119,112.364 251.13,113.813 C250.708,113.784 250.104,113.733 249.438,113.679 C239.067,112.812 229.111,112.588 226.465,116.777 C224.674,119.617 224.022,133.627 223.935,149.143 C221.437,149.156 219.705,149.182 218.485,149.218 C218.559,144.652 218.656,140.087 218.766,135.523 C218.885,128.884 219.126,122.236 219.414,115.641 C219.507,114.008 219.589,112.33 219.781,110.794 L219.996,109.738 C220.053,109.38 220.129,109.028 220.281,108.713 C220.409,108.386 220.529,108.054 220.645,107.72 L221.17,106.815 C221.919,105.636 222.952,104.594 224.257,103.831 C225.509,102.999 227.003,102.469 228.501,101.965 C231.56,101.036 234.845,100.627 238.134,100.334 C241.431,100.06 244.764,99.926 248.101,99.814 C244.787,99.422 241.458,99.1 238.097,99.006 C234.738,98.906 231.341,99.025 227.923,99.686 C226.229,100.082 224.51,100.559 222.895,101.439 C222.063,101.817 221.314,102.387 220.557,102.945 C220.175,103.222 219.868,103.6 219.522,103.928 C219.175,104.259 218.845,104.608 218.59,105.02 C218.315,105.416 218.034,105.811 217.774,106.218 L217.173,107.528 C216.953,107.965 216.821,108.418 216.712,108.877 L216.357,110.254 C216.042,112.009 215.874,113.655 215.678,115.34 C214.452,127.433 213.951,139.495 213.666,151.583 C213.273,152.529 212.967,153.912 212.86,156.004 C212.763,157.881 212.779,160.8 213.556,162.811 C213.545,173.693 213.741,184.577 215.063,195.543 C215.289,197.232 215.561,198.919 215.986,200.66 C216.114,201.107 216.195,201.523 216.366,201.992 C216.559,202.457 216.676,202.941 216.948,203.379 C217.185,203.827 217.433,204.269 217.754,204.653 C218.042,205.067 218.383,205.421 218.728,205.766 C220.115,207.146 221.756,208.054 223.404,208.731 C225.059,209.404 226.745,209.864 228.436,210.193 C231.824,210.818 235.212,211.011 238.577,210.969 C241.939,210.915 245.287,210.66 248.587,210.127 C245.249,210.124 241.923,209.967 238.635,209.634 C235.351,209.285 232.081,208.807 228.983,207.892 C227.439,207.445 225.93,206.91 224.55,206.212 C223.17,205.522 221.915,204.653 221.02,203.594 C220.798,203.331 220.576,203.069 220.416,202.777 C220.218,202.505 220.083,202.208 219.944,201.912 C219.681,201.325 219.528,200.665 219.378,199.893 C219.098,198.378 218.924,196.762 218.801,195.139 C218.359,188.624 218.237,181.98 218.251,175.357 C218.237,172.028 218.24,168.697 218.263,165.365 C219.835,165.547 221.82,165.686 224.032,165.789 C224.277,181.377 224.89,194.988 225.272,196.513 C226.387,200.971 234.116,200.959 244.133,200.445 C245.885,200.503 247.745,200.552 249.694,200.593 C250.761,203.234 250.168,213.205 249.326,215.286 C248.331,215.76 244.811,216.164 234.042,215.597 L233.903,215.59 C221.215,214.922 213.19,208.926 210.695,198.249 C209.32,192.364 209.817,170.288 210.461,150.891 C210.066,151.546 209.431,152.123 208.624,152.594 C208.633,152.503 208.626,152.411 208.639,152.322 C208.032,152.369 207.387,152.37 206.708,152.313 C202.907,151.987 200.421,150.05 200.569,148.515 C200.705,147.124 203.025,145.776 206.288,145.776 C206.628,145.776 206.978,145.792 207.336,145.822 C207.937,145.873 208.484,145.982 209.007,146.109 C209.704,146.618 210.239,147.205 210.564,147.842 M327.97,97.554 L330.145,97.158 C331.3,99.763 333.887,106.099 334.676,112.249 C330.759,112.254 326.584,112.271 322.246,112.299 C322.174,111.371 321.962,110.407 321.51,109.504 C320.45,107.381 316.784,106.958 283.125,107.659 C273.364,107.861 263.312,108.07 256.519,107.932 C256.886,104.993 256.789,101.975 255.949,99.469 C282.149,100.622 324.471,98.19 327.97,97.554 M255.837,111.533 C262.72,111.698 273.117,111.482 283.201,111.271 C296.715,110.989 315.042,110.607 318.456,111.558 C318.533,111.802 318.579,112.061 318.612,112.324 C297.369,112.5 272.891,112.971 255.149,113.742 C255.417,113.034 255.646,112.282 255.837,111.533 M338.452,113.891 L344.943,113.823 L360.756,113.784 L344.955,114.412 L338.501,114.617 L336.705,114.675 L329.151,114.914 L318.383,115.189 L297.538,115.718 L265.918,116.244 C261.842,116.294 257.765,116.332 253.69,116.367 C247.225,116.425 240.759,116.465 234.293,116.45 C240.924,116.153 247.559,115.917 254.192,115.698 C258.093,115.567 261.997,115.44 265.9,115.322 L297.512,114.515 L318.579,114.163 L322.229,114.104 L329.131,113.988 L334.839,113.928 L338.452,113.891 z M356.563,187.302 L356.538,187.104 L361.022,186.462 L356.563,187.302 z M356.271,194.465 L356.25,194.33 L359.181,193.784 L356.271,194.465 z M356.394,117.675 C357.141,117.543 357.888,117.404 358.625,117.223 C359.357,117.033 360.103,116.844 360.756,116.45 C360.12,116.873 359.376,117.1 358.652,117.321 C357.92,117.533 357.178,117.713 356.432,117.871 L356.394,117.675 z M355.851,125.091 C356.601,124.951 357.351,124.805 358.088,124.612 C358.819,124.411 359.573,124.21 360.205,123.773 C359.591,124.24 358.841,124.477 358.117,124.713 C357.383,124.938 356.639,125.124 355.89,125.288 L355.851,125.091 z M346.973,188.356 L346.935,187.834 L351.741,187.527 L351.774,187.886 L346.973,188.356 z M346.697,195.685 L346.657,195.209 L351.459,194.849 L351.492,195.161 L346.697,195.685 z M346.833,118.815 L351.625,118.342 L351.671,118.7 L346.887,119.334 L346.833,118.815 z M346.294,126.261 L351.084,125.779 L351.132,126.139 L346.348,126.782 L346.294,126.261 z M337.345,189.053 L337.308,188.304 L342.122,188.087 L342.161,188.738 L337.345,189.053 z M337.078,196.461 L337.037,195.737 L341.85,195.49 L341.891,196.112 L337.078,196.461 z M331.541,213.068 C331.375,213.2 331.154,213.327 330.632,213.21 L330.262,213.165 C327.708,213.12 269.799,212.124 253.407,213.134 C253.74,210.815 253.921,207.955 253.866,205.317 C265.127,206.04 306.889,206.54 310.777,205.027 C313.071,204.136 314.536,202.94 315.131,201.475 L315.19,201.319 C322.563,201.251 330.324,201.251 333.513,201.371 C333.504,205.041 333.354,211.617 331.541,213.068 M255.354,121.665 L250.542,121.383 L250.58,120.73 L255.386,120.913 L255.354,121.665 z M250.001,128.65 L250.037,127.997 L254.843,128.186 L254.811,128.938 L250.001,128.65 z M240.934,120.516 L240.971,120.149 L245.771,120.483 L245.734,121.012 L240.934,120.516 z M245.234,127.749 L245.195,128.276 L240.395,127.782 L240.433,127.415 L245.234,127.749 z M231.457,118.792 C233.012,119.192 234.6,119.428 236.188,119.642 L236.158,119.848 C234.575,119.575 232.994,119.257 231.457,118.792 M235.647,126.921 L235.617,127.127 L230.904,126.114 L235.647,126.921 z M235.953,195.316 L235.929,195.524 L231.17,194.767 L235.953,195.316 z M231.457,186.462 L236.246,186.98 L236.221,187.187 L231.457,186.462 z M245.799,188.285 L241.006,187.778 L241.042,187.412 L245.841,187.758 L245.799,188.285 z M245.519,196.549 L240.718,196.091 L240.75,195.721 L245.557,196.016 L245.519,196.549 z M255.417,189.056 L250.605,188.707 L250.65,188.052 L255.458,188.304 L255.417,189.056 z M298.729,120.966 L303.543,120.873 L303.573,122.028 L298.752,122.155 L298.729,120.966 z M303.002,128.256 L303.03,129.412 L298.208,129.526 L298.188,128.337 L303.002,128.256 z M303.354,197.842 L298.534,197.928 L298.519,196.744 L303.335,196.691 L303.354,197.842 z M298.792,190.261 L298.788,189.074 L303.604,189.057 L303.613,190.214 L298.792,190.261 z M307.843,152.808 C305.484,153.553 303.864,155.02 303.686,156.858 C303.457,159.235 305.714,161.405 309.116,162.379 C308.888,162.391 308.66,162.4 308.427,162.4 C304.011,162.4 300.432,160.248 300.432,157.595 C300.432,155.06 303.703,152.988 307.843,152.808 M312.631,128.018 L312.668,129.107 L307.848,129.273 L307.818,128.15 L312.631,128.018 z M308.391,121.878 L308.357,120.756 L313.171,120.612 L313.21,121.702 L308.391,121.878 z M313.893,161.095 L313.907,160.851 C313.299,160.898 312.655,160.899 311.976,160.84 C308.174,160.516 305.688,158.578 305.836,157.043 C305.972,155.652 308.293,154.305 311.555,154.305 C311.896,154.305 312.246,154.319 312.604,154.351 C313.222,154.403 313.785,154.516 314.325,154.648 C314.319,154.549 314.316,154.449 314.311,154.351 C315.617,155.205 316.421,156.342 316.421,157.595 C316.421,158.976 315.446,160.218 313.893,161.095 M312.965,196.519 L312.994,197.603 L308.174,197.733 L308.152,196.616 L312.965,196.519 z M313.234,188.951 L313.254,190.042 L308.435,190.14 L308.418,189.017 L313.234,188.951 z M322.63,197.27 L317.812,197.449 L317.78,196.398 L322.594,196.252 L322.63,197.27 z M318.076,189.919 L318.048,188.86 L322.863,188.744 L322.895,189.77 L318.076,189.919 z M317.984,120.441 L322.795,120.244 L322.844,121.27 L318.027,121.5 L317.984,120.441 z M322.255,127.669 L322.303,128.694 L317.485,128.916 L317.444,127.858 L322.255,127.669 z M327.712,189.568 L327.678,188.622 L332.494,188.481 L332.53,189.328 L327.712,189.568 z M327.409,196.111 L332.222,195.941 L332.263,196.766 L327.448,197.033 L327.409,196.111 z M327.606,120.037 L332.417,119.804 L332.47,120.65 L327.66,120.982 L327.606,120.037 z M331.878,127.244 L331.931,128.093 L327.119,128.417 L327.068,127.47 L331.878,127.244 z M337.282,120.275 L337.227,119.527 L342.035,119.199 L342.089,119.849 L337.282,120.275 z M336.688,126.974 L341.496,126.647 L341.551,127.297 L336.742,127.723 L336.688,126.974 z M289.099,121.127 L293.912,121.052 L293.929,122.239 L289.11,122.282 L289.099,121.127 z M293.37,128.41 L293.386,129.6 L288.565,129.631 L288.557,128.476 L293.37,128.41 z M293.708,197.98 L288.885,197.988 L288.882,196.828 L293.699,196.788 L293.708,197.98 z M289.146,190.235 L289.153,189.08 L293.971,189.082 L293.971,190.27 L289.146,190.235 z M279.469,122.293 L279.47,121.204 L284.289,121.178 L284.293,122.303 L279.469,122.293 z M283.747,128.514 L283.749,129.637 L278.924,129.617 L278.928,128.525 L283.747,128.514 z M284.069,196.847 L284.067,197.974 L279.25,197.935 L279.259,196.84 L284.069,196.847 z M279.505,190.087 L279.525,188.996 L284.337,189.052 L284.324,190.176 L279.505,190.087 z M274.11,128.51 L274.099,129.567 L269.275,129.49 L269.292,128.463 L274.11,128.51 z M274.645,122.258 L269.82,122.189 L269.833,121.164 L274.652,121.199 L274.645,122.258 z M274.442,196.807 L274.427,197.869 L269.604,197.773 L269.625,196.745 L274.442,196.807 z M269.868,189.819 L269.901,188.793 L274.714,188.911 L274.69,189.969 L269.868,189.819 z M311.379,200.599 C311.042,200.896 310.462,201.273 309.469,201.658 C305.912,202.979 262.226,202.224 253.591,201.707 C253.54,201.342 253.479,200.995 253.411,200.667 C269.759,200.946 291.383,200.84 311.379,200.599 M264.475,128.405 L264.452,129.354 L259.63,129.168 L259.657,128.318 L264.475,128.405 z M264.997,122.064 L260.174,121.887 L260.201,121.038 L265.016,121.115 L264.997,122.064 z M264.807,196.671 L264.781,197.628 L259.962,197.433 L259.991,196.575 L264.807,196.671 z M260.231,189.355 L260.271,188.506 L265.084,188.664 L265.048,189.61 L260.231,189.355 z M217.921,154.052 C223.048,153.891 243.283,153.916 248.126,154.024 C248.712,155.729 249.018,159.592 248.512,160.917 C244.602,161.515 222.881,161.248 217.88,160.569 C217.547,158.984 217.573,155.642 217.921,154.052 M250.329,196.909 L250.335,196.758 L250.365,196.25 L255.176,196.438 L255.144,197.196 L250.994,196.949 L250.329,196.909 z M206.203,178.805 L201.396,178.461 L201.408,178.328 L206.205,178.782 L206.203,178.805 z M205.595,185.791 L200.789,185.439 L200.803,185.292 L205.6,185.753 L205.595,185.791 z M199.292,113.081 L194.524,112.979 L194.536,112.709 L199.296,112.92 L199.292,113.081 z M199.314,119.838 L194.561,119.666 L194.573,119.398 L199.321,119.677 L199.314,119.838 z M203.883,153.862 C203.509,153.879 203.127,153.885 202.74,153.868 C198.328,153.682 194.842,151.381 194.955,148.731 C195.062,146.182 198.457,144.243 202.636,144.261 C200.244,145 198.597,146.476 198.417,148.329 C198.187,150.715 200.462,152.893 203.883,153.862 M204.111,112.981 L206.513,112.881 L204.114,113.035 L204.111,112.981 z M206.513,120.003 L204.104,119.961 L204.107,119.907 L206.513,120.003 z M196.591,178.057 L191.791,177.598 L191.83,177.249 L196.616,177.816 L196.591,178.057 z M195.986,185.026 L191.185,184.561 L191.228,184.199 L196.013,184.773 L195.986,185.026 z M185,112.55 L185.031,112.068 L189.781,112.416 L189.759,112.793 L185,112.55 z M189.806,119.451 L185.054,119.196 L185.087,118.715 L189.829,119.075 L189.806,119.451 z M186.995,177.091 L182.203,176.539 L182.275,175.975 L187.05,176.634 L186.995,177.091 z M186.39,184.048 L181.599,183.489 L181.675,182.912 L186.448,183.578 L186.39,184.048 z M175.49,111.917 L175.543,111.266 L180.287,111.675 L180.242,112.264 L175.49,111.917 z M180.304,118.906 L175.556,118.562 L175.61,117.908 L180.347,118.316 L180.304,118.906 z M177.418,175.929 L172.639,175.273 L172.742,174.574 L177.507,175.289 L177.418,175.929 z M176.816,182.871 L172.037,182.21 L172.142,181.504 L176.906,182.226 L176.816,182.871 z M165.992,111.129 L166.066,110.357 L170.803,110.826 L170.74,111.539 L165.992,111.129 z M170.81,118.183 L166.068,117.774 L166.141,117.003 L170.875,117.47 L170.81,118.183 z M167.866,174.58 L163.096,173.854 L163.23,173.035 L167.984,173.821 L167.866,174.58 z M167.263,181.513 L162.496,180.782 L162.63,179.957 L167.383,180.748 L167.263,181.513 z M156.505,110.232 L156.601,109.339 L161.333,109.861 L161.249,110.692 L156.505,110.232 z M161.329,117.339 L156.591,116.876 L156.687,115.984 L161.413,116.507 L161.329,117.339 z M158.333,173.095 L153.576,172.304 L153.74,171.366 L158.482,172.217 L158.333,173.095 z M157.734,180.019 L152.977,179.225 L153.143,178.281 L157.884,179.135 L157.734,180.019 z M148.823,171.482 L144.079,170.613 L144.272,169.596 L149.005,170.487 L148.823,171.482 z M148.224,178.398 L143.482,177.524 L143.675,176.506 L148.408,177.398 L148.224,178.398 z M142.298,108.679 L137.57,108.102 L137.702,107.052 L142.423,107.649 L142.298,108.679 z M142.4,115.314 L137.678,114.731 L137.812,113.684 L142.526,114.285 L142.4,115.314 z M140.562,141.075 C140.334,142.639 141.064,144.199 142.618,145.47 C143.039,145.814 143.521,146.112 144.029,146.389 C140.179,145.525 137.458,143.094 137.809,140.674 C138.16,138.265 141.432,136.713 145.343,136.962 C142.744,137.53 140.859,139.034 140.562,141.075 M151.767,109.743 L147.031,109.232 L147.148,108.224 L151.874,108.793 L151.767,109.743 z M151.858,116.388 L147.126,115.872 L147.245,114.862 L151.965,115.436 L151.858,116.388 z M148.351,145.309 C146.709,145.069 145.176,144.448 144.144,143.606 C143.284,142.901 142.847,142.106 142.946,141.42 C143.123,140.203 145.039,139.12 147.712,139.12 C148.197,139.12 148.707,139.155 149.235,139.232 C150.825,139.463 152.127,140.009 153.064,140.665 C153.532,141.4 153.748,142.188 153.633,142.974 C153.52,143.754 153.094,144.441 152.447,145.01 C151.273,145.401 149.821,145.522 148.351,145.309 M139.341,169.715 L134.61,168.786 L134.821,167.732 L139.544,168.68 L139.341,169.715 z M138.745,176.622 L134.013,175.693 L134.226,174.637 L138.948,175.585 L138.745,176.622 z M128.12,106.875 L128.269,105.788 L132.984,106.434 L132.843,107.501 L128.12,106.875 z M132.958,114.123 L128.243,113.492 L128.393,112.407 L133.101,113.056 L132.958,114.123 z M129.883,167.833 L125.163,166.851 L125.395,165.759 L130.104,166.759 L129.883,167.833 z M129.287,174.735 L124.566,173.751 L124.801,172.658 L129.51,173.66 L129.287,174.735 z M118.677,105.553 L118.843,104.429 L123.557,105.121 L123.4,106.228 L118.677,105.553 z M123.53,112.837 L118.823,112.157 L118.989,111.034 L123.689,111.732 L123.53,112.837 z M120.448,165.841 L115.739,164.806 L115.993,163.677 L120.691,164.731 L120.448,165.841 z M119.853,172.74 L115.144,171.701 L115.399,170.571 L120.097,171.628 L119.853,172.74 z M109.248,104.13 L109.433,102.968 L114.135,103.711 L113.961,104.855 L109.248,104.13 z M114.116,111.454 L109.416,110.726 L109.601,109.565 L114.293,110.311 L114.116,111.454 z M111.036,163.741 L106.339,162.65 L106.616,161.484 L111.301,162.594 L111.036,163.741 z M110.442,170.637 L105.746,169.543 L106.024,168.376 L110.708,169.487 L110.442,170.637 z M99.843,102.586 L100.044,101.412 L104.737,102.198 L104.542,103.379 L99.843,102.586 z M104.719,109.972 L100.028,109.18 L100.229,108.005 L104.915,108.791 L104.719,109.972 z M101.654,161.518 L96.975,160.351 L97.26,159.215 L101.935,160.361 L101.654,161.518 z M101.06,168.408 L96.382,167.239 L96.667,166.105 L101.342,167.253 L101.06,168.408 z M92.304,159.153 L87.641,157.927 L87.931,156.834 L92.591,158.038 L92.304,159.153 z M91.712,166.041 L87.05,164.813 L87.338,163.721 L91.999,164.928 L91.712,166.041 z M95.152,101.76 L90.467,100.9 L90.676,99.766 L95.357,100.604 L95.152,101.76 z M95.342,108.353 L90.663,107.499 L90.871,106.365 L95.547,107.198 L95.342,108.353 z M100.755,131.376 C100.641,132.153 100.219,132.838 99.576,133.406 C98.417,133.9 96.756,134.11 94.841,133.754 C93.21,133.448 91.703,132.765 90.707,131.88 C89.876,131.142 89.472,130.329 89.6,129.648 C89.728,128.968 90.398,128.355 91.441,127.968 C92.202,127.685 93.114,127.54 94.08,127.54 C94.697,127.54 95.336,127.599 95.972,127.717 C97.604,128.024 99.11,128.706 100.106,129.591 C100.334,129.794 100.522,130.002 100.684,130.21 C100.779,130.596 100.811,130.986 100.755,131.376 M84.931,129.075 C85.266,126.777 88.257,125.254 91.926,125.336 C91.464,125.429 91.021,125.553 90.6,125.709 C88.719,126.409 87.523,127.65 87.232,129.204 C86.94,130.758 87.606,132.349 89.107,133.682 C89.475,134.009 89.893,134.305 90.337,134.58 C86.926,133.575 84.604,131.32 84.931,129.075 M86.2,105.502 L85.987,106.615 L81.318,105.699 L81.534,104.607 L86.2,105.502 z M85.789,100.008 L81.117,99.081 L81.336,97.988 L86.002,98.894 L85.789,100.008 z M82.987,156.669 L78.341,155.377 L78.633,154.326 L83.277,155.597 L82.987,156.669 z M82.394,163.554 L77.748,162.263 L78.042,161.213 L82.686,162.483 L82.394,163.554 z M71.801,97.111 L72.03,96.063 L76.68,97.046 L76.456,98.116 L71.801,97.111 z M76.656,104.753 L71.999,103.773 L72.224,102.721 L76.874,103.681 L76.656,104.753 z M73.706,154.052 L69.083,152.69 L69.382,151.685 L74.001,153.023 L73.706,154.052 z M73.112,160.937 L68.492,159.574 L68.79,158.569 L73.409,159.908 L73.112,160.937 z M62.523,94.967 L62.764,93.96 L67.393,95.034 L67.156,96.063 L62.523,94.967 z M67.356,102.752 L62.716,101.693 L62.948,100.685 L67.583,101.723 L67.356,102.752 z M64.469,151.289 L59.87,149.84 L60.171,148.892 L64.77,150.305 L64.469,151.289 z M63.877,158.174 L59.278,156.724 L59.578,155.777 L64.178,157.19 L63.877,158.174 z M53.299,92.59 L53.545,91.669 L58.149,92.834 L57.901,93.816 L53.299,92.59 z M58.088,100.589 L53.477,99.417 L53.71,98.494 L58.325,99.604 L58.088,100.589 z M55.29,148.333 L50.73,146.778 L51.012,145.951 L55.582,147.445 L55.29,148.333 z M54.699,155.217 L50.139,153.662 L50.419,152.837 L54.989,154.331 L54.699,155.217 z M44.146,89.929 L44.387,89.131 L48.957,90.437 L48.712,91.296 L44.146,89.929 z M48.883,98.192 L44.3,96.907 L44.526,96.105 L49.112,97.33 L48.883,98.192 z M46.185,145.165 L41.663,143.491 L41.925,142.786 L46.456,144.399 L46.185,145.165 z M45.594,152.051 L41.072,150.378 L41.332,149.676 L45.865,151.287 L45.594,152.051 z M35.092,86.922 L35.328,86.248 L39.842,87.739 L39.602,88.475 L35.092,86.922 z M39.74,95.552 L35.202,94.114 L35.418,93.435 L39.96,94.811 L39.74,95.552 z M37.17,141.748 L32.707,139.921 L32.948,139.339 L37.421,141.105 L37.17,141.748 z M36.578,148.636 L32.113,146.81 L32.354,146.229 L36.828,147.993 L36.578,148.636 z M26.212,83.436 L26.442,82.896 L30.859,84.641 L30.625,85.252 L26.212,83.436 z M30.695,92.58 L26.235,90.924 L26.443,90.376 L30.91,91.962 L30.695,92.58 z M28.29,137.983 L23.934,135.915 L24.12,135.524 L28.51,137.487 L28.29,137.983 z M27.697,144.875 L23.337,142.809 L23.525,142.418 L27.916,144.379 L27.697,144.875 z M21.886,81.425 L17.671,79.188 L17.853,78.862 L22.093,80.993 L21.886,81.425 z M21.836,89.097 L17.528,87.067 L17.692,86.734 L22.026,88.656 L21.836,89.097 z M19.654,133.696 L15.488,131.269 L15.602,131.084 L19.807,133.408 L19.654,133.696 z M19.054,140.589 L14.887,138.166 L15,137.982 L19.207,140.303 L19.054,140.589 z M13.629,76.647 C12.325,75.738 11.065,74.761 9.894,73.682 L10.002,73.563 C11.189,74.608 12.463,75.551 13.78,76.427 L13.629,76.647 z M13.365,84.753 C12.014,83.917 10.701,83.012 9.489,81.982 L9.591,81.86 C10.818,82.855 12.142,83.725 13.502,84.525 L13.365,84.753 z M11.511,128.543 C10.234,127.565 9.007,126.519 7.922,125.333 C9.033,126.492 10.281,127.51 11.574,128.456 L11.511,128.543 z M10.907,135.442 C9.63,134.467 8.403,133.418 7.317,132.233 C8.429,133.394 9.677,134.411 10.971,135.356 L10.907,135.442 z M6.755,70.103 C6.307,69.436 5.912,68.732 5.594,67.996 C5.927,68.725 6.338,69.418 6.799,70.071 L6.755,70.103 z M6.374,78.4 C5.984,77.697 5.696,76.93 5.594,76.132 C5.714,76.928 6.019,77.683 6.422,78.374 L6.374,78.4 z M27.331,45.99 L27.382,46.092 L23.188,48.444 L23.147,48.379 L27.331,45.99 z M27.692,50.942 L23.496,53.294 L23.456,53.23 L27.639,50.84 L27.692,50.942 z M36.101,41.999 L36.171,42.175 L31.73,44.029 L31.669,43.889 L36.101,41.999 z M36.48,47.026 L32.04,48.878 L31.977,48.74 L36.409,46.849 L36.48,47.026 z M45.141,38.667 L45.225,38.92 L40.675,40.484 L40.597,40.269 L45.141,38.667 z M45.533,43.771 L40.983,45.334 L40.905,45.118 L45.449,43.518 L45.533,43.771 z M54.331,35.769 L54.426,36.098 L49.812,37.464 L49.722,37.173 L54.331,35.769 z M54.734,40.947 L50.121,42.315 L50.03,42.023 L54.639,40.617 L54.734,40.947 z M63.484,80.515 L63.495,80.559 L58.84,81.775 L63.484,80.515 z M63.612,33.187 L63.717,33.591 L59.064,34.812 L58.962,34.441 L63.612,33.187 z M64.025,38.441 L59.372,39.66 L59.272,39.291 L63.92,38.034 L64.025,38.441 z M67.332,84.513 L62.662,85.684 L67.32,84.466 L67.332,84.513 z M72.826,78.167 L72.857,78.304 L68.169,79.403 L68.147,79.313 L72.826,78.167 z M72.96,30.852 L73.073,31.334 L68.387,32.435 L68.279,31.99 L72.96,30.852 z M73.381,36.183 L68.695,37.284 L68.587,36.841 L73.27,35.7 L73.381,36.183 z M76.714,82.341 L72.017,83.4 L71.995,83.308 L76.684,82.2 L76.714,82.341 z M82.216,76.026 L82.264,76.254 L77.558,77.255 L77.517,77.073 L82.216,76.026 z M82.357,28.72 L82.475,29.28 L77.771,30.282 L77.654,29.762 L82.357,28.72 z M82.785,34.13 L78.079,35.134 L77.964,34.611 L82.665,33.569 L82.785,34.13 z M86.133,80.36 L81.419,81.328 L81.379,81.144 L86.085,80.127 L86.133,80.36 z M91.645,74.057 L91.706,74.377 L86.981,75.296 L86.926,75.021 L91.645,74.057 z M91.794,26.776 L91.912,27.384 L87.189,28.316 L87.069,27.724 L91.794,26.776 z M92.22,32.234 L87.499,33.167 L87.379,32.573 L92.102,31.628 L92.22,32.234 z M101.265,24.995 L101.379,25.631 L96.642,26.489 L96.525,25.868 L101.265,24.995 z M101.687,30.48 L96.951,31.339 L96.835,30.719 L101.574,29.847 L101.687,30.48 z M110.758,23.35 L110.868,24.012 L106.123,24.805 L106.01,24.155 L110.758,23.35 z M111.176,28.862 L106.431,29.654 L106.32,29.007 L111.067,28.2 L111.176,28.862 z M120.271,21.826 L120.376,22.518 L115.618,23.25 L115.512,22.575 L120.271,21.826 z M120.685,27.367 L115.928,28.099 L115.821,27.424 L120.58,26.678 L120.685,27.367 z M129.803,20.419 L129.903,21.136 L125.139,21.813 L125.035,21.109 L129.803,20.419 z M130.213,25.984 L125.447,26.662 L125.344,25.96 L130.112,25.269 L130.213,25.984 z M139.353,19.116 L139.449,19.859 L134.675,20.484 L134.577,19.754 L139.353,19.116 z M139.757,24.708 L134.983,25.334 L134.885,24.604 L139.661,23.965 L139.757,24.708 z M148.917,17.912 L149.009,18.682 L144.227,19.26 L144.132,18.502 L148.917,17.912 z M149.317,23.532 L144.536,24.107 L144.442,23.351 L149.224,22.76 L149.317,23.532 z M158.482,16.803 L158.57,17.601 L153.788,18.13 L153.697,17.347 L158.482,16.803 z M158.879,22.45 L154.095,22.98 L154.006,22.196 L158.792,21.653 L158.879,22.45 z M168.062,15.787 L168.144,16.61 L163.355,17.095 L163.271,16.283 L168.062,15.787 z M168.453,21.459 L163.664,21.944 L163.58,21.133 L168.371,20.636 L168.453,21.459 z M177.653,14.855 L177.73,15.707 L172.936,16.147 L172.856,15.311 L177.653,14.855 z M178.039,20.556 L173.244,20.997 L173.165,20.161 L177.961,19.707 L178.039,20.556 z M187.252,14.009 L187.325,14.888 L182.527,15.286 L182.451,14.421 L187.252,14.009 z M187.635,19.737 L182.835,20.137 L182.76,19.272 L187.562,18.859 L187.635,19.737 z M196.861,13.246 L196.928,14.152 L192.126,14.509 L192.056,13.618 L196.861,13.246 z M197.237,19.001 L192.433,19.358 L192.364,18.468 L197.17,18.097 L197.237,19.001 z M206.477,12.565 L206.537,13.498 L201.733,13.814 L201.667,12.896 L206.477,12.565 z M206.845,18.347 L202.041,18.664 L201.976,17.747 L206.785,17.415 L206.845,18.347 z M216.098,11.964 L216.153,12.921 L211.344,13.2 L211.285,12.255 L216.098,11.964 z M216.46,17.772 L211.653,18.05 L211.595,17.105 L216.407,16.814 L216.46,17.772 z M225.717,11.441 L225.766,12.427 L220.961,12.664 L220.91,11.693 L225.717,11.441 z M226.074,17.276 L221.27,17.514 L221.218,16.542 L226.027,16.291 L226.074,17.276 z M235.34,10.998 L235.381,12.008 L230.573,12.207 L230.528,11.21 L235.34,10.998 z M235.69,16.86 L230.88,17.058 L230.835,16.06 L235.648,15.848 L235.69,16.86 z M244.966,10.632 L245.001,11.669 L240.19,11.83 L240.153,10.805 L244.966,10.632 z M245.31,16.52 L240.499,16.68 L240.462,15.655 L245.277,15.481 L245.31,16.52 z M254.601,10.344 L254.626,11.408 L249.813,11.528 L249.783,10.477 L254.601,10.344 z M254.935,16.257 L250.124,16.38 L250.093,15.328 L254.909,15.194 L254.935,16.257 z M264.238,10.133 L264.255,11.225 L259.441,11.307 L259.419,10.23 L264.238,10.133 z M264.564,16.075 L259.749,16.156 L259.728,15.079 L264.546,14.984 L264.564,16.075 z M273.876,10.003 L273.886,11.122 L269.07,11.163 L269.056,10.058 L273.876,10.003 z M274.195,15.97 L269.378,16.014 L269.366,14.909 L274.185,14.853 L274.195,15.97 z M283.827,14.801 L283.826,15.944 L279.01,15.947 L279.005,14.817 L283.827,14.801 z M283.517,9.951 L283.517,11.096 L278.701,11.098 L278.695,9.969 L283.517,9.951 z M293.467,14.828 L293.458,15.999 L288.641,15.962 L288.646,14.806 L293.467,14.828 z M288.338,9.955 L293.159,9.978 L293.148,11.149 L288.333,11.112 L288.338,9.955 z M303.109,14.938 L303.088,16.134 L298.274,16.055 L298.288,14.873 L303.109,14.938 z M297.98,10.023 L302.8,10.088 L302.781,11.284 L297.964,11.206 L297.98,10.023 z M312.746,15.147 L312.714,16.333 L307.904,16.227 L307.928,15.028 L312.746,15.147 z M307.62,10.178 L312.437,10.297 L312.407,11.482 L307.594,11.378 L307.62,10.178 z M322.383,15.443 L322.345,16.604 L317.531,16.46 L317.566,15.286 L322.383,15.443 z M317.256,10.437 L322.075,10.594 L322.037,11.753 L317.222,11.608 L317.256,10.437 z M332.018,15.812 L331.972,16.944 L327.16,16.766 L327.201,15.62 L332.018,15.812 z M326.892,10.769 L331.708,10.961 L331.664,12.094 L326.85,11.914 L326.892,10.769 z M341.649,16.25 L341.595,17.356 L336.785,17.142 L336.833,16.022 L341.649,16.25 z M336.525,11.173 L341.34,11.4 L341.288,12.506 L336.475,12.291 L336.525,11.173 z M351.276,16.762 L351.216,17.84 L346.407,17.588 L346.463,16.498 L351.276,16.762 z M346.154,11.648 L350.968,11.912 L350.908,12.989 L346.097,12.738 L346.154,11.648 z M360.9,17.349 L360.833,18.401 L356.025,18.111 L356.088,17.045 L360.9,17.349 z M355.781,12.195 L360.59,12.499 L360.525,13.551 L355.717,13.261 L355.781,12.195 z M370.518,18.013 L370.445,19.037 L365.639,18.709 L365.71,17.671 L370.518,18.013 z M365.401,12.821 L370.209,13.163 L370.137,14.19 L365.331,13.86 L365.401,12.821 z M380.131,18.758 L380.05,19.756 L375.249,19.387 L375.326,18.376 L380.131,18.758 z M375.016,13.526 L379.823,13.908 L379.742,14.906 L374.94,14.538 L375.016,13.526 z M389.736,19.586 L389.65,20.556 L384.851,20.146 L384.934,19.161 L389.736,19.586 z M384.626,14.312 L389.428,14.735 L389.341,15.707 L384.543,15.295 L384.626,14.312 z M399.334,20.498 L399.242,21.443 L394.447,20.989 L394.537,20.031 L399.334,20.498 z M394.229,15.182 L399.026,15.648 L398.933,16.591 L394.138,16.138 L394.229,15.182 z M408.924,21.5 L408.826,22.417 L404.035,21.918 L404.13,20.989 L408.924,21.5 z M403.822,16.138 L408.615,16.65 L408.516,17.567 L403.726,17.069 L403.822,16.138 z M418.503,22.595 L418.399,23.482 L413.613,22.94 L413.714,22.036 L418.503,22.595 z M413.406,17.186 L418.194,17.744 L418.089,18.634 L413.303,18.088 L413.406,17.186 z M428.071,23.784 L427.96,24.646 L423.18,24.052 L423.29,23.177 L428.071,23.784 z M422.979,18.328 L427.762,18.934 L427.652,19.796 L422.873,19.203 L422.979,18.328 z M437.626,25.073 L437.509,25.908 L432.737,25.264 L432.85,24.416 L437.626,25.073 z M432.542,19.565 L437.317,20.224 L437.202,21.057 L432.428,20.415 L432.542,19.565 z M447.167,26.466 L447.045,27.273 L442.28,26.576 L442.399,25.757 L447.167,26.466 z M442.089,20.906 L446.858,21.617 L446.736,22.424 L441.97,21.728 L442.089,20.906 z M456.691,27.968 L456.565,28.748 L451.807,27.995 L451.931,27.203 L456.691,27.968 z M451.623,22.354 L456.382,23.118 L456.255,23.898 L451.5,23.146 L451.623,22.354 z M466.197,29.583 L466.065,30.335 L461.317,29.527 L461.447,28.763 L466.197,29.583 z M461.137,23.911 L465.887,24.734 L465.756,25.484 L461.009,24.678 L461.137,23.911 z M475.68,31.319 L475.545,32.043 L470.808,31.174 L470.942,30.437 L475.68,31.319 z M470.632,25.586 L475.373,26.47 L475.236,27.193 L470.499,26.325 L470.632,25.586 z M485.142,33.182 L485,33.877 L480.276,32.944 L480.415,32.234 L485.142,33.182 z M480.106,27.384 L484.833,28.332 L484.693,29.027 L479.967,28.094 L480.106,27.384 z M494.576,35.176 L494.429,35.845 L489.719,34.844 L489.863,34.162 L494.576,35.176 z M489.553,29.313 L494.267,30.327 L494.122,30.995 L489.41,29.995 L489.553,29.313 z M503.978,37.316 L503.829,37.955 L499.132,36.882 L499.282,36.228 L503.978,37.316 z M498.972,31.379 L503.669,32.466 L503.519,33.105 L498.825,32.032 L498.972,31.379 z M513.344,39.607 L513.19,40.219 L508.515,39.067 L508.667,38.441 L513.344,39.607 z M508.358,33.591 L513.037,34.757 L512.883,35.369 L508.206,34.218 L508.358,33.591 z M517.704,35.964 L522.361,37.213 L522.203,37.797 L517.547,36.562 L517.704,35.964 z M522.512,42.648 L517.857,41.412 L518.013,40.815 L522.67,42.064 L522.512,42.648 z M525.959,90.344 L525.937,90.423 L521.284,89.171 L521.317,89.047 L525.959,90.344 z M526.782,85.794 L531.408,87.15 L531.388,87.216 L526.75,85.905 L526.782,85.794 z M527.003,38.518 L531.631,39.872 L531.482,40.383 L526.848,39.066 L527.003,38.518 z M531.79,45.232 L527.158,43.917 L527.313,43.369 L531.94,44.722 L531.79,45.232 z M533.888,92.679 L530.579,91.721 L530.587,91.689 L533.888,92.679 z M536.018,88.554 L538.274,89.261 L536.012,88.573 L536.018,88.554 z M541.15,47.579 L541.012,48.013 L536.41,46.596 L536.553,46.125 L541.15,47.579 z M536.245,41.274 L540.842,42.73 L540.705,43.163 L536.1,41.744 L536.245,41.274 z M550.29,50.658 L550.166,51.015 L545.599,49.482 L545.73,49.09 L550.29,50.658 z M545.421,44.239 L549.981,45.808 L549.858,46.165 L545.29,44.634 L545.421,44.239 z M559.34,53.988 L559.233,54.27 L554.711,52.609 L554.828,52.29 L559.34,53.988 z M554.518,47.44 L559.031,49.138 L558.924,49.419 L554.403,47.758 L554.518,47.44 z M568.276,57.614 L568.189,57.821 L563.728,56.005 L563.826,55.761 L568.276,57.614 z M563.515,50.911 L567.968,52.765 L567.879,52.971 L563.417,51.154 L563.515,50.911 z M577.055,61.605 L576.992,61.738 L572.614,59.728 L572.689,59.56 L577.055,61.605 z M572.38,54.709 L576.748,56.755 L576.683,56.888 L572.304,54.878 L572.38,54.709 z M585.598,66.079 L585.563,66.141 L581.314,63.867 L581.365,63.771 L585.598,66.079 z M581.055,58.92 L585.289,61.23 L585.254,61.291 L581.005,59.016 L581.055,58.92 z M593.158,70.907 L589.709,68.597 L589.727,68.569 L593.158,70.907 z M589.417,63.719 L592.848,66.058 L589.401,63.746 L589.417,63.719 z M600.835,74.779 L600.566,75.798 L600.49,75.773 L600.835,74.779 z M608.215,135.185 C606.324,132.244 605.646,101.227 605.93,88.266 C605.958,86.994 607.626,81.955 607.626,81.119 C607.626,71.752 608.215,58.466 585.096,49.261 C585.096,49.261 488.512,7.268 295.101,2.503 C168.746,-0.609 66.079,20.35 46.455,26.165 C-1.481,40.367 -2.111,48.292 1.135,67.19 C4.382,86.086 5.813,125.709 4.624,131.309 C2.808,139.87 13.813,145.75 22.066,149.883 C38.054,157.887 87.568,177.787 206.531,193.864 C206.683,196.087 206.893,197.861 207.177,199.07 C210.033,211.3 219.458,218.448 233.713,219.198 L233.851,219.206 C237.444,219.396 240.375,219.495 242.763,219.495 C248.75,219.495 251.313,218.864 252.271,217.427 C252.373,217.273 252.472,217.059 252.568,216.815 C266.676,215.72 326.387,216.714 330.031,216.775 C330.362,216.839 330.687,216.871 331.005,216.871 C332.036,216.871 332.985,216.54 333.796,215.891 C336.89,213.417 337.137,206.869 337.126,200.374 L337.126,200.209 C345.785,200.051 353.213,199.888 358.506,199.752 C359.127,199.368 360.112,199.339 361.809,199.335 C362.246,199.333 362.868,199.331 363.343,199.305 C362.194,184.229 360.999,134.654 361.764,112.627 C361.781,112.162 361.796,111.691 361.814,111.254 C361.856,110.214 358.417,109.144 356.762,108.63 C354.317,107.868 352.544,107.302 352.621,105.788 L337.048,105.788 C335.411,99.651 332.978,94.65 332.82,94.331 L332.217,93.109 L327.324,93.999 C323.865,94.627 278.683,97.125 253.643,95.736 C253.088,95.223 252.453,94.781 251.714,94.45 C244.407,91.173 225.584,92.298 221.613,94.281 C221.387,94.395 221.13,94.516 220.85,94.648 C217.985,95.996 212.36,98.648 209.56,106.324 C132.848,102.77 78.955,89.916 97.654,85.602 C205.021,60.823 426.985,59.521 518.957,98.497 C530.495,103.387 438.22,107.339 405.447,106.667 C409.407,114.376 415.557,131.517 413.825,156.625 C412.64,173.774 410.097,186.587 407.702,194.808 C449.801,196.267 533.847,190.586 574.274,174.432 C598.178,163.934 608.838,143.422 608.838,143.422 C608.838,143.422 610.292,138.415 608.215,135.185" fill="#1A1919"/>
  </g>
</svg>
