<?xml version="1.0" encoding="UTF-8" standalone="no"?>
<svg
   xmlns:dc="http://purl.org/dc/elements/1.1/"
   xmlns:cc="http://creativecommons.org/ns#"
   xmlns:rdf="http://www.w3.org/1999/02/22-rdf-syntax-ns#"
   xmlns:svg="http://www.w3.org/2000/svg"
   xmlns="http://www.w3.org/2000/svg"
   xmlns:sodipodi="http://sodipodi.sourceforge.net/DTD/sodipodi-0.dtd"
   xmlns:inkscape="http://www.inkscape.org/namespaces/inkscape"
   id="svg3547"
   sodipodi:docname="bicycle.svg"
   viewBox="0 0 472.44094 332.59842"
   version="1.1"
   inkscape:version="1.0.2-2 (e86c870879, 2021-01-15)"
   width="125mm"
   height="88mm">
  <defs
     id="defs130" />
  <sodipodi:namedview
     id="base"
     fit-margin-left="20"
     inkscape:zoom="0.57083333"
     borderopacity="1.0"
     inkscape:current-layer="layer2"
     inkscape:cx="711.00001"
     inkscape:cy="570.00002"
     inkscape:window-maximized="1"
     showgrid="false"
     fit-margin-right="20"
     inkscape:document-units="px"
     bordercolor="#666666"
     inkscape:window-x="-8"
     inkscape:window-y="-8"
     fit-margin-bottom="20"
     inkscape:window-width="1920"
     inkscape:pageopacity="0.0"
     inkscape:pageshadow="2"
     pagecolor="#ffffff"
     inkscape:snap-object-midpoints="false"
     inkscape:window-height="1017"
     fit-margin-top="20"
     inkscape:document-rotation="0"
     units="mm" />
  <g
     id="layer2"
     inkscape:label="MTB"
     inkscape:groupmode="layer"
     transform="translate(11,-434.56)">
    <g
       id="g3941"
       inkscape:transform-center-x="13.410873"
       inkscape:transform-center-y="0.0067128682"
       transform="matrix(0.22717352,0.28207632,-0.28207632,0.22717352,346.19209,289.13558)">
      <path
         id="path3951"
         sodipodi:nodetypes="ccaaczcaac"
         style="fill:#cccccc;stroke:#666666;stroke-width:2;stroke-linecap:round;stroke-linejoin:round"
         inkscape:connector-curvature="0"
         d="m 538.37,932.18 13.139,10.073 c 0,0 -15.884,31.673 -26.715,45.547 -12.959,16.6 -30.859,28.728 -45.109,44.234 -7.4374,8.092 -21.022,25.401 -21.022,25.401 0,0 -8.7131,7.1869 -14.891,2.1898 -6.1774,-4.9972 -0.43796,-14.89 -0.43796,-14.89 0,0 14.269,-15.622 20.584,-24.088 12.686,-17.008 20.733,-37.369 34.599,-53.431 11.559,-13.389 39.854,-35.036 39.854,-35.036 z" />
      <circle
         id="path3953"
         style="fill:#333333;stroke:#666666;stroke-width:2;stroke-linecap:round;stroke-linejoin:round"
         transform="matrix(1.0657,0,0,1.0657,-35.908,-62.883)"
         cx="533.86859"
         cy="952.11676"
         r="7.4452553" />
      <ellipse
         id="path3955"
         style="fill:#333333;stroke:#666666;stroke-width:2;stroke-linecap:round;stroke-linejoin:round"
         transform="translate(-1.3139,-0.43796)"
         cx="451.31387"
         cy="1053.2847"
         rx="4.160584"
         ry="4.3795619" />
    </g>
    <g
       id="g4707"
       transform="matrix(0.36217958,0,0,0.36217958,-0.05158777,310.94893)">
      <path
         id="path4451"
         style="fill-opacity:0;stroke:#333333;stroke-width:30.119;stroke-linecap:round;stroke-linejoin:round"
         sodipodi:type="star"
         d="m 147.99589,863.30936 c -2.24977,1.70848 -10.94822,-6.47615 -13.26334,-4.85731 -2.31512,1.61883 2.38669,12.59809 0.01,14.12478 -2.37689,1.5267 -10.40637,-7.31517 -12.84136,-5.88297 -2.43499,1.4322 1.3909,12.74651 -1.09844,14.08201 -2.48935,1.3355 -9.80034,-8.10909 -12.3402,-6.87235 -2.53985,1.23674 0.38653,12.81635 -2.19992,13.95242 -2.58645,1.13607 -9.133894,-8.85303 -11.762954,-7.81938 -2.629059,1.03366 -0.620219,12.80717 -3.287833,13.73681 -2.667613,0.92964 -8.411139,-9.54237 -11.113193,-8.71818 -2.702054,0.82419 -1.623147,12.71903 -4.355475,13.4365 -2.732329,0.71748 -7.636525,-10.17289 -10.394915,-9.56324 -2.75839,0.60966 -2.616066,12.55247 -5.396264,13.05336 -2.780198,0.50089 -6.814828,-10.74068 -9.612548,-10.34933 -2.797719,0.39135 -3.592857,12.30852 -6.403784,12.58973 -2.810927,0.28121 -5.951116,-11.24226 -8.770916,-11.07162 -2.8198,0.17063 -4.547497,11.98868 -7.371822,12.04848 -2.824325,0.0598 -5.050713,-11.67452 -7.875209,-11.72565 -2.824495,-0.0511 -5.474099,11.59493 -8.29441,11.43296 -2.8203108,-0.16198 -4.1191712,-12.03481 -6.9309485,-12.30739 -2.8117771,-0.27257 -6.3669527,11.1297 -9.1658608,10.74694 -2.7989082,-0.38275 -3.1622331,-12.32089 -5.9439567,-12.81324 -2.781723,-0.49234 -7.220551,10.59585 -9.980801,9.99467 -2.760249,-0.60118 -2.185798,-12.53102 -4.920318,-13.2401 -2.734519,-0.70908 -8.029633,9.99666 -10.734205,9.18077 -2.704573,-0.81589 -1.195889,-12.66388 -3.866344,-13.58532 -2.670456,-0.92145 -8.78921,9.33584 -11.421431,8.31027 -2.632222,-1.02557 -0.198605,-12.71868 -2.788533,-13.8468 -2.589928,-1.12812 -9.494598,8.61747 -12.038239,7.38854 -2.543642,-1.22893 0.799903,-12.69505 -1.69353,-14.0229 -2.493432,-1.32785 -10.141448,7.84597 -12.580827,6.42126 -2.439379,-1.42472 1.79348,-12.59316 -0.588085,-14.11255 -2.381564,-1.51938 -10.725773,7.0261 -13.04585,5.41438 -2.320078,-1.61171 2.775998,-12.41362 0.520985,-14.11518 -2.255013,-1.70156 -11.243973,6.16291 -13.430443,4.37413 -2.18647,-1.78878 3.7414,-12.15755 1.62684,-14.0308 -2.11455,-1.87324 -11.69284,5.26172 -13.73223,3.3069 -2.03938,-1.95481 4.68374,-11.82652 2.72268,-13.85989 -1.96107,-2.03338 -12.06963,4.32808 -13.94936,2.21928 -1.87972,-2.10879 5.5972,-11.42259 3.80172,-13.60355 -1.79549,-2.18097 -12.372,3.36777 -14.08048,1.11799 -1.70848,-2.24978 6.47615,-10.94823 4.85732,-13.26334 -1.61884,-2.31512 -12.5981,2.38669 -14.12479,0.01 -1.5267,-2.37688 7.31517,-10.40636 5.88297,-12.84135 -1.4322,-2.43499 -12.74651,1.3909 -14.08201,-1.09845 -1.3355,-2.48934 8.10909,-9.80034 6.87235,-12.34019 -1.23673,-2.53986 -12.81635,0.38653 -13.95242,-2.19992 -1.13607,-2.58645 8.85303,-9.1339 7.81938,-11.76296 -1.03365,-2.62906 -12.80717,-0.62022 -13.73681,-3.28783 -0.92964,-2.66761 9.54237,-8.41114 8.71818,-11.11319 -0.82419,-2.70206 -12.71903,-1.62315 -13.4365,-4.35548 -0.71748,-2.73233 10.17289,-7.63652 9.56324,-10.39491 -0.60965,-2.75839 -12.55247,-2.61607 -13.05336,-5.39627 -0.50089,-2.7802 10.74068,-6.81483 10.34933,-9.61255 -0.39135,-2.79771 -12.30851,-3.59285 -12.58973,-6.40378 -0.28121,-2.81093 11.24226,-5.95112 11.07162,-8.77092 -0.17063,-2.8198 -11.98868,-4.54749 -12.04848,-7.37182 -0.0598,-2.82432 11.67452,-5.05071 11.72565,-7.87521 0.0511,-2.82449 -11.59493,-5.4741 -11.43296,-8.29441 0.16198,-2.82031 12.03481,-4.11917 12.30739,-6.93094 0.27257,-2.81178 -11.1297,-6.36696 -10.74694,-9.16587 0.38275,-2.7989 12.32089,-3.16223 12.81324,-5.94395 0.49234,-2.78173 -10.59585,-7.22055 -9.99467,-9.9808 0.60118,-2.76025 12.53102,-2.1858 13.2401,-4.92032 0.70908,-2.73452 -9.99666,-8.02963 -9.18077,-10.73421 0.81589,-2.70457 12.66388,-1.19589 13.58533,-3.86634 0.92144,-2.67046 -9.33585,-8.78921 -8.31028,-11.42143 1.02558,-2.63222 12.71868,-0.19861 13.8468,-2.78853 1.12812,-2.58993 -8.61747,-9.4946 -7.38854,-12.03824 1.22893,-2.54364 12.69505,0.7999 14.0229,-1.69353 1.32785,-2.49344 -7.84597,-10.14145 -6.42126,-12.58083 1.42472,-2.43938 12.59316,1.79348 14.11255,-0.58809 1.51939,-2.38156 -7.0261,-10.72577 -5.41438,-13.04585 1.61171,-2.32007 12.41362,2.776 14.11518,0.52099 1.70156,-2.25501 -6.16291,-11.24397 -4.37413,-13.43044 1.78878,-2.18647 12.15756,3.7414 14.0308,1.62684 1.87324,-2.11456 -5.26172,-11.69284 -3.3069,-13.73223 1.95481,-2.03938 11.82652,4.68374 13.8599,2.72267 2.03337,-1.96106 -4.32809,-12.06963 -2.21929,-13.94935 2.10879,-1.87973 11.42259,5.5972 13.60355,3.80171 2.180971,-1.79548 -3.36777,-12.372 -1.11799,-14.08047 2.249779,-1.70848 10.948226,6.47615 13.263343,4.85731 2.315116,-1.61883 -2.386691,-12.59809 -0.0098,-14.12479 2.376887,-1.52669 10.406361,7.31518 12.841353,5.88298 2.434992,-1.4322 -1.390898,-12.74652 1.098445,-14.08202 2.489343,-1.3355 9.80034,8.1091 12.340195,6.87236 2.539855,-1.23674 -0.386531,-12.81635 2.19992,-13.95242 2.586451,-1.13607 9.133896,8.85303 11.762956,7.81937 2.629059,-1.03365 0.62022,-12.80716 3.287833,-13.7368 2.667613,-0.92964 8.411139,9.54237 11.113193,8.71818 2.702054,-0.8242 1.623147,-12.71903 4.355475,-13.4365 2.732329,-0.71748 7.636525,10.17288 10.394915,9.56323 2.75839,-0.60965 2.616066,-12.55246 5.396264,-13.05335 2.780198,-0.50089 6.8148283,10.74068 9.6125478,10.34933 2.79771936,-0.39135 3.59285722,-12.30852 6.403784,-12.58973 2.8109269,-0.28121 5.9511159,11.24226 8.7709162,11.07162 2.8198,-0.17064 4.547497,-11.98868 7.371822,-12.04848 2.824325,-0.0598 5.050713,11.67452 7.875209,11.72565 2.824495,0.0511 5.474099,-11.59494 8.29441,-11.43296 2.820311,0.16198 4.119171,12.03481 6.930949,12.30738 2.811777,0.27258 6.366952,-11.12969 9.16586,-10.74694 2.798909,0.38276 3.162234,12.3209 5.943957,12.81324 2.781723,0.49235 7.220551,-10.59584 9.980801,-9.99466 2.760249,0.60117 2.185798,12.53102 4.920318,13.2401 2.734519,0.70908 8.029633,-9.99667 10.734205,-9.18078 2.704573,0.81589 1.195889,12.66389 3.866345,13.58533 2.670455,0.92144 8.789209,-9.33584 11.42143,-8.31027 2.632218,1.02557 0.198605,12.71867 2.788538,13.8468 2.58992,1.12812 9.49459,-8.61748 12.03823,-7.38854 2.54365,1.22893 -0.7999,12.69505 1.69353,14.0229 2.49344,1.32784 10.14145,-7.84598 12.58083,-6.42126 2.43938,1.42472 -1.79348,12.59316 0.58809,14.11254 2.38156,1.51939 10.72577,-7.02609 13.04585,-5.41438 2.32007,1.61172 -2.776,12.41362 -0.52099,14.11518 2.25501,1.70156 11.24397,-6.1629 13.43044,-4.37412 2.18647,1.78878 -3.7414,12.15755 -1.62684,14.03079 2.11456,1.87324 11.69284,-5.26171 13.73223,-3.3069 2.03939,1.95482 -4.68374,11.82653 -2.72267,13.8599 1.96107,2.03337 12.06963,-4.32808 13.94935,-2.21928 1.87973,2.10879 -5.5972,11.42258 -3.80171,13.60355 1.79548,2.18097 12.372,-3.36777 14.08048,-1.11799 1.70847,2.24978 -6.47616,10.94822 -4.85732,13.26334 1.61883,2.31512 12.59809,-2.38669 14.12479,-0.01 1.52669,2.37688 -7.31518,10.40636 -5.88298,12.84135 1.4322,2.43499 12.74652,-1.3909 14.08202,1.09844 1.3355,2.48935 -8.1091,9.80034 -6.87236,12.3402 1.23674,2.53985 12.81635,-0.38653 13.95242,2.19992 1.13607,2.58645 -8.85303,9.1339 -7.81937,11.76295 1.03365,2.62906 12.80717,0.62022 13.7368,3.28784 0.92964,2.66761 -9.54237,8.41114 -8.71818,11.11319 0.8242,2.70205 12.71903,1.62315 13.4365,4.35548 0.71748,2.73232 -10.17288,7.63652 -9.56323,10.39491 0.60965,2.75839 12.55247,2.61607 13.05335,5.39626 0.50089,2.7802 -10.74068,6.81483 -10.34933,9.61255 0.39135,2.79772 12.30852,3.59286 12.58973,6.40379 0.28121,2.81092 -11.24226,5.95111 -11.07162,8.77091 0.17064,2.8198 11.98868,4.5475 12.04848,7.37182 0.0598,2.82433 -11.67452,5.05072 -11.72564,7.87521 -0.0511,2.8245 11.59493,5.4741 11.43295,8.29441 -0.16198,2.82031 -12.03481,4.11917 -12.30738,6.93095 -0.27258,2.81178 11.12969,6.36695 10.74694,9.16586 -0.38276,2.79891 -12.3209,3.16224 -12.81324,5.94396 -0.49235,2.78172 10.59584,7.22055 9.99466,9.9808 -0.60117,2.76025 -12.53102,2.1858 -13.2401,4.92032 -0.70907,2.73452 9.99667,8.02963 9.18078,10.7342 -0.81589,2.70458 -12.66389,1.19589 -13.58533,3.86635 -0.92144,2.67045 9.33585,8.78921 8.31027,11.42143 -1.02557,2.63222 -12.71867,0.1986 -13.8468,2.78853 -1.12812,2.58993 8.61748,9.4946 7.38854,12.03824 -1.22893,2.54364 -12.69505,-0.7999 -14.02289,1.69353 -1.32785,2.49343 7.84597,10.14145 6.42125,12.58083 -1.42472,2.43938 -12.59316,-1.79348 -14.11254,0.58808 -1.51939,2.38157 7.02609,10.72578 5.41438,13.04585 -1.61172,2.32008 -12.41362,-2.776 -14.11518,-0.52098 -1.70156,2.25501 6.1629,11.24397 4.37412,13.43044 -1.78878,2.18647 -12.15755,-3.7414 -14.03079,-1.62684 -1.87324,2.11456 5.26171,11.69284 3.3069,13.73223 -1.95482,2.03938 -11.82653,-4.68374 -13.8599,-2.72268 -2.03337,1.96107 4.32808,12.06963 2.21929,13.94936 -2.1088,1.87973 -11.42259,-5.5972 -13.60356,-3.80171 -2.18097,1.79548 3.36777,12.37199 1.11799,14.08047 z"
         sodipodi:r1="205.96465"
         inkscape:flatsided="false"
         transform="matrix(1.0408,0,0,1.0408,230.61,192.17)"
         sodipodi:arg2="0.96057718"
         sodipodi:arg1="0.92130727"
         inkscape:randomized="0"
         sodipodi:cy="699.28058"
         sodipodi:cx="23.432682"
         inkscape:rounded="0.2"
         sodipodi:r2="194.22466"
         sodipodi:sides="80" />
      <ellipse
         id="path4453"
         style="fill-opacity:0;stroke:#b3b3b3;stroke-width:14.812;stroke-linecap:round;stroke-linejoin:round"
         transform="matrix(0.94145,0,0,0.98628,20.615,3.6707)"
         cx="248.96118"
         cy="929.07166"
         rx="196.89087"
         ry="187.94128" />
      <g
         id="g4575"
         transform="translate(1.6603,0.34665)">
        <path
           id="path4471"
           style="fill:#000000;stroke:#000000;stroke-width:2;stroke-linecap:round;stroke-linejoin:round"
           d="m 254.34,912.67 179.1,-11.28"
           sodipodi:nodetypes="cc"
           inkscape:transform-center-y="-12.624007"
           inkscape:connector-curvature="0"
           inkscape:transform-center-x="-90.549495" />
        <path
           id="path4505"
           style="fill:#000000;stroke:#000000;stroke-width:2;stroke-linecap:round;stroke-linejoin:round"
           d="M 251.89,912.75 416.33,840.89"
           inkscape:transform-center-x="-80.771025"
           inkscape:transform-center-y="-42.832437"
           inkscape:connector-curvature="0"
           sodipodi:nodetypes="cc" />
        <path
           id="path4507"
           style="fill:#000000;stroke:#000000;stroke-width:2;stroke-linecap:round;stroke-linejoin:round"
           d="M 249.62,913.66 379.57,789.9"
           sodipodi:nodetypes="cc"
           inkscape:transform-center-y="-67.874642"
           inkscape:connector-curvature="0"
           inkscape:transform-center-x="-61.25038" />
        <path
           id="path4509"
           style="fill:#000000;stroke:#000000;stroke-width:2;stroke-linecap:round;stroke-linejoin:round"
           d="M 247.79,915.3 327.569,754.55"
           inkscape:transform-center-x="-34.342035"
           inkscape:transform-center-y="-84.730162"
           inkscape:connector-curvature="0"
           sodipodi:nodetypes="cc" />
        <path
           id="path4511"
           style="fill:#000000;stroke:#000000;stroke-width:2;stroke-linecap:round;stroke-linejoin:round"
           d="M 246.64,917.46 266.63,739.12"
           sodipodi:nodetypes="cc"
           inkscape:transform-center-y="-91.365977"
           inkscape:connector-curvature="0"
           inkscape:transform-center-x="-3.291535" />
        <path
           id="path4513"
           style="fill:#000000;stroke:#000000;stroke-width:2;stroke-linecap:round;stroke-linejoin:round"
           d="M 246.29,919.88 204.08,745.46"
           inkscape:transform-center-x="28.15597"
           inkscape:transform-center-y="-86.981707"
           inkscape:connector-curvature="0"
           sodipodi:nodetypes="cc" />
        <path
           id="path4515"
           style="fill:#000000;stroke:#000000;stroke-width:2;stroke-linecap:round;stroke-linejoin:round"
           d="M 246.79,922.28 147.47,772.82"
           sodipodi:nodetypes="cc"
           inkscape:transform-center-y="-72.106157"
           inkscape:connector-curvature="0"
           inkscape:transform-center-x="56.20745" />
        <path
           id="path4517"
           style="fill:#000000;stroke:#000000;stroke-width:2;stroke-linecap:round;stroke-linejoin:round"
           d="M 248.08,924.36 103.64,817.88"
           inkscape:transform-center-x="77.479485"
           inkscape:transform-center-y="-48.533542"
           inkscape:connector-curvature="0"
           sodipodi:nodetypes="cc" />
        <path
           id="path4519"
           style="fill:#000000;stroke:#000000;stroke-width:2;stroke-linecap:round;stroke-linejoin:round"
           d="M 250.01,925.87 77.85,875.22"
           sodipodi:nodetypes="cc"
           inkscape:transform-center-y="-19.107062"
           inkscape:connector-curvature="0"
           inkscape:transform-center-x="89.40635" />
        <path
           id="path4521"
           style="fill:#000000;stroke:#000000;stroke-width:2;stroke-linecap:round;stroke-linejoin:round"
           d="M 252.34,926.64 73.24,937.92"
           inkscape:transform-center-x="90.549489"
           inkscape:transform-center-y="12.624008"
           inkscape:connector-curvature="0"
           sodipodi:nodetypes="cc" />
        <path
           id="path4523"
           style="fill:#000000;stroke:#000000;stroke-width:2;stroke-linecap:round;stroke-linejoin:round"
           d="M 254.79,926.56 90.35,998.41"
           sodipodi:nodetypes="cc"
           inkscape:transform-center-y="42.832433"
           inkscape:connector-curvature="0"
           inkscape:transform-center-x="80.77102" />
        <path
           id="path4525"
           style="fill:#000000;stroke:#000000;stroke-width:2;stroke-linecap:round;stroke-linejoin:round"
           d="M 257.06,925.65 127.12,1049.4"
           inkscape:transform-center-x="61.250381"
           inkscape:transform-center-y="67.874623"
           inkscape:connector-curvature="0"
           sodipodi:nodetypes="cc" />
        <path
           id="path4527"
           style="fill:#000000;stroke:#000000;stroke-width:2;stroke-linecap:round;stroke-linejoin:round"
           d="M 258.89,924.01 179.11,1084.8"
           sodipodi:nodetypes="cc"
           inkscape:transform-center-y="84.730133"
           inkscape:connector-curvature="0"
           inkscape:transform-center-x="34.342041" />
        <path
           id="path4529"
           style="fill:#000000;stroke:#000000;stroke-width:2;stroke-linecap:round;stroke-linejoin:round"
           d="M 260.04,921.85 240.05,1100.2"
           inkscape:transform-center-x="3.291546"
           inkscape:transform-center-y="91.365953"
           inkscape:connector-curvature="0"
           sodipodi:nodetypes="cc" />
        <path
           id="path4531"
           style="fill:#000000;stroke:#000000;stroke-width:2;stroke-linecap:round;stroke-linejoin:round"
           d="m 260.39,919.43 42.211,174.42"
           sodipodi:nodetypes="cc"
           inkscape:transform-center-y="86.981703"
           inkscape:connector-curvature="0"
           inkscape:transform-center-x="-28.155954" />
        <path
           id="path4533"
           style="fill:#000000;stroke:#000000;stroke-width:2;stroke-linecap:round;stroke-linejoin:round"
           d="m 259.89,917.03 99.32,149.46"
           inkscape:transform-center-x="-56.207434"
           inkscape:transform-center-y="72.106138"
           inkscape:connector-curvature="0"
           sodipodi:nodetypes="cc" />
        <path
           id="path4535"
           style="fill:#000000;stroke:#000000;stroke-width:2;stroke-linecap:round;stroke-linejoin:round"
           d="M 258.59,914.95 403.04,1021.4"
           sodipodi:nodetypes="cc"
           inkscape:transform-center-y="48.533513"
           inkscape:connector-curvature="0"
           inkscape:transform-center-x="-77.479464" />
        <path
           id="path4537"
           style="fill:#000000;stroke:#000000;stroke-width:2;stroke-linecap:round;stroke-linejoin:round"
           d="m 256.67,913.43 172.16,50.654"
           inkscape:transform-center-x="-89.406319"
           inkscape:transform-center-y="19.107048"
           inkscape:connector-curvature="0"
           sodipodi:nodetypes="cc" />
        <path
           id="path4539"
           style="fill:#000000;stroke:#000000;stroke-width:2;stroke-linecap:round;stroke-linejoin:round"
           d="M 249.84,913.53 79.18,969.02"
           sodipodi:nodetypes="cc"
           inkscape:transform-center-y="21.620918"
           inkscape:connector-curvature="0"
           inkscape:transform-center-x="88.831891" />
        <path
           id="path4541"
           style="fill:#000000;stroke:#000000;stroke-width:2;stroke-linecap:round;stroke-linejoin:round"
           d="M 247.95,915.1 106.57,1025.6"
           inkscape:transform-center-x="76.079881"
           inkscape:transform-center-y="50.699298"
           inkscape:connector-curvature="0"
           sodipodi:nodetypes="cc" />
        <path
           id="path4543"
           style="fill:#000000;stroke:#000000;stroke-width:2;stroke-linecap:round;stroke-linejoin:round"
           d="M 246.72,917.21 151.66,1069.4"
           sodipodi:nodetypes="cc"
           inkscape:transform-center-y="73.662588"
           inkscape:connector-curvature="0"
           inkscape:transform-center-x="54.151521" />
        <path
           id="path4545"
           style="fill:#000000;stroke:#000000;stroke-width:2;stroke-linecap:round;stroke-linejoin:round"
           d="M 246.29,919.62 209.01,1095.2"
           inkscape:transform-center-x="25.691696"
           inkscape:transform-center-y="87.741118"
           inkscape:connector-curvature="0"
           sodipodi:nodetypes="cc" />
        <path
           id="path4547"
           style="fill:#000000;stroke:#000000;stroke-width:2;stroke-linecap:round;stroke-linejoin:round"
           d="m 246.7,922.04 25.011,177.7"
           sodipodi:nodetypes="cc"
           inkscape:transform-center-y="91.236738"
           inkscape:connector-curvature="0"
           inkscape:transform-center-x="-5.866934" />
        <path
           id="path4549"
           style="fill:#000000;stroke:#000000;stroke-width:2;stroke-linecap:round;stroke-linejoin:round"
           d="m 247.92,924.17 84.281,158.43"
           inkscape:transform-center-x="-36.717919"
           inkscape:transform-center-y="83.727893"
           inkscape:connector-curvature="0"
           sodipodi:nodetypes="cc" />
        <path
           id="path4551"
           style="fill:#000000;stroke:#000000;stroke-width:2;stroke-linecap:round;stroke-linejoin:round"
           d="M 249.79,925.75 383.17,1045.8"
           sodipodi:nodetypes="cc"
           inkscape:transform-center-y="66.120223"
           inkscape:connector-curvature="0"
           inkscape:transform-center-x="-63.140184" />
        <path
           id="path4553"
           style="fill:#000000;stroke:#000000;stroke-width:2;stroke-linecap:round;stroke-linejoin:round"
           d="m 252.09,926.6 166.4,67.191"
           inkscape:transform-center-x="-81.946814"
           inkscape:transform-center-y="40.537468"
           inkscape:connector-curvature="0"
           sodipodi:nodetypes="cc" />
        <path
           id="path4555"
           style="fill:#000000;stroke:#000000;stroke-width:2;stroke-linecap:round;stroke-linejoin:round"
           d="m 254.54,926.61 179.35,6.2264"
           sodipodi:nodetypes="cc"
           inkscape:transform-center-y="10.065298"
           inkscape:connector-curvature="0"
           inkscape:transform-center-x="-90.869449" />
        <path
           id="path4557"
           style="fill:#000000;stroke:#000000;stroke-width:2;stroke-linecap:round;stroke-linejoin:round"
           d="M 256.84,925.78 427.5,870.29"
           inkscape:transform-center-x="-88.831884"
           inkscape:transform-center-y="-21.620897"
           inkscape:connector-curvature="0"
           sodipodi:nodetypes="cc" />
        <path
           id="path4559"
           style="fill:#000000;stroke:#000000;stroke-width:2;stroke-linecap:round;stroke-linejoin:round"
           d="M 258.72,924.21 400.11,813.7"
           sodipodi:nodetypes="cc"
           inkscape:transform-center-y="-50.699292"
           inkscape:connector-curvature="0"
           inkscape:transform-center-x="-76.079884" />
        <path
           id="path4561"
           style="fill:#000000;stroke:#000000;stroke-width:2;stroke-linecap:round;stroke-linejoin:round"
           d="m 259.96,922.09 95.06,-152.2"
           inkscape:transform-center-x="-54.151524"
           inkscape:transform-center-y="-73.662602"
           inkscape:connector-curvature="0"
           sodipodi:nodetypes="cc" />
        <path
           id="path4563"
           style="fill:#000000;stroke:#000000;stroke-width:2;stroke-linecap:round;stroke-linejoin:round"
           d="M 260.39,919.68 297.67,744.14"
           sodipodi:nodetypes="cc"
           inkscape:transform-center-y="-87.741117"
           inkscape:connector-curvature="0"
           inkscape:transform-center-x="-25.691694" />
        <path
           id="path4565"
           style="fill:#000000;stroke:#000000;stroke-width:2;stroke-linecap:round;stroke-linejoin:round"
           d="M 259.98,917.27 234.97,739.57"
           inkscape:transform-center-x="5.866936"
           inkscape:transform-center-y="-91.236757"
           inkscape:connector-curvature="0"
           sodipodi:nodetypes="cc" />
        <path
           id="path4567"
           style="fill:#000000;stroke:#000000;stroke-width:2;stroke-linecap:round;stroke-linejoin:round"
           d="M 258.76,915.14 174.48,756.71"
           sodipodi:nodetypes="cc"
           inkscape:transform-center-y="-83.727897"
           inkscape:connector-curvature="0"
           inkscape:transform-center-x="36.717926" />
        <path
           id="path4569"
           style="fill:#000000;stroke:#000000;stroke-width:2;stroke-linecap:round;stroke-linejoin:round"
           d="M 256.89,913.56 123.51,793.51"
           inkscape:transform-center-x="63.140191"
           inkscape:transform-center-y="-66.120217"
           inkscape:connector-curvature="0"
           sodipodi:nodetypes="cc" />
        <path
           id="path4571"
           style="fill:#000000;stroke:#000000;stroke-width:2;stroke-linecap:round;stroke-linejoin:round"
           d="M 254.59,912.71 88.19,845.52"
           sodipodi:nodetypes="cc"
           inkscape:transform-center-y="-40.537462"
           inkscape:connector-curvature="0"
           inkscape:transform-center-x="81.946818" />
        <path
           id="path4573"
           style="fill:#000000;stroke:#000000;stroke-width:2;stroke-linecap:round;stroke-linejoin:round"
           d="M 252.14,912.7 72.8,906.47"
           inkscape:transform-center-x="90.86945"
           inkscape:transform-center-y="-10.065292"
           inkscape:connector-curvature="0"
           sodipodi:nodetypes="cc" />
      </g>
      <path
         id="path4455"
         style="fill:#cccccc;stroke:#666666;stroke-width:4.0004;stroke-linecap:round;stroke-linejoin:round"
         sodipodi:type="star"
         d="m 237.8773,912.5391 -0.10441,6.4472 -6.44012,0.31967 -1.36019,6.30296 -6.37874,-0.94288 -2.5637,5.91649 -6.07223,-2.16919 -3.66869,5.30265 -5.53236,-3.31215 -4.6327,4.48504 -4.77989,-4.32781 -5.41866,3.49506 -3.84374,-5.17717 -5.9964,2.37078 -2.75986,-5.82756 -6.34369,1.15538 -1.56994,-6.25401 -6.4472,-0.10441 -0.31967,-6.44012 -6.30296,-1.36019 0.94288,-6.37874 -5.91649,-2.5637 2.16919,-6.07223 -5.30265,-3.66869 3.31215,-5.53237 -4.48504,-4.63269 4.32781,-4.77989 -3.49506,-5.41866 5.17717,-3.84374 -2.37078,-5.9964 5.82756,-2.75986 -1.15538,-6.3437 6.25401,-1.56993 0.10441,-6.44721 6.44012,-0.31967 1.36019,-6.30295 6.37874,0.94288 2.5637,-5.91649 6.07223,2.16919 3.66869,-5.30265 5.53237,3.31215 4.63269,-4.48504 4.77989,4.32781 5.41866,-3.49506 3.84374,5.17717 5.9964,-2.37078 2.75986,5.82756 6.3437,-1.15538 1.56993,6.25401 6.44721,0.10441 0.31967,6.44012 6.30295,1.36019 -0.94288,6.37874 5.91649,2.5637 -2.16919,6.07223 5.30265,3.66869 -3.31215,5.53237 4.48504,4.63269 -4.32781,4.77989 3.49506,5.41866 -5.17717,3.84374 2.37078,5.9964 -5.82756,2.75986 1.15538,6.34369 z"
         sodipodi:r1="48.021698"
         inkscape:flatsided="false"
         transform="matrix(0.83041,0,0,0.83041,88.709,187)"
         sodipodi:arg2="0.76869633"
         sodipodi:arg1="0.67052156"
         inkscape:randomized="0"
         sodipodi:cy="882.69867"
         sodipodi:cx="200.25241"
         inkscape:rounded="0"
         sodipodi:r2="52.197498"
         sodipodi:sides="32" />
      <path
         id="path4457"
         style="fill:#cccccc;stroke:#666666;stroke-width:2.6341;stroke-linecap:round;stroke-linejoin:round"
         sodipodi:type="star"
         d="m 368.06959,542.83363 -3.80548,-0.83305 -2.39062,3.07581 -3.51078,-1.6882 -3.03551,2.44159 -3.02683,-2.45235 -3.51675,1.67575 -2.37969,-3.08428 -3.80841,0.81955 -1.60426,-3.54993 -3.89476,-0.0808 -0.74235,-3.82421 -3.77113,-0.97684 0.15958,-3.89232 -3.44421,-1.82019 1.05292,-3.7506 -2.93161,-2.56541 1.88948,-3.40669 -2.26096,-3.17234 2.62419,-2.87911 -1.46843,-3.60824 3.21743,-2.19633 -0.59673,-3.84962 3.6372,-1.39514 0.30715,-3.88347 3.8609,-0.51873 1.19445,-3.70796 3.87646,0.38563 2.01737,-3.33254 3.68304,1.26921 2.73153,-2.77748 3.29106,2.08436 3.29843,-2.07268 2.72166,2.78716 3.68752,-1.25614 2.00554,3.33968 3.8778,-0.37188 1.18129,3.71217 3.85904,0.53242 0.29337,3.88454 3.63223,1.40803 -0.61038,3.84748 3.20961,2.20772 -1.48121,3.60301 2.61396,2.88841 -2.2722,3.16429 1.87739,3.41337 -2.94069,2.555 1.0396,3.75431 -3.45064,1.80796 0.14577,3.89287 -3.77457,0.96345 -0.75591,3.82155 -3.89502,0.067 z"
         sodipodi:r1="28.380297"
         inkscape:flatsided="false"
         transform="matrix(1.2528,0,0,1.2528,-190.22,271.63)"
         sodipodi:arg2="1.223504"
         sodipodi:arg1="1.1071487"
         inkscape:randomized="0"
         sodipodi:cy="517.44952"
         sodipodi:cx="355.37753"
         inkscape:rounded="0"
         sodipodi:r2="26.109873"
         sodipodi:sides="27" />
      <path
         id="path4459"
         style="fill:#cccccc;stroke:#666666;stroke-width:2.7539;stroke-linecap:round;stroke-linejoin:round"
         sodipodi:type="star"
         d="m 227.04674,554.11549 -3.40326,-2.91618 -3.54988,2.73582 -2.49028,-3.72623 -4.15635,1.67662 -1.39262,-4.25992 -4.45457,0.49308 -0.19166,-4.47768 -4.42241,-0.72703 1.02351,-4.36335 -4.06227,-1.89322 2.16278,-3.9254 -3.40085,-2.91901 3.14163,-3.19632 -2.48719,-3.7283 3.88749,-2.23019 -1.38908,-4.26108 4.34504,-1.09866 -0.18795,-4.47784 4.48032,0.11436 1.02714,-4.36249 4.28332,1.31889 2.16603,-3.9236 3.76866,2.42561 3.14428,-3.19372 2.97448,3.35244 3.88934,-2.22697 1.9597,4.03062 4.34594,-1.09505 0.79958,4.40988 4.48023,0.11807 -0.41984,4.46207 4.28223,1.32245 -1.60813,4.18333 3.76664,2.42874 -2.67713,3.59434 2.97169,3.3549 -3.5476,2.73877 1.95636,4.03224 -4.15496,1.68008 0.79592,4.41054 -4.45416,0.49677 -0.42354,4.46172 -4.42302,-0.72336 -1.6116,4.182 -4.06384,-1.88985 z"
         sodipodi:r1="25.540319"
         inkscape:flatsided="false"
         transform="matrix(1.1983,0,0,1.1983,-13.632,286.52)"
         sodipodi:arg2="1.5967301"
         sodipodi:arg1="1.4601391"
         inkscape:randomized="0"
         sodipodi:cy="528.73138"
         sodipodi:cx="224.22629"
         inkscape:rounded="0"
         sodipodi:r2="22.475481"
         sodipodi:sides="23" />
      <path
         id="path4461"
         style="fill:#cccccc;stroke:#666666;stroke-width:2.6356;stroke-linecap:round;stroke-linejoin:round"
         sodipodi:type="star"
         d="m 243.96948,583.73023 -3.75421,-0.804 -2.27546,3.09239 -3.28975,-1.97943 -3.15626,2.18598 -2.46877,-2.94035 -3.69504,1.04271 -1.38028,-3.58265 -3.8334,-0.21357 -0.14221,-3.83671 -3.55634,-1.44669 1.11127,-3.675 -2.89391,-2.52306 2.24433,-3.11504 -1.91788,-3.326 3.13418,-2.21753 -0.73401,-3.76853 3.6844,-1.07971 0.52939,-3.80267 3.83535,0.17511 1.73543,-3.42473 3.57068,1.41096 2.75342,-2.67568 2.91907,2.49391 3.47302,-1.63667 1.95114,3.3066 3.81626,-0.42031 0.77177,3.76098 3.74596,0.84161 -0.49123,3.80778 3.26973,2.01232 -1.70101,3.44197 2.43917,2.96497 -2.72645,2.70315 1.34428,3.59631 -3.45643,1.67142 0.10373,3.83794 -3.81186,0.45855 z"
         sodipodi:r1="19.591516"
         inkscape:flatsided="false"
         transform="matrix(1.2521,0,0,1.2521,-38.177,210.41)"
         sodipodi:arg2="1.2080689"
         sodipodi:arg1="1.0427219"
         inkscape:randomized="0"
         sodipodi:cy="566.8075"
         sodipodi:cx="234.09789"
         inkscape:rounded="0"
         sodipodi:r2="17.240536"
         sodipodi:sides="19" />
    </g>
    <g
       id="g4885"
       transform="matrix(0.36217958,0,0,0.36217958,17.333032,310.94893)">
      <path
         id="path4754"
         style="fill-opacity:0;stroke:#333333;stroke-width:30.119;stroke-linecap:round;stroke-linejoin:round"
         sodipodi:type="star"
         sodipodi:sides="80"
         sodipodi:r1="205.96465"
         sodipodi:r2="194.22466"
         sodipodi:arg1="0.92130727"
         sodipodi:arg2="0.96057718"
         transform="matrix(1.0408,0,0,1.0408,936.61,192.17)"
         inkscape:randomized="0"
         sodipodi:cy="699.28058"
         sodipodi:cx="23.432682"
         inkscape:rounded="0.2"
         inkscape:flatsided="false"
         d="m 147.99589,863.30936 c -2.24977,1.70848 -10.94822,-6.47615 -13.26334,-4.85731 -2.31512,1.61883 2.38669,12.59809 0.01,14.12478 -2.37689,1.5267 -10.40637,-7.31517 -12.84136,-5.88297 -2.43499,1.4322 1.3909,12.74651 -1.09844,14.08201 -2.48935,1.3355 -9.80034,-8.10909 -12.3402,-6.87235 -2.53985,1.23674 0.38653,12.81635 -2.19992,13.95242 -2.58645,1.13607 -9.133894,-8.85303 -11.762954,-7.81938 -2.629059,1.03366 -0.620219,12.80717 -3.287833,13.73681 -2.667613,0.92964 -8.411139,-9.54237 -11.113193,-8.71818 -2.702054,0.82419 -1.623147,12.71903 -4.355475,13.4365 -2.732329,0.71748 -7.636525,-10.17289 -10.394915,-9.56324 -2.75839,0.60966 -2.616066,12.55247 -5.396264,13.05336 -2.780198,0.50089 -6.814828,-10.74068 -9.612548,-10.34933 -2.797719,0.39135 -3.592857,12.30852 -6.403784,12.58973 -2.810927,0.28121 -5.951116,-11.24226 -8.770916,-11.07162 -2.8198,0.17063 -4.547497,11.98868 -7.371822,12.04848 -2.824325,0.0598 -5.050713,-11.67452 -7.875209,-11.72565 -2.824495,-0.0511 -5.474099,11.59493 -8.29441,11.43296 -2.8203108,-0.16198 -4.1191712,-12.03481 -6.9309485,-12.30739 -2.8117771,-0.27257 -6.3669527,11.1297 -9.1658608,10.74694 -2.7989082,-0.38275 -3.1622331,-12.32089 -5.9439567,-12.81324 -2.781723,-0.49234 -7.220551,10.59585 -9.980801,9.99467 -2.760249,-0.60118 -2.185798,-12.53102 -4.920318,-13.2401 -2.734519,-0.70908 -8.029633,9.99666 -10.734205,9.18077 -2.704573,-0.81589 -1.195889,-12.66388 -3.866344,-13.58532 -2.670456,-0.92145 -8.78921,9.33584 -11.421431,8.31027 -2.632222,-1.02557 -0.198605,-12.71868 -2.788533,-13.8468 -2.589928,-1.12812 -9.494598,8.61747 -12.038239,7.38854 -2.543642,-1.22893 0.799903,-12.69505 -1.69353,-14.0229 -2.493432,-1.32785 -10.141448,7.84597 -12.580827,6.42126 -2.439379,-1.42472 1.79348,-12.59316 -0.588085,-14.11255 -2.381564,-1.51938 -10.725773,7.0261 -13.04585,5.41438 -2.320078,-1.61171 2.775998,-12.41362 0.520985,-14.11518 -2.255013,-1.70156 -11.243973,6.16291 -13.430443,4.37413 -2.18647,-1.78878 3.7414,-12.15755 1.62684,-14.0308 -2.11455,-1.87324 -11.69284,5.26172 -13.73223,3.3069 -2.03938,-1.95481 4.68374,-11.82652 2.72268,-13.85989 -1.96107,-2.03338 -12.06963,4.32808 -13.94936,2.21928 -1.87972,-2.10879 5.5972,-11.42259 3.80172,-13.60355 -1.79549,-2.18097 -12.372,3.36777 -14.08048,1.11799 -1.70848,-2.24978 6.47615,-10.94823 4.85732,-13.26334 -1.61884,-2.31512 -12.5981,2.38669 -14.12479,0.01 -1.5267,-2.37688 7.31517,-10.40636 5.88297,-12.84135 -1.4322,-2.43499 -12.74651,1.3909 -14.08201,-1.09845 -1.3355,-2.48934 8.10909,-9.80034 6.87235,-12.34019 -1.23673,-2.53986 -12.81635,0.38653 -13.95242,-2.19992 -1.13607,-2.58645 8.85303,-9.1339 7.81938,-11.76296 -1.03365,-2.62906 -12.80717,-0.62022 -13.73681,-3.28783 -0.92964,-2.66761 9.54237,-8.41114 8.71818,-11.11319 -0.82419,-2.70206 -12.71903,-1.62315 -13.4365,-4.35548 -0.71748,-2.73233 10.17289,-7.63652 9.56324,-10.39491 -0.60965,-2.75839 -12.55247,-2.61607 -13.05336,-5.39627 -0.50089,-2.7802 10.74068,-6.81483 10.34933,-9.61255 -0.39135,-2.79771 -12.30851,-3.59285 -12.58973,-6.40378 -0.28121,-2.81093 11.24226,-5.95112 11.07162,-8.77092 -0.17063,-2.8198 -11.98868,-4.54749 -12.04848,-7.37182 -0.0598,-2.82432 11.67452,-5.05071 11.72565,-7.87521 0.0511,-2.82449 -11.59493,-5.4741 -11.43296,-8.29441 0.16198,-2.82031 12.03481,-4.11917 12.30739,-6.93094 0.27257,-2.81178 -11.1297,-6.36696 -10.74694,-9.16587 0.38275,-2.7989 12.32089,-3.16223 12.81324,-5.94395 0.49234,-2.78173 -10.59585,-7.22055 -9.99467,-9.9808 0.60118,-2.76025 12.53102,-2.1858 13.2401,-4.92032 0.70908,-2.73452 -9.99666,-8.02963 -9.18077,-10.73421 0.81589,-2.70457 12.66388,-1.19589 13.58533,-3.86634 0.92144,-2.67046 -9.33585,-8.78921 -8.31028,-11.42143 1.02558,-2.63222 12.71868,-0.19861 13.8468,-2.78853 1.12812,-2.58993 -8.61747,-9.4946 -7.38854,-12.03824 1.22893,-2.54364 12.69505,0.7999 14.0229,-1.69353 1.32785,-2.49344 -7.84597,-10.14145 -6.42126,-12.58083 1.42472,-2.43938 12.59316,1.79348 14.11255,-0.58809 1.51939,-2.38156 -7.0261,-10.72577 -5.41438,-13.04585 1.61171,-2.32007 12.41362,2.776 14.11518,0.52099 1.70156,-2.25501 -6.16291,-11.24397 -4.37413,-13.43044 1.78878,-2.18647 12.15756,3.7414 14.0308,1.62684 1.87324,-2.11456 -5.26172,-11.69284 -3.3069,-13.73223 1.95481,-2.03938 11.82652,4.68374 13.8599,2.72267 2.03337,-1.96106 -4.32809,-12.06963 -2.21929,-13.94935 2.10879,-1.87973 11.42259,5.5972 13.60355,3.80171 2.180971,-1.79548 -3.36777,-12.372 -1.11799,-14.08047 2.249779,-1.70848 10.948226,6.47615 13.263343,4.85731 2.315116,-1.61883 -2.386691,-12.59809 -0.0098,-14.12479 2.376887,-1.52669 10.406361,7.31518 12.841353,5.88298 2.434992,-1.4322 -1.390898,-12.74652 1.098445,-14.08202 2.489343,-1.3355 9.80034,8.1091 12.340195,6.87236 2.539855,-1.23674 -0.386531,-12.81635 2.19992,-13.95242 2.586451,-1.13607 9.133896,8.85303 11.762956,7.81937 2.629059,-1.03365 0.62022,-12.80716 3.287833,-13.7368 2.667613,-0.92964 8.411139,9.54237 11.113193,8.71818 2.702054,-0.8242 1.623147,-12.71903 4.355475,-13.4365 2.732329,-0.71748 7.636525,10.17288 10.394915,9.56323 2.75839,-0.60965 2.616066,-12.55246 5.396264,-13.05335 2.780198,-0.50089 6.8148283,10.74068 9.6125478,10.34933 2.79771936,-0.39135 3.59285722,-12.30852 6.403784,-12.58973 2.8109269,-0.28121 5.9511159,11.24226 8.7709162,11.07162 2.8198,-0.17064 4.547497,-11.98868 7.371822,-12.04848 2.824325,-0.0598 5.050713,11.67452 7.875209,11.72565 2.824495,0.0511 5.474099,-11.59494 8.29441,-11.43296 2.820311,0.16198 4.119171,12.03481 6.930949,12.30738 2.811777,0.27258 6.366952,-11.12969 9.16586,-10.74694 2.798909,0.38276 3.162234,12.3209 5.943957,12.81324 2.781723,0.49235 7.220551,-10.59584 9.980801,-9.99466 2.760249,0.60117 2.185798,12.53102 4.920318,13.2401 2.734519,0.70908 8.029633,-9.99667 10.734205,-9.18078 2.704573,0.81589 1.195889,12.66389 3.866345,13.58533 2.670455,0.92144 8.789209,-9.33584 11.42143,-8.31027 2.632218,1.02557 0.198605,12.71867 2.788538,13.8468 2.58992,1.12812 9.49459,-8.61748 12.03823,-7.38854 2.54365,1.22893 -0.7999,12.69505 1.69353,14.0229 2.49344,1.32784 10.14145,-7.84598 12.58083,-6.42126 2.43938,1.42472 -1.79348,12.59316 0.58809,14.11254 2.38156,1.51939 10.72577,-7.02609 13.04585,-5.41438 2.32007,1.61172 -2.776,12.41362 -0.52099,14.11518 2.25501,1.70156 11.24397,-6.1629 13.43044,-4.37412 2.18647,1.78878 -3.7414,12.15755 -1.62684,14.03079 2.11456,1.87324 11.69284,-5.26171 13.73223,-3.3069 2.03939,1.95482 -4.68374,11.82653 -2.72267,13.8599 1.96107,2.03337 12.06963,-4.32808 13.94935,-2.21928 1.87973,2.10879 -5.5972,11.42258 -3.80171,13.60355 1.79548,2.18097 12.372,-3.36777 14.08048,-1.11799 1.70847,2.24978 -6.47616,10.94822 -4.85732,13.26334 1.61883,2.31512 12.59809,-2.38669 14.12479,-0.01 1.52669,2.37688 -7.31518,10.40636 -5.88298,12.84135 1.4322,2.43499 12.74652,-1.3909 14.08202,1.09844 1.3355,2.48935 -8.1091,9.80034 -6.87236,12.3402 1.23674,2.53985 12.81635,-0.38653 13.95242,2.19992 1.13607,2.58645 -8.85303,9.1339 -7.81937,11.76295 1.03365,2.62906 12.80717,0.62022 13.7368,3.28784 0.92964,2.66761 -9.54237,8.41114 -8.71818,11.11319 0.8242,2.70205 12.71903,1.62315 13.4365,4.35548 0.71748,2.73232 -10.17288,7.63652 -9.56323,10.39491 0.60965,2.75839 12.55247,2.61607 13.05335,5.39626 0.50089,2.7802 -10.74068,6.81483 -10.34933,9.61255 0.39135,2.79772 12.30852,3.59286 12.58973,6.40379 0.28121,2.81092 -11.24226,5.95111 -11.07162,8.77091 0.17064,2.8198 11.98868,4.5475 12.04848,7.37182 0.0598,2.82433 -11.67452,5.05072 -11.72564,7.87521 -0.0511,2.8245 11.59493,5.4741 11.43295,8.29441 -0.16198,2.82031 -12.03481,4.11917 -12.30738,6.93095 -0.27258,2.81178 11.12969,6.36695 10.74694,9.16586 -0.38276,2.79891 -12.3209,3.16224 -12.81324,5.94396 -0.49235,2.78172 10.59584,7.22055 9.99466,9.9808 -0.60117,2.76025 -12.53102,2.1858 -13.2401,4.92032 -0.70907,2.73452 9.99667,8.02963 9.18078,10.7342 -0.81589,2.70458 -12.66389,1.19589 -13.58533,3.86635 -0.92144,2.67045 9.33585,8.78921 8.31027,11.42143 -1.02557,2.63222 -12.71867,0.1986 -13.8468,2.78853 -1.12812,2.58993 8.61748,9.4946 7.38854,12.03824 -1.22893,2.54364 -12.69505,-0.7999 -14.02289,1.69353 -1.32785,2.49343 7.84597,10.14145 6.42125,12.58083 -1.42472,2.43938 -12.59316,-1.79348 -14.11254,0.58808 -1.51939,2.38157 7.02609,10.72578 5.41438,13.04585 -1.61172,2.32008 -12.41362,-2.776 -14.11518,-0.52098 -1.70156,2.25501 6.1629,11.24397 4.37412,13.43044 -1.78878,2.18647 -12.15755,-3.7414 -14.03079,-1.62684 -1.87324,2.11456 5.26171,11.69284 3.3069,13.73223 -1.95482,2.03938 -11.82653,-4.68374 -13.8599,-2.72268 -2.03337,1.96107 4.32808,12.06963 2.21929,13.94936 -2.1088,1.87973 -11.42259,-5.5972 -13.60356,-3.80171 -2.18097,1.79548 3.36777,12.37199 1.11799,14.08047 z" />
      <ellipse
         id="path4756"
         style="fill-opacity:0;stroke:#b3b3b3;stroke-width:14.812;stroke-linecap:round;stroke-linejoin:round"
         transform="matrix(0.94145,0,0,0.98628,726.61,3.6707)"
         cx="248.96118"
         cy="929.07166"
         rx="196.89087"
         ry="187.94128" />
      <g
         id="g4758"
         transform="translate(707.66,0.34665)">
        <path
           id="path4760"
           style="fill:#000000;stroke:#000000;stroke-width:2;stroke-linecap:round;stroke-linejoin:round"
           d="m 254.34,912.67 179.1,-11.28"
           inkscape:transform-center-x="-90.549495"
           inkscape:transform-center-y="-12.624007"
           inkscape:connector-curvature="0"
           sodipodi:nodetypes="cc" />
        <path
           id="path4762"
           style="fill:#000000;stroke:#000000;stroke-width:2;stroke-linecap:round;stroke-linejoin:round"
           d="M 251.89,912.75 416.33,840.89"
           sodipodi:nodetypes="cc"
           inkscape:transform-center-y="-42.832437"
           inkscape:connector-curvature="0"
           inkscape:transform-center-x="-80.771025" />
        <path
           id="path4764"
           style="fill:#000000;stroke:#000000;stroke-width:2;stroke-linecap:round;stroke-linejoin:round"
           d="M 249.62,913.66 379.57,789.9"
           inkscape:transform-center-x="-61.25038"
           inkscape:transform-center-y="-67.874642"
           inkscape:connector-curvature="0"
           sodipodi:nodetypes="cc" />
        <path
           id="path4766"
           style="fill:#000000;stroke:#000000;stroke-width:2;stroke-linecap:round;stroke-linejoin:round"
           d="M 247.79,915.3 327.569,754.55"
           sodipodi:nodetypes="cc"
           inkscape:transform-center-y="-84.730162"
           inkscape:connector-curvature="0"
           inkscape:transform-center-x="-34.342035" />
        <path
           id="path4768"
           style="fill:#000000;stroke:#000000;stroke-width:2;stroke-linecap:round;stroke-linejoin:round"
           d="M 246.64,917.46 266.63,739.12"
           inkscape:transform-center-x="-3.291535"
           inkscape:transform-center-y="-91.365977"
           inkscape:connector-curvature="0"
           sodipodi:nodetypes="cc" />
        <path
           id="path4770"
           style="fill:#000000;stroke:#000000;stroke-width:2;stroke-linecap:round;stroke-linejoin:round"
           d="M 246.29,919.88 204.08,745.46"
           sodipodi:nodetypes="cc"
           inkscape:transform-center-y="-86.981707"
           inkscape:connector-curvature="0"
           inkscape:transform-center-x="28.15597" />
        <path
           id="path4772"
           style="fill:#000000;stroke:#000000;stroke-width:2;stroke-linecap:round;stroke-linejoin:round"
           d="M 246.79,922.28 147.47,772.82"
           inkscape:transform-center-x="56.20745"
           inkscape:transform-center-y="-72.106157"
           inkscape:connector-curvature="0"
           sodipodi:nodetypes="cc" />
        <path
           id="path4774"
           style="fill:#000000;stroke:#000000;stroke-width:2;stroke-linecap:round;stroke-linejoin:round"
           d="M 248.08,924.36 103.64,817.88"
           sodipodi:nodetypes="cc"
           inkscape:transform-center-y="-48.533542"
           inkscape:connector-curvature="0"
           inkscape:transform-center-x="77.479485" />
        <path
           id="path4776"
           style="fill:#000000;stroke:#000000;stroke-width:2;stroke-linecap:round;stroke-linejoin:round"
           d="M 250.01,925.87 77.85,875.22"
           inkscape:transform-center-x="89.40635"
           inkscape:transform-center-y="-19.107062"
           inkscape:connector-curvature="0"
           sodipodi:nodetypes="cc" />
        <path
           id="path4778"
           style="fill:#000000;stroke:#000000;stroke-width:2;stroke-linecap:round;stroke-linejoin:round"
           d="M 252.34,926.64 73.24,937.92"
           sodipodi:nodetypes="cc"
           inkscape:transform-center-y="12.624008"
           inkscape:connector-curvature="0"
           inkscape:transform-center-x="90.549489" />
        <path
           id="path4780"
           style="fill:#000000;stroke:#000000;stroke-width:2;stroke-linecap:round;stroke-linejoin:round"
           d="M 254.79,926.56 90.35,998.41"
           inkscape:transform-center-x="80.77102"
           inkscape:transform-center-y="42.832433"
           inkscape:connector-curvature="0"
           sodipodi:nodetypes="cc" />
        <path
           id="path4782"
           style="fill:#000000;stroke:#000000;stroke-width:2;stroke-linecap:round;stroke-linejoin:round"
           d="M 257.06,925.65 127.12,1049.4"
           sodipodi:nodetypes="cc"
           inkscape:transform-center-y="67.874623"
           inkscape:connector-curvature="0"
           inkscape:transform-center-x="61.250381" />
        <path
           id="path4784"
           style="fill:#000000;stroke:#000000;stroke-width:2;stroke-linecap:round;stroke-linejoin:round"
           d="M 258.89,924.01 179.11,1084.8"
           inkscape:transform-center-x="34.342041"
           inkscape:transform-center-y="84.730133"
           inkscape:connector-curvature="0"
           sodipodi:nodetypes="cc" />
        <path
           id="path4786"
           style="fill:#000000;stroke:#000000;stroke-width:2;stroke-linecap:round;stroke-linejoin:round"
           d="M 260.04,921.85 240.05,1100.2"
           sodipodi:nodetypes="cc"
           inkscape:transform-center-y="91.365953"
           inkscape:connector-curvature="0"
           inkscape:transform-center-x="3.291546" />
        <path
           id="path4788"
           style="fill:#000000;stroke:#000000;stroke-width:2;stroke-linecap:round;stroke-linejoin:round"
           d="m 260.39,919.43 42.211,174.42"
           inkscape:transform-center-x="-28.155954"
           inkscape:transform-center-y="86.981703"
           inkscape:connector-curvature="0"
           sodipodi:nodetypes="cc" />
        <path
           id="path4790"
           style="fill:#000000;stroke:#000000;stroke-width:2;stroke-linecap:round;stroke-linejoin:round"
           d="m 259.89,917.03 99.32,149.46"
           sodipodi:nodetypes="cc"
           inkscape:transform-center-y="72.106138"
           inkscape:connector-curvature="0"
           inkscape:transform-center-x="-56.207434" />
        <path
           id="path4792"
           style="fill:#000000;stroke:#000000;stroke-width:2;stroke-linecap:round;stroke-linejoin:round"
           d="M 258.59,914.95 403.04,1021.4"
           inkscape:transform-center-x="-77.479464"
           inkscape:transform-center-y="48.533513"
           inkscape:connector-curvature="0"
           sodipodi:nodetypes="cc" />
        <path
           id="path4794"
           style="fill:#000000;stroke:#000000;stroke-width:2;stroke-linecap:round;stroke-linejoin:round"
           d="m 256.67,913.43 172.16,50.654"
           sodipodi:nodetypes="cc"
           inkscape:transform-center-y="19.107048"
           inkscape:connector-curvature="0"
           inkscape:transform-center-x="-89.406319" />
        <path
           id="path4796"
           style="fill:#000000;stroke:#000000;stroke-width:2;stroke-linecap:round;stroke-linejoin:round"
           d="M 249.84,913.53 79.18,969.02"
           inkscape:transform-center-x="88.831891"
           inkscape:transform-center-y="21.620918"
           inkscape:connector-curvature="0"
           sodipodi:nodetypes="cc" />
        <path
           id="path4798"
           style="fill:#000000;stroke:#000000;stroke-width:2;stroke-linecap:round;stroke-linejoin:round"
           d="M 247.95,915.1 106.57,1025.6"
           sodipodi:nodetypes="cc"
           inkscape:transform-center-y="50.699298"
           inkscape:connector-curvature="0"
           inkscape:transform-center-x="76.079881" />
        <path
           id="path4800"
           style="fill:#000000;stroke:#000000;stroke-width:2;stroke-linecap:round;stroke-linejoin:round"
           d="M 246.72,917.21 151.66,1069.4"
           inkscape:transform-center-x="54.151521"
           inkscape:transform-center-y="73.662588"
           inkscape:connector-curvature="0"
           sodipodi:nodetypes="cc" />
        <path
           id="path4802"
           style="fill:#000000;stroke:#000000;stroke-width:2;stroke-linecap:round;stroke-linejoin:round"
           d="M 246.29,919.62 209.01,1095.2"
           sodipodi:nodetypes="cc"
           inkscape:transform-center-y="87.741118"
           inkscape:connector-curvature="0"
           inkscape:transform-center-x="25.691696" />
        <path
           id="path4804"
           style="fill:#000000;stroke:#000000;stroke-width:2;stroke-linecap:round;stroke-linejoin:round"
           d="m 246.7,922.04 25.011,177.7"
           inkscape:transform-center-x="-5.866934"
           inkscape:transform-center-y="91.236738"
           inkscape:connector-curvature="0"
           sodipodi:nodetypes="cc" />
        <path
           id="path4806"
           style="fill:#000000;stroke:#000000;stroke-width:2;stroke-linecap:round;stroke-linejoin:round"
           d="m 247.92,924.17 84.281,158.43"
           sodipodi:nodetypes="cc"
           inkscape:transform-center-y="83.727893"
           inkscape:connector-curvature="0"
           inkscape:transform-center-x="-36.717919" />
        <path
           id="path4808"
           style="fill:#000000;stroke:#000000;stroke-width:2;stroke-linecap:round;stroke-linejoin:round"
           d="M 249.79,925.75 383.17,1045.8"
           inkscape:transform-center-x="-63.140184"
           inkscape:transform-center-y="66.120223"
           inkscape:connector-curvature="0"
           sodipodi:nodetypes="cc" />
        <path
           id="path4810"
           style="fill:#000000;stroke:#000000;stroke-width:2;stroke-linecap:round;stroke-linejoin:round"
           d="m 252.09,926.6 166.4,67.191"
           sodipodi:nodetypes="cc"
           inkscape:transform-center-y="40.537468"
           inkscape:connector-curvature="0"
           inkscape:transform-center-x="-81.946814" />
        <path
           id="path4812"
           style="fill:#000000;stroke:#000000;stroke-width:2;stroke-linecap:round;stroke-linejoin:round"
           d="m 254.54,926.61 179.35,6.2264"
           inkscape:transform-center-x="-90.869449"
           inkscape:transform-center-y="10.065298"
           inkscape:connector-curvature="0"
           sodipodi:nodetypes="cc" />
        <path
           id="path4814"
           style="fill:#000000;stroke:#000000;stroke-width:2;stroke-linecap:round;stroke-linejoin:round"
           d="M 256.84,925.78 427.5,870.29"
           sodipodi:nodetypes="cc"
           inkscape:transform-center-y="-21.620897"
           inkscape:connector-curvature="0"
           inkscape:transform-center-x="-88.831884" />
        <path
           id="path4816"
           style="fill:#000000;stroke:#000000;stroke-width:2;stroke-linecap:round;stroke-linejoin:round"
           d="M 258.72,924.21 400.11,813.7"
           inkscape:transform-center-x="-76.079884"
           inkscape:transform-center-y="-50.699292"
           inkscape:connector-curvature="0"
           sodipodi:nodetypes="cc" />
        <path
           id="path4818"
           style="fill:#000000;stroke:#000000;stroke-width:2;stroke-linecap:round;stroke-linejoin:round"
           d="m 259.96,922.09 95.06,-152.2"
           sodipodi:nodetypes="cc"
           inkscape:transform-center-y="-73.662602"
           inkscape:connector-curvature="0"
           inkscape:transform-center-x="-54.151524" />
        <path
           id="path4820"
           style="fill:#000000;stroke:#000000;stroke-width:2;stroke-linecap:round;stroke-linejoin:round"
           d="M 260.39,919.68 297.67,744.14"
           inkscape:transform-center-x="-25.691694"
           inkscape:transform-center-y="-87.741117"
           inkscape:connector-curvature="0"
           sodipodi:nodetypes="cc" />
        <path
           id="path4822"
           style="fill:#000000;stroke:#000000;stroke-width:2;stroke-linecap:round;stroke-linejoin:round"
           d="M 259.98,917.27 234.97,739.57"
           sodipodi:nodetypes="cc"
           inkscape:transform-center-y="-91.236757"
           inkscape:connector-curvature="0"
           inkscape:transform-center-x="5.866936" />
        <path
           id="path4824"
           style="fill:#000000;stroke:#000000;stroke-width:2;stroke-linecap:round;stroke-linejoin:round"
           d="M 258.76,915.14 174.48,756.71"
           inkscape:transform-center-x="36.717926"
           inkscape:transform-center-y="-83.727897"
           inkscape:connector-curvature="0"
           sodipodi:nodetypes="cc" />
        <path
           id="path4826"
           style="fill:#000000;stroke:#000000;stroke-width:2;stroke-linecap:round;stroke-linejoin:round"
           d="M 256.89,913.56 123.51,793.51"
           sodipodi:nodetypes="cc"
           inkscape:transform-center-y="-66.120217"
           inkscape:connector-curvature="0"
           inkscape:transform-center-x="63.140191" />
        <path
           id="path4828"
           style="fill:#000000;stroke:#000000;stroke-width:2;stroke-linecap:round;stroke-linejoin:round"
           d="M 254.59,912.71 88.19,845.52"
           inkscape:transform-center-x="81.946818"
           inkscape:transform-center-y="-40.537462"
           inkscape:connector-curvature="0"
           sodipodi:nodetypes="cc" />
        <path
           id="path4830"
           style="fill:#000000;stroke:#000000;stroke-width:2;stroke-linecap:round;stroke-linejoin:round"
           d="M 252.14,912.7 72.8,906.47"
           sodipodi:nodetypes="cc"
           inkscape:transform-center-y="-10.065292"
           inkscape:connector-curvature="0"
           inkscape:transform-center-x="90.86945" />
      </g>
      <ellipse
         id="path4883"
         style="fill:#b3b3b3;stroke:#000000;stroke-width:2;stroke-linecap:round;stroke-linejoin:round"
         transform="matrix(1.3008,0,0,1.2543,-377.07,129.74)"
         cx="1028.6458"
         cy="630.01843"
         rx="12.471233"
         ry="12.93313" />
    </g>
    <g
       id="g4225"
       transform="matrix(0.36217958,0,0,0.36217958,5.7432855,310.94893)">
      <path
         id="path3104"
         style="fill:#000080;stroke:#000000;stroke-width:2;stroke-linecap:round;stroke-linejoin:round"
         inkscape:connector-curvature="0"
         d="m 798.6,564.12 28.755,81.037 30.062,-11.763 -30.062,-79.729 -28.755,10.456 z" />
      <path
         id="path3106"
         inkscape:connector-curvature="0"
         sodipodi:nodetypes="cccacc"
         style="fill:#000080;stroke:#000000;stroke-width:2;stroke-linecap:round;stroke-linejoin:round"
         d="m 431.32,650.39 24.18,-6.5352 79.432,291.67 c 0,0 -8.9086,0.57251 -12.417,2.9833 -3.5328,2.4277 -7.2872,10.596 -7.2872,10.596 l -83.908,-298.71 z" />
      <path
         id="path3118"
         inkscape:connector-curvature="0"
         sodipodi:nodetypes="ccccc"
         style="fill:#000080;stroke:#000000;stroke-width:2;stroke-linecap:round;stroke-linejoin:round"
         d="m 518.49,962.48 -272.64,-29.113 6.4695,-16.174 261.55,26.802 4.6211,18.484 z" />
      <path
         id="path3110"
         inkscape:connector-curvature="0"
         sodipodi:nodetypes="ccscccsc"
         style="fill:#000080;stroke:#000000;stroke-width:2;stroke-linecap:round;stroke-linejoin:round"
         d="m 459.42,658.23 341.79,-84.958 c 0,0 5.6896,2.0888 7.1094,6.7663 1.6406,5.4045 -1.8813,10.879 -1.8813,10.879 l -20.913,16.338 -316.96,79.729 c 0,0 -9.2895,-0.76565 -12.417,-11.994 -3.5558,-12.767 3.2676,-16.76 3.2676,-16.76 z" />
      <path
         id="path3112"
         inkscape:connector-curvature="0"
         sodipodi:nodetypes="ccccacccac"
         style="fill:#000080;stroke:#000000;stroke-width:2;stroke-linecap:round;stroke-linejoin:round"
         d="m 806.84,590.94 -22.181,16.636 -253.7,311.92 3.8554,15.982 c 0,0 8.7308,2.5954 11.427,5.9349 2.8487,3.5284 3.5847,13.124 3.5847,13.124 l 245,-300.75 27.72,-21.26 c 0,0 -0.80098,-19.171 -4.6211,-27.727 -2.4128,-5.4037 -11.091,-13.863 -11.091,-13.863 z" />
      <ellipse
         id="path3114"
         style="fill:#000080;stroke:#000000;stroke-width:2;stroke-linecap:round;stroke-linejoin:round"
         transform="matrix(1.0088,0,0,1.0293,-4.4997,-28.439)"
         cx="532.61914"
         cy="952.64252"
         rx="16.338011"
         ry="16.01125" />
      <path
         id="path3120"
         inkscape:connector-curvature="0"
         sodipodi:nodetypes="ccccc"
         style="fill:#4d4d4d;stroke:#000000;stroke-width:2;stroke-linecap:round;stroke-linejoin:round"
         d="m 431.98,649.08 -50.975,-172.53 23.527,-1.9606 49.014,168.28 -21.566,6.2084 z" />
      <path
         id="path3122"
         inkscape:connector-curvature="0"
         sodipodi:nodetypes="caaaaaaasaaaaaasa"
         style="fill:#000000;stroke:#000000;stroke-width:2;stroke-linecap:round;stroke-linejoin:round"
         d="m 304.54,460.21 c 4.5978,-6.8991 16.22,-4.0108 24.507,-4.2479 9.5345,-0.2727 18.938,2.3133 28.428,3.2676 12.618,1.2688 25.23,2.8398 37.904,3.2676 11.759,0.39688 23.527,-0.87901 35.29,-0.65352 13.416,0.25718 26.9,0.44459 40.192,2.2873 5.9681,0.8274 12.242,1.2555 17.645,3.9211 3.9522,1.9497 10.282,4.0915 10.13,8.4958 -0.0512,1.4806 -2.1129,2.6235 -3.5944,2.6141 -10.489,-0.0666 -20.178,-3.7557 -30.389,-4.5746 -10.206,-0.81852 -20.48,-0.59469 -30.715,-0.32676 -12.11,0.317 -24.224,1.0098 -36.27,2.2873 -9.5278,1.0104 -18.888,3.3612 -28.428,4.2479 -5.8605,0.54467 -11.804,1.3779 -17.645,0.65353 -8.1069,-1.0054 -15.724,-4.4437 -23.527,-6.862 -7.3367,-2.2738 -19.336,-2.8158 -21.893,-7.1887 -1.2403,-2.1214 -2.9966,-5.1439 -1.6338,-7.1887 z" />
      <path
         id="path3132"
         inkscape:connector-curvature="0"
         sodipodi:nodetypes="ccccc"
         style="fill:#d3bc5f;stroke:#000000;stroke-width:2;stroke-linecap:round;stroke-linejoin:round"
         d="m 866.92,680.86 32.628,83.796 26.205,-10.437 -33.011,-83.582 -25.822,10.222 z" />
      <path
         id="path3128"
         inkscape:connector-curvature="0"
         sodipodi:nodetypes="ccccccccc"
         style="fill:#333333;stroke:#000000;stroke-width:2;stroke-linecap:round;stroke-linejoin:round"
         d="m 827.17,645.47 31.423,-11.091 5.5453,6.4695 19.904,-0.38282 11.035,30.714 -30.014,11.586 -11.091,-20.66 -23.105,-5.5453 -3.6969,-11.091 z" />
      <path
         id="path3130"
         inkscape:connector-curvature="0"
         sodipodi:nodetypes="ccccccc"
         style="fill:#333333;stroke:#000000;stroke-width:2;stroke-linecap:round;stroke-linejoin:round"
         d="m 892.33,754.07 31.886,-12.477 65.619,172.83 15.019,1.6174 5.3142,11.322 -42.514,15.25 -75.324,-188.54 z" />
      <path
         id="path3125"
         style="fill:#d3bc5f;stroke:#000000;stroke-width:2;stroke-linecap:round;stroke-linejoin:round"
         inkscape:connector-curvature="0"
         d="m 906.35,485.7 13.391,19.923 -6.8588,13.718 -11.105,-4.2459 0.97983,5.2258 -9.1451,9.4717 -12.738,-1.633 -12.085,-9.4717 -7.8387,1.9597 -5.879,-5.5524 51.278,-29.395 z" />
      <path
         id="path3123"
         inkscape:connector-curvature="0"
         sodipodi:nodetypes="ccsccc"
         style="fill:#808080;stroke:#000000;stroke-width:2;stroke-linecap:round;stroke-linejoin:round"
         d="m 897.7,470.89 -20.33,12.48 c 0,0 -2.3594,7.6482 0.69285,12.702 4.0291,6.6716 10.624,7.1594 10.624,7.1594 l 23.788,-10.162 -14.781,-22.171 z" />
      <path
         id="path3134"
         inkscape:connector-curvature="0"
         sodipodi:nodetypes="cccscccsccccc"
         style="fill:#1a1a1a;stroke:#000000;stroke-width:2;stroke-linecap:round;stroke-linejoin:round"
         d="m 798.6,563.47 0.98029,-11.11 -11.11,-35.29 c 0,0 4.0447,-4.2227 9.476,-5.8817 6.6256,-2.0238 11.11,-0.98028 11.11,-0.98028 l 1.307,2.9408 67.313,-29.408 c 0,0 -2.0356,7.579 0.32676,11.763 2.9291,5.1882 10.13,7.5155 10.13,7.5155 l -69.273,32.349 2.6141,9.1493 6.2084,9.1493 -29.082,9.8028 z" />
      <circle
         id="path3119"
         style="fill:#1a1a1a;stroke:#000000;stroke-width:2;stroke-linecap:round;stroke-linejoin:round"
         transform="translate(9.1493,-9.1493)"
         cx="895.9765"
         cy="490.93036"
         r="13.723928" />
      <path
         id="path3127"
         inkscape:connector-curvature="0"
         sodipodi:nodetypes="ccaccac"
         style="fill:#333333;stroke:#000000;stroke-width:2;stroke-linecap:round;stroke-linejoin:round"
         d="m 915.82,507.26 -4.8992,8.1653 c 0,0 10.918,2.3545 16.004,4.5726 4.4326,1.9333 12.411,7.512 12.411,7.512 l 4.8992,-5.879 c 0,0 -6.7523,-6.3211 -10.778,-8.4919 -5.4546,-2.9412 -17.637,-5.879 -17.637,-5.879 z" />
      <path
         id="path3131"
         style="fill:#333333;stroke:#000000;stroke-width:2;stroke-linecap:round;stroke-linejoin:round"
         sodipodi:type="star"
         sodipodi:sides="12"
         sodipodi:r1="13.864622"
         sodipodi:r2="11.646282"
         transform="translate(59.123,-47.575)"
         sodipodi:arg2="1.3093174"
         sodipodi:arg1="1.047518"
         inkscape:randomized="0"
         sodipodi:cy="1027.7122"
         sodipodi:cx="220.32512"
         inkscape:rounded="0.2"
         inkscape:flatsided="false"
         d="m 227.25358,1039.7215 c -0.69132,0.3988 -3.14679,-0.9653 -3.91779,-0.7589 -0.77099,0.2063 -2.21699,2.6144 -3.01511,2.6142 -0.79813,-3e-4 -2.24258,-2.4093 -3.01345,-2.6162 -0.77086,-0.2068 -3.2272,1.1557 -3.91827,0.7565 -0.69107,-0.3993 -0.73747,-3.2079 -1.30164,-3.7724 -0.56418,-0.5646 -3.3727,-0.6128 -3.77154,-1.3041 -0.39884,-0.6913 0.96525,-3.1468 0.75893,-3.9178 -0.20632,-0.771 -2.61447,-2.217 -2.61421,-3.0151 2.5e-4,-0.7981 2.40932,-2.2426 2.61614,-3.0134 0.20682,-0.7709 -1.1557,-3.2272 -0.75641,-3.9183 0.39928,-0.6911 3.20782,-0.7375 3.77236,-1.3016 0.56454,-0.5642 0.61274,-3.3727 1.30407,-3.7716 0.69132,-0.3988 3.14679,0.9653 3.91778,0.7589 0.771,-0.2063 2.217,-2.6144 3.01512,-2.6142 0.79813,3e-4 2.24258,2.4094 3.01344,2.6162 0.77087,0.2068 3.22721,-1.1557 3.91828,-0.7564 0.69106,0.3992 0.73746,3.2078 1.30164,3.7723 0.56418,0.5646 3.37269,0.6128 3.77153,1.3041 0.39885,0.6913 -0.96524,3.1468 -0.75892,3.9178 0.20632,0.771 2.61447,2.217 2.61421,3.0151 -2.6e-4,0.7981 -2.40933,2.2426 -2.61614,3.0134 -0.20682,0.7709 1.1557,3.2272 0.75641,3.9183 -0.39928,0.6911 -3.20783,0.7375 -3.77237,1.3017 -0.56453,0.5641 -0.61273,3.3727 -1.30406,3.7715 z" />
      <path
         id="path3129"
         style="fill:#333333;stroke:#000000;stroke-width:2;stroke-linecap:round;stroke-linejoin:round"
         sodipodi:type="star"
         d="m 227.25358,1039.7215 c -0.69132,0.3988 -3.14679,-0.9653 -3.91779,-0.7589 -0.77099,0.2063 -2.21699,2.6144 -3.01511,2.6142 -0.79813,-3e-4 -2.24258,-2.4093 -3.01345,-2.6162 -0.77086,-0.2068 -3.2272,1.1557 -3.91827,0.7565 -0.69107,-0.3993 -0.73747,-3.2079 -1.30164,-3.7724 -0.56418,-0.5646 -3.3727,-0.6128 -3.77154,-1.3041 -0.39884,-0.6913 0.96525,-3.1468 0.75893,-3.9178 -0.20632,-0.771 -2.61447,-2.217 -2.61421,-3.0151 2.5e-4,-0.7981 2.40932,-2.2426 2.61614,-3.0134 0.20682,-0.7709 -1.1557,-3.2272 -0.75641,-3.9183 0.39928,-0.6911 3.20782,-0.7375 3.77236,-1.3016 0.56454,-0.5642 0.61274,-3.3727 1.30407,-3.7716 0.69132,-0.3988 3.14679,0.9653 3.91778,0.7589 0.771,-0.2063 2.217,-2.6144 3.01512,-2.6142 0.79813,3e-4 2.24258,2.4094 3.01344,2.6162 0.77087,0.2068 3.22721,-1.1557 3.91828,-0.7564 0.69106,0.3992 0.73746,3.2078 1.30164,3.7723 0.56418,0.5646 3.37269,0.6128 3.77153,1.3041 0.39885,0.6913 -0.96524,3.1468 -0.75892,3.9178 0.20632,0.771 2.61447,2.217 2.61421,3.0151 -2.6e-4,0.7981 -2.40933,2.2426 -2.61614,3.0134 -0.20682,0.7709 1.1557,3.2272 0.75641,3.9183 -0.39928,0.6911 -3.20783,0.7375 -3.77237,1.3017 -0.56453,0.5641 -0.61273,3.3727 -1.30406,3.7715 z"
         sodipodi:r1="13.864622"
         inkscape:flatsided="false"
         transform="translate(3.6952,1.3857)"
         sodipodi:arg2="1.3093174"
         sodipodi:arg1="1.047518"
         inkscape:randomized="0"
         sodipodi:cy="1027.7122"
         sodipodi:cx="220.32512"
         inkscape:rounded="0.2"
         sodipodi:r2="11.646282"
         sodipodi:sides="12" />
      <path
         id="path3957"
         inkscape:connector-curvature="0"
         sodipodi:nodetypes="csasszaszssss"
         style="opacity:0.64516;fill-opacity:0;stroke:#666666;stroke-width:5;stroke-linecap:round;stroke-linejoin:round"
         d="m 531.88,887.5 c -110.79,2.8359 -198.67,8.7984 -296.25,9.375 -10.022,0.0592 -20.103,11.867 -20.625,21.875 -0.51824,9.9452 8.415,19.661 18.125,23.75 18.943,7.9765 32.118,13.941 51.06,25.458 4.4646,2.7144 8.2949,7.8407 7.2254,13.217 -1.0694,5.3758 -6.1814,9.8711 -10.786,13.201 -17.657,12.768 -39.224,16.452 -61.029,23.422 -6.2154,1.9868 -9.8539,10.13 -7.721,15.953 2.133,5.8229 10.956,8.5584 16.25,8.125 102.64,-8.4029 199.38,-15.349 306.25,-25.625 29.92,-2.8769 64.103,-24.319 62.5,-65 -1.515,-38.443 -34.662,-64.527 -65,-63.75 z" />
      <path
         id="path3116"
         inkscape:connector-curvature="0"
         sodipodi:nodetypes="cccccccac"
         style="fill:#000080;stroke:#000000;stroke-width:2;stroke-linecap:round;stroke-linejoin:round"
         d="m 439.17,678.49 -188.21,201.94 -25.296,41.158 v 10.456 l 19.606,1.5777 18.761,-44.696 180.37,-193.44 c 0,0 1.5581,-6.9942 0.46211,-10.225 -0.94667,-2.7908 -5.6903,-6.7662 -5.6903,-6.7662 z" />
      <path
         id="path3137"
         inkscape:connector-curvature="0"
         sodipodi:nodetypes="ccscczc"
         style="fill:#cccccc;stroke:#000000;stroke-width:2;stroke-linecap:round;stroke-linejoin:round"
         d="m 246.92,929.89 -5.879,25.149 c 0,0 -1.3793,6.1987 -10.125,5.5524 -7.4323,-0.54928 -7.8387,-8.4919 -7.8387,-8.4919 l 2.2863,-24.496 c 0,0 3.9509,-9.438 11.758,-8.1653 7.8071,1.2728 9.7983,10.452 9.7983,10.452 z" />
      <path
         id="path3133"
         inkscape:connector-curvature="0"
         sodipodi:nodetypes="czcazaccszzcczzzzcc"
         style="fill:#cccccc;stroke:#000000;stroke-width:2;stroke-linecap:round;stroke-linejoin:round"
         d="m 235.11,1046.6 c 0,0 -13.174,-0.9715 -18.938,-5.5428 -5.7637,-4.5713 -12.009,-21.247 -12.009,-21.247 0,0 5.1735,2.081 7.8523,1.8476 12.85,-1.1195 25.406,-8.645 35.566,-15.243 10.16,-6.5977 24.131,-11.793 24.942,-23.095 0.29785,-4.1492 -7.8523,-9.6998 -7.8523,-9.6998 l -1.8476,3.2333 c 0,0 -42.965,4.155 -44.342,0 -3.0781,-9.2895 6.4666,-28.638 6.4666,-28.638 0,0 5.2875,-7.7237 11.547,-4.1571 5.9081,3.3661 4.619,10.162 4.619,10.162 l -0.4619,4.1571 c 0,0 19.171,-3.097 27.252,-0.4619 8.0808,2.6351 18.938,14.319 18.938,14.319 v 17.552 c 0,0 -23.799,17.426 -32.795,22.633 -8.9961,5.207 -20.323,9.6998 -20.323,9.6998 l 1.3857,24.481 z" />
      <path
         id="path3126"
         style="fill:#b3b3b3;stroke:#000000;stroke-width:2;stroke-linecap:round;stroke-linejoin:round"
         inkscape:connector-curvature="0"
         d="m 421.62,647.67 c 15.684,-4.5746 31.369,-9.1493 47.053,-13.724 l -0.65352,11.11 c -14.377,4.3568 -28.755,8.7136 -43.132,13.07 -1.0892,-3.4854 -2.1784,-6.9709 -3.2676,-10.456 z" />
      <path
         id="path4198"
         inkscape:connector-curvature="0"
         sodipodi:nodetypes="caasssssssc"
         style="fill-opacity:0;stroke:#000000;stroke-width:3;stroke-linecap:round;stroke-linejoin:round"
         d="m 903.03,521.18 c 0,0 6.4797,54.42 -7.4324,75.562 -9.8543,14.976 -29.477,22.575 -47.072,26.013 -27.344,5.3442 -55.8,-15.967 -82.995,-9.9098 -91.206,20.313 -182.56,47.401 -284.91,66.891 -29.046,5.5312 -52.606,29.574 -71.846,52.027 -42.986,50.165 -85.502,111.63 -144.93,153.6 -45.269,31.974 -66.593,17.341 -86.711,37.781 -8.381,8.515 -11.316,24.808 -6.1936,35.304 9.8859,20.254 29.246,25.69 47.072,25.394 14.861,-0.24655 43.355,-4.3355 43.355,-4.3355" />
      <path
         id="path4200"
         inkscape:connector-curvature="0"
         sodipodi:nodetypes="csassaacc"
         style="fill-opacity:0;stroke:#000000;stroke-width:3;stroke-linecap:round;stroke-linejoin:round"
         d="m 868.03,522.04 c 0,0 26.378,20.755 28.905,35.912 3.6804,22.076 -1.8874,34.422 -14.015,43.796 -25.218,19.493 -64.881,-0.25629 -95.474,5.2555 -105.08,18.931 -200.49,53.121 -309.2,75.328 -16.485,3.3678 -30.95,19.044 -34.161,35.036 -2.6573,13.236 10.157,25.021 14.891,37.664 15.963,42.636 45.547,128.76 45.547,128.76 h 2.6277" />
    </g>
    <g
       id="g3932"
       inkscape:transform-center-x="-13.410854"
       inkscape:transform-center-y="-0.00674458"
       transform="matrix(-0.22717352,-0.28207632,0.28207632,-0.22717352,51.319964,1022.2696)">
      <path
         id="path3139"
         style="fill:#cccccc;stroke:#666666;stroke-width:2.6465;stroke-linecap:round;stroke-linejoin:round"
         sodipodi:type="star"
         d="m 239.51316,913.83651 -0.57306,3.90273 -3.82712,0.95544 -1.07757,3.79454 -3.91909,0.44772 -1.56364,3.62143 -3.944,-0.0676 -2.02295,3.38635 -3.90143,-0.58187 -2.44765,3.09334 -3.7921,-1.08613 -2.83048,2.74739 -3.61789,-1.57181 -3.16487,2.35443 -3.38178,-2.03059 -3.4451,1.92119 -3.0878,-2.45462 -3.6664,1.45508 -2.74099,-2.83667 -3.82496,0.96407 -2.34728,-3.17017 -3.91807,0.45656 -1.91341,-3.44943 -3.94415,-0.0588 -1.4468,-3.66967 -3.90273,-0.57306 -0.95544,-3.82712 -3.79454,-1.07757 -0.44772,-3.91909 -3.62143,-1.56364 0.0677,-3.944 -3.38635,-2.02295 0.58187,-3.90143 -3.09334,-2.44765 1.08613,-3.79211 -2.74739,-2.83047 1.57181,-3.61789 -2.35443,-3.16487 2.03059,-3.38178 -1.92119,-3.4451 2.45462,-3.0878 -1.45508,-3.6664 2.83667,-2.74099 -0.96407,-3.82496 3.17017,-2.34728 -0.45656,-3.91807 3.44943,-1.91341 0.0588,-3.94415 3.66967,-1.4468 0.57306,-3.90273 3.82712,-0.95544 1.07757,-3.79454 3.91909,-0.44772 1.56364,-3.62143 3.944,0.0676 2.02295,-3.38635 3.90143,0.58186 2.44765,-3.09333 3.79211,1.08613 2.83047,-2.74739 3.61789,1.57181 3.16487,-2.35443 3.38178,2.03059 3.4451,-1.9212 3.0878,2.45463 3.6664,-1.45508 2.74099,2.83667 3.82496,-0.96407 2.34728,3.17017 3.91807,-0.45657 1.91341,3.44943 3.94415,0.0588 1.4468,3.66967 3.90273,0.57306 0.95544,3.82712 3.79454,1.07757 0.44772,3.91909 3.62143,1.56364 -0.0677,3.944 3.38635,2.02295 -0.58186,3.90143 3.09333,2.44765 -1.08613,3.79211 2.74739,2.83047 -1.57181,3.61789 2.35443,3.16487 -2.03059,3.38178 1.9212,3.4451 -2.45463,3.0878 1.45508,3.6664 -2.83667,2.74099 0.96407,3.82496 -3.17017,2.34728 0.45657,3.91807 -3.44943,1.91341 -0.0588,3.94415 z"
         sodipodi:r1="50.109596"
         inkscape:flatsided="false"
         transform="matrix(1.2469,0,0,1.2469,283.33,-148.87)"
         sodipodi:arg2="0.73597141"
         sodipodi:arg1="0.67052156"
         inkscape:randomized="0"
         sodipodi:cy="882.69867"
         sodipodi:cx="200.25241"
         inkscape:rounded="0"
         sodipodi:r2="52.197498"
         sodipodi:sides="48" />
      <path
         id="path3141"
         style="fill:#cccccc;stroke:#666666;stroke-width:3.3706;stroke-linecap:round;stroke-linejoin:round"
         sodipodi:type="star"
         sodipodi:sides="38"
         sodipodi:r1="49.587624"
         sodipodi:r2="52.197498"
         sodipodi:arg1="0.67052156"
         sodipodi:arg2="0.75319505"
         transform="matrix(0.97905,0,0,0.97905,336.97,87.567)"
         inkscape:randomized="0"
         sodipodi:cy="882.69867"
         sodipodi:cx="200.25241"
         inkscape:rounded="0"
         inkscape:flatsided="false"
         d="m 239.1042,913.51216 -0.77333,4.88819 -4.82829,1.08634 -1.56736,4.69425 -4.94124,0.27681 -2.31863,4.37224 -4.91941,-0.54026 -3.00665,3.93097 -4.76339,-1.3426 -3.61267,3.38248 -4.47744,-2.10831 -4.12013,2.74172 -4.06935,-2.81653 -4.51521,2.02618 -3.55027,-3.4479 -4.78713,1.25536 -2.93434,-3.98523 -4.92846,0.45031 -2.23838,-4.41386 -4.93536,-0.36703 -1.48135,-4.72209 -4.80764,-1.17435 -0.68391,-4.90151 -4.54878,-1.94965 0.13218,-4.94723 -4.16584,-2.67176 0.94466,-4.858 -3.66926,-3.32099 1.73137,-4.63626 -3.0726,-3.87964 2.47087,-4.28805 -2.39213,-4.33246 3.14295,-3.82288 -1.64639,-4.6671 3.72931,-3.25342 -0.85577,-4.87444 4.21395,-2.59523 -0.0418,-4.94881 4.58363,-1.86624 0.77334,-4.88819 4.82828,-1.08635 1.56736,-4.69424 4.94124,-0.27681 2.31863,-4.37224 4.91941,0.54026 3.00665,-3.93097 4.7634,1.3426 3.61266,-3.38249 4.47744,2.10832 4.12013,-2.74172 4.06936,2.81652 4.5152,-2.02618 3.55028,3.44791 4.78712,-1.25537 2.93434,3.98524 4.92846,-0.45031 2.23838,4.41386 4.93536,0.36703 1.48135,4.72209 4.80764,1.17435 0.68391,4.90151 4.54878,1.94965 -0.13217,4.94723 4.16583,2.67176 -0.94466,4.85799 3.66926,3.321 -1.73137,4.63626 3.0726,3.87964 -2.47086,4.28805 2.39212,4.33246 -3.14295,3.82288 1.64639,4.6671 -3.72931,3.25342 0.85577,4.87444 -4.21395,2.59523 0.0418,4.94881 z" />
      <path
         id="path3915"
         style="fill:#cccccc;stroke:#666666;stroke-width:4.4898;stroke-linecap:round;stroke-linejoin:round"
         sodipodi:type="star"
         d="m 237.8773,912.5391 -0.61702,6.96984 -6.96643,0.65432 -2.15249,6.6578 -6.93737,-0.91227 -3.58002,6.0119 -6.56044,-2.4331 -4.82803,5.06454 -5.85454,-3.83193 -5.83395,3.86322 -4.85507,-5.03862 -6.54732,2.46819 -3.61215,-5.99265 -6.93239,0.94939 -2.1881,-6.64617 -6.96984,-0.61702 -0.65432,-6.96644 -6.6578,-2.15248 0.91227,-6.93737 -6.0119,-3.58002 2.4331,-6.56044 -5.06454,-4.82803 3.83193,-5.85454 -3.86322,-5.83395 5.03862,-4.85507 -2.46819,-6.54733 5.99265,-3.61214 -0.94939,-6.9324 6.64617,-2.18809 0.61702,-6.96984 6.96644,-0.65432 2.15248,-6.6578 6.93737,0.91226 3.58002,-6.01189 6.56044,2.4331 4.82803,-5.06454 5.85454,3.83193 5.83395,-3.86322 4.85507,5.03862 6.54733,-2.46819 3.61214,5.99264 6.9324,-0.94939 2.18809,6.64618 6.96984,0.61702 0.65432,6.96644 6.6578,2.15248 -0.91226,6.93737 6.01189,3.58002 -2.4331,6.56044 5.06454,4.82803 -3.83193,5.85454 3.86322,5.83395 -5.03862,4.85507 2.46819,6.54732 -5.99264,3.61215 0.94939,6.93239 z"
         sodipodi:r1="48.021698"
         inkscape:flatsided="false"
         transform="matrix(0.735,0,0,0.735,385.84,302.99)"
         sodipodi:arg2="0.7827213"
         sodipodi:arg1="0.67052156"
         inkscape:randomized="0"
         sodipodi:cy="882.69867"
         sodipodi:cx="200.25241"
         inkscape:rounded="0"
         sodipodi:r2="52.197498"
         sodipodi:sides="28" />
      <path
         id="path3105"
         style="fill:#333333;stroke:#666666;stroke-width:2;stroke-linecap:round;stroke-linejoin:round"
         sodipodi:type="star"
         d="m 564.08759,948.61311 c 2.50572,22.55143 -2.49365,-2.32264 -16.66811,15.39543 -14.17446,17.71808 11.19035,17.13535 -11.36108,19.64107 -22.55143,2.50571 2.32264,-2.49366 -15.39543,-16.66812 -17.71808,-14.17446 -17.13535,11.19035 -19.64107,-11.36108 -2.50571,-22.55143 2.49366,2.32264 16.66812,-15.39543 14.17446,-17.71808 -11.19035,-17.13535 11.36108,-19.64107 22.55143,-2.50571 -2.32264,2.49366 15.39543,16.66812 17.71808,14.17446 17.13535,-11.19035 19.64106,11.36108 z"
         sodipodi:r1="31.726896"
         inkscape:flatsided="false"
         sodipodi:arg1="-0.11065722"
         sodipodi:arg2="0.67474094"
         inkscape:randomized="0"
         transform="translate(0.47419,-0.34102)"
         sodipodi:cy="952.11676"
         sodipodi:cx="532.55475"
         inkscape:rounded="1"
         sodipodi:r2="19.036139"
         sodipodi:sides="4" />
      <path
         id="path3879"
         inkscape:connector-curvature="0"
         sodipodi:nodetypes="ccaaczcaac"
         style="fill:#cccccc;stroke:#666666;stroke-width:2;stroke-linecap:round;stroke-linejoin:round"
         d="m 538.37,932.18 13.139,10.073 c 0,0 -15.884,31.673 -26.715,45.547 -12.959,16.6 -30.859,28.728 -45.109,44.234 -7.4374,8.092 -21.022,25.401 -21.022,25.401 0,0 -8.7131,7.1869 -14.891,2.1898 -6.1774,-4.9972 -0.43796,-14.89 -0.43796,-14.89 0,0 14.269,-15.622 20.584,-24.088 12.686,-17.008 20.733,-37.369 34.599,-53.431 11.559,-13.389 39.854,-35.036 39.854,-35.036 z" />
      <circle
         id="path3925"
         style="fill:#333333;stroke:#666666;stroke-width:2;stroke-linecap:round;stroke-linejoin:round"
         transform="matrix(1.0657,0,0,1.0657,-35.908,-62.883)"
         cx="533.86859"
         cy="952.11676"
         r="7.4452553" />
      <ellipse
         id="path3927"
         style="fill:#333333;stroke:#666666;stroke-width:2;stroke-linecap:round;stroke-linejoin:round"
         transform="translate(-1.3139,-0.43796)"
         cx="451.31387"
         cy="1053.2847"
         rx="4.160584"
         ry="4.3795619" />
    </g>
  </g>
  <metadata
     id="metadata127">
    <rdf:RDF>
      <cc:Work>
        <dc:format>image/svg+xml</dc:format>
        <dc:type
           rdf:resource="http://purl.org/dc/dcmitype/StillImage" />
        <cc:license
           rdf:resource="http://creativecommons.org/publicdomain/zero/1.0/" />
        <dc:publisher>
          <cc:Agent
             rdf:about="http://openclipart.org/">
            <dc:title>Openclipart</dc:title>
          </cc:Agent>
        </dc:publisher>
        <dc:title>Mountainbike</dc:title>
        <dc:date>2011-10-29T14:46:55</dc:date>
        <dc:description />
        <dc:source>https://openclipart.org/detail/165145/mountainbike-by-wolfgangwgn</dc:source>
        <dc:creator>
          <cc:Agent>
            <dc:title>WolfgangWgn</dc:title>
          </cc:Agent>
        </dc:creator>
        <dc:subject>
          <rdf:Bag>
            <rdf:li>bicycle</rdf:li>
            <rdf:li>bike</rdf:li>
            <rdf:li>mountainbike</rdf:li>
            <rdf:li>sports</rdf:li>
          </rdf:Bag>
        </dc:subject>
      </cc:Work>
      <cc:License
         rdf:about="http://creativecommons.org/publicdomain/zero/1.0/">
        <cc:permits
           rdf:resource="http://creativecommons.org/ns#Reproduction" />
        <cc:permits
           rdf:resource="http://creativecommons.org/ns#Distribution" />
        <cc:permits
           rdf:resource="http://creativecommons.org/ns#DerivativeWorks" />
      </cc:License>
    </rdf:RDF>
  </metadata>
</svg>
