<?xml version="1.0" encoding="UTF-8" standalone="no"?>
<svg id="svg2" xmlns:rdf="http://www.w3.org/1999/02/22-rdf-syntax-ns#" xmlns="http://www.w3.org/2000/svg" height="1169pt" width="1703pt" version="1.1" xmlns:cc="http://creativecommons.org/ns#" xmlns:dc="http://purl.org/dc/elements/1.1/" viewBox="0 0 1703 1169">
<g id="g4403" transform="translate(-2400)">
<g>
<path id="rect4400" d="m3469.9 5.9469c-21.564 0.02-43.129 0.12344-64.684 0.17344-37.84 3.98-75.699 7.99-113.47 12.55-61.3 19.57-122.45 39.669-183.72 59.289-26.38 16.66-54 32.311-79.88 50.181-10.24 10.26-24.82 18.52-29.15 32.78-5.64 3.34-12.33 4.5397-17.82 8.2297-69.03 48.39-108.29 126.24-138.5 202.7-1.14 14.75 2.6697 29.73 0.8797 44.52-11.06-0.05-14.93 11.189-18.15 19.939-6.8 7.45-19.05 8.6506-24.27 17.891-6.28 15.08-12.579 30.45-14.139 46.87-2.68 4.81-0.2512 14.579-0.6812 21.139-0.66 8.36-4.7497 16.45-1.4797 24.77-15.77-3.48-31.87-4.9194-47.87-7.0094-0.4332-1.1725-2.6978-1.5396-5.1063-1.4891-3.0965 0.065-6.4293 0.82031-6.4125 1.4391-3.89 1.6-4.99 8.5791-10.6 7.1391-15.19-4.75-24.341 11.01-39.061 9.6203-31.26 2.94-52.109 33.72-83.809 33.95-5.31 8.87-15.411 11.43-25.211 11.9-4.05 9.11-9.1694 22.671-21.709 19.461-8.39-2.7-20.6 5.5191-17.23 14.839-26.14 2.37-47.31 24.11-65.13 40.13-14.08-2.61-26.69 10.561-27.55 23.931-20.66 16.67-29.62 44.89-25.62 70.6 27.3 8.12 43.779-22.641 63.189-36.761 11.04-5.71 9.7606-23.609 23.091-25.809 7.8-5.03 15.729-11.601 16.559-21.491 3.24-3.47 11.011-0.67938 13.011-6.1594 8.63-19.96 41.689-16.83 43.339-41.58 6.26-0.26 8.7606-5.2603 10.741-10.37 16.4-2.49 25.821-23.371 43.191-22.591 1.87-17.32 25.14-5.1491 31.43-18.789 5.16-4.15 14.66-0.74031 18.5-6.5703 5.86-14.74 27.4 1.2897 32.53-14.22 24.73 1.74 40.67 23.89 48 45.68 12.29 14.56 23.759 30.151 35.909 45.011 2.86 9.07 20.4 8.3697 21.05-1.9203 7.91 6.4 16.21 12.67 21 22 3.46 7.3 14.951 9.2703 15.611 17.72-10.9 11.8-24.52 22.699-29.45 38.609-1.28 3.92 5.6594-0.88031 5.4594 1.4297-5.06 5-11.54 8.44-16.6 13.5 2.67 2.47 8.0097 0.0409 11.13 2.5609-10.87 6.78-16.279 18.729-21.459 29.939 3.93-2.25 6.72-5.9703 10.35-8.6203-6.3 9.55-9.7803 20.651-12.22 31.741 1.62-0.0496 2.33-1.7 3.25-2.75 0.25 0.26 0.75 0.78 1 1.05-5.6 6.56-7.3097 15.409-10.78 23.159-1.15 5.48 8.4806 0.26032 9.4906 2.6703-16.74 17.43-18.88 45.87-9.1703 67.55 5.52 1.1 11.099-4.479 13.839-9.039 3.87-14.14 18.291-22.83 19.591-38.07 2.71-0.25 1.0303 7.8994 4.8703 6.4094 2.21-16.05-0.33-32.1 0.4-48.12 3.4-3.99 5.4291 6.7113 6.7391 3.1313 2.38-2.0772 0.4487-8.721 0.4234-13.175 0.05-0.63184 0.1039-1.2658 0.1469-1.8953 0.4-5.24 0.7309-10.43 1.0109-15.65 2.79 0.01 2.7994 6.5297 5.3594 5.7297 3.1-8.22-0.1606-23.58 0.7094-33.88 1.76-21.3 16.411-38.101 29.611-53.711 6.34 0.91 12.39 4.4303 19.17 3.8203-0.69 10.7-11 17.53-14.07 27.5-3.8 8.91 2.3594 18.58-0.7906 27.53-1.32 0.89-1.9394 2.46-2.6094 3.85-27.39 11.55-10.91 48.301-20.07 69.031 17.45-15.26 27.779-38.151 44.609-54.591-2.62-12.72-6.6588-26.171 4.0812-36.641 13.076-9.9568 10.451-25.399 8.711-39.747 0.014 0.43149 0.013 0.86032 0.014 1.2891 0-0.43414 0.0004-0.86771-0.016-1.3047-0.0003-0.009 0.0003-0.0177 0-0.0266 0-0.1516-0.018-0.30431-0.023-0.45625-0.021-0.47196-0.048-0.94509-0.084-1.4203-0.017-0.22036-0.036-0.44145-0.056-0.6625-0.039-0.43469-0.086-0.87051-0.139-1.3078-0.025-0.20458-0.047-0.40893-0.075-0.61406-0.085-0.63087-0.1774-1.264-0.2906-1.9 0.01-0.43 0.049-1.2888 0.069-1.7188 4.29-5.03 8.26-10.66 4.5-17.5 10.34-4.71 22.85-23.45 32.17-11.67 11.85 2.52 26.64 1.7694 30.28-12.191 8.77 2.09 16.79-0.65969 21.48-8.4297 33.5 10.98 61.551-16.151 91.561-26.091 2.27 0.08 4.7888 4.1712 2.1688 5.0312-19.27-0.94-31.729 16.99-40.309 31.73-6.15 23.87-15.39 47.31-30.6 66.9-3.2 12.91 13.149 17.069 12.359 28.809-15.88 17.07-36.099 29.65-55.519 42.48-25.66 15.46-59.59 23.23-73.22 52.87-1.38 10.79-9.0397 24.76-0.6297 33.28-4.82 10.68-19.56 13.75-26.97 22.97-11.26 7.63-3.5509 23.25-11.161 32.95-4.01 6.61-12.449 9.431-15.859 16.511-2.44 4.07 6.4903 8.96 0.9203 11.5-12.16 6.94-28.85 16.31-25.85 32.85 3.52 5.13 22.139 3.4197 16.239 13.48-6.64 14.41-22.079 30.54-19.189 45.88-8.33 0.53-16.81 3.1903-18.03 12.82 8.43-0.56 18.179-5.8703 25.859-3.9703-0.62 14.36 12.401 18.35 24.141 15.67-4.21-4.65-10.37-7.7303-14.05-12.72 6.71-12.93 14.539-26.99 13.239-41.93 2.94-17.09 31.02 6.6503 33.78-13.13 13.02-14.96-10.789-36.191 8.0109-47.981 11.41-5.86-18.2-19.679-4.05-27.719 12.39 7.03 33.159-3.58 29.909-19.25 2.8078-2.2335 0.3401-8.7314 0.6-12.856 0.0003-0.008 0-0.0104 0-0.016 0.048-0.37336 0.094-0.7468 0.1485-1.1187 2.55-5.64 2.96-12.191 3.95-17.791 4.62 2.35 9.9308 3.571 15.311 2.811 0.26 2.63 10.91 1.3192 10.9 0.0392 11.24 0.77 0.2788-16.41 9.8188-20.58 6.97-4.79-5.9194-10.41 0.4906-15.23 30.14-30.38 71.15-50.91 92.98-89.07 19.04 3.21 45.67-9.8703 42.47-32.47 3.87-24.43 21.82-43.879 30.13-66.589-5.79-11.22-2.3798-28.71-14.03-35.93 7.47-12 11.219-32.581 16.909-47.381 9.49-9.73 32.291-11.139 26.391-29.409 6.68 0.25 15.36 5.1606 19.02 9.7406-6.12 22.26 13.63 34.57 23.61 50.45 0.06 11.57-2.3092 26.489 7.7608 35.009 31.61 31.11 49.559 73.669 84.539 101.46 19.5 9.21 38.01 20.86 57.4 29.92 18.2-5.82 34.99 8.4603 35 26.77-0.82 38.8-0.3792 77.7-0.1392 116.53-2.39 12.13 5.2888 22.81 6.9188 33.57 13 11.37 36.33 8.4697 41.9 28.08 5.34 8.08-4.39 21.641 6.2 25.811 6.77-4.95 14.981-8.0501 21.661-12.8 2.32-6.62 2.9697 3.2694 3.7297 6.0094-3.65 11.03-7.6702 23.46-19.07 28.85-3.51 11.38 12.4 7.75 17.19 12.3-5.4 15.57-15.77 36.18-1.4405 50.03 11.72 7.48 24.07-4.3697 35.7-6.9797-0.99 17.92-3.8992 36.29-3.2892 53.98 11.6 6.47-3.3412 15.56-10.081 18.75-4.59 3.08-8.5491-7.5393-11.439-4.0593 6.75 16.3 28.749 12.96 34.989-1.7204 4.91 8.4 16.291 9.7904 26.011 12.67-2.42-5.03-7.86-7.8404-10.65-12.62-3.5-10.89 4.8395-22.58-0.5905-33.1-5.7-13.04-11.14-26.171-16.85-39.191 3.68 1.04 7.0808 2.8313 10.711 4.0313 5.05-4.18 4.0194-11.701 7.0094-16.891 0.54-11.06-28.801-19.96-10.691-24.75-13.27-14.25-27.569-29.4-32.159-48.97 11.14-18.83-14.59-30.679-25.33-41.889-0.47-2.4-2.4297-4.0603-4.8297-4.2203-6.11-7.04-21.331-15.831-14.581-25.891 11-2.75 22.761 2.9697 33.561 5.8797-14.46-13.99-26.54-31.149-28.17-52.019 0.74-5.01 0.1902-10.151-0.041-15.141-7.54-34.44-31.019-64.589-29.359-101.16-5.88-13.14-17.659-23.961-27.759-33.641-0.06-20.79-24.191-24.759-39.381-31.209-9.21-7.75-14.579-20.041-26.089-25.011-26.02-12.22-49.15-29.14-71.95-46.43 1.3-4.84-4.1106-17.26 3.8594-16.65 10.38 0.93 15.261-11 23.091-14.87 34.62 12.22 66.349 31.461 100.69 44.491 22.31 4.18 46.38 0.11 67.47 9.35 28.46 13.72 60.03 18.559 88.35 32.559 19.33 16.05 44.401 25.221 69.441 26.561 3.85 2.73 15.18 1.1597 19.07 0.0297 19.02-1.16 37.67-6.7297 56.93-5.0297 0.29 2.67 10.7 1.3487 11.08 0.0187 16.16-1.29 37.42 3.9309 47.25-12.939 46.28 13.35 44.95 75.72 87.35 94.25 15.55 14.25 37.981 18.809 57.141 12.839 11.47 8.48 21.749 19.391 32.859 28.611 4.86 2.2 6.5303-3.1906 6.0203-6.5906-2.38-7 5.4094-16.969 13.009-12.309 11.25 5.71 12.37 20.599 19.32 30.139 4.54-1.95 7.4097-5.6287 8.7297-10.219 12.73 8.78 16.911 44.919 40.361 36.559 7.38-2.94 7.97-13.61 12.9-18.1 21.13 9.6 43.599 19.1 60.459 35.33 6.38 14.58-14.949 17.241-23.659 21.441 13.56 7.57 37.309 0.64904 35.209-17.061-4.73-9.43 12.01-11.16 11.8-19.58-25.63-14.6-53.011-26.709-78.441-41.839-2.29-11.94-13.119-22.96-26.089-20.47-6.57-1.16-18.46 7.549-18.63-3.5609-7.08-15.22-29.46-1.4488-37.1-16.119-8.79-12.33-26.421-19.431-40.341-11.741-11.21-11.83-34.22 0.13969-41.12-15.72 13.64-8.53 29.791-13.99 45.011-19.98-21.19-6.39-48.391-2.4894-65.861-20.209-32.72-15.51-54.57-46.161-80.93-70.091-5.52-13.12-16.451-25.83-32.241-23.65-2.0038-1.2031-5.5925-1.5677-9.3782-1.5078-4.8676 0.077-10.061 0.85595-12.631 1.4578-34.68 10.08-73.731 17.99-107.99 5.0203 53.12-6.1 106.47-9.96 159.74-14.25 8.23-0.38 19.761 1.8491 26.141-0.71093 4.23 0.04 8.46-0.04 12.75-0.3 6.58-0.47 16.449 1.9709 21.319-0.73907 34.7 0.66 69.291-11.78 97.641-31.33 7.88-14.81 20.16-28.41 21.02-45.92 15.98-70.32 8.49-143.91-7.8-213.49-9.4-24.43-18.381-49.02-27.561-73.53-25.02-48.96-62.58-89.35-101.1-127.92-23.839-14.05-47.039-29.199-71.059-42.939-33.6-14.417-67-28.958-100.7-43.338-27.72-7.58-55.94-13.4-83.83-20.33-21.55-0.28-43.113-0.34344-64.676-0.32344zm-704.8 558.72c5.6929-0.11624 14.391 7.2613 20.795 2.2875 8.78 12.5 9.6903 34.42 0.3203 48.65-1.48 3.64 3.6594 12.491 0.1094 13.161-17.48-16.6-22.901-42.62-40.091-58.9 4.54-0.38 9.5412 1.4003 13.881-0.42969 0.99-3.5297 2.7568-4.7232 4.9844-4.7688zm998.99 41.203c1.3562-0.003 2.7135 0.0127 4.0703 0.0297-1.3569-0.0169-2.7141-0.031-4.0703-0.0282-1.253 0.003-2.506 0.0182-3.7578 0.0438 1.2523-0.0256 2.5044-0.0427 3.7578-0.0453zm-415.32 98.588c0.079-0.0008 0.1562 0.004 0.2344 0.005-0.078-0.0004-0.1558-0.004-0.2344-0.003-0.3372 0.005-0.6769 0.0262-1.0187 0.0594 0.3417-0.0331 0.6817-0.0565 1.0187-0.061z" fill="#c4ae0a"/>
<path id="path4" d="m3469.9 5.9469c-21.564 0.02-43.129 0.12344-64.684 0.17344-37.84 3.98-75.699 7.99-113.47 12.55-61.3 19.57-122.45 39.669-183.72 59.289-26.38 16.66-54 32.311-79.88 50.181-10.24 10.26-24.82 18.52-29.15 32.78-5.64 3.34-12.33 4.5397-17.82 8.2297-69.03 48.39-108.29 126.24-138.5 202.7-1.14 14.75 2.6697 29.73 0.8797 44.52-11.06-0.05-14.93 11.189-18.15 19.939-6.8 7.45-19.05 8.6506-24.27 17.891-6.28 15.08-12.579 30.45-14.139 46.87 0.12 7.04 0.1288 14.119-0.6812 21.139-0.66 8.36-4.7497 16.45-1.4797 24.77-15.77-3.48-31.87-4.9194-47.87-7.0094-3.85-0.01-7.6888-0.03-11.519-0.05-3.89 1.6-4.99 8.5791-10.6 7.1391-15.19-4.75-24.341 11.01-39.061 9.6203-31.26 2.94-52.109 33.72-83.809 33.95-5.31 8.87-15.411 11.43-25.211 11.9-4.05 9.11-9.1694 22.671-21.709 19.461-8.39-2.7-20.6 5.5191-17.23 14.839-26.14 2.37-47.31 24.11-65.13 40.13-14.08-2.61-26.69 10.561-27.55 23.931-20.66 16.67-29.62 44.89-25.62 70.6 27.3 8.12 43.779-22.641 63.189-36.761 11.04-5.71 9.7606-23.609 23.091-25.809 7.8-5.03 15.729-11.601 16.559-21.491 3.24-3.47 11.011-0.67938 13.011-6.1594 8.63-19.96 41.689-16.83 43.339-41.58 6.26-0.26 8.7606-5.2603 10.741-10.37 16.4-2.49 25.821-23.371 43.191-22.591 1.87-17.32 25.14-5.1491 31.43-18.789 5.16-4.15 14.66-0.74031 18.5-6.5703 5.86-14.74 27.4 1.2897 32.53-14.22 24.73 1.74 40.67 23.89 48 45.68 12.29 14.56 23.759 30.151 35.909 45.011 2.86 9.07 20.4 8.3697 21.05-1.9203 7.91 6.4 16.21 12.67 21 22 3.46 7.3 14.951 9.2703 15.611 17.72-10.9 11.8-24.52 22.699-29.45 38.609-1.28 3.92 5.6594-0.88031 5.4594 1.4297-5.06 5-11.54 8.44-16.6 13.5 2.67 2.47 8.0097 0.0409 11.13 2.5609-10.87 6.78-16.279 18.729-21.459 29.939 3.93-2.25 6.72-5.9703 10.35-8.6203-6.3 9.55-9.7803 20.651-12.22 31.741 1.62-0.05 2.33-1.7 3.25-2.75 6.31-8.62 6.73-4.42 1 1.05-5.6 6.56-7.3097 15.409-10.78 23.159-1.15 5.48 8.4806 0.26032 9.4906 2.6703-16.74 17.43-18.88 45.87-9.1703 67.55 5.52 1.1 11.099-4.479 13.839-9.039 3.87-14.14 18.291-22.83 19.591-38.07 2.71-0.25 1.0303 7.8994 4.8703 6.4094 2.21-16.05-0.33-32.1 0.4-48.12 3.4-3.99 5.4291 6.7113 6.7391 3.1313-0.4-5.03 0.2303-10.09 0.5703-15.07 0.4-5.24 0.7309-10.43 1.0109-15.65 2.79 0.01 2.7994 6.5297 5.3594 5.7297 0.14-11.3-0.8606-22.66 0.7094-33.88 1.76-21.3 16.411-38.101 29.611-53.711 6.34 0.91 12.39 4.4303 19.17 3.8203-0.69 10.7-11 17.53-14.07 27.5-3.8 8.91 2.3594 18.58-0.7906 27.53 4.26 0.91 6.4903-7.2291 4.6203-10.439-2.64-14.83 10.399-25.321 12.309-38.961-0.54-10.13 12.521-9.4588 17.191-16.819 4.29-5.03 8.26-10.66 4.5-17.5 10.34-4.71 22.85-23.45 32.17-11.67 11.85 2.52 26.64 1.7694 30.28-12.191 8.77 2.09 16.79-0.65969 21.48-8.4297 33.5 10.98 61.551-16.151 91.561-26.091 2.27 0.08 4.7888 4.1712 2.1688 5.0312-19.27-0.94-31.729 16.99-40.309 31.73-6.15 23.87-15.39 47.31-30.6 66.9-3.2 12.91 13.149 17.069 12.359 28.809-15.88 17.07-36.099 29.65-55.519 42.48-25.66 15.46-59.59 23.23-73.22 52.87-1.38 10.79-9.0397 24.76-0.6297 33.28-4.82 10.68-19.56 13.75-26.97 22.97-11.26 7.63-3.5509 23.25-11.161 32.95-4.01 6.61-12.449 9.431-15.859 16.511-2.44 4.07 6.4903 8.96 0.9203 11.5-12.16 6.94-28.85 16.31-25.85 32.85 3.52 5.13 22.139 3.4197 16.239 13.48-6.64 14.41-22.079 30.54-19.189 45.88-8.33 0.53-16.81 3.1903-18.03 12.82 8.43-0.56 18.179-5.8703 25.859-3.9703-0.62 14.36 12.401 18.35 24.141 15.67-4.21-4.65-10.37-7.7303-14.05-12.72 6.71-12.93 14.539-26.99 13.239-41.93 2.94-17.09 31.02 6.6503 33.78-13.13 13.02-14.96-10.789-36.191 8.0109-47.981 11.41-5.86-18.2-19.679-4.05-27.719 12.39 7.03 33.159-3.58 29.909-19.25-0.13-4.67 0.08-9.3906 0.75-13.991 2.55-5.64 2.96-12.191 3.95-17.791 4.62 2.35 9.9309 3.571 15.311 2.811 3.64-0.08 7.23-0.091 10.9 0.039 11.24 0.77 0.2788-16.41 9.8188-20.58 6.97-4.79-5.9194-10.41 0.4906-15.23 30.14-30.38 71.15-50.91 92.98-89.07 19.04 3.21 45.67-9.8703 42.47-32.47 3.87-24.43 21.82-43.879 30.13-66.589-5.79-11.22-2.3797-28.71-14.03-35.93 7.47-12 11.219-32.581 16.909-47.381 9.49-9.73 32.291-11.139 26.391-29.409 6.68 0.25 15.36 5.1606 19.02 9.7406-6.12 22.26 13.629 34.57 23.609 50.45 0.06 11.57-2.3091 26.489 7.7609 35.009 31.61 31.11 49.559 73.669 84.539 101.46 19.5 9.21 38.01 20.86 57.4 29.92 18.2-5.82 34.99 8.4603 35 26.77 0.97 38.78 1.2109 77.75-0.1391 116.53-2.39 12.13 5.2888 22.81 6.9188 33.57 13 11.37 36.33 8.4697 41.9 28.08 5.34 8.08-4.39 21.641 6.2 25.811 6.77-4.95 14.981-8.05 21.661-12.8 2.32-6.62 2.9697 3.2694 3.7297 6.0094-3.65 11.03-7.6703 23.46-19.07 28.85-3.51 11.38 12.401 7.75 17.191 12.3-5.4 15.57-15.771 36.18-1.4406 50.03 11.72 7.48 24.07-4.3697 35.7-6.9797-0.99 17.92-3.8991 36.29-3.2891 53.98 11.6 6.47-3.3412 15.56-10.081 18.75-4.59 3.08-8.5491-7.5394-11.439-4.0594 6.75 16.3 28.749 12.96 34.989-1.7203 4.91 8.4 16.291 9.7903 26.011 12.67-2.42-5.03-7.86-7.8403-10.65-12.62-3.5-10.89 4.8394-22.58-0.5906-33.1-5.7-13.04-11.14-26.171-16.85-39.191 3.68 1.04 7.0809 2.8312 10.711 4.0312 5.05-4.18 4.0194-11.701 7.0094-16.891 0.54-11.06-28.801-19.96-10.691-24.75-13.27-14.25-27.569-29.4-32.159-48.97 11.14-18.83-14.59-30.679-25.33-41.889-1.7-1.32-3.3497-2.6903-4.8297-4.2203-6.11-7.04-21.331-15.831-14.581-25.891 11-2.75 22.761 2.9697 33.561 5.8797-14.46-13.99-26.54-31.149-28.17-52.019-0.77-5.04-0.4506-10.121-0.041-15.141-7.54-34.44-31.019-64.589-29.359-101.16-5.88-13.14-17.659-23.961-27.759-33.641-0.06-20.79-24.191-24.759-39.381-31.209-9.21-7.75-14.579-20.041-26.089-25.011-26.02-12.22-49.15-29.14-71.95-46.43 1.3-4.84-4.1106-17.26 3.8594-16.65 10.38 0.93 15.261-11 23.091-14.87 34.62 12.22 66.349 31.461 100.69 44.491 22.31 4.18 46.38 0.11 67.47 9.35 28.46 13.72 60.03 18.559 88.35 32.559 19.33 16.05 44.401 25.221 69.441 26.561 6.34-0.08 12.68-0.0403 19.07 0.0297 19.02-1.16 37.67-6.7297 56.93-5.0297 3.71-0.06 7.3097-0.0812 11.08 0.0188 16.16-1.29 37.42 3.9309 47.25-12.939 46.28 13.35 44.95 75.72 87.35 94.25 15.55 14.25 37.981 18.809 57.141 12.839 11.47 8.48 21.749 19.391 32.859 28.611 4.86 2.2 6.5303-3.1906 6.0203-6.5906-2.38-7 5.4094-16.969 13.009-12.309 11.25 5.71 12.37 20.599 19.32 30.139 4.54-1.95 7.4097-5.6287 8.7297-10.219 12.73 8.78 16.911 44.919 40.361 36.559 7.38-2.94 7.97-13.61 12.9-18.1 21.13 9.6 43.599 19.1 60.459 35.33 6.38 14.58-14.949 17.241-23.659 21.441 13.56 7.57 37.309 0.64904 35.209-17.061-4.73-9.43 12.01-11.16 11.8-19.58-25.63-14.6-53.011-26.709-78.441-41.839-2.29-11.94-13.119-22.96-26.089-20.47-6.57-1.16-18.46 7.549-18.63-3.5609-7.08-15.22-29.46-1.4488-37.1-16.119-8.79-12.33-26.421-19.431-40.341-11.741-11.21-11.83-34.22 0.13969-41.12-15.72 13.64-8.53 29.791-13.99 45.011-19.98-21.19-6.39-48.391-2.4894-65.861-20.209-32.72-15.51-54.57-46.161-80.93-70.091-5.52-13.12-16.451-25.83-32.241-23.65-7.36 0.06-14.699 0.02-22.009-0.05-34.68 10.08-73.731 17.99-107.99 5.0203 53.12-6.1 106.47-9.96 159.74-14.25 8.66-1.01 17.411-0.92093 26.141-0.71093 4.23 0.04 8.46-0.04 12.75-0.3 7.06-0.7 14.179-1.0091 21.319-0.73907 34.7 0.66 69.291-11.78 97.641-31.33 7.88-14.81 20.16-28.41 21.02-45.92 15.98-70.32 8.49-143.91-7.8-213.49-9.4-24.43-18.381-49.02-27.561-73.53-25.02-48.96-62.58-89.35-101.1-127.92-23.8-14.15-47-29.299-71-43.039-33.7-14.32-67.1-28.861-100.8-43.241-27.72-7.58-55.94-13.4-83.83-20.33-21.55-0.28-43.113-0.34344-64.676-0.32344zm34.5 2.2781c22.254-0.070683 44.325 1.6084 65.894 8.3547 40.13 5.7 74.71 27.52 111.73 42.4 1.51 0.17 4.5009 2.8506 1.2609 1.8406-20.02-6.77-39.58-15.11-59.77-21.33-50.7-6.37-101.1-18.621-152.5-15.491-56.87-3.61-112.08 13.011-168.42 17.491-49.71 10.16-98.7 23.769-147.85 36.169-11.32 10.35-31.58 13.381-37.8 28.061 5.11 3.13 10.07 9.69 16.87 6.35 14.71-7.87 27.199-19.95 43.559-24.72 67.36-19.67 136.76-30.92 205.48-44.6 41.98-2.77 83.989-5.9294 126.02-7.7094 39.28 4.87 79.221 5.4197 117.73 15.38 36.26 4.52 69.069 23.96 101.21 38.73-33.22-10.16-65.281-26.771-100.09-29.791-64-13.14-129.38-9.18-194.3-9.1-46.6 6.65-93.319 12.641-139.94 19.091-40.62 15.57-84.59 23.84-121.6 47.5-26.96 15.98-59.701 18.151-86.691 34.291-12.07 7.09-27.959 5.7397-36.389-5.7203-4.22-1.76-10.711-8.45-16.561-8.4 27.53-29.13 66.92-44.05 100.95-64.87 55.73-17.67 112.49-32.45 169.54-45.5 38.53-5.35 76.979-11.48 115.56-16.52 28.547 1.17 57.464-1.8138 86.076-1.9047zm50.303 60.005c34.53 7.12 71.331 6.8509 104.33 18.861 11.75 3.23 23.529 6.6791 34.919 11.039 26.62 7.49 51.481 20.62 77.291 30.62 12.01 9.53 24.511 19.05 35.741 29.35-24.1-18.23-51.831-29.499-79.991-39.709-28.95-11.27-59.79-16.961-89.52-25.861-32.57-3.5-65.36-6.3894-98.05-8.2594-40.6 6.57-82.489 7.17-121.41 21.7-45.16 11.38-87.801 29.44-131.24 45.75-18.8 9.23-39.979 17.32-60.059 24.92-13.63 11.27-30.02 19.279-46.93 24.019-9.27 12.58 14.11 27.001 25.53 24.811 14.86-14.02 28.629-33.58 50.589-36.6 41.45-8.06 75.621-35.111 115.44-47.811 31.95-4.73 64.76-1.6194 96.53-8.0594 60.52-24.19 127.1-18.6 190.7-16.58 28.16 7.16 58.45 7.4597 84.42 21.63 34.67 13.72 67.809 30.769 100.61 48.359 11.04 14.49 25.221 27.72 32.311 44.67 14.27 24.27 26.07 50.78 34.08 77.93-12.38-18.03-19.93-40.109-37.15-54.809-18-27.25-58.85-27.869-74.55-56.609-10.38-4.37-20.711 0.67969-30.891 2.2797-12.59-4.47-22.369-14.14-34.469-19.52-12.18-12.51-39.641 1.0006-58.481 0.59062-23.35-19.81-57.38-5.7112-85.5-9.9812-25.85-4.6-52.629 20.991-76.359 3.7609-22.95-4.6-41.821 14.179-64.091 15.739-22.25 1.27-44.379 5.2009-65.719 11.311-6.91 7.25-17.621 12.72-28.161 11.58-18.24 8.41-39.249 8.25-56.709 18.55-13.92 4.85-25.07 16.93-40.82 16.18-13.14-0.02-19.05 16.64-32.72 16.32-12.84-0.01-24.38 5.0203-36.13 9.4203-14.16 1.94-3.2894 11.45 1.7406 18.22-4.14 4.8-9.3906 11.64-16.741 10.93-10.28 8.56 10.59 12.09 16.6 10.13 32.21-5.51 63.421-17 95.641-22.42 21.78 6.93 45.609 8.3997 66.369-2.7703 10.38-3.5 5.2912-19.259 18.081-20.069 39.27-8.22 80.259-8.2506 118.24-22.741 48.17-7.49 96.381-16.021 145.06-19.991 9.77-2.49 13.21 9.53 21.8 11.1 17.7 4.37 34.659-12.849 51.989-3.3391 26.17 22.53 63.14 11.889 94.53 17.609 32.88 9.08 61.321 31.051 88.261 50.241 12.5 11.92 22.049 33.67 15.059 51.05-19.81-21.2-51.49-24.031-78.1-32.791-19.73-3.26-49.279 2.2209-57.209-21.789-12.27 3.43-24.95 10.37-38.32 11.63-13.45-3.39-29.521-4.7303-38.191-16.97-8.94-2.03-16.039 6.62-23.769 9.85-8.23 1.38-22.09-2.5994-17.67-13.759-9.42 0.09-17.51 5.84-26.32 8.4-37.56 17.18-79.64 19.969-120.38 16.659-37.99-3.23-74.251 9.84-110.96 16.9-59.78 16.09-121.96 23.77-183.66 26.23-24.04 4.68-48.189-2.9397-72.159-5.2797 1.81 4.16 8.34 4.1903 11.05 8.0203 7.64 3.33 14.509 8.2291 22.089 11.739 24.68 14.97 51.861 25.2 80.341 29.67 28.41 1.22 57.179 1.9703 85.239-3.4797 21.2-3.73 44.041-7.0703 64.391 2.0297 13.4 6.63 28.93-2.32 35.97-13.85 42.46-3.46 86.01 2.5809 128.52-4.2891 33.28-5.12 67.37-4.5512 100.13-12.931 22.85-3.71 44.97 4.68 67.17 8.2 17.81-2.39 38.129-1.6297 53.869 5.0703 2.72 0.07 5.3703 0.81062 8.0703 1.1906 19.26-0.43 38.55-0.16 57.83-0.25 20.89 11.29 46.97 8.3491 69.17 15.239 1.25 13.9 4.3406 29.74 3.2906 44.52-60.22-7.57-120.8-6.4694-181.16-10.809-74.09-8.88-148.94-11.13-223.46-7.4797-27.69 5.41-54.861 15.7-83.591 13.58-28.82-1.27-61.839 6.4991-87.759-4.0609-9.71-4.79-18.609 3.5112-28.409 3.0312-15.07-3.02-28.77 5.1-43.1 8.1-16.38 2.23-33.6-7.5412-50.67-10.031-9.64-1.58-18.8-4.95-27.98-8.1 20.61 31.91 56.91 45.57 87.98 64.52 4.53 2.36 10.239 5.0206 13.809 8.6406 27.67 14.25 59.891 9.2097 89.811 9.5797 29.47-0.73 58.009-9.1206 87.359-10.741 44.88-6.36 94.02-9.7194 140.48-6.5594 32.11 3.08 64.41 3.0897 96.53 0.62969 62.22-9.3 126.68-1.3097 188.17-8.4797 9.68 9.37 26.531 20.34 17.111 35.87-8.49 9.96-5.89 30.93-23.85 29.45-36.64 0.63-73.341-0.55031-109.94 0.52969-58.44 12.16-118.36 11.27-177.25 19.93-16.94 3.11-36.66-2.7394-51.18 9.1406-34.05 2.18-68.441-2.97-102.41 2.45-27.29-0.82-54.16-7.57-81.63-6.95-25.59-5.69-53.82-7.5203-75.98-22.07-1.53-0.26-3.0806-0.66938-4.2406-1.7094-20.92-8.42-41.299-18.15-62.069-26.92-2.64-0.94-5.0206-2.4009-7.4906-3.6109 0.84 18.95 14.97 40.211 35.4 43.641 29.97 8.33 56.459 25.181 85.609 35.441 30.78 8 62.69 11.579 94.45 12.169 52.44-6.66 105.59-6.4391 157.94-14.239 100.53-10.44 202.62-11.011 301.2-35.541-17.62 16.57-43.66 24.59-66.98 32.87-113.53 9.34-228.52 9.6397-340.54 32.48-43.57 4.61-88.069 7.3109-130.04-7.8391-45.89-17.75-92.591-34.751-133.58-62.411-17.12-13.67-28.06-35.469-48.08-45.059-12.73-7.41-1.1494 3.6397 0.3406 9.7797-12.12-7.4-23.881 7.28-35.061 10.95-5.87 2.85-1.5097 7.4306 3.1703 7.7906-13.45 12.26-24.92 28.609-42.67 34.739-11.31 3.09-13.869 16.29-23.639 21.4-6.24 3.36-17.1 9.5806-11.85 17.941-15.84 9.79-33.921 16.89-51.311 24.03-12.48 6.55-24.369-5.0706-30.469-14.941-13.18-13.35-5.1212-33.489-13.181-48.909-7.81-17.12-12.189-36.53-25.469-50.5-17.53-15.7-33.981-33.05-44.791-54.13-5.05-9.39-5.4894 6.24-11.359 4.45-5.76-10.92-13.811-21.651-19.311-32.011-17.64 4.67-22.139-15.46-24.289-28.48-6.19-11.93-2.8809-26.639-0.8609-38.239 21.43-78.04 66.12-153.17 132.23-201.05 21.04-18.3 56.331-8.4403 75.891 8.9797 6.95 7.7 14.25 15.09 21.17 22.82 16.43 37.61 24.75 78.039 34.12 117.87 13.44 32.38 25.39 65.75 26.85 101.17 0.45 31.74 39.669 46.141 40.569 76.461 11.34-21.77-13.79-34.83-26.05-48.15-7.95-23.01-10.119-48.67-7.1391-72.57 7.3-7.47-1.31-13.74-4.65-20.65-24.84-31.79-31.23-74.4-31.02-113.77-2.04-19.12 4.8703-40.04 18.12-53.57 9.85-8.81 19.179-20.02 32.389-24.15 55.78-21.4 108.92-48.93 163.89-72.23 36.33-8.18 73.03-14.82 109.7-21.28 39.87-2.24 79.779-4.9206 119.66-6.6906zm-326.3 38.7c0.445 0.0113 0.5094 0.28249-0.4156 1.1125-37.66 25.37-82.499 43.439-108.01 82.889-8.66 8.38-13.529 19.62-22.009 28.12-9.89-10.18-13.971-26.02-15.381-39.3 33.63-3.36 61.691-26.78 91.631-41.63 5.5-1.3 0.4897-5.9797-0.1203-9.0297 15.92-10.54 34.869-14.76 52.439-21.72 0.595-0.205 1.4206-0.45344 1.8656-0.44218zm-253.32 76.302c-6.97 1.58-11.059 7.31-13.239 13.7 11.67-10.08 10.679 11.58 4.4594 17.37 7.75 0.82 22.86-4.7306 21.18-16.991 3.99-8.63-5.27-13.89-12.4-14.08zm-42.414 51.831c-0.5459 0.0237-1.2059 0.13906-1.9953 0.35937-17.06 4.43-20.939 20.899-29.759 33.459 10.83-6.34 20.479-14.87 30.139-22.83 1.5406-2.9725 6.8927-11.218 1.6156-10.989zm28.734 7.2984c-15.54 15.72-31.47 32.371-52.68 40.281-14 9.29-7.1706 31.029-24.741 37.369-1.46-1.84 6.66-11.67 1.4-14-9.02 14.44-22.11 29.891-17.83 48.191 0.6 3.84 5.6297 3.5397 8.2797 1.8297 9.04-6.97 19.561-13.85 22.581-25.63 5.05-16.16 23.23-21.6 32.6-34.42 12.37-15.01 30.41-25.279 38.5-43.589 1.81-4.92-3.9009-9.8912-8.1109-10.031zm12.58 34.861c-4.81 14.31-8.8594 37.34-27.609 40.88-17.79 6.47-9.6294 30.41-24.759 39.55-9.88 5.54-22.631 15.18-18.531 28.17 4.12 16.55 2.5403 33.77 4.2703 50.6 2.51 9.15 13.801 8.8503 20.091 13.57 1.03 4.02 0.1097 8.6094-0.3703 12.809-6.85 7.22-0.47 8.77 7.05 10.9 8.82 3.07 19.69 3.6403 27.78-1.4297 2.1-6.8-3.0303-11.78-7.5703-15.75-0.79-12.25 25.621-14.17 17.581-27.33-6.13-15.06-20.451 3.3697-31.311 0.32969-4.29-5.43 0.5006-13.05 0.2906-17.67-12.41-0.58-14.22-12.181-10.25-22.141 14.01-18.77 30.299-35.779 46.409-52.719 5.33-10.91 5.5597-23.66 13.63-33.47-2.02-9.61-10.04-19.5-16.7-26.3zm74.5 16.13c-7.7 2.69-14.29 8.4403-18.25 15.52 7.27 7.58 15.011 15.42 25.341 18.43 11.74 11.55-2.5612 28.211 1.1188 42.141 2.35 5.44-7.64 4.7897-5.65 10.13 13.15 6.33 26.441 14.109 40.791 17.239-5.09-14.14-24.55-24.049-19.33-42.109 4.36-21.87 0.7797-54.62-24.02-61.35zm-46.059 70.03c-13.47 2.49-19.7 20.22-11.9 30.85 17.93 3.04 35.41-25.83 11.9-30.85zm30.647 36.93c-8.375-0.15016-16.016 2.6378-18.747 12.131-1.17 8.66 10.889 8.3994 14.589 13.659-2.94 7.25-13.95 10.1-15.23 18.77-3 13.64 10.01 22.11 15.65 32.98 18.31 4.71 28.99-12.52 34.45-27.22 7.22 10.35 10.811 25.631 25.391 28.161 8.41-0.54 16.279-4.3409 23.859-7.8109 9.27-4.64 6.0203-15.579 0.8703-21.989-4.5-5.55-3.1703-15.821-11.17-17.881-11.01-3.88-18.57 8.8103-28.58 10.87-7.08-12.64-16.5-23.14-20.07-37-5.6625-2.1188-13.623-4.5378-21.012-4.6703zm-194.9 25.714c8.0819 0.25926 17.277 12.719 19.739 19.706-16.87 12.28-43.919 27.93-34.759 53.05 4.27 10.35 13.699-9.1891 20.659-1.4891-1.05 7.95-0.1691 16.019 2.3109 23.639 24.24-3.36 13.68-42.68 39.25-40.65 14.28 18.65 32.35 36.14 48.45 51.9-34.99-6.99-54.35 40.84-35.75 67.03 4.86 4.87 1.9488 16.881 4.8188 23.641 8.6 12.01 22.821 17.791 29.881 31.041-8.6 3.69-11.831 15.9-21.291 17.08-10.05-13.42-20.739-40.62-42.009-29.93 0.22 3.06-9.83 4.41-7.1 9.8 6.53 1.67 13.979-2.6809 19.769-1.2109 7.23 1.17 16.361 3.6109 13.841 13.361-1.63 8.96 19.439 22.299 3.5094 23.389-6.38 2.34-9.6897-4.44-14.73-6.65 0.12 1.79 0.4897 3.5306 1.0297 5.2406 3.98 3.44 9.2103 6.7891 11.27 11.839-9.01-1.04-18.289 0.76124-26.909-3.0188-17.4 6.57-23.661-11.841-36.341-18.631-15.67-10.47-17.97-37.68-37.98-41.45 5.72 7.72-23.46 7.2409-11.03 5.8109 3.48-0.93 4.7694-5.4397 8.3094-6.4797-2.32-13.42 2.6206-25.051 4.9406-38.011-0.92-10.11-4.1897-19.78-5.8297-29.75 4.57-0.79 8.6888-6.66 1.8188-7.5-1.44-6.94 1.8012-15.669 3.6312-23.209-0.89-6.2-16.471 5.92-10.131-3.95 10.05-12.44-4.31-34.171 10.4-41.541 5.72-5.94 15.16-14.03 9.1203-23.1 6.71-14.35 25.861-20.24 25.791-37.97 1.65-1.4569 3.4553-2.0458 5.3203-1.9859zm173.03 95.206c-6.32 13.54 0.35 27.5 3 39.57 7.5 2.46 15.33 5.1994 23.3 5.0594 11.13-4.73 18.04-15.89 26.62-24.08 5.72-5.96-1.0303-6.4891-6.8203-5.8391-13.33 8.52-4.8997-8.7203-14.63-10.17-10.5-1.5-21.05-2.5106-31.47-4.5406zm-78.8 18.02c0.3293-0.0109 0.666-0.0113 1.0078 0 20.93 4.12 5.89 37.109-12.15 31.659-9.23 10.32-8.0303-6.8794 0.03-9.9094 7.12-3.33-2.9397-6.1003-6.0297-7.1703-1.12-8.41 23.289-0.35 14.619-9.55-5.6906-2.2969-2.4152-4.8658 2.5234-5.0297zm-203.54 4.0594c18.34 2.41 39.039 2.8909 56.219 7.8109 8.18 15.78-11.549 15.41-19.819 8.5297-6.42-3.5-5.7112 6.6097-10.731 7.0297-11.44 1.97-25.19-12.229-34.3-0.80938-8.12 0.88-18.37-3.64-23.88 4.95-8.56-1.82-15.669 0.79-23.459 3.8-5.37-3.7 0.3397-18.481 6.9297-14.641-4.72 7.95 3.3997 8.52 10.18 7.9-3.75-12.51 13.871-18.87 23.641-15.47 8.58 4.39 11.11-4.21 15.22-9.1zm218.91 6.0609c8.75 13.67 21.56 26.21 26.43 41.62 5.03 13.17 0.1703 33.049 14.67 42.169 8.37 4.26-2.89 9.9503-6.35 12.47-14.91-12.28-17.03 23.84-30.17 11.37 8.14-1.25 5.4397-13.201 7.5297-20.041-2.84-23.59 1.4303-47.989-5.7797-70.909-3.86-4.21-8.1697-12.63-6.3297-16.68zm-182.52 15.302c5.6929-0.11624 14.391 7.2613 20.795 2.2875 8.78 12.5 9.6903 34.42 0.3203 48.65-1.48 3.64 3.6594 12.491 0.1094 13.161-17.48-16.6-22.901-42.62-40.091-58.9-2.51-2.05 9.9612-1.0197 13.881-0.42969 0.99-3.5297 2.7567-4.7233 4.9844-4.7688zm-109.14 2.4547c2.7332 0.17498 0.8391 5.9813 2.0391 7.7438-0.53 8.26 15.48-4.1597 10.8 4.7703-9.09 11.07-24.67-3.8803-13.45-12.47 0.2256-0.0412 0.4287-0.0554 0.6109-0.0437zm274.79 5.5078c7.2485 0.10199 7.6003 8.4297 0.8015 12.936-6.84 1.14-6.3397-8.0706-4.3297-12.441 1.3163-0.35625 2.4926-0.50988 3.5282-0.49531zm-289.32 5.3938c4.1277-0.25171 7.06 4.1137 10.612 6.0125-5.61 10.42-20.419 8.6094-28.839 11.409-0.23 10.1-11.69 8.4003-16.02 15.02-5.57 6.12-10.22-12.45-9.8703-3.0797 3.67 8.84-9.8803 6.5391-9.9203 13.939-0.53 8.72-15.61-0.0303-13.78 10.18-6.15 15.8-21.45-13.889-6.6203-15.489 2.51 2.02 8.4809 13.27 6.9609 1.1297-5.0507-9.7696 9.792-14.092 12.925-5.3234-1.4511-11.727 12.236-20.85 20.475-9.1266 4.12 5.46 1.1494-2.1997-0.4406-4.5797 3.18-7.21 11.201-10.24 16.291-4.25-1.83-10.1 9.8997-11.67 16.38-15.43 0.6438-0.245 1.2572-0.37654 1.8469-0.41249zm-54.552 33.798c0.1024 0.82709 0.2741 1.6675 0.5344 2.5141-0.078-0.93924-0.2681-1.7688-0.5344-2.5141zm163.38-22.536c5.52 5.63 9.8194 15.629 17.709 20.619 8.91 5.05 5.9409 16.87 9.6609 24.95-5.62 0.69-7.34-6.1097-6.7-10.48-4.68-6.39-13.93-10.459-17.82-17.239 11.22 1.89-11.51-13.27-2.85-17.85zm486.96 11.958c6.7297 0.24174-3.6062 14.981 1.5969 19.772 18.67 15.8 39.89 29.039 61.07 41.009 8.43 3.79 17.62 8.3297 22.88 16.18 13.76 14.83 31.431 25.16 48.861 32.95 2.51 0.54 4.9188 2.9903 4.2688 5.7203-8.87-0.97-19.92-8.8994-26.73 0.34062-7.47 12.42-29.97 9.6891-22.4 29.439 0.25 3.52 0.99 7.0706 2.4 10.341-32.38-16.6-66.7-37.59-80.38-73.17-6.9-15.6-23.25-25.91-32.35-39.92 17.1 3.83 24.88 23.211 40.67 29.541-4.68-4.2-8.9309-8.8197-12.961-13.63-7.01-8.14-18.259-13.86-21.189-25-0.92-3.72 3.5497-4.8397 5.9797-2.8797 13.06 8.84 26.12 17.86 40.23 25 2.08 1.38 8.8809 1.3688 1.9609-1.9312-15.64-14.32-45.941-27.329-35.491-53.609 0.61-0.12 1.1342-0.16768 1.5828-0.15156zm487.17 19.911c5.5892-0.0547 10.599 1.9144 13.631 8 5.3 2.41 10.951 11.98 9.4609 16.22-9.35-10.13-23.43-9.49-32.4-17.35-5.7 9.31-14.48 22.36-27.7 22-5.91 1.15-2.5109 9.14-3.4609 13.15-1.67 8.41 7.88 13.03 8 20.53-7.43 3.38-15.869-0.41-23.589 0.45-24.92 4.22-52.201 21.701-76.541 7.8312-15.68-11.45-37.82-8.6709-52.08-22.711-5.45-5.37-13.72-8.38-18.53-13.3 37.21 9.81 74.749 1.5606 111.84-4.1094-22.05-1.36-47.12-0.51-69.98-5.95 28.63-7.26 61.2-3.5003 91.28-5.7203 16.8-1.7 34.08-3.8297 48.62-13.23 6.12-2.3231 14.262-5.7406 21.448-5.8109zm-634.2 2.35c6.35 0.43 12.63 1.2994 19.05 0.70938 21.52 21.67 4.81 56.151-8.1 78.091-12.77 13.97-4.5109 47.51-28.911 49.32-4.16 2.77-18.36-1.9206-6.6297-3.8406 24.56-5.41 30.13-40.98 9.25-54.07-21.34-6.79-34.46 13.621-48.9 24.391 17.73-24.98 22.539-55.891 38.109-81.841 8.63-4.31 16.351-11.139 26.131-12.759zm-160.01 0.95c2.5 8.27 15.421 13.749 21.011 2.5594 2.73 6.65 7.9597 28.62-8.2703 26-10.8-3.16-29.421-22.799-12.741-28.559zm-376.43 2.5891c9.3666 0.50612 9.6519 15.109 7.5594 23.091-4.89 4.43-12.349 3.9506-17.669 7.8906-6.59-8.52-13.93-27.24 3.9297-29.68 2.4-1.0047 4.4451-1.3953 6.1797-1.3016zm244.29 10.081c15.8 3.39 9.2091 15.9-2.3109 19.87-6.65-6.31 9.07-6.4906 8.05-12.791-5.3-0.17-9.2997 4.5606-14.73 3.7906 0.47-4.54 6.9406-6.7003 8.9906-10.87zm-273.83 4.3391c18.11 8.1 4.0312 31.681-7.1688 40.881-11.03 5.96-16.18-11.801-15.95-20.011 5.08-9.32 13.829-16.07 23.119-20.87zm-37.98 20.92c9.48 2.94 13.801 15.481 21.291 22.241-0.25 11.46-10.81 23.15-22.38 24.22-4.84-10.21-16.501-19.211-13.331-31.711 3.27-6.03 8.6203-11.1 14.42-14.75zm1212.6 9.0297c5.44 7.63 16.47 7.5903 26.38 9.1203-8.01 13.28-24.61 1.7297-26.38-9.1203zm51.9 5.66c11.03 2.35 23.45-0.1 29.75 11.25 5.78 6.01-1.9703-7.5603 5.0797-7.2703 12.42 5.71 10.47 24.961 24.45 29.191 5.67-0.28 10.2 4.86 12.38 9.65 18.48 20.07 35.06 42.869 43.35 69.109-9.84-10.59-15.47-25.19-25.03-36.03 1.91 9.33 7.1003 17.679 8.7703 27.039-15.98-1.63-15.73-24.379-23.8-35.109-0.25 0.29-0.7697 0.86-1.0297 1.15 2.18 6.18 7.1703 14.57 3.0703 20.2-8.32 9.75-16.521-6.3694-21.181-12.059-13.54-14.25-25.699-31.311-28.509-51.281-6.37-10.87-20.48-15.999-27.3-25.839zm-1295.2 6.3391c12.814 0.41372 16.63 16.619 24.07 24.941 6.48 13.5-8.6197 21.429-18.48 26.259-23.06-2.35-31.899-44.099-6.8594-51.189 0.4325-0.0203 0.8554-0.0243 1.2688-0.0109zm452.89 9.15c0.1653 2.0934 0.4092 4.237 0.6719 6.4031-0.068-2.1025-0.2865-4.238-0.6719-6.4031zm0.6719 6.4031c0.645 19.883-12.287 36.862-27.372 48.917 16.08 15.71-3.4 32.05-14.45 42.62-4.25-8.53 5.2406-23.391 4.4906-29.591-27.39 11.55-10.91 48.301-20.07 69.031 17.45-15.26 27.779-38.151 44.609-54.591-2.62-12.72-6.6588-26.171 4.0812-36.641 13.076-9.9568 10.451-25.399 8.711-39.747zm-44.372-2.4047c2.8727 0.002-2.4066 5.3837-3.7391 6.8625-13.29 11.38-14.461 35.71-35.581 37.15-9.01 4.57 12.03 4.56 5.95 10.2-5.53 1.58-14.31 3.6294-15.5 10.059 7.77-0.85 20.861 8.7506 12.741 15.191-9.46-4.71-19.329 1.8297-22.709 11.13 8.7-4.16 19.29 0.73062 17.35 11.291-0.74 11.08-16.791 0.53907-20.981 9.1891-2.82 4.44-7.5688 8.511-7.6688 14.111 11.84-5.6 30.23 3.28 26.93 17.85-6.27 1.57-10.32-11.52-16.83-5.6703-5.12 6.4-10.791 13.09-15.061 20.05 6.49-2.43 14.371-5.3503 20.191 0.37968 1 14.87-8.0309 27.73-19.111 36.58-7.1-20.02-6.74-43.52 9.6-59.28 6.46-5.79-4.6-8.9503-9.6-6.8703 3.25-14.34 13.34-25.459 21.7-37.059-5.06 0.78-7.8491 6.11-12.739 7.15 2.1-12.64 11.979-21.31 17.959-31.95-3.36 1.22-6.58 2.8-9.9 4.1 2.36-7.79 13.921-13.411 15.161-19.391-18.82 1.34 1.4991-7.8094 6.6391-12.859 5.13-5.63-11.3 0.53031-6.8703-5.8297 8.9-13.82 20.371-33.081 38.631-31.411 1.68-0.68625 2.7762-0.97245 3.4391-0.97187zm183 13.04c0.8016-0.013 1.7403 0.10313 2.8344 0.37031 6.24 0.3 27.73 8.6197 16.07 15.98-2.59 4.27-6.62 8.33-11 11.1 0 0.37-0.02 1.1206-0.02 1.4906 5.73 0.49 8.5597-5.6106 13.33-7.2406 2.57 4.79-13.339 18.259-14.259 13.909-6.83 17.76-16.251 37.86-34.011 47.75-26.22 18.05-47.32 42.461-76.08 56.881-7.3 5.02-15.08 13.109-24.35 6.4094-7.51-1.07 0.1 9.0306 2.45 11.891-4.04 6.05-10.7-0.22032-12.62-4.8703-6.14-15.86 9.7003-26.971 17.17-38.741 37.53-26.43 80.971-45.179 112.94-78.989 3.32-5.37 13.309-1.71 13.909-8.3-2.77-3.3-5.4297-6.6806-8.0797-10.041-0.9878-5.2472-6.033-17.475 1.7156-17.6zm-11.525 6.3875c2.4809 0.0585 4.2163 1.9612 3.8094 6.9531 0.56 4.78-2.36 12.299 3.6 14.609-3.43 5.21-6.3706-4.9806-8.7906-7.6906-2-3.6-8.2488-3.81-8.9188-7.6 2.6888-3.375 7.1104-6.3471 10.3-6.2719zm-609.25 0.12188c8.4 9.48 20.26 17.61 29.5 26.27-6.68 12.73-25.26 28.361-40.55 21.511-6.38-16.05 1.23-34.341 11.05-47.781zm929.3 1.2812c3.65 0.21 8.9894-0.41124 11.659 2.3688-5.95 5.58-15.56 1.9206-22.33 6.3906 2.8-3.63 6.0103-7.5694 10.67-8.7594zm477.43 11.73c11.02 3.01 23.01 2.1197 34.28 4.4297-6.23 4.34-10.87 10.51-17.32 14.55-5.21-6.56-12.889-11.7-16.959-18.98zm-501.14 6.8859c3.6803 0.11137 5.7544 2.4762 6.0469 6.9938-11.88-4.41-2.7597 11.999-4.7297 15.859-4.03-5.17-3.1503-15.549-4.1203-22.569 1.0181-0.21562 1.9538-0.31007 2.8031-0.28437zm39.327 3.1531c17.78 5.25 34.581 19.801 37.861 38.881-2.83 31.54 26.33 54.199 25.08 85.839-0.69 17.17 6.9297 32.41 16.08 46.28 3.5 1.93 6.2603 5.7113 8.8703 8.9313-11.2-5.96-37.759-10.14-32.359 11.23 0.09 5.44 6.4991 18.74-3.5609 15.82-2.75 3.95-2.6003 9.02-3.0203 13.6-7.74-2.36-14.4-7.471-22.38-9.111-11.45-11.12-7.6291-27.7-9.5891-41.97-0.33-34.9-0.091-69.809-0.081-104.71 3.23-19.02-17.58-30.57-25.58-43.78 14.24-2.81-7.48-11.96-6.9-17.9 14.64 3.85 21.681 23.469 33.391 31.489-3.59-12.32-14.261-22.29-17.811-34.6zm-31.18 11.231c7.39 9.1 18.91 14.43 26.23 23.4-10.53-5.16-32.14-6.56-26.23-23.4zm538.83 19.819c8.94 7.99 29.411-1.8497 30.111 14.82-0.84 8.67-6.4603-1.2191-8.0203-4.8891-5.14 1.11-12.911 10.229-15.991 1.9891-4.28-4.09-19.72-7.5203-6.1-11.92zm37.994 8.9016c13.812-0.0988 3.3497 18.166-7.7328 12.819 1.71-4.34 2.7203-9.73 6.3203-12.75 0.4969-0.0428 0.967-0.0656 1.4125-0.0688zm18.577 6.1094c7.95 2.37 20.55 5.4394 22.45 14.759-7.03 10.94-28.49-6.4594-22.45-14.759zm24.891 26.03c5.51 2.59 10.309 9.6094 17.459 11.509 2.19 17.61-21.719-3.2294-17.459-11.509zm39.555 5.1375c10.56 0.19104 18.331 9.9806 28.245 13.533 4.75 4.12 16.13 4.3494 14.77 12.759-15.57-4.41-29.281-15.14-44.791-20.5 5.55 7.04-11.78 23-13.32 10.07-6.09-8 5.7609-8.3097 10.411-9.8797-2.76-0.9-6.79-4.8-1.5-5 2.1781-0.72344 4.2288-1.0182 6.1844-0.9828zm-1049.6 37.042c0.29 8.63-12.549 15.361-21.159 18.461 1.08-10.28 14.499-12.301 21.159-18.461zm-50.95 45c8.76 1.2 9.1806 21.311-1.7594 21.061-8.64-0.67-9.9494 12.17-17.159 12.25-0.13-7.07 8.8897-10.59 11.63-16.65-14.63-3.6-0.3409-15.131 7.2891-16.661zm-20.869 35.9c5.96 2.05 4.65 13.6 9.7 18.52-5.14 0.75-18.031-3.6194-20.081-10.709 2.12-3.4 6.4212-6.181 10.381-7.811zm554.55 6.8297c11.97 9 25.489 17.311 33.669 30.341 1.75 3.39-5.9 9.14 0.4 9.5 7.09 1.22-1.7988 7.03-5.4688 2.7-9.91-14.12-33.77-22.501-28.6-42.541zm-565.58 8.1813c3.01-0.14 3.86 13.6 8.7 7.8297 4.62-3.29 18.81 1.1403 10 6.9703-2.16 13.03-14.269 1.7987-21.809 0.46872-9.37-4.22-6.9406 9.7-2.3906 12.55 7.07 4.51-0.6391 12.84-1.9391 18.75-2.59 11.02-20.44 13.371-16.55 26.511 1.82 7.94-7.11 28.709-15.35 16.459 8.57-13.5 10.64-34.71 25-41.73-7.76-2.45-6.9409-9.6597-0.061-13.68-5.58-1.73-12.659 0.73936-18.819 0.55936 0.47-7.49 7.4094-11.879 13.909-13.959 9.65-3.36 12.669-14.04 19.309-20.73zm604.62 46.769c10.48 5.44 18.221 25.341 1.8906 27.841 13.31 2.48 16.55 16.13 22.98 26.23-1.8 15.92-23.391 9.86-33.991 15.75 8.55-9.83 17.49-20.94 18.12-34.68-0.38-5.21-7.5803 1.47-8.6203-2.75-0.26-10.75-3.6497-21.891-0.3797-32.391zm-610.52 2.2313c0.88 0.1-1.53 7.0988-3.6 7.2688 0.05-2.75 0.9-6.0088 3.6-7.2688zm631.7 75.1c9.92 0.23 9.0103 10.899 10.12 18.269-0.93 10.54 9.3706 24.031 0.7406 32.511-9.77-14.34 1.57-34.29-9.15-48.3-8.89 9.77-22.23 13.38-29.88 0.9703 9.32-1.61 18.889-1.41 28.169-3.45z" fill="#1f1a17"/>
<path id="path8" d="m3462.3 15.183c-45.776 0.12997-91.518 3.4309-136.68 11.458-70.69 16.59-143.43 28.34-209.55 59.43-21.59 15.19-43.13 30.53-64.2 46.45-5.05 2.61-2.27 8.55-3.1 12.9 8.43 11.46 24.319 12.81 36.389 5.7203 26.99-16.14 59.731-18.311 86.691-34.291 37.01-23.66 80.98-31.93 121.6-47.5 46.62-6.45 93.339-12.441 139.94-19.091 64.92-0.08 130.3-4.04 194.3 9.1 5.1-1.61-2.7691-2.3394-4.6891-3.4594-33.17-14.61-70.17-9.8406-105.15-15.541-33.29 2.15-66.66 2.9706-99.92 5.5406-76.65 11.9-154.93 18.28-228.78 43.25-24.4 6.95-44.58 23.45-65.68 36.57-14.16 3.3-15.101-12.36-6.5609-20 6.22-14.68 26.48-17.711 37.8-28.061 49.15-12.4 98.14-26.009 147.85-36.169 56.3-4.482 111.5-21.103 168.4-17.493 51.43-3.13 101.76 9.1206 152.47 15.491 20.19 6.22 39.75 14.56 59.77 21.33 3.24 1.01 0.2491-1.6706-1.2609-1.8406-37.02-14.88-71.6-36.7-111.73-42.4-7.44 1.92 13.451 3.2403-1.3094 3.3203-35.389-3.0012-71.015-4.8183-106.62-4.7172zm54.242 56.6c-4.0491-0.000039-8.1094 0.17219-12.184 0.56719-57.91-0.69-113.11 19.069-168.45 33.559-48.13 18.8-98.66 32.771-143 60.011-22.28 13.82-50.39 23.9-60.9 50.18-6.53 10.71 1.5 21.91 2.8 32.92 0.71 9.64 18.371 4.4103 14.891 16.47-8.47 11.34-20.57 23.579-16.68 39.339 5.81 9.06 9.4991 19.091 12.639 29.361 5.21 3.44 10.98 6.07 15.28 10.8 13.18 11.99 34.961 1.1 48.441 10.95l0.85 0.18907c61.7-2.46 123.88-10.14 183.66-26.23 33.8-19.52 72.86-23.811 110.6-30.491 39.74 2.98 79.361-6.5688 119.01-8.3688 0.63 1.75-1.1603 5.51 1.7297 5.3 8.81-2.56 16.9-8.31 26.32-8.4-4.42 11.16 9.4403 15.139 17.67 13.759 7.73-3.23 14.829-11.88 23.769-9.85 8.67 12.24 24.741 13.58 38.191 16.97 13.37-1.26 26.05-8.1997 38.32-11.63 7.93 24.01 37.479 18.529 57.209 21.789 26.61 8.76 58.29 11.591 78.1 32.791 6.99-17.38-2.5594-39.13-15.059-51.05 0.1 7.54 7.4691 13.209 8.4891 20.859-31.32-19-56.589-47.29-89.839-63-47.15-7.87-95.26-8.7194-142.75-14.309-21.26-0.13-42.92-3.1209-63.75 2.6391-44.93 14.34-91.73 21.251-137.93 30.081-30.39 6.23-56.791 22.769-84.631 35.369-56.93 16.55-117.01 13.71-175.57 15.52-23.6 2.34-46.331-10.24-59.911-28.85 8.5 6.6 19.21 5.3706 29.32 3.9406 7.35 0.71 12.601-6.1297 16.741-10.93-5.03-6.77-15.901-16.28-1.7406-18.22-3.39-2.9-10.87-2.55-11.15-7.6 22.59-10.15 50.09-7.2406 70.83-21.341 22.09-13.12 42.231-33.47 69.311-35.75 22.15 0.55 43.54-6.2094 65.55-7.3594 21.34-6.11 43.469-10.041 65.719-11.311 22.27-1.56 41.141-20.339 64.091-15.739 23.73 17.23 50.509-8.3609 76.359-3.7609 28.12 4.27 62.15-9.8288 85.5 9.9812 18.84 0.41 46.301-13.101 58.481-0.59062 12.1 5.38 21.879 15.05 34.469 19.52 10.18-1.6 20.511-6.6497 30.891-2.2797 15.7 28.74 56.55 29.359 74.55 56.609 17.22 14.7 24.77 36.779 37.15 54.809-8.01-27.15-19.81-53.66-34.08-77.93-21.72-19.19-41.19-41.83-67.08-55.87-44.4-23.69-93.59-41.479-144.55-40.309-34.2-1.62-68.311-8.2206-102.59-3.2406-62.73 6.08-125.61 13.521-186.75 29.241-52.81 12.75-100.64 39.329-150.12 60.859-22.65 11.69-43.27 34.78-69.63 33.35 13.81-13.42 3.3103-37.109 13.52-53.359 9.3-6.46 17.67-15.32 29.58-16.47 29.95-10 58.02-25.039 88.48-33.559 43.44-16.31 86.081-34.37 131.24-45.75 38.92-14.53 80.809-15.13 121.41-21.7 32.69 1.87 65.48 4.7594 98.05 8.2594 29.73 8.9 60.57 14.591 89.52 25.861-6.33-8.37-22.221-14.381-33.041-20.261-11.39-4.36-23.169-7.8091-34.919-11.039-19.02-4.11-38.3-7.6809-57.85-7.2109-28.438 0.35-56.233-8.0966-84.576-8.0969zm-345.3 298.83c-3.24 12.57-17.77 25.091-12.27 39.991 10.92 9.31 22.961 18.68 30.811 30.58-6.16 1.84-19.28-9.42-25.78-3.35 11.82 13.15 29.819 21.19 38.559 36.85-4.23 16.81 3.35 43.06 21.75 44.98 2.47 1.21 4.8506 2.6709 7.4906 3.6109 5.16-6.37 14.75-5.05 21.68-2.85 13.82 9.4 27.809 18.68 40.389 29.77 1.16 1.04 2.7106 1.4494 4.2406 1.7094 65.92 16.62 134.57 12.809 201.86 10.209 53.22 3.89 105.72-9.19 157.49-19.7 66.21-5.38 133.68-0.28969 199.25-11.68 8.42-6.33 25.76-10.699 25.85-23.039-25.13-7.98-51.38 2.31-76.93 2.95-101.63 13.94-206.03 14.789-306.35-7.7906-6.21-4.62-13.32-6.5306-21.22-4.8906-29.35 1.62-57.889 10.011-87.359 10.741-29.92-0.37-62.141 4.6703-89.811-9.5797-36.06 1.97-74.62-9.1403-96.95-39.17-3.1-4.03 2.4409-6.9203 6.1609-4.2703 24.83 12.92 48.98 30.01 76.98 34.8-31.07-18.95-67.37-32.61-87.98-64.52 9.18 3.15 18.34 6.52 27.98 8.1-6.71-6.25-15.59-9.6191-22.07-16.039 24.27 8.31 47.261 22.21 72.741 26.07 14.33-3 28.03-11.12 43.1-8.1 9.8 0.48 18.699-7.8212 28.409-3.0312 42.73-3.11 86.17 4.28 128.15-6.55 83.75-26.87 173.44-21.32 260.01-16.95 34.48 19.12 76.87 12.721 114.9 19.211 17.37 3.92 34.571-2.2903 51.991-1.0703 3.62-0.57 7.0297-4.22 5.3297-8.2-14.97-4.49-29.699-10.45-42.559-19.47-21.42-13.73-47.751-14.269-72.141-17.709-2.7-0.38-5.3503-1.1206-8.0703-1.1906-51.16-2.89-102.41-2.7994-153.64-3.0094-49.89 7.31-99.83 17.699-150.58 16.639-21.76-1.26-41.341 7.82-61.661 13.35-44.55 3-89.32 0.84031-133.93 3.9703-12.12-1.95-25.44-4.47-35.48-11.7-28.48-4.47-55.661-14.7-80.341-29.67z" fill="#fae627"/>
<path id="path22" d="m3009.3 164.2c-10.317 0.0288-20.212 2.9313-28.102 9.7938 13.41 1.98 28.541-2.4103 40.441 5.5297 27.81 11.93 34.47 44.5 48.25 68.65 9.02 59.92 34.109 116.79 35.809 177.9 0.96 3.4-0.01 5.0791-2.9094 5.0391 8 2.06 6.6703 12.331 11.17 17.881 5.15 6.41 8.3997 17.349-0.8703 21.989 9.01 7.75 4.3606 28.771 3.6406 40.861-13.63-4.28-19.16 12.11-31.37 13.43-8.3186 1.3407-13.626 9.0352-21.159 10.808 2.4195 0.64056 3.2781 2.2648-0.02 5.7016-1.52 10.12-8.57 18.87-13.7 27.47-9.7-4.26-18.341 10.28-28.441 2.9203-12.33-10.32-30.17-15.811-36.12-32.041-15-22.42-34.87-41.18-53.1-60.87-2.25-2.54-3.5297-6.2294 1.3203-5.5594-7.52-2.13-13.9-3.68-7.05-10.9-7.01 7.53-3.0603-12.34-11.17-11.83-19.23-3.21-25.69-23.791-26.08-40.691-4.88-22.11-43.37-8.8591-40.87-35.239-2.02 11.6-5.3291 26.309 0.8609 38.239 2.15 13.02 6.6491 33.15 24.289 28.48 5.5 10.36 13.551 21.091 19.311 32.011 5.87 1.79 6.3094-13.84 11.359-4.45 10.81 21.08 27.261 38.43 44.791 54.13 13.28 13.97 17.659 33.38 25.469 50.5 8.06 15.42 0 35.559 13.181 48.909 6.1 9.87 17.989 21.491 30.469 14.941 17.39-7.14 35.471-14.24 51.311-24.03-5.25-8.36 5.61-14.581 11.85-17.941 9.77-5.11 12.329-18.31 23.639-21.4 17.75-6.13 29.22-22.479 42.67-34.739-4.68-0.36-9.0403-4.9406-3.1703-7.7906 11.18-3.67 22.941-18.35 35.061-10.95-1.49-6.14-13.071-17.19-0.3406-9.7797 0-3.31 0.08-6.5897 0.08-9.8797-0.9-30.32-40.119-44.721-40.569-76.461-1.46-35.42-13.41-68.79-26.85-101.17-9.37-39.83-17.69-80.259-34.12-117.87-6.92-7.73-14.22-15.12-21.17-22.82-12.225-10.887-30.594-18.821-47.789-18.773zm54.9 371.88c-1.7763-0.47029-4.3894-0.41268-6.8406-0.13751 2.5224 0.66732 4.7656 0.62577 6.8406 0.13751zm-266.2-46.998c-14.71 7.37-0.35 29.101-10.4 41.541-6.34 9.87 9.2412-2.25 10.131 3.95-1.83 7.54-5.0712 16.269-3.6312 23.209 6.87 0.84 2.7512 6.71-1.8188 7.5 1.64 9.97 4.9097 19.64 5.8297 29.75 14.92-3.41 18.6 17.97 31.57 21.92 3.83-4.43 16.69-3.76 16 5.65 0.75 12.56 9.69 24.041 23.85 18.441 21.27-10.69 31.959 16.51 42.009 29.93 9.46-1.18 12.691-13.39 21.291-17.08-7.06-13.25-21.281-19.031-29.881-31.041-2.87-6.76 0.041-18.771-4.8188-23.641-0.34 1.28-0.6609 2.5706-1.0609 3.8406-14.94-15.2-12.09-38.769-9-58.109-7.74-0.04-6.4203 10.519-7.4203 15.719-5.15 19.84 9.9406 38.621-3.0094 56.191-5.76 0.95-22.5 2.98-20.6-8 4.36-26.35 3.7806-53.25 2.9906-79.77-8.06 3.7-14.701 17.71-25.111 9.0797-4.51 3.59 1.31 17.521-7.05 20.791-10.96-0.8-5.0294-20.86-15.459-16.17-15.92-12.24-14.131-35.93-14.411-53.7zm156 76.97c7.21 22.92 2.9397 47.319 5.7797 70.909-2.09 6.84 0.6103 18.791-7.5297 20.041 13.14 12.47 15.26-23.65 30.17-11.37 3.46-2.52 14.72-8.2103 6.35-12.47-14.5-9.12-9.6403-28.999-14.67-42.169-0.91 3.26 1.6909 14.18-4.7891 12.88-6.11-12.14-7.1209-26.85-15.311-37.82zm283.25 35.198c-0.4486-0.0161-0.9728 0.0316-1.5828 0.15156-10.45 26.28 19.851 39.289 35.491 53.609 6.92 3.3 0.1191 3.3112-1.9609 1.9312-14.11-7.14-27.17-16.16-40.23-25-2.43-1.96-6.8997-0.84031-5.9797 2.8797 2.93 11.14 14.179 16.86 21.189 25-0.81-1.57-1.4997-3.1906-2.0797-4.8406 12.29 3.49 20.08 15 31.08 20.92-2.54-4.08-6.4691-7.1697-8.4891-11.58 7.38 2.13 13.629 6.9391 21.039 8.9391-1.05-4.52-7.6988-9.3691-4.5688-14.189 6.02 2.57 12.429 2.3294 18.759 2.9594-21.18-11.97-42.4-25.209-61.07-41.009-5.2031-4.7906 5.1328-19.53-1.5969-19.772zm417.1 38.95c-30.08 2.22-62.65-1.5397-91.28 5.7203 22.86 5.44 47.93 4.59 69.98 5.95-37.09 5.67-74.629 13.919-111.84 4.1094 4.81 4.92 13.08 7.93 18.53 13.3 14.26 14.04 36.4 11.261 52.08 22.711 11.14-9.62 23.27-18.941 37.87-22.291 1.95-15.35 9.4094-25.73 24.659-29.5zm-437.88 3.7094c9.1 14.01 25.45 24.32 32.35 39.92 10.9-0.8 17.38 12.041 28.1 13.241-5.58-8.99-15.69-13.64-21.8-22.2 8.33 3.47 12.479 13.58 21.509 15.42-4.91-7.06-13.349-10.901-19.489-16.841-15.79-6.33-23.57-25.711-40.67-29.541zm-334.29 5.7203c-5.18 1.82 4.3909 4.5597 5.5609 6.6297 7.04 3.44 11.939 14.881 7.4094 20.891-15.83 2.17-23.96-17.409-38.95-20.359 10.42 6.6 19.24 15.239 28.6 22.939 5.04 2.21 8.3497 8.99 14.73 6.65 15.93-1.09-5.1394-14.429-3.5094-23.389 2.52-9.75-6.6106-12.191-13.841-13.361zm440.62 28.58c6.49 9.2 16.12 16.08 24.48 23.62-0.91 1.24-1.9294 2.4-2.9594 3.55 9.94-3.99 17.441 6.3597 27.341 5.7797-17.43-7.79-35.101-18.12-48.861-32.95zm-453.46 0.92187c-2.2926-0.0118-4.3937 1.0281-6.175 4.0094-7.41 4.89 2.6197 8.9 7.0297 10.65 8.62 3.78 17.899 1.9788 26.909 3.0188-2.06-5.05-7.2903-8.3991-11.27-11.839-5.4863-0.70125-11.45-5.8131-16.494-5.8391z" fill="#b6671c"/>
<path id="path24" d="m2981.2 173.99c-66.11 47.88-110.8 123.01-132.23 201.05-2.5 26.38 35.99 13.129 40.87 35.239 0.39 16.9 6.8497 37.481 26.08 40.691 8.11-0.51 4.1603 19.36 11.17 11.83 0.48-4.2 1.4003-8.7894 0.3703-12.809-6.29-4.72-17.581-4.4203-20.091-13.57-1.73-16.83-0.1503-34.05-4.2703-50.6-4.1-12.99 8.6512-22.63 18.531-28.17 15.13-9.14 6.9694-33.08 24.759-39.55 18.75-3.54 22.799-26.57 27.609-40.88 6.66 6.8 14.68 16.69 16.7 26.3-8.07 9.81-8.2997 22.56-13.63 33.47-16.11 16.94-32.399 33.949-46.409 52.719-3.97 9.96-2.16 21.561 10.25 22.141 0.21 4.62-4.5806 12.24-0.2906 17.67 10.86 3.04 25.181-15.39 31.311-0.32969 8.04 13.16-18.371 15.08-17.581 27.33 4.54 3.97 9.6703 8.95 7.5703 15.75-8.09 5.07-18.96 4.4997-27.78 1.4297-4.85-0.67-3.5703 3.0194-1.3203 5.5594 18.23 19.69 38.1 38.45 53.1 60.87 5.95 16.23 23.79 21.721 36.12 32.041 10.1 7.36 18.741-7.1803 28.441-2.9203 5.13-8.6 12.18-17.35 13.7-27.47-8.58 8.19-15.49 19.35-26.62 24.08-7.97 0.14-15.8-2.5994-23.3-5.0594-2.65-12.07-9.32-26.03-3-39.57 10.42 2.03 20.97 3.0406 31.47 4.5406 9.73 1.45 1.2997 18.69 14.63 10.17 11.68 3.09 17.39-8.9603 28-10.67 12.21-1.32 17.74-17.71 31.37-13.43 0.72-12.09 5.3694-33.111-3.6406-40.861-7.58 3.47-15.449 7.2709-23.859 7.8109-14.58-2.53-18.171-17.811-25.391-28.161-5.46 14.7-16.14 31.93-34.45 27.22-5.64-10.87-18.65-19.34-15.65-32.98 1.28-8.67 12.29-11.52 15.23-18.77-3.7-5.26-15.759-4.9994-14.589-13.659 5.14-17.87 27.679-11.981 39.759-7.4609 3.57 13.86 12.99 24.36 20.07 37 10.01-2.06 17.57-14.75 28.58-10.87 2.9 0.04 3.8694-1.6391 2.9094-5.0391-1.7-61.11-26.789-117.98-35.809-177.9-13.78-24.15-20.44-56.72-48.25-68.65-11.9-7.94-27.031-3.5497-40.441-5.5297zm-6.1 9.2391c7.13 0.19 16.39 5.4497 12.4 14.08 1.68 12.26-13.43 17.811-21.18 16.991 6.22-5.79 7.2106-27.45-4.4594-17.37 2.18-6.39 6.2691-12.12 13.239-13.7zm-42.414 51.831c5.2771-0.22924-0.075 8.0166-1.6156 10.989-9.66 7.96-19.309 16.49-30.139 22.83 8.82-12.56 12.699-29.029 29.759-33.459 0.7894-0.22031 1.4494-0.33565 1.9953-0.35937zm28.734 7.2984c4.21 0.14 9.9209 5.1112 8.1109 10.031-8.09 18.31-26.13 28.579-38.5 43.589-9.37 12.82-27.55 18.26-32.6 34.42-3.02 11.78-13.541 18.66-22.581 25.63-2.65 1.71-7.6797 2.0103-8.2797-1.8297-4.28-18.3 8.8097-33.751 17.83-48.191 5.26 2.33-2.86 12.16-1.4 14 17.57-6.34 10.741-28.079 24.741-37.369 21.21-7.91 37.14-24.561 52.68-40.281zm87.1 50.99c24.8 6.73 28.38 39.48 24.02 61.35-5.22 18.06 14.24 27.969 19.33 42.109-14.35-3.13-27.641-10.909-40.791-17.239-1.99-5.34 8-4.6897 5.65-10.13-3.68-13.93 10.621-30.591-1.1188-42.141-10.33-3.01-18.071-10.85-25.341-18.43 3.96-7.08 10.55-12.83 18.25-15.52zm-46.059 70.03c23.51 5.02 6.03 33.89-11.9 30.85-7.8-10.63-1.57-28.36 11.9-30.85zm-164.25 62.644c-1.865-0.0598-3.6703 0.52906-5.3203 1.9859 0.07 17.73-19.081 23.62-25.791 37.97 6.04 9.07-3.4003 17.16-9.1203 23.1 0.28 17.77-1.5091 41.46 14.411 53.7 10.43-4.69 4.4994 15.37 15.459 16.17 8.36-3.27 2.54-17.201 7.05-20.791 10.41 8.63 17.051-5.3797 25.111-9.0797 0.79 26.52 1.3694 53.42-2.9906 79.77-1.9 10.98 14.84 8.95 20.6 8 12.95-17.57-2.1406-36.351 3.0094-56.191 1-5.2-0.3197-15.759 7.4203-15.719-3.09 19.34-5.94 42.909 9 58.109 0.4-1.27 0.7209-2.5606 1.0609-3.8406-18.6-26.19 0.76-74.02 35.75-67.03-16.1-15.76-34.17-33.25-48.45-51.9-25.57-2.03-15.01 37.29-39.25 40.65-2.48-7.62-3.3609-15.689-2.3109-23.639-6.96-7.7-16.389 11.839-20.659 1.4891-9.16-25.12 17.889-40.77 34.759-53.05-2.4619-6.9875-11.657-19.447-19.739-19.706zm94.1 113.23c-4.9386 0.16388-8.214 2.7328-2.5234 5.0297 8.67 9.2-15.739 1.14-14.619 9.55 3.09 1.07 13.15 3.8403 6.0297 7.1703-8.06 3.03-9.2597 20.229-0.03 9.9094 18.04 5.45 33.08-27.539 12.15-31.659-0.3418-0.0113-0.6785-0.0109-1.0078 0zm-203.54 4.0594c-4.11 4.89-6.6403 13.49-15.22 9.1-9.77-3.4-27.391 2.9603-23.641 15.47-6.78 0.62-14.9 0.05-10.18-7.9-6.59-3.84-12.3 10.941-6.9297 14.641 7.79-3.01 14.899-5.62 23.459-3.8 5.51-8.59 15.76-4.07 23.88-4.95 9.11-11.42 22.86 2.7794 34.3 0.80938 5.02-0.42 4.3112-10.53 10.731-7.0297 8.27 6.88 27.999 7.2503 19.819-8.5297-17.18-4.92-37.879-5.4009-56.219-7.8109zm218.91 6.0609c-1.84 4.05 2.4697 12.47 6.3297 16.68 8.19 10.97 9.2009 25.68 15.311 37.82 6.48 1.3 3.8791-9.6197 4.7891-12.88-4.87-15.41-17.68-27.95-26.43-41.62zm-16.881 23.264c-1.0356-0.0146-2.2119 0.13906-3.5282 0.49531-2.01 4.37-2.5103 13.581 4.3297 12.441 6.7988-4.5062 6.447-12.834-0.8015-12.936zm793.63 48.525c-7.1861 0.0703-15.328 3.4878-21.448 5.8109-14.54 9.4-31.82 11.53-48.62 13.23-15.25 3.77-22.709 14.15-24.659 29.5-14.6 3.35-26.73 12.671-37.87 22.291 24.34 13.87 51.621-3.6112 76.541-7.8312 7.72-0.86 16.159 2.93 23.589-0.45-0.12-7.5-9.67-12.12-8-20.53-6.88-2.02-14.14-2.0991-21.23-2.4391-1.91-5.12 8.4703-3.5603 10.77-7.2703-4.5-0.47-9.0703-0.67-13.52-1.05 14.75-3.29 29.26-7.6706 43.9-11.291-5.71-14.58 13.381-18.16 22.341-9.1297 1.18-5.71 7.6991-2.1906 11.839-2.8406-3.0319-6.0856-8.0421-8.0547-13.631-8zm-634 2.34c-9.78 1.62-17.501 8.4494-26.131 12.759-15.57 25.95-20.379 56.861-38.109 81.841 14.44-10.77 27.56-31.181 48.9-24.391 20.88 13.09 15.31 48.66-9.25 54.07-11.73 1.92 2.4697 6.6106 6.6297 3.8406 24.4-1.81 16.141-35.35 28.911-49.32 12.91-21.94 29.62-56.421 8.1-78.091-6.42 0.59-12.7-0.27938-19.05-0.70938zm151.69 31.48c0.58 1.65 1.2697 3.2706 2.0797 4.8406 4.03 4.81 8.2809 9.4297 12.961 13.63 6.14 5.94 14.579 9.7806 19.489 16.841-9.03-1.84-13.179-11.95-21.509-15.42 6.11 8.56 16.22 13.21 21.8 22.2-10.72-1.2-17.2-14.041-28.1-13.241 13.68 35.58 48 56.57 80.38 73.17-1.41-3.27-2.15-6.8206-2.4-10.341-3.18 9.24-5.77-13.659-6.4-16.059-3.5-9.17 13-1.7506 13.07-7.0906-7.91-3.23-17.92-5.9791-21.43-14.539 6.16 1.12 12.19 2.9497 18.47 3.5297 0.17-4.31-6.7712-3.6603-7.3312-7.8703 6.93 0.53 14.401 4.06 21.141 0.75 1.03-1.15 2.0494-2.31 2.9594-3.55-8.36-7.54-17.99-14.42-24.48-23.62-5.26-7.85-14.45-12.39-22.88-16.18-6.33-0.63-12.739-0.38938-18.759-2.9594-3.13 4.82 3.5188 9.6691 4.5688 14.189-7.41-2-13.659-6.8091-21.039-8.9391 2.02 4.41 5.9491 7.4997 8.4891 11.58-11-5.92-18.79-17.43-31.08-20.92zm-194.1 54.62c-7.7486 0.12542-2.7034 12.353-1.7156 17.6 4.21-0.2 12.019 4.6697 13.809-2.0703-3.51-2.1-8.5594-2.13-11.259-5.15 3.73-6.5 19.69-3.1197 18.07 5.9703 11.66-7.36-9.8303-15.68-16.07-15.98-1.0941-0.26718-2.0328-0.38329-2.8344-0.37031zm-11.525 6.3875c-3.1896-0.0752-7.6112 2.8969-10.3 6.2719 0.67 3.79 6.9188 4 8.9188 7.6 0.98-3.09 0.3606-10.009 5.1906-6.9188 0.4069-4.9919-1.3285-6.8946-3.8094-6.9531z" fill="#e67817"/>
<path id="path28" d="m3129 192.58c-13.25 13.53-20.16 34.45-18.12 53.57-0.21 39.37 6.1803 81.98 31.02 113.77-0.28-4.5 4.8203-1.68 7.2203-1.05-2.71-3.83-9.24-3.8603-11.05-8.0203 23.97 2.34 48.119 9.9597 72.159 5.2797l-0.85-0.18907c-24.58 1.54-49.239-4.08-73.559-7.6-21.22-35.81-25.471-79.261-22.591-120.09-0.17-13.66 11.58-24.42 15.77-35.67zm-342.03 308.49c-2.68 4.81-0.2512 14.579-0.6812 21.139 0.81-7.02 0.8012-14.099 0.6812-21.139zm-55.138 37.411c-3.0965 0.065-6.4293 0.82031-6.4125 1.4391 3.83 0.02 7.6688 0.04 11.519 0.05-0.4332-1.1725-2.6978-1.5396-5.1063-1.4891zm-75.872 28.645c-0.1822-0.0117-0.3853 0.002-0.6109 0.0437-11.22 8.59 4.36 23.54 13.45 12.47 4.68-8.93-11.33 3.4897-10.8-4.7703-1.2-1.7625 0.6941-7.5688-2.0391-7.7438zm94.808 1.5391c-3.2938-0.075-5.7847 0.17969-4.5297 1.2047 4.54-0.38 9.5412 1.4003 13.881-0.42969-1.96-0.295-6.0578-0.7-9.3515-0.775zm-109.34 9.3625c-0.5897 0.0359-1.2031 0.16749-1.8469 0.41249-6.48 3.76-18.21 5.3297-16.38 15.43-5.09-5.99-13.111-2.96-16.291 4.25 1.59 2.38 4.5606 10.04 0.4406 4.5797-8.2389-11.723-21.926-2.6002-20.475 9.1266-3.133-8.7683-17.976-4.4462-12.925 5.3234 1.52 12.14-4.4509 0.89031-6.9609-1.1297-14.83 1.6 0.4703 31.289 6.6203 15.489-1.83-10.21 13.25-1.4597 13.78-10.18 0.04-7.4 13.59-5.0991 9.9203-13.939-0.35-9.37 4.3003 9.1997 9.8703 3.0797 4.33-6.62 15.79-4.9203 16.02-15.02 8.42-2.8 23.229-0.98938 28.839-11.409-3.5525-1.8988-6.4848-6.2642-10.612-6.0125zm108.82 11.262c-8.66 4.58 14.07 19.74 2.85 17.85 3.89 6.78 13.14 10.849 17.82 17.239-0.64 4.37 1.08 11.17 6.7 10.48-3.72-8.08-0.7509-19.9-9.6609-24.95-7.89-4.99-12.189-14.989-17.709-20.619zm1052.4 15.583c-5.3456 0.006-10.674 0.31094-15.969 0.83594 6.58-0.47 16.449 1.9709 21.319-0.73907-1.785-0.0675-3.5681-0.0989-5.35-0.0969zm-38.544 1.0031c-5.4559 0.0111-10.903 0.2125-16.316 0.84375 8.23-0.38 19.761 1.8491 26.141-0.71093-3.2737-0.0788-6.5514-0.1395-9.825-0.13282zm-55.434 8.6156c-4.8676 0.077-10.061 0.85595-12.631 1.4578 7.31 0.07 14.649 0.11 22.009 0.05-2.0038-1.2031-5.5923-1.5677-9.3781-1.5078zm-1154.8 12.56c-1.7346-0.0937-3.7797 0.29688-6.1797 1.3016-17.86 2.44-10.52 21.16-3.9297 29.68 5.32-3.94 12.779-3.4606 17.669-7.8906 2.0925-7.9819 1.8072-22.585-7.5594-23.091zm-29.541 14.42c-9.29 4.8-18.039 11.55-23.119 20.87-0.23 8.21 4.92 25.971 15.95 20.011 11.2-9.2 25.279-32.781 7.1688-40.881zm-37.98 20.92c-5.8 3.65-11.15 8.72-14.42 14.75-3.17 12.5 8.4912 21.501 13.331 31.711 11.57-1.07 22.13-12.76 22.38-24.22-7.49-6.76-11.811-19.301-21.291-22.241zm1212.6 9.0297c1.77 10.85 18.37 22.4 26.38 9.1203-9.91-1.53-20.94-1.4903-26.38-9.1203zm51.9 5.66c6.82 9.84 20.93 14.969 27.3 25.839 2.81 19.97 14.969 37.031 28.509 51.281 4.66 5.69 12.861 21.809 21.181 12.059-8.67-12.83-14.711-27.939-21.041-42.259 5.97 7.37 14.86 12.709 17.97 22.059 0.26-0.29 0.7797-0.86 1.0297-1.15-2.32-10.52-11.51-17.18-16.97-25.87 9.88 6.48 16.161 18.16 27.091 23.92-4.25-7.83-11.191-14.219-13.411-23.059-2.18-4.79-6.7097-9.93-12.38-9.65-13.98-4.23-12.03-23.481-24.45-29.191-7.05-0.29 0.7003 13.28-5.0797 7.2703-6.3-11.35-18.72-8.9-29.75-11.25zm-1295.2 6.3391c-0.4134-0.0134-0.8363-0.009-1.2688 0.0109-25.04 7.09-16.201 48.839 6.8594 51.189 9.86-4.83 24.96-12.759 18.48-26.259-7.44-8.3216-11.256-24.527-24.07-24.941zm1223.6 13.531c-1.835 0-3.6622 0.02-5.5172 0.05 0.29 2.67 10.7 1.3488 11.08 0.0188-1.885-0.05-3.7275-0.0688-5.5625-0.0688zm-72.002 5.0078c-3.1762-0.009-6.3456 0.002-9.5156 0.0422 3.85 2.73 15.18 1.1597 19.07 0.0297-3.195-0.035-6.3784-0.0631-9.5547-0.0719zm-1180.2 14.161c-9.82 13.44-17.43 31.731-11.05 47.781 15.29 6.85 33.87-8.7809 40.55-21.511-9.24-8.66-21.1-16.79-29.5-26.27zm1406.7 13.011c4.07 7.28 11.749 12.42 16.959 18.98 6.45-4.04 11.09-10.21 17.32-14.55-11.27-2.31-23.26-1.4197-34.28-4.4297zm-778.05 7.9297c-0.38 0.05-1.1606 0.14062-1.5406 0.19062-0.6 6.59-10.589 2.93-13.909 8.3-31.97 33.81-75.411 52.559-112.94 78.989-7.47 11.77-23.31 22.881-17.17 38.741 1.92 4.65 8.5803 10.92 12.62 4.8703-2.35-2.86-9.96-12.961-2.45-11.891 9.27 6.7 17.05-1.3894 24.35-6.4094 28.76-14.42 49.86-38.831 76.08-56.881 17.76-9.89 27.181-29.99 34.011-47.75 5.24-2.08 0.2297-3.6488 0.9297-6.6688 0-0.37 0.02-1.1206 0.02-1.4906zm316.24 2.1094c3.55 12.31 14.221 22.28 17.811 34.6-11.71-8.02-18.751-27.639-33.391-31.489-0.58 5.94 21.14 15.09 6.9 17.9 8 13.21 28.81 24.76 25.58 43.78-0.01 34.9-0.2488 69.809 0.081 104.71 1.96 14.27-1.8609 30.85 9.5891 41.97 7.98 1.64 14.64 6.751 22.38 9.111 0.42-4.58 0.2703-9.65 3.0203-13.6 10.06 2.92 3.6509-10.38 3.5609-15.82-2.59-7.36-3.0303-15.261-5.2703-22.711 4.42 0.18 8.49 1.9303 12.5 3.6203-11.5-14.34-24.14-28.15-30.02-46.13 15.41 14.37 26.19 33.82 43.68 46.23 1.21 1.16 2.05-0.0903 2.6-1.1703-9.15-13.87-16.77-29.11-16.08-46.28 1.25-31.64-27.91-54.299-25.08-85.839-3.28-19.08-20.081-33.631-37.861-38.881zm-31.18 11.231c-5.91 16.84 15.7 18.24 26.23 23.4-7.32-8.97-18.84-14.3-26.23-23.4zm-500.22 1.5297c-1.57 11.22-0.5694 22.58-0.7094 33.88 3.1-8.22-0.1606-23.58 0.7094-33.88zm-7.0797 43.8c-0.1116 0.56083-0.1508 1.2032-0.1469 1.8953 0.05-0.63185 0.1039-1.2658 0.1469-1.8953zm-0.1469 1.8953c-0.3426 4.3666-0.7729 8.7809-0.4234 13.175 2.3801-2.0772 0.4487-8.721 0.4234-13.175zm117.68 55.814c-6.66 6.16-20.079 8.181-21.159 18.461 8.61-3.1 21.449-9.831 21.159-18.461zm488.4 4.5703c-0.41 5.02-0.7294 10.101 0.041 15.141 0.74-5.01 0.1894-10.151-0.041-15.141zm-494.18 26.961c-1.8112-0.004-3.6175 0.0194-5.4375 0.0594 0.26 2.63 10.91 1.319 10.9 0.039-1.835-0.065-3.6512-0.0946-5.4625-0.0984zm-24.6 15.04c-0.084 0.34904-0.1248 0.73456-0.15 1.1344 0.049-0.37864 0.095-0.75736 0.15-1.1344zm-0.15 1.1344c-0.5466 4.2399-0.7194 8.569-0.6 12.856 2.8078-2.2335 0.3401-8.7314 0.6-12.856z" fill="#979580"/>
</g>
<path id="path92" d="m2798.1 595.03c14.92-3.41 18.6 17.97 31.57 21.92 3.83-4.43 16.69-3.76 16 5.65 0.75 12.56 9.69 24.04 23.85 18.44 0.22 3.06-9.83 4.41-7.1 9.8 6.53 1.67 13.98-2.68 19.77-1.21-5.18 1.82 4.39 4.56 5.56 6.63 7.04 3.44 11.94 14.88 7.41 20.89-15.83 2.17-23.96-17.41-38.95-20.36 10.42 6.6 19.24 15.24 28.6 22.94 0.12 1.79 0.49 3.53 1.03 5.24-7.98-1.02-16.97-11.37-22.67-1.83-7.41 4.89 2.62 8.9 7.03 10.65-17.4 6.57-23.66-11.84-36.34-18.63-15.67-10.47-17.97-37.68-37.98-41.45-0.91-0.23-1.82-0.45-2.72-0.67-2.32-13.42 2.62-25.05 4.94-38.01z" fill="#674917"/>
<g>
<path id="path106" d="m2930.4 624.45c2.5 8.27 15.42 13.75 21.01 2.56 2.73 6.65 7.96 28.62-8.27 26-10.8-3.16-29.42-22.8-12.74-28.56z" fill="#79c59f"/>
<path id="path108" d="m3713.7 627.08c-7.2785 0.12569-13.397 4.9406-9.8282 14.053-14.64 3.62-29.15 8.0006-43.9 11.291 4.45 0.38 9.0203 0.58 13.52 1.05-2.3 3.71-12.68 2.1503-10.77 7.2703 7.09 0.34 14.35 0.41907 21.23 2.4391 0.95-4.01-2.4491-12 3.4609-13.15 13.22 0.36 22-12.69 27.7-22 8.97 7.86 23.05 7.22 32.4 17.35 1.49-4.24-4.1609-13.81-9.4609-16.22-4.14 0.65-10.659-2.8694-11.839 2.8406-3.36-3.3862-8.1454-4.9988-12.512-4.9234zm-364.88 77.388c-1.4524 0.0196-2.9453 0.29219-4.4984 0.91563-6.74 3.31-14.211-0.22-21.141-0.75 0.56 4.21 7.5012 3.5603 7.3312 7.8703-6.28-0.58-12.31-2.4097-18.47-3.5297 3.51 8.56 13.52 11.309 21.43 14.539-0.07 5.34-16.57-2.0794-13.07 7.0906 0.63 2.4 3.22 25.299 6.4 16.059-7.57-19.75 14.93-17.019 22.4-29.439 6.81-9.24 17.86-1.3106 26.73-0.34062 0.65-2.73-1.7588-5.1803-4.2688-5.7203-8.3531 0.48937-14.999-6.8014-22.842-6.6953zm-292.98 12.145c-2.9617 0.0688-5.6897 1.1359-6.9719 3.3703 2.7 3.02 7.7494 3.05 11.259 5.15-1.79 6.74-9.5994 1.8703-13.809 2.0703 2.65 3.36 5.3097 6.7406 8.0797 10.041 0.38-0.05 1.1606-0.14062 1.5406-0.19062 4.38-2.77 8.41-6.83 11-11.1 1.0631-5.9653-5.4444-9.472-11.098-9.3406zm300.72 0.78124c-4.66 1.19-7.8703 5.1294-10.67 8.7594 6.77-4.47 16.38-0.81062 22.33-6.3906-2.67-2.78-8.0094-2.1588-11.659-2.3688zm452.44 1.6391c5.46 8.69 14.65 15.35 16.97 25.87 8.07 10.73 7.82 33.479 23.8 35.109-1.67-9.36-6.8603-17.709-8.7703-27.039 9.56 10.84 15.19 25.44 25.03 36.03-8.29-26.24-24.87-49.039-43.35-69.109 2.22 8.84 9.1609 15.229 13.411 23.059-10.93-5.76-17.211-17.44-27.091-23.92zm-770.87 3.1359c-2.4652 0.14397-2.2053 5.1831-3.0015 7.6938 2.42 2.71 5.3606 12.901 8.7906 7.6906-5.96-2.31-3.04-9.8294-3.6-14.609-0.9056-0.57937-1.6202-0.80822-2.1891-0.775zm768.84 1.825c6.33 14.32 12.371 29.429 21.041 42.259 4.1-5.63-0.8903-14.02-3.0703-20.2-3.11-9.35-12-14.689-17.97-22.059zm-737.6 7.3c-4.77 1.63-7.5997 7.7306-13.33 7.2406-0.7 3.02 4.3103 4.5888-0.9297 6.6688 0.92 4.35 16.829-9.1194 14.259-13.909zm263.6 4.7062c-0.8493-0.0257-1.785 0.0688-2.8031 0.28437 0.97 7.02 0.09 17.399 4.1203 22.569 1.97-3.86-7.1503-20.269 4.7297-15.859-0.2925-4.5175-2.3666-6.8824-6.0469-6.9938zm546.98 34.203c-13.62 4.4 1.82 7.8303 6.1 11.92 3.08 8.24 10.851-0.87907 15.991-1.9891 1.56 3.67 7.1803 13.559 8.0203 4.8891-0.7-16.67-21.171-6.8303-30.111-14.82zm37.994 8.9016c-0.4455 0.003-0.9156 0.0259-1.4125 0.0688-3.6 3.02-4.6103 8.41-6.3203 12.75 11.082 5.3475 21.545-12.918 7.7328-12.819zm18.577 6.1094c-6.04 8.3 15.42 25.699 22.45 14.759-1.9-9.32-14.5-12.389-22.45-14.759zm-1134.5 11.897c-0.6018 0.0447-2.1928 1.431-4.7562 4.9328 0.25 0.26 0.75 0.78 1 1.05 3.4022-3.2478 4.6359-6.0481 3.7562-5.9828zm1159.4 14.13c-4.26 8.28 19.649 29.119 17.459 11.509-7.15-1.9-11.949-8.9194-17.459-11.509zm39.555 5.1375c-1.9556-0.0354-4.0063 0.25936-6.1844 0.9828-5.29 0.2-1.26 4.1 1.5 5-4.65 1.57-16.501 1.8797-10.411 9.8797 1.54 12.93 18.87-3.0303 13.32-10.07 15.51 5.36 29.221 16.09 44.791 20.5 1.36-8.41-10.02-8.6394-14.77-12.759-9.9141-3.5522-17.685-13.342-28.245-13.533zm-596 48.71c5.88 17.98 18.52 31.79 30.02 46.13-4.01-1.69-8.08-3.4403-12.5-3.6203 2.24 7.45 2.6803 15.351 5.2703 22.711-5.4-21.37 21.159-17.19 32.359-11.23-2.61-3.22-5.3703-7.0013-8.8703-8.9313-0.55 1.08-1.39 2.3303-2.6 1.1703-17.5-12.41-28.3-31.86-43.7-46.23zm-504.64 33.33c-7.63 1.53-21.919 13.061-7.2891 16.661-2.74 6.06-11.76 9.58-11.63 16.65 7.21-0.08 8.5194-12.92 17.159-12.25 10.94 0.25 10.519-19.861 1.7594-21.061zm-20.869 35.9c-3.96 1.63-8.2612 4.411-10.381 7.811 2.05 7.09 14.941 11.459 20.081 10.709-5.05-4.92-3.74-16.47-9.7-18.52zm554.55 6.8297c-5.17 20.04 18.69 28.421 28.6 42.541 3.67 4.33 12.559-1.48 5.4688-2.7-6.3-0.36 1.35-6.11-0.4-9.5-8.18-13.03-21.699-21.341-33.669-30.341zm14.9 4.011c1.48 1.53 3.1297 2.9003 4.8297 4.2203-0.47-2.4-2.4297-4.0603-4.8297-4.2203zm-580.48 4.1703c-6.64 6.69-9.6594 17.37-19.309 20.73-6.5 2.08-13.439 6.4694-13.909 13.959 6.16 0.18 13.239-2.2894 18.819-0.55936-6.88 4.02-7.6991 11.23 0.061 13.68-14.36 7.02-16.43 28.23-25 41.73 8.24 12.25 17.17-8.5194 15.35-16.459-3.89-13.14 13.96-15.491 16.55-26.511 1.3-5.91 9.0091-14.24 1.9391-18.75-4.55-2.85-6.9794-16.77 2.3906-12.55 7.54 1.33 19.649 12.561 21.809-0.46872 8.81-5.83-5.38-10.26-10-6.9703-4.84 5.77-5.69-7.9697-8.7-7.8297zm604.62 46.769c-3.27 10.5 0.1197 21.641 0.3797 32.391 1.04 4.22 8.2403-2.46 8.6203 2.75-0.63 13.74-9.5703 24.85-18.12 34.68 10.6-5.89 32.191 0.17 33.991-15.75-6.43-10.1-9.6697-23.75-22.98-26.23 16.33-2.5 8.5894-22.401-1.8906-27.841zm-610.52 2.2313c-2.7 1.26-3.55 4.5188-3.6 7.2688 2.07-0.17 4.48-7.1688 3.6-7.2688zm631.7 75.1c-9.28 2.04-18.849 1.84-28.169 3.45 7.65 12.41 20.99 8.7997 29.88-0.9703 10.72 14.01-0.62 33.96 9.15 48.3 8.63-8.48-1.6706-21.971-0.7406-32.511-1.11-7.37-0.2003-18.039-10.12-18.269z" fill="#cfcecc"/>
<path id="path112" d="m2793.1 633.04c-3.54 1.04-4.8294 5.5497-8.3094 6.4797-12.43 1.43 16.75 1.9091 11.03-5.8109-0.91-0.23-1.8203-0.44876-2.7203-0.66876zm5.1109 4.0797c-2.05 4.17-8.5206 6.3303-8.9906 10.87 5.43 0.77 9.4297-3.9606 14.73-3.7906 1.02 6.3-14.7 6.4806-8.05 12.791 11.52-3.97 18.111-16.48 2.3109-19.87z" fill="#f6e25e"/>
<path id="path138" d="m2908.8 690.84c-4.67 7.36-17.731 6.6888-17.191 16.819-1.91 13.64-14.949 24.131-12.309 38.961 1.87 3.21-0.3603 11.349-4.6203 10.439-1.32 0.89-1.9394 2.46-2.6094 3.85 0.75 6.2-8.7406 21.061-4.4906 29.591 11.05-10.57 30.53-26.91 14.45-42.62 16.68-13.33 30.73-32.68 26.7-55.32 0.01-0.43 0.05-1.2888 0.07-1.7188zm-43.77 5.7172c-0.6629-0.00058-1.7591 0.28562-3.4391 0.97187-18.26-1.67-29.731 17.591-38.631 31.411-4.43 6.36 12 0.19969 6.8703 5.8297-5.14 5.05-25.459 14.199-6.6391 12.859-1.24 5.98-12.801 11.601-15.161 19.391 3.32-1.3 6.54-2.88 9.9-4.1-5.98 10.64-15.859 19.31-17.959 31.95 4.89-1.04 7.6791-6.37 12.739-7.15-8.36 11.6-18.45 22.719-21.7 37.059 5-2.08 16.06 1.0803 9.6 6.8703-16.34 15.76-16.7 39.26-9.6 59.28 11.08-8.85 20.111-21.71 19.111-36.58-5.82-5.73-13.701-2.8097-20.191-0.37968 4.27-6.96 9.9409-13.65 15.061-20.05 6.51-5.85 10.56 7.2403 16.83 5.6703 3.3-14.57-15.09-23.45-26.93-17.85 0.1-5.6 4.8488-9.671 7.6688-14.111 4.19-8.65 20.241 1.891 20.981-9.1891 1.94-10.56-8.65-15.451-17.35-11.291 3.38-9.3 13.249-15.84 22.709-11.13 8.12-6.44-4.9706-16.041-12.741-15.191 1.19-6.43 9.97-8.4794 15.5-10.059 6.08-5.64-14.96-5.63-5.95-10.2 21.12-1.44 22.291-25.77 35.581-37.15 1.3325-1.4788 6.6118-6.86 3.7391-6.8625zm518.35 105.19c-0.82 38.8-0.3791 77.7-0.1391 116.53 1.35-38.78 1.1091-77.75 0.1391-116.53z" fill="#7a641b"/>
</g>
</g>
</svg>
