<?xml version="1.0" encoding="UTF-8" standalone="no"?>
<svg
   xmlns:dc="http://purl.org/dc/elements/1.1/"
   xmlns:cc="http://creativecommons.org/ns#"
   xmlns:rdf="http://www.w3.org/1999/02/22-rdf-syntax-ns#"
   xmlns:svg="http://www.w3.org/2000/svg"
   xmlns="http://www.w3.org/2000/svg"
   xmlns:xlink="http://www.w3.org/1999/xlink"
   xmlns:sodipodi="http://sodipodi.sourceforge.net/DTD/sodipodi-0.dtd"
   xmlns:inkscape="http://www.inkscape.org/namespaces/inkscape"
   id="svg43935"
   sodipodi:docname="can.svg"
   viewBox="0 0 332.59843 472.44094"
   sodipodi:version="0.32"
   version="1.0"
   inkscape:output_extension="org.inkscape.output.svg.inkscape"
   inkscape:version="1.0.2-2 (e86c870879, 2021-01-15)"
   width="88mm"
   height="125mm">
  <defs
     id="defs43937">
    <linearGradient
       id="linearGradient21873">
      <stop
         id="stop21875"
         style="stop-color:#d2d2d2"
         offset="0" />
      <stop
         id="stop21881"
         style="stop-color:#7d7d7d;stop-opacity:.49804"
         offset=".31337" />
      <stop
         id="stop21883"
         style="stop-color:#d6d6d6;stop-opacity:.74074"
         offset=".48515" />
      <stop
         id="stop21885"
         style="stop-color:#a7a7a7;stop-opacity:.31373"
         offset=".62049" />
      <stop
         id="stop21887"
         style="stop-color:#3c3c3c;stop-opacity:.34510"
         offset=".81024" />
      <stop
         id="stop21889"
         style="stop-color:#dedede;stop-opacity:.72222"
         offset=".85420" />
      <stop
         id="stop21877"
         style="stop-color:#7c7c7c;stop-opacity:.37963"
         offset="1" />
    </linearGradient>
    <filter
       id="filter43185"
       height="1.3673"
       width="1.4895"
       y="-0.18365"
       x="-0.24473"
       inkscape:collect="always">
      <feGaussianBlur
         id="feGaussianBlur43187"
         stdDeviation="0.3511564"
         inkscape:collect="always" />
    </filter>
    <filter
       id="filter40034"
       inkscape:collect="always">
      <feGaussianBlur
         id="feGaussianBlur40036"
         stdDeviation="1.8669463"
         inkscape:collect="always" />
    </filter>
    <filter
       id="filter35457"
       height="1.5148"
       width="1.1423"
       y="-0.25738999"
       x="-0.071144"
       inkscape:collect="always">
      <feGaussianBlur
         id="feGaussianBlur35459"
         stdDeviation="0.62974105"
         inkscape:collect="always" />
    </filter>
    <filter
       id="filter34388"
       height="1.2793"
       width="1.1227"
       y="-0.13965"
       x="-0.061347"
       inkscape:collect="always">
      <feGaussianBlur
         id="feGaussianBlur34390"
         stdDeviation="1.0501145"
         inkscape:collect="always" />
    </filter>
    <filter
       id="filter36692"
       height="1.3309"
       width="1.3516999"
       y="-0.16543999"
       x="-0.17587"
       inkscape:collect="always">
      <feGaussianBlur
         id="feGaussianBlur36694"
         stdDeviation="4.7504803"
         inkscape:collect="always" />
    </filter>
    <filter
       id="filter28813"
       height="1.1136"
       width="3.178"
       y="-0.056816999"
       x="-1.089"
       inkscape:collect="always">
      <feGaussianBlur
         id="feGaussianBlur28815"
         stdDeviation="0.25192989"
         inkscape:collect="always" />
    </filter>
    <filter
       id="filter27806"
       height="1.7185"
       width="1.1319"
       y="-0.35925001"
       x="-0.065973997"
       inkscape:collect="always">
      <feGaussianBlur
         id="feGaussianBlur27808"
         stdDeviation="1.2183359"
         inkscape:collect="always" />
    </filter>
    <linearGradient
       id="linearGradient9368">
      <stop
         id="stop9370"
         style="stop-color:#cfcfcf;stop-opacity:.72811"
         offset="0" />
      <stop
         id="stop11338"
         style="stop-color:#727272;stop-opacity:.13364"
         offset=".067797" />
      <stop
         id="stop9376"
         style="stop-color:#151515;stop-opacity:.49804"
         offset=".13559" />
      <stop
         id="stop9378"
         style="stop-color:#c7c6c6;stop-opacity:.89401"
         offset=".15645" />
      <stop
         id="stop9380"
         style="stop-color:#c1c1c5"
         offset=".19818" />
      <stop
         id="stop9382"
         style="stop-color:#151515;stop-opacity:.49804"
         offset=".22535" />
      <stop
         id="stop9384"
         style="stop-color:#646464;stop-opacity:.12903"
         offset=".50412" />
      <stop
         id="stop9386"
         style="stop-color:#777777;stop-opacity:.91244"
         offset=".65818" />
      <stop
         id="stop9388"
         style="stop-color:#7d7d7d"
         offset=".82909" />
      <stop
         id="stop9390"
         style="stop-color:#2b2b2a;stop-opacity:.51152"
         offset=".92275" />
      <stop
         id="stop9372"
         style="stop-color:#b3b3b3;stop-opacity:0"
         offset="1" />
    </linearGradient>
    <filter
       id="filter8523"
       height="1.326"
       width="3.0890999"
       y="-0.16298001"
       x="-1.0446"
       inkscape:collect="always">
      <feGaussianBlur
         id="feGaussianBlur8525"
         stdDeviation="4.9379223"
         inkscape:collect="always" />
    </filter>
    <linearGradient
       id="linearGradient2250">
      <stop
         id="stop2252"
         style="stop-color:#ffffff"
         offset="0" />
      <stop
         id="stop3243"
         style="stop-color:#055105;stop-opacity:.68664"
         offset=".015315" />
      <stop
         id="stop3241"
         style="stop-color:#0b4d0a;stop-opacity:.86175"
         offset=".13957" />
      <stop
         id="stop2264"
         style="stop-color:#007f09;stop-opacity:.77255"
         offset=".34356" />
      <stop
         id="stop3247"
         style="stop-color:#008c06;stop-opacity:.55686"
         offset=".42255" />
      <stop
         id="stop3245"
         style="stop-color:#007104;stop-opacity:.43318"
         offset=".45062" />
      <stop
         id="stop3249"
         style="stop-color:#008502;stop-opacity:.60369"
         offset=".58820" />
      <stop
         id="stop3251"
         style="stop-color:#007d18"
         offset="0.736" />
      <stop
         id="stop3253"
         style="stop-color:#007b00;stop-opacity:.40553"
         offset=".85980" />
      <stop
         id="stop2254"
         style="stop-color:#008c00"
         offset="1" />
    </linearGradient>
    <linearGradient
       id="linearGradient45385"
       y2="916.65002"
       xlink:href="#linearGradient2250"
       gradientUnits="userSpaceOnUse"
       x2="0"
       gradientTransform="matrix(0.53573224,0,0,0.48279618,206.56204,-93.124689)"
       y1="916.65002"
       x1="421.45999"
       inkscape:collect="always" />
    <linearGradient
       id="linearGradient45389"
       y2="480.92001"
       xlink:href="#linearGradient2250"
       gradientUnits="userSpaceOnUse"
       x2="578.17999"
       gradientTransform="matrix(0.51384255,0,0,0.51384255,136.46981,83.320625)"
       y1="480.92001"
       x1="134.17999"
       inkscape:collect="always" />
    <linearGradient
       id="linearGradient45391"
       y2="787.71002"
       xlink:href="#linearGradient9368"
       gradientUnits="userSpaceOnUse"
       x2="576.54999"
       y1="786.71002"
       x1="134.83"
       inkscape:collect="always" />
    <linearGradient
       id="linearGradient45393"
       y2="916.65002"
       xlink:href="#linearGradient2250"
       gradientUnits="userSpaceOnUse"
       x2="0"
       gradientTransform="matrix(1.0487,0,-0.11805,0.16864,-31.342,-1009.5)"
       y1="916.65002"
       x1="421.45999"
       inkscape:collect="always" />
    <linearGradient
       id="linearGradient45395"
       y2="877.31"
       xlink:href="#linearGradient2250"
       gradientUnits="userSpaceOnUse"
       x2="421.67999"
       gradientTransform="matrix(-1.0487,0,0.10596,0.16864,166.41,-1009.8)"
       y1="877.31"
       x1="-3.7779"
       inkscape:collect="always" />
    <linearGradient
       id="linearGradient45397"
       y2="787.71002"
       xlink:href="#linearGradient9368"
       gradientUnits="userSpaceOnUse"
       x2="576.54999"
       gradientTransform="matrix(0.86996,0,0,0.47895,76.43,-211.68)"
       y1="786.71002"
       x1="134.83"
       inkscape:collect="always" />
    <linearGradient
       id="linearGradient45399"
       y2="701.96997"
       xlink:href="#linearGradient9368"
       gradientUnits="userSpaceOnUse"
       x2="-913.07001"
       y1="722.15002"
       x1="-422.23001"
       inkscape:collect="always" />
    <linearGradient
       id="linearGradient45401"
       y2="-134.5"
       xlink:href="#linearGradient9368"
       gradientUnits="userSpaceOnUse"
       x2="-376.57001"
       gradientTransform="matrix(0.99433,0,0,1,558.06,258.49)"
       y1="-127.3"
       x1="66.819"
       inkscape:collect="always" />
    <linearGradient
       id="linearGradient45403"
       y2="29.347"
       xlink:href="#linearGradient21873"
       gradientUnits="userSpaceOnUse"
       x2="-36.986"
       gradientTransform="translate(558,159)"
       y1="-18.562"
       x1="-276.42999"
       inkscape:collect="always" />
    <linearGradient
       id="linearGradient45405"
       y2="152.23"
       xlink:href="#linearGradient9368"
       spreadMethod="reflect"
       gradientUnits="userSpaceOnUse"
       x2="-133.64999"
       y1="153.39999"
       x1="-190.85001"
       inkscape:collect="always" />
    <linearGradient
       id="linearGradient45409"
       y2="-4.2598"
       gradientUnits="userSpaceOnUse"
       x2="-181.08"
       gradientTransform="translate(558,159)"
       y1="21.509001"
       x1="-215.64"
       inkscape:collect="always">
      <stop
         id="stop22872"
         style="stop-color:#d2d2d2"
         offset="0" />
      <stop
         id="stop22874"
         style="stop-color:#7d7d7d;stop-opacity:.49804"
         offset=".31337" />
      <stop
         id="stop22876"
         style="stop-color:#d6d6d6;stop-opacity:.74074"
         offset=".48515" />
      <stop
         id="stop22878"
         style="stop-color:#a7a7a7;stop-opacity:.31373"
         offset=".67616" />
      <stop
         id="stop22880"
         style="stop-color:#6c6d6d;stop-opacity:.51152"
         offset=".81024" />
      <stop
         id="stop22882"
         style="stop-color:#dedede;stop-opacity:.27189"
         offset=".87564" />
      <stop
         id="stop23856"
         style="stop-color:#949494;stop-opacity:.087558"
         offset="1" />
      <stop
         id="stop22884"
         style="stop-color:#000000;stop-opacity:.041667"
         offset="1" />
    </linearGradient>
    <linearGradient
       id="linearGradient45413"
       y2="152.23"
       xlink:href="#linearGradient21873"
       gradientUnits="userSpaceOnUse"
       x2="-133.64999"
       y1="151.49001"
       x1="-185.27"
       inkscape:collect="always" />
    <radialGradient
       id="radialGradient45417"
       gradientUnits="userSpaceOnUse"
       cy="166.77"
       cx="-165.48"
       gradientTransform="matrix(-0.030822,0.86309,-1.2727,-0.045451,41.943,315.53)"
       r="3.2279"
       inkscape:collect="always">
      <stop
         id="stop34396"
         style="stop-color:#fefefe"
         offset="0" />
      <stop
         id="stop34404"
         style="stop-color:#7c7d81;stop-opacity:.71889"
         offset=".46610" />
      <stop
         id="stop34406"
         style="stop-color:#b9bbbb;stop-opacity:.97696"
         offset=".75" />
      <stop
         id="stop34410"
         style="stop-color:#8a8c8e;stop-opacity:.51765"
         offset=".9375" />
      <stop
         id="stop34408"
         style="stop-color:#5b5d62;stop-opacity:.058824"
         offset=".97034" />
      <stop
         id="stop34398"
         style="stop-color:#515358;stop-opacity:.51613"
         offset="1" />
    </radialGradient>
    <linearGradient
       inkscape:collect="always"
       xlink:href="#linearGradient9368"
       id="linearGradient218"
       gradientUnits="userSpaceOnUse"
       x1="-190.85001"
       y1="153.39999"
       x2="-133.64999"
       y2="152.23"
       spreadMethod="reflect" />
    <linearGradient
       inkscape:collect="always"
       xlink:href="#linearGradient9368"
       id="linearGradient220"
       gradientUnits="userSpaceOnUse"
       x1="-190.85001"
       y1="153.39999"
       x2="-133.64999"
       y2="152.23"
       spreadMethod="reflect" />
    <linearGradient
       inkscape:collect="always"
       xlink:href="#linearGradient9368"
       id="linearGradient222"
       gradientUnits="userSpaceOnUse"
       x1="-190.85001"
       y1="153.39999"
       x2="-133.64999"
       y2="152.23"
       spreadMethod="reflect" />
    <linearGradient
       inkscape:collect="always"
       xlink:href="#linearGradient2250"
       id="linearGradient219"
       gradientUnits="userSpaceOnUse"
       gradientTransform="matrix(0.53573224,0,0,0.48279618,206.56204,-93.124689)"
       x1="421.45999"
       y1="916.65002"
       x2="0"
       y2="916.65002" />
  </defs>
  <sodipodi:namedview
     id="base"
     bordercolor="#666666"
     inkscape:pageshadow="2"
     guidetolerance="10"
     pagecolor="#ffffff"
     gridtolerance="10000"
     inkscape:window-height="1017"
     inkscape:zoom="0.40910386"
     objecttolerance="10"
     borderopacity="1.0"
     inkscape:current-layer="g44989"
     inkscape:cx="163.53268"
     inkscape:cy="170.78665"
     inkscape:window-y="-8"
     inkscape:window-x="-8"
     inkscape:window-width="1920"
     inkscape:pageopacity="0.0"
     inkscape:document-units="px"
     inkscape:document-rotation="0"
     showgrid="false"
     inkscape:window-maximized="1"
     units="mm" />
  <g
     id="layer1"
     inkscape:label="Layer 1"
     inkscape:groupmode="layer"
     transform="translate(-151.43,-58.076)">
    <g
       id="g45248">
      <rect
         id="rect10661"
         style="opacity:0.85;fill-opacity:0;stroke-width:0.513843"
         height="462.45828"
         width="242.24078"
         y="65.409103"
         x="197.87297" />
      <g
         id="g45113">
        <path
           id="path9524"
           style="fill:#ffffff;fill-rule:evenodd;stroke-width:0.513843"
           d="m 230.86166,121.36347 -24.65931,29.16057 1.32572,4.27517 -2.13245,1.39765 v 309.75456 l 12.16265,17.02875 21.08296,12.16265 47.02687,12.97452 36.4931,5.67283 25.94391,-1.61861 47.84388,-12.16265 22.70157,-11.35592 12.97452,-17.02874 1.62374,-5.67283 0.81188,-312.18504 -1.99371,1.002 -19.90113,-35.05948 -19.47463,8.06219 -17.83034,4.26489 -15.23029,1.72651 -22.87627,1.35141 h -18.64735 l -41.35918,-1.61861 -17.54773,-3.96172 -15.36389,-3.20124 z"
           sodipodi:nodetypes="cccccccccccccccccccccccccc" />
        <path
           id="path5249"
           d="m 206.56204,155.4672 v 309.62611 0.88894 h 0.0822 c 6.46414,15.8058 30.2756,37.94214 112.80899,39.37576 75.33446,1.31544 110.10618,-26.06209 112.809,-39.37576 h 0.0822 c 0,0 0.14902,-3.32456 0,-0.88894 -0.82729,-0.71938 0,-206.1228 0,-309.18934 -8.72505,11.99308 -55.90093,21.17031 -112.74219,21.17031 -57.52982,0 -105.16302,-9.39818 -113.04023,-21.60708 z"
           style="fill:url(#linearGradient219);fill-rule:evenodd;stroke:#000000;stroke-width:2.2886;stroke-linecap:round;stroke-linejoin:round;stroke-opacity:0.46753"
           sodipodi:nodetypes="ccccsccccsc" />
        <path
           id="path2247"
           style="fill:url(#linearGradient45385);fill-rule:evenodd;stroke:url(#linearGradient45389);stroke-width:2.2886;stroke-linecap:round;stroke-linejoin:round;stroke-opacity:0.46753"
           d="m 206.56204,155.4672 v 309.62611 0.88894 h 0.0822 c 6.46414,15.8058 30.2756,37.94214 112.80899,39.37576 75.33446,1.31544 110.5224,-25.89253 112.809,-39.37576 h 0.0822 c 0.16443,0.0257 0,-0.88894 0,-0.88894 V 155.90397 c -8.72505,11.99308 -55.90093,21.17031 -112.74219,21.17031 -57.52982,0 -105.16302,-9.39818 -113.04023,-21.60708 z"
           sodipodi:nodetypes="ccccsccccsc" />
        <g
           id="g2205"
           transform="matrix(0.51384255,0,0,0.51384255,136.46981,83.320625)"
           style="display:inline">
          <path
             id="path7193"
             style="fill:none;stroke:#000000;stroke-width:1px"
             d="m 575.83,744.9 1.88,0.12 -2.34,-0.12" />
          <path
             id="path7349"
             d="m 134.64,746.03 c 0,0 2.06,4.45 4.65,10.33 2.67,6.03 9.08,13.38 8.82,13.52 0.94,1.04 7.7,9.54 10.69,17.04 8.04,8.41 14.33,13.24 28.6,20.66 33.81,17.58 86.9,31.47 173.67,31.47 115.82,0 168.25,-27.68 196.29,-53.54 l 8.63,-11.8 10.56,-23.52 c -18.39,30.37 -74.23,72.79 -215.48,72.79 -152.11,0 -212.93,-44.15 -226.43,-76.95 z"
             style="opacity:0.96;fill:url(#linearGradient45391);fill-rule:evenodd"
             sodipodi:nodetypes="csccssccccc" />
          <g
             id="g9363"
             transform="translate(0,-100)">
            <path
               id="path9354"
               d="m 134.54,845.74 9.24,18.77 c 6.35,7.87 15.14,15.71 26.91,23.01 34.21,21.25 93.42,39.72 190.37,39.72 126.37,0 184.36,-32.21 208.35,-61.12 l 7.15,-15.93 c -18.39,30.37 -74.25,72.78 -215.5,72.78 -152.11,0 -211.24,-42.07 -226.52,-77.23 z"
               style="opacity:0.96;fill:#b3b3b3;fill-opacity:0.66883;fill-rule:evenodd"
               sodipodi:nodetypes="ccsccccc" />
            <path
               id="path9359"
               d="m 134.71,846.47 8.69,17.27 c 6.34,7.88 15.43,19.94 27.2,27.25 1.12,0.69 2.26,1.38 3.43,2.06 34.7,20.26 93.25,35.92 187.03,35.92 126.37,0 184.36,-33.94 208.35,-62.85 l 7.15,-15.93 c -18.39,30.37 -74.25,72.78 -215.5,72.78 -152.11,0 -211.08,-41.34 -226.35,-76.5 z"
               style="opacity:0.96;fill:#b3b3b3;fill-opacity:0.66883;fill-rule:evenodd"
               sodipodi:nodetypes="ccssccccc" />
            <path
               id="path9361"
               d="m 134.19,845.4 6.23,11.94 6.39,9.04 c 24.79,30.77 86.92,62.59 217.21,62.59 126.37,0 181.4,-33.94 205.39,-62.85 l 7.15,-15.93 c -18.39,30.37 -74.25,72.78 -215.5,72.78 -152.11,0 -207.29,-35.32 -226.87,-77.57 z"
               style="opacity:0.96;fill:#b3b3b3;fill-opacity:0.66883;fill-rule:evenodd"
               sodipodi:nodetypes="cccccccc" />
          </g>
        </g>
        <g
           id="g44989">
          <path
             id="path4266"
             sodipodi:nodetypes="cccscccccssscccc"
             style="fill:#b3b3b3;fill-opacity:0.66883;fill-rule:evenodd;stroke-width:0.513843"
             d="m 208.04191,149.2754 18.25683,-21.63277 4.85067,-6.62343 c 23.34387,8.83809 50.89097,12.44526 85.64214,12.44526 34.81797,0 63.80383,-3.30914 94.89644,-14.47494 l 1.819,6.78272 18.77067,30.81 0.54467,-0.86326 -0.53953,0.9763 c -4.98941,5.07163 -15.44611,9.38791 -29.06807,12.40416 -27.81944,6.16098 -56.36853,7.85152 -84.27018,7.85152 -29.09891,0 -56.32742,-2.59491 -76.6499,-6.87522 -18.55999,-3.91034 -31.35981,-9.2543 -34.57132,-14.71131 l -0.57037,-1.3771 -0.67313,-1.64429 z" />
          <g
             id="g7337"
             transform="matrix(0.5096907,0,0,0.52458186,287.08631,582.60396)"
             style="display:inline">
            <path
               id="path4396"
               sodipodi:nodetypes="ccccscccsc"
               style="fill:url(#linearGradient45393);fill-rule:evenodd"
               d="m -109.98,-880.13 -9.54,13.33 -35.53,40.69 -2.8,5.55 c 0.89,1.61 -0.07,3.54 1.24,5.7 13.1,21.53 100.14,36.21 124.19,37.19 -0.004,0 55.805,4.83 79.021,4.09 l 0.087,-82.43 c -38.843,-0.57 -79.373,-3.14 -109.19,-9.08 -27.644,-5.5 -42.948,-13.48 -47.478,-15.04 z" />
            <path
               id="path4409"
               sodipodi:nodetypes="ccczccccc"
               style="fill:url(#linearGradient45395);fill-rule:evenodd"
               d="m 244.87,-883.42 c -59.19,26.14 -105.7,26.8 -198.25,27.5 l 0.004,82.43 c 0,0 36.269,2.59 122.1,-5.21 85.78,-7.8 108.82,-25.29 118.01,-34.72 l -3.65,-6.31 -1.94,-3.14 -27.34,-43.24 -8.93,-17.31 z" />
          </g>
          <path
             id="path8529"
             sodipodi:nodetypes="csssc"
             style="opacity:0.4153;fill:#ffffff;fill-rule:evenodd;filter:url(#filter8523)"
             transform="matrix(-0.60725913,0,0,-0.57581196,531.09986,233.05229)"
             d="m 350.68,137.76 c 0,20.07 -2.54,36.36 -5.68,36.36 -3.13,0 -8.68,8.6 -20.56,-38.17 -13.72,-53.983 17.43,-34.54 20.56,-34.54 3.14,0 5.68,16.28 5.68,36.35 z" />
          <g
             id="g44872"
             transform="matrix(0.5869217,0,0,0.5869217,91.956891,46.712772)"
             style="display:inline">
            <path
               id="path43533"
               style="fill:#ffffff;fill-rule:evenodd;stroke:#000000;stroke-width:0.6455px"
               d="m 577.39,145.08 1.63,0.06 -2.04,-0.06" />
            <path
               id="path43535"
               sodipodi:nodetypes="csccssccccc"
               style="opacity:0.96;fill:#ffffff;fill-rule:evenodd"
               d="m 193.56,145.63 c 0,0 1.79,2.13 4.05,4.94 2.32,2.89 7.89,6.41 7.67,6.48 0.82,0.5 6.7,4.57 9.3,8.16 7,4.03 12.47,6.34 24.88,9.9 29.42,8.41 75.6,15.07 151.09,15.07 100.76,0 146.37,-13.26 170.76,-25.64 l 7.51,-5.66 9.19,-11.26 c -16,14.54 -64.58,34.86 -187.46,34.86 -132.33,0 -185.24,-21.15 -196.99,-36.85 z" />
            <path
               id="path43537"
               sodipodi:nodetypes="ccsccccc"
               style="opacity:0.96;fill:#ffffff;fill-opacity:0.66883;fill-rule:evenodd"
               d="m 193.48,145.49 8.04,8.99 c 5.52,3.77 13.17,7.52 23.4,11.02 29.77,10.17 81.27,19.02 165.62,19.02 109.94,0 160.38,-15.43 181.25,-29.27 l 6.23,-7.63 c -16,14.54 -64.6,34.86 -187.48,34.86 -132.33,0 -183.77,-20.15 -197.06,-36.99 z" />
            <path
               id="path43539"
               sodipodi:nodetypes="ccssccccc"
               style="opacity:0.96;fill:#ffffff;fill-opacity:0.66883;fill-rule:evenodd"
               d="m 193.62,145.84 7.56,8.27 c 5.52,3.77 13.43,9.55 23.67,13.05 0.97,0.33 1.96,0.66 2.98,0.99 30.19,9.7 81.13,17.2 162.71,17.2 109.94,0 160.38,-16.26 181.25,-30.1 l 6.23,-7.63 c -16,14.54 -64.6,34.86 -187.48,34.86 -132.33,0 -183.63,-19.81 -196.92,-36.64 z" />
            <path
               id="path43541"
               sodipodi:nodetypes="cccccccc"
               style="opacity:0.96;fill:#ffffff;fill-opacity:0.66883;fill-rule:evenodd"
               d="m 193.17,145.32 5.42,5.72 5.56,4.33 c 21.57,14.74 75.62,29.98 188.96,29.98 109.94,0 157.81,-16.26 178.68,-30.1 l 6.23,-7.63 c -16,14.54 -64.6,34.86 -187.48,34.86 -132.33,0 -180.33,-16.92 -197.37,-37.16 z" />
            <ellipse
               id="path43543"
               style="opacity:0.96;fill:#ffffff;fill-opacity:0.66883;fill-rule:evenodd"
               transform="matrix(0.88156,0,0,0.34561,1001,-103.92)"
               cx="-696.29999"
               cy="722.146"
               rx="216.76529"
               ry="106.43331" />
            <ellipse
               id="path43545"
               style="opacity:0.96;fill:#ffffff;fill-opacity:0.66883;fill-rule:evenodd"
               transform="matrix(0.83748,0,0,0.32339,970.31,-88.392)"
               cx="-696.29999"
               cy="722.146"
               rx="216.76529"
               ry="106.43331" />
            <ellipse
               id="path43547"
               style="opacity:0.96;fill:#ffffff;fill-opacity:0.66883;fill-rule:evenodd"
               transform="matrix(0.71187,0,0,0.26876,883.3,-43.754)"
               cx="-696.29999"
               cy="722.146"
               rx="233.18085"
               ry="106.43331" />
            <path
               id="path43549"
               style="opacity:0.96;fill:#ffffff;fill-opacity:0.51634;fill-rule:evenodd"
               d="m 388.31,107.8 c -104.23,0 -188.83,17.23 -188.83,38.46 0,12.17 27.85,23.05 71.24,30.1 -37.6,-7.14 -61.41,-17.64 -61.41,-29.31 0,-21.47 80.43,-38.87 179.53,-38.87 99.1,0 179.54,17.4 179.54,38.87 0,10.95 -20.94,20.87 -54.57,27.94 38.83,-7.04 63.34,-17.32 63.34,-28.73 0,-21.23 -84.61,-38.46 -188.84,-38.46 z" />
            <path
               id="path43551"
               style="opacity:0.96;fill:#ffffff;fill-opacity:0.6732;fill-rule:evenodd"
               d="m 386.25,105.74 c -104.23,0 -188.84,17.23 -188.84,38.45 0,12.18 27.86,23.05 71.24,30.1 -37.59,-7.13 -61.4,-17.63 -61.4,-29.3 0,-21.47 80.43,-38.87 179.53,-38.87 99.1,0 179.53,17.4 179.53,38.87 0,10.94 -20.93,20.87 -54.56,27.94 38.83,-7.04 63.34,-17.32 63.34,-28.74 0,-21.22 -84.61,-38.45 -188.84,-38.45 z" />
            <path
               id="path43555"
               style="opacity:0.96;fill:#ffffff;fill-opacity:0.66883;fill-rule:evenodd"
               d="m 388.19,110.2 c -99.64,0 -180.51,15.41 -180.51,34.41 0,2.59 1.53,5.13 4.38,7.56 0.04,0 0.07,0.01 0.1,0 -0.5,-0.86 -0.78,-1.74 -0.78,-2.62 0,-15.65 79.46,-28.35 177.37,-28.35 97.9,0 177.36,12.7 177.36,28.35 0,0.35 -0.05,0.71 -0.13,1.06 1.8,-1.95 2.74,-3.96 2.74,-6 0,-19 -80.89,-34.41 -180.53,-34.41 z" />
            <path
               id="path43557"
               style="opacity:0.96;fill:#ffffff;fill-opacity:0.66883;fill-rule:evenodd"
               d="m 388.19,110.2 c -99.64,0 -180.51,15.41 -180.51,34.41 0,2.59 1.53,5.13 4.38,7.56 0.04,0 0.07,0.01 0.1,0 -0.5,-0.86 -0.78,-1.74 -0.78,-2.62 0,-15.65 79.46,-28.35 177.37,-28.35 97.9,0 177.36,12.7 177.36,28.35 0,0.35 -0.05,0.71 -0.13,1.06 1.8,-1.95 2.74,-3.96 2.74,-6 0,-19 -80.89,-34.41 -180.53,-34.41 z" />
            <ellipse
               id="path43559"
               style="opacity:0.96;fill:#ffffff;fill-opacity:0.66883;fill-rule:evenodd"
               transform="matrix(0.69351,0,0,0.26257,871.5,-39.283)"
               cx="-696.29999"
               cy="722.146"
               rx="233.18085"
               ry="106.43331" />
            <path
               id="path43561"
               sodipodi:nodetypes="cssccsssscscsscsccsccsscssssssscsssccsc"
               style="opacity:0.85;fill:#ffffff;fill-rule:evenodd"
               d="m 384.47,126.28 c -12.9,0.03 -25.68,0.47 -36.19,1.31 -10.26,0.83 -18.07,1.9 -22.56,3.85 -0.11,0.04 -0.27,0.07 -0.38,0.12 v 0.03 c -3.51,1.04 -8.07,3.36 -13.4,6.47 -5.5,3.21 -11.67,7.19 -17.5,11.22 -5.83,4.03 -11.32,8.1 -15.53,11.5 -2.11,1.7 -3.92,3.23 -5.29,4.53 -1.36,1.31 -3.1,3.99 -3.1,3.99 3.22,1.72 93.99,9.97 113.02,9.84 16.67,-0.11 85.24,-1.52 118.55,-9.1 0,0 -3.14,-6.26 -7.81,-9.76 -4.67,-3.5 -10.46,-7.57 -16.47,-11.56 -12.01,-7.98 -24.56,-15.57 -31.65,-17.75 -5.11,-1.74 -13.84,-2.79 -24.82,-3.56 -10.97,-0.78 -23.97,-1.16 -36.87,-1.13 z m 0.03,4.75 c 12.8,-0.03 25.71,0.36 36.53,1.13 10.82,0.76 19.67,1.97 23.69,3.34 l 0.06,0.03 c 5.48,1.69 18.53,9.28 30.41,17.16 5.93,3.94 11.64,7.98 16.22,11.4 2.68,2.01 5.08,5.13 5.93,6.88 -5.77,0.92 -11.7,1.91 -18.2,2.67 -8.57,1 -18.15,2.28 -27.8,2.98 -9.64,0.71 -19.75,1.08 -30.25,1.45 -10.49,0.37 -21.33,0.46 -32.47,0.46 -11.13,0 -22,-0.61 -32.5,-0.99 -10.49,-0.37 -20.7,-1.37 -30.35,-2.07 -9.64,-0.71 -19.13,-1.67 -27.69,-2.67 -7.52,-0.88 -15.84,-1.37 -22.37,-2.44 1.16,-1.49 4.41,-4.47 6.17,-5.89 4.08,-3.29 9.53,-7.31 15.28,-11.28 5.75,-3.98 11.8,-7.91 17.15,-11.03 5.35,-3.13 10.1,-5.45 12.66,-6.16 0.13,-0.03 0.25,-0.07 0.37,-0.12 2.8,-1.29 11.02,-2.7 21.35,-3.54 10.33,-0.83 23.01,-1.28 35.81,-1.31 z" />
            <path
               id="path43372"
               style="fill:none;stroke:#000000;stroke-width:0.6455px"
               d="m 577.39,145.08 1.63,0.06 -2.04,-0.06" />
            <path
               id="path43374"
               d="m 193.56,145.63 c 0,0 1.79,2.13 4.05,4.94 2.32,2.89 7.89,6.41 7.67,6.48 0.82,0.5 6.7,4.57 9.3,8.16 7,4.03 12.47,6.34 24.88,9.9 29.42,8.41 75.6,15.07 151.09,15.07 100.76,0 146.37,-13.26 170.76,-25.64 l 7.51,-5.66 9.19,-11.26 c -16,14.54 -64.58,34.86 -187.46,34.86 -132.33,0 -185.24,-21.15 -196.99,-36.85 z"
               style="opacity:0.96;fill:url(#linearGradient45397);fill-rule:evenodd"
               sodipodi:nodetypes="csccssccccc" />
            <path
               id="path43376"
               d="m 193.48,145.49 8.04,8.99 c 5.52,3.77 13.17,7.52 23.4,11.02 29.77,10.17 81.27,19.02 165.62,19.02 109.94,0 160.38,-15.43 181.25,-29.27 l 6.23,-7.63 c -16,14.54 -64.6,34.86 -187.48,34.86 -132.33,0 -183.77,-20.15 -197.06,-36.99 z"
               style="opacity:0.96;fill:#b3b3b3;fill-opacity:0.66883;fill-rule:evenodd"
               sodipodi:nodetypes="ccsccccc" />
            <path
               id="path43378"
               style="opacity:0.96;fill:#b3b3b3;fill-opacity:0.66883;fill-rule:evenodd"
               d="m 193.62,145.84 7.56,8.27 c 5.52,3.77 13.43,9.55 23.67,13.05 0.97,0.33 1.96,0.66 2.98,0.99 30.19,9.7 81.13,17.2 162.71,17.2 109.94,0 160.38,-16.26 181.25,-30.1 l 6.23,-7.63 c -16,14.54 -64.6,34.86 -187.48,34.86 -132.33,0 -183.63,-19.81 -196.92,-36.64 z"
               sodipodi:nodetypes="ccssccccc" />
            <path
               id="path43380"
               d="m 193.17,145.32 5.42,5.72 5.56,4.33 c 21.57,14.74 75.62,29.98 188.96,29.98 109.94,0 157.81,-16.26 178.68,-30.1 l 6.23,-7.63 c -16,14.54 -64.6,34.86 -187.48,34.86 -132.33,0 -180.33,-16.92 -197.37,-37.16 z"
               style="opacity:0.96;fill:#b3b3b3;fill-opacity:0.66883;fill-rule:evenodd"
               sodipodi:nodetypes="cccccccc" />
            <ellipse
               id="path43382"
               style="opacity:0.96;fill:#808080;fill-opacity:0.66883;fill-rule:evenodd"
               transform="matrix(0.88156,0,0,0.34561,1001,-103.92)"
               cx="-696.29999"
               cy="722.146"
               rx="216.76529"
               ry="106.43331" />
            <ellipse
               id="path43384"
               style="opacity:0.96;fill:url(#linearGradient45399);fill-opacity:0.66883;fill-rule:evenodd"
               transform="matrix(0.83748,0,0,0.32339,970.31,-88.392)"
               cx="-696.29999"
               cy="722.146"
               rx="216.76529"
               ry="106.43331" />
            <ellipse
               id="path43386"
               style="opacity:0.96;fill:#ffffff;fill-opacity:0.66883;fill-rule:evenodd"
               transform="matrix(0.71187,0,0,0.26876,883.3,-43.754)"
               cx="-696.29999"
               cy="722.146"
               rx="233.18085"
               ry="106.43331" />
            <path
               id="path43388"
               style="opacity:0.96;fill:#f2f2f2;fill-opacity:0.51634;fill-rule:evenodd"
               d="m 388.31,107.8 c -104.23,0 -188.83,17.23 -188.83,38.46 0,12.17 27.85,23.05 71.24,30.1 -37.6,-7.14 -61.41,-17.64 -61.41,-29.31 0,-21.47 80.43,-38.87 179.53,-38.87 99.1,0 179.54,17.4 179.54,38.87 0,10.95 -20.94,20.87 -54.57,27.94 38.83,-7.04 63.34,-17.32 63.34,-28.73 0,-21.23 -84.61,-38.46 -188.84,-38.46 z" />
            <path
               id="path43390"
               style="opacity:0.96;fill:#f2f2f2;fill-opacity:0.6732;fill-rule:evenodd"
               d="m 386.25,105.74 c -104.23,0 -188.84,17.23 -188.84,38.45 0,12.18 27.86,23.05 71.24,30.1 -37.59,-7.13 -61.4,-17.63 -61.4,-29.3 0,-21.47 80.43,-38.87 179.53,-38.87 99.1,0 179.53,17.4 179.53,38.87 0,10.94 -20.93,20.87 -54.56,27.94 38.83,-7.04 63.34,-17.32 63.34,-28.74 0,-21.22 -84.61,-38.45 -188.84,-38.45 z" />
            <path
               id="path43394"
               style="opacity:0.96;fill:#ffffff;fill-opacity:0.66883;fill-rule:evenodd"
               d="m 388.19,110.2 c -99.64,0 -180.51,15.41 -180.51,34.41 0,2.59 1.53,5.13 4.38,7.56 0.04,0 0.07,0.01 0.1,0 -0.5,-0.86 -0.78,-1.74 -0.78,-2.62 0,-15.65 79.46,-28.35 177.37,-28.35 97.9,0 177.36,12.7 177.36,28.35 0,0.35 -0.05,0.71 -0.13,1.06 1.8,-1.95 2.74,-3.96 2.74,-6 0,-19 -80.89,-34.41 -180.53,-34.41 z" />
            <path
               id="path43396"
               style="opacity:0.96;fill:url(#linearGradient45401);fill-opacity:0.66883;fill-rule:evenodd"
               d="m 388.19,110.2 c -99.64,0 -180.51,15.41 -180.51,34.41 0,2.59 1.53,5.13 4.38,7.56 0.04,0 0.07,0.01 0.1,0 -0.5,-0.86 -0.78,-1.74 -0.78,-2.62 0,-15.65 79.46,-28.35 177.37,-28.35 97.9,0 177.36,12.7 177.36,28.35 0,0.35 -0.05,0.71 -0.13,1.06 1.8,-1.95 2.74,-3.96 2.74,-6 0,-19 -80.89,-34.41 -180.53,-34.41 z" />
            <ellipse
               id="path43398"
               style="opacity:0.96;fill:#b3b3b3;fill-opacity:0.66883;fill-rule:evenodd"
               transform="matrix(0.69351,0,0,0.26257,871.5,-39.283)"
               cx="-696.29999"
               cy="722.146"
               rx="233.18085"
               ry="106.43331" />
            <path
               id="path43400"
               style="opacity:0.85;fill:url(#linearGradient45403);fill-rule:evenodd"
               d="m 384.47,126.28 c -12.9,0.03 -25.68,0.47 -36.19,1.31 -10.26,0.83 -18.07,1.9 -22.56,3.85 -0.11,0.04 -0.27,0.07 -0.38,0.12 v 0.03 c -3.51,1.04 -8.07,3.36 -13.4,6.47 -5.5,3.21 -11.67,7.19 -17.5,11.22 -5.83,4.03 -11.32,8.1 -15.53,11.5 -2.11,1.7 -3.92,3.23 -5.29,4.53 -1.36,1.31 -3.1,3.99 -3.1,3.99 3.22,1.72 93.99,9.97 113.02,9.84 16.67,-0.11 85.24,-1.52 118.55,-9.1 0,0 -3.14,-6.26 -7.81,-9.76 -4.67,-3.5 -10.46,-7.57 -16.47,-11.56 -12.01,-7.98 -24.56,-15.57 -31.65,-17.75 -5.11,-1.74 -13.84,-2.79 -24.82,-3.56 -10.97,-0.78 -23.97,-1.16 -36.87,-1.13 z m 0.03,4.75 c 12.8,-0.03 25.71,0.36 36.53,1.13 10.82,0.76 19.67,1.97 23.69,3.34 l 0.06,0.03 c 5.48,1.69 18.53,9.28 30.41,17.16 5.93,3.94 11.64,7.98 16.22,11.4 2.68,2.01 5.08,5.13 5.93,6.88 -5.77,0.92 -11.7,1.91 -18.2,2.67 -8.57,1 -18.15,2.28 -27.8,2.98 -9.64,0.71 -19.75,1.08 -30.25,1.45 -10.49,0.37 -21.33,0.46 -32.47,0.46 -11.13,0 -22,-0.61 -32.5,-0.99 -10.49,-0.37 -20.7,-1.37 -30.35,-2.07 -9.64,-0.71 -19.13,-1.67 -27.69,-2.67 -7.52,-0.88 -15.84,-1.37 -22.37,-2.44 1.16,-1.49 4.41,-4.47 6.17,-5.89 4.08,-3.29 9.53,-7.31 15.28,-11.28 5.75,-3.98 11.8,-7.91 17.15,-11.03 5.35,-3.13 10.1,-5.45 12.66,-6.16 0.13,-0.03 0.25,-0.07 0.37,-0.12 2.8,-1.29 11.02,-2.7 21.35,-3.54 10.33,-0.83 23.01,-1.28 35.81,-1.31 z"
               sodipodi:nodetypes="cssccsssscscsscsccsccsscssssssscsssccsc" />
            <g
               id="g44784">
              <path
                 id="path43563"
                 style="opacity:0.85;fill:#ffffff;fill-opacity:0.84967;fill-rule:evenodd"
                 d="m 347.66,177.63 c 0,0 0.03,-4.13 0.03,-4.13 0,-11.37 17.15,-20.6 38.26,-20.6 21.11,0 38.24,9.23 38.24,20.6 l 0.09,4.46 c 0,0 -24.96,0.67 -37.88,0.67 -14.2,0 -38.74,-1 -38.74,-1 z"
                 sodipodi:nodetypes="cssscsc" />
              <path
                 id="path43565"
                 style="fill:#ffffff;fill-rule:evenodd"
                 d="m 389.98,154.67 c 9.7,3.79 11.19,20.82 4.68,23.4 l -44.42,-0.37 c -2.68,-10.14 0.4,-12.8 10.11,-19.68 1.51,-1.45 13.02,-4.18 13.02,-4.18 0,0 11.83,-1.04 16.61,0.83 z"
                 sodipodi:nodetypes="cccccc" />
              <path
                 id="path43567"
                 style="fill:#ffffff;fill-opacity:0.82468;fill-rule:evenodd"
                 d="m 374.39,153.89 7.94,3.21 5.03,5.04 5.26,2.15 3.49,6.02 c 0,0 0.97,3.27 1.47,3.93 0.64,0.87 1.2,-2.37 1.25,-3.95 0.11,-3.65 -1.93,-9.11 -1.93,-9.11 2.64,2.24 -2.52,-3.32 -3.86,-5.04 l -6.32,-3.22 -7.18,0.33 z"
                 sodipodi:nodetypes="cccccscccccc" />
              <path
                 id="path43569"
                 style="fill:#ffffff;fill-opacity:0.45455;fill-rule:evenodd;filter:url(#filter27806)"
                 d="m 355.1,161.43 c 0,0 -4.34,5.21 -3.25,7.36 2.59,0.07 7.37,0.18 7.37,0.18 l 5.57,-2.42 c 0,0 4.78,1.72 7.44,1.78 4.59,0.1 6.52,-0.29 9.23,-0.23 1.37,0.03 13.24,1.44 14.15,1.47 1.62,0.03 -2.53,-2.82 -0.91,-2.75 0,0 -1.88,-2.52 -1.88,-2.48 l -3.65,-1.44 -0.19,3.16 -2.79,1.22 -7.36,-4 -4.08,-0.65 -1.04,4.6 -11.04,-4.18 z"
                 sodipodi:nodetypes="ccssssccccccccccc" />
              <path
                 id="path43571"
                 style="opacity:0.85;fill:#ffffff;fill-opacity:0.61688;fill-rule:evenodd;filter:url(#filter28813)"
                 transform="matrix(-1.9734,1.1474,-1.2312,-1.8392,4.6295,390.08)"
                 d="m -190.08,3.0284 c 0,0.6253 -0.11,0.9135 -0.12,1.471 -0.01,0.6647 1.36,1.9484 1.34,2.4616 -0.06,1.0782 -1.71,1.3481 -1.79,1.3481 -0.09,0 -0.09,-1.7363 -0.14,-2.8142 -0.02,-0.5133 0.15,-0.7075 0.14,-1.3723 -0.01,-0.5575 0.26,-0.6649 0.26,-1.2901 0,-0.6253 0.58,-2.0524 0.59,-2.6099 0.01,-0.6647 -0.62,-1.1643 -0.6,-1.6776 0.05,-1.0781 -0.45,-0.4246 -0.37,-0.4246 0.08,0 0.76,0.7102 0.81,1.7881 0.03,0.51335 -0.9,0.89323 -0.88,1.5581 0.01,0.5575 0.46,0.6712 0.46,1.2964 l -0.05,0.0853" />
              <path
                 id="path43573"
                 style="opacity:0.85;fill:#ffffff;fill-opacity:0.61688;fill-rule:evenodd;filter:url(#filter28813)"
                 transform="matrix(1.9734,-1.1474,1.2312,1.8392,738.14,-55.718)"
                 d="m -189.9,2.5574 c 0,0.6252 -0.47,0.6484 -0.48,1.2058 -0.01,0.6648 -0.11,2.1327 -0.13,2.6459 -0.05,1.0782 2.34,3.6229 2.26,3.6229 -0.08,0 -2.25,-2.3659 -2.31,-3.4438 -0.02,-0.5133 -0.23,-1.1068 -0.24,-1.7717 -0.01,-0.5575 -0.15,-1.4209 -0.15,-2.0461 0,-0.6253 -0.57,-2.7154 -0.56,-3.2729 0.01,-0.6647 0.02,0.80965 0.04,0.29641 0.05,-1.0781 1.24,-1.4398 1.33,-1.4398 0.08,0 -0.23,0.198 -0.18,1.2759 0.02,0.51335 -0.2,0.56704 -0.19,1.2319 0.01,0.5575 0.46,1.7046 0.46,2.3299 0,0 0.31,0.4002 0.31,0.4002" />
              <g
                 id="g43577"
                 style="fill:#ffffff;filter:url(#filter36692)"
                 transform="matrix(0.7836,0.011108,-0.272,0.64522,563.75,39.508)">
                <path
                   id="path43579"
                   sodipodi:nodetypes="ccccc"
                   style="opacity:0.85;fill:#ffffff;fill-rule:evenodd;stroke:url(#linearGradient218);stroke-width:4.7538;stroke-linecap:round;stroke-linejoin:round"
                   d="m -189.8,124.54 c 14.45,-6.65 36.38,-7 49.49,-0.06 13.22,4.07 -1.41,42.22 0.87,46.76 5.1,16.23 -52.98,16.27 -49.8,1.14 2.24,-5.38 -13.09,-44.37 -0.56,-47.84 z" />
                <ellipse
                   id="path43581"
                   style="opacity:0.85;fill:#ffffff;fill-opacity:0.61688;fill-rule:evenodd"
                   cx="-164.47691"
                   cy="137.46851"
                   rx="20.541275"
                   ry="9.023488" />
                <path
                   id="path43583"
                   style="opacity:0.85;fill:#ffffff;fill-opacity:0.61688;fill-rule:evenodd"
                   d="m -164.34,158.53 c -6.6,0 -11.97,3.14 -11.97,7.03 0,0.7 0.18,1.37 0.5,2 1.47,-2.91 6.05,-5.03 11.47,-5.03 5.41,0 9.97,2.12 11.43,5.03 0.32,-0.63 0.5,-1.3 0.5,-2 0,-3.89 -5.33,-7.03 -11.93,-7.03 z" />
                <circle
                   id="path43585"
                   style="opacity:0.85;fill:#ffffff;fill-opacity:0.61688;fill-rule:evenodd"
                   transform="matrix(1,0,0,0.6087,-0.29345,63.016)"
                   cx="-164.03674"
                   cy="169.52756"
                   r="3.3746378" />
                <ellipse
                   id="path43587"
                   style="opacity:0.85;fill:#ffffff;fill-opacity:0.71429;fill-rule:evenodd;filter:url(#filter34388)"
                   transform="matrix(0.729,0,0,0.729,-44.573,37.254)"
                   cx="-164.47691"
                   cy="137.46851"
                   rx="20.541275"
                   ry="9.023488" />
                <ellipse
                   id="path43589"
                   style="opacity:0.85;fill:#ffffff;fill-rule:evenodd"
                   cx="-164.3302"
                   cy="166.29964"
                   rx="3.2279146"
                   ry="1.9074041" />
                <path
                   id="path43591"
                   style="opacity:0.85;fill:#ffffff;fill-opacity:0.61688;fill-rule:evenodd"
                   d="m -164.34,158.53 c -6.6,0 -11.97,3.14 -11.97,7.03 0,0.7 0.18,1.37 0.5,2 1.47,-2.91 6.05,-5.03 11.47,-5.03 5.41,0 9.97,2.12 11.43,5.03 0.32,-0.63 0.5,-1.3 0.5,-2 0,-3.89 -5.33,-7.03 -11.93,-7.03 z" />
                <path
                   id="path43593"
                   sodipodi:nodetypes="csssssssssssssssssssssssssssssssc"
                   style="fill:#ffffff;fill-opacity:0.66883;fill-rule:evenodd;filter:url(#filter35457)"
                   d="m -165.58,159.5 h -1.77 c -0.6,0 -1.02,0.07 -1.55,0.2 -0.74,0.19 -0.74,0.83 -1.56,0.83 -0.16,0 -0.85,0.69 -1.04,0.83 -0.37,0.29 -0.91,0.19 -1.24,0.52 -0.42,0.42 -0.88,0.24 -1.25,0.73 -0.3,0.41 -0.89,0.98 -1.03,1.56 -0.18,0.71 -0.68,1.93 -0.32,1.45 0.22,-0.29 1.9,-1.79 2.29,-2.08 0.35,-0.26 1.27,-0.52 1.66,-0.62 0.49,-0.12 0.97,-0.54 1.35,-0.73 0.48,-0.24 0.77,-0.27 1.34,-0.41 0.61,-0.15 1.06,-0.1 1.77,-0.1 h 1.66 c 0.49,0 1.01,-0.11 1.55,-0.11 0.72,0 1.39,-0.17 2.08,0 0.61,0.15 1.27,0.19 1.76,0.31 0.52,0.13 0.86,0.31 1.66,0.31 0.62,0 1.01,0.5 1.35,0.83 0.32,0.32 0.58,0.45 0.94,0.63 0.56,0.28 0.75,0.13 1.14,0.52 0.31,0.31 0.56,0.46 0.83,0.72 0.29,0.29 0.93,1.8 0.93,0.83 0,-0.73 -0.53,-1.98 -1.04,-2.49 -0.42,-0.42 -0.64,-0.62 -1.03,-1.14 -0.34,-0.44 -1,-0.29 -1.46,-0.52 -0.5,-0.25 -0.92,-0.59 -1.24,-0.83 -0.48,-0.35 -0.67,-0.52 -1.35,-0.52 -0.75,0 -0.96,-0.11 -1.56,-0.41 -0.57,-0.29 -0.88,-0.42 -1.55,-0.42 h -1.66 c -0.59,0 -0.96,0.11 -1.66,0.11 z" />
              </g>
              <g
                 id="g43595"
                 style="fill:#ffffff;filter:url(#filter40034)"
                 transform="matrix(0.79382,0.011253,-0.30108,0.71423,566.68,29.141)">
                <path
                   id="path43597"
                   d="m -189.8,124.54 c 14.45,-6.65 36.38,-7 49.49,-0.06 13.22,4.07 -1.41,42.22 0.87,46.76 5.1,16.23 -52.98,16.27 -49.8,1.14 2.24,-5.38 -13.09,-44.37 -0.56,-47.84 z"
                   style="opacity:0.85;fill:#ffffff;fill-rule:evenodd"
                   sodipodi:nodetypes="ccccc" />
                <ellipse
                   id="path43599"
                   style="opacity:0.85;fill:#ffffff;fill-rule:evenodd"
                   cx="-164.47691"
                   cy="137.46851"
                   rx="20.541275"
                   ry="9.023488" />
                <path
                   id="path43601"
                   style="opacity:0.85;fill:#ffffff;fill-rule:evenodd"
                   d="m -164.34,158.53 c -6.6,0 -11.97,3.14 -11.97,7.03 0,0.7 0.18,1.37 0.5,2 1.47,-2.91 6.05,-5.03 11.47,-5.03 5.41,0 9.97,2.12 11.43,5.03 0.32,-0.63 0.5,-1.3 0.5,-2 0,-3.89 -5.33,-7.03 -11.93,-7.03 z" />
                <circle
                   id="path43603"
                   style="opacity:0.85;fill:#ffffff;fill-rule:evenodd"
                   transform="matrix(1,0,0,0.6087,-0.29345,63.016)"
                   cx="-164.03674"
                   cy="169.52756"
                   r="3.3746378" />
                <ellipse
                   id="path43605"
                   style="opacity:0.85;fill:#ffffff;fill-rule:evenodd;filter:url(#filter34388)"
                   transform="matrix(0.729,0,0,0.729,-44.573,37.254)"
                   cx="-164.47691"
                   cy="137.46851"
                   rx="20.541275"
                   ry="9.023488" />
                <ellipse
                   id="path43607"
                   style="opacity:0.85;fill:#ffffff;fill-rule:evenodd"
                   cx="-164.3302"
                   cy="166.29964"
                   rx="3.2279146"
                   ry="1.9074041" />
                <path
                   id="path43609"
                   style="opacity:0.85;fill:#ffffff;fill-rule:evenodd"
                   d="m -164.34,158.53 c -6.6,0 -11.97,3.14 -11.97,7.03 0,0.7 0.18,1.37 0.5,2 1.47,-2.91 6.05,-5.03 11.47,-5.03 5.41,0 9.97,2.12 11.43,5.03 0.32,-0.63 0.5,-1.3 0.5,-2 0,-3.89 -5.33,-7.03 -11.93,-7.03 z" />
                <path
                   id="path43611"
                   sodipodi:nodetypes="csssssssssssssssssssssssssssssssc"
                   style="fill:#ffffff;fill-rule:evenodd;filter:url(#filter35457)"
                   d="m -165.58,159.5 h -1.77 c -0.6,0 -1.02,0.07 -1.55,0.2 -0.74,0.19 -0.74,0.83 -1.56,0.83 -0.16,0 -0.85,0.69 -1.04,0.83 -0.37,0.29 -0.91,0.19 -1.24,0.52 -0.42,0.42 -0.88,0.24 -1.25,0.73 -0.3,0.41 -0.89,0.98 -1.03,1.56 -0.18,0.71 -0.68,1.93 -0.32,1.45 0.22,-0.29 1.9,-1.79 2.29,-2.08 0.35,-0.26 1.27,-0.52 1.66,-0.62 0.49,-0.12 0.97,-0.54 1.35,-0.73 0.48,-0.24 0.77,-0.27 1.34,-0.41 0.61,-0.15 1.06,-0.1 1.77,-0.1 h 1.66 c 0.49,0 1.01,-0.11 1.55,-0.11 0.72,0 1.39,-0.17 2.08,0 0.61,0.15 1.27,0.19 1.76,0.31 0.52,0.13 0.86,0.31 1.66,0.31 0.62,0 1.01,0.5 1.35,0.83 0.32,0.32 0.58,0.45 0.94,0.63 0.56,0.28 0.75,0.13 1.14,0.52 0.31,0.31 0.56,0.46 0.83,0.72 0.29,0.29 0.93,1.8 0.93,0.83 0,-0.73 -0.53,-1.98 -1.04,-2.49 -0.42,-0.42 -0.64,-0.62 -1.03,-1.14 -0.34,-0.44 -1,-0.29 -1.46,-0.52 -0.5,-0.25 -0.92,-0.59 -1.24,-0.83 -0.48,-0.35 -0.67,-0.52 -1.35,-0.52 -0.75,0 -0.96,-0.11 -1.56,-0.41 -0.57,-0.29 -0.88,-0.42 -1.55,-0.42 h -1.66 c -0.59,0 -0.96,0.11 -1.66,0.11 z" />
              </g>
              <g
                 id="g43613"
                 style="fill:#ffffff"
                 transform="matrix(0.83201,0.011794,-0.30108,0.71423,573.44,29.589)">
                <path
                   id="path43615"
                   sodipodi:nodetypes="ccccc"
                   style="opacity:0.85;fill:#ffffff;fill-rule:evenodd;stroke:url(#linearGradient220);stroke-width:4.7538;stroke-linecap:round;stroke-linejoin:round"
                   d="m -189.8,124.54 c 14.45,-6.65 36.38,-7 49.49,-0.06 13.22,4.07 -1.41,42.22 0.87,46.76 5.1,16.23 -52.98,16.27 -49.8,1.14 2.24,-5.38 -13.09,-44.37 -0.56,-47.84 z" />
                <ellipse
                   id="path43617"
                   style="opacity:0.85;fill:#ffffff;fill-opacity:0.61688;fill-rule:evenodd"
                   cx="-164.47691"
                   cy="137.46851"
                   rx="20.541275"
                   ry="9.023488" />
                <path
                   id="path43619"
                   style="opacity:0.85;fill:#ffffff;fill-opacity:0.61688;fill-rule:evenodd"
                   d="m -164.34,158.53 c -6.6,0 -11.97,3.14 -11.97,7.03 0,0.7 0.18,1.37 0.5,2 1.47,-2.91 6.05,-5.03 11.47,-5.03 5.41,0 9.97,2.12 11.43,5.03 0.32,-0.63 0.5,-1.3 0.5,-2 0,-3.89 -5.33,-7.03 -11.93,-7.03 z" />
                <circle
                   id="path43621"
                   style="opacity:0.85;fill:#ffffff;fill-opacity:0.61688;fill-rule:evenodd"
                   transform="matrix(1,0,0,0.6087,-0.29345,63.016)"
                   cx="-164.03674"
                   cy="169.52756"
                   r="3.3746378" />
                <ellipse
                   id="path43623"
                   style="opacity:0.85;fill:#ffffff;fill-opacity:0.71429;fill-rule:evenodd;filter:url(#filter34388)"
                   transform="matrix(0.729,0,0,0.729,-44.573,37.254)"
                   cx="-164.47691"
                   cy="137.46851"
                   rx="20.541275"
                   ry="9.023488" />
                <ellipse
                   id="path43625"
                   style="opacity:0.85;fill:#ffffff;fill-rule:evenodd"
                   cx="-164.3302"
                   cy="166.29964"
                   rx="3.2279146"
                   ry="1.9074041" />
                <path
                   id="path43627"
                   style="opacity:0.85;fill:#ffffff;fill-opacity:0.61688;fill-rule:evenodd"
                   d="m -164.34,158.53 c -6.6,0 -11.97,3.14 -11.97,7.03 0,0.7 0.18,1.37 0.5,2 1.47,-2.91 6.05,-5.03 11.47,-5.03 5.41,0 9.97,2.12 11.43,5.03 0.32,-0.63 0.5,-1.3 0.5,-2 0,-3.89 -5.33,-7.03 -11.93,-7.03 z" />
                <path
                   id="path43629"
                   sodipodi:nodetypes="csssssssssssssssssssssssssssssssc"
                   style="fill:#ffffff;fill-opacity:0.66883;fill-rule:evenodd;filter:url(#filter35457)"
                   d="m -165.58,159.5 h -1.77 c -0.6,0 -1.02,0.07 -1.55,0.2 -0.74,0.19 -0.74,0.83 -1.56,0.83 -0.16,0 -0.85,0.69 -1.04,0.83 -0.37,0.29 -0.91,0.19 -1.24,0.52 -0.42,0.42 -0.88,0.24 -1.25,0.73 -0.3,0.41 -0.89,0.98 -1.03,1.56 -0.18,0.71 -0.68,1.93 -0.32,1.45 0.22,-0.29 1.9,-1.79 2.29,-2.08 0.35,-0.26 1.27,-0.52 1.66,-0.62 0.49,-0.12 0.97,-0.54 1.35,-0.73 0.48,-0.24 0.77,-0.27 1.34,-0.41 0.61,-0.15 1.06,-0.1 1.77,-0.1 h 1.66 c 0.49,0 1.01,-0.11 1.55,-0.11 0.72,0 1.39,-0.17 2.08,0 0.61,0.15 1.27,0.19 1.76,0.31 0.52,0.13 0.86,0.31 1.66,0.31 0.62,0 1.01,0.5 1.35,0.83 0.32,0.32 0.58,0.45 0.94,0.63 0.56,0.28 0.75,0.13 1.14,0.52 0.31,0.31 0.56,0.46 0.83,0.72 0.29,0.29 0.93,1.8 0.93,0.83 0,-0.73 -0.53,-1.98 -1.04,-2.49 -0.42,-0.42 -0.64,-0.62 -1.03,-1.14 -0.34,-0.44 -1,-0.29 -1.46,-0.52 -0.5,-0.25 -0.92,-0.59 -1.24,-0.83 -0.48,-0.35 -0.67,-0.52 -1.35,-0.52 -0.75,0 -0.96,-0.11 -1.56,-0.41 -0.57,-0.29 -0.88,-0.42 -1.55,-0.42 h -1.66 c -0.59,0 -0.96,0.11 -1.66,0.11 z" />
              </g>
              <g
                 id="g43631"
                 style="fill:#ffffff;stroke:#000000;stroke-width:0.12233;stroke-linecap:round;stroke-linejoin:round"
                 transform="matrix(0.83201,0.011794,-0.30108,0.71423,573.44,29.589)">
                <path
                   id="path43633"
                   d="m -189.8,124.54 c 14.45,-6.65 36.38,-7 49.49,-0.06 13.22,4.07 -1.41,42.22 0.87,46.76 5.1,16.23 -52.98,16.27 -49.8,1.14 2.24,-5.38 -13.09,-44.37 -0.56,-47.84 z"
                   style="opacity:0.85;fill:#ffffff;fill-rule:evenodd;stroke:#000000;stroke-width:0.12233;stroke-linecap:round;stroke-linejoin:round"
                   sodipodi:nodetypes="ccccc" />
                <ellipse
                   id="path43635"
                   style="opacity:0.85;fill:#ffffff;fill-opacity:0.61688;fill-rule:evenodd;stroke:#000000;stroke-width:0.12233;stroke-linecap:round;stroke-linejoin:round"
                   cx="-164.47691"
                   cy="137.46851"
                   rx="20.541275"
                   ry="9.023488" />
                <path
                   id="path43637"
                   style="opacity:0.85;fill:#ffffff;fill-opacity:0.61688;fill-rule:evenodd;stroke:#000000;stroke-width:0.12233;stroke-linecap:round;stroke-linejoin:round"
                   d="m -164.34,158.53 c -6.6,0 -11.97,3.14 -11.97,7.03 0,0.7 0.18,1.37 0.5,2 1.47,-2.91 6.05,-5.03 11.47,-5.03 5.41,0 9.97,2.12 11.43,5.03 0.32,-0.63 0.5,-1.3 0.5,-2 0,-3.89 -5.33,-7.03 -11.93,-7.03 z" />
                <circle
                   id="path43639"
                   style="opacity:0.85;fill:#ffffff;fill-opacity:0.61688;fill-rule:evenodd;stroke:#000000;stroke-width:0.1568;stroke-linecap:round;stroke-linejoin:round"
                   transform="matrix(1,0,0,0.6087,-0.29345,63.016)"
                   cx="-164.03674"
                   cy="169.52756"
                   r="3.3746378" />
                <ellipse
                   id="path43641"
                   style="opacity:0.85;fill:#ffffff;fill-opacity:0.71429;fill-rule:evenodd;stroke:#000000;stroke-width:0.16781;stroke-linecap:round;stroke-linejoin:round;filter:url(#filter34388)"
                   transform="matrix(0.729,0,0,0.729,-44.573,37.254)"
                   cx="-164.47691"
                   cy="137.46851"
                   rx="20.541275"
                   ry="9.023488" />
                <ellipse
                   id="path43643"
                   style="opacity:0.85;fill:#ffffff;fill-rule:evenodd;stroke:#000000;stroke-width:0.12233;stroke-linecap:round;stroke-linejoin:round"
                   cx="-164.3302"
                   cy="166.29964"
                   rx="3.2279146"
                   ry="1.9074041" />
                <path
                   id="path43645"
                   style="opacity:0.85;fill:#ffffff;fill-opacity:0.61688;fill-rule:evenodd;stroke:#000000;stroke-width:0.12233;stroke-linecap:round;stroke-linejoin:round"
                   d="m -164.34,158.53 c -6.6,0 -11.97,3.14 -11.97,7.03 0,0.7 0.18,1.37 0.5,2 1.47,-2.91 6.05,-5.03 11.47,-5.03 5.41,0 9.97,2.12 11.43,5.03 0.32,-0.63 0.5,-1.3 0.5,-2 0,-3.89 -5.33,-7.03 -11.93,-7.03 z" />
                <path
                   id="path43647"
                   sodipodi:nodetypes="csssssssssssssssssssssssssssssssc"
                   style="fill:#ffffff;fill-opacity:0.66883;fill-rule:evenodd;stroke:#000000;stroke-width:0.12233;stroke-linecap:round;stroke-linejoin:round;filter:url(#filter35457)"
                   d="m -165.58,159.5 h -1.77 c -0.6,0 -1.02,0.07 -1.55,0.2 -0.74,0.19 -0.74,0.83 -1.56,0.83 -0.16,0 -0.85,0.69 -1.04,0.83 -0.37,0.29 -0.91,0.19 -1.24,0.52 -0.42,0.42 -0.88,0.24 -1.25,0.73 -0.3,0.41 -0.89,0.98 -1.03,1.56 -0.18,0.71 -0.68,1.93 -0.32,1.45 0.22,-0.29 1.9,-1.79 2.29,-2.08 0.35,-0.26 1.27,-0.52 1.66,-0.62 0.49,-0.12 0.97,-0.54 1.35,-0.73 0.48,-0.24 0.77,-0.27 1.34,-0.41 0.61,-0.15 1.06,-0.1 1.77,-0.1 h 1.66 c 0.49,0 1.01,-0.11 1.55,-0.11 0.72,0 1.39,-0.17 2.08,0 0.61,0.15 1.27,0.19 1.76,0.31 0.52,0.13 0.86,0.31 1.66,0.31 0.62,0 1.01,0.5 1.35,0.83 0.32,0.32 0.58,0.45 0.94,0.63 0.56,0.28 0.75,0.13 1.14,0.52 0.31,0.31 0.56,0.46 0.83,0.72 0.29,0.29 0.93,1.8 0.93,0.83 0,-0.73 -0.53,-1.98 -1.04,-2.49 -0.42,-0.42 -0.64,-0.62 -1.03,-1.14 -0.34,-0.44 -1,-0.29 -1.46,-0.52 -0.5,-0.25 -0.92,-0.59 -1.24,-0.83 -0.48,-0.35 -0.67,-0.52 -1.35,-0.52 -0.75,0 -0.96,-0.11 -1.56,-0.41 -0.57,-0.29 -0.88,-0.42 -1.55,-0.42 h -1.66 c -0.59,0 -0.96,0.11 -1.66,0.11 z" />
              </g>
              <path
                 id="path43649"
                 style="opacity:0.78142;fill:#ffffff;fill-opacity:0.99216;fill-rule:evenodd;filter:url(#filter43185)"
                 transform="matrix(1,0,0,0.92558,558,159.02)"
                 d="m -187.53,-1.8283 c -0.03,-1.2962 0.68,-2.0748 -1.05,-2.506 -1.7,-0.4269 -1.43,1.8972 -2.08,2.7149 -0.7,0.87208 0.7,1.1212 1.04,1.4618 1.26,1.2567 1.77,-1.1334 2.09,-1.6707 z" />
              <path
                 id="path43402"
                 sodipodi:nodetypes="cssscsc"
                 style="opacity:0.85;fill:#000000;fill-opacity:0.84967;fill-rule:evenodd"
                 d="m 347.66,177.63 c 0,0 0.03,-4.13 0.03,-4.13 0,-11.37 17.15,-20.6 38.26,-20.6 21.11,0 38.24,9.23 38.24,20.6 l 0.09,4.46 c 0,0 -24.96,0.67 -37.88,0.67 -14.2,0 -38.74,-1 -38.74,-1 z" />
              <path
                 id="path43404"
                 sodipodi:nodetypes="cccccc"
                 style="fill:url(#linearGradient45409);fill-rule:evenodd"
                 d="m 389.98,154.67 c 9.7,3.79 11.19,20.82 4.68,23.4 l -44.42,-0.37 c -2.68,-10.14 0.4,-12.8 10.11,-19.68 1.51,-1.45 13.02,-4.18 13.02,-4.18 0,0 11.83,-1.04 16.61,0.83 z" />
              <path
                 id="path43406"
                 sodipodi:nodetypes="cccccscccccc"
                 style="fill:#333333;fill-opacity:0.82468;fill-rule:evenodd"
                 d="m 374.39,153.89 7.94,3.21 5.03,5.04 5.26,2.15 3.49,6.02 c 0,0 0.97,3.27 1.47,3.93 0.64,0.87 1.2,-2.37 1.25,-3.95 0.11,-3.65 -1.93,-9.11 -1.93,-9.11 2.64,2.24 -2.52,-3.32 -3.86,-5.04 l -6.32,-3.22 -7.18,0.33 z" />
              <path
                 id="path43408"
                 sodipodi:nodetypes="ccssssccccccccccc"
                 style="fill:#747474;fill-opacity:0.45455;fill-rule:evenodd;filter:url(#filter27806)"
                 d="m 355.1,161.43 c 0,0 -4.34,5.21 -3.25,7.36 2.59,0.07 7.37,0.18 7.37,0.18 l 5.57,-2.42 c 0,0 4.78,1.72 7.44,1.78 4.59,0.1 6.52,-0.29 9.23,-0.23 1.37,0.03 13.24,1.44 14.15,1.47 1.62,0.03 -2.53,-2.82 -0.91,-2.75 0,0 -1.88,-2.52 -1.88,-2.48 l -3.65,-1.44 -0.19,3.16 -2.79,1.22 -7.36,-4 -4.08,-0.65 -1.04,4.6 -11.04,-4.18 z" />
              <path
                 id="path43410"
                 style="opacity:0.85;fill:#999999;fill-opacity:0.61688;fill-rule:evenodd;filter:url(#filter28813)"
                 transform="matrix(-1.9734,1.1474,-1.2312,-1.8392,4.6295,390.08)"
                 d="m -190.08,3.0284 c 0,0.6253 -0.11,0.9135 -0.12,1.471 -0.01,0.6647 1.36,1.9484 1.34,2.4616 -0.06,1.0782 -1.71,1.3481 -1.79,1.3481 -0.09,0 -0.09,-1.7363 -0.14,-2.8142 -0.02,-0.5133 0.15,-0.7075 0.14,-1.3723 -0.01,-0.5575 0.26,-0.6649 0.26,-1.2901 0,-0.6253 0.58,-2.0524 0.59,-2.6099 0.01,-0.6647 -0.62,-1.1643 -0.6,-1.6776 0.05,-1.0781 -0.45,-0.4246 -0.37,-0.4246 0.08,0 0.76,0.7102 0.81,1.7881 0.03,0.51335 -0.9,0.89323 -0.88,1.5581 0.01,0.5575 0.46,0.6712 0.46,1.2964 l -0.05,0.0853" />
              <path
                 id="path43412"
                 style="opacity:0.85;fill:#c5c5bf;fill-opacity:0.61688;fill-rule:evenodd;filter:url(#filter28813)"
                 transform="matrix(1.9734,-1.1474,1.2312,1.8392,738.14,-55.718)"
                 d="m -189.9,2.5574 c 0,0.6252 -0.47,0.6484 -0.48,1.2058 -0.01,0.6648 -0.11,2.1327 -0.13,2.6459 -0.05,1.0782 2.34,3.6229 2.26,3.6229 -0.08,0 -2.25,-2.3659 -2.31,-3.4438 -0.02,-0.5133 -0.23,-1.1068 -0.24,-1.7717 -0.01,-0.5575 -0.15,-1.4209 -0.15,-2.0461 0,-0.6253 -0.57,-2.7154 -0.56,-3.2729 0.01,-0.6647 0.02,0.80965 0.04,0.29641 0.05,-1.0781 1.24,-1.4398 1.33,-1.4398 0.08,0 -0.23,0.198 -0.18,1.2759 0.02,0.51335 -0.2,0.56704 -0.19,1.2319 0.01,0.5575 0.46,1.7046 0.46,2.3299 0,0 0.31,0.4002 0.31,0.4002" />
              <g
                 id="g43416"
                 style="fill:#4d4d4d;filter:url(#filter36692)"
                 transform="matrix(0.7836,0.011108,-0.272,0.64522,563.75,39.508)">
                <path
                   id="path43418"
                   d="m -189.8,124.54 c 14.45,-6.65 36.38,-7 49.49,-0.06 13.22,4.07 -1.41,42.22 0.87,46.76 5.1,16.23 -52.98,16.27 -49.8,1.14 2.24,-5.38 -13.09,-44.37 -0.56,-47.84 z"
                   style="opacity:0.85;fill:#4d4d4d;fill-rule:evenodd;stroke:url(#linearGradient222);stroke-width:4.7538;stroke-linecap:round;stroke-linejoin:round"
                   sodipodi:nodetypes="ccccc" />
                <ellipse
                   id="path43420"
                   style="opacity:0.85;fill:#4d4d4d;fill-opacity:0.61688;fill-rule:evenodd"
                   cx="-164.47691"
                   cy="137.46851"
                   rx="20.541275"
                   ry="9.023488" />
                <path
                   id="path43422"
                   style="opacity:0.85;fill:#4d4d4d;fill-opacity:0.61688;fill-rule:evenodd"
                   d="m -164.34,158.53 c -6.6,0 -11.97,3.14 -11.97,7.03 0,0.7 0.18,1.37 0.5,2 1.47,-2.91 6.05,-5.03 11.47,-5.03 5.41,0 9.97,2.12 11.43,5.03 0.32,-0.63 0.5,-1.3 0.5,-2 0,-3.89 -5.33,-7.03 -11.93,-7.03 z" />
                <circle
                   id="path43424"
                   style="opacity:0.85;fill:#4d4d4d;fill-opacity:0.61688;fill-rule:evenodd"
                   transform="matrix(1,0,0,0.6087,-0.29345,63.016)"
                   cx="-164.03674"
                   cy="169.52756"
                   r="3.3746378" />
                <ellipse
                   id="path43426"
                   style="opacity:0.85;fill:#4d4d4d;fill-opacity:0.71429;fill-rule:evenodd;filter:url(#filter34388)"
                   transform="matrix(0.729,0,0,0.729,-44.573,37.254)"
                   cx="-164.47691"
                   cy="137.46851"
                   rx="20.541275"
                   ry="9.023488" />
                <ellipse
                   id="path43428"
                   style="opacity:0.85;fill:#4d4d4d;fill-rule:evenodd"
                   cx="-164.3302"
                   cy="166.29964"
                   rx="3.2279146"
                   ry="1.9074041" />
                <path
                   id="path43430"
                   style="opacity:0.85;fill:#4d4d4d;fill-opacity:0.61688;fill-rule:evenodd"
                   d="m -164.34,158.53 c -6.6,0 -11.97,3.14 -11.97,7.03 0,0.7 0.18,1.37 0.5,2 1.47,-2.91 6.05,-5.03 11.47,-5.03 5.41,0 9.97,2.12 11.43,5.03 0.32,-0.63 0.5,-1.3 0.5,-2 0,-3.89 -5.33,-7.03 -11.93,-7.03 z" />
                <path
                   id="path43432"
                   sodipodi:nodetypes="csssssssssssssssssssssssssssssssc"
                   style="fill:#4d4d4d;fill-opacity:0.66883;fill-rule:evenodd;filter:url(#filter35457)"
                   d="m -165.58,159.5 h -1.77 c -0.6,0 -1.02,0.07 -1.55,0.2 -0.74,0.19 -0.74,0.83 -1.56,0.83 -0.16,0 -0.85,0.69 -1.04,0.83 -0.37,0.29 -0.91,0.19 -1.24,0.52 -0.42,0.42 -0.88,0.24 -1.25,0.73 -0.3,0.41 -0.89,0.98 -1.03,1.56 -0.18,0.71 -0.68,1.93 -0.32,1.45 0.22,-0.29 1.9,-1.79 2.29,-2.08 0.35,-0.26 1.27,-0.52 1.66,-0.62 0.49,-0.12 0.97,-0.54 1.35,-0.73 0.48,-0.24 0.77,-0.27 1.34,-0.41 0.61,-0.15 1.06,-0.1 1.77,-0.1 h 1.66 c 0.49,0 1.01,-0.11 1.55,-0.11 0.72,0 1.39,-0.17 2.08,0 0.61,0.15 1.27,0.19 1.76,0.31 0.52,0.13 0.86,0.31 1.66,0.31 0.62,0 1.01,0.5 1.35,0.83 0.32,0.32 0.58,0.45 0.94,0.63 0.56,0.28 0.75,0.13 1.14,0.52 0.31,0.31 0.56,0.46 0.83,0.72 0.29,0.29 0.93,1.8 0.93,0.83 0,-0.73 -0.53,-1.98 -1.04,-2.49 -0.42,-0.42 -0.64,-0.62 -1.03,-1.14 -0.34,-0.44 -1,-0.29 -1.46,-0.52 -0.5,-0.25 -0.92,-0.59 -1.24,-0.83 -0.48,-0.35 -0.67,-0.52 -1.35,-0.52 -0.75,0 -0.96,-0.11 -1.56,-0.41 -0.57,-0.29 -0.88,-0.42 -1.55,-0.42 h -1.66 c -0.59,0 -0.96,0.11 -1.66,0.11 z" />
              </g>
              <g
                 id="g43434"
                 style="fill:#fefeff;filter:url(#filter40034)"
                 transform="matrix(0.79382,0.011253,-0.30108,0.71423,566.68,29.141)">
                <path
                   id="path43436"
                   sodipodi:nodetypes="ccccc"
                   style="opacity:0.85;fill:#fefeff;fill-rule:evenodd"
                   d="m -189.8,124.54 c 14.45,-6.65 36.38,-7 49.49,-0.06 13.22,4.07 -1.41,42.22 0.87,46.76 5.1,16.23 -52.98,16.27 -49.8,1.14 2.24,-5.38 -13.09,-44.37 -0.56,-47.84 z" />
                <ellipse
                   id="path43438"
                   style="opacity:0.85;fill:#fefeff;fill-rule:evenodd"
                   cx="-164.47691"
                   cy="137.46851"
                   rx="20.541275"
                   ry="9.023488" />
                <path
                   id="path43440"
                   style="opacity:0.85;fill:#fefeff;fill-rule:evenodd"
                   d="m -164.34,158.53 c -6.6,0 -11.97,3.14 -11.97,7.03 0,0.7 0.18,1.37 0.5,2 1.47,-2.91 6.05,-5.03 11.47,-5.03 5.41,0 9.97,2.12 11.43,5.03 0.32,-0.63 0.5,-1.3 0.5,-2 0,-3.89 -5.33,-7.03 -11.93,-7.03 z" />
                <circle
                   id="path43442"
                   style="opacity:0.85;fill:#fefeff;fill-rule:evenodd"
                   transform="matrix(1,0,0,0.6087,-0.29345,63.016)"
                   cx="-164.03674"
                   cy="169.52756"
                   r="3.3746378" />
                <ellipse
                   id="path43444"
                   style="opacity:0.85;fill:#fefeff;fill-rule:evenodd;filter:url(#filter34388)"
                   transform="matrix(0.729,0,0,0.729,-44.573,37.254)"
                   cx="-164.47691"
                   cy="137.46851"
                   rx="20.541275"
                   ry="9.023488" />
                <ellipse
                   id="path43446"
                   style="opacity:0.85;fill:#fefeff;fill-rule:evenodd"
                   cx="-164.3302"
                   cy="166.29964"
                   rx="3.2279146"
                   ry="1.9074041" />
                <path
                   id="path43448"
                   style="opacity:0.85;fill:#fefeff;fill-rule:evenodd"
                   d="m -164.34,158.53 c -6.6,0 -11.97,3.14 -11.97,7.03 0,0.7 0.18,1.37 0.5,2 1.47,-2.91 6.05,-5.03 11.47,-5.03 5.41,0 9.97,2.12 11.43,5.03 0.32,-0.63 0.5,-1.3 0.5,-2 0,-3.89 -5.33,-7.03 -11.93,-7.03 z" />
                <path
                   id="path43450"
                   sodipodi:nodetypes="csssssssssssssssssssssssssssssssc"
                   style="fill:#fefeff;fill-rule:evenodd;filter:url(#filter35457)"
                   d="m -165.58,159.5 h -1.77 c -0.6,0 -1.02,0.07 -1.55,0.2 -0.74,0.19 -0.74,0.83 -1.56,0.83 -0.16,0 -0.85,0.69 -1.04,0.83 -0.37,0.29 -0.91,0.19 -1.24,0.52 -0.42,0.42 -0.88,0.24 -1.25,0.73 -0.3,0.41 -0.89,0.98 -1.03,1.56 -0.18,0.71 -0.68,1.93 -0.32,1.45 0.22,-0.29 1.9,-1.79 2.29,-2.08 0.35,-0.26 1.27,-0.52 1.66,-0.62 0.49,-0.12 0.97,-0.54 1.35,-0.73 0.48,-0.24 0.77,-0.27 1.34,-0.41 0.61,-0.15 1.06,-0.1 1.77,-0.1 h 1.66 c 0.49,0 1.01,-0.11 1.55,-0.11 0.72,0 1.39,-0.17 2.08,0 0.61,0.15 1.27,0.19 1.76,0.31 0.52,0.13 0.86,0.31 1.66,0.31 0.62,0 1.01,0.5 1.35,0.83 0.32,0.32 0.58,0.45 0.94,0.63 0.56,0.28 0.75,0.13 1.14,0.52 0.31,0.31 0.56,0.46 0.83,0.72 0.29,0.29 0.93,1.8 0.93,0.83 0,-0.73 -0.53,-1.98 -1.04,-2.49 -0.42,-0.42 -0.64,-0.62 -1.03,-1.14 -0.34,-0.44 -1,-0.29 -1.46,-0.52 -0.5,-0.25 -0.92,-0.59 -1.24,-0.83 -0.48,-0.35 -0.67,-0.52 -1.35,-0.52 -0.75,0 -0.96,-0.11 -1.56,-0.41 -0.57,-0.29 -0.88,-0.42 -1.55,-0.42 h -1.66 c -0.59,0 -0.96,0.11 -1.66,0.11 z" />
              </g>
              <g
                 id="g43452"
                 transform="matrix(0.83201,0.011794,-0.30108,0.71423,573.44,29.589)">
                <path
                   id="path43454"
                   d="m -189.8,124.54 c 14.45,-6.65 36.38,-7 49.49,-0.06 13.22,4.07 -1.41,42.22 0.87,46.76 5.1,16.23 -52.98,16.27 -49.8,1.14 2.24,-5.38 -13.09,-44.37 -0.56,-47.84 z"
                   style="opacity:0.85;fill:url(#linearGradient45413);fill-rule:evenodd;stroke:url(#linearGradient45405);stroke-width:4.7538;stroke-linecap:round;stroke-linejoin:round"
                   sodipodi:nodetypes="ccccc" />
                <ellipse
                   id="path43456"
                   style="opacity:0.85;fill:#999999;fill-opacity:0.61688;fill-rule:evenodd"
                   cx="-164.47691"
                   cy="137.46851"
                   rx="20.541275"
                   ry="9.023488" />
                <path
                   id="path43458"
                   style="opacity:0.85;fill:#999999;fill-opacity:0.61688;fill-rule:evenodd"
                   d="m -164.34,158.53 c -6.6,0 -11.97,3.14 -11.97,7.03 0,0.7 0.18,1.37 0.5,2 1.47,-2.91 6.05,-5.03 11.47,-5.03 5.41,0 9.97,2.12 11.43,5.03 0.32,-0.63 0.5,-1.3 0.5,-2 0,-3.89 -5.33,-7.03 -11.93,-7.03 z" />
                <circle
                   id="path43460"
                   style="opacity:0.85;fill:#999999;fill-opacity:0.61688;fill-rule:evenodd"
                   transform="matrix(1,0,0,0.6087,-0.29345,63.016)"
                   cx="-164.03674"
                   cy="169.52756"
                   r="3.3746378" />
                <ellipse
                   id="path43462"
                   style="opacity:0.85;fill:#515358;fill-opacity:0.71429;fill-rule:evenodd;filter:url(#filter34388)"
                   transform="matrix(0.729,0,0,0.729,-44.573,37.254)"
                   cx="-164.47691"
                   cy="137.46851"
                   rx="20.541275"
                   ry="9.023488" />
                <ellipse
                   id="path43464"
                   style="opacity:0.85;fill:url(#radialGradient45417);fill-rule:evenodd"
                   cx="-164.3302"
                   cy="166.29964"
                   rx="3.2279146"
                   ry="1.9074041" />
                <path
                   id="path43466"
                   style="opacity:0.85;fill:#999999;fill-opacity:0.61688;fill-rule:evenodd"
                   d="m -164.34,158.53 c -6.6,0 -11.97,3.14 -11.97,7.03 0,0.7 0.18,1.37 0.5,2 1.47,-2.91 6.05,-5.03 11.47,-5.03 5.41,0 9.97,2.12 11.43,5.03 0.32,-0.63 0.5,-1.3 0.5,-2 0,-3.89 -5.33,-7.03 -11.93,-7.03 z" />
                <path
                   id="path43468"
                   sodipodi:nodetypes="csssssssssssssssssssssssssssssssc"
                   style="fill:#303030;fill-opacity:0.66883;fill-rule:evenodd;filter:url(#filter35457)"
                   d="m -165.58,159.5 h -1.77 c -0.6,0 -1.02,0.07 -1.55,0.2 -0.74,0.19 -0.74,0.83 -1.56,0.83 -0.16,0 -0.85,0.69 -1.04,0.83 -0.37,0.29 -0.91,0.19 -1.24,0.52 -0.42,0.42 -0.88,0.24 -1.25,0.73 -0.3,0.41 -0.89,0.98 -1.03,1.56 -0.18,0.71 -0.68,1.93 -0.32,1.45 0.22,-0.29 1.9,-1.79 2.29,-2.08 0.35,-0.26 1.27,-0.52 1.66,-0.62 0.49,-0.12 0.97,-0.54 1.35,-0.73 0.48,-0.24 0.77,-0.27 1.34,-0.41 0.61,-0.15 1.06,-0.1 1.77,-0.1 h 1.66 c 0.49,0 1.01,-0.11 1.55,-0.11 0.72,0 1.39,-0.17 2.08,0 0.61,0.15 1.27,0.19 1.76,0.31 0.52,0.13 0.86,0.31 1.66,0.31 0.62,0 1.01,0.5 1.35,0.83 0.32,0.32 0.58,0.45 0.94,0.63 0.56,0.28 0.75,0.13 1.14,0.52 0.31,0.31 0.56,0.46 0.83,0.72 0.29,0.29 0.93,1.8 0.93,0.83 0,-0.73 -0.53,-1.98 -1.04,-2.49 -0.42,-0.42 -0.64,-0.62 -1.03,-1.14 -0.34,-0.44 -1,-0.29 -1.46,-0.52 -0.5,-0.25 -0.92,-0.59 -1.24,-0.83 -0.48,-0.35 -0.67,-0.52 -1.35,-0.52 -0.75,0 -0.96,-0.11 -1.56,-0.41 -0.57,-0.29 -0.88,-0.42 -1.55,-0.42 h -1.66 c -0.59,0 -0.96,0.11 -1.66,0.11 z" />
              </g>
              <g
                 id="g43470"
                 style="fill:none;stroke:#000000;stroke-width:0.12233;stroke-linecap:round;stroke-linejoin:round"
                 transform="matrix(0.83201,0.011794,-0.30108,0.71423,573.44,29.589)">
                <path
                   id="path43472"
                   sodipodi:nodetypes="ccccc"
                   style="opacity:0.85;fill:none;stroke:#000000;stroke-width:0.12233;stroke-linecap:round;stroke-linejoin:round"
                   d="m -189.8,124.54 c 14.45,-6.65 36.38,-7 49.49,-0.06 13.22,4.07 -1.41,42.22 0.87,46.76 5.1,16.23 -52.98,16.27 -49.8,1.14 2.24,-5.38 -13.09,-44.37 -0.56,-47.84 z" />
                <ellipse
                   id="path43474"
                   style="opacity:0.85;fill:none;stroke:#000000;stroke-width:0.12233;stroke-linecap:round;stroke-linejoin:round"
                   cx="-164.47691"
                   cy="137.46851"
                   rx="20.541275"
                   ry="9.023488" />
                <path
                   id="path43476"
                   style="opacity:0.85;fill:none;stroke:#000000;stroke-width:0.12233;stroke-linecap:round;stroke-linejoin:round"
                   d="m -164.34,158.53 c -6.6,0 -11.97,3.14 -11.97,7.03 0,0.7 0.18,1.37 0.5,2 1.47,-2.91 6.05,-5.03 11.47,-5.03 5.41,0 9.97,2.12 11.43,5.03 0.32,-0.63 0.5,-1.3 0.5,-2 0,-3.89 -5.33,-7.03 -11.93,-7.03 z" />
                <circle
                   id="path43478"
                   style="opacity:0.85;fill:none;stroke:#000000;stroke-width:0.1568;stroke-linecap:round;stroke-linejoin:round"
                   transform="matrix(1,0,0,0.6087,-0.29345,63.016)"
                   cx="-164.03674"
                   cy="169.52756"
                   r="3.3746378" />
                <ellipse
                   id="path43480"
                   style="opacity:0.85;fill:none;stroke:#000000;stroke-width:0.16781;stroke-linecap:round;stroke-linejoin:round;filter:url(#filter34388)"
                   transform="matrix(0.729,0,0,0.729,-44.573,37.254)"
                   cx="-164.47691"
                   cy="137.46851"
                   rx="20.541275"
                   ry="9.023488" />
                <ellipse
                   id="path43482"
                   style="opacity:0.85;fill:none;stroke:#000000;stroke-width:0.12233;stroke-linecap:round;stroke-linejoin:round"
                   cx="-164.3302"
                   cy="166.29964"
                   rx="3.2279146"
                   ry="1.9074041" />
                <path
                   id="path43484"
                   style="opacity:0.85;fill:none;stroke:#000000;stroke-width:0.12233;stroke-linecap:round;stroke-linejoin:round"
                   d="m -164.34,158.53 c -6.6,0 -11.97,3.14 -11.97,7.03 0,0.7 0.18,1.37 0.5,2 1.47,-2.91 6.05,-5.03 11.47,-5.03 5.41,0 9.97,2.12 11.43,5.03 0.32,-0.63 0.5,-1.3 0.5,-2 0,-3.89 -5.33,-7.03 -11.93,-7.03 z" />
                <path
                   id="path43486"
                   sodipodi:nodetypes="csssssssssssssssssssssssssssssssc"
                   style="fill:none;stroke:#000000;stroke-width:0.12233;stroke-linecap:round;stroke-linejoin:round;filter:url(#filter35457)"
                   d="m -165.58,159.5 h -1.77 c -0.6,0 -1.02,0.07 -1.55,0.2 -0.74,0.19 -0.74,0.83 -1.56,0.83 -0.16,0 -0.85,0.69 -1.04,0.83 -0.37,0.29 -0.91,0.19 -1.24,0.52 -0.42,0.42 -0.88,0.24 -1.25,0.73 -0.3,0.41 -0.89,0.98 -1.03,1.56 -0.18,0.71 -0.68,1.93 -0.32,1.45 0.22,-0.29 1.9,-1.79 2.29,-2.08 0.35,-0.26 1.27,-0.52 1.66,-0.62 0.49,-0.12 0.97,-0.54 1.35,-0.73 0.48,-0.24 0.77,-0.27 1.34,-0.41 0.61,-0.15 1.06,-0.1 1.77,-0.1 h 1.66 c 0.49,0 1.01,-0.11 1.55,-0.11 0.72,0 1.39,-0.17 2.08,0 0.61,0.15 1.27,0.19 1.76,0.31 0.52,0.13 0.86,0.31 1.66,0.31 0.62,0 1.01,0.5 1.35,0.83 0.32,0.32 0.58,0.45 0.94,0.63 0.56,0.28 0.75,0.13 1.14,0.52 0.31,0.31 0.56,0.46 0.83,0.72 0.29,0.29 0.93,1.8 0.93,0.83 0,-0.73 -0.53,-1.98 -1.04,-2.49 -0.42,-0.42 -0.64,-0.62 -1.03,-1.14 -0.34,-0.44 -1,-0.29 -1.46,-0.52 -0.5,-0.25 -0.92,-0.59 -1.24,-0.83 -0.48,-0.35 -0.67,-0.52 -1.35,-0.52 -0.75,0 -0.96,-0.11 -1.56,-0.41 -0.57,-0.29 -0.88,-0.42 -1.55,-0.42 h -1.66 c -0.59,0 -0.96,0.11 -1.66,0.11 z" />
              </g>
              <path
                 id="path43488"
                 d="m -187.53,-1.8283 c -0.03,-1.2962 0.68,-2.0748 -1.05,-2.506 -1.7,-0.4269 -1.43,1.8972 -2.08,2.7149 -0.7,0.87208 0.7,1.1212 1.04,1.4618 1.26,1.2567 1.77,-1.1334 2.09,-1.6707 z"
                 style="opacity:0.78142;fill:#515151;fill-opacity:0.99216;fill-rule:evenodd;filter:url(#filter43185)"
                 transform="matrix(1,0,0,0.92558,558,159.02)" />
            </g>
          </g>
        </g>
      </g>
    </g>
  </g>
  <metadata
     id="metadata215">
    <rdf:RDF>
      <cc:Work>
        <dc:format>image/svg+xml</dc:format>
        <dc:type
           rdf:resource="http://purl.org/dc/dcmitype/StillImage" />
        <cc:license
           rdf:resource="http://creativecommons.org/publicdomain/zero/1.0/" />
        <dc:publisher>
          <cc:Agent
             rdf:about="http://openclipart.org/">
            <dc:title>Openclipart</dc:title>
          </cc:Agent>
        </dc:publisher>
        <dc:title>Green soda can</dc:title>
        <dc:date>2008-02-18T20:36:42</dc:date>
        <dc:description>A green soda can svg created using only Inkscape 0.45</dc:description>
        <dc:source>https://openclipart.org/detail/14417/green-soda-can-by-vectorscape</dc:source>
        <dc:creator>
          <cc:Agent>
            <dc:title>vectorscape</dc:title>
          </cc:Agent>
        </dc:creator>
        <dc:subject>
          <rdf:Bag>
            <rdf:li>can</rdf:li>
            <rdf:li>colour</rdf:li>
            <rdf:li>cylinder</rdf:li>
            <rdf:li>food</rdf:li>
            <rdf:li>green</rdf:li>
            <rdf:li>inkscape</rdf:li>
            <rdf:li>soda</rdf:li>
          </rdf:Bag>
        </dc:subject>
      </cc:Work>
      <cc:License
         rdf:about="http://creativecommons.org/publicdomain/zero/1.0/">
        <cc:permits
           rdf:resource="http://creativecommons.org/ns#Reproduction" />
        <cc:permits
           rdf:resource="http://creativecommons.org/ns#Distribution" />
        <cc:permits
           rdf:resource="http://creativecommons.org/ns#DerivativeWorks" />
      </cc:License>
    </rdf:RDF>
  </metadata>
</svg>
