<?xml version="1.0" encoding="UTF-8" standalone="no"?>
<svg
   xmlns:dc="http://purl.org/dc/elements/1.1/"
   xmlns:cc="http://creativecommons.org/ns#"
   xmlns:rdf="http://www.w3.org/1999/02/22-rdf-syntax-ns#"
   xmlns:svg="http://www.w3.org/2000/svg"
   xmlns="http://www.w3.org/2000/svg"
   xmlns:xlink="http://www.w3.org/1999/xlink"
   xmlns:sodipodi="http://sodipodi.sourceforge.net/DTD/sodipodi-0.dtd"
   xmlns:inkscape="http://www.inkscape.org/namespaces/inkscape"
   id="svg2"
   sodipodi:docname="cap.svg"
   viewBox="0 0 900 700"
   version="1.1"
   inkscape:version="1.0.2-2 (e86c870879, 2021-01-15)">
  <sodipodi:namedview
     id="base"
     bordercolor="#666666"
     inkscape:pageshadow="2"
     inkscape:window-y="-8"
     pagecolor="#ffffff"
     inkscape:window-height="1017"
     inkscape:window-maximized="1"
     inkscape:zoom="0.48188921"
     inkscape:window-x="-8"
     showgrid="false"
     borderopacity="1.0"
     inkscape:current-layer="layer1"
     inkscape:cx="647.54067"
     inkscape:cy="546.45218"
     inkscape:window-width="1920"
     inkscape:pageopacity="0.0"
     inkscape:document-units="px"
     inkscape:document-rotation="0" />
  <defs
     id="defs4">
    <pattern
       id="pattern4772"
       xlink:href="#pattern4678"
       patternTransform="matrix(.28036 0 0 .30856 268.5 264.11)"
       inkscape:collect="always" />
    <pattern
       id="pattern4678"
       xlink:href="#pattern3951"
       patternTransform="matrix(.50280 0 0 .59327 245.64 214.11)"
       inkscape:collect="always" />
    <radialGradient
       id="radialGradient3938"
       gradientUnits="userSpaceOnUse"
       cy="290.28"
       cx="219.47"
       gradientTransform="matrix(-.18569 .00036814 .00056898 .28699 -130.23 503.15)"
       r="238.41"
       inkscape:collect="always">
      <stop
         id="stop3843"
         style="stop-color:#999999"
         offset="0" />
      <stop
         id="stop3845"
         style="stop-color:#999999;stop-opacity:0"
         offset="1" />
    </radialGradient>
    <radialGradient
       id="radialGradient3943"
       gradientUnits="userSpaceOnUse"
       cy="330.04"
       cx="250.89"
       gradientTransform="matrix(1 0 0 .91967 0 24.153)"
       r="212.72"
       inkscape:collect="always">
      <stop
         id="stop3786"
         style="stop-color:#ffccaa"
         offset="0" />
      <stop
         id="stop3788"
         style="stop-color:#2b1100;stop-opacity:0"
         offset="1" />
    </radialGradient>
    <pattern
       id="pattern3951"
       width="218.36403"
       patternUnits="userSpaceOnUse"
       patternTransform="translate(-357.21 471.25)"
       height="210.74045">
      <g
         id="g3945"
         transform="translate(357.21 -471.25)">
        <path
           id="path3004"
           sodipodi:rx="212.72128"
           sodipodi:ry="195.63287"
           style="fill-rule:evenodd;fill:#983a1c"
           sodipodi:type="arc"
           d="m583.36 300.66c0 108.05-95.239 195.63-212.72 195.63s-212.72-87.588-212.72-195.63c0-108.05 95.239-195.63 212.72-195.63s212.72 87.588 212.72 195.63z"
           transform="matrix(-.51308 0 0 .53861 -57.825 414.68)"
           sodipodi:cy="300.65814"
           sodipodi:cx="370.64182" />
        <path
           id="path3782"
           sodipodi:rx="212.72128"
           sodipodi:ry="195.63287"
           style="fill-rule:evenodd;fill:url(#radialGradient3943)"
           sodipodi:type="arc"
           d="m583.36 300.66c0 108.05-95.239 195.63-212.72 195.63s-212.72-87.588-212.72-195.63c0-108.05 95.239-195.63 212.72-195.63s212.72 87.588 212.72 195.63z"
           transform="matrix(-.51308 0 0 .53861 -57.825 414.68)"
           sodipodi:cy="300.65814"
           sodipodi:cx="370.64182" />
        <path
           id="path3774"
           style="fill:#231a18"
           inkscape:connector-curvature="0"
           d="m-240.72 471.56 4.3018 0.21438c38.931 9.3732 61.287 50.138 66.7 93.183 16.349-3.0143 24.313-18.112 14.435-44.119l2.9869 5.1879c7.7181 22.844 1.2381 41.674-16.736 45.505 0.6525 7.641 0.7681 15.308 0.3573 22.838 12.744-2.0606 23.083-5.0536 29.527-9.1182l-0.5717 4.6734c-7.1613 4.5421-17.324 7.8759-29.37 10.204-0.7404 8.0653-2.1091 15.922-4.1018 23.367 10.247-1.5838 18.011 0.13486 17.365 9.7184l-4.7306 6.4599c4.6928-11.615-3.0224-13.426-13.949-11.576-7.3398 23.656-21.345 42.489-42.089 49.45l-3.916 1.1005c20.606-11.043 33.742-28.839 40.846-49.478-11.751 2.833-25.339 8.4231-31.413 10.519-33.592 17.02-66.718 37.93-107.25 17.493l-2.2581-1.8722c32.29 17.685 68.986-0.75093 105.47-18.051 6.6982-2.1978 23.084-9.5967 36.944-12.791 2.2302-7.5665 3.6933-15.464 4.459-23.51-63.758 10.586-173.23-4.7192-183.51-22.552l0.057-4.6163c18.384 18.963 124 29.57 183.89 21.281 0.4027-7.5881 0.1952-15.271-0.5431-22.895-13.308 0.82448-31.646-5.4749-54.238-22.224-35.478-24.063-85.784-55.391-103.19-41.561l5.3595-5.6024c22.369-8.9861 71.829 20.278 102.67 43.39 17.767 13.58 35.274 19.85 48.606 19.323-6.4455-46.452-32.689-89.155-66.128-93.94z" />
        <path
           id="path3839"
           d="m-240.72 471.56 4.3018 0.21438c38.931 9.3732 61.287 50.138 66.7 93.183 16.349-3.0143 24.313-18.112 14.435-44.119l2.9869 5.1879c7.7181 22.844 1.2381 41.674-16.736 45.505 0.6525 7.641 0.7681 15.308 0.3573 22.838 12.744-2.0606 23.083-5.0536 29.527-9.1182l-0.5717 4.6734c-7.1613 4.5421-17.324 7.8759-29.37 10.204-0.7404 8.0653-2.1091 15.922-4.1018 23.367 10.247-1.5838 18.011 0.13486 17.365 9.7184l-4.7306 6.4599c4.6928-11.615-3.0224-13.426-13.949-11.576-7.3398 23.656-21.345 42.489-42.089 49.45l-3.916 1.1005c20.606-11.043 33.742-28.839 40.846-49.478-11.751 2.833-25.339 8.4231-31.413 10.519-33.592 17.02-66.718 37.93-107.25 17.493l-2.2581-1.8722c32.29 17.685 68.986-0.75093 105.47-18.051 6.6982-2.1978 23.084-9.5967 36.944-12.791 2.2302-7.5665 3.6933-15.464 4.459-23.51-63.758 10.586-173.23-4.7192-183.51-22.552l0.057-4.6163c18.384 18.963 124 29.57 183.89 21.281 0.4027-7.5881 0.1952-15.271-0.5431-22.895-13.308 0.82448-31.646-5.4749-54.238-22.224-35.478-24.063-85.784-55.391-103.19-41.561l5.3595-5.6024c22.369-8.9861 71.829 20.278 102.67 43.39 17.767 13.58 35.274 19.85 48.606 19.323-6.4455-46.452-32.689-89.155-66.128-93.94z"
           style="fill:url(#radialGradient3938)"
           inkscape:connector-curvature="0" />
      </g>
    </pattern>
    <filter
       id="filter5430"
       inkscape:collect="always"
       color-interpolation-filters="sRGB">
      <feGaussianBlur
         id="feGaussianBlur5432"
         stdDeviation="8.6898084"
         inkscape:collect="always" />
    </filter>
    <linearGradient
       id="linearGradient5481"
       y2="300.44"
       gradientUnits="userSpaceOnUse"
       x2="877.86"
       gradientTransform="translate(0 152.36)"
       y1="378.42"
       x1="342.04"
       inkscape:collect="always">
      <stop
         id="stop3781"
         style="stop-color:#552200"
         offset="0" />
      <stop
         id="stop3787"
         style="stop-color:#b3886b"
         offset=".5" />
      <stop
         id="stop3791"
         style="stop-color:#a67858"
         offset=".625" />
      <stop
         id="stop3789"
         style="stop-color:#c89a7b"
         offset=".75" />
      <stop
         id="stop3783"
         style="stop-color:#efc2a5"
         offset="1" />
    </linearGradient>
    <linearGradient
       id="linearGradient5483"
       y2="530.28"
       gradientUnits="userSpaceOnUse"
       x2="474.77"
       gradientTransform="translate(0 152.36)"
       y1="225.22"
       x1="652.56"
       inkscape:collect="always">
      <stop
         id="stop3805"
         style="stop-color:#ffffff"
         offset="0" />
      <stop
         id="stop3807"
         style="stop-color:#ffffff;stop-opacity:0"
         offset="1" />
    </linearGradient>
  </defs>
  <g
     id="layer1"
     inkscape:label="Layer 1"
     inkscape:groupmode="layer"
     transform="translate(0,-352.36)">
    <g
       id="g5536"
       transform="matrix(1,0,0,0.89815,-1.0363e-8,204.69)">
      <path
         id="rect5295"
         d="m 261.34,266.96 v 37.875 C 206.08,319.842 150.26,349.64 93.56,403.085 60.213,447.965 54.641,490.725 45,533.795 l 4.25,175.22 0.0312,1.1875 c 1.7027,0.37968 3.3956,0.77208 5.0938,1.125 1.7081,0.35508 3.3906,0.67443 5.0938,1 1.6933,0.32381 3.3743,0.64516 5.0624,0.9375 0.0101,0.002 0.0213,-0.002 0.0313,0 1.6779,0.29039 3.3589,0.55554 5.0313,0.8125 5.0573,0.7771 10.063,1.3839 15.062,1.8125 1.6632,0.14286 3.3128,0.27542 4.9688,0.375 0.0103,6.2e-4 0.021,-6.2e-4 0.0312,0 6.6134,0.39659 13.174,0.45034 19.656,0.0625 1.6231,-0.0973 3.2611,-0.22264 4.875,-0.375 4.8421,-0.45656 9.6226,-1.1615 14.375,-2.1562 l 4,-0.96875 c 38.84,45.421 76.225,91.339 134.59,130.25 19.59,17.149 42.873,27.219 71.531,27.094 0.86844,-0.004 1.7467,-0.009 2.625,-0.0312 3.2337,-0.0833 6.5357,-0.31225 9.9062,-0.65625 0.009,-0.003 0.0218,0.003 0.0312,0 0.0937,-0.01 0.18742,-0.0215 0.28125,-0.0312 0.18578,-0.0194 0.3763,-0.0423 0.5625,-0.0625 1.2178,-0.13211 2.4515,-0.27074 3.6875,-0.4375 2.488,-0.33576 5.0308,-0.74007 7.5938,-1.2188 0.58874,-0.11 1.1885,-0.22611 1.7812,-0.34375 0.0198,-0.004 0.0427,0.004 0.0625,0 1.322,-0.26288 2.6267,-0.57378 3.9688,-0.875 1.9692,-0.44188 3.9556,-0.91188 5.9688,-1.4375 0.77606,-0.20258 1.5611,-0.40983 2.3438,-0.625 0.22888,-0.0629 0.45805,-0.1235 0.6875,-0.1875 0.55818,-0.15571 1.126,-0.30662 1.6875,-0.46875 0.45202,-0.13054 0.92078,-0.27153 1.375,-0.40625 1.2328,-0.3657 2.4698,-0.7596 3.7188,-1.1562 0.82268,-0.26123 1.6702,-0.53773 2.5,-0.8125 0.89326,-0.29593 1.786,-0.59453 2.6875,-0.90625 0.15428,-0.0533 0.31422,-0.10246 0.46875,-0.15625 1.1205,-0.39025 2.2728,-0.80397 3.4062,-1.2188 2.0816,-0.76178 4.187,-1.5608 6.3125,-2.4062 0.14534,-0.0578 0.29196,-0.12929 0.4375,-0.1875 0.52579,-0.2103 1.0652,-0.44079 1.5938,-0.65625 0.0517,-0.0211 0.1045,-0.0414 0.15625,-0.0625 1.2368,-0.50514 2.4671,-0.99768 3.7188,-1.5312 0.23806,-0.10147 0.48015,-0.21 0.71875,-0.3125 0.21891,-0.0941 0.43688,-0.21756 0.65625,-0.3125 2.0243,-0.8759 4.0615,-1.7681 6.125,-2.7188 0.27892,-0.12852 0.5641,-0.27635 0.84375,-0.40625 2.0038,-0.93072 4.0525,-1.8731 6.0938,-2.875 0.30773,-0.15109 0.62891,-0.31603 0.9375,-0.46875 4.3823,-2.1685 8.8175,-4.4979 13.375,-7 65.545,-43.999 121.39,-96.301 195.59,-132.88 0.008,-0.004 0.0229,0.004 0.0312,0 2.474,-1.2192 4.9529,-2.4417 7.4688,-3.625 0.18457,-0.0868 0.3777,-0.16339 0.5625,-0.25 38.124,32.56 74.285,68.277 131.75,69.594 0.35205,0.11775 0.69556,0.2377 1.0625,0.34375 1.1688,0.33828 2.4158,0.62194 3.8125,0.78125 0.34923,0.0397 0.7257,0.0688 1.0938,0.0937 1.1039,0.0752 2.2876,0.0837 3.5938,0 0.43544,-0.028 0.88219,-0.0764 1.3438,-0.125 0.46156,-0.0486 0.94799,-0.11698 1.4375,-0.1875 0.96987,-0.13947 2.0034,-0.32839 3.0938,-0.5625 0.009,-0.002 0.0217,0.002 0.0312,0 2.747,-0.59153 5.8935,-1.4964 9.5625,-2.8125 0.73629,-0.26442 1.5024,-0.54589 2.2812,-0.84375 1.5577,-0.59572 3.1986,-1.2619 4.9375,-2 3.4777,-1.476 7.3346,-3.2604 11.625,-5.375 0.49478,-0.84965 1.0225,-1.6131 1.5625,-2.3438 0.005,-0.007 -0.005,-0.0246 0,-0.0312 1.6113,-2.1761 3.411,-3.9165 5.1875,-5.6562 0.59621,-0.58339 1.193,-1.177 1.7812,-1.7812 0.59293,-0.60925 1.1787,-1.209 1.75,-1.875 0.28348,-0.33008 0.56809,-0.68064 0.84375,-1.0312 0.27059,-0.34415 0.55104,-0.69439 0.8125,-1.0625 0.005,-0.007 -0.005,-0.0243 0,-0.0312 0.52752,-0.74419 1.0508,-1.5386 1.5312,-2.4062 0.004,-0.008 -0.004,-0.0233 0,-0.0312 0.2378,-0.43046 0.46364,-0.87668 0.6875,-1.3438 0.004,-0.008 -0.004,-0.0229 0,-0.0312 0.90742,-1.8985 1.701,-4.106 2.3125,-6.7812 0.002,-0.009 -0.002,-0.0217 0,-0.0312 0.30424,-1.3356 0.5703,-2.7945 0.78125,-4.375 10e-4,-0.0105 -10e-4,-0.0207 0,-0.0312 0.10395,-0.78737 0.2028,-1.6144 0.28125,-2.4688 0.0788,-0.85512 0.13588,-1.7611 0.1875,-2.6875 5.5e-4,-0.01 -5.5e-4,-0.0213 0,-0.0312 0.0513,-0.92806 0.10251,-1.9025 0.125,-2.9062 2.2e-4,-0.0101 -2.2e-4,-0.0212 0,-0.0312 0.11205,-5.077 -0.15647,-11.129 -0.90625,-18.469 -0.14996,-1.4679 -0.31057,-2.991 -0.5,-4.5625 -5.5571,-8.2704 -10.4,-16.771 -18.594,-24.25 -0.45523,-0.41551 -0.92961,-0.80966 -1.4062,-1.2188 -6.1963,-5.3182 -14.253,-10.075 -25.719,-13.812 -47.687,-26.005 -95.984,-51.678 -154.66,-71.406 15.461,0.11072 27.092,1.2113 31.844,3.3125 l -0.84375,-0.46875 c -6.5399,-2.3004 -18.295,-3.3891 -33,-3.5 -0.009,-0.003 -0.0219,0.003 -0.0312,0 -2.9458,-0.97968 -5.9067,-1.9572 -8.9062,-2.9062 l -0.0625,-0.21875 c 1.1505,-0.0193 2.2372,-0.0596 3.4688,-0.0625 l -3.5312,-0.125 -51.438,-220.34 c -12.91,-27.65 -28.58,-53.87 -77.09,-62.82 -55.83,-9.35 -111.77,-16.11 -168.16,-10.72 v -26.844 h -61.219 z"
         style="fill:#b3b3b3;filter:url(#filter5430)"
         inkscape:connector-curvature="0" />
      <g
         id="g5252"
         transform="translate(42.857,-2.8571)">
        <rect
           id="rect3958"
           style="fill:url(#pattern4772)"
           height="65.026001"
           width="61.221001"
           y="264.10999"
           x="268.5" />
        <path
           id="path3002"
           sodipodi:nodetypes="cccccccc"
           style="fill:url(#linearGradient5481)"
           inkscape:connector-curvature="0"
           d="M 135.71,710.93 627.85,590.93 575,364.51 C 562.06,336.83 546.37,310.6 497.86,301.65 367.53,279.82 236.67,272.07 100.71,400.22 67.365,445.11 61.784,487.87 52.143,530.93 l 4.2857,176.43 c 27.243,6.0748 53.94,8.8766 79.286,3.5714 z" />
        <path
           id="path3000"
           sodipodi:nodetypes="cccccc"
           style="fill:#4d4d4d;stroke:#000000;stroke-width:1px"
           inkscape:connector-curvature="0"
           d="m 624.29,683.08 c 48.026,36.467 86.862,87.779 157.86,87.143 33.901,-2.3053 51.337,-18.171 52.857,-47.143 -0.67188,-26.939 -8.7678,-47.938 -37.857,-52.143 l -145,-5 z" />
        <path
           id="path3801"
           d="m 772.14,768.08 c 35.348,10.348 78.045,-28.384 49.286,-72.143 -10.107,-17.835 -65.571,-44.625 -168.57,1.4286 -81.914,36.659 -140.79,93.063 -210.71,140 -77.908,42.772 -129.87,36.116 -167.86,2.8571 -67.78,-45.185 -107.24,-99.809 -153.57,-152.14 112.62,-39.288 226.24,-89.642 337.14,-110 85.658,-20.102 120.24,-5.3785 166.43,1.4286 l 2.1429,5.7143 c 63.728,20.149 115.06,47.379 165.71,75 28.223,9.1997 35.835,24.583 45.714,39.286 6.0617,50.287 -8.5122,46.406 -16.429,60 -34.323,16.917 -40.774,11.935 -49.286,8.5714 z"
           sodipodi:nodetypes="ccccccccccccc"
           style="fill:#ff6600"
           inkscape:connector-curvature="0" />
        <path
           id="path3006"
           style="fill:#000000"
           inkscape:connector-curvature="0"
           d="m 121.44,687.36 c -22.91,5.2427 -49.428,7.4808 -65.031,18.812 l 0.03125,1.1875 c 27.243,6.0748 53.935,8.8677 79.281,3.5625 l 3.9062,-0.9375 -18.188,-22.625 z" />
        <path
           id="path2998"
           style="fill:#aa4400"
           inkscape:connector-curvature="0"
           d="m 750.94,657.52 c -41.01,-0.42963 -89.849,15.344 -147.38,49.125 -81.756,53.231 -156.75,133.49 -245.19,160 24.094,-2.459 51.744,-11.693 83.781,-29.281 69.922,-46.937 128.77,-103.34 210.69,-140 103,-46.054 158.49,-19.272 168.59,-1.4375 28.759,43.759 -13.933,82.504 -49.281,72.156 8.5117,3.3633 14.958,8.3545 49.281,-8.5625 7.9164,-13.594 22.468,-9.7131 16.406,-60 -2.7634,-4.1127 -5.3719,-8.2748 -8.2812,-12.344 -10.617,-12.632 -25.693,-21.378 -46,-25.531 -10.275,-2.6233 -21.142,-4.0047 -32.625,-4.125 z" />
        <path
           id="path3813"
           d="m 143.47,680.2 c 46.233,52.576 89.965,106.14 152.75,142.16 63.822,34.311 92.28,-2.1076 129.29,-21.429 55.224,-40.723 105.45,-84.443 169.29,-120 48.333,-29.468 96.667,-43.843 145,-37.143 18.654,0.91929 30.384,5.3407 39.688,10"
           sodipodi:nodetypes="cccccc"
           style="fill:none;stroke:#000000;stroke-width:1px"
           inkscape:connector-curvature="0" />
        <path
           id="path3815"
           sodipodi:nodetypes="cccccc"
           style="fill:none;stroke:#000000;stroke-width:0.93795px"
           inkscape:connector-curvature="0"
           d="m 165.76,671.92 c 43.364,49.314 84.269,98.878 143.16,132.67 59.862,32.182 86.553,-1.9768 121.26,-20.099 51.798,-38.196 98.908,-79.203 158.78,-112.55 45.334,-27.639 90.668,-41.122 136,-34.838 17.497,0.86225 27.223,4.6936 35.95,9.0638" />
        <path
           id="path3817"
           sodipodi:nodetypes="cc"
           style="fill:none;stroke:#000000;stroke-width:1px"
           inkscape:connector-curvature="0"
           d="m 143.32,680.31 22.792,-8.3969" />
        <path
           id="path3819"
           sodipodi:nodetypes="cc"
           style="fill:none;stroke:#000000;stroke-width:1px"
           inkscape:connector-curvature="0"
           d="m 759.76,645.78 19.761,8.0181" />
        <path
           id="path3822"
           style="fill:#552200"
           inkscape:connector-curvature="0"
           d="m 331.22,834.3 c -12.462,-2.2408 -26.909,-8.1503 -41.864,-17.124 -37.479,-22.489 -72.419,-54.551 -125.25,-114.93 -8.5935,-9.8214 -16.394,-18.699 -17.333,-19.728 l -1.7089,-1.8704 9.9015,-3.6653 c 5.4458,-2.0159 10.109,-3.6653 10.362,-3.6653 0.25322,0 7.6108,8.1161 16.35,18.036 50.219,57.001 78.54,83.356 114.19,106.26 14.731,9.4652 26.763,15.06 40.243,18.714 4.9753,1.3484 7.6573,1.5792 18.328,1.5768 10.62,-0.002 13.328,-0.23444 18.003,-1.5432 8.3948,-2.3501 16.92,-6.2757 27.629,-12.722 32.842,-19.77 31.272,-18.656 96.511,-68.502 10.93,-8.3513 29.843,-22.266 32.857,-24.175 1.6967,-1.0742 1.9922,-1.0132 5.9269,1.224 l 4.1412,2.3545 -9.4984,6.6472 c -11.802,8.259 -27.181,19.767 -70.837,53.008 -20.634,15.711 -37.347,27.886 -42.143,30.699 -4.371,2.5638 -12.769,7.6533 -18.662,11.31 -13.91,8.6312 -19.211,11.421 -27.602,14.529 -12.405,4.5936 -26.685,5.8834 -39.541,3.5716 z" />
        <path
           id="path3824"
           style="fill:#552200"
           inkscape:connector-curvature="0"
           d="m 549.33,702.76 c -1.823,-1.0737 -3.3799,-2.2405 -3.4599,-2.5931 -0.08,-0.35252 1.7215,-1.8303 4.0034,-3.284 l 4.1488,-2.6431 3.5968,2.1002 c 1.9783,1.1551 3.8494,2.3391 4.1581,2.631 0.53754,0.50833 -7.2725,5.7784 -8.5261,5.7532 -0.33365,-0.007 -2.0982,-0.89063 -3.9211,-1.9643 z" />
        <path
           id="path3826"
           style="fill:#552200"
           inkscape:connector-curvature="0"
           d="m 541.4,707.75 c -1.8645,-1.0691 -3.3913,-2.1393 -3.3929,-2.3782 -0.002,-0.23895 1.6402,-1.5847 3.6484,-2.9905 l 3.6513,-2.5561 1.8844,1.7545 c 1.0364,0.96497 2.9314,2.135 4.211,2.6002 l 2.3266,0.84569 -3.7552,2.3385 c -2.0653,1.2862 -4.0766,2.3366 -4.4694,2.3342 -0.39286,-0.002 -2.2398,-0.87906 -4.1042,-1.9482 z" />
        <path
           id="path3828"
           style="fill:#552200"
           inkscape:connector-curvature="0"
           d="m 536.4,711.3 c -1.8604,-1.0566 -3.3872,-2.1402 -3.3928,-2.4081 -0.006,-0.26789 0.954,-1.1737 2.1326,-2.0129 l 2.1429,-1.5258 2.0943,1.4913 c 1.1519,0.8202 3.1141,1.9201 4.3605,2.4442 l 2.2662,0.95287 -2.4805,1.5331 c -3.0415,1.8798 -2.9692,1.8846 -7.1231,-0.47446 z" />
        <path
           id="path3830"
           style="fill:#552200"
           inkscape:connector-curvature="0"
           d="m 333.36,834.27 c -18.236,-2.8874 -40.518,-13.827 -66.429,-32.615 -28.523,-20.682 -57.389,-48.745 -102.29,-99.45 -8.716,-9.8414 -16.502,-18.726 -17.303,-19.744 l -1.4557,-1.8506 9.6779,-3.4006 c 8.2349,-2.8936 9.8154,-3.2512 10.6,-2.3988 4.322,4.6984 17.565,19.391 25.368,28.145 25.188,28.257 51.014,54.098 69.337,69.375 20.794,17.338 44.112,32.488 60.232,39.134 11.993,4.9447 26.034,8.1303 27.239,6.1802 0.38174,-0.61768 0.76204,-0.62441 1.4828,-0.0263 0.65708,0.54533 3.9156,0.69523 10.115,0.46532 9.9623,-0.36945 16.125,-1.8984 26.203,-6.5011 6.0968,-2.7843 25.493,-14.256 36.822,-21.778 4.4908,-2.9818 8.9298,-5.85 9.8645,-6.3738 0.93467,-0.52386 12.046,-8.7398 24.692,-18.258 59.202,-44.558 66.786,-50.229 70.021,-52.362 l 3.4565,-2.2787 3.9351,1.9253 3.9351,1.9253 -1.6773,1.2093 c -18.541,13.367 -37.633,27.467 -53.106,39.221 -54.365,41.297 -61.377,46.296 -83.769,59.722 -27.784,16.659 -35.589,19.526 -54.088,19.872 -5.8929,0.1103 -11.679,0.0479 -12.857,-0.13872 z" />
        <path
           id="path3832"
           style="fill:#552200"
           inkscape:connector-curvature="0"
           d="m 558.89,696.69 c -2.0625,-1.26 -3.75,-2.5014 -3.75,-2.7586 0,-0.64883 7.0937,-5.1419 8.1052,-5.1338 0.45286,0.004 2.5146,1.0513 4.5815,2.3282 l 3.7582,2.3216 -4.318,2.7908 c -2.3749,1.535 -4.3875,2.78 -4.4725,2.7668 -0.085,-0.0132 -1.842,-1.055 -3.9045,-2.315 z" />
        <path
           id="path3834"
           style="fill:#552200"
           inkscape:connector-curvature="0"
           d="m 568.36,691.1 c -1.9643,-1.1359 -3.8929,-2.1918 -4.2857,-2.3466 -0.88575,-0.3489 1.1425,-1.9693 5.3572,-4.2798 l 3.2143,-1.7621 3.8428,2.2626 c 2.1135,1.2444 3.7592,2.5841 3.657,2.9769 -0.10217,0.39286 -1.9921,1.7268 -4.1999,2.9642 l -4.0141,2.25 -3.5714,-2.0652 z" />
        <path
           id="path3836"
           style="fill:#552200"
           inkscape:connector-curvature="0"
           d="m 576.78,684.89 -3.7242,-2.5465 4.4385,-2.681 4.4385,-2.6811 3.2143,1.8486 c 6.2148,3.5742 6.1518,3.2136 1.0711,6.1358 -2.5186,1.4486 -4.8345,2.5971 -5.1466,2.5522 -0.31204,-0.0448 -2.2433,-1.2274 -4.2916,-2.628 z" />
        <path
           id="path3838"
           style="fill:#552200"
           inkscape:connector-curvature="0"
           d="m 586.78,679.48 c -2.0494,-1.2342 -3.7369,-2.41 -3.75,-2.6128 -0.0345,-0.53276 7.55,-4.9883 8.4914,-4.9883 0.43563,0 2.5967,1.0185 4.8024,2.2633 3.7454,2.1138 3.9217,2.3299 2.6678,3.2713 -1.4198,1.0659 -7.9392,4.5196 -8.2831,4.388 -0.11127,-0.0426 -1.8791,-1.0872 -3.9284,-2.3214 z" />
        <path
           id="path3840"
           style="fill:#552200"
           inkscape:connector-curvature="0"
           d="m 599.39,675.76 c -0.44768,-0.53941 -2.3859,-1.7278 -4.3071,-2.641 l -3.4931,-1.6602 4.8007,-2.7612 4.8007,-2.7611 3.9141,2.1778 c 2.1528,1.1978 4.0121,2.4718 4.1319,2.8312 0.11978,0.35936 -1.8637,1.8103 -4.4078,3.2243 -3.8317,2.1297 -4.7653,2.4026 -5.4395,1.5902 z" />
        <path
           id="path3842"
           style="fill:#552200"
           inkscape:connector-curvature="0"
           d="m 609.06,670.44 c -0.24786,-0.40104 -2.042,-1.638 -3.9871,-2.7489 l -3.5364,-2.0198 4.1666,-2.2208 4.1666,-2.2208 4.2426,2.545 c 2.3334,1.3997 4.3555,2.6508 4.4934,2.7801 0.243,0.22774 -8.0844,4.6144 -8.7598,4.6144 -0.18444,0 -0.53814,-0.32813 -0.786,-0.72917 z" />
        <path
           id="path3844"
           style="fill:#552200"
           inkscape:connector-curvature="0"
           d="m 614.87,663.78 -4.2062,-2.8473 4.7497,-2.3945 4.7497,-2.3945 4.6141,2.6538 c 2.5378,1.4596 4.5432,2.7138 4.4566,2.7872 -0.0867,0.0734 -2.4076,1.2379 -5.1576,2.588 l -5,2.4546 -4.2062,-2.8473 z" />
        <path
           id="path3846"
           style="fill:#552200"
           inkscape:connector-curvature="0"
           d="m 625.31,658.72 c -2.0692,-1.285 -3.9194,-2.4936 -4.1116,-2.6858 -0.38678,-0.38678 8.8418,-4.1501 10.177,-4.1501 0.46167,0 2.6888,1.1141 4.9492,2.4757 l 4.1098,2.4757 -2.6454,1.0957 c -1.455,0.60266 -3.8097,1.5779 -5.2326,2.1672 -3.2056,1.3275 -2.7493,1.4143 -7.2463,-1.3784 z" />
        <path
           id="path3848"
           style="fill:#552200"
           inkscape:connector-curvature="0"
           d="m 637.45,653.47 -4.48,-2.6301 5.8054,-2.2378 5.8054,-2.2378 4.5083,2.5796 c 2.4796,1.4188 4.2938,2.7687 4.0317,2.9997 -0.38155,0.3364 -7.1221,2.8647 -10.477,3.9297 -0.39285,0.12473 -2.7303,-0.95676 -5.1943,-2.4033 z" />
        <path
           id="path3850"
           style="fill:#552200"
           inkscape:connector-curvature="0"
           d="m 649.82,649 c -4.84,-3.1393 -5.0065,-2.8968 3.6564,-5.3261 l 4.4023,-1.2345 4.6493,2.7844 4.6493,2.7844 -5.8373,1.6532 c -3.2105,0.90923 -6.1587,1.7532 -6.5516,1.8755 -0.39286,0.12227 -2.6286,-1.0194 -4.9684,-2.537 z" />
        <path
           id="path3852"
           style="fill:#552200"
           inkscape:connector-curvature="0"
           d="m 662.68,644.97 -4.2456,-2.6586 3.4638,-0.88363 c 3.3883,-0.86437 3.5626,-0.82684 7.9939,1.7218 4.8546,2.7922 4.8298,3.3616 -0.17799,4.0794 -2.3635,0.33877 -3.4355,-0.006 -7.0341,-2.259 z" />
        <path
           id="path3854"
           style="fill:#552200"
           inkscape:connector-curvature="0"
           d="m 672.68,644.77 c -0.69315,-0.76592 -2.5358,-2.0237 -4.0948,-2.795 l -2.8345,-1.4024 3.9426,-0.81848 c 3.8965,-0.80891 3.9979,-0.78667 8.6694,1.9001 l 4.7268,2.7186 -4.1496,0.86368 c -2.2823,0.47503 -4.3409,0.87771 -4.5746,0.89485 -0.23375,0.0171 -0.99213,-0.5955 -1.6853,-1.3614 z" />
        <path
           id="path3856"
           style="fill:#552200"
           inkscape:connector-curvature="0"
           d="m 679.07,641.56 c -4.8285,-2.7525 -4.6891,-2.9309 2.9832,-3.8183 5.0829,-0.58788 5.1629,-0.57073 9.4985,2.037 l 4.3724,2.6298 -5.4205,0.80621 c -7.116,1.0584 -6.5238,1.1441 -11.434,-1.6547 z" />
        <path
           id="path3858"
           style="fill:#552200"
           inkscape:connector-curvature="0"
           d="m 694.43,641.23 c -0.98215,-0.72655 -3.0667,-2.0021 -4.6323,-2.8345 l -2.8466,-1.5135 2.4894,0.009 c 3.1585,0.0113 11.491,4.536 9.6528,5.2415 -1.842,0.70684 -2.7168,0.53756 -4.6633,-0.90241 z" />
        <path
           id="path3860"
           style="fill:#552200"
           inkscape:connector-curvature="0"
           d="m 699.43,641.23 c 0,-0.35772 -1.5855,-1.4405 -3.5234,-2.4062 l -3.5234,-1.7558 3.702,-0.44474 c 6.5084,-0.7819 8.251,-0.52238 12.463,1.8561 l 4.0963,2.3133 -2.1428,0.45936 c -3.3431,0.71663 -11.071,0.70126 -11.071,-0.022 z" />
        <path
           id="path3862"
           style="fill:#552200"
           inkscape:connector-curvature="0"
           d="m 718.85,641.35 c -4.2693,-0.20229 -5.8449,-0.63178 -8.6504,-2.3581 -1.8867,-1.1609 -3.8502,-2.1107 -4.3633,-2.1107 -0.51309,0 -0.78527,-0.14763 -0.60483,-0.32807 0.18044,-0.18044 3.7102,-0.0574 7.8439,0.27349 6.6039,0.52857 7.9435,0.87006 11.041,2.8145 2.8657,1.799 3.1911,2.1889 1.7394,2.0846 -0.98214,-0.0706 -4.1347,-0.23967 -7.0058,-0.37571 z" />
        <path
           id="path3864"
           style="fill:#552200"
           inkscape:connector-curvature="0"
           d="m 738.59,643.04 c -2.2292,-0.29194 -8.2572,-0.89265 -10.893,-1.0855 -1.0312,-0.0755 -1.6493,-0.16521 -1.3733,-0.19944 0.2842,-0.0353 0.47239,-0.15341 0.43413,-0.27257 -0.10346,-0.32228 -2.5511,-1.9701 -4.1501,-2.7939 -1.9336,-0.99627 -3.5378,-1.3741 -7.2321,-1.7034 -1.7188,-0.15321 -3.5268,-0.35207 -4.0179,-0.4419 -2.2359,-0.40901 6.6125,0.22843 11.161,0.80403 1.1295,0.14293 3.6607,0.38296 5.625,0.53338 1.9643,0.15043 3.8527,0.32285 4.1964,0.38316 0.50942,0.0894 8.2385,4.3888 8.8304,4.912 0.21835,0.19303 -0.26339,0.16769 -2.5804,-0.13574 z" />
        <path
           id="path3866"
           style="fill:#552200"
           inkscape:connector-curvature="0"
           d="m 753.93,644.75 c -1.0287,-0.24401 -7.1864,-1.0206 -9.9895,-1.2599 -2.172,-0.18539 -2.6756,-0.28441 -3.125,-0.61443 -0.62511,-0.45907 -3.5311,-2.1354 -6.1799,-3.5649 -1.636,-0.88289 -1.7712,-0.99034 -1.1415,-0.9069 0.39286,0.052 1.1161,0.1441 1.6071,0.20454 1.8896,0.23259 5.9994,1.0246 8.3929,1.6175 4.6003,1.1395 6.9874,1.9724 9.0179,3.1467 2.868,1.6586 2.9535,1.7416 1.418,1.3774 z" />
        <path
           id="path3870"
           style="fill:#552200"
           inkscape:connector-curvature="0"
           d="m 640.45,656.92 c 0.10642,-0.17219 -4.3188,-2.8536 -6.9918,-4.2367 -1.1005,-0.56942 -1.8229,-0.83301 -2.24,-0.81733 -0.33857,0.0127 -1.5247,0.34746 -2.6359,0.74385 -2.0298,0.72407 -2.5402,0.85516 -2.2193,0.56995 0.37079,-0.3295 10.729,-4.4921 11.178,-4.4921 0.0839,0 0.15168,0.0603 0.15074,0.13392 -9.5e-4,0.0737 -0.74425,0.40939 -1.6518,0.74605 -0.90753,0.33667 -2.0099,0.76352 -2.4496,0.94857 l -0.79955,0.33644 2.4067,1.4198 c 2.7856,1.6433 5.5698,3.1042 6.6264,3.477 0.69161,0.24402 0.81302,0.23227 1.9908,-0.19256 2.2471,-0.81057 1.6385,-0.36995 -0.81373,0.58916 -2.481,0.97034 -2.7162,1.0417 -2.5507,0.77396 z" />
        <path
           id="path3874"
           style="fill:#552200"
           inkscape:connector-curvature="0"
           d="m 537.98,713.46 c -4.0298,-2.4003 -6.3885,-3.4429 -7.3062,-3.2298 -0.77544,0.18007 -0.69939,0.0493 0.52044,-0.8947 1.4495,-1.1218 2.1989,-1.4368 1.771,-0.74454 -0.41958,0.67889 4.4834,3.835 6.9179,4.4531 1.555,0.39483 1.5567,0.397 0.72055,0.93765 -0.7798,0.50423 -0.9622,0.46796 -2.6238,-0.52171 z" />
        <path
           id="path2996"
           sodipodi:nodetypes="ccccccccccccc"
           style="fill:url(#linearGradient5483)"
           inkscape:connector-curvature="0"
           d="m 772.14,768.08 c 35.348,10.348 78.045,-28.384 49.286,-72.143 -10.107,-17.835 -65.571,-44.625 -168.57,1.4286 -81.914,36.659 -140.79,93.063 -210.71,140 -77.908,42.772 -129.87,36.116 -167.86,2.8571 -67.78,-45.185 -107.24,-99.809 -153.57,-152.14 112.62,-39.288 226.24,-89.642 337.14,-110 85.658,-20.102 120.24,-5.3785 166.43,1.4286 l 2.1429,5.7143 c 63.728,20.149 115.06,47.379 165.71,75 28.223,9.1997 35.835,24.583 45.714,39.286 6.0617,50.287 -8.5122,46.406 -16.429,60 -34.323,16.917 -40.774,11.935 -49.286,8.5714 z" />
        <path
           id="path3774-8"
           style="fill:#231a18"
           inkscape:connector-curvature="0"
           d="m 189.34,385.58 -5.3372,0.25377 c -48.3,11.1 -76.03,59.35 -82.75,110.31 -20.284,-3.57 -30.164,-21.44 -17.909,-52.23 l -3.7059,6.1412 c -9.5756,27.041 -1.536,49.332 20.764,53.867 -0.80953,9.045 -0.95287,18.121 -0.44329,27.035 -15.811,-2.4392 -28.638,-5.9822 -36.633,-10.794 l 0.70926,5.5321 c 8.8849,5.3767 21.493,9.323 36.438,12.079 0.91856,9.5473 2.6167,18.847 5.0889,27.661 -12.713,-1.8748 -22.345,0.15964 -21.544,11.504 l 5.8691,7.6469 c -5.8222,-13.749 3.7498,-15.893 17.306,-13.704 9.1062,28.002 26.482,50.296 52.219,58.536 l 4.8584,1.3027 c -25.566,-13.072 -41.863,-34.138 -50.677,-58.57 14.579,3.3535 31.438,9.9708 38.974,12.452 41.676,20.147 82.775,44.899 133.06,20.708 l 2.8016,-2.2162 c -40.061,20.934 -85.589,-0.8889 -130.86,-21.367 -8.3102,-2.6017 -28.639,-11.36 -45.836,-15.142 -2.767,-8.9568 -4.5822,-18.305 -5.5322,-27.83 79.103,12.531 214.92,-5.5863 227.67,-26.696 l -0.0709,-5.4645 c -22.808,22.448 -153.84,35.004 -228.15,25.191 -0.49965,-8.9824 -0.24222,-18.077 0.6738,-27.102 16.511,0.97598 39.262,-6.4809 67.291,-26.307 44.017,-28.484 106.43,-65.569 128.02,-49.197 l -6.6493,-6.6318 c -27.753,-10.637 -89.116,24.004 -127.38,51.363 -22.043,16.075 -43.764,23.497 -60.305,22.873 7.9968,-54.987 40.557,-105.54 82.044,-111.2 z" />
        <path
           id="path4866"
           style="fill:#ffffff"
           inkscape:connector-curvature="0"
           d="m 497.81,609.58 c 0,0 -1.5456,-0.68947 -1.5456,-0.68947 -18.879,-4.0719 -58.307,4.0318 -102.99,18.432 -1.5934,-4.8363 12.037,-11.976 39.61,-18.486 l -5.5363,1.0438 c -24.349,5.9966 -42.833,14.32 -41.839,19.992 -9.3648,3.1246 -19.041,6.5434 -28.852,10.203 -1.0447,-4.2504 -0.13643,-8.1708 3.2212,-11.476 l -5.8503,2.1412 c -3.9528,3.7936 -5.5234,7.9522 -5.1792,12.285 -11.41,4.3748 -22.968,9.0697 -34.352,13.99 -0.36298,-4.0342 -5.3689,-5.3649 -21.462,0.47016 l -10.357,5.58 c 19.26,-8.652 24.478,-7.364 24.473,-2.8383 -42.271,18.766 -80.796,40.287 -93.366,56.816 0,0 -1.9741,3.1162 -1.9741,3.1162 22.748,-20.649 58.382,-40.816 94.996,-57.612 -1.5022,5.7169 -7.6003,14.348 -9.7094,18.112 -24.796,28.258 -67.149,69 -0.94776,65.386 l 5.2293,-1.1107 c -55.522,4.6407 -22.151,-35 1.5225,-64.627 2.0077,-4.0371 10.152,-14.711 11.438,-21.164 11.605,-5.1627 23.282,-9.9958 34.735,-14.447 4.8154,25.269 69.665,52.873 97.355,42.921 l 5.4792,-3.3285 c -31.904,7.4717 -87.203,-20.912 -94.809,-42.667 9.9408,-3.7457 19.711,-7.2047 29.124,-10.353 3.1881,3.561 16.409,5.2345 42.088,3.3273 35.347,-1.8682 78.929,-3.215 75.172,6.2974 l 2.2194,-3.5948 c -1.7338,-8.3875 -42.894,-7.7965 -75.188,-5.4181 -20.141,1.576 -32.765,0.11226 -36.348,-3.2213 48.131,-15.528 89.666,-23.499 103.64,-19.081 h -10e-6" />
        <path
           id="path5056"
           style="fill:#ffffff"
           inkscape:connector-curvature="0"
           d="m 669.32,592.13 -0.83583,-0.47369 c -10.866,-3.822 -36.068,-4.3072 -65.414,-2.5017 -0.23852,-2.3507 9.1286,-4.1413 26.88,-4.1826 l -3.5245,-0.11057 c -15.713,0.14827 -28.211,1.9635 -28.463,4.6282 -6.167,0.4264 -12.568,0.95292 -19.087,1.5738 0.007,-2.0286 1.1511,-3.7029 3.6922,-4.8422 l -3.8812,0.35185 c -2.9768,1.2972 -4.56,3.0094 -5.0052,5.0018 -7.5999,0.77582 -15.338,1.6807 -23.004,2.7055 0.38856,-1.8593 -2.4548,-2.9861 -13.123,-2.0432 l -7.1415,1.4306 c 13.02,-1.8818 15.998,-0.752 15.312,1.2905 -28.541,4.0293 -55.22,9.6962 -65.361,15.837 l -1.6712,1.1993 c 16.953,-6.931 41.669,-12.29 66.472,-16.025 -1.777,2.4229 -6.789,5.6782 -8.6402,7.1562 -19.347,10.151 -51.257,24.093 -10.452,29.418 0,0 3.3479,0.0481 3.3479,0.0481 -34.466,-3.7397 -8.1846,-18.128 10.687,-29.015 1.8307,-1.6115 8.3957,-5.5742 10.153,-8.3522 7.8374,-1.111 15.669,-2.0658 23.306,-2.8718 -0.88796,11.913 34.381,31.189 52.723,29.607 l 3.8348,-0.92679 c -20.531,0.0203 -49.873,-18.604 -51.213,-29.224 6.6111,-0.64626 13.075,-1.1811 19.275,-1.613 1.401,1.9426 9.1881,4.0873 25.093,5.9249 21.778,2.8712 48.486,6.8431 44.764,10.742 l 1.8926,-1.3896 c 0.21241,-3.9686 -24.908,-8.0272 -44.906,-10.347 -12.487,-1.4051 -19.943,-3.3925 -21.618,-5.274 31.615,-1.9517 58.079,-1.1854 65.91,2.2774 h -10e-6" />
      </g>
    </g>
  </g>
  <metadata
     id="metadata72">
    <rdf:RDF>
      <cc:Work>
        <dc:format>image/svg+xml</dc:format>
        <dc:type
           rdf:resource="http://purl.org/dc/dcmitype/StillImage" />
        <cc:license
           rdf:resource="http://creativecommons.org/licenses/publicdomain/" />
        <dc:publisher>
          <cc:Agent
             rdf:about="http://openclipart.org/">
            <dc:title>Openclipart</dc:title>
          </cc:Agent>
        </dc:publisher>
        <dc:title>cap</dc:title>
        <dc:date>2012-06-18T12:23:38</dc:date>
        <dc:description>A simple cap clipart.</dc:description>
        <dc:source>https://openclipart.org/detail/170754/cap-by-hatalar205-170754</dc:source>
        <dc:creator>
          <cc:Agent>
            <dc:title>hatalar205</dc:title>
          </cc:Agent>
        </dc:creator>
        <dc:subject>
          <rdf:Bag>
            <rdf:li>basketball</rdf:li>
            <rdf:li>cap</rdf:li>
            <rdf:li>sport</rdf:li>
          </rdf:Bag>
        </dc:subject>
      </cc:Work>
      <cc:License
         rdf:about="http://creativecommons.org/licenses/publicdomain/">
        <cc:permits
           rdf:resource="http://creativecommons.org/ns#Reproduction" />
        <cc:permits
           rdf:resource="http://creativecommons.org/ns#Distribution" />
        <cc:permits
           rdf:resource="http://creativecommons.org/ns#DerivativeWorks" />
      </cc:License>
    </rdf:RDF>
  </metadata>
</svg>
