<?xml version="1.0" encoding="UTF-8" standalone="no"?>
<svg
   xmlns:dc="http://purl.org/dc/elements/1.1/"
   xmlns:cc="http://creativecommons.org/ns#"
   xmlns:rdf="http://www.w3.org/1999/02/22-rdf-syntax-ns#"
   xmlns:svg="http://www.w3.org/2000/svg"
   xmlns="http://www.w3.org/2000/svg"
   xmlns:sodipodi="http://sodipodi.sourceforge.net/DTD/sodipodi-0.dtd"
   xmlns:inkscape="http://www.inkscape.org/namespaces/inkscape"
   id="svg2"
   sodipodi:docname="cello.svg"
   viewBox="0 0 332.59842 472.44094"
   sodipodi:version="0.32"
   version="1.0"
   inkscape:output_extension="org.inkscape.output.svg.inkscape"
   inkscape:version="1.0.2-2 (e86c870879, 2021-01-15)"
   width="88mm"
   height="125mm">
  <defs
     id="defs4">
    <radialGradient
       id="radialGradient4838"
       gradientUnits="userSpaceOnUse"
       cy="458.69"
       cx="418.04001"
       gradientTransform="matrix(-0.83487276,0.77658146,-0.61059176,-0.65644348,1087.0958,218.7127)"
       r="139.24001"
       inkscape:collect="always">
      <stop
         id="stop4834"
         style="stop-color:#b77032"
         offset="0" />
      <stop
         id="stop4836"
         style="stop-color:#b77032;stop-opacity:0"
         offset="1" />
    </radialGradient>
    <radialGradient
       id="radialGradient4850"
       gradientUnits="userSpaceOnUse"
       cy="340.25"
       cx="360.81"
       gradientTransform="matrix(2.7844137,-2.9310961,3.4047195,3.2342962,-1739.0508,199.45894)"
       r="20.944"
       inkscape:collect="always">
      <stop
         id="stop4846"
         style="stop-color:#1c1a1a"
         offset="0" />
      <stop
         id="stop4848"
         style="stop-color:#b3b3b3;stop-opacity:0"
         offset="1" />
    </radialGradient>
    <radialGradient
       id="radialGradient4858"
       gradientUnits="userSpaceOnUse"
       cy="73.422997"
       cx="363.29999"
       gradientTransform="matrix(0.57530802,1.1374387,-0.9775425,0.49441994,372.32655,-378.32693)"
       r="8.5184002"
       inkscape:collect="always">
      <stop
         id="stop4854"
         style="stop-color:#7d2d0e"
         offset="0" />
      <stop
         id="stop4856"
         style="stop-color:#7d2d0e;stop-opacity:0"
         offset="1" />
    </radialGradient>
    <radialGradient
       id="radialGradient4866"
       gradientUnits="userSpaceOnUse"
       cy="121.29"
       cx="363.29999"
       gradientTransform="matrix(0.31593811,1.633724,-1.7217615,0.33295976,592.70255,-540.64287)"
       r="9.0228996"
       inkscape:collect="always">
      <stop
         id="stop4862"
         style="stop-color:#343534"
         offset="0" />
      <stop
         id="stop4864"
         style="stop-color:#803300;stop-opacity:0"
         offset="1" />
    </radialGradient>
  </defs>
  <sodipodi:namedview
     id="base"
     bordercolor="#666666"
     inkscape:pageshadow="2"
     inkscape:window-y="-8"
     pagecolor="#ffffff"
     inkscape:window-height="1017"
     inkscape:zoom="0.74594091"
     inkscape:window-x="-8"
     borderopacity="1.0"
     inkscape:current-layer="layer4"
     inkscape:cx="297.0111"
     inkscape:cy="492.66782"
     inkscape:window-width="1920"
     inkscape:pageopacity="0.0"
     inkscape:document-units="px"
     inkscape:document-rotation="0"
     showgrid="false"
     units="mm"
     inkscape:window-maximized="1" />
  <g
     id="layer4"
     inkscape:label="najwyz"
     inkscape:groupmode="layer"
     transform="translate(-227.55,-58.142)">
    <path
       id="path4840"
       sodipodi:nodetypes="cssccsccsssssccscccscc"
       style="fill:#7d2d0e;fill-rule:evenodd;stroke:#000000;stroke-width:0.539962px"
       d="m 445.03577,189.80631 c -17.86513,-6.85983 -35.40991,-9.72463 -54.67991,3.34422 -13.89226,9.41448 -20.19823,25.90302 -21.3667,35.87193 -1.06839,9.15708 -5.4716,16.23837 -11.02722,17.98586 -0.1166,2.978 0.0239,0.46353 -0.21603,3.41071 17.27973,3.51079 9.28803,18.91323 6.13625,25.07109 -9.62993,18.83907 -22.60988,22.93433 -34.65578,15.9751 l -2.82957,1.6914 c 5.15244,11.304 -16.11841,22.51064 -24.12295,34.10016 -11.26919,16.31834 -12.80483,35.12232 -6.72859,50.37026 7.43227,18.6586 25.58192,29.07412 46.47547,39.11712 23.75185,11.42553 36.65452,14.62818 51.20544,12.38745 23.13189,-3.55307 39.16977,-22.07408 42.23627,-37.26052 5.04475,-24.97799 3.18786,-37.99004 13.40783,-41.01001 l -0.0175,-3.24301 c -21.67619,-3.31655 -13.8822,-26.99604 -9.3962,-36.53599 4.27084,-9.06807 11.39029,-17.28241 23.5854,-10.95414 l 2.57963,-1.95346 c -3.01079,-7.71585 2.77284,-12.37424 6.71583,-17.67128 8.72119,-10.66313 18.64672,-23.55589 15.82098,-43.45531 -1.9821,-13.97739 -9.97151,-28.83975 -28.99472,-40.16885 z" />
    <path
       id="path2844"
       sodipodi:nodetypes="cssccsccsssssccscccscc"
       style="fill:url(#radialGradient4838);fill-rule:evenodd;stroke:#000000;stroke-width:0.539962px"
       d="m 445.03577,189.80631 c -17.86513,-6.85983 -35.40991,-9.72463 -54.67991,3.34422 -13.89226,9.41448 -20.19823,25.90302 -21.3667,35.87193 -1.06839,9.15708 -5.4716,16.23837 -11.02722,17.98586 -0.1166,2.978 0.0239,0.46353 -0.21603,3.41071 17.27973,3.51079 9.28803,18.91323 6.13625,25.07109 -9.62993,18.83907 -22.60988,22.93433 -34.65578,15.9751 l -2.82957,1.6914 c 5.15244,11.304 -16.11841,22.51064 -24.12295,34.10016 -11.26919,16.31834 -12.80483,35.12232 -6.72859,50.37026 7.43227,18.6586 25.58192,29.07412 46.47547,39.11712 23.75185,11.42553 36.65452,14.62818 51.20544,12.38745 23.13189,-3.55307 39.16977,-22.07408 42.23627,-37.26052 5.04475,-24.97799 3.18786,-37.99004 13.40783,-41.01001 l -0.0175,-3.24301 c -21.67619,-3.31655 -13.8822,-26.99604 -9.3962,-36.53599 4.27084,-9.06807 11.39029,-17.28241 23.5854,-10.95414 l 2.57963,-1.95346 c -3.01079,-7.71585 2.77284,-12.37424 6.71583,-17.67128 8.72119,-10.66313 18.64672,-23.55589 15.82098,-43.45531 -1.9821,-13.97739 -9.97151,-28.83975 -28.99472,-40.16885 z" />
    <path
       id="path2846"
       sodipodi:nodetypes="csscscssssscsccscc"
       style="fill:none;stroke:#000000;stroke-width:0.523547px"
       d="m 444.38122,191.86192 c -17.08834,-6.50602 -33.91469,-9.10611 -52.58852,3.90202 -13.45293,9.37864 -19.69987,25.57713 -20.93929,35.34835 -1.13205,8.96902 -5.28851,15.62417 -10.64115,17.39969 12.84921,3.65204 13.29697,12.21529 5.35924,27.80102 -5.94909,11.68383 -15.49338,26.07199 -36.38728,18.04053 4.82264,11.00851 -15.74547,22.21913 -23.56963,33.65086 -11.01426,16.095 -12.70866,34.51334 -7.04476,49.36474 6.92772,18.16833 24.2495,28.15059 44.20885,37.74395 22.69174,10.90159 35.05008,13.88942 49.06195,11.53287 22.26648,-3.75191 37.89003,-22.05608 41.011,-36.95059 5.13874,-24.49788 4.55625,-36.07901 13.35566,-40.2829 -12.98115,0.18569 -18.81827,-19.73842 -8.58331,-38.81451 10.41693,-19.40776 17.9592,-15.05982 25.28592,-12.93251 -2.80219,-7.51639 2.81257,-12.13777 6.65686,-17.36915 8.50688,-10.53417 18.18925,-23.264 15.70615,-42.69894 -1.74394,-13.65491 -9.25334,-28.1114 -27.40266,-38.97849 z" />
    <path
       id="path2850"
       sodipodi:nodetypes="cccccccscccccccc"
       style="fill:#b0682e;fill-rule:evenodd;stroke:#000000;stroke-width:0.539962px"
       d="m 483.94594,113.24569 c -2.06494,-1.62284 -1.19833,-3.25443 -0.2762,-4.8887 l 17.018,-28.437852 c -0.95706,-1.841451 -0.2393,-3.232803 0.43686,-4.637484 -3.23772,-2.69877 -1.26057,-4.700633 0.31413,-6.83875 1.8602,0.696512 1.45328,0.532737 3.00681,1.228254 0.25479,-1.088328 2.26247,-3.273851 3.99805,-2.690748 1.07282,-3.718464 2.85878,-2.213617 4.9974,-1.312659 4.08756,1.722631 1.70364,2.865729 1.16839,4.716507 1.16011,1.101572 1.28603,2.84545 0.16628,4.721147 l 2.84,1.760766 c -2.10974,5.438737 -4.42576,4.141126 -6.02145,3.518733 -1.00424,1.581042 -1.63172,3.850002 -4.07667,3.337319 -0.64672,2.23476 -1.19479,4.757385 -1.68218,7.449739 -1.11823,10.391278 -5.9948,20.063438 -10.86019,27.458378 z" />
    <path
       id="path2852"
       sodipodi:nodetypes="cccccccc"
       style="fill:url(#radialGradient4858);fill-rule:evenodd;stroke:#000000;stroke-width:0.539962px"
       d="m 508.30195,67.266978 -6.16546,10.013308 c -0.93055,1.59035 -1.11561,2.927571 0.9059,3.51708 l 3.12306,1.614556 c 2.70358,1.659012 2.70066,-0.431229 3.65945,-1.189095 l 4.58381,-11.151569 c 1.20262,-1.763067 1.79608,-3.402571 -1.36672,-4.315204 -1.54773,-0.695057 -3.0711,-2.438737 -4.74004,1.510924 z" />
    <path
       id="path4868"
       sodipodi:nodetypes="ccccccccc"
       style="fill:#964a1d;fill-rule:evenodd;stroke:#000000;stroke-width:0.539962px"
       d="m 498.24239,88.913062 -8.06138,14.434428 c -0.88391,1.54475 -0.39622,2.04477 0.21182,2.45971 l 5.82303,2.8056 c 1.70331,0.70931 1.79731,-0.37054 2.42545,-1.87305 l 5.07803,-15.186107 c 0.10508,-0.773224 0.56031,-1.548064 -0.78346,-2.314581 l -2.75436,-1.361267 c -0.89926,-0.203507 -1.49842,0.253251 -1.93913,1.035267 z" />
    <path
       id="path2854"
       sodipodi:nodetypes="ccccccccc"
       style="fill:url(#radialGradient4866);fill-rule:evenodd;stroke:#000000;stroke-width:0.539962px"
       d="m 498.24239,88.913062 -8.06138,14.434428 c -0.88391,1.54475 -0.39622,2.04477 0.21182,2.45971 l 5.82303,2.8056 c 1.70331,0.70931 1.79731,-0.37054 2.42545,-1.87305 l 5.07803,-15.186107 c 0.10508,-0.773224 0.56031,-1.548064 -0.78346,-2.314581 l -2.75436,-1.361267 c -0.89926,-0.203507 -1.49842,0.253251 -1.93913,1.035267 z" />
    <path
       id="path2856"
       sodipodi:nodetypes="ccssccc"
       style="fill:#1c1a1a;fill-rule:evenodd;stroke:#000000;stroke-width:0.539962px"
       d="m 494.92746,89.563512 -7.4308,-3.744755 c 0.30248,-1.428548 -1.86033,-2.804637 -3.53782,-3.675848 -2.28509,-1.189584 -5.08437,-0.778174 -5.37024,1.628298 -0.31614,2.650509 3.60766,4.156079 7.43367,4.884537 l 7.31397,3.54245 z" />
    <path
       id="path2858"
       sodipodi:nodetypes="ccssccc"
       style="fill:#1c1a1a;fill-rule:evenodd;stroke:#000000;stroke-width:0.539962px"
       d="m 487.65767,101.81129 -7.42598,-3.742366 c 0.3001,-1.423715 -2.15291,-2.371027 -3.82317,-3.244699 -2.28509,-1.189574 -5.68255,-1.152106 -5.08488,1.197154 0.62484,2.47711 3.60042,4.158521 7.43128,4.889381 l 7.31396,3.54245 z" />
    <path
       id="path2860"
       sodipodi:nodetypes="ccsssccc"
       style="fill:#1c1a1a;fill-rule:evenodd;stroke:#000000;stroke-width:0.539962px"
       d="m 505.42075,94.460438 4.79263,2.440906 c -0.87121,2.201513 -0.42225,4.766376 2.22888,5.739346 1.79485,0.65817 5.02586,-0.38309 6.62065,-3.293073 1.43198,-2.604976 0.0344,-6.126536 -2.32105,-7.283423 -1.84162,-0.904753 -3.91983,-0.233949 -5.19899,2.00084 l -5.67948,-3.096043 z" />
    <path
       id="path2862"
       sodipodi:nodetypes="ccsssccc"
       style="fill:#1c1a1a;fill-rule:evenodd;stroke:#000000;stroke-width:0.539962px"
       d="m 501.90059,106.06783 5.30575,2.69449 c -0.87121,2.20151 -0.42224,4.76638 2.22889,5.73934 1.79483,0.65817 5.02586,-0.38309 6.62063,-3.29307 1.432,-2.60497 0.0344,-6.12653 -2.32055,-7.28439 -1.84187,-0.90427 -3.92032,-0.23297 -5.19708,1.99698 l -5.45063,-2.69383 z" />
    <path
       id="path2864"
       sodipodi:nodetypes="cscc"
       style="fill:#8a8051;fill-rule:evenodd;stroke:#000000;stroke-width:0.539962px"
       d="m 337.48017,414.5001 c -1.12836,0.38195 -2.48692,4.76387 1.24219,6.46835 3.56943,1.63762 6.17546,-1.91698 5.65191,-2.85632 z" />
    <path
       id="path2866"
       sodipodi:nodetypes="ccccccc"
       style="fill:#89938b;fill-rule:evenodd;stroke:#000000;stroke-width:0.539962px"
       d="m 337.33942,420.08622 -22.36507,46.06946 -21.55368,46.07296 2.75435,1.36125 28.05951,-57.99359 16.83332,-34.4745 c -1.23753,0.27378 -2.48108,-0.23241 -3.72843,-1.03558 z" />
    <path
       id="path2868"
       sodipodi:nodetypes="csccc"
       style="fill:#1c1a1a;fill-rule:evenodd;stroke:#000000;stroke-width:0.539962px"
       d="m 331.07204,411.53784 c 0,0 -0.86515,1.94552 0.41827,3.23633 1.27856,1.28841 4.70085,1.91973 4.70085,1.91973 l 1.28901,-2.1938 z" />
    <path
       id="path2872"
       sodipodi:nodetypes="ccccccccc"
       style="fill:#947958;fill-rule:evenodd;stroke:#000000;stroke-width:0.539962px"
       d="m 388.79448,310.67199 c -2.37249,-3.37699 -5.85022,-4.5055 -9.01214,-6.27299 l -2.48569,5.0295 c 4.28005,1.78403 8.70639,3.86924 10.45475,3.35403 l 10.21871,5.05033 c -0.72254,2.49784 6.06109,4.15196 8.60942,5.86916 l 1.92212,-4.70571 c -3.51987,-2.40816 -6.60394,-3.52884 -9.24253,-3.35723 z" />
    <path
       id="path2870"
       sodipodi:nodetypes="ccccccccc"
       style="opacity:0.98;fill:#1a1a1a;fill-rule:evenodd;stroke:#000000;stroke-width:0.539962px"
       d="m 339.00922,413.03931 8.11301,4.00964 c 2.59855,-4.12445 6.78767,-13.11246 8.7351,-18.08873 5.42215,-11.27571 7.644,-18.00158 17.10602,-29.29841 5.64391,-5.10691 10.00839,-12.20733 14.15151,-19.65206 -6.06657,-1.16724 -12.19315,-3.29769 -18.49255,-8.33237 -2.67537,7.35099 -5.95271,14.03105 -7.01148,23.18083 -1.83717,12.10187 -6.65314,20.26208 -11.69016,28.13837 -4.47461,6.263 -7.70271,13.14808 -10.91145,20.04273 z" />
    <path
       id="path2848"
       sodipodi:nodetypes="ccccc"
       style="fill:#1c1a1a;fill-rule:evenodd;stroke:#000000;stroke-width:0.539962px"
       d="m 487.56168,106.63652 -90.32272,173.77503 c 8.32854,1.01428 14.45595,4.88582 19.79361,9.78247 L 497.13229,110.963 Z" />
    <path
       id="path4842"
       sodipodi:nodetypes="ccccc"
       style="fill:url(#radialGradient4850);fill-rule:evenodd;stroke:#000000;stroke-width:0.539962px"
       d="m 487.83275,106.24648 -90.32756,173.77264 c 8.32615,1.01912 14.45354,4.89065 19.79361,9.78247 l 80.09972,-179.23103 z" />
    <path
       id="path3848"
       style="fill:none;stroke:#000000;stroke-width:0.539962px"
       d="m 368.33047,353.22393 18.5777,-41.06293 1.36126,-2.75435 102.07278,-203.05829 1.35888,-2.74952 -0.22489,0.45503" />
    <path
       id="path3850"
       style="fill:none;stroke:#000000;stroke-width:0.539962px"
       d="m 371.99972,355.03736 20.18457,-40.84097 1.134,-2.29449 98.39097,-206.01627 4.08912,-7.116071 0.45216,-0.914888" />
    <path
       id="path3852"
       sodipodi:nodetypes="ccccc"
       style="fill:none;stroke:#000000;stroke-width:0.539962px"
       d="m 376.01616,356.73327 20.76481,-39.12673 1.81344,-3.66924 96.33678,-205.32096 2.47985,-7.33318" />
    <path
       id="path3854"
       sodipodi:nodetypes="cccc"
       style="fill:none;stroke:#000000;stroke-width:0.539962px"
       d="m 379.80293,358.89389 22.25465,-38.10733 2.26798,-4.58898 93.57956,-207.82201" />
    <path
       id="path3844"
       sodipodi:nodetypes="ccsssccssccc"
       style="opacity:0.98;fill:#000000;fill-rule:evenodd;stroke:#000000;stroke-width:0.539962px"
       d="m 381.8856,286.66457 c -4.28833,-5.13092 -10.68796,5.20995 -15.87058,16.58597 -8.32401,16.1236 -13.58649,14.95022 -17.5005,12.94957 -2.15188,-1.10567 -4.95053,-4.72941 -1.89888,-8.00353 0.96114,-1.03075 3.68847,-1.33316 4.37278,0.95049 0.30164,0.99833 -0.009,2.68772 -2.57587,2.7624 1.84632,6.56214 7.63729,1.92545 9.79405,-0.61043 4.53653,-5.92522 7.48715,-13.28474 11.31471,-20.04219 2.76891,-4.88349 7.04849,-8.93604 12.10713,-6.93586 1.79021,0.70407 3.11498,2.58149 2.85687,5.24863 -1.11832,1.50719 -2.2825,2.49783 -3.63585,1.22666 -1.12062,-1.59583 -0.86849,-2.94688 1.03614,-4.13171 z" />
    <path
       id="path3846"
       sodipodi:nodetypes="ccsssccssccc"
       style="fill:#000000;fill-rule:evenodd;stroke:#000000;stroke-width:0.539962px"
       d="m 420.84877,306.52942 c 6.68071,0.29024 2.35289,11.65504 -3.53892,22.67454 -7.75037,16.41313 -3.62188,19.88099 0.34715,21.77031 2.18298,1.04274 6.76156,1.065 7.51143,-3.35274 0.23265,-1.38477 -1.18366,-3.73506 -3.41589,-2.89886 -0.9763,0.36675 -2.12467,1.64226 -0.63231,3.72899 -6.32961,2.52139 -6.16353,-4.89525 -5.459,-8.14885 1.94677,-7.20515 6.0083,-14.02164 9.05167,-21.16667 2.19531,-5.16095 2.81772,-11.02699 -1.84861,-13.83312 -1.64424,-0.98728 -3.9403,-0.89937 -5.89995,0.92082 -0.52046,1.80868 -0.60031,3.33521 1.22667,3.63584 1.95561,-0.0815 2.87092,-1.10478 2.65776,-3.33026 z" />
  </g>
  <metadata
     id="metadata41">
    <rdf:RDF>
      <cc:Work>
        <dc:format>image/svg+xml</dc:format>
        <dc:type
           rdf:resource="http://purl.org/dc/dcmitype/StillImage" />
        <cc:license
           rdf:resource="http://creativecommons.org/publicdomain/zero/1.0/" />
        <dc:publisher>
          <cc:Agent
             rdf:about="http://openclipart.org/">
            <dc:title>Openclipart</dc:title>
          </cc:Agent>
        </dc:publisher>
        <dc:title>cello 1</dc:title>
        <dc:date>2007-11-25T21:24:47</dc:date>
        <dc:description>Yet another string instrument.</dc:description>
        <dc:source>https://openclipart.org/detail/8995/cello-1-by-papapishu</dc:source>
        <dc:creator>
          <cc:Agent>
            <dc:title>papapishu</dc:title>
          </cc:Agent>
        </dc:creator>
        <dc:subject>
          <rdf:Bag>
            <rdf:li>cello</rdf:li>
            <rdf:li>instrument</rdf:li>
            <rdf:li>music</rdf:li>
            <rdf:li>musical instrument</rdf:li>
          </rdf:Bag>
        </dc:subject>
      </cc:Work>
      <cc:License
         rdf:about="http://creativecommons.org/publicdomain/zero/1.0/">
        <cc:permits
           rdf:resource="http://creativecommons.org/ns#Reproduction" />
        <cc:permits
           rdf:resource="http://creativecommons.org/ns#Distribution" />
        <cc:permits
           rdf:resource="http://creativecommons.org/ns#DerivativeWorks" />
      </cc:License>
    </rdf:RDF>
  </metadata>
</svg>
