<?xml version="1.0" encoding="UTF-8" standalone="no"?>
<svg
   xmlns:dc="http://purl.org/dc/elements/1.1/"
   xmlns:cc="http://creativecommons.org/ns#"
   xmlns:rdf="http://www.w3.org/1999/02/22-rdf-syntax-ns#"
   xmlns:svg="http://www.w3.org/2000/svg"
   xmlns="http://www.w3.org/2000/svg"
   xmlns:sodipodi="http://sodipodi.sourceforge.net/DTD/sodipodi-0.dtd"
   xmlns:inkscape="http://www.inkscape.org/namespaces/inkscape"
   width="88mm"
   height="125mm"
   version="1.1"
   id="svg303"
   sodipodi:docname="gem.svg"
   inkscape:version="1.0.2-2 (e86c870879, 2021-01-15)">
  <sodipodi:namedview
     pagecolor="#ffffff"
     bordercolor="#666666"
     borderopacity="1"
     objecttolerance="10"
     gridtolerance="10"
     guidetolerance="10"
     inkscape:pageopacity="0"
     inkscape:pageshadow="2"
     inkscape:window-width="1920"
     inkscape:window-height="1017"
     id="namedview305"
     showgrid="false"
     units="mm"
     inkscape:zoom="0.80244177"
     inkscape:cx="88.255261"
     inkscape:cy="136.74586"
     inkscape:window-x="-8"
     inkscape:window-y="-8"
     inkscape:window-maximized="1"
     inkscape:current-layer="svg303"
     inkscape:document-rotation="0" />
  <defs
     id="defs242">
    <linearGradient
       x1="49.412257"
       x2="135.32207"
       y1="20.711444"
       y2="142.58148"
       id="imagebot_41"
       gradientTransform="scale(1.5675204,0.63795022)"
       gradientUnits="userSpaceOnUse">
      <stop
         offset="0"
         stop-color="#CDCDCD"
         id="stop2" />
      <stop
         offset="0.2474"
         stop-color="#fff"
         id="stop4" />
      <stop
         offset="0.5684"
         stop-color="#fff"
         id="stop6" />
      <stop
         offset="0.8842"
         stop-color="#686868"
         id="stop8" />
      <stop
         offset="0.9947"
         id="stop10" />
    </linearGradient>
    <linearGradient
       x1="114.40262"
       x2="134.1966"
       y1="145.00902"
       y2="118.64166"
       id="imagebot_40"
       gradientTransform="scale(1.5181471,0.65869769)"
       gradientUnits="userSpaceOnUse">
      <stop
         offset="0"
         stop-color="#A7A7A7"
         id="stop13" />
      <stop
         offset="0.5"
         stop-color="#fff"
         id="stop15" />
    </linearGradient>
    <radialGradient
       r="36.786999"
       cx="185.67"
       cy="108.44"
       gradientUnits="userSpaceOnUse"
       id="imagebot_39">
      <stop
         offset="0"
         stop-color="#767676"
         id="stop18" />
      <stop
         offset="1"
         id="stop20" />
    </radialGradient>
    <linearGradient
       x1="146.77355"
       x2="184.03385"
       y1="129.16292"
       y2="129.16292"
       id="imagebot_38"
       gradientTransform="scale(1.0230727,0.97744769)"
       gradientUnits="userSpaceOnUse">
      <stop
         offset="0.2947"
         id="stop23" />
      <stop
         offset="0.3211"
         stop-color="#4B4B4B"
         id="stop25" />
      <stop
         offset="1"
         stop-color="#fff"
         id="stop27" />
    </linearGradient>
    <linearGradient
       x1="148.58471"
       x2="107.48049"
       y1="120.1402"
       y2="120.1402"
       id="imagebot_37"
       gradientTransform="scale(1.010602,0.98950925)"
       gradientUnits="userSpaceOnUse">
      <stop
         offset="0.1737"
         stop-color="#fff"
         id="stop30" />
      <stop
         offset="0.6947"
         stop-color="#767676"
         id="stop32" />
      <stop
         offset="1"
         id="stop34" />
    </linearGradient>
    <linearGradient
       x1="61.309127"
       x2="81.061748"
       y1="298.46766"
       y2="298.46766"
       id="imagebot_36"
       gradientTransform="scale(2.0863108,0.47931497)"
       gradientUnits="userSpaceOnUse">
      <stop
         offset="0"
         stop-color="#A7A7A7"
         id="stop37" />
      <stop
         offset="0.5"
         stop-color="#fff"
         id="stop39" />
    </linearGradient>
    <linearGradient
       x1="88.653267"
       x2="96.461644"
       y1="299.30321"
       y2="319.12662"
       id="imagebot_35"
       gradientTransform="scale(2.0977232,0.47670733)"
       gradientUnits="userSpaceOnUse">
      <stop
         offset="0"
         stop-color="#fff"
         id="stop42" />
      <stop
         offset="1"
         stop-color="#585858"
         id="stop44" />
    </linearGradient>
    <linearGradient
       x1="65.800858"
       x2="82.833072"
       y1="87.929956"
       y2="121.59649"
       id="imagebot_34"
       gradientTransform="scale(1.1272521,0.88711302)"
       gradientUnits="userSpaceOnUse">
      <stop
         offset="0"
         stop-color="#fff"
         id="stop47" />
      <stop
         offset="0.3316"
         stop-color="#C5C5C5"
         id="stop49" />
      <stop
         offset="0.3368"
         stop-color="#B6B6B6"
         id="stop51" />
      <stop
         offset="1"
         stop-color="#959595"
         id="stop53" />
    </linearGradient>
    <linearGradient
       x1="33.405594"
       x2="60.385019"
       y1="50.897443"
       y2="67.586255"
       id="imagebot_33"
       gradientTransform="scale(0.90524326,1.1046754)"
       gradientUnits="userSpaceOnUse">
      <stop
         offset="0"
         stop-color="#595959"
         id="stop56" />
      <stop
         offset="1"
         stop-color="#fff"
         id="stop58" />
    </linearGradient>
    <linearGradient
       x1="28.075612"
       x2="40.836389"
       y1="49.283995"
       y2="50.346866"
       id="imagebot_32"
       gradientTransform="scale(0.72511524,1.3790911)"
       gradientUnits="userSpaceOnUse">
      <stop
         offset="0"
         stop-color="#A7A7A7"
         id="stop61" />
      <stop
         offset="1"
         stop-color="#fff"
         id="stop63" />
    </linearGradient>
    <linearGradient
       x1="19.677843"
       x2="34.045658"
       y1="120.64271"
       y2="107.07262"
       id="imagebot_31"
       gradientTransform="scale(1.3055726,0.76594743)"
       gradientUnits="userSpaceOnUse">
      <stop
         offset="0"
         stop-color="#898989"
         id="stop66" />
      <stop
         offset="1"
         stop-color="#fff"
         id="stop68" />
    </linearGradient>
    <linearGradient
       x1="38.675924"
       x2="54.554817"
       y1="98.812223"
       y2="77.779393"
       id="imagebot_30"
       gradientTransform="scale(0.99131401,1.0087621)"
       gradientUnits="userSpaceOnUse">
      <stop
         offset="0"
         stop-color="#A7A7A7"
         id="stop71" />
      <stop
         offset="0.5"
         stop-color="#fff"
         id="stop73" />
    </linearGradient>
    <linearGradient
       x1="20.790004"
       x2="31.843027"
       y1="95.750246"
       y2="95.750246"
       id="imagebot_29"
       gradientTransform="scale(1.0387203,0.96272303)"
       gradientUnits="userSpaceOnUse">
      <stop
         offset="0"
         stop-color="#595959"
         id="stop76" />
      <stop
         offset="1"
         stop-color="#fff"
         id="stop78" />
    </linearGradient>
    <linearGradient
       x1="76.536394"
       x2="81.25317"
       y1="81.96275"
       y2="56.5431"
       id="imagebot_28"
       gradientTransform="scale(0.72888266,1.371963)"
       gradientUnits="userSpaceOnUse">
      <stop
         offset="0"
         stop-color="#A7A7A7"
         id="stop81" />
      <stop
         offset="0.5"
         stop-color="#fff"
         id="stop83" />
    </linearGradient>
    <linearGradient
       x1="36.740315"
       x2="58.447285"
       y1="175.78681"
       y2="175.78681"
       id="imagebot_27"
       gradientTransform="scale(1.4696662,0.68042661)"
       gradientUnits="userSpaceOnUse">
      <stop
         offset="0"
         stop-color="#5A5A5A"
         id="stop86" />
      <stop
         offset="1"
         stop-color="#fff"
         id="stop88" />
    </linearGradient>
    <linearGradient
       x1="39.877865"
       x2="92.103151"
       y1="75.673126"
       y2="131.09425"
       id="imagebot_26"
       gradientTransform="scale(0.77833205,1.2847987)"
       gradientUnits="userSpaceOnUse">
      <stop
         offset="0"
         stop-color="#fff"
         id="stop91" />
      <stop
         offset="0.0632"
         stop-color="#494949"
         id="stop93" />
      <stop
         offset="0.1316"
         stop-color="#2D2D2D"
         id="stop95" />
      <stop
         offset="0.1421"
         stop-color="#595959"
         id="stop97" />
      <stop
         offset="1"
         stop-color="#fff"
         id="stop99" />
    </linearGradient>
    <radialGradient
       r="55.122002"
       cx="66.893997"
       cy="164.92999"
       gradientUnits="userSpaceOnUse"
       id="imagebot_25">
      <stop
         offset="0"
         stop-color="#fff"
         id="stop102" />
      <stop
         offset="0.9947"
         id="stop104" />
    </radialGradient>
    <linearGradient
       x1="138.81893"
       x2="154.71409"
       y1="75.457345"
       y2="139.8506"
       id="imagebot_24"
       gradientTransform="scale(0.60231084,1.6602723)"
       gradientUnits="userSpaceOnUse">
      <stop
         offset="0"
         stop-color="#fff"
         id="stop107" />
      <stop
         offset="0.3737"
         stop-color="#878787"
         id="stop109" />
      <stop
         offset="0.3842"
         stop-color="#595959"
         id="stop111" />
      <stop
         offset="1"
         stop-color="#fff"
         id="stop113" />
    </linearGradient>
    <linearGradient
       x1="149.05915"
       x2="208.24471"
       y1="159.06241"
       y2="107.05201"
       id="imagebot_23"
       gradientTransform="scale(0.70810953,1.4122109)"
       gradientUnits="userSpaceOnUse">
      <stop
         offset="0"
         stop-color="#515151"
         id="stop116" />
      <stop
         offset="0.6947"
         stop-color="#fff"
         id="stop118" />
    </linearGradient>
    <linearGradient
       x1="121.97126"
       x2="149.70695"
       y1="125.01199"
       y2="162.15807"
       id="imagebot_22"
       gradientTransform="scale(0.89594991,1.1161338)"
       gradientUnits="userSpaceOnUse">
      <stop
         offset="0"
         stop-color="#fff"
         id="stop121" />
      <stop
         offset="0.2895"
         stop-color="#B0B0B0"
         id="stop123" />
      <stop
         offset="0.3"
         stop-color="#8C8C8C"
         id="stop125" />
      <stop
         offset="1"
         id="stop127" />
    </linearGradient>
    <linearGradient
       x1="95.638703"
       x2="149.59831"
       y1="97.749706"
       y2="134.13157"
       id="imagebot_21"
       gradientTransform="scale(0.76738768,1.3031223)"
       gradientUnits="userSpaceOnUse">
      <stop
         offset="0.1756"
         id="stop130" />
      <stop
         offset="0.1895"
         stop-color="#595959"
         id="stop132" />
      <stop
         offset="1"
         stop-color="#fff"
         id="stop134" />
    </linearGradient>
    <linearGradient
       x1="175.64368"
       x2="175.64368"
       y1="181.10418"
       y2="133.82256"
       id="imagebot_20"
       gradientTransform="scale(0.92636411,1.0794891)"
       gradientUnits="userSpaceOnUse">
      <stop
         offset="0"
         stop-color="#515151"
         id="stop137" />
      <stop
         offset="0.6947"
         stop-color="#fff"
         id="stop139" />
    </linearGradient>
    <linearGradient
       x1="257.88487"
       x2="257.88487"
       y1="117.35495"
       y2="130.12584"
       id="imagebot_19"
       gradientTransform="scale(0.94041948,1.0633553)"
       gradientUnits="userSpaceOnUse">
      <stop
         offset="0"
         stop-color="#A7A7A7"
         id="stop142" />
      <stop
         offset="0.5"
         stop-color="#fff"
         id="stop144" />
    </linearGradient>
    <linearGradient
       x1="225.83452"
       x2="239.41594"
       y1="84.397047"
       y2="130.06399"
       id="imagebot_18"
       gradientTransform="scale(0.91004745,1.0988438)"
       gradientUnits="userSpaceOnUse">
      <stop
         offset="0"
         stop-color="#545454"
         id="stop147" />
      <stop
         offset="1"
         stop-color="#fff"
         id="stop149" />
    </linearGradient>
    <linearGradient
       x1="343.41067"
       x2="370.35808"
       y1="60.909481"
       y2="88.120319"
       id="imagebot_17"
       gradientTransform="scale(0.63716716,1.5694469)"
       gradientUnits="userSpaceOnUse">
      <stop
         offset="0"
         stop-color="#767676"
         id="stop152" />
      <stop
         offset="1"
         id="stop154" />
    </linearGradient>
    <linearGradient
       x1="273.49145"
       x2="296.10087"
       y1="59.675647"
       y2="59.675647"
       id="imagebot_16"
       gradientTransform="scale(0.77578292,1.2890204)"
       gradientUnits="userSpaceOnUse">
      <stop
         offset="0"
         stop-color="#2B2B2B"
         id="stop157" />
      <stop
         offset="1"
         stop-color="#fff"
         id="stop159" />
    </linearGradient>
    <linearGradient
       x1="382.8753"
       x2="363.79673"
       y1="51.474825"
       y2="55.196609"
       id="imagebot_15"
       gradientTransform="scale(0.62897745,1.5898821)"
       gradientUnits="userSpaceOnUse">
      <stop
         offset="0"
         stop-color="#fff"
         id="stop162" />
      <stop
         offset="1"
         id="stop164" />
    </linearGradient>
    <linearGradient
       x1="325.83393"
       x2="339.23579"
       y1="72.654875"
       y2="90.620833"
       id="imagebot_14"
       gradientTransform="scale(0.72899125,1.3717586)"
       gradientUnits="userSpaceOnUse">
      <stop
         offset="0"
         stop-color="#fff"
         id="stop167" />
      <stop
         offset="1"
         stop-color="#585858"
         id="stop169" />
    </linearGradient>
    <linearGradient
       x1="136.88607"
       x2="154.26805"
       y1="238.94239"
       y2="181.28309"
       id="imagebot_13"
       gradientTransform="scale(1.2507455,0.79952319)"
       gradientUnits="userSpaceOnUse">
      <stop
         offset="0"
         stop-color="#515151"
         id="stop172" />
      <stop
         offset="0.6947"
         stop-color="#fff"
         id="stop174" />
    </linearGradient>
    <linearGradient
       x1="143.2764"
       x2="200.71243"
       y1="191.76511"
       y2="191.76511"
       id="imagebot_12"
       gradientTransform="scale(1.1783517,0.84864304)"
       gradientUnits="userSpaceOnUse">
      <stop
         offset="0"
         stop-color="#515151"
         id="stop177" />
      <stop
         offset="0.6947"
         stop-color="#fff"
         id="stop179" />
    </linearGradient>
    <linearGradient
       x1="190.99292"
       x2="91.820022"
       y1="218.70246"
       y2="218.70246"
       id="imagebot_11"
       gradientTransform="scale(1.1546501,0.86606322)"
       gradientUnits="userSpaceOnUse">
      <stop
         offset="0.4842"
         stop-color="#fff"
         id="stop182" />
      <stop
         offset="1"
         id="stop184" />
    </linearGradient>
    <linearGradient
       x1="58.993615"
       x2="64.954892"
       y1="31.472173"
       y2="39.551815"
       id="imagebot_10"
       gradientTransform="scale(1.0695732,0.93495234)"
       gradientUnits="userSpaceOnUse">
      <stop
         offset="0"
         stop-color="#fff"
         id="stop187" />
      <stop
         offset="0.9947"
         id="stop189" />
    </linearGradient>
    <linearGradient
       x1="29.00659"
       x2="47.352758"
       y1="118.79569"
       y2="118.79569"
       id="imagebot_9"
       gradientTransform="scale(1.1402926,0.87696788)"
       gradientUnits="userSpaceOnUse">
      <stop
         offset="0"
         stop-color="#2E2E2E"
         id="stop192" />
      <stop
         offset="1"
         stop-color="#fff"
         id="stop194" />
    </linearGradient>
    <radialGradient
       r="32.648998"
       cx="59.917999"
       cy="74.005997"
       gradientUnits="userSpaceOnUse"
       id="imagebot_8">
      <stop
         offset="0"
         stop-color="#fff"
         id="stop197" />
      <stop
         offset="0.9947"
         id="stop199" />
    </radialGradient>
    <linearGradient
       x1="62.671516"
       x2="104.97515"
       y1="115.87701"
       y2="137.76706"
       id="imagebot_7"
       gradientTransform="scale(1.4508205,0.68926514)"
       gradientUnits="userSpaceOnUse">
      <stop
         offset="0.1737"
         stop-color="#fff"
         id="stop202" />
      <stop
         offset="0.6947"
         stop-color="#767676"
         id="stop204" />
      <stop
         offset="1"
         id="stop206" />
    </linearGradient>
    <linearGradient
       x1="133.69291"
       x2="133.92284"
       y1="99.437066"
       y2="152.2762"
       id="imagebot_6"
       gradientTransform="scale(1.1319966,0.88339491)"
       gradientUnits="userSpaceOnUse">
      <stop
         offset="0.2579"
         stop-color="#fff"
         id="stop209" />
      <stop
         offset="0.7579"
         stop-color="#767676"
         id="stop211" />
      <stop
         offset="1"
         id="stop213" />
    </linearGradient>
    <linearGradient
       x1="190.56784"
       x2="206.09686"
       y1="106.23701"
       y2="147.15145"
       id="imagebot_5"
       gradientTransform="scale(1.0290307,0.97178834)"
       gradientUnits="userSpaceOnUse">
      <stop
         offset="0"
         stop-color="#767676"
         id="stop216" />
      <stop
         offset="1"
         id="stop218" />
    </linearGradient>
    <linearGradient
       x1="44.470023"
       x2="62.515572"
       y1="203.41611"
       y2="170.4476"
       id="imagebot_4"
       gradientTransform="scale(1.7779584,0.56244284)"
       gradientUnits="userSpaceOnUse">
      <stop
         offset="0"
         stop-color="#A7A7A7"
         id="stop221" />
      <stop
         offset="0.5"
         stop-color="#fff"
         id="stop223" />
    </linearGradient>
    <linearGradient
       x1="66.759187"
       x2="70.590201"
       y1="160.07635"
       y2="133.83742"
       id="imagebot_3"
       gradientTransform="scale(1.334636,0.74926796)"
       gradientUnits="userSpaceOnUse">
      <stop
         offset="0"
         stop-color="#898989"
         id="stop226" />
      <stop
         offset="1"
         stop-color="#fff"
         id="stop228" />
    </linearGradient>
    <linearGradient
       x1="55.14209"
       x2="120.95693"
       y1="84.528741"
       y2="121.38797"
       id="imagebot_2"
       gradientTransform="scale(0.72314915,1.3828406)"
       gradientUnits="userSpaceOnUse">
      <stop
         offset="0"
         stop-color="#fff"
         id="stop231" />
      <stop
         offset="0.0684"
         id="stop233" />
      <stop
         offset="0.1756"
         id="stop235" />
      <stop
         offset="0.1895"
         stop-color="#595959"
         id="stop237" />
      <stop
         offset="1"
         stop-color="#fff"
         id="stop239" />
    </linearGradient>
  </defs>
  <g
     id="imagebot_44">
    <title
       id="title244">imagebot_44</title>
  </g>
  <g
     fill="none"
     stroke-miterlimit="10"
     display="none"
     stroke="#000000"
     id="imagebot_43">
    <polygon
       id="imagebot_47"
       fill="none"
       stroke-miterlimit="10"
       display="none"
       stroke="#000000"
       points="133.63,17.918 75.719,20.74 60.772,42.11 93.892,68.589 156.95,86.237 212.17,84.081 228.64,62.352 195.38,35.414 " />
    <polyline
       id="imagebot_48"
       fill="none"
       stroke-miterlimit="10"
       display="none"
       stroke="#000000"
       points="75.719 20.74 51.272 39.053 37.507 51.986 21.595 86.861 19.17 77.726 37.507 51.986 51.272 39.053 60.772 42.11 59.543 74.1 59.543 74.1 67.083 114.67 53.996 112.22 45.421 100.78 33.076 96.131 21.595 86.861 106.02 232.35 236.52 138.37 208.92 144.54 184.79 108.04 188.28 140.2 184.61 149.24 106.02 232.35 42.454 111.22 45.421 100.78 59.446 74.109 33.076 96.131 26.754 90.882 21.595 86.861 59.495 73.896 93.892 68.589 150.16 138.37 127.9 139.22 108.62 127.16 85.921 126.91 86.546 127.16 67.083 114.67 156.95 86.237 223.5 138.37 236.52 138.37 242.47 126.91 248.53 124.79 242.47 126.91 229.71 91.496 245.52 105.02 229.71 91.496 212.17 84.081 150.16 138.37 150.16 138.32 169.12 144.46 188.28 140.2 208.92 144.54 223.5 138.37 229.71 91.496 228.64 62.352 237.96 77.52 246.73 109.45 248.53 124.79 236.52 138.37 220.53 146.46 140.81 195.5 148.42 147.79 106.02 191.14 67.083 125.02 53.996 112.22 42.454 111.22 33.076 96.131 27.77 97.502 27.77 97.502 77.439 178.12 67.083 125.02 67.083 124.79 85.898 126.99 106.02 138.32 127.9 139.22 148.42 147.79 169.12 144.47 184.61 149.24 208.9 144.39 220.53 146.46 168.83 187.12 106.02 232.35 106.02 138.32 108.62 127.16 118.05 98.547" />
    <title
       id="title249">imagebot_43</title>
  </g>
  <g
     id="imagebot_1"
     transform="matrix(1.3368686,0,0,1.3368686,-10.195349,72.473348)">
    <polygon
       transform="translate(-0.003,0.003)"
       id="imagebot_50"
       fill="url(#imagebot_41)"
       points="60.772,42.11 93.892,68.589 156.95,86.237 212.17,84.081 228.64,62.352 195.38,35.414 133.63,17.918 75.719,20.74 "
       style="fill:url(#imagebot_41)" />
    <polygon
       transform="translate(-0.003,0.003)"
       id="imagebot_51"
       fill="url(#imagebot_40)"
       points="184.79,108.04 156.95,86.237 212.17,84.081 "
       style="fill:url(#imagebot_40)" />
    <polygon
       transform="translate(-0.003,0.003)"
       id="imagebot_52"
       fill="url(#imagebot_39)"
       points="188.28,140.2 208.9,144.39 184.79,108.04 "
       style="fill:url(#imagebot_39)" />
    <polygon
       transform="translate(-0.003,0.003)"
       id="imagebot_53"
       fill="url(#imagebot_38)"
       points="188.28,140.2 184.79,108.04 150.16,138.32 169.12,144.46 "
       style="fill:url(#imagebot_38)" />
    <polygon
       transform="translate(-0.003,0.003)"
       id="imagebot_54"
       fill="url(#imagebot_37)"
       points="118.05,98.547 150.16,138.32 127.9,139.22 108.62,127.16 "
       style="fill:url(#imagebot_37)" />
    <polygon
       transform="translate(-0.003,0.003)"
       id="imagebot_55"
       fill="url(#imagebot_36)"
       points="150.16,138.32 127.9,139.22 148.42,147.79 169.12,144.46 "
       style="fill:url(#imagebot_36)" />
    <polygon
       transform="translate(-0.003,0.003)"
       id="imagebot_56"
       fill="#efefef"
       points="108.62,127.16 127.9,139.22 106.02,138.32 85.921,126.91 " />
    <polygon
       transform="translate(-0.003,0.003)"
       id="imagebot_57"
       fill="url(#imagebot_35)"
       points="188.28,140.2 169.12,144.47 184.61,149.24 208.9,144.39 "
       style="fill:url(#imagebot_35)" />
    <polygon
       transform="translate(-0.003,0.003)"
       id="imagebot_58"
       fill="url(#imagebot_34)"
       points="67.083,114.67 118.05,98.547 93.892,68.589 59.495,73.896 "
       style="fill:url(#imagebot_34)" />
    <polygon
       transform="translate(-0.003,0.003)"
       id="imagebot_59"
       fill="url(#imagebot_33)"
       points="51.272,39.053 37.507,51.986 21.595,86.861 59.495,73.896 60.731,43.14 60.772,42.11 "
       style="fill:url(#imagebot_33)" />
    <polygon
       transform="translate(-0.003,0.003)"
       id="imagebot_60"
       fill="url(#imagebot_32)"
       points="19.17,77.726 21.595,86.861 37.507,51.986 "
       style="fill:url(#imagebot_32)" />
    <polygon
       transform="translate(-0.003,0.003)"
       id="imagebot_61"
       fill="url(#imagebot_31)"
       points="33.076,96.131 59.495,73.896 21.595,86.861 "
       style="fill:url(#imagebot_31)" />
    <polygon
       transform="translate(-0.003,0.003)"
       id="imagebot_62"
       fill="url(#imagebot_30)"
       points="45.421,100.78 59.495,73.896 33.076,96.131 "
       style="fill:url(#imagebot_30)" />
    <polygon
       transform="translate(-0.003,0.003)"
       id="imagebot_63"
       fill="url(#imagebot_29)"
       points="33.076,96.131 21.595,86.861 27.77,97.502 "
       style="fill:url(#imagebot_29)" />
    <polygon
       transform="translate(-0.003,0.003)"
       id="imagebot_64"
       fill="url(#imagebot_28)"
       points="53.996,112.22 67.083,114.67 59.495,73.896 45.421,100.78 "
       style="fill:url(#imagebot_28)" />
    <polygon
       transform="translate(-0.003,0.003)"
       id="imagebot_65"
       fill="url(#imagebot_27)"
       points="67.083,114.67 85.898,126.99 67.083,125.02 53.996,112.22 "
       style="fill:url(#imagebot_27)" />
    <polygon
       transform="translate(-0.003,0.003)"
       id="imagebot_66"
       fill="url(#imagebot_26)"
       points="33.076,96.131 27.77,97.502 77.439,178.12 42.454,111.22 "
       style="fill:url(#imagebot_26)" />
    <polygon
       transform="translate(-0.003,0.003)"
       id="imagebot_67"
       fill="url(#imagebot_25)"
       points="27.77,97.502 77.439,178.12 106.02,232.35 "
       style="fill:url(#imagebot_25)" />
    <polygon
       transform="translate(-0.003,0.003)"
       id="imagebot_68"
       fill="url(#imagebot_24)"
       points="106.02,232.35 106.02,191.14 67.083,125.02 77.439,178.12 "
       style="fill:url(#imagebot_24)" />
    <polygon
       transform="translate(-0.003,0.003)"
       id="imagebot_69"
       fill="url(#imagebot_23)"
       points="106.02,191.14 148.42,147.79 140.81,195.5 106.02,232.35 "
       style="fill:url(#imagebot_23)" />
    <polygon
       transform="translate(-0.003,0.003)"
       id="imagebot_70"
       fill="url(#imagebot_22)"
       points="127.9,139.22 106.02,138.32 106.02,191.14 148.42,147.79 "
       style="fill:url(#imagebot_22)" />
    <polygon
       transform="translate(-0.003,0.003)"
       id="imagebot_71"
       fill="url(#imagebot_21)"
       points="106.02,191.14 67.083,125.02 85.898,126.99 106.02,138.32 "
       style="fill:url(#imagebot_21)" />
    <polygon
       transform="translate(-0.003,0.003)"
       id="imagebot_72"
       fill="url(#imagebot_20)"
       points="140.81,195.5 148.42,147.79 169.12,144.46 184.61,149.24 "
       style="fill:url(#imagebot_20)" />
    <polygon
       transform="translate(-0.003,0.003)"
       id="imagebot_73"
       fill="#efefef"
       points="220.53,146.46 208.92,144.54 223.44,138.32 236.52,138.37 " />
    <polygon
       transform="translate(-0.003,0.003)"
       id="imagebot_74"
       fill="url(#imagebot_19)"
       points="236.52,138.37 248.53,124.79 242.47,126.91 "
       style="fill:url(#imagebot_19)" />
    <polygon
       transform="translate(-0.003,0.003)"
       id="imagebot_75"
       fill="url(#imagebot_18)"
       points="229.71,91.496 223.44,138.32 184.79,108.04 212.17,84.081 "
       style="fill:url(#imagebot_18)" />
    <polygon
       transform="translate(-0.003,0.003)"
       id="imagebot_76"
       fill="url(#imagebot_17)"
       points="236.52,138.37 242.47,126.91 229.71,91.496 223.44,138.32 "
       style="fill:url(#imagebot_17)" />
    <polygon
       transform="translate(-0.003,0.003)"
       id="imagebot_77"
       fill="url(#imagebot_16)"
       points="229.71,91.496 212.17,84.081 228.64,62.352 "
       style="fill:url(#imagebot_16)" />
    <polygon
       transform="translate(-0.003,0.003)"
       id="imagebot_78"
       fill="url(#imagebot_15)"
       points="237.96,77.52 245.52,105.02 229.71,91.496 228.64,62.352 "
       style="fill:url(#imagebot_15)" />
    <polygon
       transform="translate(-0.003,0.003)"
       id="imagebot_79"
       fill="url(#imagebot_14)"
       points="242.47,126.91 229.71,91.496 245.52,105.02 246.73,109.45 248.53,124.79 "
       style="fill:url(#imagebot_14)" />
    <polygon
       transform="translate(-0.003,0.003)"
       id="imagebot_80"
       fill="url(#imagebot_13)"
       points="208.92,144.54 220.53,146.46 140.81,195.5 184.61,149.24 "
       style="fill:url(#imagebot_13)" />
    <polygon
       transform="translate(-0.003,0.003)"
       id="imagebot_81"
       fill="url(#imagebot_12)"
       points="220.53,146.46 168.83,187.12 236.52,138.37 "
       style="fill:url(#imagebot_12)" />
    <polygon
       transform="translate(-0.003,0.003)"
       id="imagebot_82"
       fill="url(#imagebot_11)"
       points="140.81,195.5 106.02,232.35 168.83,187.12 220.53,146.46 "
       style="fill:url(#imagebot_11)" />
    <polygon
       transform="translate(-0.003,0.003)"
       id="imagebot_83"
       fill="url(#imagebot_10)"
       points="60.772,42.11 75.719,20.74 51.272,39.053 "
       style="fill:url(#imagebot_10)" />
    <polygon
       transform="translate(-0.003,0.003)"
       id="imagebot_84"
       fill="url(#imagebot_9)"
       points="42.454,111.22 33.076,96.131 45.421,100.78 53.996,112.22 "
       style="fill:url(#imagebot_9)" />
    <polygon
       transform="translate(-0.003,0.003)"
       id="imagebot_85"
       fill="url(#imagebot_8)"
       points="93.892,68.589 60.772,42.11 59.495,73.896 "
       style="fill:url(#imagebot_8)" />
    <polygon
       transform="translate(-0.003,0.003)"
       id="imagebot_86"
       fill="url(#imagebot_7)"
       points="118.05,98.547 93.892,68.589 156.95,86.237 "
       style="fill:url(#imagebot_7)" />
    <polygon
       transform="translate(-0.003,0.003)"
       id="imagebot_87"
       fill="url(#imagebot_6)"
       points="150.16,138.32 118.05,98.547 156.95,86.237 184.79,108.04 "
       style="fill:url(#imagebot_6)" />
    <polygon
       transform="translate(-0.003,0.003)"
       id="imagebot_88"
       fill="url(#imagebot_5)"
       points="223.44,138.32 208.92,144.54 184.79,108.04 "
       style="fill:url(#imagebot_5)" />
    <line
       transform="translate(-0.003,0.003)"
       id="imagebot_89"
       fill="url(#imagebot_4)"
       y2="114.67"
       x1="118.05"
       x2="67.083"
       y1="98.546997"
       style="fill:url(#imagebot_4)" />
    <polygon
       transform="translate(-0.003,0.003)"
       id="imagebot_90"
       fill="url(#imagebot_3)"
       points="118.05,98.547 108.62,127.16 85.921,126.91 67.083,114.67 "
       style="fill:url(#imagebot_3)" />
    <polygon
       transform="translate(-0.003,0.003)"
       id="imagebot_91"
       fill="url(#imagebot_2)"
       points="67.083,125.02 53.996,112.22 42.454,111.22 77.439,178.12 "
       style="fill:url(#imagebot_2)" />
    <title
       id="title294">imagebot_1</title>
  </g>
  <metadata
     id="metadata297">image/svg+xmlOpenclipartdiamond2013-09-10T02:04:21A diamondhttps://openclipart.org/detail/183273/diamond-by-belier-183273belierBijouxGemGet marriedJewelrydiamantdiamondgemstonesmarierrichesse<rdf:RDF>
  <cc:Work
     rdf:about="">
    <dc:format>image/svg+xml</dc:format>
    <dc:type
       rdf:resource="http://purl.org/dc/dcmitype/StillImage" />
    <dc:title></dc:title>
  </cc:Work>
</rdf:RDF>
</metadata>
  <g
     id="imagebot_42"
     transform="matrix(1.3368686,0,0,1.3368686,-10.195349,72.473348)">
    <polygon
       opacity="0.28"
       transform="translate(-0.003,0.003)"
       id="imagebot_49"
       fill="#7f00ff"
       points="37.507,51.986 19.17,77.726 21.595,86.861 106.02,232.35 236.52,138.37 248.53,124.79 246.73,109.45 237.96,77.52 228.64,62.352 195.38,35.414 133.63,17.918 75.719,20.74 51.272,39.053 " />
    <title
       id="title300">imagebot_42</title>
  </g>
</svg>
