<?xml version="1.0" encoding="UTF-8" standalone="no"?>
<svg
   xmlns:dc="http://purl.org/dc/elements/1.1/"
   xmlns:cc="http://creativecommons.org/ns#"
   xmlns:rdf="http://www.w3.org/1999/02/22-rdf-syntax-ns#"
   xmlns:svg="http://www.w3.org/2000/svg"
   xmlns="http://www.w3.org/2000/svg"
   xmlns:sodipodi="http://sodipodi.sourceforge.net/DTD/sodipodi-0.dtd"
   xmlns:inkscape="http://www.inkscape.org/namespaces/inkscape"
   id="svg2"
   sodipodi:docname="hat.svg"
   viewBox="0 0 472.44095 332.59842"
   sodipodi:version="0.32"
   inkscape:version="1.0.2-2 (e86c870879, 2021-01-15)"
   version="1.1"
   width="125mm"
   height="88mm">
  <defs
     id="defs17" />
  <sodipodi:namedview
     id="base"
     bordercolor="#666666"
     inkscape:pageshadow="2"
     inkscape:window-y="-8"
     pagecolor="#ffffff"
     inkscape:window-height="1017"
     inkscape:zoom="1"
     inkscape:window-x="-8"
     borderopacity="1.0"
     inkscape:current-layer="layer1"
     inkscape:cx="64"
     inkscape:cy="64"
     inkscape:window-width="1920"
     inkscape:pageopacity="0.0"
     inkscape:document-units="px"
     inkscape:document-rotation="0"
     showgrid="false"
     units="mm"
     inkscape:window-maximized="1" />
  <g
     id="layer1"
     inkscape:label="Layer 1"
     inkscape:groupmode="layer">
    <g
       id="g2055"
       transform="matrix(3.8157498,0,0,3.8157498,-12.879648,-31.160106)">
      <path
         id="path4735"
         style="fill:#000000;fill-rule:evenodd"
         d="m 60.031,13.344 c -4.503,1.555 -9.469,-2.203 -13.828,1.347 -9.38,6.227 -8.538,19.35 -10.172,29.309 -3.283,1.987 -0.793,6.417 -3.312,9.125 1.329,5.158 -4.225,4.833 -7.969,5.625 -6.81,1.633 -14.651,0.209 -20.531,4.594 0.9693,11.441 14.124,15.448 23.453,18.208 25.753,6.393 53.143,7.603 79.248,2.584 8.03,-1.781 19.84,-5.281 19.46,-15.448 C 124.53,58.91 112.3,56.483 103.94,58.344 99.673,48.317 101.14,36.992 97.469,26.781 90.855,12.697 73.584,11.043 60.031,13.344 Z" />
      <path
         id="path1295"
         style="fill:#4c2200;fill-rule:evenodd"
         d="m 100.81,59.125 c -19.775,6.183 -67.271,8.68 -91.31,3.687 -1.6649,0.369 -2.8539,0.819 -3.0938,1.5 0.6793,24.113 112.43,28.19 117.53,7.813 3.05,-7.981 -8.34,-15.111 -22.1,-11.375 -0.38,-0.135 -0.73,-0.742 -1.03,-1.625 z" />
      <path
         id="path2102"
         style="fill:#632d00;fill-rule:evenodd"
         d="M 67.781,14.5 C 62.007,14.76 57.366,15.868 56.156,16.25 54.968,15.571 53.252,14.206 48.875,15.594 38.149,18.385 38.863,41.789 36.938,53.5 57.408,51.993 80.307,53.23 100.06,55.969 98.669,48.113 98.03,32.879 95.75,27.812 90.231,16.032 77.404,14.067 67.781,14.5 Z" />
      <path
         id="path1294"
         sodipodi:nodetypes="csccccc"
         style="fill:#b16f37;fill-rule:evenodd"
         d="m 47.314,56.526 c -5.871,0.102 -9.908,0.411 -10.673,0.962 -0.162,0.117 -0.385,0.235 -0.629,0.353 -0.075,0.215 -0.139,0.475 -0.22,0.667 -8.899,3.899 -27.884,3.515 -29.152,5.457 31.615,10.086 92.146,-1.19 96.79,-3.488 0.78,-3.417 -42.261,-4.194 -56.116,-3.951 z" />
      <path
         id="path1306"
         sodipodi:nodetypes="csccccc"
         style="fill:#8e4000;fill-rule:evenodd"
         d="m 47.314,56.054 c -5.871,0.103 -9.908,0.411 -10.673,0.963 -0.162,0.117 -0.385,0.235 -0.629,0.353 -0.075,0.214 -0.139,0.475 -0.22,0.667 -8.899,3.899 -24.135,3.431 -28.319,5.374 35.102,9.88 98.657,-3.934 95.797,-3.156 0.19,-3.25 -42.101,-4.443 -55.956,-4.201 z" />
      <path
         id="path1316"
         sodipodi:nodetypes="ccccc"
         style="fill:#371800;fill-rule:evenodd"
         d="m 50.567,15.416 c 9.283,7.585 -0.962,28.924 -4.754,33.452 -6.793,9.509 22.754,8.83 20.886,0.849 C 57.02,45.302 56.85,33.585 57.19,17.963 55.626,16.286 53.454,17.454 50.567,15.416 Z" />
      <path
         id="path1310"
         sodipodi:nodetypes="cccccc"
         style="fill:#000000;fill-rule:evenodd"
         d="m 36.473,46.107 c 19.471,-13.867 47.773,-0.522 62.999,5.308 1.108,1.093 3.858,8.273 3.148,8.146 -13.568,-2.222 -54.437,-3.886 -67.513,-1.169 -0.594,0.255 -1.166,-5.34 0.39,-6.531 1.843,-1.582 -0.135,-4.38 0.976,-5.754 z" />
      <path
         id="path1312"
         sodipodi:nodetypes="ccc"
         style="fill:#512400;fill-rule:evenodd"
         d="M 63.306,27.506 C 61.1,7.54 89.187,15.55 89.204,33.768 85.426,23.257 68.028,15.016 63.306,27.506 Z" />
      <path
         id="path1314"
         sodipodi:nodetypes="cccc"
         style="fill:#512400;fill-rule:evenodd"
         d="m 50.719,17.344 c -4.564,0.276 -9.828,13.812 -8.383,13.437 2.428,-7.646 9.721,-14.5 10.135,-4.618 0.847,-2.757 1.417,-7.389 -1.752,-8.819 z" />
    </g>
  </g>
  <metadata
     id="metadata14">
    <rdf:RDF>
      <cc:Work>
        <dc:format>image/svg+xml</dc:format>
        <dc:type
           rdf:resource="http://purl.org/dc/dcmitype/StillImage" />
        <cc:license
           rdf:resource="http://creativecommons.org/publicdomain/zero/1.0/" />
        <dc:publisher>
          <cc:Agent
             rdf:about="http://openclipart.org/">
            <dc:title>Openclipart</dc:title>
          </cc:Agent>
        </dc:publisher>
        <dc:title>Adventurer hat</dc:title>
        <dc:date>2008-02-25T14:03:30</dc:date>
        <dc:description>A hat for an adventurer guy (professor, snake-fearing archaeologist or so)</dc:description>
        <dc:source>https://openclipart.org/detail/14831/adventurer-hat-by-nicubunu</dc:source>
        <dc:creator>
          <cc:Agent>
            <dc:title>nicubunu</dc:title>
          </cc:Agent>
        </dc:creator>
        <dc:subject>
          <rdf:Bag>
            <rdf:li>cartoon</rdf:li>
            <rdf:li>clothing</rdf:li>
            <rdf:li>hat</rdf:li>
            <rdf:li>people</rdf:li>
          </rdf:Bag>
        </dc:subject>
      </cc:Work>
      <cc:License
         rdf:about="http://creativecommons.org/publicdomain/zero/1.0/">
        <cc:permits
           rdf:resource="http://creativecommons.org/ns#Reproduction" />
        <cc:permits
           rdf:resource="http://creativecommons.org/ns#Distribution" />
        <cc:permits
           rdf:resource="http://creativecommons.org/ns#DerivativeWorks" />
      </cc:License>
    </rdf:RDF>
  </metadata>
</svg>
