<?xml version="1.0" encoding="UTF-8" standalone="no"?>
<svg
   xmlns:dc="http://purl.org/dc/elements/1.1/"
   xmlns:cc="http://creativecommons.org/ns#"
   xmlns:rdf="http://www.w3.org/1999/02/22-rdf-syntax-ns#"
   xmlns:svg="http://www.w3.org/2000/svg"
   xmlns="http://www.w3.org/2000/svg"
   xmlns:sodipodi="http://sodipodi.sourceforge.net/DTD/sodipodi-0.dtd"
   xmlns:inkscape="http://www.inkscape.org/namespaces/inkscape"
   width="12.456583mm"
   height="30.072893mm"
   viewBox="0 0 12.456583 30.072893"
   version="1.1"
   id="svg22833"
   inkscape:version="1.0.2-2 (e86c870879, 2021-01-15)"
   sodipodi:docname="hot.svg">
  <defs
     id="defs22827">
    <clipPath
       clipPathUnits="userSpaceOnUse"
       id="clipPath18">
      <path
         d="m 503.161,64.991 c 0,-5.666 4.749,-10.257 10.607,-10.257 v 0 c 5.857,0 10.604,4.591 10.604,10.257 v 0 c 0,5.664 -4.747,10.26 -10.604,10.26 v 0 c -5.858,0 -10.607,-4.596 -10.607,-10.26"
         id="path16" />
    </clipPath>
    <radialGradient
       fx="0"
       fy="0"
       cx="0"
       cy="0"
       r="1"
       gradientUnits="userSpaceOnUse"
       gradientTransform="matrix(-13.110148,0,0,-12.681863,513.7666,69.753906)"
       spreadMethod="pad"
       id="radialGradient34">
      <stop
         style="stop-opacity:1;stop-color:#ffffff"
         offset="0"
         id="stop24" />
      <stop
         style="stop-opacity:1;stop-color:#c3c7d3"
         offset="0.63321252"
         id="stop26" />
      <stop
         style="stop-opacity:1;stop-color:#c3c7d3"
         offset="0.726776"
         id="stop28" />
      <stop
         style="stop-opacity:1;stop-color:#75777f"
         offset="0.90320093"
         id="stop30" />
      <stop
         style="stop-opacity:1;stop-color:#75777f"
         offset="1"
         id="stop32" />
    </radialGradient>
    <clipPath
       clipPathUnits="userSpaceOnUse"
       id="clipPath44">
      <path
         d="m 508.402,126.909 c -0.346,0 -0.628,-0.356 -0.628,-0.789 v 0 -57.754 c 0,-0.435 0.282,-0.787 0.628,-0.787 v 0 h 10.731 c 0.348,0 0.628,0.352 0.628,0.787 v 0 57.754 c 0,0.433 -0.28,0.789 -0.628,0.789 v 0 z"
         id="path42" />
    </clipPath>
    <radialGradient
       fx="0"
       fy="0"
       cx="0"
       cy="0"
       r="1"
       gradientUnits="userSpaceOnUse"
       gradientTransform="matrix(-120.13553,0,0,-150.70233,513.93457,184.41406)"
       spreadMethod="pad"
       id="radialGradient60">
      <stop
         style="stop-opacity:1;stop-color:#ffffff"
         offset="0"
         id="stop50" />
      <stop
         style="stop-opacity:1;stop-color:#c3c7d3"
         offset="0.63321252"
         id="stop52" />
      <stop
         style="stop-opacity:1;stop-color:#c3c7d3"
         offset="0.726776"
         id="stop54" />
      <stop
         style="stop-opacity:1;stop-color:#75777f"
         offset="0.90320093"
         id="stop56" />
      <stop
         style="stop-opacity:1;stop-color:#75777f"
         offset="1"
         id="stop58" />
    </radialGradient>
    <clipPath
       clipPathUnits="userSpaceOnUse"
       id="clipPath70">
      <path
         d="m 509.104,110.329 c -0.301,0 -0.545,-0.237 -0.545,-0.527 v 0 -38.697 c 0,-0.288 0.244,-0.528 0.545,-0.528 v 0 h 9.326 c 0.301,0 0.543,0.24 0.543,0.528 v 0 38.697 c 0,0.29 -0.242,0.527 -0.543,0.527 v 0 z"
         id="path68" />
    </clipPath>
    <radialGradient
       fx="0"
       fy="0"
       cx="0"
       cy="0"
       r="1"
       gradientUnits="userSpaceOnUse"
       gradientTransform="matrix(-78.908516,0,0,-76.330719,511.09668,45.327148)"
       spreadMethod="pad"
       id="radialGradient82">
      <stop
         style="stop-opacity:1;stop-color:#ffa6a6"
         offset="0"
         id="stop76" />
      <stop
         style="stop-opacity:1;stop-color:#ff0000"
         offset="0.629032"
         id="stop78" />
      <stop
         style="stop-opacity:1;stop-color:#b80000"
         offset="1"
         id="stop80" />
    </radialGradient>
    <clipPath
       clipPathUnits="userSpaceOnUse"
       id="clipPath92">
      <path
         d="m 504.17,64.991 c 0,-4.99 4.298,-9.037 9.598,-9.037 v 0 c 5.301,0 9.597,4.047 9.597,9.037 v 0 c 0,4.99 -4.296,9.033 -9.597,9.033 v 0 c -5.3,0 -9.598,-4.043 -9.598,-9.033"
         id="path90" />
    </clipPath>
    <radialGradient
       fx="0"
       fy="0"
       cx="0"
       cy="0"
       r="1"
       gradientUnits="userSpaceOnUse"
       gradientTransform="matrix(-36.013588,0,0,-48.942757,514.03613,91.537109)"
       spreadMethod="pad"
       id="radialGradient104">
      <stop
         style="stop-opacity:1;stop-color:#ffa6a6"
         offset="0"
         id="stop98" />
      <stop
         style="stop-opacity:1;stop-color:#ff0000"
         offset="0.629032"
         id="stop100" />
      <stop
         style="stop-opacity:1;stop-color:#b80000"
         offset="1"
         id="stop102" />
    </radialGradient>
    <clipPath
       clipPathUnits="userSpaceOnUse"
       id="clipPath114">
      <path
         d="m 505.872,67.451 c 0,-3.38 3.533,-6.114 7.896,-6.114 v 0 c 4.361,0 7.895,2.734 7.895,6.114 v 0 c 0,3.376 -3.534,6.111 -7.895,6.111 v 0 c -4.363,0 -7.896,-2.735 -7.896,-6.111"
         id="path112" />
    </clipPath>
    <radialGradient
       fx="0"
       fy="0"
       cx="0"
       cy="0"
       r="1"
       gradientUnits="userSpaceOnUse"
       gradientTransform="matrix(-29.973732,0,0,-33.510197,512.92773,77.259766)"
       spreadMethod="pad"
       id="radialGradient126">
      <stop
         style="stop-opacity:1;stop-color:#ffffff"
         offset="0"
         id="stop120" />
      <stop
         style="stop-opacity:1;stop-color:#e20000"
         offset="0.55047286"
         id="stop122" />
      <stop
         style="stop-opacity:1;stop-color:#e20000"
         offset="1"
         id="stop124" />
    </radialGradient>
    <clipPath
       clipPathUnits="userSpaceOnUse"
       id="clipPath258">
      <path
         d="m 490.911,43.826 c 0,-1.194 7.904,-2.163 17.656,-2.163 v 0 c 9.751,0 17.654,0.969 17.654,2.163 v 0 c 0,1.19 -7.903,2.16 -17.654,2.16 v 0 c -9.752,0 -17.656,-0.97 -17.656,-2.16"
         id="path256" />
    </clipPath>
    <radialGradient
       fx="0"
       fy="0"
       cx="0"
       cy="0"
       r="1"
       gradientUnits="userSpaceOnUse"
       gradientTransform="matrix(16.064825,0,0,-1.9660641,508.56445,43.824219)"
       spreadMethod="pad"
       id="radialGradient270">
      <stop
         style="stop-opacity:1;stop-color:#bfbfbf"
         offset="0"
         id="stop264" />
      <stop
         style="stop-opacity:1;stop-color:#ffffff"
         offset="0.83140033"
         id="stop266" />
      <stop
         style="stop-opacity:1;stop-color:#ffffff"
         offset="1"
         id="stop268" />
    </radialGradient>
  </defs>
  <sodipodi:namedview
     id="base"
     pagecolor="#ffffff"
     bordercolor="#666666"
     borderopacity="1.0"
     inkscape:pageopacity="0.0"
     inkscape:pageshadow="2"
     inkscape:zoom="3.959798"
     inkscape:cx="59.837998"
     inkscape:cy="63.770145"
     inkscape:document-units="mm"
     inkscape:current-layer="layer1"
     inkscape:document-rotation="0"
     showgrid="false"
     fit-margin-top="0"
     fit-margin-left="0"
     fit-margin-right="0"
     fit-margin-bottom="0"
     inkscape:window-width="1267"
     inkscape:window-height="1040"
     inkscape:window-x="234"
     inkscape:window-y="0"
     inkscape:window-maximized="0" />
  <metadata
     id="metadata22830">
    <rdf:RDF>
      <cc:Work
         rdf:about="">
        <dc:format>image/svg+xml</dc:format>
        <dc:type
           rdf:resource="http://purl.org/dc/dcmitype/StillImage" />
        <dc:title></dc:title>
      </cc:Work>
    </rdf:RDF>
  </metadata>
  <g
     inkscape:label="Layer 1"
     inkscape:groupmode="layer"
     id="layer1"
     transform="translate(-110.18837,-143.71356)">
    <g
       id="g12"
       transform="matrix(0.35277777,0,0,-0.35277777,-62.994113,188.48423)">
      <g
         id="g14"
         clip-path="url(#clipPath18)">
        <g
           id="g20">
          <g
             id="g22">
            <path
               d="m 503.161,64.991 c 0,-5.666 4.749,-10.257 10.607,-10.257 v 0 c 5.857,0 10.604,4.591 10.604,10.257 v 0 c 0,5.664 -4.747,10.26 -10.604,10.26 v 0 c -5.858,0 -10.607,-4.596 -10.607,-10.26"
               style="fill:url(#radialGradient34);stroke:none"
               id="path36" />
          </g>
        </g>
      </g>
    </g>
    <g
       id="g38"
       transform="matrix(0.35277777,0,0,-0.35277777,-62.994113,188.48423)">
      <g
         id="g40"
         clip-path="url(#clipPath44)">
        <g
           id="g46">
          <g
             id="g48">
            <path
               d="m 508.402,126.909 c -0.346,0 -0.628,-0.356 -0.628,-0.789 v 0 -57.754 c 0,-0.435 0.282,-0.787 0.628,-0.787 v 0 h 10.731 c 0.348,0 0.628,0.352 0.628,0.787 v 0 57.754 c 0,0.433 -0.28,0.789 -0.628,0.789 v 0 z"
               style="fill:url(#radialGradient60);stroke:none"
               id="path62" />
          </g>
        </g>
      </g>
    </g>
    <g
       id="g64"
       transform="matrix(0.35277777,0,0,-0.44605975,-62.994113,195.06779)">
      <g
         id="g66"
         clip-path="url(#clipPath70)">
        <g
           id="g72">
          <g
             id="g74">
            <path
               d="m 509.104,110.329 c -0.301,0 -0.545,-0.237 -0.545,-0.527 v 0 -38.697 c 0,-0.288 0.244,-0.528 0.545,-0.528 v 0 h 9.326 c 0.301,0 0.543,0.24 0.543,0.528 v 0 38.697 c 0,0.29 -0.242,0.527 -0.543,0.527 v 0 z"
               style="fill:url(#radialGradient82);stroke:none"
               id="path84" />
          </g>
        </g>
      </g>
    </g>
    <g
       id="g86"
       transform="matrix(0.35277777,0,0,-0.35277777,-62.994113,188.48423)">
      <g
         id="g88"
         clip-path="url(#clipPath92)">
        <g
           id="g94">
          <g
             id="g96">
            <path
               d="m 504.17,64.991 c 0,-4.99 4.298,-9.037 9.598,-9.037 v 0 c 5.301,0 9.597,4.047 9.597,9.037 v 0 c 0,4.99 -4.296,9.033 -9.597,9.033 v 0 c -5.3,0 -9.598,-4.043 -9.598,-9.033"
               style="fill:url(#radialGradient104);stroke:none"
               id="path106" />
          </g>
        </g>
      </g>
    </g>
    <g
       id="g108"
       transform="matrix(0.35277777,0,0,-0.35277777,-62.994113,188.48423)">
      <g
         id="g110"
         clip-path="url(#clipPath114)">
        <g
           id="g116">
          <g
             id="g118">
            <path
               d="m 505.872,67.451 c 0,-3.38 3.533,-6.114 7.896,-6.114 v 0 c 4.361,0 7.895,2.734 7.895,6.114 v 0 c 0,3.376 -3.534,6.111 -7.895,6.111 v 0 c -4.363,0 -7.896,-2.735 -7.896,-6.111"
               style="fill:url(#radialGradient126);stroke:none"
               id="path128" />
          </g>
        </g>
      </g>
    </g>
    <g
       id="g252"
       transform="matrix(0.35277777,0,0,-0.35277777,-62.994113,188.48423)">
      <g
         id="g254"
         clip-path="url(#clipPath258)">
        <g
           id="g260">
          <g
             id="g262">
            <path
               d="m 490.911,43.826 c 0,-1.194 7.904,-2.163 17.656,-2.163 v 0 c 9.751,0 17.654,0.969 17.654,2.163 v 0 c 0,1.19 -7.903,2.16 -17.654,2.16 v 0 c -9.752,0 -17.656,-0.97 -17.656,-2.16"
               style="fill:url(#radialGradient270);stroke:none"
               id="path272" />
          </g>
        </g>
      </g>
    </g>
  </g>
</svg>
