<?xml version="1.0" encoding="UTF-8" standalone="no"?>
<svg
   xmlns:dc="http://purl.org/dc/elements/1.1/"
   xmlns:cc="http://creativecommons.org/ns#"
   xmlns:rdf="http://www.w3.org/1999/02/22-rdf-syntax-ns#"
   xmlns:svg="http://www.w3.org/2000/svg"
   xmlns="http://www.w3.org/2000/svg"
   xmlns:sodipodi="http://sodipodi.sourceforge.net/DTD/sodipodi-0.dtd"
   xmlns:inkscape="http://www.inkscape.org/namespaces/inkscape"
   version="1.1"
   x="0"
   y="0"
   width="358.05591"
   height="370.02145"
   viewBox="0 0 358.05591 370.02145"
   id="svg176"
   sodipodi:docname="humid.svg"
   inkscape:version="1.0.2-2 (e86c870879, 2021-01-15)">
  <metadata
     id="metadata180">
    <rdf:RDF>
      <cc:Work
         rdf:about="">
        <dc:format>image/svg+xml</dc:format>
        <dc:type
           rdf:resource="http://purl.org/dc/dcmitype/StillImage" />
        <dc:title></dc:title>
      </cc:Work>
    </rdf:RDF>
  </metadata>
  <sodipodi:namedview
     pagecolor="#ffffff"
     bordercolor="#666666"
     borderopacity="1"
     objecttolerance="10"
     gridtolerance="10"
     guidetolerance="10"
     inkscape:pageopacity="0"
     inkscape:pageshadow="2"
     inkscape:window-width="1920"
     inkscape:window-height="1017"
     id="namedview178"
     showgrid="false"
     fit-margin-top="0"
     fit-margin-left="0"
     fit-margin-right="0"
     fit-margin-bottom="0"
     inkscape:zoom="1.6070609"
     inkscape:cx="148.94957"
     inkscape:cy="238.83954"
     inkscape:window-x="-8"
     inkscape:window-y="-8"
     inkscape:window-maximized="1"
     inkscape:current-layer="g173" />
  <defs
     id="defs5">
    <clipPath
       id="Clip_1">
      <path
         d="M 361.897,-0.958 V 372.885 H 0.316 V -0.958 Z"
         id="path2" />
    </clipPath>
  </defs>
  <g
     id="Layer_1"
     transform="translate(-2.2590923,-2.8635514)">
    <g
       clip-path="url(#Clip_1)"
       id="g173">
      <path
         d="M 286.225,118.274 C 281.307,59.547 248.861,2.619 182.706,4.757 116.55,2.619 84.104,59.547 79.186,118.274 c -5.135,61.306 1.942,111.5 40.737,113 15.565,0.601 19.142,-3.665 19.142,-3.665 l 43.641,-7.303 43.64,7.303 c 0,0 3.578,4.266 19.143,3.665 38.795,-1.5 45.871,-51.694 40.736,-113"
         fill="#a79275"
         id="path11" />
      <path
         d="M 286.225,118.274 C 281.307,59.547 248.861,2.619 182.706,4.757 116.55,2.619 84.104,59.547 79.186,118.274 c -5.135,61.306 1.942,111.5 40.737,113 15.565,0.601 19.142,-3.665 19.142,-3.665 l 43.641,-7.303 43.64,7.303 c 0,0 3.578,4.266 19.143,3.665 38.795,-1.5 45.871,-51.694 40.736,-113 z"
         fill-opacity="0"
         stroke="#797979"
         stroke-width="3.671"
         stroke-linecap="round"
         stroke-linejoin="round"
         id="path13"
         style="stroke:#000000;stroke-opacity:1" />
      <path
         d="m 139.065,227.609 c 0,0 -26.373,4.662 -33.937,-28.002"
         fill-opacity="0"
         stroke="#797979"
         stroke-width="3.671"
         stroke-linecap="round"
         stroke-linejoin="round"
         id="path15"
         style="stroke:#000000;stroke-opacity:1" />
      <path
         d="m 226.346,227.609 c 0,0 26.373,4.662 33.938,-28.002"
         fill-opacity="0"
         stroke="#797979"
         stroke-width="3.671"
         stroke-linecap="round"
         stroke-linejoin="round"
         id="path17"
         style="stroke:#000000;stroke-opacity:1" />
      <path
         d="m 214.063,239.476 c 0,0 0.073,-1.281 -5.474,-4.341 -5.549,-3.06 -17.176,-7.281 -24.253,-6.891 -1.62,0.09 -2.591,0.159 -2.615,0.16 -0.023,0.001 -1.013,0.039 -2.633,0.123 -7.079,0.371 -18.186,5.815 -23.374,9.453 -5.188,3.636 -4.977,4.902 -4.977,4.902 0.295,6.701 6.395,23.9 6.395,23.9 l 26.568,-1.429 26.568,-1.429 c 0,0 4.219,-17.754 3.795,-24.448"
         fill="#ffffff"
         id="path19" />
      <path
         d="m 214.063,239.476 c 0,0 0.073,-1.281 -5.474,-4.341 -5.549,-3.06 -17.176,-7.281 -24.253,-6.891 -1.62,0.09 -2.591,0.159 -2.615,0.16 -0.023,0.001 -1.013,0.039 -2.633,0.123 -7.079,0.371 -18.186,5.815 -23.374,9.453 -5.188,3.636 -4.977,4.902 -4.977,4.902 0.295,6.701 6.395,23.9 6.395,23.9 l 26.568,-1.429 26.568,-1.429 c 0,0 4.219,-17.754 3.795,-24.448 z"
         fill-opacity="0"
         stroke="#797979"
         stroke-width="4"
         stroke-linecap="round"
         stroke-linejoin="round"
         id="path21" />
      <path
         d="m 195.008,230.685 -4.451,-2.574 -1.361,-14.38 -6.49,-4.22 -6.49,4.22 -1.362,14.38 -4.451,2.574 c 0,8.467 12.303,42.406 12.303,42.406 0,0 12.302,-33.748 12.302,-42.406"
         fill="#ffefd9"
         id="path23" />
      <path
         d="m 195.008,230.685 -4.451,-2.574 -1.361,-14.38 -6.49,-4.22 -6.49,4.22 -1.362,14.38 -4.451,2.574 c 0,8.467 12.303,42.406 12.303,42.406 0,0 12.302,-33.748 12.302,-42.406 z"
         fill-opacity="0"
         stroke="#797979"
         stroke-width="4"
         stroke-linecap="round"
         stroke-linejoin="round"
         id="path25"
         style="stroke:#000000;stroke-opacity:1" />
      <path
         d="m 156.23,236.542 c -3.673,1.021 -32.019,34.457 -34.892,38.443 l -35.251,-28.693 -16.297,6.38 c 0,0 36.664,38.347 43.388,43.292 12.712,9.349 21.653,-4.975 25.346,-9.517 1.381,-1.698 17.726,-20.189 20.866,-24.051"
         fill="#ffefd9"
         id="path27" />
      <path
         d="m 156.23,236.542 c -3.673,1.021 -32.019,34.457 -34.892,38.443 l -35.251,-28.693 -16.297,6.38 c 0,0 36.664,38.347 43.388,43.292 12.712,9.349 21.653,-4.975 25.346,-9.517 1.381,-1.698 17.726,-20.189 20.866,-24.051"
         fill-opacity="0"
         stroke="#797979"
         stroke-width="4"
         stroke-linecap="round"
         stroke-linejoin="round"
         id="path29"
         style="stroke:#000000;stroke-opacity:1" />
      <path
         d="m 235.401,324.866 -7.268,-18.173 31.721,-9.693 13.872,11.256 z"
         fill="#ffefd9"
         id="path31" />
      <path
         d="m 235.401,324.866 -7.268,-18.173 31.721,-9.693 13.872,11.256 z"
         fill-opacity="0"
         stroke="#797979"
         stroke-width="4"
         stroke-linecap="round"
         stroke-linejoin="round"
         id="path33"
         style="stroke:#000000;stroke-opacity:1" />
      <path
         d="m 204.078,261.925 16.538,50.195 c 0,0 2.124,7.646 10.47,7.646 3.788,0 9.716,-7 9.716,-7 -5.441,-20.368 -23.228,-71.963 -28.495,-74.888 l -1.149,-0.517"
         fill="#ffefd9"
         id="path35" />
      <path
         d="m 204.078,261.925 16.538,50.195 c 0,0 2.124,7.646 10.47,7.646 3.788,0 9.716,-7 9.716,-7 -5.441,-20.368 -23.228,-71.963 -28.495,-74.888 l -1.149,-0.517"
         fill-opacity="0"
         stroke="#797979"
         stroke-width="4"
         stroke-linecap="round"
         stroke-linejoin="round"
         id="path37"
         style="stroke:#000000;stroke-opacity:1" />
      <path
         d="m 201.762,231.603 c 0,0 17.129,-0.469 20.006,4.459 7.125,12.203 18.704,25.901 18.704,25.901 l -29.568,23.099 -5.953,-22.467"
         fill="#ffffff"
         id="path39" />
      <path
         d="m 201.762,231.603 c 0,0 17.129,-0.469 20.006,4.459 7.125,12.203 18.704,25.901 18.704,25.901 l -29.568,23.099 -5.953,-22.467"
         fill-opacity="0"
         stroke="#797979"
         stroke-width="4"
         stroke-linecap="round"
         stroke-linejoin="round"
         id="path41"
         style="stroke:#000000;stroke-opacity:1" />
      <path
         d="m 163.649,231.603 c 0,0 -17.129,-0.469 -20.006,4.459 -7.125,12.203 -18.704,25.901 -18.704,25.901 l 26.277,20.526 9.245,-19.894"
         fill="#ffffff"
         id="path43" />
      <path
         d="m 163.649,231.603 c 0,0 -17.129,-0.469 -20.006,4.459 -7.125,12.203 -18.704,25.901 -18.704,25.901 l 26.277,20.526 9.245,-19.894"
         fill-opacity="0"
         stroke="#797979"
         stroke-width="4"
         stroke-linecap="round"
         stroke-linejoin="round"
         id="path45"
         style="stroke:#000000;stroke-opacity:1" />
      <path
         style="fill:#000000;fill-opacity:1;stroke:#000000;stroke-width:0.989821px;stroke-linecap:butt;stroke-linejoin:miter;stroke-opacity:1"
         d="m 137.39617,372.65714 10.32815,-40.63733 69.8786,0.68058 9.19728,40.06417 z"
         id="path1005" />
      <path
         d="m 157.581,259.062 -5.664,55.904 -4.051,16.093 69.678,0.699 -4.123,-16.792 -5.664,-55.904"
         fill="#ffffff"
         id="path51" />
      <path
         d="m 157.581,259.062 -5.664,55.904 -4.051,16.093 69.678,0.699 -4.123,-16.792 -5.664,-55.904"
         fill-opacity="0"
         stroke="#797979"
         stroke-width="4"
         stroke-linecap="round"
         stroke-linejoin="round"
         id="path53"
         style="stroke:#000000;stroke-opacity:1" />
      <path
         d="m 170.442,245.435 c 0,5.521 12.303,27.656 12.303,27.656 0,0 12.303,-22.01 12.303,-27.656"
         fill="#ffefd9"
         id="path59" />
      <path
         d="m 174.893,228.111 -9.617,2.406 -10.992,20.997 16.014,-5.417 12.453,26.712 -8.967,-37.89 z"
         fill="#ffffff"
         id="path63" />
      <path
         d="m 174.893,228.111 -9.617,2.406 -10.992,20.997 16.014,-5.417 12.453,26.712 -8.967,-37.89 z"
         fill-opacity="0"
         stroke="#797979"
         stroke-width="4"
         stroke-linecap="round"
         stroke-linejoin="round"
         id="path65"
         style="stroke:#000000;stroke-opacity:1" />
      <path
         d="m 190.518,228.111 9.619,2.406 10.991,20.997 -16.014,-5.417 -12.453,26.712 8.967,-37.89 z"
         fill="#ffffff"
         id="path67" />
      <path
         d="m 190.518,228.111 9.619,2.406 10.991,20.997 -16.014,-5.417 -12.453,26.712 8.967,-37.89 z"
         fill-opacity="0"
         stroke="#797979"
         stroke-width="4"
         stroke-linecap="round"
         stroke-linejoin="round"
         id="path69"
         style="stroke:#000000;stroke-opacity:1" />
      <path
         d="m 111.595,127.029 c 0,0 -28.141,-5.808 -28.141,19.636 0,14.967 9.687,21.763 29.605,22.048"
         fill="#ffefd9"
         id="path71" />
      <path
         d="m 111.595,127.029 c 0,0 -28.141,-5.808 -28.141,19.636 0,14.967 9.687,21.763 29.605,22.048"
         fill-opacity="0"
         stroke="#797979"
         stroke-width="4"
         stroke-linecap="round"
         stroke-linejoin="round"
         id="path73"
         style="stroke:#000000;stroke-opacity:1" />
      <path
         d="m 94.177,148.042 c 0,0 3.689,-1.704 7.205,-1.682"
         fill="#ffefd9"
         id="path75" />
      <path
         d="m 94.177,148.042 c 0,0 3.689,-1.704 7.205,-1.682"
         fill-opacity="0"
         stroke="#797979"
         stroke-width="4"
         stroke-linecap="round"
         stroke-linejoin="round"
         id="path77"
         style="stroke:#000000;stroke-opacity:1" />
      <path
         d="m 253.815,127.029 c 0,0 28.143,-5.808 28.143,19.636 0,14.967 -9.69,21.763 -29.608,22.048"
         fill="#ffefd9"
         id="path79" />
      <path
         d="m 253.815,127.029 c 0,0 28.143,-5.808 28.143,19.636 0,14.967 -9.69,21.763 -29.608,22.048"
         fill-opacity="0"
         stroke="#797979"
         stroke-width="4"
         stroke-linecap="round"
         stroke-linejoin="round"
         id="path81"
         style="stroke:#000000;stroke-opacity:1" />
      <path
         d="m 271.233,148.042 c 0,0 -3.689,-1.704 -7.205,-1.682"
         fill="#ffefd9"
         id="path83" />
      <path
         d="m 271.233,148.042 c 0,0 -3.689,-1.704 -7.205,-1.682"
         fill-opacity="0"
         stroke="#797979"
         stroke-width="4"
         stroke-linecap="round"
         stroke-linejoin="round"
         id="path85"
         style="stroke:#000000;stroke-opacity:1" />
      <path
         d="m 182.705,223.583 c -120.76,0 -109.076,-196.947 0,-196.947 109.077,0 120.761,196.947 0,196.947"
         fill="#ffefd9"
         id="path87" />
      <path
         d="m 182.705,223.583 c -120.76,0 -109.076,-196.947 0,-196.947 109.077,0 120.761,196.947 0,196.947 z"
         fill-opacity="0"
         stroke="#797979"
         stroke-width="4"
         stroke-linecap="round"
         stroke-linejoin="round"
         id="path89"
         style="stroke:#000000;stroke-opacity:1" />
      <path
         d="m 121.7,45.378 c -0.278,20.617 18.4,29.478 43.328,32.468 24.93,2.991 83.449,-1.709 101.256,7.264 0,0 -6.926,-74.797 -99.568,-74.797 -29.772,0 -44.75,15.461 -45.016,35.065"
         fill="#a79275"
         id="path91" />
      <path
         d="m 130.913,22.552 c -6.026,6.101 -9.094,14.048 -9.213,22.826 -0.278,20.617 18.4,29.478 43.328,32.468 24.93,2.991 83.449,-1.709 101.256,7.264"
         fill-opacity="0"
         stroke="#797979"
         stroke-width="3.571"
         stroke-linecap="round"
         stroke-linejoin="round"
         id="path93"
         style="stroke:#000000;stroke-opacity:1" />
      <path
         d="m 164.284,30.853 c 0,0 -7.302,35.317 16.599,46.281"
         fill-opacity="0"
         stroke="#797979"
         stroke-width="3.492"
         stroke-linecap="round"
         stroke-linejoin="round"
         id="path95"
         style="stroke:#000000;stroke-opacity:1" />
      <path
         d="m 187.284,42.815 c 0,0 4.642,24.383 18.571,35.474"
         fill-opacity="0"
         stroke="#797979"
         stroke-width="3.492"
         stroke-linecap="round"
         stroke-linejoin="round"
         id="path97"
         style="stroke:#000000;stroke-opacity:1" />
      <path
         d="m 178.787,164.075 c 0,0 -1.333,6 3.919,5.667"
         fill-opacity="0"
         stroke="#797979"
         stroke-width="4"
         stroke-linecap="round"
         stroke-linejoin="round"
         id="path99"
         style="stroke:#000000;stroke-opacity:1" />
      <path
         d="m 186.778,178.507 c -0.988,-0.582 -2.179,-0.937 -3.594,-1.004 -0.048,-0.003 -0.095,-0.013 -0.142,-0.015 -0.117,-0.003 -0.223,0.006 -0.337,0.006 -0.114,0 -0.22,-0.009 -0.337,-0.006 -0.047,0.002 -0.095,0.012 -0.143,0.015 -1.415,0.067 -2.605,0.422 -3.593,1.004 -9.233,4.595 -16.776,23.423 -11.764,27.054 7.73,5.601 7.888,-3.398 15.837,-3.398 7.949,0 8.106,8.999 15.837,3.398 5.011,-3.631 -2.532,-22.459 -11.764,-27.054"
         fill="#f4aca6"
         id="path101"
         style="fill:#f491a6;fill-opacity:1" />
      <path
         d="m 186.778,178.507 c -0.988,-0.582 -2.179,-0.937 -3.594,-1.004 -0.048,-0.003 -0.095,-0.013 -0.142,-0.015 -0.117,-0.003 -0.223,0.006 -0.337,0.006 -0.114,0 -0.22,-0.009 -0.337,-0.006 -0.047,0.002 -0.095,0.012 -0.143,0.015 -1.415,0.067 -2.605,0.422 -3.593,1.004 -9.233,4.595 -16.776,23.423 -11.764,27.054 7.73,5.601 7.888,-3.398 15.837,-3.398 7.949,0 8.106,8.999 15.837,3.398 5.011,-3.631 -2.532,-22.459 -11.764,-27.054 z"
         fill-opacity="0"
         stroke="#797979"
         stroke-width="4"
         stroke-linecap="round"
         stroke-linejoin="round"
         id="path103"
         style="stroke:#e2465b;stroke-opacity:1" />
      <path
         d="m 224.618,130.824 c 0,7.627 -2.537,13.81 -5.668,13.81 -3.131,0 -5.668,-6.183 -5.668,-13.81 0,-7.627 2.537,-13.808 5.668,-13.808 3.131,0 5.668,6.181 5.668,13.808"
         fill="#797979"
         id="path105"
         style="fill:#000000;fill-opacity:1" />
      <path
         d="m 138.384,138.186 c 0,0 10.516,-0.449 15.383,-7.412 -5.883,0.849 -16.383,-3.006 -16.383,-3.006"
         fill-opacity="0"
         stroke="#797979"
         stroke-width="4"
         stroke-linecap="round"
         stroke-linejoin="round"
         id="path107"
         style="stroke:#000000;stroke-opacity:1" />
      <path
         d="m 123.09,159.27 c 0,0 -2.847,15.986 1.72,23.073 3.985,6.183 10.346,4.157 9.662,-3.707 -0.341,-3.935 -1.96,-6.244 -1.96,-6.244"
         fill="#b4e2eb"
         id="path109"
         style="fill:#73e2eb;fill-opacity:1" />
      <path
         d="m 251.121,142.801 c 0,0 -8.88,13.594 -7.453,21.903 1.245,7.249 7.891,7.877 10.341,0.373 1.227,-3.754 0.643,-6.512 0.643,-6.512"
         fill="#b4e2eb"
         id="path113"
         style="fill:#73e2eb;fill-opacity:1" />
      <path
         d="m 136.094,93.92 c 0,0 13.167,-1.935 19,-8"
         fill-opacity="0"
         stroke="#797979"
         stroke-width="4"
         stroke-linecap="round"
         stroke-linejoin="round"
         id="path117"
         style="stroke:#000000;stroke-opacity:1" />
      <path
         d="m 229.315,93.92 c 0,0 -13.167,-1.935 -19,-8"
         fill-opacity="0"
         stroke="#797979"
         stroke-width="4"
         stroke-linecap="round"
         stroke-linejoin="round"
         id="path119"
         style="stroke:#000000;stroke-opacity:1" />
      <path
         d="m 75.635,258.753 -2.139,-2.21 c -2.118,-1.392 -4.232,-3.536 -5.263,-6.636 -1.154,-3.468 -0.628,-3.772 -0.652,-6.31 -0.137,-14.185 7.559,-22.369 13.801,-32.652 6.246,-10.285 19.233,-19.552 29.61,-12.372 7.177,4.965 2.614,15.279 -2.714,22.539 -5.328,7.268 -8.198,12.399 -8.198,12.399 0,0 -2.813,10.586 -7.8,17.823 l 4.699,3.823"
         fill="#ffefd9"
         id="path121" />
      <path
         d="m 75.635,258.753 -2.139,-2.21 c -2.118,-1.392 -4.232,-3.536 -5.263,-6.636 -1.154,-3.468 -0.628,-3.772 -0.652,-6.31 -0.137,-14.185 7.559,-22.369 13.801,-32.652 6.246,-10.285 19.233,-19.552 29.61,-12.372 7.177,4.965 2.614,15.279 -2.714,22.539 -5.328,7.268 -8.198,12.399 -8.198,12.399 0,0 -2.813,10.586 -7.8,17.823 l 4.699,3.823"
         fill-opacity="0"
         stroke="#797979"
         stroke-width="4"
         stroke-linecap="round"
         stroke-linejoin="round"
         id="path123"
         style="stroke:#000000;stroke-opacity:1" />
      <path
         d="m 114.205,209.477 c 0,0 -5.007,-0.514 -10.285,2.68 -5.276,3.195 -9.908,8.893 -9.908,8.893"
         fill="#ffefd9"
         id="path125" />
      <path
         d="m 114.205,209.477 c 0,0 -5.007,-0.514 -10.285,2.68 -5.276,3.195 -9.908,8.893 -9.908,8.893"
         fill-opacity="0"
         stroke="#797979"
         stroke-width="4"
         stroke-linecap="round"
         stroke-linejoin="round"
         id="path127"
         style="stroke:#000000;stroke-opacity:1" />
      <path
         d="m 112.596,199.988 c 0,0 -6.979,-1.631 -13.368,3.176 -5.459,4.11 -7.126,5.387 -7.126,5.387"
         fill="#ffefd9"
         id="path129" />
      <path
         d="m 112.596,199.988 c 0,0 -6.979,-1.631 -13.368,3.176 -5.459,4.11 -7.126,5.387 -7.126,5.387"
         fill-opacity="0"
         stroke="#797979"
         stroke-width="4"
         stroke-linecap="round"
         stroke-linejoin="round"
         id="path131"
         style="stroke:#000000;stroke-opacity:1" />
      <path
         d="m 252.185,239.346 c -2.386,-3.582 -6.207,-6.447 -6.207,-7.284 v -5.388 h -14.924 v 5.388 c 0,0.837 -3.82,3.702 -6.209,7.284 -2.386,3.581 -5.371,7.759 -5.371,13.252 v 69.959 c 0,7.877 3.943,13.328 6.808,13.328 2.865,0 4.176,-3.3 4.176,-3.3 l 2.15,0.119 c 0,0 0.236,1.91 0.715,3.103 0.478,1.194 2.03,2.627 3.343,2.627 h 3.7 c 1.313,0 2.865,-1.433 3.344,-2.627 0.477,-1.193 0.715,-3.103 0.715,-3.103 l 2.15,-0.119 c 0,0 1.309,3.3 4.176,3.3 2.863,0 6.807,-5.451 6.807,-13.328 v -69.959 c 0,-5.493 -2.985,-9.671 -5.373,-13.252"
         fill="#ebfcff"
         id="path133" />
      <path
         d="m 252.185,239.346 c -2.386,-3.582 -6.207,-6.447 -6.207,-7.284 v -5.388 h -14.924 v 5.388 c 0,0.837 -3.82,3.702 -6.209,7.284 -2.386,3.581 -5.371,7.759 -5.371,13.252 v 69.959 c 0,7.877 3.943,13.328 6.808,13.328 2.865,0 4.176,-3.3 4.176,-3.3 l 2.15,0.119 c 0,0 0.236,1.91 0.715,3.103 0.478,1.194 2.03,2.627 3.343,2.627 h 3.7 c 1.313,0 2.865,-1.433 3.344,-2.627 0.477,-1.193 0.715,-3.103 0.715,-3.103 l 2.15,-0.119 c 0,0 1.309,3.3 4.176,3.3 2.863,0 6.807,-5.451 6.807,-13.328 v -69.959 c 0,-5.493 -2.985,-9.671 -5.373,-13.252 z"
         fill-opacity="0"
         stroke="#797979"
         stroke-width="4"
         stroke-linecap="round"
         stroke-linejoin="round"
         id="path135" />
      <path
         d="m 238.573,223.421 c -1.028,0 -10.036,0.065 -10.036,2.347 0,2.281 9.008,2.346 10.036,2.346 1.026,0 10.035,-0.065 10.035,-2.346 0,-2.282 -9.009,-2.347 -10.035,-2.347"
         fill="#ffffff"
         id="path137" />
      <path
         d="m 238.573,223.421 c -1.028,0 -10.036,0.065 -10.036,2.347 0,2.281 9.008,2.346 10.036,2.346 1.026,0 10.035,-0.065 10.035,-2.346 0,-2.282 -9.009,-2.347 -10.035,-2.347 z"
         fill-opacity="0"
         stroke="#797979"
         stroke-width="4"
         stroke-linecap="round"
         stroke-linejoin="round"
         id="path139" />
      <path
         d="m 247.093,218.175 c 0,-0.366 -0.21,-0.673 -0.559,-0.931 -0.438,-1.891 -7.172,-1.947 -7.961,-1.947 -0.792,0 -7.525,0.056 -7.963,1.947 -0.35,0.258 -0.561,0.565 -0.561,0.931 v 0.768 c 0,0.277 0.12,0.519 0.329,0.734 -0.209,0.214 -0.329,0.457 -0.329,0.734 v 0.769 c 0,0.381 0.237,0.695 0.614,0.96 -0.012,0.027 -0.011,0.059 -0.021,0.09 -0.362,0.261 -0.593,0.57 -0.593,0.943 v 2.368 c 0,2.225 7.651,2.288 8.524,2.288 0.872,0 8.52,-0.063 8.52,-2.288 v -2.368 c 0,-0.373 -0.229,-0.682 -0.592,-0.943 -0.009,-0.031 -0.009,-0.063 -0.02,-0.09 0.376,-0.265 0.612,-0.578 0.612,-0.96 v -0.769 c 0,-0.277 -0.118,-0.52 -0.329,-0.734 0.211,-0.215 0.329,-0.457 0.329,-0.734 z"
         fill="#ebfcff"
         id="path141" />
      <path
         d="m 247.093,218.175 c 0,-0.366 -0.21,-0.673 -0.559,-0.931 -0.438,-1.891 -7.172,-1.947 -7.961,-1.947 -0.792,0 -7.525,0.056 -7.963,1.947 -0.35,0.258 -0.561,0.565 -0.561,0.931 v 0.768 c 0,0.277 0.12,0.519 0.329,0.734 -0.209,0.214 -0.329,0.457 -0.329,0.734 v 0.769 c 0,0.381 0.237,0.695 0.614,0.96 -0.012,0.027 -0.011,0.059 -0.021,0.09 -0.362,0.261 -0.593,0.57 -0.593,0.943 v 2.368 c 0,2.225 7.651,2.288 8.524,2.288 0.872,0 8.52,-0.063 8.52,-2.288 v -2.368 c 0,-0.373 -0.229,-0.682 -0.592,-0.943 -0.009,-0.031 -0.009,-0.063 -0.02,-0.09 0.376,-0.265 0.612,-0.578 0.612,-0.96 v -0.769 c 0,-0.277 -0.118,-0.52 -0.329,-0.734 0.211,-0.215 0.329,-0.457 0.329,-0.734 z"
         fill-opacity="0"
         stroke="#797979"
         stroke-width="4"
         stroke-linecap="round"
         stroke-linejoin="round"
         id="path143" />
      <path
         d="m 238.543,254.797 c -1.949,0 -19.041,-0.123 -19.041,-4.453 v 33.693 c 0,4.329 17.092,4.453 19.041,4.453 1.951,0 19.043,-0.124 19.043,-4.453 v -33.693 c 0,4.33 -17.092,4.453 -19.043,4.453"
         fill="#addaff"
         id="path145" />
      <path
         d="m 238.543,254.797 c -1.949,0 -19.041,-0.123 -19.041,-4.453 v 33.693 c 0,4.329 17.092,4.453 19.041,4.453 1.951,0 19.043,-0.124 19.043,-4.453 v -33.693 c 0,4.33 -17.092,4.453 -19.043,4.453 z"
         fill-opacity="0"
         stroke="#797979"
         stroke-width="4"
         stroke-linecap="round"
         stroke-linejoin="round"
         id="path147" />
      <path
         d="m 263.262,311.967 c 0,0 19.243,2.887 21.167,-23.064 1.923,-25.949 -16.009,-35.853 -25.066,-30.991 -6.591,3.538 -9.55,27.703 -0.622,40.253 0,0 -4.74,10.742 4.521,13.802"
         fill="#ffefd9"
         id="path149" />
      <path
         d="m 263.262,311.967 c 0,0 19.243,2.887 21.167,-23.064 1.923,-25.949 -16.009,-35.853 -25.066,-30.991 -6.591,3.538 -9.55,27.703 -0.622,40.253 0,0 -4.74,10.742 4.521,13.802 z"
         fill-opacity="0"
         stroke="#797979"
         stroke-width="4"
         stroke-linecap="round"
         stroke-linejoin="round"
         id="path151"
         style="stroke:#000000;stroke-opacity:1" />
      <path
         d="m 267.548,282.348 c 0,0 -3.657,-2.457 -7.715,-1.207 -6.674,2.053 0,0 0,0"
         fill="#797979"
         id="path153" />
      <path
         d="m 267.548,282.348 c 0,0 -3.657,-2.457 -7.715,-1.207 -6.674,2.053 0,0 0,0"
         fill-opacity="0"
         stroke="#797979"
         stroke-width="4"
         stroke-linecap="round"
         stroke-linejoin="round"
         id="path155"
         style="stroke:#000000;stroke-opacity:1" />
      <path
         d="m 270.903,272.165 c 0,0 -2.949,-4.556 -10.401,-3.907 -11.6,1.011 0,0 0,0"
         fill="#797979"
         id="path157" />
      <path
         d="m 270.903,272.165 c 0,0 -2.949,-4.556 -10.401,-3.907 -11.6,1.011 0,0 0,0"
         fill-opacity="0"
         stroke="#797979"
         stroke-width="4"
         stroke-linecap="round"
         stroke-linejoin="round"
         id="path159"
         style="stroke:#000000;stroke-opacity:1" />
      <path
         d="m 64.845,216.426 c 0,0 -10.775,6.138 -12.019,18.726"
         fill-opacity="0"
         stroke="#797979"
         stroke-width="4"
         stroke-linecap="round"
         stroke-linejoin="round"
         id="path161"
         style="stroke:#000000;stroke-opacity:1" />
      <path
         d="m 64.807,201.806 c -7.316,3.302 -21.084,16.135 -22.406,33.799"
         fill-opacity="0"
         stroke="#797979"
         stroke-width="4"
         stroke-linecap="round"
         stroke-linejoin="round"
         id="path163"
         style="stroke:#000000;stroke-opacity:1" />
      <path
         d="m 23.104,70.41 c -9.805,11.819 -8.436,33.203 3.857,43.239 12.293,10.034 23.195,13.365 20.099,27.988 -3.096,14.621 2.91,18.969 8.918,23.316"
         fill-opacity="0"
         stroke="#f9afa2"
         stroke-width="6"
         stroke-linecap="round"
         stroke-linejoin="round"
         id="path165" />
      <path
         d="m 5.266,127.233 c -0.152,9.118 2.21,20.512 14.509,25.651 12.299,5.14 11.445,15.803 9.759,22.443 -1.688,6.642 2.778,13.406 9.626,16.878"
         fill-opacity="0"
         stroke="#f9afa2"
         stroke-width="6"
         stroke-linecap="round"
         stroke-linejoin="round"
         id="path167" />
      <path
         d="m 339.47,70.41 c 9.806,11.819 8.437,33.203 -3.856,43.239 -12.293,10.034 -23.195,13.365 -20.1,27.988 3.097,14.621 -2.91,18.969 -8.918,23.316"
         fill-opacity="0"
         stroke="#f9afa2"
         stroke-width="6"
         stroke-linecap="round"
         stroke-linejoin="round"
         id="path169" />
      <path
         d="m 357.308,127.233 c 0.153,9.118 -2.21,20.512 -14.508,25.651 -12.299,5.14 -11.446,15.803 -9.759,22.443 1.687,6.642 -2.779,13.406 -9.626,16.878"
         fill-opacity="0"
         stroke="#f9afa2"
         stroke-width="6"
         stroke-linecap="round"
         stroke-linejoin="round"
         id="path171" />
    </g>
  </g>
</svg>
