<?xml version="1.0" encoding="UTF-8" standalone="no"?>
<svg
   xmlns:dc="http://purl.org/dc/elements/1.1/"
   xmlns:cc="http://creativecommons.org/ns#"
   xmlns:rdf="http://www.w3.org/1999/02/22-rdf-syntax-ns#"
   xmlns:svg="http://www.w3.org/2000/svg"
   xmlns="http://www.w3.org/2000/svg"
   xmlns:sodipodi="http://sodipodi.sourceforge.net/DTD/sodipodi-0.dtd"
   xmlns:inkscape="http://www.inkscape.org/namespaces/inkscape"
   version="1.1"
   x="0"
   y="0"
   width="88"
   height="125"
   viewBox="0 0 88 125"
   id="svg38"
   sodipodi:docname="instant_ramen.svg"
   inkscape:version="1.0.2-2 (e86c870879, 2021-01-15)">
  <metadata
     id="metadata42">
    <rdf:RDF>
      <cc:Work
         rdf:about="">
        <dc:format>image/svg+xml</dc:format>
        <dc:type
           rdf:resource="http://purl.org/dc/dcmitype/StillImage" />
        <dc:title></dc:title>
      </cc:Work>
    </rdf:RDF>
  </metadata>
  <sodipodi:namedview
     pagecolor="#ffffff"
     bordercolor="#666666"
     borderopacity="1"
     objecttolerance="10"
     gridtolerance="10"
     guidetolerance="10"
     inkscape:pageopacity="0"
     inkscape:pageshadow="2"
     inkscape:window-width="1920"
     inkscape:window-height="1017"
     id="namedview40"
     showgrid="false"
     inkscape:zoom="0.95598408"
     inkscape:cx="302.30083"
     inkscape:cy="335.69306"
     inkscape:window-x="-8"
     inkscape:window-y="-8"
     inkscape:window-maximized="1"
     inkscape:current-layer="svg38" />
  <defs
     id="defs5">
    <clipPath
       id="Clip_1">
      <path
         d="M 0,0 H 474.746 V 612.093 H 0 Z"
         id="path2" />
    </clipPath>
  </defs>
  <g
     id="レイヤー_1"
     transform="matrix(0.16492055,0,0,0.16492055,5.2306363,13.598553)">
    <g
       clip-path="url(#Clip_1)"
       id="g35">
      <path
         d="m 470.012,102.336 c 0.315,-1.444 0.527,-2.898 0.623,-4.361 C 473.549,52.887 370.475,36.777 239.113,37.682 107.286,38.59 1.766,57.2 4.537,102.506 c 0.004,0.073 0.071,1.023 0.071,1.023 l -0.236,0.278 64.437,462.286 h 0.008 c 1.667,27 77.065,42.799 168.458,41.443 91.348,-1.353 166.442,-19.777 167.941,-47.707 0.038,-0.722 0.018,-1.663 -0.04,-2.376 z"
         fill="#fefefe"
         id="path7" />
      <path
         d="m 72.735,565.291 c 0.037,0.181 0.062,0.366 0.073,0.556 0.63,10.195 16.66,20.22 43.982,27.088 28.008,7.041 66.951,11.158 109.656,11.158 h 0.016 c 3.549,0 7.166,-0.266 10.753,-0.319 45.114,-0.667 86.549,-5.669 116.673,-13.866 29.483,-8.022 46.735,-19.08 47.333,-30.233 0.027,-0.51 0.014,-1.298 -0.033,-1.87 -0.023,-0.296 -0.014,-0.608 0.027,-0.902 l 64.836,-455.124 c 0.014,-0.097 0.032,-0.197 0.052,-0.293 0.278,-1.27 0.459,-2.54 0.54,-3.77 0.445,-6.873 -1.929,-12.979 -7.256,-18.66 -22.614,-24.124 -97.179,-37.409 -209.959,-37.409 -3.414,0 -6.835,0.011 -10.289,0.035 C 119.564,42.506 40.332,57.28 16.038,83.285 10.563,89.145 8.107,95.353 8.529,102.262 l 0.068,0.988 c 0.029,0.406 -0.006,0.81 -0.097,1.199 z m 153.727,46.802 h -0.016 c -73.063,0 -159.074,-12.031 -161.604,-45.236 L 0.41,104.479 c -0.08,-0.576 -0.033,-1.213 0.129,-1.757 -0.537,-9.037 2.709,-17.436 9.653,-24.868 13.72,-14.686 42.33,-25.947 85.037,-33.44 38.287,-6.718 86.687,-10.331 143.856,-10.725 3.472,-0.024 6.911,-0.039 10.343,-0.039 81.366,0 184.852,6.927 215.796,39.935 6.825,7.281 9.989,15.573 9.402,24.649 -0.103,1.582 -0.331,3.197 -0.675,4.808 l -64.756,454.559 c 0.047,0.817 0.053,1.715 0.015,2.439 -1.817,33.842 -87.633,50.484 -171.876,51.734 -3.626,0.053 -7.284,0.319 -10.872,0.319"
         fill="#b4b4b4"
         id="path9" />
      <path
         d="M 470.593,92.023 C 473.508,62.187 369.743,37.944 238.347,38.541 106.487,39.14 1.548,64.489 4.322,94.484 c 2.708,29.28 107.491,51.893 233.709,51.138 125.792,-0.752 229.715,-24.47 232.562,-53.599"
         fill="#fefefe"
         id="path11" />
      <path
         d="m 243.087,42.622 c -1.573,0 -3.14,0.003 -4.722,0.011 -54.032,0.245 -106.614,4.807 -148.061,12.843 -40.101,7.776 -67.82,18.266 -78.048,29.536 -2.87,3.162 -4.133,6.137 -3.858,9.095 2.117,22.909 92.431,47.438 223.502,47.441 1.99,0.001 4.057,-0.006 6.106,-0.018 60.663,-0.363 118.017,-6.064 161.494,-16.055 40.811,-9.377 65.865,-22.031 67.021,-33.85 0.286,-2.93 -0.942,-5.86 -3.751,-8.959 C 441.723,59.463 349.333,42.622 243.087,42.622 m -11.151,107.471 h -0.037 c -60.225,0 -117.04,-5.465 -159.976,-15.056 C 40.258,127.962 2.119,115.191 0.247,94.951 -0.242,89.654 1.759,84.445 6.195,79.557 29.811,53.538 125.267,34.985 238.328,34.471 c 112.208,-0.488 207.354,17.186 230.503,42.708 4.388,4.837 6.351,9.964 5.834,15.248 -3.549,36.316 -124.556,56.8 -236.61,57.47 -2.053,0.013 -4.078,0.196 -6.119,0.196"
         fill="#b4b4b4"
         id="path13" />
      <path
         d="M 437.135,16.539 C 439.725,-15.194 369.852,35.983 238.353,36.577 106.389,37.173 1.369,62.558 4.148,92.6 6.86,121.924 111.724,144.575 238.036,143.822 363.923,143.073 434.612,47.495 437.135,16.539"
         fill="#e6302d"
         id="path15" />
      <path
         d="m 426.972,10.262 c -7.267,0 -19.687,3.296 -35.413,7.47 -33.957,9.011 -85.272,22.63 -153.188,22.936 C 184.304,40.913 131.686,45.479 90.209,53.525 50.079,61.31 22.337,71.813 12.092,83.1 c -2.878,3.171 -4.144,6.328 -3.869,9.295 2.122,22.949 92.517,47.698 223.7,47.698 h 0.033 c 2.02,0 4.025,-0.179 6.056,-0.191 67.462,-0.402 115.124,-28.247 143.23,-51.463 33.97,-28.062 50.75,-59.126 51.814,-72.19 0.13,-1.587 0.097,-3.703 -0.797,-4.673 -0.779,-0.846 -2.607,-1.314 -5.287,-1.314 M 231.956,148.093 h -0.034 C 171.647,148.093 114.785,142.719 71.81,133.11 40.118,126.025 1.948,113.284 0.073,93.016 -0.418,87.71 1.587,82.516 6.033,77.62 29.678,51.568 125.204,33.006 238.334,32.495 305.201,32.193 355.907,18.73 389.46,9.826 406.399,5.331 418.638,2.08 426.972,2.08 c 5.17,0 8.867,1.285 11.305,3.929 2.363,2.564 3.324,6.117 2.936,10.863 -1.413,17.346 -20.676,49.636 -54.759,77.791 -29.13,24.063 -78.522,52.915 -148.393,53.332 -2.048,0.012 -4.069,0.098 -6.105,0.098"
         fill="#b4b4b4"
         id="path17" />
      <path
         d="m 424.94,410.29 14.205,-99.903 c -134.181,34.344 -267.239,35.845 -404.299,1.795 l 13.98,100.522 c 122.007,29.072 243.234,32.839 376.114,-2.414"
         fill="#e6302d"
         id="path19" />
      <path
         d="m 52.492,409.367 c 63.389,14.91 123.044,22.162 182.273,22.162 62.493,0 123.531,-8.017 186.506,-24.504 l 12.964,-91.179 C 367.003,332.563 299.404,341.039 233.221,341.039 169.342,341.04 104.278,333.153 39.729,317.59 Z m 182.273,30.347 c -0.003,0 0.004,0 0,0 -60.723,0 -121.855,-7.533 -186.888,-23.03 -1.641,-0.39 -2.873,-1.747 -3.105,-3.417 L 30.793,312.745 c -0.188,-1.346 0.305,-2.696 1.315,-3.605 1.01,-0.91 2.407,-1.259 3.724,-0.93 65.827,16.354 132.238,24.645 197.389,24.645 67.445,-0.001 136.386,-8.894 204.909,-26.432 1.319,-0.34 2.727,0.004 3.746,0.917 1.016,0.911 1.512,2.27 1.32,3.623 l -14.204,99.903 c -0.231,1.627 -1.414,2.958 -3.002,3.379 -64.594,17.137 -127.151,25.469 -191.225,25.469"
         fill="#b4b4b4"
         id="path21" />
      <path
         d="M 300.289,4.093 51.022,162.503 52.5,199.28 121.424,201.082 319.372,9.215 Z"
         fill="#dac2a6"
         id="path23" />
      <path
         d="m 56.436,195.29 63.376,1.656 L 311.345,11.297 300.966,8.511 55.207,164.692 Z m 64.988,9.803 h -0.107 l -68.924,-1.762 c -2.153,-0.057 -3.894,-1.754 -3.981,-3.906 l -1.478,-36.769 c -0.059,-1.457 0.663,-2.83 1.894,-3.612 L 298.095,0.637 c 0.968,-0.616 2.152,-0.794 3.255,-0.498 l 19.083,5.123 c 1.423,0.382 2.53,1.499 2.9,2.925 0.371,1.426 -0.054,2.941 -1.113,3.966 L 124.272,203.979 c -0.764,0.742 -1.786,1.114 -2.848,1.114"
         fill="#b4b4b4"
         id="path25" />
      <path
         d="M 307.289,6.093 87.853,160.768 89.395,199.066"
         fill="#dac2a6"
         id="path27" />
      <path
         d="m 89.393,203.158 c -2.185,0.001 -3.997,-1.726 -4.086,-3.928 l -1.542,-38.298 c -0.056,-1.386 0.596,-2.709 1.732,-3.508 L 304.932,2.749 c 1.847,-1.302 4.401,-0.86 5.702,0.987 1.302,1.847 0.861,4.4 -0.987,5.702 L 92.033,162.829 93.485,198.9 c 0.091,2.26 -1.666,4.164 -3.924,4.254 -0.057,0.003 -0.112,0.004 -0.168,0.004"
         fill="#b4b4b4"
         id="path29" />
      <path
         d="m 121.428,205.093 h -0.017 c -2.259,0 -4.085,-1.778 -4.075,-4.038 l 0.138,-34.103 -64.3,-1.786 c -2.259,-0.063 -4.039,-1.937 -3.975,-4.197 0.063,-2.259 1.916,-4.048 4.206,-3.971 l 68.293,1.918 c 2.22,0.063 3.985,1.887 3.976,4.109 l -0.154,38.062 c -0.009,2.254 -1.839,4.006 -4.092,4.006"
         fill="#b4b4b4"
         id="path31" />
      <path
         d="m 128.289,160.093 c 8.094,-6.887 16.267,-13.673 24.518,-20.36 8.235,-6.708 16.542,-13.325 24.863,-19.924 8.344,-6.57 16.703,-13.12 25.136,-19.578 8.414,-6.481 16.909,-12.86 25.483,-19.138 -8.093,6.888 -16.264,13.676 -24.517,20.362 -8.234,6.708 -16.541,13.325 -24.864,19.922 -8.346,6.568 -16.705,13.118 -25.137,19.576 -8.415,6.48 -16.909,12.86 -25.482,19.14"
         fill="#c29b70"
         id="path33" />
    </g>
  </g>
</svg>
