<?xml version="1.0" encoding="UTF-8" standalone="no"?>
<!-- Created with Inkscape (http://www.inkscape.org/) -->

<svg
   xmlns:dc="http://purl.org/dc/elements/1.1/"
   xmlns:cc="http://creativecommons.org/ns#"
   xmlns:rdf="http://www.w3.org/1999/02/22-rdf-syntax-ns#"
   xmlns:svg="http://www.w3.org/2000/svg"
   xmlns="http://www.w3.org/2000/svg"
   xmlns:xlink="http://www.w3.org/1999/xlink"
   xmlns:sodipodi="http://sodipodi.sourceforge.net/DTD/sodipodi-0.dtd"
   xmlns:inkscape="http://www.inkscape.org/namespaces/inkscape"
   width="225.77777mm"
   height="100.08504mm"
   viewBox="0 0 799.99998 354.63205"
   id="svg2"
   version="1.1"
   inkscape:version="0.91 r13725"
   sodipodi:docname="Loginthegrass.svg">
  <defs
     id="defs4">
    <filter
       inkscape:collect="always"
       style="color-interpolation-filters:sRGB"
       id="filter5331"
       x="-0.092928119"
       width="1.1858562"
       y="-0.81340349"
       height="2.626807">
      <feGaussianBlur
         inkscape:collect="always"
         stdDeviation="4.091881"
         id="feGaussianBlur5333" />
    </filter>
    <linearGradient
       id="linearGradient3906">
      <stop
         offset="0"
         style="stop-color:#12140c"
         id="stop3908" />
      <stop
         offset="1"
         style="stop-color:#1b1d14;stop-opacity:0"
         id="stop3910" />
    </linearGradient>
    <linearGradient
       id="linearGradient3875">
      <stop
         offset="0"
         style="stop-color:#4c8d2f"
         id="stop3877" />
      <stop
         offset="1"
         style="stop-color:#38572a"
         id="stop3879" />
    </linearGradient>
    <linearGradient
       inkscape:collect="always"
       x1="137.56"
       y1="1052.4"
       x2="197.47"
       gradientUnits="userSpaceOnUse"
       y2="898.02002"
       id="linearGradient3830"
       gradientTransform="matrix(0.16900718,0,0,0.16900718,-362.80131,-66.928293)">
      <stop
         offset="0"
         style="stop-color:#304627"
         id="stop3826" />
      <stop
         offset="1"
         style="stop-color:#7c885b"
         id="stop3828" />
    </linearGradient>
    <linearGradient
       inkscape:collect="always"
       x1="94.296997"
       y1="1052.4"
       gradientTransform="matrix(-0.16900718,0,0,0.16900718,-255.69831,-69.167303)"
       x2="69.050003"
       gradientUnits="userSpaceOnUse"
       y2="901.69"
       id="linearGradient3838">
      <stop
         offset="0"
         style="stop-color:#7c885b"
         id="stop3834" />
      <stop
         offset="1"
         style="stop-color:#434e28"
         id="stop3836" />
    </linearGradient>
    <linearGradient
       inkscape:collect="always"
       x1="206.37"
       y1="944.13"
       x2="117.68"
       gradientUnits="userSpaceOnUse"
       y2="1052.4"
       id="linearGradient3846"
       gradientTransform="matrix(0.16900718,0,0,0.16900718,-369.1697,-97.055661)">
      <stop
         offset="0"
         style="stop-color:#116f11"
         id="stop3842" />
      <stop
         offset="1"
         style="stop-color:#434e28"
         id="stop3844" />
    </linearGradient>
    <linearGradient
       inkscape:collect="always"
       x1="119.44"
       y1="904.39001"
       x2="149.03"
       gradientUnits="userSpaceOnUse"
       xlink:href="#linearGradient3875"
       y2="1025.3"
       id="linearGradient3881"
       gradientTransform="matrix(0.16900718,0,0,0.16900718,-288.2177,-69.132734)" />
    <linearGradient
       inkscape:collect="always"
       x1="119.44"
       y1="904.39001"
       gradientTransform="matrix(-0.16900718,0,0,0.16900718,-316.39762,-66.928293)"
       x2="149.03"
       gradientUnits="userSpaceOnUse"
       xlink:href="#linearGradient3875"
       y2="1025.3"
       id="linearGradient3885" />
    <linearGradient
       inkscape:collect="always"
       xlink:href="#linearGradient3830"
       id="linearGradient5781"
       x1="-276.96115"
       y1="75.558022"
       x2="-256.33289"
       y2="57.672749"
       gradientUnits="userSpaceOnUse"
       gradientTransform="matrix(0.59198911,0,0,0.46786977,-120.01203,40.393385)" />
  </defs>
  <sodipodi:namedview
     id="base"
     pagecolor="#ffffff"
     bordercolor="#666666"
     borderopacity="1.0"
     inkscape:pageopacity="0.0"
     inkscape:pageshadow="2"
     inkscape:zoom="1.5591705"
     inkscape:cx="352.67724"
     inkscape:cy="132.97324"
     inkscape:document-units="px"
     inkscape:current-layer="g5717"
     showgrid="false"
     fit-margin-top="0"
     fit-margin-left="0"
     fit-margin-right="0"
     fit-margin-bottom="0"
     inkscape:window-width="1916"
     inkscape:window-height="1035"
     inkscape:window-x="4"
     inkscape:window-y="1"
     inkscape:window-maximized="1"
     showguides="true"
     inkscape:guide-bbox="true" />
  <metadata
     id="metadata7">
    <rdf:RDF>
      <cc:Work
         rdf:about="">
        <dc:format>image/svg+xml</dc:format>
        <dc:type
           rdf:resource="http://purl.org/dc/dcmitype/StillImage" />
        <dc:title></dc:title>
        <dc:creator>
          <cc:Agent>
            <dc:title>j4p4n</dc:title>
          </cc:Agent>
        </dc:creator>
        <cc:license
           rdf:resource="http://creativecommons.org/publicdomain/zero/1.0/" />
      </cc:Work>
      <cc:License
         rdf:about="http://creativecommons.org/publicdomain/zero/1.0/">
        <cc:permits
           rdf:resource="http://creativecommons.org/ns#Reproduction" />
        <cc:permits
           rdf:resource="http://creativecommons.org/ns#Distribution" />
        <cc:permits
           rdf:resource="http://creativecommons.org/ns#DerivativeWorks" />
      </cc:License>
    </rdf:RDF>
  </metadata>
  <g
     inkscape:label="Layer 1"
     inkscape:groupmode="layer"
     id="layer1"
     transform="translate(167.70375,150.64535)">
    <g
       transform="matrix(5.9169087,0,0,5.9169087,2033.9112,-452.86471)"
       id="g5467">
      <g
         id="g5717">
        <path
           id="path5773"
           sodipodi:nodetypes="cccccccccc"
           style="fill:url(#linearGradient5781);fill-opacity:1;stroke:#000000;stroke-width:0.16900718;stroke-opacity:1;stroke-miterlimit:4;stroke-dasharray:none"
           inkscape:connector-curvature="0"
           d="m -287.86807,68.489259 c 2.32177,2.228759 4.71788,4.280083 4.81903,8.430799 l 5.18972,0 c 0.32901,-3.539084 2.20991,-6.771288 9.80273,-5.110748 -3.83323,-1.328114 -8.68027,-1.637451 -10.70839,3.77607 0.005,-5.306378 1.75489,-8.970084 4.61302,-11.58899 -3.21951,2.407785 -5.40072,5.992888 -6.09587,11.263207 -3.14869,-9.839095 -5.87706,-11.300374 -8.81544,-14.195249 3.35469,3.596258 6.80343,7.641648 7.24905,14.258506 -2.16349,-4.256516 -3.99601,-5.316892 -6.05465,-6.836683 z" />
        <path
           d="m -324.77688,55.713542 c -2.48778,1.4151 -5.30851,3.33806 -7.70672,7.19869 -2.82411,1.85215 -5.69217,4.1951 -7.76926,8.39662 -0.30253,-0.97855 -0.58646,-1.81514 -0.86532,-2.57567 1.14587,-3.73472 2.62975,-7.44798 4.44658,-11.2187 -1.49741,2.18763 -3.40719,4.6286 -5.24936,9.16864 -0.68617,-1.63497 -1.35037,-3.00038 -2.10245,-4.85371 0.57124,1.82003 1.16446,3.71967 1.74246,5.75621 -0.33294,0.87715 -0.66251,1.82866 -0.987,2.86298 -0.0777,-0.005 -0.14366,-0.0287 -0.19605,-0.0794 -0.36844,-0.35661 -0.14704,-1.37065 -0.23154,-1.89626 -0.0845,-0.52392 -0.89067,0.0591 -0.88729,0.12675 0.003,0.0693 0.65913,1.51093 0.4428,1.76951 -0.049,0.0592 -0.17746,0.0456 -0.33801,-0.0101 -0.75023,-0.87884 -1.52749,-1.63937 -2.32301,-2.29174 -1.24068,-1.28276 -2.52074,-2.40666 -3.79201,-3.51788 0.79028,0.78351 1.5356,1.57937 2.23394,2.38722 -0.99106,-0.63377 -2.00595,-1.12896 -3.03149,-1.51058 -1.98346,-2.93836 -3.94936,-4.95935 -5.97862,-7.48905 1.661,2.25321 3.334,4.59243 4.89056,7.12467 -1.77137,-0.5219 -3.56859,-0.73992 -5.33421,-0.79214 2.1518,0.26433 4.09758,0.82864 5.84647,1.64292 2.18864,3.68943 4.10822,7.80813 5.36597,12.69075 -1.44754,-1.35882 -3.17547,-2.3492 -4.92757,-2.98467 -1.16987,-2.06696 -2.38182,-3.80942 -3.52278,-5.15979 l 0,0.67603 c -1.3595,-1.11037 -2.84997,-1.87936 -4.49965,-2.39145 1.32316,0.90588 2.47781,1.85401 3.4856,2.85115 l -0.48572,0.28562 c 1.04666,0.91602 1.96166,1.96387 2.75684,3.1165 -0.10968,-0.022 -0.21853,-0.0406 -0.32753,-0.0592 -0.40681,-0.3735 -0.81445,-0.74532 -1.23055,-1.13403 0.29813,0.36167 0.59474,0.72166 0.89253,1.08164 -1.49859,-0.21126 -2.90354,-0.1538 -4.03488,0.16901 2.03958,0.3059 3.78103,0.7656 5.27083,1.34192 0.32771,0.40899 0.65,0.82137 0.96655,1.24051 2.02555,4.13222 2.94529,9.14667 3.24798,14.18646 l 5.60901,0 0.25858,0 3.37001,0 1.07657,0 2.83087,0 0.79772,0 0.47491,0 c 0,0 -0.0913,-1.61909 0.21295,-4.16772 1.44501,-3.0979 3.72829,-5.96088 7.45659,-7.66785 1.48558,0.1014 3.15537,0.39378 5.03304,0.91433 -1.27601,-0.56111 -2.6213,-1.03433 -3.98181,-1.34699 1.68669,-0.6304 3.63534,-1.0377 5.90511,-1.1577 -3.57957,-0.48167 -6.38509,-0.34308 -8.85767,0.76053 -1.24389,-0.0355 -2.47426,0.10986 -3.64886,0.49688 0.0845,-0.23492 0.17069,-0.46984 0.26365,-0.70814 2.03822,-1.45515 4.40602,-2.46074 7.06619,-2.66693 -2.08724,-0.41576 -4.12716,-0.29914 -6.04201,0.30083 0.12338,-0.25689 0.25351,-0.51209 0.38534,-0.77067 0.46477,-0.90757 2.35765,-3.41394 2.89509,-4.28264 l -0.67603,0.33801 c 0.59153,-0.85348 2.43878,-2.60947 3.15199,-3.42239 l -0.67603,0.33801 c 0.97686,-1.04953 2.06358,-2.05005 3.27536,-2.97959 -1.09855,0.5611 -3.0472,1.89119 -3.0472,1.89119 l 0.0946,-0.60843 c 0,0 -2.44384,2.6382 -3.11649,3.40211 l 0.66589,-1.86921 c -0.75885,1.0377 -1.60895,2.47933 -2.45568,4.11363 -0.6118,0.21971 -1.22361,0.44449 -1.83204,0.70814 1.07996,-3.37676 2.59596,-6.9631 4.72545,-10.83775 -2.04499,3.34735 -4.06632,6.77651 -5.75132,11.31266 -0.53744,0.26872 -1.07657,0.56786 -1.61571,0.91433 0.32788,-3.16382 0.98869,-6.03863 2.08048,-8.66669 0.32618,-0.41407 0.66251,-0.81749 1.01404,-1.21009 -0.28393,0.2814 -0.56786,0.5611 -0.8501,0.83489 1.66641,-3.82666 4.27081,-7.13514 8.13938,-10.07215 z m -7.28928,9.23726 c 0.40731,-0.40224 0.818,-0.82019 1.23038,-1.28344 -0.42759,0.41508 -0.83659,0.8447 -1.23038,1.28344 z m -0.83489,-1.33617 c -0.48336,0.84639 -0.94982,1.78302 -1.38755,2.81498 -1.97231,2.32892 -3.65056,5.07698 -4.98571,8.31854 -0.13352,-0.50534 -0.25858,-0.97856 -0.38703,-1.4315 1.24896,-3.83308 3.51704,-6.65212 6.76029,-9.70202 z m -17.71871,2.9992 c 1.99665,1.14756 3.70903,2.64665 5.14948,4.4263 -0.48184,-0.24337 -0.91129,-0.44787 -0.89253,-0.26365 0.0279,0.27379 1.01049,0.76053 1.56855,1.14587 0.11324,0.15548 0.22309,0.31604 0.33295,0.47491 -0.3059,0.21125 -2.09231,-0.68448 -2.0864,-0.35323 0.006,0.34816 2.03063,0.32111 2.05936,1.35713 0.0101,0.34984 0.0321,0.78926 0.0591,1.26755 -0.29407,1.21347 -0.5731,2.5199 -0.84571,3.92435 -1.83187,-5.49442 -3.59732,-9.16526 -5.34485,-11.97923 z m 15.02626,3.45958 c -0.53407,1.79316 -1.00053,3.8128 -1.3791,6.10116 -0.41238,0.35322 -0.82645,0.74363 -1.24052,1.17122 0.6473,-2.73116 1.51093,-5.12937 2.61962,-7.27238 z m -5.96765,0.16393 c 0.0558,0.2214 0.11155,0.43604 0.16901,0.66082 -0.0118,-0.003 -0.0169,-0.003 -0.0321,-0.005 -0.0896,-0.008 -0.20281,0.007 -0.32788,0.0304 0.0625,-0.22816 0.12507,-0.45632 0.19098,-0.68617 z m 0.18422,0.71321 c 0.15211,0.61012 0.29914,1.23714 0.4428,1.87429 -0.22985,0.56956 -0.44618,1.17122 -0.64899,1.80162 -0.25182,-0.46308 -0.5104,-0.90757 -0.77067,-1.33009 0.0659,-0.289 0.14027,-0.57462 0.21126,-0.86193 0.45125,-0.15718 0.84672,-0.31605 0.88728,-0.48505 0.0456,-0.19436 -0.34984,-0.0135 -0.80785,0.169 0.0828,-0.33125 0.16901,-0.6625 0.25858,-0.99376 0.1876,-0.0676 0.37013,-0.13689 0.42759,-0.17408 z m 10.41422,2.31371 c -0.62701,1.2439 -1.2422,2.58074 -1.81683,3.94463 -0.30421,0.14366 -0.60673,0.30083 -0.90249,0.46984 0.22985,-1.00221 0.49181,-2.02302 0.79771,-3.06241 0.62026,-0.46477 1.26079,-0.91602 1.92161,-1.35206 z m -11.85585,2.22245 c 0.21126,0.46646 0.41238,0.93799 0.60166,1.41121 -0.20111,0.85855 -0.3735,1.77795 -0.52223,2.74636 -0.022,-0.12675 -0.0406,-0.23323 -0.0642,-0.37012 -0.13014,-0.73856 -0.2383,-1.43487 -0.32787,-2.07541 0.0963,-0.57293 0.20111,-1.14249 0.31266,-1.71204 z m 8.68697,0.10647 c -0.31098,0.93799 -0.61012,1.92161 -0.89236,2.9627 -0.12845,0.0963 -0.25858,0.19436 -0.38534,0.29576 0.0169,-0.75884 0.049,-1.50585 0.0947,-2.23427 0.38364,-0.34985 0.77743,-0.68955 1.18305,-1.02419 z m -6.17383,0.24844 c 0.0693,0.36337 0.14027,0.73011 0.20618,1.10362 -0.049,0.14535 -0.0997,0.29069 -0.14703,0.43773 -0.0777,-0.17746 -0.15549,-0.35492 -0.23323,-0.5273 0.0507,-0.34647 0.11154,-0.68448 0.17408,-1.01405 z m -10.06083,1.98077 c 2.08166,1.31487 3.4567,2.92889 4.41007,4.63586 -0.15211,0.96334 -0.29695,1.97063 -0.4384,3.01678 -0.93005,-1.99766 -1.82951,-3.58464 -2.7146,-4.90628 -0.40376,-0.95996 -0.82543,-1.87429 -1.25707,-2.74636 z m 13.03028,0.8501 c -0.0946,0.74194 -0.17746,1.50924 -0.25351,2.30188 -0.0507,0.0591 -0.10478,0.11493 -0.1538,0.17408 -0.12168,-0.5459 -0.2383,-1.06813 -0.35322,-1.57346 0.24337,-0.3059 0.49857,-0.60674 0.76053,-0.9025 z m 6.70114,1.50417 c -0.96673,0.67095 -1.89119,1.52444 -2.8089,2.58412 0.15548,-0.59322 0.33294,-1.19995 0.53237,-1.82359 0.67772,-0.33126 1.43487,-0.58984 2.27653,-0.76053 z"
           style="fill:#2e5c1e;fill-opacity:1;stroke:#000000;stroke-width:0.16900718;stroke-opacity:1"
           id="path3889"
           inkscape:connector-curvature="0" />
        <path
           d="m -365.84093,64.033533 c 4.51553,-1.286854 13.36914,1.609574 15.27233,9.25196 0.80865,-14.526843 6.64587,-18.857821 11.90081,-22.13656 -7.07599,6.287067 -10.28189,10.874091 -9.31365,23.674525 3.24849,-7.191255 9.15681,-10.827107 15.49188,-9.565975 -8.73987,0.67853 -14.32674,9.966353 -15.41599,15.545111 l -2.58294,0 c -1.44082,-5.049089 -1.10889,-14.628923 -15.35227,-16.768047 z"
           inkscape:connector-curvature="0"
           style="fill:url(#linearGradient3846);stroke:#000000;stroke-width:0.16900718;stroke-opacity:1"
           sodipodi:nodetypes="cccccccc"
           id="rect4078" />
        <path
           d="m -363.86776,75.495723 0.15486,-0.05163 0.16519,-0.05163 0.17035,0 0.17551,0 0.18067,0 0.191,0.05163 0.191,0.05163 0.20132,0.05163 0.20133,0.05163 0.20648,0.103252 0.43362,0.206503 0.44394,0.25813 0.45427,0.361381 0.46459,0.361381 0.47491,0.361382 0.48008,0.464633 0.48524,0.464633 0.48524,0.516259 0.48008,0.567885 0.48007,0.567884 0.47492,0.567885 0.46459,0.619511 0.45427,0.619511 0.44394,0.671137 0.42329,0.671136 0.41297,0.671137 0.38716,0.671137 0.36651,0.671136 0.34586,0.722763 0.31489,0.671137 0.28392,0.671136 0.25811,0.671137 0.22197,0.671137 0.18583,0.671136 0.14454,0.619511 0.10841,0.619511 0.0619,0.619511 c 0.58849,8.311769 -2.51911,16.778415 -6.67462,17.088175 -6.67462,0.41301 -9.7977,-10.893067 -11.87288,-15.023139 -2.08033,-4.181698 -1.49185,-14.403626 6.67463,-17.50118 z"
           id="path1334"
           style="font-style:normal;font-variant:normal;font-weight:normal;font-stretch:normal;letter-spacing:normal;word-spacing:normal;text-anchor:start;fill:#b27c23;fill-opacity:1;fill-rule:evenodd;stroke:#666651;stroke-width:0;stroke-linecap:butt;stroke-linejoin:miter;stroke-miterlimit:10.43299961;stroke-dasharray:none;stroke-dashoffset:0;stroke-opacity:1"
           inkscape:connector-curvature="0" />
        <path
           d="m -363.86776,75.495723 0.15486,-0.05163 0.16519,-0.05163 0.17035,0 0.17551,0 0.18067,0 0.191,0.05163 0.191,0.05163 0.20132,0.05163 0.20133,0.05163 0.20648,0.103252 0.43362,0.206503 0.44394,0.25813 0.45427,0.361381 0.46459,0.361381 0.47491,0.361382 0.48008,0.464633 0.48524,0.464633 0.48524,0.516259 0.48008,0.567885 0.48007,0.567884 0.47492,0.567885 0.46459,0.619511 0.45427,0.619511 0.44394,0.671137 0.42329,0.671136 0.41297,0.671137 0.38716,0.671137 0.36651,0.671136 0.34586,0.722763 0.31489,0.671137 0.28392,0.671136 0.25811,0.671137 0.22197,0.671137 0.18583,0.671136 0.14454,0.619511 0.10841,0.619511 0.0619,0.619511 c 0.58849,8.311769 -2.51911,16.778415 -6.67462,17.088175 -6.67462,0.41301 -9.7977,-10.893067 -11.87288,-15.023139 -2.08033,-4.181698 -1.49185,-14.403626 6.67463,-17.50118 z"
           id="path1336"
           style="font-style:normal;font-variant:normal;font-weight:normal;font-stretch:normal;letter-spacing:normal;word-spacing:normal;text-anchor:start;fill:none;stroke:#000000;stroke-width:1.03897572;stroke-linecap:butt;stroke-linejoin:miter;stroke-miterlimit:10.43299961;stroke-dasharray:none;stroke-dashoffset:0;stroke-opacity:1"
           inkscape:connector-curvature="0" />
        <path
           d="m -362.23653,75.495723 108.20838,0 c 0,0 18.53201,3.097554 16.46716,14.971511 -2.06485,11.873956 -8.72398,13.990616 -8.72398,13.990616 0,0 -82.5578,-4.1817 -110.3042,2.94268 0,0 6.37005,-8.621527 4.59428,-16.468663 -3.12308,-13.990619 -10.24164,-15.436144 -10.24164,-15.436144 z"
           id="path1338"
           style="font-style:normal;font-variant:normal;font-weight:normal;font-stretch:normal;letter-spacing:normal;word-spacing:normal;text-anchor:start;fill:#714600;fill-opacity:1;fill-rule:evenodd;stroke:#666651;stroke-width:0;stroke-linecap:butt;stroke-linejoin:miter;stroke-miterlimit:10.43299961;stroke-dasharray:none;stroke-dashoffset:0;stroke-opacity:1"
           inkscape:connector-curvature="0" />
        <path
           transform="matrix(0.95155668,0,0,1.0222981,-17.032213,-1.9884424)"
           inkscape:connector-curvature="0"
           id="path5298"
           d="m -348.57468,85.893603 c 15.96539,-0.29189 32.15288,1.139464 47.86351,-2.447941 9.27315,-1.169257 18.46798,1.343834 27.71704,1.857503 8.25136,1.243592 16.50484,1.917266 24.79692,2.609736 5.76249,0.497045 7.58321,9.517769 0.23488,6.784751 -9.52986,-0.191479 -19.08304,-1.347405 -28.59187,-0.120611 -19.53669,-0.259534 -39.07308,0.402162 -58.59212,0.618939 -4.24705,-1.367148 -15.42832,-2.976553 -13.42836,-9.302377 z"
           style="fill:#915e0d;fill-opacity:1;fill-rule:evenodd;stroke:none;stroke-width:0.16900718px;stroke-linecap:butt;stroke-linejoin:miter;stroke-opacity:1;filter:url(#filter5331)" />
        <path
           d="m -362.23653,75.495723 108.20838,0 c 0,0 18.53201,3.097554 16.46716,14.971511 -2.06485,11.873956 -8.72398,13.990616 -8.72398,13.990616 0,0 -82.5578,-4.1817 -110.3042,2.94268 0,0 6.37005,-8.621527 4.59428,-16.468663 -3.12308,-13.990619 -10.24164,-15.436144 -10.24164,-15.436144 z"
           id="path1340"
           style="font-style:normal;font-variant:normal;font-weight:normal;font-stretch:normal;letter-spacing:normal;word-spacing:normal;text-anchor:start;fill:none;stroke:#000000;stroke-width:1.03900003;stroke-linecap:butt;stroke-linejoin:miter;stroke-miterlimit:9.82999992;stroke-dasharray:none;stroke-dashoffset:0;stroke-opacity:1"
           inkscape:connector-curvature="0" />
        <path
           d="m -362.81985,89.589593 -0.12389,0.05163 -0.1239,0.103252 -0.11356,0.103252 -0.11357,0.103252 -0.1084,0.103251 -0.10325,0.154878 -0.0929,0.103252 -0.0929,0.154878 -0.0878,0.154877 -0.0774,0.154878 -0.0723,0.154878 -0.0671,0.154877 -0.0568,0.206504 -0.0516,0.154878 -0.0413,0.206503 -0.0361,0.154878 -0.0258,0.206504 -0.0206,0.154877 -0.0103,0.206504 0,0.206504 0.0103,0.154877 0.0206,0.206504 0.0258,0.206503 0.0413,0.154878 0.0465,0.206504 0.0619,0.154877 0.0723,0.154878 0.0826,0.206504 0.0929,0.154877 0.1084,0.154878 0.11873,0.154878 0.13422,0.154877 c 0.88272,0.722763 2.96306,-0.929266 2.81852,-2.374791 -0.29941,-1.652029 -0.88273,-3.613813 -2.21455,-2.684547 z"
           id="path1342"
           style="font-style:normal;font-variant:normal;font-weight:normal;font-stretch:normal;letter-spacing:normal;word-spacing:normal;text-anchor:start;fill:#714600;fill-opacity:1;fill-rule:evenodd;stroke:#666651;stroke-width:0;stroke-linecap:butt;stroke-linejoin:miter;stroke-miterlimit:10.43299961;stroke-dasharray:none;stroke-dashoffset:0;stroke-opacity:1"
           inkscape:connector-curvature="0" />
        <path
           d="m -362.81985,89.589593 -0.12389,0.05163 -0.1239,0.103252 -0.11356,0.103252 -0.11357,0.103252 -0.1084,0.103251 -0.10325,0.154878 -0.0929,0.103252 -0.0929,0.154878 -0.0878,0.154877 -0.0774,0.154878 -0.0723,0.154878 -0.0671,0.154877 -0.0568,0.206504 -0.0516,0.154878 -0.0413,0.206503 -0.0361,0.154878 -0.0258,0.206504 -0.0206,0.154877 -0.0103,0.206504 0,0.206504 0.0103,0.154877 0.0206,0.206504 0.0258,0.206503 0.0413,0.154878 0.0465,0.206504 0.0619,0.154877 0.0723,0.154878 0.0826,0.206504 0.0929,0.154877 0.1084,0.154878 0.11873,0.154878 0.13422,0.154877 c 0.88272,0.722763 2.96306,-0.929266 2.81852,-2.374791 -0.29941,-1.652029 -0.88273,-3.613813 -2.21455,-2.684547 z"
           id="path1344"
           style="font-style:normal;font-variant:normal;font-weight:normal;font-stretch:normal;letter-spacing:normal;word-spacing:normal;text-anchor:start;fill:#b27c23;fill-opacity:1;stroke:#000000;stroke-width:0.44528413;stroke-linecap:butt;stroke-linejoin:miter;stroke-miterlimit:10.43299961;stroke-dasharray:none;stroke-dashoffset:0;stroke-opacity:1"
           inkscape:connector-curvature="0" />
        <path
           d="m -365.64353,86.595291 -0.13422,0.567885 -0.11357,0.567885 -0.10324,0.567885 -0.0774,0.516259 -0.0568,0.567885 -0.0361,0.567885 -0.0103,0.258129 -0.005,0.25813 0.005,0.309755 0.0103,0.25813 0.0207,0.258129 0.0206,0.25813 0.0361,0.309755 0.0361,0.258129 0.0516,0.25813 0.0568,0.258129 0.062,0.25813 0.0723,0.258129 0.0826,0.309756 0.0878,0.258129 0.0981,0.25813 0.1084,0.258129 0.11873,0.25813 0.12905,0.258129 0.13938,0.206504 0.14454,0.258129 c 1.1718,2.116662 3.85094,3.304058 5.04339,1.342274 1.9358,-3.097554 1.33183,-7.589007 -1.04791,-10.118676 -1.02726,-1.187396 -3.85094,-0.309756 -4.1555,2.219913"
           id="path1346"
           style="font-style:normal;font-variant:normal;font-weight:normal;font-stretch:normal;letter-spacing:normal;word-spacing:normal;text-anchor:start;fill:none;stroke:#000000;stroke-width:0.44528413;stroke-linecap:butt;stroke-linejoin:miter;stroke-miterlimit:10.43299961;stroke-dasharray:none;stroke-dashoffset:0;stroke-opacity:1"
           inkscape:connector-curvature="0" />
        <path
           d="m -366.69144,84.530255 -0.32522,0.567885 -0.28391,0.567885 -0.24262,0.567885 -0.19617,0.567885 -0.16002,0.619511 -0.11873,0.567885 -0.0826,0.61951 -0.0465,0.619511 -0.005,0.567885 0.0258,0.619511 0.0568,0.619511 0.0929,0.567884 0.12389,0.567885 0.15486,0.619511 0.18584,0.567885 0.21165,0.567885 0.23745,0.567885 0.26843,0.516259 0.28908,0.567885 0.32005,0.516259 0.33554,0.516259 0.36135,0.464633 0.382,0.516259 0.40264,0.413007 0.41813,0.464633 0.43878,0.413007 0.45427,0.413007 0.46975,0.361382 0.48524,0.361376 0.50073,0.30976 0.51105,0.30976 0.52137,0.25813 c 1.9358,0.87764 3.56703,-1.1874 3.87159,-2.994307 0.58332,-4.749583 -0.7485,-9.241036 -2.6843,-13.21623 -1.63123,-3.562187 -5.78674,-0.87764 -7.41797,1.910158"
           id="path1348"
           style="font-style:normal;font-variant:normal;font-weight:normal;font-stretch:normal;letter-spacing:normal;word-spacing:normal;text-anchor:start;fill:none;stroke:#000000;stroke-width:0.44528413;stroke-linecap:butt;stroke-linejoin:miter;stroke-miterlimit:10.43299961;stroke-dasharray:none;stroke-dashoffset:0;stroke-opacity:1"
           inkscape:connector-curvature="0" />
        <path
           d="m -365.06021,81.381075 -0.16519,0.154878 -0.16003,0.103252 -0.16002,0.05163 -0.16003,0.103252 -0.16003,0.103251 -0.15486,0.05163 -0.16002,0.103252 -0.15487,0.05163 -0.16519,0.05163 -0.16002,0.103252 -0.16519,0.05163 -0.17035,0.05163 -0.17551,0.05163 -0.17551,0.05163 -0.18584,0.05163 -0.191,0.05163 c -1.32666,0.309756 -1.49185,2.116662 -1.79125,2.994302 -2.08034,7.898763 1.79125,15.436146 8.3265,19.049956 4.1555,2.37479 5.34279,-3.71706 6.07065,-7.279251 1.04791,-5.523971 0,-11.306072 -3.55154,-15.642647 -1.79125,-2.219914 -5.34279,-2.219914 -7.86191,-0.567885 -0.30456,0.154878 -0.90853,1.032518 -0.60397,1.755281"
           id="path1350"
           style="font-style:normal;font-variant:normal;font-weight:normal;font-stretch:normal;letter-spacing:normal;word-spacing:normal;text-anchor:start;fill:none;stroke:#000000;stroke-width:0.44528413;stroke-linecap:butt;stroke-linejoin:miter;stroke-miterlimit:10.43299961;stroke-dasharray:none;stroke-dashoffset:0;stroke-opacity:1"
           inkscape:connector-curvature="0" />
        <path
           d="m -353.76549,79.316039 c 25.36666,0.774389 50.74881,0.464634 76.30131,0.619511"
           id="path1352"
           style="font-style:normal;font-variant:normal;font-weight:normal;font-stretch:normal;letter-spacing:normal;word-spacing:normal;text-anchor:start;fill:none;stroke:#000000;stroke-width:0.44528413;stroke-linecap:butt;stroke-linejoin:miter;stroke-miterlimit:10.43299961;stroke-dasharray:none;stroke-dashoffset:0;stroke-opacity:1"
           inkscape:connector-curvature="0" />
        <path
           d="m -273.33449,80.968068 c 1.03243,0 1.96161,0 2.94241,0"
           id="path1354"
           style="font-style:normal;font-variant:normal;font-weight:normal;font-stretch:normal;letter-spacing:normal;word-spacing:normal;text-anchor:start;fill:none;stroke:#000000;stroke-width:0.44528413;stroke-linecap:butt;stroke-linejoin:miter;stroke-miterlimit:10.43299961;stroke-dasharray:none;stroke-dashoffset:0;stroke-opacity:1"
           inkscape:connector-curvature="0" />
        <path
           d="m -267.24318,80.968068 c 6.24616,-0.774388 12.44071,1.032518 18.53201,0"
           id="path1356"
           style="font-style:normal;font-variant:normal;font-weight:normal;font-stretch:normal;letter-spacing:normal;word-spacing:normal;text-anchor:start;fill:none;stroke:#000000;stroke-width:0.44528413;stroke-linecap:butt;stroke-linejoin:miter;stroke-miterlimit:10.43299961;stroke-dasharray:none;stroke-dashoffset:0;stroke-opacity:1"
           inkscape:connector-curvature="0" />
        <path
           d="m -319.78841,77.251004 c 9.49314,0.413007 18.99144,0.722762 28.33488,1.652028"
           id="path1358"
           style="font-style:normal;font-variant:normal;font-weight:normal;font-stretch:normal;letter-spacing:normal;word-spacing:normal;text-anchor:start;fill:none;stroke:#000000;stroke-width:0.44528413;stroke-linecap:butt;stroke-linejoin:miter;stroke-miterlimit:10.43299961;stroke-dasharray:none;stroke-dashoffset:0;stroke-opacity:1"
           inkscape:connector-curvature="0" />
        <path
           d="m -352.29429,83.96237 3.1076,-0.464633 1.54863,-0.154877 1.54864,-0.154878 1.54347,-0.154878 1.54348,-0.103252 1.54347,-0.103251 1.53831,-0.05163 1.53832,0 1.53315,0 1.53315,0.05163 1.53315,0.154877 1.53315,0.154878 1.53315,0.206504 1.53315,0.258129 1.52798,0.361381 c 1.77577,0.25813 3.57219,0.413008 5.3428,0.877641 2.37974,0.567885 4.46007,-0.154878 6.0913,-1.961784 0.13938,1.342273 2.07518,0.929266 2.07518,2.065035 1.47636,0 2.66365,-0.567884 3.85094,-0.980892 3.71672,-1.393899 8.31101,0.25813 12.64719,0 2.47782,-0.154877 3.81997,-1.084143 5.16212,-1.084143 1.34216,0 2.83917,0 4.18132,0"
           id="path1360"
           style="font-style:normal;font-variant:normal;font-weight:normal;font-stretch:normal;letter-spacing:normal;word-spacing:normal;text-anchor:start;fill:none;stroke:#000000;stroke-width:0.44528413;stroke-linecap:butt;stroke-linejoin:miter;stroke-miterlimit:10.43299961;stroke-dasharray:none;stroke-dashoffset:0;stroke-opacity:1"
           inkscape:connector-curvature="0" />
        <path
           d="m -282.67793,87.059924 0.0516,-0.05163 0.10324,0 0.10324,-0.05163 0.15486,0 0.15487,-0.05163 0.10324,-0.05163 0.15486,-0.05163 0.15487,-0.05163 0.10324,-0.05163 0.15486,-0.05163 0.10325,-0.05163 0.15486,-0.103252 0.10324,-0.05163 0.10324,0 0.15487,-0.05163 0.0516,-0.05163 0.0516,0 0.0516,0 0.0516,-0.05163 c 2.06485,-0.567885 4.18132,-0.567885 6.24617,-1.032518 1.80674,-0.309756 3.87159,0.464633 5.62671,0.619511 0.46459,0 0.61946,-1.652029 1.49702,-1.806907 3.56186,-0.567885 6.814,-0.87764 10.37586,-0.567885"
           id="path1362"
           style="font-style:normal;font-variant:normal;font-weight:normal;font-stretch:normal;letter-spacing:normal;word-spacing:normal;text-anchor:start;fill:none;stroke:#000000;stroke-width:0.44528413;stroke-linecap:butt;stroke-linejoin:miter;stroke-miterlimit:10.43299961;stroke-dasharray:none;stroke-dashoffset:0;stroke-opacity:1"
           inkscape:connector-curvature="0" />
        <path
           d="m -254.80247,84.530255 c 4.64591,-2.065036 9.4983,-0.154877 14.40232,-0.567885"
           id="path1364"
           style="font-style:normal;font-variant:normal;font-weight:normal;font-stretch:normal;letter-spacing:normal;word-spacing:normal;text-anchor:start;fill:none;stroke:#000000;stroke-width:0.44528413;stroke-linecap:butt;stroke-linejoin:miter;stroke-miterlimit:10.43299961;stroke-dasharray:none;stroke-dashoffset:0;stroke-opacity:1"
           inkscape:connector-curvature="0" />
        <path
           d="m -238.90314,87.679435 -0.30973,-0.05163 -0.36134,0 -0.67108,-0.103252 -0.61946,-0.103251 -0.67107,-0.103252 -0.67108,-0.154878 -0.61945,-0.154878 -1.29053,-0.309755 -0.67108,-0.154878 -0.61945,-0.103251 -0.61946,-0.154878 -0.61945,-0.103252 -0.61946,-0.103252 -0.30972,0 -0.30973,-0.05163 -0.30973,0 -0.30972,0 -0.30973,0 -0.30973,0 c -6.55589,0.25813 -12.95692,-0.309755 -19.61606,0.877641 -5.78157,1.032518 -11.71801,2.529669 -16.77689,1.032518 -5.93644,-1.806907 -11.56315,-1.187396 -17.18986,-0.154878 -0.30973,0.154878 -0.15487,1.342273 -0.61946,1.806906 -0.30973,0.25813 -1.18729,0.25813 -1.44539,0 -0.92918,-0.929266 -1.96161,-1.806906 -2.83917,-2.116661 -3.56703,-1.910159 -8.0271,-0.877641 -12.17744,-1.187396 -10.24681,-0.87764 -20.18906,1.652029 -30.43071,0.774388"
           id="path1366"
           style="font-style:normal;font-variant:normal;font-weight:normal;font-stretch:normal;letter-spacing:normal;word-spacing:normal;text-anchor:start;fill:none;stroke:#000000;stroke-width:0.44528413;stroke-linecap:butt;stroke-linejoin:miter;stroke-miterlimit:10.43299961;stroke-dasharray:none;stroke-dashoffset:0;stroke-opacity:1"
           inkscape:connector-curvature="0" />
        <path
           d="m -332.69372,77.818888 c 3.10244,0 6.23068,-1.342273 9.35377,0"
           id="path1368"
           style="font-style:normal;font-variant:normal;font-weight:normal;font-stretch:normal;letter-spacing:normal;word-spacing:normal;text-anchor:start;fill:none;stroke:#000000;stroke-width:0.44528413;stroke-linecap:butt;stroke-linejoin:miter;stroke-miterlimit:10.43299961;stroke-dasharray:none;stroke-dashoffset:0;stroke-opacity:1"
           inkscape:connector-curvature="0" />
        <path
           d="m -263.06187,78.903032 c 4.43943,-2.116662 9.34344,0.103252 13.93773,-0.619511"
           id="path1370"
           style="font-style:normal;font-variant:normal;font-weight:normal;font-stretch:normal;letter-spacing:normal;word-spacing:normal;text-anchor:start;fill:none;stroke:#000000;stroke-width:0.44528413;stroke-linecap:butt;stroke-linejoin:miter;stroke-miterlimit:10.43299961;stroke-dasharray:none;stroke-dashoffset:0;stroke-opacity:1"
           inkscape:connector-curvature="0" />
        <path
           d="m -351.69032,90.157478 2.11647,-0.206503 2.12679,-0.154878 2.13196,-0.206504 2.12679,-0.103251 1.0634,-0.05163 1.0634,0 1.05823,-0.05163 1.05824,0 1.04791,0.05163 1.04791,0 1.04275,0.103251 1.03242,0.05163 c 1.77577,0.154878 3.99548,0.567885 5.78674,1.187396 6.37522,2.219914 12.9053,-1.961784 19.57992,-1.032518"
           id="path1372"
           style="font-style:normal;font-variant:normal;font-weight:normal;font-stretch:normal;letter-spacing:normal;word-spacing:normal;text-anchor:start;fill:none;stroke:#000000;stroke-width:0.44528413;stroke-linecap:butt;stroke-linejoin:miter;stroke-miterlimit:10.43299961;stroke-dasharray:none;stroke-dashoffset:0;stroke-opacity:1"
           inkscape:connector-curvature="0" />
        <path
           d="m -299.14509,90.157478 c 3.09727,0.309756 6.0913,-0.87764 9.18857,-0.413007"
           id="path1374"
           style="font-style:normal;font-variant:normal;font-weight:normal;font-stretch:normal;letter-spacing:normal;word-spacing:normal;text-anchor:start;fill:none;stroke:#000000;stroke-width:0.44528413;stroke-linecap:butt;stroke-linejoin:miter;stroke-miterlimit:10.43299961;stroke-dasharray:none;stroke-dashoffset:0;stroke-opacity:1"
           inkscape:connector-curvature="0" />
        <path
           d="m -283.71035,90.157478 c 8.00129,0 15.74447,-1.600403 23.74576,-1.032518"
           id="path1376"
           style="font-style:normal;font-variant:normal;font-weight:normal;font-stretch:normal;letter-spacing:normal;word-spacing:normal;text-anchor:start;fill:none;stroke:#000000;stroke-width:0.44528413;stroke-linecap:butt;stroke-linejoin:miter;stroke-miterlimit:10.43299961;stroke-dasharray:none;stroke-dashoffset:0;stroke-opacity:1"
           inkscape:connector-curvature="0" />
        <path
           d="m -265.17834,91.654629 0.61946,0 0.56783,0.05163 0.56784,0 0.56783,0.05163 1.18729,0.05163 0.56783,0.05163 0.56783,0 0.61946,0 0.56783,0 0.56783,0 0.56784,0 0.56783,-0.05163 0.56783,-0.103252 0.25811,0 0.30973,-0.05163 0.2581,-0.103251 0.25811,-0.05163 c 1.08405,-0.25813 2.37458,-1.342274 3.30376,-1.497151 4.74915,-0.722763 9.65316,-1.342274 14.40232,0.154877"
           id="path1378"
           style="font-style:normal;font-variant:normal;font-weight:normal;font-stretch:normal;letter-spacing:normal;word-spacing:normal;text-anchor:start;fill:none;stroke:#000000;stroke-width:0.44528413;stroke-linecap:butt;stroke-linejoin:miter;stroke-miterlimit:10.43299961;stroke-dasharray:none;stroke-dashoffset:0;stroke-opacity:1"
           inkscape:connector-curvature="0" />
        <path
           d="m -238.90314,92.687147 c -4.1297,0.774389 -8.15615,-2.065036 -12.28585,-0.413007"
           id="path1380"
           style="font-style:normal;font-variant:normal;font-weight:normal;font-stretch:normal;letter-spacing:normal;word-spacing:normal;text-anchor:start;fill:none;stroke:#000000;stroke-width:0.44528413;stroke-linecap:butt;stroke-linejoin:miter;stroke-miterlimit:10.43299961;stroke-dasharray:none;stroke-dashoffset:0;stroke-opacity:1"
           inkscape:connector-curvature="0" />
        <path
           d="m -269.77262,91.654629 -1.49702,0.309756 -1.54863,0.258129 -1.54864,0.25813 -1.54864,0.154877 -1.54863,0.154878 -1.54864,0.103252 -1.54864,0.103252 -1.54863,0.05163 -1.54864,0.05163 -1.54863,0 -3.09728,0 -3.14889,-0.05163 -3.09727,-0.05163 c -5.05888,-0.154878 -10.37587,0.309755 -15.43991,-1.342274"
           id="path1382"
           style="font-style:normal;font-variant:normal;font-weight:normal;font-stretch:normal;letter-spacing:normal;word-spacing:normal;text-anchor:start;fill:none;stroke:#000000;stroke-width:0.44528413;stroke-linecap:butt;stroke-linejoin:miter;stroke-miterlimit:10.43299961;stroke-dasharray:none;stroke-dashoffset:0;stroke-opacity:1"
           inkscape:connector-curvature="0" />
        <path
           d="m -350.21912,92.687147 c 6.09131,0.464633 12.01742,-1.652028 18.10872,-1.032518"
           id="path1384"
           style="font-style:normal;font-variant:normal;font-weight:normal;font-stretch:normal;letter-spacing:normal;word-spacing:normal;text-anchor:start;fill:none;stroke:#000000;stroke-width:0.44528413;stroke-linecap:butt;stroke-linejoin:miter;stroke-miterlimit:10.43299961;stroke-dasharray:none;stroke-dashoffset:0;stroke-opacity:1"
           inkscape:connector-curvature="0" />
        <path
           d="m -327.51095,93.719665 0.36135,0 0.36135,0.05163 0.36135,0 0.36135,0.05163 0.72269,0.05163 0.35619,0 0.35619,0 0.35618,0 0.35103,0.05163 0.35102,-0.05163 0.34586,0 0.17552,0 0.17035,-0.05163 0.17035,0 0.17035,-0.05163 0.17035,-0.05163 0.16518,0 0.17035,-0.05163 0.16519,-0.05163 c 3.26762,-1.342273 6.67462,-0.309755 9.80287,-1.961784"
           id="path1386"
           style="font-style:normal;font-variant:normal;font-weight:normal;font-stretch:normal;letter-spacing:normal;word-spacing:normal;text-anchor:start;fill:none;stroke:#000000;stroke-width:0.44528413;stroke-linecap:butt;stroke-linejoin:miter;stroke-miterlimit:10.43299961;stroke-dasharray:none;stroke-dashoffset:0;stroke-opacity:1"
           inkscape:connector-curvature="0" />
        <path
           d="m -350.21912,96.404212 c 6.97919,-0.258129 14.25778,-2.787799 21.23181,0.464633"
           id="path1388"
           style="font-style:normal;font-variant:normal;font-weight:normal;font-stretch:normal;letter-spacing:normal;word-spacing:normal;text-anchor:start;fill:none;stroke:#000000;stroke-width:0.44528413;stroke-linecap:butt;stroke-linejoin:miter;stroke-miterlimit:10.43299961;stroke-dasharray:none;stroke-dashoffset:0;stroke-opacity:1"
           inkscape:connector-curvature="0" />
        <path
           d="m -349.61515,98.933881 0.27876,0 0.27359,0 0.54202,-0.05163 0.5317,-0.05163 0.52654,-0.05163 0.52137,-0.103251 0.51621,-0.103252 0.51105,-0.103252 0.50589,-0.154878 0.50589,-0.103251 0.51105,-0.154878 1.01177,-0.309756 1.02727,-0.309755 0.52137,-0.154878 0.52654,-0.154877 c 5.19825,-1.290648 10.82496,2.839424 15.72898,0.774388 0.60397,-0.309755 1.93579,-2.219914 2.67914,-2.219914 6.5146,-0.154877 13.34924,-2.219913 19.5696,1.187396 17.65445,-0.154878 35.20567,-0.722762 52.55039,-2.529669"
           id="path1390"
           style="font-style:normal;font-variant:normal;font-weight:normal;font-stretch:normal;letter-spacing:normal;word-spacing:normal;text-anchor:start;fill:none;stroke:#000000;stroke-width:0.44528413;stroke-linecap:butt;stroke-linejoin:miter;stroke-miterlimit:10.43299961;stroke-dasharray:none;stroke-dashoffset:0;stroke-opacity:1"
           inkscape:connector-curvature="0" />
        <path
           d="m -241.43258,97.901363 c -3.407,-0.154878 -6.96886,0.619511 -10.37586,-0.464633"
           id="path1392"
           style="font-style:normal;font-variant:normal;font-weight:normal;font-stretch:normal;letter-spacing:normal;word-spacing:normal;text-anchor:start;fill:none;stroke:#000000;stroke-width:0.44528413;stroke-linecap:butt;stroke-linejoin:miter;stroke-miterlimit:10.43299961;stroke-dasharray:none;stroke-dashoffset:0;stroke-opacity:1"
           inkscape:connector-curvature="0" />
        <path
           d="m -243.03284,100.99892 -0.56783,-0.20651 -0.56783,-0.2065 -0.56784,-0.15488 -0.56783,-0.15488 -0.56783,-0.10325 -0.56784,-0.10325 -0.56783,-0.103251 -0.61945,-0.05163 -0.61946,-0.05163 -0.56783,0 -1.23891,-0.05163 -1.18729,0 -1.23891,0.05163 -1.23891,0 -1.18728,-0.05163 -0.61946,-0.05163 -0.61945,-0.05163 -0.56784,-0.05163 -0.61945,-0.103252 -0.56783,-0.103252 -0.61946,-0.103252 -0.56783,-0.154877 -0.56784,-0.206504 -0.56783,-0.206504 -0.56783,-0.258129 -0.56784,-0.309755 -0.51621,-0.309756 c -2.42619,-1.497151 -6.24616,-0.464633 -9.4983,-0.464633"
           id="path1394"
           style="font-style:normal;font-variant:normal;font-weight:normal;font-stretch:normal;letter-spacing:normal;word-spacing:normal;text-anchor:start;fill:none;stroke:#000000;stroke-width:0.44528413;stroke-linecap:butt;stroke-linejoin:miter;stroke-miterlimit:10.43299961;stroke-dasharray:none;stroke-dashoffset:0;stroke-opacity:1"
           inkscape:connector-curvature="0" />
        <path
           d="m -301.67453,95.371694 c 6.24617,-0.154878 12.59557,-0.87764 18.9966,-0.619511"
           id="path1396"
           style="font-style:normal;font-variant:normal;font-weight:normal;font-stretch:normal;letter-spacing:normal;word-spacing:normal;text-anchor:start;fill:none;stroke:#000000;stroke-width:0.44528413;stroke-linecap:butt;stroke-linejoin:miter;stroke-miterlimit:10.43299961;stroke-dasharray:none;stroke-dashoffset:0;stroke-opacity:1"
           inkscape:connector-curvature="0" />
        <path
           d="m -352.29429,101.46355 1.27504,-0.0516 1.27505,-0.0516 1.26472,-0.15488 1.25956,-0.10325 2.50879,-0.25813 1.24923,-0.15488 1.24923,-0.10325 1.24407,-0.15488 1.24408,-0.0516 1.24407,-0.0516 1.24407,0 1.24407,0.0516 0.61945,0.0516 0.62462,0.0516 0.62462,0.0516 0.61945,0.10326 0.62462,0.10325 0.62978,0.15488 c 3.7064,0.87764 7.1134,1.91015 10.98499,1.6004 0.88789,-0.15488 1.63639,-0.87764 2.52428,-0.87764 4.15034,0 8.14582,-0.30976 12.47168,0.15488 4.74915,0.413 9.34344,0.413 14.40232,-0.46464 6.34941,-1.03252 12.59557,-0.413 18.9966,-0.15488 0.7227,0 1.29053,0.77439 2.06485,0.77439 4.1297,0.25813 8.31102,-0.46463 12.33747,0.41301 4.74915,1.1874 9.60155,0.30976 14.50556,0.77439 -0.2581,0 -0.41297,0 -0.56783,0"
           id="path1398"
           style="font-style:normal;font-variant:normal;font-weight:normal;font-stretch:normal;letter-spacing:normal;word-spacing:normal;text-anchor:start;fill:none;stroke:#000000;stroke-width:0.44528413;stroke-linecap:butt;stroke-linejoin:miter;stroke-miterlimit:10.43299961;stroke-dasharray:none;stroke-dashoffset:0;stroke-opacity:1"
           inkscape:connector-curvature="0" />
        <path
           d="m -353.76549,105.18061 0.8311,-0.0516 0.8311,-0.0516 0.84143,-0.0516 0.41813,0 0.42329,-0.0516 0.42329,-0.0516 0.42846,-0.0516 0.42846,-0.0516 0.43361,-0.0516 0.43362,-0.0516 0.43362,-0.10325 0.44394,-0.0516 0.44395,-0.10325 c 3.12308,-0.92926 6.3907,-0.30975 9.65832,-0.30975"
           id="path1400"
           style="font-style:normal;font-variant:normal;font-weight:normal;font-stretch:normal;letter-spacing:normal;word-spacing:normal;text-anchor:start;fill:none;stroke:#000000;stroke-width:0.44528413;stroke-linecap:butt;stroke-linejoin:miter;stroke-miterlimit:10.43299961;stroke-dasharray:none;stroke-dashoffset:0;stroke-opacity:1"
           inkscape:connector-curvature="0" />
        <path
           d="m -339.83293,99.966399 0.29424,-0.103252 0.29424,-0.05163 0.29941,-0.103251 0.30456,-0.05163 0.2994,-0.05163 0.30457,0 0.30973,-0.05163 0.30456,0 0.30973,-0.05163 0.30973,0 0.31489,0 0.30972,0 0.62462,0.05163 0.62978,0.05163 0.62461,0.103252 0.62462,0.103251 0.61946,0.103252 0.61945,0.103249 0.61429,0.15488 0.60397,0.10325 0.59364,0.15488 0.58849,0.15488 c 4.1555,0.87764 8.47104,0 12.92595,-0.877642 10.53072,-1.806907 20.75172,-2.27154 31.12759,-0.464634 11.61477,1.910156 23.79738,-1.652028 35.20566,2.219916"
           id="path1402"
           style="font-style:normal;font-variant:normal;font-weight:normal;font-stretch:normal;letter-spacing:normal;word-spacing:normal;text-anchor:start;fill:none;stroke:#000000;stroke-width:0.44528413;stroke-linecap:butt;stroke-linejoin:miter;stroke-miterlimit:10.43299961;stroke-dasharray:none;stroke-dashoffset:0;stroke-opacity:1"
           inkscape:connector-curvature="0" />
        <path
           d="m -309.99071,97.901363 -1.38861,0.25813 -1.39377,0.258129 -0.70205,0.154878 -0.69689,0.103252 -0.70204,0.103251 -0.69689,0.05163 -0.70721,0.103252 -0.70205,0.05163 -0.70721,0 -0.71237,0 -0.71238,0 -0.71237,-0.05163 -0.71753,-0.05163 -0.7227,-0.103252 c -0.16003,0 0,-0.722762 -0.16003,-0.722762 -0.2994,-0.309756 -0.88788,-0.154878 -1.4712,-0.154878"
           id="path1404"
           style="font-style:normal;font-variant:normal;font-weight:normal;font-stretch:normal;letter-spacing:normal;word-spacing:normal;text-anchor:start;fill:none;stroke:#000000;stroke-width:0.44528413;stroke-linecap:butt;stroke-linejoin:miter;stroke-miterlimit:10.43299961;stroke-dasharray:none;stroke-dashoffset:0;stroke-opacity:1"
           inkscape:connector-curvature="0" />
        <path
           d="m -316.22139,97.901363 c 2.82368,-1.187396 5.48734,-0.154878 8.30069,-0.464633"
           id="path1406"
           style="font-style:normal;font-variant:normal;font-weight:normal;font-stretch:normal;letter-spacing:normal;word-spacing:normal;text-anchor:start;fill:none;stroke:#000000;stroke-width:0.44528413;stroke-linecap:butt;stroke-linejoin:miter;stroke-miterlimit:10.43299961;stroke-dasharray:none;stroke-dashoffset:0;stroke-opacity:1"
           inkscape:connector-curvature="0" />
        <path
           d="m -326.16363,81.690831 c 6.67462,0.154878 13.20987,0.154878 19.73995,0.154878"
           id="path1408"
           style="font-style:normal;font-variant:normal;font-weight:normal;font-stretch:normal;letter-spacing:normal;word-spacing:normal;text-anchor:start;fill:none;stroke:#000000;stroke-width:0.44528413;stroke-linecap:butt;stroke-linejoin:miter;stroke-miterlimit:10.43299961;stroke-dasharray:none;stroke-dashoffset:0;stroke-opacity:1"
           inkscape:connector-curvature="0" />
        <path
           d="m -287.27221,86.027406 0.2581,-0.05163 0.20649,-0.05163 0.2581,-0.103252 0.20649,-0.05163 0.2581,-0.05163 0.20649,-0.05163 0.41297,-0.154878 0.41297,-0.154877 0.41297,-0.154878 0.41297,-0.154878 0.36135,-0.154877 0.36135,-0.154878 0.36134,-0.154878 0.36135,-0.154878 0.41297,-0.206503 0.36135,-0.154878 0.36135,-0.206503 0.36135,-0.206504 0.41297,-0.154878 c 2.63268,-1.032518 6.65913,0 10.06613,0"
           id="path1410"
           style="font-style:normal;font-variant:normal;font-weight:normal;font-stretch:normal;letter-spacing:normal;word-spacing:normal;text-anchor:start;fill:none;stroke:#000000;stroke-width:0.44528413;stroke-linecap:butt;stroke-linejoin:miter;stroke-miterlimit:10.43299961;stroke-dasharray:none;stroke-dashoffset:0;stroke-opacity:1"
           inkscape:connector-curvature="0" />
        <path
           d="m -256.86732,97.901363 c 4.59429,-2.684547 10.11776,-2.839424 15.43474,-2.529669"
           id="path1412"
           style="font-style:normal;font-variant:normal;font-weight:normal;font-stretch:normal;letter-spacing:normal;word-spacing:normal;text-anchor:start;fill:none;stroke:#000000;stroke-width:0.44528413;stroke-linecap:butt;stroke-linejoin:miter;stroke-miterlimit:10.43299961;stroke-dasharray:none;stroke-dashoffset:0;stroke-opacity:1"
           inkscape:connector-curvature="0" />
        <path
           d="m -300.17752,82.465219 c 6.34941,-0.774388 12.75044,-0.774388 19.09985,0"
           id="path1414"
           style="font-style:normal;font-variant:normal;font-weight:normal;font-stretch:normal;letter-spacing:normal;word-spacing:normal;text-anchor:start;fill:none;stroke:#000000;stroke-width:0.44528413;stroke-linecap:butt;stroke-linejoin:miter;stroke-miterlimit:10.43299961;stroke-dasharray:none;stroke-dashoffset:0;stroke-opacity:1"
           inkscape:connector-curvature="0" />
        <path
           d="m -251.49543,89.172911 c -4.8522,1.6714 -9.57646,3.27705 -14.61084,14.054299 0.25408,-10.073339 2.72203,-19.260059 7.32409,-28.814029 -2.96117,4.32523 -7.53129,9.62377 -10.01283,30.228619 -2.00696,-7.713319 -5.41347,-13.789629 -8.36382,-17.280979 l 0,0.67602 c -1.35958,-1.11085 -2.84963,-1.88121 -4.49948,-2.39449 1.32324,0.90639 2.47747,1.85671 3.48543,2.85487 l -0.48486,0.28202 c 5.15167,4.50844 7.07667,12.197419 7.54211,19.942849 l 6.19226,0 c 0.62771,-9.117089 5.95818,-15.056679 13.42812,-19.550749 z"
           inkscape:connector-curvature="0"
           style="fill:#334829;fill-opacity:1;stroke:#000000;stroke-width:0.16900718;stroke-opacity:1"
           sodipodi:nodetypes="cccccccccccc"
           id="rect4083" />
        <path
           d="m -257.29373,82.668752 c -1.21217,0.92977 -2.29952,1.9304 -3.27502,2.97892 l 0.67602,-0.33802 c -0.71373,0.81288 -2.56096,2.56587 -3.15266,3.41919 l 0.67603,-0.33802 c -0.53654,0.86887 -2.43032,3.37693 -2.89391,4.284 -4.24157,8.298758 -3.78863,16.015278 -3.78863,16.015278 l -5.28773,0 c 0.52833,-10.160708 -2.71104,-19.337798 -10.71472,-27.274368 4.99011,4.36275 10.08618,8.88673 12.60304,22.682448 0.75144,-22.903848 7.76926,-28.423628 13.20943,-31.518148 -9.14481,6.94315 -11.24354,15.94938 -10.50582,29.013458 1.1017,-5.092178 4.5713,-12.712038 7.05368,-16.107558 l -0.66623,1.86685 c 0.67257,-0.76462 3.11683,-3.40161 3.11683,-3.40161 l -0.0952,0.60767 c 0,0 1.9468,-1.32962 3.04484,-1.89001 z"
           inkscape:connector-curvature="0"
           style="fill:url(#linearGradient3838);stroke:#000000;stroke-width:0.16900718;stroke-opacity:1"
           sodipodi:nodetypes="cccccsccccccccssc"
           id="path4092" />
        <path
           d="m -343.27178,92.677699 c 3.92198,4.76363 7.96953,9.148021 8.1404,18.019541 l 8.76657,0 c 0.55578,-7.56425 3.73303,-14.472591 16.55898,-10.923441 -6.47517,-2.83864 -14.66289,-3.4998 -18.08883,8.070771 0.009,-11.341571 2.96438,-19.172181 7.79241,-24.769691 -5.43848,5.14627 -9.12301,12.80888 -10.29727,24.073381 -5.31883,-21.029561 -9.92765,-24.152821 -14.89122,-30.340171 5.66681,7.68645 11.49249,16.33285 12.24524,30.475371 -3.65461,-9.097651 -6.75014,-11.364041 -10.22764,-14.612361 z"
           inkscape:connector-curvature="0"
           style="fill:#2d5016;stroke:#000000;stroke-width:0.16900718;stroke-opacity:1"
           sodipodi:nodetypes="cccccccccc"
           id="path4090" />
        <path
           d="m -270.42124,78.733341 c 2.31523,7.38274 5.05534,16.05805 5.32964,29.990319 l 3.62807,0 c -0.0228,-8.52421 0.8724,-17.576749 7.27559,-29.221339 -3.57568,5.85154 -7.07819,11.94458 -8.83603,23.794519 -3.64717,-17.902929 -5.12937,-18.960919 -7.39744,-24.555049 z"
           inkscape:connector-curvature="0"
           style="fill:url(#linearGradient3881);stroke:#000000;stroke-width:0.16900718;stroke-opacity:1"
           sodipodi:nodetypes="cccccc"
           id="path4096" />
        <path
           d="m -358.79246,83.376553 c 12.95862,1.59225 18.44375,13.93329 18.47248,27.551547 l 3.47885,0 c 1.62531,-6.114 5.38795,-12.875133 15.898,-13.427955 -7.87946,-1.060926 -12.03991,0.877722 -17.04607,9.531835 -4.22518,-19.79412 -12.81902,-23.417634 -20.80309,-23.654244 z"
           inkscape:connector-curvature="0"
           style="fill:url(#linearGradient3830);stroke:#000000;stroke-width:0.16900718;stroke-opacity:1"
           sodipodi:nodetypes="cccccc"
           id="path4098" />
        <path
           inkscape:connector-curvature="0"
           style="fill:url(#linearGradient3885);stroke:#000000;stroke-width:0.16900718;stroke-opacity:1"
           sodipodi:nodetypes="ccczzzzzzzzzzzzzzzzzzzcc"
           d="m -330.58916,82.774887 c -6.13935,5.948715 -8.66094,14.220264 -8.93524,28.153213 l -3.62807,0 c 0.01,-3.59799 -0.30325,-7.37716 -0.4267,-8.86544 -0.12345,-1.48839 -0.14625,-2.678423 -0.33962,-4.797435 -0.19337,-2.119012 -0.29339,-3.720693 -0.32266,-4.756538 -0.0293,-1.035811 -2.05293,-1.010207 -2.05919,-1.357905 -0.006,-0.347699 1.96032,0.652959 2.1202,0.31148 0.15983,-0.341496 -1.89576,-1.178943 -1.93649,-1.578713 -0.0406,-0.39977 2.01947,1.01477 2.20149,0.746927 0.18199,-0.267842 -1.55652,-1.244957 -1.68956,-1.656726 -0.13304,-0.41177 1.49392,0.762036 1.70984,0.503421 0.21598,-0.258615 -0.43996,-1.70224 -0.44351,-1.770857 -0.004,-0.06871 0.80255,-0.651235 0.88729,-0.126755 0.0847,0.52448 -0.13655,1.540956 0.23225,1.897612 0.3688,0.356656 1.49668,-0.59548 1.80973,-0.453378 0.31302,0.142087 -1.89288,1.168988 -1.85232,1.426116 0.0407,0.257144 1.50918,-0.503827 2.08268,-0.451215 0.57349,0.05261 -2.1611,0.595598 -1.91063,1.278843 0.25054,0.683245 2.17816,-0.636616 2.08031,-0.220842 -0.0977,0.415775 -2.33179,0.725971 -2.29123,1.276292 0.0407,0.550321 0.19439,2.92281 0.74248,6.044711 0.54811,3.121902 0.42612,3.484932 0.96591,7.123652 3.64667,-17.911381 7.18145,-18.445443 11.00288,-22.726395 z"
           id="path3883" />
        <path
           style="fill:none;fill-rule:evenodd;stroke:#000000;stroke-width:0.33801436;stroke-linecap:round;stroke-linejoin:miter;stroke-opacity:1;stroke-miterlimit:4;stroke-dasharray:none"
           d="m -274.36583,108.65438 12.89871,0.0715"
           id="path5771"
           inkscape:connector-curvature="0" />
      </g>
    </g>
  </g>
</svg>
