<?xml version="1.0" encoding="UTF-8" standalone="no"?>
<svg
   xmlns:dc="http://purl.org/dc/elements/1.1/"
   xmlns:cc="http://creativecommons.org/ns#"
   xmlns:rdf="http://www.w3.org/1999/02/22-rdf-syntax-ns#"
   xmlns:svg="http://www.w3.org/2000/svg"
   xmlns="http://www.w3.org/2000/svg"
   xmlns:xlink="http://www.w3.org/1999/xlink"
   xmlns:sodipodi="http://sodipodi.sourceforge.net/DTD/sodipodi-0.dtd"
   xmlns:inkscape="http://www.inkscape.org/namespaces/inkscape"
   id="svg2816"
   sodipodi:docname="microscope.svg"
   viewBox="0 0 332.59842 472.44094"
   version="1.1"
   inkscape:version="1.0.2-2 (e86c870879, 2021-01-15)"
   width="88mm"
   height="125mm">
  <defs
     id="defs2820">
    <linearGradient
       id="linearGradient4181">
      <stop
         id="stop4183"
         style="stop-color:#c7ced5"
         offset="0" />
      <stop
         id="stop4191"
         style="stop-color:#30484c"
         offset=".30005" />
      <stop
         id="stop4189"
         style="stop-color:#d6d6e2"
         offset=".55839" />
      <stop
         id="stop4185"
         style="stop-color:#92979a"
         offset="1" />
    </linearGradient>
    <filter
       id="filter3689"
       inkscape:collect="always"
       color-interpolation-filters="sRGB">
      <feGaussianBlur
         id="feGaussianBlur3691"
         stdDeviation="0.64943709"
         inkscape:collect="always" />
    </filter>
    <filter
       id="filter3699"
       inkscape:collect="always"
       color-interpolation-filters="sRGB">
      <feGaussianBlur
         id="feGaussianBlur3701"
         stdDeviation="0.65470181"
         inkscape:collect="always" />
    </filter>
    <filter
       id="filter3730"
       inkscape:collect="always"
       color-interpolation-filters="sRGB">
      <feGaussianBlur
         id="feGaussianBlur3732"
         stdDeviation="0.19896464"
         inkscape:collect="always" />
    </filter>
    <linearGradient
       id="linearGradient5504"
       y2="296.04999"
       xlink:href="#linearGradient4181"
       gradientUnits="userSpaceOnUse"
       x2="339.57999"
       gradientTransform="matrix(-0.30239,0.49163,-0.25323,-0.15576,461.69,114.36)"
       y1="296.04999"
       x1="310.95999"
       inkscape:collect="always" />
    <linearGradient
       id="linearGradient5751"
       y2="296.04999"
       xlink:href="#linearGradient4181"
       gradientUnits="userSpaceOnUse"
       x2="339.57999"
       gradientTransform="translate(-40)"
       y1="296.04999"
       x1="310.95999"
       inkscape:collect="always" />
    <linearGradient
       id="linearGradient6055"
       y2="110.54"
       gradientUnits="userSpaceOnUse"
       x2="289.95999"
       gradientTransform="matrix(1,0,0,1.0373,6.5,55.623)"
       y1="110.54"
       x1="269.26999"
       inkscape:collect="always">
      <stop
         id="stop6051"
         style="stop-color:#c6c7cc"
         offset="0" />
      <stop
         id="stop6059"
         style="stop-color:#4f4f57"
         offset=".32249" />
      <stop
         id="stop6057"
         style="stop-color:#191d20"
         offset=".57249" />
      <stop
         id="stop6053"
         style="stop-color:#aab1b9"
         offset="1" />
    </linearGradient>
  </defs>
  <sodipodi:namedview
     id="namedview2818"
     bordercolor="#666666"
     inkscape:pageshadow="2"
     guidetolerance="10"
     pagecolor="#ffffff"
     gridtolerance="10"
     inkscape:window-maximized="1"
     inkscape:zoom="0.70710678"
     objecttolerance="10"
     borderopacity="1"
     inkscape:current-layer="svg2816"
     inkscape:cx="268.57154"
     inkscape:cy="243.17366"
     inkscape:window-y="-8"
     inkscape:window-x="-8"
     inkscape:window-width="1920"
     showgrid="true"
     inkscape:pageopacity="0"
     inkscape:window-height="1017"
     inkscape:document-rotation="0"
     units="mm" />
  <g
     id="g6216"
     style="fill:#17181a"
     transform="matrix(0.93121826,0,0,0.93121826,-279.42436,-53.3339)">
    <path
       id="path6175"
       style="fill:#17181a"
       d="m 507.14,267.3 c 0,13.235 -21.916,23.964 -48.95,23.964 -27.034,0 -48.95,-10.729 -48.95,-23.964 0,-13.235 21.916,-23.964 48.95,-23.964 27.034,0 48.95,10.729 48.95,23.964 z" />
    <rect
       id="rect6177"
       style="fill:#17181a"
       height="25.718"
       width="97.801003"
       y="243.17999"
       x="409.34" />
  </g>
  <g
     id="g6231"
     transform="matrix(0.93121826,0,0,0.93121826,-255.67829,-47.280982)">
    <path
       id="path6222"
       style="fill:#dddfdc"
       d="m 485.14,232.49 c 0,10.094 -23.707,18.278 -52.95,18.278 -29.243,0 -52.95,-8.1832 -52.95,-18.278 0,-10.094 23.707,-18.278 52.95,-18.278 29.244,0 52.95,8.1832 52.95,18.278 z" />
    <rect
       id="rect6224"
       style="fill:#dddfdc"
       height="19.615"
       width="105.79"
       y="214.09"
       x="379.34" />
    <path
       id="path6226"
       style="fill:#e3e5e4"
       d="m 485.14,214.41 c -10e-6,10.094 -23.707,18.278 -52.95,18.278 -29.243,0 -52.95,-8.1832 -52.95,-18.278 10e-6,-10.094 23.707,-18.278 52.95,-18.278 29.244,0 52.95,8.1832 52.95,18.278 z" />
  </g>
  <g
     id="g5950"
     transform="matrix(0.93121826,0,0,0.93121826,-13.556894,-38.434408)">
    <ellipse
       id="path2830"
       style="fill:#1a1a1a"
       transform="matrix(1.0845,0,0,1.0845,-14.741,-44.808)"
       cx="174.41948"
       cy="535.79047"
       rx="8.8927116"
       ry="6.6812963" />
    <ellipse
       id="path2832"
       style="fill:#1a1a1a"
       transform="matrix(0.62601,-0.30688,0.30688,0.62601,70.745,166.11)"
       cx="174.41948"
       cy="535.79047"
       rx="8.8927116"
       ry="6.6812963" />
    <g
       id="g5890">
      <g
         id="g3780">
        <path
           id="path2828"
           sodipodi:nodetypes="ccccsc"
           style="fill:#c1c2c4"
           d="m 177.29,535.7 181.43,-97.49 v -65.496 l -167.5,83.563 c 0,0 -10.412,32.686 -13.551,49.686 -1.8,9.7482 -0.37641,29.736 -0.37641,29.736 z" />
        <path
           id="path2834"
           sodipodi:nodetypes="ccccsc"
           style="fill:#e1e3e2"
           d="M 177.29,535.7 C 172.9174,538.6873 79.7,511.518 62.67,463.241 62.55984,433 69.6341,411.705 77.162,392.099 c 40.181,48.072 76.712,51.128 114.05,64.178 0,0 -10.412,32.686 -13.551,49.686 -1.8,9.7482 -0.37641,29.736 -0.37641,29.736 z" />
      </g>
      <g
         id="g5834">
        <path
           id="path2836"
           sodipodi:nodetypes="ccccc"
           style="fill:#e7e9e8"
           d="m 358.72,372.72 -167.5,83.562 C 153.879,443.232 117.338,440.166 77.16,392.094 97.338,378.818 189.5,343.156 246,320.214 c 38.032,17.134 79.164,31.789 112.72,52.505 z" />
        <g
           id="g5780">
          <g
             id="g3877">
            <g
               id="g3661">
              <path
                 id="path2847"
                 style="fill:#000000"
                 d="m 338.25,374.5 -15.532,8.8884 -9.2058,-5.315 15.343,-8.8583 9.3953,5.2848 z" />
              <g
                 id="g3632"
                 style="stroke-width:0.3">
                <path
                   id="path2849"
                   style="fill:#333333;stroke:#000000;stroke-width:0.3"
                   d="m 335.21,375.03 -12.022,6.6738 -7.1252,-3.9907 11.875,-6.6511 7.2719,3.968 z" />
                <path
                   id="path3625"
                   sodipodi:nodetypes="ccccccccc"
                   style="fill:#333333;stroke:#000000;stroke-width:0.3"
                   d="m 319.99,373.33 -3.9422,4.3757 7.2026,3.9486 3.829,-4.8416 -7.0894,-3.4826 z m 3.2604,8.3242 8.156,-4.514 -4.3312,-0.31505 -3.8248,4.8291 z" />
                <path
                   id="path3630"
                   sodipodi:nodetypes="ccccc"
                   style="fill:#333333;stroke:#000000;stroke-width:0.3"
                   d="m 323.29,373.63 -3.3021,-0.30749 7.0948,3.4748 4.3031,0.35689 -8.0959,-3.5242 z" />
              </g>
            </g>
            <g
               id="g3673">
              <path
                 id="path3646"
                 style="fill:#000000"
                 d="m 251.31,331.62 -15.532,8.8884 -9.2058,-5.315 15.343,-8.8583 9.3953,5.2848 z" />
              <g
                 id="g3648"
                 style="stroke-width:0.3"
                 transform="translate(-86.939,-42.881)">
                <path
                   id="path3650"
                   style="fill:#333333;stroke:#000000;stroke-width:0.3"
                   d="m 335.21,375.03 -12.022,6.6738 -7.1252,-3.9907 11.875,-6.6511 7.2719,3.968 z" />
                <path
                   id="path3652"
                   sodipodi:nodetypes="ccccccccc"
                   style="fill:#333333;stroke:#000000;stroke-width:0.3"
                   d="m 319.99,373.33 -3.9422,4.3757 7.2026,3.9486 3.829,-4.8416 -7.0894,-3.4826 z m 3.2604,8.3242 8.156,-4.514 -4.3312,-0.31505 -3.8248,4.8291 z" />
                <path
                   id="path3654"
                   sodipodi:nodetypes="ccccc"
                   style="fill:#333333;stroke:#000000;stroke-width:0.3"
                   d="m 323.29,373.63 -3.3021,-0.30749 7.0948,3.4748 4.3031,0.35689 -8.0959,-3.5242 z" />
              </g>
            </g>
            <g
               id="g3847">
              <ellipse
                 id="path3680"
                 style="fill:#5f8085"
                 transform="matrix(1.0984,0,0,1.2454,-27.137,-106.41)"
                 cx="182.43355"
                 cy="409.10898"
                 rx="64.700272"
                 ry="28.814602" />
              <g
                 id="g3819">
                <g
                   id="g3805">
                  <g
                     id="g3693">
                    <path
                       id="path3687"
                       sodipodi:nodetypes="cccss"
                       style="fill:#000000;filter:url(#filter3689)"
                       d="m 132.13,386.87 78.267,-39.937 5.6298,5.7765 -80.919,38.876 c -2.82,1.3549 -5.7017,-3.3261 -2.9782,-4.7158 z" />
                    <path
                       id="rect3682"
                       sodipodi:nodetypes="cccss"
                       style="fill:#aeb0af"
                       d="m 132.13,384.87 78.267,-39.937 5.6298,5.7765 -80.919,38.876 c -2.82,1.3549 -5.7017,-3.3261 -2.9782,-4.7158 z" />
                  </g>
                  <g
                     id="g3734"
                     transform="matrix(1,0,0,0.74471,-0.88388,89.797)">
                    <g
                       id="g3718"
                       style="fill:#000000;filter:url(#filter3730)"
                       transform="translate(-0.044194,-3.6075)">
                      <rect
                         id="rect3720"
                         style="fill:#000000"
                         height="11.225"
                         width="10.518"
                         y="342.63"
                         x="206.48" />
                      <ellipse
                         id="path3722"
                         style="fill:#000000"
                         cx="211.73428"
                         cy="342.9061"
                         rx="5.2591066"
                         ry="2.6516504" />
                      <ellipse
                         id="path3724"
                         style="fill:#000000"
                         transform="translate(0,10.707)"
                         cx="211.73428"
                         cy="342.9061"
                         rx="5.2591066"
                         ry="2.6516504" />
                    </g>
                    <g
                       id="g3713"
                       style="fill:#676769"
                       transform="translate(-0.71837,-3.9281)">
                      <rect
                         id="rect3709"
                         style="fill:#676769"
                         height="11.225"
                         width="10.518"
                         y="342.63"
                         x="206.48" />
                      <ellipse
                         id="path3707"
                         style="fill:#676769"
                         cx="211.73428"
                         cy="342.9061"
                         rx="5.2591066"
                         ry="2.6516504" />
                      <ellipse
                         id="path3711"
                         style="fill:#676769"
                         transform="translate(0,10.707)"
                         cx="211.73428"
                         cy="342.9061"
                         rx="5.2591066"
                         ry="2.6516504" />
                    </g>
                  </g>
                </g>
                <g
                   id="g3791">
                  <g
                     id="g3703">
                    <path
                       id="path3697"
                       sodipodi:nodetypes="cccss"
                       style="fill:#000000;filter:url(#filter3699)"
                       d="m 201.43,423.64 76.146,-42.058 6.6905,6.8372 -79.858,39.937 c -2.7982,1.3994 -5.6547,-3.2375 -2.9782,-4.7158 z" />
                    <path
                       id="path3685"
                       sodipodi:nodetypes="cccss"
                       style="fill:#b4b5b9"
                       d="m 201.43,421.64 76.146,-42.058 6.6905,6.8372 -79.858,39.937 c -2.7982,1.3994 -5.6547,-3.2375 -2.9782,-4.7158 z" />
                  </g>
                  <g
                     id="g3762"
                     transform="matrix(1,0,0,0.74471,67.882,124.62)">
                    <g
                       id="g3764"
                       style="fill:#000000;filter:url(#filter3730)"
                       transform="translate(-0.044194,-3.6075)">
                      <rect
                         id="rect3766"
                         style="fill:#000000"
                         height="11.225"
                         width="10.518"
                         y="342.63"
                         x="206.48" />
                      <ellipse
                         id="path3768"
                         style="fill:#000000"
                         cx="211.73428"
                         cy="342.9061"
                         rx="5.2591066"
                         ry="2.6516504" />
                      <ellipse
                         id="path3770"
                         style="fill:#000000"
                         transform="translate(0,10.707)"
                         cx="211.73428"
                         cy="342.9061"
                         rx="5.2591066"
                         ry="2.6516504" />
                    </g>
                    <g
                       id="g3772"
                       style="fill:#676769"
                       transform="translate(-0.71837,-3.9281)">
                      <rect
                         id="rect3774"
                         style="fill:#676769"
                         height="11.225"
                         width="10.518"
                         y="342.63"
                         x="206.48" />
                      <ellipse
                         id="path3776"
                         style="fill:#676769"
                         cx="211.73428"
                         cy="342.9061"
                         rx="5.2591066"
                         ry="2.6516504" />
                      <ellipse
                         id="path3778"
                         style="fill:#676769"
                         transform="translate(0,10.707)"
                         cx="211.73428"
                         cy="342.9061"
                         rx="5.2591066"
                         ry="2.6516504" />
                    </g>
                  </g>
                </g>
              </g>
            </g>
          </g>
          <g
             id="g5769">
            <g
               id="g4160">
              <path
                 id="path4143"
                 style="fill:#acacac"
                 d="m 306.03,353.88 c 0,7.2639 -11.667,13.152 -26.059,13.152 -14.392,0 -26.06,-5.8885 -26.06,-13.152 0,-7.2639 11.667,-13.152 26.06,-13.152 14.392,0 26.059,5.8885 26.059,13.152 z" />
              <rect
                 id="rect4145"
                 style="fill:#acacac"
                 height="17.608"
                 width="52.066002"
                 y="337.14999"
                 x="253.97" />
              <path
                 id="path4147"
                 style="fill:#d1d0d7"
                 d="m 306.03,337.58 c 0,7.2639 -11.667,13.152 -26.059,13.152 -14.392,0 -26.06,-5.8885 -26.06,-13.152 0,-7.2639 11.667,-13.152 26.06,-13.152 14.392,0 26.059,5.8885 26.059,13.152 z" />
            </g>
            <g
               id="g3990">
              <path
                 id="path3945"
                 style="fill:#7b7984"
                 d="m 296.37,335.35 c 0,4.6102 -6.9711,8.3475 -15.57,8.3475 -8.5992,0 -15.57,-3.7373 -15.57,-8.3475 0,-4.6102 6.9711,-8.3475 15.57,-8.3475 8.5993,0 15.57,3.7373 15.57,8.3475 z" />
              <rect
                 id="rect3988"
                 style="fill:#7b7984"
                 height="11.175"
                 width="31.108999"
                 y="324.73001"
                 x="265.26001" />
              <path
                 id="path3947"
                 style="fill:#bebec0"
                 d="m 296.37,325 c 0,4.6102 -6.9711,8.3475 -15.57,8.3475 -8.5992,0 -15.57,-3.7373 -15.57,-8.3475 0,-4.6102 6.9711,-8.3475 15.57,-8.3475 8.5993,0 15.57,3.7373 15.57,8.3475 z" />
            </g>
            <path
               id="path3968"
               sodipodi:nodetypes="ccsccc"
               style="fill:url(#linearGradient5751)"
               d="m 271.22,263.41 c -0.0308,18.978 0.0888,37.961 0,56.938 0,4.6102 4.6141,8.3438 10.344,8.3438 5.7296,0 10.344,-3.7336 10.344,-8.3438 V 263.41 Z" />
          </g>
        </g>
      </g>
    </g>
  </g>
  <path
     id="path5515"
     sodipodi:nodetypes="ccsccc"
     style="fill:#e6e8e5;stroke-width:0.931218"
     d="m 201.30775,134.63436 45.78056,-11.53593 c 0,0 12.11142,-0.3607 17.72946,1.54256 10.09906,3.42102 8.88308,8.99231 8.88308,8.99231 l -51.02331,16.36523 -21.3696,-15.36417 z" />
  <g
     id="g6083"
     transform="matrix(0.93121826,0,0,0.93121826,-13.556894,-38.434408)">
    <path
       id="path6013"
       sodipodi:nodetypes="ccsccc"
       style="fill:url(#linearGradient6055)"
       d="m 275.77,156.4 c -0.0308,8.0765 0.0888,16.155 0,24.23 0,1.9619 4.6141,3.5508 10.344,3.5508 5.7296,0 10.344,-1.5889 10.344,-3.5508 V 156.4 Z" />
    <g
       id="g6078"
       transform="matrix(1.059,0,0,1.059,-43.876,-1.521)">
      <path
         id="path6017"
         style="fill:#35393c"
         d="m 322.73,147.77 c 0,3.1376 -4.7444,5.6812 -10.597,5.6812 -5.8525,0 -10.597,-2.5435 -10.597,-5.6812 0,-3.1376 4.7444,-5.6811 10.597,-5.6811 5.8525,0 10.597,2.5435 10.597,5.6811 z" />
      <rect
         id="rect6019"
         style="fill:#35393c"
         height="5.2305002"
         width="21.172001"
         y="142.92"
         x="301.56" />
      <path
         id="path6021"
         style="fill:#c9cdd0"
         d="m 322.73,142.73 c 0,3.1376 -4.7444,5.6812 -10.597,5.6812 -5.8525,0 -10.597,-2.5435 -10.597,-5.6812 0,-3.1376 4.7444,-5.6811 10.597,-5.6811 5.8525,0 10.597,2.5435 10.597,5.6811 z" />
    </g>
  </g>
  <g
     id="g6158"
     transform="matrix(0.93121826,0,0,0.93121826,-13.556894,-38.434408)">
    <path
       id="path4491"
       sodipodi:nodetypes="ccccc"
       style="fill:#989ba2"
       d="m 272.8,274.76 32.85,-11.667 2.8284,-78.312 -33.557,10.74 -2.1213,79.239 z" />
    <g
       id="g5484">
      <ellipse
         id="path4886"
         style="fill:#4c535d"
         transform="matrix(0.99809,0,0,1.1158,-0.51633,-27.096)"
         cx="285.3176"
         cy="224.81927"
         rx="7.2478447"
         ry="7.5130091" />
      <path
         id="path4874"
         sodipodi:nodetypes="ccsccc"
         style="fill:url(#linearGradient5504)"
         d="m 300.88,226.34 c -4.7966,-2.9711 -9.6398,-5.869 -14.418,-8.8684 -1.1674,-0.71806 -3.5082,0.96885 -5.2408,3.7857 -1.7326,2.8169 -2.1824,5.6668 -1.015,6.3849 l 14.418,8.8684 6.2557,-10.171 z" />
      <g
         id="g5477"
         transform="matrix(-0.45562,0.94621,-1.0327,-0.40664,727.16,-11.402)">
        <path
           id="path5217"
           style="fill:#191d20"
           d="m 389.78,250.38 c 0,7.2639 -11.667,13.152 -26.059,13.152 -14.392,0 -26.06,-5.8885 -26.06,-13.152 0,-7.2639 11.667,-13.152 26.06,-13.152 14.392,0 26.059,5.8885 26.059,13.152 z" />
        <rect
           id="rect5219"
           style="fill:#191d20"
           height="9.9825001"
           width="52.066002"
           y="241.28"
           x="337.72" />
        <path
           id="path5221"
           style="fill:#3c3f46"
           d="m 389.78,241.58 c 0,7.2639 -11.667,13.152 -26.059,13.152 -14.392,0 -26.06,-5.8885 -26.06,-13.152 0,-7.2639 11.667,-13.152 26.06,-13.152 14.392,0 26.059,5.8885 26.059,13.152 z" />
        <path
           id="path5482"
           style="fill:#a09fad"
           d="m 381.96,241.58 c 0,5.0847 -8.167,9.2067 -18.242,9.2067 -10.075,0 -18.242,-4.122 -18.242,-9.2067 0,-5.0847 8.1671,-9.2067 18.242,-9.2067 10.0749,0 18.242,4.122 18.242,9.2067 z" />
      </g>
    </g>
    <path
       id="path6090"
       sodipodi:nodetypes="cccccc"
       style="fill:#989ba2"
       d="m 272.8,274.76 -13.112,5.4801 0.86194,-44.184 -38.869,-24.405 53.49,-16.38 -2.3713,79.489 z" />
    <path
       id="path6092"
       sodipodi:nodetypes="cccccc"
       style="fill:#444b55"
       d="m 231.43,270.69 28.254,9.5459 0.86194,-44.184 -38.869,-24.405 9.7316,15.099 0.0214,43.944 z" />
  </g>
  <path
     id="path6094"
     sodipodi:nodetypes="ccccc"
     style="fill:#aaabaf;stroke-width:0.931218"
     d="m 148.26556,172.81431 75.55905,-22.88189 0.32924,-19.75394 -33.74642,-18.43719 -42.14228,61.07302 z" />
  <path
     id="path6096"
     sodipodi:nodetypes="ccccc"
     style="fill:#e9e9e7;stroke-width:0.931218"
     d="m 148.26556,172.81431 c -22.88934,-4.75852 -46.78254,-13.94965 -69.307783,-29.13782 6.251268,-19.2669 25.963293,-41.09466 38.195783,-52.347497 l 73.25522,20.412297 -42.14229,61.07302 z" />
  <g
     id="g6140"
     transform="matrix(0.93121826,0,0,0.93121826,-174.15013,8.7886934)">
    <g
       id="g6142"
       transform="translate(23.335,-6.364)">
      <path
         id="path6144"
         style="fill:#97989d"
         d="m 322.46,76.33 c 9.3586,9.3586 2.7941,31.097 -14.662,48.553 -17.4561,17.456 -39.194,24.021 -48.553,14.662 -9.3586,-9.3586 -2.794,-31.097 14.662,-48.553 17.456,-17.456 39.194,-24.021 48.553,-14.662 z" />
      <rect
         id="rect6146"
         style="fill:#97989d"
         transform="rotate(-45)"
         height="55.416"
         width="89.309998"
         y="228.17"
         x="84.731003" />
      <path
         id="path6148"
         style="fill:#e3e5e4"
         d="m 284.48,38.35 c 9.3586,9.3586 2.7941,31.097 -14.662,48.553 -17.4561,17.456 -39.194,24.021 -48.553,14.662 -9.3586,-9.3586 -2.794,-31.097 14.662,-48.553 17.456,-17.456 39.194,-24.021 48.553,-14.662 z" />
    </g>
    <g
       id="g6150"
       transform="matrix(0.70711,-0.70711,0.70711,0.70711,115.42,202.57)">
      <path
         id="path6152"
         style="fill:#141519"
         d="m 236.16,13.181 c -1e-5,7.6864 -11.623,13.917 -25.96,13.917 -14.337,0 -25.96,-6.231 -25.96,-13.917 0,-7.6864 11.623,-13.917 25.96,-13.917 14.337,-4.1e-7 25.96,6.231 25.96,13.917 z" />
      <rect
         id="rect6154"
         style="fill:#141519"
         height="71.682999"
         width="51.867001"
         y="-57.577999"
         x="184.28999" />
      <path
         id="path6156"
         style="fill:#4d4d4d"
         d="m 236.16,-58.013 c -1e-5,7.6864 -11.623,13.917 -25.96,13.917 -14.337,0 -25.96,-6.231 -25.96,-13.917 0,-7.6864 11.623,-13.917 25.96,-13.917 14.337,-10e-7 25.96,6.231 25.96,13.917 z" />
    </g>
  </g>
  <g
     id="g6130"
     transform="matrix(0.93121826,0,0,0.93121826,-129.45166,27.412966)">
    <g
       id="g6109"
       transform="translate(23.335,-6.364)">
      <path
         id="path5763"
         style="fill:#97989d"
         d="m 322.46,76.33 c 9.3586,9.3586 2.7941,31.097 -14.662,48.553 -17.4561,17.456 -39.194,24.021 -48.553,14.662 -9.3586,-9.3586 -2.794,-31.097 14.662,-48.553 17.456,-17.456 39.194,-24.021 48.553,-14.662 z" />
      <rect
         id="rect5765"
         style="fill:#97989d"
         transform="rotate(-45)"
         height="55.416"
         width="89.309998"
         y="228.17"
         x="84.731003" />
      <path
         id="path5767"
         style="fill:#e3e5e4"
         d="m 284.48,38.35 c 9.3586,9.3586 2.7941,31.097 -14.662,48.553 -17.4561,17.456 -39.194,24.021 -48.553,14.662 -9.3586,-9.3586 -2.794,-31.097 14.662,-48.553 17.456,-17.456 39.194,-24.021 48.553,-14.662 z" />
    </g>
    <g
       id="g6125"
       transform="matrix(0.70711,-0.70711,0.70711,0.70711,115.42,202.57)">
      <path
         id="path6116"
         style="fill:#141519"
         d="m 236.16,13.181 c -1e-5,7.6864 -11.623,13.917 -25.96,13.917 -14.337,0 -25.96,-6.231 -25.96,-13.917 0,-7.6864 11.623,-13.917 25.96,-13.917 14.337,-4.1e-7 25.96,6.231 25.96,13.917 z" />
      <rect
         id="rect6118"
         style="fill:#141519"
         height="71.682999"
         width="51.867001"
         y="-57.577999"
         x="184.28999" />
      <path
         id="path6120"
         style="fill:#4d4d4d"
         d="m 236.16,-58.013 c -1e-5,7.6864 -11.623,13.917 -25.96,13.917 -14.337,0 -25.96,-6.231 -25.96,-13.917 0,-7.6864 11.623,-13.917 25.96,-13.917 14.337,-10e-7 25.96,6.231 25.96,13.917 z" />
    </g>
  </g>
  <path
     id="path6238"
     sodipodi:nodetypes="cscccc"
     style="fill:#1f2326;stroke-width:0.931218"
     d="m 193.12235,196.74662 c -2.09525,11.27705 -20.69912,20.65815 -45.87461,20.65815 -25.17455,0 -42.78948,-9.09 -45.58314,-20.83229 l 10.14749,44.62584 c 19.16168,18.71749 55.10764,16.46581 72.32959,0.77301 l 8.98039,-45.22462 z" />
  <metadata
     id="metadata131">
    <rdf:RDF>
      <cc:Work>
        <dc:format>image/svg+xml</dc:format>
        <dc:type
           rdf:resource="http://purl.org/dc/dcmitype/StillImage" />
        <cc:license
           rdf:resource="http://creativecommons.org/publicdomain/zero/1.0/" />
        <dc:publisher>
          <cc:Agent
             rdf:about="http://openclipart.org/">
            <dc:title>Openclipart</dc:title>
          </cc:Agent>
        </dc:publisher>
        <dc:title>Microscope</dc:title>
        <dc:date>2010-06-29T23:59:56</dc:date>
        <dc:description>A Simple Traditional Microscope</dc:description>
        <dc:source>https://openclipart.org/detail/69277/microscope-by-deusinvictus</dc:source>
        <dc:creator>
          <cc:Agent>
            <dc:title>deusinvictus</dc:title>
          </cc:Agent>
        </dc:creator>
        <dc:subject>
          <rdf:Bag>
            <rdf:li>microscope</rdf:li>
          </rdf:Bag>
        </dc:subject>
      </cc:Work>
      <cc:License
         rdf:about="http://creativecommons.org/publicdomain/zero/1.0/">
        <cc:permits
           rdf:resource="http://creativecommons.org/ns#Reproduction" />
        <cc:permits
           rdf:resource="http://creativecommons.org/ns#Distribution" />
        <cc:permits
           rdf:resource="http://creativecommons.org/ns#DerivativeWorks" />
      </cc:License>
    </rdf:RDF>
  </metadata>
</svg>
