<?xml version="1.0" encoding="UTF-8" standalone="no"?>
<svg
   xmlns:dc="http://purl.org/dc/elements/1.1/"
   xmlns:cc="http://creativecommons.org/ns#"
   xmlns:rdf="http://www.w3.org/1999/02/22-rdf-syntax-ns#"
   xmlns:svg="http://www.w3.org/2000/svg"
   xmlns="http://www.w3.org/2000/svg"
   xmlns:sodipodi="http://sodipodi.sourceforge.net/DTD/sodipodi-0.dtd"
   xmlns:inkscape="http://www.inkscape.org/namespaces/inkscape"
   version="1.1"
   x="0"
   y="0"
   width="88mm"
   height="125mm"
   viewBox="0 0 332.59843 472.44094"
   id="svg123"
   sodipodi:docname="monkey.svg"
   inkscape:version="1.0.2-2 (e86c870879, 2021-01-15)">
  <metadata
     id="metadata129">
    <rdf:RDF>
      <cc:Work
         rdf:about="">
        <dc:format>image/svg+xml</dc:format>
        <dc:type
           rdf:resource="http://purl.org/dc/dcmitype/StillImage" />
        <dc:title></dc:title>
      </cc:Work>
    </rdf:RDF>
  </metadata>
  <defs
     id="defs127" />
  <sodipodi:namedview
     pagecolor="#ffffff"
     bordercolor="#666666"
     borderopacity="1"
     objecttolerance="10"
     gridtolerance="10"
     guidetolerance="10"
     inkscape:pageopacity="0"
     inkscape:pageshadow="2"
     inkscape:window-width="1920"
     inkscape:window-height="1017"
     id="namedview125"
     showgrid="false"
     units="mm"
     inkscape:zoom="0.70133111"
     inkscape:cx="217.87713"
     inkscape:cy="318.18982"
     inkscape:window-x="-8"
     inkscape:window-y="-8"
     inkscape:window-maximized="1"
     inkscape:current-layer="svg123" />
  <g
     id="Layer_1"
     transform="matrix(0.54209325,0,0,0.54209325,18.53595,4.5750462)">
    <path
       d="m 209.348,652.134 c -10.027,7.539 -51.869,19.613 -63.402,24.758 -16.344,7.3 -23.367,7.984 -22.953,17.789 0.527,12.464 11.125,5.035 25.933,-1.02 -15.168,8.528 -25.269,13.059 -25.121,23.086 0.106,8.367 7.002,12.852 25.445,4.395 -14.808,10.316 -12.66,17.441 -12.41,20.187 3.746,11.813 12.657,5.828 25.434,2.18 -10.535,4.719 -19.408,22.191 -6.195,25.422 12.269,2.992 32.398,-12.172 58.781,-25.625 18.16,-9.262 26.055,-13.344 43.14,-21.375 1.297,10.359 -5.83,21.25 -13.542,25.601 -17.567,9.91 -8.5,22.621 0.044,29.11 11.979,9.093 30.425,-2.493 36.749,-19.231 5.725,-15.148 8.066,-32.941 21.289,-43.976 11.748,-9.797 30.121,-11.95 33.871,-13.493 25.824,-10.632 38.313,-30.121 28.633,-46.918 -8.461,-14.695 -92.176,-27.265 -111.596,-26.996 -24.35,0.328 -29.137,14.879 -44.1,26.106"
       fill="#be9180"
       id="path2" />
    <path
       d="m 209.348,652.134 c -10.027,7.539 -51.869,19.613 -63.402,24.758 -16.344,7.3 -23.367,7.984 -22.953,17.789 0.527,12.464 11.125,5.035 25.933,-1.02 -15.168,8.528 -25.269,13.059 -25.121,23.086 0.106,8.367 7.002,12.852 25.445,4.395 -14.808,10.316 -12.66,17.441 -12.41,20.187 3.746,11.813 12.657,5.828 25.434,2.18 -10.535,4.719 -19.408,22.191 -6.195,25.422 12.269,2.992 32.398,-12.172 58.781,-25.625 18.16,-9.262 26.055,-13.344 43.14,-21.375 1.297,10.359 -5.83,21.25 -13.542,25.601 -17.567,9.91 -8.5,22.621 0.044,29.11 11.979,9.093 30.425,-2.493 36.749,-19.231 5.725,-15.148 8.066,-32.941 21.289,-43.976 11.748,-9.797 30.121,-11.95 33.871,-13.493 25.824,-10.632 38.313,-30.121 28.633,-46.918 -8.461,-14.695 -92.176,-27.265 -111.596,-26.996 -24.35,0.328 -29.137,14.879 -44.1,26.106 z"
       fill-opacity="0"
       stroke="#1a1919"
       stroke-width="5.669"
       stroke-linecap="round"
       stroke-linejoin="round"
       id="path4" />
    <path
       d="m 160.848,744.103 c 11.654,-7.399 22.934,-15.461 40.133,-21.731"
       fill="#745a51"
       id="path6" />
    <path
       d="m 160.848,744.103 c 11.654,-7.399 22.934,-15.461 40.133,-21.731"
       fill-opacity="0"
       stroke="#1a1919"
       stroke-width="5.669"
       stroke-linecap="round"
       stroke-linejoin="round"
       id="path8" />
    <path
       d="m 145.676,723.337 c 15.756,-8.938 31.356,-14.57 42.035,-20.883"
       fill="#745a51"
       id="path10" />
    <path
       d="m 145.676,723.337 c 15.756,-8.938 31.356,-14.57 42.035,-20.883 m -48.761,-4.441 c 14.66,-7.035 33.902,-14.754 42.904,-18.387"
       fill-opacity="0"
       stroke="#1a1919"
       stroke-width="5.669"
       stroke-linecap="round"
       stroke-linejoin="round"
       id="path12" />
    <path
       d="m 300.452,607.224 c -4.127,-36.426 -21.918,-63.883 -35.675,-96.379 -10.917,-25.789 3.983,-59.864 -25.56,-77.782 -19.144,-11.605 -89.236,-49.75 -111.463,-42.531 -37.746,12.258 -48.774,39 -48,62.399 0.418,12.632 3.789,21.039 4.803,29.992 3.031,26.742 63.973,75.68 95.104,111.543 12.306,14.179 34.179,22.558 35.086,37.863 0.375,6.344 0.459,12.149 -5.399,20.695 8.098,-1.347 15.848,-2.515 19.358,-7.195 3.935,7.899 3.476,17.426 9.478,22.442 -0.412,-4.126 6.957,-15.559 8.172,-19.278 8.066,5.356 5.916,14.598 14.462,14.824 -1.505,-5.011 1.202,-9.386 1.19,-14.839 11.243,5.855 15.987,4.742 26.54,10.351 -0.86,-3.586 -2.602,-9.195 -2.957,-12.684 7.109,1.231 16.851,10.168 28.379,5.239 -5.578,-6.61 -11.653,-15.172 -12.262,-19.141 -1.338,-8.699 -0.262,-16.758 -1.256,-25.519"
       fill="#5f4942"
       id="path14" />
    <path
       d="m 321.704,601.056 c -9.24,-30.633 -35.598,-50.282 -65.075,-61.668 -16.505,-6.371 -28.755,-8.575 -39.464,-22.989 -25.055,-33.722 -36.909,-30.828 -57.012,-34.671 -0.195,-0.04 25.226,54.816 26.398,60.007 4.379,19.36 32.901,53.016 42.598,70.348 14.312,25.566 22.504,38.242 58.952,47.691 -0.858,-3.585 -2.977,-8.222 -0.905,-12.593 10.266,1.781 15.11,8.293 26.252,4.937 -0.287,-5.07 2.006,-15.133 5.866,-17.055 3.644,-1.808 8.814,4.504 10.265,0.43 2.211,-6.215 -5.027,-22.668 -6.398,-28.801 -0.426,-1.918 -0.922,-3.797 -1.477,-5.636"
       fill="#503f38"
       id="path16" />
    <path
       d="m 177.268,565.157 c 2.688,-14.176 -27.357,-37.965 -12.697,-48.832 -0.582,-1.699 -1.383,-4.07 -2.225,-5.613 -8.603,-1.805 -13.279,-11.25 -14.193,-19.379 -1.492,-13.254 -0.912,-62.793 -26.094,-47.395 -22.164,13.555 -1.652,37.536 3.299,59.399 2.205,9.73 9.416,9.918 11.158,19.801 3.35,18.976 20.227,41.23 40.682,42.293 0.029,-0.078 0.051,-0.172 0.07,-0.274"
       fill="#735e55"
       id="path18" />
    <path
       d="m 126.557,389.337 c -47.045,18.418 -48.022,42.711 -46.803,68.398 2.394,50.391 51.157,87.489 79.645,115.403 26.086,25.551 42.891,38.66 53.553,52.89 7.193,9.602 0,20.707 -5.401,26.996 6.305,0 15.295,-3.589 20.403,-6.89 3.937,7.902 4.826,17.078 10.824,22.09 -0.41,-4.125 6.781,-17.946 7.996,-21.664 5.172,7.968 5.783,15.175 14.044,17.257 0.729,-4.488 1.061,-11.148 1.049,-16.597 8.406,7.793 16.128,7.406 26.681,13.011 -3.301,-14.695 -4.246,-33.695 -3.592,-41.402 6.525,6.727 23.639,35.102 26.856,33.453 3.302,-9.086 -0.424,-26.199 18.914,-13.972 -2.362,-20.469 9.089,-31.547 13.318,-48.196 5.375,-21.183 -8.082,-37.629 -20.09,-53.355 -23.578,-30.887 -42.926,-75.508 -74.594,-99.031 -20.875,-15.512 -97.043,-58.481 -122.803,-48.391 z"
       fill-opacity="0"
       stroke="#1a1919"
       stroke-width="5.669"
       stroke-linecap="round"
       stroke-linejoin="round"
       id="path20" />
    <path
       d="m 5.957,342.532 c -1.809,-43.195 -1.387,-79.894 12.594,-114 19.744,-48.133 81.635,-94.996 135.266,-103.015 35.168,-5.258 85.658,-9.536 121.071,-2.125 48.496,10.148 96.267,34.164 125.267,73.937 16.26,22.297 27.598,55.203 33.596,87.602 5.182,25.953 48.164,90.757 78.889,141.843 20.814,34.618 43.275,97.446 36.23,149.946 -6.318,47.062 -8.974,48.976 -29.279,83.953 -18.424,31.738 -67.617,20.41 -98.815,22.914 -26.619,2.141 -68.525,-4.75 -108.822,-22.449 -24.875,-10.926 -61.02,-50.633 -78.602,-72.602 -36.301,-45.371 -31.328,-36.496 -60.008,-89.402 -9.472,-17.477 -14.086,-25.649 -26.398,-42.598 -9.586,-13.199 -23.694,-50.98 -32.399,-64.808 -10.675,68.835 -84.307,46.921 -101.395,11.996 -4.283,-8.75 -6.775,-51.141 -7.195,-61.192"
       fill="#5f4942"
       id="path22" />
    <path
       d="M 109.799,299.739 C 95.543,270.044 68.957,210.536 23.352,229.728 c -1.02,-18.641 59.019,-67.02 71.855,-80.465 12.663,-13.262 41.085,-21.125 58.612,-23.746 36.599,-5.469 77.433,-18.219 114.337,-12.188 26.095,4.266 122.4,54.008 131.999,89.996 -16.795,-32.398 -56.783,-25.031 -67.201,-14.402 -23.482,23.953 -26.023,38.664 -44.406,66.008 -18.534,27.562 -21.683,63.082 -29.993,95.992 -12.008,32.414 -36.039,33.16 -55.207,28.808 -32.972,-7.496 -63.703,-30.652 -80.074,-55.918 -4.992,-7.707 -9.482,-15.757 -13.475,-24.074"
       fill="#503f38"
       id="path24" />
    <path
       d="m 198.547,546.536 c 28.809,26.399 43.569,50.574 60.008,45.59 7.607,-2.305 18.216,-16.633 32.399,-33.594 12.813,-15.328 82.678,-22.75 87.746,-41.945 5.285,-20.031 5.367,-38.418 13.238,-58.899 4.872,-12.671 9.262,-26.687 11.778,-40.21 2.91,-15.625 7.793,-32.774 12.549,-47.879 2.453,-7.789 23.263,-66.258 23.244,-67.981 13.838,23.664 27.838,48.11 43.437,76.914 14.405,33.594 9.991,53.192 22.809,70.797 6.094,8.371 -4.524,15.981 -5.541,28.352 -1.186,14.382 -33.746,33.062 -44.108,40.519 -13.062,9.406 -20.605,14.094 -18.441,29.66 1.098,7.879 8.66,15.032 10.387,22.805 2.578,11.645 -1.285,23.813 1.625,35.863 26.304,6.211 26.459,-21.058 43.738,-29.972 11.875,-6.125 7.939,-12.75 18.938,-12.871 15.652,33.035 34.183,0.355 36.726,-13.395 1.824,15.914 -3.053,34.902 -4.678,50.027 -2.654,24.704 -10.994,44.797 -32.093,58.235 -32.717,20.832 -52.655,18.422 -91.748,23.586 -22.52,2.972 -58.493,-1.856 -78.875,-10.082 -17.336,-7 -35.86,-16.45 -51.649,-26.461 -15.148,-9.602 -38.121,-20.555 -49.813,-34.176 -10.301,-12 -37,-49.934 -41.676,-64.883"
       fill="#503f38"
       id="path26" />
    <path
       d="m 109.747,383.337 c 0.271,-4.289 8.56,-29.488 9.603,-33.609 11.658,28.898 26,39.429 34.805,69.609 8.404,28.805 12.564,35.601 22.795,51.59 7.879,12.316 11.588,23.086 34.804,50.406 -29.378,-2.41 -33.607,-16.801 -45.113,-32.457 -0.492,-10.742 -17.289,-23.945 -25.693,-50.945 -8.092,-25.993 -16.797,-46.2 -31.201,-54.594"
       fill="#503f38"
       id="path28" />
    <path
       d="m 179.356,509.337 c -12.008,-16.813 -24.004,-32.41 -36,-57.602 -5.584,-11.722 -20.232,-43.336 -30.006,-60.007 -11.318,75.054 -83.69,46.578 -96.596,-2.391 C 14.18,379.563 5.707,347.673 5.357,336.536 4.148,298.126 2.086,244.884 29.352,208.13 c 27.595,-37.203 70.834,-74.594 124.465,-82.613 35.168,-5.258 85.656,-9.532 121.071,-2.125 45.351,9.48 86.187,29.218 114.468,60.742 24.024,26.773 38.196,62.047 46.801,106.797 4.998,25.984 45.758,84.757 76.483,135.843 20.814,34.618 43.275,97.446 36.23,149.946 -6.318,47.062 -8.974,48.976 -29.279,83.953 -18.424,31.738 -67.541,24.129 -98.815,22.914 -37.416,-1.449 -63.127,-2.953 -103.423,-20.656 -24.873,-10.922 -51.763,-30.938 -70.196,-52.2 -23.407,-26.996 -34.844,-48.984 -36.002,-50.402"
       fill-opacity="0"
       stroke="#1a1919"
       stroke-width="5.669"
       stroke-linecap="round"
       stroke-linejoin="round"
       id="path30" />
    <path
       d="M 74.633,153.399 C 95.949,136.903 87.863,72.711 67.41,56.668 53.553,45.797 33.848,49.93 23.369,59.133 4.645,75.587 2.361,115.286 14.816,135.579 c 11.188,18.227 46.34,28.254 59.817,17.82"
       fill="#be9180"
       id="path32" />
    <path
       d="M 74.633,153.399 C 95.949,136.903 87.863,72.711 67.41,56.668 53.553,45.797 33.848,49.93 23.369,59.133 4.645,75.587 2.361,115.286 14.816,135.579 c 11.188,18.227 46.34,28.254 59.817,17.82 z"
       fill-opacity="0"
       stroke="#1a1919"
       stroke-width="5.669"
       stroke-linecap="round"
       stroke-linejoin="round"
       id="path34" />
    <path
       d="m 82.051,135.032 c 21.317,-16.496 -0.795,-46.453 -21.25,-62.5 -13.858,-10.867 -22.465,-5.578 -29.488,6.039 -7.637,12.617 -12.329,31.489 0.123,51.782 11.185,18.23 37.138,15.113 50.615,4.679"
       fill="#a17b6d"
       id="path36" />
    <path
       d="m 82.051,135.032 c 21.317,-16.496 -0.795,-46.453 -21.25,-62.5 -13.858,-10.867 -22.465,-5.578 -29.488,6.039 -7.637,12.617 -12.329,31.489 0.123,51.782 11.185,18.23 37.138,15.113 50.615,4.679 z"
       fill-opacity="0"
       stroke="#1a1919"
       stroke-width="5.669"
       stroke-linecap="round"
       stroke-linejoin="round"
       id="path38" />
    <path
       d="m 313.79,158.118 c -5.871,20.735 -21.404,62.547 -39.129,70.406 -3.61,7 1.207,27.657 -7.036,52.504 -6.143,18.524 -35.066,36.258 -47.693,41.418 -16.221,6.621 -59.584,-4.949 -75.012,-7.57 -21.15,-3.594 -12.416,10.586 -33.314,-15.398 C 95.551,279.524 91.793,251.579 89.057,226.47 73.855,205.411 50.49,165.114 49.852,141.47 48.887,105.743 58.906,72.485 76.426,49.215 c 19.74,-26.226 51.371,-39.144 89.518,-46.59 10.717,-2.085 5.869,4 16.889,1.782 50.046,-10.086 111.119,32.785 124.791,61.043 4.881,10.082 15.533,59.606 6.166,92.668"
       fill="#5f4942"
       id="path40" />
    <path
       d="m 167.59,98.797 c -2.484,6.282 1.805,12.087 12.727,15.274 1.574,0.457 -11.41,7.641 -24.279,0.907 -4.846,-9.274 -4.926,-7.012 -4.19,-15.595 0.494,-5.75 8.174,-11.351 8.715,-16.09 0.465,-4.085 -6.437,-11.585 -6.625,-16.558 -0.301,-8.012 4.578,-18.039 14.314,-22.457 -5.041,9.644 -5.318,14.152 -5.101,20.008 0.201,5.394 8.035,10.05 9.279,19.457 0.77,5.84 -2.496,9.129 -4.84,15.054"
       fill="#735e55"
       id="path42" />
    <path
       d="m 313.79,158.118 c -6.404,30.164 -14.266,44.856 -36.281,66.094 -7.861,56.226 -24.395,86.172 -61.032,101.957 -16.146,6.953 -41.609,11.16 -66.002,1.269 C 126.063,317.536 96.814,305.423 89.102,227.669 73.945,207.821 62.453,189.04 53.945,154.532 45.395,119.821 56.449,76.969 77.137,52.188 98.17,26.985 116.997,12.872 148.094,6.899 c 15.5,-2.973 49.367,-4.149 60.53,-2.859 49.119,5.668 85.328,33.152 99,61.41 4.881,10.082 13.307,59.059 6.166,92.668 z"
       fill-opacity="0"
       stroke="#1a1919"
       stroke-width="5.669"
       stroke-linecap="round"
       stroke-linejoin="round"
       id="path44" />
    <path
       d="m 179.698,233.005 c -18.381,12.039 -10.602,-4.699 -29.764,-9.945 -16.184,-4.434 -25.09,3.562 -33.992,-9.036 -10.709,-15.16 -29.024,-42.461 -28.454,-62.242 0.783,-27.156 8.549,-27.586 19.014,-36.746 6.424,-5.625 9.178,-4.844 21.416,-5.301 14.379,-0.535 27.34,8.571 36.336,8.239 9.891,-0.371 25.67,-8.012 31.125,-10.758 14.133,-7.114 23.211,-8.641 39.409,2.113 16.966,11.274 20.232,22.75 18.562,46.113 -1.182,16.481 -16.303,45.657 -23.191,54.309 -7.373,9.266 2.693,6.437 -4.842,14.977 -1.879,2.132 -43.201,6.695 -45.619,8.277"
       fill="#be9180"
       id="path46" />
    <path
       d="m 118.698,213.177 c -6.834,4.363 -21.507,-19.528 -21.852,-24.547 9.004,6.305 19.803,6.305 24.311,3.605 7.324,-4.39 10.801,-8.101 23.394,-13.5 14.379,-0.539 25.114,6.172 34.11,5.836 9.886,-0.371 16.297,-2.242 14.043,-8.535 27.902,7.195 38.242,15.293 54.816,2.563 1.92,9.679 -15.285,29.488 -22.865,33.425 -9.674,5.024 -9.416,-9.894 -19.844,-9.894 -21.078,0 -79.853,7.047 -86.113,11.047"
       fill="#ae8373"
       id="path48" />
    <path
       d="m 179.698,233.005 c -18.381,12.039 -10.602,-4.699 -29.764,-9.945 -16.184,-4.434 -25.09,3.562 -33.992,-9.036 -10.709,-15.16 -23.59,-28.082 -28.991,-51.488 -4.623,-20.035 2.787,-32.379 11.627,-42.707 10.352,-12.094 32.807,-13.828 47.469,-7.18 7.209,3.274 25.797,6.063 37.805,-0.507 19.418,-10.629 34.354,-12.688 50.305,-3.68 13.738,7.769 23.32,25.957 21.646,49.328 -1.177,16.481 -18.789,42.652 -31.697,58.758 -7.408,9.242 8.746,-0.36 1.211,8.18 -1.879,2.132 -43.201,6.695 -45.619,8.277 z"
       fill-opacity="0"
       stroke="#1a1919"
       stroke-width="5.669"
       stroke-linecap="round"
       stroke-linejoin="round"
       id="path50" />
    <path
       d="m 133.524,131.142 c 12.078,1.941 6.965,17.875 -1.543,14.914 -8.637,-3.004 -6.195,-16.164 1.543,-14.914"
       fill="#1a1919"
       id="path52" />
    <path
       d="m 207.915,129.556 c 13.546,-1.891 10.308,18.168 0.929,16.058 -8.976,-2.019 -8.992,-14.929 -0.929,-16.058"
       fill="#1a1919"
       id="path54" />
    <path
       d="m 155.063,176.38 c -20.852,5.855 -39.234,30.555 -43.289,46.84 -2.758,11.078 -6.119,43.726 -4.227,55.234 4.661,28.328 23.682,48.254 45.635,57.293 10.955,3.981 40.33,2.691 60.981,-7.086 16.517,-7.816 16.498,-11.164 24.923,-24.707 8.86,-14.234 11.76,-39.152 9.36,-55.488 -2.055,-13.961 -7.612,-29.363 -15.682,-41.281 -4.545,-6.711 -14.193,-18.379 -30.15,-27.645"
       fill="#be9180"
       id="path56" />
    <path
       d="m 147.95,179.114 c -15.942,7.168 -30.332,28.27 -36.176,44.106 -3.949,10.711 -8.566,35.668 -4.227,55.234 6.225,28.07 17.555,44.875 39.504,53.918 10.957,3.973 38.114,9.418 59.502,1.379 10.656,-4.004 26.045,-11.77 34.471,-25.313 8.859,-14.234 9.822,-43.636 7.422,-59.972 -2.055,-13.961 -9.268,-28.918 -17.332,-40.828 -4.551,-6.715 -25.578,-26.965 -46.067,-32.95 m -60.896,83.844 c 21.598,48 87.484,30.449 100.346,-7.465"
       fill-opacity="0"
       stroke="#1a1919"
       stroke-width="5.669"
       stroke-linecap="round"
       stroke-linejoin="round"
       id="path58" />
    <path
       d="m 274.796,79.012 c 14.482,1.922 26.041,22.051 26.35,30.259 0.394,10.488 -0.368,33.675 9.511,38.054 21.34,9.465 39.016,-17.594 43.141,-26.875 14.129,-31.778 1.119,-66.637 -20.024,-78.176 -17.011,-9.281 -56.164,-7.797 -58.978,36.738"
       fill="#be9180"
       id="path60" />
    <path
       d="m 274.796,79.012 c 14.482,1.922 26.041,22.051 26.35,30.259 0.394,10.488 -0.368,33.675 9.511,38.054 21.34,9.465 39.016,-17.594 43.141,-26.875 14.129,-31.778 1.119,-66.637 -20.024,-78.176 -17.011,-9.281 -56.164,-7.797 -58.978,36.738 z"
       fill-opacity="0"
       stroke="#1a1919"
       stroke-width="5.669"
       stroke-linecap="round"
       stroke-linejoin="round"
       id="path62" />
    <path
       d="m 284.817,81.919 c 7.543,8.765 14.606,26.699 15.397,34.879 0.978,10.172 2.256,20.336 12.752,19.148 10.758,-1.218 23.84,-13.941 27.941,-23.234 6.641,-15.043 2.057,-41.188 -19.086,-52.727 -17.015,-9.285 -28.773,1.086 -37.004,21.934"
       fill="#a17b6d"
       id="path64" />
    <path
       d="m 284.817,81.919 c 7.543,8.765 14.606,26.699 15.397,34.879 0.978,10.172 2.256,20.336 12.752,19.148 10.758,-1.218 23.84,-13.941 27.941,-23.234 6.641,-15.043 2.057,-41.188 -19.086,-52.727 -17.015,-9.285 -28.773,1.086 -37.004,21.934 z"
       fill-opacity="0"
       stroke="#1a1919"
       stroke-width="5.669"
       stroke-linecap="round"
       stroke-linejoin="round"
       id="path66" />
    <path
       d="m 108.551,409.735 c 4.385,-27.179 4.774,-35.16 1.137,-65.164"
       fill="#745a51"
       id="path68" />
    <path
       d="m 108.551,409.735 c 4.385,-27.179 4.774,-35.16 1.137,-65.164"
       fill-opacity="0"
       stroke="#1a1919"
       stroke-width="5.669"
       stroke-linecap="round"
       stroke-linejoin="round"
       id="path70" />
    <g
       id="g76">
      <path
         d="m 534.944,734.892 c -13.359,8.015 -27.931,14.222 -35.007,22.003 -13.331,14.661 -23.584,41.153 -25.995,58.989 -2.648,19.562 -6,23.008 -13.004,22.008 -9.722,-1.399 -12.988,-13.024 -9.988,-32.008 -11.01,19 -8.752,51.672 -24.013,48.008 -10.319,-2.477 -10.331,-10.344 -6,-32.008 -7.995,27 -16.995,33.015 -22.995,29.008 -5.998,-2.008 -11.945,-7.207 -6.849,-25.707 -3.887,12.125 -17.742,24.472 -28.156,16.707 -15.665,-11.672 17.673,-67.664 33.173,-87.321 -10.882,-3.164 -20.16,5.742 -25.953,19.981 -7.449,18.304 -15.539,43.808 -34.531,30.687 -20.031,-13.832 1.797,-40.316 17.807,-55.711 17,-16.351 31.996,-29.761 43.029,-46.582 17.422,-26.547 44.959,-44.336 75.486,-52.062 13.938,-3.535 21.981,2.414 34.992,8.008 20.704,8.898 43.694,26.402 44.998,42 1.004,11.996 -1.996,25 -16.994,34"
         fill="#be9180"
         id="path72" />
      <path
         d="m 534.944,734.892 c -13.359,8.015 -27.931,14.222 -35.007,22.003 -13.331,14.661 -23.584,41.153 -25.995,58.989 -2.648,19.562 -6,23.008 -13.004,22.008 -9.722,-1.399 -12.988,-13.024 -9.988,-32.008 -11.01,19 -8.752,51.672 -24.013,48.008 -10.319,-2.477 -10.331,-10.344 -6,-32.008 -7.995,27 -16.995,33.015 -22.995,29.008 -5.998,-2.008 -11.945,-7.207 -6.849,-25.707 -3.887,12.125 -17.742,24.472 -28.156,16.707 -15.665,-11.672 17.673,-67.664 33.173,-87.321 -10.882,-3.164 -20.16,5.742 -25.953,19.981 -7.449,18.304 -15.539,43.808 -34.531,30.687 -20.031,-13.832 1.797,-40.316 17.807,-55.711 17,-16.351 31.996,-29.761 43.029,-46.582 17.422,-26.547 44.959,-44.336 75.486,-52.062 13.938,-3.535 21.981,2.414 34.992,8.008 20.704,8.898 43.694,26.402 44.998,42 1.004,11.996 -1.996,25 -16.994,34 z"
         fill-opacity="0"
         stroke="#1a1919"
         stroke-width="5.669"
         stroke-linecap="round"
         stroke-linejoin="round"
         id="path74" />
    </g>
    <path
       d="m 390.185,826.626 c 4.246,-11.727 10.105,-29.344 18.091,-45.816"
       fill="#745a51"
       id="path78" />
    <path
       d="m 390.185,826.626 c 4.246,-11.727 10.105,-29.344 18.091,-45.816"
       fill-opacity="0"
       stroke="#1a1919"
       stroke-width="5.669"
       stroke-linecap="round"
       stroke-linejoin="round"
       id="path80" />
    <path
       d="m 419.437,828.395 c 0.511,-5.456 10.361,-33.171 14.095,-39.386"
       fill="#745a51"
       id="path82" />
    <path
       d="m 419.437,828.395 c 0.511,-5.456 10.361,-33.171 14.095,-39.386"
       fill-opacity="0"
       stroke="#1a1919"
       stroke-width="5.669"
       stroke-linecap="round"
       stroke-linejoin="round"
       id="path84" />
    <path
       d="m 448.94,818.884 c -1.005,-10 5.584,-19.785 10.004,-31.992"
       fill="#745a51"
       id="path86" />
    <path
       d="m 448.94,818.884 c -1.005,-10 5.584,-19.785 10.004,-31.992"
       fill-opacity="0"
       stroke="#1a1919"
       stroke-width="5.669"
       stroke-linecap="round"
       stroke-linejoin="round"
       id="path88" />
    <path
       d="m 145.157,770.946 c -0.584,-0.414 -8.973,-8.64 -9.528,-9.175 20.926,21.773 33.782,23.183 40.729,19.976 7.807,-3.605 9.49,-17.617 2.01,-28.078 -2.637,-3.691 -7.344,-7.887 -15.223,-12.52 -32.527,-19.125 -24.961,-42.039 -41.559,-66.504 -9.496,-13.972 -21.054,-4.867 -35.69,-3.093 -12.298,1.488 -27.261,2.031 -38.009,8.906 -11.739,7.504 -9.864,19.754 -10.742,32.715 -2.356,34.851 -4.805,32.285 -1.985,66.836 1.518,18.558 14.047,33.347 34.785,42.219 21.852,9.343 59.45,17.691 77.618,0.921 7.793,-7.195 17.395,-17.406 13.793,-31.199 -3.629,-13.887 -3.604,-11.996 -16.199,-21.004"
       fill="#be9180"
       id="path90" />
    <path
       d="m 145.157,770.946 c -0.584,-0.414 -8.973,-8.64 -9.528,-9.175 20.926,21.773 33.782,23.183 40.729,19.976 7.807,-3.605 9.49,-17.617 2.01,-28.078 -2.637,-3.691 -7.344,-7.887 -15.223,-12.52 -32.527,-19.125 -24.961,-42.039 -41.559,-66.504 -9.496,-13.972 -21.054,-4.867 -35.69,-3.093 -12.298,1.488 -27.261,2.031 -38.009,8.906 -11.739,7.504 -9.864,19.754 -10.742,32.715 -2.356,34.851 -4.805,32.285 -1.985,66.836 1.518,18.558 14.047,33.347 34.785,42.219 21.852,9.343 59.45,17.691 77.618,0.921 7.793,-7.195 17.395,-17.406 13.793,-31.199 -3.629,-13.887 -3.604,-11.996 -16.199,-21.004 z m -11.996,-44.39 c -0.668,11.894 -0.598,36.597 5.882,69.871"
       fill-opacity="0"
       stroke="#1a1919"
       stroke-width="5.669"
       stroke-linecap="round"
       stroke-linejoin="round"
       id="path92" />
    <path
       d="m 122.973,433.142 c -1.859,26.964 2.481,55.859 0.297,86.711 -1.357,19.183 -2.021,41.414 -0.91,50.097 3.527,27.489 3.32,26.52 4.301,54.348 0.785,22.391 2.377,47.945 6.345,73.617 -7.875,-9.656 -11.263,-3.902 -15.447,-15.172 -3.484,5.184 -6.117,16.988 -8.404,20.406 -4.801,-2.394 -6.473,-1.195 -10.35,-20.761 -4.717,0.746 -19.02,21.468 -21.879,24.824 -0.789,-6.567 4.242,-22.324 3.719,-28.953 -7.704,6.222 -15.28,21.617 -19.625,21.148 -2.52,-0.269 -1.219,-18.316 -5.336,-14.215 -5.291,5.274 -10.676,9.45 -17.325,19.153 C 36.152,679.915 27.238,600.29 19.77,560.337 14.93,534.442 13.816,508.79 11.484,482.704 7.75,440.938 0.312,389.806 4.148,349.728 c 2.524,-26.422 -2.382,-51.274 9.321,-79.176 2.363,-5.637 97.082,26.551 102.301,63 4.811,33.597 10.809,47.39 7.203,99.59"
       fill="#5f4942"
       id="path94" />
    <path
       d="m 121.168,410.942 c 0.61,31.801 2.666,68.09 0.208,89.246 -1.618,13.922 -2.639,27.344 -2.989,41.235 -0.191,7.582 -9.316,77.117 -6.82,78.324 -12.547,-6.062 -14.979,-24.812 -15.813,-37.098 -1.529,1.278 -5.291,2.762 -6.844,4.735 6.207,-32.899 20.643,-68.344 18.102,-102.844 -0.465,-6.328 -4.715,-12.055 -5.113,-18.129 -0.328,-4.98 2.932,-8.926 2.209,-13.723 -1.225,-8.121 -3.34,-5.742 -6.946,-14.132 2.414,-7.039 11.581,-9.063 11.999,-18.008 0.134,-2.903 -7.832,-11.961 -8.289,-14.996 -1.059,-7.031 -0.305,-14.934 0.07,-22.008 0.055,-1.047 20.086,20.082 20.226,27.398"
       fill="#735e55"
       id="path96" />
    <path
       d="m 114.583,338.341 c 10.187,59.394 9.539,185.554 8.976,212.406 -0.617,29.395 2.121,45.723 3.102,73.551 0.785,22.391 2.377,47.945 6.345,73.617 -8.252,-1.965 -11.263,-5.102 -15.447,-16.367 -5.57,8.289 -5.992,16.508 -10.5,22.797 -3.037,-0.524 -5.816,-9.66 -8.254,-21.957 -4.717,0.746 -19.02,21.468 -21.879,24.824 -0.789,-6.567 4.242,-22.324 3.719,-28.953 -7.704,6.222 -15.28,21.617 -19.625,21.148 -2.52,-0.269 -1.219,-18.316 -5.336,-14.215 -5.291,5.274 -10.676,13.653 -17.325,23.356 C 36.152,684.118 32.043,663.712 30.57,637.142 29.371,615.544 15.914,525.212 13.176,499.157 8.949,458.931 2.973,413.056 2.973,367.149 c 0,-27.238 -1.219,-58.226 3.582,-99.015"
       fill-opacity="0"
       stroke="#1a1919"
       stroke-width="5.669"
       stroke-linecap="round"
       stroke-linejoin="round"
       id="path98" />
    <path
       d="m 510.751,608.407 c -0.221,-29.265 8.707,-51.383 -1.152,-79.215 -8.995,-25.375 2.175,-45.476 -0.602,-73.941 -2.133,-21.883 -11.68,-34.52 -30.277,-46.773 -31.922,-21.024 -92.336,-34.383 -121.395,-1.485 -34.562,39.129 -13.918,113.727 11.113,152.703 16.579,25.809 30.481,50.703 41.057,72.164 9.512,19.305 13.44,36.563 -3.014,54.297 12.256,1.418 17.329,-6.597 25.639,-11.812 -0.017,5.554 0.959,11.98 2.654,16.988 5.133,-7.117 9.024,-16.051 13.422,-23.992 0.844,6.488 8.555,18.008 12.823,23.812 2.111,2.868 3.877,5.141 6.996,6.797 -0.321,-6.527 0.152,-14.887 4.759,-19.902 7.293,8.976 17.319,17.683 27.645,23.203 4.848,-9.227 -8.748,-23.356 -0.07,-32.414 4.486,8.742 26.906,10.461 31.207,4.894 -10.2,-6.597 -18.063,-16.55 -18.606,-21 -1.922,-15.699 -2.08,-28.472 -2.199,-44.324"
       fill="#5f4942"
       id="path100" />
    <path
       d="m 435.935,558.431 c -0.465,-11.36 -6.282,-23.922 -10.493,-34.61 2.622,0.703 5.36,-0.273 8.129,0.723 2.512,-14.215 -11.496,-29.676 -11.945,-44.766 -0.238,-8.105 6.32,-19.629 4.93,-26.847 -3.209,-16.664 -20.231,-27.328 -15.317,-44.106 -13.093,-17.762 -22.572,11.371 -29.797,17.082 -9.515,7.516 -15.205,9.274 -19.115,18.731 -7.494,18.136 7.311,36.867 7.637,54.851 0.291,15.903 -7.545,29.731 8.646,42.028 1.5,-6.735 5.121,-12.895 13.657,-11.27 6.802,1.293 5.054,39.285 22.076,42.527 0.637,-18.234 6.029,-17.433 21.592,-14.343"
       fill="#735e55"
       id="path102" />
    <path
       d="m 504.292,435.724 c -15.334,-21.188 -48.551,-48.09 -83.732,-52.387 -25.668,-3.137 -48.551,7.031 -63.235,23.656 -34.562,39.129 -13.918,113.727 11.113,152.703 16.579,25.809 25.942,49.379 36.52,70.836 9.512,19.309 16.215,38.863 4.844,56.102 12.254,1.418 14.008,-7.074 22.318,-12.289 -0.017,5.554 0.959,11.98 2.654,16.988 5.133,-7.117 9.024,-16.051 13.422,-23.992 0.844,6.488 8.555,18.008 12.823,23.812 2.111,2.868 3.877,5.141 6.996,6.797 -0.321,-6.527 0.152,-14.887 4.759,-19.902 7.293,8.976 17.319,17.683 27.645,23.203 4.848,-9.227 -8.748,-23.356 -0.07,-32.414 9.609,7.891 24.591,6.047 31.595,2.055 -5.398,-3.602 -14.779,-9.039 -15.99,-13.36 -4.199,-15 -5.084,-33.273 -5.203,-49.125 -0.182,-24.015 8.563,-75.968 -11.781,-106.429"
       fill-opacity="0"
       stroke="#1a1919"
       stroke-width="5.669"
       stroke-linecap="round"
       stroke-linejoin="round"
       id="path104" />
    <path
       d="m 247.903,778.028 c 0.406,-0.582 -1.164,1.621 -0.59,1.114 -18.48,16.07 -29.279,14.261 -34.68,7.968 -0.74,-0.859 -8.265,-12.511 -0.351,-22.656 2.783,-3.57 7.666,-7.562 15.722,-11.859 33.307,-17.75 34.203,-51.203 51.813,-74.946 10.073,-13.562 13.743,6.25 28.293,8.641 12.219,2.004 27.153,3.172 37.602,10.492 11.416,7.992 9.027,20.149 9.363,33.133 0.891,34.93 1.535,45.641 -5.66,77.539 -4.098,18.164 -23.592,30.805 -46.135,33.438 -23.595,2.75 -53.627,1.863 -68.901,-17.579 -8.867,-11.285 -7.234,-20.062 0.981,-31.656 8.705,-12.277 8.754,-8.211 12.543,-13.629"
       fill="#be9180"
       id="path106" />
    <path
       d="m 247.903,778.028 c 0.406,-0.582 -1.164,1.621 -0.59,1.114 -18.48,16.07 -29.279,14.261 -34.68,7.968 -0.74,-0.859 -8.265,-12.511 -0.351,-22.656 2.783,-3.57 7.666,-7.562 15.722,-11.859 33.307,-17.75 34.203,-51.203 51.813,-74.946 10.073,-13.562 13.743,6.25 28.293,8.641 12.219,2.004 27.153,3.172 37.602,10.492 11.416,7.992 9.027,20.149 9.363,33.133 0.891,34.93 1.535,45.641 -5.66,77.539 -4.098,18.164 -23.592,30.805 -46.135,33.438 -23.595,2.75 -53.627,1.863 -68.901,-17.579 -8.867,-11.285 -7.234,-20.062 0.981,-31.656 8.705,-12.277 8.754,-8.211 12.543,-13.629 z m 8.699,-30.738 c -8.652,26.996 -8.684,42.328 -6.992,60.289"
       fill-opacity="0"
       stroke="#1a1919"
       stroke-width="5.669"
       stroke-linecap="round"
       stroke-linejoin="round"
       id="path108" />
    <path
       d="m 432.554,383.935 c 0.47,-33.028 2.215,-88.786 -10.799,-118.805 -9.608,-22.172 -53.504,-34.285 -83.625,-24.938 -15.016,4.661 -20.758,20.653 -27.711,31.731 -28.807,45.914 -32.344,75.078 -27.59,129.98 4.067,47.02 3.279,94.379 1.945,141.903 -0.769,27.41 -11.453,77.945 -14.102,105.304 -1.432,14.813 -3.824,27.375 -5.182,42.024 -1.146,12.344 -4.26,22.179 -6.96,31.168 7.197,-5.399 15.405,-13.922 26.461,-21.481 -0.006,6.985 0.041,14.098 0.522,21.012 6.304,-1.074 13.797,-7.23 19.898,-10.625 -0.051,6.125 1.969,13.383 6.422,17.699 6.93,-6.777 9.918,-13.922 14.852,-21.832 4.724,6.836 5.515,15.301 7.623,23.215 3.771,-1.504 5.353,-6.031 8.646,-8.793 1.918,7.723 5.822,13.481 11.758,18.504 5.707,-20.91 9.832,-43.07 13.621,-64.5 9.988,-56.512 17.309,-82.797 30.602,-138.594 12.384,-51.992 32.816,-96.808 33.619,-152.972"
       fill="#5f4942"
       id="path110" />
    <path
       d="m 300.601,396.423 c -24.303,15.058 -19.983,29.578 -18.668,54.805 1.302,25.125 -2.676,61.765 -1.778,86.902 0.237,6.598 -1.638,68.785 -2.431,69.004 2.619,-0.711 18.246,-15.418 12.207,-16.02 3.539,0.356 13.617,7.996 16.623,10.614 -5.043,-14.118 -0.873,-37.024 -1.198,-51.602 -0.312,-14.109 -3.935,-27.379 -2.002,-40.891 0.999,-6.937 4.415,-14.75 1.842,-21.777 -2.609,-7.129 -8.875,-8.762 -9.297,-17.16 -0.816,-16.211 9.403,-33.09 6.622,-50.293 -1.418,0.004 -3.024,-0.277 -4.442,-0.27 -0.861,-7.91 1.317,-15.64 2.522,-23.312"
       fill="#735e55"
       id="path112" />
    <path
       d="m 277.937,331.56 c 6,40.789 4.031,75.148 3.988,124.351 -0.031,38.481 -2.744,70.625 -3.592,100.801 -0.768,27.406 -5.012,65.039 -7.661,92.398 -1.432,14.813 -6.539,56.676 -5.182,42.024 0.547,-5.891 -4.26,23.976 -6.056,31.168 8.099,-4.492 14.501,-13.922 25.557,-21.481 -0.006,6.985 0.041,14.098 0.522,21.012 6.304,-1.074 13.797,-7.23 19.898,-10.625 -0.051,6.125 1.969,13.383 6.422,17.699 4.367,-4.269 9.844,-23.523 15.098,-23.707 6.547,6.035 7.195,20.707 9.134,28.688 4.049,-3.793 7.913,-19.524 8.547,-25.004 -0.759,6.555 5.455,26.019 10.094,30.144 1.904,-27.472 10.281,-52.215 15.234,-74.136 9.34,-41.332 13.893,-50.59 27.186,-106.383 12.385,-51.992 34.625,-138.215 35.428,-194.379 0.496,-34.82 8.392,-102.008 -24.629,-153.02"
       fill-opacity="0"
       stroke="#1a1919"
       stroke-width="5.669"
       stroke-linecap="round"
       stroke-linejoin="round"
       id="path114" />
    <path
       d="m 146.493,201.364 c 2.133,-0.41 4.492,-2.582 6.16,-1.933 7.004,2.714 12.236,13.058 8.543,15.75 -4.942,3.605 -12.047,0.882 -14.25,-2.25 -3.156,-4.5 -1.016,-7.149 -0.453,-11.567"
       fill="#c09b92"
       id="path116" />
    <path
       d="m 191.399,198.489 c 4.84,2.203 4.457,5.692 0.859,10.391 -2.769,3.613 -7.882,9.773 -11.258,5.398 -3.824,-4.953 2.079,-19.578 10.399,-15.789"
       fill="#c09b92"
       id="path118" />
    <path
       d="m 146.172,203.856 c 5.575,-11.621 12.102,0.274 15.024,9.52 m 18.453,-0.895 c -1.295,-7.164 4.162,-18.691 13.957,-13.496"
       fill-opacity="0"
       stroke="#1a1919"
       stroke-width="5.669"
       stroke-linecap="round"
       stroke-linejoin="round"
       id="path120" />
  </g>
</svg>
