<?xml version="1.0"?>
<svg xmlns:rdf="http://www.w3.org/1999/02/22-rdf-syntax-ns#" xmlns="http://www.w3.org/2000/svg" xmlns:cc="http://creativecommons.org/ns#" xmlns:xlink="http://www.w3.org/1999/xlink" xmlns:dc="http://purl.org/dc/elements/1.1/" xmlns:svg="http://www.w3.org/2000/svg" id="svg1065" space="preserve" viewBox="0 0 593.97 455.24" version="1.0">
  <defs id="defs1067">
    <linearGradient id="linearGradient660">
      <stop id="stop661" stop-color="#5a3a00" offset="0"/>
      <stop id="stop662" stop-color="#b55700" offset="1"/>
    </linearGradient>
    <linearGradient id="linearGradient618">
      <stop id="stop619" stop-color="#002fff" offset="0"/>
      <stop id="stop620" stop-color="#00d2ff" offset="1"/>
    </linearGradient>
    <linearGradient id="linearGradient613" y2="460.68" gradientUnits="userSpaceOnUse" y1="291.65" gradientTransform="matrix(1.091 0 0 .91661 -38.419 -255.59)" x2="620.1" x1="104.97">
      <stop id="stop611" stop-color="#666767" offset="0"/>
      <stop id="stop612" stop-color="#f3f2f2" offset="1"/>
    </linearGradient>
    <linearGradient id="linearGradient617" y2="612.43" xlink:href="#linearGradient618" gradientUnits="userSpaceOnUse" y1="612.43" gradientTransform="matrix(.91673 .018102 -.021531 1.0904 -38.419 -255.59)" x2="94.861" x1="56.805"/>
    <radialGradient id="radialGradient621" xlink:href="#linearGradient618" gradientUnits="userSpaceOnUse" cy="84.237" cx="647.54" gradientTransform="matrix(.50079 .64575 -.967 .74993 -38.419 -255.59)" r="314.27"/>
    <linearGradient id="linearGradient659" y2="697.01" xlink:href="#linearGradient660" gradientUnits="userSpaceOnUse" y1="697.01" gradientTransform="matrix(1.055 0 0 .94789 -38.419 -255.59)" x2="69.677" x1="43.973"/>
    <linearGradient id="linearGradient2438" y2="501.87" xlink:href="#linearGradient660" gradientUnits="userSpaceOnUse" x2="148.67" gradientTransform="matrix(.79672 0 0 1.2551 -38.419 -255.59)" y1="501.87" x1="102.1"/>
    <linearGradient id="linearGradient2440" y2="486.52" xlink:href="#linearGradient660" gradientUnits="userSpaceOnUse" x2="214.43" gradientTransform="matrix(.81174 0 0 1.2319 -38.419 -255.59)" y1="486.52" x1="180.74"/>
    <linearGradient id="linearGradient2442" y2="484.7" xlink:href="#linearGradient660" gradientUnits="userSpaceOnUse" x2="200.81" gradientTransform="matrix(.80823 0 0 1.2373 -38.419 -255.59)" y1="484.7" x1="154.63"/>
    <linearGradient id="linearGradient2444" y2="509.15" xlink:href="#linearGradient660" gradientUnits="userSpaceOnUse" x2="122.02" gradientTransform="matrix(.78881 0 0 1.2677 -38.419 -255.59)" y1="509.15" x1="74.655"/>
    <linearGradient id="linearGradient2446" y2="493.01" xlink:href="#linearGradient660" gradientUnits="userSpaceOnUse" x2="174.81" gradientTransform="matrix(.80186 0 0 1.2471 -38.419 -255.59)" y1="493.01" x1="128.54"/>
  </defs>
  <path id="path609" d="m348.17 51.161c-87.26 46.593-105.35 133.94-86.89 179.35-45.01-56.5 0.7-149.93 93.8-200.7 87.26-46.587 230.62-38.721 230.54 68.718-30.16-97.187-150.2-93.96-237.45-47.367z" fill="#808080" fill-rule="evenodd"/>
  <path id="path1074" d="m573.91 51.156c33.99 57.814-9.81 142.89-97.84 190.03s-186.95 38.49-220.95-19.33c-34-57.81 9.81-142.9 97.84-190.04 88.03-47.134 186.95-38.479 220.95 19.336zm12.08 14.801c24.9 71.333-8.19 143.95-103.19 197.27-95.01 53.31-166.3 47.49-222.16-5.3-53.35-50.47-16.42-171.22 86.86-226.9 95-53.308 212.73-35.53 238.49 34.927z" fill="url(#linearGradient613)" fill-rule="evenodd"/>
  <path id="path1070" d="m241.57 157.49c-24.36 78.49-71.81 126.12-152.34 207.45 18.63-25.69 41.99 6.5 31.09 18.61 95.89-50.62 206.64-76.08 289.73-90.14-8.07-11.36-8.63-21.04 1.67-27.38-26.27 6.83-75.87 10.02-109.43-4.6-6.75 2.29-10.53 11.21-9.86 18.7 5.46 4.27 5.71 9.04-19.92 15.22-42.25 13.07-76.13 23.42-114.99 40.45-3.53 1.02-7.41-0.31-5.52-2.37 29.37-33.06 55.16-63.26 67.47-80.19 6.16-8.47 16.2-14.46 31.71-7.12-5.86-7.86-6.55-17.08 7.04-21.05-5.51-32.32-3.19-39.83-1.32-52.24 0.66-13.16-6.21-18.57-15.33-15.34z" fill="url(#radialGradient621)" fill-rule="evenodd"/>
  <path id="path614" d="m133.53 355.6c-4.03-7.14-22.09-13.91-25.26-11.23l-101.11 69.97c-2.6129 1.97-6.94 8.62-1.5787 6.15 5.1817-0.87 17.758 1.58 21.053 6.71 4.171 7.15 4.39 22.19 1.07 26.57l102.92-74.17c0.7-0.7 2.1-1.57 2.31-2.69 4.05-5.73 2.28-18.75 0.6-21.31z" fill="#808080" fill-rule="evenodd"/>
  <path id="path616" d="m12.365 414.07c-5.8479-3-11.937 5.05-12.094 11.62l-0.26793 11.16c-0.15759 6.57 5.778 9.1 11.626 12.1l11.012 5.64c5.848 3 11.937-5.05 12.094-11.62l0.268-11.16c0.158-6.57-5.778-9.1-11.626-12.1l-11.012-5.64z" fill="url(#linearGradient617)" fill-rule="evenodd"/>
  <path id="path622" d="m253.55 174.12l229.38-160.27" stroke="#000" stroke-width="1pt" fill="none"/>
  <path id="path623" d="m251.16 191.17l251.71-175.62" stroke="#000" stroke-width="1pt" fill="none"/>
  <path id="path624" d="m253.45 206.52l262.27-185.89" stroke="#000" stroke-width="1pt" fill="none"/>
  <path id="path625" d="m256.84 220.29l274.24-193.38" stroke="#000" stroke-width="1pt" fill="none"/>
  <path id="path626" d="m263.62 232.75l280.42-199.06" stroke="#000" stroke-width="1pt" fill="none"/>
  <path id="path627" d="m273.08 241.82l282.72-199.66" stroke="#000" stroke-width="1pt" fill="none"/>
  <path id="path628" d="m284.24 250.29l278.93-197.46" stroke="#000" stroke-width="1pt" fill="none"/>
  <path id="path629" d="m297.39 256.87l273.76-193.28" stroke="#000" stroke-width="1pt" fill="none"/>
  <path id="path630" d="m310.64 263.85l267.39-187.9" stroke="#000" stroke-width="1pt" fill="none"/>
  <path id="path631" d="m327.07 268.54l254.74-178.43" stroke="#000" stroke-width="1pt" fill="none"/>
  <path id="path632" d="m347.51 270.34l236.6-166.49" stroke="#000" stroke-width="1pt" fill="none"/>
  <path id="path633" d="m255.85 156.88l204.34-142.93" stroke="#000" stroke-width="1pt" fill="none"/>
  <path id="path635" d="m369.6 271.32l211.49-149.18" stroke="#000" stroke-width="1pt" fill="none"/>
  <path id="path636" d="m311.52 68.926l194.88 152.09" stroke="#000" stroke-width="1pt" fill="none"/>
  <path id="path637" d="m302.62 77.823l193.19 151.25" stroke="#000" stroke-width="1pt" fill="none"/>
  <path id="path638" d="m293.3 86.296l191.07 149.55" stroke="#000" stroke-width="1pt" fill="none"/>
  <path id="path639" d="m285.68 95.617l187.68 147.43" stroke="#000" stroke-width="1pt" fill="none"/>
  <path id="path640" d="m278.48 105.36l182.59 143.62" stroke="#000" stroke-width="1pt" fill="none"/>
  <path id="path641" d="m272.97 115.95l173.27 138.11" stroke="#000" stroke-width="1pt" fill="none"/>
  <path id="path642" d="m266.61 126.54l166.5 133.88" stroke="#000" stroke-width="1pt" fill="none"/>
  <path id="path643" d="m260.68 139.68l155.91 124.55" stroke="#000" stroke-width="1pt" fill="none"/>
  <path id="path644" d="m322.54 60.453l193.61 152.52" stroke="#000" stroke-width="1pt" fill="none"/>
  <path id="path645" d="m333.55 52.827l193.19 151.67" stroke="#000" stroke-width="1pt" fill="none"/>
  <path id="path646" d="m345.84 45.625l190.64 149.56" stroke="#000" stroke-width="1pt" fill="none"/>
  <path id="path647" d="m358.55 38.846l185.98 146.58" stroke="#000" stroke-width="1pt" fill="none"/>
  <path id="path648" d="m372.1 32.915l180.91 142.78" stroke="#000" stroke-width="1pt" fill="none"/>
  <path id="path649" d="m385.66 26.984l174.97 138.12" stroke="#000" stroke-width="1pt" fill="none"/>
  <path id="path650" d="m399.22 21.9l168.19 132.18" stroke="#000" stroke-width="1pt" fill="none"/>
  <path id="path651" d="m416.59 18.511l156.75 123.29" stroke="#000" stroke-width="1pt" fill="none"/>
  <path id="path652" d="m433.96 15.122l144.89 114.39" stroke="#000" stroke-width="1pt" fill="none"/>
  <path id="path653" d="m458.95 14.698l123.71 96.592" stroke="#000" stroke-width="1pt" fill="none"/>
  <path id="path654" d="m259.84 139.25l173.69-123.7" stroke="#000" stroke-width="1pt" fill="none"/>
  <path id="path655" d="m400.2 268.04l172.22-123.07" stroke="#000" stroke-width="1pt" fill="none"/>
  <path id="path663" d="m64.829 374.51l-21.906 15.12c2.789-1.55 11.536 16.57 13.028 19.92 1.012 3.17 2.912 22.09 0.617 23.22l22.815-16.52c1.271-1.83 0.486-18.21-0.873-21.53-1.65-3.08-10.856-22.47-13.681-20.21z" fill="url(#linearGradient2438)" fill-rule="evenodd"/>
  <path id="path669" d="m108.29 344.03c2.79-0.28 12.26 15.57 13.75 18.91 1.01 3.18 2.61 21.2 0.32 22.33l8.71-6.1c6.05-3.58 5.04-21.14 2.94-24.28-1.61-3.01-18.71-12.86-25.72-10.86z" fill="url(#linearGradient2440)" fill-rule="evenodd"/>
  <path id="path670" d="m107.74 344.3l-21.18 15.25c2.789-1.55 11.96 15.72 13.45 19.07 1.01 3.17 2.61 21.5 0.32 22.63l22.81-16.52c1.28-1.84 0.79-17.61-0.57-20.94-1.65-3.08-12-21.75-14.83-19.49z" fill="url(#linearGradient2442)" fill-rule="evenodd"/>
  <path id="path671" d="m43.347 390.06l-22.878 15.25c2.789-1.55 12.409 18.49 13.901 21.83 1.012 3.18 0.665 21.65-1.63 22.78l24.164-17.42c1.271-1.84 1.234-18.36-0.124-21.68-1.65-3.08-10.609-23.02-13.433-20.76z" fill="url(#linearGradient2444)" fill-rule="evenodd"/>
  <path id="path672" d="m86.56 359.43l-21.906 15.08c2.789-1.56 11.835 16.01 13.327 19.36 1.012 3.18 2.912 21.95 0.617 23.08l22.362-16.37c1.28-1.84 0.94-18.21-0.42-21.54-1.65-3.08-11.156-21.87-13.98-19.61z" fill="url(#linearGradient2446)" fill-rule="evenodd"/>
  <path id="path673" d="m20.893 405.1l-12.922 8.47c2.79-1.55 17.317 6.89 20.866 8.9 2.582 1.55 4.307 3.95 6.249 6.99 0.211-1.91-10.098-24.72-14.193-24.36z" fill="url(#linearGradient659)" fill-rule="evenodd"/>
  <path id="path770" opacity=".0316" fill="#fff" d="m438.77 97.546l-11.95-9.819c-3.46-2.839-8.16-3.277-14.1-1.313-5.87 2.024-13.23 5.995-22.09 11.915-10.17 6.801-16.44 12.561-18.81 17.291-0.99 1.96-1.37 3.6-1.15 4.92 0.36 1.27 1.45 2.66 3.27 4.15l6.83 5.61c0.36 0.3 2.51 2.06 6.44 5.29 3.93 3.22 7.61 6.24 11.03 9.05 3.43 2.81 5.57 4.58 6.45 5.29 0.87 0.72-1.55-1.27-7.27-5.96l13.11 10.76 2.35 1.93c0.07 0.06 0.14 0.12 0.22 0.18 0.07 0.06 0.16 0.13 0.27 0.22 0.07 0.06 0.15 0.12 0.22 0.18s0.16 0.14 0.27 0.22l14.8 12.15c1.89 1.4 5.57 0.35 11.04-3.15 5.47-3.49 7.55-6.26 6.24-8.31l-32.06-26.32c-2.76-1.94-0.7-5.22 6.19-9.82 6.45-4.32 10.86-5.66 13.22-4.05l0.11 0.09 30.8 25.53c3.71 2.89 3.6 7.11-0.34 12.67s-9.48 10.79-16.62 15.67c-7.11 4.91-14.62 8.6-22.53 11.07-7.9 2.46-13.88 2.04-17.92-1.28l-13.43-11.03-0.17-0.13-15.94-13.1-15.73-12.91-8.74-7.17c-3.16-2.6-4.69-5.32-4.58-8.16 0-2.77 1.75-6.38 5.26-10.83 6.38-8.28 16.46-17.02 30.24-26.233 16.84-11.255 31.03-18.33 42.58-21.225 4.67-1.219 8.57-1.52 11.7-0.903 3.13 0.455 6.17 1.893 9.12 4.313l10.1 8.294 1.75 1.435 13.05 10.715 36.43 29.904c1.05 0.87 1.32 2.15 0.81 3.85-0.36 1.65-2.57 3.83-6.62 6.53-6.88 4.61-11.51 5.78-13.88 3.51-1.31-1.08-5-4.11-11.08-9.1-6.05-4.97-11.91-9.78-17.59-14.44-5.64-4.63-9.81-8.05-12.5-10.27-2.66-2.18-1.24-1.01 4.26 3.5l-13.06-10.714zm135.63-33.026c28.61 43.93-5.83 137.7-126.46 189.43-87.76 37.88-171.41 9.15-187.32-28.94-27.38-64.14 14.63-148.99 106.97-190.02 92.14-40.341 168.28-28.441 206.81 29.53z"/>
  <metadata>
    <rdf:RDF>
      <cc:Work>
        <dc:format>image/svg+xml</dc:format>
        <dc:type rdf:resource="http://purl.org/dc/dcmitype/StillImage"/>
        <cc:license rdf:resource="http://creativecommons.org/licenses/publicdomain/"/>
        <dc:publisher>
          <cc:Agent rdf:about="http://openclipart.org/">
            <dc:title>Openclipart</dc:title>
          </cc:Agent>
        </dc:publisher>
        <dc:title>Tennis racket</dc:title>
        <dc:date>2009-04-03T09:04:43</dc:date>
        <dc:description>Tennis racket by Franck Doucet. From old OCAL website.</dc:description>
        <dc:source>http://openclipart.org/detail/23873/tennis-racket-by-anonymous-23873</dc:source>
        <dc:creator>
          <cc:Agent>
            <dc:title>Anonymous</dc:title>
          </cc:Agent>
        </dc:creator>
        <dc:subject>
          <rdf:Bag>
            <rdf:li>clip art</rdf:li>
            <rdf:li>clipart</rdf:li>
            <rdf:li>equipment</rdf:li>
            <rdf:li>image</rdf:li>
            <rdf:li>media</rdf:li>
            <rdf:li>png</rdf:li>
            <rdf:li>public domain</rdf:li>
            <rdf:li>racket</rdf:li>
            <rdf:li>sport</rdf:li>
            <rdf:li>svg</rdf:li>
            <rdf:li>tennis</rdf:li>
          </rdf:Bag>
        </dc:subject>
      </cc:Work>
      <cc:License rdf:about="http://creativecommons.org/licenses/publicdomain/">
        <cc:permits rdf:resource="http://creativecommons.org/ns#Reproduction"/>
        <cc:permits rdf:resource="http://creativecommons.org/ns#Distribution"/>
        <cc:permits rdf:resource="http://creativecommons.org/ns#DerivativeWorks"/>
      </cc:License>
    </rdf:RDF>
  </metadata>
</svg>
