<?xml version="1.0" encoding="UTF-8" standalone="no"?>
<svg
   xmlns:dc="http://purl.org/dc/elements/1.1/"
   xmlns:cc="http://creativecommons.org/ns#"
   xmlns:rdf="http://www.w3.org/1999/02/22-rdf-syntax-ns#"
   xmlns:svg="http://www.w3.org/2000/svg"
   xmlns="http://www.w3.org/2000/svg"
   xmlns:xlink="http://www.w3.org/1999/xlink"
   xmlns:sodipodi="http://sodipodi.sourceforge.net/DTD/sodipodi-0.dtd"
   xmlns:inkscape="http://www.inkscape.org/namespaces/inkscape"
   id="svg1065"
   space="preserve"
   viewBox="0 0 472.44097 332.59843"
   version="1.0"
   sodipodi:docname="racket.svg"
   width="125mm"
   height="88mm"
   inkscape:version="1.0.2-2 (e86c870879, 2021-01-15)">
  <sodipodi:namedview
     pagecolor="#ffffff"
     bordercolor="#666666"
     borderopacity="1"
     objecttolerance="10"
     gridtolerance="10"
     guidetolerance="10"
     inkscape:pageopacity="0"
     inkscape:pageshadow="2"
     inkscape:window-width="1920"
     inkscape:window-height="1017"
     id="namedview68"
     showgrid="false"
     units="mm"
     inkscape:zoom="1.2404756"
     inkscape:cx="261.55313"
     inkscape:cy="202.8462"
     inkscape:window-x="-8"
     inkscape:window-y="-8"
     inkscape:window-maximized="1"
     inkscape:current-layer="svg1065" />
  <defs
     id="defs1067">
    <linearGradient
       id="linearGradient660">
      <stop
         id="stop661"
         stop-color="#5a3a00"
         offset="0" />
      <stop
         id="stop662"
         stop-color="#b55700"
         offset="1" />
    </linearGradient>
    <linearGradient
       id="linearGradient618">
      <stop
         id="stop619"
         stop-color="#002fff"
         offset="0" />
      <stop
         id="stop620"
         stop-color="#00d2ff"
         offset="1" />
    </linearGradient>
    <linearGradient
       id="linearGradient613"
       y2="460.67999"
       gradientUnits="userSpaceOnUse"
       y1="291.64999"
       gradientTransform="matrix(0.77029636,0,0,0.64716898,7.7987517,-174.01032)"
       x2="620.09998"
       x1="104.97">
      <stop
         id="stop611"
         stop-color="#666767"
         offset="0" />
      <stop
         id="stop612"
         stop-color="#f3f2f2"
         offset="1" />
    </linearGradient>
    <linearGradient
       id="linearGradient617"
       y2="612.42999"
       xlink:href="#linearGradient618"
       gradientUnits="userSpaceOnUse"
       y1="612.42999"
       gradientTransform="matrix(0.64725369,0.01278085,-0.01520188,0.76987273,7.7987517,-174.01032)"
       x2="94.861"
       x1="56.805" />
    <radialGradient
       id="radialGradient621"
       xlink:href="#linearGradient618"
       gradientUnits="userSpaceOnUse"
       cy="84.237"
       cx="647.53998"
       gradientTransform="matrix(0.35358086,0.45592931,-0.68274664,0.5294852,7.7987517,-174.01032)"
       r="314.26999" />
    <linearGradient
       id="linearGradient659"
       y2="697.01001"
       xlink:href="#linearGradient660"
       gradientUnits="userSpaceOnUse"
       y1="697.01001"
       gradientTransform="matrix(0.7448787,0,0,0.6692541,7.7987517,-174.01032)"
       x2="69.677002"
       x1="43.973" />
    <linearGradient
       id="linearGradient2438"
       y2="501.87"
       xlink:href="#linearGradient660"
       gradientUnits="userSpaceOnUse"
       x2="148.67"
       gradientTransform="matrix(0.5625211,0,0,0.88615854,7.7987517,-174.01032)"
       y1="501.87"
       x1="102.1" />
    <linearGradient
       id="linearGradient2440"
       y2="486.51999"
       xlink:href="#linearGradient660"
       gradientUnits="userSpaceOnUse"
       x2="214.42999"
       gradientTransform="matrix(0.57312591,0,0,0.86977826,7.7987517,-174.01032)"
       y1="486.51999"
       x1="180.74001" />
    <linearGradient
       id="linearGradient2442"
       y2="484.70001"
       xlink:href="#linearGradient660"
       gradientUnits="userSpaceOnUse"
       x2="200.81"
       gradientTransform="matrix(0.57064769,0,0,0.87359091,7.7987517,-174.01032)"
       y1="484.70001"
       x1="154.63" />
    <linearGradient
       id="linearGradient2444"
       y2="509.14999"
       xlink:href="#linearGradient660"
       gradientUnits="userSpaceOnUse"
       x2="122.02"
       gradientTransform="matrix(0.55693627,0,0,0.8950547,7.7987517,-174.01032)"
       y1="509.14999"
       x1="74.654999" />
    <linearGradient
       id="linearGradient2446"
       y2="493.01001"
       xlink:href="#linearGradient660"
       gradientUnits="userSpaceOnUse"
       x2="174.81"
       gradientTransform="matrix(0.56615018,0,0,0.88051017,7.7987517,-174.01032)"
       y1="493.01001"
       x1="128.53999" />
  </defs>
  <path
     id="path609"
     d="M 280.74844,42.570042 C 219.13885,75.466851 206.36647,137.13787 219.40009,169.19943 187.62095,129.30782 219.89432,63.341921 285.62722,27.495956 347.23681,-5.3966162 448.45558,0.15714279 448.39911,76.014037 427.10474,7.3955282 342.35096,9.6739392 280.74844,42.570748 Z"
     fill="#808080"
     fill-rule="evenodd"
     style="stroke-width:0.706046" />
  <path
     id="path1074"
     d="M 440.1313,42.566512 C 464.1298,83.385865 433.20499,143.45346 371.05174,176.73647 308.8985,210.01949 239.05641,203.91219 215.05084,163.0886 191.04527,122.27207 221.97716,62.194596 284.1304,28.911579 346.28365,-4.3672014 416.12573,1.7436286 440.1313,42.563688 Z m 8.52904,10.45019 C 466.24089,103.3811 442.87782,154.65205 375.80343,192.29844 308.72198,229.93776 258.38795,225.82856 218.94822,188.55639 181.28065,152.92223 207.35494,67.667158 280.27539,28.354508 347.34977,-9.2834006 430.47259,3.2686883 448.66034,53.014583 Z"
     fill="url(#linearGradient613)"
     fill-rule="evenodd"
     style="fill:url(#linearGradient613);stroke-width:0.706046" />
  <path
     id="path1070"
     d="m 205.48391,117.64323 c -17.19927,55.41757 -50.70118,89.04654 -107.559073,146.46928 13.153643,-18.13832 29.646883,4.58929 21.950983,13.13952 67.70276,-35.74006 145.89738,-53.71599 204.56275,-63.643 -5.69778,-8.02069 -6.09318,-14.85522 1.1791,-19.33155 -18.54783,4.82229 -53.56773,7.07459 -77.26263,-3.24781 -4.76581,1.61685 -7.43467,7.91477 -6.96162,13.20307 3.85502,3.01481 4.03153,6.38265 -14.06444,10.74602 -29.83044,9.22802 -53.75129,16.5356 -81.18825,28.55956 -2.49234,0.72017 -5.23179,-0.21887 -3.89737,-1.67333 20.73658,-23.34188 38.9455,-44.66447 47.63694,-56.61783 4.34924,-5.98022 11.43795,-10.20944 22.38872,-5.02705 -4.13744,-5.54954 -4.62461,-12.05928 4.97057,-14.86228 -3.89032,-22.81941 -2.25229,-28.12182 -0.93199,-36.88385 0.466,-9.29157 -4.38455,-13.11128 -10.82369,-10.83075 z"
     fill="url(#radialGradient621)"
     fill-rule="evenodd"
     style="fill:url(#radialGradient621);stroke-width:0.706046" />
  <path
     id="path614"
     d="m 129.2027,257.51804 c -2.84538,-5.04117 -15.59657,-9.8211 -17.83474,-7.9289 l -71.388329,49.40205 c -1.844829,1.39091 -4.899961,6.08611 -1.114635,4.34218 3.658519,-0.61426 12.537968,1.11555 14.86439,4.73757 2.944918,5.04823 3.099542,15.66716 0.755469,18.75965 l 72.666275,-52.36744 c 0.49423,-0.49424 1.4827,-1.10849 1.63097,-1.89927 2.85948,-4.04564 1.60978,-13.23836 0.42362,-15.04584 z"
     fill="#808080"
     fill-rule="evenodd"
     style="stroke-width:0.706046" />
  <path
     id="path616"
     d="m 43.654601,298.80055 c -4.128888,-2.11814 -8.428073,3.56554 -8.538922,8.20426 l -0.189172,7.87948 c -0.111265,4.63873 4.079535,6.42502 8.208493,8.54315 l 7.774981,3.98211 c 4.128958,2.11813 8.428073,-3.56554 8.538923,-8.20426 l 0.189219,-7.87947 c 0.111555,-4.63873 -4.079534,-6.42503 -8.208492,-8.54316 l -7.774981,-3.98211 z"
     fill="url(#linearGradient617)"
     fill-rule="evenodd"
     style="fill:url(#linearGradient617);stroke-width:0.706046" />
  <path
     id="path622"
     d="M 213.94236,129.38478 375.89522,16.226754"
     stroke="#000000"
     stroke-width="0.706046pt"
     fill="none" />
  <path
     id="path623"
     d="M 212.2549,141.42287 389.97378,17.427032"
     stroke="#000000"
     stroke-width="0.706046pt"
     fill="none" />
  <path
     id="path624"
     d="M 213.87175,152.26067 399.04647,21.013746"
     stroke="#000000"
     stroke-width="0.706046pt"
     fill="none" />
  <path
     id="path625"
     d="M 216.26525,161.98294 409.89135,25.447716"
     stroke="#000000"
     stroke-width="0.706046pt"
     fill="none" />
  <path
     id="path626"
     d="M 221.05223,170.78026 419.0417,30.23471"
     stroke="#000000"
     stroke-width="0.706046pt"
     fill="none" />
  <path
     id="path627"
     d="M 227.73143,177.1841 427.3448,36.21492"
     stroke="#000000"
     stroke-width="0.706046pt"
     fill="none" />
  <path
     id="path628"
     d="M 235.6109,183.16432 432.54837,43.748433"
     stroke="#000000"
     stroke-width="0.706046pt"
     fill="none" />
  <path
     id="path629"
     d="M 244.89541,187.8101 438.18261,51.34549"
     stroke="#000000"
     stroke-width="0.706046pt"
     fill="none" />
  <path
     id="path630"
     d="M 254.25052,192.73829 443.04021,60.07222"
     stroke="#000000"
     stroke-width="0.706046pt"
     fill="none" />
  <path
     id="path631"
     d="M 265.85087,196.04965 445.70907,70.069834"
     stroke="#000000"
     stroke-width="0.706046pt"
     fill="none" />
  <path
     id="path632"
     d="M 280.28245,197.32054 447.33297,79.770909"
     stroke="#000000"
     stroke-width="0.706046pt"
     fill="none" />
  <path
     id="path633"
     d="M 215.56626,117.21255 359.83973,16.297359"
     stroke="#000000"
     stroke-width="0.706046pt"
     fill="none" />
  <path
     id="path635"
     d="M 295.879,198.01246 445.20071,92.684492"
     stroke="#000000"
     stroke-width="0.706046pt"
     fill="none" />
  <path
     id="path636"
     d="M 254.87185,55.112951 392.46612,162.49552"
     stroke="#000000"
     stroke-width="0.706046pt"
     fill="none" />
  <path
     id="path637"
     d="M 248.58804,61.394645 384.98909,168.18414"
     stroke="#000000"
     stroke-width="0.706046pt"
     fill="none" />
  <path
     id="path638"
     d="M 242.00768,67.376974 376.91193,172.96618"
     stroke="#000000"
     stroke-width="0.706046pt"
     fill="none" />
  <path
     id="path639"
     d="M 236.62761,73.958031 369.13836,178.05042"
     stroke="#000000"
     stroke-width="0.706046pt"
     fill="none" />
  <path
     id="path640"
     d="M 231.54408,80.837038 360.46105,182.23939"
     stroke="#000000"
     stroke-width="0.706046pt"
     fill="none" />
  <path
     id="path641"
     d="M 227.65376,88.314067 349.99039,185.82611"
     stroke="#000000"
     stroke-width="0.706046pt"
     fill="none" />
  <path
     id="path642"
     d="M 223.16332,95.791095 340.72,190.31656"
     stroke="#000000"
     stroke-width="0.706046pt"
     fill="none" />
  <path
     id="path643"
     d="M 218.97646,105.06854 329.05611,193.0066"
     stroke="#000000"
     stroke-width="0.706046pt"
     fill="none" />
  <path
     id="path644"
     d="M 262.65248,49.130623 399.35008,156.81679"
     stroke="#000000"
     stroke-width="0.706046pt"
     fill="none" />
  <path
     id="path645"
     d="M 270.42604,43.746315 406.8271,150.83234"
     stroke="#000000"
     stroke-width="0.706046pt"
     fill="none" />
  <path
     id="path646"
     d="M 279.10335,38.66137 413.70399,144.25764"
     stroke="#000000"
     stroke-width="0.706046pt"
     fill="none" />
  <path
     id="path647"
     d="M 288.07719,33.875084 419.38766,137.36734"
     stroke="#000000"
     stroke-width="0.706046pt"
     fill="none" />
  <path
     id="path648"
     d="M 297.64412,29.687523 425.37494,130.4968"
     stroke="#000000"
     stroke-width="0.706046pt"
     fill="none" />
  <path
     id="path649"
     d="M 307.2181,25.499964 430.75501,123.01906"
     stroke="#000000"
     stroke-width="0.706046pt"
     fill="none" />
  <path
     id="path650"
     d="m 316.79209,21.910425 118.7499,93.325185"
     stroke="#000000"
     stroke-width="0.706046pt"
     fill="none" />
  <path
     id="path651"
     d="M 329.05611,19.517635 439.72885,106.56607"
     stroke="#000000"
     stroke-width="0.706046pt"
     fill="none" />
  <path
     id="path652"
     d="M 341.32013,17.124844 443.61917,97.88947"
     stroke="#000000"
     stroke-width="0.706046pt"
     fill="none" />
  <path
     id="path653"
     d="M 358.96423,16.825481 446.3092,85.023892"
     stroke="#000000"
     stroke-width="0.706046pt"
     fill="none" />
  <path
     id="path654"
     d="M 218.38338,104.76495 341.01654,17.427032"
     stroke="#000000"
     stroke-width="0.706046pt"
     fill="none" />
  <path
     id="path655"
     d="M 317.48402,195.69663 439.0793,108.80353"
     stroke="#000000"
     stroke-width="0.706046pt"
     fill="none" />
  <path
     id="path663"
     d="m 80.696607,270.86937 -15.466648,10.67542 c 1.969163,-1.09438 8.144949,11.69918 9.198371,14.06443 0.714518,2.23817 2.056006,15.59657 0.43563,16.3944 l 16.108447,-11.66388 c 0.89738,-1.29207 0.34313,-12.8571 -0.61638,-15.20118 -1.16498,-2.17462 -7.66484,-15.86486 -9.65942,-14.26919 z"
     fill="url(#linearGradient2438)"
     fill-rule="evenodd"
     style="fill:url(#linearGradient2438);stroke-width:0.706046" />
  <path
     id="path669"
     d="m 111.38208,249.34908 c 1.96987,-0.19769 8.65613,10.99315 9.70814,13.35133 0.7131,2.24523 1.84278,14.96818 0.22593,15.76601 l 6.14966,-4.30687 c 4.27158,-2.52764 3.55847,-14.92582 2.07579,-17.14281 -1.13674,-2.1252 -13.21013,-9.07975 -18.15952,-7.66766 z"
     fill="url(#linearGradient2440)"
     fill-rule="evenodd"
     style="fill:url(#linearGradient2440);stroke-width:0.706046" />
  <path
     id="path670"
     d="m 110.99376,249.53971 -14.954063,10.7672 c 1.96916,-1.09436 8.444313,11.09905 9.496323,13.46431 0.71311,2.23817 1.84278,15.17999 0.22594,15.97783 l 16.10491,-11.66389 c 0.90374,-1.29912 0.55778,-12.43347 -0.40245,-14.78461 -1.16498,-2.17462 -8.47255,-15.3565 -10.47066,-13.76084 z"
     fill="url(#linearGradient2442)"
     fill-rule="evenodd"
     style="fill:url(#linearGradient2442);stroke-width:0.706046" />
  <path
     id="path671"
     d="m 65.529323,281.84838 -16.152924,10.76721 c 1.969162,-1.09437 8.761327,13.0548 9.814747,15.41299 0.71452,2.24523 0.469521,15.2859 -1.150855,16.08373 l 17.0609,-12.29933 c 0.897384,-1.29912 0.871261,-12.963 -0.08755,-15.30708 -1.164976,-2.17462 -7.490444,-16.25318 -9.484318,-14.65752 z"
     fill="url(#linearGradient2444)"
     fill-rule="evenodd"
     style="fill:url(#linearGradient2444);stroke-width:0.706046" />
  <path
     id="path672"
     d="m 96.039697,260.2222 -15.466648,10.64717 c 1.969163,-1.10144 8.356058,11.3038 9.409478,13.66905 0.71452,2.24523 2.05601,15.49771 0.43563,16.29555 L 106.20676,289.276 c 0.90374,-1.29914 0.66369,-12.85711 -0.29654,-15.20825 -1.16497,-2.17462 -7.876653,-15.44122 -9.870523,-13.84555 z"
     fill="url(#linearGradient2446)"
     fill-rule="evenodd"
     style="fill:url(#linearGradient2446);stroke-width:0.706046" />
  <path
     id="path673"
     d="m 49.675763,292.46733 -9.123529,5.9802 c 1.969869,-1.09437 12.226601,4.86465 14.732359,6.28382 1.823012,1.09436 3.04094,2.78887 4.412083,4.93525 0.148975,-1.34854 -7.129655,-17.45345 -10.020913,-17.19927 z"
     fill="url(#linearGradient659)"
     fill-rule="evenodd"
     style="fill:url(#linearGradient659);stroke-width:0.706046" />
  <path
     id="path770"
     opacity="0.0316"
     fill="#ffffff"
     d="m 344.71622,75.319994 -8.43725,-6.932668 c -2.44292,-2.004465 -5.76133,-2.313713 -9.95526,-0.927038 -4.14448,1.429037 -9.34099,4.232746 -15.59655,8.41254 -7.18049,4.80182 -11.60741,8.868645 -13.28073,12.208244 -0.69899,1.38385 -0.96728,2.541768 -0.81195,3.473752 0.25417,0.89667 1.02376,1.878077 2.30876,2.930083 l 4.8223,3.960928 c 0.25418,0.21181 1.77218,1.45445 4.54694,3.734985 2.77476,2.27347 5.37301,4.40572 7.78769,6.38971 2.42174,1.98399 3.93268,3.2337 4.554,3.73499 0.61426,0.50836 -1.09438,-0.89667 -5.13295,-4.20803 l 9.25625,7.59706 1.65921,1.36266 c 0.0495,0.0423 0.0988,0.0847 0.15533,0.12709 0.0495,0.0424 0.11297,0.0918 0.19064,0.15533 0.0495,0.0423 0.10591,0.0847 0.15533,0.12709 0.0495,0.0423 0.11296,0.0989 0.19063,0.15533 l 10.44949,8.57846 c 1.33443,0.98846 3.93267,0.24711 7.79474,-2.22405 3.86208,-2.4641 5.33065,-4.41985 4.40573,-5.86723 L 327.14273,99.526075 c -1.94868,-1.369722 -0.49423,-3.685556 4.37042,-6.933365 4.554,-3.050123 7.66767,-3.996225 9.33394,-2.85949 l 0.0777,0.06354 21.74622,18.02536 c 2.61944,2.04049 2.54177,5.02 -0.24005,8.94562 -2.78182,3.92561 -6.69331,7.61823 -11.73449,11.06374 -5.01999,3.46669 -10.3224,6.072 -15.90722,7.81593 -5.57776,1.73688 -9.79993,1.44033 -12.65236,-0.90375 l -9.48219,-7.78768 -0.12003,-0.0918 -11.25437,-9.24921 -11.1061,-9.11505 -6.17086,-5.06235 c -2.2311,-1.83572 -3.31134,-3.756165 -3.23368,-5.761346 0,-1.95575 1.23558,-4.504573 3.7138,-7.646478 4.50458,-5.846062 11.62152,-12.016907 21.35084,-18.521709 11.88981,-7.94655 21.90861,-12.941827 30.06344,-14.985831 3.29724,-0.86067 6.05082,-1.07319 8.26074,-0.637559 2.20992,0.321251 4.3563,1.336545 6.43914,3.045177 l 7.13107,5.855947 1.23558,1.013176 9.21391,7.565285 25.72125,21.113598 c 0.74135,0.614267 0.93198,1.518002 0.5719,2.718287 -0.25418,1.164973 -1.81454,2.704158 -4.67402,4.610493 -4.8576,3.25486 -8.1266,4.08094 -9.79993,2.47822 -0.92491,-0.76254 -3.53023,-2.90186 -7.82299,-6.425031 -4.27157,-3.509056 -8.40901,-6.905136 -12.41934,-10.195308 -3.98211,-3.268994 -6.92632,-5.683672 -8.82558,-7.251094 -1.87809,-1.539181 -0.8755,-0.713107 3.00775,2.471161 z M 440.47726,52.002113 C 460.67725,83.018721 436.36101,149.22467 351.19067,185.74844 289.22805,212.49347 230.16729,192.20877 218.9341,165.31547 199.60255,120.02966 229.26355,60.121644 294.45985,31.152569 359.51495,2.6699611 413.27331,11.07191 440.47726,52.002113 Z"
     style="stroke-width:0.706046" />
  <metadata
     id="metadata65">
    <rdf:RDF>
      <cc:Work>
        <dc:format>image/svg+xml</dc:format>
        <dc:type
           rdf:resource="http://purl.org/dc/dcmitype/StillImage" />
        <cc:license
           rdf:resource="http://creativecommons.org/publicdomain/zero/1.0/" />
        <dc:publisher>
          <cc:Agent
             rdf:about="http://openclipart.org/">
            <dc:title>Openclipart</dc:title>
          </cc:Agent>
        </dc:publisher>
        <dc:title>Tennis racket</dc:title>
        <dc:date>2009-04-03T09:04:43</dc:date>
        <dc:description>Tennis racket by Franck Doucet. From old OCAL website.</dc:description>
        <dc:source>http://openclipart.org/detail/23873/tennis-racket-by-anonymous-23873</dc:source>
        <dc:creator>
          <cc:Agent>
            <dc:title>Anonymous</dc:title>
          </cc:Agent>
        </dc:creator>
        <dc:subject>
          <rdf:Bag>
            <rdf:li>clip art</rdf:li>
            <rdf:li>clipart</rdf:li>
            <rdf:li>equipment</rdf:li>
            <rdf:li>image</rdf:li>
            <rdf:li>media</rdf:li>
            <rdf:li>png</rdf:li>
            <rdf:li>public domain</rdf:li>
            <rdf:li>racket</rdf:li>
            <rdf:li>sport</rdf:li>
            <rdf:li>svg</rdf:li>
            <rdf:li>tennis</rdf:li>
          </rdf:Bag>
        </dc:subject>
      </cc:Work>
      <cc:License
         rdf:about="http://creativecommons.org/publicdomain/zero/1.0/">
        <cc:permits
           rdf:resource="http://creativecommons.org/ns#Reproduction" />
        <cc:permits
           rdf:resource="http://creativecommons.org/ns#Distribution" />
        <cc:permits
           rdf:resource="http://creativecommons.org/ns#DerivativeWorks" />
      </cc:License>
    </rdf:RDF>
  </metadata>
</svg>
