<?xml version="1.0" encoding="UTF-8" standalone="no"?>
<svg
   xmlns:dc="http://purl.org/dc/elements/1.1/"
   xmlns:cc="http://creativecommons.org/ns#"
   xmlns:rdf="http://www.w3.org/1999/02/22-rdf-syntax-ns#"
   xmlns:svg="http://www.w3.org/2000/svg"
   xmlns="http://www.w3.org/2000/svg"
   xmlns:sodipodi="http://sodipodi.sourceforge.net/DTD/sodipodi-0.dtd"
   xmlns:inkscape="http://www.inkscape.org/namespaces/inkscape"
   id="Layer_1"
   enable-background="new 0 0 841.89 595.275"
   xml:space="preserve"
   viewBox="0 0 841.89 595.275"
   version="1.1"
   y="0px"
   x="0px"
   sodipodi:docname="shark.svg"
   inkscape:version="1.0.2-2 (e86c870879, 2021-01-15)"><defs
   id="defs446" /><sodipodi:namedview
   pagecolor="#ffffff"
   bordercolor="#666666"
   borderopacity="1"
   objecttolerance="10"
   gridtolerance="10"
   guidetolerance="10"
   inkscape:pageopacity="0"
   inkscape:pageshadow="2"
   inkscape:window-width="1920"
   inkscape:window-height="1017"
   id="namedview444"
   showgrid="false"
   inkscape:zoom="1.2049708"
   inkscape:cx="420.94501"
   inkscape:cy="297.63751"
   inkscape:window-x="-8"
   inkscape:window-y="-8"
   inkscape:window-maximized="1"
   inkscape:current-layer="Layer_1" />
<linearGradient
   id="SVGID_1_"
   y2="92.133"
   gradientUnits="userSpaceOnUse"
   x2="187.8"
   y1="92.133"
   x1="101.08">
	<stop
   style="stop-color:#4880AD"
   offset="0"
   id="stop2" />
	<stop
   style="stop-color:#3E627F"
   offset="1"
   id="stop4" />
</linearGradient>

<linearGradient
   id="SVGID_2_"
   y2="169.22"
   gradientUnits="userSpaceOnUse"
   x2="646"
   y1="169.22"
   x1="156">
	<stop
   style="stop-color:#76A9CD"
   offset="0"
   id="stop9" />
	<stop
   style="stop-color:#295F84"
   offset="1"
   id="stop11" />
</linearGradient>

<linearGradient
   id="SVGID_3_"
   y2="61.938"
   gradientUnits="userSpaceOnUse"
   x2="432.5"
   y1="61.938"
   x1="353.5">
	<stop
   style="stop-color:#76A9CD"
   offset="0"
   id="stop16" />
	<stop
   style="stop-color:#295F84"
   offset="1"
   id="stop18" />
</linearGradient>

<linearGradient
   id="SVGID_4_"
   y2="131.44"
   gradientUnits="userSpaceOnUse"
   x2="237.67"
   y1="131.44"
   x1="222.67">
	<stop
   style="stop-color:#5B8FB7"
   offset="0"
   id="stop23" />
	<stop
   style="stop-color:#3E627F"
   offset="1"
   id="stop25" />
</linearGradient>

<linearGradient
   id="SVGID_5_"
   y2="94.793"
   gradientUnits="userSpaceOnUse"
   x2="243.5"
   y1="94.793"
   x1="228.33">
	<stop
   style="stop-color:#5B8FB7"
   offset="0"
   id="stop30" />
	<stop
   style="stop-color:#3E627F"
   offset="1"
   id="stop32" />
</linearGradient>

<linearGradient
   id="SVGID_6_"
   y2="200.16"
   gradientUnits="userSpaceOnUse"
   x2="431.83"
   y1="200.16"
   x1="293.29">
	<stop
   style="stop-color:#76A9CD"
   offset="0"
   id="stop37" />
	<stop
   style="stop-color:#4880AD"
   offset="1"
   id="stop39" />
</linearGradient>


<linearGradient
   id="SVGID_7_"
   y2="178.12"
   gradientUnits="userSpaceOnUse"
   x2="430.17"
   y1="178.12"
   x1="404.29">
	<stop
   style="stop-color:#5B8FB7"
   offset=".2809"
   id="stop46" />
	<stop
   style="stop-color:#6495BB"
   offset=".3158"
   id="stop48" />
	<stop
   style="stop-color:#84ACCA"
   offset=".4524"
   id="stop50" />
	<stop
   style="stop-color:#9DBFD6"
   offset=".5899"
   id="stop52" />
	<stop
   style="stop-color:#B0CEDF"
   offset=".7271"
   id="stop54" />
	<stop
   style="stop-color:#BCD8E5"
   offset=".8639"
   id="stop56" />
	<stop
   style="stop-color:#C0DBE7"
   offset="1"
   id="stop58" />
</linearGradient>





<linearGradient
   id="SVGID_8_"
   y2="238.63"
   gradientUnits="userSpaceOnUse"
   x2="550.17"
   y1="238.63"
   x1="510.6">
	<stop
   style="stop-color:#5B8FB7"
   offset="0"
   id="stop71" />
	<stop
   style="stop-color:#246EA0"
   offset=".618"
   id="stop73" />
	<stop
   style="stop-color:#295F84"
   offset="1"
   id="stop75" />
</linearGradient>


<linearGradient
   id="SVGID_9_"
   y2="233.97"
   gradientUnits="userSpaceOnUse"
   x2="570.16"
   y1="233.97"
   x1="519.34">
	<stop
   style="stop-color:#5B8FB7"
   offset="0"
   id="stop82" />
	<stop
   style="stop-color:#6495BB"
   offset=".0485"
   id="stop84" />
	<stop
   style="stop-color:#84ACCA"
   offset=".2384"
   id="stop86" />
	<stop
   style="stop-color:#9DBFD6"
   offset=".4297"
   id="stop88" />
	<stop
   style="stop-color:#B0CEDF"
   offset=".6205"
   id="stop90" />
	<stop
   style="stop-color:#BCD8E5"
   offset=".8108"
   id="stop92" />
	<stop
   style="stop-color:#C0DBE7"
   offset="1"
   id="stop94" />
</linearGradient>

<linearGradient
   id="SVGID_10_"
   y2="216.29"
   gradientUnits="userSpaceOnUse"
   x2="625.05"
   y1="224.12"
   x1="617.22">
	<stop
   style="stop-color:#5B8FB7"
   offset=".7022"
   id="stop99" />
	<stop
   style="stop-color:#6495BB"
   offset=".7167"
   id="stop101" />
	<stop
   style="stop-color:#84ACCA"
   offset=".7732"
   id="stop103" />
	<stop
   style="stop-color:#9DBFD6"
   offset=".8302"
   id="stop105" />
	<stop
   style="stop-color:#B0CEDF"
   offset=".887"
   id="stop107" />
	<stop
   style="stop-color:#BCD8E5"
   offset=".9437"
   id="stop109" />
	<stop
   style="stop-color:#C0DBE7"
   offset="1"
   id="stop111" />
</linearGradient>

<linearGradient
   id="SVGID_11_"
   y2="147.61"
   gradientUnits="userSpaceOnUse"
   x2="450.65"
   y1="147.61"
   x1="210.16">
	<stop
   style="stop-color:#5B8FB7"
   offset="0"
   id="stop116" />
	<stop
   style="stop-color:#295F84"
   offset="1"
   id="stop118" />
</linearGradient>

<linearGradient
   id="SVGID_12_"
   y2="117.52"
   gradientUnits="userSpaceOnUse"
   x2="437"
   y1="117.52"
   x1="209.22">
	<stop
   style="stop-color:#4880AD"
   offset="0"
   id="stop123" />
	<stop
   style="stop-color:#3E627F"
   offset="1"
   id="stop125" />
</linearGradient>

<linearGradient
   id="SVGID_13_"
   y2="168.56"
   gradientUnits="userSpaceOnUse"
   x2="574.3"
   y1="250.41"
   x1="492.45">
	<stop
   style="stop-color:#C0DBE7"
   offset="0"
   id="stop130" />
	<stop
   style="stop-color:#5B8FB7"
   offset=".618"
   id="stop132" />
</linearGradient>

<linearGradient
   id="SVGID_14_"
   y2="227.49"
   gradientUnits="userSpaceOnUse"
   x2="615.25"
   y1="227.49"
   x1="557.89">
	<stop
   style="stop-color:#80B1D3"
   offset="0"
   id="stop137" />
	<stop
   style="stop-color:#5B8FB7"
   offset="1"
   id="stop139" />
</linearGradient>

<linearGradient
   id="SVGID_15_"
   y2="247.35"
   gradientUnits="userSpaceOnUse"
   x2="558.46"
   y1="221.38"
   x1="558.46">
	<stop
   style="stop-color:#673366"
   offset=".3427"
   id="stop144" />
	<stop
   style="stop-color:#ED1C24"
   offset="1"
   id="stop146" />
</linearGradient>


<linearGradient
   id="SVGID_16_"
   y2="58.846"
   gradientUnits="userSpaceOnUse"
   x2="401.25"
   y1="58.846"
   x1="374.25">
	<stop
   style="stop-color:#5B8FB7"
   offset="0"
   id="stop153" />
	<stop
   style="stop-color:#3E627F"
   offset="1"
   id="stop155" />
</linearGradient>










<linearGradient
   id="SVGID_17_"
   y2="163.26"
   gradientUnits="userSpaceOnUse"
   x2="311"
   y1="163.26"
   x1="280.29">
	<stop
   style="stop-color:#76A9CD"
   offset="0"
   id="stop178" />
	<stop
   style="stop-color:#295F84"
   offset="1"
   id="stop180" />
</linearGradient>











<linearGradient
   id="SVGID_18_"
   y2="362.13"
   gradientUnits="userSpaceOnUse"
   x2="161.8"
   y1="362.13"
   x1="75.08"
   gradientTransform="matrix(1.4355687,0,0,1.4355687,-74.197188,-288.53532)">
	<stop
   style="stop-color:#4880AD"
   offset="0"
   id="stop205" />
	<stop
   style="stop-color:#3E627F"
   offset="1"
   id="stop207" />
</linearGradient>
<path
   d="M 151.1871,234.01167 C 134.42252,211.65413 115.18734,187.16045 97.353265,165.82216 82.427658,147.96369 56.720931,116.44865 33.843709,109.70435 c -3.340568,7.07305 26.687218,46.58564 31.566716,58.19365 8.696676,20.68654 12.70766,41.38314 17.189499,63.3215 9.00676,44.10497 -34.8312,120.51885 -28.342429,121.71038 6.48877,1.19151 45.425694,-33.90813 63.915825,-54.32192 9.39005,-10.37056 23.81608,-24.56115 31.71746,-34.34741 10.14946,-12.54687 11.21178,-18.9208 1.30636,-30.24744"
   fill="url(#SVGID_18_)"
   id="path210"
   style="fill:url(#SVGID_18_);stroke-width:1.43557" />
<linearGradient
   id="SVGID_19_"
   y2="439.22"
   gradientUnits="userSpaceOnUse"
   x2="620"
   y1="439.22"
   x1="130"
   gradientTransform="matrix(1.4355687,0,0,1.4355687,-74.197188,-288.53532)">
	<stop
   style="stop-color:#76A9CD"
   offset="0"
   id="stop212" />
	<stop
   style="stop-color:#72A4C8"
   offset=".1877"
   id="stop214" />
	<stop
   style="stop-color:#6798BB"
   offset=".3981"
   id="stop216" />
	<stop
   style="stop-color:#5785A9"
   offset=".6195"
   id="stop218" />
	<stop
   style="stop-color:#3F6F94"
   offset=".8469"
   id="stop220" />
	<stop
   style="stop-color:#295F84"
   offset="1"
   id="stop222" />
</linearGradient>
<path
   d="m 151.1871,234.01167 c 16.85214,14.25951 47.38237,9.5408 68.90728,5.74228 24.40468,-4.30671 158.63034,-11.48455 175.85717,-11.48455 17.22682,0 52.39825,-4.30671 52.39825,-4.30671 0,0 41.63149,4.30671 73.214,17.22683 31.58251,12.92011 115.44843,49.93482 163.65483,84.69855 49.76685,35.88922 82.45906,64.51445 89.72304,71.77843 7.17784,7.17785 40.9137,40.19592 40.9137,40.19592 0,0 -2.87113,10.04898 -31.58251,7.17785 -28.71136,-2.87114 -54.55161,-4.30671 -62.80612,-9.3312 l -12.92013,-2.15336 c 0,0 25.86178,15.35341 15.43238,20.81575 -15.07348,7.89563 -13.27902,6.46006 -36.24812,2.15336 -22.96909,-4.30671 -28.35248,-1.43558 -58.49942,-11.48455 -30.14694,-10.04898 -113.40992,-45.9382 -124.89447,-51.68047 -11.48455,-5.74228 -43.06706,-10.04898 -83.26298,-21.53354 -40.19592,-11.48455 -99.05424,-37.32478 -99.05424,-37.32478 0,0 -45.93819,-18.66239 -68.9073,-31.58251 -22.96909,-12.92011 -61.72945,-31.58251 -80.39183,-35.88922 -18.6624,-4.3067 -60.29389,-17.22682 -60.29389,-17.22682 0,0 20.09796,-1.43557 25.84023,-4.30671 5.74228,-2.87113 12.92013,-11.48455 12.92013,-11.48455 z"
   fill="url(#SVGID_19_)"
   id="path225"
   style="fill:url(#SVGID_19_);stroke-width:1.43557" />
<linearGradient
   id="SVGID_20_"
   y2="331.94"
   gradientUnits="userSpaceOnUse"
   x2="406.5"
   y1="331.94"
   x1="327.5"
   gradientTransform="matrix(1.4355687,0,0,1.4355687,-74.197188,-288.53532)">
	<stop
   style="stop-color:#76A9CD"
   offset="0"
   id="stop227" />
	<stop
   style="stop-color:#295F84"
   offset="1"
   id="stop229" />
</linearGradient>
<path
   d="m 509.36146,237.60059 c -15.32612,-6.08106 -24.82241,-34.30003 -29.2296,-48.82942 -5.07761,-16.73586 -18.50879,-39.3475 -34.49241,-48.98161 -17.14787,-10.33609 -8.85746,31.61409 -10.37199,40.42705 -1.51165,8.81296 -7.81093,21.9599 -16.10707,32.74101 -5.74228,7.17785 -11.9626,10.04898 -23.20884,15.31178 17.46656,-1.43556 43.19051,-1.98539 57.40551,-0.0359 17.72928,2.4261 39.07619,10.99646 56.01589,9.35991"
   fill="url(#SVGID_20_)"
   id="path232"
   style="fill:url(#SVGID_20_);stroke-width:1.43557" />
<linearGradient
   id="SVGID_21_"
   y2="401.44"
   gradientUnits="userSpaceOnUse"
   x2="211.67"
   y1="401.44"
   x1="196.67"
   gradientTransform="matrix(1.4355687,0,0,1.4355687,-74.197188,-288.53532)">
	<stop
   style="stop-color:#5B8FB7"
   offset="0"
   id="stop234" />
	<stop
   style="stop-color:#3E627F"
   offset="1"
   id="stop236" />
</linearGradient>
<path
   d="m 229.66963,290.47259 c -2.63284,-3.76693 -12.44208,-6.6998 -21.53353,-10.52846 2.32705,4.52347 4.06553,10.34184 3.00895,15.60463 3.83297,-0.34453 14.85814,-2.82808 18.51884,-5.08191"
   fill="url(#SVGID_21_)"
   id="path239"
   style="fill:url(#SVGID_21_);stroke-width:1.43557" />
<linearGradient
   id="SVGID_22_"
   y2="364.79"
   gradientUnits="userSpaceOnUse"
   x2="217.5"
   y1="364.79"
   x1="202.33"
   gradientTransform="matrix(1.4355687,0,0,1.4355687,-74.197188,-288.53532)">
	<stop
   style="stop-color:#5B8FB7"
   offset="0"
   id="stop241" />
	<stop
   style="stop-color:#3E627F"
   offset="1"
   id="stop243" />
</linearGradient>
<path
   d="m 238.03899,236.88282 c -5.49104,-1.28485 -9.24936,-6.50745 -15.61324,-6.81609 -0.39048,3.83584 -4.84361,6.45719 -6.15859,10.1667 6.34091,-0.12059 14.71458,-0.65319 20.3377,-2.63284"
   fill="url(#SVGID_22_)"
   id="path246"
   style="fill:url(#SVGID_22_);stroke-width:1.43557" />
<linearGradient
   id="SVGID_23_"
   y2="508.62"
   gradientUnits="userSpaceOnUse"
   x2="524.17"
   y1="508.62"
   x1="484.6"
   gradientTransform="matrix(1.4355687,0,0,1.4355687,-74.197188,-288.53532)">
	<stop
   style="stop-color:#5B8FB7"
   offset="0"
   id="stop248" />
	<stop
   style="stop-color:#246EA0"
   offset=".618"
   id="stop250" />
	<stop
   style="stop-color:#295F84"
   offset="1"
   id="stop252" />
</linearGradient>
<path
   d="m 678.04078,451.25628 c -0.55125,-2.55818 -10.99358,-5.17379 -13.65082,-5.98776 -4.51199,-1.38246 -9.35273,-1.2791 -13.91783,-2.38735 -4.9197,-1.1944 -9.53361,-3.0994 -14.35569,-4.78619 -4.4675,-1.56189 -10.90888,-3.26735 -14.63419,-6.33803 2.71323,1.34657 5.1336,3.89613 7.50946,5.79969 2.38305,1.90787 4.87949,3.16113 7.45921,4.61823 -1.92509,0.50532 -3.43962,0.32157 -5.40061,0.0129 6.75292,4.23636 15.15818,6.85484 23.29067,7.58124 8.6249,0.76947 15.7367,1.15133 23.93954,1.72555"
   fill="url(#SVGID_23_)"
   id="path255"
   style="fill:url(#SVGID_23_);stroke-width:1.43557" />
<linearGradient
   id="SVGID_24_"
   y2="503.97"
   gradientUnits="userSpaceOnUse"
   x2="544.16"
   y1="503.97"
   x1="493.34"
   gradientTransform="matrix(1.4355687,0,0,1.4355687,-74.197188,-288.53532)">
	<stop
   style="stop-color:#5B8FB7"
   offset="0"
   id="stop257" />
	<stop
   style="stop-color:#6495BB"
   offset=".0485"
   id="stop259" />
	<stop
   style="stop-color:#84ACCA"
   offset=".2384"
   id="stop261" />
	<stop
   style="stop-color:#9DBFD6"
   offset=".4297"
   id="stop263" />
	<stop
   style="stop-color:#B0CEDF"
   offset=".6205"
   id="stop265" />
	<stop
   style="stop-color:#BCD8E5"
   offset=".8108"
   id="stop267" />
	<stop
   style="stop-color:#C0DBE7"
   offset="1"
   id="stop269" />
</linearGradient>
<path
   d="m 700.2921,449.82071 c -15.55152,-8.85316 -21.5321,-11.48312 -28.47164,-18.42266 -6.93953,-6.93953 -13.39959,-15.07347 -13.39959,-15.07347 0,0 -19.85966,1.19727 -22.9691,1.43557 -3.10944,0.23831 -1.43557,2.15336 8.13537,5.74228 9.57093,3.58892 14.11738,7.17785 22.49106,12.20234 8.37366,5.02449 17.70486,9.09145 22.2513,11.2448 3.98657,1.88778 9.81069,5.26423 12.20234,5.74227 2.39166,0.47805 8.85171,1.67531 5.50253,0 -3.34917,-1.6753 -5.75663,-2.87113 -5.75663,-2.87113 z"
   fill="url(#SVGID_24_)"
   id="path272"
   style="fill:url(#SVGID_24_);stroke-width:1.43557" />
<linearGradient
   id="SVGID_25_"
   y2="486.29"
   gradientUnits="userSpaceOnUse"
   x2="599.05"
   y1="494.12"
   x1="591.22"
   gradientTransform="matrix(1.4355687,0,0,1.4355687,-74.197188,-288.53532)">
	<stop
   style="stop-color:#5B8FB7"
   offset=".7022"
   id="stop274" />
	<stop
   style="stop-color:#6495BB"
   offset=".7167"
   id="stop276" />
	<stop
   style="stop-color:#84ACCA"
   offset=".7732"
   id="stop278" />
	<stop
   style="stop-color:#9DBFD6"
   offset=".8302"
   id="stop280" />
	<stop
   style="stop-color:#B0CEDF"
   offset=".887"
   id="stop282" />
	<stop
   style="stop-color:#BCD8E5"
   offset=".9437"
   id="stop284" />
	<stop
   style="stop-color:#C0DBE7"
   offset="1"
   id="stop286" />
</linearGradient>
<path
   d="m 813.98914,437.83371 c -3.70233,-2.46774 -16.68132,-16.90095 -27.91751,-27.9577 -6.19017,-6.08968 -13.72834,-11.91953 -15.43236,-13.6379 -3.80713,-3.84301 -10.04898,-8.61342 -15.55152,-12.44064 0.20098,2.40458 4.16746,5.13503 4.40576,7.17641 0.54265,4.63545 -2.84099,1.79159 -4.99721,3.28028 -5.94613,4.10284 1.05801,7.28551 5.85568,9.05413 6.20166,2.28255 47.31635,36.79362 53.63285,34.52542"
   fill="url(#SVGID_25_)"
   id="path289"
   style="fill:url(#SVGID_25_);stroke-width:1.43557" />
<linearGradient
   id="SVGID_26_"
   y2="517.35"
   gradientUnits="userSpaceOnUse"
   x2="532.45"
   y1="491.38"
   x1="532.45"
   gradientTransform="matrix(1.4355687,0,0,1.4355687,-74.197188,-288.53532)">
	<stop
   style="stop-color:#673366"
   offset=".3427"
   id="stop291" />
	<stop
   style="stop-color:#ED1C24"
   offset="1"
   id="stop293" />
</linearGradient>
<path
   d="m 722.90231,446.83473 c -9.98008,-9.35848 -21.62398,-15.95492 -34.09476,-21.65268 -5.37477,-2.45626 -8.65217,-6.10548 -14.35569,-7.41759 -4.42872,-1.02069 -13.56182,2.16053 -17.01005,-0.89005 3.05202,1.0537 4.78905,4.74169 6.7644,7.08022 2.3773,2.81659 5.29582,6.25908 8.0923,8.64499 5.21973,4.45601 11.14575,7.36447 16.98852,11.00651 5.73078,3.5717 11.4142,7.29556 17.80392,9.68722 3.04341,1.1384 5.61594,1.26043 8.62203,-0.25266 1.91361,-0.96326 7.56975,-2.63857 7.07017,-4.88955"
   fill="url(#SVGID_26_)"
   id="path296"
   style="fill:url(#SVGID_26_);stroke-width:1.43557" />
<path
   d="m 812.62535,437.50353 c 0.4565,-0.0559 0.86708,-0.22108 1.22597,-0.49527 -1.72268,-1.98395 -15.97787,-9.55228 -15.51562,-5.87292 0.38329,3.04771 15.13376,11.36971 14.64711,6.00929"
   fill="#295f84"
   id="path298"
   style="stroke-width:1.43557" />
<linearGradient
   id="SVGID_27_"
   y2="328.85"
   gradientUnits="userSpaceOnUse"
   x2="375.25"
   y1="328.85"
   x1="348.25"
   gradientTransform="matrix(1.4355687,0,0,1.4355687,-74.197188,-288.53532)">
	<stop
   style="stop-color:#5B8FB7"
   offset="0"
   id="stop300" />
	<stop
   style="stop-color:#3E627F"
   offset="1"
   id="stop302" />
</linearGradient>
<path
   d="m 429.68741,221.09156 c 8.9723,-10.76676 7.53673,-13.63791 8.61341,-22.61021 1.07668,-8.9723 0.71779,-15.43236 -0.71778,-26.19913 -1.43558,-10.76676 -0.12059,-11.72429 -1.19727,-19.85965 -0.56705,-4.28374 1.05658,-11.7932 3.58893,-11.9626 2.69168,-0.17944 4.24784,-0.11915 7.83676,2.3931 3.58892,2.51224 5.92172,4.3067 6.63951,6.46005 0.71779,2.15336 -4.3067,5.02449 -5.02449,14.71459 -0.71779,9.69009 -2.15336,21.17463 -1.07668,27.27579 1.07668,6.10117 4.30671,13.63791 6.81896,17.58572 2.51224,3.94782 3.94781,7.17785 7.17783,12.92013 2.12034,3.76693 2.15336,4.66559 2.15336,4.66559 0,0 -1.1987,0.81253 -10.76677,-0.71778 -8.9723,-1.43557 -22.25131,-2.15336 -22.25131,-2.15336 l -5.74228,-1.07668 3.93346,-1.44992 z"
   fill="url(#SVGID_27_)"
   id="path305"
   style="fill:url(#SVGID_27_);stroke-width:1.43557" />
<path
   opacity="0.71"
   d="m 464.14106,225.57053 c -3.94781,-7.53673 -14.71458,-26.55802 -16.15015,-32.12084 -1.43557,-5.56283 -0.34454,-13.31778 0.53834,-21.53353 1.01782,-9.45179 1.67531,-15.37352 3.17116,-19.50077 0.77234,-2.13325 1.67388,-4.30671 1.67388,-4.30671 0,0 8.25452,9.21348 9.3312,11.00794 1.07667,1.79447 -2.15335,2.92999 -3.23003,8.67227 -1.07668,5.74227 -1.25613,14.71459 -0.35889,19.55963 0.89723,4.84504 1.91505,9.09289 5.74227,18.12405 1.75571,4.14448 10.22843,16.32959 13.6379,19.73906 3.40948,3.40949 7.35729,7.17785 8.43397,8.25453 1.07667,1.07668 -9.15176,-1.43557 -15.07347,-2.87114 -5.92172,-1.43556 -6.81895,-2.15335 -6.81895,-2.15335 l -0.90441,-2.87114 z"
   fill="#3e627f"
   id="path307"
   style="stroke-width:1.43557" />
<path
   opacity="0.71"
   d="m 503.44693,236.16503 c 0,0 -8.07508,-0.35889 -14.89403,-1.61502 -6.81895,-1.25612 -18.84184,-4.66559 -21.53353,-5.38338 -2.69169,-0.71779 -14.89402,-3.40947 -19.55962,-3.76837 -4.6656,-0.35889 15.07347,0 20.09796,0.17945 5.02449,0.17945 10.04898,2.15335 13.99679,2.87113 3.94781,0.71779 5.56283,-0.71778 6.28062,-1.79445 0.71778,-1.07668 -0.35889,-5.56283 -1.43557,-9.3312 -1.07668,-3.76837 -3.56308,-13.17852 -4.6656,-17.58571 -0.35889,-1.43558 2.6917,5.20393 3.05058,6.99839 0.35889,1.79446 5.92172,13.09957 7.89563,16.15014 1.97391,3.05059 5.74228,8.25453 6.63951,9.33121 0.89722,1.07667 4.13443,3.94781 4.13443,3.94781 z"
   fill="#c0dbe7"
   id="path309"
   style="stroke-width:1.43557" />
<path
   d="m 710.34108,433.91461 c -10.76677,-4.6656 -12.56122,-8.61341 -26.19913,-12.92012 -13.6379,-4.30671 -23.32798,-3.94782 -36.24811,-3.94782 -12.92012,0 -14.71457,-1.07668 -14.71457,-1.07668 0,0 11.48455,9.33121 21.53353,14.71459 10.04898,5.38338 27.99358,14.71458 31.9414,16.50904 3.94781,1.79446 22.96909,11.84344 22.96909,11.84344"
   fill="none"
   id="path311"
   style="stroke-width:1.43557" />
<path
   d="m 141.497,245.85512 c 2.51225,-1.79447 9.6901,-8.25453 9.6901,-8.25453 0,0 8.25451,4.30672 17.9446,6.46006 9.69009,2.15336 20.09796,2.15336 20.09796,2.15336 0,0 -7.53673,4.6656 -15.07347,4.6656 -7.53673,0 -20.09796,-1.43557 -22.25132,-2.15336 -2.15334,-0.71779 -10.40787,-2.87113 -10.40787,-2.87113"
   fill="#c0dbe7"
   id="path313"
   style="stroke-width:1.43557" />
<path
   d="M 145.80371,236.88282 C 119.24569,204.94141 74.743058,147.87756 66.129645,137.82857 57.516235,127.77959 44.596118,119.52508 44.596118,119.52508 l -7.177843,-6.81896 c 0,0 39.47814,48.09155 45.220408,59.5761 5.74228,11.48455 18.303507,35.88922 20.456867,45.22041 2.15334,9.33121 0,25.84024 -1.43558,35.88922 -1.43557,10.04899 -5.024493,18.3035 -10.048984,29.07027 -5.02449,10.76676 -26.916908,47.37376 -26.916908,47.37376 l -6.81895,18.3035 c 0,0 24.404666,-21.53352 34.812536,-33.37697 10.407886,-11.84344 30.864736,-29.42916 36.248116,-36.2481 5.38338,-6.81896 12.56122,-17.58572 12.56122,-17.58572 l -20.09796,-6.46007 c 0,0 -5.38338,-2.87113 -6.10117,-4.66559 -0.71777,-1.79447 8.25453,-3.23003 11.84345,-4.30671 3.58891,-1.07667 9.69008,-1.07667 12.20233,-2.51225 2.51224,-1.43556 6.46006,-6.10115 6.46006,-6.10115 z"
   fill="#295f84"
   id="path315"
   style="stroke-width:1.43557" />
<path
   d="m 79.767549,285.33325 c 5.742279,-24.40466 7.536736,-44.14373 6.101168,-50.60379 -1.435567,-6.46006 -7.177846,-35.17143 -7.177846,-35.17143 0,0 10.76677,21.89242 12.920115,33.37696 2.153356,11.48456 0.717789,17.94462 -2.512245,31.94141 -1.923661,8.31195 -9.331192,20.45685 -9.331192,20.45685 z"
   fill="#80b1d3"
   id="path317"
   style="stroke-width:1.43557" />
<path
   d="m 41.72498,115.21837 c 10.048981,6.81896 24.404665,19.02128 24.404665,19.02128 0,0 -15.791253,-8.25451 -17.585714,-9.33119 -1.79446,-1.07668 -7.177843,-10.76677 -7.177843,-10.76677"
   fill="#80b1d3"
   id="path319"
   style="stroke-width:1.43557" />
<linearGradient
   id="SVGID_28_"
   y2="375.5"
   gradientUnits="userSpaceOnUse"
   x2="375.5"
   y1="509"
   x1="375.5"
   gradientTransform="matrix(1.4355687,0,0,1.4355687,-74.197188,-288.53532)">
	<stop
   style="stop-color:#C0DBE7"
   offset="0"
   id="stop321" />
	<stop
   style="stop-color:#5B8FB7"
   offset=".2865"
   id="stop323" />
	<stop
   style="stop-color:#3E627F"
   offset=".9888"
   id="stop325" />
</linearGradient>
<path
   opacity="0.79"
   d="m 125.70574,250.52071 c 58.85832,5.02449 89.00526,6.46006 142.83909,12.20234 53.83382,5.74228 93.31197,10.76677 137.0968,20.09796 43.78485,9.33119 83.98077,17.9446 137.09681,35.17143 53.11604,17.22682 100.48981,40.19593 124.17668,50.24491 23.68689,10.04898 58.14053,32.30028 63.16502,35.88921 5.02449,3.58892 63.88281,35.88922 66.03617,35.88922 2.15334,0 7.89562,2.15335 7.89562,2.15335 0,0 -57.42275,-2.87114 -64.60058,-4.30671 -7.17785,-1.43556 -28.71138,-7.89562 -35.17144,-11.48454 -6.46005,-3.58893 -20.09796,-10.76677 -25.84024,-12.20234 -5.74227,-1.43557 -37.32478,-1.43557 -41.63149,-1.43557 -4.3067,0 -17.22682,2.87114 -17.9446,10.76676 -0.71778,7.89564 -2.15335,12.20234 -0.71778,13.6379 1.43556,1.43557 -12.20234,-5.02449 -33.73587,-12.92011 -21.53353,-7.89563 -71.06064,-31.58251 -71.06064,-31.58251 l -90.44083,-23.68689 c 0,0 -79.67406,-24.40466 -87.56968,-31.58251 -7.89564,-7.17783 -39.47815,-22.2513 -65.31838,-32.30028 -25.84024,-10.04898 -71.77843,-33.73587 -82.5452,-37.32479 -10.76676,-3.58893 -61.72946,-17.22683 -61.72946,-17.22683 z"
   fill="url(#SVGID_28_)"
   id="path328"
   style="fill:url(#SVGID_28_);stroke-width:1.43557" />
<linearGradient
   id="SVGID_29_"
   y2="497.49"
   gradientUnits="userSpaceOnUse"
   x2="589.25"
   y1="497.49"
   x1="531.89"
   gradientTransform="matrix(1.4355687,0,0,1.4355687,-74.197188,-288.53532)">
	<stop
   style="stop-color:#80B1D3"
   offset="0"
   id="stop330" />
	<stop
   style="stop-color:#5B8FB7"
   offset="1"
   id="stop332" />
</linearGradient>
<path
   d="m 771.71163,441.43699 c -3.35778,-0.65606 -6.43995,-2.85679 -9.82502,-3.76406 -3.48557,-0.93313 -6.94959,-1.11114 -10.35476,-2.25815 -7.26111,-2.44191 -13.80874,-6.52179 -20.99376,-8.91632 -6.71558,-2.23805 -13.29049,-5.61738 -20.07786,-7.20799 -6.98404,-1.63367 -15.2845,-5.21542 -21.09425,-9.79202 7.30131,3.81288 1.86481,12.25115 8.968,16.54063 6.34091,3.82723 23.28636,8.48995 30.46277,10.14804 6.69262,1.5461 13.87765,2.85534 20.51714,3.35204 7.04003,0.52542 13.66949,0.72209 20.56309,2.27395"
   fill="url(#SVGID_29_)"
   id="path335"
   style="fill:url(#SVGID_29_);stroke-width:1.43557" />
<linearGradient
   id="SVGID_30_"
   y2="433.26"
   gradientUnits="userSpaceOnUse"
   x2="285"
   y1="433.26"
   x1="254.29"
   gradientTransform="matrix(1.4355687,0,0,1.4355687,-74.197188,-288.53532)">
	<stop
   style="stop-color:#76A9CD"
   offset="0"
   id="stop337" />
	<stop
   style="stop-color:#295F84"
   offset="1"
   id="stop339" />
</linearGradient>
<path
   d="m 334.93988,341.32043 c -0.92163,4.09711 -16.40424,5.72362 -20.21712,6.10117 -6.79741,0.67041 -17.29141,1.6753 -23.86776,-1.20157 0.92164,-5.8241 8.55599,-8.36937 9.38718,-13.88195 0.77521,-5.13504 -4.12438,-10.54856 -8.50861,-12.93591 6.03656,-2.32419 18.38389,1.9007 23.2074,5.66044 3.89613,3.03623 6.69263,7.2726 10.2916,10.61317 3.51713,3.27309 5.3403,3.67505 9.70443,5.65613 z"
   fill="url(#SVGID_30_)"
   id="path342"
   style="fill:url(#SVGID_30_);stroke-width:1.43557" />
<linearGradient
   id="SVGID_31_"
   y2="470.16"
   gradientUnits="userSpaceOnUse"
   x2="406.75"
   y1="470.16"
   x1="267.29"
   gradientTransform="matrix(1.4355687,0,0,1.4355687,-74.197188,-288.53532)">
	<stop
   style="stop-color:#76A9CD"
   offset="0"
   id="stop344" />
	<stop
   style="stop-color:#295F84"
   offset="1"
   id="stop346" />
</linearGradient>
<path
   d="m 509.72036,394.79537 c 0,0 -13.6379,-31.58251 -41.33146,-31.58251 -6.29353,0 -61.78974,13.63789 -69.9251,15.07347 -13.12254,2.31556 -33.70573,6.95389 -40.19593,6.81894 -11.48455,-0.23974 -27.06047,3.02762 -31.70167,4.18756 -4.78475,1.19582 -11.96258,2.87113 -14.11594,4.06697 -2.15336,1.19583 -3.58892,2.63139 -2.6314,5.02449 1.43557,3.58891 6.93811,5.74227 17.70487,7.53673 30.65082,5.10919 56.9447,3.70808 79.67406,2.87114 22.72936,-0.83694 41.2726,-1.19583 55.15024,-2.15336 12.43203,-0.86134 47.35941,-11.84343 47.35941,-11.84343 z"
   fill="url(#SVGID_31_)"
   id="path349"
   style="fill:url(#SVGID_31_);stroke-width:1.43557" />
<path
   d="m 501.46584,394.32163 c 3.76693,-1.13554 4.12583,-1.49443 4.54501,-3.10944 -3.34774,-4.30672 -8.61341,-13.3996 -15.99367,-19.47349 -6.73569,-5.54273 -16.15445,-7.84108 -24.68029,-6.84624 -13.67379,1.59492 -50.48465,12.92013 -69.38534,16.98852 -10.45813,2.25098 -18.18436,3.58893 -36.12896,5.02449 -5.33601,0.42781 -11.68983,0.10911 -17.94461,0.71779 -12.96606,1.2633 -25.57034,3.79852 -28.23332,6.22032 -3.94782,3.58892 12.68037,7.17785 19.85822,7.89562 8.04636,0.80536 15.07347,1.55473 24.40466,1.91362 14.85383,0.56993 31.01546,1.08529 45.93819,0.23974 28.80038,-1.63224 66.0778,-23.30215 94.98727,-9.09145"
   fill="#4880ad"
   id="path351"
   style="stroke-width:1.43557" />
<path
   d="m 503.37514,392.16827 c -3.33051,-2.06578 -5.18096,-6.01933 -7.47643,-9.0412 -2.49072,-3.27598 -5.7308,-7.14483 -9.26373,-9.33408 -1.23746,-0.76659 -3.75401,-1.85906 -5.26853,-1.2676 -2.76204,1.08098 -0.0732,2.59981 0.5972,4.5809 1.52457,4.49907 -4.18326,5.46234 -7.4865,6.37535 -1.50304,0.41489 -3.97939,0.8068 -5.20251,1.78873 -2.28398,1.83608 -0.98623,2.87975 1.57483,2.785 1.59635,-0.0588 3.46689,-1.12118 5.06325,-1.40542 1.69684,-0.30147 3.48125,-0.22252 5.21255,-0.22539 3.576,-0.004 6.96538,0.33592 10.27436,1.67531 3.18409,1.2877 6.95964,3.96217 10.53995,3.58748"
   fill="#31688f"
   id="path353"
   style="stroke-width:1.43557" />
<path
   d="m 380.16029,394.68052 c 0.22969,-1.5174 -9.26516,-1.12692 -11.01224,-0.9647 -3.65353,0.34166 -8.50718,0.36033 -11.75875,-1.61358 1.17573,-0.63309 3.47551,-0.79388 3.77698,-2.1189 -1.10825,-0.0747 -2.27106,-0.39335 -2.51368,-1.49587 3.03766,-1.13409 6.11983,-0.55556 9.29961,-0.74649 3.42814,-0.20529 6.46294,-0.54552 9.80924,-1.26904 3.20276,-0.69338 6.57922,-0.47374 9.81643,-0.87283 2.60412,-0.32157 7.58985,-3.30324 9.70013,-2.70031 -1.76288,7.60134 -11.45584,11.30511 -18.31355,11.30224"
   fill="#31688f"
   id="path355"
   style="stroke-width:1.43557" />
<path
   d="m 495.72357,394.07758 c -5.2628,-0.71778 -7.41616,-1.19726 -14.59399,0.71779 -7.17785,1.91504 -14.83517,5.982 -26.55802,6.69979 -11.72429,0.71778 -24.40468,2.6314 -24.40468,2.6314 l -6.93953,1.6753 c 0,0 10.76677,-0.23974 16.27074,-0.71777 5.50253,-0.47805 17.70342,-0.95609 23.92518,-1.43557 6.22176,-0.47948 18.42409,-4.30671 20.57744,-4.78475 2.15336,-0.47805 15.56157,-4.07702 15.56157,-4.07702 l -3.83297,-0.71779 z"
   fill="#bfdcde"
   id="path357"
   style="stroke-width:1.43557" />
<linearGradient
   id="SVGID_32_"
   y2="446.92"
   gradientUnits="userSpaceOnUse"
   x2="403.75"
   y1="446.92"
   x1="378.29"
   gradientTransform="matrix(1.4355687,0,0,1.4355687,-74.197188,-288.53532)">
	<stop
   style="stop-color:#5B8FB7"
   offset=".2809"
   id="stop359" />
	<stop
   style="stop-color:#6495BB"
   offset=".3158"
   id="stop361" />
	<stop
   style="stop-color:#84ACCA"
   offset=".4524"
   id="stop363" />
	<stop
   style="stop-color:#9DBFD6"
   offset=".5899"
   id="stop365" />
	<stop
   style="stop-color:#B0CEDF"
   offset=".7271"
   id="stop367" />
	<stop
   style="stop-color:#BCD8E5"
   offset=".8639"
   id="stop369" />
	<stop
   style="stop-color:#C0DBE7"
   offset="1"
   id="stop371" />
</linearGradient>
<path
   opacity="0.61"
   d="m 505.41365,382.95192 c -2.58115,-4.2579 -5.53267,-7.90137 -11.84344,-13.6379 -5.92171,-5.38339 -13.6379,-6.57921 -24.7047,-8.49426 2.38592,-0.0301 14.0815,-1.08672 16.76888,-0.28568 5.78247,1.72125 6.94815,4.32107 9.78914,4.95128 3.23003,0.71778 2.65724,-7.71618 3.06064,-11.92384 0.95322,-9.92696 -0.01,-20.01757 4.11721,-30.42544 0.80248,10.62034 0.4321,20.06208 0.53834,30.68528 0.0546,5.47383 -0.10624,12.70191 0.35888,18.12406 0.21534,2.48353 1.92367,11.01081 1.92367,11.01081 z"
   fill="url(#SVGID_32_)"
   id="path374"
   style="fill:url(#SVGID_32_);stroke-width:1.43557" />
<linearGradient
   id="SVGID_33_"
   y2="437.73"
   gradientUnits="userSpaceOnUse"
   x2="569.69"
   y1="499.88"
   x1="436.42"
   gradientTransform="matrix(1.4355687,0,0,1.4355687,-74.197188,-288.53532)">
	<stop
   style="stop-color:#65A9CE"
   offset="0"
   id="stop376" />
	<stop
   style="stop-color:#5B8FB7"
   offset=".618"
   id="stop378" />
</linearGradient>
<path
   d="m 612.00463,346.70382 c -19.73907,-6.81896 -29.23966,0.10909 -29.98185,12.04297 -0.73071,11.73435 17.38329,27.19972 12.85121,37.65498 -3.97078,9.16323 -28.22328,2.03276 -36.54384,1.98252 -3.79852,-0.023 -16.45879,-3.40949 -18.45854,-0.83694 -4.41294,5.67624 11.29218,14.82655 15.06917,16.2693 39.24269,14.98877 60.95567,23.92805 76.44402,29.78804 13.27902,5.02449 22.81549,6.34809 35.92511,7.21374 12.21813,0.80822 22.81406,5.70782 34.6575,5.70782 -12.00279,-6.90078 -23.9137,-13.53023 -36.36726,-19.14188 -6.76297,-3.04771 -11.11561,-6.1873 -17.70631,-9.5695 -4.27081,-2.19067 -14.12026,-7.92577 -15.71373,-11.52186 11.41277,0.043 20.98802,-0.43068 35.09966,1.11974 16.56789,1.82461 29.58132,8.46698 35.2231,7.31709 -3.26879,-3.81862 92.00991,10.46673 84.28798,8.47417 -6.90508,-1.78154 -21.40577,-41.46784 -32.65919,-50.84355 -11.48455,-9.56949 -43.85088,-34.28281 -47.37376,-36.8453 -15.79126,-11.48454 -24.05439,-18.39968 -31.10447,-21.53497 -176.57494,-78.46817 -31.76913,37.23866 -37.79852,34.22396 -8.26601,-4.13013 -22.25131,-9.69009 -27.2758,-12.20233"
   fill="url(#SVGID_33_)"
   id="path381"
   style="fill:url(#SVGID_33_);stroke-width:1.43557" />

<path
   opacity="0.66"
   d="m 711.30291,418.12335 c -3.33627,-2.21365 16.15015,2.87114 24.84251,3.26592 2.31271,0.1048 7.44199,0.36176 9.73029,0.68189 5.19389,0.72354 7.17641,3.10658 12.16357,5.02449 10.05186,3.866 18.34514,7.77648 29.4105,5.33745 -5.79396,-3.10226 -11.22471,-6.70841 -17.2096,-9.64415 -5.95186,-2.91995 -12.36168,-6.80747 -17.67472,-10.83854 -6.00642,-4.5565 -11.26778,-9.50203 -17.58572,-13.64508 -2.80079,-1.8361 -5.39629,-3.17692 -8.58326,-4.2177 -2.37874,-0.77665 -6.68258,-1.26043 -7.8583,-3.4626 7.21803,-0.80965 16.71289,2.63141 23.29066,5.25562 8.18848,3.26736 16.32385,4.55075 24.38457,8.24591 9.13883,4.19042 15.13807,6.67109 23.32799,12.20233 7.87123,5.31448 12.92012,15.79125 24.44774,21.49765 -1.56334,4.93404 -14.36,5.96765 -18.94521,5.77815 -6.68831,-0.27418 -14.97011,-0.19379 -21.57229,-1.53318 -7.63148,-1.55042 -15.25291,-4.52204 -22.69059,-7.08022 -11.48455,-3.91911 -29.42916,-12.17362 -39.47814,-16.83922"
   fill="#1c4866"
   id="path389"
   style="stroke-width:1.43557" />
<g
   id="g406"
   transform="matrix(1.4355687,0,0,1.4355687,-74.197188,-288.53531)">
	<path
   opacity="0.66"
   d="m 545,464.67 c -4.762,-2.938 -14.833,-8.434 -20,-10.334 -5.286,-1.942 -8.001,-3.5 -15.001,-5.833 -5.174,-1.725 -11.563,-2.794 -16.75,-4.5 -2.519,-0.828 -5.94,-1.521 -8.5,-2.25 -2.192,-0.623 -6.609,-0.977 -7.75,0.25 3.808,1.773 8.046,3.031 9.708,3.838 3.163,1.535 15.827,7.604 18.954,9.25 3.218,1.695 6.259,3.387 9.338,5.375 3.118,2.015 6.06,4.743 8.671,7.413 1.16,1.186 2.636,5.736 2.67,6.453 0.07,1.475 -0.073,1.139 0.706,2.288 0.868,1.28 2.205,2.47 3.62,3.22 4.083,2.163 2.731,-0.568 1.8,-2.54 -1.32,-2.795 -2.305,-6.223 -0.32,-9.129 1.798,-2.635 5.172,-3.131 8.021,-4.168"
   fill="#4880ad"
   id="path391" />
	<path
   d="m 544.67,467.33 c -6.75,-1.75 -8.99,3.661 -9.5,5.625 -1.188,4.571 2,8.5 7.375,9.25 -5.125,9.625 -15.421,-3.982 -15.761,-5.535 2.167,1.499 4.149,4.04 7.042,3.965 -1.734,-4.279 -5.803,-7.689 -3.125,-12.861 2.78,-5.38 9.47,-5.82 13.97,-0.45"
   fill="#183c51"
   id="path393" />
	<ellipse
   cy="473.69"
   cx="540.13"
   rx="8.8660002"
   ry="8.9379997"
   fill="#ffffff"
   id="ellipse395" />
	<linearGradient
   id="SVGID_34_"
   y2="474.5"
   gradientUnits="userSpaceOnUse"
   x2="548.42999"
   y1="474.5"
   x1="535.90997">
		<stop
   style="stop-color:#242424"
   offset="0"
   id="stop397" />
		<stop
   style="stop-color:#000000"
   offset=".6348"
   id="stop399" />
	</linearGradient>
	<circle
   cy="474.5"
   cx="542.16998"
   r="6.2579999"
   fill="url(#SVGID_34_)"
   id="circle402"
   style="fill:url(#SVGID_34_)" />
	<polygon
   points="541.12,474.22 533.98,471.21 533.5,476.09 "
   fill="#ffffff"
   id="polygon404" />
</g>
<path
   d="m 732.2335,423.86563 c -0.46512,-6.79599 8.39664,-4.43303 9.98295,0.41201 -3.58318,-4.47611 -9.41877,0.14212 -6.27631,4.3871 -2.49646,-1.45998 -3.81575,-3.7411 -5.14221,-6.23468"
   fill="#1e3f51"
   id="path408"
   style="stroke-width:1.43557" />
<linearGradient
   id="SVGID_35_"
   y2="382.45"
   gradientUnits="userSpaceOnUse"
   x2="339.84"
   y1="451.55"
   x1="191.66"
   gradientTransform="matrix(1.4355687,0,0,1.4355687,-74.197188,-288.53532)">
	<stop
   style="stop-color:#C0DBE7"
   offset="0"
   id="stop410" />
	<stop
   style="stop-color:#5B8FB7"
   offset=".618"
   id="stop412" />
</linearGradient>
<path
   d="m 460.55214,361.0595 -36.607,8.61341 -31.58251,-10.76677 -54.55161,-20.09796 -13.6379,-6.46006 -8.25453,-10.04898 c 0,0 -14.35568,-6.46005 -19.73906,-5.74227 -5.38339,0.71778 -4.6656,3.94782 -7.89564,2.15335 -3.23002,-1.79446 -53.83381,-29.42915 -53.83381,-29.42915 l -33.49183,-15.07347 -26.31828,-8.13537 -20.58605,-6.93379 c 0,0 38.76035,9.33119 42.34928,10.04898 3.58892,0.71778 5.02449,2.63139 14.35568,5.74227 9.3312,3.11087 9.3312,3.58892 12.92013,5.74228 3.58891,2.15334 7.89562,-0.23974 11.48454,1.43556 3.58893,1.67531 0.71778,5.50253 10.04898,7.89563 9.3312,2.39309 28.47163,11.00651 35.17144,13.6379 6.6998,2.6314 24.8827,5.02449 33.73585,7.89563 8.85316,2.87113 22.25132,12.92011 22.25132,12.92011 0,0 5.74227,4.78475 16.50904,9.3312 10.76677,4.54645 27.99359,8.61342 27.99359,8.61342 0,0 10.76677,0 16.50903,2.87113 5.74228,2.87114 15.07348,6.46006 15.07348,6.46006 0,0 9.3312,3.58892 14.35569,4.3067 5.02449,0.71779 22.25131,3.58892 22.25131,3.58892 l 11.48454,1.43557 z"
   fill="url(#SVGID_35_)"
   id="path415"
   style="fill:url(#SVGID_35_);stroke-width:1.43557" />

<linearGradient
   id="SVGID_36_"
   y2="352.77"
   gradientUnits="userSpaceOnUse"
   x2="395.9"
   y1="382.93"
   x1="331.22"
   gradientTransform="matrix(1.4355687,0,0,1.4355687,-74.197188,-288.53532)">
	<stop
   style="stop-color:#5B8FB7"
   offset="0"
   id="stop419" />
	<stop
   style="stop-color:#3E627F"
   offset="1"
   id="stop421" />
</linearGradient>
<path
   opacity="0.43"
   d="m 504.33698,239.75395 c -12.20233,2.87114 -20.09796,-3.58892 -41.63149,9.33119 -21.53354,12.92012 -20.09796,10.76677 -27.27581,20.09796 -7.17784,9.33121 -18.66239,21.53353 -26.55801,7.89563 -7.89563,-13.63789 2.87113,-10.76676 1.43556,-25.84023 -1.43556,-15.07347 -7.89562,-17.94461 -10.04898,-19.38017 -2.15335,-1.43558 10.04898,-2.15336 24.40466,-2.15336 14.3557,0 17.94462,-0.35889 33.73587,1.79446 15.79126,2.15335 45.9382,8.25452 45.9382,8.25452 z"
   fill="url(#SVGID_36_)"
   id="path424"
   style="fill:url(#SVGID_36_);stroke-width:1.43557" />

<path
   d="m 392.36263,234.9735 c -37.32479,0.47805 -116.75911,2.39167 -135.90098,5.2628 -19.14188,2.87114 -43.5408,4.78044 -53.58978,6.21601 -10.04898,1.43557 9.09145,0.9561 35.88921,-0.95752 26.79777,-1.91362 61.72945,-2.3931 82.30546,-4.30671 20.576,-1.91361 71.3047,-6.21601 71.3047,-6.21601 z"
   fill="#5b8fb7"
   id="path428"
   style="stroke-width:1.43557" />
<linearGradient
   id="SVGID_37_"
   y2="445.26"
   gradientUnits="userSpaceOnUse"
   x2="434.08"
   y1="453.74"
   x1="415.92">
	<stop
   style="stop-color:#C0DBE7"
   offset="0"
   id="stop430" />
	<stop
   style="stop-color:#5B8FB7"
   offset=".618"
   id="stop432" />
</linearGradient>

<path
   d="m 138.62587,260.2108 c 0,0 -11.84345,-3.23003 -13.27901,-3.94781 -1.43557,-0.71779 -7.17785,-3.23003 -7.17785,-3.23003 0,0 -2.07727,3.43675 -6.81895,12.92012 -6.10117,12.20233 -15.073473,27.2758 -15.073473,27.2758 0,0 -7.177846,9.69009 -5.742268,11.12566 1.435567,1.43556 3.848752,1.02069 11.843441,-6.10117 19.73907,-17.58572 26.91691,-28.35248 29.78805,-30.86472 2.87114,-2.51225 6.46006,-7.17785 6.46006,-7.17785 z"
   fill="#1c6078"
   id="path437"
   style="stroke-width:1.43557" />
<path
   d="m 147.23928,263.08194 -25.84024,-8.61342 c 0,0 4.6656,4.30671 6.81895,9.69009 2.15336,5.38338 1.43558,8.97231 0.71779,11.12566 -0.71779,2.15336 -3.58892,10.04898 -3.58892,10.04898 z"
   fill="#1d4a60"
   id="path439"
   style="stroke-width:1.43557" />
<metadata
   id="metadata441"><rdf:RDF><cc:Work><dc:format>image/svg+xml</dc:format><dc:type
         rdf:resource="http://purl.org/dc/dcmitype/StillImage" /><cc:license
         rdf:resource="http://creativecommons.org/licenses/publicdomain/" /><dc:publisher><cc:Agent
           rdf:about="http://openclipart.org/"><dc:title>Openclipart</dc:title></cc:Agent></dc:publisher><dc:title>Blue Shark</dc:title><dc:date>2010-09-26T21:57:35</dc:date><dc:description>a blue shark i drew at least i think that is was it was</dc:description><dc:source>https://openclipart.org/detail/87139/blue-shark-by-wildchief</dc:source><dc:creator><cc:Agent><dc:title>wildchief</dc:title></cc:Agent></dc:creator><dc:subject><rdf:Bag><rdf:li>animal</rdf:li><rdf:li>blue</rdf:li><rdf:li>blueshark</rdf:li><rdf:li>fish</rdf:li><rdf:li>ocean</rdf:li><rdf:li>sea</rdf:li><rdf:li>shark</rdf:li></rdf:Bag></dc:subject></cc:Work><cc:License
       rdf:about="http://creativecommons.org/licenses/publicdomain/"><cc:permits
         rdf:resource="http://creativecommons.org/ns#Reproduction" /><cc:permits
         rdf:resource="http://creativecommons.org/ns#Distribution" /><cc:permits
         rdf:resource="http://creativecommons.org/ns#DerivativeWorks" /></cc:License></rdf:RDF></metadata><path
   d="m 561.63913,407.00343 c -17.25123,-18.39824 -1.79732,-60.48481 1.33365,-82.39015 -15.62042,20.09653 -19.19642,61.14087 -10.18536,74.01649 3.34487,4.78044 8.82874,8.34065 8.8431,8.36936"
   fill="#673366"
   id="path170"
   style="stroke-width:1.43557" /><path
   d="m 538.1963,394.08332 c -1.91505,-3.34918 -5.26423,-16.74735 -3.11087,-27.51411 7.9674,-39.83272 20.55303,-44.80841 19.14186,-44.26432 -3.11087,1.19726 -15.79269,15.31178 -18.90212,22.01157 -3.10945,6.6998 -5.25419,19.83956 -5.25419,31.10878 0,8.85745 8.13968,18.66239 8.13968,18.66239 z"
   fill="#673366"
   id="path172"
   style="stroke-width:1.43557" /><path
   d="m 531.49219,318.47192 c -4.3067,4.78475 -13.87763,22.9691 -15.07347,30.62498 -0.58284,3.73392 -1.59205,15.55008 -1.19583,25.84024 0.23974,6.22032 3.82867,11.96259 3.82867,11.96259 0,0 -0.23974,-2.62995 -0.23974,-11.00507 0,-15.09069 2.39309,-27.51554 7.41758,-40.43565 5.02449,-12.92013 9.5695,-20.81575 9.5695,-20.81575 0,0 -0.0144,-0.93312 -4.32106,3.84732 z"
   fill="#673366"
   id="path174"
   style="stroke-width:1.43557" /><path
   d="m 510.03045,378.29207 c -3.32622,-17.32302 -3.74253,-38.97857 -0.41632,-48.07289 3.32621,-9.09576 10.39495,-20.35493 10.39495,-20.35493 0,0 -4.57515,12.55836 -5.82122,18.18866 -1.24752,5.63173 -2.49359,10.39351 -2.90991,16.8909 -0.41632,6.49738 -1.23459,33.34826 -1.23459,33.34826 z"
   fill="#673366"
   id="path176"
   style="stroke-width:1.43557" /></svg>
