<?xml version="1.0" encoding="UTF-8" standalone="no"?>
<svg
   xmlns:dc="http://purl.org/dc/elements/1.1/"
   xmlns:cc="http://creativecommons.org/ns#"
   xmlns:rdf="http://www.w3.org/1999/02/22-rdf-syntax-ns#"
   xmlns:svg="http://www.w3.org/2000/svg"
   xmlns="http://www.w3.org/2000/svg"
   xmlns:sodipodi="http://sodipodi.sourceforge.net/DTD/sodipodi-0.dtd"
   xmlns:inkscape="http://www.inkscape.org/namespaces/inkscape"
   id="svg2"
   sodipodi:docname="telescope.svg"
   viewBox="0 0 332.59842 472.44096"
   version="1.1"
   inkscape:version="1.0.2-2 (e86c870879, 2021-01-15)"
   width="88mm"
   height="125mm">
  <defs
     id="defs61" />
  <sodipodi:namedview
     id="base"
     bordercolor="#666666"
     inkscape:pageshadow="2"
     inkscape:window-y="-8"
     pagecolor="#ffffff"
     inkscape:window-height="1017"
     inkscape:window-maximized="1"
     inkscape:zoom="0.78743629"
     inkscape:window-x="-8"
     showgrid="false"
     borderopacity="1.0"
     inkscape:current-layer="layer1"
     inkscape:cx="251.29812"
     inkscape:cy="387.33292"
     inkscape:window-width="1920"
     inkscape:pageopacity="0.0"
     inkscape:document-units="px"
     inkscape:document-rotation="0"
     units="mm" />
  <g
     id="layer1"
     inkscape:label="Layer 1"
     inkscape:groupmode="layer"
     transform="translate(-55.651,-118.59)">
    <g
       id="g3818"
       transform="matrix(0.59366757,0,0,0.59366757,30.230143,54.536165)">
      <path
         id="path3610"
         sodipodi:nodetypes="ccccc"
         style="fill:#ececec;stroke:#000000;stroke-width:1px"
         d="m 310.29,403.98 92.565,69.251 2.9546,-3.6602 -92.426,-68.837 -3.0942,3.2454 z" />
      <path
         id="path3606"
         sodipodi:nodetypes="ccccc"
         style="fill:#ececec;stroke:#000000;stroke-width:1px"
         d="m 255.5,445.14 -79.776,93.962 c 0.77981,5.167 3.8471,6.331 7.5852,6.321 l 78.512,-94.241 -6.321,-6.0416 z" />
      <path
         id="path3688"
         sodipodi:nodetypes="cccc"
         style="fill:#989698;stroke:#000000;stroke-width:1px;stroke-linejoin:round"
         d="m 359.86,457.21 3.5,2.833 -19.179,22.63 -3.2214,-2.4445" />
      <path
         id="path3602"
         sodipodi:nodetypes="ccccc"
         style="fill:#161516;stroke:#000000;stroke-width:1px"
         d="m 273.07,432.91 67.766,47.221 18.963,-22.922 -67.072,-48.986 z" />
      <path
         id="path3600"
         sodipodi:nodetypes="cccc"
         style="fill:#343331;stroke:#000000;stroke-width:1px"
         d="m 291.19,488.28 3.3738,-50.125 c 11.559,-10.75 24.165,-15.798 40.595,0 l 4.1834,49.275" />
      <rect
         id="rect3668"
         style="color:#000000;fill:#000000;stroke:#000000;stroke-width:0.4;stroke-linecap:round;stroke-linejoin:round"
         ry="1.34"
         height="64.848"
         width="94.092003"
         y="486.54001"
         x="268.29001" />
      <path
         id="path3674"
         sodipodi:nodetypes="cccc"
         style="fill:#87421b;stroke:#5c310e;stroke-width:1px"
         d="m 275.23,530.61 9.0361,-1.2757 7.8668,8.292 -9.4614,-0.53154" />
      <path
         id="path3666"
         sodipodi:nodetypes="cccc"
         style="fill:#7d5922;stroke:#572900;stroke-width:1px"
         d="m 282.62,537.46 8.6297,0.71914 -216.85,345.18 -7.9706,6.6043" />
      <path
         id="path3664"
         sodipodi:nodetypes="cccc"
         style="fill:#7d5922;stroke:#5f2900;stroke-width:1px"
         d="m 358.92,534.29 14.576,-0.32651 140.81,315.64 -0.64133,20.404" />
      <path
         id="rect2816"
         d="m 247.88,-37.984 h 484.36 c 2.9826,0 5.3837,2.4011 5.3837,5.3837 16.472,42.478 10.678,74.767 0,104.82 0,2.9826 -2.4011,5.3837 -5.3837,5.3837 H 247.88 c -2.9826,0 -5.3837,-2.4011 -5.3837,-5.3837 -10.311,-41.565 -7.5348,-74.721 0,-104.82 0,-2.9826 2.4011,-5.3837 5.3837,-5.3837 z"
         sodipodi:nodetypes="ccccccccc"
         style="color:#000000;fill:#000000;stroke:#514f58;stroke-width:0.4;stroke-linecap:round;stroke-linejoin:round"
         transform="rotate(38.845)" />
      <path
         id="path3590"
         sodipodi:nodetypes="ccccc"
         style="fill:#9a723d;stroke:#553000;stroke-width:1px"
         d="m 59.711,877.85 192.17,-365.47 30.47,24.73 -215.74,352.82 c -9.732,5.3881 -14.064,3.9367 -6.9007,-12.076 z" />
      <path
         id="path3592"
         sodipodi:nodetypes="ccccc"
         style="fill:#9a723d;stroke:#522d00;stroke-width:1px"
         d="m 345.04,553.78 13.801,-18.977 153.19,323.25 c 5.3087,28.685 -6.4442,13.497 -15.527,5.1756 l -151.46,-309.45 z" />
      <path
         id="path3594"
         sodipodi:nodetypes="ccccc"
         style="fill:#764b19;stroke:#562f00;stroke-width:1px"
         d="m 329.51,552.06 -31.053,-1.7252 -13.801,192.75 c 3.101,5.9392 6.5331,6.2491 10.351,0 l 34.504,-191.02 z" />
      <path
         id="path3604"
         sodipodi:nodetypes="ccccc"
         style="fill:#000000;stroke:#000000;stroke-width:1px"
         d="m 246.78,439.64 63.636,-76.836 20.8,18.272 -63.21,75.852 -21.226,-17.287 z" />
      <path
         id="path3614"
         sodipodi:nodetypes="ccccc"
         style="fill:#000000;stroke:#000000;stroke-width:1px"
         d="m 301.62,340.12 -11.058,13.956 55.829,45.958 10.484,-13.012 -55.254,-46.902 z" />
      <g
         id="g3641"
         transform="matrix(0.7815,0.62391,-0.62391,0.7815,162.83,-105.56)">
        <path
           id="rect3639"
           sodipodi:nodetypes="ccccc"
           style="color:#000000;fill:#000000;stroke:#514f58;stroke-width:0.4;stroke-linecap:round;stroke-linejoin:round"
           d="m 314.78,104.22 h 58.153 c 3.6694,6.6592 5.5368,12.269 0,21.491 H 314.78 Z" />
        <path
           id="rect3637"
           sodipodi:nodetypes="ccccc"
           style="color:#000000;fill:#000000;stroke:#514f58;stroke-width:0.4;stroke-linecap:round;stroke-linejoin:round"
           d="m 249.05,100.43 h 65.738 c 6.5532,12.275 5.7609,20.942 0,30.341 H 249.05 c -4.4964,-8.4621 -5.4898,-18.211 0,-30.341 z" />
      </g>
      <path
         id="path3645"
         sodipodi:nodetypes="ccccc"
         style="fill:none;stroke:#000000;stroke-width:4"
         d="m 289.5,187.65 15.726,-13.906 18.407,15.17 -10.114,16.434 -24.03,-17.69 z" />
      <path
         id="path3649"
         sodipodi:nodetypes="ccccc"
         style="fill:none;stroke:#4b4b4f;stroke-width:1px"
         d="m 213.63,170.84 -16.413,20.607 39.38,28.908 17.341,-23.694 -37.031,-25.452" />
      <rect
         id="rect3658"
         ry="7.6013999"
         style="color:#000000;fill:#000000;stroke:#59595c;stroke-width:0.4;stroke-linecap:round;stroke-linejoin:round"
         transform="matrix(0.77264,0.63484,-0.63484,0.77264,0,0)"
         height="38.007"
         width="54.476002"
         y="257.95001"
         x="456.76999" />
      <rect
         id="rect3660"
         ry="5.6554999"
         style="color:#000000;fill:#000000;stroke:#59595c;stroke-width:0.4;stroke-linecap:round;stroke-linejoin:round"
         transform="matrix(0.57544,-0.81784,0.81784,0.57544,0,0)"
         height="16.469999"
         width="27.872"
         y="595.47998"
         x="-166.71001" />
      <rect
         id="rect3662"
         ry="1.2349"
         style="color:#000000;fill:#000000;stroke:#000000;stroke-width:0.4001;stroke-linecap:round;stroke-linejoin:round"
         transform="matrix(0.80847,0.58854,-0.56222,0.82699,0,0)"
         height="24.403999"
         width="15.659"
         y="266.92999"
         x="510.32999" />
      <path
         id="path3670"
         sodipodi:nodetypes="cccc"
         style="fill:#965c1b;stroke:#5a2a00;stroke-width:1px"
         d="m 251.84,512 12.544,-1.4883 8.9298,8.5046 -10.206,2.0198" />
      <path
         id="path3676"
         style="fill:#000000;stroke:#000000;stroke-width:1px"
         d="m 263.43,521.57 c 0.74416,-0.10631 11.906,-2.6577 11.906,-2.6577 l 8.6109,9.355 -9.4614,1.9135 -11.056,-8.6109 z" />
      <rect
         id="rect3678"
         ry="1.2167"
         style="color:#000000;fill:#000000;stroke:#000000;stroke-width:0.41817;stroke-linecap:round;stroke-linejoin:round"
         transform="matrix(0.99997,-0.0079871,0.41075,0.91175,0,0)"
         height="9.4513998"
         width="8.4349003"
         y="586.57001"
         x="121.55" />
      <path
         id="path3680"
         sodipodi:nodetypes="ccccc"
         style="fill:#000000;stroke:#000000;stroke-width:1px"
         d="m 361.32,532.02 c 0.61492,0.12298 8.5885,2.0252 8.5885,2.0252 l -6.952,0.15947 -2.9893,-1.0778 1.9677,-0.86088" />
      <circle
         id="path3682"
         style="color:#000000;fill:#d6d1de;stroke:#a1a1a0;stroke-width:0.4;stroke-linecap:round;stroke-linejoin:round"
         transform="translate(-2.3346,-1.6676)"
         cx="317.42142"
         cy="448.953"
         r="7.7541871" />
      <path
         id="path3684"
         style="fill:#babbbd;fill-rule:evenodd;stroke:#727472;stroke-width:0.3"
         sodipodi:type="star"
         d="m 315.83723,447.8691 -5.63381,1.75373 -4.33567,-4.00216 1.29813,-5.75589 5.63381,-1.75372 4.33568,4.00216 z"
         sodipodi:r1="5.900455"
         inkscape:flatsided="true"
         transform="translate(3.5019,3.3351)"
         sodipodi:arg2="1.2690183"
         sodipodi:arg1="0.74541948"
         inkscape:randomized="0"
         sodipodi:cy="443.86694"
         sodipodi:cx="311.50156"
         inkscape:rounded="0"
         sodipodi:r2="5.1099439"
         sodipodi:sides="6" />
      <circle
         id="path3686"
         style="color:#000000;fill:#161516;stroke:#727472;stroke-width:0.8;stroke-linecap:round;stroke-linejoin:round"
         transform="translate(2.8349,2.6681)"
         cx="300.49561"
         cy="414.01749"
         r="8.0043221" />
      <rect
         id="rect3690"
         ry="1.34"
         style="color:#000000;fill:#ececec;stroke:#727472;stroke-width:0.8;stroke-linecap:round;stroke-linejoin:round"
         transform="rotate(40.063)"
         height="3.3518"
         width="16.200001"
         y="295.22"
         x="478.44" />
      <path
         id="path3692"
         sodipodi:nodetypes="cccc"
         style="fill:#000000;stroke:#000000;stroke-width:1px"
         d="m 202.51,502.94 8.3795,-10.335 c 5.1264,1.3799 9.4912,5.0444 13.128,10.893 l -7.8209,9.2175" />
      <path
         id="path3694"
         style="fill:#000000;stroke:#000000;stroke-width:1px"
         d="m 356.13,469.15 16.2,12.849 -4.1898,5.0277 -16.48,-13.128 4.4691,-4.7484 z" />
      <path
         id="path3696"
         style="fill:#000000;stroke:#000000;stroke-width:1px"
         d="m 289.05,331.67 -3.677,4.6984 12.257,10.214 5.1069,-5.7198" />
      <path
         id="path3696-8"
         sodipodi:nodetypes="cccc"
         style="fill:#000000;stroke:#000000;stroke-width:1px"
         d="m 356.16,384.68 -5.5155,5.924 13.278,10.01 5.1069,-5.7198" />
      <path
         id="path3720"
         sodipodi:nodetypes="ccccc"
         style="fill:#141418;stroke:#5c5c5c;stroke-width:1px"
         d="m 286.18,329.65 76.506,-88.21 10.785,8.6401 -76.506,88.823 -10.785,-9.2529 z" />
      <path
         id="path3720-9"
         sodipodi:nodetypes="ccccc"
         style="fill:#141418;stroke:#5c5c5c;stroke-width:1px"
         d="m 360.93,390.75 76.506,-88.21 10.785,8.6401 -76.506,88.823 -10.785,-9.2529 z" />
      <path
         id="path3746"
         sodipodi:nodetypes="cccc"
         style="fill:#141418;stroke:#000000;stroke-width:1px"
         d="m 284.81,180.86 5.9011,-4.9694 34.475,29.506 -4.9694,6.5223" />
      <path
         id="path3770"
         sodipodi:nodetypes="ccccc"
         style="fill:#cacbcb;stroke:#8d8c8e;stroke-width:1px"
         d="m 216.48,176.82 31.68,21.741 -2.4847,3.4164 -31.68,-21.43 2.4847,-3.727 z" />
      <path
         id="path3651"
         sodipodi:nodetypes="ccccc"
         style="fill:#141418;stroke:#525353;stroke-width:1px"
         d="m 212.08,164.22 -12.937,16.693 9.9722,7.1483 12.326,-16.849 -9.3612,-6.9918 z" />
      <path
         id="path3651-4"
         sodipodi:nodetypes="ccccc"
         style="fill:#141418;stroke:#525353;stroke-width:1px"
         d="m 250.59,190.05 -12.529,17.001 10.143,6.9043 11.914,-17.143 -9.528,-6.7627 z" />
      <path
         id="path3647"
         sodipodi:nodetypes="ccccc"
         style="fill:#141218;stroke:#454545;stroke-width:1px"
         d="m 217.44,185.13 c 1.2642,-6.321 38.547,-65.76 38.547,-65.76 12.136,-1.4918 19.146,2.9315 20.516,13.862 l -37.571,65.804 c -9.4964,-0.18221 -20.691,2.8776 -21.491,-13.906 z" />
      <path
         id="path3772"
         sodipodi:nodetypes="cc"
         style="fill:none;stroke:#444148;stroke-width:1px"
         d="m 256.03,119.42 c -6.0784,10.986 12.522,22.805 20.271,14.147" />
      <ellipse
         id="path3774"
         style="color:#000000;fill:#141218;stroke:#656664;stroke-width:4;stroke-linecap:round;stroke-linejoin:round"
         transform="matrix(0.88283,0.46969,-0.46969,0.88283,89.343,-109.49)"
         cx="266.51746"
         cy="125.76917"
         rx="3.2525461"
         ry="1.53061" />
      <path
         id="path3800"
         style="color:#000000;fill:#ccd7db;stroke:#656664;stroke-width:0.5;stroke-linecap:round;stroke-linejoin:round"
         d="m 232.34,193.03 c -4.8239,-1.0496 -8.487,-5.043 -10.816,-11.792 l -0.70951,-2.0559 1.4922,-2.7273 c 1.6656,-3.0443 7.2951,-12.788 7.5161,-13.01 0.0781,-0.0781 0.42766,0.65369 0.77689,1.6263 2.3614,6.5763 6.0712,10.536 11.089,11.836 1.823,0.47222 5.3694,0.51229 7.57,0.0856 0.8345,-0.16184 1.5488,-0.26274 1.5873,-0.22423 0.0385,0.0385 -1.9205,3.5596 -4.3534,7.8246 l -4.4235,7.7546 -1.2774,0.29914 c -3.2545,0.76218 -6.1133,0.89166 -8.4521,0.38279 z" />
      <circle
         id="path3802"
         style="color:#000000;fill:#ccd7db;stroke:#656664;stroke-width:0.5;stroke-linecap:round;stroke-linejoin:round"
         cx="201.60049"
         cy="191.35265"
         r="1.0742477" />
      <circle
         id="path3804"
         style="color:#000000;fill:#ccd7db;stroke:#656664;stroke-width:0.5;stroke-linecap:round;stroke-linejoin:round"
         cx="236.06593"
         cy="216.14986"
         r="1.1637684" />
      <ellipse
         id="path3806"
         style="color:#000000;fill:#ccd7db;stroke:#656664;stroke-width:0.5;stroke-linecap:round;stroke-linejoin:round"
         cx="561.31525"
         cy="484.06223"
         rx="2.5398879"
         ry="3.17486" />
      <ellipse
         id="path3808"
         style="color:#000000;fill:#ccd7db;stroke:#656664;stroke-width:0.5;stroke-linecap:round;stroke-linejoin:round"
         cx="586.71411"
         cy="438.34427"
         rx="2.5398879"
         ry="3.17486" />
      <ellipse
         id="path3810"
         style="color:#000000;fill:#ccd7db;stroke:#656664;stroke-width:0.5;stroke-linecap:round;stroke-linejoin:round"
         cx="526.39178"
         cy="512.63599"
         rx="3.17486"
         ry="1.269944" />
      <ellipse
         id="path3812"
         style="color:#000000;fill:#ccd7db;stroke:#656664;stroke-width:0.5;stroke-linecap:round;stroke-linejoin:round"
         cx="149.62022"
         cy="211.907"
         rx="1.5447515"
         ry="1.8757697" />
      <ellipse
         id="path3814"
         style="color:#000000;fill:#ccd7db;stroke:#656664;stroke-width:0.5;stroke-linecap:round;stroke-linejoin:round"
         cx="175.3293"
         cy="168.54361"
         rx="2.3171272"
         ry="2.2067878" />
      <ellipse
         id="path3816"
         style="color:#000000;fill:#ccd7db;stroke:#656664;stroke-width:0.5;stroke-linecap:round;stroke-linejoin:round"
         cx="213.94809"
         cy="130.47652"
         rx="1.6550909"
         ry="1.2137333" />
    </g>
  </g>
  <metadata
     id="metadata58">
    <rdf:RDF>
      <cc:Work>
        <dc:format>image/svg+xml</dc:format>
        <dc:type
           rdf:resource="http://purl.org/dc/dcmitype/StillImage" />
        <cc:license
           rdf:resource="http://creativecommons.org/publicdomain/zero/1.0/" />
        <dc:publisher>
          <cc:Agent
             rdf:about="http://openclipart.org/">
            <dc:title>Openclipart</dc:title>
          </cc:Agent>
        </dc:publisher>
        <dc:title>Reflector telescope</dc:title>
        <dc:date>2010-05-27T05:48:29</dc:date>
        <dc:description>A simplified reflector telescope on tripod. Drawn in Inkscape.</dc:description>
        <dc:source>https://openclipart.org/detail/63175/reflector-telescope-by-j_alves</dc:source>
        <dc:creator>
          <cc:Agent>
            <dc:title>J_Alves</dc:title>
          </cc:Agent>
        </dc:creator>
        <dc:subject>
          <rdf:Bag>
            <rdf:li>astronomy</rdf:li>
            <rdf:li>cosmic</rdf:li>
            <rdf:li>newtonian</rdf:li>
            <rdf:li>optics</rdf:li>
            <rdf:li>reflector</rdf:li>
            <rdf:li>science</rdf:li>
            <rdf:li>star</rdf:li>
            <rdf:li>telescope</rdf:li>
          </rdf:Bag>
        </dc:subject>
      </cc:Work>
      <cc:License
         rdf:about="http://creativecommons.org/publicdomain/zero/1.0/">
        <cc:permits
           rdf:resource="http://creativecommons.org/ns#Reproduction" />
        <cc:permits
           rdf:resource="http://creativecommons.org/ns#Distribution" />
        <cc:permits
           rdf:resource="http://creativecommons.org/ns#DerivativeWorks" />
      </cc:License>
    </rdf:RDF>
  </metadata>
</svg>
