<?xml version="1.0" encoding="UTF-8" standalone="no"?>
<svg
   xmlns:dc="http://purl.org/dc/elements/1.1/"
   xmlns:cc="http://creativecommons.org/ns#"
   xmlns:rdf="http://www.w3.org/1999/02/22-rdf-syntax-ns#"
   xmlns:svg="http://www.w3.org/2000/svg"
   xmlns="http://www.w3.org/2000/svg"
   xmlns:sodipodi="http://sodipodi.sourceforge.net/DTD/sodipodi-0.dtd"
   xmlns:inkscape="http://www.inkscape.org/namespaces/inkscape"
   id="svg1419"
   sodipodi:docname="thermometer.svg"
   viewBox="0 0 332.59843 472.44093"
   sodipodi:version="0.32"
   version="1.0"
   inkscape:output_extension="org.inkscape.output.svg.inkscape"
   inkscape:version="1.0.2-2 (e86c870879, 2021-01-15)"
   width="88mm"
   height="125mm">
  <defs
     id="defs1421">
    <linearGradient
       id="linearGradient5816"
       y2="501.79999"
       gradientUnits="userSpaceOnUse"
       y1="501.79999"
       x2="358.5"
       x1="271.59"
       inkscape:collect="always">
      <stop
         id="stop3620"
         style="stop-color:#ffffff"
         offset="0" />
      <stop
         id="stop3622"
         style="stop-color:#ffffff;stop-opacity:0"
         offset="1" />
    </linearGradient>
  </defs>
  <sodipodi:namedview
     id="base"
     bordercolor="#666666"
     inkscape:pageshadow="2"
     inkscape:window-width="1920"
     pagecolor="#ffffff"
     inkscape:zoom="0.52738497"
     inkscape:window-x="-8"
     borderopacity="1.0"
     inkscape:current-layer="layer1"
     inkscape:cx="372.04724"
     inkscape:cy="526.18109"
     inkscape:window-y="-8"
     inkscape:window-height="1017"
     inkscape:pageopacity="0.0"
     inkscape:document-units="px"
     inkscape:document-rotation="0"
     showgrid="false"
     units="mm"
     inkscape:window-maximized="1" />
  <g
     id="layer1"
     inkscape:label="Ebene 1"
     inkscape:groupmode="layer"
     transform="translate(-175.56,-59.89)">
    <path
       id="rect1427"
       style="fill:#d0d07f;stroke:#000000;stroke-width:2.83865;stroke-linejoin:round"
       d="m 309.15585,74.583014 c -17.54514,0 -31.68103,14.807209 -31.68103,33.216026 v 382.08487 c 0,18.40437 14.13589,33.21657 31.68103,33.21657 h 87.12145 c 17.55068,0 31.66994,-14.8122 31.66994,-33.21657 V 107.79904 c 0,-18.408817 -14.11926,-33.216026 -31.66994,-33.216026 z m 43.55518,12.28215 c 5.29958,0 9.61241,4.504638 9.61241,10.068637 0,5.560119 -4.31283,10.083599 -9.61241,10.083599 -5.30511,0 -9.60132,-4.52348 -9.60132,-10.083599 0,-5.563999 4.29621,-10.068637 9.60132,-10.068637 z" />
    <g
       id="g5812"
       transform="matrix(0.55434874,0,0,0.58722162,178.06335,12.964934)">
      <path
         id="rect2161"
         style="fill:url(#linearGradient5816);stroke:#000000;stroke-width:5;stroke-linejoin:round"
         d="m 315.06,184.38 c -12.65,0 -22.84,10.18 -22.84,22.84 v 535.59 c 0,0.47 0.13,0.91 0.16,1.38 -11.02,7.34 -18.29,19.84 -18.29,34.06 0,22.61 18.36,40.97 40.97,40.97 22.61,0 40.94,-18.36 40.94,-40.97 0,-14.21 -7.26,-26.68 -18.25,-34.03 0.03,-0.48 0.16,-0.93 0.16,-1.41 V 207.22 c 0,-12.66 -10.19,-22.84 -22.85,-22.84 z" />
      <path
         id="path3628"
         sodipodi:nodetypes="ccccssscccc"
         style="fill:#ec0000;fill-opacity:0.56542;stroke:#000000;stroke-width:3.7716;stroke-linejoin:round"
         d="m 315.06,423.97 c -12.65,0 -22.84,-10.43 -22.84,3.46 v 307.76 c 0,0.51 0.13,1 0.16,1.51 -11.02,8.06 -18.29,21.77 -18.29,37.38 0,24.82 18.36,44.97 40.97,44.97 22.61,0 40.94,-20.15 40.94,-44.97 0,-15.59 -7.26,-29.29 -18.25,-37.35 0.03,-0.52 0.16,-1.02 0.16,-1.54 V 427.43 c 0,-13.89 -10.19,-3.46 -22.85,-3.46 z" />
    </g>
    <path
       id="path5818"
       style="fill:none;stroke:#000000;stroke-width:0.605626px"
       d="m 323.86272,194.5657 h 91.5895" />
    <path
       id="text5857"
       style="fill:#f10303;stroke-width:0.554349"
       d="m 408.81112,187.61971 h -2.1675 v 4.05784 h -2.28946 v -4.05784 h -7.63338 v -1.62978 l 6.66327,-11.8797 h 3.25957 v 11.50274 h 2.1675 v 2.00674 m -4.45696,-2.00674 v -9.5348 l -5.4437,9.5348 h 5.4437 m 11.55263,-11.84089 c 1.81826,0 3.19305,0.79272 4.12435,2.36707 0.92577,1.57989 1.39142,3.84164 1.39142,6.80186 0,2.91033 -0.46565,5.1499 -1.39142,6.71871 -0.9313,1.5688 -2.30609,2.35598 -4.12435,2.35598 -1.80718,0 -3.17642,-0.78718 -4.10773,-2.36707 -0.9313,-1.57435 -1.39695,-3.81392 -1.39695,-6.70762 0,-2.9325 0.46565,-5.1887 1.39695,-6.77414 0.93131,-1.59653 2.30055,-2.39479 4.10773,-2.39479 m 0,16.40318 c 1.03663,0 1.81272,-0.56543 2.32826,-1.68522 0.52109,-1.12533 0.78718,-2.97685 0.78718,-5.54903 0,-2.5999 -0.26609,-4.46251 -0.78718,-5.58229 -0.51554,-1.12533 -1.29163,-1.69077 -2.32826,-1.69077 -1.02,0 -1.79055,0.54881 -2.30055,1.64088 -0.51554,1.08652 -0.77609,2.96576 -0.77609,5.63218 0,2.62761 0.26055,4.49022 0.77609,5.58784 0.51,1.09761 1.28055,1.64641 2.30055,1.64641" />
    <path
       id="path5824"
       style="fill:none;stroke:#000000;stroke-width:0.606624px"
       d="m 288.61169,231.95098 h 91.88884" />
    <path
       id="text5861"
       style="fill:#f10303;stroke-width:0.554349"
       d="m 298.3516,222.34966 c 0.83152,0.19402 1.50228,0.58761 2.00674,1.18631 0.51,0.59315 0.75946,1.275 0.75946,2.04554 0,1.22512 -0.47674,2.25066 -1.44131,3.08218 -0.95902,0.82598 -2.10098,1.2362 -3.42033,1.2362 -1.13087,0 -2.16196,-0.24946 -3.09881,-0.74283 l 0.39913,-1.4025 c 0.9313,0.44348 1.85152,0.66522 2.76066,0.66522 0.87587,0 1.59098,-0.24391 2.14533,-0.73174 0.5488,-0.48783 0.82597,-1.15859 0.82597,-2.00674 0,-0.74283 -0.31597,-1.35261 -0.94793,-1.8349 -0.62642,-0.47674 -1.44685,-0.72065 -2.46131,-0.72065 h -0.36033 v -1.45239 h 0.0554 c 0.95348,0 1.76283,-0.22729 2.41696,-0.68185 0.66522,-0.46011 0.99228,-1.06435 0.99228,-1.81272 0,-0.62087 -0.23837,-1.11979 -0.72065,-1.49674 -0.47674,-0.38251 -1.10315,-0.57653 -1.86816,-0.57653 -0.69847,0 -1.51337,0.20511 -2.45576,0.61533 l -0.28272,-1.45239 c 0.99229,-0.4324 1.93468,-0.64305 2.81609,-0.64305 1.25838,0 2.30055,0.33261 3.11544,1.00337 0.82598,0.65968 1.24174,1.50783 1.24174,2.53338 0,0.69848 -0.24945,1.35815 -0.74282,1.96793 -0.49337,0.60979 -1.0699,0.99229 -1.73511,1.14196 v 0.0776 m 9.40175,-6.72425 c 1.42468,0 2.50011,0.61533 3.22631,1.85153 0.73174,1.23065 1.09207,3.00457 1.09207,5.32174 0,2.27838 -0.36033,4.03012 -1.09207,5.26077 -0.7262,1.22511 -1.80163,1.84044 -3.22631,1.84044 -1.41359,0 -2.48348,-0.61533 -3.21522,-1.85152 -0.7262,-1.2362 -1.08653,-2.9824 -1.08653,-5.24969 0,-2.295 0.36033,-4.06337 1.08653,-5.30511 0.73174,-1.24729 1.80163,-1.86816 3.21522,-1.86816 m 0,12.83317 c 0.81489,0 1.42468,-0.43793 1.82381,-1.3138 0.41022,-0.88696 0.61532,-2.33381 0.61532,-4.3461 0,-2.03446 -0.2051,-3.49239 -0.61532,-4.36826 -0.39913,-0.88142 -1.00892,-1.3249 -1.82381,-1.3249 -0.79826,0 -1.39696,0.42685 -1.80163,1.28609 -0.39913,0.8537 -0.60424,2.31718 -0.60424,4.40707 0,2.05664 0.20511,3.51458 0.60424,4.37382 0.40467,0.85369 1.00337,1.28608 1.80163,1.28608" />
    <path
       id="path5828"
       style="fill:none;stroke:#000000;stroke-width:0.606624px"
       d="m 288.61169,306.72154 h 91.88884" />
    <path
       id="text5865"
       style="fill:#000000;stroke-width:0.554349"
       d="m 298.50681,304.78132 h -1.79054 V 292.7076 l -2.43914,1.48011 v -1.6575 l 2.53338,-1.55772 h 1.6963 v 13.80883 m 9.24654,-14.01394 c 1.42468,0 2.50011,0.61533 3.22631,1.85153 0.73174,1.2362 1.09207,3.01011 1.09207,5.32175 0,2.27837 -0.36033,4.03565 -1.09207,5.26076 -0.7262,1.23066 -1.80163,1.84044 -3.22631,1.84044 -1.41359,0 -2.48348,-0.61532 -3.21522,-1.85152 -0.7262,-1.23066 -1.08653,-2.9824 -1.08653,-5.24968 0,-2.29501 0.36033,-4.06338 1.08653,-5.29958 0.73174,-1.24728 1.80163,-1.8737 3.21522,-1.8737 m 0,12.83318 c 0.81489,0 1.42468,-0.43794 1.82381,-1.31381 0.41022,-0.88696 0.61532,-2.33381 0.61532,-4.34609 0,-2.03446 -0.2051,-3.48686 -0.61532,-4.36827 -0.39913,-0.88142 -1.00892,-1.3249 -1.82381,-1.3249 -0.79826,0 -1.39696,0.4324 -1.80163,1.28609 -0.39913,0.8537 -0.60424,2.32272 -0.60424,4.40708 0,2.05663 0.20511,3.51457 0.60424,4.37381 0.40467,0.85924 1.00337,1.28609 1.80163,1.28609" />
    <path
       id="path5836"
       style="fill:none;stroke:#000000;stroke-width:0.606624px"
       d="m 288.61169,381.4921 h 91.88884" />
    <path
       id="text5873"
       style="fill:#08b2f4;stroke-width:0.554349"
       d="m 298.6066,374.83991 h -5.7874 v -1.67413 h 5.7874 v 1.67413 m 6.87946,4.3461 h -1.79609 v -12.07372 l -2.43359,1.48011 v -1.65196 l 2.53338,-1.56326 h 1.6963 v 13.80883 m 9.24654,-14.01394 c 1.42468,0 2.50011,0.62087 3.22631,1.85152 0.7262,1.2362 1.09207,3.01012 1.09207,5.32175 0,2.28392 -0.36587,4.03566 -1.09207,5.26077 -0.7262,1.23066 -1.80163,1.84598 -3.22631,1.84598 -1.41359,0 -2.48903,-0.62087 -3.21522,-1.85152 -0.7262,-1.2362 -1.09207,-2.98794 -1.09207,-5.25523 0,-2.28946 0.36587,-4.05783 1.09207,-5.29957 0.72619,-1.24729 1.80163,-1.8737 3.21522,-1.8737 m 0,12.83872 c 0.81489,0 1.41913,-0.44348 1.82381,-1.31935 0.41022,-0.88142 0.61533,-2.32827 0.61533,-4.3461 0,-2.03446 -0.20511,-3.48685 -0.61533,-4.36272 -0.40468,-0.88696 -1.00892,-1.3249 -1.82381,-1.3249 -0.79826,0 -1.39696,0.42685 -1.80163,1.28609 -0.40468,0.84816 -0.60424,2.31718 -0.60424,4.40153 0,2.06218 0.19956,3.52012 0.60424,4.37381 0.40467,0.85924 1.00337,1.29164 1.80163,1.29164" />
    <path
       id="path5838"
       style="fill:none;stroke:#000000;stroke-width:0.644763px"
       d="M 314.4388,418.86075 H 418.25168" />
    <path
       id="text5889"
       style="fill:#08b2f4;stroke-width:0.554343"
       d="m 400.0837,411.21512 h -6.04012 v -1.98293 h 6.04012 v 1.98293 m 9.86726,5.14029 h -8.1854 v -1.57572 c 2.04635,-2.53769 3.36372,-4.21964 3.95211,-5.03997 0.5988,-0.82032 1.08826,-1.68195 1.47879,-2.57899 0.39052,-0.90885 0.58839,-1.81769 0.58839,-2.72064 0,-0.85573 -0.24994,-1.55212 -0.75502,-2.08916 -0.49466,-0.54295 -1.15074,-0.82033 -1.97345,-0.82033 -0.7446,0 -1.67665,0.24787 -2.80657,0.7318 l -0.29159,-1.69966 c 1.05702,-0.51934 2.18173,-0.77901 3.37413,-0.77901 1.32258,0 2.39001,0.41901 3.19189,1.25704 0.8175,0.82623 1.22364,1.93573 1.22364,3.3285 0,0.91475 -0.18224,1.81179 -0.55194,2.68523 -0.36449,0.86753 -0.84353,1.72326 -1.44234,2.57309 -0.5988,0.83803 -1.78079,2.37835 -3.55117,4.63276 h 5.74853 v 2.09506 m 6.96696,-16.57168 c 1.48399,0 2.6035,0.7259 3.36372,2.18949 0.76022,1.4577 1.14033,3.55867 1.14033,6.29111 0,2.69703 -0.38011,4.77439 -1.14033,6.22618 -0.76022,1.45179 -1.87973,2.17769 -3.36372,2.17769 -1.47879,0 -2.59829,-0.7318 -3.35851,-2.18949 -0.76022,-1.4636 -1.13513,-3.52916 -1.13513,-6.21438 0,-2.71474 0.37491,-4.8039 1.13513,-6.2675 0.76022,-1.4754 1.87972,-2.2131 3.35851,-2.2131 m 0,15.17891 c 0.84874,0 1.47879,-0.51934 1.90055,-1.55802 0.42698,-1.04459 0.64047,-2.75605 0.64047,-5.14029 0,-2.40195 -0.21349,-4.12522 -0.64047,-5.1639 -0.42176,-1.04458 -1.05181,-1.56983 -1.90055,-1.56983 -0.83312,0 -1.46317,0.50754 -1.88493,1.52262 -0.41656,1.00917 -0.63005,2.74424 -0.63005,5.21111 0,2.43736 0.21349,4.16062 0.63005,5.1757 0.42176,1.01507 1.05181,1.52261 1.88493,1.52261" />
    <g
       id="g8343"
       transform="matrix(0.55434874,0,0,0.55434874,178.73423,31.817781)">
      <path
         id="path5834"
         style="fill:none;stroke:#000000;stroke-width:1.0925px"
         d="M 261.8,563.35 H 427.02" />
      <path
         id="text5893"
         style="fill:#23a41e"
         d="m 424.9,528.12 c -2.33,0 -4.09,1.15 -5.28,3.46 -1.16,2.29 -1.75,5.74 -1.75,10.35 0,4.6 0.59,8.05 1.75,10.36 1.19,2.29 2.95,3.43 5.28,3.43 2.35,0 4.11,-1.14 5.28,-3.43 1.18,-2.31 1.77,-5.76 1.77,-10.36 0,-4.61 -0.59,-8.06 -1.77,-10.35 -1.17,-2.31 -2.93,-3.46 -5.28,-3.46 m 0,-3.59 c 3.76,0 6.63,1.49 8.6,4.47 2,2.96 2.99,7.27 2.99,12.93 0,5.65 -0.99,9.96 -2.99,12.94 -1.97,2.97 -4.84,4.45 -8.6,4.45 -3.76,0 -6.63,-1.48 -8.62,-4.45 -1.98,-2.98 -2.97,-7.29 -2.97,-12.94 0,-5.66 0.99,-9.97 2.97,-12.93 1.99,-2.98 4.86,-4.47 8.62,-4.47" />
    </g>
    <path
       id="path5826"
       style="fill:none;stroke:#000000;stroke-width:0.605626px"
       d="m 323.86272,269.33626 h 91.5895" />
    <path
       id="text5901"
       style="fill:#000000;stroke-width:0.554349"
       d="m 409.21026,266.54789 h -8.71437 v -1.48566 c 2.17859,-2.37815 3.5811,-3.95805 4.21305,-4.72859 0.63196,-0.77055 1.15305,-1.5799 1.56881,-2.42805 0.41576,-0.84815 0.62642,-1.70185 0.62642,-2.55555 0,-0.79826 -0.26609,-1.45239 -0.80381,-1.95685 -0.52663,-0.51 -1.22511,-0.77054 -2.09544,-0.77054 -0.79826,0 -1.79055,0.22728 -2.99348,0.68185 l -0.31044,-1.59099 c 1.12533,-0.48782 2.32272,-0.73728 3.59218,-0.73728 1.40805,0 2.54446,0.39359 3.4037,1.18076 0.86479,0.78163 1.29718,1.82381 1.29718,3.13207 0,0.85924 -0.19402,1.69631 -0.58761,2.52229 -0.38804,0.81489 -0.89804,1.6187 -1.53555,2.41142 -0.63195,0.78717 -1.89587,2.23957 -3.78065,4.35718 h 6.12001 v 1.96794 m 7.41718,-15.57166 c 1.5799,0 2.77729,0.68739 3.58109,2.06218 0.80935,1.36924 1.21403,3.33718 1.21403,5.90936 0,2.53337 -0.40468,4.48468 -1.21403,5.84837 -0.8038,1.3637 -2.00119,2.04555 -3.58109,2.04555 -1.57435,0 -2.7662,-0.68739 -3.57555,-2.05663 -0.8038,-1.37479 -1.20848,-3.32055 -1.20848,-5.83729 0,-2.55001 0.40468,-4.5124 1.20848,-5.89273 0.80935,-1.38587 2.0012,-2.07881 3.57555,-2.07881 m 0,14.26339 c 0.90359,0 1.57435,-0.48782 2.02337,-1.46348 0.45457,-0.98119 0.68185,-2.58881 0.68185,-4.82837 0,-2.26175 -0.22728,-3.8749 -0.68185,-4.85056 -0.44902,-0.98119 -1.11978,-1.47456 -2.02337,-1.47456 -0.88696,0 -1.55772,0.47674 -2.0012,1.43022 -0.44902,0.94793 -0.6763,2.57772 -0.6763,4.8949 0,2.28946 0.22728,3.90815 0.6763,4.86163 0.44348,0.95348 1.11424,1.43022 2.0012,1.43022" />
    <path
       id="text5920"
       style="fill:#dcae00;stroke:#ffffff;stroke-width:0.654242"
       d="m 390.57859,465.91387 c 1.46349,0 2.71077,0.51554 3.73632,1.54109 1.03108,1.03108 1.54663,2.27837 1.54663,3.74185 0,1.44685 -0.51555,2.68859 -1.54663,3.71968 -1.02555,1.02554 -2.27283,1.54109 -3.73632,1.54109 -1.44685,0 -2.68859,-0.51555 -3.71968,-1.54109 -1.03108,-1.03109 -1.54108,-2.27283 -1.54108,-3.71968 0,-1.46348 0.51,-2.71077 1.54108,-3.74185 1.03109,-1.02555 2.27283,-1.54109 3.71968,-1.54109 m 0,8.52588 c 0.90359,0 1.66859,-0.32152 2.28947,-0.95348 0.6375,-0.6375 0.95347,-1.4025 0.95347,-2.28946 0,-0.8925 -0.31597,-1.64642 -0.95347,-2.27283 -0.62088,-0.62087 -1.38588,-0.93131 -2.28947,-0.93131 -0.88695,0 -1.64641,0.31044 -2.26728,0.93131 -0.60979,0.62641 -0.91468,1.38033 -0.91468,2.27283 0,0.88696 0.30489,1.65196 0.91468,2.28946 0.62087,0.63196 1.38033,0.95348 2.26728,0.95348 m 29.64103,16.66927 c -2.18968,1.80163 -4.76185,2.70522 -7.72762,2.70522 -3.6199,0 -6.5524,-1.31381 -8.79197,-3.94697 -2.23403,-2.63315 -3.35381,-5.97033 -3.35381,-10.01153 0,-4.19642 1.09761,-7.57241 3.29837,-10.12795 2.20077,-2.57218 5.1499,-3.85273 8.84741,-3.85273 1.31381,0 2.64424,0.19957 4.00794,0.60979 1.37479,0.40467 2.46685,0.92021 3.28175,1.54663 l -1.28055,2.53337 c -1.89587,-1.09207 -3.89707,-1.64087 -6.00914,-1.64087 -2.68305,0 -4.76186,0.97011 -6.23642,2.89924 -1.47457,1.93468 -2.21185,4.61218 -2.21185,8.03252 0,3.34272 0.74282,6.01468 2.23402,8.01034 1.48566,1.98456 3.55892,2.97131 6.21425,2.97131 2.36707,0 4.5512,-0.70403 6.56349,-2.11207 l 1.16413,2.3837" />
    <g
       id="g8135"
       transform="matrix(0.55434874,0,0,0.55434874,178.88642,39.963381)">
      <rect
         id="rect7390"
         style="fill:#000051"
         ry="12.877"
         height="25.753"
         width="166.32001"
         y="714.34998"
         x="230.39999" />
      <g
         id="g7380"
         transform="matrix(0.4459,-0.22922,0.22922,0.4459,92.124,492.33)">
        <circle
           id="path6650"
           style="fill:#b5dfe0;stroke:#000000;stroke-width:2;stroke-linejoin:round"
           transform="translate(-0.31884)"
           cx="69.209404"
           cy="562.20789"
           r="18.013407" />
        <path
           id="path7378"
           style="fill:none;stroke:#000000;stroke-width:1px"
           d="M 50.288,562.21 H 87.493" />
      </g>
      <g
         id="g7384"
         transform="matrix(0.39401,0.31003,-0.31003,0.39401,522.57,484.35)">
        <circle
           id="path7386"
           style="fill:#b5dfe0;stroke:#000000;stroke-width:2;stroke-linejoin:round"
           transform="translate(-0.31884)"
           cx="69.209404"
           cy="562.20789"
           r="18.013407" />
        <path
           id="path7388"
           style="fill:none;stroke:#000000;stroke-width:1px"
           d="M 50.288,562.21 H 87.493" />
      </g>
    </g>
    <path
       id="rect8121"
       style="fill:#000051;stroke-width:0.554349"
       d="m 313.74586,134.45767 h 77.9248 c 3.95805,0 7.14001,3.1875 7.14001,7.14001 0,3.95805 -3.18196,7.14001 -7.14001,7.14001 h -77.9248 c -3.95251,0 -7.14001,-3.18196 -7.14001,-7.14001 0,-3.95251 3.1875,-7.14001 7.14001,-7.14001 z" />
    <g
       id="g8123"
       transform="matrix(0.24416844,0.13276652,-0.13276652,0.24416844,376.09346,-4.8218994)">
      <circle
         id="path8125"
         style="fill:#b5dfe0;stroke:#000000;stroke-width:2;stroke-linejoin:round"
         transform="translate(-0.31884)"
         cx="69.209404"
         cy="562.20789"
         r="18.013407" />
      <path
         id="path8127"
         style="fill:none;stroke:#000000;stroke-width:1px"
         d="M 50.288,562.21 H 87.493" />
    </g>
    <g
       id="g8129"
       transform="matrix(0.27549469,-0.03670676,0.03670676,0.27549469,347.22852,-10.758974)">
      <circle
         id="path8131"
         style="fill:#b5dfe0;stroke:#000000;stroke-width:2;stroke-linejoin:round"
         transform="translate(-0.31884)"
         cx="69.209404"
         cy="562.20789"
         r="18.013407" />
      <path
         id="path8133"
         style="fill:none;stroke:#000000;stroke-width:1px"
         d="M 50.288,562.21 H 87.493" />
    </g>
  </g>
  <metadata
     id="metadata43">
    <rdf:RDF>
      <cc:Work>
        <dc:format>image/svg+xml</dc:format>
        <dc:type
           rdf:resource="http://purl.org/dc/dcmitype/StillImage" />
        <cc:license
           rdf:resource="http://creativecommons.org/publicdomain/zero/1.0/" />
        <dc:publisher>
          <cc:Agent
             rdf:about="http://openclipart.org/">
            <dc:title>Openclipart</dc:title>
          </cc:Agent>
        </dc:publisher>
        <dc:title>room thermometer celsius</dc:title>
        <dc:date>2008-02-08T02:02:36</dc:date>
        <dc:description />
        <dc:source>https://openclipart.org/detail/13143/room-thermometer-celsius-by-anonymous</dc:source>
        <dc:creator>
          <cc:Agent>
            <dc:title>Anonymous</dc:title>
          </cc:Agent>
        </dc:creator>
        <dc:subject>
          <rdf:Bag>
            <rdf:li>celsius</rdf:li>
            <rdf:li>physics</rdf:li>
            <rdf:li>temperature</rdf:li>
            <rdf:li>thermometer</rdf:li>
            <rdf:li>tool</rdf:li>
            <rdf:li>weather</rdf:li>
          </rdf:Bag>
        </dc:subject>
      </cc:Work>
      <cc:License
         rdf:about="http://creativecommons.org/publicdomain/zero/1.0/">
        <cc:permits
           rdf:resource="http://creativecommons.org/ns#Reproduction" />
        <cc:permits
           rdf:resource="http://creativecommons.org/ns#Distribution" />
        <cc:permits
           rdf:resource="http://creativecommons.org/ns#DerivativeWorks" />
      </cc:License>
    </rdf:RDF>
  </metadata>
</svg>
