<?xml version="1.0" encoding="UTF-8" standalone="no"?>
<svg
   xmlns:dc="http://purl.org/dc/elements/1.1/"
   xmlns:cc="http://creativecommons.org/ns#"
   xmlns:rdf="http://www.w3.org/1999/02/22-rdf-syntax-ns#"
   xmlns:svg="http://www.w3.org/2000/svg"
   xmlns="http://www.w3.org/2000/svg"
   xmlns:sodipodi="http://sodipodi.sourceforge.net/DTD/sodipodi-0.dtd"
   xmlns:inkscape="http://www.inkscape.org/namespaces/inkscape"
   width="48.256542mm"
   height="40.418453mm"
   viewBox="0 0 48.256542 40.418453"
   version="1.1"
   id="svg20712"
   inkscape:version="1.0.2-2 (e86c870879, 2021-01-15)"
   sodipodi:docname="tornado.svg">
  <defs
     id="defs20706">
    <clipPath
       clipPathUnits="userSpaceOnUse"
       id="clipPath1832">
      <path
         d="m 348.196,114.233 c 0,0 28.023,-10.441 4.087,-26.355 v 0 C 328.344,71.964 342.355,51.577 342.355,51.577 v 0 c 0,0 -1.94,23.565 27.801,28.785 v 0 c 29.742,5.217 18.216,33.965 18.216,33.965 v 0 z"
         id="path1830" />
    </clipPath>
    <radialGradient
       fx="0"
       fy="0"
       cx="0"
       cy="0"
       r="1"
       gradientUnits="userSpaceOnUse"
       gradientTransform="matrix(147.15317,0,0,-125.32207,368.97998,61.37207)"
       spreadMethod="pad"
       id="radialGradient1850">
      <stop
         style="stop-opacity:1;stop-color:#ffffff"
         offset="0"
         id="stop1838" />
      <stop
         style="stop-opacity:1;stop-color:#c3c7d3"
         offset="0.13576973"
         id="stop1840" />
      <stop
         style="stop-opacity:1;stop-color:#c3c7d3"
         offset="0.180328"
         id="stop1842" />
      <stop
         style="stop-opacity:1;stop-color:#494a4f"
         offset="0.33973572"
         id="stop1844" />
      <stop
         style="stop-opacity:1;stop-color:#494a4f"
         offset="0.825137"
         id="stop1846" />
      <stop
         style="stop-opacity:1;stop-color:#494a4f"
         offset="1"
         id="stop1848" />
    </radialGradient>
    <clipPath
       clipPathUnits="userSpaceOnUse"
       id="clipPath1860">
      <path
         d="m 347.483,114.233 c 0,0 23.869,-10.441 3.481,-26.355 v 0 C 330.577,71.964 342.512,51.577 342.512,51.577 v 0 c 0,0 -1.653,23.565 23.676,28.785 v 0 c 25.331,5.217 15.515,33.965 15.515,33.965 v 0 z"
         id="path1858" />
    </clipPath>
    <radialGradient
       fx="0"
       fy="0"
       cx="0"
       cy="0"
       r="1"
       gradientUnits="userSpaceOnUse"
       gradientTransform="matrix(125.32725,0,0,-125.32725,365.18652,61.37207)"
       spreadMethod="pad"
       id="radialGradient1878">
      <stop
         style="stop-opacity:1;stop-color:#ffffff"
         offset="0"
         id="stop1866" />
      <stop
         style="stop-opacity:1;stop-color:#c3c7d3"
         offset="0.16456908"
         id="stop1868" />
      <stop
         style="stop-opacity:1;stop-color:#c3c7d3"
         offset="0.218579"
         id="stop1870" />
      <stop
         style="stop-opacity:1;stop-color:#4e4f54"
         offset="0.35965358"
         id="stop1872" />
      <stop
         style="stop-opacity:1;stop-color:#4e4f54"
         offset="0.63388"
         id="stop1874" />
      <stop
         style="stop-opacity:1;stop-color:#4e4f54"
         offset="1"
         id="stop1876" />
    </radialGradient>
    <clipPath
       clipPathUnits="userSpaceOnUse"
       id="clipPath1888">
      <path
         d="m 343.635,114.44 c 0,0 25.764,-8.775 5.382,-26.058 v 0 c -20.38,-17.281 -6.505,-36.805 -6.505,-36.805 v 0 c 0,0 -3.281,23.403 22.994,30.357 v 0 c 26.274,6.952 14.078,34.96 14.078,34.96 v 0 z"
         id="path1886" />
    </clipPath>
    <radialGradient
       fx="0"
       fy="0"
       cx="0"
       cy="0"
       r="1"
       gradientUnits="userSpaceOnUse"
       gradientTransform="matrix(131.68134,8.635047,8.1964016,-125.06406,365.69434,62.914062)"
       spreadMethod="pad"
       id="radialGradient1906">
      <stop
         style="stop-opacity:1;stop-color:#ffffff"
         offset="0"
         id="stop1894" />
      <stop
         style="stop-opacity:1;stop-color:#c3c7d3"
         offset="0.11931275"
         id="stop1896" />
      <stop
         style="stop-opacity:1;stop-color:#c3c7d3"
         offset="0.15847"
         id="stop1898" />
      <stop
         style="stop-opacity:1;stop-color:#38393c"
         offset="0.35429595"
         id="stop1900" />
      <stop
         style="stop-opacity:1;stop-color:#38393c"
         offset="0.721311"
         id="stop1902" />
      <stop
         style="stop-opacity:1;stop-color:#38393c"
         offset="1"
         id="stop1904" />
    </radialGradient>
    <clipPath
       clipPathUnits="userSpaceOnUse"
       id="clipPath1916">
      <path
         d="m 337.238,59.507 c 0,-0.616 1.742,-1.11 3.887,-1.11 v 0 c 2.148,0 3.886,0.494 3.886,1.11 v 0 c 0,0.211 -0.211,0.408 -0.574,0.578 v 0 c 0.13,-0.104 0.205,-0.215 0.205,-0.332 v 0 c 0,-0.547 -1.547,-0.988 -3.455,-0.988 v 0 c -1.909,0 -3.455,0.441 -3.455,0.988 v 0 c 0,0.166 0.146,0.324 0.404,0.462 v 0 c -0.559,-0.192 -0.898,-0.441 -0.898,-0.708"
         id="path1914" />
    </clipPath>
    <radialGradient
       fx="0"
       fy="0"
       cx="0"
       cy="0"
       r="1"
       gradientUnits="userSpaceOnUse"
       gradientTransform="matrix(33.731552,0,0,-33.731552,340.74902,68.104492)"
       spreadMethod="pad"
       id="radialGradient1932">
      <stop
         style="stop-opacity:1;stop-color:#ffffff"
         offset="0"
         id="stop1922" />
      <stop
         style="stop-opacity:1;stop-color:#c3c7d3"
         offset="0.13576973"
         id="stop1924" />
      <stop
         style="stop-opacity:1;stop-color:#c3c7d3"
         offset="0.180328"
         id="stop1926" />
      <stop
         style="stop-opacity:1;stop-color:#8a8b87"
         offset="0.38296482"
         id="stop1928" />
      <stop
         style="stop-opacity:1;stop-color:#8a8b87"
         offset="1"
         id="stop1930" />
    </radialGradient>
    <clipPath
       clipPathUnits="userSpaceOnUse"
       id="clipPath1942">
      <path
         d="m 335.29,67.634 c -0.09,-1.09 2.932,-2.233 6.748,-2.551 v 0 c 3.819,-0.316 6.988,0.311 7.078,1.403 v 0 c 0.034,0.379 -0.318,0.761 -0.937,1.115 v 0 c 0.217,-0.205 0.333,-0.412 0.315,-0.624 v 0 c -0.079,-0.968 -2.897,-1.523 -6.29,-1.244 v 0 c -3.394,0.284 -6.081,1.297 -6,2.268 v 0 c 0.025,0.296 0.31,0.556 0.788,0.763 v 0 c -1.026,-0.259 -1.663,-0.649 -1.702,-1.13"
         id="path1940" />
    </clipPath>
    <radialGradient
       fx="0"
       fy="0"
       cx="0"
       cy="0"
       r="1"
       gradientUnits="userSpaceOnUse"
       gradientTransform="matrix(39.150795,-3.2527454,-3.2527454,-39.150795,340.11572,84.9375)"
       spreadMethod="pad"
       id="radialGradient1958">
      <stop
         style="stop-opacity:1;stop-color:#ffffff"
         offset="0"
         id="stop1948" />
      <stop
         style="stop-opacity:1;stop-color:#c3c7d3"
         offset="0.18513993"
         id="stop1950" />
      <stop
         style="stop-opacity:1;stop-color:#c3c7d3"
         offset="0.245901"
         id="stop1952" />
      <stop
         style="stop-opacity:1;stop-color:#8a8b87"
         offset="0.78598981"
         id="stop1954" />
      <stop
         style="stop-opacity:1;stop-color:#8a8b87"
         offset="1"
         id="stop1956" />
    </radialGradient>
    <clipPath
       clipPathUnits="userSpaceOnUse"
       id="clipPath1968">
      <path
         d="m 349.918,99.827 c -0.004,-3.764 10.249,-6.824 22.902,-6.834 v 0 c 12.653,-0.009 22.91,3.032 22.914,6.795 v 0 c 0,1.304 -1.252,2.521 -3.392,3.561 v 0 c 0.773,-0.641 1.211,-1.329 1.211,-2.043 v 0 c -0.002,-3.348 -9.121,-6.049 -20.367,-6.041 v 0 c -11.247,0.009 -20.36,2.726 -20.357,6.074 v 0 c 0,1.025 0.866,1.99 2.386,2.838 v 0 c -3.306,-1.178 -5.297,-2.694 -5.297,-4.35"
         id="path1966" />
    </clipPath>
    <radialGradient
       fx="0"
       fy="0"
       cx="0"
       cy="0"
       r="1"
       gradientUnits="userSpaceOnUse"
       gradientTransform="matrix(86.011246,-0.0716313,-0.0626774,-89.539093,359.93604,121.42383)"
       spreadMethod="pad"
       id="radialGradient1984">
      <stop
         style="stop-opacity:1;stop-color:#ffffff"
         offset="0"
         id="stop1974" />
      <stop
         style="stop-opacity:1;stop-color:#c3c7d3"
         offset="0.09462727"
         id="stop1976" />
      <stop
         style="stop-opacity:1;stop-color:#c3c7d3"
         offset="0.125683"
         id="stop1978" />
      <stop
         style="stop-opacity:1;stop-color:#8a8b87"
         offset="0.42834993"
         id="stop1980" />
      <stop
         style="stop-opacity:1;stop-color:#8a8b87"
         offset="1"
         id="stop1982" />
    </radialGradient>
    <clipPath
       clipPathUnits="userSpaceOnUse"
       id="clipPath6622">
      <path
         d="m 652.93,384.706 c -0.675,0.13 -1.387,0.217 -2.127,0.243 v 0 c -4.256,0.153 -7.772,-1.603 -7.855,-3.923 v 0 c -0.003,-0.083 0.008,-0.163 0.014,-0.245 v 0 c -3.647,-0.208 -6.478,-1.829 -6.555,-3.905 v 0 c -0.002,-0.072 0.007,-0.143 0.013,-0.217 v 0 c -4.104,0.053 -7.445,-1.665 -7.523,-3.924 v 0 c -0.087,-2.319 3.298,-4.322 7.554,-4.474 v 0 c 0.542,-0.019 1.072,-0.008 1.586,0.032 v 0 c 1.273,-1.861 4.155,-3.181 7.528,-3.217 v 0 c 2.42,-0.026 4.599,0.618 6.122,1.658 v 0 c 2.03,-1.364 4.873,-2.23 8.032,-2.264 v 0 c 3.718,-0.039 7.021,1.086 9.084,2.844 v 0 c 1.644,-1.085 3.978,-1.78 6.578,-1.808 v 0 c 5.021,-0.054 9.119,2.388 9.149,5.454 v 0 c 0.024,2.116 -1.892,3.974 -4.729,4.943 v 0 c 0.154,0.367 0.243,0.751 0.248,1.146 v 0 c 0.032,2.832 -4.013,5.173 -9.035,5.227 v 0 c -0.286,0.003 -0.569,-0.004 -0.846,-0.015 v 0 c 0,0.008 0.002,0.016 0.002,0.024 v 0 c 0.03,2.833 -4.016,5.174 -9.038,5.228 v 0 c -0.059,0.001 -0.118,0.001 -0.176,0.001 v 0 c -3.525,0 -6.561,-1.139 -8.026,-2.808"
         id="path6620" />
    </clipPath>
    <radialGradient
       fx="0"
       fy="0"
       cx="0"
       cy="0"
       r="1"
       gradientUnits="userSpaceOnUse"
       gradientTransform="matrix(-83.800636,0.8948678,-0.8948678,-83.800636,663.64062,402.52441)"
       spreadMethod="pad"
       id="radialGradient6634">
      <stop
         style="stop-opacity:1;stop-color:#8e8e8e"
         offset="0"
         id="stop6628" />
      <stop
         style="stop-opacity:1;stop-color:#8e8e8e"
         offset="0.33962887"
         id="stop6630" />
      <stop
         style="stop-opacity:1;stop-color:#101010"
         offset="1"
         id="stop6632" />
    </radialGradient>
    <clipPath
       clipPathUnits="userSpaceOnUse"
       id="clipPath6644">
      <path
         d="m 653.337,383.783 c -0.604,0.117 -1.239,0.195 -1.902,0.219 v 0 c -3.8,0.135 -6.944,-1.434 -7.021,-3.505 v 0 c -0.002,-0.074 0.008,-0.148 0.014,-0.222 v 0 c -3.26,-0.185 -5.788,-1.633 -5.855,-3.487 v 0 c -0.002,-0.067 0.008,-0.131 0.013,-0.196 v 0 c -3.671,0.047 -6.656,-1.489 -6.725,-3.507 v 0 c -0.077,-2.072 2.948,-3.863 6.75,-3.998 v 0 c 0.485,-0.017 0.96,-0.005 1.416,0.028 v 0 c 1.141,-1.661 3.714,-2.84 6.729,-2.873 v 0 c 2.161,-0.022 4.107,0.553 5.473,1.483 v 0 c 1.811,-1.219 4.35,-1.994 7.172,-2.023 v 0 c 3.326,-0.037 6.275,0.969 8.122,2.54 v 0 c 1.469,-0.971 3.553,-1.592 5.877,-1.617 v 0 c 4.486,-0.049 8.15,2.136 8.178,4.875 v 0 c 0.021,1.888 -1.692,3.55 -4.229,4.415 v 0 c 0.14,0.33 0.219,0.671 0.223,1.026 v 0 c 0.029,2.53 -3.59,4.623 -8.073,4.671 v 0 c -0.254,0.002 -0.509,-0.003 -0.758,-0.015 v 0 c 0,0.008 0.002,0.015 0.002,0.023 v 0 c 0.026,2.531 -3.589,4.625 -8.074,4.673 v 0 c -0.052,0 -0.104,0 -0.155,0 v 0 c -3.151,10e-4 -5.864,-1.018 -7.177,-2.51"
         id="path6642" />
    </clipPath>
    <radialGradient
       fx="0"
       fy="0"
       cx="0"
       cy="0"
       r="1"
       gradientUnits="userSpaceOnUse"
       gradientTransform="matrix(-74.384979,0.7943225,-0.7943225,-74.384979,664.11816,339.5752)"
       spreadMethod="pad"
       id="radialGradient6660">
      <stop
         style="stop-opacity:1;stop-color:#ffffff"
         offset="0"
         id="stop6650" />
      <stop
         style="stop-opacity:1;stop-color:#6b6d73"
         offset="0.47942252"
         id="stop6652" />
      <stop
         style="stop-opacity:1;stop-color:#6b6d73"
         offset="0.650538"
         id="stop6654" />
      <stop
         style="stop-opacity:1;stop-color:#6b6d73"
         offset="0.75790648"
         id="stop6656" />
      <stop
         style="stop-opacity:1;stop-color:#616368"
         offset="1"
         id="stop6658" />
    </radialGradient>
    <clipPath
       clipPathUnits="userSpaceOnUse"
       id="clipPath6670">
      <path
         d="m 617.464,401.099 c -0.825,0.16 -1.696,0.265 -2.603,0.298 v 0 c -5.21,0.187 -9.515,-1.963 -9.615,-4.8 v 0 c -0.004,-0.104 0.008,-0.203 0.016,-0.304 v 0 c -4.463,-0.253 -7.928,-2.236 -8.023,-4.78 v 0 c -0.002,-0.089 0.011,-0.176 0.018,-0.266 v 0 c -5.026,0.066 -9.114,-2.038 -9.211,-4.801 v 0 c -0.105,-2.839 4.038,-5.292 9.246,-5.478 v 0 c 0.664,-0.023 1.315,-0.008 1.942,0.042 v 0 c 1.558,-2.279 5.088,-3.895 9.215,-3.938 v 0 c 2.961,-0.032 5.626,0.755 7.494,2.027 v 0 c 2.479,-1.669 5.962,-2.728 9.83,-2.769 v 0 c 4.552,-0.049 8.602,1.324 11.128,3.475 v 0 c 2.017,-1.327 4.867,-2.176 8.044,-2.21 v 0 c 6.146,-0.065 11.162,2.927 11.202,6.677 v 0 c 0.028,2.59 -2.319,4.865 -5.793,6.049 v 0 c 0.191,0.451 0.302,0.92 0.306,1.404 v 0 c 0.037,3.469 -4.915,6.333 -11.061,6.399 v 0 c -0.352,0.004 -0.694,-0.004 -1.036,-0.018 v 0 c 0,0.009 0,0.018 0.002,0.029 v 0 c 0.037,3.469 -4.915,6.334 -11.06,6.399 v 0 c -0.071,0.001 -0.142,0.001 -0.213,0.001 v 0 c -4.313,0 -8.031,-1.395 -9.828,-3.436"
         id="path6668" />
    </clipPath>
    <radialGradient
       fx="0"
       fy="0"
       cx="0"
       cy="0"
       r="1"
       gradientUnits="userSpaceOnUse"
       gradientTransform="matrix(-102.57613,1.0953625,-1.0953625,-102.57613,630.57617,422.9082)"
       spreadMethod="pad"
       id="radialGradient6682">
      <stop
         style="stop-opacity:1;stop-color:#8e8e8e"
         offset="0"
         id="stop6676" />
      <stop
         style="stop-opacity:1;stop-color:#8e8e8e"
         offset="0.33962887"
         id="stop6678" />
      <stop
         style="stop-opacity:1;stop-color:#101010"
         offset="1"
         id="stop6680" />
    </radialGradient>
    <clipPath
       clipPathUnits="userSpaceOnUse"
       id="clipPath6692">
      <path
         d="m 617.962,399.969 c -0.737,0.143 -1.517,0.238 -2.327,0.266 v 0 c -4.654,0.167 -8.501,-1.752 -8.593,-4.29 v 0 c -0.002,-0.09 0.012,-0.179 0.015,-0.269 v 0 c -3.989,-0.229 -7.085,-2 -7.166,-4.271 v 0 c -0.003,-0.08 0.009,-0.159 0.014,-0.237 v 0 c -4.492,0.057 -8.142,-1.824 -8.232,-4.293 v 0 c -0.092,-2.537 3.608,-4.729 8.264,-4.896 v 0 c 0.592,-0.021 1.174,-0.008 1.735,0.036 v 0 c 1.393,-2.036 4.546,-3.478 8.235,-3.517 v 0 c 2.646,-0.028 5.027,0.674 6.696,1.811 v 0 c 2.215,-1.491 5.326,-2.438 8.783,-2.475 v 0 c 4.07,-0.044 7.689,1.183 9.949,3.106 v 0 c 1.798,-1.186 4.345,-1.943 7.186,-1.973 v 0 c 5.492,-0.059 9.975,2.611 10.01,5.966 v 0 c 0.026,2.313 -2.072,4.346 -5.176,5.405 v 0 c 0.168,0.404 0.269,0.822 0.273,1.255 v 0 c 0.033,3.099 -4.394,5.659 -9.883,5.717 v 0 c -0.314,0.003 -0.623,-0.004 -0.927,-0.015 v 0 0.026 c 0.035,3.101 -4.389,5.659 -9.883,5.718 v 0 c -0.063,0.001 -0.126,0.001 -0.189,0.001 v 0 c -3.855,0 -7.176,-1.246 -8.784,-3.071"
         id="path6690" />
    </clipPath>
    <radialGradient
       fx="0"
       fy="0"
       cx="0"
       cy="0"
       r="1"
       gradientUnits="userSpaceOnUse"
       gradientTransform="matrix(-72.551758,0.7747464,-0.7747464,-72.551758,625.9834,354.93896)"
       spreadMethod="pad"
       id="radialGradient6708">
      <stop
         style="stop-opacity:1;stop-color:#ffffff"
         offset="0"
         id="stop6698" />
      <stop
         style="stop-opacity:1;stop-color:#6b6d73"
         offset="0.3447086"
         id="stop6700" />
      <stop
         style="stop-opacity:1;stop-color:#6b6d73"
         offset="0.467742"
         id="stop6702" />
      <stop
         style="stop-opacity:1;stop-color:#6b6d73"
         offset="0.6312726"
         id="stop6704" />
      <stop
         style="stop-opacity:1;stop-color:#1f2021"
         offset="1"
         id="stop6706" />
    </radialGradient>
    <clipPath
       clipPathUnits="userSpaceOnUse"
       id="clipPath6718">
      <path
         d="m 618.987,383.397 c -0.857,0.166 -1.763,0.275 -2.706,0.309 v 0 c -5.436,0.194 -9.929,-2.048 -10.034,-5.012 v 0 c -0.004,-0.105 0.011,-0.211 0.017,-0.314 v 0 c -4.66,-0.267 -8.278,-2.336 -8.372,-4.988 v 0 c -0.001,-0.094 0.011,-0.185 0.016,-0.277 v 0 c -5.241,0.066 -9.51,-2.131 -9.613,-5.014 v 0 c -0.106,-2.962 4.215,-5.523 9.651,-5.715 v 0 c 0.693,-0.024 1.371,-0.009 2.026,0.041 v 0 c 1.626,-2.377 5.309,-4.063 9.62,-4.108 v 0 c 3.089,-0.034 5.868,0.787 7.819,2.116 v 0 c 2.589,-1.744 6.222,-2.847 10.26,-2.89 v 0 c 4.747,-0.052 8.975,1.379 11.609,3.621 v 0 c 2.101,-1.384 5.084,-2.266 8.4,-2.301 v 0 c 6.413,-0.068 11.649,3.053 11.691,6.97 v 0 c 0.028,2.699 -2.419,5.074 -6.039,6.31 v 0 c 0.198,0.472 0.306,0.962 0.313,1.467 v 0 c 0.037,3.618 -5.132,6.608 -11.546,6.677 v 0 c -0.363,0.003 -0.724,-0.003 -1.078,-0.018 v 0 0.029 c 0.039,3.62 -5.13,6.61 -11.544,6.679 v 0 c -0.074,0.001 -0.148,0.001 -0.222,0.001 v 0 c -4.502,0 -8.394,-1.452 -10.268,-3.583"
         id="path6716" />
    </clipPath>
    <radialGradient
       fx="0"
       fy="0"
       cx="0"
       cy="0"
       r="1"
       gradientUnits="userSpaceOnUse"
       gradientTransform="matrix(-107.05253,1.1431639,-1.1431639,-107.05253,632.68359,406.15381)"
       spreadMethod="pad"
       id="radialGradient6730">
      <stop
         style="stop-opacity:1;stop-color:#8e8e8e"
         offset="0"
         id="stop6724" />
      <stop
         style="stop-opacity:1;stop-color:#8e8e8e"
         offset="0.33962887"
         id="stop6726" />
      <stop
         style="stop-opacity:1;stop-color:#101010"
         offset="1"
         id="stop6728" />
    </radialGradient>
    <clipPath
       clipPathUnits="userSpaceOnUse"
       id="clipPath6740">
      <path
         d="m 619.519,382.216 c -0.771,0.15 -1.582,0.247 -2.43,0.278 v 0 c -4.856,0.174 -8.871,-1.829 -8.965,-4.478 v 0 c -0.005,-0.094 0.009,-0.188 0.015,-0.282 v 0 c -4.164,-0.236 -7.395,-2.087 -7.481,-4.455 v 0 c -0.003,-0.084 0.009,-0.167 0.015,-0.251 v 0 c -4.686,0.061 -8.497,-1.901 -8.592,-4.478 v 0 c -0.096,-2.647 3.767,-4.936 8.626,-5.108 v 0 c 0.62,-0.022 1.226,-0.008 1.809,0.038 v 0 c 1.455,-2.124 4.745,-3.63 8.594,-3.672 v 0 c 2.762,-0.029 5.245,0.704 6.987,1.889 v 0 c 2.316,-1.556 5.562,-2.543 9.17,-2.582 v 0 c 4.247,-0.046 8.024,1.234 10.381,3.24 v 0 c 1.878,-1.236 4.537,-2.028 7.501,-2.06 v 0 c 5.732,-0.061 10.409,2.727 10.447,6.229 v 0 c 0.026,2.412 -2.161,4.535 -5.403,5.64 v 0 c 0.179,0.421 0.282,0.858 0.286,1.31 v 0 c 0.035,3.234 -4.583,5.907 -10.316,5.968 v 0 c -0.326,0.003 -0.646,-0.005 -0.966,-0.017 v 0 c 0,0.009 0.002,0.018 0.002,0.027 v 0 c 0.035,3.234 -4.583,5.905 -10.316,5.967 v 0 c -0.067,0 -0.134,0.001 -0.201,0.001 v 0 c -4.022,0 -7.487,-1.3 -9.163,-3.204"
         id="path6738" />
    </clipPath>
    <radialGradient
       fx="0"
       fy="0"
       cx="0"
       cy="0"
       r="1"
       gradientUnits="userSpaceOnUse"
       gradientTransform="matrix(-115.52818,1.2336714,-1.2336714,-115.52818,637.5,312.33594)"
       spreadMethod="pad"
       id="radialGradient6758">
      <stop
         style="stop-opacity:1;stop-color:#ffffff"
         offset="0"
         id="stop6746" />
      <stop
         style="stop-opacity:1;stop-color:#6b6d73"
         offset="0.3447086"
         id="stop6748" />
      <stop
         style="stop-opacity:1;stop-color:#6b6d73"
         offset="0.467742"
         id="stop6750" />
      <stop
         style="stop-opacity:1;stop-color:#000000"
         offset="0.8079578"
         id="stop6752" />
      <stop
         style="stop-opacity:1;stop-color:#000000"
         offset="0.994624"
         id="stop6754" />
      <stop
         style="stop-opacity:1;stop-color:#000000"
         offset="1"
         id="stop6756" />
    </radialGradient>
    <clipPath
       clipPathUnits="userSpaceOnUse"
       id="clipPath6768">
      <path
         d="m 589.014,382.932 c -0.697,0.135 -1.433,0.223 -2.202,0.252 v 0 c -4.4,0.157 -8.037,-1.659 -8.123,-4.058 v 0 c -0.003,-0.087 0.009,-0.17 0.013,-0.254 v 0 c -3.77,-0.216 -6.7,-1.893 -6.777,-4.039 v 0 c -0.004,-0.077 0.009,-0.15 0.013,-0.224 v 0 c -4.247,0.052 -7.699,-1.726 -7.784,-4.058 v 0 c -0.084,-2.4 3.414,-4.472 7.817,-4.629 v 0 c 0.561,-0.021 1.108,-0.008 1.639,0.033 v 0 c 1.316,-1.924 4.299,-3.289 7.788,-3.327 v 0 c 2.499,-0.026 4.752,0.64 6.33,1.713 v 0 c 2.094,-1.411 5.037,-2.306 8.303,-2.34 v 0 c 3.85,-0.042 7.274,1.118 9.407,2.937 v 0 c 1.703,-1.122 4.11,-1.837 6.797,-1.866 v 0 c 5.194,-0.055 9.43,2.47 9.463,5.644 v 0 c 0.024,2.186 -1.958,4.107 -4.895,5.109 v 0 c 0.16,0.381 0.257,0.777 0.26,1.186 v 0 c 0.032,2.93 -4.153,5.351 -9.348,5.406 v 0 c -0.295,0.004 -0.585,-0.004 -0.876,-0.016 v 0 c 0.003,0.008 0.005,0.017 0.005,0.025 v 0 c 0.03,2.932 -4.154,5.352 -9.347,5.408 v 0 c -0.06,0 -0.12,10e-4 -0.18,10e-4 v 0 c -3.644,0 -6.784,-1.178 -8.303,-2.903"
         id="path6766" />
    </clipPath>
    <radialGradient
       fx="0"
       fy="0"
       cx="0"
       cy="0"
       r="1"
       gradientUnits="userSpaceOnUse"
       gradientTransform="matrix(-86.674278,0.9255541,-0.9255541,-86.674278,600.09082,401.35889)"
       spreadMethod="pad"
       id="radialGradient6780">
      <stop
         style="stop-opacity:1;stop-color:#8e8e8e"
         offset="0"
         id="stop6774" />
      <stop
         style="stop-opacity:1;stop-color:#8e8e8e"
         offset="0.33962887"
         id="stop6776" />
      <stop
         style="stop-opacity:1;stop-color:#101010"
         offset="1"
         id="stop6778" />
    </radialGradient>
    <clipPath
       clipPathUnits="userSpaceOnUse"
       id="clipPath6790">
      <path
         d="m 589.435,381.978 c -0.622,0.121 -1.281,0.2 -1.967,0.225 v 0 c -3.931,0.139 -7.182,-1.482 -7.261,-3.627 v 0 c -0.002,-0.077 0.009,-0.152 0.014,-0.227 v 0 c -3.371,-0.192 -5.989,-1.689 -6.057,-3.609 v 0 c -0.002,-0.067 0.009,-0.134 0.012,-0.201 v 0 c -3.793,0.048 -6.882,-1.539 -6.956,-3.628 v 0 c -0.078,-2.141 3.05,-3.993 6.984,-4.137 v 0 c 0.5,-0.015 0.991,-0.004 1.466,0.032 v 0 c 1.178,-1.719 3.841,-2.939 6.958,-2.972 v 0 c 2.235,-0.024 4.248,0.569 5.661,1.532 v 0 c 1.872,-1.259 4.498,-2.061 7.419,-2.093 v 0 c 3.438,-0.037 6.491,1.005 8.398,2.629 v 0 c 1.521,-1.003 3.675,-1.646 6.078,-1.671 v 0 c 4.642,-0.05 8.428,2.205 8.46,5.042 v 0 c 0.019,1.954 -1.751,3.672 -4.372,4.564 v 0 c 0.142,0.343 0.225,0.697 0.229,1.062 v 0 c 0.028,2.619 -3.712,4.781 -8.353,4.832 v 0 c -0.262,0.003 -0.523,-0.005 -0.781,-0.014 v 0 c 0,0.007 0.002,0.015 0.002,0.022 v 0 c 0.029,2.619 -3.71,4.782 -8.352,4.832 v 0 c -0.054,0 -0.107,10e-4 -0.16,10e-4 v 0 c -3.258,0 -6.063,-1.053 -7.422,-2.594"
         id="path6788" />
    </clipPath>
    <radialGradient
       fx="0"
       fy="0"
       cx="0"
       cy="0"
       r="1"
       gradientUnits="userSpaceOnUse"
       gradientTransform="matrix(-83.167923,0.8881114,-0.8881114,-83.167923,594,329.55029)"
       spreadMethod="pad"
       id="radialGradient6808">
      <stop
         style="stop-opacity:1;stop-color:#ffffff"
         offset="0"
         id="stop6796" />
      <stop
         style="stop-opacity:1;stop-color:#6b6d73"
         offset="0.3447086"
         id="stop6798" />
      <stop
         style="stop-opacity:1;stop-color:#6b6d73"
         offset="0.467742"
         id="stop6800" />
      <stop
         style="stop-opacity:1;stop-color:#000000"
         offset="0.8079578"
         id="stop6802" />
      <stop
         style="stop-opacity:1;stop-color:#000000"
         offset="0.994624"
         id="stop6804" />
      <stop
         style="stop-opacity:1;stop-color:#000000"
         offset="1"
         id="stop6806" />
    </radialGradient>
    <clipPath
       clipPathUnits="userSpaceOnUse"
       id="clipPath6818">
      <path
         d="m 581.029,304.919 c 0,-2.095 17.185,-3.791 38.385,-3.791 v 0 c 21.2,0 38.383,1.696 38.383,3.791 v 0 c 0,2.094 -17.183,3.791 -38.383,3.791 v 0 c -21.2,0 -38.385,-1.697 -38.385,-3.791"
         id="path6816" />
    </clipPath>
    <radialGradient
       fx="0"
       fy="0"
       cx="0"
       cy="0"
       r="1"
       gradientUnits="userSpaceOnUse"
       gradientTransform="matrix(34.931717,0,0,-3.4481955,619.41309,304.91895)"
       spreadMethod="pad"
       id="radialGradient6830">
      <stop
         style="stop-opacity:1;stop-color:#bfbfbf"
         offset="0"
         id="stop6824" />
      <stop
         style="stop-opacity:1;stop-color:#ffffff"
         offset="0.83140033"
         id="stop6826" />
      <stop
         style="stop-opacity:1;stop-color:#ffffff"
         offset="1"
         id="stop6828" />
    </radialGradient>
  </defs>
  <sodipodi:namedview
     id="base"
     pagecolor="#ffffff"
     bordercolor="#666666"
     borderopacity="1.0"
     inkscape:pageopacity="0.0"
     inkscape:pageshadow="2"
     inkscape:zoom="0.35"
     inkscape:cx="71.193478"
     inkscape:cy="39.238472"
     inkscape:document-units="mm"
     inkscape:current-layer="layer1"
     inkscape:document-rotation="0"
     showgrid="false"
     fit-margin-top="0"
     fit-margin-left="0"
     fit-margin-right="0"
     fit-margin-bottom="0"
     inkscape:window-width="1267"
     inkscape:window-height="1040"
     inkscape:window-x="130"
     inkscape:window-y="0"
     inkscape:window-maximized="0" />
  <metadata
     id="metadata20709">
    <rdf:RDF>
      <cc:Work
         rdf:about="">
        <dc:format>image/svg+xml</dc:format>
        <dc:type
           rdf:resource="http://purl.org/dc/dcmitype/StillImage" />
        <dc:title></dc:title>
      </cc:Work>
    </rdf:RDF>
  </metadata>
  <g
     inkscape:label="Layer 1"
     inkscape:groupmode="layer"
     id="layer1"
     transform="translate(-86.996726,-137.78482)">
    <g
       id="g1826"
       transform="matrix(0.35277777,0,0,-0.35277777,-13.295888,193.72374)">
      <g
         id="g1828"
         clip-path="url(#clipPath1832)">
        <g
           id="g1834">
          <g
             id="g1836">
            <path
               d="m 348.196,114.233 c 0,0 28.023,-10.441 4.087,-26.355 v 0 C 328.344,71.964 342.355,51.577 342.355,51.577 v 0 c 0,0 -1.94,23.565 27.801,28.785 v 0 c 29.742,5.217 18.216,33.965 18.216,33.965 v 0 z"
               style="fill:url(#radialGradient1850);stroke:none"
               id="path1852" />
          </g>
        </g>
      </g>
    </g>
    <g
       id="g1854"
       transform="matrix(0.35277777,0,0,-0.35277777,-13.295888,193.72374)">
      <g
         id="g1856"
         clip-path="url(#clipPath1860)">
        <g
           id="g1862">
          <g
             id="g1864">
            <path
               d="m 347.483,114.233 c 0,0 23.869,-10.441 3.481,-26.355 v 0 C 330.577,71.964 342.512,51.577 342.512,51.577 v 0 c 0,0 -1.653,23.565 23.676,28.785 v 0 c 25.331,5.217 15.515,33.965 15.515,33.965 v 0 z"
               style="fill:url(#radialGradient1878);stroke:none"
               id="path1880" />
          </g>
        </g>
      </g>
    </g>
    <g
       id="g1882"
       transform="matrix(0.35277777,0,0,-0.35277777,-13.295888,193.72374)">
      <g
         id="g1884"
         clip-path="url(#clipPath1888)">
        <g
           id="g1890">
          <g
             id="g1892">
            <path
               d="m 343.635,114.44 c 0,0 25.764,-8.775 5.382,-26.058 v 0 c -20.38,-17.281 -6.505,-36.805 -6.505,-36.805 v 0 c 0,0 -3.281,23.403 22.994,30.357 v 0 c 26.274,6.952 14.078,34.96 14.078,34.96 v 0 z"
               style="fill:url(#radialGradient1906);stroke:none"
               id="path1908" />
          </g>
        </g>
      </g>
    </g>
    <g
       id="g1910"
       transform="matrix(0.35277777,0,0,-0.35277777,-13.295888,193.72374)">
      <g
         id="g1912"
         clip-path="url(#clipPath1916)">
        <g
           id="g1918">
          <g
             id="g1920">
            <path
               d="m 337.238,59.507 c 0,-0.616 1.742,-1.11 3.887,-1.11 v 0 c 2.148,0 3.886,0.494 3.886,1.11 v 0 c 0,0.211 -0.211,0.408 -0.574,0.578 v 0 c 0.13,-0.104 0.205,-0.215 0.205,-0.332 v 0 c 0,-0.547 -1.547,-0.988 -3.455,-0.988 v 0 c -1.909,0 -3.455,0.441 -3.455,0.988 v 0 c 0,0.166 0.146,0.324 0.404,0.462 v 0 c -0.559,-0.192 -0.898,-0.441 -0.898,-0.708"
               style="fill:url(#radialGradient1932);stroke:none"
               id="path1934" />
          </g>
        </g>
      </g>
    </g>
    <g
       id="g1936"
       transform="matrix(0.35277777,0,0,-0.35277777,-13.295888,193.72374)">
      <g
         id="g1938"
         clip-path="url(#clipPath1942)">
        <g
           id="g1944">
          <g
             id="g1946">
            <path
               d="m 335.29,67.634 c -0.09,-1.09 2.932,-2.233 6.748,-2.551 v 0 c 3.819,-0.316 6.988,0.311 7.078,1.403 v 0 c 0.034,0.379 -0.318,0.761 -0.937,1.115 v 0 c 0.217,-0.205 0.333,-0.412 0.315,-0.624 v 0 c -0.079,-0.968 -2.897,-1.523 -6.29,-1.244 v 0 c -3.394,0.284 -6.081,1.297 -6,2.268 v 0 c 0.025,0.296 0.31,0.556 0.788,0.763 v 0 c -1.026,-0.259 -1.663,-0.649 -1.702,-1.13"
               style="fill:url(#radialGradient1958);stroke:none"
               id="path1960" />
          </g>
        </g>
      </g>
    </g>
    <g
       id="g1962"
       transform="matrix(0.35277777,0,0,-0.35277777,-13.295888,193.72374)">
      <g
         id="g1964"
         clip-path="url(#clipPath1968)">
        <g
           id="g1970">
          <g
             id="g1972">
            <path
               d="m 349.918,99.827 c -0.004,-3.764 10.249,-6.824 22.902,-6.834 v 0 c 12.653,-0.009 22.91,3.032 22.914,6.795 v 0 c 0,1.304 -1.252,2.521 -3.392,3.561 v 0 c 0.773,-0.641 1.211,-1.329 1.211,-2.043 v 0 c -0.002,-3.348 -9.121,-6.049 -20.367,-6.041 v 0 c -11.247,0.009 -20.36,2.726 -20.357,6.074 v 0 c 0,1.025 0.866,1.99 2.386,2.838 v 0 c -3.306,-1.178 -5.297,-2.694 -5.297,-4.35"
               style="fill:url(#radialGradient1984);stroke:none"
               id="path1986" />
          </g>
        </g>
      </g>
    </g>
    <g
       id="g6616"
       transform="matrix(0.40087609,0,0,-0.40087609,-139.15853,299.95323)">
      <g
         id="g6618"
         clip-path="url(#clipPath6622)">
        <g
           id="g6624">
          <g
             id="g6626">
            <path
               d="m 652.93,384.706 c -0.675,0.13 -1.387,0.217 -2.127,0.243 v 0 c -4.256,0.153 -7.772,-1.603 -7.855,-3.923 v 0 c -0.003,-0.083 0.008,-0.163 0.014,-0.245 v 0 c -3.647,-0.208 -6.478,-1.829 -6.555,-3.905 v 0 c -0.002,-0.072 0.007,-0.143 0.013,-0.217 v 0 c -4.104,0.053 -7.445,-1.665 -7.523,-3.924 v 0 c -0.087,-2.319 3.298,-4.322 7.554,-4.474 v 0 c 0.542,-0.019 1.072,-0.008 1.586,0.032 v 0 c 1.273,-1.861 4.155,-3.181 7.528,-3.217 v 0 c 2.42,-0.026 4.599,0.618 6.122,1.658 v 0 c 2.03,-1.364 4.873,-2.23 8.032,-2.264 v 0 c 3.718,-0.039 7.021,1.086 9.084,2.844 v 0 c 1.644,-1.085 3.978,-1.78 6.578,-1.808 v 0 c 5.021,-0.054 9.119,2.388 9.149,5.454 v 0 c 0.024,2.116 -1.892,3.974 -4.729,4.943 v 0 c 0.154,0.367 0.243,0.751 0.248,1.146 v 0 c 0.032,2.832 -4.013,5.173 -9.035,5.227 v 0 c -0.286,0.003 -0.569,-0.004 -0.846,-0.015 v 0 c 0,0.008 0.002,0.016 0.002,0.024 v 0 c 0.03,2.833 -4.016,5.174 -9.038,5.228 v 0 c -0.059,0.001 -0.118,0.001 -0.176,0.001 v 0 c -3.525,0 -6.561,-1.139 -8.026,-2.808"
               style="fill:url(#radialGradient6634);stroke:none"
               id="path6636" />
          </g>
        </g>
      </g>
    </g>
    <g
       id="g6638"
       transform="matrix(0.40087609,0,0,-0.40087609,-139.15853,299.95323)">
      <g
         id="g6640"
         clip-path="url(#clipPath6644)">
        <g
           id="g6646">
          <g
             id="g6648">
            <path
               d="m 653.337,383.783 c -0.604,0.117 -1.239,0.195 -1.902,0.219 v 0 c -3.8,0.135 -6.944,-1.434 -7.021,-3.505 v 0 c -0.002,-0.074 0.008,-0.148 0.014,-0.222 v 0 c -3.26,-0.185 -5.788,-1.633 -5.855,-3.487 v 0 c -0.002,-0.067 0.008,-0.131 0.013,-0.196 v 0 c -3.671,0.047 -6.656,-1.489 -6.725,-3.507 v 0 c -0.077,-2.072 2.948,-3.863 6.75,-3.998 v 0 c 0.485,-0.017 0.96,-0.005 1.416,0.028 v 0 c 1.141,-1.661 3.714,-2.84 6.729,-2.873 v 0 c 2.161,-0.022 4.107,0.553 5.473,1.483 v 0 c 1.811,-1.219 4.35,-1.994 7.172,-2.023 v 0 c 3.326,-0.037 6.275,0.969 8.122,2.54 v 0 c 1.469,-0.971 3.553,-1.592 5.877,-1.617 v 0 c 4.486,-0.049 8.15,2.136 8.178,4.875 v 0 c 0.021,1.888 -1.692,3.55 -4.229,4.415 v 0 c 0.14,0.33 0.219,0.671 0.223,1.026 v 0 c 0.029,2.53 -3.59,4.623 -8.073,4.671 v 0 c -0.254,0.002 -0.509,-0.003 -0.758,-0.015 v 0 c 0,0.008 0.002,0.015 0.002,0.023 v 0 c 0.026,2.531 -3.589,4.625 -8.074,4.673 v 0 c -0.052,0 -0.104,0 -0.155,0 v 0 c -3.151,10e-4 -5.864,-1.018 -7.177,-2.51"
               style="fill:url(#radialGradient6660);stroke:none"
               id="path6662" />
          </g>
        </g>
      </g>
    </g>
    <g
       id="g6664"
       transform="matrix(0.40087609,0,0,-0.40087609,-139.15853,299.95323)">
      <g
         id="g6666"
         clip-path="url(#clipPath6670)">
        <g
           id="g6672">
          <g
             id="g6674">
            <path
               d="m 617.464,401.099 c -0.825,0.16 -1.696,0.265 -2.603,0.298 v 0 c -5.21,0.187 -9.515,-1.963 -9.615,-4.8 v 0 c -0.004,-0.104 0.008,-0.203 0.016,-0.304 v 0 c -4.463,-0.253 -7.928,-2.236 -8.023,-4.78 v 0 c -0.002,-0.089 0.011,-0.176 0.018,-0.266 v 0 c -5.026,0.066 -9.114,-2.038 -9.211,-4.801 v 0 c -0.105,-2.839 4.038,-5.292 9.246,-5.478 v 0 c 0.664,-0.023 1.315,-0.008 1.942,0.042 v 0 c 1.558,-2.279 5.088,-3.895 9.215,-3.938 v 0 c 2.961,-0.032 5.626,0.755 7.494,2.027 v 0 c 2.479,-1.669 5.962,-2.728 9.83,-2.769 v 0 c 4.552,-0.049 8.602,1.324 11.128,3.475 v 0 c 2.017,-1.327 4.867,-2.176 8.044,-2.21 v 0 c 6.146,-0.065 11.162,2.927 11.202,6.677 v 0 c 0.028,2.59 -2.319,4.865 -5.793,6.049 v 0 c 0.191,0.451 0.302,0.92 0.306,1.404 v 0 c 0.037,3.469 -4.915,6.333 -11.061,6.399 v 0 c -0.352,0.004 -0.694,-0.004 -1.036,-0.018 v 0 c 0,0.009 0,0.018 0.002,0.029 v 0 c 0.037,3.469 -4.915,6.334 -11.06,6.399 v 0 c -0.071,0.001 -0.142,0.001 -0.213,0.001 v 0 c -4.313,0 -8.031,-1.395 -9.828,-3.436"
               style="fill:url(#radialGradient6682);stroke:none"
               id="path6684" />
          </g>
        </g>
      </g>
    </g>
    <g
       id="g6686"
       transform="matrix(0.40087609,0,0,-0.40087609,-139.15853,299.95323)">
      <g
         id="g6688"
         clip-path="url(#clipPath6692)">
        <g
           id="g6694">
          <g
             id="g6696">
            <path
               d="m 617.962,399.969 c -0.737,0.143 -1.517,0.238 -2.327,0.266 v 0 c -4.654,0.167 -8.501,-1.752 -8.593,-4.29 v 0 c -0.002,-0.09 0.012,-0.179 0.015,-0.269 v 0 c -3.989,-0.229 -7.085,-2 -7.166,-4.271 v 0 c -0.003,-0.08 0.009,-0.159 0.014,-0.237 v 0 c -4.492,0.057 -8.142,-1.824 -8.232,-4.293 v 0 c -0.092,-2.537 3.608,-4.729 8.264,-4.896 v 0 c 0.592,-0.021 1.174,-0.008 1.735,0.036 v 0 c 1.393,-2.036 4.546,-3.478 8.235,-3.517 v 0 c 2.646,-0.028 5.027,0.674 6.696,1.811 v 0 c 2.215,-1.491 5.326,-2.438 8.783,-2.475 v 0 c 4.07,-0.044 7.689,1.183 9.949,3.106 v 0 c 1.798,-1.186 4.345,-1.943 7.186,-1.973 v 0 c 5.492,-0.059 9.975,2.611 10.01,5.966 v 0 c 0.026,2.313 -2.072,4.346 -5.176,5.405 v 0 c 0.168,0.404 0.269,0.822 0.273,1.255 v 0 c 0.033,3.099 -4.394,5.659 -9.883,5.717 v 0 c -0.314,0.003 -0.623,-0.004 -0.927,-0.015 v 0 0.026 c 0.035,3.101 -4.389,5.659 -9.883,5.718 v 0 c -0.063,0.001 -0.126,0.001 -0.189,0.001 v 0 c -3.855,0 -7.176,-1.246 -8.784,-3.071"
               style="fill:url(#radialGradient6708);stroke:none"
               id="path6710" />
          </g>
        </g>
      </g>
    </g>
    <g
       id="g6712"
       transform="matrix(0.40087609,0,0,-0.40087609,-139.15853,299.95323)">
      <g
         id="g6714"
         clip-path="url(#clipPath6718)">
        <g
           id="g6720">
          <g
             id="g6722">
            <path
               d="m 618.987,383.397 c -0.857,0.166 -1.763,0.275 -2.706,0.309 v 0 c -5.436,0.194 -9.929,-2.048 -10.034,-5.012 v 0 c -0.004,-0.105 0.011,-0.211 0.017,-0.314 v 0 c -4.66,-0.267 -8.278,-2.336 -8.372,-4.988 v 0 c -0.001,-0.094 0.011,-0.185 0.016,-0.277 v 0 c -5.241,0.066 -9.51,-2.131 -9.613,-5.014 v 0 c -0.106,-2.962 4.215,-5.523 9.651,-5.715 v 0 c 0.693,-0.024 1.371,-0.009 2.026,0.041 v 0 c 1.626,-2.377 5.309,-4.063 9.62,-4.108 v 0 c 3.089,-0.034 5.868,0.787 7.819,2.116 v 0 c 2.589,-1.744 6.222,-2.847 10.26,-2.89 v 0 c 4.747,-0.052 8.975,1.379 11.609,3.621 v 0 c 2.101,-1.384 5.084,-2.266 8.4,-2.301 v 0 c 6.413,-0.068 11.649,3.053 11.691,6.97 v 0 c 0.028,2.699 -2.419,5.074 -6.039,6.31 v 0 c 0.198,0.472 0.306,0.962 0.313,1.467 v 0 c 0.037,3.618 -5.132,6.608 -11.546,6.677 v 0 c -0.363,0.003 -0.724,-0.003 -1.078,-0.018 v 0 0.029 c 0.039,3.62 -5.13,6.61 -11.544,6.679 v 0 c -0.074,0.001 -0.148,0.001 -0.222,0.001 v 0 c -4.502,0 -8.394,-1.452 -10.268,-3.583"
               style="fill:url(#radialGradient6730);stroke:none"
               id="path6732" />
          </g>
        </g>
      </g>
    </g>
    <g
       id="g6734"
       transform="matrix(0.40087609,0,0,-0.40087609,-139.15853,299.95323)">
      <g
         id="g6736"
         clip-path="url(#clipPath6740)">
        <g
           id="g6742">
          <g
             id="g6744">
            <path
               d="m 619.519,382.216 c -0.771,0.15 -1.582,0.247 -2.43,0.278 v 0 c -4.856,0.174 -8.871,-1.829 -8.965,-4.478 v 0 c -0.005,-0.094 0.009,-0.188 0.015,-0.282 v 0 c -4.164,-0.236 -7.395,-2.087 -7.481,-4.455 v 0 c -0.003,-0.084 0.009,-0.167 0.015,-0.251 v 0 c -4.686,0.061 -8.497,-1.901 -8.592,-4.478 v 0 c -0.096,-2.647 3.767,-4.936 8.626,-5.108 v 0 c 0.62,-0.022 1.226,-0.008 1.809,0.038 v 0 c 1.455,-2.124 4.745,-3.63 8.594,-3.672 v 0 c 2.762,-0.029 5.245,0.704 6.987,1.889 v 0 c 2.316,-1.556 5.562,-2.543 9.17,-2.582 v 0 c 4.247,-0.046 8.024,1.234 10.381,3.24 v 0 c 1.878,-1.236 4.537,-2.028 7.501,-2.06 v 0 c 5.732,-0.061 10.409,2.727 10.447,6.229 v 0 c 0.026,2.412 -2.161,4.535 -5.403,5.64 v 0 c 0.179,0.421 0.282,0.858 0.286,1.31 v 0 c 0.035,3.234 -4.583,5.907 -10.316,5.968 v 0 c -0.326,0.003 -0.646,-0.005 -0.966,-0.017 v 0 c 0,0.009 0.002,0.018 0.002,0.027 v 0 c 0.035,3.234 -4.583,5.905 -10.316,5.967 v 0 c -0.067,0 -0.134,0.001 -0.201,0.001 v 0 c -4.022,0 -7.487,-1.3 -9.163,-3.204"
               style="fill:url(#radialGradient6758);stroke:none"
               id="path6760" />
          </g>
        </g>
      </g>
    </g>
    <g
       id="g6762"
       transform="matrix(0.40087609,0,0,-0.40087609,-139.15853,299.95323)">
      <g
         id="g6764"
         clip-path="url(#clipPath6768)">
        <g
           id="g6770">
          <g
             id="g6772">
            <path
               d="m 589.014,382.932 c -0.697,0.135 -1.433,0.223 -2.202,0.252 v 0 c -4.4,0.157 -8.037,-1.659 -8.123,-4.058 v 0 c -0.003,-0.087 0.009,-0.17 0.013,-0.254 v 0 c -3.77,-0.216 -6.7,-1.893 -6.777,-4.039 v 0 c -0.004,-0.077 0.009,-0.15 0.013,-0.224 v 0 c -4.247,0.052 -7.699,-1.726 -7.784,-4.058 v 0 c -0.084,-2.4 3.414,-4.472 7.817,-4.629 v 0 c 0.561,-0.021 1.108,-0.008 1.639,0.033 v 0 c 1.316,-1.924 4.299,-3.289 7.788,-3.327 v 0 c 2.499,-0.026 4.752,0.64 6.33,1.713 v 0 c 2.094,-1.411 5.037,-2.306 8.303,-2.34 v 0 c 3.85,-0.042 7.274,1.118 9.407,2.937 v 0 c 1.703,-1.122 4.11,-1.837 6.797,-1.866 v 0 c 5.194,-0.055 9.43,2.47 9.463,5.644 v 0 c 0.024,2.186 -1.958,4.107 -4.895,5.109 v 0 c 0.16,0.381 0.257,0.777 0.26,1.186 v 0 c 0.032,2.93 -4.153,5.351 -9.348,5.406 v 0 c -0.295,0.004 -0.585,-0.004 -0.876,-0.016 v 0 c 0.003,0.008 0.005,0.017 0.005,0.025 v 0 c 0.03,2.932 -4.154,5.352 -9.347,5.408 v 0 c -0.06,0 -0.12,10e-4 -0.18,10e-4 v 0 c -3.644,0 -6.784,-1.178 -8.303,-2.903"
               style="fill:url(#radialGradient6780);stroke:none"
               id="path6782" />
          </g>
        </g>
      </g>
    </g>
    <g
       id="g6784"
       transform="matrix(0.40087609,0,0,-0.40087609,-139.15853,299.95323)">
      <g
         id="g6786"
         clip-path="url(#clipPath6790)">
        <g
           id="g6792">
          <g
             id="g6794">
            <path
               d="m 589.435,381.978 c -0.622,0.121 -1.281,0.2 -1.967,0.225 v 0 c -3.931,0.139 -7.182,-1.482 -7.261,-3.627 v 0 c -0.002,-0.077 0.009,-0.152 0.014,-0.227 v 0 c -3.371,-0.192 -5.989,-1.689 -6.057,-3.609 v 0 c -0.002,-0.067 0.009,-0.134 0.012,-0.201 v 0 c -3.793,0.048 -6.882,-1.539 -6.956,-3.628 v 0 c -0.078,-2.141 3.05,-3.993 6.984,-4.137 v 0 c 0.5,-0.015 0.991,-0.004 1.466,0.032 v 0 c 1.178,-1.719 3.841,-2.939 6.958,-2.972 v 0 c 2.235,-0.024 4.248,0.569 5.661,1.532 v 0 c 1.872,-1.259 4.498,-2.061 7.419,-2.093 v 0 c 3.438,-0.037 6.491,1.005 8.398,2.629 v 0 c 1.521,-1.003 3.675,-1.646 6.078,-1.671 v 0 c 4.642,-0.05 8.428,2.205 8.46,5.042 v 0 c 0.019,1.954 -1.751,3.672 -4.372,4.564 v 0 c 0.142,0.343 0.225,0.697 0.229,1.062 v 0 c 0.028,2.619 -3.712,4.781 -8.353,4.832 v 0 c -0.262,0.003 -0.523,-0.005 -0.781,-0.014 v 0 c 0,0.007 0.002,0.015 0.002,0.022 v 0 c 0.029,2.619 -3.71,4.782 -8.352,4.832 v 0 c -0.054,0 -0.107,10e-4 -0.16,10e-4 v 0 c -3.258,0 -6.063,-1.053 -7.422,-2.594"
               style="fill:url(#radialGradient6808);stroke:none"
               id="path6810" />
          </g>
        </g>
      </g>
    </g>
    <g
       id="g6812"
       transform="matrix(0.35277777,0,0,-0.35277777,-110.98076,284.43454)">
      <g
         id="g6814"
         clip-path="url(#clipPath6818)">
        <g
           id="g6820">
          <g
             id="g6822">
            <path
               d="m 581.029,304.919 c 0,-2.095 17.185,-3.791 38.385,-3.791 v 0 c 21.2,0 38.383,1.696 38.383,3.791 v 0 c 0,2.094 -17.183,3.791 -38.383,3.791 v 0 c -21.2,0 -38.385,-1.697 -38.385,-3.791"
               style="fill:url(#radialGradient6830);stroke:none"
               id="path6832" />
          </g>
        </g>
      </g>
    </g>
  </g>
</svg>
