<?xml version="1.0"?>
<svg xmlns:rdf="http://www.w3.org/1999/02/22-rdf-syntax-ns#" xmlns="http://www.w3.org/2000/svg" xmlns:cc="http://creativecommons.org/ns#" xmlns:xlink="http://www.w3.org/1999/xlink" xmlns:dc="http://purl.org/dc/elements/1.1/" xmlns:svg="http://www.w3.org/2000/svg" id="svg2985" height="210mm" width="297mm" version="1.1">
  <defs id="defs2987">
    <filter id="filter3809">
      <feGaussianBlur id="feGaussianBlur3811" stdDeviation="1.6787311"/>
    </filter>
    <filter id="filter4016">
      <feGaussianBlur id="feGaussianBlur4018" stdDeviation="11.928336"/>
    </filter>
    <linearGradient id="linearGradient3082" x1="505.71" gradientUnits="userSpaceOnUse" y1="720.89" gradientTransform="translate(9.7721 -4.8861)" x2="505.3" y2="688.31">
      <stop id="stop3840" stop-color="#ccc" offset="0"/>
      <stop id="stop3842" stop-color="#ccc" stop-opacity="0" offset="1"/>
    </linearGradient>
    <linearGradient id="linearGradient3091" x1="491.76" gradientUnits="userSpaceOnUse" y1="654" gradientTransform="translate(9.7721 -4.8861)" x2="564.31" y2="654">
      <stop id="stop3815" stop-color="#1a1a1a" offset="0"/>
      <stop id="stop3821" stop-color="#8a8a8a" offset=".5"/>
      <stop id="stop3817" stop-color="#1a1a1a" offset="1"/>
    </linearGradient>
    <radialGradient id="radialGradient3094" gradientUnits="userSpaceOnUse" cy="687.39" cx="527.46" gradientTransform="matrix(.40966 0 0 .073366 321.56 624.82)" r="251.06">
      <stop id="stop3827" stop-color="#e6e6e6" offset="0"/>
      <stop id="stop3829" stop-color="#e6e6e6" stop-opacity="0" offset="1"/>
    </radialGradient>
  </defs>
  <g id="layer1">
    <g id="g3885">
      <g id="g3993" filter="url(#filter4016)" transform="translate(-848.54 -13.029)">
        <path id="path3937" d="m1126.6 705.38c169.05-27.156 336.14-23.047 502.12-1.1516v6.9099c-167.58 23.068-334.15 28.997-498.67 0z"/>
        <path id="path3939" opacity=".61475" d="m1275.2 698.67c69.252-22.566 137.7-19.151 205.7-0.95698v5.7419c-68.651 19.169-136.89 24.096-204.28 0z"/>
        <path id="path3941" d="m911.21 76.579h935.14l1.1517 580.43c-309.3 12.802-620.47 10.586-932.84-1.1516z"/>
        <path id="path3943" d="m1345.4 648.95-3.455 42.611c27.412 12.446 51.281 12.495 72.554 3.455l-4.6066-43.763z"/>
        <path id="path3951" d="m1628.7 705.11c-163.95 22.971-329.29 29.526-497.53 2l-4.4375-1.75c-0.053 0.008-0.1038 0.0228-0.1563 0.0312l3.4375 5.75c164.52 28.997 331.11 23.068 498.69 0v-6.0312z"/>
        <rect id="rect3953" opacity=".61475" ry="5.1824" height="48.945" width="7.4857" y="603.46" x="1373"/>
        <path id="path3955" d="m911.21 76.579h935.14l1.1517 34.64c-309.3 0.76404-620.47 0.63179-932.84-0.0687z"/>
        <rect id="rect3961" opacity=".61475" ry="4.9386" height="46.642" width="2.8791" y="604.61" x="1375.3"/>
        <path id="path3963" d="m911.21 581c312.48 16.054 624.2 16.192 935.14 0l1.1517 76.009c-309.3 1.6765-620.47 1.3863-932.84-0.15081z"/>
      </g>
      <path id="path3009" fill="#1a1a1a" d="m286.17 679.32c169.05-27.156 336.14-23.047 502.12-1.1516v6.9099c-167.58 23.068-334.15 28.997-498.67 0z"/>
      <path id="path3823" opacity=".61475" fill="url(#radialGradient3094)" d="m434.79 672.61c69.252-22.566 137.7-19.151 205.7-0.95698v5.7419c-68.651 19.169-136.89 24.096-204.29 0z"/>
      <path id="path3007" fill="url(#linearGradient3091)" d="m504.98 622.89-3.455 42.611c27.412 12.446 51.281 12.495 72.554 3.455l-4.6066-43.763z"/>
      <path id="path3005" fill="#b3b3b3" d="m70.81 50.52h935.14l1.1516 580.43c-309.39 12.81-620.57 10.59-932.94-1.15z"/>
      <path id="path3011" d="m75.696 57.034h925.38l1.1396 567.6c-306.05 12.52-613.98 10.35-923.08-1.13z"/>
      <path id="path3013" filter="url(#filter3809)" fill="#ccc" d="m106.64 86.351h863.57l1.0635 471.31c-285.63 10.395-572.98 8.596-861.44-0.93515z"/>
      <path id="path3015" d="m113.16 92.865h850.56l1.0475 460.08c-281.32 10.148-564.35 8.3912-848.46-0.91286z" fill="#1a1a1a"/>
      <path id="path3833" d="m788.3 679.05c-163.95 22.971-329.29 29.526-497.53 2l-4.4375-1.75c-0.0525 0.008-0.1038 0.0228-0.15625 0.0312l3.4375 5.75c164.52 28.997 331.11 23.068 498.69 0v-6.0312z" fill="url(#linearGradient3082)"/>
      <rect id="rect3901" opacity=".61475" ry="5.1824" height="48.945" width="7.4857" y="577.4" x="532.62" fill="#2b0000"/>
      <rect id="rect3903" opacity=".61475" ry="4.9386" height="46.642" width="2.8791" y="578.55" x="534.93" fill="#800000"/>
      <path id="path3875" opacity=".31148" d="m70.812 50.531l2.813 474.85c254.7-59.18 207.06-350.9 329.94-474.85l-332.75 0.001z" fill="#fff"/>
      <path id="path3879" opacity=".31148" d="m930.62 50.531c2.09 280.26-323.43 321.03-514.24 588.03 197.54 2.57 394.5 0.5 590.72-7.62l-1.2-580.41-75.28 0.001z" fill="#fff"/>
    </g>
  </g>
  <metadata>
    <rdf:RDF>
      <cc:Work>
        <dc:format>image/svg+xml</dc:format>
        <dc:type rdf:resource="http://purl.org/dc/dcmitype/StillImage"/>
        <cc:license rdf:resource="http://creativecommons.org/licenses/publicdomain/"/>
        <dc:publisher>
          <cc:Agent rdf:about="http://openclipart.org/">
            <dc:title>Openclipart</dc:title>
          </cc:Agent>
        </dc:publisher>
        <dc:title>OpenClipArt on Screen Remixed</dc:title>
        <dc:date>2012-06-10T01:57:21</dc:date>
        <dc:description>A simple screen clipart</dc:description>
        <dc:source>http://openclipart.org/detail/170519/openclipart-on-screen-remixed-by-hatalar205-170519</dc:source>
        <dc:creator>
          <cc:Agent>
            <dc:title>hatalar205</dc:title>
          </cc:Agent>
        </dc:creator>
        <dc:subject>
          <rdf:Bag>
            <rdf:li>LCD</rdf:li>
            <rdf:li>OCAL</rdf:li>
            <rdf:li>TV</rdf:li>
            <rdf:li>clip art</rdf:li>
            <rdf:li>clipart</rdf:li>
            <rdf:li>monitor</rdf:li>
            <rdf:li>screen</rdf:li>
          </rdf:Bag>
        </dc:subject>
      </cc:Work>
      <cc:License rdf:about="http://creativecommons.org/licenses/publicdomain/">
        <cc:permits rdf:resource="http://creativecommons.org/ns#Reproduction"/>
        <cc:permits rdf:resource="http://creativecommons.org/ns#Distribution"/>
        <cc:permits rdf:resource="http://creativecommons.org/ns#DerivativeWorks"/>
      </cc:License>
    </rdf:RDF>
  </metadata>
</svg>
