<?xml version="1.0" encoding="UTF-8" standalone="no"?>
<svg
   xmlns:dc="http://purl.org/dc/elements/1.1/"
   xmlns:cc="http://creativecommons.org/ns#"
   xmlns:rdf="http://www.w3.org/1999/02/22-rdf-syntax-ns#"
   xmlns:svg="http://www.w3.org/2000/svg"
   xmlns="http://www.w3.org/2000/svg"
   xmlns:sodipodi="http://sodipodi.sourceforge.net/DTD/sodipodi-0.dtd"
   xmlns:inkscape="http://www.inkscape.org/namespaces/inkscape"
   id="svg2"
   viewBox="0 0 332.59843 472.44094"
   sodipodi:version="0.32"
   version="1.0"
   y="0"
   x="0"
   sodipodi:docname="ace.svg"
   width="88mm"
   height="125mm"
   inkscape:version="1.0.2-2 (e86c870879, 2021-01-15)">
  <defs
     id="defs20" />
  <sodipodi:namedview
     id="base"
     bordercolor="#666666"
     borderopacity="1.0"
     pagecolor="#ffffff"
     inkscape:document-rotation="0"
     showgrid="false"
     units="mm"
     inkscape:zoom="0.76993576"
     inkscape:cx="-160.84609"
     inkscape:cy="134.26816"
     inkscape:window-width="1920"
     inkscape:window-height="1017"
     inkscape:window-x="-8"
     inkscape:window-y="-8"
     inkscape:window-maximized="1"
     inkscape:current-layer="svg2" />
  <g
     id="layer1"
     transform="matrix(2.0503297,0,0,2.0503297,25.544344,43.473613)">
    <g
       id="g5630">
      <path
         id="rect2070"
         d="m 21,5 h 103 c 8.86,0 16,7.136 16,16 v 153 c 0,8.86 -7.14,16 -16,16 H 21 C 12.136,190 5,182.86 5,174 V 21 C 5,12.136 12.136,5 21,5 Z"
         fill-opacity="0.49804" />
      <path
         id="rect1300"
         d="m 17,1 h 103 c 8.86,0 16,7.136 16,16 v 153 c 0,8.86 -7.14,16 -16,16 H 17 C 8.136,186 1,178.86 1,170 V 17 C 1,8.136 8.136,1 17,1 Z"
         fill="#e7e7e7" />
      <path
         id="path5624"
         d="m 19,3 h 103 c 8.86,0 16,7.136 16,16 v 153 c 0,8.86 -7.14,16 -16,16 H 19 C 10.136,188 3,180.86 3,172 V 19 C 3,10.136 10.136,3 19,3 Z"
         fill="#c7891f" />
      <path
         id="rect1306"
         d="m 18,2 h 103 c 8.86,0 16,7.136 16,16 v 153 c 0,8.86 -7.14,16 -16,16 H 18 C 9.136,187 2,179.86 2,171 V 18 C 2,9.136 9.136,2 18,2 Z"
         fill="#ffffff" />
    </g>
  </g>
  <path
     id="text2070"
     d="M 77.723183,118.38036 H 57.217836 l -3.23747,11.2071 H 40.798591 L 59.635176,68.077569 H 75.27099 L 94.107368,129.58746 H 80.923749 l -3.200566,-11.2071 M 60.486062,106.96822 H 74.418051 L 67.469485,82.497537 60.486062,106.96822"
     fill="#ff0000"
     style="stroke-width:2.05034" />
  <g
     id="g1605"
     transform="matrix(0.58719392,0,0,0.79710667,-33.984928,24.052071)"
     fill="#ff0000">
    <path
       id="path1585"
       d="m 147.21,156.42 c -2.54,0.01 -5.33,0.48 -8.41,1.53 -33.62,19.53 11.7,51.04 30.84,78.09 l 0.56,0.14 c 21.03,-29.57 61.07,-62.11 30.47,-78.23 -24.23,-8.25 -30.71,19.2 -30.93,20.19 -0.2,-0.87 -5.15,-21.81 -22.53,-21.72 z"
       transform="matrix(1.1054,0,0,1.0796,-12.014,-18.867)"
       fill-rule="evenodd" />
  </g>
  <path
     id="text15628"
     d="m 258.40029,356.08738 h 20.5033 l 3.23951,-11.2153 h 13.18363 l -18.84253,61.50989 h -15.62352 l -18.84253,-61.50989 h 13.18362 l 3.19852,11.2153 m 17.24326,11.39983 h -13.94223 l 6.95062,24.48094 6.99161,-24.48094"
     fill="#ff0000"
     style="stroke-width:2.05034" />
  <g
     id="g15632"
     transform="matrix(-0.58727594,0,0,-0.79710667,370.12274,450.0745)"
     fill="#ff0000">
    <path
       id="path15634"
       d="m 147.21,156.42 c -2.54,0.01 -5.33,0.48 -8.41,1.53 -33.62,19.53 11.7,51.04 30.84,78.09 l 0.56,0.14 c 21.03,-29.57 61.07,-62.11 30.47,-78.23 -24.23,-8.25 -30.71,19.2 -30.93,20.19 -0.2,-0.87 -5.15,-21.81 -22.53,-21.72 z"
       transform="matrix(1.1054,0,0,1.0796,-12.014,-18.867)"
       fill-rule="evenodd" />
  </g>
  <g
     id="g1318"
     transform="matrix(1.2574672,0,0,1.7218668,-52.202108,-93.724198)"
     fill="#ff0000">
    <path
       id="path1320"
       d="m 147.21,156.42 c -2.54,0.01 -5.33,0.48 -8.41,1.53 -33.62,19.53 11.7,51.04 30.84,78.09 l 0.56,0.14 c 21.03,-29.57 61.07,-62.11 30.47,-78.23 -24.23,-8.25 -30.71,19.2 -30.93,20.19 -0.2,-0.87 -5.15,-21.81 -22.53,-21.72 z"
       transform="matrix(1.1054,0,0,1.0796,-12.014,-18.867)"
       fill-rule="evenodd" />
  </g>
  <metadata
     id="metadata17">
    <rdf:RDF>
      <cc:Work>
        <dc:format>image/svg+xml</dc:format>
        <dc:type
           rdf:resource="http://purl.org/dc/dcmitype/StillImage" />
        <cc:license
           rdf:resource="http://creativecommons.org/publicdomain/zero/1.0/" />
        <dc:publisher>
          <cc:Agent
             rdf:about="http://openclipart.org/">
            <dc:title>Openclipart</dc:title>
          </cc:Agent>
        </dc:publisher>
        <dc:title>White deck: Ace of hearts</dc:title>
        <dc:date>2009-03-24T12:27:13</dc:date>
        <dc:description>playing card from the &quot;White&quot; set</dc:description>
        <dc:source>http://openclipart.org/detail/23191/white-deck:-ace-of-hearts-by-nicubunu</dc:source>
        <dc:creator>
          <cc:Agent>
            <dc:title>nicubunu</dc:title>
          </cc:Agent>
        </dc:creator>
        <dc:subject>
          <rdf:Bag>
            <rdf:li>card</rdf:li>
            <rdf:li>cards</rdf:li>
            <rdf:li>clip art</rdf:li>
            <rdf:li>clipart</rdf:li>
            <rdf:li>deck</rdf:li>
            <rdf:li>gambling</rdf:li>
            <rdf:li>game</rdf:li>
            <rdf:li>image</rdf:li>
            <rdf:li>media</rdf:li>
            <rdf:li>play</rdf:li>
            <rdf:li>playing cards</rdf:li>
            <rdf:li>png</rdf:li>
            <rdf:li>public domain</rdf:li>
            <rdf:li>svg</rdf:li>
            <rdf:li>white deck</rdf:li>
          </rdf:Bag>
        </dc:subject>
      </cc:Work>
      <cc:License
         rdf:about="http://creativecommons.org/publicdomain/zero/1.0/">
        <cc:permits
           rdf:resource="http://creativecommons.org/ns#Reproduction" />
        <cc:permits
           rdf:resource="http://creativecommons.org/ns#Distribution" />
        <cc:permits
           rdf:resource="http://creativecommons.org/ns#DerivativeWorks" />
      </cc:License>
    </rdf:RDF>
  </metadata>
</svg>
