<?xml version="1.0" encoding="UTF-8" standalone="no"?>
<svg
   xmlns:dc="http://purl.org/dc/elements/1.1/"
   xmlns:cc="http://creativecommons.org/ns#"
   xmlns:rdf="http://www.w3.org/1999/02/22-rdf-syntax-ns#"
   xmlns:svg="http://www.w3.org/2000/svg"
   xmlns="http://www.w3.org/2000/svg"
   xmlns:sodipodi="http://sodipodi.sourceforge.net/DTD/sodipodi-0.dtd"
   xmlns:inkscape="http://www.inkscape.org/namespaces/inkscape"
   id="svg2"
   viewBox="0 0 332.59841 472.44095"
   version="1.0"
   inkscape:version="1.0.2-2 (e86c870879, 2021-01-15)"
   sodipodi:docname="acorn.svg"
   width="88mm"
   height="125mm">
  <defs
     id="defs14" />
  <sodipodi:namedview
     pagecolor="#ffffff"
     bordercolor="#666666"
     borderopacity="1"
     objecttolerance="10"
     gridtolerance="10"
     guidetolerance="10"
     inkscape:pageopacity="0"
     inkscape:pageshadow="2"
     inkscape:window-width="1920"
     inkscape:window-height="1017"
     id="namedview12"
     showgrid="false"
     units="mm"
     width="88mm"
     inkscape:zoom="1.5931284"
     inkscape:cx="-28.373593"
     inkscape:cy="216.05218"
     inkscape:window-x="-8"
     inkscape:window-y="-8"
     inkscape:window-maximized="1"
     inkscape:current-layer="svg2" />
  <g
     id="layer1"
     transform="matrix(0,-1.0762483,1.0762483,0,-392.07072,588.62321)">
    <path
       id="path2383"
       style="fill:#a05a2c;stroke:#000000;stroke-width:7.4502;stroke-linecap:round;stroke-linejoin:round"
       d="m 408.56,465.76 c -30.57,-53.07 -104.32,-75.18 -159.03,-47.69 -38.43,18.95 -62.05,57.6 -76.74,96.26 -10.54,27.91 -17.04,59.1 -9.19,88.59 9.66,22.93 34.25,33.82 56.48,41.01 44.35,14.07 94.69,15.96 138.21,-2.87 53.18,-25.56 81.74,-92.09 62.67,-148.05 -3,-9.51 -7.27,-18.66 -12.4,-27.25 z" />
    <path
       id="path3250"
       style="fill:#000000;fill-opacity:0.31373"
       d="m 323.03,408.16 c 8.32,4.5 16.06,10.1 22.91,16.81 6.69,6.35 12.72,13.4 17.75,21.09 30.8,44.93 21.97,111.07 -18.88,146.94 -33.94,27.5 -79.09,38.29 -121.93,36.81 -17.36,-0.69 -36.67,-3.14 -50.97,-13.5 12,14.11 30.79,22.02 48.15,27.63 44.36,14.07 94.71,15.95 138.22,-2.88 53.18,-25.56 81.76,-92.1 62.69,-148.06 -3.01,-9.51 -7.27,-18.66 -12.41,-27.25 -17.88,-31.04 -50.54,-51.47 -85.53,-57.59 z" />
    <path
       id="path3239"
       style="fill:#502d16;fill-rule:evenodd;stroke:#000000;stroke-width:7.4502"
       d="m 412.48,455.53 c 15.07,-23.4 62.95,-35.93 72.87,-23.7 9.92,12.24 5.19,33.75 2.18,36.3 -3.02,2.56 -22.64,-13.05 -39.76,-5.21 -17.11,7.84 -26.76,15.86 -26.76,15.86 z" />
    <path
       id="path3263"
       style="fill:#000000;fill-opacity:0.31373;fill-rule:evenodd"
       d="m 490.84,445.22 c -0.48,2.87 -1.49,5.09 -2.46,5.78 -2.83,1.99 -23.43,-6.24 -39.91,0.69 -16.49,6.92 -25.53,13.19 -25.53,13.19 l -8.44,-12.1 c -0.71,0.91 -1.42,1.81 -2.03,2.75 l 8.53,23.25 c 0,0 9.67,-8.04 26.78,-15.87 17.11,-7.84 36.74,7.77 39.75,5.21 2.07,-1.75 4.92,-12.42 3.31,-22.9 z" />
    <path
       id="path3201"
       style="fill:#502d16;stroke:#000000;stroke-width:7.4502;stroke-linecap:round;stroke-linejoin:round"
       d="m 422.01,458.24 c -30.13,-51.67 -95.28,-80.45 -151.24,-62.77 -12.41,3.05 -13.12,18.92 -12.96,18.69 21.89,-9.44 36.39,11.33 56.28,35.63 24.32,29.72 48.54,71.78 64.21,110.57 10.96,27.15 17.21,52.6 3.33,65.48 0.46,0.29 13.55,8.09 23.53,-3.38 49.04,-52.81 46.41,-116.88 16.85,-164.22 z" />
    <path
       id="path3269"
       style="fill:#000000;fill-opacity:0.31373"
       d="m 420,452.85 c 3.96,37.28 -6.29,68.8 -31.03,95.21 -5.61,6 -10.75,2.19 -15.56,0.78 1.69,3.86 3.33,7.72 4.87,11.54 10.97,27.14 17.23,52.58 3.34,65.46 0.46,0.29 13.55,8.1 23.54,-3.37 C 450.07,574.1 453.38,509.22 420,452.85 Z" />
  </g>
  <metadata
     id="metadata9">
    <rdf:RDF>
      <cc:Work>
        <dc:format>image/svg+xml</dc:format>
        <dc:type
           rdf:resource="http://purl.org/dc/dcmitype/StillImage" />
        <cc:license
           rdf:resource="http://creativecommons.org/publicdomain/zero/1.0/" />
        <dc:publisher>
          <cc:Agent
             rdf:about="http://openclipart.org/">
            <dc:title>Openclipart</dc:title>
          </cc:Agent>
        </dc:publisher>
        <dc:title>Cartoon acorn</dc:title>
        <dc:date>2008-07-06T20:58:26</dc:date>
        <dc:description />
        <dc:source>https://openclipart.org/detail/17617/cartoon-acorn-by-lemmling</dc:source>
        <dc:creator>
          <cc:Agent>
            <dc:title>lemmling</dc:title>
          </cc:Agent>
        </dc:creator>
        <dc:subject>
          <rdf:Bag>
            <rdf:li>acorn</rdf:li>
            <rdf:li>cartoon</rdf:li>
            <rdf:li>colour</rdf:li>
            <rdf:li>how i did it</rdf:li>
            <rdf:li>nut</rdf:li>
          </rdf:Bag>
        </dc:subject>
      </cc:Work>
      <cc:License
         rdf:about="http://creativecommons.org/publicdomain/zero/1.0/">
        <cc:permits
           rdf:resource="http://creativecommons.org/ns#Reproduction" />
        <cc:permits
           rdf:resource="http://creativecommons.org/ns#Distribution" />
        <cc:permits
           rdf:resource="http://creativecommons.org/ns#DerivativeWorks" />
      </cc:License>
    </rdf:RDF>
  </metadata>
</svg>
