<?xml version="1.0" encoding="UTF-8" standalone="no"?>
<svg
   xmlns:dc="http://purl.org/dc/elements/1.1/"
   xmlns:cc="http://creativecommons.org/ns#"
   xmlns:rdf="http://www.w3.org/1999/02/22-rdf-syntax-ns#"
   xmlns:svg="http://www.w3.org/2000/svg"
   xmlns="http://www.w3.org/2000/svg"
   xmlns:sodipodi="http://sodipodi.sourceforge.net/DTD/sodipodi-0.dtd"
   xmlns:inkscape="http://www.inkscape.org/namespaces/inkscape"
   version="1.1"
   id="Layer_1"
   x="0px"
   y="0px"
   viewBox="44.358 40.078 332.59843 472.44095"
   enable-background="new 44.358 40.078 1832.642 1703.83"
   xml:space="preserve"
   sodipodi:docname="alien.svg"
   width="88mm"
   height="125mm"
   inkscape:version="1.0.2-2 (e86c870879, 2021-01-15)"><metadata
   id="metadata61"><rdf:RDF><cc:Work
       rdf:about=""><dc:format>image/svg+xml</dc:format><dc:type
         rdf:resource="http://purl.org/dc/dcmitype/StillImage" /><dc:title></dc:title></cc:Work></rdf:RDF></metadata><defs
   id="defs59" /><sodipodi:namedview
   pagecolor="#ffffff"
   bordercolor="#666666"
   borderopacity="1"
   objecttolerance="10"
   gridtolerance="10"
   guidetolerance="10"
   inkscape:pageopacity="0"
   inkscape:pageshadow="2"
   inkscape:window-width="1920"
   inkscape:window-height="1017"
   id="namedview57"
   showgrid="false"
   units="mm"
   width="88mm"
   inkscape:zoom="0.34343285"
   inkscape:cx="1494.6905"
   inkscape:cy="898.62021"
   inkscape:window-x="-8"
   inkscape:window-y="-8"
   inkscape:window-maximized="1"
   inkscape:current-layer="Layer_1" />
<g
   id="g54"
   transform="matrix(0.17288217,0,0,0.17288217,44.811374,96.264491)">
	<path
   fill="#8bc53f"
   stroke="#8bc53f"
   stroke-width="0.5"
   d="m 1633.532,105.317 c 10.67,-11.427 27.725,-15.747 42.75,-12.013 14.376,3.31 26.922,14.133 31.693,28.176 4.708,13.033 1.56,28.004 -6.412,39.08 -6.313,8.902 -15.847,14.918 -21.998,23.955 -9.389,13.375 -15.657,28.627 -21.249,43.896 -12.798,35.995 -21.15,73.388 -28.419,110.836 1.47,-1.055 2.895,-2.183 4.311,-3.337 26.291,-21.628 52.176,-44.031 74.462,-69.862 8.658,-10.363 17.091,-21.249 22.223,-33.849 3.121,-8.081 3.463,-16.992 7.143,-24.893 4.455,-9.759 13.051,-17.704 23.369,-20.861 14.918,-4.51 31.729,-0.388 43.598,9.515 11.301,9.109 18.39,24.225 15.522,38.791 -1.506,8.595 -6.864,16.135 -13.88,21.168 -7.684,5.935 -17.434,7.982 -26.778,9.623 -13.754,2.318 -26.029,9.47 -37.51,17.028 -16.009,10.787 -30.692,23.396 -44.888,36.446 -24.37,22.818 -47.305,47.125 -69.086,72.414 -1.605,1.966 -3.779,3.725 -4.302,6.331 -16.947,73.821 -38.53,146.93 -69.988,215.971 -14.602,31.792 -31.287,62.692 -51.066,91.58 -16.92,24.667 -36.04,47.937 -57.975,68.32 -23.693,22.07 -50.741,40.766 -80.486,53.709 -38.53,16.947 -81.244,23.837 -123.165,21.105 -4.464,24.613 -12.789,48.478 -24.261,70.692 -16.216,31.603 -38.791,59.706 -64.992,83.589 -51.715,46.872 -117.167,77.185 -185.261,91.129 -0.009,164.959 0.054,329.919 -0.027,494.878 16.712,-15.522 35.102,-29.222 54.692,-40.884 29.366,-17.371 61.618,-30.385 95.404,-35.761 23.747,-3.815 48.153,-3.472 71.765,1.127 18.255,3.635 36.049,10.119 51.887,19.977 21.781,13.402 39.765,33.434 49.226,57.325 8.027,20.049 9.786,42.796 3.644,63.603 -4.14,14.259 -11.995,27.418 -22.539,37.871 H 905.844 c -0.027,-196.679 0.027,-393.368 -0.036,-590.047 -23.161,1.804 -46.439,1.163 -69.591,-0.523 0.063,196.86 0.027,393.711 0.009,590.571 H 471.231 c -18.02,-17.714 -27.616,-43.418 -26.047,-68.581 1.299,-31.08 17.957,-60.293 41.813,-79.774 25.362,-20.996 58.101,-31.459 90.642,-33.605 39.883,-3.094 79.909,6.629 115.904,23.477 29.916,13.953 57.452,32.811 81.785,55.08 0.045,-165.536 -0.018,-331.073 0.027,-496.61 -57.894,-13.222 -113.505,-38.187 -160.017,-75.354 -33.948,-27.157 -62.971,-60.924 -82.534,-99.869 -13.105,-25.984 -21.799,-54.196 -25.29,-83.093 -4.726,1.515 -9.488,2.94 -14.16,4.618 -27.833,9.804 -53.438,25.786 -74.561,46.367 -20.573,19.842 -37.059,43.607 -50.173,68.915 -12.627,24.343 -22.322,50.119 -29.98,76.428 -13.015,44.69 -20.392,90.822 -25.028,137.072 -4.446,46.169 -6.079,92.563 -5.953,138.93 -0.189,2.083 0.938,3.896 1.768,5.727 6.674,14.494 13.61,28.861 21.033,42.985 14.449,27.418 29.88,54.557 49.262,78.845 9.777,11.842 20.555,23.774 34.895,30.052 6.674,3.211 13.61,6.413 18.814,11.842 6.241,6.142 10.543,14.647 10.264,23.558 -0.081,13.078 -8.433,24.857 -19.139,31.774 -14.25,9.29 -33.596,11.337 -48.865,3.337 -10.165,-5.177 -17.127,-15.783 -18.318,-27.066 -1.136,-9.001 1.768,-17.966 0.442,-26.94 -1.641,-12.031 -5.953,-23.486 -10.823,-34.534 -7.17,-16 -15.847,-31.269 -25.037,-46.169 -8.271,-13.096 -16.523,-26.273 -25.885,-38.602 -3.626,39.269 -5.998,78.791 -3.545,118.204 1.587,17.813 3.382,36.149 10.985,52.572 5.168,9.696 12.031,18.904 13.664,30.061 0.821,7.125 0.929,14.584 -1.614,21.411 -5.7,16.965 -23.233,28.681 -40.983,28.455 -15.531,0.658 -31.215,-7.612 -39.071,-21.096 -7.711,-12.762 -6.972,-29.411 -0.216,-42.399 3.851,-7.729 9.641,-14.34 12.988,-22.331 3.59,-8.271 5.835,-17.046 7.621,-25.849 4.266,-21.97 5.619,-44.374 6.259,-66.687 0.505,-23.801 -0.027,-47.603 -1.064,-71.386 -4.852,5.511 -8.983,11.617 -13.42,17.47 -12.311,16.758 -24.135,33.903 -34.796,51.77 -8.433,14.304 -16.388,29.032 -21.637,44.843 -2.047,6.602 -3.842,13.429 -3.689,20.41 0.126,7.946 0.794,16.162 -1.849,23.82 -3.103,9.335 -9.668,17.596 -18.489,22.106 -17.344,9.046 -39.946,5.339 -54.142,-7.892 -9.154,-8.298 -14.656,-21.15 -12.356,-33.524 2.047,-11.148 9.975,-20.6 19.617,-26.191 6.909,-4.194 14.782,-6.512 21.538,-10.958 10.922,-7.134 20.022,-16.64 28.509,-26.453 13.042,-15.251 24.478,-31.765 35.346,-48.604 17.055,-26.796 32.739,-54.484 46.89,-82.904 0.676,-16.667 -0.162,-33.452 0.496,-50.146 1.127,-70.728 7.531,-141.708 24.045,-210.623 13.042,-53.447 32.487,-106.038 63.395,-151.873 19.824,-29.42 44.654,-55.693 74.047,-75.688 27.914,-19.193 59.743,-32.333 92.734,-39.756 5.267,-48.875 26.056,-95.449 56.685,-133.681 -13.384,-42.669 -27.986,-84.978 -44.401,-126.583 -13.06,-32.505 -26.958,-64.856 -45.168,-94.863 -8,-12.627 -16.55,-25.371 -28.437,-34.687 -18.498,-13.709 -41.659,-18.697 -60.951,-31.017 -8.703,-5.61 -16.289,-13.249 -20.924,-22.593 -11.743,-24.469 -11.283,-54.277 0.902,-78.502 9.272,-18.985 25.515,-34.417 44.924,-42.751 18.57,-8.144 39.919,-9.714 59.49,-4.437 22.133,5.826 41.84,20.383 53.745,39.955 4.771,7.982 8.893,16.595 10.137,25.903 1.804,11.923 -0.902,23.991 -4.906,35.202 -5.917,16.703 -14.413,32.622 -17.56,50.209 -2.02,11.157 -0.379,22.503 1.308,33.578 3.436,18.985 9.019,37.501 15.287,55.729 12.852,36.942 28.672,72.766 45.114,108.238 -0.514,-16.64 3.292,-33.398 11.057,-48.126 12.104,-23.441 34.083,-41.551 59.463,-48.82 19.49,-5.655 40.775,-5.15 59.95,1.524 13.98,4.906 26.859,12.987 37.258,23.567 9.614,-37.114 34.931,-69.763 68.419,-88.396 32.965,-18.724 73.515,-23.143 109.862,-12.6 25.263,7.26 48.369,21.736 66.002,41.208 16.767,18.372 28.645,41.199 33.885,65.515 14.854,-17.641 36.103,-29.817 58.913,-33.425 20.275,-3.265 41.632,-0.298 59.986,9.055 26.101,12.888 45.79,38.025 51.869,66.516 1.172,-1.064 1.696,-2.597 2.336,-3.995 14.007,-31.549 27.292,-63.494 37.664,-96.45 5.88,-19.346 11.256,-39.116 12.095,-59.427 0.622,-11.86 -2.679,-23.468 -6.792,-34.471 -5.889,-16.072 -14.142,-31.522 -16.523,-48.676 -1.732,-11.328 0.37,-23.08 5.52,-33.289 12.987,-27.986 41.289,-48.045 71.99,-51.048 17.136,-1.885 34.796,1.245 50.2,8.983 15.901,7.847 29.339,20.536 38.07,35.959 10.074,17.38 13.862,38.142 11.094,57.984 -2.183,13.123 -6.313,26.552 -15.342,36.654 -9.344,10.615 -22.376,16.875 -35.129,22.394 -14.503,6.376 -29.79,11.95 -42.056,22.286 -12.726,11.445 -21.934,26.137 -30.521,40.784 -17.362,30.602 -30.999,63.143 -43.833,95.846 -14.9,38.584 -28.266,77.736 -40.73,117.167 33.993,42.579 55.855,95.539 57.794,150.267 10.516,0.586 21.06,0.433 31.558,-0.523 33.668,-2.661 66.516,-14.016 94.881,-32.315 28.536,-18.228 52.644,-42.678 73.046,-69.546 21.799,-28.78 39.621,-60.383 54.971,-92.996 16.216,-34.534 29.655,-70.304 41.416,-106.579 11.851,-36.78 22.043,-74.11 30.836,-111.738 -0.785,-6.007 -2.354,-11.896 -3.427,-17.858 -8.243,-38.043 -17.759,-76.049 -32.811,-112.044 -5.971,-13.691 -12.636,-27.391 -22.521,-38.737 -5.898,-6.782 -13.916,-11.301 -19.806,-18.092 -5.493,-6.205 -9.109,-14.178 -9.578,-22.494 -0.343,-9.163 3.752,-18.119 10.264,-24.451 11.743,-11.842 29.943,-15.657 45.907,-11.977 13.348,3.085 26.092,12.618 29.537,26.372 2.769,9.19 0.686,18.895 -2.579,27.653 -3.536,9.037 -4.041,18.913 -3.346,28.491 1.362,19.364 6.295,38.259 11.707,56.838 5.853,19.562 12.861,38.764 20.284,57.794 9.199,-26.065 17.263,-52.536 24.009,-79.332 4.789,-19.725 8.965,-39.693 10.444,-59.968 0.794,-10.399 0.667,-21.014 -1.957,-31.161 -2.363,-8.316 -5.61,-16.586 -5.601,-25.353 -0.38,-11.211 3.336,-22.764 11.219,-30.918 M 865.763,431.673 c -21.736,3.003 -42.101,14.313 -56.324,31.017 -12.077,14.079 -19.671,31.946 -21.393,50.426 -1.786,17.984 1.975,36.491 10.652,52.347 7.405,13.61 18.345,25.263 31.468,33.515 24.388,15.639 56.432,18.3 83.156,7.188 26.426,-10.679 47.107,-34.498 53.772,-62.232 7.062,-27.788 0.081,-58.75 -18.561,-80.586 -19.681,-23.927 -52.141,-36.328 -82.77,-31.675 m -204.147,61.015 c -16.063,2.327 -31.062,11.148 -40.793,24.144 -8.406,11.003 -12.924,24.875 -12.627,38.71 0.099,14.566 5.655,28.978 15.215,39.946 10.444,12.167 25.75,20.058 41.758,21.348 14.016,1.299 28.437,-2.372 40.126,-10.219 11.716,-7.747 20.645,-19.581 24.893,-32.956 4.834,-15.116 3.707,-32.099 -3.265,-46.376 -5.673,-11.734 -15.143,-21.565 -26.588,-27.752 -11.734,-6.376 -25.525,-8.739 -38.719,-6.845 m 422.238,0.081 c -16.415,2.507 -31.639,11.824 -41.244,25.371 -9.975,13.727 -13.907,31.675 -10.561,48.315 1.975,10.552 6.827,20.546 13.817,28.699 10.489,12.392 25.993,20.428 42.191,21.691 17.705,1.641 35.968,-4.816 48.685,-17.245 12.131,-11.544 19.292,-28.167 19.166,-44.933 0.153,-16.568 -6.719,-33.055 -18.625,-44.581 -13.718,-13.854 -34.219,-20.366 -53.429,-17.317 M 630.301,632.718 c -8.18,2.183 -13.835,11.03 -12.275,19.364 0.893,6.404 5.754,11.995 11.941,13.826 6.467,2.083 14.079,-0.045 18.408,-5.321 4.077,-4.672 5.159,-11.571 3.012,-17.335 -2.912,-8.288 -12.716,-13.167 -21.086,-10.534 m 526.562,1.561 c -6.954,2.201 -11.283,10.101 -9.524,17.163 1.515,7.955 10.381,13.366 18.155,11.102 7.946,-1.822 12.942,-10.931 10.381,-18.643 -2.101,-7.918 -11.4,-12.418 -19.012,-9.622 m -80.134,10.119 c -7.17,2.201 -11.761,10.453 -9.65,17.696 1.705,7.161 9.236,12.221 16.514,10.94 9.046,-1.037 15.242,-11.553 11.599,-19.941 -2.581,-7.261 -11.239,-11.175 -18.463,-8.695 m -380.642,18.913 c -8.18,2.264 -13.655,11.427 -11.508,19.689 1.452,7.233 8.298,13.024 15.711,13.015 6.909,0.406 13.691,-4.194 16.099,-10.625 2.273,-5.772 0.992,-12.78 -3.265,-17.308 -4.158,-4.672 -11.058,-6.566 -17.037,-4.771 M 569.9,674.161 c -8.361,0.18 -15.675,7.522 -15.838,15.874 -0.604,8.126 5.646,15.982 13.691,17.208 6.521,1.281 13.484,-1.849 17.019,-7.441 3.59,-5.484 3.454,-13.105 -0.307,-18.48 -3.156,-4.726 -8.919,-7.459 -14.565,-7.161 m 553.719,21.628 c -8.036,1.29 -13.88,9.723 -12.32,17.695 1.118,8.045 9.407,14.124 17.434,12.735 8.46,-1.001 14.8,-9.903 12.888,-18.228 -1.335,-8.126 -9.966,-13.925 -18.002,-12.202 m -87.485,1.777 c -6.882,1.623 -8.794,11.77 -3.048,15.82 4.916,4.248 13.438,1.1 14.44,-5.303 1.667,-6.378 -5.214,-12.628 -11.392,-10.517 m 158.682,-0.055 c -5.565,1.109 -9.849,6.566 -9.452,12.257 -0.198,6.683 6.205,12.473 12.816,11.905 6.494,-0.153 12.049,-6.277 11.49,-12.771 0.018,-7.359 -7.783,-13.248 -14.854,-11.391 m -568.97,7.333 c -5.096,1.614 -9.217,5.89 -10.606,11.057 -2.85,9.127 4.266,19.589 13.817,20.239 9.669,1.326 18.877,-7.765 17.705,-17.443 -0.686,-9.839 -11.554,-17.163 -20.916,-13.853 m -73.199,27.896 c -4.329,1.786 -7.053,6.683 -6.25,11.31 0.722,5.384 6.142,9.389 11.499,8.712 6.431,-0.46 11.012,-7.829 8.649,-13.826 -1.768,-5.556 -8.577,-8.568 -13.898,-6.196 m 615.093,10.769 c -4.392,1.109 -7.892,4.825 -8.794,9.263 -1.885,7.269 4.564,15.332 12.158,14.701 6.99,0.343 12.861,-6.611 11.941,-13.429 -0.531,-7.243 -8.342,-12.6 -15.305,-10.535 m -498.594,6.449 c -5.348,1.912 -8.586,8.081 -7.152,13.583 1.19,5.754 7.251,9.885 13.051,8.767 6.719,-0.785 11.499,-8.37 9.308,-14.773 -1.696,-6.288 -9.164,-9.958 -15.207,-7.577 m 403.109,-0.018 c -7.188,1.623 -12.203,9.506 -10.435,16.694 1.281,6.629 7.792,11.734 14.575,11.148 7.883,-0.063 14.386,-7.883 13.258,-15.639 -0.559,-8.298 -9.434,-14.35 -17.398,-12.203 m -462.617,23.539 c -6.061,1.145 -10.994,6.737 -10.949,12.978 -0.415,7.242 6.052,13.917 13.294,13.844 7.369,0.234 14.169,-6.413 13.655,-13.862 0.19,-8.089 -8.171,-14.709 -16,-12.96 m 515.83,11.662 c -4.05,1.028 -7.369,4.473 -8.171,8.586 -1.47,6.178 3.202,12.906 9.551,13.511 6.692,1.109 13.501,-4.951 12.699,-11.797 0.072,-6.972 -7.522,-12.203 -14.079,-10.3 m -467.343,25.894 c -2.994,1.723 -5.096,4.591 -7.54,6.972 -7.558,8.009 -16.586,14.638 -26.561,19.31 -13.375,6.34 -28.419,10.3 -43.265,8.171 -4.988,-0.622 -9.777,-2.3 -14.746,-2.94 -1.245,-0.135 -1.957,1.1 -2.832,1.732 0.875,2.769 3.211,4.663 5.682,5.998 6.268,3.391 13.466,4.699 20.536,4.771 14.918,0.397 29.186,-5.159 42.39,-11.563 14.692,23.107 34.976,41.912 55.639,59.598 14.692,12.762 29.826,25.064 45.889,36.076 26.489,18.201 55.585,33.163 86.872,41.055 19.905,5.195 40.586,7.125 61.113,6.115 39.612,-1.127 78.502,-11.788 114.47,-28.094 30.259,-13.763 58.805,-31.323 84.689,-52.185 12.618,-10.426 25.082,-21.213 35.535,-33.885 8.866,-10.715 16.92,-22.449 21.348,-35.752 10.561,4.383 22.304,5.944 33.641,4.5 8.144,-1.425 16.478,-4.482 22.259,-10.624 1.01,-1.254 2.607,-2.877 1.822,-4.6 -2.093,-1.885 -5.069,-0.559 -7.333,0.198 -7.116,2.931 -14.331,6.016 -22.079,6.719 -6.602,0.74 -13.159,-0.767 -19.535,-2.309 -8.505,-2.327 -17.1,-6.223 -22.503,-13.475 -1.443,-1.614 -3.075,-4.717 -5.673,-3.31 -1.993,1.263 -0.902,3.941 -0.262,5.709 3.193,7.071 9.65,11.968 16.243,15.702 -13.754,19.328 -30.097,36.834 -48.947,51.283 -24.189,19.346 -52.681,32.577 -81.902,42.408 -39.143,12.969 -80.279,19.581 -121.46,20.609 -69.456,3.788 -138.93,-20.464 -193.848,-62.493 -18.173,-13.98 -35.364,-29.285 -50.994,-46.07 6.53,-3.923 12.537,-8.776 17.533,-14.539 3.012,-3.707 6.232,-7.747 6.846,-12.636 0.473,-1.838 -1.376,-3.38 -3.027,-2.451 z"
   id="path2" />
	<path
   fill="#ffffff"
   stroke="#ffffff"
   stroke-width="0.5"
   d="m 865.763,431.673 c 30.629,-4.654 63.089,7.747 82.768,31.675 18.642,21.835 25.623,52.798 18.561,80.586 -6.665,27.734 -27.346,51.553 -53.772,62.232 -26.724,11.112 -58.768,8.451 -83.156,-7.188 -13.123,-8.252 -24.063,-19.905 -31.468,-33.515 -8.676,-15.856 -12.437,-34.363 -10.652,-52.347 1.723,-18.48 9.317,-36.347 21.393,-50.426 14.225,-16.703 34.59,-28.013 56.326,-31.017 m 18.155,64.189 c -16.577,0.198 -32.622,9.046 -41.858,22.782 -9.055,13.195 -11.409,30.674 -6.25,45.817 4.455,13.583 14.854,25.082 27.914,30.899 9.218,4.311 19.689,5.33 29.7,3.968 15.17,-2.237 28.96,-11.788 36.699,-24.983 6.034,-10.156 8.388,-22.43 6.593,-34.092 -1.822,-13.456 -9.362,-25.984 -20.248,-34.065 -9.262,-7.016 -20.942,-10.668 -32.55,-10.326 z"
   id="path4" />
	<path
   fill="#ffffff"
   stroke="#ffffff"
   stroke-width="0.5"
   d="m 661.616,492.688 c 13.195,-1.894 26.985,0.469 38.719,6.846 11.445,6.187 20.915,16.018 26.588,27.752 6.972,14.277 8.099,31.26 3.265,46.376 -4.248,13.375 -13.177,25.208 -24.893,32.956 -11.689,7.847 -26.11,11.517 -40.126,10.219 -16.009,-1.29 -31.314,-9.181 -41.758,-21.348 -9.56,-10.967 -15.116,-25.38 -15.215,-39.946 -0.298,-13.835 4.221,-27.707 12.627,-38.71 9.731,-12.998 24.73,-21.818 40.793,-24.145 m 6.701,44.635 c -15.269,2.643 -27.689,16.361 -28.798,31.819 -1.236,12.013 4.203,24.415 13.853,31.657 8.902,6.981 21.195,9.028 31.982,5.853 13.808,-3.878 24.361,-16.884 25.416,-31.179 1.145,-12.04 -4.392,-24.406 -14.097,-31.612 -7.964,-6.078 -18.543,-8.468 -28.356,-6.538 z"
   id="path6" />
	<path
   fill="#ffffff"
   stroke="#ffffff"
   stroke-width="0.5"
   d="m 1083.854,492.769 c 19.211,-3.048 39.711,3.463 53.429,17.317 11.905,11.526 18.778,28.013 18.625,44.581 0.126,16.767 -7.035,33.389 -19.166,44.933 -12.717,12.428 -30.981,18.886 -48.685,17.245 -16.198,-1.263 -31.702,-9.299 -42.191,-21.691 -6.99,-8.153 -11.842,-18.146 -13.817,-28.699 -3.346,-16.64 0.586,-34.588 10.561,-48.315 9.605,-13.547 24.829,-22.864 41.244,-25.371 m 6.62,44.671 c -9.975,2.002 -18.895,8.595 -23.81,17.497 -5.998,10.588 -6.016,24.288 -0.036,34.877 4.221,7.612 11.31,13.574 19.544,16.388 7.594,2.534 16.027,2.552 23.603,-0.063 9.777,-3.382 17.858,-11.265 21.501,-20.942 2.21,-5.664 2.661,-11.896 1.939,-17.903 -1.317,-10.471 -7.792,-20.031 -16.793,-25.47 -7.667,-4.708 -17.155,-6.25 -25.948,-4.384 z"
   id="path8" />
	<path
   fill="#231f20"
   stroke="#231f20"
   stroke-width="0.5"
   d="m 883.918,495.862 c 11.608,-0.343 23.287,3.31 32.55,10.327 10.886,8.081 18.426,20.609 20.248,34.065 1.795,11.662 -0.559,23.937 -6.593,34.092 -7.738,13.195 -21.529,22.746 -36.699,24.983 -10.011,1.362 -20.482,0.343 -29.7,-3.968 -13.06,-5.817 -23.459,-17.317 -27.914,-30.899 -5.159,-15.143 -2.805,-32.622 6.25,-45.817 9.236,-13.736 25.281,-22.584 41.858,-22.783 m -26.326,21.349 c -4.041,2.787 -6.331,7.396 -8.189,11.806 -1.912,5.213 -3.517,11.03 -1.885,16.532 0.731,2.047 3.202,3.003 5.069,1.732 4.104,-2.579 6.449,-7.125 8.334,-11.445 1.966,-5.249 3.635,-11.102 2.201,-16.685 -0.525,-2.518 -3.546,-3.483 -5.53,-1.94 z"
   id="path10" />
	<path
   fill="#ffffff"
   stroke="#ffffff"
   stroke-width="0.5"
   d="m 857.592,517.211 c 1.984,-1.542 5.006,-0.577 5.529,1.939 1.434,5.583 -0.234,11.436 -2.201,16.685 -1.885,4.32 -4.23,8.866 -8.334,11.445 -1.867,1.272 -4.338,0.316 -5.069,-1.732 -1.632,-5.502 -0.027,-11.319 1.885,-16.532 1.858,-4.41 4.149,-9.018 8.19,-11.805 z"
   id="path12" />
	<path
   fill="#231f20"
   stroke="#231f20"
   stroke-width="0.5"
   d="m 668.317,537.323 c 9.813,-1.93 20.392,0.46 28.356,6.539 9.705,7.206 15.242,19.571 14.097,31.612 -1.055,14.295 -11.608,27.301 -25.416,31.179 -10.787,3.175 -23.08,1.127 -31.982,-5.853 -9.65,-7.242 -15.089,-19.644 -13.853,-31.657 1.109,-15.459 13.528,-29.177 28.798,-31.82 m -12.005,13.881 c -4.609,3.526 -6.791,9.524 -7.432,15.125 -0.153,2.156 -0.28,5.88 2.607,6.196 2.579,-0.704 4.149,-3.094 5.475,-5.24 2.372,-4.356 4.005,-9.443 3.094,-14.422 -0.235,-1.768 -2.292,-2.597 -3.744,-1.659 z"
   id="path14" />
	<path
   fill="#231f20"
   stroke="#231f20"
   stroke-width="0.5"
   d="m 1090.474,537.44 c 8.794,-1.867 18.282,-0.325 25.948,4.383 9.001,5.438 15.477,14.999 16.793,25.47 0.722,6.007 0.271,12.239 -1.939,17.903 -3.644,9.677 -11.725,17.56 -21.501,20.942 -7.576,2.616 -16.009,2.597 -23.603,0.063 -8.234,-2.814 -15.323,-8.776 -19.544,-16.388 -5.98,-10.588 -5.962,-24.288 0.036,-34.877 4.915,-8.9 13.835,-15.493 23.81,-17.496 m -11.869,14.097 c -3.482,2.823 -5.24,7.17 -6.449,11.373 -0.613,2.769 -1.209,5.917 0.171,8.559 1.47,2.165 4.031,0.271 5.258,-1.182 3.878,-4.753 6.196,-11.211 5.231,-17.353 -0.198,-2.046 -2.813,-2.777 -4.211,-1.397 z"
   id="path16" />
	<path
   fill="#ffffff"
   stroke="#ffffff"
   stroke-width="0.5"
   d="m 656.312,551.204 c 1.452,-0.938 3.508,-0.108 3.743,1.659 0.911,4.979 -0.721,10.065 -3.094,14.422 -1.326,2.147 -2.895,4.537 -5.475,5.24 -2.886,-0.316 -2.76,-4.041 -2.607,-6.196 0.642,-5.601 2.825,-11.599 7.433,-15.125 z"
   id="path18" />
	<path
   fill="#ffffff"
   stroke="#ffffff"
   stroke-width="0.5"
   d="m 1078.605,551.537 c 1.398,-1.38 4.013,-0.649 4.212,1.398 0.965,6.142 -1.353,12.6 -5.231,17.353 -1.227,1.452 -3.788,3.346 -5.258,1.182 -1.38,-2.643 -0.785,-5.79 -0.171,-8.559 1.208,-4.203 2.966,-8.551 6.448,-11.374 z"
   id="path20" />
	<path
   fill="#d6de23"
   stroke="#d6de23"
   stroke-width="0.5"
   d="m 630.301,632.718 c 8.37,-2.634 18.174,2.246 21.087,10.534 2.147,5.763 1.064,12.663 -3.012,17.335 -4.329,5.276 -11.941,7.405 -18.408,5.321 -6.187,-1.831 -11.048,-7.423 -11.941,-13.826 -1.561,-8.333 4.094,-17.181 12.274,-19.364 z"
   id="path22" />
	<path
   fill="#d6de23"
   stroke="#d6de23"
   stroke-width="0.5"
   d="m 1156.863,634.279 c 7.612,-2.796 16.911,1.705 19.012,9.623 2.561,7.711 -2.435,16.821 -10.381,18.643 -7.774,2.264 -16.64,-3.148 -18.155,-11.102 -1.759,-7.063 2.571,-14.964 9.524,-17.164 z"
   id="path24" />
	<path
   fill="#d6de23"
   stroke="#d6de23"
   stroke-width="0.5"
   d="m 1076.729,644.398 c 7.224,-2.48 15.883,1.434 18.462,8.694 3.644,8.388 -2.552,18.904 -11.599,19.941 -7.278,1.281 -14.809,-3.779 -16.514,-10.94 -2.11,-7.242 2.48,-15.494 9.651,-17.695 z"
   id="path26" />
	<path
   fill="#d6de23"
   stroke="#d6de23"
   stroke-width="0.5"
   d="m 696.087,663.311 c 5.98,-1.795 12.879,0.099 17.037,4.771 4.257,4.528 5.538,11.535 3.265,17.308 -2.408,6.431 -9.19,11.03 -16.099,10.625 -7.414,0.009 -14.259,-5.781 -15.711,-13.015 -2.147,-8.262 3.327,-17.425 11.508,-19.689 z"
   id="path28" />
	<path
   fill="#d6de23"
   stroke="#d6de23"
   stroke-width="0.5"
   d="m 569.9,674.161 c 5.646,-0.298 11.409,2.435 14.566,7.161 3.761,5.375 3.896,12.997 0.307,18.48 -3.536,5.592 -10.498,8.721 -17.019,7.441 -8.045,-1.227 -14.295,-9.082 -13.691,-17.208 0.162,-8.352 7.477,-15.694 15.837,-15.874 z"
   id="path30" />
	<path
   fill="#d6de23"
   stroke="#d6de23"
   stroke-width="0.5"
   d="m 1123.619,695.789 c 8.036,-1.723 16.667,4.077 18.002,12.203 1.912,8.325 -4.428,17.227 -12.888,18.228 -8.027,1.389 -16.316,-4.69 -17.434,-12.735 -1.56,-7.974 4.284,-16.406 12.32,-17.696 z"
   id="path32" />
	<path
   fill="#d6de23"
   stroke="#d6de23"
   stroke-width="0.5"
   d="m 1036.134,697.566 c 6.178,-2.11 13.06,4.14 11.391,10.516 -1.001,6.404 -9.524,9.551 -14.44,5.303 -5.745,-4.049 -3.833,-14.196 3.049,-15.819 z"
   id="path34" />
	<path
   fill="#d6de23"
   stroke="#d6de23"
   stroke-width="0.5"
   d="m 1194.816,697.511 c 7.071,-1.858 14.872,4.032 14.854,11.391 0.559,6.494 -4.997,12.618 -11.49,12.771 -6.611,0.568 -13.015,-5.222 -12.816,-11.905 -0.397,-5.691 3.887,-11.147 9.452,-12.257 z"
   id="path36" />
	<path
   fill="#d6de23"
   stroke="#d6de23"
   stroke-width="0.5"
   d="m 625.846,704.844 c 9.362,-3.31 20.23,4.014 20.915,13.853 1.172,9.678 -8.036,18.769 -17.705,17.443 -9.551,-0.649 -16.667,-11.112 -13.817,-20.239 1.389,-5.167 5.511,-9.443 10.607,-11.057 z"
   id="path38" />
	<path
   fill="#d6de23"
   stroke="#d6de23"
   stroke-width="0.5"
   d="m 552.647,732.74 c 5.321,-2.372 12.131,0.64 13.898,6.196 2.363,5.998 -2.219,13.366 -8.649,13.826 -5.357,0.676 -10.778,-3.328 -11.499,-8.712 -0.803,-4.627 1.921,-9.524 6.25,-11.31 z"
   id="path40" />
	<path
   fill="#d6de23"
   stroke="#d6de23"
   stroke-width="0.5"
   d="m 1167.74,743.509 c 6.963,-2.065 14.773,3.292 15.305,10.534 0.92,6.818 -4.951,13.772 -11.941,13.429 -7.594,0.631 -14.043,-7.432 -12.158,-14.701 0.903,-4.437 4.402,-8.153 8.794,-9.262 z"
   id="path42" />
	<path
   fill="#d6de23"
   stroke="#d6de23"
   stroke-width="0.5"
   d="m 669.146,749.958 c 6.043,-2.381 13.511,1.29 15.206,7.576 2.192,6.404 -2.588,13.989 -9.308,14.773 -5.799,1.118 -11.86,-3.012 -13.051,-8.767 -1.433,-5.501 1.805,-11.67 7.153,-13.582 z"
   id="path44" />
	<path
   fill="#d6de23"
   stroke="#d6de23"
   stroke-width="0.5"
   d="m 1072.255,749.94 c 7.964,-2.147 16.839,3.905 17.398,12.203 1.127,7.756 -5.375,15.576 -13.258,15.639 -6.782,0.586 -13.294,-4.519 -14.575,-11.148 -1.768,-7.188 3.247,-15.071 10.435,-16.694 z"
   id="path46" />
	<path
   fill="#d6de23"
   stroke="#d6de23"
   stroke-width="0.5"
   d="m 609.638,773.479 c 7.829,-1.75 16.189,4.87 16,12.96 0.514,7.45 -6.286,14.097 -13.655,13.862 -7.242,0.072 -13.709,-6.602 -13.294,-13.844 -0.045,-6.24 4.889,-11.832 10.949,-12.978 z"
   id="path48" />
	<path
   fill="#d6de23"
   stroke="#d6de23"
   stroke-width="0.5"
   d="m 1125.468,785.141 c 6.557,-1.903 14.151,3.328 14.079,10.3 0.803,6.846 -6.007,12.906 -12.699,11.797 -6.349,-0.604 -11.021,-7.333 -9.551,-13.511 0.802,-4.112 4.121,-7.558 8.171,-8.586 z"
   id="path50" />
	<path
   fill="#231f20"
   stroke="#231f20"
   stroke-width="0.5"
   d="m 658.125,811.035 c 1.651,-0.929 3.499,0.613 3.03,2.453 -0.613,4.888 -3.833,8.929 -6.846,12.636 -4.997,5.763 -11.003,10.615 -17.533,14.539 15.63,16.785 32.821,32.09 50.994,46.07 54.917,42.029 124.391,66.281 193.848,62.493 41.181,-1.028 82.317,-7.639 121.46,-20.609 29.222,-9.831 57.713,-23.062 81.902,-42.408 18.85,-14.449 35.193,-31.955 48.947,-51.283 -6.593,-3.734 -13.051,-8.631 -16.243,-15.702 -0.64,-1.768 -1.732,-4.446 0.262,-5.709 2.597,-1.407 4.23,1.696 5.673,3.31 5.402,7.251 13.998,11.148 22.503,13.475 6.376,1.542 12.933,3.048 19.535,2.309 7.747,-0.704 14.963,-3.788 22.079,-6.719 2.264,-0.758 5.24,-2.083 7.333,-0.198 0.785,1.723 -0.812,3.346 -1.822,4.6 -5.781,6.142 -14.115,9.199 -22.259,10.624 -11.337,1.443 -23.08,-0.117 -33.641,-4.5 -4.428,13.303 -12.483,25.037 -21.348,35.752 -10.453,12.672 -22.917,23.459 -35.535,33.885 -25.885,20.861 -54.43,38.421 -84.689,52.185 -35.968,16.307 -74.859,26.967 -114.47,28.094 -20.528,1.01 -41.208,-0.92 -61.113,-6.115 -31.287,-7.892 -60.383,-22.854 -86.872,-41.055 -16.063,-11.012 -31.197,-23.314 -45.889,-36.076 -20.663,-17.686 -40.947,-36.491 -55.639,-59.598 -13.204,6.404 -27.472,11.959 -42.39,11.563 -7.071,-0.072 -14.268,-1.38 -20.536,-4.771 -2.471,-1.335 -4.807,-3.229 -5.682,-5.998 0.875,-0.631 1.587,-1.867 2.832,-1.732 4.969,0.64 9.759,2.318 14.746,2.94 14.845,2.128 29.889,-1.831 43.265,-8.171 9.975,-4.672 19.003,-11.301 26.561,-19.31 2.441,-2.383 4.543,-5.251 7.537,-6.974 z"
   id="path52" />
</g>
</svg>
