<?xml version="1.0" encoding="UTF-8" standalone="no"?>
<svg
   xmlns:dc="http://purl.org/dc/elements/1.1/"
   xmlns:cc="http://creativecommons.org/ns#"
   xmlns:rdf="http://www.w3.org/1999/02/22-rdf-syntax-ns#"
   xmlns:svg="http://www.w3.org/2000/svg"
   xmlns="http://www.w3.org/2000/svg"
   xmlns:xlink="http://www.w3.org/1999/xlink"
   xmlns:sodipodi="http://sodipodi.sourceforge.net/DTD/sodipodi-0.dtd"
   xmlns:inkscape="http://www.inkscape.org/namespaces/inkscape"
   id="svg2"
   sodipodi:docname="banana.svg"
   viewBox="0 0 472.44094 332.59843"
   version="1.1"
   inkscape:version="1.0.2-2 (e86c870879, 2021-01-15)"
   width="125mm"
   height="88mm">
  <defs
     id="defs4">
    <linearGradient
       id="linearGradient4082">
      <stop
         id="stop4084"
         style="stop-color:#ffffff"
         offset="0" />
      <stop
         id="stop4086"
         style="stop-color:#f6d480;stop-opacity:0"
         offset="1" />
    </linearGradient>
    <linearGradient
       id="linearGradient4165">
      <stop
         id="stop4167"
         style="stop-color:#594c06"
         offset="0" />
      <stop
         id="stop4169"
         style="stop-color:#908200"
         offset=".46743" />
      <stop
         id="stop4171"
         style="stop-color:#ffca2f"
         offset=".58514" />
      <stop
         id="stop4173"
         style="stop-color:#ffc44a"
         offset=".74647" />
      <stop
         id="stop4175"
         style="stop-color:#cda942"
         offset="1" />
    </linearGradient>
    <linearGradient
       id="linearGradient3840"
       inkscape:collect="always">
      <stop
         id="stop3842"
         style="stop-color:#1a1a1a"
         offset="0" />
      <stop
         id="stop3844"
         style="stop-color:#1a1a1a;stop-opacity:0"
         offset="1" />
    </linearGradient>
    <filter
       id="filter3835"
       inkscape:collect="always"
       color-interpolation-filters="sRGB">
      <feGaussianBlur
         id="feGaussianBlur3837"
         stdDeviation="1.5037804"
         inkscape:collect="always" />
    </filter>
    <filter
       id="filter3887"
       height="1.2091"
       width="1.0655"
       color-interpolation-filters="sRGB"
       y="-0.10453"
       x="-0.032763001"
       inkscape:collect="always">
      <feGaussianBlur
         id="feGaussianBlur3889"
         stdDeviation="2.673417"
         inkscape:collect="always" />
    </filter>
    <filter
       id="filter3944"
       height="1.077"
       width="1.2721"
       color-interpolation-filters="sRGB"
       y="-0.038485002"
       x="-0.13607"
       inkscape:collect="always">
      <feGaussianBlur
         id="feGaussianBlur3946"
         stdDeviation="1.0327707"
         inkscape:collect="always" />
    </filter>
    <filter
       id="filter3867"
       inkscape:collect="always"
       color-interpolation-filters="sRGB">
      <feGaussianBlur
         id="feGaussianBlur3869"
         stdDeviation="0.20496279"
         inkscape:collect="always" />
    </filter>
    <filter
       id="filter4072"
       height="1.2022001"
       width="1.0893"
       color-interpolation-filters="sRGB"
       y="-0.10111"
       x="-0.044636998"
       inkscape:collect="always">
      <feGaussianBlur
         id="feGaussianBlur4074"
         stdDeviation="4.0909674"
         inkscape:collect="always" />
    </filter>
    <filter
       id="filter4198"
       height="1.3213"
       width="1.3411"
       color-interpolation-filters="sRGB"
       y="-0.16064"
       x="-0.17053001"
       inkscape:collect="always">
      <feGaussianBlur
         id="feGaussianBlur4200"
         stdDeviation="3.5054579"
         inkscape:collect="always" />
    </filter>
    <filter
       id="filter4297"
       height="1.3001"
       width="1.3762"
       color-interpolation-filters="sRGB"
       y="-0.15006"
       x="-0.18809"
       inkscape:collect="always">
      <feGaussianBlur
         id="feGaussianBlur4299"
         stdDeviation="1.4842916"
         inkscape:collect="always" />
    </filter>
    <filter
       id="filter4313"
       inkscape:collect="always"
       color-interpolation-filters="sRGB">
      <feGaussianBlur
         id="feGaussianBlur4315"
         stdDeviation="0.49510577"
         inkscape:collect="always" />
    </filter>
    <filter
       id="filter4330"
       height="1.3139"
       width="1.4506"
       color-interpolation-filters="sRGB"
       y="-0.15696999"
       x="-0.22528"
       inkscape:collect="always">
      <feGaussianBlur
         id="feGaussianBlur4332"
         stdDeviation="0.76851636"
         inkscape:collect="always" />
    </filter>
    <filter
       id="filter4336"
       inkscape:collect="always"
       color-interpolation-filters="sRGB">
      <feGaussianBlur
         id="feGaussianBlur4338"
         stdDeviation="0.10473396"
         inkscape:collect="always" />
    </filter>
    <filter
       id="filter3873"
       inkscape:collect="always"
       color-interpolation-filters="sRGB">
      <feGaussianBlur
         id="feGaussianBlur3875"
         stdDeviation="0.77686156"
         inkscape:collect="always" />
    </filter>
    <radialGradient
       id="radialGradient3907"
       xlink:href="#linearGradient3840"
       gradientUnits="userSpaceOnUse"
       cy="564.96002"
       cx="-175.00999"
       gradientTransform="matrix(1,0,0,0.061017,0,530.49)"
       r="74.499001"
       inkscape:collect="always" />
    <radialGradient
       id="radialGradient3909"
       xlink:href="#linearGradient4165"
       spreadMethod="reflect"
       gradientUnits="userSpaceOnUse"
       cy="504.82999"
       cx="-203.61"
       gradientTransform="matrix(0.61396,0,1.7242e-8,0.4055,-80.677,281.38)"
       r="134.36"
       inkscape:collect="always" />
    <linearGradient
       id="linearGradient3911"
       y2="502.25"
       xlink:href="#linearGradient4165"
       spreadMethod="reflect"
       gradientUnits="userSpaceOnUse"
       x2="-248.42"
       y1="782.59998"
       x1="-309.62"
       inkscape:collect="always" />
    <radialGradient
       id="radialGradient3913"
       xlink:href="#linearGradient4165"
       gradientUnits="userSpaceOnUse"
       cy="425.48999"
       cx="-203.00999"
       gradientTransform="matrix(1.7028,0,0,0.8297,133.04,81.388)"
       r="116.33"
       inkscape:collect="always" />
    <radialGradient
       id="radialGradient3915"
       xlink:href="#linearGradient4165"
       gradientUnits="userSpaceOnUse"
       cy="449.03"
       cx="-77.912003"
       gradientTransform="matrix(8.5296,4.9246,-10.596,19.387,5435.4,-7953.7)"
       r="14.368"
       inkscape:collect="always" />
    <radialGradient
       id="radialGradient3917"
       xlink:href="#linearGradient4082"
       spreadMethod="reflect"
       gradientUnits="userSpaceOnUse"
       cy="527.34003"
       cx="-134.53"
       gradientTransform="matrix(1,0,0,0.48228,0,248.48)"
       r="105.42"
       inkscape:collect="always" />
    <radialGradient
       id="radialGradient3919"
       xlink:href="#linearGradient4165"
       spreadMethod="reflect"
       gradientUnits="userSpaceOnUse"
       cy="473.51001"
       cx="-96.421997"
       gradientTransform="matrix(-5.6922,0,0,8.9068,-502.38,-4130.5)"
       r="17.506001"
       inkscape:collect="always" />
    <radialGradient
       id="radialGradient3921"
       xlink:href="#linearGradient4165"
       gradientUnits="userSpaceOnUse"
       cy="11.712"
       cx="12.052"
       gradientTransform="matrix(2.4597,-1.4201,1.0598,1.8356,-30.52,10.792)"
       r="13.568"
       inkscape:collect="always" />
    <radialGradient
       id="radialGradient3923"
       xlink:href="#linearGradient4165"
       gradientUnits="userSpaceOnUse"
       cy="397.72"
       cx="-87.203003"
       gradientTransform="matrix(-3.801,0,0,1.9727,-310.34,-796.02)"
       r="13.396"
       inkscape:collect="always" />
    <radialGradient
       id="radialGradient3925"
       xlink:href="#linearGradient4165"
       gradientUnits="userSpaceOnUse"
       cy="439.94"
       cx="-70.921997"
       gradientTransform="matrix(3.2449,0,0,2.2167,159.21,-537.66)"
       r="12.549"
       inkscape:collect="always" />
    <linearGradient
       id="linearGradient3927"
       y2="17.392"
       xlink:href="#linearGradient4082"
       gradientUnits="userSpaceOnUse"
       x2="169.48"
       gradientTransform="matrix(0.905,0,0,0.92952,29.126,0.93419)"
       y1="135.44"
       x1="291.07001"
       inkscape:collect="always" />
    <linearGradient
       id="linearGradient3929"
       y2="481.76999"
       xlink:href="#linearGradient3840"
       gradientUnits="userSpaceOnUse"
       x2="-312.29999"
       gradientTransform="matrix(0.64719,0.197,-0.28471,0.71149,22.011,198.52)"
       y1="474.47"
       x1="-335.07999"
       inkscape:collect="always" />
    <linearGradient
       id="linearGradient3931"
       y2="496.5"
       xlink:href="#linearGradient4165"
       spreadMethod="reflect"
       gradientUnits="userSpaceOnUse"
       x2="-275.28"
       gradientTransform="matrix(-0.9771,0,0,1.0668,-57.786,-452.26)"
       y1="482.85001"
       x1="-377.48999"
       inkscape:collect="always" />
    <linearGradient
       id="linearGradient3933"
       y2="473.78"
       xlink:href="#linearGradient3840"
       gradientUnits="userSpaceOnUse"
       x2="-321.51001"
       gradientTransform="matrix(0.97625,0,0,1.0085,-7.8154,-3.9392)"
       y1="473.78"
       x1="-328.26999"
       inkscape:collect="always" />
    <radialGradient
       id="radialGradient3935"
       xlink:href="#linearGradient4165"
       spreadMethod="reflect"
       gradientUnits="userSpaceOnUse"
       cy="473.51001"
       cx="-96.421997"
       gradientTransform="matrix(-2.9615,0.81849,0.97917,3.7692,-697.59,-1650.6)"
       r="17.506001"
       inkscape:collect="always" />
  </defs>
  <sodipodi:namedview
     id="base"
     fit-margin-left="0"
     inkscape:snap-intersection-paths="true"
     inkscape:zoom="0.96377842"
     borderopacity="1.0"
     inkscape:current-layer="g4545"
     inkscape:cx="368.88106"
     inkscape:cy="22.408636"
     inkscape:snap-bbox-midpoints="true"
     inkscape:object-paths="true"
     inkscape:window-maximized="1"
     inkscape:snap-bbox="true"
     showgrid="false"
     fit-margin-right="0"
     inkscape:snap-midpoints="true"
     inkscape:snap-global="false"
     inkscape:bbox-nodes="true"
     bordercolor="#666666"
     inkscape:window-x="-8"
     inkscape:window-y="-8"
     inkscape:snap-smooth-nodes="true"
     inkscape:object-nodes="true"
     fit-margin-bottom="0"
     inkscape:window-width="1920"
     inkscape:pageopacity="0.0"
     inkscape:pageshadow="2"
     pagecolor="#ffffff"
     inkscape:bbox-paths="true"
     inkscape:document-units="px"
     inkscape:snap-bbox-edge-midpoints="true"
     inkscape:window-height="1017"
     fit-margin-top="0"
     inkscape:document-rotation="0"
     units="mm" />
  <g
     id="layer1"
     inkscape:label="Layer 1"
     inkscape:groupmode="layer"
     transform="translate(332.79,-425.04)">
    <g
       id="g4545"
       transform="matrix(-1,0,0,1,-397.26,0)">
      <g
         id="g3885"
         transform="matrix(1.5476162,0,0,1.5476162,10.169071,-169.95967)">
        <path
           id="path3838"
           d="m -100.51,564.96 c 0,2.5105 -33.354,4.5457 -74.499,4.5457 -41.145,0 -74.499,-2.0352 -74.499,-4.5457 0,-2.5105 33.354,-4.5457 74.499,-4.5457 41.145,0 74.499,2.0352 74.499,4.5457 z"
           style="fill:url(#radialGradient3907)"
           inkscape:connector-curvature="0"
           transform="matrix(1.0923,0,0,1.7778,16.15,-439.42)" />
        <path
           id="path3044"
           sodipodi:nodetypes="cssssscscssc"
           style="fill:url(#radialGradient3909);fill-rule:evenodd"
           inkscape:connector-curvature="0"
           d="m -326.88,472.98 c -11.419,9.7828 1.2879,24.934 8.2952,34.921 5.5558,7.919 46.615,51.894 115.81,56.945 71.022,5.1844 129.95,-33.369 129.95,-81.189 0,-6.2091 -12.688,-27.856 -0.83515,-39.418 2.1951,-2.1413 3.8055,-2.5468 6.5332,-7.6457 2.824,-5.279 1.6885,-14.498 1.6885,-14.498 0,0 -7.2558,-1.3204 -10.854,-1.2375 -6.8204,0.1572 -13.063,3.4213 -14.703,4.9682 -2.4413,9.5949 0.17269,21.226 -7.1976,29.402 -9.998,11.091 -45.913,51.857 -106.84,48.223 -54.327,-3.2408 -99.493,-46.369 -121.84,-30.471 z" />
        <path
           id="path3987"
           d="m -307.06,450.81 c -1.3232,0.58599 -2.231,17.606 2.5938,35.938 4.8247,18.332 27.882,66.648 108.47,60.656 56.226,-4.1803 93.388,-48.475 107.84,-66.312 -19.879,18.796 -57.634,45.576 -108,46.969 -71.82,1.9864 -97.237,-46.388 -110.91,-77.25 z"
           style="fill:url(#linearGradient3911);fill-rule:evenodd;filter:url(#filter4072)"
           transform="matrix(-0.97037,0,0,0.89596,-379.14,63.779)"
           inkscape:connector-curvature="0" />
        <path
           id="path3817"
           sodipodi:nodetypes="cssssssc"
           style="fill:url(#radialGradient3913);fill-rule:evenodd"
           inkscape:connector-curvature="0"
           d="m -90.928,426.05 c -1.956,9.4304 0.15168,20.515 -6.9167,28.417 -10.013,11.194 -45.987,52.333 -107.01,48.665 -48.417,-2.9106 -95.404,-39.704 -113.83,-32.571 -2.08,0.8053 -5.2424,3.943 -5.1283,4.2981 5.165,16.071 50.417,58.429 114.79,61.105 101.1,4.2028 111.74,-58.303 120.81,-94.586 0.69269,-2.7722 -1.0766,-8.5505 -2.7229,-15.328 z" />
        <path
           id="path4182"
           d="m -71.282,421.28 c 1.1407,0.14884 2.1715,0.31024 3.0113,0.4375 0.37331,0.0605 0.86311,0.13747 1.1559,0.1875 0.1991,0.0331 0.5461,0.0715 0.66918,0.0937 -0.0377,3.5871 -0.35521,10.736 -2.2813,14.594 -2.5458,5.0988 -4.0347,5.515 -6.0834,7.6562 -1.6536,1.9253 -2.7175,4.439 -3.3459,7.2812 -0.0088,0.0321 -0.02185,0.0616 -0.03042,0.0937 -0.01124,0.0518 -0.01947,0.10425 -0.03042,0.15625 -0.10348,0.40149 -0.19557,0.8098 -0.27376,1.2188 -0.0019,0.01 0.0019,0.0213 0,0.0312 -0.08581,0.45407 -0.15632,0.91309 -0.21292,1.375 -0.05311,0.43339 -0.09235,0.87358 -0.12167,1.3125 -0.0021,0.0314 0.002,0.0623 0,0.0937 -0.01179,0.18686 -0.02267,0.37483 -0.03042,0.5625 -0.01212,0.29062 -0.02763,0.58268 -0.03042,0.875 -0.0021,0.23064 -0.0033,0.45605 0,0.6875 -0.27423,9.5311 2.3913,20.367 3.8326,25.469 -2.0124,-5.6024 -7.5133,-16.365 -19.224,-12.781 -0.03574,-0.23995 -0.07836,-0.48254 -0.12167,-0.71875 -2.6326,-12.833 -8.0606,-6.5443 -8.9427,-8.5625 2.295,-2.4598 4.1652,-4.5974 5.5055,-6.125 7.1739,-8.1761 4.6197,-19.811 6.996,-29.406 0.99754,-0.96681 3.7588,-2.5881 7.3001,-3.7188 3.7202,0.0164 6.7011,0.0498 7.4522,0.0312 1.3329,-0.0329 3.1271,-0.40815 4.8059,-0.84375 z"
           style="fill:url(#radialGradient3915);filter:url(#filter4313)"
           inkscape:connector-curvature="0" />
        <path
           id="path3039"
           style="fill:#f5cc68;fill-rule:evenodd;filter:url(#filter3887)"
           d="m -294.23,482.63 c 22.329,12.679 58.548,27.041 103.16,24.704 38.291,-2.0058 71.262,-15.827 92.683,-35.457 -6.5644,34.837 -32.611,55.642 -82.148,60.628 -71.626,7.2088 -106.48,-39.31 -111.51,-47.118 -0.60072,-0.93107 -1.4338,-1.8001 -2.175,-2.7564 z"
           sodipodi:nodetypes="cscssc"
           transform="matrix(0.98127,0,0,0.98737,-7.6112,8.2214)"
           inkscape:connector-curvature="0" />
        <path
           id="path4032"
           style="opacity:0.24664;fill:url(#radialGradient3917);fill-rule:evenodd;filter:url(#filter3873)"
           d="m -88.193,436.68 c 2.4577,47.2 -52.241,96.545 -109.23,91.947 -46.778,-6.9167 -77.186,-11.527 -110.48,-55.082 22.901,10.648 78.787,33.385 113.26,35.197 35.522,-0.40422 103.95,-27.306 104.05,-76.65 -0.22757,-4.2516 2.1608,4.9439 2.3916,4.5875 z"
           sodipodi:nodetypes="ccccccc"
           transform="matrix(1.0447,0,0,1.0447,3.8588,-23.728)"
           inkscape:connector-curvature="0" />
        <path
           id="path4037"
           sodipodi:nodetypes="csccssc"
           style="fill:#f8e2a9;fill-opacity:0.88839;fill-rule:evenodd;filter:url(#filter3835)"
           inkscape:connector-curvature="0"
           d="m -86.541,437.78 c -0.3581,1.7446 -6.6103,22.482 -6.6103,22.482 -5.5638,17.948 -18.023,79.397 -119.03,72.614 -31.842,-2.8286 -51.565,-11.896 -77.154,-24.882 18.759,13.627 46.314,24.747 80.368,27.034 101.01,6.7835 109.57,-51.368 120.13,-81.875 0.29579,-0.85469 2.658,-17.117 2.2999,-15.372 z" />
        <path
           id="path4189"
           style="fill:none"
           inkscape:connector-curvature="0"
           d="m -70.906,421.28 c -1.7248,0.4356 -3.5681,0.81083 -4.9375,0.84375 -2.6176,0.0629 -4.8559,0.39984 -7.2812,0.90625 -3.6598,0.75881 -6.6441,1.8535 -7.5938,2.7812 -2.3574,9.5949 0.17948,21.23 -6.9375,29.406 -1.3384,1.5376 -3.2332,3.6753 -5.5312,6.1562 1.6487,0.25138 3.008,1.1207 4.4375,2.125 2.5419,1.7857 3.7719,4.2051 4.2188,7.125 12.031,-3.5839 17.683,7.1789 19.75,12.781 -1.4431,-4.9725 -4.0434,-15.234 -3.9375,-24.656 -8.62e-4,-0.0205 8.21e-4,-0.042 0,-0.0625 -0.1028,-2.5673 0.1307,-5.09 0.84375,-7.4688 0.64973,-2.7156 1.7146,-5.1226 3.3438,-6.9688 2.1048,-2.1413 3.6345,-2.5574 6.25,-7.6562 1.9788,-3.8577 2.305,-11.007 2.3438,-14.594 -0.69111,-0.12175 -2.625,-0.42108 -4.9688,-0.71875 z m -3.7812,62.406 c 0.48589,1.6576 0.875,2.875 0.875,2.875 0,0 -0.26434,-1.1711 -0.875,-2.875 z" />
        <path
           id="path4283"
           style="opacity:0.30942;fill:url(#radialGradient3919);filter:url(#filter4297)"
           d="m 11.5,59.656 c -0.35997,2.2872 -0.38517,4.6746 -0.3125,7.0312 2.2413,-7.0542 3.6118,-17.164 11.469,-19.906 2.2315,-0.77162 6.0833,0.39728 7.4375,-0.625 -15.495,-9.7473 -16.533,5.0381 -18.594,13.5 z"
           sodipodi:nodetypes="ccccc"
           transform="matrix(-1.0317,0,0,0.81359,-64.483,431.4)"
           inkscape:connector-curvature="0" />
        <path
           id="path4099"
           d="m 18.5,1.3125 c -0.37519,3.2012 1.1026,12.027 2.5,22.125 1.6886,12.202 15.656,42.281 15.656,42.281 0,0 -8.2558,-21.671 -11.719,-33.375 C 22.076,22.6735 20.889,6.8745 19.75,1.7495 19.339,1.598 18.938,1.4513 18.5,1.312 Z"
           style="fill:#e6d7b3;fill-opacity:0.8902;filter:url(#filter3944)"
           inkscape:connector-curvature="0"
           transform="matrix(-1,0,0,1,-65.221,420.84)" />
        <path
           id="path4380"
           d="M 11.094,0 C 10.85,-0.0056185 10.555,0.024838 10.281,0.03125 8.5329,0.11114 6.4502,0.3363 4.625,0.5625 4.3998,0.59364 4.2164,0.62494 4,0.65625 1.9369,0.95471 0.2932,1.2421 0.25,1.25 0.24485,1.2873 0.18949,1.7134 0.15625,2.0312 0.13234,2.2599 0.11995,2.2475 0.09375,2.5938 c -0.0076938,0.10383 0.0075813,0.072331 0,0.1875 C 0.064898,3.1886 0.016006,3.6356 0,4.1562 c -0.003505,0.1032 0.0028593,0.1742 0,0.2813 -0.012126,0.5206 -0.015788,1.0643 0,1.6563 0.073876,2.7698 0.5168,6.1592 2.0312,8.6252 1.999,3.254 3.4439,4.454 4.9063,5.531 2.2663,-0.106 4.6065,0.229 6.5625,-1.469 3.616,-1.907 7.743,-0.162 11.406,-1.656 0.747,-0.591 1.481,-1.188 2.219,-1.813 C 26.871,11.777 26.616,8.2479 25.781,4.969 24.154,3.4339 18.008,0.2036 11.25,0 11.197,-0.001594 11.147,0.0012213 11.094,0 Z"
           style="opacity:0.59641;fill:url(#radialGradient3921);fill-rule:evenodd"
           inkscape:connector-curvature="0"
           transform="matrix(-1,0,0,1,-65.221,420.84)" />
        <path
           id="path4227"
           style="fill:url(#radialGradient3923);fill-rule:evenodd"
           d="M 9.9688,1.0625 C 7.8613,1.0649 5.7706,1.2933 3.6875,1.5625 2.4446,1.7631 -0.1446,1.6026 0.625,3.4062 c 1.6177,4.415 5.9337,4.4223 5.9337,4.4223 0,0 1.4173,2.6391 6.0351,4.0777 1.0378,1.1165 3.1188,-0.18498 4.4375,-0.40625 1.0675,0.89071 2.2159,1.3448 3.4688,1.1875 0.67172,-1.2602 2.1562,-3.5625 2.1562,-3.5625 0,0 1.8072,-0.1076 1.625,-1.3125 -0.332,-1.1992 -0.968,-2.5096 -2.062,-3.4063 -3.659,-2.0352 -7.942,-3.2211 -12.25,-3.3437 z"
           sodipodi:nodetypes="ccccccccccc"
           transform="matrix(-1,0,0,1,-65.221,420.84)"
           inkscape:connector-curvature="0" />
        <path
           id="path4276"
           d="m -68.576,422.9 c 0.37778,0.0303 0.64112,0.22918 0.69916,0.70087 0.09606,0.78064 -1.5829,1.8665 -3.2711,3.1418 -1.7813,0.62795 -1.2187,1.4623 -2.522,1.8126 -3.4363,0.92373 -6.6791,2.8998 -9.0141,0.5317 -2.3701,-3.814 0.8754,-4.5872 4.4696,-4.7369 l 1.9976,0.21751 1.3983,-0.48336 2.8466,-0.0483 c 1.1519,-0.45382 2.5648,-1.2025 3.3959,-1.1359 z"
           style="fill:#fadf9f;fill-rule:evenodd"
           inkscape:connector-curvature="0" />
        <path
           id="path4410"
           style="opacity:0.8;fill:url(#radialGradient3925);fill-rule:evenodd;filter:url(#filter3867)"
           d="m -65.787,424.39 c 0.39324,5.5791 -1.1679,11.967 -5.9425,15.341 -4.0805,1.7616 -8.4729,-0.10471 -12.598,-0.70398 -2.2106,-0.30838 -6.7391,-2.9735 -5.0916,-4.9533 2.6018,1.6475 5.2513,2.5406 8.5844,2.4953 3.3045,0.23584 7.0599,2.5529 9.8847,0.0601 3.7718,-2.8553 5.1211,-7.6964 5.1631,-12.24 z"
           sodipodi:nodetypes="ccccccc"
           transform="matrix(1.1331,0,0,1.0837,9.4418,-34.984)"
           inkscape:connector-curvature="0" />
        <path
           id="path4493"
           style="fill:url(#linearGradient3927);filter:url(#filter4198)"
           d="m 215.41,107.25 c -0.42133,3.1665 2.6625,6.9617 10.55,3.3559 13.658,-6.244 45.144,-58.015 36.435,-54.95 0,0 -45.081,37.287 -46.984,51.594 z"
           sodipodi:nodetypes="sscs"
           transform="matrix(-1.2199,0,0,0.8666,1.6747,444.61)"
           inkscape:connector-curvature="0" />
        <path
           id="path3952"
           d="m -320.7,470.05 c 0.63889,0.0448 0.55496,0.79186 0.71152,1.1659 0.16098,0.89712 0.40659,2.0974 -1.0209,2.4507 -1.5347,0.33703 -0.17012,1.2868 -0.30937,1.9748 -1.1898,0.79241 -1.4313,2.0564 -2.1655,3.0693 -0.65809,0.64599 -1.9707,-0.70874 -2.6914,0.19036 -0.98177,0.50144 -1.0164,1.5546 -1.5777,2.1652 -0.69488,-0.97191 -1.6149,0.36141 -2.4439,-0.23793 -0.65894,-1.1718 -0.20365,-3.1868 0.24748,-4.3609 0.29309,-1.152 1.4534,-1.3625 1.6087,-2.5391 0.44974,-0.80609 2.3249,-1.5084 2.9168,-2.2385 0.77002,-0.62271 1.9837,-0.66309 2.6605,-1.381 0.98479,-0.0595 1.0688,-0.11458 2.0639,-0.25882 z m -7.8577,3.902 c 0.0239,0.006 -0.008,0.0195 0,0.0238 -0.0458,-0.002 -0.0884,-0.009 0,-0.0238 z"
           sodipodi:nodetypes="cccccccccccccccc"
           style="fill:url(#linearGradient3929)"
           inkscape:connector-curvature="0" />
        <path
           id="path3980"
           d="m 255.19,49.219 c -0.95467,0.46668 -1.3424,1.7297 -0.90625,2.7188 0.3069,0.91131 0.90193,1.6825 1.5625,2.3438 0.16523,1.9304 1.1424,3.7701 2.5938,4.9688 1.2439,-0.0355 2.7153,0.01368 3.5312,1.1562 0.0351,0.8225 1.3975,1.2611 1,0.15625 -0.33673,-0.84647 -1.0456,-1.8622 -2.0312,-1.7188 -1.1485,0.5483 -2.4245,-0.25767 -3,-1.3125 -0.56918,-0.89884 -0.91016,-1.9187 -1.375,-2.875 0.0792,-1.684 -2.0344,-2.4688 -1.8125,-4.1875 0.0271,-0.46579 0.33146,-0.81037 0.4375,-1.25 z"
           style="fill:url(#linearGradient3931);filter:url(#filter4336)"
           inkscape:connector-curvature="0"
           transform="matrix(-1,0,0,1,-65.221,420.84)" />
        <path
           id="path3936"
           d="m -323.42,471.4 c -0.50392,0.14407 -0.75815,0.96142 -1.3907,0.62586 -0.71166,-0.26441 -1.1118,0.41547 -1.6117,0.76153 -0.54068,0.27456 -0.7258,0.74946 -1.1128,1.1211 0.0624,0.74078 -0.90217,0.83232 -0.72151,1.5903 -0.21479,0.88971 0.77954,0.96909 1.3903,0.82349 0.69403,0.27945 0.97231,-0.86444 1.6615,-0.59203 0.68302,0.35364 1.1933,-0.35631 1.6796,-0.7042 0.50721,-0.26993 0.6207,-0.78088 1.0674,-1.0428 -0.0352,-0.7695 0.83822,-0.89017 0.74715,-1.643 0.19027,-0.88441 -0.71396,-1.0112 -1.3393,-0.85943 -0.13359,0.0198 -0.24293,-0.10816 -0.37001,-0.0808 z"
           style="fill:url(#linearGradient3933)"
           inkscape:connector-curvature="0" />
        <path
           id="path4317"
           d="m 35.625,39.969 c -5.9128,0.0085 -5.0947,5.3262 -5.2188,8.7188 0.06415,1.0197 0.32811,2.0444 0.625,3.0312 0.39061,-3.3075 -0.0051,-7.8037 3.7812,-10.094 1.0762,-0.6474 3.1891,-0.68516 3.7812,-1.3125 -1.1416,-0.23711 -2.1241,-0.34496 -2.9688,-0.34375 z"
           style="opacity:0.23767;fill:url(#radialGradient3935);filter:url(#filter4330)"
           transform="matrix(-1,0,0,0.8855,-65.221,425.21)"
           inkscape:connector-curvature="0" />
      </g>
    </g>
  </g>
  <metadata
     id="metadata76">
    <rdf:RDF>
      <cc:Work>
        <dc:format>image/svg+xml</dc:format>
        <dc:type
           rdf:resource="http://purl.org/dc/dcmitype/StillImage" />
        <cc:license
           rdf:resource="http://creativecommons.org/publicdomain/zero/1.0/" />
        <dc:publisher>
          <cc:Agent
             rdf:about="http://openclipart.org/">
            <dc:title>Openclipart</dc:title>
          </cc:Agent>
        </dc:publisher>
        <dc:title></dc:title>
      </cc:Work>
      <cc:License
         rdf:about="http://creativecommons.org/publicdomain/zero/1.0/">
        <cc:permits
           rdf:resource="http://creativecommons.org/ns#Reproduction" />
        <cc:permits
           rdf:resource="http://creativecommons.org/ns#Distribution" />
        <cc:permits
           rdf:resource="http://creativecommons.org/ns#DerivativeWorks" />
      </cc:License>
    </rdf:RDF>
  </metadata>
</svg>
