<?xml version="1.0" encoding="UTF-8" standalone="no"?>
<svg
   xmlns:dc="http://purl.org/dc/elements/1.1/"
   xmlns:cc="http://creativecommons.org/ns#"
   xmlns:rdf="http://www.w3.org/1999/02/22-rdf-syntax-ns#"
   xmlns:svg="http://www.w3.org/2000/svg"
   xmlns="http://www.w3.org/2000/svg"
   xmlns:sodipodi="http://sodipodi.sourceforge.net/DTD/sodipodi-0.dtd"
   xmlns:inkscape="http://www.inkscape.org/namespaces/inkscape"
   version="1.1"
   x="0"
   y="0"
   width="85.763908mm"
   height="79.53772mm"
   viewBox="0 0 324.14706 300.615"
   id="svg265"
   sodipodi:docname="bass.svg"
   inkscape:version="1.0.2-2 (e86c870879, 2021-01-15)">
  <metadata
     id="metadata269">
    <rdf:RDF>
      <cc:Work
         rdf:about="">
        <dc:format>image/svg+xml</dc:format>
        <dc:type
           rdf:resource="http://purl.org/dc/dcmitype/StillImage" />
        <dc:title />
      </cc:Work>
    </rdf:RDF>
  </metadata>
  <sodipodi:namedview
     pagecolor="#ffffff"
     bordercolor="#666666"
     borderopacity="1"
     objecttolerance="10"
     gridtolerance="10"
     guidetolerance="10"
     inkscape:pageopacity="0"
     inkscape:pageshadow="2"
     inkscape:window-width="1920"
     inkscape:window-height="1017"
     id="namedview267"
     showgrid="false"
     units="mm"
     inkscape:zoom="0.98515326"
     inkscape:cx="-13.782298"
     inkscape:cy="219.55993"
     inkscape:window-x="-8"
     inkscape:window-y="-8"
     inkscape:window-maximized="1"
     inkscape:current-layer="svg265"
     inkscape:document-rotation="0" />
  <defs
     id="defs178">
    <linearGradient
       id="Gradient_1"
       gradientUnits="userSpaceOnUse"
       x1="84.688004"
       y1="406.05801"
       x2="91.027"
       y2="406.19199">
      <stop
         offset="0"
         stop-color="#474749"
         id="stop2" />
      <stop
         offset="0.034"
         stop-color="#474749"
         id="stop4" />
      <stop
         offset="0.219"
         stop-color="#BBBDC2"
         id="stop6" />
      <stop
         offset="0.719"
         stop-color="#474749"
         id="stop8" />
      <stop
         offset="1"
         stop-color="#747577"
         id="stop10" />
    </linearGradient>
    <linearGradient
       id="Gradient_2"
       gradientUnits="userSpaceOnUse"
       x1="15.122"
       y1="265.25299"
       x2="168.153"
       y2="268.478">
      <stop
         offset="0"
         stop-color="#83492E"
         id="stop13" />
      <stop
         offset="0.221"
         stop-color="#915030"
         id="stop15" />
      <stop
         offset="0.635"
         stop-color="#6C362D"
         id="stop17" />
      <stop
         offset="0.982"
         stop-color="#A4583A"
         id="stop19" />
      <stop
         offset="1"
         stop-color="#A4583A"
         id="stop21" />
    </linearGradient>
    <linearGradient
       id="Gradient_3"
       gradientUnits="userSpaceOnUse"
       x1="87.918999"
       y1="36.234001"
       x2="88.738998"
       y2="30.646999">
      <stop
         offset="0"
         stop-color="#6C6B6A"
         id="stop24" />
      <stop
         offset="0.034"
         stop-color="#6C6B6A"
         id="stop26" />
      <stop
         offset="0.219"
         stop-color="#96979C"
         id="stop28" />
      <stop
         offset="0.719"
         stop-color="#474B4E"
         id="stop30" />
      <stop
         offset="1"
         stop-color="#9BA1A5"
         id="stop32" />
    </linearGradient>
    <linearGradient
       id="Gradient_4"
       gradientUnits="userSpaceOnUse"
       x1="86.708"
       y1="46.275002"
       x2="87.528999"
       y2="40.686001">
      <stop
         offset="0"
         stop-color="#6C6B6A"
         id="stop35" />
      <stop
         offset="0.034"
         stop-color="#6C6B6A"
         id="stop37" />
      <stop
         offset="0.219"
         stop-color="#96979C"
         id="stop39" />
      <stop
         offset="0.719"
         stop-color="#474B4E"
         id="stop41" />
      <stop
         offset="1"
         stop-color="#9BA1A5"
         id="stop43" />
    </linearGradient>
    <linearGradient
       id="Gradient_5"
       gradientUnits="userSpaceOnUse"
       x1="103.784"
       y1="40.550999"
       x2="103.2"
       y2="34.933998">
      <stop
         offset="0"
         stop-color="#6C6B6A"
         id="stop46" />
      <stop
         offset="0.034"
         stop-color="#6C6B6A"
         id="stop48" />
      <stop
         offset="0.219"
         stop-color="#96979C"
         id="stop50" />
      <stop
         offset="0.719"
         stop-color="#474B4E"
         id="stop52" />
      <stop
         offset="1"
         stop-color="#9BA1A5"
         id="stop54" />
    </linearGradient>
    <linearGradient
       id="Gradient_6"
       gradientUnits="userSpaceOnUse"
       x1="104.571"
       y1="50.632999"
       x2="103.987"
       y2="45.014999">
      <stop
         offset="0"
         stop-color="#6C6B6A"
         id="stop57" />
      <stop
         offset="0.034"
         stop-color="#6C6B6A"
         id="stop59" />
      <stop
         offset="0.219"
         stop-color="#96979C"
         id="stop61" />
      <stop
         offset="0.719"
         stop-color="#474B4E"
         id="stop63" />
      <stop
         offset="1"
         stop-color="#9BA1A5"
         id="stop65" />
    </linearGradient>
    <linearGradient
       id="Gradient_7"
       gradientUnits="userSpaceOnUse"
       x1="89.665001"
       y1="36.641998"
       x2="89.801003"
       y2="30.156">
      <stop
         offset="0"
         stop-color="#6C6B6A"
         id="stop68" />
      <stop
         offset="0.034"
         stop-color="#6C6B6A"
         id="stop70" />
      <stop
         offset="0.219"
         stop-color="#96979C"
         id="stop72" />
      <stop
         offset="0.719"
         stop-color="#474B4E"
         id="stop74" />
      <stop
         offset="1"
         stop-color="#9BA1A5"
         id="stop76" />
    </linearGradient>
    <linearGradient
       id="Gradient_8"
       gradientUnits="userSpaceOnUse"
       x1="88.581001"
       y1="46.756001"
       x2="88.717003"
       y2="40.271">
      <stop
         offset="0"
         stop-color="#6C6B6A"
         id="stop79" />
      <stop
         offset="0.034"
         stop-color="#6C6B6A"
         id="stop81" />
      <stop
         offset="0.219"
         stop-color="#96979C"
         id="stop83" />
      <stop
         offset="0.719"
         stop-color="#474B4E"
         id="stop85" />
      <stop
         offset="1"
         stop-color="#9BA1A5"
         id="stop87" />
    </linearGradient>
    <linearGradient
       id="Gradient_9"
       gradientUnits="userSpaceOnUse"
       x1="102.062"
       y1="40.799"
       x2="102.198"
       y2="34.313">
      <stop
         offset="0"
         stop-color="#6C6B6A"
         id="stop90" />
      <stop
         offset="0.034"
         stop-color="#6C6B6A"
         id="stop92" />
      <stop
         offset="0.219"
         stop-color="#96979C"
         id="stop94" />
      <stop
         offset="0.719"
         stop-color="#474B4E"
         id="stop96" />
      <stop
         offset="1"
         stop-color="#9BA1A5"
         id="stop98" />
    </linearGradient>
    <linearGradient
       id="Gradient_10"
       gradientUnits="userSpaceOnUse"
       x1="102.717"
       y1="50.949001"
       x2="102.854"
       y2="44.463001">
      <stop
         offset="0"
         stop-color="#6C6B6A"
         id="stop101" />
      <stop
         offset="0.034"
         stop-color="#6C6B6A"
         id="stop103" />
      <stop
         offset="0.219"
         stop-color="#96979C"
         id="stop105" />
      <stop
         offset="0.719"
         stop-color="#474B4E"
         id="stop107" />
      <stop
         offset="1"
         stop-color="#9BA1A5"
         id="stop109" />
    </linearGradient>
    <linearGradient
       id="Gradient_11"
       gradientUnits="userSpaceOnUse"
       x1="86.384003"
       y1="39.316002"
       x2="104.973"
       y2="39.707001">
      <stop
         offset="0"
         stop-color="#83492E"
         id="stop112" />
      <stop
         offset="0.221"
         stop-color="#915030"
         id="stop114" />
      <stop
         offset="0.635"
         stop-color="#6C362D"
         id="stop116" />
      <stop
         offset="0.982"
         stop-color="#A4583A"
         id="stop118" />
      <stop
         offset="1"
         stop-color="#A4583A"
         id="stop120" />
    </linearGradient>
    <linearGradient
       id="Gradient_12"
       gradientUnits="userSpaceOnUse"
       x1="95.767998"
       y1="49.639"
       x2="95.824997"
       y2="46.908001">
      <stop
         offset="0"
         stop-color="#6C6B6A"
         id="stop123" />
      <stop
         offset="0.034"
         stop-color="#6C6B6A"
         id="stop125" />
      <stop
         offset="0.219"
         stop-color="#96979C"
         id="stop127" />
      <stop
         offset="0.719"
         stop-color="#474B4E"
         id="stop129" />
      <stop
         offset="1"
         stop-color="#9BA1A5"
         id="stop131" />
    </linearGradient>
    <linearGradient
       id="Gradient_13"
       gradientUnits="userSpaceOnUse"
       x1="95.638"
       y1="45.026001"
       x2="95.695"
       y2="42.294998">
      <stop
         offset="0"
         stop-color="#6C6B6A"
         id="stop134" />
      <stop
         offset="0.034"
         stop-color="#6C6B6A"
         id="stop136" />
      <stop
         offset="0.219"
         stop-color="#96979C"
         id="stop138" />
      <stop
         offset="0.719"
         stop-color="#474B4E"
         id="stop140" />
      <stop
         offset="1"
         stop-color="#9BA1A5"
         id="stop142" />
    </linearGradient>
    <linearGradient
       id="Gradient_14"
       gradientUnits="userSpaceOnUse"
       x1="95.640999"
       y1="38.573002"
       x2="95.698997"
       y2="35.842999">
      <stop
         offset="0"
         stop-color="#6C6B6A"
         id="stop145" />
      <stop
         offset="0.034"
         stop-color="#6C6B6A"
         id="stop147" />
      <stop
         offset="0.219"
         stop-color="#96979C"
         id="stop149" />
      <stop
         offset="0.719"
         stop-color="#474B4E"
         id="stop151" />
      <stop
         offset="1"
         stop-color="#9BA1A5"
         id="stop153" />
    </linearGradient>
    <linearGradient
       id="Gradient_15"
       gradientUnits="userSpaceOnUse"
       x1="95.527"
       y1="34.764999"
       x2="95.584999"
       y2="32.034">
      <stop
         offset="0"
         stop-color="#6C6B6A"
         id="stop156" />
      <stop
         offset="0.034"
         stop-color="#6C6B6A"
         id="stop158" />
      <stop
         offset="0.219"
         stop-color="#96979C"
         id="stop160" />
      <stop
         offset="0.719"
         stop-color="#474B4E"
         id="stop162" />
      <stop
         offset="1"
         stop-color="#9BA1A5"
         id="stop164" />
    </linearGradient>
    <linearGradient
       id="Gradient_16"
       gradientUnits="userSpaceOnUse"
       x1="84.556999"
       y1="13.782"
       x2="107.374"
       y2="14.263">
      <stop
         offset="0"
         stop-color="#83492E"
         id="stop167" />
      <stop
         offset="0.221"
         stop-color="#915030"
         id="stop169" />
      <stop
         offset="0.635"
         stop-color="#6C362D"
         id="stop171" />
      <stop
         offset="0.982"
         stop-color="#A4583A"
         id="stop173" />
      <stop
         offset="1"
         stop-color="#A4583A"
         id="stop175" />
    </linearGradient>
  </defs>
  <g
     id="Calque_1"
     transform="rotate(-50.370435,49.879254,102.26491)">
    <g
       id="g184">
      <path
         d="m 90.577,30.563 -1.961,23.843 -3.6,78.657 c -0.004,0.001 -6.832,1.666 -7.773,2.921 -0.942,1.256 -2.186,5.937 -2.186,5.937 l 9.618,-1.37 -4.7,102.69 c 14.581,-0.857 20.67,0.437 20.67,0.437 L 97.647,54.304 96.399,30.686 Z"
         fill="#4b2525"
         id="path180" />
      <path
         d="m 81.302,396.559 c 35.323,0.744 63.375,-16.875 71.948,-40.23 8.572,-23.355 -6.659,-67.354 -6.659,-67.354 -1.954,-1.799 -5.251,4.572 -13.634,-3.214 -8.384,-7.788 -9.486,-33.222 -7.107,-40.548 2.379,-7.328 11.205,-6.499 11.205,-6.499 0,0 6.305,-22.779 0.868,-41.144 -5.438,-18.367 -21.379,-26.664 -38.388,-39.549 -8.804,-6.672 -7.24,-15.779 -7.976,-15.795 -0.736,-0.015 -7.957,-2.065 -7.957,-2.065 l -0.083,0.036 c 0,0 -7.363,1.705 -8.283,1.685 -0.921,-0.021 0.608,9.153 -8.47,15.447 -17.537,12.157 -33.814,19.776 -40.021,37.897 -6.206,18.12 -0.866,41.144 -0.866,41.144 0,0 8.851,-0.456 10.92,6.966 2.068,7.42 -0.105,32.784 -8.81,40.212 -8.704,7.429 -11.729,0.924 -13.756,2.638 0,0 -17.073,43.315 -9.493,67.013 7.581,23.694 34.866,42.479 70.188,43.225 z"
         fill="#4b2525"
         id="path182" />
    </g>
    <path
       d="m 84.901,395.991 -0.019,0.953 c -0.02,0.912 0.703,1.667 1.613,1.685 v 0 l 0.478,0.01 -0.404,19.182 2.084,0.043 0.405,-19.179 0.476,0.009 c 0.913,0.02 1.666,-0.705 1.685,-1.616 v 0 l 0.02,-0.954 c 0.019,-0.911 -0.704,-1.665 -1.615,-1.685 v 0 l -3.038,-0.063 c -0.013,0 -0.025,-10e-4 -0.038,-10e-4 v 0 c -0.894,0 -1.629,0.716 -1.647,1.616 z"
       fill="url(#Gradient_1)"
       id="path186"
       style="fill:url(#Gradient_1)" />
    <path
       d="m 94.34,138.734 c 0,0 -7.363,1.707 -8.284,1.688 v 0 c -0.921,-0.021 0.609,9.152 -8.47,15.447 v 0 C 60.05,168.026 43.773,175.644 37.567,193.765 v 0 c -6.208,18.12 -0.869,41.144 -0.869,41.144 v 0 c 0,0 8.852,-0.455 10.922,6.965 v 0 c 2.067,7.421 -0.106,32.785 -8.811,40.212 v 0 c -5.476,4.672 -8.703,3.833 -10.849,2.994 v 0 c -1.265,-0.496 -2.155,-0.991 -2.907,-0.356 v 0 c 0,0 -17.072,43.317 -9.492,67.013 v 0 c 7.58,23.696 34.865,42.48 70.187,43.227 v 0 l 6.376,0.134 c 35.321,0.745 63.373,-16.875 71.945,-40.23 v 0 c 8.573,-23.355 -6.659,-67.354 -6.659,-67.354 v 0 c -0.715,-0.657 -1.608,-0.221 -2.866,0.215 v 0 c -2.179,0.755 -5.45,1.511 -10.767,-3.429 v 0 c -8.383,-7.787 -9.485,-33.221 -7.107,-40.549 v 0 c 2.379,-7.326 11.205,-6.499 11.205,-6.499 v 0 c 0,0 6.306,-22.777 0.868,-41.143 v 0 c -5.438,-18.368 -21.378,-26.666 -38.387,-39.55 v 0 c -8.805,-6.672 -7.239,-15.779 -7.977,-15.794 v 0 c -0.736,-0.016 -7.957,-2.064 -7.957,-2.064 v 0 z"
       fill="url(#Gradient_2)"
       id="path188"
       style="fill:url(#Gradient_2)" />
    <g
       id="g218">
      <path
         d="M 82.36,240.03 91,51.194 l 1.96,-23.843 5.822,0.123 1.249,23.618 2.998,189.374 c 0,0 -6.089,-1.294 -20.669,-0.436"
         fill="#2d2b2e"
         id="path190" />
      <path
         d="M 82.36,240.03 91,51.194 l 1.96,-23.843 5.822,0.123 1.249,23.618 2.998,189.374 c 0,0 -6.089,-1.294 -20.669,-0.436 z"
         fill-opacity="0"
         stroke="#2d2b2e"
         stroke-width="0.582"
         id="path192" />
      <path
         d="m 89.008,395.032 c -2.037,-0.043 -4.459,-4.467 -5.614,-5.726 -1.152,-1.257 1.638,-22.391 2.01,-26.169 0.37,-3.779 -4.385,-26.888 -6.591,-32.758 -2.207,-5.873 0.312,-14.848 0.312,-14.848 11.031,1.688 12.017,1.711 23.11,0.487 0,0 2.138,9.075 -0.313,14.846 -2.453,5.773 -8.178,28.662 -7.966,32.453 0.211,3.789 1.962,24.893 0.904,26.231 -1.079,1.363 -3.487,5.533 -5.526,5.49 z"
         fill="#2d2b2e"
         id="path194" />
      <path
         d="m 98.345,390.878 -0.074,3.602 c 0,0 -18.402,0.715 -18.63,-0.854 l 0.066,-3.15 c 0,0 8.828,1.744 18.638,0.402"
         fill="#2d2b2e"
         id="path196" />
      <path
         d="m 88.005,325.288 c 0.005,-0.028 0.017,-0.057 0.019,-0.088 l 0.039,-1.891 c 0.007,-0.322 -0.249,-0.588 -0.572,-0.595 -0.322,-0.007 -0.59,0.248 -0.594,0.572 l -0.043,1.89 c 0,0.031 0.014,0.059 0.017,0.089 -0.522,0.209 -0.896,0.714 -0.907,1.312 -0.018,0.799 0.616,1.46 1.416,1.477 0.798,0.016 1.46,-0.618 1.476,-1.416 0.013,-0.597 -0.34,-1.119 -0.851,-1.35"
         fill="#3a3a3c"
         id="path198" />
      <path
         d="m 93.622,325.407 c 0.006,-0.029 0.02,-0.057 0.019,-0.088 l 0.042,-1.891 c 0.006,-0.322 -0.25,-0.589 -0.573,-0.597 -0.322,-0.006 -0.59,0.25 -0.596,0.572 l -0.04,1.893 c 10e-4,0.03 0.013,0.057 0.015,0.086 -0.52,0.212 -0.894,0.716 -0.907,1.313 -0.017,0.8 0.616,1.46 1.415,1.476 0.8,0.017 1.461,-0.615 1.477,-1.415 0.013,-0.597 -0.338,-1.119 -0.852,-1.349"
         fill="#3a3a3c"
         id="path200" />
      <path
         d="m 99.176,324.967 c 0.004,-0.031 0.016,-0.058 0.017,-0.088 l 0.04,-1.891 c 0.007,-0.321 -0.205,-0.588 -0.475,-0.595 -0.268,-0.006 -0.491,0.253 -0.498,0.574 l -0.041,1.894 c 0,0.028 0.012,0.057 0.014,0.087 -0.436,0.211 -0.748,0.716 -0.762,1.315 -0.016,0.798 0.51,1.458 1.175,1.471 0.666,0.015 1.219,-0.621 1.237,-1.42 0.012,-0.599 -0.28,-1.117 -0.707,-1.347"
         fill="#3a3a3c"
         id="path202" />
      <path
         d="m 81.657,324.598 c -0.004,-0.03 -0.014,-0.057 -0.013,-0.088 l 0.039,-1.891 c 0.006,-0.324 0.231,-0.581 0.499,-0.574 0.269,0.005 0.481,0.271 0.474,0.594 l -0.04,1.892 c 0,0.03 -0.012,0.057 -0.018,0.087 0.428,0.228 0.719,0.749 0.706,1.345 -0.015,0.799 -0.569,1.436 -1.235,1.421 -0.666,-0.013 -1.191,-0.673 -1.174,-1.472 0.013,-0.597 0.326,-1.103 0.762,-1.314"
         fill="#3a3a3c"
         id="path204" />
      <path
         d="m 59.401,274.544 c -1.436,10.502 -3.627,25.037 -14.342,24.018 -2.615,-0.25 -8.546,-5.361 -5.295,-9.904 0.384,-0.536 3.78,-3.332 5.694,0.311 1.324,2.522 -0.678,4.441 -2.241,4.893 l 3.121,3.951 c 0,0 5.821,-4.442 7.004,-9.853 1.181,-5.412 1.604,-16.277 1.604,-16.277 0,0 1.191,-15.119 5.377,-20.176 0,0 2.396,-3.153 6.55,-2.193 4.155,0.962 4.479,3.978 4.555,4.951 0.077,0.972 -1.344,3.951 -3.271,3.232 -1.926,-0.721 -1.684,-2.949 -0.387,-4.67 l -2.266,-2.959 c 0,0 -4.785,1.513 -4.938,8.732 z"
         fill="#2d2b2e"
         id="path206" />
      <path
         d="m 59.401,274.544 c -1.436,10.502 -3.627,25.037 -14.342,24.018 -2.615,-0.25 -8.546,-5.361 -5.295,-9.904 0.384,-0.536 3.78,-3.332 5.694,0.311 1.324,2.522 -0.678,4.441 -2.241,4.893 l 3.121,3.951 c 0,0 5.821,-4.442 7.004,-9.853 1.181,-5.412 1.604,-16.277 1.604,-16.277 0,0 1.191,-15.119 5.377,-20.176 0,0 2.396,-3.153 6.55,-2.193 4.155,0.962 4.479,3.978 4.555,4.951 0.077,0.972 -1.344,3.951 -3.271,3.232 -1.926,-0.721 -1.684,-2.949 -0.387,-4.67 l -2.266,-2.959 c 0,0 -4.785,1.513 -4.938,8.732 z"
         fill-opacity="0"
         stroke="#2d2b2e"
         stroke-width="0.582"
         id="path208" />
      <path
         d="m 119.614,275.813 c 0.992,10.553 2.568,25.169 13.315,24.599 2.626,-0.138 8.767,-4.994 5.708,-9.671 -0.359,-0.55 -3.633,-3.489 -5.701,0.07 -1.429,2.467 0.491,4.467 2.033,4.984 l -3.285,3.815 c 0,0 -5.628,-4.682 -6.582,-10.139 -0.952,-5.457 -0.916,-16.329 -0.916,-16.329 0,0 -0.554,-15.157 -4.521,-20.386 0,0 -2.262,-3.251 -6.452,-2.464 -4.193,0.785 -4.644,3.785 -4.761,4.753 -0.117,0.968 1.178,4.004 3.131,3.367 1.956,-0.638 1.81,-2.874 0.585,-4.648 l 2.389,-2.862 c 0,0 4.717,1.712 4.565,8.932 z"
         fill="#2d2b2e"
         id="path210" />
      <path
         d="m 119.614,275.813 c 0.992,10.553 2.568,25.169 13.315,24.599 2.626,-0.138 8.767,-4.994 5.708,-9.671 -0.359,-0.55 -3.633,-3.489 -5.701,0.07 -1.429,2.467 0.491,4.467 2.033,4.984 l -3.285,3.815 c 0,0 -5.628,-4.682 -6.582,-10.139 -0.952,-5.457 -0.916,-16.329 -0.916,-16.329 0,0 -0.554,-15.157 -4.521,-20.386 0,0 -2.262,-3.251 -6.452,-2.464 -4.193,0.785 -4.644,3.785 -4.761,4.753 -0.117,0.968 1.178,4.004 3.131,3.367 1.956,-0.638 1.81,-2.874 0.585,-4.648 l 2.389,-2.862 c 0,0 4.717,1.712 4.565,8.932 z"
         fill-opacity="0"
         stroke="#2d2b2e"
         stroke-width="0.582"
         id="path212" />
      <path
         d="m 83.249,275.45 -0.043,2.115 -7.375,-0.156 0.1,-4.701 c 0,0 14.621,-2.798 31.246,0.66 l -0.091,4.268 c 0,0 -6.62,0.832 -6.792,-0.143 l 0.084,-1.682 z"
         fill="#f8c077"
         id="path214" />
      <path
         d="m 101.186,12.436 c -0.563,-0.757 -2.137,-0.625 -2.137,-0.625 L 98.248,6.584 C 96.983,7.796 94.942,6.514 94.942,6.514 L 94.139,6.496 c 0,0 -2.094,1.196 -3.308,-0.069 l -1.018,5.191 c 0,0 -1.568,-0.199 -2.164,0.534 -0.595,0.732 -1.009,3.949 -1.009,3.949 l -3.126,-0.066 c 0,0 -1.421,4.603 -0.152,7.112 0,0 2.246,-0.45 2.301,0.793 0.057,1.242 1.033,0.518 0.733,3.656 0,0 1.286,0.204 2.77,0.533 -0.312,1.22 -1.498,2.64 -1.498,2.64 0,0 -4.318,26.708 -2.984,28.271 1.33,1.565 16.86,1.723 18.084,0.383 1.223,-1.341 -2.645,-28.391 -2.645,-28.391 0,0 -1.02,-1.528 -1.34,-2.657 1.588,-0.291 3.003,-0.455 3.003,-0.455 -0.166,-3.148 0.779,-2.384 0.886,-3.622 0.112,-1.24 2.332,-0.696 2.332,-0.696 1.376,-2.452 0.151,-7.112 0.151,-7.112 l -3.126,-0.066 c 0,0 -0.28,-3.23 -0.843,-3.988"
         fill="#49362d"
         id="path216" />
    </g>
    <path
       d="m 87.753,31.382 -0.569,3.867 c -0.069,0.475 0.261,0.915 0.737,0.984 v 0 c 0.474,0.071 0.914,-0.256 0.984,-0.731 v 0 l 0.568,-3.868 c 0.071,-0.476 -0.259,-0.917 -0.733,-0.987 v 0 c -0.042,-0.006 -0.084,-0.009 -0.125,-0.009 v 0 c -0.426,0 -0.798,0.311 -0.862,0.744 z"
       fill="url(#Gradient_3)"
       id="path220"
       style="fill:url(#Gradient_3)" />
    <path
       d="m 86.543,41.42 -0.568,3.867 c -0.07,0.476 0.259,0.917 0.733,0.987 v 0 c 0.474,0.069 0.916,-0.259 0.986,-0.735 v 0 l 0.568,-3.866 c 0.069,-0.475 -0.258,-0.916 -0.734,-0.986 v 0 c -0.042,-0.007 -0.084,-0.01 -0.126,-0.01 v 0 c -0.425,0 -0.796,0.311 -0.859,0.743 z"
       fill="url(#Gradient_4)"
       id="path222"
       style="fill:url(#Gradient_4)" />
    <path
       d="m 103.2,34.933 c -0.479,0.05 -0.823,0.476 -0.774,0.953 v 0 l 0.403,3.889 c 0.051,0.478 0.477,0.825 0.953,0.776 v 0 c 0.479,-0.052 0.826,-0.477 0.775,-0.954 v 0 l -0.402,-3.89 c -0.048,-0.447 -0.426,-0.779 -0.864,-0.779 v 0 c -0.03,0 -0.06,0.002 -0.091,0.005 z"
       fill="url(#Gradient_5)"
       id="path224"
       style="fill:url(#Gradient_5)" />
    <path
       d="m 103.987,45.015 c -0.477,0.049 -0.826,0.478 -0.775,0.955 v 0 l 0.405,3.887 c 0.048,0.478 0.475,0.824 0.954,0.775 v 0 c 0.478,-0.05 0.824,-0.477 0.774,-0.954 v 0 L 104.94,45.79 c -0.046,-0.447 -0.422,-0.78 -0.861,-0.78 v 0 c -0.031,0 -0.061,0.001 -0.092,0.005 z"
       fill="url(#Gradient_6)"
       id="path226"
       style="fill:url(#Gradient_6)" />
    <path
       d="m 86.011,30.333 -0.046,2.229 c -0.105,0.19 -0.172,0.402 -0.177,0.631 v 0 c -0.006,0.232 0.055,0.445 0.149,0.639 v 0 l -0.052,2.473 c -0.002,0.143 0.111,0.26 0.252,0.262 v 0 c 0.141,0.004 0.547,-0.103 0.551,-0.244 v 0 l 0.041,-1.937 c 0.201,0.124 0.431,0.202 0.686,0.208 v 0 l 4.875,0.102 c 0.754,0.017 1.376,-0.581 1.392,-1.336 v 0 C 93.698,32.607 93.1,31.983 92.346,31.967 v 0 l -4.875,-0.103 c -0.253,-0.005 -0.488,0.063 -0.691,0.178 v 0 l 0.035,-1.692 c 0.002,-0.141 -0.401,-0.265 -0.541,-0.269 v 0 c -0.001,0 -0.002,0 -0.003,0 v 0 c -0.14,0 -0.255,0.111 -0.26,0.252 z"
       fill="url(#Gradient_7)"
       id="path228"
       style="fill:url(#Gradient_7)" />
    <path
       d="m 84.928,40.447 -0.047,2.23 c -0.105,0.188 -0.171,0.4 -0.178,0.63 v 0 c -0.002,0.23 0.055,0.446 0.151,0.639 v 0 l -0.052,2.474 c -0.002,0.141 0.111,0.258 0.252,0.261 v 0 c 0.142,0.002 0.549,-0.103 0.552,-0.245 v 0 L 85.648,44.5 c 0.198,0.124 0.431,0.202 0.684,0.207 v 0 l 4.874,0.103 c 0.752,0.016 1.378,-0.582 1.394,-1.335 v 0 c 0.014,-0.754 -0.581,-1.379 -1.336,-1.395 v 0 l -4.876,-0.102 c -0.251,-0.006 -0.487,0.063 -0.692,0.178 v 0 l 0.035,-1.693 c 0.004,-0.142 -0.399,-0.264 -0.541,-0.267 v 0 c -0.002,0 -0.004,0 -0.006,0 v 0 c -0.14,0 -0.254,0.111 -0.256,0.251 z"
       fill="url(#Gradient_8)"
       id="path230"
       style="fill:url(#Gradient_8)" />
    <path
       d="m 105.175,34.633 -0.035,1.692 c -0.201,-0.124 -0.434,-0.202 -0.686,-0.208 v 0 l -4.875,-0.101 c -0.755,-0.017 -1.378,0.583 -1.394,1.336 v 0 c -0.017,0.753 0.584,1.377 1.337,1.393 v 0 l 4.875,0.103 c 0.252,0.005 0.486,-0.064 0.691,-0.178 v 0 l -0.038,1.936 c -0.007,0.141 0.398,0.264 0.54,0.267 v 0 c 0.141,0.004 0.258,-0.11 0.263,-0.251 v 0 l 0.05,-2.473 c 0.105,-0.189 0.173,-0.4 0.176,-0.63 v 0 c 0.006,-0.232 -0.052,-0.446 -0.15,-0.638 v 0 l 0.05,-2.233 c 0.002,-0.141 -0.111,-0.258 -0.252,-0.261 v 0 c -0.001,0 -0.002,0 -0.003,0 v 0 c -0.146,0 -0.547,0.105 -0.549,0.246 z"
       fill="url(#Gradient_9)"
       id="path232"
       style="fill:url(#Gradient_9)" />
    <path
       d="m 105.831,44.783 -0.037,1.693 c -0.2,-0.124 -0.432,-0.202 -0.685,-0.207 v 0 l -4.874,-0.104 c -0.754,-0.015 -1.377,0.582 -1.393,1.336 v 0 c -0.015,0.754 0.583,1.378 1.335,1.394 v 0 l 4.875,0.103 c 0.253,0.005 0.487,-0.062 0.693,-0.178 v 0 l -0.041,1.937 c -0.002,0.142 0.401,0.263 0.542,0.267 v 0 c 0.141,0.004 0.256,-0.108 0.262,-0.251 v 0 l 0.051,-2.474 c 0.104,-0.189 0.172,-0.401 0.176,-0.63 v 0 c 0.006,-0.231 -0.052,-0.446 -0.148,-0.638 v 0 l 0.045,-2.23 c 0.006,-0.143 -0.108,-0.26 -0.248,-0.262 v 0 c -0.003,0 -0.006,-0.001 -0.009,-0.001 v 0 c -0.151,0 -0.542,0.108 -0.544,0.245 z"
       fill="url(#Gradient_10)"
       id="path234"
       style="fill:url(#Gradient_10)" />
    <path
       d="m 89.341,26.544 c 0,0 -4.317,26.708 -2.984,28.273 v 0 c 1.332,1.564 16.86,1.722 18.085,0.381 v 0 c 1.222,-1.34 -2.645,-28.391 -2.645,-28.391 v 0 c 0,0 -2.197,-3.291 -1.16,-3.781 v 0 l -9.85,-0.21 c 0.657,1.21 -1.446,3.728 -1.446,3.728 z"
       fill="url(#Gradient_11)"
       id="path236"
       style="fill:url(#Gradient_11)" />
    <g
       id="g242">
      <path
         d="m 100.844,55.185 c 0.02,-0.044 0.043,-0.086 0.053,-0.136 0.46,-2.224 -1.987,-27.425 -1.987,-27.425 l -6.697,-0.142 c 0,0 -1.519,24.953 -2.447,27.47 z"
         fill="#2d2b2e"
         id="path238" />
      <path
         d="m 100.844,55.185 c 0.02,-0.044 0.043,-0.086 0.053,-0.136 0.46,-2.224 -1.987,-27.425 -1.987,-27.425 l -6.697,-0.142 c 0,0 -1.519,24.953 -2.447,27.47 z"
         fill-opacity="0"
         stroke="#49362d"
         stroke-width="0.683"
         stroke-linecap="round"
         stroke-linejoin="round"
         id="path240" />
    </g>
    <path
       d="m 91.221,48.177 c -0.015,0.754 0.583,1.377 1.335,1.394 v 0 l 6.421,0.135 c 0.754,0.016 1.38,-0.583 1.395,-1.335 v 0 c 0.016,-0.755 -0.582,-1.38 -1.336,-1.395 v 0 l -6.422,-0.134 c -0.011,-10e-4 -0.02,-10e-4 -0.03,-10e-4 v 0 c -0.739,0 -1.348,0.592 -1.363,1.336 z"
       fill="url(#Gradient_12)"
       id="path244"
       style="fill:url(#Gradient_12)" />
    <path
       d="m 91.332,43.569 c -0.017,0.755 0.58,1.378 1.336,1.394 v 0 l 5.937,0.126 c 0.754,0.016 1.378,-0.584 1.396,-1.337 v 0 c 0.014,-0.754 -0.584,-1.378 -1.339,-1.394 v 0 l -5.937,-0.125 c -0.01,0 -0.02,-10e-4 -0.03,-10e-4 v 0 c -0.74,0 -1.349,0.594 -1.363,1.337 z"
       fill="url(#Gradient_13)"
       id="path246"
       style="fill:url(#Gradient_13)" />
    <path
       d="m 91.672,37.123 c -0.015,0.755 0.583,1.378 1.338,1.395 v 0 l 5.261,0.11 c 0.754,0.017 1.378,-0.583 1.396,-1.337 v 0 c 0.013,-0.754 -0.583,-1.378 -1.339,-1.392 v 0 l -5.261,-0.111 c -0.01,0 -0.02,0 -0.03,0 v 0 c -0.739,0 -1.347,0.593 -1.365,1.335 z"
       fill="url(#Gradient_14)"
       id="path248"
       style="fill:url(#Gradient_14)" />
    <path
       d="m 91.755,33.321 c -0.018,0.752 0.581,1.376 1.336,1.392 v 0 l 4.875,0.104 c 0.753,0.015 1.377,-0.583 1.392,-1.338 v 0 c 0.016,-0.752 -0.582,-1.377 -1.335,-1.394 v 0 l -4.876,-0.101 c -0.01,-0.001 -0.02,-0.001 -0.03,-0.001 v 0 c -0.739,0 -1.348,0.593 -1.362,1.338 z"
       fill="url(#Gradient_15)"
       id="path250"
       style="fill:url(#Gradient_15)" />
    <path
       d="m 91.485,7.392 c 0,0 -1.567,-0.198 -2.162,0.536 v 0 c -0.594,0.73 -1.01,3.948 -1.01,3.948 v 0 l -3.124,-0.065 c 0,0 -1.422,4.603 -0.153,7.112 v 0 c 0,0 2.246,-0.451 2.301,0.792 v 0 c 0.057,1.242 1.032,0.518 0.732,3.657 v 0 c 0,0 7.192,1.142 7.248,2.385 v 0 l 0.8,0.017 c 0.11,-1.239 7.341,-2.078 7.341,-2.078 v 0 c -0.164,-3.149 0.781,-2.385 0.888,-3.623 v 0 c 0.111,-1.24 2.334,-0.697 2.334,-0.697 v 0 c 1.373,-2.451 0.149,-7.11 0.149,-7.11 v 0 L 103.702,12.2 c 0,0 -0.28,-3.231 -0.841,-3.99 v 0 c -0.564,-0.756 -2.138,-0.624 -2.138,-0.624 v 0 L 99.922,2.358 c -1.266,1.214 -3.308,-0.07 -3.308,-0.07 v 0 L 95.812,2.271 c 0,0 -2.092,1.196 -3.307,-0.069 v 0 z"
       fill="url(#Gradient_16)"
       id="path252"
       style="fill:url(#Gradient_16)" />
    <g
       id="g262">
      <path
         d="M 82.243,322.714 82.959,273.091 92.075,52.041 94.54,40.756"
         fill-opacity="0"
         stroke="#b2b3b5"
         stroke-width="1.165"
         stroke-linecap="round"
         stroke-linejoin="round"
         id="path254" />
      <path
         d="M 87.51,323.753 89.016,273.478 94.371,52.09 95.307,31.941"
         fill-opacity="0"
         stroke="#b2b3b5"
         stroke-width="1.165"
         stroke-linecap="round"
         stroke-linejoin="round"
         id="path256" />
      <path
         d="m 93.093,323.622 2.62,-50.263 1.111,-221.218 0.192,-16.88"
         fill-opacity="0"
         stroke="#b2b3b5"
         stroke-width="1.165"
         stroke-linecap="round"
         stroke-linejoin="round"
         id="path258" />
      <path
         d="M 98.745,323.061 101.574,273.656 99.147,52.294 97.986,44.722"
         fill-opacity="0"
         stroke="#b2b3b5"
         stroke-width="1.165"
         stroke-linecap="round"
         stroke-linejoin="round"
         id="path260" />
    </g>
  </g>
</svg>
