<?xml version="1.0" encoding="UTF-8" standalone="no"?>
<svg
   xmlns:dc="http://purl.org/dc/elements/1.1/"
   xmlns:cc="http://creativecommons.org/ns#"
   xmlns:rdf="http://www.w3.org/1999/02/22-rdf-syntax-ns#"
   xmlns:svg="http://www.w3.org/2000/svg"
   xmlns="http://www.w3.org/2000/svg"
   xmlns:sodipodi="http://sodipodi.sourceforge.net/DTD/sodipodi-0.dtd"
   xmlns:inkscape="http://www.inkscape.org/namespaces/inkscape"
   viewBox="0 0 472.44096 332.59843"
   height="88mm"
   width="125mm"
   xml:space="preserve"
   id="svg2"
   version="1.1"
   sodipodi:docname="beach.svg"
   inkscape:version="1.0.2-2 (e86c870879, 2021-01-15)"><sodipodi:namedview
     pagecolor="#ffffff"
     bordercolor="#666666"
     borderopacity="1"
     objecttolerance="10"
     gridtolerance="10"
     guidetolerance="10"
     inkscape:pageopacity="0"
     inkscape:pageshadow="2"
     inkscape:window-width="1920"
     inkscape:window-height="1017"
     id="namedview31"
     showgrid="false"
     fit-margin-top="0"
     fit-margin-left="0"
     fit-margin-right="0"
     fit-margin-bottom="0"
     inkscape:zoom="2.1203125"
     inkscape:cx="241.53667"
     inkscape:cy="164.59244"
     inkscape:window-x="-8"
     inkscape:window-y="-8"
     inkscape:window-maximized="1"
     inkscape:current-layer="svg2"
     borderlayer="true"
     inkscape:document-rotation="0"
     units="mm" /><metadata
     id="metadata8"><rdf:RDF><cc:Work
         rdf:about=""><dc:format>image/svg+xml</dc:format><dc:type
           rdf:resource="http://purl.org/dc/dcmitype/StillImage" /><dc:title /></cc:Work></rdf:RDF></metadata><defs
     id="defs6"><clipPath
       id="clipPath18"
       clipPathUnits="userSpaceOnUse"><path
         id="path16"
         d="M 0,660 H 660 V 0 H 0 Z"
         inkscape:connector-curvature="0" /></clipPath></defs><path
     inkscape:connector-curvature="0"
     d="M 1.5599243,332.28623 H 472.18758 V 2.4599539 H 1.5599243 Z"
     style="fill:#93dcf7;fill-opacity:1;fill-rule:evenodd;stroke:none;stroke-width:0.429383;stroke-opacity:1"
     id="path20"
     clip-path="none"
     sodipodi:nodetypes="ccccc" /><path
     inkscape:connector-curvature="0"
     d="M 2.039385,99.491136 0.80486238,257.76597 314.79171,282.84265 471.23372,159.40116 457.95612,58.882808 C 386.94711,34.773944 362.2277,154.5039 331.62607,114.87279 L 314.79171,94.352412 c -10.49276,-9.771775 -23.70673,-9.771775 -34.19949,0 -7.64382,7.118248 -16.87638,9.152528 -25.53647,5.62667 -8.66039,-3.525355 -15.98686,-12.301757 -20.2639,-24.273366 -3.86125,-10.80767 -11.30558,-17.537766 -19.39908,-17.537766 -8.09351,0 -15.53816,6.730096 -19.39943,17.537766 -3.25485,9.111522 -8.83125,15.790597 -15.42129,18.473126 -6.59102,2.684044 -13.61757,1.135448 -19.43497,-4.282148 -10.29127,-9.584202 -23.25176,-9.584202 -33.54305,0 -4.14305,3.858481 -9.1473,4.961417 -13.84111,3.050175 C 109.05911,91.036145 105.08824,86.27879 102.76997,79.7898 70.131856,-17.249713 22.299681,98.576225 2.039385,99.491136 Z"
     style="fill:#cfeff6;fill-opacity:1;fill-rule:evenodd;stroke:none;stroke-width:0.405789;stroke-opacity:1"
     id="path22"
     clip-path="none"
     sodipodi:nodetypes="ccccccccccsccccccc" /><path
     inkscape:connector-curvature="0"
     d="M 339.6334,135.47827 C 431.11689,146.10363 444.80912,62.059162 472.04214,45.812044 L 472.72774,163.4182 339.6334,254.84585 24.485523,265.78907 0.18992616,156.37795 C 0.63611375,123.53106 31.990006,92.162723 63.87263,101.68368 c 19.265084,6.73379 32.428937,27.3162 57.79527,20.20136 6.25074,-2.52247 12.78081,-3.36179 19.29102,-2.42094 10.8451,1.56711 21.32691,6.76762 30.6908,15.22739 10.82691,9.78027 24.78249,5.30755 32.08571,-10.28548 5.12687,-10.94572 13.58537,-17.14111 22.41541,-16.41784 8.82971,0.72278 16.80164,8.26469 21.12362,19.98422 4.01323,10.8817 11.41463,17.88441 19.61365,18.55566 8.19802,0.67124 16.05227,-5.08146 20.81258,-15.24438 6.24148,-13.32615 18.16846,-17.14961 27.42194,-8.78991 0.82738,0.7468 1.66299,1.46408 2.5069,2.15035 6.93203,5.64116 14.38927,9.26206 22.00387,10.83416"
     style="fill:#51b5e2;fill-opacity:1;fill-rule:evenodd;stroke:none;stroke-width:0.406619;stroke-opacity:1"
     id="path24"
     clip-path="none"
     sodipodi:nodetypes="cccccccccccccccccc" /><path
     inkscape:connector-curvature="0"
     d="m 336.91737,152.27576 c 68.6402,-3.82176 64.17728,-28.91413 135.6864,-40.81337 L 471.15491,238.01665 336.91737,232.62176 115.90748,239.98661 1.2167634,172.17544 c 7.4473881,-16.10865 18.6301306,-36.54902 36.5810796,-28.4379 50.384153,34.36917 55.824351,-5.9664 97.670107,-2.24193 10.99658,1.0549 21.62478,4.55525 31.11946,10.24945 10.97813,6.58455 25.12864,3.57238 32.53386,-6.92268 5.19848,-7.36783 13.77512,-11.53744 22.72851,-11.05176 8.95303,0.48818 17.03631,5.56314 21.41865,13.45169 4.06928,7.32533 11.57406,12.03816 19.8876,12.49032 8.31253,0.45167 16.27647,-3.41982 21.10327,-10.26096 6.32865,-8.96995 18.42222,-11.54296 27.80495,-5.9168 0.83894,0.5032 1.68623,0.98641 2.54191,1.44758 7.02886,3.79746 14.59027,6.23493 22.31121,7.29331"
     style="fill:#3e94c4;fill-opacity:1;fill-rule:evenodd;stroke:none;stroke-width:0.409449;stroke-opacity:1"
     id="path26"
     clip-path="none"
     sodipodi:nodetypes="ccccccccccccccccc" /><path
     inkscape:connector-curvature="0"
     d="M 1.5599243,332.28623 H 472.18758 V 167.3731 H 1.5599243 Z"
     style="fill:#6dd0f6;fill-opacity:1;fill-rule:evenodd;stroke:none;stroke-width:0.418718;stroke-opacity:1"
     id="path28"
     clip-path="none" /><path
     inkscape:connector-curvature="0"
     d="m 152.65322,251.39552 c 7.5476,0 13.66675,2.81759 13.66675,6.29291 0,3.47586 -6.11915,6.29344 -13.66675,6.29344 -7.54792,0 -13.66675,-2.81758 -13.66675,-6.29344 0,-3.47532 6.11883,-6.29291 13.66675,-6.29291 m 113.89006,-61.60077 c 11.48266,0 20.7903,2.87761 20.7903,6.42747 0,3.54988 -9.30764,6.42699 -20.7903,6.42699 -11.4814,0 -20.78902,-2.87711 -20.78902,-6.42699 0,-3.54986 9.30762,-6.42747 20.78902,-6.42747 m -73.47078,33.91257 c -6.32602,0 -11.45464,2.43045 -11.45464,5.4281 0,2.99717 5.12862,5.4281 11.45464,5.4281 6.32602,0 11.45464,-2.43093 11.45464,-5.4281 0,-2.99765 -5.12862,-5.4281 -11.45464,-5.4281 M 0.72935004,234.56352 V 178.08021 H 160.4818 c 1.59794,0.006 3.19653,0.0133 4.79479,0.0201 10.61298,0.047 20.3656,1.88622 25.67273,4.84187 5.30681,2.95514 5.38544,6.59106 0.20655,9.56967 -3.5571,2.04581 -3.50297,4.54278 0.14179,6.57356 3.64474,2.02978 10.34295,3.29225 17.63211,3.32527 9.75552,0.0437 18.40322,2.0288 21.69803,4.98194 3.29481,2.95313 0.54425,6.2519 -6.90121,8.28019 -7.44481,2.02826 -18.02137,2.35741 -26.5376,0.82632 -7.76607,-1.39605 -17.47036,-0.96286 -23.76127,1.05991 -6.29089,2.02278 -7.63717,5.14349 -3.29608,7.64044 3.34056,1.92125 3.28965,4.26615 -0.13373,6.17238 -3.42306,1.90573 -9.71363,3.0927 -16.55942,3.1237 -7.40131,0.033 -145.3068681,0.0551 -152.70913996,0.068"
     style="fill:#5bc4f0;fill-opacity:1;fill-rule:evenodd;stroke:none;stroke-width:0.401468;stroke-opacity:1"
     id="path30"
     clip-path="none" /><path
     style="fill:#8edaf6;fill-opacity:1;fill-rule:evenodd;stroke:none;stroke-width:0.414484;stroke-opacity:1"
     clip-path="none"
     d="m 325.14395,170.50576 c -20.3963,0 -36.93063,13.61852 -36.93063,30.4175 0,17.34568 -17.07179,31.40519 -38.13059,31.40519 -24.06824,0 -46.30869,10.57648 -58.34298,27.74459 -16.64874,23.75215 -47.41831,38.38347 -80.71681,38.38347 -2.49012,0 -108.0068904,0.0992 -110.46437619,0.29527 v 33.53443 H 329.90549 330.07757 472.18828 V 170.50576 h -142.11071 -0.17208 z"
     id="path32"
     inkscape:connector-curvature="0" /><path
     style="fill:#ffffff;fill-opacity:1;fill-rule:evenodd;stroke:none;stroke-width:0.419328;stroke-opacity:1"
     clip-path="none"
     d="m 340.46675,174.42792 10.01885,0.1019 c -21.66393,2.30455 -41.01607,20.0265 -39.41777,34.52433 1.67826,15.22034 -12.32772,31.28902 -31.28264,35.89079 -21.66391,5.25853 -40.65877,19.39835 -49.83005,37.09318 -12.11084,23.36548 -36.60434,42.25055 -64.87222,50.24814 h 175.38383 0.36975 131.33357 V 174.42792 H 356.12842 Z"
     id="path34"
     inkscape:connector-curvature="0"
     sodipodi:nodetypes="cccccccccccc" /><path
     style="fill:#fdf7b7;fill-opacity:1;fill-rule:evenodd;stroke:none;stroke-width:0.412618;stroke-opacity:1"
     clip-path="none"
     d="m 342.0647,177.25616 v 7.4e-4 h -0.10173 l 10.21135,0.0653 c -20.28315,0.84153 -35.76258,28.49876 -34.34714,45.37712 1.62498,19.36996 -11.93702,41.61957 -30.28954,49.69569 -20.97617,9.23105 -39.36851,29.57105 -48.24866,53.35922 -0.82133,2.19985 -1.70374,4.37823 -2.63909,6.53206 h 105.31308 0.10273 130.68539 V 177.2569 H 372.1892 Z"
     id="path36"
     inkscape:connector-curvature="0"
     sodipodi:nodetypes="cccccccccccccc" /><path
     inkscape:connector-curvature="0"
     d="m 308.57194,78.152669 c 11.69781,0 21.23873,-8.791406 21.23873,-19.571039 0,-10.779288 -9.54092,-19.570692 -21.23873,-19.570692 -11.69819,0 -21.23836,8.791404 -21.23836,19.570692 0,10.779633 9.54017,19.571039 21.23836,19.571039"
     style="fill:#ffffff;fill-opacity:1;fill-rule:evenodd;stroke:none;stroke-width:0.361088;stroke-opacity:1"
     id="path40"
     clip-path="none" /><path
     inkscape:connector-curvature="0"
     d="M 236.64905,37.930641 H 131.23216 l 2.93969,-1.699155 c 3.20074,-1.850713 6.23297,-4.179113 9.03875,-6.939178 7.07405,-6.960686 16.73723,-6.960686 23.81091,0 6.11372,6.014822 14.46484,6.014822 20.57856,0 10.3286,-10.163422 24.43798,-10.163422 34.76733,0 4.52031,4.448216 8.81982,6.991197 14.28165,8.638333"
     style="display:inline;fill:#ffffff;fill-opacity:1;fill-rule:evenodd;stroke:none;stroke-width:0.433764;stroke-opacity:1"
     id="path44"
     clip-path="none" /><path
     inkscape:connector-curvature="0"
     d="M 250.88707,81.128817 H 169.898 l 2.25883,-1.305508 c 2.45896,-1.422551 4.78852,-3.21074 6.9443,-5.331562 5.43437,-5.34756 12.85827,-5.34756 18.29303,0 4.6971,4.621789 11.11288,4.621789 15.81036,0 7.93471,-7.80751 18.77527,-7.80751 26.70998,0 3.47383,3.417833 6.7769,5.371082 10.97257,6.63707"
     style="display:inline;fill:#ffffff;fill-opacity:1;fill-rule:evenodd;stroke:none;stroke-width:0.433764;stroke-opacity:1"
     id="path48"
     clip-path="none" /><g
     id="g1013"
     transform="matrix(0.46170725,0,0,-0.43251858,-26.529164,297.78131)"
     style="display:inline;stroke:none;stroke-width:0.814715"><path
       inkscape:connector-curvature="0"
       id="path42"
       transform="matrix(0.75000002,0,0,-0.75000002,0,660.00002)"
       d="m 1335.5234,775.2832 -23.3593,38.98633 a 157.95455,76.136366 0 0 0 -54.209,-4.72461 157.95455,76.136366 0 0 0 -157.9551,76.13672 157.95455,76.136366 0 0 0 157.9551,76.13672 157.95455,76.136366 0 0 0 157.9531,-76.13672 157.95455,76.136366 0 0 0 -87.2207,-67.97852 l 15.5098,-38.9414 z"
       clip-path="none"
       style="opacity:0.2;fill:#000000;fill-opacity:1;fill-rule:evenodd;stroke:none;stroke-width:1.08629;stroke-opacity:1" /><g
       id="g1005"
       style="stroke:none;stroke-width:0.814715"><path
         inkscape:connector-curvature="0"
         d="M 898.482,149.823 1002.83,74.246 c 3.941,-2.852 8.928,4.525 5.004,7.312 l -104.109,73.937 z"
         style="fill:#463d3b;fill-opacity:1;fill-rule:evenodd;stroke:none;stroke-width:0.814715;stroke-opacity:1"
         id="path46"
         clip-path="none" /><g
         id="g999"
         style="stroke:none;stroke-width:0.814715"><path
           inkscape:connector-curvature="0"
           clip-path="none"
           id="path50"
           style="fill:#ffffff;fill-opacity:1;fill-rule:evenodd;stroke:none;stroke-width:0.814715;stroke-opacity:1"
           d="m 907.776,250.601 c -56.873,-15.117 -102.226,-74.009 -101.3,-131.538 0.925,-57.53 47.779,-91.913 104.652,-76.795 56.871,15.116 102.226,74.009 101.301,131.539 -0.926,57.529 -47.782,91.912 -104.653,76.794" /><path
           inkscape:connector-curvature="0"
           clip-path="none"
           id="path52"
           style="fill:#f68413;fill-opacity:1;fill-rule:evenodd;stroke:none;stroke-width:0.814715;stroke-opacity:1"
           d="m 851.612,218.567 c -11.961,-11.243 -22.114,-24.518 -29.743,-38.911 17.851,-7.124 38.532,-10.573 60.983,-11.723 42.904,0.767 85.738,-1.737 128.4,-12.027 0.863,5.948 1.272,11.931 1.177,17.901 -0.152,9.411 -1.54,18.198 -3.992,26.256 -39.765,-4.37 -81.998,-16.197 -125.585,-32.13 -9.411,18.006 -19.767,34.947 -31.24,50.634 m 56.164,32.034 c -9.301,-2.471 -18.291,-6.12 -26.822,-10.736 -2.66,-23.816 -1.306,-47.83 1.898,-71.932 -25.322,-30.106 -47.817,-61.253 -63.302,-94.974 7.313,-11.434 17.388,-20.384 29.412,-26.265 5.686,42.394 17.558,82.606 33.89,121.239 11.608,-44.248 27.8,-83.145 46.407,-119.224 -5.877,-2.629 -11.936,-4.795 -18.131,-6.441 -8.976,-2.387 -17.698,-3.537 -26.033,-3.56 -5.145,41.054 -5.924,84.113 -2.243,129.225 34.183,25.655 70.507,45.9 108.217,62.65 -8.78,9.378 -19.889,16.243 -32.596,20.074 -25.46,-23.759 -50.668,-51.313 -75.621,-82.724 -26.331,-17.404 -51.581,-37.807 -75.21,-62.705 -0.69,4.442 -1.09,9.057 -1.166,13.835 -0.152,9.402 0.939,18.839 3.109,28.116 24.373,9.999 48.809,16.123 73.267,20.754 40.932,-11.818 78.827,-30.526 114.98,-53.181 -7.98,-15.508 -18.888,-29.777 -31.848,-41.668 -29.497,29.504 -57.62,60.634 -83.132,94.849 9.663,28.737 22.972,57.229 39.544,85.502 -4.783,-0.581 -9.663,-1.517 -14.62,-2.834" /></g></g></g></svg>
