<?xml version="1.0" encoding="UTF-8" standalone="no"?>
<svg
   xmlns:dc="http://purl.org/dc/elements/1.1/"
   xmlns:cc="http://creativecommons.org/ns#"
   xmlns:rdf="http://www.w3.org/1999/02/22-rdf-syntax-ns#"
   xmlns:svg="http://www.w3.org/2000/svg"
   xmlns="http://www.w3.org/2000/svg"
   xmlns:sodipodi="http://sodipodi.sourceforge.net/DTD/sodipodi-0.dtd"
   xmlns:inkscape="http://www.inkscape.org/namespaces/inkscape"
   id="svg2"
   sodipodi:version="0.32"
   inkscape:version="1.0.2-2 (e86c870879, 2021-01-15)"
   width="83.083038mm"
   height="123.39802mm"
   version="1.0"
   sodipodi:docname="beanie.svg"
   inkscape:output_extension="org.inkscape.output.svg.inkscape">
  <metadata
     id="metadata7">
    <rdf:RDF>
      <cc:Work
         rdf:about="">
        <dc:format>image/svg+xml</dc:format>
        <dc:type
           rdf:resource="http://purl.org/dc/dcmitype/StillImage" />
        <dc:title />
      </cc:Work>
    </rdf:RDF>
  </metadata>
  <defs
     id="defs5" />
  <sodipodi:namedview
     inkscape:window-height="1017"
     inkscape:window-width="1920"
     inkscape:pageshadow="2"
     inkscape:pageopacity="0.0"
     guidetolerance="10.0"
     gridtolerance="10.0"
     objecttolerance="10.0"
     borderopacity="1.0"
     bordercolor="#666666"
     pagecolor="#ffffff"
     id="base"
     inkscape:zoom="0.9109007"
     inkscape:cx="288.92149"
     inkscape:cy="193.99081"
     inkscape:window-x="-8"
     inkscape:window-y="-8"
     inkscape:current-layer="layer3"
     width="268px"
     height="438px"
     inkscape:document-rotation="0"
     showgrid="false"
     units="mm"
     inkscape:window-maximized="1" />
  <g
     inkscape:groupmode="layer"
     id="layer3"
     inkscape:label="head"
     transform="translate(-9.3752641,-4.0588312)">
    <path
       style="fill:none;fill-opacity:0.75;fill-rule:evenodd;stroke:#000000;stroke-width:4.39181;stroke-linecap:round;stroke-linejoin:miter;stroke-miterlimit:4;stroke-dasharray:none;stroke-opacity:1"
       d="m 36.142233,341.77907 c 0,0 9.667915,42.1245 20.71697,57.31694 19.347556,26.6029 57.528107,40.30818 62.150877,44.88675 15.07333,14.9292 16.57359,20.02639 34.52829,23.47922 17.9547,3.45282 30.38489,-5.17924 37.29053,-9.66791 32.61086,-21.19705 70.50421,-47.1613 89.77351,-80.10559 10.70376,-18.29998 10.08317,-24.21493 11.04905,-34.52827 1.38114,-14.74725 2.76226,-62.15089 2.76226,-62.15089"
       id="path2178"
       sodipodi:nodetypes="cssssssc" />
    <g
       inkscape:groupmode="layer"
       id="layer4"
       inkscape:label="hair" />
  </g>
  <g
     inkscape:groupmode="layer"
     id="layer2"
     inkscape:label="hat"
     style="display:inline"
     transform="translate(-9.3752641,-4.0588312)">
    <path
       style="fill:#2184bd;fill-opacity:1;fill-rule:evenodd;stroke:#000000;stroke-width:4.02263;stroke-linecap:round;stroke-linejoin:round;stroke-miterlimit:4;stroke-dasharray:none;stroke-opacity:1"
       d="m 34.163811,140.0754 c 0,0 10.856235,-22.8165 19.136421,-35.32877 8.280186,-12.512273 13.984309,-14.720321 13.984309,-14.720321 0,0 9.568204,-49.129076 20.608447,-58.145273 23.104032,-18.868291 52.462982,-21.531335 67.713492,-22.0804826 9.01785,-0.3247184 10.12023,3.4960766 22.08049,2.9440636 11.96025,-0.552011 22.63249,-6.8081494 32.38471,-6.6241452 23.00303,0.4340199 42.64435,-2.1920346 58.88129,7.3601612 17.95697,10.564091 16.92837,9.384205 26.49657,23.552516 9.56821,14.168309 11.86645,32.724477 10.30423,40.480886 -3.68009,18.271354 -16.19236,38.272825 -16.19236,38.272825 0,0 11.59226,30.17667 16.19236,47.10504 4.6001,16.92838 1.16716,32.05817 1.16716,32.05817 l -7.03426,19.34628 z"
       id="path3146"
       sodipodi:nodetypes="cscssssssscsccc" />
    <path
       style="display:inline;fill:none;fill-opacity:0.75;fill-rule:evenodd;stroke:#000000;stroke-width:4.02263;stroke-linecap:round;stroke-linejoin:round;stroke-miterlimit:4;stroke-dasharray:none;stroke-opacity:1"
       d="m 99.73103,67.7796 c 0,0 13.61629,-8.096177 29.44064,-11.040242 15.82434,-2.944064 33.85674,-0.736015 33.85674,-0.736015"
       id="path3148"
       sodipodi:nodetypes="csc" />
    <path
       style="display:inline;fill:none;fill-opacity:0.75;fill-rule:evenodd;stroke:#000000;stroke-width:4.02263;stroke-linecap:round;stroke-linejoin:round;stroke-miterlimit:4;stroke-dasharray:none;stroke-opacity:1"
       d="m 217.49361,44.963101 c 0,0 16.92836,-2.760061 33.12071,-1.472032 16.19236,1.288029 31.6487,6.624145 31.6487,6.624145"
       id="path3150"
       sodipodi:nodetypes="csc" />
    <path
       style="display:inline;fill:none;fill-opacity:0.75;fill-rule:evenodd;stroke:#000000;stroke-width:4.02263;stroke-linecap:round;stroke-linejoin:round;stroke-miterlimit:4;stroke-dasharray:none;stroke-opacity:1"
       d="m 226.32579,70.723665 c 0,0 25.90037,8.764601 42.68895,19.872435 15.32547,10.1398 23.38781,33.46489 24.93253,36.7088"
       id="path3152"
       sodipodi:nodetypes="csc" />
    <path
       style="fill:#2184bd;fill-opacity:1;fill-rule:evenodd;stroke:#000000;stroke-width:4.02263;stroke-linecap:round;stroke-linejoin:round;stroke-miterlimit:4;stroke-dasharray:none;stroke-opacity:1"
       d="m 35.026114,351.00716 c 0,0 -19.846865,-37.92314 -20.608448,-50.04909 -0.603361,-9.60672 2.944064,-9.93622 2.208048,-33.12073 -0.736015,-23.18451 -5.959859,-43.99676 -5.152113,-59.61731 1.11455,-21.55367 -1.151974,-30.77959 12.51227,-56.67323 5.697298,-10.79634 29.49684,-34.91706 44.896993,-41.21691 C 96.29316,99.116968 113.78029,89.890737 157.2048,91.193473 c 18.4004,0.552012 54.78355,6.998787 85.37787,24.288527 35.73565,20.19529 73.60162,85.37787 73.60162,85.37787 0,0 4.04807,12.88029 5.1521,45.633 1.24138,36.8277 -25.76056,98.62616 -25.76056,98.62616 0,0 -4.40293,-47.85639 -27.96862,-84.64185 -7.54417,-11.77626 -37.97754,-46.06187 -78.75372,-53.72918 -21.52846,-4.04809 -42.50492,-7.36016 -78.01771,-0.73602 -35.512786,6.62414 -53.442661,14.43585 -63.297383,27.2326 -7.030906,9.12993 -8.473285,35.13371 -9.568217,55.93722 -0.552011,10.48824 5.152112,11.77627 4.416092,27.2326 -0.73602,15.45634 -7.360158,34.59276 -7.360158,34.59276 z"
       id="path2173"
       sodipodi:nodetypes="cssssssscscssssssc" />
  </g>
</svg>
