<?xml version="1.0" encoding="UTF-8" standalone="no"?>
<svg
   xmlns:dc="http://purl.org/dc/elements/1.1/"
   xmlns:cc="http://creativecommons.org/ns#"
   xmlns:rdf="http://www.w3.org/1999/02/22-rdf-syntax-ns#"
   xmlns:svg="http://www.w3.org/2000/svg"
   xmlns="http://www.w3.org/2000/svg"
   xmlns:sodipodi="http://sodipodi.sourceforge.net/DTD/sodipodi-0.dtd"
   xmlns:inkscape="http://www.inkscape.org/namespaces/inkscape"
   id="svg4369"
   sodipodi:docname="bear.svg"
   viewBox="0 0 381.84306 310.39236"
   version="1.1"
   inkscape:version="1.0.2-2 (e86c870879, 2021-01-15)"
   width="101.02931mm"
   height="82.124649mm">
  <defs
     id="defs32" />
  <sodipodi:namedview
     id="base"
     bordercolor="#666666"
     inkscape:pageshadow="2"
     inkscape:window-y="0"
     fit-margin-left="0"
     pagecolor="#ffffff"
     fit-margin-top="0"
     inkscape:window-maximized="0"
     inkscape:zoom="0.98045977"
     inkscape:window-x="0"
     inkscape:window-height="1041"
     showgrid="false"
     borderopacity="1.0"
     inkscape:current-layer="layer1"
     inkscape:cx="290.26857"
     inkscape:cy="58.548971"
     fit-margin-right="0"
     fit-margin-bottom="0"
     inkscape:window-width="1291"
     inkscape:pageopacity="0.0"
     inkscape:document-units="px"
     inkscape:document-rotation="0"
     units="mm" />
  <g
     id="layer1"
     inkscape:label="Layer 1"
     inkscape:groupmode="layer"
     transform="translate(-84.731716,-62.250354)">
    <path
       id="path4330"
       style="fill:#7a4035;stroke-width:1.14268"
       inkscape:connector-curvature="0"
       d="m 87.565461,132.62658 0.713811,10.46913 5.591484,9.39845 7.019154,0.3569 4.75869,-1.90348 13.32481,1.42767 -0.71381,4.63974 -6.54322,1.3086 -10.70716,-0.95174 -1.665568,5.35358 18.320618,4.7587 18.32061,-7.13811 10.11227,4.16394 11.18297,9.75541 7.1381,4.99661 1.18965,10.11227 4.87765,7.49496 6.9002,2.26046 6.42427,13.80016 6.66217,1.54662 2.97418,16.53689 -7.85183,27.36265 0.47587,41.75816 -12.13528,13.56249 -9.16053,8.4467 1.18964,10.94506 8.32775,4.5208 13.44365,3.56905 25.81547,-2.37941 20.10548,-9.63635 4.40184,-16.65572 9.39844,-14.51435 4.9966,14.39551 4.63975,9.16053 -7.25706,10.82611 -9.87437,8.4467 -3.33114,10.82611 10.23122,10.58809 17.36877,3.21208 25.3401,-4.28289 18.08294,-16.65572 5.47253,-25.93545 -1.3086,-12.25412 2.02243,-1.66557 -6.66217,-17.48874 v -14.63318 l 6.90019,-3.68801 15.94156,5.94835 2.97417,-3.56906 h 4.9966 l 4.16393,-4.63974 25.93545,-2.26045 -2.02243,9.16053 -12.61064,23.31756 -2.02243,14.27667 4.52079,7.85182 18.20178,9.39844 v 13.56249 l 12.01529,8.68461 17.24992,4.99672 23.79406,-6.06741 11.65878,-8.80368 13.80017,-6.9002 9.5174,-21.77151 1.30859,-10.58809 -1.78452,-20.58198 -10.46914,-22.8422 9.5174,-33.07264 -1.18965,-19.51129 4.04487,-4.04486 -6.18637,-20.34316 4.7587,0.71381 -7.37601,-12.72948 -14.9897,-19.74896 -15.10853,-16.06039 -10.11228,-7.85194 -3.80696,-2.02243 -0.71381,-5.71044 -15.22737,-7.61391 -7.25706,-1.66558 -4.9966,-6.78112 -29.62288,-1.18965 -9.27949,-5.829387 -20.58198,5.948347 -22.00919,2.61731 -18.4406,-4.163933 -2.14138,-3.331146 -28.07683,-2.498359 -9.99332,5.115672 -2.3793,-1.784526 -17.24992,6.781132 -13.56249,-5.71044 4.99661,-9.041582 -13.44365,-17.368761 -18.79711,-2.379406 -9.5174,7.494963 -19.39131,-7.97089 -15.34735,-4.044864 -11.65878,7.732869 -4.7587,13.562488 -0.11896,7.732984 -9.39844,13.562479 -9.75542,13.20597 7.37601,4.5208 -2.02243,6.30531 z" />
    <path
       id="path4243"
       style="fill-rule:evenodd;stroke-width:1.14268"
       inkscape:connector-curvature="0"
       clip-rule="evenodd"
       d="m 242.29026,96.902929 c -0.99402,-0.850097 2.30296,-3.225561 0.64257,-5.140467 -7.63803,0.07268 -9.4205,6.000792 -15.42164,7.710588 -0.22617,-0.33541 3.41262,-6.296977 -0.64256,-7.068058 -4.08474,1.483658 -4.99009,6.14797 -11.56622,5.140467 3.46598,-24.504807 -24.58366,-39.051144 -42.40835,-25.702337 -0.80383,-1.338423 -1.57358,-2.709641 -2.57023,-3.855294 -2.14676,0.583442 -3.14272,-0.235815 -5.14047,1.28506 -1.45406,-0.473573 -1.40595,-2.449452 -3.21276,-2.570234 -2.35438,-0.212687 -3.57065,0.713239 -5.14047,1.28506 -3.55591,-0.728014 -7.04623,-1.520909 -8.35323,-4.497823 -17.23849,-4.861539 -27.42321,5.157836 -30.19993,19.919226 0.15807,1.983581 0.65155,3.632356 1.28506,5.140467 -1.64626,6.77256 -8.92503,8.589652 -10.92346,14.778306 -0.33799,1.04735 0.51983,2.76425 0,3.85528 -4.88988,10.27123 -21.072194,10.64774 -23.774636,23.13245 -0.733796,10.23523 1.581928,16.31864 7.068057,23.77463 2.069053,-0.14137 2.718668,1.13669 5.140467,0.64256 0.640622,3.21082 -1.995122,3.14534 -1.927704,5.78299 3.254586,6.90877 8.094866,5.10059 15.421626,7.06806 2.17373,0.58408 4.38482,2.91395 6.42553,3.21276 8.85121,1.29603 11.75705,-7.26025 18.63371,-8.35323 11.69877,-1.85891 13.89729,13.3271 25.06015,14.7783 1.85446,6.20579 -0.78906,12.13643 -2.57024,16.70601 1.13282,0.58022 1.98998,1.43738 2.57024,2.57023 2.95703,-0.25574 3.15106,-3.27446 5.14047,-4.49782 2.71741,3.27961 3.59636,8.39814 7.06805,10.92347 3.08364,-3.63362 -2.34021,-9.53614 -3.21276,-14.77831 -1.35648,-0.57123 -1.8988,-1.95592 -3.85529,-1.9277 v -5.783 c -1.81013,-5.42316 -5.47391,-5.92823 -10.28083,-8.99576 -10.41702,-6.64721 -12.35124,-18.94909 -30.84211,-12.8506 -3.23779,1.06793 -6.00079,5.18858 -10.28082,5.783 -4.122,0.57251 -9.61647,-1.92633 -14.13612,-2.57023 2.12562,-6.2315 8.95977,0 13.49393,-0.64255 6.51809,-0.924 6.83484,-7.72282 11.56622,-10.92336 4.09823,-1.13796 10.72807,-2.85041 8.35324,-8.35323 -4.97661,-0.76592 -7.62718,5.24777 -12.20841,7.06806 -7.17159,2.84973 -17.52531,2.24183 -21.846934,-6.42553 1.735504,-4.65722 12.966004,-8.03385 14.136114,-13.49392 1.35259,-6.31058 -3.69143,-8.28513 -8.99576,-10.92347 5.3017,-4.89559 17.20307,-10.08039 13.49393,-17.99152 8.6469,-13.089413 15.51647,-24.505945 32.12763,-28.914411 2.41151,-0.483846 1.40081,2.454594 3.21276,2.570234 2.46351,-0.200472 3.45181,-1.01845 6.42553,-1.927704 2.47573,2.236113 5.89155,3.532714 8.35323,5.782997 8.92126,0.291715 16.05011,-7.972832 25.06015,-7.068057 9.26692,0.930417 14.90171,9.646633 17.99152,19.277039 -2.62165,7.444571 -8.80744,11.326262 -16.06382,14.136112 0.34955,4.68362 4.64112,2.06322 6.42553,3.21276 0.44785,3.67544 2.28239,9.07803 7.71059,9.63829 -0.87067,-4.17399 -3.0136,-11.20742 3.21276,-13.49392 9.52197,2.13772 16.55517,12.3021 26.98671,5.78299 -6.69028,0.43758 -10.57129,0.33926 -14.7783,-2.57023 5.49253,-2.64668 11.39505,-4.88279 15.42163,-8.995758 0.91372,1.228611 1.98416,2.299078 3.21277,3.212768 4.31214,-1.25684 8.22913,-2.908815 11.56622,-5.140472 0.93749,1.418754 2.08185,2.629996 3.21276,3.855292 7.34436,-2.197489 17.47161,-3.169683 24.41683,-3.855292 -1.49589,-6.882371 -14.63433,0.599497 -17.99153,-6.425527 -8.97073,1.095557 -17.3699,2.763004 -22.48911,7.710587 z M 148.47267,68.630701 c -8.2369,1.164964 -12.67233,5.774656 -18.6337,7.710587 -1.74134,3.827755 -1.93925,9.198815 -6.42553,10.280821 0.12659,-14.612613 12.093,-25.231553 25.06015,-17.991522 z m -44.33604,58.476729 c -1.40721,-1.34425 -1.32368,-2.41472 0.64255,-3.21277 0.19533,1.49909 1.37191,2.76872 -0.64255,3.21277 z m -6.425527,12.20841 c 0.08931,4.84931 0.4999,3.92339 1.927704,8.35323 -7.639284,6.13963 -12.351246,-7.43954 -8.353231,-12.8506 1.940502,1.70088 3.946593,3.33617 6.425527,4.49782 z m 19.277037,17.34933 c -3.0489,0.80704 -8.71363,0.0945 -12.20841,-0.64255 0.49412,-5.26891 11.74105,-3.58482 12.20841,0.64255 z" />
    <path
       id="path4247"
       style="fill-rule:evenodd;stroke-width:1.14268"
       inkscape:connector-curvature="0"
       clip-rule="evenodd"
       d="m 181.88811,82.766815 c 3.41262,2.156469 7.97855,3.158829 11.56622,5.140468 -1.3519,4.349503 -4.68682,9.630635 0.64256,12.208407 2.31381,1.16051 3.64709,-3.420271 7.06805,-3.212761 0.60528,-4.107254 1.11162,-8.312094 1.28506,-12.850597 -5.00288,-4.391211 -15.55075,-8.146292 -20.56141,-1.28506 z" />
    <path
       id="path4249"
       style="fill-rule:evenodd;stroke-width:1.14268"
       inkscape:connector-curvature="0"
       clip-rule="evenodd"
       d="m 299.47005,102.04271 c 3.09461,10.2294 14.01385,-2.67684 19.27704,3.21276 11.30569,-3.6928 23.21815,-5.62816 32.76982,-9.638286 -7.09445,-4.832629 -17.37333,2.367865 -25.70234,2.570234 -1.5241,-1.359677 3.48713,-1.616666 1.92771,-5.140468 -0.51855,-0.5526 -1.75996,-0.381678 -1.92771,-1.285059 -8.35128,3.857921 -14.2938,10.123469 -26.34452,10.280819 z" />
    <path
       id="path4251"
       style="fill-rule:evenodd;stroke-width:1.14268"
       inkscape:connector-curvature="0"
       clip-rule="evenodd"
       d="m 348.30826,102.04271 c 12.06672,-1.73619 26.77989,1.00624 37.91075,0.64255 -3.95368,-3.722281 -16.47861,-5.782993 -25.06015,-5.782993 -4.96815,0 -13.05628,0.390031 -12.8506,5.140463 z" />
    <path
       id="path4253"
       style="fill-rule:evenodd;stroke-width:1.14268"
       inkscape:connector-curvature="0"
       clip-rule="evenodd"
       d="m 281.48424,97.545117 c 0.54682,6.155623 10.28151,6.340053 15.42163,5.782993 -2.99748,-5.29084 -9.49054,-4.483764 -15.42163,-5.782993 z" />
    <path
       id="path4255"
       style="fill-rule:evenodd;stroke-width:1.14268"
       inkscape:connector-curvature="0"
       clip-rule="evenodd"
       d="m 386.86234,107.82582 c -0.02,4.57952 5.14938,3.04502 7.71059,3.85529 6.0946,1.9277 12.34781,5.76243 17.34933,8.35323 2.18527,-1.21513 -1.10005,-2.25211 -0.64256,-3.85529 -7.52753,-2.99497 -14.08013,-10.29945 -24.41682,-8.35323 z" />
    <path
       id="path4257"
       style="fill-rule:evenodd;stroke-width:1.14268"
       inkscape:connector-curvature="0"
       clip-rule="evenodd"
       d="m 226.22416,113.60893 c -2.28879,1.31785 1.07757,2.27531 1.9277,2.57023 -0.27374,1.2253 -1.83583,1.16302 -1.28517,3.21277 5.65262,3.77176 12.13413,6.71474 17.34933,10.92346 -2.26365,-5.87555 -8.4515,-7.82634 -13.49392,-10.92346 2.52909,-2.28811 7.1613,1.51839 9.63829,-0.64256 -2.79123,-4.71253 -10.13182,-2.87475 -14.13612,-5.14046 z" />
    <path
       id="path4259"
       style="fill-rule:evenodd;stroke-width:1.14268"
       inkscape:connector-curvature="0"
       clip-rule="evenodd"
       d="m 303.33231,127.10743 c 1.44572,-1.75288 4.54605,2.72255 6.42553,0.64255 -0.81218,-5.15075 -8.37437,-12.0313 -13.49393,-12.8506 2.89602,4.17216 8.31655,5.81957 10.92335,10.28082 -2.01889,1.13603 -4.31728,-2.94549 -8.35323,-1.9277 2.44557,6.3356 9.01245,8.55114 10.28082,16.06382 -3.08169,-0.34505 -3.02387,-3.83027 -6.42552,-3.8553 0.12925,3.40485 5.05236,6.71017 5.78299,11.56623 -1.54273,3.59762 -0.49862,9.78227 -3.85529,11.56622 -1.93342,-0.89636 1.33591,-3.32589 -0.64256,-4.49782 -3.89963,5.31004 -7.17159,11.24855 -13.49393,14.13611 4.72087,2.40443 9.9371,-4.77606 12.20841,-8.99576 2.07934,-0.7942 0.49091,2.07934 2.57023,1.28506 8.28125,-3.60025 1.99193,-15.58046 5.783,-20.56141 -0.85652,-5.99691 -4.00178,-9.70571 -7.71059,-12.8506 z" />
    <path
       id="path4261"
       style="fill-rule:evenodd;stroke-width:1.14268"
       inkscape:connector-curvature="0"
       clip-rule="evenodd"
       d="m 202.44495,118.10652 c 0.33735,2.23292 2.15384,2.98663 3.21277,4.49783 -0.0963,1.18873 -2.17635,0.39453 -2.57024,1.28506 -0.40737,4.47668 3.2995,4.83971 2.57024,9.63829 -2.91853,0.88479 -4.57953,5.90698 -3.21277,8.99576 2.49699,-4.65014 8.1367,-9.39159 3.8553,-15.42163 1.29797,-1.46241 2.13521,2.96857 4.49782,2.57023 -0.11952,-4.04418 -3.30658,-10.33098 -8.35323,-11.56622 z" />
    <path
       id="path4263"
       style="fill-rule:evenodd;stroke-width:1.14268"
       inkscape:connector-curvature="0"
       clip-rule="evenodd"
       d="m 421.55415,129.02713 c 1.03645,0.10799 3.31241,2.15647 3.8553,0.64255 -2.47699,-4.80497 -9.4758,-5.08836 -14.7783,-7.06805 -1.06472,1.38596 1.42515,3.33297 1.28506,5.783 5.19828,2.29838 10.19283,4.79983 14.13611,8.35323 -0.1992,0.87194 -1.60901,0.53332 -2.57023,0.64255 1.66877,12.34325 18.9468,6.73199 17.99152,20.56141 4.38732,5.03637 9.02204,9.82661 14.13611,14.13612 1.7034,3.29823 4.76716,10.59825 9.63829,12.85059 -1.96872,-7.45554 -6.48209,-12.3661 -10.92335,-17.34933 -5.00609,-18.12636 -18.9548,-27.30895 -32.12763,-37.26856 -0.12201,-0.52047 -0.64448,-0.63998 -0.64256,-1.28506 z" />
    <path
       id="path4265"
       style="fill:#8d8d8d;fill-rule:evenodd;stroke-width:1.14268"
       inkscape:connector-curvature="0"
       clip-rule="evenodd"
       d="m 104.77882,123.88506 c -1.96622,0.79807 -2.04975,1.86852 -0.64256,3.21277 2.01444,-0.44401 0.8379,-1.71368 0.64256,-3.21277 z" />
    <path
       id="path4267"
       style="fill-rule:evenodd;stroke-width:1.14268"
       inkscape:connector-curvature="0"
       clip-rule="evenodd"
       d="m 232.00613,132.8894 c 2.42431,5.71489 7.54032,8.7374 9.63829,14.7783 -3.29892,-0.98503 -3.53146,-5.03569 -7.71059,-5.14047 -1.42321,5.34866 3.16009,9.4854 2.57023,16.06382 -2.27656,-0.72223 -1.12189,-4.87502 -5.14046,-3.8553 0.26857,6.90809 -0.43244,12.84717 -3.8553,16.06382 -1.72522,-0.9362 2.409,-3.35605 0,-5.14046 -4.424,8.64164 -10.89512,15.23537 -17.99152,21.20474 9.33754,-1.17845 11.12778,-12.53522 19.27704,-12.8506 2.30353,-3.55785 4.83971,-10.04691 4.49782,-14.13611 2.38775,-0.24546 1.67963,2.6036 4.49783,1.9277 1.89102,-5.22525 -0.9407,-10.96449 -1.92771,-15.42163 3.03154,-0.87451 4.39567,5.44568 7.71059,6.42553 0.89956,-8.86527 -6.19356,-15.19424 -11.56622,-19.91923 z" />
    <path
       id="path4271"
       style="fill-rule:evenodd;stroke-width:1.14268"
       inkscape:connector-curvature="0"
       clip-rule="evenodd"
       d="m 211.43786,145.73314 c -6.87917,3.7969 -15.06283,16.02039 -23.77464,14.7783 -3.01359,-0.42923 -3.73062,-3.8489 -7.06805,-3.21276 -0.32706,3.75382 3.80524,3.0489 4.49782,5.78299 -1.09233,1.56982 -4.17273,-2.60874 -5.783,-0.64255 1.67323,2.82471 6.00274,2.99303 9.63829,3.85529 1.35968,-1.34996 -0.75628,-2.50533 -1.28506,-3.85529 10.7435,-2.75078 18.75027,-8.23691 23.77464,-16.70601 z" />
    <path
       id="path4273"
       style="fill:#ef0050;fill-rule:evenodd;stroke-width:1.14268"
       inkscape:connector-curvature="0"
       clip-rule="evenodd"
       d="m 104.77882,156.01727 c 3.49489,0.73701 9.15962,1.44961 12.20841,0.64255 -0.46714,-4.22735 -11.71477,-5.91154 -12.20841,-0.64255 z" />
    <path
       id="path4275"
       style="fill-rule:evenodd;stroke-width:1.14268"
       inkscape:connector-curvature="0"
       clip-rule="evenodd"
       d="m 164.5422,166.94131 c -0.18119,1.03772 0.60721,1.10648 0.64256,1.9277 -0.88544,1.25615 -2.35884,-2.31061 -5.14047,-1.28506 1.31465,3.82581 4.32311,5.95772 7.71059,7.71059 1.63529,-0.0784 2.49184,-0.93556 2.57023,-2.57023 5.83122,-0.18955 9.79895,-0.17606 12.20841,-2.57024 -4.49599,-4.90199 -11.52052,-0.94519 -17.99152,-3.21276 z" />
    <path
       id="path4277"
       style="fill-rule:evenodd;stroke-width:1.14268"
       inkscape:connector-curvature="0"
       clip-rule="evenodd"
       d="m 451.11533,177.22544 c 5.86778,7.49417 9.03689,17.84412 12.20841,26.34453 5.96617,-5.00609 -3.81873,-15.45477 -4.49783,-19.91923 -0.10981,-0.72223 1.12575,-2.24445 1.28506,-1.9277 -1.49268,-2.96926 -5.81636,-6.02719 -8.99576,-4.49783 z" />
    <path
       id="path4279"
       style="fill-rule:evenodd;stroke-width:1.14268"
       inkscape:connector-curvature="0"
       clip-rule="evenodd"
       d="m 207.58702,178.50525 c -3.57134,3.153 -4.99843,9.28748 -7.71059,13.49392 -1.36539,2.11785 -3.92019,3.69018 -2.57023,6.42553 4.98426,-5.08196 8.33129,-11.80162 10.28082,-19.91923 z" />
    <path
       id="path4281"
       style="fill-rule:evenodd;stroke-width:1.14268"
       inkscape:connector-curvature="0"
       clip-rule="evenodd"
       d="m 398.42628,194.57135 c -3.68572,9.37936 -11.43596,14.69489 -17.99152,21.20474 2.66461,2.8735 6.25652,-3.28349 10.92346,-2.57023 -0.47164,5.14172 -12.39581,7.67985 -10.92346,14.7783 4.83525,-6.08821 11.74219,-10.10416 16.06381,-16.70601 -1.2093,-2.24834 -4.53199,-0.67404 -6.42552,0 0.18179,-5.27084 11.30957,-8.29666 8.35323,-16.706 z" />
    <path
       id="path4283"
       style="fill-rule:evenodd;stroke-width:1.14268"
       inkscape:connector-curvature="0"
       clip-rule="evenodd"
       d="m 199.87392,221.56149 c -4.05446,6.83164 5.92686,15.18624 10.28082,19.91923 2.04974,0.55067 1.98747,-1.01139 3.21276,-1.28506 5.29016,2.68073 8.78174,10.43245 14.77831,10.28082 -7.80898,-6.11324 -11.59251,-16.25122 -21.20475,-20.56142 0.036,2.10562 1.82738,2.45585 1.28506,5.14047 -4.24666,-3.03473 -4.32242,-10.24163 -8.35323,-13.49393 z" />
    <path
       id="path4285"
       style="fill-rule:evenodd;stroke-width:1.14268"
       inkscape:connector-curvature="0"
       clip-rule="evenodd"
       d="m 222.36189,235.05656 c 10.03481,6.73017 5.14813,20.69396 1.28506,31.48545 2.60303,-2.53744 4.65335,-5.62748 6.42553,-8.99576 1.61347,6.73713 -5.41608,9.70639 -3.85529,16.06382 2.74312,-4.16188 6.62926,-10.30208 6.42552,-19.27704 -0.57186,-0.49862 -1.45086,-0.69077 -2.57023,-0.64257 1.71562,-7.95992 -1.51771,-18.68856 -7.71059,-18.63371 z" />
    <path
       id="path4287"
       style="fill-rule:evenodd;stroke-width:1.14268"
       inkscape:connector-curvature="0"
       clip-rule="evenodd"
       d="m 237.14819,247.2604 c 3.13884,11.67592 3.08753,26.16627 0,34.05534 8.88915,-5.73283 7.51142,-27.78316 0,-34.05534 z" />
    <path
       id="path4291"
       style="fill-rule:evenodd;stroke-width:1.14268"
       inkscape:connector-curvature="0"
       clip-rule="evenodd"
       d="m 385.57111,248.5402 c -0.43052,-6.00525 7.18507,-9.51751 7.71059,-16.706 -6.03748,0.81667 -6.81496,6.89334 -9.63829,10.92335 -1.69312,-8.12515 5.59605,-16.24322 7.71058,-20.56142 -7.47611,1.54023 -10.92015,16.71744 -10.28082,27.63005 -0.56352,2.06254 1.66615,1.33202 1.92771,2.57023 -10.85662,9.06969 -30.24907,13.80588 -46.90594,11.56622 -0.49154,2.80152 3.2275,3.51923 1.28506,5.783 -4.96495,2.7173 -7.8925,-5.24971 -12.20841,-3.21276 -0.21654,2.2945 2.71741,3.16911 3.85529,5.78299 -4.83846,0.63678 -11.72391,-5.27918 -16.06382,-5.14046 0.8244,-4.95856 2.1455,-9.4205 5.783,-11.56623 -0.0912,-9.86774 -3.06364,-20.95221 4.49782,-11.56622 1.78761,-3.30658 -1.71882,-6.83484 -2.57023,-9.63829 5.49321,-14.46064 2.05934,-27.34209 -10.28082,-31.48545 5.27279,-1.94759 12.15813,1.4824 17.34933,0.64255 -1.60444,-3.08421 -5.23165,-2.51687 -7.71058,-3.85529 -4.71117,-2.54327 -7.73824,-7.03206 -11.56623,-10.28082 -0.41124,-2.37107 2.00347,-4.42458 -1.28517,-4.49782 -3.39651,6.8818 7.05583,10.89192 10.28082,15.42163 -2.58372,0.85267 -7.58215,-1.40082 -11.56622,-1.28506 1.1251,6.79952 8.39368,7.45622 12.20841,11.56622 -0.63099,1.80041 -1.71437,-0.93299 -2.57024,0.64255 -0.0643,3.0913 2.40443,5.14047 5.14047,7.06806 0.38747,5.07099 -0.39195,10.2943 -1.28506,12.20841 -4.20484,-2.4346 -0.89828,-12.38096 -5.783,-14.13611 -1.9245,8.13475 2.37038,12.44951 4.49783,19.27703 -1.68032,-0.24737 -1.7947,-2.06002 -4.49783,-1.28505 2.05877,9.7225 1.05701,15.59531 -1.9277,24.41682 -0.77041,2.27725 -2.39666,6.04638 -3.21276,7.71058 -2.08768,4.25626 -5.08517,4.82372 -5.783,9.63829 -1.44709,9.9795 6.69737,17.46246 9.63829,27.63005 -0.0114,1.04929 -3.6311,-1.03003 -4.49782,0.64255 4.62054,11.57765 3.57842,25.23955 -2.57024,36.62523 -0.44399,0.85908 -1.71368,-0.31677 -3.21276,0.64254 -3.01999,19.8141 -24.16657,23.55638 -46.90594,20.56141 -2.42431,-0.1458 -1.66877,-3.47169 -3.85529,-3.85529 -1.99192,-0.0643 -3.56425,0.29106 -4.49794,1.28506 -3.93174,-4.17079 -8.32295,-6.1306 -7.06806,-13.49393 1.54342,-9.05746 12.17528,-9.74684 16.06382,-16.06382 3.2475,-5.27599 1.89297,-11.13543 1.92771,-16.706 -1.12703,-1.22861 -2.40512,-2.30742 -4.49783,-2.57023 0.32384,-4.77996 -1.91422,-9.23996 -3.21276,-12.20841 -2.75272,-6.29252 1.13026,-13.81045 -5.783,-16.06382 0.74152,-3.22237 5.3081,-6.90363 2.57023,-9.63829 -4.40538,0.41766 -6.44289,9.35433 -3.21276,11.56622 -1.64752,6.48529 -2.47448,15.3725 -8.35323,19.27704 -1.83835,7.71059 1.6025,11.31597 0,17.34933 -3.66961,13.8116 -20.14205,15.31765 -37.26856,16.70601 -2.56246,0.63485 -1.93536,-1.91994 -4.49782,-1.28506 -4.52937,1.661 -7.66306,1.91799 -13.49393,1.28506 -0.84239,-2.37038 -1.49006,-4.93547 -3.8553,-5.783 -4.4985,-1.1341 -5.16229,3.00525 -8.35323,1.28506 -2.83876,-4.80315 -0.66311,-7.79549 0,-13.49393 8.75157,-7.92072 20.61398,-9.628 20.56142,-24.41682 -0.0566,-16.07638 -6.60356,-27.97627 3.21276,-39.19626 -0.75628,-0.95677 -1.61347,-1.81389 -2.57023,-2.57024 2.05294,-6.94282 5.82219,-12.16956 5.14046,-21.84693 1.3879,-1.33465 3.54243,4.67391 5.783,2.57024 -4.34687,-5.50544 -5.97645,-13.72932 -7.71059,-21.84693 -1.46183,-0.46585 -3.28212,-0.57316 -4.49782,-1.28506 -1.1219,-5.94366 2.08448,-10.61757 1.28506,-14.13612 -4.14828,3.87392 -3.25904,7.80578 -3.85529,14.13612 -5.17578,-3.17803 -3.13632,-13.57049 -10.28082,-14.7783 -0.53011,8.92126 7.58215,14.66517 10.92346,21.84693 2.65308,0.11438 1.90897,-2.17053 2.57023,-2.57024 4.64695,13.5922 -0.27051,35.30087 -10.92346,43.05053 0.32,2.60875 2.68005,3.88683 5.14047,2.57024 -6.29641,18.18692 9.0009,37.38968 -7.06806,47.54926 -8.49195,1.57485 -13.58877,6.54506 -13.49393,16.70601 -5.31712,2.73089 -11.79704,7.31156 -9.63829,15.42163 4.68614,-1.95398 9.13197,-4.1477 14.13612,-5.783 1.47977,1.94119 -3.35674,3.04445 -2.57024,6.42553 7.30779,2.30616 13.26197,-2.9416 19.91923,0 1.4592,0.5359 -1.27992,3.94785 0.64256,5.14047 6.42553,-0.21462 11.2993,-1.98038 14.13612,-5.783 21.62525,1.33202 51.94059,-2.46808 41.12397,-30.19993 2.08768,-3.69532 4.84611,-6.71988 7.71058,-9.63829 2.42694,5.28376 3.0617,12.35924 6.42553,16.706 1.67323,17.98581 -22.75993,13.17626 -17.99152,32.12764 -2.3569,3.85472 -8.64496,3.77816 -8.35323,10.28082 3.46598,2.51618 8.79019,-1.10905 12.85059,-1.9277 1.5152,0.19854 1.19514,2.23165 3.21277,1.9277 -1.40779,3.09004 -5.16481,3.83095 -6.42553,7.06806 3.9434,3.93174 12.16727,-0.59886 17.34934,0 0.4967,2.50407 -2.37552,3.3316 -0.64256,5.14046 6.90363,0.86939 12.44838,-4.90141 17.99153,-5.78299 3.40941,-0.5423 6.10043,0.80769 8.99576,0.64256 22.92333,-1.30631 32.15049,-22.42284 35.34085,-41.76615 -0.68947,-7.42149 -2.75717,-10.69665 -3.21276,-17.34934 0.94971,-1.19193 2.48476,2.43723 4.49782,0.64254 -4.55507,-13.85387 -15.18966,-26.35595 -2.57023,-37.91075 5.93337,1.56331 10.75766,4.2357 16.706,5.783 0.95291,-0.54617 1.38151,-1.61735 1.28506,-3.21276 1.37956,1.19136 4.70671,0.43371 7.06806,0.64254 1.40081,-1.16874 1.16942,-3.97162 2.57024,-5.14047 8.94239,-0.44079 13.951,-1.02423 23.13244,-2.57023 0.0271,18.73083 -24.16314,28.71787 -15.42163,46.90594 -4.29671,2.55675 -9.83175,3.87586 -10.28082,10.28082 5.43734,-2.4154 11.0455,-0.87645 16.06382,-3.21277 -2.19875,3.58802 -7.06292,7.19981 -5.14047,12.8506 4.3006,-2.33896 7.65597,-5.62302 13.49393,-6.42553 1.56273,0.52496 -1.27352,3.3876 0.64254,4.49783 2.34078,0.19853 4.18176,-0.10216 5.783,-0.64257 1.73813,1.26072 -0.39195,6.38896 1.28506,7.71059 -3.32395,3.5302 -8.27165,5.43665 -8.35323,12.20841 6.80524,-0.10661 8.92057,-3.88226 13.49392,-3.21276 -1.79915,3.19539 -6.97813,5.48098 -5.14047,10.28082 6.8361,-3.38817 9.28486,-5.51824 16.70601,-3.8553 -0.35533,2.6428 -1.84155,4.15605 -1.9277,7.06806 4.18815,2.32856 6.77576,-3.92923 10.28082,-4.49782 2.57023,-0.41639 5.87612,1.83571 8.35323,1.9277 7.47611,0.27759 19.95008,-4.9573 24.41682,-7.71059 2.1359,-1.31659 3.45113,-4.03069 5.783,-5.14046 0.90213,-0.42923 3.08558,0.27117 3.85529,0 3.54883,-1.25044 5.15201,-4.49977 8.35323,-5.783 2.03306,-0.10547 2.14744,1.70796 4.49782,1.28506 9.12237,-15.37935 15.6376,-34.58897 11.56623,-52.04686 -0.45943,-1.74522 3.0297,0.46007 2.57023,-1.28506 -2.76369,-8.51572 -9.80466,-16.5826 -9.63829,-26.98672 0.18692,-11.68163 2.44294,-23.01132 5.783,-34.05534 -0.12468,-9.99366 2.53035,-23.7552 -7.06806,-27.63004 1.71757,5.83888 5.0286,18.17778 2.57023,28.27223 0.45943,1.04222 -3.0297,1.04222 -2.57023,0 -2.47768,7.16964 -6.4133,14.34066 -7.06806,22.48912 -1.04414,12.99229 3.9234,23.4284 11.56623,32.12763 -2.89921,7.41121 3.44027,17.02139 1.28506,24.41683 -1.20096,1.25809 -2.3537,0.19856 -3.8553,0 -1.1206,7.49153 -0.68045,14.26295 -3.21276,21.20474 -2.42568,0.54682 -3.01679,-2.13396 -4.49782,-0.64255 -1.90645,4.51907 -4.63472,8.21633 -8.35323,10.92335 -2.45517,0.52754 -0.75757,-3.09781 -3.21277,-2.57024 -8.22399,9.3781 -22.57253,18.63028 -36.62523,17.99152 -2.10562,-0.2506 -1.99512,-2.71672 -3.21276,-3.85529 -7.17856,3.18328 -10.94335,-3.77759 -17.99153,-4.49782 -2.01569,-2.79192 -1.66488,-4.61552 -4.49782,-7.06806 1.89742,-11.38225 9.00479,-17.55502 17.99152,-21.84693 4.98495,-10.60797 6.58939,-23.33927 3.21277,-34.05534 -0.76849,-2.43917 -3.57454,-4.06349 -4.49783,-6.42553 -2.73603,-6.99744 -0.5725,-13.60705 -2.57023,-20.56141 -2.55926,-1.53439 -1.74008,1.43418 -3.85529,1.9277 0.54875,-4.37772 3.23778,-6.61509 4.49782,-10.28082 -0.17931,-1.32048 -1.71631,-1.28254 -2.57023,-1.9277 -2.32148,-0.17992 -1.46949,2.81442 -2.57024,3.85529 z m 8.99576,42.40835 c 1.40458,19.87123 -11.06539,24.00545 -21.20474,34.05534 -5.9944,-0.77363 -8.26902,-5.46682 -12.20841,-7.06806 -1.01395,-0.41252 -3.12284,-1.19639 -3.8553,-1.28506 -4.37258,-0.52818 -4.81594,-9.69291 -3.85529,-14.13612 2.04334,-9.45649 19.56042,-23.76435 17.99152,-36.62523 6.60162,-0.68048 10.51542,-4.04943 16.06382,-5.78299 -1.83583,11.87589 6.26041,19.4153 7.06806,30.84212 z" />
    <path
       id="path4293"
       style="fill-rule:evenodd;stroke-width:1.14268"
       inkscape:connector-curvature="0"
       clip-rule="evenodd"
       d="m 140.11967,116.82215 c 7.55655,5.6917 21.5087,1.14954 17.99152,-7.71082 -3.52974,-8.8832 -17.80869,-1.30608 -17.99152,7.71082 z" />
    <path
       id="path4332"
       style="fill:#8d8d8d;fill-rule:evenodd;stroke-width:1.14268"
       clip-rule="evenodd"
       inkscape:connector-curvature="0"
       d="m 96.242986,124.71922 c 1.383787,0.56164 1.442521,1.315 0.452204,2.26103 -1.41761,-0.31248 -0.58968,-1.20599 -0.452204,-2.26103 z" />
  </g>
  <metadata
     id="metadata29">
    <rdf:RDF>
      <cc:Work>
        <dc:format>image/svg+xml</dc:format>
        <dc:type
           rdf:resource="http://purl.org/dc/dcmitype/StillImage" />
        <cc:license
           rdf:resource="http://creativecommons.org/publicdomain/zero/1.0/" />
        <dc:publisher>
          <cc:Agent
             rdf:about="http://openclipart.org/">
            <dc:title>Openclipart</dc:title>
          </cc:Agent>
        </dc:publisher>
        <dc:title>Young Brown Bear</dc:title>
        <dc:date>2012-10-15T14:21:46</dc:date>
        <dc:description>Just a remix of a polar bear cub</dc:description>
        <dc:source>https://openclipart.org/detail/172770/young-brown-bear-by-qubodup-172770</dc:source>
        <dc:creator>
          <cc:Agent>
            <dc:title>qubodup</dc:title>
          </cc:Agent>
        </dc:creator>
        <dc:subject>
          <rdf:Bag>
            <rdf:li>animal</rdf:li>
            <rdf:li>bear</rdf:li>
            <rdf:li>brown</rdf:li>
            <rdf:li>cartoon</rdf:li>
            <rdf:li>cub</rdf:li>
            <rdf:li>cute</rdf:li>
            <rdf:li>hairy</rdf:li>
            <rdf:li>mammal</rdf:li>
            <rdf:li>roar</rdf:li>
          </rdf:Bag>
        </dc:subject>
      </cc:Work>
      <cc:License
         rdf:about="http://creativecommons.org/publicdomain/zero/1.0/">
        <cc:permits
           rdf:resource="http://creativecommons.org/ns#Reproduction" />
        <cc:permits
           rdf:resource="http://creativecommons.org/ns#Distribution" />
        <cc:permits
           rdf:resource="http://creativecommons.org/ns#DerivativeWorks" />
      </cc:License>
    </rdf:RDF>
  </metadata>
</svg>
