<?xml version="1.0" encoding="UTF-8" standalone="no"?>
<svg
   xmlns:dc="http://purl.org/dc/elements/1.1/"
   xmlns:cc="http://creativecommons.org/ns#"
   xmlns:rdf="http://www.w3.org/1999/02/22-rdf-syntax-ns#"
   xmlns:svg="http://www.w3.org/2000/svg"
   xmlns="http://www.w3.org/2000/svg"
   xmlns:xlink="http://www.w3.org/1999/xlink"
   xmlns:sodipodi="http://sodipodi.sourceforge.net/DTD/sodipodi-0.dtd"
   xmlns:inkscape="http://www.inkscape.org/namespaces/inkscape"
   width="88mm"
   height="125mm"
   viewBox="0 0 88 125"
   version="1.1"
   id="svg2402"
   inkscape:version="1.0.2-2 (e86c870879, 2021-01-15)"
   sodipodi:docname="bell_pepper.svg">
  <defs
     id="defs2396">
    <filter
       id="fh"
       x="-0.0546"
       y="-0.28169999"
       width="1.1092"
       height="1.5634">
      <feGaussianBlur
         stdDeviation="5.425"
         id="feGaussianBlur177" />
    </filter>
    <radialGradient
       id="bl"
       cx="39.703999"
       cy="284.14001"
       r="73.75"
       gradientTransform="matrix(0.04667,-0.25794,0.58642,0.10611,-16.256,120.67)"
       gradientUnits="userSpaceOnUse"
       xlink:href="#m" />
    <linearGradient
       id="m">
      <stop
         stop-color="#fe914f"
         offset="0"
         id="stop387" />
      <stop
         stop-color="#ed2713"
         offset=".355"
         id="stop389" />
      <stop
         stop-color="#9e0000"
         offset="1"
         id="stop391" />
    </linearGradient>
    <linearGradient
       id="dl"
       x1="76.695999"
       x2="144.32001"
       y1="277.98001"
       y2="263.14001"
       gradientUnits="userSpaceOnUse"
       xlink:href="#ac" />
    <linearGradient
       id="ac">
      <stop
         stop-color="#fff"
         offset="0"
         id="stop382" />
      <stop
         stop-color="#fff"
         stop-opacity="0"
         offset="1"
         id="stop384" />
    </linearGradient>
    <filter
       id="aj">
      <feGaussianBlur
         stdDeviation="2.814"
         id="feGaussianBlur86" />
    </filter>
    <linearGradient
       id="dk"
       x1="178.96001"
       x2="219.37"
       y1="276.34"
       y2="275.51001"
       gradientUnits="userSpaceOnUse"
       xlink:href="#ac" />
    <filter
       id="filter2294">
      <feGaussianBlur
         stdDeviation="2.814"
         id="feGaussianBlur2292" />
    </filter>
    <radialGradient
       id="bm"
       cx="130.99001"
       cy="225.12"
       r="73.75"
       gradientTransform="matrix(0.50755,-0.04987,0.02703,0.27513,177.98,78.775)"
       gradientUnits="userSpaceOnUse"
       xlink:href="#m" />
    <radialGradient
       id="bn"
       cx="-11.988"
       cy="237.11"
       r="73.75"
       gradientTransform="matrix(-0.83945,-0.07574,0.21441,-2.3763,156.66,785.55)"
       gradientUnits="userSpaceOnUse"
       xlink:href="#m" />
    <radialGradient
       id="bo"
       cx="101.54"
       cy="272.67999"
       r="73.75"
       gradientTransform="matrix(0.5931,0.43555,-0.85909,1.1164,253.54,-199.02)"
       gradientUnits="userSpaceOnUse"
       xlink:href="#m" />
    <radialGradient
       id="bp"
       cx="-22.375999"
       cy="282.62"
       r="73.75"
       gradientTransform="matrix(0.08688,-0.34887,0.35342,0.08801,102.12,104)"
       gradientUnits="userSpaceOnUse"
       xlink:href="#m" />
    <filter
       id="fj"
       x="-0.14650001"
       y="-0.0634"
       width="1.293"
       height="1.1267">
      <feGaussianBlur
         stdDeviation="3.033"
         id="feGaussianBlur183" />
    </filter>
    <radialGradient
       id="bq"
       cx="88.695999"
       cy="248.96001"
       r="73.75"
       gradientTransform="matrix(-1.2604,0.08736,-0.16849,-2.431,252.16,809.17)"
       gradientUnits="userSpaceOnUse"
       xlink:href="#m" />
    <linearGradient
       id="dh"
       x1="176.28999"
       x2="192.2"
       y1="118.75"
       y2="117.87"
       gradientUnits="userSpaceOnUse">
      <stop
         stop-color="#008000"
         offset="0"
         id="stop377" />
      <stop
         stop-color="#002b00"
         offset="1"
         id="stop379" />
    </linearGradient>
    <linearGradient
       id="dj"
       x1="177.31"
       x2="214.46001"
       gradientUnits="userSpaceOnUse"
       xlink:href="#ah" />
    <linearGradient
       id="ah">
      <stop
         stop-color="#fd5"
         offset="0"
         id="stop394" />
      <stop
         stop-color="#ffd42a"
         stop-opacity="0"
         offset="1"
         id="stop396" />
    </linearGradient>
    <filter
       id="u"
       x="-0.3231"
       y="-0.048700001"
       width="1.6461999"
       height="1.0974">
      <feGaussianBlur
         stdDeviation="6.001"
         id="feGaussianBlur186" />
    </filter>
    <linearGradient
       id="di"
       x1="68.002998"
       x2="110.02"
       y1="277.23999"
       y2="272.26001"
       gradientUnits="userSpaceOnUse"
       xlink:href="#ah" />
    <filter
       id="filter2361"
       x="-0.3231"
       y="-0.048700001"
       width="1.6461999"
       height="1.0974">
      <feGaussianBlur
         stdDeviation="6.001"
         id="feGaussianBlur2359" />
    </filter>
    <filter
       id="fi"
       x="-0.1039"
       y="-0.056299999"
       width="1.2079"
       height="1.1127">
      <feGaussianBlur
         stdDeviation="2.691"
         id="feGaussianBlur180" />
    </filter>
    <filter
       id="fg"
       x="-0.0372"
       y="-0.1785"
       width="1.0743999"
       height="1.357">
      <feGaussianBlur
         stdDeviation="3.094"
         id="feGaussianBlur174" />
    </filter>
    <filter
       id="r" />
    <linearGradient
       id="dg"
       x1="279.66"
       x2="293.64999"
       y1="247.96001"
       y2="248.35001"
       gradientUnits="userSpaceOnUse">
      <stop
         stop-color="#fe914f"
         offset="0"
         id="stop370" />
      <stop
         stop-color="#ed2713"
         offset=".355"
         id="stop372" />
      <stop
         stop-color="#f60"
         offset="1"
         id="stop374" />
    </linearGradient>
    <filter
       id="filter2374"
       x="-0.3231"
       y="-0.048700001"
       width="1.6461999"
       height="1.0974">
      <feGaussianBlur
         stdDeviation="6.001"
         id="feGaussianBlur2372" />
    </filter>
  </defs>
  <sodipodi:namedview
     id="base"
     pagecolor="#ffffff"
     bordercolor="#666666"
     borderopacity="1.0"
     inkscape:pageopacity="0.0"
     inkscape:pageshadow="2"
     inkscape:zoom="0.35"
     inkscape:cx="400"
     inkscape:cy="560"
     inkscape:document-units="mm"
     inkscape:current-layer="layer1"
     inkscape:document-rotation="0"
     showgrid="false"
     inkscape:window-width="1267"
     inkscape:window-height="1040"
     inkscape:window-x="234"
     inkscape:window-y="0"
     inkscape:window-maximized="0" />
  <metadata
     id="metadata2399">
    <rdf:RDF>
      <cc:Work
         rdf:about="">
        <dc:format>image/svg+xml</dc:format>
        <dc:type
           rdf:resource="http://purl.org/dc/dcmitype/StillImage" />
        <dc:title></dc:title>
      </cc:Work>
    </rdf:RDF>
  </metadata>
  <g
     inkscape:label="Layer 1"
     inkscape:groupmode="layer"
     id="layer1">
    <g
       transform="matrix(0.26831397,0,0,0.26831397,0.18317356,-5.1526047)"
       id="g1409">
      <path
         transform="matrix(1.004,0.02426,-0.11735,1.1166,27.563,-48.831)"
         d="m 134.88,414.63 c -10.211,-0.823 -32.554,-6.1383 -38.608,-13.348 -2.5604,-10.814 11.567,-11.738 18.904,-12.793 9.133,-1.2764 17.85,-4.7433 27.197,-4.1926 18.056,-0.004 36.135,0.4236 54.143,-1.2564 21.683,-0.8586 43.414,-0.7844 65.098,-0.3174 9.5799,1.1735 18.813,4.8854 26.328,10.914 7.1814,2.9625 9.1606,12.12 0.7646,14.969 -6.6929,4.301 -18.684,3.9821 -26.693,5.2151 -7.082,3.0912 -9.3393,5.5818 -16.671,4.9511 -26.548,0.5272 -47.993,-10.75 -84.858,3.5321 -15.811,-0.15 -18.811,-4.7665 -34.584,-5.2894 -1.1777,-0.0552 10.121,-3.9611 8.9803,-2.3845 z"
         fill-rule="evenodd"
         filter="url(#fh)"
         id="path1375" />
      <path
         d="m 168.73,123.06 c -0.1202,0.0725 -0.5086,0.3189 -0.5086,0.3189 l -15.057,-1.7332 c -34.016,-2.1982 -35.518,6.861 -44.171,13.443 l 41.388,13.194 24.351,-3.5827 -6.0022,-21.641 z"
         fill="url(#bl)"
         fill-rule="evenodd"
         id="path1377"
         style="fill:url(#bl)" />
      <path
         transform="matrix(0.99344,0.11435,-0.11435,0.99344,28.359,-18.14)"
         d="m 100.88,170.07 c 0,0 -20.993,3.4988 -22.742,13.995 -1.749,10.4962 -6.9977,54.232 -5.8314,64.145 1.1663,9.913 3.4988,20.41 6.9977,35.572 3.4989,15.162 4.6651,13.412 9.3302,30.906 4.6651,17.494 6.9977,15.162 13.995,29.157 6.9973,13.995 19.827,53.066 22.742,56.564 2.915,3.498 12.246,15.162 19.244,13.995 6.998,-1.167 23.326,6.4145 14.578,-4.6651 -8.748,-11.0796 -5.8314,-12.829 -16.328,-32.656 -10.4966,-19.827 -3.4988,-5.2482 -13.995,-23.326 -10.4962,-18.0778 -12.829,-13.995 -9.9134,-25.075 2.9156,-11.08 8.7471,1.1663 -2.3325,-17.494 -11.0796,-18.6603 -22.159,-16.328 -9.9134,-26.241 12.2456,-9.913 26.824,-15.162 20.993,-30.906 -5.831,-15.744 -6.4145,-36.155 -9.9134,-46.068 -3.4989,-9.913 -24.492,-2.9157 -25.658,-8.7471 -1.166,-5.8314 -12.246,-2.9157 7.5808,-6.9977 19.8268,-4.082 24.492,-1.7494 25.075,-11.08 0.583,-9.3306 -8.7471,-15.162 -11.08,-15.162 -2.3329,0 -11.663,4.082 -12.829,4.082 z"
         fill="url(#dl)"
         fill-rule="evenodd"
         filter="url(#aj)"
         opacity="0.385"
         id="path1379"
         style="fill:url(#dl)" />
      <path
         transform="matrix(0.99344,0.11435,-0.11435,0.99344,28.359,-18.14)"
         d="m 188.94,158.41 c -2.3326,0.5831 -15.745,11.08 -14.578,19.244 1.167,8.164 -1.1663,20.41 -1.7494,24.492 -0.5831,4.082 -0.5831,6.4145 0,12.246 0.5831,5.8315 2.9157,8.7471 1.1663,16.328 -1.7494,7.5809 -1.7494,11.08 -1.1663,17.494 0.5831,6.414 1.7494,9.9134 1.7494,19.244 0,9.3306 5.2482,18.077 5.2482,18.077 0,0 -5.2482,2.3326 -4.6651,8.1639 0.5831,5.8313 1.7494,12.246 2.3326,16.328 0.5832,4.082 5.2482,18.66 6.9977,26.241 1.7495,7.581 4.082,11.663 5.8314,23.909 1.7494,12.246 5.2482,21.576 5.2482,27.991 0,6.415 -5.8314,11.663 0.5831,12.829 6.4145,1.166 9.9134,1.1663 14.578,3.4988 4.6646,2.3325 12.246,10.496 17.494,7.5808 5.248,-2.9152 14.578,-0.5831 6.9977,-8.1639 -7.5803,-7.5808 -7.5808,-8.7471 -7.5808,-24.492 0,-15.7449 1.1663,-9.3302 -4.6651,-28.574 -5.8314,-19.2438 -9.3302,-25.075 -7.5808,-30.323 1.7494,-5.248 7.5808,-7.5808 -0.5831,-16.328 -8.1639,-8.7472 -22.159,-13.995 -18.66,-20.993 3.499,-6.998 8.1639,-12.246 8.7471,-15.745 0.5832,-3.499 -13.995,-28.574 -13.995,-28.574 0,0 0.5831,-14.578 0.5831,-20.993 0,-6.415 -5.8314,-17.494 -2.9157,-22.742 2.9157,-5.248 15.162,-25.075 15.162,-25.075 l 27.991,-15.162 -33.822,-1.7494 -8.7471,5.2482 z"
         fill="url(#dk)"
         fill-rule="evenodd"
         filter="url(#aj)"
         opacity="0.385"
         id="path1381"
         style="fill:url(#dk)" />
      <path
         d="m 259.07,119.74 c -9.1032,-0.9961 -17.742,0.5384 -23.5,4.9388 0,0 -0.3679,-0.88 -1.0823,-2.0749 -4.7355,1.9459 -29.878,12.605 -34.216,19.823 -4.9329,8.2064 16.773,8.7446 16.773,8.7446 l 53.553,6.1644 23.952,27.482 9.1046,67.106 c 5.1469,-27.155 10.633,-56.572 10.964,-59.449 0.6001,-5.2138 2.4884,-21.452 -2.5046,-29.071 -4.993,-7.619 -12.659,-22.587 -20.816,-28.222 -8.055,-8.735 -20.523,-14.162 -32.227,-15.443 z"
         fill="url(#bm)"
         fill-rule="evenodd"
         id="path1383"
         style="fill:url(#bm)" />
      <path
         d="m 253.73,145.96 c -16.41,-1.9104 -23.86,0.6348 -40.845,0.6774 -18.118,0.0454 -26.607,4.3893 -33.763,11.024 -7.156,6.6347 -4.0015,11.807 -4.0015,11.807 l -0.4407,8.474 -3.1421,50.252 c 0,0 -4.1316,73.024 -6.6357,85.521 -2.5041,12.497 -1.5575,27.52 -0.5249,32.434 0.997,4.7443 12.249,56.947 13.054,60.672 1.0717,-0.5205 1.9815,-0.691 3.9521,-0.1742 26.112,16.667 41.663,18.075 70.895,-1.0666 24.606,-38.11 33.719,-65.668 42.696,-108.54 0.6747,-2.9444 6.6639,-34.301 11.91,-62.202 0.6138,-13.365 1.0723,-25.177 0.9854,-29.33 -0.2458,-11.748 -6.2434,-33.728 -13.241,-37.73 -6.9976,-4.002 -18.623,-18.66 -37.49,-21.365 -1.1792,-0.169 -2.3138,-0.3278 -3.4078,-0.4552 z"
         fill="url(#bn)"
         fill-rule="evenodd"
         id="path1385"
         style="fill:url(#bn)" />
      <path
         d="m 111.54,135.63 c 0,0 -9.5758,-2.8526 -18.329,-1.5122 -8.7532,1.3404 -34.728,1.4594 -48.025,33.792 -4.6938,11.414 -6.1108,31.228 -1.0274,51.533 1.4531,5.8043 5.7084,20.137 11.163,37.994 l 14.245,-2.7956 4.1247,-79.298 43.156,-19.757 30.439,-8.7956 c -8.7733,-4.0057 -22.436,-11.041 -35.746,-11.161 z"
         fill="url(#bo)"
         fill-rule="evenodd"
         id="path1387"
         style="fill:url(#bo)" />
      <path
         d="m 207.72,110.87 c -4.3999,-0.4996 -9.6941,-0.5176 -16.411,0.4701 -3.2636,0.4799 -15.412,6.4473 -17.996,8.4978 -2.584,2.0505 -5.0938,3.5344 -5.0938,3.5344 l -0.4657,-0.0536 17.776,31.395 49.819,-30.535 c -0.7276,-1.6252 -3.6593,-7.1917 -10.449,-8.9725 -4.9856,-1.3076 -9.846,-3.5041 -17.179,-4.3367 z"
         fill="url(#bp)"
         fill-rule="evenodd"
         id="path1389"
         style="fill:url(#bp)" />
      <path
         transform="matrix(0.80451,0.13283,-0.14946,1.023,47.419,-19.318)"
         d="m 44.61,194.31 c -1.1057,13.269 -3.1226,33.847 -3.1226,33.847 0,0 10.123,27.534 10.123,25.322 -10.058,-45.46 1.6768,-79.576 34.085,-96.217 0,0 3.4191,-3.5756 -4.3211,-1.3642 -20.297,5.9216 -33.205,17.826 -36.764,38.411 z"
         fill="#d40000"
         fill-rule="evenodd"
         filter="url(#fj)"
         opacity="0.935"
         id="path1391" />
      <path
         d="m 132.9,145.76 c -11.137,-1.095 -23.145,-0.0308 -35.073,1.908 -17.047,2.7709 -34.147,24.141 -38.879,36.607 -6.7359,17.748 -9.2901,44.983 -5.9299,68.458 14.278,49.863 39.6,134.24 42.005,139.28 12.776,19.776 33.538,29.541 56.813,26.483 6.1266,-2.2297 14.976,-7.6614 20.457,-9.3785 2.9864,-0.9357 4.242,-1.8856 5.4034,-2.3978 l -4.3246,-34.848 c -4.0098,-16.393 -8.5127,-29.268 -6.3351,-56.187 l 5.0396,-62.364 4.8346,-69.874 c -0.7371,-24.569 -18.247,-28.632 -33.216,-35.815 -3.4849,-0.896 -7.082,-1.5066 -10.794,-1.8717 z"
         fill="url(#bq)"
         fill-rule="evenodd"
         id="path1393"
         style="fill:url(#bq)" />
      <path
         d="m 135.56,145.05 c 0,0 22.967,1.6033 23.75,-6.4907 1.3338,-13.801 10.057,-64.863 10.392,-67.77 0.8088,-7.0262 -1.9699,2.6075 3.0455,-10.367 5.0154,-12.9745 7.5415,-10.215 11.597,-9.7482 4.0555,0.4668 17.691,4.3932 17.156,9.0451 -0.535,4.6519 3.5636,9.8374 -1.7172,9.8187 -5.2808,-0.0187 -8.5789,3.1369 -8.5789,3.1369 0,0 3.2751,2.1446 0.2446,2.9741 -3.0305,0.8295 -2.7858,3.8037 -2.7858,3.8037 0,0 -2.1834,-1.4297 -2.1188,13.308 0.0646,14.7377 -3.236,33.212 -0.6741,36.453 2.5619,3.241 7.4657,11.895 10.827,13.03 4.7132,1.5916 16.476,4.2533 16.476,4.2533 0,0 -16.492,1.8277 -28.521,9.8532 -9.2532,6.1735 -9.1472,14.344 -9.3702,15.11 -0.7311,2.5132 -3.4887,-7.3947 -14.629,-14.859 -10.628,-7.1209 -19.897,-9.2723 -25.091,-11.551 z"
         fill="url(#dh)"
         fill-rule="evenodd"
         id="path1395"
         style="fill:url(#dh)" />
      <path
         transform="matrix(1.2684,0.14601,-0.11435,0.99344,-24.202,-20.74)"
         d="m 183.39,164.56 c 0,0 -6.8556,5.1417 -5.9986,23.994 0.857,18.8523 6.8556,77.982 6.8556,103.69 0,25.708 -4.2847,80.553 2.5708,88.266 6.8555,7.713 20.567,29.993 23.994,22.281 3.427,-7.712 -13.711,-19.71 -13.711,-41.134 0,-21.424 6.8556,-45.418 6.8556,-66.842 0,-21.424 -11.997,-53.131 -10.283,-77.125 1.714,-23.994 15.425,-35.992 19.71,-42.847 4.285,-6.855 -5.1417,-19.71 -11.14,-16.282 -5.9983,3.428 -18.853,5.9986 -18.853,5.9986 z"
         fill="url(#dj)"
         fill-rule="evenodd"
         filter="url(#u)"
         opacity="0.481"
         id="path1397"
         style="fill:url(#dj)" />
      <path
         transform="matrix(0.99344,0.11435,-0.11435,0.99344,28.359,-18.14)"
         d="m 58.051,205.92 c 0,0 -4.9758,41.465 3.3172,59.157 8.293,17.692 50.311,125.5 57.498,131.03 7.187,5.53 7.1873,13.269 0.5529,-17.139 -6.6344,-30.408 -12.716,-60.263 -19.903,-79.06 -7.187,-18.797 -17.692,-47.547 -17.139,-61.921 0.6462,-16.802 16.033,-63.027 13.822,-68.556 -2.211,-5.529 -10.504,-2.2115 -19.903,6.6344 -9.399,8.8459 -18.245,29.302 -18.245,29.855 z"
         fill="url(#di)"
         fill-rule="evenodd"
         filter="url(#u)"
         opacity="0.481"
         id="path1399"
         style="fill:url(#di)" />
      <path
         d="m 174.09,66.826 c 0,0 -0.0377,0.8632 -3.5347,21.65 -3.4484,20.498 -5.7439,45.952 -9.7205,54.788 -3.9766,8.836 -8.8368,5.7439 -11.488,5.7439 -2.6512,0 0,-2.2092 10.604,3.9766 10.604,6.1858 11.488,9.2787 11.488,9.2787 0,0 11.046,-12.372 18.557,-12.813 7.511,-0.441 10.162,-1.7674 10.162,-1.7674 0,0 -2.2092,-2.2092 -11.046,-0.8837 -8.8368,1.3255 -12.813,8.395 -18.557,3.5347 -5.744,-4.8603 -3.9766,-22.534 -1.7674,-28.72 2.2092,-6.186 8.8368,-56.998 5.3021,-54.788 z"
         fill="#eae3ab"
         fill-rule="evenodd"
         filter="url(#fi)"
         opacity="0.696"
         id="path1401" />
      <path
         d="m 93.579,382.01 c 0,0 10.198,20.095 16.796,23.695 6.598,3.6 19.796,11.997 26.994,11.397 7.198,-0.6 16.196,-2.0995 26.094,-6.2986 9.898,-4.1991 12.597,-6.2986 15.896,-5.6987 3.299,0.5999 10.498,8.9979 19.196,8.9979 8.698,0 17.174,6.4726 27.594,2.9993 11.697,-3.8991 23.395,-11.397 24.894,-16.796 1.499,-5.399 8.9979,-13.797 8.9979,-13.797 0,0 -11.098,12.597 -26.694,17.696 -15.11,4.9396 -47.989,-2.6994 -51.888,-4.499 -3.899,-1.7996 -1.4997,-6.8984 -14.097,-1.4997 -12.5973,5.3987 -42.59,8.0982 -50.389,2.9993 -7.799,-5.0989 -23.395,-19.196 -23.395,-19.196 z"
         fill="#700000"
         fill-rule="evenodd"
         filter="url(#fg)"
         id="path1403" />
      <path
         d="m 178.31,57.246 c -4.6029,4.3668 -5.8149,10.592 -6.897,16.416 -1.1903,5.3085 -0.6543,10.892 -2.6946,16.036 -1.828,4.9189 0.1781,10.135 -1.3065,15.093 -0.9761,3.7772 -1.9125,7.6362 -1.5198,11.561 -0.9815,5.0835 -4.8263,9.5214 -3.6208,14.982 -0.1744,5.1121 -1.3612,5.85 -1.9506,10.901 -2.827,4.833 -4.8629,2.4081 -9.3698,4.0932 -0.97,0.0154 -10.024,-0.6968 -10.881,-0.1682 m 3.5605,0.4207 c 5.5849,1.3799 14.968,5.2565 18.058,-0.5701 5.0682,-8.0129 2.1556,-17.916 4.4917,-26.676 2.6526,-4.9412 3.5409,-10.499 3.4727,-16.108 1.1237,-6.2598 2.0565,-12.578 2.289,-18.924 0.9734,-6.3305 -0.5917,-12.952 1.8671,-19.045 0.916,-4.0924 2.3523,-8.0451 5.521,-10.834 m -21.836,98.14 c 6.7701,-4.3257 12.9,-11.674 11.837,-20.206 -0.5943,-7.5096 -1.8547,-15.202 0.4157,-22.585 1.951,-6.8089 2.3625,-13.916 3.0984,-20.931 0.0561,-7.8496 0.7822,-15.672 2.3193,-23.364 0.9392,-4.688 0.3045,-11.412 5.9681,-13.196 2.9146,-1.4488 8.2435,0.8741 3.196,3.0807 -3.7347,2.1463 -3.735,6.8013 -5.0771,10.465 -1.7537,7.0501 -1.7482,14.427 -4.1403,21.34 -1.4739,5.116 -2.4579,10.421 -4.332,15.383 -1.6295,7.2339 -1.9991,14.631 -1.7525,22.023 -0.1211,7.2631 0.4397,14.65 -0.4184,21.834 -1.4416,3.7279 -4.433,6.8113 -4.9913,10.878 m 18.192,-103.56 c -4.5072,8.4342 -6.3173,18.013 -7.0832,27.463 -0.3987,5.2475 -0.6178,10.497 -0.6307,15.766 -0.4543,6.3221 -3.2751,12.183 -4.1188,18.458 -2.5835,11.39 -1.3072,23.068 -1.7095,34.613 -0.0999,4.1175 -2.2149,6.7993 -1.6752,11.011 m 16.967,-104.34 c -4.2063,11.099 -3.4232,23.235 -6.2525,34.658 -1.8715,9.4912 -2.6439,19.152 -3.7801,28.733 -1.2759,6.5207 -1.6233,13.307 0.0308,19.795 1.3284,8.1634 -3.738,15.762 -2.3243,23.931 0.2182,1.3199 0.3581,3.9056 0.9558,4.4873 m 12.245,-114.58 c -6.6423,-0.9728 -7.7918,7.5987 -6.7628,12.4 1.7324,13.965 -0.59,27.927 -2.1376,41.783 -0.427,5.835 -0.5189,11.924 1.6671,17.44 1.7408,6.5194 -1.9321,12.663 -1.7385,19.151 -0.0756,5.0176 -1.064,11.471 1.275,15.757 m 3.4986,-3.4986 c -2.715,-5.8438 -0.0492,-12.604 -2.738,-18.48 -1.9476,-5.4847 -4.1269,-12.211 -0.1383,-17.363 3.3483,-6.8364 3.3468,-14.534 4.7034,-21.874 1.0959,-7.7457 1.5294,-15.559 1.9505,-23.358 0.2546,-5.1111 -0.469,-10.554 1.4451,-15.386 1.9115,-2.5897 5.4121,-2.8512 8.2468,-3.7738 m 0.1749,3.8484 c -5.1656,-1.2997 -11.783,0.8156 -13.309,6.396 -2.1644,5.3015 -1.366,11.366 1.3305,16.31 1.1537,5.0026 -1.31,9.898 -1.3898,14.911 -0.9921,5.4662 -2.1139,10.975 -1.4851,16.555 0.4618,6.5597 -1.1051,13.002 -0.7618,19.533 -0.3533,6.566 1.2415,13.472 5.9942,18.132 m 9.796,-89.038 c -4.7468,3.2409 -6.8899,8.8586 -7.5168,14.365 -1.8078,9.2568 -5.1041,18.389 -4.5566,27.941 -0.2576,8.6011 -1.3847,17.338 0.5189,25.838 -0.9266,5.4621 4.1051,7.6213 7.7616,10.222 4.1829,3.1902 7.8552,4.4607 12.889,4.8998 m 1.7493,-0.3498 c -5.6055,-0.7756 -10.981,-2.9846 -14.478,-7.7903 -4.1848,-3.6334 -9.2455,-7.3323 -9.7392,-13.358 -0.8089,-5.3154 -0.0757,-10.686 -0.715,-16.022 -0.6067,-10.005 2.9249,-19.53 4.618,-29.256 1.1468,-4.9487 1.477,-10.07 1.6736,-15.044 2.3333,-5.0175 8.5995,-4.4735 13.21,-4.7396 l 0.7074,-0.2037 m -4.1983,89.563 c -4.2104,-3.6425 -9.6784,-5.6066 -13.76,-9.1765 -3.8677,-4.1616 -2.3341,-10.05 -4.2196,-14.93 -1.3119,-5.338 -4.8503,-10.324 -3.9036,-16.004 1.0727,-5.4878 5.0922,-9.7975 6.6498,-15.15 1.5956,-4.6916 1.8498,-9.6782 2.9773,-14.488 1.3664,-6.4162 0.7311,-13.087 2.245,-19.446 l 0.4495,-0.8487 0.6405,-0.7442 m 1.7493,93.237 c -4.8292,-7.2865 -13.761,-11.706 -15.888,-20.717 -2.1115,-6.9858 -2.4616,-14.678 -0.4758,-21.711 2.2849,-5.1399 5.0198,-10.221 5.2616,-15.971 0.1455,-5.4872 3.4546,-10.07 4.2618,-15.378 0.9442,-5.9846 -0.1256,-12.178 1.1108,-18.082 0.3725,-1.0881 0.8424,-2.1553 1.0062,-3.3031 m -32.293,94.63 c 4.1775,-3.9567 13.078,-5.4944 14.618,-11.593 3.2554,-8.5643 -0.5602,-18.15 3.3639,-26.596 0.8625,-2.3602 1.8938,-4.6536 2.941,-6.9363 m 2.2741,58.776 c -3.1372,-7.1617 -2.4467,-15.194 -4.1492,-22.709 -1.7289,-9.3647 -0.9148,-18.945 -0.0855,-28.359 0.1393,-4.136 2.1144,-7.6747 4.0597,-11.207 m 1.2742,-35.98 c -1.5287,5.4243 -3.0659,10.946 -2.3808,16.641 0.002,9.3428 -5.5094,17.75 -5.206,27.134 -0.4374,5.8291 -0.5334,11.711 -2.2506,17.341 -1.2821,7.8469 1.6087,16.092 -1.1975,23.7 -0.3909,0.8963 -0.8969,1.7505 -1.5599,2.4737"
         fill="none"
         filter="url(#r)"
         opacity="0.669"
         stroke="#0a2400"
         stroke-width="0.5"
         id="path1405" />
      <path
         d="m 265.848,148.7302 11.5077,9.5331 c 0,0.5179 5.3796,3.155 5.3796,3.6729 -10e-6,1.0358 3.9124,1.0934 3.9124,2.1292 -10e-6,3.0377 0.218,3.9793 0.7768,6.2146 0.5148,2.0592 0,4.8588 0,6.9914 v 8.9335 8.545 7.3798 8.1566 7.3798 8.9335 c 0,3.332 -0.7768,6.5971 -0.7768,10.0987 0,4.2278 -0.3884,8.2868 -0.3884,12.4292 0,3.1149 -0.4072,7.4174 -1.5536,9.7103 -1.4188,2.8375 -1.9421,7.9882 -1.9421,11.2639 0,4.0275 -1.9366,8.5177 -2.7189,12.4292 -0.6622,3.3111 -1.5572,6.2287 -2.3305,9.3219 l -0.3884,1.5537 c -0.7861,3.1446 -1.7166,6.2526 -2.3305,9.3219 -0.6119,3.0597 -0.7948,5.5095 -1.5536,8.545 -0.6201,2.4804 -0.3931,5.0586 -1.5537,7.3798 -0.8413,1.6826 -0.3884,5.3586 -0.3884,7.3798 0,2.9305 0.3884,5.5942 0.3884,8.545 0,2.1925 0.0208,4.5778 -0.3884,6.2146 l -1.5536,6.2146 c -0.5049,2.0196 -1.0506,3.6549 -1.9421,5.4378 -0.8812,1.7624 -1.05,4.5885 -1.5537,6.603 -1.1252,4.501 -0.016,-1.4738 0.3884,-3.4957 0.1047,-0.5235 0.2589,-1.0358 0.3884,-1.5537 0.5939,-2.3756 0.9378,-4.1395 1.5536,-6.603 0.8144,-3.2576 2.5332,-5.9446 3.8841,-9.3219 1.3716,-3.4289 2.1811,-5.2287 3.1073,-8.9335 0.6804,-2.7218 0.3884,-5.7147 0.3884,-8.545 v -8.545 c 0,-3.2943 1.2924,-6.0734 1.9421,-9.3219 0.562,-2.81 2.4247,-5.4262 3.1073,-8.1566 0.831,-3.324 1.6406,-7.3394 2.3305,-10.0987 0.7206,-2.8826 1.6867,-5.1878 2.7189,-7.7682 1.2693,-3.1733 2.6858,-6.8591 3.4957,-10.0987 0.8127,-3.2508 0.7768,-6.2861 0.7768,-9.7103 v -9.7103 c 0,-4.6242 0.885,-8.9779 1.9421,-13.206 0.513,-2.0519 0.3884,-5.3298 0.3884,-7.3798 v -6.2146 c 0,-1.8358 0.3884,-3.7966 0.3884,-5.8262 v -6.603 c 0,-3.1166 0.3884,-6.4897 0.3884,-9.7103 v -9.7103 -9.3219 -6.603 -6.2146 c 0,-2.6474 0.0956,-5.348 -0.3884,-7.7682 -0.3748,-1.8739 -4.0828,-4.0828 -5.4378,-5.4378 -1.5353,-1.5353 -12.2008,2.8502 -13.3391,1.3324 -0.4974,-0.6632 -7.9784,-5.2742 -8.6258,-5.7921 z"
         fill="url(#dg)"
         fill-rule="evenodd"
         filter="url(#u)"
         opacity="0.481"
         id="path1407"
         style="fill:url(#dg)" />
    </g>
  </g>
</svg>
