<?xml version="1.0" encoding="UTF-8" standalone="no"?>
<svg
   xmlns:dc="http://purl.org/dc/elements/1.1/"
   xmlns:cc="http://creativecommons.org/ns#"
   xmlns:rdf="http://www.w3.org/1999/02/22-rdf-syntax-ns#"
   xmlns:svg="http://www.w3.org/2000/svg"
   xmlns="http://www.w3.org/2000/svg"
   xmlns:sodipodi="http://sodipodi.sourceforge.net/DTD/sodipodi-0.dtd"
   xmlns:inkscape="http://www.inkscape.org/namespaces/inkscape"
   id="Layer_1"
   enable-background="new 0 0 600 600"
   xml:space="preserve"
   viewBox="0 0 352.86333 324.15253"
   version="1.1"
   y="0px"
   x="0px"
   sodipodi:docname="boat.svg"
   width="93.361755mm"
   height="85.765358mm"
   inkscape:version="1.0.2-2 (e86c870879, 2021-01-15)"><defs
   id="defs399" /><sodipodi:namedview
   pagecolor="#ffffff"
   bordercolor="#666666"
   borderopacity="1"
   objecttolerance="10"
   gridtolerance="10"
   guidetolerance="10"
   inkscape:pageopacity="0"
   inkscape:pageshadow="2"
   inkscape:window-width="1920"
   inkscape:window-height="1017"
   id="namedview397"
   showgrid="false"
   units="mm"
   inkscape:zoom="1.4166667"
   inkscape:cx="228.67781"
   inkscape:cy="211.85294"
   inkscape:window-x="-8"
   inkscape:window-y="-8"
   inkscape:window-maximized="1"
   inkscape:current-layer="Layer_1"
   inkscape:document-rotation="0" />
<path
   stroke-linejoin="round"
   stroke="#3c5d5d"
   stroke-linecap="round"
   d="m 280.64035,177.87207 c -0.068,-0.31705 -0.57471,5.35048 -0.97862,9.86713 -4.2054,15.03958 -23.86876,59.48951 -27.76147,66.56415 5.06676,-1.08574 6.5144,-5.42866 9.04777,-8.32396 2.53339,-2.89529 5.42868,-5.42866 6.5144,-5.42866 0.72384,3.61911 1.44766,7.96204 3.61911,11.21925 2.17147,3.25719 7.23824,3.981 7.60014,1.08571 0.36192,-2.89527 1.08573,-10.13351 0,-12.30496 -1.08574,-2.17147 5.79058,-6.5144 7.60013,-11.94306 -0.4343,-3.17035 -4.3574,-44.7467 -5.63134,-50.73994 z"
   fill="#496e6e"
   id="path2"
   style="stroke-width:1.44764" />
<line
   stroke-linejoin="round"
   x1="323.91043"
   y2="169.73631"
   x2="278.78732"
   stroke="#878382"
   stroke-linecap="round"
   y1="286.85071"
   stroke-width="1.08573"
   fill="none"
   id="line4" />
<line
   y2="2.1714814"
   x2="227.16435"
   stroke="#c0c1c7"
   stroke-linecap="round"
   y1="172.9935"
   x1="202.23592"
   fill="none"
   id="line6"
   style="stroke-width:1.44764" />
<line
   y2="0.72381997"
   x2="227.98952"
   stroke="#c0c1c7"
   stroke-linecap="round"
   y1="208.46078"
   x1="202.23592"
   fill="none"
   id="line8"
   style="stroke-width:1.44764" />
<polygon
   points="324.58,273.62 325.6,273.62 305.5,342.22 304.49,341.97 "
   fill="#9a9ca1"
   id="polygon10"
   transform="matrix(1.4476444,0,0,1.4476444,-269.62376,-241.03279)" />
<path
   d="m 74.669489,245.3323 h 0.70067 c 0.52405,0 0.94965,-0.6471 0.94965,-1.44766 0,-0.80054 -0.4256,-1.44763 -0.94965,-1.44763 h -2.66946 c -0.52405,0 -0.94964,0.64709 -0.94964,1.44763 0,0.80056 0.42559,1.44766 0.94964,1.44766 h 0.67894 v 2.45231 l 1.28985,0.14623"
   fill="#d1d3d4"
   id="path12"
   style="stroke-width:1.44764" />
<linearGradient
   id="SVGID_1_"
   y2="334.76001"
   gradientUnits="userSpaceOnUse"
   x2="298.53"
   y1="351.45999"
   x1="281.84"
   gradientTransform="matrix(1.4476444,0,0,1.4476444,-269.62377,-241.03279)">
	<stop
   style="stop-color:#D7D8D5"
   offset="0"
   id="stop14" />
	<stop
   style="stop-color:#B6B8B6"
   offset="1"
   id="stop16" />
</linearGradient>
<path
   d="m 123.9618,253.32329 c 3.25719,-3.07624 5.97153,-6.13945 12.66688,-5.77755 6.69535,0.36192 33.83868,5.79492 36.01016,6.92119 2.17147,1.12627 3.58871,2.38427 3.76966,4.11422 l -52.43367,-5.25497 z"
   fill="url(#SVGID_1_)"
   id="path19"
   style="fill:url(#SVGID_1_);stroke-width:1.44764" />
<line
   y2="233.62085"
   x2="103.14467"
   stroke="#bbb8b8"
   y1="250.58727"
   x1="100.59682"
   fill="none"
   id="line21"
   style="stroke-width:1.44764" />
<polygon
   points="251.04,324.25 251.04,321.92 263.79,321.92 263.79,324.25 258.62,324.25 258.62,328.17 256.29,328.17 256.29,324.25 "
   fill="#cecac8"
   id="polygon23"
   transform="matrix(1.4476444,0,0,1.4476444,-269.62376,-241.03279)" />
<line
   y2="233.62085"
   x2="102.17474"
   stroke="#bbb8b8"
   stroke-linecap="round"
   y1="250.06606"
   x1="95.544525"
   fill="none"
   id="line25"
   style="stroke-width:1.44764" />
<line
   y2="251.32555"
   x2="107.92188"
   stroke="#bbb8b8"
   stroke-linecap="round"
   y1="233.62085"
   x1="104.11461"
   fill="none"
   id="line27"
   style="stroke-width:1.44764" />
<ellipse
   cy="243.88464"
   cx="72.700699"
   rx="0.75277507"
   ry="1.147982"
   fill="#ffffff"
   id="ellipse29"
   style="stroke-width:1.44764" />
<linearGradient
   id="SVGID_2_"
   y2="277.29001"
   gradientUnits="userSpaceOnUse"
   x2="321"
   y1="277.45001"
   x1="316.57999">
	<stop
   style="stop-color:#C5C7CC"
   offset="0"
   id="stop31" />
	<stop
   style="stop-color:#9A9CA1"
   offset="1"
   id="stop33" />
</linearGradient>
<polygon
   points="315.17,189.17 313.5,189.17 319.92,365.58 324.08,365.58 "
   fill="url(#SVGID_2_)"
   id="polygon36"
   style="fill:url(#SVGID_2_)"
   transform="matrix(1.4476444,0,0,1.4476444,-269.62376,-241.03279)" />
<linearGradient
   id="SVGID_3_"
   y2="319.79001"
   gradientUnits="userSpaceOnUse"
   x2="357.17999"
   y1="317.42999"
   x1="354.37">
	<stop
   style="stop-color:#C5C7CC"
   offset="0"
   id="stop38" />
	<stop
   style="stop-color:#9A9CA1"
   offset="1"
   id="stop40" />
</linearGradient>
<polygon
   points="328.33,350.83 328.33,354.17 384.94,284.5 382,284.5 "
   fill="url(#SVGID_3_)"
   id="polygon43"
   style="fill:url(#SVGID_3_)"
   transform="matrix(1.4476444,0,0,1.4476444,-269.62376,-241.03279)" />
<polygon
   points="326.61,273.62 325.6,273.62 353.65,365.56 354.67,365.56 "
   fill="#9a9ca1"
   id="polygon45"
   transform="matrix(1.4476444,0,0,1.4476444,-269.62376,-241.03279)" />
<polygon
   points="326.62,271.88 325.35,365.58 323.31,365.58 324.58,271.88 "
   fill="#b0b2b7"
   id="polygon47"
   transform="matrix(1.4476444,0,0,1.4476444,-269.62376,-241.03279)" />
<path
   stroke="#c0c1c7"
   d="M 0.72381997,251.1663 C 91.864629,205.42508 178.69723,95.182629 185.29849,31.008548"
   fill="none"
   id="path49"
   style="stroke-width:1.44764" />
<line
   y2="252.78767"
   x2="3.1993086"
   stroke="#c0c1c7"
   y1="158.18408"
   x1="200.81725"
   fill="none"
   id="line51"
   style="stroke-width:1.44764" />
<path
   stroke="#c0c1c7"
   stroke-linecap="round"
   d="m 185.29849,31.008548 c -2.17147,57.543861 0.76001,200.021012 6.21329,231.000622"
   fill="none"
   id="path53"
   style="stroke-width:1.44764" />
<path
   stroke="#c0c1c7"
   stroke-linecap="round"
   d="M 227.98952,0.72382218 C 230.16099,58.267683 213.30172,242.08957 207.84844,273.05469"
   fill="none"
   id="path55"
   style="stroke-width:1.44764" />
<path
   stroke="#c0c1c7"
   stroke-linecap="round"
   d="m 185.29849,31.008548 c 2.53337,32.21008 11.94306,165.494702 14.23613,177.929962"
   fill="none"
   id="path57"
   style="stroke-width:1.44764" />
<linearGradient
   id="SVGID_4_"
   y2="268.63"
   gradientUnits="userSpaceOnUse"
   x2="338.89001"
   y1="268.10999"
   x1="328.85999">
	<stop
   style="stop-color:#C5C7CC"
   offset="0"
   id="stop59" />
	<stop
   style="stop-color:#9A9CA1"
   offset="1"
   id="stop61" />
</linearGradient>
<polygon
   points="342.33,171.16 344,171.16 327.92,365.58 323.75,365.58 "
   fill="url(#SVGID_4_)"
   id="polygon64"
   style="fill:url(#SVGID_4_)"
   transform="matrix(1.4476444,0,0,1.4476444,-269.62376,-241.03279)" />
<path
   d="m 197.24155,263.09488 c -3.61911,0 -140.421501,-13.99437 -143.798861,-14.47643 v -2.93728 c 3.37736,0.48208 140.179751,14.47646 143.798861,14.47646 v 2.93871 z"
   fill="#727e91"
   id="path66"
   style="stroke-width:1.44764" />
<linearGradient
   id="SVGID_5_"
   y2="351.95999"
   gradientUnits="userSpaceOnUse"
   x2="320.01001"
   y1="351.95999"
   x1="225.67"
   gradientTransform="matrix(1.4476444,0,0,1.4476444,-269.62377,-241.03279)">
	<stop
   style="stop-color:#E4E6EC"
   offset="0"
   id="stop68" />
	<stop
   style="stop-color:#D1D4DA"
   offset=".45"
   id="stop70" />
</linearGradient>
<path
   d="m 193.63692,288.02333 c -8.27328,-0.136 -15.02944,-0.30257 -19.56056,-0.49366 -25.59871,-1.0756 -76.253241,-7.92584 -117.014561,-17.08075 v -21.50186 c 20.11792,2.1512 116.484711,11.99374 136.575121,13.79315 v 25.27589 z"
   fill="url(#SVGID_5_)"
   id="path73"
   style="fill:url(#SVGID_5_);stroke-width:1.44764" />
<path
   opacity="0.5"
   d="m 193.63692,263.3989 c -8.27328,-0.13599 -111.937671,-10.5345 -109.314531,-10.37383 8.00114,0.4922 -20.13383,-2.01221 -27.26059,-3.64661 v -1.6011 c 20.11792,2.15121 116.484711,11.99375 136.575121,13.79317 v 1.83849 z"
   fill="#727e91"
   id="path75"
   style="stroke-width:1.44764" />
<linearGradient
   id="SVGID_6_"
   y2="347.67999"
   gradientUnits="userSpaceOnUse"
   x2="237.42999"
   y1="341.67999"
   x1="231.44"
   gradientTransform="matrix(1.4476444,0,0,1.4476444,-269.62377,-241.03279)">
	<stop
   style="stop-color:#494849"
   offset="0"
   id="stop77" />
	<stop
   style="stop-color:#454445"
   offset=".3913"
   id="stop79" />
	<stop
   style="stop-color:#3B393A"
   offset=".7051"
   id="stop81" />
	<stop
   style="stop-color:#272324"
   offset=".9918"
   id="stop83" />
	<stop
   style="stop-color:#262323"
   offset="1"
   id="stop85" />
</linearGradient>
<rect
   height="10.294199"
   width="7.0572662"
   stroke="#a9a3a1"
   y="252.78767"
   x="66.229736"
   stroke-width="0.723822"
   fill="url(#SVGID_6_)"
   id="rect88"
   style="fill:url(#SVGID_6_)" />
<linearGradient
   id="SVGID_7_"
   y2="346.60999"
   gradientUnits="userSpaceOnUse"
   x2="230.67"
   y1="341.25"
   x1="225.31"
   gradientTransform="matrix(1.4476444,0,0,1.4476444,-269.62377,-241.03279)">
	<stop
   style="stop-color:#494849"
   offset="0"
   id="stop90" />
	<stop
   style="stop-color:#454445"
   offset=".3913"
   id="stop92" />
	<stop
   style="stop-color:#3B393A"
   offset=".7051"
   id="stop94" />
	<stop
   style="stop-color:#272324"
   offset=".9918"
   id="stop96" />
	<stop
   style="stop-color:#262323"
   offset="1"
   id="stop98" />
</linearGradient>
<rect
   height="10.294199"
   width="5.2202053"
   stroke="#a9a3a1"
   y="251.71645"
   x="57.818939"
   stroke-width="0.723822"
   fill="url(#SVGID_7_)"
   id="rect101"
   style="fill:url(#SVGID_7_)" />
<linearGradient
   id="SVGID_8_"
   y2="348.26999"
   gradientUnits="userSpaceOnUse"
   x2="245.73"
   y1="342.20001"
   x1="239.64999"
   gradientTransform="matrix(1.4476444,0,0,1.4476444,-269.62377,-241.03279)">
	<stop
   style="stop-color:#494849"
   offset="0"
   id="stop103" />
	<stop
   style="stop-color:#454445"
   offset=".3913"
   id="stop105" />
	<stop
   style="stop-color:#3B393A"
   offset=".7051"
   id="stop107" />
	<stop
   style="stop-color:#272324"
   offset=".9918"
   id="stop109" />
	<stop
   style="stop-color:#262323"
   offset="1"
   id="stop111" />
</linearGradient>
<rect
   height="9.450223"
   width="8.1429996"
   stroke="#a9a3a1"
   y="254.01817"
   x="77.637177"
   stroke-width="0.723822"
   fill="url(#SVGID_8_)"
   id="rect114"
   style="fill:url(#SVGID_8_)" />
<linearGradient
   id="SVGID_9_"
   y2="356.79999"
   gradientUnits="userSpaceOnUse"
   x2="259.03"
   y1="346.47"
   x1="248.71001">
	<stop
   style="stop-color:#494849"
   offset="0"
   id="stop116" />
	<stop
   style="stop-color:#454445"
   offset=".3913"
   id="stop118" />
	<stop
   style="stop-color:#3B393A"
   offset=".7051"
   id="stop120" />
	<stop
   style="stop-color:#272324"
   offset=".9918"
   id="stop122" />
	<stop
   style="stop-color:#262323"
   offset="1"
   id="stop124" />
</linearGradient>
<polygon
   stroke="#a9a3a1"
   stroke-width="0.5"
   points="256.5,344.43 256.5,359.33 250.75,358.36 250.75,344.43 "
   fill="url(#SVGID_9_)"
   id="polygon127"
   style="fill:url(#SVGID_9_)"
   transform="matrix(1.4476444,0,0,1.4476444,-269.62376,-241.03279)" />
<linearGradient
   id="SVGID_10_"
   y2="352.81"
   gradientUnits="userSpaceOnUse"
   x2="273"
   y1="346.75"
   x1="266.94"
   gradientTransform="matrix(1.4476444,0,0,1.4476444,-269.62377,-241.03279)">
	<stop
   style="stop-color:#787779"
   offset="0"
   id="stop129" />
	<stop
   style="stop-color:#757576"
   offset=".3166"
   id="stop131" />
	<stop
   style="stop-color:#6E6D6E"
   offset=".5708"
   id="stop133" />
	<stop
   style="stop-color:#616061"
   offset=".8026"
   id="stop135" />
	<stop
   style="stop-color:#504E50"
   offset="1"
   id="stop137" />
</linearGradient>
<rect
   height="10.223264"
   width="7.3279757"
   stroke="#a9a3a1"
   y="260.21408"
   x="117.53427"
   stroke-width="0.723822"
   fill="url(#SVGID_10_)"
   id="rect140"
   style="fill:url(#SVGID_10_)" />
<linearGradient
   id="SVGID_11_"
   y2="354.53"
   gradientUnits="userSpaceOnUse"
   x2="291.16"
   y1="349.09"
   x1="285.72"
   gradientTransform="matrix(1.4476444,0,0,1.4476444,-269.62377,-241.03279)">
	<stop
   style="stop-color:#787779"
   offset="0"
   id="stop142" />
	<stop
   style="stop-color:#757576"
   offset=".3166"
   id="stop144" />
	<stop
   style="stop-color:#6E6D6E"
   offset=".5708"
   id="stop146" />
	<stop
   style="stop-color:#616061"
   offset=".8026"
   id="stop148" />
	<stop
   style="stop-color:#504E50"
   offset="1"
   id="stop150" />
</linearGradient>
<rect
   height="9.5906448"
   width="6.1524882"
   stroke="#a9a3a1"
   y="263.47131"
   x="144.8513"
   stroke-width="0.723822"
   fill="url(#SVGID_11_)"
   id="rect153"
   style="fill:url(#SVGID_11_)" />
<linearGradient
   id="SVGID_12_"
   y2="356.10999"
   gradientUnits="userSpaceOnUse"
   x2="311.70001"
   y1="349.70001"
   x1="305.29999"
   gradientTransform="matrix(1.4476444,0,0,1.4476444,-269.62377,-241.03279)">
	<stop
   style="stop-color:#787779"
   offset="0"
   id="stop155" />
	<stop
   style="stop-color:#757576"
   offset=".3166"
   id="stop157" />
	<stop
   style="stop-color:#6E6D6E"
   offset=".5708"
   id="stop159" />
	<stop
   style="stop-color:#616061"
   offset=".8026"
   id="stop161" />
	<stop
   style="stop-color:#504E50"
   offset="1"
   id="stop163" />
</linearGradient>
<rect
   height="9.8613529"
   width="8.6858664"
   stroke="#a9a3a1"
   y="264.91895"
   x="172.63161"
   stroke-width="0.723822"
   fill="url(#SVGID_12_)"
   id="rect166"
   style="fill:url(#SVGID_12_)" />
<linearGradient
   id="SVGID_13_"
   y2="301.81"
   gradientUnits="userSpaceOnUse"
   x2="367.56"
   y1="433.56"
   x1="235.81"
   gradientTransform="matrix(1.4476444,0,0,1.4476444,-269.62377,-241.03279)">
	<stop
   style="stop-color:#E9EAED"
   offset="0"
   id="stop168" />
	<stop
   style="stop-color:#DADBE0"
   offset="1"
   id="stop170" />
</linearGradient>
<path
   stroke="#cbced4"
   stroke-width="0.361911"
   d="m 342.00598,322.8247 c -13.3907,0.72381 -316.310298,2.17147 -334.043943,0 C 6.514402,314.86266 0.72381997,258.04262 0.72381997,251.1663 24.609966,268.53803 132.45947,285.54785 174.07924,287.29662 c 30.73494,1.29274 163.94573,1.50844 178.06027,-1.74877 0,11.58117 -5.42868,30.76245 -10.13353,37.27685 z"
   fill="url(#SVGID_13_)"
   id="path173"
   style="fill:url(#SVGID_13_)" />
<linearGradient
   id="SVGID_14_"
   y2="388.14999"
   gradientUnits="userSpaceOnUse"
   x2="423.62"
   y1="388.14999"
   x1="191.25"
   gradientTransform="matrix(1.4476444,0,0,1.4476444,-269.62377,-241.03279)">
	<stop
   style="stop-color:#4E8EB9"
   offset="0"
   id="stop175" />
	<stop
   style="stop-color:#2B5775"
   offset="1"
   id="stop177" />
</linearGradient>
<path
   d="m 341.94808,322.8247 c -13.3907,0.72381 -316.252398,2.17147 -333.986043,0 L 7.23822,317.75793 c 9.112921,1.11615 94.14611,3.12548 176.48233,3.66255 77.90354,0.50813 153.39241,-0.41548 159.90681,-0.76726 -0.4922,1.44766 -1.04232,1.27394 -1.67928,2.17148 z"
   fill="url(#SVGID_14_)"
   id="path180"
   style="fill:url(#SVGID_14_);stroke-width:1.44764" />
<linearGradient
   id="SVGID_15_"
   y2="356.31"
   gradientUnits="userSpaceOnUse"
   x2="312"
   y1="356.31"
   x1="186.75"
   gradientTransform="matrix(1.4476444,0,0,1.4476444,-269.62377,-241.03279)">
	<stop
   style="stop-color:#5DA9DD"
   offset="0"
   id="stop182" />
	<stop
   style="stop-color:#4680A8"
   offset="1"
   id="stop184" />
</linearGradient>
<path
   d="M 182.04128,298.38845 C 140.42151,296.63971 28.590973,281.31784 1.751657,265.31848 L 0.71947797,251.1605 C 24.605624,268.53225 132.45513,285.54206 174.0749,287.29082 l 7.96204,11.08895 z"
   fill="url(#SVGID_15_)"
   id="path187"
   style="fill:url(#SVGID_15_);stroke-width:1.44764" />
<linearGradient
   id="SVGID_16_"
   y2="306.10999"
   gradientUnits="userSpaceOnUse"
   x2="362.88"
   y1="415.98999"
   x1="253"
   gradientTransform="matrix(1.4476444,0,0,1.4476444,-269.62377,-241.03279)">
	<stop
   style="stop-color:#9A9CA1"
   offset="0"
   id="stop189" />
	<stop
   style="stop-color:#5B5D61"
   offset="1"
   id="stop191" />
</linearGradient>
<path
   d="m 1.447637,265.99017 c 23.765985,16.76662 131.011833,31.48627 172.631603,33.23503 30.73494,1.29274 162.49808,2.95608 176.61261,-0.30111 l 0.36192,-1.44765 c -14.11453,3.25721 -146.24104,1.59387 -176.97453,0.30111 C 132.45947,296.0288 25.333784,279.94402 1.447637,264.54254 Z"
   fill="url(#SVGID_16_)"
   id="path194"
   style="fill:url(#SVGID_16_);stroke-width:1.44764" />
<rect
   y="296.81055"
   x="242.00273"
   height="2.4667859"
   width="4.6599674"
   fill="#404146"
   id="rect196"
   style="stroke-width:1.44764" />
<rect
   y="296.81055"
   x="286.8797"
   height="2.4667859"
   width="4.6599674"
   fill="#404146"
   id="rect198"
   style="stroke-width:1.44764" />
<rect
   y="296.81055"
   x="264.44122"
   height="2.4667859"
   width="4.6599674"
   fill="#404146"
   id="rect200"
   style="stroke-width:1.44764" />
<polygon
   stroke-linejoin="round"
   fill="#707277"
   stroke="#707277"
   stroke-linecap="round"
   stroke-width="0.25"
   points="387.12,285.25 387.12,283.5 376.88,282.25 376.88,284 "
   id="polygon202"
   transform="matrix(1.4476444,0,0,1.4476444,-269.62376,-241.03279)" />
<polyline
   stroke-linejoin="round"
   stroke="#707277"
   stroke-linecap="round"
   points="377.12 283 378.75 290.12 386.88 284.25"
   fill="none"
   id="polyline204"
   transform="matrix(1.4476444,0,0,1.4476444,-269.62376,-241.03279)" />
<g
   id="g215"
   transform="matrix(1.4476444,0,0,1.4476444,-269.62376,-241.03279)">
	<g
   id="g213">
		<linearGradient
   id="SVGID_17_"
   y2="362.07001"
   gradientUnits="userSpaceOnUse"
   x2="317.22"
   y1="357.26001"
   x1="312.42001">
			<stop
   style="stop-color:#C5C7CC"
   offset="0"
   id="stop206" />
			<stop
   style="stop-color:#9A9CA1"
   offset="1"
   id="stop208" />
		</linearGradient>
		<path
   stroke="#c3c1c1"
   stroke-width="0.3906"
   d="m 314.81,356.38 c 0.988,0 1.811,0.312 2.469,0.938 0.656,0.625 0.985,1.41 0.985,2.353 0,0.943 -0.33,1.724 -0.994,2.342 -0.664,0.618 -1.501,0.928 -2.511,0.928 -0.963,0 -1.766,-0.31 -2.408,-0.928 -0.642,-0.618 -0.963,-1.393 -0.963,-2.323 0,-0.955 0.322,-1.746 0.97,-2.371 0.65,-0.63 1.46,-0.94 2.45,-0.94 z m 0.04,1.48 c -0.549,0 -1,0.171 -1.354,0.515 -0.354,0.343 -0.529,0.782 -0.529,1.314 0,0.518 0.177,0.947 0.531,1.291 0.354,0.343 0.798,0.515 1.331,0.515 0.534,0 0.981,-0.175 1.34,-0.525 0.357,-0.35 0.535,-0.786 0.535,-1.308 0,-0.509 -0.178,-0.936 -0.535,-1.281 -0.35,-0.36 -0.79,-0.53 -1.31,-0.53 z"
   fill="url(#SVGID_17_)"
   id="path211"
   style="fill:url(#SVGID_17_)" />
	</g>
</g>
<path
   d="M 57.775479,278.75839 C 37.507009,275.05388 18.351783,269.47612 4.468887,263.55089"
   fill="none"
   id="path217"
   style="stroke-width:1.44764" />
<text
   font-size="6.51446px"
   font-family="ImprintMT-Shadow"
   transform="matrix(0.95794392,0.38775609,-0.29243778,0.92552962,0,0)"
   fill="#9e792c"
   id="text219"
   x="81.649559"
   y="250.72916"
   style="stroke-width:1.42914">L</text>
<text
   font-size="6.51436px"
   font-family="ImprintMT-Shadow"
   transform="matrix(0.96616345,0.36041199,-0.26306631,0.93688884,0,0)"
   fill="#9e792c"
   id="text221"
   x="78.519997"
   y="253.16127"
   style="stroke-width:1.42912">A</text>
<text
   font-size="6.51444px"
   font-family="ImprintMT-Shadow"
   transform="matrix(0.97293708,0.3346782,-0.23551054,0.94680301,0,0)"
   fill="#9e792c"
   id="text223"
   x="75.985199"
   y="255.32941"
   style="stroke-width:1.42914">D</text>
<text
   font-size="6.5143px"
   font-family="ImprintMT-Shadow"
   transform="matrix(0.97832768,0.31169127,-0.21100192,0.95492805,0,0)"
   fill="#9e792c"
   id="text225"
   x="75.096458"
   y="257.21661"
   style="stroke-width:1.42911">Y</text>
<text
   font-size="6.51446px"
   font-family="ImprintMT-Shadow"
   transform="matrix(0.98113922,0.2986164,-0.19701794,0.95925959,0,0)"
   fill="#9e792c"
   id="text227"
   x="76.152145"
   y="258.28937"
   style="stroke-width:1.42914"> </text>
<text
   font-size="6.5143px"
   font-family="ImprintMT-Shadow"
   transform="matrix(0.9835963,0.28606343,-0.18375321,0.96323555,0,0)"
   fill="#9e792c"
   id="text229"
   x="74.28302"
   y="259.28174"
   style="stroke-width:1.42911">A</text>
<text
   font-size="6.51438px"
   font-family="ImprintMT-Shadow"
   transform="matrix(0.98692432,0.26792721,-0.16450427,0.9685898,0,0)"
   fill="#9e792c"
   id="text231"
   x="73.939125"
   y="260.72443"
   style="stroke-width:1.42913">R</text>
<text
   font-size="6.51444px"
   font-family="ImprintMT-Shadow"
   transform="matrix(0.989651,0.25060354,-0.14616852,0.97344382,0,0)"
   fill="#9e792c"
   id="text233"
   x="74.07959"
   y="262.08707"
   style="stroke-width:1.42914">V</text>
<text
   font-size="6.51438px"
   font-family="ImprintMT-Shadow"
   transform="matrix(0.99188903,0.2346012,-0.12925351,0.97760631,0,0)"
   fill="#9e792c"
   id="text235"
   x="74.421333"
   y="263.33078"
   style="stroke-width:1.42912">E</text>
<text
   font-size="6.51426px"
   font-family="ImprintMT-Shadow"
   transform="matrix(0.99383214,0.21920831,-0.11304828,0.98127122,0,0)"
   fill="#9e792c"
   id="text237"
   x="74.635536"
   y="264.54382"
   style="stroke-width:1.4291">Y</text>
<g
   id="g269"
   transform="matrix(1.4476444,0,0,1.4476444,-269.62376,-241.03279)">
	<g
   opacity="0.5"
   id="g252">
		<g
   opacity="0.6"
   id="g241">
			<path
   opacity="0.8"
   d="m 284.11,366.81 c -0.71,0 -1.294,0.222 -1.753,0.666 -0.458,0.444 -0.686,1.014 -0.686,1.703 0,0.67 0.229,1.228 0.688,1.672 0.459,0.445 1.034,0.666 1.724,0.666 0.693,0 1.272,-0.226 1.734,-0.679 0.463,-0.453 0.695,-1.019 0.695,-1.694 0,-0.658 -0.232,-1.212 -0.695,-1.66 -0.45,-0.46 -1.02,-0.68 -1.69,-0.68 z"
   fill="#58595b"
   id="path239" />
		</g>
		<g
   id="g250">
			<radialGradient
   id="SVGID_18_"
   gradientUnits="userSpaceOnUse"
   cy="364.94"
   cx="284.12"
   r="6.4569001">
				<stop
   style="stop-color:#504E50"
   offset="0"
   id="stop243" />
				<stop
   style="stop-color:#383738"
   offset="1"
   id="stop245" />
			</radialGradient>
			<path
   d="m 284.07,364.9 c 1.28,0 2.345,0.405 3.196,1.216 0.851,0.81 1.277,1.825 1.277,3.047 0,1.222 -0.429,2.232 -1.289,3.032 -0.859,0.801 -1.942,1.201 -3.25,1.201 -1.248,0 -2.288,-0.4 -3.119,-1.201 -0.832,-0.8 -1.247,-1.803 -1.247,-3.009 0,-1.237 0.418,-2.261 1.256,-3.07 0.83,-0.82 1.89,-1.22 3.17,-1.22 z m 0.04,1.91 c -0.71,0 -1.295,0.222 -1.753,0.666 -0.458,0.444 -0.686,1.014 -0.686,1.703 0,0.67 0.229,1.228 0.688,1.672 0.459,0.445 1.034,0.666 1.724,0.666 0.693,0 1.271,-0.226 1.735,-0.679 0.463,-0.453 0.695,-1.019 0.695,-1.694 0,-0.658 -0.232,-1.212 -0.695,-1.66 -0.47,-0.46 -1.04,-0.68 -1.71,-0.68 z"
   fill="url(#SVGID_18_)"
   id="path248"
   style="fill:url(#SVGID_18_)" />
		</g>
	</g>
	<g
   id="g267">
		<g
   opacity="0.6"
   id="g256">
			<path
   opacity="0.8"
   d="m 284.11,366.56 c -0.71,0 -1.294,0.222 -1.753,0.666 -0.458,0.444 -0.686,1.014 -0.686,1.703 0,0.67 0.229,1.228 0.688,1.672 0.459,0.445 1.034,0.666 1.724,0.666 0.693,0 1.272,-0.226 1.734,-0.679 0.463,-0.453 0.695,-1.019 0.695,-1.694 0,-0.658 -0.232,-1.212 -0.695,-1.66 -0.45,-0.46 -1.02,-0.68 -1.69,-0.68 z"
   fill="#58595b"
   id="path254" />
		</g>
		<g
   id="g265">
			<radialGradient
   id="SVGID_19_"
   gradientUnits="userSpaceOnUse"
   cy="364.69"
   cx="284.12"
   r="6.4569001">
				<stop
   style="stop-color:#504E50"
   offset="0"
   id="stop258" />
				<stop
   style="stop-color:#383738"
   offset="1"
   id="stop260" />
			</radialGradient>
			<path
   d="m 284.07,364.65 c 1.28,0 2.345,0.405 3.196,1.216 0.851,0.81 1.277,1.825 1.277,3.047 0,1.222 -0.429,2.232 -1.289,3.032 -0.859,0.801 -1.942,1.201 -3.25,1.201 -1.248,0 -2.288,-0.4 -3.119,-1.201 -0.832,-0.8 -1.247,-1.803 -1.247,-3.009 0,-1.237 0.418,-2.261 1.256,-3.07 0.83,-0.82 1.89,-1.22 3.17,-1.22 z m 0.04,1.91 c -0.71,0 -1.295,0.222 -1.753,0.666 -0.458,0.444 -0.686,1.014 -0.686,1.703 0,0.67 0.229,1.228 0.688,1.672 0.459,0.445 1.034,0.666 1.724,0.666 0.693,0 1.271,-0.226 1.735,-0.679 0.463,-0.453 0.695,-1.019 0.695,-1.694 0,-0.658 -0.232,-1.212 -0.695,-1.66 -0.47,-0.46 -1.04,-0.68 -1.71,-0.68 z"
   fill="url(#SVGID_19_)"
   id="path263"
   style="fill:url(#SVGID_19_)" />
		</g>
	</g>
</g>
<g
   id="g301"
   transform="matrix(1.4476444,0,0,1.4476444,-269.62376,-241.03279)">
	<g
   opacity="0.5"
   id="g284">
		<g
   opacity="0.6"
   id="g273">
			<path
   opacity="0.8"
   d="m 320.98,369.06 c -0.71,0 -1.294,0.222 -1.753,0.666 -0.457,0.444 -0.686,1.014 -0.686,1.703 0,0.67 0.229,1.228 0.688,1.672 0.459,0.445 1.033,0.666 1.725,0.666 0.692,0 1.271,-0.226 1.734,-0.679 0.463,-0.453 0.695,-1.019 0.695,-1.694 0,-0.658 -0.232,-1.212 -0.695,-1.66 -0.46,-0.46 -1.03,-0.68 -1.7,-0.68 z"
   fill="#58595b"
   id="path271" />
		</g>
		<g
   id="g282">
			<radialGradient
   id="SVGID_20_"
   gradientUnits="userSpaceOnUse"
   cy="367.17999"
   cx="321"
   r="6.4566998">
				<stop
   style="stop-color:#504E50"
   offset="0"
   id="stop275" />
				<stop
   style="stop-color:#383738"
   offset="1"
   id="stop277" />
			</radialGradient>
			<path
   d="m 320.94,367.14 c 1.279,0 2.345,0.405 3.195,1.216 0.852,0.81 1.277,1.825 1.277,3.047 0,1.222 -0.43,2.232 -1.289,3.032 -0.858,0.801 -1.941,1.201 -3.25,1.201 -1.247,0 -2.287,-0.4 -3.119,-1.201 -0.831,-0.8 -1.246,-1.803 -1.246,-3.009 0,-1.237 0.418,-2.261 1.256,-3.07 0.83,-0.81 1.89,-1.22 3.17,-1.22 z m 0.04,1.92 c -0.711,0 -1.295,0.222 -1.753,0.666 -0.458,0.444 -0.686,1.014 -0.686,1.703 0,0.67 0.229,1.228 0.688,1.672 0.459,0.445 1.033,0.666 1.723,0.666 0.693,0 1.271,-0.226 1.735,-0.679 0.463,-0.453 0.694,-1.019 0.694,-1.694 0,-0.658 -0.231,-1.212 -0.694,-1.66 -0.45,-0.46 -1.02,-0.68 -1.7,-0.68 z"
   fill="url(#SVGID_20_)"
   id="path280"
   style="fill:url(#SVGID_20_)" />
		</g>
	</g>
	<g
   id="g299">
		<g
   opacity="0.6"
   id="g288">
			<path
   opacity="0.8"
   d="m 320.98,368.8 c -0.71,0 -1.294,0.222 -1.753,0.666 -0.457,0.444 -0.686,1.014 -0.686,1.703 0,0.67 0.229,1.228 0.688,1.672 0.459,0.445 1.033,0.666 1.725,0.666 0.692,0 1.271,-0.226 1.734,-0.679 0.463,-0.453 0.695,-1.019 0.695,-1.694 0,-0.658 -0.232,-1.212 -0.695,-1.66 -0.46,-0.45 -1.03,-0.68 -1.7,-0.68 z"
   fill="#58595b"
   id="path286" />
		</g>
		<g
   id="g297">
			<radialGradient
   id="SVGID_21_"
   gradientUnits="userSpaceOnUse"
   cy="366.92999"
   cx="321"
   r="6.4566998">
				<stop
   style="stop-color:#504E50"
   offset="0"
   id="stop290" />
				<stop
   style="stop-color:#383738"
   offset="1"
   id="stop292" />
			</radialGradient>
			<path
   d="m 320.94,366.89 c 1.279,0 2.345,0.405 3.195,1.216 0.852,0.81 1.277,1.825 1.277,3.047 0,1.222 -0.43,2.232 -1.289,3.032 -0.858,0.801 -1.941,1.201 -3.25,1.201 -1.247,0 -2.287,-0.4 -3.119,-1.201 -0.831,-0.8 -1.246,-1.803 -1.246,-3.009 0,-1.237 0.418,-2.261 1.256,-3.07 0.83,-0.81 1.89,-1.22 3.17,-1.22 z m 0.04,1.91 c -0.711,0 -1.295,0.222 -1.753,0.666 -0.458,0.444 -0.686,1.014 -0.686,1.703 0,0.67 0.229,1.228 0.688,1.672 0.459,0.445 1.033,0.666 1.723,0.666 0.693,0 1.271,-0.226 1.735,-0.679 0.463,-0.453 0.694,-1.019 0.694,-1.694 0,-0.658 -0.231,-1.212 -0.694,-1.66 -0.45,-0.45 -1.02,-0.68 -1.7,-0.68 z"
   fill="url(#SVGID_21_)"
   id="path295"
   style="fill:url(#SVGID_21_)" />
		</g>
	</g>
</g>
<path
   stroke-linejoin="round"
   stroke="#898b91"
   stroke-linecap="round"
   d="M 0.72381997,251.52822 C 24.609966,268.89994 132.45947,285.90977 174.07924,287.65852 c 30.73494,1.29276 163.94573,1.50844 178.06027,-1.74875"
   fill="none"
   id="path303"
   style="stroke-width:1.44764" />
<g
   id="g314"
   transform="matrix(1.4476444,0,0,1.4476444,-269.62376,-241.03279)">
	<g
   id="g312">
		<linearGradient
   id="SVGID_22_"
   y2="361.82001"
   gradientUnits="userSpaceOnUse"
   x2="317.22"
   y1="357.01001"
   x1="312.42001">
			<stop
   style="stop-color:#EBECEF"
   offset="0"
   id="stop305" />
			<stop
   style="stop-color:#DEDDDF"
   offset=".9939"
   id="stop307" />
		</linearGradient>
		<path
   stroke="#c3c1c1"
   stroke-width="0.3906"
   d="m 314.81,356.13 c 0.988,0 1.811,0.312 2.469,0.938 0.656,0.625 0.985,1.41 0.985,2.353 0,0.943 -0.33,1.724 -0.994,2.342 -0.664,0.618 -1.501,0.928 -2.511,0.928 -0.963,0 -1.766,-0.31 -2.408,-0.928 -0.642,-0.618 -0.963,-1.393 -0.963,-2.323 0,-0.955 0.322,-1.746 0.97,-2.371 0.65,-0.63 1.46,-0.94 2.45,-0.94 z m 0.04,1.47 c -0.549,0 -1,0.171 -1.354,0.515 -0.354,0.343 -0.529,0.782 -0.529,1.314 0,0.518 0.177,0.947 0.531,1.291 0.354,0.343 0.798,0.515 1.331,0.515 0.534,0 0.981,-0.175 1.34,-0.525 0.357,-0.35 0.535,-0.786 0.535,-1.308 0,-0.509 -0.178,-0.936 -0.535,-1.281 -0.35,-0.35 -0.79,-0.53 -1.31,-0.53 z"
   fill="url(#SVGID_22_)"
   id="path310"
   style="fill:url(#SVGID_22_)" />
	</g>
</g>
<path
   d="M 57.399099,278.75839 C 37.130629,275.05388 17.975404,269.1142 4.092487,263.18899"
   fill="none"
   id="path316"
   style="stroke-width:1.44764" />
<text
   font-size="6.51444px"
   font-family="ImprintMT-Shadow"
   transform="matrix(0.95713648,0.39049224,-0.29527493,0.9243169,0,0)"
   fill="#fed09e"
   id="text318"
   x="81.932266"
   y="250.33679"
   style="stroke-width:1.42914">L</text>
<text
   font-size="6.51442px"
   font-family="ImprintMT-Shadow"
   transform="matrix(0.96443332,0.36648669,-0.26954701,0.93444989,0,0)"
   fill="#fed09e"
   id="text320"
   x="79.708801"
   y="252.48903"
   style="stroke-width:1.42913">A</text>
<text
   font-size="6.51454px"
   font-family="ImprintMT-Shadow"
   transform="matrix(0.97089653,0.34267532,-0.24401562,0.94385121,0,0)"
   fill="#fed09e"
   id="text322"
   x="77.777275"
   y="254.52673"
   style="stroke-width:1.42916">D</text>
<text
   font-size="6.51463px"
   font-family="ImprintMT-Shadow"
   transform="matrix(0.976254,0.32089362,-0.22081695,0.9517413,0,0)"
   fill="#fed09e"
   id="text324"
   x="77.19117"
   y="256.37167"
   style="stroke-width:1.42918">Y</text>
<text
   font-size="6.51456px"
   font-family="ImprintMT-Shadow"
   transform="matrix(0.9790979,0.30823452,-0.20724543,0.95610439,0,0)"
   fill="#fed09e"
   id="text326"
   x="78.369499"
   y="257.43369"
   style="stroke-width:1.42917"> </text>
<text
   font-size="6.51469px"
   font-family="ImprintMT-Shadow"
   transform="matrix(0.98171262,0.29587109,-0.19407361,0.96013763,0,0)"
   fill="#fed09e"
   id="text328"
   x="76.530869"
   y="258.45578"
   style="stroke-width:1.42919">A</text>
<text
   font-size="6.51452px"
   font-family="ImprintMT-Shadow"
   transform="matrix(0.98528471,0.2773424,-0.17442791,0.9658363,0,0)"
   fill="#fed09e"
   id="text330"
   x="76.086296"
   y="259.9805"
   style="stroke-width:1.42915">R</text>
<text
   font-size="6.51424px"
   font-family="ImprintMT-Shadow"
   transform="matrix(0.98836527,0.25922176,-0.15528994,0.9710433,0,0)"
   fill="#fed09e"
   id="text332"
   x="76.026451"
   y="261.45346"
   style="stroke-width:1.42909">V</text>
<text
   font-size="6.51419px"
   font-family="ImprintMT-Shadow"
   transform="matrix(0.99090284,0.24200234,-0.137057,0.97570805,0,0)"
   fill="#fed09e"
   id="text334"
   x="76.031029"
   y="262.82004"
   style="stroke-width:1.42909">E</text>
<text
   font-size="6.51442px"
   font-family="ImprintMT-Shadow"
   transform="matrix(0.99309753,0.2250778,-0.11922438,0.97992917,0,0)"
   fill="#fed09e"
   id="text336"
   x="75.810577"
   y="264.17444"
   style="stroke-width:1.42913">Y</text>
<linearGradient
   id="SVGID_23_"
   y2="367.22"
   gradientUnits="userSpaceOnUse"
   x2="335.17001"
   y1="353.60999"
   x1="331.51999">
	<stop
   style="stop-color:#74767B"
   offset="0"
   id="stop338" />
	<stop
   style="stop-color:#6E7075"
   offset=".2774"
   id="stop340" />
	<stop
   style="stop-color:#5C5E63"
   offset=".7283"
   id="stop342" />
	<stop
   style="stop-color:#4F5054"
   offset="1"
   id="stop344" />
</linearGradient>
<polygon
   points="342.88,355.91 342.88,365.16 323.88,365.16 323.88,355.66 "
   fill="url(#SVGID_23_)"
   id="polygon347"
   style="fill:url(#SVGID_23_)"
   transform="matrix(1.4476444,0,0,1.4476444,-269.62376,-241.03279)" />
<linearGradient
   id="SVGID_24_"
   y2="368.95001"
   gradientUnits="userSpaceOnUse"
   x2="367.45999"
   y1="354.57999"
   x1="353.09"
   gradientTransform="matrix(1.4476444,0,0,1.4476444,-269.62377,-241.03279)">
	<stop
   style="stop-color:#BA7043"
   offset="0"
   id="stop349" />
	<stop
   style="stop-color:#87512D"
   offset=".6"
   id="stop351" />
</linearGradient>
<rect
   height="10.495422"
   width="31.124355"
   stroke="#673c1c"
   y="277.42657"
   x="236.37141"
   fill="url(#SVGID_24_)"
   id="rect354"
   style="fill:url(#SVGID_24_);stroke-width:1.44764" />
<line
   stroke-linejoin="round"
   y2="287.42981"
   x2="266.82983"
   stroke="#774625"
   stroke-linecap="round"
   y1="277.91879"
   x1="237.02281"
   fill="none"
   id="line356"
   style="stroke-width:1.44764" />
<g
   stroke-linejoin="round"
   stroke="#567f7e"
   stroke-linecap="round"
   id="g362"
   transform="matrix(1.4476444,0,0,1.4476444,-269.62376,-241.03279)">
	<path
   opacity="0.5"
   d="m 339.78,315.26 c 8.25,7.5 21.75,21.5 30.5,6 l -18,35 z"
   fill="#668e76"
   id="path358" />
	<path
   d="m 339.78,315.26 c 8.25,7.5 21.75,21.5 30.5,6 l -18,35 z"
   fill="none"
   id="path360" />
</g>
<path
   opacity="0.7"
   stroke-linejoin="round"
   d="m 277.39762,254.94465 c 1.77916,-3.24851 1.08574,-10.13351 0,-12.30498 0,0 5.79058,-6.5144 7.60014,-11.94307 2.516,-2.97056 5.61395,-15.99212 4.16632,-33.84591 3.5583,17.85379 22.95963,61.6378 26.94065,72.13323 -10.1335,-7.96206 -40.14317,-11.40745 -38.71,-14.04216 z"
   stroke="#3c5d5d"
   stroke-linecap="round"
   fill="#496e6e"
   id="path364"
   style="stroke-width:1.44764" />
<line
   stroke-linejoin="round"
   x1="290.44089"
   y2="286.85071"
   x2="332.95819"
   stroke="#878382"
   stroke-linecap="round"
   y1="170.46013"
   stroke-width="1.08573"
   fill="none"
   id="line366" />
<g
   stroke-linejoin="round"
   stroke="#878382"
   stroke-linecap="round"
   stroke-width="0.75"
   fill="none"
   id="g390"
   transform="matrix(1.4476444,0,0,1.4476444,-269.62376,-241.03279)">
		<line
   x1="381.98001"
   y2="291.84"
   x2="389.53"
   y1="291.07001"
   id="line368" />
		<line
   x1="383.95999"
   y2="297.23001"
   x2="391.51001"
   y1="296.45999"
   id="line370" />
		<line
   x1="385.92999"
   y2="302.62"
   x2="393.48001"
   y1="301.85999"
   id="line372" />
		<line
   x1="387.89999"
   y2="308.01999"
   x2="395.45999"
   y1="307.25"
   id="line374" />
		<line
   x1="389.88"
   y2="313.41"
   x2="397.42999"
   y1="312.64001"
   id="line376" />
		<line
   x1="391.85001"
   y2="318.79999"
   x2="399.41"
   y1="318.04001"
   id="line378" />
		<line
   x1="393.82999"
   y2="324.20001"
   x2="401.38"
   y1="323.42999"
   id="line380" />
		<line
   x1="395.79999"
   y2="329.59"
   x2="403.35999"
   y1="328.82001"
   id="line382" />
		<line
   x1="397.78"
   y2="334.98001"
   x2="405.32999"
   y1="334.22"
   id="line384" />
		<line
   x1="399.75"
   y2="340.38"
   x2="407.31"
   y1="339.60999"
   id="line386" />
		<line
   x1="401.73001"
   y2="345.76999"
   x2="409.28"
   y1="345"
   id="line388" />
</g>
<line
   y2="167.56483"
   x2="200.05"
   stroke="#c0c1c7"
   stroke-linecap="round"
   y1="32.818108"
   x1="186.63033"
   fill="none"
   id="line392"
   style="stroke-width:1.44764" />
<metadata
   id="metadata394"><rdf:RDF><cc:Work><dc:format>image/svg+xml</dc:format><dc:type
         rdf:resource="http://purl.org/dc/dcmitype/StillImage" /><cc:license
         rdf:resource="http://creativecommons.org/publicdomain/zero/1.0/" /><dc:publisher><cc:Agent
           rdf:about="http://openclipart.org/"><dc:title>Openclipart</dc:title></cc:Agent></dc:publisher><dc:title /></cc:Work><cc:License
       rdf:about="http://creativecommons.org/publicdomain/zero/1.0/"><cc:permits
         rdf:resource="http://creativecommons.org/ns#Reproduction" /><cc:permits
         rdf:resource="http://creativecommons.org/ns#Distribution" /><cc:permits
         rdf:resource="http://creativecommons.org/ns#DerivativeWorks" /></cc:License></rdf:RDF></metadata></svg>
