<?xml version="1.0" encoding="UTF-8" standalone="no"?>
<svg
   xmlns:dc="http://purl.org/dc/elements/1.1/"
   xmlns:cc="http://creativecommons.org/ns#"
   xmlns:rdf="http://www.w3.org/1999/02/22-rdf-syntax-ns#"
   xmlns:svg="http://www.w3.org/2000/svg"
   xmlns="http://www.w3.org/2000/svg"
   xmlns:sodipodi="http://sodipodi.sourceforge.net/DTD/sodipodi-0.dtd"
   xmlns:inkscape="http://www.inkscape.org/namespaces/inkscape"
   viewBox="0 0 370.5356 323.66988"
   version="1.1"
   id="svg8"
   sodipodi:docname="bone-157272.svg"
   width="98.037544mm"
   height="85.637657mm"
   inkscape:version="1.0.2-2 (e86c870879, 2021-01-15)">
  <metadata
     id="metadata14">
    <rdf:RDF>
      <cc:Work
         rdf:about="">
        <dc:format>image/svg+xml</dc:format>
        <dc:type
           rdf:resource="http://purl.org/dc/dcmitype/StillImage" />
        <dc:title></dc:title>
      </cc:Work>
    </rdf:RDF>
  </metadata>
  <defs
     id="defs12" />
  <sodipodi:namedview
     pagecolor="#ffffff"
     bordercolor="#666666"
     borderopacity="1"
     objecttolerance="10"
     gridtolerance="10"
     guidetolerance="10"
     inkscape:pageopacity="0"
     inkscape:pageshadow="2"
     inkscape:window-width="1920"
     inkscape:window-height="1017"
     id="namedview10"
     showgrid="false"
     units="mm"
     inkscape:zoom="1.0373736"
     inkscape:cx="-69.595114"
     inkscape:cy="32.482789"
     inkscape:window-x="-8"
     inkscape:window-y="-8"
     inkscape:window-maximized="1"
     inkscape:current-layer="svg8" />
  <path
     d="m 78.180094,320.28594 c 18.03794,-11.56642 27.445126,-33.68719 26.342566,-54.61421 -0.52078,-5.5388 -2.55095,-11.56707 2.40157,-15.51154 10.04133,-9.75719 21.72689,-18.23925 32.3222,-27.61594 46.41545,-38.34913 94.5754,-74.73108 143.41,-110.14698 24.3115,2.75569 52.76024,4.93134 71.86624,-11.2716 9.38129,-8.410145 17.73498,-22.875524 10.30938,-35.399346 C 356.06458,53.837947 338.26114,53.77449 327.73334,43.946989 323.31422,33.730325 328.79739,20.983596 319.39827,12.41062 306.56625,0.92110619 284.52601,1.2547924 272.25124,12.331545 c -14.39631,11.911593 -12.30047,32.444874 -11.34163,49.189898 1.08379,7.994666 -1.64224,15.89669 -8.22313,20.699954 -59.15061,47.365073 -120.5521,92.194503 -183.644216,134.778983 -20.16717,-0.37559 -43.770103,-3.50405 -59.2261688,10.91375 -8.274292,9.72089 -10.78114804,26.3611 0.155006,36.40779 5.7353358,5.90528 13.1642978,9.90215 20.6373828,13.3108 3.203804,17.02024 10.13133,37.87079 29.19063,43.7427 6.09484,1.76731 12.83082,1.62506 18.37507,-1.08441 z"
     fill="#e6e5c9"
     id="path2"
     style="stroke-width:1.17497" />
  <path
     d="m 357.11394,61.578405 c -7.79341,6.693329 -15.31783,13.749631 -25.12887,17.717451 -10.14798,6.044267 -22.57176,7.00472 -34.00858,9.98451 -11.14261,2.712399 -23.7702,2.910577 -32.30977,11.061764 -55.00795,44.01041 -110.21592,87.82248 -165.09849,131.95765 -5.843476,6.51992 -12.869276,12.46498 -17.973126,19.34434 -2.59438,12.23504 -1.74764,25.26286 -6.04064,36.98525 -6.40343,9.97697 -16.00786,17.34704 -26.53936,22.97205 5.54959,1.8466 11.04811,5.17338 16.6274,6.14602 6.59887,-2.17704 14.88375,-1.79143 18.60759,-8.33783 6.34001,-5.58482 10.24527,-12.78556 13.59216,-20.35694 3.420626,-6.18651 2.445906,-13.83631 3.158216,-20.73699 0.15662,-5.58346 -1.54156,-11.97797 -0.26648,-17.07242 36.93176,-30.57864 73.16085,-61.95695 111.43271,-91.00656 22.62124,-17.61827 45.97529,-34.3554 68.91348,-51.59235 14.54735,2.77177 29.36329,1.87024 43.92889,1.65598 8.7696,-2.27102 17.42645,-4.77151 24.68567,-10.09761 5.15283,-2.086453 8.53511,-5.856013 10.7526,-10.732906 2.65042,-4.837721 3.92147,-10.764956 4.70812,-16.090448 -1.58106,-4.88444 -1.93313,-10.82433 -8.38405,-11.526715 l -0.66044,-0.272665 z"
     fill="#abab96"
     id="path4"
     style="stroke-width:1.17497" />
  <path
     d="m 288.23598,0.42231469 c 11.4244,-1.90633969 28.706,2.89297441 33.61754,9.33594091 4.8928,6.4192624 7.39216,14.7288744 6.66834,22.1691524 -0.489,5.02357 -0.12621,7.664203 1.27721,9.297444 1.07808,1.254534 7.34733,4.366922 13.93156,6.916607 12.91965,5.002701 19.19278,9.033528 23.63288,15.185993 4.2289,5.860106 4.22964,15.985425 10e-4,24.507892 -5.02872,10.137723 -11.34454,15.972576 -22.85391,21.114456 -13.61503,6.08271 -28.82939,7.77827 -50.38767,5.61648 l -10.51493,-1.05469 -20.43678,14.97728 c -18.8754,13.833 -27.44911,20.23647 -55.33439,41.32667 -29.3598,22.20629 -99.58358,79.81813 -101.25217,83.06619 -0.43611,0.85071 -0.2697,4.34068 0.36972,7.75556 3.63067,19.38943 -9.278956,49.77741 -25.140136,59.17918 -10.03059,5.94522 -21.64726,4.99161 -33.20678,-2.72594 -4.538858,-3.03016 -6.096133,-4.97833 -10.99303,-13.7527 -4.190435,-7.50835 -6.118374,-12.22027 -7.262459,-17.75 l -1.557474,-7.52788 -5.444146,-2.67012 C -0.20489284,263.83731 -6.7239758,243.39113 7.3963602,225.3532 c 2.598128,-3.31873 5.1816138,-5.08393 11.4110218,-7.79629 10.463287,-4.55582 15.754708,-5.31929 34.290182,-4.94595 l 15.32767,0.30824 22.32514,-15.23265 c 12.278526,-8.37776 27.744486,-19.08579 34.367346,-23.79476 11.03382,-7.8454 18.46468,-13.25649 56.4777,-41.12803 7.09433,-5.20168 26.66901,-20.22027 43.49904,-33.374263 30.2969,-23.679391 30.61769,-23.971732 32.31659,-29.445127 1.00172,-3.22646 1.32202,-9.917585 0.76933,-16.071839 -1.65868,-18.472493 1.27361,-32.298912 8.77629,-41.393681 3.99518,-4.8424004 14.82719,-10.9803328 21.27674,-12.05646711 z M 271.43383,18.821766 c -6.02133,8.676565 -7.87814,22.451161 -5.54154,41.122401 0.84171,6.728402 -0.96921,14.669385 -4.32658,18.977184 -2.77455,3.559052 -37.31394,31.081789 -54.46108,43.397049 -6.86968,4.93394 -12.6958,9.28148 -12.94705,9.6612 -0.80444,1.21638 -30.03122,22.80756 -49.95005,36.90054 -10.61107,7.50753 -21.22119,15.08191 -23.57728,16.83149 -8.86073,6.57947 -46.926676,32.40983 -49.332286,33.47521 -1.37825,0.61034 -8.403,0.86355 -15.61072,0.5627 -15.944988,-0.66589 -25.529003,0.56755 -34.18187,4.39971 -7.42092,3.28658 -10.429486,6.55598 -12.8492448,13.96434 -4.819736,14.75604 2.6117448,24.94357 25.0585388,34.35137 7.919524,3.31922 9.088382,4.19941 11.324207,8.52765 2.967511,5.74462 1.378794,7.48386 -1.669049,1.82712 -2.236092,-4.1503 -5.153855,-5.96788 -6.440669,-4.01224 -2.390564,3.63305 6.998297,24.9751 13.466997,30.61227 11.64291,10.14673 25.99283,8.48938 36.1656,-4.17602 7.28846,-9.07481 12.98816,-24.58178 12.99901,-35.36466 0.005,-4.88454 -0.62788,-10.92332 -1.40609,-13.41942 -0.77822,-2.49611 -1.07006,-5.22117 -0.64827,-6.0552 1.12799,-2.23085 53.643186,-45.63112 86.057336,-71.11984 29.12825,-22.90547 78.98755,-60.32147 91.37386,-68.5704 6.75352,-4.49756 7.34633,-4.69542 12.33158,-4.11601 10.87176,1.26399 32.11691,1.32355 39.2544,0.1105 28.77306,-4.8901 45.98444,-29.889865 30.47906,-44.271418 -1.32427,-1.228418 -7.90779,-4.418427 -14.63044,-7.089589 -6.72267,-2.671161 -13.04842,-5.708938 -14.05773,-6.751397 -3.06412,-3.165364 -4.0533,-0.294814 -1.75086,5.080882 2.25698,5.269397 1.56164,7.210582 -1.46343,4.085609 -2.89297,-2.988452 -5.49328,-14.616769 -4.59105,-20.529453 1.41813,-9.291482 1.0433,-13.608048 -1.63952,-18.879599 C 314.87554,10.505308 308.53966,7.6089936 294.70419,7.3080476 285.45118,7.1064546 276.48532,11.542739 271.43354,18.822198 Z"
     id="path6"
     style="stroke-width:1.17497" />
</svg>
