<?xml version="1.0" encoding="UTF-8" standalone="no"?>
<svg
   xmlns:dc="http://purl.org/dc/elements/1.1/"
   xmlns:cc="http://creativecommons.org/ns#"
   xmlns:rdf="http://www.w3.org/1999/02/22-rdf-syntax-ns#"
   xmlns:svg="http://www.w3.org/2000/svg"
   xmlns="http://www.w3.org/2000/svg"
   xmlns:sodipodi="http://sodipodi.sourceforge.net/DTD/sodipodi-0.dtd"
   xmlns:inkscape="http://www.inkscape.org/namespaces/inkscape"
   id="svg1306"
   sodipodi:docname="bookcase.svg"
   viewBox="0 0 345.0054 317.47493"
   sodipodi:version="0.32"
   version="1.0"
   inkscape:version="1.0.2-2 (e86c870879, 2021-01-15)"
   width="91.282677mm"
   height="83.998573mm">
  <defs
     id="defs135" />
  <sodipodi:namedview
     id="namedview1310"
     bordercolor="#666666"
     inkscape:pageshadow="2"
     inkscape:window-y="-8"
     pagecolor="#ffffff"
     inkscape:window-height="1017"
     inkscape:zoom="0.68674075"
     inkscape:window-x="-8"
     borderopacity="1.0"
     inkscape:current-layer="layer1"
     inkscape:cx="449.4721"
     inkscape:cy="364.78096"
     inkscape:window-width="1920"
     inkscape:pageopacity="0.0"
     inkscape:document-units="mm"
     inkscape:document-rotation="0"
     showgrid="false"
     units="mm"
     inkscape:window-maximized="1" />
  <g
     id="layer1"
     inkscape:label="Layer 1"
     inkscape:groupmode="layer"
     transform="translate(-301.599,-63.31828)">
    <g
       id="g2001"
       inkscape:export-ydpi="90"
       inkscape:export-xdpi="90"
       inkscape:export-filename="/home/lamatin/Projekt_Kliparty/hotove/DETI/radek masar/knihovna.png"
       transform="matrix(0.55757074,0,0,0.55757074,176.46738,32.073403)">
      <path
         id="rect1317"
         sodipodi:nodetypes="ccccc"
         style="fill:#cd9034;stroke:#000000;stroke-width:1.3535"
         d="m 225.57,123.79 h 19.25 v 500.64 h -19.25 z" />
      <path
         id="path2193"
         sodipodi:nodetypes="ccccc"
         style="fill:#cd9034;stroke:#000000;stroke-width:1.3535"
         d="m 246.59,123.34 71.85,-59.167 v 500.65 l -71.85,59.17 v -500.65 z" />
      <path
         id="rect2196"
         sodipodi:nodetypes="ccccc"
         style="fill:#cd9034;stroke:#000000;stroke-width:1.3535"
         d="m 296.54,65.328 21.59,-0.684 -70.62,58.316 -21.19,0.07 z" />
      <g
         id="g2218"
         style="stroke:#000000;stroke-width:1.6318"
         transform="matrix(0.001608,-0.68801,-1,-0.0011063,751.58,707.03)">
        <path
           id="path2220"
           sodipodi:nodetypes="ccccc"
           style="fill:#cd9034;stroke:#000000;stroke-width:1.6318"
           d="m 756.32,-74.915 9.59,6.174 -88.64,73.419 -21.19,0.066 z" />
        <path
           id="path2222"
           sodipodi:nodetypes="ccccc"
           style="fill:#cd9034;stroke:#000000;stroke-width:1.6318"
           d="m 677.74,-0.44233 93.85,-67.388 -12,504.75 -81.86,70.16 0.01,-507.52 z" />
        <path
           id="path2224"
           sodipodi:nodetypes="ccccc"
           style="fill:#cd9034;stroke:#000000;stroke-width:1.6318"
           d="m 664.71,2.7637 19.24,4.1262 -7.99,500.63 H 656.7 l 8.01,-504.76 z" />
      </g>
      <g
         id="g4986"
         transform="matrix(1.192,0.10196,-0.13422,1.5691,436.44,-161.48)">
        <path
           id="path4988"
           sodipodi:nodetypes="ccccc"
           style="fill:#344ccd;stroke:#000000;stroke-width:1.3535"
           d="m 259.05,182.22 37.13,-28.88 1.38,52.27 -38.2,27.5 z" />
        <path
           id="path4990"
           sodipodi:nodetypes="ccccc"
           style="fill:#344ccd;stroke:#000000;stroke-width:1.3535"
           d="m 269.58,184.3 37.14,-28.88 -1.38,48.14 -35.44,31.63 z" />
        <path
           id="path4992"
           style="fill:#344ccd;fill-rule:evenodd;stroke:#000000;stroke-width:1.0146px"
           d="m 269.01,184.67 -4.42,0.23 -2.88,-0.69 -1.99,-1.36 v 51.69 l 2.44,0.91 1.99,0.45 h 2.21 1.33 l 1.76,-0.45 z" />
        <path
           id="path4994"
           sodipodi:nodetypes="ccccc"
           style="fill:#ffffff;stroke:#000000;stroke-width:1.3535"
           d="m 294.23,155.18 10.84,1.55 -35.62,27.43 -9.95,-1.77 z" />
      </g>
      <g
         id="g2210"
         style="stroke:#000000;stroke-width:1.6318"
         transform="matrix(0.001608,-0.68801,-1,-0.0011063,753.97,587.65)">
        <path
           id="path2216"
           sodipodi:nodetypes="ccccc"
           style="fill:#cd9034;stroke:#000000;stroke-width:1.6318"
           d="m 756.32,-74.915 9.59,6.174 -88.64,73.419 -21.19,0.066 z" />
        <path
           id="path2214"
           sodipodi:nodetypes="ccccc"
           style="fill:#cd9034;stroke:#000000;stroke-width:1.6318"
           d="m 677.74,-0.44233 93.85,-67.388 -12,504.75 -81.86,70.16 0.01,-507.52 z" />
        <path
           id="path2212"
           sodipodi:nodetypes="ccccc"
           style="fill:#cd9034;stroke:#000000;stroke-width:1.6318"
           d="m 664.71,2.7637 19.24,4.1262 -7.99,500.63 H 656.7 l 8.01,-504.76 z" />
      </g>
      <g
         id="g2226"
         style="stroke:#000000;stroke-width:1.6318"
         transform="matrix(0.0079471,-0.68796,-0.99994,-0.01032,751.17,945.56)">
        <path
           id="path2228"
           sodipodi:nodetypes="ccccc"
           style="fill:#cd9034;stroke:#000000;stroke-width:1.6318"
           d="m 756.32,-74.915 9.59,6.174 -88.64,73.419 -21.19,0.066 z" />
        <path
           id="path2230"
           sodipodi:nodetypes="ccccc"
           style="fill:#cd9034;stroke:#000000;stroke-width:1.6318"
           d="m 677.74,-0.44233 93.85,-67.388 -12,504.75 -81.86,70.16 0.01,-507.52 z" />
        <path
           id="path2232"
           sodipodi:nodetypes="ccccc"
           style="fill:#cd9034;stroke:#000000;stroke-width:1.6318"
           d="m 664.71,2.7637 19.24,4.1262 -7.99,500.63 H 656.7 l 8.01,-504.76 z" />
      </g>
      <g
         id="g8665"
         transform="matrix(1.1369,0.017497,0.12826,1.1675,301.2,357.41)">
        <path
           id="path8667"
           sodipodi:nodetypes="ccccc"
           style="fill:#344ccd;stroke:#000000;stroke-width:1.3535"
           d="m -40.339,39.953 37.136,-28.883 1.3751,52.265 -38.194,27.508 -0.317,-50.89 z" />
        <path
           id="path8669"
           sodipodi:nodetypes="ccccc"
           style="fill:#559037;stroke:#000000;stroke-width:1.3535"
           d="M -29.806,42.033 7.33,13.15 5.9542,61.289 l -35.443,31.634 -0.317,-50.89 z" />
        <path
           id="path8671"
           style="fill:#559037;fill-rule:evenodd;stroke:#000000;stroke-width:1.0146px"
           d="m -30.373,42.397 -4.424,0.228 -2.875,-0.683 -1.991,-1.366 v 51.688 l 2.433,0.911 1.991,0.455 h 2.211 1.328 l 1.769,-0.455 z" />
        <path
           id="path8673"
           sodipodi:nodetypes="ccccc"
           style="fill:#ffffff;stroke:#000000;stroke-width:1.3535"
           d="m -5.1584,12.913 10.838,1.548 -35.611,27.427 -9.953,-1.769 z" />
      </g>
      <g
         id="g2234"
         style="stroke:#000000;stroke-width:1.6318"
         transform="matrix(0.0047797,-0.68799,-0.99998,-0.0057163,750.69,829.05)">
        <path
           id="path2236"
           sodipodi:nodetypes="ccccc"
           style="fill:#cd9034;stroke:#000000;stroke-width:1.6318"
           d="m 756.32,-74.915 9.59,6.174 -88.64,73.419 -21.19,0.066 z" />
        <path
           id="path2238"
           sodipodi:nodetypes="ccccc"
           style="fill:#cd9034;stroke:#000000;stroke-width:1.6318"
           d="m 677.74,-0.44233 93.85,-67.388 -12,504.75 -81.86,70.16 0.01,-507.52 z" />
        <path
           id="path2240"
           sodipodi:nodetypes="ccccc"
           style="fill:#cd9034;stroke:#000000;stroke-width:1.6318"
           d="m 664.71,2.7637 19.24,4.1262 -7.99,500.63 H 656.7 l 8.01,-504.76 z" />
      </g>
      <g
         id="g10519"
         transform="matrix(0.99474,0.10136,0.02811,0.9756,711.77,261.62)">
        <path
           id="path10521"
           sodipodi:nodetypes="ccccc"
           style="fill:#344ccd;stroke:#000000;stroke-width:1.3535"
           d="m -40.339,39.953 37.136,-28.883 1.3751,52.265 -38.194,27.508 -0.317,-50.89 z" />
        <path
           id="path10523"
           sodipodi:nodetypes="ccccc"
           style="fill:#559037;stroke:#000000;stroke-width:1.3535"
           d="M -29.806,42.033 7.33,13.15 5.9542,61.289 l -35.443,31.634 -0.317,-50.89 z" />
        <path
           id="path10525"
           style="fill:#559037;fill-rule:evenodd;stroke:#000000;stroke-width:1.0146px"
           d="m -30.373,42.397 -4.424,0.228 -2.875,-0.683 -1.991,-1.366 v 51.688 l 2.433,0.911 1.991,0.455 h 2.211 1.328 l 1.769,-0.455 z" />
        <path
           id="path10527"
           sodipodi:nodetypes="ccccc"
           style="fill:#ffffff;stroke:#000000;stroke-width:1.3535"
           d="m -5.1584,12.913 10.838,1.548 -35.611,27.427 -9.953,-1.769 z" />
      </g>
      <g
         id="g8607"
         transform="translate(756.47,-270.95)">
        <path
           id="path5032"
           sodipodi:nodetypes="ccccc"
           style="fill:#344ccd;stroke:#000000;stroke-width:1.3535"
           d="m -61.42,567.46 37.136,-28.89 1.375,52.27 -38.194,27.51 z" />
        <path
           id="path5034"
           sodipodi:nodetypes="ccccc"
           style="fill:#cd3634;stroke:#000000;stroke-width:1.3535"
           d="m -41.735,569.23 37.136,-28.89 -1.3755,48.14 -35.442,31.64 -0.319,-50.89 z" />
        <path
           id="path5036"
           sodipodi:nodetypes="ccccccccccc"
           style="fill:#cd3634;fill-rule:evenodd;stroke:#000000;stroke-width:1.4157px"
           d="m -42.4,569.68 -7.506,1.11 -5.819,-0.46 -5.424,-2.47 v 51.69 l 4.958,2.01 3.654,0.46 4.527,0.22 3.247,-0.22 2.56,-1.56 z" />
        <path
           id="path5038"
           sodipodi:nodetypes="ccccc"
           style="fill:#ffffff;stroke:#000000;stroke-width:1.3185"
           d="m -26.019,540.49 18.579,0.81 -36.051,28.24 -17.031,-2.35 z" />
      </g>
      <g
         id="g10529"
         transform="matrix(0.99701,0.075774,0.053165,0.97456,291.99,205.24)">
        <g
           id="g10531"
           transform="translate(138.79,3.8867)">
          <path
             id="path10533"
             sodipodi:nodetypes="ccccc"
             style="fill:#344ccd;stroke:#000000;stroke-width:1.3535"
             d="m 259.05,182.22 37.13,-28.88 1.38,52.27 -38.2,27.5 z" />
          <path
             id="path10535"
             sodipodi:nodetypes="ccccc"
             style="fill:#344ccd;stroke:#000000;stroke-width:1.3535"
             d="m 269.58,184.3 37.14,-28.88 -1.38,48.14 -35.44,31.63 z" />
          <path
             id="path10537"
             style="fill:#344ccd;fill-rule:evenodd;stroke:#000000;stroke-width:1.0146px"
             d="m 269.01,184.67 -4.42,0.23 -2.88,-0.69 -1.99,-1.36 v 51.69 l 2.44,0.91 1.99,0.45 h 2.21 1.33 l 1.76,-0.45 z" />
          <path
             id="path10539"
             sodipodi:nodetypes="ccccc"
             style="fill:#ffffff;stroke:#000000;stroke-width:1.3535"
             d="m 294.23,155.18 10.84,1.55 -35.62,27.43 -9.95,-1.77 z" />
        </g>
      </g>
      <g
         id="g10541"
         transform="matrix(0.97819,0.20773,-0.20773,0.97819,659.46,-81)">
        <path
           id="path10543"
           sodipodi:nodetypes="ccccc"
           style="fill:#344ccd;stroke:#000000;stroke-width:1.3535"
           d="m 143.29,349.78 29.15,-25.23 14.19,55.66 -30.53,23.61 z" />
        <path
           id="path10545"
           sodipodi:nodetypes="ccccc"
           style="fill:#978936;stroke:#000000;stroke-width:1.3535"
           d="m 154.08,353.52 29.15,-25.23 10.49,50.88 -26.82,28.4 z" />
        <path
           id="path10547"
           style="fill:#978936;fill-rule:evenodd;stroke:#000000;stroke-width:1.0146px"
           d="m 153.62,353.83 -4.27,-0.41 -2.97,-1.14 -2.28,-1.74 12.7,54.84 2.6,1.32 2.06,0.78 2.15,0.32 1.3,0.19 1.62,-0.22 z" />
        <path
           id="path10549"
           sodipodi:nodetypes="ccccc"
           style="fill:#ffffff;stroke:#000000;stroke-width:1.3535"
           d="m 170.99,326.22 10.96,3.23 -28.03,23.9 -10.15,-3.33 z" />
      </g>
      <g
         id="g8707"
         transform="matrix(0.99102,0.0019165,0.094981,0.97689,546.84,-96.309)">
        <g
           id="g8727"
           transform="matrix(0.99481,0.043638,-0.042803,1.0033,26.429,-8.1145)">
          <path
             id="path8709"
             sodipodi:nodetypes="ccccc"
             style="fill:#344ccd;stroke:#000000;stroke-width:1.3535"
             d="m 117.38,522.07 37.14,-28.89 1.37,52.27 -38.19,27.51 z" />
          <path
             id="path8711"
             sodipodi:nodetypes="ccccc"
             style="fill:#857044;stroke:#000000;stroke-width:1.3535"
             d="m 137.07,523.84 37.13,-28.89 -1.37,48.14 -35.44,31.64 z" />
          <path
             id="path8713"
             sodipodi:nodetypes="ccccccccccc"
             style="fill:#857044;fill-rule:evenodd;stroke:#000000;stroke-width:1.4157px"
             d="m 136.4,524.29 -7.5,1.11 -5.82,-0.46 -5.43,-2.47 v 51.69 l 4.96,2.01 3.66,0.46 4.52,0.22 3.25,-0.22 2.56,-1.56 z" />
          <path
             id="path8715"
             sodipodi:nodetypes="ccccc"
             style="fill:#ffffff;stroke:#000000;stroke-width:1.3185"
             d="m 152.78,495.1 18.58,0.81 -36.05,28.24 -17.03,-2.34 z" />
        </g>
      </g>
      <path
         id="path2199"
         sodipodi:nodetypes="ccccc"
         style="fill:#cd9034;stroke:#000000;stroke-width:1.3535"
         d="m 749.61,117.21 h 19.26 v 500.65 h -19.26 z" />
      <path
         id="path2201"
         sodipodi:nodetypes="ccccc"
         style="fill:#cd9034;stroke:#000000;stroke-width:1.3535"
         d="m 770.03,117.38 71.85,-59.169 v 500.65 l -71.85,59.17 v -500.65 z" />
      <path
         id="path2203"
         sodipodi:nodetypes="ccccc"
         style="fill:#cd9034;stroke:#000000;stroke-width:1.406"
         d="m 823.89,56.754 17.47,0.945 -71.43,59.361 -20.6,-0.48 z" />
      <g
         id="g7686"
         transform="matrix(0.99978,0.014529,0.11279,0.96946,197.66,-74.011)">
        <path
           id="path4966"
           sodipodi:nodetypes="ccccc"
           style="fill:#344ccd;stroke:#000000;stroke-width:1.3535"
           d="M 33.828,259.32 70.964,230.43 72.34,282.7 34.146,310.21 Z" />
        <path
           id="path4962"
           sodipodi:nodetypes="ccccc"
           style="fill:#cd3634;stroke:#000000;stroke-width:1.3535"
           d="M 53.514,261.09 90.65,232.2 89.274,280.34 53.831,311.98 Z" />
        <path
           id="path4964"
           sodipodi:nodetypes="ccccccccccc"
           style="fill:#cd3634;fill-rule:evenodd;stroke:#000000;stroke-width:1.4157px"
           d="m 52.849,261.54 -7.506,1.11 -5.819,-0.46 -5.424,-2.47 v 51.69 l 4.958,2.01 3.654,0.46 4.527,0.22 3.247,-0.22 2.56,-1.56 z" />
        <path
           id="path4968"
           sodipodi:nodetypes="ccccc"
           style="fill:#ffffff;stroke:#000000;stroke-width:1.3185"
           d="m 69.23,232.35 18.579,0.81 -36.052,28.24 -17.03,-2.35 z" />
      </g>
      <g
         id="g4970"
         transform="matrix(0.99978,0.014529,0.11279,0.96946,-130.71,-5.5697)">
        <g
           id="g7692"
           transform="translate(134.79,1.3754)">
          <path
             id="path4957"
             sodipodi:nodetypes="ccccc"
             style="fill:#344ccd;stroke:#000000;stroke-width:1.3535"
             d="m 259.05,182.22 37.13,-28.88 1.38,52.27 -38.2,27.5 z" />
          <path
             id="rect4079"
             sodipodi:nodetypes="ccccc"
             style="fill:#344ccd;stroke:#000000;stroke-width:1.3535"
             d="m 269.58,184.3 37.14,-28.88 -1.38,48.14 -35.44,31.63 z" />
          <path
             id="path4955"
             style="fill:#344ccd;fill-rule:evenodd;stroke:#000000;stroke-width:1.0146px"
             d="m 269.01,184.67 -4.42,0.23 -2.88,-0.69 -1.99,-1.36 v 51.69 l 2.44,0.91 1.99,0.45 h 2.21 1.33 l 1.76,-0.45 z" />
          <path
             id="rect4959"
             sodipodi:nodetypes="ccccc"
             style="fill:#ffffff;stroke:#000000;stroke-width:1.3535"
             d="m 294.23,155.18 10.84,1.55 -35.62,27.43 -9.95,-1.77 z" />
        </g>
      </g>
      <g
         id="g7698"
         transform="matrix(0.99978,0.014529,0.11279,0.96946,337.84,139.68)">
        <path
           id="path4998"
           sodipodi:nodetypes="ccccc"
           style="fill:#344ccd;stroke:#000000;stroke-width:1.3535"
           d="m -40.339,39.953 37.136,-28.883 1.3751,52.265 -38.194,27.508 -0.317,-50.89 z" />
        <path
           id="path5000"
           sodipodi:nodetypes="ccccc"
           style="fill:#559037;stroke:#000000;stroke-width:1.3535"
           d="M -29.806,42.033 7.33,13.15 5.9542,61.289 l -35.443,31.634 -0.317,-50.89 z" />
        <path
           id="path5002"
           style="fill:#559037;fill-rule:evenodd;stroke:#000000;stroke-width:1.0146px"
           d="m -30.373,42.397 -4.424,0.228 -2.875,-0.683 -1.991,-1.366 v 51.688 l 2.433,0.911 1.991,0.455 h 2.211 1.328 l 1.769,-0.455 z" />
        <path
           id="path5004"
           sodipodi:nodetypes="ccccc"
           style="fill:#ffffff;stroke:#000000;stroke-width:1.3535"
           d="m -5.1584,12.913 10.838,1.548 -35.611,27.427 -9.953,-1.769 z" />
      </g>
      <g
         id="g5006"
         transform="matrix(-0.049363,-0.79894,-1.0975,-0.32897,667.6,643.19)">
        <g
           id="g8601"
           transform="translate(37.709,-7.962)">
          <path
             id="path5008"
             sodipodi:nodetypes="ccccc"
             style="fill:#344ccd;stroke:#000000;stroke-width:1.3535"
             d="m 259.05,182.22 37.13,-28.88 1.38,52.27 -38.2,27.5 z" />
          <path
             id="path5010"
             sodipodi:nodetypes="ccccc"
             style="fill:#344ccd;stroke:#000000;stroke-width:1.3535"
             d="m 269.05,185.58 37.14,-28.88 -1.38,48.14 -35.44,31.63 z" />
          <path
             id="path5012"
             style="fill:#344ccd;fill-rule:evenodd;stroke:#000000;stroke-width:1.0146px"
             d="m 269.01,184.67 -4.42,0.23 -2.88,-0.69 -1.99,-1.36 v 51.69 l 2.44,0.91 1.99,0.45 h 2.21 1.33 l 1.76,-0.45 z" />
          <path
             id="path5014"
             sodipodi:nodetypes="ccccc"
             style="fill:#ffffff;stroke:#000000;stroke-width:1.3535"
             d="m 294.23,155.18 10.84,1.55 -35.62,27.43 -9.95,-1.77 z" />
        </g>
      </g>
      <g
         id="g8595"
         transform="matrix(0.99102,0.0019165,0.094981,0.97689,155.43,-335.89)">
        <path
           id="path5024"
           sodipodi:nodetypes="ccccc"
           style="fill:#344ccd;stroke:#000000;stroke-width:1.3535"
           d="m 117.38,522.07 37.14,-28.89 1.37,52.27 -38.19,27.51 z" />
        <path
           id="path5026"
           sodipodi:nodetypes="ccccc"
           style="fill:#857044;stroke:#000000;stroke-width:1.3535"
           d="m 137.07,523.84 37.13,-28.89 -1.37,48.14 -35.44,31.64 z" />
        <path
           id="path5028"
           sodipodi:nodetypes="ccccccccccc"
           style="fill:#857044;fill-rule:evenodd;stroke:#000000;stroke-width:1.4157px"
           d="m 136.4,524.29 -7.5,1.11 -5.82,-0.46 -5.43,-2.47 v 51.69 l 4.96,2.01 3.66,0.46 4.52,0.22 3.25,-0.22 2.56,-1.56 z" />
        <path
           id="path5030"
           sodipodi:nodetypes="ccccc"
           style="fill:#ffffff;stroke:#000000;stroke-width:1.3185"
           d="m 152.78,495.1 18.58,0.81 -36.05,28.24 -17.03,-2.34 z" />
      </g>
      <g
         id="g4976"
         transform="matrix(0.97626,0.14587,0.24576,1.061,52.498,-56.292)">
        <path
           id="path4978"
           sodipodi:nodetypes="ccccc"
           style="fill:#344ccd;stroke:#000000;stroke-width:1.3535"
           d="m 259.05,182.22 37.13,-28.88 1.38,52.27 -38.2,27.5 z" />
        <path
           id="path4980"
           sodipodi:nodetypes="ccccc"
           style="fill:#344ccd;stroke:#000000;stroke-width:1.3535"
           d="m 269.58,184.3 37.14,-28.88 -1.38,48.14 -35.44,31.63 z" />
        <path
           id="path4982"
           style="fill:#344ccd;fill-rule:evenodd;stroke:#000000;stroke-width:1.0146px"
           d="m 269.01,184.67 -4.42,0.23 -2.88,-0.69 -1.99,-1.36 v 51.69 l 2.44,0.91 1.99,0.45 h 2.21 1.33 l 1.76,-0.45 z" />
        <path
           id="path4984"
           sodipodi:nodetypes="ccccc"
           style="fill:#ffffff;stroke:#000000;stroke-width:1.3535"
           d="m 294.23,155.18 10.84,1.55 -35.62,27.43 -9.95,-1.77 z" />
      </g>
      <g
         id="g8613"
         transform="matrix(0.99102,0.0019165,0.094981,0.97689,104.08,-216.23)">
        <path
           id="path8615"
           sodipodi:nodetypes="ccccc"
           style="fill:#344ccd;stroke:#000000;stroke-width:1.3535"
           d="m 117.38,522.07 37.14,-28.89 1.37,52.27 -38.19,27.51 z" />
        <path
           id="path8617"
           sodipodi:nodetypes="ccccc"
           style="fill:#857044;stroke:#000000;stroke-width:1.3535"
           d="m 137.07,523.84 37.13,-28.89 -1.37,48.14 -35.44,31.64 z" />
        <path
           id="path8619"
           sodipodi:nodetypes="ccccccccccc"
           style="fill:#857044;fill-rule:evenodd;stroke:#000000;stroke-width:1.4157px"
           d="m 136.4,524.29 -7.5,1.11 -5.82,-0.46 -5.43,-2.47 v 51.69 l 4.96,2.01 3.66,0.46 4.52,0.22 3.25,-0.22 2.56,-1.56 z" />
        <path
           id="path8621"
           sodipodi:nodetypes="ccccc"
           style="fill:#ffffff;stroke:#000000;stroke-width:1.3185"
           d="m 152.78,495.1 18.58,0.81 -36.05,28.24 -17.03,-2.34 z" />
      </g>
      <g
         id="g8675"
         transform="matrix(0.99978,0.014529,0.11279,0.96946,216.34,158.69)">
        <path
           id="path8677"
           sodipodi:nodetypes="ccccc"
           style="fill:#344ccd;stroke:#000000;stroke-width:1.3535"
           d="M 33.828,259.32 70.964,230.43 72.34,282.7 34.146,310.21 Z" />
        <path
           id="path8679"
           sodipodi:nodetypes="ccccc"
           style="fill:#cd3634;stroke:#000000;stroke-width:1.3535"
           d="M 53.514,261.09 90.65,232.2 89.274,280.34 53.831,311.98 Z" />
        <path
           id="path8681"
           sodipodi:nodetypes="ccccccccccc"
           style="fill:#cd3634;fill-rule:evenodd;stroke:#000000;stroke-width:1.4157px"
           d="m 52.849,261.54 -7.506,1.11 -5.819,-0.46 -5.424,-2.47 v 51.69 l 4.958,2.01 3.654,0.46 4.527,0.22 3.247,-0.22 2.56,-1.56 z" />
        <path
           id="path8683"
           sodipodi:nodetypes="ccccc"
           style="fill:#ffffff;stroke:#000000;stroke-width:1.3185"
           d="m 69.23,232.35 18.579,0.81 -36.052,28.24 -17.03,-2.35 z" />
      </g>
      <g
         id="g10483"
         transform="translate(160.92,53.641)">
        <path
           id="path8719"
           sodipodi:nodetypes="ccccc"
           style="fill:#344ccd;stroke:#000000;stroke-width:1.3535"
           d="m 143.29,349.78 29.15,-25.23 14.19,55.66 -30.53,23.61 z" />
        <path
           id="path8721"
           sodipodi:nodetypes="ccccc"
           style="fill:#978936;stroke:#000000;stroke-width:1.3535"
           d="m 154.08,353.52 29.15,-25.23 10.49,50.88 -26.82,28.4 z" />
        <path
           id="path8723"
           style="fill:#978936;fill-rule:evenodd;stroke:#000000;stroke-width:1.0146px"
           d="m 153.62,353.83 -4.27,-0.41 -2.97,-1.14 -2.28,-1.74 12.7,54.84 2.6,1.32 2.06,0.78 2.15,0.32 1.3,0.19 1.62,-0.22 z" />
        <path
           id="path8725"
           sodipodi:nodetypes="ccccc"
           style="fill:#ffffff;stroke:#000000;stroke-width:1.3535"
           d="m 170.99,326.22 10.96,3.23 -28.03,23.9 -10.15,-3.33 z" />
      </g>
      <g
         id="g8685"
         transform="matrix(0.99978,0.014529,0.11279,0.96946,-85.9,227.14)">
        <g
           id="g8687"
           transform="translate(134.79,1.3754)">
          <path
             id="path8689"
             sodipodi:nodetypes="ccccc"
             style="fill:#344ccd;stroke:#000000;stroke-width:1.3535"
             d="m 259.05,182.22 37.13,-28.88 1.38,52.27 -38.2,27.5 z" />
          <path
             id="path8691"
             sodipodi:nodetypes="ccccc"
             style="fill:#344ccd;stroke:#000000;stroke-width:1.3535"
             d="m 269.58,184.3 37.14,-28.88 -1.38,48.14 -35.44,31.63 z" />
          <path
             id="path8693"
             style="fill:#344ccd;fill-rule:evenodd;stroke:#000000;stroke-width:1.0146px"
             d="m 269.01,184.67 -4.42,0.23 -2.88,-0.69 -1.99,-1.36 v 51.69 l 2.44,0.91 1.99,0.45 h 2.21 1.33 l 1.76,-0.45 z" />
          <path
             id="path8695"
             sodipodi:nodetypes="ccccc"
             style="fill:#ffffff;stroke:#000000;stroke-width:1.3535"
             d="m 294.23,155.18 10.84,1.55 -35.62,27.43 -9.95,-1.77 z" />
        </g>
      </g>
      <g
         id="g8697"
         transform="matrix(0.99978,0.014529,0.11279,0.96946,384.02,373.76)">
        <path
           id="path8699"
           sodipodi:nodetypes="ccccc"
           style="fill:#344ccd;stroke:#000000;stroke-width:1.3535"
           d="m -40.339,39.953 37.136,-28.883 1.3751,52.265 -38.194,27.508 -0.317,-50.89 z" />
        <path
           id="path8701"
           sodipodi:nodetypes="ccccc"
           style="fill:#559037;stroke:#000000;stroke-width:1.3535"
           d="M -29.806,42.033 7.33,13.15 5.9542,61.289 l -35.443,31.634 -0.317,-50.89 z" />
        <path
           id="path8703"
           style="fill:#559037;fill-rule:evenodd;stroke:#000000;stroke-width:1.0146px"
           d="m -30.373,42.397 -4.424,0.228 -2.875,-0.683 -1.991,-1.366 v 51.688 l 2.433,0.911 1.991,0.455 h 2.211 1.328 l 1.769,-0.455 z" />
        <path
           id="path8705"
           sodipodi:nodetypes="ccccc"
           style="fill:#ffffff;stroke:#000000;stroke-width:1.3535"
           d="m -5.1584,12.913 10.838,1.548 -35.611,27.427 -9.953,-1.769 z" />
      </g>
      <g
         id="g10503"
         transform="matrix(-0.3466,-0.75943,0.89524,-0.29402,267.71,593.57)">
        <path
           id="path10491"
           sodipodi:nodetypes="ccccc"
           style="fill:#344ccd;stroke:#000000;stroke-width:1.8579"
           d="M 26.656,351.07 74.8,309.53 69.425,391.68 20.205,430.95 Z" />
        <path
           id="path10493"
           sodipodi:nodetypes="ccccc"
           style="fill:#cd3634;stroke:#000000;stroke-width:1.8579"
           d="m 38.933,355.4 48.144,-41.53 -8.101,75.39 -46.495,46.03 z" />
        <path
           id="path10495"
           style="fill:#a62c2a;fill-rule:evenodd;stroke:#000000;stroke-width:1.3927px"
           d="m 38.208,355.92 -5.304,-0.1 -3.336,-1.36 -2.189,-2.35 -6.938,81.11 2.778,1.67 2.312,0.92 2.637,0.23 1.582,0.13 2.17,-0.53 z" />
        <path
           id="path10497"
           sodipodi:nodetypes="ccccc"
           style="fill:#ffffff;stroke:#000000;stroke-width:1.8579"
           d="m 72.223,312.22 12.711,3.54 -46.13,39.4 -11.628,-3.79 z" />
      </g>
      <g
         id="g10509"
         transform="matrix(0.99978,0.014529,0.11279,0.96946,234,39.139)">
        <path
           id="path10511"
           sodipodi:nodetypes="ccccc"
           style="fill:#344ccd;stroke:#000000;stroke-width:1.3535"
           d="M 33.828,259.32 70.964,230.43 72.34,282.7 34.146,310.21 Z" />
        <path
           id="path10513"
           sodipodi:nodetypes="ccccc"
           style="fill:#cd3634;stroke:#000000;stroke-width:1.3535"
           d="M 53.514,261.09 90.65,232.2 89.274,280.34 53.831,311.98 Z" />
        <path
           id="path10515"
           sodipodi:nodetypes="ccccccccccc"
           style="fill:#cd3634;fill-rule:evenodd;stroke:#000000;stroke-width:1.4157px"
           d="m 52.849,261.54 -7.506,1.11 -5.819,-0.46 -5.424,-2.47 v 51.69 l 4.958,2.01 3.654,0.46 4.527,0.22 3.247,-0.22 2.56,-1.56 z" />
        <path
           id="path10517"
           sodipodi:nodetypes="ccccc"
           style="fill:#ffffff;stroke:#000000;stroke-width:1.3185"
           d="m 69.23,232.35 18.579,0.81 -36.052,28.24 -17.03,-2.35 z" />
      </g>
    </g>
  </g>
  <metadata
     id="metadata132">
    <rdf:RDF>
      <cc:Work>
        <dc:format>image/svg+xml</dc:format>
        <dc:type
           rdf:resource="http://purl.org/dc/dcmitype/StillImage" />
        <cc:license
           rdf:resource="http://creativecommons.org/publicdomain/zero/1.0/" />
        <dc:publisher>
          <cc:Agent
             rdf:about="http://openclipart.org/">
            <dc:title>Openclipart</dc:title>
          </cc:Agent>
        </dc:publisher>
        <dc:title>Bookcase</dc:title>
        <dc:date>2006-12-31T04:12:02</dc:date>
        <dc:description>a bookcase with books</dc:description>
        <dc:source>https://openclipart.org/detail/2625/bookcase-by-machovka</dc:source>
        <dc:creator>
          <cc:Agent>
            <dc:title>Machovka</dc:title>
          </cc:Agent>
        </dc:creator>
        <dc:subject>
          <rdf:Bag>
            <rdf:li>book</rdf:li>
            <rdf:li>bookcase</rdf:li>
            <rdf:li>bookshelf</rdf:li>
            <rdf:li>furniture</rdf:li>
            <rdf:li>household</rdf:li>
            <rdf:li>library</rdf:li>
            <rdf:li>shelf</rdf:li>
          </rdf:Bag>
        </dc:subject>
      </cc:Work>
      <cc:License
         rdf:about="http://creativecommons.org/publicdomain/zero/1.0/">
        <cc:permits
           rdf:resource="http://creativecommons.org/ns#Reproduction" />
        <cc:permits
           rdf:resource="http://creativecommons.org/ns#Distribution" />
        <cc:permits
           rdf:resource="http://creativecommons.org/ns#DerivativeWorks" />
      </cc:License>
    </rdf:RDF>
  </metadata>
</svg>
