<?xml version="1.0" encoding="UTF-8" standalone="no"?>
<!-- Created with Inkscape (http://www.inkscape.org/) -->

<svg
   width="125mm"
   height="88mm"
   viewBox="0 0 125 88"
   version="1.1"
   id="svg272"
   inkscape:version="1.2.2 (732a01da63, 2022-12-09)"
   sodipodi:docname="book.svg"
   xmlns:inkscape="http://www.inkscape.org/namespaces/inkscape"
   xmlns:sodipodi="http://sodipodi.sourceforge.net/DTD/sodipodi-0.dtd"
   xmlns:xlink="http://www.w3.org/1999/xlink"
   xmlns="http://www.w3.org/2000/svg"
   xmlns:svg="http://www.w3.org/2000/svg">
  <sodipodi:namedview
     id="namedview274"
     pagecolor="#505050"
     bordercolor="#eeeeee"
     borderopacity="1"
     inkscape:showpageshadow="0"
     inkscape:pageopacity="0"
     inkscape:pagecheckerboard="0"
     inkscape:deskcolor="#505050"
     inkscape:document-units="mm"
     showgrid="false"
     inkscape:zoom="0.7180275"
     inkscape:cx="397.61708"
     inkscape:cy="227.70716"
     inkscape:current-layer="layer1" />
  <defs
     id="defs269">
    <linearGradient
       id="linearGradient3252"
       y2="299.70001"
       gradientUnits="userSpaceOnUse"
       x2="849.79999"
       y1="463.29001"
       x1="153.03999"
       gradientTransform="matrix(0.15407326,0,0,0.15407326,-17.564424,-10.415914)">
      <stop
         id="stop3248"
         style="stop-color:#007d12"
         offset="0" />
      <stop
         id="stop3254"
         style="stop-color:#007d12"
         offset=".46927" />
      <stop
         id="stop3256"
         style="stop-color:#5e7c62"
         offset=".51133" />
      <stop
         id="stop3258"
         style="stop-color:#007d12"
         offset="0.567" />
      <stop
         id="stop3250"
         style="stop-color:#007d12"
         offset="1" />
    </linearGradient>
    <linearGradient
       id="linearGradient3276"
       y2="418.82001"
       xlink:href="#linearGradient3270"
       gradientUnits="userSpaceOnUse"
       x2="241.64"
       y1="425.34"
       x1="171.59" />
    <linearGradient
       id="linearGradient3270">
      <stop
         id="stop3272"
         style="stop-color:#929295"
         offset="0" />
      <stop
         id="stop3274"
         style="stop-color:#b9b9b9"
         offset="1" />
    </linearGradient>
    <linearGradient
       id="linearGradient3286"
       y2="294.47"
       xlink:href="#linearGradient3270"
       gradientUnits="userSpaceOnUse"
       x2="755.29999"
       y1="269.48999"
       x1="830.32001" />
    <linearGradient
       id="linearGradient3296"
       y2="450.35999"
       gradientUnits="userSpaceOnUse"
       x2="896.48999"
       y1="600.70001"
       x1="197.66">
      <stop
         id="stop3300"
         style="stop-color:#919191"
         offset="0" />
      <stop
         id="stop3302"
         style="stop-color:#919191"
         offset=".30859" />
      <stop
         id="stop3304"
         style="stop-color:#5c5c5c"
         offset=".51133" />
      <stop
         id="stop3306"
         style="stop-color:#919191"
         offset=".69886" />
      <stop
         id="stop3308"
         style="stop-color:#919191"
         offset="1" />
    </linearGradient>
    <linearGradient
       id="linearGradient3320"
       y2="265.29999"
       gradientUnits="userSpaceOnUse"
       x2="780.51001"
       y1="396.72"
       x1="233.34">
      <stop
         id="stop3316"
         style="stop-color:#dcdcdc"
         offset="0" />
      <stop
         id="stop3322"
         style="stop-color:#e8e8e8"
         offset=".072961" />
      <stop
         id="stop3324"
         style="stop-color:#e2e2e2"
         offset=".39347" />
      <stop
         id="stop3326"
         style="stop-color:#bcbcbc"
         offset=".50067" />
      <stop
         id="stop3330"
         style="stop-color:#dedede"
         offset=".64252" />
      <stop
         id="stop3328"
         style="stop-color:#dddddd"
         offset=".94838" />
      <stop
         id="stop3318"
         style="stop-color:#dcdcdc"
         offset="1" />
    </linearGradient>
    <filter
       id="filter3587"
       x="-0.053470142"
       y="-0.052657849"
       width="1.1069403"
       height="1.1053157">
      <feGaussianBlur
         id="feGaussianBlur3589"
         stdDeviation="9.2928517"
         inkscape:collect="always" />
    </filter>
  </defs>
  <g
     inkscape:label="Layer 1"
     inkscape:groupmode="layer"
     id="layer1">
    <path
       id="path2474"
       style="fill:url(#linearGradient3252);fill-rule:evenodd;stroke:#000000;stroke-width:0.154073px"
       d="M 2.5190228,25.845222 10.888283,84.842951 58.728025,74.660252 v 0.557742 l 2.650059,-0.557742 c 5.193809,-1.833472 9.913074,-2.719395 14.36425,-3.0676 l 2.23252,-0.557742 V 70.336955 L 122.46659,60.155792 103.7775,6.319521 Z" />
    <path
       id="path3260"
       style="fill:#dddddd;fill-rule:evenodd;stroke-width:0.154073"
       d="m 4.0089122,25.986971 8.0487858,57.635723 48.29888,-10.304425 1.007639,0.305067 C 65.496461,72.218192 69.74272,70.85464 76.210714,70.307678 L 77.90398,69.293876 120.89042,59.311471 102.69745,7.1499753 Z" />
    <path
       id="path3262"
       style="fill:#a97f7f;fill-rule:evenodd;stroke:#9f5a5a;stroke-width:0.16948;stroke-linecap:round"
       d="m 76.179901,70.019563 c -4.207742,0.08013 -9.113432,1.036916 -15.046795,3.269439 -0.195671,0.07393 -0.294279,0.291196 -0.221864,0.486863 0.07395,0.195676 0.291199,0.294287 0.486871,0.221872 5.87019,-2.210954 10.691144,-3.144632 14.795653,-3.221675 0.209539,-0.0051 0.374399,-0.177178 0.371318,-0.38518 -0.0046,-0.209537 -0.177185,-0.3744 -0.385183,-0.371319 z" />
    <g
       id="layer3"
       transform="matrix(0.15407325,0,0,0.15407325,-17.564422,-10.415912)">
      <path
         id="path3268"
         style="fill:url(#linearGradient3276);fill-rule:evenodd"
         d="m 143.36,238 54.3,369.25 66.25,-22.8 6.51,-27.16 -47.78,-363.82 -16.29,-2.17 z" />
      <path
         id="path3278"
         style="fill:url(#linearGradient3286);fill-rule:evenodd"
         d="m 709.19,116.36 15.2,-20.634 51.05,17.374 115.91,340.6 -45.32,4.76 -20.64,-17.37 z" />
      <path
         id="path3288"
         style="fill:url(#linearGradient3296);fill-rule:evenodd"
         d="m 197.92,607.14 79.02,-40.81 539.31,-115.7 75.99,2.85 c -0.18,1.41 -218.89,46.63 -262.33,57.12 -43.45,10.48 -30.41,11.94 -30.41,11.94 -30.05,3.95 -60.1,10.3 -90.15,21.72 -4.2,-6.37 -36.52,1.24 -47.78,4.35 -11.31,3.12 -189.81,42.23 -263.65,58.53 z" />
    </g>
    <g
       id="layer4"
       transform="matrix(0.15407325,0,0,0.15407325,-17.564422,-10.415912)">
      <path
         id="path3310"
         style="fill:url(#linearGradient3320);fill-rule:evenodd"
         d="m 206.35,191.3 53.21,383.37 c -6.83,7.97 194.12,-40.06 241.95,-46.49 47.83,-6.43 58.89,-1.29 58.89,-1.29 0,0 14.99,-11.68 59.03,-24.81 44.03,-13.12 232.12,-46.8 226.6,-51.22 L 724.39,92.47 c -21.05,14.46 -137.42,23.06 -178.11,31.49 -40.12,8.32 -62.08,20.97 -77,39.21 -5.41,-13.34 -40.02,-16.19 -58.58,-14.12 -18.63,2.08 -108.85,27.9 -204.35,42.25 z" />
      <path
         id="path3332"
         style="fill:#929292;fill-rule:evenodd;stroke:#b8b7b8"
         d="m 470.97,159.72 -2.22,0.53 90.19,367.66 2.22,-0.57 z" />
    </g>
    <g
       id="layer5"
       transform="matrix(0.15407325,0,0,0.15407325,-17.564422,-10.415912)">
      <path
         id="path3338"
         style="opacity:0.33766;fill:#929292;fill-rule:evenodd"
         d="m 704.83,118.54 c -21.46,4.48 -44.95,7.64 -68.56,10.72 l 96.39,322.99 c 27.44,-5.78 54.31,-11.63 77.53,-17.69 z m -78.13,11.97 c -24.46,3.19 -48.79,6.47 -70.81,11.25 l 92.39,328.71 c 23.54,-5.52 49.37,-10.9 75.03,-16.28 z m -80.09,13.37 c -27.13,6.66 -50.05,16.08 -64.38,31.07 l 81.36,323.64 c 14.35,-9.33 42.09,-17.79 75.44,-25.9 z m -115.47,25.35 c -7.37,0.07 -15.34,0.67 -23.75,1.68 l 64.92,337.93 c 33.15,-6.08 60.55,-9.04 74.38,-4.59 L 466.17,176.26 c -8.3,-5.19 -20.47,-7.17 -35.03,-7.03 z m -33.16,2.97 c -24.01,3.55 -50.67,9.75 -76.09,15.59 l 60.14,340.33 c 27.66,-6.19 55.67,-12.58 80.97,-17.5 z m -85.4,17.71 c -30.24,6.9 -57.86,12.75 -75.81,12.25 l 53.2,344.28 c 23.99,-3.46 52.96,-9.62 82.78,-16.25 z" />
    </g>
    <g
       id="layer6"
       transform="matrix(0.15407325,0,0,0.15407325,-17.564422,-10.415912)">
      <path
         id="path3538"
         style="opacity:0.2069;fill:#ffffff;fill-rule:evenodd;filter:url(#filter3587)"
         d="m 329.07,188.04 c 21.38,-3.98 40.66,-33.12 63.46,-17.34 21.6,18.77 13.19,50.18 14.99,75.13 -2.02,24.73 1.38,49.14 8.55,72.68 8.67,26.94 14.36,54.78 13.52,83.22 0.28,22.37 9.08,44.53 3.52,66.89 -11.07,4.62 -9.93,-27.27 -15.74,-37.19 -6.64,-25.28 -9.49,-51.35 -18.72,-75.98 -11.58,-42.72 -29.28,-84.25 -54.66,-120.68 -5.67,-15.34 -10.73,-30.92 -14.92,-46.73 z m 249.79,-54.3 c 21,-13.51 45.31,3.05 49.62,25.28 6.49,25.37 0.45,52.1 5.51,77.83 3.58,30.16 6.19,60.66 16.79,89.4 8.14,31.43 17.06,62.72 28.62,93.03 4.92,10.44 1.11,22.91 -5.44,6.61 -31,-41.41 -36.5,-94.59 -52.78,-142.37 -7.39,-27.36 -16.47,-54.04 -26.12,-80.54 -2.75,-23.79 -15.94,-45.38 -16.2,-69.24 z m -313.87,326.9 c -2,23.31 3.22,46.52 2.29,69.61 4.86,30.61 40.44,22.64 61.32,16.11 18.08,-1.09 43.58,-19.68 19.62,-34.22 -19.73,-15.39 -43.92,-24.29 -61.76,-42.36 -6.19,-4.74 -13.37,-9.25 -21.47,-9.14 z" />
    </g>
  </g>
</svg>
