<?xml version="1.0" encoding="UTF-8" standalone="no"?>
<svg
   xmlns:dc="http://purl.org/dc/elements/1.1/"
   xmlns:cc="http://creativecommons.org/ns#"
   xmlns:rdf="http://www.w3.org/1999/02/22-rdf-syntax-ns#"
   xmlns:svg="http://www.w3.org/2000/svg"
   xmlns="http://www.w3.org/2000/svg"
   xmlns:sodipodi="http://sodipodi.sourceforge.net/DTD/sodipodi-0.dtd"
   xmlns:inkscape="http://www.inkscape.org/namespaces/inkscape"
   id="svg2"
   height="810pt"
   width="910pt"
   version="1.1"
   viewBox="0 0 910 810"
   inkscape:version="0.91 r13725"
   sodipodi:docname="RainBoots.svg">
  <metadata
     id="metadata6564">
    <rdf:RDF>
      <cc:Work
         rdf:about="">
        <dc:format>image/svg+xml</dc:format>
        <dc:type
           rdf:resource="http://purl.org/dc/dcmitype/StillImage" />
      </cc:Work>
    </rdf:RDF>
  </metadata>
  <defs
     id="defs6562" />
  <sodipodi:namedview
     pagecolor="#ffffff"
     bordercolor="#666666"
     borderopacity="1"
     objecttolerance="10"
     gridtolerance="10"
     guidetolerance="10"
     inkscape:pageopacity="0"
     inkscape:pageshadow="2"
     inkscape:window-width="1916"
     inkscape:window-height="1035"
     id="namedview6560"
     showgrid="false"
     inkscape:zoom="0.60697364"
     inkscape:cx="568.75"
     inkscape:cy="506.25"
     inkscape:window-x="4"
     inkscape:window-y="1"
     inkscape:window-maximized="1"
     inkscape:current-layer="g4174" />
  <g
     id="g4174">
    <g
       id="g7106">
      <path
         style="fill:#efcd42;fill-opacity:1"
         fill="#eb5022"
         d="m780.65 4.4594c-5.9913-0.021182-11.778 0.078125-17.086 0.05-16.97 1.12-34.079 2.2309-50.819 5.1609-52.79 18.87-109.07 37.729-148.85 79.189-17.03 19.3-16.351 48.3-5.0906 70.37 20.77 69.33 42.91 138.59 55.03 210.09-0.69 4.77 1.8603 17.039-5.5297 16.589-24.07-36.46-55.441-70.31-96.091-88.1-22.64-16.67-54.059-13.909-77.119 0.29062-48.71 29.2-97.871 57.709-148.48 83.509-73.68 22.38-152.48 15.411-226.84 34.161-18.83 5.78-41.02 11.279-52.38 28.959-7.58 36.05-0.67 74.1 11.4 108.47 16.12 36.17 35.589 74.209 70.269 95.759 6.38 5.1 16.611 3.3903 20.911 11.17 27.79 44.34 59.04 87.77 100.4 120.5 16.41 11.79 34.66 24.04 55.47 25.22 51.01-6.14 102.67-37.251 119.18-88.041 5.26-39.37-18.07-74.379-36.67-106.99 13.57-28.42 40.6-50.97 72-56.42 40.95-11.64 82.01-22.931 123.12-33.941 3.27-1.65 2.8094 2.4906 0.8094 3.7406-26.35 23.03-50.76 48.56-80.15 67.9-32.49 33.5-41.31 87.461-22.15 129.94 18.31 34.28 59.311 45.72 95.241 49.65 73.23 0.85 155.05-3.7003 214.54-51.92 28.51-34.11 53.111-71.45 74.911-110.1 29.16-13.81 55.339-36.46 68.739-66.3 13.75-48.47 13.041-102.31-8.2594-148.53-15.99-42.93-33.3-85.871-40.77-131.31 0.67-77.21-1.5291-154.47 1.5609-231.64-11.51-24.966-41.33-27.338-67.29-27.43z"
         id="path4167" />
      <path
         transform="scale(.8)"
         fill="#333"
         d="m975.81 5.5742c-7.49-0.0265-14.73 0.0977-21.36 0.0625-21.21 1.4-42.6 2.7887-63.52 6.4513-65.99 23.587-136.34 47.161-186.07 98.982-21.28 24.13-20.44 60.38-6.36 87.97 25.96 86.66 53.64 173.24 68.79 262.61-0.87 5.96 2.32 21.3-6.91 20.74-30.09-45.58-69.31-87.89-120.12-110.13-28.3-20.84-67.57-17.38-96.4 0.36-60.88 36.5-122.34 72.14-185.6 104.39-92.1 27.98-190.6 19.27-283.55 42.7-23.535 7.23-51.272 14.1-65.472 36.2-9.4747 45.06-0.8372 92.63 14.25 135.59 20.15 45.21 44.486 92.76 87.832 119.7 7.98 6.37 20.77 4.24 26.14 13.96 34.74 55.43 73.8 109.71 125.5 150.63 20.52 14.73 43.33 30.01 69.34 31.51 63.76-7.66 128.34-46.55 148.98-110.04 6.57-49.21-22.59-92.97-45.84-133.73 16.96-35.53 50.75-63.72 90-70.53 51.18-14.55 102.51-28.66 153.9-42.43 4.09-2.06 3.51 3.12 1.01 4.68-32.94 28.79-63.45 60.7-100.19 84.87-40.61 41.88-51.64 109.33-27.69 162.43 22.89 42.85 74.14 57.15 119.06 62.06 91.53 1.07 193.81-4.62 268.17-64.9 35.64-42.63 66.4-89.31 93.6-137.62 36.5-17.26 69.2-45.58 86-82.88 17.1-60.58 16.3-127.88-10.4-185.66-19.9-53.66-41.6-107.34-50.9-164.14 0.8-96.51-1.9-193.08 1.9-289.55-14.4-31.207-51.6-34.171-84.09-34.286zm4.42 11.049c26.07 0.16 52.87 3.416 69.77 23.74-1.6 39.3 1.8 79.587-4.2 118.25-0.9 58.25 3.8 116.43 3.3 174.79 6.3 55.96 29 108.2 48 160.72 9.4 25.8 25.2 53.52 16 81.52-10.7 33.2-25.2 65.55-46.6 93.31-51.6 59.45-101.01 121.27-158.78 175.02-56.36 42.13-130.58 48.67-198.47 47.71-53.14 4.41-114.26 3.4-155.45-35.5-8.27-38.97 7.4-82.09 34.41-110.58 37.32-24.54 68.64-57.18 101.61-87.04 50.17-44.88 65.23-113.2 83.74-174.95 8.03-25.25-3.96-50.3-6.85-75.3-15.53-63.95-33.51-127.09-52.6-189.99-5.97-24.91-21.91-48.16-15.89-74.83 9.62-30.16 36.72-51.091 63.77-65.291 58.49-27.312 117.77-60.212 183.95-61.187 10.66 0.105 22.41-0.461 34.29-0.389zm38.97 16.227c-10.8 10.55 14.1 9.75 11.9 20.675-3.2 10.688-12.8 17.188-20.4 24.625-63.39 53.78-141.82 86.66-221.95 105.8-25.91 8.85-76.12-0.94-66.45-38.84-3.17-11.68 17.64-28.57 5.56-35.08-13.7 15.97-17.15 41.16-10.67 61.38 17.76 26.23 55.16 27.91 82.53 18.23 85.63-20.3 168.91-59.25 233.18-120.35 13.6-13.34 3.3-34.953-13.7-36.44zm-422.67 335.55c21.31 0.11 38.71 15.78 58.22 23.05 43.53 26.2 77.65 65.95 103.9 108.79-13.2 43.95-26.09 89.81-53.26 127.55-10.27 11.71-27.83 9-41.03 15.36-46.82 12.66-93.62 25.45-140.41 38.2-43.85 9.54-85.89 41.44-99.95 84.44 23.66 41.63 56.65 88.6 43.45 139.03-9.81 12.08-15.05 29.52-28.51 37.86 3.98-48.99-14.9-96.28-38.29-138.33-41.9-76.74-97.76-147.38-169.71-197.81-43.4-24.24-86.06-50.58-124.85-81.69 30.9-8.29 63.13-9.7 94.95-11.25 51.03-5.64 102.23-11.49 152.37-22.64 58.3-26.96 113.29-60.45 169.02-92.26 20.68-11.55 40.09-27.54 64.71-29.32 3.22-0.69 6.34-1 9.39-0.98zm-504.83 158.26c43.971 26.65 86.371 60.64 133.34 84.55 64.48 43.84 115.76 105.48 155.24 172.28 30.3 48.66 55.97 103.99 52.58 162.32 0.68 4.6-3.21 13.66-9.12 11.48-2.66-49.29-20.54-98.85-37.54-145.9-27.78-51.88-69.01-94.74-108.27-138.05-57.35-61.85-140.37-86.97-207.9-134.49-14.33-9.9 15.932-9.14 21.669-12.19zm-37.637 11.3c22.638 11.19 43.188 28.87 66.468 40.25 41.62 18.95 80.61 43.49 118.71 68.8 43.76 36.26 78.82 81.59 114.6 125.4 35.19 43.89 45.68 100.91 59.92 153.9-0.45 14.01 9.58 34.32-5.21 43.74-14.95 7.49-30.15 16.41-46.83 18.71 0.13-5.61 9.55-7.72 8.88-14.65-1.7-56.51-21.85-111.51-51.65-159.26-38.4-52.41-80.91-102.27-129.86-145.17-29.49-25.59-66.45-40.83-96.553-65.98-23.775-12.41-44.949-45.35-75.174-30.65-0.925-20.59 21.062-28.94 36.699-35.09zm-18.876 36.98c4.363 0.16 7.819 4 11.902 5.56 40.262 26.62 78.152 57.14 120.6 80.55 46.37 37.55 87.22 81.76 123.34 129.16 43.8 50 67.39 115.48 73.19 180.88-6.87 17.36-28.08 30.81-46.94 24.22-15.34-3.55-28.46-12.77-41.62-20.95-57.39-42.28-98.8-101.78-136.12-161.46-33.87-8.47-58.852-36.07-75.827-65.35-23.375-33.65-36.763-73.2-44.738-112.93-0.5-19.94-13.038-50.1 13.025-59.12 1.123-0.43 2.178-0.59 3.186-0.56zm1083 7.9c6.7 5.65 3.3 27.5-2.5 36.65-31.7 45.41-55.9 96.4-95.5 135.67-48.49 47.81-94.99 99.63-153.86 134.95-66.19 19.03-134.86 32.23-204.13 28.46-34.8-11.92-71.42-20.93-103.5-39.72-3.27-2.1-9.46-9.66-3.97-12.54 54.62 44.78 131.13 31.61 196.27 32.16 56.05-4.28 116.36-12.87 161.4-49.78 53.65-50.74 101.79-106.83 148.89-163.66 27.6-28.28 43.8-65.62 56.9-102.19zm-1082.2 11.92c-0.795 0.05-1.626 0.23-2.498 0.55-8.088 5.53-5.625 17.68-5.588 26.03 8.663 56.24 26.937 119.42 82.348 147.27 1.6 0.37 3.35 0.03 4.52-1.2 11.05-23.46 1.43-48.75-1.59-72.9-7.27-38.01-35.827-66.65-63.639-91.44-4.146-3.04-7.985-8.69-13.553-8.31zm0.852 7.92c28.175 20.03 56.013 48.56 67.18 82.93-0.45 24.38 20.54 52.24 4.51 74.7-53.24-30.76-69.628-95.15-74.315-151.99-0.613-2.23 0.287-4.89 2.625-5.64zm1081.2 27.87c1.4 48.55-35.9 97.6-81.3 117.16 32.1-34.77 51.4-81.28 81.3-117.16zm-950.37 66.98c-3.1-0.03-6.21 0.2-9.17 0.54-37.07 12.07-28.13 62.69-24.31 92.61 30.99 53.3 64.61 106.42 110 148.91 6.49 4.76 14 12.85 22.59 12.21 15.22-11.59 18.5-33.57 17.2-51.56-1.34-45.94-25.38-85.75-46.83-124.88-15.23-24.92-27.72-52.73-50.41-72.02-5.38-4.38-12.23-5.74-19.07-5.81zm-1.45 6.78c6.76-0.06 13.65 0.66 18.31 6.1 21.71 20.39 34.19 47.93 49.91 72.71 14.61 29.04 32.99 57.04 39.28 89.31 5.92 22.98 8.44 50.76-7.17 70.52-4.97 5.65-11.31-3.05-15.36-5.33-44.81-36.4-73.3-88.16-103.66-136.28-10.13-12.43-9.4-28.9-11.88-43.84 3.08-18.54 0.93-47.54 23.94-53.01 2.14-0.05 4.38-0.16 6.63-0.18zm847.02 68.4c1.1-0.04-0.3 2.38-0.6 3.58-23.3 39.48-49.8 77.08-78.19 113.12-25.8 23.21-58.52 38-91.66 47.08-59.79 16.36-122.47 21.51-184.14 16.17-39.66-7.27-87.56-23.46-100.9-66.13 33.89 17 70.16 28.75 106.86 38.03 67.74 4.25 134.64-8.67 199.52-26.47 57.5-30.5 101.7-80.25 147.91-124.91 0.5-0.32 0.9-0.46 1.2-0.47z"
         id="path4" />
      <path
         style="fill:#d9af4a;fill-opacity:1"
         fill="#f5ae69"
         transform="scale(.8)"
         d="m91.699 526.66c-5.737 3.05-35.999 2.29-21.674 12.19 67.535 47.52 150.56 72.64 207.9 134.49 39.27 43.31 80.5 86.17 108.28 138.05 17 47.05 34.88 96.61 37.54 145.9 5.91 2.18 9.8-6.88 9.12-11.48 3.39-58.33-22.28-113.66-52.58-162.32-39.48-66.8-90.76-128.44-155.24-172.28-46.97-23.91-89.37-57.9-133.34-84.55zm-56.513 48.28c-1.008-0.03-2.063 0.13-3.186 0.56-26.062 9.02-13.525 39.18-13.025 59.12 7.975 39.73 21.363 79.28 44.738 112.93 16.975 29.28 41.957 56.88 75.827 65.35 37.32 59.68 78.73 119.18 136.12 161.46 13.16 8.18 26.28 17.4 41.62 20.95 18.86 6.59 40.07-6.86 46.94-24.22-5.8-65.4-29.39-130.88-73.19-180.88-36.12-47.4-76.97-91.61-123.34-129.16-42.45-23.41-80.34-53.93-120.6-80.55-4.085-1.56-7.541-5.4-11.904-5.56zm1083 7.9c-13.1 36.57-29.3 73.91-56.9 102.19-47.1 56.83-95.24 112.92-148.89 163.66-45.04 36.91-105.35 45.5-161.4 49.78-65.14-0.55-141.65 12.62-196.27-32.16-5.49 2.88 0.7 10.44 3.97 12.54 32.08 18.79 68.7 27.8 103.5 39.72 69.27 3.77 137.94-9.43 204.13-28.46 58.87-35.32 105.37-87.14 153.86-134.95 39.6-39.27 63.8-90.26 95.5-135.67 5.8-9.15 9.2-31 2.5-36.65zm-1082.2 11.92c5.568-0.38 9.407 5.27 13.553 8.31 27.812 24.79 56.369 53.43 63.639 91.44 3.02 24.15 12.64 49.44 1.59 72.9-1.17 1.23-2.92 1.57-4.52 1.2-55.411-27.85-73.685-91.03-82.348-147.27-0.037-8.35-2.5-20.5 5.588-26.03 0.872-0.32 1.703-0.5 2.498-0.55zm0.852 7.92c-2.338 0.75-3.238 3.41-2.625 5.64 4.687 56.84 21.075 121.23 74.315 151.99 16.03-22.46-4.96-50.32-4.51-74.7-11.167-34.37-39.005-62.9-67.18-82.93zm1081.2 27.87c-29.9 35.88-49.2 82.39-81.3 117.16 45.4-19.56 82.7-68.61 81.3-117.16zm-950.37 66.98c6.84 0.07 13.69 1.43 19.07 5.81 22.69 19.29 35.18 47.1 50.41 72.02 21.45 39.13 45.49 78.94 46.83 124.88 1.3 17.99-1.98 39.97-17.2 51.56-8.59 0.64-16.1-7.45-22.59-12.21-45.39-42.49-79.01-95.61-110-148.91-3.82-29.92-12.76-80.54 24.31-92.61 2.96-0.34 6.07-0.57 9.17-0.54zm-1.45 6.78c-2.25 0.02-4.49 0.13-6.63 0.18-23.01 5.47-20.86 34.47-23.94 53.01 2.48 14.94 1.75 31.41 11.88 43.84 30.36 48.12 58.85 99.88 103.66 136.28 4.05 2.28 10.39 10.98 15.36 5.33 15.61-19.76 13.09-47.54 7.17-70.52-6.29-32.27-24.67-60.27-39.28-89.31-15.72-24.78-28.2-52.32-49.91-72.71-4.66-5.44-11.55-6.16-18.31-6.1z"
         id="path12" />
    </g>
  </g>
</svg>
