<?xml version="1.0" encoding="UTF-8" standalone="no"?>
<svg
   xmlns:dc="http://purl.org/dc/elements/1.1/"
   xmlns:cc="http://creativecommons.org/ns#"
   xmlns:rdf="http://www.w3.org/1999/02/22-rdf-syntax-ns#"
   xmlns:svg="http://www.w3.org/2000/svg"
   xmlns="http://www.w3.org/2000/svg"
   xmlns:sodipodi="http://sodipodi.sourceforge.net/DTD/sodipodi-0.dtd"
   xmlns:inkscape="http://www.inkscape.org/namespaces/inkscape"
   width="78.973282mm"
   height="75.165611mm"
   enable-background="new 0 0 354.792 575.449"
   viewBox="0 0 298.47769 284.09063"
   version="1.1"
   id="svg797"
   sodipodi:docname="brick-wall-151008.svg"
   inkscape:version="1.0.2-2 (e86c870879, 2021-01-15)">
  <metadata
     id="metadata801">
    <rdf:RDF>
      <cc:Work
         rdf:about="">
        <dc:format>image/svg+xml</dc:format>
        <dc:type
           rdf:resource="http://purl.org/dc/dcmitype/StillImage" />
        <dc:title></dc:title>
      </cc:Work>
    </rdf:RDF>
  </metadata>
  <sodipodi:namedview
     pagecolor="#ffffff"
     bordercolor="#666666"
     borderopacity="1"
     objecttolerance="10"
     gridtolerance="10"
     guidetolerance="10"
     inkscape:pageopacity="0"
     inkscape:pageshadow="2"
     inkscape:window-width="1920"
     inkscape:window-height="1017"
     id="namedview799"
     showgrid="false"
     units="mm"
     inkscape:zoom="0.57334808"
     inkscape:cx="872.52244"
     inkscape:cy="-43.877737"
     inkscape:window-x="-8"
     inkscape:window-y="-8"
     inkscape:window-maximized="1"
     inkscape:current-layer="svg797" />
  <defs
     id="defs5">
    <clipPath
       id="a">
      <path
         d="m 5.18494,204.82083 h 352.94323 a 0.30826,0.32349 0 0 1 0.30826,0.32349 v 372.4195 a 0.30826,0.32349 0 0 1 -0.30826,0.32349 H 5.18494 a 0.30826,0.32349 0 0 1 -0.30826,-0.32349 v -372.4195 a 0.30826,0.32349 0 0 1 0.30826,-0.32349"
         id="path2" />
    </clipPath>
  </defs>
  <path
     transform="translate(-21.628187,-289.15099)"
     d="m 291.179,138.504 c 0.282,1.615 -0.945,1.721 -1,3 3.078,0.745 1.922,-2.745 4.999,-2 v 3 c 2.007,0.34 3.129,-0.205 3,-2 2.463,2.87 7.417,3.248 6.999,8.999 4.381,0.729 -0.806,-1.987 2,-2 3.008,-1.008 1.771,2.228 2,4 -1.485,-1.575 -4.468,-1.114 -4,2 0.973,-0.027 0.776,-1.224 1,-2 2.092,2.19 3.758,2.059 4.999,-1 0.812,3.809 0.193,5.581 4,8.999 -2.897,-3.756 -4.123,0.491 -4.999,3.999 -1.667,-1.333 -6.363,0.364 -6,-3 -0.804,0.529 -1.623,1.043 -2.999,1 2.517,6.575 -7.141,-6.136 -8.999,-2 4.349,0.509 -1.743,1.896 -2,5.999 -1.486,-0.847 -1.446,-3.219 -2,-5 -2.003,0.409 -7.416,2.477 -8.998,0 -1.85,0.15 -0.614,3.386 -2,4 -3.954,-2.434 -5.884,-0.727 -10.999,-2 3.138,2.275 2.472,0.298 1,4 -1.615,0.282 -1.722,-0.945 -3,-1 0.777,0.89 1.075,2.258 1,4 -2.09,0.576 -2.854,2.479 -5.999,2 2.732,-2.64 -0.642,-3.597 -3.999,-3 -1.471,3.803 4.469,0.197 2.999,4 -5.625,-1.779 -3.868,2.922 -9.998,3 3.768,0.562 -1.138,4.905 1.999,7 -0.625,2.136 -6.154,0.937 -6.999,0 v -4 c 1.615,-0.282 1.722,0.945 3,1 1.026,-3.359 -3.11,-1.556 -5,-2 -1.373,-2.279 2.578,-3.759 0,-4 0.715,-1.269 5.828,-0.237 1,-2 0.638,-2.442 4.675,-0.151 5,1 1.655,-1.01 1.086,-4.247 1.999,-5.999 -1.249,1.801 -5.041,4.96 -4.999,0 2.306,1.984 1.11,-0.251 3,-1 -0.309,-3.961 -3.473,1.118 -3,-3 2.039,-2.008 1.961,0.442 4,1 2.604,-2.527 1.543,-5.018 2.999,-9.999 h -2.999 c 2.244,2.658 -1.496,5.091 0.999,6.999 -2.031,3.781 -2.864,-3.445 -0.999,-4 -3.229,-0.895 -1.405,3.261 -3,4 -2.837,-3.229 3.021,-6.268 3.999,-8.999 3.511,-0.178 3.289,3.377 6,3.999 -0.625,-2.375 -1.345,-4.654 -4,-4.999 0.529,-0.804 1.043,-1.623 1,-3 3.541,0.875 2.458,0.124 5.999,1 -0.732,-0.934 -1.817,-1.515 -2.999,-2 3.333,-2.666 6.617,-5.38 11.998,-6 -0.687,3.353 1.678,3.655 4,4 0.744,-3.078 -2.745,-1.921 -2,-4.999 3.149,-0.483 2.264,3.069 5.999,2 -7.331,-5.948 13.024,-0.108 15.998,-2.999 z m -28.996,4 c -0.251,1.727 1.883,5.921 2.999,3 -0.609,-0.057 -1.184,-0.149 -1,-1 0.24,-1.427 1.646,-1.686 2,-3 -1.891,-0.224 -2.206,1.127 -3.999,1 z"
     clip-path="url(#a)"
     fill="#ffffff"
     fill-rule="evenodd"
     id="path9" />
  <path
     transform="translate(-21.628187,-289.15099)"
     d="m 277.677,189.664 c 0,0 -1.477,0.632 -2.161,0.738 -0.684,0.106 -6.691,0.475 -7.113,0.316 -0.422,-0.159 -3.268,-8.905 -2.74,-10.328 0.528,-1.423 -0.105,-8.22 -0.105,-8.22 0,0 1.212,-8.326 6.692,-7.957 5.48,0.369 6.112,13.542 6.112,13.542 z"
     clip-path="url(#a)"
     fill="#fee9e5"
     fill-rule="evenodd"
     id="path11" />
  <path
     transform="translate(-21.628187,-289.15099)"
     d="m 94.203,92.51 c -3.055,0.722 -3.644,-1.022 -5.999,-1 2.639,-7.101 4.854,-14.757 8.999,-20.998 14.566,-21.928 29.882,-46.828 48.994,-59.992 -21.95,7.714 -29.505,38.485 -46.994,53.993 21.094,-25.289 30.2,-67.714 78.99,-61.992 -4.532,2.133 -13.04,0.291 -17.997,2 1.851,1.927 1.832,0.79 1,4 3.118,-7.616 23.6,-1.991 28.997,2 12.449,9.206 22.209,34.503 30.996,41.995 -10.658,-9.006 -17.828,-21.5 -26.997,-31.996 3.315,9.022 15.195,18.13 19.998,28.997 -6.153,-0.847 -8.007,-5.991 -10.999,-9.999 -2.054,1.478 3.399,3.867 3,6.999 -6.905,-0.094 -10.92,-3.078 -17.998,-3 -1.376,1.001 0.427,1.648 -2,3 5.744,-3.743 16.059,2.471 22.998,2 1.157,1.479 1.157,2.52 0,4 5.858,-3.235 15.516,2.732 16.997,7.999 0.92,-5.782 3.805,7.977 8.999,4 -1.104,5.283 1.763,8.373 -3.999,8.999 0.528,0.804 1.043,1.623 1,3 2.681,-1.652 3.591,-5.074 5.999,-7 2.179,1.417 1.641,4.762 5.999,4 -0.122,3.703 -1.455,2.515 -3.999,2 1.875,0.219 3.373,5.831 4.999,3 1.286,1.821 0.401,5.493 -2,7.999 0.235,1.36 6.485,-1.546 5.999,3 -1.479,-0.52 -2.52,-1.479 -3.999,-2 0.802,4.062 0.079,9.03 -4.999,12.999 0.161,1.171 1.822,0.843 2.999,1 -3.021,4.431 -9.293,-2.714 -13.998,-3 2.199,3.524 7.999,8.074 3,12.999 -3.364,0.364 -1.667,-4.333 -3,-6 1.986,0.013 1.271,2.728 3.999,2 -1.511,-2.488 -3.428,-4.571 -6.999,-5 2.805,-3.838 0.403,-2.161 -1,-5.999 2.58,-2.669 1.053,2.301 5,1 -1.323,-4.734 -14.427,-8.951 -7.999,-11.999 0.45,-1.633 -5.45,-1.633 -5,0 -2.109,-2.738 -2.362,-3.531 -2.999,-5.999 h -5.999 c 4.191,-3.239 -1.046,-4.485 -6,-4 0.437,-1.23 1.28,-2.053 3,-2 -2.685,-0.335 -7.915,0.447 -9.999,0 -1.434,-1.233 -1.894,-3.438 -1.999,-6 -3.855,3.017 -6.225,3.596 -10.999,4 2.438,-2.422 -2.427,-2.647 -4.999,-3 7.932,2.291 -7.429,3.134 -4,0 h -4 c -1.484,0.437 0.395,1.279 0,3 -4.292,0.775 -6.441,-2.51 -7.999,1 -2.181,0.181 -3.181,-0.818 -3,-3 -3.364,3.987 -2.758,0.557 -5,-1 -2.184,0.674 -0.029,5.246 3,4 -6.889,1.11 -11.9,4.098 -15.998,7.999 -3.077,-1.566 4.43,-0.788 3,-4 -2.549,1.451 -5.33,2.669 -6.999,5 -2.077,-0.257 -0.273,-4.393 -2,-5 -1.821,-0.271 1.907,6.123 -2,3 -0.127,1.793 1.224,2.109 1,4 -2.09,-0.423 -2.647,0.685 -3.999,1 0.241,1.759 1.72,2.279 3.999,2 -3.013,0.986 -4.735,3.263 -8.999,3 3.606,2.55 0.866,6.821 1,9.999 -1.357,-0.31 -0.829,-2.503 -1,-4 -0.804,0.529 -1.624,1.043 -3,1 -0.466,1.912 3.082,4.304 -1,4 0.161,1.171 1.823,0.843 3,1 -1.311,1.545 -7.168,2.397 -4,6.999 -3.679,1.837 -13.36,-2.08 -13.998,5 -1.916,-0.845 -2.706,-4.386 -1,-5.999 0.296,-1.788 -3.879,-0.062 -3,2 -1.362,-0.958 -4.246,-8.842 0,-8.999 -0.997,-1.336 -2.703,-1.964 -3,-4 -1.273,0.226 -1.31,2.984 0,3 -4.211,1.242 0.46,-7.785 2,-9.999 -0.226,-1.273 -2.984,-1.31 -3,0 -3.658,-5.031 2.494,-8.808 4.999,-10.999 -2.127,1.761 -5.189,-2.109 0,-4 4.708,-1.062 -2.021,3.75 3,3 1.508,-0.869 -0.275,-1.497 1,-3.999 0.396,-2.396 -4.554,0.555 -3,-3 3.149,1.121 2.264,0.09 6,0 -3.041,-1.26 -3.509,-2.589 -1,-4.999 3.313,0.977 -1.117,1.977 -1,3 6.661,-5.337 10.778,-13.219 20.998,-14.998 -0.223,-4.24 13.865,-15.898 19.998,-21.998 6.629,-6.594 13.744,-11.935 16.998,-19.998 -14.038,18.474 -46.73,44.088 -63.992,60.993 -6.391,6.254 -6.427,8.576 -7,19.993 z m 148.982,0 c 1.984,-2.306 -0.251,-1.111 -1,-3 0.779,-0.221 1.163,-0.837 1,-2 -1.329,0.146 -3.721,-3.363 -3.999,-1 3.041,0.292 1.377,5.288 3.999,6 z M 152.196,32.518 c 3.625,-6.646 9.909,-11.772 5.999,-7.999 -8.112,7.83 -21.361,21.409 -29.996,26.997 13,-2.18 20.518,-7.647 39.995,-7.999 0.156,1.177 -0.172,2.838 1,3 1.745,-2.039 -0.745,-1.96 1,-4 -7.585,-1.234 -15.752,2.221 -19.998,1 1.175,-2.523 8.744,-8.085 6,-7.999 -3.969,4.364 -7.042,9.623 -13.999,10.999 4.582,-5.417 9.581,-10.416 14.998,-14.998 2.009,-2.333 -0.442,-2.333 -1,0 -5.611,5.388 -11.872,10.126 -16.998,15.998 -1.742,-0.075 -3.11,0.223 -4,1 5.165,-5.836 10.756,-11.244 16.999,-15.999 z m -21.997,4.999 c 7.743,-9.255 15.091,-18.905 24.997,-25.997 -11.08,5.255 -21.784,16.207 -24.997,25.997 z m 17.998,-17.998 c -7.938,5.354 -0.118,3.932 5.999,-2 -2.901,1.112 -4.31,0.861 -5.999,2 z m -38.995,41.995 c 7.681,-14.651 20.557,-29.433 27.996,-40.995 -9.945,12.388 -22.763,27.228 -27.996,40.995 z m 34.995,-33.996 c 3.096,-1.307 3.883,0.787 5.999,-2 -1.883,-1.898 -5.196,-0.121 -5.999,2 z m 54.993,7 c -0.782,-1.039 -8.292,-7.733 -5.999,-6 3.215,7.416 10.87,12.469 5.999,6 z m -12.999,8.998 c -2.705,-1.661 -12.292,-1.661 -14.998,0 3.26,0.971 9.175,-0.588 14.998,0 z"
     clip-path="url(#a)"
     fill="#ee3224"
     fill-rule="evenodd"
     id="path13" />
  <path
     transform="translate(-21.628187,-289.15099)"
     d="m 96.911,78.83 c 0,0 20.485,-24.979 38.814,-29.65 18.329,-4.671 19.586,-7.367 43.307,-6.109 23.721,1.258 22.103,3.773 22.103,3.773 0,0 6.829,0.539 11.681,3.594 4.852,3.055 9.165,0.719 14.196,6.11 5.031,5.391 12.22,10.782 12.22,10.782 0,0 4.672,1.078 8.266,14.196 3.594,13.118 1.797,17.61 1.797,17.61 0,0 -7.906,9.883 -9.703,10.063 -1.797,0.18 -6.11,5.211 -7.907,3.954 -1.797,-1.257 -5.57,-8.266 -5.57,-8.266 l -4.312,-13.118 c 0,0 -8.447,-11.681 -20.127,-15.454 -11.68,-3.773 -19.587,-5.391 -30.548,-4.492 -10.961,0.899 -18.868,2.875 -23.36,5.391 -4.492,2.516 -17.431,12.579 -17.431,12.579 l -6.469,16.353 -10.602,7.368 -7.727,1.797 c 0,0 -6.829,-3.593 -7.368,-3.953 -0.539,-0.36 -2.516,-15.454 -2.516,-15.454 0,0 -2.338,-7.371 1.256,-17.074 z"
     clip-path="url(#a)"
     fill="#ffffff"
     fill-rule="evenodd"
     id="path15" />
  <path
     transform="translate(-21.628187,-289.15099)"
     d="m 155.2,11.52 c -9.906,7.092 -17.254,16.742 -24.997,25.997 3.213,-9.79 13.917,-20.742 24.997,-25.997 z"
     clip-path="url(#a)"
     fill-rule="evenodd"
     id="path21" />
  <path
     transform="translate(-21.628187,-289.15099)"
     d="m 150.196,25.519 c -2.116,2.787 -2.903,0.693 -5.999,2 0.803,-2.122 4.116,-3.899 5.999,-2 z"
     clip-path="url(#a)"
     fill-rule="evenodd"
     id="path23" />
  <path
     transform="translate(-21.628187,-289.15099)"
     d="m 171.194,43.516 c 2.706,-1.661 12.292,-1.661 14.998,0 -5.824,-0.588 -11.739,0.971 -14.998,0 z"
     clip-path="url(#a)"
     fill-rule="evenodd"
     id="path25" />
  <path
     transform="translate(-21.628187,-289.15099)"
     d="m 196.19,75.512 c 2.833,0.167 4.167,1.833 6.999,2 -0.819,1.713 -7.231,0.644 -6.999,-2 z"
     clip-path="url(#a)"
     fill="#eff0f0"
     fill-rule="evenodd"
     id="path27" />
  <path
     transform="translate(-21.628187,-289.15099)"
     d="m 207.189,90.51 c -0.111,1.889 -3.306,0.694 -3,3 0.869,1.464 1.497,3.169 4,3 0.728,2.728 -1.987,2.013 -2,4 -1.773,-2.893 -4.658,-4.674 -7.999,-6 3.072,-4.929 -0.357,-1.966 -1,-6.999 3.629,-2.652 7.259,1.609 9.999,2.999 z"
     clip-path="url(#a)"
     fill="#ffffff"
     fill-rule="evenodd"
     id="path29" />
  <path
     transform="translate(-21.628187,-289.15099)"
     d="m 162.195,88.511 c 6.167,1.053 8.89,10.231 4,13.998 -2.632,-1.035 -3.368,-3.965 -5.999,-5 1.066,-3.954 3.032,0.254 5.999,0 -0.908,-2.091 -2.951,-3.048 -5.999,-3 -1.07,-3.735 2.482,-2.849 1.999,-5.998 z"
     clip-path="url(#a)"
     fill="#ffffff"
     fill-rule="evenodd"
     id="path31" />
  <path
     transform="translate(-21.628187,-289.15099)"
     d="m 141.2,93.51 c -1.711,2.288 -7.632,0.367 -10.999,1 3.011,-3.18 7.12,-1.277 10.999,-1 z"
     clip-path="url(#a)"
     fill="#ead766"
     fill-rule="evenodd"
     id="path33" />
  <path
     transform="translate(-21.628187,-289.15099)"
     d="m 207.189,94.51 c -0.413,-0.761 1.578,-0.933 2,-1 6.732,-1.063 1.691,0.007 5.999,1 9.734,2.244 -7.313,1.264 -7.999,0 z"
     clip-path="url(#a)"
     fill="#ead766"
     fill-rule="evenodd"
     id="path35" />
  <path
     transform="translate(-21.628187,-289.15099)"
     d="m 198.19,97.509 c 2.367,-2.3 6.642,1.974 5.999,6 -1.793,-0.127 -2.108,1.224 -3.999,1 1.196,-2.791 1.793,-6.733 -2,-7 z"
     clip-path="url(#a)"
     fill="#ffffff"
     fill-rule="evenodd"
     id="path37" />
  <path
     transform="translate(-21.628187,-289.15099)"
     d="m 187.191,97.509 c 1.817,1.183 0.786,5.213 2,7 -3.078,0.745 -1.922,-2.745 -4.999,-2 -0.472,-3.139 2.691,-2.642 2.999,-5 z"
     clip-path="url(#a)"
     fill="#ffffff"
     fill-rule="evenodd"
     id="path39" />
  <path
     transform="translate(-21.628187,-289.15099)"
     d="m 148.197,98.509 c 2.168,-0.168 0.453,3.546 1,5 -2.09,0.423 -2.647,-0.686 -4,-1 -0.877,-3.21 2.593,-2.073 3,-4 z"
     clip-path="url(#a)"
     fill="#ffffff"
     fill-rule="evenodd"
     id="path41" />
  <path
     transform="translate(-21.628187,-289.15099)"
     d="m 214.19,115.51 c -4.152,-5.429 -18.393,-4.121 -22.997,-6 8.341,-1.858 20.565,-1.148 22.997,6 z"
     clip-path="url(#a)"
     fill-rule="evenodd"
     id="path43" />
  <path
     transform="translate(-21.628187,-289.15099)"
     d="m 230.19,118.51 c -0.804,-0.529 -1.623,-1.043 -3,-1 2.595,-3.072 8.382,-2.95 9.999,-6.999 3.581,4.626 -5.793,4.838 -6.999,7.999 z"
     clip-path="url(#a)"
     fill="#eff0f0"
     fill-rule="evenodd"
     id="path45" />
  <path
     transform="translate(-21.628187,-289.15099)"
     d="m 242.185,110.508 c 2.575,0.758 3.475,3.191 3,6.999 -3.153,-0.181 -3.378,-3.288 -3,-6.999 z"
     clip-path="url(#a)"
     fill="#eff0f0"
     fill-rule="evenodd"
     id="path47" />
  <path
     transform="translate(-21.628187,-289.15099)"
     d="m 124.2,117.507 c -2.951,-2.172 -4.048,-3.976 -6.999,-4 0.847,-1.486 3.219,-1.447 4.999,-2 0.575,2.091 2.479,2.854 2,6 z"
     clip-path="url(#a)"
     fill="#eff0f0"
     fill-rule="evenodd"
     id="path49" />
  <path
     transform="translate(-21.628187,-289.15099)"
     d="m 124.2,114.51 c 3.185,-2.404 3.037,5.048 1,6.999 -2.847,-0.402 2.576,-5.866 -1,-6.999 z"
     clip-path="url(#a)"
     fill="#eff0f0"
     fill-rule="evenodd"
     id="path51" />
  <path
     transform="translate(-21.628187,-289.15099)"
     d="m 257.18,120.51 c -2.04,-1.292 -1.818,-4.848 -5.999,-4 0.354,-1.313 1.761,-1.572 2,-3 2.023,1.643 3.989,3.344 3.999,7 z"
     clip-path="url(#a)"
     fill="#eff0f0"
     fill-rule="evenodd"
     id="path53" />
  <path
     transform="translate(-21.628187,-289.15099)"
     d="m 119.2,122.506 c -1.342,-0.658 -1.862,-2.137 -2,-4 -2.753,2.15 -4.177,-0.58 -7,1 1.254,3.044 0.764,3.888 -1,5.999 -6.765,-9.031 14.369,-12.634 10,-2.999 z"
     clip-path="url(#a)"
     fill="#eff0f0"
     fill-rule="evenodd"
     id="path55" />
  <path
     transform="translate(-21.628187,-289.15099)"
     d="m 239.19,118.51 c 2.819,-3.713 3.9,2.687 5.999,3 -2.126,3.019 -3.724,-2.864 -5.999,-3 z"
     clip-path="url(#a)"
     fill="#eff0f0"
     fill-rule="evenodd"
     id="path57" />
  <path
     transform="translate(-21.628187,-289.15099)"
     d="m 173.193,123.506 c 2.655,0.344 3.375,2.625 4,4.999 -3.291,0.042 -4.978,1.688 -8.999,1 -0.398,-4.064 4.256,-3.076 4.999,-5.999 z"
     clip-path="url(#a)"
     fill="#fac0c0"
     fill-rule="evenodd"
     id="path59" />
  <path
     transform="translate(-21.628187,-289.15099)"
     d="m 251.18,132.5 c -0.539,-3.872 2.549,-4.117 3,-6.999 2.383,1.807 0.228,7.494 -3,6.999 z"
     clip-path="url(#a)"
     fill="#eff0f0"
     fill-rule="evenodd"
     id="path61" />
  <path
     transform="translate(-21.628187,-289.15099)"
     d="m 123.2,134.505 c -0.804,-0.529 -1.623,-1.043 -3,-1 v -5 c -1.172,0.162 -0.843,1.823 -1,3 -1.912,-0.421 -4.304,-0.362 -4,-3 2.483,0.15 4.149,-0.517 5,-2 2.615,1.053 3.27,4.063 3,8 z"
     clip-path="url(#a)"
     fill="#eff0f0"
     fill-rule="evenodd"
     id="path63" />
  <path
     transform="translate(-21.628187,-289.15099)"
     d="m 71.206,129.5 c 2.185,1.815 6.361,1.639 6,6 -3.976,-0.025 -4.016,-3.984 -6,-6 z"
     clip-path="url(#a)"
     fill-rule="evenodd"
     id="path65" />
  <path
     transform="translate(-21.628187,-289.15099)"
     d="m 176.193,136.504 c 0.406,1.927 3.876,0.79 2.999,4 -0.804,-0.529 -1.623,-1.043 -2.999,-1 0.638,4.837 -1.321,7.071 0,9.999 -4.189,-1.477 0.109,-11.441 -5,-11.999 0.981,-3.065 2.667,1.149 4,1 -1.601,-6.113 -10.888,-0.279 -14.998,-5 4.453,-3.394 20.604,3.853 24.997,-4 3.715,-0.382 2.613,4.052 6.999,3 -0.24,3.093 -8.229,-1.563 -6.999,3 -2.729,0.728 -2.013,-1.987 -4,-2 -1.079,1.76 0.886,5.691 -4.999,3 z"
     clip-path="url(#a)"
     fill="#eff0f0"
     fill-rule="evenodd"
     id="path67" />
  <path
     transform="translate(-21.628187,-289.15099)"
     d="m 135.2,130.5 c 2.348,1.651 4.445,3.554 5,6.999 -2.152,-2.167 -2.397,2.677 -7,1 0.056,-3.276 2.844,-3.822 2,-7.999 z"
     clip-path="url(#a)"
     fill="#eff0f0"
     fill-rule="evenodd"
     id="path69" />
  <path
     transform="translate(-21.628187,-289.15099)"
     d="m 131.2,131.5 c 3.808,-0.746 2.162,6.475 -1,4.999 -0.319,-2.318 0.16,-3.838 1,-4.999 z"
     clip-path="url(#a)"
     fill="#eff0f0"
     fill-rule="evenodd"
     id="path71" />
  <path
     transform="translate(-21.628187,-289.15099)"
     d="m 237.19,137.5 c -2.636,-0.697 -2.114,-4.552 -4.999,-5 2.052,-2.629 4.878,2.388 4.999,5 z"
     clip-path="url(#a)"
     fill="#eff0f0"
     fill-rule="evenodd"
     id="path73" />
  <path
     transform="translate(-21.628187,-289.15099)"
     d="m 151.196,135.505 c -0.315,2.351 -4.739,0.593 -4,4 -0.804,-0.529 -1.623,-1.043 -3,-1 1.711,-1.624 3.64,-3.027 7,-3 z"
     clip-path="url(#a)"
     fill="#eff0f0"
     fill-rule="evenodd"
     id="path75" />
  <path
     transform="translate(-21.628187,-289.15099)"
     d="m 159.2,135.5 c 5.131,-0.132 8.016,1.983 8.999,5.999 -2.159,-2.84 -7.29,-2.709 -8.999,-5.999 z"
     clip-path="url(#a)"
     fill="#eff0f0"
     fill-rule="evenodd"
     id="path77" />
  <path
     transform="translate(-21.628187,-289.15099)"
     d="m 215.19,144.5 c -2.125,-1.542 -0.425,-6.908 -3,-7.999 3.166,-3.006 5.203,5.164 3,7.999 z"
     clip-path="url(#a)"
     fill="#eff0f0"
     fill-rule="evenodd"
     id="path79" />
  <path
     transform="translate(-21.628187,-289.15099)"
     d="m 200.19,137.504 c 2.136,0.625 0.937,6.155 0,6.999 -2.879,-1.424 -2.018,-5.423 0,-6.999 z"
     clip-path="url(#a)"
     fill="#eff0f0"
     fill-rule="evenodd"
     id="path81" />
  <path
     transform="translate(-21.628187,-289.15099)"
     d="m 137.2,140.5 c 3.873,-3.899 5.452,5.827 2,7 -4.644,-0.425 1.411,-5.343 -2,-7 z"
     clip-path="url(#a)"
     fill="#eff0f0"
     fill-rule="evenodd"
     id="path83" />
  <path
     transform="translate(-21.628187,-289.15099)"
     d="m 129.2,150.5 c -1.209,-3.791 -4.115,-5.884 -6,-8.999 3.573,-2.518 8.661,5.284 6,8.999 z"
     clip-path="url(#a)"
     fill="#eff0f0"
     fill-rule="evenodd"
     id="path85" />
  <path
     transform="translate(-21.628187,-289.15099)"
     d="m 266.182,141.504 c -0.354,1.313 -1.76,1.573 -2,3 -0.184,0.851 0.391,0.943 1,1 -1.116,2.922 -3.25,-1.272 -2.999,-3 1.793,0.127 2.108,-1.224 3.999,-1 z"
     clip-path="url(#a)"
     fill-rule="evenodd"
     id="path87" />
  <path
     transform="translate(-21.628187,-289.15099)"
     d="m 240.19,142.5 c 3.58,0.611 1.328,6.395 -2,5.999 -0.48,-3.146 1.423,-3.909 2,-5.999 z"
     clip-path="url(#a)"
     fill="#eff0f0"
     fill-rule="evenodd"
     id="path89" />
  <path
     transform="translate(-21.628187,-289.15099)"
     d="m 177.19,150.5 c 0.621,-3.045 5.378,-1.954 5.999,-5 2.502,2.246 -1.911,6.031 -5.999,5 z"
     clip-path="url(#a)"
     fill="#eff0f0"
     fill-rule="evenodd"
     id="path91" />
  <path
     transform="translate(-21.628187,-289.15099)"
     d="m 220.19,150.5 c 3.587,-2.542 7.539,3.092 6.999,7.999 -2.972,-2.027 -2.131,-7.868 -6.999,-7.999 z"
     clip-path="url(#a)"
     fill="#eff0f0"
     fill-rule="evenodd"
     id="path93" />
  <path
     transform="translate(-21.628187,-289.15099)"
     d="m 139.2,152.5 h 3 c 0.399,3.732 -0.799,5.867 -4,6 -0.132,-2.465 -0.152,-4.817 1,-6 z"
     clip-path="url(#a)"
     fill="#eff0f0"
     fill-rule="evenodd"
     id="path95" />
  <path
     transform="translate(-21.628187,-289.15099)"
     d="m 204.19,159.5 c -3.55,-0.51 -2.837,-4.566 -2,-7 1.818,1.183 0.787,5.214 2,7 z"
     clip-path="url(#a)"
     fill="#eff0f0"
     fill-rule="evenodd"
     id="path97" />
  <path
     transform="translate(-21.628187,-289.15099)"
     d="m 175.19,154.5 c 0.316,5.547 -4.625,0.044 -5,4 -2.78,-1.887 2.161,-4.427 5,-4 z"
     clip-path="url(#a)"
     fill="#eff0f0"
     fill-rule="evenodd"
     id="path99" />
  <path
     transform="translate(-21.628187,-289.15099)"
     d="m 186.19,161.5 c 0.895,-1.772 4.059,-1.274 3,-5 4.641,1.012 -0.69,7.972 -3,5 z"
     clip-path="url(#a)"
     fill="#eff0f0"
     fill-rule="evenodd"
     id="path101" />
  <path
     transform="translate(-21.628187,-289.15099)"
     d="m 218.188,163.501 c -2.235,-0.431 -0.404,-4.927 -1,-6.999 2.906,0.019 2.364,5.651 1,6.999 z"
     clip-path="url(#a)"
     fill="#eff0f0"
     fill-rule="evenodd"
     id="path103" />
  <path
     transform="translate(-21.628187,-289.15099)"
     d="m 317.176,165.501 c -0.31,1.357 -2.504,0.83 -4,1 0.7,-3.078 0.7,-1.922 0,-5 2.66,0.007 2.551,2.783 4,4 z"
     clip-path="url(#a)"
     fill-rule="evenodd"
     id="path105" />
  <path
     transform="translate(-21.628187,-289.15099)"
     d="m 128.2,170.5 c 1.564,-1.858 -0.456,-6.194 -3,-7 2.074,-3.57 8.542,6.128 3,7 z"
     clip-path="url(#a)"
     fill="#eff0f0"
     fill-rule="evenodd"
     id="path107" />
  <path
     transform="translate(-21.628187,-289.15099)"
     d="m 143.2,163.5 c 4.132,0.636 3.177,7.898 2,10.999 -1.018,-3.749 -3.743,-7.333 -2,-10.999 z"
     clip-path="url(#a)"
     fill="#eff0f0"
     fill-rule="evenodd"
     id="path109" />
  <path
     transform="translate(-21.628187,-289.15099)"
     d="m 221.188,175.5 v -5.999 c -2.039,0.558 -1.961,3.008 -4,1 1.431,3.134 -0.168,7.126 -3.999,4.999 1.573,-2.426 3.729,-4.27 3,-8.999 4.413,1.929 9.396,2.659 9.998,-3 3.76,2.351 1.004,13.012 -4.999,11.999 z"
     clip-path="url(#a)"
     fill="#eff0f0"
     fill-rule="evenodd"
     id="path111" />
  <path
     transform="translate(-21.628187,-289.15099)"
     d="m 159.2,165.5 c 3.468,2.456 1.634,6.737 0,9.999 -2.387,-1.812 -0.563,-7.829 0,-9.999 z"
     clip-path="url(#a)"
     fill="#eff0f0"
     fill-rule="evenodd"
     id="path113" />
  <path
     transform="translate(-21.628187,-289.15099)"
     d="m 308.177,165.501 c 3.709,0.739 -0.075,4.991 0,7.999 1.778,-3.731 3.295,0.188 2.999,4 -1.182,1.151 -3.534,1.132 -5.999,1 v -6 c -3.352,2.125 1.611,7.361 -1,8.999 -2.529,-2.921 -0.338,-9.627 0,-12.999 -1.172,0.162 -0.843,1.823 -0.999,3 -2.169,0.169 -0.453,-3.546 -1,-4.999 1.162,0.163 1.778,-0.221 1.999,-1 1.833,1.639 2.859,5.533 4,0 z"
     clip-path="url(#a)"
     fill="#fee9e5"
     fill-rule="evenodd"
     id="path115" />
  <path
     transform="translate(-21.628187,-289.15099)"
     d="m 86.204,171.5 c 1.645,-2.85 5.425,0.48 7,1 -0.013,1.987 -2.728,1.271 -2,4 -0.934,-0.566 -1.515,-2.78 -2,-1 -2.761,0.428 -0.938,-3.728 -3,-4 z"
     clip-path="url(#a)"
     fill="#fee9e5"
     fill-rule="evenodd"
     id="path117" />
  <path
     transform="translate(-21.628187,-289.15099)"
     d="m 316.176,170.5 c 2.364,0.618 1.958,4.761 5.999,5.999 -0.247,1.086 -1.988,0.678 -2,2 -1.994,-1.005 -1.577,-4.421 -4.999,-4 0.776,-0.889 1.075,-2.257 1,-3.999 z"
     clip-path="url(#a)"
     fill="#ffffff"
     fill-rule="evenodd"
     id="path119" />
  <path
     transform="translate(-21.628187,-289.15099)"
     d="m 162.195,171.5 c 4.237,-0.045 0.904,6.82 -2,6 -0.261,-2.928 2.261,-3.073 2,-6 z"
     clip-path="url(#a)"
     fill="#eff0f0"
     fill-rule="evenodd"
     id="path121" />
  <path
     transform="translate(-21.628187,-289.15099)"
     d="m 263.183,171.5 c 4.268,0.398 0.953,8.379 1.999,11.999 h -3.999 c 4.501,-2.165 -2.186,-10.458 2,-11.999 z"
     clip-path="url(#a)"
     fill="#fee9e5"
     fill-rule="evenodd"
     id="path123" />
  <path
     transform="translate(-21.628187,-289.15099)"
     d="m 170.194,172.5 c -0.441,2.892 -2.108,4.558 -5,5 1.405,-1.93 0.546,-6.121 5,-5 z"
     clip-path="url(#a)"
     fill="#eff0f0"
     fill-rule="evenodd"
     id="path125" />
  <path
     transform="translate(-21.628187,-289.15099)"
     d="m 234.186,179.499 c -2.954,0.03 -3.385,-4.629 -1.999,-5.999 0.804,0.529 1.623,1.043 2.999,1 0.826,2.826 -1.41,2.59 -1,4.999 z"
     clip-path="url(#a)"
     fill="#eff0f0"
     fill-rule="evenodd"
     id="path127" />
  <path
     transform="translate(-21.628187,-289.15099)"
     d="m 93.204,174.5 c 2.39,2.678 -0.609,4.54 1,7.999 -4.113,-0.829 -2.768,-5.878 -1,-7.999 z"
     clip-path="url(#a)"
     fill="#fee9e5"
     fill-rule="evenodd"
     id="path129" />
  <path
     transform="translate(-21.628187,-289.15099)"
     d="m 96.203,175.5 c 2.332,0.334 4.308,1.025 5,3 -0.188,2.812 -1.74,4.26 -5,4 -1.984,-1.893 -0.485,-4.725 0,-7 z"
     clip-path="url(#a)"
     fill="#fee9e5"
     fill-rule="evenodd"
     id="path131" />
  <path
     transform="translate(-21.628187,-289.15099)"
     d="m 215.19,177.5 c -2.292,1.155 -5.852,1.302 -8.999,0 3.039,-1.902 6.598,-2.049 8.999,0 z"
     clip-path="url(#a)"
     fill="#eff0f0"
     fill-rule="evenodd"
     id="path133" />
  <path
     transform="translate(-21.628187,-289.15099)"
     d="m 261.183,176.5 c 0.442,3.775 -1.972,4.694 -3,6.999 -3.296,-0.37 -7.64,0.308 -6.999,-4 0.973,0.028 0.776,1.224 1,2 2.136,-2.276 5.104,-7.654 8.999,-4.999 z"
     clip-path="url(#a)"
     fill="#fee9e5"
     fill-rule="evenodd"
     id="path135" />
  <path
     transform="translate(-21.628187,-289.15099)"
     d="m 197.19,176.5 c 0.467,2.134 -1.429,1.905 -3,2 4.118,3.738 8.271,-2.928 11.999,0 -0.92,1.746 -3.126,2.207 -5.999,2 -0.468,2.134 1.428,1.904 2.999,2 1.945,3.208 -8.579,-1.447 -8.999,1 -2.324,-2.86 -2.505,-7.6 3,-7 z"
     clip-path="url(#a)"
     fill="#eff0f0"
     fill-rule="evenodd"
     id="path137" />
  <path
     transform="translate(-21.628187,-289.15099)"
     d="m 212.19,181.5 c 0.45,2.784 -5.45,-0.784 -4.999,2 -3.232,-2.272 4.172,-6.264 4.999,-2 z"
     clip-path="url(#a)"
     fill="#eff0f0"
     fill-rule="evenodd"
     id="path139" />
  <path
     transform="translate(-21.628187,-289.15099)"
     d="m 298.178,181.499 c -0.136,3.197 0.985,7.651 -3,6.999 -5.922,-0.897 -2.329,-11.518 3,-6.999 z"
     clip-path="url(#a)"
     fill="#fee9e5"
     fill-rule="evenodd"
     id="path141" />
  <path
     transform="translate(-21.628187,-289.15099)"
     d="m 311.18,180.5 c 1.15,2.801 1.15,5.198 0,7.999 h -6.999 c -0.72,-5.72 0.586,-9.414 6.999,-7.999 z"
     clip-path="url(#a)"
     fill="#fee9e5"
     fill-rule="evenodd"
     id="path143" />
  <path
     transform="translate(-21.628187,-289.15099)"
     d="m 285.18,182.499 c 0.604,2.395 1.438,4.562 1,7.999 -2.833,1.042 -4.167,1.042 -6.999,0 -0.551,-5.217 0.442,-8.89 5.999,-7.999 z"
     clip-path="url(#a)"
     fill="#fee9e5"
     fill-rule="evenodd"
     id="path145" />
  <path
     transform="translate(-21.628187,-289.15099)"
     d="m 48.209,185.499 c 2.255,0.745 0.391,5.608 1,7.999 -1.793,-0.127 -2.109,1.224 -4,1 -0.777,-2.222 -2.1,-3.898 -2,-6.999 1.991,-1.885 4.271,-0.939 5,-2 z"
     clip-path="url(#a)"
     fill="#fee9e5"
     fill-rule="evenodd"
     id="path147" />
  <path
     transform="translate(-21.628187,-289.15099)"
     d="m 65.207,186.499 c 0.511,4.177 -0.558,6.775 -2,8.999 -3.058,0.726 -2.941,-1.725 -5.999,-1 -1.337,-6.671 1.598,-9.068 7.999,-7.999 z"
     clip-path="url(#a)"
     fill="#fee9e5"
     fill-rule="evenodd"
     id="path149" />
  <path
     transform="translate(-21.628187,-289.15099)"
     d="m 235.19,187.5 c 4.35,-2.316 12.986,-0.346 18.998,-1 -4.35,2.317 -12.987,0.346 -18.998,1 z"
     clip-path="url(#a)"
     fill-rule="evenodd"
     id="path151" />
  <path
     transform="translate(-21.628187,-289.15099)"
     d="m 88.204,188.498 c 2.695,-2.304 9.644,-0.355 13.998,-1 h 13.999 c -7.341,2.325 -18.992,0.339 -27.997,1 z"
     clip-path="url(#a)"
     fill-rule="evenodd"
     id="path153" />
  <path
     transform="translate(-21.628187,-289.15099)"
     d="m 13.213,189.498 c 2.038,-2.295 8.304,-0.362 11.999,-1 -2.038,2.295 -8.304,0.362 -11.999,1 z"
     clip-path="url(#a)"
     fill-rule="evenodd"
     id="path155" />
  <path
     transform="translate(-21.628187,-289.15099)"
     d="m 38.21,192.498 c -4.324,-3.539 -1.03,0.389 -4,2 -3.142,-0.191 -4.808,-1.858 -5,-4.999 3.323,-0.339 9.997,-3.277 9,2.999 z"
     clip-path="url(#a)"
     fill="#fee9e5"
     fill-rule="evenodd"
     id="path157" />
  <path
     transform="translate(-21.628187,-289.15099)"
     d="m 212.19,190.5 c 3.355,-2.311 10.981,-0.351 15.998,-1 h 15.998 c -8.671,2.327 -21.659,0.338 -31.996,1 z"
     clip-path="url(#a)"
     fill-rule="evenodd"
     id="path159" />
  <path
     transform="translate(-21.628187,-289.15099)"
     d="m 155.2,190.5 c 2.031,1.78 -10.356,1 -15.998,1 -11.633,0 -26.356,-0.938 -29.996,0 10.571,-2.725 32.636,-0.005 45.994,-1 z"
     clip-path="url(#a)"
     fill-rule="evenodd"
     id="path161" />
  <path
     transform="translate(-21.628187,-289.15099)"
     d="m 89.204,192.498 c 3.355,-2.31 10.981,-0.35 15.998,-1 -3.356,2.31 -10.982,0.35 -15.998,1 z"
     clip-path="url(#a)"
     fill-rule="evenodd"
     id="path163" />
  <path
     transform="translate(-21.628187,-289.15099)"
     d="m 274.181,193.498 c -5.812,2.367 -20.05,0.334 -6.999,0 2.333,-0.06 4.569,0.046 6.999,0 z"
     clip-path="url(#a)"
     fill-rule="evenodd"
     id="path165" />
  <path
     transform="translate(-21.628187,-289.15099)"
     d="m 326.17,194.5 c -2.422,1.808 -10.297,-1.711 -13.998,1 1.064,-4.172 11.152,-1.558 13.998,-1 z"
     clip-path="url(#a)"
     fill-rule="evenodd"
     id="path167" />
  <path
     transform="translate(-21.628187,-289.15099)"
     d="m 120.2,195.497 c 3.355,-2.31 10.981,-0.35 15.998,-1 h 16.998 c -9.005,2.328 -22.326,0.338 -32.996,1 z"
     clip-path="url(#a)"
     fill-rule="evenodd"
     id="path169" />
  <path
     transform="translate(-21.628187,-289.15099)"
     d="m 3.215,207.496 c 2.124,-0.421 0.485,11.486 1,15.998 -2.125,0.421 -0.486,-11.487 -1,-15.998 z"
     clip-path="url(#a)"
     fill-rule="evenodd"
     id="path177" />
  <path
     transform="matrix(1.3150601,0,0,1.3150601,-94.957534,-416.14655)"
     d="m 156.196,316.482 c 0.85,-0.185 0.943,0.39 1,1 8.003,3.994 21.155,1.936 32.996,1.999 11.663,0.063 23.696,0.009 34.995,0 2.012,6.622 -2.163,15.351 4,18.998 -6.339,2.426 -2.401,7.023 -4,14.998 -4.888,0.778 -13.547,-2.215 -13.998,3 -1.44,-0.227 -0.349,-2.984 -1.999,-3 -18.565,-0.506 -43.201,1.102 -56.993,-1 v -32.996 c 3.144,1.846 3.558,-0.877 3.999,-2.999 z m -2,33.996 h 47.994 c 0.639,-3.694 -1.294,-9.96 1,-11.998 1.047,3.619 -2.268,11.601 2,11.998 2.907,-0.759 -0.907,-8.239 2,-8.999 0.617,4.506 -1.13,9.154 2,8.999 3.972,0.973 0.411,-5.588 3.999,-4.999 v 4.999 h 8.999 c -0.174,-13.777 1.11,-18.823 0,-28.996 h -33.996 c -0.655,6.344 1.318,15.316 -1,19.997 v -19.997 h -32.996 z"
     clip-path="url(#a)"
     fill-rule="evenodd"
     id="path243" />
  <path
     transform="matrix(1.3150601,0,0,1.3150601,-94.957534,-416.14655)"
     d="m 146.197,320.481 v 32.996 c -23.262,0.851 -46.455,-0.448 -73.991,0 2.819,-8.847 -0.866,-24.196 2,-32.996 21.341,0.111 44.891,-1.791 71.991,0 z m -70.991,30.997 c 21.194,-0.674 42.697,-0.062 67.992,-1 V 321.482 H 75.206 Z"
     clip-path="url(#a)"
     fill-rule="evenodd"
     id="path245" />
  <path
     transform="matrix(1.3150601,0,0,1.3150601,-94.957534,-416.14655)"
     d="m 234.186,319.481 c 21.013,0.652 44.642,-1.313 63.992,1 v 32.996 c -1.771,0.228 -5.007,-1.008 -3.999,2 -3.213,0.879 -1.37,-3.296 -4,-3 -11.712,2.236 -22.867,-1.139 -36.995,0 -2.598,0.209 -10.045,-0.653 -10.999,4 -1.453,-2.547 -4.948,-3.051 -7.999,-4 z m 2,2 v 28.996 h 58.992 c -0.134,-10.039 0.497,-23.294 -0.999,-28.996 z"
     clip-path="url(#a)"
     fill-rule="evenodd"
     id="path247" />
  <path
     transform="matrix(1.3150601,0,0,1.3150601,-94.957534,-416.14655)"
     d="m 154.196,321.481 h 32.996 v 19.997 c 2.318,-4.681 0.345,-13.653 1,-19.997 h 33.996 c 1.11,10.173 -0.174,15.219 0,28.996 h -8.999 v -4.999 c -3.588,-0.589 -0.027,5.972 -3.999,4.999 -3.13,0.155 -1.383,-4.493 -2,-8.999 -2.907,0.76 0.907,8.24 -2,8.999 -4.268,-0.397 -0.953,-8.379 -2,-11.998 -2.294,2.038 -0.361,8.304 -1,11.998 h -47.994 z m 28.996,11.998 c -0.221,-2.178 1.632,-10.851 -1,-10.998 0.633,3.367 -1.288,9.288 1,10.998 z m 8.999,11 c -0.551,-5.469 1.174,-18.479 -1,-18.998 0.551,5.469 -1.174,18.478 1,18.998 z m 2.999,2 c -0.55,-5.47 1.175,-18.479 -1,-18.998 0.551,5.469 -1.173,18.478 1,18.998 z m 4,2 c -0.499,-4.197 1.103,-15.727 -1,-14.999 0.499,4.197 -1.102,15.727 1,14.999 z"
     clip-path="url(#a)"
     fill="#bf0000"
     fill-rule="evenodd"
     id="path249" />
  <path
     transform="matrix(1.3150601,0,0,1.3150601,-94.957534,-416.14655)"
     d="m 103.2,322.48 c 3.739,1.395 0.775,5.033 2,9.999 -2.163,-1.836 -2.105,-5.894 -2,-9.999 z"
     clip-path="url(#a)"
     fill-rule="evenodd"
     id="path253" />
  <path
     transform="matrix(1.3150601,0,0,1.3150601,-94.957534,-416.14655)"
     d="m 182.192,322.481 c 2.632,0.147 0.779,8.82 1,10.998 -2.288,-1.71 -0.367,-7.631 -1,-10.998 z"
     clip-path="url(#a)"
     fill-rule="evenodd"
     id="path255" />
  <path
     transform="matrix(1.3150601,0,0,1.3150601,-94.957534,-416.14655)"
     d="m 261.18,323.48 v 15.998 h -2 c 1.15,-4.848 -2.415,-14.414 2,-15.998 z"
     clip-path="url(#a)"
     fill-rule="evenodd"
     id="path259" />
  <path
     transform="matrix(1.3150601,0,0,1.3150601,-94.957534,-416.14655)"
     d="m 191.191,325.48 c 2.174,0.52 0.449,13.529 1,18.998 -2.174,-0.519 -0.449,-13.528 -1,-18.998 z"
     clip-path="url(#a)"
     fill-rule="evenodd"
     id="path261" />
  <path
     transform="matrix(1.3150601,0,0,1.3150601,-94.957534,-416.14655)"
     d="m 194.19,327.48 c 2.175,0.52 0.45,13.528 1,18.998 -2.173,-0.519 -0.449,-13.528 -1,-18.998 z"
     clip-path="url(#a)"
     fill-rule="evenodd"
     id="path265" />
  <path
     transform="matrix(1.3150601,0,0,1.3150601,-94.957534,-416.14655)"
     d="m 111.201,328.48 c 2.143,-0.11 0.472,12.169 1,16.998 -2.143,0.111 -0.472,-12.168 -1,-16.998 z"
     clip-path="url(#a)"
     fill-rule="evenodd"
     id="path271" />
  <path
     transform="matrix(1.3150601,0,0,1.3150601,-94.957534,-416.14655)"
     d="m 266.182,327.48 c 2.308,3.025 0.353,10.313 1,14.998 -3.125,-1.875 -2.479,-11.724 -1,-14.998 z"
     clip-path="url(#a)"
     fill-rule="evenodd"
     id="path273" />
  <path
     transform="matrix(1.3150601,0,0,1.3150601,-94.957534,-416.14655)"
     d="m 198.19,333.479 c 2.103,-0.728 0.501,10.802 1,14.999 -2.102,0.729 -0.501,-10.801 -1,-14.999 z"
     clip-path="url(#a)"
     fill-rule="evenodd"
     id="path279" />
  <path
     transform="matrix(1.3150601,0,0,1.3150601,-94.957534,-416.14655)"
     d="m 270.182,334.479 c 1.853,-2.43 0.675,6.591 1,8.999 -1.854,2.43 -0.675,-6.59 -1,-8.999 z"
     clip-path="url(#a)"
     fill-rule="evenodd"
     id="path281" />
  <path
     transform="matrix(1.3150601,0,0,1.3150601,-94.957534,-416.14655)"
     d="m 119.2,338.479 c 1.9,-2.156 0.3,7.642 2,8.999 -3.315,-0.351 -1.569,-5.763 -2,-8.999 z"
     clip-path="url(#a)"
     fill-rule="evenodd"
     id="path285" />
  <path
     transform="matrix(1.3150601,0,0,1.3150601,-94.957534,-416.14655)"
     d="m 278.18,340.48 c 3.613,-0.947 1.395,3.938 1.999,5.999 -2.554,-0.112 -1.985,-3.348 -1.999,-5.999 z"
     clip-path="url(#a)"
     fill-rule="evenodd"
     id="path289" />
  <path
     transform="matrix(1.3150601,0,0,1.3150601,-94.957534,-416.14655)"
     d="m 121.2,360.477 c 0.85,-0.184 0.943,0.39 1,1 15.703,5.294 42.624,-0.629 59.993,3 1.649,8.779 1.649,24.216 0,32.995 -23.982,-0.977 -52.407,1.176 -73.991,-1 0.188,-10.616 -0.263,-25.602 0,-32.995 5.453,-0.602 14.525,1.903 12.998,-3 z m -10.999,4.999 v 27.997 c 21.015,2.315 46.315,0.346 68.991,1 v -28.997 z"
     clip-path="url(#a)"
     fill-rule="evenodd"
     id="path291" />
  <path
     transform="matrix(1.3150601,0,0,1.3150601,-94.957534,-416.14655)"
     d="m 189.191,363.477 h 68.991 v 33.995 c -11.751,0.686 -24.807,-2.677 -31.996,2 0.529,-0.804 1.043,-1.623 1,-3 -10.483,1.717 -27.488,1.567 -37.995,0 z m 2,29.996 c 18.862,2.013 45.831,0.235 63.992,0 v -27.997 c -11.336,0.663 -25.325,-1.327 -34.996,1 1.66,2.378 1.66,11.621 0,13.998 -2.727,-2.939 0.792,-12.123 -2,-14.998 -0.97,2.981 -0.26,6.089 -1,6.999 -3.161,-1.547 1.252,-6.001 -0.999,-6.999 -4.563,-1.229 0.093,6.76 -3,6.999 v -6.999 h -21.997 z"
     clip-path="url(#a)"
     fill-rule="evenodd"
     id="path293" />
  <path
     transform="matrix(1.3150601,0,0,1.3150601,-94.957534,-416.14655)"
     d="m 223.188,369.476 c 1.916,-2.173 0.631,7.311 1,9.999 -1.917,2.171 -0.632,-7.312 -1,-9.999 z"
     clip-path="url(#a)"
     fill-rule="evenodd"
     id="path301" />
  <path
     transform="matrix(1.3150601,0,0,1.3150601,-94.957534,-416.14655)"
     d="m 142.2,369.48 c 4.76,1.652 0.587,10.181 1,13.998 -2.304,-2.696 -0.355,-9.644 -1,-13.998 z"
     clip-path="url(#a)"
     fill-rule="evenodd"
     id="path305" />
  <path
     transform="matrix(1.3150601,0,0,1.3150601,-94.957534,-416.14655)"
     d="m 137.2,371.48 c 1.774,-2.668 0.729,5.858 1,7.999 -1.774,2.667 -0.729,-5.859 -1,-7.999 z"
     clip-path="url(#a)"
     fill-rule="evenodd"
     id="path307" />
  <path
     transform="matrix(1.3150601,0,0,1.3150601,-94.957534,-416.14655)"
     d="m 147.2,371.48 c 2.046,-1.329 0.54,9.42 1,12.998 -2.047,1.329 -0.541,-9.421 -1,-12.998 z"
     clip-path="url(#a)"
     fill-rule="evenodd"
     id="path309" />
  <path
     transform="matrix(1.3150601,0,0,1.3150601,-94.957534,-416.14655)"
     d="m 228.187,372.475 c 1.968,-1.901 0.595,8.021 1,10.999 -1.968,1.901 -0.595,-8.021 -1,-10.999 z"
     clip-path="url(#a)"
     fill-rule="evenodd"
     id="path315" />
  <path
     transform="matrix(1.3150601,0,0,1.3150601,-94.957534,-416.14655)"
     d="m 233.186,376.475 c 1.917,-2.173 0.632,7.311 1,9.999 -1.916,2.172 -0.631,-7.312 -1,-9.999 z"
     clip-path="url(#a)"
     fill-rule="evenodd"
     id="path319" />
  <path
     transform="matrix(1.3150601,0,0,1.3150601,-94.957534,-416.14655)"
     d="m 155.2,381.47 c 1.853,-2.43 0.675,6.591 1,8.999 -1.853,2.429 -0.675,-6.591 -1,-8.999 z"
     clip-path="url(#a)"
     fill-rule="evenodd"
     id="path325" />
  <path
     transform="matrix(1.3150601,0,0,1.3150601,-94.957534,-416.14655)"
     d="m 237.186,381.474 c 1.773,-2.667 0.729,5.858 1,7.999 -1.775,2.668 -0.729,-5.859 -1,-7.999 z"
     clip-path="url(#a)"
     fill-rule="evenodd"
     id="path327" />
  <path
     transform="matrix(1.3150601,0,0,1.3150601,-94.957534,-416.14655)"
     d="m 243.18,384.47 c 1.484,1.849 1.915,4.75 2,7.999 -3.111,-0.223 -1.69,-4.977 -2,-7.999 z"
     clip-path="url(#a)"
     fill-rule="evenodd"
     id="path329" />
  <path
     transform="matrix(1.3150601,0,0,1.3150601,-94.957534,-416.14655)"
     d="m 129.199,406.471 c 3.197,4.521 13.166,0.316 16.998,2 0.707,9.153 -0.433,21.224 0,32.996 -20.666,1.773 -51.096,-0.94 -71.991,1 -1.797,-12.767 -1.55,-21.843 -1,-32.996 16.083,-3.582 41.587,2.258 55.993,-3 z m -53.993,4 v 28.996 h 67.992 c 0.689,-9.108 -0.22,-16.759 0,-28.996 -26.945,-1.921 -37.13,0.639 -67.992,0 z"
     clip-path="url(#a)"
     fill-rule="evenodd"
     id="path331" />
  <path
     transform="matrix(1.3150601,0,0,1.3150601,-94.957534,-416.14655)"
     d="m 226.187,408.471 v 32.996 h -72.991 v -29.996 c -0.043,-1.711 0.743,-2.59 2,-3 z m -70.991,2 v 28.996 h 67.992 v -28.996 c -25.781,-1.233 -42.616,-0.486 -67.992,0 z"
     clip-path="url(#a)"
     fill-rule="evenodd"
     id="path333" />
  <path
     transform="matrix(1.3150601,0,0,1.3150601,-94.957534,-416.14655)"
     d="m 297.178,409.471 c 2.26,8.739 0.388,21.609 1,31.996 h -64.992 c 2.137,-8.863 0.477,-21.521 1,-31.996 18.724,-1.688 44.258,-1.627 62.992,0 z m -34.995,1 c -0.647,4.685 1.308,11.973 -1,14.998 -1.406,-4.594 3.164,-15.163 -3,-14.998 -2.933,1.399 0.933,9.598 -1.999,10.998 v -10.998 h -19.998 v 28.996 c 19.709,-1.525 30.638,0.62 49.994,-1 0.547,-1.453 -1.169,-5.168 1,-4.999 v 4.999 h 7.998 v -27.996 c -11.63,0.292 -24.084,-0.465 -32.995,0 z"
     clip-path="url(#a)"
     fill-rule="evenodd"
     id="path335" />
  <path
     transform="matrix(1.3150601,0,0,1.3150601,-94.957534,-416.14655)"
     d="m 143.197,410.471 c -0.22,12.237 0.689,19.888 0,28.996 H 75.205 v -28.996 c 30.863,0.639 41.048,-1.921 67.992,0 z m -45.994,11.998 c -0.369,-2.688 0.916,-12.172 -1,-9.999 0.369,2.688 -0.916,12.172 1,9.999 z m 4.999,4.999 c -1.046,-3.619 2.269,-11.6 -2,-11.998 1.047,3.619 -2.267,11.6 2,11.998 z m 4,-0.999 c 0.009,14.491 2.721,-7.252 0,-9.999 -1.432,3.329 -0.601,5.218 0,9.999 z m 4.999,8.998 c 0.997,-5.316 2.067,-12.054 -1,-13.998 0.645,4.354 -1.304,11.302 1,13.998 z m 5,0 c -0.405,-2.978 0.968,-12.899 -1,-10.998 0.404,2.977 -0.969,12.9 1,10.998 z m 5.999,1 c -0.609,-2.391 1.255,-7.254 -1,-7.999 -1.738,1.856 -1.289,7.165 1,7.999 z"
     clip-path="url(#a)"
     fill="#bf0000"
     fill-rule="evenodd"
     id="path339" />
  <path
     transform="matrix(1.3150601,0,0,1.3150601,-94.957534,-416.14655)"
     d="m 96.203,412.47 c 1.916,-2.173 0.631,7.312 1,9.999 -1.916,2.173 -0.631,-7.311 -1,-9.999 z"
     clip-path="url(#a)"
     fill-rule="evenodd"
     id="path345" />
  <path
     transform="matrix(1.3150601,0,0,1.3150601,-94.957534,-416.14655)"
     d="m 266.182,415.47 c 2.077,-1.031 0.52,10.112 1,13.998 -2.077,1.031 -0.519,-10.113 -1,-13.998 z"
     clip-path="url(#a)"
     fill-rule="evenodd"
     id="path349" />
  <path
     transform="matrix(1.3150601,0,0,1.3150601,-94.957534,-416.14655)"
     d="m 100.203,415.47 c 4.268,0.398 0.953,8.379 2,11.998 -4.268,-0.398 -0.954,-8.379 -2,-11.998 z"
     clip-path="url(#a)"
     fill-rule="evenodd"
     id="path353" />
  <path
     transform="matrix(1.3150601,0,0,1.3150601,-94.957534,-416.14655)"
     d="m 183.192,416.47 c 1.773,-2.668 0.729,5.858 1,7.999 -1.774,2.667 -0.728,-5.859 -1,-7.999 z"
     clip-path="url(#a)"
     fill-rule="evenodd"
     id="path355" />
  <path
     transform="matrix(1.3150601,0,0,1.3150601,-94.957534,-416.14655)"
     d="m 193.191,416.47 c 2.102,-0.729 0.5,10.801 0.999,14.998 -2.101,0.728 -0.5,-10.801 -0.999,-14.998 z"
     clip-path="url(#a)"
     fill-rule="evenodd"
     id="path357" />
  <path
     transform="matrix(1.3150601,0,0,1.3150601,-94.957534,-416.14655)"
     d="m 106.2,416.47 c 2.721,2.747 0.009,24.49 0,9.999 -0.601,-4.781 -1.432,-6.67 0,-9.999 z"
     clip-path="url(#a)"
     fill-rule="evenodd"
     id="path359" />
  <path
     transform="matrix(1.3150601,0,0,1.3150601,-94.957534,-416.14655)"
     d="m 188.191,417.47 c 2.047,-1.329 0.54,9.42 1,12.998 -2.046,1.329 -0.54,-9.42 -1,-12.998 z"
     clip-path="url(#a)"
     fill-rule="evenodd"
     id="path361" />
  <path
     transform="matrix(1.3150601,0,0,1.3150601,-94.957534,-416.14655)"
     d="m 196.19,421.469 c 2.011,-1.619 0.565,8.724 1,11.999 -2.01,1.619 -0.565,-8.724 -1,-11.999 z"
     clip-path="url(#a)"
     fill-rule="evenodd"
     id="path365" />
  <path
     transform="matrix(1.3150601,0,0,1.3150601,-94.957534,-416.14655)"
     d="m 110.2,421.47 c 3.067,1.944 1.997,8.682 1,13.998 -2.304,-2.696 -0.355,-9.644 -1,-13.998 z"
     clip-path="url(#a)"
     fill-rule="evenodd"
     id="path369" />
  <path
     transform="matrix(1.3150601,0,0,1.3150601,-94.957534,-416.14655)"
     d="m 199.19,422.469 c 2.819,0.299 3.537,11.837 0,11.999 z"
     clip-path="url(#a)"
     fill-rule="evenodd"
     id="path371" />
  <path
     transform="matrix(1.3150601,0,0,1.3150601,-94.957534,-416.14655)"
     d="m 115.2,424.47 c 1.968,-1.901 0.595,8.021 1,10.998 -1.969,1.902 -0.596,-8.021 -1,-10.998 z"
     clip-path="url(#a)"
     fill-rule="evenodd"
     id="path373" />
  <path
     transform="matrix(1.3150601,0,0,1.3150601,-94.957534,-416.14655)"
     d="m 277.18,424.47 c 3.688,1.445 0.896,5.666 2,10.998 -1.893,-2.441 -2.148,-6.519 -2,-10.998 z"
     clip-path="url(#a)"
     fill-rule="evenodd"
     id="path375" />
  <path
     transform="matrix(1.3150601,0,0,1.3150601,-94.957534,-416.14655)"
     d="m 121.2,428.468 c 2.255,0.745 0.391,5.608 1,7.999 -2.289,-0.834 -2.738,-6.143 -1,-7.999 z"
     clip-path="url(#a)"
     fill-rule="evenodd"
     id="path377" />
  <path
     transform="matrix(1.3150601,0,0,1.3150601,-94.957534,-416.14655)"
     d="m 235.186,451.465 c 0.865,4.038 15.808,1.114 22.997,2 -0.523,10.476 1.137,23.134 -1,31.996 -18.832,-1.215 -46.661,1.666 -68.991,-1 v -29.996 c 13.121,-3.543 35.514,2.185 46.994,-3 z m -44.995,4 v 26.996 h 64.992 v -26.996 c -27.343,-0.234 -37.203,-0.776 -64.992,0 z"
     clip-path="url(#a)"
     fill-rule="evenodd"
     id="path379" />
  <path
     transform="matrix(1.3150601,0,0,1.3150601,-94.957534,-416.14655)"
     d="m 182.192,453.465 c 2.204,10.316 0.139,20.555 0,31.996 h -72.991 c 0.047,-11.693 -0.884,-25.244 0,-31.996 z m -70.991,2 c -0.834,13.223 0.514,14.575 -1,26.996 h 68.991 v -26.996 c -23.636,-1.3 -38.194,-0.197 -67.991,0 z"
     clip-path="url(#a)"
     fill-rule="evenodd"
     id="path381" />
  <path
     transform="matrix(1.3150601,0,0,1.3150601,-94.957534,-416.14655)"
     d="m 137.2,457.46 c 2.011,-1.62 0.565,8.724 1,11.998 -2.011,1.619 -0.565,-8.724 -1,-11.998 z"
     clip-path="url(#a)"
     fill-rule="evenodd"
     id="path383" />
  <path
     transform="matrix(1.3150601,0,0,1.3150601,-94.957534,-416.14655)"
     d="m 222.188,457.465 c 1.968,-1.902 0.595,8.021 1,10.998 -1.969,1.901 -0.596,-8.021 -1,-10.998 z"
     clip-path="url(#a)"
     fill-rule="evenodd"
     id="path385" />
  <path
     transform="matrix(1.3150601,0,0,1.3150601,-94.957534,-416.14655)"
     d="m 226.187,458.465 c 2.103,-0.729 0.501,10.801 1,14.998 -2.102,0.727 -0.5,-10.802 -1,-14.998 z"
     clip-path="url(#a)"
     fill-rule="evenodd"
     id="path387" />
  <path
     transform="matrix(1.3150601,0,0,1.3150601,-94.957534,-416.14655)"
     d="m 132.199,458.465 c 4.766,1.577 0.065,15.279 1,2.999 -0.53,-0.804 -1.044,-1.623 -1,-2.999 z"
     clip-path="url(#a)"
     fill-rule="evenodd"
     id="path391" />
  <path
     transform="matrix(1.3150601,0,0,1.3150601,-94.957534,-416.14655)"
     d="m 140.2,460.46 c 2.077,-1.031 0.519,10.112 1,13.998 -2.077,1.031 -0.519,-10.112 -1,-13.998 z"
     clip-path="url(#a)"
     fill-rule="evenodd"
     id="path395" />
  <path
     transform="matrix(1.3150601,0,0,1.3150601,-94.957534,-416.14655)"
     d="m 144.2,463.46 c 2.011,-1.619 0.565,8.724 1,11.998 -2.011,1.62 -0.565,-8.724 -1,-11.998 z"
     clip-path="url(#a)"
     fill-rule="evenodd"
     id="path401" />
  <path
     transform="matrix(1.3150601,0,0,1.3150601,-94.957534,-416.14655)"
     d="m 230.19,462.46 c 4.387,1.279 0.869,10.463 2,14.998 -1.826,-3.842 -2.13,-9.203 -2,-14.998 z"
     clip-path="url(#a)"
     fill-rule="evenodd"
     id="path403" />
  <path
     transform="matrix(1.3150601,0,0,1.3150601,-94.957534,-416.14655)"
     d="m 147.2,466.46 c 1.917,-2.172 0.631,7.312 1,9.999 -1.917,2.173 -0.632,-7.311 -1,-9.999 z"
     clip-path="url(#a)"
     fill-rule="evenodd"
     id="path409" />
  <path
     transform="matrix(1.3150601,0,0,1.3150601,-94.957534,-416.14655)"
     d="m 235.186,469.463 c 1.853,-2.43 0.675,6.591 1,8.999 -1.853,2.43 -0.675,-6.591 -1,-8.999 z"
     clip-path="url(#a)"
     fill-rule="evenodd"
     id="path413" />
  <path
     transform="matrix(1.3150601,0,0,1.3150601,-94.957534,-416.14655)"
     d="m 150.2,469.46 c 2.28,1.387 0.373,6.96 1,9.999 -1.614,-2.752 -2.389,-6.939 -1,-9.999 z"
     clip-path="url(#a)"
     fill-rule="evenodd"
     id="path417" />
  <path
     transform="matrix(1.3150601,0,0,1.3150601,-94.957534,-416.14655)"
     d="m 233.186,497.459 c 21.702,0.629 45.943,-1.281 65.992,1 -0.318,9.058 -0.331,20.742 -1,31.996 -22.515,-1.386 -45.352,-0.928 -60.992,1 -0.443,-0.89 -0.878,-1.788 -2,-2 -4.591,-6.74 -0.722,-21.941 -2,-31.996 z m 2,2 v 27.997 c 13.438,0.652 38.39,-0.401 59.992,0 -0.318,-11.221 1.086,-18.041 0,-27.997 z"
     clip-path="url(#a)"
     fill-rule="evenodd"
     id="path421" />
  <path
     transform="matrix(1.3150601,0,0,1.3150601,-94.957534,-416.14655)"
     d="m 96.203,502.459 c 1.774,-2.668 0.729,5.858 1,7.999 -1.774,2.667 -0.728,-5.858 -1,-7.999 z"
     clip-path="url(#a)"
     fill-rule="evenodd"
     id="path423" />
  <path
     transform="matrix(1.3150601,0,0,1.3150601,-94.957534,-416.14655)"
     d="m 183.192,502.459 c 1.773,-2.668 0.729,5.858 1,7.999 -1.774,2.667 -0.728,-5.858 -1,-7.999 z"
     clip-path="url(#a)"
     fill-rule="evenodd"
     id="path425" />
  <path
     transform="matrix(1.3150601,0,0,1.3150601,-94.957534,-416.14655)"
     d="m 260.18,502.46 c 1.665,-5.684 2.101,21.579 1,7.999 0.233,2.88 -0.912,-8.303 -1,-7.999 z"
     clip-path="url(#a)"
     fill-rule="evenodd"
     id="path427" />
  <path
     transform="matrix(1.3150601,0,0,1.3150601,-94.957534,-416.14655)"
     d="m 266.182,503.459 c 0.847,-4.474 1.748,5.66 1,6.999 -0.302,0.54 -2.045,-1.475 -1,-6.999 z"
     clip-path="url(#a)"
     fill-rule="evenodd"
     id="path429" />
  <path
     transform="matrix(1.3150601,0,0,1.3150601,-94.957534,-416.14655)"
     d="m 103.2,503.46 c 4.439,1.894 0.832,11.833 2,16.998 -2.421,-3.912 -2.005,-10.661 -2,-16.998 z"
     clip-path="url(#a)"
     fill-rule="evenodd"
     id="path433" />
  <path
     transform="matrix(1.3150601,0,0,1.3150601,-94.957534,-416.14655)"
     d="m 193.191,505.459 c 2.076,-1.031 0.519,10.112 0.999,13.998 -2.076,1.031 -0.518,-10.113 -0.999,-13.998 z"
     clip-path="url(#a)"
     fill-rule="evenodd"
     id="path435" />
  <path
     transform="matrix(1.3150601,0,0,1.3150601,-94.957534,-416.14655)"
     d="m 272.181,507.458 c 2.077,-1.031 0.52,10.112 1,13.998 -2.077,1.032 -0.519,-10.112 -1,-13.998 z"
     clip-path="url(#a)"
     fill-rule="evenodd"
     id="path439" />
  <path
     transform="matrix(1.3150601,0,0,1.3150601,-94.957534,-416.14655)"
     d="m 197.19,509.458 c 1.968,-1.901 0.595,8.021 1,10.999 -1.967,1.901 -0.594,-8.021 -1,-10.999 z"
     clip-path="url(#a)"
     fill-rule="evenodd"
     id="path443" />
  <path
     transform="matrix(1.3150601,0,0,1.3150601,-94.957534,-416.14655)"
     d="m 107.2,509.46 c 1.672,1.598 2.261,8.716 1,10.999 -0.733,1.326 -1.492,-5.985 -1,-10.999 z"
     clip-path="url(#a)"
     fill-rule="evenodd"
     id="path445" />
  <path
     transform="matrix(1.3150601,0,0,1.3150601,-94.957534,-416.14655)"
     d="m 112.2,514.46 c 1.916,-2.173 0.631,7.311 1,9.999 -1.916,2.173 -0.631,-7.31 -1,-9.999 z"
     clip-path="url(#a)"
     fill-rule="evenodd"
     id="path453" />
  <path
     transform="matrix(1.3150601,0,0,1.3150601,-94.957534,-416.14655)"
     d="m 202.189,515.457 c 1.854,-2.43 0.675,6.591 1,8.999 -1.852,2.43 -0.674,-6.591 -1,-8.999 z"
     clip-path="url(#a)"
     fill-rule="evenodd"
     id="path455" />
  <path
     transform="translate(-21.628187,-289.15099)"
     d="m 319.175,162.501 c 0.31,1.357 2.504,0.829 4,1 -2.76,0.24 -1.062,4.937 -3,6 -4.085,0.301 0.169,-1.385 -1,-4 -1.463,0.87 -3.169,1.497 -2.999,4 -2.08,-0.586 -3.231,-2.101 -5,-3 -0.489,-3.156 1.803,-3.531 1,-6.999 3.14,-0.473 2.642,2.691 5,3 3.068,-1.779 -0.7,-6.594 2.999,-6 -2.225,3.67 2.727,3.831 -1,5.999 z m -5.999,-1 c 0.7,3.078 0.7,1.921 0,5 1.496,-0.17 3.69,0.357 4,-1 -1.449,-1.217 -1.34,-3.993 -4,-4 z"
     clip-path="url(#a)"
     fill="#ffffff"
     fill-rule="evenodd"
     id="path487" />
  <path
     transform="translate(-21.628187,-289.15099)"
     d="m 64.207,139.504 c -0.378,3.392 3.14,1.878 4,5.999 2.828,-1.87 3.403,-4.11 5,0 2.433,-0.627 0.529,-5.052 -2,-4 2.554,-4.287 2.787,3.342 6.999,-1 -0.686,3.353 1.678,3.655 4,4 -1.841,-3.409 -2.289,-2.961 3,-3 -1.98,3.718 2.688,-0.209 5.999,2 -0.161,1.171 -1.823,0.843 -3,1 -0.168,2.168 3.546,0.453 5,1 -0.89,4.223 1.019,5.646 3,6.999 1.376,-1.001 -0.427,-1.648 2,-3 3.482,-0.482 3.493,2.506 5,4 -0.226,1.44 -2.984,0.349 -3,2 3.958,-0.389 2.624,3.045 3,9.999 1.342,-0.658 1.862,-2.137 2,-4 2.168,-0.168 0.453,3.546 1,5 -3.437,0.438 -5.604,-0.395 -7.999,-1 -1.092,4.092 6.134,-0.135 4,5 4.705,1.039 2.385,-4.948 7,-4 -1.167,1.833 -2.614,3.385 -4,4.999 0.19,0.81 1.003,0.997 1,2 2.629,0.296 0.787,-3.879 4,-3 -2.304,2.543 -1.018,4.876 -2,6.999 -1.506,-1.827 -3.604,-3.062 -6.999,-3 0.792,-3.458 -1.112,-4.221 -2,-6 -2.578,0.241 1.373,1.72 0,4 -3.146,0.479 -3.909,-1.424 -5.999,-2 -0.827,-2.826 1.409,-2.59 1,-5 -2.054,0.279 -1.995,2.67 -3,4 -0.85,-2.467 -10.413,-1.18 -7.999,-6 -2.703,2.604 -9.322,0.388 -10.999,6 -4.003,-1.674 -3.266,-3.548 -8.999,-2 -1.666,-1.987 0.091,-1.271 0,-4 -0.247,-1.085 -1.988,-0.678 -2,-2 1.398,2.223 -0.223,8.54 -5,9.999 -5.761,-4.484 -14.296,1.222 -15.998,7 -2.078,-0.56 -2.118,-1.56 -1,-3 -1.771,1.865 -5.27,1.032 -5.999,-1 -0.81,0.19 -0.997,1.003 -2,1 0.013,2.806 2.728,-2.381 2,2 h -3 c 0.441,-2.892 2.108,-4.558 5,-5 0.396,-1.94 -4.554,-1.461 -3,1 -4.41,-0.493 1.63,-5.227 -4,-4 -0.184,-0.851 0.39,-0.943 1,-1 v -2 c 2.884,3.712 8.774,-0.168 9.999,-4 -0.443,-0.89 -0.878,-1.789 -2,-2 -1.927,0.102 1.552,3.726 -1,5 -2.168,0.168 -0.453,-3.546 -1,-5 -2.168,-0.168 -0.453,3.546 -1,5 -2.615,0.282 -4.301,-0.365 -4,-3 0.804,0.529 1.623,1.043 3,1 v -6.999 c 1.768,1.877 2.919,-1.19 5,1 1.554,-2.46 -3.396,-2.94 -3,-1 -0.517,-4.766 3.283,-2.656 4.999,-7.999 4.454,1.205 3.596,0.306 5,-3 3.417,0.409 1.27,2.7 5,1 -0.162,-1.172 -1.823,-0.843 -3,-1 5.839,-6.653 5.396,3.025 7,-3 1.663,-1.919 6.899,1.042 8.999,2 0.895,-3.228 -3.261,-1.405 -4,-3 -2.77,-2.532 5.389,2.374 4.996,-1.996 z m 28.997,13.998 c 0.61,0.057 1.184,0.149 1,1 0.209,1.991 -4.239,4.271 -2,5 1.704,-0.629 1.646,-3.021 3,-4 0.275,2.059 3.725,0.941 4,3 -0.933,1.067 -3.688,0.311 -3,3 1.866,1.467 2.653,4.012 5.999,4 -0.504,-4.823 -2.355,-2.076 0,-5.999 -0.895,-1.772 -4.058,-1.274 -3,-5 -3.233,2.891 -3.969,-3.532 -5.999,-1.001 z m -6,6 c 2.505,0.172 2.427,-2.239 4,-3 -6.134,1.425 -1.946,-2.804 -4,-4 -2.314,2.223 0.339,3.899 0,7 z m 4,1.999 c -3.937,1.842 -5.192,-4.012 -6.999,-1 1.125,-0.286 -0.063,4.708 2,2 -3.897,-2.302 8.282,1.916 4.999,-1 z"
     clip-path="url(#a)"
     fill="#ffffff"
     fill-rule="evenodd"
     id="path489" />
  <path
     transform="translate(-21.628187,-289.15099)"
     d="m 38.21,177.5 c 3.629,6.37 1.263,13.462 0,2 -2.315,2.866 -1.829,5.55 0,7.999 -2.348,-0.319 -3.753,-1.58 -6.999,-1 -0.261,-2.927 2.26,-3.072 2,-6 -3.879,0.12 -1.097,6.902 -5,6.999 1.054,-5.612 2.586,-10.746 9.999,-9.998 z"
     clip-path="url(#a)"
     fill="#fee9e5"
     fill-rule="evenodd"
     id="path491" />
  <path
     transform="translate(-21.628187,-289.15099)"
     d="m 51.208,183.499 c -4.229,-0.229 -6.424,1.575 -8.999,3 -2.271,-6.573 4.02,-20.612 12.998,-12.999 v 6.999 c -2.831,0.164 0.831,-6.164 -2,-5.999 -0.219,3.266 -0.643,12.343 -1,15.998 -1.677,1.127 -0.026,-3.694 -0.999,-6.999 z"
     clip-path="url(#a)"
     fill="#fee9e5"
     fill-rule="evenodd"
     id="path493" />
  <path
     transform="translate(-21.628187,-289.15099)"
     d="m 69.207,173.5 c -3.217,-3.051 -0.338,9.614 -1,12.999 -4.708,-2.085 -8.005,-1.733 -12.999,0 1.378,-1.289 0.99,-4.343 1,-7 3.101,-9.575 -0.208,3.623 1,4 0.704,0.22 4.592,-7.53 0,-8.999 -0.94,-6.349 12.82,-9.174 11.999,-1 z"
     clip-path="url(#a)"
     fill="#fee9e5"
     fill-rule="evenodd"
     id="path495" />
  <path
     transform="translate(-21.628187,-289.15099)"
     d="M 86.204,91.51 C 85.556,82.188 94.119,73.433 98.203,65.513 97.248,73.233 88.217,81.518 86.204,91.51 Z"
     clip-path="url(#a)"
     fill="#ee3224"
     fill-rule="evenodd"
     id="path497" />
  <path
     transform="translate(-21.628187,-289.15099)"
     d="m 228.19,55.515 c -9.342,-5.792 -16.838,-19.964 -24.997,-30.996 -4.066,-5.5 -9.195,-9.882 -10.998,-14.998 13.874,13.454 22.779,31.879 35.995,45.994 z"
     clip-path="url(#a)"
     fill="#ee3224"
     fill-rule="evenodd"
     id="path499" />
  <path
     transform="translate(-21.628187,-289.15099)"
     d="m 239.186,86.511 c 0.278,-2.363 2.67,1.146 3.999,1 0.163,1.163 -0.221,1.779 -1,2 0.749,1.889 2.984,0.694 1,3 -2.622,-0.713 -0.958,-5.709 -3.999,-6 z"
     clip-path="url(#a)"
     fill-rule="evenodd"
     id="path501" />
  <path
     transform="translate(-21.628187,-289.15099)"
     d="m 135.198,48.516 c 0.89,-0.777 2.258,-1.075 4,-1 5.126,-5.872 11.387,-10.61 16.998,-15.998 0.558,-2.333 3.008,-2.333 1,0 -5.417,4.582 -10.416,9.581 -14.998,14.998 6.956,-1.376 10.03,-6.635 13.999,-10.999 2.745,-0.086 -4.825,5.476 -6,7.999 4.246,1.221 12.412,-2.234 19.998,-1 -1.745,2.039 0.745,1.961 -1,4 -1.171,-0.161 -0.843,-1.823 -1,-3 -19.478,0.352 -26.995,5.819 -39.995,7.999 8.635,-5.588 21.884,-19.167 29.996,-26.997 3.91,-3.773 -2.374,1.354 -5.999,7.999 -6.244,4.756 -11.835,10.164 -16.999,15.999 z"
     clip-path="url(#a)"
     fill-rule="evenodd"
     id="path503" />
  <path
     transform="translate(-21.628187,-289.15099)"
     d="m 154.2,17.52 c -6.117,5.932 -13.937,7.353 -5.999,2 1.689,-1.14 3.098,-0.889 5.999,-2 z"
     clip-path="url(#a)"
     fill-rule="evenodd"
     id="path505" />
  <path
     transform="translate(-21.628187,-289.15099)"
     d="M 137.2,20.519 C 129.761,32.081 116.885,46.863 109.204,61.514 114.437,47.747 127.255,32.907 137.2,20.519 Z"
     clip-path="url(#a)"
     fill-rule="evenodd"
     id="path507" />
  <path
     transform="translate(-21.628187,-289.15099)"
     d="m 193.19,28.518 c -2.293,-1.734 5.217,4.961 5.999,6 4.871,6.469 -2.784,1.416 -5.999,-6 z"
     clip-path="url(#a)"
     fill-rule="evenodd"
     id="path509" />
  <path
     transform="translate(-21.628187,-289.15099)"
     d="m 152.196,95.51 c 2.234,-0.312 -8.533,2.468 -8.999,5.999 -3.703,-3.24 0.479,-5.768 0,-10.999 4.265,-3.226 10.318,-4.8 16.998,-3 -2.406,6.854 -9.352,3.178 -13.999,7.999 0.113,1.918 3.349,-1.174 6,0.001 z"
     clip-path="url(#a)"
     fill="#ffffff"
     fill-rule="evenodd"
     id="path511" />
  <path
     transform="translate(-21.628187,-289.15099)"
     d="m 190.191,92.51 c -0.695,4.304 -5.89,4.109 -6.999,7.999 -7.5,-8.348 5.893,-16.996 12.998,-13.999 -1.434,5.565 -10.784,3.213 -11.998,8.999 -0.185,0.851 0.39,0.943 1,1 1.995,-1.004 1.578,-4.421 4.999,-3.999 z"
     clip-path="url(#a)"
     fill="#ffffff"
     fill-rule="evenodd"
     id="path513" />
  <path
     transform="translate(-21.628187,-289.15099)"
     d="m 213.188,84.511 c -4.477,0.387 2.615,4.064 3,5.999 -7.183,3.105 -12.411,-5.901 -20.998,-5.999 -6.839,-0.078 -11.571,2.36 -15.998,7.999 -12.158,0.388 -24.264,-15.326 -38.995,-1 h -7.999 c 4.539,-11.964 19.532,-8.992 33.996,-6.999 -0.919,-8.969 -10.01,-5.76 -17.998,-6 10.101,-5.344 22.856,-7.106 36.996,-5.999 -1.419,2.767 -4.213,1.108 -8.999,2 3.992,2.34 12.714,-0.048 16.998,2 -2.752,1.581 -6.938,1.728 -9.999,3 0.724,5.952 5.721,1.03 8.999,1 11.14,-0.102 23.248,1.23 26.996,9.999 -2.363,2.297 -5.019,-3.597 -5.999,-6 z"
     clip-path="url(#a)"
     fill="#fee9e5"
     fill-rule="evenodd"
     id="path515" />
  <path
     transform="translate(-21.628187,-289.15099)"
     d="m 88.204,102.509 c 0.241,1.759 1.72,2.279 4,2 -0.56,2.078 -1.56,2.118 -3,1 -0.036,5.66 6.215,-1.475 5.999,1 -1.096,1.777 -3.429,4.177 -6.999,3 -0.147,6.25 5.09,2.192 5.999,2 3.879,3.622 -4.89,3.052 -5.999,4.999 0.431,2.729 6.521,-4.245 5,2 2.655,-0.345 3.375,-2.625 4,-5 2.692,1.182 -0.004,5.213 0,7 h -5 c 1.119,-1.44 1.078,-2.44 -1,-3 -2.502,-0.169 -3.13,1.536 -4,3 4.838,-0.996 -3.756,7.398 -4.999,3 -1.913,2.593 2.235,2.985 -1,5.999 3.417,0.75 1.27,-4.062 4.999,-3 -1.149,1.69 -6.159,8.47 -2,8.999 -0.55,2.424 -11.368,6.115 -10.999,0 -1.557,1.442 -1.973,4.026 -6,3 -0.718,-2.042 -3.135,-3.957 -1,-6 -0.013,-2.35 -2.728,0.366 -2,2 -1.427,-1.333 -2.646,-4.446 -1,-6 -0.353,-1.4 -1.76,-0.086 -2,1 -5.376,-9.324 3.059,-32.529 12.999,-28.996 -3.176,-9.558 12.822,-3.46 12.998,-7.999 1.793,-0.127 2.109,1.224 4,1 -2.281,1.385 -3.671,3.661 -4,7 3.211,-0.456 3.441,-3.892 5,-6 3.617,3.315 -1.459,4.187 0,7.999 -1.701,0.368 -1.887,-0.78 -2,-2 -0.888,0.442 -1.786,0.877 -1.998,1.999 z m -1,5.999 c -1.889,0.749 -0.694,2.984 -3,1 0.661,2.672 0.418,6.247 2,7.999 3.383,-2.96 -1.925,-5.754 2,-9.999 -0.779,-0.221 -1.163,-0.837 -1,-2 -2.48,-0.147 -4.852,-0.186 -4.999,2 3.14,0.505 4.086,-2.357 4.999,1 z m -9.998,26.997 c 0.361,-4.361 -3.814,-4.185 -6,-6 1.984,2.016 2.024,5.975 6,6 z"
     clip-path="url(#a)"
     fill="#ffffff"
     fill-rule="evenodd"
     id="path517" />
  <path
     transform="translate(-21.628187,-289.15099)"
     d="m 82.205,107.508 c 0.147,-2.186 2.519,-2.147 4.999,-2 -0.163,1.163 0.221,1.779 1,2 -3.925,4.244 1.383,7.039 -2,9.999 -1.581,-1.752 -1.338,-5.327 -2,-7.999 2.306,1.984 1.111,-0.251 3,-1 -0.913,-3.357 -1.859,-0.495 -4.999,-1 z"
     clip-path="url(#a)"
     fill-rule="evenodd"
     id="path519" />
  <path
     transform="translate(-21.628187,-289.15099)"
     d="m 198.19,97.509 c 2.285,2.404 0.171,6.046 -1,7.999 h -4.999 c 0.34,-2.006 -0.205,-3.128 -2,-3 0.016,-2.984 2.6,-3.399 3,-5.999 1.772,2.499 1.274,1.08 4.999,1 z"
     clip-path="url(#a)"
     fill="#ffffff"
     fill-rule="evenodd"
     id="path521" />
  <path
     transform="translate(-21.628187,-289.15099)"
     d="m 168.19,103.51 c 2.317,-10.853 15.472,-3.995 14.998,2 -2.395,0.729 -9.143,-5.939 -14.998,-2 z"
     clip-path="url(#a)"
     fill="#fee9e5"
     fill-rule="evenodd"
     id="path523" />
  <path
     transform="translate(-21.628187,-289.15099)"
     d="m 153.196,105.508 c -1.357,-0.31 -0.829,-2.503 -1,-4 1.987,0.013 1.271,2.728 4,2 1.061,-0.729 0.115,-3.009 2,-5 4.141,0.643 8.67,6.356 2,6.999 -0.319,-2.318 0.16,-3.839 1,-4.999 -2.729,2.55 -4.597,4.418 -5.999,5.999 -1.487,0.041 -1.448,-5.938 -2.001,-0.999 z"
     clip-path="url(#a)"
     fill="#ffffff"
     fill-rule="evenodd"
     id="path525" />
  <path
     transform="translate(-21.628187,-289.15099)"
     d="m 183.19,117.51 c 6.366,-3.011 9.703,5.611 13.998,7.999 -5.081,1.725 -6.398,-8.916 -13.998,-7.999 z"
     clip-path="url(#a)"
     fill="#eff0f0"
     fill-rule="evenodd"
     id="path527" />
  <path
     transform="translate(-21.628187,-289.15099)"
     d="m 178.192,105.508 c -2.459,2.444 0.739,4.335 0,7.999 -3.883,4.59 -10.08,0.335 -11.998,-3 0.257,-5.494 7.415,-6.851 11.998,-4.999 z"
     clip-path="url(#a)"
     fill="#fee9e5"
     fill-rule="evenodd"
     id="path529" />
  <path
     transform="translate(-21.628187,-289.15099)"
     d="m 226.187,114.507 c -3.492,3.321 -0.987,-3.001 -3.999,-2 0.529,-0.804 1.043,-1.624 1,-3 1.691,1.974 5.771,1.561 4.999,6 -0.655,-1.764 -6.558,-2.254 -2,-1 z"
     clip-path="url(#a)"
     fill="#eff0f0"
     fill-rule="evenodd"
     id="path531" />
  <path
     transform="translate(-21.628187,-289.15099)"
     d="m 107.2,113.51 c 2.942,-3.846 5.671,-3.377 8.999,-3 0.469,0.054 -6.055,1.439 -8.999,3 z"
     clip-path="url(#a)"
     fill="#eff0f0"
     fill-rule="evenodd"
     id="path533" />
  <path
     transform="translate(-21.628187,-289.15099)"
     d="m 183.192,104.509 c 4.221,2.802 16.802,2.761 24.997,3 -0.31,-1.357 -2.504,-0.83 -4,-1 1.136,-2.197 3.344,-3.322 4,-5.999 2.465,-0.132 4.817,-0.152 5.999,1 2.35,-0.013 -0.365,-2.728 -2,-2 1.387,-2.28 6.96,-0.373 9.999,-1 -1.235,3.235 3.235,0.764 2,4 -5.501,-3.051 -6.246,4.082 -5,7.999 -0.161,1.172 -1.822,0.843 -2.999,1 0.184,-0.851 -0.391,-0.943 -1,-1 2.483,-1.757 1.635,-1.829 -1,-3 -2.806,0.013 2.381,2.728 -2,2 0.279,2.054 2.671,1.996 4,3 -1.1,8.098 -2.886,9.349 -6,14.998 -3.027,-1.223 0.707,-3.816 1,-5 -1.162,0.163 -1.778,-0.221 -1.999,-1 -7.493,10.274 -16.609,-2.935 -21.998,-6.999 4.118,-3.29 -1.203,-7.739 -3.999,-9.999 z m 7.999,4.999 c 4.604,1.878 18.845,0.57 22.997,6 -2.432,-7.149 -14.656,-7.859 -22.997,-6 z"
     clip-path="url(#a)"
     fill="#fee9e5"
     fill-rule="evenodd"
     id="path535" />
  <path
     transform="translate(-21.628187,-289.15099)"
     d="m 159.195,111.508 c -0.26,3.26 1.187,4.812 4,4.999 -7.105,8.02 -20.683,16.994 -31.996,7 0.553,-1.78 0.514,-4.152 2,-5 -0.436,-1.484 -1.279,0.395 -3,0 -0.667,-5.375 -1.24,-7.613 -5,-7.999 4.206,-3.11 0.751,-6.067 2,-8.999 2.708,-6.356 0.021,4.575 1,5 1.303,0.565 0.669,-7.26 1,-9.999 3.721,0.611 10.556,-1.891 9.999,3 h -5 c 0.125,2.208 4.242,0.424 6,1 -0.437,1.23 -1.28,2.053 -3,2 2.772,1.378 6.603,-0.466 8.999,3 -3.629,3.703 -14.272,0.393 -16.998,5 0.879,1.773 4.016,-2.57 6.999,-2 -0.703,2.964 -5.748,1.585 -6,5 3.092,-1.241 6.2,-2.466 7.999,-5 16.748,0.021 -4.401,1.368 -4,7.999 3.292,2.247 4.583,-6.049 9.999,-4.999 -0.905,1.761 -3.681,1.652 -4,4 -0.312,1.456 9.174,-4.745 4.999,-4 1.115,-2.009 7.734,-1.147 8.999,0 -2.122,-3.914 18.767,-7.376 5.001,-0.002 z"
     clip-path="url(#a)"
     fill="#fee9e5"
     fill-rule="evenodd"
     id="path537" />
  <path
     transform="translate(-21.628187,-289.15099)"
     d="m 224.188,120.507 c 2.994,-0.658 -0.957,-2.138 0,-4 4.6,2.733 5.53,9.135 9.998,11.999 -0.553,2.371 -3.865,4.149 -5.999,2 0.185,3.149 5.386,1.28 4.999,5 -1.614,0.282 -1.721,-0.945 -2.999,-1 3.311,2.867 8.864,7.743 3.999,12.999 -0.89,-0.615 -1.788,-1.208 -1.999,0 -2.884,-1.447 2.184,-5.952 -1,-7.999 -1.587,-2.502 4.023,2.656 1.999,6.999 3.836,-7.192 -4.122,-11.191 -6.999,-14.998 4.16,-3.136 -1.235,-3.704 5,-4 -5.03,-2.303 -8.094,-6.571 -10.999,-10.999 1.42,-2.628 3.797,2.106 4,3.999 z"
     clip-path="url(#a)"
     fill="#eff0f0"
     fill-rule="evenodd"
     id="path539" />
  <path
     transform="translate(-21.628187,-289.15099)"
     d="m 227.187,139.504 h -2 c 0.003,3.997 1.998,6.001 2,9.999 2.536,-4.802 2.551,4.588 6.999,1 -1.267,3.065 -3.404,5.261 -4.999,7.999 -1.291,-2.258 -2.979,-7.118 0,-7.999 -1.798,0.126 -4.132,-2.501 -4,-6.999 -2.931,0.847 0.598,3.219 0,4.999 -2.812,-1.695 -6.073,2.521 -8.998,-1 4.152,3.637 13.269,10.287 6.999,17.998 2.025,-7.225 -3.793,-13.82 -7.999,-17.998 -2.21,4.572 7.109,6.199 6.999,11.999 -4.294,-4.904 -6.87,-5.364 -11.999,-8.999 -3.139,-0.473 -2.642,2.691 -4.999,3 0.772,2.561 0.998,5.668 3,6.999 1.192,0.124 -4.349,-9.538 1.999,-8.999 -1.502,1.621 -1.502,7.378 0,8.999 3.507,-0.271 -1.806,-4.428 1,-4 3.363,-0.364 1.667,4.333 3,6 -1.313,-1.2 -1.573,-0.39 -3,0 0.889,1.778 2.792,2.541 2,5.999 -1.754,1.912 -3.742,3.59 -6.999,4 2.907,-1.759 4.722,-4.61 3.999,-9.999 -2.121,2.211 0.126,8.792 -4.999,7.999 -0.745,-3.078 2.744,-1.922 2,-5 -1.017,0.649 -1.034,2.299 -3,2 -1.064,-3.934 -3.912,-6.086 -7.999,-6.999 1.094,-2.239 1.656,-5.01 3,-6.999 1.559,2.441 1.792,6.207 3.999,7.999 3.671,-2.056 0.061,-5.212 1,-9.999 6.169,-3.164 13.427,-5.238 13.998,-13.999 3.038,1.232 -1.084,3.438 0,6 1.666,-1.334 1.554,-4.446 3,-6 2.27,1.064 0.381,6.285 1,8.999 4.02,-1.979 -0.895,-12.893 5.999,-11.999 -3.233,6.502 5.47,5.27 2,10.999 -1.666,-1.333 -1.553,-4.446 -3,-5.999 z"
     clip-path="url(#a)"
     fill="#eff0f0"
     fill-rule="evenodd"
     id="path541" />
  <path
     transform="translate(-21.628187,-289.15099)"
     d="m 217.188,136.504 c -5.301,-0.006 -5.338,-6.889 -10.998,-4 -1.357,0.31 -0.829,2.503 -1,4 -3.651,-0.534 -4.876,-0.445 -7.999,-3 6.975,0.65 10.461,-5.584 16.998,-4 -4.164,2.008 1.912,4.341 2.999,7 z"
     clip-path="url(#a)"
     fill="#eff0f0"
     fill-rule="evenodd"
     id="path543" />
  <path
     transform="translate(-21.628187,-289.15099)"
     d="m 204.19,148.5 c -2.62,1.379 -3.441,4.558 -6.999,5 0.03,-3.971 3.892,-4.108 6.999,-5 z"
     clip-path="url(#a)"
     fill="#eff0f0"
     fill-rule="evenodd"
     id="path545" />
  <path
     transform="translate(-21.628187,-289.15099)"
     d="m 190.191,147.503 c 0.776,-0.89 1.075,-2.258 1,-4 1.086,2.037 3.648,5.232 2,6.999 0.81,-0.19 0.996,-1.003 1.999,-1 0.261,-2.927 -2.261,-3.072 -1.999,-5.999 0.972,0.027 0.775,1.224 0.999,2 0.973,-0.027 0.776,-1.224 1,-2 3.135,0.691 1.304,2.667 1,4.999 4.197,-1.136 6.146,-4.52 7.999,-7.999 1.78,0.733 0.145,1.818 0,3 3.63,0.973 2.132,-5.588 0,-5 5.502,-0.887 4.831,6.551 3,8.999 -4.802,-0.135 -8.572,0.76 -9.999,4 -3.474,-0.856 -3.796,0.028 -6.999,-2 0.437,-1.484 1.279,0.395 3,0 -0.436,-1.229 -1.28,-2.052 -3,-1.999 z"
     clip-path="url(#a)"
     fill="#eff0f0"
     fill-rule="evenodd"
     id="path547" />
  <path
     transform="translate(-21.628187,-289.15099)"
     d="m 198.19,163.501 c 0.437,-1.484 1.279,0.395 3,0 4.468,9.289 2.118,4.63 -3,0 z"
     clip-path="url(#a)"
     fill="#eff0f0"
     fill-rule="evenodd"
     id="path549" />
  <path
     transform="translate(-21.628187,-289.15099)"
     d="m 213.19,169.5 c 1.966,1.765 -4.078,7.976 -6.999,5 1.423,-2.577 6.502,-1.497 6.999,-5 z"
     clip-path="url(#a)"
     fill="#eff0f0"
     fill-rule="evenodd"
     id="path551" />
  <path
     transform="translate(-21.628187,-289.15099)"
     d="m 183.19,119.51 c 5.652,-0.27 12.826,8.798 4.999,2 -1.248,-1.085 -2.442,-0.924 -4.999,-2 z"
     clip-path="url(#a)"
     fill="#eff0f0"
     fill-rule="evenodd"
     id="path553" />
  <path
     transform="translate(-21.628187,-289.15099)"
     d="m 241.185,132.505 c 6.49,1.001 10.742,4.377 7.999,11.999 -1.761,-0.019 0.046,-5.946 -1.999,-8.999 -5.619,1.05 -0.965,4.827 -2,10.999 -1.23,0.437 -2.054,1.279 -2,3 1.515,-7.713 -3.959,-14.755 -7.999,-19.998 9.641,-3.023 -2.065,-7.854 -2.999,-9.999 3.055,0.722 3.644,-1.022 5.999,-1 3.45,2.956 5.832,11.042 1,13.998 2.376,-1.303 6.342,-1.977 1.999,0 z"
     clip-path="url(#a)"
     fill="#eff0f0"
     fill-rule="evenodd"
     id="path555" />
  <path
     transform="translate(-21.628187,-289.15099)"
     d="m 102.202,120.507 c 2.368,1.631 2.129,5.87 4,7.999 h 4 c 1.001,-0.789 -0.373,-3.497 2,-4.999 1.778,0.888 2.541,2.791 5.999,2 -0.521,0.853 -7.238,4.063 -8.999,6.999 0.375,3.292 5.315,2.017 4.999,6 -1.578,-0.108 -4.591,-5.962 -4.999,-1 -1.759,-0.241 -2.279,-1.72 -2,-4 -1.973,5.493 -2.355,-0.226 -3,-4 1.615,-0.282 1.721,0.945 3,1 -2.009,-2.992 -6.073,-3.927 -5,-9.999 z"
     clip-path="url(#a)"
     fill="#eff0f0"
     fill-rule="evenodd"
     id="path557" />
  <path
     transform="translate(-21.628187,-289.15099)"
     d="m 114.2,136.5 c 2.959,-1.952 5.367,9.899 1,8.999 0.372,-7.918 0.327,-3.629 -1,-8.999 z"
     clip-path="url(#a)"
     fill="#eff0f0"
     fill-rule="evenodd"
     id="path559" />
  <path
     transform="translate(-21.628187,-289.15099)"
     d="m 118.2,157.502 h -4 c 1.334,2.54 6.536,0.631 5,-3 4.039,-0.087 0.261,6.086 2,5.999 0.483,1.322 -4.584,0.062 -5,-1 -2.259,0.56 1.212,1.56 -1,3 3.24,0.426 0.609,6.723 4,6.999 -0.429,1.904 -2.154,2.512 -2,5 -1.532,-2.654 0.715,-6.036 -2,-8.999 -1.306,5.265 -2.249,12.183 -1,14.998 0.306,2.306 -2.889,1.111 -3,3 1.781,-2.303 0.882,-21.731 3,-20.997 -0.167,-2.833 -1.833,-4.167 -2,-7 1.991,2.083 4.271,0.033 5,-2 1.358,0.31 0.83,2.504 1,4 z"
     clip-path="url(#a)"
     fill="#eff0f0"
     fill-rule="evenodd"
     id="path561" />
  <path
     transform="translate(-21.628187,-289.15099)"
     d="m 127.199,150.503 c -2.934,-0.399 -3.385,-3.281 -5.999,-4 -1.901,1.967 5.339,3.277 3.999,7.999 -1.896,-1.77 -3.103,-4.229 -4.999,-6 -2.124,0.319 1.428,3.095 2,4 -1.371,1.083 -4.117,-1.031 -5.999,-1 -1.508,0.869 0.275,1.497 -1,3.999 -1.71,0.21 -2.59,-1.705 -3,0 -2.895,-2.961 3.217,-5.398 5.999,-5.999 -2.766,-3.022 -5.56,2.382 -8.999,2 2.308,-4.358 8.781,-4.551 11.999,-7.999 3.774,0.559 5.538,3.128 5.999,7 z"
     clip-path="url(#a)"
     fill="#eff0f0"
     fill-rule="evenodd"
     id="path563" />
  <path
     transform="translate(-21.628187,-289.15099)"
     d="m 163.2,122.51 c 1.994,-0.837 -5.703,4.598 -6.999,6.999 -1.172,-1.889 4.167,-5.793 6.999,-6.999 z"
     clip-path="url(#a)"
     fill="#eff0f0"
     fill-rule="evenodd"
     id="path565" />
  <path
     transform="translate(-21.628187,-289.15099)"
     d="m 180.19,122.51 c -0.529,-2.846 6.894,1.987 7.999,4 -1.792,1.725 -4.37,-4.246 -7.999,-4 z"
     clip-path="url(#a)"
     fill="#eff0f0"
     fill-rule="evenodd"
     id="path567" />
  <path
     transform="translate(-21.628187,-289.15099)"
     d="m 120.2,125.506 c 3.258,-4.203 5.988,2.066 9.999,-2 -0.58,3.246 0.681,4.651 1,6.999 -2.544,-0.122 -3.877,-1.455 -4,-4 -0.804,0.529 -1.623,1.043 -3,1 4.668,1.536 1.479,7.463 2,8.999 -5,3.344 1.057,-11.257 -5.999,-10.998 z"
     clip-path="url(#a)"
     fill="#eff0f0"
     fill-rule="evenodd"
     id="path569" />
  <path
     transform="translate(-21.628187,-289.15099)"
     d="m 244.185,123.506 c 1.759,0.241 2.279,1.72 2,4 1.172,-0.162 0.843,-1.823 1,-3 3.319,2.007 -3.04,7.888 2.999,5 -2.93,5.45 -5.199,-3.101 -5.999,-6 z"
     clip-path="url(#a)"
     fill="#eff0f0"
     fill-rule="evenodd"
     id="path571" />
  <path
     transform="translate(-21.628187,-289.15099)"
     d="m 218.188,126.506 c -0.039,1.486 5.939,1.447 1,2 0.895,1.772 4.059,1.274 3,5 -1.7,-1.424 -3.067,-5.813 -5.999,-3 -1.102,-1.128 1.595,-1.183 0,-5 1.614,0.282 1.721,-0.945 2.999,-1 2.729,-0.728 2.013,1.987 4,2 -0.851,2.933 -2.517,-1.3 -5,0 z"
     clip-path="url(#a)"
     fill="#eff0f0"
     fill-rule="evenodd"
     id="path573" />
  <path
     transform="translate(-21.628187,-289.15099)"
     d="m 165.194,130.505 c 3.919,0.316 24.25,-1.918 9.999,2 -4.446,0.447 -7.288,-0.711 -9.999,-2 z"
     clip-path="url(#a)"
     fill="#fac0c0"
     fill-rule="evenodd"
     id="path575" />
  <path
     transform="translate(-21.628187,-289.15099)"
     d="m 250.18,136.5 c 1.464,-3.231 5.889,8.031 1,7.999 0.74,-2.335 0.694,-5.633 -1,-7.999 z"
     clip-path="url(#a)"
     fill="#eff0f0"
     fill-rule="evenodd"
     id="path577" />
  <path
     transform="translate(-21.628187,-289.15099)"
     d="m 208.19,137.5 c 1.515,-2.509 6.017,3.757 2.999,6 -1.728,-1.376 0.833,-4.984 -2.999,-6 z"
     clip-path="url(#a)"
     fill="#eff0f0"
     fill-rule="evenodd"
     id="path579" />
  <path
     transform="translate(-21.628187,-289.15099)"
     d="m 92.204,137.504 c 2.36,4.66 2.848,-0.226 5,3 -4.699,0.859 1.743,1.897 2,6 -3.167,-2.167 -5.802,-4.865 -7,-9 z"
     clip-path="url(#a)"
     fill="#eff0f0"
     fill-rule="evenodd"
     id="path581" />
  <path
     transform="translate(-21.628187,-289.15099)"
     d="m 167.194,149.503 c -7.047,-0.714 -12.439,0.227 -11.999,6.999 -4.691,-6.303 0.502,5.618 2,7.999 -2.541,-2.458 -3.74,-6.259 -7.999,-6.999 0.805,3.325 7.105,4.915 4,8.999 -1.085,-0.248 -0.678,-1.988 -2,-2 2.537,4.82 -2.335,5.676 1,8.999 -2.794,1.872 -4.498,4.834 -7.999,5.999 10.711,-6.619 -1.883,-18.266 2,-24.997 2.255,0.745 0.391,5.608 1,7.999 0.738,-7.594 4.885,-11.78 10.999,-13.999 -0.558,-2.442 -3.869,-2.13 -3,-5.999 1.91,1.757 3.691,3.642 5,5.999 2.124,-0.319 -1.428,-3.095 -2,-4 -0.483,-3.149 3.069,-2.264 2,-5.999 3.449,0.729 0.666,3.009 0,5 3.235,1.235 0.764,-3.235 3.999,-2 -0.86,0.807 -0.594,2.739 -2,3 1.261,1.336 3.005,1.964 1,4 4.186,-0.48 6.361,-2.971 5.999,-7.999 4.218,1.534 -1.455,6.067 -2,8.999 z"
     clip-path="url(#a)"
     fill="#eff0f0"
     fill-rule="evenodd"
     id="path583" />
  <path
     transform="translate(-21.628187,-289.15099)"
     d="m 155.196,168.5 c 2.749,2.492 -0.724,7.218 -3,7.999 0.436,1.484 1.279,-0.395 3,0 -1.273,2.393 -3.262,4.071 -6.999,4 4.013,3.93 8.223,-4.562 10.999,-2 -0.162,1.171 -1.823,0.843 -3,1 6.058,3.23 25.273,4.559 22.997,-8.999 1.464,0.869 3.17,1.497 3,4 -1.615,0.282 -1.722,-0.945 -3,-1 -0.083,1.583 0.481,3.813 -1,4 0.367,0.567 7.056,1.41 4,5 3.887,0.03 7.613,-3.655 9.999,-2 -1.101,6.27 -6.674,1.817 -9.999,2 -17.838,0.979 -42.936,1.34 -62.992,1 4.303,-0.362 3.574,-5.758 6.999,-6.999 -3.006,-2.66 -4.928,-6.404 -7.999,-8.999 0.911,-2.422 4.019,-2.647 6.999,-3 0.013,1.987 2.729,1.271 2,4 -2.323,2.654 -2.677,-2.654 -5,0 5.639,3.058 4.102,12.248 12.999,13.999 -3.154,-2.512 -6.253,-5.079 -7.999,-8.999 0.685,-2.257 6.314,-2.257 6.999,0 0.996,-0.611 -0.595,-6.395 4,-6 -0.52,1.48 -1.479,2.52 -2,4 3.155,-2.865 2.844,-0.189 5.999,0 -0.19,1.135 -1.003,0.555 -1,0 -0.527,2.448 -0.379,5.497 -3,7.999 -2.212,-3.689 -5.664,-0.77 -6.999,-5.999 -1.682,3.714 4.919,7.722 8.999,8.999 -0.062,-3.141 15.302,-2.642 14.998,-14.001 z"
     clip-path="url(#a)"
     fill="#eff0f0"
     fill-rule="evenodd"
     id="path585" />
  <path
     transform="translate(-21.628187,-289.15099)"
     d="m 117.2,180.5 c -1.798,-1.864 3.489,-5.126 3,-8.999 7.721,2.876 0.088,11.818 -3,8.999 z"
     clip-path="url(#a)"
     fill="#eff0f0"
     fill-rule="evenodd"
     id="path587" />
  <path
     transform="translate(-21.628187,-289.15099)"
     d="m 186.191,178.5 c -1.872,-0.737 1.151,-8.014 -3.999,-9.999 -1.587,0.844 4.915,5.637 1,8.999 -2.934,-0.85 1.3,-2.517 0,-5 -0.279,-2.054 -2.671,-1.995 -4,-3 -4.192,1.473 0.174,11.505 -6.999,9.999 2.158,-4.371 0.633,-6.524 2,-11.999 7.063,-6.4 17.707,4.668 11.998,11 z m -9.998,-8 c 0.954,-1.712 3.318,-2.015 3.999,-4 -7.241,-1.606 -4.157,17.599 -3.999,4 z"
     clip-path="url(#a)"
     fill="#eff0f0"
     fill-rule="evenodd"
     id="path589" />
  <path
     transform="translate(-21.628187,-289.15099)"
     d="m 191.191,169.5 c -0.19,1.135 -1.003,0.555 -1,0 -1.527,2.042 3.599,9.268 -3,9.999 4.554,-5.611 -0.608,-13.3 -5.999,-14.998 4.095,-2.442 6.37,6.392 9.999,4.999 z"
     clip-path="url(#a)"
     fill="#eff0f0"
     fill-rule="evenodd"
     id="path591" />
  <path
     transform="translate(-21.628187,-289.15099)"
     d="m 188.191,156.502 c 0.072,2.996 -2.941,5.073 -4.999,3 1.65,2.682 4.239,4.426 5.999,6.999 -1.925,1.207 -5.425,-4.536 -7.999,-6 -4.608,0.391 -4.71,5.289 -8.999,6 v -6 c 1.953,-1.17 5.596,-3.285 7.999,-1 3.762,-1.464 -7.728,-3.039 0,-3 0.701,-3.7 -3.505,-2.494 -4.999,-4 4.887,-3.182 10.077,1.896 12.998,4.001 z"
     clip-path="url(#a)"
     fill="#eff0f0"
     fill-rule="evenodd"
     id="path593" />
  <path
     transform="translate(-21.628187,-289.15099)"
     d="m 192.191,161.501 c 0.616,-6.283 -4.662,-6.67 -6,-10.999 -3.416,0.409 -1.27,2.7 -4.999,1 6.023,-5.727 15.504,3.996 10.999,11.998 3.966,-2.804 11.79,6.836 6.999,12.999 -3.015,-1.543 0.705,-11.67 -5.999,-11.999 2.108,2.608 4.91,8.063 0.999,10.999 1.363,-4.59 -4.227,-8.469 -5.999,-12.998 1.794,0.127 2.11,-1.224 4,-1 z"
     clip-path="url(#a)"
     fill="#eff0f0"
     fill-rule="evenodd"
     id="path595" />
  <path
     transform="translate(-21.628187,-289.15099)"
     d="m 157.2,151.5 c 3.292,3.743 -4.607,12.554 0,0 z"
     clip-path="url(#a)"
     fill="#eff0f0"
     fill-rule="evenodd"
     id="path597" />
  <path
     transform="translate(-21.628187,-289.15099)"
     d="m 99.203,154.502 c -1.059,3.725 2.105,3.228 3,5 -2.355,3.923 -0.504,1.176 0,5.999 -3.346,0.013 -4.133,-2.532 -5.999,-4 -0.689,-2.688 2.067,-1.933 3,-3 -0.274,-2.059 -3.725,-0.941 -4,-3 -1.354,0.979 -1.295,3.371 -3,4 -2.239,-0.729 2.208,-3.009 2,-5 0.184,-0.851 -0.39,-0.943 -1,-1 2.03,-2.53 2.766,3.893 5.999,1.001 z"
     clip-path="url(#a)"
     fill-rule="evenodd"
     id="path599" />
  <path
     transform="translate(-21.628187,-289.15099)"
     d="m 98.203,141.5 c 1.445,-1.701 4.808,3.134 7,4 -2.083,2.338 -5.446,-2.497 -7,-4 z"
     clip-path="url(#a)"
     fill="#eff0f0"
     fill-rule="evenodd"
     id="path601" />
  <path
     transform="translate(-21.628187,-289.15099)"
     d="m 165.194,153.502 c 1.662,-3.57 2.685,-1.984 6,-3 0.184,0.85 -0.39,0.943 -1,1 0.982,2.801 2.668,-1.452 4,1 -2.767,2.362 -5.354,-0.898 -9,1 z"
     clip-path="url(#a)"
     fill="#eff0f0"
     fill-rule="evenodd"
     id="path603" />
  <path
     transform="translate(-21.628187,-289.15099)"
     d="m 87.204,152.502 c 2.054,1.196 -2.134,5.424 4,4 -1.572,0.761 -1.494,3.172 -4,3 0.339,-3.101 -2.314,-4.777 0,-7 z"
     clip-path="url(#a)"
     fill-rule="evenodd"
     id="path605" />
  <path
     transform="translate(-21.628187,-289.15099)"
     d="m 128.2,156.5 c 1.179,-1.112 7.143,1.473 6.999,5 -2.711,-0.622 -2.489,-4.177 -5.999,-4 1.671,1.662 4.048,2.618 3.999,5.999 -2.004,-1.662 -4.647,-2.685 -4.999,-5.999 1.135,-0.19 0.555,-1.003 0,-1 z"
     clip-path="url(#a)"
     fill="#eff0f0"
     fill-rule="evenodd"
     id="path607" />
  <path
     transform="translate(-21.628187,-289.15099)"
     d="m 161.195,155.502 c 1.135,0.19 0.555,1.003 0,1 1.333,3.083 4.446,-1.863 6,1 0.306,2.306 -2.889,1.111 -3,3 -2.357,-0.309 -1.86,-3.472 -4.999,-3 -2.437,2.124 1.115,-1.428 1.999,-2 z"
     clip-path="url(#a)"
     fill="#eff0f0"
     fill-rule="evenodd"
     id="path609" />
  <path
     transform="translate(-21.628187,-289.15099)"
     d="m 228.187,161.501 c 1.352,0.982 1.998,2.667 3,4 2.145,-1.915 2.19,-5.213 1,-7.999 5.208,1.401 2.995,8.687 3.999,11.999 -1.162,-0.163 -1.779,0.221 -2,1 -0.866,-2.003 1.557,-2.992 1,-7.999 -1.486,0.847 -1.446,3.219 -2,4.999 -3.437,-0.23 -4.357,-2.976 -4.999,-6 z"
     clip-path="url(#a)"
     fill="#eff0f0"
     fill-rule="evenodd"
     id="path611" />
  <path
     transform="translate(-21.628187,-289.15099)"
     d="m 86.204,162.5 c -2.062,2.708 -0.875,-2.286 -2,-2 1.807,-3.012 3.062,2.842 6.999,1 3.284,2.916 -8.895,-1.302 -4.999,1 z"
     clip-path="url(#a)"
     fill-rule="evenodd"
     id="path613" />
  <path
     transform="translate(-21.628187,-289.15099)"
     d="m 168.19,162.5 c -1.529,3.18 -0.351,4.399 0,7.999 -2.948,-0.109 -1.162,-10.094 -4,-7 -2.955,-1.206 3.115,-3.194 4,-0.999 z"
     clip-path="url(#a)"
     fill="#eff0f0"
     fill-rule="evenodd"
     id="path615" />
  <path
     transform="translate(-21.628187,-289.15099)"
     d="m 287.18,165.501 c 2.988,5.01 1.74,14.257 1.999,21.997 -0.766,-1.633 -2.634,-10.115 -9.998,-5.999 V 174.5 c 4.688,6.396 -0.399,-9.069 0,-10.999 2.801,-1.15 5.197,-1.15 7.999,0 -3.529,4.353 -0.439,9.202 -1,15.998 3.156,-3.715 1.196,-8.622 1,-13.998 z"
     clip-path="url(#a)"
     fill="#fee9e5"
     fill-rule="evenodd"
     id="path617" />
  <path
     transform="translate(-21.628187,-289.15099)"
     d="m 228.187,172.5 c 3.966,-0.382 -6.378,10.968 -8.999,4 4.787,0.453 7.58,-1.086 8.999,-4 z"
     clip-path="url(#a)"
     fill="#eff0f0"
     fill-rule="evenodd"
     id="path619" />
  <path
     transform="translate(-21.628187,-289.15099)"
     d="m 180.19,166.5 c -0.681,1.985 -3.045,2.288 -3.999,4 -0.158,13.598 -3.242,-5.607 3.999,-4 z"
     clip-path="url(#a)"
     fill-rule="evenodd"
     id="path621" />
  <path
     transform="translate(-21.628187,-289.15099)"
     d="m 84.205,170.5 h -2 c 1.83,2.169 -0.189,8.188 2,9.999 -0.241,2.578 -1.72,-1.373 -4,0 4.441,4.972 0.438,12.045 -6.999,10.999 -0.581,-2.093 -0.534,-10.828 4.999,-9.999 -2.874,-3.768 -4.575,2.011 -6.999,2 -0.041,-5.751 3.59,-14.42 4,-15.998 12.475,-9.729 9.903,22.068 8.999,2.999 z"
     clip-path="url(#a)"
     fill="#fee9e5"
     fill-rule="evenodd"
     id="path639" />
  <path
     transform="translate(-21.628187,-289.15099)"
     d="m 272.18,166.5 c 3.36,0.64 3.205,4.794 3,8.999 -1.617,2.516 -0.099,-11.798 -4.999,-5.999 -3.085,-1.002 2.168,-1.649 1.999,-3 z"
     clip-path="url(#a)"
     fill-rule="evenodd"
     id="path641" />
  <path
     transform="translate(-21.628187,-289.15099)"
     d="m 238.186,174.5 c -1.233,2.433 -0.843,6.489 -4,6.999 2.488,3.924 5.684,-2.452 6.999,0 -0.121,4.211 -7.672,0.993 -10.998,2 3.535,-2.131 5.196,-6.136 7.999,-8.999 z"
     clip-path="url(#a)"
     fill="#eff0f0"
     fill-rule="evenodd"
     id="path643" />
  <path
     transform="translate(-21.628187,-289.15099)"
     d="m 7.214,189.498 c 0.137,0.528 0.003,9.292 -3,9.999 1.027,-3.306 1.027,-7.64 3,-9.999 z"
     clip-path="url(#a)"
     fill-rule="evenodd"
     id="path645" />
  <path
     transform="translate(-21.628187,-289.15099)"
     d="m 162.2,191.5 c 4.757,-1.909 11.207,-2.125 17.998,-2 -1.173,1.521 -12.645,1.334 -17.998,2 z"
     clip-path="url(#a)"
     fill-rule="evenodd"
     id="path647" />
  <path
     transform="translate(-21.628187,-289.15099)"
     d="m 297.178,194.497 c 0.354,-1.567 1.761,0.875 2,-1 13.689,-0.557 13.377,1.561 1,1 -1.314,1.2 -1.574,0.39 -3,0 z"
     clip-path="url(#a)"
     fill-rule="evenodd"
     id="path649" />
  <path
     transform="matrix(1.3150601,0,0,1.3150601,-94.957534,-416.14655)"
     d="m 115.201,332.48 c 4.672,3.459 -0.527,7.882 2,12.998 -2.763,0.577 -1.296,-10.582 -2,-12.998 z"
     clip-path="url(#a)"
     fill-rule="evenodd"
     id="path733" />
  <path
     transform="matrix(1.3150601,0,0,1.3150601,-94.957534,-416.14655)"
     d="m 152.196,374.475 c 1.135,0.19 0.555,1.003 0,1 -0.405,2.978 0.968,12.9 -1,10.999 0.369,-3.964 -0.916,-9.582 1,-11.999 z"
     clip-path="url(#a)"
     fill-rule="evenodd"
     id="path735" />
  <path
     transform="matrix(1.3150601,0,0,1.3150601,-94.957534,-416.14655)"
     d="m 295.178,410.471 v 27.996 h -7.998 v -4.999 c -2.169,-0.169 -0.453,3.546 -1,4.999 -19.356,1.62 -30.285,-0.525 -49.994,1 v -28.996 h 19.998 v 10.998 c 2.932,-1.4 -0.934,-9.599 1.999,-10.998 6.164,-0.165 1.594,10.404 3,14.998 2.308,-3.025 0.353,-10.313 1,-14.998 8.911,-0.465 21.365,0.292 32.995,0 z m -27.996,18.997 c -0.48,-3.886 1.077,-15.029 -1,-13.998 0.481,3.885 -1.077,15.029 1,13.998 z m 11.999,5.999 c -1.104,-5.332 1.688,-9.553 -2,-10.998 -0.148,4.479 0.107,8.557 2,10.998 z"
     clip-path="url(#a)"
     fill="#bf0000"
     fill-rule="evenodd"
     id="path737" />
  <path
     transform="matrix(1.3150601,0,0,1.3150601,-94.957534,-416.14655)"
     d="m 145.197,496.46 c 1.828,6.155 0.682,23.083 1,33.995 -30.115,0.85 -55.404,-1.666 -72.991,2 2.166,0.657 1.878,-14.784 -1,-11.998 1.922,-3.634 1.006,-11.5 1,-21.998 21.434,-1.308 52.889,2.229 71.991,-1.999 z m -68.991,3.999 c -0.971,6.582 -0.342,19.366 1,28.996 19.679,-2.984 46.308,0.981 65.992,-1.999 -1.985,-11.676 0.034,-17.411 -1,-27.997 h -40.995 c -2.777,3.556 0.83,13.495 -2,16.998 v -16.998 c -7.432,0.568 -17.197,-1.198 -22.997,1 z"
     clip-path="url(#a)"
     fill-rule="evenodd"
     id="path741" />
  <path
     transform="matrix(1.3150601,0,0,1.3150601,-94.957534,-416.14655)"
     d="m 224.188,497.459 c 1.505,1.494 0.299,5.701 3.999,5 -4.694,5.364 -1.251,15.554 -3,27.996 h -71.991 v -31.996 c 31.969,-0.293 44.434,-0.184 70.992,-1 z m -15.999,30.997 c 1.896,-1.339 8.292,-0.867 13.998,-1 0.47,-9.622 0.321,-16.155 0,-27.997 h -66.992 v 28.997 c 19.754,0.519 38.573,-0.895 50.994,0 2.977,-2.005 -1.121,-8.106 1,-8.999 3.021,1.178 -0.725,9.117 1,8.999 z"
     clip-path="url(#a)"
     fill-rule="evenodd"
     id="path743" />
  <path
     transform="matrix(1.3150601,0,0,1.3150601,-94.957534,-416.14655)"
     d="m 207.189,519.457 c -2.121,0.893 1.977,6.994 -1,8.999 -12.421,-0.895 -31.239,0.519 -50.994,0 v -28.997 h 66.992 c 0.321,11.842 0.47,18.375 0,27.997 -5.706,0.133 -12.103,-0.339 -13.998,1 -1.725,0.118 2.021,-7.821 -1,-8.999 z m -22.997,-8.999 c -0.271,-2.141 0.773,-10.667 -1,-7.999 0.272,2.141 -0.774,10.666 1,7.999 z m 9.998,8.999 c -0.48,-3.886 1.077,-15.029 -0.999,-13.998 0.481,3.885 -1.077,15.029 0.999,13.998 z m 4,1 c -0.405,-2.979 0.968,-12.9 -1,-10.999 0.406,2.978 -0.967,12.9 1,10.999 z m 4.999,3.999 c -0.325,-2.408 0.854,-11.429 -1,-8.999 0.326,2.408 -0.852,11.429 1,8.999 z"
     clip-path="url(#a)"
     fill="#bf0000"
     fill-rule="evenodd"
     id="path745" />
  <path
     transform="translate(-21.628187,-289.15099)"
     d="m 99.203,129.505 c -0.507,3.159 -2.943,4.389 -3,7.999 -4.135,-1.315 -3.533,-9.389 -1,-11.999 1.763,0.904 3.096,2.238 4,4 z"
     clip-path="url(#a)"
     fill="#eff0f0"
     fill-rule="evenodd"
     id="path749" />
  <path
     transform="translate(-21.628187,-289.15099)"
     d="m 297.178,175.5 c 0.354,1.567 1.761,-0.875 2,1 0.964,-0.708 -0.654,-7.287 0,-10.999 3.415,1.918 1.505,9.161 2,13.998 -2.889,-2.299 -6.861,1.05 -9.999,-1 1.965,-1.067 2.404,-5.144 2,-10.999 -1.172,0.162 -0.844,1.823 -1,3 -2.85,-1.645 0.479,-5.425 1,-7 h 4.999 c -0.638,3.696 1.295,9.961 -1,12 z"
     clip-path="url(#a)"
     fill="#fee9e5"
     fill-rule="evenodd"
     id="path751" />
  <path
     transform="matrix(1.3150601,0,0,1.3150601,-94.957534,-416.14655)"
     d="m 75.206,321.481 h 67.992 v 28.996 c -25.295,0.938 -46.797,0.326 -67.992,1 z m 29.996,10.999 c -1.225,-4.966 1.739,-8.604 -2,-9.999 -0.105,4.105 -0.163,8.163 2,9.999 z m 6.999,12.999 c -0.528,-4.829 1.143,-17.108 -1,-16.998 0.528,4.829 -1.143,17.108 1,16.998 z m 5,0 c -2.527,-5.116 2.672,-9.539 -2,-12.998 0.704,2.415 -0.763,13.574 2,12.998 z m 3.999,2 c -1.7,-1.357 -0.1,-11.155 -2,-8.999 0.431,3.235 -1.315,8.647 2,8.999 z"
     clip-path="url(#a)"
     fill="#bf0000"
     fill-rule="evenodd"
     id="path759" />
  <path
     transform="matrix(1.3150601,0,0,1.3150601,-94.957534,-416.14655)"
     d="m 294.179,321.481 c 1.496,5.702 0.865,18.957 0.999,28.996 h -58.992 v -28.996 z m -34.996,17.998 h 2 v -15.998 c -4.415,1.584 -0.85,11.15 -2,15.998 z m 7.999,3 c -0.647,-4.685 1.308,-11.973 -1,-14.998 -1.479,3.273 -2.125,13.122 1,14.998 z m 4,1 c -0.325,-2.408 0.853,-11.429 -1,-8.999 0.325,2.408 -0.854,11.428 1,8.999 z m 8.998,3 c -0.604,-2.062 1.614,-6.946 -1.999,-5.999 0.014,2.65 -0.555,5.886 1.999,5.999 z"
     clip-path="url(#a)"
     fill="#bf0000"
     fill-rule="evenodd"
     id="path761" />
  <path
     transform="matrix(1.3150601,0,0,1.3150601,-94.957534,-416.14655)"
     d="m 191.191,365.476 h 21.997 v 6.999 c 3.093,-0.239 -1.563,-8.229 3,-6.999 2.251,0.998 -2.162,5.452 0.999,6.999 0.74,-0.91 0.03,-4.018 1,-6.999 2.792,2.875 -0.727,12.059 2,14.998 1.66,-2.377 1.66,-11.62 0,-13.998 9.671,-2.327 23.66,-0.337 34.996,-1 v 27.997 c -18.161,0.235 -45.13,2.013 -63.992,0 z m 32.997,13.999 c -0.369,-2.688 0.916,-12.172 -1,-9.999 0.368,2.687 -0.917,12.17 1,9.999 z m 4.999,3.999 c -0.405,-2.978 0.968,-12.9 -1,-10.999 0.405,2.978 -0.968,12.9 1,10.999 z m 4.999,3 c -0.368,-2.688 0.917,-12.172 -1,-9.999 0.369,2.687 -0.916,12.171 1,9.999 z m 4,2.999 c -0.271,-2.141 0.773,-10.666 -1,-7.999 0.271,2.14 -0.775,10.667 1,7.999 z m 6.999,3 c -0.085,-3.249 -0.516,-6.15 -2,-7.999 0.31,3.022 -1.111,7.776 2,7.999 z"
     clip-path="url(#a)"
     fill="#bf0000"
     fill-rule="evenodd"
     id="path767" />
  <path
     transform="matrix(1.3150601,0,0,1.3150601,-94.957534,-416.14655)"
     d="m 179.192,365.476 v 28.997 c -22.676,-0.654 -47.977,1.315 -68.991,-1 v -27.997 z m -35.995,17.998 c -0.413,-3.817 3.76,-12.346 -1,-13.998 0.645,4.354 -1.304,11.302 1,13.998 z m -4.999,-3.999 c -0.271,-2.141 0.774,-10.667 -1,-7.999 0.271,2.14 -0.774,10.666 1,7.999 z m 9.999,4.999 c -0.46,-3.578 1.046,-14.327 -1,-12.998 0.459,3.577 -1.047,14.327 1,12.998 z m 2.999,2 c 1.968,1.901 0.595,-8.021 1,-10.999 0.555,0.003 1.135,-0.81 0,-1 -1.916,2.417 -0.631,8.035 -1,11.999 z m 5,3.999 c -0.325,-2.408 0.853,-11.429 -1,-8.999 0.325,2.408 -0.853,11.428 1,8.999 z"
     clip-path="url(#a)"
     fill="#bf0000"
     fill-rule="evenodd"
     id="path771" />
  <path
     transform="matrix(1.3150601,0,0,1.3150601,-94.957534,-416.14655)"
     d="m 223.188,410.471 v 28.996 h -67.992 v -28.996 c 25.376,-0.486 42.211,-1.233 67.992,0 z m -38.996,13.998 c -0.271,-2.141 0.773,-10.667 -1,-7.999 0.272,2.14 -0.774,10.666 1,7.999 z m 9.998,6.999 c -0.499,-4.197 1.103,-15.727 -0.999,-14.998 0.499,4.197 -1.102,15.726 0.999,14.998 z m -4.999,-1 c -0.46,-3.578 1.047,-14.327 -1,-12.998 0.46,3.578 -1.046,14.327 1,12.998 z m 7.999,3 c -0.435,-3.275 1.011,-13.618 -1,-11.999 0.435,3.275 -1.01,13.618 1,11.999 z m 2,1 c 3.537,-0.162 2.819,-11.7 0,-11.999 z"
     clip-path="url(#a)"
     fill="#bf0000"
     fill-rule="evenodd"
     id="path777" />
  <path
     transform="matrix(1.3150601,0,0,1.3150601,-94.957534,-416.14655)"
     d="m 255.184,455.465 v 26.996 h -64.992 v -26.996 c 27.788,-0.776 37.648,-0.234 64.992,0 z m -31.996,12.998 c -0.405,-2.978 0.968,-12.9 -1,-10.998 0.404,2.977 -0.969,12.899 1,10.998 z m 3.999,5 c -0.499,-4.197 1.103,-15.727 -1,-14.998 0.5,4.196 -1.102,15.725 1,14.998 z m 5,3.999 c -1.131,-4.535 2.387,-13.719 -2,-14.998 -0.13,5.795 0.174,11.156 2,14.998 z m 3.999,1 c -0.325,-2.408 0.853,-11.429 -1,-8.999 0.325,2.408 -0.853,11.429 1,8.999 z"
     clip-path="url(#a)"
     fill="#bf0000"
     fill-rule="evenodd"
     id="path779" />
  <path
     transform="matrix(1.3150601,0,0,1.3150601,-94.957534,-416.14655)"
     d="m 179.192,455.465 v 26.996 h -68.991 c 1.514,-12.421 0.166,-13.773 1,-26.996 29.797,-0.197 44.355,-1.3 67.991,0 z m -40.994,13.998 c -0.435,-3.274 1.011,-13.618 -1,-11.998 0.435,3.274 -1.011,13.617 1,11.998 z m -5,-7.999 c -0.935,12.28 3.767,-1.422 -1,-2.999 -0.043,1.376 0.471,2.195 1,2.999 z m 7.999,12.998 c -0.481,-3.886 1.077,-15.029 -1,-13.998 0.482,3.886 -1.076,15.029 1,13.998 z m 4,1 c -0.435,-3.274 1.011,-13.617 -1,-11.998 0.435,3.274 -1.011,13.618 1,11.998 z m 3,1 c -0.369,-2.688 0.917,-12.171 -1,-9.999 0.368,2.688 -0.917,12.172 1,9.999 z m 2.999,3 c -0.627,-3.039 1.28,-8.612 -1,-9.999 -1.389,3.06 -0.614,7.247 1,9.999 z"
     clip-path="url(#a)"
     fill="#bf0000"
     fill-rule="evenodd"
     id="path785" />
  <path
     transform="matrix(1.3150601,0,0,1.3150601,-94.957534,-416.14655)"
     d="m 295.178,499.459 c 1.086,9.956 -0.318,16.776 0,27.997 -21.603,-0.401 -46.555,0.652 -59.992,0 v -27.997 z m -33.995,10.999 c 1.101,13.58 0.665,-13.683 -1,-7.999 0.088,-0.304 1.233,10.879 1,7.999 z m 5.999,0 c 0.748,-1.339 -0.153,-11.473 -1,-6.999 -1.045,5.524 0.698,7.539 1,6.999 z m 5.999,10.998 c -0.48,-3.886 1.077,-15.029 -1,-13.998 0.481,3.886 -1.077,15.03 1,13.998 z"
     clip-path="url(#a)"
     fill="#bf0000"
     fill-rule="evenodd"
     id="path791" />
  <path
     transform="matrix(1.3150601,0,0,1.3150601,-94.957534,-416.14655)"
     d="m 99.203,499.459 v 16.998 c 2.83,-3.503 -0.777,-13.442 2,-16.998 h 40.995 c 1.034,10.586 -0.985,16.321 1,27.997 -19.684,2.98 -46.312,-0.985 -65.992,1.999 -1.342,-9.63 -1.971,-22.414 -1,-28.996 5.8,-2.198 15.565,-0.432 22.997,-1 z m -2,10.999 c -0.271,-2.141 0.774,-10.667 -1,-7.999 0.272,2.141 -0.774,10.666 1,7.999 z m 7.999,9.999 c -1.168,-5.165 2.439,-15.104 -2,-16.998 -0.005,6.337 -0.421,13.086 2,16.998 z m 3,0 c 1.261,-2.283 0.672,-9.401 -1,-10.999 -0.492,5.014 0.267,12.325 1,10.999 z m 4.999,3.999 c -0.369,-2.688 0.916,-12.172 -1,-9.999 0.369,2.689 -0.916,12.172 1,9.999 z"
     clip-path="url(#a)"
     fill="#bf0000"
     fill-rule="evenodd"
     id="path793" />
</svg>
