<?xml version="1.0" encoding="UTF-8" standalone="no"?>
<svg
   xmlns:dc="http://purl.org/dc/elements/1.1/"
   xmlns:cc="http://creativecommons.org/ns#"
   xmlns:rdf="http://www.w3.org/1999/02/22-rdf-syntax-ns#"
   xmlns:svg="http://www.w3.org/2000/svg"
   xmlns="http://www.w3.org/2000/svg"
   xmlns:sodipodi="http://sodipodi.sourceforge.net/DTD/sodipodi-0.dtd"
   xmlns:inkscape="http://www.inkscape.org/namespaces/inkscape"
   version="1.1"
   x="0"
   y="0"
   width="81.791458mm"
   height="102.51046mm"
   viewBox="0 0 103.04436 129.14703"
   id="svg37"
   sodipodi:docname="bucket.svg"
   inkscape:version="1.0.2-2 (e86c870879, 2021-01-15)">
  <metadata
     id="metadata43">
    <rdf:RDF>
      <cc:Work
         rdf:about="">
        <dc:format>image/svg+xml</dc:format>
        <dc:type
           rdf:resource="http://purl.org/dc/dcmitype/StillImage" />
        <dc:title />
      </cc:Work>
    </rdf:RDF>
  </metadata>
  <defs
     id="defs41" />
  <sodipodi:namedview
     pagecolor="#ffffff"
     bordercolor="#666666"
     borderopacity="1"
     objecttolerance="10"
     gridtolerance="10"
     guidetolerance="10"
     inkscape:pageopacity="0"
     inkscape:pageshadow="2"
     inkscape:window-width="1920"
     inkscape:window-height="1017"
     id="namedview39"
     showgrid="false"
     units="mm"
     inkscape:zoom="0.37101282"
     inkscape:cx="647.68113"
     inkscape:cy="706.76078"
     inkscape:window-x="-8"
     inkscape:window-y="-8"
     inkscape:window-maximized="1"
     inkscape:current-layer="svg37"
     inkscape:document-rotation="0" />
  <g
     id="Layer_1"
     transform="matrix(0.19766945,0,0,0.2395951,9.8807579e-5,-0.23444384)">
    <path
       d="M 260.613,5.885 C 119.391,5.885 4.906,40.365 4.906,82.898 l 59.049,390.069 c 16.942,25.569 93.743,44.856 196.658,44.856 102.928,0 179.006,-19.29 195.765,-44.861 L 516.322,82.898 C 516.322,40.365 401.837,5.885 260.613,5.885"
       fill="#fffffe"
       id="path2" />
    <path
       d="m 260.613,173.689 c -44.029,0 -88.229,-3.176 -127.021,-9.414 l 36.694,348.91 c 28.727,4.432 60.621,7.005 90.327,7.005 82.928,0 182.371,-20.073 182.371,-44.831 l 55.06,-349.705 c -36.06,31.632 -137.232,48.035 -237.431,48.035"
       fill="#cacbc9"
       id="path4" />
    <path
       d="m 23.183,125.654 54.149,349.705 c 0,10.198 17.016,19.599 42.823,27.132 L 75.618,151.282 C 52.93,144.319 34.715,135.769 23.183,125.654"
       fill="#fffffe"
       id="path6" />
    <path
       d="m 75.618,151.282 44.537,351.209 c 6.268,1.83 13.061,3.546 20.247,5.139 L 103.694,158.606 c -9.939,-2.205 -19.344,-4.645 -28.076,-7.324"
       fill="#cacbc9"
       id="path8" />
    <path
       d="m 103.694,158.606 36.708,349.024 c 9.369,2.076 19.413,3.941 29.884,5.555 l -36.694,-348.91 c -10.391,-1.67 -20.393,-3.561 -29.898,-5.669"
       fill="#fffffe"
       id="path10" />
    <path
       d="M 260.613,5.885 C 119.391,5.885 4.906,40.365 4.906,82.898 l 59.049,390.069 c 16.942,25.569 93.743,44.856 196.658,44.856 102.928,0 179.006,-19.29 195.765,-44.861 L 516.322,82.898 C 516.322,40.365 401.837,5.885 260.613,5.885 Z"
       fill-opacity="0"
       stroke="#010604"
       stroke-width="9.813"
       stroke-linecap="round"
       stroke-linejoin="round"
       id="path12" />
    <path
       d="m 501.244,86.151 c 0,36.226 -107.723,65.592 -240.631,65.592 -132.907,0 -240.629,-29.366 -240.629,-65.592 0,-36.227 107.722,-65.593 240.629,-65.593 132.908,0 240.631,29.366 240.631,65.593"
       fill="#b0b1af"
       id="path14" />
    <path
       d="m 260.613,517.823 c -102.915,0 -179.716,-19.287 -196.658,-44.856 l 1.183,7.812 c 0,29.997 81.282,54.315 195.475,54.315 114.197,0 194.566,-24.318 194.566,-54.315 l 1.199,-7.817 c -16.759,25.571 -92.837,44.861 -195.765,44.861"
       fill="#fffffe"
       id="path16" />
    <path
       d="m 260.613,517.823 c -102.915,0 -179.716,-19.287 -196.658,-44.856 l 1.183,7.812 c 0,29.997 81.282,54.315 195.475,54.315 114.197,0 194.566,-24.318 194.566,-54.315 l 1.199,-7.817 c -16.759,25.571 -92.837,44.861 -195.765,44.861 z"
       fill-opacity="0"
       stroke="#010604"
       stroke-width="9.813"
       stroke-linecap="round"
       stroke-linejoin="round"
       id="path18" />
    <path
       d="m 154.43,145.021 c 32.028,4.301 68.065,6.722 106.183,6.722 69.088,0 131.359,-7.937 175.242,-20.646 -16.499,-4.818 -36.246,-8.942 -58.4,-12.179 -75.276,-3.497 -154.051,-3.816 -223.025,26.103"
       fill="#8dd1e6"
       id="path20" />
    <path
       d="m 377.455,118.918 c -34.198,-4.996 -74.145,-7.87 -116.842,-7.87 -70.353,0 -133.277,7.793 -175.241,20.049 19.67,5.696 43.043,10.43 69.058,13.924 68.974,-29.919 147.749,-29.6 223.025,-26.103"
       fill="#cee9e7"
       id="path22" />
    <path
       d="m 220.15,233.724 c -17.607,0 -31.932,-14.325 -31.932,-31.932 0,-17.606 14.325,-31.93 31.932,-31.93 17.606,0 31.93,14.324 31.93,31.93 0,17.607 -14.324,31.932 -31.93,31.932"
       fill="#888988"
       id="path24" />
    <path
       d="m 220.15,165.773 c -19.861,0 -36.02,16.159 -36.02,36.019 0,19.862 16.159,36.02 36.02,36.02 19.861,0 36.018,-16.158 36.018,-36.02 0,-19.86 -16.157,-36.019 -36.018,-36.019 z m 0,8.178 c 15.377,0 27.841,12.466 27.841,27.841 0,15.378 -12.464,27.843 -27.841,27.843 -15.377,0 -27.843,-12.465 -27.843,-27.843 0,-15.375 12.466,-27.841 27.843,-27.841"
       fill="#010604"
       id="path26" />
    <path
       d="m 501.244,86.151 c 0,36.226 -107.723,65.592 -240.631,65.592 -132.907,0 -240.629,-29.366 -240.629,-65.592 0,-36.227 107.722,-65.593 240.629,-65.593 132.908,0 240.631,29.366 240.631,65.593 z"
       fill-opacity="0"
       stroke="#010604"
       stroke-width="4.906"
       stroke-linecap="round"
       stroke-linejoin="round"
       id="path28" />
    <path
       d="m 502.849,409.717 c 0.588,-0.639 1.174,-1.277 1.727,-1.948 0.363,-0.439 0.703,-0.899 1.05,-1.352 0.516,-0.671 1.03,-1.348 1.514,-2.048 0.328,-0.477 0.639,-0.968 0.955,-1.458 0.461,-0.721 0.918,-1.448 1.35,-2.197 0.289,-0.504 0.566,-1.017 0.842,-1.532 0.416,-0.779 0.818,-1.568 1.203,-2.374 0.248,-0.519 0.488,-1.046 0.722,-1.577 0.375,-0.847 0.731,-1.71 1.073,-2.587 0.205,-0.524 0.408,-1.048 0.599,-1.582 0.336,-0.936 0.651,-1.891 0.951,-2.856 0.157,-0.507 0.321,-1.01 0.469,-1.525 0.303,-1.056 0.58,-2.136 0.844,-3.226 0.109,-0.456 0.228,-0.904 0.332,-1.363 0.277,-1.247 0.521,-2.519 0.75,-3.807 0.059,-0.331 0.127,-0.654 0.184,-0.99 1.111,-6.695 1.56,-13.945 1.396,-21.677 -0.004,-0.192 -0.016,-0.389 -0.019,-0.582 -0.043,-1.72 -0.114,-3.462 -0.215,-5.229 -0.022,-0.349 -0.051,-0.703 -0.073,-1.052 -0.105,-1.629 -0.23,-3.27 -0.382,-4.935 -0.016,-0.151 -0.022,-0.295 -0.036,-0.445 -0.003,-10e-4 -0.007,-0.003 -0.009,-0.003 -2.676,-28.175 -12.26,-61.57 -26.838,-97.246 l -8.164,53.131 c 3.687,12.6 6.371,24.309 8.062,34.958 0.276,1.723 0.52,3.412 0.74,5.077 0.034,0.254 0.069,0.51 0.102,0.764 0.227,1.756 0.43,3.485 0.596,5.177 0.004,0.024 0.004,0.048 0.008,0.072 0.16,1.642 0.291,3.246 0.396,4.826 0.018,0.227 0.033,0.455 0.047,0.68 0.103,1.619 0.18,3.212 0.225,4.762 0,0.003 0,0.006 0,0.01 0.041,1.507 0.046,2.973 0.035,4.414 -0.004,0.225 -0.006,0.45 -0.008,0.673 -0.024,1.458 -0.07,2.888 -0.152,4.274 0,0.004 0,0.006 0,0.009 -0.079,1.346 -0.194,2.647 -0.327,3.923 -0.023,0.226 -0.048,0.453 -0.074,0.676 -0.144,1.284 -0.312,2.54 -0.516,3.75 0,0.015 -0.003,0.028 -0.007,0.041 -0.196,1.167 -0.426,2.288 -0.676,3.385 -0.051,0.224 -0.102,0.448 -0.154,0.668 -0.266,1.104 -0.551,2.18 -0.871,3.207 -0.01,0.022 -0.016,0.045 -0.024,0.067 -0.31,0.986 -0.65,1.925 -1.014,2.838 -0.082,0.213 -0.166,0.423 -0.252,0.633 -0.382,0.92 -0.783,1.812 -1.218,2.655 -0.012,0.025 -0.028,0.047 -0.039,0.071 -0.42,0.809 -0.873,1.571 -1.344,2.308 -0.119,0.184 -0.238,0.367 -0.359,0.547 -0.499,0.738 -1.012,1.449 -1.563,2.11 -0.012,0.013 -0.027,0.028 -0.041,0.043 -0.535,0.639 -1.105,1.227 -1.693,1.79 -0.153,0.145 -0.305,0.289 -0.461,0.429 -0.616,0.554 -1.244,1.085 -1.912,1.556 -0.485,0.344 -0.991,0.659 -1.506,0.962 -0.201,0.116 -0.408,0.221 -0.612,0.331 -0.318,0.174 -0.636,0.339 -0.964,0.497 -0.274,0.129 -0.551,0.253 -0.831,0.372 -0.259,0.112 -0.525,0.219 -0.791,0.323 -0.339,0.13 -0.677,0.257 -1.027,0.373 -0.182,0.061 -0.369,0.115 -0.553,0.173 -2.06,0.635 -4.293,1.049 -6.691,1.229 -19.586,1.468 -50.139,-12.243 -85.695,-39.062 -49.922,-37.658 -104.36,-96.467 -153.288,-165.599 -4.06,-5.738 -12.003,-7.095 -17.74,-3.037 -5.736,4.061 -7.093,12.002 -3.035,17.741 79.791,112.733 187.758,214.546 255.82,215.586 0.35,0.004 0.708,0.023 1.057,0.023 11.449,0 21.752,-2.899 30.561,-9.138 1.172,-0.828 2.291,-1.706 3.369,-2.623 0.353,-0.301 0.676,-0.626 1.017,-0.935 0.707,-0.638 1.414,-1.276 2.079,-1.952 0.38,-0.386 0.732,-0.797 1.099,-1.197"
       fill="#979897"
       id="path30" />
    <path
       d="m 502.849,409.717 c 0.588,-0.639 1.174,-1.277 1.727,-1.948 0.363,-0.439 0.703,-0.899 1.05,-1.352 0.516,-0.671 1.03,-1.348 1.514,-2.048 0.328,-0.477 0.639,-0.968 0.955,-1.458 0.461,-0.721 0.918,-1.448 1.35,-2.197 0.289,-0.504 0.566,-1.017 0.842,-1.532 0.416,-0.779 0.818,-1.568 1.203,-2.374 0.248,-0.519 0.488,-1.046 0.722,-1.577 0.375,-0.847 0.731,-1.71 1.073,-2.587 0.205,-0.524 0.408,-1.048 0.599,-1.582 0.336,-0.936 0.651,-1.891 0.951,-2.856 0.157,-0.507 0.321,-1.01 0.469,-1.525 0.303,-1.056 0.58,-2.136 0.844,-3.226 0.109,-0.456 0.228,-0.904 0.332,-1.363 0.277,-1.247 0.521,-2.519 0.75,-3.807 0.059,-0.331 0.127,-0.654 0.184,-0.99 1.111,-6.695 1.56,-13.945 1.396,-21.677 -0.004,-0.192 -0.016,-0.389 -0.019,-0.582 -0.043,-1.72 -0.114,-3.462 -0.215,-5.229 -0.022,-0.349 -0.051,-0.703 -0.073,-1.052 -0.105,-1.629 -0.23,-3.27 -0.382,-4.935 -0.016,-0.151 -0.022,-0.295 -0.036,-0.445 -0.003,-10e-4 -0.007,-0.003 -0.009,-0.003 -2.676,-28.175 -12.26,-61.57 -26.838,-97.246 l -8.164,53.131 c 3.687,12.6 6.371,24.309 8.062,34.958 0.276,1.723 0.52,3.412 0.74,5.077 0.034,0.254 0.069,0.51 0.102,0.764 0.227,1.756 0.43,3.485 0.596,5.177 0.004,0.024 0.004,0.048 0.008,0.072 0.16,1.642 0.291,3.246 0.396,4.826 0.018,0.227 0.033,0.455 0.047,0.68 0.103,1.619 0.18,3.212 0.225,4.762 0,0.003 0,0.006 0,0.01 0.041,1.507 0.046,2.973 0.035,4.414 -0.004,0.225 -0.006,0.45 -0.008,0.673 -0.024,1.458 -0.07,2.888 -0.152,4.274 0,0.004 0,0.006 0,0.009 -0.079,1.346 -0.194,2.647 -0.327,3.923 -0.023,0.226 -0.048,0.453 -0.074,0.676 -0.144,1.284 -0.312,2.54 -0.516,3.75 0,0.015 -0.003,0.028 -0.007,0.041 -0.196,1.167 -0.426,2.288 -0.676,3.385 -0.051,0.224 -0.102,0.448 -0.154,0.668 -0.266,1.104 -0.551,2.18 -0.871,3.207 -0.01,0.022 -0.016,0.045 -0.024,0.067 -0.31,0.986 -0.65,1.925 -1.014,2.838 -0.082,0.213 -0.166,0.423 -0.252,0.633 -0.382,0.92 -0.783,1.812 -1.218,2.655 -0.012,0.025 -0.028,0.047 -0.039,0.071 -0.42,0.809 -0.873,1.571 -1.344,2.308 -0.119,0.184 -0.238,0.367 -0.359,0.547 -0.499,0.738 -1.012,1.449 -1.563,2.11 -0.012,0.013 -0.027,0.028 -0.041,0.043 -0.535,0.639 -1.105,1.227 -1.693,1.79 -0.153,0.145 -0.305,0.289 -0.461,0.429 -0.616,0.554 -1.244,1.085 -1.912,1.556 -0.485,0.344 -0.991,0.659 -1.506,0.962 -0.201,0.116 -0.408,0.221 -0.612,0.331 -0.318,0.174 -0.636,0.339 -0.964,0.497 -0.274,0.129 -0.551,0.253 -0.831,0.372 -0.259,0.112 -0.525,0.219 -0.791,0.323 -0.339,0.13 -0.677,0.257 -1.027,0.373 -0.182,0.061 -0.369,0.115 -0.553,0.173 -2.06,0.635 -4.293,1.049 -6.691,1.229 -19.586,1.468 -50.139,-12.243 -85.695,-39.062 -49.922,-37.658 -104.36,-96.467 -153.288,-165.599 -4.06,-5.738 -12.003,-7.095 -17.74,-3.037 -5.736,4.061 -7.093,12.002 -3.035,17.741 79.791,112.733 187.758,214.546 255.82,215.586 0.35,0.004 0.708,0.023 1.057,0.023 11.449,0 21.752,-2.899 30.561,-9.138 1.172,-0.828 2.291,-1.706 3.369,-2.623 0.353,-0.301 0.676,-0.626 1.017,-0.935 0.707,-0.638 1.414,-1.276 2.079,-1.952 0.38,-0.386 0.732,-0.797 1.099,-1.197 z"
       fill-opacity="0"
       stroke="#010604"
       stroke-width="4.906"
       id="path32" />
    <path
       d="m 260.613,151.743 c 69.088,0 131.359,-7.937 175.242,-20.646 -41.967,-12.256 -104.885,-20.049 -175.242,-20.049 -70.353,0 -133.277,7.793 -175.241,20.049 43.884,12.709 106.159,20.646 175.241,20.646 z"
       fill-opacity="0"
       stroke="#010604"
       stroke-width="4.906"
       stroke-linecap="round"
       stroke-linejoin="round"
       id="path34" />
  </g>
</svg>
