<?xml version="1.0" encoding="UTF-8" standalone="no"?>
<svg
   xmlns:dc="http://purl.org/dc/elements/1.1/"
   xmlns:cc="http://creativecommons.org/ns#"
   xmlns:rdf="http://www.w3.org/1999/02/22-rdf-syntax-ns#"
   xmlns:svg="http://www.w3.org/2000/svg"
   xmlns="http://www.w3.org/2000/svg"
   xmlns:xlink="http://www.w3.org/1999/xlink"
   xmlns:sodipodi="http://sodipodi.sourceforge.net/DTD/sodipodi-0.dtd"
   xmlns:inkscape="http://www.inkscape.org/namespaces/inkscape"
   id="svg2"
   viewBox="0 0 462.55208 237.45841"
   version="1.0"
   y="0"
   x="0"
   sodipodi:docname="bus.svg"
   width="122.38358mm"
   height="62.827541mm"
   inkscape:version="1.0.2-2 (e86c870879, 2021-01-15)">
  <sodipodi:namedview
     pagecolor="#ffffff"
     bordercolor="#666666"
     borderopacity="1"
     objecttolerance="10"
     gridtolerance="10"
     guidetolerance="10"
     inkscape:pageopacity="0"
     inkscape:pageshadow="2"
     inkscape:window-width="1920"
     inkscape:window-height="1017"
     id="namedview57"
     showgrid="false"
     units="mm"
     inkscape:zoom="0.9901178"
     inkscape:cx="520.07199"
     inkscape:cy="314.44491"
     inkscape:window-x="-8"
     inkscape:window-y="-8"
     inkscape:window-maximized="1"
     inkscape:current-layer="svg2"
     inkscape:document-rotation="0" />
  <defs
     id="defs3">
    <linearGradient
       id="linearGradient2165">
      <stop
         id="stop2167"
         stop-color="#8aa1c1"
         offset="0" />
      <stop
         id="stop2173"
         stop-color="#5b97b6"
         offset=".78261" />
      <stop
         id="stop2169"
         stop-color="#0a244e"
         offset="1" />
    </linearGradient>
    <radialGradient
       id="radialGradient2352"
       gradientUnits="userSpaceOnUse"
       cy="1178.5"
       cx="125.73"
       gradientTransform="scale(2.5128,0.39796)"
       r="49.883999">
      <stop
         id="stop2262"
         offset="0" />
      <stop
         id="stop2268"
         stop-opacity=".82653"
         offset=".26087" />
      <stop
         id="stop2264"
         stop-opacity="0"
         offset="1" />
    </radialGradient>
    <radialGradient
       id="radialGradient2366"
       xlink:href="#linearGradient2165"
       gradientUnits="userSpaceOnUse"
       cy="370.41"
       cx="538.37"
       gradientTransform="scale(0.79612,1.2561)"
       r="16.066" />
    <radialGradient
       id="radialGradient2368"
       xlink:href="#linearGradient2165"
       gradientUnits="userSpaceOnUse"
       cy="308.37"
       cx="342.17001"
       gradientTransform="scale(0.69267,1.4437)"
       r="10.219" />
    <linearGradient
       id="linearGradient2414"
       y2="501"
       gradientUnits="userSpaceOnUse"
       y1="482.34"
       gradientTransform="matrix(2.7043,0,0,1.3282,-273.95,-360.08)"
       x2="138.55"
       x1="457.62">
      <stop
         id="stop2125"
         stop-color="#f00"
         offset="0" />
      <stop
         id="stop2127"
         stop-color="#870000"
         offset="1" />
    </linearGradient>
    <linearGradient
       id="linearGradient2423"
       y2="1424.1"
       gradientUnits="userSpaceOnUse"
       y1="1273.3"
       gradientTransform="matrix(5.3886,0,0,0.66654,-273.95,-360.08)"
       x2="108.87"
       x1="137.31">
      <stop
         id="stop2289"
         offset="0" />
      <stop
         id="stop2291"
         stop-opacity="0"
         offset="1" />
    </linearGradient>
    <radialGradient
       inkscape:collect="always"
       xlink:href="#radialGradient2352"
       id="radialGradient59"
       gradientUnits="userSpaceOnUse"
       gradientTransform="scale(2.5128,0.39796)"
       cx="125.73"
       cy="1178.5"
       r="49.883999" />
    <radialGradient
       inkscape:collect="always"
       xlink:href="#radialGradient2352"
       id="radialGradient61"
       gradientUnits="userSpaceOnUse"
       gradientTransform="scale(2.5128,0.39796)"
       cx="125.73"
       cy="1178.5"
       r="49.883999" />
    <radialGradient
       inkscape:collect="always"
       xlink:href="#radialGradient2352"
       id="radialGradient63"
       gradientUnits="userSpaceOnUse"
       gradientTransform="scale(2.5128,0.39796)"
       cx="125.73"
       cy="1178.5"
       r="49.883999" />
    <radialGradient
       inkscape:collect="always"
       xlink:href="#radialGradient2352"
       id="radialGradient65"
       gradientUnits="userSpaceOnUse"
       gradientTransform="scale(2.5128,0.39796)"
       cx="125.73"
       cy="1178.5"
       r="49.883999" />
    <radialGradient
       inkscape:collect="always"
       xlink:href="#radialGradient2352"
       id="radialGradient67"
       gradientUnits="userSpaceOnUse"
       gradientTransform="scale(2.5128,0.39796)"
       cx="125.73"
       cy="1178.5"
       r="49.883999" />
  </defs>
  <g
     id="layer1"
     transform="matrix(0.47390369,0,0,0.47390369,-23.006705,-57.448205)">
    <path
       id="path2374"
       d="m 926.55,245 c 0,0 13.36,-4.45 19.09,-1.27 5.72,3.18 13.36,5.09 14,11.46 0.63,6.36 7.63,0.63 7.63,0.63"
       stroke="#000000"
       stroke-width="8.75"
       fill="none" />
    <rect
       id="rect2372"
       fill-rule="evenodd"
       rx="9.1201"
       ry="25.844"
       transform="matrix(0.99742,0.071794,0.071048,0.99747,0,0)"
       width="29.242001"
       y="185.77"
       x="933.77002"
       height="110.7" />
    <path
       id="path2274"
       opacity="0.37173"
       d="m 441.28,469 a 125.35,19.852 0 1 1 -250.7,0 125.35,19.852 0 1 1 250.7,0 z"
       fill-rule="evenodd"
       transform="matrix(1.8952,0,0,1.8952,188.28,-304.18)"
       fill="url(#radialGradient2352)"
       style="fill:url(#radialGradient59)" />
    <path
       id="path2282"
       opacity="0.37173"
       d="m 441.28,469 a 125.35,19.852 0 1 1 -250.7,0 125.35,19.852 0 1 1 250.7,0 z"
       fill-rule="evenodd"
       transform="matrix(1.8952,0,0,1.8952,-5.2102,-321.38)"
       fill="url(#radialGradient2352)"
       style="fill:url(#radialGradient61)" />
    <path
       id="path2270"
       opacity="0.37173"
       d="m 441.28,469 a 125.35,19.852 0 1 1 -250.7,0 125.35,19.852 0 1 1 250.7,0 z"
       fill-rule="evenodd"
       transform="matrix(1.8952,0,0,1.8952,-160,-349.33)"
       fill="url(#radialGradient2352)"
       style="fill:url(#radialGradient63)" />
    <path
       id="path2258"
       opacity="0.37173"
       d="m 441.28,469 a 125.35,19.852 0 1 1 -250.7,0 125.35,19.852 0 1 1 250.7,0 z"
       fill-rule="evenodd"
       transform="matrix(1.8952,0,0,1.8952,-312.64,-366.53)"
       fill="url(#radialGradient2352)"
       style="fill:url(#radialGradient65)" />
    <path
       id="path2284"
       d="m 168.31,528.83 66.65,-27.95 582.62,51.6 c 0,0 -137.6,38.69 -202.09,36.54 -64.5,-2.15 -221.44,-32.24 -281.64,-40.84 -60.2,-8.6 -249.39,-10.75 -227.89,-15.05 21.5,-4.3 62.35,-4.3 62.35,-4.3 z"
       fill="url(#linearGradient2423)"
       fill-rule="evenodd"
       style="fill:url(#linearGradient2423)" />
    <path
       id="path2278"
       opacity="0.37173"
       d="m 441.28,469 a 125.35,19.852 0 1 1 -250.7,0 125.35,19.852 0 1 1 250.7,0 z"
       fill-rule="evenodd"
       transform="matrix(1.8952,0,0,1.8952,-5.2102,-321.38)"
       fill="url(#radialGradient2352)"
       style="fill:url(#radialGradient67)" />
    <path
       id="path2183"
       d="m 148.41,495.92 c 0.37,6.42 1.89,14.74 0.37,17.76 -1.51,3.02 9.83,0 9.83,0 0,0 3.4,8.31 6.8,10.95 3.4,2.65 5.66,3.78 10.95,4.16 5.29,0.38 16.25,0 20.78,-0.38 4.53,-0.38 7.56,0 9.82,-3.78 2.27,-3.77 5.67,-10.57 7.93,-17.37 2.27,-6.8 0.38,-62.34 0.38,-62.34 0,0 -32.86,-28.71 -43.82,-28.33 -10.95,0.38 -26.82,22.67 -26.82,27.2 0,4.53 3.78,54.02 3.78,54.02 z"
       stroke="#000000"
       stroke-width="3.7904"
       fill-rule="evenodd" />
    <path
       id="path2157"
       d="m 537.56,583.36 43.98,-4.25 c 0,0 7.09,-1.42 12.76,-11.35 5.68,-9.93 5.68,-36.89 5.68,-36.89 l -5.68,-85.12 c 0,0 -19.86,-19.86 -58.16,-14.19 -38.31,5.68 -56.75,28.37 -55.33,56.75 1.42,28.37 2.84,53.91 2.84,53.91 0,0 2.83,19.86 -1.42,26.96 -4.26,7.09 34.05,0 34.05,0 0,0 4.25,5.67 12.76,9.93 z"
       stroke="#000000"
       stroke-width="3.7904"
       fill-rule="evenodd" />
    <path
       id="path2181"
       d="m 547.04,582.7 c 19.92,0.37 32.89,-17.3 33.5,-51.18 0.32,-17.15 -8.71,-39.99 -15.19,-51.26 5.1,10.78 8.88,28.12 8.6,43.17 -0.62,33.88 -15.81,58.87 -35.73,58.51 -9.9,-0.18 -20.88,-8.62 -27.2,-19.74 6.38,13.58 24.91,20.3 36.02,20.5 z"
       fill-opacity="0.19459"
       fill="#ffffff"
       fill-rule="evenodd" />
    <path
       id="path2149"
       d="m 746.11,415.95 -25.54,-106.4 -28.37,-129.1 21.28,-24.12 174.5,18.44 15.6,9.93 c 0,0 29.8,73.78 39.73,107.83 9.93,34.05 22.7,75.19 24.12,90.79 1.41,15.61 5.67,41.15 4.25,49.66 -1.42,8.51 -89.38,21.28 -89.38,21.28 L 763.13,438.65 Z"
       stroke="#000000"
       stroke-width="3.7904"
       fill-rule="evenodd" />
    <path
       id="path2145"
       d="m 728.47,574.01 c 0,0 218.48,-12.12 226.92,-18.03 8.45,-5.92 13.87,-18.91 13.87,-18.91 0,0 -144.14,11.86 -178.34,16.93 -34.2,5.07 -62.45,20.01 -62.45,20.01 z"
       fill-rule="evenodd"
       stroke="#000000"
       stroke-width="3.7904"
       fill="#5f0000" />
    <path
       id="path1358"
       d="m 52.361,474.38 c 0,0 3.417,-162.3 3.417,-182.8 0,-20.5 3.417,-32.46 5.125,-44.42 1.709,-11.96 13.668,-22.21 13.668,-22.21 l 551.82,-97.38 c 0,0 27.33,-6.83 41,-5.12 13.67,1.71 123.01,10.25 123.01,10.25 0,0 47.83,8.54 64.92,13.67 17.08,5.12 27.33,8.54 37.58,20.5 10.25,11.96 13.67,18.79 13.67,18.79 0,0 -37.59,-6.83 -80.3,-11.96 -42.71,-5.12 -68.33,-6.83 -87.13,-6.83 -18.79,0 -25.62,6.83 -32.46,10.25 -6.83,3.41 -6.83,18.79 -6.83,18.79 0,0 44.42,184.51 46.13,193.05 1.71,8.54 10.25,27.34 18.79,30.75 8.54,3.42 20.5,8.55 29.04,11.96 8.55,3.42 70.05,5.13 93.97,5.13 23.91,0 52.96,1.71 64.92,0 11.96,-1.71 20.5,-8.54 20.5,-8.54 v 47.83 c 0,0 -1.71,63.21 -5.13,68.34 -3.41,5.12 -198.17,18.79 -210.13,22.21 -11.96,3.41 -20.5,6.83 -32.46,6.83 -11.96,0 -141.8,-20.5 -141.8,-20.5 l -6.83,6.83 c 0,0 0,-34.17 -1.71,-52.96 -1.71,-18.79 -10.25,-35.87 -23.92,-51.25 -13.67,-15.38 -34.17,-10.25 -34.17,-10.25 0,0 -10.25,1.71 -17.08,11.96 -6.84,10.25 -11.96,25.62 -11.96,37.58 0,11.96 -3.42,32.46 -3.42,39.3 0,6.83 -1.71,8.54 -1.71,8.54 l -5.12,-5.13 c 0,0 -254.56,-34.16 -268.22,-29.04 -13.67,5.13 -11.96,-3.42 -11.96,-3.42 v -34.16 c 0,-13.67 -8.55,-34.17 -11.96,-37.59 -3.42,-3.42 -11.96,-10.25 -17.09,-8.54 -5.12,1.71 -11.96,8.54 -15.37,18.79 -3.42,10.25 -5.13,20.5 -5.13,30.75 0,10.25 1.71,25.63 1.71,25.63 l -6.83,-6.84 c 0,0 -27.34,3.42 -47.838,-3.41 -20.501,-6.84 -42.711,-15.38 -42.711,-15.38 z"
       fill-rule="evenodd"
       stroke="#000000"
       stroke-width="1.8952"
       fill="url(#linearGradient2414)"
       style="fill:url(#linearGradient2414)" />
    <path
       id="path2119"
       d="m 848.48,518.8 -6.83,-30.75 c 0,0 90.55,-6.83 97.38,-3.42 6.83,3.42 1.71,30.75 1.71,30.75 l -78.59,6.84 77.17,-8.71 -3.71,-26.96 c -5.25,-0.5 -89.38,-2.71 -91.09,4.12 -1.71,6.84 3.96,28.13 3.96,28.13 z"
       fill-opacity="0.51351"
       fill-rule="evenodd" />
    <path
       id="path2121"
       d="m 880.94,517.09 25.63,-30.75"
       stroke="#000000"
       stroke-width="1.8952px"
       fill="none" />
    <path
       id="path2131"
       d="m 723.77,501.72 c 0,0 -29.04,-3.42 -46.13,-22.21 -17.08,-18.8 -30.75,-44.42 -39.29,-80.3 -8.54,-35.87 -17.09,-99.09 -17.09,-99.09 L 67.74,327.46 c -0.003,0 -5.128,-13.67 -5.128,-35.88 0,-22.21 6.833,-46.13 6.833,-46.13 l 555.24,-82 c 0,0 25.63,-5.12 41,5.13 15.38,10.25 20.5,23.91 23.92,34.16 3.42,10.25 30.75,129.84 32.46,150.34 1.71,20.51 3.42,29.05 3.42,29.05 l -1.71,119.59 z"
       stroke="#000000"
       stroke-width="1.8952px"
       fill-rule="evenodd" />
    <path
       id="path2133"
       d="m 643.47,421.42 1.71,136.67 80.3,10.26 1.71,-5.13 -1.71,-124.71"
       stroke="#000000"
       stroke-width="3.4113"
       fill="none" />
    <path
       id="path2135"
       d="M 265.91,507.6 V 329.83 l 41.01,-2.37 v 184.7"
       stroke="#000000"
       stroke-width="3.2218"
       fill="none" />
    <path
       id="path2137"
       d="m 585.39,518.8 c 0,0 1.71,-35.88 -11.96,-52.96 -13.67,-17.08 -11.96,-27.33 -29.04,-35.88 -17.09,-8.54 -29.05,-6.83 -29.05,-6.83 0,0 39.3,-10.25 56.38,25.63 17.08,35.87 13.67,70.04 13.67,70.04 z"
       fill-opacity="0.18919"
       fill="#ffffff"
       fill-rule="evenodd" />
    <path
       id="path2139"
       d="m 204.41,474.38 c 0,0 0,-23.92 -6.83,-34.17 -6.84,-10.25 -15.38,-23.91 -15.38,-23.91 0,0 17.09,13.66 20.5,25.62 3.42,11.96 1.71,32.46 1.71,32.46 z"
       fill-opacity="0.18919"
       fill="#ffffff"
       fill-rule="evenodd" />
    <path
       id="path2141"
       d="m 648.6,129.28 c 0,0 17.08,-6.83 32.46,5.13 15.37,11.96 29.04,29.04 29.04,29.04 0,0 -13.67,1.71 -13.67,10.25 0,8.54 1.71,-6.83 -11.95,-22.21 -13.67,-15.37 -8.55,-11.96 -17.09,-15.37 -8.54,-3.42 -18.79,-6.84 -18.79,-6.84 z"
       fill-opacity="0.18919"
       fill="#ffffff"
       fill-rule="evenodd" />
    <path
       id="path2143"
       d="m 768.19,424.84 c 0,0 5.12,6.83 15.37,8.54 10.25,1.71 13.67,3.42 13.67,3.42 0,0 3.42,17.08 -5.12,34.17 -8.55,17.08 -10.25,105.92 -13.67,78.58 -3.42,-27.33 -1.71,-76.88 -3.42,-93.96 -1.71,-17.08 -6.83,-30.75 -6.83,-30.75 z"
       fill-opacity="0.18919"
       fill="#ffffff"
       fill-rule="evenodd" />
    <path
       id="path2151"
       d="m 642.72,419.58 -2.16,-171.67 52.39,-4.37 1.58,5.63 c 0,0 -41.25,-3.05 -45.3,4.16 -4.04,7.22 -4.13,4.38 -3.71,18.56 0.41,14.18 -2.8,147.69 -2.8,147.69 z"
       fill-opacity="0.78919"
       fill="#ffffff"
       fill-rule="evenodd" />
    <path
       id="path2153"
       d="m 747.53,492.57 1.41,18.44 c 0,0 12.77,4.25 24.12,4.25 11.35,0 43.98,-1.41 43.98,-1.41 l -2.83,-24.12 h -31.22 c -9.93,0 -18.44,0 -25.53,1.42 -7.1,1.42 -9.93,1.42 -9.93,1.42 z"
       fill-rule="evenodd"
       stroke="#000000"
       stroke-width="1.8952px"
       fill="#d6ec54" />
    <path
       id="path2155"
       d="m 957.5,484.05 -1.42,25.54 12.76,-4.26 2.84,-24.11 c 0,0 0,-1.42 -5.67,1.41 -5.68,2.84 -8.51,1.42 -8.51,1.42 z"
       fill-rule="evenodd"
       stroke="#000000"
       stroke-width="1.8952px"
       fill="#d6ec54" />
    <path
       id="path2163"
       stroke-linejoin="round"
       d="m 441.4,465.27 a 12.79,20.18 0 1 1 -25.58,0 12.79,20.18 0 1 1 25.58,0 z"
       stroke-opacity="0.38378"
       fill-rule="evenodd"
       transform="matrix(1.7249,0,0,1.8952,-203.16,-360.08)"
       stroke="#ffffff"
       stroke-linecap="round"
       stroke-width="1.0318"
       fill="url(#radialGradient2366)"
       style="fill:url(#radialGradient2366)" />
    <path
       id="path2175"
       d="m 536.6,460 c -19.92,0 -36.07,27.54 -36.07,61.42 0,17.15 4.16,32.57 10.84,43.71 -5.29,-10.68 -9.38,-27.96 -9.38,-43.01 0,-33.88 14.73,-59.15 34.65,-59.15 9.91,0 21.04,8.25 27.56,19.24 C 557.58,468.75 547.72,460 536.6,460 Z"
       fill-opacity="0.40541"
       fill="#ffffff"
       fill-rule="evenodd" />
    <path
       id="path2185"
       stroke-linejoin="round"
       d="m 243.59,445.19 a 6.58,14.256333 0 1 1 -13.16,0 6.58,14.256333 0 1 1 13.16,0 z"
       stroke-opacity="0.40541"
       fill-rule="evenodd"
       transform="matrix(1.8952,0,0,1.8952,-274.7,-363.87)"
       stroke="#ffffff"
       stroke-linecap="round"
       stroke-width="0.5"
       fill="url(#radialGradient2368)"
       style="fill:url(#radialGradient2368)" />
    <path
       id="path2199"
       opacity="0.37173"
       d="m 173.93,432.86 c -11.78,0 -21.38,20.14 -21.38,44.95 0,7.47 1.13,14.18 2.66,20.37 -0.85,-4.86 -0.78,-17.14 -0.78,-22.63 0,-24.82 8.46,-38.97 20.25,-38.97 8.22,0 15.53,11.29 19.09,25.66 -3.02,-17.1 -10.68,-29.38 -19.84,-29.38 z"
       fill-rule="evenodd"
       fill-opacity="0.62703"
       fill="#ffffff" />
    <path
       id="path2295"
       d="m 846.15,181.56 53.74,8.6 c 0,0 21.5,45.15 23.65,55.9 2.15,10.75 17.2,51.6 17.2,51.6 0,0 -38.7,-88.15 -43,-94.6 -4.3,-6.45 -51.59,-21.5 -51.59,-21.5 z"
       fill-rule="evenodd"
       fill-opacity="0.41622"
       stroke="#000000"
       stroke-width="1.8952px"
       fill="#ffffff" />
    <rect
       id="rect2378"
       fill-rule="evenodd"
       fill-opacity="0.82703"
       rx="12.197"
       ry="26.336"
       transform="matrix(0.99851,0.054603,0.093347,0.99563,0,0)"
       width="39.109001"
       y="211.64999"
       x="709.01001"
       height="112.8"
       fill="#ffffff" />
    <rect
       id="rect2370"
       fill-rule="evenodd"
       rx="11.34"
       ry="25.879999"
       transform="matrix(0.99833,0.05774,0.088301,0.99609,0,0)"
       width="36.360001"
       y="209.71001"
       x="711.98999"
       height="110.85" />
    <path
       id="path2376"
       d="m 752.82,250.55 c 0,0 -3.18,-6.36 -9.55,-8.91 -8.91,-1.91 -27.36,-2.55 -29.91,-1.91 -2.54,0.64 27.37,-3.18 33.73,-0.64 6.36,2.55 5.73,11.46 5.73,11.46 z"
       fill-opacity="0.58378"
       fill="#ffffff"
       fill-rule="evenodd" />
  </g>
  <metadata
     id="metadata54">
    <rdf:RDF>
      <cc:Work>
        <dc:format>image/svg+xml</dc:format>
        <dc:type
           rdf:resource="http://purl.org/dc/dcmitype/StillImage" />
        <cc:license
           rdf:resource="http://creativecommons.org/publicdomain/zero/1.0/" />
        <dc:publisher>
          <cc:Agent
             rdf:about="http://openclipart.org/">
            <dc:title>Openclipart</dc:title>
          </cc:Agent>
        </dc:publisher>
        <dc:title>Bus 1</dc:title>
        <dc:date>2005-10-11T20:07:45</dc:date>
        <dc:description>Bus </dc:description>
        <dc:source>https://openclipart.org/detail/182939/bus-1-by-Jarno-182939</dc:source>
        <dc:creator>
          <cc:Agent>
            <dc:title>Jarno</dc:title>
          </cc:Agent>
        </dc:creator>
        <dc:subject>
          <rdf:Bag>
            <rdf:li>bus</rdf:li>
            <rdf:li>upload2openclipart</rdf:li>
          </rdf:Bag>
        </dc:subject>
      </cc:Work>
      <cc:License
         rdf:about="http://creativecommons.org/publicdomain/zero/1.0/">
        <cc:permits
           rdf:resource="http://creativecommons.org/ns#Reproduction" />
        <cc:permits
           rdf:resource="http://creativecommons.org/ns#Distribution" />
        <cc:permits
           rdf:resource="http://creativecommons.org/ns#DerivativeWorks" />
      </cc:License>
    </rdf:RDF>
  </metadata>
</svg>
