<?xml version="1.0" encoding="UTF-8" standalone="no"?>
<svg
   xmlns:dc="http://purl.org/dc/elements/1.1/"
   xmlns:cc="http://creativecommons.org/ns#"
   xmlns:rdf="http://www.w3.org/1999/02/22-rdf-syntax-ns#"
   xmlns:svg="http://www.w3.org/2000/svg"
   xmlns="http://www.w3.org/2000/svg"
   xmlns:sodipodi="http://sodipodi.sourceforge.net/DTD/sodipodi-0.dtd"
   xmlns:inkscape="http://www.inkscape.org/namespaces/inkscape"
   width="119.96915mm"
   height="84.655159mm"
   viewBox="0 0 340.07005 239.96738"
   version="1.1"
   id="svg448"
   sodipodi:docname="butterfly.svg"
   inkscape:version="1.0.2-2 (e86c870879, 2021-01-15)">
  <metadata
     id="metadata454">
    <rdf:RDF>
      <cc:Work
         rdf:about="">
        <dc:format>image/svg+xml</dc:format>
        <dc:type
           rdf:resource="http://purl.org/dc/dcmitype/StillImage" />
        <dc:title></dc:title>
      </cc:Work>
    </rdf:RDF>
  </metadata>
  <defs
     id="defs452" />
  <sodipodi:namedview
     pagecolor="#ffffff"
     bordercolor="#666666"
     borderopacity="1"
     objecttolerance="10"
     gridtolerance="10"
     guidetolerance="10"
     inkscape:pageopacity="0"
     inkscape:pageshadow="2"
     inkscape:window-width="1920"
     inkscape:window-height="1017"
     id="namedview450"
     showgrid="false"
     units="mm"
     inkscape:zoom="0.30305008"
     inkscape:cx="924.29477"
     inkscape:cy="584.84762"
     inkscape:window-x="-8"
     inkscape:window-y="-8"
     inkscape:window-maximized="1"
     inkscape:current-layer="svg448"
     inkscape:document-rotation="0" />
  <path
     fill="#010101"
     stroke="#010101"
     stroke-width="0.0492796"
     opacity="1"
     d="m 15.814326,3.0276415 c 7.201395,-2.4705541 14.87589,-3.416724 22.497805,-2.8385096 6.938579,0.8936054 13.929715,1.6820798 20.658034,3.5744195 1.576955,0.5782132 3.574419,0.9461687 4.205199,2.7333774 -1.68208,1.576951 -3.942371,1.419256 -5.992403,0.94617 1.366684,0.630781 2.680812,1.62952 4.257756,1.419258 2.260291,-0.315402 3.889815,-2.575688 6.255231,-2.417992 3.364171,0.157692 6.518059,1.314124 9.671958,2.207731 21.288811,6.7283112 42.419944,14.2450982 61.868994,25.2837512 9.46167,5.466757 18.97594,10.986083 27.85942,17.346434 -1.89233,-0.367952 -3.83724,-1.103856 -5.78214,-0.525644 0.15769,1.576944 1.68208,2.260292 2.89106,2.89106 1.89234,0.893619 3.88982,1.682103 6.04497,1.682103 2.5757,0 4.88855,1.314116 7.20141,2.417984 10.61812,5.41418 20.29008,12.457895 29.90947,19.501587 7.2014,5.361635 14.35025,10.828394 21.18368,16.663106 1.73465,1.576956 3.46929,3.206456 5.04624,4.941106 1.52437,1.839767 3.8898,2.575667 6.04497,3.364157 2.36543,0.7359 4.83598,1.57695 7.35909,1.26155 4.78342,-0.8936 8.88347,3.15391 13.6669,2.68082 2.26028,-0.26282 4.2052,-1.52439 6.30779,-2.20773 1.99747,-0.47309 2.52311,-2.68082 3.20646,-4.310317 3.99495,-11.30147 8.93604,-22.340112 15.40155,-32.485147 5.67702,-8.725796 12.56303,-16.873367 21.13109,-22.918342 4.88856,-3.311584 10.09249,-6.412925 15.76951,-8.095003 0,0.525645 0,1.103861 0.0527,1.682078 -10.25015,3.679556 -19.86955,9.514266 -27.33377,17.556696 -9.77708,10.828394 -16.61055,23.969637 -22.02472,37.426264 -1.20901,3.311594 -2.68082,6.570614 -3.41672,9.987341 1.52437,0.78848 2.99619,2.41798 4.83596,1.83977 1.26156,-0.78846 1.62952,-2.36542 2.20775,-3.67954 3.73209,-9.356575 9.82964,-17.977222 18.34514,-23.601662 5.41421,-3.784679 11.72199,-6.044971 17.92468,-8.357842 7.14885,-2.417985 14.45537,-4.468017 21.60421,-6.833444 1.7872,-0.578224 3.46928,-1.47182 5.36162,-1.576944 -0.10509,0.315384 -0.36795,0.946175 -0.4731,1.261559 -10.40786,3.99494 -21.44649,5.729589 -31.85437,9.566813 -8.14757,2.996207 -15.82205,7.77963 -21.44652,14.455382 -4.15263,5.256487 -7.83216,11.038631 -9.82962,17.451548 2.99619,1.89234 4.31032,5.51933 3.67953,8.93606 -0.52564,2.26029 1.15644,4.88855 -0.5782,6.83346 -1.94492,2.31284 -3.94238,5.0988 -3.52186,8.2527 1.0513,2.36541 3.15391,4.15263 3.83723,6.7283 0.99873,2.15517 0.52566,4.57316 -0.57819,6.57064 3.57442,10.51299 6.36035,21.2888 10.03989,31.74922 0.26283,0.73592 0.42052,1.47185 0.57822,2.20775 -1.47182,-0.89362 -1.5244,-2.73339 -2.15516,-4.15263 -3.10135,-9.51427 -5.67702,-19.23878 -8.98863,-28.75305 -1.41924,1.3667 -3.36414,2.57568 -5.41418,2.1026 -3.10134,-0.52564 -5.51931,-2.9962 -6.30781,-5.9924 -2.05002,0.94617 -4.15263,1.73463 -6.2552,2.52311 -0.99874,0.3154 -1.47184,1.31412 -2.1026,2.05003 4.52058,0.99874 9.30398,0.26284 13.77202,1.68208 2.41798,0.84105 2.68081,3.67955 2.99621,5.83472 0.78846,7.88474 0.63078,15.87461 2.68081,23.54911 -1.20902,-0.99874 -1.31412,-2.62825 -1.62954,-4.04751 -1.26155,-6.62319 -1.26155,-13.45664 -1.89233,-20.13238 -0.26281,-1.68208 -0.52564,-3.78468 -2.31286,-4.41546 -2.89106,-1.0513 -5.99241,-0.73592 -8.93603,-1.0513 -1.73464,-0.0527 -3.52186,-0.36795 -5.15137,0.15769 -0.89361,1.10387 -1.47182,2.52313 -2.26029,3.73211 2.31286,0.52565 4.25775,1.83978 6.25523,3.04878 1.83977,0.84104 2.1026,3.10133 3.04876,4.67828 2.57569,4.83599 4.0475,10.30273 3.8898,15.76949 -0.15769,1.15644 -0.21026,2.36542 -0.99872,3.31159 0.1577,-3.04877 0.63077,-6.09755 0.0527,-9.09374 -0.84104,-4.20519 -2.62824,-8.095 -4.52058,-11.87968 -0.84104,-1.99747 -3.04877,-2.73337 -4.67829,-3.83724 -3.36416,-2.05003 -7.93731,0.26282 -9.304,3.67954 -1.94489,4.99369 -3.78467,10.3553 -2.73337,15.7695 0.84104,3.04875 1.89233,6.04497 2.99619,9.04118 1.20902,3.10132 4.5206,4.73084 5.7296,7.7796 -0.57821,-0.21024 -1.05131,-0.5782 -1.41926,-1.05129 -1.89234,-2.26029 -4.41545,-4.15263 -5.36161,-7.09626 -0.99875,-2.89109 -2.20775,-5.78217 -2.99622,-8.83093 -0.89361,-4.99367 0.89361,-9.88221 2.15517,-14.61305 -6.20267,4.62571 -11.5643,10.35529 -18.34519,14.19254 -1.78719,0.94616 -4.04748,2.73337 -3.10132,5.04623 1.78721,3.99494 5.41419,6.78088 7.25396,10.72326 -0.99874,-0.31539 -1.47182,-1.31413 -2.10261,-2.15516 -1.68206,-2.47055 -3.83722,-4.62573 -5.30905,-7.25398 -0.63077,-1.05128 -0.94618,-2.31285 -0.68335,-3.52185 0.4731,-1.15642 1.31413,-2.1026 1.99746,-3.15391 -1.52436,0.52567 -3.46927,1.05131 -3.94237,2.78596 -1.10385,2.52311 0.84104,4.88855 2.31286,6.78089 1.83977,2.31283 3.94239,4.52058 5.15138,7.30652 -1.20899,-0.47309 -1.73465,-1.68208 -2.41799,-2.62825 -1.89234,-2.83851 -4.57315,-5.15137 -5.88728,-8.30526 -0.89359,-1.99749 0.31539,-3.99495 1.209,-5.78217 -7.93733,5.51933 -15.82206,11.03866 -23.7068,16.66311 -8.35784,5.72959 -16.76823,11.51173 -24.70554,17.8721 -7.88475,6.25522 -15.29641,13.08867 -22.70807,19.86955 -7.0437,6.25523 -14.29768,12.82586 -23.39141,15.87462 -6.99115,2.05003 -14.61305,1.47182 -21.49907,-0.7359 -8.515533,-2.78594 -15.716937,-8.56811 -21.656771,-15.13872 -6.255231,-6.886 -13.246378,-13.08867 -19.186225,-20.23752 -1.419252,-1.52437 -1.576944,-3.62697 -2.470552,-5.41419 -2.628244,-5.25649 -5.939836,-10.09246 -9.146303,-15.03357 -1.734648,-2.78595 -3.626987,-5.57189 -4.257767,-8.83092 -0.998732,-5.93984 -0.10509,-12.19508 -1.89234,-18.02979 -0.473076,-4.52058 0.367963,-9.09374 -0.21026,-13.56176 -0.21026,-1.57695 -0.946164,-3.15389 -0.578212,-4.73084 0.946176,-5.72959 4.257767,-10.88095 4.520583,-16.8208 -0.210259,-1.31413 1.839784,-2.47055 0.735916,-3.57442 -2.943639,-3.25905 -4.888547,-7.2014 -6.938579,-11.03864 C 44.830478,101.0613 42.465051,96.645853 39.679115,92.493225 37.734127,89.602153 35.263575,87.13159 33.108408,84.345654 30.217255,80.928926 27.746704,77.144258 24.382544,74.148051 18.022177,69.942852 12.818246,64.160707 8.8233062,57.695216 6.6681502,54.278488 4.0398952,51.072021 2.8834711,47.182223 2.147567,44.764238 2.515519,42.188542 1.937307,39.717987 1.4642192,36.353832 0.09752357,33.19994 0.04496727,29.783215 c -0.1050896,-4.362895 0.157692,-8.830912 1.73463603,-12.930992 0.4730879,-1.366676 1.6820798,-2.155154 2.5756869,-3.206464 1.0513,-1.524368 1.208992,-3.521848 2.365428,-4.9936632 2.31286,-2.838511 5.7295758,-4.4154601 9.0937348,-5.6244543 z"
     id="path4" />
  <path
     fill="#fdfdfd"
     stroke="#fdfdfd"
     stroke-width="0.0492796"
     opacity="1"
     d="m 41.255771,5.2879348 c 1.734648,-0.5782147 3.048764,-2.1025978 4.941103,-2.4705533 1.997476,-0.2628255 3.942372,0.7359088 5.203932,2.2077286 -2.207724,2.4179887 -5.677008,0.4205197 -8.410387,1.2089947 -0.21026,1.471818 0.157692,3.31159 -1.156436,4.3628992 -1.944896,1.524387 -5.466759,1.419248 -6.675751,-0.9461702 -0.683336,-1.629524 0.367952,-3.574425 1.89234,-4.362899 1.314127,-0.6307791 2.785947,0.315391 4.205199,0 z"
     id="path6" />
  <path
     fill="#fcfcfc"
     stroke="#fcfcfc"
     stroke-width="0.0492796"
     opacity="1"
     d="m 16.813058,7.4956628 c 0.10509,-3.3641559 4.678287,-3.994937 7.148839,-2.7859427 0.05255,1.1038647 0.157692,2.6808147 -1.26156,3.0487687 -1.944907,0.36796 -3.994939,0.262821 -5.887279,-0.262826 z"
     id="path8" />
  <path
     fill="#fdfdfd"
     stroke="#fdfdfd"
     stroke-width="0.0492796"
     opacity="1"
     d="m 12.923254,13.120114 c 2.680812,-1.62951 5.782144,-3.4692802 8.988611,-2.733371 1.366684,0.157692 1.208992,2.050032 0.10509,2.470557 -2.73338,1.576937 -6.307799,1.629507 -9.093747,0.262814 z"
     id="path10" />
  <path
     fill="#fcfcfc"
     stroke="#fcfcfc"
     stroke-width="0.0492796"
     opacity="1"
     d="m 74.949923,11.332912 c 2.523119,0.05263 4.888547,0.998724 7.201406,1.787202 2.312849,0.893599 4.993672,1.576955 6.360355,3.784678 -2.207723,-0.367953 -4.257766,-1.314123 -6.307798,-2.155154 -2.470552,-1.051309 -4.993672,-1.944909 -7.253963,-3.416726 z"
     id="path12" />
  <path
     fill="#fd802b"
     stroke="#fd802b"
     stroke-width="0.0492796"
     opacity="1"
     d="m 40.204471,17.483009 c 3.416728,-1.682079 6.833443,-3.521849 10.723259,-3.73211 5.992403,-0.315384 11.879682,1.366694 17.556701,3.206463 1.576944,0.578216 3.311592,1.051292 4.362892,2.470555 0.105089,0.630769 0.05254,1.366694 -0.367952,1.83977 -1.68208,1.997462 -4.310324,3.048771 -6.833455,3.101341 -7.411655,0.210262 -14.718186,0.998721 -22.077285,1.366676 -2.417996,0.05262 -4.83598,0.262831 -7.201407,-0.262814 0.157692,-2.943649 0.683348,-6.83345 3.837247,-7.989881 z"
     id="path14" />
  <path
     fill="#fdfdfd"
     stroke="#fdfdfd"
     stroke-width="0.0492796"
     opacity="1"
     d="m 22.963165,16.484268 c 0.367952,-0.841029 1.314116,-1.103861 2.207724,-1.103861 1.997464,-0.157693 4.310324,0.262832 5.624451,1.892339 0.525656,1.576956 -0.998732,2.628248 -2.102599,3.364155 -1.944908,1.051309 -3.99494,2.365434 -6.3078,1.997479 -0.315384,-2.050031 -0.315384,-4.257772 0.578224,-6.150112 z"
     id="path16" />
  <path
     fill="#ffffff"
     stroke="#ffffff"
     stroke-width="0.0492796"
     opacity="1"
     d="m 82.519282,20.479209 c 3.259023,-0.367953 6.360354,0.94617 9.409129,1.89234 2.365416,0.8936 5.046226,1.787217 6.570616,3.94237 0.57821,1.682078 -1.26156,2.83851 -1.31413,4.415465 0.36797,1.366694 1.57696,2.628248 0.94618,4.100063 -0.78847,2.312863 -1.89234,5.098802 -4.36289,6.097543 -2.628259,0.735907 -5.466763,0.630785 -8.095006,0 -2.155167,-0.578217 -4.152631,-2.523126 -4.152631,-4.888542 -0.157693,-2.680816 0.841039,-5.519326 2.943628,-7.306525 -0.473077,-2.785957 -3.048764,-5.361635 -1.944896,-8.252714 z"
     id="path18" />
  <path
     fill="#fcfcfc"
     stroke="#fcfcfc"
     stroke-width="0.0492796"
     opacity="1"
     d="m 10.662963,20.952303 c 1.419251,-0.735908 2.996195,0 4.310323,0.630768 0.63078,0.315402 1.366684,0.841048 1.0513,1.682078 -1.208992,1.734647 -3.679555,2.575694 -5.677019,1.997478 -1.8923398,-0.841046 -1.5769438,-3.732109 0.315396,-4.310324 z"
     id="path20" />
  <path
     fill="#fdfdfd"
     stroke="#fdfdfd"
     stroke-width="0.0492796"
     opacity="1"
     d="m 102.07345,25.052366 c 1.36668,-1.94491 3.04876,-4.362895 5.62446,-4.415465 2.52311,0.473094 4.67828,1.997479 6.83343,3.364172 0.73593,0.525647 1.99748,1.314125 1.41927,2.365416 -1.10387,1.787217 -2.99621,4.047511 -5.41419,3.101341 -2.94366,-1.156432 -6.09754,-2.207741 -8.46297,-4.415464 z"
     id="path22" />
  <path
     fill="#fafafa"
     stroke="#fafafa"
     stroke-width="0.0492796"
     opacity="1"
     d="m 16.865626,28.258829 c 0.578212,-0.525646 1.47182,-0.315384 2.155167,-0.367954 0.157693,0.788478 0.262817,1.576955 0.315385,2.365416 -0.946164,-0.367955 -2.891072,-0.578217 -2.470552,-1.997462 z"
     id="path24" />
  <path
     fill="#fe7f2b"
     stroke="#fe7f2b"
     stroke-width="0.0492796"
     opacity="1"
     d="m 48.772562,29.730644 c 3.994939,-0.630768 8.095003,-0.998721 12.14251,-0.525645 1.629512,0.315384 3.626976,0.735908 4.41546,2.312863 0.473076,2.102601 -0.157692,4.310325 0.473076,6.412926 0.998744,0.210262 2.050043,0.420523 3.101343,0.578215 -1.26156,2.050032 -3.837247,2.102602 -5.939847,2.523108 -5.624451,0.788478 -11.143778,1.997479 -16.76823,2.523126 -1.944896,0.157692 -4.520583,0.105066 -5.571883,-1.89234 -0.84104,-1.419246 -1.944908,-2.680817 -2.52312,-4.205203 -0.21026,-1.787199 0.946176,-3.521847 2.417996,-4.468017 2.470552,-1.682077 5.309055,-2.785939 8.252695,-3.259033 z"
     id="path26" />
  <path
     fill="#fdfdfd"
     stroke="#fdfdfd"
     stroke-width="0.0492796"
     opacity="1"
     d="m 24.329849,31.990938 c 0.893608,-0.157692 2.1026,-0.315384 2.73338,0.578216 1.629512,1.682077 2.207724,4.468017 1.156424,6.570618 -0.788472,1.629525 -3.048764,2.050032 -4.520584,0.99874 -1.629512,-1.156432 -2.733379,-3.101341 -2.838504,-5.151373 0.157692,-1.73463 1.839772,-2.785939 3.469284,-2.996201 z"
     id="path28" />
  <path
     fill="#fcfcfc"
     stroke="#fcfcfc"
     stroke-width="0.0492796"
     opacity="1"
     d="m 131.14187,33.935847 c -0.26282,-1.576955 1.62952,-0.94617 2.52313,-0.683338 2.8385,1.314124 5.78213,2.891062 7.62193,5.466757 -2.62826,1.682077 -6.25524,2.207724 -9.14632,0.735907 -1.26156,-0.630786 -2.47055,-1.366693 -3.67954,-2.102601 0,-0.367954 -0.10509,-1.051309 -0.15769,-1.366693 2.78596,-0.315384 4.94111,1.787217 7.3591,2.733387 -1.15642,-1.944909 -3.20647,-2.996219 -4.52059,-4.783419 z"
     id="path30" />
  <path
     fill="#fdfdfd"
     stroke="#fdfdfd"
     stroke-width="0.0492796"
     opacity="1"
     d="m 115.63522,37.667957 c 3.41671,0.893599 7.30652,1.524385 9.67194,4.415464 0.73591,1.156432 0.94617,2.785939 0.36795,4.047493 -1.52438,1.682077 -4.04748,1.051309 -6.04497,0.683356 -1.36667,-0.367955 -3.15389,-0.683356 -3.57441,-2.260294 -0.47307,-2.260293 -0.36796,-4.625727 -0.42051,-6.886019 z"
     id="path32" />
  <path
     fill="#fbfbfb"
     stroke="#fbfbfb"
     stroke-width="0.0492796"
     opacity="1"
     d="m 12.345031,40.033389 c 2.050043,-1.156431 4.993683,-0.578216 6.518059,1.208985 -1.314116,0.946168 -2.891072,1.839769 -4.62572,1.471815 -1.261559,-0.105067 -2.470551,-1.366676 -1.892339,-2.6808 z"
     id="path34" />
  <path
     fill="#fefefe"
     stroke="#fefefe"
     stroke-width="0.0492796"
     opacity="1"
     d="m 59.863773,45.027052 c 2.838503,-1.156431 5.939835,-0.841029 8.936043,-0.94617 3.101343,0 6.518059,-0.210261 9.19887,1.682078 1.314128,0.893618 1.0513,2.575695 0.788484,3.942371 -0.42052,1.471837 0.262816,2.943646 0.525644,4.362897 0,0.315396 0,0.946165 0,1.261572 -2.838504,1.051288 -5.677019,2.102576 -8.515523,3.259012 -2.1026,0.367952 -4.310335,0.683359 -6.412935,0.21026 -1.734647,-0.735904 -2.680812,-2.575676 -4.257756,-3.574419 -2.102599,-1.156425 -2.155167,-3.889793 -2.155167,-6.044968 -0.05255,-1.576939 0.262828,-3.521847 1.89234,-4.152633 z"
     id="path36" />
  <path
     fill="#fdfefc"
     stroke="#fdfefc"
     stroke-width="0.0492796"
     opacity="1"
     d="m 102.17858,49.968165 c 2.05004,-1.839772 4.99366,-2.207726 7.62191,-1.997464 2.73339,0.262814 5.57189,0.78846 7.98989,2.155156 0.8936,0.42052 1.31412,1.366695 1.78721,2.207724 -0.63079,1.629523 -1.68208,3.153911 -3.20646,3.994939 -1.20901,0.788472 -2.78596,0.63078 -3.94237,1.419264 -3.67956,-1.366696 -7.04372,-3.36416 -10.8284,-4.362892 0.0525,-1.156435 -0.47307,-2.628255 0.57822,-3.416727 z"
     id="path38" />
  <path
     fill="#f68232"
     stroke="#f68232"
     stroke-width="0.0492796"
     opacity="1"
     d="m 44.672498,48.811731 c 1.47182,-0.157692 3.048764,-0.210262 4.362892,0.630785 1.576944,0.893601 1.944896,2.891065 3.416716,3.889797 0.893607,0.315384 1.892339,0.420531 2.785947,0.630791 -2.680812,2.050032 -6.255231,2.523108 -9.566823,2.155156 -0.735915,-0.210248 -2.365427,-0.525644 -1.734647,-1.629512 1.0513,-1.103856 2.575687,-1.314127 3.889803,-1.944907 -1.103856,-1.26156 -3.469283,-1.629512 -3.153888,-3.73211 z"
     id="path40" />
  <path
     fill="#fdfdfd"
     stroke="#fdfdfd"
     stroke-width="0.0492796"
     opacity="1"
     d="m 27.694009,49.705331 c 1.629511,-1.524385 3.994939,-0.210262 5.571883,0.841046 1.944908,1.524387 4.205199,3.784679 3.57442,6.465491 -2.73338,0.315384 -5.203932,-1.156424 -7.201396,-2.838504 -1.209003,-1.103856 -2.470563,-2.733391 -1.944907,-4.468033 z"
     id="path42" />
  <path
     fill="#fcfcfb"
     stroke="#fcfcfb"
     stroke-width="0.0492796"
     opacity="1"
     d="m 140.39331,50.388685 c 3.83725,0.105089 7.46423,1.682079 10.88096,3.311591 -0.36795,1.576956 -1.62952,2.996196 -3.10134,3.626976 -2.9962,-0.525644 -6.1501,-1.997452 -7.72705,-4.730843 -0.52565,-0.683337 -0.21026,-1.47182 -0.0527,-2.207724 z"
     id="path44" />
  <path
     fill="#ff7f2b"
     stroke="#ff7f2b"
     stroke-width="0.0492796"
     opacity="1"
     d="m 80.416682,54.909268 c 3.626976,-0.998732 7.201395,-2.312859 10.986073,-2.470551 3.416732,-0.10509 6.938582,-0.157693 10.197605,0.946175 3.78468,0.998732 7.14884,2.996196 10.8284,4.362892 3.36416,1.734647 6.99114,4.625708 7.04369,8.778339 -0.0527,2.260293 0.52565,4.835992 -0.68334,6.886024 -2.36543,1.366695 -5.30907,1.051288 -7.93731,1.156424 -6.57062,-0.157692 -13.036113,1.314128 -19.501612,2.417995 -4.993671,0.841029 -9.829638,2.260292 -14.82331,3.048764 -1.156435,-1.944907 -1.629523,-4.257767 -3.206467,-5.939847 -2.31286,-2.838515 -6.044983,-4.047496 -8.252707,-6.991147 -0.946176,-1.261549 -1.26156,-3.206457 -0.21026,-4.520585 1.47182,-1.944907 3.784679,-2.996195 5.939847,-3.994939 2.838504,-1.156436 5.677019,-2.207724 8.515523,-3.259012 0,-0.315407 0,-0.946176 0,-1.261572 0.367952,0.315396 0.735916,0.578212 1.103868,0.84104 z"
     id="path46" />
  <path
     fill="#fcfcfc"
     stroke="#fcfcfc"
     stroke-width="0.0492796"
     opacity="1"
     d="m 23.173425,56.74904 c 1.734636,-0.735904 3.679544,-0.157692 5.151364,0.841052 1.103867,1.103856 0,3.364148 -1.576956,3.153888 -1.892328,-0.262828 -3.732112,-1.997476 -3.574408,-3.99494 z"
     id="path48" />
  <path
     fill="#fe7f2b"
     stroke="#fe7f2b"
     stroke-width="0.0492796"
     opacity="1"
     d="m 135.45222,59.009332 c 2.89106,-0.946164 5.9924,-0.788472 9.04116,-1.051288 17.50414,0 35.06084,6.097527 48.6226,17.188751 3.67956,2.943628 7.93731,5.046227 11.77456,7.779595 4.41545,2.996208 8.51552,6.465492 12.1425,10.407863 0.68335,0.788484 1.26157,1.73465 1.73465,2.68082 -1.83978,-0.57821 -3.52185,-1.524384 -5.30907,-2.260288 -7.20141,-2.94364 -14.66562,-5.098808 -22.07729,-7.516791 -8.51553,-3.153888 -17.50413,-4.730844 -26.3876,-6.570616 -9.88224,-2.050043 -19.92212,-2.943651 -29.96204,-4.047507 -2.94364,-0.367952 -5.9924,-0.578224 -8.88348,-1.26156 -0.7359,-2.943651 0.47308,-6.255231 2.8385,-8.095004 1.41926,-0.946164 3.20647,-1.209004 4.67829,-2.155168 1.6295,-1.26156 -0.57822,-4.415471 1.78722,-5.098807 z"
     id="path50" />
  <path
     fill="#fbfbfb"
     stroke="#fbfbfb"
     stroke-width="0.0492796"
     opacity="1"
     d="m 44.987883,60.008076 c 1.839771,-0.21026 3.732111,0.420519 4.941103,1.839771 -1.734636,1.261549 -4.625708,0.367952 -4.941103,-1.839771 z"
     id="path52" />
  <path
     fill="#fcfcfc"
     stroke="#fcfcfc"
     stroke-width="0.0492796"
     opacity="1"
     d="m 32.740248,63.582495 c 0.525644,-1.68208 2.943639,-1.787216 4.310324,-1.051311 1.314127,0.473087 1.734647,1.892339 2.155167,3.048775 -1.314128,0.788472 -2.943639,1.103856 -4.468027,0.735904 -1.156424,-0.262816 -2.207724,-1.47182 -1.997464,-2.733368 z"
     id="path54" />
  <path
     fill="#fbfbfb"
     stroke="#fbfbfb"
     stroke-width="0.0492796"
     opacity="1"
     d="m 25.854237,65.106883 c 1.26156,-0.05266 2.523119,0.315384 3.259024,1.41924 0.105089,0.735905 -0.157693,1.366697 -0.788472,1.787217 -1.68208,0.157692 -2.680812,-1.734649 -2.470552,-3.206457 z"
     id="path56" />
  <path
     fill="#fdfdfd"
     stroke="#fdfdfd"
     stroke-width="0.0492796"
     opacity="1"
     d="m 46.196874,69.101823 c 2.050032,-2.628256 5.729588,-2.102599 8.462967,-0.946175 1.839772,0.78846 4.2052,1.629512 4.941104,3.626975 -0.10509,2.680812 -3.469284,5.203943 -5.939836,3.574408 -2.785947,-1.682068 -5.256499,-3.889792 -7.464235,-6.255208 z"
     id="path58" />
  <path
     fill="#fcfcfc"
     stroke="#fcfcfc"
     stroke-width="0.0492796"
     opacity="1"
     d="m 38.417267,73.937791 c 4.310324,-1.26156 7.832175,3.101343 8.042435,7.043715 -3.206467,-0.210272 -6.150095,-1.997487 -7.779619,-4.783423 -0.262816,-0.735904 -0.21026,-1.47182 -0.262816,-2.260292 z"
     id="path60" />
  <path
     fill="#fefefe"
     stroke="#fefefe"
     stroke-width="0.0492796"
     opacity="1"
     d="m 35.053108,77.617335 c 1.944896,1.314139 3.994939,2.838504 4.835979,5.098795 -2.94364,0.315408 -3.942383,-2.943628 -4.835979,-5.098795 z"
     id="path62" />
  <path
     fill="#fcfcfc"
     stroke="#fcfcfc"
     stroke-width="0.0492796"
     opacity="1"
     d="m 67.380564,80.350714 c 2.628255,-0.893596 4.783411,2.417984 3.521851,4.625708 -0.525644,1.787216 -3.101331,2.628267 -4.468027,1.209004 -0.998732,-1.051289 -1.944896,-2.365416 -2.1026,-3.889804 0.42052,-1.261571 1.89234,-1.68208 3.048776,-1.944908 z"
     id="path64" />
  <path
     fill="#fcfefe"
     stroke="#fcfefe"
     stroke-width="0.0492796"
     opacity="1"
     d="m 120.26093,83.452058 c 3.25904,-0.946176 6.67575,-0.89362 10.03991,-0.946176 3.46927,0.05266 7.04372,-0.05266 10.3553,1.0513 0,0.525644 -0.0527,1.051288 -0.0527,1.576955 -6.09753,2.050021 -12.77329,1.997453 -18.7657,-0.105089 -0.78847,-0.21026 -1.36669,-0.788484 -1.57695,-1.576944 z"
     id="path66" />
  <path
     fill="#fdfdfd"
     stroke="#fdfdfd"
     stroke-width="0.0492796"
     opacity="1"
     d="m 52.241846,83.714874 c 2.050043,-0.630768 4.520595,0.367952 5.309067,2.417984 1.103868,2.050043 -0.84104,4.468027 -2.94364,4.678287 -3.311591,0.157692 -5.519315,-5.466748 -2.365427,-7.096271 z"
     id="path68" />
  <path
     fill="#fcfcfd"
     stroke="#fcfcfd"
     stroke-width="0.0492796"
     opacity="1"
     d="m 148.59345,85.870042 c 1.0513,-0.68336 2.31287,-0.841052 3.57442,-0.788472 0.99874,1.892328 1.15643,4.047484 0.89359,6.150083 -0.21026,1.261572 -0.84103,2.733392 -2.26029,2.838516 -2.41798,-0.683336 -3.83722,-3.1539 -4.41545,-5.466759 -0.21026,-1.419252 1.209,-2.1026 2.20773,-2.733368 z"
     id="path70" />
  <path
     fill="#fdfdfd"
     stroke="#fdfdfd"
     stroke-width="0.0492796"
     opacity="1"
     d="m 100.12854,85.764906 c 1.99748,-0.998721 4.5206,-0.630769 6.41294,0.473088 -0.52565,3.521851 -4.62572,5.992403 -8.042453,5.151375 -0.42052,-1.944908 0.21026,-4.152632 1.629513,-5.624463 z"
     id="path72" />
  <path
     fill="#fdfdfd"
     stroke="#fdfdfd"
     stroke-width="0.0492796"
     opacity="1"
     d="m 86.934741,86.237994 c 1.156423,-0.315396 2.838503,-0.998732 3.679542,0.262816 0.262828,3.364171 -3.153898,6.412923 -6.46549,5.624463 -1.208992,-0.10509 -2.050031,-1.629524 -1.366695,-2.680812 0.998743,-1.47182 2.523119,-2.523131 4.152643,-3.206467 z"
     id="path74" />
  <path
     fill="#fcfcfb"
     stroke="#fcfcfb"
     stroke-width="0.0492796"
     opacity="1"
     d="m 75.63327,89.076497 c 1.156424,-1.261571 2.73338,-2.050031 4.41546,-2.312859 -1.0513,1.419263 -2.680824,2.155167 -4.41546,2.312859 z"
     id="path76" />
  <path
     fill="#fcfcfc"
     stroke="#fcfcfc"
     stroke-width="0.0492796"
     opacity="1"
     d="m 45.408402,88.445717 c 1.314128,0.42052 1.839772,1.68208 1.997476,2.943652 -1.419263,-0.26284 -1.629523,-1.787216 -1.997476,-2.943652 z"
     id="path78" />
  <path
     fill="#fe7f2b"
     stroke="#fe7f2b"
     stroke-width="0.0492796"
     opacity="1"
     d="m 117.36985,88.971362 c 1.94491,-0.315385 3.94237,-0.262817 5.88728,0.05266 7.51679,1.419263 14.61307,4.468016 21.60422,7.621931 5.20392,2.31284 10.03991,5.256477 14.77074,8.357817 2.8385,1.9449 5.72959,3.94237 7.83219,6.67574 -0.21026,0.36797 -0.63079,1.0513 -0.84105,1.3667 -7.20139,0.0527 -14.61306,-0.42052 -21.39393,-3.10134 -11.77456,-3.20646 -23.96963,-4.36289 -35.95446,-6.25523 -2.57567,-0.52565 -5.51932,-0.73591 -7.30652,-2.94363 0.68334,-1.156437 1.52438,-2.260287 2.73337,-2.943627 3.20646,-2.05005 6.72832,-3.732133 9.4617,-6.412934 0.99873,-0.893619 1.89234,-2.050043 3.20646,-2.417995 z"
     id="path80" />
  <path
     fill="#fdfdfb"
     stroke="#fdfdfb"
     stroke-width="0.0492796"
     opacity="1"
     d="m 177.24136,90.180365 c 1.94491,-1.103868 4.2052,-0.42052 6.3078,-0.05266 2.20772,0.525644 4.52058,1.103868 6.41292,2.417984 0.68335,0.946175 -0.10509,2.628254 -1.31411,2.575694 -2.36544,-0.0527 -4.62573,-0.946159 -6.78089,-1.734643 -1.73465,-0.735904 -3.73212,-1.419263 -4.62572,-3.206467 z"
     id="path82" />
  <path
     fill="#fe7f2b"
     stroke="#fe7f2b"
     stroke-width="0.0492796"
     opacity="1"
     d="m 163.57447,90.390625 c 1.47182,0 2.94363,0.05266 4.31033,0.578212 5.9924,2.102611 12.08994,4.205186 17.97721,6.780886 4.6783,2.20772 9.4617,4.573147 13.29894,8.200127 2.94363,2.73338 5.30907,5.93984 7.46421,9.304 0.52567,0.99875 1.3667,2.05005 1.15644,3.25904 -1.31413,1.94489 -3.94237,1.10387 -5.88726,0.78848 -6.99114,-1.52439 -13.77204,-3.99495 -20.34266,-6.7809 -6.20266,-2.78594 -12.61558,-6.20267 -16.40026,-12.03738 -1.99747,-2.943627 -2.418,-6.728305 -1.57695,-10.092465 z"
     id="path84" />
  <path
     fill="#fcfcfc"
     stroke="#fcfcfc"
     stroke-width="0.0492796"
     opacity="1"
     d="m 60.021465,95.331743 c 1.734647,-1.787218 4.152631,-3.048778 6.675751,-2.838518 0.893608,1.997464 -0.788472,3.732108 -1.944908,5.203928 -1.997464,2.20773 -3.784668,4.678277 -6.097527,6.518057 -0.735916,0.68334 -2.050044,0.73592 -2.52312,-0.26283 -1.103868,-1.73464 -2.417995,-3.73211 -1.997476,-5.834707 1.839784,0.0527 2.680812,1.78721 3.889816,2.891087 1.734636,0.68333 3.574419,-1.156437 3.153899,-2.891087 -0.315395,-0.94616 -0.788483,-1.89234 -1.156435,-2.78593 z"
     id="path86" />
  <path
     fill="#fc802c"
     stroke="#fc802c"
     stroke-width="0.0492796"
     opacity="1"
     d="m 198.16221,95.068903 c 1.94491,-0.157694 3.88983,0.10509 5.67702,0.78848 6.20266,2.15516 12.24763,4.783397 17.92465,8.094997 2.05003,1.26155 4.15263,2.94363 4.94112,5.36164 0.47309,2.52311 0,5.09879 -0.8936,7.5168 -0.68336,1.83976 -2.10261,3.57441 -4.10006,4.04748 -1.10388,0 -2.31287,-0.63076 -2.62827,-1.73464 -1.20899,-3.41671 0.99873,-6.72832 0.73593,-10.14505 -3.4693,1.05131 -3.25904,6.7809 -7.25398,6.83347 -1.10386,-1.89236 -1.73464,-3.94239 -2.78594,-5.78216 -2.20774,-3.62698 -5.25649,-6.62318 -8.35784,-9.51426 -1.47181,-1.576957 -3.36415,-3.153887 -3.25903,-5.466757 z"
     id="path88" />
  <path
     fill="#fcfcfc"
     stroke="#fcfcfc"
     stroke-width="0.0492796"
     opacity="1"
     d="m 69.851115,98.065113 c 2.207736,-1.89234 5.2565,-2.89109 8.095015,-2.31286 0.262816,0.84104 0.788472,1.78721 0.05254,2.57568 -1.944908,2.628247 -5.729587,4.941117 -8.988611,3.206467 0,-1.209 -0.157692,-2.575697 0.84104,-3.469287 z"
     id="path90" />
  <path
     fill="#fcfdfd"
     stroke="#fcfdfd"
     stroke-width="0.0492796"
     opacity="1"
     d="m 89.562984,97.276623 c 0.998732,-0.7359 2.470551,-0.52564 3.416727,0.26284 1.366686,1.52438 0.367952,4.310317 -1.68208,4.730837 -1.366695,0.47308 -3.469294,-0.52564 -3.416726,-2.15516 -0.10509,-1.208987 0.683347,-2.260287 1.682079,-2.838517 z"
     id="path92" />
  <path
     fill="#fefefe"
     stroke="#fefefe"
     stroke-width="0.0492796"
     opacity="1"
     d="m 50.980286,102.69082 c 1.944908,1.26156 3.942371,2.83852 4.835979,5.09881 -2.838504,0.31539 -3.942371,-2.99622 -4.835979,-5.09881 z"
     id="path94" />
  <path
     fill="#fdfdfd"
     stroke="#fdfdfd"
     stroke-width="0.0492796"
     opacity="1"
     d="m 72.637063,104.47803 c 3.206467,-0.36795 5.361623,4.25778 3.469284,6.67576 -0.63078,1.10386 -2.207724,1.41924 -3.206456,0.68334 -1.156436,-1.52439 -1.47182,-3.52185 -1.576956,-5.36163 0.157692,-0.73591 0.367964,-1.89234 1.314128,-1.99747 z"
     id="path96" />
  <path
     fill="#fe7f2b"
     stroke="#fe7f2b"
     stroke-width="0.0492796"
     opacity="1"
     d="m 87.775781,107.5268 c 0.893595,-1.89234 3.364147,-1.83977 5.20393,-1.83977 9.934779,1.15644 19.816999,2.78594 29.646649,4.46802 4.52059,0.7359 8.93604,2.1026 13.45662,2.99619 4.57316,0.99874 9.19886,1.83977 13.56177,3.57443 -0.0527,0.68336 -0.0527,1.3667 -0.21027,2.05003 -1.15642,1.47184 -2.9962,2.15518 -4.7834,2.68083 -7.72706,2.1026 -15.87463,1.73465 -23.81194,1.15642 -9.304,-0.31538 -18.55543,-0.21026 -27.859429,-0.31538 -3.574419,-0.42052 -7.359098,0.26281 -10.828382,-0.94617 1.261549,-4.83599 3.259024,-9.40914 5.624452,-13.8246 z"
     id="path98" />
  <path
     fill="#fbfbfb"
     stroke="#fbfbfb"
     stroke-width="0.0492796"
     opacity="1"
     d="m 237.7962,106.79089 c 2.2603,-1.15643 5.0988,-1.6295 7.51679,-0.57821 -0.10509,0.42052 -0.26282,0.89359 -0.36795,1.36669 -1.57695,0.63077 -3.3116,0.0527 -4.88854,0 -0.10509,0.8936 0.21026,1.94489 -0.26282,2.73337 -1.47183,0.42052 -3.52186,1.209 -4.73085,-0.10509 0.10509,-1.62952 1.41925,-2.73339 2.73337,-3.41673 z"
     id="path100" />
  <path
     fill="#fcfcfc"
     stroke="#fcfcfc"
     stroke-width="0.0492796"
     opacity="1"
     d="m 252.82979,107.10627 c 1.41925,-0.78847 2.94364,-0.15769 3.99493,0.94618 -0.47308,0.99874 -1.57695,2.36542 -2.83852,1.52439 -1.15641,-0.31539 -1.15641,-1.52439 -1.15641,-2.47057 z"
     id="path102" />
  <path
     fill="#fdfdfd"
     stroke="#fdfdfd"
     stroke-width="0.0492796"
     opacity="1"
     d="m 61.59842,108.57809 c 2.417984,-0.42051 3.942372,2.62827 4.205188,4.73084 0.315396,2.62827 -3.837236,4.36292 -5.046228,1.8398 -0.893607,-1.99749 -1.209003,-5.15138 0.84104,-6.57064 z"
     id="path104" />
  <path
     fill="#fcfcfc"
     stroke="#fcfcfc"
     stroke-width="0.0492796"
     opacity="1"
     d="m 274.32886,108.99861 c 1.209,0.10509 1.31413,1.3667 1.57695,2.26029 0.47309,2.15518 -0.15769,4.31035 -0.57823,6.36039 -2.62824,-1.83978 -2.94362,-6.09755 -0.99872,-8.62068 z"
     id="path106" />
  <path
     fill="#fafafa"
     stroke="#fafafa"
     stroke-width="0.0492796"
     opacity="1"
     d="m 261.45045,113.93972 c -0.15769,-1.41925 -0.10509,-3.36415 1.78719,-3.36415 0.42053,0.99874 1.20901,2.05003 0.73593,3.20646 -0.52567,0.94617 -1.73465,0.42052 -2.52312,0.15769 z"
     id="path108" />
  <path
     fill="#fcfcfc"
     stroke="#fcfcfc"
     stroke-width="0.0492796"
     opacity="1"
     d="m 249.41307,116.62055 c -0.63079,-1.78723 0.31539,-4.10008 2.47056,-3.57442 0.31538,1.36668 0.10509,2.73338 -0.78849,3.8898 -0.57821,-0.10509 -1.15642,-0.21026 -1.68207,-0.31538 z"
     id="path110" />
  <path
     fill="#fdfdfd"
     stroke="#fdfdfd"
     stroke-width="0.0492796"
     opacity="1"
     d="m 239.47828,121.45653 c -0.52565,-1.62951 -0.26282,-4.15263 1.73464,-4.46802 2.5757,0.63078 3.31161,4.15263 1.89234,6.20267 -1.47182,0.10508 -2.94362,-0.36797 -3.62698,-1.73465 z"
     id="path112" />
  <path
     fill="#ff7f2b"
     stroke="#ff7f2b"
     stroke-width="0.0492796"
     opacity="1"
     d="m 164.15267,118.40775 c 8.62067,-0.99872 16.87337,2.31286 25.07351,4.25777 6.41292,1.68208 12.8784,2.78595 19.23878,4.52059 0.78847,0.36796 2.31285,0.57822 2.05003,1.68208 -0.42053,0.31539 -0.84105,0.57822 -1.31413,0.78848 -9.98734,4.67827 -20.71059,7.62191 -31.27615,10.77582 -9.72453,2.6808 -19.55418,5.46675 -29.75178,5.30906 -6.99115,0 -14.03484,0.31538 -21.02598,-0.84104 -1.78722,-0.36795 -3.83726,-0.84105 -4.94111,-2.47056 -0.36795,-1.31412 -0.36795,-2.94363 0.52564,-4.04749 1.15644,-1.57695 2.99621,-2.31287 4.67828,-3.15391 3.57442,-1.57694 6.57063,-4.20519 10.19761,-5.57188 4.46802,-1.94491 9.40912,-2.2603 14.13998,-2.9962 1.36669,-0.31541 2.94365,-0.52567 3.83724,-1.73465 0.84103,-1.26156 1.15644,-2.89108 2.31286,-3.99494 1.62952,-1.68208 4.0475,-2.15518 6.25522,-2.52313 z"
     id="path114" />
  <path
     fill="#fcfcfc"
     stroke="#fcfcfc"
     stroke-width="0.0492796"
     opacity="1"
     d="m 264.65691,119.03854 c 0.0527,-1.26156 1.68207,-1.47182 2.31285,-0.47307 0.94618,1.31411 2.68083,1.89231 3.36416,3.4167 1.05129,1.89234 2.2603,3.67956 3.52186,5.4142 -2.41799,-1.52438 -4.36291,-3.67955 -6.46551,-5.57189 -0.94616,-0.84103 -1.99746,-1.68208 -2.73336,-2.78594 z"
     id="path116" />
  <path
     fill="#fcfcfc"
     stroke="#fcfcfc"
     stroke-width="0.0492796"
     opacity="1"
     d="m 270.01854,119.72188 c 0.94618,-0.78846 1.89234,-1.52439 2.89106,-2.15516 0.73592,1.68208 0.73592,3.52186 0.84105,5.30907 -0.68336,0.0527 -1.36669,0.0527 -2.05003,0.0527 -0.57821,-1.05129 -1.15644,-2.15514 -1.68208,-3.20645 z"
     id="path118" />
  <path
     fill="#fafbfd"
     stroke="#fafbfd"
     stroke-width="0.0492796"
     opacity="1"
     d="m 228.38708,125.34634 c -0.15769,-2.20774 -0.42053,-4.78342 1.20899,-6.51807 1.41925,-0.31538 2.05003,1.31413 2.10261,2.47057 0.15769,1.9449 -1.26157,3.94237 -3.3116,4.0475 z"
     id="path120" />
  <path
     fill="#fdfdfd"
     stroke="#fdfdfd"
     stroke-width="0.0492796"
     opacity="1"
     d="m 60.1266,119.93214 c 1.47182,-0.84103 3.889804,-0.42051 4.205188,1.47181 0.578224,2.89108 -1.839772,5.5719 -4.468015,6.36038 -1.47182,0.31538 -1.787216,-1.3667 -2.050032,-2.41799 -0.525656,-1.99747 0.105089,-4.73084 2.312859,-5.4142 z"
     id="path122" />
  <path
     fill="#fcfcfc"
     stroke="#fcfcfc"
     stroke-width="0.0492796"
     opacity="1"
     d="m 72.742199,123.1386 c -1.103868,-1.57694 0.262816,-4.52059 2.260291,-3.41672 0.63078,1.10388 0.157693,2.52312 -0.578212,3.4693 -0.578223,0 -1.156435,-0.0527 -1.682079,-0.0527 z"
     id="path124" />
  <path
     fill="#fdfcfc"
     stroke="#fdfcfc"
     stroke-width="0.0492796"
     opacity="1"
     d="m 214.66762,123.87451 c 3.25904,-1.20899 7.30652,2.20774 6.72831,5.62446 -0.8936,2.10259 -3.78468,1.52439 -5.36161,0.63077 -1.68208,-1.57693 -1.47183,-4.15263 -1.3667,-6.25523 z"
     id="path126" />
  <path
     fill="#fe7f2b"
     stroke="#fe7f2b"
     stroke-width="0.0492796"
     opacity="1"
     d="m 71.322935,127.97459 c 13.772023,-2.20774 27.806872,-2.15517 41.631465,-1.26157 4.41545,0.21026 8.77834,0.89361 13.14124,1.10387 1.3667,0 2.73338,0.21025 4.04751,0.63077 -9.04117,4.57317 -18.34517,8.88349 -28.38509,10.56557 -8.147573,1.31412 -16.032323,3.7321 -23.706806,6.62318 -1.734647,0.47309 -4.257755,1.41927 -5.571883,-0.26283 -1.839772,-2.20772 -2.260292,-5.15136 -2.680812,-7.88474 -0.42052,-3.25902 -0.262828,-6.67574 1.524376,-9.51425 z"
     id="path128" />
  <path
     fill="#fdfdfd"
     stroke="#fdfdfd"
     stroke-width="0.0492796"
     opacity="1"
     d="m 263.921,127.60663 c 1.05129,-1.52438 3.20646,-1.10387 4.78341,-0.68335 3.99493,1.209 7.72705,3.78467 9.72452,7.51679 0.84105,1.41926 0.57821,3.15391 0.42052,4.78342 -1.26157,-1.73465 -2.94364,-3.1539 -3.7321,-5.20393 -0.84105,-1.89234 -3.4693,-2.36543 -5.15138,-1.36669 -1.78721,0.73591 -2.47055,2.62825 -2.89108,4.31033 -2.20772,0.7359 -4.41545,1.52437 -6.67574,2.15517 1.41925,-3.73213 0.78846,-8.25272 3.52185,-11.51174 z"
     id="path130" />
  <path
     fill="#fcfcfc"
     stroke="#fcfcfc"
     stroke-width="0.0492796"
     opacity="1"
     d="m 246.88994,128.97331 c 1.3667,1.47184 2.36544,3.52187 1.94491,5.57189 -0.57821,0.0527 -1.15642,0.10509 -1.73465,0.15769 -0.78847,-1.83976 -0.52564,-3.83724 -0.21026,-5.72958 z"
     id="path132" />
  <path
     fill="#fcfcfc"
     stroke="#fcfcfc"
     stroke-width="0.0492796"
     opacity="1"
     d="m 227.70374,131.7067 c 0.10509,-0.8936 -0.21027,-2.15517 0.8936,-2.47055 2.26029,1.4718 4.46801,4.73084 2.78593,7.30652 -0.42052,1.05131 -1.73464,0.63079 -2.62824,0.73591 -0.94618,-1.68208 -1.15644,-3.67954 -1.05129,-5.57188 z"
     id="path134" />
  <path
     fill="#fcfcfd"
     stroke="#fcfcfd"
     stroke-width="0.0492796"
     opacity="1"
     d="m 61.59842,130.65539 c 0.473076,-0.78846 1.629512,-0.10509 1.944896,0.52566 1.156436,1.52439 1.103868,3.62697 0.683348,5.46676 -0.367952,0.68334 -0.525656,2.05004 -1.576955,1.73465 -1.314117,-2.26031 -2.470552,-5.36163 -1.051289,-7.72707 z"
     id="path136" />
  <path
     fill="#fcfcfc"
     stroke="#fcfcfc"
     stroke-width="0.0492796"
     opacity="1"
     d="m 268.1262,136.49012 c 0.21025,-1.99749 2.05003,-3.62699 4.10006,-3.52186 1.20898,0.10509 2.15516,1.0513 2.62825,2.15517 -2.41799,-0.52565 -4.46802,0.78847 -6.72831,1.36669 z"
     id="path138" />
  <path
     fill="#fdfdfd"
     stroke="#fdfdfd"
     stroke-width="0.0492796"
     opacity="1"
     d="m 52.241846,139.59144 c 0.157692,-1.7872 0.42052,-4.62571 2.733379,-4.73085 1.839772,2.05003 1.524388,4.88854 1.524388,7.41166 0,1.26156 -0.21026,2.47057 -0.735904,3.62699 -2.785948,-0.7359 -3.837247,-3.73212 -3.521863,-6.3078 z"
     id="path140" />
  <path
     fill="#fdfdfd"
     stroke="#fdfdfd"
     stroke-width="0.0492796"
     opacity="1"
     d="m 237.84878,136.27985 c 0.89359,-1.41926 2.73338,-1.36668 4.15263,-1.0513 0.68333,2.15517 -1.68208,4.2052 -3.73211,3.67956 -0.73591,-0.6308 -0.6308,-1.78722 -0.42052,-2.62826 z"
     id="path142" />
  <path
     fill="#fcfcfc"
     stroke="#fcfcfc"
     stroke-width="0.0492796"
     opacity="1"
     d="m 214.08941,136.06959 c 2.68081,-0.36795 3.7321,2.78595 3.31158,4.94111 -1.20898,0.1577 -2.6808,0.26282 -3.46927,-0.89361 -1.05131,-1.20898 -0.52566,-2.83851 0.15769,-4.0475 z"
     id="path144" />
  <path
     fill="#fcfcfc"
     stroke="#fcfcfc"
     stroke-width="0.0492796"
     opacity="1"
     d="m 271.96344,137.48884 c 0.89362,-0.63077 1.78721,-1.26156 2.8385,-1.57694 -0.15769,1.36668 -1.52439,2.26029 -2.8385,1.57694 z"
     id="path146" />
  <path
     fill="#fcfcfc"
     stroke="#fcfcfc"
     stroke-width="0.0492796"
     opacity="1"
     d="m 268.1262,137.33115 c 0.84103,-0.26284 1.68208,-0.47308 2.47054,-0.73592 0.63078,0.73592 1.10388,1.83978 2.20774,1.83978 1.36669,0.3154 2.20772,-0.99872 3.04877,-1.7872 0.8936,1.15643 1.68208,2.36542 2.47055,3.57441 -2.41799,4.7834 -10.40786,2.20773 -10.1976,-2.89107 z"
     id="path148" />
  <path
     fill="#fe7f2b"
     stroke="#fe7f2b"
     stroke-width="0.0492796"
     opacity="1"
     d="m 206.20467,139.22349 c 1.05129,-0.26284 2.15514,-0.36795 3.25901,-0.10509 -0.10509,1.36668 0.26283,3.10133 -0.78846,4.20519 -2.26029,2.52313 -5.15138,4.3629 -7.83219,6.30781 -13.56176,9.04117 -27.85943,16.92591 -41.52632,25.8094 -3.99494,2.57568 -7.30654,5.9924 -11.03865,8.93604 -4.73084,3.83723 -9.40914,7.77962 -13.82459,11.93226 -3.73211,3.36415 -7.72705,6.46547 -12.24763,8.72577 -1.73465,0.84104 -3.62699,1.62953 -5.5719,1.41927 -1.99746,-0.21028 -2.94362,-2.31288 -3.36416,-3.99496 -0.63078,-6.09753 0.26284,-12.82584 4.41547,-17.66181 7.09626,-8.25272 18.02978,-11.5643 26.22992,-18.39775 4.57314,-3.94238 9.56682,-7.41167 14.71819,-10.61813 4.20519,-2.47056 8.62066,-4.88854 13.45662,-5.9924 11.5643,-2.89108 22.49781,-7.77962 34.11469,-10.56557 z"
     id="path150" />
  <path
     fill="#fdfdfd"
     stroke="#fdfdfd"
     stroke-width="0.0492796"
     opacity="1"
     d="m 223.02545,140.11709 c 0.5782,-0.63077 1.31413,-1.78721 2.20773,-0.8936 0.0527,0.94616 -0.0527,1.89234 -0.52565,2.73338 -1.10388,0.21025 -1.209,-1.20899 -1.68208,-1.83978 z"
     id="path152" />
  <path
     fill="#fdfdfd"
     stroke="#fdfdfd"
     stroke-width="0.0492796"
     opacity="1"
     d="m 229.28067,144.95308 c 2.20774,-1.31413 5.25651,3.31158 2.47056,4.31032 -1.52439,-0.84105 -2.62825,-2.52313 -2.47056,-4.31032 z"
     id="path154" />
  <path
     fill="#fe7f2b"
     stroke="#fe7f2b"
     stroke-width="0.0492796"
     opacity="1"
     d="m 103.12475,145.53129 c 3.94237,-0.36795 7.93731,-0.42052 11.87968,0.10509 1.15644,0.15769 2.20773,0.68335 2.89108,1.62951 0.47308,1.57696 -0.63079,2.94365 -1.68209,3.94239 -2.57568,2.47053 -5.677,4.20518 -8.56808,6.20267 -5.83472,4.15263 -11.721993,8.20013 -17.399009,12.56302 -1.208992,0.89359 -2.312858,1.9449 -3.73211,2.47055 -1.366696,0.42052 -2.417995,-0.73591 -3.311603,-1.52439 -2.628244,-2.41798 -5.992404,-4.15263 -7.9373,-7.25395 -1.682079,-3.78468 0.893597,-7.77962 3.732112,-10.1976 6.675751,-5.62448 15.664357,-7.30655 24.12732,-7.93731 z"
     id="path156" />
  <path
     fill="#fe7f2b"
     stroke="#fe7f2b"
     stroke-width="0.0492796"
     opacity="1"
     d="m 212.14449,146.89796 c 0.63079,-0.52564 1.31413,0.15769 1.89234,0.42053 2.52313,1.47181 5.30907,2.62825 7.46424,4.62572 1.26156,1.10387 1.26156,3.20647 0.21027,4.46803 -1.8398,2.3654 -4.52061,3.88979 -6.72833,5.8347 -2.31286,2.05003 -4.7834,3.94237 -7.09627,5.9924 -7.35909,6.93859 -15.0336,13.50921 -23.1286,19.50161 -6.46547,5.04624 -13.40406,9.4617 -20.13238,14.03486 -6.51805,4.7834 -12.66815,10.09247 -18.71312,15.45409 -1.41926,1.209 -3.04878,2.418 -4.99366,2.15516 -1.47185,-0.0527 -2.15518,-1.52439 -2.41801,-2.73337 -0.73591,-4.10006 0.47309,-8.30526 2.20773,-12.03737 2.20773,-4.62572 5.30907,-8.93606 9.304,-12.19508 7.25397,-5.88728 15.24385,-10.67069 22.9709,-15.92718 7.98986,-5.62446 15.92718,-11.35404 23.54911,-17.45158 5.04623,-4.25775 10.14503,-8.46295 15.61178,-12.14252 z"
     id="path158" />
  <path
     fill="#fcfcfc"
     stroke="#fcfcfc"
     stroke-width="0.0492796"
     opacity="1"
     d="m 64.962568,147.31849 c 1.419264,-0.31538 2.996208,-0.10509 4.047508,0.99873 0.946175,0.78849 0.735915,2.10262 0.735915,3.1539 -2.417995,0.8936 -5.624463,-1.57694 -4.783423,-4.15263 z"
     id="path160" />
  <path
     fill="#fdfdfd"
     stroke="#fdfdfd"
     stroke-width="0.0492796"
     opacity="1"
     d="m 55.973969,150.94548 c 0.946164,-0.36795 2.050032,-0.36795 2.891072,0.10509 0.841039,0.89362 0.788472,2.15517 0.525644,3.25903 -0.525644,2.1026 -1.26156,4.41546 -3.206456,5.5719 -3.259035,-1.73465 -3.36416,-7.09628 -0.21026,-8.93605 z"
     id="path162" />
  <path
     fill="#fe7f2b"
     stroke="#fe7f2b"
     stroke-width="0.0492796"
     opacity="1"
     d="m 124.2033,152.46987 c 3.83725,-1.05131 7.93731,-0.4731 11.87968,-0.42053 3.57442,0.36795 7.14883,0.10509 10.72325,0.52564 0.78849,0.10509 2.15517,0.63079 1.47183,1.62954 -1.78721,1.94488 -4.15263,3.10132 -6.36036,4.36289 -5.2565,2.94362 -10.77583,5.46676 -15.50667,9.19886 -2.41799,1.7872 -3.78467,4.57316 -6.1501,6.4655 -1.26156,0.99872 -2.68082,1.89234 -3.52185,3.31158 -1.94491,3.04877 -4.73084,5.41419 -7.14883,8.095 -1.83979,1.83977 -3.62699,3.99494 -6.25524,4.73086 -2.1026,0.52564 -3.837253,-1.20901 -5.677023,-1.89234 -2.89107,-1.20901 -5.834712,-2.78595 -7.569359,-5.46676 -1.576944,-2.1026 -1.787204,-5.72959 0.630791,-7.30653 5.203928,-3.94237 10.565561,-7.6745 15.979751,-11.35403 5.57188,-4.25778 10.82839,-9.30401 17.50413,-11.87968 z"
     id="path164" />
  <path
     fill="#fbfbfb"
     stroke="#fbfbfb"
     stroke-width="0.0492796"
     opacity="1"
     d="m 238.95263,153.52116 c 0.68336,0.15769 1.41927,0.31539 2.1026,0.47308 -0.0527,0.89361 0.42052,2.31287 -0.52564,2.78595 -1.78722,0.36795 -2.20774,-1.99746 -1.57696,-3.25903 z"
     id="path166" />
  <path
     fill="#fcfcfc"
     stroke="#fcfcfc"
     stroke-width="0.0492796"
     opacity="1"
     d="m 62.702276,159.67126 c 2.785948,-1.31411 5.151375,1.83977 5.939847,4.20519 0.63078,1.52439 0.578213,4.99368 -1.944907,4.36289 -2.155168,-1.15642 -3.626976,-3.41671 -4.41546,-5.67702 -0.21026,-0.94616 -0.525644,-2.31283 0.42052,-2.89106 z"
     id="path168" />
  <path
     fill="#fdfdfd"
     stroke="#fdfdfd"
     stroke-width="0.0492796"
     opacity="1"
     d="m 56.447045,167.92396 c 1.208992,-0.8936 2.575688,0.26284 3.311592,1.209 1.47182,1.9449 2.838515,4.7834 1.419263,7.14884 -1.787215,-0.63079 -2.733379,-2.31287 -3.521863,-3.94237 -0.63078,-1.3667 -1.366684,-2.83852 -1.208992,-4.41547 z"
     id="path170" />
  <path
     fill="#fcfcfc"
     stroke="#fcfcfc"
     stroke-width="0.0492796"
     opacity="1"
     d="m 54.081629,173.12789 c 1.734636,1.26157 2.470552,3.46929 2.943628,5.46676 -1.524376,-1.41925 -2.417984,-3.46929 -2.943628,-5.46676 z"
     id="path172" />
  <path
     fill="#fcfcfc"
     stroke="#fcfcfc"
     stroke-width="0.0492796"
     opacity="1"
     d="m 76.316607,178.80491 c -1.261549,-1.36669 -1.576944,-3.88981 -0.262817,-5.30907 1.997464,0.63078 4.2052,1.47183 5.256488,3.41673 0.210272,2.52312 -3.469284,3.73212 -4.993671,1.89234 z"
     id="path174" />
  <path
     fill="#fdfdfd"
     stroke="#fdfdfd"
     stroke-width="0.0492796"
     opacity="1"
     d="m 66.854908,179.64595 c 0.683348,-0.31539 1.629523,-0.63078 2.155168,0.10509 1.471819,1.83978 2.207735,4.46803 1.524387,6.78087 -0.735904,1.73465 -2.943639,0.99875 -3.784679,-0.21024 -1.68208,-1.73465 -2.31286,-5.36164 0.105089,-6.67576 z"
     id="path176" />
  <path
     fill="#fdfdfd"
     stroke="#fdfdfd"
     stroke-width="0.0492796"
     opacity="1"
     d="m 79.049986,184.00885 c 2.575688,-0.68336 4.888547,1.68207 5.466759,4.04749 0.525656,1.10386 -0.05254,2.9962 -1.524387,2.78595 -2.050032,-0.21026 -4.100064,-1.31411 -5.309056,-2.99621 -0.578212,-1.31412 -0.157692,-3.41671 1.366684,-3.83723 z"
     id="path178" />
  <path
     fill="#fcfcfb"
     stroke="#fcfcfb"
     stroke-width="0.0492796"
     opacity="1"
     d="m 61.80868,185.11271 c 1.47182,1.10387 2.155156,2.83851 2.417984,4.57316 -1.419252,-1.10387 -2.050032,-2.83851 -2.417984,-4.57316 z"
     id="path180" />
  <path
     fill="#fdfdfd"
     stroke="#fdfdfd"
     stroke-width="0.0492796"
     opacity="1"
     d="m 71.112675,192.36667 c 1.68208,-0.47308 2.996208,0.73592 4.2052,1.68209 1.734647,1.52437 3.469295,3.78468 2.680811,6.25522 -4.257755,0.89361 -7.359087,-4.15264 -6.886011,-7.93731 z"
     id="path182" />
  <path
     fill="#fcfcfc"
     stroke="#fcfcfc"
     stroke-width="0.0492796"
     opacity="1"
     d="m 91.139928,195.10005 c 2.050043,-0.42052 4.730859,0 5.782159,2.05003 0.42052,1.3667 0.31538,3.31161 -1.15644,4.10007 -2.20772,0.84105 -4.415459,-0.8936 -5.414191,-2.73337 -0.788472,-1.15644 -0.525645,-2.83852 0.788472,-3.41673 z"
     id="path184" />
  <path
     fill="#fdfdfd"
     stroke="#fdfdfd"
     stroke-width="0.0492796"
     opacity="1"
     d="m 67.590824,197.25522 c 2.102599,1.68208 4.257767,3.57442 5.151375,6.15009 -3.1539,-0.15769 -4.047508,-3.78468 -5.151375,-6.15009 z"
     id="path186" />
  <path
     fill="#fcfcfc"
     stroke="#fcfcfc"
     stroke-width="0.0492796"
     opacity="1"
     d="m 101.60036,198.72704 c 3.41673,-0.52565 5.83471,4.99366 2.94364,7.09626 -1.57694,1.36669 -4.10006,0.10509 -4.625723,-1.73464 -0.7359,-1.7872 -0.26281,-4.57314 1.682083,-5.36162 z"
     id="path190" />
  <path
     fill="#fcfcfc"
     stroke="#fcfcfc"
     stroke-width="0.0492796"
     opacity="1"
     d="m 80.88977,202.66941 c 1.103856,-1.3667 2.996196,-0.57821 4.310323,0 1.524388,0.7359 3.364159,1.68208 3.679543,3.52185 -1.997463,1.26157 -4.310323,2.41799 -6.67575,1.99748 -1.734636,-1.15644 -2.680812,-3.78468 -1.314116,-5.51933 z"
     id="path192" />
  <path
     fill="#fafafa"
     stroke="#fafafa"
     stroke-width="0.0492796"
     opacity="1"
     d="m 75.948655,206.76947 c 2.155167,0.8936 3.994939,2.78594 4.468027,5.15138 -2.207736,-0.68336 -4.2052,-2.78595 -4.468027,-5.15138 z"
     id="path194" />
  <path
     fill="#fdfdfd"
     stroke="#fdfdfd"
     stroke-width="0.0492796"
     opacity="1"
     d="m 89.720676,211.13236 c 0.42052,-1.89234 2.102599,-3.10134 3.837251,-3.67953 1.36668,0 1.57694,1.68207 1.9449,2.6808 0.94617,2.73338 -1.73464,5.51933 -4.415456,5.5719 -0.788483,-1.3667 -1.734647,-2.94365 -1.366695,-4.57317 z"
     id="path196" />
  <path
     fill="#fcfcfc"
     stroke="#fcfcfc"
     stroke-width="0.0492796"
     opacity="1"
     d="m 107.8556,209.60798 c 1.15643,-0.63078 2.9962,-0.26281 3.31158,1.15643 0.78849,2.26029 0.68336,5.57189 -1.6295,6.88603 -1.94492,0.78846 -2.73339,-1.62953 -3.1539,-3.10135 -0.36795,-1.68208 -0.42052,-4.15263 1.47182,-4.94111 z"
     id="path198" />
  <path
     fill="#fcfcfc"
     stroke="#fcfcfc"
     stroke-width="0.0492796"
     opacity="1"
     d="m 84.621881,217.33503 c -0.105089,-0.78847 0.21026,-1.20898 0.998732,-1.20898 1.47182,0.57821 1.89234,2.26029 2.1026,3.67954 -1.26156,-0.47307 -2.470552,-1.26156 -3.101332,-2.47056 z"
     id="path200" />
  <path
     fill="#fdfdfd"
     stroke="#fdfdfd"
     stroke-width="0.0492796"
     opacity="1"
     d="m 99.918277,217.01964 c 0.683353,-0.15769 1.209013,0.42054 1.366703,1.0513 1.31412,2.47056 -1.682083,6.36037 -4.415463,4.88854 -1.57696,-0.42051 -2.20773,-2.62824 -1.0513,-3.78468 1.0513,-1.20898 2.52312,-2.05003 4.10006,-2.15516 z"
     id="path202" />
  <path
     fill="#fdfdfd"
     stroke="#fdfdfd"
     stroke-width="0.0492796"
     opacity="1"
     d="m 126.83155,221.7505 c 2.78593,-2.05003 7.14884,-0.57822 8.46295,2.47055 -0.89359,1.99746 -3.15389,2.94363 -5.25649,2.99621 -1.0513,-1.41927 -2.20772,-2.78595 -3.41672,-4.10007 0.0527,-0.3154 0.15769,-0.99874 0.21026,-1.36669 z"
     id="path204" />
  <path
     fill="#fcfcfc"
     stroke="#fcfcfc"
     stroke-width="0.0492796"
     opacity="1"
     d="m 90.351456,223.53769 c 0.42052,-0.47307 0.735915,-1.31411 1.471819,-1.10385 1.26156,0 1.524388,1.31412 1.629512,2.31285 -1.156424,0 -2.260291,-0.47308 -3.101331,-1.209 z"
     id="path210" />
  <path
     fill="#fcfcfc"
     stroke="#fcfcfc"
     stroke-width="0.0492796"
     opacity="1"
     d="m 119.1045,229.42497 c -0.52565,-1.31412 0.73591,-3.25902 2.26029,-2.73337 1.83977,0.52566 3.52186,1.68208 4.57316,3.31159 -1.94491,1.73465 -5.15138,1.31412 -6.83345,-0.57822 z"
     id="path218" />
  <path
     fill="#fdfdfd"
     stroke="#fdfdfd"
     stroke-width="0.0492796"
     opacity="1"
     d="m 113.90058,232.57887 c 1.05128,-1.20898 2.73336,-0.84103 4.15263,-0.8936 0,0.31539 -0.0527,0.8936 -0.0527,1.209 -1.3667,0.21027 -2.78594,0.26281 -4.10007,-0.3154 z"
     id="path224" />
</svg>
