<?xml version="1.0" encoding="UTF-8" standalone="no"?>
<svg
   xmlns:dc="http://purl.org/dc/elements/1.1/"
   xmlns:cc="http://creativecommons.org/ns#"
   xmlns:rdf="http://www.w3.org/1999/02/22-rdf-syntax-ns#"
   xmlns:svg="http://www.w3.org/2000/svg"
   xmlns="http://www.w3.org/2000/svg"
   xmlns:xlink="http://www.w3.org/1999/xlink"
   xmlns:sodipodi="http://sodipodi.sourceforge.net/DTD/sodipodi-0.dtd"
   xmlns:inkscape="http://www.inkscape.org/namespaces/inkscape"
   width="84.652084mm"
   height="86.091003mm"
   viewBox="0 0 299.94833 305.04686"
   id="svg2"
   version="1.1"
   inkscape:version="1.0.2-2 (e86c870879, 2021-01-15)"
   sodipodi:docname="button.svg">
  <title
     id="title4136">button - coloured</title>
  <defs
     id="defs4">
    <linearGradient
       inkscape:collect="always"
       id="linearGradient6311">
      <stop
         style="stop-color:#000000;stop-opacity:0.75"
         offset="0"
         id="stop6313" />
      <stop
         style="stop-color:#000000;stop-opacity:0.14440434"
         offset="1"
         id="stop6315" />
    </linearGradient>
    <linearGradient
       inkscape:collect="always"
       id="linearGradient6144">
      <stop
         style="stop-color:#d30000;stop-opacity:1;"
         offset="0"
         id="stop6146" />
      <stop
         id="stop6156"
         offset="0.78533447"
         style="stop-color:#db0000;stop-opacity:1" />
      <stop
         id="stop6154"
         offset="0.91296184"
         style="stop-color:#f60000;stop-opacity:1" />
      <stop
         style="stop-color:#ac0000;stop-opacity:1"
         offset="1"
         id="stop6148" />
    </linearGradient>
    <linearGradient
       inkscape:collect="always"
       id="linearGradient5957">
      <stop
         style="stop-color:#ff6b6b;stop-opacity:1"
         offset="0"
         id="stop5959" />
      <stop
         id="stop5961"
         offset="0.08566847"
         style="stop-color:#ff3737;stop-opacity:1" />
      <stop
         style="stop-color:#d30000;stop-opacity:1"
         offset="0.3961643"
         id="stop5963" />
      <stop
         style="stop-color:#820000;stop-opacity:1"
         offset="1"
         id="stop5965" />
    </linearGradient>
    <linearGradient
       id="linearGradient5939"
       inkscape:collect="always">
      <stop
         id="stop5941"
         offset="0"
         style="stop-color:#ff6b6b;stop-opacity:1" />
      <stop
         style="stop-color:#ff3737;stop-opacity:1"
         offset="0.08776218"
         id="stop5943" />
      <stop
         id="stop5945"
         offset="0.58879071"
         style="stop-color:#d30000;stop-opacity:1" />
      <stop
         id="stop5947"
         offset="1"
         style="stop-color:#820000;stop-opacity:1" />
    </linearGradient>
    <linearGradient
       inkscape:collect="always"
       id="linearGradient5919">
      <stop
         style="stop-color:#ff6b6b;stop-opacity:1"
         offset="0"
         id="stop5921" />
      <stop
         id="stop5927"
         offset="0.22838439"
         style="stop-color:#ff3737;stop-opacity:1" />
      <stop
         style="stop-color:#d30000;stop-opacity:1"
         offset="0.58189881"
         id="stop5929" />
      <stop
         style="stop-color:#820000;stop-opacity:1"
         offset="1"
         id="stop5923" />
    </linearGradient>
    <pattern
       inkscape:collect="always"
       xlink:href="#Polkadots-large"
       id="pattern5898"
       patternTransform="matrix(2.2702455,0,0,2.5124167,65.55376,-5.1677653)" />
    <pattern
       inkscape:collect="always"
       xlink:href="#Polkadots-large"
       id="pattern5804"
       patternTransform="matrix(2.7398568,0,0,3.1964997,-264.84354,-68.559601)" />
    <pattern
       inkscape:stockid="Polka dots, large"
       id="Polkadots-large"
       patternTransform="translate(0,0) scale(10,10)"
       height="10"
       width="10"
       patternUnits="userSpaceOnUse"
       inkscape:collect="always">
      <circle
         id="circle5494"
         r="0.45"
         cy="0.810"
         cx="2.567"
         style="fill:black;stroke:none" />
      <circle
         id="circle5496"
         r="0.45"
         cy="2.33"
         cx="3.048"
         style="fill:black;stroke:none" />
      <circle
         id="circle5498"
         r="0.45"
         cy="2.415"
         cx="4.418"
         style="fill:black;stroke:none" />
      <circle
         id="circle5500"
         r="0.45"
         cy="3.029"
         cx="1.844"
         style="fill:black;stroke:none" />
      <circle
         id="circle5502"
         r="0.45"
         cy="1.363"
         cx="6.08"
         style="fill:black;stroke:none" />
      <circle
         id="circle5504"
         r="0.45"
         cy="4.413"
         cx="5.819"
         style="fill:black;stroke:none" />
      <circle
         id="circle5506"
         r="0.45"
         cy="4.048"
         cx="4.305"
         style="fill:black;stroke:none" />
      <circle
         id="circle5508"
         r="0.45"
         cy="3.045"
         cx="5.541"
         style="fill:black;stroke:none" />
      <circle
         id="circle5510"
         r="0.45"
         cy="5.527"
         cx="4.785"
         style="fill:black;stroke:none" />
      <circle
         id="circle5512"
         r="0.45"
         cy="5.184"
         cx="2.667"
         style="fill:black;stroke:none" />
      <circle
         id="circle5514"
         r="0.45"
         cy="1.448"
         cx="7.965"
         style="fill:black;stroke:none" />
      <circle
         id="circle5516"
         r="0.45"
         cy="5.049"
         cx="7.047"
         style="fill:black;stroke:none" />
      <circle
         id="circle5518"
         r="0.45"
         cy="0.895"
         cx="4.340"
         style="fill:black;stroke:none" />
      <circle
         id="circle5520"
         r="0.45"
         cy="0.340"
         cx="7.125"
         style="fill:black;stroke:none" />
      <circle
         id="circle5522"
         r="0.45"
         cy="1.049"
         cx="9.553"
         style="fill:black;stroke:none" />
      <circle
         id="circle5524"
         r="0.45"
         cy="2.689"
         cx="7.006"
         style="fill:black;stroke:none" />
      <circle
         id="circle5526"
         r="0.45"
         cy="2.689"
         cx="8.909"
         style="fill:black;stroke:none" />
      <circle
         id="circle5528"
         r="0.45"
         cy="4.407"
         cx="9.315"
         style="fill:black;stroke:none" />
      <circle
         id="circle5530"
         r="0.45"
         cy="3.870"
         cx="7.820"
         style="fill:black;stroke:none" />
      <circle
         id="circle5532"
         r="0.45"
         cy="5.948"
         cx="8.270"
         style="fill:black;stroke:none" />
      <circle
         id="circle5534"
         r="0.45"
         cy="7.428"
         cx="7.973"
         style="fill:black;stroke:none" />
      <circle
         id="circle5536"
         r="0.45"
         cy="8.072"
         cx="9.342"
         style="fill:black;stroke:none" />
      <circle
         id="circle5538"
         r="0.45"
         cy="9.315"
         cx="8.206"
         style="fill:black;stroke:none" />
      <circle
         id="circle5540"
         r="0.45"
         cy="9.475"
         cx="9.682"
         style="fill:black;stroke:none" />
      <circle
         id="circle5542"
         r="0.45"
         cy="6.186"
         cx="9.688"
         style="fill:black;stroke:none" />
      <circle
         id="circle5544"
         r="0.45"
         cy="6.296"
         cx="3.379"
         style="fill:black;stroke:none" />
      <circle
         id="circle5546"
         r="0.45"
         cy="8.204"
         cx="2.871"
         style="fill:black;stroke:none" />
      <circle
         id="circle5548"
         r="0.45"
         cy="8.719"
         cx="4.59"
         style="fill:black;stroke:none" />
      <circle
         id="circle5550"
         r="0.45"
         cy="9.671"
         cx="3.181"
         style="fill:black;stroke:none" />
      <circle
         id="circle5552"
         r="0.45"
         cy="7.315"
         cx="5.734"
         style="fill:black;stroke:none" />
      <circle
         id="circle5554"
         r="0.45"
         cy="6.513"
         cx="6.707"
         style="fill:black;stroke:none" />
      <circle
         id="circle5556"
         r="0.45"
         cy="9.670"
         cx="5.730"
         style="fill:black;stroke:none" />
      <circle
         id="circle5558"
         r="0.45"
         cy="8.373"
         cx="6.535"
         style="fill:black;stroke:none" />
      <circle
         id="circle5560"
         r="0.45"
         cy="7.154"
         cx="4.37"
         style="fill:black;stroke:none" />
      <circle
         id="circle5562"
         r="0.45"
         cy="7.25"
         cx="0.622"
         style="fill:black;stroke:none" />
      <circle
         id="circle5564"
         r="0.45"
         cy="5.679"
         cx="0.831"
         style="fill:black;stroke:none" />
      <circle
         id="circle5566"
         r="0.45"
         cy="8.519"
         cx="1.257"
         style="fill:black;stroke:none" />
      <circle
         id="circle5568"
         r="0.45"
         cy="6.877"
         cx="1.989"
         style="fill:black;stroke:none" />
      <circle
         id="circle5570"
         r="0.45"
         cy="3.181"
         cx="0.374"
         style="fill:black;stroke:none" />
      <circle
         id="circle5572"
         r="0.45"
         cy="1.664"
         cx="1.166"
         style="fill:black;stroke:none" />
      <circle
         id="circle5574"
         r="0.45"
         cy="0.093"
         cx="1.151"
         style="fill:black;stroke:none" />
      <circle
         id="circle5576"
         r="0.45"
         cy="10.093"
         cx="1.151"
         style="fill:black;stroke:none" />
      <circle
         id="circle5578"
         r="0.45"
         cy="4.451"
         cx="1.302"
         style="fill:black;stroke:none" />
      <circle
         id="circle5580"
         r="0.45"
         cy="3.763"
         cx="3.047"
         style="fill:black;stroke:none" />
    </pattern>
    <linearGradient
       inkscape:collect="always"
       xlink:href="#linearGradient5919"
       id="linearGradient5925"
       x1="29.576172"
       y1="9.1432686"
       x2="84.524132"
       y2="83.893272"
       gradientUnits="userSpaceOnUse"
       gradientTransform="matrix(3.0442854,0,0,3.0442854,63.939284,-4.6296078)" />
    <linearGradient
       inkscape:collect="always"
       xlink:href="#linearGradient5939"
       id="linearGradient5937"
       x1="77.881622"
       y1="77.785751"
       x2="30.011627"
       y2="20.785751"
       gradientUnits="userSpaceOnUse"
       gradientTransform="matrix(3.0442854,0,0,3.0442854,63.939284,-4.6296078)" />
    <linearGradient
       inkscape:collect="always"
       xlink:href="#linearGradient5957"
       id="linearGradient5955"
       x1="42.808685"
       y1="54.6446"
       x2="37.883385"
       y2="46.8946"
       gradientUnits="userSpaceOnUse"
       gradientTransform="matrix(3.0442854,0,0,3.0442854,63.939284,-4.6296078)" />
    <linearGradient
       inkscape:collect="always"
       xlink:href="#linearGradient5957"
       id="linearGradient5973"
       x1="56.820408"
       y1="42.524746"
       x2="50.848183"
       y2="36.587246"
       gradientUnits="userSpaceOnUse"
       gradientTransform="matrix(3.0442854,0,0,3.0442854,63.939284,-4.6296078)" />
    <linearGradient
       inkscape:collect="always"
       xlink:href="#linearGradient5957"
       id="linearGradient5981"
       x1="68.244232"
       y1="55.580078"
       x2="63.888672"
       y2="50.330078"
       gradientUnits="userSpaceOnUse"
       gradientTransform="matrix(3.0442854,0,0,3.0442854,63.939284,-4.6296078)" />
    <linearGradient
       inkscape:collect="always"
       xlink:href="#linearGradient5957"
       id="linearGradient5989"
       x1="53.754463"
       y1="67.94043"
       x2="47.761719"
       y2="60.37793"
       gradientUnits="userSpaceOnUse"
       gradientTransform="matrix(3.0442854,0,0,3.0442854,63.939284,-4.6296078)" />
    <radialGradient
       inkscape:collect="always"
       xlink:href="#linearGradient6144"
       id="radialGradient6152"
       cx="144.72934"
       cy="97.861458"
       fx="144.72934"
       fy="97.861458"
       r="32.710819"
       gradientTransform="matrix(3.586434,0.05187946,-0.04486592,3.1015889,-294.68792,-166.15331)"
       gradientUnits="userSpaceOnUse" />
    <radialGradient
       inkscape:collect="always"
       xlink:href="#linearGradient6311"
       id="radialGradient6317"
       cx="139.47681"
       cy="91.80352"
       fx="139.47681"
       fy="91.80352"
       r="47.104488"
       gradientTransform="matrix(3.0442854,0,0,3.060569,-193.23224,-115.7319)"
       gradientUnits="userSpaceOnUse" />
  </defs>
  <sodipodi:namedview
     id="base"
     pagecolor="#ffffff"
     bordercolor="#666666"
     borderopacity="1.0"
     inkscape:pageopacity="0.0"
     inkscape:pageshadow="2"
     inkscape:zoom="2"
     inkscape:cx="177.47699"
     inkscape:cy="154.87392"
     inkscape:document-units="mm"
     inkscape:current-layer="layer2"
     showgrid="false"
     inkscape:window-width="1920"
     inkscape:window-height="1017"
     inkscape:window-x="-8"
     inkscape:window-y="-8"
     inkscape:window-maximized="1"
     borderlayer="true"
     inkscape:snap-global="false"
     inkscape:document-rotation="0" />
  <metadata
     id="metadata7">
    <rdf:RDF>
      <cc:Work
         rdf:about="">
        <dc:format>image/svg+xml</dc:format>
        <dc:type
           rdf:resource="http://purl.org/dc/dcmitype/StillImage" />
        <dc:title>button - coloured</dc:title>
        <cc:license
           rdf:resource="http://creativecommons.org/publicdomain/zero/1.0/" />
        <dc:subject>
          <rdf:Bag>
            <rdf:li>button</rdf:li>
            <rdf:li>clothing</rdf:li>
            <rdf:li>school</rdf:li>
            <rdf:li>education</rdf:li>
            <rdf:li>teaching</rdf:li>
            <rdf:li>knopf</rdf:li>
            <rdf:li>kleidung</rdf:li>
            <rdf:li>schule</rdf:li>
            <rdf:li>unterricht</rdf:li>
            <rdf:li>lineart</rdf:li>
            <rdf:li />
          </rdf:Bag>
        </dc:subject>
        <dc:description>coloured line art button</dc:description>
        <dc:date>2016-10-09</dc:date>
        <dc:creator>
          <cc:Agent>
            <dc:title>Frank Tremmel</dc:title>
          </cc:Agent>
        </dc:creator>
      </cc:Work>
      <cc:License
         rdf:about="http://creativecommons.org/publicdomain/zero/1.0/">
        <cc:permits
           rdf:resource="http://creativecommons.org/ns#Reproduction" />
        <cc:permits
           rdf:resource="http://creativecommons.org/ns#Distribution" />
        <cc:permits
           rdf:resource="http://creativecommons.org/ns#DerivativeWorks" />
      </cc:License>
    </rdf:RDF>
  </metadata>
  <g
     inkscape:groupmode="layer"
     id="layer2"
     inkscape:label="Ebene 2"
     transform="translate(-74.826171,-4.3588015)">
    <path
       inkscape:connector-curvature="0"
       style="opacity:1;fill:url(#radialGradient6317);fill-opacity:1;stroke:none;stroke-width:1.07868;stroke-linecap:round;stroke-linejoin:bevel;stroke-miterlimit:4;stroke-dasharray:none;stroke-dashoffset:0;stroke-opacity:1"
       d="m 231.37199,21.072584 c -79.19684,0 -143.396517,64.54264 -143.396517,144.163566 0,79.62092 64.199677,144.16951 143.396517,144.16951 79.19684,0 143.4025,-64.54859 143.4025,-144.16951 0,-41.53068 -15.54812,-78.958699 -43.49998,-105.265684 -25.6363,-24.127691 -62.01514,-38.897882 -99.90252,-38.897882 z m 2.95512,90.858836 a 17.189771,16.941579 0 0 1 17.18949,16.93978 17.189771,16.941579 0 0 1 -17.18949,16.93979 17.189771,16.941579 0 0 1 -17.18953,-16.93979 17.189771,16.941579 0 0 1 17.18953,-16.93978 z m -40.14058,35.12226 a 15.900236,16.398618 0 0 1 15.89927,16.3987 15.900236,16.398618 0 0 1 -15.89927,16.39871 15.900236,16.398618 0 0 1 -15.89927,-16.39871 15.900236,16.398618 0 0 1 15.89927,-16.3987 z m 75.50065,3.0205 a 16.714678,17.28093 0 0 1 16.71386,17.27869 16.714678,17.28093 0 0 1 -16.71386,17.28465 16.714678,17.28093 0 0 1 -16.71382,-17.28465 16.714678,17.28093 0 0 1 16.71382,-17.27869 z m -40.52111,36.24007 a 17.325511,16.398618 0 0 1 17.32628,16.3987 17.325511,16.398618 0 0 1 -17.32628,16.39872 17.325511,16.398618 0 0 1 -17.32625,-16.39872 17.325511,16.398618 0 0 1 17.32625,-16.3987 z"
       id="path4274-8-6" />
    <path
       inkscape:connector-curvature="0"
       style="opacity:0.304;fill:url(#pattern5804);fill-opacity:1;stroke:none;stroke-width:1.07868;stroke-linecap:round;stroke-linejoin:bevel;stroke-miterlimit:4;stroke-dasharray:none;stroke-dashoffset:0;stroke-opacity:1"
       d="m 231.372,21.072584 c -79.19684,0 -143.396532,64.54264 -143.396532,144.163566 0,79.62092 64.199692,144.16951 143.396532,144.16951 79.19684,0 143.40249,-64.54859 143.40249,-144.16951 0,-41.53068 -15.54811,-78.958699 -43.49998,-105.265684 C 305.63822,35.842775 269.25938,21.072584 231.372,21.072584 Z m 2.95511,90.858836 a 17.189771,16.941579 0 0 1 17.1895,16.93978 17.189771,16.941579 0 0 1 -17.1895,16.93979 17.189771,16.941579 0 0 1 -17.18952,-16.93979 17.189771,16.941579 0 0 1 17.18952,-16.93978 z m -40.14057,35.12226 a 15.900236,16.398618 0 0 1 15.89926,16.3987 15.900236,16.398618 0 0 1 -15.89926,16.39871 15.900236,16.398618 0 0 1 -15.89927,-16.39871 15.900236,16.398618 0 0 1 15.89927,-16.3987 z m 75.50065,3.0205 a 16.714678,17.28093 0 0 1 16.71386,17.27869 16.714678,17.28093 0 0 1 -16.71386,17.28465 16.714678,17.28093 0 0 1 -16.71383,-17.28465 16.714678,17.28093 0 0 1 16.71383,-17.27869 z m -40.52111,36.24007 a 17.325511,16.398618 0 0 1 17.32627,16.39871 17.325511,16.398618 0 0 1 -17.32627,16.39871 17.325511,16.398618 0 0 1 -17.32625,-16.39871 17.325511,16.398618 0 0 1 17.32625,-16.39871 z"
       id="path4274-8" />
    <path
       style="opacity:1;fill:#db0000;fill-opacity:1;stroke:#bb0000;stroke-width:1.07868;stroke-linecap:round;stroke-linejoin:bevel;stroke-miterlimit:4;stroke-dasharray:none;stroke-dashoffset:0;stroke-opacity:1"
       d="m 220.00648,6.0729579 c -79.19684,0 -143.396547,64.5426401 -143.396548,144.1635621 0,79.62092 64.199708,144.16951 143.396548,144.16951 79.19684,0 143.40249,-64.54859 143.40249,-144.16951 0,-41.53068 -15.54813,-78.958696 -43.49999,-105.265681 C 294.27268,20.843147 257.89384,6.0729579 220.00648,6.0729579 Z m 2.95509,90.8588371 a 17.189771,16.941579 0 0 1 17.18951,16.939785 17.189771,16.941579 0 0 1 -17.18951,16.93978 17.189771,16.941579 0 0 1 -17.18951,-16.93978 17.189771,16.941579 0 0 1 17.18951,-16.939785 z m -40.14056,35.122255 a 15.900236,16.398618 0 0 1 15.89925,16.39871 15.900236,16.398618 0 0 1 -15.89925,16.39871 15.900236,16.398618 0 0 1 -15.89926,-16.39871 15.900236,16.398618 0 0 1 15.89926,-16.39871 z m 75.50065,3.0205 a 16.714678,17.28093 0 0 1 16.71384,17.2787 16.714678,17.28093 0 0 1 -16.71384,17.28464 16.714678,17.28093 0 0 1 -16.71384,-17.28464 16.714678,17.28093 0 0 1 16.71384,-17.2787 z m -40.5211,36.24008 a 17.325511,16.398618 0 0 1 17.32626,16.39871 17.325511,16.398618 0 0 1 -17.32626,16.3987 17.325511,16.398618 0 0 1 -17.32627,-16.3987 17.325511,16.398618 0 0 1 17.32627,-16.39871 z"
       id="path4274" />
    <path
       style="color:#000000;font-style:normal;font-variant:normal;font-weight:normal;font-stretch:normal;font-size:medium;line-height:normal;font-family:sans-serif;text-indent:0;text-align:start;text-decoration:none;text-decoration-line:none;text-decoration-style:solid;text-decoration-color:#000000;letter-spacing:normal;word-spacing:normal;text-transform:none;writing-mode:lr-tb;direction:ltr;baseline-shift:baseline;text-anchor:start;white-space:normal;clip-rule:nonzero;display:inline;overflow:visible;visibility:visible;opacity:1;isolation:auto;mix-blend-mode:normal;color-interpolation:sRGB;color-interpolation-filters:linearRGB;solid-color:#000000;solid-opacity:1;fill:url(#linearGradient5925);fill-opacity:1;fill-rule:nonzero;stroke:none;stroke-width:8.62948;stroke-linecap:round;stroke-linejoin:bevel;stroke-miterlimit:4;stroke-dasharray:none;stroke-dashoffset:0;stroke-opacity:1;color-rendering:auto;image-rendering:auto;shape-rendering:auto;text-rendering:auto;enable-background:accumulate"
       d="m 218.43082,4.3588015 c -79.29888,0 -143.604649,66.8241505 -143.604649,147.3820185 0,80.55787 64.305769,146.03057 143.604649,146.03057 28.82744,0 57.61638,-7.15169 80.87891,-21.85334 40.72832,-25.73982 67.3198,-73.44824 67.60645,-124.72019 C 367.18766,102.63833 348.75374,67.153862 317.49774,40.086052 306.15569,30.263796 292.97456,21.200602 278.74861,15.296126 259.86444,7.4582518 239.1392,4.3588015 218.43082,4.3588015 Z m -1.90036,3.4693218 c 45.64768,0 95.39555,23.0257557 120.37357,60.2141397 9.86205,14.683064 16.82606,33.228827 18.42332,51.434667 0.9645,10.99363 2.14693,20.90188 2.14693,31.99241 0,30.09186 -10.66009,57.13007 -27.51253,79.79651 -12.29992,16.54333 -26.53617,34.08518 -44.95643,43.6331 -20.06111,10.39842 -43.1023,14.24498 -66.5745,14.24498 -74.55396,0 -139.043458,-59.52877 -139.043458,-135.50274 0,-37.25991 13.696625,-74.130169 37.833098,-100.924456 25.07845,-27.839998 61.31952,-44.8886107 99.31,-44.8886107 z"
       id="path4169"
       inkscape:connector-curvature="0"
       sodipodi:nodetypes="ssssssssssssssssss" />
    <path
       style="fill:url(#radialGradient6152);fill-opacity:1;fill-rule:evenodd;stroke:none;stroke-width:0.88452;stroke-linecap:butt;stroke-linejoin:miter;stroke-miterlimit:4;stroke-dasharray:none;stroke-opacity:1"
       d="m 114.25711,184.43584 c 0,0 -33.668723,-76.05127 38.47837,-129.427167 29.12946,-21.550572 73.68945,-20.703189 108.16988,-10.763174 30.528,8.800606 44.66719,34.980315 44.66719,34.980315 0,0 -44.62539,-28.9803 -81.53105,-28.253331 -39.26927,0.773529 -60.68807,17.65783 -77.22579,33.365843 -28.15416,26.741684 -32.5586,100.097514 -32.5586,100.097514 z"
       id="path5806-9"
       inkscape:connector-curvature="0"
       sodipodi:nodetypes="csscssc" />
    <path
       style="color:#000000;font-style:normal;font-variant:normal;font-weight:normal;font-stretch:normal;font-size:medium;line-height:normal;font-family:sans-serif;text-indent:0;text-align:start;text-decoration:none;text-decoration-line:none;text-decoration-style:solid;text-decoration-color:#000000;letter-spacing:normal;word-spacing:normal;text-transform:none;writing-mode:lr-tb;direction:ltr;baseline-shift:baseline;text-anchor:start;white-space:normal;clip-rule:nonzero;display:inline;overflow:visible;visibility:visible;opacity:1;isolation:auto;mix-blend-mode:normal;color-interpolation:sRGB;color-interpolation-filters:linearRGB;solid-color:#000000;solid-opacity:1;fill:url(#linearGradient5937);fill-opacity:1;fill-rule:nonzero;stroke:none;stroke-width:8.62948;stroke-linecap:round;stroke-linejoin:bevel;stroke-miterlimit:4;stroke-dasharray:none;stroke-dashoffset:0;stroke-opacity:1;color-rendering:auto;image-rendering:auto;shape-rendering:auto;text-rendering:auto;enable-background:accumulate"
       d="m 217.32343,30.964399 c -64.88538,0 -116.45204,53.417841 -116.45204,118.820231 0,65.4024 54.55295,120.72655 119.43832,120.72655 64.88538,0 119.17279,-55.05267 119.17279,-120.45507 0,-65.40239 -57.2737,-119.091711 -122.15907,-119.091711 z m 3.52924,9.441897 c 60.18002,0 109.99643,48.869852 109.99643,109.649814 0,60.77997 -50.08789,111.2787 -110.26791,111.2787 -60.18001,0 -111.35382,-51.04169 -111.35382,-111.82166 0,-60.779963 51.44529,-109.106854 111.6253,-109.106854 z"
       id="path4169-1"
       inkscape:connector-curvature="0"
       sodipodi:nodetypes="ssssssssss" />
    <path
       style="color:#000000;font-style:normal;font-variant:normal;font-weight:normal;font-stretch:normal;font-size:medium;line-height:normal;font-family:sans-serif;text-indent:0;text-align:start;text-decoration:none;text-decoration-line:none;text-decoration-style:solid;text-decoration-color:#000000;letter-spacing:normal;word-spacing:normal;text-transform:none;writing-mode:lr-tb;direction:ltr;baseline-shift:baseline;text-anchor:start;white-space:normal;clip-rule:nonzero;display:inline;overflow:visible;visibility:visible;opacity:1;isolation:auto;mix-blend-mode:normal;color-interpolation:sRGB;color-interpolation-filters:linearRGB;solid-color:#000000;solid-opacity:1;fill:url(#linearGradient5955);fill-opacity:1;fill-rule:nonzero;stroke:none;stroke-width:5.39341;stroke-linecap:round;stroke-linejoin:bevel;stroke-miterlimit:4;stroke-dasharray:none;stroke-dashoffset:0;stroke-opacity:1;color-rendering:auto;image-rendering:auto;shape-rendering:auto;text-rendering:auto;enable-background:accumulate"
       d="m 181.76264,129.23019 c -9.74371,0 -19.27623,10.26825 -19.27623,20.12242 0,9.85418 9.53252,18.22801 19.27623,18.22801 9.74371,0 19.00475,-8.91679 19.00475,-18.77097 0,-9.85418 -9.26104,-19.57947 -19.00475,-19.57946 z m 1.35741,5.93586 c 6.76893,0 13.61184,8.27439 13.61184,15.27249 0,6.9981 -6.30697,13.41487 -13.06888,13.10658 -5.9545,-0.27149 -13.06888,-6.65144 -13.06888,-13.64955 0,-6.9981 5.75698,-14.72952 12.52592,-14.72952 z"
       id="path4169-4"
       inkscape:connector-curvature="0"
       sodipodi:nodetypes="ssssssssss" />
    <path
       style="color:#000000;font-style:normal;font-variant:normal;font-weight:normal;font-stretch:normal;font-size:medium;line-height:normal;font-family:sans-serif;text-indent:0;text-align:start;text-decoration:none;text-decoration-line:none;text-decoration-style:solid;text-decoration-color:#000000;letter-spacing:normal;word-spacing:normal;text-transform:none;writing-mode:lr-tb;direction:ltr;baseline-shift:baseline;text-anchor:start;white-space:normal;clip-rule:nonzero;display:inline;overflow:visible;visibility:visible;opacity:1;isolation:auto;mix-blend-mode:normal;color-interpolation:sRGB;color-interpolation-filters:linearRGB;solid-color:#000000;solid-opacity:1;fill:url(#linearGradient5973);fill-opacity:1;fill-rule:nonzero;stroke:none;stroke-width:5.39341;stroke-linecap:round;stroke-linejoin:bevel;stroke-miterlimit:4;stroke-dasharray:none;stroke-dashoffset:0;stroke-opacity:1;color-rendering:auto;image-rendering:auto;shape-rendering:auto;text-rendering:auto;enable-background:accumulate"
       d="m 221.6674,93.612394 c -9.74371,0 -18.9988,10.539726 -18.9988,20.393906 0,9.85418 10.06954,19.58542 19.81325,19.58542 9.7437,0 19.27622,-10.2742 19.27622,-20.12838 0,-9.85418 -10.34696,-19.850946 -20.09067,-19.850946 z m 0.81445,5.664386 c 6.76893,0 16.59812,7.18846 16.59812,14.18656 0,6.9981 -8.47179,15.27843 -15.24072,15.27843 -6.76894,0 -16.32071,-4.20811 -16.04922,-15.82139 0.20162,-8.62463 7.92288,-13.6436 14.69182,-13.6436 z"
       id="path4169-4-8"
       inkscape:connector-curvature="0"
       sodipodi:nodetypes="ssssssssss" />
    <path
       style="color:#000000;font-style:normal;font-variant:normal;font-weight:normal;font-stretch:normal;font-size:medium;line-height:normal;font-family:sans-serif;text-indent:0;text-align:start;text-decoration:none;text-decoration-line:none;text-decoration-style:solid;text-decoration-color:#000000;letter-spacing:normal;word-spacing:normal;text-transform:none;writing-mode:lr-tb;direction:ltr;baseline-shift:baseline;text-anchor:start;white-space:normal;clip-rule:nonzero;display:inline;overflow:visible;visibility:visible;opacity:1;isolation:auto;mix-blend-mode:normal;color-interpolation:sRGB;color-interpolation-filters:linearRGB;solid-color:#000000;solid-opacity:1;fill:url(#linearGradient5981);fill-opacity:1;fill-rule:nonzero;stroke:none;stroke-width:5.39341;stroke-linecap:round;stroke-linejoin:bevel;stroke-miterlimit:4;stroke-dasharray:none;stroke-dashoffset:0;stroke-opacity:1;color-rendering:auto;image-rendering:auto;shape-rendering:auto;text-rendering:auto;enable-background:accumulate"
       d="m 257.50708,132.16107 c -10.53942,0 -20.63189,8.99241 -20.63189,19.85326 0,10.86086 10.09247,19.85326 20.63189,19.85326 10.53941,0 19.003,-8.9924 19.003,-19.85326 0,-10.86085 -8.46359,-19.85326 -19.003,-19.85326 z m 0.81444,4.84995 c 7.47258,0 15.23898,6.64132 15.23898,14.73183 0,8.09052 -8.03788,16.08924 -15.51046,16.08924 -7.47258,0 -14.69602,-6.36984 -14.69602,-14.46035 0,-8.09052 7.49492,-16.36072 14.9675,-16.36072 z"
       id="path4169-4-6"
       inkscape:connector-curvature="0"
       sodipodi:nodetypes="ssssssssss" />
    <path
       style="color:#000000;font-style:normal;font-variant:normal;font-weight:normal;font-stretch:normal;font-size:medium;line-height:normal;font-family:sans-serif;text-indent:0;text-align:start;text-decoration:none;text-decoration-line:none;text-decoration-style:solid;text-decoration-color:#000000;letter-spacing:normal;word-spacing:normal;text-transform:none;writing-mode:lr-tb;direction:ltr;baseline-shift:baseline;text-anchor:start;white-space:normal;clip-rule:nonzero;display:inline;overflow:visible;visibility:visible;opacity:1;isolation:auto;mix-blend-mode:normal;color-interpolation:sRGB;color-interpolation-filters:linearRGB;solid-color:#000000;solid-opacity:1;fill:url(#linearGradient5989);fill-opacity:1;fill-rule:nonzero;stroke:none;stroke-width:5.39341;stroke-linecap:round;stroke-linejoin:bevel;stroke-miterlimit:4;stroke-dasharray:none;stroke-dashoffset:0;stroke-opacity:1;color-rendering:auto;image-rendering:auto;shape-rendering:auto;text-rendering:auto;enable-background:accumulate"
       d="m 217.32489,168.5379 c -10.26726,0 -19.61372,9.28331 -19.61372,19.96963 0,10.68633 9.34646,19.19582 19.61372,19.19582 10.26726,0 18.46193,-8.89342 18.46193,-19.57975 0,-10.68632 -8.19467,-19.5857 -18.46193,-19.5857 z m 0,5.77684 c 9.64055,-0.95983 16.52441,5.65172 16.52441,13.61689 0,7.96518 -4.00438,12.84309 -15.56458,13.41899 -7.13614,0.3555 -13.75893,-6.41822 -14.02885,-14.37882 -0.19198,-5.66158 5.95918,-11.94919 13.06902,-12.65706 z"
       id="path4169-4-9"
       inkscape:connector-curvature="0"
       sodipodi:nodetypes="ssssssssss" />
    <path
       style="color:#000000;font-style:normal;font-variant:normal;font-weight:normal;font-stretch:normal;font-size:medium;line-height:normal;font-family:sans-serif;text-indent:0;text-align:start;text-decoration:none;text-decoration-line:none;text-decoration-style:solid;text-decoration-color:#000000;letter-spacing:normal;word-spacing:normal;text-transform:none;writing-mode:lr-tb;direction:ltr;baseline-shift:baseline;text-anchor:start;white-space:normal;clip-rule:nonzero;display:inline;overflow:visible;visibility:visible;opacity:1;isolation:auto;mix-blend-mode:normal;color-interpolation:sRGB;color-interpolation-filters:linearRGB;solid-color:#000000;solid-opacity:1;fill:#e5d6ae;fill-opacity:1;fill-rule:evenodd;stroke:#c4ae8d;stroke-width:5.39341;stroke-linecap:round;stroke-linejoin:miter;stroke-miterlimit:4;stroke-dasharray:none;stroke-dashoffset:0;stroke-opacity:1;color-rendering:auto;image-rendering:auto;shape-rendering:auto;text-rendering:auto;enable-background:accumulate"
       d="m 213.15089,109.40623 a 4.3151667,4.3151667 0 0 0 -3.00861,1.21296 l -31.48338,29.56286 a 4.3157765,4.3157765 0 1 0 5.91019,6.29073 l 31.48338,-29.56286 a 4.3151667,4.3151667 0 0 0 -2.90158,-7.50369 z"
       id="path4237"
       inkscape:connector-curvature="0" />
    <path
       style="color:#000000;font-style:normal;font-variant:normal;font-weight:normal;font-stretch:normal;font-size:medium;line-height:normal;font-family:sans-serif;text-indent:0;text-align:start;text-decoration:none;text-decoration-line:none;text-decoration-style:solid;text-decoration-color:#000000;letter-spacing:normal;word-spacing:normal;text-transform:none;writing-mode:lr-tb;direction:ltr;baseline-shift:baseline;text-anchor:start;white-space:normal;clip-rule:nonzero;display:inline;overflow:visible;visibility:visible;opacity:1;isolation:auto;mix-blend-mode:normal;color-interpolation:sRGB;color-interpolation-filters:linearRGB;solid-color:#000000;solid-opacity:1;fill:#e5d6ae;fill-opacity:1;fill-rule:evenodd;stroke:#c4ae8d;stroke-width:5.39341;stroke-linecap:round;stroke-linejoin:miter;stroke-miterlimit:4;stroke-dasharray:none;stroke-dashoffset:0;stroke-opacity:1;color-rendering:auto;image-rendering:auto;shape-rendering:auto;text-rendering:auto;enable-background:accumulate"
       d="m 220.46585,118.21913 a 4.3151667,4.3151667 0 0 0 -3.00861,1.21296 l -31.48338,29.56286 a 4.3157779,4.3157779 0 1 0 5.91019,6.29074 l 31.48338,-29.56287 a 4.3151667,4.3151667 0 0 0 -2.90158,-7.50369 z"
       id="path4237-8"
       inkscape:connector-curvature="0" />
    <path
       style="color:#000000;font-style:normal;font-variant:normal;font-weight:normal;font-stretch:normal;font-size:medium;line-height:normal;font-family:sans-serif;text-indent:0;text-align:start;text-decoration:none;text-decoration-line:none;text-decoration-style:solid;text-decoration-color:#000000;letter-spacing:normal;word-spacing:normal;text-transform:none;writing-mode:lr-tb;direction:ltr;baseline-shift:baseline;text-anchor:start;white-space:normal;clip-rule:nonzero;display:inline;overflow:visible;visibility:visible;opacity:1;isolation:auto;mix-blend-mode:normal;color-interpolation:sRGB;color-interpolation-filters:linearRGB;solid-color:#000000;solid-opacity:1;fill:#e5d6ae;fill-opacity:1;fill-rule:evenodd;stroke:#c4ae8d;stroke-width:5.39341;stroke-linecap:round;stroke-linejoin:miter;stroke-miterlimit:4;stroke-dasharray:none;stroke-dashoffset:0;stroke-opacity:1;color-rendering:auto;image-rendering:auto;shape-rendering:auto;text-rendering:auto;enable-background:accumulate"
       d="m 250.01848,147.79065 a 4.3151667,4.3151667 0 0 0 -3.00861,1.21296 l -31.48339,29.56286 a 4.3157777,4.3157777 0 1 0 5.9102,6.29073 l 31.48338,-29.56286 a 4.3151667,4.3151667 0 0 0 -2.90158,-7.50369 z"
       id="path4237-9"
       inkscape:connector-curvature="0" />
    <path
       style="color:#000000;font-style:normal;font-variant:normal;font-weight:normal;font-stretch:normal;font-size:medium;line-height:normal;font-family:sans-serif;text-indent:0;text-align:start;text-decoration:none;text-decoration-line:none;text-decoration-style:solid;text-decoration-color:#000000;letter-spacing:normal;word-spacing:normal;text-transform:none;writing-mode:lr-tb;direction:ltr;baseline-shift:baseline;text-anchor:start;white-space:normal;clip-rule:nonzero;display:inline;overflow:visible;visibility:visible;opacity:1;isolation:auto;mix-blend-mode:normal;color-interpolation:sRGB;color-interpolation-filters:linearRGB;solid-color:#000000;solid-opacity:1;fill:#e5d6ae;fill-opacity:1;fill-rule:evenodd;stroke:#c4ae8d;stroke-width:5.39341;stroke-linecap:round;stroke-linejoin:miter;stroke-miterlimit:4;stroke-dasharray:none;stroke-dashoffset:0;stroke-opacity:1;color-rendering:auto;image-rendering:auto;shape-rendering:auto;text-rendering:auto;enable-background:accumulate"
       d="m 257.33344,156.60355 a 4.3151667,4.3151667 0 0 0 -3.00861,1.21296 l -31.48338,29.56286 a 4.3157779,4.3157779 0 1 0 5.91019,6.29074 l 31.48338,-29.56287 a 4.3151667,4.3151667 0 0 0 -2.90158,-7.50369 z"
       id="path4237-8-8"
       inkscape:connector-curvature="0" />
    <path
       style="opacity:0.296;fill:url(#pattern5898);fill-opacity:1;fill-rule:evenodd;stroke:none;stroke-width:0.88452;stroke-linecap:butt;stroke-linejoin:miter;stroke-miterlimit:4;stroke-dasharray:none;stroke-opacity:1"
       d="m 115.8716,183.89769 c 0,0 -33.668738,-76.05128 38.47835,-129.427173 29.12946,-21.550573 73.68946,-20.70319 108.1699,-10.763175 30.528,8.800606 44.66717,34.980315 44.66717,34.980315 0,0 -44.62539,-28.980299 -81.53104,-28.25333 C 186.38669,51.207855 164.9679,68.092156 148.4302,83.800169 120.27603,110.54185 115.8716,183.89769 115.8716,183.89769 Z"
       id="path5806"
       inkscape:connector-curvature="0"
       sodipodi:nodetypes="csscssc" />
  </g>
</svg>
