<?xml version="1.0" encoding="UTF-8" standalone="no"?>
<!-- Created with Sodipodi ("http://www.sodipodi.com/") -->
<svg xmlns:dc="http://purl.org/dc/elements/1.1/" xmlns:cc="http://creativecommons.org/ns#" xmlns:rdf="http://www.w3.org/1999/02/22-rdf-syntax-ns#" xmlns:svg="http://www.w3.org/2000/svg" xmlns="http://www.w3.org/2000/svg" xmlns:xlink="http://www.w3.org/1999/xlink" xmlns:sodipodi="http://sodipodi.sourceforge.net/DTD/sodipodi-0.dtd" xmlns:inkscape="http://www.inkscape.org/namespaces/inkscape" height="525.13379" id="svg1048" sodipodi:docbase="/home/franck/Dessins/Vectoriels" sodipodi:docname="butter_01.svg" sodipodi:version="0.32" space="preserve" width="612.86908" inkscape:version="0.46" inkscape:output_extension="org.inkscape.output.svg.inkscape" version="1.0" inkscape:export-filename="C:\joanna\Gfx\drawings_vector\admin\thumbs\Franck Doucet\butter_01.png" inkscape:export-xdpi="34.216118" inkscape:export-ydpi="34.216118">
  <metadata id="metadata3">
    <rdf:RDF>
      <cc:Work rdf:about="">
        <dc:title>butter</dc:title>
        <dc:description/>
        <dc:subject>
          <rdf:Bag>
            <rdf:li>hash</rdf:li>
            <rdf:li/>
            <rdf:li>food</rdf:li>
            <rdf:li>dairy</rdf:li>
          </rdf:Bag>
        </dc:subject>
        <dc:publisher>
          <cc:Agent rdf:about="http://www.openclipart.org">
            <dc:title>Franck Doucet</dc:title>
          </cc:Agent>
        </dc:publisher>
        <dc:creator>
          <cc:Agent>
            <dc:title>Franck Doucet</dc:title>
          </cc:Agent>
        </dc:creator>
        <dc:rights>
          <cc:Agent>
            <dc:title>Franck Doucet</dc:title>
          </cc:Agent>
        </dc:rights>
        <dc:date/>
        <dc:format>image/svg+xml</dc:format>
        <dc:type rdf:resource="http://purl.org/dc/dcmitype/StillImage"/>
        <cc:license rdf:resource="http://web.resource.org/cc/PublicDomain"/>
        <dc:language>en</dc:language>
      </cc:Work>
      <cc:License rdf:about="http://web.resource.org/cc/PublicDomain">
        <cc:permits rdf:resource="http://web.resource.org/cc/Reproduction"/>
        <cc:permits rdf:resource="http://web.resource.org/cc/Distribution"/>
        <cc:permits rdf:resource="http://web.resource.org/cc/DerivativeWorks"/>
      </cc:License>
    </rdf:RDF>
  </metadata>
  <defs id="defs1050">
    <inkscape:perspective sodipodi:type="inkscape:persp3d" inkscape:vp_x="0 : 526.18109 : 1" inkscape:vp_y="0 : 1000 : 0" inkscape:vp_z="744.09448 : 526.18109 : 1" inkscape:persp3d-origin="372.04724 : 350.78739 : 1" id="perspective51"/>
    <linearGradient id="linearGradient1106">
      <stop id="stop1107" offset="0" style="stop-color: rgb(163, 0, 0); stop-opacity: 1;"/>
      <stop id="stop1108" offset="1" style="stop-color: rgb(255, 255, 255); stop-opacity: 1;"/>
    </linearGradient>
    <linearGradient id="linearGradient1101">
      <stop id="stop1102" offset="0" style="stop-color: rgb(0, 0, 0); stop-opacity: 1;"/>
      <stop id="stop1103" offset="1" style="stop-color: rgb(255, 255, 255); stop-opacity: 1;"/>
    </linearGradient>
    <linearGradient id="linearGradient1072">
      <stop id="stop1073" offset="0" style="stop-color: rgb(255, 255, 255); stop-opacity: 1;"/>
      <stop id="stop1074" offset="1" style="stop-color: rgb(255, 255, 66); stop-opacity: 1;"/>
    </linearGradient>
    <linearGradient id="linearGradient1066">
      <stop id="stop1067" offset="0" style="stop-color: rgb(255, 255, 0); stop-opacity: 0.5843;"/>
      <stop id="stop1068" offset="1" style="stop-color: rgb(255, 255, 255); stop-opacity: 1;"/>
    </linearGradient>
    <linearGradient id="linearGradient1059">
      <stop id="stop1060" offset="0" style="stop-color: rgb(255, 255, 0); stop-opacity: 0.5843;"/>
      <stop id="stop1061" offset="1" style="stop-color: rgb(255, 255, 202); stop-opacity: 0.7922;"/>
    </linearGradient>
    <linearGradient id="linearGradient1055">
      <stop id="stop1056" offset="0" style="stop-color: rgb(115, 115, 114); stop-opacity: 1;"/>
      <stop id="stop1057" offset="1" style="stop-color: rgb(255, 255, 255); stop-opacity: 1;"/>
    </linearGradient>
    <linearGradient gradientTransform="scale(3.66348, 0.272965)" id="linearGradient1058" spreadMethod="pad" x1="127.74109" x2="127.49939" xlink:href="#linearGradient1066" y1="1366.1788" y2="1705.9348" gradientUnits="userSpaceOnUse"/>
    <radialGradient cx="251.72852" cy="506.89757" fx="251.72852" fy="506.89757" id="radialGradient1062" r="16.768881" spreadMethod="repeat" xlink:href="#linearGradient1059" gradientTransform="matrix(1.03117, 0, 0, 0.969772, -33.5824, -339.929)" gradientUnits="userSpaceOnUse"/>
    <linearGradient gradientTransform="scale(3.66348, 0.272965)" id="linearGradient1069" x1="127.74105" x2="127.49936" xlink:href="#linearGradient1066" y1="1366.1787" y2="1705.9348" gradientUnits="userSpaceOnUse"/>
    <linearGradient gradientTransform="scale(3.66348, 0.272965)" id="linearGradient1070" x1="127.74106" x2="127.49936" xlink:href="#linearGradient1066" y1="1366.1786" y2="1705.9346" gradientUnits="userSpaceOnUse"/>
    <radialGradient cx="263.73164" cy="627.20108" fx="263.73164" fy="627.20108" id="radialGradient1071" r="168.573" xlink:href="#linearGradient1072" gradientTransform="matrix(1.19787, 0, 0, 0.834815, -33.5824, -339.929)" gradientUnits="userSpaceOnUse"/>
    <linearGradient id="linearGradient1081" spreadMethod="reflect" x1="-32.383632" x2="44.16618" xlink:href="#linearGradient1055" y1="772.48168" y2="817.22903" gradientTransform="matrix(1.284, 0, 0, 0.778814, -33.5824, -339.929)" gradientUnits="userSpaceOnUse"/>
    <linearGradient id="linearGradient1082" spreadMethod="reflect" x1="98.544865" x2="132.91211" xlink:href="#linearGradient1055" y1="452.34843" y2="505.86851" gradientTransform="matrix(1.2691, 0, 0, 0.787957, -33.5824, -339.929)" gradientUnits="userSpaceOnUse"/>
    <linearGradient id="linearGradient1097" x1="345.9595" x2="312.88387" xlink:href="#linearGradient1055" y1="1085.6286" y2="894.54095" gradientTransform="matrix(0.968972, 0, 0, 0.423346, 55.0564, -40.0378)" gradientUnits="userSpaceOnUse"/>
    <linearGradient id="linearGradient1098" x1="105.38837" x2="150.41564" xlink:href="#linearGradient1106" y1="1002.8185" y2="1046.8434" gradientTransform="matrix(1.3133, 0, 0, 0.76144, -33.5824, -339.929)" gradientUnits="userSpaceOnUse"/>
    <radialGradient cx="185.63952" cy="1381.606" fx="185.63952" fy="1381.606" gradientTransform="matrix(1.5358, -0.541812, 0.101101, 0.231431, -69.9188, 89.2566)" id="radialGradient1099" r="134.08481" spreadMethod="reflect" xlink:href="#linearGradient1055" gradientUnits="userSpaceOnUse"/>
    <radialGradient cx="359.30865" cy="899.82876" fx="359.30865" fy="899.82876" id="radialGradient1100" r="20.24123" spreadMethod="reflect" xlink:href="#linearGradient1101" gradientTransform="scale(1.01379, 0.986394)" gradientUnits="userSpaceOnUse"/>
    <radialGradient cx="0.60908639" cy="0.30485126" fx="0.60908639" fy="0.30485126" id="radialGradient1109" r="0.91823232" xlink:href="#linearGradient1106"/>
  </defs>
  <sodipodi:namedview id="base" showgrid="false" inkscape:zoom="0.43901235" inkscape:cx="372.04724" inkscape:cy="526.18109" inkscape:window-width="640" inkscape:window-height="667" inkscape:window-x="110" inkscape:window-y="99" inkscape:current-layer="svg1048"/>
  <path d="M 427.45276,159.5246 L 529.34806,186.2513 L 612.86906,122.7755 L 589.48316,37.5842 L 427.45276,159.5246 z" id="path1084" sodipodi:nodetypes="ccccc" style="font-size: 12px; fill: rgb(128, 128, 128); fill-rule: evenodd;"/>
  <path d="M 175.21966,146.1613 L 9.8483941,234.6936 C -15.277426,262.3946 13.297294,258.8588 33.025434,276.0364 C 66.054634,304.7953 75.203464,329.2113 89.610864,379.1847 L 333.07406,385.031 C 372.18966,368.6053 404.62356,365.5429 435.38706,380.8551 C 454.45776,397.2808 468.51706,423.7291 492.59886,430.1323 C 520.99586,324.3392 561.08586,220.2166 612.86876,122.7756 L 528.09526,183.3283 L 276.27986,160.36 C 261.38536,132.1021 334.50176,75.5257 315.11706,58.8821 C 306.93996,51.8614 218.68786,122.8904 175.21966,146.1613 z" id="path1076" sodipodi:nodetypes="ccscccccccss" style="font-size: 12px; fill: url(#linearGradient1081) rgb(0, 0, 0); fill-rule: evenodd;"/>
  <path d="M 156.00986,167.0419 C 144.06876,174.8387 138.42886,182.2399 137.63526,201.2854 L 133.45926,301.5102 C 132.86946,315.6666 140.53906,329.8515 152.66906,329.9075 L 333.90916,330.7427 C 347.09606,330.8034 358.05526,326.63 368.98786,317.3794 L 510.13796,197.9446 C 516.18686,192.8262 519.32526,185.8393 519.32526,178.5259 L 519.32536,83.1034 C 519.32536,69.6184 509.58806,61.708 497.60986,61.8057 L 343.93166,63.0585 C 326.53206,63.2003 312.56486,64.8207 297.99516,74.3339 L 156.00986,167.0419 z" id="path1052" sodipodi:nodetypes="cssssssssssss" style="font-size: 12px; fill: url(#radialGradient1071) rgb(0, 0, 0); fill-opacity: 1; fill-rule: evenodd;"/>
  <path d="M 389.03306,182.9107 C 394.04426,211.6215 364.54286,251.3977 305.92976,302.3455 C 279.88986,248.892 225.33216,240.8537 222.82656,195.4388 C 222.82656,170.0689 257.13136,138.2618 317.62266,146.9967 C 381.24686,157.0192 385.69226,163.3873 389.03306,182.9107 z" id="path1054" sodipodi:nodetypes="cccsc" style="font-size: 12px; fill: url(#radialGradient1062) rgb(0, 0, 0); fill-opacity: 1; fill-rule: evenodd; stroke-width: 1;"/>
  <path d="M 576.29375,446.41852 A 106.48907,7.9344788 0 1 1 363.31562,446.41852 A 106.48907,7.9344788 0 1 1 576.29375,446.41852 z" id="path1063" sodipodi:cx="469.80469" sodipodi:cy="446.41852" sodipodi:rx="106.48907" sodipodi:ry="7.9344788" sodipodi:type="arc" style="fill: url(#linearGradient1069) rgb(0, 0, 0); fill-opacity: 1; fill-rule: evenodd; stroke: none; stroke-width: 1pt; stroke-linecap: butt; stroke-linejoin: miter; stroke-opacity: 1;" transform="matrix(0.48767, -0.406486, 0.420037, 0.471938, 35.887, 100.558)"/>
  <path d="M 576.29375,446.41852 A 106.48907,7.9344788 0 1 1 363.31562,446.41852 A 106.48907,7.9344788 0 1 1 576.29375,446.41852 z" id="path1064" sodipodi:cx="469.80469" sodipodi:cy="446.41852" sodipodi:rx="106.48907" sodipodi:ry="7.9344788" sodipodi:type="arc" style="fill: url(#linearGradient1058) rgb(0, 0, 0); fill-opacity: 1; fill-rule: evenodd; stroke: none; stroke-width: 1pt; stroke-linecap: butt; stroke-linejoin: miter; stroke-opacity: 1;" transform="matrix(-0.00192602, -0.211334, 0.631392, -0.00745572, 64.6424, 407.465)"/>
  <path d="M 576.29375,446.41852 A 106.48907,7.9344788 0 1 1 363.31562,446.41852 A 106.48907,7.9344788 0 1 1 576.29375,446.41852 z" id="path1065" sodipodi:cx="469.80469" sodipodi:cy="446.41852" sodipodi:rx="106.48907" sodipodi:ry="7.9344788" sodipodi:type="arc" style="fill: url(#linearGradient1070) rgb(0, 0, 0); fill-opacity: 1; fill-rule: evenodd; stroke: none; stroke-width: 1pt; stroke-linecap: butt; stroke-linejoin: miter; stroke-opacity: 1;" transform="matrix(0.391636, 0.0108313, 0.00598814, 0.631714, 6.92927, -104.186)"/>
  <path d="M 307.18256,59.5025 L 322.21636,77.6744 L 390.70346,91.0377 L 423.78316,68.1831 C 429.88836,65.2896 431.85926,62.396 440.91726,61.2743 L 307.18256,59.5025 z" id="path1078" sodipodi:nodetypes="cccccc" style="font-size: 12px; fill: rgb(97, 135, 255); fill-opacity: 1; fill-rule: evenodd;"/>
  <path d="M 11.518844,234.6935 C 129.56166,172.8881 219.69666,116.7858 389.52226,90.0592 L 308.85306,55.959 L 179.39566,0 C 158.51546,110.5259 84.181964,167.5985 11.518844,234.6935 z" id="path1080" sodipodi:nodetypes="ccccc" style="font-size: 12px; fill: url(#linearGradient1082) rgb(0, 0, 0); fill-opacity: 1; fill-rule: evenodd;"/>
  <path d="M 542.65004,298.07423 C 548.79982,312.15174 519.28549,325.19538 458.938,347.52041 L 267.45006,418.35972 C 255.73407,422.69394 243.17221,411.84975 240.09732,404.811 C 233.94756,390.73354 296.69087,355.42763 380.2385,325.95309 C 463.78619,296.47852 536.50028,283.99678 542.65004,298.07423 z" id="path1087" sodipodi:nodetypes="cssccc" style="font-size: 12px; fill: url(#radialGradient1099) rgb(0, 0, 0); fill-rule: evenodd;"/>
  <path d="M 258.20126,419.3939 L 258.76555,423.45072 L 453.44602,351.94971 C 468.93137,346.26232 554.45404,316.45269 542.60405,298.70421 C 548.24683,312.39594 506.18839,330.25261 452.88173,349.41418 L 258.20126,419.3939 z" id="path1089" sodipodi:nodetypes="ccscsc" style="font-size: 12px; fill: url(#linearGradient1097) rgb(0, 0, 0); fill-rule: evenodd;"/>
  <path d="M 397.18195,887.71838 A 31.401154,30.55246 0 1 1 334.37964,887.71838 A 31.401154,30.55246 0 1 1 397.18195,887.71838 z" id="path1094" sodipodi:cx="365.78079" sodipodi:cy="887.71838" sodipodi:rx="31.401154" sodipodi:ry="30.55246" sodipodi:type="arc" style="fill: url(#radialGradient1100) rgb(0, 0, 0); fill-opacity: 1; fill-rule: evenodd; stroke: none; stroke-width: 1pt; stroke-linecap: butt; stroke-linejoin: miter; stroke-opacity: 1;" transform="matrix(0.378839, 0.905847, -0.815479, 0.338175, 841.949, -226.977)"/>
  <path d="M 13.494514,475.2073 C -8.3651459,484.1765 7.6644241,534.156 33.057364,523.704 L 266.38236,427.6645 C 284.19326,420.3334 263.99476,372.4253 243.42476,380.8653 L 13.494514,475.2073 z" id="path1093" sodipodi:nodetypes="cssss" style="font-size: 12px; fill: rgb(178, 0, 0); fill-opacity: 1; fill-rule: evenodd;"/>
  <path d="M 37.942614,493.855 C 12.100454,461.5575 -3.8307859,510.191 31.740624,519.5491 C 23.392834,523.6029 12.635094,518.6718 7.7125941,508.5352 C 2.7900941,498.3986 4.0665841,481.7941 12.414374,477.7403 C 16.588264,475.7134 234.66486,385.503 239.74516,383.9148 C 262.47306,376.2098 173.68166,403.8944 209.51186,414.2145 L 44.933834,485.146 C 41.451744,486.6468 36.825504,486.2222 35.588964,484.3943 C 32.033534,478.7763 22.106594,477.2243 22.023774,478.5144 C 21.896374,480.7989 30.433664,477.0186 37.942614,493.855 z" id="path1105" sodipodi:nodetypes="cccsscsssc" style="font-size: 12px; fill: url(#linearGradient1098) rgb(0, 0, 0); fill-rule: evenodd; stroke-width: 1;"/>
</svg>