<?xml version="1.0" encoding="UTF-8" standalone="no"?>
<svg
   xmlns:dc="http://purl.org/dc/elements/1.1/"
   xmlns:cc="http://creativecommons.org/ns#"
   xmlns:rdf="http://www.w3.org/1999/02/22-rdf-syntax-ns#"
   xmlns:svg="http://www.w3.org/2000/svg"
   xmlns="http://www.w3.org/2000/svg"
   xmlns:xlink="http://www.w3.org/1999/xlink"
   xmlns:sodipodi="http://sodipodi.sourceforge.net/DTD/sodipodi-0.dtd"
   xmlns:inkscape="http://www.inkscape.org/namespaces/inkscape"
   width="72.752892mm"
   height="121.31557mm"
   id="svg2"
   version="1.1"
   inkscape:version="1.0.2-2 (e86c870879, 2021-01-15)"
   sodipodi:docname="cactus.svg">
  <defs
     id="defs4">
    <linearGradient
       inkscape:collect="always"
       id="linearGradient4146">
      <stop
         style="stop-color:#eeeeec;stop-opacity:1"
         offset="0"
         id="stop4148" />
      <stop
         style="stop-color:#888a85;stop-opacity:1"
         offset="1"
         id="stop4150" />
    </linearGradient>
    <linearGradient
       inkscape:collect="always"
       id="linearGradient3907">
      <stop
         style="stop-color:#000000;stop-opacity:1"
         offset="0"
         id="stop3909" />
      <stop
         style="stop-color:#555753;stop-opacity:1"
         offset="1"
         id="stop3911" />
    </linearGradient>
    <linearGradient
       inkscape:collect="always"
       id="linearGradient3854">
      <stop
         style="stop-color:#65ac4d;stop-opacity:1"
         offset="0"
         id="stop3856" />
      <stop
         style="stop-color:#0c5f2c;stop-opacity:1"
         offset="1"
         id="stop3858" />
    </linearGradient>
    <inkscape:path-effect
       is_visible="true"
       id="path-effect4586"
       effect="spiro"
       lpeversion="0" />
    <inkscape:path-effect
       fuse_tolerance="0"
       vertical_pattern="false"
       prop_units="false"
       tang_offset="0"
       normal_offset="0"
       spacing="0"
       scale_y_rel="false"
       prop_scale="1"
       copytype="single_stretched"
       pattern="m -2.8284272,-2.0710681 9.9999999,5 v -9.9999997 z"
       is_visible="true"
       id="path-effect4579"
       effect="skeletal"
       lpeversion="0"
       hide_knot="false" />
    <inkscape:path-effect
       is_visible="true"
       id="path-effect4577"
       effect="spiro"
       lpeversion="0" />
    <inkscape:path-effect
       effect="skeletal"
       id="path-effect4573"
       is_visible="true"
       pattern="m 166.8772,-2.0710681 10,5 v -9.9999997 z"
       copytype="single_stretched"
       prop_scale="1"
       scale_y_rel="false"
       spacing="0"
       normal_offset="0"
       tang_offset="0"
       prop_units="false"
       vertical_pattern="false"
       fuse_tolerance="0"
       lpeversion="0"
       hide_knot="false" />
    <inkscape:path-effect
       effect="spiro"
       id="path-effect4571"
       is_visible="true"
       lpeversion="0" />
    <inkscape:path-effect
       effect="skeletal"
       id="path-effect4567"
       is_visible="true"
       pattern="M 0,0 V 10 L 10,5 Z"
       copytype="single_stretched"
       prop_scale="1"
       scale_y_rel="false"
       spacing="0"
       normal_offset="0"
       tang_offset="0"
       prop_units="false"
       vertical_pattern="false"
       fuse_tolerance="0"
       lpeversion="0"
       hide_knot="false" />
    <linearGradient
       inkscape:collect="always"
       id="linearGradient4544">
      <stop
         style="stop-color:#ffffff;stop-opacity:1;"
         offset="0"
         id="stop4546" />
      <stop
         style="stop-color:#ffffff;stop-opacity:0;"
         offset="1"
         id="stop4548" />
    </linearGradient>
    <inkscape:path-effect
       effect="skeletal"
       id="path-effect4528"
       is_visible="true"
       pattern="M 0,0 V 10 L 10,5 Z"
       copytype="single_stretched"
       prop_scale="1"
       scale_y_rel="false"
       spacing="0"
       normal_offset="0"
       tang_offset="0"
       prop_units="false"
       vertical_pattern="false"
       fuse_tolerance="0"
       lpeversion="0"
       hide_knot="false" />
    <linearGradient
       inkscape:collect="always"
       id="linearGradient4507">
      <stop
         style="stop-color:#2e3436;stop-opacity:1;"
         offset="0"
         id="stop4509" />
      <stop
         style="stop-color:#2e3436;stop-opacity:0;"
         offset="1"
         id="stop4511" />
    </linearGradient>
    <linearGradient
       inkscape:collect="always"
       id="linearGradient4497">
      <stop
         style="stop-color:#ffffff;stop-opacity:1;"
         offset="0"
         id="stop4499" />
      <stop
         style="stop-color:#ffffff;stop-opacity:0;"
         offset="1"
         id="stop4501" />
    </linearGradient>
    <linearGradient
       inkscape:collect="always"
       id="linearGradient4489">
      <stop
         style="stop-color:#028a2c;stop-opacity:1"
         offset="0"
         id="stop4491" />
      <stop
         style="stop-color:#00484d;stop-opacity:1"
         offset="1"
         id="stop4493" />
    </linearGradient>
    <linearGradient
       inkscape:collect="always"
       id="linearGradient4481">
      <stop
         style="stop-color:#37a42c;stop-opacity:1"
         offset="0"
         id="stop4483" />
      <stop
         style="stop-color:#00484d;stop-opacity:1"
         offset="1"
         id="stop4485" />
    </linearGradient>
    <linearGradient
       inkscape:collect="always"
       id="linearGradient4473">
      <stop
         style="stop-color:#00892c;stop-opacity:1"
         offset="0"
         id="stop4475" />
      <stop
         style="stop-color:#00484d;stop-opacity:1"
         offset="1"
         id="stop4477" />
    </linearGradient>
    <linearGradient
       inkscape:collect="always"
       id="linearGradient4465">
      <stop
         style="stop-color:#00484d;stop-opacity:1"
         offset="0"
         id="stop4467" />
      <stop
         style="stop-color:#00892c;stop-opacity:1"
         offset="1"
         id="stop4469" />
    </linearGradient>
    <linearGradient
       inkscape:collect="always"
       id="linearGradient4457">
      <stop
         style="stop-color:#105a2d;stop-opacity:1"
         offset="0"
         id="stop4459" />
      <stop
         id="stop4524"
         offset="0.40192181"
         style="stop-color:#006e29;stop-opacity:1" />
      <stop
         style="stop-color:#77b753;stop-opacity:1"
         offset="1"
         id="stop4461" />
    </linearGradient>
    <inkscape:path-effect
       effect="skeletal"
       id="path-effect4315"
       is_visible="true"
       pattern="M 0,0 V 10 L 10,5 Z"
       copytype="single_stretched"
       prop_scale="1"
       scale_y_rel="false"
       spacing="0"
       normal_offset="0"
       tang_offset="0"
       prop_units="false"
       vertical_pattern="false"
       fuse_tolerance="0"
       lpeversion="0"
       hide_knot="false" />
    <inkscape:path-effect
       effect="skeletal"
       id="path-effect4306"
       is_visible="true"
       pattern="M 0,0 V 10 L 10,5 Z"
       copytype="single_stretched"
       prop_scale="1"
       scale_y_rel="false"
       spacing="0"
       normal_offset="0"
       tang_offset="0"
       prop_units="false"
       vertical_pattern="false"
       fuse_tolerance="0"
       lpeversion="0"
       hide_knot="false" />
    <inkscape:path-effect
       effect="skeletal"
       id="path-effect4301"
       is_visible="true"
       pattern="M 0,0 V 10 L 10,5 Z"
       copytype="single_stretched"
       prop_scale="1"
       scale_y_rel="false"
       spacing="0"
       normal_offset="0"
       tang_offset="0"
       prop_units="false"
       vertical_pattern="false"
       fuse_tolerance="0"
       lpeversion="0"
       hide_knot="false" />
    <inkscape:path-effect
       effect="skeletal"
       id="path-effect4272"
       is_visible="true"
       pattern="M 0,0 V 10 L 10,5 Z"
       copytype="single_stretched"
       prop_scale="1"
       scale_y_rel="false"
       spacing="0"
       normal_offset="0"
       tang_offset="0"
       prop_units="false"
       vertical_pattern="false"
       fuse_tolerance="0"
       lpeversion="0"
       hide_knot="false" />
    <inkscape:path-effect
       effect="skeletal"
       id="path-effect4268"
       is_visible="true"
       pattern="M 0,0 V 10 L 10,5 Z"
       copytype="single_stretched"
       prop_scale="1"
       scale_y_rel="false"
       spacing="0"
       normal_offset="0"
       tang_offset="0"
       prop_units="false"
       vertical_pattern="false"
       fuse_tolerance="0"
       lpeversion="0"
       hide_knot="false" />
    <inkscape:path-effect
       effect="skeletal"
       id="path-effect4264"
       is_visible="true"
       pattern="M 0,0 V 10 L 10,5 Z"
       copytype="single_stretched"
       prop_scale="1"
       scale_y_rel="false"
       spacing="0"
       normal_offset="0"
       tang_offset="0"
       prop_units="false"
       vertical_pattern="false"
       fuse_tolerance="0"
       lpeversion="0"
       hide_knot="false" />
    <inkscape:path-effect
       effect="skeletal"
       id="path-effect4260"
       is_visible="true"
       pattern="M 0,0 V 10 L 10,5 Z"
       copytype="single_stretched"
       prop_scale="1"
       scale_y_rel="false"
       spacing="0"
       normal_offset="0"
       tang_offset="0"
       prop_units="false"
       vertical_pattern="false"
       fuse_tolerance="0"
       lpeversion="0"
       hide_knot="false" />
    <inkscape:path-effect
       effect="skeletal"
       id="path-effect4256"
       is_visible="true"
       pattern="M 0,0 V 10 L 10,5 Z"
       copytype="single_stretched"
       prop_scale="1"
       scale_y_rel="false"
       spacing="0"
       normal_offset="0"
       tang_offset="0"
       prop_units="false"
       vertical_pattern="false"
       fuse_tolerance="0"
       lpeversion="0"
       hide_knot="false" />
    <inkscape:path-effect
       effect="skeletal"
       id="path-effect4252"
       is_visible="true"
       pattern="M 0,0 V 10 L 10,5 Z"
       copytype="single_stretched"
       prop_scale="1"
       scale_y_rel="false"
       spacing="0"
       normal_offset="0"
       tang_offset="0"
       prop_units="false"
       vertical_pattern="false"
       fuse_tolerance="0"
       lpeversion="0"
       hide_knot="false" />
    <inkscape:path-effect
       effect="skeletal"
       id="path-effect4248"
       is_visible="true"
       pattern="M 0,0 V 10 L 10,5 Z"
       copytype="single_stretched"
       prop_scale="1"
       scale_y_rel="false"
       spacing="0"
       normal_offset="0"
       tang_offset="0"
       prop_units="false"
       vertical_pattern="false"
       fuse_tolerance="0"
       lpeversion="0"
       hide_knot="false" />
    <inkscape:path-effect
       effect="skeletal"
       id="path-effect4244"
       is_visible="true"
       pattern="M 0,0 V 10 L 10,5 Z"
       copytype="single_stretched"
       prop_scale="1"
       scale_y_rel="false"
       spacing="0"
       normal_offset="0"
       tang_offset="0"
       prop_units="false"
       vertical_pattern="false"
       fuse_tolerance="0"
       lpeversion="0"
       hide_knot="false" />
    <inkscape:path-effect
       effect="skeletal"
       id="path-effect4240"
       is_visible="true"
       pattern="M 0,0 V 10 L 10,5 Z"
       copytype="single_stretched"
       prop_scale="1"
       scale_y_rel="false"
       spacing="0"
       normal_offset="0"
       tang_offset="0"
       prop_units="false"
       vertical_pattern="false"
       fuse_tolerance="0"
       lpeversion="0"
       hide_knot="false" />
    <inkscape:path-effect
       effect="skeletal"
       id="path-effect4236"
       is_visible="true"
       pattern="M 0,0 V 10 L 10,5 Z"
       copytype="single_stretched"
       prop_scale="1"
       scale_y_rel="false"
       spacing="0"
       normal_offset="0"
       tang_offset="0"
       prop_units="false"
       vertical_pattern="false"
       fuse_tolerance="0"
       lpeversion="0"
       hide_knot="false" />
    <inkscape:path-effect
       effect="skeletal"
       id="path-effect4232"
       is_visible="true"
       pattern="M 0,0 V 10 L 10,5 Z"
       copytype="single_stretched"
       prop_scale="1"
       scale_y_rel="false"
       spacing="0"
       normal_offset="0"
       tang_offset="0"
       prop_units="false"
       vertical_pattern="false"
       fuse_tolerance="0"
       lpeversion="0"
       hide_knot="false" />
    <inkscape:path-effect
       effect="skeletal"
       id="path-effect4228"
       is_visible="true"
       pattern="M 0,0 V 10 L 10,5 Z"
       copytype="single_stretched"
       prop_scale="1"
       scale_y_rel="false"
       spacing="0"
       normal_offset="0"
       tang_offset="0"
       prop_units="false"
       vertical_pattern="false"
       fuse_tolerance="0"
       lpeversion="0"
       hide_knot="false" />
    <inkscape:path-effect
       effect="skeletal"
       id="path-effect4224"
       is_visible="true"
       pattern="M 0,0 V 10 L 10,5 Z"
       copytype="single_stretched"
       prop_scale="1"
       scale_y_rel="false"
       spacing="0"
       normal_offset="0"
       tang_offset="0"
       prop_units="false"
       vertical_pattern="false"
       fuse_tolerance="0"
       lpeversion="0"
       hide_knot="false" />
    <inkscape:path-effect
       effect="skeletal"
       id="path-effect4220"
       is_visible="true"
       pattern="M 0,0 V 10 L 10,5 Z"
       copytype="single_stretched"
       prop_scale="1"
       scale_y_rel="false"
       spacing="0"
       normal_offset="0"
       tang_offset="0"
       prop_units="false"
       vertical_pattern="false"
       fuse_tolerance="0"
       lpeversion="0"
       hide_knot="false" />
    <inkscape:path-effect
       effect="skeletal"
       id="path-effect4216"
       is_visible="true"
       pattern="M 0,0 V 10 L 10,5 Z"
       copytype="single_stretched"
       prop_scale="1"
       scale_y_rel="false"
       spacing="0"
       normal_offset="0"
       tang_offset="0"
       prop_units="false"
       vertical_pattern="false"
       fuse_tolerance="0"
       lpeversion="0"
       hide_knot="false" />
    <inkscape:path-effect
       effect="skeletal"
       id="path-effect4212"
       is_visible="true"
       pattern="M 0,0 V 10 L 10,5 Z"
       copytype="single_stretched"
       prop_scale="1"
       scale_y_rel="false"
       spacing="0"
       normal_offset="0"
       tang_offset="0"
       prop_units="false"
       vertical_pattern="false"
       fuse_tolerance="0"
       lpeversion="0"
       hide_knot="false" />
    <inkscape:path-effect
       effect="skeletal"
       id="path-effect4208"
       is_visible="true"
       pattern="M 0,0 V 10 L 10,5 Z"
       copytype="single_stretched"
       prop_scale="1"
       scale_y_rel="false"
       spacing="0"
       normal_offset="0"
       tang_offset="0"
       prop_units="false"
       vertical_pattern="false"
       fuse_tolerance="0"
       lpeversion="0"
       hide_knot="false" />
    <inkscape:path-effect
       effect="skeletal"
       id="path-effect4204"
       is_visible="true"
       pattern="M 0,0 V 10 L 10,5 Z"
       copytype="single_stretched"
       prop_scale="1"
       scale_y_rel="false"
       spacing="0"
       normal_offset="0"
       tang_offset="0"
       prop_units="false"
       vertical_pattern="false"
       fuse_tolerance="0"
       lpeversion="0"
       hide_knot="false" />
    <inkscape:path-effect
       effect="skeletal"
       id="path-effect4200"
       is_visible="true"
       pattern="M 0,0 V 10 L 10,5 Z"
       copytype="single_stretched"
       prop_scale="1"
       scale_y_rel="false"
       spacing="0"
       normal_offset="0"
       tang_offset="0"
       prop_units="false"
       vertical_pattern="false"
       fuse_tolerance="0"
       lpeversion="0"
       hide_knot="false" />
    <inkscape:path-effect
       effect="skeletal"
       id="path-effect4196"
       is_visible="true"
       pattern="M 0,0 V 10 L 10,5 Z"
       copytype="single_stretched"
       prop_scale="1"
       scale_y_rel="false"
       spacing="0"
       normal_offset="0"
       tang_offset="0"
       prop_units="false"
       vertical_pattern="false"
       fuse_tolerance="0"
       lpeversion="0"
       hide_knot="false" />
    <inkscape:path-effect
       effect="skeletal"
       id="path-effect4192"
       is_visible="true"
       pattern="M 0,0 V 10 L 10,5 Z"
       copytype="single_stretched"
       prop_scale="1"
       scale_y_rel="false"
       spacing="0"
       normal_offset="0"
       tang_offset="0"
       prop_units="false"
       vertical_pattern="false"
       fuse_tolerance="0"
       lpeversion="0"
       hide_knot="false" />
    <inkscape:path-effect
       effect="skeletal"
       id="path-effect4188"
       is_visible="true"
       pattern="M 0,0 V 10 L 10,5 Z"
       copytype="single_stretched"
       prop_scale="1"
       scale_y_rel="false"
       spacing="0"
       normal_offset="0"
       tang_offset="0"
       prop_units="false"
       vertical_pattern="false"
       fuse_tolerance="0"
       lpeversion="0"
       hide_knot="false" />
    <inkscape:path-effect
       effect="skeletal"
       id="path-effect4184"
       is_visible="true"
       pattern="M 0,0 V 10 L 10,5 Z"
       copytype="single_stretched"
       prop_scale="1"
       scale_y_rel="false"
       spacing="0"
       normal_offset="0"
       tang_offset="0"
       prop_units="false"
       vertical_pattern="false"
       fuse_tolerance="0"
       lpeversion="0"
       hide_knot="false" />
    <inkscape:path-effect
       effect="skeletal"
       id="path-effect4180"
       is_visible="true"
       pattern="M 0,0 V 10 L 10,5 Z"
       copytype="single_stretched"
       prop_scale="1"
       scale_y_rel="false"
       spacing="0"
       normal_offset="0"
       tang_offset="0"
       prop_units="false"
       vertical_pattern="false"
       fuse_tolerance="0"
       lpeversion="0"
       hide_knot="false" />
    <inkscape:path-effect
       effect="skeletal"
       id="path-effect4176"
       is_visible="true"
       pattern="M 0,0 V 10 L 10,5 Z"
       copytype="single_stretched"
       prop_scale="1"
       scale_y_rel="false"
       spacing="0"
       normal_offset="0"
       tang_offset="0"
       prop_units="false"
       vertical_pattern="false"
       fuse_tolerance="0"
       lpeversion="0"
       hide_knot="false" />
    <inkscape:perspective
       sodipodi:type="inkscape:persp3d"
       inkscape:vp_x="0 : -301.06242 : 1"
       inkscape:vp_y="0 : 1000 : 0"
       inkscape:vp_z="744.09448 : -301.06242 : 1"
       inkscape:persp3d-origin="372.04724 : -476.45612 : 1"
       id="perspective10" />
    <linearGradient
       gradientTransform="matrix(0.62957086,-0.08094375,0.08094375,0.62957086,900.7497,106.03735)"
       y2="-166.13782"
       x2="-1729.786"
       y1="-199.52618"
       x1="-1683"
       gradientUnits="userSpaceOnUse"
       id="linearGradient4157"
       xlink:href="#linearGradient2977"
       inkscape:collect="always" />
    <linearGradient
       gradientTransform="matrix(0.62957086,-0.08094375,0.08094375,0.62957086,900.7497,106.03735)"
       y2="-145.13782"
       x2="-1712.5"
       y1="-113.63782"
       x1="-1772.5"
       gradientUnits="userSpaceOnUse"
       id="linearGradient4154"
       xlink:href="#linearGradient2985"
       inkscape:collect="always" />
    <linearGradient
       y2="2.3519762"
       x2="-1004.8273"
       y1="55.90192"
       x1="-1099.5072"
       gradientTransform="matrix(-0.54677999,-0.15733699,-0.15733699,0.54677999,-628.69555,-131.73681)"
       gradientUnits="userSpaceOnUse"
       id="linearGradient4151"
       xlink:href="#linearGradient2977"
       inkscape:collect="always" />
    <linearGradient
       y2="85.596619"
       x2="-1148.1886"
       y1="28.699799"
       x1="-1082.3668"
       gradientTransform="matrix(-0.54677999,-0.15733699,-0.15733699,0.54677999,-628.69555,-131.73681)"
       gradientUnits="userSpaceOnUse"
       id="linearGradient4148"
       xlink:href="#linearGradient2985"
       inkscape:collect="always" />
    <linearGradient
       gradientTransform="matrix(-0.67942728,-0.14069071,-0.14069071,0.67942728,-895.18266,-6.8741933)"
       y2="56.605263"
       x2="-1250.2734"
       y1="87.497284"
       x1="-1316.9387"
       gradientUnits="userSpaceOnUse"
       id="linearGradient4145"
       xlink:href="#linearGradient2977"
       inkscape:collect="always" />
    <linearGradient
       gradientTransform="matrix(-0.67942728,-0.14069071,-0.14069071,0.67942728,-895.18266,-6.8741933)"
       y2="97.335373"
       x2="-1310.9418"
       y1="124.88399"
       x1="-1360.1708"
       gradientUnits="userSpaceOnUse"
       id="linearGradient4142"
       xlink:href="#linearGradient2985"
       inkscape:collect="always" />
    <linearGradient
       y2="745.89062"
       x2="314.66251"
       y1="745.89062"
       x1="509.82401"
       gradientTransform="matrix(0.63475299,0,0,0.63475299,-418.17036,-28.81566)"
       gradientUnits="userSpaceOnUse"
       id="linearGradient4131"
       xlink:href="#linearGradient3986"
       inkscape:collect="always" />
    <linearGradient
       y2="1181.2943"
       x2="224"
       y1="1122.0945"
       x1="214"
       gradientTransform="matrix(0.96451954,-0.02277138,0.02277138,0.96451954,-537.25408,-578.05536)"
       gradientUnits="userSpaceOnUse"
       id="linearGradient4129"
       xlink:href="#linearGradient3955"
       inkscape:collect="always" />
    <linearGradient
       y2="1181.2943"
       x2="224"
       y1="1122.0945"
       x1="214"
       gradientTransform="matrix(0.63475299,0,0,0.63475299,-418.17036,-28.81566)"
       gradientUnits="userSpaceOnUse"
       id="linearGradient4127"
       xlink:href="#linearGradient3955"
       inkscape:collect="always" />
    <linearGradient
       y2="-145.13782"
       x2="-1712.5"
       y1="-113.63782"
       x1="-1772.5"
       gradientUnits="userSpaceOnUse"
       id="linearGradient4125"
       xlink:href="#linearGradient2985"
       inkscape:collect="always" />
    <linearGradient
       y2="-166.13782"
       x2="-1729.786"
       y1="-199.52618"
       x1="-1683"
       gradientUnits="userSpaceOnUse"
       id="linearGradient4123"
       xlink:href="#linearGradient2977"
       inkscape:collect="always" />
    <linearGradient
       y2="-408.54089"
       x2="-1588.3799"
       y1="-408.54089"
       x1="-1658.8496"
       gradientTransform="matrix(0.58070821,0,0,0.58070821,823.0054,211.11131)"
       gradientUnits="userSpaceOnUse"
       id="linearGradient4121"
       xlink:href="#linearGradient2977"
       inkscape:collect="always" />
    <linearGradient
       y2="85.596619"
       x2="-1148.1886"
       y1="28.699799"
       x1="-1082.3668"
       gradientTransform="matrix(-0.89635948,0,0,0.89635948,-2433.9061,-393.9505)"
       gradientUnits="userSpaceOnUse"
       id="linearGradient4119"
       xlink:href="#linearGradient2985"
       inkscape:collect="always" />
    <linearGradient
       y2="2.3519762"
       x2="-1004.8273"
       y1="55.90192"
       x1="-1099.5072"
       gradientTransform="matrix(-0.89635948,0,0,0.89635948,-2433.9061,-702.2182)"
       gradientUnits="userSpaceOnUse"
       id="linearGradient4117"
       xlink:href="#linearGradient2977"
       inkscape:collect="always" />
    <linearGradient
       y2="97.335373"
       x2="-1310.9418"
       y1="124.88399"
       x1="-1360.1708"
       gradientUnits="userSpaceOnUse"
       id="linearGradient4115"
       xlink:href="#linearGradient2985"
       inkscape:collect="always" />
    <linearGradient
       y2="56.605263"
       x2="-1250.2734"
       y1="87.497284"
       x1="-1316.9387"
       gradientUnits="userSpaceOnUse"
       id="linearGradient4113"
       xlink:href="#linearGradient2977"
       inkscape:collect="always" />
    <linearGradient
       y2="752.09448"
       x2="252.59602"
       y1="752.09448"
       x1="708.59601"
       gradientUnits="userSpaceOnUse"
       id="linearGradient4111"
       xlink:href="#linearGradient3943"
       inkscape:collect="always" />
    <linearGradient
       y2="692.09448"
       x2="770"
       y1="755.15863"
       x1="191.26204"
       gradientUnits="userSpaceOnUse"
       id="linearGradient4109"
       xlink:href="#linearGradient3163"
       inkscape:collect="always" />
    <linearGradient
       y2="930.09375"
       x2="482"
       y1="1182.0938"
       x1="206"
       gradientTransform="matrix(0.63475299,0,0,0.63475299,-418.17036,-28.81566)"
       gradientUnits="userSpaceOnUse"
       id="linearGradient4107"
       xlink:href="#linearGradient3155"
       inkscape:collect="always" />
    <linearGradient
       y2="1181.2943"
       x2="224"
       y1="1122.0945"
       x1="214"
       gradientTransform="translate(-438,-40)"
       gradientUnits="userSpaceOnUse"
       id="linearGradient3969"
       xlink:href="#linearGradient3955"
       inkscape:collect="always" />
    <linearGradient
       gradientUnits="userSpaceOnUse"
       y2="752.09448"
       x2="252.59602"
       y1="752.09448"
       x1="708.59601"
       id="linearGradient3949"
       xlink:href="#linearGradient3943"
       inkscape:collect="always"
       gradientTransform="matrix(0.21135629,0,0,0.21135629,-177.53898,136.39486)" />
    <linearGradient
       id="linearGradient2985"
       inkscape:collect="always">
      <stop
         id="stop2987"
         offset="0"
         style="stop-color:#00892c;stop-opacity:1" />
      <stop
         id="stop2989"
         offset="1"
         style="stop-color:#006e29;stop-opacity:1" />
    </linearGradient>
    <linearGradient
       id="linearGradient2977"
       inkscape:collect="always">
      <stop
         id="stop2979"
         offset="0"
         style="stop-color:#37a42c;stop-opacity:1" />
      <stop
         id="stop2981"
         offset="1"
         style="stop-color:#00892c;stop-opacity:1" />
    </linearGradient>
    <inkscape:perspective
       sodipodi:type="inkscape:persp3d"
       inkscape:vp_x="0 : -826.74351 : 1"
       inkscape:vp_y="0 : 1000 : 0"
       inkscape:vp_z="1 : -826.74351 : 1"
       inkscape:persp3d-origin="0.5 : -826.91017 : 1"
       id="perspective2950" />
    <inkscape:perspective
       id="perspective3030"
       inkscape:persp3d-origin="526.18109 : -579.21202 : 1"
       inkscape:vp_z="1052.3622 : -455.19627 : 1"
       inkscape:vp_y="0 : 1000 : 0"
       inkscape:vp_x="0 : -455.19627 : 1"
       sodipodi:type="inkscape:persp3d" />
    <linearGradient
       id="linearGradient3155"
       inkscape:collect="always">
      <stop
         id="stop3157"
         offset="0"
         style="stop-color:#590000;stop-opacity:1" />
      <stop
         id="stop3159"
         offset="1"
         style="stop-color:#bf0000;stop-opacity:1" />
    </linearGradient>
    <linearGradient
       id="linearGradient3163">
      <stop
         id="stop3165"
         offset="0"
         style="stop-color:#ffffff;stop-opacity:1;" />
      <stop
         id="stop3167"
         offset="1"
         style="stop-color:#ffffff;stop-opacity:0.50602412;" />
    </linearGradient>
    <linearGradient
       id="linearGradient3943"
       inkscape:collect="always">
      <stop
         id="stop3945"
         offset="0"
         style="stop-color:#590000;stop-opacity:1" />
      <stop
         id="stop3947"
         offset="1"
         style="stop-color:#bf0000;stop-opacity:1" />
    </linearGradient>
    <linearGradient
       id="linearGradient3955"
       inkscape:collect="always">
      <stop
         id="stop3957"
         offset="0"
         style="stop-color:#2e3436;stop-opacity:1;" />
      <stop
         id="stop3959"
         offset="1"
         style="stop-color:#2e3436;stop-opacity:0;" />
    </linearGradient>
    <linearGradient
       id="linearGradient3986"
       inkscape:collect="always">
      <stop
         id="stop3988"
         offset="0"
         style="stop-color:#803f00;stop-opacity:1" />
      <stop
         id="stop3990"
         offset="1"
         style="stop-color:#bf5e00;stop-opacity:1" />
    </linearGradient>
    <linearGradient
       inkscape:collect="always"
       xlink:href="#linearGradient4465"
       id="linearGradient4471"
       x1="254.04089"
       y1="908.36218"
       x2="254.04089"
       y2="338.36218"
       gradientUnits="userSpaceOnUse"
       gradientTransform="matrix(0.35324963,0,0,0.35324963,-203.0732,-6.091905)" />
    <linearGradient
       inkscape:collect="always"
       xlink:href="#linearGradient4473"
       id="linearGradient4479"
       x1="282"
       y1="330.36218"
       x2="284.43747"
       y2="967.65625"
       gradientUnits="userSpaceOnUse"
       gradientTransform="matrix(0.35324963,0,0,0.35324963,-203.0732,-6.091905)" />
    <linearGradient
       inkscape:collect="always"
       xlink:href="#linearGradient4481"
       id="linearGradient4487"
       x1="384"
       y1="240.36218"
       x2="356.63544"
       y2="1024.3622"
       gradientUnits="userSpaceOnUse"
       gradientTransform="matrix(0.35324963,0,0,0.35324963,-203.0732,-6.091905)" />
    <linearGradient
       inkscape:collect="always"
       xlink:href="#linearGradient4489"
       id="linearGradient4495"
       x1="460"
       y1="364.36218"
       x2="462.24783"
       y2="916.36218"
       gradientUnits="userSpaceOnUse"
       gradientTransform="matrix(0.35324963,0,0,0.35324963,-203.0732,-6.091905)" />
    <linearGradient
       inkscape:collect="always"
       xlink:href="#linearGradient4497"
       id="linearGradient4503"
       x1="-770.88794"
       y1="262.19946"
       x2="-1050.8879"
       y2="452.19946"
       gradientUnits="userSpaceOnUse"
       gradientTransform="translate(-2,2)" />
    <linearGradient
       inkscape:collect="always"
       xlink:href="#linearGradient4507"
       id="linearGradient4513"
       x1="-960.88794"
       y1="1004.4852"
       x2="-806.76733"
       y2="808.48517"
       gradientUnits="userSpaceOnUse" />
    <linearGradient
       inkscape:collect="always"
       xlink:href="#linearGradient4497"
       id="linearGradient4520"
       gradientUnits="userSpaceOnUse"
       gradientTransform="translate(-2,2)"
       x1="-770.88794"
       y1="262.19946"
       x2="-1050.8879"
       y2="452.19946" />
    <linearGradient
       inkscape:collect="always"
       xlink:href="#linearGradient4507"
       id="linearGradient4522"
       gradientUnits="userSpaceOnUse"
       x1="-960.88794"
       y1="1004.4852"
       x2="-806.76733"
       y2="808.48517" />
    <radialGradient
       inkscape:collect="always"
       xlink:href="#linearGradient4544"
       id="radialGradient4550"
       cx="-574.30219"
       cy="216.62816"
       fx="-574.30219"
       fy="216.62816"
       r="67.2724"
       gradientTransform="matrix(1.6491755,-0.76912497,1.1976653,2.5680615,113.37489,-781.39641)"
       gradientUnits="userSpaceOnUse" />
    <radialGradient
       inkscape:collect="always"
       xlink:href="#linearGradient4544"
       id="radialGradient4554"
       gradientUnits="userSpaceOnUse"
       gradientTransform="matrix(1.6491755,-0.76912497,1.1976653,2.5680615,89.37489,-773.39641)"
       cx="-574.30219"
       cy="216.62816"
       fx="-574.30219"
       fy="216.62816"
       r="67.2724" />
    <radialGradient
       inkscape:collect="always"
       xlink:href="#linearGradient4544"
       id="radialGradient4557"
       gradientUnits="userSpaceOnUse"
       gradientTransform="matrix(1.6491755,-0.76912497,1.1976653,2.5680615,173.37489,-979.39641)"
       cx="-574.30219"
       cy="216.62816"
       fx="-574.30219"
       fy="216.62816"
       r="67.2724" />
    <linearGradient
       inkscape:collect="always"
       xlink:href="#linearGradient3986"
       id="linearGradient3013"
       gradientUnits="userSpaceOnUse"
       gradientTransform="matrix(0.31913399,0,0,0.31913399,-199.46683,63.15882)"
       x1="509.82401"
       y1="745.89062"
       x2="314.66251"
       y2="745.89062" />
    <linearGradient
       inkscape:collect="always"
       xlink:href="#linearGradient3955"
       id="linearGradient3016"
       gradientUnits="userSpaceOnUse"
       gradientTransform="matrix(0.48493032,-0.01144874,0.01144874,0.48493032,-259.33842,-212.98176)"
       x1="214"
       y1="1122.0945"
       x2="224"
       y2="1181.2943" />
    <linearGradient
       inkscape:collect="always"
       xlink:href="#linearGradient3955"
       id="linearGradient3019"
       gradientUnits="userSpaceOnUse"
       gradientTransform="matrix(0.31913399,0,0,0.31913399,-199.46683,63.15882)"
       x1="214"
       y1="1122.0945"
       x2="224"
       y2="1181.2943" />
    <linearGradient
       inkscape:collect="always"
       xlink:href="#linearGradient3155"
       id="linearGradient3024"
       gradientUnits="userSpaceOnUse"
       gradientTransform="matrix(0.31913399,0,0,0.31913399,-199.46683,63.15882)"
       x1="206"
       y1="1182.0938"
       x2="482"
       y2="930.09375" />
    <linearGradient
       inkscape:collect="always"
       xlink:href="#linearGradient4457"
       id="linearGradient3063"
       gradientUnits="userSpaceOnUse"
       gradientTransform="matrix(0.35324963,0,0,0.35324963,-203.0732,-5.874259)"
       x1="226.31519"
       y1="874.36218"
       x2="496.37552"
       y2="86.362183" />
    <filter
       inkscape:collect="always"
       id="filter3870"
       x="-0.4719092"
       width="1.9438184"
       y="-0.16916892"
       height="1.3383378"
       color-interpolation-filters="sRGB">
      <feGaussianBlur
         inkscape:collect="always"
         stdDeviation="17.943073"
         id="feGaussianBlur3872" />
    </filter>
    <linearGradient
       inkscape:collect="always"
       xlink:href="#linearGradient3854"
       id="linearGradient3882"
       gradientUnits="userSpaceOnUse"
       gradientTransform="translate(4,-8)"
       x1="313.28506"
       y1="759.62"
       x2="267.65829"
       y2="759.62" />
    <linearGradient
       inkscape:collect="always"
       xlink:href="#linearGradient3907"
       id="linearGradient3913"
       x1="-59.926781"
       y1="596.20312"
       x2="-215.72246"
       y2="177.3125"
       gradientUnits="userSpaceOnUse"
       spreadMethod="reflect"
       gradientTransform="translate(378,8)" />
    <filter
       inkscape:collect="always"
       id="filter3943"
       x="-0.31864443"
       width="1.6372889"
       y="-0.065511554"
       height="1.131023"
       color-interpolation-filters="sRGB">
      <feGaussianBlur
         inkscape:collect="always"
         stdDeviation="20.684761"
         id="feGaussianBlur3945" />
    </filter>
    <linearGradient
       inkscape:collect="always"
       xlink:href="#linearGradient3155"
       id="linearGradient4046"
       gradientUnits="userSpaceOnUse"
       gradientTransform="matrix(0.90342343,0,0,0.90342343,-781.79089,98.03906)"
       x1="206"
       y1="1182.0938"
       x2="482"
       y2="930.09375" />
    <linearGradient
       inkscape:collect="always"
       xlink:href="#linearGradient3943"
       id="linearGradient4048"
       gradientUnits="userSpaceOnUse"
       x1="708.59601"
       y1="752.09448"
       x2="252.59602"
       y2="752.09448" />
    <linearGradient
       inkscape:collect="always"
       xlink:href="#linearGradient3955"
       id="linearGradient4050"
       gradientUnits="userSpaceOnUse"
       gradientTransform="matrix(0.90342343,0,0,0.90342343,-781.79089,98.03906)"
       x1="214"
       y1="1122.0945"
       x2="224"
       y2="1181.2943" />
    <linearGradient
       inkscape:collect="always"
       xlink:href="#linearGradient3955"
       id="linearGradient4052"
       gradientUnits="userSpaceOnUse"
       gradientTransform="matrix(1.3727695,-0.03240977,0.03240977,1.3727695,-951.27891,-683.67607)"
       x1="214"
       y1="1122.0945"
       x2="224"
       y2="1181.2943" />
    <linearGradient
       inkscape:collect="always"
       xlink:href="#linearGradient3986"
       id="linearGradient4054"
       gradientUnits="userSpaceOnUse"
       gradientTransform="matrix(0.90342343,0,0,0.90342343,-781.79089,98.03906)"
       x1="509.82401"
       y1="745.89062"
       x2="314.66251"
       y2="745.89062" />
    <linearGradient
       inkscape:collect="always"
       xlink:href="#linearGradient4457"
       id="linearGradient4056"
       gradientUnits="userSpaceOnUse"
       gradientTransform="translate(-792,-97.383876)"
       x1="226.31519"
       y1="874.36218"
       x2="496.37552"
       y2="86.362183" />
    <linearGradient
       inkscape:collect="always"
       xlink:href="#linearGradient4465"
       id="linearGradient4058"
       gradientUnits="userSpaceOnUse"
       x1="254.04089"
       y1="908.36218"
       x2="254.04089"
       y2="338.36218"
       gradientTransform="translate(-792,-98)" />
    <linearGradient
       inkscape:collect="always"
       xlink:href="#linearGradient3854"
       id="linearGradient4060"
       gradientUnits="userSpaceOnUse"
       gradientTransform="translate(4,-8)"
       x1="313.28506"
       y1="759.62"
       x2="267.65829"
       y2="759.62" />
    <linearGradient
       inkscape:collect="always"
       xlink:href="#linearGradient4489"
       id="linearGradient4062"
       gradientUnits="userSpaceOnUse"
       x1="460"
       y1="364.36218"
       x2="462.24783"
       y2="916.36218"
       gradientTransform="translate(-792,-98)" />
    <linearGradient
       inkscape:collect="always"
       xlink:href="#linearGradient4473"
       id="linearGradient4064"
       gradientUnits="userSpaceOnUse"
       x1="282"
       y1="330.36218"
       x2="284.43747"
       y2="967.65625"
       gradientTransform="translate(-792,-98)" />
    <linearGradient
       inkscape:collect="always"
       xlink:href="#linearGradient4481"
       id="linearGradient4066"
       gradientUnits="userSpaceOnUse"
       x1="384"
       y1="240.36218"
       x2="356.63544"
       y2="1024.3622"
       gradientTransform="translate(-792,-98)" />
    <linearGradient
       inkscape:collect="always"
       xlink:href="#linearGradient3907"
       id="linearGradient4068"
       gradientUnits="userSpaceOnUse"
       gradientTransform="translate(-414,-90)"
       spreadMethod="reflect"
       x1="-59.926781"
       y1="596.20312"
       x2="-215.72246"
       y2="177.3125" />
    <linearGradient
       inkscape:collect="always"
       xlink:href="#linearGradient4146"
       id="linearGradient4152"
       x1="-80"
       y1="996.36218"
       x2="278"
       y2="1104.7538"
       gradientUnits="userSpaceOnUse" />
    <filter
       inkscape:collect="always"
       id="filter4158">
      <feGaussianBlur
         inkscape:collect="always"
         stdDeviation="1.349328"
         id="feGaussianBlur4160" />
    </filter>
  </defs>
  <sodipodi:namedview
     id="base"
     pagecolor="#ffffff"
     bordercolor="#666666"
     borderopacity="1.0"
     inkscape:pageopacity="0.0"
     inkscape:pageshadow="2"
     inkscape:zoom="1"
     inkscape:cx="155.50784"
     inkscape:cy="312.00166"
     inkscape:document-units="px"
     inkscape:current-layer="layer1"
     showgrid="false"
     inkscape:window-width="1920"
     inkscape:window-height="1017"
     inkscape:window-x="-8"
     inkscape:window-y="-8"
     inkscape:window-maximized="1"
     inkscape:document-rotation="0"
     units="mm" />
  <metadata
     id="metadata7">
    <rdf:RDF>
      <cc:Work
         rdf:about="">
        <dc:format>image/svg+xml</dc:format>
        <dc:type
           rdf:resource="http://purl.org/dc/dcmitype/StillImage" />
        <dc:title />
      </cc:Work>
    </rdf:RDF>
  </metadata>
  <g
     inkscape:label="Capa 1"
     inkscape:groupmode="layer"
     id="layer1"
     transform="translate(270.48529,13.788785)">
    <path
       id="path4104"
       d="m 45.57028,961.88282 c -0.25917,0.10906 -0.49405,0.21814 -0.70684,0.33337 -2.59889,1.27756 -5.61284,2.5003 -9.09784,3.66008 -3.87775,1.63184 -7.75014,3.26446 -11.6279,4.89631 -32.75289,-4.78252 -70.29238,-7.97263 -101.94314,-7.97995 -1.5532,-4.4e-4 -3.10244,0.006 -4.62624,0.0208 -41.28325,0.41084 -76.93457,5.9616 -94.00471,13.54298 -5.04559,-0.79012 -10.0878,-1.57816 -15.13339,-2.36828 -7.28143,-1.01001 -14.34556,-2.09417 -21.17636,-3.24338 -0.5455,-0.0946 -1.08539,-0.1893 -1.65054,-0.2778 0.64563,0.12356 1.31419,0.24673 1.98946,0.36115 6.54959,1.17384 12.89756,2.40787 19.01353,3.71564 l 14.8043,2.8336 c -4.01019,2.02006 -6.73075,4.16744 -7.91248,6.38952 -1.21438,2.28346 -1.65801,4.58913 -1.41146,6.9104 -17.69545,-0.52459 -35.39014,-1.05197 -53.08559,-1.57655 -7.51489,-0.10265 -15.07954,-0.31228 -22.6937,-0.61117 -0.6165,-0.0267 -1.23803,-0.0513 -1.85013,-0.0694 0.74311,0.0422 1.48578,0.0812 2.22272,0.11112 7.52777,0.35987 15.08874,0.81126 22.71266,1.36124 l 53.12716,3.01419 c 1.23012,4.19235 4.62612,8.43991 9.80245,12.73731 l -1.65658,-0.1736 c -7.69937,-0.6748 -15.2727,-1.4411 -22.73198,-2.285 -0.59962,-0.07 -1.21155,-0.1384 -1.82165,-0.2014 0.63595,0.084 1.28604,0.1608 1.93422,0.2362 7.33595,0.8944 14.56453,1.8693 21.66323,2.9308 l 3.89726,0.5139 c 3.56826,2.8166 7.88509,5.6532 12.82917,8.5078 -17.30183,-1.0271 -34.58171,-2.0565 -51.88354,-3.0836 -7.7138,-0.3395 -15.42609,-0.7779 -23.10131,-1.3057 -0.61932,-0.045 -1.2467,-0.088 -1.86774,-0.125 0.76607,0.066 1.55418,0.1271 2.32285,0.1806 7.51041,0.5807 15.02438,1.2523 22.4977,2.014 18.87977,1.6295 37.75356,3.253 56.63332,4.8825 12.14075,6.5495 27.41531,13.1861 44.45021,19.8839 l -0.52005,-0.014 -62.67604,-1.8127 c -7.50895,-0.098 -15.06253,-0.3034 -22.67368,-0.5973 -0.61621,-0.026 -1.23834,-0.052 -1.85013,-0.07 0.79884,0.045 1.59755,0.087 2.38898,0.1181 7.46989,0.3538 14.99021,0.7993 22.55762,1.3404 l 63.5845,3.5698 6.63449,0.3751 c 9.15328,3.5082 18.75333,7.0295 28.57444,10.5635 l -10.2161,-0.5834 c -7.58765,-0.3165 -15.14936,-0.7293 -22.70991,-1.2293 -0.73642,-0.054 -1.47216,-0.1037 -2.21029,-0.1458 0.72201,0.061 1.45416,0.1173 2.17783,0.1667 7.56116,0.5663 15.12238,1.2221 22.65637,1.9724 l 14.11857,1.1876 c 14.03052,5.0228 28.49479,10.0677 42.83087,15.1195 l -3.25361,0.062 -58.76401,1.139 c -6.80859,0.2582 -13.77667,0.4087 -20.88158,0.4723 -0.7033,7e-4 -1.37959,0.01 -2.06373,0.021 7.88082,-0.014 15.93178,0.092 24.16936,0.3126 l 61.47253,0.6528 7.04765,0.076 c 13.40353,4.7463 26.60984,9.4973 39.16291,14.2445 -8.56201,-0.2832 -17.12841,-0.5642 -25.69042,-0.8474 -7.55564,-0.1299 -15.13303,-0.3616 -22.77259,-0.6875 -0.61748,-0.029 -1.21515,-0.056 -1.8289,-0.076 0.62107,0.037 1.24149,0.068 1.85894,0.097 7.66017,0.3888 15.35893,0.874 23.10286,1.4585 l 29.90602,1.7988 c 10.38457,3.9789 20.28498,7.953 29.4021,11.9178 l -7.47112,0.041 c -20.03013,0.1168 -40.05291,0.2374 -60.08305,0.3542 -6.98299,0.164 -14.08667,0.2241 -21.31337,0.1945 -0.72837,-0.01 -1.45412,-0.011 -2.16623,-0.01 0.60855,0.014 1.19256,0.022 1.79009,0.028 7.44525,0.098 14.99694,0.2913 22.6949,0.5903 l 62.36409,1.4446 10.69423,0.2431 c 12.18265,5.5274 22.74979,11.0351 30.94862,16.5016 l -47.29819,-2.2225 c -5.74615,-0.1551 -11.58609,-0.4144 -17.5077,-0.7639 -0.48065,-0.031 -0.96025,-0.061 -1.43266,-0.083 0.60541,0.049 1.22171,0.096 1.81526,0.132 5.86149,0.4076 11.81045,0.8989 17.84044,1.4932 16.64157,1.3374 33.27127,2.6769 49.91285,4.0143 4.45656,4.0293 5.60991,8.2383 5.6507,12.4803 l -6.61931,-0.2778 -48.03013,-1.9932 c -5.71914,-0.1355 -11.50868,-0.3616 -17.3676,-0.6668 -0.47495,-0.027 -0.94411,-0.05 -1.41261,-0.069 0.66463,0.047 1.33994,0.092 1.99278,0.125 5.72081,0.3535 11.52059,0.7862 17.37254,1.2988 l 49.24434,3.5072 4.7407,0.3404 c -0.28213,4.319 -1.27644,8.6443 -0.66114,12.8276 -32.05973,0.9822 -57.21921,2.3533 -72.44847,3.9587 -12.40386,1.1399 -19.78294,2.4125 -20.88512,3.7643 h -1.125 l 37.51691,16.9391 10.37035,0.7987 123.55501,59.36 c -0.36085,0.294 7.79843,7.121 8.23584,7.4243 6.07537,4.2137 88.87851,7.6327 184.94243,7.6327 96.06393,0 169.00794,-3.419 162.93257,-7.6327 -0.75951,-0.5267 -12.62463,-6.6568 -15.65785,-7.1535 l -51.87035,-58.2348 8.93359,-1.3682 -11.86483,-16.5086 c 0.0735,-0.2508 -0.0765,-0.5082 -0.4452,-0.7639 -0.0475,-0.033 -0.11689,-0.065 -0.1714,-0.097 l -0.38603,-0.5279 c -0.92926,-0.2326 -2.05717,-0.46 -3.33511,-0.6875 -11.33094,-2.5328 -44.09915,-4.7572 -89.15495,-6.3062 -23.3482,-10.2695 -59.46351,-21.4974 -75.25995,-31.2392 -2.02004,-1.2458 -3.95668,-2.4954 -5.84484,-3.7504 l 42.23793,-1.0487 c 6.83565,-0.299 13.83078,-0.492 20.99258,-0.5903 0.58033,-0.01 1.14184,-0.014 1.71011,-0.028 -0.72759,-0.01 -1.44052,0 -2.14675,0.01 -7.14129,0.03 -14.41802,-0.03 -21.87415,-0.1945 -14.67392,-0.084 -29.35279,-0.1728 -44.02679,-0.257 -4.997,-3.4604 -9.54295,-6.9505 -13.74671,-10.4662 l 16.03646,-1.1668 c 6.05841,-0.5845 12.35802,-1.0698 18.89715,-1.4585 0.53426,-0.029 1.06519,-0.06 1.57856,-0.097 -0.55528,0.02 -1.0743,0.047 -1.60861,0.076 -6.69958,0.3259 -13.60881,0.5576 -20.7899,0.6876 -5.25312,0.192 -10.50949,0.3844 -15.76262,0.5764 -6.26107,-5.356 -11.75481,-10.7644 -16.91423,-16.196 l 7.13985,-0.076 59.58997,-0.6529 c 6.97861,-0.2023 14.09324,-0.3007 21.34065,-0.3056 0.0625,5e-4 0.12522,-2e-4 0.1875,0 0.58508,-2e-4 1.15321,-0.01 1.74003,-0.01 -0.72233,-0.013 -1.41838,-0.02 -2.12376,-0.021 -7.28823,-0.064 -14.69029,-0.2141 -22.24343,-0.4723 l -62.04848,-1.139 -6.19146,-0.1111 c -3.80656,-4.0986 -7.4714,-8.206 -11.12913,-12.3137 5.32056,-0.7367 10.935,-1.3806 16.79995,-1.9377 0.49362,-0.044 0.97739,-0.094 1.44597,-0.1458 -0.61658,0.042 -1.2085,0.092 -1.78972,0.1458 -5.50507,0.4498 -11.23512,0.8238 -17.19029,1.1251 -2.47841,-2.7814 -4.97395,-5.5656 -7.52635,-8.3411 l 8.60637,-0.5764 53.2905,-3.5698 c 6.00694,-0.5411 12.24259,-0.9867 18.69238,-1.3404 0.7029,-0.031 1.37921,-0.073 2.04852,-0.1181 -0.60153,0.019 -1.18664,0.048 -1.76485,0.076 -6.72652,0.2911 -13.65123,0.4934 -20.83634,0.5904 l -57.44896,1.8126 -5.3434,0.1737 c -3.93375,-4.1865 -7.99941,-8.3561 -12.49325,-12.5013 l 6.45979,-0.7431 c 15.84492,-1.8207 31.6906,-3.6382 47.53554,-5.4589 5.27672,-0.7617 10.8541,-1.4333 16.68981,-2.014 0.61444,-0.053 1.22674,-0.1145 1.80214,-0.1806 -0.56331,0.04 -1.11053,0.089 -1.64347,0.1389 -6.1105,0.5223 -12.51656,0.9549 -19.19997,1.2918 -17.57952,1.2591 -35.12932,2.519 -52.70884,3.7781 l -2.32218,0.1667 c -5.6482,-4.9799 -11.88911,-9.9173 -19.06897,-14.7862 l 31.15696,-6.6534 c 4.0635,-1.0682 8.52507,-2.0457 13.31674,-2.9447 0.39658,-0.07 0.78352,-0.1445 1.1483,-0.2223 -0.46221,0.068 -0.92064,0.1387 -1.34583,0.2153 -4.99836,0.8375 -10.32133,1.6006 -16.03804,2.2711 l -32.20197,4.7366 c -8.16277,-5.2582 -17.47958,-10.4328 -28.37161,-15.4946 l 17.72638,-1.2085 53.19918,-3.6114 c 6.03796,-0.55 12.29728,-1.0014 18.78733,-1.3613 0.65051,-0.03 1.28096,-0.069 1.90228,-0.1111 -0.60059,0.019 -1.18771,0.047 -1.76485,0.076 -6.71526,0.296 -13.6399,0.5022 -20.81632,0.6042 -19.11847,0.6198 -38.22912,1.2416 -57.3476,1.8613 l -18.69131,0.6043 c -7.53172,-3.2652 -15.75462,-6.48334 -24.80492,-9.63969 l 17.26179,-7.38266 c 2.34484,-1.30776 5.13432,-2.54179 8.29897,-3.71564 0.34534,-0.11441 0.65872,-0.23758 0.94804,-0.36115 -0.30995,0.0885 -0.57666,0.18324 -0.84945,0.27781 -3.51691,1.1492 -7.45472,2.23336 -11.82365,3.24337 -6.73998,1.9245 -13.46995,3.8469 -20.20993,5.7714 -13.80664,-4.58058 -29.41291,-9.03112 -47.18487,-13.32769 -11.09329,-2.68193 -24.24785,-5.20863 -38.51584,-7.44517 l 7.97668,-5.52137 c 1.42347,-1.44592 3.314,-2.82681 5.63686,-4.15319 0.19906,-0.10546 0.37951,-0.2088 0.53938,-0.31947 z m 410.78284,193.46338 c 0.17042,0.043 0.34461,0.089 0.50275,0.1319 l -0.52279,-0.1458 0.0199,0.014 z"
       style="fill:url(#linearGradient4152);fill-opacity:1;stroke:none;filter:url(#filter4158)"
       transform="matrix(0.24376739,0,0,0.35324963,-186.40652,-6.091905)" />
    <path
       style="fill:url(#linearGradient3024);fill-opacity:1;stroke:none;stroke-width:0.35325"
       d="m -80.32016,279.56159 c -41.92964,0 -76.40555,6.29551 -80.45168,14.36103 h -0.39892 l 4.63084,26.92404 3.25399,1.2691 13.40993,94.35569 c -0.27725,0.46746 -0.87019,11.32444 -0.87019,11.8066 0,6.69761 27.50873,12.12709 61.443275,12.12709 33.934548,0 61.443266,-5.42948 61.443266,-12.12709 0,-0.83721 -1.066397,-10.58969 -1.884887,-11.37913 l 11.337052,-92.55579 3.851841,-2.18177 4.563586,-28.4644 0.113616,0.22566 c -4.046913,-8.06535 -38.512656,-14.36103 -80.441719,-14.36103 z"
       id="path3139"
       sodipodi:nodetypes="ccccccssscccccc" />
    <ellipse
       style="opacity:0.4;fill:#5c3566;fill-opacity:1;stroke:none;stroke-width:0.261746"
       id="path3151"
       cx="-79.685211"
       cy="294.71649"
       rx="79.570747"
       ry="15.704752" />
    <ellipse
       id="path3153"
       style="opacity:0.4;fill:url(#linearGradient3949);fill-opacity:1;stroke:none;stroke-width:0.211356"
       cx="-79.046951"
       cy="295.35477"
       rx="64.252312"
       ry="12.681377" />
    <path
       style="opacity:0.3;fill:url(#linearGradient3019);fill-opacity:1;stroke:none;stroke-width:0.35325"
       d="m -86.28494,440.13254 c -26.62475,-0.70279 -47.93373,-4.68416 -52.57671,-9.82338 l -1.12955,-1.25029 0.21468,-4.01726 c 0.11806,-2.20947 0.30211,-5.24972 0.40898,-6.75604 l 0.19432,-2.73878 1.79103,1.18105 c 3.58793,2.366 9.53521,4.14842 19.02428,5.70163 12.52011,2.04938 21.84814,2.67184 40.630827,2.71122 l 38.396879,-2.20152 -10.617882,15.72622 c -12.012593,1.5302 -24.237217,1.52441 -36.336854,1.46715 z"
       id="path3953"
       sodipodi:nodetypes="cccccccscccc" />
    <path
       sodipodi:nodetypes="cccsccccc"
       id="path3963"
       d="m -73.832608,355.77681 -76.363432,-12.869 -2.11948,-20.86178 c 5.5368,3.46642 14.63775,5.9615 29.11231,7.98123 19.09807,2.66494 33.29453,3.2761 61.836587,2.66218 l 52.849953,-7.88202 -10.15403,27.43647 c -18.198474,2.75612 -36.774244,3.18585 -55.161929,3.53292 z"
       style="opacity:0.3;fill:url(#linearGradient3016);fill-opacity:1;stroke:none;stroke-width:0.35325" />
    <path
       style="fill:url(#linearGradient3013);fill-opacity:1;stroke:none;stroke-width:0.35325"
       d="m -80.87865,293.72316 c -0.2288,0.1166 0.18135,0.0554 0,0 z m -3.28109,3.21129 c -1.24455,0.33832 -1.88462,-2.33734 -3.17896,-2.66391 -3.10723,-0.78401 -6.94503,-0.19062 -9.99122,0.22807 -4.15878,0.48011 -8.56538,0.0108 -12.52426,1.5013 -4.07631,2.42278 -8.9249,2.23729 -13.46928,2.92913 -3.87926,1.05125 -10.56415,1.78708 -12.71189,3.15987 13.80702,4.49902 28.44605,5.53693 42.86219,6.30406 20.566141,0.70971 41.346033,0.16584 61.561259,-3.98353 1.882315,-0.54872 8.059048,-1.66044 7.001708,-2.30064 -4.044652,-0.0742 -8.042445,-1.06321 -11.165016,-3.72634 -3.501125,-2.56668 -6.330029,2.43211 -9.829147,1.92284 -3.188788,-0.88607 -4.42644,-6.13785 -8.543773,-4.29844 -3.324567,1.55986 -6.916879,1.39814 -9.976045,-0.59028 -2.985415,0.43107 -6.074011,1.36876 -9.205453,1.02935 -1.746801,-0.01 -4.204299,-3.15769 -5.803577,-2.76107 -2.019806,0.50091 -3.145466,4.47193 -5.026536,3.24959 z m 3.40078,-3.07167 -0.01,0.0598 z m -1.91481,0.24933 0.01,0.0199 z m 0.1097,0.0399 -0.02,0.0199 z m -7.12068,0.16952 1.2566,-0.12966 z m 9.61391,-0.15956 -0.0399,0.01 z m -1.24661,0.20943 0.0299,0.02 z m -1.33637,0.0698 h 0.0698 z m 0.91751,0 -0.0199,0.0399 z m 18.340229,0.0798 h 0.08976 z m -18.410049,0.0399 0.0598,0.01 z m 0.24933,0.0399 c -0.36455,0.3321 0.59318,0.0622 0,0 z m -41.15832,2.41346 c 1.11628,1.84527 1.17722,1.94598 0,0 z m -3.0916,2.29377 0.0299,0.01 z m -0.37898,0.13962 v 0.0698 z m -0.38894,0.11967 v 0.0299 z"
       id="path3971"
       sodipodi:nodetypes="cccsccccccccccccscccccccccccccccccccccccccccccccccccccccccccc" />
    <path
       style="fill:url(#linearGradient3063);fill-opacity:1;stroke:none;stroke-width:0.35325"
       d="m -90.60735,-12.340008 c -0.54844,-5.65e-4 -1.09896,0.009 -1.64482,0.03312 -19.30169,0.852077 -39.67405,15.6115598 -47.4348,33.304817 -28.76413,65.577604 27.45039,141.361301 28.25997,212.965371 0.25875,22.88317 -18.59618,50.16378 -14.90272,70.68304 11.74114,2.51914 28.57213,4.09549 47.280254,4.09549 20.509045,0 38.760058,-1.90355 50.525737,-4.85718 4.302697,-20.59147 -10.344453,-48.29229 -11.248793,-70.93694 C -42.687256,159.96299 -9.31098,76.598907 -46.837515,13.932934 -55.539671,-0.5988948 -73.605719,-12.322313 -90.60735,-12.340008 Z"
       id="path4140" />
    <path
       style="fill:url(#linearGradient4471);fill-opacity:1;stroke:none;stroke-width:0.35325"
       d="m -92.31841,-9.834143 c -0.23242,0.0053 -0.46194,0.02107 -0.69546,0.03312 -16.51405,0.852077 -33.96174,15.6225994 -40.60163,33.315856 -24.60992,65.577608 23.49391,141.350257 24.18657,212.954327 0.21514,22.23835 -15.0128,48.63597 -12.97089,68.93888 1.60944,0.29075 3.29136,0.5814 5.04485,0.83897 -2.55705,-20.40999 13.08962,-47.23412 12.87153,-69.77785 -0.69265,-71.60407 -48.79648,-147.376719 -24.18656,-212.954327 6.48573,-17.2824915 23.28674,-31.769782 39.45357,-33.227543 -0.80275,-0.07374 -1.60819,-0.120459 -2.40651,-0.12143 -0.23462,-2.83e-4 -0.46304,-0.0053 -0.69547,0 z"
       id="path3360" />
    <path
       transform="matrix(-0.35324963,0,0,0.39887235,53.144619,-46.741343)"
       sodipodi:nodetypes="cccc"
       id="path3880"
       d="m 226.03154,871.82813 77.78174,7.07107 c 0,0 35.35534,-226.27417 -8.48528,-254.55844 2.82843,60.81118 -56.56854,148.49242 -69.29646,247.48737 z"
       style="fill:url(#linearGradient3882);fill-opacity:1;stroke:none;filter:url(#filter3870)" />
    <path
       style="fill:url(#linearGradient4495);fill-opacity:1;stroke:none;stroke-width:0.35325"
       d="m -82.25079,-9.834143 c -0.20295,0.0058 -0.40472,0.02107 -0.60715,0.03312 -0.47166,0.02808 -0.93993,0.07459 -1.413,0.132469 10.275968,3.319638 20.119071,13.275068 25.367742,25.091763 27.834612,62.665976 3.081602,146.030051 5.24355,219.014771 0.687356,23.20409 12.078565,51.71673 8.080585,72.44929 1.746593,-0.21086 3.446519,-0.43155 5.077963,-0.67338 3.627542,-20.67316 -7.53315,-48.82341 -8.213054,-71.77591 -2.161947,-72.98472 22.591063,-156.348798 -5.243549,-219.014774 -5.248671,-11.816695 -15.091774,-21.772125 -25.367739,-25.091763 0.04057,-0.005 0.08087,-0.0062 0.121429,-0.01104 -1.017697,-0.119062 -2.036917,-0.183627 -3.046777,-0.154547 z"
       id="path4145" />
    <path
       style="fill:url(#linearGradient4479);fill-opacity:1;stroke:none;stroke-width:0.35325"
       d="m -90.80606,-9.127644 c -0.13041,0.0053 -0.25533,0.02107 -0.38636,0.03312 -9.26622,0.852077 -19.05889,15.6225997 -22.7846,33.315856 -13.8089,65.577609 13.17833,141.350258 13.56699,212.954328 0.12333,22.71965 -8.78601,49.78475 -7.17538,70.25252 1.39465,0.1368 2.81118,0.25841 4.26107,0.37533 -1.75056,-20.51131 7.27739,-47.76942 7.15331,-70.62785 -0.38866,-71.60407 -27.37589,-147.376719 -13.567,-212.954328 3.54371,-16.8289226 12.56889,-31.016151 21.41576,-33.095075 -0.69704,-0.167137 -1.39398,-0.252397 -2.08638,-0.253898 -0.13165,-2.82e-4 -0.26699,-0.0053 -0.39741,0 z"
       id="path4166" />
    <path
       style="fill:url(#linearGradient4487);fill-opacity:1;stroke:none;stroke-width:0.35325"
       d="m -86.26901,-9.834143 c -0.0824,0.0058 -0.17171,0.02107 -0.25389,0.03312 -0.19151,0.02808 -0.38196,0.07459 -0.57403,0.132469 4.17221,3.319638 8.168382,13.275068 10.299431,25.091763 11.301321,62.665976 1.25275,146.030051 2.130536,219.014771 0.287076,23.8692 5.18183,53.35868 3.135091,74.21554 1.360763,-0.0313 2.706842,-0.0736 4.040293,-0.12143 1.76989,-20.7825 -2.941468,-49.63664 -3.223403,-73.07852 C -71.592769,162.46885 -61.544198,79.104778 -72.845519,16.438801 -75.508492,1.6725888 -81.07768,-10.202325 -86.26901,-9.83414 Z"
       id="path4155" />
    <g
       id="g4398"
       transform="matrix(0.35324963,0,0,0.35324963,-203.0732,-6.091905)">
      <path
         sodipodi:nodetypes="caaaaaaaaaaaaaaaaaaaaaaaaaaaaaaaaaaaaaaaaaaaaaaaaaaaacc"
         id="path4299"
         d="m 301.80979,-6.503474 c 0,0 -26.96906,10.5744628 -39.136,18.271154 -8.83323,5.587817 -16.65951,12.709299 -24.15802,19.990919 -6.82928,6.631747 -12.33473,14.512614 -18.84452,21.458249 0,3e-6 -10e-6,6e-6 -10e-6,1e-5 -12.31589,18.671638 -20.70638,40.332832 -24.93945,62.296262 0,1e-5 0,2e-5 0,3e-5 -1.5397,22.37651 -8.34102,44.24175 -9.21641,66.65408 -0.87521,22.40785 3.98869,67.15645 3.98869,67.15645 0,0 0,0 0,0 0,0 10.40784,43.85242 12.50033,66.2169 0,0 0,1e-5 0,1e-5 1.00841,9.0259 3.85879,17.7515 6.01307,26.57436 2.3793,9.74447 6.34997,19.15976 7.6326,29.10816 0,0 0,10e-6 0,10e-6 0,0 0,1e-5 0,1e-5 1.10347,8.05025 6.55947,23.47746 6.55947,23.47746 0,0 0,0 0,0 0,0 1e-5,2e-5 1e-5,2e-5 0,0 0,0 0,0 0,0 1.69238,4.64139 2.03489,7.06954 0,10e-6 0,2e-5 0,3e-5 0.0941,0.65976 0.46469,1.25988 0.55876,1.91964 0,10e-6 0,10e-6 0,2e-5 0,10e-6 1e-5,10e-6 1e-5,2e-5 0.0635,0.16166 0.0974,0.3334 0.14627,0.50006 0.0125,0.0427 0.0376,0.1281 0.0376,0.1281 0,0 0,0 0,0 0,0 0.007,0.0217 0.01,0.0327 10e-4,0.004 0.002,0.008 0.003,0.0115 0,0 0,1e-5 0,1e-5 0,0 0,-1e-5 0,-1e-5 -5e-4,-0.004 -0.002,-0.008 -0.003,-0.0115 -0.003,-0.011 -0.006,-0.0219 -0.009,-0.0329 -0.0117,-0.0429 -0.0231,-0.0859 -0.0347,-0.1289 -0.0451,-0.16771 -0.0735,-0.34081 -0.1352,-0.50316 0,-1e-5 -1e-5,-1e-5 -1e-5,-2e-5 -0.23627,-0.62313 -0.42949,-1.27071 -0.51627,-1.93146 0,-10e-6 0,-10e-6 0,-2e-5 -0.31568,-2.4316 -1.01242,-4.81815 -1.87832,-7.11217 0,-10e-6 -10e-6,-10e-6 -10e-6,-2e-5 -2.83903,-7.6113 -4.08876,-15.72459 -6.03858,-23.61067 -2.40558,-9.7294 -4.8208,-19.45863 -6.98294,-29.245 -1.95211,-8.83571 -3.7639,-17.70408 -5.40636,-26.60256 -4.07007,-22.05073 -8.75696,-44.05217 -11.01934,-66.36096 -2.23019,-21.99137 -3.83541,-44.20239 -2.49164,-66.26568 1.34423,-22.07088 8.76013,-43.4543 10.51884,-65.49602 0,0 0,-10e-6 0,-10e-6 4.30764,-21.137116 15.85332,-40.172804 25.3253,-59.553594 0,-6e-6 1e-5,-1.2e-5 1e-5,-1.8e-5 5.16376,-7.142187 11.2877,-13.637585 17.92339,-19.437826 0,-3e-6 1e-5,-5e-6 1e-5,-7e-6 8.09468,-6.028095 15.57335,-12.862818 23.74243,-18.789693 9.654,-7.004223 19.87888,-13.1904184 29.81519,-19.78343599 z"
         style="opacity:0.4;fill:#ffffff;fill-opacity:1;fill-rule:evenodd;stroke:none" />
      <path
         sodipodi:nodetypes="caaaccaaaaac"
         id="path4304"
         d="m 321.88641,-4.922199 c -14.14008,-4.6723602 -34.72342,22.270408 -45.50365,39.119369 -13.21415,20.653061 -15.95606,46.583424 -20.16248,70.73852 -4.61321,26.49102 -5.44591,53.59755 -5.41376,80.48723 0.0545,45.62583 5.26733,91.1187 9.51245,136.54665 l 1.20686,-0.0974 c -3.08489,-45.40546 -5.03633,-90.89758 -6.04389,-136.39656 0,0 0,-1e-5 0,-1e-5 1.22032,-26.52375 6.09384,-52.79516 7.31416,-79.31891 0,-1e-5 0,-1e-5 0,-2e-5 3.51392,-23.39943 9.27369,-47.217613 20.84972,-67.854386 9.41149,-16.778011 25.52024,-29.8060461 38.24059,-43.224503 z"
         style="opacity:0.45;fill:#ffffff;fill-opacity:1;fill-rule:evenodd;stroke:none" />
      <path
         style="opacity:0.6;fill:#ffffff;fill-opacity:1;fill-rule:evenodd;stroke:none"
         d="m 344.8507,-4.5385346 c 13.36937,-6.5599264 37.43984,17.3189106 50.4204,32.5375206 15.91125,18.654616 22.16922,43.96745 29.6355,67.321621 8.18831,25.612643 12.71562,52.351393 16.35656,78.993453 6.17792,45.20567 7.2277,90.98419 9.22725,136.56622 l -3.20886,0.0684 c -3.14583,-45.40128 0.37817,-94.66181 -10.64279,-135.94378 0,0 -10e-6,-1e-5 -10e-6,-1e-5 -4.83169,-26.10849 -13.24787,-51.46802 -18.07957,-77.57651 0,-1e-5 0,-1e-5 0,-2e-5 C 411.88213,74.728144 402.92307,51.919896 388.63681,33.057669 377.02186,17.722392 359.28462,7.016706 344.85069,-4.5385544 Z"
         id="path4309"
         sodipodi:nodetypes="caaaccsaaaacc" />
      <path
         sodipodi:nodetypes="ccccaaacassaccacc"
         id="path4313"
         d="m 326.71254,-4.065339 c 7.0521,11.2304901 13.3966,27.22649 17.19585,41.808634 10.15356,33.233436 12.99435,45.343977 15.91993,85.957125 1.87536,25.03349 5.01278,48.78732 7.05759,73.80696 0,10e-6 0,10e-6 0,2e-5 0.66061,22.65561 3.48905,45.21988 3.962,67.88018 0.4519,21.65172 4.49904,43.60189 0.92385,64.96039 -0.93677,5.59633 -5.1809,10.6714 -5.77179,16.01421 0.74244,-5.32386 5.21853,-10.35689 6.22821,-15.98579 3.82823,-21.34221 1.45774,-42.86256 0.92385,-65.03961 -0.54671,-22.70943 -1.70828,-47.32752 -2.03797,-68.11979 -0.0106,-0.66658 0,-1e-5 0,-1e-5 -0.82419,-24.77212 -3.95124,-49.0701 -4.94241,-74.19305 0.7399,-16.74848 -3.08112,-34.365367 -4.29209,-51.110047 -1.55587,-12.640546 -4.62141,-25.29191 -9.78798,-36.932814 -6.29727,-14.188489 -7.99863,-49.474682 -25.37907,-39.046408 z"
         style="opacity:0.5;fill:#ffffff;fill-opacity:1;fill-rule:evenodd;stroke:none" />
      <path
         style="fill:#00892c;fill-rule:evenodd;stroke:none"
         d="m 190.42456,335.7823 2.88881,-14.10766 -20.02062,-2.72621 c -20.02064,-2.7262 -40.04127,-5.45241 -60.06191,-8.17862 0,0 0,0 0,0 -7.96755,-0.47463 -15.829322,-1.46582 -23.585331,-2.97358 1.140812,0.31404 2.297442,0.55088 3.469868,0.71053 -1.140812,-0.31404 -2.297442,-0.55088 -3.469874,-0.7105 7.724393,1.66215 15.342997,3.84086 22.855837,6.53613 0,0 0,0 0,0 19.48081,5.36248 38.96161,10.72496 58.44242,16.08743 0,0 0,0 0,0 z"
         id="path4366" />
      <path
         id="path4374"
         d="m 194.36971,125.937 2.93277,-14.09858 -20.01203,-2.7886 c -20.01204,-2.78858 -40.02408,-5.57716 -60.03612,-8.36576 0,0 0,0 0,0 -7.96603,-0.49946 -15.82468,-1.51515 -23.57595,-3.04708 1.13982,0.3176 2.29571,0.55804 3.46763,0.72135 -1.13982,-0.31759 -2.29571,-0.55804 -3.46764,-0.72132 7.71918,1.68622 15.33096,3.88867 22.83535,6.60734 0,0 0,0 0,0 19.46401,5.42316 38.928,10.84633 58.392,16.26949 0,0 0,0 0,0 z"
         style="fill:#37a42c;fill-opacity:1;fill-rule:evenodd;stroke:none" />
      <path
         style="fill:#37a42c;fill-opacity:1;fill-rule:evenodd;stroke:none"
         d="m 230.2888,466.77576 -0.2581,-14.39808 -20.13319,1.7066 c -20.13319,1.70662 -40.26638,3.41323 -60.39957,5.11983 0,0 0,0 0,0 -7.87922,1.27479 -15.76789,2.02238 -23.66602,2.24276 1.18184,0.0576 2.36228,0.0365 3.5413,-0.0635 -1.18183,-0.0576 -2.36228,-0.0365 -3.5413,0.0635 7.90096,-0.0628 15.81135,0.40156 23.73119,1.39313 0,0 0,0 0,0 20.18143,0.98393 40.36285,1.96787 60.54427,2.9518 0,0 0,0 0,0 z"
         id="path4376" />
      <path
         id="path4378"
         d="m 262.02688,605.74303 0.58482,-14.3885 -20.19854,0.5256 c -20.19856,0.52563 -40.39711,1.05126 -60.59567,1.57686 0,0 0,0 0,0 -7.94031,0.81156 -15.85921,1.09628 -23.7567,0.85414 1.17644,0.12669 2.3561,0.17463 3.53894,0.14386 -1.17643,-0.12668 -2.35609,-0.17463 -3.53894,-0.14383 7.89109,0.3996 15.76076,1.32605 23.60901,2.77934 0,0 0,0 0,0 20.08928,2.16313 40.17854,4.32627 60.26781,6.4894 0,0 0,0 0,0 z"
         style="fill:#37a42c;fill-opacity:1;fill-rule:evenodd;stroke:none" />
      <path
         style="fill:#37a42c;fill-opacity:1;fill-rule:evenodd;stroke:none"
         d="m 287.88729,552.93086 3.16549,-14.04815 -19.96317,-3.11914 c -19.9632,-3.11911 -39.92639,-6.23821 -59.88958,-9.35735 0,0 0,0 0,0 -7.95669,-0.63112 -15.79747,-1.77661 -23.52235,-3.4365 1.13442,0.3364 2.28617,0.59592 3.45523,0.77859 -1.13441,-0.3364 -2.28616,-0.59592 -3.45523,-0.77857 7.69023,1.81363 15.26456,4.14165 22.72297,6.98404 0,0 0,0 0,0 19.37167,5.74427 38.74332,11.48855 58.11498,17.23281 0,0 0,0 0,0 z"
         id="path4380" />
      <path
         inkscape:transform-center-x="10"
         id="path4382"
         d="m 254.04251,412.36376 4.79663,-13.57805 -19.45743,-5.44664 c -19.45745,-5.44664 -38.91489,-10.89328 -58.37233,-16.33992 0,0 0,0 0,0 -7.82714,-1.56304 -15.47864,-3.62325 -22.95452,-6.18064 1.08695,0.46756 2.20016,0.86081 3.33961,1.17978 -1.08695,-0.46756 -2.20016,-0.86081 -3.33962,-1.17975 7.42339,2.70599 14.67113,5.90913 21.74325,9.60945 0,0 0,0 0,0 18.56111,7.98395 37.1222,15.96789 55.68332,23.95183 0,0 0,0 0,0 z"
         style="fill:#00892c;fill-rule:evenodd;stroke:none" />
      <path
         style="fill:#37a42c;fill-opacity:1;fill-rule:evenodd;stroke:none"
         d="m 237.84593,97.062027 10.38032,-9.98099 -14.94326,-13.599884 C 218.33972,59.88128 203.39645,46.281407 188.45319,32.681518 c 0,0 0,0 0,0 -6.29306,-4.909639 -12.20603,-10.184741 -17.73893,-15.825317 0.76149,0.905652 1.57979,1.75669 2.45488,2.553116 -0.76149,-0.905644 -1.57979,-1.75669 -2.4549,-2.553097 5.4193,5.749807 10.4585,11.865067 15.11762,18.345778 0,0 0,0 0,0 13.00353,15.465012 26.00704,30.930021 39.01056,46.395028 0,0 0,0 0,0 z"
         id="path4384" />
      <path
         id="path4386"
         d="m 218.51702,225.22302 7.72846,-12.15081 -17.73323,-9.68455 c -17.73324,-9.68452 -35.46648,-19.36905 -53.19972,-29.05359 0,0 0,0 0,0 -7.27482,-3.28392 -14.26665,-7.01275 -20.97552,-11.1865 0.9539,0.70011 1.95009,1.33373 2.98857,1.90088 -0.9539,-0.70011 -1.95009,-1.33374 -2.98858,-1.90086 6.62428,4.30673 12.96557,9.05837 19.02388,14.2549 0,0 0,0 0,0 16.28905,11.95513 32.57808,23.91027 48.86712,35.8654 0,0 0,0 0,0 z"
         style="fill:#37a42c;fill-opacity:1;fill-rule:evenodd;stroke:none" />
      <path
         style="fill:#37a42c;fill-opacity:1;fill-rule:evenodd;stroke:none"
         d="m 182.27347,240.32381 4.94919,-13.5232 -19.39489,-5.66534 c -19.3949,-5.66531 -38.78979,-11.33063 -58.18469,-16.99596 0,0 0,0 0,0 -7.80905,-1.65106 -15.436864,-3.79728 -22.883488,-6.43866 1.081623,0.47976 2.190329,0.88552 3.32612,1.2173 -1.081624,-0.47976 -2.190331,-0.88553 -3.326126,-1.21728 7.392452,2.78938 14.603674,6.07393 21.633684,9.85362 0,0 0,0 0,0 18.47007,8.19237 36.94011,16.38476 55.41017,24.57714 0,0 0,0 0,0 z"
         id="path4388" />
      <path
         style="fill:#00892c;fill-rule:evenodd;stroke:none"
         d="m 305.18474,164.36376 3.6544,-13.57805 -14.82399,-5.44664 c -14.824,-5.44664 -29.64799,-10.89328 -44.47199,-16.33992 0,0 0,0 0,0 -5.96324,-1.56304 -11.79267,-3.62325 -17.4883,-6.18064 0.82811,0.46756 1.67623,0.86081 2.54434,1.17978 -0.82811,-0.46756 -1.67623,-0.86081 -2.54435,-1.17975 5.65564,2.70599 11.17746,5.90913 16.56548,9.60945 0,0 0,0 0,0 14.14111,7.98395 28.2822,15.96789 42.42332,23.95183 0,0 0,0 0,0 z"
         id="path4390"
         inkscape:transform-center-x="7.6186765" />
      <path
         style="fill:#00892c;fill-rule:evenodd;stroke:none"
         d="m 337.27993,678.36376 3.55921,-13.57805 -14.43787,-5.44664 c -14.43788,-5.44664 -28.87575,-10.89328 -43.31362,-16.33992 0,0 0,0 0,0 -5.80792,-1.56304 -11.48552,-3.62325 -17.03279,-6.18064 0.80654,0.46756 1.63257,0.86081 2.47807,1.17978 -0.80655,-0.46756 -1.63257,-0.86081 -2.47808,-1.17975 5.50833,2.70599 10.88632,5.90913 16.134,9.60945 0,0 0,0 0,0 13.77277,7.98395 27.54553,15.96789 41.31832,23.95183 0,0 0,0 0,0 z"
         id="path4392"
         inkscape:transform-center-x="7.4202329" />
      <path
         id="path4394"
         d="m 300.11786,334.21756 7.94224,-12.01217 -17.5591,-9.99679 c -17.55912,-9.99676 -35.11823,-19.99353 -52.67734,-29.99031 0,0 0,0 0,0 -7.21558,-3.41212 -14.14034,-7.26408 -20.77432,-11.55587 0.94136,0.71687 1.92619,1.36802 2.95447,1.95346 -0.94136,-0.71688 -1.92618,-1.36804 -2.95447,-1.95344 6.54704,4.42325 12.80326,9.28635 18.76868,14.58925 0,0 0,0 0,0 16.07498,12.24147 32.14993,24.48294 48.2249,36.72441 0,0 0,0 0,0 z"
         style="fill:#37a42c;fill-opacity:1;fill-rule:evenodd;stroke:none" />
      <path
         id="path4396"
         d="m 332.2888,496.77576 -0.15432,-14.39808 -12.03804,1.7066 c -12.03805,1.70662 -24.07609,3.41323 -36.11413,5.11983 0,0 0,0 0,0 -4.71114,1.27479 -9.42794,2.02238 -14.15039,2.24276 0.70665,0.0576 1.41245,0.0365 2.11741,-0.0635 -0.70664,-0.0576 -1.41245,-0.0365 -2.11741,0.0635 4.72414,-0.0628 9.45393,0.40156 14.18936,1.39313 0,0 0,0 0,0 12.06688,0.98393 24.13376,1.96787 36.20064,2.9518 0,0 0,0 0,0 z"
         style="fill:#37a42c;fill-opacity:1;fill-rule:evenodd;stroke:none" />
      <path
         inkscape:transform-center-x="8.2785129"
         id="path3874"
         d="m 273.87125,696.55873 1.66997,-13.9371 -15.04683,-3.42216 c -15.04683,-3.42215 -30.09365,-6.84431 -45.14047,-10.26647 0,0 0,0 0,0 -5.96705,-0.75454 -11.87295,-2.0194 -17.71771,-3.79459 0.86288,0.35293 1.73491,0.62959 2.61607,0.83 -0.86289,-0.35293 -1.73491,-0.62959 -2.61607,-0.82997 5.82649,1.92772 11.59181,4.36573 17.296,7.31407 0,0 0,0 0,0 14.73476,6.02656 29.46951,12.05312 44.20429,18.07967 0,0 0,0 0,0 z"
         style="fill:#00892c;fill-rule:evenodd;stroke:none"
         inkscape:transform-center-y="1.257435" />
      <path
         inkscape:transform-center-y="1.0973558"
         style="fill:#00892c;fill-rule:evenodd;stroke:none"
         d="m 253.87125,760.55873 1.66997,-12.16282 -15.04683,-2.9865 c -15.04683,-2.98649 -30.09365,-5.97299 -45.14047,-8.95948 0,0 0,0 0,0 -5.96705,-0.65849 -11.87295,-1.76232 -17.71771,-3.31152 0.86288,0.308 1.73491,0.54944 2.61607,0.72434 -0.86289,-0.308 -1.73491,-0.54944 -2.61607,-0.72431 5.82649,1.68231 11.59181,3.80994 17.296,6.38294 0,0 0,0 0,0 14.73476,5.25934 29.46951,10.51868 44.20429,15.77802 0,0 0,0 0,0 z"
         id="path3876"
         inkscape:transform-center-x="8.2785129" />
    </g>
    <g
       id="g4417"
       transform="matrix(-0.35324963,0,0,0.35324963,39.697606,14.396574)">
      <path
         id="path4427"
         d="m 214.42456,359.7823 2.88881,-14.10766 -20.02062,-2.72621 c -20.02064,-2.7262 -40.04127,-5.45241 -60.06191,-8.17862 0,0 0,0 0,0 -7.96755,-0.47463 -15.82932,-1.46582 -23.58533,-2.97358 1.14081,0.31404 2.29744,0.55088 3.46987,0.71053 -1.14081,-0.31404 -2.29744,-0.55088 -3.46988,-0.7105 7.7244,1.66215 15.343,3.84086 22.85584,6.53613 0,0 0,0 0,0 19.48081,5.36248 38.96161,10.72496 58.44242,16.08743 0,0 0,0 0,0 z"
         style="fill:#00892c;fill-rule:evenodd;stroke:none" />
      <path
         style="fill:#37a42c;fill-opacity:1;fill-rule:evenodd;stroke:none"
         d="m 200.36971,125.937 2.93277,-14.09858 -20.01203,-2.7886 c -20.01204,-2.78858 -40.02408,-5.57716 -60.03612,-8.36576 0,0 0,0 0,0 -7.96603,-0.49946 -15.82468,-1.51515 -23.57595,-3.04708 1.13982,0.3176 2.29571,0.55804 3.46763,0.72135 -1.13982,-0.31759 -2.29571,-0.55804 -3.46764,-0.72132 7.71918,1.68622 15.33096,3.88867 22.83535,6.60734 0,0 0,0 0,0 19.46401,5.42316 38.928,10.84633 58.392,16.26949 0,0 0,0 0,0 z"
         id="path4429" />
      <path
         id="path4431"
         d="m 230.2888,466.77576 -0.2581,-14.39808 -20.13319,1.7066 c -20.13319,1.70662 -40.26638,3.41323 -60.39957,5.11983 0,0 0,0 0,0 -7.87922,1.27479 -15.76789,2.02238 -23.66602,2.24276 1.18184,0.0576 2.36228,0.0365 3.5413,-0.0635 -1.18183,-0.0576 -2.36228,-0.0365 -3.5413,0.0635 7.90096,-0.0628 15.81135,0.40156 23.73119,1.39313 0,0 0,0 0,0 20.18143,0.98393 40.36285,1.96787 60.54427,2.9518 0,0 0,0 0,0 z"
         style="fill:#37a42c;fill-opacity:1;fill-rule:evenodd;stroke:none" />
      <path
         style="fill:#37a42c;fill-opacity:1;fill-rule:evenodd;stroke:none"
         d="m 262.02688,605.74303 0.58482,-14.3885 -20.19854,0.5256 c -20.19856,0.52563 -40.39711,1.05126 -60.59567,1.57686 0,0 0,0 0,0 -7.94031,0.81156 -15.85921,1.09628 -23.7567,0.85414 1.17644,0.12669 2.3561,0.17463 3.53894,0.14386 -1.17643,-0.12668 -2.35609,-0.17463 -3.53894,-0.14383 7.89109,0.3996 15.76076,1.32605 23.60901,2.77934 0,0 0,0 0,0 20.08928,2.16313 40.17854,4.32627 60.26781,6.4894 0,0 0,0 0,0 z"
         id="path4433" />
      <path
         id="path4435"
         d="m 283.88729,562.93086 3.16549,-14.04815 -19.96317,-3.11914 c -19.9632,-3.11911 -39.92639,-6.23821 -59.88958,-9.35735 0,0 0,0 0,0 -7.95669,-0.63112 -15.79747,-1.77661 -23.52235,-3.4365 1.13442,0.3364 2.28617,0.59592 3.45523,0.77859 -1.13441,-0.3364 -2.28616,-0.59592 -3.45523,-0.77857 7.69023,1.81363 15.26456,4.14165 22.72297,6.98404 0,0 0,0 0,0 19.37167,5.74427 38.74332,11.48855 58.11498,17.23281 0,0 0,0 0,0 z"
         style="fill:#37a42c;fill-opacity:1;fill-rule:evenodd;stroke:none" />
      <path
         style="fill:#00892c;fill-rule:evenodd;stroke:none"
         d="m 284.04251,430.36376 4.79663,-13.57805 -19.45743,-5.44664 c -19.45745,-5.44664 -38.91489,-10.89328 -58.37233,-16.33992 0,0 0,0 0,0 -7.82714,-1.56304 -15.47864,-3.62325 -22.95452,-6.18064 1.08695,0.46756 2.20016,0.86081 3.33961,1.17978 -1.08695,-0.46756 -2.20016,-0.86081 -3.33962,-1.17975 7.42339,2.70599 14.67113,5.90913 21.74325,9.60945 0,0 0,0 0,0 18.56111,7.98395 37.1222,15.96789 55.68332,23.95183 0,0 0,0 0,0 z"
         id="path4437"
         inkscape:transform-center-x="10" />
      <path
         id="path4439"
         d="m 237.84593,97.062027 10.38032,-9.98099 -14.94326,-13.599884 C 218.33972,59.88128 203.39645,46.281407 188.45319,32.681518 c 0,0 0,0 0,0 -6.29306,-4.909639 -12.20603,-10.184741 -17.73893,-15.825317 0.76149,0.905652 1.57979,1.75669 2.45488,2.553116 -0.76149,-0.905644 -1.57979,-1.75669 -2.4549,-2.553097 5.4193,5.749807 10.4585,11.865067 15.11762,18.345778 0,0 0,0 0,0 13.00353,15.465012 26.00704,30.930021 39.01056,46.395028 0,0 0,0 0,0 z"
         style="fill:#37a42c;fill-opacity:1;fill-rule:evenodd;stroke:none" />
      <path
         style="fill:#37a42c;fill-opacity:1;fill-rule:evenodd;stroke:none"
         d="m 218.51702,225.22302 7.72846,-12.15081 -17.73323,-9.68455 c -17.73324,-9.68452 -35.46648,-19.36905 -53.19972,-29.05359 0,0 0,0 0,0 -7.27482,-3.28392 -14.26665,-7.01275 -20.97552,-11.1865 0.9539,0.70011 1.95009,1.33373 2.98857,1.90088 -0.9539,-0.70011 -1.95009,-1.33374 -2.98858,-1.90086 6.62428,4.30673 12.96557,9.05837 19.02388,14.2549 0,0 0,0 0,0 16.28905,11.95513 32.57808,23.91027 48.86712,35.8654 0,0 0,0 0,0 z"
         id="path4441" />
      <path
         id="path4443"
         d="m 208.27347,292.32381 4.94919,-13.5232 -19.39489,-5.66534 c -19.3949,-5.66531 -38.78979,-11.33063 -58.18469,-16.99596 0,0 0,0 0,0 -7.80905,-1.65106 -15.43686,-3.79728 -22.88349,-6.43866 1.08162,0.47976 2.19033,0.88552 3.32612,1.2173 -1.08162,-0.47976 -2.19033,-0.88553 -3.32612,-1.21728 7.39245,2.78938 14.60367,6.07393 21.63368,9.85362 0,0 0,0 0,0 18.47007,8.19237 36.94011,16.38476 55.41017,24.57714 0,0 0,0 0,0 z"
         style="fill:#37a42c;fill-opacity:1;fill-rule:evenodd;stroke:none" />
      <path
         inkscape:transform-center-x="7.6186765"
         id="path4445"
         d="m 313.18474,178.36376 3.6544,-13.57805 -14.82399,-5.44664 c -14.824,-5.44664 -29.64799,-10.89328 -44.47199,-16.33992 0,0 0,0 0,0 -5.96324,-1.56304 -11.79267,-3.62325 -17.4883,-6.18064 0.82811,0.46756 1.67623,0.86081 2.54434,1.17978 -0.82811,-0.46756 -1.67623,-0.86081 -2.54435,-1.17975 5.65564,2.70599 11.17746,5.90913 16.56548,9.60945 0,0 0,0 0,0 14.14111,7.98395 28.2822,15.96789 42.42332,23.95183 0,0 0,0 0,0 z"
         style="fill:#00892c;fill-rule:evenodd;stroke:none" />
      <path
         inkscape:transform-center-x="7.4202329"
         id="path4447"
         d="m 337.27993,678.36376 3.55921,-13.57805 -14.43787,-5.44664 c -14.43788,-5.44664 -28.87575,-10.89328 -43.31362,-16.33992 0,0 0,0 0,0 -5.80792,-1.56304 -11.48552,-3.62325 -17.03279,-6.18064 0.80654,0.46756 1.63257,0.86081 2.47807,1.17978 -0.80655,-0.46756 -1.63257,-0.86081 -2.47808,-1.17975 5.50833,2.70599 10.88632,5.90913 16.134,9.60945 0,0 0,0 0,0 13.77277,7.98395 27.54553,15.96789 41.31832,23.95183 0,0 0,0 0,0 z"
         style="fill:#00892c;fill-rule:evenodd;stroke:none" />
      <path
         style="fill:#37a42c;fill-opacity:1;fill-rule:evenodd;stroke:none"
         d="m 300.11786,334.21756 7.94224,-12.01217 -17.5591,-9.99679 c -17.55912,-9.99676 -35.11823,-19.99353 -52.67734,-29.99031 0,0 0,0 0,0 -7.21558,-3.41212 -14.14034,-7.26408 -20.77432,-11.55587 0.94136,0.71687 1.92619,1.36802 2.95447,1.95346 -0.94136,-0.71688 -1.92618,-1.36804 -2.95447,-1.95344 6.54704,4.42325 12.80326,9.28635 18.76868,14.58925 0,0 0,0 0,0 16.07498,12.24147 32.14993,24.48294 48.2249,36.72441 0,0 0,0 0,0 z"
         id="path4449" />
      <path
         style="fill:#37a42c;fill-opacity:1;fill-rule:evenodd;stroke:none"
         d="m 332.2888,496.77576 -0.15432,-14.39808 -12.03804,1.7066 c -12.03805,1.70662 -24.07609,3.41323 -36.11413,5.11983 0,0 0,0 0,0 -4.71114,1.27479 -9.42794,2.02238 -14.15039,2.24276 0.70665,0.0576 1.41245,0.0365 2.11741,-0.0635 -0.70664,-0.0576 -1.41245,-0.0365 -2.11741,0.0635 4.72414,-0.0628 9.45393,0.40156 14.18936,1.39313 0,0 0,0 0,0 12.06688,0.98393 24.13376,1.96787 36.20064,2.9518 0,0 0,0 0,0 z"
         id="path4451" />
      <path
         style="fill:#37a42c;fill-opacity:1;fill-rule:evenodd;stroke:none"
         d="m 300.46096,8.373975 11.57613,-8.565306 -13.07303,-15.406288 c -13.07304,-15.406279 -26.14609,-30.812558 -39.21912,-46.218851 0,0 0,0 0,0 -5.61045,-5.677142 -10.79704,-11.667909 -15.55976,-17.972315 0.63888,0.995944 1.34111,1.945021 2.10668,2.847232 -0.63888,-0.995936 -1.34111,-1.945021 -2.1067,-2.847215 4.63603,6.398144 8.84819,13.109903 12.63648,20.135277 0,0 0,0 0,0 10.90984,17.006873 21.81966,34.01374 32.7295,51.020606 0,0 0,0 0,0 z"
         id="path4455" />
    </g>
    <path
       style="opacity:0.264368;fill:url(#linearGradient3913);fill-opacity:1;stroke:none;filter:url(#filter3943)"
       d="m 168.21875,131.3125 c -34.88381,172.39279 95.14857,365.15028 97.21875,548.25 0.73248,64.77904 -52.64315,142.0066 -42.1875,200.09375 19.5548,4.19561 24.13504,7.45475 51.8125,9.4375 C 263.41583,828.78718 320.38955,763.54707 318,704.375 315.59247,644.75786 315.61137,591.9622 300,534.375 263.10921,398.29228 197.90997,268.45232 168.21875,131.3125 Z"
       id="path3898"
       sodipodi:nodetypes="ccccssc"
       transform="matrix(0.35324963,0,0,0.35324963,-203.0732,-6.091905)" />
  </g>
</svg>
