<?xml version="1.0" encoding="UTF-8" standalone="no"?>
<svg
   xmlns:dc="http://purl.org/dc/elements/1.1/"
   xmlns:cc="http://creativecommons.org/ns#"
   xmlns:rdf="http://www.w3.org/1999/02/22-rdf-syntax-ns#"
   xmlns:svg="http://www.w3.org/2000/svg"
   xmlns="http://www.w3.org/2000/svg"
   xmlns:xlink="http://www.w3.org/1999/xlink"
   xmlns:sodipodi="http://sodipodi.sourceforge.net/DTD/sodipodi-0.dtd"
   xmlns:inkscape="http://www.inkscape.org/namespaces/inkscape"
   viewBox="0 0 472.44094 332.59843"
   version="1.1"
   id="svg107"
   sodipodi:docname="cake.svg"
   width="125mm"
   height="88mm"
   inkscape:version="1.0.2-2 (e86c870879, 2021-01-15)">
  <metadata
     id="metadata111">
    <rdf:RDF>
      <cc:Work
         rdf:about="">
        <dc:format>image/svg+xml</dc:format>
        <dc:type
           rdf:resource="http://purl.org/dc/dcmitype/StillImage" />
        <dc:title></dc:title>
      </cc:Work>
    </rdf:RDF>
  </metadata>
  <sodipodi:namedview
     pagecolor="#ffffff"
     bordercolor="#666666"
     borderopacity="1"
     objecttolerance="10"
     gridtolerance="10"
     guidetolerance="10"
     inkscape:pageopacity="0"
     inkscape:pageshadow="2"
     inkscape:window-width="1920"
     inkscape:window-height="1017"
     id="namedview109"
     showgrid="false"
     units="mm"
     inkscape:zoom="1.2404762"
     inkscape:cx="140.90188"
     inkscape:cy="129.86023"
     inkscape:window-x="-8"
     inkscape:window-y="-8"
     inkscape:window-maximized="1"
     inkscape:current-layer="svg107" />
  <defs
     id="defs65">
    <filter
       id="o">
      <feGaussianBlur
         stdDeviation="2.2933"
         id="feGaussianBlur2" />
    </filter>
    <filter
       id="m">
      <feGaussianBlur
         stdDeviation="2.3553"
         id="feGaussianBlur5" />
    </filter>
    <filter
       id="l">
      <feGaussianBlur
         stdDeviation="1.4352"
         id="feGaussianBlur8" />
    </filter>
    <filter
       id="k">
      <feGaussianBlur
         stdDeviation=".8879"
         id="feGaussianBlur11" />
    </filter>
    <filter
       id="j">
      <feGaussianBlur
         stdDeviation="3.5044"
         id="feGaussianBlur14" />
    </filter>
    <filter
       id="i">
      <feGaussianBlur
         stdDeviation="1.5238"
         id="feGaussianBlur17" />
    </filter>
    <filter
       id="h">
      <feGaussianBlur
         stdDeviation=".8955"
         id="feGaussianBlur20" />
    </filter>
    <filter
       id="g">
      <feGaussianBlur
         stdDeviation="2.053"
         id="feGaussianBlur23" />
    </filter>
    <filter
       id="n"
       x="-0.079089999"
       y="-0.17129999"
       width="1.1582"
       height="1.3426">
      <feGaussianBlur
         stdDeviation="9.2809"
         id="feGaussianBlur26" />
    </filter>
    <linearGradient
       id="f"
       x1="-60.893002"
       x2="70.089996"
       y1="181.09"
       y2="122.42"
       gradientUnits="userSpaceOnUse">
      <stop
         stop-color="#502d16"
         offset="0"
         id="stop29" />
      <stop
         stop-color="#fff"
         stop-opacity="0"
         offset="1"
         id="stop31" />
    </linearGradient>
    <linearGradient
       id="e"
       x1="393.79999"
       x2="186.13"
       y1="112.91"
       y2="105.73"
       gradientUnits="userSpaceOnUse">
      <stop
         stop-color="#784421"
         offset="0"
         id="stop34" />
      <stop
         stop-color="#542f17"
         stop-opacity=".9218"
         offset=".5932"
         id="stop36" />
      <stop
         offset="1"
         id="stop38" />
    </linearGradient>
    <linearGradient
       id="a"
       x1="379.89001"
       x2="132.31"
       y1="179.62"
       y2="128.13"
       gradientUnits="userSpaceOnUse">
      <stop
         stop-color="#784421"
         offset="0"
         id="stop41" />
      <stop
         stop-color="#542f17"
         stop-opacity=".9218"
         offset=".3296"
         id="stop43" />
      <stop
         offset="1"
         id="stop45" />
    </linearGradient>
    <linearGradient
       id="d"
       x1="202.28"
       x2="313.95999"
       y1="21.743999"
       y2="97.097"
       gradientUnits="userSpaceOnUse">
      <stop
         stop-color="#fff"
         offset="0"
         id="stop48" />
      <stop
         stop-color="#502d16"
         stop-opacity="0"
         offset="1"
         id="stop50" />
    </linearGradient>
    <linearGradient
       id="c"
       x1="290.64001"
       x2="355.22"
       y1="151.81"
       y2="206.31"
       gradientUnits="userSpaceOnUse">
      <stop
         stop-color="#ccc"
         stop-opacity=".5802"
         offset="0"
         id="stop53" />
      <stop
         stop-color="#502d16"
         stop-opacity="0"
         offset="1"
         id="stop55" />
    </linearGradient>
    <linearGradient
       id="b"
       x1="-22.738001"
       x2="391.44"
       y1="74.847"
       y2="71.411003"
       gradientUnits="userSpaceOnUse">
      <stop
         stop-color="#fff"
         offset="0"
         id="stop58" />
      <stop
         stop-color="#fff"
         stop-opacity="0"
         offset=".7795"
         id="stop60" />
      <stop
         stop-color="#fff"
         offset="1"
         id="stop62" />
    </linearGradient>
    <linearGradient
       inkscape:collect="always"
       xlink:href="#a"
       id="linearGradient936"
       gradientUnits="userSpaceOnUse"
       x1="379.89001"
       y1="179.62"
       x2="132.31"
       y2="128.13" />
    <linearGradient
       inkscape:collect="always"
       xlink:href="#a"
       id="linearGradient938"
       gradientUnits="userSpaceOnUse"
       x1="379.89001"
       y1="179.62"
       x2="132.31"
       y2="128.13" />
  </defs>
  <g
     transform="matrix(1.0471912,0,0,1.0471912,27.428027,18.067025)"
     id="g105">
    <path
       transform="matrix(1.3142,0,0,1.3001,-1.3369,-60.964)"
       d="m 293.05,182.99 c 0,35.907 -63.045,65.015 -140.81,65.015 -77.765,0 -140.81,-29.108 -140.81,-65.015 0,-35.907 63.045,-65.016 140.81,-65.016 77.765,0 140.81,29.108 140.81,65.016 z"
       fill="#ffffff"
       id="path67" />
    <path
       transform="matrix(1.1381,0,0,1.1258,25.48,-29.075)"
       d="m 293.05,182.99 c 0,35.907 -63.045,65.015 -140.81,65.015 -77.765,0 -140.81,-29.108 -140.81,-65.015 0,-35.907 63.045,-65.016 140.81,-65.016 77.765,0 140.81,29.108 140.81,65.016 z"
       fill="#4d4d4d"
       filter="url(#n)"
       opacity="0.5639"
       id="path69" />
    <path
       d="m 13.875,172.94 c -0.13554,1.3272 -0.21875,2.6575 -0.21875,4 0,46.682 82.856,84.531 185.06,84.531 102.204,0 185.06,-37.849 185.06,-84.531 0,-1.3424 -0.052,-2.6729 -0.1875,-4 -4.5771,44.823 -85.607,80.531 -184.88,80.531 -99.273,0 -180.27,-35.709 -184.84,-80.531 z"
       fill="#666666"
       filter="url(#o)"
       opacity="0.8"
       id="path71" />
    <path
       d="m 198.47,122.22 c -80.877,0 -146.44,25.384 -146.44,56.719 0,31.335 65.561,56.75 146.44,56.75 22.176,0 43.194,-1.9256 62.031,-5.3438 l -1.7188,-31 64.812,9.125 c 13.533,-8.5964 21.312,-18.725 21.312,-29.531 0,-31.335 -65.561,-56.719 -146.44,-56.719 z m 101.94,97.438 -21.188,6.625 c 7.5879,-1.9474 14.679,-4.179 21.188,-6.625 z"
       fill="#502d16"
       filter="url(#i)"
       id="path73" />
    <path
       d="m 201.72,90.062 59.812,50.188 c 25.894,-4.9228 47.595,-12.782 62.375,-22.5 L 201.717,90.062 Z"
       fill="none"
       stroke="#000000"
       id="path75" />
    <path
       d="m 198.5,29.156 c -80.916,0 -146.5,26.14 -146.5,58.375 0,0.47879 6.3e-4,0.96081 0.03125,1.4375 v 86.625 c -0.008,0.25108 -0.03125,0.49816 -0.03125,0.75 0,0.25184 0.02327,0.49892 0.03125,0.75 v 2.875 h 0.25 c 0.18996,6.091 1.2946,10.728 3.7188,10 0.0028,0.005 0.02841,-0.005 0.03125,0 4.6916,7.8103 13.341,15.013 25.031,21.25 -0.24313,2.9563 4.2612,6.8471 6.4375,3.1875 26.864,12.416 66.615,20.281 111,20.281 22.989,0 43.69,-0.78472 63.094,-4.5938 l 0.125,-34.375 62.812,10.594 c 11.835,-7.7092 19.145,-16.749 20.625,-26.344 l -0.0312,-13.156 c 15.639,-7.1484 28.088,-16.089 36.562,-25.312 l 0.4375,-87 -90.406,-12 h -0.0312 c -25.33,-8.3281 -57.787,-13.344 -93.188,-13.344 z"
       fill="#502d16"
       id="path77" />
    <path
       d="m 52.031,88.969 v 91 h 0.25 c 0.19078,6.1171 1.3041,10.778 3.75,10 l 2.3125,-2.2188 v -57.719 c 1.0657,24.177 4.923,5.1549 8.25,11.406 9.2347,7.0036 7.975,-16.653 13.312,3.8125 l 1.1562,65.969 c -0.24313,2.9563 4.2612,6.8471 6.4375,3.1875 l -0.59375,-67.25 c 5.6523,-6.1029 11.847,26.485 20.281,13.969 0.43744,-9.7739 7.9281,-7.4566 13.969,-7.625 3.3805,3.8685 2.1284,27.812 3.1562,41.875 -1.2836,6.6994 0.52309,7.9908 2.5625,8.875 4.3592,-7.3823 2.5208,-31.292 3.7812,-46.938 5.9422,-3.142 3.3714,17.904 12.688,14.594 2.9583,-3.6549 5.9167,-7.6106 8.875,-6.3438 8.8854,8.8813 17.771,14.022 26.656,19.656 l 1.875,11.719 c 9.9956,6.5614 1.0778,-7.7448 9.8438,-13 10.947,0.52856 28.177,-15.346 36.5,2.5312 1.9904,7.8519 -1.0214,28.835 6.9688,20.938 -1.8995,-24.836 9.3102,-35.37 27.678,-37.406 l -0.24019,-29.781 c -19.089,3.6339 -40.439,5.6875 -63,5.6875 -76.746,0 -139.68,-23.511 -145.97,-53.438 l -0.5,-3.5 z"
       fill="url(#f)"
       id="path79"
       style="fill:url(#f)" />
    <path
       d="m 381.91,97.844 -0.5,2.0312 -4.4375,6.375 -0.0312,0.0312 c -4.1056,7.2988 -4.3466,17.197 -4.2188,22.469 0.12751,5.2585 -0.26389,8.8747 -0.875,10.844 -0.30555,0.98451 -0.68641,1.5433 -0.90625,1.6875 -0.10992,0.0721 -0.13489,0.0804 -0.21875,0.0625 -0.0839,-0.0179 -0.22755,-0.10102 -0.40625,-0.28125 -0.71482,-0.72093 -1.7004,-3.0627 -2.375,-6.75 -0.6746,-3.6873 -1.1177,-8.7487 -1.0625,-15.062 -0.005,-0.0427 -0.016,-0.0847 -0.0312,-0.125 -1.2732,-5.3538 -2.9761,-8.9425 -4.9062,-11.219 -1.9301,-2.2765 -4.1018,-3.2156 -6.2188,-3.2188 -4.2338,-0.006 -7.9964,3.5135 -9.5625,6.7188 -2.1224,3.968 -4.3636,5.7393 -6.6875,6.4688 -2.3239,0.7295 -4.7874,0.39696 -7.3438,-0.0625 -2.5564,-0.45946 -5.1867,-1.0732 -7.7812,-0.71875 -2.4719,0.33773 -4.8987,1.647 -7.0312,4.5938 l -0.4375,-0.65625 v 1.0312 c 0.37797,0.26338 0.59375,0.38587 0.59375,0.34375 8.563,-12.686 20.518,5.4588 29.188,-10.75 2.961,-6.06 14.614,-13.607 19.656,7.5938 -0.2218,25.368 7.482,30.665 6.9688,9.5 -0.12701,-5.2376 0.12102,-15.069 4.125,-22.188 l 4.5,-6.4688 v -2.25 z"
       filter="url(#l)"
       opacity="0.938"
       id="path81" />
    <path
       d="m 233.22,34.969 0.21875,62.281 0.0625,19.156 0.0625,0.0625 27.938,23.688 0.28125,11.781 0.0937,0.0312 v -4.4062 l 55.188,28.938 v -0.25 l -0.3125,-98.344 -83.531,-42.938 z"
       fill="url(#e)"
       id="path83"
       style="fill:url(#e)" />
    <path
       d="m 359.5,106.3125 -0.28125,0.625 c 2.79978,2.80664 5.06701,6.69608 6.34375,12.03125 -2.6522,13.04739 0.26864,21.34362 3.75,22.4375 l 0.0937,-0.5 c -0.14345,-0.066 -0.34868,-0.19082 -0.59375,-0.40625 -1.11094,-0.9766 -2.42473,-3.54953 -2.96875,-7.1875 -0.54402,-3.63797 -0.46678,-8.41522 0.6875,-14.09375 -0.001,-0.0408 -0.012,-0.0818 -0.0312,-0.125 -1.29606,-5.41589 -3.61807,-9.4403 -6.5625,-12.375 -0.1428,-0.14235 -0.29175,-0.26905 -0.4375,-0.40625 z M 58.34375,130.03125 V 187.75 l -1.90625,1.84375 c 0.45131,0.42315 0.98228,0.56941 1.59375,0.375 l 2.3125,-2.21875 v -45.28125 c -0.909,-0.83029 -1.62859,-4.01116 -2,-12.4375 z m 17.96875,6.6875 c -1.43714,-0.0958 -2.57059,4.95075 -5.5,5.90625 3.53964,1.01948 5.06727,-3.29167 6.40625,-5.125 -0.33293,-0.51562 -0.61616,-0.76192 -0.90625,-0.78125 z M 65,140.09375 c -1.01079,-0.007 -2.01113,1.26076 -2.9375,2.03125 1.05822,1.64491 2.43755,-0.65054 3.875,-1.625 -0.30551,-0.29051 -0.62936,-0.40398 -0.9375,-0.40625 z m 23.5,6.3125 c -0.54083,-0.0389 -1.06384,0.17786 -1.59375,0.75 l 0.59375,67.25 c -0.38599,0.64909 -0.85076,1.05986 -1.34375,1.28125 1.18217,0.44384 2.45609,0.21146 3.34375,-1.28125 l -0.59375,-67.25 c 0.16564,-0.17884 0.33339,-0.323 0.5,-0.4375 -0.30167,-0.17414 -0.60855,-0.29108 -0.90625,-0.3125 z m 26.8125,6.96875 c -4.2051,0.0264 -7.82426,1.03043 -8.125,7.75 -1.02294,1.51792 -2.00868,2.37817 -2.96875,2.71875 1.5704,0.53406 3.22109,-0.12544 4.96875,-2.71875 0.28936,-6.46524 3.65568,-7.64685 7.65625,-7.75 -0.50552,-0.0162 -1.03701,-0.003 -1.53125,0 z m 16.375,3.625 c -0.30986,0.0193 -0.65986,0.11613 -1.03125,0.3125 -1.21352,15.06365 0.45285,37.77248 -3.3125,46.03125 0.46009,0.39577 0.98126,0.66781 1.53125,0.90625 4.35923,-7.38234 2.52083,-31.29167 3.78125,-46.9375 l 0.0312,-0.0312 c -0.29939,-0.19501 -0.62757,-0.3044 -1,-0.28125 z m 19.4375,8.3125 c -2.58854,-0.0416 -5.19271,3.39575 -7.78125,6.59375 -0.26837,0.0953 -0.53212,0.16267 -0.78125,0.21875 0.7936,0.19704 1.69858,0.1659 2.78125,-0.21875 2.21875,-2.74115 4.4375,-5.65683 6.65625,-6.40625 -0.29891,-0.10304 -0.57609,-0.1827 -0.875,-0.1875 z m 112.03125,12.3125 c -8.04192,0.23974 -17.34549,6.33035 -24.1875,6 -0.78303,0.46942 -1.44179,1.00154 -1.96875,1.59375 -0.0161,0.0226 -0.0464,0.0398 -0.0625,0.0625 -0.37243,0.42808 -0.64183,0.90325 -0.90625,1.375 -0.11732,0.20931 -0.24494,0.40933 -0.34375,0.625 -0.21158,0.38176 -0.42825,0.76489 -0.625,1.1875 -0.54605,2.15406 -0.69166,5.2982 -0.8125,8.5625 -4e-4,0.0109 -0.0308,0.0204 -0.0312,0.0312 -4e-4,0.0108 0.002,0.0224 0,0.0312 -0.16482,4.47626 -0.23927,9.16968 -1.09375,11.84375 2.58914,-1.54799 2.08751,-11.22992 2.625,-18.15625 0.0149,-0.19177 0.0459,-0.3752 0.0625,-0.5625 0.35408,-2.27031 1.22397,-4.32635 5.15625,-6.59375 6.66626,0.32186 15.66675,-5.41961 23.5625,-5.9375 -0.45688,-0.0277 -0.90898,-0.0764 -1.375,-0.0625 z m -48.375,0.3125 c -8.04192,0.23974 -17.34549,6.33035 -24.1875,6 -6.49621,3.89446 -3.28263,12.74686 -5.25,14.40625 5.68796,2.17955 -0.57857,-9.71305 7.25,-14.40625 6.66626,0.32186 15.66675,-5.41961 23.5625,-5.9375 -0.45688,-0.0277 -0.90898,-0.0764 -1.375,-0.0625 z m 19.40625,19.25 c -0.14424,0.27661 -0.29049,0.5571 -0.46875,0.84375 0.22436,-0.18923 0.35706,-0.48545 0.46875,-0.84375 z"
       fill="#28170b"
       opacity="0.6543"
       id="path85" />
    <path
       d="m 53.40625,109.46875 v 69.6875 c 0.15886,0.2276 0.24721,0.5037 0.25,0.78125 0.09311,2.98538 0.44223,5.6003 0.96875,7.1875 0.26326,0.7936 0.57734,1.30686 0.75,1.46875 0.04063,0.0381 0.04912,-0.0185 0.0625,0 l 1.53125,-1.46875 v -57.09375 c 0.07892,-0.65686 0.6865,-1.20826 1.34791,-1.22329 0.66141,-0.015 1.29341,0.5082 1.40209,1.16079 0.26444,5.99937 0.75552,9.30948 1.21875,10.71875 0.13778,0.41918 0.11099,0.33462 0.15625,0.40625 0.42006,-0.34193 1.13183,-1.16749 2.21875,-1.84375 0.59773,-0.3719 1.47795,-0.7107 2.40625,-0.4375 0.778,0.22896 1.3411,0.8232 1.8125,1.5625 0.94991,0.69714 1.66243,0.9636 2.15625,1 0.51423,0.0379 0.88127,-0.0947 1.3125,-0.40625 0.86245,-0.6231 1.74008,-2.10364 2.53125,-3.40625 0.39559,-0.6513 0.71553,-1.2595 1.40625,-1.78125 0.34536,-0.26087 0.87634,-0.50823 1.46875,-0.46875 0.59241,0.0395 1.08886,0.37334 1.4375,0.71875 0.69727,0.69081 1.10208,1.56689 1.625,2.96875 0.52292,1.40186 1.1075,3.3229 1.78125,5.90625 0.02217,0.10254 0.03268,0.2076 0.03125,0.3125 l 1.15625,65.96875 c 0.0029,0.052 0.0029,0.10422 0,0.15625 -0.06004,0.73007 0.72966,2.16162 1.6875,2.78125 0.47892,0.30981 0.92121,0.41758 1.21875,0.375 0.24011,-0.0344 0.50106,-0.28976 0.78125,-0.65625 l -0.59375,-66.6875 c -0.0055,-0.34041 0.11951,-0.68132 0.34375,-0.9375 0.95893,-1.03537 2.51055,-1.45757 3.6875,-1 1.17695,0.45757 1.99,1.37673 2.8125,2.46875 1.645,2.18405 3.21292,5.28848 4.84375,8.15625 1.63083,2.86777 3.39407,5.4467 4.78125,6.34375 0.69359,0.44852 1.12896,0.52397 1.6875,0.34375 0.53116,-0.17139 1.32382,-0.75975 2.21875,-2.03125 0.17967,-2.31485 0.70207,-4.16814 1.6875,-5.5 1.07257,-1.44963 2.59806,-2.23961 4.15625,-2.625 3.11638,-0.77079 6.54813,-0.17117 9.375,-0.25 0.39931,-0.006 0.79792,0.1696 1.0625,0.46875 1.34032,1.53382 1.74049,3.84504 2.125,6.9375 0.38451,3.09246 0.56795,6.89901 0.6875,11.03125 0.2391,8.26448 0.18074,17.78515 0.6875,24.71875 0.0142,0.114 0.0142,0.22975 0,0.34375 -0.61602,3.21519 -0.43187,4.95303 -0.0625,5.8125 0.14892,0.34652 0.35074,0.54817 0.5625,0.75 1.42332,-3.60317 2.12808,-10.4793 2.34375,-18.34375 0.24167,-8.81243 0.1109,-18.72299 0.75,-26.65625 0.0413,-0.45237 0.31989,-0.87637 0.71875,-1.09375 1.00775,-0.53286 2.22426,-0.6403 3.15625,-0.15625 0.93199,0.48405 1.47006,1.31564 1.90625,2.1875 0.87238,1.74373 1.37894,3.96837 2,6.15625 0.62106,2.18788 1.36929,4.29277 2.28125,5.4375 0.45598,0.57237 0.92619,0.90745 1.4375,1.0625 0.45007,0.13648 1.06682,0.0713 1.84375,-0.15625 1.35524,-1.6846 2.73631,-3.46376 4.25,-4.78125 0.82225,-0.71567 1.69221,-1.32008 2.6875,-1.65625 0.99529,-0.33617 2.16164,-0.35895 3.21875,0.0937 0.15318,0.0779 0.29171,0.18441 0.40625,0.3125 8.74746,8.7434 17.52104,13.78315 26.4375,19.4375 0.33361,0.21384 0.56768,0.57665 0.625,0.96875 l 1.78125,11.0625 c 0.84441,0.51133 1.65622,0.96767 2.0625,1.09375 0.23679,0.0735 0.32525,0.0895 0.375,0.0937 0.0325,-0.0695 0.0807,-0.21171 0.125,-0.4375 0.0885,-0.45157 0.12778,-1.16048 0.15625,-2 0.0569,-1.67904 0.0691,-3.85018 0.6875,-6.0625 0.6184,-2.21232 1.91849,-4.48986 4.4375,-6 0.23457,-0.13708 0.51001,-0.20319 0.78125,-0.1875 4.76935,0.23028 11.86443,-3.48548 18.84375,-5.21875 3.48966,-0.86664 7.03951,-1.22896 10.375,-0.0625 3.33549,1.16646 6.27736,3.88682 8.46875,8.59375 0.0392,0.0801 0.0706,0.16392 0.0937,0.25 1.10867,4.37346 0.80204,11.51692 1.28125,16.59375 0.23961,2.53842 0.8275,4.53338 1.1875,4.9375 0.18,0.20206 0.0412,0.15966 0.3125,0.0937 0.21105,-0.0513 0.84766,-0.50885 1.46875,-1.03125 -0.8016,-12.21508 0.38696,-16.95283 5.42123,-23.15599 7.7059,-1.22079 15.60564,-5.5017 24.30114,-6.72779 l -2.25,-0.34375 c -7.86607,1.4545 -17.0588,5.12324 -23.21669,6.31689 -5.11681,6.30486 -5.70185,11.44836 -4.97443,23.56689 -0.24781,0.17766 -0.52083,0.41818 -0.625,0.46875 -0.17081,-0.35255 -0.71986,-1.88184 -0.9375,-4.1875 -0.47138,-4.99387 -0.11491,-12.08656 -1.28125,-16.6875 -0.0297,-0.12856 -0.0717,-0.25431 -0.125,-0.375 -2.24761,-4.8277 -5.347,-7.73497 -8.875,-8.96875 -3.528,-1.23378 -7.25597,-0.85199 -10.8125,0.0312 -7.11306,1.76649 -14.21363,5.40049 -18.625,5.1875 -0.4017,-0.0198 -0.80853,0.0791 -1.15625,0.28125 -2.68549,1.60994 -4.12947,4.07467 -4.78125,6.40625 -0.65178,2.33158 -0.66229,4.61624 -0.71875,6.28125 -0.0216,0.63844 -0.0778,1.04658 -0.125,1.4375 -0.28264,-0.11443 -0.75793,-0.37338 -1.25,-0.65625 L 180.9375,184.875 c -0.0916,-0.58223 -0.44162,-1.11894 -0.9375,-1.4375 -8.93223,-5.66436 -17.63517,-10.67044 -26.3125,-19.34375 -0.18576,-0.19665 -0.40999,-0.35681 -0.65625,-0.46875 -1.21852,-0.52182 -2.56223,-0.47383 -3.6875,-0.0937 -1.12527,0.38013 -2.07324,1.02901 -2.9375,1.78125 -1.52271,1.32534 -2.827,3.0391 -4.125,4.65625 -0.5393,0.12921 -1.04189,0.20706 -1.3125,0.125 -0.34785,-0.10548 -0.67005,-0.31988 -1.0625,-0.8125 -0.7849,-0.98525 -1.5409,-3.01974 -2.15625,-5.1875 -0.61535,-2.16776 -1.09166,-4.43445 -2.03125,-6.3125 -0.46979,-0.93903 -1.0756,-1.87503 -2.21875,-2.46875 -1.14315,-0.59372 -2.67005,-0.44783 -3.8125,0.15625 -0.62667,0.32442 -1.06656,0.98426 -1.125,1.6875 -0.64362,7.98935 -0.47769,17.86589 -0.71875,26.65625 -0.18136,6.6133 -0.73523,12.70253 -1.6875,16.46875 -0.15354,-0.87136 -0.23386,-2.13769 0.21875,-4.5 0.0356,-0.18496 0.0462,-0.37473 0.0312,-0.5625 -0.50311,-6.88375 -0.44786,-16.37286 -0.6875,-24.65625 -0.11982,-4.14169 -0.32893,-7.98982 -0.71875,-11.125 -0.38982,-3.13518 -0.68922,-5.49063 -2.28125,-7.3125 -0.40172,-0.46121 -1.0135,-0.73181 -1.625,-0.71875 -2.72855,0.0761 -6.19428,-0.5441 -9.53125,0.28125 -1.66848,0.41267 -3.34969,1.30931 -4.53125,2.90625 -1.04534,1.41284 -1.60196,3.31065 -1.8125,5.59375 -0.76304,1.02052 -1.448,1.59006 -1.75,1.6875 -0.34042,0.10984 -0.48785,0.0904 -1.0625,-0.28125 -1.14931,-0.74322 -2.97506,-3.24734 -4.59375,-6.09375 -1.61869,-2.84641 -3.16004,-5.97306 -4.875,-8.25 -0.85748,-1.13847 -1.71922,-2.14097 -3.125,-2.6875 -1.40578,-0.54653 -3.35027,-0.0176 -4.4375,1.15625 -0.36649,0.39307 -0.57267,0.93143 -0.5625,1.46875 l 0.59375,66.4375 c -0.03778,0.0155 -0.1275,0.15214 -0.15625,0.15625 -0.0805,0.0115 -0.37526,-0.008 -0.75,-0.25 -0.74948,-0.48484 -1.37252,-1.80645 -1.34375,-2.15625 0.0028,-0.0625 0.0028,-0.12504 0,-0.1875 L 82,145.21875 c -6.5e-4,-0.16837 -0.02168,-0.33665 -0.0625,-0.5 -0.67709,-2.59614 -1.24384,-4.52804 -1.78125,-5.96875 -0.53741,-1.44071 -0.95822,-2.37238 -1.8125,-3.21875 -0.42714,-0.42318 -1.10432,-0.85281 -1.90625,-0.90625 -0.80193,-0.0534 -1.47408,0.2673 -1.90625,0.59375 -0.86435,0.6529 -1.21979,1.33285 -1.625,2 -0.81042,1.3343 -1.65412,2.71184 -2.3125,3.1875 -0.32919,0.23783 -0.50516,0.30621 -0.84375,0.28125 -0.31587,-0.0233 -0.91566,-0.24562 -1.75,-0.84375 -0.5213,-0.76923 -1.1604,-1.44407 -2.09375,-1.71875 -1.18365,-0.34835 -2.28223,0.0729 -2.96875,0.5 -0.82066,0.5106 -1.0428,0.80246 -1.46875,1.21875 -0.38613,-1.48174 -0.79143,-4.46527 -1.03125,-9.90625 -0.06283,-1.07011 -1.06727,-1.99629 -2.13896,-1.9723 -1.07169,0.024 -2.03367,0.9942 -2.04854,2.06605 V 186.875 l -0.65625,0.625 c -0.11051,-0.19821 -0.15731,-0.22014 -0.28125,-0.59375 -0.48515,-1.46248 -0.84555,-4.05182 -0.9375,-7 -0.01357,-0.31576 -0.09976,-0.62819 -0.25,-0.90625 v -69.09375 z"
       filter="url(#m)"
       opacity="0.9342"
       id="path87" />
    <path
       d="m 381.53,98.969 -0.875,0.59375 c -5.1964,7.7362 -8.2128,18.898 -8.0312,35 -0.0498,5.1114 -2.8359,7.2188 -4.1875,4.9375 1.0895,3.6392 4.5072,1.6136 4.5625,-4.0625 -0.18151,-16.102 2.8348,-27.233 8.0312,-34.969 l 0.5,-1.5 z m -26,4.2188 c -2.519,-0.0763 -5.0096,1.7704 -7,5.125 -10.915,18.396 -24.158,2.3617 -30.75,12.188 v 1.5 c 6.4568,-11.034 20.003,5.9633 31.125,-12.781 4.122,-6.9472 10.357,-7.4688 14.625,2.3438 -2.268,-5.7049 -5.1473,-8.2886 -8,-8.375 z m -296.34,30.281 0.4375,7.6562 c 0.33725,1.026 1.0236,1.475 1.4375,1.5625 -0.43988,-1.5918 -1.4638,-4.7239 -1.875,-9.2188 z m 19.031,5.3438 c 0.55805,1.3379 1.2065,3.395 2,6.4375 l 1.1562,65.969 c -0.09536,1.1595 0.53035,2.4712 1.4688,3.4062 -0.16248,-0.4694 -0.22501,-0.95018 -0.1875,-1.4062 l -1.1562,-65.969 c -1.471,-5.64 -2.4547,-7.9342 -3.2812,-8.4375 z m 15.156,12.5 c 1.5788,2.7006 6.1904,10.989 8.4375,11.656 -2.5781,-2.8845 -6.8583,-9.3316 -8.4375,-11.656 z m 29.062,4.1875 c 2.169,7.0674 1.2735,27.369 2.1875,39.875 -0.96269,5.0246 -0.18334,7.0122 1.125,8.0625 -0.37415,-1.2791 -0.40118,-3.1531 0.15625,-6.0625 -1.0278,-14.063 0.22425,-38.006 -3.1562,-41.875 h -0.3125 z m 12,3.9062 c 1.3286,3.2333 2.0412,8.8661 4.4062,11.469 -1.883,-3.8674 -2.447,-9.8594 -4.4062,-11.469 z m -81.188,18.312 0.28125,0.4375 c -0.0057,-0.14661 -0.02662,-0.28908 -0.03125,-0.4375 z m 0.28125,0.4375 c 0.18022,4.6239 0.88736,8.322 2.3438,9.3438 -0.65248,-1.8335 -0.9948,-4.6086 -1.0938,-7.7812 h -0.25 l -1,-1.5625 z m 173.16,6.9375 c 0.23835,0.43593 0.49318,0.89049 0.71875,1.375 1.5702,6.1939 0.018,20.555 3.2188,22.469 -1.482,-4.6378 -0.63945,-15.348 -1.9375,-20.469 -0.609,-1.3081 -1.3016,-2.4087 -2,-3.375 z m -47.281,1.4688 1.6562,10.375 c 0.40323,0.26469 0.71843,0.45751 1.0625,0.65625 l -1.6562,-10.375 c -0.35157,-0.22295 -0.71093,-0.43459 -1.0625,-0.65625 z"
       fill="#ffffff"
       filter="url(#k)"
       opacity="0.5679"
       id="path89" />
    <path
       d="m 201.72,90.062 31.844,26.438 v -0.0312 l -0.0625,-0.0626 -0.0625,-19.156 -31.719,-7.1875 z m 60.094,105.78 62.562,10.379 v -31.625 c -2.2378,0.66694 -4.4878,1.2857 -6.8125,1.875 l -0.5,-0.21875 v 0.25 l -55.188,-28.923 -0.0625,48.262 z"
       fill="url(#a)"
       id="path91"
       style="fill:url(#linearGradient936)" />
    <path
       d="m 233.875,35.25 v 8.875 l 0.28125,0.15625 v 2.625 c 0.23185,0.19109 0.43502,0.36298 1.8125,1.46875 1.36897,0.46764 2.76516,0.83318 4.09375,1.40625 0.99308,0.42836 1.89397,1.0735 2.84375,1.59375 0.96913,0.53093 1.93202,1.10718 2.9375,1.5625 1.16791,0.52885 2.75975,0.34452 3.5625,1.375 0.45305,0.58157 -1.45468,1.92355 -0.78125,2.1875 2.37947,0.93294 5.12416,0.32904 7.6875,0.5 -0.58665,0.78297 -2.1257,1.48591 -1.78125,2.375 0.43313,1.11797 2.17155,0.82882 3.21875,1.3125 0.15068,0.06968 5.48267,2.81586 5.59375,2.84375 11.51271,2.89823 1.82279,-1.1219 9.28125,2.25 -0.41791,0.77166 -1.94189,1.82167 -1.28125,2.3125 1.5336,1.13948 3.80218,0.51256 5.65625,0.9375 1.28548,0.29461 2.60531,0.56132 3.75,1.21875 3.96772,2.27858 -1.72467,1.20567 2.875,3.25 1.32579,0.58924 2.84046,0.71598 4.25,1.0625 0.88934,0.4174 1.92401,0.58974 2.6875,1.21875 0.25149,0.20718 1.19604,2.86787 1.28125,2.90625 1.20768,0.53802 2.81628,-0.17903 3.875,0.625 0.47277,0.35904 -0.76219,0.97875 -1.15625,1.46875 1.44818,0.08584 2.89557,0.1641 4.34375,0.25 1.4203,0.05843 2.88705,-0.18679 4.25,0.1875 0.29531,0.0811 -0.11231,0.68083 -0.0625,1 0.0457,0.29329 0.46683,0.50549 0.34375,0.78125 -0.21057,0.47177 -1.55702,0.787 -1.125,1 3.06922,1.51542 3.18831,-1.36058 3,0.46875 L 309.75,83.5 v 23.78125 l -0.90625,-0.5 c -0.98782,-0.68924 -2.10659,-1.21324 -2.9375,-2.09375 -0.66946,-0.70946 -0.55918,-2.25622 -1.46875,-2.59375 -2.1902,-0.81277 -4.57512,-0.86733 -6.9375,-1.0625 l -2.53125,-1.34375 c -0.2206,-0.79441 -0.44794,-1.5766 -1.125,-1.875 C 290.29041,96.2464 288.23644,95.70453 287,95.59375 l -4.3125,-2.25 c -0.0532,-0.06933 -0.0691,-0.08367 -0.125,-0.15625 -0.82177,-0.39215 -1.67645,-0.76577 -2.5,-1.15625 l -3.34375,-1.75 c -1.14952,-0.74913 -2.30587,-1.5445 -3.53125,-2.15625 -1.04321,-0.52068 -2.12215,-0.93411 -3.21875,-1.34375 L 244.375,73.59375 c -0.74758,-0.58431 -1.46277,-1.20202 -2.34375,-1.53125 -0.4942,-0.1847 -1.01598,-0.34742 -1.53125,-0.46875 l -6.625,-3.40625 v 1.78125 c -0.0516,-0.02271 -0.13631,-0.03958 -0.1875,-0.0625 v 7.15625 c 0.336,0.63846 0.3671,1.51905 0.625,2.21875 L 240.28125,80.375 259,90.03125 c 0.21481,0.22316 0.4385,0.43675 0.65625,0.65625 0.93914,0.94664 1.61257,2.22319 2.75,2.90625 1.79725,1.07937 3.92183,1.54938 5.875,2.3125 8.26159,5.69487 -1.35655,-0.38638 11.03125,4.625 1.4585,0.59002 2.45955,2.04822 3.96875,2.5 0.54359,0.16274 1.12242,0.29078 1.6875,0.375 l 10.625,5.5 c 0.0832,0.10742 0.16729,0.20435 0.25,0.3125 0.13483,-0.008 0.25041,-0.008 0.375,0 l 2.125,1.09375 c 0.81187,0.81702 1.46022,1.84857 2.46875,2.34375 1.11758,0.54874 2.49785,0.40912 3.59375,1 0.40032,0.21583 0.16612,1.12545 0.59375,1.28125 0.92227,0.33601 1.93039,0.31618 2.9375,0.34375 l 1.8125,0.90625 v 22.21875 c -1.36934,-0.0766 -2.81421,0.008 -4,-0.0625 l -1.9375,-1 c 0.35201,-0.48298 1.59562,-1.03493 2.09375,-1.53125 l -3.46875,-1.125 c -1.64801,-1.62685 -4.11477,-1.13562 -6.28125,-1.28125 L 293.6875,132.125 c 0.45148,-0.50662 1.53425,-1.18308 1.21875,-1.65625 -0.71145,-1.06701 -2.42284,-0.76778 -3.59375,-1.25 -6.43435,-2.64991 0.89069,-0.46869 -7.75,-2.625 l -2.625,-1.5625 c -0.0979,-0.64884 0.24647,-1.61907 -0.28125,-1.96875 -1.25618,-0.83237 -3.12889,-0.3263 -4.40625,-1.125 -0.5209,-0.32574 0.1371,-1.55744 -0.40625,-1.84375 -5.90916,-1.1903 -3.60883,-0.0495 -7.21875,-2.625 l -5.28125,-1 h -0.0312 c -0.2752,-0.62507 -0.22279,-1.62748 -0.84375,-1.875 -1.23513,-0.4924 -2.58518,-0.50554 -3.9375,-0.59375 l -11.5,-5.9375 c 0.29878,-0.54981 0.54886,-1.08113 0.15625,-1.34375 -1.28335,-0.85837 -2.95634,-0.72918 -4.53125,-0.90625 l -4.125,-2.15625 c 0.51018,-0.25564 0.71804,-0.77097 -0.875,-2.15625 -0.54159,-0.47096 -2.23721,-1.12442 -3.96875,-1.71875 v 1.40625 l -0.5,-0.28125 v 8.875 l 0.5,0.28125 v 0.6875 c 0.5211,0.0317 0.49917,-0.23452 0.28125,-0.5625 l 1.15625,0.59375 c 0.21772,0.17109 0.0991,0.10898 0.4375,0.375 0.20485,0.0686 0.41952,0.12221 0.625,0.1875 l 12.84375,6.625 c -0.39877,0.56695 -0.99527,1.1463 -0.5625,1.3125 1.30332,0.50069 2.72895,0.58939 4.15625,0.5625 l 2.34375,1.1875 c -0.36335,0.34832 -0.63003,0.68619 -0.46875,1.09375 0.44244,1.11811 2.21152,0.8597 3.28125,1.34375 0.15392,0.0698 5.60528,2.81582 5.71875,2.84375 1.32159,0.32615 2.29501,0.5786 3.125,0.75 l 5.3125,2.75 c -0.36805,0.43547 -0.59602,0.81071 -0.25,1.0625 1.06661,0.77617 2.4916,0.72272 3.875,0.75 l 6.75,3.53125 c 0.10507,0.22418 0.59839,0.54191 1.9375,1.125 0.26778,0.1166 0.56358,0.19516 0.84375,0.28125 l 6.96875,3.59375 c 0.2628,0.6575 0.48977,1.2942 0.53125,1.3125 0.73248,0.31971 1.61271,0.2027 2.4375,0.21875 l 1.5625,0.8125 c -0.24486,0.33623 -0.91075,0.75697 -1.1875,1.09375 l 3.71875,0.21875 4.75,2.4375 c -0.42073,0.23169 -0.87104,0.42857 -0.59375,0.5625 1.10323,0.53362 1.83497,0.50369 2.3125,0.34375 l 4.15625,2.125 V 170.75 c -4.82829,-1.15111 3.0079,-0.74557 -10.53125,-0.53125 -1.50456,-1.06991 -2.30332,-1.7477 -2.75,-2.1875 -0.21129,0.51896 -1.79267,1.02892 -8,0.25 -1.46165,-0.18338 -5.63737,-2.20531 -7.09375,-2.59375 -5.35327,-1.42782 -10.13059,0.58052 -15.40625,-0.21875 -1.3493,-0.20447 -2.58515,-1.29746 -3.875,-1.9375 v 5.28125 c 0.66669,0.21135 1.72933,0.56259 4.03125,1.25 1.83026,0.54657 3.6561,1.31604 5.5,1.59375 2.58773,0.38968 5.15536,0.36136 7.71875,0.40625 2.8795,0.0504 3.94047,0.13245 6.8125,1.09375 1.28749,0.43093 3.34963,1.27887 4.125,2.53125 2.0445,-0.033 14.24028,-0.30743 16.625,0.0312 8.52649,1.21038 1.81262,1.72846 9.3125,3.78125 2.42884,0.6648 5.5817,0.76523 8.5,0.75 v -5.5625 l -0.46875,-0.125 c -1.33766,-0.42251 -2.37712,-1.95392 -3.71875,-2.34375 -1.34736,-0.39149 -2.70331,-0.42341 -4.0625,-0.46875 V 77.8437 Z m 62.59375,132.78125 c 0.12209,-0.29985 -0.19422,-0.60397 -0.375,-0.65625 -0.16105,-0.0466 -0.15732,0.13215 0.375,0.65625 z M 234.15625,47.0625 v 0.90625 c 0.68018,0.042 0.38337,-0.45698 0,-0.90625 z"
       fill="#502d16"
       stroke="#502d16"
       id="path93" />
    <path
       d="M 233.22,34.75 316.654,78.259 382.126,54.5 233.216,34.75 v 5e-5 z"
       fill="url(#d)"
       opacity="0.4406"
       id="path95"
       style="fill:url(#d)" />
    <path
       d="m 345.12,166.81 c -6.4015,2.9261 -13.328,5.5693 -20.75,7.7812 l -0.125,0.0312 v 31.625 l 0.28125,0.0625 c 11.835,-7.7092 19.145,-16.749 20.625,-26.344 l -0.0312,-13.156 z"
       fill="url(#c)"
       opacity="0.9218"
       id="path97"
       style="fill:url(#c)" />
    <path
       d="m 382.19,54.156 c -14.258,10.068 -35.779,18.272 -61.75,23.5 v 2 c 26.484,-5.3281 48.348,-13.757 62.594,-24.094 l -0.84375,-1.4062 z M 52.22,86.344 c -0.14279,1.0561 -0.21875,2.1172 -0.21875,3.1875 0,32.235 70.518,58.375 151.43,58.375 -31.374,-3.1259 -140.47,-16.615 -151.21,-61.562 z"
       fill="url(#b)"
       filter="url(#j)"
       opacity="0.6379"
       id="path99"
       style="fill:url(#b)" />
    <path
       d="m 201.72,90.062 31.844,26.438 v -0.0312 l -0.0625,-0.0626 -0.0625,-19.156 -31.719,-7.1875 z m 60.094,105.78 62.562,10.379 v -31.625 c -2.2378,0.66694 -4.4878,1.2857 -6.8125,1.875 l -0.5,-0.21875 v 0.25 l -55.188,-28.923 -0.0625,48.262 z"
       fill="url(#a)"
       filter="url(#h)"
       id="path101"
       style="fill:url(#linearGradient938)" />
    <path
       d="m 233.22,34.969 v 0.59375 l 82.406,43.25 0.3125,97.094 1.125,0.59375 v -0.25 L 316.751,77.9065 233.22,34.9685 Z m 28.5,114 0.0625,2.9688 0.0937,0.0312 v -2.9062 l -0.15625,-0.0937 z"
       fill="#784421"
       filter="url(#g)"
       id="path103" />
  </g>
</svg>
