<?xml version="1.0" encoding="UTF-8" standalone="no"?>
<svg
   xmlns:dc="http://purl.org/dc/elements/1.1/"
   xmlns:cc="http://creativecommons.org/ns#"
   xmlns:rdf="http://www.w3.org/1999/02/22-rdf-syntax-ns#"
   xmlns:svg="http://www.w3.org/2000/svg"
   xmlns="http://www.w3.org/2000/svg"
   xmlns:xlink="http://www.w3.org/1999/xlink"
   xmlns:sodipodi="http://sodipodi.sourceforge.net/DTD/sodipodi-0.dtd"
   xmlns:inkscape="http://www.inkscape.org/namespaces/inkscape"
   viewBox="0 0 368.87296 319.50599"
   version="1.1"
   id="svg210"
   sodipodi:docname="camera.svg"
   width="97.597641mm"
   height="84.535965mm"
   inkscape:version="1.0.2-2 (e86c870879, 2021-01-15)">
  <metadata
     id="metadata216">
    <rdf:RDF>
      <cc:Work
         rdf:about="">
        <dc:format>image/svg+xml</dc:format>
        <dc:type
           rdf:resource="http://purl.org/dc/dcmitype/StillImage" />
        <dc:title />
      </cc:Work>
    </rdf:RDF>
  </metadata>
  <defs
     id="defs214">
    <linearGradient
       inkscape:collect="always"
       xlink:href="#n"
       id="linearGradient218"
       gradientUnits="userSpaceOnUse"
       x1="8.5500002"
       y1="3.6889999"
       x2="6.586"
       y2="3.711"
       gradientTransform="matrix(15.321825,0,0,15.321825,0.015322,0)" />
    <linearGradient
       inkscape:collect="always"
       xlink:href="#d"
       id="linearGradient220"
       gradientUnits="userSpaceOnUse"
       x1="5.9349999"
       y1="4.421"
       x2="3.0409999"
       y2="4.5289998"
       gradientTransform="matrix(15.321825,0,0,15.321825,0.015322,0)" />
    <linearGradient
       inkscape:collect="always"
       xlink:href="#g"
       id="linearGradient222"
       gradientUnits="userSpaceOnUse"
       x1="5.3870001"
       y1="4.5159998"
       x2="3.5280001"
       y2="4.3990002"
       gradientTransform="matrix(15.321825,0,0,15.321825,0.015322,0)" />
  </defs>
  <sodipodi:namedview
     pagecolor="#ffffff"
     bordercolor="#666666"
     borderopacity="1"
     objecttolerance="10"
     gridtolerance="10"
     guidetolerance="10"
     inkscape:pageopacity="0"
     inkscape:pageshadow="2"
     inkscape:window-width="1920"
     inkscape:window-height="1017"
     id="namedview212"
     showgrid="false"
     units="mm"
     inkscape:zoom="1.8014217"
     inkscape:cx="194.37156"
     inkscape:cy="138.56942"
     inkscape:window-x="-8"
     inkscape:window-y="-8"
     inkscape:window-maximized="1"
     inkscape:current-layer="svg210"
     inkscape:document-rotation="0" />
  <style
     type="text/css"
     id="style2">
	.h{stroke:#000;stroke-width:.03}
	.j{fill:#1a1a1a}
	.k{fill:#333}
	.m{fill:#4d4d4d}
	.p{fill:#666}
	.r{fill:#b3b3b3}
</style>
  <linearGradient
     id="a"
     x1="7.8460002"
     x2="20.614"
     y1="12.425"
     y2="12.425"
     gradientUnits="userSpaceOnUse"
     gradientTransform="matrix(15.321825,0,0,15.321825,0.015322,0)">
    <stop
       offset="0"
       stop-color="#4d4d4d"
       id="stop4" />
    <stop
       offset=".3804"
       stop-color="#b3b3b3"
       id="stop6" />
    <stop
       offset="1"
       id="stop8" />
  </linearGradient>
  <linearGradient
     id="b"
     x1="14.149"
     x2="14.149"
     y1="9.3590002"
     y2="19.246"
     gradientUnits="userSpaceOnUse"
     gradientTransform="matrix(15.321825,0,0,15.321825,0.015322,0)">
    <stop
       offset="0"
       stop-color="#333"
       id="stop11" />
    <stop
       offset="1"
       stop-color="#666"
       id="stop13" />
  </linearGradient>
  <linearGradient
     id="c"
     x1="9.3780003"
     x2="5.7989998"
     y1="2.8570001"
     y2="2.898"
     gradientUnits="userSpaceOnUse"
     gradientTransform="matrix(15.321825,0,0,15.321825,0.015322,0)">
    <stop
       offset="0"
       stop-color="#666"
       id="stop16" />
    <stop
       offset="1"
       stop-color="#999"
       id="stop18" />
  </linearGradient>
  <linearGradient
     id="d"
     x1="5.9349999"
     x2="3.0409999"
     y1="4.421"
     y2="4.5289998"
     gradientUnits="userSpaceOnUse">
    <stop
       offset="0"
       stop-color="gray"
       id="stop21" />
    <stop
       offset="1"
       stop-color="#b3b3b3"
       id="stop23" />
  </linearGradient>
  <linearGradient
     id="e"
     x1="7.2519999"
     x2="0.68900001"
     y1="11.685"
     y2="11.555"
     gradientUnits="userSpaceOnUse"
     gradientTransform="matrix(15.321825,0,0,15.321825,0.015322,0)">
    <stop
       offset="0"
       stop-color="#1a1a1a"
       id="stop26" />
    <stop
       offset=".6392"
       stop-color="#4b4b4b"
       id="stop28" />
    <stop
       offset="1"
       stop-color="#999"
       id="stop30" />
  </linearGradient>
  <linearGradient
     id="f"
     x1="21.979"
     x2="20.818001"
     y1="12.432"
     y2="11.498"
     gradientUnits="userSpaceOnUse"
     gradientTransform="matrix(15.321825,0,0,15.321825,0.015322,0)">
    <stop
       offset="0"
       stop-color="#1a1a1a"
       id="stop33" />
    <stop
       offset="1"
       stop-color="#666"
       id="stop35" />
  </linearGradient>
  <linearGradient
     id="g"
     x1="5.3870001"
     x2="3.5280001"
     y1="4.5159998"
     y2="4.3990002"
     gradientUnits="userSpaceOnUse">
    <stop
       offset="0"
       stop-color="#b3b3b3"
       id="stop38" />
    <stop
       offset="1"
       stop-color="#fefefe"
       id="stop40" />
  </linearGradient>
  <linearGradient
     id="h"
     x1="2.9960001"
     x2="1.919"
     y1="4.6880002"
     y2="4.625"
     xlink:href="#g"
     gradientUnits="userSpaceOnUse"
     gradientTransform="matrix(15.321825,0,0,15.321825,0.015322,0)" />
  <linearGradient
     id="i"
     x1="22.030001"
     x2="20.781"
     y1="12.323"
     y2="11.594"
     gradientUnits="userSpaceOnUse"
     gradientTransform="matrix(15.321825,0,0,15.321825,0.015322,0)">
    <stop
       offset="0"
       stop-color="gray"
       id="stop44" />
    <stop
       offset="1"
       stop-color="#666"
       id="stop46" />
  </linearGradient>
  <linearGradient
     id="j"
     x1="19.257999"
     x2="4.8150001"
     y1="11.099"
     y2="11.099"
     gradientUnits="userSpaceOnUse"
     gradientTransform="matrix(15.321825,0,0,15.321825,0.015322,0)">
    <stop
       offset="0"
       stop-color="#1a1a1a"
       id="stop49" />
    <stop
       offset="1"
       stop-color="#333"
       id="stop51" />
  </linearGradient>
  <linearGradient
     id="k"
     x1="14.153"
     x2="14.234"
     y1="2.6860001"
     y2="1.681"
     xlink:href="#d"
     gradientUnits="userSpaceOnUse"
     gradientTransform="matrix(15.321825,0,0,15.321825,0.015322,0)" />
  <linearGradient
     id="l"
     x1="14.877"
     x2="13.704"
     y1="5.954"
     y2="11.207"
     gradientUnits="userSpaceOnUse"
     gradientTransform="matrix(15.321825,0,0,15.321825,0.015322,0)">
    <stop
       offset="0"
       stop-color="#333"
       id="stop55" />
    <stop
       offset="1"
       stop-color="gray"
       id="stop57" />
  </linearGradient>
  <linearGradient
     id="m"
     x1="11.294"
     x2="17.166"
     y1="10.158"
     y2="10.158"
     gradientUnits="userSpaceOnUse"
     gradientTransform="matrix(15.321825,0,0,15.321825,0.015322,0)">
    <stop
       offset="0"
       stop-color="#69f"
       id="stop60" />
    <stop
       offset=".2196"
       stop-color="#5f8eff"
       id="stop62" />
    <stop
       offset=".4196"
       stop-color="#fff"
       id="stop64" />
    <stop
       offset=".5686"
       stop-color="#3d5bff"
       id="stop66" />
    <stop
       offset="1"
       stop-color="#369"
       id="stop68" />
  </linearGradient>
  <linearGradient
     id="n"
     x1="8.5500002"
     x2="6.586"
     y1="3.6889999"
     y2="3.711"
     gradientUnits="userSpaceOnUse">
    <stop
       offset="0"
       stop-color="#1a1a1a"
       id="stop71" />
    <stop
       offset="1"
       stop-color="gray"
       id="stop73" />
  </linearGradient>
  <linearGradient
     id="o"
     x1="3.4809999"
     x2="2.3210001"
     y1="5.2649999"
     y2="5.2820001"
     xlink:href="#n"
     gradientUnits="userSpaceOnUse"
     gradientTransform="matrix(15.321825,0,0,15.321825,0.015322,0)" />
  <linearGradient
     id="p"
     x1="5.5170002"
     x2="4.1900001"
     y1="5.5120001"
     y2="5.5430002"
     xlink:href="#n"
     gradientUnits="userSpaceOnUse"
     gradientTransform="matrix(15.321825,0,0,15.321825,0.015322,0)" />
  <linearGradient
     id="q"
     x1="14.132"
     x2="14.132"
     y1="9.1309996"
     y2="5.5869999"
     gradientUnits="userSpaceOnUse"
     gradientTransform="matrix(15.321825,0,0,15.321825,0.015322,0)">
    <stop
       offset="0"
       stop-color="#1a1a1a"
       id="stop78" />
    <stop
       offset="1"
       stop-color="#999"
       id="stop80" />
  </linearGradient>
  <radialGradient
     id="r"
     cx="13.368"
     cy="13.658"
     r="8.8669996"
     gradientUnits="userSpaceOnUse"
     gradientTransform="matrix(15.321825,0,0,15.321825,0.015322,0)">
    <stop
       offset="0"
       stop-color="#146431"
       id="stop83" />
    <stop
       offset="1"
       stop-color="#143131"
       id="stop85" />
  </radialGradient>
  <radialGradient
     id="s"
     cx="14.149"
     cy="13.918"
     r="10.457"
     gradientUnits="userSpaceOnUse"
     gradientTransform="matrix(15.321825,0,0,15.321825,0.015322,0)">
    <stop
       offset="0"
       stop-color="#b3b3b3"
       id="stop88" />
    <stop
       offset="1"
       id="stop90" />
  </radialGradient>
  <radialGradient
     id="t"
     cx="3.6989999"
     cy="6.0679998"
     r="20.566"
     gradientUnits="userSpaceOnUse"
     gradientTransform="matrix(15.321825,0,0,15.321825,0.015322,0)">
    <stop
       offset="0"
       stop-color="gray"
       id="stop93" />
    <stop
       offset="1"
       id="stop95" />
  </radialGradient>
  <path
     class="k h"
     d="m 39.499666,56.430278 c 10.38819,-0.735446 20.79171,-0.643516 31.17991,0 5.33199,0.33708 9.71404,3.907066 9.71404,9.254383 v 8.31975 h -50.60799 v -8.31975 c 0,-5.362639 4.382042,-8.886659 9.71404,-9.254383 z"
     id="path98" />
  <ellipse
     cx="55.81741"
     cy="59.801083"
     rx="15.45972"
     ry="1.7620099"
     class="r h"
     id="ellipse100" />
  <path
     fill="url(#j)"
     d="m 0.015322,104.49484 c 0,0 6.22066,-36.511906 38.580354,-38.151341 32.35969,-1.685401 213.249154,-7.048039 255.568034,-1.685401 42.31888,5.408604 49.36692,6.649672 49.36692,6.649672 3.32484,-0.41369 25.31165,14.509768 25.31165,31.10331 0,15.01538 -1.22575,154.75041 -1.22575,154.75041 0,0 -2.49745,16.60887 -13.6977,17.00723 -11.18493,0.42901 -260.133944,1.6854 -260.133944,1.6854 0,0 -35.2402,4.96427 -43.55995,4.96427 -8.27378,0 -36.098214,-6.23598 -38.151339,-7.47705 C 9.98983,272.08496 1.271712,267.10536 1.685401,259.64363 2.083768,252.19723 0.015322,104.49484 0.015322,104.49484 Z"
     id="path102"
     style="fill:url(#j);stroke-width:15.3218" />
  <path
     fill="url(#e)"
     d="m 0.015322,104.49484 c 0,0 6.021477,-17.926533 21.680381,-28.866316 l 91.593867,-0.367723 2.40554,38.917429 c 5.9755,-0.65884 5.86826,2.4515 4.81105,5.97552 l -9.14713,27.79378 c -10.78657,1.53218 -17.880574,10.72528 -21.557814,27.01238 l -0.15322,21.49652 0.61288,79.48962 c -7.81414,1.10318 -32.9879,4.90299 -40.05126,4.90299 -8.27378,0 -36.082894,-6.25131 -38.15134,-7.5077 C 9.974508,272.1156 1.25639,267.136 1.67008,259.67428 2.083768,252.19723 0.015322,104.49484 0.015322,104.49484 Z"
     id="path104"
     style="fill:url(#e);stroke-width:15.3218" />
  <rect
     x="44.402653"
     y="170.05693"
     width="12.855011"
     height="33.187069"
     rx="4.2288237"
     fill="#5e1e1e"
     id="rect106"
     style="stroke-width:15.3218" />
  <path
     fill="url(#t)"
     d="m 0.015322,104.49484 c 0,0 6.22066,-36.511906 38.580354,-38.151341 16.93062,-0.873344 74.525364,-2.757929 131.645124,-3.600629 0.9193,4.290111 1.53218,7.323832 1.53218,7.323832 l -37.75297,40.664118 c 0,0 -95.424334,-3.73852 -118.238531,-4.13689 C 8.427003,106.44072 3.432089,105.62866 0,104.6021 v -0.10726 z"
     id="path108"
     style="fill:url(#t);stroke-width:15.3218" />
  <path
     class="r"
     d="m 0.015322,104.49484 c 0,0 6.22066,-36.511906 38.580354,-38.151341 15.62826,-0.812056 65.730634,-2.482136 118.223204,-3.370802 l -2.05313,7.094005 C 116.39991,70.480392 29.969488,56.997186 8.748762,90.398762 4.305433,97.339553 3.922387,100.87889 2.926468,105.32221 1.853941,105.09239 0.873345,104.86256 0.015322,104.58677 Z M 279.33219,63.432352 c 5.96019,0.33708 10.98574,0.766091 14.86217,1.225746 42.28823,5.408604 49.33627,6.649672 49.33627,6.649672 3.34015,-0.41369 25.32698,14.509768 25.32698,31.10331 v 0.96527 l -2.29828,0.68948 c 0,0 1.88459,-2.91115 -3.52402,-12.456643 -5.4086,-9.545496 -14.09608,-14.555733 -19.91836,-16.608858 -5.79166,-2.083768 -62.20662,-4.136892 -62.20662,-4.136892 l -1.57814,-7.446407 z"
     id="path110"
     style="stroke-width:15.3218" />
  <path
     class="p"
     d="m 368.84228,103.51424 v 0.91931 l -4.67315,2.78858 -0.0766,0.046 -0.0919,0.0306 c -0.15322,0 -63.09528,2.91115 -68.88692,2.91115 v -0.81206 c 5.71504,0 66.09834,-2.75793 68.76434,-2.91114 l 4.99492,-2.97244 z m -1.56282,155.30201 -0.30644,1.14915 c -1.71604,1.17977 -4.29011,2.48213 -7.15529,2.48213 -4.99491,0 -74.87776,2.8805 -75.07694,2.91114 l -0.0306,-0.79674 c 0.21451,0 70.17395,-2.91113 75.12291,-2.91113 3.09501,0 5.86825,-1.63944 7.46172,-2.83455 z M 1.67008,259.9654 v -0.42902 l 0.153218,-0.36772 c 2.236986,0.96527 4.719121,1.83861 6.956107,2.5281 2.298274,0.73545 4.259467,1.28703 5.5465,1.63944 4.443329,1.22573 32.436301,4.44332 33.508831,4.55057 l 42.34953,-2.8805 c -0.15322,-5.0562 -1.62412,-60.55185 -0.82738,-85.95543 0.79673,-25.28101 19.075674,-31.21056 21.236054,-31.82344 0.65884,-2.1144 6.35855,-20.16351 9.49953,-26.81319 3.03372,-6.46581 -2.91115,-6.09808 -2.94179,-6.09808 h -0.0306 c -0.24515,0 -82.400784,-0.82738 -98.749171,-0.82738 -10.112404,0 -15.582294,-0.64351 -18.23297,-1.14913 l -0.03064,-0.7661 c 2.528101,0.45966 7.906062,1.13382 18.263614,1.13382 15.934698,0 97.845177,0.81205 98.718517,0.82738 0.15323,0 7.24723,-0.36773 3.67725,7.20125 -3.30952,7.0174 -9.49953,26.85917 -9.53018,26.92045 l -0.0766,0.19918 -0.21451,0.046 c -0.0766,0 -20.071594,4.90298 -20.883644,31.16459 -0.79674,25.3423 0.67416,80.77666 0.81205,85.89415 h 46.118694 v 0.7661 H 90.567346 l -42.71725,2.91113 h -0.0613 c -0.0766,-0.0306 -29.065499,-3.34015 -33.662046,-4.59654 -1.302355,-0.36773 -3.340158,-0.91931 -5.561822,-1.62412 -2.206343,-0.7048 -4.642513,-1.53218 -6.894821,-2.51277 z M 0.015322,105.33754 v -0.79674 c 4.749766,0.49031 23.534322,2.37488 30.398499,2.37488 4.596547,0 27.809115,0.58224 46.731565,1.07254 12.94695,0.30643 23.902054,0.58223 25.434234,0.58223 h 30.73559 v 0.76609 h -30.73559 c -1.4709,0 -12.471964,-0.26048 -25.495524,-0.58223 -18.84584,-0.45966 -41.951153,-1.07253 -46.670275,-1.07253 -6.848855,0.0306 -25.495515,-1.80797 -30.398499,-2.34424 z"
     id="path112"
     style="stroke-width:15.3218" />
  <path
     d="m 318.0198,146.72179 c 7.50768,2.60471 16.70078,5.0562 23.13595,8.27379 2.20634,1.10317 4.09092,2.45148 5.48521,4.16753 5.4699,6.77225 3.52402,32.14519 -0.61288,35.47002 -4.13688,3.30951 -37.75296,18.4628 -37.75296,18.4628 l -6.665,-53.10544 16.39435,-13.28402 z"
     id="path114"
     style="stroke-width:15.3218" />
  <path
     fill="#e6e6e6"
     d="m 190.77204,10.372874 0.18387,-9.5454955 0.429,-0.7201257 L 197.39107,0 l 0.58223,0.5669076 4.09092,7.5076936 z m 54.95939,0 L 245.53224,0.8273785 245.10323,0.1072528 239.09707,0 l -0.58222,0.5669076 -4.09093,7.5076936 z"
     id="path116"
     style="stroke-width:15.3218" />
  <path
     fill="#808080"
     d="m 202.5392,0.1532183 h 31.62425 c 0.61288,0 0.96527,0.5056202 1.07253,1.1031713 l 1.59347,7.4004416 h -36.95624 l 1.56283,-7.4004416 c 0.15321,-0.6128729 0.50561,-1.1031713 1.10316,-1.1031713 z"
     id="path118"
     style="stroke-width:15.3218" />
  <path
     class="k"
     d="m 189.94466,6.9561082 h 55.97063 c 1.37896,0 2.49745,1.118493 2.49745,2.497458 V 19.412752 H 187.43189 V 9.4535662 c 0,-1.378965 1.11849,-2.51278 2.49745,-2.51278 z"
     id="path120"
     style="stroke-width:15.3218" />
  <path
     fill="url(#q)"
     d="m 116.39991,205.9866 c 0,0 -7.35448,-14.21865 -6.43517,-36.92559 0.81206,-20.07159 42.93175,-117.82483 42.93175,-117.82483 l 8.27379,-22.829518 c 0,0 4.78041,-12.640504 21.78763,-12.640504 17.00723,0 77.16071,0.812056 77.16071,0.812056 0,0 10.98575,0.199184 16.79272,18.033786 5.82229,17.834604 40.93991,111.89528 42.31888,115.75638 1.04189,2.91115 4.74976,28.42198 -7.47705,31.53232 -12.25747,3.11032 -116.59908,27.79378 -116.59908,27.79378 l -78.81547,-3.73852 z"
     id="path122"
     style="fill:url(#q);stroke-width:15.3218" />
  <path
     class="k"
     d="m 147.9169,84.07085 c 0,0 12.25746,-16.808042 18.46279,-26.767227 6.23599,-9.959186 22.41584,-34.42814 22.41584,-34.42814 l 56.43027,-0.8427 c 0,0 12.47197,18.753913 17.42092,25.740664 l 25.52616,35.868392 c 0.39837,5.975511 -147.08951,1.486216 -140.24066,0.413688 z"
     id="path124"
     style="stroke-width:15.3218" />
  <path
     fill="url(#k)"
     d="m 174.3777,44.862301 c 6.78756,-10.449484 14.40251,-21.986818 14.40251,-21.986818 l 56.44559,-0.8427 c 0,0 9.69872,14.601699 15.38312,22.829518 z"
     id="path126"
     style="fill:url(#k);stroke-width:15.3218" />
  <path
     fill="url(#l)"
     d="m 155.19476,73.897158 c 20.14821,-4.489294 43.36077,-7.048039 68.0289,-7.048039 20.04095,0 39.1013,1.6854 56.33835,4.719122 2.86519,4.044961 17.0532,24.453632 30.36786,67.078949 2.08377,6.63435 13.8969,28.19216 3.32483,39.60691 -10.57206,11.41476 -36.92559,8.51894 -36.92559,8.51894 l -156.206,9.31567 c 0,0 -6.02147,-11.64459 -2.08376,-30.29125 6.35855,-30.12271 18.99905,-66.128987 37.1401,-91.900302 z"
     id="path128"
     style="fill:url(#l);stroke-width:15.3218" />
  <circle
     cx="327.979"
     cy="183.21838"
     r="12.655827"
     fill="url(#i)"
     id="circle130"
     style="fill:url(#i);stroke-width:15.3218" />
  <circle
     cx="327.87173"
     cy="183.32562"
     r="10.679312"
     fill="url(#f)"
     id="circle132"
     style="fill:url(#f);stroke-width:15.3218" />
  <path
     class="p"
     d="m 345.52247,194.63313 c -3.40145,2.71197 -5.89891,3.70789 -11.76716,6.58838 l 0.0306,-0.36772 c 0,0 9.34631,-4.99491 10.57206,-6.02147 1.25638,-1.04189 2.69664,-6.64967 2.08377,-12.04296 -0.61287,-5.36264 -0.4137,-12.0123 -4.1369,-15.12264 -3.75385,-3.11033 -18.89181,-8.51893 -18.89181,-8.51893 l -6.84885,-2.08377 -1.45557,-5.79165 c 0,0 27.57928,11.7978 29.44854,14.70895 3.52402,5.51586 4.32076,25.92453 0.91931,28.65181 z"
     id="path134"
     style="stroke-width:15.3218" />
  <ellipse
     cx="218.04488"
     cy="190.37366"
     rx="97.814522"
     ry="96.190414"
     fill="url(#a)"
     id="ellipse136"
     style="fill:url(#a);stroke-width:15.3218" />
  <path
     fill="url(#m)"
     d="m 315.79813,187.6617 c 0.046,0.91931 0.0613,1.80798 0.0613,2.71197 0,3.06437 -0.15322,6.09809 -0.45965,9.08584 -2.29828,-22.33922 -12.64051,-42.41081 -28.13088,-57.45684 -17.71202,-17.19109 -42.18098,-27.82444 -69.224,-27.82444 -27.0277,0 -51.51197,10.64867 -69.224,27.83976 -15.47504,15.01539 -25.80195,35.08697 -28.14619,57.45684 -0.2758,-3.0184 -0.42901,-6.05212 -0.42901,-9.11649 0,-0.9193 0,-1.83861 0.046,-2.71196 4.24414,-18.23297 13.759,-34.55071 26.92044,-47.34444 18.14104,-17.62009 43.20755,-28.49859 70.86344,-28.49859 27.6559,0 52.70708,10.8785 70.86344,28.49859 13.17676,12.76309 22.67629,29.08082 26.92044,47.34444 z"
     id="path138"
     style="fill:url(#m);stroke-width:15.3218" />
  <ellipse
     cx="218.04488"
     cy="221.2778"
     rx="99.882973"
     ry="98.22821"
     class="m"
     id="ellipse140"
     style="stroke-width:15.3218" />
  <ellipse
     cx="218.04488"
     cy="220.86409"
     rx="89.923782"
     ry="88.054527"
     class="k"
     id="ellipse142"
     style="stroke-width:15.3218" />
  <path
     class="r"
     d="m 218.35132,103.11588 c 0.96528,0 1.94588,0.0306 2.91115,0.0613 v 8.70279 c -0.96527,-0.0306 -1.94587,-0.046 -2.91115,-0.046 v -8.73344 z m 7.70689,0.30643 c 0.94995,0.0919 1.8999,0.18386 2.84985,0.30643 v 8.65684 c -0.96527,-0.0919 -1.91522,-0.18386 -2.86518,-0.24515 v -8.73344 z m 7.38511,0.88867 2.78858,0.45965 v 8.65683 l -2.78858,-0.45965 z m 7.55367,1.48621 c 0.9193,0.21451 1.83861,0.45966 2.72727,0.68949 v 8.58022 c -0.9193,-0.24515 -1.80797,-0.45966 -2.72727,-0.67416 v -8.58022 z m 7.23189,1.99185 c 0.91932,0.30643 1.79266,0.58222 2.666,0.9193 v 8.47297 c -0.87334,-0.30643 -1.77733,-0.58222 -2.666,-0.85802 v -8.51894 z m 7.55366,2.75792 c 0.87334,0.3524 1.7467,0.72013 2.60471,1.11849 v 8.36572 l -2.60471,-1.07253 v -8.427 z m 7.2319,3.32484 2.55875,1.34832 v 8.22781 c -0.8427,-0.45965 -1.6854,-0.87334 -2.55875,-1.30235 z m 8.01332,4.5659 c 0.8427,0.53627 1.6854,1.07252 2.49746,1.65476 v 7.99799 c -0.81206,-0.53626 -1.63944,-1.07253 -2.48214,-1.56282 v -8.08993 z m 7.07868,4.94895 c 0.82737,0.61288 1.63944,1.27172 2.4515,1.93055 v 7.73752 l -2.4515,-1.83862 v -7.84477 z m 6.7416,5.68439 c 0.82738,0.7661 1.62411,1.50154 2.40553,2.26764 v 7.41576 c -0.76609,-0.73545 -1.57815,-1.44025 -2.3902,-2.14506 v -7.53834 z m 6.31259,6.37388 c 0.70481,0.7661 1.37897,1.53218 2.08378,2.35957 v 7.01739 c -0.68948,-0.76609 -1.37897,-1.50154 -2.08378,-2.22167 z m 4.7651,5.66908 c 0.70479,0.91931 1.39428,1.83862 2.08376,2.80389 v 6.58838 c -0.7048,-0.88866 -1.37897,-1.74668 -2.09909,-2.6047 V 141.114 Z m 4.7804,6.7416 1.6854,2.69664 v 5.97552 l -1.6854,-2.42085 z m 4.76509,8.30444 1.25639,2.54341 v 5.08685 l -1.25639,-2.23698 z m -93.75424,-44.1575 v -8.67216 l 2.91114,-0.15322 v 8.7028 c -0.98059,0.046 -1.94587,0.0766 -2.91114,0.15322 z m -7.6456,0.76608 v -8.67214 l 2.84987,-0.35241 v 8.68748 c -0.94996,0.10724 -1.89991,0.2145 -2.84987,0.3524 z m -7.32382,1.2564 v -8.61088 l 2.75792,-0.56689 v 8.6415 c -0.9193,0.15322 -1.83862,0.35241 -2.75792,0.53627 z m -7.5077,1.88458 v -8.54958 c 0.91932,-0.27579 1.80798,-0.53627 2.72729,-0.76609 v 8.58022 c -0.91931,0.21451 -1.83863,0.45965 -2.72729,0.73545 z m -7.17062,5.01023 v -0.12257 l 2.666,-0.98059 v 0.0766 z m 0,-2.63534 v -8.42701 c 0.88867,-0.36773 1.77733,-0.68949 2.666,-1.01124 v 8.47297 c -0.88867,0.30644 -1.77733,0.61287 -2.666,0.94995 z m -7.49237,3.14097 v -8.30443 l 2.60472,-1.22575 v 8.3504 c -0.87335,0.38305 -1.74669,0.76608 -2.60472,1.17978 z m -7.17061,3.7232 v -8.15121 c 0.84271,-0.50562 1.68541,-0.9806 2.55875,-1.47089 v 8.21249 c -0.85803,0.45965 -1.71604,0.91932 -2.55875,1.40961 z m -7.96734,5.04088 v -7.92138 l 2.49745,-1.76201 v 7.96735 z m -7.0174,5.40861 v -7.61495 c 0.81205,-0.72013 1.62411,-1.40961 2.45149,-2.0991 v 7.7222 c -0.82738,0.64353 -1.63944,1.30237 -2.45149,1.99185 z m -6.69564,6.19001 v -7.2319 c 0.76609,-0.8427 1.57815,-1.6854 2.37488,-2.48214 v 7.38512 l -0.91931,0.87335 c -0.49029,0.45965 -0.9806,0.91931 -1.45557,1.42492 z m -5.97551,6.63435 v -6.7416 c 0.65884,-0.91931 1.34832,-1.76201 2.05312,-2.63536 v 6.92547 l -2.06844,2.45149 z m -4.79573,6.29727 v -6.1747 c 0.67416,-1.07252 1.37896,-2.1144 2.08376,-3.15629 v 6.43516 c -0.7048,0.94996 -1.37895,1.91523 -2.06844,2.88051 z m -4.3514,6.84885 v -5.39328 c 0.53626,-1.07253 1.07253,-2.08376 1.68541,-3.11032 v 5.73035 c -0.58224,0.91932 -1.14915,1.83862 -1.68541,2.75794 z m -4.33608,8.47297 v -4.01431 c 0.38305,-1.07253 0.79674,-2.09909 1.22575,-3.14098 v 4.51994 c -0.42901,0.87335 -0.8427,1.76201 -1.22575,2.65068 z"
     id="path144"
     style="stroke-width:15.3218" />
  <path
     class="j"
     d="m 315.76749,192.65662 c 0,0.45965 -0.0306,0.91931 -0.0613,1.37896 -2.65068,-50.30155 -45.3526,-90.27619 -97.66131,-90.27619 -52.30871,0 -94.99531,39.98997 -97.66131,90.27619 l -0.0613,-1.37896 c 2.06845,-50.82249 45.01552,-91.41001 97.7226,-91.41001 52.70707,0 95.65415,40.60283 97.72259,91.41001 z"
     id="path146"
     style="stroke-width:15.3218" />
  <ellipse
     cx="216.80382"
     cy="219.14806"
     rx="76.333328"
     ry="75.751099"
     fill="url(#b)"
     id="ellipse148"
     style="fill:url(#b);stroke-width:15.3218" />
  <ellipse
     cx="216.80382"
     cy="218.68839"
     rx="64.734703"
     ry="64.244408"
     id="ellipse150"
     style="stroke-width:15.3218" />
  <ellipse
     cx="216.80382"
     cy="213.24916"
     rx="54.453762"
     ry="54.040073"
     fill="url(#s)"
     id="ellipse152"
     style="fill:url(#s);stroke-width:15.3218" />
  <path
     fill="#1a1a1a"
     d="m 216.81914,166.74742 c 13.10016,0 24.97458,5.2707 33.55479,13.78963 8.61088,8.54958 13.94287,20.33207 13.94287,33.34029 0,13.02356 -5.33199,24.79071 -13.94287,33.30966 -8.58021,8.53424 -20.45463,13.78963 -33.55479,13.78963 -13.13079,0.0306 -25.00521,-5.25539 -33.60075,-13.78963 -8.58023,-8.51895 -13.91222,-20.30143 -13.91222,-33.32498 0,-13.02355 5.30135,-24.82136 13.89689,-33.34029 8.58023,-8.53425 20.46996,-13.78964 33.58544,-13.78964 z m 32.91128,14.4638 c -8.427,-8.3504 -20.07159,-13.52917 -32.94192,-13.52917 -12.83969,0 -24.48427,5.17877 -32.91127,13.52917 -8.42701,8.36571 -13.63643,19.91836 -13.63643,32.66612 0,12.74777 5.20942,24.28509 13.63643,32.63549 8.427,8.38104 20.07158,13.5445 32.94191,13.5445 12.83969,0 24.48428,-5.16346 32.91128,-13.52917 8.427,-8.3504 13.63643,-19.88774 13.63643,-32.63549 0,-12.76309 -5.20943,-24.31574 -13.63643,-32.68145 z"
     id="path154"
     style="stroke-width:15.3218" />
  <ellipse
     cx="216.80382"
     cy="214.03056"
     rx="41.96648"
     ry="41.185062"
     class="j"
     id="ellipse156"
     style="stroke-width:15.3218" />
  <circle
     cx="216.28288"
     cy="214.16846"
     r="40.863308"
     fill="url(#r)"
     id="circle158"
     style="fill:url(#r);stroke-width:15.3218" />
  <ellipse
     cx="205.90999"
     cy="199.4442"
     rx="3.3248355"
     ry="3.1103303"
     fill="#9ea89c"
     id="ellipse160"
     style="stroke-width:15.3218" />
  <path
     fill="#3e6b35"
     d="m 217.52395,188.48908 c 5.5465,0 10.57205,2.25231 14.18801,5.88359 3.64659,3.63126 5.88357,8.65683 5.88357,14.18801 0,5.53117 -2.23698,10.57205 -5.86825,14.20332 -3.63128,3.61595 -8.65683,5.86826 -14.20333,5.86826 -5.5465,0 -10.57206,-2.25231 -14.18801,-5.88358 -3.64659,-3.6466 -5.88358,-8.67215 -5.88358,-14.21865 0,-5.5465 2.23699,-10.57206 5.86825,-14.18801 3.61596,-3.63127 8.64152,-5.88358 14.18801,-5.88358 z m 13.08484,6.98675 c -3.34016,-3.34016 -7.96735,-5.42392 -13.08484,-5.42392 -5.11749,0 -9.74468,2.06845 -13.08483,5.42392 -3.34017,3.35548 -5.42394,7.96735 -5.42394,13.10016 0,5.13282 2.06845,9.74468 5.42394,13.08484 3.35547,3.34015 7.96734,5.42393 13.08483,5.42393 5.11749,0 9.74468,-2.05312 13.08484,-5.40861 3.34015,-3.35548 5.42392,-7.96734 5.42392,-13.08483 0,-5.1175 -2.06844,-9.72936 -5.42392,-13.08485 z"
     id="path162"
     style="stroke-width:15.3218" />
  <path
     fill="#375431"
     d="m 216.7885,187.01819 c 6.83354,0 13.02356,2.75793 17.51285,7.24722 4.50462,4.47397 7.26254,10.66399 7.26254,17.49752 0,6.83353 -2.75792,13.02355 -7.24723,17.51285 -4.44332,4.48929 -10.66398,7.26254 -17.49752,7.26254 -6.83353,0 -13.02355,-2.78856 -17.51284,-7.27787 -4.4893,-4.48929 -7.24722,-10.67931 -7.24722,-17.51284 0,-6.84885 2.75792,-13.02355 7.24722,-17.51285 4.47398,-4.50461 10.67931,-7.27786 17.51284,-7.27786 z m 16.96127,7.81413 c -4.33609,-4.3514 -10.34225,-7.04805 -16.96127,-7.04805 -6.61903,0 -12.62519,2.69665 -16.96126,7.04805 -4.33607,4.3514 -7.00207,10.3269 -7.00207,16.94594 0,6.63434 2.68131,12.62518 7.0174,16.96126 4.33607,4.33607 10.35754,7.01739 16.97657,7.01739 6.61904,0 12.62518,-2.68132 16.96127,-7.04804 4.33607,-4.36672 7.01739,-10.31159 7.01739,-16.94594 0,-6.61903 -2.68132,-12.60986 -7.01739,-16.94594 z"
     id="path164"
     style="stroke-width:15.3218" />
  <circle
     cx="217.93764"
     cy="209.81706"
     r="12.027632"
     fill="#234a1b"
     id="circle166"
     style="stroke-width:15.3218" />
  <ellipse
     cx="200.3022"
     cy="207.33493"
     rx="3.3248355"
     ry="3.1103303"
     fill="#678960"
     id="ellipse168"
     style="stroke-width:15.3218" />
  <path
     fill="#a33939"
     d="m 214.4749,91.685797 h 7.53834 c 0.61287,0 1.07253,0.490298 1.07253,1.103171 v 2.911145 c 0,0.0613 -0.0613,0.15322 -0.15321,0.15322 h -9.40761 c -0.0919,0 -0.15321,-0.0919 -0.15321,-0.15322 v -2.911145 c 0,-0.612873 0.49029,-1.103171 1.07252,-1.103171 z"
     id="path170"
     style="stroke-width:15.3218" />
  <path
     fill="url(#o)"
     d="m 63.646856,71.55292 -37.492502,2.344238 c 0,0 -0.888666,6.894821 0.153218,9.392279 1.041885,2.497456 4.872341,6.741602 8.503613,6.741602 3.646594,0 23.656901,-1.225746 23.656901,-1.225746 l 5.20942,-17.237052 z"
     id="path172"
     style="fill:url(#o);stroke-width:15.3218" />
  <path
     class="m"
     d="m 55.556936,77.896155 c 0,0 -14.31058,0.735447 -19.918373,0.107252 -5.592465,-0.612873 -9.116486,-1.532182 -9.376956,-4.136893 -0.260471,-2.604709 4.290111,-4.749765 9.591461,-5.393282 5.301348,-0.643516 25.081828,-2.175699 25.081828,-2.175699 l -1.25639,11.491369 -4.13689,0.122574 z"
     id="path174"
     style="stroke-width:15.3218" />
  <path
     fill="url(#p)"
     d="m 92.589786,68.028899 c 0,0 3.52402,8.73344 1.02656,15.36779 -2.49745,6.63435 -9.65275,17.926531 -20.65382,17.420911 -10.98575,-0.52094 -17.6201,-8.120563 -19.61193,-12.027629 l 0.91931,-11.307506 c 0.0766,-0.735448 -1.65476,-1.869263 -1.44026,-3.416767 0.19919,-1.562825 0.30644,-3.432088 0.30644,-3.432088 l 39.42306,-2.604711 z"
     id="path176"
     style="fill:url(#p);stroke-width:15.3218" />
  <path
     fill="url(#n)"
     d="m 88.069846,43.728486 c 0,0 -1.96119,-0.214505 -2.06845,1.654757 -0.0613,0.995919 -0.41369,4.749765 -0.73544,7.967349 -0.0306,0.398367 -0.4903,0.766092 -0.52095,1.149137 -0.22982,2.252308 -0.72012,4.336076 -0.72012,4.336076 l -0.61287,5.28603 c 0,0 12.13488,5.699718 31.716184,5.056202 19.61193,-0.612873 31.96132,-4.336077 32.69677,-5.592467 0.73545,-1.256389 0.2145,-8.304428 0.2145,-8.304428 l -1.22574,-1.746688 -0.50562,-8.427003 c -0.046,-0.796735 -0.8427,-1.532183 -1.65476,-1.532183 l -56.537534,0.09193 z"
     id="path178"
     style="fill:url(#linearGradient218);stroke-width:15.3218" />
  <path
     fill="url(#d)"
     d="m 72.855276,63.15656 c 10.87849,-0.91931 19.73451,1.470895 19.73451,5.362638 0,3.891743 -8.84069,7.737521 -19.73451,8.656831 -10.8785,0.919309 -19.73451,-1.470895 -19.73451,-5.331996 0,-3.891742 8.84069,-7.783486 19.73451,-8.702796 z"
     id="path180"
     style="fill:url(#linearGradient220);stroke-width:15.3218" />
  <ellipse
     rx="16.008633"
     ry="5.8578396"
     transform="matrix(0.99608595,-0.08838988,0,1,0,0)"
     id="ellipse182"
     cx="73.38765"
     cy="75.986526"
     style="stroke-width:4.31795" />
  <path
     fill="url(#g)"
     d="m 72.947206,63.738789 c 7.89074,-0.689482 14.29526,1.118493 14.29526,4.044962 0,2.941789 -6.40452,5.88358 -14.31058,6.588383 -7.92139,0.689483 -14.32591,-1.118493 -14.32591,-4.060282 0,-2.941791 6.40452,-5.883581 14.31059,-6.588385 z"
     id="path184"
     style="fill:url(#linearGradient222);stroke-width:15.3218" />
  <path
     class="k"
     d="m 32.007291,72.656091 0.06129,2.60471 c 0,0 0.153218,1.807974 4.351397,1.532182 4.198178,-0.245149 10.572058,-0.965274 12.809048,-2.528101 l -0.45966,-3.52402 -6.17469,-1.378963 c 0,0 -10.495452,3.370801 -10.602705,3.294192 z"
     id="path186"
     style="stroke-width:15.3218" />
  <path
     fill="url(#h)"
     d="m 40.342366,68.902244 c 4.59655,-0.383046 8.31975,0.612873 8.31975,2.175699 0,1.532182 -3.7232,3.140973 -8.31975,3.524019 -4.59655,0.352402 -8.304432,-0.612873 -8.304432,-2.191021 0,-1.578148 3.723204,-3.156296 8.304432,-3.524019 z"
     id="path188"
     style="fill:url(#h);stroke-width:15.3218" />
  <ellipse
     cx="116.29264"
     cy="44.080887"
     rx="29.142109"
     ry="4.3054323"
     fill="url(#c)"
     id="ellipse190"
     style="fill:url(#c);stroke-width:15.3218" />
  <path
     d="m 148.23866,59.019666 c 0,1.532183 -3.73852,2.803895 -9.80597,3.631273 -5.73036,0.766091 -13.63642,1.225746 -22.36986,1.225746 -8.73344,0 -16.700794,-0.459655 -22.415834,-1.225746 -6.0368,-0.8427 -9.77533,-2.114412 -9.77533,-3.646594 h 1.27171 c 0,0.858022 3.32484,1.731366 8.68748,2.451492 5.66908,0.796735 13.529174,1.271712 22.216644,1.271712 8.68748,0 16.54758,-0.459655 22.21665,-1.25639 5.36264,-0.735448 8.68747,-1.608792 8.68747,-2.451493 h 1.2564 z"
     id="path192"
     style="stroke-width:15.3218" />
  <path
     fill="#ffffff"
     d="m 116.27734,40.418972 c 6.83353,0 13.02354,0.306437 17.49752,0.796735 4.68848,0.520942 7.5843,1.317677 7.5843,2.298274 0,0.980597 -2.91115,1.792653 -7.5843,2.298273 -4.47398,0.490299 -10.66399,0.796735 -17.49752,0.796735 -6.81822,0 -13.02355,-0.306436 -17.497534,-0.796735 -4.67316,-0.50562 -7.56898,-1.317676 -7.56898,-2.298273 0,-0.980597 2.91115,-1.777332 7.5843,-2.298274 4.473974,-0.459655 10.663994,-0.766091 17.497524,-0.766091 z m 17.4209,1.578148 c -4.44332,-0.459655 -10.60269,-0.766091 -17.4209,-0.766091 -6.80289,0 -12.96227,0.275793 -17.405604,0.766091 -4.24414,0.459655 -6.89482,0.995918 -6.89482,1.532183 0,0.536263 2.65068,1.041883 6.89482,1.501538 4.443334,0.490298 10.602714,0.766092 17.420914,0.766092 6.78757,0 12.94695,-0.306437 17.39028,-0.766092 4.24414,-0.490298 6.89482,-1.026562 6.89482,-1.532183 0,-0.50562 -2.65068,-1.072526 -6.89482,-1.532181 z"
     id="path194"
     style="stroke-width:15.3218" />
  <rect
     width="3.257129"
     height="9.9761162"
     rx="0.2329988"
     class="m"
     transform="matrix(0.98796686,0.15466574,0,1,0,0)"
     id="rect196"
     x="89.468178"
     y="33.506771"
     style="stroke-width:4.50602" />
  <rect
     width="4.3739467"
     height="9.9761162"
     rx="0.41718718"
     class="m"
     transform="matrix(0.9966103,0.08226736,0,1,0,0)"
     id="rect198"
     x="97.947365"
     y="41.217117"
     style="stroke-width:5.2217" />
  <rect
     x="112.03316"
     y="49.734642"
     width="5.2860293"
     height="10.58738"
     rx="1.1797805"
     class="m"
     id="rect200"
     style="stroke-width:15.3218" />
  <rect
     width="4.157177"
     height="9.9761162"
     rx="0.37792519"
     class="m"
     transform="matrix(0.99911584,-0.042042,0,1,0,0)"
     id="rect202"
     x="128.12714"
     y="55.228615"
     style="stroke-width:5.09067" />
  <rect
     width="2.882792"
     height="9.9761162"
     rx="0.18044302"
     ry="0.17568004"
     class="m"
     transform="matrix(0.97360393,-0.22824414,0,1,0,0)"
     id="rect204"
     x="144.16872"
     y="81.092804"
     style="stroke-width:4.23918" />
  <path
     fill="#cccccc"
     d="m 177.90171,152.54408 -1.17977,0.72013 -2.72729,-4.36672 c -0.15322,0.65884 -0.49031,1.27171 -0.94996,1.80797 l -0.64351,-1.04189 c 0.24515,-0.30643 0.45965,-0.68948 0.64351,-1.17977 0.18386,-0.4903 0.22983,-0.96528 0.12257,-1.40961 l 0.91932,-0.61287 3.83045,6.08276 z m 4.13689,-2.29827 -0.72013,-1.27172 -2.54341,1.40961 -0.58224,-1.04188 0.49031,-5.46989 0.99591,-0.56691 2.19103,3.95303 0.76608,-0.41368 0.58224,1.04187 -0.7661,0.45967 0.67417,1.22573 -1.16446,0.64353 z m -1.30235,-2.32892 -1.17978,-2.14505 -0.24515,2.94179 1.42493,-0.7661 z m 3.14098,-0.82738 -0.5516,-1.25639 2.4515,-1.07253 0.55158,1.22575 z m 6.08276,-0.64352 -0.52094,-1.33299 -2.71197,1.07253 -0.42901,-1.11849 1.25639,-5.332 1.07253,-0.42901 1.62412,4.22882 0.82737,-0.30644 0.42901,1.1185 -0.82738,0.33708 0.52094,1.34832 -1.22575,0.45965 z m -0.94996,-2.45148 -0.87334,-2.26764 -0.65884,2.86519 1.53218,-0.58224 z m 7.58431,-1.28704 0.39837,1.22575 -4.55059,1.47089 c -0.12258,-0.45966 -0.10725,-0.94995 0,-1.44025 0.12258,-0.49029 0.42902,-1.17978 0.91931,-2.09909 0.42901,-0.76609 0.67416,-1.22575 0.73544,-1.4709 0.0919,-0.30643 0.10726,-0.61286 0,-0.87334 -0.0766,-0.30643 -0.22982,-0.45965 -0.429,-0.58222 -0.19918,-0.12258 -0.45966,-0.12258 -0.72013,-0.0306 -0.26046,0.0919 -0.45965,0.24515 -0.56691,0.45965 -0.10725,0.21451 -0.10725,0.52095 0,0.91932 l -1.33299,0.27579 c -0.15322,-0.73544 -0.0919,-1.333 0.2145,-1.77733 0.30643,-0.45965 0.7661,-0.7661 1.37897,-0.94996 0.67415,-0.2145 1.25639,-0.19918 1.76201,0.0306 0.49029,0.24515 0.82737,0.61287 0.99592,1.16447 0.10724,0.30643 0.15321,0.61286 0.12257,0.9193 0,0.30644 -0.0919,0.65884 -0.22983,1.04189 -0.0919,0.24514 -0.27579,0.61287 -0.56691,1.14913 -0.27579,0.49031 -0.45965,0.82738 -0.52094,0.9806 -0.0613,0.15322 -0.12257,0.30644 -0.15322,0.45965 l 2.60472,-0.85801 z m 0.36772,-4.19818 1.22575,-0.26047 0.15322,0.68949 c 0.33708,-0.61288 0.79673,-1.01125 1.40961,-1.13382 0.30643,-0.0613 0.61287,-0.0613 0.88866,0.0306 0.26047,0.0919 0.50562,0.24515 0.70481,0.4903 0.15321,-0.30644 0.36772,-0.56691 0.61287,-0.76609 0.2145,-0.15322 0.45965,-0.30644 0.76608,-0.3524 0.36773,-0.0766 0.68948,-0.0613 0.9806,0.0306 0.30644,0.0919 0.53627,0.27579 0.72013,0.53626 0.15322,0.19918 0.26047,0.53626 0.36772,1.02656 l 0.68948,3.21759 -1.34832,0.30643 -0.61287,-2.91115 c -0.10726,-0.49029 -0.22983,-0.79673 -0.3524,-0.9193 -0.18386,-0.15323 -0.39837,-0.21451 -0.64352,-0.15323 -0.19918,0.046 -0.3524,0.15323 -0.49029,0.30645 -0.15323,0.15321 -0.22983,0.33708 -0.26048,0.5669 -0.046,0.22983 0,0.61288 0.0919,1.07253 l 0.50562,2.42085 -1.37897,0.30643 -0.58223,-2.78857 c -0.10725,-0.49029 -0.19918,-0.79673 -0.2758,-0.9193 -0.0766,-0.15323 -0.15321,-0.24516 -0.30643,-0.30645 -0.10726,-0.0306 -0.24515,-0.046 -0.41369,0 -0.21451,0.046 -0.38304,0.15322 -0.52094,0.30645 -0.15322,0.12257 -0.22983,0.30643 -0.26047,0.53625 -0.0306,0.22983 0,0.58224 0.10725,1.07253 l 0.52094,2.4515 -1.33299,0.30643 -1.07253,-5.0562 z m 9.1931,-1.80798 1.27171,-0.15321 0.0766,0.70481 c 0.38304,-0.61288 0.87334,-0.91932 1.50154,-1.01125 0.30643,-0.0306 0.61287,0 0.87334,0.10726 0.26047,0.10725 0.45966,0.27579 0.65883,0.53625 0.18387,-0.30643 0.41369,-0.53625 0.64353,-0.7048 0.24514,-0.18386 0.50562,-0.27579 0.81205,-0.30643 0.36772,-0.0613 0.7048,0 0.9806,0.10725 0.26047,0.12257 0.4903,0.30643 0.64352,0.61288 0.12257,0.19917 0.2145,0.53626 0.27579,1.02656 l 0.39836,3.27887 -1.37895,0.15321 -0.33709,-2.91114 c -0.0613,-0.50563 -0.15322,-0.82738 -0.26047,-0.96528 -0.15321,-0.15322 -0.3524,-0.24515 -0.61288,-0.2145 -0.19917,0.046 -0.36772,0.12257 -0.52093,0.26047 -0.15322,0.15322 -0.24515,0.30644 -0.30644,0.5669 -0.0306,0.22983 -0.0306,0.58224 0.0306,1.07253 l 0.30644,2.4515 -1.37897,0.18386 -0.3524,-2.80389 c -0.0613,-0.49031 -0.12258,-0.81206 -0.18386,-0.94996 -0.0766,-0.12257 -0.15322,-0.2145 -0.27579,-0.27579 -0.10726,-0.046 -0.26048,-0.0766 -0.42901,-0.046 -0.21452,0 -0.39838,0.0919 -0.53627,0.22983 -0.15321,0.15322 -0.27579,0.30643 -0.30643,0.53626 -0.0613,0.21451 -0.0613,0.5669 0,1.07253 l 0.30643,2.48214 -1.37896,0.15321 -0.61288,-5.10217 z m 23.74883,5.08685 -1.34833,-0.15322 0.61287,-5.11749 c -0.53626,0.39837 -1.16446,0.67417 -1.83861,0.81206 l 0.15321,-1.22575 c 0.35241,-0.0766 0.7661,-0.24515 1.22575,-0.52094 0.45965,-0.30643 0.79673,-0.61287 0.99592,-1.04189 l 1.11849,0.15322 -0.87334,7.09401 z m 2.45148,-1.01124 1.37897,0.24515 -0.18386,0.96527 c -0.0613,0.39837 -0.15322,0.68949 -0.26048,0.91932 -0.10724,0.19918 -0.27579,0.38304 -0.49029,0.52094 -0.21451,0.15321 -0.45965,0.26047 -0.7661,0.30643 l -0.15322,-0.58222 c 0.27581,-0.0306 0.49031,-0.12258 0.61288,-0.26048 0.15322,-0.15322 0.26047,-0.33708 0.30644,-0.61287 l -0.64351,-0.10726 0.26046,-1.34832 z m 2.63536,0.0613 1.333,0.12257 c -0.0306,0.33708 0.0306,0.61288 0.18386,0.82739 0.15321,0.2145 0.3524,0.35239 0.61288,0.39836 0.26046,0.0613 0.52093,0 0.76608,-0.15322 0.24515,-0.15321 0.36772,-0.45965 0.45965,-0.79674 0.0613,-0.33707 0.0306,-0.61286 -0.10724,-0.85801 -0.15322,-0.22983 -0.33708,-0.36772 -0.61288,-0.42901 -0.15322,-0.0306 -0.36772,-0.046 -0.61287,-0.0306 l 0.38305,-1.07254 c 0.36772,0.10726 0.65884,0.0919 0.88866,-0.046 0.24515,-0.15321 0.38304,-0.33707 0.45966,-0.61286 0.046,-0.22984 0,-0.42901 -0.10726,-0.61288 -0.10725,-0.15322 -0.27579,-0.26047 -0.50562,-0.30644 -0.22982,-0.046 -0.45965,0 -0.61287,0.12258 -0.19919,0.12257 -0.3524,0.33707 -0.45965,0.61287 l -1.19511,-0.45966 c 0.15322,-0.38304 0.38305,-0.68948 0.61287,-0.9193 0.21451,-0.19919 0.50562,-0.33708 0.8427,-0.41369 0.33708,-0.0613 0.70481,-0.0613 1.07253,0 0.67416,0.15322 1.14914,0.45965 1.45557,0.9806 0.26048,0.41368 0.33709,0.8427 0.24516,1.27171 -0.12258,0.61287 -0.56691,1.02656 -1.30236,1.25639 0.38305,0.15322 0.65884,0.41368 0.8427,0.76608 0.18386,0.35241 0.22983,0.73546 0.15322,1.14914 -0.15322,0.61288 -0.4903,1.07253 -1.02656,1.42493 -0.52094,0.33708 -1.1185,0.45966 -1.79265,0.30644 -0.61288,-0.15322 -1.1185,-0.42901 -1.45558,-0.88867 -0.33708,-0.45965 -0.45965,-0.96527 -0.41369,-1.57814 z m 5.2707,3.24823 0.35241,-1.31768 1.31768,0.3524 -0.36773,1.333 -1.31767,-0.3524 z m 2.97244,-0.99592 1.33299,0.27579 c -0.0306,0.30643 0,0.58224 0.12258,0.81206 0.12257,0.22983 0.30644,0.39836 0.55159,0.49029 0.27579,0.0919 0.53627,0.0613 0.79673,-0.10725 0.26048,-0.15321 0.45966,-0.45965 0.61288,-0.91931 0.15322,-0.39836 0.15322,-0.73544 0.0306,-1.01123 -0.10724,-0.30645 -0.30643,-0.45967 -0.61287,-0.56691 -0.38304,-0.12258 -0.76608,-0.0613 -1.17977,0.15321 l -0.9806,-0.45965 1.80797,-3.32484 3.4321,1.10318 -0.38305,1.22575 -2.4515,-0.81206 -0.58222,1.07252 c 0.33707,-0.0306 0.65884,0 0.96527,0.0919 0.58223,0.19919 0.99592,0.56691 1.25639,1.11849 0.26047,0.55159 0.30644,1.16446 0.0766,1.83863 -0.18387,0.55158 -0.50562,0.99592 -0.96528,1.33299 -0.64351,0.45966 -1.34832,0.55159 -2.14505,0.30644 -0.61287,-0.19918 -1.07253,-0.53627 -1.34832,-0.99592 -0.30644,-0.45965 -0.38305,-0.9806 -0.26048,-1.57814 z m 5.54649,1.99183 0.56691,-1.25639 2.4515,1.07253 -0.55158,1.27171 -2.4515,-1.07252 z m 2.95712,1.37897 1.27171,0.45965 c -0.0919,0.30644 -0.10725,0.58224 0,0.82738 0.0766,0.26048 0.22983,0.42901 0.45965,0.55159 0.26048,0.15321 0.52095,0.15321 0.81206,0 0.2758,-0.0919 0.53627,-0.36773 0.73545,-0.76609 0.19919,-0.39837 0.26048,-0.73545 0.18386,-1.02656 -0.0613,-0.2758 -0.24514,-0.49031 -0.52093,-0.64352 -0.35241,-0.15322 -0.7661,-0.15322 -1.17979,0 l -0.91931,-0.64352 2.29827,-2.98776 3.21759,1.63944 -0.5669,1.14914 -2.29828,-1.16447 -0.73545,0.96529 c 0.33708,0 0.65883,0.0766 0.91931,0.22982 0.56691,0.27579 0.91931,0.70481 1.07253,1.28703 0.19919,0.58223 0.12257,1.19511 -0.19919,1.83862 -0.26046,0.50562 -0.65884,0.88867 -1.16446,1.14914 -0.68947,0.33708 -1.37896,0.33708 -2.14505,-0.046 -0.58223,-0.30645 -0.96528,-0.70481 -1.17978,-1.22575 -0.2145,-0.49031 -0.2145,-1.02656 0,-1.59347 z m 4.96427,3.06436 1.19511,0.65884 -0.45966,0.85803 c -0.19918,0.33708 -0.38304,0.58223 -0.55159,0.76609 -0.15321,0.15321 -0.38304,0.27579 -0.61287,0.33707 -0.26047,0.0766 -0.53626,0.0766 -0.8427,0.0306 l 0.0613,-0.61287 c 0.30644,0.0459 0.52094,0.0306 0.7048,-0.046 0.18386,-0.0613 0.33709,-0.22983 0.45966,-0.45966 l -0.56691,-0.30644 0.65884,-1.22575 z m 8.27379,0.36773 -1.22575,-0.58223 c 0.15322,-0.24515 0.15322,-0.45965 0.12258,-0.64351 -0.046,-0.18387 -0.15323,-0.33709 -0.33709,-0.45966 -0.24514,-0.15322 -0.52094,-0.15322 -0.82737,-0.046 -0.30643,0.12257 -0.68948,0.52094 -1.17978,1.17978 0.4903,-0.15321 0.94995,-0.10725 1.37896,0.15322 0.4903,0.30644 0.76609,0.76609 0.91931,1.34832 0.10726,0.58223 0,1.16445 -0.38305,1.74669 -0.38305,0.61287 -0.87334,0.99592 -1.47089,1.13381 -0.61287,0.15321 -1.17978,0.046 -1.76201,-0.30644 -0.61288,-0.38305 -0.96527,-0.9193 -1.07253,-1.65475 -0.0766,-0.72013 0.21451,-1.60879 0.88867,-2.69665 0.68949,-1.10316 1.37896,-1.77733 2.11441,-1.99183 0.73544,-0.24515 1.42493,-0.15322 2.06845,0.24515 0.45965,0.30644 0.76609,0.65883 0.9193,1.10317 0.12258,0.45965 0.0919,0.91931 -0.15321,1.48621 z m -4.2135,0.88867 c -0.24515,0.36772 -0.35241,0.72012 -0.30644,1.02656 0.046,0.30643 0.18386,0.52094 0.39837,0.65884 0.2145,0.15321 0.45965,0.15321 0.70481,0.0919 0.24514,-0.0919 0.49029,-0.30644 0.73544,-0.7048 0.24515,-0.39838 0.3524,-0.72013 0.30643,-1.01125 -0.0306,-0.27579 -0.15321,-0.49029 -0.39836,-0.61288 -0.21451,-0.15321 -0.45965,-0.18386 -0.72013,-0.10724 -0.26047,0.0919 -0.49029,0.30643 -0.7048,0.64351 z m 52.32403,-54.239257 0.30643,-1.470902 5.48521,-6.435166 h -4.44333 l 0.35241,-1.578148 h 6.86417 l -0.30643,1.486217 -5.51586,6.465809 h 1.02657 c 0.429,0 1.01124,0 1.73137,-0.03064 h 2.25229 l -0.30643,1.59347 h -7.38511 z m 8.68747,-4.305439 h 3.61595 l -0.36772,1.777331 h -3.61596 z m 7.04804,-2.236986 -1.83862,-0.275794 c 0.15322,-0.873343 0.50562,-1.532182 1.04189,-2.022481 0.53626,-0.490298 1.22574,-0.704803 2.02248,-0.704803 0.88866,0 1.59347,0.245149 2.08376,0.720125 0.50562,0.459655 0.7661,1.072528 0.7661,1.838619 0,0.367724 -0.0766,0.735448 -0.22983,1.118494 -0.15322,0.383046 -0.39837,0.766091 -0.7661,1.195102 -0.24515,0.306437 -0.65883,0.720125 -1.22574,1.25639 -0.61288,0.536263 -0.9806,0.919309 -1.16446,1.103171 -0.18386,0.183862 -0.36772,0.398367 -0.53626,0.612872 h 3.27887 l -0.35241,1.6854 h -5.761 c 0.0613,-0.45965 0.19918,-0.88866 0.41369,-1.317675 0.22982,-0.41369 0.4903,-0.812057 0.81206,-1.164459 0.30643,-0.367724 0.9193,-0.949954 1.74669,-1.76201 0.64351,-0.612873 1.04187,-1.026562 1.22574,-1.225745 0.30644,-0.306437 0.50562,-0.612873 0.61287,-0.858023 0.12258,-0.245149 0.15322,-0.459655 0.15322,-0.658838 0,-0.306437 -0.0766,-0.58223 -0.26047,-0.766092 -0.18386,-0.214505 -0.42901,-0.306436 -0.72013,-0.306436 -0.29111,0 -0.55158,0.09193 -0.76609,0.306436 -0.2145,0.229828 -0.38304,0.643517 -0.49029,1.225747 z m 5.45456,1.072527 0.35241,-1.639435 c 1.59347,-0.689482 2.83453,-1.532182 3.70789,-2.451492 h 1.13381 l -1.99184,9.576145 h -1.91523 l 1.37897,-6.588389 c -0.38305,0.26047 -0.8427,0.490298 -1.34833,0.689482 -0.50562,0.214505 -0.96527,0.352402 -1.37896,0.459655 z m 6.665,2.390205 c 0,-0.949953 0.18386,-1.930551 0.50562,-2.911147 0.39837,-1.17978 0.91932,-2.068447 1.53219,-2.650675 0.61286,-0.58223 1.31767,-0.873345 2.06844,-0.873345 0.76609,0 1.37897,0.275793 1.89991,0.8427 0.49029,0.551587 0.73544,1.378965 0.73544,2.451493 0,0.965275 -0.15322,1.991836 -0.53625,3.064364 -0.35241,1.072528 -0.8427,1.915228 -1.45558,2.497463 -0.61287,0.58223 -1.30236,0.87334 -2.06845,0.87334 -0.76609,0 -1.40961,-0.27579 -1.89991,-0.8427 -0.49029,-0.551587 -0.73544,-1.378966 -0.73544,-2.405528 z m 1.83862,0.383045 c 0,0.50562 0.0919,0.873345 0.24515,1.072528 0.15322,0.214505 0.38304,0.306437 0.64352,0.306437 0.3524,0 0.65884,-0.153219 0.9193,-0.459655 0.35241,-0.459655 0.67417,-1.287033 0.94996,-2.543423 0.22983,-1.011241 0.33708,-1.807976 0.33708,-2.390204 0,-0.459655 -0.0766,-0.812057 -0.24515,-1.026563 -0.15322,-0.199184 -0.38305,-0.306437 -0.64351,-0.306437 -0.30645,0 -0.61288,0.153218 -0.87335,0.459655 -0.38304,0.459655 -0.70481,1.287033 -0.9806,2.451492 -0.22983,0.980597 -0.33707,1.792654 -0.33707,2.451492 z"
     id="path206"
     style="stroke-width:15.3218" />
  <rect
     x="332.6521"
     y="233.32072"
     width="17.420914"
     height="18.248293"
     rx="0.47497654"
     fill="#003399"
     id="rect208"
     style="stroke-width:15.3218" />
</svg>
