<?xml version="1.0" encoding="UTF-8" standalone="no"?>
<svg
   xmlns:dc="http://purl.org/dc/elements/1.1/"
   xmlns:cc="http://creativecommons.org/ns#"
   xmlns:rdf="http://www.w3.org/1999/02/22-rdf-syntax-ns#"
   xmlns:svg="http://www.w3.org/2000/svg"
   xmlns="http://www.w3.org/2000/svg"
   xmlns:xlink="http://www.w3.org/1999/xlink"
   xmlns:sodipodi="http://sodipodi.sourceforge.net/DTD/sodipodi-0.dtd"
   xmlns:inkscape="http://www.inkscape.org/namespaces/inkscape"
   viewBox="0 0 332.59843 472.44095"
   version="1.1"
   id="svg104"
   sodipodi:docname="canteen.svg"
   width="88mm"
   height="125mm"
   inkscape:version="1.0.2-2 (e86c870879, 2021-01-15)">
  <metadata
     id="metadata108">
    <rdf:RDF>
      <cc:Work
         rdf:about="">
        <dc:format>image/svg+xml</dc:format>
        <dc:type
           rdf:resource="http://purl.org/dc/dcmitype/StillImage" />
        <dc:title></dc:title>
      </cc:Work>
    </rdf:RDF>
  </metadata>
  <sodipodi:namedview
     pagecolor="#ffffff"
     bordercolor="#666666"
     borderopacity="1"
     objecttolerance="10"
     gridtolerance="10"
     guidetolerance="10"
     inkscape:pageopacity="0"
     inkscape:pageshadow="2"
     inkscape:window-width="1920"
     inkscape:window-height="1017"
     id="namedview106"
     showgrid="false"
     units="mm"
     inkscape:zoom="1.1536217"
     inkscape:cx="7.6501218"
     inkscape:cy="140.78337"
     inkscape:window-x="-8"
     inkscape:window-y="-8"
     inkscape:window-maximized="1"
     inkscape:current-layer="svg104" />
  <defs
     id="defs56">
    <linearGradient
       id="c">
      <stop
         stop-color="#216778"
         stop-opacity="0"
         offset="0"
         id="stop2" />
      <stop
         stop-color="#216778"
         offset=".5"
         id="stop4" />
      <stop
         stop-color="#216778"
         stop-opacity="0"
         offset="1"
         id="stop6" />
    </linearGradient>
    <linearGradient
       id="a">
      <stop
         stop-color="#9bcbc1"
         offset="0"
         id="stop9" />
      <stop
         stop-color="#87decd"
         stop-opacity="0"
         offset="1"
         id="stop11" />
    </linearGradient>
    <linearGradient
       id="d">
      <stop
         stop-color="#045"
         offset="0"
         id="stop14" />
      <stop
         stop-color="#045"
         stop-opacity="0"
         offset="1"
         id="stop16" />
    </linearGradient>
    <linearGradient
       id="b">
      <stop
         stop-color="#64a5a8"
         stop-opacity="0"
         offset="0"
         id="stop19" />
      <stop
         stop-color="#64a5a8"
         stop-opacity=".5882"
         offset=".3681"
         id="stop21" />
      <stop
         stop-color="#64a5a8"
         stop-opacity=".5882"
         offset=".6825"
         id="stop23" />
      <stop
         stop-color="#64a5a8"
         stop-opacity="0"
         offset="1"
         id="stop25" />
    </linearGradient>
    <linearGradient
       id="e">
      <stop
         stop-color="#bcdcd5"
         offset="0"
         id="stop28" />
      <stop
         stop-color="#afe9dd"
         stop-opacity="0"
         offset="1"
         id="stop30" />
    </linearGradient>
    <linearGradient
       id="t"
       x1="317.34"
       x2="314.17999"
       y1="135.05"
       y2="145.11"
       gradientUnits="userSpaceOnUse">
      <stop
         stop-color="#bcdcd5"
         offset="0"
         id="stop33" />
      <stop
         stop-color="#5fd3bc"
         stop-opacity="0"
         offset="1"
         id="stop35" />
    </linearGradient>
    <linearGradient
       id="h"
       x1="227.61"
       x2="226.05"
       y1="224.35001"
       y2="244.42"
       gradientUnits="userSpaceOnUse">
      <stop
         stop-color="#216778"
         stop-opacity=".9922"
         offset="0"
         id="stop38" />
      <stop
         stop-color="#164450"
         stop-opacity=".9922"
         offset="1"
         id="stop40" />
    </linearGradient>
    <linearGradient
       id="s"
       x1="362.04001"
       x2="360.20001"
       y1="219.03"
       y2="257.70001"
       gradientUnits="userSpaceOnUse"
       xlink:href="#e" />
    <linearGradient
       id="r"
       x1="312.57999"
       x2="258.10999"
       y1="176.60001"
       y2="176.7"
       gradientUnits="userSpaceOnUse"
       xlink:href="#b" />
    <linearGradient
       id="q"
       x1="251.39"
       x2="262.29999"
       y1="494.23999"
       y2="464.62"
       gradientUnits="userSpaceOnUse"
       xlink:href="#d" />
    <linearGradient
       id="p"
       x1="302.10001"
       x2="292.06"
       y1="484.87"
       y2="461.87"
       gradientUnits="userSpaceOnUse"
       xlink:href="#d" />
    <linearGradient
       id="o"
       x1="292.70001"
       x2="227.22"
       y1="369.14001"
       y2="370.70001"
       gradientUnits="userSpaceOnUse"
       xlink:href="#b" />
    <linearGradient
       id="n"
       x1="301.35999"
       x2="289.79001"
       y1="172.67"
       y2="172.95"
       gradientUnits="userSpaceOnUse"
       xlink:href="#c" />
    <linearGradient
       id="m"
       x1="270.22"
       x2="258.64001"
       y1="171.08"
       y2="171.36"
       gradientUnits="userSpaceOnUse"
       xlink:href="#c" />
    <linearGradient
       id="l"
       x1="221.48"
       x2="230.64999"
       y1="226.69"
       y2="204.48"
       gradientUnits="userSpaceOnUse"
       xlink:href="#b" />
    <linearGradient
       id="k"
       x1="328.25"
       x2="319.70999"
       y1="162.75999"
       y2="162.66"
       gradientUnits="userSpaceOnUse"
       xlink:href="#a" />
    <linearGradient
       id="j"
       x1="286.17999"
       x2="298.84"
       y1="162.83"
       y2="162.92"
       gradientUnits="userSpaceOnUse"
       xlink:href="#a" />
    <linearGradient
       id="i"
       x1="277.35999"
       x2="262.45999"
       y1="162.89"
       y2="162.44"
       gradientUnits="userSpaceOnUse"
       xlink:href="#a" />
    <radialGradient
       id="g"
       cx="229.57001"
       cy="203.38"
       r="117.2"
       gradientTransform="matrix(0.06502,0.63296,-0.95402,0.098,421.62,73.023)"
       gradientUnits="userSpaceOnUse"
       xlink:href="#a" />
    <radialGradient
       id="f"
       cx="270.48999"
       cy="122.99"
       r="41.890999"
       gradientTransform="matrix(1.5088,-0.05253,0.01019,0.29265,-137.64,113.41)"
       gradientUnits="userSpaceOnUse"
       xlink:href="#e" />
  </defs>
  <g
     transform="matrix(1.2635298,0,0,1.2635298,-194.83389,-162.12904)"
     opacity="0.9922"
     id="g102">
    <path
       d="m 261.81,195.82 v 19.843 l -45.748,9.3702 c -12.126,1.1024 -46.3,17.087 -44.646,36.929 1.654,19.842 13.78,170.32 15.984,176.93 2.204,6.61 15.984,25.355 25.906,33.071 9.922,7.716 31.694,22.28 35.638,24.252 4.9607,2.4803 19.205,2.7559 23.063,1.6536 3.858,-1.1023 87.363,-42.992 97.835,-51.26 10.472,-8.268 22.874,-21.221 23.701,-31.142 0.36619,-4.3942 11.575,-161.77 12.126,-167.28 1.1024,-11.024 -14.331,-25.906 -44.646,-33.071 -17.693,-4.182 -36.929,-7.1654 -36.929,-7.1654 l 0.55119,-13.228 z"
       fill="#216778"
       id="path58" />
    <path
       d="m 280.56,202.44 -18.75,8.9375 v 4.2812 l -45.75,9.375 c -12.126,1.1024 -46.31,17.095 -44.656,36.938 0.29963,3.5956 1.2277,14.897 2.0938,25.438 l 6.8132,12.391 c 4.2823,7.7879 72.905,16.685 83.157,13.983 l 140.06,-36.905 c 1.161,-15.975 2.0164,-27.289 2.1562,-28.688 1.1024,-11.024 -14.341,-25.897 -44.656,-33.062 -17.693,-4.182 -36.938,-7.1875 -36.938,-7.1875 l 0.15625,-4.0312 z"
       fill="url(#g)"
       opacity="0.5"
       id="path60"
       style="fill:url(#g)" />
    <path
       d="m 322.16,217.88 4.9688,3.0312 -41.344,62.562 119.41,-28.906 c 0.2172,-2.879 0.4489,-5.864 0.5,-6.375 1.1024,-11.024 -14.341,-25.897 -44.656,-33.062 -17.693,-4.182 -36.938,-7.1875 -36.938,-7.1875 -4.9948,-2.7184 -2.1513,7.1825 -1.9375,9.9375 z"
       fill="url(#s)"
       id="path62"
       style="fill:url(#s)" />
    <path
       d="m 250.51,138.77 v 3.495 c -0.82678,0.1378 -1.5158,1.4656 -1.5158,3.946 v 59.39 c 0,0 16.673,11.713 47.54,8.9568 30.867,-2.7562 39.134,-8.819 39.134,-8.819 l 1.2667,-58.956 c 0.0397,-1.8498 0.21079,-3.879 -2.1152,-4.8436 l -0.25381,-2.067 c -0.42465,-3.4583 -3.3071,-6.3386 -8.2678,-6.8898 -4.9607,-0.5512 -21.293,-1.9501 -31.969,-1.9291 -12.888,0.0253 -35.827,1.378 -38.583,2.4803 -2.756,1.1023 -5.2492,2.4258 -5.2363,5.2363 z"
       fill="#216778"
       id="path64" />
    <path
       d="m 294.34,131.06 c -12.888,0.0253 -35.838,1.3664 -38.594,2.4688 -2.3367,0.93467 -4.471,2.0383 -5.0625,4.0625 4.2809,3.5952 33.105,4.2217 42.267,4.2217 8.5943,0 31.381,-2.1555 41.514,-3.7217 -0.5678,-4.4924 -3.7255,-4.6014 -8.1562,-5.0938 -4.9607,-0.55118 -21.293,-1.9585 -31.969,-1.9375 z"
       fill="url(#f)"
       id="path66"
       style="fill:url(#f)" />
    <path
       d="m 326.44,134.64 -33.209,5.2363 c 0,0 22.003,0.10174 34.173,-1.1024 4.7581,-0.47073 5.2363,-2.2047 5.2363,-2.2047 0,0 -0.27559,-2.7559 -6.2008,-1.9291 z"
       fill="url(#t)"
       id="path68"
       style="fill:url(#t)" />
    <path
       d="m 333.86,203.01 1.1024,0.28253 c -0.58462,1.559 -4.383,2.9716 -10.386,3.3515 5.507,-1.0227 7.1614,-1.4264 9.2837,-3.634 z"
       fill="#79b9ac"
       id="path70" />
    <path
       d="m 262.78,140.17 0.30881,66.825 c -3.3212,-0.87519 -6.5266,-1.789 -9.0774,-2.921 l -1.5625,0.375 c 2.5018,1.6294 6.4712,2.9635 8.4837,3.3272 l 0.15625,3.1562 c 1.1493,0.38644 3.4742,2.4155 4.7899,2.7786 l 36.71,0.22144 c 2.0341,-0.23172 3.9415,-0.46225 5.75,-0.71875 l 0.15625,-3.0938 -2.5625,-0.96875 1.0901,-69.092 c -15.137,0.30419 -29.593,0.67109 -44.243,0.11042 z"
       fill="url(#r)"
       opacity="0.5"
       id="path72"
       style="fill:url(#r)" />
    <path
       d="m 324.47,209.94 c -20.549,5.2368 -53.247,4.0599 -62.938,1.1562 0,0 0.84646,4.9798 1.3438,6.25 0.18986,0.48498 6.7423,1.2939 14.531,1.9375 l -55.25,8.7812 c 0,0 18.721,15.183 30.218,19.471 2.9442,1.0978 13.762,-3.6553 17.704,-7.9726 7.3657,-8.0671 34.433,-16.847 39.165,-17.63 3.013,-0.49876 21.252,0.58659 20.881,-0.89888 -0.38975,-1.559 -5.8438,-3.6875 -5.8438,-3.6875 z m -20.281,9.1562 4.0625,2.0938 -14.469,-1.0312 c 5.5272,0.0737 9.7461,-0.18226 10.406,-1.0625 z"
       fill="#164450"
       id="path74" />
    <path
       d="m 221.77,215.19 c 0,0 22.839,1.4448 36.734,-1.4616 1.2271,-0.25667 3.0205,-2.241 3.0205,-2.241 0,0 1.1692,4.677 21.241,4.4821 20.0718,-0.1949 37.123,-3.0205 41.313,-4.4821 l 0.36341,-1.4054 4.2161,-1.5177 1.4616,1.559 0.77949,2.5334 -6.0411,3.8975 -20.267,3.7026 -27.087,10.913 -24.359,9.5488 -14.031,-0.38974 z"
       fill="#377d89"
       fill-opacity="0.9922"
       id="path76" />
    <path
       d="m 326.53,209.34 -2.0938,0.75 -0.375,1.375 c -4.1898,1.4616 -21.241,4.3051 -41.312,4.5 -20.071,0.1949 -21.219,-4.5 -21.219,-4.5 0,0 -1.8041,1.9933 -3.0312,2.25 -1.8542,0.38782 -3.8716,0.69086 -5.9688,0.9375 l -15.575,5.0123 0.79424,15.206 37.656,-2.9062 c 3.3412,-1.2871 6.6499,-2.6567 9.9688,-4 l 18.031,-7.5312 18.531,-3.875 5.5938,-1.7188 1.7812,-1.1562 c -0.35136,-0.88482 -1.2797,-2.9884 -2.7812,-4.3438 z"
       fill="#164450"
       fill-opacity="0.9922"
       id="path78" />
    <path
       d="m 393.53,415.59 c -17.926,9.5538 -104.84,54.296 -109.54,56.734 -16.48,8.563 -25.8,10.396 -44.686,-0.18213 -3.8686,-2.167 -42.69,-27.957 -52.373,-35.708 0.18047,1.2105 0.34614,2.1009 0.46875,2.4688 2.2047,6.6142 15.985,25.346 25.906,33.062 9.921,7.716 33.351,23.369 37.295,25.341 3.8583,1.9292 15.628,2.7618 19.487,1.6595 3.859,-1.1023 89.277,-44.076 99.75,-52.344 10.429,-8.2337 22.769,-21.126 23.688,-31.031 z"
       fill="url(#q)"
       id="path80"
       style="fill:url(#q)" />
    <path
       d="m 393.53,415.59 c -17.926,9.5538 -104.84,54.296 -109.54,56.734 -16.48,8.563 -25.8,10.396 -44.686,-0.18213 -3.8686,-2.167 -42.69,-27.957 -52.373,-35.708 0.18047,1.2105 0.34614,2.1009 0.46875,2.4688 2.2047,6.6142 15.985,25.346 25.906,33.062 9.921,7.716 33.351,23.369 37.295,25.341 3.8583,1.9292 15.628,2.7618 19.487,1.6595 3.859,-1.1023 89.277,-44.076 99.75,-52.344 10.429,-8.2337 22.769,-21.126 23.688,-31.031 z"
       fill="url(#p)"
       id="path82"
       style="fill:url(#p)" />
    <path
       d="m 230.06,258.77 5.7402,210.53 c 12.465,11.996 40.683,12.217 53.395,0.38975 l -6.4251,-213.81 c -14.148,-10.564 -37.134,-12.138 -52.71,2.8897 z"
       fill="url(#o)"
       opacity="0.3"
       id="path84"
       style="fill:url(#o)" />
    <path
       d="m 295.82,148.33 c -2.2334,0.19499 -4.5859,2.986 -4.6117,4.933 l 0.1378,56.328 1.7579,0.82678 -0.0689,-58.276 c 0.13182,-1.8478 1.168,-3.3227 2.6875,-3.6407 1.6988,0.21643 2.6405,2.3606 2.6562,3.7657 l 0.1378,57.48 h 1.689 l -0.1378,-56.36 c -0.14634,-2.1832 -2.1218,-5.0056 -4.2478,-5.058 z"
       fill="url(#n)"
       id="path86"
       style="fill:url(#n)" />
    <path
       d="m 293.03,209.87 v -57.724 c 0.13182,-1.8478 1.168,-3.3227 2.6875,-3.6407 1.6988,0.21643 2.6405,2.3606 2.6562,3.7657 v 57.756 c -2.0152,1.2348 -3.8471,1.4613 -5.3438,-0.15625 z"
       fill="url(#j)"
       id="path88"
       style="fill:url(#j)" />
    <path
       d="m 319.92,207.85 -0.58463,-56.289 c 0.13182,-1.8478 1.0705,-5.0766 2.5901,-5.3946 1.6988,0.21643 2.4456,2.5554 2.4614,3.9606 l 0.0974,56.71 c -1.0771,1.6619 -3.5154,1.6275 -4.5642,1.013 z"
       fill="url(#k)"
       id="path90"
       style="fill:url(#k)" />
    <path
       d="m 264.67,146.74 c -2.2334,0.19499 -4.5859,2.986 -4.6117,4.933 v 55.364 h 1.8268 v -56.484 c 0.13182,-1.8478 1.168,-3.3227 2.6875,-3.6407 1.6988,0.21643 2.6405,2.3606 2.6562,3.7657 v 57.003 l 2.1762,-0.29231 -0.48718,-55.59 c -0.14634,-2.1832 -2.1218,-5.0056 -4.2478,-5.058 z"
       fill="url(#m)"
       id="path92"
       style="fill:url(#m)" />
    <path
       d="m 261.89,207.04 v -56.484 c 0.13182,-1.8478 1.168,-3.3227 2.6875,-3.6407 1.6988,0.21643 2.6405,2.3606 2.6562,3.7657 l -0.0974,57.003 c -2.8381,0.60032 -4.9093,0.0844 -5.2463,-0.64343 z"
       fill="url(#i)"
       id="path94"
       style="fill:url(#i)" />
    <path
       d="m 260.94,207.8 -11.527,-6.1922 c 0,0 -26.771,-9.102 -34.761,-3.2558 -7.99,5.8462 -7.9197,22.354 -1.6536,26.188 l 27.672,17.733 -4.0923,-10.913 5.6513,-17.539 z"
       fill="url(#h)"
       id="path96"
       style="fill:url(#h)" />
    <path
       d="m 220.81,196.47 c -2.5184,0.20365 -4.6582,0.77884 -6.1562,1.875 -6.5339,4.7809 -7.6959,16.69 -4.4688,22.969 l 28.594,15.969 -2.2188,-5.9062 5.6562,-17.562 9.2812,-2.9688 -30.562,-14.375 h -0.125 z"
       fill="url(#l)"
       id="path98"
       style="fill:url(#l)" />
    <path
       d="m 283.32,209.98 c -7.5788,0.96458 -33.627,-6.9568 -42.843,4.0353 -6.1552,7.3417 -7.4017,28.177 2.3385,28.646 20.25,0.9751 40.759,-15.183 61.775,-20.851 8.1454,-2.1969 24.164,-2.3385 24.359,-6.236 0,0 3.118,-2.1436 1.3641,-5.6513 0.77949,6.236 -16.969,5.7984 -25.139,8.1847 -20.201,5.9002 -40.368,21.316 -61.19,20.851 -7.4686,-0.1665 -5.2067,-16.871 -0.19487,-22.41 7.7538,-8.5706 32.352,-1.4713 40.646,-3.2892 z"
       fill="#216778"
       id="path100" />
  </g>
</svg>
