<?xml version="1.0" encoding="UTF-8" standalone="no"?>
<svg
   xmlns:dc="http://purl.org/dc/elements/1.1/"
   xmlns:cc="http://creativecommons.org/ns#"
   xmlns:rdf="http://www.w3.org/1999/02/22-rdf-syntax-ns#"
   xmlns:svg="http://www.w3.org/2000/svg"
   xmlns="http://www.w3.org/2000/svg"
   xmlns:sodipodi="http://sodipodi.sourceforge.net/DTD/sodipodi-0.dtd"
   xmlns:inkscape="http://www.inkscape.org/namespaces/inkscape"
   width="79.22673mm"
   height="120.53887mm"
   fill-rule="evenodd"
   viewBox="0 0 7.9729789 9.719894"
   version="1.1"
   id="svg76"
   sodipodi:docname="coat-145583.svg"
   inkscape:version="1.0.2-2 (e86c870879, 2021-01-15)">
  <metadata
     id="metadata82">
    <rdf:RDF>
      <cc:Work
         rdf:about="">
        <dc:format>image/svg+xml</dc:format>
        <dc:type
           rdf:resource="http://purl.org/dc/dcmitype/StillImage" />
        <dc:title></dc:title>
      </cc:Work>
    </rdf:RDF>
  </metadata>
  <defs
     id="defs80" />
  <sodipodi:namedview
     pagecolor="#ffffff"
     bordercolor="#666666"
     borderopacity="1"
     objecttolerance="10"
     gridtolerance="10"
     guidetolerance="10"
     inkscape:pageopacity="0"
     inkscape:pageshadow="2"
     inkscape:window-width="1920"
     inkscape:window-height="1017"
     id="namedview78"
     showgrid="false"
     units="mm"
     inkscape:zoom="1.2521683"
     inkscape:cx="337.95165"
     inkscape:cy="179.37044"
     inkscape:window-x="-8"
     inkscape:window-y="-8"
     inkscape:window-maximized="1"
     inkscape:current-layer="svg76" />
  <path
     style="fill:#d38d5f;stroke:#d38d5f;stroke-width:0.053166;stroke-linecap:square;stroke-linejoin:round;stroke-miterlimit:4;stroke-dasharray:none;stroke-opacity:1"
     d="m 0.41990842,10.583338 c -7.6543e-4,-0.0029 -0.005285,-0.331498 -0.0100356,-0.7301503 -0.0343598,-2.8812671 -0.0571306,-4.4353603 -0.0651062,-4.4433486 -0.0433324,-0.043401 -0.0454845,0.2520924 -0.0175968,2.4161014 0.0169091,1.3120997 0.0259858,2.3904025 0.0201703,2.3962265 -0.005816,0.0058 -0.0705724,0.01153 -0.14390428,0.01267 l -0.13333075,0.0021 -0.0055653,-1.0445954 C 0.05533086,7.4639722 0.0945854,4.5984224 0.13038963,4.3850781 0.20824506,3.9211662 0.28501165,3.758718 0.6127687,3.3643017 0.90949798,3.0072238 1.0403727,2.8220716 1.1494788,2.6050024 1.3341608,2.2375738 1.419625,2.16317 1.9730746,1.8879913 2.1790354,1.7855865 2.4576959,1.6412075 2.5923206,1.5671491 2.9195119,1.3871578 2.9208687,1.3688342 2.6361405,0.97527498 2.4533635,0.72263528 2.4118994,0.58106642 2.4141536,0.21735595 c 0.00308,-0.49773149 0.1072845,-0.80928892 0.3546826,-1.06050193 0.1112531,-0.11296869 0.1522211,-0.13974163 0.2594971,-0.16958482 0.070063,-0.019491 0.1296132,-0.033209 0.1323333,-0.030485 0.00272,0.00272 -0.058178,0.0524335 -0.1353294,0.11046462 -0.2736309,0.20581879 -0.3651042,0.39848311 -0.3841053,0.80901427 -0.021281,0.45976984 0.04652,0.77659106 0.2306109,1.07761039 C 3.020623,1.1971556 3.06058,1.3078118 3.06058,1.4765616 v 0.1395386 l 0.1011015,0.04619 c 0.084812,0.038749 0.1405385,0.046239 0.3458736,0.046491 0.2225373,2.723e-4 0.2561375,-0.005 0.3698904,-0.058121 L 4.0025639,1.5922377 3.9838681,1.4803905 c -0.010283,-0.061516 -0.018529,-0.1933898 -0.018324,-0.2930529 3.118e-4,-0.1512551 0.00979,-0.20146522 0.057355,-0.30378532 0.031341,-0.067419 0.060294,-0.12258 0.064342,-0.12258 0.00404,0 0.00696,0.1192421 0.0065,0.26498242 l -8.61e-4,0.2649824 0.063853,0.068206 c 0.1005649,0.1074233 0.2588161,0.1638425 0.7186422,0.2562104 0.6302551,0.126603 0.8465535,0.2405194 1.2008149,0.6324248 0.103239,0.1142095 0.3033538,0.3276462 0.4446993,0.4743039 0.3060572,0.3175587 0.3631446,0.3901153 0.4618154,0.5869528 0.098639,0.1967755 0.1741394,0.452104 0.2267784,0.766929 0.084332,0.5043699 0.2891588,2.0753252 0.4488996,3.442901 0.036292,0.3107139 0.1115647,0.8896355 0.1672705,1.2864927 l 0.1012827,0.7215591 -0.045923,0.030137 c -0.048687,0.031951 -0.3762177,0.07085 -0.6042887,0.071772 l -0.1365376,5.49e-4 0.013699,-2.0412245 C 7.1707981,5.0686384 7.1437575,3.9112844 7.0605425,3.5927858 7.033564,3.4895277 6.887896,3.358195 6.5390868,3.1226475 6.3877352,3.0204409 6.2141837,2.8957293 6.153417,2.84551 5.3677179,2.1961881 5.3306511,2.1724776 4.7420581,1.9427045 4.572314,1.8764405 4.3515023,1.7800971 4.2513653,1.7286084 4.151228,1.6771198 4.0602366,1.635033 4.0491622,1.6350821 4.0380872,1.6351355 3.9836592,1.6582261 3.9282121,1.6864031 3.725481,1.7894267 3.3342048,1.8115741 3.1628385,1.7297251 l -0.076073,-0.036334 -0.074052,0.082722 C 2.672236,2.1564516 2.5161003,2.3381582 2.4616434,2.4174336 2.4265939,2.468457 2.1990435,2.9056627 1.9559755,3.3890014 1.7129075,3.8723402 1.4830448,4.319655 1.4451695,4.3830344 1.3265856,4.581469 1.2370291,4.7750966 1.209213,4.8931887 1.1865224,4.9895232 1.1603744,5.0290203 1.0384349,5.1511531 0.82790588,5.3620157 0.81617336,5.4519788 0.93099434,5.9749921 1.0833615,6.6690297 1.3096094,8.8140539 1.3701873,10.138921 c 0.013453,0.294223 0.012377,0.306404 -0.02577,0.291584 -0.021895,-0.0085 -0.1042854,-0.02094 -0.183089,-0.02764 C 1.020784,10.390924 1.0178479,10.389421 1.0074997,10.324466 1.0016936,10.288043 0.90064982,9.0878665 0.7829501,7.6574104 0.66525048,6.2269543 0.55967414,5.0044549 0.54833609,4.9407452 c -0.027241,-0.1530698 -0.0239489,-0.2279175 0.005925,-0.1346537 0.030428,0.095003 0.0887819,0.095003 0.0684174,0 -0.0218689,-0.1020188 -0.0490178,-0.1438984 -0.0932862,-0.1438984 -0.0508687,0 -0.0642324,0.085741 -0.0404787,0.259713 0.009809,0.071856 0.11319272,1.2827407 0.22973624,2.6908539 0.11654362,1.4081135 0.21685952,2.600979 0.22292432,2.65081 0.007727,0.06346 0.003183,0.09063 -0.0151715,0.09074 -0.0144088,8e-5 -0.11718984,0.05278 -0.22840146,0.117114 -0.1687226,0.09761 -0.27107145,0.1388 -0.27809056,0.111921 z M 1.2088278,4.3827981 c 0,-0.012964 -0.022579,-0.050447 -0.050175,-0.083294 C 1.0954008,4.2242134 1.0741918,4.0955452 1.1034218,3.9644357 1.1273108,3.857283 1.2049865,3.7076543 1.2608127,3.661249 c 0.040577,-0.033729 0.042951,-0.064975 0.00493,-0.064975 -0.04517,0 -0.1139145,0.086429 -0.1749477,0.2199551 -0.048989,0.1071753 -0.055618,0.1460095 -0.04912,0.287734 0.00593,0.1292879 0.017917,0.1784466 0.056853,0.2331208 0.048,0.067405 0.1102944,0.093224 0.1102944,0.045714 z M 1.8970972,3.0686468 c 0.066594,-0.348084 0.038236,-0.5596046 -0.075026,-0.5596046 -0.052219,0 -0.2301222,0.1708794 -0.2301222,0.2210368 0,0.056195 0.028475,0.040869 0.1136169,-0.061151 0.083781,-0.1003868 0.1284465,-0.1188918 0.1501624,-0.062211 0.022889,0.059743 0.012304,0.3140228 -0.019007,0.4565993 -0.038189,0.1738958 -0.038529,0.1918644 -0.00363,0.1918644 0.018679,0 0.040447,-0.063454 0.063995,-0.1865349 z"
     id="path925" />
  <path
     style="fill:#d38d5f;stroke:#d38d5f;stroke-width:0.053166;stroke-linecap:square;stroke-linejoin:round;stroke-miterlimit:4;stroke-dasharray:none;stroke-opacity:1"
     d="m 5.6075221,10.616101 -0.081698,-0.009 0.012626,-0.195794 C 5.5453901,10.30362 5.5611441,9.9756807 5.5734521,9.6825557 5.6015534,9.0133318 5.6885516,8.2630147 5.8496138,7.3008716 5.9896562,6.4642948 6.1174756,5.9413458 6.3590879,5.2164539 6.6252137,4.4180152 6.6792761,4.1803242 6.6784321,3.8124225 6.6778643,3.5652509 6.657594,3.4463112 6.5933286,3.313087 6.5703447,3.2654391 6.554992,3.2229954 6.5592121,3.2187687 c 0.010159,-0.010175 0.3331808,0.2315706 0.3789939,0.2836332 0.053836,0.06118 0.077582,0.1387315 0.1018611,0.3326684 0.053823,0.4299282 0.06766,1.4100144 0.052977,3.752438 -0.013622,2.1732504 -0.017959,2.3826064 -0.049556,2.3919074 -0.019045,0.0056 -0.1054963,0.01685 -0.1921148,0.02499 l -0.1574882,0.0148 0.015317,-1.2768346 c 0.00843,-0.7022593 0.023314,-1.4878858 0.033087,-1.7458366 0.00977,-0.2579513 0.013729,-0.4731593 0.00879,-0.4782399 -0.00494,-0.00508 -0.020057,0.00185 -0.033592,0.01541 -0.030884,0.030932 -0.089221,2.5105684 -0.072956,3.1009659 l 0.011013,0.3997182 h -0.049401 c -0.046192,0 -0.050337,-0.01074 -0.063795,-0.1652693 -0.022938,-0.2633758 -0.017939,-1.7224615 0.00754,-2.2010599 0.068676,-1.2899348 0.2269515,-2.8081482 0.3741735,-3.5891543 0.038072,-0.2019709 0.037891,-0.18418 0.00187,-0.18418 -0.082574,0 -0.2915535,1.6739073 -0.4111993,3.2936732 -0.028257,0.3825391 -0.036413,0.7808607 -0.037102,1.8120532 l -8.849e-4,1.3217341 -0.2318863,0.0061 -0.2318868,0.0061 0.012415,-0.9334274 c 0.021793,-1.6386121 0.16252,-3.0651797 0.3797074,-3.84913 0.04302,-0.1552858 0.042569,-0.2199797 -0.00121,-0.1739946 -0.057997,0.060913 -0.1840923,0.6613973 -0.2548675,1.2137205 -0.069132,0.5394994 -0.10548,0.9527055 -0.164087,1.8653485 -0.00791,0.123113 -0.020206,0.6603335 -0.027334,1.1938231 l -0.012958,0.9699829 -0.1277072,0.0022 c -0.070239,0.0012 -0.1644716,-0.0018 -0.209406,-0.0067 z"
     id="path927" />
  <path
     style="fill:#d38d5f;stroke:#d38d5f;stroke-width:0.053166;stroke-linecap:square;stroke-linejoin:round;stroke-miterlimit:4;stroke-dasharray:none;stroke-opacity:1"
     d="m 4.3166464,0.18484918 c -5.32e-5,-0.0660888 -0.01043,-0.1287996 -0.051024,-0.308083 -0.046877,-0.20702973 -0.072364,-0.30599261 -0.1009074,-0.39180243 -0.013069,-0.0392923 -0.022796,-0.0724096 -0.021613,-0.0735941 0.00318,-0.003174 0.035779,0.0525189 0.064617,0.11035601 0.080038,0.16051909 0.1302565,0.35776645 0.1302371,0.5115352 -6e-6,0.0474714 -0.013929,0.1917489 -0.018993,0.19682115 -0.00127,0.001259 -0.0023,-0.0190957 -0.00231,-0.0452328 z"
     id="path929" />
  <path
     style="fill:#784421;stroke:#006400;stroke-width:0.00425465;stroke-linecap:square;stroke-linejoin:round;stroke-miterlimit:4;stroke-dasharray:none"
     d="m 1.6646482,10.816596 c -0.01223,-0.01313 -0.02943,-0.04559 -0.03823,-0.07212 -0.0088,-0.02654 -0.02108,-0.05246 -0.02728,-0.05763 -0.0062,-0.0051 -0.04256,-0.01177 -0.0808,-0.01467 -0.11845,-0.009 -0.121067,-0.0137 -0.108823,-0.195881 0.04618,-0.6871573 -0.269613,-3.8677367 -0.45982104,-4.6312008 -0.03635,-0.1458909 -0.04741,-0.217904 -0.04809,-0.3130247 -0.0011,-0.155564 0.03639,-0.2352865 0.15888104,-0.3377871 0.126779,-0.1060909 0.16707,-0.1654009 0.190303,-0.2801339 0.02428,-0.1199118 0.0587,-0.198589 0.186319,-0.4258355 l 0.06514,-0.1159957 0.0051,0.1574809 c 0.0028,0.086615 0.0088,0.3068279 0.01344,0.4893631 0.01562,0.6185737 0.05184,1.4530227 0.08332,1.9196343 0.0083,0.1223815 0.0402,0.5721189 0.07098,0.9994166 0.08886,1.2335757 0.134174,1.9086675 0.169296,2.5221088 0.0084,0.146753 0.01711,0.269794 0.01934,0.273425 0.0022,0.0036 0.0089,0.0066 0.0149,0.0066 0.0084,0 0.01081,-0.01158 0.01075,-0.05092 -2.34e-4,-0.146015 -0.07774,-1.332954 -0.17671,-2.7059681 -0.07305,-1.0135195 -0.08388,-1.1723674 -0.09743,-1.4293544 -0.03487,-0.6612319 -0.07064,-1.6857516 -0.07203,-2.062947 l -6.96e-4,-0.1885691 0.061,-0.1093702 c 0.08165,-0.1464016 0.156716,-0.2955927 0.244142,-0.4852453 0.09348,-0.202781 0.207492,-0.4314103 0.325997,-0.6537128 0.05197,-0.09749 0.131008,-0.2528226 0.175641,-0.3451832 0.119115,-0.2464925 0.158025,-0.2995651 0.500201,-0.6822673 0.116036,-0.1297797 0.218994,-0.2454931 0.228795,-0.2571409 l 0.01782,-0.021178 0.04511,0.0232 c 0.08506,0.043747 0.247416,0.060874 0.437681,0.046169 0.189563,-0.01465 0.33242,-0.055753 0.43845,-0.1261505 l 0.02734,-0.018155 0.04445,0.027175 c 0.141193,0.086312 0.587953,0.2802399 0.864966,0.3754603 0.06674,0.022939 0.142639,0.052497 0.168674,0.065682 0.19596,0.099246 0.588614,0.3875833 0.867765,0.6372267 0.116275,0.1039841 0.132598,0.1172538 0.240577,0.1955706 0.187637,0.1360932 0.285813,0.2639936 0.34936,0.4551333 0.03991,0.1200526 0.04881,0.19034 0.04842,0.3825051 -3.94e-4,0.1938291 -0.01227,0.2951891 -0.05974,0.5096825 -0.05151,0.2327612 -0.112563,0.4342754 -0.259398,0.8561725 -0.136136,0.3911572 -0.223186,0.6985006 -0.339508,1.198686 -0.01017,0.043708 -0.01084,0.036873 -0.0197,-0.1998833 -0.02917,-0.779155 -0.147153,-1.913162 -0.266823,-2.564541 -0.0077,-0.041769 -0.01151,-0.049385 -0.02589,-0.051439 -0.0093,-0.00132 -0.01688,-10e-4 -0.01688,7.186e-4 0,0.00172 0.01507,0.092752 0.03349,0.2022937 0.123644,0.7352285 0.234878,1.9020878 0.241841,2.5369489 0.0017,0.157383 0.0041,0.2871082 0.0053,0.2882783 0.0012,0.00117 -0.01248,0.076056 -0.03033,0.1664151 -0.09099,0.4606969 -0.180351,1.0270432 -0.263945,1.6728416 l -0.01367,0.1055987 -0.0048,-0.5393079 c -0.0048,-0.5322756 -0.0092,-0.7163798 -0.0318,-1.3086701 -0.04137,-1.0861077 -0.113945,-2.3283896 -0.202914,-3.4734445 -0.03187,-0.4101979 -0.03058,-0.3997669 -0.04933,-0.3997669 -0.01831,0 -0.01831,-0.00369 3.36e-4,0.2193802 0.05105,0.6107537 0.114237,1.554742 0.157722,2.356475 0.09037,1.6660944 0.122996,3.2236342 0.07561,3.6092143 -0.01228,0.09993 -0.05966,1.0125111 -0.0602,1.1597011 -8e-5,0.02409 -6.95e-4,0.02451 -0.03462,0.02451 -0.04992,0 -0.172825,0.02667 -0.264071,0.0573 -0.04344,0.01458 -0.07992,0.02547 -0.08108,0.02421 -0.0012,-0.0013 7.7e-4,-0.07019 0.0043,-0.153158 0.0035,-0.08297 0.0101,-0.3955013 0.01463,-0.6945132 0.01871,-1.2358478 -0.02711,-3.2898131 -0.116755,-5.234103 -0.0061,-0.1327527 -0.01113,-0.2456115 -0.01114,-0.2507972 -5e-6,-0.00519 -0.0068,-0.00943 -0.01505,-0.00943 -0.01376,0 -0.01504,0.00503 -0.01504,0.059236 0,0.03258 0.0033,0.1267704 0.0074,0.2093117 0.03781,0.7630878 0.08038,2.0304676 0.10564,3.1445545 0.01997,0.880969 0.01639,2.3825429 -0.0068,2.8494082 l -0.0048,0.0963 -0.127807,0.05546 c -0.07029,0.03051 -0.173168,0.0763 -0.22861,0.101762 -0.05544,0.02546 -0.101681,0.04542 -0.102753,0.04435 -0.0011,-0.0011 0.001,-0.7656583 0.0047,-1.6990716 0.0072,-1.8474721 0.01346,-2.2196191 0.04481,-2.6848805 0.0052,-0.077267 0.0048,-0.1066697 -0.0015,-0.1105581 -0.02031,-0.012591 -0.02664,0.00327 -0.03137,0.078554 -0.03117,0.4965801 -0.03494,0.7101412 -0.04203,2.3812386 -0.0038,0.8898578 -0.0092,1.7168796 -0.012,1.8378256 l -0.0051,0.219903 -0.08217,0.03172 c -0.143861,0.05555 -0.138027,0.0545 -0.337152,0.06064 -0.160891,0.0049 -0.243181,0.01203 -0.56761,0.04877 l -0.03759,0.0042 0.0049,-0.09271 c 0.0078,-0.147003 0.007,-0.9456351 -0.0012,-1.1901874 -0.0093,-0.2770411 -0.02389,-0.5917052 -0.05261,-1.1351863 -0.01228,-0.2323173 -0.02918,-0.5683477 -0.03756,-0.746734 -0.06931,-1.474965 -0.114941,-2.2977865 -0.1692,-3.0510497 -0.04319,-0.5995432 -0.09155,-1.0638667 -0.113099,-1.0858351 -0.02289,-0.023341 -0.02742,0.00119 -0.01541,0.083489 0.07247,0.4965359 0.162781,1.8792806 0.2603,3.9855109 0.0085,0.1825349 0.02534,0.5202626 0.03752,0.7505054 0.02921,0.5519364 0.04286,0.8370518 0.05345,1.1163297 0.0092,0.2418234 0.013,0.9430355 0.0066,1.2079595 l -0.0038,0.155742 -0.033,0.0045 c -0.01815,0.0025 -0.132463,0.0045 -0.254029,0.0045 -0.315823,0 -0.3988,0.01145 -0.542359,0.07484 -0.126853,0.056 -0.134315,0.05707 -0.401058,0.05712 -0.130937,0 -0.240888,-0.0028 -0.244335,-0.0062 -0.0034,-0.0034 -0.0087,-0.59066 -0.01159,-1.3048985 -0.0057,-1.3875632 -0.01723,-2.4959962 -0.0285,-2.7355139 -0.02858,-0.6075569 -0.09049,-1.4235995 -0.162231,-2.1383747 -0.02628,-0.2618383 -0.06781,-0.6138841 -0.07542,-0.6392495 -0.0022,-0.00726 -0.01097,-0.0132 -0.01953,-0.0132 -0.01422,0 -0.01517,0.00313 -0.01098,0.035829 0.0025,0.019706 0.01294,0.1003192 0.02313,0.1791406 0.07847,0.6069518 0.187659,1.9774126 0.214845,2.6965396 0.0105,0.2778352 0.02183,1.5732095 0.0249,2.8487621 l 0.0026,1.0724423 -0.05692,0.0052 c -0.03131,0.0029 -0.08568,0.01357 -0.120828,0.02378 -0.03515,0.0102 -0.08157,0.02044 -0.103154,0.02272 -0.03679,0.0039 -0.04064,0.0027 -0.06148,-0.0197 z m -0.03323,-0.314669 c 0.0054,-0.01406 -0.0053,-0.398187 -0.03172,-1.1419014 -0.01922,-0.5409313 -0.02778,-0.7626239 -0.07854,-2.0327753 -0.05304,-1.327476 -0.07002,-1.8009159 -0.07972,-2.2232309 -0.0049,-0.2120074 -0.0059,-0.2243973 -0.01916,-0.2243973 -0.01323,0 -0.014,0.00905 -0.01399,0.164055 1.8e-5,0.2450684 0.01823,0.7734314 0.07897,2.2911158 0.06279,1.5689624 0.08526,2.1723603 0.101077,2.7153971 0.0097,0.334283 0.0147,0.449097 0.01978,0.457337 0.0064,0.01043 0.01825,0.0076 0.02329,-0.0056 z"
     id="path911" />
  <path
     style="fill:#784421;stroke:#006400;stroke-width:0;stroke-linecap:square;stroke-linejoin:round;stroke-miterlimit:4;stroke-dasharray:none"
     d="m 3.8402042,1.2756647 c -0.105367,-0.1095119 -0.159701,-0.126311 -0.413942,-0.1279842 -0.203191,-0.00134 -0.225861,0.00127 -0.264872,0.030486 -0.02346,0.017572 -0.05074,0.05534 -0.06061,0.083929 -0.0099,0.028589 -0.01833,0.04168 -0.01881,0.029091 -0.0014,-0.037651 -0.08508,-0.2063864 -0.151702,-0.30595002 -0.166247,-0.2484528 -0.22708,-0.46420068 -0.24751,-0.87781749 -0.0182,-0.36839436 0.05425,-0.67990897 0.192672,-0.82843253 0.0263,-0.0282239 0.115486,-0.1066496 0.198185,-0.17427918 0.0827,-0.0676296 0.201731,-0.16985838 0.264517,-0.22717498 0.06279,-0.057317 0.118493,-0.1042121 0.123794,-0.1042121 0.0053,0 0.02763,0.036051 0.04961,0.080114 0.06893,0.1381315 0.10407,0.17247951 0.25452,0.24876551 0.268059,0.13591955 0.328933,0.24713599 0.458947,0.83849494 0.07617,0.34644469 0.05735,0.44927618 -0.134775,0.73636593 -0.0505,0.075466 -0.108637,0.1744861 -0.129188,0.2200432 -0.04141,0.091795 -0.07486,0.29408722 -0.06328,0.38263782 0.0041,0.031473 0.0061,0.057224 0.0045,0.057224 -0.0017,0 -0.02958,-0.027586 -0.06202,-0.061301 z"
     id="path913" />
  <path
     style="fill:#784421;stroke:#006400;stroke-width:0;stroke-linecap:square;stroke-linejoin:round;stroke-miterlimit:4;stroke-dasharray:none"
     d="M 3.2482564,1.6722681 C 3.2027033,1.659554 3.1457986,1.6390818 3.1218147,1.6267742 l -0.043619,-0.022377 0.013244,-0.1516648 c 0.015606,-0.1786889 0.041602,-0.2505067 0.098455,-0.2719501 0.053393,-0.020139 0.3409572,-0.01931 0.4319484,0.00124 0.150943,0.034099 0.3012734,0.1847874 0.3200957,0.3208574 0.012188,0.088072 0.00491,0.096306 -0.1305538,0.1477843 C 3.6956218,1.694656 3.3728502,1.707035 3.2482576,1.672261 Z"
     id="path915" />
  <g
     transform="matrix(2.7764,0,0,2.7764,-13.594475,-3.4117483)"
     fill="none"
     stroke="#000000"
     stroke-linecap="round"
     id="g74"
     style="stroke-width:0.0191805;stroke-miterlimit:4;stroke-dasharray:none">
    <path
       d="M 6.32589,1.79992 C 6.31401,1.74845 6.28629,1.62569 6.34174,1.53065 6.39719,1.43561 6.46846,1.39206 6.43282,1.23762 6.39718,1.08318 6.38133,0.98418 6.3061,0.93271"
       stroke-width=".0096"
       id="path2"
       style="stroke-width:0.0191805;stroke-miterlimit:4;stroke-dasharray:none" />
    <path
       d="M 6.3061,0.93272 C 6.25066,0.89313 6.21105,0.90501 6.17542,0.83373 6.15367,0.79024 6.14961,0.77917 6.12906,0.79517"
       stroke-width=".02309"
       id="path4"
       style="stroke-width:0.0191805;stroke-miterlimit:4;stroke-dasharray:none" />
    <path
       d="M 6.12905,0.79517 6.06058,0.85749 C 5.9695,0.93669 5.91009,0.95648 5.87842,1.05548 5.84675,1.15448 5.85465,1.22972 5.85862,1.32078 5.86259,1.41184 5.89031,1.49897 5.92197,1.55045 5.95363,1.60193 6.03285,1.693 6.00514,1.80784"
       stroke-width=".01536"
       id="path6"
       style="stroke-width:0.0191805;stroke-miterlimit:4;stroke-dasharray:none" />
    <path
       d="M 6.31401,1.73657 C 6.24274,1.64154 6.21811,1.64866 6.12703,1.6447 6.03595,1.64074 6.02097,1.64944 6.01306,1.72865"
       stroke-width=".00587"
       id="path8"
       style="stroke-width:0.0191805;stroke-miterlimit:4;stroke-dasharray:none" />
    <path
       d="M 6.14004,0.78924 C 6.03988,0.8278 6.01702,0.86541 5.96553,0.86936 5.91404,0.87331 5.81505,0.99608 5.79129,1.06338 5.76753,1.13068 5.70021,1.41977 5.819,1.57421 5.93779,1.72865 5.91801,1.74447 5.88632,1.75636 5.74381,1.83514 5.61492,1.90494 5.53973,1.93717 5.46454,1.9694 5.3625,2.02308 5.3088,2.15196 5.2551,2.28084 5.09399,2.4527 5.03491,2.52787 4.97583,2.60304 4.92214,2.73194 4.91677,3.03266 4.9114,3.33338 4.90603,4.8048 4.90603,4.90682 4.9114,4.95515 5.03492,4.91757 5.03492,4.91757"
       stroke-width=".02309"
       id="path10"
       style="stroke-width:0.0191805;stroke-miterlimit:4;stroke-dasharray:none" />
    <path
       d="M 5.0138,3.1938 5.03488,4.9176"
       stroke-width=".01536"
       id="path12"
       style="stroke-width:0.0191805;stroke-miterlimit:4;stroke-dasharray:none" />
    <path
       d="m 5.03493,4.91758 c 0,0.09665 -0.02685,0.17184 0.06444,0.12351 0.09129,-0.04833 0.13426,-0.0913 0.15036,-0.06444 0,0 0.02148,0.01073 0.07519,0.01073 0.05371,0 0.06981,0.01611 0.06981,0.0537 0,0.03759 0.03222,0.03758 0.05907,0.03758 0.02685,0 0.01562,0.01642 0.03223,0.04296 C 5.49584,5.1373 5.50547,5.14549 5.5538,5.12937 5.60213,5.11325 5.62566,5.12162 5.75992,5.12162 c 0.13426,0 0.0913,-0.0537 0.27389,-0.04833 C 6.2164,5.07866 6.34528,5.04108 6.42584,5.05181 6.5064,5.06254 6.74806,4.89607 6.88232,4.90144 M 6.89879,4.52614 6.87585,5.05809 C 6.96764,5.06853 7.049,5.08105 7.049,5.04557 L 7.05004,4.90784"
       stroke-width=".02309"
       id="path14"
       style="stroke-width:0.0191805;stroke-miterlimit:4;stroke-dasharray:none" />
    <path
       d="M 7.0502,4.8954 7.05323,4.49696"
       stroke-width=".01536"
       id="path16"
       style="stroke-width:0.0191805;stroke-miterlimit:4;stroke-dasharray:none" />
    <path
       d="m 7.05318,4.95797 c 0.07301,0 0.18984,0.02294 0.18984,-0.01877 L 7.24094,4.85366"
       stroke-width=".02309"
       id="path18"
       style="stroke-width:0.0191805;stroke-miterlimit:4;stroke-dasharray:none" />
    <path
       d="M 7.2409,4.8537 7.23048,4.39893"
       stroke-width=".01536"
       id="path20"
       style="stroke-width:0.0191805;stroke-miterlimit:4;stroke-dasharray:none" />
    <path
       d="M 7.24094,4.85367 C 7.2764,4.85159 7.29309,4.86202 7.29936,4.84324"
       stroke-width=".02309"
       id="path22"
       style="stroke-width:0.0191805;stroke-miterlimit:4;stroke-dasharray:none" />
    <path
       d="M 7.2994,4.8432 7.29523,4.51777"
       stroke-width=".01536"
       id="path24"
       style="stroke-width:0.0191805;stroke-miterlimit:4;stroke-dasharray:none" />
    <path
       d="M 7.29936,4.84325 C 7.35776,4.84116 7.45164,4.8495 7.45582,4.81404 v -0.1064"
       stroke-width=".02309"
       id="path26"
       style="stroke-width:0.0191805;stroke-miterlimit:4;stroke-dasharray:none" />
    <path
       d="M 7.4558,4.7076 7.45372,4.43849"
       stroke-width=".01536"
       id="path28"
       style="stroke-width:0.0191805;stroke-miterlimit:4;stroke-dasharray:none" />
    <path
       d="M 7.45581,4.70764 C 7.5789,4.70348 7.76666,4.71181 7.75831,4.65341 L 7.6832,4.11937 C 7.62974,3.63297 7.51569,2.73202 7.48147,2.59517 7.44725,2.45832 7.39594,2.34997 7.30469,2.26444 7.21344,2.17891 7.15643,2.11047 7.0823,2.02495 7.00817,1.93943 6.88841,1.85388 6.74585,1.82537 6.60329,1.79686 6.40371,1.77976 6.38089,1.68851 6.36379,1.60298 6.3866,1.48323 6.41511,1.4205 M 6.30609,0.93271 C 6.40735,0.99061 6.47265,1.16093 6.46413,1.27164 6.45561,1.38235 6.43421,1.365 6.41512,1.4205"
       stroke-width=".02309"
       id="path30"
       style="stroke-width:0.0191805;stroke-miterlimit:4;stroke-dasharray:none" />
    <path
       d="M 5.24974,4.97665 5.08831,3.04483 C 5.05853,2.90585 5.09327,2.88103 5.11313,2.9803"
       stroke-width=".0096"
       id="path32"
       style="stroke-width:0.0191805;stroke-miterlimit:4;stroke-dasharray:none" />
    <path
       d="M 5.34147,3.00512 C 5.31665,3.13418 5.16277,3.07462 5.23226,3.33769 5.30175,3.60076 5.42816,4.87321 5.39474,5.0411"
       stroke-width=".02309"
       id="path34"
       style="stroke-width:0.0191805;stroke-miterlimit:4;stroke-dasharray:none" />
    <path
       d="M 6.00514,1.80785 C 6.07115,1.85853 6.25303,1.86044 6.3259,1.79992"
       stroke-width=".01536"
       id="path36"
       style="stroke-width:0.0191805;stroke-miterlimit:4;stroke-dasharray:none" />
    <path
       d="M 6.01159,1.85853 C 6.05026,1.88823 6.08984,1.88918 6.16345,1.8883 6.23706,1.88742 6.31061,1.86813 6.35318,1.83278 M 6.01159,1.85854 C 5.90734,1.98264 5.78821,2.09183 5.74851,2.18613 5.70881,2.28043 5.64426,2.37476 5.54994,2.58322 5.45562,2.79168 5.34643,2.9257 5.34147,3.00512"
       stroke-width=".02309"
       id="path38"
       style="stroke-width:0.0191805;stroke-miterlimit:4;stroke-dasharray:none" />
    <path
       d="M 5.55492,2.39956 C 5.59958,2.2308 5.59958,2.04715 5.47549,2.22088 M 5.3514,2.53855 c -0.07942,0.06452 -0.10424,0.2184 -0.02978,0.273"
       stroke-width=".0096"
       id="path40"
       style="stroke-width:0.0191805;stroke-miterlimit:4;stroke-dasharray:none" />
    <path
       d="M 6.35319,1.83278 C 6.39878,1.86846 6.62214,1.96277 6.70653,1.98759 6.79092,2.01241 6.99939,2.1762 7.08379,2.25562 7.10322,2.2739 7.15418,2.31053 7.18143,2.32955"
       stroke-width=".02309"
       id="path42"
       style="stroke-width:0.0191805;stroke-miterlimit:4;stroke-dasharray:none" />
    <path
       d="m 7.18164,2.32974 c 0.08663,0.05813 0.18932,0.11881 0.23472,0.17903 0.06512,0.0864 0.04497,1.25861 0.03738,1.92976"
       stroke-width=".01536"
       id="path44"
       style="stroke-width:0.0191805;stroke-miterlimit:4;stroke-dasharray:none" />
    <path
       d="M 6.8988,4.52616 C 6.9696,3.89857 7.04903,3.45184 7.17809,3.09447 7.30715,2.7371 7.3519,2.48072 7.18142,2.32955"
       stroke-width=".02309"
       id="path46"
       style="stroke-width:0.0191805;stroke-miterlimit:4;stroke-dasharray:none" />
    <path
       d="M 7.04904,3.63053 Z M 7.05319,4.49695 C 7.05897,4.10704 7.11854,3.40222 7.20788,3.17389 M 7.23053,4.3989 C 7.23768,3.64047 7.33695,2.89592 7.38659,2.64775 M 7.2952,4.51782 C 7.31646,3.80002 7.30038,3.68741 7.32183,3.59088"
       stroke-width=".01536"
       id="path48"
       style="stroke-width:0.0191805;stroke-miterlimit:4;stroke-dasharray:none" />
    <path
       d="M 5.48,5.008 C 5.46366,4.35954 5.40916,3.28059 5.40916,2.99723 M 5.57264,5.08974 C 5.5454,4.57206 5.48545,3.83096 5.47455,3.63479 5.46365,3.43862 5.44186,2.89914 5.44731,2.7956 m 0.17983,2.31594 c -0.00545,-0.34875 0,-1.0844 -0.0109,-1.40591 C 5.60534,3.38412 5.55083,2.79015 5.52905,2.66482 M 6.17208,5.05704 C 6.18843,4.6756 6.15574,4.2887 6.13939,3.91815 6.12304,3.5476 6.07944,2.67028 6.0413,2.44685 M 6.55355,5.008 C 6.56445,4.15792 6.5481,3.78738 6.57535,3.39502 m 0.11988,-0.7411 c 0.0545,1.16615 0.0545,1.94538 0.03815,2.27779 M 6.81512,2.25613 c 0.06539,0.76835 0.11444,1.8255 0.09264,2.2124 M 6.93501,2.52315 C 6.9895,2.79561 7.04945,3.44952 7.0331,3.6021"
       stroke-width=".0096"
       id="path50"
       style="stroke-width:0.0191805;stroke-miterlimit:4;stroke-dasharray:none" />
    <path
       d="M 6.32589,1.79992 C 6.31401,1.74845 6.28629,1.62569 6.34174,1.53065 6.39719,1.43561 6.46846,1.39206 6.43282,1.23762 6.39718,1.08318 6.38133,0.98418 6.3061,0.93271"
       stroke-width=".0096"
       id="path52"
       style="stroke-width:0.0191805;stroke-miterlimit:4;stroke-dasharray:none" />
    <path
       d="M 6.3061,0.93272 C 6.25066,0.89313 6.21105,0.90501 6.17542,0.83373 6.15367,0.79024 6.14961,0.77917 6.12906,0.79517"
       stroke-width=".02309"
       id="path54"
       style="stroke-width:0.0191805;stroke-miterlimit:4;stroke-dasharray:none" />
    <path
       d="M 6.12905,0.79517 6.06058,0.85749 C 5.9695,0.93669 5.91009,0.95648 5.87842,1.05548 5.84675,1.15448 5.85465,1.22972 5.85862,1.32078 5.86259,1.41184 5.89031,1.49897 5.92197,1.55045 5.95363,1.60193 6.03285,1.693 6.00514,1.80784"
       stroke-width=".01536"
       id="path56"
       style="stroke-width:0.0191805;stroke-miterlimit:4;stroke-dasharray:none" />
    <path
       d="M 6.31401,1.73657 C 6.24274,1.64154 6.21811,1.64866 6.12703,1.6447 6.03595,1.64074 6.02097,1.64944 6.01306,1.72865"
       stroke-width=".00587"
       id="path58"
       style="stroke-width:0.0191805;stroke-miterlimit:4;stroke-dasharray:none" />
    <path
       d="M 6.14004,0.78924 C 6.03988,0.8278 6.01702,0.86541 5.96553,0.86936 5.91404,0.87331 5.81505,0.99608 5.79129,1.06338 5.76753,1.13068 5.70021,1.41977 5.819,1.57421 5.93779,1.72865 5.91801,1.74447 5.88632,1.75636 5.74381,1.83514 5.61492,1.90494 5.53973,1.93717 5.46454,1.9694 5.3625,2.02308 5.3088,2.15196 5.2551,2.28084 5.09399,2.4527 5.03491,2.52787 4.97583,2.60304 4.92214,2.73194 4.91677,3.03266 4.9114,3.33338 4.90603,4.8048 4.90603,4.90682 4.9114,4.95515 5.03492,4.91757 5.03492,4.91757"
       stroke-width=".02309"
       id="path60"
       style="stroke-width:0.0191805;stroke-miterlimit:4;stroke-dasharray:none" />
    <path
       d="M 5.0138,3.1938 5.03488,4.9176"
       stroke-width=".01536"
       id="path62"
       style="stroke-width:0.0191805;stroke-miterlimit:4;stroke-dasharray:none" />
    <path
       d="M 5.24974,4.97665 5.08831,3.04483 C 5.05853,2.90585 5.09327,2.88103 5.11313,2.9803"
       stroke-width=".0096"
       id="path64"
       style="stroke-width:0.0191805;stroke-miterlimit:4;stroke-dasharray:none" />
    <path
       d="M 5.34147,3.00512 C 5.31665,3.13418 5.16277,3.07462 5.23226,3.33769 5.30175,3.60076 5.42816,4.87321 5.39474,5.0411"
       stroke-width=".02309"
       id="path66"
       style="stroke-width:0.0191805;stroke-miterlimit:4;stroke-dasharray:none" />
    <path
       d="M 6.00514,1.80785 C 6.07115,1.85853 6.25303,1.86044 6.3259,1.79992"
       stroke-width=".01536"
       id="path68"
       style="stroke-width:0.0191805;stroke-miterlimit:4;stroke-dasharray:none" />
    <path
       d="M 6.01159,1.85853 C 6.05026,1.88823 6.08984,1.88918 6.16345,1.8883 6.23706,1.88742 6.31061,1.86813 6.35318,1.83278 M 6.01159,1.85854 C 5.90734,1.98264 5.78821,2.09183 5.74851,2.18613 5.70881,2.28043 5.64426,2.37476 5.54994,2.58322 5.45562,2.79168 5.34643,2.9257 5.34147,3.00512"
       stroke-width=".02309"
       id="path70"
       style="stroke-width:0.0191805;stroke-miterlimit:4;stroke-dasharray:none" />
    <path
       d="M 5.55492,2.39956 C 5.59958,2.2308 5.59958,2.04715 5.47549,2.22088 M 5.3514,2.53855 c -0.07942,0.06452 -0.10424,0.2184 -0.02978,0.273"
       stroke-width=".0096"
       id="path72"
       style="stroke-width:0.0191805;stroke-miterlimit:4;stroke-dasharray:none" />
  </g>
</svg>
