<?xml version="1.0"?>
<svg xmlns:rdf="http://www.w3.org/1999/02/22-rdf-syntax-ns#" xmlns="http://www.w3.org/2000/svg" xmlns:cc="http://web.resource.org/cc/" xmlns:xlink="http://www.w3.org/1999/xlink" xmlns:dc="http://purl.org/dc/elements/1.1/" xmlns:svg="http://www.w3.org/2000/svg" id="svg2" viewBox="0 0 466.55 347.67" version="1.0">
  <defs id="defs4">
    <linearGradient id="linearGradient3816">
      <stop id="stop3818" stop-color="#fff" stop-opacity=".66497" offset="0"/>
      <stop id="stop3820" stop-color="#fff" stop-opacity="0" offset="1"/>
    </linearGradient>
    <linearGradient id="linearGradient3480">
      <stop id="stop3482" stop-color="#000082" offset="0"/>
      <stop id="stop3486" stop-color="#5e5cc2" offset=".5"/>
      <stop id="stop3484" stop-color="#03005c" offset="1"/>
    </linearGradient>
    <linearGradient id="linearGradient3267">
      <stop id="stop3269" offset="0"/>
      <stop id="stop3271" stop-color="#3c3c3c" offset="1"/>
    </linearGradient>
    <linearGradient id="linearGradient3207">
      <stop id="stop3209" stop-color="#2d56ff" offset="0"/>
      <stop id="stop3211" stop-color="#5f78e5" offset="1"/>
    </linearGradient>
    <linearGradient id="linearGradient3099">
      <stop id="stop3101" stop-color="#787878" offset="0"/>
      <stop id="stop3124" stop-color="#bbb" offset=".57143"/>
      <stop id="stop3126" stop-color="#ddd" offset=".57143"/>
      <stop id="stop3103" stop-color="#fff" offset="1"/>
    </linearGradient>
    <linearGradient id="linearGradient3041">
      <stop id="stop3043" stop-color="#f2efef" stop-opacity=".69804" offset="0"/>
      <stop id="stop3045" stop-color="#3f5ebe" stop-opacity="0" offset="1"/>
    </linearGradient>
    <linearGradient id="linearGradient2902">
      <stop id="stop2904" stop-color="#fff" offset="0"/>
      <stop id="stop2906" stop-color="#fff" stop-opacity="0" offset="1"/>
    </linearGradient>
    <linearGradient id="linearGradient2854">
      <stop id="stop2856" stop-color="#3a3a3a" stop-opacity="0" offset="0"/>
      <stop id="stop2858" stop-color="#f7f7f7" stop-opacity=".44366" offset="1"/>
    </linearGradient>
    <radialGradient id="radialGradient7699" gradientUnits="userSpaceOnUse" cy="892.32" cx="82.416" gradientTransform="matrix(1 0 0 1.2174 0 -193.98)" r="7.8654">
      <stop id="stop3064" stop-color="#7b7b7b" offset="0"/>
      <stop id="stop3066" stop-color="#fff" offset="1"/>
    </radialGradient>
    <linearGradient id="linearGradient7701" x1="185.29" xlink:href="#linearGradient3207" gradientUnits="userSpaceOnUse" x2="218.23" y1="911.46" y2="882.4"/>
    <linearGradient id="linearGradient7703" x1="71.523" xlink:href="#linearGradient3267" gradientUnits="userSpaceOnUse" y1="988.89" gradientTransform="matrix(.82037 -.15397 0 .87170 134.9 86.572)" x2="138.21" y2="988.89"/>
    <linearGradient id="linearGradient7705" x1="101.14" xlink:href="#linearGradient3207" gradientUnits="userSpaceOnUse" x2="192.37" y1="910.4" y2="911.82"/>
    <linearGradient id="linearGradient7707" x1="71.523" xlink:href="#linearGradient3267" gradientUnits="userSpaceOnUse" x2="138.21" y1="988.89" y2="988.89"/>
    <linearGradient id="linearGradient7709" x1="87.754" xlink:href="#linearGradient2854" gradientUnits="userSpaceOnUse" x2="147" y1="962.89" y2="962.89"/>
    <linearGradient id="linearGradient7711" x1="93.191" xlink:href="#linearGradient2854" gradientUnits="userSpaceOnUse" x2="126.85" y1="988.28" y2="988.28"/>
    <linearGradient id="linearGradient7713" y2="929.38" gradientUnits="userSpaceOnUse" y1="929.38" x2="243.62" x1="148.22">
      <stop id="stop2880" stop-color="#c8c8c8" stop-opacity=".38028" offset="0"/>
      <stop id="stop2882" stop-color="#b8b8b8" stop-opacity=".78873" offset="1"/>
    </linearGradient>
    <radialGradient id="radialGradient7715" gradientUnits="userSpaceOnUse" cy="929.59" cx="160.81" gradientTransform="matrix(.96953 -.15234 .22682 1.4435 -205.95 -387.08)" r="5.5737">
      <stop id="stop3083" stop-color="#b5b5b5" offset="0"/>
      <stop id="stop3085" stop-color="#fff" offset="1"/>
    </radialGradient>
    <linearGradient id="linearGradient7717" x1="146.98" xlink:href="#linearGradient3041" gradientUnits="userSpaceOnUse" x2="167.69" y1="858.62" y2="898.83"/>
    <linearGradient id="linearGradient7719" y2="896.17" gradientUnits="userSpaceOnUse" y1="870.5" x2="198.13" x1="180.15">
      <stop id="stop3242" stop-color="#f2efef" stop-opacity=".17766" offset="0"/>
      <stop id="stop3244" stop-color="#dee6fb" stop-opacity=".88325" offset="1"/>
    </linearGradient>
    <linearGradient id="linearGradient7721" x1="75.879" xlink:href="#linearGradient2902" gradientUnits="userSpaceOnUse" y1="915.05" gradientTransform="translate(-140)" x2="140.1" y2="915.05"/>
    <linearGradient id="linearGradient7723" x1="68.343" gradientUnits="userSpaceOnUse" y1="901.74" gradientTransform="translate(-140)" x2="142.99" y2="942.41">
      <stop id="stop3189" stop-color="#0d2587" offset="0"/>
      <stop id="stop3191" stop-color="#fff" stop-opacity=".76142" offset="1"/>
    </linearGradient>
    <linearGradient id="linearGradient7725" x1="86.072" xlink:href="#linearGradient2854" gradientUnits="userSpaceOnUse" y1="975.36" gradientTransform="translate(-140)" x2="31.952" y2="936.09"/>
    <linearGradient id="linearGradient7727" x1="75.727" gradientUnits="userSpaceOnUse" y1="925.15" gradientTransform="translate(-140)" x2="112.69" y2="958.86">
      <stop id="stop2984" stop-color="#fff" stop-opacity=".76761" offset="0"/>
      <stop id="stop2986" stop-color="#2247a0" stop-opacity=".17255" offset="1"/>
    </linearGradient>
    <linearGradient id="linearGradient7729" x1="54.728" gradientUnits="userSpaceOnUse" y1="914.08" gradientTransform="translate(-140)" x2="79.23" y2="934.29">
      <stop id="stop2954" stop-color="#faf7f7" stop-opacity=".79695" offset="0"/>
      <stop id="stop2956" stop-color="#c5d3ff" stop-opacity=".40392" offset="1"/>
    </linearGradient>
    <linearGradient id="linearGradient7731" x1="112.31" gradientUnits="userSpaceOnUse" y1="946.93" gradientTransform="translate(-140)" x2="115.35" y2="953.22">
      <stop id="stop3250" stop-color="#f8f8f8" offset="0"/>
      <stop id="stop3252" stop-color="#08048c" offset="1"/>
    </linearGradient>
    <linearGradient id="linearGradient7733" x1="35.437" xlink:href="#linearGradient3041" gradientUnits="userSpaceOnUse" x2="35.437" y1="921.06" y2="952.49"/>
    <radialGradient id="radialGradient7735" gradientUnits="userSpaceOnUse" cy="960.35" cx="16.063" gradientTransform="matrix(-.98370 .14634 -.17942 -1.0765 205.93 1990.4)" r="3.2026">
      <stop id="stop3657" stop-color="#3d54a1" offset="0"/>
      <stop id="stop3659" stop-color="#c4c2be" offset="1"/>
    </radialGradient>
    <linearGradient id="linearGradient7737" x1="83.796" xlink:href="#linearGradient3099" gradientUnits="userSpaceOnUse" x2="76.991" y1="992.89" y2="975.93"/>
    <linearGradient id="linearGradient7739" x1="80.906" xlink:href="#linearGradient3099" gradientUnits="userSpaceOnUse" x2="72.211" y1="976.8" y2="991.94"/>
    <linearGradient id="linearGradient7741" x1="30.647" xlink:href="#linearGradient2902" gradientUnits="userSpaceOnUse" x2="66.768" y1="963.03" y2="963.03"/>
    <linearGradient id="linearGradient7743" x1="80.906" xlink:href="#linearGradient3099" gradientUnits="userSpaceOnUse" y1="974.75" gradientTransform="matrix(.75080 0 0 .85918 -34.666 100.75)" x2="70.706" y2="991.94"/>
    <radialGradient id="radialGradient7745" gradientUnits="userSpaceOnUse" cy="1002" cx="70.872" gradientTransform="matrix(-1 .68622 -.71767 -1.0458 864.2 1999.1)" r="4.3594">
      <stop id="stop3498" stop-color="#3d54a1" offset="0"/>
      <stop id="stop3500" stop-color="#fff2d6" stop-opacity=".74619" offset="1"/>
    </radialGradient>
    <linearGradient id="linearGradient7747" y2="1002.9" gradientUnits="userSpaceOnUse" y1="989.93" x2="68.885" x1="52.827">
      <stop id="stop3508" stop-color="#fff" stop-opacity=".54822" offset="0"/>
      <stop id="stop3510" stop-color="#b2b2b2" stop-opacity="0" offset="1"/>
    </linearGradient>
    <linearGradient id="linearGradient7749" x1="66.038" xlink:href="#linearGradient3480" gradientUnits="userSpaceOnUse" x2="74.284" y1="984.35" y2="996.32"/>
    <linearGradient id="linearGradient7751" x1="23.78" xlink:href="#linearGradient3480" gradientUnits="userSpaceOnUse" x2="16.365" y1="956.36" y2="951.64"/>
    <linearGradient id="linearGradient7753" x1="102.08" xlink:href="#linearGradient3816" gradientUnits="userSpaceOnUse" x2="146.48" y1="886.76" y2="910.62"/>
    <linearGradient id="linearGradient7755" x1="162.16" xlink:href="#linearGradient3816" gradientUnits="userSpaceOnUse" y1="752.95" gradientTransform="translate(-15.226 223.93)" x2="229.99" y2="752.95"/>
  </defs>
  <g id="layer2" transform="translate(-144.21 -560.61)">
    <g id="g7411" transform="matrix(-1.9236 0 0 1.9236 635.24 -1064.7)">
      <g id="g7413">
        <g id="g7415">
          <g id="g7417">
            <path id="path7419" style="color:#000000" d="m90.281 892.32a7.8654 9.5753 0 1 1 -15.73 0 7.8654 9.5753 0 1 1 15.73 0z" fill-rule="evenodd" transform="matrix(.86956 0 .33333 1 -289.54 -3.6477)" fill="url(#radialGradient7699)"/>
            <g id="g7421">
              <g id="g7423" fill-rule="evenodd">
                <path id="path7425" fill="#000052" d="m172.61 864.96l13.73-5.63s38.05 13.38 40.16 14.79 14.8 22.54 14.8 22.54l-27.13 16.21-16.55-21.84-25.01-26.07z"/>
                <path id="path7427" fill="url(#linearGradient7701)" d="m224.39 884.86s-6.34 6.7-6.87 9.52c-0.53 2.81-2.64 15.85-2.64 15.85l-1.76 20.25-43.86 1.59-12.68-29.95-23.43-12.15-4.05-17.61 39.1-13.21s26.6 8.1 37.34 14.97c10.75 6.87 19.02 10.92 18.85 10.74z"/>
              </g>
              <g id="g7429" fill-rule="evenodd">
                <path id="path7431" style="color:#000000" transform="matrix(.50587 -.094940 -.28268 .74449 456.14 201.92)" d="m154.16 1011.3a23.125 27.75 0 1 1 -46.24 0 23.125 27.75 0 1 1 46.24 0z"/>
                <g id="g7433">
                  <path id="path7435" fill="url(#linearGradient7703)" d="m248.2 922.38l-23.04 40.02-31.59-14.58 31.98-47 22.65 21.56z"/>
                  <path id="path7437" style="color:#000000" transform="matrix(.39987 -.075048 -.22345 .58809 410.13 356.88)" fill="#eff5ff" d="m154.16 1011.3a23.125 27.75 0 1 1 -46.24 0 23.125 27.75 0 1 1 46.24 0z"/>
                </g>
              </g>
              <g id="g7439" fill-rule="evenodd">
                <path id="path7441" fill="#0d2587" d="m94.381 869.2l-10.749 18.25 0.442 2.36 13.84-5.74 1.62-15.9s5.886-2.95 6.186-2.36c0.29 0.59 1.03 5.3 1.03 5.3l-5.89 0.88-1.032 13.4 45.642-13.69 13.55 29.3-17.52 31.8-69.942-26.2 4.565-14.88 17.963-24.59 0.295 2.07z"/>
                <path id="path7443" fill="url(#linearGradient7705)" d="m131.42 878.07s-7.26-0.88-11.15 5.14c-3.9 6.02-13.47 37.55-13.47 37.55l81.66 12.22s4.25-22.31 3.89-24.09c-0.35-1.77-2.12-6.9-6.55-10.09s-24.09-13.82-36.31-17.54-17.71-3.54-18.07-3.19z"/>
              </g>
              <g id="g7445">
                <path id="path7447" fill-rule="evenodd" fill="url(#linearGradient7707)" d="m138.11 983.23l-28.09 40.97-38.497-23.5 38.987-47.08 27.6 29.61z"/>
                <path id="path7449" style="color:#000000" fill-rule="evenodd" transform="matrix(.61663 0 -.34457 .79321 391.58 201.49)" d="m154.16 1011.3a23.125 27.75 0 1 1 -46.24 0 23.125 27.75 0 1 1 46.24 0z"/>
                <path id="path7451" style="color:#000000" d="m154.16 1011.3a23.125 27.75 0 1 1 -46.24 0 23.125 27.75 0 1 1 46.24 0z" fill-rule="evenodd" transform="matrix(.48743 0 -.27238 .62654 335.5 369.35)" fill="#eff5ff"/>
                <path id="path7453" style="color:#000000" d="m130.97 987.99c-10.94 3.09-18.23 15.31-18.03 26.41 1.32 4.7 4.88 4.9 10.11 1 8.2-6.5 13.76-17.75 12.06-25.22-0.75-2.23-2.88-2.4-4.14-2.19z" stroke="#656565" stroke-width=".9" fill="none"/>
              </g>
              <path id="path7455" fill-rule="evenodd" fill="#002059" d="m153.66 844.91c-4.5-0.02-7.54 0.24-8.44 0.47-2.87 0.71-21.91 6.29-30.34 8.81-8.44 2.51-18.661 7.19-18.661 7.19s-3.603 2.5-5.219 4.12-7.518 11.66-10.031 15.97-11.313 19.56-11.313 19.56l-26.25 14.5s-7.622 7.88-11.937 11.81c-4.316 3.94-8.125 8.88-8.125 8.88l-3.25 13.09-5.188 5.41-1.25 9.16s12.209 12.38 25.313 23.15 35.531 22.07 35.531 22.07l2.781 0.4 1.875 8.7s6.371 2.2 14-2.2c7.634-4.4 13.264-16.44 16.504-21.75 0 0 11.93-15.69 20.5-14.47 2.91 0.42 4.22-0.31 8.4 4.1 3.38 3.56 2.48 12.84 3.28 13.65 1.62 1.62 2.78 4.37 6.44 2.25 0 0 5.92-3.24 14.53-7.9 8.62-4.67 57.28-32.85 57.28-32.85s1.95-8.98 5.72-16.87c3.77-7.9 9.89-17.06 16.53-19.75 1.77-0.72 5.2-0.74 6.19 0.15l1.03-0.47c0.01-4.63-0.15-9.72-0.75-12.43-1.25-5.75-3.78-7.19-3.78-7.19l-0.19-2.35 1.82-1.78s-10.06-19.39-12.75-23.34c-2.7-3.95-12.22-14.16-36.63-22.78-16.78-5.93-33.73-7.29-43.62-7.31zm-60.16 22.59c3.517 0.06 11.06 1.35 26.22 7.78 24.45 10.38 28.71 14.09 33.62 17.84 2.09 1.64 1.68 6.83-2.12 15.1-7.32 15.91-10.81 17.92-12.63 18-1.81 0.07-9.98-1.95-36.62-15.53-26.646-13.59-24.97-15.18-24.97-17.44-0.302 0.15 1.21-4.97 3.625-8.59 2.415-3.63 10.094-16.79 10.094-16.78 0 0 0.671-0.41 2.781-0.38zm127.81 8.91c8.89 0.03 13.8 11.45 12.81 15.84-0.57 2.59-3.49 3.93-4.24 4.37-0.76 0.45-17.91 8.1-17.91 8.1s-2.4 1.22-3.41 0.97-1.22-1.13-1.22-1.38l-0.09-21.43s1.07-5.5 13.19-6.44c0.29-0.03 0.59-0.03 0.87-0.03zm-23.75 5.37c1.16-0.07 1.89 0.35 2.75 1.53 1.28 1.75 1.36 4.01 1.66 10.5s0.01 12.28-0.59 14.1c-0.61 1.81-3.91 3.39-5.35 4.37-1.43 0.98-10.88 5.19-25.91 11.91-15.02 6.72-14.84 1.09-14.84 1.09 0.05-2.68 0.69-6.26 1.31-8.03 0.62-1.75 4.57-13.04 7.29-18.03 1.43-2.64 3.54-5.13 4.74-5.81 3.48-1.97 23.24-10.13 26.26-11.03 1.13-0.34 1.99-0.56 2.68-0.6z"/>
              <path id="path7457" fill-rule="evenodd" fill="#052355" d="m129.77 979.39l-1.36 0.33c0.59-0.06 1.18-0.02 1.75 0.06 2.91 0.42 4.22-0.31 8.4 4.1 3.38 3.56 2.48 12.84 3.28 13.65 1.33 1.33 2.35 3.37 4.69 2.97 0.34-2.2 0.28-5.09-0.59-9.03-3.02-13.63-16.17-12.08-16.17-12.08z"/>
              <path id="path7459" fill-rule="evenodd" fill="#fff" d="m81.797 887.04c-1.647 3.43-4.016 7.54 0.078 9.71 15.89 9.75 31.265 16.25 47.505 24.06 6.97 3.48 10.66 3.32 12.88-0.72 4.87-7.93 7.5-13.86 9.85-22.44 0.18-3.23-5.99-6.2-9.89-9.03-14.94-8.1-36.78-18.56-49.637-18.74-3.074 5.18-5.847 9.82-10.786 17.16zm-4.806 6.21c0 2.26-1.661 3.85 24.989 17.43 26.64 13.59 34.79 15.63 36.6 15.55 1.82-0.07 5.33-2.09 12.65-18 3.8-8.27 4.2-13.46 2.11-15.1-4.91-3.75-9.17-7.47-33.63-17.85-24.254-10.29-28.981-7.39-28.981-7.39s-7.7 13.13-10.115 16.75c-2.415 3.63-3.925 8.76-3.623 8.61z"/>
              <path id="path7461" fill-rule="evenodd" fill="#fff" d="m197.56 881.78c-0.69 0.04-1.55 0.26-2.68 0.6-3.02 0.9-22.78 9.06-26.26 11.03-1.2 0.68-3.31 3.17-4.74 5.81-2.72 4.99-6.67 16.28-7.29 18.03-0.62 1.77-1.26 5.35-1.31 8.03 0 0-0.18 5.63 14.84-1.09 15.03-6.72 24.48-10.93 25.91-11.91 1.44-0.98 4.74-2.56 5.35-4.37 0.6-1.82 0.89-7.61 0.59-14.1s-0.38-8.75-1.66-10.5c-0.86-1.18-1.59-1.6-2.75-1.53zm0.1 1.97c0.38-0.03 0.68-0.02 0.9 0.06 1.54 1.6 1.95 16.29 1.25 23.03-3.36 3.47-10.23 6.33-13.84 7.97-3.57 1.69-6.5 3.09-10.78 4.97l0.65-27.34c3.73-1.87 6.19-2.91 9.88-4.44 3.15-1.38 9.27-4.03 11.94-4.25zm-23.72 9.66l-0.63 27.18c-3.26 1.42-7.1 3.04-12.87 5.38-3.62 0.87-3.51-2.48-2.69-4.85 3.39-8.96 5.28-16.73 10.78-24.84 2.14-1.17 3.87-2.08 5.41-2.87z"/>
              <path id="path7463" fill-rule="evenodd" fill="#fff" d="m207.35 904.31l-0.11-21.44s1.07-5.49 13.19-6.44c9.44-0.74 14.72 11.3 13.71 15.83-0.58 2.59-3.52 3.92-4.28 4.37-0.76 0.44-17.89 8.08-17.89 8.08s-2.41 1.24-3.42 0.99-1.2-1.14-1.2-1.39zm13.31-26.58c-2.82-0.1-7.44 1.4-9.78 2.98s-2.38 3.24-2.21 6.95c0.07 2.83 0.06 5.56 0.14 8.43 0.04 1.41-0.13 7.83 0.08 8.08 4.74-1.49 7.65-2.9 11.5-4.76 6.02-2.77 11.88-4.48 12.45-7.19 0.84-4.01-3.9-14.47-12.18-14.49z"/>
              <path id="path7465" opacity=".75" style="color:#000000" d="m112.07 975.95a3.4036 1.8909 0 1 1 -6.8 0 3.4036 1.8909 0 1 1 6.8 0z" fill-rule="evenodd" transform="matrix(.97386 -.31051 0 .98976 2.0402 42.561)" fill="#f69807"/>
              <path id="path7467" fill-rule="evenodd" fill-opacity=".45178" d="m218.78 868.78c-1.09 0-26.59 9.99-31.22 11.63-4.63 1.63-20.78 9.51-22.59 10.87-1.82 1.36-4.53 8.63-4.53 8.63 0 0.09 4.34-6.91 5.34-7.82 1-0.9 13.8-6.69 16.06-7.68 1.74-0.77 31.51-12.07 34.5-13.25 2.03-0.8 3.4-1.04 4.13-1.13l0.72-1.25h-2.41z"/>
              <path id="path7469" fill-rule="evenodd" fill="url(#linearGradient7709)" d="m88.254 968.12s16.416-0.88 23.946-3.33c7.52-2.44 13.97-4.4 21.99-7.52 8.01-3.13 12.31-5.28 12.31-5.28l-0.09 3.32s-2.64 0.49-6.16 2.25-11.44 7.04-18.67 9.29c-7.23 2.24-5.77 2.44-14.76 4.69-8.988 2.24-15.537 2.24-15.537 2.24l-3.029-5.66z"/>
              <path id="path7471" fill-rule="evenodd" fill="url(#linearGradient7711)" d="m125.61 972.84l1.24 1.69s-3.5 1.47-13.78 10.28-17.733 18.99-17.733 18.99l-2.146-11.42s15.929-12.99 22.139-16.49 10.39-3.16 10.28-3.05z"/>
              <g id="g7473" fill-rule="evenodd">
                <path id="path7475" fill="url(#linearGradient7713)" d="m148.22 950.81l0.16 1.9s25.62-11.04 41-18.61c15.37-7.57 23.49-13.4 29.41-15.14 5.91-1.73 17.11-4.18 20.65-6.23 3.55-2.05 4.73-5.91 3.95-6.54-0.79-0.63-4.5 1.1-9.7 3.23-5.21 2.13-23.26 11.67-27.28 13.56s-38.24 17.66-41.39 19.24c-3.16 1.58-12.85 5.99-13.8 6.54-0.95 0.56-2.76 1.97-3 2.05z"/>
                <path id="path7477" style="color:#000000" fill="url(#radialGradient7715)" d="m160.56 919.94c-0.07 0-0.14 0.02-0.22 0.03-2.56 1.63-3.72 5.44-2.68 9.34 0.18 0.93 0.61 1.72 0.78 2.1 1.49 3.02 4.17 4.94 6.84 4.81 2.64-1.64 3.85-5.57 2.72-9.56-1.14-4.03-4.3-6.77-7.44-6.72z"/>
                <path id="path7479" fill-opacity=".90863" fill="#fff" d="m193.39 923.14c0.65 1.11 7.02-0.54 9.75-1.81 3.42-2.23 3-2.7 3-2.7s-2.33-3.78-3.83-3c-1.51 0.77-1.51 2.07-1.51 2.07l0.62 0.93s-5.9 2.49-6.84 2.65c-0.93 0.15-1.82 0.78-1.19 1.86z"/>
                <path id="path7481" style="color:#000000" fill="#fff" d="m161.56 928.5c-1.02 0.18-2.09 0.39-3.9 0.81-1.23 0.65-2.81 1.45-3.91 1.85-1.76 0.62-3.78 0.62-3.78 0.62l-0.13 3.66s1.02-0.13 3.16-0.38c1.41-0.16 3.86-2.22 5.44-3.65 1.25-0.84 2.48-1.64 3.53-1.75l-0.41-1.16z"/>
              </g>
              <g id="g7483" fill-rule="evenodd">
                <path id="path7485" fill="url(#linearGradient7717)" d="m177.22 852.72c-16.27 0-37.96 8.64-43.88 9.62-5.91 0.99-36.465-0.25-36.465-0.25l-1 5.6c4.175 0.52 11.455 2.33 23.845 7.59 24.45 10.38 28.71 14.09 33.62 17.84 1.21 0.95 1.57 3.1 0.94 6.32 0.68-1.72 2.54-6.28 3.44-7.28 1.81-2.02 7.66-5.19 7.66-5.19s-2.45 1.99-5.16 5.44-12.35 31.3-10.38 26.62c1.98-4.68 12.35-26.87 12.35-26.87s2.26-2.7 21.69-12.32c21.86-10.82 36.71-12.59 36.71-12.59l-14.31-8.37s-12.79-6.16-29.06-6.16z"/>
                <path id="path7487" fill="url(#linearGradient7719)" d="m211.62 862c-4.53 0.81-17.37 3.65-34.81 12.28-19.42 9.61-21.69 12.31-21.69 12.31s-1.72 3.68-2.71 5.82c0.31 0.24 0.62 0.48 0.93 0.71 1.21 0.95 1.57 3.1 0.94 6.32 0.68-1.72 2.54-6.28 3.44-7.28 1.81-2.02 7.66-5.19 7.66-5.19s-2.45 1.99-5.16 5.44c-2.46 3.12-10.59 26.29-10.63 27.12 0.04-0.05 0.13-0.21 0.25-0.5 1.98-4.68 12.35-26.87 12.35-26.87s2.26-2.7 21.69-12.32c21.86-10.82 36.71-12.59 36.71-12.59l-8.97-5.25z"/>
              </g>
              <g id="g7489" transform="translate(140)" fill-rule="evenodd">
                <path id="path7491" fill="url(#linearGradient7721)" d="m-63.621 895.03l10.584 11.73-6.865-2.58 8.582 6.01-8.296-3.43 5.721 6.29 17.736 12.01 31.181 10.02 4.5773-8.59-41.193-17.45-22.027-14.01z"/>
                <path id="path7493" opacity=".88083" style="color:#000000" fill="url(#linearGradient7723)" d="m-69.226 899.79c-3.376 1.47-4.915 2.19-7.336 3.49 0.996 0.38 21.08 7.88 28.187 11.06 7.284 3.26 17.639 10.18 21.281 12.1 3.642 1.91 23.563 14.75 23.563 14.75l1.6248 1.81 0.5624 3.09 7.25-7.75-50.094-26.93-25.038-11.62zm-7.336 3.49c-2.816 1.26-5.495 2.57-7.969 3.97l0.062 0.03c2.473-1.4 5.102-2.73 7.907-4zm67.374 41.97c-2.3015 0.73-4.6035 1.48-7.3435 2.37 2.733-0.89 5.044-1.64 7.3435-2.37z"/>
                <path id="path7495" fill="#001a46" d="m-57.144 966.43s16.625 1.5 34.515-4.47c17.89-5.96 25.209-10.03 25.209-10.03l5.9632-1.89-2.304-12.07-7.5898 8.13-0.5422-3.11s-22.769 6.91-30.088 10.16c-7.319 3.26-25.163 13.28-25.163 13.28z"/>
                <path id="path7497" style="color:#000000" fill="#001e52" d="m-76.562 903.28c-17.205 7.77-28.458 18.16-30.158 29.47 2.03 5.91 5.94 9.68 17.001 18.16 9.507 7.28 22.564 12.03 32.563 15.5 3.72-2.07 18.755-10.39 25.187-13.25 7.319-3.26 30.063-10.16 30.063-10.16l-1.6252-1.81s-19.921-12.84-23.563-14.75c-3.642-1.92-13.997-8.84-21.281-12.1-7.107-3.18-27.191-10.68-28.187-11.06z"/>
                <path id="path7499" opacity=".75" style="color:#000000" d="m-1.9062 943.03l0.1562 0.75-0.0625-0.66-0.0937-0.09z" fill-opacity=".71066" fill="#fff"/>
                <path id="path7501" fill="url(#linearGradient7725)" d="m-108.05 933.57s4.74 9.63 16.361 17.43c11.619 7.8 16.358 10.09 20.944 12.38 4.587 2.3 16.817 4.9 16.817 4.9l-0.305 4.12s-3.822-1.52-6.421-1.52-5.351 0.15-8.103-0.16c-2.752-0.3-22.168-14.67-25.684-17.88s-9.629-9.02-10.859-10.71c-1.22-1.68-2.75-8.86-2.75-8.56z"/>
                <path id="path7503" opacity=".75" style="color:#000000" fill="url(#linearGradient7727)" d="m-49.219 913.75c-3.895 2.2-13.238 7.45-17.719 9.81-5.486 2.89-17.917 12.73-21.093 17.35-1.572 2.28-2.934 5.74-3.907 8.68 0.63 0.49 1.194 0.95 1.876 1.47 9.597 7.36 22.781 12.15 32.874 15.66 3.757-2.09 18.944-10.49 25.438-13.38 7.389-3.28 30.344-10.28 30.344-10.28l-1.6252-1.81s-20.136-12.97-23.813-14.91c-3.676-1.93-14.116-8.89-21.468-12.18-0.252-0.12-0.624-0.29-0.907-0.41z"/>
                <path id="path7505" opacity=".75" style="color:#000000" fill="url(#linearGradient7729)" d="m-71.094 905.12c3.14 1.2 7.191 2.75 11.125 4.29-4.823-1.89-7.83-3.04-11.125-4.29zm11.125 4.29c-1.025 0.27-6.345-0.32-6.994-0.24-2.31 0.29 0.943 4.04-7.352 8.35-6.338 3.29-12.87-0.05-22.373 7.48-6.572 5.21-4.242 9.35-6.222 14.94 2.4 2.71 5.823 5.66 10.972 9.65 0.973-2.94 2.335-6.4 3.907-8.68 3.176-4.62 15.607-14.46 21.093-17.35 4.481-2.36 13.824-7.61 17.719-9.81-2.664-1.16-6.652-2.74-10.75-4.34zm-47.251 23.31c0.21 0.59 0.44 1.16 0.69 1.72-0.25-0.57-0.48-1.13-0.69-1.72z"/>
                <path id="path7507" opacity=".75" style="color:#000000" fill="#262e9f" d="m-49.219 913.75c-3.895 2.2-13.238 7.45-17.719 9.81-5.486 2.89-17.917 12.73-21.093 17.35-1.572 2.28-2.934 5.74-3.907 8.68 0.506 0.4 0.984 0.79 1.5 1.19 0.985-2.76 2.228-5.71 3.657-7.78 3.382-4.89 16.595-15.32 22.437-18.38 4.453-2.32 13.11-7.13 17.656-9.68-0.547-0.27-1.104-0.55-1.624-0.78-0.252-0.12-0.624-0.29-0.907-0.41z"/>
                <path id="path7509" opacity=".75" style="color:#000000" d="m-47.219 914.69c-4.397 2.32-12.389 6.54-16.562 8.59-5.565 2.74-18.259 12.22-21.563 16.75-1.18 1.62-2.246 3.85-3.156 6.06 0.541-1.13 1.103-2.2 1.719-3.09 3.382-4.89 16.595-15.32 22.437-18.38 4.453-2.32 13.11-7.13 17.656-9.68-0.178-0.09-0.352-0.16-0.531-0.25z" fill-opacity=".76142" fill="#000250"/>
                <path id="path7511" opacity=".75" style="color:#000000" d="m-49.219 913.75c-3.895 2.2-13.238 7.45-17.719 9.81-5.486 2.89-17.917 12.73-21.093 17.35-0.68 0.99-1.32 2.21-1.907 3.5 0.498-0.98 1.04-1.91 1.594-2.69 3.436-4.85 16.75-15.13 22.625-18.13 4.423-2.25 12.914-6.85 17.531-9.37-0.04-0.02-0.084-0.05-0.124-0.06-0.252-0.12-0.624-0.29-0.907-0.41z" fill-opacity=".83249" fill="#1c1c1c"/>
                <path id="path7513" opacity=".5" fill="url(#linearGradient7731)" d="m-36.949 955.53s8.202-5.29 11.906-6.88 11.377-1.72 11.377-1.72-16.404 7.94-17.991 7.94c-1.588 0-5.027 0.79-5.292 0.66z"/>
              </g>
              <g id="g7515" fill-rule="evenodd">
                <path id="path7517" fill="#edf4ff" d="m12.831 963.04l2.467 10.12s10.857 11.1 21.468 18.75c10.61 7.65 25.168 20.69 37.259 23.89 12.09 3.3 10.116 1.5 10.116 1.5l0.494-7.1s-5.675 0-9.623-1-26.896-15.71-36.272-23.11c-9.377-7.4-26.403-23.05-25.909-23.05z"/>
                <path id="path7519" fill="#b2b2b2" d="m12.831 964.04l2.467 10.12s10.857 11.1 21.468 18.75c10.61 7.69 25.168 20.69 37.259 23.89 12.09 3.3 10.116 1.5 10.116 1.5l0.494-7.1s-5.675 0-9.623-1-26.896-15.71-36.272-23.11c-9.377-7.4-26.403-23.05-25.909-23.05z"/>
              </g>
              <path id="path7521" fill-rule="evenodd" fill="url(#linearGradient7733)" d="m31.62 946.55l-4.726 5.33 2.303 0.61s3.514-1.46 4.362-4.36c0.848-2.91-2.424-11.27-1.454-12.97 0.969-1.7 1.939 3.76 1.939 3.76s1.696-5.21 4.241-9.58c2.545-4.36 8.846-13.08 8.846-13.08s-9.573 11.51-11.633 12.36-3.03-1.82-3.03-1.82l-8.724 8.48s4.12 0.61 5.574 3.15c1.454 2.55 2.181 8 2.302 8.12z"/>
              <g id="g7523" fill-rule="evenodd">
                <path id="path7525" style="color:#000000" transform="matrix(.87434 -.27988 .26571 .92094 -253.32 79.659)" fill="url(#radialGradient7735)" d="m19.152 960.15a3.2026 4.3125 0 1 1 -6.405 0 3.2026 4.3125 0 1 1 6.405 0z"/>
                <g id="g7527">
                  <path id="path7529" style="color:#000000" fill="url(#linearGradient7737)" d="m77.719 972.75c-1.828 0.05-3.991 0.62-4.969 1.97 0.04 0.01 0.085 0.02 0.125 0.03 0.489 0.07 0.976 0.19 1.437 0.34 0.031 0.01 0.064 0.02 0.094 0.03 0.198 0.07 0.371 0.14 0.563 0.22 0.074 0.03 0.145 0.07 0.219 0.1 0.252 0.11 0.508 0.24 0.75 0.37 0.245 0.14 0.486 0.31 0.718 0.47 0.236 0.16 0.467 0.32 0.688 0.5 0.029 0.03 0.065 0.04 0.094 0.06 0.186 0.16 0.356 0.33 0.531 0.5 0.172 0.17 0.341 0.35 0.5 0.54 0.024 0.02 0.038 0.06 0.062 0.09 0.188 0.22 0.363 0.45 0.531 0.69 0.165 0.23 0.324 0.47 0.469 0.72 0.148 0.25 0.281 0.51 0.407 0.78 0.03 0.06 0.064 0.12 0.093 0.18 0.091 0.21 0.172 0.42 0.25 0.63 0.098 0.27 0.175 0.53 0.25 0.81 0.003 0.01-0.002 0.02 0 0.03 0.064 0.24 0.141 0.48 0.188 0.72 0.002 0.01-0.002 0.02 0 0.03-0.001 0.01-0.002 0.02 0 0.03 0.118 0.63 0.187 1.28 0.187 1.94 0 0.34-0.029 0.69-0.062 1.03-0.002 0.02 0.002 0.04 0 0.06-0.01 0.1-0.02 0.19-0.032 0.29-0.034 0.26-0.071 0.52-0.124 0.78-0.406 2.03-1.373 3.97-2.876 5.25 4.918-0.27 8.813-4.44 8.844-9.85 0.032-5.45-3.213-9.04-8.187-9.34-0.244-0.01-0.489-0.01-0.75 0z"/>
                  <path id="path7531" style="color:#000000" fill="url(#linearGradient7739)" d="m72.719 974.75c-1.588 2.26-1.843 3.11-2 6.47-0.238 5.08 2.849 9.77 7.091 10.72 2.035-1.72 3.096-4.68 3.096-7.41 0-5.04-3.584-9.18-8.187-9.78z"/>
                  <path id="path7533" opacity=".7" fill="url(#linearGradient7741)" d="m31.754 952.6l3.338-2.36s0.782 0.09 13.538 8.74 20.024 14.35 20.024 14.35l-3.916 4.54s-19.226-13.5-20.956-15.34-12.262-9.98-12.028-9.93z"/>
                  <path id="path7535" fill-opacity=".90863" fill="#c0c0c0" d="m27.625 956.88l-0.574 1.09 1.081 1.39 7.43 6.48c0.282 1.41 1.004 3.01 2.157 4.5 2.454 3.18 5.86 4.69 7.593 3.38 0.217-0.17 0.387-0.36 0.532-0.6l0.125 0.1 9.437 5.47 2-0.41-11.281-8.34c-0.301-1.38-1.008-2.93-2.125-4.38-2.455-3.18-5.861-4.69-7.594-3.37-0.318 0.24-0.554 0.55-0.718 0.93l-0.688-0.43-7.375-5.81z"/>
                  <path id="path7537" style="color:#000000" fill="url(#linearGradient7743)" d="m19.932 938.23c-1.193 1.94-1.384 2.68-1.502 5.56-0.179 4.36 2.139 8.4 5.324 9.21 1.528-1.48 2.325-4.02 2.325-6.36 0-4.34-2.691-7.89-6.147-8.41z"/>
                  <path id="path7539" opacity=".65876" style="color:#000000" fill="#fff" d="m23.686 936.52c-1.373 0.04-2.997 0.53-3.731 1.69 0.03 0.01 0.064 0.01 0.094 0.02 0.367 0.07 0.732 0.17 1.079 0.3 0.023 0.01 0.048 0.02 0.071 0.03 0.148 0.05 0.278 0.12 0.422 0.18 0.055 0.03 0.109 0.06 0.164 0.08 0.19 0.1 0.382 0.21 0.563 0.33 0.184 0.12 0.366 0.26 0.54 0.4 0.177 0.14 0.35 0.27 0.516 0.43 0.022 0.02 0.049 0.03 0.07 0.05 0.141 0.14 0.268 0.28 0.399 0.43 0.129 0.15 0.256 0.3 0.376 0.46 0.018 0.02 0.028 0.05 0.047 0.08 0.141 0.19 0.272 0.38 0.398 0.59 0.124 0.2 0.244 0.4 0.352 0.62 0.111 0.22 0.211 0.44 0.305 0.67 0.023 0.06 0.049 0.1 0.071 0.16 0.068 0.18 0.129 0.36 0.188 0.54 0.073 0.23 0.13 0.46 0.187 0.7 0.002 0-0.002 0.01 0 0.02 0.048 0.21 0.106 0.41 0.141 0.62 0.001 0.01-0.001 0.02 0 0.03-0.001 0.01-0.002 0.01 0 0.02 0.089 0.54 0.141 1.1 0.141 1.67 0 0.29-0.022 0.59-0.047 0.88-0.002 0.02 0.001 0.04 0 0.06-0.007 0.08-0.015 0.16-0.024 0.24-0.025 0.22-0.053 0.45-0.093 0.67-0.305 1.74-1.031 3.42-2.159 4.51 3.692-0.22 6.616-3.81 6.64-8.46 0.023-4.68-2.412-7.77-6.147-8.02-0.183-0.02-0.367-0.01-0.563 0z"/>
                </g>
                <g id="g7541">
                  <path id="path7543" style="color:#000000" fill="url(#radialGradient7745)" d="m72.312 996.06c-2.55-0.35-3.968 2.84-3.968 5.34 0 3.2 2.534 5.7 5.656 5.7 1.001 0 1.934-0.2 2.75-0.7 0.194-0.7 0.312-1.5 0.312-2.3 0-3.6-2.199-7.68-4.75-8.04z"/>
                  <rect id="rect7545" opacity=".75" style="color:#000000" transform="matrix(.79185 .61071 0 1 0 0)" height="5.3719" width="25.316" y="947.55" x="38.387" fill="#fff"/>
                  <path id="path7547" fill="url(#linearGradient7747)" d="m53.19 989.93s-1.939 1.94 3.15 4.97c5.09 3.03 13.693 10.5 13.693 10.5l-2.544-4.2s-7.635-6.78-9.937-8.12c-2.302-1.33-3.999-3.27-4.362-3.15z"/>
                  <path id="path7549" fill="url(#linearGradient7749)" d="m78.879 995.26c-0.727 0.25-7.27 3.28-11.148-2.18-3.878-5.45 0.121-11.51 0.121-11.51s0.97 7.39 4.241 9.94c3.272 2.54 6.908 3.75 6.786 3.75z"/>
                </g>
                <path id="path7551" fill="url(#linearGradient7751)" d="m19.927 950.16l-5.137 3.71s2.141 1.99 3.996 2.42 4.994-1.42 4.994-1.42-1.997-0.43-2.568-1.86-1.285-2.85-1.285-2.85z"/>
              </g>
              <path id="path7553" fill-rule="evenodd" fill="url(#linearGradient7753)" d="m114.22 875.34c-4.78 3.95-10.45 8.99-12.81 12.54-2.953 4.42-6.396 9.58-9.691 14.53 12.471 6.81 24.791 12.21 37.661 18.4 6.97 3.49 10.65 3.32 12.87-0.72 4.87-7.93 7.52-13.86 9.87-22.43 0.18-3.23-6-6.21-9.9-9.04-8.14-4.41-18.33-9.51-28-13.28z"/>
              <g id="g7555" fill-rule="evenodd">
                <path id="path7557" fill="#052355" d="m241.36 920.32l-1.12 0.5c0.48-0.14 0.97-0.2 1.44-0.22 2.39-0.08 3.46-0.92 6.89 2.28 2.77 2.58 2.03 10.82 2.69 11.4 1.09 0.95 1.93 2.59 3.85 1.83 0.27-1.93 0.23-4.45-0.49-7.75-2.47-11.41-13.26-8.04-13.26-8.04z"/>
                <path id="path7559" style="color:#000000" d="m244.58 942.07a8.3993 16.699 0 1 1 -16.8 0 8.3993 16.699 0 1 1 16.8 0z" fill-opacity=".66497" transform="matrix(.77610 0 -.36979 .85382 401.75 137.21)" stroke="#656565" stroke-width=".9" fill="#fff"/>
              </g>
            </g>
          </g>
          <path id="path7561" fill-rule="evenodd" fill="url(#linearGradient7755)" d="m147.43 989.36l0.8 5.64s39.19-21.74 45.63-24.7c6.45-2.95 20.4-11.54 20.4-11.54l-12.61 1.08s-33.82 20.39-41.61 22.81c-7.78 2.42-12.07 6.44-12.61 6.71z"/>
        </g>
        <g id="g7563" fill="#003185" transform="matrix(1.0217 -.085612 .085612 1.0217 -74.591 220.07)" fill-rule="evenodd">
          <path id="path7565" d="m137.16 700.06l-1.88 1.7-12.59-18.42-5.26-4.32 21.05 10.33-3.39-0.56-10.14-4.13 12.21 15.4z"/>
          <path id="path7567" d="m109.19 684l-1.39 0.96-6.02-14.55-2.891-3.7 12.331 9.88-2.1-0.81-6.04-4.17 6.11 12.39z"/>
        </g>
        <g id="g7569" transform="translate(-10.953 222.64)" fill="#001945" fill-rule="evenodd">
          <path id="path7571" d="m132.56 705.66l4.16-0.76-18.13-10.01 13.97 10.77z"/>
          <path id="path7573" d="m126.14 703.96l-7.55-8.69h-2.64l10.19 8.69z"/>
          <path id="path7575" d="m109.15 687.72l-3.78 0.38-14.729-6.99 16.809 9.06 1.7-2.45z"/>
        </g>
      </g>
      <path id="path7577" stroke="#000268" stroke-width="1px" fill="none" d="m136.95 847.97s26.07 4.12 41.16 10.98 19.44 10.27 19.44 10.27"/>
      <path id="path7579" stroke="#8587ff" stroke-width="1px" fill="none" d="m136.36 848.59s26.07 4.11 41.16 10.97 19.44 10.27 19.44 10.27"/>
      <path id="path7581" stroke="#000021" stroke-width="1px" fill="none" d="m203.2 876.38s3.04 38.07 3.09 40.99c0.11 6.12-0.57 24.27-1.28 27.8s-2.36 13.43-2.36 13.43"/>
    </g>
  </g>
  <metadata>
    <rdf:RDF>
      <cc:Work>
        <dc:format>image/svg+xml</dc:format>
        <dc:type rdf:resource="http://purl.org/dc/dcmitype/StillImage"/>
        <cc:license rdf:resource="http://creativecommons.org/licenses/publicdomain/"/>
        <dc:publisher>
          <cc:Agent rdf:about="http://openclipart.org/">
            <dc:title>Openclipart</dc:title>
          </cc:Agent>
        </dc:publisher>
        <dc:title>500</dc:title>
        <dc:date>2007-02-22T04:32:38</dc:date>
        <dc:description>a small car</dc:description>
        <dc:source>http://openclipart.org/detail/3292/500-by-ufo_web_factory</dc:source>
        <dc:creator>
          <cc:Agent>
            <dc:title>ufo_web_factory</dc:title>
          </cc:Agent>
        </dc:creator>
        <dc:subject>
          <rdf:Bag>
            <rdf:li>car</rdf:li>
            <rdf:li>clip art</rdf:li>
            <rdf:li>clipart</rdf:li>
            <rdf:li>image</rdf:li>
            <rdf:li>media</rdf:li>
            <rdf:li>png</rdf:li>
            <rdf:li>public domain</rdf:li>
            <rdf:li>small</rdf:li>
            <rdf:li>svg</rdf:li>
          </rdf:Bag>
        </dc:subject>
      </cc:Work>
      <cc:License rdf:about="http://creativecommons.org/licenses/publicdomain/">
        <cc:permits rdf:resource="http://creativecommons.org/ns#Reproduction"/>
        <cc:permits rdf:resource="http://creativecommons.org/ns#Distribution"/>
        <cc:permits rdf:resource="http://creativecommons.org/ns#DerivativeWorks"/>
      </cc:License>
    </rdf:RDF>
  </metadata>
</svg>
