<?xml version="1.0" encoding="UTF-8" standalone="no"?>
<svg
   xmlns:dc="http://purl.org/dc/elements/1.1/"
   xmlns:cc="http://creativecommons.org/ns#"
   xmlns:rdf="http://www.w3.org/1999/02/22-rdf-syntax-ns#"
   xmlns:svg="http://www.w3.org/2000/svg"
   xmlns="http://www.w3.org/2000/svg"
   xmlns:sodipodi="http://sodipodi.sourceforge.net/DTD/sodipodi-0.dtd"
   xmlns:inkscape="http://www.inkscape.org/namespaces/inkscape"
   viewBox="0 0 472.44094 332.59843"
   version="1.1"
   id="svg361"
   sodipodi:docname="cards.svg"
   width="125mm"
   height="88mm"
   inkscape:version="1.0.2-2 (e86c870879, 2021-01-15)">
  <metadata
     id="metadata365">
    <rdf:RDF>
      <cc:Work
         rdf:about="">
        <dc:format>image/svg+xml</dc:format>
        <dc:type
           rdf:resource="http://purl.org/dc/dcmitype/StillImage" />
        <dc:title></dc:title>
      </cc:Work>
    </rdf:RDF>
  </metadata>
  <sodipodi:namedview
     pagecolor="#ffffff"
     bordercolor="#666666"
     borderopacity="1"
     objecttolerance="10"
     gridtolerance="10"
     guidetolerance="10"
     inkscape:pageopacity="0"
     inkscape:pageshadow="2"
     inkscape:window-width="1920"
     inkscape:window-height="1017"
     id="namedview363"
     showgrid="false"
     units="mm"
     inkscape:zoom="0.52626263"
     inkscape:cx="986.66915"
     inkscape:cy="544.03391"
     inkscape:window-x="-8"
     inkscape:window-y="-8"
     inkscape:window-maximized="1"
     inkscape:current-layer="svg361" />
  <defs
     id="defs5">
    <filter
       id="a">
      <feGaussianBlur
         stdDeviation="7.199"
         id="feGaussianBlur2" />
    </filter>
  </defs>
  <path
     transform="matrix(0.27831202,-0.06877631,0.06877631,0.27831202,210.96627,-47.901195)"
     d="m -407.45,254.6 h 340 a 30,30 0 0 1 30,30 v 498.57 a 30,30 0 0 1 -30,30 h -340 a 30,30 0 0 1 -30,-30 V 284.6 a 30,30 0 0 1 30,-30"
     fill="#808080"
     filter="url(#a)"
     opacity="0.7"
     stroke="#808080"
     id="path69" />
  <g
     transform="matrix(0.28668426,0,0,0.28668426,91.647104,-3.2275751)"
     id="g105">
    <path
       transform="matrix(0.97185,-0.23561,0.23561,0.97185,0,0)"
       d="m 63.479,181.49 h 340 a 30,30 0 0 1 30,30 v 498.57 a 30,30 0 0 1 -30,30 h -340 a 30,30 0 0 1 -30,-30 V 211.49 a 30,30 0 0 1 30,-30"
       fill="#ffffff"
       stroke="#000000"
       id="path71" />
    <path
       d="m 291.37,238.57 c 0,0 -25.583,33.14 -26.453,52.286 -0.3735,8.2173 3.0306,16.937 9.2985,22.778 5.8702,5.4706 14.729,5.8067 20.34,1.0258 4.2448,-3.617 7.9859,-13.871 7.9859,-13.871 0,0 3.7586,11.518 3.2895,17.274 -0.3172,3.8924 -4.0399,10.593 -4.0399,10.593 l 11.125,-2.697 11.125,-2.697 c 0,0 -7.2699,-3.9342 -9.5652,-7.4641 -3.1092,-4.7816 -4.5423,-16.801 -4.5423,-16.801 0,0 6.5631,5.951 11.807,8.236 5.7982,2.5264 16.333,-2.6033 19.582,-8.9102 3.8845,-7.5407 1.3526,-17.338 -2.7782,-24.462 -9.6748,-16.686 -47.174,-35.291 -47.174,-35.291 z"
       stroke="#000000"
       stroke-width="0.9412"
       id="path73" />
    <path
       d="m 191.65,209.24 c 0,0 -25.583,33.14 -26.453,52.286 -0.3735,8.2173 3.0306,16.937 9.2985,22.778 5.8703,5.4706 14.729,5.8067 20.34,1.0258 4.2448,-3.617 7.9859,-13.871 7.9859,-13.871 0,0 3.7586,11.518 3.2895,17.274 -0.3172,3.8924 -4.0399,10.593 -4.0399,10.593 l 11.125,-2.697 11.125,-2.697 c 0,0 -7.2699,-3.9342 -9.5652,-7.4641 -3.1092,-4.7816 -4.5423,-16.801 -4.5423,-16.801 0,0 6.5631,5.951 11.807,8.236 5.7982,2.5264 16.333,-2.6033 19.582,-8.9102 3.8845,-7.5407 1.3526,-17.338 -2.7782,-24.462 -9.6748,-16.686 -47.174,-35.291 -47.174,-35.291 z"
       stroke="#000000"
       stroke-width="0.9412"
       id="path75" />
    <path
       d="m 368.53,166.36 c 0,0 -25.583,33.14 -26.453,52.286 -0.3735,8.2173 3.0306,16.937 9.2985,22.778 5.8702,5.4706 14.729,5.8067 20.34,1.0258 4.2448,-3.617 7.9859,-13.871 7.9859,-13.871 0,0 3.7586,11.518 3.2895,17.274 -0.3172,3.8924 -4.0399,10.593 -4.0399,10.593 l 11.125,-2.697 11.125,-2.697 c 0,0 -7.2699,-3.9342 -9.5652,-7.4641 -3.1092,-4.7815 -4.5423,-16.801 -4.5423,-16.801 0,0 6.5631,5.951 11.807,8.236 5.7982,2.5264 16.333,-2.6033 19.582,-8.9102 3.8845,-7.5407 1.3526,-17.338 -2.7782,-24.462 -9.6748,-16.686 -47.174,-35.291 -47.174,-35.291 z"
       stroke="#000000"
       stroke-width="0.9412"
       id="path77" />
    <path
       d="m 217.1,314.2 c 0,0 -25.583,33.14 -26.453,52.286 -0.3735,8.2173 3.0306,16.937 9.2985,22.778 5.8702,5.4706 14.729,5.8067 20.34,1.0258 4.2448,-3.617 7.9859,-13.871 7.9859,-13.871 0,0 3.7586,11.518 3.2895,17.274 -0.3172,3.8924 -4.0399,10.593 -4.0399,10.593 l 11.125,-2.697 11.125,-2.697 c 0,0 -7.2699,-3.9342 -9.5652,-7.4641 -3.1092,-4.7816 -4.5423,-16.801 -4.5423,-16.801 0,0 6.5631,5.951 11.807,8.236 5.7982,2.5264 16.333,-2.6033 19.582,-8.9102 3.8845,-7.5407 1.3526,-17.338 -2.7782,-24.462 -9.6748,-16.686 -47.174,-35.291 -47.174,-35.291 z"
       stroke="#000000"
       stroke-width="0.9412"
       id="path79" />
    <path
       d="m 393.97,271.32 c 0,0 -25.583,33.14 -26.453,52.286 -0.3735,8.2173 3.0306,16.937 9.2985,22.778 5.8703,5.4706 14.729,5.8067 20.34,1.0258 4.2448,-3.617 7.9859,-13.871 7.9859,-13.871 0,0 3.7586,11.518 3.2895,17.274 -0.3172,3.8924 -4.0399,10.593 -4.0399,10.593 l 11.125,-2.697 11.125,-2.697 c 0,0 -7.2699,-3.9342 -9.5652,-7.4641 -3.1092,-4.7815 -4.5423,-16.801 -4.5423,-16.801 0,0 6.5631,5.951 11.807,8.236 5.7982,2.5264 16.333,-2.6033 19.582,-8.9102 3.8845,-7.5407 1.3526,-17.338 -2.7782,-24.462 -9.6748,-16.686 -47.174,-35.291 -47.174,-35.291 z"
       stroke="#000000"
       stroke-width="0.9412"
       id="path81" />
    <path
       d="m 139.14,264.41 c 0,0 -8.96,11.607 -9.2647,18.312 -0.1308,2.8779 1.0614,5.9318 3.2566,7.9775 2.0559,1.9159 5.1586,2.0337 7.1236,0.3593 1.4867,-1.2668 2.7969,-4.8579 2.7969,-4.8579 0,0 1.3163,4.034 1.1521,6.0499 -0.1111,1.3632 -1.4149,3.7099 -1.4149,3.7099 l 3.8962,-0.9446 3.8962,-0.9446 c 0,0 -2.5461,-1.3779 -3.35,-2.6141 -1.0889,-1.6746 -1.5909,-5.8841 -1.5909,-5.8841 0,0 2.2986,2.0842 4.1353,2.8845 2.0307,0.8848 5.7203,-0.9117 6.8582,-3.1206 1.3605,-2.641 0.4737,-6.0722 -0.973,-8.5673 -3.3884,-5.844 -16.522,-12.36 -16.522,-12.36 z"
       stroke="#000000"
       stroke-width="0.3296"
       id="path83" />
    <text
       transform="matrix(0.71453,-0.17322,0.32046,1.3218,0,0)"
       x="57.194199"
       y="198.2041"
       font-family="Sans"
       font-size="54.405px"
       letter-spacing="0"
       word-spacing="0"
       id="text87"><tspan
         x="57.194199"
         y="198.2041"
         id="tspan85">10</tspan></text>
    <path
       d="m 366.02,542.16 c 0,0 25.583,-33.14 26.453,-52.286 0.3735,-8.2173 -3.0306,-16.937 -9.2985,-22.778 -5.8702,-5.4706 -14.729,-5.8067 -20.34,-1.0258 -4.2448,3.617 -7.9859,13.871 -7.9859,13.871 0,0 -3.7586,-11.518 -3.2895,-17.274 0.3172,-3.8924 4.0399,-10.593 4.0399,-10.593 l -11.125,2.697 -11.125,2.697 c 0,0 7.2699,3.9342 9.5652,7.4641 3.1092,4.7816 4.5423,16.801 4.5423,16.801 0,0 -6.5631,-5.951 -11.807,-8.236 -5.7982,-2.5264 -16.333,2.6033 -19.582,8.9102 -3.8845,7.5407 -1.3526,17.338 2.7782,24.462 9.6748,16.686 47.174,35.291 47.174,35.291 z"
       stroke="#000000"
       stroke-width="0.9412"
       id="path89" />
    <path
       d="m 465.74,571.5 c 0,0 25.583,-33.14 26.453,-52.286 0.3735,-8.2173 -3.0306,-16.937 -9.2985,-22.778 -5.8702,-5.4706 -14.729,-5.8067 -20.34,-1.0258 -4.2448,3.617 -7.9859,13.871 -7.9859,13.871 0,0 -3.7586,-11.518 -3.2895,-17.274 0.3172,-3.8924 4.0399,-10.593 4.0399,-10.593 l -11.125,2.697 -11.125,2.697 c 0,0 7.2699,3.9342 9.5652,7.4641 3.1092,4.7816 4.5423,16.801 4.5423,16.801 0,0 -6.5631,-5.951 -11.807,-8.236 -5.7982,-2.5264 -16.333,2.6033 -19.582,8.9102 -3.8845,7.5407 -1.3526,17.338 2.7782,24.462 9.6748,16.686 47.174,35.291 47.174,35.291 z"
       stroke="#000000"
       stroke-width="0.9412"
       id="path91" />
    <path
       d="m 288.86,614.38 c 0,0 25.583,-33.14 26.453,-52.286 0.3735,-8.2173 -3.0306,-16.937 -9.2985,-22.778 -5.8702,-5.4706 -14.729,-5.8067 -20.34,-1.0258 -4.2448,3.617 -7.9859,13.871 -7.9859,13.871 0,0 -3.7586,-11.518 -3.2895,-17.274 0.3172,-3.8924 4.0399,-10.593 4.0399,-10.593 l -11.125,2.697 -11.125,2.697 c 0,0 7.2699,3.9342 9.5652,7.4641 3.1092,4.7816 4.5423,16.801 4.5423,16.801 0,0 -6.5631,-5.951 -11.807,-8.236 -5.7982,-2.5264 -16.333,2.6033 -19.582,8.9102 -3.8845,7.5407 -1.3526,17.338 2.7782,24.462 9.6748,16.686 47.174,35.291 47.174,35.291 z"
       stroke="#000000"
       stroke-width="0.9412"
       id="path93" />
    <path
       d="m 440.29,466.54 c 0,0 25.583,-33.14 26.453,-52.286 0.3735,-8.2173 -3.0306,-16.937 -9.2985,-22.778 -5.8703,-5.4706 -14.729,-5.8067 -20.34,-1.0258 -4.2448,3.617 -7.9859,13.871 -7.9859,13.871 0,0 -3.7586,-11.518 -3.2895,-17.274 0.3172,-3.8924 4.0399,-10.593 4.0399,-10.593 l -11.125,2.697 -11.125,2.697 c 0,0 7.2699,3.9342 9.5652,7.4641 3.1092,4.7816 4.5423,16.801 4.5423,16.801 0,0 -6.5631,-5.951 -11.807,-8.236 -5.7982,-2.5264 -16.333,2.6033 -19.582,8.9102 -3.8845,7.5407 -1.3526,17.338 2.7782,24.462 9.6748,16.686 47.174,35.291 47.174,35.291 z"
       stroke="#000000"
       stroke-width="0.9412"
       id="path95" />
    <path
       d="m 263.41,509.42 c 0,0 25.583,-33.14 26.453,-52.286 0.3735,-8.2173 -3.0306,-16.937 -9.2985,-22.778 -5.8702,-5.4706 -14.729,-5.8067 -20.34,-1.0258 -4.2448,3.617 -7.9859,13.871 -7.9859,13.871 0,0 -3.7586,-11.518 -3.2895,-17.274 0.3172,-3.8924 4.0399,-10.593 4.0399,-10.593 l -11.125,2.697 -11.125,2.697 c 0,0 7.2699,3.9342 9.5652,7.4641 3.1092,4.7816 4.5423,16.801 4.5423,16.801 0,0 -6.5631,-5.951 -11.807,-8.236 -5.7982,-2.5264 -16.333,2.6033 -19.582,8.9102 -3.8845,7.5407 -1.3526,17.338 2.7782,24.462 9.6748,16.686 47.174,35.291 47.174,35.291 z"
       stroke="#000000"
       stroke-width="0.9412"
       id="path97" />
    <path
       d="m 518.25,516.33 c 0,0 8.9599,-11.607 9.2647,-18.312 0.1308,-2.8779 -1.0614,-5.9318 -3.2566,-7.9775 -2.0559,-1.916 -5.1586,-2.0337 -7.1236,-0.3593 -1.4867,1.2668 -2.7969,4.8579 -2.7969,4.8579 0,0 -1.3163,-4.034 -1.1521,-6.0499 0.1111,-1.3632 1.4149,-3.7099 1.4149,-3.7099 l -3.8962,0.9446 -3.8962,0.9446 c 0,0 2.5461,1.3779 3.35,2.6141 1.0889,1.6746 1.5908,5.8841 1.5908,5.8841 0,0 -2.2986,-2.0842 -4.1353,-2.8845 -2.0307,-0.8848 -5.7203,0.9117 -6.8582,3.1206 -1.3604,2.641 -0.4737,6.0722 0.973,8.5673 3.3884,5.844 16.522,12.36 16.522,12.36 z"
       stroke="#000000"
       stroke-width="0.3296"
       id="path99" />
    <text
       transform="matrix(-0.71453,0.17322,-0.32046,-1.3218,0,0)"
       x="-561.57343"
       y="-473.52789"
       font-family="Sans"
       font-size="54.405px"
       letter-spacing="0"
       word-spacing="0"
       id="text103"><tspan
         x="-561.57343"
         y="-473.52789"
         id="tspan101">10</tspan></text>
  </g>
  <path
     transform="matrix(0.28456086,-0.03483667,0.03483667,0.28456086,262.67743,-45.474459)"
     d="m -407.45,254.6 h 340 a 30,30 0 0 1 30,30 v 498.57 a 30,30 0 0 1 -30,30 h -340 a 30,30 0 0 1 -30,-30 V 284.6 a 30,30 0 0 1 30,-30"
     fill="#808080"
     filter="url(#a)"
     opacity="0.7"
     stroke="#808080"
     id="path107" />
  <g
     transform="matrix(0.28668426,0,0,0.28668426,12.23995,21.619607)"
     id="g143">
    <path
       transform="matrix(0.99547,-0.09506,0.09506,0.99547,0,0)"
       d="m 519.55,89.184 h 340 a 30,30 0 0 1 30,30 v 498.57 a 30,30 0 0 1 -30,30 h -340 a 30,30 0 0 1 -30,-30 v -498.57 a 30,30 0 0 1 30,-30"
       fill="#ffffff"
       stroke="#000000"
       id="path109" />
    <g
       fill="#ff0000"
       stroke="#ff0000"
       id="g141">
      <path
         d="m 605.19,99.111 c 0,0 -30.034,29.167 -33.617,47.995 -1.5378,8.0808 0.5922,17.196 5.9661,23.869 5.033,6.2495 13.754,7.8415 19.988,3.9068 4.7159,-2.9769 9.8765,-12.595 9.8765,-12.595 0,0 2.083,11.936 0.8005,17.566 -0.8673,3.8078 -5.5047,9.9108 -5.5047,9.9108 l 11.395,-1.0882 11.395,-1.0882 c 0,0 -6.6368,-4.9277 -8.407,-8.748 -2.3979,-5.175 -2.1079,-17.276 -2.1079,-17.276 0,0 5.6505,6.8235 10.517,9.8308 5.3802,3.325 16.537,-0.255 20.65,-6.0361 4.9169,-6.9119 3.8035,-16.969 0.7274,-24.609 -7.2045,-17.892 -41.678,-41.639 -41.678,-41.639 z"
         stroke-width="0.9412"
         id="path111" />
      <path
         d="m 786.37,81.81 c 0,0 -30.034,29.167 -33.617,47.995 -1.5378,8.0808 0.5922,17.196 5.9661,23.869 5.033,6.2495 13.754,7.8415 19.988,3.9068 4.7159,-2.9769 9.8765,-12.595 9.8765,-12.595 0,0 2.083,11.936 0.8005,17.566 -0.8673,3.8078 -5.5047,9.9108 -5.5047,9.9108 l 11.395,-1.0882 11.395,-1.0882 c 0,0 -6.6368,-4.9277 -8.407,-8.748 -2.3979,-5.175 -2.1079,-17.276 -2.1079,-17.276 0,0 5.6505,6.8235 10.517,9.8308 5.3802,3.3249 16.537,-0.255 20.65,-6.0361 4.9169,-6.9119 3.8035,-16.969 0.7274,-24.609 -7.2045,-17.892 -41.678,-41.639 -41.678,-41.639 z"
         stroke-width="0.9412"
         id="path113" />
      <path
         d="m 615.46,206.62 c 0,0 -30.034,29.167 -33.617,47.995 -1.5378,8.0808 0.5922,17.196 5.9661,23.869 5.033,6.2495 13.754,7.8415 19.988,3.9068 4.7159,-2.9769 9.8765,-12.595 9.8765,-12.595 0,0 2.083,11.936 0.8005,17.566 -0.8673,3.8078 -5.5047,9.9108 -5.5047,9.9108 l 11.395,-1.0882 11.395,-1.0882 c 0,0 -6.6368,-4.9277 -8.407,-8.748 -2.3979,-5.175 -2.1079,-17.276 -2.1079,-17.276 0,0 5.6505,6.8235 10.517,9.8308 5.3802,3.325 16.537,-0.255 20.65,-6.0361 4.9169,-6.9119 3.8035,-16.969 0.7274,-24.609 -7.2045,-17.892 -41.678,-41.639 -41.678,-41.639 z"
         stroke-width="0.9412"
         id="path115" />
      <path
         d="m 796.64,189.32 c 0,0 -30.034,29.167 -33.617,47.995 -1.5378,8.0808 0.5922,17.196 5.9661,23.869 5.033,6.2495 13.754,7.8415 19.988,3.9068 4.7159,-2.9769 9.8765,-12.595 9.8765,-12.595 0,0 2.083,11.936 0.8005,17.566 -0.8673,3.8078 -5.5047,9.9108 -5.5047,9.9108 l 11.395,-1.0882 11.395,-1.0882 c 0,0 -6.6368,-4.9277 -8.407,-8.748 -2.3979,-5.175 -2.1079,-17.276 -2.1079,-17.276 0,0 5.6505,6.8235 10.517,9.8308 5.3802,3.3249 16.537,-0.255 20.65,-6.0361 4.9169,-6.9119 3.8035,-16.969 0.7274,-24.609 -7.2045,-17.892 -41.678,-41.639 -41.678,-41.639 z"
         stroke-width="0.9412"
         id="path117" />
      <path
         d="m 545.3776,146.2526 c 0,0 -10.5189,10.2151 -11.7737,16.8091 -0.5386,2.8301 0.2074,6.0224 2.0895,8.3595 1.7627,2.1887 4.8172,2.7463 7.0002,1.3683 1.6517,-1.0426 3.459,-4.411 3.459,-4.411 0,0 0.7295,4.1802 0.2803,6.1522 -0.3038,1.3336 -1.9279,3.4711 -1.9279,3.4711 l 3.9909,-0.3811 3.9909,-0.3811 c 0,0 -2.3244,-1.7258 -2.9444,-3.0638 -0.8398,-1.8124 -0.7382,-6.0504 -0.7382,-6.0504 0,0 1.979,2.3898 3.6832,3.443 1.8843,1.1645 5.7919,-0.0893 7.2322,-2.114 1.7221,-2.4207 1.3321,-5.9432 0.2547,-8.6187 -2.5232,-6.2663 -14.5968,-14.583 -14.5968,-14.583 z"
         stroke-width="0.3296"
         id="path119" />
      <text
         transform="matrix(0.73189,-0.06989,0.1293,1.354,0,0)"
         x="704.71802"
         y="130.3364"
         font-family="Sans"
         font-size="54.405px"
         letter-spacing="0"
         word-spacing="0"
         id="text123"><tspan
           x="704.71802"
           y="130.3364"
           id="tspan121">9</tspan></text>
      <path
         d="m 825,496.65 c 0,0 30.034,-29.167 33.617,-47.995 1.5378,-8.0808 -0.5922,-17.196 -5.9661,-23.869 -5.033,-6.2495 -13.754,-7.8415 -19.988,-3.9068 -4.7159,2.9769 -9.8765,12.595 -9.8765,12.595 0,0 -2.083,-11.936 -0.8005,-17.566 0.8673,-3.8078 5.5047,-9.9108 5.5047,-9.9108 l -11.395,1.0882 -11.395,1.0882 c 0,0 6.6368,4.9277 8.407,8.748 2.3979,5.175 2.1079,17.276 2.1079,17.276 0,0 -5.6505,-6.8235 -10.517,-9.8308 -5.3802,-3.325 -16.537,0.255 -20.65,6.0361 -4.9169,6.9119 -3.8035,16.969 -0.7274,24.609 7.2045,17.892 41.678,41.639 41.678,41.639 z"
         stroke-width="0.9412"
         id="path125" />
      <path
         d="m 643.83,513.95 c 0,0 30.034,-29.167 33.617,-47.995 1.5378,-8.0808 -0.5922,-17.196 -5.9661,-23.869 -5.033,-6.2495 -13.754,-7.8415 -19.988,-3.9068 -4.7159,2.9769 -9.8765,12.595 -9.8765,12.595 0,0 -2.083,-11.936 -0.8005,-17.566 0.8673,-3.8078 5.5047,-9.9108 5.5047,-9.9108 l -11.395,1.0882 -11.395,1.0882 c 0,0 6.6368,4.9277 8.407,8.748 2.3979,5.175 2.1079,17.276 2.1079,17.276 0,0 -5.6505,-6.8235 -10.517,-9.8308 -5.3802,-3.325 -16.537,0.255 -20.65,6.0361 -4.9169,6.9119 -3.8035,16.969 -0.7274,24.609 7.2045,17.892 41.678,41.639 41.678,41.639 z"
         stroke-width="0.9412"
         id="path127" />
      <path
         d="m 814.73,389.14 c 0,0 30.034,-29.167 33.617,-47.995 1.5378,-8.0808 -0.5922,-17.196 -5.9661,-23.869 -5.033,-6.2495 -13.754,-7.8415 -19.988,-3.9068 -4.7159,2.9769 -9.8765,12.595 -9.8765,12.595 0,0 -2.083,-11.936 -0.8005,-17.566 0.8673,-3.8078 5.5047,-9.9108 5.5047,-9.9108 l -11.395,1.0882 -11.395,1.0882 c 0,0 6.6368,4.9277 8.407,8.748 2.3979,5.175 2.1079,17.276 2.1079,17.276 0,0 -5.6505,-6.8235 -10.517,-9.8308 -5.3802,-3.325 -16.537,0.255 -20.65,6.0361 -4.9169,6.9119 -3.8035,16.969 -0.7274,24.609 7.2045,17.892 41.678,41.639 41.678,41.639 z"
         stroke-width="0.9412"
         id="path129" />
      <path
         d="m 633.56,406.44 c 0,0 30.034,-29.167 33.617,-47.995 1.5378,-8.0808 -0.5922,-17.196 -5.9661,-23.869 -5.033,-6.2495 -13.754,-7.8415 -19.988,-3.9068 -4.7159,2.9769 -9.8765,12.595 -9.8765,12.595 0,0 -2.083,-11.936 -0.8005,-17.566 0.8673,-3.8078 5.5047,-9.9108 5.5047,-9.9108 l -11.395,1.0882 -11.395,1.0882 c 0,0 6.6368,4.9277 8.407,8.748 2.3979,5.175 2.1079,17.276 2.1079,17.276 0,0 -5.6505,-6.8235 -10.517,-9.8308 -5.3802,-3.3249 -16.537,0.255 -20.65,6.0361 -4.9169,6.9119 -3.8035,16.969 -0.7274,24.609 7.2045,17.892 41.678,41.639 41.678,41.639 z"
         stroke-width="0.9412"
         id="path131" />
      <path
         d="m 884.8191,449.51 c 0,0 10.5189,-10.2151 11.7737,-16.8091 0.5386,-2.8301 -0.2074,-6.0224 -2.0895,-8.3595 -1.7627,-2.1887 -4.8171,-2.7463 -7.0002,-1.3683 -1.6517,1.0426 -3.459,4.411 -3.459,4.411 0,0 -0.7295,-4.1802 -0.2804,-6.1522 0.3038,-1.3336 1.9279,-3.4711 1.9279,-3.4711 l -3.9909,0.3811 -3.9909,0.3811 c 0,0 2.3244,1.7258 2.9444,3.0638 0.8398,1.8124 0.7382,6.0505 0.7382,6.0505 0,0 -1.979,-2.3898 -3.6833,-3.443 -1.8843,-1.1645 -5.7919,0.0893 -7.2322,2.114 -1.7221,2.4207 -1.3321,5.9432 -0.2547,8.6187 2.5232,6.2663 14.5968,14.583 14.5968,14.583 z"
         stroke-width="0.3296"
         id="path133" />
      <text
         transform="matrix(-0.73189,0.06989,-0.1293,-1.354,0,0)"
         x="-1154.6921"
         y="-405.66019"
         font-family="Sans"
         font-size="54.405px"
         letter-spacing="0"
         word-spacing="0"
         id="text137"><tspan
           x="-1154.6921"
           y="-405.66019"
           id="tspan135">9</tspan></text>
      <path
         d="m 710.69,257.07 c 0,0 -30.034,29.167 -33.617,47.995 -1.5378,8.0808 0.5922,17.196 5.9661,23.869 5.033,6.2495 13.754,7.8415 19.988,3.9068 4.7159,-2.9769 9.8765,-12.595 9.8765,-12.595 0,0 2.083,11.936 0.8005,17.566 -0.8673,3.8078 -5.5047,9.9108 -5.5047,9.9108 l 11.395,-1.0882 11.395,-1.0882 c 0,0 -6.6368,-4.9277 -8.407,-8.748 -2.3979,-5.175 -2.1079,-17.276 -2.1079,-17.276 0,0 5.6505,6.8235 10.517,9.8308 5.3802,3.3249 16.537,-0.255 20.65,-6.0361 4.9169,-6.9119 3.8035,-16.969 0.7274,-24.609 -7.2045,-17.892 -41.678,-41.639 -41.678,-41.639 z"
         stroke-width="0.9412"
         id="path139" />
    </g>
  </g>
  <path
     transform="matrix(0.28668426,4.3334582e-4,-4.3334582e-4,0.28668426,304.94598,-38.23195)"
     d="m -407.45,254.6 h 340 a 30,30 0 0 1 30,30 v 498.57 a 30,30 0 0 1 -30,30 h -340 a 30,30 0 0 1 -30,-30 V 284.6 a 30,30 0 0 1 30,-30"
     fill="#808080"
     filter="url(#a)"
     opacity="0.7"
     stroke="#808080"
     id="path145" />
  <path
     d="m 193.03513,29.604429 97.47265,0.147338 a 8.6005376,8.6005376 0 0 1 8.58753,8.613528 l -0.21605,142.932175 a 8.6005376,8.6005376 0 0 1 -8.61353,8.58752 l -97.47265,-0.14733 a 8.6005376,8.6005376 0 0 1 -8.58753,-8.61353 l 0.21606,-142.932173 a 8.6005376,8.6005376 0 0 1 8.61352,-8.587528"
     fill="#ffffff"
     stroke="#000000"
     id="path147"
     style="stroke-width:0.286685" />
  <g
     transform="matrix(0.28665826,-0.00399545,0.00399545,0.28665826,98.222694,7.3339291)"
     stroke="#000000"
     id="g177">
    <path
       d="m 407.99,150.42 c 0,0 -33.072,25.672 -38.712,43.989 -2.4208,7.8615 -1.3104,17.156 3.2938,24.382 4.3121,6.7671 12.804,9.3125 19.434,6.0902 5.0158,-2.4379 11.207,-11.427 11.207,-11.427 0,0 0.7522,12.093 -1.1443,17.547 -1.2825,3.6887 -6.5655,9.2424 -6.5655,9.2424 l 11.446,0.1768 11.446,0.1768 c 0,0 -6.0521,-5.6304 -7.3896,-9.6229 -1.8118,-5.4081 -0.1872,-17.403 -0.1872,-17.403 0,0 4.8624,7.4057 9.3668,10.932 4.9801,3.8988 16.464,1.5728 21.19,-3.7188 5.6502,-6.3266 5.6541,-16.446 3.4405,-24.378 -5.1846,-18.578 -36.825,-45.986 -36.825,-45.986 z"
       stroke-width="0.9412"
       id="path149" />
    <path
       d="m 589.97,153.23 c 0,0 -33.072,25.672 -38.712,43.989 -2.4208,7.8615 -1.3104,17.156 3.2938,24.382 4.3121,6.7671 12.804,9.3125 19.434,6.0902 5.0158,-2.4379 11.207,-11.427 11.207,-11.427 0,0 0.7522,12.093 -1.1443,17.547 -1.2825,3.6887 -6.5655,9.2424 -6.5655,9.2424 l 11.446,0.1768 11.446,0.1768 c 0,0 -6.0521,-5.6305 -7.3896,-9.6229 -1.8118,-5.4081 -0.1873,-17.403 -0.1873,-17.403 0,0 4.8624,7.4057 9.3668,10.932 4.9801,3.8988 16.464,1.5728 21.19,-3.7188 5.6502,-6.3266 5.6541,-16.446 3.4405,-24.378 -5.1846,-18.578 -36.825,-45.986 -36.825,-45.986 z"
       stroke-width="0.9412"
       id="path151" />
    <path
       d="m 406.33,258.41 c 0,0 -33.072,25.672 -38.712,43.989 -2.4208,7.8615 -1.3104,17.156 3.2938,24.382 4.3121,6.7671 12.804,9.3125 19.434,6.0901 5.0158,-2.4379 11.207,-11.427 11.207,-11.427 0,0 0.7522,12.093 -1.1443,17.547 -1.2825,3.6887 -6.5655,9.2424 -6.5655,9.2424 l 11.446,0.1768 11.446,0.1768 c 0,0 -6.0521,-5.6304 -7.3896,-9.6229 -1.8118,-5.4081 -0.1873,-17.403 -0.1873,-17.403 0,0 4.8624,7.4057 9.3668,10.932 4.9801,3.8988 16.464,1.5728 21.19,-3.7188 5.6502,-6.3266 5.6541,-16.446 3.4405,-24.378 -5.1846,-18.578 -36.825,-45.986 -36.825,-45.986 z"
       stroke-width="0.9412"
       id="path153" />
    <path
       d="m 588.3,261.22 c 0,0 -33.072,25.672 -38.712,43.989 -2.4208,7.8615 -1.3104,17.156 3.2938,24.382 4.3121,6.7671 12.804,9.3125 19.434,6.0901 5.0158,-2.4379 11.207,-11.427 11.207,-11.427 0,0 0.7522,12.093 -1.1443,17.547 -1.2825,3.6888 -6.5655,9.2424 -6.5655,9.2424 l 11.446,0.1768 11.446,0.1768 c 0,0 -6.0521,-5.6305 -7.3896,-9.6229 -1.8118,-5.4081 -0.1872,-17.403 -0.1872,-17.403 0,0 4.8624,7.4057 9.3668,10.932 4.9801,3.8988 16.464,1.5728 21.19,-3.7188 5.6502,-6.3266 5.6541,-16.446 3.4405,-24.378 -5.1846,-18.578 -36.825,-45.986 -36.825,-45.986 z"
       stroke-width="0.9412"
       id="path155" />
    <path
       d="m 343.3374,190.6694 c 0,0 -11.5826,8.991 -13.558,15.4061 -0.8478,2.7533 -0.4589,6.0085 1.1536,8.5391 1.5102,2.37 4.4844,3.2615 6.8063,2.133 1.7567,-0.8538 3.925,-4.002 3.925,-4.002 0,0 0.2634,4.2352 -0.4008,6.1455 -0.4492,1.2919 -2.2994,3.2369 -2.2994,3.2369 l 4.0086,0.0619 4.0086,0.0619 c 0,0 -2.1196,-1.972 -2.588,-3.3702 -0.6345,-1.8941 -0.0656,-6.095 -0.0656,-6.095 0,0 1.7029,2.5937 3.2805,3.8287 1.7442,1.3655 5.7663,0.5508 7.4214,-1.3024 1.9789,-2.2158 1.9802,-5.7597 1.205,-8.5378 -1.8158,-6.5067 -12.8971,-16.1057 -12.8971,-16.1057 z"
       stroke-width="0.3296"
       id="path157" />
    <text
       transform="matrix(0.73514,0.01136,-0.02101,1.36,0,0)"
       x="456.13779"
       y="121.4451"
       font-family="Sans"
       font-size="54.405px"
       letter-spacing="0"
       word-spacing="0"
       id="text161"><tspan
         x="456.13779"
         y="121.4451"
         stroke="#000000"
         id="tspan159">8</tspan></text>
    <path
       d="m 582.56,569.8 c 0,0 33.072,-25.672 38.712,-43.989 2.4208,-7.8615 1.3104,-17.156 -3.2938,-24.382 -4.3121,-6.7671 -12.804,-9.3125 -19.434,-6.0901 -5.0158,2.4379 -11.207,11.427 -11.207,11.427 0,0 -0.7522,-12.093 1.1443,-17.547 1.2825,-3.6887 6.5655,-9.2423 6.5655,-9.2423 l -11.446,-0.1768 -11.446,-0.1768 c 0,0 6.0521,5.6305 7.3896,9.6229 1.8118,5.4081 0.1872,17.403 0.1872,17.403 0,0 -4.8624,-7.4058 -9.3668,-10.932 -4.9801,-3.8988 -16.464,-1.5728 -21.19,3.7188 -5.6502,6.3266 -5.6541,16.446 -3.4405,24.378 5.1846,18.578 36.825,45.986 36.825,45.986 z"
       stroke-width="0.9412"
       id="path163" />
    <path
       d="m 400.58,566.99 c 0,0 33.072,-25.672 38.712,-43.989 2.4208,-7.8615 1.3104,-17.156 -3.2938,-24.382 -4.3121,-6.7671 -12.804,-9.3125 -19.434,-6.0901 -5.0158,2.4379 -11.207,11.427 -11.207,11.427 0,0 -0.7522,-12.093 1.1443,-17.547 1.2825,-3.6887 6.5655,-9.2423 6.5655,-9.2423 l -11.446,-0.1768 -11.446,-0.1768 c 0,0 6.0521,5.6304 7.3895,9.6229 1.8118,5.4081 0.1873,17.403 0.1873,17.403 0,0 -4.8624,-7.4057 -9.3668,-10.932 -4.9801,-3.8988 -16.464,-1.5728 -21.19,3.7188 -5.6502,6.3266 -5.6541,16.446 -3.4405,24.378 5.1846,18.578 36.825,45.986 36.825,45.986 z"
       stroke-width="0.9412"
       id="path165" />
    <path
       d="m 584.22,461.82 c 0,0 33.072,-25.672 38.712,-43.989 2.4208,-7.8615 1.3104,-17.156 -3.2938,-24.382 -4.3121,-6.7671 -12.804,-9.3125 -19.434,-6.0902 -5.0158,2.4379 -11.207,11.427 -11.207,11.427 0,0 -0.7522,-12.093 1.1443,-17.547 1.2825,-3.6887 6.5655,-9.2424 6.5655,-9.2424 l -11.446,-0.1768 -11.446,-0.1768 c 0,0 6.0521,5.6305 7.3896,9.6229 1.8118,5.4081 0.1873,17.403 0.1873,17.403 0,0 -4.8624,-7.4057 -9.3668,-10.932 -4.9801,-3.8988 -16.464,-1.5728 -21.19,3.7188 -5.6502,6.3266 -5.6541,16.446 -3.4405,24.378 5.1846,18.578 36.825,45.986 36.825,45.986 z"
       stroke-width="0.9412"
       id="path167" />
    <path
       d="m 402.25,459.01 c 0,0 33.072,-25.672 38.712,-43.989 2.4208,-7.8615 1.3104,-17.156 -3.2938,-24.382 -4.3121,-6.7671 -12.804,-9.3125 -19.434,-6.0902 -5.0158,2.4379 -11.207,11.427 -11.207,11.427 0,0 -0.7522,-12.093 1.1443,-17.547 1.2825,-3.6887 6.5655,-9.2424 6.5655,-9.2424 l -11.446,-0.1768 -11.446,-0.1768 c 0,0 6.0521,5.6304 7.3896,9.6229 1.8118,5.4081 0.1873,17.403 0.1873,17.403 0,0 -4.8624,-7.4057 -9.3668,-10.932 -4.9801,-3.8988 -16.464,-1.5728 -21.19,3.7188 -5.6501,6.3266 -5.6541,16.446 -3.4405,24.378 5.1846,18.578 36.825,45.986 36.825,45.986 z"
       stroke-width="0.9412"
       id="path169" />
    <path
       d="m 647.21,529.56 c 0,0 11.583,-8.991 13.558,-15.406 0.8478,-2.7533 0.4589,-6.0085 -1.1536,-8.5391 -1.5102,-2.37 -4.4844,-3.2615 -6.8063,-2.1329 -1.7567,0.8538 -3.925,4.002 -3.925,4.002 0,0 -0.2634,-4.2352 0.4008,-6.1455 0.4492,-1.2919 2.2994,-3.2369 2.2994,-3.2369 l -4.0086,-0.0619 -4.0085,-0.0619 c 0,0 2.1196,1.9719 2.588,3.3702 0.6345,1.8941 0.0656,6.095 0.0656,6.095 0,0 -1.7029,-2.5937 -3.2805,-3.8287 -1.7442,-1.3655 -5.7663,-0.5508 -7.4214,1.3024 -1.9788,2.2158 -1.9802,5.7597 -1.205,8.5378 1.8158,6.5066 12.897,16.106 12.897,16.106 z"
       stroke-width="0.3296"
       id="path171" />
    <text
       transform="matrix(-0.73514,-0.01136,0.02101,-1.36,0,0)"
       x="-906.11188"
       y="-396.76889"
       font-family="Sans"
       font-size="54.405px"
       letter-spacing="0"
       word-spacing="0"
       id="text175"><tspan
         x="-906.11188"
         y="-396.76889"
         stroke="#000000"
         id="tspan173">8</tspan></text>
  </g>
  <path
     transform="matrix(0.28668426,4.3334582e-4,-4.3334582e-4,0.28668426,324.44221,-22.751104)"
     d="m -407.45,254.6 h 340 a 30,30 0 0 1 30,30 v 498.57 a 30,30 0 0 1 -30,30 h -340 a 30,30 0 0 1 -30,-30 V 284.6 a 30,30 0 0 1 30,-30"
     fill="#808080"
     filter="url(#a)"
     opacity="0.7"
     stroke="#808080"
     id="path179" />
  <g
     transform="matrix(0.28668426,0,0,0.28668426,86.083377,13.698912)"
     id="g209">
    <path
       transform="rotate(0.086)"
       d="m 440.9,106.18 h 340 a 30,30 0 0 1 30,30 v 498.57 a 30,30 0 0 1 -30,30 h -340 a 30,30 0 0 1 -30,-30 V 136.18 a 30,30 0 0 1 30,-30"
       fill="#ffffff"
       stroke="#000000"
       id="path181" />
    <path
       d="m 520.07,173.88 c 0,0 -32.71,26.131 -38.095,44.524 -2.3109,7.8945 -1.071,17.173 3.6334,24.333 4.406,6.7063 12.933,9.133 19.517,5.8186 4.9813,-2.5076 11.046,-11.582 11.046,-11.582 0,0 0.9208,12.081 -0.8995,17.562 -1.231,3.7063 -6.436,9.333 -6.436,9.333 l 11.447,0.0172 11.447,0.0172 c 0,0 -6.13,-5.5455 -7.523,-9.519 -1.887,-5.3823 -0.4299,-17.399 -0.4299,-17.399 0,0 4.9652,7.3372 9.5183,10.8 5.034,3.8289 16.485,1.3431 21.136,-4.0139 5.5614,-6.4048 5.4243,-16.523 3.1003,-24.424 -5.4432,-18.504 -37.463,-45.468 -37.463,-45.468 z"
       fill="#ff0000"
       stroke="#ff0000"
       stroke-width="0.9412"
       id="path183" />
    <path
       d="m 702.07,174.16 c 0,0 -32.71,26.131 -38.095,44.524 -2.3109,7.8945 -1.071,17.173 3.6334,24.333 4.406,6.7063 12.933,9.133 19.517,5.8186 4.9813,-2.5076 11.046,-11.582 11.046,-11.582 0,0 0.9208,12.081 -0.8995,17.562 -1.231,3.7063 -6.436,9.333 -6.436,9.333 l 11.447,0.0172 11.447,0.0172 c 0,0 -6.13,-5.5455 -7.523,-9.519 -1.887,-5.3823 -0.4299,-17.399 -0.4299,-17.399 0,0 4.9652,7.3372 9.5183,10.8 5.034,3.8289 16.485,1.3431 21.136,-4.0139 5.5614,-6.4048 5.4243,-16.523 3.1003,-24.424 -5.4431,-18.504 -37.463,-45.468 -37.463,-45.468 z"
       fill="#ff0000"
       stroke="#ff0000"
       stroke-width="0.9412"
       id="path185" />
    <path
       d="m 610.45,341.38 c 0,0 -32.71,26.131 -38.095,44.524 -2.3109,7.8945 -1.0711,17.173 3.6334,24.333 4.406,6.7063 12.933,9.133 19.517,5.8186 4.9813,-2.5076 11.047,-11.582 11.047,-11.582 0,0 0.9208,12.081 -0.8995,17.562 -1.231,3.7063 -6.436,9.333 -6.436,9.333 l 11.447,0.0172 11.447,0.0172 c 0,0 -6.13,-5.5455 -7.523,-9.519 -1.887,-5.3823 -0.4299,-17.399 -0.4299,-17.399 0,0 4.9652,7.3372 9.5183,10.8 5.034,3.8289 16.485,1.3431 21.136,-4.0139 5.5614,-6.4048 5.4243,-16.523 3.1003,-24.424 -5.4432,-18.504 -37.463,-45.468 -37.463,-45.468 z"
       fill="#ff0000"
       stroke="#ff0000"
       stroke-width="0.9412"
       id="path187" />
    <path
       d="m 455.98,215.03 c 0,0 -11.456,9.1517 -13.342,15.594 -0.8093,2.7649 -0.3751,6.0143 1.2725,8.5222 1.5431,2.3487 4.5294,3.1986 6.8354,2.0378 1.7446,-0.8782 3.8688,-4.0564 3.8688,-4.0564 0,0 0.3225,4.2311 -0.315,6.1505 -0.4311,1.298 -2.254,3.2687 -2.254,3.2687 l 4.009,0.006 4.009,0.006 c 0,0 -2.1469,-1.9422 -2.6348,-3.3338 -0.6609,-1.885 -0.1506,-6.0935 -0.1506,-6.0935 0,0 1.7389,2.5697 3.3336,3.7826 1.7631,1.341 5.7734,0.4704 7.4025,-1.4058 1.9478,-2.2432 1.8997,-5.7868 1.0858,-8.5538 -1.9063,-6.4807 -13.12,-15.924 -13.12,-15.924 z"
       fill="#ff0000"
       stroke="#ff0000"
       stroke-width="0.3296"
       id="path189" />
    <text
       transform="matrix(0.73522,0.00111,-0.00205,1.3601,0,0)"
       x="605.83508"
       y="142.7661"
       fill="#ff0000"
       font-family="Sans"
       font-size="54.405px"
       letter-spacing="0"
       stroke="#ff0000"
       word-spacing="0"
       id="text193"><tspan
         x="605.83508"
         y="142.7661"
         fill="#ff0000"
         stroke="#ff0000"
         id="tspan191">7</tspan></text>
    <path
       d="m 700.46,590.79 c 0,0 32.71,-26.131 38.095,-44.524 2.3109,-7.8945 1.0711,-17.173 -3.6334,-24.333 -4.406,-6.7063 -12.933,-9.133 -19.517,-5.8186 -4.9813,2.5076 -11.047,11.582 -11.047,11.582 0,0 -0.9207,-12.081 0.8995,-17.562 1.231,-3.7062 6.436,-9.333 6.436,-9.333 l -11.447,-0.0172 -11.447,-0.0172 c 0,0 6.13,5.5455 7.523,9.519 1.887,5.3823 0.4299,17.399 0.4299,17.399 0,0 -4.9652,-7.3372 -9.5183,-10.8 -5.034,-3.8289 -16.485,-1.3431 -21.136,4.0139 -5.5614,6.4048 -5.4243,16.523 -3.1003,24.424 5.4432,18.504 37.463,45.468 37.463,45.468 z"
       fill="#ff0000"
       stroke="#ff0000"
       stroke-width="0.9412"
       id="path195" />
    <path
       d="m 518.46,590.52 c 0,0 32.71,-26.131 38.095,-44.524 2.3109,-7.8945 1.0711,-17.173 -3.6334,-24.333 -4.406,-6.7063 -12.933,-9.133 -19.517,-5.8186 -4.9813,2.5076 -11.047,11.582 -11.047,11.582 0,0 -0.9208,-12.081 0.8995,-17.562 1.231,-3.7063 6.436,-9.333 6.436,-9.333 l -11.447,-0.0172 -11.447,-0.0172 c 0,0 6.13,5.5455 7.523,9.519 1.887,5.3823 0.4299,17.399 0.4299,17.399 0,0 -4.9652,-7.3372 -9.5183,-10.8 -5.034,-3.8289 -16.485,-1.3431 -21.136,4.0139 -5.5614,6.4048 -5.4243,16.523 -3.1003,24.424 5.4432,18.504 37.463,45.468 37.463,45.468 z"
       fill="#ff0000"
       stroke="#ff0000"
       stroke-width="0.9412"
       id="path197" />
    <path
       d="m 700.63,431.4 c 0,0 32.71,-26.131 38.095,-44.524 2.3109,-7.8945 1.071,-17.173 -3.6334,-24.333 -4.406,-6.7063 -12.933,-9.133 -19.517,-5.8186 -4.9813,2.5076 -11.046,11.582 -11.046,11.582 0,0 -0.9208,-12.081 0.8995,-17.562 1.231,-3.7062 6.436,-9.333 6.436,-9.333 l -11.447,-0.0172 -11.447,-0.0172 c 0,0 6.13,5.5455 7.523,9.519 1.887,5.3823 0.4299,17.399 0.4299,17.399 0,0 -4.9652,-7.3372 -9.5183,-10.8 -5.034,-3.8289 -16.485,-1.3431 -21.136,4.0139 -5.5614,6.4048 -5.4243,16.523 -3.1003,24.424 5.4432,18.504 37.463,45.468 37.463,45.468 z"
       fill="#ff0000"
       stroke="#ff0000"
       stroke-width="0.9412"
       id="path199" />
    <path
       d="m 518.63,431.4 c 0,0 32.71,-26.131 38.095,-44.524 2.3109,-7.8945 1.071,-17.173 -3.6334,-24.333 -4.406,-6.7063 -12.933,-9.133 -19.517,-5.8186 -4.9813,2.5076 -11.046,11.582 -11.046,11.582 0,0 -0.9207,-12.081 0.8995,-17.562 1.231,-3.7063 6.436,-9.333 6.436,-9.333 l -11.447,-0.0172 -11.447,-0.0172 c 0,0 6.13,5.5455 7.523,9.519 1.887,5.3823 0.4299,17.399 0.4299,17.399 0,0 -4.9652,-7.3372 -9.5183,-10.8 -5.034,-3.8289 -16.485,-1.3431 -21.136,4.0139 -5.5614,6.4048 -5.4243,16.523 -3.1002,24.424 5.4431,18.504 37.463,45.468 37.463,45.468 z"
       fill="#ff0000"
       stroke="#ff0000"
       stroke-width="0.9412"
       id="path201" />
    <path
       d="m 764.55,549.65 c 0,0 11.456,-9.1517 13.342,-15.594 0.8094,-2.7649 0.3751,-6.0143 -1.2725,-8.5222 -1.5431,-2.3487 -4.5294,-3.1986 -6.8354,-2.0378 -1.7446,0.8782 -3.8688,4.0564 -3.8688,4.0564 0,0 -0.3225,-4.2311 0.315,-6.1505 0.4311,-1.298 2.254,-3.2687 2.254,-3.2687 l -4.009,-0.006 -4.009,-0.006 c 0,0 2.1469,1.9422 2.6348,3.3338 0.6609,1.8851 0.1506,6.0935 0.1506,6.0935 0,0 -1.7389,-2.5697 -3.3336,-3.7826 -1.7631,-1.341 -5.7734,-0.4704 -7.4025,1.4058 -1.9478,2.2431 -1.8997,5.7867 -1.0858,8.5538 1.9063,6.4807 13.12,15.924 13.12,15.924 z"
       fill="#ff0000"
       stroke="#ff0000"
       stroke-width="0.3296"
       id="path203" />
    <text
       transform="matrix(-0.73522,-0.00111,0.00205,-1.3601,0,0)"
       x="-1055.8093"
       y="-418.0899"
       fill="#ff0000"
       font-family="Sans"
       font-size="54.405px"
       letter-spacing="0"
       stroke="#ff0000"
       word-spacing="0"
       id="text207"><tspan
         x="-1055.8093"
         y="-418.0899"
         fill="#ff0000"
         stroke="#ff0000"
         id="tspan205">7</tspan></text>
  </g>
  <path
     transform="matrix(0.28668426,4.3334582e-4,-4.3334582e-4,0.28668426,341.64171,-11.283907)"
     d="m -407.45,254.6 h 340 a 30,30 0 0 1 30,30 v 498.57 a 30,30 0 0 1 -30,30 h -340 a 30,30 0 0 1 -30,-30 V 284.6 a 30,30 0 0 1 30,-30"
     fill="#808080"
     filter="url(#a)"
     opacity="0.7"
     stroke="#808080"
     id="path211" />
  <g
     transform="matrix(0.28668426,0,0,0.28668426,114.34316,16.811202)"
     stroke="#000000"
     id="g239">
    <path
       transform="rotate(0.086)"
       d="m 403.8,131.95 h 340 a 30,30 0 0 1 30,30 v 498.57 a 30,30 0 0 1 -30,30 h -340 a 30,30 0 0 1 -30,-30 V 161.95 a 30,30 0 0 1 30,-30"
       fill="#ffffff"
       id="path213" />
    <path
       d="m 482.93,199.6 c 0,0 -32.71,26.131 -38.095,44.524 -2.3109,7.8945 -1.071,17.173 3.6334,24.333 4.406,6.7063 12.933,9.133 19.517,5.8186 4.9813,-2.5076 11.046,-11.582 11.046,-11.582 0,0 0.9208,12.081 -0.8995,17.562 -1.231,3.7063 -6.436,9.333 -6.436,9.333 l 11.447,0.0172 11.447,0.0172 c 0,0 -6.13,-5.5455 -7.523,-9.519 -1.887,-5.3823 -0.4299,-17.399 -0.4299,-17.399 0,0 4.9652,7.3372 9.5183,10.8 5.034,3.8289 16.485,1.3431 21.136,-4.0139 5.5614,-6.4048 5.4243,-16.523 3.1003,-24.424 -5.4432,-18.504 -37.463,-45.468 -37.463,-45.468 z"
       stroke-width="0.9412"
       id="path215" />
    <path
       d="m 664.93,199.87 c 0,0 -32.71,26.131 -38.095,44.524 -2.3109,7.8945 -1.071,17.173 3.6334,24.333 4.406,6.7063 12.933,9.133 19.517,5.8186 4.9813,-2.5076 11.046,-11.582 11.046,-11.582 0,0 0.9208,12.081 -0.8995,17.562 -1.231,3.7063 -6.436,9.333 -6.436,9.333 l 11.447,0.0172 11.447,0.0172 c 0,0 -6.13,-5.5455 -7.523,-9.519 -1.887,-5.3823 -0.4299,-17.399 -0.4299,-17.399 0,0 4.9652,7.3372 9.5183,10.8 5.034,3.8289 16.485,1.3431 21.136,-4.0139 5.5614,-6.4048 5.4243,-16.523 3.1003,-24.424 -5.4431,-18.504 -37.463,-45.468 -37.463,-45.468 z"
       stroke-width="0.9412"
       id="path217" />
    <path
       d="m 418.84,240.74 c 0,0 -11.456,9.1517 -13.342,15.594 -0.8093,2.7649 -0.3751,6.0143 1.2725,8.5222 1.5431,2.3487 4.5294,3.1986 6.8354,2.0378 1.7446,-0.8782 3.8688,-4.0564 3.8688,-4.0564 0,0 0.3225,4.2311 -0.315,6.1505 -0.4311,1.298 -2.254,3.2687 -2.254,3.2687 l 4.009,0.006 4.009,0.006 c 0,0 -2.1469,-1.9422 -2.6348,-3.3338 -0.6609,-1.885 -0.1506,-6.0935 -0.1506,-6.0935 0,0 1.7389,2.5697 3.3336,3.7826 1.7631,1.341 5.7734,0.4704 7.4025,-1.4058 1.9478,-2.2432 1.8997,-5.7868 1.0858,-8.5538 -1.9063,-6.4807 -13.12,-15.924 -13.12,-15.924 z"
       stroke-width="0.3296"
       id="path219" />
    <text
       transform="matrix(0.73522,0.00111,-0.00205,1.3601,0,0)"
       x="555.36877"
       y="161.71291"
       font-family="Sans"
       font-size="54.405px"
       letter-spacing="0"
       word-spacing="0"
       id="text223"><tspan
         x="555.36877"
         y="161.71291"
         stroke="#000000"
         id="tspan221">6</tspan></text>
    <path
       d="m 663.32,616.5 c 0,0 32.71,-26.131 38.095,-44.524 2.3109,-7.8945 1.0711,-17.173 -3.6334,-24.333 -4.406,-6.7063 -12.933,-9.133 -19.517,-5.8186 -4.9813,2.5076 -11.047,11.582 -11.047,11.582 0,0 -0.9207,-12.081 0.8995,-17.562 1.231,-3.7062 6.436,-9.333 6.436,-9.333 l -11.447,-0.0172 -11.447,-0.0172 c 0,0 6.13,5.5455 7.523,9.519 1.887,5.3823 0.4299,17.399 0.4299,17.399 0,0 -4.9652,-7.3372 -9.5183,-10.8 -5.034,-3.8289 -16.485,-1.3431 -21.136,4.0139 -5.5614,6.4048 -5.4243,16.523 -3.1003,24.424 5.4432,18.504 37.463,45.468 37.463,45.468 z"
       stroke-width="0.9412"
       id="path225" />
    <path
       d="m 481.32,616.23 c 0,0 32.71,-26.131 38.095,-44.524 2.3109,-7.8945 1.0711,-17.173 -3.6334,-24.333 -4.406,-6.7063 -12.933,-9.133 -19.517,-5.8186 -4.9813,2.5076 -11.047,11.582 -11.047,11.582 0,0 -0.9208,-12.081 0.8995,-17.562 1.231,-3.7063 6.436,-9.333 6.436,-9.333 l -11.447,-0.0172 -11.447,-0.0172 c 0,0 6.13,5.5455 7.523,9.519 1.887,5.3823 0.4299,17.399 0.4299,17.399 0,0 -4.9652,-7.3372 -9.5183,-10.8 -5.034,-3.8289 -16.485,-1.3431 -21.136,4.0139 -5.5614,6.4048 -5.4243,16.523 -3.1003,24.424 5.4432,18.504 37.463,45.468 37.463,45.468 z"
       stroke-width="0.9412"
       id="path227" />
    <path
       d="m 663.48,457.11 c 0,0 32.71,-26.131 38.095,-44.524 2.3109,-7.8945 1.071,-17.173 -3.6334,-24.333 -4.406,-6.7063 -12.933,-9.133 -19.517,-5.8186 -4.9813,2.5076 -11.046,11.582 -11.046,11.582 0,0 -0.9208,-12.081 0.8995,-17.562 1.231,-3.7062 6.436,-9.333 6.436,-9.333 l -11.447,-0.0172 -11.447,-0.0172 c 0,0 6.13,5.5455 7.523,9.519 1.887,5.3823 0.4299,17.399 0.4299,17.399 0,0 -4.9652,-7.3372 -9.5183,-10.8 -5.034,-3.8289 -16.485,-1.3431 -21.136,4.0139 -5.5614,6.4048 -5.4243,16.523 -3.1003,24.424 5.4432,18.504 37.463,45.468 37.463,45.468 z"
       stroke-width="0.9412"
       id="path229" />
    <path
       d="m 481.48,457.11 c 0,0 32.71,-26.131 38.095,-44.524 2.3109,-7.8945 1.071,-17.173 -3.6334,-24.333 -4.406,-6.7063 -12.933,-9.133 -19.517,-5.8186 -4.9813,2.5076 -11.046,11.582 -11.046,11.582 0,0 -0.9207,-12.081 0.8995,-17.562 1.231,-3.7063 6.436,-9.333 6.436,-9.333 l -11.447,-0.0172 -11.447,-0.0172 c 0,0 6.13,5.5455 7.523,9.519 1.887,5.3823 0.4299,17.399 0.4299,17.399 0,0 -4.9652,-7.3372 -9.5183,-10.8 -5.034,-3.8289 -16.485,-1.3431 -21.136,4.0139 -5.5614,6.4048 -5.4243,16.523 -3.1002,24.424 5.4431,18.504 37.463,45.468 37.463,45.468 z"
       stroke-width="0.9412"
       id="path231" />
    <path
       d="m 727.41,575.36 c 0,0 11.456,-9.1517 13.342,-15.594 0.8094,-2.7649 0.3751,-6.0143 -1.2725,-8.5222 -1.5431,-2.3487 -4.5294,-3.1986 -6.8354,-2.0378 -1.7446,0.8782 -3.8688,4.0564 -3.8688,4.0564 0,0 -0.3225,-4.2311 0.315,-6.1505 0.4311,-1.298 2.254,-3.2687 2.254,-3.2687 l -4.009,-0.006 -4.009,-0.006 c 0,0 2.1469,1.9422 2.6348,3.3338 0.6609,1.8851 0.1506,6.0935 0.1506,6.0935 0,0 -1.7389,-2.5697 -3.3336,-3.7826 -1.7631,-1.341 -5.7734,-0.4704 -7.4025,1.4058 -1.9478,2.2431 -1.8997,5.7867 -1.0858,8.5538 1.9063,6.4807 13.12,15.924 13.12,15.924 z"
       stroke-width="0.3296"
       id="path233" />
    <text
       transform="matrix(-0.73522,-0.00111,0.00205,-1.3601,0,0)"
       x="-1005.343"
       y="-437.03671"
       font-family="Sans"
       font-size="54.405px"
       letter-spacing="0"
       word-spacing="0"
       id="text237"><tspan
         x="-1005.343"
         y="-437.03671"
         stroke="#000000"
         id="tspan235">6</tspan></text>
  </g>
  <path
     transform="matrix(0.24851122,0.14293435,-0.14293435,0.24851122,446.48991,110.2033)"
     d="m -407.45,254.6 h 340 a 30,30 0 0 1 30,30 v 498.57 a 30,30 0 0 1 -30,30 h -340 a 30,30 0 0 1 -30,-30 V 284.6 a 30,30 0 0 1 30,-30"
     fill="#808080"
     filter="url(#a)"
     opacity="0.7"
     stroke="#808080"
     id="path341" />
  <g
     transform="matrix(0.2487267,0.14255838,-0.14255838,0.2487267,178.4253,-135.0556)"
     id="g359">
    <path
       transform="rotate(0.086)"
       d="m 818.64,501.33 h 340 a 30,30 0 0 1 30,30 v 498.57 a 30,30 0 0 1 -30,30 h -340 a 30,30 0 0 1 -30,-30 V 531.33 a 30,30 0 0 1 30,-30"
       fill="#ffffff"
       stroke="#000000"
       id="path343" />
    <path
       d="m 987.59,737.09 c 0,0 -32.71,26.131 -38.095,44.524 -2.3109,7.8945 -1.0711,17.173 3.6334,24.333 4.406,6.7063 12.933,9.133 19.517,5.8186 4.9813,-2.5076 11.047,-11.582 11.047,-11.582 0,0 0.9208,12.081 -0.8995,17.562 -1.231,3.7063 -6.436,9.333 -6.436,9.333 l 11.447,0.0172 11.447,0.0172 c 0,0 -6.13,-5.5455 -7.523,-9.519 -1.887,-5.3823 -0.4299,-17.399 -0.4299,-17.399 0,0 4.9652,7.3372 9.5183,10.8 5.034,3.8289 16.485,1.3431 21.136,-4.0139 5.5613,-6.4048 5.4242,-16.523 3.1002,-24.424 -5.4431,-18.504 -37.463,-45.468 -37.463,-45.468 z"
       fill="#ff0000"
       stroke="#ff0000"
       stroke-width="0.9412"
       id="path345" />
    <path
       d="m 833.12,610.74 c 0,0 -11.456,9.1517 -13.342,15.594 -0.8093,2.7649 -0.3751,6.0143 1.2725,8.5222 1.5431,2.3487 4.5294,3.1986 6.8354,2.0378 1.7446,-0.8782 3.8688,-4.0564 3.8688,-4.0564 0,0 0.3225,4.2311 -0.315,6.1505 -0.4311,1.298 -2.254,3.2687 -2.254,3.2687 l 4.009,0.006 4.009,0.006 c 0,0 -2.1469,-1.9422 -2.6348,-3.3338 -0.6609,-1.885 -0.1506,-6.0935 -0.1506,-6.0935 0,0 1.7389,2.5697 3.3336,3.7826 1.7631,1.341 5.7734,0.4704 7.4025,-1.4058 1.9478,-2.2432 1.8997,-5.7868 1.0858,-8.5538 -1.9063,-6.4807 -13.12,-15.924 -13.12,-15.924 z"
       fill="#ff0000"
       stroke="#ff0000"
       stroke-width="0.3296"
       id="path347" />
    <text
       transform="matrix(0.73522,0.00111,-0.00205,1.3601,0,0)"
       x="1533.8551"
       y="477.40439"
       fill="#ff0000"
       font-family="Sans"
       font-size="54.405px"
       letter-spacing="0"
       stroke="#ff0000"
       word-spacing="0"
       id="text351"><tspan
         x="1533.8551"
         y="477.40439"
         fill="#ff0000"
         stroke="#ff0000"
         id="tspan349">A</tspan></text>
    <path
       d="m 1141.7,945.36 c 0,0 11.456,-9.1517 13.342,-15.594 0.8094,-2.7649 0.3751,-6.0143 -1.2725,-8.5222 -1.5431,-2.3487 -4.5294,-3.1986 -6.8354,-2.0378 -1.7446,0.8782 -3.8688,4.0564 -3.8688,4.0564 0,0 -0.3225,-4.2311 0.315,-6.1505 0.4312,-1.298 2.2541,-3.2687 2.2541,-3.2687 l -4.0091,-0.006 -4.009,-0.006 c 0,0 2.1469,1.9422 2.6348,3.3338 0.6609,1.8851 0.1506,6.0935 0.1506,6.0935 0,0 -1.739,-2.5697 -3.3336,-3.7826 -1.7631,-1.341 -5.7734,-0.4704 -7.4025,1.4058 -1.9478,2.2431 -1.8997,5.7867 -1.0858,8.5538 1.9063,6.4807 13.12,15.924 13.12,15.924 z"
       fill="#ff0000"
       stroke="#ff0000"
       stroke-width="0.3296"
       id="path353" />
    <text
       transform="matrix(0.73522,0.00111,-0.00205,1.3601,0,0)"
       x="1114.5153"
       y="714.30408"
       fill="#ff0000"
       font-family="Sans"
       font-size="54.405px"
       letter-spacing="0"
       stroke="#ff0000"
       word-spacing="0"
       id="text357"><tspan
         x="1114.5153"
         y="714.30408"
         fill="#ff0000"
         stroke="#ff0000"
         id="tspan355">A</tspan></text>
  </g>
</svg>
