<?xml version="1.0" encoding="UTF-8" standalone="no"?>
<svg
   xmlns:dc="http://purl.org/dc/elements/1.1/"
   xmlns:cc="http://creativecommons.org/ns#"
   xmlns:rdf="http://www.w3.org/1999/02/22-rdf-syntax-ns#"
   xmlns:svg="http://www.w3.org/2000/svg"
   xmlns="http://www.w3.org/2000/svg"
   xmlns:sodipodi="http://sodipodi.sourceforge.net/DTD/sodipodi-0.dtd"
   xmlns:inkscape="http://www.inkscape.org/namespaces/inkscape"
   viewBox="0 0 471.28115 304.23389"
   version="1.1"
   id="svg619"
   sodipodi:docname="cassette.svg"
   width="124.69314mm"
   height="80.495216mm"
   inkscape:version="1.0.2-2 (e86c870879, 2021-01-15)">
  <metadata
     id="metadata623">
    <rdf:RDF>
      <cc:Work
         rdf:about="">
        <dc:format>image/svg+xml</dc:format>
        <dc:type
           rdf:resource="http://purl.org/dc/dcmitype/StillImage" />
        <dc:title></dc:title>
      </cc:Work>
    </rdf:RDF>
  </metadata>
  <sodipodi:namedview
     pagecolor="#ffffff"
     bordercolor="#666666"
     borderopacity="1"
     objecttolerance="10"
     gridtolerance="10"
     guidetolerance="10"
     inkscape:pageopacity="0"
     inkscape:pageshadow="2"
     inkscape:window-width="1920"
     inkscape:window-height="1017"
     id="namedview621"
     showgrid="false"
     units="mm"
     inkscape:zoom="1.9513109"
     inkscape:cx="267.012"
     inkscape:cy="172.35938"
     inkscape:window-x="-8"
     inkscape:window-y="-8"
     inkscape:window-maximized="1"
     inkscape:current-layer="svg619" />
  <defs
     id="defs17">
    <pattern
       id="a"
       width="9.66095"
       height="10.17412"
       patternTransform="translate(29.225 374.72)"
       patternUnits="userSpaceOnUse">
      <g
         transform="translate(.03133 -374.72)"
         id="g14">
        <path
           d="m-0.02681 374.73h9.6564v10.165h-9.6564z"
           fill="none"
           id="path2" />
        <path
           d="m1.1428 375.23h6.3393"
           fill="none"
           opacity=".5"
           stroke="#000"
           stroke-linecap="round"
           id="path4" />
        <path
           d="m1.1428 384.39h6.3393"
           fill="none"
           opacity=".5"
           stroke="#fff"
           stroke-linecap="round"
           id="path6" />
        <path
           d="m8.1518 377.29v6.3393"
           fill="#333"
           opacity=".5"
           stroke="#333"
           stroke-linecap="round"
           id="path8" />
        <path
           d="m0.47319 377.29v6.3393"
           fill="#333"
           opacity=".5"
           stroke="#333"
           stroke-linecap="round"
           id="path10" />
        <path
           d="m-0.02681 374.73h9.6564v10.165h-9.6564z"
           fill="none"
           id="path12" />
      </g>
    </pattern>
  </defs>
  <g
     transform="matrix(0.88255493,0,0,0.88255493,-95.314167,-317.71977)"
     id="g617">
    <path
       d="m 310.2,475.34 h 126.07 v 85.357 H 310.2 Z"
       fill="#b3b3b3"
       stroke="#ff0000"
       stroke-linecap="round"
       stroke-width="2"
       id="path19" />
    <path
       d="m 263.41,434.35 c -46.206,0 -83.656,37.481 -83.656,83.687 0,46.206 37.45,83.656 83.656,83.656 46.206,0 83.656,-37.45 83.656,-83.656 0,-46.206 -37.45,-83.687 -83.656,-83.687 z m 0,53.687 c 16.569,0 30,13.432 30,30 0,16.568 -13.431,30 -30,30 -16.569,0 -30,-13.431 -30,-30 0,-16.569 13.431,-30 30,-30 z"
       fill="#1a1a1a"
       stroke="#000000"
       stroke-linecap="round"
       stroke-width="1.8148"
       id="path21" />
    <path
       d="m 483.06,405.07 c -62.38,0 -112.97,50.588 -112.97,112.97 0,62.382 50.588,112.94 112.97,112.94 62.382,0 112.94,-50.557 112.94,-112.94 0,-62.383 -50.557,-112.97 -112.94,-112.97 z m -0.3125,82.938 c 12.788,-0.1295 24.716,7.9991 28.844,20.812 5.0807,15.77 -3.5735,32.669 -19.344,37.75 -15.7705,5.081 -32.669,-3.5735 -37.75,-19.344 -5.081,-15.7705 3.5734,-32.669 19.344,-37.75 2.9569,-0.9527 5.955,-1.4389 8.9062,-1.4688 z"
       fill="#1a1a1a"
       stroke="#000000"
       stroke-linecap="round"
       stroke-width="1.8148"
       id="path23" />
    <path
       d="m 483.06,462.94 c -30.427,0 -55.094,24.667 -55.094,55.094 0,30.427 24.667,55.094 55.094,55.094 30.427,0 55.094,-24.667 55.094,-55.094 0,-30.427 -24.667,-55.094 -55.094,-55.094 z m -0.3125,25.062 c 12.788,-0.1295 24.716,7.9991 28.844,20.812 5.0807,15.77 -3.5735,32.669 -19.344,37.75 -15.7705,5.081 -32.669,-3.5735 -37.75,-19.344 -5.081,-15.7705 3.5734,-32.669 19.344,-37.75 2.9569,-0.9527 5.955,-1.4389 8.9062,-1.4688 z"
       fill="#b3b3b3"
       stroke="#999999"
       stroke-linecap="round"
       stroke-width="1.8148"
       id="path25" />
    <path
       d="m 263.41,462.94 c -30.427,0 -55.094,24.667 -55.094,55.094 0,30.427 24.667,55.094 55.094,55.094 30.427,0 55.094,-24.667 55.094,-55.094 0,-30.427 -24.667,-55.094 -55.094,-55.094 z m 0,25.094 c 16.569,0 30,13.432 30,30 0,16.568 -13.431,30 -30,30 -16.569,0 -30,-13.431 -30,-30 0,-16.569 13.431,-30 30,-30 z"
       fill="#b3b3b3"
       stroke="#aaaaaa"
       stroke-linecap="round"
       stroke-width="1.8148"
       id="path27" />
    <g
       transform="matrix(0.97774,0.20981,-0.20981,0.97774,-1348.5,-277.75)"
       fill="#999999"
       stroke="#808080"
       stroke-linecap="round"
       stroke-width="2"
       id="g41">
      <path
         d="m 1739.6,407.54 h 8.2143 v 8.2143 H 1739.6 Z"
         id="path29" />
      <path
         transform="rotate(60)"
         d="m 1249.1,-1321.9 h 8.2143 v 8.2143 H 1249.1 Z"
         id="path31" />
      <path
         transform="matrix(-0.5,0.86603,-0.86603,-0.5,0,0)"
         d="m -493.98,-1761.8 h 8.2143 v 8.2143 h -8.2143 z"
         id="path33" />
      <path
         transform="scale(-1)"
         d="m -1746.4,-472.18 h 8.2143 v 8.2143 h -8.2143 z"
         id="path35" />
      <path
         transform="matrix(-0.5,-0.86603,0.86603,-0.5,0,0)"
         d="m -1255.8,1257.3 h 8.2143 v 8.2143 h -8.2143 z"
         id="path37" />
      <path
         transform="matrix(0.5,-0.86603,0.86603,0.5,0,0)"
         d="m 487.19,1697.1 h 8.2143 v 8.2143 H 487.19 Z"
         id="path39" />
    </g>
    <g
       transform="matrix(0.99497,-0.10013,0.10013,0.99497,-1295.3,254.89)"
       fill="#999999"
       stroke="#808080"
       stroke-linecap="round"
       stroke-width="2"
       id="g55">
      <path
         d="m 1739.6,407.54 h 8.2143 v 8.2143 H 1739.6 Z"
         id="path43" />
      <path
         transform="rotate(60)"
         d="m 1249.1,-1321.9 h 8.2143 v 8.2143 H 1249.1 Z"
         id="path45" />
      <path
         transform="matrix(-0.5,0.86603,-0.86603,-0.5,0,0)"
         d="m -493.98,-1761.8 h 8.2143 v 8.2143 h -8.2143 z"
         id="path47" />
      <path
         transform="scale(-1)"
         d="m -1746.4,-472.18 h 8.2143 v 8.2143 h -8.2143 z"
         id="path49" />
      <path
         transform="matrix(-0.5,-0.86603,0.86603,-0.5,0,0)"
         d="m -1255.8,1257.3 h 8.2143 v 8.2143 h -8.2143 z"
         id="path51" />
      <path
         transform="matrix(0.5,-0.86603,0.86603,0.5,0,0)"
         d="m 487.19,1697.1 h 8.2143 v 8.2143 H 487.19 Z"
         id="path53" />
    </g>
    <path
       d="m 124.31,362 c -7.9143,0 -14.312,6.3672 -14.312,14.281 v 291.22 l 5.2812,4.4375 v 16.5 c 0,7.9143 6.3981,14.281 14.313,14.281 h 490.84 c 7.9142,0 14.281,-6.367 14.281,-14.281 v -16.5 l 5.2812,-4.4375 v -291.22 c 0,-7.914 -6.3673,-14.281 -14.281,-14.281 h -501.41 z m 185.88,113.34 h 126.09 v 85.344 H 310.19 Z m 172.56,12.656 c 12.788,-0.1295 24.716,7.9991 28.844,20.812 5.0806,15.77 -3.5735,32.669 -19.344,37.75 -15.7705,5.081 -32.669,-3.5736 -37.75,-19.344 -5.081,-15.7704 3.5733,-32.669 19.344,-37.75 2.9568,-0.9528 5.955,-1.4389 8.9062,-1.4688 z m -219.34,0.031 c 16.569,0 30,13.432 30,30 0,16.568 -13.431,30 -30,30 -16.569,0 -30,-13.431 -30,-30 0,-16.569 13.432,-30 30,-30 z m 34.813,177.47 h 5.7187 c 4.0561,0 7.3125,3.2564 7.3125,7.3125 v 5.7187 c 0,4.0562 -3.2564,7.3438 -7.3125,7.3438 h -5.7187 c -4.0562,0 -7.3126,-3.2876 -7.3126,-7.3438 v -5.7187 c 0,-4.0561 3.2564,-7.3125 7.3126,-7.3125 z m 147.88,0 h 5.7187 c 4.056,0 7.3125,3.2564 7.3125,7.3125 v 5.7187 c 0,4.0562 -3.2565,7.3438 -7.3125,7.3438 h -5.7187 c -4.0562,0 -7.3438,-3.2876 -7.3438,-7.3438 v -5.7187 c 0,-4.0561 3.2876,-7.3125 7.3438,-7.3125 z m -197.5,5.7188 c 6.903,0 12.5,5.5961 12.5,12.5 0,6.9039 -5.597,12.5 -12.5,12.5 -6.903,0 -12.5,-5.5967 -12.5,-12.5 0,-6.9033 5.596,-12.5 12.5,-12.5 z m 252.84,0 c 6.9035,0 12.5,5.5961 12.5,12.5 0,6.9039 -5.5965,12.5 -12.5,12.5 -6.9035,0 -12.5,-5.5967 -12.5,-12.5 0,-6.9033 5.5964,-12.5 12.5,-12.5 z"
       fill="#1a1a1a"
       stroke="#000000"
       stroke-linecap="round"
       stroke-width="4"
       id="path57" />
    <path
       d="m 124.31,362 c -7.9143,0 -14.312,6.3672 -14.312,14.281 v 291.22 l 5.2812,4.4375 v 16.5 c 0,7.9143 6.3981,14.281 14.313,14.281 h 490.84 c 7.9142,0 14.281,-6.367 14.281,-14.281 v -16.5 l 5.2812,-4.4375 v -291.22 c 0,-7.914 -6.3673,-14.281 -14.281,-14.281 h -501.41 z m 185.88,113.34 h 126.09 v 85.344 H 310.19 Z m 172.56,12.656 c 12.788,-0.1295 24.716,7.9991 28.844,20.812 5.0806,15.77 -3.5735,32.669 -19.344,37.75 -15.7705,5.081 -32.669,-3.5736 -37.75,-19.344 -5.081,-15.7704 3.5733,-32.669 19.344,-37.75 2.9568,-0.9528 5.955,-1.4389 8.9062,-1.4688 z m -219.34,0.031 c 16.569,0 30,13.432 30,30 0,16.568 -13.431,30 -30,30 -16.569,0 -30,-13.431 -30,-30 0,-16.569 13.432,-30 30,-30 z m 34.813,177.47 h 5.7187 c 4.0561,0 7.3125,3.2564 7.3125,7.3125 v 5.7187 c 0,4.0562 -3.2564,7.3438 -7.3125,7.3438 h -5.7187 c -4.0562,0 -7.3126,-3.2876 -7.3126,-7.3438 v -5.7187 c 0,-4.0561 3.2564,-7.3125 7.3126,-7.3125 z m 147.88,0 h 5.7187 c 4.056,0 7.3125,3.2564 7.3125,7.3125 v 5.7187 c 0,4.0562 -3.2565,7.3438 -7.3125,7.3438 h -5.7187 c -4.0562,0 -7.3438,-3.2876 -7.3438,-7.3438 v -5.7187 c 0,-4.0561 3.2876,-7.3125 7.3438,-7.3125 z m -197.5,5.7188 c 6.903,0 12.5,5.5961 12.5,12.5 0,6.9039 -5.597,12.5 -12.5,12.5 -6.903,0 -12.5,-5.5967 -12.5,-12.5 0,-6.9033 5.596,-12.5 12.5,-12.5 z m 252.84,0 c 6.9035,0 12.5,5.5961 12.5,12.5 0,6.9039 -5.5965,12.5 -12.5,12.5 -6.9035,0 -12.5,-5.5967 -12.5,-12.5 0,-6.9033 5.5964,-12.5 12.5,-12.5 z"
       fill="url(#a)"
       stroke="#000000"
       stroke-linecap="round"
       stroke-width="4"
       id="path59" />
    <path
       d="m 138.41,390.53 c -0.8903,0 -1.5937,0.7034 -1.5937,1.5938 v 216.78 c 0,0.8904 0.7034,1.625 1.5937,1.625 h 472.5 c 0.8904,0 1.625,-0.7346 1.625,-1.625 v -216.78 c 0,-0.8904 -0.7346,-1.5938 -1.625,-1.5938 z m 171.78,84.813 h 126.06 v 85.375 H 310.19 Z m -46.781,12.687 c 16.569,0 30,13.432 30,30 0,16.568 -13.431,30 -30,30 -16.569,0 -30,-13.431 -30,-30 0,-16.569 13.432,-30 30,-30 z m 219.34,0 c 12.788,-0.1295 24.716,7.9991 28.844,20.813 5.0806,15.77 -3.5735,32.669 -19.344,37.75 -15.7705,5.081 -32.669,-3.6049 -37.75,-19.375 -5.081,-15.7701 3.5733,-32.669 19.344,-37.75 2.9568,-0.9528 5.955,-1.4077 8.9062,-1.4376 z"
       fill="none"
       stroke="#000000"
       stroke-linecap="round"
       stroke-width="2"
       id="path61" />
    <path
       d="m 124.31,362 c -7.9143,0 -14.312,6.3672 -14.312,14.281 v 291.22 l 5.2812,4.4375 v 16.5 c 0,7.9143 6.3981,14.281 14.313,14.281 h 490.84 c 7.9142,0 14.281,-6.367 14.281,-14.281 v -16.5 l 5.2812,-4.4375 v -291.22 c 0,-7.914 -6.3673,-14.281 -14.281,-14.281 h -501.41 z m 185.88,113.34 h 126.09 v 85.344 H 310.19 Z m 172.56,12.656 c 12.788,-0.1295 24.716,7.9991 28.844,20.812 5.0806,15.77 -3.5735,32.669 -19.344,37.75 -15.7705,5.081 -32.669,-3.5736 -37.75,-19.344 -5.081,-15.7704 3.5733,-32.669 19.344,-37.75 2.9568,-0.9528 5.955,-1.4389 8.9062,-1.4688 z m -219.34,0.031 c 16.569,0 30,13.432 30,30 0,16.568 -13.431,30 -30,30 -16.569,0 -30,-13.431 -30,-30 0,-16.569 13.432,-30 30,-30 z m 34.813,177.47 h 5.7187 c 4.0561,0 7.3125,3.2564 7.3125,7.3125 v 5.7187 c 0,4.0562 -3.2564,7.3438 -7.3125,7.3438 h -5.7187 c -4.0562,0 -7.3126,-3.2876 -7.3126,-7.3438 v -5.7187 c 0,-4.0561 3.2564,-7.3125 7.3126,-7.3125 z m 147.88,0 h 5.7187 c 4.056,0 7.3125,3.2564 7.3125,7.3125 v 5.7187 c 0,4.0562 -3.2565,7.3438 -7.3125,7.3438 h -5.7187 c -4.0562,0 -7.3438,-3.2876 -7.3438,-7.3438 v -5.7187 c 0,-4.0561 3.2876,-7.3125 7.3438,-7.3125 z m -197.5,5.7188 c 6.903,0 12.5,5.5961 12.5,12.5 0,6.9039 -5.597,12.5 -12.5,12.5 -6.903,0 -12.5,-5.5967 -12.5,-12.5 0,-6.9033 5.596,-12.5 12.5,-12.5 z m 252.84,0 c 6.9035,0 12.5,5.5961 12.5,12.5 0,6.9039 -5.5965,12.5 -12.5,12.5 -6.9035,0 -12.5,-5.5967 -12.5,-12.5 0,-6.9033 5.5964,-12.5 12.5,-12.5 z"
       fill="none"
       stroke="#000000"
       stroke-linecap="round"
       stroke-width="4"
       id="path63" />
    <g
       transform="translate(102.86,48.929)"
       id="g429">
      <path
         d="m 469.3,569.63 h 37.857 a 1.6071,1.6071 0 0 1 1.6071,1.6071 v 37.857 a 1.6071,1.6071 0 0 1 -1.6071,1.6071 H 469.3 a 1.6071,1.6071 0 0 1 -1.6071,-1.6071 v -37.857 A 1.6071,1.6071 0 0 1 469.3,569.63"
         stroke="#666666"
         stroke-linecap="round"
         stroke-width="2"
         id="path65" />
      <path
         transform="rotate(-90,1140.605,1614.595)"
         d="m 2165,975.61 -15.465,-26.786 h 30.929 z"
         fill="#1a1a1a"
         id="path67" />
      <path
         d="m 111.8,569.67 c 0,0 -6.8259,-0.24508 -8.5937,8.5938 0,0 -9.3385,70.218 -19.188,76.531 h 4.0312 c 0,0 7.3336,-8.0979 8.3438,-13.906 1.7677,-10.102 13.375,-64.125 13.375,-64.125 h 324.75 c 0,0 11.607,54.024 13.375,64.125 1.0102,5.8084 8.3438,13.906 8.3438,13.906 h 4.0312 c -9.849,-6.3136 -19.188,-76.531 -19.188,-76.531 -1.7678,-8.8388 -8.5937,-8.5938 -8.5937,-8.5938 h -320.69 z"
         id="path69" />
      <path
         d="m 122.17,418.73 c -2.5722,0 -4.6562,2.0842 -4.6562,4.6563 v 91.406 c 0,2.5721 2.084,4.6562 4.6562,4.6562 h 296.41 c 2.5722,0 4.6563,-2.0841 4.6563,-4.6562 v -91.406 c 0,-2.5721 -2.0841,-4.6563 -4.6563,-4.6563 z m 85.156,7.6876 h 126.09 v 85.344 h -126.09 z m 172.56,12.656 c 12.788,-0.1295 24.716,7.9991 28.844,20.812 5.0806,15.77 -3.5735,32.669 -19.344,37.75 -15.7705,5.081 -32.669,-3.5736 -37.75,-19.344 -5.081,-15.7704 3.5733,-32.669 19.344,-37.75 2.9568,-0.9528 5.955,-1.4389 8.9062,-1.4688 z m -219.34,0.031 c 16.569,0 30,13.432 30,30 0,16.568 -13.431,30 -30,30 -16.569,0 -30,-13.431 -30,-30 0,-16.569 13.432,-30 30,-30 z"
         id="path71" />
      <path
         d="m 122.71,423.92 v 90.344 H 418.05 V 423.92 Z m 84.625,2.5 h 126.09 v 85.344 h -126.09 z m -81.406,8.0312 h 69.281 v 69.281 h -69.281 z m 219.62,0 h 69.281 v 69.281 h -69.281 z"
         fill="#1a1a1a"
         stroke="#333333"
         stroke-linecap="round"
         stroke-width="2"
         id="path73" />
      <g
         transform="translate(-1584.3,31.731)"
         fill="#808080"
         stroke="#ffffff"
         id="g93">
        <path
           d="m 1802.1,429.86 v 15"
           id="path75" />
        <path
           d="m 1815.3,429.86 v 15"
           id="path77" />
        <path
           d="m 1828.4,429.86 v 15"
           id="path79" />
        <path
           d="m 1841.5,429.86 v 15"
           id="path81" />
        <path
           d="m 1854.6,429.86 v 15"
           id="path83" />
        <path
           d="m 1867.8,429.86 v 15"
           id="path85" />
        <path
           d="m 1880.9,429.86 v 15"
           id="path87" />
        <path
           d="m 1894,429.86 v 15"
           id="path89" />
        <path
           d="m 1907.1,429.86 v 15"
           id="path91" />
      </g>
      <path
         d="m 35.732,569.63 h 37.857 a 1.6071,1.6071 0 0 1 1.6071,1.6071 v 37.857 a 1.6071,1.6071 0 0 1 -1.6071,1.6071 H 35.732 a 1.6071,1.6071 0 0 1 -1.6071,-1.6071 v -37.857 A 1.6071,1.6071 0 0 1 35.732,569.63"
         stroke="#666666"
         stroke-linecap="round"
         stroke-width="2"
         id="path95" />
      <g
         fill="#1a1a1a"
         font-family="FreeSans"
         font-size="40px"
         font-weight="bold"
         letter-spacing="0"
         word-spacing="0"
         id="g99">
        <path
           d="m 60.121,598.86 h -10.92 l -1.96,5.88 h -6.12 l 10.36,-29.16 h 6.64 l 10.08,29.16 h -6.16 l -1.92,-5.88 m -1.64,-5 -3.8,-11.4 -3.8,11.4 h 7.6"
           id="path97" />
      </g>
      <g
         transform="matrix(0.99999,-0.00538,0.00538,0.99999,-1277.2,639.22)"
         id="g143">
        <path
           d="m 1326.5,-287.13 h 453.57 a 4.6429,4.6429 0 0 1 4.6429,4.6429 v 43.571 a 4.6429,4.6429 0 0 1 -4.6429,4.6429 H 1326.5 a 4.6429,4.6429 0 0 1 -4.6429,-4.6429 v -43.571 a 4.6429,4.6429 0 0 1 4.6429,-4.6429"
           fill="#ffffff"
           stroke="#cccccc"
           stroke-linecap="round"
           stroke-width="2"
           id="path101" />
        <g
           transform="translate(-301.03,-991.56)"
           id="g109">
          <path
             d="m 1638.9,715.14 h 22.143 a 4.6429,4.6429 0 0 1 4.6429,4.6429 v 22.143 a 4.6429,4.6429 0 0 1 -4.6429,4.6429 H 1638.9 a 4.6429,4.6429 0 0 1 -4.6429,-4.6429 v -22.143 A 4.6429,4.6429 0 0 1 1638.9,715.14"
             id="path103" />
          <g
             fill="#ffffff"
             font-family="FreeSans"
             font-size="32.614px"
             font-weight="bold"
             letter-spacing="0"
             word-spacing="0"
             id="g107">
            <path
               d="m 1654.5,737.95 h -8.9037 l -1.5981,4.7943 h -4.9901 l 8.4472,-23.776 h 5.414 l 8.2188,23.776 h -5.0226 L 1654.5,737.95 m -1.3372,-4.0768 -3.0984,-9.2951 -3.0983,9.2951 h 6.1967"
               id="path105" />
          </g>
        </g>
        <path
           d="m 1326.5,-287.12 c -2.5721,0 -4.6562,2.0528 -4.6562,4.625 v 3.4687 h 462.88 v -3.4687 c 0,-2.5722 -2.0842,-4.625 -4.6563,-4.625 h -453.56 z m -4.6562,43.812 v 4.4063 c 0,2.5721 2.0841,4.625 4.6562,4.625 h 453.56 c 2.5721,0 4.6563,-2.0529 4.6563,-4.625 v -4.4063 h -462.88 z"
           fill="#cccccc"
           stroke="#cccccc"
           stroke-linecap="round"
           stroke-width="2"
           id="path111" />
        <g
           transform="translate(-301.03,-986.38)"
           id="g141">
          <g
             transform="scale(0.9801,1.0203)"
             font-family="FreeSans"
             font-size="8.3894px"
             font-weight="bold"
             letter-spacing="0"
             word-spacing="0"
             id="g119">
            <path
               d="m 2086.8,702.39 v 2.2651 h -1.2584 V 702.39 l -2.0303,-3.8507 h 1.4011 l 1.25,2.7014 1.1661,-2.7014 h 1.4094 L 2086.8,702.39"
               id="path113" />
            <path
               d="m 2090.8,702.02 v 1.5856 h 3.3138 v 1.0487 h -4.5722 v -6.1159 h 4.4212 v 1.0487 H 2090.8 v 1.3842 h 2.9279 V 702.02 H 2090.8"
               id="path115" />
            <path
               d="m 2099.1755,700.40351 h -1.1745 c -0.045,-0.63759 -0.4726,-0.95639 -1.2836,-0.95639 -0.3243,0 -0.5816,0.0699 -0.7718,0.20973 -0.1901,0.13424 -0.2852,0.316 -0.2852,0.54531 0,0.22372 0.081,0.39151 0.2433,0.50336 0.1623,0.11185 0.467,0.20415 0.9144,0.29363 l 0.9564,0.18457 c 0.5649,0.11186 0.976,0.30202 1.2332,0.57048 0.2573,0.26287 0.386,0.63479 0.386,1.11578 0,0.62082 -0.221,1.1074 -0.6628,1.45976 -0.4418,0.35236 -1.0571,0.52014 -1.8457,0.52014 -0.783,0 -1.3926,-0.17338 -1.8289,-0.52014 -0.4306,-0.34676 -0.6655,-0.84733 -0.7047,-1.5017 h 1.2249 c 0.022,0.32998 0.151,0.58166 0.3859,0.75504 0.2349,0.17338 0.5649,0.26007 0.9899,0.26007 0.3804,0 0.6796,-0.0727 0.8977,-0.21812 0.2181,-0.14542 0.3356,-0.34676 0.3356,-0.60404 0,-0.24608 -0.087,-0.43624 -0.2601,-0.57048 -0.1731,-0.13424 -0.4698,-0.24049 -0.8893,-0.31879 l -0.8557,-0.16779 c -0.6208,-0.11745 -1.0626,-0.30201 -1.3255,-0.5537 -0.2629,-0.25169 -0.3943,-0.61522 -0.3943,-1.09062 0,-0.59844 0.2013,-1.05985 0.604,-1.38425 0.4083,-0.32997 0.9788,-0.49496 1.7115,-0.49497 0.2125,10e-6 0.4166,0.014 0.6124,0.042 0.1958,0.028 0.4139,0.0867 0.6376,0.17617 0.2237,0.0839 0.4167,0.19576 0.5789,0.33558 0.1621,0.13423 0.2964,0.32439 0.4026,0.57048 0.1119,0.2405 0.1678,0.52014 0.1678,0.83894"
               id="path117" />
          </g>
          <path
             d="m 2030.5,711.57 h 8.5714 v 8.5714 H 2030.5 Z"
             fill="none"
             stroke="#000000"
             stroke-linecap="round"
             id="path121" />
          <path
             d="m 2061.5,711.57 h 8.5714 v 8.5714 H 2061.5 Z"
             fill="none"
             stroke="#000000"
             stroke-linecap="round"
             id="path123" />
          <g
             transform="scale(0.9801,1.0203)"
             font-family="FreeSans"
             font-size="8.3894px"
             font-weight="bold"
             letter-spacing="0"
             word-spacing="0"
             id="g133">
            <path
               d="m 2054.4,704.7 -2.4581,-4.2282 V 704.7 h -1.2584 v -6.1159 h 1.292 l 2.4245,4.1611 v -4.1611 h 1.2584 V 704.7 H 2054.4"
               id="path125" />
            <path
               d="m 2057.9,703.48 v 1.2248 h -1.2584 V 703.48 h 1.2584"
               id="path127" />
            <path
               d="m 2062.6013,703.65439 c 0,-0.16779 0,-0.29922 0.01,-0.3943 0.01,-0.0951 0.01,-0.17897 0.01,-0.25168 -10e-5,-0.25727 -0.062,-0.44184 -0.1846,-0.5537 -0.1231,-0.11745 -0.3216,-0.17617 -0.5957,-0.17618 h -1.4429 v 2.42453 h -1.2584 v -6.11586 h 3.2802 c 0.3132,10e-6 0.5817,0.0531 0.8054,0.1594 0.2293,0.10627 0.3999,0.2461 0.5117,0.41947 0.1175,0.17339 0.2014,0.34956 0.2517,0.52853 0.05,0.17339 0.076,0.35516 0.076,0.54531 0,0.73827 -0.3439,1.24163 -1.0319,1.51009 0.151,0.0615 0.2629,0.11186 0.3356,0.15101 0.073,0.0336 0.1454,0.0923 0.2181,0.17618 0.078,0.0839 0.1287,0.1594 0.151,0.22651 0.028,0.0671 0.053,0.19016 0.075,0.36913 0.028,0.17898 0.045,0.35516 0.05,0.52853 0,0.17337 0.011,0.43066 0.017,0.77183 0,0.2349 0.089,0.40269 0.2684,0.50336 v 0.22651 h -1.3507 c -0.078,-0.14541 -0.1314,-0.28523 -0.1594,-0.41947 -0.022,-0.13422 -0.034,-0.34396 -0.034,-0.6292 m 0.2013,-3.2383 c 0,-0.3132 -0.073,-0.52014 -0.2181,-0.62081 -0.1454,-0.10626 -0.3691,-0.1594 -0.6712,-0.1594 h -1.5184 v 1.59398 h 1.5184 c 0.2965,0 0.5174,-0.0531 0.6628,-0.1594 0.1454,-0.1063 0.2265,-0.32438 0.2265,-0.65437"
               id="path129" />
            <path
               d="m 2066.3,703.48 v 1.2248 h -1.2584 V 703.48 h 1.2584"
               id="path131" />
          </g>
          <g
             transform="scale(0.9801,1.0203)"
             font-family="FreeSans"
             font-size="8.3894px"
             font-weight="bold"
             letter-spacing="0"
             word-spacing="0"
             id="g139">
            <path
               d="m 2117.4,704.66 -2.4581,-4.2282 v 4.2282 h -1.2584 v -6.1159 h 1.2919 l 2.4246,4.1611 v -4.1611 h 1.2584 V 704.66 H 2117.4"
               id="path135" />
            <path
               d="m 2120.3169,703.95221 c -0.5369,-0.59844 -0.8054,-1.36746 -0.8054,-2.30708 0,-0.93962 0.2685,-1.70863 0.8054,-2.30708 0.5369,-0.59845 1.2528,-0.89765 2.1309,-0.89766 0.8781,-10e-6 1.5968,0.29923 2.1393,0.89766 0.5425,0.59286 0.8137,1.37587 0.8137,2.34903 0,0.90606 -0.2684,1.6611 -0.8053,2.26513 -0.5314,0.59845 -1.2445,0.89767 -2.1393,0.89767 -0.8948,0 -1.6024,-0.29922 -2.1393,-0.89767 m 2.1393,-4.43798 c -0.509,10e-6 -0.9173,0.19576 -1.2249,0.58726 -0.3076,0.3915 -0.4614,0.90046 -0.4614,1.54364 0,0.64318 0.1538,1.16054 0.4614,1.55204 0.3076,0.3915 0.7159,0.57887 1.2249,0.57887 0.5033,0 0.9088,-0.19296 1.2164,-0.57887 0.3076,-0.38591 0.4698,-0.89207 0.4698,-1.51848 0,-0.65996 -0.1538,-1.18569 -0.4614,-1.5772 -0.302,-0.3915 -0.7103,-0.58725 -1.2248,-0.58726"
               id="path137" />
          </g>
        </g>
      </g>
      <g
         transform="matrix(0.99999,0.00369,-0.00369,0.99999,-1283.4,626.56)"
         id="g387">
        <path
           d="m 1326.5,-225.69 c -2.5721,0 -4.6562,2.0529 -4.6562,4.625 v 141.44 c 0,2.5721 2.0841,4.625 4.6562,4.625 h 453.56 c 2.5721,0 4.6563,-2.0529 4.6563,-4.625 v -141.44 c 0,-2.5721 -2.0842,-4.625 -4.6563,-4.625 z m 77.156,12.125 h 296.41 c 2.5722,0 4.6563,2.0841 4.6563,4.6563 v 91.406 c 0,2.5721 -2.0841,4.6562 -4.6563,4.6562 h -296.41 c -2.5722,0 -4.6562,-2.0841 -4.6562,-4.6562 v -91.406 c 0,-2.5721 2.084,-4.6563 4.6562,-4.6563 z"
           fill="#ffffff"
           stroke="#ff2a2a"
           stroke-linecap="round"
           stroke-width="2"
           id="path145" />
        <g
           transform="matrix(0.06431,0,0,0.06431,1235.2,-222.88)"
           id="g151">
          <path
             transform="matrix(15.551,-0.05741,0.05741,15.551,811.22,-1514)"
             d="M 94.78125,148.46875 94.75,155.875 l -0.03125,7.4375 h 1.375 H 97.5 l 0.03125,-7.40625 v -7.4375 h -1.375 z m 5.15625,0 -0.03125,7.4375 -0.03125,7.4375 h 1.34375 1.34375 l 0.0312,-7.4375 0.0312,-7.40625 -1.34375,-0.0312 H 99.9374 Z m -58.46875,2.6875 c -0.11608,0.0166 -0.1363,0.0744 -0.21875,0.15625 l -0.1875,0.15625 v 5.8125 L 41.03125,163.125 H 42.25 43.46875 L 43.5,158.15625 c 0.01283,-3.47456 0.04344,-5.04486 0.09375,-5.1875 0.12522,-0.35499 0.33692,-0.42072 1.5,-0.4375 0.85072,-0.0123 1.07826,-6.7e-4 1.34375,0.0937 0.58178,0.20691 0.55226,-0.16064 0.53125,5.53125 l -0.03125,4.96875 1.25,0.0312 h 1.28125 v -4.96875 c 0.02073,-5.61529 -0.0052,-5.26943 0.53125,-5.53125 0.2608,-0.12729 0.40147,-0.14016 1.1875,-0.15625 0.96745,-0.0198 1.38395,0.0386 1.59375,0.25 0.12155,0.12245 0.11225,0.23775 0.09375,5.25 v 5.15625 h 1.28125 1.28125 l 0.03125,-5.375 c 0.01384,-3.74972 -0.01303,-5.45665 -0.0625,-5.65625 -0.16083,-0.64884 -0.89291,-0.92739 -2.46875,-0.9375 -1.31231,-0.008 -2.46162,0.24085 -2.96875,0.625 L 49.6875,152.03125 49.5,151.875 c -0.48673,-0.45831 -1.466,-0.68281 -2.9375,-0.6875 -0.89382,-0.003 -1.80165,0.0936 -2.5,0.3125 l -0.5,0.1875 -0.09375,-0.15625 c -0.16044,-0.23086 -0.51763,-0.30696 -1.3125,-0.34375 -0.37008,-0.0171 -0.57142,-0.0479 -0.6875,-0.0312 z m 17.3125,0.0937 -0.25,0.15625 c -0.15057,0.0797 -0.37091,0.2597 -0.46875,0.40625 l -0.1875,0.25 v 1.375 l -0.03125,1.375 h 1.28125 1.28125 v -0.8125 c 0.0017,-0.45748 0.05827,-0.9077 0.09375,-1 0.12912,-0.33587 0.33621,-0.37393 2.46875,-0.34375 2.11542,0.0299 2.15427,0.0376 2.28125,0.40625 0.03613,0.10488 0.06533,0.79481 0.0625,1.5625 -0.004,1.09515 -0.01673,1.41491 -0.09375,1.5625 -0.20997,0.40238 -0.06959,0.38928 -3.9375,0.375 h -3.5 v 2.65625 c 0.0094,2.61387 0.01096,2.64458 0.15625,2.96875 0.18071,0.40319 0.53353,0.77984 0.875,0.90625 0.2149,0.0796 0.98294,0.0762 4.71875,0.0937 l 4.4375,0.0312 0.03125,-5.25 c 0.01286,-3.48359 -0.01744,-5.34855 -0.0625,-5.5625 -0.08699,-0.41304 -0.37202,-0.78191 -0.71875,-0.96875 l -0.25,-0.15625 H 62.875 l -4.09375,-0.0312 z M 69.5,151.28125 c -7.3e-5,0.0198 1.01683,1.47948 2.25,3.21875 1.23317,1.73927 2.22939,3.19071 2.21875,3.21875 -0.01064,0.028 -0.99735,1.2184 -2.1875,2.65625 -1.19015,1.43785 -2.20355,2.65449 -2.25,2.71875 -0.0803,0.11107 -0.03597,0.12244 0.65625,0.125 h 0.71875 l 1.8125,-2.15625 c 0.99414,-1.18346 1.84984,-2.20912 1.90625,-2.28125 0.09858,-0.12606 0.15607,-0.0175 1.71875,2.1875 l 1.625,2.28125 h 1.625 1.625 L 78.875,159.90625 c -2.01793,-2.90457 -2.32162,-3.37806 -2.25,-3.46875 0.04556,-0.0577 1.00423,-1.19052 2.125,-2.53125 1.12077,-1.34073 2.06668,-2.48782 2.09375,-2.53125 0.03795,-0.0609 -0.13746,-0.0602 -0.75,-0.0625 l -0.78125,-0.0312 -1.09375,1.34375 c -0.6024,0.72874 -1.39355,1.66454 -1.75,2.09375 L 75.8125,155.5 74.34375,153.375 72.875,151.28125 h -1.6875 c -0.93261,-0.003 -1.68743,-0.0198 -1.6875,0 z m 14,0.0625 -0.34375,0.15625 c -0.41319,0.18487 -0.74658,0.5575 -0.84375,0.9375 -0.09717,0.38 -0.15712,9.14446 -0.0625,9.59375 0.10628,0.50464 0.38715,0.90849 0.78125,1.09375 l 0.34375,0.15625 h 4.03125 4.03125 l 0.34375,-0.15625 c 0.3941,-0.18526 0.67497,-0.58911 0.78125,-1.09375 0.0946,-0.44929 0.06675,-9.21082 -0.03125,-9.59375 -0.098,-0.38293 -0.4618,-0.75263 -0.875,-0.9375 l -0.3125,-0.15625 -3.9375,0.0312 v -0.0312 z m 2,1.375 1.90625,0.0312 h 1.90625 l 0.15625,0.15625 0.15625,0.15625 v 1.5 l 0.03125,1.53125 0.0625,1.84375 v 1.75 1.71875 l -0.15625,0.125 c -0.31991,0.25356 -0.63669,0.30689 -2.15625,0.3125 -1.51956,-0.006 -1.83634,-0.0589 -2.15625,-0.3125 l -0.15625,-0.125 v -1.71875 -1.75 l 0.0625,-1.84375 0.03125,-1.53125 v -1.5 L 85.34375,152.9062 85.5,152.7187 Z M 61.0625,158 c 0.27403,-0.0168 0.796,-0.004 1.78125,0 1.90048,0.007 2.00695,0.006 2.125,0.125 0.18372,0.18508 0.21507,0.40867 0.1875,1.90625 -0.02266,1.23057 -0.04494,1.37806 -0.15625,1.5 -0.12006,0.13153 -0.17139,0.13233 -2.15625,0.125 -1.7364,-0.006 -2.06578,-0.0391 -2.1875,-0.125 -0.14075,-0.0994 -0.13081,-0.11446 -0.125,-1.6875 0.0058,-1.58177 0.0079,-1.58044 0.15625,-1.71875 0.07337,-0.0684 0.10097,-0.10823 0.375,-0.125 z"
             id="path147" />
          <path
             d="m 5260.8,1265.3 -0.054,101.62 -0.052,102.05 18.865,-0.07 19.294,-0.071 0.054,-101.62 -0.3767,-102.04 -18.865,0.07 -18.865,0.07 z m 70.744,-0.2611 -0.052,102.05 -0.052,102.05 18.436,-0.068 18.436,-0.068 0.052,-102.05 0.054,-101.62 -18.438,-0.3607 -18.436,0.068 z m -802.06,39.834 c -1.5918,0.2336 -1.8663,1.0278 -2.9934,2.1549 l -2.5646,2.1532 0.2944,79.748 -0.1327,80.179 16.721,-0.062 16.721,-0.062 0.1771,-68.174 c 0,-47.672 0.3404,-69.218 1.0235,-71.178 1.7001,-4.8768 4.6012,-5.7894 20.558,-6.0785 11.672,-0.2114 14.794,-0.063 18.441,1.2182 7.9926,2.8094 7.5689,-2.232 7.5689,75.863 l -0.1771,68.174 17.152,0.3654 17.579,-0.065 -0.2516,-68.172 c 0,-77.044 -0.3385,-72.297 7.0087,-75.916 3.5718,-1.7597 5.5011,-1.9434 16.285,-2.204 13.272,-0.3206 18.99,0.4602 21.879,3.3494 1.6739,1.6739 1.5522,3.2562 1.5522,72.026 l 0.2612,70.744 17.579,-0.065 17.579,-0.065 0.1565,-73.747 c 0,-51.447 -0.4551,-74.865 -1.144,-77.601 -2.2396,-8.894 -12.298,-12.679 -33.919,-12.738 -18.006,-0.049 -33.762,3.4291 -40.7,8.7255 l -3.8477,3.0155 -2.5805,-2.1343 c -6.7012,-6.2634 -20.148,-9.294 -40.338,-9.2838 -12.264,0.01 -24.714,1.375 -34.285,4.4142 l -6.8506,2.5979 -1.2941,-2.1391 c -2.213,-3.1593 -7.1176,-4.1853 -18.025,-4.6498 -5.0784,-0.2163 -7.8423,-0.6276 -9.4341,-0.394 z m 237.53,0.4094 -3.422,2.1564 c -2.0619,1.1014 -5.0758,3.5819 -6.4108,5.5976 l -2.5599,3.4395 0.07,18.865 -0.359,18.867 17.579,-0.065 17.579,-0.064 -0.041,-11.148 c 0,-6.2767 0.7535,-12.457 1.2356,-13.725 1.7546,-4.6148 4.5939,-5.1474 33.854,-4.8414 29.025,0.3036 29.559,0.407 31.32,5.4583 0.501,1.4371 0.9366,10.902 0.9366,21.435 0,15.026 -0.1579,19.414 -1.2071,21.442 -2.8604,5.5314 -0.935,5.3445 -54.004,5.3445 l -48.02,0.1773 0.1345,36.444 c 0.2618,35.862 0.2843,36.283 2.2941,40.724 2.4998,5.5226 7.3596,10.672 12.051,12.39 2.9524,1.0806 13.49,0.9951 64.747,1.0473 l 60.885,0.204 0.1629,-72.032 c 0,-47.796 -0.5102,-73.382 -1.1393,-76.315 -1.2144,-5.6625 -5.1438,-10.709 -9.9104,-13.255 l -3.4379,-2.1312 -56.167,0.2074 -56.168,-0.2214 z m 147.06,-0.1142 c 0,0.2716 14.026,20.247 31.033,44.048 17.007,23.801 30.749,43.664 30.605,44.049 -0.144,0.385 -13.622,16.767 -29.878,36.555 -16.256,19.788 -30.098,36.532 -30.732,37.416 -1.0961,1.528 -0.4873,1.6817 9.0101,1.6818 l 9.8614,-0.036 24.758,-29.676 c 13.58,-16.288 25.268,-30.403 26.038,-31.396 1.3461,-1.7345 2.1403,-0.2481 23.692,29.926 l 22.411,31.217 22.295,-0.082 22.295,-0.082 -32.326,-45.758 c -27.834,-39.749 -32.024,-46.23 -31.046,-47.478 0.6222,-0.7938 13.718,-16.385 29.027,-34.837 15.309,-18.452 28.229,-34.238 28.598,-34.835 0.5175,-0.8374 -1.8891,-0.8195 -10.293,-0.8195 l -10.72,-0.3892 -14.938,18.492 c -8.2282,10.029 -19.035,22.908 -23.904,28.815 l -8.9643,10.752 -20.259,-29.081 -20.258,-28.652 -23.153,0.086 c -12.796,0 -23.153,-0.1861 -23.153,0.086 z m 192.09,0.1484 -4.7085,2.1612 c -5.6597,2.5574 -10.215,7.6868 -11.529,12.905 -1.3241,5.2588 -1.6926,125.47 -0.3716,131.63 1.4837,6.9183 5.3578,12.445 10.774,14.967 l 4.7242,2.1263 55.309,-0.2042 55.309,-0.2041 4.7083,-2.1612 c 5.3977,-2.5618 9.2309,-8.1169 10.664,-15.046 1.2752,-6.1692 0.4493,-126.38 -0.9146,-131.63 -1.3529,-5.2088 -6.3742,-10.303 -12.053,-12.818 l -4.2954,-2.128 -54.022,0.6282 v -0.4287 l -53.594,0.1978 z m 27.51,18.764 26.156,0.3322 26.154,-0.096 2.1516,2.1358 2.1517,2.1359 0.076,20.58 0.5063,21.007 0.9509,25.293 0.089,24.01 0.087,23.582 -2.1374,1.7229 c -4.3764,3.4951 -8.7199,4.2429 -29.568,4.3967 -20.849,0 -25.198,-0.7156 -29.6,-4.1782 l -2.1501,-1.7072 -0.087,-23.582 -0.089,-24.01 0.7642,-25.3 0.3511,-21.01 -0.076,-20.58 2.1358,-2.1517 2.1343,-2.5804 z m -335.02,73.697 c 3.7589,-0.244 10.921,-0.09 24.439,-0.09 26.075,10e-5 27.536,-0.019 29.162,1.6073 2.53,2.5301 2.9715,5.5962 2.6691,26.145 -0.2486,16.885 -0.5469,18.91 -2.0679,20.588 -1.6405,1.8107 -2.3447,1.8243 -29.578,1.8243 -23.824,0 -28.345,-0.4315 -30.019,-1.6042 -1.9362,-1.3565 -1.8005,-1.5638 -1.8005,-23.146 0,-21.702 0.029,-21.684 2.0567,-23.589 1.0032,-0.9425 1.3798,-1.49 5.1387,-1.734 z"
             fill="#ffffff"
             id="path149" />
        </g>
        <path
           d="m 1730.1,-187.6 h 27.022 a 3.0305,3.0305 0 0 1 3.0305,3.0305 v 15.657 a 3.0305,3.0305 0 0 1 -3.0305,3.0305 H 1730.1 a 3.0305,3.0305 0 0 1 -3.0305,-3.0305 v -15.657 A 3.0305,3.0305 0 0 1 1730.1,-187.6"
           id="path153" />
        <g
           transform="scale(0.9801,1.0203)"
           fill="#ffffff"
           font-family="FreeSans"
           font-size="19.026px"
           font-weight="bold"
           letter-spacing="0"
           word-spacing="0"
           id="g159">
          <path
             d="m 1773.3406,-166.21112 c -0.4693,0.0888 -0.9577,0.13318 -1.465,0.13318 -0.5073,0 -1.0021,-0.0444 -1.4841,-0.13318 -0.4693,-0.0888 -0.9577,-0.24735 -1.465,-0.47567 -0.4947,-0.22831 -0.926,-0.52005 -1.2938,-0.87522 -0.3678,-0.35517 -0.6723,-0.82447 -0.9133,-1.40796 -0.2283,-0.59616 -0.3425,-1.26842 -0.3425,-2.0168 v -9.39909 h 2.854 v 9.39909 c 0,1.64896 0.8815,2.47344 2.6447,2.47344 1.7632,0 2.6446,-0.82448 2.6447,-2.47344 v -9.39909 h 2.8539 v 9.39909 c 0,0.74838 -0.1205,1.42064 -0.3615,2.0168 -0.2283,0.58349 -0.5264,1.0528 -0.8942,1.40796 -0.3678,0.35516 -0.8055,0.64691 -1.3128,0.87522 -0.4947,0.22832 -0.9831,0.38687 -1.4651,0.47567"
             id="path155" />
          <path
             d="m 1788.0606,-168.89386 c 0,-0.38053 0.01,-0.67861 0.019,-0.89424 0.01,-0.21563 0.019,-0.4059 0.019,-0.5708 0,-0.58347 -0.1395,-1.00206 -0.4186,-1.25575 -0.279,-0.26636 -0.7293,-0.39955 -1.3508,-0.39955 h -3.2726 v 5.49865 h -2.854 v -13.87031 h 7.4394 c 0.7103,2e-5 1.3192,0.12052 1.8265,0.36151 0.5201,0.24101 0.907,0.55812 1.1607,0.95132 0.2663,0.39323 0.4566,0.79278 0.5707,1.19867 0.1142,0.39322 0.1713,0.80546 0.1713,1.23672 0,1.67434 -0.7801,2.81593 -2.3403,3.42477 0.3425,0.13953 0.5962,0.25369 0.7611,0.34248 0.1649,0.0761 0.3298,0.20929 0.4947,0.39955 0.1775,0.19027 0.2917,0.36151 0.3425,0.51372 0.063,0.15221 0.1204,0.43127 0.1712,0.83716 0.063,0.4059 0.1015,0.80546 0.1141,1.19867 0.013,0.39321 0.025,0.9767 0.038,1.75044 0,0.53274 0.2029,0.91327 0.6088,1.14159 v 0.51371 h -3.0632 c -0.1776,-0.32979 -0.2981,-0.6469 -0.3615,-0.95132 -0.051,-0.30443 -0.076,-0.78009 -0.076,-1.42699 m 0.4566,-7.34422 c 0,-0.71031 -0.1649,-1.17963 -0.4947,-1.40796 -0.3298,-0.24099 -0.8372,-0.36149 -1.5221,-0.36151 h -3.4438 v 3.61504 h 3.4438 c 0.6723,0 1.1733,-0.1205 1.5031,-0.36151 0.3425,-0.24099 0.5137,-0.73568 0.5137,-1.48406"
             id="path157" />
        </g>
        <g
           transform="scale(0.9801,1.0203)"
           fill="#0000ff"
           font-family="FreeSans"
           font-size="28.458px"
           font-weight="bold"
           letter-spacing="0"
           word-spacing="0"
           id="g165">
          <path
             d="m 1777.9783,-150.03105 c 0,1.82129 -0.1613,3.4244 -0.4838,4.80933 -0.3225,1.38493 -0.7304,2.47581 -1.2237,3.27262 -0.4743,0.79681 -1.0529,1.44185 -1.7359,1.93511 -0.683,0.47429 -1.3375,0.78732 -1.9635,0.9391 -0.6261,0.17074 -1.2996,0.25612 -2.0205,0.25612 -1.7454,0 -3.2063,-0.50275 -4.3825,-1.50825 -1.1573,-1.02447 -1.7549,-2.31455 -1.7928,-3.87023 h 3.8417 c 0.038,0.58813 0.2751,1.06242 0.7115,1.42288 0.4553,0.36046 1.0339,0.54069 1.7359,0.54069 2.2197,0 3.3295,-1.91614 3.3295,-5.74843 -0.019,0.019 -0.095,0.11384 -0.2276,0.28458 -0.1328,0.15178 -0.2467,0.2751 -0.3415,0.36995 l -0.37,0.36995 c -0.1707,0.15178 -0.351,0.27509 -0.5407,0.36994 -0.1707,0.0949 -0.3794,0.19921 -0.626,0.31304 -0.2277,0.0949 -0.4933,0.17075 -0.7968,0.22766 -0.3036,0.0379 -0.6261,0.0569 -0.9676,0.0569 -1.7833,1e-5 -3.2347,-0.64503 -4.354,-1.93511 -1.1193,-1.29008 -1.679,-2.97855 -1.679,-5.06545 0,-2.10584 0.6261,-3.81329 1.8782,-5.12236 1.2711,-1.328 2.9122,-1.99201 4.9232,-1.99203 0.645,2e-5 1.2616,0.0759 1.8497,0.22766 0.5881,0.13283 1.2047,0.42689 1.8497,0.88219 0.664,0.43637 1.2332,1.00552 1.7075,1.70745 0.4932,0.70197 0.8916,1.67901 1.1952,2.93113 0.3225,1.25215 0.4838,2.69399 0.4838,4.32555 m -7.1998,-6.82981 c -0.8916,1e-5 -1.6031,0.35099 -2.1343,1.05292 -0.5122,0.683 -0.7683,1.60313 -0.7683,2.76039 0,1.15726 0.2656,2.07741 0.7968,2.76038 0.5312,0.66402 1.2521,0.99603 2.1627,0.99602 0.9106,-1e-5 1.6506,-0.34149 2.2197,-1.02448 0.5691,-0.68299 0.8537,-1.57464 0.8538,-2.67501 -10e-5,-1.17623 -0.2846,-2.11533 -0.8538,-2.8173 -0.5502,-0.70193 -1.309,-1.05291 -2.2766,-1.05292"
             id="path161" />
          <path
             d="m 1790.3186,-139.64404 c -0.9296,0.5312 -2.0679,0.79681 -3.4149,0.79681 -1.347,0 -2.4853,-0.26561 -3.4149,-0.79681 -0.9296,-0.55018 -1.6505,-1.32802 -2.1627,-2.33352 -0.4933,-1.0055 -0.8443,-2.10586 -1.053,-3.30108 -0.2087,-1.21418 -0.313,-2.6086 -0.313,-4.18326 0,-3.85124 0.5691,-6.53574 1.7074,-8.05349 1.2522,-1.7264 2.9976,-2.58962 5.2362,-2.58964 2.4474,2e-5 4.2876,0.99604 5.5208,2.98805 0.9486,1.53672 1.4229,4.12636 1.4229,7.76891 0,1.51775 -0.1044,2.87422 -0.3131,4.06943 -0.2087,1.17625 -0.5596,2.27661 -1.0529,3.30108 -0.4933,1.0055 -1.2142,1.78334 -2.1628,2.33352 m -0.4553,-9.7894 c 0,-2.02996 -0.1328,-3.60461 -0.3984,-4.72396 -0.2466,-1.11931 -0.5691,-1.84972 -0.9675,-2.19123 -0.3985,-0.36044 -0.9297,-0.54068 -1.5937,-0.54069 -1.0624,1e-5 -1.8213,0.54071 -2.2766,1.62208 -0.4553,1.06243 -0.683,2.98805 -0.683,5.77688 0,1.93512 0.1234,3.45286 0.37,4.55321 0.2466,1.08139 0.5691,1.80232 0.9676,2.16278 0.4173,0.34149 0.958,0.51223 1.622,0.51223 1.1573,0 1.9731,-0.61657 2.4474,-1.84974 0.3415,-0.94858 0.5122,-2.72243 0.5122,-5.32156"
             id="path163" />
        </g>
        <path
           d="m 1326.5,-225.69 c -2.5721,0 -4.6562,2.053 -4.6562,4.625 v 141.44 c 0,2.572 2.0841,4.625 4.6562,4.625 h 453.56 c 2.5721,0 4.6563,-2.053 4.6563,-4.625 v -141.44 c 0,-2.572 -2.0842,-4.625 -4.6563,-4.625 z m 3.125,6.9376 h 447.31 c 2.5722,0 4.625,2.0528 4.625,4.625 v 101.84 c 0,2.5721 -2.0528,4.625 -4.625,4.625 h -447.31 c -2.5722,0 -4.625,-2.0528 -4.625,-4.625 v -101.84 c 0,-2.5722 2.0528,-4.625 4.625,-4.625 z"
           fill="#ff0000"
           stroke="#ff0000"
           stroke-linecap="round"
           stroke-width="2"
           id="path167" />
        <g
           transform="translate(-301.03,-989.95)"
           id="g355">
          <g
             transform="translate(-1.443e-5,384.87)"
             id="g229">
            <use
               transform="translate(69.195)"
               width="1098.4252"
               height="1452.7559"
               id="use169"
               x="0"
               y="0" />
            <use
               transform="matrix(0.98,0,0,1,105.39,0)"
               width="1098.4252"
               height="1452.7559"
               id="use171"
               x="0"
               y="0" />
            <use
               transform="matrix(0.96,0,0,1,141.58,0)"
               width="1098.4252"
               height="1452.7559"
               id="use173"
               x="0"
               y="0" />
            <use
               transform="matrix(0.94,0,0,1,177.78,0)"
               width="1098.4252"
               height="1452.7559"
               id="use175"
               x="0"
               y="0" />
            <use
               transform="matrix(0.92,0,0,1,213.97,0)"
               width="1098.4252"
               height="1452.7559"
               id="use177"
               x="0"
               y="0" />
            <use
               transform="matrix(0.9,0,0,1,250.16,0)"
               width="1098.4252"
               height="1452.7559"
               id="use179"
               x="0"
               y="0" />
            <use
               transform="matrix(0.88,0,0,1,286.36,0)"
               width="1098.4252"
               height="1452.7559"
               id="use181"
               x="0"
               y="0" />
            <use
               transform="matrix(0.86,0,0,1,322.55,0)"
               width="1098.4252"
               height="1452.7559"
               id="use183"
               x="0"
               y="0" />
            <use
               transform="matrix(0.84,0,0,1,358.75,0)"
               width="1098.4252"
               height="1452.7559"
               id="use185"
               x="0"
               y="0" />
            <use
               transform="matrix(0.82,0,0,1,394.94,0)"
               width="1098.4252"
               height="1452.7559"
               id="use187"
               x="0"
               y="0" />
            <use
               transform="matrix(0.8,0,0,1,431.13,0)"
               width="1098.4252"
               height="1452.7559"
               id="use189"
               x="0"
               y="0" />
            <use
               transform="matrix(0.78,0,0,1,467.33,0)"
               width="1098.4252"
               height="1452.7559"
               id="use191"
               x="0"
               y="0" />
            <use
               transform="matrix(0.76,0,0,1,503.52,0)"
               width="1098.4252"
               height="1452.7559"
               id="use193"
               x="0"
               y="0" />
            <use
               transform="matrix(0.74,0,0,1,539.71,0)"
               width="1098.4252"
               height="1452.7559"
               id="use195"
               x="0"
               y="0" />
            <use
               transform="matrix(0.72,0,0,1,575.91,0)"
               width="1098.4252"
               height="1452.7559"
               id="use197"
               x="0"
               y="0" />
            <use
               transform="matrix(0.7,0,0,1,612.1,0)"
               width="1098.4252"
               height="1452.7559"
               id="use199"
               x="0"
               y="0" />
            <use
               transform="matrix(0.68,0,0,1,648.3,0)"
               width="1098.4252"
               height="1452.7559"
               id="use201"
               x="0"
               y="0" />
            <use
               transform="matrix(0.66,0,0,1,684.49,0)"
               width="1098.4252"
               height="1452.7559"
               id="use203"
               x="0"
               y="0" />
            <use
               transform="matrix(0.64,0,0,1,720.68,0)"
               width="1098.4252"
               height="1452.7559"
               id="use205"
               x="0"
               y="0" />
            <use
               transform="matrix(0.62,0,0,1,756.88,0)"
               width="1098.4252"
               height="1452.7559"
               id="use207"
               x="0"
               y="0" />
            <use
               transform="matrix(0.6,0,0,1,793.07,0)"
               width="1098.4252"
               height="1452.7559"
               id="use209"
               x="0"
               y="0" />
            <use
               transform="matrix(0.58,0,0,1,829.26,0)"
               width="1098.4252"
               height="1452.7559"
               id="use211"
               x="0"
               y="0" />
            <use
               transform="matrix(0.56,0,0,1,865.46,0)"
               width="1098.4252"
               height="1452.7559"
               id="use213"
               x="0"
               y="0" />
            <use
               transform="matrix(0.54,0,0,1,901.65,0)"
               width="1098.4252"
               height="1452.7559"
               id="use215"
               x="0"
               y="0" />
            <use
               transform="matrix(0.52,0,0,1,937.85,0)"
               width="1098.4252"
               height="1452.7559"
               id="use217"
               x="0"
               y="0" />
            <use
               transform="matrix(0.5,0,0,1,974.04,0)"
               width="1098.4252"
               height="1452.7559"
               id="use219"
               x="0"
               y="0" />
            <use
               transform="matrix(0.48,0,0,1,1010.2,0)"
               width="1098.4252"
               height="1452.7559"
               id="use221"
               x="0"
               y="0" />
            <use
               transform="matrix(0.46,0,0,1,1046.4,0)"
               width="1098.4252"
               height="1452.7559"
               id="use223"
               x="0"
               y="0" />
            <use
               transform="matrix(0.44,0,0,1,1082.6,0)"
               width="1098.4252"
               height="1452.7559"
               id="use225"
               x="0"
               y="0" />
            <use
               transform="matrix(0.42,0,0,1,1118.8,0)"
               width="1098.4252"
               height="1452.7559"
               id="use227"
               x="0"
               y="0" />
          </g>
          <g
             transform="translate(154.05,384.87)"
             id="g291">
            <use
               transform="translate(69.195)"
               width="1098.4252"
               height="1452.7559"
               id="use231"
               x="0"
               y="0" />
            <use
               transform="matrix(0.98,0,0,1,105.39,0)"
               width="1098.4252"
               height="1452.7559"
               id="use233"
               x="0"
               y="0" />
            <use
               transform="matrix(0.96,0,0,1,141.58,0)"
               width="1098.4252"
               height="1452.7559"
               id="use235"
               x="0"
               y="0" />
            <use
               transform="matrix(0.94,0,0,1,177.78,0)"
               width="1098.4252"
               height="1452.7559"
               id="use237"
               x="0"
               y="0" />
            <use
               transform="matrix(0.92,0,0,1,213.97,0)"
               width="1098.4252"
               height="1452.7559"
               id="use239"
               x="0"
               y="0" />
            <use
               transform="matrix(0.9,0,0,1,250.16,0)"
               width="1098.4252"
               height="1452.7559"
               id="use241"
               x="0"
               y="0" />
            <use
               transform="matrix(0.88,0,0,1,286.36,0)"
               width="1098.4252"
               height="1452.7559"
               id="use243"
               x="0"
               y="0" />
            <use
               transform="matrix(0.86,0,0,1,322.55,0)"
               width="1098.4252"
               height="1452.7559"
               id="use245"
               x="0"
               y="0" />
            <use
               transform="matrix(0.84,0,0,1,358.75,0)"
               width="1098.4252"
               height="1452.7559"
               id="use247"
               x="0"
               y="0" />
            <use
               transform="matrix(0.82,0,0,1,394.94,0)"
               width="1098.4252"
               height="1452.7559"
               id="use249"
               x="0"
               y="0" />
            <use
               transform="matrix(0.8,0,0,1,431.13,0)"
               width="1098.4252"
               height="1452.7559"
               id="use251"
               x="0"
               y="0" />
            <use
               transform="matrix(0.78,0,0,1,467.33,0)"
               width="1098.4252"
               height="1452.7559"
               id="use253"
               x="0"
               y="0" />
            <use
               transform="matrix(0.76,0,0,1,503.52,0)"
               width="1098.4252"
               height="1452.7559"
               id="use255"
               x="0"
               y="0" />
            <use
               transform="matrix(0.74,0,0,1,539.71,0)"
               width="1098.4252"
               height="1452.7559"
               id="use257"
               x="0"
               y="0" />
            <use
               transform="matrix(0.72,0,0,1,575.91,0)"
               width="1098.4252"
               height="1452.7559"
               id="use259"
               x="0"
               y="0" />
            <use
               transform="matrix(0.7,0,0,1,612.1,0)"
               width="1098.4252"
               height="1452.7559"
               id="use261"
               x="0"
               y="0" />
            <use
               transform="matrix(0.68,0,0,1,648.3,0)"
               width="1098.4252"
               height="1452.7559"
               id="use263"
               x="0"
               y="0" />
            <use
               transform="matrix(0.66,0,0,1,684.49,0)"
               width="1098.4252"
               height="1452.7559"
               id="use265"
               x="0"
               y="0" />
            <use
               transform="matrix(0.64,0,0,1,720.68,0)"
               width="1098.4252"
               height="1452.7559"
               id="use267"
               x="0"
               y="0" />
            <use
               transform="matrix(0.62,0,0,1,756.88,0)"
               width="1098.4252"
               height="1452.7559"
               id="use269"
               x="0"
               y="0" />
            <use
               transform="matrix(0.6,0,0,1,793.07,0)"
               width="1098.4252"
               height="1452.7559"
               id="use271"
               x="0"
               y="0" />
            <use
               transform="matrix(0.58,0,0,1,829.26,0)"
               width="1098.4252"
               height="1452.7559"
               id="use273"
               x="0"
               y="0" />
            <use
               transform="matrix(0.56,0,0,1,865.46,0)"
               width="1098.4252"
               height="1452.7559"
               id="use275"
               x="0"
               y="0" />
            <use
               transform="matrix(0.54,0,0,1,901.65,0)"
               width="1098.4252"
               height="1452.7559"
               id="use277"
               x="0"
               y="0" />
            <use
               transform="matrix(0.52,0,0,1,937.85,0)"
               width="1098.4252"
               height="1452.7559"
               id="use279"
               x="0"
               y="0" />
            <use
               transform="matrix(0.5,0,0,1,974.04,0)"
               width="1098.4252"
               height="1452.7559"
               id="use281"
               x="0"
               y="0" />
            <use
               transform="matrix(0.48,0,0,1,1010.2,0)"
               width="1098.4252"
               height="1452.7559"
               id="use283"
               x="0"
               y="0" />
            <use
               transform="matrix(0.46,0,0,1,1046.4,0)"
               width="1098.4252"
               height="1452.7559"
               id="use285"
               x="0"
               y="0" />
            <use
               transform="matrix(0.44,0,0,1,1082.6,0)"
               width="1098.4252"
               height="1452.7559"
               id="use287"
               x="0"
               y="0" />
            <use
               transform="matrix(0.42,0,0,1,1118.8,0)"
               width="1098.4252"
               height="1452.7559"
               id="use289"
               x="0"
               y="0" />
          </g>
          <g
             transform="translate(308.1,384.87)"
             id="g353">
            <use
               transform="translate(69.195)"
               width="1098.4252"
               height="1452.7559"
               id="use293"
               x="0"
               y="0" />
            <use
               transform="matrix(0.98,0,0,1,105.39,0)"
               width="1098.4252"
               height="1452.7559"
               id="use295"
               x="0"
               y="0" />
            <use
               transform="matrix(0.96,0,0,1,141.58,0)"
               width="1098.4252"
               height="1452.7559"
               id="use297"
               x="0"
               y="0" />
            <use
               transform="matrix(0.94,0,0,1,177.78,0)"
               width="1098.4252"
               height="1452.7559"
               id="use299"
               x="0"
               y="0" />
            <use
               transform="matrix(0.92,0,0,1,213.97,0)"
               width="1098.4252"
               height="1452.7559"
               id="use301"
               x="0"
               y="0" />
            <use
               transform="matrix(0.9,0,0,1,250.16,0)"
               width="1098.4252"
               height="1452.7559"
               id="use303"
               x="0"
               y="0" />
            <use
               transform="matrix(0.88,0,0,1,286.36,0)"
               width="1098.4252"
               height="1452.7559"
               id="use305"
               x="0"
               y="0" />
            <use
               transform="matrix(0.86,0,0,1,322.55,0)"
               width="1098.4252"
               height="1452.7559"
               id="use307"
               x="0"
               y="0" />
            <use
               transform="matrix(0.84,0,0,1,358.75,0)"
               width="1098.4252"
               height="1452.7559"
               id="use309"
               x="0"
               y="0" />
            <use
               transform="matrix(0.82,0,0,1,394.94,0)"
               width="1098.4252"
               height="1452.7559"
               id="use311"
               x="0"
               y="0" />
            <use
               transform="matrix(0.8,0,0,1,431.13,0)"
               width="1098.4252"
               height="1452.7559"
               id="use313"
               x="0"
               y="0" />
            <use
               transform="matrix(0.78,0,0,1,467.33,0)"
               width="1098.4252"
               height="1452.7559"
               id="use315"
               x="0"
               y="0" />
            <use
               transform="matrix(0.76,0,0,1,503.52,0)"
               width="1098.4252"
               height="1452.7559"
               id="use317"
               x="0"
               y="0" />
            <use
               transform="matrix(0.74,0,0,1,539.71,0)"
               width="1098.4252"
               height="1452.7559"
               id="use319"
               x="0"
               y="0" />
            <use
               transform="matrix(0.72,0,0,1,575.91,0)"
               width="1098.4252"
               height="1452.7559"
               id="use321"
               x="0"
               y="0" />
            <use
               transform="matrix(0.7,0,0,1,612.1,0)"
               width="1098.4252"
               height="1452.7559"
               id="use323"
               x="0"
               y="0" />
            <use
               transform="matrix(0.68,0,0,1,648.3,0)"
               width="1098.4252"
               height="1452.7559"
               id="use325"
               x="0"
               y="0" />
            <use
               transform="matrix(0.66,0,0,1,684.49,0)"
               width="1098.4252"
               height="1452.7559"
               id="use327"
               x="0"
               y="0" />
            <use
               transform="matrix(0.64,0,0,1,720.68,0)"
               width="1098.4252"
               height="1452.7559"
               id="use329"
               x="0"
               y="0" />
            <use
               transform="matrix(0.62,0,0,1,756.88,0)"
               width="1098.4252"
               height="1452.7559"
               id="use331"
               x="0"
               y="0" />
            <use
               transform="matrix(0.6,0,0,1,793.07,0)"
               width="1098.4252"
               height="1452.7559"
               id="use333"
               x="0"
               y="0" />
            <use
               transform="matrix(0.58,0,0,1,829.26,0)"
               width="1098.4252"
               height="1452.7559"
               id="use335"
               x="0"
               y="0" />
            <use
               transform="matrix(0.56,0,0,1,865.46,0)"
               width="1098.4252"
               height="1452.7559"
               id="use337"
               x="0"
               y="0" />
            <use
               transform="matrix(0.54,0,0,1,901.65,0)"
               width="1098.4252"
               height="1452.7559"
               id="use339"
               x="0"
               y="0" />
            <use
               transform="matrix(0.52,0,0,1,937.85,0)"
               width="1098.4252"
               height="1452.7559"
               id="use341"
               x="0"
               y="0" />
            <use
               transform="matrix(0.5,0,0,1,974.04,0)"
               width="1098.4252"
               height="1452.7559"
               id="use343"
               x="0"
               y="0" />
            <use
               transform="matrix(0.48,0,0,1,1010.2,0)"
               width="1098.4252"
               height="1452.7559"
               id="use345"
               x="0"
               y="0" />
            <use
               transform="matrix(0.46,0,0,1,1046.4,0)"
               width="1098.4252"
               height="1452.7559"
               id="use347"
               x="0"
               y="0" />
            <use
               transform="matrix(0.44,0,0,1,1082.6,0)"
               width="1098.4252"
               height="1452.7559"
               id="use349"
               x="0"
               y="0" />
            <use
               transform="matrix(0.42,0,0,1,1118.8,0)"
               width="1098.4252"
               height="1452.7559"
               id="use351"
               x="0"
               y="0" />
          </g>
        </g>
        <g
           transform="scale(0.9801,1.0203)"
           fill="#ffffff"
           font-family="FreeSans"
           font-size="9.2514px"
           font-weight="bold"
           letter-spacing="0"
           word-spacing="0"
           id="g385">
          <path
             d="m 1541.5867,-98.57948 v 2.40535 h -1.3877 v -6.74424 h 2.9789 c 0.7031,10e-6 1.2397,0.17887 1.6097,0.53658 0.3762,0.35773 0.5644,0.8758 0.5644,1.55423 0,0.67843 -0.1851,1.23043 -0.5551,1.63749 -0.37,0.40706 -0.8635,0.61059 -1.4802,0.61059 h -1.73 m 0,-1.15642 h 1.2951 c 0.7216,4e-6 1.0825,-0.33613 1.0825,-1.0084 0,-0.34538 -0.09,-0.60133 -0.2683,-0.76786 -0.1727,-0.16652 -0.4441,-0.24978 -0.8142,-0.24979 h -1.2951 v 2.02605"
             id="path357" />
          <path
             d="m 1546.753,-96.95124 c -0.5921,-0.65993 -0.8882,-1.50797 -0.8882,-2.54412 0,-1.03615 0.2961,-1.88419 0.8882,-2.54413 0.5982,-0.65992 1.3815,-0.98989 2.3498,-0.98989 0.9683,0 1.7608,0.32997 2.3591,0.98989 0.5983,0.65377 0.8974,1.51723 0.8974,2.59038 0,0.99915 -0.2961,1.83177 -0.8881,2.49787 -0.586,0.65993 -1.3723,0.98989 -2.3591,0.9899 -0.9807,-10e-7 -1.7671,-0.32997 -2.3591,-0.9899 m 2.3591,-4.89397 c -0.5613,10e-6 -1.0115,0.21587 -1.3507,0.6476 -0.3392,0.43173 -0.5089,0.99298 -0.5089,1.70225 0,0.70927 0.1696,1.27977 0.5089,1.7115 0.3393,0.43173 0.7894,0.63834 1.3507,0.63834 0.5613,0 1.0022,-0.21278 1.3414,-0.63834 0.3454,-0.42556 0.5181,-0.98373 0.5181,-1.6745 0,-0.72777 -0.1696,-1.30752 -0.5088,-1.73925 -0.3331,-0.43173 -0.7833,-0.64759 -1.3507,-0.6476"
             id="path359" />
          <path
             d="m 1558.1212,-100.86457 h -1.2952 c -0.049,-0.70309 -0.5212,-1.05465 -1.4155,-1.05465 -0.3577,0 -0.6414,0.0771 -0.8511,0.23128 -0.2097,0.15418 -0.3146,0.34848 -0.3146,0.60134 0,0.25286 0.09,0.43174 0.2683,0.55508 0.1783,0.12334 0.515,0.22512 1.0084,0.3238 l 1.0547,0.20353 c 0.6229,0.12336 1.0762,0.33305 1.3599,0.62909 0.2837,0.28988 0.4256,0.70002 0.4256,1.23043 0,0.6846 -0.2436,1.22118 -0.7309,1.60974 -0.4872,0.38239 -1.1656,0.57358 -2.0353,0.57359 -0.8634,-10e-7 -1.5357,-0.1912 -2.0168,-0.57359 -0.4749,-0.38239 -0.7339,-0.93439 -0.7771,-1.65599 h 1.3507 c 0.025,0.36389 0.1665,0.64143 0.4256,0.83262 0.2591,0.19119 0.6229,0.28679 1.0916,0.28679 0.4194,10e-7 0.7494,-0.08018 0.9899,-0.24054 0.2467,-0.16036 0.3701,-0.38239 0.3701,-0.6661 0,-0.27137 -0.096,-0.48107 -0.2868,-0.62909 -0.1908,-0.14802 -0.5181,-0.2652 -0.9806,-0.35155 l -0.9437,-0.18503 c -0.6846,-0.12951 -1.1718,-0.33304 -1.4617,-0.61059 -0.2899,-0.27755 -0.4348,-0.67843 -0.4348,-1.20268 0,-0.65992 0.222,-1.16875 0.6661,-1.52647 0.4502,-0.36388 1.0793,-0.54583 1.8873,-0.54583 0.2343,0 0.4594,0.0154 0.6753,0.0463 0.2159,0.0309 0.4564,0.0956 0.7031,0.19428 0.2467,0.0925 0.4595,0.21587 0.6384,0.37006 0.1789,0.15419 0.3268,0.35772 0.444,0.62909 0.1172,0.27137 0.185,0.57359 0.1851,0.92513"
             id="path361" />
          <path
             d="m 1560.7,-102.92 v 6.7442 h -1.3877 v -6.7442 h 1.3877"
             id="path363" />
          <path
             d="m 1564.8,-101.76 v 5.5878 h -1.3877 v -5.5878 h -2.0446 v -1.1564 h 5.4028 v 1.1564 H 1564.8"
             id="path365" />
          <path
             d="m 1568.9,-102.92 v 6.7442 h -1.3877 v -6.7442 h 1.3877"
             id="path367" />
          <path
             d="m 1570.7306,-96.95124 c -0.5921,-0.65993 -0.8881,-1.50797 -0.8881,-2.54412 0,-1.03615 0.296,-1.88419 0.8881,-2.54413 0.5983,-0.65992 1.3815,-0.98989 2.3499,-0.98989 0.9684,0 1.7608,0.32997 2.3591,0.98989 0.5982,0.65377 0.8973,1.51723 0.8973,2.59038 0,0.99915 -0.296,1.83177 -0.8881,2.49787 -0.5859,0.65993 -1.3723,0.98989 -2.3591,0.9899 -0.9806,-10e-7 -1.767,-0.32997 -2.3591,-0.9899 m 2.3591,-4.89397 c -0.5612,10e-6 -1.0115,0.21587 -1.3507,0.6476 -0.3392,0.43173 -0.5088,0.99298 -0.5088,1.70225 0,0.70927 0.1696,1.27977 0.5088,1.7115 0.3392,0.43173 0.7895,0.63834 1.3507,0.63834 0.5612,0 1.0022,-0.21278 1.3415,-0.63834 0.3453,-0.42556 0.518,-0.98373 0.518,-1.6745 0,-0.72777 -0.1696,-1.30752 -0.5088,-1.73925 -0.333,-0.43173 -0.7833,-0.64759 -1.3507,-0.6476"
             id="path369" />
          <path
             d="m 1581.4,-96.174 -2.7107,-4.6627 v 4.6627 h -1.3877 v -6.7442 h 1.4247 l 2.6737,4.5887 v -4.5887 h 1.3877 v 6.7442 H 1581.4"
             id="path371" />
          <path
             d="m 1590.6,-96.174 -2.7106,-4.6627 v 4.6627 h -1.3877 v -6.7442 h 1.4247 l 2.6736,4.5887 v -4.5887 h 1.3877 v 6.7442 H 1590.6"
             id="path373" />
          <path
             d="m 1593.859,-96.95124 c -0.5921,-0.65993 -0.8881,-1.50797 -0.8881,-2.54412 0,-1.03615 0.296,-1.88419 0.8881,-2.54413 0.5983,-0.65992 1.3815,-0.98989 2.3499,-0.98989 0.9684,0 1.7608,0.32997 2.3591,0.98989 0.5982,0.65377 0.8973,1.51723 0.8973,2.59038 0,0.99915 -0.296,1.83177 -0.8881,2.49787 -0.5859,0.65993 -1.3723,0.98989 -2.3591,0.9899 -0.9806,-10e-7 -1.767,-0.32997 -2.3591,-0.9899 m 2.3591,-4.89397 c -0.5612,10e-6 -1.0115,0.21587 -1.3507,0.6476 -0.3392,0.43173 -0.5088,0.99298 -0.5088,1.70225 0,0.70927 0.1696,1.27977 0.5088,1.7115 0.3392,0.43173 0.7895,0.63834 1.3507,0.63834 0.5612,0 1.0022,-0.21278 1.3415,-0.63834 0.3453,-0.42556 0.518,-0.98373 0.518,-1.6745 0,-0.72777 -0.1696,-1.30752 -0.5088,-1.73925 -0.333,-0.43173 -0.7833,-0.64759 -1.3507,-0.6476"
             id="path375" />
          <path
             d="m 1604.3532,-97.33055 c 0,-0.18503 0,-0.32996 0.01,-0.43481 0.01,-0.10485 0.01,-0.19736 0.01,-0.27754 0,-0.28371 -0.068,-0.48724 -0.2035,-0.61059 -0.1357,-0.12952 -0.3546,-0.19428 -0.6568,-0.19428 h -1.5913 v 2.67364 h -1.3877 v -6.74424 h 3.6173 c 0.3454,10e-6 0.6414,0.0586 0.8881,0.17578 0.2467,0.11718 0.441,0.27138 0.5644,0.46257 0.1295,0.1912 0.222,0.38548 0.2775,0.58283 0.055,0.1912 0.083,0.39165 0.083,0.60134 0,0.81412 -0.3793,1.36921 -1.1379,1.66525 0.1665,0.06785 0.2898,0.12336 0.37,0.16653 0.08,0.04317 0.1604,0.10177 0.2405,0.19428 0.086,0.09252 0.1419,0.17578 0.1666,0.24979 0.031,0.07401 0.059,0.2097 0.083,0.40706 0.031,0.19736 0.049,0.39164 0.055,0.58284 0.01,0.1912 0.012,0.4749 0.018,0.85113 0,0.25904 0.099,0.44407 0.2961,0.55508 v 0.24979 h -1.4895 c -0.086,-0.16036 -0.1449,-0.31455 -0.1758,-0.46257 -0.031,-0.14802 -0.037,-0.37931 -0.037,-0.69385 m 0.2221,-3.57102 c 0,-0.34538 -0.08,-0.57358 -0.2406,-0.6846 -0.1603,-0.11718 -0.407,-0.17577 -0.7401,-0.17578 h -1.6745 v 1.75776 h 1.6745 c 0.3269,0 0.5705,-0.0586 0.7309,-0.17577 0.1665,-0.11718 0.2498,-0.35772 0.2498,-0.72161"
             id="path377" />
          <path
             d="m 1608.5,-101.43 v 5.2548 h -1.3877 v -6.7442 h 2.0723 l 1.2211,5.3658 1.1842,-5.3658 h 2.0908 v 6.7442 h -1.3877 v -5.2548 l -1.1934,5.2548 h -1.3877 L 1608.5,-101.43"
             id="path379" />
          <path
             d="m 1618.8,-97.534 h -2.5256 l -0.4533,1.36 h -1.4155 l 2.3961,-6.7442 h 1.5357 l 2.3314,6.7442 h -1.4247 l -0.4441,-1.36 m -0.3793,-1.1564 -0.8789,-2.6366 -0.8789,2.6366 h 1.7578"
             id="path381" />
          <path
             d="m 1623,-102.92 v 5.5878 h 3.2288 v 1.1564 h -4.6165 V -102.92 H 1623"
             id="path383" />
        </g>
      </g>
      <path
         transform="translate(-1573.8,-364.47)"
         d="m 1607.9,693.35 c 0,5.0305 -4.078,9.1086 -9.1086,9.1086 -5.0306,0 -9.1085,-4.078 -9.1085,-9.1086 0,-5.0306 4.078,-9.1086 9.1085,-9.1086 5.0305,0 9.1086,4.078 9.1086,9.1086 z"
         fill="#1a1a1a"
         stroke="#000000"
         stroke-linecap="round"
         id="path389" />
      <path
         transform="matrix(1.0598,0,0,1.0598,-1669.5,-404.19)"
         d="m 1605.1,693.35 c 0,3.4963 -2.8343,6.3306 -6.3307,6.3306 -3.4964,0 -6.3306,-2.8343 -6.3306,-6.3306 0,-3.4963 2.8343,-6.3306 6.3306,-6.3306 3.4963,0 6.3307,2.8343 6.3307,6.3306 z"
         fill="#666666"
         opacity="0.5"
         id="path391" />
      <g
         transform="matrix(0.7616,0,0,0.7616,-1159.4,-187.85)"
         stroke="#000000"
         stroke-linecap="round"
         stroke-width="2"
         id="g397">
        <path
           transform="translate(0,-400.39)"
           d="m 1555.1,1071.9 v 13.89"
           id="path393" />
        <path
           d="m 1562.1,678.48 h -13.89"
           id="path395" />
      </g>
      <path
         transform="translate(-1079.4,-364.47)"
         d="m 1607.9,693.35 c 0,5.0305 -4.078,9.1086 -9.1086,9.1086 -5.0306,0 -9.1085,-4.078 -9.1085,-9.1086 0,-5.0306 4.078,-9.1086 9.1085,-9.1086 5.0305,0 9.1086,4.078 9.1086,9.1086 z"
         fill="#1a1a1a"
         stroke="#000000"
         stroke-linecap="round"
         id="path399" />
      <path
         transform="matrix(1.0598,0,0,1.0598,-1175.1,-404.19)"
         d="m 1605.1,693.35 c 0,3.4963 -2.8343,6.3306 -6.3307,6.3306 -3.4964,0 -6.3306,-2.8343 -6.3306,-6.3306 0,-3.4963 2.8343,-6.3306 6.3306,-6.3306 3.4963,0 6.3307,2.8343 6.3307,6.3306 z"
         fill="#666666"
         opacity="0.5"
         id="path401" />
      <g
         transform="matrix(0.7616,0,0,0.7616,-665.05,-187.85)"
         stroke="#000000"
         stroke-linecap="round"
         stroke-width="2"
         id="g407">
        <path
           transform="translate(0,-400.39)"
           d="m 1555.1,1071.9 v 13.89"
           id="path403" />
        <path
           d="m 1562.1,678.48 h -13.89"
           id="path405" />
      </g>
      <path
         transform="translate(-1079.4,-55.367)"
         d="m 1607.9,693.35 c 0,5.0305 -4.078,9.1086 -9.1086,9.1086 -5.0306,0 -9.1085,-4.078 -9.1085,-9.1086 0,-5.0306 4.078,-9.1086 9.1085,-9.1086 5.0305,0 9.1086,4.078 9.1086,9.1086 z"
         fill="#1a1a1a"
         stroke="#000000"
         stroke-linecap="round"
         id="path409" />
      <path
         transform="matrix(1.0598,0,0,1.0598,-1175.1,-95.088)"
         d="m 1605.1,693.35 c 0,3.4963 -2.8343,6.3306 -6.3307,6.3306 -3.4964,0 -6.3306,-2.8343 -6.3306,-6.3306 0,-3.4963 2.8343,-6.3306 6.3306,-6.3306 3.4963,0 6.3307,2.8343 6.3307,6.3306 z"
         fill="#666666"
         opacity="0.5"
         id="path411" />
      <g
         transform="matrix(0.7616,0,0,0.7616,-665.05,121.26)"
         stroke="#000000"
         stroke-linecap="round"
         stroke-width="2"
         id="g417">
        <path
           transform="translate(0,-400.39)"
           d="m 1555.1,1071.9 v 13.89"
           id="path413" />
        <path
           d="m 1562.1,678.48 h -13.89"
           id="path415" />
      </g>
      <path
         transform="translate(-1573.8,-55.367)"
         d="m 1607.9,693.35 c 0,5.0305 -4.078,9.1086 -9.1086,9.1086 -5.0306,0 -9.1085,-4.078 -9.1085,-9.1086 0,-5.0306 4.078,-9.1086 9.1085,-9.1086 5.0305,0 9.1086,4.078 9.1086,9.1086 z"
         fill="#1a1a1a"
         stroke="#000000"
         stroke-linecap="round"
         id="path419" />
      <path
         transform="matrix(1.0598,0,0,1.0598,-1669.5,-95.088)"
         d="m 1605.1,693.35 c 0,3.4963 -2.8343,6.3306 -6.3307,6.3306 -3.4964,0 -6.3306,-2.8343 -6.3306,-6.3306 0,-3.4963 2.8343,-6.3306 6.3306,-6.3306 3.4963,0 6.3307,2.8343 6.3307,6.3306 z"
         fill="#666666"
         opacity="0.5"
         id="path421" />
      <g
         transform="matrix(0.7616,0,0,0.7616,-1159.4,121.26)"
         stroke="#000000"
         stroke-linecap="round"
         stroke-width="2"
         id="g427">
        <path
           transform="translate(0,-400.39)"
           d="m 1555.1,1071.9 v 13.89"
           id="path423" />
        <path
           d="m 1562.1,678.48 h -13.89"
           id="path425" />
      </g>
    </g>
    <g
       transform="matrix(0.99999,0.00369,-0.00369,0.99999,-1478.6,67.977)"
       fill="#ffffff"
       stroke="#ff0000"
       stroke-linecap="round"
       id="g491">
      <path
         d="m 1623.8,511.17 h 5.0508 v 15.657 H 1623.8 Z"
         id="path431" />
      <path
         d="m 1628.9,511.17 h 4.9498 v 15.657 H 1628.9 Z"
         stroke-width="0.98995"
         id="path433" />
      <path
         d="m 1634,511.17 h 4.8487 v 15.657 H 1634 Z"
         stroke-width="0.9798"
         id="path435" />
      <path
         d="m 1639.1,511.17 h 4.7477 v 15.657 H 1639.1 Z"
         stroke-width="0.96954"
         id="path437" />
      <path
         d="m 1644.2,511.17 h 4.6467 v 15.657 H 1644.2 Z"
         stroke-width="0.95917"
         id="path439" />
      <path
         d="m 1649.3,511.17 h 4.5457 v 15.657 H 1649.3 Z"
         stroke-width="0.94868"
         id="path441" />
      <path
         d="m 1654.4,511.17 h 4.4447 v 15.657 H 1654.4 Z"
         stroke-width="0.93808"
         id="path443" />
      <path
         d="m 1659.5,511.17 h 4.3437 v 15.657 H 1659.5 Z"
         stroke-width="0.92736"
         id="path445" />
      <path
         d="m 1664.6,511.17 h 4.2426 v 15.657 H 1664.6 Z"
         stroke-width="0.91652"
         id="path447" />
      <path
         d="m 1669.7,511.17 h 4.1416 v 15.657 H 1669.7 Z"
         stroke-width="0.90554"
         id="path449" />
      <path
         d="m 1674.8,511.17 h 4.0406 v 15.657 H 1674.8 Z"
         stroke-width="0.89443"
         id="path451" />
      <path
         d="m 1679.9,511.17 h 3.9396 v 15.657 H 1679.9 Z"
         stroke-width="0.88318"
         id="path453" />
      <path
         d="m 1685,511.17 h 3.8386 v 15.657 H 1685 Z"
         stroke-width="0.87178"
         id="path455" />
      <path
         d="m 1690.1,511.17 h 3.7376 v 15.657 H 1690.1 Z"
         stroke-width="0.86023"
         id="path457" />
      <path
         d="m 1695.2,511.17 h 3.6366 v 15.657 H 1695.2 Z"
         stroke-width="0.84853"
         id="path459" />
      <path
         d="m 1700.3,511.17 h 3.5355 v 15.657 H 1700.3 Z"
         stroke-width="0.83666"
         id="path461" />
      <path
         d="m 1705.4,511.17 h 3.4345 v 15.657 H 1705.4 Z"
         stroke-width="0.82462"
         id="path463" />
      <path
         d="m 1710.5,511.17 h 3.3335 v 15.657 H 1710.5 Z"
         stroke-width="0.8124"
         id="path465" />
      <path
         d="m 1715.6,511.17 h 3.2325 v 15.657 H 1715.6 Z"
         stroke-width="0.8"
         id="path467" />
      <path
         d="m 1720.7,511.17 h 3.1315 v 15.657 H 1720.7 Z"
         stroke-width="0.7874"
         id="path469" />
      <path
         d="m 1725.8,511.17 h 3.0305 v 15.657 H 1725.8 Z"
         stroke-width="0.7746"
         id="path471" />
      <path
         d="m 1730.9,511.17 h 2.9294 v 15.657 H 1730.9 Z"
         stroke-width="0.76158"
         id="path473" />
      <path
         d="m 1736,511.17 h 2.8284 v 15.657 H 1736 Z"
         stroke-width="0.74833"
         id="path475" />
      <path
         d="m 1741.1,511.17 h 2.7274 v 15.657 H 1741.1 Z"
         stroke-width="0.73485"
         id="path477" />
      <path
         d="m 1746.3,511.17 h 2.6264 v 15.657 H 1746.3 Z"
         stroke-width="0.72111"
         id="path479" />
      <path
         d="m 1751.4,511.17 h 2.5254 v 15.657 H 1751.4 Z"
         stroke-width="0.70711"
         id="path481" />
      <path
         d="m 1756.5,511.17 h 2.4244 v 15.657 H 1756.5 Z"
         stroke-width="0.69282"
         id="path483" />
      <path
         d="m 1761.6,511.17 h 2.3234 v 15.657 H 1761.6 Z"
         stroke-width="0.67823"
         id="path485" />
      <path
         d="m 1766.7,511.17 h 2.2223 v 15.657 H 1766.7 Z"
         stroke-width="0.66332"
         id="path487" />
      <path
         d="m 1771.8,511.17 h 2.1213 v 15.657 H 1771.8 Z"
         stroke-width="0.64807"
         id="path489" />
    </g>
    <g
       transform="matrix(0.99999,0.00369,-0.00369,0.99999,-1324.6,68.545)"
       fill="#ffffff"
       stroke="#ff0000"
       stroke-linecap="round"
       id="g553">
      <path
         d="m 1623.8,511.17 h 5.0508 v 15.657 H 1623.8 Z"
         id="path493" />
      <path
         d="m 1628.9,511.17 h 4.9498 v 15.657 H 1628.9 Z"
         stroke-width="0.98995"
         id="path495" />
      <path
         d="m 1634,511.17 h 4.8487 v 15.657 H 1634 Z"
         stroke-width="0.9798"
         id="path497" />
      <path
         d="m 1639.1,511.17 h 4.7477 v 15.657 H 1639.1 Z"
         stroke-width="0.96954"
         id="path499" />
      <path
         d="m 1644.2,511.17 h 4.6467 v 15.657 H 1644.2 Z"
         stroke-width="0.95917"
         id="path501" />
      <path
         d="m 1649.3,511.17 h 4.5457 v 15.657 H 1649.3 Z"
         stroke-width="0.94868"
         id="path503" />
      <path
         d="m 1654.4,511.17 h 4.4447 v 15.657 H 1654.4 Z"
         stroke-width="0.93808"
         id="path505" />
      <path
         d="m 1659.5,511.17 h 4.3437 v 15.657 H 1659.5 Z"
         stroke-width="0.92736"
         id="path507" />
      <path
         d="m 1664.6,511.17 h 4.2426 v 15.657 H 1664.6 Z"
         stroke-width="0.91652"
         id="path509" />
      <path
         d="m 1669.7,511.17 h 4.1416 v 15.657 H 1669.7 Z"
         stroke-width="0.90554"
         id="path511" />
      <path
         d="m 1674.8,511.17 h 4.0406 v 15.657 H 1674.8 Z"
         stroke-width="0.89443"
         id="path513" />
      <path
         d="m 1679.9,511.17 h 3.9396 v 15.657 H 1679.9 Z"
         stroke-width="0.88318"
         id="path515" />
      <path
         d="m 1685,511.17 h 3.8386 v 15.657 H 1685 Z"
         stroke-width="0.87178"
         id="path517" />
      <path
         d="m 1690.1,511.17 h 3.7376 v 15.657 H 1690.1 Z"
         stroke-width="0.86023"
         id="path519" />
      <path
         d="m 1695.2,511.17 h 3.6366 v 15.657 H 1695.2 Z"
         stroke-width="0.84853"
         id="path521" />
      <path
         d="m 1700.3,511.17 h 3.5355 v 15.657 H 1700.3 Z"
         stroke-width="0.83666"
         id="path523" />
      <path
         d="m 1705.4,511.17 h 3.4345 v 15.657 H 1705.4 Z"
         stroke-width="0.82462"
         id="path525" />
      <path
         d="m 1710.5,511.17 h 3.3335 v 15.657 H 1710.5 Z"
         stroke-width="0.8124"
         id="path527" />
      <path
         d="m 1715.6,511.17 h 3.2325 v 15.657 H 1715.6 Z"
         stroke-width="0.8"
         id="path529" />
      <path
         d="m 1720.7,511.17 h 3.1315 v 15.657 H 1720.7 Z"
         stroke-width="0.7874"
         id="path531" />
      <path
         d="m 1725.8,511.17 h 3.0305 v 15.657 H 1725.8 Z"
         stroke-width="0.7746"
         id="path533" />
      <path
         d="m 1730.9,511.17 h 2.9294 v 15.657 H 1730.9 Z"
         stroke-width="0.76158"
         id="path535" />
      <path
         d="m 1736,511.17 h 2.8284 v 15.657 H 1736 Z"
         stroke-width="0.74833"
         id="path537" />
      <path
         d="m 1741.1,511.17 h 2.7274 v 15.657 H 1741.1 Z"
         stroke-width="0.73485"
         id="path539" />
      <path
         d="m 1746.3,511.17 h 2.6264 v 15.657 H 1746.3 Z"
         stroke-width="0.72111"
         id="path541" />
      <path
         d="m 1751.4,511.17 h 2.5254 v 15.657 H 1751.4 Z"
         stroke-width="0.70711"
         id="path543" />
      <path
         d="m 1756.5,511.17 h 2.4244 v 15.657 H 1756.5 Z"
         stroke-width="0.69282"
         id="path545" />
      <path
         d="m 1761.6,511.17 h 2.3234 v 15.657 H 1761.6 Z"
         stroke-width="0.67823"
         id="path547" />
      <path
         d="m 1766.7,511.17 h 2.2223 v 15.657 H 1766.7 Z"
         stroke-width="0.66332"
         id="path549" />
      <path
         d="m 1771.8,511.17 h 2.1213 v 15.657 H 1771.8 Z"
         stroke-width="0.64807"
         id="path551" />
    </g>
    <g
       transform="matrix(0.99999,0.00369,-0.00369,0.99999,-1170.6,69.114)"
       fill="#ffffff"
       stroke="#ff0000"
       stroke-linecap="round"
       id="g615">
      <path
         d="m 1623.8,511.17 h 5.0508 v 15.657 H 1623.8 Z"
         id="path555" />
      <path
         d="m 1628.9,511.17 h 4.9498 v 15.657 H 1628.9 Z"
         stroke-width="0.98995"
         id="path557" />
      <path
         d="m 1634,511.17 h 4.8487 v 15.657 H 1634 Z"
         stroke-width="0.9798"
         id="path559" />
      <path
         d="m 1639.1,511.17 h 4.7477 v 15.657 H 1639.1 Z"
         stroke-width="0.96954"
         id="path561" />
      <path
         d="m 1644.2,511.17 h 4.6467 v 15.657 H 1644.2 Z"
         stroke-width="0.95917"
         id="path563" />
      <path
         d="m 1649.3,511.17 h 4.5457 v 15.657 H 1649.3 Z"
         stroke-width="0.94868"
         id="path565" />
      <path
         d="m 1654.4,511.17 h 4.4447 v 15.657 H 1654.4 Z"
         stroke-width="0.93808"
         id="path567" />
      <path
         d="m 1659.5,511.17 h 4.3437 v 15.657 H 1659.5 Z"
         stroke-width="0.92736"
         id="path569" />
      <path
         d="m 1664.6,511.17 h 4.2426 v 15.657 H 1664.6 Z"
         stroke-width="0.91652"
         id="path571" />
      <path
         d="m 1669.7,511.17 h 4.1416 v 15.657 H 1669.7 Z"
         stroke-width="0.90554"
         id="path573" />
      <path
         d="m 1674.8,511.17 h 4.0406 v 15.657 H 1674.8 Z"
         stroke-width="0.89443"
         id="path575" />
      <path
         d="m 1679.9,511.17 h 3.9396 v 15.657 H 1679.9 Z"
         stroke-width="0.88318"
         id="path577" />
      <path
         d="m 1685,511.17 h 3.8386 v 15.657 H 1685 Z"
         stroke-width="0.87178"
         id="path579" />
      <path
         d="m 1690.1,511.17 h 3.7376 v 15.657 H 1690.1 Z"
         stroke-width="0.86023"
         id="path581" />
      <path
         d="m 1695.2,511.17 h 3.6366 v 15.657 H 1695.2 Z"
         stroke-width="0.84853"
         id="path583" />
      <path
         d="m 1700.3,511.17 h 3.5355 v 15.657 H 1700.3 Z"
         stroke-width="0.83666"
         id="path585" />
      <path
         d="m 1705.4,511.17 h 3.4345 v 15.657 H 1705.4 Z"
         stroke-width="0.82462"
         id="path587" />
      <path
         d="m 1710.5,511.17 h 3.3335 v 15.657 H 1710.5 Z"
         stroke-width="0.8124"
         id="path589" />
      <path
         d="m 1715.6,511.17 h 3.2325 v 15.657 H 1715.6 Z"
         stroke-width="0.8"
         id="path591" />
      <path
         d="m 1720.7,511.17 h 3.1315 v 15.657 H 1720.7 Z"
         stroke-width="0.7874"
         id="path593" />
      <path
         d="m 1725.8,511.17 h 3.0305 v 15.657 H 1725.8 Z"
         stroke-width="0.7746"
         id="path595" />
      <path
         d="m 1730.9,511.17 h 2.9294 v 15.657 H 1730.9 Z"
         stroke-width="0.76158"
         id="path597" />
      <path
         d="m 1736,511.17 h 2.8284 v 15.657 H 1736 Z"
         stroke-width="0.74833"
         id="path599" />
      <path
         d="m 1741.1,511.17 h 2.7274 v 15.657 H 1741.1 Z"
         stroke-width="0.73485"
         id="path601" />
      <path
         d="m 1746.3,511.17 h 2.6264 v 15.657 H 1746.3 Z"
         stroke-width="0.72111"
         id="path603" />
      <path
         d="m 1751.4,511.17 h 2.5254 v 15.657 H 1751.4 Z"
         stroke-width="0.70711"
         id="path605" />
      <path
         d="m 1756.5,511.17 h 2.4244 v 15.657 H 1756.5 Z"
         stroke-width="0.69282"
         id="path607" />
      <path
         d="m 1761.6,511.17 h 2.3234 v 15.657 H 1761.6 Z"
         stroke-width="0.67823"
         id="path609" />
      <path
         d="m 1766.7,511.17 h 2.2223 v 15.657 H 1766.7 Z"
         stroke-width="0.66332"
         id="path611" />
      <path
         d="m 1771.8,511.17 h 2.1213 v 15.657 H 1771.8 Z"
         stroke-width="0.64807"
         id="path613" />
    </g>
  </g>
</svg>
