<?xml version="1.0" encoding="UTF-8" standalone="no"?>
<svg
   xmlns:dc="http://purl.org/dc/elements/1.1/"
   xmlns:cc="http://creativecommons.org/ns#"
   xmlns:rdf="http://www.w3.org/1999/02/22-rdf-syntax-ns#"
   xmlns:svg="http://www.w3.org/2000/svg"
   xmlns="http://www.w3.org/2000/svg"
   xmlns:xlink="http://www.w3.org/1999/xlink"
   xmlns:sodipodi="http://sodipodi.sourceforge.net/DTD/sodipodi-0.dtd"
   xmlns:inkscape="http://www.inkscape.org/namespaces/inkscape"
   id="svg2913"
   viewBox="0 0 332.64431 274.10594"
   sodipodi:version="0.32"
   inkscape:output_extension="org.inkscape.output.svg.inkscape"
   inkscape:version="1.0.2-2 (e86c870879, 2021-01-15)"
   sodipodi:docname="CD_player.svg"
   version="1.1"
   width="88.012138mm"
   height="72.523865mm">
  <defs
     id="defs3">
    <radialGradient
       id="radialGradient6719"
       xlink:href="#linearGradient5060"
       gradientUnits="userSpaceOnUse"
       cy="486.64999"
       cx="605.71002"
       gradientTransform="matrix(-2.7744,0,0,1.9697,112.76,-872.89)"
       r="117.14"
       inkscape:collect="always" />
    <linearGradient
       id="linearGradient5060"
       inkscape:collect="always">
      <stop
         id="stop5062"
         style="stop-color:black"
         offset="0" />
      <stop
         id="stop5064"
         style="stop-color:black;stop-opacity:0"
         offset="1" />
    </linearGradient>
    <radialGradient
       id="radialGradient6717"
       xlink:href="#linearGradient5060"
       gradientUnits="userSpaceOnUse"
       cy="486.64999"
       cx="605.71002"
       gradientTransform="matrix(2.7744,0,0,1.9697,-1891.6,-872.89)"
       r="117.14"
       inkscape:collect="always" />
    <linearGradient
       id="linearGradient6715"
       y2="609.51001"
       gradientUnits="userSpaceOnUse"
       x2="302.85999"
       gradientTransform="matrix(2.7744,0,0,1.9697,-1892.2,-872.89)"
       y1="366.64999"
       x1="302.85999"
       inkscape:collect="always">
      <stop
         id="stop5050"
         style="stop-color:black;stop-opacity:0"
         offset="0" />
      <stop
         id="stop5056"
         style="stop-color:black"
         offset=".5" />
      <stop
         id="stop5052"
         style="stop-color:black;stop-opacity:0"
         offset="1" />
    </linearGradient>
    <linearGradient
       id="linearGradient2329"
       inkscape:collect="always">
      <stop
         id="stop2331"
         style="stop-color:#000000"
         offset="0" />
      <stop
         id="stop2333"
         style="stop-color:#000000;stop-opacity:0"
         offset="1" />
    </linearGradient>
    <linearGradient
       id="linearGradient4234"
       y2="40.944"
       gradientUnits="userSpaceOnUse"
       y1="28.481001"
       gradientTransform="matrix(6.679392,0,0,6.679392,5.8246533,-41.486699)"
       x2="36.182999"
       x1="7.6046"
       inkscape:collect="always">
      <stop
         id="stop4230"
         style="stop-color:#bbbbbb"
         offset="0" />
      <stop
         id="stop4232"
         style="stop-color:#9f9f9f"
         offset="1" />
    </linearGradient>
    <radialGradient
       id="radialGradient4250"
       cx="15.571"
       gradientUnits="userSpaceOnUse"
       cy="2.9584999"
       r="20.936001"
       gradientTransform="matrix(8.591034,5.2212807,-4.7475782,7.8122169,-9.9006393,-74.061426)"
       inkscape:collect="always">
      <stop
         id="stop4246"
         style="stop-color:#e4e4e4"
         offset="0" />
      <stop
         id="stop4248"
         style="stop-color:#d3d3d3"
         offset="1" />
    </radialGradient>
    <linearGradient
       id="linearGradient4260"
       y2="47.620998"
       gradientUnits="userSpaceOnUse"
       y1="4.4331002"
       gradientTransform="matrix(6.679392,0,0,6.679392,5.8246533,-41.486699)"
       x2="44.096001"
       x1="12.378"
       inkscape:collect="always">
      <stop
         id="stop4256"
         style="stop-color:#ffffff"
         offset="0" />
      <stop
         id="stop4258"
         style="stop-color:#ffffff;stop-opacity:0"
         offset="1" />
    </linearGradient>
    <linearGradient
       id="linearGradient2155"
       y2="34.307999"
       gradientUnits="userSpaceOnUse"
       x2="32.511002"
       gradientTransform="matrix(0.95253,0,0,0.65672,1.3455,19.22)"
       y1="11.188"
       x1="14.997"
       inkscape:collect="always">
      <stop
         id="stop3034"
         style="stop-color:#EBEBEB"
         offset="0" />
      <stop
         id="stop3036"
         style="stop-color:#FFFFFF"
         offset=".5" />
      <stop
         id="stop3038"
         style="stop-color:#EBEBEB"
         offset="1" />
    </linearGradient>
    <linearGradient
       id="linearGradient2161"
       y2="54.698002"
       gradientUnits="userSpaceOnUse"
       x2="48.799"
       gradientTransform="matrix(0.73893,0,0,0.50946,6.2158,21.992)"
       y1="3.6099999"
       x1="10.502"
       inkscape:collect="always">
      <stop
         id="stop6038"
         style="stop-color:#ffffff"
         offset="0" />
      <stop
         id="stop6040"
         style="stop-color:#ffffff;stop-opacity:0"
         offset="1" />
    </linearGradient>
    <radialGradient
       id="radialGradient2171"
       gradientUnits="userSpaceOnUse"
       cy="33.769001"
       cx="24.218"
       gradientTransform="matrix(6.679392,0,0,4.6421774,11.728434,40.299117)"
       r="17.677999"
       inkscape:collect="always">
      <stop
         id="stop2167"
         style="stop-color:#000000"
         offset="0" />
      <stop
         id="stop2169"
         style="stop-color:#000000;stop-opacity:0"
         offset="1" />
    </radialGradient>
    <linearGradient
       id="linearGradient2321"
       y2="37.609001"
       gradientUnits="userSpaceOnUse"
       x2="24.306999"
       y1="33.693001"
       x1="24.306999"
       inkscape:collect="always">
      <stop
         id="stop2353"
         style="stop-color:#656565"
         offset="0" />
      <stop
         id="stop2355"
         style="stop-color:#656565;stop-opacity:0"
         offset="1" />
    </linearGradient>
    <linearGradient
       id="linearGradient2335"
       y2="32.938"
       xlink:href="#linearGradient2329"
       gradientUnits="userSpaceOnUse"
       x2="23.375"
       y1="28.434"
       x1="23.375"
       inkscape:collect="always"
       gradientTransform="matrix(6.679392,0,0,6.679392,5.8246533,-28.498621)" />
    <linearGradient
       id="linearGradient2341"
       y2="34.201"
       gradientUnits="userSpaceOnUse"
       x2="24.306999"
       gradientTransform="matrix(1,0,0,0.79943,0,6.6046)"
       y1="32.791"
       x1="24.306999"
       inkscape:collect="always">
      <stop
         id="stop2317"
         style="stop-color:#656565"
         offset="0" />
      <stop
         id="stop2319"
         style="stop-color:#656565;stop-opacity:0"
         offset="1" />
    </linearGradient>
    <linearGradient
       id="linearGradient2343"
       y2="21.988001"
       gradientUnits="userSpaceOnUse"
       x2="26.194"
       gradientTransform="matrix(0.80013,0,0,0.55165,4.7255,20.599)"
       y1="34.172001"
       x1="26.333"
       inkscape:collect="always">
      <stop
         id="stop2347"
         style="stop-color:#d9d9d9"
         offset="0" />
      <stop
         id="stop2349"
         style="stop-color:#eeeeee;stop-opacity:0"
         offset="1" />
    </linearGradient>
    <linearGradient
       inkscape:collect="always"
       xlink:href="#linearGradient2329"
       id="linearGradient892"
       gradientUnits="userSpaceOnUse"
       x1="23.375"
       y1="28.434"
       x2="23.375"
       y2="32.938"
       gradientTransform="matrix(6.679392,0,0,6.679392,5.8246533,-28.498621)" />
  </defs>
  <sodipodi:namedview
     id="base"
     bordercolor="#666666"
     inkscape:window-x="-8"
     inkscape:window-y="-8"
     pagecolor="#ffffff"
     inkscape:showpageshadow="true"
     inkscape:grid-bbox="true"
     inkscape:zoom="1.4142136"
     inkscape:pageshadow="2"
     showgrid="false"
     borderopacity="0.17254902"
     inkscape:current-layer="layer2"
     inkscape:cx="204.33391"
     inkscape:cy="61.181992"
     inkscape:window-width="1920"
     inkscape:pageopacity="0.0"
     inkscape:window-height="1017"
     inkscape:document-units="px"
     inkscape:document-rotation="0"
     units="mm"
     inkscape:window-maximized="1" />
  <g
     id="layer2"
     inkscape:label="pix"
     inkscape:groupmode="layer"
     transform="translate(1.0255846,-5.017892)">
    <g
       id="g6707"
       transform="matrix(0.16382545,0,0,0.13938555,311.01275,204.13124)">
      <rect
         id="rect6709"
         style="color:#000000;opacity:0.40206;fill:url(#linearGradient6715)"
         height="478.35999"
         width="1339.6"
         y="-150.7"
         x="-1559.3" />
      <path
         id="path6711"
         sodipodi:nodetypes="cccc"
         style="color:#000000;opacity:0.40206;fill:url(#radialGradient6717)"
         d="m -219.62,-150.68 v 478.33 c 142.88,0.9 345.4,-107.17 345.4,-239.2 0,-132.02 -159.44,-239.13 -345.4,-239.13 z" />
      <path
         id="path6713"
         sodipodi:nodetypes="cccc"
         style="color:#000000;opacity:0.40206;fill:url(#radialGradient6719)"
         d="m -1559.3,-150.68 v 478.33 c -142.8,0.9 -345.4,-107.17 -345.4,-239.2 0,-132.02 159.5,-239.13 345.4,-239.13 z" />
    </g>
    <path
       id="path4196"
       sodipodi:nodetypes="cccsccccccccc"
       style="fill:none;stroke:#535353;stroke-width:13.3588;stroke-linecap:round;stroke-linejoin:round"
       d="m 81.208271,11.698628 c -4.17462,0 -6.893132,1.938359 -8.56298,5.635403 L 29.44098,131.57167 c 0,0 -1.669848,4.48855 -1.669848,11.90268 v 64.45613 c 0,7.2271 4.393704,10.85401 11.062409,10.85401 H 296.40426 c 6.5792,0 10.64695,-4.80248 10.64695,-12.31679 v -64.45614 c 0,0 0.70801,-5.14981 -0.62787,-8.77004 L 261.55119,18.376016 c -1.23569,-3.418513 -4.25477,-6.599239 -7.51432,-6.678724 H 81.207604 Z" />
    <ellipse
       id="path2163"
       style="color:#000000;opacity:0.56571;fill:url(#radialGradient2171);fill-rule:evenodd;stroke-width:6.67939"
       cx="173.49266"
       cy="197.06096"
       rx="118.07609"
       ry="82.062881" />
    <path
       id="path4170"
       sodipodi:nodetypes="ccccccccc"
       style="fill:url(#linearGradient4234);fill-rule:evenodd;stroke-width:6.67939"
       d="m 27.690311,138.83351 5.107063,-4.62214 251.211936,0.4208 23.12405,2.11737 v 69.71949 c 0,7.521 -4.05439,12.3168 -10.63359,12.3168 H 38.788789 c -6.666034,0 -11.097142,-3.62023 -11.097142,-10.85401 v -69.09831 z" />
    <path
       id="path3093"
       sodipodi:nodetypes="csccccccs"
       style="fill:url(#radialGradient4250);fill-rule:evenodd;stroke-width:6.67939"
       d="m 29.530483,131.60641 c -4.771089,9.77863 -0.004,15.98378 6.917847,15.98378 h 260.49629 c 7.47424,-0.1603 12.32348,-6.75954 9.53817,-14.31394 L 261.63735,18.317237 c -1.22901,-3.417844 -4.375,-6.598571 -7.63454,-6.678056 H 81.293768 c -4.17462,0 -6.91985,2.027196 -8.589698,5.724907 L 29.529148,131.60841 Z" />
    <path
       id="path4201"
       sodipodi:nodetypes="cccccccc"
       style="fill:#ffffff;fill-rule:evenodd;stroke-width:6.67939"
       d="m 305.0347,129.6961 c 0.42748,8.34924 -2.76527,15.46947 -8.83016,15.65649 H 41.592797 c -8.609068,0 -12.473096,-2.1708 -13.917849,-5.79771 0.612501,6.30535 5.515842,11.01432 13.919853,11.01432 H 296.20655 c 7.18702,-0.22042 11.70897,-9.51145 9.03053,-20.00478 l -0.20038,-0.86832 z" />
    <path
       id="path4252"
       sodipodi:nodetypes="cccsccccccccc"
       style="fill:none;stroke:url(#linearGradient4260);stroke-width:6.67939;stroke-linecap:round;stroke-linejoin:round"
       d="m 83.592814,14.72506 c -4.020994,0 -6.632636,1.865555 -8.242369,5.425671 l -42.8483,110.811109 c 0,0 -1.607062,4.32157 -1.607062,11.45516 v 62.05155 c 0,9.05058 2.96565,10.86737 10.649623,10.86737 H 293.27095 c 8.83684,0 10.24619,-2.11068 10.24619,-12.27004 v -62.05823 c 0,0 0.6813,-4.94943 -0.60115,-8.43607 L 258.87876,20.317715 c -1.18893,-3.292272 -3.68034,-5.519849 -6.81966,-5.595994 H 83.591479 Z" />
    <g
       id="g2142"
       transform="matrix(6.2362144,0,0,6.2362144,16.596509,-30.955101)">
      <rect
         id="rect2151"
         style="color:#000000;fill:url(#linearGradient2321);fill-rule:evenodd"
         height="3.865"
         width="37.931"
         y="32.362999"
         x="5.3414001" />
      <path
         id="path3040"
         style="fill:url(#linearGradient2155)"
         d="m 7.9921,31.81 c -0.2749,0.831 -0.4687,1.704 -0.4687,2.594 0,6.37 7.4476,11.469 16.688,11.469 9.239,0 16.656,-5.099 16.656,-11.469 0,-0.886 -0.165,-1.766 -0.437,-2.594 h -15.563 c 1.84,0.246 3.344,1.26 3.344,2.594 0,1.511 -1.809,2.75 -4,2.75 -2.191,0 -4,-1.239 -4,-2.75 0,-1.334 1.504,-2.348 3.344,-2.594 H 7.9924 Z" />
      <path
         id="path3049"
         sodipodi:nodetypes="cccccc"
         style="fill:url(#linearGradient2343);stroke:#808080"
         d="m 7.8359,32.342 c -0.1726,0.665 -0.3125,1.361 -0.3125,2.062 0,6.37 7.4476,11.469 16.688,11.469 9.239,0 16.656,-5.099 16.656,-11.469 0,-0.701 -0.14,-1.397 -0.312,-2.062 H 7.8364 Z" />
      <path
         id="path3051"
         sodipodi:nodetypes="ccccccccccc"
         style="opacity:0.11"
         d="m 16.572,31.835 c -0.773,0.92 -1.325,1.46 -1.325,2.588 0,3.473 4.111,6.206 9.031,6.206 5.037,0 9.03,-2.814 9.03,-6.206 0,-1.145 -0.586,-1.673 -1.359,-2.588 h -5.377 c 1.678,0.544 2.622,1.237 2.622,2.588 0,1.858 -2.222,3.382 -4.916,3.382 -2.695,0 -4.916,-1.524 -4.916,-3.382 0,-1.352 0.919,-2.045 2.598,-2.588 z" />
      <path
         id="path4214"
         style="fill:#ffffff;fill-opacity:0.41808"
         d="m 18.574,44.743 3.789,-7.531 C 21.486,36.996 20.814,36.573 20.39,36.016 l -10.378,3.588 c 1.75,2.385 4.795,4.24 8.562,5.139 z" />
      <path
         id="path5264"
         sodipodi:nodetypes="cccccc"
         style="opacity:0.54645;fill:none;stroke:url(#linearGradient2161)"
         d="m 8.9118,32.268 c -0.2488,0.739 -0.404,1.679 -0.404,2.473 0,5.59 7.5942,10.072 15.703,10.072 8.109,0 15.502,-4.482 15.502,-10.072 0,-0.794 -0.184,-1.733 -0.433,-2.473 z" />
      <rect
         id="rect4963"
         style="color:#000000;fill:url(#linearGradient2341);fill-rule:evenodd"
         height="1.1912"
         width="37.863998"
         y="31.627001"
         x="5.3414001" />
    </g>
    <path
       id="path2325"
       sodipodi:nodetypes="ccccc"
       style="opacity:0.36;fill:url(#linearGradient892);fill-rule:evenodd;stroke-width:6.67939"
       d="m 181.57282,173.55299 h 91.84164 c 0,0 3.62023,7.4876 -0.41413,22.54295 l -88.91606,-3.3397 c 12.35687,-12.35688 -2.51145,-19.20325 -2.51145,-19.20325 z" />
    <path
       id="path2327"
       sodipodi:nodetypes="ccccc"
       style="opacity:0.36;fill:url(#linearGradient2335);fill-rule:evenodd;stroke-width:6.67939"
       d="M 153.42586,173.55299 H 61.584218 c 6.68e-4,0 -3.615555,7.4876 0.41813,22.54295 l 88.916062,-3.3397 c -12.35687,-12.35688 2.50478,-19.20325 2.50478,-19.20325 z" />
  </g>
  <metadata
     id="metadata66">
    <rdf:RDF>
      <cc:Work>
        <dc:format>image/svg+xml</dc:format>
        <dc:type
           rdf:resource="http://purl.org/dc/dcmitype/StillImage" />
        <cc:license
           rdf:resource="http://creativecommons.org/publicdomain/zero/1.0/" />
        <dc:publisher>
          <cc:Agent
             rdf:about="http://openclipart.org/">
            <dc:title>Openclipart</dc:title>
          </cc:Agent>
        </dc:publisher>
        <dc:title>tango drive optical</dc:title>
        <dc:date>2010-03-27T10:13:48</dc:date>
        <dc:description>&quot;Optical drive&quot; (CD/DVD drive) icon from &lt;a href=&quot;http://tango.freedesktop.org/Tango_Desktop_Project&quot;&gt; Tango Project &lt;/a&gt; \n&lt;br&gt;&lt;br&gt;\nSince version 0.8.90 Tango Project icons are Public Domain: &lt;a href=&quot;http://tango.freedesktop.org/Frequently_Asked_Questions#Terms_of_Use.3F&quot;&gt; Tango Project FAQ &lt;/a&gt;</dc:description>
        <dc:source>https://openclipart.org/detail/34543/tango-drive-optical-by-warszawianka</dc:source>
        <dc:creator>
          <cc:Agent>
            <dc:title>warszawianka</dc:title>
          </cc:Agent>
        </dc:creator>
        <dc:subject>
          <rdf:Bag>
            <rdf:li>cdrom</rdf:li>
            <rdf:li>device</rdf:li>
            <rdf:li>dvd</rdf:li>
            <rdf:li>externalsource</rdf:li>
            <rdf:li>hardware</rdf:li>
            <rdf:li>icon</rdf:li>
            <rdf:li>storage</rdf:li>
            <rdf:li>tango</rdf:li>
          </rdf:Bag>
        </dc:subject>
      </cc:Work>
      <cc:License
         rdf:about="http://creativecommons.org/publicdomain/zero/1.0/">
        <cc:permits
           rdf:resource="http://creativecommons.org/ns#Reproduction" />
        <cc:permits
           rdf:resource="http://creativecommons.org/ns#Distribution" />
        <cc:permits
           rdf:resource="http://creativecommons.org/ns#DerivativeWorks" />
      </cc:License>
    </rdf:RDF>
  </metadata>
</svg>
