<?xml version="1.0" encoding="UTF-8" standalone="no"?>
<svg
   xmlns:dc="http://purl.org/dc/elements/1.1/"
   xmlns:cc="http://creativecommons.org/ns#"
   xmlns:rdf="http://www.w3.org/1999/02/22-rdf-syntax-ns#"
   xmlns:svg="http://www.w3.org/2000/svg"
   xmlns="http://www.w3.org/2000/svg"
   xmlns:xlink="http://www.w3.org/1999/xlink"
   xmlns:sodipodi="http://sodipodi.sourceforge.net/DTD/sodipodi-0.dtd"
   xmlns:inkscape="http://www.inkscape.org/namespaces/inkscape"
   viewBox="0 0 332.59842 472.44094"
   version="1.1"
   id="svg316"
   sodipodi:docname="celery.svg"
   width="88mm"
   height="125mm"
   inkscape:version="1.0.2-2 (e86c870879, 2021-01-15)">
  <metadata
     id="metadata320">
    <rdf:RDF>
      <cc:Work
         rdf:about="">
        <dc:format>image/svg+xml</dc:format>
        <dc:type
           rdf:resource="http://purl.org/dc/dcmitype/StillImage" />
        <dc:title></dc:title>
      </cc:Work>
    </rdf:RDF>
  </metadata>
  <sodipodi:namedview
     pagecolor="#ffffff"
     bordercolor="#666666"
     borderopacity="1"
     objecttolerance="10"
     gridtolerance="10"
     guidetolerance="10"
     inkscape:pageopacity="0"
     inkscape:pageshadow="2"
     inkscape:window-width="1920"
     inkscape:window-height="1017"
     id="namedview318"
     showgrid="false"
     units="mm"
     inkscape:zoom="0.57113489"
     inkscape:cx="377.43451"
     inkscape:cy="442.07751"
     inkscape:window-x="-8"
     inkscape:window-y="-8"
     inkscape:window-maximized="1"
     inkscape:current-layer="svg316" />
  <defs
     id="defs50">
    <linearGradient
       id="b">
      <stop
         stop-color="#d3bc5f"
         offset="0"
         id="stop2" />
      <stop
         stop-color="#ede8b8"
         offset="1"
         id="stop4" />
    </linearGradient>
    <linearGradient
       id="a">
      <stop
         stop-color="#d3bc5f"
         offset="0"
         id="stop7" />
      <stop
         stop-color="#decd87"
         stop-opacity="0"
         offset="1"
         id="stop9" />
    </linearGradient>
    <linearGradient
       id="n"
       x1="214.48"
       x2="463.98001"
       y1="294.01999"
       y2="645.92999"
       gradientUnits="userSpaceOnUse"
       gradientTransform="matrix(0.70748113,0,0,0.70748113,-15.253323,-61.667383)">
      <stop
         stop-color="#76d87e"
         offset="0"
         id="stop12" />
      <stop
         stop-color="#a7edae"
         offset=".7787"
         id="stop14" />
      <stop
         stop-color="#beffc3"
         offset=".8934"
         id="stop16" />
      <stop
         stop-color="#f4f4f4"
         offset=".9727"
         id="stop18" />
      <stop
         stop-color="#fff"
         offset="1"
         id="stop20" />
    </linearGradient>
    <linearGradient
       id="i"
       x1="502.87"
       x2="501.70001"
       y1="845.09003"
       y2="825.22998"
       gradientUnits="userSpaceOnUse">
      <stop
         stop-color="#d3bc5f"
         offset="0"
         id="stop23" />
      <stop
         stop-color="#ede8b9"
         offset="1"
         id="stop25" />
    </linearGradient>
    <linearGradient
       id="h"
       x1="618.02002"
       x2="602.46997"
       y1="801.12"
       y2="786.78998"
       gradientUnits="userSpaceOnUse">
      <stop
         stop-color="#d3bc5f"
         offset="0"
         id="stop28" />
      <stop
         stop-color="#ebe6b2"
         offset="1"
         id="stop30" />
    </linearGradient>
    <linearGradient
       id="e"
       x1="645.90997"
       x2="616.21997"
       y1="723.15997"
       y2="706.13"
       gradientUnits="userSpaceOnUse">
      <stop
         stop-color="#d3bc5f"
         offset="0"
         id="stop33" />
      <stop
         stop-color="#eeeabf"
         offset="1"
         id="stop35" />
    </linearGradient>
    <linearGradient
       id="m"
       x1="491.32001"
       x2="473"
       y1="812.27002"
       y2="783.01001"
       gradientUnits="userSpaceOnUse"
       xlink:href="#a" />
    <linearGradient
       id="l"
       x1="585.12"
       x2="564.59003"
       y1="722.12"
       y2="690.64001"
       gradientUnits="userSpaceOnUse"
       xlink:href="#a" />
    <linearGradient
       id="g"
       x1="568.32001"
       x2="552.21997"
       y1="804.52002"
       y2="775.81"
       gradientUnits="userSpaceOnUse"
       xlink:href="#a" />
    <linearGradient
       id="j"
       x1="487.20001"
       x2="477.73001"
       y1="768.96997"
       y2="739.15997"
       gradientUnits="userSpaceOnUse"
       xlink:href="#a" />
    <linearGradient
       id="f"
       x1="629.21997"
       x2="618.58002"
       y1="759.58002"
       y2="743.84998"
       gradientUnits="userSpaceOnUse"
       xlink:href="#b" />
    <linearGradient
       id="k"
       x1="532.54999"
       x2="523.08002"
       y1="771.19"
       y2="741.37"
       gradientUnits="userSpaceOnUse"
       xlink:href="#a" />
    <linearGradient
       id="d"
       x1="436.73999"
       x2="423"
       y1="757.90997"
       y2="737.59998"
       gradientTransform="matrix(0.63407,0.44499,-0.44499,0.63407,616.85,166.1)"
       gradientUnits="userSpaceOnUse"
       xlink:href="#b" />
    <radialGradient
       id="c"
       cx="488.57001"
       cy="669.51001"
       r="141.42999"
       gradientTransform="matrix(1.355,-0.98788,0.96406,1.3223,-818.89,266.86)"
       gradientUnits="userSpaceOnUse">
      <stop
         stop-color="#fff"
         offset="0"
         id="stop45" />
      <stop
         stop-color="#dbd275"
         offset="1"
         id="stop47" />
    </radialGradient>
  </defs>
  <path
     d="m 305.30637,398.51372 c 72.02866,-23.48767 -82.2093,-246.62085 -82.2093,-246.62085 l -13.30985,7.82899 c 0,0 26.24684,43.88505 49.70692,88.26535 11.80008,22.32315 -124.29028,-152.518785 -117.59751,-135.46849 5.69657,14.51044 -17.62831,7.89054 -20.57851,11.18739 -4.78433,5.34722 -0.83355,10.2415 -14.06967,9.12297 -11.246121,-0.95042 135.07937,208.71401 112.39045,191.48684 -24.89414,-18.89752 -58.15212,-50.79997 -103.01633,-102.74748 -18.789989,12.52667 -12.52666,7.82899 -12.52666,7.82899 0,0 155.8015,201.99293 201.20763,169.10921 z"
     fill="url(#n)"
     stroke="#5fd82e"
     stroke-width="0.548043"
     id="path52"
     style="fill:url(#n)" />
  <path
     d="m 130.72126,111.18441 c 13.99044,26.52134 131.91693,173.439 156.57972,264.62624"
     fill="none"
     stroke="#4fcb4f"
     stroke-width="1.04127"
     id="path54" />
  <path
     d="m 110.55805,111.57352 c 22.06138,28.41244 126.87966,197.58533 171.06893,246.62085"
     fill="none"
     stroke="#4fcb4f"
     stroke-width="1.04127"
     id="path56" />
  <path
     d="M 124.45298,132.85456 C 146.51436,161.267 254.09889,378.03921 294.9347,377.90479"
     fill="none"
     stroke="#4fcb4f"
     stroke-width="1.04127"
     id="path58" />
  <path
     d="m 140.83823,119.20725 c 15.16982,26.10534 145.30248,168.88989 155.40531,265.21344"
     fill="none"
     stroke="#4fcb4f"
     stroke-width="1.04127"
     id="path60" />
  <path
     d="m 103.33466,236.70571 c -11.222771,9.83681 -10.880349,10.72612 -10.880349,10.72612 l -2.928549,-0.71017 1.736161,-3.57901 -3.632419,1.04163 -2.284463,1.49257 0.196436,-4.26243 -2.059762,-0.84056 -2.039311,-1.05266 7.332329,-3.89631 -9.423646,-5.51001 0.628471,-2.08013 3.175248,1.48317 -1.117041,-3.96084 3.49573,-0.73366 -1.172011,-4.50128 3.948241,1.23654 -0.49486,-4.86421 3.283637,-0.75411 7.345068,8.1997 0.79662,-8.27186 2.05976,0.84055 1.16416,2.35981 2.73534,-2.84054 0.60328,2.62695 3.52248,-2.12258 -2.51545,5.00245 4.93807,-3.48469 -0.15558,3.83822 2.77772,0.0534 z"
     fill="#00ae00"
     id="path64"
     style="stroke-width:0.707481" />
  <path
     d="m 105.60567,234.49837 c -13.835498,5.24958 -13.824881,6.19442 -13.824881,6.19442 l -2.474627,-1.67468 2.853201,-2.72337 -3.735647,-0.29111 -2.639535,0.59498 1.659606,-3.89192 -1.622255,-1.4947 -1.529786,-1.68465 8.162208,-1.07884 -6.845443,-8.38507 1.304739,-1.71479 2.435924,2.47831 0.33484,-4.06689 3.501954,0.52983 0.47106,-4.58801 3.239554,2.517 1.225923,-4.69053 3.312005,0.43734 3.98212,10.16368 3.60674,-7.40874 1.62226,1.49476 0.26378,2.59582 3.52566,-1.69109 -0.34987,2.64959 4.00809,-0.75121 -4.07049,3.77575 5.79533,-1.52617 -1.47467,3.51201 2.56214,1.01226 z"
     fill="#00ae00"
     id="path66"
     style="stroke-width:0.707481" />
  <path
     d="m 97.087604,257.30048 c -8.987839,11.75834 -8.481282,12.55567 -8.481282,12.55567 l -2.986207,-0.1179 0.988208,-3.81919 -3.328059,1.72293 -1.929231,1.89782 -0.642403,-4.18263 -2.166945,-0.41454 -2.188587,-0.62476 6.367328,-5.22184 -10.239373,-3.51477 0.204333,-2.14537 3.377159,0.82124 -1.860462,-3.63255 3.255331,-1.39678 -2.019574,-4.14726 4.080468,0.43028 -1.432152,-4.63252 3.045141,-1.3752 8.744461,6.53627 -0.842749,-8.19828 2.166946,0.41454 1.593243,2.06676 2.104118,-3.29658 1.100134,2.43614 3.00977,-2.75238 -1.467598,5.35549 4.119798,-4.35356 0.59919,3.76225 2.71113,-0.49113 z"
     fill="#00ae00"
     id="path68"
     style="stroke-width:0.707481" />
  <path
     d="m 119.59965,230.5294 c -11.59632,10.82305 -11.20296,11.75621 -11.20296,11.75621 l -3.13485,-0.65732 1.72569,-3.85995 -3.82457,1.22713 -2.37743,1.66145 0.0672,-4.53496 -2.21611,-0.82463 -2.201464,-1.05069 7.660604,-4.3827 -10.194096,-5.5412 0.598668,-2.23083 3.422585,1.47035 -1.318178,-4.17088 3.689511,-0.89545 -1.39451,-4.74332 4.23561,1.1827 -0.68712,-5.15131 3.46354,-0.9101 8.07519,8.46784 0.57189,-8.81451 2.21619,0.82471 1.31513,2.46848 2.81182,-3.10853 0.72807,2.77077 3.67182,-2.3719 -2.50639,5.39808 5.13058,-3.86595 -0.0379,4.08294 2.95288,-0.0354 z"
     fill="#00ae00"
     id="path70"
     style="stroke-width:0.707481" />
  <path
     d="M 98.58039,269.12249 C 88.003549,258.15441 87.112823,258.54707 87.112823,258.54707 l 0.582101,-3.02123 3.73444,1.59686 -1.238733,-3.65407 -1.633152,-2.25737 4.356739,-0.006 0.757294,-2.14147 0.974549,-2.13093 4.329789,7.28918 5.162,-9.87857 2.15201,0.53995 -1.35851,3.31038 3.98532,-1.33155 0.91803,3.52962 4.53382,-1.4139 -1.06936,4.08677 4.93687,-0.74088 0.92857,3.31229 -8.00585,7.88912 8.47491,0.41082 -0.75728,2.14147 -2.35026,1.30191 3.02986,2.65178 -2.64987,0.74286 2.33582,3.48944 -5.22404,-2.32252 3.79372,4.86704 -3.92213,0.0277 0.0803,2.83558 z"
     fill="#00ae00"
     id="path72"
     style="stroke-width:0.707481" />
  <path
     d="M 142.52911,244.09889 C 130.64272,232.9504 129.7131,233.41733 129.7131,233.41733 l 0.45982,-3.25844 4.07459,1.50552 -1.51895,-3.83681 -1.86549,-2.32372 4.65339,-0.2406 0.6941,-2.32804 0.9268,-2.32846 5.01562,7.55377 4.98434,-10.82871 2.32769,0.46142 -1.27368,3.60887 4.1856,-1.63591 1.16974,3.72099 4.76715,-1.75328 -0.92325,4.42268 5.23366,-1.05598 1.16939,3.4883 -8.12895,8.85625 9.07485,-0.0155 -0.6941,2.32804 -2.44067,1.51663 3.37851,2.67018 -2.79066,0.93549 2.68206,3.60208 -5.70463,-2.20084 4.31322,4.99546 -4.188,0.23981 0.23784,3.02455 z"
     fill="#00ae00"
     id="path74"
     style="stroke-width:0.707481" />
  <path
     d="m 126.85841,287.69387 c -14.27697,-4.11117 -14.838,-3.34595 -14.838,-3.34595 l -0.98022,-2.83545 3.93218,-0.47056 -2.82645,-2.4829 -2.47916,-1.11103 3.67664,-2.12811 -0.40366,-2.1777 -0.21499,-2.27469 7.20781,4.04722 -0.45248,-10.85842 2.0807,-0.59233 0.46531,3.45788 2.71743,-3.06622 2.49494,2.53405 3.14065,-3.40298 1.08768,3.97279 3.80894,-3.03092 2.39793,2.34537 -2.91892,10.56411 7.35851,-3.78184 0.40366,2.1777 -1.35087,2.24462 3.85103,0.76373 -1.87624,1.91833 3.67282,1.80939 -5.54389,0.58329 5.57544,2.26267 -3.29927,1.93411 1.44928,2.35592 z"
     fill="#00ae00"
     id="path76"
     style="stroke-width:0.707481" />
  <path
     d="m 125.5142,277.55567 c -14.32862,2.56356 -14.49064,3.47882 -14.49064,3.47882 l -2.0884,-2.06824 3.25285,-2.11495 -3.5587,-0.95962 -2.65992,0.096 2.31106,-3.46135 -1.29703,-1.73956 -1.17314,-1.90645 8.08722,0.43883 -5.09585,-9.34865 1.57273,-1.42091 1.90511,2.8382 1.062,-3.87098 3.28943,1.14796 1.28833,-4.35009 2.67498,3.02151 2.0367,-4.31217 3.1226,1.02408 2.00486,10.54854 4.83196,-6.50804 1.29703,1.73955 -0.21623,2.55747 3.71555,-0.99486 -0.81927,2.49805 4.01135,0.002 -4.6207,2.91143 5.87988,-0.4234 -2.06323,3.12763 2.29323,1.44376 z"
     fill="#00ae00"
     id="path78"
     style="stroke-width:0.707481" />
  <path
     d="m 129.30629,246.79439 c -12.77145,-8.16857 -13.54189,-7.58278 -13.54189,-7.58278 l -0.13516,-3.0583 3.98305,0.68195 -2.04349,-3.24974 -2.10228,-1.80691 4.21453,-1.0136 0.23775,-2.24739 0.45047,-2.28743 5.87514,6.05271 2.71156,-10.753 2.20734,0.025 -0.54931,3.51753 3.5488,-2.20989 1.70432,3.20347 4.06059,-2.4164 -0.0901,4.20201 4.60619,-1.85827 1.66429,2.99074 -5.92381,9.4852 8.29663,-1.56177 -0.23774,2.24739 -1.97337,1.80323 3.54504,1.86576 -2.39255,1.33149 3.06707,2.83678 -5.59229,-1.03985 4.79644,3.83285 -3.78906,0.93352 0.73331,2.72542 z"
     fill="#00ae00"
     id="path80"
     style="stroke-width:0.707481" />
  <path
     d="m 107.60078,294.76161 c -14.659726,5.57056 -14.648403,6.57193 -14.648403,6.57193 l -2.623486,-1.77351 3.022436,-2.88772 -3.959209,-0.3066 -2.797098,0.63193 1.756893,-4.12553 -1.720035,-1.58328 -1.622179,-1.78462 8.649666,-1.14754 -7.258759,-8.88242 1.381855,-1.81795 2.582871,2.62526 0.352759,-4.31026 3.711651,0.5597 0.496858,-4.86266 3.43461,2.66586 1.29681,-4.97168 3.51024,0.46179 4.2255,10.76927 3.81857,-7.85374 1.72002,1.58327 0.28088,2.7509 3.73565,-1.79403 -0.36943,2.80821 4.24737,-0.79826 -4.31196,4.00364 6.14108,-1.62042 -1.56106,3.72277 2.71587,1.07148 z"
     fill="#00ae00"
     id="path82"
     style="stroke-width:0.707481" />
  <path
     d="m 161.53206,303.31506 c -14.19137,5.42129 -14.17863,6.39124 -14.17863,6.39124 l -2.54438,-1.71345 2.92281,-2.80247 -3.83575,-0.29018 -2.70838,0.61693 1.69477,-3.99933 -1.66895,-1.5307 -1.57442,-1.72597 8.37728,-1.12645 -7.04701,-8.59165 1.33551,-1.7634 2.50647,2.53859 0.33432,-4.17584 3.59633,0.53578 0.47295,-4.71118 3.33159,2.57651 1.24765,-4.81816 3.40114,0.44129 4.11167,10.42473 3.68548,-7.61462 1.66895,1.53071 0.27683,2.6643 3.61551,-1.74422 -0.35303,2.7209 4.113,-0.7805 -4.17003,3.88571 5.94595,-1.58023 -1.50573,3.60885 2.63261,1.03328 z"
     fill="#00ae00"
     id="path84"
     style="stroke-width:0.707481" />
  <path
     d="m 109.27043,296.04215 c -14.228156,6.82118 -14.132645,7.82403 -14.132645,7.82403 l -2.779835,-1.55688 2.786771,-3.15006 -3.995293,0.0264 -2.751035,0.86942 1.413544,-4.28437 -1.857988,-1.44226 -1.776836,-1.65247 8.575381,-1.87992 -8.027086,-8.29309 1.232153,-1.93921 2.810963,2.41421 -0.0099,-4.35115 3.768467,0.24817 0.08811,-4.91714 3.668209,2.38316 0.88096,-5.09387 3.55828,0.16698 5.14451,10.44029 3.1662,-8.19616 1.85798,1.44234 0.51359,2.73434 3.594,-2.11367 -0.13358,2.84662 4.19105,-1.15843 -3.98553,4.37761 6.02032,-2.14247 -1.25119,3.86398 2.81323,0.84523 z"
     fill="#00ae00"
     id="path86"
     style="stroke-width:0.707481" />
  <path
     d="m 99.18882,312.44156 c -15.306352,-3.05059 -15.826349,-2.20033 -15.826349,-2.20033 l -1.274953,-2.88214 4.074949,-0.83766 -3.17659,-2.3511 -2.692671,-0.94548 3.661924,-2.55032 -0.613663,-2.24421 -0.424673,-2.36227 7.900437,3.60405 -1.426634,-11.32678 2.126126,-0.80264 0.790539,3.57887 2.57551,-3.44819 2.834101,2.43366 2.989037,-3.83787 1.48727,4.06328 3.7212,-3.50699 2.71603,2.2447 -2.12846,11.31404 7.37125,-4.60465 0.61367,2.24421 -1.21709,2.46818 4.0983,0.46153 -1.79573,2.17281 4.00357,1.57175 -5.75218,1.09716 6.03495,1.87928 -3.28391,2.31417 1.72385,2.33894 z"
     fill="#00ae00"
     id="path88"
     style="stroke-width:0.707481" />
  <path
     d="m 153.42433,248.88853 c -8.86475,11.51355 -8.37022,12.29815 -8.37022,12.29815 l -2.93145,-0.12596 0.98327,-3.74633 -3.27338,1.6802 -1.90065,1.85672 -0.61641,-4.10877 -2.12612,-0.41441 -2.14665,-0.62088 6.26935,-5.10511 -10.04128,-3.48583 0.20796,-2.1056 3.31292,0.81784 -1.81419,-3.57285 3.20093,-1.36027 -1.96864,-4.07878 4.00477,0.43641 -1.39028,-4.55314 2.99449,-1.33976 8.56264,6.44728 -0.79938,-8.05184 2.12612,0.41442 1.55724,2.03464 2.07709,-3.22944 1.07184,2.39553 2.96441,-2.69203 -1.45917,5.25305 4.05973,-4.26024 0.57542,3.69581 2.66352,-0.47294 z"
     fill="#00ae00"
     id="path90"
     style="stroke-width:0.707481" />
  <path
     d="m 139.55062,226.01567 c -13.88432,-5.63409 -14.52742,-4.92591 -14.52742,-4.92591 l -0.68306,-2.94751 3.9936,-0.0559 -2.57199,-2.78932 -2.36885,-1.37661 3.91265,-1.74529 -0.1744,-2.22686 0.0252,-2.30413 6.80109,4.82191 0.69522,-10.93836 2.14954,-0.3739 0.10075,3.51731 3.04995,-2.78769 2.23409,2.80552 3.51002,-3.08066 0.67052,4.09964 4.14088,-2.63678 2.15683,2.606 -4.04538,10.28608 7.78017,-3.0143 0.17439,2.22687 -1.59232,2.10829 3.78155,1.1735 -2.0848,1.72548 3.49219,2.20338 -5.62192,-0.002 5.35244,2.85935 -3.51363,1.5907 1.20428,2.51616 z"
     fill="#00ae00"
     id="path92"
     style="stroke-width:0.707481" />
  <path
     d="m 125.39392,146.20472 c -12.40851,10.34762 -12.06184,11.319 -12.06184,11.319 l -3.15077,-0.84672 1.97443,-3.82747 -3.95927,1.03058 -2.51226,1.55463 0.32615,-4.60818 -2.20691,-0.96466 -2.17919,-1.19365 8.03981,-4.02175 -10.05259,-6.21481 0.73564,-2.23472 3.39718,1.6899 -1.10345,-4.3167 3.80313,-0.70097 -1.1486,-4.90312 4.24036,1.44354 -0.40601,-5.27787 3.57412,-0.72871 7.73136,9.07061 1.08259,-8.93194 2.20691,0.96464 1.1972,2.58514 3.03623,-3.00156 0.58297,2.85929 3.86907,-2.20346 -2.85582,5.34729 5.43749,-3.64006 -0.27064,4.15015 3.00502,0.13184 z"
     fill="#00ae00"
     id="path94"
     style="stroke-width:0.707481" />
  <path
     d="m 80.872136,148.0371 c -14.221074,-4.74975 -14.8189,-4.00194 -14.8189,-4.00194 l -0.86829,-2.90046 3.984673,-0.30793 -2.744668,-2.62314 -2.452627,-1.22521 3.79719,-1.99 -0.314779,-2.21279 -0.120443,-2.30265 7.09675,4.38597 0.0034,-10.96738 2.123006,-0.50912 0.322727,3.5062 2.869752,-2.97651 2.408272,2.66062 3.310727,-3.29813 0.928493,4.05174 3.968831,-2.89465 2.318482,2.46628 -3.390386,10.52731 7.579242,-3.50154 0.314771,2.21279 -1.457058,2.206 3.850539,0.93316 -1.973024,1.85482 3.626624,1.97988 -5.614432,0.35337 5.525782,2.5175 -3.408504,1.81044 1.361544,2.43671 z"
     fill="#00ae00"
     id="path96"
     style="stroke-width:0.707481" />
  <path
     d="m 96.351824,179.93035 c -16.085998,-2.47767 -16.588313,-1.56806 -16.588313,-1.56806 l -1.460093,-2.94425 4.206962,-1.05917 -3.416992,-2.30399 -2.848534,-0.86178 3.698364,-2.82455 -0.74201,-2.30992 -0.55053,-2.4416 8.395672,3.39323 -2.004647,-11.73499 2.178268,-0.93353 0.987358,3.69235 2.525425,-3.71024 3.063961,2.40571 2.938308,-4.13508 1.735377,4.16508 3.71626,-3.82393 2.9323,2.2142 -1.69965,11.88498 7.46816,-5.13448 0.74201,2.30993 -1.15496,2.62709 4.29073,0.29327 -1.77139,2.34586 4.24284,1.45423 -5.94242,1.40625 6.37327,1.68169 -3.31533,2.56122 1.90298,2.35783 z"
     fill="#00ae00"
     id="path98"
     style="stroke-width:0.707481" />
  <path
     d="m 114.39259,126.72069 c -10.00237,-10.84993 -10.87328,-10.48982 -10.87328,-10.48982 l 0.62942,-2.91263 3.58105,1.62749 -1.1198,-3.565 -1.53212,-2.22128 4.2185,0.0885 0.77986,-2.057 0.99004,-2.04207 4.03356,7.15193 5.21322,-9.45195 2.07193,0.56968 -1.38744,3.17568 3.88775,-1.20244 0.81197,3.4375 4.4207,-1.27021 -1.12447,3.93367 4.79623,-0.60983 0.8269,3.22739 -7.92379,7.46392 8.19688,0.58239 -0.77986,2.057 -2.30398,1.20936 2.87591,2.6336 -2.58188,0.66152 2.18562,3.42952 -5.00755,-2.36257 3.56726,4.7951 -3.79818,-0.0586 0.0161,2.7473 z"
     fill="#00ae00"
     id="path100"
     style="stroke-width:0.707481" />
  <path
     d="M 114.38552,106.23912 C 104.35273,94.105102 103.404,94.439041 103.404,94.439041 l 0.83793,-3.066936 3.72171,1.939635 -0.98814,-3.862423 -1.50467,-2.45454 4.48925,0.336625 0.94902,-2.146714 1.17208,-2.118697 3.88641,7.850924 6.09714,-9.771025 2.17466,0.725945 -1.6606,3.303588 4.21106,-1.057759 0.66757,3.708973 4.78271,-1.099283 -1.42395,4.12631 5.14488,-0.374129 0.69554,3.485896 -8.87039,7.497179 8.69919,1.09136 -0.94902,2.14671 -2.52408,1.1561 2.91263,2.971 -2.78868,0.55644 2.1315,3.77929 -5.19921,-2.80473 3.52503,5.31361 -4.04312,-0.28066 -0.14074,2.92783 z"
     fill="#00ae00"
     id="path102"
     style="stroke-width:0.707481" />
  <path
     d="m 138.71579,130.37129 c -12.88676,7.38115 -12.72759,8.31644 -12.72759,8.31644 l -2.71643,-1.27028 2.39928,-3.14858 -3.74852,0.29958 -2.5226,1.00526 1.03229,-4.11881 -1.84328,-1.22613 -1.7815,-1.42897 7.92025,-2.35429 -8.1049,-7.23328 1.02329,-1.90504 2.8046,2.07292 -0.30837,-4.08365 3.55446,-0.0262 -0.2554,-4.62169 3.60723,1.98476 0.47666,-4.84214 3.35162,-0.0879 5.54701,9.44629 2.40847,-7.91106 1.84328,1.22614 0.67011,2.53137 3.2283,-2.23118 0.0703,2.68128 3.85443,-1.37563 -3.44013,4.38327 5.50386,-2.42503 -0.90877,3.71314 2.69891,0.59998 z"
     fill="#00ae00"
     id="path104"
     style="stroke-width:0.707481" />
  <path
     d="m 127.36072,112.4508 c -15.50303,-0.35766 -15.86597,0.56372 -15.86597,0.56372 l -1.74253,-2.60177 3.84417,-1.51938 -3.51243,-1.75555 -2.79752,-0.46301 3.14595,-3.12458 -0.98587,-2.09096 -0.82117,-2.23897 8.3511,2.17076 -3.34079,-10.84002 1.94295,-1.150575 1.38808,3.366755 1.92859,-3.816784 3.19145,1.895195 2.26635,-4.269151 2.15314,3.721213 3.0397,-4.071065 3.04344,1.730499 -0.14054,11.438554 6.42315,-5.771839 0.98588,2.090959 -0.76734,2.624472 4.09002,-0.251927 -1.3844,2.434724 4.18794,0.85082 -5.44103,2.06125 6.2288,0.80306 -2.81655,2.82857 2.08863,1.99306 z"
     fill="#00ae00"
     id="path106"
     style="stroke-width:0.707481" />
  <path
     d="m 164.27001,182.62585 c -11.63382,10.11061 -11.28432,11.03105 -11.28432,11.03105 l -3.02166,-0.74626 1.80875,-3.68894 -3.75623,1.06002 -2.36595,1.53162 0.22142,-4.40159 -2.12372,-0.87714 -2.10171,-1.09609 7.58986,-3.99232 -9.70877,-5.73194 0.65816,-2.14572 3.27302,1.5457 -1.13649,-4.09575 3.61374,-0.74257 -1.1909,-4.65423 4.07247,1.29426 -0.48993,-5.02608 3.39478,-0.76458 7.55023,8.50109 0.85882,-8.54 2.12372,0.87713 1.1921,2.44237 2.83757,-2.9219 0.61165,2.71581 3.64743,-2.17692 -2.61981,5.15576 5.11538,-3.57765 -0.1774,3.96359 2.86869,0.0672 z"
     fill="#00ae00"
     id="path108"
     style="stroke-width:0.707481" />
  <path
     d="m 193.84272,210.70578 c -15.10189,-3.95702 -15.67141,-3.13895 -15.67141,-3.13895 l -1.10148,-2.95367 4.11867,-0.59387 -3.03191,-2.53661 -2.63232,-1.1043 3.80823,-2.32853 -0.47918,-2.27732 -0.28343,-2.38399 7.67405,4.06886 -0.75029,-11.39469 2.17069,-0.67492 0.57634,3.62054 2.77687,-3.28972 2.68496,2.59872 3.21295,-3.65421 1.24318,4.1457 3.92434,-3.28023 2.57834,2.40296 -2.79866,11.17041 7.63372,-4.15899 0.47917,2.27737 -1.36211,2.39207 4.06463,0.70476 -1.92237,2.06266 3.90394,1.80768 -5.80877,0.75312 5.91398,2.23564 -3.41671,2.11529 1.58207,2.43805 z"
     fill="#00ae00"
     id="path110"
     style="stroke-width:0.707481" />
  <path
     d="m 150.84909,184.42993 c -14.66749,-5.44867 -15.31697,-4.68947 -15.31697,-4.68947 l -0.80468,-3.0554 4.16678,-0.18259 -2.77149,-2.83142 -2.51545,-1.36317 4.02968,-1.94352 -0.25136,-2.31891 -0.0456,-2.40586 7.24885,4.82142 0.38518,-11.43927 2.23204,-0.45718 0.21465,3.66822 3.09672,-3.00475 2.4193,2.85887 3.56783,-3.32488 0.82746,4.25826 4.24015,-2.88115 2.33243,2.65298 -3.9024,10.86267 8.02708,-3.38848 0.25136,2.31891 -1.59643,2.25014 3.98369,1.10721 -2.12238,1.86592 3.71372,2.19113 -5.86821,0.1733 5.67584,2.81797 -3.61806,1.76976 1.3353,2.58889 z"
     fill="#00ae00"
     id="path112"
     style="stroke-width:0.707481" />
  <path
     d="m 106.71643,182.60463 c -11.066427,-10.4212 -11.934507,-9.98752 -11.934507,-9.98752 l 0.434933,-3.03841 3.797824,1.41185 -1.409724,-3.58155 -1.735735,-2.17091 4.340899,-0.21585 0.65171,-2.17019 0.8688,-2.1702 4.66442,7.05514 4.66916,-10.09081 2.17027,0.4347 -1.19466,3.36379 3.90714,-1.51819 1.08422,3.47296 4.44977,-1.62657 -0.86928,4.12355 4.88367,-0.97534 1.08428,3.2559 -7.59905,8.2457 8.4643,0.002 -0.65173,2.17027 -2.27929,1.41015 3.14638,2.49684 -2.60473,0.86744 2.49501,3.36485 -5.31694,-2.06337 4.01397,4.66754 -3.90679,0.21595 0.21626,2.82158 z"
     fill="#00ae00"
     id="path114"
     style="stroke-width:0.707481" />
  <path
     d="m 94.653864,144.3865 c -9.731396,11.41733 -9.260923,12.25215 -9.260923,12.25215 l -3.016349,-0.28019 1.206049,-3.81261 -3.461568,1.56473 -2.055088,1.8171 -0.424937,-4.26837 -2.171119,-0.53634 -2.181659,-0.75029 6.726454,-4.94268 -10.175,-4.10926 0.322404,-2.16058 3.374184,1.01318 -1.687478,-3.77717 3.370367,-1.23851 -1.820842,-4.30672 4.107142,0.65533 -1.200107,-4.7663 3.156428,-1.22798 8.498969,7.08755 -0.411437,-8.34403 2.171119,0.53634 1.501421,2.17784 2.307372,-3.22357 0.982411,2.52515 3.194842,-2.62391 -1.774004,5.34191 4.404635,-4.18483 0.40384,3.8405 2.77078,-0.3511 z"
     fill="#00ae00"
     id="path116"
     style="stroke-width:0.707481" />
  <path
     d="m 173.99788,186.84244 c -13.18108,9.06284 -12.92852,10.05189 -12.92852,10.05189 l -3.0283,-1.12355 2.29733,-3.59195 -3.99747,0.65287 -2.6191,1.30204 0.74413,-4.51274 -2.08707,-1.15332 -2.03868,-1.37655 8.29451,-3.22725 -9.33945,-7.04821 0.93012,-2.13546 3.19385,1.97741 -0.69193,-4.35646 3.81333,-0.34222 -0.68262,-4.93871 4.04764,1.81186 0.0837,-5.24003 3.59012,-0.39059 6.78941,9.65075 1.88629,-8.70556 2.08707,1.15334 0.94307,2.65815 3.26827,-2.68044 0.31248,2.8721 4.01608,-1.81732 -3.30556,5.0094 5.69395,-3.08964 -0.64738,4.06624 2.9502,0.40556 z"
     fill="#00ae00"
     id="path118"
     style="stroke-width:0.707481" />
  <path
     d="m 190.26286,129.38082 c -12.40143,9.08193 -12.13047,10.025 -12.13047,10.025 l -2.94092,-0.99252 2.10383,-3.5159 -3.82103,0.74151 -2.47845,1.32569 0.58559,-4.3559 -2.03768,-1.04806 -1.99765,-1.26385 7.87497,-3.33725 -9.17249,-6.50274 0.83228,-2.0778 3.12438,1.80789 -0.78926,-4.16473 3.653,-0.43785 -0.79705,-4.72427 3.93975,1.62452 -0.0695,-5.03564 3.43722,-0.47793 6.79762,9.07558 1.56268,-8.41621 2.03769,1.04807 0.98191,2.52628 3.06262,-2.6682 0.38233,2.74977 3.80554,-1.86053 -3.03169,4.90623 5.38082,-3.1306 -0.50546,3.92433 2.84534,0.30509 z"
     fill="#00ae00"
     id="path120"
     style="stroke-width:0.707481" />
  <path
     d="m 170.12088,125.36233 c -13.31763,6.54469 -13.21858,7.48727 -13.21858,7.48727 l -2.62836,-1.43866 2.59178,-2.98776 -3.75686,0.0614 -2.57912,0.84274 1.29009,-4.04191 -1.76043,-1.33932 -1.68607,-1.53771 8.0469,-1.84625 -7.62453,-7.72569 1.14095,-1.83486 2.66544,2.24463 -0.049,-4.09164 3.5461,0.19891 0.0378,-4.62481 3.47139,2.20755 0.78184,-4.79828 3.34773,0.12448 4.93334,9.77103 2.90251,-7.73631 1.7605,1.33933 0.50799,2.56667 3.36038,-2.02056 -0.0996,2.67817 3.93062,-1.12773 -3.70791,4.15313 5.64189,-2.06981 -1.14125,3.64515 2.65327,0.76911 z"
     fill="#00ae00"
     id="path122"
     style="stroke-width:0.707481" />
  <path
     d="m 191.44436,172.54425 c -15.85748,-1.39621 -16.29046,-0.47646 -16.29046,-0.47646 l -1.6122,-2.78096 4.03886,-1.30106 -3.48152,-2.03167 -2.83502,-0.66012 3.43023,-2.99187 -0.87105,-2.20741 -0.69247,-2.34813 8.41055,2.77835 -2.70223,-11.32677 2.06677,-1.04955 1.19833,3.54108 2.22912,-3.78176 3.14334,2.15335 2.60516,-4.22267 1.95846,3.95497 3.38423,-3.96841 3.00269,1.97486 -0.90373,11.7081 6.96316,-5.48594 0.87106,2.20741 -0.96041,2.63749 4.20654,0.0136 -1.57987,2.40218 4.23356,1.1498 -5.71065,1.75009 6.32736,1.2364 -3.07308,2.7105 2.00719,2.18039 z"
     fill="#00ae00"
     id="path124"
     style="stroke-width:0.707481" />
  <path
     d="m 161.03682,126.28206 c -14.07179,-6.32142 -14.76088,-5.6172 -14.76088,-5.6172 l -0.59137,-3.05836 4.11089,0.0935 -2.54077,-2.96704 -2.38521,-1.50595 4.09151,-1.64772 -0.0953,-2.29768 0.11291,-2.36964 6.81509,5.2181 1.12872,-11.22773 2.22574,-0.30345 -0.0293,3.6226 3.24331,-2.75288 2.19255,2.97092 3.72772,-3.03686 0.53491,4.24326 4.35999,-2.55634 2.12061,2.76271 -4.55088,10.42968 8.11906,-2.80721 0.0952,2.29769 -1.71798,2.10893 3.84629,1.3503 -2.21017,1.69646 3.50968,2.39893 -5.78408,-0.21417 5.39879,3.14411 -3.67516,1.50383 1.14392,2.63431 z"
     fill="#00ae00"
     id="path126"
     style="stroke-width:0.707481" />
  <path
     d="M 129.46194,127.86681 C 118.27596,116.68932 117.35976,117.1131 117.35976,117.1131 l 0.546,-3.14617 3.90566,1.58525 -1.35547,-3.76783 -1.73793,-2.31098 4.52053,-0.0905 0.74462,-2.23663 0.97031,-2.22984 4.63266,7.48019 5.16659,-10.34904 2.24335,0.51897 -1.34605,3.461 4.10969,-1.45819 1.02033,3.6448 4.6773,-1.55412 -1.03115,4.26109 5.10843,-0.86355 1.02705,3.41911 -8.15584,8.33979 8.80177,0.26357 -0.74463,2.23663 -2.41364,1.396 3.19477,2.69345 -2.73533,0.82167 2.49069,3.57589 -5.46522,-2.30964 4.02995,4.97734 -4.06914,0.10403 0.13783,2.94072 z"
     fill="#00ae00"
     id="path128"
     style="stroke-width:0.707481" />
  <path
     d="m 195.24353,177.20654 c -15.41743,5.2551 -15.44148,6.29489 -15.44148,6.29489 l -2.65942,-1.93524 3.24111,-2.88879 -4.09857,-0.46061 -2.92615,0.55536 1.97196,-4.21913 -1.72851,-1.70532 -1.61964,-1.91076 9.01967,-0.8801 -7.21559,-9.48096 1.49979,-1.83733 2.58662,2.8179 0.52115,-4.46131 3.83257,0.71442 0.69058,-5.02956 3.4692,2.89063 1.52484,-5.11395 3.62704,0.60554 3.99883,11.33031 4.24609,-8.01505 1.72852,1.70531 0.19264,2.86558 3.94208,-1.72788 -0.48444,2.90166 4.43747,-0.67583 -4.61978,4.00074 6.4327,-1.46116 -1.7542,3.80808 2.78054,1.20987 z"
     fill="#00ae00"
     id="path130"
     style="stroke-width:0.707481" />
  <path
     d="m 174.06155,178.42341 c -9.22909,11.27655 -8.75649,12.07812 -8.75649,12.07812 l -2.93464,-0.2137 1.09738,-3.72588 -3.33132,1.58659 -1.96057,1.80437 -0.49532,-4.13692 -2.11876,-0.47883 -2.13319,-0.68637 6.43652,-4.93022 -9.96134,-3.79359 0.27126,-2.1044 3.29637,0.91859 -1.71196,-3.63546 3.2491,-1.26801 -1.85169,-4.14719 4.00131,0.55689 -1.25777,-4.60542 3.04154,-1.25366 8.39073,6.71803 -0.56113,-8.095 2.11884,0.47881 1.50021,2.08594 2.17834,-3.17517 1.00293,2.43323 3.05179,-2.60997 -1.61936,5.22199 4.1965,-4.14923 0.46653,3.72178 2.68398,-0.39461 z"
     fill="#00ae00"
     id="path132"
     style="stroke-width:0.707481" />
  <path
     d="m 192.97959,190.95998 c -13.07071,9.85733 -12.76791,10.85771 -12.76791,10.85771 l -3.1468,-1.01297 2.18789,-3.77569 -4.05805,0.84686 -2.61959,1.44885 0.55845,-4.64758 -2.18569,-1.08563 -2.14629,-1.31606 8.33625,-3.67183 -9.86582,-6.78785 0.85528,-2.22518 3.3543,1.87858 -0.90288,-4.42338 3.88371,-0.52094 -0.91944,-5.01915 4.21991,1.67106 -0.14936,-5.36157 3.65329,-0.56039 7.37479,9.56302 1.53827,-8.98572 2.1857,1.08563 1.0835,2.67562 3.22159,-2.88729 0.44831,2.9226 4.02486,-2.03832 -3.15522,5.27024 5.6834,-3.41445 -0.47957,4.18673 3.03473,0.28235 z"
     fill="#00ae00"
     id="path134"
     style="stroke-width:0.707481" />
  <path
     d="m 273.11598,187.16788 c -12.02223,10.89875 -11.63382,11.8588 -11.63382,11.8588 l -3.19683,-0.7188 1.82241,-3.92263 -3.9302,1.19854 -2.45645,1.66428 0.13602,-4.63768 -2.25461,-0.87643 -2.23627,-1.10735 7.90115,-4.3694 -10.3455,-5.81904 0.64543,-2.27298 3.47904,1.55475 -1.28648,-4.28585 3.78721,-0.86122 -1.3561,-4.87241 4.315,1.27247 -0.6265,-5.27936 3.55623,-0.87962 8.13462,8.78126 0.71562,-9.00765 2.2546,0.87643 1.30862,2.54438 2.92218,-3.13803 0.70369,2.84499 3.79096,-2.37168 -2.64371,5.48439 5.30526,-3.87842 -0.0993,4.17577 3.02095,0.008 z"
     fill="#00ae00"
     id="path136"
     style="stroke-width:0.707481" />
  <path
     d="m 273.92251,179.93742 c -14.45738,3.29178 -14.57836,4.23081 -14.57836,4.23081 l -2.22368,-2.005 3.20906,-2.30716 -3.66687,-0.80675 -2.70194,0.22456 2.18654,-3.63228 -1.40273,-1.70821 -1.28464,-1.88395 8.24994,0.0609 -5.63105,-9.27013 1.53254,-1.52087 2.07384,2.79709 0.89603,-3.98956 3.40192,1.01128 1.10346,-4.48783 2.866,2.94693 1.86684,-4.48493 3.22618,0.89312 2.54304,10.63769 4.60634,-6.85266 1.40272,1.70821 -0.0981,2.61265 3.73323,-1.18948 -0.71449,2.58096 4.08175,-0.18992 -4.56297,3.18282 5.96279,-0.71124 -1.95031,3.28087 2.40232,1.35972 z"
     fill="#00ae00"
     id="path138"
     style="stroke-width:0.707481" />
  <path
     d="m 203.30882,187.76217 c -13.85602,-4.6096 -14.43757,-3.88061 -14.43757,-3.88061 l -0.84898,-2.82384 3.88047,-0.30451 -2.67619,-2.5516 -2.39009,-1.19047 3.69596,-1.94254 -0.30913,-2.15477 -0.11995,-2.24251 6.91654,4.2635 -0.009,-10.68156 2.06712,-0.49829 0.31834,3.41444 2.79159,-2.90223 2.34855,2.58853 3.22067,-3.21599 0.90897,3.94506 3.862,-2.82384 2.2609,2.39934 -3.28993,10.25707 7.37832,-3.41898 0.30912,2.15478 -1.41652,2.15018 3.75128,0.90437 -1.91947,1.80874 3.53443,1.92414 -5.46769,0.35063 5.38464,2.44555 -3.31759,1.76715 1.32886,2.37168 z"
     fill="#00ae00"
     id="path140"
     style="stroke-width:0.707481" />
  <path
     d="m 215.08838,180.34068 c -14.46799,-5.06506 -15.09058,-4.3094 -15.09058,-4.3094 l -0.84487,-2.97786 4.07799,-0.25612 -2.76716,-2.72203 -2.48921,-1.2886 3.9111,-1.97841 -0.2892,-2.26676 -0.0892,-2.35571 7.19013,4.58823 0.1652,-11.21145 2.17784,-0.4892 0.27827,3.58905 2.97758,-3.00057 2.42269,2.75535 3.43312,-3.32289 0.88952,4.15567 4.09986,-2.90067 2.33383,2.55542 -3.62103,10.71197 7.79998,-3.46786 0.2892,2.26677 -1.522,2.23366 3.92255,1.01064 -2.04433,1.86704 3.67826,2.07745 -5.74474,0.27854 5.61181,2.65496 -3.5111,1.80055 1.35597,2.51106 z"
     fill="#00ae00"
     id="path142"
     style="stroke-width:0.707481" />
  <path
     d="m 193.68,150.71137 c -10.96101,-9.59272 -11.77744,-9.14701 -11.77744,-9.14701 l 0.31035,-2.92481 3.68612,1.21928 -1.4751,-3.38049 -1.738,-2.01823 4.14931,-0.35832 0.54827,-2.10093 0.75616,-2.10851 4.7131,6.59308 4.11875,-9.82619 2.09343,0.34044 -1.02648,3.2629 3.68845,-1.59027 1.15956,3.28781 4.20428,-1.71304 -0.68841,3.9791 4.64256,-1.1046 1.15206,3.08003 -6.9885,8.16149 8.10561,-0.29342 -0.54828,2.10101 -2.13341,1.42995 3.10018,2.28107 -2.46402,0.92163 2.50675,3.13499 -5.16355,-1.79014 4.00682,4.32936 -3.73359,0.34328 0.30565,2.69437 z"
     fill="#00ae00"
     id="path144"
     style="stroke-width:0.707481" />
  <path
     d="m 218.81681,196.23779 c -14.03006,-5.24463 -14.65336,-4.51911 -14.65336,-4.51911 l -0.76429,-2.92636 3.989,-0.16659 -2.64747,-2.71587 -2.40529,-1.30991 3.86129,-1.85254 -0.23606,-2.22035 -0.0388,-2.30314 6.92979,4.62962 0.3912,-10.94969 2.13759,-0.43326 0.19827,3.51187 2.9703,-2.87026 2.31028,2.74143 3.42187,-3.17575 0.78375,4.07793 4.06462,-2.7497 2.2275,2.54418 -3.75693,10.39077 7.69102,-3.22788 0.23606,2.22035 -1.53261,2.15089 3.81126,1.06773 -2.03535,1.782 3.55071,2.10483 -5.61775,0.15436 5.42772,2.70866 -3.46687,1.68699 1.27318,2.48085 z"
     fill="#00ae00"
     id="path146"
     style="stroke-width:0.707481" />
  <path
     d="m 214.31015,160.4534 c -11.37984,-10.72189 -12.27268,-10.27546 -12.27268,-10.27546 l 0.44815,-3.12516 3.90601,1.45317 -1.44914,-3.68428 -1.78476,-2.23338 4.46498,-0.22086 0.67091,-2.23212 0.89419,-2.23195 4.79587,7.25805 4.80521,-10.37805 2.23218,0.44767 -1.22967,3.45959 4.0192,-1.56057 1.11428,3.5725 4.5774,-1.67192 -0.89524,4.24114 5.02347,-1.00194 1.11442,3.34922 -7.81767,8.47916 8.70626,0.004 -0.6709,2.2321 -2.34481,1.44984 3.23566,2.56901 -2.67937,0.89156 2.56547,3.46164 -5.46834,-2.12372 4.12745,4.80189 -4.01849,0.2211 0.2217,2.9023 z"
     fill="#00ae00"
     id="path148"
     style="stroke-width:0.707481" />
  <path
     d="m 261.64771,201.86226 c -14.97596,4.89217 -15.01204,5.89749 -15.01204,5.89749 l -2.5482,-1.90453 3.17036,-2.75388 -3.95829,-0.49608 -2.83685,0.50099 1.9593,-4.0562 -1.6507,-1.67058 -1.5428,-1.86803 8.73456,-0.73982 -6.86143,-9.2588 1.47318,-1.75851 2.46685,2.75727 0.55911,-4.30836 3.69787,0.73826 0.72997,-4.8558 3.31958,2.83856 1.53792,-4.92718 3.5004,0.63044 3.72758,11.0077 4.20555,-7.69952 1.6507,1.67065 0.15093,2.77382 3.83391,-1.62246 -0.50435,2.80034 4.30007,-0.59884 -4.51741,3.81227 6.23942,-1.33375 -1.74366,3.66136 2.67428,1.20441 z"
     fill="#00ae00"
     id="path150"
     style="stroke-width:0.707481" />
  <path
     d="m 265.65913,180.15674 c -14.26919,-5.99003 -14.94271,-5.26663 -14.94271,-5.26663 l -0.66904,-3.05249 4.12504,-0.008 -2.62179,-2.91242 -2.42948,-1.45097 4.06235,-1.75413 -0.15262,-2.30193 0.0543,-2.37926 6.9643,5.06387 0.85301,-11.28787 2.22461,-0.3596 0.0606,3.63376 3.18423,-2.84138 2.27265,2.92501 3.66305,-3.13825 0.64185,4.2422 4.30906,-2.67202 2.19531,2.71801 -4.30488,10.5733 8.07236,-3.01698 0.15262,2.30193 -1.6705,2.15768 3.89093,1.25861 -2.17437,1.75625 3.57935,2.3187 -5.80608,-0.0711 5.49246,3.0191 -3.64841,1.59941 1.21262,2.61343 z"
     fill="#00ae00"
     id="path152"
     style="stroke-width:0.707481" />
  <path
     d="m 239.19226,187.80462 c -11.42653,-11.33527 -12.35757,-10.89946 -12.35757,-10.89946 l 0.54398,-3.20418 3.98106,1.5989 -1.39366,-3.82981 -1.77748,-2.34558 4.60068,-0.10902 0.74958,-2.27921 0.97929,-2.27321 4.74309,7.59622 5.21994,-10.55278 2.28524,0.51982 -1.35709,3.52764 4.17746,-1.49951 1.05209,3.70593 4.75484,-1.59926 -1.03363,4.34083 5.19617,-0.89802 1.05811,3.47621 -8.26975,8.51879 8.95954,0.2354 -0.74958,2.27922 -2.45142,1.42989 3.2617,2.72946 -2.78096,0.8465 2.54835,3.6303 -5.57114,-2.33038 4.1203,5.05092 -4.14124,0.12109 0.15128,2.99257 z"
     fill="#00ae00"
     id="path154"
     style="stroke-width:0.707481" />
  <path
     d="m 228.88426,147.06077 c -14.57906,0.44504 -14.87337,1.32865 -14.87337,1.32865 l -1.76771,-2.35584 3.534,-1.6207 -3.38741,-1.4719 -2.65079,-0.29395 2.7973,-3.09319 -1.03129,-1.91423 -0.88407,-2.06153 7.95279,1.61815 -3.68385,-10.01297 1.76693,-1.17852 1.47334,3.09225 1.61907,-3.68194 3.09289,1.61922 1.91352,-4.12384 2.20975,3.38657 2.64987,-3.97675 2.9456,1.47198 0.44417,10.75017 5.74207,-5.7446 1.03129,1.91423 -0.58849,2.50363 3.82874,-0.44264 -1.17759,2.35648 3.97625,0.58818 -5.00649,2.2101 5.8907,0.44048 -2.50285,2.79859 2.06209,1.76672 z"
     fill="#00ae00"
     id="path156"
     style="stroke-width:0.707481" />
  <path
     d="m 181.79432,198.5371 c -13.12661,-7.10028 -13.84116,-6.46999 -13.84116,-6.46999 l -0.3529,-2.99285 3.95964,0.38278 -2.24025,-3.04344 -2.1941,-1.62268 4.06483,-1.29858 0.0716,-2.22361 0.27757,-2.27824 6.2039,5.51949 1.88806,-10.7523 2.169,-0.13435 -0.28607,3.49304 3.32509,-2.42517 1.90398,3.02236 3.81268,-2.66473 0.2141,4.13197 4.38851,-2.15605 1.84935,2.81641 -5.13306,9.73919 8.03274,-2.13058 -0.0716,2.22361 -1.80762,1.91246 3.61488,1.57655 -2.25312,1.47949 3.21543,2.56433 -5.56533,-0.61827 4.98506,3.41769 -3.65287,1.18935 0.91619,2.62299 z"
     fill="#00ae00"
     id="path158"
     style="stroke-width:0.707481" />
  <path
     d="m 205.60814,165.75243 c -9.67198,11.88851 -9.1725,12.7297 -9.1725,12.7297 l -3.08716,-0.2157 1.14265,-3.92206 -3.49878,1.67892 -2.05644,1.90383 -0.53371,-4.34945 -2.22991,-0.49705 -2.24569,-0.71533 6.7544,-5.20522 -10.48841,-3.95921 0.2788,-2.21413 3.46977,0.95595 -1.81172,-3.81828 3.41331,-1.34365 -1.96029,-4.35603 4.21008,0.57335 -1.33707,-4.83987 3.19506,-1.32787 8.84563,7.03979 -0.61515,-8.51241 2.22991,0.49705 1.58433,2.18923 2.28127,-3.34617 1.06236,2.55606 3.20163,-2.75451 -1.68706,5.49727 4.40082,-4.37698 0.50217,3.91294 2.82165,-0.42331 z"
     fill="#00ae00"
     id="path160"
     style="stroke-width:0.707481" />
  <path
     d="m 215.37137,229.27008 c -14.78494,1.45373 -15.02336,2.37197 -15.02336,2.37197 l -1.95816,-2.27264 3.47995,-1.88975 -3.54348,-1.26307 -2.71405,-0.1166 2.63021,-3.33549 -1.17952,-1.8744 -1.04,-2.03422 8.19264,1.09807 -4.43145,-9.92241 1.71465,-1.31903 1.70962,3.04118 1.3924,-3.85295 3.25434,1.433 1.66131,-4.32214 2.47824,3.28972 2.41965,-4.22324 3.09452,1.29349 1.18985,10.89379 5.44053,-6.2322 1.17951,1.8744 -0.42604,2.58464 3.86044,-0.71285 -1.03484,2.47561 4.08118,0.32456 -4.93588,2.58989 6.01649,0.0429 -2.35125,3.01592 2.2169,1.65374 z"
     fill="#00ae00"
     id="path162"
     style="stroke-width:0.707481" />
  <path
     d="m 208.6786,218.63664 c -11.81988,10.09081 -11.47534,11.02185 -11.47534,11.02185 l -3.03998,-0.77922 1.85643,-3.70338 -3.7967,1.0354 -2.39907,1.52327 0.26237,-4.43597 -2.13348,-0.90325 -2.10935,-1.12383 7.68819,-3.95786 -9.73848,-5.86559 0.68267,-2.1576 3.28631,1.58752 -1.10946,-4.13969 3.65017,-0.7166 -1.15942,-4.7032 4.09462,1.34117 -0.44933,-5.07193 3.42959,-0.74073 7.5375,8.63835 0.9418,-8.60298 2.13348,0.90325 1.18029,2.47314 2.88695,-2.92084 0.59259,2.74368 3.69687,-2.16248 -2.68723,5.17508 5.18945,-3.56174 -0.21407,3.99479 2.89183,0.0933 z"
     fill="#00ae00"
     id="path164"
     style="stroke-width:0.707481" />
  <path
     d="m 144.08557,222.18112 c -16.01737,-0.16512 -16.3803,0.79132 -16.3803,0.79132 l -1.83408,-2.66431 3.95043,-1.61998 -3.65102,-1.76694 -2.89559,-0.44135 3.20815,-3.26871 -1.0458,-2.14663 -0.87763,-2.30172 8.65391,2.13199 -3.59343,-11.15274 1.99162,-1.21396 1.47807,3.45909 1.94162,-3.96763 3.32127,1.91544 2.28452,-4.43931 2.27293,3.81516 3.08596,-4.24488 3.16626,1.74726 0.006,11.81636 6.55821,-6.04614 1.0458,2.14664 -0.758,2.72083 4.22111,-0.31411 -1.39777,2.533 4.33679,0.82365 -5.59264,2.20069 6.4441,0.74738 -2.87181,2.95869 2.18357,2.03104 z"
     fill="#00ae00"
     id="path166"
     style="stroke-width:0.707481" />
  <path
     d="m 114.94443,183.53143 c -14.91158,3.02547 -15.05874,3.98587 -15.05874,3.98587 l -2.23246,-2.11091 3.34816,-2.28884 -3.742154,-0.91675 -2.777353,0.16466 2.331429,-3.67309 -1.397487,-1.78654 -1.272054,-1.96389 8.462189,0.26304 -5.551398,-9.6465 1.609168,-1.52293 2.05955,2.91992 1.01622,-4.07099 3.46532,1.12009 1.24113,-4.57712 2.86855,3.09289 2.02418,-4.55561 3.28794,0.99465 2.35019,10.97515 4.89209,-6.91796 1.39749,1.78653 -0.16412,2.67789 3.85874,-1.1295 -0.79571,2.63035 4.19197,-0.0956 -4.75838,3.15424 6.13436,-0.58464 -2.08056,3.3183 2.4314,1.45331 z"
     fill="#00ae00"
     id="path168"
     style="stroke-width:0.707481" />
  <path
     d="m 94.215234,114.69351 c -14.65547,-5.92027 -15.332537,-5.17225 -15.332537,-5.17225 l -0.725375,-3.10811 4.212623,-0.0655 -2.717713,-2.93809 -2.501089,-1.44829 4.124474,-1.84751 -0.187655,-2.348703 0.0227,-2.43062 7.182347,5.075253 0.71526,-11.539724 2.266842,-0.397956 0.112095,3.710104 3.212667,-2.945669 2.361359,2.955717 3.697508,-3.255476 0.71406,4.323418 4.36374,-2.788258 2.27951,2.745458 -4.25033,10.856996 8.20253,-3.1925 0.18766,2.34869 -1.67624,2.22658 3.99098,1.23166 -2.19631,1.8236 3.68746,2.31849 -5.93039,0.008 5.6508,3.00736 -3.70381,1.6838 1.27453,2.6522 z"
     fill="#00ae00"
     id="path170"
     style="stroke-width:0.707481" />
  <path
     d="M 101.50228,90.186372 C 87.637775,83.401767 86.926052,84.083356 86.926052,84.083356 l -0.490764,-3.077969 4.107992,0.228737 -2.443294,-3.050725 -2.335747,-1.584403 4.145844,-1.513229 -0.01964,-2.300877 0.19086,-2.366026 6.643677,5.442508 1.498157,-11.190937 2.235783,-0.230225 -0.14845,3.621733 3.33394,-2.646258 2.09484,3.04316 3.82776,-2.914328 0.39533,4.261016 4.44425,-2.413007 2.02976,2.832614 -4.89421,10.280413 8.21173,-2.540216 0.0196,2.30087 -1.78738,2.052478 3.802,1.476864 -2.26606,1.62381 3.43086,2.514528 -5.77722,-0.404459 5.29556,3.321839 -3.72474,1.382985 1.05726,2.672015 z"
     fill="#00ae00"
     id="path172"
     style="stroke-width:0.707481" />
  <path
     d="M 205.99725,89.011953 C 195.7041,100.20571 196.1484,101.06955 196.1484,101.06955 l -3.04464,-0.39894 1.36714,-3.815868 -3.56599,1.452808 -2.15103,1.76212 -0.26753,-4.339755 -2.17868,-0.626133 -2.18124,-0.843242 7.00208,-4.749884 -10.15023,-4.550804 0.40904,-2.176211 3.37914,1.155029 -1.56517,-3.89044 3.46121,-1.125881 -1.68005,-4.431943 4.1353,0.820538 -1.03377,-4.873702 3.24408,-1.123407 8.33837,7.503545 -0.0983,-8.467136 2.17869,0.626141 1.43774,2.263297 2.46026,-3.177152 0.89872,2.595324 3.33626,-2.535898 -2.00082,5.343248 4.62134,-4.070845 0.26248,3.90558 2.81995,-0.249887 z"
     fill="#00ae00"
     id="path174"
     style="stroke-width:0.707481" />
  <path
     d="m 132.74465,93.660096 c -8.78692,11.910444 -8.26621,12.699294 -8.26621,12.699294 l -2.98797,-0.0669 0.92297,-3.83582 -3.29841,1.7796 -1.89676,1.93057 -0.71371,-4.17145 -2.17387,-0.37756 -2.19907,-0.58738 6.27784,-5.330169 -10.2988,-3.339877 0.16773,-2.148694 3.39095,0.763584 -1.92229,-3.600584 3.23134,-1.452246 -2.09018,-4.112582 4.08754,0.360647 -1.5111,-4.607825 3.02151,-1.42706 8.85554,6.386718 -0.98255,-8.183435 2.17387,0.377563 1.62841,2.039456 2.04774,-3.332234 1.14166,2.41718 2.96265,-2.803533 -1.3762,5.380173 4.04531,-4.423519 0.66331,3.751773 2.70257,-0.537346 z"
     fill="#00ae00"
     id="path176"
     style="stroke-width:0.707481" />
  <path
     d="M 98.79264,196.18119 C 88.217207,184.16321 87.264224,184.53181 87.264224,184.53181 l 0.755739,-3.14299 3.842889,1.85495 -1.124895,-3.89441 -1.605841,-2.44746 4.572812,0.20186 0.897432,-2.21124 1.124972,-2.18979 4.194868,7.85728 5.89112,-10.12051 2.23274,0.66985 -1.5844,3.40921 4.24651,-1.20647 0.79429,3.74845 4.82615,-1.26661 -1.31824,4.23788 5.21689,-0.54095 0.8158,3.52085 -8.78055,7.8962 8.87534,0.83738 -0.89743,2.21123 -2.52904,1.25373 3.05279,2.92832 -2.81669,0.65262 2.28424,3.77419 -5.37141,-2.68792 3.74837,5.2899 -4.11768,-0.15891 -0.0516,2.97984 z"
     fill="#00ae00"
     id="path178"
     style="stroke-width:0.707481" />
  <path
     d="m 160.73968,200.57465 c -11.82342,9.22909 -11.53053,10.14103 -11.53053,10.14103 l -2.89798,-0.87996 1.94663,-3.49206 -3.70444,0.83759 -2.37756,1.36713 0.44071,-4.26583 -2.01872,-0.96118 -1.98611,-1.17286 7.57995,-3.49057 -9.14065,-6.0675 0.7495,-2.05141 3.10132,1.66973 -0.89447,-4.03823 3.54971,-0.53641 -0.91873,-4.5837 3.89108,1.4664 -0.21856,-4.90914 3.33804,-0.56902 6.90148,8.64755 1.27212,-8.25489 2.01873,0.96117 1.03327,2.43445 2.90705,-2.69395 0.45521,2.67039 3.65584,-1.92852 -2.80998,4.87582 5.15415,-3.21445 -0.37549,3.84255 2.78422,0.21238 z"
     fill="#00ae00"
     id="path180"
     style="stroke-width:0.707481" />
  <path
     d="m 137.51307,192.82066 c -11.15272,-9.43993 -11.9635,-8.97936 -11.9635,-8.97936 l 0.26289,-2.93866 3.71731,1.16196 -1.53544,-3.36619 -1.77656,-1.99552 4.15574,-0.42804 0.51517,-2.11636 0.72347,-2.12732 4.83627,6.53479 3.96847,-9.92383 2.10533,0.30682 -0.97562,3.28965 3.67317,-1.65607 1.21744,3.27847 4.18857,-1.78774 -0.62464,4.00236 4.63817,-1.18468 1.20647,3.07019 -6.87438,8.30159 8.12542,-0.42841 -0.51517,2.11636 -2.11615,1.46951 3.14723,2.23663 -2.45608,0.96515 2.56616,3.10294 -5.20861,-1.71005 4.09044,4.27601 -3.7391,0.40606 0.35113,2.69742 z"
     fill="#00ae00"
     id="path182"
     style="stroke-width:0.707481" />
  <path
     d="m 104.99017,157.04333 c -15.867388,2.83417 -16.047087,3.84771 -16.047087,3.84771 l -2.311979,-2.29097 3.602633,-2.34091 -3.940389,-1.06369 -2.945455,0.1055 2.560165,-3.83214 -1.435695,-1.92669 -1.298507,-2.11147 8.955297,0.48848 -5.639904,-10.35399 1.741966,-1.57295 2.108718,3.14342 1.177249,-4.28614 3.642185,1.27219 1.427978,-4.81667 2.961155,3.34667 2.25673,-4.77436 3.45746,1.13494 2.21668,11.68122 5.35266,-7.20499 1.43576,1.92668 -0.24024,2.83191 4.11464,-1.10049 -0.90799,2.76597 4.44193,0.003 -5.11764,3.22243 6.51109,-0.46699 -2.28573,3.46269 2.53894,1.59947 z"
     fill="#00ae00"
     id="path184"
     style="stroke-width:0.707481" />
  <path
     d="m 133.65022,196.28024 c -9.93161,12.99572 -9.37129,13.87724 -9.37129,13.87724 l -3.30025,-0.1298 1.0915,-4.22097 -3.67778,1.90468 -2.13184,2.09767 -0.71067,-4.62239 -2.39489,-0.45778 -2.41881,-0.6901 7.03604,-5.77206 -11.31687,-3.88266 0.22547,-2.37098 3.7324,0.90707 -2.05672,-4.01425 3.59747,-1.54422 -2.23267,-4.58307 4.50962,0.47486 -1.58355,-5.11947 3.36513,-1.52031 9.6649,7.22197 -0.93274,-9.06001 2.39489,0.45779 1.7612,2.28383 2.32486,-3.64361 1.21623,2.69211 3.32587,-3.04231 -1.62105,5.91893 4.55236,-4.812 0.66279,4.15772 2.99619,-0.54321 z"
     fill="#00ae00"
     id="path186"
     style="stroke-width:0.707481" />
  <path
     d="m 114.11667,203.10743 c -11.45411,-10.1 -12.31229,-9.63589 -12.31229,-9.63589 l 0.33676,-3.06523 3.85987,1.2927 -1.53339,-3.54985 -1.81426,-2.12273 4.35157,-0.35952 0.58302,-2.20055 0.80093,-2.20762 4.91565,6.93062 4.35639,-10.28606 2.19347,0.36507 -1.08888,3.41693 3.87325,-1.65296 1.20293,3.45152 4.41454,-1.7796 -0.7372,4.16904 4.87164,-1.13996 1.19586,3.23361 -7.35851,8.52939 8.49968,-0.27609 -0.58301,2.20055 -2.2423,1.49095 3.24147,2.40359 -2.5869,0.95666 2.61598,3.29657 -5.40664,-1.89689 4.18397,4.55462 -3.91569,0.34536 0.30996,2.82604 z"
     fill="#00ae00"
     id="path188"
     style="stroke-width:0.707481" />
  <path
     d="m 153.93372,157.65884 c -12.62359,10.12052 -12.29532,11.09968 -12.29532,11.09968 l -3.13825,-0.90856 2.05078,-3.79393 -3.98397,0.95531 -2.54538,1.50793 0.41562,-4.60747 -2.19092,-1.00845 -2.15875,-1.23725 8.12755,-3.87126 -9.94436,-6.41657 0.77972,-2.22318 3.3686,1.75759 -1.02139,-4.34323 3.82125,-0.6283 -1.05521,-4.93128 4.21758,1.52717 -0.30451,-5.29211 3.59252,-0.66051 7.5651,9.23121 1.25655,-8.92134 2.19093,1.00844 1.14867,2.61146 3.09791,-2.94652 0.52843,2.874 3.91633,-2.13135 -2.96257,5.2986 5.51438,-3.53938 -0.35117,4.14994 3.00609,0.19008 z"
     fill="#00ae00"
     id="path190"
     style="stroke-width:0.707481" />
  <path
     d="m 187.79376,112.35176 c -11.68193,9.88279 -11.34659,10.8004 -11.34659,10.8004 l -2.98953,-0.78064 1.84413,-3.63794 -3.74258,1.00265 -2.36872,1.4891 0.27792,-4.36622 -2.09648,-0.89871 -2.07172,-1.11577 7.58703,-3.8627 -9.56161,-5.81797 0.68165,-2.12125 3.22851,1.57754 -1.07402,-4.08061 3.59691,-0.689374 -1.12066,-4.635621 4.02543,1.338553 -0.41996,-4.995529 3.37984,-0.714129 7.38257,8.537886 0.96522,-8.465726 2.09647,0.898716 1.15108,2.440174 2.85525,-2.862968 0.5713,2.703857 3.64925,-2.112755 -2.66854,5.083186 5.12499,-3.48378 -0.22842,3.932109 2.84669,0.104675 z"
     fill="#00ae00"
     id="path192"
     style="stroke-width:0.707481" />
  <path
     d="m 228.40317,142.92201 c -14.18004,-5.68914 -14.83304,-4.96454 -14.83304,-4.96454 l -0.70834,-3.00269 4.07184,-0.0729 -2.63373,-2.83381 -2.42094,-1.39423 3.98256,-1.79531 -0.18677,-2.26988 0.0163,-2.34954 6.95411,4.88939 0.66503,-11.15626 2.19029,-0.38987 0.11684,3.58601 3.0987,-2.85468 2.28926,2.85171 3.56663,-3.1553 0.70012,4.17747 4.21171,-2.70519 2.20967,2.64859 -4.08365,10.50468 7.92096,-3.10471 0.18676,2.26988 -1.61519,2.15612 3.86059,1.18142 -2.11884,1.76772 3.56967,2.23267 -5.73243,0.0208 5.46903,2.89409 -3.57631,1.63605 1.23802,2.56081 z"
     fill="#00ae00"
     id="path194"
     style="stroke-width:0.707481" />
  <path
     d="m 219.54551,172.42397 c -14.90309,5.35945 -14.91016,6.37073 -14.91016,6.37073 l -2.61691,-1.83825 3.10407,-2.86105 -3.99209,-0.38121 -2.83574,0.58743 1.84858,-4.1338 -1.70814,-1.62975 -1.60563,-1.8314 8.75508,-1.00214 -7.1689,-9.10033 1.42819,-1.81066 2.56045,2.69748 0.43418,-4.34569 3.73755,0.63229 0.58968,-4.90086 3.41969,2.75394 1.3994,-4.99651 3.53599,0.52979 4.07169,10.95039 3.99783,-7.86083 1.70815,1.62976 0.23384,2.78274 3.80434,-1.74387 -0.42384,2.82878 4.30311,-0.72912 -4.42629,3.96451 6.23008,-1.52505 -1.64354,3.73069 2.72288,1.13105 z"
     fill="#00ae00"
     id="path196"
     style="stroke-width:0.707481" />
  <path
     d="m 228.37487,122.43336 c -15.26956,2.39015 -15.4627,3.35798 -15.4627,3.35798 l -2.16914,-2.24385 3.50189,-2.16991 -3.75552,-1.1009 -2.82582,0.0405 2.5332,-3.62096 -1.33664,-1.87659 -1.2013,-2.05085 8.57466,0.65274 -5.19333,-10.04198 1.70235,-1.47199 1.95674,3.05688 1.2168,-4.08464 3.46531,1.29462 1.46817,-4.588015 2.76979,3.269275 2.26167,-4.530432 3.29107,1.159279 1.88444,11.243993 5.27965,-6.79683 1.33665,1.87659 -0.28864,2.70986 3.96713,-0.97024 -0.92737,2.63282 4.25811,0.0941 -4.97231,2.98373 6.25144,-0.31356 -2.26252,3.27238 2.40098,1.58561 z"
     fill="#00ae00"
     id="path198"
     style="stroke-width:0.707481" />
  <path
     d="m 225.93406,112.75502 c -15.37497,0.65259 -15.67424,1.5885 -15.67424,1.5885 l -1.8945,-2.46316 3.70792,-1.7542 -3.59216,-1.51026 -2.80029,-0.27681 2.91228,-3.29835 -1.11202,-2.00649 -0.95857,-2.16375 8.41054,1.60725 -4.01213,-10.517416 1.84929,-1.265475 1.59317,3.243736 1.66188,-3.904729 3.28328,1.669373 1.96694,-4.374574 2.37373,3.545051 2.7456,-4.228621 3.12607,1.515923 0.60362,11.335971 5.98557,-6.132589 1.11202,2.006491 -0.58941,2.648665 4.0337,-0.515067 -1.21276,2.500811 4.2023,0.57057 -5.25404,2.39447 6.22011,0.39072 -2.60538,2.98387 2.19765,1.83797 z"
     fill="#00ae00"
     id="path200"
     style="stroke-width:0.707481" />
  <path
     d="m 266.89722,145.54676 c -16.05911,-2.5898 -16.56779,-1.6843 -16.56779,-1.6843 l -1.43852,-2.95288 4.21199,-1.02882 -3.39874,-2.32676 -2.84075,-0.88139 3.71611,-2.79681 -0.72531,-2.31382 -0.53296,-2.44406 8.36738,3.45053 -1.92054,-11.74277 2.18358,-0.91761 0.96069,3.69716 2.55011,-3.69022 3.04514,2.42595 2.96583,-4.11195 1.70497,4.17491 3.74108,-3.79542 2.91497,2.23366 -1.78257,11.86587 7.50001,-5.07872 0.7253,2.31382 -1.17286,2.6174 4.28614,0.32339 -1.78689,2.33193 4.2301,1.48338 -5.94886,1.36346 6.35764,1.72569 -3.33145,2.53632 1.88522,2.36992 z"
     fill="#00ae00"
     id="path202"
     style="stroke-width:0.707481" />
  <path
     d="m 245.91333,155.16143 c -14.24583,-3.16767 -14.74956,-2.38357 -14.74956,-2.38357 l -1.1324,-2.72062 3.82669,-0.69898 -2.92104,-2.26337 -2.4977,-0.93939 3.47593,-2.30858 -0.52735,-2.11063 -0.34824,-2.21711 7.31111,3.53224 -1.09985,-10.61787 2.00415,-0.70648 0.66516,3.36195 2.47886,-3.17029 2.59915,2.33355 2.87344,-3.52609 1.3065,3.82917 3.55106,-3.20163 2.49267,2.15442 -2.22326,10.53298 6.98567,-4.15242 0.52735,2.11063 -1.18872,2.28219 3.82168,0.51605 -1.72357,1.9941 3.71018,1.55194 -5.39992,0.90691 5.60282,1.88134 -3.11766,2.09563 1.56326,2.22205 z"
     fill="#00ae00"
     id="path204"
     style="stroke-width:0.707481" />
  <path
     d="m 271.55952,175.89771 c -11.44987,10.73107 -11.05934,11.65363 -11.05934,11.65363 l -3.10273,-0.6438 1.69922,-3.82231 -3.78113,1.22196 -2.34862,1.64872 0.0571,-4.48663 -2.19418,-0.81128 -2.18017,-1.0349 7.57004,-4.35186 -10.09717,-5.46083 0.58764,-2.20826 3.38904,1.44758 -1.31273,-4.12362 3.64827,-0.89356 -1.3895,-4.68974 4.19282,1.16125 -0.69049,-5.09485 3.42464,-0.90756 8.00656,8.36031 0.54747,-8.72183 2.19418,0.81126 1.30622,2.43941 2.77531,-3.08123 0.72609,2.73972 3.62768,-2.35414 -2.4684,5.34558 5.06776,-3.8354 -0.0291,4.03937 2.92125,-0.0411 z"
     fill="#00ae00"
     id="path206"
     style="stroke-width:0.707481" />
  <path
     d="m 293.166,180.33361 c -15.28372,5.51991 -15.28938,6.55758 -15.28938,6.55758 l -2.68765,-1.88247 3.18098,-2.94001 -4.09667,-0.38558 -2.90881,0.60673 1.89095,-4.24418 -1.7549,-1.66987 -1.65006,-1.87681 8.98147,-1.04049 -7.36841,-9.32743 1.46293,-1.85983 2.63098,2.7642 0.43944,-4.4596 3.83589,0.64355 0.5982,-5.02948 3.51272,2.82094 1.42889,-5.12867 3.62896,0.53867 4.1931,11.22985 4.09101,-8.07166 1.7549,1.66987 0.24383,2.85497 3.90105,-1.79459 -0.43093,2.90314 4.41426,-0.75418 -4.53616,4.07404 6.39032,-1.57351 -1.68119,3.83023 2.7954,1.15673 z"
     fill="#00ae00"
     id="path208"
     style="stroke-width:0.707481" />
  <path
     d="M 119.79775,150.49914 C 108.89758,138.54057 107.94107,138.9304 107.94107,138.9304 l 0.70819,-3.18968 3.9164,1.80662 -1.20568,-3.91583 -1.66613,-2.44498 4.62488,0.12314 0.8678,-2.25057 1.09815,-2.23288 4.37825,7.86648 5.7746,-10.33134 2.26825,0.63747 -1.54096,3.47331 4.27021,-1.29434 0.869,3.77413 4.85495,-1.36537 -1.25727,4.30615 5.2626,-0.63892 0.88669,3.54378 -8.73456,8.13533 8.9843,0.68933 -0.8678,2.25056 -2.53363,1.31175 3.13697,2.90541 -2.83502,0.70932 2.37516,3.77384 -5.47591,-2.62142 3.88167,5.27971 -4.16416,-0.0878 5.4e-4,3.01231 z"
     fill="#00ae00"
     id="path210"
     style="stroke-width:0.707481" />
  <path
     d="M 80.610366,212.10659 C 69.589225,222.39832 69.963482,223.2855 69.963482,223.2855 l -2.980257,-0.62394 1.639375,-3.66985 -3.635323,1.16763 -2.259554,1.58016 0.06261,-4.31104 -2.106949,-0.78332 -2.093084,-0.99819 7.281397,-4.16855 -9.692492,-5.26464 0.568461,-2.12083 3.253989,1.39679 -1.254294,-3.96458 3.507125,-0.85231 -1.327022,-4.50863 4.026841,1.12305 -0.654703,-4.89676 3.292266,-0.86616 7.678995,8.04759 0.541077,-8.37941 2.106949,0.78332 1.250897,2.34622 2.672015,-2.95592 0.692946,2.63381 3.489865,-2.2558 -2.381095,5.13227 4.876097,-3.67663 -0.03485,3.88131 2.80707,-0.0344 z"
     fill="#00ae00"
     id="path212"
     style="stroke-width:0.707481" />
  <path
     d="m 43.402522,186.85659 c -12.484919,8.68787 -12.239423,9.6274 -12.239423,9.6274 l -2.885603,-1.05216 2.165246,-3.42782 -3.797617,0.64223 -2.483472,1.25217 0.683364,-4.29504 -1.990711,-1.0855 -1.945927,-1.29801 7.870021,-3.1132 -8.918508,-6.65195 0.872961,-2.03557 3.047546,1.86316 -0.681311,-4.13876 3.624143,-0.34587 -0.675567,-4.69244 3.858602,1.70114 0.05157,-4.98307 3.411615,-0.39066 6.507695,9.13995 1.746982,-8.28814 1.990711,1.08549 0.911023,2.52252 3.093391,-2.56632 0.312523,2.72933 3.809078,-1.74961 -3.116312,4.78102 5.397727,-2.96845 -0.593782,3.86999 2.807426,0.36981 z"
     fill="#00ae00"
     id="path214"
     style="stroke-width:0.707481" />
  <path
     d="m 30.951562,176.55567 c -13.853895,-8.61571 -14.675281,-7.97474 -14.675281,-7.97474 l -0.187199,-3.28893 4.295188,0.67942 -2.24321,-3.46892 -2.286791,-1.91558 4.521087,-1.14824 0.225135,-2.42156 0.453488,-2.46756 6.404402,6.43271 2.770992,-11.60765 2.375509,-0.003 -0.543056,3.79245 3.78842,-2.42638 1.877655,3.42372 4.336364,-2.65553 -0.03955,4.52271 4.931002,-2.06244 1.831669,3.19533 -6.244724,10.28749 8.905772,-1.79376 -0.225141,2.42157 -2.098743,1.96723 3.840066,1.95922 -2.556271,1.46534 3.338957,3.01061 -6.03163,-1.04254 5.213428,4.05874 -4.064408,1.05628 0.826267,2.9226 z"
     fill="#00ae00"
     id="path216"
     style="stroke-width:0.707481" />
  <path
     d="m 45.510816,238.97672 c -15.702543,1.57167 -15.954407,2.5475 -15.954407,2.5475 l -2.08431,-2.41045 3.693122,-2.01385 -3.766416,-1.33516 -2.883198,-0.11884 2.787758,-3.54801 -1.256416,-1.98895 -1.108481,-2.15895 8.704848,1.15122 -4.725762,-10.53228 1.818934,-1.40428 1.821764,3.22733 1.471985,-4.09541 3.459583,1.51621 1.756675,-4.59431 2.638551,3.48993 2.562497,-4.49066 3.289575,1.36834 1.284149,11.57014 5.767669,-6.6303 1.256415,1.98894 -0.447785,2.74638 4.099499,-0.76437 -1.094615,2.63169 4.335869,0.3372 -5.238403,2.76023 6.391102,0.0344 -2.492032,3.208 2.357964,1.75257 z"
     fill="#00ae00"
     id="path218"
     style="stroke-width:0.707481" />
  <path
     d="m 92.977138,209.51014 c -14.445347,-7.64151 -15.221453,-6.94386 -15.221453,-6.94386 l -0.41681,-3.27352 4.339552,0.3789 -2.483901,-3.30973 -2.418948,-1.75449 4.43768,-1.46321 0.05585,-2.4355 0.280786,-2.49741 6.849198,5.98069 1.958167,-11.79229 2.373599,-0.16916 -0.277752,3.82768 3.616217,-2.68928 2.115509,3.29007 4.147758,-2.95656 0.2764,4.52222 4.78342,-2.40544 2.05354,3.06509 -5.52161,10.71622 8.77418,-2.41456 -0.0559,2.4355 -1.95986,2.1124 3.9742,1.68953 -2.45212,1.64285 3.54687,2.77516 -6.1001,-0.62045 5.49316,3.69163 -3.98772,1.3394 1.02981,2.86283 z"
     fill="#00ae00"
     id="path220"
     style="stroke-width:0.707481" />
  <path
     d="m 97.653587,238.83522 c -12.656129,10.13255 -12.327154,11.11454 -12.327154,11.11454 l -3.143973,-0.91251 2.057425,-3.80031 -3.992734,0.95468 -2.55153,1.50927 0.419462,-4.61653 -2.19475,-1.01198 -2.162347,-1.24114 8.146646,-3.87381 -9.960619,-6.4361 0.782753,-2.22715 3.37426,1.76333 -1.020612,-4.35271 3.82945,-0.62707 -1.054146,-4.94197 4.225153,1.53303 -0.301663,-5.30306 3.600225,-0.65952 7.574295,9.25457 1.264906,-8.93902 2.19475,1.01197 1.1493,2.61747 3.106126,-2.95048 0.52762,2.88023 3.92567,-2.13313 -2.97206,5.30739 5.52798,-3.543 -0.35461,4.15815 3.0121,0.19244 z"
     fill="#00ae00"
     id="path222"
     style="stroke-width:0.707481" />
  <path
     d="m 92.729521,190.83971 c -15.379935,3.53323 -15.50728,4.5329 -15.50728,4.5329 l -2.370768,-2.1293 3.410557,-2.46211 -3.904305,-0.85103 -2.875209,0.24456 2.319622,-3.87028 -1.496466,-1.81511 -1.371093,-2.00238 8.780547,0.0478 -6.01218,-9.8545 1.627916,-1.62177 2.212933,2.97263 0.945409,-4.24786 3.622651,1.06922 1.165153,-4.77861 3.056318,3.13046 1.977547,-4.77713 3.435387,0.94392 2.728407,11.31687 4.888343,-7.30262 1.49646,1.81519 -0.099,2.78082 3.97081,-1.27368 -0.7551,2.74836 4.3438,-0.21054 -4.84972,3.39683 6.34463,-0.76925 -2.06889,3.49581 2.55952,1.4422 z"
     fill="#00ae00"
     id="path224"
     style="stroke-width:0.707481" />
  <path
     d="m 132.62438,157.96306 c -16.21546,0.073 -16.5685,1.04657 -16.5685,1.04657 l -1.89647,-2.66932 3.97441,-1.69902 -3.72205,-1.73375 -2.93754,-0.40332 3.19831,-3.35679 -1.09079,-2.15718 -0.92291,-2.31664 8.79186,2.02834 -3.80455,-11.2348 1.99779,-1.25868 1.54797,3.47918 1.90589,-4.04523 3.39053,1.88897 2.24583,-4.52773 2.35789,3.82761 3.06,-4.34302 3.23106,1.72109 0.18281,11.95997 6.5476,-6.21833 1.09079,2.15717 -0.72644,2.76542 4.26794,-0.38124 -1.3769,2.58485 4.40209,0.76868 -5.62794,2.31149 6.53394,0.65987 -2.86253,3.03785 2.24066,2.02311 z"
     fill="#00ae00"
     id="path226"
     style="stroke-width:0.707481" />
  <path
     d="M 58.239817,211.63965 C 47.029071,200.38151 46.107223,200.80529 46.107223,200.80529 l 0.556348,-3.15969 3.920224,1.60238 -1.352562,-3.78899 -1.740474,-2.3262 4.54217,-0.0798 0.75368,-2.24532 0.980427,-2.23805 4.636124,7.52689 5.216612,-10.38511 2.252694,0.52696 -1.360985,3.47409 4.132752,-1.45494 1.016158,3.66461 4.703327,-1.54996 -1.046572,4.27871 5.134758,-0.85499 1.02351,3.43786 -8.215269,8.35889 8.842805,0.28659 -0.753682,2.24532 -2.428495,1.39664 3.203258,2.71404 -2.750262,0.81877 2.493591,3.59896 -5.485315,-2.33405 4.03675,5.01088 -4.088679,0.0945 0.131221,2.95501 z"
     fill="#00ae00"
     id="path228"
     style="stroke-width:0.707481" />
  <path
     d="m 25.701345,188.92243 c -12.598116,-9.37342 -13.437189,-8.82441 -13.437189,-8.82441 l 0.08388,-3.16965 4.065399,0.9957 -1.873764,-3.50691 -2.039951,-2.02057 4.428478,-0.73918 0.409901,-2.30461 0.632608,-2.33045 5.627659,6.68301 3.587495,-10.91147 2.278796,0.18718 -0.824639,3.59407 3.82811,-2.02382 1.526744,3.43433 4.37195,-2.19978 -0.40018,4.33488 4.89485,-1.58326 1.500921,3.2116 -6.81368,9.36705 8.685746,-1.00717 -0.409894,2.30463 -2.170622,1.71882 3.526368,2.18675 -2.569288,1.20074 2.961516,3.15508 -5.701873,-1.4831 4.675459,4.31062 -3.983048,0.68756 0.558436,2.86947 z"
     fill="#00ae00"
     id="path230"
     style="stroke-width:0.707481" />
  <path
     d="M 36.098487,166.07079 C 22.968345,157.4367 22.161816,158.0331 22.161816,158.0331 l -0.09996,-3.17164 4.119451,0.75913 -2.075396,-3.39513 -2.155271,-1.90044 4.381644,-0.99528 0.27591,-2.32627 0.496921,-2.36504 6.010052,6.3507 2.951682,-11.10958 2.287569,0.0549 -0.615522,3.63866 3.707271,-2.244 1.724486,3.34271 4.2405,-2.45127 -0.148501,4.35419 4.798633,-1.86564 1.685786,3.1217 -6.264462,9.75333 8.619949,-1.50983 -0.27591,2.32634 -2.069029,1.84313 3.649966,1.98031 -2.497337,1.3486 3.141781,2.98054 -5.782667,-1.15114 4.921168,4.03562 -3.939608,0.91788 0.724318,2.83453 z"
     fill="#00ae00"
     id="path232"
     style="stroke-width:0.707481" />
  <path
     d="m 75.905619,205.14497 c -10.231587,12.44389 -9.710885,13.33107 -9.710885,13.33107 l -3.243942,-0.24358 1.222527,-4.11647 -3.686896,1.74577 -2.172038,1.99 -0.537304,-4.57485 -2.341267,-0.53464 -2.35669,-0.76415 7.12858,-5.43466 -11.003454,-4.21892 0.305129,-2.32592 3.642113,1.0238 -1.883598,-4.02351 3.595278,-1.39382 -2.036838,-4.58957 4.422323,0.62566 -1.379093,-5.09479 3.36577,-1.37838 9.260218,7.44836 -0.600181,-8.95105 2.341264,0.53465 1.653383,2.30985 2.416263,-3.50492 1.102751,2.6926 3.380483,-2.8779 -1.803297,5.76923 4.649851,-4.57684 0.506515,4.11585 2.968304,-0.42958 z"
     fill="#00ae00"
     id="path234"
     style="stroke-width:0.707481" />
  <path
     d="M 85.506141,171.77309 C 69.909717,169.9185 69.454808,170.81254 69.454808,170.81254 l -1.506224,-2.79115 4.022307,-1.16147 -3.37228,-2.1085 -2.776009,-0.73642 3.472951,-2.84726 -0.79252,-2.20324 -0.612201,-2.33652 8.210322,2.99334 -2.323795,-11.25178 2.069879,-0.97285 1.075091,3.52835 2.31226,-3.66249 3.035093,2.21838 2.696418,-4.08599 1.812282,3.95942 3.457038,-3.81169 2.901807,2.03803 -1.243961,11.51921 7.032354,-5.20048 0.79252,2.20324 -1.02655,2.57218 4.14811,0.14013 -1.63039,2.32138 4.14053,1.26145 -5.68454,1.55398 6.20277,1.40987 -3.11236,2.58053 1.91381,2.21081 z"
     fill="#00ae00"
     id="path236"
     style="stroke-width:0.707481" />
  <path
     d="m 97.745562,185.93686 c -10.886009,11.71235 -10.424028,12.62289 -10.424028,12.62289 l -3.199159,-0.43663 1.459037,-4.00469 -3.757781,1.50756 -2.271653,1.84073 -0.256883,-4.56474 -2.287354,-0.67064 -2.288841,-0.89893 7.38964,-4.95506 -10.646884,-4.84228 0.442337,-2.28594 3.546674,1.23356 -1.623878,-4.09957 3.645789,-1.16437 -1.741609,-4.66965 4.343581,0.88611 -1.059519,-5.13051 3.417486,-1.16295 8.726066,7.93652 -0.05568,-8.90436 2.287362,0.67065 1.499008,2.38796 2.604878,-3.32693 0.930339,2.73399 3.52241,-2.64768 -2.13398,5.60715 4.88226,-4.25444 0.25401,4.10813 2.96661,-0.24688 z"
     fill="#00ae00"
     id="path238"
     style="stroke-width:0.707481" />
  <path
     d="m 119.6138,232.48205 c -15.55397,-2.07547 -16.0202,-1.18892 -16.0202,-1.18892 l -1.4647,-2.8097 4.03462,-1.10275 -3.33853,-2.15442 -2.7625,-0.77526 3.50996,-2.79455 -0.76019,-2.21215 -0.57816,-2.34283 8.15939,3.10755 -2.16051,-11.273 2.08155,-0.94223 1.02358,3.53995 2.36214,-3.62548 3.00021,2.25933 2.75196,-4.0431 1.75378,3.98106 3.50783,-3.75828 2.86954,2.0773 -1.40724,11.48879 7.09886,-5.09443 0.76019,2.21215 -1.06221,2.55479 4.14167,0.19926 -1.66188,2.29563 4.11811,1.31924 -5.70074,1.47107 6.17602,1.49702 -3.14589,2.53335 1.88021,2.23578 z"
     fill="#00ae00"
     id="path240"
     style="stroke-width:0.707481" />
  <path
     d="m 152.27821,305.85492 c -13.68411,8.46005 -13.47822,9.4668 -13.47822,9.4668 l -2.98728,-1.27665 2.48326,-3.49609 -4.04764,0.46059 -2.69465,1.18008 0.9679,-4.49696 -2.04031,-1.26052 -1.9808,-1.48239 8.48977,-2.83685 -9.03806,-7.5368 1.03865,-2.09973 3.11186,2.14239 -0.4823,-4.41016 3.84749,-0.15753 -0.4445,-4.9946 3.97767,2.01781 0.34011,-5.25991 3.62555,-0.21701 6.34908,10.02642 2.32012,-8.6532 2.0403,1.26052 0.81756,2.71637 3.41417,-2.53306 0.17362,2.90045 4.1232,-1.62947 -3.56535,4.87081 5.87088,-2.82561 -0.84898,4.05322 2.94384,0.55151 z"
     fill="#00ae00"
     id="path242"
     style="stroke-width:0.707481" />
  <path
     d="m 117.39938,296.96895 c 10.24787,12.32149 11.21146,11.97836 11.21146,11.97836 l -0.84389,3.1241 -3.79379,-1.96333 1.01715,3.92843 1.53869,2.49387 -4.57032,-0.32947 -0.95963,2.18775 -1.1868,2.15994 -3.97873,-7.97968 -6.1773,9.96275 -2.21555,-0.73253 1.68055,-3.3674 -4.28309,1.08896 -0.69035,-3.77314 -4.86478,1.13296 1.43725,-4.20406 -5.235571,0.39589 -0.718167,-3.54604 9.006948,-7.65636 -8.857664,-1.08535 0.959698,-2.18775 2.565676,-1.18411 -2.973263,-3.01549 2.836783,-0.57455 -2.180593,-3.84048 5.300173,2.83954 -3.603488,-5.39808 4.116048,0.27381 0.13466,-2.98048 z"
     fill="#00ae00"
     id="path244"
     style="stroke-width:0.707481" />
  <path
     d="m 154.54922,280.48464 c -15.47049,-1.73007 -15.91479,-0.84084 -15.91479,-0.84084 l -1.51203,-2.75578 3.97831,-1.17895 -3.35672,-2.06627 -2.75627,-0.71059 3.42223,-2.84585 -0.80066,-2.17804 -0.6229,-2.31141 8.15797,2.90979 -2.38088,-11.13504 2.04461,-0.97845 1.08995,3.48929 2.26628,-3.64572 3.02334,2.17749 2.64401,-4.06808 1.82353,3.91145 3.3998,-3.80159 2.88992,1.9997 -1.15313,11.42512 6.93346,-5.20268 0.80066,2.17805 -0.99961,2.55627 4.11196,0.11017 -1.59976,2.31198 4.11223,1.22153 -5.62298,1.57939 6.15707,1.3544 -3.06666,2.57898 1.91204,2.17777 z"
     fill="#00ae00"
     id="path246"
     style="stroke-width:0.707481" />
  <path
     d="M 131.21649,95.711792 C 120.31138,84.505292 119.39943,84.912097 119.39943,84.912097 l 0.58342,-3.103157 3.83964,1.621482 -1.28803,-3.744131 -1.68636,-2.309013 4.47086,-0.02686 0.76726,-2.201117 0.99026,-2.191282 4.47688,7.460389 5.25169,-10.160847 2.21089,0.544189 -1.37881,3.403409 4.08358,-1.384822 0.95835,3.617917 4.64617,-1.471848 -1.07856,4.198759 5.06281,-0.783034 0.96812,3.39484 -8.1799,8.132501 8.69919,0.382502 -0.76726,2.201117 -2.40579,1.346832 3.12147,2.707318 -2.71587,0.77455 2.41307,3.570089 -5.37162,-2.359306 3.91563,4.977056 -4.02479,0.0466 0.0956,2.90952 z"
     fill="#00ae00"
     id="path248"
     style="stroke-width:0.707481" />
  <path
     d="m 153.89126,110.05244 c -15.64453,-0.47731 -16.01737,0.44988 -16.01737,0.44988 l -1.73913,-2.63891 3.89115,-1.5046 -3.53182,-1.79813 -2.81995,-0.48829 3.19853,-3.12996 -0.9793,-2.117706 -0.81198,-2.265847 8.41195,2.253539 -3.29042,-10.965956 1.96956,-1.146614 1.37569,3.408356 1.97507,-3.837661 3.20674,1.93666 2.31933,-4.29172 2.14516,3.771868 3.09841,-4.085916 3.05865,1.769338 -0.22768,11.543262 6.52602,-5.777076 0.97929,2.117703 -0.79414,2.643003 4.12985,-0.223579 -1.41547,2.446899 4.22035,0.890147 -5.50689,2.03953 6.28044,0.85725 -2.86388,2.83368 2.09301,2.02721 z"
     fill="#00ae00"
     id="path250"
     style="stroke-width:0.707481" />
  <path
     d="m 163.68987,96.270704 c -14.85356,-2.655533 -15.3396,-1.823741 -15.3396,-1.823741 l -1.28754,-2.761439 3.92277,-0.887751 -3.11554,-2.211725 -2.62086,-0.862283 3.49078,-2.53526 -0.63615,-2.157459 -0.45573,-2.275257 7.70589,3.332378 -1.59594,-10.921387 2.03974,-0.816577 0.83271,3.44416 2.42347,-3.382327 2.78599,2.298115 2.81564,-3.766912 1.51542,3.899068 3.5297,-3.461143 2.66826,2.117634 -1.84065,10.977278 7.03661,-4.59198 0.63614,2.157467 -1.12913,2.409046 3.97024,0.367626 -1.69414,2.134609 3.89992,1.442557 -5.53901,1.170669 5.86934,1.700927 -3.1299,2.299807 1.71112,2.227791 z"
     fill="#00ae00"
     id="path252"
     style="stroke-width:0.707481" />
  <path
     d="m 194.88272,113.03093 c -11.73923,-9.86016 -12.58821,-9.37412 -12.58821,-9.37412 l 0.26416,-3.08441 3.90488,1.20442 -1.62438,-3.525806 -1.87192,-2.086642 4.35864,-0.465619 0.53212,-2.222547 0.75064,-2.234931 5.1003,6.837239 4.1244,-10.428278 2.21018,0.313581 -1.01057,3.455482 3.84742,-1.752227 1.29038,3.435039 4.38758,-1.892373 -0.63949,4.20187 4.86174,-1.261437 1.27806,3.216492 -7.17951,8.737387 8.52373,-0.48175 -0.53212,2.22255 -2.21449,1.5503 3.31102,2.3342 -2.57318,1.02244 2.70477,3.24543 -5.4718,-1.77358 4.30877,4.47029 -3.92157,0.4409 0.37914,2.8288 z"
     fill="#00ae00"
     id="path254"
     style="stroke-width:0.707481" />
  <path
     d="m 227.46223,125.70899 c -15.31485,3.50967 -15.4422,4.50489 -15.4422,4.50489 l -2.3593,-2.12124 3.39704,-2.44958 -3.88683,-0.8494 -2.86283,0.24198 2.31149,-3.85216 -1.48897,-1.80805 -1.36409,-1.99439 8.74234,0.0522 -5.98069,-9.81418 1.62169,-1.61383 2.20168,2.96087 0.94357,-4.22882 3.60631,1.06645 1.16261,-4.75717 3.04131,3.11843 1.97147,-4.755192 3.41997,0.941592 2.71049,11.26876 4.87088,-7.26796 1.48895,1.80804 -0.10001,2.76866 3.95412,-1.26597 -0.75326,2.73597 4.3249,-0.20732 -4.8304,3.37942 6.31738,-0.76253 -2.06174,3.47947 2.54765,1.43725 z"
     fill="#00ae00"
     id="path256"
     style="stroke-width:0.707481" />
  <path
     d="m 228.71447,116.75936 c -15.45634,-3.59549 -16.01172,-2.74828 -16.01172,-2.74828 l -1.20236,-2.97022 4.16827,-0.71937 -3.15212,-2.49203 -2.70583,-1.04799 3.80398,-2.47328 -0.551,-2.30052 -0.35512,-2.414354 7.91247,3.918324 -1.08322,-11.557418 2.1866,-0.74689 0.68757,3.662561 2.72896,-3.420885 2.80135,2.564901 3.16173,-3.803489 1.37994,4.177397 3.89511,-3.443522 2.68751,2.369001 -2.52918,11.429354 7.64009,-4.44086 0.55101,2.30051 -1.3167,2.4689 4.14995,0.60165 -1.8952,2.14996 4.01771,1.72683 -5.88108,0.92877 6.07217,2.10512 -3.41218,2.24555 1.67617,2.43274 z"
     fill="#00ae00"
     id="path258"
     style="stroke-width:0.707481" />
  <path
     d="M 98.60869,152.45179 C 87.548631,162.55673 87.910868,163.4425 87.910868,163.4425 l -2.954016,-0.65216 1.668378,-3.62803 -3.624137,1.12065 -2.261895,1.54528 0.108924,-4.2821 -2.084669,-0.80101 -2.068527,-1.01431 7.278564,-4.06236 -9.572225,-5.33512 0.587719,-2.10079 3.217555,1.42288 -1.203141,-3.95219 3.493325,-0.80872 -1.269504,-4.49351 3.988289,1.15928 -0.597368,-4.87171 3.280023,-0.82486 7.541755,8.07802 0.628318,-8.31856 2.084661,0.80101 1.217295,2.34438 2.686588,-2.9076 0.65987,2.62404 3.49142,-2.20324 -2.42107,5.07278 4.88402,-3.59966 -0.0767,3.85549 2.78903,-0.003 z"
     fill="#00ae00"
     id="path260"
     style="stroke-width:0.707481" />
  <path
     d="M 100.31372,112.71256 C 84.669189,109.64217 84.140702,110.5123 84.140702,110.5123 l -1.310961,-2.94029 4.160055,-0.86787 -3.251937,-2.39214 -2.753373,-0.95771 3.733019,-2.61612 -0.633568,-2.290618 -0.440866,-2.4118 8.081555,3.657962 -1.491153,-11.565907 2.169419,-0.826267 0.818268,3.653432 2.620587,-3.530048 2.902303,2.477534 3.04174,-3.929355 1.53141,4.146192 3.79069,-3.593503 2.78111,2.284812 -2.14042,11.563776 7.51557,-4.725695 0.63358,2.290618 -1.23584,2.524927 4.18779,0.4592 -1.82784,2.22488 4.09433,1.59353 -5.87251,1.13791 6.1703,1.90164 -3.3476,2.37374 1.76793,2.38408 z"
     fill="#00ae00"
     id="path262"
     style="stroke-width:0.707481" />
  <path
     d="m 29.245825,146.1835 c -13.39757,-6.8664 -14.104343,-6.21451 -14.104343,-6.21451 l -0.423017,-3.01041 4.001866,0.29721 -2.327542,-3.01904 -2.249153,-1.58723 4.070209,-1.40081 0.02236,-2.24413 0.228828,-2.30385 6.380418,5.4273 1.662935,-10.886 2.184418,-0.18417 -0.210143,3.52913 3.298915,-2.52033 1.98795,3.00539 3.785307,-2.77291 0.308603,4.16233 4.377469,-2.27286 1.92824,2.79887 -4.95824,9.93727 8.053258,-2.32888 -0.02236,2.24413 -1.780094,1.9692 3.680953,1.50885 -2.239107,1.54259 3.300329,2.51397 -5.626455,-0.4987 5.104051,3.33493 -3.657253,1.28139 0.982833,2.62475 z"
     fill="#00ae00"
     id="path264"
     style="stroke-width:0.707481" />
  <path
     d="M 39.883511,148.75165 C 28.027543,139.5827 27.21677,140.09137 27.21677,140.09137 l 0.136366,-3.02334 3.861927,1.02245 -1.725829,-3.37999 -1.910836,-1.96447 4.239298,-0.62675 0.432108,-2.19207 0.645117,-2.21271 5.251773,6.47762 3.617493,-10.34902 2.17133,0.2191 -0.850816,3.41523 3.68916,-1.86336 1.396002,3.3045 4.211281,-2.02156 -0.458922,4.12971 4.699373,-1.42395 1.375273,3.09155 -6.668788,8.81805 8.307243,-0.80681 -0.432122,2.19206 -2.101998,1.60174 3.326364,2.14947 -2.473212,1.10027 2.770142,3.06353 -5.414989,-1.51663 4.385251,4.19672 -3.813253,0.58538 0.481943,2.74828 z"
     fill="#00ae00"
     id="path266"
     style="stroke-width:0.707481" />
  <path
     d="m 33.858602,130.3147 c -9.957797,12.27338 -9.441336,13.14075 -9.441336,13.14075 l -3.184018,-0.21817 1.172933,-4.0463 -3.605819,1.73631 -2.118057,1.96616 -0.556428,-4.48466 -2.300304,-0.5095 -2.316858,-0.73457 6.958289,-5.37728 -10.8216317,-4.06837 0.2844429,-2.28375 3.5795708,0.98099 -1.8736918,-3.93515 3.5181608,-1.39041 -2.02764,-4.48953 4.342448,0.58545 -1.385531,-4.9893 3.293041,-1.37386 9.132167,7.24744 -0.64615,-8.77772 2.300305,0.50951 1.636828,2.25544 2.347989,-3.45391 1.099071,2.63444 3.297924,-2.84499 -1.732197,5.67138 4.532336,-4.51989 0.523289,4.03456 2.909232,-0.44045 z"
     fill="#00ae00"
     id="path268"
     style="stroke-width:0.707481" />
  <path
     d="m 30.700407,246.82269 c -14.632833,6.78368 -14.548642,7.80988 -14.548642,7.80988 l -2.820728,-1.62813 2.890131,-3.18281 -4.084005,-0.0258 -2.8234158,0.85224 1.5015578,-4.36042 -1.8800598,-1.49881 -1.794243,-1.71253 8.7904528,-1.80796 -8.094291,-8.58316 1.2850682,-1.96581 2.8411738,2.50484 0.04761,-4.44751 3.848555,0.30354 0.155158,-5.02474 3.717813,2.48439 0.967905,-5.19489 3.634755,0.21779 5.120112,10.73956 3.344759,-8.33554 1.88006,1.4988 0.488742,2.80163 3.701471,-2.11283 -0.174232,2.90782 4.29915,-1.12858 -4.131689,4.4217 6.181828,-2.11014 -1.329993,3.93296 2.864308,0.90119 z"
     fill="#00ae00"
     id="path270"
     style="stroke-width:0.707481" />
  <path
     d="M 32.717435,224.43799 C 18.961172,218.39907 18.29614,219.09063 18.29614,219.09063 l -0.601331,-2.9734 4.004131,0.0568 -2.498965,-2.8682 -2.335324,-1.44666 3.970738,-1.63867 -0.111895,-2.23677 0.09023,-2.30858 6.680178,5.02488 1.005755,-10.94331 2.164892,-0.31402 0.0014,3.528 3.135485,-2.70781 2.15987,2.87492 3.604899,-2.9884 0.556214,4.12772 4.224653,-2.5257 2.08806,2.67279 -4.344995,10.1948 7.882754,-2.80126 0.111896,2.23677 -1.655435,2.06804 3.756866,1.28294 -2.13822,1.67044 3.437792,2.30694 -5.634521,-0.16043 5.283681,3.01691 -3.566483,1.49504 1.135861,2.55585 z"
     fill="#00ae00"
     id="path272"
     style="stroke-width:0.707481" />
  <path
     d="m 27.267,215.01434 c -13.585052,-6.95702 -14.301023,-6.29595 -14.301023,-6.29595 l -0.429823,-3.05186 4.057263,0.30005 -2.360653,-3.06 -2.280706,-1.60846 4.126029,-1.42146 0.02193,-2.27513 0.231276,-2.33574 6.470339,5.50024 1.682461,-11.0367 2.214558,-0.1874 -0.211934,3.57794 3.343698,-2.55619 2.016392,3.04627 3.836741,-2.81238 0.314185,4.2197 4.437251,-2.30561 1.955761,2.83693 -5.023541,10.07594 8.163625,-2.36362 -0.02192,2.27512 -1.804077,1.99701 3.732246,1.52851 -2.269529,1.56459 3.346669,2.54765 -5.70442,-0.50381 5.175648,3.37942 -3.707343,1.30021 0.997195,2.6607 z"
     fill="#00ae00"
     id="path274"
     style="stroke-width:0.707481" />
  <path
     d="m 64.875989,184.20353 c -15.963603,-1.16168 -16.384555,-0.23039 -16.384555,-0.23039 l -1.663288,-2.7712 4.040567,-1.36968 -3.53111,-1.98937 -2.860205,-0.62037 3.402843,-3.06014 -0.909325,-2.20593 -0.732031,-2.35004 8.497556,2.66487 -2.889494,-11.34588 2.061741,-1.08669 1.25875,3.54172 2.183287,-3.83596 3.193004,2.11692 2.554644,-4.28499 2.029268,3.94618 3.341713,-4.0412 3.048822,1.93956 -0.729906,11.78451 6.916617,-5.62143 0.909324,2.20592 -0.925246,2.66622 4.229182,-0.0505 -1.55165,2.43904 4.27368,1.09129 -5.714392,1.8466 6.379992,1.1464 -3.048182,2.77184 2.051135,2.16143 z"
     fill="#00ae00"
     id="path276"
     style="stroke-width:0.707481" />
  <path
     d="m 100.39154,263.85176 c -11.229851,10.66457 -10.837905,11.57227 -10.837905,11.57227 l -3.066078,-0.61514 1.652041,-3.78297 -3.723405,1.23046 -2.306956,1.6422 0.0272,-4.42791 -2.170549,-0.7863 -2.158173,-1.0071 7.441993,-4.34372 -9.999533,-5.32323 0.565534,-2.18294 3.353885,1.40648 -1.322284,-4.0608 3.59443,-0.90551 -1.40166,-4.61893 4.14513,1.11867 -0.714555,-5.02326 3.373622,-0.91788 7.955623,8.19829 0.483555,-8.61004 2.17055,0.78629 1.304875,2.39871 2.71872,-3.05865 0.73436,2.6989 3.56464,-2.34671 -2.40112,5.29125 4.97607,-3.81778 -0.002,3.98637 2.88249,-0.0596 z"
     fill="#00ae00"
     id="path278"
     style="stroke-width:0.707481" />
  <path
     d="m 55.102138,237.37782 c -15.56317,-3.92391 -16.140475,-3.07755 -16.140475,-3.07755 l -1.160552,-3.02596 4.228474,-0.64983 -3.141075,-2.57877 -2.716728,-1.11017 3.892774,-2.4302 -0.514339,-2.33667 -0.314122,-2.44816 7.928034,4.10975 -0.880036,-11.7074 2.22517,-0.71455 0.627033,3.71654 2.823416,-3.40844 2.78507,2.64598 3.268139,-3.78729 1.317612,4.25005 4.00307,-3.40963 2.673569,2.44576 -2.770565,11.51072 7.808469,-4.34839 0.514335,2.33667 -1.377536,2.47215 4.185311,0.68575 -1.95661,2.13886 4.030663,1.82112 -5.964493,0.82967 6.10118,2.24193 -3.49234,2.2072 1.649703,2.49126 z"
     fill="#00ae00"
     id="path280"
     style="stroke-width:0.707481" />
  <path
     d="m 56.442815,245.31575 c -12.729001,-9.65216 -13.587883,-9.10174 -13.587883,-9.10174 l 0.114697,-3.22364 4.126384,1.05061 -1.873623,-3.58488 -2.056506,-2.0744 4.51189,-0.71095 0.438335,-2.34063 0.665131,-2.36482 5.663032,6.85068 3.750641,-11.06713 2.316435,0.21153 -0.872183,3.64863 3.913007,-2.0234 1.521368,3.50783 4.467887,-2.19729 -0.447283,4.40612 4.994109,-1.56531 1.497104,3.28102 -7.018214,9.4661 8.845635,-0.94406 -0.438333,2.34063 -2.224102,1.72837 3.567042,2.25722 -2.624821,1.1977 2.983445,3.23708 -5.78663,-1.56156 4.71635,4.42841 -4.058247,0.66254 0.541494,2.92423 z"
     fill="#00ae00"
     id="path282"
     style="stroke-width:0.707481" />
  <path
     d="m 63.56715,252.86458 c 2.148551,15.77187 3.141214,15.99049 3.141214,15.99049 l -2.35492,2.18767 -2.162699,-3.65032 -1.2105,3.84453 -0.0162,2.91057 -3.676639,-2.68263 -1.959722,1.33792 -2.136381,1.19494 0.847704,-8.81593 -10.446666,5.14204 -1.4809,-1.78299 3.187698,-1.95229 -4.181072,-1.33657 1.404067,-3.5418 -4.694278,-1.60569 3.423076,-2.78515 -4.61872,-2.42163 1.261085,-3.36507 11.616841,-1.71019 -6.890654,-5.57566 1.959722,-1.33791 2.784433,0.35269 -0.917814,-4.10488 2.692036,1.00887 0.184108,-4.38271 2.970571,5.18117 -0.194889,-6.44352 3.323251,2.39666 1.681895,-2.43982 z"
     fill="#00ae00"
     id="path284"
     style="stroke-width:0.707481" />
  <path
     d="m 68.944009,129.69919 c -14.876208,0.76514 -15.157786,1.67361 -15.157786,1.67361 l -1.855087,-2.36772 3.573771,-1.73015 -3.490075,-1.43066 -2.712907,-0.24363 2.790305,-3.21791 -1.093766,-1.93248 -0.94661,-2.08609 8.154428,1.48267 -3.974771,-10.14528 1.778962,-1.24099 1.570254,3.12587 1.574712,-3.79395 3.192509,1.58738 1.86591,-4.25139 2.32839,3.41077 2.620868,-4.11691 3.038978,1.44015 0.682661,10.96666 5.74043,-5.98783 1.093767,1.93248 -0.54753,2.56886 3.899918,-0.53357 -1.15213,2.43119 4.072475,0.51581 -5.064789,2.36327 6.024062,0.32421 -2.495927,2.91079 2.143176,1.75993 z"
     fill="#00ae00"
     id="path286"
     style="stroke-width:0.707481" />
  <path
     d="m 69.38972,153.06729 c -15.503035,2.36745 -15.701837,3.34879 -15.701837,3.34879 l -2.192484,-2.28495 3.561531,-2.18852 -3.806461,-1.13126 -2.867421,0.0303 2.584145,-3.66446 -1.349166,-1.90921 -1.211137,-2.08551 8.697773,0.69478 -5.23154,-10.20896 1.732905,-1.4872 1.973871,3.10917 1.25012,-4.14004 3.5113,1.32674 1.507005,-4.64984 2.798088,3.3277 2.312051,-4.58836 3.334988,1.1887 1.869524,11.41592 5.382869,-6.87665 1.34917,1.90921 -0.303134,2.74856 4.029031,-0.96945 -0.950993,2.66798 4.320296,0.11162 -5.056645,3.00871 6.344409,-0.29449 -2.308086,3.31186 2.430262,1.61801 z"
     fill="#00ae00"
     id="path288"
     style="stroke-width:0.707481" />
  <path
     d="M 89.510478,128.69457 C 74.272755,126.64315 73.814302,127.5113 73.814302,127.5113 l -1.431939,-2.75471 3.954542,-1.07595 -3.268711,-2.1148 -2.705898,-0.7628 3.442392,-2.73421 -0.742291,-2.16843 -0.563808,-2.29619 7.991003,3.05419 -2.103983,-11.04803 2.040663,-0.92078 0.998817,3.4697 2.318703,-3.54964 2.937107,2.21724 2.701019,-3.95836 1.713872,3.90282 3.441397,-3.6784 2.809271,2.03867 -1.392038,11.25603 6.96182,-4.98357 0.74229,2.16843 -1.04375,2.50201 4.0579,0.19998 -1.63095,2.24746 4.03349,1.29738 -5.5874,1.43483 6.04981,1.47398 -3.0854,2.47858 1.83974,2.19284 z"
     fill="#00ae00"
     id="path290"
     style="stroke-width:0.707481" />
  <path
     d="m 258.3367,247.4099 c 0,0 59.89323,111.5627 43.45208,138.18521"
     fill="none"
     stroke="#4fcb4f"
     stroke-width="1.04127"
     id="path292" />
  <path
     d="m 222.31884,325.69976 c 22.06138,28.41244 46.85223,66.28815 91.59758,59.11005"
     fill="none"
     stroke="#4fcb4f"
     stroke-width="1.04127"
     id="path294" />
</svg>
