<?xml version="1.0" encoding="UTF-8" standalone="no"?>
<svg
   xmlns:dc="http://purl.org/dc/elements/1.1/"
   xmlns:cc="http://creativecommons.org/ns#"
   xmlns:rdf="http://www.w3.org/1999/02/22-rdf-syntax-ns#"
   xmlns:svg="http://www.w3.org/2000/svg"
   xmlns="http://www.w3.org/2000/svg"
   xmlns:xlink="http://www.w3.org/1999/xlink"
   xmlns:sodipodi="http://sodipodi.sourceforge.net/DTD/sodipodi-0.dtd"
   xmlns:inkscape="http://www.inkscape.org/namespaces/inkscape"
   version="1.1"
   width="49.42083mm"
   height="83.351532mm"
   id="svg2"
   sodipodi:docname="chair.svg"
   inkscape:version="1.0.2-2 (e86c870879, 2021-01-15)">
  <metadata
     id="metadata59">
    <rdf:RDF>
      <cc:Work
         rdf:about="">
        <dc:format>image/svg+xml</dc:format>
        <dc:type
           rdf:resource="http://purl.org/dc/dcmitype/StillImage" />
        <dc:title />
      </cc:Work>
    </rdf:RDF>
  </metadata>
  <sodipodi:namedview
     pagecolor="#ffffff"
     bordercolor="#666666"
     borderopacity="1"
     objecttolerance="10"
     gridtolerance="10"
     guidetolerance="10"
     inkscape:pageopacity="0"
     inkscape:pageshadow="2"
     inkscape:window-width="1920"
     inkscape:window-height="1017"
     id="namedview57"
     showgrid="false"
     units="mm"
     inkscape:zoom="1.0746341"
     inkscape:cx="117.19882"
     inkscape:cy="231.14038"
     inkscape:window-x="-8"
     inkscape:window-y="-8"
     inkscape:window-maximized="1"
     inkscape:current-layer="svg2"
     inkscape:document-rotation="0" />
  <defs
     id="defs25">
    <linearGradient
       id="lg1">
      <stop
         style="stop-color:#997751;stop-opacity:1"
         offset="0"
         id="stop2" />
      <stop
         style="stop-color:#cfa16d;stop-opacity:1"
         offset="1"
         id="stop4" />
    </linearGradient>
    <linearGradient
       id="lg2">
      <stop
         style="stop-color:#994101;stop-opacity:1"
         offset="0"
         id="stop7" />
      <stop
         style="stop-color:#ffa868;stop-opacity:1"
         offset="1"
         id="stop9" />
    </linearGradient>
    <linearGradient
       id="l">
      <stop
         style="stop-color:#3f3f3f;stop-opacity:1"
         offset="0"
         id="stop12" />
      <stop
         style="stop-color:#ffffff;stop-opacity:1"
         offset="1"
         id="stop14" />
    </linearGradient>
    <linearGradient
       x1="280.70001"
       y1="644.5"
       x2="286.20001"
       y2="609.20001"
       id="lgg2"
       xlink:href="#lg2"
       gradientUnits="userSpaceOnUse" />
    <linearGradient
       x1="382"
       y1="621.20001"
       x2="376.70001"
       y2="602"
       id="lgg3"
       xlink:href="#lg2"
       gradientUnits="userSpaceOnUse" />
    <linearGradient
       x1="263.89999"
       y1="571.20001"
       x2="259.39999"
       y2="492.89999"
       id="lgg4"
       xlink:href="#lg2"
       gradientUnits="userSpaceOnUse" />
    <linearGradient
       x1="338.89999"
       y1="557"
       x2="344.89999"
       y2="486.39999"
       id="lgg5"
       xlink:href="#lg2"
       gradientUnits="userSpaceOnUse" />
    <linearGradient
       x1="244"
       y1="493"
       x2="321.89999"
       y2="487.39999"
       id="lgg6"
       xlink:href="#lg2"
       gradientUnits="userSpaceOnUse"
       spreadMethod="reflect" />
    <linearGradient
       x1="273.10001"
       y1="599.70001"
       x2="288.79999"
       y2="574.29999"
       id="lgg7"
       xlink:href="#lg1"
       gradientUnits="userSpaceOnUse" />
    <linearGradient
       x1="328.10001"
       y1="588.5"
       x2="332.10001"
       y2="607.5"
       id="lgg8"
       xlink:href="#lg1"
       gradientUnits="userSpaceOnUse" />
    <linearGradient
       x1="473"
       y1="205.39999"
       x2="238.7"
       y2="475.89999"
       id="lgg1"
       xlink:href="#l"
       gradientUnits="userSpaceOnUse"
       gradientTransform="matrix(0.9638,0,0,0.7931,-17.79,-25.6)" />
  </defs>
  <g
     transform="matrix(-1.2884486,0,0,1.2884486,499.88648,-608.761)"
     style="fill-opacity:1;stroke:#994101;stroke-width:1px;stroke-linecap:butt;stroke-linejoin:miter;stroke-opacity:1"
     id="g48">
    <path
       d="m 277.2,714.6 11.4,1.8 c 5,-70.7 -3.3,-111.2 14.3,-113.3 L 289.3,601 c -15.9,2.8 -9.1,47.9 -12.1,113.6 z"
       style="fill:url(#lgg2)"
       id="path34" />
    <path
       d="m 375.9,703.6 8.3,-8.9 c 4.3,-88.5 8.5,-100.2 -16.3,-100.2 l -11.1,3.9 c 29.5,1.2 19.9,19.1 19.1,105.2 z"
       style="fill:url(#lgg3)"
       id="path36" />
    <path
       d="m 332.1,646.6 9.7,0.8 v -49.7 l -10,0.4 z"
       style="fill:#994101"
       id="path38" />
    <path
       d="m 243.9,662.7 7.9,-6.4 16.4,-76.8 -2.1,-7.9 c -8.5,0.2 -6.5,14 -22.2,91.1 z"
       style="fill:#994101"
       id="path40" />
    <path
       d="m 262.6,572.3 -10.8,-70 11.6,-2 9.6,68.7 z"
       style="fill:url(#lgg4)"
       id="path42" />
    <path
       d="m 331.3,560.9 5.1,-64.6 13.6,0.5 -5.8,66.4 z"
       style="fill:url(#lgg5)"
       id="path44" />
    <path
       d="m 244.5,479.1 c -2.2,3.5 -0.6,22 3.3,25.5 5,4.5 21.3,-0.4 58.5,-2.3 30.1,-1.5 46.6,2 50.8,-3.3 2.9,-3.5 4.8,-22.5 1.5,-24.5 -4.5,-2.8 -38.8,-1 -57.5,-0.4 -19.7,0.6 -54.2,1.2 -56.6,5 z"
       style="fill:url(#lgg6)"
       id="path46" />
  </g>
  <g
     transform="matrix(-1.2884486,0,0,1.2884486,499.88648,-608.761)"
     style="fill-opacity:1;stroke:none"
     id="g54">
    <path
       d="m 374.6,578 c 8.9,2.5 7,11.2 6.5,13.8 -2,10.8 -71.1,17.3 -90.7,14.3 -11,-1.7 -29.1,-16.4 -29.3,-24.7 -4.1,-21.8 26,-16.8 39.9,-15"
       style="fill:url(#lgg7)"
       id="path50" />
    <path
       d="m 262.5,570.2 c 10.5,-12.4 52.7,-14.9 76.1,-12.1 14.4,1.7 42.2,17.9 42.5,25.7 0.4,11 -71.1,17.3 -90.7,14.3 -12.5,-1.9 -33.8,-20.9 -27.9,-27.9 z"
       style="fill:url(#lgg8)"
       id="path52" />
  </g>
</svg>
