<?xml version="1.0" encoding="UTF-8" standalone="no"?>
<svg
   xmlns:dc="http://purl.org/dc/elements/1.1/"
   xmlns:cc="http://creativecommons.org/ns#"
   xmlns:rdf="http://www.w3.org/1999/02/22-rdf-syntax-ns#"
   xmlns:svg="http://www.w3.org/2000/svg"
   xmlns="http://www.w3.org/2000/svg"
   xmlns:sodipodi="http://sodipodi.sourceforge.net/DTD/sodipodi-0.dtd"
   xmlns:inkscape="http://www.inkscape.org/namespaces/inkscape"
   version="1.1"
   viewBox="0 0 332.59844 472.44094"
   id="svg33"
   sodipodi:docname="cherry.svg"
   width="88mm"
   height="125mm"
   inkscape:version="1.0.2-2 (e86c870879, 2021-01-15)">
  <metadata
     id="metadata37">
    <rdf:RDF>
      <cc:Work
         rdf:about="">
        <dc:format>image/svg+xml</dc:format>
        <dc:type
           rdf:resource="http://purl.org/dc/dcmitype/StillImage" />
        <dc:title></dc:title>
      </cc:Work>
    </rdf:RDF>
  </metadata>
  <sodipodi:namedview
     pagecolor="#ffffff"
     bordercolor="#666666"
     borderopacity="1"
     objecttolerance="10"
     gridtolerance="10"
     guidetolerance="10"
     inkscape:pageopacity="0"
     inkscape:pageshadow="2"
     inkscape:window-width="1920"
     inkscape:window-height="1017"
     id="namedview35"
     showgrid="false"
     units="mm"
     inkscape:zoom="0.75130096"
     inkscape:cx="-288.05119"
     inkscape:cy="-27.66332"
     inkscape:window-x="-8"
     inkscape:window-y="-8"
     inkscape:window-maximized="1"
     inkscape:current-layer="svg33" />
  <defs
     id="defs7">
    <radialGradient
       id="a"
       cx="456.31"
       cy="448.48001"
       r="35.800999"
       gradientTransform="matrix(0.3978,-0.14275,0.2776,0.47544,141.62,-119.02)"
       gradientUnits="userSpaceOnUse">
      <stop
         stop-color="#e79b9e"
         offset="0"
         id="stop2" />
      <stop
         stop-color="#890f18"
         stop-opacity="0"
         offset="1"
         id="stop4" />
    </radialGradient>
  </defs>
  <g
     transform="matrix(2.3110822,0,0,2.3110822,-796.09887,-860.28982)"
     id="g31">
    <path
       d="m 457.5,559.07 c 0,8.5387 -17.3,15.475 -38.605,15.475 -21.305,0 -38.605,-6.9358 -38.605,-15.475 0,-8.5387 17.3,-15.475 38.605,-15.475 21.241,0 38.492,6.8776 38.605,15.387"
       opacity="0.15"
       id="path9" />
    <g
       transform="matrix(1.7031,0,0,1.7031,-319.29,468.51)"
       id="g29">
      <path
         d="m 459.12,33.273 c 0,14.496 -11.604,26.261 -25.902,26.261 -14.298,0 -25.902,-11.765 -25.902,-26.261 0,-14.496 11.604,-26.261 25.902,-26.261 14.298,0 25.902,11.765 25.902,26.261 z"
         fill="#a4101b"
         id="path11" />
      <path
         d="m 433.2,9.0255 c -4.2329,-0.0911 -8.7952,0.7779 -11.985,3.7575 -2.7565,3.4048 -0.2301,9.4049 4.2282,9.5672 4.5167,0.39946 8.8536,-1.3456 13.328,-1.6306 3.9,-0.39479 8.0032,0.53962 11.052,3.0766 3.7844,3.0018 5.77,7.821 5.8167,12.585 0.0701,1.7812 -0.0467,3.5671 -0.292,5.3332 1.3782,-1.8034 1.3432,-4.1978 1.7287,-6.3342 0.4088,-5.0587 -0.81761,-10.276 -3.6325,-14.518 -2.6397,-2.8231 -6.9731,-3.9222 -10.617,-2.5837 -4.6522,1.1061 -9.6665,1.5511 -14.304,0.14951 -1.4624,-0.53262 -3.3837,-1.5044 -3.156,-3.3569 0.17287,-1.7836 1.9611,-2.9936 3.6722,-2.8932 6.3809,-1.1692 13.363,-0.66343 18.973,2.8301 1.9506,0.16235 -1.4133,-1.8513 -2.0791,-2.3524 -3.7669,-2.4283 -8.2602,-3.6804 -12.734,-3.6302 z"
         fill="#ebb4b5"
         opacity="0.43902"
         id="path13" />
      <path
         d="m 453.21,28.387 c 3.1068,5.3209 2.0148,10.938 -2.441,12.537 -4.451,1.5973 -10.588,-1.4256 -13.695,-6.7466 -3.1091,-5.3249 -2.0171,-10.942 2.434,-12.539 4.4558,-1.599 10.593,1.4239 13.702,6.7488 z"
         fill="url(#a)"
         id="path15"
         style="fill:url(#a)" />
      <path
         d="m 413.33,21.489 c -2.6327,3.9537 -4.0483,8.4915 -3.7318,13.095 0.21959,10.811 9.781,20.781 21.919,23.288 -11.916,-5.4651 -19.949,-15.574 -19.949,-27.17 0,-3.205 0.62372,-6.2979 1.7614,-9.2121 z"
         fill="#5b050b"
         opacity="0.65157"
         id="path17" />
      <g
         transform="translate(42,20)"
         fill-rule="evenodd"
         id="g27">
        <path
           d="m 398.23,-4.6941 c 0,1.1664 -2.2877,2.1131 -5.1037,2.1131 -2.8214,0 -5.1091,-0.94665 -5.1091,-2.1131 0,-1.16645 2.2877,-2.1131 5.1091,-2.1131 2.816,0 5.1037,0.94665 5.1037,2.1131 z"
           opacity="0.30314"
           id="path19" />
        <path
           d="m 391.66,-2.7961 c 0.62021,-13.927 2.7986,-28.146 -0.6576,-41.884 -1.7824,-8.1784 -4.3158,-16.281 -8.4319,-23.601 -0.75571,-1.9481 1.606,-2.7888 1.8747,-0.46978 4.011,6.5621 6.3657,13.94 8.1271,21.381 1.7906,6.6881 2.7016,13.581 2.7367,20.502 0.12147,7.5746 -0.21141,15.156 -0.41465,22.72 -0.27798,1.3969 -2.0639,2.6152 -3.2342,1.3514 z"
           fill="#9e6800"
           id="path21" />
        <path
           d="m 384.95,-62.024 c -3.8918,-0.73235 -4.2878,-5.4911 -7.1763,-7.4411 -3.3102,-2.8149 0.54429,-6.7654 3.8872,-4.7761 3.7447,1.242 3.3172,5.802 5.9183,8.1261 2.0966,2.095 -0.54896,3.9544 -2.6292,4.0911 z"
           fill="#764500"
           id="path23" />
        <path
           d="m 379.13,-75.117 c -0.87601,0.14939 -1.6773,0.58483 -2.2262,1.2045 -0.55013,0.61975 -0.86433,1.4035 -0.80359,2.2631 0.0607,0.85954 0.49056,1.7566 1.3876,2.5185 0.0105,0.01285 0.0234,0.02511 0.0362,0.03644 1.3187,0.89026 2.1398,2.5014 3.1022,4.0516 0.96245,1.55 2.1258,3.0707 4.2341,3.4678 0.0362,0.0047 0.0736,0.0047 0.10979,0 1.154,-0.07709 2.4108,-0.59802 3.1747,-1.46 0.38311,-0.431 0.6389,-0.97062 0.62138,-1.5698 -0.0187,-0.59872 -0.29901,-1.2108 -0.87601,-1.7885 -0.0117,-0.01297 -0.0234,-0.02511 -0.0374,-0.03656 -1.1879,-1.0622 -1.71,-2.6934 -2.4084,-4.3071 -0.68913,-1.5906 -1.6119,-3.181 -3.5765,-3.8691 -0.0245,-0.01413 -0.0502,0.01355 -0.0736,0 -0.89821,-0.51297 -1.8104,-0.65653 -2.6642,-0.51101 z m 0.1098,0.80301 c 0.68212,-0.11984 1.4378,-0.0092 2.1889,0.43801 0.035,0.01705 0.0724,0.02932 0.10979,0.03656 1.7205,0.57046 2.4283,1.873 3.1022,3.4309 0.66811,1.5433 1.2451,3.3392 2.628,4.5992 0.014,0.01191 0.0234,0.02464 0.0374,0.03644 0.43217,0.44887 0.60971,0.87321 0.62022,1.2045 0.0105,0.34316 -0.12381,0.63634 -0.4018,0.94936 -0.53845,0.60737 -1.6095,1.0851 -2.5182,1.168 -1.7497,-0.3504 -2.7285,-1.5453 -3.65,-3.0298 -0.92273,-1.4861 -1.7801,-3.2081 -3.3218,-4.2705 v -0.03656 c -0.75921,-0.64556 -1.0512,-1.2874 -1.0944,-1.898 -0.0432,-0.61064 0.16586,-1.2078 0.58401,-1.679 0.41815,-0.4712 1.0325,-0.82918 1.7158,-0.94901 z"
           fill="#3e1b13"
           id="path25" />
      </g>
    </g>
  </g>
</svg>
