<?xml version="1.0" encoding="UTF-8" standalone="no"?>
<svg
   xmlns:dc="http://purl.org/dc/elements/1.1/"
   xmlns:cc="http://creativecommons.org/ns#"
   xmlns:rdf="http://www.w3.org/1999/02/22-rdf-syntax-ns#"
   xmlns:svg="http://www.w3.org/2000/svg"
   xmlns="http://www.w3.org/2000/svg"
   xmlns:xlink="http://www.w3.org/1999/xlink"
   xmlns:sodipodi="http://sodipodi.sourceforge.net/DTD/sodipodi-0.dtd"
   xmlns:inkscape="http://www.inkscape.org/namespaces/inkscape"
   width="79.76284mm"
   height="87.791664mm"
   id="svg2"
   version="1.1"
   inkscape:version="1.0.2-2 (e86c870879, 2021-01-15)"
   sodipodi:docname="cherries.svg">
  <title
     id="title3058">cherries glossy</title>
  <defs
     id="defs4">
    <linearGradient
       id="linearGradient5003">
      <stop
         id="stop5005"
         offset="0"
         style="stop-color:#120a09;stop-opacity:1" />
      <stop
         style="stop-color:#130a09;stop-opacity:1"
         offset="0.40981048"
         id="stop5007" />
      <stop
         style="stop-color:#431414;stop-opacity:1"
         offset="0.59132028"
         id="stop5009" />
      <stop
         id="stop5011"
         offset="1"
         style="stop-color:#ffffff;stop-opacity:1" />
    </linearGradient>
    <linearGradient
       id="linearGradient4795">
      <stop
         style="stop-color:#b01c2d;stop-opacity:1;"
         offset="0"
         id="stop4797" />
      <stop
         id="stop4799"
         offset="0.36594376"
         style="stop-color:#771d1f;stop-opacity:1;" />
      <stop
         style="stop-color:#5e1a1a;stop-opacity:1;"
         offset="0.46248722"
         id="stop4801" />
      <stop
         style="stop-color:#0f0908;stop-opacity:1;"
         offset="0.86934888"
         id="stop4803" />
      <stop
         id="stop4805"
         offset="1"
         style="stop-color:#a7acaf;stop-opacity:1" />
    </linearGradient>
    <linearGradient
       id="linearGradient4710">
      <stop
         style="stop-color:#49582d;stop-opacity:1"
         offset="0"
         id="stop4712" />
      <stop
         style="stop-color:#283608;stop-opacity:1;"
         offset="1"
         id="stop4714" />
    </linearGradient>
    <linearGradient
       id="linearGradient4537">
      <stop
         style="stop-color:#1a1f11;stop-opacity:1;"
         offset="0"
         id="stop4539" />
      <stop
         style="stop-color:#afd56a;stop-opacity:1;"
         offset="1"
         id="stop4541" />
    </linearGradient>
    <linearGradient
       inkscape:collect="always"
       id="linearGradient4389">
      <stop
         style="stop-color:#f9f9f9;stop-opacity:1;"
         offset="0"
         id="stop4391" />
      <stop
         style="stop-color:#f9f9f9;stop-opacity:0;"
         offset="1"
         id="stop4393" />
    </linearGradient>
    <radialGradient
       inkscape:collect="always"
       xlink:href="#linearGradient4795"
       id="radialGradient4284"
       gradientUnits="userSpaceOnUse"
       gradientTransform="matrix(1.015752,-0.28569361,0.21803356,0.7751942,-90.1496,159.32011)"
       cx="625.71405"
       cy="299.58719"
       fx="625.71405"
       fy="299.58719"
       r="104.16132" />
    <radialGradient
       inkscape:collect="always"
       xlink:href="#linearGradient4795"
       id="radialGradient4290"
       gradientUnits="userSpaceOnUse"
       gradientTransform="matrix(0.99389932,0.02497115,-0.02014542,0.80182608,1010.1239,33.283987)"
       cx="-552.04114"
       cy="300.1199"
       fx="-552.04114"
       fy="300.1199"
       r="107.21013" />
    <radialGradient
       inkscape:collect="always"
       xlink:href="#linearGradient4389"
       id="radialGradient4395"
       cx="413.08704"
       cy="370.70483"
       fx="413.08704"
       fy="370.70483"
       r="31.683121"
       gradientTransform="matrix(1.809644,0.48489264,-0.27255404,1.0171855,-233.41633,-206.67363)"
       gradientUnits="userSpaceOnUse" />
    <radialGradient
       inkscape:collect="always"
       xlink:href="#linearGradient4389"
       id="radialGradient4451"
       gradientUnits="userSpaceOnUse"
       gradientTransform="matrix(1.6414646,0,0,2.1189264,-408.65843,-338.57603)"
       cx="647.20398"
       cy="294.09979"
       fx="647.20398"
       fy="294.09979"
       r="17.538012" />
    <filter
       inkscape:collect="always"
       id="filter4485"
       x="-0.294498"
       width="1.5889961"
       y="-0.20252243"
       height="1.4050449"
       color-interpolation-filters="sRGB">
      <feGaussianBlur
         inkscape:collect="always"
         stdDeviation="4.119804"
         id="feGaussianBlur4487" />
    </filter>
    <filter
       inkscape:collect="always"
       id="filter4489"
       x="-0.18745098"
       width="1.374902"
       y="-0.33348837"
       height="1.6669767"
       color-interpolation-filters="sRGB">
      <feGaussianBlur
         inkscape:collect="always"
         stdDeviation="4.9491935"
         id="feGaussianBlur4491" />
    </filter>
    <linearGradient
       inkscape:collect="always"
       xlink:href="#linearGradient4537"
       id="linearGradient4698"
       gradientUnits="userSpaceOnUse"
       gradientTransform="translate(10.899495,-6.7928933)"
       x1="688.39032"
       y1="196.61282"
       x2="260.15256"
       y2="207.11282" />
    <filter
       inkscape:collect="always"
       id="filter4716"
       color-interpolation-filters="sRGB">
      <feGaussianBlur
         inkscape:collect="always"
         stdDeviation="0.79150079"
         id="feGaussianBlur4718" />
    </filter>
    <filter
       inkscape:collect="always"
       id="filter4777"
       x="-0.13432032"
       width="1.2686406"
       y="-0.25243855"
       height="1.5048771"
       color-interpolation-filters="sRGB">
      <feGaussianBlur
         inkscape:collect="always"
         stdDeviation="3.6771777"
         id="feGaussianBlur4779" />
    </filter>
    <radialGradient
       inkscape:collect="always"
       xlink:href="#linearGradient4389"
       id="radialGradient4827"
       gradientUnits="userSpaceOnUse"
       gradientTransform="matrix(1.8305592,0.62646354,-0.12496604,0.36515723,-299.75659,-65.516083)"
       cx="406.918"
       cy="318.13089"
       fx="406.918"
       fy="318.13089"
       r="30.730099" />
    <radialGradient
       inkscape:collect="always"
       xlink:href="#linearGradient5003"
       id="radialGradient4915"
       cx="589.74823"
       cy="266.17279"
       fx="589.74823"
       fy="266.17279"
       r="32.851418"
       gradientTransform="matrix(1,0,0,0.53209121,0,124.54458)"
       gradientUnits="userSpaceOnUse" />
    <radialGradient
       inkscape:collect="always"
       xlink:href="#linearGradient5003"
       id="radialGradient4923"
       cx="405.90048"
       cy="304.35654"
       fx="405.90048"
       fy="304.35654"
       r="32.851418"
       gradientTransform="matrix(1,0,0,0.53209121,0,142.41111)"
       gradientUnits="userSpaceOnUse" />
    <filter
       inkscape:collect="always"
       id="filter5071"
       x="-0.12549372"
       width="1.2509874"
       y="-0.23585002"
       height="1.4717"
       color-interpolation-filters="sRGB">
      <feGaussianBlur
         inkscape:collect="always"
         stdDeviation="3.435539"
         id="feGaussianBlur5073" />
    </filter>
    <filter
       inkscape:collect="always"
       id="filter5075"
       x="-0.12549372"
       width="1.2509874"
       y="-0.23585002"
       height="1.4717"
       color-interpolation-filters="sRGB">
      <feGaussianBlur
         inkscape:collect="always"
         stdDeviation="3.435539"
         id="feGaussianBlur5077" />
    </filter>
    <radialGradient
       inkscape:collect="always"
       xlink:href="#linearGradient4710"
       id="radialGradient5124"
       cx="530.46991"
       cy="34.664616"
       fx="530.46991"
       fy="34.664616"
       r="10.967625"
       gradientTransform="matrix(1,0,0,0.73588072,0,9.1555927)"
       gradientUnits="userSpaceOnUse" />
    <radialGradient
       inkscape:collect="always"
       xlink:href="#linearGradient4710"
       id="radialGradient5132"
       cx="536.21991"
       cy="21.539614"
       fx="536.21991"
       fy="21.539614"
       r="10.967625"
       gradientTransform="matrix(0.82991635,0,0,0.66892721,90.442648,5.021859)"
       gradientUnits="userSpaceOnUse" />
    <radialGradient
       inkscape:collect="always"
       xlink:href="#linearGradient4389"
       id="radialGradient5188"
       gradientUnits="userSpaceOnUse"
       gradientTransform="matrix(1.2726702,0.34101094,-0.19167936,0.71535708,4.686444,-144.84737)"
       cx="413.08704"
       cy="370.70483"
       fx="413.08704"
       fy="370.70483"
       r="31.683121" />
    <radialGradient
       inkscape:collect="always"
       xlink:href="#linearGradient4389"
       id="radialGradient5190"
       gradientUnits="userSpaceOnUse"
       gradientTransform="matrix(1.1543945,0,0,1.4901795,-118.55625,-237.61051)"
       cx="647.20398"
       cy="294.09979"
       fx="647.20398"
       fy="294.09979"
       r="17.538012" />
    <linearGradient
       inkscape:collect="always"
       xlink:href="#linearGradient4537"
       id="linearGradient5192"
       gradientUnits="userSpaceOnUse"
       gradientTransform="matrix(0.70327102,0,0,0.70327102,170.24793,0.5002013)"
       x1="534.17926"
       y1="78.169426"
       x2="435.78937"
       y2="21.755259" />
    <linearGradient
       inkscape:collect="always"
       xlink:href="#linearGradient4710"
       id="linearGradient5194"
       gradientUnits="userSpaceOnUse"
       gradientTransform="translate(5.9497475,-5.3786797)"
       x1="488.98621"
       y1="204.39099"
       x2="358.4404"
       y2="187.31383" />
    <linearGradient
       inkscape:collect="always"
       xlink:href="#linearGradient4710"
       id="linearGradient5196"
       gradientUnits="userSpaceOnUse"
       gradientTransform="translate(2.4800776,-5.201903)"
       x1="629.70044"
       y1="181.76358"
       x2="289.85104"
       y2="106.70366" />
    <radialGradient
       inkscape:collect="always"
       xlink:href="#linearGradient4710"
       id="radialGradient5204"
       cx="538.16876"
       cy="16.499107"
       fx="538.16876"
       fy="16.499107"
       r="10.25181"
       gradientTransform="matrix(0.70327102,0,0,0.64477484,170.0846,-1.2696868)"
       gradientUnits="userSpaceOnUse" />
    <radialGradient
       inkscape:collect="always"
       xlink:href="#linearGradient4710"
       id="radialGradient5208"
       cx="499.97549"
       cy="97.625748"
       fx="499.97549"
       fy="97.625748"
       r="7.2064195"
       gradientTransform="matrix(1.2888088,-0.01219869,0.0220522,2.329845,-124.64171,-147.97552)"
       gradientUnits="userSpaceOnUse" />
    <filter
       inkscape:collect="always"
       id="filter5214">
      <feGaussianBlur
         inkscape:collect="always"
         stdDeviation="1.27031"
         id="feGaussianBlur5216" />
    </filter>
    <filter
       inkscape:collect="always"
       id="filter5218">
      <feGaussianBlur
         inkscape:collect="always"
         stdDeviation="1.7148438"
         id="feGaussianBlur5220" />
    </filter>
    <filter
       inkscape:collect="always"
       id="filter5322"
       x="-0.073195659"
       width="1.1463913"
       y="-0.10003019"
       height="1.2000604">
      <feGaussianBlur
         inkscape:collect="always"
         stdDeviation="0.672775"
         id="feGaussianBlur5324" />
    </filter>
    <filter
       inkscape:collect="always"
       id="filter5346">
      <feGaussianBlur
         inkscape:collect="always"
         stdDeviation="0.34362549"
         id="feGaussianBlur5348" />
    </filter>
  </defs>
  <sodipodi:namedview
     id="base"
     pagecolor="#ffffff"
     bordercolor="#666666"
     borderopacity="1.0"
     inkscape:pageopacity="0.0"
     inkscape:pageshadow="2"
     inkscape:zoom="1"
     inkscape:cx="-142.69554"
     inkscape:cy="313.61472"
     inkscape:document-units="px"
     inkscape:current-layer="layer2"
     showgrid="false"
     inkscape:window-width="1920"
     inkscape:window-height="1017"
     inkscape:window-x="-8"
     inkscape:window-y="-8"
     inkscape:window-maximized="1"
     fit-margin-top="0"
     fit-margin-left="0"
     fit-margin-right="0"
     fit-margin-bottom="0"
     inkscape:document-rotation="0"
     units="mm" />
  <metadata
     id="metadata7">
    <rdf:RDF>
      <cc:Work
         rdf:about="">
        <dc:format>image/svg+xml</dc:format>
        <dc:type
           rdf:resource="http://purl.org/dc/dcmitype/StillImage" />
        <dc:title>cherries glossy</dc:title>
        <dc:date>04/25/2013</dc:date>
        <dc:creator>
          <cc:Agent>
            <dc:title>edited by Paul Sherman</dc:title>
          </cc:Agent>
        </dc:creator>
        <dc:rights>
          <cc:Agent>
            <dc:title>PD</dc:title>
          </cc:Agent>
        </dc:rights>
        <dc:publisher>
          <cc:Agent>
            <dc:title>WPClipart</dc:title>
          </cc:Agent>
        </dc:publisher>
        <dc:subject>
          <rdf:Bag>
            <rdf:li>cherry</rdf:li>
            <rdf:li>glossy</rdf:li>
            <rdf:li>fruit</rdf:li>
            <rdf:li>food</rdf:li>
          </rdf:Bag>
        </dc:subject>
        <cc:license
           rdf:resource="http://creativecommons.org/publicdomain/zero/1.0/" />
      </cc:Work>
      <cc:License
         rdf:about="http://creativecommons.org/publicdomain/zero/1.0/">
        <cc:permits
           rdf:resource="http://creativecommons.org/ns#Reproduction" />
        <cc:permits
           rdf:resource="http://creativecommons.org/ns#Distribution" />
        <cc:permits
           rdf:resource="http://creativecommons.org/ns#DerivativeWorks" />
      </cc:License>
    </rdf:RDF>
  </metadata>
  <g
     inkscape:groupmode="layer"
     id="layer2"
     inkscape:label="vysnia"
     transform="translate(-360.44183,-1.6857177)"
     style="display:inline">
    <path
       sodipodi:nodetypes="ccccccsc"
       inkscape:connector-curvature="0"
       id="path4098"
       d="m 411.99734,192.51517 c -32.41774,2.50353 -53.76574,36.70207 -51.37299,67.34005 0.33016,31.09662 18.61756,65.49177 51.10234,72.21891 31.1437,6.24598 64.0837,-8.72108 84.29317,-32.2457 17.18488,-20.7348 22.5901,-55.96971 1.49336,-75.94498 -10.72664,-10.00255 -26.01817,-14.78842 -40.54363,-12.96874 -3.19683,-3.22547 -7.16936,-2.75583 -11.07031,-5.00847 -10.34385,-5.97312 -13.51425,-13.40664 -33.90194,-13.39107 z"
       style="fill:url(#radialGradient4290);fill-opacity:1;stroke:none;stroke-width:0.703271" />
    <path
       style="color:#000000;display:inline;overflow:visible;visibility:visible;fill:url(#radialGradient5188);fill-opacity:1;fill-rule:nonzero;stroke:none;stroke-width:6.32944;marker:none;enable-background:accumulate"
       d="m 481.63536,254.74593 c 0,4.39431 -13.72882,27.11671 -20.14015,15.9132 -4.83784,-8.45388 -23.41607,-14.9999 -24.36711,-19.39421 -0.92951,-4.29488 9.77044,4.2197 21.88066,-0.24864 14.15151,-5.22152 22.6266,-0.66466 22.6266,3.72965 z"
       id="path4381"
       inkscape:connector-curvature="0"
       sodipodi:nodetypes="sssss" />
    <path
       sodipodi:nodetypes="sssss"
       inkscape:connector-curvature="0"
       id="path4425"
       d="m 444.77017,361.51885 c 0,6.24838 -19.52137,38.55798 -28.63782,22.62741 -6.87905,-12.02081 -33.29593,-21.32877 -34.64824,-27.57715 -1.3217,-6.10701 13.89284,6.0001 31.1127,-0.35356 20.12241,-7.42462 32.17336,-0.94509 32.17336,5.3033 z"
       style="color:#000000;display:inline;overflow:visible;visibility:visible;fill:url(#radialGradient4395);fill-opacity:1;fill-rule:nonzero;stroke:none;stroke-width:9;marker:none;filter:url(#filter4489);enable-background:accumulate"
       transform="matrix(0.70327102,0,0,0.70327102,168.84138,0.5002013)" />
    <path
       inkscape:connector-curvature="0"
       id="path4080"
       d="m 614.53939,151.50568 c -16.50596,1.02809 -29.02501,17.36621 -46.24007,14.10937 -9.33082,-1.89939 -20.61113,0.95656 -28.4704,5.13147 -8.8545,4.70357 -15.95371,12.30035 -20.1432,21.5269 -8.13778,18.81288 -3.93575,40.79648 6.30746,57.93195 12.38525,22.46115 35.48362,40.98507 61.95378,41.47101 20.04866,-0.44289 41.01321,-7.26666 54.85514,-22.30688 12.14127,-14.18714 17.73324,-33.05915 18.98832,-51.42669 1.17696,-22.16477 -6.4451,-46.66004 -25.60346,-59.49233 -6.40298,-4.20787 -13.94368,-6.87175 -21.64757,-6.9448 z"
       style="color:#000000;display:inline;overflow:visible;visibility:visible;fill:url(#radialGradient4284);fill-opacity:1;fill-rule:nonzero;stroke:none;stroke-width:0.703271;marker:none;enable-background:accumulate"
       sodipodi:nodetypes="ccsccccccc" />
    <path
       sodipodi:nodetypes="scscss"
       inkscape:connector-curvature="0"
       id="path4435"
       d="m 640.76714,203.82412 c -0.91931,8.74042 -7.85172,15.91321 -14.71782,15.91321 -12.18408,-0.42748 -8.63692,-7.35865 -6.42161,-15.96466 1.77337,-6.88918 0.37123,-15.56611 6.6026,-17.5346 3.70909,0.19156 10.25339,-2.29216 12.19488,0.49866 2.59745,3.73372 2.88038,11.96831 2.34195,17.08739 z"
       style="color:#000000;display:inline;overflow:visible;visibility:visible;fill:url(#radialGradient5190);fill-opacity:1;fill-rule:nonzero;stroke:none;stroke-width:6.32944;marker:none;enable-background:accumulate" />
    <path
       style="color:#000000;display:inline;overflow:visible;visibility:visible;fill:url(#radialGradient4451);fill-opacity:1;fill-rule:nonzero;stroke:none;stroke-width:9;marker:none;filter:url(#filter4485);enable-background:accumulate"
       d="m 671.04394,289.11176 c -1.30719,12.42823 -11.16457,22.62742 -20.92767,22.62742 -17.32487,-0.60785 -12.28106,-10.46347 -9.13105,-22.70059 2.5216,-9.79591 0.52785,-22.13386 9.38841,-24.93292 5.27405,0.27239 14.57957,-3.25928 17.34023,0.70907 3.69338,5.30907 4.09568,17.01805 3.33008,24.29702 z"
       id="path4467"
       inkscape:connector-curvature="0"
       sodipodi:nodetypes="scscss"
       transform="matrix(0.70327102,0,0,0.70327102,168.84138,0.5002013)" />
    <path
       style="color:#000000;font-style:normal;font-variant:normal;font-weight:normal;font-stretch:normal;font-size:medium;line-height:normal;font-family:Sans;-inkscape-font-specification:Sans;text-indent:0;text-align:start;text-decoration:none;text-decoration-line:none;letter-spacing:normal;word-spacing:normal;text-transform:none;writing-mode:lr-tb;direction:ltr;baseline-shift:baseline;text-anchor:start;display:inline;overflow:visible;visibility:visible;fill:url(#linearGradient4698);fill-opacity:1;stroke:none;stroke-width:9;marker:none;filter:url(#filter4716);enable-background:accumulate"
       d="m 534.96844,6.9601817 c -4.16888,1.185538 -5.88459,6.4194893 -8.24264,10.0560603 -2.67059,4.118555 -4.92682,8.550852 -6.58915,13.169418 -2.38165,6.617077 -9.12686,15.052218 -4.7494,20.556376 0.73268,0.921256 2.43689,0.43347 3.53125,0 5.70317,-2.258991 9.26543,-8.080399 13.41145,-12.601425 4.13372,-4.507605 8.44656,-9.030462 11.36213,-14.406854 2.07226,-3.821316 6.09635,-8.453907 4.17677,-12.354158 -2.0072,-4.0782909 -8.52829,-5.6627528 -12.90041,-4.4194173 z"
       id="path4696"
       inkscape:connector-curvature="0"
       sodipodi:nodetypes="aaaaaaaaa"
       transform="matrix(0.70327102,0,0,0.70327102,168.84138,0.5002013)" />
    <path
       style="color:#000000;display:inline;overflow:visible;visibility:visible;opacity:0.102326;fill:url(#radialGradient4827);fill-opacity:1;fill-rule:nonzero;stroke:none;stroke-width:9;marker:none;filter:url(#filter4777);enable-background:accumulate"
       d="m 435.93134,310.07685 c -5.90693,4.58717 -8.63283,7.92761 -25.80939,11.49049 -19.31043,4.00549 -45.74962,-38.07583 -34.29469,-34.47147 5.65686,1.77997 16.06811,7.84774 34.29469,15.37958 14.60309,6.0345 36.44756,-0.65994 25.80939,7.6014 z"
       id="path4767"
       inkscape:connector-curvature="0"
       sodipodi:nodetypes="sssss"
       transform="matrix(0.70327102,0,0,0.70327102,168.84138,0.5002013)" />
    <path
       sodipodi:nodetypes="sssss"
       inkscape:connector-curvature="0"
       id="path4723"
       d="m 435.93134,310.07685 c -5.90693,4.58717 -8.63283,7.92761 -25.80939,11.49049 -19.31043,4.00549 -45.74962,-38.07583 -34.29469,-34.47147 5.65686,1.77997 16.06811,7.84774 34.29469,15.37958 14.60309,6.0345 36.44756,-0.65994 25.80939,7.6014 z"
       style="color:#000000;display:inline;overflow:visible;visibility:visible;opacity:0.818605;fill:url(#radialGradient4923);fill-opacity:1;fill-rule:nonzero;stroke:none;stroke-width:9;marker:none;filter:url(#filter5071);enable-background:accumulate"
       transform="matrix(0.70327102,0,0,0.70327102,168.84138,0.5002013)" />
    <path
       sodipodi:nodetypes="sssss"
       inkscape:connector-curvature="0"
       id="path4819"
       d="m 619.7791,271.89308 c -5.90693,4.58717 -8.63283,7.92761 -25.80939,11.49049 -19.31043,4.00549 -45.74962,-38.07583 -34.29469,-34.47147 5.65686,1.77997 16.06811,7.84774 34.29469,15.37958 14.60309,6.0345 36.44756,-0.65994 25.80939,7.6014 z"
       style="color:#000000;display:inline;overflow:visible;visibility:visible;opacity:0.818605;fill:url(#radialGradient4915);fill-opacity:1;fill-rule:nonzero;stroke:none;stroke-width:9;marker:none;filter:url(#filter5075);enable-background:accumulate"
       transform="matrix(-0.70327102,0,0,0.70327102,997.10385,-15.413005)" />
    <path
       sodipodi:nodetypes="sccccsscsscssssccsssssccssssccccsss"
       inkscape:connector-curvature="0"
       id="path4512"
       d="m 550.40987,1.6869711 c -0.58911,0.00912 -1.22654,0.08441 -1.89004,0.197795 -3.22254,2.3592056 -10.64596,3.0162202 -11.01059,7.8019129 -0.59402,8.269896 -8.22444,15.337801 -9.1645,21.801402 -1.71831,3.682221 -3.85913,8.808065 -5.82396,15.120327 -31.86421,40.896679 -50.06684,82.878662 -60.30343,114.636472 -9.31614,28.90225 -12.5458,51.929 -15.62356,52.74904 -0.54468,0.14512 -1.02389,0.84807 -0.86184,1.22619 -0.12119,0.72712 4.74317,3.86446 7.14302,3.97453 3.61449,0.16577 7.13154,-1.20901 7.78166,-2.32252 0.41023,-0.70263 -1.40595,-1.18899 -1.63322,-1.47307 0,0 -0.0919,-0.3555 -0.18591,-1.0514 -0.23985,-1.77568 -0.49319,-5.76763 0.73267,-11.72484 1.70628,-8.29187 3.29463,-21.38582 7.7958,-35.62123 4.50117,-14.23542 10.67194,-30.85553 19.05662,-48.68617 8.38469,-17.83063 18.98328,-36.871801 32.34008,-55.949336 -0.27824,1.811336 -0.66504,3.405344 -0.74722,5.142669 -0.38026,3.093261 -0.64361,6.280393 -0.74723,9.582068 -0.23498,7.487044 0.59219,15.406003 2.74265,23.544519 2.15045,8.13851 5.62419,16.49658 10.68239,24.86184 5.05819,8.36527 11.70083,16.73773 20.18907,24.90504 8.01636,7.71326 14.19065,12.98268 27.52738,22.6854 0.661,0.48089 0.58831,2.52732 1.2799,2.94674 8.28457,3.19241 17.25963,-7.45908 8.2164,-7.61311 -12.04198,-7.30289 -24.46985,-14.65837 -32.59457,-22.39634 -8.12473,-7.73796 -14.43276,-15.60977 -19.20795,-23.44806 -4.77519,-7.83828 -8.01753,-15.64303 -10.01088,-23.246855 -1.99334,-7.603837 -2.7377,-15.006756 -2.51693,-22.041379 0.32693,-10.417055 2.28955,-19.849687 4.61522,-27.603388 3.64782,-4.643392 7.51124,-9.275228 11.60397,-13.867625 0.48354,-0.424374 0.9649,-0.902656 1.4505,-1.406542 4.3378,-0.347145 8.41071,-0.988505 10.76884,-11.603972 0.42175,-1.710154 4.55379,-2.143363 4.10974,-4.944874 -0.54119,-3.414263 1.36808,-7.418751 1.03292,-10.5930201 -0.34462,-3.2640006 -2.62324,-5.6460594 -6.747,-5.5822138 z"
       style="color:#000000;font-style:normal;font-variant:normal;font-weight:normal;font-stretch:normal;font-size:medium;line-height:normal;font-family:Sans;-inkscape-font-specification:Sans;text-indent:0;text-align:start;text-decoration:none;text-decoration-line:none;letter-spacing:normal;word-spacing:normal;text-transform:none;writing-mode:lr-tb;direction:ltr;baseline-shift:baseline;text-anchor:start;display:inline;overflow:visible;visibility:visible;fill:url(#linearGradient5192);fill-opacity:1;stroke:none;stroke-width:6.32944;marker:none;enable-background:accumulate" />
    <path
       inkscape:connector-curvature="0"
       style="color:#000000;font-style:normal;font-variant:normal;font-weight:normal;font-stretch:normal;font-size:medium;line-height:normal;font-family:Sans;-inkscape-font-specification:Sans;text-indent:0;text-align:start;text-decoration:none;text-decoration-line:none;letter-spacing:normal;word-spacing:normal;text-transform:none;writing-mode:lr-tb;direction:ltr;baseline-shift:baseline;text-anchor:start;display:inline;overflow:visible;visibility:visible;fill:url(#linearGradient5194);fill-opacity:1;stroke:none;stroke-width:9;marker:none;filter:url(#filter5218);enable-background:accumulate"
       d="M 510.16053,59.575983 C 420.6828,175.39365 404.34375,298.5 404.34375,298.5 l 3.53125,-0.0625 c 0.0705,-0.66265 13.75697,-122.30174 102.98836,-237.800857 z"
       id="path4585"
       sodipodi:nodetypes="ccccc"
       transform="matrix(0.70327102,0,0,0.70327102,168.84138,0.5002013)" />
    <path
       style="color:#000000;font-style:normal;font-variant:normal;font-weight:normal;font-stretch:normal;font-size:medium;line-height:normal;font-family:Sans;-inkscape-font-specification:Sans;text-indent:0;text-align:start;text-decoration:none;text-decoration-line:none;letter-spacing:normal;word-spacing:normal;text-transform:none;writing-mode:lr-tb;direction:ltr;baseline-shift:baseline;text-anchor:start;display:inline;overflow:visible;visibility:visible;fill:url(#linearGradient5196);fill-opacity:1;stroke:none;stroke-width:9;marker:none;filter:url(#filter5214);enable-background:accumulate"
       d="m 504.00336,80.357832 c -1.51827,2.168543 -3.00021,4.33297 -4.46875,6.5 -0.59539,4.64829 -1.16686,11.899229 -1.35172,16.882058 -1.60658,43.30441 18.69709,98.61332 91,137.40625 l 0.96875,-1.59375 c -69.74923,-39.50784 -89.9304,-93.73633 -88.4375,-136.3125 0.25744,-7.341916 1.18218,-16.294868 2.28922,-22.882058 z"
       id="path4575"
       inkscape:connector-curvature="0"
       sodipodi:nodetypes="ccsccsc"
       transform="matrix(0.70327102,0,0,0.70327102,168.84138,0.5002013)" />
    <path
       style="color:#000000;font-style:normal;font-variant:normal;font-weight:normal;font-stretch:normal;font-size:medium;line-height:normal;font-family:Sans;-inkscape-font-specification:Sans;text-indent:0;text-align:start;text-decoration:none;text-decoration-line:none;letter-spacing:normal;word-spacing:normal;text-transform:none;writing-mode:lr-tb;direction:ltr;baseline-shift:baseline;text-anchor:start;display:inline;overflow:visible;visibility:visible;opacity:0.77;fill:url(#radialGradient5124);fill-opacity:1;stroke:none;stroke-width:0.835315px;marker:none;filter:url(#filter5322);enable-background:accumulate"
       d="m 519.75,26.59375 c -0.73698,5.545443 -0.55225,10.207532 2.15625,11.8125 4.19639,2.48664 4.79424,3.648544 7.6875,4.09375 5.78652,0.890412 11.84375,-1.03125 11.84375,-1.03125 l -0.25,-0.78125 c 0,0 -5.82284,0.193291 -11.34375,-0.65625 -2.76046,-0.424771 -5.26751,-0.259923 -7.03125,-2.53125 -1.76374,-2.271327 -2.96798,-5.378735 -2.25,-10.78125 z"
       id="path5079"
       inkscape:connector-curvature="0"
       sodipodi:nodetypes="cssccsscc"
       transform="matrix(0.64651142,0,0,0.60074203,198.94712,4.1422383)" />
    <path
       style="color:#000000;font-style:normal;font-variant:normal;font-weight:normal;font-stretch:normal;font-size:medium;line-height:normal;font-family:Sans;-inkscape-font-specification:Sans;text-indent:0;text-align:start;text-decoration:none;text-decoration-line:none;letter-spacing:normal;word-spacing:normal;text-transform:none;writing-mode:lr-tb;direction:ltr;baseline-shift:baseline;text-anchor:start;display:inline;overflow:visible;visibility:visible;opacity:0.77;fill:url(#radialGradient5132);fill-opacity:1;stroke:none;stroke-width:0.835315px;marker:none;filter:url(#filter5346);enable-background:accumulate"
       d="m 526.56369,12.09375 c -0.61163,5.040895 0.98191,7.539436 2.58443,9.799831 1.60252,2.260395 5.06808,2.293941 7.46925,2.698641 4.80232,0.809399 7.94513,1.023138 7.94513,1.023138 l -0.20748,-0.710168 c 0,0 -7.63076,-1.038212 -12.21265,-1.810461 -2.29095,-0.386124 -1.39603,-0.789182 -2.85979,-2.853854 -1.46376,-2.064673 -2.64045,-3.122528 -2.04458,-8.0335 z"
       id="path5081"
       inkscape:connector-curvature="0"
       sodipodi:nodetypes="cssccsscc"
       transform="matrix(0.86997143,0,0,0.80214347,80.247042,-1.2605912)" />
    <path
       style="fill:url(#radialGradient5208);fill-opacity:1;stroke:none;stroke-width:0.703271"
       d="m 527.65526,50.522003 c -1.23072,2.285631 -8.96671,11.955608 -8.96671,11.955608 -1.53056,8.258679 -0.35163,21.625579 -0.35163,21.625579 1.95181,-5.470584 1.72579,-14.390747 3.56743,-21.418399 1.84163,-7.02765 5.75091,-12.162788 5.75091,-12.162788 z"
       id="path4595"
       inkscape:connector-curvature="0"
       sodipodi:nodetypes="ccssc" />
    <path
       style="color:#000000;font-style:normal;font-variant:normal;font-weight:normal;font-stretch:normal;font-size:medium;line-height:normal;font-family:Sans;-inkscape-font-specification:Sans;text-indent:0;text-align:start;text-decoration:none;text-decoration-line:none;letter-spacing:normal;word-spacing:normal;text-transform:none;writing-mode:lr-tb;direction:ltr;baseline-shift:baseline;text-anchor:start;display:inline;overflow:visible;visibility:visible;opacity:0.88;fill:url(#radialGradient5204);fill-opacity:1;stroke:none;stroke-width:6.32944;marker:none;enable-background:accumulate"
       d="m 550.8187,2.7592096 c -0.43003,0.00579 -0.89534,0.053558 -1.37968,0.1255009 -2.35237,1.4969153 -7.77127,1.9137909 -8.03744,4.9503115 -0.0131,0.1593253 -0.0257,0.3161843 -0.0481,0.4741144 -6.5e-4,0.00457 6.7e-4,0.00933 0,0.013946 1.8221,4.5915166 5.08377,7.6555526 8.8075,7.6555526 0.80697,0 1.58843,-0.160418 2.34225,-0.432281 0.93631,-0.662361 2.74112,-1.128411 2.48663,-2.523962 -0.39505,-2.166348 0.99867,-4.7071947 0.75401,-6.7212674 -0.25156,-2.0710076 -1.9149,-3.5824233 -4.92514,-3.5419132 z"
       id="path5164"
       inkscape:connector-curvature="0" />
    <path
       style="color:#000000;display:inline;overflow:visible;visibility:visible;opacity:0.818605;fill:#2a3415;fill-opacity:1;fill-rule:nonzero;stroke:none;stroke-width:6.32944;marker:none;enable-background:accumulate"
       d="m 446.69118,213.60705 c -0.33632,0.27934 -1.07611,1.33687 -0.95881,1.61059 -0.12119,0.72711 4.74275,3.8678 7.1426,3.97787 3.61449,0.16578 7.12981,-1.21607 7.77993,-2.32958 0.2393,-0.40987 -0.27261,-0.72351 -0.79118,-0.98898 -1.83209,0.28255 -3.8897,0.52745 -6.10966,0.52745 -2.88628,0 -4.98226,-1.66115 -7.06288,-2.79735 z"
       id="path5175"
       inkscape:connector-curvature="0"
       sodipodi:nodetypes="ccsscsc" />
    <path
       style="color:#000000;font-style:normal;font-variant:normal;font-weight:normal;font-stretch:normal;font-size:medium;line-height:normal;font-family:Sans;-inkscape-font-specification:Sans;text-indent:0;text-align:start;text-decoration:none;text-decoration-line:none;letter-spacing:normal;word-spacing:normal;text-transform:none;writing-mode:lr-tb;direction:ltr;baseline-shift:baseline;text-anchor:start;display:inline;overflow:visible;visibility:visible;fill:#273114;fill-opacity:1;stroke:none;stroke-width:6.32944;marker:none;enable-background:accumulate"
       d="m 591.41936,169.74677 c -0.42031,-0.81465 -2.00738,-2.23155 -2.65429,-0.71943 -2.00075,4.67663 -7.48463,5.73118 -9.67493,5.75221 0.13743,0.55198 0.2845,1.06538 0.59338,1.2527 2.58893,0.99763 5.25349,0.65574 7.40633,-0.30768 0.015,-0.007 0.029,-0.0153 0.0439,-0.0219 0.91731,-0.57525 1.83671,-1.17759 2.72518,-1.80213 0.0155,-0.0142 0.0287,-0.0297 0.044,-0.044 1.48717,-1.38863 2.18594,-2.81208 1.51643,-4.10974 z"
       id="path5180"
       inkscape:connector-curvature="0"
       sodipodi:nodetypes="ascccccca" />
  </g>
</svg>
