<?xml version="1.0" encoding="UTF-8" standalone="no"?>
<svg
   xmlns:dc="http://purl.org/dc/elements/1.1/"
   xmlns:cc="http://creativecommons.org/ns#"
   xmlns:rdf="http://www.w3.org/1999/02/22-rdf-syntax-ns#"
   xmlns:svg="http://www.w3.org/2000/svg"
   xmlns="http://www.w3.org/2000/svg"
   xmlns:sodipodi="http://sodipodi.sourceforge.net/DTD/sodipodi-0.dtd"
   xmlns:inkscape="http://www.inkscape.org/namespaces/inkscape"
   id="svg4170"
   version="1.1"
   inkscape:version="1.0.2-2 (e86c870879, 2021-01-15)"
   width="98.943085mm"
   height="86.244225mm"
   sodipodi:docname="clam.svg">
  <title
     id="title4201">Schema bivalvia</title>
  <metadata
     id="metadata4196">
    <rdf:RDF>
      <cc:Work
         rdf:about="">
        <dc:format>image/svg+xml</dc:format>
        <dc:type
           rdf:resource="http://purl.org/dc/dcmitype/StillImage" />
        <dc:title>Schema bivalvia</dc:title>
        <dc:date>2016-01-30</dc:date>
        <dc:creator>
          <cc:Agent>
            <dc:title>G.Mannaerts</dc:title>
          </cc:Agent>
        </dc:creator>
        <dc:rights>
          <cc:Agent>
            <dc:title>G.Mannaerts</dc:title>
          </cc:Agent>
        </dc:rights>
        <dc:publisher>
          <cc:Agent>
            <dc:title>G.Mannaerts</dc:title>
          </cc:Agent>
        </dc:publisher>
        <dc:identifier>https://commons.wikimedia.org/wiki/File:Schema_bivalvia.svg</dc:identifier>
        <dc:source>http://www.fao.org/docrep/009/y5720f/y5720f06.htm</dc:source>
        <dc:description>Caractères externes et internes des valves du clam Mercenaria mercenaria.</dc:description>
        <cc:license
           rdf:resource="http://creativecommons.org/licenses/by-sa/4.0/" />
      </cc:Work>
      <cc:License
         rdf:about="http://creativecommons.org/licenses/by-sa/4.0/">
        <cc:permits
           rdf:resource="http://creativecommons.org/ns#Reproduction" />
        <cc:permits
           rdf:resource="http://creativecommons.org/ns#Distribution" />
        <cc:requires
           rdf:resource="http://creativecommons.org/ns#Notice" />
        <cc:requires
           rdf:resource="http://creativecommons.org/ns#Attribution" />
        <cc:permits
           rdf:resource="http://creativecommons.org/ns#DerivativeWorks" />
        <cc:requires
           rdf:resource="http://creativecommons.org/ns#ShareAlike" />
      </cc:License>
    </rdf:RDF>
  </metadata>
  <sodipodi:namedview
     pagecolor="#ffffff"
     bordercolor="#666666"
     borderopacity="1"
     objecttolerance="10"
     gridtolerance="10"
     guidetolerance="10"
     inkscape:pageopacity="0"
     inkscape:pageshadow="2"
     inkscape:window-width="1920"
     inkscape:window-height="1017"
     id="namedview4194"
     showgrid="false"
     borderlayer="true"
     inkscape:showpageshadow="false"
     fit-margin-top="0"
     fit-margin-left="0"
     fit-margin-right="0"
     fit-margin-bottom="0"
     inkscape:zoom="1.2685914"
     inkscape:cx="391.57421"
     inkscape:cy="211.6208"
     inkscape:window-x="-8"
     inkscape:window-y="-8"
     inkscape:window-maximized="1"
     inkscape:current-layer="svg4170"
     inkscape:document-rotation="0"
     showguides="false"
     units="mm" />
  <defs
     id="defs4172" />
  <path
     d="M 97.308065,78.664527 121.5886,69.131564 q 54.67195,-11.977312 93.70006,-0.814783 l 13.03653,7.007135 Q 214.55536,71.901827 200.21518,69.538956 161.83889,63.99843 97.308065,78.664527"
     id="path4176"
     inkscape:connector-curvature="0"
     style="display:inline;fill:#998e66;stroke:none;stroke-width:1.62957" />
  <path
     d="m 55.509685,92.352881 c 37.4257,-25.36691 73.656405,-40.929268 108.692075,-46.687071 26.1817,-5.703482 55.92128,-7.496005 89.21875,-5.377569 23.84599,1.629567 38.37629,13.471079 43.5909,35.524545 0.38024,7.876238 4.29119,17.083287 11.73288,27.621144 l 12.79209,16.5401 C 290.08575,97.866247 259.01536,82.982875 228.32519,75.323916 l -13.03653,-7.007135 c -26.01873,-7.441683 -57.25209,-7.170092 -93.70006,0.814783 l -24.280535,9.532963 c -10.59218,3.204809 -24.41634,7.957716 -41.47247,14.258703 l -0.32591,-0.570349 M 278.84175,62.124429 C 266.13113,76.953482 252.00823,73.55855 236.47302,51.93964 c 15.53521,21.61891 29.65811,25.013842 42.36873,10.184789"
     id="path843"
     inkscape:connector-curvature="0"
     style="display:inline;fill:#cbc6b4;stroke:none;stroke-width:1.62957"
     sodipodi:nodetypes="ccccccccccccccc" />
  <path
     d="m 261.56834,110.19663 q -2.28139,-2.44435 -2.6073,-5.45905 l 4.39983,-16.295658 q 4.15539,1.95548 6.59974,7.007135 2.36287,5.866433 2.03696,11.081053 -1.874,6.19235 -7.9034,4.8887 6.0294,1.30365 7.9034,-4.8887 0.32591,-5.21462 -2.03696,-11.081053 -2.44435,-5.051655 -6.59974,-7.007135 l -4.39983,16.295658 q 0.32591,3.0147 2.6073,5.45905 -22.56949,-11.081053 -48.72403,-14.258703 -32.99871,-6.192352 -74.96004,-3.422089 -31.69507,1.059218 -56.790395,18.088182 -8.22931,-1.14069 -17.35488,7.98488 -17.599318,18.74001 -10.59218,37.39854 8.39226,20.20662 24.0361,22.32506 l 22.976895,0.24443 q 17.02897,-0.48886 28.51741,4.64427 15.23644,6.7627 23.95462,14.74757 27.78411,25.58419 -3.34061,22.89541 -30.14698,0.40739 -54.590475,9.94035 -20.77697,5.94792 6.925665,14.42166 27.53967,5.78496 42.77611,18.49558 22.40654,12.71062 64.36787,6.59974 43.83533,-3.99243 78.21918,-31.85802 13.76983,-11.89583 25.99158,-29.49514 5.13313,-2.68879 11.08105,-11.16253 17.84375,-26.23602 7.00714,-35.52455 -5.86644,-7.82192 -14.01427,-10.59218 -14.17723,-15.48088 -34.13942,-28.68036 -9.04409,-6.51827 -18.82149,-11.56992 l -2.52583,-1.22218 M 55.835595,92.92323 q 25.5842,-9.451485 41.47247,-14.258703 64.530825,-14.666097 102.907115,-9.125571 14.34018,2.362871 28.11001,5.78496 46.03525,11.48844 93.21119,44.650114 l 5.78496,4.15539 2.2814,1.54809 0.65182,0.48887 0.48887,0.32591 0.57035,0.40739 1.95548,1.38514 5.05166,3.82948 q 9.94035,7.90339 25.33975,22.40653 22.08062,20.69549 -5.13313,73.90083 -27.29524,53.04238 -57.76813,69.58248 -30.55436,16.5401 -60.78282,23.87315 -51.00542,6.68122 -81.47831,1.22217 Q 98.041365,310.22589 71.723865,285.61944 25.851577,250.25785 11.837308,215.95548 1.4895624,198.03025 0.43034442,164.21675 -0.54739558,135.37343 40.19176,103.51541 l 13.199485,-9.695919 2.44435,-0.896261 M 263.36087,88.441922 q -5.94792,-1.629566 -10.75514,2.362871 -5.05165,4.725743 -4.64426,10.999567 3.42209,6.35531 10.99957,2.93322 -7.57748,3.42209 -10.99957,-2.93322 -0.40739,-6.273824 4.64426,-10.999567 4.80722,-3.992437 10.75514,-2.362871"
     id="path4182"
     inkscape:connector-curvature="0"
     style="display:inline;fill:#dad9d8;stroke:none;stroke-width:1.62957" />
  <path
     d="m 261.56834,110.19663 0.81479,0.73331 1.71104,0.48887 q 9.7774,5.05165 18.82149,11.56992 19.96219,13.19948 34.13942,28.68036 -5.70349,-2.19991 -11.32549,1.05922 -4.72574,2.85174 -9.7774,7.65896 -10.91809,10.26627 -13.03653,23.46576 -3.748,9.53296 0,20.53253 3.50357,5.622 11.40697,6.59974 10.18479,1.22218 18.65853,-2.03695 -12.22175,17.59931 -25.99158,29.49514 -34.38385,27.86559 -78.21918,31.85802 -41.96133,6.11088 -64.36787,-6.59974 -15.23644,-12.71062 -42.77611,-18.49558 -27.702635,-8.47374 -6.925665,-14.42166 24.443495,-9.53296 54.590475,-9.94035 31.12472,2.68878 3.34061,-22.89541 -8.71818,-7.98487 -23.95462,-14.74757 -11.48844,-5.13313 -28.51741,-4.64427 8.06635,-4.39982 10.02183,-13.93279 1.95548,-9.53296 0.97774,-21.75471 -0.97774,-12.30322 -10.75514,-26.80636 -8.392265,-6.27383 -19.310365,-5.45905 25.095325,-17.028964 56.790395,-18.088182 41.96133,-2.770263 74.96004,3.422089 26.15454,3.17765 48.72403,14.258703"
     id="path4184"
     inkscape:connector-curvature="0"
     style="display:inline;fill:#dedddc;stroke:none;stroke-width:1.62957" />
  <path
     d="m 81.093875,110.60402 q 10.9181,-0.81478 19.310365,5.45905 9.7774,14.50314 10.75514,26.80636 0.97774,12.22175 -0.97774,21.75471 -1.95548,9.53297 -10.02183,13.93279 L 77.182915,178.3125 q -15.64384,-2.11844 -24.0361,-22.32506 -7.007138,-18.65853 10.59218,-37.39854 9.12557,-9.12557 17.35488,-7.98488 m 231.887285,98.34433 q -8.47374,3.25913 -18.65853,2.03695 -7.9034,-0.97774 -11.40697,-6.59974 -3.748,-10.99957 0,-20.53253 2.11844,-13.19949 13.03653,-23.46576 5.05166,-4.80722 9.7774,-7.65896 5.622,-3.25913 11.32549,-1.05922 8.14783,2.77026 14.01427,10.59218 10.83661,9.28853 -7.00714,35.52455 -5.94792,8.47374 -11.08105,11.16253"
     id="path4186"
     inkscape:connector-curvature="0"
     style="display:inline;fill:#cbc9c5;stroke:none;stroke-width:1.62957" />
  <path
     id="path4192"
     style="display:inline;fill:none;stroke:#000000;stroke-width:0.814783;stroke-linecap:round;stroke-linejoin:round"
     d="m 100.15981,178.55693 c 11.35264,-0.32591 20.85845,1.22218 28.51741,4.64427 10.15763,4.50846 18.1425,9.42433 23.95462,14.74757 18.52273,17.05613 17.4092,24.68793 -3.34061,22.89541 -20.09799,0.27159 -38.29481,3.58504 -54.590475,9.94035 -13.85131,3.96528 -11.54276,8.7725 6.925665,14.42166 18.35977,3.85664 32.61848,10.02184 42.77611,18.49558 14.93769,8.47375 36.39365,10.67366 64.36787,6.59974 29.22356,-2.66162 55.29662,-13.28096 78.21918,-31.85802 9.17989,-7.93055 17.84375,-17.76227 25.99158,-29.49514 m 0,0 c -5.64917,2.17275 -11.86867,2.85174 -18.65853,2.03695 -5.26893,-0.65182 -9.07126,-2.85174 -11.40697,-6.59974 -2.49866,-7.33305 -2.49866,-14.17723 0,-20.53253 1.4123,-8.79966 5.7578,-16.62158 13.03653,-23.46576 3.36778,-3.20482 6.62691,-5.75779 9.7774,-7.65896 3.748,-2.17275 7.52317,-2.52583 11.32549,-1.05922 -9.45149,-10.32058 -20.83129,-19.88071 -34.13942,-28.68036 -6.02939,-4.34552 -12.30322,-8.20215 -18.82149,-11.56992 4.0196,0.86909 6.65406,-0.76047 7.9034,-4.8887 0.21727,-3.47641 -0.46171,-7.170093 -2.03696,-11.081053 -1.62957,-3.367775 -3.82948,-5.703482 -6.59974,-7.007135 l -4.39983,16.295658 c 0.21727,2.0098 1.08638,3.82948 2.6073,5.45905 l 2.52583,1.22218 -1.71104,-0.48887 -0.81479,-0.73331 c -15.04632,-7.38736 -31.28767,-12.140273 -48.72403,-14.258703 -21.99914,-4.128229 -46.98582,-5.268925 -74.96004,-3.422089 -21.13005,0.70614 -40.060175,6.735529 -56.790395,18.088182 7.27874,-0.54318 13.71552,1.27649 19.310365,5.45905 6.51827,9.66875 10.10331,18.60422 10.75514,26.80636 0.65183,8.14784 0.32591,15.39941 -0.97774,21.75471 -1.30365,6.35531 -4.64426,10.99958 -10.02183,13.93279 m 221.37657,-58.5829 -12.79209,-16.5401 C 301.3026,92.896065 297.39164,83.689015 297.01141,75.812786 291.7968,53.759328 277.26649,41.917808 253.42051,40.288241 220.12305,38.169805 190.38346,39.962328 164.20176,45.66581 129.16609,51.423605 92.935395,66.985963 55.509685,92.352881 m 0.32591,0.570349 c 17.05613,-6.300995 30.88029,-11.053886 41.47247,-14.258703 L 121.5886,69.131564 c 36.44797,-7.984875 67.68132,-8.256474 93.70006,-0.814783 l 13.03653,7.007135 c 30.69016,7.658959 61.76056,22.542321 93.21119,44.650114 l 5.78496,4.15539 2.60731,1.79253 0.81478,0.57034 0.57035,0.40739 1.95548,1.38514 5.05166,3.82948 c 6.6269,5.26892 15.07348,12.73778 25.33975,22.40653 14.72041,13.797 13.00937,38.4306 -5.13313,73.90083 -18.19683,35.36159 -37.45286,58.55574 -57.76813,69.58248 -20.36957,11.02674 -40.63051,18.98445 -60.78282,23.87315 -34.00362,4.45414 -61.16305,4.86153 -81.47831,1.22217 C 118.19368,314.51707 89.268875,302.02374 71.723865,285.61944 41.142343,262.04504 21.180157,238.82372 11.837308,215.95548 4.9388164,204.00533 1.1364924,186.75908 0.43034442,164.21675 -0.22148258,144.98787 13.032326,124.75408 40.19176,103.51541 l 13.199485,-9.695919 2.11844,-1.46661 m 41.79838,-13.688354 c 43.020555,-9.777398 77.322925,-12.81926 102.907115,-9.125571 9.56012,1.575252 18.93013,3.503567 28.11001,5.78496 m 8.14783,-23.384276 c 15.5352,21.618918 29.65811,25.013842 42.36873,10.184789 m -19.88071,42.613151 c -5.05166,2.2814 -8.71818,1.30366 -10.99957,-2.93322 -0.2716,-4.182553 1.27648,-7.849077 4.64426,-10.999567 3.20482,-2.661619 6.78987,-3.449254 10.75514,-2.362871 m 49.62029,120.506428 c 3.42209,-1.79253 7.11578,-5.51336 11.08105,-11.16253 11.89583,-17.49068 14.23154,-29.3322 7.00714,-35.52455 -3.91096,-5.21461 -8.58239,-8.74534 -14.01427,-10.59218 M 81.093875,110.60402 c -5.48621,-0.76047 -11.27117,1.90117 -17.35488,7.98488 -11.73288,12.49334 -15.2636,24.95953 -10.59218,37.39854 5.59484,13.47109 13.60688,20.91276 24.0361,22.32506 l 22.976895,0.24443 M 53.391245,93.819491 55.835595,92.92323"
     sodipodi:nodetypes="ccccccccccccccccccccccccccccccccscccccccccccccccccccccccccccccccccccccccccccccccccc" />
  <path
     d="M 222.20168,5.9717861 164.6545,0.31992978 C 151.03944,0.22409748 137.61817,0.54435858 124.39071,1.280718 L 107.04045,2.2434356 45.360834,10.14766 C 32.923985,12.855919 22.502949,16.981549 14.097736,22.52456 5.2131944,28.37665 1.4989564,35.685752 2.9550154,44.451848 l 0.622111,2.855465 c 1.532835,9.023813 5.961263,17.964053 13.2852016,26.820737 7.558001,9.173438 16.649987,17.955065 27.275948,26.3449 9.582529,7.52996 20.185109,14.60524 31.807709,21.22588 12.90761,7.31109 26.800645,13.79556 41.679085,19.45342 13.25596,5.02801 26.94888,9.22122 41.0788,12.57964 14.44827,3.44669 28.95769,6.20366 43.52829,8.27086 16.12383,1.95314 32.09595,3.16266 47.91636,3.62855 14.70824,0.56859 28.55123,-0.25404 41.52899,-2.46792 11.68535,-1.99152 22.11817,-5.13992 31.29845,-9.44519 10.46876,-4.92444 19.93253,-10.36666 28.39132,-16.32653 8.83454,-6.31826 14.86524,-13.69421 18.09209,-22.12788 3.08883,-8.21494 -1.01142,-16.288103 -12.30073,-24.219432 l -18.62558,-12.844126 -0.35087,0.164815 0.27021,-0.179701 -23.82185,-17.94726 -8.2984,-9.825902 -0.72488,-0.131652 -0.16145,-1.309145 -2.64293,-8.296032 -1.88713,-0.708373 1.17318,-1.432429 c -1.374,-3.418618 -3.95027,-6.674671 -7.72886,-9.768191 l -2.90586,-2.40176 C 279.1869,18.347069 264.59619,13.015697 247.68211,10.370537 L 229.23184,7.0654812 226.97088,6.7005705 223.90447,6.1893845 222.20158,5.9715384 M 45.360834,10.147668 c 0.36288,8.293321 3.753661,16.54234 10.172311,24.747051 7.26275,9.333105 17.21566,17.829256 29.85874,25.488437 11.93343,7.195089 24.719995,13.737635 38.359735,19.627602 13.57838,5.939778 27.71649,11.158472 42.41434,15.656074 14.61342,4.299435 29.47978,7.913488 44.59905,10.842138 14.26013,2.77262 28.43172,4.31029 42.51475,4.61299 15.06101,0.38892 28.31694,-1.42403 39.76776,-5.43884 12.03753,-4.30437 20.03793,-10.545562 24.00122,-18.72359 3.97475,-8.26735 3.16874,-17.174412 -2.41808,-26.721177 5.58682,9.546765 6.39283,18.453827 2.41808,26.721177 -3.96329,8.178028 -11.96369,14.41922 -24.00122,18.72359 -11.45082,4.01481 -24.70675,5.82776 -39.76776,5.43884 -14.08303,-0.3027 -28.25462,-1.84037 -42.51475,-4.61299 C 195.64574,103.58032 180.77938,99.966267 166.16596,95.666832 151.46811,91.16923 137.33,85.950536 123.75162,80.010758 110.11188,74.120791 97.325315,67.578245 85.391885,60.383156 72.748805,52.723975 62.795895,44.227824 55.533145,34.894719 49.114495,26.690008 45.723714,18.440989 45.360834,10.147668 M 229.23196,7.0657322 c -2.20512,0.4832109 -3.57597,1.3160059 -4.11256,2.4983759 -4.23917,9.0420779 4.30764,15.8659189 25.64046,20.4715049 16.26985,2.954779 29.83468,1.731186 40.69448,-3.670752 -10.8598,5.401938 -24.42463,6.625531 -40.69448,3.670752 -21.33282,-4.605586 -29.87963,-11.429427 -25.64046,-20.4715049 0.53659,-1.18237 1.90744,-2.015165 4.11256,-2.4983759 M 164.65449,0.31993878 c 1.66701,8.83488132 7.74247,17.14485022 18.22635,24.92993222 10.38414,7.705999 22.77942,13.872758 37.18583,18.500262 14.68253,4.616716 29.49101,6.970893 44.42538,7.062548 16.42243,0.05712 28.5637,-3.557954 36.42383,-10.845456 -7.86013,7.287502 -20.0014,10.902637 -36.42383,10.845456 C 249.55768,50.721061 234.7492,48.366849 220.06667,43.750133 205.66026,39.122629 193.26498,32.95587 182.88084,25.249871 172.39696,17.464789 166.3215,9.1548201 164.65449,0.31993878 M 107.04045,2.2434397 c 1.65108,6.8208584 5.63011,13.4855193 11.93708,19.9939823 8.5244,8.922323 19.74657,16.734822 33.66651,23.437489 13.45197,6.495793 27.76271,11.867707 42.93222,16.115791 14.60182,3.962136 29.2953,6.569686 44.08044,7.822635 14.34026,1.294047 27.679,0.760739 40.01623,-1.599957 14.53852,-2.814114 23.18334,-8.724991 25.93445,-17.732598 -2.75111,9.007607 -11.39593,14.918484 -25.93445,17.732598 -12.33723,2.360696 -25.67597,2.894004 -40.01623,1.599957 C 224.87156,68.360388 210.17808,65.752838 195.57626,61.790702 180.40675,57.542618 166.09601,52.170704 152.64404,45.674911 138.7241,38.972244 127.50193,31.159745 118.97753,22.237422 112.67056,15.728959 108.69153,9.0642981 107.04045,2.2434397 M 3.5771344,47.307321 c 5.099597,9.06214 12.1320556,17.835407 21.0973996,26.319793 9.007549,8.583469 19.752249,16.476844 32.234121,23.680127 12.53173,7.242849 25.8783,13.917539 40.03967,20.024139 12.968475,5.55476 26.542725,10.45775 40.722745,14.70894 13.9729,4.15263 28.28692,7.57497 42.94207,10.26697 15.99756,2.93579 31.88937,4.98394 47.67546,6.14444 15.20311,0.99369 30.06657,1.20957 44.59039,0.64771 13.54198,-0.61829 26.14401,-2.47382 37.80601,-5.56658 12.74347,-3.3839 22.6407,-8.56452 29.69168,-15.54189 7.36538,-7.28592 11.12154,-15.5625 11.26847,-24.82976 0.17012,-8.592656 -4.31754,-16.858044 -13.46297,-24.796173 9.14543,7.938129 13.63309,16.203517 13.46297,24.796173 -0.14693,9.26726 -3.90309,17.54384 -11.26847,24.82976 -7.05098,6.97737 -16.94821,12.15799 -29.69168,15.54189 -11.662,3.09276 -24.26403,4.94829 -37.80601,5.56658 -14.52382,0.56186 -29.38728,0.34598 -44.59039,-0.64771 -15.78609,-1.1605 -31.67791,-3.20864 -47.67546,-6.14444 -14.65515,-2.692 -28.96917,-6.11434 -42.94207,-10.26697 -14.18002,-4.25119 -27.75427,-9.15418 -40.722745,-14.70894 -14.16137,-6.1066 -27.50794,-12.78129 -40.03967,-20.024139 C 44.426783,90.103958 33.682083,82.210583 24.674534,73.627114 15.70919,65.142728 8.6767314,56.369461 3.5771344,47.307321"
     id="path4180"
     inkscape:connector-curvature="0"
     style="display:inline;fill:#cbc6b4;stroke:none;stroke-width:1.21351"
     sodipodi:nodetypes="cccccccccccccccccccccccccccccccccccccccccccccccccccccccccccccccccccccccccccccccccccccccccccccccccccccccccccc" />
  <path
     id="path845"
     style="display:inline;fill:none;stroke:#000000;stroke-width:0.606753;stroke-linecap:round;stroke-linejoin:round"
     d="M 222.20168,5.9717861 164.6545,0.31992978 C 151.03943,0.22409748 137.61817,0.54436758 124.39071,1.280718 L 107.04045,2.2434356 45.360834,10.14766 C 32.923993,12.855919 22.502957,16.981558 14.097736,22.52456 5.2132024,28.376658 1.4989564,35.685743 2.9550154,44.451848 l 0.622111,2.855465 c 1.532835,9.023821 5.961263,17.964061 13.2852016,26.820737 7.558009,9.173422 16.649995,17.955057 27.275948,26.3449 9.582529,7.52996 20.185099,14.60526 31.807709,21.22588 12.90762,7.31108 26.800635,13.79556 41.679085,19.45342 13.25595,5.028 26.94889,9.22122 41.0788,12.57964 14.44825,3.44668 28.95769,6.20364 43.52829,8.27086 16.12382,1.95316 32.09595,3.16267 47.91636,3.62855 14.70825,0.5686 28.55123,-0.25404 41.52899,-2.46792 11.68535,-1.99152 22.11818,-5.13993 31.29845,-9.44519 10.46876,-4.92444 19.93252,-10.36666 28.39132,-16.32653 8.83455,-6.31825 14.86523,-13.6942 18.09209,-22.12788 3.08882,-8.21494 -1.0114,-16.288083 -12.30073,-24.219432 l -18.62558,-12.844126 -0.0805,-0.01458 -23.82186,-17.947261 -8.29838,-9.825909 -0.88635,-1.44079 -2.64292,-8.296024 -0.71372,-2.140932 c -1.37399,-3.41861 -3.95028,-6.674671 -7.72884,-9.768182 l -2.90588,-2.401761 C 279.18704,18.347346 264.59635,13.015988 247.68226,10.37081 l -18.45027,-3.3050558 -2.26097,-0.3648986 -2.17468,-0.3949563 -1.7029,-0.2178477 -0.89172,-0.1162346 1.7029,0.2178437 3.0664,0.5111949 M 314.6307,60.238361 c 5.58681,9.546773 6.39283,18.453836 2.41807,26.721202 -3.96329,8.178011 -11.96368,14.419217 -24.00121,18.723577 -11.45083,4.01479 -24.70675,5.82774 -39.76777,5.43882 -14.08304,-0.30267 -28.2546,-1.84034 -42.51474,-4.61297 C 195.64577,103.58033 180.77941,99.966297 166.166,95.666849 151.46814,91.169254 137.33004,85.95056 123.75166,80.010783 110.11189,74.120831 97.325315,67.578286 85.391885,60.383172 72.748805,52.723991 62.795885,44.227864 55.533155,34.894752 49.114495,26.690041 45.723722,18.441013 45.360834,10.147701 M 224.79631,6.3059091 223.90459,6.1896705 223.09341,6.0880646 m 68.36093,20.2768364 c -10.85981,5.401956 -24.42463,6.625532 -40.69448,3.670745 -21.33282,-4.605578 -29.87964,-11.429427 -25.64046,-20.4714969 0.53658,-1.182367 1.90744,-2.015165 4.11256,-2.4983769 m 72.85708,31.4690638 -1.17316,1.43243 c -7.86012,7.287469 -20.00139,10.902637 -36.42383,10.845439 -14.93438,-0.09163 -29.74284,-2.445816 -44.42538,-7.06254 C 205.66026,39.122653 193.26498,32.95591 182.88084,25.249895 172.39695,17.46483 166.3215,9.1548571 164.6545,0.31997468 m 140.79142,48.65170332 0.16146,1.309145 C 302.85626,59.28843 294.21145,65.199282 279.67293,68.013413 267.3357,70.3741 253.99696,70.907425 239.6567,69.61337 224.87156,68.360412 210.17809,65.75287 195.57626,61.790727 180.40675,57.542667 166.09602,52.170721 152.64405,45.674936 138.7241,38.972269 127.50194,31.159786 118.97753,22.237455 112.67057,15.728991 108.69152,9.0643261 107.04045,2.2434796 M 338.18218,78.365069 c 9.14545,7.938129 13.63309,16.203517 13.46297,24.796191 -0.14693,9.26724 -3.90309,17.54383 -11.26846,24.82975 -7.05097,6.97735 -16.94821,12.15799 -29.69168,15.54189 -11.66201,3.09275 -24.26402,4.94826 -37.80602,5.56657 -14.52382,0.56187 -29.38727,0.34597 -44.59038,-0.64771 -15.78611,-1.1605 -31.67793,-3.20865 -47.67547,-6.14444 -14.65515,-2.692 -28.96917,-6.11432 -42.94207,-10.26696 -14.18001,-4.25119 -27.75427,-9.15418 -40.722745,-14.70895 -14.16138,-6.1066 -27.50794,-12.78132 -40.03967,-20.024129 C 44.426799,90.10399 33.682075,82.2106 24.674525,73.627146 15.709198,65.142761 8.6767314,56.369494 3.5771264,47.307354"
     sodipodi:nodetypes="cccccccccccccccccccccccccccccccccccccccccccccccccccccccccccccccccccccccccccccccc" />
</svg>
