<?xml version="1.0" encoding="UTF-8" standalone="no"?>
<svg
   xmlns:dc="http://purl.org/dc/elements/1.1/"
   xmlns:cc="http://creativecommons.org/ns#"
   xmlns:rdf="http://www.w3.org/1999/02/22-rdf-syntax-ns#"
   xmlns:svg="http://www.w3.org/2000/svg"
   xmlns="http://www.w3.org/2000/svg"
   xmlns:sodipodi="http://sodipodi.sourceforge.net/DTD/sodipodi-0.dtd"
   xmlns:inkscape="http://www.inkscape.org/namespaces/inkscape"
   version="1.1"
   viewBox="0 0 472.44094 332.59843"
   id="svg100"
   sodipodi:docname="clock.svg"
   width="125mm"
   height="88mm"
   inkscape:version="1.0.2-2 (e86c870879, 2021-01-15)">
  <metadata
     id="metadata104">
    <rdf:RDF>
      <cc:Work
         rdf:about="">
        <dc:format>image/svg+xml</dc:format>
        <dc:type
           rdf:resource="http://purl.org/dc/dcmitype/StillImage" />
        <dc:title></dc:title>
      </cc:Work>
    </rdf:RDF>
  </metadata>
  <sodipodi:namedview
     pagecolor="#ffffff"
     bordercolor="#666666"
     borderopacity="1"
     objecttolerance="10"
     gridtolerance="10"
     guidetolerance="10"
     inkscape:pageopacity="0"
     inkscape:pageshadow="2"
     inkscape:window-width="1920"
     inkscape:window-height="1017"
     id="namedview102"
     showgrid="false"
     units="mm"
     inkscape:zoom="1.5571004"
     inkscape:cx="177.63495"
     inkscape:cy="158.61563"
     inkscape:window-x="-8"
     inkscape:window-y="-8"
     inkscape:window-maximized="1"
     inkscape:current-layer="g96" />
  <defs
     id="defs28">
    <filter
       id="i"
       color-interpolation-filters="sRGB">
      <feGaussianBlur
         stdDeviation="1.04638"
         id="feGaussianBlur2" />
    </filter>
    <filter
       id="a"
       color-interpolation-filters="sRGB">
      <feGaussianBlur
         stdDeviation="2.48714"
         id="feGaussianBlur5" />
    </filter>
    <radialGradient
       id="k"
       cx="-485.70999"
       cy="332.35999"
       r="262.85999"
       gradientTransform="matrix(0.53308817,0,0,0.53196257,782.78824,407.33814)"
       gradientUnits="userSpaceOnUse">
      <stop
         stop-color="#f0f7f9"
         offset="0"
         id="stop8" />
      <stop
         stop-color="#ccc"
         offset="1"
         id="stop10" />
    </radialGradient>
    <linearGradient
       id="j"
       x1="358.16"
       x2="636.48999"
       y1="747.20001"
       y2="473.73001"
       gradientUnits="userSpaceOnUse"
       gradientTransform="matrix(0.84631947,0,0,0.84631947,109.73576,53.28885)">
      <stop
         offset="0"
         id="stop13" />
      <stop
         stop-color="#fff"
         offset="1"
         id="stop15" />
    </linearGradient>
    <radialGradient
       id="h"
       cx="-257.14001"
       cy="353"
       r="52.319"
       gradientTransform="matrix(1.6357,-0.014127,0.0086362,0.99996,160.42,-3.6194)"
       gradientUnits="userSpaceOnUse">
      <stop
         stop-color="#fff"
         offset="0"
         id="stop18" />
      <stop
         stop-color="#fff"
         stop-opacity="0"
         offset="1"
         id="stop20" />
    </radialGradient>
    <radialGradient
       id="g"
       cx="-260.01001"
       cy="219.21001"
       r="37.015999"
       gradientTransform="matrix(-0.99218,0.12477,-0.075183,-0.59784,-502.2,415.88)"
       gradientUnits="userSpaceOnUse">
      <stop
         stop-color="#fff"
         offset="0"
         id="stop23" />
      <stop
         stop-color="#fff"
         stop-opacity="0"
         offset="1"
         id="stop25" />
    </radialGradient>
  </defs>
  <g
     fill="none"
     id="g34"
     transform="matrix(0.84631947,0,0,0.84631947,68.07525,2.5688796)">
    <rect
       transform="rotate(90,75.365,-259.775)"
       x="346.70001"
       y="-573.04999"
       width="374"
       height="388"
       ry="62"
       id="rect30" />
    <rect
       transform="translate(-184.41,-335.14)"
       x="184.41"
       y="335.14001"
       width="374"
       height="382.09"
       ry="62.669998"
       opacity="0.45977"
       id="rect32" />
  </g>
  <g
     transform="matrix(0.87542125,-0.00305578,0.00305578,0.87542125,-226.53631,-346.12134)"
     id="g96">
    <path
       d="m 663.99038,584.13427 a 140.12512,139.8289 0 1 1 -280.25023,0 140.12511,139.8289 0 1 1 280.25023,0 z"
       fill="url(#k)"
       fill-rule="evenodd"
       id="path36"
       style="fill:url(#k);stroke-width:0.846319" />
    <path
       d="m 519.84525,455.87456 0.97242,17.15743 h 5.83537 l 0.97242,-17.15743 z m -7.85639,0.53149 -3.23717,0.34953 2.08195,12.71933 1.77811,-0.18196 z m 23.49383,0 -0.62289,12.8869 1.77727,0.18281 2.08195,-12.71934 -3.23633,-0.34953 z m -36.73026,1.93045 -3.19147,0.66859 3.40389,12.44682 1.74765,-0.37999 -1.96007,-12.73457 z m 49.9667,0 -1.96092,12.7498 1.74765,0.36477 3.38951,-12.43074 z m -62.94417,3.29726 -3.08483,1.00289 4.66491,12.02028 1.71719,-0.56196 z m 75.9064,0 -3.28288,12.47644 1.71719,0.54757 4.66576,-12.02027 -3.10007,-1.00289 z m -88.45731,4.63529 -2.96381,1.32196 5.8963,11.45831 1.64186,-0.72952 z m 101.00823,0 -4.55913,12.06598 1.64102,0.72953 5.8963,-11.47355 z m -111.03712,4.78679 -6.7477,3.89053 9.42207,14.37558 5.06099,-2.91811 z m 121.08293,0 -7.7506,15.348 5.06099,2.91811 9.42208,-14.37558 z m -134.37014,8.28208 -2.62952,1.89999 8.16106,9.98403 1.44382,-1.04859 z m 147.63196,0 -6.97536,10.84982 1.45905,1.04858 8.16022,-9.98403 z m -158.13479,8.28208 -2.41624,2.17335 9.14871,9.07254 1.33719,-1.18569 -8.06966,-10.05935 z m 168.64608,0.0152 -8.06965,10.04496 1.32195,1.20093 9.1631,-9.07255 -2.41624,-2.17334 z m -178.22642,9.33067 -2.18858,2.41624 10.0602,8.06966 1.20093,-1.33719 z m 187.79829,0 -9.07254,9.1631 1.20008,1.3228 10.04497,-8.06966 z m -196.35458,10.28786 -1.91522,2.62951 10.83543,6.97537 1.06383,-1.45906 z m 204.91087,0.0152 -9.98403,8.14583 1.04859,1.45905 10.84982,-6.97536 -1.91522,-2.62952 z m -211.21595,9.14871 -3.89053,6.74771 15.34801,7.73536 2.91811,-5.06099 z m 217.51257,0 -14.37558,9.42208 2.91726,5.06099 15.34801,-7.73536 z m -224.86708,13.7984 -1.32195,2.97904 12.05074,4.57436 0.72868,-1.64186 -11.45832,-5.91154 z m 232.2216,0.0152 -11.45832,5.91154 0.72953,1.62663 12.05074,-4.55912 -1.3228,-2.97905 z m -237.17257,12.41551 -1.00289,3.10007 12.46121,3.28287 0.56195,-1.70195 z m 242.12354,0.0152 -12.00504,4.68099 0.54672,1.70195 12.46121,-3.28287 z m -245.76271,12.87167 -0.6686,3.17624 12.73457,1.96092 0.38,-1.74765 -12.44682,-3.38951 z m 249.38495,0.0152 -12.44682,3.38951 0.38,1.74765 12.73457,-1.96093 -0.66859,-3.17623 z m -251.65309,13.1755 -0.3343,3.22194 12.87168,0.62289 0.19719,-1.77812 z m 253.91277,0.0152 -12.73457,2.06672 0.19719,1.77811 12.87167,-0.62289 z m -254.78448,11.07833 v 7.78106 l 17.15743,-0.97242 v -5.83622 z m 255.64772,0 -17.15743,0.97326 v 5.83538 l 17.15743,0.97242 z m -242.24202,14.99847 -12.87167,0.62374 0.33429,3.23632 12.73457,-2.06671 -0.19804,-1.79335 z m 228.84479,0.0152 -0.19804,1.79335 12.73457,2.06672 0.33429,-3.23633 -12.87167,-0.62374 z m -227.05906,11.85694 -12.73456,1.96092 0.66859,3.19062 12.44682,-3.38866 -0.38,-1.76288 z m 225.2564,0.0152 -0.38,1.76289 12.44682,3.38866 0.66859,-3.19063 -12.73457,-1.96092 z m -222.22657,11.64113 -12.46121,3.28287 1.00289,3.08483 12.00504,-4.66576 -0.54757,-1.70194 z m 219.21367,0.0152 -0.5628,1.70195 12.02027,4.66576 1.00374,-3.08484 z m -214.98207,11.24505 -12.05075,4.57435 1.32195,2.96381 11.45832,-5.8963 z m 210.75893,0.0152 -0.72952,1.64186 11.45832,5.89631 1.32195,-2.96381 z m -202.67658,6.86873 -15.34801,7.73536 3.89053,6.73247 14.37474,-9.42207 z m 194.59423,0 -2.91811,5.04576 14.37559,9.42207 3.89053,-6.73247 -15.34801,-7.73451 z m -190.81965,14.02605 -10.84981,6.97537 1.91437,2.62951 9.98403,-8.16106 z m 187.06199,0.0152 -1.06382,1.44382 9.98403,8.16106 1.91438,-2.62952 -10.83543,-6.97452 z m -179.5636,9.3916 -10.04496,8.06966 2.1725,2.41624 9.07254,-9.14871 z m 172.04829,0.0152 -1.20093,1.33803 9.07254,9.14871 2.18859,-2.41624 -10.0602,-8.06966 z m -163.61048,8.55544 -9.1631,9.08778 2.41624,2.17335 8.06881,-10.0602 -1.32195,-1.20008 z m 155.17267,0.0152 -1.33718,1.20093 8.06881,10.0602 2.41624,-2.18858 -9.14871,-9.07255 z m -145.88008,7.64396 -8.16106,9.98403 2.64474,1.89999 6.97452,-10.83543 z m 136.57903,0 -1.44382,1.06383 6.97537,10.83542 2.62866,-1.91437 -8.16021,-9.98403 z m -126.14392,1.91522 -9.42207,14.36035 6.74686,3.89053 7.73536,-15.33361 -5.06015,-2.91811 z m 115.71727,0 -5.06099,2.91727 7.75059,15.33361 6.73162,-3.88968 -9.42207,-14.36035 z m -105.45141,10.25739 -5.89631,11.45832 2.9782,1.32195 4.55912,-12.05074 z m 95.16016,0 -1.64101,0.72953 4.57351,12.06598 2.96381,-1.32195 z m -83.96082,4.40679 -4.66575,12.00504 3.10006,1.00289 3.28288,-12.46121 z m 72.76148,0 -1.71719,0.54672 3.29726,12.47644 3.08484,-1.00288 z m -39.28362,1.61055 -0.97242,17.15743 h 7.78022 l -0.97242,-17.15743 z m -21.86804,1.59615 -3.38867,12.43074 3.17539,0.68383 1.96093,-12.7498 z m 49.54015,0 -1.74765,0.36477 1.96008,12.7498 3.19147,-0.68383 z m -37.67222,1.97531 -2.08194,12.71934 3.23632,0.3343 0.62374,-12.87168 z m 25.80344,0 -1.77812,0.18281 0.62289,12.87167 3.23717,-0.33429 -2.08194,-12.71934 z"
       fill-rule="evenodd"
       id="path38"
       style="stroke-width:0.846319" />
    <g
       transform="matrix(-0.47723109,0.69892447,-0.69892447,-0.47723109,1479.5873,259.03497)"
       fill-rule="evenodd"
       id="g48">
      <g
         transform="matrix(0.5746,0,0,0.5746,564.71,371.42)"
         id="g42">
        <path
           d="m 825.74,501.88 -148.77,87.091 2.235,3.357 -27.309,12.971 11.043,16.586 22.501,-20.193 2.573,3.864 137.73,-103.68 z"
           id="path40" />
      </g>
      <g
         transform="matrix(0.5746,0,0,0.5746,686.9,306.95)"
         filter="url(#a)"
         opacity="0.66177"
         id="g46">
        <path
           d="m 615.1,616.93 -148.77,87.091 2.235,3.357 -27.309,12.971 11.043,16.586 22.501,-20.193 2.573,3.864 137.73,-103.68 z"
           id="path44" />
      </g>
    </g>
    <g
       transform="matrix(1.0628926,0,0,1.0628926,69.041337,-11.567996)"
       id="g74">
      <path
         d="m 336.17,567.46 c -2.552,0 -4.389,-0.306 -5.512,-0.918 -1.123,-0.611 -1.625,-1.584 -1.506,-2.917 v -0.297 h 3.609 v 0.297 c 0,0.738 0.289,1.299 0.867,1.682 0.578,0.383 1.426,0.574 2.542,0.574 1.874,0 3.05,-0.328 3.529,-0.984 0.425,-0.588 0.658,-1.907 0.698,-3.958 -1.609,0.69 -3.31,1.032 -5.104,1.025 -2.26,0 -3.871,-0.33 -4.835,-0.989 -0.963,-0.66 -1.445,-1.762 -1.445,-3.307 v -0.554 c 0,-1.497 0.608,-2.618 1.824,-3.363 1.216,-0.745 3.047,-1.117 5.492,-1.117 2.991,0 5.008,0.41 6.051,1.23 1.044,0.82 1.559,2.41 1.545,4.768 v 1.733 c -0.013,2.789 -0.551,4.668 -1.614,5.639 -1.051,0.971 -3.097,1.456 -6.141,1.456 z m 4.107,-10.387 c 0,-1.087 -0.266,-1.827 -0.798,-2.22 -0.531,-0.393 -1.535,-0.589 -3.01,-0.589 -1.369,0 -2.346,0.215 -2.931,0.646 -0.584,0.43 -0.877,1.151 -0.877,2.163 v 0.554 c 0,0.957 0.299,1.647 0.897,2.071 0.598,0.424 1.569,0.636 2.911,0.636 1.249,0 2.196,-0.231 2.841,-0.692 0.645,-0.462 0.967,-1.133 0.967,-2.015 z"
         id="path50" />
      <path
         transform="scale(1.3944,0.71715)"
         d="m 374.7,775.58 c 0,-1.001 -0.195,-1.713 -0.586,-2.137 -0.391,-0.425 -1.049,-0.637 -1.973,-0.637 -0.839,0 -1.475,0.26 -1.909,0.78 -0.434,0.519 -0.636,1.255 -0.608,2.208 v 0.601 h -2.616 v -0.601 c -0.105,-1.658 0.288,-2.938 1.18,-3.838 0.891,-0.901 2.213,-1.351 3.967,-1.351 1.687,0 2.969,0.383 3.846,1.15 0.877,0.768 1.315,1.89 1.315,3.367 v 0.587 c 0,1.715 -0.386,2.926 -1.158,3.631 -0.438,0.41 -1.067,0.696 -1.887,0.858 0.887,0.162 1.539,0.443 1.959,0.844 0.724,0.676 1.086,1.992 1.086,3.946 v 1.115 c 0,1.725 -0.459,3.019 -1.379,3.882 -0.92,0.862 -2.305,1.293 -4.154,1.293 -1.687,0 -2.971,-0.467 -3.853,-1.401 -0.881,-0.934 -1.294,-2.263 -1.236,-3.989 v -0.6 h 2.587 v 0.6 c -0.019,1.077 0.174,1.876 0.579,2.395 0.406,0.52 1.032,0.779 1.881,0.779 1.019,0 1.772,-0.274 2.259,-0.822 0.486,-0.548 0.729,-1.389 0.729,-2.523 v -1.115 c 0,-1.011 -0.243,-1.8 -0.729,-2.367 -0.487,-0.567 -1.163,-0.85 -2.031,-0.85 h -0.772 v -2.317 h 0.272 c 1.125,0 1.944,-0.231 2.459,-0.693 0.515,-0.462 0.772,-1.199 0.772,-2.209 z"
         id="path52" />
      <path
         d="m 432.6,459.87 c -2.525,0 -4.368,0.297 -5.551,0.898 -1.183,0.602 -1.702,1.502 -1.556,2.712 v 0.433 h 3.642 v -0.433 c -0.04,-0.773 0.201,-1.3 0.706,-1.605 0.505,-0.304 1.417,-0.465 2.759,-0.465 1.037,0 1.881,0.174 2.519,0.529 0.638,0.356 0.962,0.84 0.962,1.428 0,1.046 -0.795,2.252 -2.39,3.626 -1.595,1.374 -4.433,3.271 -8.487,5.711 v 1.765 h 14.775 v -1.572 h -11.182 c 4.027,-2.468 6.817,-4.349 8.358,-5.647 1.715,-1.456 2.567,-2.767 2.567,-3.915 0,-1.135 -0.603,-1.995 -1.813,-2.583 -1.209,-0.594 -2.984,-0.882 -5.31,-0.882 z m -12.05,0.15 c -0.851,0.437 -1.638,0.776 -2.342,1.043 -0.691,0.26 -1.568,0.547 -2.631,0.834 v 1.733 c 1.422,-0.376 2.596,-0.75 3.513,-1.091 l 0.722,-0.273 v 12.209 h 3.642 V 460.02 Z"
         id="path54" />
      <path
         d="m 428.05,641.81 c 2.552,0 4.389,0.306 5.512,0.918 1.123,0.612 1.625,1.584 1.506,2.917 v 0.297 h -3.609 v -0.297 c 0,-0.738 -0.289,-1.299 -0.867,-1.682 -0.578,-0.383 -1.426,-0.574 -2.542,-0.574 -1.701,0 -2.811,0.369 -3.329,1.107 -0.452,0.636 -0.698,1.887 -0.738,3.753 1.608,-0.629 3.363,-0.943 5.263,-0.943 2.14,0 3.668,0.33 4.586,0.989 0.917,0.66 1.375,1.762 1.375,3.307 v 0.554 c 0,1.497 -0.621,2.618 -1.864,3.363 -1.243,0.745 -3.107,1.117 -5.592,1.117 -2.578,0 -4.462,-0.376 -5.652,-1.128 -1.19,-0.751 -1.784,-1.941 -1.784,-3.568 v -1.732 c 0.013,-3.473 0.511,-5.742 1.495,-6.809 0.97,-1.059 3.05,-1.589 6.24,-1.589 z m -4.087,10.387 c 0,1.087 0.266,1.827 0.797,2.22 0.532,0.393 1.529,0.589 2.991,0.589 1.369,0 2.346,-0.215 2.931,-0.646 0.584,-0.43 0.877,-1.151 0.877,-2.163 v -0.554 c 0,-0.957 -0.299,-1.647 -0.897,-2.071 -0.598,-0.424 -1.569,-0.636 -2.911,-0.636 -1.236,0 -2.177,0.231 -2.821,0.692 -0.645,0.462 -0.967,1.133 -0.967,2.015 z"
         id="path56" />
      <path
         d="m 376.46,472.72 c -0.851,0.438 -1.638,0.792 -2.342,1.059 -0.691,0.26 -1.568,0.531 -2.631,0.818 v 1.733 c 1.422,-0.376 2.596,-0.734 3.513,-1.075 l 0.722,-0.273 v 12.209 h 3.642 V 472.72 Z m 12.241,0 c -0.851,0.438 -1.622,0.792 -2.326,1.059 -0.691,0.26 -1.568,0.531 -2.631,0.818 v 1.733 c 1.422,-0.376 2.58,-0.734 3.497,-1.075 l 0.722,-0.273 v 12.209 h 3.658 V 472.72 Z"
         id="path58" />
      <path
         d="m 355.72,506.09 c -2.525,0 -4.383,0.314 -5.599,0.947 -1.216,0.632 -1.829,1.607 -1.829,2.919 v 6.819 c 0,1.326 0.636,2.346 1.925,3.064 1.289,0.717 3.124,1.075 5.503,1.075 2.432,0 4.297,-0.355 5.567,-1.059 1.269,-0.704 1.893,-1.727 1.893,-3.08 v -6.819 c 0,-1.367 -0.579,-2.363 -1.749,-2.967 -1.169,-0.605 -3.079,-0.899 -5.711,-0.899 z m -11.872,0.144 c -0.851,0.438 -1.622,0.793 -2.326,1.059 -0.691,0.26 -1.568,0.531 -2.631,0.818 v 1.733 c 1.422,-0.376 2.596,-0.733 3.513,-1.075 l 0.706,-0.289 v 12.225 h 3.658 v -14.471 z m 11.872,1.444 c 1.342,0 2.322,0.174 2.92,0.53 0.598,0.355 0.898,0.942 0.898,1.748 v 6.819 c 0,0.82 -0.318,1.449 -0.962,1.877 -0.645,0.427 -1.607,0.625 -2.856,0.625 -1.289,0 -2.238,-0.199 -2.856,-0.609 -0.618,-0.41 -0.93,-1.039 -0.93,-1.893 v -6.819 c 0,-0.847 0.292,-1.445 0.85,-1.78 0.558,-0.335 1.527,-0.498 2.936,-0.498 z"
         id="path60" />
      <path
         transform="scale(1.3944,0.71715)"
         d="m 253.42,845.81 c 0.877,0.191 1.525,0.51 1.944,0.958 0.725,0.772 1.087,2.264 1.087,4.475 v -0.429 c 0,1.83 -0.469,3.262 -1.408,4.296 -0.939,1.035 -2.243,1.552 -3.911,1.552 -1.801,0 -3.135,-0.477 -4.003,-1.43 -0.867,-0.953 -1.301,-2.426 -1.301,-4.418 v 0.429 c 0,-2.068 0.4,-3.527 1.201,-4.375 0.496,-0.524 1.211,-0.882 2.145,-1.072 -0.763,-0.21 -1.373,-0.534 -1.83,-0.972 -0.801,-0.782 -1.201,-2.021 -1.201,-3.718 v 0.401 c 0,-1.764 0.436,-3.124 1.308,-4.082 0.872,-0.958 2.113,-1.437 3.724,-1.437 1.754,0 3.034,0.441 3.839,1.322 0.805,0.882 1.208,2.281 1.208,4.197 v -0.401 c 0,1.697 -0.367,2.941 -1.101,3.732 -0.429,0.457 -0.996,0.782 -1.701,0.972 z m -2.245,-1.13 c 0.83,0 1.442,-0.285 1.837,-0.857 0.396,-0.572 0.594,-1.454 0.594,-2.645 v 0.4 c 0,-1.201 -0.191,-2.066 -0.572,-2.595 -0.381,-0.529 -1.001,-0.793 -1.859,-0.794 -0.8,0.001 -1.403,0.284 -1.808,0.851 -0.405,0.567 -0.608,1.413 -0.608,2.538 v -0.4 c 0,1.191 0.2,2.073 0.601,2.645 0.39,0.572 0.996,0.857 1.815,0.857 z m -0.043,2.26 c -0.972,0 -1.663,0.297 -2.073,0.893 -0.41,0.596 -0.614,1.589 -0.614,2.981 v -0.429 c 0,1.544 0.188,2.598 0.564,3.16 0.377,0.562 1.084,0.843 2.123,0.843 0.973,0 1.666,-0.307 2.081,-0.922 0.414,-0.615 0.622,-1.642 0.622,-3.081 v 0.429 c 0,-1.496 -0.191,-2.516 -0.572,-3.06 -0.372,-0.543 -1.082,-0.814 -2.13,-0.814 z"
         id="path62" />
      <path
         transform="scale(1.3944,0.71715)"
         d="m 270.41,899.39 6.748,-17.972 h -7.749 v -2.202 h 10.08 v 2.202 l -5.976,17.972 z"
         id="path64" />
      <path
         transform="scale(1.3944,0.71715)"
         d="m 344.76,893.68 c 0,2.278 -0.384,3.882 -1.151,4.811 -0.767,0.929 -2.09,1.394 -3.967,1.394 -1.859,0 -3.153,-0.338 -3.882,-1.015 -0.729,-0.677 -1.137,-1.911 -1.222,-3.703 v -0.6 h 2.587 v 0.6 c 0.057,0.848 0.265,1.47 0.622,1.866 0.358,0.395 0.899,0.593 1.623,0.593 1.106,0 1.849,-0.293 2.23,-0.879 0.382,-0.586 0.572,-1.728 0.572,-3.424 v -1.344 c 0,-1.268 -0.174,-2.152 -0.522,-2.653 -0.347,-0.5 -0.965,-0.75 -1.851,-0.75 -0.848,0 -1.48,0.226 -1.894,0.679 -0.415,0.453 -0.613,1.132 -0.594,2.037 h -2.673 l 0.185,-11.881 h 9.437 v 2.274 h -7.049 l -0.1,6.419 c 0.448,-0.448 0.82,-0.781 1.115,-1.001 0.668,-0.486 1.483,-0.729 2.445,-0.729 1.525,0 2.588,0.436 3.188,1.308 0.601,0.873 0.901,2.424 0.901,4.654 z"
         id="path66" />
      <path
         transform="scale(1.3944,0.71715)"
         d="m 363.55,848.88 h -7.277 v -2.087 l 6.262,-13.139 h 3.631 v 13.025 h 2.317 v 2.201 h -2.317 v 4.947 h -2.61 v -4.947 z m 0,-2.202 v -10.523 l -4.961,10.523 z"
         id="path68" />
      <path
         transform="scale(1.3944,0.71715)"
         d="m 368.06,709.68 c 0,1.601 -0.615,3.417 -1.844,5.447 -1.106,1.811 -3.103,4.437 -5.991,7.878 h 8.021 v 2.202 h -10.594 v -2.459 c 2.907,-3.403 4.932,-6.062 6.076,-7.978 1.144,-1.916 1.716,-3.603 1.716,-5.062 0,-0.819 -0.229,-1.477 -0.686,-1.973 -0.458,-0.495 -1.058,-0.743 -1.802,-0.743 -0.963,0 -1.625,0.212 -1.987,0.636 -0.362,0.424 -0.529,1.175 -0.501,2.252 v 0.601 h -2.616 v -0.601 c -0.105,-1.687 0.267,-2.95 1.115,-3.789 0.849,-0.838 2.178,-1.258 3.989,-1.258 1.668,0 2.936,0.415 3.803,1.244 0.868,0.82 1.301,2.021 1.301,3.603 z"
         id="path70" />
      <path
         transform="scale(1.3944,0.71715)"
         d="m 339.99,678.33 v -17.028 l -0.515,0.386 c -0.657,0.477 -1.496,0.977 -2.516,1.501 v -2.416 c 0.762,-0.4 1.392,-0.782 1.887,-1.144 0.505,-0.371 1.063,-0.862 1.673,-1.472 h 2.087 v 20.174 h -2.616 z"
         id="path72" />
    </g>
    <g
       transform="matrix(0.73223605,0.4243701,-0.4243701,0.73223605,179.91868,-171.78925)"
       fill-rule="evenodd"
       id="g80"
       inkscape:transform-center-x="-0.25010469"
       inkscape:transform-center-y="-47.085842">
      <path
         d="m 731.76,452.66 61.632,117.31 1.85,-1.068 9.52,21.085 9.144,-5.279 -13.5,-18.788 2.13,-1.23 -70.779,-112.03 z"
         id="path76" />
      <path
         transform="matrix(0.5746,0,0,0.5746,564.23,242.9)"
         d="m 293.95,363.68 107.26,204.16 3.221,-1.859 16.566,36.695 15.914,-9.188 -23.496,-32.695 3.708,-2.14 -123.18,-194.97 0.007,-0.002 z"
         filter="url(#a)"
         opacity="0.66177"
         id="path78" />
    </g>
    <path
       d="m 371.01151,583.72804 c 0,84.35943 68.38684,152.74374 152.74373,152.74374 84.35944,0 152.74374,-68.38685 152.74374,-152.74374 0,-84.35943 -68.38684,-152.74374 -152.74374,-152.74374 -84.35943,0 -152.74373,68.38685 -152.74373,152.74374 z m 13.37184,0 c 0,-76.97445 62.39998,-139.37189 139.37189,-139.37189 76.97445,0 139.37189,62.39998 139.37189,139.37189 0,76.97445 -62.39998,139.37189 -139.37189,139.37189 -76.97445,0 -139.37189,-62.39998 -139.37189,-139.37189 z"
       fill="url(#j)"
       opacity="0.3102"
       id="path82"
       style="fill:url(#j);stroke-width:0.846319" />
    <g
       transform="matrix(0.53696432,-0.09700514,0.09700514,0.53696432,249.36154,320.91199)"
       fill-rule="evenodd"
       id="g92">
      <path
         transform="matrix(0.2172,0,0,0.2172,465.07,500.18)"
         d="m -204.82,291.65 a 52.32,52.32 0 1 1 -104.64,0 52.32,52.32 0 1 1 104.64,0 z"
         filter="url(#i)"
         opacity="0.8"
         id="path84" />
      <path
         transform="matrix(0.2172,0,0,0.2172,465.01,499.76)"
         d="m -204.82,291.65 a 52.32,52.32 0 1 1 -104.64,0 52.32,52.32 0 1 1 104.64,0 z"
         id="path86" />
      <path
         transform="matrix(0.18827,0,0,0.18827,457.57,508.48)"
         d="m -204.82,291.65 a 52.32,52.32 0 1 1 -104.64,0 52.32,52.32 0 1 1 104.64,0 z"
         fill="url(#h)"
         id="path88"
         style="fill:url(#h)" />
      <path
         transform="matrix(0.2172,0,0,0.2172,465.01,500.05)"
         d="m -257.16,243.62 c -17.158,0 -32.072,9.028 -40.562,22.531 11.164,-10.63 26.221,-17.188 42.812,-17.188 11.38,0 22.033,3.108 31.219,8.469 -8.652,-8.469 -20.389,-13.812 -33.469,-13.812 z"
         fill="url(#g)"
         opacity="0.8"
         id="path90"
         style="fill:url(#g)" />
    </g>
  </g>
</svg>
