<?xml version="1.0" encoding="UTF-8" standalone="no"?>
<svg
   xmlns:dc="http://purl.org/dc/elements/1.1/"
   xmlns:cc="http://creativecommons.org/ns#"
   xmlns:rdf="http://www.w3.org/1999/02/22-rdf-syntax-ns#"
   xmlns:svg="http://www.w3.org/2000/svg"
   xmlns="http://www.w3.org/2000/svg"
   xmlns:sodipodi="http://sodipodi.sourceforge.net/DTD/sodipodi-0.dtd"
   xmlns:inkscape="http://www.inkscape.org/namespaces/inkscape"
   version="1.1"
   viewBox="0 0 323.45739 280.87615"
   id="svg10"
   sodipodi:docname="clover.svg"
   width="85.581436mm"
   height="74.315147mm"
   inkscape:version="1.0.2-2 (e86c870879, 2021-01-15)">
  <metadata
     id="metadata16">
    <rdf:RDF>
      <cc:Work
         rdf:about="">
        <dc:format>image/svg+xml</dc:format>
        <dc:type
           rdf:resource="http://purl.org/dc/dcmitype/StillImage" />
        <dc:title />
      </cc:Work>
    </rdf:RDF>
  </metadata>
  <defs
     id="defs14" />
  <sodipodi:namedview
     pagecolor="#ffffff"
     bordercolor="#666666"
     borderopacity="1"
     objecttolerance="10"
     gridtolerance="10"
     guidetolerance="10"
     inkscape:pageopacity="0"
     inkscape:pageshadow="2"
     inkscape:window-width="1920"
     inkscape:window-height="1017"
     id="namedview12"
     showgrid="false"
     units="mm"
     inkscape:zoom="0.64"
     inkscape:cx="300.23864"
     inkscape:cy="379.13147"
     inkscape:window-x="-8"
     inkscape:window-y="-8"
     inkscape:window-maximized="1"
     inkscape:current-layer="svg10"
     inkscape:document-rotation="0" />
  <path
     d="m 136.57751,279.69376 c 26.54492,6.29494 35.19099,-25.78648 40.27243,-45.42972 1.43343,-22.44942 -2.95027,-44.36793 -7.81179,-66.2106 9.70786,23.58706 22.52526,47.93253 42.6994,63.93532 16.30616,11.98313 32.3848,24.72468 53.99993,18.65728 26.24156,-2.77583 45.96063,-34.43254 32.15728,-59.38477 -8.94943,-26.62076 40.19657,-44.82298 20.4775,-75.31171 -15.32021,-17.898849 -40.12075,-27.985919 -63.32858,-22.146039 -26.31739,3.40534 -48.00838,20.098289 -71.82296,30.640419 -8.191,3.36741 -35.49433,22.90446 -21.38761,4.27752 26.16571,-12.21066 51.72467,-31.778059 61.81172,-59.384769 9.85954,-21.61514 9.40449,-55.97184 -16.2303,-65.6796972 -19.03652,-5.741285 -42.85109,-3.95898404 -60.29489,5.566847 C 131.95111,19.614281 113.59721,6.1977218 96.760145,6.8196318 72.338824,-0.52951724 55.956814,31.089271 61.948383,51.263401 c 6.067412,19.87077 21.766833,36.4803 38.072997,49.070169 15.62358,14.56178 34.3567,24.49716 53.77241,32.99154 -33.59827,-1.95675 -66.81735,-16.83706 -100.870674,-8.72191 -21.690988,6.79551 -48.0842206,19.5674 -51.724665,44.36793 -5.0966224,25.25558 14.334256,45.73309 36.70782,54.15162 14.940999,9.10113 7.212636,38.37636 24.042112,43.00277 23.056153,9.10111 54.606687,10.1629 67.727447,-15.47189 15.69943,-28.13761 27.60672,-60.06735 24.87639,-92.52799 0.19718,-9.40448 9.10111,20.40166 9.78369,27.68256 3.89073,27.30333 4.5809,60.74993 -12.74155,82.66844 -5.14971,3.79213 -10.3146,7.58426 -15.4719,11.37639 z"
     fill="#0b9139"
     stroke="#000000"
     id="path4"
     style="stroke-width:0.75843" />
  <path
     d="M 41.774253,224.32865 155.53817,140.14336"
     fill="none"
     stroke="#10652d"
     id="path6"
     style="stroke-width:0.75843" />
  <path
     d="m 298.12228,177.30623 -142.58411,-35.72186 1.08455,-18.42976 -6.49971,-54.151619 -9.78369,-55.36511"
     fill="none"
     stroke="#10652d"
     id="path8"
     style="stroke-width:0.75843" />
</svg>
