<?xml version="1.0" encoding="UTF-8" standalone="no"?>
<svg
   xmlns:dc="http://purl.org/dc/elements/1.1/"
   xmlns:cc="http://creativecommons.org/ns#"
   xmlns:rdf="http://www.w3.org/1999/02/22-rdf-syntax-ns#"
   xmlns:svg="http://www.w3.org/2000/svg"
   xmlns="http://www.w3.org/2000/svg"
   xmlns:xlink="http://www.w3.org/1999/xlink"
   xmlns:sodipodi="http://sodipodi.sourceforge.net/DTD/sodipodi-0.dtd"
   xmlns:inkscape="http://www.inkscape.org/namespaces/inkscape"
   viewBox="0 0 332.59843 472.44094"
   version="1.1"
   id="svg637"
   sodipodi:docname="cola.svg"
   width="88mm"
   height="125mm"
   inkscape:version="1.0.2-2 (e86c870879, 2021-01-15)">
  <metadata
     id="metadata641">
    <rdf:RDF>
      <cc:Work
         rdf:about="">
        <dc:format>image/svg+xml</dc:format>
        <dc:type
           rdf:resource="http://purl.org/dc/dcmitype/StillImage" />
        <dc:title></dc:title>
      </cc:Work>
    </rdf:RDF>
  </metadata>
  <sodipodi:namedview
     pagecolor="#ffffff"
     bordercolor="#666666"
     borderopacity="1"
     objecttolerance="10"
     gridtolerance="10"
     guidetolerance="10"
     inkscape:pageopacity="0"
     inkscape:pageshadow="2"
     inkscape:window-width="1920"
     inkscape:window-height="1017"
     id="namedview639"
     showgrid="false"
     units="mm"
     inkscape:zoom="0.75130096"
     inkscape:cx="263.53906"
     inkscape:cy="341.52279"
     inkscape:window-x="-8"
     inkscape:window-y="-8"
     inkscape:window-maximized="1"
     inkscape:current-layer="svg637" />
  <defs
     id="defs153">
    <filter
       id="ae">
      <feGaussianBlur
         stdDeviation="1.975"
         id="feGaussianBlur2" />
    </filter>
    <filter
       id="ad">
      <feGaussianBlur
         stdDeviation="1.044"
         id="feGaussianBlur5" />
    </filter>
    <filter
       id="ac">
      <feGaussianBlur
         stdDeviation="1.937"
         id="feGaussianBlur8" />
    </filter>
    <filter
       id="ab">
      <feGaussianBlur
         stdDeviation=".738"
         id="feGaussianBlur11" />
    </filter>
    <filter
       id="aa">
      <feGaussianBlur
         stdDeviation="2.116"
         id="feGaussianBlur14" />
    </filter>
    <filter
       id="z">
      <feGaussianBlur
         stdDeviation="1.367"
         id="feGaussianBlur17" />
    </filter>
    <filter
       id="y">
      <feGaussianBlur
         stdDeviation="3.066"
         id="feGaussianBlur20" />
    </filter>
    <filter
       id="x">
      <feGaussianBlur
         stdDeviation=".603"
         id="feGaussianBlur23" />
    </filter>
    <filter
       id="af">
      <feGaussianBlur
         stdDeviation="2.184"
         id="feGaussianBlur26" />
    </filter>
    <filter
       id="ah">
      <feGaussianBlur
         stdDeviation="2.003"
         id="feGaussianBlur29" />
    </filter>
    <filter
       id="ai">
      <feGaussianBlur
         stdDeviation="2.795"
         id="feGaussianBlur32" />
    </filter>
    <filter
       id="ag">
      <feGaussianBlur
         stdDeviation="2.619"
         id="feGaussianBlur35" />
    </filter>
    <filter
       id="f">
      <feGaussianBlur
         stdDeviation="2.188"
         id="feGaussianBlur38" />
    </filter>
    <filter
       id="aq">
      <feGaussianBlur
         stdDeviation="1.615"
         id="feGaussianBlur41" />
    </filter>
    <filter
       id="a">
      <feGaussianBlur
         stdDeviation="3.082"
         id="feGaussianBlur44" />
    </filter>
    <filter
       id="ap">
      <feGaussianBlur
         stdDeviation="1.87"
         id="feGaussianBlur47" />
    </filter>
    <filter
       id="ao">
      <feGaussianBlur
         stdDeviation="1.976"
         id="feGaussianBlur50" />
    </filter>
    <filter
       id="an">
      <feGaussianBlur
         stdDeviation="1.708"
         id="feGaussianBlur53" />
    </filter>
    <filter
       id="al">
      <feGaussianBlur
         stdDeviation="2.214"
         id="feGaussianBlur56" />
    </filter>
    <filter
       id="am">
      <feGaussianBlur
         stdDeviation="1.815"
         id="feGaussianBlur59" />
    </filter>
    <filter
       id="ak">
      <feGaussianBlur
         stdDeviation="1.985"
         id="feGaussianBlur62" />
    </filter>
    <filter
       id="aj">
      <feGaussianBlur
         stdDeviation="2.129"
         id="feGaussianBlur65" />
    </filter>
    <filter
       id="w">
      <feGaussianBlur
         stdDeviation="1.9"
         id="feGaussianBlur68" />
    </filter>
    <filter
       id="v">
      <feGaussianBlur
         stdDeviation="4.955"
         id="feGaussianBlur71" />
    </filter>
    <linearGradient
       id="c">
      <stop
         offset="0"
         id="stop74" />
      <stop
         stop-opacity="0"
         offset="1"
         id="stop76" />
    </linearGradient>
    <linearGradient
       id="d">
      <stop
         stop-color="#f9a429"
         offset="0"
         id="stop79" />
      <stop
         stop-color="#f9a429"
         stop-opacity="0"
         offset="1"
         id="stop81" />
    </linearGradient>
    <linearGradient
       id="e">
      <stop
         stop-color="#fdedc0"
         offset="0"
         id="stop84" />
      <stop
         stop-color="#efbb61"
         offset="1"
         id="stop86" />
    </linearGradient>
    <linearGradient
       id="u"
       x1="245.23"
       x2="282.76001"
       y1="104.37"
       y2="184.39999"
       gradientTransform="matrix(23.05,0,0,-23.05,-3856,5277.2)"
       gradientUnits="userSpaceOnUse">
      <stop
         stop-color="#ccc"
         offset="0"
         id="stop89" />
      <stop
         stop-color="#808080"
         offset="1"
         id="stop91" />
    </linearGradient>
    <linearGradient
       id="t"
       x1="306.70001"
       x2="3462.3999"
       gradientUnits="userSpaceOnUse">
      <stop
         stop-color="#ccc"
         offset="0"
         id="stop94" />
      <stop
         stop-color="#fff"
         stop-opacity=".984"
         offset=".5"
         id="stop96" />
      <stop
         stop-color="#ccc"
         stop-opacity=".99"
         offset="1"
         id="stop98" />
    </linearGradient>
    <linearGradient
       id="s"
       x1="202.17"
       x2="212.59"
       y1="125.07"
       y2="118.13"
       gradientTransform="matrix(23.05,0,0,-23.05,-3856,5277.2)"
       gradientUnits="userSpaceOnUse">
      <stop
         stop-color="#ccc"
         offset="0"
         id="stop101" />
      <stop
         stop-color="#999"
         offset="1"
         id="stop103" />
    </linearGradient>
    <linearGradient
       id="r"
       x1="195.52"
       x2="216.2"
       y1="198.67999"
       y2="173.8"
       gradientTransform="matrix(23.05,0,0,-23.05,-3832.9,5254.1)"
       gradientUnits="userSpaceOnUse">
      <stop
         stop-color="#800000"
         offset="0"
         id="stop106" />
      <stop
         stop-color="#a00"
         offset="1"
         id="stop108" />
    </linearGradient>
    <linearGradient
       id="q"
       x1="1711.1"
       x2="2427.8"
       gradientUnits="userSpaceOnUse">
      <stop
         stop-color="#800000"
         offset="0"
         id="stop111" />
      <stop
         stop-color="#800000"
         stop-opacity="0"
         offset=".5"
         id="stop113" />
      <stop
         stop-color="#800000"
         stop-opacity=".995"
         offset="1"
         id="stop115" />
    </linearGradient>
    <linearGradient
       id="b"
       x1="326.26999"
       x2="487.60999"
       gradientUnits="userSpaceOnUse">
      <stop
         stop-color="#afdde9"
         stop-opacity="0"
         offset="0"
         id="stop118" />
      <stop
         stop-color="#afdde9"
         stop-opacity=".196"
         offset=".5"
         id="stop120" />
      <stop
         stop-color="#afdde9"
         stop-opacity="0"
         offset="1"
         id="stop122" />
    </linearGradient>
    <linearGradient
       id="p"
       x1="357.79001"
       x2="332.63"
       y1="-278.51999"
       y2="-429.45001"
       gradientUnits="userSpaceOnUse"
       xlink:href="#e" />
    <linearGradient
       id="o"
       x1="356.04999"
       x2="330.89999"
       y1="-390.17999"
       y2="-541.12"
       gradientUnits="userSpaceOnUse"
       xlink:href="#e" />
    <linearGradient
       id="n"
       x1="235.99001"
       x2="160.69"
       y1="125.96"
       y2="74.082001"
       gradientUnits="userSpaceOnUse"
       xlink:href="#c" />
    <radialGradient
       id="l"
       cx="281.95999"
       cy="536.66998"
       r="211.59"
       gradientTransform="matrix(1,0,0,0.12178,0,471.31)"
       gradientUnits="userSpaceOnUse">
      <stop
         offset="0"
         id="stop128" />
      <stop
         stop-opacity=".953"
         offset=".044"
         id="stop130" />
      <stop
         stop-opacity="0"
         offset="1"
         id="stop132" />
    </radialGradient>
    <radialGradient
       id="j"
       cx="381.31"
       cy="-307.39999"
       r="200.16"
       gradientTransform="matrix(1.2769,-0.27164,0.10392,0.48849,-78.736,-81.917)"
       gradientUnits="userSpaceOnUse">
      <stop
         stop-color="#fea"
         offset="0"
         id="stop135" />
      <stop
         stop-color="#ffe680"
         offset="1"
         id="stop137" />
    </radialGradient>
    <radialGradient
       id="i"
       cx="389.85999"
       cy="-444.47"
       r="187.07001"
       gradientTransform="matrix(1,0,0,0.38581,8.3012,-23.192)"
       gradientUnits="userSpaceOnUse">
      <stop
         stop-color="#37c837"
         offset="0"
         id="stop140" />
      <stop
         stop-color="#008000"
         offset="1"
         id="stop142" />
    </radialGradient>
    <radialGradient
       id="g"
       cx="215.92999"
       cy="114.1"
       r="11.74"
       gradientTransform="matrix(1,0,0,0.28571,0,81.502)"
       gradientUnits="userSpaceOnUse">
      <stop
         stop-color="#eda65c"
         offset="0"
         id="stop145" />
      <stop
         stop-color="#eda65c"
         stop-opacity="0"
         offset="1"
         id="stop147" />
    </radialGradient>
    <radialGradient
       id="m"
       cx="485.51999"
       cy="710.28003"
       r="118.24"
       gradientTransform="matrix(1,0,0,0.26153,0,524.52)"
       gradientUnits="userSpaceOnUse"
       xlink:href="#c" />
    <radialGradient
       id="k"
       cx="387.84"
       cy="-330.29001"
       r="167.37"
       gradientTransform="matrix(1.1902,-0.26021,0.1444,0.66047,-19.312,-1.9309)"
       gradientUnits="userSpaceOnUse"
       xlink:href="#d" />
    <radialGradient
       id="h"
       cx="387.84"
       cy="-330.29001"
       r="167.37"
       gradientTransform="matrix(1.1902,-0.26021,0.1444,0.66047,-24.343,-112.62)"
       gradientUnits="userSpaceOnUse"
       xlink:href="#d" />
    <linearGradient
       inkscape:collect="always"
       xlink:href="#b"
       id="linearGradient1466"
       gradientUnits="userSpaceOnUse"
       x1="326.26999"
       x2="487.60999" />
    <linearGradient
       inkscape:collect="always"
       xlink:href="#b"
       id="linearGradient1468"
       gradientUnits="userSpaceOnUse"
       x1="326.26999"
       x2="487.60999" />
  </defs>
  <path
     transform="matrix(0.65550313,0,0,0.88345916,-145.29829,-193.74488)"
     d="m 598.72,710.28 c 0,13.43 -50.683,24.318 -113.2,24.318 -62.517,0 -113.2,-10.888 -113.2,-24.318 0,-13.43 50.683,-24.318 113.2,-24.318 62.517,0 113.2,10.888 113.2,24.318 z"
     fill="url(#m)"
     filter="url(#w)"
     opacity="0.5"
     id="path157"
     style="fill:url(#m)" />
  <g
     transform="matrix(0.72827584,0,0,0.72827584,-121.59135,725.17347)"
     id="g551">
    <path
       d="m 444.08,-954.96 c -3.9083,0.205 -37.658,0.0988 -75.156,0.3005 0,0 -4.3082,7.0587 -3.5938,10.568 1.6083,4.8787 3.7064,6.7919 6.9688,10.25 l 1.4688,54.031 c -0.2264,0.6017 -0.395,1.6432 -0.6563,3.5313 -2.7849,20.124 -10.055,44.87 -22,74.875 -10.421,26.177 -13.205,35.562 -11.875,40 0.5347,1.7848 0.4481,2.1791 -0.8438,4.75 -6.2987,12.535 -12.125,52.044 -12.125,82.125 0,13.11 0.5299,18.796 2.125,22.469 0.9278,2.1362 0.9854,2.5425 0.4063,3.7188 -2.6334,5.3486 -1.6418,19.206 3.7188,51.438 4.9046,29.49 5.997,37.867 7.9688,61.594 3.6944,44.456 3.1284,51.964 -6.9688,93.688 -4.7105,19.465 -5.5128,24.067 -5.1875,29.844 0.4112,7.3017 2.3913,11.086 7.7188,14.875 3.5943,2.5559 7.2653,4.1625 13.938,6.0625 8.3801,2.3864 15.527,3.5719 27.719,4.5938 9.2662,0.7766 43.783,0.961 53.75,0.2813 16.733,-1.1411 29.457,-3.506 38.594,-7.125 7.1004,-2.8124 11.178,-6.0146 13.719,-10.75 1.271,-2.369 1.4477,-3.1873 1.625,-7.9375 0.2438,-6.5293 -0.6777,-12.028 -4.7813,-28.719 -8.3503,-33.963 -9.426,-41.689 -8.9688,-63.938 0.2679,-13.039 0.6318,-18.874 2.75,-42.219 1.2739,-14.039 4.4054,-35.912 8.2188,-57.656 1.9091,-10.886 3.4242,-23.876 3.6875,-31.594 0.2456,-7.199 0.1696,-8.2222 -0.7188,-10.719 -0.9585,-2.6937 -0.9713,-2.8133 -0.125,-5.0625 1.811,-4.8129 2.1963,-8.9887 2.1563,-23.781 -0.0423,-15.615 -0.7009,-24.648 -3.125,-42.219 -2.5962,-18.818 -5.7469,-32.559 -8.8125,-38.594 -0.7976,-1.5702 -0.9972,-2.9857 -1.0625,-7.5 -0.1038,-7.175 -0.9003,-9.7771 -10.719,-34.719 -12.011,-30.512 -16.296,-44.518 -21.531,-70.25 -1.8984,-9.3318 -2.8152,-15.169 -3.25,-20.719 -0.6975,-8.9037 -0.8386,-30.878 -0.25,-38.438 0.3661,-4.7016 0.7884,-4.2879 1.4063,-5.3125 0.8711,-2.5199 1.1802,-2.2702 3.6875,-5.7499 3.5981,-2.4887 4.7182,-8.4162 2.5938,-13.656 z"
       fill="#afdde9"
       opacity="0.5"
       id="path469" />
    <path
       d="m 434.3,-880.12 -54.656,1.125 a 5.9015,5.9015 0 0 1 -0.3438,1.3125 c 0.224,-0.5954 -0.0893,0.4114 -0.3438,2.25 -2.886,20.855 -10.322,45.974 -22.375,76.25 -5.1876,13.031 -8.4343,21.855 -10.156,27.656 -1.7217,5.801 -1.5431,8.4293 -1.5313,8.4688 0.3268,1.0908 0.7445,2.9421 0.4063,4.8125 -0.3382,1.8704 -0.9485,2.935 -1.625,4.2813 -2.3603,4.6973 -5.6722,17.762 -7.875,32.688 -2.2028,14.926 -3.625,32.122 -3.625,46.781 0,12.951 0.7262,18.056 1.625,20.125 0.5006,1.1526 1.0136,2.0813 1.2188,3.9063 0.2052,1.825 -0.4948,3.8508 -0.9375,4.75 -0.295,0.5992 -1.0939,4.8251 -0.5313,12.625 0.5626,7.7999 2.1138,19.211 4.7813,35.25 4.911,29.529 6.0541,38.271 8.0313,62.062 3.7031,44.56 3.0296,53.731 -7.0938,95.562 -4.6965,19.407 -5.316,23.068 -5.0313,28.125 0.3578,6.3542 0.8412,7.2932 5.2188,10.406 2.9995,2.133 5.7784,3.3714 12.156,5.1875 8.0253,2.2853 14.589,3.4001 26.594,4.4063 8.1283,0.6812 43.871,0.8931 52.844,0.2813 16.383,-1.1173 28.601,-3.4976 36.812,-6.75 6.3937,-2.5325 8.8978,-4.6372 10.719,-8.0313 0.5555,-1.0355 0.5374,-1.0429 0.625,-1.4688 0.0876,-0.4259 0.1948,-1.5915 0.2813,-3.9063 0.2185,-5.8518 -0.5131,-10.496 -4.5938,-27.094 -8.3718,-34.051 -9.6179,-43.002 -9.1563,-65.469 0.2695,-13.112 0.6605,-19.253 2.7813,-42.625 1.3027,-14.357 4.4466,-36.291 8.2813,-58.156 1.8629,-10.622 3.3491,-23.578 3.5938,-30.75 0.1218,-3.5693 0.1604,-5.5467 0.0937,-6.5312 -0.0667,-0.9845 -0.0921,-0.9728 -0.4688,-2.0313 -0.4857,-1.365 -1.0091,-2.4925 -1.0625,-4.5 -0.0534,-2.0075 0.53,-3.459 0.9688,-4.625 1.512,-4.0182 1.821,-6.9692 1.7813,-21.656 -0.0419,-15.455 -0.656,-23.994 -3.0625,-41.438 -2.561,-18.564 -6.0518,-32.453 -8.2188,-36.719 -1.2662,-2.4925 -1.6512,-5.4234 -1.7188,-10.094 -0.0489,-3.3795 -0.1182,-4.7867 -1.4375,-9.0625 -1.3193,-4.2758 -3.9715,-11.137 -8.875,-23.594 -12.062,-30.64 -16.536,-45.28 -21.812,-71.219 -1.0123,-4.9762 -1.7343,-9.0109 -2.2813,-12.594 z"
       fill="#280b0b"
       id="path471" />
    <path
       d="m 444.08,-959.99 c -3.9083,0.205 -37.658,0.0988 -75.156,0.3005 0,0 -4.3082,7.0587 -3.5938,10.568 1.6083,4.8787 3.7064,6.7919 6.9688,10.25 l 1.4688,54.031 c -0.2264,0.6017 -0.395,1.6432 -0.6563,3.5313 -2.7849,20.124 -10.055,44.87 -22,74.875 -10.421,26.177 -13.205,35.562 -11.875,40 0.5347,1.7848 0.4481,2.1791 -0.8438,4.75 -6.2987,12.535 -12.125,52.044 -12.125,82.125 0,13.11 0.5299,18.796 2.125,22.469 0.9278,2.1362 0.9854,2.5425 0.4063,3.7188 -2.6334,5.3486 -1.6418,19.206 3.7188,51.438 4.9046,29.49 5.997,37.867 7.9688,61.594 3.6944,44.456 3.1284,51.964 -6.9688,93.688 -4.7105,19.465 -5.5128,24.067 -5.1875,29.844 0.4112,7.3017 2.3913,11.086 7.7188,14.875 3.5943,2.5559 7.2653,4.1625 13.938,6.0625 8.3801,2.3864 15.527,3.5719 27.719,4.5938 9.2662,0.7766 43.783,0.961 53.75,0.2813 16.733,-1.1411 29.457,-3.506 38.594,-7.125 7.1004,-2.8124 11.178,-6.0146 13.719,-10.75 1.271,-2.369 1.4477,-3.1873 1.625,-7.9375 0.2438,-6.5293 -0.6777,-12.028 -4.7813,-28.719 -8.3503,-33.963 -9.426,-41.689 -8.9688,-63.938 0.2679,-13.039 0.6318,-18.874 2.75,-42.219 1.2739,-14.039 4.4054,-35.912 8.2188,-57.656 1.9091,-10.886 3.4242,-23.876 3.6875,-31.594 0.2456,-7.199 0.1696,-8.2222 -0.7188,-10.719 -0.9585,-2.6937 -0.9713,-2.8133 -0.125,-5.0625 1.811,-4.813 2.1963,-8.9887 2.1563,-23.781 -0.0423,-15.615 -0.7009,-24.648 -3.125,-42.219 -2.5962,-18.818 -5.7469,-32.559 -8.8125,-38.594 -0.7976,-1.5702 -0.9972,-2.9857 -1.0625,-7.5 -0.1038,-7.175 -0.9003,-9.7771 -10.719,-34.719 -12.011,-30.512 -16.296,-44.518 -21.531,-70.25 -1.8984,-9.3318 -2.8152,-15.169 -3.25,-20.719 -0.6975,-8.9037 -0.8386,-30.878 -0.25,-38.438 0.3661,-4.7016 0.7884,-4.2879 1.4063,-5.3125 0.8711,-2.5199 1.1802,-2.2702 3.6875,-5.7499 3.5981,-2.4887 4.7182,-8.4162 2.5938,-13.656 z"
       fill="url(#b)"
       id="path473"
       style="fill:url(#linearGradient1466)" />
    <path
       d="m 378.5979,-382.109 c -19.3646,-1.2828 -33.423,-4.2522 -41.3727,-8.7387 -4.8957,-2.763 -8.6332,-7.3899 -9.4761,-11.7313 -0.1524,-0.7851 -0.409,-2.0788 -0.5701,-2.875 l -0.293,-1.4475 1.3385,1.6887 c 6.4267,8.1082 16.4106,12.383 34.4512,14.7511 12.4261,1.6312 64.3059,1.7615 81.2006,0.204 19.3759,-1.7862 34.9786,-7.4771 41.8249,-15.2552 0.9058,-1.0291 1.4641,-1.4369 1.2407,-0.9061 -0.2234,0.5308 -0.4214,1.3449 -0.4399,1.8093 -0.0185,0.4644 -0.2171,0.8444 -0.4412,0.8444 -0.2241,0 -0.2825,0.2024 -0.1296,0.4499 0.1529,0.2475 -0.2373,1.6152 -0.8671,3.0393 -4.224,9.5511 -24.5224,16.0161 -57.1703,18.2086 -8.5419,0.5736 -40.4158,0.5468 -49.296,-0.0415 z"
       fill="#aaeeff"
       id="path475" />
    <path
       d="m 444.08,-959.99 c -3.9083,0.205 -37.658,0.0988 -75.156,0.3005 0,0 -4.3082,7.0587 -3.5938,10.568 1.6083,4.8787 3.7064,6.7919 6.9688,10.25 l 1.4688,54.031 c -0.2264,0.6017 -0.395,1.6432 -0.6563,3.5313 -2.7849,20.124 -10.055,44.87 -22,74.875 -10.421,26.177 -13.205,35.562 -11.875,40 0.5347,1.7848 0.4481,2.1791 -0.8438,4.75 -6.2987,12.535 -12.125,52.044 -12.125,82.125 0,13.11 0.5299,18.796 2.125,22.469 0.9278,2.1362 0.9854,2.5425 0.4063,3.7188 -2.6334,5.3486 -1.6418,19.206 3.7188,51.438 4.9046,29.49 5.997,37.867 7.9688,61.594 3.6944,44.456 3.1284,51.964 -6.9688,93.688 -4.7105,19.465 -5.5128,24.067 -5.1875,29.844 0.4112,7.3017 2.3913,11.086 7.7188,14.875 3.5943,2.5559 7.2653,4.1625 13.938,6.0625 8.3801,2.3864 15.527,3.5719 27.719,4.5938 9.2662,0.7766 43.783,0.961 53.75,0.2813 16.733,-1.1411 29.457,-3.506 38.594,-7.125 7.1004,-2.8124 11.178,-6.0146 13.719,-10.75 1.271,-2.369 1.4477,-3.1873 1.625,-7.9375 0.2438,-6.5293 -0.6777,-12.028 -4.7813,-28.719 -8.3503,-33.963 -9.426,-41.689 -8.9688,-63.938 0.2679,-13.039 0.6318,-18.874 2.75,-42.219 1.2739,-14.039 4.4054,-35.912 8.2188,-57.656 1.9091,-10.886 3.4242,-23.876 3.6875,-31.594 0.2456,-7.199 0.1696,-8.2222 -0.7188,-10.719 -0.9585,-2.6937 -0.9713,-2.8133 -0.125,-5.0625 1.811,-4.813 2.1963,-8.9887 2.1563,-23.781 -0.0423,-15.615 -0.7009,-24.648 -3.125,-42.219 -2.5962,-18.818 -5.7469,-32.559 -8.8125,-38.594 -0.7976,-1.5702 -0.9972,-2.9857 -1.0625,-7.5 -0.1038,-7.175 -0.9003,-9.7771 -10.719,-34.719 -12.011,-30.512 -16.296,-44.518 -21.531,-70.25 -1.8984,-9.3318 -2.8152,-15.169 -3.25,-20.719 -0.6975,-8.9037 -0.8386,-30.878 -0.25,-38.438 0.3661,-4.7016 0.7884,-4.2879 1.4063,-5.3125 0.8711,-2.5199 1.1802,-2.2702 3.6875,-5.7499 3.5981,-2.4887 4.7182,-8.4162 2.5938,-13.656 z"
       fill="url(#b)"
       id="path477"
       style="fill:url(#linearGradient1468)" />
    <path
       d="m 433.3941,-896.1633 c -0.1628,-7.7913 -0.0639,-19.3984 0.2208,-25.913 0.2837,-6.4901 0.398,-11.9181 0.254,-12.0622 -0.4691,-0.4692 -21.2406,-1.115 -24.8837,-0.7736 l -3.5451,0.3322 0.4098,5.1559 c 0.4276,5.3792 0.0871,39.2981 -0.4428,44.1078 l -0.3047,2.7653 11.2769,0.139 c 6.2023,0.0764 12.6342,0.1891 14.2933,0.2503 l 3.0164,0.1112 -0.2949,-14.1128 z"
       fill="#ffffff"
       opacity="0.5"
       id="path479" />
    <g
       transform="translate(507.53,-148.86)"
       fill="#ffffff"
       opacity="0.5"
       id="g485">
      <path
         d="m -138.227,-785.5399 c -0.4644,-0.291 -0.8443,-0.762 -0.8443,-1.0467 0,-0.3331 0.2564,-0.3048 0.719,0.0791 1.2613,1.0468 6.5704,1.1154 19.6181,0.2534 13.7997,-0.9117 24.9744,-0.8428 41.7448,0.2573 7.2697,0.4769 10.3213,0.5035 12.0613,0.1053 2.1213,-0.4854 2.2432,-0.4677 1.3653,0.1984 -1.0533,0.7992 -5.4437,0.7457 -25.9895,-0.3169 -7.1839,-0.3715 -13.0584,-0.3725 -20.5058,-0.003 -18.0938,0.8968 -27.2477,1.0506 -28.169,0.4733 z"
         id="path481" />
      <path
         d="m -136.9002,-787.5123 c -1.7555,-1.0291 -4.1011,-3.5096 -4.1011,-4.337 0,-0.648 0.6646,-0.8873 3.2568,-1.1729 5.6035,-0.6173 18.2025,-0.3259 31.2411,0.7224 19.788,1.591 37.3341,1.27 40.5804,-0.7425 1.4789,-0.9168 3.0562,-4.6255 3.411,-8.0204 l 0.3086,-2.9525 0.9579,2.3628 c 2.1244,5.24 0.9984,11.1454 -2.5997,13.6341 -1.8139,1.2546 -2.3856,1.2563 -21.4288,0.064 -9.1378,-0.5721 -26.5536,-0.5777 -34.7391,-0.0107 -14.1724,0.9808 -15.9073,1.0273 -16.8871,0.453 z"
         id="path483" />
    </g>
    <path
       d="m 397.6859,-886.7539 -1.0938,0.062 c -0.0118,0.2195 -0.0182,0.4242 -0.0625,0.5937 -0.1046,0.4003 -0.1658,0.076 -0.1875,-0.5937 l -1.0625,0.031 -0.1875,1.6562 h -3.1563 c -4.5707,0 -16.4529,0.9721 -17.625,1.4375 -0.8377,0.3326 -1.1018,1.0707 -1.5938,4.625 -2.7824,20.1028 -10.0033,44.6941 -21.9063,74.5937 -10.3703,26.0495 -13.1671,35.3955 -11.8438,39.8125 0.5322,1.7762 0.4731,2.1603 -0.8125,4.7188 -6.2681,12.4741 -12.0625,51.7835 -12.0625,81.7188 0,13.0467 0.5376,18.689 2.125,22.3438 0.9233,2.1258 0.9513,2.5795 0.375,3.75 -2.6206,5.3227 -1.6158,19.112 3.7188,51.1875 4.8807,29.347 5.9753,37.6698 7.9375,61.2813 3.6765,44.2399 3.1106,51.6977 -6.9375,93.2188 -4.6909,19.384 -5.4833,23.9402 -5.1563,29.6875 0.4214,7.4043 2.4726,11.2709 8.1563,15.3125 3.5541,2.5274 7.2457,4.1435 13.875,6.0313 8.3394,2.3748 15.4295,3.5456 27.5625,4.5625 9.2212,0.7729 43.5811,0.9264 53.5,0.25 20.4022,-1.3914 34.8988,-4.5801 44.0625,-9.7188 3.3799,-1.8953 6.7251,-5.2473 8.4688,-8.5 1.2647,-2.3591 1.4486,-3.211 1.625,-7.9375 0.2426,-6.4976 -0.6664,-11.9531 -4.75,-28.5625 -8.3097,-33.7986 -9.3924,-41.4848 -8.9375,-63.625 0.2667,-12.9756 0.6421,-18.769 2.75,-42 1.2678,-13.971 4.3614,-35.7366 8.1563,-57.375 1.8998,-10.8331 3.4255,-23.7888 3.6875,-31.4688 0.2444,-7.1641 0.1653,-8.1718 -0.7188,-10.6563 -0.9539,-2.6806 -0.9672,-2.8242 -0.125,-5.0625 1.8023,-4.7896 2.1961,-8.9355 2.1563,-23.6563 -0.0421,-15.5389 -0.7126,-24.5143 -3.125,-42 -2.5836,-18.7272 -5.6993,-32.4007 -8.75,-38.4063 -0.7937,-1.5626 -0.9975,-2.9451 -1.0625,-7.4375 -0.1033,-7.1402 -0.9167,-9.7732 -10.6875,-34.5938 -8.2459,-20.9469 -13.4909,-36.3113 -16.6875,-48.7813 -2.8194,-10.998 -5.7188,-25.338 -7.0938,-34.5938 l -1.2813,-0.094 0.125,1.4375 -1.625,-0.2812 c -4.487,-0.771 -13.0624,-1.2929 -25.8125,-1.5626 l -14.0938,-0.2812 0.1563,-1.125 z m 6.9688,2.3438 c 6.8037,-0.075 13.3836,0.01 18.1875,0.3124 8.6077,0.5421 16.0295,1.3108 16.375,1.6563 0.0854,0.085 1.2422,5.4657 2.5625,11.9687 4.9669,24.4634 9.4675,38.9896 21.2813,69 8.6826,22.0563 10.4139,27.4078 10.7813,33.1875 l 0.25,4.125 -3.7188,0.3125 c -2.0547,0.1737 -4.7269,0.3125 -5.9063,0.3125 -2.0136,0 -2.0989,-0.048 -1.75,-1.0625 0.6472,-1.882 0.6643,-11.0105 0.0312,-12.2188 -0.4768,-0.9101 -0.5292,-0.2291 -0.375,3.9375 0.2169,5.8597 -0.4425,8.9153 -2.2188,10.3125 -1.7055,1.3416 -1.9742,1.1983 -1.5,-0.8438 1.7449,-7.514 -2.5344,-32.4117 -9.4375,-55.0938 -4.3578,-14.3186 -5.0465,-16.7509 -6.875,-23.5312 -2.1753,-8.0662 -4.4743,-19.2305 -5.4063,-26.2813 -0.4193,-3.1724 -0.8318,-4.6875 -1.25,-4.6875 -0.3998,0 -0.5938,0.6617 -0.5938,1.9062 0,1.0563 0.1457,1.9356 0.3438,1.9376 0.1981,0.002 0.3948,1.3515 0.4375,3 0.0724,2.7923 1.6581,12.3538 3.25,19.5624 0.3791,1.7165 1.042,4.7382 1.4688,6.7188 0.4268,1.9806 1.0971,4.7976 1.4688,6.25 0.6933,2.7096 6.9059,30.3455 9.3438,41.5625 2.2999,10.5817 2.9872,16.0086 2.8125,22.25 -0.0882,3.1493 -0.3449,5.9082 -0.5625,6.125 -0.5263,0.5245 -16.1199,1.3466 -17.75,0.9375 -2.0462,-0.5136 -2.7761,-2.4545 -2.25,-6.0938 1.7367,-12.0139 -1.4852,-38.9349 -7.75,-64.7501 -2.9881,-12.3128 -5.1309,-23.0965 -6.0625,-30.5 -0.7402,-5.8822 -0.8794,-6.4743 -1.1563,-4.5937 -0.1749,1.1884 -0.2306,-0.052 -0.0937,-2.75 0.2013,-3.972 0.1177,-5.0386 -0.4688,-5.625 -0.6455,-0.6455 -0.7444,-0.6345 -1,0.031 -0.1577,0.4109 -0.2601,2.8217 -0.2188,5.375 0.0652,4.0133 0.1316,4.3254 0.4375,2.25 0.2049,-1.3906 0.2604,0.038 0.125,3.375 -0.266,6.5588 0.3948,17.8221 1.7813,29.75 0.931,8.0092 1.3548,10.9921 3.3125,23.5312 2.7466,17.5922 3.5511,26.0814 3.5938,38.25 0.0228,6.513 -0.1316,12.0369 -0.3438,12.25 -0.2122,0.2131 -7.2233,0.367 -15.5938,0.375 -16.8775,0.016 -17.9542,-0.1235 -19.125,-2.8125 -0.4987,-1.1454 -0.6466,-1.2753 -0.6875,-0.5313 -0.0336,0.6126 -0.3154,0.2877 -0.7813,-0.9375 -1.5287,-4.0201 0.4238,-29.0593 4.1563,-53.3438 2.9112,-18.9412 3.4275,-24.7367 3.625,-41.0312 0.0995,-8.2165 0.004,-13.9957 -0.2188,-13.1876 l -0.4063,1.4376 -0.0625,-1.4063 c -0.1144,-2.8197 -0.5392,-0.7672 -1.25,5.9687 -1.2933,12.2552 -2.6931,19.5905 -7.6875,40.0938 -3.4645,14.2228 -3.9028,16.2149 -5.2813,25.4375 -2.5362,16.9683 -2.882,32.8756 -0.8438,38.0625 l 1,2.5313 -3.1875,-0.0937 c -6.761,-0.1474 -16.7167,-0.8635 -18.4063,-1.3438 -1.6896,-0.4803 -1.7831,-0.638 -2.0938,-3.125 -1.0155,-8.1275 3.4969,-32.8436 9.6875,-53 3.0815,-10.0336 6.7787,-24.026 7.0625,-26.6876 0.0607,-0.5688 0.2717,-1.306 0.4688,-1.625 0.1971,-0.319 0.1547,-0.5624 -0.125,-0.5624 -0.2797,0 -0.5605,0.2046 -0.5938,0.4687 -0.116,0.9277 -0.1719,1.2116 -0.4688,1.6875 -0.1647,0.2641 -0.5881,1.7905 -0.9063,3.375 -0.6238,3.1067 -4.829,18.2696 -7.125,25.6875 -5.7402,18.5455 -10.0535,43.8112 -8.8438,51.7188 0.4492,2.9358 0.2385,3.6124 -0.7188,2.4063 -3.5791,-4.5093 -1.1897,-25.8732 5.75,-51.5 0.7866,-2.9049 3.3279,-11.1198 5.6563,-18.25 3.797,-11.6275 9.125,-31.087 9.125,-33.3437 0,-0.4778 0.2989,-1.1097 0.6563,-1.4063 0.4555,-0.3781 0.5727,-1.2672 0.4063,-3 -0.1881,-1.957 -0.0925,-2.4021 0.4063,-2.0937 0.4605,0.2844 0.5478,0.1756 0.3125,-0.4375 -0.1769,-0.4611 -0.3438,-1.3615 -0.3438,-2 0,-0.712 -0.2771,-1.1563 -0.7188,-1.1563 -0.4336,0 -0.7188,0.422 -0.7188,1.0938 0,1.6324 -3.5898,15.9266 -5.8125,23.1562 -2.3882,7.7679 -5.1809,15.8518 -9.1875,26.4063 -5.3009,13.9636 -7.7503,22.4318 -9.7813,34.125 -1.5743,9.0641 -2.0643,21.6692 -1,25.5938 l 0.7188,2.5625 -2.25,-0.2813 c -1.2235,-0.1525 -4.0914,-0.4156 -6.4063,-0.5938 -3.9882,-0.3069 -4.2417,-0.3776 -4.5313,-1.5313 -0.9552,-3.806 2.4429,-14.836 12.0625,-39 11.8334,-29.7251 18.9471,-53.8768 21.875,-74.2813 0.5606,-3.9067 0.6031,-3.9564 2.0938,-4.1875 5.6073,-0.8694 17.598,-1.4694 28.9375,-1.5937 z m -25.5,5.6562 c -0.3961,0 -0.75,0.3225 -0.75,0.7188 0,0.3963 0.3539,0.7187 0.75,0.7187 0.3961,0 0.7188,-0.3227 0.7188,-0.7187 0,-0.396 -0.3226,-0.7188 -0.7188,-0.7188 z m 17.75,0 c -0.4791,0 -0.6933,0.4342 -0.6563,1.3125 0.0433,1.0256 0.119,1.0896 0.3125,0.3437 0.2491,-0.9602 0.2433,-0.9603 0.625,0 0.3323,0.836 0.377,0.8057 0.4063,-0.3437 0.0222,-0.8686 -0.2137,-1.3125 -0.6875,-1.3125 z m -18.3438,4 c 0.0505,-0.051 0.1109,0.027 0.1875,0.2188 0.1387,0.3466 0.1283,0.7466 -0.0312,0.9062 -0.1595,0.1596 -0.2707,-0.1189 -0.25,-0.625 0.0115,-0.2797 0.0433,-0.4495 0.0937,-0.5 z m -0.5,2.9062 c 0.0505,-0.05 0.1421,0 0.2188,0.1876 0.1387,0.3466 0.0971,0.7779 -0.0625,0.9374 -0.1596,0.1595 -0.2707,-0.1501 -0.25,-0.6562 0.0115,-0.2797 0.0433,-0.4184 0.0937,-0.4688 z m 57.6875,0.1876 c 0.0373,-0.02 0.1106,0.043 0.1563,0.2187 0.1218,0.4672 0.1003,1.1124 -0.0312,1.4375 -0.1315,0.3251 -0.2288,-0.052 -0.2188,-0.8438 0.006,-0.4952 0.0316,-0.7789 0.0937,-0.8124 z m 0.5,3.8437 c 0.0373,-0.02 0.0793,0.044 0.125,0.2187 0.1217,0.4672 0.1003,1.1124 -0.0312,1.4376 -0.1315,0.3252 -0.2288,-0.052 -0.2188,-0.8438 0.006,-0.4951 0.0629,-0.779 0.125,-0.8125 z m -57.375,2.3437 c -0.1872,-0.047 -0.2742,0.2119 -0.3125,0.7188 -0.0582,0.7729 0.0532,0.8842 0.4688,0.4688 0.3634,-0.3634 0.375,-0.7188 0.0625,-1.0313 -0.0781,-0.078 -0.1564,-0.1406 -0.2188,-0.1563 z m 57.8438,1 c 0.0373,-0.02 0.0793,0.075 0.125,0.25 0.1218,0.4672 0.1316,1.1124 0,1.4376 -0.1316,0.3252 -0.2288,-0.052 -0.2188,-0.8438 0.006,-0.4952 0.0316,-0.8102 0.0937,-0.8438 z m -18.7813,2.2188 c 0.0505,-0.051 0.1109,0 0.1875,0.1875 0.1387,0.3466 0.1283,0.778 -0.0312,0.9375 -0.1595,0.1595 -0.2707,-0.1189 -0.25,-0.625 0.0115,-0.2797 0.0433,-0.4495 0.0937,-0.5 z m -39.3438,0.4688 c -0.0433,0 -0.1195,0.02 -0.1875,0.062 -0.2611,0.1613 -0.4688,0.5015 -0.4688,0.75 0,0.6906 0.3371,0.5506 0.6563,-0.2812 0.123,-0.3204 0.1298,-0.5281 0,-0.5312 z m 58.5313,0.5 c 0.0505,-0.05 0.1109,0 0.1875,0.1874 0.1387,0.3467 0.1283,0.778 -0.0312,0.9376 -0.1595,0.1596 -0.2707,-0.1501 -0.25,-0.6563 0.0115,-0.2797 0.0433,-0.4184 0.0937,-0.4687 z m -17.6563,1.9374 c 0.029,0.011 0.0605,0.0741 0.0937,0.1563 0.1332,0.3301 0.1332,0.8574 0,1.1875 -0.1332,0.3301 -0.25,0.0659 -0.25,-0.5938 0,-0.4952 0.0694,-0.7824 0.1563,-0.75 z m -41.375,0.4376 c -0.0433,0 -0.0882,0.0205 -0.1563,0.0624 -0.2611,0.1613 -0.4688,0.5015 -0.4688,0.75 0,0.6906 0.3371,0.5506 0.6563,-0.2812 0.123,-0.3204 0.0984,-0.5281 -0.0312,-0.5312 z m 59.5313,0.5 c 0.0505,-0.05 0.1109,0 0.1875,0.1874 0.1387,0.3467 0.1283,0.778 -0.0312,0.9376 -0.1595,0.1596 -0.2707,-0.1189 -0.25,-0.625 0.0115,-0.2798 0.0433,-0.4496 0.0937,-0.5 z m -41.2188,0.0937 c 0.0816,-0.1344 0.0949,2.015 0,5.25 -0.2669,9.101 -1.3003,18.643 -3.5938,33.5625 -2.9012,18.8735 -4.4027,34.3148 -4.4688,45.6563 -0.0353,6.061 0.15,10.2698 0.5,11.4063 0.305,0.9903 0.5133,1.7853 0.4688,1.7813 -0.4666,-0.0422 -1.283,-0.982 -1.875,-2.1563 -1.1745,-2.3297 -1.8125,-7.2985 -1.8125,-14.1875 0.003,-11.6083 1.4161,-23.4305 5.7813,-48.5 1.5845,-9.1 3.2971,-19.7575 3.8125,-23.7188 0.5154,-3.9613 1.0352,-7.9819 1.1563,-8.9062 0.0151,-0.1155 0.0196,-0.1683 0.0312,-0.1875 z m -18.6875,1.25 c -0.2205,0.042 -0.7642,1.4585 -1.1875,3.5 -0.3286,1.5845 -0.7058,3.3746 -0.8438,3.9687 -0.1443,0.6214 -0.0249,1.0938 0.2813,1.0938 0.2927,0 0.5313,-0.6624 0.5313,-1.4375 0,-0.7751 0.1792,-1.8886 0.4063,-2.5 0.2271,-0.6114 0.5604,-1.975 0.75,-3.0313 0.2049,-1.1418 0.1948,-1.6186 0.0625,-1.5937 z m 42.0625,1.25 c 0.1614,0.1738 0.8419,2.8965 1.625,6.5937 0.895,4.2252 2.6073,11.7638 3.8125,16.7813 6.7814,28.2321 9.7143,57.6072 6.75,67.3125 -0.4154,1.3602 -1.2022,2.9733 -1.75,3.5938 -0.8626,0.9769 -0.9365,0.9878 -0.625,0.1563 0.6493,-1.7333 0.7907,-18.9154 0.2188,-26.0938 -0.9957,-12.4967 -2.7245,-24.7345 -6,-42.2188 -1.9184,-10.2401 -4.0932,-24.1683 -4.0625,-26.0313 10e-4,-0.0829 0.008,-0.1183 0.0312,-0.0937 z m -25.2813,2.25 c 0.029,0.011 0.0605,0.043 0.0937,0.125 0.1332,0.3301 0.1332,0.8574 0,1.1875 -0.1332,0.3301 -0.25,0.066 -0.25,-0.5938 0,-0.4951 0.0694,-0.751 0.1563,-0.7187 z m 24.4688,2.7187 c 0.0992,0.1358 0.4066,1.8171 1,5.4376 0.6493,3.9611 1.9315,11.4441 2.875,16.5937 3.4087,18.6037 5.046,29.9791 6.0313,42.3438 0.6585,8.2635 0.3394,22.3794 -0.5625,24.9063 l -0.625,1.7188 -7.9063,0.3125 c -8.7139,0.3437 -16.8958,0.3022 -23.0313,-0.125 -3.4448,-0.2399 -4.1493,-0.4313 -4.9375,-1.4063 -1.4102,-1.7442 -1.0736,-2.0451 0.9063,-0.875 1.7622,1.0421 2.1171,1.048 17.5,1.0313 12.0278,-0.0131 15.8792,-0.1595 16.3438,-0.625 0.4593,-0.4602 0.5908,-3.5654 0.5625,-12.7188 -0.0388,-12.4566 -0.8099,-20.6691 -3.5938,-38.5 -1.9687,-12.6098 -2.3644,-15.5328 -3.2813,-23.5312 -0.5146,-4.4895 -1.0755,-9.9741 -1.2188,-12.2188 -0.1019,-1.5956 -0.1397,-2.4493 -0.0625,-2.3438 z m -24.75,0.1563 c 0.3038,-0.088 -1.3011,10.7868 -3.3438,21.875 -3.2092,17.4201 -4.3591,25.1498 -5.4688,36.6875 -0.9287,9.6554 -0.9903,25.8778 -0.0937,29.6875 h 0.0312 l 0.625,2.75 -3.875,-0.0625 c -2.144,-0.0405 -7.6911,-0.2897 -12.3125,-0.5313 -7.3938,-0.3865 -8.53,-0.5356 -9.375,-1.375 -0.9595,-0.9531 -0.9467,-0.9713 0.3125,-0.5 1.4428,0.5401 22.3535,1.8027 22.7813,1.375 0.155,-0.155 -0.1867,-1.5258 -0.7813,-3.0625 -0.907,-2.3441 -1.1247,-4.0267 -1.3125,-10.375 -0.2488,-8.412 0.3438,-16.47 2.0625,-27.9688 1.3974,-9.3486 1.7045,-10.7767 5.9375,-28.3125 1.8486,-7.6583 3.6724,-15.4327 4.0625,-17.2812 0.4165,-1.9742 0.6649,-2.8816 0.75,-2.9063 z m -23.6875,8.5313 c 0.1013,0.1011 -1.222,4.4 -2.9375,9.5312 -5.7767,17.2782 -9.4784,32.2783 -11.75,47.4375 -1.0761,7.1818 -1.5123,18.9504 -0.8125,22.25 0.4425,2.0862 1.1958,1.99 -7.1875,1.1563 -2.9528,-0.2937 -5.5338,-0.7147 -5.75,-0.9375 -0.2162,-0.2228 0.5616,-0.3042 1.75,-0.1563 4.9514,0.6166 9.5167,0.8463 9.75,0.4688 0.1373,-0.2222 -0.0328,-1.5914 -0.4063,-3.0313 -1.7474,-6.7363 -0.1896,-22.6211 3.6875,-37.4688 1.9814,-7.5879 3.3129,-11.6055 7.625,-23.0313 2.0432,-5.4137 4.1912,-11.3256 4.7813,-13.125 0.5901,-1.7994 1.1487,-3.195 1.25,-3.0937 z m 71.875,5.3437 c 0.0505,-0.051 0.1109,0.027 0.1875,0.2187 0.1387,0.3466 0.1283,0.7468 -0.0312,0.9063 -0.1595,0.1595 -0.2707,-0.1189 -0.25,-0.625 0.0115,-0.2797 0.0433,-0.4495 0.0937,-0.5 z m 1.4688,5.2813 c 0.3535,-0.3536 5.5245,17.4296 8.25,28.3438 5.4781,21.9375 7.3619,37.9115 4.875,41.3125 -0.4617,0.6314 -1.8645,0.9087 -6.5625,1.25 -8.6878,0.6311 -15.9935,0.569 -16.6875,-0.125 -0.3169,-0.3169 -0.5938,-1.0922 -0.5938,-1.7188 v -1.125 l 1.3125,1.0313 c 1.282,1.0193 1.5514,1.0457 9.4375,0.7188 4.4671,-0.1852 8.66,-0.5138 9.2813,-0.75 1.6575,-0.6302 2.0625,-2.292 2.0625,-8.2813 -0.003,-7.6566 -0.7378,-11.8264 -6.6875,-38.2813 -3.4758,-15.4547 -4.8762,-22.1864 -4.6875,-22.375 z m -57.7812,68.25 0.75,1.3125 c 1.3421,2.4028 3.9433,2.9372 3.3438,0.6875 -0.2239,-0.8404 -0.1431,-0.7948 0.4375,0.2188 1.406,2.4545 2.5022,2.5768 20.2188,2.5313 17.81,-0.0459 18.1429,-0.1083 20.3438,-2.9063 0.6175,-0.785 1,-0.9944 1,-0.5625 0,0.3857 0.5138,1.1758 1.125,1.75 1.0065,0.9455 1.686,1.0514 7.0938,1.125 l 5.9688,0.0937 -4.0938,0.3438 c -2.2447,0.2025 -15.6529,0.4975 -29.7813,0.625 -24.1698,0.2182 -35.8706,-0.0676 -46.5625,-1.0938 -3.5455,-0.3403 -2.7507,-0.3684 3.5938,-0.125 4.4894,0.1722 10.21,0.3125 12.7188,0.3125 4.9756,0 4.8455,0.1256 4.1563,-2.9688 l -0.3125,-1.3438 z m 83.2188,0.5313 c 4.2085,-0.0545 3.258,0.5106 -2.5,0.9063 -2.5273,0.1736 -5.0343,0.4226 -5.5625,0.5625 -0.8529,0.2259 -0.8897,0.168 -0.25,-0.4688 0.5206,-0.5182 2.2402,-0.7641 6.1875,-0.9375 0.8131,-0.0357 1.5238,-0.0547 2.125,-0.0625 z m -112.75,0.3438 c 0.1299,0.0281 0.3439,0.2173 0.6563,0.5 0.4829,0.437 1.1872,0.7722 1.5625,0.7813 0.3753,0.009 1.0812,0.331 1.5938,0.7188 0.8581,0.649 0.7322,0.7188 -1.5625,0.7188 -2.4766,0 -2.4688,0.005 -2.4688,-1.5 0,-0.8982 0.002,-1.2657 0.2188,-1.2188 z m -16.3438,0.4375 c 0.0517,-0.0614 0.7252,0.1205 1.5,0.375 0.7748,0.2545 2.6968,0.58 4.2813,0.75 1.9269,0.2067 2.5869,0.4316 1.9688,0.6563 -0.8929,0.3244 8.1265,1.2941 23.7188,2.5313 10.4457,0.8282 59.5509,0.8 70.5938,-0.0312 13.2365,-0.9965 22.1638,-1.9525 22.75,-2.4375 0.2965,-0.2453 2.2624,-0.6451 4.375,-0.9063 3.5377,-0.4374 3.9074,-0.4214 4.6563,0.4375 3.7482,4.2989 9.1498,31.2958 11.75,58.75 1.1255,11.8829 1.1641,36.3766 0.0625,41.5625 -0.8314,3.9138 -2.1839,7.5676 -2.25,6.0625 -0.0328,-0.7459 -0.3359,-0.8504 -1.8438,-0.6563 -0.9903,0.1275 -5.1567,0.6642 -9.25,1.2188 -9.88,1.3385 -20.2761,2.3041 -34.5625,3.1875 -14.4724,0.8949 -45.733,0.878 -59.3125,-0.0312 -12.1959,-0.8166 -32.3408,-2.838 -40.5625,-4.0625 -3.488,-0.5195 -6.9096,-0.9375 -7.625,-0.9375 -1.0349,0 -1.4073,-0.321 -1.8438,-1.5625 -1.1031,-3.138 -1.5938,-9.3334 -1.5938,-21 0,-24.6753 3.718,-54.8112 8.9688,-72.9688 1.3644,-4.7185 3.3615,-9.9183 4.2188,-10.9375 z m 132.9063,0.8438 c -0.2075,0 -0.375,0.4287 -0.375,0.9375 0,0.5088 0.1675,0.8157 0.375,0.6875 0.2075,-0.1282 0.375,-0.557 0.375,-0.9375 0,-0.3805 -0.1675,-0.6875 -0.375,-0.6875 z m -120.6563,0.5313 c 0.1668,0.007 0.2952,0.0452 0.375,0.125 0.1596,0.1596 -0.1189,0.2709 -0.625,0.25 -0.5594,-0.0231 -0.6643,-0.128 -0.2813,-0.2813 0.1733,-0.0693 0.3645,-0.1007 0.5313,-0.0937 z m 105.6563,0.0312 c 1.0892,-0.0209 1.1214,0.0318 0.25,0.4063 -0.5282,0.227 -1.732,0.3877 -2.6563,0.375 l -1.6875,-0.0312 1.4688,-0.3438 c 0.7922,-0.2016 1.9648,-0.3936 2.625,-0.4063 z m -8.6563,0.9375 c 0.5657,0 1.1334,0.009 1.5625,0.0625 0.8583,0.1065 0.154,0.1875 -1.5625,0.1875 -1.7165,0 -2.3895,-0.081 -1.5313,-0.1875 0.4291,-0.0533 0.9656,-0.0625 1.5313,-0.0625 z m 18.5,1.875 -3.125,0.2188 c -1.7165,0.1193 -4.8561,0.4392 -6.9688,0.6875 -10.5459,1.2393 -25.0626,1.5716 -57.375,1.3438 -26.2504,-0.1851 -35.0491,-0.4031 -41.2813,-1.0313 -11.0521,-1.114 -13.1873,-1.2662 -12.6875,-0.8125 0.7515,0.6823 10.9817,1.7505 25.4063,2.625 6.4037,0.3882 65.8084,0.2619 72.75,-0.1563 10.7376,-0.6468 17.5074,-1.3726 20.6563,-2.1875 z m -137.4688,103.4375 c 0.105,-0.105 3.4299,0.222 7.375,0.75 10.825,1.4487 29.3536,3.2477 41.9688,4.0625 21.699,1.4016 53.6607,0.7899 77.5625,-1.4688 9.1939,-0.8688 22.6688,-2.5036 23.9375,-2.9063 0.6306,-0.2001 0.8372,-0.0743 0.6875,0.375 -0.5766,1.7297 -23.2422,4.3754 -48.625,5.6875 -8.1136,0.4194 -39.83,0.5251 -46.0938,0.1563 l -11.5313,-0.6563 c -17.5213,-1.0104 -42.3513,-3.883 -44.3438,-5.125 -0.6171,-0.3847 -1.0425,-0.77 -0.9375,-0.875 z m 152.9375,1.4688 c 0.2214,0.0468 0.4889,0.5094 0.9375,1.4688 0.7658,1.6379 0.8827,3.0699 0.8438,10.5313 -0.0451,8.7112 -1.2088,19.2457 -3.5625,32.6563 -3.7856,21.5693 -6.8883,43.4012 -8.1563,57.375 -2.1079,23.231 -2.4833,29.0244 -2.75,42 -0.455,22.1402 0.6278,29.8264 8.9375,63.625 4.0837,16.6094 4.9926,22.0649 4.75,28.5625 -0.1766,4.7309 -0.3592,5.5577 -1.625,7.9063 -0.7778,1.4429 -2.2218,3.4326 -3.2188,4.4063 -2.5075,2.449 -13.1541,7.5717 -14.2813,6.875 -0.2177,-0.1345 -0.5418,-0.005 -0.7188,0.2813 -0.177,0.2863 -0.6164,0.4164 -0.9688,0.2813 -0.3524,-0.1351 -0.6982,-0.0832 -0.7813,0.125 -0.0831,0.2082 -1.0062,0.5219 -2.0625,0.6875 -1.305,0.2046 -1.7081,0.1558 -1.2188,-0.1563 0.3961,-0.2526 1.1003,-0.4638 1.5625,-0.4688 0.4621,-0.004 0.8438,-0.1862 0.8438,-0.4063 0,-0.7134 -1.6002,-0.4912 -5.0313,0.7188 -6.238,2.1998 -16.9845,4.0543 -28.5625,4.9375 -7.4276,0.5665 -37.883,0.5751 -44.6563,0 -12.5512,-1.0657 -19.8707,-2.4382 -27.5,-5.0938 -2.6289,-0.9151 -4.8943,-1.5432 -5.0313,-1.4063 -0.137,0.1369 -0.7218,0.0168 -1.2813,-0.2813 -0.9165,-0.4882 -0.9375,-0.4697 -0.3438,0.25 0.3625,0.4393 0.9487,0.7813 1.3125,0.7813 0.3638,0 0.6563,0.2376 0.6563,0.5 0,0.2624 -0.4683,0.3608 -1.0625,0.25 -0.5942,-0.1108 -1.0938,-0.2102 -1.0938,-0.25 0,-0.0398 -0.3518,-0.1351 -0.7813,-0.2188 -1.8198,-0.3545 -3.0902,-0.9346 -3.6875,-1.6563 -0.3808,-0.4601 -0.4929,-0.5009 -0.2813,-0.0937 0.2737,0.5264 0.1471,0.5828 -0.5625,0.2813 -0.5055,-0.2147 -1.8464,-0.7042 -2.9688,-1.0938 -1.1224,-0.3896 -2.0313,-0.8922 -2.0313,-1.125 0,-0.2328 -0.3226,-0.4375 -0.7188,-0.4375 -0.3962,0 -0.7188,-0.2047 -0.7188,-0.4688 0,-0.2641 -0.309,-0.4688 -0.6875,-0.4688 -0.3785,0 -1.7644,-1.0482 -3.0625,-2.3125 -3.0731,-2.9933 -4.4173,-6.4964 -4.75,-12.3438 -0.3271,-5.7473 0.4653,-10.3035 5.1563,-29.6875 10.0481,-41.521 10.5827,-48.9789 6.9063,-93.2188 -1.9709,-23.7167 -2.9145,-30.9898 -8.125,-62.6563 -1.4557,-8.8467 -3.0903,-19.7606 -3.6563,-24.25 -1.2284,-9.7435 -1.4619,-20.5955 -0.5,-23.9063 0.3644,-1.2544 0.7272,-2.2813 0.8125,-2.2813 0.0853,0 0.6747,0.2114 1.2813,0.4688 2.0492,0.8693 27.7934,3.7185 44.7813,4.9375 5.4143,0.3885 18.0131,0.5938 33.7188,0.5938 13.7886,0 24.7025,0.1404 24.25,0.3125 -0.4525,0.1721 -10.7281,0.3428 -22.8438,0.375 -21.1205,0.0562 -22.0973,0.1214 -23.375,1.0313 -1.5984,1.1382 -1.9063,1.165 -1.9063,0.2188 0,-0.9299 -0.9599,-0.9161 -2.3125,0.0312 -0.9726,0.6813 -1.0777,0.662 -1.3438,-0.0312 -0.545,-1.4201 -2.1718,-1.7486 -11.1563,-2.4063 -4.9295,-0.3608 -11.8812,-0.9227 -15.4688,-1.25 -6.4121,-0.585 -6.5513,-0.5941 -8,0.4375 -1.8326,1.3049 -2.0245,1.3199 -1.6875,0.0312 0.2372,-0.9069 0.1177,-0.9914 -0.9688,-0.7188 -0.7155,0.1796 -1.3081,0.0758 -1.4063,-0.2188 -0.0932,-0.2796 -1.6454,-0.6038 -3.4375,-0.7188 -2.0914,-0.1341 -3.1272,-0.0256 -2.9375,0.2813 0.1625,0.263 0.9698,0.4648 1.8125,0.4688 2.5498,0.0109 3.7976,0.5149 3.1875,1.25 -0.3619,0.4361 -1.2929,0.5604 -3,0.4063 -2.5734,-0.2324 -2.1138,0.3434 0.7813,0.9688 1.1392,0.2461 1.3173,0.4952 1.0625,1.375 -2.3382,8.0746 -1.0444,28.8756 3.375,55.0625 0.8918,5.2844 4.1517,26.8477 5.9375,39.125 0.7682,5.2816 1.7423,13.4098 2.1563,18.0313 0.414,4.6215 0.8531,9.3938 0.9688,10.625 0.2778,2.9569 -0.5275,26.2646 -1.1875,34.2188 -0.652,7.8573 -3.0244,25.706 -4.3438,32.6875 -0.549,2.9049 -1.4411,7.5397 -1.9688,10.3125 -0.5277,2.7728 -1.8242,8.7024 -2.875,13.1563 -1.0508,4.4539 -1.7705,8.402 -1.625,8.7813 0.1455,0.3793 0.0766,0.5815 -0.1563,0.4375 -0.5789,-0.3578 -1.1335,1.9792 -0.75,3.1875 0.1997,0.629 0.1383,0.8577 -0.1875,0.6563 -0.619,-0.3825 -1.3019,2.7513 -0.7813,3.5938 0.2455,0.3972 0.1733,0.4803 -0.25,0.2188 -0.4696,-0.2902 -0.5871,-0.071 -0.4063,0.875 0.1321,0.6915 0.0697,1.1396 -0.1563,1 -0.226,-0.1396 -0.4063,0.172 -0.4063,0.6875 0,1.2939 1.3147,1.7059 1.6875,0.5313 0.1614,-0.5123 0.1646,-1.171 0,-1.4375 -0.1646,-0.2665 -0.0579,-0.4688 0.25,-0.4688 0.3079,0 0.4389,-0.3391 0.2813,-0.75 -0.1576,-0.4109 -0.1119,-0.6271 0.0937,-0.5 1.0283,0.6355 11.7085,-34.7678 15.1563,-50.2188 4.76,-21.3316 6.1977,-33.0162 6.2188,-50.8125 0.0205,-17.1938 -1.3661,-31.3262 -5.6875,-58.3438 -2.0793,-12.9997 -5.019,-32.9829 -5.7813,-39.3438 -1.5061,-12.5676 -1.4284,-28.3822 0.1563,-30.7813 0.2326,-0.3522 3.214,-0.2701 9.7188,0.3125 5.1496,0.4612 11.3975,1.0294 13.9063,1.25 l 4.5625,0.4063 -0.0312,3.3438 c -0.0162,1.8486 -0.329,6.1503 -0.6875,9.5625 -1.0921,10.3954 -0.2396,25.1364 4.2813,74 3.0963,33.4667 3.3516,42.7989 1.9375,75.8438 -0.8078,18.877 -2.6604,39.6471 -5.3125,59.6875 -0.2885,2.1806 -0.4066,4.2795 -0.25,4.6875 0.1804,0.4701 0.0889,0.6157 -0.25,0.4063 -0.368,-0.2275 -0.4528,0.236 -0.3125,1.4375 0.1121,0.9604 0.0519,1.7188 -0.125,1.7188 -0.1769,0 -0.471,1.3495 -0.6563,3 -0.1853,1.6505 -0.6496,4.5218 -1.0313,6.3438 -0.3817,1.822 -0.5742,3.3946 -0.4375,3.5313 0.1367,0.1367 0.2625,-0.1501 0.2813,-0.6563 0.0328,-0.8954 0.0286,-0.8824 0.375,0 0.2376,0.6053 1.5171,-3.7105 3.8125,-12.9688 6.9974,-28.223 10.6874,-47.738 13.625,-71.75 0.9782,-7.9966 1.0884,-10.9106 1.0625,-29.2813 -0.0306,-21.798 -0.0475,-21.9586 -4,-66.25 -2.0633,-23.1213 -2.4425,-29.5319 -2.4375,-41.2188 0.003,-10.3464 0.8612,-19.3612 1.9375,-20.4375 0.3171,-0.3171 7.3112,-0.477 19.9375,-0.4375 16.9213,0.053 19.6084,0.1464 20.625,0.8125 2.1319,1.3968 2.3909,3.6508 2.375,19.5 -0.0159,15.8924 -0.0653,16.6471 -4.0625,55.4688 -3.8324,37.2214 -3.9945,39.8658 -3.6875,62.6563 0.3387,25.148 1.6003,43.1052 4.6875,67.4688 2.1614,17.0567 4.1475,30.0558 4.2813,27.8438 0.0902,-1.4919 0.2677,-1.014 0.75,2.1563 0.3415,2.2447 0.687,5.0616 0.75,6.25 l 0.0937,2.1563 0.3438,-2.6563 0.3125,-2.625 0.0625,2.5938 c 0.0431,1.4304 0.2051,2.4823 0.3438,2.3438 0.233,-0.2331 -0.847,-29.5064 -1.4375,-38.8125 -0.5252,-8.2757 -1.2204,-25.1673 -1.6875,-41.2813 -0.7682,-26.5042 0.1429,-42.6021 4.5625,-80.4063 4.1996,-35.9226 5.5,-51.0817 5.5,-63.4063 0,-9.504 -0.7816,-15.7311 -2.4063,-19.0938 -0.5225,-1.0816 -0.9375,-1.989 -0.9375,-2.0313 0,-0.0423 2.3174,-0.2348 5.1563,-0.4063 2.8389,-0.1715 8.9821,-0.736 13.6563,-1.2813 6.4161,-0.7485 8.7493,-0.8705 9.5,-0.4688 0.5468,0.2926 1.1729,0.4374 1.375,0.3125 0.576,-0.356 0.6925,1.3348 0.6875,8.5625 -0.006,8.7139 -1.2199,18.4386 -5.9063,47.0625 -8.4946,51.8839 -8.86,55.0711 -8.8438,75.875 0.0214,27.026 2.5971,48.8612 9.125,77.3125 1.5148,6.602 2.8446,12.4715 2.9688,13.0625 0.1242,0.591 0.4431,0.9636 0.6875,0.8125 0.2599,-0.1606 0.2863,0.2641 0.0937,1.0313 -0.2474,0.986 -0.1707,1.2168 0.2813,0.9375 0.4584,-0.2833 0.5112,-0.002 0.25,1.1875 -0.2612,1.1895 -0.1772,1.4708 0.2813,1.1875 0.4519,-0.2793 0.4974,-0.0483 0.25,0.9375 -0.1932,0.7698 -0.1366,1.1929 0.125,1.0313 0.2453,-0.1516 0.7277,1.1943 1.0625,2.9688 0.4545,2.4087 0.6915,2.9908 0.9688,2.2813 0.3568,-0.9132 0.3744,-0.9154 0.4063,-0.0312 0.0186,0.5061 0.1547,0.8141 0.2813,0.6875 0.1266,-0.1266 -0.415,-3.4616 -1.1875,-7.4063 -2.016,-10.2946 -4.1441,-23.9217 -5.75,-36.8125 -0.767,-6.1566 -1.518,-12.2734 -1.6875,-13.5938 -0.1695,-1.3204 -0.3125,-3.4019 -0.3125,-4.6563 -10e-4,-1.273 -0.2183,-2.2813 -0.5,-2.2813 -0.6833,0 -0.1946,6.5883 1.5313,20.4063 1.2256,9.8131 1.6678,13.5344 1.6563,14.0625 -0.0657,-0.1575 -0.2521,-0.8531 -0.4688,-1.875 -1.8561,-8.7551 -4.3609,-28.2572 -5.5938,-43.4063 -0.9231,-11.3433 -0.7997,-36.438 0.2188,-45.125 1.4026,-11.963 3.1431,-24.3517 5.125,-36.25 6.3891,-38.3565 8.3891,-52.0567 9.0938,-62.9063 0.488,-7.5137 -0.0438,-15.1008 -1.1875,-17.3125 -0.8525,-1.6485 -0.4546,-2.3593 1.3438,-2.375 1.2246,-0.0107 1.0196,-0.8746 -0.25,-1.0625 -0.5942,-0.0879 0.8119,-0.4582 3.125,-0.8125 2.8464,-0.4359 4.3659,-0.8874 4.6563,-1.4063 0.1301,-0.2326 0.2421,-0.3406 0.375,-0.3125 z m -10.8125,2.625 c 0.8362,0 1.4225,0.0926 1.3125,0.1875 -0.5736,0.4946 -2.8438,0.7431 -2.8438,0.3125 0,-0.2691 0.695,-0.5 1.5313,-0.5 z m -4.375,0.5625 c 0.3946,-0.0429 0.8187,-0.005 1.0625,0.0937 0.3251,0.1315 -0.0828,0.2288 -0.875,0.2188 -0.7922,-0.01 -1.0609,-0.1283 -0.5938,-0.25 0.1168,-0.0304 0.2747,-0.0482 0.4063,-0.0625 z m -137.625,0.0937 c -0.1926,0.0659 -0.4815,0.4124 -0.7188,0.875 -0.5498,1.0721 -0.5484,1.0736 0.2813,0.2813 0.4772,-0.4559 0.7547,-0.9641 0.5938,-1.125 -0.0402,-0.0402 -0.0921,-0.0533 -0.1563,-0.0312 z m 139.8438,0.875 c 0.6205,-0.1522 1.7117,0.7844 2.5938,2.25 0.9152,1.5206 1.085,2.6443 1.2813,8.375 0.1248,3.6432 -0.0223,9.3638 -0.3438,12.7188 -0.7876,8.2179 -1.8345,15.0801 -7.2188,48.125 -5.0035,30.7078 -6.3543,40.7986 -7.1875,52.8125 -1.2958,18.6822 0.0964,45.8259 3.5938,69.25 0.6688,4.4798 1.1363,8.2388 1.0313,8.3438 -0.4821,0.4822 -4.33,-24.1035 -5.3438,-34.1563 -1.9423,-19.2603 -2.1491,-42.1199 -0.5313,-55.9063 1.051,-8.9556 3.5345,-25.2642 7.75,-50.9063 6.7423,-41.0124 7.9276,-56.0447 4.6875,-59.625 -0.4392,-0.4854 -0.6991,-0.9884 -0.5625,-1.125 0.0669,-0.0669 0.1614,-0.1345 0.25,-0.1563 z m -2.1875,0.2188 1.125,1.4063 c 1.2938,1.619 1.2303,1.963 -0.2188,1.1875 -0.7914,-0.4235 -2.9725,-0.3276 -9.5313,0.4375 -4.6742,0.5453 -10.8163,1.141 -13.6563,1.3125 -3.0262,0.1828 -5.3481,0.5414 -5.625,0.875 -0.3197,0.3853 -0.1704,1.2084 0.4688,2.5313 1.6189,3.3507 2.4063,9.5691 2.4063,19.0625 0,12.3246 -1.3317,27.4837 -5.5313,63.4063 -4.4325,37.915 -5.3397,53.8872 -4.5625,80.6563 0.4626,15.9345 0.7042,21.2449 1.9688,46.8125 0.294,5.9418 0.4267,11.5445 0.3125,12.4688 -0.1532,1.2395 -0.2246,1.355 -0.2813,0.4375 -0.0423,-0.6842 -0.5121,-5.8462 -1.0313,-11.5 -2.4441,-26.6158 -3.5409,-48.9162 -3.5625,-71.5 -0.0194,-20.2526 0.0691,-22.0402 3.7813,-59.7813 4.037,-41.0453 5.0655,-58.3639 4.125,-69.6563 -0.6608,-7.9344 -1.4231,-11.1652 -3.1563,-13.4375 -0.9046,-1.1861 -1.0743,-1.7336 -0.625,-1.875 0.3454,-0.1087 3.1193,-0.311 6.1563,-0.4688 3.037,-0.1578 10.4412,-0.7747 16.4688,-1.3438 z m -15.2813,0.25 c 0.3067,-0.05 0.6899,-0.006 0.9375,0.0937 0.3301,0.1332 0.0352,0.25 -0.625,0.25 -0.6602,0 -0.9238,-0.1168 -0.5938,-0.25 0.0825,-0.0333 0.179,-0.0772 0.2813,-0.0937 z m -108.25,0.3438 -0.6563,2.7813 c -2.3688,10.373 -1.0073,25.1308 6.9688,76.0313 2.2373,14.2782 4.7561,34.8831 5.3125,43.3438 0.5105,7.7627 0.0217,24.5334 -1.0313,35.0625 -0.8248,8.2476 -2.8187,21.3011 -4.5625,29.875 -1.5727,7.7323 -4.1475,18.4745 -4.4688,18.7813 -0.0281,-0.2283 0.7026,-4.4111 1.625,-9.2813 1.9451,-10.2701 4.2518,-26.9197 5,-35.9375 0.946,-11.3978 1.4707,-31.7731 0.9688,-38.1563 -1.0163,-12.9249 -5.0092,-42.4381 -8.625,-63.8438 -2.8493,-16.8681 -4.7862,-34.3874 -4.7813,-43.0938 0.004,-9.2658 0.8707,-13.3579 3.1875,-14.875 z m 4.75,0.0937 c 1.0185,-0.0541 2.6626,0.0847 5.8438,0.375 3.5876,0.3273 10.6022,0.9159 15.5938,1.2813 9.9579,0.7288 10.8494,1.0115 9.8438,3.2188 -0.5363,1.177 -0.5811,1.2001 -1.4063,0.375 -0.6515,-0.6515 -2.0062,-0.9345 -5.5938,-1.1875 -2.6014,-0.1834 -8.9442,-0.7421 -14.0938,-1.2188 -5.1496,-0.4767 -9.5167,-0.6886 -9.7188,-0.5 -0.2021,0.1886 -0.7057,1.9429 -1.125,3.9063 -0.609,2.8512 -0.7109,5.401 -0.5,12.6875 0.3383,11.6885 1.8016,23.5852 6.7813,54.7188 1.9577,12.2392 4.0011,27.4593 4.875,36.5 1.2335,12.7619 1.1373,32.4498 -0.2188,43.2813 -2.0981,16.758 -5.4461,32.6282 -10.6563,50.5625 -4.8849,16.8145 -6.3463,20.4033 -2.625,6.4688 4.4344,-16.6047 7.8515,-34.6025 9.5625,-50.375 1.0882,-10.0312 1.8478,-27.9139 1.5,-35.5313 -0.4948,-10.837 -3.1354,-31.6807 -7.4375,-59.0625 -4.7008,-29.9193 -5.9958,-42.0248 -5.6563,-52.5625 0.2686,-8.3341 0.8156,-10.6363 2.9063,-12.125 0.6972,-0.4964 1.1065,-0.7584 2.125,-0.8125 z m 98.0625,0.0312 c 0.3046,0 0.6127,0.0335 0.8438,0.0937 0.4621,0.1208 0.0805,0.2188 -0.8438,0.2188 -0.9243,0 -1.3059,-0.098 -0.8438,-0.2188 0.2311,-0.0604 0.5392,-0.0937 0.8438,-0.0937 z m -7.6875,0.4688 c 0.3916,0 0.7967,0.0365 1.0938,0.0937 0.5942,0.1145 0.0946,0.2188 -1.0938,0.2188 -1.1884,0 -1.6567,-0.1043 -1.0625,-0.2188 0.2971,-0.0572 0.6709,-0.0937 1.0625,-0.0937 z m -50.9063,2.3438 h 19.4375 c 12.7766,0 19.8062,0.194 20.5313,0.5313 0.6066,0.2821 1.5055,1.05 2,1.7188 l 0.9063,1.2188 -1.0938,-0.5938 c -1.5312,-0.8195 -40.0624,-0.9376 -40.875,-0.125 -1.2831,1.2832 -1.9427,6.7562 -2.1875,18.0313 -0.2722,12.539 0.1273,20.5807 2.2813,44.5313 3.9048,43.4181 4.0164,44.9733 4.0313,66.5 0.0125,18.0517 -0.1226,21.0799 -1.0938,29.0313 -2.2139,18.126 -5.7771,38.3805 -9.9688,56.6563 -1.1811,5.1496 -2.2068,9.5797 -2.3125,9.8438 -0.5018,1.2533 -0.1816,-1.1284 1.125,-7.9375 6.4677,-33.7046 9.6439,-65.6134 9,-90.7188 -0.2748,-10.7134 -1.0029,-20.6224 -3.2188,-43.4688 -5.3595,-55.2582 -5.881,-68.938 -3,-79.75 0.6954,-2.6096 1.086,-3.2315 2.625,-4.25 z m 42.8125,0.0625 c 0.194,-0.002 0.4889,0.0436 0.8438,0.1563 3.8973,1.237 5.6419,12.8299 4.8125,31.7188 -0.5522,12.5742 -1.1522,19.6208 -4.2813,49.4688 -1.3012,12.4118 -2.6297,25.3482 -2.9688,28.7813 -0.826,8.3616 -0.8284,50.2186 0,64.5938 0.8956,15.5427 1.9107,29.7608 2.7813,39.1875 1.1927,12.9137 0.5719,12.6297 -1.1563,-0.5313 -3.7383,-28.4694 -5.37,-52.4772 -5.375,-78.8125 -0.003,-16.0115 0.4814,-22.9539 3.8438,-55.625 3.9408,-38.291 4.0404,-39.6358 4.0625,-55 0.0217,-14.9243 -0.3617,-18.7217 -2.2188,-22 -0.7725,-1.3636 -0.9257,-1.9323 -0.3438,-1.9375 z m -47.2188,0.4375 -0.4375,1.7813 c -2.0863,8.4711 -2.0827,8.2765 -2.0625,21.5 0.0226,14.7086 0.4441,20.3975 4.7188,64.8125 1.3852,14.3924 2.518,30.8159 2.9688,43.2188 0.5401,14.8618 -1.4041,39.8902 -4.8125,61.9375 -1.9748,12.7745 -3.7434,22.0924 -3.4063,18 0.1197,-1.4525 0.5509,-5.8825 0.9375,-9.8438 1.9952,-20.4447 2.5025,-28.7113 3.1875,-51.5938 0.6521,-21.7866 0.2449,-31.4473 -2.4688,-60.75 -4.9343,-53.2818 -5.6398,-68.0298 -3.7813,-79.4375 0.6917,-4.2458 2.3073,-7.9432 3.875,-8.875 z m 78.4999,164.375 c -0.0505,0.0505 -0.0823,0.2203 -0.0937,0.5 -0.0208,0.5061 0.0904,0.7845 0.25,0.625 0.1596,-0.1595 0.17,-0.5596 0.0312,-0.9063 -0.0766,-0.1915 -0.137,-0.2692 -0.1875,-0.2188 z m 0,2.2813 c -0.0772,-0.0171 -0.119,0.1566 -0.125,0.4688 -0.008,0.4182 0.1364,0.8865 0.3125,1.0625 0.5858,0.5858 0.7358,-0.0797 0.2188,-0.9688 -0.2092,-0.3598 -0.329,-0.5454 -0.4063,-0.5625 z m 1.5313,31.8438 c 0.029,0.0108 0.0605,0.0737 0.0937,0.1563 0.1332,0.3301 0.1332,0.8574 0,1.1875 -0.1332,0.3301 -0.25,0.0664 -0.25,-0.5938 0,-0.4951 0.0694,-0.7823 0.1563,-0.75 z m -118.6875,4.7813 c 0.0505,-0.0505 0.1109,-0.004 0.1875,0.1875 0.1387,0.3466 0.1283,0.778 -0.0312,0.9375 -0.1595,0.1595 -0.2707,-0.1189 -0.25,-0.625 0.0115,-0.2797 0.0433,-0.4495 0.0937,-0.5 z m 121.4688,3.3438 c 0.0505,-0.0505 0.1109,0.0272 0.1875,0.2188 0.1387,0.3466 0.1283,0.7467 -0.0312,0.9063 -0.1595,0.1596 -0.2707,-0.1189 -0.25,-0.625 0.0115,-0.2797 0.0433,-0.4495 0.0937,-0.5 z m -86.3438,7.875 c 0.0373,-0.0201 0.0794,0.0748 0.125,0.25 0.1218,0.4672 0.1003,1.1124 -0.0312,1.4375 -0.1315,0.3251 -0.2288,-0.0515 -0.2188,-0.8438 0.006,-0.4951 0.0629,-0.8103 0.125,-0.8438 z m 89.7188,9.9063 c 0.0505,-0.0505 0.1109,-0.004 0.1875,0.1875 0.1387,0.3466 0.1283,0.7779 -0.0312,0.9375 -0.1595,0.1596 -0.2707,-0.1189 -0.25,-0.625 0.0115,-0.2797 0.0433,-0.4495 0.0937,-0.5 z m -36.9063,1.625 c 0.0373,-0.0201 0.0793,0.0436 0.125,0.2188 0.1218,0.4672 0.1316,1.1437 0,1.4688 -0.1316,0.3251 -0.26,-0.0828 -0.25,-0.875 0.006,-0.4952 0.0629,-0.779 0.125,-0.8125 z m 37.375,0.7813 c 0.0505,-0.0505 0.1109,-0.004 0.1875,0.1875 0.1387,0.3466 0.1283,0.7779 -0.0312,0.9375 -0.1595,0.1596 -0.2707,-0.1501 -0.25,-0.6563 0.0115,-0.2797 0.0433,-0.4183 0.0937,-0.4688 z m -91.2188,0.9375 c 0.0505,-0.0505 0.1109,0.0272 0.1875,0.2188 0.1387,0.3466 0.1283,0.7467 -0.0312,0.9063 -0.1595,0.1596 -0.2707,-0.1189 -0.25,-0.625 0.0115,-0.2797 0.0433,-0.4495 0.0937,-0.5 z m 55.8125,2.1563 c 0.0263,0.0151 0.0323,0.072 0.0625,0.1875 0.1208,0.4621 0.1208,1.2254 0,1.6875 -0.1208,0.4621 -0.2188,0.0805 -0.2188,-0.8438 0,-0.6932 0.0775,-1.0765 0.1563,-1.0313 z m 36.4688,1.25 c 0.029,0.0108 0.0605,0.0737 0.0937,0.1563 0.1332,0.3301 0.1332,0.8574 0,1.1875 -0.1332,0.3301 -0.25,0.0665 -0.25,-0.5938 0,-0.4951 0.0694,-0.7823 0.1563,-0.75 z m -35.9688,6.625 c 0.0249,0.0194 0.0339,0.1015 0.0625,0.25 0.1145,0.5942 0.1145,1.5621 0,2.1563 -0.1145,0.5942 -0.2188,0.0946 -0.2188,-1.0938 0,-0.8913 0.0816,-1.3707 0.1563,-1.3125 z m -1.5,2.0313 c -0.0869,-0.0324 -0.125,0.2236 -0.125,0.7188 0,0.6602 0.0856,0.9238 0.2188,0.5938 0.1332,-0.33 0.1332,-0.8574 0,-1.1875 -0.0333,-0.0825 -0.0649,-0.1142 -0.0937,-0.125 z m 52.4375,2.75 c -0.0961,0.0584 -0.2509,0.2856 -0.5313,0.6563 -0.3877,0.5118 -0.7097,0.7284 -0.7188,0.5 -0.009,-0.2284 -1.3861,0.8693 -3.0625,2.4375 -1.6764,1.5682 -4.68,3.7166 -6.6875,4.75 -2.004,1.0316 -3.5951,1.9362 -3.5,2.0313 0.4976,0.4976 8.5443,-4.3051 10.7188,-6.4063 1.3864,-1.3397 2.5,-2.3727 2.5,-2.2813 0,1.0775 -2.4547,4.3895 -4.4375,5.9688 -8.3683,6.6653 -26.6412,11.13 -52.625,12.875 -9.5065,0.636 -37.9679,0.6395 -47.8438,0 -31.2735,-2.025 -46.1903,-7.1731 -50.5938,-17.5 -0.5005,-1.1736 -0.1859,-0.9871 1.625,1.0625 1.9842,2.2457 6.5058,5.3008 9.125,6.1563 0.5282,0.1725 -0.5911,-0.5866 -2.4688,-1.6563 -1.8777,-1.0697 -4.4565,-3.0847 -5.75,-4.5 -1.2914,-1.4129 -2.5467,-2.5967 -2.7813,-2.625 -0.2346,-0.0283 -0.6202,-0.3348 -0.8438,-0.6875 -0.8768,-1.3833 -0.3841,1.0767 0.6563,3.3125 1.3113,2.8182 5.1586,6.6999 8.625,8.6563 7.9368,4.4793 21.9249,7.4094 41.2188,8.6875 8.8371,0.5855 40.5308,0.6333 49.0313,0.0625 32.8349,-2.205 53.0224,-8.7519 57.375,-18.5938 0.8146,-1.842 1.1565,-2.7841 1.0625,-2.9063 -0.0141,-0.0183 -0.0617,-0.0195 -0.0937,0 z m -110.625,0.0937 c 0.0505,-0.0505 0.1421,-0.004 0.2188,0.1875 0.1387,0.3466 0.097,0.778 -0.0625,0.9375 -0.1595,0.1595 -0.2707,-0.1189 -0.25,-0.625 0.0115,-0.2797 0.0433,-0.4495 0.0937,-0.5 z m 89.75,2.25 c -0.1866,-0.005 -0.4432,0.1289 -0.6875,0.375 -0.4707,0.4742 -0.4343,0.5418 0.25,0.2813 0.4736,-0.1803 0.7416,-0.4459 0.5938,-0.5938 -0.037,-0.037 -0.0941,-0.0607 -0.1563,-0.0625 z m 20.5,6.6875 c -0.132,0 -0.9791,0.732 -1.875,1.6563 -0.8959,0.9243 -1.5071,1.6875 -1.375,1.6875 0.1321,0 0.9791,-0.7632 1.875,-1.6875 0.8959,-0.9243 1.5071,-1.6563 1.375,-1.6563 z m -144.2188,1.4375 c -0.2641,0 -0.1461,0.2127 0.25,0.4688 0.3961,0.2561 0.9234,0.4688 1.1875,0.4688 0.2641,0 0.1461,-0.2127 -0.25,-0.4688 -0.3961,-0.2561 -0.9234,-0.4688 -1.1875,-0.4688 z m -13.6875,0.4688 c -0.0248,0.0248 0.1077,0.213 0.4063,0.5938 0.3625,0.4622 0.744,0.8438 0.8438,0.8438 0.3952,0 0.1435,-0.3727 -0.6563,-1 -0.3808,-0.2986 -0.569,-0.4623 -0.5938,-0.4375 z"
       fill="#93aca7"
       opacity="0.5"
       id="path487" />
    <g
       transform="matrix(1.0544,0,0,1,-21.713,2.0964)"
       id="g549">
      <path
         d="m 404.7853,-975.5276 c -10.6427,0.0859 -21.0641,0.7394 -27.9375,1.9688 -4.1773,0.7471 -8.3053,2.241 -8.125,2.9375 0.0549,0.212 -0.0741,1.0934 -0.2813,1.9688 -0.2072,0.8754 -0.1075,4.3068 0.2188,7.625 l 0.5938,6.0313 1.4063,0.2813 c 0.877,0.1754 1.375,0.5662 1.375,1.0938 0,0.7655 0.2607,0.7958 3.3125,0.2188 12.4868,-2.3611 57.1213,-1.9573 65.7813,0.5938 0.6476,0.1908 0.8438,-0.0303 0.8438,-0.9688 0,-0.8136 0.2339,-1.1621 0.6563,-1 0.4951,0.19 0.5808,-0.4172 0.4375,-2.7813 -0.1342,-2.2137 -0.0258,-2.8407 0.3438,-2.3125 0.2785,0.3981 0.496,1.6534 0.5,2.7813 0.004,1.1279 0.2021,2.0313 0.4375,2.0313 0.522,0 1.0973,-5.476 1.1875,-11.25 0.0805,-5.1509 -0.3016,-5.6159 -5.5625,-6.8125 -7.4446,-1.6932 -21.504,-2.5168 -35.1875,-2.4063 z"
         fill="#aa0000"
         id="path489" />
      <path
         d="m 407.8478,-971.5901 c 12.4513,-0.005 24.8728,0.1296 27.1563,0.4375 2.3558,0.3177 -5.9615,0.4806 -27.5,0.5 -23.0504,0.0209 -29.9126,-0.102 -27.0313,-0.4688 2.4326,-0.3096 14.9237,-0.4642 27.375,-0.4688 z"
         fill="#d5fff6"
         id="path491" />
      <path
         d="m 373.0041,-970.4339 c 0.2186,0 0.4279,0.0581 0.5938,0.125 0.3317,0.1339 0.0697,0.2188 -0.5938,0.2188 -0.6635,0 -0.9567,-0.0849 -0.625,-0.2188 0.1659,-0.0669 0.4064,-0.125 0.625,-0.125 z"
         fill="#aa0000"
         id="path493" />
      <path
         d="m 441.9416,-970.4339 c 0.2624,0.003 0.4929,0.0589 0.6563,0.125 0.3267,0.1322 -0.0476,0.2278 -0.8438,0.2188 -0.7962,-0.009 -1.0632,-0.1277 -0.5938,-0.25 0.2347,-0.0611 0.5189,-0.097 0.7813,-0.0937 z"
         fill="#aa0000"
         id="path495" />
      <path
         d="m 370.9103,-969.9964 c 0.6966,0 0.7213,0.078 0,0.875 -0.5454,0.6027 -0.8125,1.7559 -0.8125,3.625 0,2.6344 -0.5457,3.5598 -1.1563,1.9688 -0.9513,-2.479 0.2591,-6.4688 1.9688,-6.4688 z"
         fill="#aa0000"
         id="path497" />
      <path
         d="m 404.8478,-962.5276 c 0.3029,-0.1872 0.4688,0.8881 0.4688,2.875 0,1.7881 -0.1961,3.1563 -0.4688,3.1563 -0.2727,0 -0.5,-1.2857 -0.5,-2.875 0,-1.5765 0.2347,-2.9922 0.5,-3.1563 z"
         fill="#800000"
         id="path499" />
      <path
         d="m 414.4728,-962.5276 c 0.3029,-0.1872 0.5,0.8881 0.5,2.875 0,1.7881 -0.2274,3.1563 -0.5,3.1563 -0.2726,0 -0.4688,-1.2857 -0.4688,-2.875 0,-1.5765 0.2034,-2.9922 0.4688,-3.1563 z"
         fill="#800000"
         id="path501" />
      <path
         d="m 396.1603,-962.2776 c 0.2722,0 0.4688,1.3559 0.4688,3.125 0,3.1584 -0.0374,3.4001 -0.625,2.8125 -0.5171,-0.5171 -0.3748,-5.9375 0.1563,-5.9375 z"
         fill="#800000"
         id="path503" />
      <path
         d="m 406.0666,-962.0901 c 0.0226,0.0325 0.0677,0.1575 0.0937,0.4063 0.1042,0.9951 0.1042,2.6299 0,3.625 -0.1042,0.9951 -0.1875,0.1778 -0.1875,-1.8125 0,-1.4927 0.0259,-2.3163 0.0937,-2.2188 z"
         fill="#800000"
         id="path505" />
      <path
         d="m 415.7228,-962.0901 c 0.0226,0.0325 0.0677,0.1575 0.0937,0.4063 0.1041,0.9951 0.1041,2.6299 0,3.625 -0.1041,0.9951 -0.1875,0.1778 -0.1875,-1.8125 0,-1.4927 0.0259,-2.3163 0.0937,-2.2188 z"
         fill="#800000"
         id="path507" />
      <path
         d="m 388.0666,-962.0589 c 0.2373,0.1059 0.375,1.1365 0.375,2.875 0,1.7385 -0.0858,3.1875 -0.1875,3.1875 -0.7642,0 -1.054,-5.5729 -0.3125,-6.0313 0.0379,-0.0234 0.0911,-0.0464 0.125,-0.0312 z"
         fill="#800000"
         id="path509" />
      <path
         d="m 423.7541,-962.0589 c 0.2346,0.0629 0.3785,0.8931 0.375,2.2813 -0.004,1.4088 -0.2115,2.8832 -0.4688,3.2813 -0.3299,0.5104 -0.4638,-0.1434 -0.4688,-2.25 -0.004,-1.6429 0.2034,-3.1172 0.4688,-3.2813 0.0374,-0.0231 0.0602,-0.0402 0.0937,-0.0312 z"
         fill="#800000"
         id="path511" />
      <path
         d="m 419.8791,-962.0277 0.6563,1.4375 c 0.3645,0.7961 0.6754,2.0515 0.6875,2.7813 0.0209,1.2754 -0.4162,1.6776 -1.0938,1 -0.1769,-0.1769 -0.3028,-1.4323 -0.2813,-2.7813 l 0.0312,-2.4375 z"
         fill="#800000"
         id="path513" />
      <path
         d="m 380.8791,-961.9027 c 0.0448,-0.069 0.0823,0.2238 0.1563,0.8438 0.2233,1.8713 -0.4669,5.7207 -0.9375,5.25 -0.1991,-0.1991 -0.3161,-1.6669 -0.2813,-3.2813 0.0551,-2.547 0.0978,-2.7154 0.4063,-1.25 l 0.375,1.6875 0.125,-1.9375 c 0.0603,-0.8266 0.1114,-1.2435 0.1563,-1.3125 z"
         fill="#800000"
         id="path515" />
      <path
         d="m 433.5353,-961.8715 c 0.0264,0.0152 0.0634,0.0714 0.0937,0.1875 0.1214,0.4644 0.1214,1.2231 0,1.6875 -0.1214,0.4644 -0.2188,0.085 -0.2188,-0.8438 0,-0.6966 0.0459,-1.0768 0.125,-1.0313 z"
         fill="#800000"
         id="path517" />
      <path
         d="m 432.3478,-961.809 c 0.2654,0 0.4572,0.4967 0.4375,1.0938 -0.0197,0.5971 -0.225,2.0558 -0.4375,3.25 -0.1654,0.9295 -0.2531,1.4465 -0.3125,1.4688 -0.0571,-0.1386 -0.0955,-0.9377 -0.125,-2.5313 -0.035,-1.8898 0.1575,-3.2813 0.4375,-3.2813 z"
         fill="#800000"
         id="path519" />
      <path
         d="m 440.9103,-961.684 c 0.4479,-0.1479 0.5898,0.645 0.5313,3.0938 l -0.0937,3.3125 -0.3125,-2.6563 -0.3125,-2.6563 -0.25,2.6563 -0.25,2.6563 0.0312,-3.0938 c 0.0289,-2.0168 0.2636,-3.1829 0.6563,-3.3125 z"
         fill="#800000"
         id="path521" />
      <path
         d="m 397.3478,-961.6215 c 0.0307,-0.0745 0.0858,0.0621 0.125,0.4375 0.1043,1.0011 0.1066,2.5185 0,3.375 -0.1066,0.8565 -0.1885,0.0451 -0.1875,-1.8125 10e-4,-1.161 0.0113,-1.8758 0.0625,-2 z"
         fill="#800000"
         id="path523" />
      <path
         d="m 424.8791,-961.6215 c 0.0307,-0.0745 0.0546,0.0621 0.0937,0.4375 0.1043,1.0011 0.1066,2.5185 0,3.375 -0.1066,0.8565 -0.1885,0.0451 -0.1875,-1.8125 10e-4,-1.161 0.0425,-1.8758 0.0937,-2 z"
         fill="#800000"
         id="path525" />
      <path
         d="m 428.7853,-961.559 0.5625,1.375 c 0.3115,0.747 0.5625,1.8851 0.5625,2.5313 0,1.3526 -1.2032,1.601 -1.5,0.3125 -0.1069,-0.4644 -0.0688,-1.6024 0.0937,-2.5313 z"
         fill="#800000"
         id="path527" />
      <path
         d="m 373.2853,-961.4028 c 0.0548,-0.0699 0.0799,0.2032 0.0937,0.8125 0.018,0.7961 -0.1452,2.4309 -0.3438,3.625 l -0.3438,2.1563 -0.4063,-2.7813 c -0.212,-1.538 -0.2273,-2.929 -0.0625,-3.0938 0.1648,-0.1648 0.3061,0.3198 0.3438,1.0938 0.0579,1.1907 0.1451,1.1017 0.4375,-0.5313 0.1454,-0.8123 0.2265,-1.2114 0.2813,-1.2813 z"
         fill="#800000"
         id="path529" />
      <path
         d="m 389.1603,-961.1528 c 0.0307,-0.0745 0.0546,0.0621 0.0937,0.4375 0.1043,1.0011 0.1066,2.5497 0,3.4063 -0.1066,0.8566 -0.1885,0.0138 -0.1875,-1.8438 10e-4,-1.161 0.0425,-1.8758 0.0937,-2 z"
         fill="#800000"
         id="path531" />
      <path
         d="m 401.1916,-961.1528 c 0.1062,0.003 0.2851,0.2058 0.5313,0.5313 0.3896,0.5151 0.6875,1.6532 0.6875,2.5313 0,1.515 -0.4145,1.9917 -1.125,1.2813 -0.1769,-0.1769 -0.2893,-1.315 -0.2813,-2.5313 0.009,-1.2808 0.0104,-1.8169 0.1875,-1.8125 z"
         fill="#800000"
         id="path533" />
      <path
         d="m 410.8478,-961.1528 c 0.1062,0.003 0.2851,0.2058 0.5313,0.5313 0.3896,0.5151 0.6875,1.6532 0.6875,2.5313 0,1.515 -0.4145,1.9917 -1.125,1.2813 -0.1769,-0.1769 -0.3205,-1.315 -0.3125,-2.5313 0.009,-1.2808 0.0417,-1.8169 0.2188,-1.8125 z"
         fill="#800000"
         id="path535" />
      <path
         d="m 384.4103,-961.0591 c 0.3278,-0.1123 0.8349,0.932 1.125,2.8438 0.2427,1.5993 0.184,2.2188 -0.25,2.2188 -0.8029,0 -1.1875,-1.1433 -1.1875,-3.5313 0,-0.9881 0.1158,-1.4639 0.3125,-1.5313 z"
         fill="#800000"
         id="path537" />
      <path
         d="m 392.5041,-961.0591 c 0.1089,-0.0591 0.2657,0.0243 0.5,0.2188 0.4156,0.3449 0.75,1.3944 0.75,2.4688 0,1.7584 -0.385,2.3026 -1.125,1.5625 -0.1769,-0.1769 -0.3438,-1.2863 -0.3438,-2.4688 0,-1.1602 0.0372,-1.6827 0.2188,-1.7813 z"
         fill="#800000"
         id="path539" />
      <path
         d="m 376.2541,-960.8403 c 0.6175,0 1.5625,2.2217 1.5625,3.6563 0,1.1215 -0.6621,1.5951 -1.125,0.8125 -0.4994,-0.8444 -0.8528,-4.4688 -0.4375,-4.4688 z"
         fill="#800000"
         id="path541" />
      <path
         d="m 437.0666,-960.5903 c 0.248,-0.079 0.518,0.7515 0.8125,2.5313 0.2709,1.637 0.1917,2.0625 -0.375,2.0625 -0.9191,0 -1.2874,-1.4524 -0.875,-3.4688 0.1438,-0.7032 0.2887,-1.0776 0.4375,-1.125 z"
         fill="#800000"
         id="path543" />
      <path
         d="m 370.1916,-960.1216 0.4688,1.625 c 0.5081,1.7655 0.3916,3.7755 -0.1875,3.1875 -0.1991,-0.2021 -0.3678,-1.3775 -0.3438,-2.5938 l 0.0625,-2.2188 z"
         fill="#800000"
         id="path545" />
      <path
         d="m 381.3166,-956.7778 c 0.0507,-0.0507 0.1417,-0.005 0.2188,0.1875 0.1394,0.3483 0.0978,0.7772 -0.0625,0.9375 -0.1603,0.1603 -0.2709,-0.1164 -0.25,-0.625 0.0116,-0.281 0.043,-0.4493 0.0937,-0.5 z"
         fill="#800000"
         id="path547" />
    </g>
  </g>
</svg>
