<?xml version="1.0" encoding="UTF-8" standalone="no"?>
<svg
   xmlns:dc="http://purl.org/dc/elements/1.1/"
   xmlns:cc="http://creativecommons.org/ns#"
   xmlns:rdf="http://www.w3.org/1999/02/22-rdf-syntax-ns#"
   xmlns:svg="http://www.w3.org/2000/svg"
   xmlns="http://www.w3.org/2000/svg"
   xmlns:xlink="http://www.w3.org/1999/xlink"
   xmlns:sodipodi="http://sodipodi.sourceforge.net/DTD/sodipodi-0.dtd"
   xmlns:inkscape="http://www.inkscape.org/namespaces/inkscape"
   id="svg2"
   sodipodi:version="0.32"
   inkscape:version="1.0.2-2 (e86c870879, 2021-01-15)"
   width="86.796204mm"
   height="85.757172mm"
   sodipodi:docname="cookie.svg"
   inkscape:output_extension="org.inkscape.output.svgz.inkscape"
   version="1.0"
   inkscape:export-filename="/home/pinheiro/pics/oxygen/scalable/actions/cookies.png"
   inkscape:export-xdpi="180"
   inkscape:export-ydpi="180">
  <sodipodi:namedview
     inkscape:window-height="1017"
     inkscape:window-width="1920"
     inkscape:pageshadow="2"
     inkscape:pageopacity="0.0"
     guidetolerance="10.0"
     gridtolerance="10.0"
     objecttolerance="10.0"
     borderopacity="1.0"
     bordercolor="#666666"
     pagecolor="#ffffff"
     id="base"
     inkscape:zoom="0.20857837"
     inkscape:cx="-208.01156"
     inkscape:cy="-148.65499"
     inkscape:window-x="-8"
     inkscape:window-y="-8"
     inkscape:current-layer="svg2"
     showguides="true"
     inkscape:guide-bbox="true"
     width="128px"
     inkscape:document-rotation="0"
     showgrid="false"
     units="mm"
     inkscape:window-maximized="1" />
  <metadata
     id="metadata7">
    <rdf:RDF>
      <cc:Work
         rdf:about="">
        <dc:format>image/svg+xml</dc:format>
        <dc:type
           rdf:resource="http://purl.org/dc/dcmitype/StillImage" />
        <dc:title />
      </cc:Work>
    </rdf:RDF>
  </metadata>
  <defs
     id="defs5">
    <linearGradient
       id="linearGradient5199">
      <stop
         style="stop-color:#f7e0bd;stop-opacity:1;"
         offset="0"
         id="stop5201" />
      <stop
         style="stop-color:#f1c98c;stop-opacity:0;"
         offset="1"
         id="stop5203" />
    </linearGradient>
    <linearGradient
       inkscape:collect="always"
       id="linearGradient5124">
      <stop
         style="stop-color:#2d2014;stop-opacity:1;"
         offset="0"
         id="stop5126" />
      <stop
         style="stop-color:#2d2014;stop-opacity:0;"
         offset="1"
         id="stop5128" />
    </linearGradient>
    <linearGradient
       inkscape:collect="always"
       id="linearGradient5116">
      <stop
         style="stop-color:#623e21;stop-opacity:1;"
         offset="0"
         id="stop5118" />
      <stop
         style="stop-color:#623e21;stop-opacity:0;"
         offset="1"
         id="stop5120" />
    </linearGradient>
    <linearGradient
       id="linearGradient5014">
      <stop
         style="stop-color:#ffffff;stop-opacity:0.77090907;"
         offset="0"
         id="stop5016" />
      <stop
         id="stop5042"
         offset="0.5"
         style="stop-color:#ffffff;stop-opacity:0.33454546;" />
      <stop
         style="stop-color:#ffffff;stop-opacity:0.19636364;"
         offset="1"
         id="stop5018" />
    </linearGradient>
    <linearGradient
       id="linearGradient4930">
      <stop
         style="stop-color:#d9a145;stop-opacity:1"
         offset="0"
         id="stop4932" />
      <stop
         style="stop-color:#6b331c;stop-opacity:0;"
         offset="1"
         id="stop4934" />
    </linearGradient>
    <linearGradient
       id="linearGradient4924">
      <stop
         id="stop4926"
         offset="0"
         style="stop-color:#d3ad56;stop-opacity:1;" />
      <stop
         id="stop4928"
         offset="1"
         style="stop-color:#6b331c;stop-opacity:0;" />
    </linearGradient>
    <linearGradient
       id="linearGradient4770">
      <stop
         id="stop4772"
         offset="0"
         style="stop-color:#ffffff;stop-opacity:0.66" />
      <stop
         id="stop4774"
         offset="1"
         style="stop-color:#f8f6d9;stop-opacity:0;" />
    </linearGradient>
    <linearGradient
       id="linearGradient4633">
      <stop
         style="stop-color:#ffffff;stop-opacity:1;"
         offset="0"
         id="stop4635" />
      <stop
         style="stop-color:#f8f6d9;stop-opacity:0;"
         offset="1"
         id="stop4637" />
    </linearGradient>
    <linearGradient
       inkscape:collect="always"
       id="linearGradient4380">
      <stop
         style="stop-color:#dca24c;stop-opacity:1"
         offset="0"
         id="stop4382" />
      <stop
         style="stop-color:#f7d49e;stop-opacity:1"
         offset="1"
         id="stop4384" />
    </linearGradient>
    <linearGradient
       id="linearGradient4342">
      <stop
         style="stop-color:#ca792b;stop-opacity:1;"
         offset="0"
         id="stop4344" />
      <stop
         style="stop-color:#622915;stop-opacity:1;"
         offset="1"
         id="stop4346" />
    </linearGradient>
    <filter
       inkscape:collect="always"
       id="filter4444">
      <feGaussianBlur
         inkscape:collect="always"
         stdDeviation="0.38947367"
         id="feGaussianBlur4446" />
    </filter>
    <filter
       inkscape:collect="always"
       id="filter4448">
      <feGaussianBlur
         inkscape:collect="always"
         stdDeviation="0.38947367"
         id="feGaussianBlur4450" />
    </filter>
    <filter
       inkscape:collect="always"
       id="filter4598">
      <feGaussianBlur
         inkscape:collect="always"
         stdDeviation="1.3714321"
         id="feGaussianBlur4600" />
    </filter>
    <filter
       inkscape:collect="always"
       id="filter4602">
      <feGaussianBlur
         inkscape:collect="always"
         stdDeviation="1.3714321"
         id="feGaussianBlur4604" />
    </filter>
    <clipPath
       clipPathUnits="userSpaceOnUse"
       id="clipPath4610">
      <path
         sodipodi:nodetypes="cccccccccccccccccccccccccccccccccccccccccccccccccccccccccccccccccccccccccccccccccccccccccccccccccccccccccccccccccccccccccccccccccccccccccccccccccccccccccccccccccccccccccccccccccccccccccccccccccccccccccccccccccccccc"
         id="path4612"
         d="m 564.53595,586.1106 -0.35603,2.96795 -0.76003,2.56736 -0.62831,4.02853 -0.034,9.49632 -0.46129,3.25968 -1.29483,3.3767 -0.25973,2.30725 -0.30904,5.00262 -0.58893,2.51093 -0.87646,1.99149 -2.04668,3.51206 -0.95667,2.08324 -0.84836,2.44189 -1.27465,2.73878 -0.92103,1.45198 -1.92511,2.03043 -0.72961,1.27007 -1.9358,4.43906 -0.7142,1.47355 -1.98563,2.31348 -2.56577,3.78624 -3.54093,4.02247 -2.25885,1.67174 -2.94093,2.21879 -1.99404,2.38721 -3.606,4.96624 -1.03585,0.99634 -6.36474,4.1137 -1.61234,1.43771 -1.47131,1.6507 -2.06897,1.65833 -1.24485,1.42209 -1.15586,1.10748 -3.96556,1.90163 -1.67224,0.79096 -2.11722,0.3172 -4.17276,1.78958 -2.60447,1.81901 -1.21682,1.05848 -2.96333,0.6163 -1.65322,0.46127 -2.59578,1.02165 -1.78342,0.5723 -1.58504,1.1777 -3.93821,1.03358 -2.41228,0.33623 -2.66128,0.62122 -2.14026,0.56244 -3.76491,0.10892 -1.66636,0.35554 -2.71679,0.87886 -2.17437,0.38358 -4.53429,0.37385 -2.16816,0.60079 -3.50368,-0.0526 -2.25174,-0.35246 -3.41076,0.005 -4.27589,-0.59746 -3.04732,-0.69011 -5.16291,-1.51111 -5.03455,0.17234 -3.22503,0.0455 -1.72052,-0.47339 -2.31136,-0.98462 -2.78704,-0.9442 -5.47009,-2.08686 -6.17523,-1.93016 -2.57017,-2.00396 -3.1263,-1.78489 -4.96045,-2.27889 -1.98608,-0.91238 -1.97242,-1.3752 -2.54514,-1.80875 -3.43499,-2.708 -2.20793,-1.53842 -5.72023,-4.66176 -1.72648,-1.42635 -1.7725,-1.09991 -1.44028,-1.34292 -1.54567,-1.46883 -1.98418,-1.47317 -2.0534,-2.59843 -0.91646,-1.70136 -1.2843,-3.25125 -2.41682,-2.79455 -2.00927,-3.11138 -1.34019,-3.00234 -0.60026,-1.82686 -1.61723,-1.37846 -1.4368,-1.90049 -1.44351,-2.49152 -1.70499,-2.40154 -0.94298,-2.19883 -1.93786,-5.66434 -0.51706,-2.43885 -0.37632,-2.38566 -1.61756,-2.79366 -2.53707,-6.15597 -0.93931,-2.76268 -0.40079,-1.85706 0.26898,-1.93592 -0.72752,-3.0335 0.0847,-5.48451 -0.45706,-8.01655 -0.49177,-4.99589 0.31145,-1.93504 0.54078,-2.57916 -0.26824,-1.75819 -0.34826,-1.9383 -0.0319,-1.89349 0.76021,-6.36431 0.39317,-2.11053 2.16876,-4.92733 2.23858,-4.77191 1.40796,-2.06467 0.40911,-1.98257 0.16203,-3.73867 0.4733,-2.41428 1.43386,-4.05208 1.74999,-2.45097 1.81823,-1.97886 1.75333,-2.89463 0.64591,-2.50746 2.26938,-5.48959 0.88755,-1.85854 1.64208,-1.94815 1.96011,-1.59387 3.07662,-2.29054 3.34948,-3.39883 2.02285,-1.27649 1.04954,-1.60074 2.70335,-4.19177 1.62934,-1.64659 1.49916,-2.57679 1.95171,-2.15966 2.66013,-2.00034 2.38279,-1.90525 2.27305,-1.06276 3.29389,-2.35125 2.32813,-1.94795 3.02082,-1.87194 3.39687,-1.17159 3.45547,-0.54624 2.62181,-0.64239 1.81045,-1.13888 1.83488,-0.54104 2.73802,-1.82983 4.22836,-2.23491 2.01493,-0.78097 1.78872,-0.46815 2.75261,-0.0458 2.3299,0.3377 2.11704,-0.244 2.99753,-0.72695 5.39657,-0.73753 3.75635,-0.60244 2.82019,-0.58303 2.46837,-0.37533 2.20694,-0.36254 3.66698,-0.71575 2.47433,-0.13931 7.10345,0.77511 5.11355,1.79394 2.13806,0.0905 3.85911,1.39958 2.89464,1.05678 2.90797,0.65129 4.46734,0.0118 2.11373,-0.39594 5.8928,2.1351 2.33048,2.03742 5.17618,2.49787 2.91322,1.60176 2.19435,0.23409 2.33749,0.95659 2.76845,2.30246 1.8045,1.27089 1.71706,1.65066 1.62674,0.83589 1.9352,0.66956 3.31744,1.94758 1.91332,1.16383 3.36446,3.43206 1.35851,1.46002 2.13174,3.1705 1.73671,1.6597 3.17411,2.00838 2.03849,1.868 2.97055,4.73465 0.87454,1.94811 1.8309,2.18245 0.84519,1.1651 0.90526,2.24925 1.52539,2.5427 2.35583,3.69672 2.06811,2.13924 1.72052,1.96252 1.04979,2.83805 0.714,1.88678 0.61539,2.20509 0.84064,2.75119 0.81099,1.72121 0.99166,5.69261 0.7583,2.60068 0.64192,3.66312 1.41926,3.9693 0.677,1.75554 0.54943,3.44267 0.1963,3.60184 0.41525,4.33721 -0.48057,3.14292 0.46222,3.19202 z"
         style="opacity:1;fill:url(#linearGradient4614);fill-opacity:1;stroke:none;stroke-width:3.1;stroke-linecap:round;stroke-linejoin:round;stroke-miterlimit:4;stroke-dashoffset:4.15;stroke-opacity:1" />
    </clipPath>
    <linearGradient
       inkscape:collect="always"
       xlink:href="#linearGradient4380"
       id="linearGradient4614"
       gradientUnits="userSpaceOnUse"
       gradientTransform="translate(306.83909)"
       x1="141.34319"
       y1="671.07355"
       x2="148.66815"
       y2="452.41049" />
    <filter
       inkscape:collect="always"
       id="filter4746">
      <feGaussianBlur
         inkscape:collect="always"
         stdDeviation="2.1488228"
         id="feGaussianBlur4748" />
    </filter>
    <filter
       inkscape:collect="always"
       id="filter4750">
      <feGaussianBlur
         inkscape:collect="always"
         stdDeviation="2.1488228"
         id="feGaussianBlur4752" />
    </filter>
    <clipPath
       clipPathUnits="userSpaceOnUse"
       id="clipPath4764">
      <path
         sodipodi:nodetypes="cccccccccccccccccccccccccccccccccccccccccccccccccccccccccccccccccccccccccccccccccccccccccccccccccccccccccccccccccccccccccccccccccccccccccccccccccccccccccccccccccccccccccccccccccccccccccccccccccccccccccccccccccccccc"
         id="path4766"
         d="m 535.76979,588.50778 -0.35603,2.96795 -0.76003,2.56736 -0.62831,4.02853 -0.034,9.49632 -0.46129,3.25968 -1.29483,3.3767 -0.25973,2.30725 -0.30904,5.00262 -0.58893,2.51093 -0.87646,1.99149 -2.04668,3.51206 -0.95667,2.08324 -0.84836,2.44189 -1.27465,2.73878 -0.92103,1.45198 -1.92511,2.03043 -0.72961,1.27007 -1.9358,4.43906 -0.7142,1.47355 -1.98563,2.31348 -2.56577,3.78624 -3.54093,4.02247 -2.25885,1.67174 -2.94093,2.21879 -1.99404,2.38721 -3.606,4.96624 -1.03585,0.99634 -6.36474,4.1137 -1.61234,1.43771 -1.47131,1.6507 -2.06897,1.65833 -1.24485,1.42209 -1.15586,1.10748 -3.96556,1.90163 -1.67224,0.79096 -2.11722,0.3172 -4.17276,1.78958 -2.60447,1.81901 -1.21682,1.05848 -2.96333,0.6163 -1.65322,0.46127 -2.59578,1.02165 -1.78342,0.5723 -1.58504,1.1777 -3.93821,1.03358 -2.41228,0.33623 -2.66128,0.62122 -2.14026,0.56244 -3.76491,0.10892 -1.66636,0.35554 -2.71679,0.87886 -2.17437,0.38358 -4.53429,0.37385 -2.16816,0.60079 -3.50368,-0.0526 -2.25174,-0.35246 -3.41076,0.005 -4.27589,-0.59746 -3.04732,-0.69011 -5.16291,-1.51111 -5.03455,0.17234 -3.22503,0.0455 -1.72052,-0.47339 -2.31136,-0.98462 -2.78704,-0.9442 -5.47009,-2.08686 -6.17523,-1.93016 -2.57017,-2.00396 -3.1263,-1.78489 -4.96045,-2.27889 -1.98608,-0.91238 -1.97242,-1.3752 -2.54514,-1.80875 -3.43499,-2.708 -2.20793,-1.53842 -5.72024,-4.66176 -1.72647,-1.42635 -1.77251,-1.09991 -1.44027,-1.34292 -1.54567,-1.46883 -1.98418,-1.47317 -2.0534,-2.59843 -0.91647,-1.70136 -1.28429,-3.25125 -2.41682,-2.79455 -2.00927,-3.11138 -1.34019,-3.00234 -0.60026,-1.82686 -1.61724,-1.37846 -1.43679,-1.90049 -1.44351,-2.49152 -1.70499,-2.40154 -0.94299,-2.19883 -1.93785,-5.66434 -0.51706,-2.43885 -0.37632,-2.38566 -1.61756,-2.79366 -2.53707,-6.15597 -0.93931,-2.76268 -0.4008,-1.85706 0.26899,-1.93592 -0.72752,-3.0335 0.0847,-5.48451 -0.45706,-8.01655 -0.49177,-4.99589 0.31145,-1.93504 0.54078,-2.57916 -0.26825,-1.75819 -0.34825,-1.9383 -0.0319,-1.89349 0.76021,-6.36431 0.39317,-2.11053 2.16876,-4.92733 2.23858,-4.77191 1.40796,-2.06467 0.40911,-1.98257 0.16202,-3.73867 0.47331,-2.41428 1.43386,-4.05208 1.74999,-2.45097 1.81823,-1.97886 1.75333,-2.89463 0.64591,-2.50746 2.26938,-5.48959 0.88755,-1.85854 1.64208,-1.94815 1.96011,-1.59387 3.07662,-2.29054 3.34947,-3.39883 2.02286,-1.27649 1.04954,-1.60074 2.70335,-4.19177 1.62934,-1.64659 1.49916,-2.57679 1.95171,-2.15966 2.66013,-2.00034 2.38279,-1.90525 2.27305,-1.06276 3.29389,-2.35125 2.32813,-1.94795 3.02082,-1.87194 3.39687,-1.17159 3.45547,-0.54624 2.62181,-0.64239 1.81045,-1.13888 1.83488,-0.54104 2.73802,-1.82983 4.22836,-2.23491 2.01493,-0.78097 1.78872,-0.46815 2.75261,-0.0458 2.3299,0.3377 2.11704,-0.244 2.99753,-0.72695 5.39657,-0.73753 3.75635,-0.60244 2.82019,-0.58303 2.46837,-0.37533 2.20694,-0.36254 3.66698,-0.71575 2.47433,-0.13931 7.10345,0.77511 5.11355,1.79394 2.13806,0.0905 3.85911,1.39958 2.89464,1.05678 2.90797,0.65129 4.46734,0.0118 2.11373,-0.39594 5.8928,2.1351 2.33048,2.03742 5.17618,2.49787 2.91322,1.60176 2.19435,0.23409 2.33749,0.95659 2.76845,2.30246 1.8045,1.27089 1.71706,1.65066 1.62674,0.83589 1.9352,0.66956 3.31744,1.94758 1.91332,1.16383 3.36446,3.43206 1.35851,1.46002 2.13174,3.1705 1.73671,1.6597 3.17411,2.00838 2.03849,1.868 2.97055,4.73465 0.87454,1.94811 1.8309,2.18245 0.84519,1.1651 0.90526,2.24925 1.52539,2.5427 2.35583,3.69672 2.06811,2.13924 1.72052,1.96252 1.04979,2.83805 0.714,1.88678 0.61539,2.20509 0.84064,2.75119 0.81099,1.72121 0.99166,5.69261 0.7583,2.60068 0.64192,3.66312 1.41926,3.9693 0.677,1.75554 0.54943,3.44267 0.1963,3.60184 0.41525,4.33721 -0.48057,3.14292 0.46222,3.19202 z"
         style="opacity:1;fill:url(#linearGradient4768);fill-opacity:1;stroke:none;stroke-width:3.1;stroke-linecap:round;stroke-linejoin:round;stroke-miterlimit:4;stroke-dashoffset:4.15;stroke-opacity:1" />
    </clipPath>
    <linearGradient
       inkscape:collect="always"
       xlink:href="#linearGradient4380"
       id="linearGradient4768"
       gradientUnits="userSpaceOnUse"
       gradientTransform="translate(278.07292,2.39718)"
       x1="141.34319"
       y1="671.07355"
       x2="148.66815"
       y2="452.41049" />
    <filter
       inkscape:collect="always"
       id="filter4814">
      <feGaussianBlur
         inkscape:collect="always"
         stdDeviation="4.2972913"
         id="feGaussianBlur4816" />
    </filter>
    <filter
       inkscape:collect="always"
       id="filter4860">
      <feGaussianBlur
         inkscape:collect="always"
         stdDeviation="0.91484375"
         id="feGaussianBlur4862" />
    </filter>
    <linearGradient
       inkscape:collect="always"
       xlink:href="#linearGradient4380"
       id="linearGradient5161"
       gradientUnits="userSpaceOnUse"
       x1="141.34319"
       y1="671.07355"
       x2="148.66815"
       y2="452.41049" />
    <linearGradient
       inkscape:collect="always"
       xlink:href="#linearGradient5124"
       id="linearGradient5163"
       gradientUnits="userSpaceOnUse"
       x1="155.75122"
       y1="626.15442"
       x2="161.07831"
       y2="449.02039" />
    <linearGradient
       inkscape:collect="always"
       xlink:href="#linearGradient4770"
       id="linearGradient5165"
       gradientUnits="userSpaceOnUse"
       gradientTransform="translate(-358.37847,2)"
       x1="765.98804"
       y1="467.65207"
       x2="756.31836"
       y2="734.93768" />
    <linearGradient
       inkscape:collect="always"
       xlink:href="#linearGradient5116"
       id="linearGradient5167"
       gradientUnits="userSpaceOnUse"
       gradientTransform="translate(-1,1)"
       x1="455.88254"
       y1="704.27478"
       x2="455.88254"
       y2="579.6214" />
    <radialGradient
       inkscape:collect="always"
       xlink:href="#linearGradient4342"
       id="radialGradient5169"
       gradientUnits="userSpaceOnUse"
       gradientTransform="matrix(1,0,0,1.0210791,0,-12.432448)"
       cx="150.76479"
       cy="589.79974"
       fx="137.58029"
       fy="521.71661"
       r="96.33165" />
    <radialGradient
       inkscape:collect="always"
       xlink:href="#linearGradient4342"
       id="radialGradient5171"
       gradientUnits="userSpaceOnUse"
       gradientTransform="matrix(1,0,0,1.0210791,0,-12.432448)"
       cx="150.76479"
       cy="589.79974"
       fx="137.58029"
       fy="521.71661"
       r="96.33165" />
    <linearGradient
       inkscape:collect="always"
       xlink:href="#linearGradient5014"
       id="linearGradient5173"
       gradientUnits="userSpaceOnUse"
       x1="325.09213"
       y1="553.5791"
       x2="340.59402"
       y2="553.5791" />
    <linearGradient
       inkscape:collect="always"
       xlink:href="#linearGradient5014"
       id="linearGradient5175"
       gradientUnits="userSpaceOnUse"
       x1="334.01904"
       y1="624.96216"
       x2="341.72147"
       y2="624.96216" />
    <linearGradient
       inkscape:collect="always"
       xlink:href="#linearGradient5014"
       id="linearGradient5177"
       gradientUnits="userSpaceOnUse"
       x1="370.76263"
       y1="515.48956"
       x2="382.30228"
       y2="515.48956" />
    <linearGradient
       inkscape:collect="always"
       xlink:href="#linearGradient5014"
       id="linearGradient5179"
       gradientUnits="userSpaceOnUse"
       x1="363.81903"
       y1="617.62976"
       x2="378.51163"
       y2="617.62976" />
    <linearGradient
       inkscape:collect="always"
       xlink:href="#linearGradient5014"
       id="linearGradient5181"
       gradientUnits="userSpaceOnUse"
       x1="420.42398"
       y1="546.15906"
       x2="432.61298"
       y2="546.15906" />
    <linearGradient
       inkscape:collect="always"
       xlink:href="#linearGradient5014"
       id="linearGradient5183"
       gradientUnits="userSpaceOnUse"
       x1="428.91235"
       y1="526.58765"
       x2="442.65857"
       y2="526.58765" />
    <linearGradient
       inkscape:collect="always"
       xlink:href="#linearGradient5014"
       id="linearGradient5185"
       gradientUnits="userSpaceOnUse"
       x1="413.26404"
       y1="615.08453"
       x2="423.96841"
       y2="615.08453" />
    <linearGradient
       inkscape:collect="always"
       xlink:href="#linearGradient5014"
       id="linearGradient5187"
       gradientUnits="userSpaceOnUse"
       x1="477.00308"
       y1="568.83582"
       x2="482.37894"
       y2="568.83582" />
    <linearGradient
       inkscape:collect="always"
       xlink:href="#linearGradient5014"
       id="linearGradient5189"
       gradientUnits="userSpaceOnUse"
       x1="494.4227"
       y1="525.18286"
       x2="506.04391"
       y2="525.18286" />
    <linearGradient
       inkscape:collect="always"
       xlink:href="#linearGradient5014"
       id="linearGradient5191"
       gradientUnits="userSpaceOnUse"
       x1="479.78738"
       y1="635.82928"
       x2="483.61481"
       y2="635.82928" />
    <linearGradient
       inkscape:collect="always"
       xlink:href="#linearGradient5014"
       id="linearGradient5193"
       gradientUnits="userSpaceOnUse"
       x1="513.08533"
       y1="621.65179"
       x2="524.66235"
       y2="621.65179" />
    <linearGradient
       inkscape:collect="always"
       xlink:href="#linearGradient4930"
       id="linearGradient5195"
       gradientUnits="userSpaceOnUse"
       x1="46.745018"
       y1="548.95428"
       x2="77.908363"
       y2="592.10358" />
    <radialGradient
       inkscape:collect="always"
       xlink:href="#linearGradient5199"
       id="radialGradient5205"
       cx="148.66815"
       cy="586.32043"
       fx="145.52106"
       fy="618.05389"
       r="109.27871"
       gradientTransform="matrix(0.8384765,-0.00888785,0.00902676,0.8515813,18.720827,88.342287)"
       gradientUnits="userSpaceOnUse" />
    <linearGradient
       inkscape:collect="always"
       xlink:href="#linearGradient5124"
       id="linearGradient107"
       gradientUnits="userSpaceOnUse"
       x1="155.75122"
       y1="626.15442"
       x2="161.07831"
       y2="449.02039" />
  </defs>
  <g
     id="g5132"
     transform="matrix(1.1395983,0,0,1.1395983,-7.7506933,-510.12123)">
    <g
       id="g5079">
      <path
         sodipodi:nodetypes="cccccccccccccccccccccccccccccccccccccccccccccccccccccccccccccccccccccccccccccccccccccccccccccccccccccccccccccccccccccccccccccccccccccccccccccccccccccccccccccccccccccccccccccccccccccccccccccccccccccccccccccccccccccc"
         id="path4776"
         d="m 257.69687,589.1106 -0.35603,2.96795 -0.76003,2.56736 -0.62831,4.02853 -0.034,9.49632 -0.46129,3.25968 -1.29483,3.3767 -0.25973,2.30725 -0.30904,5.00262 -0.58893,2.51093 -0.87646,1.99149 -2.04668,3.51206 -0.95667,2.08324 -0.84836,2.44189 -1.27465,2.73878 -0.92103,1.45198 -1.92511,2.03043 -0.72961,1.27007 -1.9358,4.43906 -0.7142,1.47355 -1.98563,2.31348 -2.56577,3.78624 -3.54093,4.02247 -2.25885,1.67174 -2.94093,2.21879 -1.99404,2.38721 -3.606,4.96624 -1.03585,0.99634 -6.36474,4.1137 -1.61234,1.43771 -1.47131,1.6507 -2.06897,1.65833 -1.24485,1.42209 -1.15586,1.10748 -3.96556,1.90163 -1.67224,0.79096 -2.11722,0.3172 -4.17276,1.78958 -2.60447,1.81901 -1.21682,1.05848 -2.96333,0.6163 -1.65322,0.46127 -2.59578,1.02165 -1.78342,0.5723 -1.58504,1.1777 -3.93821,1.03358 -2.41228,0.33623 -2.66128,0.62122 -2.14026,0.56244 -3.76491,0.10892 -1.66636,0.35554 -2.71679,0.87886 -2.17437,0.38358 -4.53429,0.37385 -2.16816,0.60079 -3.50368,-0.0526 -2.25174,-0.35246 -3.41076,0.005 -4.27589,-0.59746 -3.04732,-0.69011 -5.16291,-1.51111 -5.03455,0.17234 -3.22503,0.0455 -1.72052,-0.47339 -2.31136,-0.98462 -2.78704,-0.9442 -5.47009,-2.08686 -6.17523,-1.93016 -2.57017,-2.00396 -3.126302,-1.78489 -4.960454,-2.27889 -1.986079,-0.91238 -1.972418,-1.3752 -2.545137,-1.80875 -3.434997,-2.708 -2.207925,-1.53842 -5.720237,-4.66176 -1.726471,-1.42635 -1.772509,-1.09991 -1.440274,-1.34292 -1.545667,-1.46883 -1.984187,-1.47317 -2.053395,-2.59843 -0.916467,-1.70136 -1.284292,-3.25125 -2.416819,-2.79455 -2.009278,-3.11138 -1.340189,-3.00234 -0.600256,-1.82686 -1.617236,-1.37846 -1.436794,-1.90049 -1.443507,-2.49152 -1.704991,-2.40154 -0.942988,-2.19883 -1.937852,-5.66434 -0.517064,-2.43885 -0.376317,-2.38566 -1.617566,-2.79366 -2.53707,-6.15597 -0.939308,-2.76268 -0.400793,-1.85706 0.268983,-1.93592 -0.727517,-3.0335 0.08469,-5.48451 -0.457063,-8.01655 -0.491763,-4.99589 0.311447,-1.93504 0.540778,-2.57916 -0.268244,-1.75819 -0.348257,-1.9383 -0.03187,-1.89349 0.760212,-6.36431 0.393173,-2.11053 2.168757,-4.92733 2.238584,-4.77191 1.40796,-2.06467 0.409107,-1.98257 0.162026,-3.73867 0.473302,-2.41428 1.433865,-4.05208 1.749988,-2.45097 1.81823,-1.97886 1.753334,-2.89463 0.645905,-2.50746 2.269385,-5.48959 0.887543,-1.85854 1.642082,-1.94815 1.960115,-1.59387 3.076613,-2.29054 3.349478,-3.39883 2.022855,-1.27649 1.049543,-1.60074 2.703348,-4.19177 1.629336,-1.64659 1.499164,-2.57679 1.951705,-2.15966 2.66013,-2.00034 2.382793,-1.90525 2.273048,-1.06276 3.293892,-2.35125 2.328135,-1.94795 3.020812,-1.87194 3.396875,-1.17159 3.45547,-0.54624 2.62181,-0.64239 1.81045,-1.13888 1.83488,-0.54104 2.73802,-1.82983 4.22836,-2.23491 2.01493,-0.78097 1.78872,-0.46815 2.75261,-0.0458 2.3299,0.3377 2.11704,-0.244 2.99753,-0.72695 5.39657,-0.73753 3.75635,-0.60244 2.82019,-0.58303 2.46837,-0.37533 2.20694,-0.36254 3.66698,-0.71575 2.47433,-0.13931 7.10345,0.77511 5.11355,1.79394 2.13806,0.0905 3.85911,1.39958 2.89464,1.05678 2.90797,0.65129 4.46734,0.0118 2.11373,-0.39594 5.8928,2.1351 2.33048,2.03742 5.17618,2.49787 2.91322,1.60176 2.19435,0.23409 2.33749,0.95659 2.76845,2.30246 1.8045,1.27089 1.71706,1.65066 1.62674,0.83589 1.9352,0.66956 3.31744,1.94758 1.91332,1.16383 3.36446,3.43206 1.35851,1.46002 2.13174,3.1705 1.73671,1.6597 3.17411,2.00838 2.03849,1.868 2.97055,4.73465 0.87454,1.94811 1.8309,2.18245 0.84519,1.1651 0.90526,2.24925 1.52539,2.5427 2.35583,3.69672 2.06811,2.13924 1.72052,1.96252 1.04979,2.83805 0.714,1.88678 0.61539,2.20509 0.84064,2.75119 0.81099,1.72121 0.99166,5.69261 0.7583,2.60068 0.64192,3.66312 1.41926,3.9693 0.677,1.75554 0.54943,3.44267 0.1963,3.60184 0.41525,4.33721 -0.48057,3.14292 0.46222,3.19202 z"
         style="opacity:1;fill:#432615;fill-opacity:1;stroke:none;stroke-width:3.1;stroke-linecap:round;stroke-linejoin:round;stroke-miterlimit:4;stroke-dashoffset:4.15;stroke-opacity:1;filter:url(#filter4814)"
         transform="matrix(0.9838549,0,0,0.9838549,2.4002632,11.278876)" />
      <path
         style="opacity:1;fill:url(#linearGradient5161);fill-opacity:1;stroke:url(#linearGradient107);stroke-width:0.5;stroke-linecap:round;stroke-linejoin:round;stroke-miterlimit:4;stroke-dasharray:none;stroke-dashoffset:4.15;stroke-opacity:1"
         d="m 257.69687,586.1106 -0.35603,2.96795 -0.76003,2.56736 -0.62831,4.02853 -0.034,9.49632 -0.46129,3.25968 -1.29483,3.3767 -0.25973,2.30725 -0.30904,5.00262 -0.58893,2.51093 -0.87646,1.99149 -2.04668,3.51206 -0.95667,2.08324 -0.84836,2.44189 -1.27465,2.73878 -0.92103,1.45198 -1.92511,2.03043 -0.72961,1.27007 -1.9358,4.43906 -0.7142,1.47355 -1.98563,2.31348 -2.56577,3.78624 -3.54093,4.02247 -2.25885,1.67174 -2.94093,2.21879 -1.99404,2.38721 -3.606,4.96624 -1.03585,0.99634 -6.36474,4.1137 -1.61234,1.43771 -1.47131,1.6507 -2.06897,1.65833 -1.24485,1.42209 -1.15586,1.10748 -3.96556,1.90163 -1.67224,0.79096 -2.11722,0.3172 -4.17276,1.78958 -2.60447,1.81901 -1.21682,1.05848 -2.96333,0.6163 -1.65322,0.46127 -2.59578,1.02165 -1.78342,0.5723 -1.58504,1.1777 -3.93821,1.03358 -2.41228,0.33623 -2.66128,0.62122 -2.14026,0.56244 -3.76491,0.10892 -1.66636,0.35554 -2.71679,0.87886 -2.17437,0.38358 -4.53429,0.37385 -2.16816,0.60079 -3.50368,-0.0526 -2.25174,-0.35246 -3.41076,0.005 -4.27589,-0.59746 -3.04732,-0.69011 -5.16291,-1.51111 -5.03455,0.17234 -3.22503,0.0455 -1.72052,-0.47339 -2.31136,-0.98462 -2.78704,-0.9442 -5.47009,-2.08686 -6.17523,-1.93016 -2.57017,-2.00396 -3.126302,-1.78489 -4.960454,-2.27889 -1.986079,-0.91238 -1.972418,-1.3752 -2.545137,-1.80875 -3.434997,-2.708 -2.207925,-1.53842 -5.720237,-4.66176 -1.726471,-1.42635 -1.772509,-1.09991 -1.440274,-1.34292 -1.545667,-1.46883 -1.984187,-1.47317 -2.053395,-2.59843 -0.916467,-1.70136 -1.284292,-3.25125 -2.416819,-2.79455 -2.009278,-3.11138 -1.340189,-3.00234 -0.600256,-1.82686 -1.617236,-1.37846 -1.436794,-1.90049 -1.443507,-2.49152 -1.704991,-2.40154 -0.942988,-2.19883 -1.937852,-5.66434 -0.517064,-2.43885 -0.376317,-2.38566 -1.617566,-2.79366 -2.53707,-6.15597 -0.939308,-2.76268 -0.400793,-1.85706 0.268983,-1.93592 -0.727517,-3.0335 0.08469,-5.48451 -0.457063,-8.01655 -0.491763,-4.99589 0.311447,-1.93504 0.540778,-2.57916 -0.268244,-1.75819 -0.348257,-1.9383 -0.03187,-1.89349 0.760212,-6.36431 0.393173,-2.11053 2.168757,-4.92733 2.238584,-4.77191 1.40796,-2.06467 0.409107,-1.98257 0.162026,-3.73867 0.473302,-2.41428 1.433865,-4.05208 1.749988,-2.45097 1.81823,-1.97886 1.753334,-2.89463 0.645905,-2.50746 2.269385,-5.48959 0.887543,-1.85854 1.642082,-1.94815 1.960115,-1.59387 3.076613,-2.29054 3.349478,-3.39883 2.022855,-1.27649 1.049543,-1.60074 2.703348,-4.19177 1.629336,-1.64659 1.499164,-2.57679 1.951705,-2.15966 2.66013,-2.00034 2.382793,-1.90525 2.273048,-1.06276 3.293892,-2.35125 2.328135,-1.94795 3.020812,-1.87194 3.396875,-1.17159 3.45547,-0.54624 2.62181,-0.64239 1.81045,-1.13888 1.83488,-0.54104 2.73802,-1.82983 4.22836,-2.23491 2.01493,-0.78097 1.78872,-0.46815 2.75261,-0.0458 2.3299,0.3377 2.11704,-0.244 2.99753,-0.72695 5.39657,-0.73753 3.75635,-0.60244 2.82019,-0.58303 2.46837,-0.37533 2.20694,-0.36254 3.66698,-0.71575 2.47433,-0.13931 7.10345,0.77511 5.11355,1.79394 2.13806,0.0905 3.85911,1.39958 2.89464,1.05678 2.90797,0.65129 4.46734,0.0118 2.11373,-0.39594 5.8928,2.1351 2.33048,2.03742 5.17618,2.49787 2.91322,1.60176 2.19435,0.23409 2.33749,0.95659 2.76845,2.30246 1.8045,1.27089 1.71706,1.65066 1.62674,0.83589 1.9352,0.66956 3.31744,1.94758 1.91332,1.16383 3.36446,3.43206 1.35851,1.46002 2.13174,3.1705 1.73671,1.6597 3.17411,2.00838 2.03849,1.868 2.97055,4.73465 0.87454,1.94811 1.8309,2.18245 0.84519,1.1651 0.90526,2.24925 1.52539,2.5427 2.35583,3.69672 2.06811,2.13924 1.72052,1.96252 1.04979,2.83805 0.714,1.88678 0.61539,2.20509 0.84064,2.75119 0.81099,1.72121 0.99166,5.69261 0.7583,2.60068 0.64192,3.66312 1.41926,3.9693 0.677,1.75554 0.54943,3.44267 0.1963,3.60184 0.41525,4.33721 -0.48057,3.14292 0.46222,3.19202 z"
         id="path2319"
         sodipodi:nodetypes="cccccccccccccccccccccccccccccccccccccccccccccccccccccccccccccccccccccccccccccccccccccccccccccccccccccccccccccccccccccccccccccccccccccccccccccccccccccccccccccccccccccccccccccccccccccccccccccccccccccccccccccccccccccc" />
      <path
         sodipodi:nodetypes="cccccccccccccccccccccccccccccccccccccccccccccccccccccccccccccccccccccccccccccccccccccccccccccccccccccccccccccccccccccccccccccccccccccccccccccccccccccccccccccccccccccccccccccccccccccccccccccccccccccccccccccccccccccc"
         id="path5197"
         d="m 257.69687,586.1106 -0.35603,2.96795 -0.76003,2.56736 -0.62831,4.02853 -0.034,9.49632 -0.46129,3.25968 -1.29483,3.3767 -0.25973,2.30725 -0.30904,5.00262 -0.58893,2.51093 -0.87646,1.99149 -2.04668,3.51206 -0.95667,2.08324 -0.84836,2.44189 -1.27465,2.73878 -0.92103,1.45198 -1.92511,2.03043 -0.72961,1.27007 -1.9358,4.43906 -0.7142,1.47355 -1.98563,2.31348 -2.56577,3.78624 -3.54093,4.02247 -2.25885,1.67174 -2.94093,2.21879 -1.99404,2.38721 -3.606,4.96624 -1.03585,0.99634 -6.36474,4.1137 -1.61234,1.43771 -1.47131,1.6507 -2.06897,1.65833 -1.24485,1.42209 -1.15586,1.10748 -3.96556,1.90163 -1.67224,0.79096 -2.11722,0.3172 -4.17276,1.78958 -2.60447,1.81901 -1.21682,1.05848 -2.96333,0.6163 -1.65322,0.46127 -2.59578,1.02165 -1.78342,0.5723 -1.58504,1.1777 -3.93821,1.03358 -2.41228,0.33623 -2.66128,0.62122 -2.14026,0.56244 -3.76491,0.10892 -1.66636,0.35554 -2.71679,0.87886 -2.17437,0.38358 -4.53429,0.37385 -2.16816,0.60079 -3.50368,-0.0526 -2.25174,-0.35246 -3.41076,0.005 -4.27589,-0.59746 -3.04732,-0.69011 -5.16291,-1.51111 -5.03455,0.17234 -3.22503,0.0455 -1.72052,-0.47339 -2.31136,-0.98462 -2.78704,-0.9442 -5.47009,-2.08686 -6.17523,-1.93016 -2.57017,-2.00396 -3.126302,-1.78489 -4.960454,-2.27889 -1.986079,-0.91238 -1.972418,-1.3752 -2.545137,-1.80875 -3.434997,-2.708 -2.207925,-1.53842 -5.720237,-4.66176 -1.726471,-1.42635 -1.772509,-1.09991 -1.440274,-1.34292 -1.545667,-1.46883 -1.984187,-1.47317 -2.053395,-2.59843 -0.916467,-1.70136 -1.284292,-3.25125 -2.416819,-2.79455 -2.009278,-3.11138 -1.340189,-3.00234 -0.600256,-1.82686 -1.617236,-1.37846 -1.436794,-1.90049 -1.443507,-2.49152 -1.704991,-2.40154 -0.942988,-2.19883 -1.937852,-5.66434 -0.517064,-2.43885 -0.376317,-2.38566 -1.617566,-2.79366 -2.53707,-6.15597 -0.939308,-2.76268 -0.400793,-1.85706 0.268983,-1.93592 -0.727517,-3.0335 0.08469,-5.48451 -0.457063,-8.01655 -0.491763,-4.99589 0.311447,-1.93504 0.540778,-2.57916 -0.268244,-1.75819 -0.348257,-1.9383 -0.03187,-1.89349 0.760212,-6.36431 0.393173,-2.11053 2.168757,-4.92733 2.238584,-4.77191 1.40796,-2.06467 0.409107,-1.98257 0.162026,-3.73867 0.473302,-2.41428 1.433865,-4.05208 1.749988,-2.45097 1.81823,-1.97886 1.753334,-2.89463 0.645905,-2.50746 2.269385,-5.48959 0.887543,-1.85854 1.642082,-1.94815 1.960115,-1.59387 3.076613,-2.29054 3.349478,-3.39883 2.022855,-1.27649 1.049543,-1.60074 2.703348,-4.19177 1.629336,-1.64659 1.499164,-2.57679 1.951705,-2.15966 2.66013,-2.00034 2.382793,-1.90525 2.273048,-1.06276 3.293892,-2.35125 2.328135,-1.94795 3.020812,-1.87194 3.396875,-1.17159 3.45547,-0.54624 2.62181,-0.64239 1.81045,-1.13888 1.83488,-0.54104 2.73802,-1.82983 4.22836,-2.23491 2.01493,-0.78097 1.78872,-0.46815 2.75261,-0.0458 2.3299,0.3377 2.11704,-0.244 2.99753,-0.72695 5.39657,-0.73753 3.75635,-0.60244 2.82019,-0.58303 2.46837,-0.37533 2.20694,-0.36254 3.66698,-0.71575 2.47433,-0.13931 7.10345,0.77511 5.11355,1.79394 2.13806,0.0905 3.85911,1.39958 2.89464,1.05678 2.90797,0.65129 4.46734,0.0118 2.11373,-0.39594 5.8928,2.1351 2.33048,2.03742 5.17618,2.49787 2.91322,1.60176 2.19435,0.23409 2.33749,0.95659 2.76845,2.30246 1.8045,1.27089 1.71706,1.65066 1.62674,0.83589 1.9352,0.66956 3.31744,1.94758 1.91332,1.16383 3.36446,3.43206 1.35851,1.46002 2.13174,3.1705 1.73671,1.6597 3.17411,2.00838 2.03849,1.868 2.97055,4.73465 0.87454,1.94811 1.8309,2.18245 0.84519,1.1651 0.90526,2.24925 1.52539,2.5427 2.35583,3.69672 2.06811,2.13924 1.72052,1.96252 1.04979,2.83805 0.714,1.88678 0.61539,2.20509 0.84064,2.75119 0.81099,1.72121 0.99166,5.69261 0.7583,2.60068 0.64192,3.66312 1.41926,3.9693 0.677,1.75554 0.54943,3.44267 0.1963,3.60184 0.41525,4.33721 -0.48057,3.14292 0.46222,3.19202 z"
         style="opacity:0.624;fill:url(#radialGradient5205);fill-opacity:1;stroke:url(#linearGradient5163);stroke-width:0.5;stroke-linecap:round;stroke-linejoin:round;stroke-miterlimit:4;stroke-dasharray:none;stroke-dashoffset:4.15;stroke-opacity:1" />
      <g
         id="g4758"
         transform="translate(-278.17152,-1.6985884)"
         clip-path="url(#clipPath4764)">
        <path
           id="path4616"
           d="m 430.19948,479.439 -2.46875,0.15625 -3.65625,0.71875 -2.21875,0.34375 -2.46875,0.375 -2.8125,0.59375 -3.75,0.59375 -5.40625,0.75 -3,0.71875 -2.125,0.25 -2.3125,-0.34375 -2.75,0.0625 -1.8125,0.46875 -2,0.78125 -4.21875,2.21875 -2.75,1.84375 -1.84375,0.53125 -1.8125,1.15625 -2.625,0.625 -3.43749,0.5625 -3.40625,1.15625 -3,1.875 -2.34375,1.9375 -3.28125,2.375 -2.28125,1.0625 -2.375,1.90625 -2.65625,2 -1.96875,2.15625 -1.5,2.5625 -1.625,1.65625 -2.71875,4.1875 -1.03125,1.59375 -2.03125,1.28125 -3.34375,3.40625 -3.09375,2.28125 -1.9375,1.59375 -1.65625,1.9375 -0.875,1.875 -2.28125,5.5 -0.625,2.5 -1.78125,2.875 -1.8125,2 -1.75,2.4375 -1.4375,4.0625 -0.46875,2.40625 -0.15625,3.75 -0.40625,1.96875 -1.40625,2.0625 -2.25,4.78125 -2.15625,4.9375 -0.40625,2.09375 -0.75,6.375 0.0312,1.875 0.34375,1.9375 0.28125,1.78125 -0.5625,2.5625 -0.3125,1.9375 0.5,5 0.0937,1.6875 0.375,-3.15625 0.40625,-2.09375 2.15625,-4.9375 2.25,-4.78125 1.40625,-2.0625 0.40625,-1.96875 0.15625,-3.75 0.46875,-2.40625 1.4375,-4.0625 1.75,-2.4375 1.8125,-2 1.78125,-2.875 0.625,-2.5 2.28125,-5.5 0.875,-1.875 1.65625,-1.9375 1.9375,-1.59375 3.09375,-2.28125 3.34375,-3.40625 2.03125,-1.28125 1.03125,-1.59375 2.71875,-4.1875 1.625,-1.65625 1.5,-2.5625 1.96875,-2.15625 2.65625,-2 2.375,-1.90625 2.28125,-1.0625 3.28125,-2.375 2.34375,-1.9375 3,-1.875 3.40625,-1.15625 3.43749,-0.5625 2.625,-0.625 1.8125,-1.15625 1.84375,-0.53125 2.75,-1.84375 4.21875,-2.21875 2,-0.78125 1.8125,-0.46875 2.75,-0.0625 2.3125,0.34375 2.125,-0.25 3,-0.71875 5.40625,-0.75 3.75,-0.59375 2.8125,-0.59375 2.46875,-0.375 2.21875,-0.34375 3.65625,-0.71875 2.46875,-0.15625 7.125,0.78125 5.09375,1.8125 2.15625,0.0937 3.84375,1.375 2.90625,1.0625 2.90625,0.65625 h 4.46875 l 2.09375,-0.375 5.90625,2.125 2.34375,2.03125 5.15625,2.5 2.90625,1.59375 2.21875,0.25 2.3125,0.96875 2.78125,2.28125 1.8125,1.28125 1.71875,1.65625 1.625,0.8125 1.9375,0.6875 3.3125,1.9375 1.90625,1.15625 3.375,3.4375 1.34375,1.46875 2.125,3.15625 1.75,1.6875 3.1875,2 2.03125,1.875 2.96875,4.71875 0.875,1.9375 1.8125,2.1875 0.84375,1.1875 0.90625,2.25 1.53125,2.53125 2.375,3.6875 2.0625,2.15625 1.71875,1.9375 1.03125,2.84375 0.71875,1.90625 0.625,2.1875 0.84375,2.75 0.8125,1.71875 1,5.71875 0.75,2.59375 0.625,3.65625 1.4375,3.96875 0.65625,1.75 0.5625,3.4375 0.0625,0.90625 0.65625,-2.28125 0.34375,-2.96875 -0.46875,-1.375 -0.46875,-3.1875 0.5,-3.15625 -0.4375,-4.3125 -0.1875,-3.625 -0.5625,-3.4375 -0.65625,-1.75 -1.4375,-3.96875 -0.625,-3.65625 -0.75,-2.59375 -1,-5.71875 -0.8125,-1.71875 -0.84375,-2.75 -0.625,-2.1875 -0.71875,-1.90625 -1.03125,-2.84375 -1.71875,-1.9375 -2.0625,-2.15625 -2.375,-3.6875 -1.53125,-2.53125 -0.90625,-2.25 -0.84375,-1.1875 -1.8125,-2.1875 -0.875,-1.9375 -2.96875,-4.71875 -2.03125,-1.875 -3.1875,-2 -1.75,-1.6875 -2.125,-3.15625 -1.34375,-1.46875 -3.375,-3.4375 -1.90625,-1.15625 -3.3125,-1.9375 -1.9375,-0.6875 -1.625,-0.8125 -1.71875,-1.65625 -1.8125,-1.28125 -2.78125,-2.28125 -2.3125,-0.96875 -2.21875,-0.25 -2.90625,-1.59375 -5.15625,-2.5 -2.34375,-2.03125 -5.90625,-2.125 -2.09375,0.375 h -4.46875 l -2.90625,-0.65625 -2.90625,-1.0625 -3.84375,-1.375 -2.15625,-0.0937 -5.09375,-1.8125 z"
           style="opacity:1;fill:#e1c58a;fill-opacity:1;stroke:none;stroke-width:3.1;stroke-linecap:round;stroke-linejoin:round;stroke-miterlimit:4;stroke-dashoffset:4.15;stroke-opacity:1;filter:url(#filter4750)" />
        <path
           id="path4624"
           d="m 430.21528,479.03125 -2.46875,0.15625 -3.6875,0.71875 -2.1875,0.34375 -2.46875,0.375 -2.84375,0.59375 -3.75,0.59375 -5.40625,0.75 -2.96875,0.71875 -2.125,0.25 -2.34375,-0.34375 -2.75,0.0625 -1.78125,0.46875 -2.03125,0.78125 -4.21875,2.21875 -2.71875,1.84375 -1.84375,0.53125 -1.8125,1.15625 -2.625,0.625 -3.46874,0.5625 -3.375,1.15625 -3.03125,1.875 -2.3125,1.9375 -3.3125,2.375 -2.28125,1.0625 -2.375,1.90625 -2.65625,2 -1.9375,2.15625 -1.5,2.5625 -1.65625,1.65625 -2.6875,4.1875 -1.0625,1.59375 -2,1.28125 -3.375,3.40625 -3.0625,2.28125 -1.96875,1.59375 -1.625,1.9375 -0.90625,1.875 -2.25,5.5 -0.65625,2.5 -1.75,2.875 -1.8125,2 -1.75,2.4375 -1.4375,4.0625 -0.46875,2.40625 -0.15625,3.75 -0.4375,1.96875 -1.40625,2.0625 -2.21875,4.78125 -2.1875,4.9375 -0.375,2.09375 -0.78125,6.375 0.0312,1.875 0.375,1.9375 0.25,1.78125 -0.53125,2.5625 -0.3125,1.9375 0.5,5 0.4375,8.03125 -0.0625,5.46875 0.71875,3.03125 -0.28125,1.9375 0.40625,1.84375 0.9375,2.78125 2.53125,6.15625 1.625,2.78125 0.375,2.40625 0.53125,2.4375 1.9375,5.65625 0.9375,2.1875 1.6875,2.40625 1.46875,2.5 1.4375,1.90625 1.59375,1.375 0.625,1.8125 1.3125,3 2.03125,3.125 2.40625,2.78125 1.28125,3.25 0.90625,1.71875 2.0625,2.59375 2,1.46875 1.53125,1.46875 1.4375,1.34375 1.78125,1.09375 1.71875,1.4375 5.71875,4.65625 2.21875,1.53125 3.4375,2.71875 2.53125,1.8125 1.96875,1.375 2,0.90625 4.96875,2.28125 3.12499,1.78125 2.5625,2 6.1875,1.9375 5.46875,2.09375 2.78125,0.9375 2.3125,0.96875 1.71875,0.5 3.21875,-0.0625 5.03125,-0.15625 5.15625,1.5 3.0625,0.6875 4.28125,0.59375 h 3.40625 l 2.25,0.34375 3.5,0.0625 2.15625,-0.59375 4.53125,-0.375 2.1875,-0.375 2.71875,-0.90625 1.65625,-0.34375 3.78125,-0.0937 2.125,-0.5625 2.65625,-0.625 2.4375,-0.34375 3.9375,-1.03125 1.5625,-1.1875 1.78125,-0.5625 2.625,-1.03125 1.625,-0.46875 2.96875,-0.59375 1.21875,-1.0625 2.625,-1.8125 4.15625,-1.8125 2.125,-0.3125 1.65625,-0.78125 3.96875,-1.90625 1.15625,-1.09375 1.25,-1.4375 2.0625,-1.65625 1.46875,-1.65625 1.625,-1.4375 6.375,-4.09375 1.03125,-1 3.59375,-4.96875 2,-2.40625 2.9375,-2.21875 2.25,-1.65625 3.5625,-4.03125 2.5625,-3.78125 1.96875,-2.3125 0.71875,-1.46875 1.9375,-4.4375 0.71875,-1.28125 1.9375,-2.03125 0.9375,-1.4375 1.25,-2.75 0.84375,-2.4375 0.96875,-2.09375 2.0625,-3.5 0.875,-2 0.5625,-2.5 0.3125,-5 0.28125,-2.3125 1.28125,-3.375 0.46875,-3.28125 0.0312,-9.46875 0.625,-4.03125 0.75,-2.5625 0.375,-2.96875 -0.46875,-1.375 -0.46875,-3.1875 0.46875,-3.15625 -0.40625,-4.3125 -0.1875,-3.625 -0.5625,-3.4375 -0.6875,-1.75 -1.40625,-3.96875 -0.65625,-3.65625 -0.75,-2.59375 -1,-5.71875 -0.8125,-1.71875 -0.84375,-2.75 -0.59375,-2.1875 -0.71875,-1.90625 -1.0625,-2.84375 -1.71875,-1.9375 -2.0625,-2.15625 -2.34375,-3.6875 -1.53125,-2.53125 -0.90625,-2.25 -0.84375,-1.1875 -1.84375,-2.1875 -0.875,-1.9375 -2.96875,-4.71875 -2.03125,-1.875 -3.1875,-2 -1.71875,-1.6875 -2.125,-3.15625 -1.375,-1.46875 -3.34375,-3.4375 -1.9375,-1.15625 -3.3125,-1.9375 -1.9375,-0.6875 -1.625,-0.8125 -1.71875,-1.65625 -1.8125,-1.28125 -2.75,-2.28125 -2.34375,-0.96875 -2.1875,-0.25 -2.90625,-1.59375 -5.1875,-2.5 -2.34375,-2.03125 -5.875,-2.125 -2.125,0.375 h -4.46875 l -2.90625,-0.65625 -2.875,-1.0625 -3.875,-1.375 -2.125,-0.0937 -5.125,-1.8125 z m -0.15625,11.6 6.84375,0.75 4.90625,1.75 2.0625,0.0625 3.71875,1.34375 2.78125,1.03125 2.8125,0.625 4.28125,-0.4 2.03125,-0.375 5.65625,2.0625 2.25,1.96875 4.96875,2.375 2.8125,1.5625 2.125,0.21875 2.21875,0.90625 2.6875,2.21875 1.71875,1.21875 1.65625,1.19375 1.5625,0.8125 1.875,0.625 3.1875,1.875 1.84375,1.125 3.21875,3.3125 1.3125,1.40625 2.03125,2.63125 1.6875,1.59375 3.0625,1.9375 1.9375,1.8125 2.875,4.53125 0.84375,1.475 1.75,2.09375 0.8125,1.125 0.875,2.15625 1.46875,2.06875 2.25,3.53125 2,2.0625 1.65625,1.90625 1,2.31875 0.6875,1.8125 0.59375,2.125 0.8125,2.25625 0.78125,1.65625 0.9375,5.46875 0.75,2.5 0.59375,3.5 1.375,3.44375 0.65625,1.6875 0.53125,3.3125 0.1875,3.0375 0.40625,4.1875 -0.46875,3.03125 0.4375,3.0625 0.46875,1.3125 -0.34375,2.84375 -0.75,2.46875 -0.59375,3.875 -0.0312,9.125 -0.4375,3.125 -1.25,3.25 -0.25,2.21875 -0.28125,4.8125 -0.59375,2.40625 -0.84375,1.9375 -1.96875,3.375 -0.90625,2 -0.8125,2.34375 -1.21875,2.625 -0.90625,1.40625 -1.84375,1.96875 -0.6875,1.21875 -1.875,4.25 -0.6875,1.4375 -1.90625,2.21875 -2.46875,3.625 -3.40625,3.875 -2.15625,1.59375 -2.84375,2.15625 -1.90625,2.28125 -3.46875,4.78125 -1,0.96875 -6.125,3.9375 -1.5625,1.375 -1.40625,1.59375 -1.96875,1.59375 -1.21875,1.375 -1.09375,1.0625 -3.8125,1.84375 -1.625,0.75 -2.03125,0.3125 -4,1.71875 -2.53125,1.75 -1.15625,1 -2.84375,0.59375 -1.59375,0.46875 -2.5,0.96875 -1.71875,0.5625 -1.53125,1.125 -3.78125,1 -2.3125,0.3125 -2.5625,0.59375 -2.0625,0.53125 -3.625,0.125 -1.59375,0.34375 -2.59375,0.84375 -2.09375,0.375 -4.375,0.34375 -2.09375,0.59375 -3.34375,-0.0625 -2.1875,-0.34375 h -3.28125 l -4.09375,-0.5625 -2.9375,-0.65625 -4.96875,-1.46875 -4.84375,0.15625 -3.09375,0.0625 -1.65625,-0.46875 -2.21875,-0.9375 -2.6875,-0.90625 -5.25,-2 -5.9375,-1.875 -2.46875,-1.90625 -3.03124,-1.71875 -4.75,-2.1875 -1.90625,-0.90625 -1.90625,-1.3125 -2.4375,-1.71875 -3.3125,-2.625 -2.125,-1.46875 -5.5,-4.5 -1.65625,-1.34375 -1.71875,-1.0625 -1.375,-1.3125 -1.46875,-1.40625 -1.9375,-1.40625 -1.96875,-2.5 -0.875,-1.65625 -1.21875,-3.125 -2.34375,-2.6875 -1.9375,-2.96875 -1.28125,-2.90625 -0.5625,-1.75 -1.5625,-1.3125 -1.375,-1.84375 -1.40625,-2.375 -1.625,-2.3125 -0.90625,-2.125 -1.875,-5.4375 -0.5,-2.34375 -0.34375,-2.3125 -1.5625,-2.6875 -2.4375,-5.90625 -0.90625,-2.65625 -0.375,-1.78125 0.25,-1.875 -0.71875,-2.90625 0.0937,-5.28125 -0.4375,-7.71875 -0.46875,-4.78125 0.28125,-1.875 0.53125,-2.46875 -0.25,-1.6875 -0.34375,-1.875 -0.0312,-1.8125 0.75,-6.125 0.375,-1.63125 2.0625,-4.75 2.15625,-4.59375 1.375,-1.96875 0.375,-1.50625 0.15625,-3.59375 0.46875,-2.3125 1.375,-3.90625 1.6875,-1.975 1.75,-1.875 1.6875,-2.8125 0.59375,-2.00625 2.1875,-5.28125 0.875,-1.78125 1.5625,-1.475 1.875,-1.53125 2.96875,-2.1875 3.21875,-2.88125 1.9375,-1.21875 1.03125,-1.53125 2.59375,-4.03125 1.5625,-1.59375 1.4375,-2.46875 1.875,-1.69375 2.5625,-1.90625 2.28125,-1.84375 2.1875,-1.03125 3.1875,-2.25 2.21875,-1.875 2.90625,-1.4125 3.28125,-1.125 3.31249,-0.5 2.53125,-0.625 1.75,-1.09375 1.75,-0.53125 2.625,-1.75 4.0625,-2.15625 1.9375,-0.75 1.71875,-0.4375 2.65625,-0.0625 2.25,0.34375 2.03125,0.15 2.875,-0.6875 5.1875,-0.71875 3.625,-0.59375 2.71875,-0.53125 2.375,-0.375 2.09375,-0.34375 3.53125,-0.6875 z"
           style="opacity:0.844;fill:url(#linearGradient5165);fill-opacity:1;stroke:none;stroke-width:3.1;stroke-linecap:round;stroke-linejoin:round;stroke-miterlimit:4;stroke-dashoffset:4.15;stroke-opacity:1;filter:url(#filter4746)"
           sodipodi:nodetypes="cccccccccccccccccccccccccccccccccccccccccccccccccccccccccccccccccccccccccccccccccccccccccccccccccccccccccccccccccccccccccccccccccccccccccccccccccccccccccccccccccccccccccccccccccccccccccccccccccccccccccccccccccccccccccccccccccccccccccccccccccccccccccccccccccccccccccccccccccccccccccccccccccccccccccccccccccccccccccccccccccccccccccccccccccccccccccccccccccccccccccccccccccccccccccccccccccccccccccccccccccccccccccccccccccccccccccccc" />
      </g>
      <g
         id="g4606"
         clip-path="url(#clipPath4610)"
         transform="translate(-306.83909)">
        <path
           id="path4458"
           d="m 564.39817,568.71875 -0.40625,2.5625 -0.0312,9.5 -0.46875,3.28125 -1.28125,3.375 -0.28125,2.28125 -0.3125,5 -0.5625,2.53125 -0.875,2 -2.0625,3.5 -0.96875,2.09375 -0.84375,2.4375 -1.25,2.71875 -0.9375,1.46875 -1.9375,2.03125 -0.71875,1.25 -1.9375,4.46875 -0.71875,1.46875 -1.96875,2.3125 -2.5625,3.78125 -3.5625,4.03125 -2.25,1.65625 -2.9375,2.21875 -2,2.375 -3.59375,4.96875 -1.03125,1 -6.375,4.125 -1.625,1.4375 -1.46875,1.65625 -2.0625,1.65625 -1.25,1.40625 -1.15625,1.125 -3.96875,1.90625 -1.65625,0.78125 -2.125,0.3125 -4.15625,1.78125 -2.625,1.84375 -1.21875,1.03125 -2.96875,0.625 -1.625,0.46875 -2.625,1.03125 -1.78125,0.5625 -1.5625,1.1875 -3.9375,1.03125 -2.4375,0.3125 -2.65625,0.625 -2.125,0.5625 -3.78125,0.125 -1.65625,0.34375 -2.71875,0.875 -2.1875,0.40625 -4.53125,0.375 -2.15625,0.59375 -3.5,-0.0625 -2.25,-0.34375 h -3.40625 l -4.28125,-0.59375 -3.0625,-0.6875 -5.15625,-1.53125 -5.03125,0.1875 -3.21875,0.0312 -1.71875,-0.46875 -2.3125,-0.96875 -2.78125,-0.96875 -5.46875,-2.0625 -6.1875,-1.9375 -2.5625,-2 -3.125,-1.78125 -4.96875,-2.28125 -2,-0.90625 -1.96875,-1.375 -2.53125,-1.8125 -3.4375,-2.71875 -2.21875,-1.53125 -5.71875,-4.65625 -1.71875,-1.4375 -1.78125,-1.09375 -1.4375,-1.34375 -1.53125,-1.46875 -2,-1.46875 -2.0625,-2.59375 -0.90625,-1.71875 -1.28125,-3.25 -2.40625,-2.78125 -2.03125,-3.125 -1.3125,-3 -0.625,-1.8125 -1.59375,-1.40625 -1.4375,-1.875 -1.46875,-2.5 -1.6875,-2.40625 -0.9375,-2.1875 -1.9375,-5.6875 -0.53125,-2.4375 -0.375,-2.375 -1.625,-2.78125 -2.53125,-6.15625 -0.9375,-2.78125 -0.40625,-1.84375 0.28125,-1.9375 -0.71875,-3.03125 0.0625,-5.5 -0.1875,-3.34375 -0.5625,4.625 0.0312,1.875 0.375,1.9375 0.25,1.78125 -0.53125,2.5625 -0.3125,1.9375 0.5,5 0.4375,8.03125 -0.0625,5.46875 0.71875,3.03125 -0.28125,1.9375 0.40625,1.84375 0.9375,2.78125 2.53125,6.15625 1.625,2.78125 0.375,2.40625 0.53125,2.4375 1.9375,5.65625 0.9375,2.1875 1.6875,2.40625 1.46875,2.5 1.4375,1.90625 1.59375,1.375 0.625,1.8125 1.3125,3 2.03125,3.125 2.40625,2.78125 1.28125,3.25 0.90625,1.71875 2.0625,2.59375 2,1.46875 1.53125,1.46875 1.4375,1.34375 1.78125,1.09375 1.71875,1.4375 5.71875,4.65625 2.21875,1.53125 3.4375,2.71875 2.53125,1.8125 1.96875,1.375 2,0.90625 4.96875,2.28125 3.125,1.78125 2.5625,2 6.1875,1.9375 5.46875,2.09375 2.78125,0.9375 2.3125,0.96875 1.71875,0.5 3.21875,-0.0625 5.03125,-0.15625 5.15625,1.5 3.0625,0.6875 4.28125,0.59375 h 3.40625 l 2.25,0.34375 3.5,0.0625 2.15625,-0.59375 4.53125,-0.375 2.1875,-0.375 2.71875,-0.90625 1.65625,-0.34375 3.78125,-0.0937 2.125,-0.5625 2.65625,-0.625 2.4375,-0.34375 3.9375,-1.03125 1.5625,-1.1875 1.78125,-0.5625 2.625,-1.03125 1.625,-0.46875 2.96875,-0.59375 1.21875,-1.0625 2.625,-1.8125 4.15625,-1.8125 2.125,-0.3125 1.65625,-0.78125 3.96875,-1.90625 1.15625,-1.09375 1.25,-1.4375 2.0625,-1.65625 1.46875,-1.65625 1.625,-1.4375 6.375,-4.09375 1.03125,-1 3.59375,-4.96875 2,-2.40625 2.9375,-2.21875 2.25,-1.65625 3.5625,-4.03125 2.5625,-3.78125 1.96875,-2.3125 0.71875,-1.46875 1.9375,-4.4375 0.71875,-1.28125 1.9375,-2.03125 0.9375,-1.4375 1.25,-2.75 0.84375,-2.4375 0.96875,-2.09375 2.0625,-3.5 0.875,-2 0.5625,-2.5 0.3125,-5 0.28125,-2.3125 1.28125,-3.375 0.46875,-3.28125 0.0312,-9.46875 0.625,-4.03125 0.75,-2.5625 0.375,-2.96875 -0.46875,-1.375 -0.46875,-3.1875 0.46875,-3.15625 -0.40625,-4.3125 -0.1875,-3.625 z"
           style="opacity:0.696;fill:#c9913d;fill-opacity:1;stroke:none;stroke-width:3.1;stroke-linecap:round;stroke-linejoin:round;stroke-miterlimit:4;stroke-dashoffset:4.15;stroke-opacity:1;filter:url(#filter4602)" />
        <path
           sodipodi:nodetypes="cccccccccccccccccccccccccccccccccccccccccccccccccccccccccccccccccccccccccccccccccccccccccccccccccccccccccccccccccccccccccccccccccccccccccccccccccccccccccccccccccccccccccccccccccccccccccccccccccccccccccccccccccccccccccc"
           id="path4472"
           d="m 346.61692,570.125 -0.21875,2.03125 0.3125,-1.53125 z m 216.5,11.46875 -0.3125,1.0625 -0.625,4.03125 -0.0312,9.46875 -0.46875,3.28125 -1.3125,3.375 -0.25,2.3125 -0.3125,5 -0.59375,2.5 -0.875,2 -2.03125,3.5 -0.96875,2.09375 -0.84375,2.4375 -1.28125,2.75 -0.90625,1.4375 -1.9375,2.03125 -0.71875,1.28125 -1.9375,4.4375 -0.71875,1.46875 -2,2.3125 -2.5625,3.78125 -3.53125,4.03125 -2.25,1.65625 -2.9375,2.21875 -2,2.40625 -3.625,4.96875 -1.03125,1 -6.34375,4.09375 -1.625,1.4375 -1.46875,1.65625 -2.0625,1.65625 -1.25,1.4375 -1.15625,1.09375 -3.96875,1.90625 -1.6875,0.78125 -2.09375,0.3125 -4.1875,1.8125 -2.59375,1.8125 -1.21875,1.0625 -2.96875,0.59375 -1.65625,0.46875 -2.59375,1.03125 -1.78125,0.5625 -1.59375,1.1875 -3.9375,1.03125 -2.40625,0.34375 -2.65625,0.625 -2.15625,0.5625 -3.75,0.0937 -1.65625,0.34375 -2.71875,0.90625 -2.1875,0.375 -4.53125,0.375 -2.15625,0.59375 -3.5,-0.0625 -2.25,-0.34375 h -3.4375 l -4.25,-0.59375 -3.0625,-0.6875 -5.15625,-1.5 -5.03125,0.15625 -3.21875,0.0625 -1.75,-0.5 -2.3125,-0.96875 -2.78125,-0.9375 -5.46875,-2.09375 -6.15625,-1.9375 -2.59375,-2 -3.125,-1.78125 -4.9375,-2.28125 -2,-0.90625 -1.96875,-1.375 -2.53125,-1.8125 -3.4375,-2.71875 -2.21875,-1.53125 -5.71875,-4.65625 -1.71875,-1.4375 -1.78125,-1.09375 -1.4375,-1.34375 -1.5625,-1.46875 -1.96875,-1.46875 -2.0625,-2.59375 -0.90625,-1.71875 -1.28125,-3.25 -2.4375,-2.78125 -2,-3.125 -1.34375,-3 -0.59375,-1.8125 -1.625,-1.375 -1.4375,-1.90625 -1.4375,-2.5 -1.6875,-2.40625 -0.96875,-2.1875 -1.9375,-5.65625 -0.5,-2.4375 -0.375,-2.40625 -1.625,-2.78125 -2.53125,-6.15625 -0.9375,-2.78125 -0.40625,-1.84375 0.28125,-1.9375 -0.75,-3.03125 0.0937,-5.46875 -0.375,-6.21875 -0.25,1.25 -0.3125,1.9375 0.46875,5 0.46875,8.03125 -0.0937,5.46875 0.75,3.03125 -0.28125,1.9375 0.40625,1.84375 0.9375,2.78125 2.53125,6.15625 1.625,2.78125 0.375,2.40625 0.5,2.4375 1.9375,5.65625 0.96875,2.1875 1.6875,2.40625 1.4375,2.5 1.4375,1.90625 1.625,1.375 0.59375,1.8125 1.34375,3 2,3.125 2.4375,2.78125 1.28125,3.25 0.90625,1.71875 2.0625,2.59375 1.96875,1.46875 1.5625,1.46875 1.4375,1.34375 1.78125,1.09375 1.71875,1.4375 5.71875,4.65625 2.21875,1.53125 3.4375,2.71875 2.53125,1.8125 1.96875,1.375 2,0.90625 4.9375,2.28125 3.125,1.78125 2.59375,2 6.15625,1.9375 5.46875,2.09375 2.78125,0.9375 2.3125,0.96875 1.75,0.5 3.21875,-0.0625 5.03125,-0.15625 5.15625,1.5 3.0625,0.6875 4.25,0.59375 h 3.4375 l 2.25,0.34375 3.5,0.0625 2.15625,-0.59375 4.53125,-0.375 2.1875,-0.375 2.71875,-0.90625 1.65625,-0.34375 3.75,-0.0937 2.15625,-0.5625 2.65625,-0.625 2.40625,-0.34375 3.9375,-1.03125 1.59375,-1.1875 1.78125,-0.5625 2.59375,-1.03125 1.65625,-0.46875 2.96875,-0.59375 1.21875,-1.0625 2.59375,-1.8125 4.1875,-1.8125 2.09375,-0.3125 1.6875,-0.78125 3.96875,-1.90625 1.15625,-1.09375 1.25,-1.4375 2.0625,-1.65625 1.46875,-1.65625 1.625,-1.4375 6.34375,-4.09375 1.03125,-1 3.625,-4.96875 2,-2.40625 2.9375,-2.21875 2.25,-1.65625 3.53125,-4.03125 2.5625,-3.78125 2,-2.3125 0.71875,-1.46875 1.9375,-4.4375 0.71875,-1.28125 1.9375,-2.03125 0.90625,-1.4375 1.28125,-2.75 0.84375,-2.4375 0.96875,-2.09375 2.03125,-3.5 0.875,-2 0.59375,-2.5 0.3125,-5 0.25,-2.3125 1.3125,-3.375 0.46875,-3.28125 0.0312,-9.46875 0.625,-4.03125 0.75,-2.5625 0.34375,-2.96875 -0.46875,-1.375 -0.46875,-3.1875 z"
           style="opacity:0.696;fill:url(#linearGradient5167);fill-opacity:1;stroke:none;stroke-width:3.1;stroke-linecap:round;stroke-linejoin:round;stroke-miterlimit:4;stroke-dashoffset:4.15;stroke-opacity:1;filter:url(#filter4598)" />
      </g>
      <path
         style="opacity:0.212;fill:url(#radialGradient5169);fill-opacity:1;fill-rule:evenodd;stroke:none;stroke-width:1px;stroke-linecap:butt;stroke-linejoin:miter;stroke-opacity:1;filter:url(#filter4448)"
         d="m 117.50256,491.4375 -1.75782,0.27277 -7.54651,5.24315 6.09176,-0.87891 h 10.18325 c -1e-5,0 -1.74169,-2.03059 -3.48534,-2.03059 -1.74365,0 -3.48534,-2.60642 -3.48534,-2.60642 z m 60.73577,1.42444 -2.03059,3.21257 -3.21257,3.18226 -2.03059,0.60615 3.48534,0.8486 3.21257,-5.51592 z m -74.40434,8.15266 -7.546515,6.39483 1.151676,0.87891 2.030587,-2.9095 5.243162,0.87891 z m 49.40084,0 -4.33394,2.03058 -5.54623,1.45475 h -9.88017 l 3.21257,2.33366 4.94009,-0.57584 c 0,0 2.90046,-0.5883 5.51592,-0.87891 2.61547,-0.29061 4.06118,-1.75782 4.06117,-1.75782 z m -23.82151,1.72751 -4.06117,2.06089 -2.60643,2.60643 -2.9095,0.27277 -3.48533,4.09148 -4.66732,-0.30308 -2.33366,-4.36424 c -10e-6,0 -2.03059,-4.93838 -2.03059,-3.48534 -1e-5,1.45304 1.75782,5.24316 1.75782,5.24316 l 0.87891,2.60642 -1.75782,2.9095 -2.9095,2.60643 -3.48533,-1.45475 -2.030589,-0.84861 0.303069,4.63702 -2.333656,1.45474 0.575838,2.33366 4.061178,-0.60614 2.33366,-2.30335 0.57583,-1.75782 4.36425,-4.63702 1.45475,-0.57583 8.72849,-1.75783 1.15168,-2.03058 2.33366,-0.87891 z m 5.51592,12.78967 -8.69818,2.63673 -1.45475,3.18226 2.60642,1.45475 4.06118,-2.60642 3.7884,-2.9095 z m -70.615932,5.54623 -1.727514,5.51592 c 0,0 -1.158775,3.20184 -2.030587,4.36425 -0.871821,1.16243 -4.091481,3.18227 -4.091481,3.18226 l -1.454749,4.36425 -0.575838,8.12234 1.181983,-1.45474 c 0,0 0.557994,-4.05043 0.848604,-5.21285 0.290601,-1.16244 1.454749,-4.36423 1.454749,-4.36425 l 3.21257,-3.78841 1.454749,-4.06117 1.727514,-2.33366 z m 154.324602,6.09176 -2.90949,0.30307 1.15167,2.87919 2.63674,0.30307 z m -47.37025,0.57584 -0.57584,4.06117 4.06117,2.63673 3.18226,2.03059 -3.18226,-4.66732 z m -40.70266,1.45475 5.54623,6.97067 1.15167,4.66732 0.30307,-5.54623 -3.21257,-4.06118 z m 63.94833,2.33365 2.33366,3.18227 4.63701,0.87891 -2.33366,-2.9095 z m -20.63925,6.39484 -2.9095,0.27276 1.75782,4.36425 1.45475,2.9095 1.72752,-4.06118 z m 26.15517,0 v 3.18226 l 3.78841,-0.87891 v -1.45475 z m 6.39484,3.7581 -2.9095,0.60614 2.9095,3.48534 4.94008,3.48534 1.75782,-0.30308 z m -81.07194,10.75908 -0.87891,4.06117 8.42542,3.78841 7.27374,2.33366 4.06117,4.36425 7.54651,-2.0609 -4.33394,-1.15167 -7.00098,-3.78841 z m 90.07319,18.03282 -1.72751,4.33394 0.87891,6.12207 -1.45475,5.51592 4.06118,0.87891 -0.57584,-6.6979 z m -122.6232,20.60895 -2.909498,4.09148 4.364246,2.90949 2.030587,-2.06089 -1.151676,-4.63701 z m 124.38103,0.60614 -2.03059,0.8486 -3.21257,3.21257 -0.87891,5.21285 h 2.33366 z m -20.94233,1.15168 -4.94008,4.63701 1.45475,3.48533 5.24316,5.819 0.57583,7.27374 4.06118,-2.33366 -0.84861,-7.24343 -3.21257,-3.51565 -2.33366,-3.7581 z m 50.8556,1.75782 -4.33394,2.30335 1.15168,4.06117 z m -158.658547,6.36452 -2.33366,3.21257 -3.182263,4.36425 -3.21257,2.9095 -2.303352,2.9095 3.758101,2.03058 1.454749,1.72752 3.21257,-2.60643 -1.181983,-4.06117 -0.272766,-3.78841 z m 36.611177,7.57682 -1.45475,0.27277 -3.48533,2.03058 0.87891,1.45475 -1.15168,3.78841 7.54651,-2.60642 -4.63701,-0.57584 z m -8.42542,7.24344 -0.87891,2.33366 v 5.24316 l 0.60615,4.36424 2.30335,4.33394 2.33366,4.66732 3.48534,3.48534 v 3.48533 l 2.90949,5.24316 2.33366,1.45475 v -3.21257 l -3.48533,-4.06118 0.27276,-4.94008 4.94009,-1.18198 7.54651,2.63673 -1.15168,-3.21257 -3.18226,-0.57584 -3.21257,-0.87891 0.87891,-1.45475 -2.9095,1.75782 -3.48534,3.18226 -2.03058,-1.45474 -0.87891,-2.03059 -2.60643,-3.18226 -1.18198,-2.60643 -1.42444,-3.51564 v -3.7581 z m 114.80393,2.33366 -11.91075,10.45601 11.33491,-5.78869 0.27277,4.94008 3.78841,4.63701 3.18226,3.78841 -3.7581,-7.84958 -0.60615,-2.63673 z m -89.52767,20.94232 -0.8486,2.87919 c 1e-5,0 0.27447,4.38747 1.72751,3.51564 1.45303,-0.87182 9.88017,-2.63673 9.88017,-2.63673 l -0.27276,-2.03059 -6.39484,0.57584 z m 48.82501,9.27402 -4.94008,4.94009 -1.72752,2.9095 -1.75782,2.90949 -3.48533,2.9095 -2.9095,2.60643 0.87891,1.18198 6.09176,-4.09148 2.63673,-3.48534 2.60643,-5.51592 z m 29.94358,3.21257 -3.78841,3.78841 -7.84958,4.94009 7.57682,-3.51565 6.39483,-4.63701 z m -23.54874,14.82026 2.63673,4.06117 4.06117,0.87891 1.72752,-1.75782 h -3.75811 z m -26.42794,9.30433 -2.63673,3.48533 -2.9095,2.60643 -4.63701,1.15168 2.90949,0.60614 3.48534,2.9095 3.48534,1.72751 -0.57584,-1.45475 -0.57584,-1.72751 0.57584,-2.9095 2.03058,-2.63673 -4.63701,3.21257 2.60643,-3.78841 z"
         id="path4278" />
      <path
         id="path4452"
         d="m 117.50256,491.4375 -1.75782,0.27277 -7.54651,5.24315 6.09176,-0.87891 h 10.18325 c -1e-5,0 -1.74169,-2.03059 -3.48534,-2.03059 -1.74365,0 -3.48534,-2.60642 -3.48534,-2.60642 z m 60.73577,1.42444 -2.03059,3.21257 -3.21257,3.18226 -2.03059,0.60615 3.48534,0.8486 3.21257,-5.51592 z m -74.40434,8.15266 -7.546515,6.39483 1.151676,0.87891 2.030587,-2.9095 5.243162,0.87891 z m 49.40084,0 -4.33394,2.03058 -5.54623,1.45475 h -9.88017 l 3.21257,2.33366 4.94009,-0.57584 c 0,0 2.90046,-0.5883 5.51592,-0.87891 2.61547,-0.29061 4.06118,-1.75782 4.06117,-1.75782 z m -23.82151,1.72751 -4.06117,2.06089 -2.60643,2.60643 -2.9095,0.27277 -3.48533,4.09148 -4.66732,-0.30308 -2.33366,-4.36424 c -10e-6,0 -2.03059,-4.93838 -2.03059,-3.48534 -1e-5,1.45304 1.75782,5.24316 1.75782,5.24316 l 0.87891,2.60642 -1.75782,2.9095 -2.9095,2.60643 -3.48533,-1.45475 -2.030589,-0.84861 0.303069,4.63702 -2.333656,1.45474 0.575838,2.33366 4.061178,-0.60614 2.33366,-2.30335 0.57583,-1.75782 4.36425,-4.63702 1.45475,-0.57583 8.72849,-1.75783 1.15168,-2.03058 2.33366,-0.87891 z m 5.51592,12.78967 -8.69818,2.63673 -1.45475,3.18226 2.60642,1.45475 4.06118,-2.60642 3.7884,-2.9095 z m -70.615932,5.54623 -1.727514,5.51592 c 0,0 -1.158775,3.20184 -2.030587,4.36425 -0.871821,1.16243 -4.091481,3.18227 -4.091481,3.18226 l -1.454749,4.36425 -0.575838,8.12234 1.181983,-1.45474 c 0,0 0.557994,-4.05043 0.848604,-5.21285 0.290601,-1.16244 1.454749,-4.36423 1.454749,-4.36425 l 3.21257,-3.78841 1.454749,-4.06117 1.727514,-2.33366 z m 154.324602,6.09176 -2.90949,0.30307 1.15167,2.87919 2.63674,0.30307 z m -47.37025,0.57584 -0.57584,4.06117 4.06117,2.63673 3.18226,2.03059 -3.18226,-4.66732 z m -40.70266,1.45475 5.54623,6.97067 1.15167,4.66732 0.30307,-5.54623 -3.21257,-4.06118 z m 63.94833,2.33365 2.33366,3.18227 4.63701,0.87891 -2.33366,-2.9095 z m -20.63925,6.39484 -2.9095,0.27276 1.75782,4.36425 1.45475,2.9095 1.72752,-4.06118 z m 26.15517,0 v 3.18226 l 3.78841,-0.87891 v -1.45475 z m 6.39484,3.7581 -2.9095,0.60614 2.9095,3.48534 4.94008,3.48534 1.75782,-0.30308 z m -81.07194,10.75908 -0.87891,4.06117 8.42542,3.78841 7.27374,2.33366 4.06117,4.36425 7.54651,-2.0609 -4.33394,-1.15167 -7.00098,-3.78841 z m 90.07319,18.03282 -1.72751,4.33394 0.87891,6.12207 -1.45475,5.51592 4.06118,0.87891 -0.57584,-6.6979 z m -122.6232,20.60895 -2.909498,4.09148 4.364246,2.90949 2.030587,-2.06089 -1.151676,-4.63701 z m 124.38103,0.60614 -2.03059,0.8486 -3.21257,3.21257 -0.87891,5.21285 h 2.33366 z m -20.94233,1.15168 -4.94008,4.63701 1.45475,3.48533 5.24316,5.819 0.57583,7.27374 4.06118,-2.33366 -0.84861,-7.24343 -3.21257,-3.51565 -2.33366,-3.7581 z m 50.8556,1.75782 -4.33394,2.30335 1.15168,4.06117 z m -158.658547,6.36452 -2.33366,3.21257 -3.182263,4.36425 -3.21257,2.9095 -2.303352,2.9095 3.758101,2.03058 1.454749,1.72752 3.21257,-2.60643 -1.181983,-4.06117 -0.272766,-3.78841 z m 36.611177,7.57682 -1.45475,0.27277 -3.48533,2.03058 0.87891,1.45475 -1.15168,3.78841 7.54651,-2.60642 -4.63701,-0.57584 z m -8.42542,7.24344 -0.87891,2.33366 v 5.24316 l 0.60615,4.36424 2.30335,4.33394 2.33366,4.66732 3.48534,3.48534 v 3.48533 l 2.90949,5.24316 2.33366,1.45475 v -3.21257 l -3.48533,-4.06118 0.27276,-4.94008 4.94009,-1.18198 7.54651,2.63673 -1.15168,-3.21257 -3.18226,-0.57584 -3.21257,-0.87891 0.87891,-1.45475 -2.9095,1.75782 -3.48534,3.18226 -2.03058,-1.45474 -0.87891,-2.03059 -2.60643,-3.18226 -1.18198,-2.60643 -1.42444,-3.51564 v -3.7581 z m 114.80393,2.33366 -11.91075,10.45601 11.33491,-5.78869 0.27277,4.94008 3.78841,4.63701 3.18226,3.78841 -3.7581,-7.84958 -0.60615,-2.63673 z m -89.52767,20.94232 -0.8486,2.87919 c 1e-5,0 0.27447,4.38747 1.72751,3.51564 1.45303,-0.87182 9.88017,-2.63673 9.88017,-2.63673 l -0.27276,-2.03059 -6.39484,0.57584 z m 48.82501,9.27402 -4.94008,4.94009 -1.72752,2.9095 -1.75782,2.90949 -3.48533,2.9095 -2.9095,2.60643 0.87891,1.18198 6.09176,-4.09148 2.63673,-3.48534 2.60643,-5.51592 z m 29.94358,3.21257 -3.78841,3.78841 -7.84958,4.94009 7.57682,-3.51565 6.39483,-4.63701 z m -23.54874,14.82026 2.63673,4.06117 4.06117,0.87891 1.72752,-1.75782 h -3.75811 z m -26.42794,9.30433 -2.63673,3.48533 -2.9095,2.60643 -4.63701,1.15168 2.90949,0.60614 3.48534,2.9095 3.48534,1.72751 -0.57584,-1.45475 -0.57584,-1.72751 0.57584,-2.9095 2.03058,-2.63673 -4.63701,3.21257 2.60643,-3.78841 z"
         style="opacity:0.452;fill:url(#radialGradient5171);fill-opacity:1;fill-rule:evenodd;stroke:none;stroke-width:1px;stroke-linecap:butt;stroke-linejoin:miter;stroke-opacity:1;filter:url(#filter4448)"
         transform="rotate(75.000002,150.72186,589.79972)" />
      <path
         id="path4454"
         d="m 178.15974,492.875 -0.4375,0.6875 -0.15625,0.625 -3.21875,5.53125 -1.65625,-0.40625 -1.8125,0.5625 3.46875,0.84375 3.21875,-5.53125 z m -63.96875,2.1875 -4.25,0.625 -1.84375,1.28125 6.09375,-0.90625 h 10.1875 c -1e-5,-10e-6 -0.44037,-0.49235 -1.09375,-1 z m 38.9375,5.9375 -1.21875,0.5625 -0.8125,1.0625 c 1e-5,0 -1.44703,1.45938 -4.0625,1.75 -2.61546,0.29061 -5.49999,0.875 -5.5,0.875 l -4.9375,0.59375 -1.84375,-1.34375 h -1.375 l 3.21875,2.34375 4.9375,-0.59375 c 1e-5,0 2.88454,-0.58439 5.5,-0.875 2.61547,-0.29062 4.06251,-1.75 4.0625,-1.75 z m -23.8125,1.75 -2.25,1.125 -3.84375,3.6875 -2.3125,0.875 -1.15625,2.03125 -2.875,0.5625 -0.625,0.75 -2.28125,-0.15625 -2.96875,0.59375 -1.4375,0.59375 -1.4375,1.53125 -0.0312,0.0312 -0.0625,0.0625 -2.84375,3 -0.5625,1.75 -2.34375,2.3125 -4.062503,0.59375 -0.34375,-1.4375 -0.21875,0.125 0.5625,2.3125 4.062503,-0.59375 2.34375,-2.3125 0.5625,-1.75 4.375,-4.625 1.4375,-0.59375 8.75,-1.75 1.15625,-2.03125 2.3125,-0.875 z m -22,0.59375 c -0.0555,0.004 -0.0937,0.0996 -0.0937,0.28125 0,1.45303 1.75,5.25 1.75,5.25 l 0.6875,1.96875 0.21875,-0.375 -0.90625,-2.59375 c 0,0 -1.25352,-2.78865 -1.625,-4.5 -0.0124,-0.005 -0.0206,-0.032 -0.0312,-0.0312 z m -7.625,1.09375 -0.875003,0.75 -1.46875,2.09375 -0.53125,-0.40625 -0.625,0.53125 1.15625,0.875 2.031253,-2.90625 5.25,0.875 -0.15625,-1.03125 z m 0,10.25 0.21875,3.65625 0.0625,-0.0312 -0.21875,-3.59375 z m 35.28125,1.71875 -3.625,2.78125 -4.0625,2.625 -2.25,-1.25 -0.34375,0.78125 2.59375,1.46875 4.0625,-2.625 3.78125,-2.90625 z m -70.750003,8 -1.71875,2.34375 -1.46875,4.0625 -3.21875,3.78125 c 0,2e-5 -1.14689,3.21259 -1.4375,4.375 -0.29061,1.16242 -0.84375,5.21874 -0.84375,5.21875 l -1.125,1.34375 -0.0625,1.09375 1.1875,-1.4375 c 0,-10e-6 0.55314,-4.05633 0.84375,-5.21875 0.29061,-1.16241 1.4375,-4.37498 1.4375,-4.375 l 3.21875,-3.78125 1.46875,-4.0625 1.71875,-2.34375 z m 151.781253,3.03125 -0.375,0.0312 1.15625,2.875 2.625,0.3125 -0.25,-1.03125 -2.375,-0.28125 z m -85.53125,1.75 5.53125,6.96875 1.15625,4.6875 0.3125,-5.5625 -0.0625,-0.0625 -0.25,4.625 -1.15625,-4.6875 -4.15625,-5.21875 z m 40.25,1.71875 -0.125,0.90625 4.0625,2.625 3.1875,2.03125 -1.21875,-1.78125 -1.96875,-1.25 z m 23.6875,0.625 2.34375,3.1875 4.625,0.875 -0.9375,-1.1875 -3.6875,-0.6875 -1.4375,-1.96875 z m -23.15625,6.625 -0.375,0.0312 1.75,4.375 1.46875,2.90625 1.71875,-4.0625 -0.25,-0.40625 -1.46875,3.46875 -1.46875,-2.90625 z m 32.46875,1.0625 -3.78125,0.90625 v 1 l 3.78125,-0.90625 z m 0.40625,2.90625 -0.71875,0.15625 2.90625,3.5 4.96875,3.46875 1.75,-0.28125 -0.8125,-0.875 -0.9375,0.15625 -4.96875,-3.46875 z m -79.5625,13.46875 -0.1875,0.90625 8.4375,3.78125 7.25,2.34375 4.0625,4.375 7.5625,-2.0625 -1.84375,-0.5 -5.71875,1.5625 -4.0625,-4.375 -7.25,-2.34375 z m 89.125,18.96875 -0.0937,0.25 0.78125,5.46875 0.0937,-0.34375 z m -0.40625,10.9375 -0.25,0.9375 4.0625,0.90625 -0.0937,-1.03125 z m 3.8125,6.1875 -0.5,0.21875 -3.28125,8.0625 h -2.1875 l -0.15625,1 h 2.34375 z M 90.284737,594.5 l -0.5,0.6875 4.375,2.90625 2.03125,-2.0625 -0.1875,-0.8125 -1.84375,1.875 z m 156.718753,0.0937 -0.6875,0.375 -2.5,5 -0.90625,-3.1875 -0.25,0.125 1.15625,4.0625 z m -55.5,2.59375 -0.28125,0.28125 1.4375,3.5 5.25,5.8125 0.5625,7.28125 4.0625,-2.34375 -0.0937,-0.9375 -3.96875,2.28125 -0.5625,-7.28125 -5.25,-5.8125 z m -103.156253,3.78125 -2.34375,3.21875 -1.28125,1.71875 -0.4375,0.75 0.0625,0.90625 z m 36.593753,7.5625 -0.59375,0.125 -1.6875,3.25 0.5,0.0625 z m -4.46875,2.0625 -0.46875,0.25 0.6875,1.125 0.21875,-0.65625 z m 4.6875,2.625 -5.0625,1.75 -0.34375,1.125 7.53125,-2.59375 z m -47.281253,0.46875 -0.5625,0.6875 3.75,2.03125 1.46875,1.71875 3.21875,-2.625 -0.25,-0.8125 -2.96875,2.4375 -1.46875,-1.71875 z m 152.875003,8.09375 -8.59375,4.375 -2.75,2.40625 11.34375,-5.78125 0.28125,4.9375 3.78125,4.65625 3.1875,3.78125 -1.09375,-2.3125 -2.09375,-2.46875 -3.78125,-4.65625 z m -115.09375,0.5938 v 1 l 0.59375,4.34375 2.3125,4.34375 2.34375,4.65625 3.46875,3.5 v -1 l -3.46875,-3.5 -2.34375,-4.65625 -2.3125,-4.34375 z m 16.5625,11.15625 -0.78125,0.46875 0.4375,0.125 z m -0.875,2.46875 -3.8125,0.90625 -1.15625,1.09375 -0.25,4.125 0.0625,0.0625 0.21875,-4 4.9375,-1.1875 7.5625,2.625 -0.40625,-1.15625 z m 9.6875,5.6875 -0.0625,0.25 c 2e-5,-3e-5 0.26571,4.40308 1.71875,3.53125 1.45304,-0.87184 9.875,-2.65625 9.875,-2.65625 l -0.125,-0.96875 c -0.23375,0.0491 -8.31768,1.76559 -9.75,2.625 -1.07283,0.6437 -1.50449,-1.57364 -1.65625,-2.78125 z m -16.65625,1 v 1 l 2.90625,5.25 2.34375,1.46875 v -1 l -2.34375,-1.46875 z m 66.25,5.65625 -1.46875,1.46875 -1.125,1.875 -2.625,5.53125 -2.625,3.5 -6.09375,4.0625 -0.4375,-0.5625 -0.4375,0.40625 0.875,1.15625 6.09375,-4.0625 2.625,-3.5 2.625,-5.53125 z m 31.25,3.53125 -5.375,3.875 -1.40625,0.65625 -6.15625,3.875 7.5625,-3.53125 6.40625,-4.625 z m -24.84375,14.5 2.625,4.0625 4.0625,0.875 1.71875,-1.75 h -0.96875 l -0.75,0.75 -4.0625,-0.875 -1.46875,-2.28125 z m -26.4375,9.3125 -0.4375,0.5625 -0.4375,1.59375 -2.59375,3.8125 1.28125,-0.90625 1.3125,-1.90625 z m 1.15625,3.75 -1.6875,1.15625 -0.34375,0.46875 -0.59375,2.90625 0.125,0.375 0.46875,-2.28125 z m -9.15625,2.9375 -2.1875,0.53125 2.90625,0.625 3.5,2.90625 3.46875,1.71875 -0.5,-1.25 -2.96875,-1.46875 -3.5,-2.90625 z"
         style="opacity:0.452;fill:#e7e18c;fill-opacity:1;fill-rule:evenodd;stroke:none;stroke-width:1px;stroke-linecap:butt;stroke-linejoin:miter;stroke-opacity:1;filter:url(#filter4444)"
         transform="rotate(75.000002,150.72186,589.79972)" />
      <path
         style="fill:#6b331c;fill-opacity:1;fill-rule:evenodd;stroke:none;stroke-width:1px;stroke-linecap:butt;stroke-linejoin:miter;stroke-opacity:1"
         d="m 149.51853,472.84375 -9.875,2.09375 -1.5,-1.1875 -1.21875,6.875 -0.875,2.71875 1.78125,5.375 5.6875,4.1875 12.59375,1.8125 5.09375,-4.5 5.09375,-1.78125 -9.28125,-9.90625 z m -66.218748,25.78125 -3.28125,0.59375 -6.3125,4.1875 -0.28125,7.1875 -4.5,6.90625 5.6875,-1.5 8.09375,-0.90625 1.5,-4.78125 9.59375,-3.90625 -2.40625,-3 z m 119.249998,7.1875 -4.1875,0.90625 -7.78125,0.875 -4.8125,3.90625 1.21875,6.28125 7.46875,6.59375 9.59375,3 9,1.8125 2.40625,-3 -3.3125,-4.8125 -5.09375,-4.1875 -0.59375,-6 1.5,-2.375 z m -101.875,18.5625 -8.374998,6.59375 -4.8125,6.59375 -3.59375,8.40625 2.40625,5.375 6,-1.78125 h 7.1875 l 5.374998,-0.59375 1.8125,-7.21875 1.8125,-7.78125 -2.40625,-5.375 z m 80.90625,36.875 -2.40625,2.09375 -5.6875,2.40625 -5.09375,4.1875 -0.875,6.28125 3.875,4.1875 4.5,2.40625 6.28125,3.59375 3.59375,-4.5 6.3125,-5.375 -2.40625,-8.09375 -1.78125,-2.6875 z m 16.1875,4.5 -3.3125,5.375 0.90625,6.28125 2.40625,6.59375 5.09375,5.09375 6.59375,-4.1875 0.3125,-5.6875 -0.625,-8.09375 -2.375,-2.40625 -7.5,-2.6875 z m -84.5,6.5625 -8.09375,4.21875 -5.09375,0.59375 -5.999998,3 2.09375,2.375 0.3125,3.3125 3.906248,3 3.875,1.5 8.09375,1.1875 2.6875,-1.78125 5.40625,-3.59375 1.8125,-5.09375 0.59375,-6.90625 -1.21875,-1.1875 -3.875,-0.3125 z m 62.03125,49.75 -3.59375,0.59375 -6.3125,2.09375 3.90625,3.90625 3.90625,4.5 4.78125,1.78125 3.59375,-2.6875 -3.28125,-3.875 z m 45.84375,4.8125 -3.90625,7.46875 -4.5,5.40625 -5.09375,3.90625 -0.59375,3.28125 5.40625,1.5 4.5,5.40625 6.59375,0.59375 3.875,-3.59375 -0.28125,-4.8125 -1.5,-9.875 -3.59375,-8.09375 z m -113.28125,15.5625 -5.375,4.8125 4.1875,4.46875 4.5,-1.46875 v -5.09375 z m 14.6875,29.96875 1.5,4.1875 -3.28125,2.71875 -3.90625,2.09375 -3,4.5 6.90625,3.875 h 6.59375 L 127.64353,688 l 3.90625,0.59375 6.59375,-3.90625 0.59375,-5.375 0.90625,-5.40625 -2.40625,-0.3125 -7.78125,-1.1875 z"
         id="path4818" />
      <path
         style="fill:#33180d;fill-opacity:1;fill-rule:evenodd;stroke:none;stroke-width:1px;stroke-linecap:butt;stroke-linejoin:miter;stroke-opacity:1;filter:url(#filter4860)"
         d="m 136.75062,482.34375 -0.3125,1 1.78125,5.375 5.6875,4.1875 12.59375,1.8125 5.09375,-4.5 5.09375,-1.78125 -1.40625,-1.5 -3.6875,1.28125 -5.09375,4.5 -12.59375,-1.8125 -5.6875,-4.1875 z m -43.781249,22.5625 -8.375,3.40625 -1.5,4.78125 -8.09375,0.90625 -4.125,1.09375 -1.5625,2.40625 5.6875,-1.5 8.09375,-0.90625 1.5,-4.78125 9.59375,-3.90625 z m 114.437499,3.375 -0.5625,0.90625 0.15625,1.71875 1.34375,-2.09375 z m -20.90625,2.9375 -0.34375,0.28125 1.21875,6.28125 7.46875,6.59375 9.59375,3 9,1.8125 2.40625,-3 -0.75,-1.0625 -1.65625,2.0625 -9,-1.8125 -9.59375,-3 -7.46875,-6.59375 z m -77.9375,22.0625 -1.5,6.46875 -1.8125,7.21875 -5.375,0.59375 h -7.187499 l -6,1.78125 -1.96875,-4.40625 -0.4375,1.03125 2.40625,5.375 6,-1.78125 h 7.187499 l 5.375,-0.59375 1.8125,-7.21875 1.8125,-7.78125 z m 86.5,37.46875 -0.21875,0.375 0.90625,6.28125 2.40625,6.59375 5.09375,5.09375 6.59375,-4.1875 0.3125,-5.6875 -0.0625,-0.84375 -0.25,4.53125 -6.59375,4.1875 -5.09375,-5.09375 -2.40625,-6.59375 z m -71.96875,3.21875 -0.4375,5.0625 -1.8125,5.09375 -5.40625,3.59375 -2.6875,1.78125 -8.09375,-1.1875 -3.875,-1.5 -3.906249,-3 -0.3125,-3.3125 -0.875,-1 -1.21875,0.625 2.09375,2.375 0.3125,3.3125 3.906249,3 3.875,1.5 8.09375,1.1875 2.6875,-1.78125 5.40625,-3.59375 1.8125,-5.09375 0.59375,-6.90625 z m 45.0625,0.5 -0.25,1.75 3.875,4.1875 4.5,2.40625 6.28125,3.59375 3.59375,-4.5 6.3125,-5.375 -0.46875,-1.59375 -5.84375,4.96875 -3.59375,4.5 -6.28125,-3.59375 -4.5,-2.40625 z m -0.875,49.78125 -1.5,0.5 3.90625,3.90625 3.90625,4.5 4.78125,1.78125 3.59375,-2.6875 -1.03125,-1.21875 -2.5625,1.90625 -4.78125,-1.78125 -3.90625,-4.5 z m 40.5,20.78125 -0.34375,1.90625 5.40625,1.5 4.5,5.40625 6.59375,0.59375 3.875,-3.59375 -0.125,-1.90625 -3.75,3.5 -6.59375,-0.59375 -4.5,-5.40625 z m -103.875,1.3125 -1.03125,0.90625 4.1875,4.46875 4.5,-1.46875 v -2 l -4.5,1.46875 z m 19.03125,26.0625 0.9375,2.65625 0.5625,-0.46875 -0.78125,-2.1875 z m 16.78125,1.46875 -0.59375,3.4375 -0.59375,5.375 -6.59375,3.90625 -3.90625,-0.59375 -0.28125,1.78125 h -6.59375 l -5.9375,-3.34375 -0.96875,1.46875 6.90625,3.875 h 6.59375 L 128.03187,688 l 3.90625,0.59375 6.59375,-3.90625 0.59375,-5.375 0.90625,-5.40625 z"
         id="path4847" />
      <g
         id="g5044"
         transform="rotate(75.000002,288.89031,397.05892)">
        <path
           id="path5012"
           d="m 326.51609,551.64238 -0.51292,9.76239 c -0.0114,0.1904 -0.1058,0.36618 -0.25824,0.4808 l -0.65281,0.50448 3.21898,1.50957 c 0.17845,0.024 0.19018,0.029 0.0302,0.008 4.78703,0.62692 9.95035,-3.56925 11.69143,-10.06707 1.0635,-3.96906 0.55177,-7.81922 -0.99576,-10.65192 l -5.29356,2.85211 z"
           style="fill:url(#linearGradient5173);fill-opacity:1;fill-rule:evenodd;stroke:none;stroke-width:1px;stroke-linecap:butt;stroke-linejoin:miter;stroke-opacity:1" />
        <path
           id="path5010"
           d="m 334.28828,622.24728 -0.26923,2.93663 2.28277,6.69391 0.79882,0.27875 c 1.88248,-0.9748 3.55664,-3.01059 4.27233,-5.68158 0.99804,-3.72472 -0.23838,-7.23633 -2.55211,-8.70723 z"
           style="fill:url(#linearGradient5175);fill-opacity:1;fill-rule:evenodd;stroke:none;stroke-width:1px;stroke-linecap:butt;stroke-linejoin:miter;stroke-opacity:1" />
        <path
           id="path5008"
           d="m 372.11122,508.86051 -0.21219,4.0519 c 0.006,0.0226 0.0106,0.0454 0.014,0.0685 l -1.15041,7.55338 2.27859,5.13988 2.70324,0.17434 c 2.80383,-1.3091 5.16311,-4.05569 6.12462,-7.64405 1.15187,-4.29882 -0.0771,-8.56864 -2.69422,-11.07468 l -1.61007,-0.26965 c -0.14087,-0.0231 -0.27024,-0.0918 -0.36814,-0.1957 l -1.3771,-1.50133 c -0.0387,-0.0148 -0.0959,-0.0236 -0.12074,-0.0323 z"
           style="fill:url(#linearGradient5177);fill-opacity:1;fill-rule:evenodd;stroke:none;stroke-width:1px;stroke-linecap:butt;stroke-linejoin:miter;stroke-opacity:1" />
        <path
           id="path5006"
           d="m 363.81903,612.01033 3.91637,9.16984 0.0523,0.0464 5.04913,6.27047 0.0221,0.0383 0.2474,0.16335 c 2.19893,-1.53671 4.058,-4.03654 4.91229,-7.22478 1.53977,-5.74649 -0.66231,-11.24848 -4.72513,-12.91295 l -4.5301,0.7273 z"
           style="fill:url(#linearGradient5179);fill-opacity:1;fill-rule:evenodd;stroke:none;stroke-width:1px;stroke-linecap:butt;stroke-linejoin:miter;stroke-opacity:1" />
        <path
           id="path5004"
           d="m 420.42399,543.35257 1.16464,2.41497 c 0.025,0.0657 0.0392,0.13509 0.042,0.20537 l 0.8463,6.01784 0.6424,1.46623 c 4.48965,0.39334 8.38056,-1.69521 9.29608,-5.11193 0.98534,-3.67736 -1.79962,-7.81123 -6.47244,-9.53121 l -0.0383,0.0221 z"
           style="fill:url(#linearGradient5181);fill-opacity:1;fill-rule:evenodd;stroke:none;stroke-width:1px;stroke-linecap:butt;stroke-linejoin:miter;stroke-opacity:1" />
        <path
           id="path5002"
           d="m 428.91234,528.57731 3.84996,4.10507 5.80264,0.6813 c 1.83926,-1.0977 3.26099,-2.75239 3.82648,-4.86283 0.76904,-2.87011 -0.16726,-5.8057 -2.23092,-7.97412 l -3.75538,-0.71508 -2.63277,1.49451 -4.43626,6.41412 -0.0302,-0.008 z"
           style="fill:url(#linearGradient5183);fill-opacity:1;fill-rule:evenodd;stroke:none;stroke-width:1px;stroke-linecap:butt;stroke-linejoin:miter;stroke-opacity:1" />
        <path
           id="path5000"
           d="m 413.26403,612.09166 1.93816,8.70448 c 0.0269,0.0858 0.0357,0.17633 0.0259,0.26575 l -0.71841,4.85447 c 3.88885,-0.31865 7.68361,-3.56162 8.99611,-8.4599 1.59482,-5.95194 -1.07936,-11.70961 -5.77786,-12.96856 -0.44454,-0.11911 -0.90495,-0.20259 -1.3605,-0.23514 l -0.45928,0.26517 -1.21797,3.45887 z"
           style="fill:url(#linearGradient5185);fill-opacity:1;fill-rule:evenodd;stroke:none;stroke-width:1px;stroke-linecap:butt;stroke-linejoin:miter;stroke-opacity:1" />
        <path
           id="path4998"
           d="m 477.30467,565.54946 -0.30158,3.05737 0.006,0.0987 0.20073,3.83901 c 2.20386,0.57273 4.43823,-0.74669 5.02997,-2.95509 0.49531,-1.84852 -0.37288,-3.68003 -1.93904,-4.59596 z"
           style="fill:url(#linearGradient5187);fill-opacity:1;fill-rule:evenodd;stroke:none;stroke-width:1px;stroke-linecap:butt;stroke-linejoin:miter;stroke-opacity:1" />
        <path
           id="path4996"
           d="m 494.42271,522.19 5.44919,5.01887 c 0.0272,0.026 0.0521,0.0543 0.0744,0.0846 l 1.68805,2.39346 c 2.06186,-0.73298 3.68643,-2.16688 4.22423,-4.17392 0.42294,-1.57843 0.0985,-3.18888 -0.73323,-4.62874 l -1.82353,-0.19744 -0.0302,-0.008 -8.41389,1.33662 z"
           style="fill:url(#linearGradient5189);fill-opacity:1;fill-rule:evenodd;stroke:none;stroke-width:1px;stroke-linecap:butt;stroke-linejoin:miter;stroke-opacity:1" />
        <path
           id="path4994"
           d="m 479.78737,635.61056 1.19483,2.42305 c 1.15761,-0.38209 2.1881,-1.28386 2.55363,-2.64805 0.13185,-0.49206 0.0725,-0.99456 0.01,-1.48557 l -1.0263,-0.275 z"
           style="fill:url(#linearGradient5191);fill-opacity:1;fill-rule:evenodd;stroke:none;stroke-width:1px;stroke-linecap:butt;stroke-linejoin:miter;stroke-opacity:1" />
        <path
           id="path4894"
           d="m 513.08535,626.28598 c 0.35106,0.70803 0.82844,1.29914 1.36468,1.78917 l 1.61657,-0.11683 c 0.27531,-0.0162 0.53089,0.14303 0.63764,0.39732 l 0.45379,0.96275 c 2.954,0.31114 6.1062,-2.14201 7.16751,-6.10286 0.72182,-2.69388 0.23335,-5.29642 -0.98798,-7.05873 l -1.02413,-0.40382 c -0.0101,-0.002 -0.0202,-0.005 -0.0302,-0.008 l -3.88897,-1.78615 c -0.20862,0.0394 -0.41493,0.11715 -0.6323,0.18645 l -0.52081,1.21925 -3.13671,7.11821 -0.0243,0.0906 z"
           style="fill:url(#linearGradient5193);fill-opacity:1;fill-rule:evenodd;stroke:none;stroke-width:1px;stroke-linecap:butt;stroke-linejoin:miter;stroke-opacity:1" />
      </g>
    </g>
    <path
       id="path5106"
       d="m 67.12105,560.94021 -3.59577,10.78731 v 8.39013 l 2.39718,8.39013 1.19859,3.59577 1.198591,-9.58872 v -3.59577 l -1.198591,-5.99295 z"
       style="fill:url(#linearGradient5195);fill-opacity:1;fill-rule:evenodd;stroke:none;stroke-width:1px;stroke-linecap:butt;stroke-linejoin:miter;stroke-opacity:1" />
  </g>
</svg>
