<?xml version="1.0" encoding="UTF-8" standalone="yes"?>
<!-- Created with sK1/UniConvertor (http://sk1project.org/) -->
<svg xmlns="http://www.w3.org/2000/svg" xmlns:xlink="http://www.w3.org/1999/xlink" width="309.543pt" height="266.258pt" viewBox="0 0 309.543 266.258" fill-rule="evenodd">
<g>
<path style="stroke: rgb(44, 44, 43); stroke-width: 0.172822; fill: rgb(237, 128, 31);" d="M 197.676 71.7165L 212.137 82.634L 95.6903 208.014L 80.9957 198.035L 197.676 71.7165L 197.676 71.7165z"/>
<path style="stroke: rgb(44, 44, 43); stroke-width: 0.172822; fill: rgb(237, 128, 31);" d="M 157.938 176.147L 125.97 176.147L 125.97 220.525L 163.421 220.525L 170.517 203.156L 157.938 176.147L 157.938 176.147z"/>
<path style="stroke: none; fill: rgb(44, 44, 43);" d="M 114.672 220.599L 114.672 225.686L 154.129 225.686L 154.129 220.599L 114.672 220.599L 114.672 220.599z"/>
<path style="stroke: none; fill: rgb(44, 44, 43);" d="M 1.42387 224.518L 50.527 224.518L 50.527 246.84L 1.42387 246.84L 1.42387 224.518L 1.42387 224.518z"/>
<path style="stroke: rgb(44, 44, 43); stroke-width: 0.172822; fill: rgb(237, 128, 31);" d="M 24.5659 190.216C 30.149 190.216 35.732 190.216 41.315 190.216C 45.8829 190.487 47.8793 192.111 47.3041 195.088C 47.3041 208.048 47.3041 221.007 47.3041 233.967C 36.1052 229.668 25.8845 231.259 16.8512 239.956L 0.203659 239.956L 0.203659 221.684C 4.04091 212.399 8.57503 203.114 14.0386 193.833C 15.9218 191.679 19.4313 190.473 24.5659 190.216L 24.5659 190.216z"/>
<path style="stroke: none; fill: rgb(44, 44, 43);" d="M 48.3382 242.728L 204.837 242.728L 204.837 236.622L 187.739 236.622L 187.739 234.702L 207.454 234.702L 207.454 228.596L 48.3382 228.596L 48.3382 232.434L 48.3382 234.702L 48.3382 236.622L 48.3382 238.541L 48.3382 242.728L 48.3382 242.728z"/>
<path style="stroke: rgb(44, 44, 43); stroke-width: 0.400075; fill: rgb(159, 220, 245);" d="M 243.554 109.636L 309.554 109.636L 309.554 125.398L 243.554 125.398L 243.554 109.636L 243.554 109.636z"/>
<path style="stroke: none; fill: rgb(44, 44, 43);" d="M 35.0764 235.593C 43.5207 235.593 50.4086 242.481 50.4086 250.925C 50.4086 259.37 43.5207 266.258 35.0764 266.258C 26.6321 266.258 19.7442 259.37 19.7442 250.925C 19.7442 242.481 26.6321 235.593 35.0764 235.593L 35.0764 235.593z"/>
<path style="stroke: none; fill: rgb(134, 136, 137);" d="M 35.0764 243.323C 30.8955 243.323 27.4854 247.101 27.4854 251.733C 27.4854 256.365 30.8955 260.143 35.0764 260.143C 39.2573 260.143 42.6674 256.365 42.6674 251.733C 42.6674 247.101 39.2573 243.323 35.0764 243.323L 35.0764 243.323z"/>
<path style="stroke: none; fill: rgb(197, 197, 199);" d="M 35.0764 243.323C 39.2573 243.323 42.6674 246.733 42.6674 250.914C 42.6674 255.095 39.2573 258.505 35.0764 258.505C 30.8955 258.505 27.4854 255.095 27.4854 250.914C 27.4854 246.733 30.8955 243.323 35.0764 243.323L 35.0764 243.323z"/>
<path style="stroke: none; fill: rgb(44, 44, 43);" d="M 35.0764 248.156C 36.5959 248.156 37.8352 249.395 37.8352 250.914C 37.8352 252.434 36.5959 253.673 35.0764 253.673C 33.5569 253.673 32.3177 252.434 32.3177 250.914C 32.3177 249.395 33.5569 248.156 35.0764 248.156L 35.0764 248.156z"/>
<path style="stroke: none; fill: rgb(69, 69, 69);" d="M 35.0257 235.704C 26.7454 235.704 19.9843 242.058 19.9843 249.838C 19.9843 250.073 19.9915 250.305 20.004 250.537C 20.3956 243.784 26.9952 238.377 35.0257 238.377C 43.0562 238.377 49.6557 243.784 50.0473 250.537C 50.0598 250.305 50.067 250.073 50.067 249.838C 50.067 242.058 43.3059 235.704 35.0257 235.704L 35.0257 235.704z"/>
<path style="stroke: none; fill: rgb(44, 44, 43);" d="M 145.339 235.593C 153.783 235.593 160.671 242.481 160.671 250.925C 160.671 259.37 153.783 266.258 145.339 266.258C 136.895 266.258 130.007 259.37 130.007 250.925C 130.007 242.481 136.895 235.593 145.339 235.593L 145.339 235.593z"/>
<path style="stroke: none; fill: rgb(134, 136, 137);" d="M 145.339 243.323C 141.158 243.323 137.748 247.101 137.748 251.733C 137.748 256.365 141.158 260.143 145.339 260.143C 149.52 260.143 152.93 256.365 152.93 251.733C 152.93 247.101 149.52 243.323 145.339 243.323L 145.339 243.323z"/>
<path style="stroke: none; fill: rgb(197, 197, 199);" d="M 145.339 243.323C 149.52 243.323 152.93 246.733 152.93 250.914C 152.93 255.095 149.52 258.505 145.339 258.505C 141.158 258.505 137.748 255.095 137.748 250.914C 137.748 246.733 141.158 243.323 145.339 243.323L 145.339 243.323z"/>
<path style="stroke: none; fill: rgb(44, 44, 43);" d="M 145.339 248.156C 146.859 248.156 148.098 249.395 148.098 250.914C 148.098 252.434 146.859 253.673 145.339 253.673C 143.82 253.673 142.58 252.434 142.58 250.914C 142.58 249.395 143.82 248.156 145.339 248.156L 145.339 248.156z"/>
<path style="stroke: none; fill: rgb(69, 69, 69);" d="M 145.288 235.704C 137.008 235.704 130.247 242.058 130.247 249.838C 130.247 250.073 130.254 250.305 130.267 250.537C 130.658 243.784 137.258 238.377 145.288 238.377C 153.319 238.377 159.918 243.784 160.31 250.537C 160.322 250.305 160.33 250.073 160.33 249.838C 160.33 242.058 153.569 235.704 145.288 235.704L 145.288 235.704z"/>
<path style="stroke: rgb(44, 44, 43); stroke-width: 0.172822; fill: rgb(237, 128, 31);" d="M 59.4366 261.876L 75.0152 261.876C 76.5928 261.876 77.8817 262.862 77.8817 264.067L 77.8817 266.258L 56.57 266.258L 56.57 264.067C 56.57 262.862 57.859 261.876 59.4366 261.876L 59.4366 261.876z"/>
<path style="stroke: rgb(44, 44, 43); stroke-width: 0.172822; fill: rgb(142, 82, 44);" d="M 65.9977 258.103L 68.4551 258.103L 68.4551 261.701L 65.9977 261.701L 65.9977 258.103L 65.9977 258.103z"/>
<path style="stroke: rgb(44, 44, 43); stroke-width: 0.172822; fill: rgb(237, 128, 31);" d="M 58.6108 244.763L 83.4478 244.763L 83.4478 232.651L 58.6108 232.651L 58.6108 244.763L 58.6108 244.763z"/>
<path style="stroke: rgb(44, 44, 43); stroke-width: 0.172822; fill: rgb(237, 128, 31);" d="M 92.3838 244.52L 70.0348 256.885L 70.0348 248.977L 86.1759 235.248L 92.5308 235.099L 92.3838 244.52L 92.3838 244.52z"/>
<path style="stroke: rgb(44, 44, 43); stroke-width: 0.172822; fill: rgb(237, 128, 31);" d="M 64.418 258.103L 70.0348 258.103L 70.0348 240.023L 64.418 240.023L 64.418 258.103L 64.418 258.103z"/>
<path style="stroke: none; fill: rgb(44, 44, 43);" d="M 92.3125 235.247L 70.0938 251.841L 70.2188 251.997L 92.4375 235.404L 92.3125 235.247L 92.3125 235.247z"/>
<path style="stroke: none; fill: rgb(44, 44, 43);" d="M 74.25 249.216L 74.0625 249.341L 76.5312 253.404L 76.7188 253.279L 74.25 249.216L 74.25 249.216z"/>
<path style="stroke: none; fill: rgb(44, 44, 43);" d="M 78.3125 246.185L 78.125 246.31L 80.7812 250.935L 80.9688 250.81L 78.3125 246.185L 78.3125 246.185z"/>
<path style="stroke: none; fill: rgb(44, 44, 43);" d="M 81.9375 243.154L 81.75 243.279L 85.2188 248.591L 85.375 248.466L 81.9375 243.154L 81.9375 243.154z"/>
<path style="stroke: none; fill: rgb(44, 44, 43);" d="M 86.0625 240.31L 85.875 240.435L 89.75 245.747L 89.9375 245.622L 86.0625 240.31L 86.0625 240.31z"/>
<path style="stroke: none; fill: rgb(44, 44, 43);" d="M 70.5625 252.122L 70.375 252.216L 71.9688 255.81L 72.1562 255.716L 70.5625 252.122L 70.5625 252.122z"/>
<path style="stroke: rgb(44, 44, 43); stroke-width: 0.172822; fill: rgb(237, 128, 31);" d="M 205.902 261.876L 190.324 261.876C 188.746 261.876 187.457 262.862 187.457 264.067L 187.457 266.258L 208.769 266.258L 208.769 264.067C 208.769 262.862 207.48 261.876 205.902 261.876L 205.902 261.876z"/>
<path style="stroke: rgb(44, 44, 43); stroke-width: 0.172822; fill: rgb(142, 82, 44);" d="M 199.341 258.103L 196.884 258.103L 196.884 261.701L 199.341 261.701L 199.341 258.103L 199.341 258.103z"/>
<path style="stroke: rgb(44, 44, 43); stroke-width: 0.172822; fill: rgb(237, 128, 31);" d="M 172.955 244.52L 195.304 256.885L 195.304 248.977L 179.163 235.248L 172.808 235.099L 172.955 244.52L 172.955 244.52z"/>
<path style="stroke: rgb(44, 44, 43); stroke-width: 0.172822; fill: rgb(237, 128, 31);" d="M 200.921 258.103L 195.304 258.103L 195.304 240.023L 200.921 240.023L 200.921 258.103L 200.921 258.103z"/>
<path style="stroke: none; fill: rgb(44, 44, 43);" d="M 173.031 235.247L 172.906 235.404L 195.125 251.997L 195.25 251.841L 173.031 235.247L 173.031 235.247z"/>
<path style="stroke: none; fill: rgb(44, 44, 43);" d="M 191.094 249.216L 188.625 253.279L 188.812 253.404L 191.281 249.341L 191.094 249.216L 191.094 249.216z"/>
<path style="stroke: none; fill: rgb(44, 44, 43);" d="M 187.031 246.185L 184.375 250.81L 184.562 250.935L 187.219 246.31L 187.031 246.185L 187.031 246.185z"/>
<path style="stroke: none; fill: rgb(44, 44, 43);" d="M 183.406 243.154L 179.969 248.466L 180.125 248.591L 183.594 243.279L 183.406 243.154L 183.406 243.154z"/>
<path style="stroke: none; fill: rgb(44, 44, 43);" d="M 179.281 240.31L 175.406 245.622L 175.594 245.747L 179.469 240.435L 179.281 240.31L 179.281 240.31z"/>
<path style="stroke: none; fill: rgb(44, 44, 43);" d="M 194.781 252.122L 193.188 255.716L 193.375 255.81L 194.969 252.216L 194.781 252.122L 194.781 252.122z"/>
<path style="stroke: rgb(44, 44, 43); stroke-width: 0.172822; fill: rgb(115, 116, 118);" d="M 48.3382 225.107L 207.454 225.107L 207.454 228.596L 48.3382 228.596L 48.3382 225.107L 48.3382 225.107z"/>
<path style="stroke: rgb(44, 44, 43); stroke-width: 0.172822; fill: rgb(115, 116, 118);" d="M 93.1769 234.354L 122.488 234.354L 122.488 237.843L 93.1769 237.843L 93.1769 234.354L 93.1769 234.354z"/>
<path style="stroke: rgb(44, 44, 43); stroke-width: 0.172822; fill: rgb(115, 116, 118);" d="M 123.447 243.6L 123.448 229.992L 125.628 229.992L 125.628 243.6L 123.447 243.6L 123.447 243.6z"/>
<path style="stroke: none; fill: rgb(44, 44, 43);" d="M 123.447 243.6L 123.448 257.209L 125.628 257.209L 125.628 243.6L 123.447 243.6L 123.447 243.6z"/>
<path style="stroke: rgb(44, 44, 43); stroke-width: 0.172822; fill: rgb(115, 116, 118);" d="M 165.494 243.6L 165.495 229.992L 167.675 229.992L 167.675 243.6L 165.494 243.6L 165.494 243.6z"/>
<path style="stroke: none; fill: rgb(44, 44, 43);" d="M 165.494 243.6L 165.495 257.209L 167.675 257.209L 167.675 243.6L 165.494 243.6L 165.494 243.6z"/>
<path style="stroke: rgb(44, 44, 43); stroke-width: 0.172822; fill: rgb(237, 128, 31);" d="M 0.00062561 241.986C 1.2917 242.02 2.58278 242.053 3.87386 242.087C 3.87175 243.584 3.87068 245.081 3.86961 246.578C 6.39574 246.539 8.92183 246.5 11.448 246.461C 15.3117 236.306 22.154 230.347 31.9762 228.587C 36.341 228.587 40.7059 228.587 45.0709 228.587C 45.0709 230.549 45.0709 232.512 45.0709 234.474C 37.3783 233.404 30.794 233.241 25.5017 235.893C 17.2477 240.031 12.8923 248.549 12.2833 252.137C -2.74013 252.137 15.024 252.137 0.00062561 252.137C 0.00062561 248.753 0.00062561 245.369 0.00062561 241.986L 0.00062561 241.986z"/>
<path style="stroke: rgb(44, 44, 43); stroke-width: 0.172822; fill: rgb(255, 255, 255);" d="M 21.2161 199.555L 39.9954 199.555L 39.9954 215.898L 21.2161 215.898L 21.2161 199.555L 21.2161 199.555z"/>
<path style="stroke: rgb(44, 44, 43); stroke-width: 0.172822; fill: rgb(255, 255, 255);" d="M 21.2161 199.555L 17.1557 199.555L 10.1516 215.898L 21.2161 215.898L 21.2161 199.555L 21.2161 199.555z"/>
<path style="stroke: none; fill: rgb(44, 44, 43);" d="M 0.90625 220.466L 0.90625 220.685L 47.0312 220.685L 47.0312 220.466L 0.90625 220.466L 0.90625 220.466z"/>
<path style="stroke: none; fill: rgb(44, 44, 43);" d="M 6.78125 220.56L 6.78125 239.747L 7 239.747L 7 220.56L 6.78125 220.56L 6.78125 220.56z"/>
<path style="stroke: none; fill: rgb(44, 44, 43);" d="M 12.5938 195.591L 12.5938 195.81L 47.3125 195.81L 47.3125 195.591L 12.5938 195.591L 12.5938 195.591z"/>
<path style="stroke: none; fill: rgb(44, 44, 43);" d="M 54.6466 242.647L 54.6477 257.209L 56.828 257.209L 56.828 242.647L 54.6466 242.647L 54.6466 242.647z"/>
<path style="stroke: rgb(44, 44, 43); stroke-width: 0.172822; fill: rgb(255, 255, 255);" d="M 130.299 184.566L 140.251 184.566L 140.251 200.909L 130.299 200.909L 130.299 184.566L 130.299 184.566z"/>
<path style="stroke: rgb(44, 44, 43); stroke-width: 0.172822; fill: rgb(255, 255, 255);" d="M 143.696 184.566L 154.458 184.566L 161.742 200.909L 143.696 200.909L 143.696 184.566L 143.696 184.566z"/>
<path style="stroke: rgb(44, 44, 43); stroke-width: 0.172822; fill: rgb(237, 128, 31);" d="M 71.8186 195.071L 125.97 195.071L 125.97 220.525L 71.8186 220.525L 71.8186 195.071L 71.8186 195.071z"/>
<path style="stroke: none; fill: rgb(44, 44, 43);" d="M 125.969 180.122L 125.969 180.31L 160.125 180.31L 160.125 180.122L 125.969 180.122L 125.969 180.122z"/>
<path style="stroke: rgb(44, 44, 43); stroke-width: 0.172822; fill: rgb(237, 128, 31);" d="M 256.245 12.748L 265.244 19.3616L 209.489 80.5478L 200.145 73.4462L 256.245 12.748L 256.245 12.748z"/>
<path style="stroke: rgb(44, 44, 43); stroke-width: 0.172822; fill: rgb(237, 128, 31);" d="M 256.245 12.748L 265.244 19.3616L 276.828 22.8817L 282.948 15.9176L 263.847 -0.00283813L 254.012 9.56619L 256.245 12.748L 256.245 12.748z"/>
<path style="stroke: none; fill: rgb(44, 44, 43);" d="M 259.975 3.67963L 268.085 3.67963L 270.929 5.97L 257.646 5.97L 259.975 3.67963L 259.975 3.67963z"/>
<path style="stroke: none; fill: rgb(44, 44, 43);" d="M 254.801 8.96243L 274.516 8.96243L 277.314 11.2527L 255.128 11.2527L 254.14 9.83792L 254.801 8.96243L 254.801 8.96243z"/>
<path style="stroke: none; fill: rgb(44, 44, 43);" d="M 257.97 13.8698L 280.296 13.8698L 282.953 16.1601L 261.047 16.1601L 257.97 13.8698L 257.97 13.8698z"/>
<path style="stroke: none; fill: rgb(44, 44, 43);" d="M 265.568 19.1525L 280.249 19.1525L 277.873 21.4428L 272.281 21.4428L 265.568 19.1525L 265.568 19.1525z"/>
<path style="stroke: rgb(44, 44, 43); stroke-width: 0.172822; fill: rgb(237, 128, 31);" d="M 275.084 58.4892L 282.234 58.4519L 285.672 43.2882L 271.43 43.087L 275.084 58.4892L 275.084 58.4892z"/>
<path style="stroke: none; fill: rgb(44, 44, 43);" d="M 274.573 43.2014L 283.034 53.3972L 282.463 56.265L 272.009 43.1399L 274.573 43.2014L 274.573 43.2014z"/>
<path style="stroke: none; fill: rgb(44, 44, 43);" d="M 280.215 43.2014L 284.394 48.4849L 284.02 50.7204L 277.652 43.1399L 280.215 43.2014L 280.215 43.2014z"/>
<path style="stroke: none; fill: rgb(44, 44, 43);" d="M 273.162 48.6976L 281.137 58.4077L 278.718 58.4052L 274.15 52.6732L 273.162 48.6976L 273.162 48.6976z"/>
<path style="stroke: none; fill: rgb(44, 44, 43);" d="M 274.406 22.216L 274.406 43.091L 274.625 43.091L 274.625 22.216L 274.406 22.216L 274.406 22.216z"/>
<path style="stroke: none; fill: rgb(44, 44, 43);" d="M 282.812 16.1848L 282.812 43.091L 283.031 43.091L 283.031 16.1848L 282.812 16.1848L 282.812 16.1848z"/>
<path style="stroke: none; fill: rgb(44, 44, 43);" d="M 277.09 58.6525C 277.84 58.6525 278.591 58.6525 279.341 58.6525C 279.341 60.0725 279.341 61.4926 279.341 62.9137C 282.326 63.0501 283.5 66.2223 283.472 67.8623C 283.421 70.9002 281.018 72.5402 278.216 72.5402C 274.975 72.5402 273.137 69.5615 272.189 65.9273C 272.866 65.7127 273.647 65.8089 273.854 66.2212C 274.796 68.2843 276.234 69.3458 277.997 69.4389C 278.803 69.3723 280.084 69.1788 280.099 67.6033C 280.115 66.0996 279.784 64.8604 277.09 64.8932C 277.09 62.8122 277.09 60.7323 277.09 58.6525L 277.09 58.6525z"/>
<path style="stroke: none; fill: rgb(44, 44, 43);" d="M 280.094 70.841L 279.906 70.966L 305.625 110.06L 305.812 109.935L 280.094 70.841L 280.094 70.841z"/>
<path style="stroke: none; fill: rgb(44, 44, 43);" d="M 276.812 70.841L 249.125 109.935L 249.312 110.06L 276.969 70.966L 276.812 70.841L 276.812 70.841z"/>
<path style="stroke: rgb(44, 44, 43); stroke-width: 0.172822; fill: rgb(237, 128, 31);" d="M 149.842 150.109C 155.492 156.586 153.852 156.965 153.118 158.037C 152.375 159.124 151.996 159.864 144.144 155.753C 146.044 153.872 147.943 151.991 149.842 150.109L 149.842 150.109z"/>
<path style="stroke: rgb(44, 44, 43); stroke-width: 0.172822; fill: rgb(237, 128, 31);" d="M 138.275 175.829C 140.326 170.39 142.051 170.872 143.771 170.803C 145.492 170.735 146.576 170.487 148.774 175.853C 145.274 175.845 141.775 175.837 138.275 175.829L 138.275 175.829z"/>
<path style="stroke: rgb(44, 44, 43); stroke-width: 0.172822; fill: rgb(206, 108, 42);" d="M 148.035 157.494L 150.648 158.61L 145.571 170.934L 142.281 171.031L 148.035 157.494L 148.035 157.494z"/>
</g>
</svg>