<?xml version="1.0" encoding="UTF-8" standalone="no"?>
<svg
   xmlns:dc="http://purl.org/dc/elements/1.1/"
   xmlns:cc="http://creativecommons.org/ns#"
   xmlns:rdf="http://www.w3.org/1999/02/22-rdf-syntax-ns#"
   xmlns:svg="http://www.w3.org/2000/svg"
   xmlns="http://www.w3.org/2000/svg"
   xmlns:sodipodi="http://sodipodi.sourceforge.net/DTD/sodipodi-0.dtd"
   xmlns:inkscape="http://www.inkscape.org/namespaces/inkscape"
   width="102.11578mm"
   height="87.819969mm"
   viewBox="0 0 289.46207 248.9385"
   fill-rule="evenodd"
   version="1.1"
   id="svg150"
   sodipodi:docname="crane.svg"
   inkscape:version="1.0.2-2 (e86c870879, 2021-01-15)">
  <metadata
     id="metadata156">
    <rdf:RDF>
      <cc:Work
         rdf:about="">
        <dc:format>image/svg+xml</dc:format>
        <dc:type
           rdf:resource="http://purl.org/dc/dcmitype/StillImage" />
        <dc:title></dc:title>
      </cc:Work>
    </rdf:RDF>
  </metadata>
  <defs
     id="defs154" />
  <sodipodi:namedview
     pagecolor="#ffffff"
     bordercolor="#666666"
     borderopacity="1"
     objecttolerance="10"
     gridtolerance="10"
     guidetolerance="10"
     inkscape:pageopacity="0"
     inkscape:pageshadow="2"
     inkscape:window-width="1920"
     inkscape:window-height="1017"
     id="namedview152"
     showgrid="false"
     units="mm"
     inkscape:zoom="0.84651087"
     inkscape:cx="34.131205"
     inkscape:cy="210.53665"
     inkscape:window-x="-8"
     inkscape:window-y="-8"
     inkscape:window-maximized="1"
     inkscape:current-layer="svg150" />
  <g
     id="g148"
     transform="matrix(0.93423129,0,0,0.93423129,0.08014339,0.11122303)">
    <path
       style="fill:#ed801f;stroke:#2c2c2b;stroke-width:0.172822"
       d="M 197.676,71.7165 212.137,82.634 95.6903,208.014 80.9957,198.035 Z"
       id="path2" />
    <path
       style="fill:#ed801f;stroke:#2c2c2b;stroke-width:0.172822"
       d="M 157.938,176.147 H 125.97 v 44.378 h 37.451 l 7.096,-17.369 z"
       id="path4" />
    <path
       style="fill:#2c2c2b;stroke:none"
       d="m 114.672,220.599 v 5.087 h 39.457 v -5.087 z"
       id="path6" />
    <path
       style="fill:#2c2c2b;stroke:none"
       d="M 1.42387,224.518 H 50.527 V 246.84 H 1.42387 Z"
       id="path8" />
    <path
       style="fill:#ed801f;stroke:#2c2c2b;stroke-width:0.172822"
       d="m 24.5659,190.216 c 5.5831,0 11.1661,0 16.7491,0 4.5679,0.271 6.5643,1.895 5.9891,4.872 0,12.96 0,25.919 0,38.879 -11.1989,-4.299 -21.4196,-2.708 -30.4529,5.989 H 0.203659 v -18.272 c 3.837251,-9.285 8.371371,-18.57 13.834941,-27.851 1.8832,-2.154 5.3927,-3.36 10.5273,-3.617 z"
       id="path10" />
    <path
       style="fill:#2c2c2b;stroke:none"
       d="M 48.3382,242.728 H 204.837 v -6.106 h -17.098 v -1.92 h 19.715 v -6.106 H 48.3382 v 3.838 2.268 1.92 1.919 z"
       id="path12" />
    <path
       style="fill:#9fdcf5;stroke:#2c2c2b;stroke-width:0.400075"
       d="m 243.554,109.636 h 66 v 15.762 h -66 z"
       id="path14" />
    <path
       style="fill:#2c2c2b;stroke:none"
       d="m 35.0764,235.593 c 8.4443,0 15.3322,6.888 15.3322,15.332 0,8.445 -6.8879,15.333 -15.3322,15.333 -8.4443,0 -15.3322,-6.888 -15.3322,-15.333 0,-8.444 6.8879,-15.332 15.3322,-15.332 z"
       id="path16" />
    <path
       style="fill:#868889;stroke:none"
       d="m 35.0764,243.323 c -4.1809,0 -7.591,3.778 -7.591,8.41 0,4.632 3.4101,8.41 7.591,8.41 4.1809,0 7.591,-3.778 7.591,-8.41 0,-4.632 -3.4101,-8.41 -7.591,-8.41 z"
       id="path18" />
    <path
       style="fill:#c5c5c7;stroke:none"
       d="m 35.0764,243.323 c 4.1809,0 7.591,3.41 7.591,7.591 0,4.181 -3.4101,7.591 -7.591,7.591 -4.1809,0 -7.591,-3.41 -7.591,-7.591 0,-4.181 3.4101,-7.591 7.591,-7.591 z"
       id="path20" />
    <path
       style="fill:#2c2c2b;stroke:none"
       d="m 35.0764,248.156 c 1.5195,0 2.7588,1.239 2.7588,2.758 0,1.52 -1.2393,2.759 -2.7588,2.759 -1.5195,0 -2.7587,-1.239 -2.7587,-2.759 0,-1.519 1.2392,-2.758 2.7587,-2.758 z"
       id="path22" />
    <path
       style="fill:#454545;stroke:none"
       d="m 35.0257,235.704 c -8.2803,0 -15.0414,6.354 -15.0414,14.134 0,0.235 0.0072,0.467 0.0197,0.699 0.3916,-6.753 6.9912,-12.16 15.0217,-12.16 8.0305,0 14.63,5.407 15.0216,12.16 0.0125,-0.232 0.0197,-0.464 0.0197,-0.699 0,-7.78 -6.7611,-14.134 -15.0413,-14.134 z"
       id="path24" />
    <path
       style="fill:#2c2c2b;stroke:none"
       d="m 145.339,235.593 c 8.444,0 15.332,6.888 15.332,15.332 0,8.445 -6.888,15.333 -15.332,15.333 -8.444,0 -15.332,-6.888 -15.332,-15.333 0,-8.444 6.888,-15.332 15.332,-15.332 z"
       id="path26" />
    <path
       style="fill:#868889;stroke:none"
       d="m 145.339,243.323 c -4.181,0 -7.591,3.778 -7.591,8.41 0,4.632 3.41,8.41 7.591,8.41 4.181,0 7.591,-3.778 7.591,-8.41 0,-4.632 -3.41,-8.41 -7.591,-8.41 z"
       id="path28" />
    <path
       style="fill:#c5c5c7;stroke:none"
       d="m 145.339,243.323 c 4.181,0 7.591,3.41 7.591,7.591 0,4.181 -3.41,7.591 -7.591,7.591 -4.181,0 -7.591,-3.41 -7.591,-7.591 0,-4.181 3.41,-7.591 7.591,-7.591 z"
       id="path30" />
    <path
       style="fill:#2c2c2b;stroke:none"
       d="m 145.339,248.156 c 1.52,0 2.759,1.239 2.759,2.758 0,1.52 -1.239,2.759 -2.759,2.759 -1.519,0 -2.759,-1.239 -2.759,-2.759 0,-1.519 1.24,-2.758 2.759,-2.758 z"
       id="path32" />
    <path
       style="fill:#454545;stroke:none"
       d="m 145.288,235.704 c -8.28,0 -15.041,6.354 -15.041,14.134 0,0.235 0.007,0.467 0.02,0.699 0.391,-6.753 6.991,-12.16 15.021,-12.16 8.031,0 14.63,5.407 15.022,12.16 0.012,-0.232 0.02,-0.464 0.02,-0.699 0,-7.78 -6.761,-14.134 -15.042,-14.134 z"
       id="path34" />
    <path
       style="fill:#ed801f;stroke:#2c2c2b;stroke-width:0.172822"
       d="m 59.4366,261.876 h 15.5786 c 1.5776,0 2.8665,0.986 2.8665,2.191 v 2.191 H 56.57 v -2.191 c 0,-1.205 1.289,-2.191 2.8666,-2.191 z"
       id="path36" />
    <path
       style="fill:#8e522c;stroke:#2c2c2b;stroke-width:0.172822"
       d="m 65.9977,258.103 h 2.4574 v 3.598 h -2.4574 z"
       id="path38" />
    <path
       style="fill:#ed801f;stroke:#2c2c2b;stroke-width:0.172822"
       d="m 58.6108,244.763 h 24.837 v -12.112 h -24.837 z"
       id="path40" />
    <path
       style="fill:#ed801f;stroke:#2c2c2b;stroke-width:0.172822"
       d="m 92.3838,244.52 -22.349,12.365 v -7.908 l 16.1411,-13.729 6.3549,-0.149 z"
       id="path42" />
    <path
       style="fill:#ed801f;stroke:#2c2c2b;stroke-width:0.172822"
       d="m 64.418,258.103 h 5.6168 v -18.08 H 64.418 Z"
       id="path44" />
    <path
       style="fill:#2c2c2b;stroke:none"
       d="m 92.3125,235.247 -22.2187,16.594 0.125,0.156 22.2187,-16.593 z"
       id="path46" />
    <path
       style="fill:#2c2c2b;stroke:none"
       d="m 74.25,249.216 -0.1875,0.125 2.4687,4.063 0.1876,-0.125 z"
       id="path48" />
    <path
       style="fill:#2c2c2b;stroke:none"
       d="m 78.3125,246.185 -0.1875,0.125 2.6562,4.625 0.1876,-0.125 z"
       id="path50" />
    <path
       style="fill:#2c2c2b;stroke:none"
       d="m 81.9375,243.154 -0.1875,0.125 3.4688,5.312 0.1562,-0.125 z"
       id="path52" />
    <path
       style="fill:#2c2c2b;stroke:none"
       d="m 86.0625,240.31 -0.1875,0.125 3.875,5.312 0.1875,-0.125 z"
       id="path54" />
    <path
       style="fill:#2c2c2b;stroke:none"
       d="m 70.5625,252.122 -0.1875,0.094 1.5938,3.594 0.1874,-0.094 z"
       id="path56" />
    <path
       style="fill:#ed801f;stroke:#2c2c2b;stroke-width:0.172822"
       d="m 205.902,261.876 h -15.578 c -1.578,0 -2.867,0.986 -2.867,2.191 v 2.191 h 21.312 v -2.191 c 0,-1.205 -1.289,-2.191 -2.867,-2.191 z"
       id="path58" />
    <path
       style="fill:#8e522c;stroke:#2c2c2b;stroke-width:0.172822"
       d="m 199.341,258.103 h -2.457 v 3.598 h 2.457 z"
       id="path60" />
    <path
       style="fill:#ed801f;stroke:#2c2c2b;stroke-width:0.172822"
       d="m 172.955,244.52 22.349,12.365 v -7.908 l -16.141,-13.729 -6.355,-0.149 z"
       id="path62" />
    <path
       style="fill:#ed801f;stroke:#2c2c2b;stroke-width:0.172822"
       d="m 200.921,258.103 h -5.617 v -18.08 h 5.617 z"
       id="path64" />
    <path
       style="fill:#2c2c2b;stroke:none"
       d="m 173.031,235.247 -0.125,0.157 22.219,16.593 0.125,-0.156 z"
       id="path66" />
    <path
       style="fill:#2c2c2b;stroke:none"
       d="m 191.094,249.216 -2.469,4.063 0.187,0.125 2.469,-4.063 z"
       id="path68" />
    <path
       style="fill:#2c2c2b;stroke:none"
       d="m 187.031,246.185 -2.656,4.625 0.187,0.125 2.657,-4.625 z"
       id="path70" />
    <path
       style="fill:#2c2c2b;stroke:none"
       d="m 183.406,243.154 -3.437,5.312 0.156,0.125 3.469,-5.312 z"
       id="path72" />
    <path
       style="fill:#2c2c2b;stroke:none"
       d="m 179.281,240.31 -3.875,5.312 0.188,0.125 3.875,-5.312 z"
       id="path74" />
    <path
       style="fill:#2c2c2b;stroke:none"
       d="m 194.781,252.122 -1.593,3.594 0.187,0.094 1.594,-3.594 z"
       id="path76" />
    <path
       style="fill:#737476;stroke:#2c2c2b;stroke-width:0.172822"
       d="M 48.3382,225.107 H 207.454 v 3.489 H 48.3382 Z"
       id="path78" />
    <path
       style="fill:#737476;stroke:#2c2c2b;stroke-width:0.172822"
       d="m 93.1769,234.354 h 29.3111 v 3.489 H 93.1769 Z"
       id="path80" />
    <path
       style="fill:#737476;stroke:#2c2c2b;stroke-width:0.172822"
       d="m 123.447,243.6 10e-4,-13.608 h 2.18 V 243.6 Z"
       id="path82" />
    <path
       style="fill:#2c2c2b;stroke:none"
       d="m 123.447,243.6 10e-4,13.609 h 2.18 V 243.6 Z"
       id="path84" />
    <path
       style="fill:#737476;stroke:#2c2c2b;stroke-width:0.172822"
       d="m 165.494,243.6 0.001,-13.608 h 2.18 V 243.6 Z"
       id="path86" />
    <path
       style="fill:#2c2c2b;stroke:none"
       d="m 165.494,243.6 0.001,13.609 h 2.18 V 243.6 Z"
       id="path88" />
    <path
       style="fill:#ed801f;stroke:#2c2c2b;stroke-width:0.172822"
       d="M 6.2561e-4,241.986 C 1.2917,242.02 2.58278,242.053 3.87386,242.087 c -0.00211,1.497 -0.00318,2.994 -0.00425,4.491 2.52613,-0.039 5.05222,-0.078 7.57839,-0.117 3.8637,-10.155 10.706,-16.114 20.5282,-17.874 4.3648,0 8.7297,0 13.0947,0 0,1.962 0,3.925 0,5.887 -7.6926,-1.07 -14.2769,-1.233 -19.5692,1.419 -8.254,4.138 -12.6094,12.656 -13.2184,16.244 -15.02343,0 2.7407,0 -12.28267439,0 0,-3.384 0,-6.768 0,-10.151 z"
       id="path90" />
    <path
       style="fill:#ffffff;stroke:#2c2c2b;stroke-width:0.172822"
       d="m 21.2161,199.555 h 18.7793 v 16.343 H 21.2161 Z"
       id="path92" />
    <path
       style="fill:#ffffff;stroke:#2c2c2b;stroke-width:0.172822"
       d="m 21.2161,199.555 h -4.0604 l -7.0041,16.343 h 11.0645 z"
       id="path94" />
    <path
       style="fill:#2c2c2b;stroke:none"
       d="m 0.90625,220.466 v 0.219 H 47.0312 v -0.219 z"
       id="path96" />
    <path
       style="fill:#2c2c2b;stroke:none"
       d="m 6.78125,220.56 v 19.187 H 7 V 220.56 Z"
       id="path98" />
    <path
       style="fill:#2c2c2b;stroke:none"
       d="m 12.5938,195.591 v 0.219 h 34.7187 v -0.219 z"
       id="path100" />
    <path
       style="fill:#2c2c2b;stroke:none"
       d="m 54.6466,242.647 0.0011,14.562 h 2.1803 v -14.562 z"
       id="path102" />
    <path
       style="fill:#ffffff;stroke:#2c2c2b;stroke-width:0.172822"
       d="m 130.299,184.566 h 9.952 v 16.343 h -9.952 z"
       id="path104" />
    <path
       style="fill:#ffffff;stroke:#2c2c2b;stroke-width:0.172822"
       d="m 143.696,184.566 h 10.762 l 7.284,16.343 h -18.046 z"
       id="path106" />
    <path
       style="fill:#ed801f;stroke:#2c2c2b;stroke-width:0.172822"
       d="M 71.8186,195.071 H 125.97 v 25.454 H 71.8186 Z"
       id="path108" />
    <path
       style="fill:#2c2c2b;stroke:none"
       d="m 125.969,180.122 v 0.188 h 34.156 v -0.188 z"
       id="path110" />
    <path
       style="fill:#ed801f;stroke:#2c2c2b;stroke-width:0.172822"
       d="m 256.245,12.748 8.999,6.6136 -55.755,61.1862 -9.344,-7.1016 z"
       id="path112" />
    <path
       style="fill:#ed801f;stroke:#2c2c2b;stroke-width:0.172822"
       d="m 256.245,12.748 8.999,6.6136 11.584,3.5201 6.12,-6.9641 L 263.847,-0.00283813 254.012,9.56619 Z"
       id="path114" />
    <path
       style="fill:#2c2c2b;stroke:none"
       d="m 259.975,3.67963 h 8.11 L 270.929,5.97 h -13.283 z"
       id="path116" />
    <path
       style="fill:#2c2c2b;stroke:none"
       d="m 254.801,8.96243 h 19.715 l 2.798,2.29027 H 255.128 L 254.14,9.83792 Z"
       id="path118" />
    <path
       style="fill:#2c2c2b;stroke:none"
       d="m 257.97,13.8698 h 22.326 l 2.657,2.2903 h -21.906 z"
       id="path120" />
    <path
       style="fill:#2c2c2b;stroke:none"
       d="m 265.568,19.1525 h 14.681 l -2.376,2.2903 h -5.592 z"
       id="path122" />
    <path
       style="fill:#ed801f;stroke:#2c2c2b;stroke-width:0.172822"
       d="m 275.084,58.4892 7.15,-0.0373 3.438,-15.1637 -14.242,-0.2012 z"
       id="path124" />
    <path
       style="fill:#2c2c2b;stroke:none"
       d="m 274.573,43.2014 8.461,10.1958 -0.571,2.8678 -10.454,-13.1251 z"
       id="path126" />
    <path
       style="fill:#2c2c2b;stroke:none"
       d="m 280.215,43.2014 4.179,5.2835 -0.374,2.2355 -6.368,-7.5805 z"
       id="path128" />
    <path
       style="fill:#2c2c2b;stroke:none"
       d="m 273.162,48.6976 7.975,9.7101 -2.419,-0.0025 -4.568,-5.732 z"
       id="path130" />
    <path
       style="fill:#2c2c2b;stroke:none"
       d="m 274.406,22.216 v 20.875 h 0.219 V 22.216 Z"
       id="path132" />
    <path
       style="fill:#2c2c2b;stroke:none"
       d="M 282.812,16.1848 V 43.091 h 0.219 V 16.1848 Z"
       id="path134" />
    <path
       style="fill:#2c2c2b;stroke:none"
       d="m 277.09,58.6525 c 0.75,0 1.501,0 2.251,0 0,1.42 0,2.8401 0,4.2612 2.985,0.1364 4.159,3.3086 4.131,4.9486 -0.051,3.0379 -2.454,4.6779 -5.256,4.6779 -3.241,0 -5.079,-2.9787 -6.027,-6.6129 0.677,-0.2146 1.458,-0.1184 1.665,0.2939 0.942,2.0631 2.38,3.1246 4.143,3.2177 0.806,-0.0666 2.087,-0.2601 2.102,-1.8356 0.016,-1.5037 -0.315,-2.7429 -3.009,-2.7101 0,-2.081 0,-4.1609 0,-6.2407 z"
       id="path136" />
    <path
       style="fill:#2c2c2b;stroke:none"
       d="m 280.094,70.841 -0.188,0.125 25.719,39.094 0.187,-0.125 z"
       id="path138" />
    <path
       style="fill:#2c2c2b;stroke:none"
       d="m 276.812,70.841 -27.687,39.094 0.187,0.125 27.657,-39.094 z"
       id="path140" />
    <path
       style="fill:#ed801f;stroke:#2c2c2b;stroke-width:0.172822"
       d="m 149.842,150.109 c 5.65,6.477 4.01,6.856 3.276,7.928 -0.743,1.087 -1.122,1.827 -8.974,-2.284 1.9,-1.881 3.799,-3.762 5.698,-5.644 z"
       id="path142" />
    <path
       style="fill:#ed801f;stroke:#2c2c2b;stroke-width:0.172822"
       d="m 138.275,175.829 c 2.051,-5.439 3.776,-4.957 5.496,-5.026 1.721,-0.068 2.805,-0.316 5.003,5.05 -3.5,-0.008 -6.999,-0.016 -10.499,-0.024 z"
       id="path144" />
    <path
       style="fill:#ce6c2a;stroke:#2c2c2b;stroke-width:0.172822"
       d="m 148.035,157.494 2.613,1.116 -5.077,12.324 -3.29,0.097 z"
       id="path146" />
  </g>
</svg>
