<?xml version="1.0" encoding="UTF-8" standalone="no"?>
<svg
   xmlns:dc="http://purl.org/dc/elements/1.1/"
   xmlns:cc="http://creativecommons.org/ns#"
   xmlns:rdf="http://www.w3.org/1999/02/22-rdf-syntax-ns#"
   xmlns:svg="http://www.w3.org/2000/svg"
   xmlns="http://www.w3.org/2000/svg"
   xmlns:sodipodi="http://sodipodi.sourceforge.net/DTD/sodipodi-0.dtd"
   xmlns:inkscape="http://www.inkscape.org/namespaces/inkscape"
   height="93.326698mm"
   viewBox="0 0 10890.355 9477.0318"
   width="107.23917mm"
   xml:space="preserve"
   id="svg2"
   version="1.1"
   inkscape:version="1.0.2-2 (e86c870879, 2021-01-15)"
   sodipodi:docname="cucumber.svg"
   style="fill-rule:evenodd;image-rendering:optimizeQuality;shape-rendering:geometricPrecision;text-rendering:geometricPrecision"><title
     id="title4884">cucumber 4</title><metadata
     id="metadata298"><rdf:RDF><cc:Work
         rdf:about=""><dc:format>image/svg+xml</dc:format><dc:type
           rdf:resource="http://purl.org/dc/dcmitype/StillImage" /><dc:title>cucumber 4</dc:title><dc:date>11/29/2015</dc:date><dc:creator><cc:Agent><dc:title>edited by Paul Sherman</dc:title></cc:Agent></dc:creator><dc:rights><cc:Agent><dc:title>pd</dc:title></cc:Agent></dc:rights><dc:publisher><cc:Agent><dc:title>wpclipart</dc:title></cc:Agent></dc:publisher><cc:license
           rdf:resource="http://creativecommons.org/publicdomain/zero/1.0/" /></cc:Work><cc:License
         rdf:about="http://creativecommons.org/publicdomain/zero/1.0/"><cc:permits
           rdf:resource="http://creativecommons.org/ns#Reproduction" /><cc:permits
           rdf:resource="http://creativecommons.org/ns#Distribution" /><cc:permits
           rdf:resource="http://creativecommons.org/ns#DerivativeWorks" /></cc:License></rdf:RDF></metadata><sodipodi:namedview
     pagecolor="#ffffff"
     bordercolor="#666666"
     borderopacity="1"
     objecttolerance="10"
     gridtolerance="10"
     guidetolerance="10"
     inkscape:pageopacity="0"
     inkscape:pageshadow="2"
     inkscape:window-width="1920"
     inkscape:window-height="1017"
     id="namedview296"
     showgrid="false"
     fit-margin-top="4"
     fit-margin-left="4"
     fit-margin-right="4"
     fit-margin-bottom="4"
     inkscape:zoom="0.97035431"
     inkscape:cx="176.98015"
     inkscape:cy="72.396097"
     inkscape:window-x="-8"
     inkscape:window-y="-8"
     inkscape:window-maximized="1"
     inkscape:current-layer="svg2"
     inkscape:document-rotation="0"
     units="mm" /><defs
     id="defs4" /><g
     id="g4737"
     transform="matrix(0.63371538,-0.44537594,0.44537594,0.63371538,-662.98987,6883.2762)"><path
       id="path6"
       d="m 10064,2601 -981,19 -905,57 -823,83 -715,126 -602,140 -443,164 -284,177 -95,203 95,190 284,183 443,165 602,145 715,108 823,95 905,57 981,25 968,-25 918,-57 817,-95 728,-108 588,-145 456,-165 285,-183 101,-190 -101,-203 -285,-177 -456,-164 -588,-140 -728,-126 -817,-83 -918,-57 z"
       inkscape:connector-curvature="0"
       style="fill:#d4d4d4" /><path
       id="path8"
       d="m 9684,2696 -886,13 -823,51 -753,82 -652,114 -544,127 -405,151 -260,159 -82,183 82,171 260,165 405,152 544,133 652,107 753,82 823,57 886,19 886,-19 830,-57 753,-82 658,-107 538,-133 405,-152 260,-165 95,-171 -95,-183 -260,-159 -405,-151 -538,-127 -658,-114 -753,-82 -830,-51 z"
       inkscape:connector-curvature="0"
       style="fill:#cccccc" /><path
       id="path10"
       d="m 9317,2798 -804,12 -747,45 -683,76 -583,101 -487,114 -367,139 -234,146 -76,164 76,152 234,152 367,133 487,120 583,95 683,76 747,44 804,19 791,-19 747,-44 671,-76 589,-95 481,-120 373,-133 235,-152 82,-152 -82,-164 -235,-146 -373,-139 -481,-114 -589,-101 -671,-76 -747,-45 z"
       inkscape:connector-curvature="0"
       style="fill:#c4c4c4" /><path
       id="path12"
       d="m 8937,2893 -715,12 -664,38 -602,64 -519,94 -437,102 -322,120 -203,133 -70,152 70,133 203,133 322,120 437,108 519,82 602,69 664,38 715,19 703,-19 665,-38 601,-69 525,-82 424,-108 329,-120 209,-133 76,-133 -76,-152 -209,-133 -329,-120 -424,-102 -525,-94 -601,-64 -665,-38 z"
       inkscape:connector-curvature="0"
       style="fill:#bfbfbf" /><path
       id="path14"
       d="m 15413,1975 208,-70 152,-82 83,-95 38,-108 -32,-120 -70,-126 -126,-140 -159,-133 -19,-57 7,-50 19,-57 31,-51 32,-44 38,-19 h 38 l 44,38 51,88 70,133 69,140 76,164 51,152 44,152 19,127 v 101 l -50,69 -76,95 -108,89 -101,95 -114,70 -89,50 -70,19 -18,-12 -102,-19 -101,-32 -95,-51 -63,-50 -26,-70 32,-70 108,-69 z"
       inkscape:connector-curvature="0"
       style="fill:#a6ed63" /><path
       id="path16"
       d="m 15526,2032 197,-70 145,-88 89,-102 38,-114 -19,-133 -63,-126 -114,-139 -152,-140 -45,-69 -19,-70 -6,-70 13,-50 25,-44 44,-7 64,19 88,82 64,76 69,102 64,107 69,133 51,133 38,139 6,140 -13,145 -44,76 -82,108 -114,114 -120,114 -127,88 -101,76 -70,26 -25,-13 -95,-19 -89,-32 -76,-57 -44,-57 -13,-76 51,-76 114,-69 z"
       inkscape:connector-curvature="0"
       style="fill:#704a29" /><path
       id="path18"
       d="m 15210,1652 133,266 95,278 38,273 -7,272 -63,259 -107,260 -171,240 -209,241 -114,82 -133,95 -184,89 -215,95 -291,76 -348,82 -443,63 -526,63 -696,38 -886,38 -1019,32 -1082,32 -1102,12 -1057,19 h -962 -791 l -646,-12 -531,-7 -462,-6 -405,-19 -380,-38 -374,-57 -398,-95 L 1443,4197 760,3899 323,3564 89,3203 38,2836 l 76,-374 190,-348 253,-316 297,-273 152,-120 165,-95 165,-88 170,-70 152,-76 146,-57 127,-63 113,-57 L 2526,760 3595,563 5095,348 6880,165 8785,25 10678,0 l 1715,108 1405,291 298,114 253,152 215,164 184,184 146,171 126,177 101,152 z"
       inkscape:connector-curvature="0"
       style="fill:#1fab00" /><path
       id="path20"
       d="m 15242,1652 120,272 82,279 32,266 -7,265 -63,254 -114,259 -164,247 -209,247 -114,88 -133,89 -177,89 -222,95 -291,76 -348,82 -443,63 -526,63 -481,32 -291,19 -164,13 -70,6 h -38 -38 l -88,6 -178,19 -291,13 -367,13 -430,12 -469,13 -506,6 -513,13 -519,19 -494,25 -683,19 -494,-12 -323,-45 -152,-57 -12,-88 133,-102 247,-113 367,-114 582,-165 728,-184 848,-234 943,-285 994,-367 1038,-455 1032,-570 1019,-684 253,-158 221,-51 190,26 165,95 133,133 114,158 88,164 z"
       inkscape:connector-curvature="0"
       style="fill:#1fab00" /><path
       id="path22"
       d="m 15261,1696 114,272 76,273 25,259 -13,260 -69,247 -108,246 -165,241 -202,247 -108,88 -133,89 -177,89 -221,95 -292,76 -354,82 -437,63 -532,63 -481,32 -291,19 -164,13 -70,6 -38,-6 -32,6 h -82 l -171,25 -278,7 -336,12 -386,7 -424,12 h -462 l -475,13 -487,19 -481,25 -684,19 -493,-6 -317,-38 -152,-57 -12,-89 132,-95 247,-113 367,-114 570,-159 709,-171 804,-208 899,-266 955,-348 994,-437 1013,-551 1013,-683 253,-159 215,-57 184,19 158,83 126,114 108,145 89,152 z"
       inkscape:connector-curvature="0"
       style="fill:#0fa600" /><path
       id="path24"
       d="m 15280,1734 107,272 70,273 19,253 -19,253 -70,241 -107,240 -159,234 -202,241 -108,88 -133,89 -177,89 -221,95 -292,76 -354,82 -437,63 -532,63 -481,32 -291,19 -164,13 -64,6 -31,-6 h -32 -82 l -171,19 -266,12 -304,13 -348,6 -373,13 h -418 l -430,13 -456,12 -475,26 -684,19 h -487 l -323,-38 -145,-57 -13,-83 133,-95 253,-113 367,-114 564,-152 677,-159 772,-189 855,-241 905,-323 955,-411 982,-538 1000,-677 253,-171 215,-70 184,6 158,64 120,101 108,133 76,139 z"
       inkscape:connector-curvature="0"
       style="fill:#03a300" /><path
       id="path26"
       d="m 15299,1785 101,266 63,266 13,246 -19,247 -76,228 -108,234 -158,235 -196,234 -108,88 -133,95 -177,89 -221,95 -292,76 -354,76 -437,63 -532,63 -481,32 -291,19 -164,13 -64,6 -31,-6 h -32 -82 l -165,19 -253,12 -272,7 -304,6 -323,6 -361,7 -392,12 -430,13 -456,25 -684,19 h -493 l -317,-38 -152,-57 -6,-82 126,-89 254,-113 360,-114 557,-146 652,-146 735,-170 816,-216 861,-304 924,-392 956,-525 987,-665 253,-171 216,-76 177,-12 152,50 114,83 101,126 76,127 z"
       inkscape:connector-curvature="0"
       style="fill:#009e00" /><path
       id="path28"
       d="m 15318,1823 95,272 56,260 7,240 -25,234 -76,228 -108,228 -158,222 -190,234 -108,88 -133,95 -177,89 -221,95 -292,76 -354,76 -437,63 -532,63 -481,32 -291,19 -164,13 -64,6 -31,-6 h -26 -76 l -164,19 -241,6 -240,6 h -260 l -278,7 h -317 l -348,12 -399,19 -443,26 -683,19 h -488 l -322,-38 -146,-51 -6,-76 126,-95 254,-107 360,-114 545,-140 626,-126 697,-152 772,-190 823,-279 879,-373 931,-513 975,-658 246,-177 216,-89 177,-25 145,32 114,69 95,108 76,120 z"
       inkscape:connector-curvature="0"
       style="fill:#009c00" /><path
       id="path30"
       d="m 15337,1867 82,272 50,254 7,234 -32,234 -76,215 -114,222 -152,215 -183,228 -108,88 -133,95 -177,89 -221,95 -292,76 -354,76 -437,63 -532,63 -481,32 -291,19 -158,6 -63,7 -32,-7 h -25 l -76,7 -165,12 -221,7 -209,6 h -215 l -228,6 h -272 l -311,13 -367,6 -436,26 -684,25 h -487 l -317,-32 -145,-44 -7,-76 133,-95 247,-107 367,-114 532,-133 601,-114 665,-133 721,-171 779,-253 842,-355 905,-493 968,-659 247,-177 215,-95 171,-44 139,19 108,50 89,95 69,114 z"
       inkscape:connector-curvature="0"
       style="fill:#009600" /><path
       id="path32"
       d="m 15343,1905 82,272 44,254 v 227 l -31,228 -76,209 -114,209 -152,209 -177,228 -108,88 -133,95 -177,89 -221,95 -292,76 -354,76 -437,63 -532,63 -481,32 -291,19 -158,6 -63,7 -26,-7 h -25 -70 l -158,19 -209,7 -177,6 h -177 -184 -221 l -266,6 -342,13 -424,25 -683,19 -488,7 -316,-32 -146,-44 -6,-76 139,-89 247,-107 367,-114 525,-133 576,-95 621,-114 677,-146 734,-228 810,-335 874,-481 956,-652 246,-184 209,-107 165,-51 h 139 l 101,38 83,76 63,108 z"
       inkscape:connector-curvature="0"
       style="fill:#009400" /><path
       id="path34"
       d="m 15362,1956 76,266 38,247 v 227 l -38,216 -76,202 -114,203 -152,202 -177,222 -108,95 -133,95 -177,88 -221,89 -292,76 -354,76 -437,63 -532,63 -481,32 -291,19 -158,6 -63,7 -26,-7 h -19 -69 l -152,19 h -196 l -152,7 h -133 -133 l -171,-7 -228,7 -316,12 -412,26 -683,25 -481,6 -317,-31 -145,-45 -7,-76 139,-88 254,-101 367,-114 512,-127 551,-82 582,-89 640,-120 690,-209 766,-317 848,-462 949,-645 247,-190 203,-120 164,-70 133,-13 95,26 82,63 57,95 z"
       inkscape:connector-curvature="0"
       style="fill:#009100" /><path
       id="path36"
       d="m 15381,1994 63,266 38,247 -13,221 -37,209 -83,196 -114,196 -145,197 -171,215 -108,95 -133,95 -177,88 -215,89 -291,76 -361,76 -437,63 -532,63 -481,32 -291,19 h -158 l -57,6 -25,-6 h -19 -70 l -152,13 -183,6 -114,6 -89,-6 h -88 -127 l -184,6 -278,13 -399,25 -683,26 h -482 l -316,-26 -146,-44 -6,-70 139,-88 254,-101 367,-114 500,-121 525,-69 544,-70 595,-101 646,-184 728,-291 823,-449 936,-646 247,-190 203,-126 158,-83 133,-25 h 89 l 76,57 57,82 z"
       inkscape:connector-curvature="0"
       style="fill:#008c00" /><path
       id="path38"
       d="m 15400,2038 63,266 25,240 -19,216 -37,202 -89,190 -114,190 -146,190 -164,209 -108,95 -133,95 -177,88 -215,89 -291,76 -361,76 -437,63 -532,63 -481,32 -291,19 h -158 l -57,6 -19,-6 h -19 -63 l -146,13 h -171 l -88,6 -45,-6 h -38 l -82,-7 -139,7 -253,6 -386,32 -684,25 -481,6 -317,-25 -139,-38 -6,-70 139,-88 253,-101 367,-114 488,-114 494,-57 506,-45 551,-76 601,-158 696,-272 798,-437 930,-639 247,-196 196,-139 158,-95 121,-45 88,-12 70,38 51,82 z"
       inkscape:connector-curvature="0"
       style="fill:#008a00" /><path
       id="path40"
       d="m 15419,2076 50,266 19,240 -19,209 -44,197 -88,177 -108,183 -146,184 -164,209 -108,95 -133,95 -177,88 -215,89 -291,76 -361,76 -437,63 -532,63 -481,32 -284,19 h -159 l -57,6 -19,-12 h -19 -57 l -145,12 h -158 l -51,7 -13,-7 13,-6 -32,-6 h -101 l -228,12 -373,26 -684,31 -481,7 -310,-26 -139,-38 v -69 l 139,-76 253,-101 367,-114 481,-108 462,-44 469,-26 512,-50 557,-140 659,-253 766,-424 917,-626 247,-197 196,-152 152,-107 121,-63 82,-26 63,26 45,63 z"
       inkscape:connector-curvature="0"
       style="fill:#008500" /><path
       id="path42"
       d="m 15438,2127 44,266 13,234 -26,202 -50,190 -95,171 -108,171 -139,177 -158,203 -108,95 -133,95 -177,88 -215,89 -291,76 -361,76 -437,63 -532,63 -481,32 -284,19 h -159 l -57,6 -19,-12 h -12 -64 l -139,12 h -139 -25 l 38,-6 57,-6 19,-13 -64,6 -190,7 -367,31 -683,32 -481,6 -311,-19 -139,-38 v -69 l 139,-76 254,-101 373,-114 469,-108 443,-25 430,-7 462,-25 519,-114 614,-228 741,-411 911,-621 241,-202 196,-158 152,-127 114,-76 76,-44 57,13 44,56 z"
       inkscape:connector-curvature="0"
       style="fill:#008200" /><path
       id="path44"
       d="m 15457,2165 38,266 6,227 -32,197 -50,183 -95,165 -108,164 -139,178 -158,196 -108,95 -133,95 -177,88 -215,89 -291,76 -361,76 -437,63 -532,63 -474,32 -291,19 h -152 l -57,6 -19,-12 h -13 -57 l -139,12 h -127 7 l 82,-12 101,-7 63,-12 h -12 l -165,6 -348,32 -683,31 -488,7 -310,-19 -139,-32 v -63 l 145,-83 253,-94 374,-114 462,-95 405,-13 393,13 424,-7 474,-88 583,-209 709,-399 898,-620 241,-203 196,-164 139,-140 114,-95 76,-57 57,-6 38,51 z"
       inkscape:connector-curvature="0"
       style="fill:#008000" /><path
       id="path46"
       d="m 791,1728 44,-44 83,-19 101,-19 h 133 l 152,-7 171,7 h 190 l 215,12 h 183 178 l 164,-6 h 165 l 133,-13 133,-6 107,-13 95,-6 158,-32 159,-31 145,-32 152,-32 146,-31 152,-32 158,-31 164,-19 152,-26 h 159 l 158,7 183,12 203,7 247,6 h 297 l 367,-6 209,-19 228,-32 234,-38 254,-38 265,-38 304,-19 323,-6 367,19 323,6 367,6 386,-12 386,-13 361,-25 329,-19 266,-19 196,-7 272,-25 241,-19 196,-32 184,-25 177,-44 196,-38 215,-51 266,-44 310,-13 374,63 399,121 411,171 380,196 335,215 260,215 171,203 31,88 -25,7 -82,-64 -108,-101 -145,-120 -146,-108 -139,-76 h -108 l -133,7 -126,-32 -152,-63 -146,-70 -164,-88 -171,-64 -178,-44 -183,6 -336,26 -278,25 -228,13 -190,19 -177,6 -177,13 -197,12 -215,25 -177,13 -158,13 -158,6 -152,6 h -165 l -177,7 h -203 l -221,12 h -83 l -95,13 -107,13 -108,25 -120,19 -114,19 -101,19 -82,25 -254,32 -234,19 h -215 -209 l -215,-13 -215,-12 -235,-7 -253,13 -285,13 -284,25 -285,25 -285,26 -285,12 -285,7 -285,-7 -278,-19 -260,-25 -221,6 -196,19 -171,32 -171,25 -158,26 -178,6 -189,-13 -235,-19 -234,7 -240,31 -228,57 -222,76 -202,101 -184,121 -145,152 -216,202 -177,133 -158,63 -114,19 -101,-19 -70,-25 -51,-25 -25,-7 -437,146 -291,76 -171,-13 -44,-88 51,-165 152,-234 234,-304 z"
       inkscape:connector-curvature="0"
       style="fill:#a6ed63" /><path
       id="path48"
       d="m 304,1981 38,-57 101,-88 133,-108 177,-127 177,-133 184,-132 177,-121 152,-88 184,-108 202,-95 209,-88 222,-70 202,-63 203,-32 177,-19 152,19 95,6 101,-6 95,-19 114,-13 108,-19 133,-12 h 139 l 164,19 h 159 l 170,-19 184,-38 209,-51 234,-63 272,-51 317,-44 380,-19 208,-13 222,-6 234,-13 253,-6 266,-19 304,-13 323,-25 367,-19 329,-32 354,-19 368,-19 h 373 l 348,-12 323,6 h 278 l 235,19 1107,89 893,88 652,76 399,70 107,31 -190,19 -519,-25 -854,-57 -272,-25 -292,-32 -316,-32 -323,-25 -329,-38 -310,-19 -298,-19 h -253 -82 l -101,6 -121,13 -126,19 -133,13 -120,12 -108,13 -89,19 -253,19 -221,19 h -209 l -190,6 -203,-6 h -209 -227 l -247,13 -285,6 -285,32 -285,31 -278,45 -285,25 -285,25 -285,13 -278,-6 -266,-7 -222,38 -196,57 -171,76 -171,70 -158,57 -177,38 h -190 l -190,-19 -202,12 -216,26 -215,50 -234,64 -222,82 -227,89 -203,114 -139,57 -133,56 -120,38 -108,45 -95,31 -76,32 -51,25 -25,38 -240,519 -209,424 -184,304 -133,171 -88,7 -13,-165 63,-367 z"
       inkscape:connector-curvature="0"
       style="fill:#a6ed63" /><path
       id="path50"
       d="m 304,1981 31,-57 95,-88 133,-121 165,-126 177,-140 190,-126 184,-114 164,-82 184,-76 272,-95 335,-101 380,-102 380,-95 373,-69 329,-45 266,-6 h 171 l 171,-19 184,-25 202,-32 222,-38 272,-32 310,-38 374,-12 208,-13 222,-6 234,-13 253,-6 266,-19 304,-13 323,-25 367,-19 329,-32 354,-19 368,-19 h 373 l 348,-12 323,6 h 278 l 235,19 1107,89 893,88 652,76 399,70 107,31 -190,19 -519,-25 -854,-57 -272,-25 -292,-32 -316,-32 -323,-25 -329,-38 -310,-19 -298,-19 h -253 -82 l -101,6 -121,13 -126,19 -133,13 -120,12 -108,13 -89,19 -253,19 -221,19 h -209 l -190,6 -203,-6 h -209 -227 l -247,13 -285,6 -285,32 -285,31 -278,45 -285,25 -285,25 -285,13 -278,-6 -266,-7 -222,38 -196,57 -171,76 -171,70 -158,57 -177,38 h -190 l -190,-19 -202,12 -216,26 -215,50 -234,64 -222,82 -227,89 -203,114 -139,57 -114,56 -108,45 -88,44 -76,32 -51,38 -38,31 -13,38 -152,773 -189,544 -197,316 -177,114 -139,-95 -70,-278 19,-456 z"
       inkscape:connector-curvature="0"
       style="fill:#a6ed63" /><path
       id="path52"
       d="m 760,2601 44,19 h 82 l 114,-31 152,-38 165,-51 189,-44 197,-32 215,-6 183,13 171,38 165,50 152,63 133,51 120,51 101,25 95,6 152,-19 152,13 133,25 139,38 133,32 139,32 146,12 h 165 l 151,-25 h 159 158 l 183,13 203,6 247,6 h 297 367 l 216,-25 234,-19 253,-32 272,-25 285,-25 317,-13 h 341 l 374,25 316,7 355,-13 360,-38 368,-32 335,-50 304,-38 247,-32 190,-12 246,-19 165,-19 95,-26 57,-19 44,-25 70,-19 114,-19 190,-6 297,-13 424,-6 500,-13 545,-6 538,-19 506,-13 430,-25 317,-19 h 82 l 32,57 -19,82 -57,114 -89,114 -95,120 -101,108 -82,88 -108,26 -139,-13 -177,-44 -190,-51 -222,-70 -215,-57 -215,-38 -196,7 -348,31 -311,32 -278,25 -247,32 -234,19 -228,25 -228,19 -228,26 -177,12 -158,13 -158,6 -152,7 h -165 l -177,6 h -203 l -221,6 h -83 l -94,19 -108,19 -108,26 -120,19 -114,25 -101,19 -82,25 -254,32 -227,6 -216,-13 -202,-19 -209,-31 -215,-25 -235,-19 h -246 l -292,19 -284,37 -292,38 -284,45 -292,31 -284,32 h -285 l -285,-13 -260,-38 -221,-12 -196,-13 -171,6 h -171 l -158,13 -178,13 -189,12 -298,57 -310,140 -329,177 -323,202 -316,178 -292,139 -259,63 -209,-31 L 880,3956 639,3779 443,3595 297,3424 190,3253 120,3095 89,2943 l 6,-126 38,-184 70,-126 88,-76 108,-26 h 101 l 101,45 89,63 z"
       inkscape:connector-curvature="0"
       style="fill:#a6ed63" /><path
       id="path54"
       d="m 411,1937 -101,50 -95,127 -82,171 -63,209 -45,221 -12,222 25,202 76,184 44,63 64,57 69,38 89,26 76,-19 88,-45 76,-95 83,-133 69,-227 32,-228 -6,-228 -32,-203 -63,-183 -83,-127 -101,-76 z"
       inkscape:connector-curvature="0"
       style="fill:#a6ed63" /><path
       id="path56"
       d="m 14919,3614 -38,38 -63,25 -95,19 -114,13 -152,-6 h -165 -190 -202 l -190,-7 h -177 -178 l -151,13 h -146 l -127,13 -107,12 -83,13 -164,25 -158,32 -152,25 -146,38 -152,26 -145,31 -159,32 -158,32 -164,12 -159,7 -158,-13 -177,-6 -209,-13 -240,-6 h -304 l -355,19 -221,12 -222,32 -234,38 -247,44 -278,32 -298,25 -323,7 -360,-13 -336,-19 -354,6 -374,7 -367,19 -348,12 -304,7 -253,-7 -171,-25 -335,-70 -235,26 -196,88 -196,114 -266,101 -380,64 -550,-7 -766,-107 -304,-70 -266,-63 -247,-70 -209,-63 -190,-76 -151,-70 -133,-69 -95,-70 -152,-127 -114,-101 -76,-88 -51,-76 -38,-76 -12,-76 -19,-83 -13,-101 6,-82 76,25 114,95 152,158 165,165 171,171 151,126 133,70 184,25 190,7 202,-13 216,-13 221,-19 234,-6 241,6 253,32 260,44 215,45 183,38 165,31 152,13 h 171 l 183,-32 234,-50 159,-45 158,-19 152,-12 164,6 h 165 l 184,13 h 202 l 234,6 70,-13 88,-12 108,-19 114,-19 114,-26 114,-19 101,-19 95,-12 247,-45 228,-19 215,-6 215,13 209,6 228,13 234,6 h 260 l 278,-25 279,-19 278,-25 285,-19 285,-26 h 285 l 285,7 291,25 253,13 221,-7 197,-25 177,-25 164,-38 165,-19 h 177 l 196,25 323,38 393,19 h 417 l 431,-19 399,-51 348,-63 259,-89 146,-101 335,-570 171,-297 38,-70 -50,102 -121,221 -145,304 -140,329 z"
       inkscape:connector-curvature="0"
       style="fill:#61bd00" /><path
       id="path58"
       d="m 380,2013 -95,44 -89,114 -76,158 -57,190 -38,203 -6,202 25,184 70,164 44,51 57,57 64,32 75,19 76,-13 76,-38 76,-82 76,-121 64,-208 31,-209 -6,-209 -32,-184 -63,-164 -76,-121 -95,-69 z"
       inkscape:connector-curvature="0"
       style="fill:#b3f073" /><path
       id="path60"
       d="m 342,2089 -89,44 -82,101 -70,146 -50,171 -38,177 v 184 l 25,164 76,139 44,45 57,50 57,32 70,19 63,-13 70,-31 63,-70 63,-108 64,-189 31,-190 -6,-190 -32,-165 -57,-145 -76,-108 -88,-63 z"
       inkscape:connector-curvature="0"
       style="fill:#bff282" /><path
       id="path62"
       d="m 304,2165 -82,38 -70,95 -63,133 -45,158 -31,158 v 165 l 31,139 70,120 38,38 51,38 57,25 56,19 57,-12 57,-26 57,-57 57,-82 57,-171 32,-171 -6,-171 -26,-145 -50,-133 -70,-101 -89,-57 z"
       inkscape:connector-curvature="0"
       style="fill:#ccf591" /><path
       id="path64"
       d="m 279,2241 -76,38 -70,82 -57,120 -38,139 -25,140 6,139 25,120 70,101 38,32 51,32 44,19 57,19 44,-7 51,-25 44,-44 51,-70 57,-152 25,-152 v -145 l -19,-133 -51,-114 -63,-89 -82,-50 z"
       inkscape:connector-curvature="0"
       style="fill:#d9f7a1" /><path
       id="path66"
       d="m 241,2317 -76,31 -57,76 -51,102 -32,126 -19,120 7,121 31,101 70,82 38,25 44,26 38,12 45,13 37,-6 38,-13 38,-38 45,-57 57,-133 25,-126 v -133 l -19,-114 -51,-101 -57,-76 -76,-38 z"
       inkscape:connector-curvature="0"
       style="fill:#e6fab0" /><path
       id="path68"
       d="m 209,2393 -70,25 -50,70 -45,82 -25,107 -19,102 13,107 31,83 70,57 38,12 44,19 32,13 38,13 25,-7 32,-6 25,-25 32,-38 50,-114 26,-108 v -114 l -13,-89 -44,-88 -57,-63 -63,-38 z"
       inkscape:connector-curvature="0"
       style="fill:#f2fcbf" /><path
       id="path70"
       d="m 184,2469 -64,25 -50,57 -38,69 -19,89 -13,82 13,83 38,63 63,44 38,7 38,6 25,6 32,13 44,-13 44,-31 45,-95 25,-89 v -95 l -13,-76 -38,-70 -50,-50 -57,-32 z"
       inkscape:connector-curvature="0"
       style="fill:#ffffcf" /><path
       id="path72"
       d="m 7665,3570 h -70 l -50,13 -32,12 -12,19 12,19 32,19 50,13 70,6 51,-6 57,-13 31,-19 19,-19 -19,-19 -31,-12 -57,-13 z"
       inkscape:connector-curvature="0"
       style="fill:#a6ed63" /><path
       id="path74"
       d="m 7209,1804 h -38 -31 l -32,6 -19,7 -38,19 -6,25 6,13 38,19 h 19 l 32,6 h 31 l 38,6 51,-6 57,-6 32,-19 19,-13 -19,-25 -32,-19 -57,-13 z"
       inkscape:connector-curvature="0"
       style="fill:#a6ed63" /><path
       id="path76"
       d="m 4304,1962 h -38 -32 l -31,6 -19,7 -38,19 -6,19 6,19 38,19 h 19 l 31,6 32,6 38,7 51,-13 50,-6 32,-19 19,-19 -19,-19 -32,-19 -50,-13 z"
       inkscape:connector-curvature="0"
       style="fill:#a6ed63" /><path
       id="path78"
       d="m 2956,1962 h -70 l -50,13 -32,19 -13,19 13,19 32,19 50,6 70,13 51,-13 57,-6 31,-19 19,-19 -19,-19 -31,-19 -57,-13 z"
       inkscape:connector-curvature="0"
       style="fill:#a6ed63" /><path
       id="path80"
       d="m 2918,2513 h -38 -32 l -31,6 -19,13 -38,12 -7,26 7,12 38,19 19,7 31,6 h 32 l 38,6 51,-6 50,-13 32,-19 19,-12 -19,-26 -32,-12 -50,-19 z"
       inkscape:connector-curvature="0"
       style="fill:#a6ed63" /><path
       id="path82"
       d="m 3323,2222 h -63 l -45,12 -38,19 -6,26 6,12 38,13 45,13 63,6 63,-6 51,-13 32,-13 19,-12 -19,-26 -32,-19 -51,-12 z"
       inkscape:connector-curvature="0"
       style="fill:#a6ed63" /><path
       id="path84"
       d="m 4234,1234 h -63 l -50,13 -32,13 -13,19 13,19 32,19 50,12 63,7 57,-7 57,-12 32,-19 19,-19 -19,-19 -32,-13 -57,-13 z"
       inkscape:connector-curvature="0"
       style="fill:#a6ed63" /><path
       id="path86"
       d="m 3981,2658 h -69 l -51,13 -32,13 -12,19 12,19 32,19 51,12 69,7 51,-7 57,-12 32,-19 19,-19 -19,-19 -32,-13 -57,-13 z"
       inkscape:connector-curvature="0"
       style="fill:#a6ed63" /><path
       id="path88"
       d="m 5842,2127 h -69 l -51,12 -32,13 -12,19 12,19 32,19 51,13 69,6 51,-6 57,-13 31,-19 19,-19 -19,-19 -31,-13 -57,-12 z"
       inkscape:connector-curvature="0"
       style="fill:#a6ed63" /><path
       id="path90"
       d="m 9172,2431 h -64 l -50,12 -32,13 -13,19 13,13 32,19 50,12 64,7 63,-7 50,-12 32,-19 19,-13 -19,-19 -32,-13 -50,-12 z"
       inkscape:connector-curvature="0"
       style="fill:#61bd00" /><path
       id="path92"
       d="m 8716,3291 h -63 l -51,19 -32,13 -12,25 12,13 32,19 51,13 63,6 57,-6 57,-13 31,-19 19,-13 -19,-25 -31,-13 -57,-19 z"
       inkscape:connector-curvature="0"
       style="fill:#61bd00" /><path
       id="path94"
       d="m 10406,3158 h -38 -32 l -31,7 -19,12 -32,26 -6,31 6,32 32,32 19,6 31,6 32,7 38,6 57,-13 57,-12 31,-32 19,-32 -19,-31 -31,-26 -57,-19 z"
       inkscape:connector-curvature="0"
       style="fill:#61bd00" /><path
       id="path96"
       d="m 6241,3608 h -57 l -38,13 -25,19 -7,31 7,19 25,25 38,13 57,13 38,-13 44,-13 26,-25 12,-19 -12,-31 -26,-19 -44,-13 z"
       inkscape:connector-curvature="0"
       style="fill:#61bd00" /><path
       id="path98"
       d="m 3779,3177 h -45 l -31,19 -26,13 v 25 13 l 26,19 31,13 45,6 31,-6 32,-13 19,-19 13,-13 -13,-25 -19,-13 -32,-19 z"
       inkscape:connector-curvature="0"
       style="fill:#61bd00" /><path
       id="path100"
       d="m 3570,3405 h -44 l -26,13 -25,13 v 25 13 l 25,19 26,6 44,6 32,-6 31,-6 19,-19 13,-13 -13,-25 -19,-13 -31,-13 z"
       inkscape:connector-curvature="0"
       style="fill:#61bd00" /><path
       id="path102"
       d="m 3038,3513 h -44 l -25,13 -26,12 v 19 13 l 26,19 25,13 44,6 32,-6 31,-13 19,-19 13,-13 -13,-19 -19,-12 -31,-13 z"
       inkscape:connector-curvature="0"
       style="fill:#61bd00" /><path
       id="path104"
       d="m 3355,3589 h -38 l -32,13 -25,12 v 19 13 l 25,19 32,12 38,7 31,-7 38,-12 19,-19 13,-13 -13,-19 -19,-12 -38,-13 z"
       inkscape:connector-curvature="0"
       style="fill:#61bd00" /><path
       id="path106"
       d="m 3475,3646 h -44 l -26,13 -25,12 v 19 19 l 25,19 26,13 44,6 32,-6 31,-13 19,-19 13,-19 -13,-19 -19,-12 -31,-13 z"
       inkscape:connector-curvature="0"
       style="fill:#61bd00" /><path
       id="path108"
       d="m 3855,3285 h -38 l -32,13 -19,12 -6,19 6,13 19,19 32,13 38,6 31,-6 38,-13 26,-19 12,-13 -12,-19 -26,-12 -38,-13 z"
       inkscape:connector-curvature="0"
       style="fill:#61bd00" /><path
       id="path110"
       d="m 4329,3177 h -38 l -31,13 -19,13 -7,25 7,13 19,19 31,6 38,6 32,-6 32,-6 19,-19 12,-13 -12,-25 -19,-13 -32,-13 z"
       inkscape:connector-curvature="0"
       style="fill:#61bd00" /><path
       id="path112"
       d="m 4076,2582 h -44 l -25,13 -26,13 v 19 12 l 26,19 25,13 44,6 32,-6 32,-13 19,-19 12,-12 -12,-19 -19,-13 -32,-13 z"
       inkscape:connector-curvature="0"
       style="fill:#61bd00" /><path
       id="path114"
       d="m 3741,1962 h -45 l -25,13 -25,19 v 19 19 l 25,19 25,6 45,13 31,-13 32,-6 19,-19 13,-19 -13,-19 -19,-19 -32,-13 z"
       inkscape:connector-curvature="0"
       style="fill:#61bd00" /><path
       id="path116"
       d="m 3076,2146 h -38 l -31,6 -19,13 -7,19 7,12 19,13 31,6 38,7 32,-7 31,-6 19,-13 13,-12 -13,-19 -19,-13 -31,-6 z"
       inkscape:connector-curvature="0"
       style="fill:#61bd00" /><path
       id="path118"
       d="m 4121,3646 h -38 l -32,6 -19,13 -6,19 6,12 19,13 32,6 38,7 31,-7 38,-6 26,-13 12,-12 -12,-19 -26,-13 -38,-6 z"
       inkscape:connector-curvature="0"
       style="fill:#61bd00" /><path
       id="path120"
       d="m 3665,2412 h -44 l -26,12 -25,13 v 19 13 l 25,19 26,12 44,7 31,-7 32,-12 19,-19 13,-13 -13,-19 -19,-13 -32,-12 z"
       inkscape:connector-curvature="0"
       style="fill:#61bd00" /><path
       id="path122"
       d="m 3279,2456 h -38 l -32,13 -25,12 v 26 12 l 25,19 32,6 38,7 31,-7 32,-6 19,-19 13,-12 -13,-26 -19,-12 -32,-13 z"
       inkscape:connector-curvature="0"
       style="fill:#61bd00" /><path
       id="path124"
       d="m 3943,2209 h -44 l -25,13 -26,19 v 19 19 l 26,19 25,6 44,13 32,-13 32,-6 19,-19 12,-19 -12,-19 -19,-19 -32,-13 z"
       inkscape:connector-curvature="0"
       style="fill:#61bd00" /><path
       id="path126"
       d="m 4462,2620 h -38 l -31,13 -19,13 -7,19 7,12 19,19 31,13 38,6 32,-6 32,-13 19,-19 12,-12 -12,-19 -19,-13 -32,-13 z"
       inkscape:connector-curvature="0"
       style="fill:#61bd00" /><path
       id="path128"
       d="m 4798,2089 h -38 l -32,12 -25,13 v 19 13 l 25,19 32,12 38,7 31,-7 38,-12 19,-19 13,-13 -13,-19 -19,-13 -38,-12 z"
       inkscape:connector-curvature="0"
       style="fill:#61bd00" /><path
       id="path130"
       d="m 4342,2317 h -57 l -38,12 -25,19 -6,26 6,12 25,13 38,13 57,6 38,-6 38,-13 25,-13 13,-12 -13,-26 -25,-19 -38,-12 z"
       inkscape:connector-curvature="0"
       style="fill:#61bd00" /><path
       id="path132"
       d="m 3412,1886 h -45 l -38,13 -25,19 -6,19 6,19 25,19 38,6 45,13 38,-13 38,-6 25,-19 13,-19 -13,-19 -25,-19 -38,-13 z"
       inkscape:connector-curvature="0"
       style="fill:#61bd00" /><path
       id="path134"
       d="m 5595,2779 h -50 l -38,12 -26,13 v 25 13 l 26,19 38,6 50,7 38,-7 38,-6 26,-19 12,-13 -12,-25 -26,-13 -38,-12 z"
       inkscape:connector-curvature="0"
       style="fill:#61bd00" /><path
       id="path136"
       d="m 5557,3665 h -44 l -38,12 -25,13 -7,19 7,13 25,19 38,12 44,7 38,-7 38,-12 26,-19 12,-13 -12,-19 -26,-13 -38,-12 z"
       inkscape:connector-curvature="0"
       style="fill:#61bd00" /><path
       id="path138"
       d="m 3810,3614 h -50 l -38,13 -26,13 v 25 12 l 26,19 38,7 50,6 38,-6 38,-7 26,-19 12,-12 -12,-25 -26,-13 -38,-13 z"
       inkscape:connector-curvature="0"
       style="fill:#61bd00" /><path
       id="path140"
       d="m 4399,3304 h -44 l -38,13 -26,19 -6,25 6,13 26,12 38,7 44,6 38,-6 38,-7 25,-12 13,-13 -13,-25 -25,-19 -38,-13 z"
       inkscape:connector-curvature="0"
       style="fill:#61bd00" /><path
       id="path142"
       d="m 4861,3823 h -44 l -38,13 -25,12 -7,26 7,12 25,19 38,7 44,6 44,-6 45,-7 25,-19 13,-12 -13,-26 -25,-12 -45,-13 z"
       inkscape:connector-curvature="0"
       style="fill:#61bd00" /><path
       id="path144"
       d="m 4171,3855 h -38 l -31,12 -26,13 v 19 19 l 26,19 31,13 38,6 32,-6 31,-13 19,-19 13,-19 -13,-19 -19,-13 -31,-12 z"
       inkscape:connector-curvature="0"
       style="fill:#61bd00" /><path
       id="path146"
       d="m 5045,3443 h -45 l -25,13 -25,13 v 25 13 l 25,19 25,6 45,6 31,-6 32,-6 19,-19 13,-13 -13,-25 -19,-13 -32,-13 z"
       inkscape:connector-curvature="0"
       style="fill:#61bd00" /><path
       id="path148"
       d="m 6209,1899 h -44 l -25,13 -26,12 v 19 13 l 26,19 25,12 44,7 32,-7 32,-12 19,-19 12,-13 -12,-19 -19,-12 -32,-13 z"
       inkscape:connector-curvature="0"
       style="fill:#61bd00" /><path
       id="path150"
       d="m 7380,2608 h -44 l -25,12 -26,13 v 25 13 l 26,19 25,6 44,7 32,-7 32,-6 19,-19 12,-13 -12,-25 -19,-13 -32,-12 z"
       inkscape:connector-curvature="0"
       style="fill:#61bd00" /><path
       id="path152"
       d="m 8032,1956 h -44 l -32,12 -25,19 v 26 12 l 25,13 32,13 44,6 32,-6 32,-13 19,-13 12,-12 -12,-26 -19,-19 -32,-12 z"
       inkscape:connector-curvature="0"
       style="fill:#61bd00" /><path
       id="path154"
       d="m 9475,1810 h -50 l -45,13 -31,13 -7,25 7,19 31,19 45,6 50,13 45,-13 44,-6 32,-19 12,-19 -12,-25 -32,-13 -44,-13 z"
       inkscape:connector-curvature="0"
       style="fill:#a6ed63" /><path
       id="path156"
       d="m 11064,1658 h -57 l -38,13 -25,13 -6,25 6,13 25,19 38,6 57,6 51,-6 44,-6 25,-19 13,-13 -13,-25 -25,-13 -44,-13 z"
       inkscape:connector-curvature="0"
       style="fill:#a6ed63" /><path
       id="path158"
       d="m 10551,2475 h -57 l -38,13 -25,12 -6,26 6,18 25,19 38,7 57,12 51,-12 44,-7 26,-19 12,-18 -12,-26 -26,-12 -44,-13 z"
       inkscape:connector-curvature="0"
       style="fill:#a6ed63" /><path
       id="path160"
       d="m 12963,1405 h -57 l -38,13 -25,12 -7,19 7,13 25,19 38,13 57,6 38,-6 44,-13 26,-19 12,-13 -12,-19 -26,-12 -44,-13 z"
       inkscape:connector-curvature="0"
       style="fill:#a6ed63" /><path
       id="path162"
       d="m 12115,532 h -57 l -38,12 -32,13 -6,19 6,19 32,19 38,13 57,6 44,-6 44,-13 26,-19 12,-19 -12,-19 -26,-13 -44,-12 z"
       inkscape:connector-curvature="0"
       style="fill:#a6ed63" /><path
       id="path164"
       d="m 4766,728 h -57 l -38,19 -31,13 -7,25 7,13 31,19 38,12 57,7 44,-7 45,-12 25,-19 13,-13 -13,-25 -25,-13 -45,-19 z"
       inkscape:connector-curvature="0"
       style="fill:#a6ed63" /><path
       id="path166"
       d="m 6380,1253 h -57 l -38,13 -31,13 -7,19 7,12 31,19 38,13 57,6 45,-6 44,-13 25,-19 13,-12 -13,-19 -25,-13 -44,-13 z"
       inkscape:connector-curvature="0"
       style="fill:#a6ed63" /><path
       id="path168"
       d="m 7342,456 h -38 l -25,12 -25,13 v 19 19 l 25,19 25,13 38,6 57,-19 26,-38 -26,-32 z"
       inkscape:connector-curvature="0"
       style="fill:#a6ed63" /><path
       id="path170"
       d="m 8672,1070 h -38 l -26,12 -25,13 v 25 13 l 25,19 26,6 38,7 31,-7 32,-6 19,-19 12,-13 -12,-25 -19,-13 -32,-12 z"
       inkscape:connector-curvature="0"
       style="fill:#a6ed63" /><path
       id="path172"
       d="m 3570,1089 h -44 l -26,12 -25,13 v 25 13 l 25,19 26,6 44,7 32,-7 31,-6 13,-19 13,-13 -13,-25 -13,-13 -31,-12 z"
       inkscape:connector-curvature="0"
       style="fill:#a6ed63" /><path
       id="path174"
       d="m 5165,2646 -63,19 -19,38 19,31 63,19 32,-6 31,-13 19,-19 13,-12 -13,-26 -19,-12 -31,-19 z"
       inkscape:connector-curvature="0"
       style="fill:#a6ed63" /><path
       id="path176"
       d="m 2886,2266 -63,13 -19,38 19,31 63,13 32,-6 32,-7 19,-19 12,-12 -12,-26 -19,-12 -32,-13 z"
       inkscape:connector-curvature="0"
       style="fill:#a6ed63" /><path
       id="path178"
       d="m 2595,1886 h -44 l -25,19 -26,13 v 25 13 l 26,19 25,12 44,7 57,-19 25,-32 -25,-38 z"
       inkscape:connector-curvature="0"
       style="fill:#a6ed63" /><path
       id="path180"
       d="m 2222,2241 -64,12 -19,45 19,25 64,19 31,-6 32,-13 19,-13 13,-12 -13,-32 -19,-13 -32,-12 z"
       inkscape:connector-curvature="0"
       style="fill:#a6ed63" /><path
       id="path182"
       d="m 1798,1424 h -38 l -26,13 -25,19 v 25 13 l 25,19 26,6 38,6 31,-6 32,-6 19,-19 13,-13 -13,-25 -19,-19 -32,-13 z"
       inkscape:connector-curvature="0"
       style="fill:#a6ed63" /><path
       id="path184"
       d="m 3038,2374 -63,12 -19,45 19,31 63,13 32,-6 31,-7 19,-19 13,-12 -13,-26 -19,-19 -31,-12 z"
       inkscape:connector-curvature="0"
       style="fill:#a6ed63" /><path
       id="path186"
       d="m 3133,1804 h -44 l -25,13 -26,19 v 25 13 l 26,19 25,6 44,6 32,-6 31,-6 13,-19 13,-13 -13,-25 -13,-19 -31,-13 z"
       inkscape:connector-curvature="0"
       style="fill:#a6ed63" /><path
       id="path188"
       d="m 3475,3215 -63,13 -19,38 19,38 63,19 32,-6 31,-13 19,-19 13,-19 -13,-25 -19,-13 -31,-13 z"
       inkscape:connector-curvature="0"
       style="fill:#a6ed63" /><path
       id="path190"
       d="m 3000,3386 h -38 l -31,13 -19,13 -7,25 7,19 19,19 31,6 38,13 32,-13 32,-6 12,-19 13,-19 -13,-25 -12,-13 -32,-13 z"
       inkscape:connector-curvature="0"
       style="fill:#a6ed63" /><path
       id="path192"
       d="m 2317,1962 -64,13 -19,38 19,38 64,19 31,-13 32,-6 19,-19 13,-19 -13,-26 -19,-12 -32,-13 z"
       inkscape:connector-curvature="0"
       style="fill:#a6ed63" /><path
       id="path194"
       d="m 2260,2152 -64,19 -19,38 19,32 64,19 31,-7 32,-12 13,-19 12,-13 -12,-25 -13,-13 -32,-19 z"
       inkscape:connector-curvature="0"
       style="fill:#a6ed63" /><path
       id="path196"
       d="m 2652,2336 h -38 l -32,12 -25,19 v 26 12 l 25,19 32,7 38,6 57,-13 25,-31 -25,-45 z"
       inkscape:connector-curvature="0"
       style="fill:#a6ed63" /><path
       id="path198"
       d="m 1899,2323 h -38 l -32,19 -19,19 -6,32 6,19 19,25 32,13 38,6 32,-6 31,-13 13,-25 12,-19 -12,-32 -13,-19 -31,-19 z"
       inkscape:connector-curvature="0"
       style="fill:#a6ed63" /><path
       id="path200"
       d="m 2842,2051 h -38 l -25,12 -26,13 v 19 19 l 26,19 25,13 38,6 32,-6 31,-13 19,-19 13,-19 -13,-19 -19,-13 -31,-12 z"
       inkscape:connector-curvature="0"
       style="fill:#a6ed63" /><path
       id="path202"
       d="m 2222,1336 -64,12 -19,38 19,38 64,19 31,-13 32,-6 19,-19 13,-19 -13,-25 -19,-13 -32,-12 z"
       inkscape:connector-curvature="0"
       style="fill:#a6ed63" /><path
       id="path204"
       d="m 2222,1336 -64,12 -19,38 19,38 64,19 31,-13 32,-6 19,-19 13,-19 -13,-25 -19,-13 -32,-12 z"
       inkscape:connector-curvature="0"
       style="fill:#a6ed63" /><path
       id="path206"
       d="m 4760,2760 h -38 l -25,12 -26,13 v 25 19 l 26,19 25,7 38,12 31,-12 32,-7 19,-19 13,-19 -13,-25 -19,-13 -32,-12 z"
       inkscape:connector-curvature="0"
       style="fill:#a6ed63" /><path
       id="path208"
       d="m 2829,3576 h -44 l -25,13 -26,13 v 25 19 l 26,19 25,6 44,13 32,-13 32,-6 12,-19 13,-19 -13,-25 -12,-13 -32,-13 z"
       inkscape:connector-curvature="0"
       style="fill:#a6ed63" /><path
       id="path210"
       d="m 5127,1785 -63,13 -19,31 19,32 63,19 32,-6 31,-13 19,-19 13,-13 -13,-19 -19,-12 -31,-13 z"
       inkscape:connector-curvature="0"
       style="fill:#a6ed63" /><path
       id="path212"
       d="m 2677,1310 h -38 -31 l -19,7 -7,19 7,6 19,13 31,6 38,6 32,-6 32,-6 12,-13 13,-6 -13,-19 -12,-7 h -32 z"
       inkscape:connector-curvature="0"
       style="fill:#a6ed63" /><path
       id="path214"
       d="m 2519,1557 h -38 l -25,6 -25,13 v 19 l 25,13 25,6 38,6 32,-6 31,-6 19,-13 h 13 l -13,-19 -19,-13 -31,-6 z"
       inkscape:connector-curvature="0"
       style="fill:#a6ed63" /><path
       id="path216"
       d="m 1842,1519 -63,6 -19,32 19,19 63,6 32,-6 h 31 l 19,-13 13,-6 -13,-19 -19,-13 -31,-6 z"
       inkscape:connector-curvature="0"
       style="fill:#a6ed63" /><path
       id="path218"
       d="m 1728,1614 -63,6 -19,32 19,19 63,6 32,-6 h 31 l 19,-13 13,-6 -13,-19 -19,-13 -31,-6 z"
       inkscape:connector-curvature="0"
       style="fill:#a6ed63" /><path
       id="path220"
       d="m 1690,1348 -63,7 -19,31 19,13 63,13 32,-7 31,-6 13,-13 h 13 l -13,-19 -13,-12 -31,-7 z"
       inkscape:connector-curvature="0"
       style="fill:#a6ed63" /><path
       id="path222"
       d="m 1386,1487 -63,7 -19,25 19,25 63,13 32,-6 31,-7 19,-12 13,-13 -13,-19 -19,-6 -31,-7 z"
       inkscape:connector-curvature="0"
       style="fill:#a6ed63" /><path
       id="path224"
       d="m 2089,1462 h -45 l -25,6 -25,7 v 12 13 l 25,13 25,6 45,6 31,-6 32,-6 13,-13 12,-13 -12,-12 -13,-7 -32,-6 z"
       inkscape:connector-curvature="0"
       style="fill:#a6ed63" /><path
       id="path226"
       d="m 1994,1215 -63,7 -19,19 19,19 63,12 31,-6 32,-6 19,-13 13,-6 -13,-13 -19,-6 -32,-7 z"
       inkscape:connector-curvature="0"
       style="fill:#a6ed63" /><path
       id="path228"
       d="m 2526,1184 -64,6 -19,32 19,19 64,12 31,-6 32,-6 19,-13 12,-6 -12,-19 -19,-13 -32,-6 z"
       inkscape:connector-curvature="0"
       style="fill:#a6ed63" /><path
       id="path230"
       d="m 1215,1576 h -38 -31 l -19,6 -7,19 7,7 19,12 31,7 38,6 32,-6 32,-7 12,-12 13,-7 -13,-19 -12,-6 h -32 z"
       inkscape:connector-curvature="0"
       style="fill:#a6ed63" /><path
       id="path232"
       d="m 1570,1412 h -38 l -32,6 -25,12 v 13 6 l 25,13 h 32 l 38,6 57,-6 25,-19 -25,-25 z"
       inkscape:connector-curvature="0"
       style="fill:#a6ed63" /><path
       id="path234"
       d="m 2861,1582 h -38 l -25,7 -26,6 v 19 6 l 26,13 h 25 l 38,6 57,-6 25,-19 -25,-25 z"
       inkscape:connector-curvature="0"
       style="fill:#a6ed63" /><path
       id="path236"
       d="m 2519,2285 h -63 l -51,6 -31,7 -7,19 7,6 31,13 h 51 l 63,6 51,-6 h 50 l 32,-13 19,-6 -19,-19 -32,-7 -50,-6 z"
       inkscape:connector-curvature="0"
       style="fill:#a6ed63" /><path
       id="path238"
       d="m 2469,1032 h -38 l -32,6 -19,13 -6,12 6,7 19,12 h 32 l 38,7 31,-7 h 32 l 12,-12 13,-7 -13,-12 -12,-13 -32,-6 z"
       inkscape:connector-curvature="0"
       style="fill:#a6ed63" /><path
       id="path240"
       d="m 3051,987 h -38 -32 l -25,7 v 19 6 l 25,13 32,6 38,6 57,-12 25,-19 -25,-26 z"
       inkscape:connector-curvature="0"
       style="fill:#a6ed63" /><path
       id="path242"
       d="m 2253,1601 h -38 l -25,7 -25,12 v 19 7 l 25,12 25,7 38,6 32,-6 32,-7 19,-12 12,-7 -12,-19 -19,-12 -32,-7 z"
       inkscape:connector-curvature="0"
       style="fill:#a6ed63" /><path
       id="path244"
       d="m 1646,1506 h -45 l -25,7 -25,12 v 19 7 l 25,12 25,7 45,6 57,-13 25,-19 -25,-31 z"
       inkscape:connector-curvature="0"
       style="fill:#a6ed63" /><path
       id="path246"
       d="m 1494,1557 h -38 -26 l -25,6 v 19 7 l 25,12 26,7 38,6 31,-6 32,-7 19,-12 13,-7 -13,-19 -19,-6 h -32 z"
       inkscape:connector-curvature="0"
       style="fill:#a6ed63" /><path
       id="path248"
       d="m 2089,1601 h -45 l -25,7 -25,6 v 19 6 l 25,13 h 25 l 45,6 31,-6 h 32 l 13,-13 12,-6 -12,-19 -13,-6 -32,-7 z"
       inkscape:connector-curvature="0"
       style="fill:#a6ed63" /><path
       id="path250"
       d="m 1899,1317 h -57 l -32,12 -25,13 -6,25 6,13 25,13 32,6 57,6 44,-6 44,-6 26,-13 12,-13 -12,-25 -26,-13 -44,-12 z"
       inkscape:connector-curvature="0"
       style="fill:#a6ed63" /><path
       id="path252"
       d="m 3298,1525 h -38 l -32,7 -25,6 v 19 13 l 25,12 32,7 38,6 57,-13 25,-25 -25,-25 z"
       inkscape:connector-curvature="0"
       style="fill:#a6ed63" /><path
       id="path254"
       d="m 2519,2076 h -38 l -25,6 -25,13 v 19 6 l 25,13 25,6 38,7 57,-13 25,-19 -25,-32 z"
       inkscape:connector-curvature="0"
       style="fill:#a6ed63" /><path
       id="path256"
       d="m 2595,2507 h -38 -25 l -25,6 v 19 6 l 25,13 25,6 38,6 57,-12 25,-19 -25,-25 z"
       inkscape:connector-curvature="0"
       style="fill:#a6ed63" /><path
       id="path258"
       d="m 2032,2260 h -63 l -19,25 19,19 63,13 31,-7 32,-6 19,-13 13,-6 -13,-19 -19,-6 h -32 z"
       inkscape:connector-curvature="0"
       style="fill:#a6ed63" /><path
       id="path260"
       d="m 2272,2380 h -38 l -31,6 -26,7 v 19 12 l 26,13 31,6 38,7 57,-13 26,-25 -26,-26 z"
       inkscape:connector-curvature="0"
       style="fill:#a6ed63" /><path
       id="path262"
       d="m 2728,2133 h -38 l -25,6 -26,7 v 19 6 l 26,13 h 25 l 38,6 32,-6 h 31 l 19,-13 13,-6 -13,-19 -19,-7 -31,-6 z"
       inkscape:connector-curvature="0"
       style="fill:#a6ed63" /><path
       id="path264"
       d="m 2772,1867 -63,7 -19,25 19,25 63,13 32,-6 32,-7 12,-12 13,-13 -13,-19 -12,-6 -32,-7 z"
       inkscape:connector-curvature="0"
       style="fill:#a6ed63" /><path
       id="path266"
       d="m 2861,2171 h -38 l -25,6 -26,13 v 19 6 l 26,13 25,6 38,7 57,-13 25,-19 -25,-32 z"
       inkscape:connector-curvature="0"
       style="fill:#a6ed63" /><path
       id="path268"
       d="m 2842,2412 h -38 -25 l -26,6 v 19 6 l 26,13 25,6 38,7 32,-7 31,-6 19,-13 13,-6 -13,-19 -19,-6 h -31 z"
       inkscape:connector-curvature="0"
       style="fill:#a6ed63" /><path
       id="path270"
       d="m 2576,3595 h -38 l -25,7 -25,12 v 13 13 l 25,12 25,7 38,6 32,-6 31,-7 19,-12 13,-13 -13,-13 -19,-12 -31,-7 z"
       inkscape:connector-curvature="0"
       style="fill:#a6ed63" /><path
       id="path272"
       d="m 3209,3304 h -63 l -19,25 19,19 63,13 32,-6 31,-7 13,-12 13,-7 -13,-19 -13,-6 h -31 z"
       inkscape:connector-curvature="0"
       style="fill:#a6ed63" /><path
       id="path274"
       d="m 3076,2658 h -63 l -19,26 19,19 63,12 32,-6 31,-6 19,-13 13,-6 -13,-19 -19,-7 h -31 z"
       inkscape:connector-curvature="0"
       style="fill:#a6ed63" /><path
       id="path276"
       d="m 2412,2146 h -64 l -19,25 19,19 64,13 31,-7 32,-6 13,-13 12,-6 -12,-19 -13,-6 h -32 z"
       inkscape:connector-curvature="0"
       style="fill:#a6ed63" /><path
       id="path278"
       d="m 2070,2152 -64,6 -19,32 19,19 64,13 31,-7 32,-6 19,-13 13,-6 -13,-19 -19,-13 -32,-6 z"
       inkscape:connector-curvature="0"
       style="fill:#a6ed63" /><path
       id="path280"
       d="m 2006,2380 h -37 l -26,6 -25,7 v 19 6 l 25,13 h 26 l 37,6 32,-6 h 32 l 19,-13 12,-6 -12,-19 -19,-7 -32,-6 z"
       inkscape:connector-curvature="0"
       style="fill:#a6ed63" /><path
       id="path282"
       d="m 2412,2437 h -45 l -31,6 -26,13 v 19 13 l 26,12 31,7 45,6 31,-6 38,-7 26,-12 12,-13 -12,-19 -26,-13 -38,-6 z"
       inkscape:connector-curvature="0"
       style="fill:#a6ed63" /><path
       id="path284"
       d="m 3912,1867 h -45 l -31,7 -26,12 v 19 13 l 26,13 31,6 45,6 31,-6 38,-6 26,-13 12,-13 -12,-19 -26,-12 -38,-7 z"
       inkscape:connector-curvature="0"
       style="fill:#a6ed63" /><path
       id="path286"
       d="m 3412,2665 h -45 l -31,6 -26,6 -6,19 6,13 26,13 31,6 45,6 31,-6 38,-6 19,-13 13,-13 -13,-19 -19,-6 -38,-6 z"
       inkscape:connector-curvature="0"
       style="fill:#a6ed63" /><path
       id="path288"
       d="m 3260,3380 h -45 l -31,6 -26,13 -6,19 6,13 26,12 31,7 45,6 31,-6 38,-7 19,-12 13,-13 -13,-19 -19,-13 -38,-6 z"
       inkscape:connector-curvature="0"
       style="fill:#a6ed63" /><path
       id="path290"
       d="m 3013,1367 h -38 l -25,13 -26,13 v 19 18 l 26,19 25,13 38,6 32,-6 31,-13 19,-19 13,-18 -13,-19 -19,-13 -31,-13 z"
       inkscape:connector-curvature="0"
       style="fill:#a6ed63" /><path
       id="path292"
       d="m 9798,424 h -38 l -31,13 -19,12 -7,32 7,13 19,19 31,6 38,13 32,-13 31,-6 13,-19 13,-13 -13,-32 -13,-12 -31,-13 z"
       inkscape:connector-curvature="0"
       style="fill:#a6ed63" /><path
       id="path294"
       d="m 8842,684 h -69 l -51,12 -31,13 -13,19 13,19 31,19 51,13 69,6 51,-6 51,-13 31,-19 19,-19 -19,-19 -31,-13 -51,-12 z"
       inkscape:connector-curvature="0"
       style="fill:#a6ed63" /></g></svg>
