<?xml version="1.0" encoding="UTF-8" standalone="no"?>
<svg
   xmlns:dc="http://purl.org/dc/elements/1.1/"
   xmlns:cc="http://creativecommons.org/ns#"
   xmlns:rdf="http://www.w3.org/1999/02/22-rdf-syntax-ns#"
   xmlns:svg="http://www.w3.org/2000/svg"
   xmlns="http://www.w3.org/2000/svg"
   xmlns:xlink="http://www.w3.org/1999/xlink"
   xmlns:sodipodi="http://sodipodi.sourceforge.net/DTD/sodipodi-0.dtd"
   xmlns:inkscape="http://www.inkscape.org/namespaces/inkscape"
   width="125mm"
   height="88mm"
   version="1.1"
   viewBox="0 0 472.43897 332.59764"
   id="svg224"
   sodipodi:docname="cutting_board.svg"
   inkscape:version="1.0.2-2 (e86c870879, 2021-01-15)">
  <metadata
     id="metadata228">
    <rdf:RDF>
      <cc:Work
         rdf:about="">
        <dc:format>image/svg+xml</dc:format>
        <dc:type
           rdf:resource="http://purl.org/dc/dcmitype/StillImage" />
        <dc:title></dc:title>
      </cc:Work>
    </rdf:RDF>
  </metadata>
  <sodipodi:namedview
     pagecolor="#ffffff"
     bordercolor="#666666"
     borderopacity="1"
     objecttolerance="10"
     gridtolerance="10"
     guidetolerance="10"
     inkscape:pageopacity="0"
     inkscape:pageshadow="2"
     inkscape:window-width="1920"
     inkscape:window-height="1017"
     id="namedview226"
     showgrid="false"
     units="mm"
     inkscape:zoom="1.7586531"
     inkscape:cx="229.20565"
     inkscape:cy="146.91914"
     inkscape:window-x="-8"
     inkscape:window-y="-8"
     inkscape:window-maximized="1"
     inkscape:current-layer="svg224" />
  <defs
     id="defs56">
    <radialGradient
       id="ae"
       cx="64.300003"
       cy="-30.950001"
       r="50.459999"
       gradientTransform="matrix(1,0,0,-1,0,-61.9)"
       gradientUnits="userSpaceOnUse">
      <stop
         stop-color="#F3A32D"
         stop-opacity="0"
         offset="0"
         id="stop2" />
      <stop
         stop-color="#EB982C"
         stop-opacity=".1294"
         offset=".1098"
         id="stop4" />
      <stop
         stop-color="#D37B29"
         stop-opacity=".4863"
         offset=".302"
         id="stop6" />
      <stop
         stop-color="#B25225"
         offset=".5216"
         id="stop8" />
    </radialGradient>
    <radialGradient
       id="af"
       cx="64.400002"
       cy="-64.275002"
       r="64.336998"
       gradientTransform="matrix(1,0,0,-1,0,-128.55)"
       gradientUnits="userSpaceOnUse">
      <stop
         stop-color="#E2E5BD"
         offset="0"
         id="stop11" />
      <stop
         stop-color="#E3DCB2"
         offset=".0824"
         id="stop13" />
      <stop
         stop-color="#E5C596"
         offset=".2235"
         id="stop15" />
      <stop
         stop-color="#E99F6A"
         offset=".4078"
         id="stop17" />
      <stop
         stop-color="#EE6E33"
         offset=".6078"
         id="stop19" />
      <stop
         stop-color="#E86C33"
         stop-opacity=".9725"
         offset=".6745"
         id="stop21" />
      <stop
         stop-color="#D76732"
         stop-opacity=".898"
         offset=".7608"
         id="stop23" />
      <stop
         stop-color="#BB5F31"
         stop-opacity=".7804"
         offset=".8667"
         id="stop25" />
      <stop
         stop-color="#955430"
         stop-opacity=".6157"
         offset=".9765"
         id="stop27" />
      <stop
         stop-color="#8C5130"
         stop-opacity=".5765"
         offset="1"
         id="stop29" />
    </radialGradient>
    <linearGradient
       id="ac"
       x1="16161"
       x2="16221"
       y1="-58.466999"
       y2="-58.466999"
       gradientTransform="matrix(1.6549e-5,1,-1,-0.001,0.8657,-16221)"
       gradientUnits="userSpaceOnUse">
      <stop
         stop-color="#E2B8B2"
         offset=".1294"
         id="stop32" />
      <stop
         stop-color="#fff"
         offset=".9255"
         id="stop34" />
    </linearGradient>
    <linearGradient
       id="ad"
       x1="-125.33"
       x2="-64.616997"
       y1="85.944"
       y2="85.944"
       gradientTransform="matrix(7.3000574e-5,-4.4312598,4.4312598,-0.00443126,-145.36372,-253.03343)"
       gradientUnits="userSpaceOnUse">
      <stop
         stop-color="#AB3D15"
         offset=".1098"
         id="stop37" />
      <stop
         stop-color="#C8834E"
         offset=".4588"
         id="stop39" />
      <stop
         stop-color="#E6C588"
         offset=".8275"
         id="stop41" />
      <stop
         stop-color="#F1DF9F"
         offset="1"
         id="stop43" />
    </linearGradient>
    <linearGradient
       id="aa"
       x1="1.7739"
       x2="27.224001"
       y1="-11.595"
       y2="-15.02"
       gradientUnits="userSpaceOnUse">
      <stop
         stop-color="#949494"
         offset="0"
         id="stop46" />
      <stop
         stop-color="#D5D5D5"
         offset="1"
         id="stop48" />
    </linearGradient>
    <linearGradient
       id="ab"
       x1="3.8647001"
       x2="10.14"
       y1="-4.6553001"
       y2="-6.7302999"
       gradientUnits="userSpaceOnUse">
      <stop
         stop-color="#9B7C36"
         offset="0"
         id="stop51" />
      <stop
         stop-color="#E0A858"
         offset="1"
         id="stop53" />
    </linearGradient>
  </defs>
  <symbol
     id="q"
     transform="translate(-93.035,-63.913)"
     viewBox="0 -56.65 87.8 56.65">
    <defs
       id="defs59">
      <polygon
         id="u"
         points="6.1,0 0,-45.7 81.65,-56.65 87.8,-11 " />
    </defs>
    <clipPath
       id="v">
      <use
         width="171.7"
         height="171.8"
         xlink:href="#u"
         id="use61"
         x="0"
         y="0" />
    </clipPath>
    <g
       clip-path="url(#v)"
       fill="#ffffff"
       fill-rule="evenodd"
       id="g76">
      <path
         d="m 31.65,-16.25 8.05,2.6 -4.95,-36.7 c -1.867,0.2 -3.85,0.783 -5.95,1.75 l -1.4,0.7 z"
         id="path64" />
      <path
         d="m 1.4,-35.25 1.25,9.35 c 5.633,1.967 13.283,4.517 22.95,7.65 L 21.95,-45.3 c -6.2,2.967 -13.05,6.317 -20.55,10.05 z"
         id="path66" />
      <path
         d="m 85.4,-26.55 c 0.733,-1.4 -0.65,-3.05 -4.15,-4.95 l -2.15,-1.1 1.2,9.05 c 2.933,-1.167 4.633,-2.167 5.1,-3 z"
         id="path68" />
      <path
         d="m 71.3,-19.6 -2.4,-17.75 -4.25,-1.9 3.2,24.05 c 1.2,0.3 2.167,0.784 2.9,1.45 0.433,0.4 0.967,1.017 1.6,1.85 l -0.75,-5.55 c -0.3,-0.2 -0.583,-0.483 -0.85,-0.85 -0.2,-0.333 -0.017,-0.767 0.55,-1.3 z"
         id="path70" />
      <path
         d="m 66.05,-15.5 -3.3,-24.55 -9.95,-4.35 4.05,30.35 c 1.967,-0.7 3.05,-1.083 3.25,-1.15 1,-0.3 2.117,-0.45 3.35,-0.45 1,0 1.867,0.05 2.6,0.15 z"
         id="path72" />
      <path
         d="m 82.1,-10.2 c 0.933,-0.466 1.467,-1.05 1.6,-1.75 0.133,-0.767 -0.25,-1.517 -1.15,-2.25 -0.367,-0.333 -0.733,-0.583 -1.1,-0.75 z"
         id="path74" />
    </g>
  </symbol>
  <symbol
     id="r"
     transform="translate(-93.035,-63.913)"
     viewBox="0 -26.65 29 26.65">
    <defs
       id="defs80">
      <path
         id="w"
         d="m 25.2,-14.4 c -2.034,2.4 -4.8,5 -8.3,7.8 C 12.333,-2.867 7.833,-0.667 3.4,0 H 3.1 c -0.033,-0.9 0.067,-2.167 0.3,-3.8 0.4,-3.3 1.2,-6.883 2.4,-10.75 1.1,-3.5 2.083,-6.2 2.95,-8.1 0.433,-0.967 0.767,-1.567 1,-1.8 2.8,2.4 5.65,4.317 8.55,5.75 2.1,1.034 4.217,1.617 6.35,1.75 1.067,0.034 1.917,-0.017 2.55,-0.15 -0.3,0.633 -0.967,1.533 -2,2.7 z" />
    </defs>
    <clipPath
       id="x">
      <use
         width="171.7"
         height="171.8"
         xlink:href="#w"
         id="use82"
         x="0"
         y="0" />
    </clipPath>
    <g
       clip-path="url(#x)"
       id="g87">
      <polygon
         points="3.1,0 29,-3.45 25.9,-26.65 0,-23.15 "
         fill="url(#aa)"
         fill-rule="evenodd"
         id="polygon85" />
    </g>
  </symbol>
  <symbol
     id="s"
     transform="translate(-93.035,-63.913)"
     viewBox="0 -11.45 14.25 11.45">
    <defs
       id="defs91">
      <path
         id="y"
         d="m 9.15,-3.4 -0.9,0.25 c -1.4,0.167 -2.867,-0.167 -4.4,-1 -1.5,-0.867 -1.867,-1.6 -1.1,-2.2 1.233,-0.933 3.1,-0.9 5.6,0.1 2.5,1 2.767,1.95 0.8,2.85 z" />
    </defs>
    <clipPath
       id="z">
      <use
         width="171.7"
         height="171.8"
         xlink:href="#y"
         id="use93"
         x="0"
         y="0" />
    </clipPath>
    <g
       clip-path="url(#z)"
       id="g98">
      <polygon
         points="2.25,0 14.25,-4.15 11.95,-11.45 0,-7.25 "
         fill="url(#ab)"
         fill-rule="evenodd"
         id="polygon96" />
    </g>
  </symbol>
  <symbol
     id="t"
     transform="translate(-93.035,-63.913)"
     viewBox="0 -56.65 87.8 56.65">
    <use
       transform="translate(93.035,63.913)"
       y="-56.650002"
       width="87.800003"
       height="56.650002"
       xlink:href="#q"
       id="use101"
       x="0" />
  </symbol>
  <symbol
     transform="translate(-93.035,-63.913)"
     viewBox="0 -61.9 128.6 61.9"
     id="symbol106">
    <path
       d="M 128.05,-0.3 128.6,0 C 127.97,-17.233 121.43,-31.85 109,-43.85 96.5,-55.883 81.583,-61.9 64.25,-61.9 c -17.033,0 -31.733,5.816 -44.1,17.45 C 7.783,-32.883 1.067,-18.683 0,-1.85 c 4.967,-12.967 13.183,-23.467 24.65,-31.5 11.7,-8.2 24.717,-12.3 39.05,-12.3 14.667,0 27.917,4.25 39.75,12.75 11.6,8.333 19.8,19.2 24.6,32.6 z"
       fill="url(#ae)"
       fill-rule="evenodd"
       id="path104" />
  </symbol>
  <symbol
     transform="translate(-93.035,-63.913)"
     viewBox="0 -66.434 119.2 66.434"
     id="symbol110">
    <path
       d="m 115.4,-37.25 c 2.533,-6.1 3.8,-11.85 3.8,-17.25 0,-5.367 -1.567,-8.75 -4.7,-10.15 -2.533,-1.133 -6.783,-1.117 -12.75,0.05 -7.9,1.9 -14.217,3.367 -18.95,4.4 -8.667,1.833 -16.4,2.75 -23.2,2.75 -6.867,0 -14.6,-1 -23.2,-3 -9.033,-2.367 -15.35,-3.966 -18.95,-4.8 -6,-1.367 -10.25,-1.55 -12.75,-0.55 -3.133,1.267 -4.7,4.583 -4.7,9.95 0,5.967 1.267,12.117 3.8,18.45 2.667,6.7 6.434,12.733 11.3,18.1 C 26.7,-6.433 41.533,0 59.6,0 c 17.833,0 32.65,-6.5 44.45,-19.5 4.833,-5.333 8.617,-11.25 11.35,-17.75 z"
       fill="#ffffff"
       fill-rule="evenodd"
       id="path108" />
  </symbol>
  <symbol
     transform="translate(-93.035,-63.913)"
     viewBox="0 -128.55 128.8 128.55"
     id="symbol114">
    <path
       d="m 128.8,-64.3 c 0,-17.733 -6.283,-32.883 -18.85,-45.45 -12.6,-12.533 -27.784,-18.8 -45.55,-18.8 -17.8,0 -32.983,6.267 -45.55,18.8 C 6.283,-97.217 0,-82.067 0,-64.3 0,-46.533 6.283,-31.367 18.85,-18.8 31.417,-6.267 46.6,0 64.4,0 c 17.767,0 32.95,-6.267 45.55,-18.8 12.567,-12.567 18.85,-27.733 18.85,-45.5 z"
       fill="url(#af)"
       fill-rule="evenodd"
       id="path112" />
  </symbol>
  <symbol
     transform="translate(-93.035,-63.913)"
     viewBox="0 -60.45 119.2 60.45"
     id="symbol118">
    <path
       d="m 104.05,-19.5 c 4.833,-5.333 8.617,-11.25 11.35,-17.75 2.533,-6.1 3.8,-11.85 3.8,-17.25 0,-1.8 -0.184,-3.4 -0.55,-4.8 -2,11.966 -7.85,22.6 -17.55,31.9 -11.434,11 -25.267,16.5 -41.5,16.5 -16.533,0 -30.45,-5.483 -41.75,-16.45 -9.733,-9.433 -15.533,-20.467 -17.4,-33.1 -0.3,1.3 -0.45,2.833 -0.45,4.6 0,5.967 1.267,12.117 3.8,18.45 2.667,6.7 6.434,12.733 11.3,18.1 C 26.7,-6.433 41.533,0 59.6,0 77.433,0 92.25,-6.5 104.05,-19.5 Z"
       fill="url(#ac)"
       fill-rule="evenodd"
       id="path116" />
  </symbol>
  <path
     d="m 132.9204,131.37638 c 58.78952,-10.93192 89.65767,-16.90969 92.61333,-17.9466 17.5788,-5.76064 30.35412,-9.01319 38.32596,-9.74878 7.09445,-0.74002 15.43408,0.14624 25.03662,2.65876 6.0531,1.62627 15.65564,4.79905 28.80319,9.52721 7.09001,2.51252 14.0338,3.76657 20.82692,3.76657 15.50941,0 25.92287,-3.62034 31.24038,-10.85659 2.36186,-4.13436 4.1388,-7.16534 5.31751,-9.08408 2.21563,-3.248113 4.87439,-5.614406 7.97627,-7.090016 10.93192,-6.349995 19.42664,-11.153481 25.47974,-14.401594 11.22438,-6.203764 18.61129,-8.344062 22.1563,-6.425327 1.62184,0.886252 2.29096,5.095949 1.99407,12.629091 -0.29246,5.614406 -0.88625,10.931918 -1.7725,15.952536 -0.44313,2.51252 -1.03249,4.35593 -1.76808,5.53907 -0.59379,1.03249 -2.1403,2.58343 -4.65725,4.65283 -5.61441,4.72815 -15.80187,6.57155 -30.57126,5.53907 -13.58624,-0.88625 -22.1563,1.25848 -25.70131,6.42533 -1.62627,2.36186 8.71186,4.87438 31.01882,7.53314 24.22127,2.95565 37.59038,6.12843 40.1029,9.52278 1.76807,2.36629 2.43719,7.16534 1.99407,14.40159 -0.2969,6.20377 -1.10782,11.81817 -2.44163,16.84322 -0.88182,3.24811 -2.43719,5.90687 -4.65282,7.97627 -2.65876,2.50809 -8.19783,6.19933 -16.61722,11.07815 -12.69999,7.38691 -41.87541,20.97315 -87.51738,40.76759 -44.75573,19.20065 -69.19856,29.76477 -73.33735,31.67907 -14.18004,6.64689 -22.30253,10.1919 -24.37193,10.63503 -14.62316,3.39877 -30.2079,1.18314 -46.74979,-6.64689 -20.3838,-9.60254 -45.78821,-21.93474 -76.21767,-37.00545 C 77.671448,213.78895 58.395468,204.11551 51.602347,200.27361 44.3661,196.2899 39.637945,193.62672 37.422315,192.29734 c -5.317511,-3.69124 -7.976267,-6.79312 -7.976267,-9.30565 0,-3.54944 0.367794,-8.64095 1.107815,-15.28784 1.183146,-9.31008 2.583424,-14.32627 4.209697,-15.06629 8.12693,-3.53614 40.847352,-10.62616 98.15684,-21.26118 z"
     fill="#a78343"
     fill-rule="evenodd"
     id="path128"
     style="stroke-width:4.43126" />
  <path
     d="m 92.817494,186.76713 -17.06035,-2.88032 -4.43126,27.03511 -4.874386,-2.21563 4.652823,-27.03511 -6.203763,-9.52278 -6.203764,3.10188 -4.874386,26.36157 -2.21563,-1.32938 c -1.626272,-0.58936 -3.101882,-1.32938 -4.43126,-2.21563 l 5.317512,-26.14 -8.419394,-4.65726 -3.988133,26.58756 -7.311579,-4.65282 3.988134,-31.01882 95.493652,-1.7725 74.88829,35.45007 19.49754,52.28887 6.64689,29.02475 c -6.64689,1.47561 -13.81224,1.77251 -21.49161,0.88625 l 4.65282,-32.57419 -20.38379,-0.66026 -4.87439,28.1385 -11.52127,-4.87438 2.65875,-29.25075 -13.29378,-6.19933 -6.20376,27.24782 -7.31158,-3.32345 2.43719,-31.67907 -6.64689,-12.40753 -14.40159,4.87438 -6.64689,26.58756 -12.40753,-6.20376 5.9822,-26.58756 -20.16223,-15.28785 -5.317511,2.88032 -3.545008,27.03512 -7.311579,-3.32345 z"
     fill="#8f7139"
     fill-rule="evenodd"
     id="path130"
     style="stroke-width:4.43126" />
  <path
     d="m 408.76632,79.973764 c -0.29247,0.886252 -0.96159,1.626272 -1.99407,2.21563 -20.53003,11.078149 -22.89189,22.524096 -7.09001,34.342266 -10.78569,-0.58936 -16.83879,-0.81092 -18.16817,-0.66469 -6.20376,0.44312 -10.63502,2.65875 -13.29378,6.64689 -1.62627,2.36186 8.71186,4.87438 31.01882,7.53314 24.22127,2.95565 37.59038,6.12843 40.1029,9.52278 1.76807,2.36629 2.43719,7.16534 1.99407,14.40159 -0.2969,6.20377 -1.10782,11.81817 -2.44163,16.84322 -0.88182,3.24811 -2.43719,5.90687 -4.65282,7.97627 -2.65876,2.50809 -8.19783,6.19933 -16.61722,11.07815 -12.69999,7.38691 -41.87541,20.97315 -87.51738,40.76759 -44.75573,19.20065 -69.19856,29.76477 -73.33735,31.67907 -5.17128,3.10189 -9.82411,5.53908 -13.95847,7.31158 -7.83004,3.39878 -15.80188,5.02062 -23.92437,4.87439 1.32937,-1.32938 2.29096,-3.02655 2.88031,-5.09152 0.14624,-0.59379 0.88626,-4.43126 2.21563,-11.52571 2.36187,-12.84622 2.36187,-25.7013 0,-38.55196 l -4.43126,-15.50941 c 43.72324,-31.60817 83.60458,-59.67134 119.64402,-84.19393 15.06628,-0.14623 25.25818,-3.8419 30.57569,-11.07815 2.36186,-3.98814 4.1388,-6.94379 5.31751,-8.862521 2.21563,-3.248114 4.87439,-5.614406 7.97627,-7.090016 2.50809,-1.183146 6.42533,-3.323445 11.74284,-6.425327 6.93935,-4.134365 11.52128,-6.793121 13.73691,-7.976267 0.29246,0.301325 0.36779,0.890683 0.22156,1.776935 z"
     fill="#876930"
     fill-rule="evenodd"
     id="path132"
     style="stroke-width:4.43126" />
  <path
     d="m 432.47356,175.91054 c 5.31308,-6.0531 7.90093,-17.50348 7.7547,-34.34226 1.18315,3.10188 1.55094,7.90093 1.10782,14.40159 -0.44756,5.46374 -1.25848,10.41789 -2.44163,14.84915 -0.88182,3.24811 -2.43719,5.90687 -4.65282,7.97627 -2.65876,2.50809 -8.19783,6.19933 -16.61722,11.07815 -12.69999,7.38691 -41.87541,20.97315 -87.51738,40.76759 -44.75573,19.20065 -69.19856,29.76477 -73.33735,31.67907 -5.17128,3.10189 -9.82411,5.53908 -13.95847,7.31158 -7.83004,3.39878 -15.80188,5.02062 -23.92437,4.87439 1.18314,-1.32938 1.99406,-2.58343 2.43719,-3.76657 1.62627,-0.14623 4.50659,-0.51846 8.64096,-1.10782 4.57749,-0.88625 10.55969,-3.03098 17.9466,-6.42532 7.09001,-3.10189 31.46194,-13.80781 73.11578,-32.12664 34.56383,-15.06628 58.20017,-25.55507 70.90016,-31.46194 22.30253,-10.48879 35.81787,-18.38973 40.54603,-23.70724 z"
     fill="#795d2b"
     fill-rule="evenodd"
     id="path134"
     style="stroke-width:4.43126" />
  <path
     d="m 38.534562,149.10142 c 14.180031,-6.0531 77.843938,-27.47381 190.987298,-64.25327 17.42814,-5.760638 30.2079,-9.008751 38.3304,-9.748772 7.09001,-0.74002 15.36317,0.150663 24.81505,2.658756 6.35443,1.626272 15.95697,4.799054 28.80319,9.527209 7.24068,2.658756 14.25536,3.988133 21.04848,3.988133 15.66008,0 26.44133,-2.804987 32.35263,-8.419393 0,-0.146232 2.1403,-2.658756 6.4209,-7.533142 2.36629,-2.804987 5.09595,-4.949717 8.20226,-6.425327 13.44001,-6.203763 25.25818,-6.868452 35.45008,-1.994066 9.895,4.874385 10.63059,10.856586 2.21563,17.946602 -5.46375,4.728154 -14.99539,7.679373 -28.58163,8.862519 -12.26129,1.032484 -20.16223,4.138797 -23.70724,9.305641 -2.0694,3.10189 2.87589,7.31158 14.84472,12.6291 1.03249,0.44312 9.89501,3.8419 26.58756,10.19189 13.29378,5.46375 21.04848,9.97034 23.26411,13.51535 3.54501,6.20376 -2.50809,13.59067 -18.16816,22.15629 -20.97315,11.52571 -74.59583,35.59631 -160.85916,72.22954 -11.95997,5.9113 -20.16223,9.38098 -24.59349,10.41789 -14.62316,3.24811 -30.2788,0.96158 -46.97136,-6.86845 C 116.30317,202.57343 71.83991,180.78936 55.594912,171.92684 45.549246,166.31243 39.420814,162.54586 37.205184,160.62269 c -5.760638,-4.87438 -5.317512,-8.71185 1.329378,-11.52127 z"
     fill="#dfb768"
     fill-rule="evenodd"
     id="path136"
     style="stroke-width:4.43126" />
  <path
     d="M 58.696794,173.47335 52.49303,170.1499 c 22.010067,-6.20376 38.108834,-13.58624 48.30073,-22.1563 14.47693,-12.11063 25.18728,-20.45912 32.12664,-25.03662 12.55375,-8.41939 24.44726,-13.66157 35.67164,-15.73097 5.90687,-1.03248 20.90225,-2.88032 44.97728,-5.53907 20.0869,-2.06497 34.71006,-4.431263 43.86948,-7.090019 9.30564,-2.512524 20.45469,-8.273162 33.45601,-17.281913 l 5.76064,1.550941 c -14.0338,9.748772 -27.25225,16.692556 -39.65978,20.826921 -16.69256,5.61441 -37.88727,8.64096 -63.58858,9.08408 -24.66882,0.44313 -43.12945,5.24661 -55.39075,14.4016 -7.23624,5.31751 -17.5788,14.76939 -31.01881,28.36006 -10.635028,7.97627 -26.733795,15.28785 -48.300736,21.93474 z"
     fill="#caa455"
     fill-rule="evenodd"
     id="path138"
     style="stroke-width:4.43126" />
  <path
     d="m 112.31504,167.71271 c -13.14755,1.32938 -25.404415,6.12843 -36.779459,14.40159 l -4.43126,-2.21563 c 10.931918,-6.05753 23.556577,-11.5257 37.887269,-16.39566 16.98502,-5.76064 33.15912,-9.60254 48.5223,-11.52127 16.54189,-1.92317 35.00695,-7.31158 55.39074,-16.1741 10.1919,-4.43126 18.75753,-8.71629 25.70131,-12.85066 l 18.60686,-13.7369 c 7.53314,-5.76064 22.01007,-15.509411 43.43078,-29.246316 l 5.9822,1.994067 c -5.61441,3.988134 -18.83285,14.920052 -39.65978,32.791319 -15.95253,13.73691 -28.72785,22.97165 -38.33039,27.69538 -23.33945,11.37061 -62.11297,19.79443 -116.32057,25.25818 z"
     fill="#caa455"
     fill-rule="evenodd"
     id="path140"
     style="stroke-width:4.43126" />
  <path
     d="m 44.073636,156.63456 c 7.533142,-1.77251 15.655641,-5.24661 24.371929,-10.41789 4.285029,-2.5081 11.964402,-7.75471 23.042551,-15.73098 l 37.444144,-12.62909 -13.7369,9.30565 c -14.32627,10.04567 -25.555079,17.35724 -33.677578,21.93474 -7.533142,4.13879 -17.800371,8.78718 -30.797256,13.95846 l -6.868453,2.21563 c -3.841902,-2.21563 -6.722221,-4.35592 -8.640956,-6.42532 z"
     fill="#caa455"
     fill-rule="evenodd"
     id="path142"
     style="stroke-width:4.43126" />
  <path
     d="m 203.15586,93.489106 35.00696,-11.299712 h 0.22156 c 15.21694,0.150663 27.32758,-2.361862 36.33633,-7.533142 l 5.31751,0.443126 c -9.895,6.943784 -21.41628,11.81817 -34.56383,14.623158 -10.63502,2.215629 -24.73972,3.469676 -42.31853,3.76657 z"
     fill="#caa455"
     fill-rule="evenodd"
     id="path144"
     style="stroke-width:4.43126" />
  <path
     d="m 383.28657,179.89867 c 10.1919,-21.27004 27.62005,-36.1901 52.28887,-44.76015 2.36629,1.7725 3.91723,3.69567 4.65725,5.76507 -15.8063,4.43126 -27.62004,14.1047 -35.45007,29.02475 l -21.49161,9.97033 z"
     fill="#caa455"
     fill-rule="evenodd"
     id="path146"
     style="stroke-width:4.43126" />
  <path
     d="m 191.19146,186.324 c 17.57438,-0.44756 36.40723,-6.57156 56.49856,-18.38973 12.84623,-7.67937 27.24782,-18.54039 43.20479,-32.56976 13.00131,-11.81817 22.81655,-20.30846 29.46344,-25.47974 11.37505,-9.00875 22.3823,-15.43408 33.01289,-19.275983 8.12693,-0.74002 14.25536,-2.583424 18.38973,-5.539074 20.38379,-6.203764 36.48256,-12.775322 48.2963,-19.719106 2.51252,0.74002 4.72815,1.626272 6.64689,2.658756 l -5.09152,3.323444 c -7.53314,5.020618 -21.7885,10.710355 -42.76166,17.060351 -21.12381,6.354426 -35.81787,12.185962 -44.09103,17.503472 -8.26873,5.31752 -19.86534,15.58474 -34.78539,30.79726 -15.36318,15.80187 -27.62004,26.80912 -36.77946,33.01288 -11.67194,8.1225 -29.32164,14.84473 -52.95355,20.16224 -9.89501,2.21563 -25.62598,4.94528 -47.19292,8.19783 -7.67937,1.18314 -16.47099,5.6853 -26.36599,13.51534 l -12.85066,-6.19933 c 7.67937,-5.02505 16.69256,-9.15499 27.03069,-12.40753 12.85508,-3.99256 26.29509,-6.20819 40.32889,-6.65132 z"
     fill="#caa455"
     fill-rule="evenodd"
     id="path148"
     style="stroke-width:4.43126" />
  <path
     d="m 345.62087,148.21516 c 11.67193,-14.32626 24.96571,-25.84753 39.88133,-34.56382 l 13.74134,5.9822 c -9.74877,5.61441 -21.56694,14.99095 -35.45008,28.1385 -7.83003,7.53314 -20.16666,19.49311 -37.00545,35.8932 -14.91562,13.88757 -30.87259,23.18879 -47.8576,27.91694 -21.12382,3.98813 -38.40573,7.46224 -51.84574,10.41789 -11.22438,2.50809 -21.63785,8.19783 -31.24039,17.06035 l -13.7369,-5.9822 c 9.00875,-6.35443 21.19471,-11.59661 36.55789,-15.73097 8.86252,-2.51253 23.11345,-6.05753 42.76166,-10.63502 18.46506,-5.02062 35.22852,-13.14755 50.29923,-24.37193 11.51684,-8.72072 22.81656,-20.09134 33.89471,-34.12514 z"
     fill="#caa455"
     fill-rule="evenodd"
     id="path150"
     style="stroke-width:4.43126" />
  <path
     d="m 143.11229,179.89867 c -18.61129,1.76808 -33.60224,6.12843 -44.977284,13.07222 l -7.754705,-3.76657 c 14.326259,-9.15498 35.082289,-15.43408 62.259199,-18.83286 25.84754,-3.10188 49.85167,-9.37654 72.00797,-18.83285 23.48568,-10.1919 41.87541,-22.74566 55.16919,-37.66571 11.22438,-12.85065 23.26411,-22.377861 36.11033,-28.581624 6.64689,2.361861 11.45038,3.912802 14.4016,4.652823 -12.55376,5.906869 -26.0691,15.066281 -40.5416,27.473811 -17.13568,14.62316 -29.98633,24.59349 -38.55196,29.911 -17.13125,10.48879 -34.34226,18.1726 -51.62417,23.04255 -14.32627,3.98814 -33.15912,7.16535 -56.49857,9.52721 z"
     fill="#caa455"
     fill-rule="evenodd"
     id="path152"
     style="stroke-width:4.43126" />
  <path
     d="m 414.30539,125.17261 8.4194,3.32345 c -11.22438,3.69567 -23.55658,12.26573 -37.00545,25.70574 -10.78126,11.07815 -21.04849,23.85347 -30.79283,38.32596 -57.90327,25.11195 -89.36521,38.84886 -94.39026,41.21072 -7.09002,3.69567 -12.62909,6.13286 -16.61723,7.31158 -9.45187,2.95565 -19.20065,3.8419 -29.24631,2.65875 10.63502,-8.26873 26.44132,-14.99095 47.41448,-20.16223 23.33944,-5.76064 37.95817,-10.2628 43.86504,-13.51534 22.30696,-12.55376 48.00827,-35.08228 77.10392,-67.57671 6.94821,-8.1225 17.36611,-13.88314 31.24924,-17.28192 z"
     fill="#caa455"
     fill-rule="evenodd"
     id="path154"
     style="stroke-width:4.43126" />
  <path
     d="m 269.4032,178.79086 c 14.32626,-5.31751 31.90507,-17.13568 52.73199,-35.45008 20.82692,-19.94067 33.89914,-32.42353 39.21665,-37.44415 8.57005,-7.976264 31.61261,-19.422208 69.13208,-34.34226 1.47561,1.923167 1.99407,3.988134 1.55094,6.203764 -7.53314,1.329378 -14.62315,3.545008 -21.27004,6.64689 -5.76064,2.95565 -11.15348,6.128432 -16.1741,9.527208 -9.89501,1.032484 -16.46656,4.063466 -19.71468,9.084078 -0.74002,1.18315 -0.29689,2.73409 1.32938,4.65283 -15.36318,12.26129 -33.08822,28.36006 -53.17512,48.30073 -14.77382,15.06628 -29.76477,25.85197 -44.97728,32.3482 -11.66751,5.02504 -31.16505,10.19632 -58.49263,15.50941 -22.01007,4.28502 -38.84886,11.9644 -50.51636,23.04255 l -11.96441,-5.76064 c 16.83879,-7.53314 36.63323,-15.36318 59.37889,-23.48568 12.54489,-4.57749 30.19903,-10.85658 52.94469,-18.83285 z"
     fill="#caa455"
     fill-rule="evenodd"
     id="path156"
     style="stroke-width:4.43126" />
  <path
     d="m 138.23791,145.33485 c -0.74002,-0.74002 -1.10782,-1.84784 -1.10782,-3.32345 0,-3.24811 1.69717,-7.09445 5.09595,-11.52571 3.39878,-4.43126 7.16535,-7.67937 11.29971,-9.74877 6.64689,-3.39877 16.46656,-5.46374 29.46788,-6.20376 17.57881,-1.03248 29.02475,-0.51846 34.34226,1.55094 5.46375,2.21563 3.98814,5.76064 -4.43126,10.63502 -8.86251,5.17128 -19.12974,9.60254 -30.79725,13.29378 -12.11063,3.83747 -20.16223,5.09152 -24.15037,3.76657 -4.43126,-1.47561 -5.09595,-4.72372 -1.99406,-9.74877 3.10188,-5.02062 8.34406,-8.41496 15.73097,-10.1919 8.71629,-1.91873 14.84472,-2.88031 18.38973,-2.88031 4.43126,-0.14624 6.34999,1.03248 5.76063,3.545 -1.03248,3.39878 -6.05753,5.76064 -15.06628,7.09002 7.67937,-1.76807 9.38098,-3.39878 5.09595,-4.87439 -3.39878,-1.18314 -6.79312,-1.25847 -10.1919,-0.22156 -3.69124,1.03248 -6.20376,3.02655 -7.53314,5.9822 -1.47561,2.95565 0.0753,4.35593 4.65282,4.2097 4.58193,-0.14623 10.4888,-1.77251 17.72504,-4.87882 9.15942,-3.83747 14.25537,-6.12843 15.28785,-6.86845 2.36186,-1.62184 1.40471,-3.24812 -2.88032,-4.87439 -5.17128,-1.92316 -11.44594,-2.51252 -18.83285,-1.7725 -8.57006,1.03248 -17.50348,3.76657 -26.80913,8.19783 -4.72372,2.36629 -9.30564,6.20376 -13.7369,11.52127 -2.21563,2.66762 -3.98813,5.10482 -5.31751,7.32045 z"
     fill="#caa455"
     fill-rule="evenodd"
     id="path158"
     style="stroke-width:4.43126" />
  <use
     transform="matrix(4.4312598,0,0,-4.4312598,790.20916,-228.27796)"
     y="-11.45"
     width="14.25"
     height="11.45"
     xlink:href="#s"
     id="use160"
     x="0" />
  <use
     transform="matrix(4.4312598,0,0,-4.4312598,473.59565,-261.29173)"
     y="-56.650002"
     width="87.800003"
     height="56.650002"
     enable-background="new"
     opacity="0.0898"
     xlink:href="#t"
     id="use162"
     x="0" />
  <path
     d="m 321.91363,154.64049 c 4.28502,3.10188 6.72222,4.94972 7.30714,5.53908 2.66319,2.80942 4.28503,7.53314 4.87882,14.18003 0.14623,2.21563 -0.37223,6.93935 -1.55537,14.18003 -1.32938,7.23625 -1.84341,11.95997 -1.55094,14.1756 l -2.88032,1.33381 c 0,-5.02505 0.51846,-10.04567 1.55537,-15.06628 3.24811,-15.06629 2.65876,-24.44727 -1.7725,-28.1385 -4.28503,-3.39878 -7.60848,-6.05754 -9.97034,-7.9807 -3.9837,-3.24369 -6.42532,-5.90687 -7.30715,-7.97627 h 0.88183 l 1.55537,0.44756 1.32938,2.21563 c 1.47117,2.21563 3.9837,4.58192 7.52871,7.09001 z"
     fill="#c2854f"
     fill-rule="evenodd"
     id="path204"
     style="stroke-width:4.43126" />
  <path
     d="m 315.93143,147.55048 -0.66469,-1.32938 1.99406,0.88625 c 1.91874,2.51252 4.57749,4.80349 7.97627,6.86845 l 0.22156,0.226 3.10189,4.20526 c -3.39878,-2.21563 -5.9113,-3.9128 -7.53315,-5.09152 -2.65875,-1.77693 -4.35592,-3.69567 -5.09594,-5.76506 z"
     fill="#c2854f"
     fill-rule="evenodd"
     id="path208"
     style="stroke-width:4.43126" />
  <path
     d="m 322.13519,193.85714 c 1.18315,-0.73559 2.29096,-0.81092 3.32344,-0.22156 1.62184,0.88625 1.47561,1.55537 -0.44312,1.99406 -2.0694,0.59379 -3.39878,0.59379 -3.98814,0 -0.44312,-0.58935 -0.0753,-1.18314 1.10782,-1.7725 z"
     fill="#ffffff"
     fill-rule="evenodd"
     id="path216"
     style="stroke-width:4.43126" />
  <path
     d="m 328.56052,163.28145 c -0.29247,-0.14623 -0.59379,-0.29246 -0.88626,-0.44756 -0.59379,-0.14623 -1.10781,-0.0753 -1.55094,0.226 -1.03248,0.44312 -0.74002,1.76807 0.88182,3.9837 0.44756,0.74002 0.81536,0.96158 1.10782,0.66469 0.29689,-0.44756 0.29689,-0.88626 0,-1.32938 -0.14623,-0.44756 -0.29246,-0.51846 -0.44313,-0.226 -0.14623,0.15067 -0.22156,0.2969 -0.22156,0.44756 -0.59379,-0.74002 -0.74002,-1.40028 -0.44756,-1.99407 0.2969,-0.44312 0.74002,-0.29246 1.33381,0.44313 0.73559,0.88625 1.18315,1.92317 1.32938,3.10188 0.14623,1.32938 -0.14623,1.99407 -0.88625,1.99407 -0.74002,0 -1.55094,-0.74002 -2.4372,-2.21563 -0.88625,-1.47561 -1.55537,-2.88032 -1.99406,-4.2097 -0.29247,-1.32938 -0.0753,-2.0694 0.66469,-2.21563 1.04134,0.004 2.22006,0.59822 3.54944,1.77694 z"
     fill="#c2854f"
     fill-rule="evenodd"
     id="path218"
     style="stroke-width:4.43126" />
</svg>
