<?xml version="1.0" encoding="UTF-8" standalone="no"?>
<svg
   xmlns:dc="http://purl.org/dc/elements/1.1/"
   xmlns:cc="http://creativecommons.org/ns#"
   xmlns:rdf="http://www.w3.org/1999/02/22-rdf-syntax-ns#"
   xmlns:svg="http://www.w3.org/2000/svg"
   xmlns="http://www.w3.org/2000/svg"
   xmlns:xlink="http://www.w3.org/1999/xlink"
   xmlns:sodipodi="http://sodipodi.sourceforge.net/DTD/sodipodi-0.dtd"
   xmlns:inkscape="http://www.inkscape.org/namespaces/inkscape"
   width="122.92339mm"
   height="62.905746mm"
   version="1.1"
   viewBox="0 0 464.59041 237.75344"
   id="svg224"
   sodipodi:docname="cutting_board.svg"
   inkscape:version="1.0.2-2 (e86c870879, 2021-01-15)">
  <metadata
     id="metadata228">
    <rdf:RDF>
      <cc:Work
         rdf:about="">
        <dc:format>image/svg+xml</dc:format>
        <dc:type
           rdf:resource="http://purl.org/dc/dcmitype/StillImage" />
        <dc:title></dc:title>
      </cc:Work>
    </rdf:RDF>
  </metadata>
  <sodipodi:namedview
     pagecolor="#ffffff"
     bordercolor="#666666"
     borderopacity="1"
     objecttolerance="10"
     gridtolerance="10"
     guidetolerance="10"
     inkscape:pageopacity="0"
     inkscape:pageshadow="2"
     inkscape:window-width="1920"
     inkscape:window-height="1017"
     id="namedview226"
     showgrid="false"
     units="mm"
     inkscape:zoom="1.2435555"
     inkscape:cx="222.94909"
     inkscape:cy="103.45328"
     inkscape:window-x="-8"
     inkscape:window-y="-8"
     inkscape:window-maximized="1"
     inkscape:current-layer="svg224"
     inkscape:document-rotation="0" />
  <defs
     id="defs56">
    <radialGradient
       id="ae"
       cx="64.300003"
       cy="-30.950001"
       r="50.459999"
       gradientTransform="matrix(1,0,0,-1,0,-61.9)"
       gradientUnits="userSpaceOnUse">
      <stop
         stop-color="#F3A32D"
         stop-opacity="0"
         offset="0"
         id="stop2" />
      <stop
         stop-color="#EB982C"
         stop-opacity=".1294"
         offset=".1098"
         id="stop4" />
      <stop
         stop-color="#D37B29"
         stop-opacity=".4863"
         offset=".302"
         id="stop6" />
      <stop
         stop-color="#B25225"
         offset=".5216"
         id="stop8" />
    </radialGradient>
    <radialGradient
       id="af"
       cx="64.400002"
       cy="-64.275002"
       r="64.336998"
       gradientTransform="matrix(1,0,0,-1,0,-128.55)"
       gradientUnits="userSpaceOnUse">
      <stop
         stop-color="#E2E5BD"
         offset="0"
         id="stop11" />
      <stop
         stop-color="#E3DCB2"
         offset=".0824"
         id="stop13" />
      <stop
         stop-color="#E5C596"
         offset=".2235"
         id="stop15" />
      <stop
         stop-color="#E99F6A"
         offset=".4078"
         id="stop17" />
      <stop
         stop-color="#EE6E33"
         offset=".6078"
         id="stop19" />
      <stop
         stop-color="#E86C33"
         stop-opacity=".9725"
         offset=".6745"
         id="stop21" />
      <stop
         stop-color="#D76732"
         stop-opacity=".898"
         offset=".7608"
         id="stop23" />
      <stop
         stop-color="#BB5F31"
         stop-opacity=".7804"
         offset=".8667"
         id="stop25" />
      <stop
         stop-color="#955430"
         stop-opacity=".6157"
         offset=".9765"
         id="stop27" />
      <stop
         stop-color="#8C5130"
         stop-opacity=".5765"
         offset="1"
         id="stop29" />
    </radialGradient>
    <linearGradient
       id="ac"
       x1="16161"
       x2="16221"
       y1="-58.466999"
       y2="-58.466999"
       gradientTransform="matrix(1.6549e-5,1,-1,-0.001,0.8657,-16221)"
       gradientUnits="userSpaceOnUse">
      <stop
         stop-color="#E2B8B2"
         offset=".1294"
         id="stop32" />
      <stop
         stop-color="#fff"
         offset=".9255"
         id="stop34" />
    </linearGradient>
    <linearGradient
       id="ad"
       x1="-125.33"
       x2="-64.616997"
       y1="85.944"
       y2="85.944"
       gradientTransform="matrix(7.3000574e-5,-4.4312598,4.4312598,-0.00443126,-145.36372,-253.03343)"
       gradientUnits="userSpaceOnUse">
      <stop
         stop-color="#AB3D15"
         offset=".1098"
         id="stop37" />
      <stop
         stop-color="#C8834E"
         offset=".4588"
         id="stop39" />
      <stop
         stop-color="#E6C588"
         offset=".8275"
         id="stop41" />
      <stop
         stop-color="#F1DF9F"
         offset="1"
         id="stop43" />
    </linearGradient>
    <linearGradient
       id="aa"
       x1="1.7739"
       x2="27.224001"
       y1="-11.595"
       y2="-15.02"
       gradientUnits="userSpaceOnUse">
      <stop
         stop-color="#949494"
         offset="0"
         id="stop46" />
      <stop
         stop-color="#D5D5D5"
         offset="1"
         id="stop48" />
    </linearGradient>
    <linearGradient
       id="ab"
       x1="3.8647001"
       x2="10.14"
       y1="-4.6553001"
       y2="-6.7302999"
       gradientUnits="userSpaceOnUse">
      <stop
         stop-color="#9B7C36"
         offset="0"
         id="stop51" />
      <stop
         stop-color="#E0A858"
         offset="1"
         id="stop53" />
    </linearGradient>
  </defs>
  <symbol
     id="q"
     transform="translate(-98.910959,-115.53529)"
     viewBox="0 -56.65 87.8 56.65">
    <defs
       id="defs59">
      <polygon
         id="u"
         points="81.65,-56.65 87.8,-11 6.1,0 0,-45.7 " />
    </defs>
    <clipPath
       id="v">
      <use
         width="171.7"
         height="171.8"
         xlink:href="#u"
         id="use61"
         x="0"
         y="0" />
    </clipPath>
    <g
       clip-path="url(#v)"
       fill="#ffffff"
       fill-rule="evenodd"
       id="g76">
      <path
         d="m 31.65,-16.25 8.05,2.6 -4.95,-36.7 c -1.867,0.2 -3.85,0.783 -5.95,1.75 l -1.4,0.7 z"
         id="path64" />
      <path
         d="m 1.4,-35.25 1.25,9.35 c 5.633,1.967 13.283,4.517 22.95,7.65 L 21.95,-45.3 c -6.2,2.967 -13.05,6.317 -20.55,10.05 z"
         id="path66" />
      <path
         d="m 85.4,-26.55 c 0.733,-1.4 -0.65,-3.05 -4.15,-4.95 l -2.15,-1.1 1.2,9.05 c 2.933,-1.167 4.633,-2.167 5.1,-3 z"
         id="path68" />
      <path
         d="m 71.3,-19.6 -2.4,-17.75 -4.25,-1.9 3.2,24.05 c 1.2,0.3 2.167,0.784 2.9,1.45 0.433,0.4 0.967,1.017 1.6,1.85 l -0.75,-5.55 c -0.3,-0.2 -0.583,-0.483 -0.85,-0.85 -0.2,-0.333 -0.017,-0.767 0.55,-1.3 z"
         id="path70" />
      <path
         d="m 66.05,-15.5 -3.3,-24.55 -9.95,-4.35 4.05,30.35 c 1.967,-0.7 3.05,-1.083 3.25,-1.15 1,-0.3 2.117,-0.45 3.35,-0.45 1,0 1.867,0.05 2.6,0.15 z"
         id="path72" />
      <path
         d="m 82.1,-10.2 c 0.933,-0.466 1.467,-1.05 1.6,-1.75 0.133,-0.767 -0.25,-1.517 -1.15,-2.25 -0.367,-0.333 -0.733,-0.583 -1.1,-0.75 z"
         id="path74" />
    </g>
  </symbol>
  <symbol
     id="r"
     transform="translate(-98.910959,-115.53529)"
     viewBox="0 -26.65 29 26.65">
    <defs
       id="defs80">
      <path
         id="w"
         d="m 25.2,-14.4 c -2.034,2.4 -4.8,5 -8.3,7.8 C 12.333,-2.867 7.833,-0.667 3.4,0 H 3.1 c -0.033,-0.9 0.067,-2.167 0.3,-3.8 0.4,-3.3 1.2,-6.883 2.4,-10.75 1.1,-3.5 2.083,-6.2 2.95,-8.1 0.433,-0.967 0.767,-1.567 1,-1.8 2.8,2.4 5.65,4.317 8.55,5.75 2.1,1.034 4.217,1.617 6.35,1.75 1.067,0.034 1.917,-0.017 2.55,-0.15 -0.3,0.633 -0.967,1.533 -2,2.7 z" />
    </defs>
    <clipPath
       id="x">
      <use
         width="171.7"
         height="171.8"
         xlink:href="#w"
         id="use82"
         x="0"
         y="0" />
    </clipPath>
    <g
       clip-path="url(#x)"
       id="g87">
      <polygon
         points="25.9,-26.65 0,-23.15 3.1,0 29,-3.45 "
         fill="url(#aa)"
         fill-rule="evenodd"
         id="polygon85"
         style="fill:url(#aa)" />
    </g>
  </symbol>
  <symbol
     id="s"
     transform="translate(-98.910959,-115.53529)"
     viewBox="0 -11.45 14.25 11.45">
    <defs
       id="defs91">
      <path
         id="y"
         d="m 9.15,-3.4 -0.9,0.25 c -1.4,0.167 -2.867,-0.167 -4.4,-1 -1.5,-0.867 -1.867,-1.6 -1.1,-2.2 1.233,-0.933 3.1,-0.9 5.6,0.1 2.5,1 2.767,1.95 0.8,2.85 z" />
    </defs>
    <clipPath
       id="z">
      <use
         width="171.7"
         height="171.8"
         xlink:href="#y"
         id="use93"
         x="0"
         y="0" />
    </clipPath>
    <g
       clip-path="url(#z)"
       id="g98">
      <polygon
         points="11.95,-11.45 0,-7.25 2.25,0 14.25,-4.15 "
         fill="url(#ab)"
         fill-rule="evenodd"
         id="polygon96"
         style="fill:url(#ab)" />
    </g>
  </symbol>
  <symbol
     id="t"
     transform="translate(-98.910959,-115.53529)"
     viewBox="0 -56.65 87.8 56.65">
    <use
       transform="translate(98.910959,115.53529)"
       y="-56.650002"
       width="87.800003"
       height="56.650002"
       xlink:href="#q"
       id="use101"
       x="0" />
  </symbol>
  <symbol
     transform="translate(-98.910959,-115.53529)"
     viewBox="0 -61.9 128.6 61.9"
     id="symbol106">
    <path
       d="M 128.05,-0.3 128.6,0 C 127.97,-17.233 121.43,-31.85 109,-43.85 96.5,-55.883 81.583,-61.9 64.25,-61.9 c -17.033,0 -31.733,5.816 -44.1,17.45 C 7.783,-32.883 1.067,-18.683 0,-1.85 c 4.967,-12.967 13.183,-23.467 24.65,-31.5 11.7,-8.2 24.717,-12.3 39.05,-12.3 14.667,0 27.917,4.25 39.75,12.75 11.6,8.333 19.8,19.2 24.6,32.6 z"
       fill="url(#ae)"
       fill-rule="evenodd"
       id="path104"
       style="fill:url(#ae)" />
  </symbol>
  <symbol
     transform="translate(-98.910959,-115.53529)"
     viewBox="0 -66.434 119.2 66.434"
     id="symbol110">
    <path
       d="m 115.4,-37.25 c 2.533,-6.1 3.8,-11.85 3.8,-17.25 0,-5.367 -1.567,-8.75 -4.7,-10.15 -2.533,-1.133 -6.783,-1.117 -12.75,0.05 -7.9,1.9 -14.217,3.367 -18.95,4.4 -8.667,1.833 -16.4,2.75 -23.2,2.75 -6.867,0 -14.6,-1 -23.2,-3 -9.033,-2.367 -15.35,-3.966 -18.95,-4.8 -6,-1.367 -10.25,-1.55 -12.75,-0.55 -3.133,1.267 -4.7,4.583 -4.7,9.95 0,5.967 1.267,12.117 3.8,18.45 2.667,6.7 6.434,12.733 11.3,18.1 C 26.7,-6.433 41.533,0 59.6,0 c 17.833,0 32.65,-6.5 44.45,-19.5 4.833,-5.333 8.617,-11.25 11.35,-17.75 z"
       fill="#ffffff"
       fill-rule="evenodd"
       id="path108" />
  </symbol>
  <symbol
     transform="translate(-98.910959,-115.53529)"
     viewBox="0 -128.55 128.8 128.55"
     id="symbol114">
    <path
       d="m 128.8,-64.3 c 0,-17.733 -6.283,-32.883 -18.85,-45.45 -12.6,-12.533 -27.784,-18.8 -45.55,-18.8 -17.8,0 -32.983,6.267 -45.55,18.8 C 6.283,-97.217 0,-82.067 0,-64.3 0,-46.533 6.283,-31.367 18.85,-18.8 31.417,-6.267 46.6,0 64.4,0 c 17.767,0 32.95,-6.267 45.55,-18.8 12.567,-12.567 18.85,-27.733 18.85,-45.5 z"
       fill="url(#af)"
       fill-rule="evenodd"
       id="path112"
       style="fill:url(#af)" />
  </symbol>
  <symbol
     transform="translate(-98.910959,-115.53529)"
     viewBox="0 -60.45 119.2 60.45"
     id="symbol118">
    <path
       d="m 104.05,-19.5 c 4.833,-5.333 8.617,-11.25 11.35,-17.75 2.533,-6.1 3.8,-11.85 3.8,-17.25 0,-1.8 -0.184,-3.4 -0.55,-4.8 -2,11.966 -7.85,22.6 -17.55,31.9 -11.434,11 -25.267,16.5 -41.5,16.5 -16.533,0 -30.45,-5.483 -41.75,-16.45 -9.733,-9.433 -15.533,-20.467 -17.4,-33.1 -0.3,1.3 -0.45,2.833 -0.45,4.6 0,5.967 1.267,12.117 3.8,18.45 2.667,6.7 6.434,12.733 11.3,18.1 C 26.7,-6.433 41.533,0 59.6,0 77.433,0 92.25,-6.5 104.05,-19.5 Z"
       fill="url(#ac)"
       fill-rule="evenodd"
       id="path116"
       style="fill:url(#ac)" />
  </symbol>
  <path
     d="m 116.66202,76.319456 c 66.28241,-12.32522 101.0848,-19.06488 104.41717,-20.23394 19.81926,-6.49485 34.22283,-10.161948 43.21071,-10.991294 7.99866,-0.834339 17.40119,0.164875 28.22761,2.997621 6.82459,1.833543 17.65099,5.410703 32.47423,10.741483 7.99366,2.83275 15.82246,4.24663 23.48138,4.24663 17.48613,0 29.22682,-4.08176 35.22206,-12.2403 2.66288,-4.661291 4.6663,-8.078573 5.99524,-10.241865 2.49801,-3.662092 5.49565,-6.329975 8.99286,-7.993656 12.32523,-7.159321 21.90263,-12.575025 28.72722,-16.23712 12.65495,-6.9944514 20.98334,-9.4075364 24.98018,-7.2442534 1.82855,0.9992084 2.58294,5.7454434 2.24822,14.2387054 -0.32974,6.329979 -0.9992,12.325223 -1.99842,17.985734 -0.4996,2.832747 -1.16408,4.9111 -1.99342,6.245035 -0.66947,1.16409 -2.41309,2.9127 -5.25083,5.24585 -6.32998,5.33076 -17.81586,7.40912 -34.46765,6.24504 -15.31785,-0.99921 -24.98019,1.41888 -28.97702,7.24426 -1.83354,2.66289 9.82221,5.49563 34.97226,8.49326 27.30834,3.33236 42.38138,6.90951 45.21413,10.73649 1.99341,2.66788 2.74781,8.07858 2.24822,16.237114 -0.33475,6.99446 -1.24902,13.32443 -2.75282,18.98993 -0.99421,3.6621 -2.74782,6.65973 -5.24584,8.99288 -2.99763,2.82775 -9.24267,6.98945 -18.73513,12.49009 -14.31864,8.32839 -47.21256,23.64623 -98.67172,45.96354 -50.45998,21.64783 -78.01813,33.55837 -82.68442,35.71665 -15.98731,7.49405 -25.14504,11.49089 -27.47819,11.9905 -16.48693,3.83195 -34.05799,1.33393 -52.70819,-7.49406 -22.98178,-10.82641 -51.62405,-24.73038 -85.931829,-41.7219 -35.8066,-17.48613 -57.53936,-28.39247 -65.198284,-32.72404 -8.158527,-4.49145 -13.4893,-7.49405 -15.9873176,-8.99286 -5.9952431,-4.1617 -8.99286524155,-7.65893 -8.99286524155,-10.49169 0,-4.00182 0.41467090155,-9.74226 1.24900914155,-17.23632 C 2.5825144,106.7803 4.1612624,101.12477 5.9948084,100.29045 15.157539,96.303606 52.048273,88.309946 116.66202,76.319456 Z"
     fill="#a78343"
     fill-rule="evenodd"
     id="path128"
     style="stroke-width:4.99604" />
  <path
     d="m 71.447884,138.76992 -19.234742,-3.24743 -4.996036,30.48083 -5.49564,-2.49803 5.245838,-30.48081 -6.99445,-10.73648 -6.994452,3.49721 -5.49564,29.72144 -2.49802,-1.49882 c -1.833545,-0.66447 -3.497225,-1.49881 -4.996036,-2.49802 l 5.995244,-29.47162 -9.49247,-5.25083 -4.496431,29.97622 -8.243461,-5.24584 4.4964324,-34.97226 107.6645996,-1.99841 84.43301,39.96829 21.98256,58.95324 7.49406,32.72403 c -7.49406,1.66368 -15.57266,1.99842 -24.23079,0.99921 l 5.24585,-36.72587 -22.98177,-0.74441 -5.49564,31.72483 -12.98969,-5.49563 2.99761,-32.97884 -14.98811,-6.98945 -6.99444,30.72062 -8.24347,-3.74703 2.74782,-35.71665 -7.49406,-13.98892 -16.23711,5.49564 -7.49406,29.97622 -13.988909,-6.99445 6.744659,-29.97622 -22.731965,-17.23632 -5.995242,3.24742 -3.996833,30.48082 -8.243461,-3.74703 z"
     fill="#8f7139"
     fill-rule="evenodd"
     id="path130"
     style="stroke-width:4.99604" />
  <path
     d="m 427.66529,18.365431 c -0.32973,0.999206 -1.08414,1.833545 -2.24822,2.498018 -23.14664,12.490091 -25.80952,25.394852 -7.99365,38.719277 -12.16035,-0.66447 -18.98494,-0.91426 -20.48375,-0.7494 -6.99445,0.4996 -11.99048,2.99762 -14.98811,7.49406 -1.83354,2.66289 9.82221,5.49563 34.97226,8.49326 27.30834,3.33236 42.38138,6.90951 45.21413,10.73649 1.99341,2.66788 2.74781,8.07858 2.24822,16.237114 -0.33475,6.99446 -1.24902,13.32443 -2.75282,18.98993 -0.99421,3.6621 -2.74782,6.65973 -5.24584,8.99288 -2.99763,2.82775 -9.24267,6.98945 -18.73513,12.49009 -14.31864,8.32839 -47.21256,23.64623 -98.67172,45.96354 -50.45998,21.64783 -78.01813,33.55837 -82.68442,35.71665 -5.83036,3.49724 -11.07622,6.24506 -15.73751,8.24347 -8.828,3.83196 -17.81588,5.6605 -26.9736,5.49564 1.4988,-1.49881 2.58295,-3.41229 3.24742,-5.74044 0.16487,-0.66948 0.99921,-4.99604 2.49801,-12.99471 2.6629,-14.4835 2.6629,-28.977 0,-43.46551 l -4.99604,-17.48613 c 49.2959,-35.63672 94.26023,-67.276634 134.893,-94.924694 16.98652,-0.16486 28.47741,-4.33157 34.47265,-12.49009 2.66289,-4.496443 4.6663,-7.828797 5.99524,-9.992078 2.49802,-3.662096 5.49565,-6.329979 8.99287,-7.99366 2.82775,-1.333941 7.24426,-3.747027 13.2395,-7.244253 7.82379,-4.661301 12.9897,-7.658924 15.48772,-8.992865 0.32973,0.33973 0.41467,1.004203 0.24979,2.003411 z"
     fill="#876930"
     fill-rule="evenodd"
     id="path132"
     style="stroke-width:4.99604" />
  <path
     d="m 454.39409,126.52963 c 5.99025,-6.82459 8.90793,-19.73435 8.74306,-38.719284 1.33395,3.49722 1.74861,8.90793 1.24902,16.237114 -0.5046,6.16011 -1.41888,11.74569 -2.75282,16.74172 -0.99421,3.66209 -2.74782,6.65972 -5.24584,8.99287 -2.99763,2.82775 -9.24267,6.98945 -18.73513,12.49009 -14.31864,8.32839 -47.21256,23.64624 -98.67172,45.96354 -50.45998,21.64783 -78.01813,33.55838 -82.68442,35.71666 -5.83036,3.49723 -11.07622,6.24505 -15.73751,8.24346 -8.828,3.83196 -17.81588,5.66051 -26.9736,5.49564 1.33394,-1.49881 2.24821,-2.91269 2.74782,-4.24662 1.83354,-0.16488 5.08097,-0.58455 9.74227,-1.24902 5.16091,-0.99921 11.90556,-3.41728 20.23395,-7.24425 7.99365,-3.49723 35.47186,-15.56765 82.4346,-36.22127 38.96908,-16.98652 65.61794,-28.81214 79.93658,-35.47185 25.14506,-11.82562 40.38297,-20.73356 45.71374,-26.7288 z"
     fill="#795d2b"
     fill-rule="evenodd"
     id="path134"
     style="stroke-width:4.99604" />
  <path
     d="m 10.246436,96.303606 c 15.987316,-6.82459 87.765375,-30.97543 215.329184,-72.442535 19.6494,-6.494848 34.05798,-10.156942 43.21572,-10.991282 7.99365,-0.834337 17.32124,0.169866 27.97779,2.997623 7.16433,1.833545 17.99073,5.410708 32.47425,10.74148 8.16352,2.997622 16.07224,4.496431 23.73116,4.496431 17.65601,0 29.81136,-3.16249 36.47606,-9.492469 0,-0.164869 2.4131,-2.997622 7.23927,-8.493262 2.66788,-3.1624914 5.74545,-5.5805734 9.24766,-7.2442534 15.15298,-6.994451 28.47741,-7.743856 39.9683,-2.248216 11.15614,5.495639 11.98549,12.2402894 2.49801,20.2339484 -6.16012,5.330771 -16.90659,8.658132 -32.22444,9.992073 -13.82403,1.164077 -22.73196,4.666294 -26.7288,10.491668 -2.33315,3.497238 3.24244,8.243464 16.73673,14.238714 1.16408,0.4996 11.15616,4.33157 29.97622,11.49088 14.98811,6.16013 23.73117,11.24109 26.22919,15.23792 3.99683,6.99444 -2.82775,15.322854 -20.48375,24.980174 -23.64623,12.9947 -84.10327,40.13317 -181.36111,81.4354 -13.48432,6.66472 -22.73198,10.57662 -27.72801,11.74569 -16.48692,3.66209 -34.13792,1.08413 -52.958,-7.74386 C 97.926881,156.59078 47.796646,132.03027 29.481176,122.03819 18.155161,115.70821 11.245642,111.46158 8.7476244,109.2933 2.2527765,103.79766 2.7523803,99.471096 10.246436,96.303606 Z"
     fill="#dfb768"
     fill-rule="evenodd"
     id="path136"
     style="stroke-width:4.99604" />
  <path
     d="m 32.978402,123.78181 -6.994452,-3.74703 c 24.815314,-6.99445 42.965915,-15.31785 54.456801,-24.980194 16.32205,-13.65416 28.397459,-23.06669 36.221269,-28.22761 14.15376,-9.49246 27.56313,-15.40277 40.2181,-17.73592 6.65971,-1.164077 23.5663,-3.247423 50.70976,-6.245044 22.64703,-2.328157 39.13396,-4.996039 49.46077,-7.993661 10.49167,-2.832752 23.0617,-9.3276 37.72007,-19.484542 l 6.49485,1.748613 c -15.82244,10.99128 -30.72563,18.82007 -44.71453,23.481369 -18.82007,6.329985 -42.71611,9.742275 -71.69313,10.241865 -27.81293,0.49962 -48.62642,5.91531 -62.45046,16.23714 -8.15852,5.99524 -19.81926,16.65179 -34.972243,31.97463 C 75.444712,108.0443 57.294112,116.28776 32.978402,123.78181 Z"
     fill="#caa455"
     fill-rule="evenodd"
     id="path138"
     style="stroke-width:4.99604" />
  <path
     d="m 93.430449,117.28697 c -14.823241,1.49881 -28.642282,6.90951 -41.467108,16.23711 l -4.996037,-2.49803 c 12.325222,-6.82957 26.55893,-12.99468 42.716113,-18.48533 19.149803,-6.49485 37.385343,-10.82641 54.706613,-12.989694 18.65019,-2.16828 39.46868,-8.24346 62.45044,-18.23553 11.49089,-4.99604 21.14823,-9.82721 28.97702,-14.48852 l 20.97835,-15.4877 c 8.49327,-6.494857 24.81532,-17.486132 48.96617,-32.973845 l 6.74464,2.248216 c -6.32998,4.496433 -21.23315,16.821656 -44.71454,36.970669 -17.98572,15.48772 -32.38929,25.89945 -43.2157,31.22524 -26.31414,12.819834 -70.02944,22.317284 -131.145961,28.477414 z"
     fill="#caa455"
     fill-rule="evenodd"
     id="path140"
     style="stroke-width:4.99604" />
  <path
     d="m 16.49148,104.79687 c 8.493262,-1.99842 17.650998,-5.915304 27.478201,-11.745684 4.831169,-2.82776 13.4893,-8.74307 25.979391,-17.73594 l 42.216508,-14.2387 -15.487709,10.49168 C 80.52568,82.894246 67.865726,91.137696 58.70799,96.298606 50.214728,100.9649 38.638911,106.20574 23.985536,112.03612 l -7.743857,2.49802 c -4.331564,-2.49802 -7.5789876,-4.9111 -9.7422716,-7.24424 z"
     fill="#caa455"
     fill-rule="evenodd"
     id="path142"
     style="stroke-width:4.99604" />
  <path
     d="m 195.84919,33.603341 39.4687,-12.739892 h 0.24979 c 17.15639,0.169866 30.81056,-2.662888 40.9675,-8.493262 l 5.99525,0.499602 c -11.15615,7.82879 -24.14585,13.324431 -38.96909,16.486922 -11.99048,2.498018 -27.89287,3.911897 -47.71215,4.24663 z"
     fill="#caa455"
     fill-rule="evenodd"
     id="path144"
     style="stroke-width:4.99604" />
  <path
     d="m 398.93808,131.02605 c 11.49089,-23.98097 31.14031,-40.802624 58.95324,-50.464954 2.66788,1.99841 4.41649,4.16669 5.25082,6.49984 -17.82085,4.99604 -31.14029,15.902394 -39.96827,32.724044 l -24.23079,11.24107 z"
     fill="#caa455"
     fill-rule="evenodd"
     id="path146"
     style="stroke-width:4.99604" />
  <path
     d="m 182.3599,138.27031 c 19.81428,-0.5046 41.04743,-7.40912 63.69946,-20.73355 14.48351,-8.65813 30.72063,-20.903414 48.71136,-36.720864 14.65837,-13.32443 25.72459,-22.89684 33.21865,-28.72722 12.82483,-10.156939 25.23499,-17.401194 37.22048,-21.732758 9.16273,-0.834338 16.07224,-2.912689 20.73355,-6.245046 22.98175,-6.99445 41.13237,-14.4035734 54.4518,-22.2323624 2.83275,0.834337 5.33076,1.833545 7.49405,2.997622 l -5.74044,3.747026 c -8.49327,5.6605114 -24.56551,12.0754214 -48.21176,19.2347434 -23.8161,7.164315 -40.38297,13.739093 -49.71056,19.734335 -9.3226,5.99525 -22.39723,17.57107 -39.21889,34.72247 -17.32126,17.815854 -31.1403,30.226014 -41.46711,37.220474 -13.15956,9.15772 -33.05877,16.73673 -59.70263,22.73197 -11.15616,2.49801 -28.89208,5.57557 -53.20779,9.24266 -8.65813,1.33394 -18.57026,6.40991 -29.72642,15.23791 l -14.48851,-6.98945 c 8.65813,-5.6655 18.82008,-10.32182 30.47583,-13.9889 14.4935,-4.50143 29.64648,-6.99945 45.46893,-7.49906 z"
     fill="#caa455"
     fill-rule="evenodd"
     id="path148"
     style="stroke-width:4.99604" />
  <path
     d="m 356.47178,95.304386 c 13.15954,-16.15218 28.14766,-29.14187 44.96431,-38.96908 l 15.49272,6.74465 c -10.99128,6.32999 -24.31571,16.9016 -39.9683,31.72484 -8.82799,8.493254 -22.73695,21.977554 -41.72189,40.467894 -16.81667,15.65758 -34.8074,26.14426 -53.95719,31.47503 -23.81611,4.49643 -43.30065,8.41332 -58.45363,11.74569 -12.65497,2.82775 -24.39566,9.24266 -35.22207,19.23473 l -15.4877,-6.74464 c 10.15694,-7.16433 23.89602,-13.07464 41.21729,-17.73594 9.99208,-2.83275 26.05933,-6.82958 48.21176,-11.99048 20.81848,-5.66051 39.71849,-14.82324 56.71001,-27.4782 12.98469,-9.8322 25.7246,-22.65204 38.21469,-38.474494 z"
     fill="#caa455"
     fill-rule="evenodd"
     id="path150"
     style="stroke-width:4.99604" />
  <path
     d="m 128.15289,131.02605 c -20.98334,1.99344 -37.884937,6.90952 -50.70976,14.73831 l -8.743067,-4.24662 c 16.15218,-10.32181 39.553627,-17.40119 70.194317,-21.23316 29.14188,-3.49722 56.20541,-10.57161 81.18559,-21.233154 26.47899,-11.49089 47.21255,-25.64467 62.20066,-42.46632 12.65496,-14.488505 26.22919,-25.229981 40.7127,-32.224431 7.49405,2.662886 12.90976,4.411499 16.23712,5.245839 -14.15377,6.659716 -29.39167,16.986519 -45.70874,30.975432 -19.31967,16.48691 -33.80817,27.728 -43.46552,33.72324 -19.31468,11.825614 -38.71928,20.488744 -58.20381,25.979394 -16.15221,4.49644 -37.38536,8.07859 -63.69949,10.74147 z"
     fill="#caa455"
     fill-rule="evenodd"
     id="path152"
     style="stroke-width:4.99604" />
  <path
     d="m 433.91034,69.325006 9.49247,3.74703 c -12.65496,4.16669 -26.55893,13.82903 -41.72189,28.982014 -12.15537,12.49009 -23.73119,26.89366 -34.71747,43.21071 -65.28321,28.31254 -100.75506,43.80027 -106.42058,46.46314 -7.99366,4.1667 -14.23869,6.91451 -18.73513,8.24347 -10.65654,3.33235 -21.64783,4.33156 -32.97385,2.99762 11.99049,-9.32261 29.81135,-16.9016 53.4576,-22.73197 26.31411,-6.49485 42.79605,-11.57083 49.45576,-15.23791 25.15005,-14.15377 54.12707,-39.55362 86.93104,-76.189554 7.83378,-9.15774 19.57947,-15.65259 35.23205,-19.48455 z"
     fill="#caa455"
     fill-rule="evenodd"
     id="path154"
     style="stroke-width:4.99604" />
  <path
     d="m 270.53994,129.77706 c 16.15219,-5.99525 35.97147,-19.31968 59.45284,-39.968304 23.48137,-22.48217 38.21968,-36.556 44.21492,-42.21652 9.66233,-8.992863 35.64174,-21.89762 77.94317,-38.7192754 1.66368,2.1682804 2.24821,4.4964324 1.74861,6.9944514 -8.49326,1.498811 -16.48691,3.996829 -23.98097,7.494055 -6.49485,3.332356 -12.57502,6.909519 -18.23553,10.741478 -11.15616,1.164077 -18.56527,4.581368 -22.22737,10.241867 -0.83434,1.333946 -0.33473,3.08256 1.49881,5.245854 -17.32127,13.82403 -37.30541,31.97463 -59.95244,54.456794 -16.6568,16.98653 -33.55838,29.14688 -50.70977,36.47107 -13.15457,5.6655 -35.13713,11.49587 -65.94768,17.48613 -24.81532,4.83117 -43.80027,13.4893 -56.95482,25.97939 l -13.4893,-6.49485 c 18.98494,-8.49326 41.30223,-17.32126 66.94689,-26.47899 14.14377,-5.16091 34.04799,-12.24029 59.69264,-21.23315 z"
     fill="#caa455"
     fill-rule="evenodd"
     id="path156"
     style="stroke-width:4.99604" />
  <path
     d="m 122.65726,92.056976 c -0.83433,-0.83434 -1.24901,-2.08336 -1.24901,-3.74703 0,-3.66209 1.91348,-7.99866 5.74544,-12.9947 3.83196,-4.99603 8.0786,-8.65812 12.73989,-10.99127 7.49406,-3.83196 18.56527,-6.16012 33.22365,-6.99446 19.81928,-1.16407 32.72404,-0.58454 38.71928,1.74861 6.16012,2.49803 4.49644,6.49485 -4.99604,11.99049 -9.99207,5.83038 -21.56788,10.82641 -34.72244,14.98811 -13.65417,4.32657 -22.73198,5.74045 -27.22841,4.24663 -4.99604,-1.66368 -5.74545,-5.32576 -2.24821,-10.99128 3.49722,-5.66051 9.40753,-9.48746 17.73592,-11.49089 9.82722,-2.16327 16.73673,-3.24741 20.73356,-3.24741 4.99604,-0.16487 7.15932,1.16408 6.49484,3.99682 -1.16407,3.83196 -6.82958,6.49485 -16.98653,7.99366 8.65813,-1.99341 10.57662,-3.83196 5.74545,-5.49564 -3.83196,-1.33394 -7.65892,-1.41887 -11.49088,-0.24979 -4.1617,1.16406 -6.99445,3.41228 -8.49326,6.74464 -1.66369,3.33236 0.0849,4.91111 5.24583,4.74624 5.16591,-0.16487 11.82563,-1.99842 19.98414,-5.50064 10.32682,-4.32657 16.07226,-6.90951 17.23634,-7.74385 2.66288,-1.82855 1.58374,-3.6621 -3.24742,-5.49565 -5.83038,-2.16827 -12.90476,-2.83274 -21.23315,-1.9984 -9.66234,1.16406 -19.73435,4.24662 -30.22604,9.24266 -5.32578,2.66787 -10.49167,6.99445 -15.48771,12.98969 -2.49801,3.00762 -4.49642,5.75545 -5.99524,8.25346 z"
     fill="#caa455"
     fill-rule="evenodd"
     id="path158"
     style="stroke-width:4.99604" />
  <use
     transform="matrix(4.9960366,0,0,-4.9960366,887.08063,-587.08073)"
     y="-11.45"
     width="14.25"
     height="11.45"
     xlink:href="#s"
     id="use160"
     x="0" />
  <use
     transform="matrix(4.9960366,0,0,-4.9960366,530.11382,-624.3022)"
     y="-56.650002"
     width="87.800003"
     height="56.650002"
     enable-background="new"
     opacity="0.0898"
     xlink:href="#t"
     id="use162"
     x="0" />
  <path
     d="m 329.99278,146.76358 c 1.33394,-0.82935 2.58295,-0.91428 3.74702,-0.2498 1.82855,0.9992 1.66368,1.7536 -0.4996,2.24821 -2.33315,0.66946 -3.83196,0.66946 -4.49643,0 -0.4996,-0.66446 -0.0849,-1.33394 1.24901,-1.99841 z"
     fill="#ffffff"
     fill-rule="evenodd"
     id="path216"
     style="stroke-width:4.99604" />
</svg>
