<?xml version="1.0" encoding="UTF-8" standalone="no"?>
<svg
   xmlns:ooo="http://xml.openoffice.org/svg/export"
   xmlns:dc="http://purl.org/dc/elements/1.1/"
   xmlns:cc="http://creativecommons.org/ns#"
   xmlns:rdf="http://www.w3.org/1999/02/22-rdf-syntax-ns#"
   xmlns:svg="http://www.w3.org/2000/svg"
   xmlns="http://www.w3.org/2000/svg"
   xmlns:sodipodi="http://sodipodi.sourceforge.net/DTD/sodipodi-0.dtd"
   xmlns:inkscape="http://www.inkscape.org/namespaces/inkscape"
   version="1.2"
   width="125mm"
   height="88mm"
   viewBox="0 0 12500 8800"
   preserveAspectRatio="xMidYMid"
   fill-rule="evenodd"
   stroke-width="28.222"
   stroke-linejoin="round"
   xml:space="preserve"
   id="svg7779"
   sodipodi:docname="cymbal.svg"
   inkscape:version="1.0.2-2 (e86c870879, 2021-01-15)"
   inkscape:export-filename="Z:\Musique\Thibault\illustrations\instruments\cymbale.png"
   inkscape:export-xdpi="300.01001"
   inkscape:export-ydpi="300.01001"><metadata
   id="metadata7783"><rdf:RDF><cc:Work
       rdf:about=""><dc:format>image/svg+xml</dc:format><dc:type
         rdf:resource="http://purl.org/dc/dcmitype/StillImage" /><dc:title></dc:title></cc:Work></rdf:RDF></metadata><sodipodi:namedview
   pagecolor="#ffffff"
   bordercolor="#666666"
   borderopacity="1"
   objecttolerance="10"
   gridtolerance="10"
   guidetolerance="10"
   inkscape:pageopacity="0"
   inkscape:pageshadow="2"
   inkscape:window-width="1920"
   inkscape:window-height="1017"
   id="namedview7781"
   showgrid="false"
   inkscape:zoom="2.4945156"
   inkscape:cx="281.89243"
   inkscape:cy="213.92248"
   inkscape:window-x="-8"
   inkscape:window-y="-8"
   inkscape:window-maximized="1"
   inkscape:current-layer="id289"
   inkscape:document-rotation="0" />
 <defs
   class="ClipPathGroup"
   id="defs6494">
  <clipPath
   id="presentation_clip_path"
   clipPathUnits="userSpaceOnUse">
   <rect
   x="0"
   y="0"
   width="29700"
   height="21000"
   id="rect6491" />
  </clipPath>
 
    
   
     
     
     
     
     
     
     
     
     
     
     
     
     
     
     
     
     
     
     
     
     
     
     
     
     
     
     
     
     
     
     
     
     
     
     
     
     
     
     
     
     
     
     
     
     
     
     
     
     
     
     
     
     
     
     
     
     
     
     
     
     
     
     
     
     
     
     
     
     
     
     
     
     
     
     
     
     
     
     
     
     
     
     
     
     
     
     
     
     
     
     
     
     
     
     
     
     
     
     
     
     
     
     
     
     
     
     
     
     
     
     
     
     
     
     
     
     
     
     
     
     
     
     
     
     
     
     
     
     
     
     
     
     
     
     
     
     
     
     
     
     
     
     
     
     
     
     
     
     
     
     
     
     
     
     
     
     
     
     
     
     
     
     
     
     
     
     
     
     
     
     
     
     
     
     
     
     
     
     
     
     
     
     
     
     
     
     
     
     
     
     
     
     
     
     
     
     
     
     
     
     
     
     
     
     
     
     
     
     
     
     
     
     
     
     
     
     
     
     
     
     
     
     
     
     
     
     
     
     
     
     
     
     
     
     
     
     
     
     
     
     
     
     
     
     
     
     
     
     
     
     
     
     
     
     
     
     
     
     
     
     
     
     
     
     
     
     
     
     
     
     
     
     
     
     
     
     
     
     
     
     
     
     
     
     
     
     
     
     
     
    
      
     
       
       
       
       
      <filter
   inkscape:collect="always"
   style="color-interpolation-filters:sRGB"
   id="filter5962"
   x="-0.008863491"
   width="1.017727"
   y="-0.018572068"
   height="1.0371441"><feGaussianBlur
     inkscape:collect="always"
     stdDeviation="1.5718925"
     id="feGaussianBlur5964" /></filter></defs>
 <defs
   class="TextShapeIndex"
   id="defs6498">
  <g
   ooo:slide="id1"
   ooo:id-list="id3 id4 id5 id6 id7 id8 id9 id10 id11 id12 id13 id14 id15 id16 id17 id18 id19 id20 id21 id22 id23 id24 id25 id26 id27 id28 id29 id30 id31 id32 id33 id34 id35 id36 id37 id38 id39 id40 id41 id42 id43 id44 id45 id46 id47 id48 id49 id50 id51 id52 id53 id54 id55 id56 id57 id58 id59 id60 id61 id62 id63 id64 id65 id66 id67 id68 id69 id70 id71 id72 id73 id74 id75 id76 id77 id78 id79 id80 id81 id82 id83 id84 id85 id86 id87 id88 id89 id90 id91 id92 id93 id94 id95 id96 id97 id98 id99 id100 id101 id102 id103 id104 id105 id106 id107 id108 id109 id110 id111 id112 id113 id114 id115 id116 id117 id118 id119 id120 id121 id122 id123 id124 id125 id126 id127 id128 id129 id130 id131 id132 id133 id134 id135 id136 id137 id138 id139 id140 id141 id142 id143 id144 id145 id146 id147 id148 id149 id150 id151 id152 id153 id154 id155 id156 id157 id158 id159 id160 id161 id162 id163 id164 id165 id166 id167 id168 id169 id170 id171 id172 id173 id174 id175 id176 id177 id178 id179 id180 id181 id182 id183 id184 id185 id186 id187 id188 id189 id190 id191 id192 id193 id194 id195 id196 id197 id198 id199 id200 id201 id202 id203 id204 id205 id206 id207 id208 id209 id210 id211 id212 id213 id214 id215 id216 id217 id218 id219 id220 id221 id222 id223 id224 id225 id226 id227 id228 id229 id230 id231 id232 id233 id234 id235 id236 id237 id238 id239 id240 id241 id242 id243 id244 id245 id246 id247 id248 id249 id250 id251 id252 id253 id254 id255 id256 id257 id258 id259 id260 id261 id262 id263 id264 id265 id266 id267 id268 id269 id270 id271 id272 id273 id274 id275 id276 id277 id278 id279 id280 id281 id282 id283 id284 id285 id286 id287 id288 id289 id290"
   id="g6496" />
 </defs>
 <defs
   class="EmbeddedBulletChars"
   id="defs6527">
  <g
   id="bullet-char-template(57356)"
   transform="matrix(4.8828125e-4,0,0,-4.8828125e-4,0,0)">
   <path
   d="M 580,1141 1163,571 580,0 -4,571 Z"
   id="path6500" />
  </g>
  <g
   id="bullet-char-template(57354)"
   transform="matrix(4.8828125e-4,0,0,-4.8828125e-4,0,0)">
   <path
   d="M 8,1128 H 1137 V 0 H 8 Z"
   id="path6503" />
  </g>
  <g
   id="bullet-char-template(10146)"
   transform="matrix(4.8828125e-4,0,0,-4.8828125e-4,0,0)">
   <path
   d="M 174,0 602,739 174,1481 1456,739 Z M 1358,739 309,1346 659,739 Z"
   id="path6506" />
  </g>
  <g
   id="bullet-char-template(10132)"
   transform="matrix(4.8828125e-4,0,0,-4.8828125e-4,0,0)">
   <path
   d="M 2015,739 1276,0 H 717 l 543,543 H 174 v 393 h 1086 l -543,545 h 557 z"
   id="path6509" />
  </g>
  <g
   id="bullet-char-template(10007)"
   transform="matrix(4.8828125e-4,0,0,-4.8828125e-4,0,0)">
   <path
   d="m 0,-2 c -7,16 -16,29 -25,39 l 381,530 c -94,256 -141,385 -141,387 0,25 13,38 40,38 9,0 21,-2 34,-5 21,4 42,12 65,25 l 27,-13 111,-251 280,301 64,-25 24,25 c 21,-10 41,-24 62,-43 C 886,937 835,863 770,784 769,783 710,716 594,584 L 774,223 c 0,-27 -21,-55 -63,-84 l 16,-20 C 717,90 699,76 672,76 641,76 570,178 457,381 L 164,-76 c -22,-34 -53,-51 -92,-51 -42,0 -63,17 -64,51 -7,9 -10,24 -10,44 0,9 1,19 2,30 z"
   id="path6512" />
  </g>
  <g
   id="bullet-char-template(10004)"
   transform="matrix(4.8828125e-4,0,0,-4.8828125e-4,0,0)">
   <path
   d="M 285,-33 C 182,-33 111,30 74,156 52,228 41,333 41,471 c 0,78 14,145 41,201 34,71 87,106 158,106 53,0 88,-31 106,-94 l 23,-176 c 8,-64 28,-97 59,-98 l 735,706 c 11,11 33,17 66,17 42,0 63,-15 63,-46 V 965 c 0,-36 -10,-64 -30,-84 L 442,47 C 390,-6 338,-33 285,-33 Z"
   id="path6515" />
  </g>
  <g
   id="bullet-char-template(9679)"
   transform="matrix(4.8828125e-4,0,0,-4.8828125e-4,0,0)">
   <path
   d="M 813,0 C 632,0 489,54 383,161 276,268 223,411 223,592 c 0,181 53,324 160,431 106,107 249,161 430,161 179,0 323,-54 432,-161 108,-107 162,-251 162,-431 0,-180 -54,-324 -162,-431 C 1136,54 992,0 813,0 Z"
   id="path6518" />
  </g>
  <g
   id="bullet-char-template(8226)"
   transform="matrix(4.8828125e-4,0,0,-4.8828125e-4,0,0)">
   <path
   d="m 346,457 c -73,0 -137,26 -191,78 -54,51 -81,114 -81,188 0,73 27,136 81,188 54,52 118,78 191,78 73,0 134,-26 185,-79 51,-51 77,-114 77,-187 0,-75 -25,-137 -76,-188 -50,-52 -112,-78 -186,-78 z"
   id="path6521" />
  </g>
  <g
   id="bullet-char-template(8211)"
   transform="matrix(4.8828125e-4,0,0,-4.8828125e-4,0,0)">
   <path
   d="M -4,459 H 1135 V 606 H -4 Z"
   id="path6524" />
  </g>
 </defs>
 <defs
   class="TextEmbeddedBitmaps"
   id="defs6529" />
 <g
   id="g6534">
  <g
   id="id2"
   class="Master_Slide">
   <g
   id="bg-id2"
   class="Background" />
   <g
   id="bo-id2"
   class="BackgroundObjects" />
  </g>
 </g>
 <g
   class="SlideGroup"
   id="g7777">
  <g
   id="g7775">
   <g
   class="com.sun.star.drawing.ClosedBezierShape"
   id="g6541">
      <g
   id="id3">
       
       
      </g>
     </g><g
   class="com.sun.star.drawing.PolyPolygonShape"
   id="g6544">
      <g
   id="id4" />
     </g><g
   class="com.sun.star.drawing.PolyPolygonShape"
   id="g6547">
      <g
   id="id5" />
     </g><g
   class="com.sun.star.drawing.PolyPolygonShape"
   id="g6599">
      <g
   id="id7" />
     </g><g
   class="com.sun.star.drawing.PolyPolygonShape"
   id="g6607">
      <g
   id="id9" />
     </g><g
   class="com.sun.star.drawing.PolyPolygonShape"
   id="g6615">
      <g
   id="id11" />
     </g><g
   class="com.sun.star.drawing.PolyPolygonShape"
   id="g6623">
      <g
   id="id13" />
     </g><g
   class="com.sun.star.drawing.PolyPolygonShape"
   id="g6626">
      <g
   id="id14" />
     </g><g
   class="com.sun.star.drawing.PolyPolygonShape"
   id="g6629">
      <g
   id="id15" />
     </g><g
   class="com.sun.star.drawing.PolyPolygonShape"
   id="g6637">
      <g
   id="id17" />
     </g><g
   class="com.sun.star.drawing.PolyPolygonShape"
   id="g6645">
      <g
   id="id19" />
     </g><g
   class="com.sun.star.drawing.PolyPolygonShape"
   id="g6653">
      <g
   id="id21" />
     </g><g
   class="com.sun.star.drawing.PolyPolygonShape"
   id="g6656">
      <g
   id="id22" />
     </g><g
   class="com.sun.star.drawing.PolyPolygonShape"
   id="g6659">
      <g
   id="id23" />
     </g><g
   class="com.sun.star.drawing.PolyPolygonShape"
   id="g6662">
      <g
   id="id24" />
     </g><g
   class="com.sun.star.drawing.PolyPolygonShape"
   id="g6665">
      <g
   id="id25" />
     </g><g
   class="com.sun.star.drawing.PolyPolygonShape"
   id="g6668">
      <g
   id="id26" />
     </g><g
   class="com.sun.star.drawing.PolyPolygonShape"
   id="g6671">
      <g
   id="id27" />
     </g><g
   class="com.sun.star.drawing.PolyPolygonShape"
   id="g6674">
      <g
   id="id28" />
     </g><g
   class="com.sun.star.drawing.PolyPolygonShape"
   id="g6677">
      <g
   id="id29" />
     </g><g
   class="com.sun.star.drawing.PolyPolygonShape"
   id="g6680">
      <g
   id="id30" />
     </g><g
   class="com.sun.star.drawing.PolyPolygonShape"
   id="g6683">
      <g
   id="id31" />
     </g><g
   class="com.sun.star.drawing.PolyPolygonShape"
   id="g6686">
      <g
   id="id32" />
     </g><g
   class="com.sun.star.drawing.PolyPolygonShape"
   id="g6689">
      <g
   id="id33" />
     </g><g
   class="com.sun.star.drawing.PolyPolygonShape"
   id="g6692">
      <g
   id="id34" />
     </g><g
   class="com.sun.star.drawing.PolyPolygonShape"
   id="g6695">
      <g
   id="id35" />
     </g><g
   class="com.sun.star.drawing.PolyPolygonShape"
   id="g6698">
      <g
   id="id36" />
     </g><g
   class="com.sun.star.drawing.PolyPolygonShape"
   id="g6701">
      <g
   id="id37" />
     </g><g
   class="com.sun.star.drawing.PolyPolygonShape"
   id="g6704">
      <g
   id="id38" />
     </g><g
   class="com.sun.star.drawing.PolyPolygonShape"
   id="g6707">
      <g
   id="id39" />
     </g><g
   class="com.sun.star.drawing.PolyPolygonShape"
   id="g6710">
      <g
   id="id40" />
     </g><g
   class="com.sun.star.drawing.PolyPolygonShape"
   id="g6713">
      <g
   id="id41" />
     </g><g
   class="com.sun.star.drawing.PolyPolygonShape"
   id="g6716">
      <g
   id="id42" />
     </g><g
   class="com.sun.star.drawing.PolyPolygonShape"
   id="g6719">
      <g
   id="id43" />
     </g><g
   class="com.sun.star.drawing.PolyPolygonShape"
   id="g6722">
      <g
   id="id44" />
     </g><g
   class="com.sun.star.drawing.PolyPolygonShape"
   id="g6725">
      <g
   id="id45" />
     </g><g
   class="com.sun.star.drawing.PolyPolygonShape"
   id="g6728">
      <g
   id="id46" />
     </g><g
   class="com.sun.star.drawing.PolyPolygonShape"
   id="g6731">
      <g
   id="id47" />
     </g><g
   class="com.sun.star.drawing.PolyPolygonShape"
   id="g6734">
      <g
   id="id48" />
     </g><g
   class="com.sun.star.drawing.PolyPolygonShape"
   id="g6737">
      <g
   id="id49" />
     </g><g
   class="com.sun.star.drawing.PolyPolygonShape"
   id="g6740">
      <g
   id="id50" />
     </g><g
   class="com.sun.star.drawing.PolyPolygonShape"
   id="g6743">
      <g
   id="id51" />
     </g><g
   class="com.sun.star.drawing.PolyPolygonShape"
   id="g6746">
      <g
   id="id52" />
     </g><g
   class="com.sun.star.drawing.PolyPolygonShape"
   id="g6749">
      <g
   id="id53" />
     </g><g
   class="com.sun.star.drawing.PolyPolygonShape"
   id="g6752">
      <g
   id="id54" />
     </g><g
   class="com.sun.star.drawing.PolyPolygonShape"
   id="g6755">
      <g
   id="id55" />
     </g><g
   class="com.sun.star.drawing.PolyPolygonShape"
   id="g6758">
      <g
   id="id56" />
     </g><g
   class="com.sun.star.drawing.PolyPolygonShape"
   id="g6761">
      <g
   id="id57" />
     </g><g
   class="com.sun.star.drawing.PolyPolygonShape"
   id="g6764">
      <g
   id="id58" />
     </g><g
   class="com.sun.star.drawing.PolyPolygonShape"
   id="g6767">
      <g
   id="id59" />
     </g><g
   class="com.sun.star.drawing.PolyPolygonShape"
   id="g6770">
      <g
   id="id60" />
     </g><g
   class="com.sun.star.drawing.PolyPolygonShape"
   id="g6773">
      <g
   id="id61" />
     </g><g
   class="com.sun.star.drawing.PolyPolygonShape"
   id="g6776">
      <g
   id="id62" />
     </g><g
   class="com.sun.star.drawing.PolyPolygonShape"
   id="g6779">
      <g
   id="id63" />
     </g><g
   class="com.sun.star.drawing.PolyPolygonShape"
   id="g6782">
      <g
   id="id64" />
     </g><g
   class="com.sun.star.drawing.PolyPolygonShape"
   id="g6785">
      <g
   id="id65" />
     </g><g
   class="com.sun.star.drawing.PolyPolygonShape"
   id="g6788">
      <g
   id="id66" />
     </g><g
   class="com.sun.star.drawing.PolyPolygonShape"
   id="g6791">
      <g
   id="id67" />
     </g><g
   class="com.sun.star.drawing.PolyPolygonShape"
   id="g6794">
      <g
   id="id68" />
     </g><g
   class="com.sun.star.drawing.PolyPolygonShape"
   id="g6797">
      <g
   id="id69" />
     </g><g
   class="com.sun.star.drawing.PolyPolygonShape"
   id="g6800">
      <g
   id="id70" />
     </g><g
   class="com.sun.star.drawing.PolyPolygonShape"
   id="g6803">
      <g
   id="id71" />
     </g><g
   class="com.sun.star.drawing.PolyPolygonShape"
   id="g6806">
      <g
   id="id72" />
     </g><g
   class="com.sun.star.drawing.PolyPolygonShape"
   id="g6809">
      <g
   id="id73" />
     </g><g
   class="com.sun.star.drawing.PolyPolygonShape"
   id="g6812">
      <g
   id="id74" />
     </g><g
   class="com.sun.star.drawing.PolyPolygonShape"
   id="g6815">
      <g
   id="id75" />
     </g><g
   class="com.sun.star.drawing.PolyPolygonShape"
   id="g6818">
      <g
   id="id76" />
     </g><g
   class="com.sun.star.drawing.PolyPolygonShape"
   id="g6821">
      <g
   id="id77" />
     </g><g
   class="com.sun.star.drawing.PolyPolygonShape"
   id="g6824">
      <g
   id="id78" />
     </g><g
   class="com.sun.star.drawing.PolyPolygonShape"
   id="g6827">
      <g
   id="id79" />
     </g><g
   class="com.sun.star.drawing.PolyPolygonShape"
   id="g6830">
      <g
   id="id80" />
     </g><g
   class="com.sun.star.drawing.PolyPolygonShape"
   id="g6833">
      <g
   id="id81" />
     </g><g
   class="com.sun.star.drawing.PolyPolygonShape"
   id="g6836">
      <g
   id="id82" />
     </g><g
   class="com.sun.star.drawing.PolyPolygonShape"
   id="g6839">
      <g
   id="id83" />
     </g><g
   class="com.sun.star.drawing.PolyPolygonShape"
   id="g6842">
      <g
   id="id84" />
     </g><g
   class="com.sun.star.drawing.PolyPolygonShape"
   id="g6845">
      <g
   id="id85" />
     </g><g
   class="com.sun.star.drawing.PolyPolygonShape"
   id="g6848">
      <g
   id="id86" />
     </g><g
   class="com.sun.star.drawing.PolyPolygonShape"
   id="g6851">
      <g
   id="id87" />
     </g><g
   class="com.sun.star.drawing.PolyPolygonShape"
   id="g6854">
      <g
   id="id88" />
     </g><g
   class="com.sun.star.drawing.PolyPolygonShape"
   id="g6857">
      <g
   id="id89" />
     </g><g
   class="com.sun.star.drawing.PolyPolygonShape"
   id="g6860">
      <g
   id="id90" />
     </g><g
   class="com.sun.star.drawing.PolyPolygonShape"
   id="g6863">
      <g
   id="id91" />
     </g><g
   class="com.sun.star.drawing.PolyPolygonShape"
   id="g6866">
      <g
   id="id92" />
     </g><g
   class="com.sun.star.drawing.PolyPolygonShape"
   id="g6869">
      <g
   id="id93" />
     </g><g
   class="com.sun.star.drawing.PolyPolygonShape"
   id="g6872">
      <g
   id="id94" />
     </g><g
   class="com.sun.star.drawing.PolyPolygonShape"
   id="g6875">
      <g
   id="id95" />
     </g><g
   class="com.sun.star.drawing.PolyPolygonShape"
   id="g6878">
      <g
   id="id96" />
     </g><g
   class="com.sun.star.drawing.PolyPolygonShape"
   id="g6881">
      <g
   id="id97" />
     </g><g
   class="com.sun.star.drawing.PolyPolygonShape"
   id="g6884">
      <g
   id="id98" />
     </g><g
   class="com.sun.star.drawing.PolyPolygonShape"
   id="g6887">
      <g
   id="id99" />
     </g><g
   class="com.sun.star.drawing.PolyPolygonShape"
   id="g6890">
      <g
   id="id100" />
     </g><g
   class="com.sun.star.drawing.PolyPolygonShape"
   id="g6893">
      <g
   id="id101" />
     </g><g
   class="com.sun.star.drawing.PolyPolygonShape"
   id="g6901">
      <g
   id="id103" />
     </g><g
   class="com.sun.star.drawing.PolyPolygonShape"
   id="g6909">
      <g
   id="id105" />
     </g><g
   class="com.sun.star.drawing.PolyPolygonShape"
   id="g6917">
      <g
   id="id107" />
     </g><g
   class="com.sun.star.drawing.PolyPolygonShape"
   id="g6925">
      <g
   id="id109" />
     </g><g
   class="com.sun.star.drawing.PolyPolygonShape"
   id="g6933">
      <g
   id="id111" />
     </g><g
   class="com.sun.star.drawing.PolyPolygonShape"
   id="g6941">
      <g
   id="id113" />
     </g><g
   class="com.sun.star.drawing.PolyPolygonShape"
   id="g6949">
      <g
   id="id115" />
     </g><g
   class="com.sun.star.drawing.PolyPolygonShape"
   id="g6957">
      <g
   id="id117" />
     </g><g
   class="com.sun.star.drawing.PolyPolygonShape"
   id="g6965">
      <g
   id="id119" />
     </g><g
   class="com.sun.star.drawing.PolyPolygonShape"
   id="g6973">
      <g
   id="id121" />
     </g><g
   class="com.sun.star.drawing.PolyPolygonShape"
   id="g6981">
      <g
   id="id123" />
     </g><g
   class="com.sun.star.drawing.PolyPolygonShape"
   id="g6989">
      <g
   id="id125" />
     </g><g
   class="com.sun.star.drawing.PolyPolygonShape"
   id="g6997">
      <g
   id="id127" />
     </g><g
   class="com.sun.star.drawing.PolyPolygonShape"
   id="g7005">
      <g
   id="id129" />
     </g><g
   class="com.sun.star.drawing.PolyPolygonShape"
   id="g7008">
      <g
   id="id130" />
     </g><g
   class="com.sun.star.drawing.PolyPolygonShape"
   id="g7011">
      <g
   id="id131" />
     </g><g
   class="com.sun.star.drawing.PolyPolygonShape"
   id="g7014">
      <g
   id="id132" />
     </g><g
   class="com.sun.star.drawing.PolyPolygonShape"
   id="g7022">
      <g
   id="id134" />
     </g><g
   class="com.sun.star.drawing.PolyPolygonShape"
   id="g7030">
      <g
   id="id136" />
     </g><g
   class="com.sun.star.drawing.PolyPolygonShape"
   id="g7038">
      <g
   id="id138" />
     </g><g
   class="com.sun.star.drawing.PolyPolygonShape"
   id="g7046">
      <g
   id="id140" />
     </g><g
   class="com.sun.star.drawing.PolyPolygonShape"
   id="g7059">
      <g
   id="id143" />
     </g><g
   class="com.sun.star.drawing.PolyPolygonShape"
   id="g7072">
      <g
   id="id146" />
     </g><g
   class="com.sun.star.drawing.PolyPolygonShape"
   id="g7080">
      <g
   id="id148" />
     </g><g
   class="com.sun.star.drawing.PolyPolygonShape"
   id="g7088">
      <g
   id="id150" />
     </g><g
   class="com.sun.star.drawing.PolyPolygonShape"
   id="g7096">
      <g
   id="id152" />
     </g><g
   class="com.sun.star.drawing.PolyPolygonShape"
   id="g7104">
      <g
   id="id154" />
     </g><g
   class="com.sun.star.drawing.PolyPolygonShape"
   id="g7112">
      <g
   id="id156" />
     </g><g
   class="com.sun.star.drawing.PolyPolygonShape"
   id="g7120">
      <g
   id="id158" />
     </g><g
   class="com.sun.star.drawing.PolyPolygonShape"
   id="g7128">
      <g
   id="id160" />
     </g><g
   class="com.sun.star.drawing.PolyPolygonShape"
   id="g7136">
      <g
   id="id162" />
     </g><g
   class="com.sun.star.drawing.PolyPolygonShape"
   id="g7144">
      <g
   id="id164" />
     </g><g
   class="com.sun.star.drawing.PolyPolygonShape"
   id="g7152">
      <g
   id="id166" />
     </g><g
   class="com.sun.star.drawing.PolyPolygonShape"
   id="g7160">
      <g
   id="id168" />
     </g><g
   class="com.sun.star.drawing.PolyPolygonShape"
   id="g7173">
      <g
   id="id171" />
     </g><g
   class="com.sun.star.drawing.PolyPolygonShape"
   id="g7186">
      <g
   id="id174" />
     </g><g
   class="com.sun.star.drawing.PolyPolygonShape"
   id="g7194">
      <g
   id="id176" />
     </g><g
   class="com.sun.star.drawing.PolyPolygonShape"
   id="g7197">
      <g
   id="id177" />
     </g><g
   class="com.sun.star.drawing.PolyPolygonShape"
   id="g7200">
      <g
   id="id178" />
     </g><g
   class="com.sun.star.drawing.PolyPolygonShape"
   id="g7203">
      <g
   id="id179" />
     </g><g
   class="com.sun.star.drawing.PolyPolygonShape"
   id="g7206">
      <g
   id="id180" />
     </g><g
   class="com.sun.star.drawing.PolyPolygonShape"
   id="g7209">
      <g
   id="id181" />
     </g><g
   class="com.sun.star.drawing.PolyPolygonShape"
   id="g7212">
      <g
   id="id182" />
     </g><g
   class="com.sun.star.drawing.PolyPolygonShape"
   id="g7215">
      <g
   id="id183" />
     </g><g
   class="com.sun.star.drawing.PolyPolygonShape"
   id="g7218">
      <g
   id="id184" />
     </g><g
   class="com.sun.star.drawing.PolyPolygonShape"
   id="g7221">
      <g
   id="id185" />
     </g><g
   class="com.sun.star.drawing.PolyPolygonShape"
   id="g7224">
      <g
   id="id186" />
     </g><g
   class="com.sun.star.drawing.PolyPolygonShape"
   id="g7237">
      <g
   id="id189" />
     </g><g
   class="com.sun.star.drawing.PolyPolygonShape"
   id="g7250">
      <g
   id="id192" />
     </g><g
   class="com.sun.star.drawing.PolyPolygonShape"
   id="g7258">
      <g
   id="id194" />
     </g><g
   class="com.sun.star.drawing.OpenBezierShape"
   id="g7263">
      <g
   id="id195">
       
      </g>
     </g><g
   class="com.sun.star.drawing.PolyPolygonShape"
   id="g7266">
      <g
   id="id196" />
     </g><g
   class="com.sun.star.drawing.PolyPolygonShape"
   id="g7279">
      <g
   id="id199" />
     </g><g
   class="com.sun.star.drawing.PolyPolygonShape"
   id="g7287">
      <g
   id="id201" />
     </g><g
   class="com.sun.star.drawing.PolyPolygonShape"
   id="g7290">
      <g
   id="id202" />
     </g><g
   class="com.sun.star.drawing.PolyPolygonShape"
   id="g7298">
      <g
   id="id204" />
     </g><g
   class="com.sun.star.drawing.PolyPolygonShape"
   id="g7301">
      <g
   id="id205" />
     </g><g
   class="com.sun.star.drawing.PolyPolygonShape"
   id="g7304">
      <g
   id="id206" />
     </g><g
   class="com.sun.star.drawing.PolyPolygonShape"
   id="g7307">
      <g
   id="id207" />
     </g><g
   class="com.sun.star.drawing.PolyPolygonShape"
   id="g7310">
      <g
   id="id208" />
     </g><g
   class="com.sun.star.drawing.PolyPolygonShape"
   id="g7313">
      <g
   id="id209" />
     </g><g
   class="com.sun.star.drawing.PolyPolygonShape"
   id="g7321">
      <g
   id="id211" />
     </g><g
   class="com.sun.star.drawing.PolyPolygonShape"
   id="g7329">
      <g
   id="id213" />
     </g><g
   class="com.sun.star.drawing.PolyPolygonShape"
   id="g7337">
      <g
   id="id215" />
     </g><g
   class="com.sun.star.drawing.PolyPolygonShape"
   id="g7345">
      <g
   id="id217" />
     </g><g
   class="com.sun.star.drawing.PolyPolygonShape"
   id="g7353">
      <g
   id="id219" />
     </g><g
   class="com.sun.star.drawing.PolyPolygonShape"
   id="g7361">
      <g
   id="id221" />
     </g><g
   class="com.sun.star.drawing.PolyPolygonShape"
   id="g7369">
      <g
   id="id223" />
     </g><g
   class="com.sun.star.drawing.PolyPolygonShape"
   id="g7377">
      <g
   id="id225" />
     </g><g
   class="com.sun.star.drawing.PolyPolygonShape"
   id="g7385">
      <g
   id="id227" />
     </g><g
   class="com.sun.star.drawing.PolyPolygonShape"
   id="g7393">
      <g
   id="id229" />
     </g><g
   class="com.sun.star.drawing.PolyPolygonShape"
   id="g7413">
      <g
   id="id233" />
     </g><g
   class="com.sun.star.drawing.PolyPolygonShape"
   id="g7421">
      <g
   id="id235" />
     </g><g
   class="com.sun.star.drawing.PolyPolygonShape"
   id="g7424">
      <g
   id="id236" />
     </g><g
   class="com.sun.star.drawing.PolyPolygonShape"
   id="g7427">
      <g
   id="id237" />
     </g><g
   class="com.sun.star.drawing.PolyPolygonShape"
   id="g7430">
      <g
   id="id238" />
     </g><g
   class="com.sun.star.drawing.PolyPolygonShape"
   id="g7433">
      <g
   id="id239" />
     </g><g
   class="com.sun.star.drawing.PolyPolygonShape"
   id="g7436">
      <g
   id="id240" />
     </g><g
   class="com.sun.star.drawing.PolyPolygonShape"
   id="g7439">
      <g
   id="id241" />
     </g><g
   class="com.sun.star.drawing.PolyPolygonShape"
   id="g7442">
      <g
   id="id242" />
     </g><g
   class="com.sun.star.drawing.PolyPolygonShape"
   id="g7445">
      <g
   id="id243" />
     </g><g
   class="com.sun.star.drawing.PolyPolygonShape"
   id="g7458">
      <g
   id="id246" />
     </g><g
   class="com.sun.star.drawing.PolyPolygonShape"
   id="g7471">
      <g
   id="id249" />
     </g><g
   class="com.sun.star.drawing.PolyPolygonShape"
   id="g7479">
      <g
   id="id251" />
     </g><g
   class="com.sun.star.drawing.PolyPolygonShape"
   id="g7487">
      <g
   id="id253" />
     </g><g
   class="com.sun.star.drawing.PolyPolygonShape"
   id="g7495">
      <g
   id="id255" />
     </g><g
   class="com.sun.star.drawing.PolyPolygonShape"
   id="g7508">
      <g
   id="id258" />
     </g><g
   class="com.sun.star.drawing.PolyPolygonShape"
   id="g7697">
      <g
   id="id281">
       
       
      </g>
     </g><g
   class="com.sun.star.drawing.ClosedBezierShape"
   id="g7713">
      <g
   id="id283">
       
       
       
      </g>
     </g><g
   class="com.sun.star.drawing.PolyPolygonShape"
   id="g7720">
      <g
   id="id284">
       
       
      </g>
     </g><g
   class="com.sun.star.drawing.ClosedBezierShape"
   id="g7729">
      <g
   id="id285">
       
       
       
      </g>
     </g><g
   class="com.sun.star.drawing.ClosedBezierShape"
   id="g7745"
   transform="matrix(1.6861247,0,0,1.6861247,-31946.333,-10478.664)">
      <g
   id="id287">
       <path
   d="m 22662,7225 c -185,6 -482,248 -482,248 -1229,33 -2251,234 -2803,530 -833,447 -37,972 1778,1177 1815,205 3962,10 4795,-437 l 6,-4 c 823,-445 25,-970 -1784,-1173 -401,-45 -666,-86 -1082,-95 0,0 -240,-252 -428,-246 z"
   id="path7740"
   inkscape:connector-curvature="0"
   style="fill:#ffcd2a;stroke:none" />
       
      </g>
     </g><g
   class="com.sun.star.drawing.ClosedBezierShape"
   id="g7756"
   transform="matrix(1.6861247,0,0,1.6861247,-31946.333,-10478.664)">
      <g
   id="id288">
       <path
   d="M 21809.428,7460.8919 C 20906.428,7530.8919 19965,7550 19169,8011 c -190,121 -290,420 -84,578 412,386 1010,441 1540,556 1452,230 2956,207 4400,-65 432,-99 906,-203 1230,-530 155,-199 23,-469 -185,-568 -497,-311 -1098,-385 -1664,-482 -422,-63 -860,-61 -1278,-127 -120.24,-46.7545 -982.115,98.3262 -1318.572,87.8919 z M 22648,7306 c 417,36 678,426 863,762 -214,203 -535,121 -802,154 -332,0 -678,-18 -980,-174 153,-242 365,-449 587,-626 99,-65 214,-112 332,-116 z m 804,239 c 886,76 1821,130 2608,579 146,102 185,359 -9,433 -672,434 -1507,469 -2281,562 -1359,104 -2752,63 -4064,-329 -216,-86 -507,-172 -594,-404 8,-322 393,-404 633,-496 729,-250 1507,-306 2273,-357 -140,158 -425,314 -381,562 171,222 504,195 754,244 381,-4 811,68 1155,-127 128,-90 108,-271 -6,-365 -78,-115 -171,-213 -261,-316 57,4 114,8 173,14 z"
   id="path7747"
   inkscape:connector-curvature="0"
   style="fill:#ffffff;stroke:none"
   sodipodi:nodetypes="cccccccccccccccccccccccccccccc" />
       <path
   style="fill:#1a1400;fill-opacity:1;stroke:none;stroke-width:50;stroke-linejoin:miter"
   d="m 22662,7225 c -211.248,2.0915 -373.075,143.2969 -495.753,214.8859 -725.73,48.2361 -1497.269,96.9822 -2133.153,265.4916 -283.712,77.0432 -560.407,183.1407 -816.578,328.0418 -137.722,75.1998 -222.542,199.3761 -207.219,348.4062 46.863,326.2445 621.936,531.0816 936.863,611.6196 282.94,71.7335 572.538,111.2717 859.175,165.1499 107.879,17.9711 216.711,29.5279 325.256,42.894 1329.489,154.0968 2685.136,112.6917 3996.743,-159.7016 166.869,-35.1008 331.733,-79.5451 493.413,-133.7372 171.358,-58.9835 338.745,-135.8462 482.433,-247.7325 55.19,-43.1753 73.793,-81.5155 117.983,-136.0557 27.419,-45.9782 36.361,-137.8069 35.684,-191.1457 -1.51,-65.28 -33.163,-166.5681 -108.47,-233.4409 -646.53,-510.6397 -2149.692,-583.9595 -3010.641,-660.7898 C 22987.326,7332.1909 22836.724,7228.2386 22662,7225 Z"
   id="path7749"
   inkscape:connector-curvature="0"
   sodipodi:nodetypes="cccccccccccccccc" />
       <path
   style="fill:#ffcd2a;fill-opacity:1;stroke:none;stroke-width:6.27861;stroke-linejoin:miter"
   d="m 593.32227,178.28125 c -43.27595,2.30314 -72.68228,39.26791 -100.1836,68.37695 -6.89228,7.25371 -15.94303,22.10244 -19.87695,25.87696 8.80022,-29.5233 40.23609,-42.81666 57.37695,-66.86328 -120.18516,8.06317 -244.80941,15.13689 -355.5332,67.16992 -22.26521,10.60772 -43.57281,42.01366 -23.76367,64.21484 28.49786,32.17923 73.73839,40.88083 113.30468,52.19922 197.25448,48.64744 404.25116,43.5617 603.94336,13.34961 59.19876,-10.15956 119.97306,-27.32534 168.38866,-63.89258 18.0888,-22.94146 0.014,-57.10505 -25.8398,-64.61328 -109.08347,-55.66551 -234.63857,-58.11572 -354.00198,-68.74609 17.89454,22.38461 40.77313,41.5688 53.21094,67.17578 2.97417,19.24042 -7.52281,-5.38942 -11.75196,-11.375 -22.933,-38.81281 -56.89549,-79.7096 -105.27343,-82.87305 z m 13.29181,3.13529 c 0,0 -3.96792,5.66968 -23.24351,1.70117 l -5.66943,-1.13333 z m 103.64959,100.88619 c -9.31482,20.45509 -37.17064,21.53727 -56.72851,25.4375 -52.18831,2.80247 -105.45648,2.20932 -156.375,-10.66211 -7.28646,-1.00506 -29.21845,-17.02956 -14.37305,-9.43554 57.2495,25.06193 121.53166,18.81609 182.2207,16.23633 17.05158,-1.72527 33.87864,-9.94734 45.25586,-21.57618 z"
   transform="matrix(7.9635457,0,0,7.9635457,17920.12,5833.4488)"
   id="path7751"
   inkscape:connector-curvature="0"
   sodipodi:nodetypes="cccccccccccccccccccccccc" />
       
      </g>
     </g><path
   style="fill:#ffffff;fill-opacity:0.743119;stroke:none;stroke-width:1px;stroke-linecap:butt;stroke-linejoin:miter;stroke-opacity:1;filter:url(#filter5962)"
   d="m 572.31445,187.08594 c -12.18897,3.96851 -32.88163,23.81262 -36.2832,25.79687 -3.40157,1.98425 -41.10156,41.10117 -41.10156,43.65235 0,2.55118 -12.58678,13.90483 -15.22266,17.01562 -2.63584,3.11078 -8.30487,6.79542 6.71875,14.73242 11.59725,6.12684 10.73426,8.79428 2.83399,-5.95312 -8.74901,-14.2382 53.88656,-71.35965 83.05468,-95.24414 z m -389.56836,84.36523 c -1.92244,0.0821 -0.68798,4.18441 -4.56152,6.19142 -7.01118,3.63272 -18.11278,3.86613 -27.45312,20.5703 -10.68483,19.10863 0.66403,40.65623 23.91504,54.28613 23.251,13.6299 84.83998,33.72344 93.94238,36.83984 21.52663,7.37008 -37.49707,-34.13574 -37.49707,-34.13574 l 53.94531,11.58985 -21.25781,-25.28516 57.72656,8.01953 -7.64648,-19.12304 25.28515,12.70898 -8.01758,-12.02734 37.47071,3.87109 -3.83008,-18.86914 29.3164,13.58984 -11.64453,-25.85156 17.52344,4.90821 c 0,0 -22.33501,-17.73635 15.34766,-6.51172 21.05427,6.27148 29.6632,11.34654 32.75195,13.91015 -2.54872,-5.09411 -7.44336,-21.88672 -7.44336,-21.88672 0,0 49.03084,43.18219 18.78906,3.9668 12.84484,13.50903 24.18329,22.38616 7.07813,-3.49805 1.60354,-3.20703 16.17187,5.10157 16.17187,5.10157 l -8.5039,-8.77735 -41.4336,-6.48437 c -5.00424,-16.92188 -17.40916,17.66702 -24.625,-5.58399 -1.42582,-4.59438 -7.21679,6.41407 -7.21679,6.41407 l -8.1543,-9.7168 -6.27734,8.11328 -13.43555,-9.01367 c 0,0 -21.18066,29.82202 -19.14453,2.7793 -6.46781,14.91002 -9.66156,-9.89118 -21.93946,12.64843 -1.91764,3.52039 -19.24218,-11.22461 -19.24218,-11.22461 l -21.38867,8.86133 c -0.004,0.01 -29.38939,23.45091 -27.78711,-0.98047 0.91398,-13.93631 -4.44375,-13.8007 -9.35157,0.93946 -1.01312,3.04281 -15.21479,-21.12288 -15.52539,-10.67383 -0.78506,26.41084 -11.80382,-0.87352 -11.73437,4.25976 0.11311,8.36167 -6.21872,22.13704 -8.44727,-5.14257 -0.52224,-6.39278 -16.10176,24.87336 -14.90234,17.71289 4.12275,-24.61279 -18.72282,22.78645 -7.91992,-13.27539 -11.09519,16.29279 -16.9336,13.60742 -16.9336,13.60742 0,0 14.43201,-23.27167 4.05078,-22.82813 z m 265.31641,44.68164 c 0.13105,0.26193 0.26128,0.52075 0.37891,0.7168 1.06139,1.76898 2.06054,1.30791 -0.37891,-0.7168 z"
   transform="matrix(13.427531,0,0,13.427531,-1730.7746,-642.75081)"
   id="path5924"
   inkscape:connector-curvature="0"
   sodipodi:nodetypes="csscscccssssccccccccccccsccccccccccccccccssscscccccsc" /><g
   class="com.sun.star.drawing.ClosedBezierShape"
   id="g7763"
   transform="matrix(1.2080288,0,0,1.2080288,-14326.472,-1951.7971)">
      <g
   id="id289">
       
       <path
   d="m 15941.839,5584.7434 3805.815,2166.8004 c 349.64,200.2602 662.116,-402.8549 346.791,-573.3182 0,0 -3740.289,-1840.7537 -3963.199,-1976.3969 -83.931,-52.4379 -256.319,-74.9355 -392.707,-112.7359 -136.474,-39.0092 -124.13,-208.8582 -293.184,-330.6696 -140.089,-98.9308 -392.295,-46.5106 -436.008,83.6085 -43.626,131.3283 -62.887,306.528 120.358,405.4571 182.768,100.7853 372.53,24.8052 477.688,59.3354 104.425,32.7579 334.446,277.9192 334.446,277.9192 z"
   id="path7760"
   inkscape:connector-curvature="0"
   style="fill:#d2ba69;fill-opacity:1;stroke:#000000;stroke-width:39.4444;stroke-linejoin:miter" />
      </g>
     </g>
  

<path
   style="opacity:0.86;fill:#d5a300;fill-opacity:1;stroke:none;stroke-width:84.3062;stroke-linejoin:miter"
   d="m 6558.0772,1816.9522 c 428.2098,301.4124 724.69,511.7381 1124.2082,1435.6906 71.5819,-53.8965 114.9764,-82.1379 124.027,-104.7648 10.1295,-25.3236 -9.6115,-91.0192 -2.8318,-116.4943 -57.9793,-45.1698 -126.1414,-128.275 -153.8396,-167.4769 -254.286,-430.3654 -668.9045,-938.7055 -1091.5638,-1046.9546 z m 3468.5058,884.4149 c -513.3151,42.1946 -1589.4944,-60.8575 -2337.5645,94.5823 5.9598,38.5574 122.9022,203.1414 118.4218,220.6956 1.3543,75.6339 -0.8274,36.3183 -0.1899,189.3686 82.8174,27.6534 33.2544,7.3401 380.567,-54.8445 287.114,-71.7 432.3663,-115.23 570.9699,-142.7202 956.3478,-256.581 652.839,-270.3641 1383.3847,-161.4846 1106.596,20.8948 2713.821,652.2104 1334.969,36.1196 -296.25,-132.3689 -1050.114,-395.936 -1695.6173,-488.2766 -1760.7776,-279.1451 1045.7753,282.432 245.0603,306.5598 z"
   id="path7751-7"
   inkscape:connector-curvature="0"
   sodipodi:nodetypes="cccccccccccccscc" /></g>
 </g>
</svg>
