<?xml version="1.0" encoding="UTF-8" standalone="no"?>
<svg
   xmlns:dc="http://purl.org/dc/elements/1.1/"
   xmlns:cc="http://creativecommons.org/ns#"
   xmlns:rdf="http://www.w3.org/1999/02/22-rdf-syntax-ns#"
   xmlns:svg="http://www.w3.org/2000/svg"
   xmlns="http://www.w3.org/2000/svg"
   xmlns:xlink="http://www.w3.org/1999/xlink"
   xmlns:sodipodi="http://sodipodi.sourceforge.net/DTD/sodipodi-0.dtd"
   xmlns:inkscape="http://www.inkscape.org/namespaces/inkscape"
   width="88mm"
   height="125mm"
   version="1.1"
   id="svg335"
   sodipodi:docname="desert.svg"
   inkscape:version="1.0.2-2 (e86c870879, 2021-01-15)">
  <metadata
     id="metadata341">
    <rdf:RDF>
      <cc:Work
         rdf:about="">
        <dc:format>image/svg+xml</dc:format>
        <dc:type
           rdf:resource="http://purl.org/dc/dcmitype/StillImage" />
        <dc:title></dc:title>
      </cc:Work>
    </rdf:RDF>
  </metadata>
  <defs
     id="defs339">
    <linearGradient
       id="SVGID_3_"
       gradientUnits="userSpaceOnUse"
       x1="64.000099"
       x2="64.000099"
       y1="75.8013"
       y2="62.420502"
       gradientTransform="matrix(2.717909,0,0,2.717909,-6.871636,133.12836)">
      <stop
         offset="0"
         style="stop-color:#ECAA63"
         id="stop38" />
      <stop
         offset="0.7878"
         style="stop-color:#ECAA63;stop-opacity:0"
         id="stop40" />
    </linearGradient>
    <radialGradient
       id="SVGID_4_"
       cx="63.666698"
       cy="77.333298"
       gradientUnits="userSpaceOnUse"
       r="75.425499"
       gradientTransform="matrix(2.717909,0,0,2.717909,-6.871636,133.12836)">
      <stop
         offset="0"
         style="stop-color:#FFD740"
         id="stop49" />
      <stop
         offset="0.1661"
         style="stop-color:#FFD33A"
         id="stop51" />
      <stop
         offset="0.3886"
         style="stop-color:#FFC729"
         id="stop53" />
      <stop
         offset="0.6419"
         style="stop-color:#FFB40D"
         id="stop55" />
      <stop
         offset="0.7432"
         style="stop-color:#FFAB00"
         id="stop57" />
      <stop
         offset="1"
         style="stop-color:#FFAB00"
         id="stop59" />
    </radialGradient>
    <radialGradient
       id="SVGID_5_"
       cx="22.2605"
       cy="13.965"
       gradientUnits="userSpaceOnUse"
       r="23.9426"
       gradientTransform="matrix(3.6407527,0,0,3.6407527,-10.563011,129.43698)">
      <stop
         offset="0"
         style="stop-color:#FFFF00"
         id="stop186" />
      <stop
         offset="1"
         style="stop-color:#FFEA00"
         id="stop188" />
    </radialGradient>
  </defs>
  <sodipodi:namedview
     pagecolor="#ffffff"
     bordercolor="#666666"
     borderopacity="1"
     objecttolerance="10"
     gridtolerance="10"
     guidetolerance="10"
     inkscape:pageopacity="0"
     inkscape:pageshadow="2"
     inkscape:window-width="1920"
     inkscape:window-height="1017"
     id="namedview337"
     showgrid="false"
     units="mm"
     inkscape:zoom="1.1739077"
     inkscape:cx="-107.03585"
     inkscape:cy="166.62817"
     inkscape:window-x="-8"
     inkscape:window-y="-8"
     inkscape:window-maximized="1"
     inkscape:current-layer="svg335" />
  <g
     id="g19"
     transform="matrix(2.717909,0,0,2.717909,-6.871636,133.12836)">
    <path
       d="M 45.97,52.55 C 45.01,52 43.92,51.86 42.89,52.13 c -0.78,1.52 -0.43,3.71 4.79,6.06 9.69,4.37 2.44,5.14 -0.75,6.55 -3.19,1.41 -8.12,4.37 -1.25,5.64 6.03,1.11 26.65,0.05 34.31,-1.75 v -3.75 c -18,-3.9 -29.63,-9.82 -34.02,-12.33 z"
       style="fill:#ffab00"
       id="path2" />
    <linearGradient
       id="SVGID_1_"
       gradientUnits="userSpaceOnUse"
       x1="42"
       x2="42"
       y1="53.067699"
       y2="75.8013">
      <stop
         offset="0"
         style="stop-color:#FFE57F"
         id="stop4" />
      <stop
         offset="0.1113"
         style="stop-color:#FFE376"
         id="stop6" />
      <stop
         offset="0.2962"
         style="stop-color:#FFDC5C"
         id="stop8" />
      <stop
         offset="0.5317"
         style="stop-color:#FFD133"
         id="stop10" />
      <stop
         offset="0.7799"
         style="stop-color:#FFC400"
         id="stop12" />
      <stop
         offset="1"
         style="stop-color:#FFC400"
         id="stop14" />
    </linearGradient>
    <path
       d="m 45.69,70.38 c -6.88,-1.27 -1.94,-4.23 1.25,-5.64 3.19,-1.41 10.44,-2.18 0.75,-6.55 -5.22,-2.36 -5.58,-4.55 -4.79,-6.06 -0.32,0.08 -0.64,0.2 -0.94,0.36 C 33.67,56.86 21.97,60.67 10,63.82 6.47,64.75 4,67.91 4,71.56 v 15.88 h 76 v -18.8 c -7.66,1.8 -28.28,2.86 -34.31,1.74 z"
       style="fill:url(#SVGID_1_)"
       id="path17" />
  </g>
  <g
     id="g36"
     transform="matrix(2.717909,0,0,2.717909,-6.871636,133.12836)">
    <path
       d="m 91.69,57.5 c 9.69,3.88 2.44,4.56 -0.75,5.81 -3.19,1.25 -8.12,3.87 -1.25,5 6.03,0.99 26.65,9.29 34.31,7.69 v -6.09 c 0,-3.74 -2.59,-6.95 -6.23,-7.8 -14.48,-3.37 -23.94,-7.66 -27.8,-9.62 -0.96,-0.49 -2.05,-0.61 -3.08,-0.38 -0.78,1.35 -0.43,3.3 4.8,5.39 z"
       style="fill:#ffab00"
       id="path25" />
    <linearGradient
       id="SVGID_2_"
       gradientUnits="userSpaceOnUse"
       x1="64"
       x2="64"
       y1="56.131302"
       y2="80.324997">
      <stop
         offset="0"
         style="stop-color:#FFE57F"
         id="stop27" />
      <stop
         offset="0.5031"
         style="stop-color:#FFD43D"
         id="stop29" />
      <stop
         offset="1"
         style="stop-color:#FFC400"
         id="stop31" />
    </linearGradient>
    <path
       d="m 89.69,68.31 c -6.88,-1.12 -1.94,-3.75 1.25,-5 3.19,-1.25 10.44,-1.94 0.75,-5.81 -5.22,-2.09 -5.58,-4.03 -4.79,-5.38 -0.32,0.07 -0.64,0.18 -0.94,0.32 C 60.77,64.22 4,71.43 4,71.43 v 12 H 124 V 76 c -7.66,1.6 -28.28,-6.7 -34.31,-7.69 z"
       style="fill:url(#SVGID_2_)"
       id="path34" />
  </g>
  <path
     d="m 313.21651,301.93769 c -39.35533,-9.15935 -65.06675,-20.81918 -75.55787,-26.14628 -2.6092,-1.33178 -5.57172,-1.65793 -8.37116,-1.03281 -0.86973,0.19026 -1.73947,0.48923 -2.55484,0.86973 C 158.29569,307.67248 4,327.2686 4,327.2686 v 32.61491 h 326.14908 v -20.19406 -16.55207 c 0,-10.16498 -7.03939,-18.88947 -16.93257,-21.19969 z"
     style="fill:url(#SVGID_3_);stroke-width:2.71791"
     id="path43" />
  <rect
     height="141.33127"
     style="fill:url(#SVGID_4_);stroke-width:2.71791"
     width="326.14908"
     x="4"
     y="328.81781"
     id="rect62" />
  <g
     id="g180"
     transform="matrix(2.717909,0,0,2.717909,-6.871636,133.12836)">
    <ellipse
       cx="22.9"
       cy="78.860001"
       rx="1.49"
       ry="0.94"
       style="fill:#ffb300"
       id="ellipse64" />
    <ellipse
       cx="12.09"
       cy="98.389999"
       rx="1.49"
       ry="0.94"
       style="fill:#ffb300"
       id="ellipse66" />
    <ellipse
       cx="49.330002"
       cy="92.559998"
       rx="1.49"
       ry="0.94"
       style="fill:#ffb300"
       id="ellipse68" />
    <ellipse
       cx="28.549999"
       cy="82.419998"
       rx="0.94"
       ry="0.58999997"
       style="fill:#ffd54f"
       id="ellipse70" />
    <ellipse
       cx="46.560001"
       cy="78.480003"
       rx="0.94"
       ry="0.58999997"
       style="fill:#ffd54f"
       id="ellipse72" />
    <ellipse
       cx="54.240002"
       cy="80.68"
       rx="1.49"
       ry="0.94"
       style="fill:#ffc107"
       id="ellipse74" />
    <ellipse
       cx="74.650002"
       cy="82.220001"
       rx="1.49"
       ry="0.94"
       style="fill:#ffc107"
       id="ellipse76" />
    <ellipse
       cx="12.74"
       cy="76.110001"
       rx="0.94"
       ry="0.58999997"
       style="fill:#ffd54f"
       id="ellipse78" />
    <ellipse
       cx="11.5"
       cy="88.489998"
       rx="1.35"
       ry="0.85000002"
       style="fill:#ffc107"
       id="ellipse80" />
    <ellipse
       cx="20.17"
       cy="94.059998"
       rx="0.94"
       ry="0.58999997"
       style="fill:#ffc107"
       id="ellipse82" />
    <ellipse
       cx="33.91"
       cy="80.5"
       rx="1.25"
       ry="0.79000002"
       style="fill:#ffc107"
       id="ellipse84" />
    <ellipse
       cx="84.489998"
       cy="77.080002"
       rx="1.25"
       ry="0.79000002"
       style="fill:#ffc107"
       id="ellipse86" />
    <ellipse
       cx="28.889999"
       cy="94.760002"
       rx="1.49"
       ry="0.94"
       style="fill:#ffb300"
       id="ellipse88" />
    <ellipse
       cx="53.25"
       cy="98.099998"
       rx="1.49"
       ry="0.94"
       style="fill:#ffb300"
       id="ellipse90" />
    <ellipse
       cx="63.950001"
       cy="106.36"
       rx="1.49"
       ry="0.94"
       style="fill:#ffb300"
       id="ellipse92" />
    <ellipse
       cx="58.889999"
       cy="91.830002"
       rx="0.94"
       ry="0.58999997"
       style="fill:#ffd54f"
       id="ellipse94" />
    <ellipse
       cx="39.02"
       cy="89.410004"
       rx="1.91"
       ry="1.2"
       style="fill:#ffb300"
       id="ellipse96" />
    <ellipse
       cx="67.769997"
       cy="90.110001"
       rx="1.49"
       ry="0.94"
       style="fill:#ffc107"
       id="ellipse98" />
    <ellipse
       cx="67.839996"
       cy="103.81"
       rx="1.49"
       ry="0.94"
       style="fill:#ffc107"
       id="ellipse100" />
    <ellipse
       cx="72.760002"
       cy="116.81"
       rx="0.94"
       ry="0.58999997"
       style="fill:#ffd54f"
       id="ellipse102" />
    <ellipse
       cx="37.970001"
       cy="93.480003"
       rx="1.35"
       ry="0.85000002"
       style="fill:#ffc107"
       id="ellipse104" />
    <ellipse
       cx="44.790001"
       cy="104.16"
       rx="0.94"
       ry="0.58999997"
       style="fill:#ffc107"
       id="ellipse106" />
    <ellipse
       cx="24.18"
       cy="99.129997"
       rx="1.25"
       ry="0.79000002"
       style="fill:#ffc107"
       id="ellipse108" />
    <ellipse
       cx="58.450001"
       cy="110.85"
       rx="1.25"
       ry="0.79000002"
       style="fill:#ffc107"
       id="ellipse110" />
    <ellipse
       cx="31.15"
       cy="111.31"
       rx="1.49"
       ry="0.94"
       style="fill:#ffb300"
       id="ellipse112" />
    <ellipse
       cx="43.52"
       cy="116.73"
       rx="1.49"
       ry="0.94"
       style="fill:#ffb300"
       id="ellipse114" />
    <ellipse
       cx="35.93"
       cy="99.029999"
       rx="0.94"
       ry="0.58999997"
       style="fill:#ffd54f"
       id="ellipse116" />
    <ellipse
       cx="43.450001"
       cy="111.16"
       rx="0.94"
       ry="0.58999997"
       style="fill:#ffd54f"
       id="ellipse118" />
    <ellipse
       cx="52.970001"
       cy="117.16"
       rx="0.94"
       ry="0.58999997"
       style="fill:#ffd54f"
       id="ellipse120" />
    <ellipse
       cx="38.240002"
       cy="106.02"
       rx="1.76"
       ry="1.11"
       style="fill:#ffb300"
       id="ellipse122" />
    <ellipse
       cx="60.639999"
       cy="119.36"
       rx="1.49"
       ry="0.94"
       style="fill:#ffc107"
       id="ellipse124" />
    <ellipse
       cx="27.629999"
       cy="104.85"
       rx="0.94"
       ry="0.58999997"
       style="fill:#ffd54f"
       id="ellipse126" />
    <ellipse
       cx="23"
       cy="112.67"
       rx="2.1099999"
       ry="1.33"
       style="fill:#ffc107"
       id="ellipse128" />
    <ellipse
       cx="7.9400001"
       cy="100.42"
       rx="0.94"
       ry="0.58999997"
       style="fill:#ffc107"
       id="ellipse130" />
    <ellipse
       cx="34.630001"
       cy="100.39"
       rx="1.25"
       ry="0.79000002"
       style="fill:#ffc107"
       id="ellipse132" />
    <ellipse
       cx="18.92"
       cy="117.67"
       rx="1.49"
       ry="0.94"
       style="fill:#ffb300"
       id="ellipse134" />
    <ellipse
       cx="10.45"
       cy="113.96"
       rx="0.94"
       ry="0.58999997"
       style="fill:#ffd54f"
       id="ellipse136" />
    <ellipse
       cx="32.330002"
       cy="119.33"
       rx="1.35"
       ry="0.85000002"
       style="fill:#ffc107"
       id="ellipse138" />
    <ellipse
       cx="20"
       cy="85.669998"
       rx="0.94"
       ry="0.58999997"
       style="fill:#ffc107"
       id="ellipse140" />
    <ellipse
       cx="93.029999"
       cy="76.410004"
       rx="1.49"
       ry="0.94"
       style="fill:#ffb300"
       id="ellipse142" />
    <ellipse
       cx="61.529999"
       cy="83.779999"
       rx="1.49"
       ry="0.94"
       style="fill:#ffb300"
       id="ellipse144" />
    <ellipse
       cx="112.49"
       cy="78.940002"
       rx="1.49"
       ry="0.94"
       style="fill:#ffb300"
       id="ellipse146" />
    <ellipse
       cx="105.32"
       cy="76.260002"
       rx="0.94"
       ry="0.58999997"
       style="fill:#ffd54f"
       id="ellipse148" />
    <ellipse
       cx="120.65"
       cy="82.800003"
       rx="1.49"
       ry="0.94"
       style="fill:#ffc107"
       id="ellipse150" />
    <ellipse
       cx="88.269997"
       cy="82.32"
       rx="1.35"
       ry="0.85000002"
       style="fill:#ffc107"
       id="ellipse152" />
    <ellipse
       cx="96.949997"
       cy="87.889999"
       rx="0.94"
       ry="0.58999997"
       style="fill:#ffc107"
       id="ellipse154" />
    <ellipse
       cx="108.61"
       cy="94.019997"
       rx="1.25"
       ry="0.79000002"
       style="fill:#ffc107"
       id="ellipse156" />
    <ellipse
       cx="116.45"
       cy="98.93"
       rx="1.49"
       ry="0.94"
       style="fill:#ffb300"
       id="ellipse158" />
    <ellipse
       cx="95.629997"
       cy="115.27"
       rx="1.49"
       ry="0.94"
       style="fill:#ffb300"
       id="ellipse160" />
    <ellipse
       cx="104.38"
       cy="108.17"
       rx="1.49"
       ry="0.94"
       style="fill:#ffb300"
       id="ellipse162" />
    <ellipse
       cx="88.029999"
       cy="97.57"
       rx="0.94"
       ry="0.58999997"
       style="fill:#ffd54f"
       id="ellipse164" />
    <ellipse
       cx="95.550003"
       cy="109.7"
       rx="0.94"
       ry="0.58999997"
       style="fill:#ffd54f"
       id="ellipse166" />
    <ellipse
       cx="100.8"
       cy="96.910004"
       rx="1.88"
       ry="1.1799999"
       style="fill:#ffd54f"
       id="ellipse168" />
    <ellipse
       cx="73.949997"
       cy="98.669998"
       rx="1.88"
       ry="1.1799999"
       style="fill:#ffd54f"
       id="ellipse170" />
    <ellipse
       cx="89.760002"
       cy="103.93"
       rx="1.17"
       ry="0.74000001"
       style="fill:#ffb300"
       id="ellipse172" />
    <ellipse
       cx="114.79"
       cy="89.639999"
       rx="1.49"
       ry="0.94"
       style="fill:#ffc107"
       id="ellipse174" />
    <ellipse
       cx="110.88"
       cy="116.23"
       rx="1.49"
       ry="0.94"
       style="fill:#ffc107"
       id="ellipse176" />
    <ellipse
       cx="87.169998"
       cy="121.33"
       rx="0.94"
       ry="0.58999997"
       style="fill:#ffc107"
       id="ellipse178" />
  </g>
  <path
     d="m 69.533549,260.50409 c -28.106612,0 -50.970538,-22.86393 -50.970538,-50.97054 0,-28.10662 22.863926,-50.97053 50.970538,-50.97053 28.10661,0 50.970541,22.86391 50.970541,50.97053 0,28.10661 -22.863931,50.97054 -50.970541,50.97054 z"
     style="fill:url(#SVGID_5_);stroke-width:3.64075"
     id="path191" />
  <path
     d="m 69.533549,173.12602 c 20.060546,0 36.407531,16.34698 36.407531,36.40753 0,20.06055 -16.346985,36.40752 -36.407531,36.40752 -20.060548,0 -36.407527,-16.34697 -36.407527,-36.40752 0,-20.06055 16.346979,-36.40753 36.407527,-36.40753 m 0,-29.12602 C 33.344466,144 4,173.34447 4,209.53355 c 0,36.18908 29.344466,65.53354 65.533549,65.53354 36.189081,0 65.533541,-29.34446 65.533541,-65.53354 C 135.06709,173.34447 105.72263,144 69.533549,144 Z"
     style="fill:#ffff8d;stroke-width:3.64075"
     id="path193" />
  <g
     id="g212"
     transform="matrix(2.717909,0,0,2.717909,-6.871636,133.12836)">
    <radialGradient
       id="SVGID_6_"
       cx="113.875"
       cy="22.5"
       gradientUnits="userSpaceOnUse"
       r="38.7575">
      <stop
         offset="0"
         style="stop-color:#9CCC65"
         id="stop197" />
      <stop
         offset="7.898902e-03"
         style="stop-color:#9BCB64"
         id="stop199" />
      <stop
         offset="0.5276"
         style="stop-color:#76AB44"
         id="stop201" />
      <stop
         offset="0.8023"
         style="stop-color:#689F38"
         id="stop203" />
    </radialGradient>
    <path
       d="m 114.09,22.33 c -4.26,0 -7.65,3.17 -7.65,7.15 v 14.13 c 0,2.93 -4.03,6.8 -7.13,6.9 l 0.18,13.21 c 11.53,-0.1 22.25,-9.31 22.25,-20.11 V 29.48 c 0,-3.98 -3.39,-7.15 -7.65,-7.15 z"
       style="fill:url(#SVGID_6_)"
       id="path206" />
    <g
       style="opacity:0.2"
       id="g210">
      <path
         d="m 114.09,25.33 c 2.61,0 4.65,1.82 4.65,4.15 v 14.13 c 0,7.98 -7.45,15.39 -16.29,16.85 l -0.11,-7.63 c 3.77,-1.57 7.1,-5.59 7.1,-9.23 V 29.48 c -0.01,-2.33 2.04,-4.15 4.65,-4.15 m 0,-3 c -4.26,0 -7.65,3.17 -7.65,7.15 v 14.13 c 0,2.93 -4.03,6.8 -7.13,6.9 l 0.18,13.21 c 11.53,-0.1 22.25,-9.31 22.25,-20.11 V 29.48 c 0,-3.98 -3.39,-7.15 -7.65,-7.15 z"
         style="fill:#424242"
         id="path208" />
    </g>
  </g>
  <path
     d="m 299.16492,205.88679 c -5.00096,1.33177 -3.07124,21.98788 -2.9897,28.34779 0.16307,10.98035 -1.25024,21.17251 -4.70199,30.11443 -3.45174,8.9691 -12.14905,19.89509 -21.52584,21.14533"
     style="fill:none;stroke:#558b2f;stroke-width:4.11247;stroke-linecap:round;stroke-linejoin:round;stroke-miterlimit:10"
     id="path214" />
  <path
     d="m 309.79194,207.51753 c 2.4733,17.88384 3.07124,22.15096 0.89691,36.20255 -1.76664,11.4424 -5.10967,22.42275 -11.87726,31.718 -6.7676,9.29525 -18.40025,16.06284 -29.35342,19.13408"
     style="fill:none;stroke:#558b2f;stroke-width:4.11247;stroke-linecap:round;stroke-linejoin:round;stroke-miterlimit:10"
     id="path216" />
  <polygon
     points="113.78,22.29 115.16,20.3 114.23,22.54 113.78,22.53 112.88,20.29 114.23,22.29 "
     style="fill:#33691e"
     id="polygon218"
     transform="matrix(2.717909,0,0,2.717909,-6.871636,133.12836)" />
  <path
     d="m 280.76467,199.55406 c 1.11435,0.1359 2.14715,0.40769 3.17996,0.70666 1.0328,0.27179 2.03843,0.67947 3.04405,1.05998 l -0.95126,0.78819 c -0.19026,-1.08716 -0.38051,-2.14714 -0.46205,-3.26149 -0.10871,-1.08716 -0.16307,-2.2015 -0.0815,-3.34302 0.48923,1.0328 0.84256,2.06561 1.14153,3.12559 0.32614,1.05998 0.57076,2.11997 0.78819,3.20713 l -0.95127,0.7882 c -0.97845,-0.40769 -1.98407,-0.84256 -2.93534,-1.35896 -0.92409,-0.5164 -1.87536,-1.0328 -2.77227,-1.71228 z"
     style="fill:#33691e;stroke-width:2.71791"
     id="path220" />
  <polygon
     points="121.65,28.48 124,28.93 121.61,29 121.42,28.59 123.06,26.82 121.83,28.89 "
     style="fill:#33691e"
     id="polygon222"
     transform="matrix(2.717909,0,0,2.717909,-6.871636,133.12836)" />
  <polygon
     points="121.73,37.82 123.87,38.9 121.55,38.3 121.48,37.85 123.53,36.6 121.8,38.26 "
     style="fill:#33691e"
     id="polygon224"
     transform="matrix(2.717909,0,0,2.717909,-6.871636,133.12836)" />
  <polygon
     points="121.59,45.44 123.5,46.9 121.32,45.88 121.34,45.43 123.57,44.58 121.57,45.89 "
     style="fill:#33691e"
     id="polygon226"
     transform="matrix(2.717909,0,0,2.717909,-6.871636,133.12836)" />
  <g
     style="opacity:0.5"
     id="g235"
     transform="matrix(2.717909,0,0,2.717909,-6.871636,133.12836)">
    <linearGradient
       id="SVGID_7_"
       gradientUnits="userSpaceOnUse"
       x1="94.506599"
       x2="109.0066"
       y1="53.892601"
       y2="43.142601">
      <stop
         offset="0"
         style="stop-color:#33691E"
         id="stop228" />
      <stop
         offset="1"
         style="stop-color:#33691E;stop-opacity:0"
         id="stop230" />
    </linearGradient>
    <path
       d="m 114.09,22.33 c -4.26,0 -7.65,3.17 -7.65,7.15 v 14.13 c 0,2.93 -4.03,6.8 -7.13,6.9 l 0.18,13.21 c 11.53,-0.1 22.25,-9.31 22.25,-20.11 V 29.48 c 0,-3.98 -3.39,-7.15 -7.65,-7.15 z"
       style="fill:url(#SVGID_7_)"
       id="path233" />
  </g>
  <g
     id="g252"
     transform="matrix(2.717909,0,0,2.717909,-6.871636,133.12836)">
    <radialGradient
       id="SVGID_8_"
       cx="91.477699"
       cy="6.125"
       gradientUnits="userSpaceOnUse"
       r="85.799202">
      <stop
         offset="0"
         style="stop-color:#9CCC65"
         id="stop241" />
      <stop
         offset="0.9952"
         style="stop-color:#689F38"
         id="stop243" />
    </radialGradient>
    <path
       d="m 91.43,5.93 c -6.32,0 -11.3,5.01 -11.3,11.25 L 81.53,92 h 20.39 l 0.91,-74.82 C 102.82,11.03 97.75,5.93 91.43,5.93 Z"
       style="fill:url(#SVGID_8_)"
       id="path246" />
    <g
       style="opacity:0.2"
       id="g250">
      <path
         d="m 91.43,8.93 c 4.63,0 8.39,3.7 8.39,8.22 L 98.95,89 H 84.47 L 83.13,17.16 c 0.02,-4.62 3.66,-8.23 8.3,-8.23 m 0,-3 c -6.32,0 -11.3,5.01 -11.3,11.25 L 81.53,92 h 20.39 l 0.91,-74.82 C 102.82,11.03 97.75,5.93 91.43,5.93 Z"
         style="fill:#424242"
         id="path248" />
    </g>
  </g>
  <path
     d="m 231.10848,164.08535 c -9.89319,7.74604 -6.57734,38.34969 -6.44145,53.24383 0.54358,52.45565 3.91379,100.69853 4.45737,153.18136"
     style="fill:none;stroke:#689f38;stroke-width:4.11247;stroke-linecap:round;stroke-linejoin:round;stroke-miterlimit:10"
     id="path254" />
  <path
     d="m 245.21442,160.93257 c 1.87536,6.41427 1.08717,9.29525 1.14152,16.00849 0.21744,37.91483 0.51641,75.82966 0.89691,113.74449 0.2718,26.63551 1.92972,57.64685 1.68511,82.18957"
     style="fill:none;stroke:#689f38;stroke-width:4.11247;stroke-linecap:round;stroke-linejoin:round;stroke-miterlimit:10"
     id="path256" />
  <path
     d="m 257.55373,176.61491 c -0.62512,37.91483 -1.1687,75.82966 -1.60357,113.74449 -0.32615,26.63551 0.6523,57.67403 -0.13589,82.21675"
     style="fill:none;stroke:#689f38;stroke-width:4.11247;stroke-linecap:round;stroke-linejoin:round;stroke-miterlimit:10"
     id="path258" />
  <path
     d="m 205.01655,197.56999 c 1.08716,-0.16308 2.17433,-0.19026 3.26149,-0.19026 1.08716,-0.0272 2.14715,0.0815 3.20713,0.16308 l -0.70665,1.00562 c -0.48923,-0.97844 -0.95127,-1.98407 -1.3046,-3.01688 -0.38051,-1.0328 -0.76101,-2.06561 -0.97845,-3.17995 0.76102,0.84255 1.35896,1.76664 1.92972,2.69073 0.59794,0.92409 1.11434,1.90254 1.60356,2.88098 l -0.70665,1.00563 c -1.05999,-0.13589 -2.11997,-0.27179 -3.17996,-0.48922 -1.0328,-0.21744 -2.09279,-0.46205 -3.12559,-0.86973 z"
     style="fill:#33691e;stroke-width:2.71791"
     id="path260" />
  <path
     d="m 207.0278,231.70692 c 1.08717,-0.16307 2.17433,-0.19025 3.26149,-0.19025 1.08717,-0.0272 2.14715,0.0815 3.20713,0.16307 l -0.70665,1.00563 c -0.48922,-0.97845 -0.95127,-1.98407 -1.3046,-3.01688 -0.3805,-1.0328 -0.76101,-2.06561 -0.97844,-3.17995 0.76101,0.84255 1.35895,1.76664 1.92971,2.69073 0.59794,0.92409 1.11434,1.90253 1.60357,2.88098 l -0.70666,1.00563 c -1.05998,-0.1359 -2.11997,-0.27179 -3.17995,-0.48923 -1.03281,-0.21743 -2.09279,-0.48922 -3.1256,-0.86973 z"
     style="fill:#33691e;stroke-width:2.71791"
     id="path262" />
  <path
     d="m 208.00625,279.35187 c 1.08716,-0.16308 2.17433,-0.19026 3.26149,-0.19026 1.08716,-0.0272 2.14715,0.0815 3.20713,0.16308 l -0.70665,1.00562 c -0.48923,-0.97844 -0.95127,-1.98407 -1.3046,-3.01687 -0.38051,-1.03281 -0.76101,-2.06561 -0.97845,-3.17996 0.76102,0.84255 1.35896,1.76664 1.92972,2.69073 0.59794,0.92409 1.11434,1.90254 1.60356,2.88099 l -0.70665,1.00562 c -1.05999,-0.13589 -2.11997,-0.27179 -3.17996,-0.48922 -1.0328,-0.21743 -2.09279,-0.46205 -3.12559,-0.86973 z"
     style="fill:#33691e;stroke-width:2.71791"
     id="path264" />
  <path
     d="m 221.21529,283.89078 c 1.08716,-0.16308 2.17432,-0.19026 3.26149,-0.19026 1.08716,-0.0272 2.14715,0.0815 3.20713,0.16308 l -0.70666,1.00562 c -0.48922,-0.97844 -0.95126,-1.98407 -1.30459,-3.01688 -0.38051,-1.0328 -0.76102,-2.06561 -0.97845,-3.17995 0.76101,0.84255 1.35895,1.76664 1.92972,2.69073 0.59794,0.92409 1.11434,1.90254 1.60356,2.88098 l -0.70665,1.00563 c -1.05999,-0.1359 -2.11997,-0.27179 -3.17996,-0.48922 -1.0328,-0.21744 -2.09279,-0.46205 -3.12559,-0.86973 z"
     style="fill:#33691e;stroke-width:2.71791"
     id="path266" />
  <path
     d="m 223.00911,354.36616 c 1.08716,-0.16308 2.17432,-0.19026 3.26149,-0.19026 1.08716,-0.0272 2.14715,0.0815 3.20713,0.16308 l -0.70666,1.00562 c -0.48922,-0.97844 -0.95126,-1.98407 -1.30459,-3.01688 -0.38051,-1.0328 -0.76102,-2.06561 -0.97845,-3.17995 0.76101,0.84255 1.35895,1.76664 1.92972,2.69073 0.59794,0.92409 1.11434,1.90254 1.60356,2.88098 l -0.70665,1.00563 c -1.05999,-0.1359 -2.11997,-0.27179 -3.17996,-0.48922 -1.0328,-0.21744 -2.06561,-0.46205 -3.12559,-0.86973 z"
     style="fill:#33691e;stroke-width:2.71791"
     id="path268" />
  <path
     d="m 220.75324,231.76128 c 1.08717,-0.19025 2.17433,-0.24461 3.26149,-0.27179 1.08717,-0.0544 2.14715,0.0272 3.23431,0.10872 l -0.67947,1.00562 c -0.48923,-0.97844 -0.97845,-1.95689 -1.38614,-2.96252 -0.40768,-1.0328 -0.78819,-2.03843 -1.0328,-3.15277 0.76101,0.84255 1.38613,1.73946 2.01125,2.66355 0.62512,0.89691 1.14152,1.87536 1.65793,2.82662 l -0.67948,1.03281 c -1.05999,-0.10872 -2.14715,-0.21743 -3.20713,-0.43487 -1.05999,-0.21743 -2.11997,-0.43486 -3.17996,-0.81537 z"
     style="fill:#33691e;stroke-width:2.71791"
     id="path270" />
  <path
     d="m 213.63232,158.86696 c 1.08716,-0.16307 2.17433,-0.19025 3.26149,-0.19025 1.08716,-0.0272 2.14715,0.0815 3.20713,0.16307 l -0.70665,1.00563 c -0.48923,-0.97845 -0.95127,-1.98407 -1.3046,-3.01688 -0.38051,-1.0328 -0.76101,-2.06561 -0.97845,-3.17995 0.76102,0.84255 1.35896,1.76664 1.92972,2.69073 0.59794,0.92409 1.11434,1.90253 1.60357,2.88098 l -0.70666,1.00563 c -1.05999,-0.1359 -2.11997,-0.27179 -3.17995,-0.48923 -1.03281,-0.21743 -2.09279,-0.46204 -3.1256,-0.86973 z"
     style="fill:#33691e;stroke-width:2.71791"
     id="path272" />
  <path
     d="m 228.79825,145.46767 c 0.92409,0.62512 1.73946,1.35895 2.55484,2.09279 0.81537,0.73384 1.54921,1.52203 2.28304,2.3374 l -1.19588,0.27179 c 0.29897,-1.05998 0.59794,-2.09279 1.00563,-3.12559 0.40768,-1.03281 0.81537,-2.03843 1.38613,-3.01688 0,1.14152 -0.16307,2.22868 -0.35333,3.31585 -0.16307,1.08716 -0.43486,2.14715 -0.70665,3.20713 l -1.19588,0.24461 c -0.70666,-0.81537 -1.41332,-1.65792 -2.01126,-2.55483 -0.65229,-0.86973 -1.25023,-1.76664 -1.76664,-2.77227 z"
     style="fill:#33691e;stroke-width:2.71791"
     id="path274" />
  <polygon
     points="96.69,7.09 98.76,5.86 97,7.5 96.58,7.31 96.69,4.89 97.1,7.28 "
     style="fill:#33691e"
     id="polygon276"
     transform="matrix(2.717909,0,0,2.717909,-6.871636,133.12836)" />
  <polygon
     points="102.35,34.53 104.71,34.98 102.31,35.05 102.13,34.64 103.76,32.87 102.54,34.94 "
     style="fill:#33691e"
     id="polygon278"
     transform="matrix(2.717909,0,0,2.717909,-6.871636,133.12836)" />
  <polygon
     points="96.41,70.1 98.76,70.54 96.37,70.61 96.18,70.2 97.82,68.43 96.59,70.51 "
     style="fill:#33691e"
     id="polygon280"
     transform="matrix(2.717909,0,0,2.717909,-6.871636,133.12836)" />
  <polygon
     points="101.99,67.51 104.34,67.95 101.95,68.02 101.76,67.61 103.4,65.84 102.18,67.91 "
     style="fill:#33691e"
     id="polygon282"
     transform="matrix(2.717909,0,0,2.717909,-6.871636,133.12836)" />
  <polygon
     points="101.96,76.59 104.01,77.84 101.74,77.05 101.71,76.6 103.86,75.53 101.99,77.03 "
     style="fill:#33691e"
     id="polygon284"
     transform="matrix(2.717909,0,0,2.717909,-6.871636,133.12836)" />
  <polygon
     points="101.96,84.24 104.01,85.5 101.74,84.71 101.71,84.26 103.86,83.19 101.99,84.69 "
     style="fill:#33691e"
     id="polygon286"
     transform="matrix(2.717909,0,0,2.717909,-6.871636,133.12836)" />
  <polygon
     points="102.35,42.93 104.71,43.37 102.31,43.44 102.13,43.03 103.76,41.26 102.54,43.34 "
     style="fill:#33691e"
     id="polygon288"
     transform="matrix(2.717909,0,0,2.717909,-6.871636,133.12836)" />
  <polygon
     points="97,25.61 99.27,24.84 97.22,26.08 96.85,25.81 97.44,23.46 97.36,25.88 "
     style="fill:#33691e"
     id="polygon290"
     transform="matrix(2.717909,0,0,2.717909,-6.871636,133.12836)" />
  <g
     id="g298">
    <defs
       id="defs293">
      <path
         id="SVGID_9_"
         d="m 91.43,5.93 c -6.32,0 -11.3,5.01 -11.3,11.25 L 81.53,92 h 20.39 l 0.91,-74.82 C 102.82,11.03 97.75,5.93 91.43,5.93 Z" />
    </defs>
    <clipPath
       id="SVGID_10_">
      <use
         style="overflow:visible"
         xlink:href="#SVGID_9_"
         id="use295"
         x="0"
         y="0"
         width="100%"
         height="100%" />
    </clipPath>
  </g>
  <g
     id="g311"
     transform="matrix(2.717909,0,0,2.717909,-6.871636,133.12836)">
    <radialGradient
       id="SVGID_11_"
       cx="68.625"
       cy="26.625"
       gradientUnits="userSpaceOnUse"
       r="48.839699">
      <stop
         offset="0"
         style="stop-color:#9CCC65"
         id="stop300" />
      <stop
         offset="0.9952"
         style="stop-color:#689F38"
         id="stop302" />
    </radialGradient>
    <path
       d="M 85.74,64.46 C 83,64.24 75.61,63.26 75.61,54.93 V 33.74 c 0,-3.98 -3.11,-7.15 -7.03,-7.15 -3.92,0 -7.03,3.17 -7.03,7.15 v 21.1 c 0,14.72 11.18,21.95 24.19,21.95 z"
       style="fill:url(#SVGID_11_)"
       id="path305" />
    <g
       style="opacity:0.2"
       id="g309">
      <path
         d="m 68.58,29.59 c 2.26,0 4.03,1.82 4.03,4.15 v 21.19 c 0,6.43 3.65,10.74 10.13,12.12 v 6.59 C 77.98,73.17 73.77,71.57 70.67,69.01 66.61,65.66 64.55,60.88 64.55,54.83 v -21.1 c 0,-2.32 1.77,-4.14 4.03,-4.14 m 0,-3 c -3.92,0 -7.03,3.17 -7.03,7.15 v 21.1 c 0,14.72 11.18,21.95 24.19,21.95 V 64.46 C 83,64.24 75.61,63.26 75.61,54.93 V 33.74 c 0,-3.98 -3.11,-7.15 -7.03,-7.15 z"
         style="fill:#424242"
         id="path307" />
    </g>
  </g>
  <path
     d="m 172.48318,219.85684 c 0.40768,17.8023 0.24461,35.63179 -0.46205,53.43409 -0.21743,5.54454 -0.48922,11.17061 0.73384,16.57925 0.84255,3.75071 2.39176,7.31117 4.10404,10.76292 1.98408,3.96814 4.21276,7.82757 7.01221,11.27932 3.56046,4.40301 8.01783,8.09937 13.04596,10.81728 5.70761,3.09841 12.12187,4.91941 18.61768,5.27274"
     style="fill:none;stroke:#689f38;stroke-width:4.11247;stroke-linecap:round;stroke-linejoin:round;stroke-miterlimit:10"
     id="path313" />
  <path
     d="m 156.23008,220.97118 c 1.08717,-0.16307 2.17433,-0.19025 3.26149,-0.19025 1.08717,-0.0272 2.14715,0.0815 3.20714,0.16307 l -0.70666,1.00563 c -0.48922,-0.97845 -0.95127,-1.98407 -1.3046,-3.01688 -0.3805,-1.0328 -0.76101,-2.06561 -0.97844,-3.17995 0.76101,0.84255 1.35895,1.76664 1.92971,2.69073 0.59794,0.92409 1.11434,1.90253 1.60357,2.88098 l -0.70666,1.00563 c -1.05998,-0.1359 -2.11997,-0.27179 -3.17995,-0.48923 -1.03281,-0.24461 -2.09279,-0.48922 -3.1256,-0.86973 z"
     style="fill:#33691e;stroke-width:2.71791"
     id="path315" />
  <polygon
     points="69.39,27.2 71.24,25.65 69.76,27.55 69.33,27.43 69.05,25.02 69.83,27.32 "
     style="fill:#33691e"
     id="polygon317"
     transform="matrix(2.717909,0,0,2.717909,-6.871636,133.12836)" />
  <polygon
     points="74.92,32.01 77.31,31.99 74.98,32.52 74.71,32.16 75.99,30.1 75.18,32.38 "
     style="fill:#33691e"
     id="polygon319"
     transform="matrix(2.717909,0,0,2.717909,-6.871636,133.12836)" />
  <polygon
     points="75.39,49.37 77.63,50.22 75.26,49.87 75.15,49.44 77.06,47.98 75.51,49.81 "
     style="fill:#33691e"
     id="polygon321"
     transform="matrix(2.717909,0,0,2.717909,-6.871636,133.12836)" />
  <path
     d="m 165.47097,237.08838 c 1.08717,-0.16307 2.17433,-0.19025 3.26149,-0.19025 1.08717,-0.0272 2.14715,0.0815 3.20714,0.16307 l -0.70666,1.00563 c -0.48922,-0.97845 -0.95127,-1.98407 -1.3046,-3.01688 -0.3805,-1.0328 -0.76101,-2.06561 -0.97844,-3.17995 0.76101,0.84255 1.35895,1.76664 1.92971,2.69073 0.59794,0.92409 1.11434,1.90253 1.60357,2.88098 l -0.70666,1.00563 c -1.05998,-0.1359 -2.11997,-0.27179 -3.17995,-0.48923 -1.03281,-0.24461 -2.09279,-0.48922 -3.1256,-0.86973 z"
     style="fill:#33691e;stroke-width:2.71791"
     id="path323" />
  <path
     d="m 154.95267,257.11937 c 0.97844,-0.48922 2.01125,-0.86973 3.04405,-1.19588 1.03281,-0.35333 2.06561,-0.59794 3.1256,-0.81537 l -0.35333,1.1687 c -0.73383,-0.78819 -1.49485,-1.57639 -2.14715,-2.44612 -0.67947,-0.86973 -1.33177,-1.73946 -1.87535,-2.71791 0.97844,0.57076 1.82099,1.27742 2.66355,1.98408 0.84255,0.70665 1.60356,1.46767 2.36458,2.22868 l -0.35333,1.1687 c -1.05999,0.21744 -2.11997,0.40769 -3.17995,0.51641 -1.11435,0.0543 -2.17433,0.16307 -3.28867,0.10871 z"
     style="fill:#33691e;stroke-width:2.71791"
     id="path325" />
  <path
     d="m 164.27509,268.72484 c 1.08717,-0.16307 2.17433,-0.19025 3.26149,-0.19025 1.08717,-0.0272 2.14715,0.0815 3.20714,0.16307 l -0.70666,1.00563 c -0.48922,-0.97845 -0.95127,-1.98407 -1.3046,-3.01688 -0.3805,-1.0328 -0.76101,-2.06561 -0.97844,-3.17995 0.76101,0.84255 1.35895,1.76664 1.92971,2.69073 0.59794,0.92409 1.11434,1.90253 1.60357,2.88098 l -0.70666,1.00563 c -1.05998,-0.1359 -2.11997,-0.27179 -3.17995,-0.48923 -1.03281,-0.21743 -2.09279,-0.46204 -3.1256,-0.86973 z"
     style="fill:#33691e;stroke-width:2.71791"
     id="path327" />
  <path
     d="m 155.14292,289.35377 c 0.95127,-0.54358 1.95689,-0.97844 2.96252,-1.35895 1.00563,-0.40769 2.03843,-0.70666 3.07124,-1.00563 l -0.29897,1.19588 c -0.7882,-0.76101 -1.57639,-1.49485 -2.28305,-2.3374 -0.70665,-0.81537 -1.41331,-1.65792 -2.01125,-2.60919 1.00563,0.5164 1.87536,1.1687 2.74509,1.821 0.86973,0.65229 1.6851,1.38613 2.50048,2.11997 l -0.29897,1.19588 c -1.03281,0.27179 -2.09279,0.5164 -3.15278,0.67947 -1.05998,0.1359 -2.11997,0.27179 -3.23431,0.29897 z"
     style="fill:#33691e;stroke-width:2.71791"
     id="path329" />
  <path
     d="m 226.86854,322.70252 c 1.08716,-0.16308 2.17432,-0.19026 3.26149,-0.19026 1.08716,-0.0272 2.14715,0.0815 3.20713,0.16308 l -0.70666,1.00562 c -0.48922,-0.97844 -0.95126,-1.98407 -1.30459,-3.01688 -0.38051,-1.0328 -0.76102,-2.06561 -0.97845,-3.17995 0.76102,0.84255 1.35896,1.76664 1.92972,2.69073 0.59794,0.92409 1.11434,1.90254 1.60356,2.88098 l -0.70665,1.00563 c -1.05999,-0.13589 -2.11997,-0.27179 -3.17996,-0.48922 -1.0328,-0.21744 -2.09279,-0.46205 -3.12559,-0.86973 z"
     style="fill:#33691e;stroke-width:2.71791"
     id="path331" />
</svg>
