<?xml version="1.0" encoding="UTF-8" standalone="no"?>
<svg
   xmlns:dc="http://purl.org/dc/elements/1.1/"
   xmlns:cc="http://creativecommons.org/ns#"
   xmlns:rdf="http://www.w3.org/1999/02/22-rdf-syntax-ns#"
   xmlns:svg="http://www.w3.org/2000/svg"
   xmlns="http://www.w3.org/2000/svg"
   xmlns:sodipodi="http://sodipodi.sourceforge.net/DTD/sodipodi-0.dtd"
   xmlns:inkscape="http://www.inkscape.org/namespaces/inkscape"
   viewBox="0 0 459.93244 311.27488"
   version="1.1"
   id="svg59"
   sodipodi:docname="desk.svg"
   width="121.69046mm"
   height="82.358147mm"
   inkscape:version="1.0.2-2 (e86c870879, 2021-01-15)">
  <metadata
     id="metadata63">
    <rdf:RDF>
      <cc:Work
         rdf:about="">
        <dc:format>image/svg+xml</dc:format>
        <dc:type
           rdf:resource="http://purl.org/dc/dcmitype/StillImage" />
        <dc:title />
      </cc:Work>
    </rdf:RDF>
  </metadata>
  <sodipodi:namedview
     pagecolor="#ffffff"
     bordercolor="#666666"
     borderopacity="1"
     objecttolerance="10"
     gridtolerance="10"
     guidetolerance="10"
     inkscape:pageopacity="0"
     inkscape:pageshadow="2"
     inkscape:window-width="1920"
     inkscape:window-height="1017"
     id="namedview61"
     showgrid="false"
     units="mm"
     inkscape:zoom="1.0952711"
     inkscape:cx="469.45212"
     inkscape:cy="296.8292"
     inkscape:window-x="-8"
     inkscape:window-y="-8"
     inkscape:window-maximized="1"
     inkscape:current-layer="svg59"
     inkscape:document-rotation="0" />
  <defs
     id="defs5">
    <filter
       id="a"
       x="-0.0425"
       y="-0.2357"
       width="1.085"
       height="1.4714">
      <feGaussianBlur
         stdDeviation="15.328"
         id="feGaussianBlur2" />
    </filter>
  </defs>
  <g
     transform="matrix(0.4829183,0,0,0.4829183,-30.908666,-204.25657)"
     fill-opacity="0.996"
     id="g57">
    <path
       d="M 101.31,916.93 689.45,760.96 979.1,827.507 376.81,1009.057 101.32,916.931 Z"
       filter="url(#a)"
       opacity="0.8"
       id="path7" />
    <path
       transform="translate(0,308.27)"
       d="m 138.19,224.69 688.85,-74 V 342.9 l -688.85,150 z"
       id="path9" />
    <path
       d="m 702.69,499.73 11.496,-1.5962 v 277.81 L 702.69,777.54 Z"
       fill="#cccccc"
       id="path11" />
    <path
       d="m 692.33,497.99 11.855,1.734 v 277.81 L 692.33,775.8 Z"
       fill="#666666"
       id="path13" />
    <path
       d="m 139.39,532.05 11.496,-2.2444 v 390.63 L 139.39,922.68 Z"
       fill="#cccccc"
       id="path15" />
    <path
       d="m 129.03,529.61 11.855,2.4382 v 390.63 L 129.03,920.24 Z"
       fill="#666666"
       id="path17" />
    <path
       d="m 946.98,478.64 11.496,-2.0228 v 352.07 L 946.98,830.71 Z"
       fill="#cccccc"
       id="path19" />
    <path
       d="m 936.62,476.44 11.855,2.1976 v 352.07 L 936.62,828.51 Z"
       fill="#666666"
       id="path21" />
    <path
       transform="translate(0,308.27)"
       d="m 829.14,195.97 118.71,-23.306 v 249.16 l -118.77,37.75 0.0635,-263.61 z"
       fill="#c87137"
       id="path23" />
    <path
       d="m 836.33,607.61 108.65,-26 v 139.7 l -108.65,30 z"
       fill="#784421"
       id="path25" />
    <path
       d="m 523.06,449.18 306.08,57.485 v 261.17 l -306.08,-76 v -242.66 z"
       fill="#28170b"
       id="path27" />
    <path
       d="m 380.8,588.21 11.496,-2.3592 v 410.62 L 380.8,998.83 Z"
       fill="#cccccc"
       id="path29" />
    <path
       d="m 370.44,585.65 11.855,2.563 v 410.62 L 370.44,996.27 Z"
       fill="#666666"
       id="path31" />
    <path
       d="m 138.66,538.84 232.08,52 V 875.5 l -230.08,-72 z"
       fill="#784421"
       id="path33" />
    <path
       transform="translate(0,308.27)"
       d="m 101.31,206.66 279.5,63.952 0.0159,16.347 -279.51,-64.492 V 206.66 Z"
       fill="#28170b"
       id="path35" />
    <path
       transform="translate(0,308.27)"
       d="m 392.3,281.07 166.69,-32 v 283.21 l -166.69,48 z"
       fill="#c87137"
       id="path37" />
    <path
       d="m 380.8,576.87 586.22,-109.4 v 12.37 L 380.8,595.24 Z"
       fill="#784421"
       id="path39" />
    <path
       d="m 836.33,515.65 108.52,-22 v 71.442 l -108.52,26 z"
       fill="#784421"
       id="path41" />
    <path
       transform="translate(0,308.27)"
       d="M 101.31,206.66 685.45,114.693 967.1,159.24 380.81,270.79 101.32,206.664 Z"
       fill="#502d16"
       id="path43" />
    <path
       transform="translate(0,308.27)"
       d="m 402.36,394.59 143.7,-30 v 156.92 l -143.7,42 z"
       fill="#784421"
       id="path45" />
    <path
       transform="translate(0,308.27)"
       d="m 405.95,298.94 141.54,-26 v 75.442 l -141.54,30 z"
       fill="#784421"
       id="path47" />
    <path
       transform="translate(0,308.27)"
       d="m 455.53,419.9 56.043,-10 v 7.9035 l -56.043,10 z"
       fill="#e6e6e6"
       id="path49" />
    <path
       d="m 455.53,641.95 56.043,-10 v 7.9035 l -56.043,10 z"
       fill="#cccccc"
       id="path51" />
    <path
       d="m 877.99,551.93 42.043,-8 v 7.9035 l -42.043,8 z"
       fill="#cccccc"
       id="path53" />
    <path
       d="m 876.19,627.73 42.043,-8 v 7.9035 l -42.043,8 z"
       fill="#cccccc"
       id="path55" />
  </g>
</svg>
