<?xml version="1.0" encoding="UTF-8" standalone="no"?>
<svg
   xmlns:dc="http://purl.org/dc/elements/1.1/"
   xmlns:cc="http://creativecommons.org/ns#"
   xmlns:rdf="http://www.w3.org/1999/02/22-rdf-syntax-ns#"
   xmlns:svg="http://www.w3.org/2000/svg"
   xmlns="http://www.w3.org/2000/svg"
   xmlns:sodipodi="http://sodipodi.sourceforge.net/DTD/sodipodi-0.dtd"
   xmlns:inkscape="http://www.inkscape.org/namespaces/inkscape"
   version="1.1"
   x="0px"
   y="0px"
   width="88mm"
   height="125mm"
   viewBox="0 0 332.59843 472.44094"
   enable-background="new 0 0 1356 1648"
   xml:space="preserve"
   id="svg31"
   sodipodi:docname="dictionary.svg"
   inkscape:version="1.0.2-2 (e86c870879, 2021-01-15)"><metadata
   id="metadata37"><rdf:RDF><cc:Work
       rdf:about=""><dc:format>image/svg+xml</dc:format><dc:type
         rdf:resource="http://purl.org/dc/dcmitype/StillImage" /><dc:title></dc:title></cc:Work></rdf:RDF></metadata><defs
   id="defs35" /><sodipodi:namedview
   pagecolor="#ffffff"
   bordercolor="#666666"
   borderopacity="1"
   objecttolerance="10"
   gridtolerance="10"
   guidetolerance="10"
   inkscape:pageopacity="0"
   inkscape:pageshadow="2"
   inkscape:window-width="1920"
   inkscape:window-height="1017"
   id="namedview33"
   showgrid="false"
   units="mm"
   inkscape:zoom="1.4588368"
   inkscape:cx="304.30147"
   inkscape:cy="206.09337"
   inkscape:window-x="-8"
   inkscape:window-y="-8"
   inkscape:window-maximized="1"
   inkscape:current-layer="svg31" />
<g
   id="icon_dictonary"
   transform="matrix(0.30834689,0,0,0.30834689,-39.893566,-21.54774)">
	<path
   fill="#ffe2c2"
   d="m 1170.369,1376 c 0,-51.915 7.631,-94 14.631,-94 v -17 H 409.097 c -132.368,0 -239.672,49.696 -239.672,111 0,61.304 107.305,111 239.672,111 H 1185 v -17 c -7,0 -14.631,-42.085 -14.631,-94 z"
   id="path2" />
	<path
   fill="#8c6239"
   d="M 203.085,1272.044 C 240.095,1246.501 290.849,1233 349.857,1233 H 350 V 145 h -0.142 c -59.009,0 -109.762,13.501 -146.772,39.044 -34.415,23.751 -54.737,56.504 -58.085,93.115 v 1079.43 c 0,1.172 0.221,2.271 0.611,3.267 4.747,-34.465 24.729,-65.213 57.473,-87.812 z"
   id="path4" />
	<path
   fill="#c69c6d"
   d="M 1188.449,145 H 350 v 1088 h 849 V 152.053 c 0,-4.277 -4.951,-7.053 -10.551,-7.053 z"
   id="path6" />
	<path
   fill="#f9e9d9"
   stroke="#3d3d3d"
   stroke-width="13"
   stroke-miterlimit="10"
   d="m 1105.5,542.996 c 0,-8.006 -4.186,-12.496 -12.946,-12.496 H 485.805 c -8.76,0 -18.305,4.49 -18.305,12.496 v 338.24 c 0,8.006 9.545,16.264 18.305,16.264 h 606.749 c 8.761,0 12.946,-8.258 12.946,-16.264 z"
   id="path8" />
	<g
   id="g16">
		<path
   fill="#212121"
   d="m 745.997,808.38 c 0.91,2.508 1.394,4.529 1.452,6.066 0.057,1.539 -0.371,2.708 -1.281,3.504 -0.913,0.799 -2.422,1.309 -4.529,1.538 -2.109,0.227 -4.929,0.342 -8.459,0.342 -3.533,0 -6.353,-0.085 -8.459,-0.257 -2.11,-0.17 -3.704,-0.456 -4.785,-0.854 -1.085,-0.398 -1.881,-0.94 -2.393,-1.624 -0.514,-0.684 -0.999,-1.538 -1.453,-2.563 l -18.97,-53.833 h -91.943 l -18.115,53.149 c -0.342,1.025 -0.798,1.909 -1.367,2.648 -0.571,0.743 -1.396,1.367 -2.478,1.881 -1.084,0.512 -2.622,0.881 -4.614,1.11 -1.995,0.227 -4.587,0.342 -7.776,0.342 -3.306,0 -6.011,-0.145 -8.118,-0.427 -2.109,-0.286 -3.589,-0.825 -4.443,-1.624 -0.854,-0.796 -1.255,-1.966 -1.196,-3.503 0.056,-1.539 0.54,-3.56 1.453,-6.067 l 74.17,-205.42 c 0.454,-1.252 1.052,-2.278 1.795,-3.076 0.739,-0.796 1.82,-1.423 3.246,-1.88 1.424,-0.454 3.248,-0.769 5.469,-0.94 2.223,-0.171 5.042,-0.256 8.46,-0.256 3.645,0 6.665,0.085 9.058,0.256 2.393,0.171 4.328,0.486 5.811,0.94 1.479,0.457 2.619,1.111 3.418,1.965 0.796,0.854 1.423,1.909 1.88,3.162 z m -95.19,-181.323 h -0.171 l -38.11,110.229 h 76.904 z"
   id="path10" />
		<path
   fill="#212121"
   d="m 846.314,732.501 c 0,4.443 -0.513,7.52 -1.538,9.229 -1.025,1.709 -2.508,2.563 -4.443,2.563 h -71.436 c -2.051,0 -3.589,-0.881 -4.614,-2.649 -1.025,-1.765 -1.538,-4.812 -1.538,-9.143 0,-4.329 0.513,-7.349 1.538,-9.058 1.025,-1.709 2.563,-2.563 4.614,-2.563 h 71.436 c 0.91,0 1.735,0.171 2.478,0.513 0.74,0.342 1.367,0.999 1.881,1.965 0.512,0.969 0.91,2.195 1.195,3.674 0.283,1.482 0.427,3.306 0.427,5.469 z"
   id="path12" />
		<path
   fill="#212121"
   d="m 1014.649,806.5 c 0,2.166 -0.115,4.017 -0.342,5.554 -0.229,1.539 -0.599,2.82 -1.11,3.846 -0.514,1.025 -1.141,1.768 -1.881,2.222 -0.742,0.457 -1.623,0.684 -2.648,0.684 H 878.102 c -2.964,0 -5.356,-0.91 -7.178,-2.734 -1.824,-1.821 -2.734,-4.727 -2.734,-8.716 v -6.323 c 0,-1.479 0.086,-2.847 0.256,-4.102 0.172,-1.252 0.54,-2.59 1.111,-4.017 0.568,-1.423 1.367,-3.017 2.393,-4.785 1.025,-1.765 2.277,-3.845 3.76,-6.237 L 977.736,622.273 h -100.83 c -1.141,0 -2.109,-0.227 -2.905,-0.684 -0.799,-0.454 -1.453,-1.167 -1.965,-2.136 -0.514,-0.967 -0.885,-2.222 -1.111,-3.76 -0.229,-1.538 -0.342,-3.333 -0.342,-5.383 0,-2.278 0.112,-4.214 0.342,-5.811 0.227,-1.594 0.598,-2.905 1.111,-3.931 0.512,-1.025 1.166,-1.765 1.965,-2.222 0.796,-0.454 1.765,-0.684 2.905,-0.684 h 123.047 c 3.076,0 5.495,0.884 7.263,2.649 1.766,1.768 2.649,4.473 2.649,8.118 v 6.665 c 0,1.824 -0.115,3.447 -0.342,4.871 -0.229,1.426 -0.628,2.878 -1.196,4.358 -0.571,1.482 -1.341,3.076 -2.307,4.785 -0.97,1.709 -2.252,3.704 -3.846,5.981 L 900.66,794.024 h 108.008 c 1.936,0 3.418,0.97 4.443,2.905 1.026,1.939 1.538,5.128 1.538,9.571 z"
   id="path14" />
	</g>
	<polygon
   fill="#af2e38"
   points="1106,369.684 1106,145 908,145 908,369.684 1007,274.543 "
   id="polygon18" />
	<path
   fill="#603813"
   d="M 1199,1519 H 349.858 c -59.009,0 -109.762,-13.501 -146.772,-39.044 C 165.306,1453.883 144.5,1416.964 144.5,1376 c 0,-40.964 20.806,-77.883 58.585,-103.956 C 240.095,1246.501 290.849,1233 349.857,1233 H 1199 v 49 H 349.858 c -49.021,0 -90.15,10.503 -118.94,30.372 -24.479,16.895 -37.418,38.896 -37.418,63.628 0,24.732 12.939,46.733 37.418,63.628 28.79,19.869 69.919,30.372 118.94,30.372 H 1199 Z"
   id="path20" />
	<path
   fill="#201c1e"
   d="m 349.858,341 c -59.009,0 -109.762,13.501 -146.772,39.044 -34.415,23.751 -54.737,56.504 -58.085,93.115 v 66 c 3.348,-36.61 23.67,-69.363 58.085,-93.115 C 240.096,420.501 290.849,407 349.858,407 H 350 v -66 z"
   id="path22" />
	<path
   fill="#201c1e"
   d="m 349.858,911 c -59.009,0 -109.762,13.501 -146.772,39.044 -34.415,23.751 -54.737,56.505 -58.085,93.114 v 66 c 3.348,-36.609 23.67,-69.363 58.085,-93.114 C 240.096,990.501 290.849,977 349.858,977 H 350 v -66 z"
   id="path24" />
	<path
   fill="#201c1e"
   d="m 349.858,625 c -59.009,0 -109.762,13.501 -146.772,39.044 -34.415,23.751 -54.737,56.505 -58.085,93.114 v 66 c 3.348,-36.609 23.67,-69.363 58.085,-93.114 C 240.096,704.501 290.849,691 349.858,691 H 350 v -66 z"
   id="path26" />
	<rect
   x="350"
   y="145"
   fill="#603813"
   width="17"
   height="1088"
   id="rect28" />
</g>
</svg>
