<?xml version="1.0" encoding="UTF-8" standalone="no"?>
<svg
   xmlns:dc="http://purl.org/dc/elements/1.1/"
   xmlns:cc="http://creativecommons.org/ns#"
   xmlns:rdf="http://www.w3.org/1999/02/22-rdf-syntax-ns#"
   xmlns:svg="http://www.w3.org/2000/svg"
   xmlns="http://www.w3.org/2000/svg"
   xmlns:sodipodi="http://sodipodi.sourceforge.net/DTD/sodipodi-0.dtd"
   xmlns:inkscape="http://www.inkscape.org/namespaces/inkscape"
   id="Layer_1"
   space="preserve"
   viewBox="0 0 473.79099 245.99775"
   version="1.1"
   sodipodi:docname="dinosaur.svg"
   width="125.35719mm"
   height="65.086906mm"
   inkscape:version="1.0.2-2 (e86c870879, 2021-01-15)">
  <defs
     id="defs232" />
  <sodipodi:namedview
     pagecolor="#ffffff"
     bordercolor="#666666"
     borderopacity="1"
     objecttolerance="10"
     gridtolerance="10"
     guidetolerance="10"
     inkscape:pageopacity="0"
     inkscape:pageshadow="2"
     inkscape:window-width="1920"
     inkscape:window-height="1017"
     id="namedview230"
     showgrid="false"
     units="mm"
     inkscape:zoom="0.93819108"
     inkscape:cx="-80.031019"
     inkscape:cy="126.67378"
     inkscape:window-x="-8"
     inkscape:window-y="-8"
     inkscape:window-maximized="1"
     inkscape:current-layer="Layer_1" />
  <path
     id="path3"
     d="m 181.96158,221.47822 c -60.88137,0 -121.201358,3.38362 -181.96158,7.17335 60.772166,2.03222 121.66377,12.23258 182.42229,16.02231 61.26017,3.82045 122.87526,-1.42648 183.97504,-5.63425 27.8522,-1.91961 55.98424,-3.21129 83.89616,-3.21129 7.49926,0 36.70287,-0.36174 16.49496,-5.40561 -14.88931,-3.71636 -29.0688,0.61939 -44.15776,0.61939 -58.38162,0 -116.33495,-5.22645 -174.62442,-7.86953 -22.0968,-0.98966 -43.95471,-1.68925 -66.05151,-1.68925"
     fill-rule="evenodd"
     clip-rule="evenodd"
     fill="#e6e6e6"
     style="stroke-width:1.70632" />
  <path
     id="path5"
     d="m 160.41251,223.86706 c -2.95022,4.7282 -8.14595,-2.49463 -11.97492,-7.17335 2.64649,1.77456 4.95002,4.94149 7.18529,7.17335 -6.79625,5.57624 -14.57023,-1.2968 -21.54736,-4.7828 5.77588,2.88538 12.02441,5.17867 16.75603,9.5639 h -16.75603 c 4.48079,0.21158 7.59823,1.27974 11.96981,2.39055 -4.76574,2.26428 -10.73444,5.32712 -16.75773,4.78622 h 35.91284 c -2.4588,-3.48089 -4.10028,-7.38835 -4.78793,-11.94422"
     fill-rule="evenodd"
     clip-rule="evenodd"
     fill="#d8d0b8"
     style="stroke-width:1.70632" />
  <path
     id="path7"
     d="m 335.1888,176.03901 c -2.539,1.63295 -4.19071,3.83239 -9.57755,0 3.13962,0 6.43281,-0.29007 9.57243,0"
     fill-rule="evenodd"
     stroke-miterlimit="10"
     clip-rule="evenodd"
     stroke-width="0"
     fill="#bfbfbf" />
  <path
     id="path9"
     d="m 172.37209,231.05065 c 3.47235,1.40089 6.28265,-1.32922 4.78792,4.78622 -1.74044,-1.75751 -3.22494,-2.71304 -4.79475,-4.79475"
     fill-rule="evenodd"
     stroke-miterlimit="10"
     clip-rule="evenodd"
     stroke-width="0"
     fill="#bfbfbf" />
  <path
     id="path11"
     d="m 311.24918,128.21608 c -1.31898,1.47767 -3.51672,0.55455 -2.39226,4.7828 -0.37539,-2.52876 0.81904,-3.03894 2.38885,-4.7828"
     fill-rule="evenodd"
     stroke-miterlimit="10"
     clip-rule="evenodd"
     stroke-width="0"
     fill="#7fcc66" />
  <path
     id="path13"
     d="m 308.84327,132.99888 c -1.80357,-1.47084 -4.09686,-0.62451 -4.78792,-4.7828 1.58687,1.56469 3.08843,3.38192 4.79475,4.7828"
     fill-rule="evenodd"
     stroke-miterlimit="10"
     clip-rule="evenodd"
     stroke-width="0"
     fill="#bfbfbf" />
  <path
     id="path15"
     d="m 311.24918,130.60663 c -1.91961,1.41454 -2.13119,2.783 -4.78792,2.39055 5.85266,-0.11603 5.28958,-3.08332 4.79475,-2.39055"
     fill-rule="evenodd"
     stroke-miterlimit="10"
     clip-rule="evenodd"
     stroke-width="0"
     fill="#7fcc66" />
  <path
     id="path17"
     d="m 344.76123,128.21608 c -0.97089,2.45368 -0.96577,4.15147 -4.78792,4.7828 -1.00843,-1.00502 -3.77437,-3.77266 -4.78963,-4.7828 3.12256,0 6.50107,-0.37368 9.5895,0"
     fill-rule="evenodd"
     stroke-miterlimit="10"
     clip-rule="evenodd"
     stroke-width="0"
     fill="#98e57f" />
  <path
     id="path19"
     d="m 335.1888,128.21608 c 0.24912,-1.49473 0,-3.26418 0,-4.78281 1.19442,4.57635 -0.0512,5.05411 0,4.78281"
     fill-rule="evenodd"
     stroke-miterlimit="10"
     clip-rule="evenodd"
     stroke-width="0"
     fill="#bfbfbf" />
  <path
     id="path21"
     d="m 311.24918,101.9098 c 0.46753,15.32272 1.43672,20.54746 -4.78792,33.48305 9.03153,-3.07308 9.71064,-8.78924 11.97151,-16.74238 3.5918,-12.64722 3.9962,-25.949661 11.97322,-38.264147 -13.30926,1.916193 -14.24774,11.073994 -19.16193,21.523477"
     fill-rule="evenodd"
     stroke-miterlimit="10"
     clip-rule="evenodd"
     stroke-width="0"
     fill="#7fcc66" />
  <path
     id="path23"
     d="m 339.96649,128.21608 v -4.78281 4.78281"
     fill-rule="evenodd"
     stroke-miterlimit="10"
     clip-rule="evenodd"
     stroke-width="0"
     fill="#bfbfbf" />
  <path
     id="path25"
     d="M 253.78044,42.12559 C 234.43935,39.938092 210.66012,50.524079 191.53573,54.083455 168.84001,58.308295 146.78416,56.956892 124.49967,51.6912 104.21839,46.898157 83.682877,34.936878 63.225849,32.382523 50.925014,30.846838 8.1237725,26.710727 2.393962,37.344491 c 38.462079,0 75.151295,2.46904 108.936358,22.717897 16.07862,9.635569 34.58704,13.053321 49.0839,23.915731 10.44778,7.830286 36.49299,9.099786 43.09473,20.327351 2.31035,3.92964 -1.14153,35.87189 -3.5918,35.87189 -8.94963,0 -17.73716,36.5237 -25.67153,41.80475 -10.42559,6.9413 -27.59284,60.15277 0.53408,53.85476 -8.56742,-18.38556 -10.22596,-17.92997 4.78792,-35.8753 9.13903,-10.92555 18.69611,-24.6887 28.73096,-38.25903 4.84252,-6.54884 16.76114,-21.90228 16.76114,-27.50411 0,-5.01658 16.73556,-22.72131 20.34783,-21.52007 5.40561,1.79846 20.56794,1.35482 22.7452,5.97723 3.33584,7.07951 -10.62182,34.51878 -15.56332,39.46027 -18.0477,18.04259 14.83472,10.76003 21.54907,10.76003 18.64663,0 35.35488,-12.66598 49.08049,-4.7828 3.02701,1.74044 10.42047,10.86582 9.57755,16.74067 h 2.39397 c 0,-12.37079 -0.49484,-19.41276 -11.97323,-23.91403 -7.8883,-3.09355 -46.01423,6.58468 -50.27661,-2.39054 -1.25073,-2.63456 12.70523,-20.2335 15.51554,-24.4464 8.58447,-12.86904 10.32321,-15.68787 1.24219,-23.38336 7.23649,-3.43311 13.66248,-8.540115 19.15682,-14.348416 -2.56801,14.167546 4.91248,16.513736 16.75773,19.134636 6.47377,1.4333 20.48262,0.58014 19.15511,9.56219 -0.74395,5.03023 -4.44154,7.62895 -9.57585,7.17336 v 2.39055 c 2.12778,-0.56479 11.96981,-2.63455 11.96981,-3.58839 0,-0.80708 9.97342,-13.15058 3.59009,-13.15058 -5.55235,0 -29.92708,-16.131513 -29.92708,-17.936795 0,-15.628153 22.36298,-15.59232 27.53483,-31.089086 5.68715,-17.05122 28.89305,-27.562129 44.29085,-29.892957 11.47498,-1.73703 22.73496,-4.784512 34.71672,-4.784512 4.27091,0 17.03927,-8.381426 25.13916,-9.56561 6.07107,-0.88899 17.10752,2.721575 19.1551,-2.390549 2.75229,-6.878161 -5.8356,-7.212599 -9.57755,-9.5656097 C 454.12929,3.6447416 426.5774,-4.6820826 421.38167,3.8665627 403.67864,-3.670237 372.38991,22.569497 354.49406,28.527954 c -16.08032,5.354421 -30.61814,13.602755 -47.23425,13.602755 -17.831,0.01194 -35.64495,0.01194 -53.47595,0.01194"
     fill-rule="evenodd"
     clip-rule="evenodd"
     stroke-miterlimit="10"
     stroke-width="0"
     fill="#87e169" />
  <path
     id="path27"
     d="m 248.98569,97.126993 c 11.47328,-3.39045 55.41604,-1.385528 59.85588,-11.954452 2.08853,10.2925 -13.1557,18.358259 -21.54907,21.520059 21.19074,11.54665 -12.98166,49.00882 -16.75774,26.30458 -2.87514,2.33936 -5.27934,2.90074 -7.18188,7.17677 1.18759,-6.17858 7.07439,-19.05785 2.39396,-23.91574 -3.12597,-3.24541 -19.41959,-3.66175 -23.94303,-4.78109 3.19081,-2.99288 7.98556,-8.18691 7.18359,-14.350127"
     fill-rule="evenodd"
     clip-rule="evenodd"
     fill="#57b639"
     style="stroke-width:1.70632" />
  <path
     id="path29"
     d="m 4.7879239,37.342785 c -6.8918121,-3.80338 6.4191621,-4.784512 10.6883661,-4.784512 10.097981,0 20.032155,-2.390549 30.014106,-2.390549 21.255584,0 40.093317,10.609876 59.855874,16.742377 41.87471,12.9936 74.35103,6.809909 116.20356,0.841214 19.13805,-2.730106 35.36682,-5.624019 54.98093,-5.624019 10.73444,0 21.60879,0.513601 32.32105,0 11.2668,-0.539196 15.88068,-3.694175 26.33699,-7.175061 20.9621,-6.98054 66.50027,-39.4705113 86.18946,-31.0873786 6.28777,-10.3419839 46.22069,2.2881703 50.28002,11.9561596 -14.12659,1.47767 -25.8541,-4.782805 -39.50293,-4.782805 -5.72128,0 -19.25066,12.454403 -27.53483,14.348414 -19.09197,4.366464 -30.88774,2.810304 -47.88436,15.544543 -9.80278,7.343986 -22.3681,13.986676 -26.33358,25.110153 -4.87836,-5.291288 -14.46785,-4.3221 -21.54907,-2.392256 -1.80357,0.491419 -5.99258,3.673699 -9.57585,4.784511 -5.10359,1.581756 -5.49263,-0.535783 -7.18188,4.784512 -9.97854,-5.798064 -32.89266,10.096274 -38.31022,16.74067 0.24742,-1.504971 -0.40951,-3.317079 0,-4.781099 0.24401,13.797275 -19.75232,46.420341 -35.91113,43.043541 2.02539,-2.69939 9.66628,-9.482 5.98575,-13.15058 -6.44817,-6.43452 -2.9195,-17.967515 1.19954,-22.719606 -4.36134,-2.827367 -3.69246,-11.352123 -9.57926,-11.957866 -6.40551,-0.658638 -9.93588,12.913403 -11.96981,16.740671 -2.17896,-7.946316 -11.30946,-6.204167 -16.76114,-7.173355 C 179.21441,88.622712 163.3525,83.326306 156.82413,76.808177 151.24277,71.231935 135.05324,65.092609 126.80832,63.033085 112.22102,59.391806 100.01574,50.203292 86.196281,44.522964 57.949919,32.914894 33.619553,37.661866 4.7640355,37.342785"
     fill-rule="evenodd"
     clip-rule="evenodd"
     fill="#009919"
     style="stroke-width:1.70632" />
  <path
     id="path31"
     d="m 246.59685,44.516139 c 37.02707,0 72.25056,6.93447 105.34286,-11.957866"
     stroke="#009919"
     stroke-linecap="square"
     stroke-miterlimit="10"
     stroke-width="1.27667"
     fill="none" />
  <path
     id="path33"
     d="m 248.98569,44.516139 c 36.38379,0 70.3975,6.627333 102.95061,-11.957866"
     stroke="#0a9e23"
     stroke-linecap="square"
     stroke-miterlimit="10"
     stroke-width="1.27667"
     fill="none" />
  <path
     id="path35"
     d="m 248.98569,44.516139 c 37.34103,0 68.63999,5.182083 102.95061,-11.957866"
     stroke="#14a32d"
     stroke-linecap="square"
     stroke-miterlimit="10"
     stroke-width="1.27667"
     fill="none" />
  <path
     id="path37"
     d="m 248.98569,44.516139 c 36.01011,0 68.27826,6.470352 100.55664,-11.957866"
     stroke="#1ea838"
     stroke-linecap="square"
     stroke-miterlimit="10"
     stroke-width="1.27667"
     fill="none" />
  <path
     id="path39"
     d="m 248.98569,44.516139 c 35.6313,0 66.1556,6.315077 98.16098,-11.957866"
     stroke="#28ad42"
     stroke-linecap="square"
     stroke-miterlimit="10"
     stroke-width="1.27667"
     fill="none" />
  <path
     id="path41"
     d="m 251.3916,44.516139 c 34.98461,0 64.29742,6.00794 95.76701,-11.957866"
     stroke="#32b24c"
     stroke-linecap="square"
     stroke-miterlimit="10"
     stroke-width="1.27667"
     fill="none" />
  <path
     id="path43"
     d="m 268.14763,80.388029 c 0.92823,-1.9452 -0.17063,-3.242001 2.39396,-4.782805 -2.47757,2.204561 -4.96026,4.71114 -7.18189,7.173355 1.55787,-3.47918 1.28657,-4.383527 2.39397,-9.563904 -0.47265,5.260574 -1.51009,5.376603 -4.78793,9.563904 -0.0102,-2.308647 -0.32079,-4.890303 0,-7.173355 -2.20797,4.789631 -3.89893,9.449581 -7.187,14.350121 6.14274,-0.51872 8.66808,-5.214503 14.38424,-9.567316"
     fill-rule="evenodd"
     clip-rule="evenodd"
     fill="#007200"
     style="stroke-width:1.70632" />
  <path
     id="path45"
     d="m 227.45198,128.21608 c -2.90586,-0.56479 -3.79826,-4.79646 -4.79134,0 -0.79855,-0.79856 -1.59711,-1.59541 -2.39396,-2.39226 9.57756,-6.66487 6.0233,-17.32593 4.79304,-31.087376 -0.50336,-5.629138 -0.60403,-10.164527 -7.18529,-16.74067 -6.73313,-6.724593 -13.21201,9.277242 -14.36378,14.348415 -3.32049,-2.784709 -6.36285,-3.598622 -9.57584,-7.171648 -1.44867,3.532075 -3.04919,2.759113 -4.78963,4.781098 C 186.86213,81.657529 151.31273,69.99315 138.86515,63.645652 119.68103,53.861634 95.180037,43.770479 74.402222,38.58157 51.732102,32.921719 32.554811,34.950529 9.5809668,34.950529"
     stroke-width="0"
     stroke-miterlimit="10"
     fill="none" />
  <path
     id="path47"
     d="m 471.65999,15.819309 c -13.41677,1.276325 -23.72292,-4.782805 -35.91284,-4.782805 -7.33546,0 -21.35455,7.838818 -29.26162,13.107923 -5.26399,3.50648 -15.74419,1.143232 -22.21454,2.43662 -9.76183,1.95032 -16.55468,7.669892 -25.22789,12.00223 -14.21873,7.103395 -21.5576,16.825986 -28.63881,27.458044 -3.41263,-4.221427 -8.29782,-6.617095 -14.36719,-3.588384 -8.25686,4.122461 -12.53289,3.383626 -21.54565,5.978933 -12.55679,3.617391 -34.70648,12.271828 -40.70418,21.523475 0,-1.293387 -0.44023,-3.578145 0,-4.781098"
     stroke-width="0"
     stroke-miterlimit="10"
     fill="none" />
  <path
     id="path49"
     d="m 471.65999,15.819309 c -26.5281,2.523642 -39.30159,-8.9103841 -61.71747,6.021591 -15.13161,10.079211 -37.37857,2.083412 -52.67399,17.360063 -9.8079,9.799376 -21.69069,16.639998 -26.86424,26.838651 -4.91078,-5.325413 -12.74277,-4.40059 -19.15511,-1.196127 -3.73854,1.868416 -15.81755,2.646496 -17.95557,4.782805 -8.00774,7.995798 -30.6335,9.446167 -39.50634,20.329053 0,-1.399179 -0.37539,-3.443346 0,-4.781098"
     stroke-width="0"
     stroke-miterlimit="10"
     fill="none" />
  <path
     id="path51"
     d="m 471.65999,15.819309 c -12.39468,1.143232 -24.12902,-4.782805 -35.91284,-4.782805 -8.26028,0 -17.40102,9.780606 -27.53483,13.152287 -9.43423,3.141329 -18.35655,1.354816 -28.05526,5.22986 -9.94612,3.974011 -13.9952,5.629138 -22.88853,11.553469 -11.103,7.396881 -21.95517,15.389268 -26.86424,25.065788 -10.60305,-7.403707 -25.62034,2.337654 -35.91284,4.781099 -11.8845,2.822247 -32.35006,8.886496 -40.70418,19.132926 0,-1.39918 -0.37539,-3.443347 0,-4.781099"
     stroke-width="0"
     stroke-miterlimit="10"
     fill="none" />
  <path
     id="path53"
     d="m 471.65999,15.819309 c -8.90356,0.791731 -23.42431,0.25936 -31.12321,-3.586677 -7.71426,-3.8528623 -18.67734,5.736636 -26.3387,9.56561 -16.37382,8.1852 -40.09673,2.986054 -53.20466,16.075207 -9.43593,9.422279 -27.68839,16.87547 -30.59084,30.558421 -5.38172,-7.896832 -21.55419,-7.01296 -23.94303,2.390549 -10.10139,-8.456504 -45.46821,18.363378 -47.88265,14.351828 -1.48108,2.078293 -4.17877,2.607251 -4.79304,7.171648 0,-2.353011 -0.22524,-4.830582 0,-7.171648"
     stroke-width="0"
     stroke-miterlimit="10"
     fill="none" />
  <path
     id="path55"
     d="m 471.65999,15.819309 c -8.62884,0 -19.94343,0.540903 -26.3387,0 -3.52013,-0.298605 -8.28246,-2.390549 -13.16594,-2.390549 -5.10359,0 -2.53559,4.782805 -7.18359,4.782805 -6.65293,0 -7.87465,5.240098 -13.16935,7.17506 -8.04358,2.939984 -15.30737,1.143232 -23.4192,2.764233 -18.62785,3.721476 -26.69532,9.471763 -41.2246,21.149792 -8.36607,6.724593 -12.84003,14.469564 -19.1517,16.740671 -1.66365,0.598917 -7.48561,-3.438228 -11.97322,-1.196128 -7.22454,3.610565 -7.57946,3.588383 -13.16764,3.588383 -11.75311,0 -44.07586,12.785429 -49.0839,23.914025 0,-1.295094 -0.44023,-3.578145 0,-4.781099"
     stroke-width="0"
     stroke-miterlimit="10"
     fill="none" />
  <path
     id="path57"
     d="m 471.65999,15.819309 h -28.73096 c -11.20538,0 -11.11494,-0.675701 -21.54907,4.781099 -13.71366,7.17506 -30.68298,4.607054 -44.96485,10.312976 -9.35914,3.740246 -14.40302,9.290893 -22.60528,14.754519 -3.64469,2.428088 -11.60466,13.194944 -15.02923,13.194944 -5.65815,0 -1.96056,8.446267 -5.98576,9.56561 -3.93477,1.095456 -8.18179,-4.637768 -7.18359,-4.784511 -9.69871,1.423068 -16.85329,7.175061 -26.33529,7.175061 -12.80591,0 -22.40394,9.20899 -33.51888,14.351827 -6.40551,2.963872 -10.78051,2.491222 -14.36719,7.171648 2.49805,-1.498146 1.6466,-2.716456 2.39226,-4.781098"
     stroke-width="0"
     stroke-miterlimit="10"
     fill="none" />
  <path
     id="path59"
     d="m 471.65999,15.819309 c -7.18189,0 -36.47934,-4.216308 -39.50293,-1.196128 -11.20197,11.19173 -35.37877,15.542837 -52,15.542837 -16.31921,0 -34.02053,22.35957 -44.96655,31.089085 -4.11735,3.284659 -2.09707,12.259884 -10.77539,3.586677 -3.06796,-3.06625 -16.67071,5.194027 -17.95386,8.371189 -4.92614,-4.129286 -16.33457,-0.964069 -19.15511,0 -10.90336,3.730007 -18.88381,11.277045 -28.72755,16.74067 V 87.56309 c -2.51852,2.747169 -4.66677,3.250533 -7.18529,4.781099 2.5134,-1.506678 1.61247,-2.733519 2.39225,-4.781099"
     stroke-width="0"
     stroke-miterlimit="10"
     fill="none" />
  <path
     id="path61"
     d="m 469.25408,15.819309 c -10.00243,0 -21.28459,-1.624413 -31.12321,0 -11.03987,1.82064 -15.26641,5.557473 -26.3387,9.56561 -17.77811,6.436226 -35.94867,5.656439 -52.67228,16.740671 -13.52597,8.96328 -19.36669,18.742179 -28.72755,28.695123 -4.64118,-6.62392 -19.10391,-5.902148 -23.94303,2.393962 -18.69781,-11.299227 -36.01522,19.129514 -53.87011,19.129514 -2.75912,0 0.50677,-1.388942 1.19612,-2.39055"
     stroke-width="0"
     stroke-miterlimit="10"
     fill="none" />
  <path
     id="path63"
     d="m 227.45198,128.21608 c -2.36325,0.18087 -4.81352,0 -7.1853,0 6.53178,-6.12056 6.42087,-22.59675 4.79304,-33.479636 -0.75589,-5.052403 -1.99297,-12.950942 -7.18529,-15.542836 -9.98195,-4.984151 -10.9665,9.831795 -14.36378,15.542836 -3.70953,-4.830582 -5.4841,-4.85447 -9.57584,-7.173354 4.67018,2.646497 -11.59784,-2.390549 -8.38143,-2.390549 -8.60154,0 -14.90467,-4.513207 -25.13575,-9.567317 C 139.74902,65.39292 117.48842,57.124111 95.773835,46.908395 69.027325,34.324311 41.364523,34.950529 11.974929,34.950529"
     stroke-width="0"
     stroke-miterlimit="10"
     fill="none" />
  <path
     id="path65"
     d="m 227.45198,128.21608 c -10.02802,0.36003 -4.4842,-2.32571 -4.79134,-4.78281 -0.60403,-4.84081 0,-16.82257 0,-22.71789 0,-4.308452 2.39738,-5.349305 2.39738,-9.563907 0,-1.177358 -4.79304,-2.242099 -4.79304,-8.369482 0,-5.422673 -11.96981,-1.363347 -11.96981,1.196128 0,4.572928 -4.17024,8.422378 -4.78793,13.152287 -1.21148,-3.178867 -2.73181,-4.159999 -4.78963,-7.173354 v 2.390549 c -5.19914,-2.076587 -9.82326,-1.945201 -11.97322,-7.171648 v 2.390549 C 178.5353,83.281942 172.71676,82.172836 165.19873,78.000893 154.26636,71.933231 142.78627,65.280304 129.28589,61.260222 109.35441,55.323947 90.711194,45.316401 70.849671,37.876862 54.612364,31.79555 31.525902,34.953942 14.365478,34.953942"
     stroke-width="0"
     stroke-miterlimit="10"
     fill="none" />
  <path
     id="path67"
     d="m 227.45198,128.21608 c -1.71997,0.72518 -3.14474,-0.68423 -2.39226,2.39055 -1.78651,-0.38392 -4.90566,-1.77798 -7.18529,-2.39055 3.43481,-6.60003 4.78792,-9.85739 4.78792,-15.54113 0,-9.71747 -2.98605,-12.265 2.39737,-20.329055 -8.91038,-2.486103 -0.28836,-11.393075 -9.57926,-11.957866 -8.65955,-0.527252 -8.68685,11.360655 -11.96981,16.740671 -2.54582,-4.047383 -4.83228,-5.653027 -9.57584,-7.173355 -1.06474,1.105694 -15.72542,-2.23698 -21.54907,-4.781098 -1.52204,-0.665464 -5.08141,-3.675406 -7.18189,-4.786218 -4.57805,-2.41785 -0.74737,-4.782805 -7.18189,-4.782805 -2.08511,0 -6.87474,-2.079999 -8.38313,-3.588383 -7.17506,-7.173354 -21.2061,-8.712452 -30.44921,-12.406627 C 108.68553,55.414382 99.25472,48.722209 88.590243,44.514433 65.483306,35.39929 43.741422,34.948823 19.158521,34.948823"
     stroke-width="0"
     stroke-miterlimit="10"
     fill="none" />
  <path
     id="path69"
     d="m 227.45198,128.21608 c -4.12929,0.97431 -4.9449,-0.33444 -7.1853,2.39055 -1.59711,-0.79685 -3.19081,-1.59541 -4.78792,-2.39055 12.41516,-7.55728 4.2965,-50.69125 -1.86159,-46.587559 -5.95334,3.967186 -2.77106,12.950942 -7.71426,15.498472 -3.33414,1.718261 -4.70943,-4.782804 -8.37972,-4.782804 -9.39839,0 -9.64069,-4.374996 -15.56331,-7.171648 -8.076,-3.813618 -11.91009,0.05289 -17.95557,-5.98064 C 156.26958,71.469113 139.55109,67.488277 129.2893,63.645652 91.252096,49.409854 60.579352,34.950529 19.153402,34.950529"
     stroke-width="0"
     stroke-miterlimit="10"
     fill="none" />
  <path
     id="path71"
     d="m 225.06314,130.60663 c -3.15328,0.23718 -6.41746,0 -9.57926,0 v -2.39055 c 6.43964,-4.06445 5.73493,-20.32052 4.78792,-31.089087 -0.4607,-5.233272 -0.79856,-15.604263 -7.18189,-14.348414 -6.71947,1.320689 -4.35963,11.881081 -9.57414,16.74067 -2.53217,-12.81273 -25.70395,-5.260573 -33.52058,-16.74067 v 2.393962 C 157.61416,71.760893 132.64563,64.985111 115.45278,58.117187 83.285305,45.277156 58.446457,35.131399 23.929382,37.342785"
     stroke-width="0"
     stroke-miterlimit="10"
     fill="none" />
  <path
     id="path73"
     d="m 225.06314,130.60663 c -2.78471,2.73352 -6.71948,2.16531 -11.97493,0 6.45841,-9.25165 9.54001,-24.8252 7.18188,-35.870186 -4.79133,-22.441474 -9.84715,-0.967481 -16.75602,7.173356 -0.70301,-5.845842 -4.43131,-7.915604 -9.57585,-9.563905 C 190.29011,97.408536 151.81439,76.094937 143.56946,71.975889 104.45728,52.440272 68.795266,37.342785 23.941326,37.342785"
     stroke-width="0"
     stroke-miterlimit="10"
     fill="none" />
  <path
     id="path75"
     d="m 225.06314,132.99888 c -5.07629,1.00503 -10.58428,0.45559 -14.36889,-2.39054 16.62122,-8.62373 6.53689,-32.363709 4.78963,-45.434093 -7.24844,2.593601 -7.89342,10.742968 -9.57414,16.737263 -3.40411,-4.233376 -7.68355,-7.255263 -11.97152,-9.563909 -0.11603,1.556161 -0.0563,3.223232 0,4.782805 -4.09516,-3.550844 -5.6735,-3.329023 -7.1853,-7.173354 v 2.390549 C 144.96523,71.777957 85.233918,37.342785 28.727543,37.342785"
     stroke-width="0"
     stroke-miterlimit="10"
     fill="none" />
  <path
     id="path77"
     d="m 320.82162,51.689493 c 1.39406,1.045972 7.64259,8.07429 9.57926,7.175061 3.94159,-1.830878 2.30864,-11.778703 0,-14.348415 0.46923,3.093552 -0.19794,6.439638 0,9.56561 -2.19262,-2.491222 -5.23669,-4.494438 -7.1853,-7.175061 2.96558,2.888794 3.50307,4.612174 7.1853,7.175061 -3.95866,-0.298606 -6.19393,-1.143232 -9.57244,-2.392256"
     fill-rule="evenodd"
     clip-rule="evenodd"
     fill="#007200"
     style="stroke-width:1.70632" />
  <path
     id="path79"
     d="m 165.19873,80.388029 c 1.5118,1.433306 3.7539,0.221821 2.39226,4.786218 1.10569,-4.161706 -0.87705,-3.351206 -2.39226,-4.786218"
     fill-rule="evenodd"
     clip-rule="evenodd"
     fill="#7fd866"
     style="stroke-width:1.70632" />
  <path
     id="path81"
     d="m 169.98666,80.388029 c 0.94871,2.419557 1.56469,4.69237 2.39396,7.176767 0.0683,-2.8905 -1.24561,-4.549039 -2.38543,-7.176767"
     fill-rule="evenodd"
     clip-rule="evenodd"
     fill="#7fd866"
     style="stroke-width:1.70632" />
  <path
     id="path83"
     d="m 172.37209,82.778579 c 1.42306,2.475865 1.60052,5.142837 4.78792,7.176766 -0.39245,-4.376701 -2.71304,-5.472156 -4.79475,-7.176766"
     fill-rule="evenodd"
     clip-rule="evenodd"
     fill="#7fd866"
     style="stroke-width:1.70632" />
  <path
     id="path85"
     d="m 177.16684,85.172541 c 1.52032,2.28817 1.61246,5.147956 4.78963,7.171648 -0.78491,-3.141329 -2.84955,-5.18379 -4.79475,-7.171648"
     fill-rule="evenodd"
     clip-rule="evenodd"
     fill="#7fd866"
     style="stroke-width:1.70632" />
  <path
     id="path87"
     d="m 181.96158,85.172541 c 2.81543,4.620704 5.07459,9.637275 7.1836,11.954452 -3.03725,-2.80689 -1.68926,-9.696996 -7.1836,-11.954452"
     fill-rule="evenodd"
     clip-rule="evenodd"
     fill="#7fd866"
     style="stroke-width:1.70632" />
  <path
     id="path89"
     d="m 189.14518,89.955345 c 0.26789,4.832289 0.0119,8.311468 4.78963,9.563904 -1.8087,-2.257457 -7.76374,-12.35885 -4.79475,-9.563904"
     fill-rule="evenodd"
     clip-rule="evenodd"
     fill="#7fd866"
     style="stroke-width:1.70632" />
  <path
     id="path91"
     d="m 191.53402,89.955345 c 1.71997,4.598523 2.95363,9.893223 7.18189,11.954455 -2.6448,-3.772667 -5.15308,-9.691879 -7.1836,-11.954455"
     fill-rule="evenodd"
     clip-rule="evenodd"
     fill="#7fd866"
     style="stroke-width:1.70632" />
  <path
     id="path93"
     d="m 196.32877,89.955345 c 2.00151,4.774274 3.32732,9.978539 7.18188,14.348415 -4.79474,-4.354519 -4.72649,-11.469859 -7.18359,-14.348415"
     fill-rule="evenodd"
     clip-rule="evenodd"
     fill="#7fd866"
     style="stroke-width:1.70632" />
  <path
     id="path95"
     d="m 198.71761,89.955345 c 2.46051,4.378408 3.27954,8.947924 4.78963,14.348415 0.90435,-5.441443 -0.6484,-10.688366 -4.79475,-14.348415"
     fill-rule="evenodd"
     clip-rule="evenodd"
     fill="#7fd866"
     style="stroke-width:1.70632" />
  <path
     id="path97"
     d="m 198.71761,82.778579 c -0.23718,3.156685 0,6.398686 0,9.56561 h 2.39396 c 0,-3.728302 0.8105,-8.352419 0,-11.957866 0.8361,3.404101 -1.00672,1.301919 -2.38884,2.392256"
     fill-rule="evenodd"
     clip-rule="evenodd"
     fill="#007200"
     style="stroke-width:1.70632" />
  <path
     id="path99"
     d="m 193.92286,80.388029 c 0.89411,4.243609 2.4844,8.239802 4.78793,11.957866 -0.35833,-5.060935 -2.32059,-10.133813 -4.79475,-11.957866"
     fill-rule="evenodd"
     clip-rule="evenodd"
     fill="#007200"
     style="stroke-width:1.70632" />
  <path
     id="path101"
     d="m 191.53402,80.388029 c -0.25936,3.13621 0,6.410631 0,9.567316 h 2.39396 c -0.27301,-3.776078 -0.9726,-6.405511 -2.38884,-9.567316"
     fill-rule="evenodd"
     clip-rule="evenodd"
     fill="#007200"
     style="stroke-width:1.70632" />
  <path
     id="path103"
     d="m 186.73927,80.388029 c 0.0188,4.165119 -0.59209,6.497653 2.39567,9.567316 0.9726,-4.815224 -1.02379,-7.632353 -2.38884,-9.567316"
     fill-rule="evenodd"
     clip-rule="evenodd"
     fill="#007200"
     style="stroke-width:1.70632" />
  <path
     id="path105"
     d="m 181.96158,80.388029 c 1.04768,3.259065 -0.86851,4.753798 2.39397,7.176767 -0.8361,-2.527054 -1.51863,-4.665069 -2.38885,-7.176767"
     fill-rule="evenodd"
     clip-rule="evenodd"
     fill="#007200"
     style="stroke-width:1.70632" />
  <path
     id="path107"
     d="m 177.16684,80.388029 c 0.45558,2.190911 0,4.90566 0,7.176767 h 2.39396 c -1.79164,-5.676915 -2.06465,-7.314978 -2.38885,-7.176767"
     fill-rule="evenodd"
     clip-rule="evenodd"
     fill="#007200"
     style="stroke-width:1.70632" />
  <path
     id="path109"
     d="m 172.37209,77.99748 c 0.4863,3.985955 -1.54934,6.277538 2.39396,7.176767 -3.05431,-2.416144 -1.87695,-3.856275 -2.38885,-7.176767"
     fill-rule="evenodd"
     clip-rule="evenodd"
     fill="#007200"
     style="stroke-width:1.70632" />
  <path
     id="path111"
     d="m 167.59269,75.605224 c 0.95725,2.407613 1.56811,4.695783 2.39397,7.173355 -0.10409,-4.431304 -0.85999,-4.313568 -2.39397,-7.173355"
     fill-rule="evenodd"
     clip-rule="evenodd"
     fill="#007200"
     style="stroke-width:1.70632" />
  <path
     id="path113"
     d="m 165.19873,73.214675 c 0.4846,3.984249 -1.54763,6.275832 2.39226,7.173354 -3.06625,-2.414437 -1.89401,-3.854569 -2.39226,-7.173354"
     fill-rule="evenodd"
     clip-rule="evenodd"
     fill="#007200"
     style="stroke-width:1.70632" />
  <path
     id="path115"
     d="M 2.3922556,34.950529 C 36.313826,20.99798 73.212919,36.938388 105.34456,46.908395 c 36.0613,11.190023 68.95908,11.480097 105.34116,2.390549 5.93115,11.614896 24.59996,11.331647 14.36889,-2.390549 3.60032,2.499753 5.15819,6.903756 7.18188,11.956159 2.62261,-3.236882 3.457,-1.617588 4.78793,-4.781099 7.36275,6.060836 12.77348,0.126268 7.18188,-7.17506 1.01526,-2.95534 2.84443,0.803675 0,-4.782805 2.68233,3.016767 3.17716,9.855683 9.57414,9.563903 v 2.392256 c -1.47767,0.302018 -3.27612,-0.0546 -4.78792,0 v 2.390549 c 6.29119,0.868515 14.54464,-0.320787 16.76115,-4.782805 3.06795,1.72338 4.04397,1.288269 7.18188,2.392256 -0.918,-6.842329 -7.84564,-7.623822 -14.36377,-11.957866 11.15248,1.484496 15.25788,14.51734 26.33358,11.957866 -1.10569,-5.530172 -1.28656,-6.427694 -2.39225,-11.957866 h 2.39225 c -0.72689,6.862805 1.69437,17.585297 9.57926,19.13122 8.69368,1.70461 7.18189,-11.469859 7.18189,-19.13122 1.01184,2.523642 3.73,14.348415 5.98405,14.348415 7.72108,0 12.35202,-2.687448 3.59009,-4.782805 3.50136,-1.126169 5.62572,-1.617588 7.18359,-2.390549 -1.85647,8.021393 3.77608,9.294305 9.57755,4.784511 -2.91097,-4.347694 -2.10388,-7.671599 0,-11.957865 h 2.39397 c -0.46583,3.095258 0.24229,6.448169 0,9.563903 5.90556,-6.770663 15.13502,-9.412041 14.36377,-19.13122 0.59892,2.093651 1.68243,2.880263 2.39225,4.784512 4.82205,-5.543822 14.75623,-5.946513 11.97152,-11.957866 1.90596,1.045972 2.73523,-0.950418 2.39396,2.390549 6.40893,-1.648301 13.52427,-4.161705 19.15511,-7.17506 -1.73874,-1.760919 -2.58336,-3.366562 -4.78963,-4.781099 6.38162,3.96548 20.20449,4.811813 21.54907,-4.782805 4.22655,3.651517 8.00604,1.260968 4.78963,-4.7845109 1.24902,2.0100407 1.98615,0.4197538 2.39226,4.7845109 3.26589,-3.2624767 4.13099,-2.0970626 4.78963,-7.1750603 1.63977,10.6900723 6.81332,5.2964062 14.36377,4.7810987 -7.11534,0.1074979 -10.76174,6.3014266 -2.39396,7.1750606 -4.36135,-0.675701 -5.81342,-0.943593 -9.57585,-2.390549 -4.60535,3.521837 -5.76394,8.516225 -14.36377,11.956159 -4.83229,1.933256 -22.60699,-6.67511 -21.54907,4.782805 -4.23849,-3.857982 -15.16233,0.527252 -14.36548,9.56561 -8.52988,-6.349204 -12.72912,-0.76443 -14.36548,7.176767 v -2.392256 c -3.33585,5.627432 -17.70474,9.243116 -16.75603,19.129513 -2.71475,-9.313075 -18.96912,-3.987661 -21.54907,2.392256 -3.43993,-0.791731 -0.87534,0.09897 -2.39396,-2.392256 -5.27081,0.976013 -1.35993,3.424578 -4.78792,0 -4.54904,5.92945 -17.94021,4.622412 -26.3387,7.175061 0.44705,-0.136505 -10.65595,1.5937 -11.96981,2.393962 -3.92282,2.392256 -5.84755,7.941197 -9.57926,11.957866 -0.0102,-1.5937 0.0478,-3.192519 0,-4.786218 -2.1073,9.447874 -13.84335,21.475697 -11.96981,31.092497 0.2969,-1.53056 -0.34297,-3.26589 0,-4.78622 -3.15157,2.99118 -4.71114,8.37461 -7.18189,11.95787 h 2.39396 c -5.17696,1.52886 -4.12075,1.8104 -7.18188,4.7828 1.54251,-2.1619 1.73703,-0.41634 2.39396,-4.7828 -3.38704,3.22664 -3.98596,1.30192 -4.78963,7.17165 -1.15859,-3.3222 -1.66537,-5.70934 -2.39226,-7.17165 11.25487,-2.34789 5.15137,-14.7238 -4.79304,-14.34841 13.92695,4.7828 11.97493,-0.17234 11.97493,-14.348421 -2.16532,0.735423 -5.322,1.233667 -7.18189,2.39055 5.33054,-2.088532 8.52476,-19.129514 1.19613,-19.129514 -13.88771,0 -19.91442,6.110319 -22.7452,19.129514 -0.1894,-5.304938 0.14333,-7.704019 2.39396,-11.957866 -3.93647,2.48269 -4.84764,2.986054 -7.18359,7.176767 0.69959,-7.799573 -6.54031,-9.128793 -9.57585,-4.784511 -2.35301,-1.453782 -7.75691,-2.839311 -11.97322,-4.781099 -2.94169,4.712846 -7.65453,0.02901 -11.96981,-4.782805 C 162.40549,77.910458 126.47559,55.914333 115.43913,53.708066 97.376066,50.0975 82.428734,41.188822 64.549951,36.721685 51.305522,33.414844 28.940833,38.310266 19.149989,32.558273 16.042787,35.641587 7.8524682,37.266 2.4400325,34.950529"
     fill-rule="evenodd"
     clip-rule="evenodd"
     fill="#59d859"
     style="stroke-width:1.70632" />
  <path
     id="path117"
     d="m 105.34456,49.298944 c 17.38737,3.741952 32.45926,9.698702 50.31928,11.483509 17.4795,1.745562 33.37213,-7.557275 50.23566,-6.698998"
     stroke="#59d859"
     stroke-linecap="square"
     stroke-miterlimit="10"
     stroke-width="1.27667"
     fill="none" />
  <path
     id="path119"
     d="m 107.73853,51.689493 c 15.90286,4.166825 30.66421,7.175061 47.0875,7.175061 h 25.53674 c 8.06063,0 14.6436,-5.642789 23.14447,-4.781099"
     stroke="#5fdb5f"
     stroke-linecap="square"
     stroke-miterlimit="10"
     stroke-width="1.27667"
     fill="none" />
  <path
     id="path121"
     d="m 107.73853,51.689493 c 15.90286,4.166825 30.66421,7.175061 47.0875,7.175061 16.02232,0 31.0908,-4.598523 46.28725,-4.781099"
     stroke="#66dd66"
     stroke-linecap="square"
     stroke-miterlimit="10"
     stroke-width="1.27667"
     fill="none" />
  <path
     id="path123"
     d="m 107.73853,51.689493 c 15.90286,4.166825 30.66421,7.175061 47.0875,7.175061 15.09067,0 29.89467,-4.95173 43.89329,-4.781099"
     stroke="#6cdf6c"
     stroke-linecap="square"
     stroke-miterlimit="10"
     stroke-width="1.27667"
     fill="none" />
  <path
     id="path125"
     d="m 110.13249,51.689493 c 15.35173,3.837506 28.82992,7.175061 44.69184,7.175061 15.09066,0 29.89466,-4.95173 43.89328,-4.781099"
     stroke="#73e173"
     stroke-linecap="square"
     stroke-miterlimit="10"
     stroke-width="1.27667"
     fill="none" />
  <path
     id="path127"
     d="m 112.52474,51.689493 c 30.22911,10.731024 53.64659,2.059524 83.79891,2.392256"
     stroke="#79e379"
     stroke-linecap="square"
     stroke-miterlimit="10"
     stroke-width="1.27667"
     fill="none" />
  <path
     id="path129"
     d="m 112.52474,51.689493 c 20.77611,4.883478 62.55186,17.445379 81.40495,2.392256"
     stroke="#7fe57f"
     stroke-linecap="square"
     stroke-miterlimit="10"
     stroke-width="1.27667"
     fill="none" />
  <path
     id="path131"
     d="m 248.98569,73.214675 c 0.96749,8.637374 -2.09706,15.85168 -4.78792,23.912318"
     stroke="#59d859"
     stroke-linecap="square"
     stroke-miterlimit="10"
     stroke-width="3.83017"
     fill="none" />
  <path
     id="path133"
     d="m 248.98569,73.214675 c 0.96749,8.637374 -2.09706,15.85168 -4.78792,23.912318"
     stroke="#68df63"
     stroke-linecap="square"
     stroke-miterlimit="10"
     stroke-width="3.83017"
     fill="none" />
  <path
     id="path135"
     d="m 248.98569,73.214675 c 0.96749,8.637374 -2.09706,15.85168 -4.78792,23.912318"
     stroke="#77e56e"
     stroke-linecap="square"
     stroke-miterlimit="10"
     stroke-width="2.5535"
     fill="none" />
  <path
     id="path137"
     d="m 248.98569,73.214675 c 0.5392,7.202362 -0.4863,14.573649 -2.39225,21.521769"
     stroke="#85eb79"
     stroke-linecap="square"
     stroke-miterlimit="10"
     stroke-width="1.27667"
     fill="none" />
  <path
     id="path139"
     d="m 248.98569,73.214675 c 2.63968,6.190516 -1.21319,13.814338 -2.39225,21.521769"
     stroke="#94f283"
     stroke-linecap="square"
     stroke-miterlimit="10"
     stroke-width="1.27667"
     fill="none" />
  <path
     id="path141"
     d="m 248.98569,73.214675 c 2.62944,5.356127 -1.56469,11.954453 -2.39225,19.129514"
     stroke="#a3f88e"
     stroke-linecap="square"
     stroke-miterlimit="10"
     stroke-width="1.27667"
     fill="none" />
  <path
     id="path143"
     d="m 248.98569,75.605224 c 4.09004,3.642986 1.01014,10.287382 -2.39225,16.740671"
     stroke="#b2ff99"
     stroke-linecap="square"
     stroke-miterlimit="10"
     stroke-width="1.27667"
     fill="none" />
  <path
     id="path145"
     d="m 407.00766,15.819309 c -1.67731,-0.781493 -3.15839,0.735423 -2.39396,-2.390549 -5.8339,1.706316 -12.99872,3.03383 -14.36719,7.173354 6.29631,4.311862 16.94372,2.81201 16.75603,-4.782805"
     fill-rule="evenodd"
     clip-rule="evenodd"
     fill="#009919"
     style="stroke-width:1.70632" />
  <path
     id="path147"
     d="m 272.94238,70.820713 c -6.14786,7.589696 -8.72611,-18.315601 9.57584,-4.781099 -2.84954,1.419656 -6.6205,4.149762 -9.57243,4.781099"
     fill-rule="evenodd"
     clip-rule="evenodd"
     fill="#009919"
     style="stroke-width:1.70632" />
  <path
     id="path149"
     d="m 229.84082,89.955345 c 0.56479,-3.658342 2.88538,-5.533584 2.39397,-9.567316 4.93125,4.468843 7.55898,10.724199 -2.38885,9.567316"
     fill-rule="evenodd"
     clip-rule="evenodd"
     fill="#009919"
     style="stroke-width:1.70632" />
  <path
     id="path151"
     d="m 234.63557,89.955345 c -2.67891,2.443446 -3.87504,4.876653 0,9.563904 2.93487,-3.999606 1.79163,-5.784413 0,-9.563904"
     fill-rule="evenodd"
     clip-rule="evenodd"
     fill="#009919"
     style="stroke-width:1.70632" />
  <path
     id="path153"
     d="m 232.22967,106.69431 c -0.44023,1.88377 0.45046,3.08843 -2.39397,2.39226 0.79856,0.79855 1.59712,1.5954 2.39397,2.39225 0,-1.45037 -0.3242,-3.3768 0,-4.78451"
     fill-rule="evenodd"
     clip-rule="evenodd"
     fill="#009919"
     style="stroke-width:1.70632" />
  <path
     id="path155"
     d="m 232.22967,113.86937 c 0.26277,1.47938 0,3.27613 0,4.78281 1.87694,-3.55255 0.0512,-4.49785 0,-4.78281"
     fill-rule="evenodd"
     clip-rule="evenodd"
     fill="#009919"
     style="stroke-width:1.70632" />
  <path
     id="path157"
     d="m 234.63557,113.86937 c 0.33273,-1.40259 0,-3.33585 0,-4.7828 4.0781,2.47074 0.58015,2.2967 0,4.7828"
     fill-rule="evenodd"
     clip-rule="evenodd"
     fill="#009919"
     style="stroke-width:1.70632" />
  <path
     id="path159"
     d="m 234.63557,106.69431 c -1.00331,-2.7028 -2.45197,-4.23849 -2.39225,-7.175061 6.09155,1.051091 6.19393,3.907461 2.38884,7.175061"
     fill-rule="evenodd"
     clip-rule="evenodd"
     fill="#009919"
     style="stroke-width:1.70632" />
  <path
     id="path161"
     d="m 232.22967,80.388029 c -0.49825,-2.813716 -2.62261,-1.882067 0,-4.782805 0,1.508384 -0.25595,3.301723 0,4.782805"
     fill-rule="evenodd"
     clip-rule="evenodd"
     fill="#009919"
     style="stroke-width:1.70632" />
  <path
     id="path163"
     d="M 237.02442,77.99748 V 82.778579 77.99748"
     fill-rule="evenodd"
     clip-rule="evenodd"
     fill="#009919"
     style="stroke-width:1.70632" />
  <path
     id="path165"
     d="m 241.81916,101.9098 c -0.48971,2.93657 1.38383,4.8886 -2.39225,4.78451 3.80508,0.31908 1.89401,-1.85135 2.38884,-4.78451"
     fill-rule="evenodd"
     clip-rule="evenodd"
     fill="#009919"
     style="stroke-width:1.70632" />
  <path
     id="path167"
     d="m 258.57519,77.99748 c -1.28997,0.600623 -0.56479,3.513305 -4.79304,2.390549 V 77.99748 c 1.17736,0 3.7539,0.488006 4.79475,0"
     fill-rule="evenodd"
     clip-rule="evenodd"
     fill="#009919"
     style="stroke-width:1.70632" />
  <path
     id="path169"
     d="m 196.32877,80.388029 c 1.5408,-1.766037 2.76764,-2.238687 2.39225,-4.782805 1.38212,4.644594 -1.1091,3.318786 -2.38884,4.782805"
     fill-rule="evenodd"
     clip-rule="evenodd"
     fill="#009919"
     style="stroke-width:1.70632" />
  <path
     id="path171"
     d="m 445.31446,8.6442487 c 1.59711,-0.7968498 3.19252,-1.5936995 4.78963,-2.3905493 -4.82546,-4.5097944 -12.44416,-7.6289408 -14.36377,0"
     stroke-width="0"
     stroke-miterlimit="10"
     fill="none" />
  <path
     id="path173"
     d="M 445.31446,8.6442487 C 448.6213,1.9503693 437.80155,-1.9417384 435.74032,6.2536994"
     stroke-width="0"
     stroke-miterlimit="10"
     fill="none" />
  <path
     id="path175"
     d="m 445.31446,8.6442487 c 4.05933,-5.7315169 -6.07107,-8.46674215 -9.57414,-2.3905493"
     stroke-width="0"
     stroke-miterlimit="10"
     fill="none" />
  <path
     id="path177"
     d="m 445.31446,8.6442487 c 2.7557,-3.4041013 -6.68705,-7.139228 -9.57414,-2.3905493"
     stroke-width="0"
     stroke-miterlimit="10"
     fill="none" />
  <path
     id="path179"
     d="m 442.92562,8.6442487 c 5.38001,-4.4347164 -4.55928,-6.465233 -7.18189,-2.3905493"
     stroke-width="0"
     stroke-miterlimit="10"
     fill="none" />
  <path
     id="path181"
     d="m 435.74203,6.2536994 c 2.66356,-4.1361111 7.66306,-3.2658897 9.57414,2.3905493 -3.65152,0.4453486 -6.39869,-0.5682034 -9.57244,-2.3905493"
     stroke-width="0"
     stroke-miterlimit="10"
     fill="none" />
  <path
     id="path183"
     d="m 445.31446,6.2536994 c -2.74717,-3.3836255 -6.43964,-2.7403442 -9.57414,0 4.55587,3.7829036 7.03002,2.6464968 9.57244,0"
     fill-rule="evenodd"
     stroke-miterlimit="10"
     clip-rule="evenodd"
     stroke-width="0"
     fill="#b2d88c" />
  <path
     id="path185"
     d="m 438.13087,6.2536994 c 2.38372,-0.093847 4.79475,0 7.18018,0 V 3.8631501 c -4.74356,-1.1364068 -5.42609,1.2097783 -7.18359,2.3905493"
     fill-rule="evenodd"
     clip-rule="evenodd"
     fill="#8cb265"
     style="stroke-width:1.70632" />
  <path
     id="path187"
     fill-rule="evenodd"
     clip-rule="evenodd"
     d="m 442.92562,3.8631501 c 1.26779,3.4928297 -0.9999,6.088137 4.78792,4.7810986 -1.7575,-1.7489743 -2.71304,-3.2539454 -4.79475,-4.7810986"
     style="stroke-width:1.70632" />
  <path
     id="path189"
     fill-rule="evenodd"
     clip-rule="evenodd"
     d="m 438.13087,3.8631501 c -0.48118,1.0664477 0,3.5900897 0,4.7810986 -4.69237,-3.9978994 -0.75078,-3.1208528 0,-4.7810986"
     style="stroke-width:1.70632" />
  <path
     id="path191"
     d="m 445.31446,6.2536994 c -0.69788,1.7353238 0.66376,3.1379159 -2.39225,2.3905493 3.0543,0.7473666 1.68925,-0.6552255 2.38884,-2.3905493"
     fill-rule="evenodd"
     clip-rule="evenodd"
     fill="#595959"
     style="stroke-width:1.70632" />
  <path
     id="path193"
     d="M 438.13087,3.8631501 V 8.6442487 3.8631501"
     fill-rule="evenodd"
     clip-rule="evenodd"
     fill="#595959"
     style="stroke-width:1.70632" />
  <path
     id="path195"
     fill-rule="evenodd"
     clip-rule="evenodd"
     d="m 440.53678,3.8631501 c 0.4863,1.040853 0,3.6122718 0,4.7810986 h 2.39225 C 444.0552,4.4125839 441.1374,5.1548316 440.54019,3.8631501"
     style="stroke-width:1.70632" />
  <path
     id="path197"
     d="M 442.92562,3.8631501"
     fill-rule="evenodd"
     clip-rule="evenodd"
     fill="#e5e5e5"
     style="stroke-width:1.70632" />
  <path
     id="path199"
     d="m 466.86524,11.036504 c 0.0478,0.216702 -0.85657,3.107202 4.78792,4.782805 -1.60393,-1.593699 -3.19081,-3.189105 -4.79475,-4.782805"
     fill-rule="evenodd"
     clip-rule="evenodd"
     fill="#009919"
     style="stroke-width:1.70632" />
  <path
     id="path201"
     d="m 464.4764,11.036504 c 2.81542,2.288171 3.53548,4.421066 7.18529,4.782805 -3.20787,-2.499753 -4.863,-3.380213 -7.18359,-4.782805"
     fill-rule="evenodd"
     clip-rule="evenodd"
     fill="#008506"
     style="stroke-width:1.70632" />
  <path
     id="path203"
     d="m 464.4764,11.036504 c 1.68925,1.46402 3.20958,3.20105 4.79133,4.782805 -1.46743,-3.206168 -3.20787,-3.402395 -4.79475,-4.782805"
     fill-rule="evenodd"
     clip-rule="evenodd"
     fill="#007200"
     style="stroke-width:1.70632" />
  <path
     id="path205"
     d="m 464.4764,11.036504 c 2.76423,2.724988 4.11222,1.525447 4.79133,4.782805 -1.46743,-3.224938 -2.98605,-3.477473 -4.79475,-4.782805"
     fill-rule="evenodd"
     clip-rule="evenodd"
     fill="#005f00"
     style="stroke-width:1.70632" />
  <path
     id="path207"
     d="m 466.86524,13.42876 c -0.3225,-1.934963 0.35321,-3.064544 -2.39738,-2.390549 1.38724,1.008433 4.79134,2.711336 4.79134,3.586677 0,2.658441 -1.51862,-0.371977 -2.38884,-1.196128"
     fill-rule="evenodd"
     clip-rule="evenodd"
     fill="#004c00"
     style="stroke-width:1.70632" />
  <path
     id="path209"
     d="m 435.74203,1.4708944 c -1.40601,1.8274649 -1.32069,2.6413779 -2.39396,4.782805 -1.14324,-4.2657911 1.24561,-3.2983097 2.38884,-4.782805"
     fill-rule="evenodd"
     clip-rule="evenodd"
     fill="#007200"
     style="stroke-width:1.70632" />
  <path
     id="path211"
     d="m 450.10921,3.8631501 c 0.30714,2.7966526 2.67721,1.8206396 0,4.7810986 2.67892,-2.960459 0.30714,-1.984446 0,-4.7810986"
     fill-rule="evenodd"
     clip-rule="evenodd"
     fill="#007200"
     style="stroke-width:1.70632" />
  <path
     id="path213"
     d="m 447.70331,8.6442487 c -3.33585,1.8547663 -4.1054,3.5201303 -9.57415,0 5.93116,5.3202943 14.21191,0.6825266 21.54566,2.3922553 -4.38523,-0.179163 -7.83199,-1.382116 -11.97834,-2.3922553"
     fill-rule="evenodd"
     clip-rule="evenodd"
     fill="#007200"
     style="stroke-width:1.70632" />
  <path
     id="path215"
     d="M 464.4764,11.036504"
     fill-rule="evenodd"
     clip-rule="evenodd"
     fill="#007200"
     style="stroke-width:1.70632" />
  <path
     id="path217"
     d="m 428.55843,1.4708944 v 4.782805 -4.782805"
     fill-rule="evenodd"
     clip-rule="evenodd"
     fill="#007200"
     style="stroke-width:1.70632" />
  <path
     id="path219"
     d="m 421.37484,1.4708944 v 4.782805 -4.782805"
     fill-rule="evenodd"
     clip-rule="evenodd"
     fill="#007200"
     style="stroke-width:1.70632" />
  <path
     id="path221"
     d="m 414.19125,3.8631501 c 0.4863,2.1482523 0.0273,3.3614433 2.39396,4.7810986 -3.90746,0.3293191 -1.72338,-1.8786544 -2.38884,-4.7810986"
     fill-rule="evenodd"
     clip-rule="evenodd"
     fill="#007200"
     style="stroke-width:1.70632" />
  <path
     id="path223"
     d="m 407.00766,6.2536994 c 0.57332,1.0749793 4.04226,2.3905493 1.19613,2.3905493 -2.50829,0 -0.37539,-0.873634 -1.19443,-2.3905493"
     fill-rule="evenodd"
     clip-rule="evenodd"
     fill="#007200"
     style="stroke-width:1.70632" />
  <path
     id="path225"
     d="m 325.5993,56.474004 c 1.17395,2.496341 2.29329,3.980837 4.79134,7.173355 -0.44364,-5.282756 -1.63807,-8.744872 -4.79475,-7.173355"
     fill-rule="evenodd"
     clip-rule="evenodd"
     fill="#32bf32"
     style="stroke-width:1.70632" />
  <path
     id="path227"
     d="m 325.5993,51.689493 c 1.92814,3.129385 4.40742,3.329024 4.79134,7.175061 h 2.39225 c -0.52895,-4.513207 -3.36144,-5.934569 -7.18359,-7.175061"
     fill-rule="evenodd"
     clip-rule="evenodd"
     fill="#32bf32"
     style="stroke-width:1.70632" />
  <path
     id="path229"
     d="m 330.39405,49.298944 c 1.29509,2.808597 3.23347,3.417752 2.39226,7.17506 h 2.39396 c -0.75078,-5.069466 -1.63807,-9.311368 -4.77769,-7.17506"
     fill-rule="evenodd"
     clip-rule="evenodd"
     fill="#32bf32"
     style="stroke-width:1.70632" />
  <path
     id="path231"
     d="m 306.45443,66.039614 c 1.50327,-2.486103 0.39245,-4.990975 4.78792,-4.782805 -3.0543,0.633044 -2.38884,1.957145 -4.79474,4.782805"
     fill-rule="evenodd"
     clip-rule="evenodd"
     fill="#32bf32"
     style="stroke-width:1.70632" />
  <path
     id="path233"
     d="m 253.78044,80.388029 c -1.60223,-9.548546 -7.03514,-17.0188 -16.75602,-16.74067 9.4018,-2.61749 18.68416,7.449777 16.75602,16.74067"
     fill-rule="evenodd"
     clip-rule="evenodd"
     fill="#32bf32"
     style="stroke-width:1.70632" />
  <path
     id="path235"
     d="m 253.78044,58.864554 c 6.90547,4.793043 4.79305,13.954256 4.79305,21.523475 0,-7.854174 1.26267,-15.365379 -4.79475,-21.523475"
     fill-rule="evenodd"
     clip-rule="evenodd"
     fill="#32bf32"
     style="stroke-width:1.70632" />
  <path
     id="path237"
     d="m 258.57519,75.605224 c 1.28827,-2.016866 3.72148,-4.127579 2.39396,-9.56561 3.19082,5.816833 1.84283,7.146054 -2.38884,9.56561"
     fill-rule="evenodd"
     clip-rule="evenodd"
     fill="#32bf32"
     style="stroke-width:1.70632" />
  <path
     id="path239"
     d="m 246.59685,63.647359 c -3.80338,-8.860901 -21.11567,-2.77959 -28.73096,0 6.22806,-2.279639 33.03429,-8.599835 28.73437,0"
     fill-rule="evenodd"
     clip-rule="evenodd"
     fill="#32bf32"
     style="stroke-width:1.70632" />
  <path
     id="path241"
     d="m 198.71761,85.172541 c 0.94018,-10.254962 7.71596,-17.339588 11.96981,-26.307987 -2.57654,8.142542 -6.73995,21.666806 -11.97834,26.307987"
     fill-rule="evenodd"
     clip-rule="evenodd"
     fill="#32bf32"
     style="stroke-width:1.70632" />
  <path
     id="path243"
     d="m 193.92286,80.388029 c 2.34619,-2.745463 4.07469,-11.304346 7.18189,-14.348415 -2.57654,5.144544 -0.6484,18.168858 -7.18359,14.348415"
     fill-rule="evenodd"
     clip-rule="evenodd"
     fill="#32bf32"
     style="stroke-width:1.70632" />
  <path
     id="path245"
     d="m 186.73927,80.388029 c 2.32571,-6.432813 1.71314,-13.42871 4.79134,-19.13122 -1.85989,6.560787 -0.90435,16.19465 -4.79475,19.13122"
     fill-rule="evenodd"
     clip-rule="evenodd"
     fill="#32bf32"
     style="stroke-width:1.70632" />
  <path
     id="path247"
     d="m 191.53402,80.388029 c -0.0904,-6.478883 1.38041,-13.918423 4.78963,-16.74067 -3.13962,3.315373 -1.96226,10.459719 -4.79475,16.74067"
     fill-rule="evenodd"
     clip-rule="evenodd"
     fill="#32bf32"
     style="stroke-width:1.70632" />
  <path
     id="path249"
     d="m 181.96158,80.388029 c -1.01696,-5.137719 -0.30713,-10.004133 2.39397,-11.956159 -2.52535,2.011747 -3.32732,6.801377 -2.38885,11.956159"
     fill-rule="evenodd"
     clip-rule="evenodd"
     fill="#32bf32"
     style="stroke-width:1.70632" />
  <path
     id="path251"
     d="m 181.96158,80.388029 v -7.173354 7.173354"
     fill-rule="evenodd"
     clip-rule="evenodd"
     fill="#009919"
     style="stroke-width:1.70632" />
  <path
     id="path253"
     d="M 177.16684,80.388029 V 68.43187 80.388029"
     fill-rule="evenodd"
     clip-rule="evenodd"
     fill="#32bf32"
     style="stroke-width:1.70632" />
  <path
     id="path255"
     d="m 172.37209,77.99748 v -9.56561 9.56561"
     fill-rule="evenodd"
     clip-rule="evenodd"
     fill="#32bf32"
     style="stroke-width:1.70632" />
  <path
     id="path257"
     d="m 167.59269,75.605224 v -4.784511 4.784511"
     fill-rule="evenodd"
     clip-rule="evenodd"
     fill="#32bf32"
     style="stroke-width:1.70632" />
  <path
     id="path259"
     d="m 323.21046,85.172541 c 4.19071,-4.311862 11.22585,-10.86753 16.76114,-16.742377 13.26661,-14.083936 22.61552,-35.479438 43.09473,-38.264146 v 2.390549 c -1.48449,0.336144 -3.34438,-0.462412 -4.78963,0 5.64962,2.77959 39.16338,-0.871928 45.48869,-7.173354 -0.79855,-0.79685 -1.59711,-1.5937 -2.39396,-2.39055 2.4588,1.970796 5.16161,3.361444 7.18189,4.781099 v -2.390549 c -2.11413,-0.931649 -2.64138,-0.730304 -4.78793,-2.39055 3.24542,1.330927 6.1308,1.354816 9.57756,2.39055 -1.85648,-1.539098 -2.29329,-2.226743 -4.79134,-4.784511 3.50477,4.049088 7.48049,6.716061 9.57926,0 -1.49132,-0.267892 -3.34609,0.443642 -4.78963,0 1.31728,-0.37539 3.77267,0.271304 2.39396,-2.39055 3.56791,2.197736 30.1199,3.567908 35.91284,0 v 2.39055 c -31.00888,0 -47.13869,11.957865 -75.41748,11.957865 -18.993,0 -25.59304,16.09227 -38.3068,20.329054 -7.23478,2.411025 -9.51101,14.281869 -14.36377,19.13122 -6.75701,6.789433 -13.42871,8.318292 -20.32223,13.1557"
     fill-rule="evenodd"
     clip-rule="evenodd"
     fill="#57b639"
     style="stroke-width:1.70632" />
  <path
     id="path261"
     d="m 201.10645,89.955345 c -1.7575,1.7558 -1.74044,1.745562 0,0"
     fill-rule="evenodd"
     clip-rule="evenodd"
     fill="#268c26"
     style="stroke-width:1.70632" />
  <path
     id="path263"
     d="m 198.71761,89.955345 c -1.7575,1.754094 -1.74044,1.747269 0,0"
     fill-rule="evenodd"
     clip-rule="evenodd"
     fill="#268c26"
     style="stroke-width:1.70632" />
  <path
     id="path265"
     d="m 193.92286,89.955345 c -1.7575,1.7558 -1.74044,1.745562 0,0"
     fill-rule="evenodd"
     clip-rule="evenodd"
     fill="#268c26"
     style="stroke-width:1.70632" />
  <path
     id="path267"
     d="m 189.14518,89.955345 c -0.35833,-1.366759 0,-3.361443 0,-4.781098 -3.60033,4.306743 -0.22182,3.917702 0,4.781098"
     fill-rule="evenodd"
     clip-rule="evenodd"
     fill="#268c26"
     style="stroke-width:1.70632" />
  <path
     id="path269"
     d="m 184.35043,87.56309 c -1.20466,-1.201247 1.12105,-3.250533 -2.39396,-2.390549 1.46743,2.460508 4.84593,4.8357 2.38884,2.390549"
     fill-rule="evenodd"
     clip-rule="evenodd"
     fill="#268c26"
     style="stroke-width:1.70632" />
  <path
     id="path271"
     d="m 179.55568,85.172541 c -1.75751,1.755799 -1.74044,1.745561 0,0"
     fill-rule="evenodd"
     clip-rule="evenodd"
     fill="#268c26"
     style="stroke-width:1.70632" />
  <path
     id="path273"
     d="m 174.77799,85.172541 c -1.20466,-1.20466 1.12276,-3.253946 -2.39396,-2.393962 -0.87022,3.518424 1.17736,1.189302 2.38884,2.393962"
     fill-rule="evenodd"
     clip-rule="evenodd"
     fill="#268c26"
     style="stroke-width:1.70632" />
  <path
     id="path275"
     d="M 169.98666,80.388029"
     fill-rule="evenodd"
     clip-rule="evenodd"
     fill="#268c26"
     style="stroke-width:1.70632" />
  <path
     id="path277"
     d="m 165.19873,80.388029 c 2.62773,0 2.62773,0 0,0"
     fill-rule="evenodd"
     clip-rule="evenodd"
     fill="#268c26"
     style="stroke-width:1.70632" />
  <path
     id="path279"
     d="m 289.6984,106.69431 c -4.04909,9.29943 -30.58742,7.17506 -40.70076,7.17506"
     stroke-width="0"
     stroke-miterlimit="10"
     fill="none" />
  <path
     id="path281"
     d="m 289.6984,106.69431 c -6.36285,8.28246 -29.2309,7.17506 -40.70076,7.17506"
     stroke-width="0"
     stroke-miterlimit="10"
     fill="none" />
  <path
     id="path283"
     d="m 289.6984,106.69431 c -11.22585,8.14596 -26.99051,7.17506 -40.70076,7.17506"
     stroke-width="0"
     stroke-miterlimit="10"
     fill="none" />
  <path
     id="path285"
     d="m 289.6984,106.69431 c -12.67451,6.85257 -25.82339,7.17506 -40.70076,7.17506"
     stroke-width="0"
     stroke-miterlimit="10"
     fill="none" />
  <path
     id="path287"
     d="m 287.30956,106.69431 c -10.84193,7.63065 -24.62556,7.17506 -38.3068,7.17506"
     stroke-width="0"
     stroke-miterlimit="10"
     fill="none" />
  <path
     id="path289"
     d="m 287.30956,106.69431 c -9.0759,7.13411 -26.07251,5.43121 -38.3068,7.17506"
     stroke-width="0"
     stroke-miterlimit="10"
     fill="none" />
  <path
     id="path291"
     d="m 287.30956,106.69431 c -12.6438,3.84092 -24.84397,4.78622 -38.3068,4.78622"
     stroke-width="0"
     stroke-miterlimit="10"
     fill="none" />
  <path
     id="path293"
     d="m 263.35288,42.12559 c -0.30031,-0.498245 -1.97762,2.090237 4.78792,2.390549 -2.64479,0.390746 -2.86661,-0.9726 -4.79475,-2.390549"
     fill-rule="evenodd"
     clip-rule="evenodd"
     fill="#75ef75"
     style="stroke-width:1.70632" />
  <path
     id="path295"
     d="m 282.51481,44.516139 c 1.20466,1.204659 3.25224,-1.122756 2.39226,2.392256 -3.51501,0.859983 -1.19442,-1.189303 -2.38885,-2.392256"
     fill-rule="evenodd"
     clip-rule="evenodd"
     fill="#75ef75"
     style="stroke-width:1.70632" />
  <path
     id="path297"
     d="m 301.67675,44.516139 c 1.20465,1.204659 3.25223,-1.122756 2.39396,2.392256 -3.51501,0.859983 -1.19442,-1.189303 -2.38885,-2.392256"
     fill-rule="evenodd"
     clip-rule="evenodd"
     fill="#75ef75"
     style="stroke-width:1.70632" />
  <path
     id="path299"
     d="m 344.76123,34.950529 c 0.57333,1.074979 4.03886,2.390549 1.19613,2.390549 -2.52535,0.0017 -0.39245,-0.873634 -1.19442,-2.390549"
     fill-rule="evenodd"
     clip-rule="evenodd"
     fill="#75ef75"
     style="stroke-width:1.70632" />
  <path
     id="path301"
     d="m 311.24918,85.172541 c 0.0273,-4.690664 0.39928,-8.176669 2.39396,-11.957866 -1.07839,5.745167 -1.0545,3.963773 -4.78792,7.173354 V 66.039614 77.99748 c -1.20295,-3.318786 -1.54592,-2.660147 -2.39396,-7.176767 0.56479,4.746972 1.19612,7.294503 2.39396,9.56561 h -2.39396 c -0.20476,4.327218 2.21821,3.375094 4.79475,4.786218"
     fill-rule="evenodd"
     clip-rule="evenodd"
     fill="#7fcc66"
     style="stroke-width:1.70632" />
  <path
     id="path303"
     d="m 330.39405,75.605224 c -0.49483,-3.334142 0.65181,-4.914191 -2.39396,-7.17506 0.79855,1.595406 1.59711,3.189105 2.39396,4.784511 -2.62602,0.119442 -2.59531,1.247317 -4.79134,2.390549 v -2.390549 c -0.14503,2.260869 -0.26959,4.926136 0,7.173354 h 2.39567 c -0.39245,-2.800065 1.21149,-2.680623 2.40591,-4.782805"
     fill-rule="evenodd"
     clip-rule="evenodd"
     fill="#7fcc66"
     style="stroke-width:1.70632" />
  <path
     id="path305"
     d="m 325.5993,82.778579 c -5.03193,7.262082 -12.09778,10.086036 -14.36548,19.131221 2.19945,-3.520132 0.99649,-0.44194 4.78963,-2.390551 h -2.39396 v 2.390551 c 2.38884,-1.28315 2.39908,-1.1074 4.78963,-2.390551 v 2.390551 h -2.39396 c 1.98786,-1.41283 2.98947,-1.55275 4.78792,-4.782807 h -2.39225 c 3.83921,-4.36817 5.15307,-9.572435 7.14946,-14.348414"
     fill-rule="evenodd"
     clip-rule="evenodd"
     fill="#57b639"
     style="stroke-width:1.70632" />
  <path
     id="path307"
     d="m 332.79996,111.47882 c 7.3474,0.50166 10.73785,1.13129 14.36377,7.17165 -3.44676,-4.91078 -9.62363,-5.27422 -14.36719,-7.17165"
     fill-rule="evenodd"
     clip-rule="evenodd"
     fill="#77d15e"
     style="stroke-width:1.70632" />
  <path
     id="path309"
     d="m 272.94238,149.73785 h -7.18189 c 2.2694,-0.3498 4.88007,0 7.18359,0 -2.44686,2.59019 -6.73142,4.46884 -11.96981,4.78622 2.52876,-0.98114 6.85769,-1.62442 9.57414,-2.39055 -0.96406,4.46201 -2.80518,6.56078 -7.18188,9.56561 4.16341,-3.672 8.46333,-7.88489 9.5895,-11.96128"
     fill-rule="evenodd"
     clip-rule="evenodd"
     fill="#77d15e"
     style="stroke-width:1.70632" />
  <path
     id="path311"
     d="m 251.3916,166.48023 c 3.43481,1.01355 2.32912,2.27963 7.1853,2.39055 v 2.39054 c -4.88007,0.71666 -4.64118,-1.32239 -7.18359,-4.78109"
     fill-rule="evenodd"
     clip-rule="evenodd"
     fill="#77d15e"
     style="stroke-width:1.70632" />
  <path
     id="path313"
     d="m 275.33122,159.30858 c -1.03915,1.44354 0.96066,3.21129 -2.39226,2.39055 v 2.38884 c 4.60706,-1.6739 9.26871,-2.46221 14.36378,-2.38884 -5.01657,1.162 -8.24151,-0.30202 -11.97835,-2.39055"
     fill-rule="evenodd"
     clip-rule="evenodd"
     fill="#77d15e"
     style="stroke-width:1.70632" />
  <path
     id="path315"
     d="m 318.43277,159.30858 c -0.35832,-2.50487 0,-2.72158 0,0 -4.15658,-3.09355 -7.60334,-1.47767 -9.57585,2.39055 2.01346,-3.73001 4.77769,-1.82235 9.57244,-2.39055"
     fill-rule="evenodd"
     clip-rule="evenodd"
     fill="#77d15e"
     style="stroke-width:1.70632" />
  <path
     id="path317"
     d="m 330.39405,171.26132 c -1.74897,-3.30172 -2.07147,-6.47888 -4.79134,-9.56219 5.58307,2.10047 8.76706,11.86913 9.57756,16.74067 h -2.39396 c 0.87022,-3.83921 -1.34799,-4.31698 -2.38885,-7.18359"
     fill-rule="evenodd"
     clip-rule="evenodd"
     fill="#77d15e"
     style="stroke-width:1.70632" />
  <path
     id="path319"
     d="m 325.5993,161.69913 c 2.47416,2.80859 4.08322,6.00794 4.79134,9.56219"
     stroke-width="0"
     stroke-miterlimit="10"
     fill="none" />
  <path
     id="path321"
     d="m 215.47364,144.95675 c -3.32049,-0.49824 -4.76404,0.674 -7.18189,-2.38884 3.44676,2.15849 7.13241,2.50146 7.1836,2.38884"
     fill-rule="evenodd"
     clip-rule="evenodd"
     fill="#77d15e"
     style="stroke-width:1.70632" />
  <path
     id="path323"
     d="m 215.47364,149.73785 c -5.23839,1.41112 -7.27403,3.21129 -11.96981,0 3.80508,3.4041 8.19032,3.4041 11.97834,0"
     fill-rule="evenodd"
     clip-rule="evenodd"
     fill="#77d15e"
     style="stroke-width:1.70632" />
  <path
     id="path325"
     d="m 210.69595,154.52407 h -7.18018 7.1836"
     fill-rule="evenodd"
     clip-rule="evenodd"
     fill="#77d15e"
     style="stroke-width:1.70632" />
  <path
     id="path327"
     d="m 222.65723,135.39285 c -4.45178,-1.54081 -6.86792,-1.4316 -11.97151,0 4.45348,-3.51331 9.50418,-3.5099 11.97834,0"
     fill-rule="evenodd"
     clip-rule="evenodd"
     fill="#77d15e"
     style="stroke-width:1.70632" />
  <path
     id="path329"
     d="m 201.10645,149.73785 c -3.41775,3.60886 -6.96177,9.89493 -11.97151,16.74238 4.26579,-5.83219 5.25545,-15.01388 11.97834,-16.74238"
     fill-rule="evenodd"
     clip-rule="evenodd"
     fill="#77d15e"
     style="stroke-width:1.70632" />
  <path
     id="path331"
     d="m 186.73927,183.2226 c -1.44525,1.03403 -3.89381,3.54573 -7.18189,4.78451 2.09536,-0.59379 2.88539,-1.68584 4.78963,-2.39055 -2.80347,4.03544 -1.4862,2.79324 -7.18359,4.78281 2.66698,1.66195 0.64328,-0.087 2.39396,2.38884 4.86301,-2.16702 7.13241,-4.43642 7.1836,-9.55537"
     fill-rule="evenodd"
     clip-rule="evenodd"
     fill="#77d15e"
     style="stroke-width:1.70632" />
  <path
     id="path333"
     d="m 172.37209,188.00029 c -0.30543,1.43672 0,3.30684 0,4.7811 h -2.39397 c 0.80709,-1.58688 1.60906,-3.17375 2.39397,-4.77769"
     fill-rule="evenodd"
     clip-rule="evenodd"
     fill="#77d15e"
     style="stroke-width:1.70632" />
  <path
     id="path335"
     d="m 172.37209,209.534 h -4.78963 4.78963"
     fill-rule="evenodd"
     clip-rule="evenodd"
     fill="#77d15e"
     style="stroke-width:1.70632" />
  <path
     id="path337"
     d="m 167.59269,214.31169 c -1.40941,0.32761 -3.33414,0 -4.78792,0 l 2.39396,2.38884 c -0.69276,-2.83248 0.5119,-1.9452 2.39396,-2.38884"
     fill-rule="evenodd"
     clip-rule="evenodd"
     fill="#77d15e"
     style="stroke-width:1.70632" />
  <path
     id="path339"
     d="m 167.59269,235.82834 c -1.67219,-3.92794 -1.73191,-6.14445 -4.78792,-9.56561 h 2.39396 c 2.18579,4.48761 2.89562,6.00623 2.39396,9.57243"
     fill-rule="evenodd"
     clip-rule="evenodd"
     fill="#77d15e"
     style="stroke-width:1.70632" />
  <path
     id="path341"
     d="m 203.51236,130.60663 c 8.77729,-5.9704 9.20899,-28.05014 14.36377,-38.262441 -2.19091,11.901561 -5.80318,38.409181 -16.75773,45.439211 3.31025,-2.60726 1.38212,-3.89382 2.38884,-7.17677"
     fill-rule="evenodd"
     clip-rule="evenodd"
     fill="#77d15e"
     style="stroke-width:1.70632" />
  <path
     id="path343"
     d="m 306.45443,132.99888 c -2.93486,-0.488 -5.1053,1.42137 -4.78792,-2.39054 -0.10238,3.77266 1.85988,1.90254 4.79475,2.39054"
     fill-rule="evenodd"
     stroke-miterlimit="10"
     clip-rule="evenodd"
     stroke-width="0"
     fill="#bfbfbf" />
  <path
     id="path345"
     d="m 308.84327,135.39285 c -3.36997,1.13128 -3.78631,4.52685 -7.18188,0 3.31025,3.25394 3.15668,0.45046 7.18359,0"
     fill-rule="evenodd"
     stroke-miterlimit="10"
     clip-rule="evenodd"
     stroke-width="0"
     fill="#bfbfbf" />
  <path
     id="path347"
     d="m 471.65999,15.819309 h -38.30681 c 12.53631,0 26.42914,3.537194 38.30681,2.39055 h -2.39396 c 2.44003,0.598917 2.45709,-0.334439 2.38884,-2.39055"
     fill-rule="evenodd"
     clip-rule="evenodd"
     fill="#59a53f"
     style="stroke-width:1.70632" />
  <path
     id="path349"
     d="m 471.65999,15.819309 c -3.3751,4.187301 -27.60479,0 -38.30681,0"
     stroke-width="0"
     stroke-miterlimit="10"
     fill="none" />
  <path
     id="path351"
     d="m 435.74203,15.819309 h 2.39396"
     stroke-width="0"
     stroke-miterlimit="10"
     fill="none" />
  <path
     id="path353"
     d="M 428.55843,1.4708944 V 3.8631501"
     stroke-width="0"
     stroke-miterlimit="10"
     fill="none" />
  <path
     id="path355"
     d="m 435.74203,1.4708944 c -0.79856,0.7968498 -1.59712,1.5954059 -2.39396,2.3922557"
     stroke-width="0"
     stroke-miterlimit="10"
     fill="none" />
  <path
     id="path357"
     d="m 450.10921,3.8631501 c 2.07488,1.4810826 3.27272,2.7625263 0,2.3905493"
     stroke-width="0"
     stroke-miterlimit="10"
     fill="none" />
  <path
     id="path359"
     d="M 421.37484,3.8631501"
     stroke-width="0"
     stroke-miterlimit="10"
     fill="none" />
  <path
     id="path361"
     d="M 414.19125,3.8631501 V 8.6442487"
     stroke-width="0"
     stroke-miterlimit="10"
     fill="none" />
  <path
     id="path363"
     d="M 407.00766,6.2536994 V 8.6442487"
     stroke-width="0"
     stroke-miterlimit="10"
     fill="none" />
  <path
     id="path365"
     d="m 330.39405,63.647359 c -2.78812,-3.750484 -5.1872,-7.741558 -7.1853,-11.956159"
     stroke-width="0"
     stroke-miterlimit="10"
     fill="none" />
  <path
     id="path367"
     d="m 330.39405,61.256809 c 1.17395,-6.011352 -1.82064,-11.239506 -7.1853,-14.348414"
     stroke-width="0"
     stroke-miterlimit="10"
     fill="none" />
  <path
     id="path369"
     d="m 332.79996,58.864554 c 0.23888,-4.154881 -0.57674,-8.17155 -2.39226,-11.956159"
     stroke-width="0"
     stroke-miterlimit="10"
     fill="none" />
  <path
     id="path371"
     d="m 325.5993,80.388029 c 3.4843,-0.476062 5.06776,-3.371681 4.79134,-7.173354"
     stroke-width="0"
     stroke-miterlimit="10"
     fill="none" />
  <path
     id="path373"
     d="m 325.5993,77.99748 c 2.07659,-1.482789 3.27442,-2.764233 0,-2.392256"
     stroke-width="0"
     stroke-miterlimit="10"
     fill="none" />
  <path
     id="path375"
     d="m 308.84327,85.172541 c 1.84965,-1.112519 2.6994,-2.704512 2.39226,-4.786218"
     stroke-width="0"
     stroke-miterlimit="10"
     fill="none" />
  <path
     id="path377"
     d="m 308.84327,80.388029 c -1.5937,-2.117538 -2.44685,-4.586578 -2.39396,-7.173354"
     stroke-width="0"
     stroke-miterlimit="10"
     fill="none" />
  <path
     id="path379"
     d="m 306.45443,80.388029 c 0.79856,0.79685 1.59711,1.5937 2.39396,2.39055"
     stroke-width="0"
     stroke-miterlimit="10"
     fill="none" />
  <path
     id="path381"
     d="m 318.43277,97.126993 c -0.47265,2.269401 -2.00151,3.523547 -4.78963,4.782807"
     stroke-width="0"
     stroke-miterlimit="10"
     fill="none" />
  <path
     id="path383"
     d="m 318.43277,97.126993 c -2.0817,-0.307136 -3.6754,0.540903 -4.78963,2.39055"
     stroke-width="0"
     stroke-miterlimit="10"
     fill="none" />
  <path
     id="path385"
     d="m 318.43277,97.126993 v 2.39055"
     stroke-width="0"
     stroke-miterlimit="10"
     fill="none" />
  <path
     id="path387"
     d="m 256.16929,63.647359 c 2.65502,3.22835 3.38362,7.489023 2.39737,11.957865"
     stroke-width="0"
     stroke-miterlimit="10"
     fill="none" />
  <path
     id="path389"
     d="m 260.96404,68.430164 c 0.31566,7.412238 -0.85828,16.585395 -7.18701,19.132926"
     stroke-width="0"
     stroke-miterlimit="10"
     fill="none" />
  <path
     id="path391"
     d="m 265.75878,75.605224 c -0.24229,5.73493 -4.29479,9.732829 -9.57926,11.957866"
     stroke-width="0"
     stroke-miterlimit="10"
     fill="none" />
  <path
     id="path393"
     d="m 268.14763,77.99748 c -0.39416,3.747071 -3.15157,6.231468 -7.18018,7.176767"
     stroke-width="0"
     stroke-miterlimit="10"
     fill="none" />
  <path
     id="path395"
     d="m 241.81916,63.647359 c 9.20217,1.387235 13.75803,11.797472 11.96981,21.526888"
     stroke-width="0"
     stroke-miterlimit="10"
     fill="none" />
  <path
     id="path397"
     d="m 246.59685,63.647359 c -8.08282,-7.646004 -17.16384,-3.054307 -26.3387,0"
     stroke-width="0"
     stroke-miterlimit="10"
     fill="none" />
  <path
     id="path399"
     d="M 253.78044,42.12559 C 234.43935,39.938092 210.66012,50.524079 191.53573,54.083455 168.84001,58.308295 146.78416,56.956892 124.49967,51.6912 104.21839,46.898157 83.682877,34.936878 63.225849,32.382523 50.925014,30.846838 8.1237725,26.710727 2.393962,37.344491 c 38.462079,0 75.151295,2.46904 108.936358,22.717897 16.07862,9.635569 34.58704,13.053321 49.0839,23.915731 10.44778,7.830286 36.49299,9.099786 43.09473,20.327351 2.31035,3.92964 -1.14153,35.87189 -3.5918,35.87189 -8.94963,0 -17.73716,36.5237 -25.67153,41.80475 -10.42559,6.9413 -27.59284,60.15277 0.53408,53.85476 -8.56742,-18.38556 -10.22596,-17.92997 4.78792,-35.8753 9.13903,-10.92555 18.69611,-24.6887 28.73096,-38.25903 4.84252,-6.54884 16.76114,-21.90228 16.76114,-27.50411 0,-5.01658 16.73556,-22.72131 20.34783,-21.52007 5.40561,1.79846 20.56794,1.35482 22.7452,5.97723 3.33584,7.07951 -10.62182,34.51878 -15.56332,39.46027 -18.0477,18.04259 14.83472,10.76003 21.54907,10.76003 18.64663,0 35.35488,-12.66598 49.08049,-4.7828 3.02701,1.74044 10.42047,10.86582 9.57755,16.74067 h 2.39397 c 0,-12.37079 -0.49484,-19.41276 -11.97323,-23.91403 -7.8883,-3.09355 -46.01423,6.58468 -50.27661,-2.39054 -1.25073,-2.63456 12.70523,-20.2335 15.51554,-24.4464 8.58447,-12.86904 10.32321,-15.68787 1.24219,-23.38336 7.23649,-3.43311 13.66248,-8.540115 19.15682,-14.348416 -2.56801,14.167546 4.91248,16.513736 16.75773,19.134636 6.47377,1.4333 20.48262,0.58014 19.15511,9.56219 -0.74395,5.03023 -4.44154,7.62895 -9.57585,7.17336 v 2.39055 c 2.12778,-0.56479 11.96981,-2.63455 11.96981,-3.58839 0,-0.80708 9.97342,-13.15058 3.59009,-13.15058 -5.55235,0 -29.92708,-16.131513 -29.92708,-17.936795 0,-15.628153 22.36298,-15.59232 27.53483,-31.089086 5.68715,-17.05122 28.89305,-27.562129 44.29085,-29.892957 11.47498,-1.73703 22.73496,-4.784512 34.71672,-4.784512 4.27091,0 17.03927,-8.381426 25.13916,-9.56561 6.07107,-0.88899 17.10752,2.721575 19.1551,-2.390549 2.75229,-6.878161 -5.8356,-7.212599 -9.57755,-9.5656097 C 454.12929,3.6447416 426.5774,-4.6820826 421.38167,3.8665627 403.67864,-3.670237 372.38991,22.569497 354.49406,28.527954 c -16.08032,5.354421 -30.61814,13.602755 -47.23425,13.602755 -17.831,0.01194 -35.64495,0.01194 -53.47595,0.01194"
     stroke-width="0"
     stroke-miterlimit="10"
     fill="none" />
  <path
     id="path401"
     d="m 165.19873,233.4395 c 2.39567,1.58687 4.9961,0.3242 4.78793,4.78109 -4.4552,0.22182 -3.19935,-2.38884 -4.78793,-4.77768"
     fill-rule="evenodd"
     stroke-miterlimit="10"
     clip-rule="evenodd"
     stroke-width="0"
     fill="#bfbfbf" />
  <path
     id="path403"
     d="m 172.37209,233.4395 c 3.47064,1.40088 6.28095,-1.33093 4.78792,4.78109 -1.74044,-1.74044 -3.22494,-2.67891 -4.79475,-4.77768"
     fill-rule="evenodd"
     stroke-miterlimit="10"
     clip-rule="evenodd"
     stroke-width="0"
     fill="#bfbfbf" />
  <path
     id="path405"
     d="m 335.1888,178.44492 c -2.53729,1.62441 -4.19754,3.82044 -9.57755,0 4.57292,2.28646 4.98244,0.49483 9.57243,0"
     fill-rule="evenodd"
     stroke-miterlimit="10"
     clip-rule="evenodd"
     stroke-width="0"
     fill="#bfbfbf" />
  <path
     id="path407"
     d="m 328.00521,168.87078 c 0.93506,3.90917 5.22986,5.01145 -2.39567,7.17164 h 2.39567 c 0,-2.18408 -0.49483,-5.05069 0,-7.16823"
     fill-rule="evenodd"
     stroke-miterlimit="10"
     clip-rule="evenodd"
     stroke-width="0"
     fill="#bfbfbf" />
  <path
     id="path409"
     d="m 335.1888,130.60663 c -2.33253,-1.12788 -4.1344,-0.84633 -4.78792,-4.78451 v 2.39225 c 4.16341,-1.10228 3.36144,0.88388 4.79475,2.39226"
     fill-rule="evenodd"
     stroke-miterlimit="10"
     clip-rule="evenodd"
     stroke-width="0"
     fill="#bfbfbf" />
  <path
     id="path411"
     d="m 332.79996,176.03901 c 0.30713,-2.08 -0.54261,-3.67029 -2.39226,-4.7811"
     stroke-width="0"
     stroke-miterlimit="10"
     fill="none" />
  <path
     id="path413"
     d="m 332.79996,173.65017 h 2.39396"
     stroke-width="0"
     stroke-miterlimit="10"
     fill="none" />
  <path
     id="path415"
     d="m 332.79996,176.03901 h 2.39396"
     stroke-width="0"
     stroke-miterlimit="10"
     fill="none" />
  <path
     id="path417"
     d="M 335.1888,176.03901"
     stroke-width="0"
     stroke-miterlimit="10"
     fill="none" />
  <path
     id="path419"
     d="m 328.00521,166.48023 h -2.39567"
     stroke-width="0"
     stroke-miterlimit="10"
     fill="none" />
  <path
     id="path421"
     d="m 328.00521,166.48023 h -2.39567"
     stroke-width="0"
     stroke-miterlimit="10"
     fill="none" />
  <path
     id="path423"
     d="m 167.59269,235.82834 c 0.7559,-2.84784 0.44706,-4.86471 -2.39225,-4.78622"
     stroke-width="0"
     stroke-miterlimit="10"
     fill="none" />
  <path
     id="path425"
     d="m 172.37209,233.4395 c 0.0785,-2.84273 -1.93838,-3.15328 -4.78963,-2.39567"
     stroke-width="0"
     stroke-miterlimit="10"
     fill="none" />
  <path
     id="path427"
     d="m 165.19873,231.05065 h -2.39396"
     stroke-width="0"
     stroke-miterlimit="10"
     fill="none" />
  <path
     id="path429"
     d="m 165.19873,231.05065 h -2.39396"
     stroke-width="0"
     stroke-miterlimit="10"
     fill="none" />
  <path
     id="path431"
     d="m 169.98666,231.05065 h -2.39397"
     stroke-width="0"
     stroke-miterlimit="10"
     fill="none" />
  <path
     id="path433"
     d="m 172.37209,231.05065 h -4.78963"
     stroke-width="0"
     stroke-miterlimit="10"
     fill="none" />
  <path
     id="path435"
     d="m 172.37209,231.05065 h -2.39397"
     stroke-width="0"
     stroke-miterlimit="10"
     fill="none" />
  <path
     id="path437"
     d="M 169.98666,231.05065"
     stroke-width="0"
     stroke-miterlimit="10"
     fill="none" />
  <path
     id="path439"
     d="M 203.51236,104.30206 V 92.344189"
     stroke-width="0"
     stroke-miterlimit="10"
     fill="none" />
  <path
     id="path441"
     d="m 241.81916,111.47882 c 7.20066,-5.26569 6.18881,-14.802294 11.96981,-21.525181"
     stroke-width="0"
     stroke-miterlimit="10"
     fill="none" />
  <path
     id="path443"
     d="M 308.84327,92.345895 V 75.605224"
     stroke-width="0"
     stroke-miterlimit="10"
     fill="none" />
  <path
     id="path445"
     d="m 323.21046,85.172541 c 2.84102,0.07849 3.15156,-1.93667 2.39396,-4.786218"
     stroke-width="0"
     stroke-miterlimit="10"
     fill="none" />
  <path
     id="path447"
     d="m 141.2557,209.534 c 1.07327,-1.07498 1.0801,-1.09204 0,0"
     fill-rule="evenodd"
     clip-rule="evenodd"
     fill="#d8d8d8"
     style="stroke-width:1.70632" />
  <path
     id="path449"
     d="m 124.49967,214.31169 c 2.62773,0 2.62773,0 0,0"
     fill-rule="evenodd"
     clip-rule="evenodd"
     fill="#d8d8d8"
     style="stroke-width:1.70632" />
  <path
     id="path451"
     d="m 119.71004,226.27297 c 2.62773,0 2.62773,0 0,0"
     fill-rule="evenodd"
     clip-rule="evenodd"
     fill="#d8d8d8"
     style="stroke-width:1.70632" />
  <metadata
     id="metadata227">
    <rdf:RDF>
      <cc:Work>
        <dc:format>image/svg+xml</dc:format>
        <dc:type
           rdf:resource="http://purl.org/dc/dcmitype/StillImage" />
        <cc:license
           rdf:resource="http://creativecommons.org/publicdomain/zero/1.0/" />
        <dc:publisher>
          <cc:Agent
             rdf:about="http://openclipart.org/">
            <dc:title>Openclipart</dc:title>
          </cc:Agent>
        </dc:publisher>
        <dc:title></dc:title>
      </cc:Work>
      <cc:License
         rdf:about="http://creativecommons.org/publicdomain/zero/1.0/">
        <cc:permits
           rdf:resource="http://creativecommons.org/ns#Reproduction" />
        <cc:permits
           rdf:resource="http://creativecommons.org/ns#Distribution" />
        <cc:permits
           rdf:resource="http://creativecommons.org/ns#DerivativeWorks" />
      </cc:License>
    </rdf:RDF>
  </metadata>
</svg>
