<?xml version="1.0" encoding="UTF-8" standalone="no"?>
<svg
   xmlns:dc="http://purl.org/dc/elements/1.1/"
   xmlns:cc="http://creativecommons.org/ns#"
   xmlns:rdf="http://www.w3.org/1999/02/22-rdf-syntax-ns#"
   xmlns:svg="http://www.w3.org/2000/svg"
   xmlns="http://www.w3.org/2000/svg"
   xmlns:xlink="http://www.w3.org/1999/xlink"
   xmlns:sodipodi="http://sodipodi.sourceforge.net/DTD/sodipodi-0.dtd"
   xmlns:inkscape="http://www.inkscape.org/namespaces/inkscape"
   id="svg2"
   sodipodi:docname="doll.svg"
   viewBox="0 0 269.25475 465.72688"
   version="1.1"
   inkscape:version="1.0.2-2 (e86c870879, 2021-01-15)"
   width="71.240318mm"
   height="123.22357mm">
  <title
     id="title2891">Doll 2</title>
  <defs
     id="defs6">
    <linearGradient
       id="linearGradient3787">
      <stop
         id="stop3789"
         style="stop-color:#000000;stop-opacity:.95495"
         offset="0" />
      <stop
         id="stop3791"
         style="stop-color:#000000;stop-opacity:0"
         offset="1" />
    </linearGradient>
    <radialGradient
       id="radialGradient3664"
       gradientUnits="userSpaceOnUse"
       cy="286.92001"
       cx="374.48001"
       gradientTransform="matrix(0.56220061,0,0,0.58092189,-72.355219,-43.628567)"
       r="12.118"
       inkscape:collect="always">
      <stop
         id="stop3660"
         style="stop-color:#a04517"
         offset="0" />
      <stop
         id="stop3666"
         style="stop-color:#b17c4a"
         offset=".61333" />
      <stop
         id="stop3662"
         style="stop-color:#a04517"
         offset="1" />
    </radialGradient>
    <linearGradient
       id="linearGradient3737"
       y2="588.09003"
       gradientUnits="userSpaceOnUse"
       x2="410.16"
       gradientTransform="matrix(0.56220061,0,0,0.56220061,-77.308206,-36.176035)"
       y1="588.09003"
       x1="277.73001"
       inkscape:collect="always">
      <stop
         id="stop3701"
         style="stop-color:#000000;stop-opacity:.11765"
         offset="0" />
      <stop
         id="stop3703"
         style="stop-color:#000000;stop-opacity:0"
         offset="1" />
    </linearGradient>
    <linearGradient
       id="linearGradient3775"
       y2="728.94"
       xlink:href="#linearGradient3787"
       gradientUnits="userSpaceOnUse"
       x2="435.57001"
       gradientTransform="matrix(0.56220061,0,0,0.56220061,-77.308206,-36.176035)"
       y1="693.09003"
       x1="435.57001"
       inkscape:collect="always" />
    <linearGradient
       id="linearGradient3785"
       y2="714.40997"
       xlink:href="#linearGradient3787"
       gradientUnits="userSpaceOnUse"
       x2="243.00999"
       gradientTransform="matrix(0.56220061,0,0,0.56220061,-77.308206,-36.176035)"
       y1="663.96002"
       x1="258.09"
       inkscape:collect="always" />
    <linearGradient
       id="linearGradient3803"
       y2="862.53998"
       xlink:href="#linearGradient3787"
       gradientUnits="userSpaceOnUse"
       x2="384.59"
       gradientTransform="matrix(0.56220061,0,0,0.56220061,-77.308206,-36.176035)"
       y1="753.88"
       x1="383.59"
       inkscape:collect="always" />
    <linearGradient
       id="linearGradient3823"
       y2="677.90997"
       xlink:href="#linearGradient3787"
       gradientUnits="userSpaceOnUse"
       x2="340.32999"
       gradientTransform="matrix(0.56220061,0,0,0.56220061,-77.308206,-36.176035)"
       y1="620.27002"
       x1="343.64999"
       inkscape:collect="always" />
    <linearGradient
       id="linearGradient3835"
       y2="409.48999"
       xlink:href="#linearGradient3787"
       gradientUnits="userSpaceOnUse"
       x2="454.12"
       gradientTransform="matrix(0.56220061,0,0,0.56220061,-77.308206,-36.176035)"
       y1="412.92001"
       x1="477.22"
       inkscape:collect="always" />
    <linearGradient
       id="linearGradient3843"
       y2="378.79999"
       xlink:href="#linearGradient3787"
       gradientUnits="userSpaceOnUse"
       x2="341.29999"
       gradientTransform="matrix(0.56220061,0,0,0.56220061,-77.308206,-36.176035)"
       y1="378.79999"
       x1="283.73999"
       inkscape:collect="always" />
  </defs>
  <sodipodi:namedview
     id="namedview4"
     bordercolor="#666666"
     inkscape:pageshadow="2"
     guidetolerance="10"
     pagecolor="#ffffff"
     gridtolerance="10"
     inkscape:window-maximized="1"
     inkscape:zoom="0.87277822"
     objecttolerance="10"
     borderopacity="1"
     inkscape:current-layer="svg2"
     inkscape:cx="-56.711456"
     inkscape:cy="410.76409"
     inkscape:window-y="-8"
     inkscape:window-x="-8"
     inkscape:window-width="1920"
     showgrid="false"
     inkscape:pageopacity="0"
     inkscape:window-height="1017"
     inkscape:document-rotation="0"
     units="mm" />
  <path
     id="path3861"
     sodipodi:nodetypes="ccssscccccc"
     style="fill:#c8b7be;stroke-width:0.562201"
     d="m 201.39713,152.59069 c 1.97849,13.41579 3.44325,26.83159 8.31382,40.24738 0,0 5.66867,1.32269 5.66867,3.96807 0,2.64538 -3.02329,3.59016 -2.64538,5.85757 0.37791,2.26747 3.96807,3.02329 3.59016,5.66867 -0.37792,2.64538 -3.02329,1.32269 -1.88956,5.66867 3.26307,9.12788 2.93649,13.75648 1.13373,20.97401 -1.7006,2.45643 -18.70666,8.50273 -18.70666,8.50273 l -28.72114,-27.96555 2.45642,-63.86599 30.7996,0.94478 z" />
  <path
     id="path3859"
     sodipodi:nodetypes="ccccc"
     style="fill:#e0945e;stroke-width:0.562201"
     d="m 208.34593,229.85392 c -0.46584,7.42442 -0.009,10.22587 -0.14232,15.3239 L 191.3865,231.76203 c 4.08231,-4.35447 5.7738,-5.1131 12.10868,-5.41332 4.47945,3.33914 5.33905,-0.65783 4.85061,3.5051 z" />
  <path
     id="path3857"
     sodipodi:nodetypes="cccccc"
     style="fill:#c8b7be;stroke-width:0.562201"
     d="m 84.813587,135.39297 c -7.65774,14.94386 -23.184031,36.15794 -23.052476,45.34936 -0.942473,3.39884 -4.367512,48.39422 -2.456423,51.77361 0.06298,2.92305 12.786129,9.18636 19.273359,11.90404 l 31.366863,-1.32269 -25.130933,-107.7064 z" />
  <path
     id="path3805"
     sodipodi:nodetypes="cccccc"
     style="fill:#214478;stroke-width:0.562201"
     d="M 17.899343,362.1341 C 7.464338,385.42045 2.328073,414.66051 0,447.06575 c 35.563686,6.25167 24.536121,17.16005 125.29765,18.66113 57.07461,-0.28949 120.05232,-15.88948 143.95709,-33.89452 L 258.58979,390.70177 17.900468,362.13635 Z" />
  <path
     id="path3795"
     style="fill:url(#linearGradient3803);stroke-width:0.562201"
     d="m 58.648768,387.65239 c 0,0 35.036909,67.79015 86.449592,60.55463 51.41324,-7.23609 95.59097,-50.65147 95.59097,-50.65147 L 58.648768,387.64958 Z" />
  <path
     id="path3793"
     sodipodi:nodetypes="cccccc"
     style="fill:#cd87de;stroke-width:0.562201"
     d="m 18.280515,335.09788 c -3.337166,10.91737 -4.76881,21.83474 -6.09313,32.75212 37.69274,19.46057 62.943982,39.20393 107.841325,47.25352 49.62376,4.25519 97.04707,-14.94385 148.46593,-14.5014 -3.99258,-9.90035 -2.93401,-25.3991 -11.42504,-54.45981 L 18.280515,335.09507 Z" />
  <path
     id="path3759"
     style="fill:url(#linearGradient3775);stroke-width:0.562201"
     d="m 114.25041,358.32801 c 0,0 31.99034,22.85008 67.02556,12.18682 35.0369,-10.66326 39.60703,-16.75695 39.60703,-16.75695 l -106.63259,4.57007 z" />
  <path
     id="path3757"
     style="fill:url(#linearGradient3785);stroke-width:0.562201"
     d="m 28.943774,337.38041 c 0,0 16.37578,28.18199 41.130593,27.80138 24.75426,-0.38083 36.560473,-6.85491 36.560473,-6.85491 L 28.944336,337.37929 Z" />
  <path
     id="path3755"
     sodipodi:nodetypes="cccccc"
     style="fill:#214478;stroke-width:0.562201"
     d="m 28.826274,299.13953 c -5.564099,12.15871 -10.312446,24.35003 -10.147159,35.79306 32.52949,20.33817 74.114912,29.29403 112.968595,26.2216 52.85135,3.58313 86.85437,-2.33825 125.87109,-13.3725 -0.42735,-15.3835 -6.32588,-29.88828 -13.92627,-43.8376 L 28.826274,299.13728 Z" />
  <path
     id="path3807"
     sodipodi:nodetypes="cscc"
     style="fill:url(#linearGradient3823);stroke-width:0.562201"
     d="m 74.474717,312.53677 c 0,0 17.90384,34.20484 47.565543,32.33384 29.6617,-1.87055 44.89341,-25.65321 44.89341,-25.65321 l -92.459513,-6.67895 z" />
  <path
     id="path3865"
     sodipodi:nodetypes="cccsccccc"
     style="fill:#000000;fill-opacity:0.23922;stroke-width:0.562201"
     d="m 173.43327,158.07215 6.42426,81.44038 9.44779,-5.66867 c 0.0148,0.0739 18.28951,15.36494 18.64425,10.53339 0.21499,-2.92957 0.68117,-13.70533 0.27132,-16.57199 -2.56088,0.0245 -3.70973,-0.67734 -4.77213,-1.3364 -1.28794,-1.01101 -4.67171,-2.31284 -5.54976,-4.08731 -3.88694,-19.89179 -5.9329,-38.68728 -8.21544,-58.82868 l -16.2504,-5.47971 z" />
  <path
     id="path3863"
     sodipodi:nodetypes="ccccc"
     style="fill:#000000;fill-opacity:0.23922;stroke-width:0.562201"
     d="m 77.780457,149.71222 c 4.77511,26.94516 4.00101,54.59756 0.2291,80.53524 l 31.177393,3.59016 -7.74713,-82.0082 -23.659643,-2.12062 z" />
  <path
     id="path3867"
     sodipodi:nodetypes="ccccc"
     style="fill:#000000;fill-opacity:0.23922;stroke-width:0.562201"
     d="m 195.3366,228.19543 c 1.35738,-1.17309 4.11076,-1.81501 7.85732,-1.96427 0.73165,0.57575 1.74766,1.37593 5.03878,1.57995 -6.54964,1.10624 -8.53983,3.10998 -11.57121,2.85013 -1.05897,-0.0908 -1.24095,-1.18669 -1.32466,-2.46581 z" />
  <path
     id="path3686"
     sodipodi:nodetypes="cscccccc"
     style="fill:#cd87de;stroke-width:0.562201"
     d="m 88.771477,216.4623 c -0.27826,-1.11304 -48.494301,44.69158 -53.270757,60.09363 -5.521878,17.80264 -6.49679,22.74776 -6.451252,22.67242 30.671417,18.19 63.933459,22.99963 97.508072,26.17438 27.34713,6.93418 50.36812,7.18267 66.91312,-2.58056 19.04061,-6.26741 39.72678,-12.53426 50.32145,-18.80167 -17.53503,-26.63145 -23.5562,-63.64111 -63.2307,-85.90426 L 88.765297,216.4573 Z" />
  <path
     id="path3672"
     sodipodi:nodetypes="ccccccc"
     style="fill:#214478;stroke-width:0.562201"
     d="m 182.06305,219.49819 c 2.37979,-5.84464 2.15137,-18.06126 3.64868,-32.42043 1.50265,-25.14498 9.15993,-39.48166 12.41395,-62.07819 L 85.741777,122.91415 c 0.29457,14.45305 -7.65492,-2.69576 0.88367,43.35972 2.65775,17.52323 1.92182,33.59598 1.13975,51.11921 29.960793,7.69035 61.313593,9.52537 94.297903,2.10275 z" />
  <path
     id="path3670"
     sodipodi:nodetypes="cccccc"
     style="fill:#c8b7be;stroke-width:0.562201"
     d="m 106.07601,124.48066 c 10.45075,11.02925 19.84231,19.05804 33.10631,38.0593 8.00124,-12.50559 17.50693,-23.50674 26.98001,-34.53992 l 1.95511,-28.544619 -63.47808,-3.258511 1.43373,28.28375 z" />
  <path
     id="path3881"
     sodipodi:nodetypes="cccc"
     style="fill:#000000;fill-opacity:0.23922;stroke-width:0.562201"
     d="m 127.90626,147.71641 c 7.82921,5.00578 14.6026,5.109 20.61084,1.6174 -3.1571,4.28588 -6.31745,8.64945 -9.33534,13.18585 -3.59213,-4.98728 -7.1467,-9.9948 -11.2755,-14.8033 z" />
  <path
     id="path3827"
     sodipodi:nodetypes="cccccc"
     style="fill:url(#linearGradient3835);stroke-width:0.562201"
     d="m 186.70682,148.19428 -12.8266,72.95115 8.56119,-1.60334 c 1.73765,-7.74037 1.92059,-20.8835 3.07473,-31.32469 0.61364,-12.66863 5.30048,-27.52365 5.98069,-41.22111 l -4.79006,1.19749 z" />
  <path
     id="path3825"
     sodipodi:nodetypes="cscccc"
     style="fill:url(#linearGradient3843);stroke-width:0.562201"
     d="m 82.491697,132.96427 c 0.18679,19.02037 3.35094,23.37799 4.46517,35.06726 1.56044,16.3696 2.1277,32.73863 0.61206,49.10823 20.258903,6.0549 30.322293,5.69115 41.686613,6.14597 l -36.609373,-92.9936 -10.15447,2.67225 z" />
  <path
     id="path3847"
     sodipodi:nodetypes="cccsc"
     style="fill:#ac0d2c;stroke-width:0.562201"
     d="m 89.075067,142.11127 c -9.55685,-5.17961 -23.4224,2.32094 -30.353213,13.55466 7.055053,1.85504 11.785973,0.0887 13.384313,-0.16966 4.24191,-0.77927 14.15396,-5.53891 16.7086,-8.69387 1.68857,-2.08515 0.2605,-4.69145 0.2605,-4.69145 z" />
  <path
     id="path3873"
     sodipodi:nodetypes="cccc"
     style="fill:#000000;fill-opacity:0.23922;stroke-width:0.562201"
     d="m 85.499467,141.46474 c -0.20915,5.12452 -5.77211,9.53773 -13.40736,14.04939 2.75051,-0.55907 8.06421,-2.64121 15.97606,-7.30579 l -2.56903,-6.7436 z" />
  <path
     id="path3654"
     sodipodi:nodetypes="ccccccccccccccccccccc"
     style="fill:#caac65;stroke-width:0.562201"
     d="m 137.49178,0.003823 c -11.36826,1.9172727 -22.9614,4.2366314 -40.796083,17.726185 -18.27995,17.712693 -14.86627,28.356275 -16.03171,41.578109 -2.05777,19.503301 -3.67224,35.181952 0.44418,51.146203 -3.21511,7.46209 2.07907,17.80096 1.51091,23.27735 1.28845,10.49966 6.17634,19.97105 9.64512,29.84779 5.14992,13.72894 -0.0564,29.17484 0.33101,39.47042 24.015533,-0.74919 30.380763,-3.09216 36.472773,-17.485 -7.41712,-9.72494 -12.32569,-22.6966 -22.2058,-31.63109 -0.83155,-4.34463 -1.83722,-8.68937 -4.04054,-13.03406 3.03858,-8.42964 3.77951,-17.77847 5.21357,-26.85014 0.70668,-15.172109 -2.31734,-29.722421 -3.51915,-44.576324 l 69.21251,1.824735 c -4.21431,15.249691 -11.86074,28.69697 -12.3566,44.318839 -2.15857,8.19913 13.52092,27.04072 17.42372,40.01069 -0.59487,12.14016 -9.44778,21.18372 -15.64267,31.22406 -1.28716,0.53188 21.01787,20.32805 41.55843,4.19093 -4.46668,-14.36648 -17.15555,-28.58341 -14.22761,-45.16833 -2.20017,-14.32655 -9.51075,-25.02861 -1.50546,-42.51248 3.81728,-11.885486 2.36585,-50.643034 -9.25382,-73.771967 C 171.19035,15.576892 164.74191,5.8660012 137.49205,0 Z" />
  <path
     id="path2818"
     sodipodi:nodetypes="csssc"
     style="fill:#e0945e;stroke-width:0.562201"
     d="m 140.97743,15.706648 c 41.29982,11.22546 39.19269,70.410005 23.93231,86.202222 -9.60126,9.93689 -22.03882,7.83033 -26.81359,7.8753 -5.04165,0.0476 -23.33358,-2.12005 -30.7445,-12.439809 C 99.638817,86.603519 94.645907,24.11211 140.97743,15.707211 Z" />
  <path
     id="path3648"
     sodipodi:nodetypes="cc"
     style="fill:#560104;stroke-width:0.562201"
     d="m 113.31153,62.076393 c 1.84638,-8.132794 16.52083,-7.688094 17.82682,-0.244203" />
  <path
     id="path3592"
     sodipodi:nodetypes="ccc"
     style="fill:#ffffff;stroke:#560104;stroke-width:0.11244;stroke-opacity:0.67843"
     d="m 113.35089,61.913355 c 3.0225,-6.00093 16.02834,-5.684411 17.81726,0 -1.84672,5.509903 -16.08175,6.038034 -17.81726,0 z" />
  <path
     id="path3650"
     sodipodi:nodetypes="cc"
     style="fill:#560104;stroke-width:0.562201"
     d="m 146.08783,60.755221 c 3.42616,-9.005891 17.05436,-4.91487 16.45898,0.976824" />
  <path
     id="path3594"
     sodipodi:nodetypes="ccc"
     style="fill:#ffffff;stroke:#560104;stroke-width:0.11244;stroke-opacity:0.67843"
     d="m 146.04848,60.811441 c 1.05103,5.227342 14.16127,6.931372 16.5315,0.918411 -1.06728,-5.840702 -14.04658,-6.372544 -16.5315,-0.918411 z" />
  <path
     id="path3602"
     sodipodi:nodetypes="ccsscccccc"
     style="fill:#000000;fill-opacity:0.22619;stroke-width:0.562201"
     d="m 136.15937,71.999234 c -0.0894,-0.249314 1.10815,-1.774362 1.91581,-2.147494 1.39195,-1.654725 0.78573,-9.653547 0.41553,-11.006764 -0.0315,-0.115015 0.87917,2.510338 0.94366,2.961898 0.27016,1.891749 -0.36018,7.799409 0.60459,8.051275 0.71365,0.05889 2.48565,0.120873 3.09946,0.09936 1.93319,0.455624 2.80173,1.964891 2.84834,2.036459 -0.0521,0.189378 -1.54802,0.09822 -2.58388,-0.167524 -1.75524,0.296235 -2.52124,0.619208 -4.27643,0.02035 -0.9599,0.263334 -2.72999,0.24079 -2.96702,0.152643 z" />
  <path
     id="path3614"
     sodipodi:nodetypes="ccc"
     style="fill:#000000;stroke-width:0.562201"
     d="m 113.57577,46.758675 c 5.16252,-1.993001 13.41916,-1.648035 18.19506,-0.67644 -0.65002,-2.544857 -13.29042,-2.29271 -18.19506,0.67644 z" />
  <path
     id="path3616"
     sodipodi:nodetypes="ccc"
     style="fill:#000000;stroke-width:0.562201"
     d="m 145.32324,46.066606 c 3.72306,-1.290419 12.37122,-0.43593 17.45351,0.180168 -9.0087,-2.755401 -16.64338,-2.211191 -17.45351,-0.180168 z" />
  <path
     id="path3618"
     sodipodi:nodetypes="css"
     style="fill:#000000;stroke-width:0.562201"
     d="m 121.98629,57.533812 c 5.1393,-0.496193 6.50578,8.551633 0.18368,8.705114 -5.12839,0.125725 -6.36636,-8.108057 -0.18368,-8.705114 z" />
  <path
     id="path3620"
     sodipodi:nodetypes="css"
     style="fill:#000000;stroke-width:0.562201"
     d="m 154.44775,57.089673 c -5.47977,-0.519535 -6.85997,7.723512 -0.86955,8.314385 6.19151,0.610606 6.18589,-7.810653 0.86955,-8.314385 z" />
  <path
     id="path3624"
     sodipodi:rx="0.95238811"
     sodipodi:ry="1.0256487"
     style="fill:#ffffff;fill-opacity:0.64881;stroke-width:0.562201"
     sodipodi:type="arc"
     d="m 121.28318,60.521698 a 0.95238811,1.0256487 0 0 1 -1.19105,0.676783 0.95238811,1.0256487 0 0 1 -0.62881,-1.282449 0.95238811,1.0256487 0 0 1 1.19065,-0.677584 0.95238811,1.0256487 0 0 1 0.62956,1.282026"
     sodipodi:open="true"
     sodipodi:cy="60.218559"
     sodipodi:cx="120.37334"
     sodipodi:end="0.29879059"
     sodipodi:start="0.30003997"
     sodipodi:arc-type="arc" />
  <path
     id="path3624-1"
     sodipodi:rx="0.95238811"
     sodipodi:ry="1.0256487"
     style="fill:#ffffff;fill-opacity:0.64881;stroke-width:0.562201"
     sodipodi:type="arc"
     d="m 153.10094,60.130967 a 0.95238811,1.0256487 0 0 1 -1.19104,0.676783 0.95238811,1.0256487 0 0 1 -0.62881,-1.282449 0.95238811,1.0256487 0 0 1 1.19064,-0.677585 0.95238811,1.0256487 0 0 1 0.62956,1.282026"
     sodipodi:open="true"
     sodipodi:cy="59.827827"
     sodipodi:cx="152.1911"
     sodipodi:end="0.29879059"
     sodipodi:start="0.30003997"
     sodipodi:arc-type="arc" />
  <path
     id="path3656"
     sodipodi:rx="6.8428211"
     sodipodi:ry="7.0383306"
     style="fill:url(#radialGradient3664);stroke-width:0.562201"
     sodipodi:type="arc"
     d="m 144.98955,123.98519 a 6.8428211,7.0383306 0 0 1 -7.12066,6.0886 6.8428211,7.0383306 0 0 1 -6.49937,-6.78406 6.8428211,7.0383306 0 0 1 6.02348,-7.23383 6.8428211,7.0383306 0 0 1 7.51622,5.56289"
     sodipodi:open="true"
     sodipodi:cy="123.04411"
     sodipodi:cx="138.20818"
     sodipodi:end="6.0792667"
     sodipodi:start="0.13410946"
     sodipodi:arc-type="arc" />
  <path
     id="path3604"
     sodipodi:nodetypes="ccccsccccccscccc"
     style="fill:#000104;fill-opacity:0.23922;stroke-width:0.562201"
     d="m 102.48917,79.886908 c 0.34226,0.919423 7.50201,21.874662 28.32704,20.946472 8.3841,4.71686 16.20656,3.42223 20.30107,1.12642 7.15456,-0.0651 15.04673,-3.217529 21.5216,-14.862894 -0.0981,3.021435 -2.58759,11.840505 -2.2632,16.961034 0.64339,10.15615 4.61792,30.91035 9.38932,38.64229 -0.64822,1.0629 -4.59532,2.23481 -5.38965,2.86065 -1.35935,-2.39261 -4.95046,-8.86028 -6.12799,-10.89601 -7.88261,-13.39162 -7.03875,-17.24326 -7.09328,-18.96303 -1.71921,1.109 -9.95208,2.96038 -17.4569,3.03274 -3.66285,-1.2532 -9.15262,-0.91802 -11.05455,-0.39712 -5.25601,-0.36322 -13.85262,-4.81447 -18.40532,-2.38902 -4.58306,2.44181 -5.1185,11.78597 -9.48657,19.03274 0.61577,-2.57465 2.44231,-13.42423 2.42539,-15.61062 -2.17285,-1.08584 -5.51598,-16.01316 -4.97885,-18.55993 -0.92544,-2.028369 2.25498,-6.174653 0.29199,-20.923986 z" />
  <path
     id="path3668"
     sodipodi:rx="1.3085976"
     sodipodi:ry="1.7735937"
     style="fill:#ffffff;fill-opacity:0.625;stroke-width:0.645915"
     sodipodi:type="arc"
     d="m 184.12422,-10.064269 a 1.3085976,1.7735937 0 0 1 -1.36173,1.5342687 1.3085976,1.7735937 0 0 1 -1.24291,-1.7095187 1.3085976,1.7735937 0 0 1 1.15191,-1.822857 1.3085976,1.7735937 0 0 1 1.43737,1.401796"
     sodipodi:open="true"
     inkscape:transform-center-x="-1.3062564"
     inkscape:transform-center-y="-3.5300134e-06"
     transform="matrix(0.70629954,0.7079131,-0.52041793,0.85391169,0,0)"
     sodipodi:cy="-10.301413"
     sodipodi:cx="182.82738"
     sodipodi:end="6.0792667"
     sodipodi:start="0.13410946"
     sodipodi:arc-type="arc" />
  <path
     id="path3680"
     sodipodi:nodetypes="ccccccc"
     style="fill:url(#linearGradient3737);stroke-width:0.562201"
     d="m 79.736917,318.95148 c 14.35748,-13.97968 26.247453,-46.20165 37.457173,-66.89063 3.86929,0.59312 -7.67966,44.15017 2.54205,57.49063 4.08905,10.42376 29.94786,21.2748 33.54763,20.46017 -9.17286,-1.13874 -16.82554,-1.59935 -26.13502,-4.69072 -6.25898,-0.2138 -12.05021,-0.77713 -16.99813,-1.39207 l -30.413933,-4.97682 z" />
  <path
     id="path3849"
     sodipodi:nodetypes="cccsc"
     style="fill:#ac0d2c;stroke-width:0.562201"
     d="m 90.340017,157.43124 c -0.0203,7.19448 -13.95382,15.91534 -18.10679,22.78936 -1.24905,-4.41237 -3.03594,-12.27452 -0.0841,-17.90946 1.28181,-3.45084 7.24789,-9.61475 16.47022,-9.75812 2.09015,-0.0326 -0.4351,4.80367 1.72073,4.87856 z" />
  <path
     id="path3853"
     sodipodi:nodetypes="ccc"
     style="fill:#ac0d2c;stroke-width:0.562201"
     d="m 187.51639,149.80218 c 17.8465,4.22072 19.86311,-17.85381 24.41581,-28.32592 -8.42738,6.35455 -25.7263,12.23405 -24.41581,28.32592 z" />
  <path
     id="path3855"
     sodipodi:nodetypes="ccsc"
     style="fill:#ac0d2c;stroke-width:0.562201"
     d="m 191.33374,158.66808 c 15.41947,9.95938 18.79211,-2.16807 25.74878,-7.72464 -7.27825,-0.0256 -21.04485,-9.36457 -28.3231,-0.90778 -1.30464,1.51592 3.87907,6.00486 2.57443,8.63259 z" />
  <path
     id="path3901"
     sodipodi:nodetypes="cscccc"
     style="fill:#000000;fill-opacity:0.23922;stroke-width:0.562201"
     d="m 183.20994,160.47837 c -3.76917,9.67097 -4.18446,19.41616 -2.07857,28.8645 0.602,2.70104 -0.46548,4.74003 -1.48444,7.06518 -7.8084,-1.99767 -13.17011,-5.68048 -16.70804,-9.3449 5.77549,-8.78664 14.26528,-19.19185 15.45659,-28.12634 l 4.8144,1.54111 z" />
  <path
     id="path3851"
     sodipodi:nodetypes="ccccc"
     style="fill:#ac0d2c;stroke-width:0.562201"
     d="m 173.96736,145.91737 c 7.32885,-5.86881 12.47354,-4.1324 16.79462,-0.97806 1.5601,4.82756 1.86229,9.65523 0.89693,14.48285 -4.5902,1.99592 -10.09543,2.9271 -13.92964,-0.36727 -2.69266,-3.97949 -3.66015,-8.43807 -3.7618,-13.13751 z" />
  <path
     id="path3875"
     sodipodi:nodetypes="ccccc"
     style="fill:#000000;fill-opacity:0.23922;stroke-width:0.562201"
     d="m 89.839657,153.82753 c -2.89016,3.38524 -6.05659,2.62649 -8.67026,10.15559 0.032,3.3605 -1.75862,6.52997 -2.08733,8.59043 4.5315,-4.18069 9.26337,-8.72985 12.96547,-15.45433 l -2.20777,-3.29157 z" />
  <path
     id="path3905"
     sodipodi:nodetypes="csccscc"
     style="fill:#000000;fill-opacity:0.23922;stroke-width:0.562201"
     d="m 91.217047,160.69762 c 4.68336,10.62222 3.31221,23.0536 1.78201,34.48651 -0.35097,2.62233 -0.41326,5.32584 -0.35317,7.89499 5.69397,0.0495 11.326093,-0.40205 17.020063,-1.34473 -1.37081,-3.04836 -0.3098,-6.53108 -1.97675,-9.42867 -5.91998,-10.29164 -12.422393,-20.28701 -10.372603,-34.63099 l -6.09988,3.02301 z" />
  <path
     id="path3903"
     sodipodi:nodetypes="ccccccccccc"
     style="fill:#000000;fill-opacity:0.23922;stroke-width:0.562201"
     d="m 98.193957,16.592114 c -12.64726,19.752357 -11.49363,66.412759 -8.56344,93.347786 -2.11432,11.77642 -0.10166,21.54185 -0.91402,32.31305 l -4.09934,0.91099 c -0.70281,-2.04844 -1.53341,-5.97957 -1.99604,-9.31792 0.10267,-2.36933 -0.37217,-4.51655 -0.52821,-5.37576 -1.54555,-6.23761 -2.97972,-13.92346 -0.9165,-18.00054 -3.08778,-10.792559 -3.08429,-25.271478 -2.04737,-33.877082 0.37736,-6.835798 1.41624,-15.494812 1.78741,-20.059881 0.0585,-7.848882 0.52058,-14.062324 1.63263,-17.639606 1.84447,-6.57325 8.07826,-16.4781 15.64492,-22.30025 z" />
  <path
     id="path3845"
     sodipodi:nodetypes="ccccc"
     style="fill:#ac0d2c;stroke-width:0.562201"
     d="m 103.62482,140.61582 c -6.189833,-0.1219 -13.936953,0.0719 -19.771473,2.50719 1.17888,5.76986 2.56498,11.6488 6.79869,17.5609 6.06277,-0.39453 11.861873,-3.87025 16.718163,-6.9623 -0.84876,-4.54078 -0.55254,-9.18579 -3.74538,-13.10602 z" />
  <path
     id="path3869"
     sodipodi:nodetypes="ccccc"
     style="fill:#000000;fill-opacity:0.23922;stroke-width:0.562201"
     d="m 83.908447,143.33687 c 1.13778,6.54064 3.0912,12.55731 6.69805,17.2798 2.29839,0.0471 4.63844,-0.808 6.26629,-1.32545 -4.83773,-3.99567 -8.06477,-8.33687 -6.88752,-17.82738 -2.84726,0.51184 -5.78167,1.25214 -6.07682,1.87309 z" />
  <path
     id="path3871"
     sodipodi:nodetypes="ccccc"
     style="fill:#000000;fill-opacity:0.23922;stroke-width:0.562201"
     d="m 173.928,145.93986 c 0.15352,4.794 0.98464,8.99071 3.8151,13.17123 2.05849,1.85071 5.65124,2.48426 8.7782,1.86027 -2.8679,-5.86319 -6.68344,-11.67747 -6.09369,-18.57736 -2.08622,0.62719 -3.99748,1.50119 -6.49961,3.54614 z" />
  <path
     id="path3877"
     sodipodi:nodetypes="ccccc"
     style="fill:#000000;fill-opacity:0.23922;stroke-width:0.562201"
     d="m 200.62691,146.80565 c -2.87391,-0.291 -5.81484,-0.34791 -9.11215,0.84296 -0.24861,-1.83362 -1.75496,-3.09952 -3.49227,-4.2951 2.77209,-1.85436 9.77329,-3.35443 12.84516,-2.80988 3.5974,2.65415 1.43288,4.60493 -0.24085,6.26179 z" />
  <path
     id="path3879"
     sodipodi:nodetypes="ccccc"
     style="fill:#000000;fill-opacity:0.23922;stroke-width:0.562201"
     d="m 191.71603,158.80863 c 9.88405,6.56482 14.47779,2.68766 17.42147,0.44155 l 1.76621,-1.72607 c -7.3592,2.34393 -12.87214,0.59037 -19.30765,-2.08734 0.32203,1.08617 0.44038,2.39267 0.12042,3.37185 z" />
  <path
     id="path3883"
     sodipodi:nodetypes="cccc"
     style="fill:#000000;fill-opacity:0.23922;stroke-width:0.562201"
     d="m 126.5626,20.808619 c 7.86631,-3.635414 16.33193,-5.441933 26.65168,0.322073 -3.2629,-1.956795 -6.50803,-3.91657 -12.2391,-5.475271 C 132.5,17.5375 129.7441,19.163552 126.56204,20.808608 Z" />
  <g
     id="g3664"
     transform="matrix(0.56135731,-0.03076924,0.03076924,0.56135731,-3.189476,7.7599427)">
    <path
       id="path3600"
       sodipodi:nodetypes="cccc"
       style="fill:#c5352c"
       d="m 231.68,146.39 c 5.785,-4.5132 12.073,-8.3121 17.002,-4.2658 5.8113,-2.7108 11.104,-0.61775 15.734,5.5009 l -32.736,-1.2352 z" />
    <path
       id="path3652"
       sodipodi:nodetypes="ccc"
       style="fill:#dc5235"
       d="m 231.82,146.4 c 9.539,8.4476 23.766,10.174 32.395,1.2269 -10.607,-1.2713 -21.788,-1.6771 -32.395,-1.2269 z" />
    <path
       id="path2888"
       sodipodi:nodetypes="cscsccc"
       style="fill:#000000;fill-opacity:0.10714"
       d="m 231.78,146.34 c 3.0813,-0.56907 6.1654,-0.81047 9.4714,-1.4369 2.2522,-0.42677 5.171,0.25001 7.5148,0.54151 1.9146,-0.10256 4.8884,-0.57076 6.4885,-0.26205 3.1116,0.60028 5.4861,1.6382 8.8745,2.397 -6.7448,-0.82703 -18.394,-1.5601 -32.349,-1.2395 v -4e-5 z" />
  </g>
  <path
     id="path3662"
     sodipodi:nodetypes="ccc"
     style="fill:#000000;fill-opacity:0.10714;stroke-width:0.562201"
     d="m 133.85434,94.161182 c 6.01892,-4.127958 11.40874,-2.007675 13.66991,0.632419 -3.11875,-1.085328 -6.06277,-2.387216 -13.66991,-0.632419 z" />
  <metadata
     id="metadata78">
    <rdf:RDF>
      <cc:Work>
        <dc:format>image/svg+xml</dc:format>
        <dc:type
           rdf:resource="http://purl.org/dc/dcmitype/StillImage" />
        <cc:license
           rdf:resource="http://creativecommons.org/publicdomain/zero/1.0/" />
        <dc:publisher>
          <cc:Agent
             rdf:about="http://openclipart.org/">
            <dc:title>Openclipart</dc:title>
          </cc:Agent>
        </dc:publisher>
        <dc:title>Doll</dc:title>
        <dc:date>2010-06-11T21:05:54</dc:date>
        <dc:description>Image used for template by Albert Jankowski: &lt;a href=&quot;http://commons.wikimedia.org/wiki/File:Sweden._Doll_01.JPG&quot; target=&quot;_blank&quot;&gt;Sweden._Doll_01.JPG&lt;/a&gt;</dc:description>
        <dc:source>https://openclipart.org/detail/65941/doll-by-deluge-65941</dc:source>
        <dc:creator>
          <cc:Agent>
            <dc:title>Deluge</dc:title>
          </cc:Agent>
        </dc:creator>
        <dc:subject>
          <rdf:Bag>
            <rdf:li>baby</rdf:li>
            <rdf:li>child</rdf:li>
            <rdf:li>children</rdf:li>
            <rdf:li>doll</rdf:li>
            <rdf:li>dress</rdf:li>
            <rdf:li>girl</rdf:li>
            <rdf:li>kid</rdf:li>
            <rdf:li>play</rdf:li>
            <rdf:li>toy</rdf:li>
          </rdf:Bag>
        </dc:subject>
      </cc:Work>
      <cc:License
         rdf:about="http://creativecommons.org/publicdomain/zero/1.0/">
        <cc:permits
           rdf:resource="http://creativecommons.org/ns#Reproduction" />
        <cc:permits
           rdf:resource="http://creativecommons.org/ns#Distribution" />
        <cc:permits
           rdf:resource="http://creativecommons.org/ns#DerivativeWorks" />
      </cc:License>
    </rdf:RDF>
  </metadata>
</svg>
