<?xml version="1.0" encoding="UTF-8" standalone="no"?>
<svg
   xmlns:dc="http://purl.org/dc/elements/1.1/"
   xmlns:cc="http://creativecommons.org/ns#"
   xmlns:rdf="http://www.w3.org/1999/02/22-rdf-syntax-ns#"
   xmlns:svg="http://www.w3.org/2000/svg"
   xmlns="http://www.w3.org/2000/svg"
   xmlns:sodipodi="http://sodipodi.sourceforge.net/DTD/sodipodi-0.dtd"
   xmlns:inkscape="http://www.inkscape.org/namespaces/inkscape"
   viewBox="0 0 430.59508 307.75347"
   version="1.1"
   id="svg34"
   sodipodi:docname="dome.svg"
   width="113.92828mm"
   height="81.426437mm"
   inkscape:version="1.0.2-2 (e86c870879, 2021-01-15)">
  <metadata
     id="metadata40">
    <rdf:RDF>
      <cc:Work
         rdf:about="">
        <dc:format>image/svg+xml</dc:format>
        <dc:type
           rdf:resource="http://purl.org/dc/dcmitype/StillImage" />
        <dc:title></dc:title>
      </cc:Work>
    </rdf:RDF>
  </metadata>
  <defs
     id="defs38" />
  <sodipodi:namedview
     pagecolor="#ffffff"
     bordercolor="#666666"
     borderopacity="1"
     objecttolerance="10"
     gridtolerance="10"
     guidetolerance="10"
     inkscape:pageopacity="0"
     inkscape:pageshadow="2"
     inkscape:window-width="1920"
     inkscape:window-height="1017"
     id="namedview36"
     showgrid="false"
     units="mm"
     inkscape:zoom="1.9595885"
     inkscape:cx="180.68493"
     inkscape:cy="161.20554"
     inkscape:window-x="-8"
     inkscape:window-y="-8"
     inkscape:window-maximized="1"
     inkscape:current-layer="svg34" />
  <path
     d="m 401.34601,175.71896 -43.63991,-25.50523 -51.38905,-14.98811 -63.16603,-8.56475 -63.16604,-3.21187 -55.16244,7.11573 -62.603748,15.36669 -33.188576,22.48278 1.070604,-1.0706 20.341625,-65.3072 11.646785,43.76528 46.16585,-61.964499 16.05931,47.106719 29.97622,-43.894369 24.30991,36.270609 29.22029,-48.047596 36.40094,51.389046 34.25977,-46.035529 29.97746,55.671359 21.41159,-36.400929 32.11861,52.458999 5.35302,-50.31785 34.00532,73.68192 z"
     fill="none"
     stroke="#888888"
     stroke-linejoin="bevel"
     stroke-width="2.4825"
     id="path2" />
  <path
     d="m 366.26825,100.9584 -36.40094,-2.141159 -51.38904,-18.20047 -71.73067,-4.28244 -53.5302,10.70604 -44.96557,-4.28244 -57.682181,18.200469 58.753381,-56.741317 -1.0706,38.790338 58.94826,-35.827471 42.75862,29.154511 32.62629,-41.24554 36.96323,46.59781 34.25977,-27.835056 52.459,47.106725 z"
     fill="none"
     stroke="#888888"
     stroke-linejoin="bevel"
     stroke-width="2.4825"
     id="path4" />
  <path
     d="M 327.7274,98.823451 311.66809,52.787923 239.93742,34.587456 167.20134,47.877533 153.75362,87.046461"
     fill="none"
     stroke="#888888"
     stroke-linejoin="bevel"
     stroke-width="2.4825"
     id="path6" />
  <path
     d="m 109.328,43.150848 58.88247,4.282441 34.25978,-33.188576 40.68325,20.341625 22.48279,-21.411584 48.17668,40.683251 36.40093,2.141159 17.12927,46.035526"
     fill="none"
     stroke="#888888"
     stroke-linejoin="bevel"
     stroke-width="2.4825"
     id="path8" />
  <path
     d="M 29.542853,166.98056 1.9113582,202.56102"
     fill="none"
     stroke="#888888"
     stroke-linejoin="bevel"
     stroke-width="2.4825"
     id="path10" />
  <path
     d="m 401.61908,176.06651 27.6315,39.27071 -21.57543,-86.20738 -6.05619,46.93543 z"
     fill="none"
     stroke="#888888"
     stroke-linejoin="bevel"
     stroke-width="2.4825"
     id="path12" />
  <path
     d="m 61.337504,70.086 47.314016,-26.495749 34.8233,-28.767239 24.2255,32.551814"
     fill="none"
     stroke="#888888"
     stroke-linejoin="bevel"
     stroke-width="2.4825"
     id="path14" />
  <path
     d="m 144.23322,14.823012 h 59.04881 l 18.16819,-13.6264557 43.90803,12.1125017 -60.5619,0.757026"
     fill="none"
     stroke="#888888"
     stroke-linejoin="bevel"
     stroke-width="2.4825"
     id="path16" />
  <path
     d="m 263.08303,14.823012 11.35546,-4.542235"
     fill="none"
     stroke="#888888"
     stroke-linejoin="bevel"
     stroke-width="2.4825"
     id="path18" />
  <path
     d="m 363.77333,99.605441 43.90803,28.767239"
     fill="none"
     stroke="#888888"
     stroke-width="2.4825"
     id="path20" />
  <path
     d="M 20.458135,131.02151 50.361119,100.36136"
     fill="none"
     stroke="#888888"
     stroke-width="2.4825"
     id="path22" />
  <path
     d="m 20.458135,130.64913 9.462927,35.58047"
     fill="none"
     stroke="#888888"
     stroke-width="2.4825"
     id="path24" />
  <path
     d="m 2.2680938,204.81389 22.4827842,44.96557 81.365262,39.61205 112.41267,17.12927 117.7662,-13.91815 74.94179,-39.61205 18.20046,-37.47089 -18.20046,-47.10673 0.40148,84.30951 -41.08418,-80.02719 -32.11861,119.90735 -72.80063,-99.56573 -50.31785,113.48388 -50.31784,-94.21345 -57.81252,76.01298 -21.222908,-115.25266 -61.213547,77.78053 7.494179,-111.34272 54.914197,33.88119 78.911299,39.99064 99.29886,-20.87661 107.32728,-19.80665 38.54209,-4.55005 -40.68325,-74.674919 1.07059,78.154149 L 291.33014,79.284041 265.63624,192.76792 179.98866,110.59957 85.775209,172.69441 105.04563,66.705204 31.173807,139.50583 61.151266,69.916321 H 103.97567 L 204.6126,23.880795 181.05986,110.59957 292.40258,80.622111 369.48552,90.257571 287.17319,22.815429 292.40183,80.621741 204.6131,23.880422 287.04956,21.739264 220.67241,2.4688383 204.6131,22.810464 143.58822,14.245582 61.151763,69.916942 19.777135,131.25461 31.175297,139.50583 2.2690371,204.81302 Z"
     fill="none"
     stroke="#000000"
     stroke-linejoin="bevel"
     stroke-width="2.4825"
     id="path26" />
  <path
     d="m 164.93729,213.13028 16.12386,-100.38744 -76.01299,-44.965567 39.61205,-54.60016 35.32974,-5.3530207 40.68325,-6.423599 51.38904,8.564882 16.05931,12.8469507 58.88248,25.693901 23.55274,42.824414 37.47089,37.470889 3.47948,39.61205"
     fill="none"
     stroke="#000000"
     stroke-linejoin="bevel"
     stroke-width="2.4825"
     id="path28" />
  <path
     d="M 408.02394,127.73219 346.99906,48.508088 272.80824,9.9659963"
     fill="none"
     stroke="#000000"
     stroke-linejoin="bevel"
     stroke-width="2.4825"
     id="path30" />
  <path
     d="M 1.1975146,203.74642 20.467941,133.08695"
     fill="none"
     stroke="#000000"
     stroke-linejoin="bevel"
     stroke-width="2.4825"
     id="path32" />
</svg>
