<?xml version="1.0" encoding="UTF-8" standalone="no"?>
<svg
   xmlns:dc="http://purl.org/dc/elements/1.1/"
   xmlns:cc="http://creativecommons.org/ns#"
   xmlns:rdf="http://www.w3.org/1999/02/22-rdf-syntax-ns#"
   xmlns:svg="http://www.w3.org/2000/svg"
   xmlns="http://www.w3.org/2000/svg"
   xmlns:sodipodi="http://sodipodi.sourceforge.net/DTD/sodipodi-0.dtd"
   xmlns:inkscape="http://www.inkscape.org/namespaces/inkscape"
   id="svg2"
   sodipodi:docname="dresser.svg"
   viewBox="0 0 472.44092 332.59842"
   version="1.1"
   inkscape:version="1.0.1 (3bc2e813f5, 2020-09-07)"
   width="125mm"
   height="88mm">
  <title
     id="title4258">cross dresser</title>
  <defs
     id="defs52" />
  <sodipodi:namedview
     id="base"
     bordercolor="#666666"
     inkscape:pageshadow="2"
     inkscape:window-y="-8"
     pagecolor="#ffffff"
     inkscape:window-height="705"
     inkscape:window-maximized="1"
     inkscape:zoom="0.94538871"
     inkscape:window-x="-8"
     showgrid="false"
     borderopacity="1.0"
     inkscape:current-layer="g4263"
     inkscape:cx="328.10028"
     inkscape:cy="241.51788"
     inkscape:window-width="1366"
     inkscape:pageopacity="0.0"
     inkscape:document-units="px"
     fit-margin-top="4"
     fit-margin-left="4"
     fit-margin-right="4"
     fit-margin-bottom="4"
     inkscape:document-rotation="0"
     units="mm" />
  <g
     id="layer1"
     inkscape:label="Layer 1"
     inkscape:groupmode="layer"
     transform="translate(-175.05469,-212.4093)">
    <g
       id="g4263"
       transform="matrix(0.65663188,0,0,0.65663188,123.07223,175.94502)">
      <path
         d="M 326.50356,108.22522 536.6887,130.38606 536.33246,481.5722 326.49935,435.95846 V 108.22374 Z"
         style="fill:#d45500;fill-opacity:0.99608;stroke-width:0.495802"
         sodipodi:nodetypes="ccccc"
         id="rect2831"
         inkscape:connector-curvature="0" />
      <path
         d="m 320.10425,438.09189 -0.063,46.52007 10.42919,2.31405 c 23.24763,-13.64 48.16116,-8.13957 92.7942,0.59526 45.65242,8.93484 79.88355,19.94808 96.58214,42.90865 l 19.37146,4.26622 v -47.0238 L 320.10375,438.09219 Z"
         style="fill:#aa4400;fill-opacity:0.99608;stroke-width:0.495802"
         sodipodi:nodetypes="cccscccc"
         id="rect2833"
         inkscape:connector-curvature="0" />
      <path
         d="m 586.51675,472.09396 -47.69065,62.18838 v -47.02231 l 47.69065,-60.20518 z"
         style="fill:#ff7f2a;fill-opacity:0.99608;stroke-width:0.495802"
         sodipodi:nodetypes="ccccc"
         id="rect2838"
         inkscape:connector-curvature="0" />
      <path
         d="m 584.78145,109.21683 -48.44725,21.81526 v 351.5332 l 48.44725,-60.48779 z"
         style="fill:#ff7f2a;fill-opacity:0.99608;stroke-width:0.495802"
         sodipodi:nodetypes="ccccc"
         id="rect2841"
         inkscape:connector-curvature="0" />
      <path
         d="m 318.8464,104.1661 71.00869,-16.470035 199.8576,16.652485 -50.44285,25.30026 z"
         style="fill:#ff9955;stroke-width:0.495802"
         sodipodi:nodetypes="ccccc"
         id="path2848"
         inkscape:connector-curvature="0" />
      <path
         d="m 318.83698,104.1537 220.27966,24.02158 v 5.54554 L 318.83698,109.14097 Z"
         style="fill:#552200;stroke-width:0.495802"
         sodipodi:nodetypes="ccccc"
         id="path2850"
         inkscape:connector-curvature="0" />
      <path
         d="m 539.1925,127.8193 50.22965,-23.13658 v 5.69973 l -50.22965,23.49257 z"
         style="fill:#d45500;stroke-width:0.495802"
         sodipodi:nodetypes="ccccc"
         id="path2852"
         inkscape:connector-curvature="0" />
      <path
         d="m 320.17664,439.03391 -0.0445,-0.80151 8.33889,-4.05214 208.57377,45.59738 2.49364,9.97454 -219.36242,-50.7205 z"
         style="fill:#803300;stroke-width:0.495802"
         sodipodi:nodetypes="cccccc"
         id="path2854"
         inkscape:connector-curvature="0" />
      <path
         d="m 539.58418,489.66021 -3.56234,-10.15253 48.75911,-59.22349 1.7364,6.77017 -46.93307,62.60486 z"
         style="fill:#d45500;stroke-width:0.495802"
         sodipodi:nodetypes="ccccc"
         id="path2856"
         inkscape:connector-curvature="0" />
      <path
         d="m 331.95738,375.19451 194.92436,39.19212 v 55.39094 L 331.95738,426.61904 Z"
         style="fill:#aa4400;fill-opacity:0.99608;stroke-width:0.495802"
         sodipodi:nodetypes="ccccc"
         id="rect3101"
         inkscape:connector-curvature="0" />
      <g
         transform="matrix(0.49580152,0,0,0.49580152,262.89372,-3.1565851)"
         id="g2868">
        <ellipse
           transform="translate(-28.638,95.002)"
           style="fill:#ff9955;fill-opacity:0.99608"
           id="path2864"
           cx="259.75"
           cy="736.86218"
           rx="4.75"
           ry="6" />
        <ellipse
           transform="matrix(1.5417,0,0,1.5417,-174.91,-304.13)"
           style="fill:#803300;fill-opacity:0.99608"
           id="path2866"
           cx="259.75"
           cy="736.86218"
           rx="4.75"
           ry="6" />
      </g>
      <g
         transform="matrix(0.49580152,0,0,0.49580152,361.40799,13.670425)"
         id="g2878">
        <ellipse
           transform="translate(-28.638,95.002)"
           style="fill:#ff9955;fill-opacity:0.99608"
           id="path2880"
           cx="259.75"
           cy="736.86218"
           rx="4.75"
           ry="6" />
        <ellipse
           transform="matrix(1.5417,0,0,1.5417,-174.91,-304.13)"
           style="fill:#803300;fill-opacity:0.99608"
           id="path2882"
           cx="259.75"
           cy="736.86218"
           rx="4.75"
           ry="6" />
      </g>
      <path
         d="m 331.95738,316.68993 194.92436,36.21731 v 55.39095 L 331.95738,368.11446 Z"
         style="fill:#aa4400;fill-opacity:0.99608;stroke-width:0.495802"
         sodipodi:nodetypes="ccccc"
         id="path3110"
         inkscape:connector-curvature="0" />
      <path
         d="m 331.95738,257.19375 194.92436,33.2425 v 55.39094 L 331.95738,308.61828 Z"
         style="fill:#aa4400;fill-opacity:0.99608;stroke-width:0.495802"
         sodipodi:nodetypes="ccccc"
         id="path3112"
         inkscape:connector-curvature="0" />
      <path
         d="m 331.95738,197.69757 194.92436,30.26769 V 283.3562 L 331.95738,249.1221 Z"
         style="fill:#aa4400;fill-opacity:0.99608;stroke-width:0.495802"
         sodipodi:nodetypes="ccccc"
         id="path3114"
         inkscape:connector-curvature="0" />
      <path
         d="m 331.95738,139.19299 194.92436,25.30967 v 55.39095 L 331.95738,190.61752 Z"
         style="fill:#aa4400;fill-opacity:0.99608;stroke-width:0.495802"
         sodipodi:nodetypes="ccccc"
         id="path3116"
         inkscape:connector-curvature="0" />
      <g
         transform="matrix(0.49580152,0,0,0.49580152,262.89372,-63.644365)"
         id="g3118">
        <ellipse
           transform="translate(-28.638,95.002)"
           style="fill:#ff9955;fill-opacity:0.99608"
           id="path3120"
           cx="259.75"
           cy="736.86218"
           rx="4.75"
           ry="6" />
        <ellipse
           transform="matrix(1.5417,0,0,1.5417,-174.91,-304.13)"
           style="fill:#803300;fill-opacity:0.99608"
           id="path3122"
           cx="259.75"
           cy="736.86218"
           rx="4.75"
           ry="6" />
      </g>
      <g
         transform="matrix(0.49580152,0,0,0.49580152,361.40799,-47.808465)"
         id="g3124">
        <ellipse
           transform="translate(-28.638,95.002)"
           style="fill:#ff9955;fill-opacity:0.99608"
           id="path3126"
           cx="259.75"
           cy="736.86218"
           rx="4.75"
           ry="6" />
        <ellipse
           transform="matrix(1.5417,0,0,1.5417,-174.91,-304.13)"
           style="fill:#803300;fill-opacity:0.99608"
           id="path3128"
           cx="259.75"
           cy="736.86218"
           rx="4.75"
           ry="6" />
      </g>
      <g
         transform="matrix(0.49580152,0,0,0.49580152,262.89372,-121.15735)"
         id="g3130">
        <ellipse
           transform="translate(-28.638,95.002)"
           style="fill:#ff9955;fill-opacity:0.99608"
           id="path3132"
           cx="259.75"
           cy="736.86218"
           rx="4.75"
           ry="6" />
        <ellipse
           transform="matrix(1.5417,0,0,1.5417,-174.91,-304.13)"
           style="fill:#803300;fill-opacity:0.99608"
           id="path3134"
           cx="259.75"
           cy="736.86218"
           rx="4.75"
           ry="6" />
      </g>
      <g
         transform="matrix(0.49580152,0,0,0.49580152,361.40799,-106.31305)"
         id="g3136">
        <ellipse
           transform="translate(-28.638,95.002)"
           style="fill:#ff9955;fill-opacity:0.99608"
           id="path3138"
           cx="259.75"
           cy="736.86218"
           rx="4.75"
           ry="6" />
        <ellipse
           transform="matrix(1.5417,0,0,1.5417,-174.91,-304.13)"
           style="fill:#803300;fill-opacity:0.99608"
           id="path3140"
           cx="259.75"
           cy="736.86218"
           rx="4.75"
           ry="6" />
      </g>
      <g
         transform="matrix(0.49580152,0,0,0.49580152,262.89372,-182.63674)"
         id="g3142">
        <ellipse
           transform="translate(-28.638,95.002)"
           style="fill:#ff9955;fill-opacity:0.99608"
           id="path3144"
           cx="259.75"
           cy="736.86218"
           rx="4.75"
           ry="6" />
        <ellipse
           transform="matrix(1.5417,0,0,1.5417,-174.91,-304.13)"
           style="fill:#803300;fill-opacity:0.99608"
           id="path3146"
           cx="259.75"
           cy="736.86218"
           rx="4.75"
           ry="6" />
      </g>
      <g
         transform="matrix(0.49580152,0,0,0.49580152,361.40799,-167.79244)"
         id="g3148">
        <ellipse
           transform="translate(-28.638,95.002)"
           style="fill:#ff9955;fill-opacity:0.99608"
           id="path3150"
           cx="259.75"
           cy="736.86218"
           rx="4.75"
           ry="6" />
        <ellipse
           transform="matrix(1.5417,0,0,1.5417,-174.91,-304.13)"
           style="fill:#803300;fill-opacity:0.99608"
           id="path3152"
           cx="259.75"
           cy="736.86218"
           rx="4.75"
           ry="6" />
      </g>
      <g
         transform="matrix(0.49580152,0,0,-0.49580152,262.89372,583.11714)"
         id="g881">
        <ellipse
           transform="translate(-28.638,95.002)"
           style="fill:#ff9955;fill-opacity:0.99608"
           id="ellipse877"
           cx="259.75"
           cy="736.86218"
           rx="4.75"
           ry="6" />
        <ellipse
           transform="matrix(1.5417,0,0,1.5417,-174.91,-304.13)"
           style="fill:#803300;fill-opacity:0.99608"
           id="ellipse879"
           cx="259.75"
           cy="736.86218"
           rx="4.75"
           ry="6" />
      </g>
      <g
         transform="matrix(0.49580152,0,0,-0.49580152,361.40799,596.96504)"
         id="g887">
        <ellipse
           transform="translate(-28.638,95.002)"
           style="fill:#ff9955;fill-opacity:0.99608"
           id="ellipse883"
           cx="259.75"
           cy="736.86218"
           rx="4.75"
           ry="6" />
        <ellipse
           transform="matrix(1.5417,0,0,1.5417,-174.91,-304.13)"
           style="fill:#803300;fill-opacity:0.99608"
           id="ellipse885"
           cx="259.75"
           cy="736.86218"
           rx="4.75"
           ry="6" />
      </g>
    </g>
  </g>
  <metadata
     id="metadata50">
    <rdf:RDF>
      <cc:Work>
        <dc:format>image/svg+xml</dc:format>
        <dc:type
           rdf:resource="http://purl.org/dc/dcmitype/StillImage" />
        <cc:license
           rdf:resource="http://creativecommons.org/publicdomain/zero/1.0/" />
        <dc:publisher>
          <cc:Agent
             rdf:about="http://openclipart.org/">
            <dc:title>Openclipart</dc:title>
          </cc:Agent>
        </dc:publisher>
        <dc:title>cross dresser</dc:title>
        <dc:date>2010-05-02T17:48:50</dc:date>
        <dc:description />
        <dc:source>https://openclipart.org/detail/58477/chest-of-drawers-by-sheikh_tuhin</dc:source>
        <dc:creator>
          <cc:Agent>
            <dc:title>sheikh_tuhin</dc:title>
          </cc:Agent>
        </dc:creator>
        <dc:subject>
          <rdf:Bag>
            <rdf:li>bed room</rdf:li>
            <rdf:li>chest of drawers</rdf:li>
            <rdf:li>furniture</rdf:li>
            <rdf:li>home</rdf:li>
            <rdf:li>house</rdf:li>
          </rdf:Bag>
        </dc:subject>
        <dc:contributor>
          <cc:Agent>
            <dc:title>Paul Sherman, wpclipart</dc:title>
          </cc:Agent>
        </dc:contributor>
      </cc:Work>
      <cc:License
         rdf:about="http://creativecommons.org/publicdomain/zero/1.0/">
        <cc:permits
           rdf:resource="http://creativecommons.org/ns#Reproduction" />
        <cc:permits
           rdf:resource="http://creativecommons.org/ns#Distribution" />
        <cc:permits
           rdf:resource="http://creativecommons.org/ns#DerivativeWorks" />
      </cc:License>
    </rdf:RDF>
  </metadata>
</svg>
