<?xml version="1.0" encoding="UTF-8" standalone="no"?>
<svg
   xmlns:dc="http://purl.org/dc/elements/1.1/"
   xmlns:cc="http://creativecommons.org/ns#"
   xmlns:rdf="http://www.w3.org/1999/02/22-rdf-syntax-ns#"
   xmlns:svg="http://www.w3.org/2000/svg"
   xmlns="http://www.w3.org/2000/svg"
   xmlns:sodipodi="http://sodipodi.sourceforge.net/DTD/sodipodi-0.dtd"
   xmlns:inkscape="http://www.inkscape.org/namespaces/inkscape"
   id="Layer_1"
   space="preserve"
   sodipodi:docname="duck.svg"
   viewBox="0 0 380.32967 322.80275"
   sodipodi:version="0.32"
   version="1.1"
   inkscape:version="1.0.2-2 (e86c870879, 2021-01-15)"
   width="100.62889mm"
   height="85.408226mm">
  <defs
     id="defs55" />
  <sodipodi:namedview
     id="base"
     bordercolor="#666666"
     inkscape:pageshadow="2"
     inkscape:window-width="1920"
     pagecolor="#ffffff"
     inkscape:zoom="1.0179556"
     inkscape:window-x="-8"
     borderopacity="1.0"
     inkscape:current-layer="Layer_1"
     inkscape:cx="143.50183"
     inkscape:cy="171.91967"
     inkscape:window-y="-8"
     inkscape:window-height="1017"
     inkscape:pageopacity="0.0"
     inkscape:document-rotation="0"
     showgrid="false"
     units="mm"
     inkscape:window-maximized="1" />
  <path
     id="path3"
     style="clip-rule:evenodd;fill-rule:evenodd;stroke-width:0.912768"
     d="m 178.99953,319.2467 c -5.95856,1.37737 -10.24218,0.28387 -16.09668,2.62786 -3.75513,1.50333 -7.46644,0.81784 -11.49723,0.43813 -11.42786,-1.07707 -24.22396,-0.21907 -36.35465,-0.21907 -3.02857,0 -21.923791,-6.30723 -22.119121,-8.10173 -0.64077,-5.88918 18.369461,-8.00498 17.957801,-17.736 -0.1287,-3.03222 -4.36577,-1.08164 -3.94224,-4.1604 0.34046,-2.46996 3.93494,-4.00523 5.91291,-4.59853 7.05661,-2.11671 15.29526,4.26445 22.33818,5.47478 6.17488,1.06064 12.58161,-0.24736 17.08247,-0.87625 6.63126,-0.92555 10.68943,4.44427 15.76716,-2.62786 3.71223,-5.16992 12.50219,-25.64332 8.32262,-29.34095 -3.5963,-3.18191 -19.74592,-1.28791 -25.18602,-2.18973 -22.06161,-3.65838 -43.4496,-10.38457 -63.729491,-19.70667 -9.82687,-4.51638 -19.31145,-10.24674 -26.93671,-18.17322 C 50.803019,209.95819 39.795029,202.63139 31.39117,192.0305 21.195546,179.16959 14.112462,167.17216 12.557104,149.9893 10.810066,130.69976 15.425023,111.95423 29.638654,98.314734 35.486759,92.703033 42.694899,86.410407 49.677579,82.220799 53.053909,80.195366 60.534039,76.335268 60.955739,71.819802 61.831089,62.453885 44.347919,61.497303 38.179429,61.309273 28.412806,61.01171 18.774883,62.878322 8.613944,64.156198 -6.566308,66.064797 1.724368,55.581651 7.737687,49.486182 24.304435,32.703108 36.414139,-0.1383026 64.471719,4.381982e-4 87.286369,0.1136215 109.37537,19.534597 112.3227,43.135139 c 1.31074,10.492274 -0.073,20.415893 -3.17552,30.435353 -1.45404,4.697107 -3.17096,9.702729 -4.81851,14.232799 -2.40788,6.618485 -8.621091,14.231889 0.98579,14.231889 24.56626,0 48.43515,0.40618 74.57045,1.97067 25.68805,1.53801 50.84851,12.16264 74.67907,20.80108 7.08765,2.56853 14.7403,8.32079 22.99446,8.32079 11.67979,0 24.34263,0.50842 35.91653,-1.423 7.06392,-1.1793 20.54003,-2.5165 27.37484,-0.3286 14.97671,4.79386 -10.70038,13.86952 -16.5348,16.20256 -17.42201,6.96716 14.49842,8.46227 19.6017,11.60493 10.7725,6.63309 -10.42564,2.07564 -14.01556,2.84602 2.3942,1.87847 2.43436,5.52225 4.26994,6.02244 5.38989,1.46682 11.2453,2.42158 16.64433,3.50321 2.84419,0.56957 30.96111,3.27136 29.45595,7.55407 -0.9648,2.74561 -20.66599,5.12793 -24.0907,6.13107 -6.06078,1.77442 -11.86142,3.98971 -17.30061,6.56828 -6.71341,3.18282 -15.3838,2.48729 -21.90006,5.25572 -8.73063,3.70858 -17.22303,11.03902 -25.62323,16.63977 -6.09273,4.06364 -14.24376,5.20643 -21.0238,7.88358 -7.48379,2.95463 -13.87773,8.10447 -20.84581,11.23892 -13.5327,6.08908 -23.16332,13.0818 -36.42311,18.97646 -3.77065,1.67675 -10.84369,3.73231 -13.02977,6.78917 -1.1218,1.56813 -2.72827,8.13916 -3.72319,10.50962 -2.69723,6.42954 -9.49461,17.65659 -8.9789,24.52335 0.44817,5.9695 11.23162,17.23946 1.97067,20.1448 -3.13901,0.98487 -4.41141,-2.61965 -7.2273,-0.87626 -0.87991,0.54492 0.44269,4.34752 -1.97067,5.91291 -0.2647,0.13692 -0.82149,0.31947 -1.11358,0.41075" />
  <path
     id="path5"
     style="clip-rule:evenodd;fill:#ff7f00;fill-rule:evenodd;stroke-width:0.912768"
     d="m 178.12327,316.62705 c -2.63699,0.58783 -5.18726,-0.32038 -7.8845,0 -3.93585,0.46734 -7.61979,3.19287 -11.16863,3.72227 -2.59409,0.38702 -8.27699,-1.63659 -11.60676,-1.53254 -13.72074,0.42901 -31.10989,3.39185 -42.92477,-2.62786 -3.77612,-1.9232 -8.711461,-3.8537 -2.18973,-5.91291 4.49265,-1.41844 9.63975,2.05738 15.32995,2.40971 10.10343,0.62524 22.82742,0.73569 32.41241,-1.31348 6.75174,-1.444 11.17319,-4.7254 2.62786,-6.35013 -6.9407,-1.31986 -13.74447,-0.10953 -20.80474,-2.18881 -2.53019,-0.74482 -14.9265,-8.99625 -15.76807,-5.47479 -0.42718,1.7872 11.75189,7.28298 14.01556,7.88358 6.36199,1.68771 12.34884,3.2385 18.83406,2.84601 v 0.43722 c -7.26381,2.38233 -17.36268,1.20394 -25.62232,1.09441 -3.54611,-0.0475 -7.41351,0.90455 -10.73142,-0.65628 -5.57702,-2.6233 -3.37907,-0.73569 -1.7516,-5.91292 1.56357,-4.97367 4.38494,-6.6486 0.87534,-12.26213 8.12273,-4.66698 13.75542,4.5894 19.92939,7.22548 5.52134,2.35677 17.95324,3.54702 24.30885,3.06507 14.84253,-1.1227 19.82077,-19.14349 23.21444,-33.50043 1.48508,-6.28167 3.14084,-25.46624 14.4546,-20.36386 0.51207,0.23093 1.06794,-0.20172 1.53345,-0.21907 -1.9734,5.63179 3.68029,11.89612 0.43722,17.51695 -5.42823,9.40973 -5.25572,-2.52564 -7.00824,-5.69294 -4.07277,1.89491 -1.81275,8.17567 -0.43721,10.94774 1.05607,2.12858 2.80494,0.0885 3.28505,3.06508 0.59695,3.7104 -3.70036,6.89231 -4.81759,10.0724 -0.78863,2.24267 -2.45078,9.0428 -2.40971,10.29055 0.15335,4.69528 6.6769,10.80079 5.91383,14.89 -0.69918,3.74508 -4.27541,3.27775 -6.78917,0.43721 -2.90443,-3.28231 0.56409,-12.89651 -2.62878,-11.38679 -7.56685,3.59631 3.11254,15.0333 -2.60139,19.49674" />
  <path
     id="path7"
     style="clip-rule:evenodd;fill-rule:evenodd;stroke-width:0.912768"
     d="m 165.86479,314.87454 c -5.94212,-1.67037 2.87522,-5.94213 0,0" />
  <path
     id="path9"
     style="clip-rule:evenodd;fill-rule:evenodd;stroke-width:0.912768"
     d="m 169.58888,313.12202 c -1.32899,-0.70466 -2.28739,-1.60282 -2.62786,-3.06416 4.66425,-2.75656 7.06483,-0.31947 2.62878,3.0669" />
  <path
     id="path11"
     style="clip-rule:evenodd;fill-rule:evenodd;stroke-width:0.912768"
     d="m 161.70256,316.18892 c -6.92791,-2.48273 2.48273,-5.61352 0,0" />
  <path
     id="path13"
     style="clip-rule:evenodd;fill-rule:evenodd;stroke-width:0.912768"
     d="m 169.80795,303.92132 c -4.39407,0.84339 -2.66163,-3.1381 -0.43813,-4.16132 3.84275,-1.76164 2.61052,3.06691 0.43813,4.16223" />
  <path
     id="path15"
     style="clip-rule:evenodd;fill-rule:evenodd;stroke-width:0.912768"
     d="m 173.52292,299.32096 c -5.69568,-3.47765 4.49082,-5.35795 0,0" />
  <path
     id="path17"
     style="clip-rule:evenodd;fill-rule:evenodd;stroke-width:0.912768"
     d="m 176.37075,292.97722 c -4.54558,-3.69671 3.44114,-4.2535 0,0" />
  <path
     id="path19"
     style="clip-rule:evenodd;fill:#996633;fill-rule:evenodd;stroke-width:0.912768"
     d="m 159.95005,297.57757 c -5.47205,1.35547 -15.67132,1.3509 -19.71032,-1.31347 4.49994,-0.6864 10.67939,0.90912 13.79649,0.21906 2.03274,-0.44999 -0.5294,-3.23028 3.06599,-2.62786 2.31843,0.38337 3.35899,2.19978 2.83871,3.7241" />
  <path
     id="path21"
     style="clip-rule:evenodd;fill-rule:evenodd;stroke-width:0.912768"
     d="m 179.43766,289.03406 c -7.61249,-2.35494 3.13992,-5.95125 0,0" />
  <path
     id="path23"
     style="clip-rule:evenodd;fill-rule:evenodd;stroke-width:0.912768"
     d="m 181.84736,283.77651 c -2.3376,-1.07159 -4.80663,-4.72996 0,-4.16039 -1.10718,-2.07381 0.31491,-9.39239 2.84693,-7.66361 3.60361,2.46082 -0.28022,8.29615 -2.18973,7.88267 0.0803,0.30578 -0.22911,0.28113 -0.43813,0.21815 1.23224,2.13588 0.0639,2.54663 -0.21907,3.7241" />
  <path
     id="path25"
     style="clip-rule:evenodd;fill:#ffffcc;fill-rule:evenodd;stroke-width:0.912768"
     d="m 200.90597,254.22107 c -2.39145,0.43995 -2.83597,-1.08802 -2.18973,-3.94042 0.8936,-3.9386 2.34034,-1.73974 4.38038,-3.72227 0.82696,-0.80415 -0.28022,-2.47634 0.21815,-2.84601 0.4217,-0.314 2.98749,-0.38702 3.28596,-0.87626 1.11267,-1.82554 3.18191,-1.61743 0.87535,-3.94042 3.45391,-1.93233 18.23529,-8.29068 17.30153,-12.91933 -1.03873,-5.14984 -6.65317,0.66085 -3.50412,-4.59761 3.10067,-5.17814 5.66373,-1.37007 4.16131,-6.5692 -0.41166,-1.42666 -2.90169,-0.66449 -3.28505,-2.40879 -0.0621,-0.28388 1.96884,-2.4234 2.18881,-3.50321 0.76582,-3.75513 0.3432,-5.34335 -0.43721,-8.97708 -1.31713,-6.12924 -1.92868,-2.69632 1.97067,-4.59853 1.29248,-0.62981 3.18099,-0.17433 4.38037,-0.43721 1.55171,-0.34046 -0.17342,-2.60869 2.84693,-2.84601 4.30005,-0.33773 9.94643,6.90144 12.26487,6.56828 4.7181,-0.67728 0.17251,-5.55237 0.21815,-8.53895 0.0721,-4.71171 1.17656,-1.59187 5.03757,0.65719 5.5834,3.2522 3.92034,3.07877 6.13198,-0.21906 0.93011,-1.3865 -2.92817,-3.11072 -0.21816,-3.72227 1.81185,-0.40892 2.55119,2.39784 3.94134,3.06599 6.22325,2.99114 2.29014,2.33577 4.59944,-2.40971 1.15283,-2.36864 -2.23537,-3.16822 1.09441,-3.28506 1.07524,-0.0374 4.16953,3.63921 5.03757,4.16132 4.01527,2.41427 10.34805,3.45482 14.89182,3.94133 7.55316,0.80871 19.88831,-0.33772 26.06136,3.50321 -5.30318,4.5109 -12.73403,10.16824 -20.3666,14.67001 -9.63336,5.6829 -20.60575,7.63075 -31.09802,12.69935 -21.54134,10.41469 -36.83934,20.96629 -59.81372,31.11628" />
  <path
     id="path27"
     style="clip-rule:evenodd;fill:#d59758;fill-rule:evenodd;stroke-width:0.912768"
     d="m 369.0927,178.68035 c -10.10892,2.03273 -23.3687,-2.99114 -32.63148,0.21815 6.37204,0.79867 13.05624,0.95476 18.61591,2.62786 v 0.43722 c -4.79842,1.15921 -31.60917,1.20576 -32.63147,-1.53345 -0.35872,1.42026 -2.03912,2.28192 -4.81759,2.40879 0.073,0.21907 0,0.29209 -0.21907,0.21907 2.12767,0.62342 5.36161,0.91459 7.66543,1.09441 -3.24763,1.21307 -9.23539,1.3445 -13.35928,1.97158 8.19758,1.94876 17.73418,0.71104 25.18511,1.96975 v 0.43813 c -6.44871,1.62929 -16.85518,-2.97654 -22.55725,0.21815 5.57154,1.08802 10.83092,2.05556 15.98715,3.06508 -0.0164,0.009 -0.5212,0.24006 -0.21907,0.43813 -8.47779,1.95332 -19.51134,-0.84158 -28.2511,-1.75252 -4.11658,-0.429 -9.43529,0.24645 -13.14021,-0.87534 -6.92518,-2.09663 -1.84836,-0.52576 1.53345,-2.4088 3.80168,-2.1158 6.12833,-3.22116 12.48302,-5.03666 5.48574,-1.56631 4.59762,-3.4457 7.88449,-5.47478 2.84602,-1.75708 7.52761,-0.61064 10.51236,-2.4088 3.85462,-2.32208 1.13275,-4.30553 5.91383,-5.03574 6.45966,-0.9867 17.04412,3.71405 22.55724,4.81668 3.83363,0.76672 20.77188,2.58313 19.92848,4.37946 -0.009,0.0365 -0.38336,0.17343 -0.429,0.21907" />
  <path
     id="path29"
     style="clip-rule:evenodd;fill:#e4bc96;fill-rule:evenodd;stroke-width:0.912768"
     d="m 176.80888,256.84984 c -20.02614,1.44492 -38.18293,-5.34061 -57.15939,-9.41429 C 102.2649,243.70233 86.555249,235.70282 72.783389,226.63447 57.613179,216.64604 41.851499,200.69085 29.202351,185.68859 15.605751,169.56179 12.798075,150.49771 16.2812,130.72988 21.066845,103.5668 40.851099,96.962924 58.986899,78.836254 c 9.28377,-9.279205 2.96011,-12.9175 -6.24151,-18.173221 -2.41427,-1.379193 -16.41066,-1.391972 -16.97293,-2.408796 -1.461343,-2.644291 4.81485,-4.441532 5.03757,-6.78826 0.39066,-4.129364 -5.36343,-6.395769 -6.789173,-9.962868 -1.678582,-4.201473 -3.487689,-9.680823 -3.06599,-13.685138 1.265097,-12.006557 15.117273,-18.0673395 25.404173,-23.2098774 8.88489,-4.4415315 22.63392,-0.1916814 30.87896,4.8166789 9.97291,6.0589575 10.71407,15.1702125 12.48302,23.4289425 1.977061,9.23174 4.332911,12.210104 3.065991,22.115468 -0.21907,-0.07302 -0.29209,0 -0.21907,0.219064 -3.119841,-1.752515 -3.240321,5.294058 -4.817591,7.663605 -0.39066,-0.218152 -0.39705,-0.719262 -0.65719,-0.875345 -1.88578,1.82006 -2.74926,5.759569 -5.25572,7.882668 -0.28205,-0.24736 -0.22454,-1.068852 -0.43813,-1.313473 -3.09976,3.185562 -3.3809,8.952433 -6.57011,12.480283 0.31673,-2.07381 0.59056,-5.039395 0.21907,-7.006411 -3.05413,3.190126 -3.59905,9.773013 -5.69385,14.231887 -1.65485,3.524199 -1.34634,6.517167 -3.72319,3.72227 -1.57635,-1.853833 3.0952,-8.962474 -0.87626,-3.72227 -2.28831,3.019438 -2.67806,7.225473 -5.25572,10.072403 -5.03848,5.564236 -30.96932,30.786766 -22.55724,37.660826 1.24045,1.01317 6.25885,0.56683 7.88449,0.65719 -3.16913,4.88514 1.84562,3.63739 2.62786,6.35013 0.51207,1.77534 -3.20381,2.2372 -0.21906,5.47388 1.72239,1.86752 5.42276,0.85891 7.44636,2.18973 0.2784,0.18255 1.60374,4.57844 1.7516,4.81759 0.37059,0.59969 2.57949,-1.13548 3.06599,-0.21906 0.3003,0.56591 -1.06155,2.06194 -0.65719,2.62786 1.15557,1.61468 1.70414,3.95502 3.06599,5.69293 3.68211,4.70076 10.09248,10.0076 15.32995,10.94775 4.57205,0.82058 7.1561,-1.15922 11.82583,-1.53254 3.200161,-0.25558 6.506211,1.32899 10.950481,0.21815 4.80025,-1.19846 8.73246,-2.50555 12.26396,-0.65628 1.52158,0.79685 1.37006,3.70675 3.06599,4.81668 3.05138,1.99714 8.09625,0.62707 11.60676,1.31347 7.66543,1.50151 14.9192,2.62695 23.10491,2.62695 4.99193,0 8.61197,2.93912 12.81162,3.28506 2.20251,0.18164 4.85958,-1.9515 6.78917,-1.97067 0.75486,-0.008 3.55432,1.91316 5.03757,1.97067 9.46541,0.36967 22.4468,-2.96102 30.87896,4.37855 3.91121,3.40371 6.92152,14.72752 5.91383,18.17413 -0.4783,1.63659 -4.11933,3.77704 -3.94225,5.47387 0.23458,2.25272 5.06495,3.2239 5.03757,4.16131 -0.084,2.81407 -6.81565,2.53659 -7.66452,5.47296 -1.24045,4.28728 3.66294,1.93142 3.94133,3.94134 -0.0785,-0.56592 1.87666,0.97849 1.53346,0.87534 -6.53634,3.73049 -10.53244,8.52617 -16.42527,12.04307 0.17434,-0.10405 -3.68211,1.30617 -3.94134,1.53254 -0.66814,0.586 -1.54714,3.94681 -1.53345,3.94133 -4.2033,1.49877 -9.80131,-0.75668 -14.23554,-0.21906 -0.87078,0.10497 -3.06507,1.97158 -3.06507,1.97158 -4.30188,-0.15061 -15.19851,-7.86989 -16.8634,-2.40971 -3.30514,-1.80454 -6.85946,0.61703 -10.51236,0 -3.48677,-0.58873 -5.72944,-2.68171 -8.54077,-2.4088 1.42118,-0.13782 -2.18517,2.77573 -3.94225,3.06508 -5.71302,0.94198 -11.03993,-4.78747 -16.2062,-5.69202 -6.54638,-1.14735 -4.13758,0.27018 0.21906,2.84601 5.05765,2.98932 11.55383,4.311 17.30062,4.81668 6.17579,0.54401 15.38562,0.47555 19.27219,0.43721 7.649,-0.10953 26.10518,-2.27279 14.89638,9.82139" />
  <path
     id="path31"
     style="clip-rule:evenodd;fill:#8b5c29;fill-rule:evenodd;stroke-width:0.912768"
     d="m 304.92507,178.68035 c -12.0312,3.3672 -20.36843,3.75787 -26.93762,-4.59853 7.05935,2.77664 3.48312,-2.47086 1.31347,-6.13106 9.02545,-5.27855 13.67601,-7.76949 24.30976,-6.78826 6.655,0.61429 18.10933,-2.01722 21.24286,2.18881 0.42079,0.56501 1.8228,1.22403 2.4088,1.75252 -6.26616,2.58952 -6.33826,5.03483 -9.6361,7.00641 -6.19769,3.71497 -10.66113,0.88539 -12.69661,6.57193" />
  <path
     id="path33"
     style="clip-rule:evenodd;fill:#d59758;fill-rule:evenodd;stroke-width:0.912768"
     d="m 278.64646,188.74819 c -3.67024,-2.2728 -8.49148,-4.5465 -13.14021,-8.97708 -3.19195,-3.04226 -5.28037,-6.92244 -8.32171,-10.7296 8.66126,-1.55353 20.68698,10.32433 28.46925,15.10815 -2.67441,1.27787 -3.97054,3.58718 -7.00094,4.60948" />
  <path
     id="path35"
     style="clip-rule:evenodd;fill:#8b5c29;fill-rule:evenodd;stroke-width:0.912768"
     d="m 260.25418,185.24315 c -1.30617,-0.54674 -24.25043,-16.49281 -24.96605,-12.04306 -0.72565,4.5182 18.22069,5.0184 15.98715,13.5756 -0.21816,-0.073 -0.29118,0 -0.21816,0.21907 -3.78433,-2.20616 -16.20711,-10.50506 -15.98805,-5.47388 0.0109,0.25102 6.41676,8.74707 7.44637,10.51053 -4.22612,-0.5221 -10.68487,-3.04956 -14.23554,-4.37946 -2.54936,-0.95476 -10.15912,-5.40085 -5.69385,1.31256 -0.21907,-0.073 -0.29209,0 -0.21907,0.21907 -5.47204,-1.82006 -11.4808,-3.80625 -17.84918,-6.35013 -8.3418,-3.33161 -10.35901,-1.21125 -15.43948,-0.87535 -2.34125,0.15517 -4.16497,-0.61703 -6.35105,-0.87534 -1.13457,-0.13327 -1.45678,-2.14866 -2.62786,-2.18974 -1.35181,-0.0484 -2.55118,1.80181 -3.94133,1.75161 -8.13368,-0.29026 -18.72271,-0.96024 -27.15669,-1.96976 -4.64964,-0.55679 -8.25782,-1.11084 -14.01556,-1.97158 -2.36225,-0.35324 -6.60571,-0.12961 -8.54078,-1.53254 -1.42848,-1.03599 0.14331,-3.55523 -1.97066,-5.03574 -6.52173,-4.56658 -25.227101,2.54115 -33.944951,2.4088 -5.60075,-0.0858 -10.84643,-3.47948 -14.45369,-7.66361 -3.17917,-3.6885 -4.6177,-6.08177 -3.50412,-10.29146 5.3187,-3.41193 10.25222,0.16612 16.64342,1.7516 5.65187,1.40293 12.639111,1.49785 17.957811,0.21906 4.14671,-0.99674 6.4624,-2.07472 10.29329,-3.28414 4.29275,-1.35455 7.76492,-4.28362 11.82583,-5.03665 4.01344,-0.74391 10.42929,0.21358 15.1118,-0.21907 6.85489,-0.63255 14.97579,0.78955 23.21444,0 7.65082,-0.73386 9.66987,-2.68262 15.76807,-4.81759 4.2535,-1.48873 20.72441,-2.92725 19.92848,-4.37855 -1.6083,-2.93273 -7.44546,-0.85253 -9.6361,-3.50321 6.48157,-0.92737 13.68057,-1.79541 19.05313,-2.40879 5.91018,-0.67454 7.61888,-3.22846 12.48302,-4.37947 10.3727,-2.45352 22.05431,6.49527 29.78455,13.13748 2.9236,2.51194 7.24556,6.14202 8.9789,8.75893 2.4873,3.75604 0.88995,7.65265 1.31348,8.3208 1.47047,2.31386 9.43529,3.37359 9.19797,10.29055 -5.10238,-2.30474 -13.95623,-2.97198 -19.92848,-4.59853 -6.44962,-1.75708 -12.54052,-3.52146 -18.83498,-5.69202 -5.93756,-2.04734 -15.82649,-8.46319 -21.02379,-8.53895 -6.94161,-0.10132 -1.7151,1.73334 1.75251,3.28414 8.99077,4.05269 52.40204,16.04647 43.82202,31.7826" />
  <path
     id="path37"
     style="clip-rule:evenodd;fill:#d59758;fill-rule:evenodd;stroke-width:0.912768"
     d="m 319.38332,157.22116 c -2.31752,0.27931 -18.42697,4.43971 -15.76807,-1.09532 2.74743,-5.72306 15.85479,-1.25049 15.77264,1.09532" />
  <path
     id="path39"
     style="clip-rule:evenodd;fill:#8b5c29;fill-rule:evenodd;stroke-width:0.912768"
     d="m 282.80869,162.47871 c -1.33264,0.87626 -2.98475,1.35546 -4.81759,1.7516 0.0794,-5.78786 11.39043,-11.40048 14.4546,-16.20255 4.56932,-7.16341 -0.49655,-6.86767 -4.16131,-12.04307 5.34061,-1.52432 18.67889,3.55341 17.73965,7.44454 -1.33264,5.51312 -18.67524,16.55762 -23.2117,19.04035" />
  <path
     id="path41"
     style="clip-rule:evenodd;fill:#5a3d1c;fill-rule:evenodd;stroke-width:0.912768"
     d="m 320.69771,146.04888 c -3.57623,-0.52941 3.00209,-3.49226 3.06508,-5.91201 0.0794,-3.05503 -3.27776,-3.77612 -5.47479,-5.47387 6.17762,-1.29065 17.41745,-1.90677 23.43351,0 v 0.43813 c -5.74132,4.0892 -13.85583,6.98268 -21.02106,10.95322" />
  <path
     id="path43"
     style="clip-rule:evenodd;fill:#e4bc96;fill-rule:evenodd;stroke-width:0.912768"
     d="m 306.23946,151.52549 c -2.14136,0.9794 -4.10837,1.54988 -5.91292,2.40879 0.13966,-0.22728 0.0192,-0.45638 -0.21906,-0.43813 2.88526,-2.61782 10.1372,-7.28937 10.73142,-10.51053 0.77676,-4.20786 -3.5598,-4.33382 -6.78918,-7.00641 6.27072,-2.63881 10.13721,1.70505 14.89182,3.72227 -1.97158,4.17135 -9.29198,10.67027 -12.70573,11.82948" />
  <path
     id="path45"
     style="clip-rule:evenodd;fill:#e4bc96;fill-rule:evenodd;stroke-width:0.912768"
     d="m 274.26518,160.94526 c -1.00222,-0.80963 -1.88305,-2.44075 -2.40971,-3.72227 3.94498,-2.94916 12.35432,-6.49709 10.94957,-11.38588 -0.94015,-3.27319 -8.89128,-7.37973 -10.51236,-9.85333 6.13381,0.429 18.90161,2.20525 18.39594,8.53895 -0.40162,5.08412 -13.22602,13.38118 -16.42071,16.41157" />
  <path
     id="path47"
     style="clip-rule:evenodd;fill:#d59758;fill-rule:evenodd;stroke-width:0.912768"
     d="m 270.11208,154.15426 c -3.59448,-5.14528 -11.72086,-11.95727 -15.1118,-17.73601 7.68551,-4.28544 13.07359,1.47047 18.83407,5.47388 5.62722,3.91121 6.56463,3.4886 3.06599,7.88267 -1.56084,1.96245 -4.63687,3.56892 -6.78187,4.37216" />
  <path
     id="path49"
     style="clip-rule:evenodd;fill-rule:evenodd;stroke-width:0.912768"
     d="m 199.59158,179.55661 c -3.8966,0.28113 -6.94525,-2.33487 -9.41703,-2.62786 -1.70231,-0.20173 -8.77718,4.1321 -3.50412,-0.87535 3.57806,-3.3955 13.9106,1.69775 12.92481,3.50503" />
  <path
     id="path51"
     style="clip-rule:evenodd;fill-rule:evenodd;stroke-width:0.912768"
     d="m 212.72632,173.20374 c -2.90078,0.53762 -16.90538,-1.42301 -17.08246,-1.96976 -2.24906,-6.97994 14.74121,0.42353 18.39594,1.31348 -0.4929,0.13691 -0.94928,0.37423 -1.31439,0.65719" />
  <path
     id="path53"
     style="clip-rule:evenodd;fill-rule:evenodd;stroke-width:0.912768"
     d="m 214.25977,167.94619 c -3.2887,0.0739 -13.40857,-1.17473 -13.35928,-4.37946 0.0402,-2.52655 12.54875,2.79124 14.89182,3.72227 -0.62981,0.18255 -0.99492,0.40162 -1.52432,0.65719" />
  <path
     id="path55"
     style="clip-rule:evenodd;fill-rule:evenodd;stroke-width:0.912768"
     d="m 219.51732,160.28806 c -4.69619,-0.58599 -16.20712,-0.0538 -10.51235,-4.37946 3.00118,-2.2801 7.52395,1.16652 12.26487,3.06508 v 0.43813 c -0.5933,0.29208 -1.03143,0.47464 -1.75252,0.87625" />
  <path
     id="path57"
     style="clip-rule:evenodd;fill:#5a3d1c;fill-rule:evenodd;stroke-width:0.912768"
     d="m 262.66389,132.47601 c -3.59448,-0.15335 -8.07344,1.41844 -10.94957,1.09532 -4.01436,-0.45182 -7.74484,-3.44205 -12.26487,-5.47387 -10.4156,-4.68251 -22.43585,-9.03276 -32.41241,-12.4812 -4.90431,-1.69501 -14.05846,-4.332 -19.49126,-2.62695 1.58913,2.26549 7.53399,2.05464 10.94957,2.84693 5.52316,1.2797 10.79531,4.00157 15.98714,5.912 1.57726,0.57961 8.74615,1.93872 8.97982,3.72227 0.0511,0.38884 -6.84942,4.37125 -7.8845,4.59853 -3.15453,0.69096 -5.79973,-0.34412 -9.19797,0 -3.28779,0.33316 -6.74992,2.02817 -10.29237,2.18973 -9.1642,0.41805 -15.47782,-0.4719 -5.69385,6.13106 -7.67639,3.71041 -17.2495,6.97264 -26.71765,7.66361 -5.71393,0.41713 -9.53934,-0.93376 -14.01647,-1.31348 -4.37308,-0.37058 -5.75592,1.63842 -9.85517,2.18882 -4.12115,0.55314 -6.94525,-2.01448 -10.29237,-1.53253 -3.6885,0.53031 -6.54181,4.07551 -9.6361,5.03665 -6.29536,1.95515 -12.55239,4.05635 -19.71032,4.1604 -12.765981,0.18529 -19.487611,-5.65186 -31.974281,-2.4088 -0.42444,-2.71731 2.21711,-3.54154 4.59944,-4.59852 -0.21907,0.073 -0.29209,0 -0.21907,-0.21907 -3.26771,-0.20628 -7.50022,1.31348 -10.73141,0 -5.50856,-2.23993 0.64624,-1.90951 0.21906,-5.47387 -0.36785,-3.07329 -8.43946,-1.66124 -1.31347,-5.25481 5.13432,-2.58952 12.54874,-1.13001 3.94224,-1.97067 -8.27516,-0.80871 -19.22838,0.61065 -13.57834,-9.63427 3.85097,-6.98176 13.51171,-10.30242 21.46284,-12.70026 11.80027,-3.55888 21.89914,-8.02049 34.602141,-7.88267 -2.18882,6.12651 12.15077,-2.19977 16.64433,-1.53253 1.41205,0.20902 1.89582,2.48638 3.72318,2.84601 1.37828,0.272 3.79529,-0.60517 5.47479,-0.6572 4.34843,-0.13326 8.27607,0.55862 12.48302,0.87626 13.41496,1.01135 28.23832,0.41896 42.04851,1.53254 10.23031,0.82423 17.65203,3.26497 27.15577,6.13107 10.93406,3.29783 20.6021,7.0274 30.22177,10.50961 4.07095,1.46956 19.79795,6.27985 17.73509,8.31532" />
  <path
     id="path59"
     style="clip-rule:evenodd;fill-rule:evenodd;stroke-width:0.912768"
     d="m 101.03997,137.95262 c -0.87169,-0.41257 -1.402011,-0.25375 -1.533451,-1.31348 3.658371,-1.71965 6.860371,-3.33525 10.731421,-3.72227 -1.47869,2.45535 -5.95125,3.7241 -9.20071,5.03849" />
  <path
     id="path61"
     style="clip-rule:evenodd;fill-rule:evenodd;stroke-width:0.912768"
     d="m 89.431379,141.89578 c -1.17565,0.0685 -1.52341,0.18438 -2.62786,-0.21907 4.01435,-2.79033 8.00954,-6.48522 12.48302,-7.00641 -1.88943,2.55575 -6.5628,4.90157 -9.85607,7.22913" />
  <path
     id="path63"
     style="clip-rule:evenodd;fill:#d59758;fill-rule:evenodd;stroke-width:0.912768"
     d="m 95.344289,102.7015 c -10.79257,1.04421 -24.83917,7.2127 -35.69746,11.16681 0.76582,-2.87979 2.63243,-7.24556 4.81851,-8.97708 5.46748,-4.33291 3.07785,2.20525 4.81759,1.7516 3.41923,-0.88995 3.37542,-7.711976 5.25572,-9.634266 2.52015,-2.575835 4.39042,-0.54036 6.78917,-5.254811 6.39029,-12.557869 15.93968,-19.205562 22.338181,-31.529762 1.3938,-2.684452 3.25859,-8.18297 3.28506,-12.262132 0.0319,-4.980978 -3.19652,-10.339842 -1.53345,-14.013735 10.57168,13.89325 1.83831,38.537086 -3.94134,53.864295 -1.716001,4.562017 -3.076031,11.444295 -6.133801,14.903681" />
  <path
     id="path65"
     style="clip-rule:evenodd;fill-rule:evenodd;stroke-width:0.912768"
     d="m 81.327819,54.308338 c -5.09507,1.642984 -12.53596,4.207863 -18.17778,3.284142 -3.68941,-0.604253 -5.82985,-1.895821 -8.75984,-2.626948 -2.86609,-0.715611 -6.90418,-1.567224 -8.54078,-3.72227 -3.53515,-4.653294 8.30802,1.52341 10.73142,2.408796 5.51039,2.011742 11.06914,1.302521 17.51968,1.094409 -1.66033,-5.222861 2.66893,-1.129094 5.91291,-2.626947 -1.25597,-3.121669 4.23251,-3.94955 7.22731,-5.473873 1.01408,2.364983 -4.53829,6.108247 -5.91292,7.662691" />
  <path
     id="path67"
     style="clip-rule:evenodd;fill-rule:evenodd;stroke-width:0.912768"
     d="m 88.993249,44.893131 c -13.57378,0.893601 9.6005,-5.771435 0,0" />
  <path
     id="path69"
     style="clip-rule:evenodd;fill-rule:evenodd;stroke-width:0.912768"
     d="m 89.868599,40.513668 c -3.35899,-0.923722 -1.95059,-2.02452 0.87625,-3.065077 v -0.438128 c -0.75029,-0.553138 -0.83609,-1.085282 -1.53345,-1.751603 2.9519,-1.925029 5.48026,-0.804149 2.18973,1.751603 1.72514,1.850181 0.98579,2.969236 -1.53253,3.503205" />
  <path
     id="path71"
     style="clip-rule:evenodd;fill-rule:evenodd;stroke-width:0.912768"
     d="m 91.182979,32.850064 c -1.36915,-0.952018 -1.97888,-2.324822 -2.18973,-4.379464 2.69084,-1.678581 5.17357,2.787595 2.18973,4.379464" />
  <path
     id="path73"
     style="clip-rule:evenodd;fill:#edb500;fill-rule:evenodd;stroke-width:0.912768"
     d="m 30.957605,58.687802 c -5.824376,0.491069 -11.262651,1.445825 -17.082463,1.751602 0.812364,-3.350773 6.780045,-6.456924 10.950484,-7.663604 3.100674,-0.897251 5.045784,-0.684576 6.789172,-0.438129 -0.461861,-0.06481 -0.456384,2.631512 3.065989,1.095322 -0.0429,0.214501 -0.100404,0.521191 0.219065,0.437217 -1.062463,2.375023 -2.242672,3.817197 -3.942247,4.817592" />
  <path
     id="path75"
     style="clip-rule:evenodd;fill-rule:evenodd;stroke-width:0.912768"
     d="m 87.022579,27.157127 c -1.63385,-3.419231 2.92908,-2.343077 0,0" />
  <path
     id="path77"
     style="clip-rule:evenodd;fill:#ffbf00;fill-rule:evenodd;stroke-width:0.912768"
     d="m 35.557049,49.05353 c -10.059626,-1.296131 -16.220813,4.03535 -23.43351,8.53895 -7.499306,4.682502 -11.688,3.384545 -5.474785,-3.941335 4.580272,-5.400851 12.237487,-14.345982 17.300614,-20.143888 3.273188,-3.747827 3.289618,-4.410497 5.256634,-0.876258 2.231719,4.00888 3.421056,10.414689 5.255721,14.013735 0.558614,1.096235 1.035996,1.506068 1.095326,2.408796" />
  <path
     id="path79"
     style="clip-rule:evenodd;fill-rule:evenodd;stroke-width:0.912768"
     d="m 90.525789,23.215792 c -8.56086,-3.142662 3.23029,-5.944861 0,0" />
  <path
     id="path81"
     style="clip-rule:evenodd;fill-rule:evenodd;stroke-width:0.912768"
     d="m 84.612869,20.588844 c -2.23263,0.01004 -7.20722,-2.861529 -5.03665,-4.598527 0.93832,-0.751209 5.13706,2.946416 6.57011,3.72227 -0.52941,0.666321 -0.88813,0.510237 -1.53346,0.876257" />
  <path
     id="path83"
     style="clip-rule:evenodd;fill-rule:evenodd;stroke-width:0.912768"
     d="m 19.35084,45.769389 c -2.037299,-1.825537 1.570875,-4.508164 4.161312,-5.473873 0.196245,2.39693 -1.800892,3.972369 -4.161312,5.473873" />
  <path
     id="path85"
     style="clip-rule:evenodd;fill-rule:evenodd;stroke-width:0.912768"
     d="m 75.853039,17.960984 c -7.45276,-0.933762 -7.10499,-5.688373 1.09532,-1.09441 -0.31765,0.425351 -0.77403,0.696443 -1.09532,1.09441" />
  <path
     id="path87"
     style="clip-rule:evenodd;fill-rule:evenodd;stroke-width:0.912768"
     d="m 47.601939,29.565923 c -9.05193,0.229105 -10.18924,-8.234085 -3.28505,-11.824004 1.07341,-0.557701 11.29003,-2.847837 12.48302,-2.189731 2.06924,1.141873 -2.49095,5.269412 -3.94225,7.226388 -2.04278,2.753823 -2.50464,5.386247 -5.25572,6.787347" />
  <path
     id="path89"
     style="clip-rule:evenodd;fill:#ffffff;fill-rule:evenodd;stroke-width:0.912768"
     d="m 45.849419,27.376191 c -5.0257,-0.507499 -2.89895,-7.865326 1.75161,-7.663604 5.7194,0.248273 1.04968,6.799212 -1.75161,7.663604" />
  <path
     id="path91"
     style="clip-rule:evenodd;fill-rule:evenodd;stroke-width:0.912768"
     d="m 66.655069,15.552188 c -5.80064,1.320776 -6.51534,-2.538409 -9.6361,-4.598528 2.35951,-0.55405 5.72671,-0.04655 8.54077,0.438129 -0.85617,1.805456 0.41988,2.763863 2.40971,3.503206 -0.3505,0.322207 -0.81784,0.279307 -1.31438,0.657193" />
  <path
     id="path93"
     style="clip-rule:evenodd;fill-rule:evenodd;stroke-width:0.912768"
     d="m 45.849419,25.405524 c -4.49629,-0.543097 -4.42053,-6.960773 0,-7.006411 4.88788,-0.0502 4.57936,6.397594 0,7.006411" />
  <path
     id="path95"
     style="fill:none;stroke-width:0;stroke-miterlimit:10"
     d="m 45.849419,25.405524 c -4.49629,-0.543097 -4.42053,-6.960773 0,-7.006411 4.87145,-0.0502 4.55472,6.394856 0,7.006411" />
  <path
     id="path97"
     style="clip-rule:evenodd;fill:#ffffff;fill-rule:evenodd;stroke-width:0.912768"
     d="m 47.601939,22.558599 c -2.73739,-3.116192 2.49733,-3.568925 0,0" />
  <path
     id="path99"
     style="fill:none;stroke-width:0;stroke-miterlimit:10"
     d="m 47.601939,22.558599 c -2.73739,-3.116192 2.49733,-3.568925 0,0" />
  <metadata
     id="metadata52">
    <rdf:RDF>
      <cc:Work>
        <dc:format>image/svg+xml</dc:format>
        <dc:type
           rdf:resource="http://purl.org/dc/dcmitype/StillImage" />
        <cc:license
           rdf:resource="http://creativecommons.org/publicdomain/zero/1.0/" />
        <dc:publisher>
          <cc:Agent
             rdf:about="http://openclipart.org/">
            <dc:title>Openclipart</dc:title>
          </cc:Agent>
        </dc:publisher>
        <dc:title>Architetto -- Anatra</dc:title>
        <dc:date>2006-12-26T00:00:00</dc:date>
        <dc:description />
        <dc:source>https://openclipart.org/detail/24747/-by--24747</dc:source>
        <dc:creator>
          <cc:Agent>
            <dc:title>Anonymous</dc:title>
          </cc:Agent>
        </dc:creator>
      </cc:Work>
      <cc:License
         rdf:about="http://creativecommons.org/publicdomain/zero/1.0/">
        <cc:permits
           rdf:resource="http://creativecommons.org/ns#Reproduction" />
        <cc:permits
           rdf:resource="http://creativecommons.org/ns#Distribution" />
        <cc:permits
           rdf:resource="http://creativecommons.org/ns#DerivativeWorks" />
      </cc:License>
    </rdf:RDF>
  </metadata>
</svg>
