<?xml version="1.0" encoding="UTF-8" standalone="no"?>
<svg
   xmlns:dc="http://purl.org/dc/elements/1.1/"
   xmlns:cc="http://creativecommons.org/ns#"
   xmlns:rdf="http://www.w3.org/1999/02/22-rdf-syntax-ns#"
   xmlns:svg="http://www.w3.org/2000/svg"
   xmlns="http://www.w3.org/2000/svg"
   xmlns:xlink="http://www.w3.org/1999/xlink"
   xmlns:sodipodi="http://sodipodi.sourceforge.net/DTD/sodipodi-0.dtd"
   xmlns:inkscape="http://www.inkscape.org/namespaces/inkscape"
   viewBox="0 0 472.44093 332.59841"
   version="1.1"
   id="svg162"
   sodipodi:docname="dump_truck.svg"
   width="125mm"
   height="88mm"
   inkscape:version="1.0.2-2 (e86c870879, 2021-01-15)">
  <metadata
     id="metadata166">
    <rdf:RDF>
      <cc:Work
         rdf:about="">
        <dc:format>image/svg+xml</dc:format>
        <dc:type
           rdf:resource="http://purl.org/dc/dcmitype/StillImage" />
        <dc:title></dc:title>
      </cc:Work>
    </rdf:RDF>
  </metadata>
  <sodipodi:namedview
     pagecolor="#ffffff"
     bordercolor="#666666"
     borderopacity="1"
     objecttolerance="10"
     gridtolerance="10"
     guidetolerance="10"
     inkscape:pageopacity="0"
     inkscape:pageshadow="2"
     inkscape:window-width="1920"
     inkscape:window-height="1017"
     id="namedview164"
     showgrid="false"
     units="mm"
     inkscape:zoom="0.9901178"
     inkscape:cx="526.20001"
     inkscape:cy="372.04501"
     inkscape:window-x="-8"
     inkscape:window-y="-8"
     inkscape:window-maximized="1"
     inkscape:current-layer="svg162" />
  <defs
     id="defs38">
    <linearGradient
       id="m"
       x1="324.02251"
       x2="496.177"
       y1="326.38979"
       y2="321.33591"
       gradientTransform="scale(1.6286573,0.6140027)"
       gradientUnits="userSpaceOnUse">
      <stop
         stop-color="#2c2f68"
         offset="0"
         id="stop2" />
      <stop
         stop-color="#a1b6c3"
         offset="1"
         id="stop4" />
    </linearGradient>
    <linearGradient
       id="n"
       x1="145.94959"
       x2="312.77921"
       y1="683.53667"
       y2="664.34859"
       xlink:href="#a"
       gradientTransform="scale(1.3623619,0.73401937)"
       gradientUnits="userSpaceOnUse" />
    <linearGradient
       id="s"
       x1="846.06452"
       x2="445.81078"
       y1="154.21895"
       y2="158.83206"
       gradientTransform="matrix(0.35063882,0,0,0.65529109,-18.339039,-14.6673)"
       gradientUnits="userSpaceOnUse">
      <stop
         offset="0"
         id="stop8" />
      <stop
         stop-color="#878787"
         offset="1"
         id="stop10" />
    </linearGradient>
    <linearGradient
       id="o"
       x1="9.0057409"
       x2="267.51514"
       y1="761.90259"
       y2="561.04286"
       xlink:href="#a"
       gradientTransform="scale(1.5304051,0.65342178)"
       gradientUnits="userSpaceOnUse" />
    <linearGradient
       id="q"
       x1="186.71173"
       x2="324.48267"
       y1="1442.1131"
       y2="1948.4865"
       gradientTransform="scale(2.5446508,0.39298124)"
       gradientUnits="userSpaceOnUse">
      <stop
         offset="0"
         id="stop14" />
      <stop
         stop-opacity="0"
         offset="1"
         id="stop16" />
    </linearGradient>
    <linearGradient
       id="r"
       x1="556.20467"
       x2="635.95926"
       y1="607.79381"
       y2="607.79381"
       gradientTransform="scale(1.2570502,0.7955132)"
       gradientUnits="userSpaceOnUse">
      <stop
         stop-color="#ffffd9"
         stop-opacity=".816"
         offset="0"
         id="stop19" />
      <stop
         stop-color="#ffffd9"
         offset=".5"
         id="stop21" />
      <stop
         stop-color="#ffffd9"
         offset="1"
         id="stop23" />
    </linearGradient>
    <linearGradient
       id="p"
       x1="258.79394"
       x2="181.13706"
       y1="598.5503"
       y2="614.5048"
       gradientTransform="scale(1.3683373,0.73081394)"
       gradientUnits="userSpaceOnUse">
      <stop
         offset="0"
         id="stop26" />
      <stop
         stop-opacity="0"
         offset="1"
         id="stop28" />
    </linearGradient>
    <linearGradient
       id="l"
       x1="509.02536"
       x2="535.69424"
       y1="190.54433"
       y2="-2.9535192"
       xlink:href="#a"
       gradientTransform="scale(1.0675892,0.93668989)"
       gradientUnits="userSpaceOnUse" />
    <linearGradient
       id="k"
       x1="460.47008"
       x2="438.61759"
       y1="1095.6229"
       y2="587.13677"
       xlink:href="#a"
       gradientTransform="scale(1.7885851,0.55910116)"
       gradientUnits="userSpaceOnUse" />
    <linearGradient
       id="a">
      <stop
         offset="0"
         id="stop33" />
      <stop
         stop-color="#d0d0d6"
         offset="1"
         id="stop35" />
    </linearGradient>
  </defs>
  <g
     fill-rule="evenodd"
     id="g52"
     transform="matrix(0.47934382,0,0,0.47934382,-18.339039,-14.6673)">
    <path
       d="m 51.453,571.93 c 0,0 472.6,99.579 570.92,99.633 98.323,0.054 384.06,-35.951 348.22,-48.025 -35.85,-12.074 -255.37,-47.996 -400.31,-54.644 -144.94,-6.648 -164.64,-26.941 -246.36,-19.624 -81.725,7.3174 -264.95,-0.93958 -272.47,22.659 z"
       fill="url(#q)"
       opacity="0.984"
       stroke="#d9dcdc"
       stroke-opacity="0.573"
       stroke-width="21.969"
       id="path40"
       style="fill:url(#q)" />
    <g
       stroke="#000000"
       stroke-width="1.098"
       id="g46">
      <path
         d="m 71.19,539.01 27.605,-130.14 287.88,-15.774 177.46,-17.746 368.72,116.34 -19.718,104.5 c 0,0 -7.8872,15.774 -21.69,23.662 -13.803,7.8872 -39.436,13.802 -55.21,9.859 -15.774,-3.9436 -29.577,-5.9154 -37.464,-19.718 -7.8872,-13.803 -55.21,-72.956 -55.21,-72.956 l -78.872,25.633 c 0,0 0,17.746 -9.859,43.379 -9.859,25.633 -13.802,35.492 -25.633,39.436 -11.831,3.9436 -54.855,7.2595 -68.119,3.3159 -23.662,-3.9436 -44.273,-92.046 -44.273,-92.046 l -17.746,1.9718 c 0,0 5.9153,7.8872 -15.774,15.774 -21.69,7.8872 -102.53,9.859 -161.69,9.859 -59.154,0 -90.727,5.3221 -114.39,5.3221 -6.659,-10.11 -15.749,-15.181 -15.749,-15.181 0,0 -9.859,0 -39.436,-1.9718 -29.577,-1.9718 -30.112,5.247 -34.055,-4.612 -3.9436,-9.859 -17.211,-30.88 -17.211,-30.88 l -29.577,1.9717 z"
         id="path42" />
      <path
         d="m 81.049,513.37 c 7.8872,-65.069 15.774,-90.702 15.774,-90.702 l 3.9436,-7.8872 120.28,5.9154 15.774,53.238 h 9.859 l 94.646,-5.9154 -1.9718,-55.21 -108.45,-3.9436 -128.17,-5.9154 -11.831,23.662 -9.8589,86.759 z"
         fill="url(#o)"
         id="path44"
         style="fill:url(#o)" />
    </g>
    <path
       d="m 337.83,412.23 -103.98,3.8992 16.897,57.188 97.48,-2.5995 -10.398,-58.488 z"
       fill="url(#p)"
       id="path48"
       style="fill:url(#p)" />
    <path
       d="m 432.03,402.95 5.9154,153.8 63.097,7.8872 3.9436,-88.731 c 0,0 9.859,-19.718 23.662,-29.577 13.803,-9.859 43.379,-11.831 57.182,-3.9436 13.803,7.8872 33.52,21.69 39.436,41.408 5.9154,19.718 -1.9718,94.646 23.662,94.646 25.633,0 53.238,-5.9154 53.238,-5.9154 l 7.8871,-72.956 -3.9436,-67.041 -100.56,-51.267 -153.8,-3.9436 -19.718,25.633 z"
       fill="#232326"
       fill-opacity="0.978"
       stroke="#000000"
       stroke-width="5.492"
       id="path50" />
  </g>
  <rect
     x="366.3056"
     y="76.479919"
     width="25.292576"
     height="35.639214"
     rx="4.2153974"
     ry="9.719655"
     fill="#101111"
     stroke-linecap="round"
     stroke-linejoin="round"
     stroke-opacity="0.919"
     id="rect54"
     style="stroke-width:0.479344" />
  <g
     fill-rule="evenodd"
     stroke="#000000"
     id="g70"
     transform="matrix(0.47934382,0,0,0.47934382,-18.339039,-14.6673)">
    <path
       d="m 461.99,159.26 -6.9713,90.627 112.94,27.885 264.91,2.7885 -6.9714,-118.51 -237.03,-13.943 -126.88,11.154 z"
       fill="url(#m)"
       stroke-width="16.477"
       id="path56"
       style="fill:url(#m)" />
    <path
       d="m 551.22,396.28 h 41.828 l 4.1829,-111.54 -61.348,-6.9713 5.577,108.75 9.7599,9.7599 z"
       fill="#007fff"
       stroke-width="1.098"
       id="path58" />
    <path
       d="m 700.41,459.01 v 48.788 c 0,0 11.154,3.4848 29.28,3.4848 18.126,0 59.954,5.2272 64.136,1.7424 4.1828,-3.4848 8.3657,-55.757 -2.7885,-59.242 -11.154,-3.4848 -47.405,3.4848 -58.559,1.7424 -11.154,-1.7424 -30.674,-5.2272 -32.068,3.4848 z"
       fill="url(#r)"
       stroke-width="1.228"
       id="path60"
       style="fill:url(#r)" />
    <path
       d="m 979.26,500.85 c 0,-9.7599 -2.7885,-36.251 2.7885,-40.434 5.5771,-4.1828 16.731,-11.154 20.914,-9.7599 4.1828,1.3943 5.5771,13.943 5.5771,22.308 0,8.3656 4.1828,23.702 -2.7885,26.491 -6.9714,2.7885 -20.914,4.1828 -26.491,1.3943 z"
       fill="#ffffd9"
       stroke-width="1.098"
       id="path62" />
    <path
       d="m 44.785,225.95 301.29,-34.523 28.246,-94.154 69.046,-21.969 6.2769,9.4154 -59.631,50.216 -3.1385,266.77 -304.43,-3.1385 -12.554,9.4154 -25.108,-25.108 v -156.92 z"
       fill="#3f3f3f"
       stroke-width="2.197"
       id="path64" />
    <path
       d="m 448.24,86.671 298.91,28.967 2.1818,-14.484 -305.46,-26.898 4.3636,12.414 z"
       fill="#d7dadc"
       stroke-width="2.139"
       id="path66" />
    <path
       d="m 384.96,401.4 6.5455,-266.18 56.727,-50.182 298.91,30.546 -37.091,15.273 -205.09,-6.5455 -48,15.273 -21.818,233.46 v 43.636 h -45.818 c 0,0 -30.546,6.5454 -21.818,-2.1818 8.7273,-8.7273 17.455,-13.091 17.455,-13.091 z"
       fill="url(#l)"
       stroke-width="1.098"
       id="path68"
       style="fill:url(#l)" />
  </g>
  <g
     stroke-linecap="round"
     stroke-linejoin="round"
     stroke-width="5.46"
     id="g78"
     transform="matrix(0.47934382,0,0,0.47934382,-18.339039,-14.6673)">
    <path
       d="m 622.78,560.34 a 56.153,91.546 0 1 1 -112.3,0 56.153,91.546 0 1 1 112.3,0 z"
       fill="#232323"
       id="path72" />
    <path
       d="m 240.96,517.73 a 34.728,72.517 0 1 1 -69.456,0 34.728,72.517 0 1 1 69.456,0 z"
       fill="#181a1a"
       id="path74" />
    <path
       d="m 152.48,507.4 a 30.152,66.364 0 1 1 -60.303,0 30.152,66.364 0 1 1 60.303,0 z"
       fill="#1e1e1e"
       id="path76" />
  </g>
  <g
     fill-rule="evenodd"
     id="g110"
     transform="matrix(0.47934382,0,0,0.47934382,-18.339039,-14.6673)">
    <g
       stroke="#000000"
       id="g88">
      <g
         fill="#007fff"
         stroke-width="2.197"
         id="g84">
        <path
           d="m 431.31,386.52 c 0,0 0,-50.194 1.3943,-78.079 1.3943,-27.885 13.943,-158.95 15.337,-164.52 1.3943,-5.5771 5.5771,-8.3656 23.702,-13.943 18.126,-5.5771 36.251,-5.5771 69.713,-8.3656 33.462,-2.7885 61.348,0 61.348,0 0,0 92.022,8.3656 122.7,9.7598 30.674,1.3943 105.96,8.3656 111.54,11.154 5.577,2.7885 8.3656,16.731 8.3656,16.731 0,0 -107.36,-9.7599 -129.67,-11.154 -22.308,-1.3943 -118.51,-6.9713 -118.51,-6.9713 h -19.52 c -5.577,0 -16.731,1.3943 -16.731,1.3943 l -103.18,9.7599 c 0,0 -2.7885,-5.5771 -4.1828,4.1828 -1.3943,9.7599 -6.9713,92.022 -6.9713,92.022 0,0 0,5.5771 2.7885,6.9713 2.7885,1.3943 108.75,23.702 108.75,23.702 0,0 -2.7885,1.3943 -2.7885,9.7599 v 107.36 c 0,0 -118.51,4.1828 -124.09,-9.7599 z"
           id="path80" />
        <path
           d="m 587.47,396.28 c 0,0 -5.5771,-72.502 -2.7885,-90.627 2.7885,-18.126 12.548,-22.308 12.548,-22.308 h 90.627 l 132.46,2.7885 h 22.308 c 0,0 34.857,9.7599 66.925,22.308 32.068,12.5481 62.742,22.308 72.502,34.857 9.7599,12.548 15.337,18.126 18.126,33.462 2.7885,15.337 2.7885,75.29 2.7885,75.29 0,0 -18.125,0 -19.52,8.3656 -1.3943,8.3656 -4.1828,40.434 -4.1828,40.434 0,0 -47.405,13.943 -92.022,13.943 -44.617,0 -76.685,1.3943 -83.656,-1.3943 -6.9713,-2.7885 -9.7599,-13.943 -9.7599,-13.943 0,0 4.1828,-33.462 -2.7885,-37.645 -6.9713,-4.1828 -30.674,-1.3943 -65.53,-4.1828 -34.857,-2.7885 -55.771,6.9713 -73.896,-8.3656 -18.125,-15.3369 -29.28,-43.222 -41.828,-48.799 -12.548,-5.5771 -22.308,-4.1828 -22.308,-4.1828 z"
           id="path82" />
      </g>
      <path
         d="m 795.22,502.25 c 0,0 0,-122.7 -4.1828,-128.27 -4.1828,-5.5771 0,-5.5771 0,-5.5771 l 185.44,2.7885 c 0,0 8.3656,48.799 6.9713,72.502 -1.3943,23.702 -6.9713,59.953 -6.9713,59.953 0,0 -51.588,8.3656 -86.444,9.7599 -34.857,1.3943 -76.685,4.1828 -83.656,0 -6.9713,-4.1828 -11.154,-11.154 -11.154,-11.154 z"
         fill="#005ab5"
         fill-opacity="0.82"
         stroke-width="1.098"
         id="path86" />
    </g>
    <path
       d="m 601.41,291.71 167.31,59.954 206.35,1.3943 c 0,0 -9.7598,-13.943 -23.702,-13.943 -13.943,0 -121.3,13.943 -186.83,-5.5771 -65.53,-19.5201 -138.03,-41.828 -149.19,-41.828 h -13.943 z"
       fill="#ffffff"
       fill-opacity="0.589"
       id="path90" />
    <path
       d="m 1011.6,501.83 c 0,0 2.964,-5.4858 2.5661,7.0562 -0.398,12.542 4.7785,25.261 -0.9284,29.265 -5.7069,4.0038 -6.8794,-3.0082 -11.723,17.763 -4.84381,20.771 3.3849,25.217 -3.71551,29.176 -7.1005,3.9597 -260,16.861 -260,16.861 0,0 -27.916,0.50934 -36.1,-5.3302 -8.1845,-5.8395 -5.9067,-33.667 -8.4728,-40.723 -2.5661,-7.0563 -9.4455,-10.064 -9.4455,-10.064 0,0 -4.3806,-37.803 1.1937,-37.626 5.5742,0.17682 27.783,3.6713 51.473,4.4229 23.691,0.75159 90.626,1.4802 170.24,-1.5741 79.61,-3.0543 104.92001,-9.2263 104.92001,-9.2263 z"
       fill="url(#k)"
       stroke="#000000"
       stroke-width="4.394"
       id="path92"
       style="fill:url(#k)" />
    <path
       d="m 997.39,542.68 c 0,0 -87.217,12.25 -179.15,12.25 -91.932,0 -58.931,1.7501 -58.931,1.7501 0,0 126.11,0.875 166.18,-2.6251 40.073,-3.5001 71.895,-11.375 71.895,-11.375 z"
       fill="#ffffff"
       fill-opacity="0.238"
       id="path94" />
    <g
       stroke="#000000"
       id="g108">
      <g
         fill="none"
         id="g100">
        <path
           d="m 576.32,272.19 c 0,-8.3656 -1.3943,-115.72 -1.3943,-115.72"
           stroke-width="16.477"
           id="path96" />
        <path
           d="M 572.2,290.88 531.427,262.099 V 170.96 c 0,0 11.992,-21.586 40.773,-21.586 28.781,0 9.5935,-2.3984 9.5935,-2.3984"
           stroke-width="6.865"
           id="path98" />
      </g>
      <g
         stroke-width="2.197"
         id="g106">
        <path
           d="m 256.54,505.49 -1.9718,13.802 177.46,23.662 3.9436,-86.759 -179.43,-9.8589 v 17.746 l 165.63,11.831 v 49.295 l -165.63,-19.718 z"
           fill="url(#n)"
           id="path102"
           style="fill:url(#n)" />
        <path
           d="m 102.57,407.04 126.07,6.4987 15.597,59.788"
           fill="none"
           id="path104" />
      </g>
    </g>
  </g>
  <g
     stroke-linecap="round"
     stroke-linejoin="round"
     id="g140"
     transform="matrix(0.47934382,0,0,0.47934382,-18.339039,-14.6673)">
    <g
       fill-opacity="0.649"
       stroke="#8b8a91"
       id="g120">
      <path
         d="m 580.88,557.8 a 15.597,32.493 0 1 1 -31.194,0 15.597,32.493 0 1 1 31.194,0 z"
         stroke-opacity="0.378"
         stroke-width="7.25"
         id="path112" />
      <g
         stroke-width="5"
         id="g118">
        <path
           d="m 214.12,519.06 a 9.5185,24.704 0 1 1 -19.037,0 9.5185,24.704 0 1 1 19.037,0 z"
           stroke-opacity="0.681"
           id="path114" />
        <path
           d="m 128.55,504.27 a 8.4322,22.287 0 1 1 -16.864,0 8.4322,22.287 0 1 1 16.864,0 z"
           stroke-opacity="0.757"
           id="path116" />
      </g>
    </g>
    <g
       fill="#ffffff"
       stroke-opacity="0.919"
       id="g138">
      <g
         fill-opacity="0.319"
         id="g132">
        <g
           stroke-width="1.659"
           id="g126">
          <rect
             x="294.14999"
             y="236.32001"
             width="20.622"
             height="134.32001"
             rx="6.7837"
             ry="6.7837"
             opacity="0.984"
             id="rect122" />
          <rect
             x="250.21001"
             y="241.06"
             width="20.622"
             height="131.78"
             opacity="0.984"
             id="rect124" />
        </g>
        <rect
           x="207.05"
           y="243.25999"
           width="19.906"
           height="131.78"
           opacity="0.984"
           stroke-width="1.598"
           id="rect128" />
        <rect
           x="164.83"
           y="248"
           width="18.226"
           height="129.24001"
           opacity="0.984"
           stroke-width="1.564"
           id="rect130" />
      </g>
      <rect
         x="122.54"
         y="251.39"
         width="16.677"
         height="125.85"
         fill-opacity="0.27"
         opacity="0.984"
         stroke-width="1.462"
         id="rect134" />
      <rect
         x="80.251999"
         y="253.59"
         width="15.129"
         height="115.67"
         fill-opacity="0.254"
         opacity="0.984"
         stroke-width="1.353"
         id="rect136" />
    </g>
  </g>
  <g
     fill-rule="evenodd"
     id="g152"
     transform="matrix(0.47934382,0,0,0.47934382,-18.339039,-14.6673)">
    <path
       d="m 58.383,256.27 293.74,-25.995"
       fill="none"
       stroke="#000000"
       stroke-opacity="0.389"
       stroke-width="5.492"
       id="path142" />
    <g
       fill="#ffffff"
       id="g150">
      <path
         d="m 516.99,535.12 c 0,0 1.3867,-25.439 11.093,-37.31 9.7064,-11.871 16.64,-20.351 24.959,-20.351 8.3198,0 -12.48,13.567 -12.48,13.567 0,0 -9.7064,10.176 -13.866,22.047 -4.1598,11.871 -9.7064,22.047 -9.7064,22.047 z"
         fill-opacity="0.195"
         id="path144" />
      <path
         d="m 174.41,496.11 c 0,0 0.89177,-19.453 7.1342,-28.531 6.2424,-9.0782 10.701,-15.562 16.052,-15.562 5.3507,0 -8.026,10.375 -8.026,10.375 0,0 -6.2424,7.7812 -8.9177,16.859 -2.6753,9.0781 -6.2424,16.859 -6.2424,16.859 z"
         fill-opacity="0.265"
         id="path146" />
      <path
         d="m 96.402,489.33 c 0,0 0.89177,-19.453 7.1342,-28.531 6.2424,-9.0782 10.701,-15.562 16.052,-15.562 5.3506,0 -8.026,10.375 -8.026,10.375 0,0 -6.2424,7.7813 -8.9177,16.859 -2.6753,9.0781 -6.2424,16.859 -6.2424,16.859 z"
         fill-opacity="0.303"
         id="path148" />
    </g>
  </g>
  <path
     d="m 227.19046,63.834838 c -2.54762,0 -4.59082,1.683647 -4.59082,3.768073 v 6.269338 c 0,2.084427 2.04315,3.751632 4.59082,3.751632 -2.54762,0 -4.59082,4.756625 -4.59082,10.662524 v 17.770715 c 0,5.90599 2.04315,10.66252 4.59082,10.66252 h 18.39625 c 2.54762,0 4.60722,-4.75657 4.60722,-10.66252 V 88.286405 c 0,-5.905995 -2.0596,-10.662524 -4.60722,-10.662524 2.54762,0 4.60722,-1.667205 4.60722,-3.751632 v -6.269338 c 0,-2.084426 -2.0596,-3.768073 -4.60722,-3.768073 z"
     fill="url(#s)"
     stroke="#000000"
     stroke-linecap="round"
     stroke-linejoin="round"
     stroke-width="1.51377"
     id="path154"
     style="fill:url(#s)" />
  <g
     fill-rule="evenodd"
     id="g160"
     transform="matrix(0.47934382,0,0,0.47934382,-18.339039,-14.6673)">
    <path
       d="m 441.71,404.28 1.8396,144.41 51.51,8.2784 c 0,0 -31.274,-14.717 -38.632,-46.911 -7.3586,-32.194 -14.717,-105.78 -14.717,-105.78 z"
       fill-opacity="0.622"
       id="path156" />
    <path
       d="m 537.37,410.71 c 0,0 48.403,-5.5189 60.504,0 12.101,5.5189 34.79,29.434 40.84,40.472 6.0504,11.038 -25.714,-27.595 -40.84,-31.274 -15.126,-3.6793 -60.504,-9.1982 -60.504,-9.1982 z"
       fill="#ffffff"
       fill-opacity="0.081"
       id="path158" />
  </g>
</svg>
