<?xml version="1.0" encoding="UTF-8" standalone="no"?>
<svg
   xmlns:dc="http://purl.org/dc/elements/1.1/"
   xmlns:cc="http://creativecommons.org/ns#"
   xmlns:rdf="http://www.w3.org/1999/02/22-rdf-syntax-ns#"
   xmlns:svg="http://www.w3.org/2000/svg"
   xmlns="http://www.w3.org/2000/svg"
   xmlns:sodipodi="http://sodipodi.sourceforge.net/DTD/sodipodi-0.dtd"
   xmlns:inkscape="http://www.inkscape.org/namespaces/inkscape"
   version="1.1"
   viewBox="0 0 282.20795 373.76647"
   id="svg59"
   sodipodi:docname="egg.svg"
   width="74.667519mm"
   height="98.89238mm"
   inkscape:version="1.0.2-2 (e86c870879, 2021-01-15)">
  <metadata
     id="metadata63">
    <rdf:RDF>
      <cc:Work
         rdf:about="">
        <dc:format>image/svg+xml</dc:format>
        <dc:type
           rdf:resource="http://purl.org/dc/dcmitype/StillImage" />
        <dc:title />
      </cc:Work>
    </rdf:RDF>
  </metadata>
  <sodipodi:namedview
     pagecolor="#ffffff"
     bordercolor="#666666"
     borderopacity="1"
     objecttolerance="10"
     gridtolerance="10"
     guidetolerance="10"
     inkscape:pageopacity="0"
     inkscape:pageshadow="2"
     inkscape:window-width="1920"
     inkscape:window-height="1017"
     id="namedview61"
     showgrid="false"
     units="mm"
     inkscape:zoom="0.9391262"
     inkscape:cx="-161.61341"
     inkscape:cy="16.723498"
     inkscape:window-x="-8"
     inkscape:window-y="-8"
     inkscape:window-maximized="1"
     inkscape:current-layer="svg59"
     inkscape:document-rotation="0" />
  <defs
     id="defs23">
    <mask
       id="m"
       maskUnits="userSpaceOnUse">
      <path
         d="m 133.53,94.797 c -0.89445,24.262 -20.597,49.291 -48.257,49.197 C 57.612,143.9 34.577,128.606 31.847,98.454 29.1177,68.302 50.495,14.035 82.449,12.959 c 31.954,-1.0758 52.394,46.251 51.082,81.837 z"
         fill="#00ffff"
         id="path2" />
    </mask>
    <filter
       id="h"
       x="-0.24176"
       y="-0.16594"
       width="1.4835"
       height="1.3319"
       color-interpolation-filters="sRGB">
      <feGaussianBlur
         stdDeviation="8.8206318"
         id="feGaussianBlur5" />
    </filter>
    <filter
       id="i"
       x="-0.27320999"
       y="-0.16429999"
       width="1.5464"
       height="1.3286"
       color-interpolation-filters="sRGB">
      <feGaussianBlur
         stdDeviation="2.8193639"
         id="feGaussianBlur8" />
    </filter>
    <mask
       id="n"
       maskUnits="userSpaceOnUse">
      <path
         d="m 131.53,987.16 c -0.89445,24.262 -20.597,49.291 -48.257,49.197 -27.661,-0.094 -50.696,-15.388 -53.426,-45.54 -2.7293,-30.152 18.648,-84.419 50.602,-85.495 31.954,-1.0758 52.394,46.251 51.082,81.837 z"
         fill="#f5f5f5"
         id="path11" />
    </mask>
    <filter
       id="j"
       x="-0.48432001"
       y="-0.44826999"
       width="1.9686"
       height="1.8965"
       color-interpolation-filters="sRGB">
      <feGaussianBlur
         stdDeviation="3.6163133"
         id="feGaussianBlur14" />
    </filter>
    <filter
       id="k"
       x="-0.2138"
       y="-1.2997"
       width="1.4276"
       height="3.5994"
       color-interpolation-filters="sRGB">
      <feGaussianBlur
         stdDeviation="7.3494643"
         id="feGaussianBlur17" />
    </filter>
    <filter
       id="l"
       x="-0.11547"
       y="-0.70191997"
       width="1.2309"
       height="2.4038"
       color-interpolation-filters="sRGB">
      <feGaussianBlur
         stdDeviation="3.9691938"
         id="feGaussianBlur20" />
    </filter>
  </defs>
  <g
     transform="matrix(3.4858975,0,0,3.4858975,-114.60808,-3231.1334)"
     id="g57">
    <g
       transform="matrix(0.68738,0,0,0.68738,23.259,304.63)"
       id="g55">
      <path
         d="m 113.52,1035.7 a 41.25,6.7857 0 0 1 -33.564,7.8488 41.25,6.7857 0 0 1 -47.713,-5.5212 41.25,6.7857 0 0 1 33.562,-7.8491 41.25,6.7857 0 0 1 47.715,5.5209 l -40.638,1.1642 z"
         fill="#666666"
         filter="url(#k)"
         opacity="0.892"
         id="path25" />
      <path
         transform="matrix(0.65678,0,0,0.75857,35.907,249.44)"
         d="m 113.52,1035.7 a 41.25,6.7857 0 0 1 -33.564,7.8488 41.25,6.7857 0 0 1 -47.713,-5.5212 41.25,6.7857 0 0 1 33.562,-7.8491 41.25,6.7857 0 0 1 47.715,5.5209 l -40.638,1.1642 z"
         fill="#aea188"
         filter="url(#l)"
         id="path27" />
      <path
         d="m 131.53,987.16 c -0.89445,24.262 -20.597,49.291 -48.257,49.197 -27.661,-0.094 -50.696,-15.388 -53.426,-45.54 -2.7293,-30.152 18.648,-84.419 50.602,-85.495 31.954,-1.0758 52.394,46.251 51.082,81.837 z"
         fill="#ffeccd"
         id="path29" />
      <path
         transform="translate(-2,892.36)"
         d="m 67.506,16.422 c -0.0034,0.0017 -0.0064,0.0041 -0.0098,0.0059 -0.71527,0.36534 -1.4216,0.76108 -2.1211,1.1777 -0.07282,0.04338 -0.1461,0.08499 -0.21875,0.12891 -0.67518,0.40817 -1.342,0.84116 -2.002,1.2949 -0.09785,0.06728 -0.19546,0.13487 -0.29297,0.20312 -0.66877,0.46808 -1.3298,0.95808 -1.9824,1.4707 -0.03923,0.03081 -0.07802,0.06278 -0.11719,0.09375 -0.68588,0.54232 -1.3657,1.1044 -2.0332,1.6934 -0.15818,0.13956 -0.30967,0.29347 -0.4668,0.43555 -0.59646,0.53938 -1.1884,1.0895 -1.7695,1.6641 -0.27491,0.27178 -0.54303,0.55857 -0.81445,0.83789 -0.45013,0.46326 -0.89943,0.92885 -1.3398,1.4121 -0.29892,0.32798 -0.59234,0.66512 -0.88672,1.002 -0.39591,0.45304 -0.78819,0.91243 -1.1758,1.3809 -0.31098,0.37582 -0.62024,0.75531 -0.92578,1.1406 -0.37519,0.47317 -0.74443,0.9565 -1.1113,1.4434 -0.27686,0.36738 -0.55604,0.73259 -0.82812,1.1074 -0.40188,0.55369 -0.79424,1.1203 -1.1855,1.6895 -0.23883,0.34737 -0.48195,0.68816 -0.7168,1.041 -0.59973,0.90117 -1.1884,1.8175 -1.7617,2.752 -0.0059,0.0097 -0.01165,0.01963 -0.01758,0.0293 -0.04598,0.075 -0.08896,0.15331 -0.13477,0.22852 -0.5317,0.87301 -1.0524,1.7596 -1.5605,2.6582 -0.21533,0.38075 -0.42177,0.76932 -0.63281,1.1543 -0.34327,0.6262 -0.68383,1.254 -1.0156,1.8906 -0.2183,0.41884 -0.43126,0.84261 -0.64453,1.2656 -0.30313,0.60128 -0.60362,1.2054 -0.89648,1.8145 -0.21057,0.43789 -0.4198,0.87679 -0.625,1.3184 -0.29854,0.64246 -0.58796,1.29 -0.875,1.9395 -0.18796,0.42529 -0.37757,0.84936 -0.56055,1.2773 -0.28684,0.67094 -0.56344,1.3466 -0.83789,2.0234 -0.16078,0.39646 -0.32594,0.79124 -0.48242,1.1895 -0.42378,1.0785 -0.83476,2.1613 -1.2266,3.25 -0.39342,1.0932 -0.7684,2.1914 -1.1289,3.291 -0.12083,0.36853 -0.23253,0.73846 -0.34961,1.1074 -0.22444,0.70733 -0.44572,1.4149 -0.65625,2.123 -0.139,0.46752 -0.27143,0.93485 -0.4043,1.4023 -0.18884,0.66447 -0.3725,1.3285 -0.54883,1.9922 -0.11514,0.43336 -0.22814,0.8661 -0.33789,1.2988 -0.17169,0.67699 -0.33381,1.3526 -0.49219,2.0273 -0.10306,0.43903 -0.20732,0.87866 -0.30469,1.3164 -0.15273,0.68669 -0.29501,1.37 -0.43359,2.0527 -0.08262,0.40702 -0.1705,0.81536 -0.24805,1.2207 -0.20472,1.0701 -0.39555,2.1355 -0.56445,3.1914 -0.171,1.069 -0.31952,2.1272 -0.45312,3.1777 -0.04196,0.32989 -0.0731,0.6546 -0.11133,0.98242 -0.08189,0.70238 -0.16,1.4018 -0.22461,2.0938 -0.03863,0.41368 -0.06917,0.82279 -0.10156,1.2324 -0.049,0.61975 -0.09431,1.236 -0.12891,1.8457 -0.02253,0.397 -0.04027,0.79114 -0.05664,1.1836 -0.02547,0.61069 -0.0423,1.2136 -0.05273,1.8125 -0.0067,0.3842 -0.01518,0.76938 -0.01563,1.1484 -7.47e-4,0.63709 0.01225,1.2631 0.0293,1.8848 0.0084,0.30594 0.0107,0.61793 0.02344,0.91992 0.03892,0.92255 0.09389,1.8298 0.17383,2.7129 2.7293,30.152 25.765,45.447 53.426,45.541 0.86374,0.003 1.7205,-0.0192 2.5684,-0.0644 6.53e-4,-4e-5 0.0013,3e-5 0.002,0 0.83208,-0.0445 1.6545,-0.11179 2.4707,-0.20117 0.53214,-0.0583 1.0549,-0.14186 1.5801,-0.21875 0.29802,-0.0436 0.60075,-0.0755 0.89648,-0.125 0.55969,-0.0937 1.1108,-0.20983 1.6621,-0.32422 0.23411,-0.0486 0.47251,-0.0865 0.70508,-0.13867 0.0065,-0.001 0.01303,-0.002 0.01953,-0.004 0.56387,-0.12692 1.1172,-0.27773 1.6719,-0.42578 0.2262,-0.0603 0.457,-0.11005 0.68164,-0.17383 0.51841,-0.1473 1.0271,-0.31514 1.5371,-0.48047 0.25246,-0.0818 0.50941,-0.15412 0.75977,-0.24023 0.68913,-0.23722 1.3682,-0.49443 2.041,-0.76368 0.04829,-0.0193 0.09828,-0.0352 0.14648,-0.0547 0.003,-0.001 0.005,-0.003 0.008,-0.004 0.53745,-0.21737 1.0651,-0.45426 1.5918,-0.69141 0.20852,-0.0938 0.42209,-0.17854 0.6289,-0.27539 0.59067,-0.2768 1.1696,-0.57209 1.7461,-0.87304 0.1006,-0.0525 0.20452,-0.0992 0.30469,-0.15235 0.007,-0.004 0.0143,-0.008 0.0215,-0.0117 0.56433,-0.30034 1.1178,-0.6187 1.668,-0.9414 0.13096,-0.0768 0.26633,-0.14661 0.39648,-0.22461 0.59097,-0.35441 1.1702,-0.72618 1.7441,-1.1055 0.0649,-0.0429 0.13257,-0.0818 0.19727,-0.125 0.007,-0.004 0.0129,-0.009 0.0195,-0.0137 0.64244,-0.42957 1.2743,-0.87459 1.8945,-1.334 0.60017,-0.4445 1.1887,-0.90394 1.7676,-1.375 0.0256,-0.0208 0.0526,-0.0397 0.0781,-0.0605 0.004,-0.003 0.008,-0.007 0.0117,-0.01 0.59931,-0.49 1.186,-0.99469 1.7617,-1.5117 0.57197,-0.51365 1.1336,-1.0393 1.6816,-1.5781 0.007,-0.007 0.0143,-0.0144 0.0215,-0.0215 l 0.004,-0.004 c 0.54244,-0.53405 1.0715,-1.0814 1.5898,-1.6387 0.0107,-0.0115 0.0225,-0.0217 0.0332,-0.0332 -6.2977,3.3976 -10.974,0.37621 -18.785,0.34961 -27.661,-0.0936 -40.947,-15.684 -45.926,-33.753 -8.5467,-31.013 -2.0163,-60.736 15.029,-78.969 z"
         fill="#6c5d53"
         filter="url(#h)"
         mask="url(#m)"
         opacity="0.616"
         id="path31" />
      <path
         d="m 129.3,996.05 c -5.9466,12.507 -9.5597,11.45 -16.777,25.591 -1.8435,1.7233 -2.6804,4.5117 0.0218,5.4909 2.5152,-0.2895 5.6399,-0.1771 7.6356,-1.6787 0.64228,-1.6048 1.2379,1.3214 2.7416,-0.088 3.4676,-1.7349 4.3541,-5.8294 6.7172,-8.613 1.7255,-2.9145 3.9729,-5.4547 5.9436,-8.2002 -0.0413,-2.7823 -3.7234,-3.2836 -4.5604,-5.7728 -1.5236,-2.3661 3.3232,-14.133 2.5711,-16.83 z m -8.8219,29.287 c -0.25314,0.4194 0.25047,0.2921 0,0 z m 0.0352,0.3789 c -0.19028,0.9071 1.0322,0.6203 0,0 z"
         fill="#fdf9ec"
         fill-rule="evenodd"
         filter="url(#i)"
         mask="url(#n)"
         id="path33" />
      <path
         transform="matrix(1.202,0.20168,-0.14794,2.0565,142.79,-1060.3)"
         d="m 98.107,975.89 c -1.3945,-3.1823 -4.0605,-5.6861 -6.3413,-8.2064 -2.4772,-1.5833 -4.7962,-4.7208 -8.0659,-3.9744 -4.0226,0.99368 -2.8441,5.9889 -2.536,9.0042 0.88856,3.654 5.0475,4.7222 7.4122,7.2386 2.1945,3.5928 8.2331,4.4353 9.8852,-0.0908 0.41433,-1.3146 0.22684,-2.739 -0.35417,-3.9712 z"
         fill="#ffffff"
         fill-rule="evenodd"
         filter="url(#j)"
         id="path35" />
      <g
         fill-rule="evenodd"
         id="g53">
        <path
           d="m 77.773,918.55 c -0.76775,1.323 0.99774,3.18 2.7476,2.54 1.6158,-0.49378 2.0982,-2.7465 0.37714,-3.3781 -1.0473,-0.45735 -3.1596,-0.53683 -3.1248,0.83814 z"
           fill="#f7cbb4"
           id="path37" />
        <path
           d="m 95.045,913.6 c -1.864,0.0699 1.8146,3.987 3.0184,3.2591 0.78992,-0.61914 -1.694,-3.2141 -3.0184,-3.2591 z"
           fill="#f7cbb4"
           id="path39" />
        <path
           d="m 49.029,939.72 c -0.0894,1.4309 1.1508,1.5843 1.1235,0.13056 -0.04188,-1.2589 -0.92619,-1.013 -1.1235,-0.13056 z"
           fill="#f7cbb4"
           id="path41" />
        <path
           d="m 86.215,920.63 c 0.06804,0.70211 -1.9626,0.12918 -1.1208,1.1134 0.48817,0.83452 2.2392,0.94319 2.7621,0.0803 0.34311,-0.84834 -1.013,-0.95729 -1.6414,-1.1938 v 2e-5 z"
           fill="#f7cbb4"
           id="path43" />
        <path
           d="m 67.998,960.09 c 0.60912,1.4418 2.5034,1.8706 3.4688,0.75936 0.80356,-2.0713 -1.8431,-3.4267 -3.0383,-2.2373 -0.41136,1.0739 0.56923,-0.41565 -0.03897,0.88421 -0.11982,0.18757 -0.16984,0.52864 -0.39159,0.59374 z"
           fill="#f7cbb4"
           id="path45" />
        <path
           d="m 84.854,946.36 c -1.482,1.3907 1.4147,3.7645 2.1631,1.8688 0.64312,-1.494 -1.1416,-3.0427 -2.1631,-1.8688 z"
           fill="#f7cbb4"
           id="path47" />
        <path
           d="m 41.483,951.29 c -0.5226,1.7878 0.0889,2.6078 1.134,1.4712 1.5022,-2.2859 1.065,-4.3154 -0.1261,-3.1263 -0.77647,1.186 0.48409,-0.39008 -0.50516,1.027 -0.15711,0.1991 -0.3676,0.58934 -0.50279,0.62812 z"
           fill="#cfb2a3"
           id="path49" />
        <path
           d="m 35.418,990.8 c 0.97907,2.163 2.0058,2.4372 1.8672,0.46087 -0.68583,-3.4691 -2.4966,-5.0555 -2.4179,-2.9054 0.35782,1.7974 0.03753,-0.78405 0.42332,1.4154 0.04191,0.32431 0.19017,0.87778 0.12735,1.0291 z"
           fill="#bf9985"
           id="path51" />
      </g>
    </g>
  </g>
</svg>
