<?xml version="1.0" encoding="UTF-8" standalone="no"?>
<svg
   xmlns:dc="http://purl.org/dc/elements/1.1/"
   xmlns:cc="http://creativecommons.org/ns#"
   xmlns:rdf="http://www.w3.org/1999/02/22-rdf-syntax-ns#"
   xmlns:svg="http://www.w3.org/2000/svg"
   xmlns="http://www.w3.org/2000/svg"
   xmlns:sodipodi="http://sodipodi.sourceforge.net/DTD/sodipodi-0.dtd"
   xmlns:inkscape="http://www.inkscape.org/namespaces/inkscape"
   viewBox="0 0 472.3754 332.89624"
   version="1.1"
   id="svg12"
   sodipodi:docname="english.svg"
   width="124.98266mm"
   height="88.078796mm"
   inkscape:version="1.0.2-2 (e86c870879, 2021-01-15)">
  <metadata
     id="metadata18">
    <rdf:RDF>
      <cc:Work
         rdf:about="">
        <dc:format>image/svg+xml</dc:format>
        <dc:type
           rdf:resource="http://purl.org/dc/dcmitype/StillImage" />
        <dc:title />
      </cc:Work>
    </rdf:RDF>
  </metadata>
  <defs
     id="defs16" />
  <sodipodi:namedview
     pagecolor="#ffffff"
     bordercolor="#666666"
     borderopacity="1"
     objecttolerance="10"
     gridtolerance="10"
     guidetolerance="10"
     inkscape:pageopacity="0"
     inkscape:pageshadow="2"
     inkscape:window-width="1920"
     inkscape:window-height="1017"
     id="namedview14"
     showgrid="false"
     units="mm"
     inkscape:zoom="1.535011"
     inkscape:cx="217.91085"
     inkscape:cy="165.42133"
     inkscape:window-x="-8"
     inkscape:window-y="-8"
     inkscape:window-maximized="1"
     inkscape:current-layer="svg12"
     inkscape:document-rotation="0" />
  <path
     d="M 7.8728578e-4,19.582133 Q 118.09365,-19.582133 236.18652,19.582133 q 118.09287,39.164263 236.18573,0 V 313.31411 q -118.09286,39.16427 -236.18573,0 -118.09287,-39.16426 -236.18573271422,0 z"
     fill="#00247d"
     id="path2"
     style="stroke-width:8.77973" />
  <path
     d="M 7.8728578e-4,19.582133 Q 26.40714,10.824709 52.813492,5.9842996 144.50079,46.188374 236.18809,133.61084 327.8754,107.0046 419.5627,33.183881 445.96905,28.342883 472.3754,19.586049 V 52.426263 Q 380.6881,139.8458 289.0008,180.05281 380.6881,253.8745 472.3754,280.47977 v 32.84021 q -26.40635,8.75743 -52.8127,13.59784 Q 327.8754,286.71374 236.18809,199.29128 144.50079,225.89752 52.813492,299.71824 26.40714,304.55924 7.8728578e-4,313.31607 V 280.47585 Q 91.688089,193.05632 183.37539,152.84931 91.688089,79.02761 7.8728578e-4,52.422347 Z"
     fill="#ffffff"
     id="path4"
     style="stroke-width:8.77973" />
  <path
     d="M 7.8728578e-4,19.582133 Q 118.09365,53.850863 236.18652,166.44812 218.58202,160.6099 200.97831,156.51215 100.48916,70.635688 0,41.476914 Z M 236.18652,144.5553 Q 336.67568,115.39555 437.16483,29.520064 454.76933,25.422404 472.37304,19.58409 354.28017,132.18134 236.18731,166.45008 Z M 472.37225,313.31411 Q 354.27939,279.04538 236.18652,166.44812 q 17.6045,5.83822 35.20821,9.93598 100.48915,85.87646 200.97831,115.03522 z M 236.18652,188.34094 Q 135.69736,217.5007 35.208207,303.37618 17.60371,307.47384 0,313.31215 118.09287,200.71489 236.18573,166.44617 Z"
     fill="#cf142b"
     id="path6"
     style="stroke-width:8.77973" />
  <path
     d="m 196.82223,8.7031806 q 19.68215,4.3515404 39.36429,10.8788534 19.68214,6.527312 39.36429,10.878853 v 97.910663 q 98.41072,21.7577 196.82144,-10.87886 v 97.91066 q -98.41072,32.63657 -196.82144,10.87885 v 97.91066 q -19.68215,-4.35153 -39.36429,-10.87885 -19.68214,-6.52731 -39.36429,-10.87885 V 204.5245 Q 98.411509,182.7668 7.8728578e-4,215.40335 V 117.49269 Q 98.411509,84.856134 196.82223,106.61384 Z"
     fill="#ffffff"
     id="path8"
     style="stroke-width:8.77973" />
  <path
     d="m 212.56795,12.532565 q 11.80928,3.13314 23.61857,7.049568 11.80929,3.916426 23.61857,7.049566 V 144.1245 q 106.28358,28.19827 212.56716,-7.04957 v 58.7464 q -106.28358,35.24782 -212.56716,7.04955 v 117.4928 q -11.80928,-3.13314 -23.61857,-7.04957 -11.80929,-3.91642 -23.61857,-7.04957 V 188.77175 Q 106.28437,160.57349 7.8728578e-4,195.82133 v -58.7464 Q 106.28437,101.82709 212.56795,130.02535 Z"
     fill="#cf142b"
     id="path10"
     style="stroke-width:8.77973" />
</svg>
