<?xml version="1.0" encoding="UTF-8" standalone="no"?>
<svg
   xmlns:dc="http://purl.org/dc/elements/1.1/"
   xmlns:cc="http://creativecommons.org/ns#"
   xmlns:rdf="http://www.w3.org/1999/02/22-rdf-syntax-ns#"
   xmlns:svg="http://www.w3.org/2000/svg"
   xmlns="http://www.w3.org/2000/svg"
   xmlns:xlink="http://www.w3.org/1999/xlink"
   xmlns:sodipodi="http://sodipodi.sourceforge.net/DTD/sodipodi-0.dtd"
   xmlns:inkscape="http://www.inkscape.org/namespaces/inkscape"
   viewBox="0 0 196.81244 460.28802"
   version="1.1"
   id="svg41"
   sodipodi:docname="envelope.svg"
   width="52.073292mm"
   height="121.78454mm"
   inkscape:version="1.0.2-2 (e86c870879, 2021-01-15)">
  <metadata
     id="metadata45">
    <rdf:RDF>
      <cc:Work
         rdf:about="">
        <dc:format>image/svg+xml</dc:format>
        <dc:type
           rdf:resource="http://purl.org/dc/dcmitype/StillImage" />
        <dc:title />
      </cc:Work>
    </rdf:RDF>
  </metadata>
  <sodipodi:namedview
     pagecolor="#ffffff"
     bordercolor="#666666"
     borderopacity="1"
     objecttolerance="10"
     gridtolerance="10"
     guidetolerance="10"
     inkscape:pageopacity="0"
     inkscape:pageshadow="2"
     inkscape:window-width="1920"
     inkscape:window-height="1017"
     id="namedview43"
     showgrid="false"
     units="mm"
     inkscape:zoom="1.3703822"
     inkscape:cx="-79.21626"
     inkscape:cy="181.40012"
     inkscape:window-x="-8"
     inkscape:window-y="-8"
     inkscape:window-maximized="1"
     inkscape:current-layer="svg41"
     inkscape:document-rotation="0" />
  <defs
     id="defs17">
    <filter
       id="e">
      <feGaussianBlur
         stdDeviation="9.23578"
         id="feGaussianBlur2" />
    </filter>
    <linearGradient
       id="a">
      <stop
         stop-color="#241f1c"
         offset="0"
         id="stop5" />
      <stop
         stop-color="#241f1c"
         stop-opacity="0"
         offset="1"
         id="stop7" />
    </linearGradient>
    <linearGradient
       id="d"
       x1="319.76001"
       x2="326.01999"
       y1="909.72998"
       y2="116.61"
       gradientUnits="userSpaceOnUse"
       gradientTransform="matrix(0.3633049,0,0,0.49175818,-42.531013,-4.3243218)">
      <stop
         offset="0"
         id="stop10" />
      <stop
         stop-opacity="0"
         offset="1"
         id="stop12" />
    </linearGradient>
    <linearGradient
       id="c"
       x1="667.71997"
       x2="581.52002"
       y1="564.89001"
       y2="566.46002"
       gradientUnits="userSpaceOnUse"
       xlink:href="#a"
       gradientTransform="matrix(0.3633049,0,0,0.49175818,-42.531013,-4.3243218)" />
    <linearGradient
       id="b"
       x1="652.04999"
       x2="565.84003"
       y1="398.73999"
       y2="400.31"
       gradientTransform="matrix(-0.3633049,0,0,0.49175818,231.37182,77.381302)"
       gradientUnits="userSpaceOnUse"
       xlink:href="#a" />
  </defs>
  <path
     d="m 247.93,86.794 c -47.486,0 -85.719,38.233 -85.719,85.719 v 2.8438 h 451.44 v -2.8438 c 0,-47.486 -38.233,-85.719 -85.719,-85.719 h -280 z m -85.719,88.594 v 691.41 h 451.44 v -691.41 z"
     filter="url(#e)"
     stroke="#000000"
     stroke-linecap="round"
     stroke-width="2"
     id="path19"
     transform="matrix(0.3633049,0,0,0.49175818,-42.531014,-4.3243226)" />
  <path
     d="m 46.409655,36.284085 c -17.25189,0 -31.142128,18.80139 -31.142128,42.153019 v 1.398463 h 0.408718 V 346.69305 H 178.86918 V 79.835567 h 0.40871 v -1.398463 c 0,-23.351629 -13.89023,-42.153019 -31.14212,-42.153019 H 46.410385 Z"
     fill="#a0892c"
     stroke="#000000"
     stroke-linecap="round"
     stroke-width="0.717625"
     id="path21" />
  <path
     d="m 46.402395,36.044598 c -17.2519,0 -31.142134,18.801391 -31.142134,42.15302 V 79.59608 H 179.27062 v -1.398462 c 0,-23.351629 -13.89023,-42.15302 -31.14212,-42.15302 H 46.403115 Z M 15.260261,79.611423 V 419.61794 H 179.27062 V 79.611423 Z"
     fill="url(#d)"
     opacity="0.31019"
     stroke="#000000"
     stroke-linecap="round"
     stroke-width="0.845359"
     id="path23"
     style="fill:url(#d)" />
  <path
     d="M 24.095472,64.089077 H 170.44559 V 386.00382 H 24.095472 Z"
     fill="#ffffff"
     stroke="#000000"
     stroke-linecap="round"
     stroke-width="0.857406"
     id="path25" />
  <path
     d="M 15.26353,80.071216 V 419.26142 H 179.27389 V 80.071216 c 0,15.328105 -13.89023,27.661404 -31.14212,27.661404 H 46.406385 c -17.25189,0 -31.142128,-12.333299 -31.142128,-27.661404 z"
     fill="#a0892c"
     stroke="#000000"
     stroke-linecap="round"
     stroke-width="0.845359"
     id="path29" />
  <path
     d="m 96.749185,108.90791 1.03321,310.02403"
     fill="none"
     stroke="#000000"
     stroke-width="0.406902"
     id="path31" />
  <path
     d="m 46.402395,380.05845 c -17.2519,0 -31.142134,18.8014 -31.142134,42.15304 v 1.39844 H 179.27062 v -1.39844 c 0,-23.35164 -13.89023,-42.15304 -31.14212,-42.15304 H 46.403115 Z"
     fill="#a0892c"
     stroke="#000000"
     stroke-linecap="round"
     stroke-width="0.845359"
     id="path33" />
  <path
     d="m 15.26353,82.03825 v 339.1902 H 179.27389 V 82.03825 c 0,15.328101 -13.89023,27.6614 -31.14212,27.6614 H 46.406385 c -17.25189,0 -31.142128,-12.333299 -31.142128,-27.6614 z"
     fill="url(#c)"
     id="path35"
     style="fill:url(#c);stroke-width:0.42268" />
  <path
     d="m 179.27027,82.03825 v 339.1902 H 15.259896 V 82.03825 c 0,15.328101 13.890239,27.6614 31.142139,27.6614 H 148.1274 c 17.25189,0 31.14213,-12.333299 31.14213,-27.6614 z"
     fill="url(#b)"
     id="path37"
     style="fill:url(#b);stroke-width:0.42268" />
</svg>
