<?xml version="1.0" encoding="UTF-8" standalone="no"?>
<svg
   xmlns:dc="http://purl.org/dc/elements/1.1/"
   xmlns:cc="http://creativecommons.org/ns#"
   xmlns:rdf="http://www.w3.org/1999/02/22-rdf-syntax-ns#"
   xmlns:svg="http://www.w3.org/2000/svg"
   xmlns="http://www.w3.org/2000/svg"
   xmlns:sodipodi="http://sodipodi.sourceforge.net/DTD/sodipodi-0.dtd"
   xmlns:inkscape="http://www.inkscape.org/namespaces/inkscape"
   id="svg2"
   viewBox="0 0 255.54768 451.74776"
   version="1.1"
   sodipodi:docname="feet.svg"
   width="67.613655mm"
   height="119.52493mm"
   inkscape:version="1.0.2-2 (e86c870879, 2021-01-15)">
  <defs
     id="defs30" />
  <sodipodi:namedview
     pagecolor="#ffffff"
     bordercolor="#666666"
     borderopacity="1"
     objecttolerance="10"
     gridtolerance="10"
     guidetolerance="10"
     inkscape:pageopacity="0"
     inkscape:pageshadow="2"
     inkscape:window-width="1920"
     inkscape:window-height="1017"
     id="namedview28"
     showgrid="false"
     units="mm"
     inkscape:zoom="1.3552674"
     inkscape:cx="25.781564"
     inkscape:cy="187.55956"
     inkscape:window-x="-8"
     inkscape:window-y="-8"
     inkscape:window-maximized="1"
     inkscape:current-layer="g3050"
     inkscape:document-rotation="0" />
  <g
     id="layer2"
     transform="matrix(0.50712295,0,0,0.50712295,-188.25388,-115.59168)">
    <g
       id="g3050"
       style="display:inline">
      <path
         id="path3028"
         style="color:#000000;stroke-width:5.91573;stroke-miterlimit:4;stroke-dasharray:none"
         d="m 614.25,724.68 c -10.178,73.095 9.8676,147.05 -28.965,204.06 -39.4,57.838 -137.01,39.235 -145.75,-43.405 -6.3148,-59.715 33.039,-122.53 21.556,-209.58 -12.199,-92.487 -79.499,-122.96 -86.184,-196.81 -6.1852,-68.335 28.997,-121.68 28.997,-121.68 12.851,-144.94 77.781,-138.19 99.579,-110.61 41.368,-3.5051 42.078,43.421 42.078,43.421 39.685,-6.6659 41.997,41.155 41.997,41.155 28.831,-0.9552 35.971,20.568 38.289,51.079 28.735,33.27 6.8194,95.752 6.8194,95.752 -5.4449,82.439 -5.882,156.58 -18.42,246.63 z"
         stroke="#deaa87"
         stroke-width="2.0208"
         fill="#ffe6d5" />
      <g
         id="g3818"
         transform="matrix(1.0104,0,0,1.0104,325.22,214.51)"
         style="display:inline;stroke-width:5.85484;stroke-miterlimit:4;stroke-dasharray:none">
        <g
           id="g3798"
           stroke="#deaa87"
           stroke-width="2"
           fill="none"
           transform="matrix(-1,0,0,1,590.8,-149.76)"
           style="stroke-width:5.85484;stroke-miterlimit:4;stroke-dasharray:none">
          <path
             id="path3800"
             style="color:#000000;stroke-width:5.85484;stroke-miterlimit:4;stroke-dasharray:none"
             d="m 294.18,314.85 c 13.187,-4.0293 35.99,-5.2161 46.482,14.404 10.746,20.095 -18.053,45.919 -14.456,66.817 9.548,0.10503 7.2409,-14.094 13.669,-17.308" />
          <path
             id="path3802"
             style="color:#000000;stroke-width:5.85484;stroke-miterlimit:4;stroke-dasharray:none"
             d="m 511.76,305.61 c -17.829,-14.527 -46.223,-1.3207 -46.223,-1.3207" />
          <path
             id="path3804"
             style="color:#000000;stroke-width:5.85484;stroke-miterlimit:4;stroke-dasharray:none"
             d="m 472.8,312.21 c -47.544,-54.808 -94.428,4.2922 -94.428,4.2922" />
          <path
             id="path3806"
             style="color:#000000;stroke-width:5.85484;stroke-miterlimit:4;stroke-dasharray:none"
             d="m 369.79,334.66 c -18.23,6.904 -15.41,22.802 -25.753,28.394" />
          <path
             id="path3808"
             style="color:#000000;stroke-width:5.85484;stroke-miterlimit:4;stroke-dasharray:none"
             d="m 330.5,265.33 c 45.233,15.848 20.8,66.694 20.8,66.694 5.2827,4.9525 3.962,14.197 3.962,14.197" />
          <path
             id="path3810"
             style="color:#000000;stroke-width:5.85484;stroke-miterlimit:4;stroke-dasharray:none"
             d="m 372.77,224.61 c 34.337,24.432 11.216,63.831 11.216,63.831 5.943,3.962 4.6223,14.858 4.6223,14.858" />
          <path
             id="path3812"
             style="color:#000000;stroke-width:5.85484;stroke-miterlimit:4;stroke-dasharray:none"
             d="m 415.19,182.08 c 33.05,21.678 12.433,65.774 12.433,65.774 3.1083,4.3156 0.93385,11.886 0.93385,11.886" />
          <path
             id="path3814"
             style="color:#000000;stroke-width:5.85484;stroke-miterlimit:4;stroke-dasharray:none"
             d="m 421.29,257.41 c 14.527,0 11.886,27.074 11.886,27.074" />
        </g>
      </g>
      <path
         id="path2997"
         style="color:#000000;display:inline;stroke-width:5.91573;stroke-miterlimit:4;stroke-dasharray:none"
         d="m 618.67,881.6 c 7.5008,73.418 23.462,147.07 66.993,200.03 44.433,54.067 143.94,45.466 155.69,-36.799 8.492,-59.444 -48.525,-141.57 -44.347,-229.29 3.7719,-79.192 53.695,-119.19 69.823,-170.78 20.473,-65.489 -24.533,-122.66 -24.533,-122.66 -7.5478,-145.31 -71.49,-134.76 -95.3,-118.89 -33.025,-9.4356 -39.63,22.645 -39.63,22.645 -36.799,-15.097 -42.46,37.742 -42.46,37.742 -25.476,-1.8871 -30.194,49.065 -30.194,49.065 -33.025,26.42 -14.153,97.187 -14.153,97.187 -11.323,97.187 -11.128,181.3 -1.8871,271.75 z"
         stroke="#deaa87"
         stroke-width="2.0208"
         fill="#ffe6d5" />
      <g
         id="g3018"
         stroke="#deaa87"
         stroke-width="2"
         fill="none"
         transform="matrix(1.0104,0,0,1.0104,325.22,214.51)"
         style="display:inline;stroke-width:5.85484;stroke-miterlimit:4;stroke-dasharray:none">
        <path
           id="path3002"
           style="color:#000000;stroke-width:5.85484;stroke-miterlimit:4;stroke-dasharray:none"
           d="M 317.62,380.89 C 388.28,299.67 306.39,295.7 306.39,295.7" />
        <path
           id="path3004"
           style="color:#000000;stroke-width:5.85484;stroke-miterlimit:4;stroke-dasharray:none"
           d="m 511.76,305.61 c -17.829,-14.527 -46.223,-1.3207 -46.223,-1.3207" />
        <path
           id="path3006"
           style="color:#000000;stroke-width:5.85484;stroke-miterlimit:4;stroke-dasharray:none"
           d="m 472.8,312.21 c -47.55,-54.8 -103.01,-7.26 -103.01,-7.26" />
        <path
           id="path3008"
           style="color:#000000;stroke-width:5.85484;stroke-miterlimit:4;stroke-dasharray:none"
           d="m 375.07,313.53 c -16.579,1.4758 -15.41,19.529 -25.753,28.394" />
        <path
           id="path3010"
           style="color:#000000;stroke-width:5.85484;stroke-miterlimit:4;stroke-dasharray:none"
           d="m 335.45,246.18 c 62.071,-3.962 25.093,66.033 25.093,66.033 2.6413,0.66033 1.3207,8.5843 1.3207,8.5843" />
        <path
           id="path3012"
           style="color:#000000;stroke-width:5.85484;stroke-miterlimit:4;stroke-dasharray:none"
           d="m 378.37,209.2 c 34.337,24.432 8.5843,62.071 8.5843,62.071 5.943,3.962 3.3017,17.169 3.3017,17.169" />
        <path
           id="path3014"
           style="color:#000000;stroke-width:5.85484;stroke-miterlimit:4;stroke-dasharray:none"
           d="m 417.99,186.75 c 36.318,19.81 10.565,58.77 10.565,58.77 2.6413,1.981 0,11.886 0,11.886" />
        <path
           id="path3016"
           style="color:#000000;stroke-width:5.85484;stroke-miterlimit:4;stroke-dasharray:none"
           d="m 421.29,257.41 c 14.527,0 11.886,27.074 11.886,27.074" />
      </g>
    </g>
  </g>
  <metadata
     id="metadata25">
    <rdf:RDF>
      <cc:Work>
        <dc:format>image/svg+xml</dc:format>
        <dc:type
           rdf:resource="http://purl.org/dc/dcmitype/StillImage" />
        <cc:license
           rdf:resource="http://creativecommons.org/publicdomain/zero/1.0/" />
        <dc:publisher>
          <cc:Agent
             rdf:about="http://openclipart.org/">
            <dc:title>Openclipart</dc:title>
          </cc:Agent>
        </dc:publisher>
        <dc:title>Feet Soles</dc:title>
        <dc:date>2013-08-29T01:22:32</dc:date>
        <dc:description>Just a female soles.</dc:description>
        <dc:source>http://openclipart.org/detail/182537/feet-soles-by-solvera-182537</dc:source>
        <dc:creator>
          <cc:Agent>
            <dc:title>SOlvera</dc:title>
          </cc:Agent>
        </dc:creator>
        <dc:subject>
          <rdf:Bag>
            <rdf:li>Beach</rdf:li>
            <rdf:li>Feet</rdf:li>
            <rdf:li>Female</rdf:li>
            <rdf:li>Soles</rdf:li>
            <rdf:li>Sun</rdf:li>
            <rdf:li>Toes</rdf:li>
          </rdf:Bag>
        </dc:subject>
      </cc:Work>
      <cc:License
         rdf:about="http://creativecommons.org/publicdomain/zero/1.0/">
        <cc:permits
           rdf:resource="http://creativecommons.org/ns#Reproduction" />
        <cc:permits
           rdf:resource="http://creativecommons.org/ns#Distribution" />
        <cc:permits
           rdf:resource="http://creativecommons.org/ns#DerivativeWorks" />
      </cc:License>
    </rdf:RDF>
  </metadata>
</svg>
