<?xml version="1.0" encoding="UTF-8" standalone="no"?>
<svg
   xmlns:dc="http://purl.org/dc/elements/1.1/"
   xmlns:cc="http://creativecommons.org/ns#"
   xmlns:rdf="http://www.w3.org/1999/02/22-rdf-syntax-ns#"
   xmlns:svg="http://www.w3.org/2000/svg"
   xmlns="http://www.w3.org/2000/svg"
   xmlns:sodipodi="http://sodipodi.sourceforge.net/DTD/sodipodi-0.dtd"
   xmlns:inkscape="http://www.inkscape.org/namespaces/inkscape"
   width="85.681404mm"
   height="99.72065mm"
   id="svg1944"
   sodipodi:version="0.32"
   inkscape:version="1.0.2-2 (e86c870879, 2021-01-15)"
   version="1.0"
   sodipodi:docname="flea.svg">
  <defs
     id="defs1946" />
  <sodipodi:namedview
     id="base"
     pagecolor="#ffffff"
     bordercolor="#666666"
     borderopacity="1.0"
     gridtolerance="10000"
     guidetolerance="10"
     objecttolerance="10"
     inkscape:pageopacity="0.0"
     inkscape:pageshadow="2"
     inkscape:zoom="0.49497475"
     inkscape:cx="159.57906"
     inkscape:cy="117.85909"
     inkscape:document-units="px"
     inkscape:current-layer="layer1"
     width="15cm"
     height="15cm"
     units="mm"
     inkscape:window-width="1920"
     inkscape:window-height="1017"
     inkscape:window-x="-8"
     inkscape:window-y="-8"
     inkscape:document-rotation="0"
     showgrid="false"
     inkscape:window-maximized="1" />
  <metadata
     id="metadata1949">
    <rdf:RDF>
      <cc:Work
         rdf:about="">
        <dc:format>image/svg+xml</dc:format>
        <dc:type
           rdf:resource="http://purl.org/dc/dcmitype/StillImage" />
        <dc:title>Body Parts of a Flea</dc:title>
        <dc:date>2007.10.02</dc:date>
        <dc:creator>
          <cc:Agent>
            <dc:title>Fiestoforo http://fiestoforo.blogspot.com</dc:title>
          </cc:Agent>
        </dc:creator>
        <cc:license
           rdf:resource="http://creativecommons.org/licenses/by-nc-nd/2.5/" />
        <dc:rights>
          <cc:Agent>
            <dc:title>CreativeCommons</dc:title>
          </cc:Agent>
        </dc:rights>
        <dc:subject>
          <rdf:Bag>
            <rdf:li>flea body parts</rdf:li>
          </rdf:Bag>
        </dc:subject>
      </cc:Work>
      <cc:License
         rdf:about="http://creativecommons.org/licenses/by-nc-nd/2.5/">
        <cc:permits
           rdf:resource="http://web.resource.org/cc/Reproduction" />
        <cc:permits
           rdf:resource="http://web.resource.org/cc/Distribution" />
        <cc:requires
           rdf:resource="http://web.resource.org/cc/Notice" />
        <cc:requires
           rdf:resource="http://web.resource.org/cc/Attribution" />
        <cc:prohibits
           rdf:resource="http://web.resource.org/cc/CommercialUse" />
      </cc:License>
    </rdf:RDF>
  </metadata>
  <g
     inkscape:label="Layer 1"
     inkscape:groupmode="layer"
     id="layer1"
     transform="translate(132.62408,-19.576987)">
    <path
       style="color:#000000;display:inline;overflow:visible;visibility:visible;fill:#9c582b;fill-opacity:1;fill-rule:evenodd;stroke:#000000;stroke-width:0.176833;stroke-linecap:butt;stroke-linejoin:miter;stroke-miterlimit:4;stroke-dasharray:none;stroke-dashoffset:0;stroke-opacity:1;marker:none;marker-start:none;marker-mid:none;marker-end:none"
       d="m -20.097231,46.478688 c 0,0 -11.266718,1.639221 -16.90149,6.707125 -5.634771,5.06789 -9.107853,3.095153 -12.182258,2.037921 -3.074324,-1.057244 -14.149275,-11.482141 -14.149275,-11.482141 0,0 -0.09959,-0.228882 -0.05312,1.003374 0.04647,1.232256 7.162518,6.192922 7.449695,7.10252 0.28727,0.90961 2.463811,2.031079 2.287421,3.251532 -0.176484,1.220429 2.392896,3.368914 3.701193,3.997196 1.308297,0.628294 -0.01191,0.222975 0.809191,1.608048 0.821029,1.385074 3.337974,2.412791 1.771327,2.441606 -1.56673,0.02884 -2.915704,-1.943223 -4.588013,-2.031792 -1.672215,-0.08862 -2.962825,-1.051335 -0.927309,0.621674 2.035609,1.672998 3.431797,2.753137 -0.007,2.23563 -3.438429,-0.517518 -5.867484,-1.093378 -5.902941,-0.424455 -0.03538,0.668912 5.644497,1.081563 7.691863,2.531575 2.047377,1.450035 3.590499,1.86717 3.590499,1.86717 0,0 1.055784,1.173903 -2.593687,0.421617 -3.649565,-0.752296 -4.916567,-2.160989 -7.245902,-2.507979 -2.329418,-0.346977 -5.855633,-1.316341 -7.322726,-1.058644 -1.466999,0.257697 -3.708537,0.362564 -1.044634,0.727253 2.663797,0.364701 7.803268,2.537494 9.334552,3.177603 1.531283,0.640098 2.787147,0.147623 3.426578,0.740494 0.639339,0.592847 1.155421,1.402773 0.152071,1.349639 -1.00335,-0.05312 0.91484,1.725431 -3.274415,0.609158 -4.189255,-1.116286 -10.572727,-3.01959 -12.802508,-3.137686 -2.229675,-0.118095 -6.489752,0.103443 -4.753252,1.089829 1.736488,0.986363 6.008415,0.541839 6.008415,0.541839 0,0 7.486565,2.185321 8.601496,2.244374 1.114838,0.05908 3.707825,1.761579 2.334543,2.359633 -1.373282,0.598055 -3.896777,1.80598 -5.597901,0.150693 -1.701135,-1.655286 -5.432567,-2.970927 -4.376783,-1.797013 1.055772,1.173915 3.848138,3.334193 5.620096,3.651655 1.772039,0.317451 4.858213,1.15172 2.393689,1.24476 -2.464512,0.09305 -2.993157,1.630255 -4.940792,0.409102 -1.947718,-1.221153 -2.47495,-3.932247 -4.669261,-4.719266 -2.194229,-0.787019 -6.172348,-1.668514 -5.773591,-0.752997 0.398664,0.915506 2.687417,-0.08126 3.086174,0.834246 0.398664,0.915517 1.969831,5.023488 4.610114,5.834138 2.640202,0.810639 5.726376,1.644896 5.655554,2.98272 -0.07087,1.337835 -0.153495,2.898646 -0.153495,2.898646 0,0 -1.407327,-2.981307 -1.935961,-1.444128 -0.528551,1.537191 -0.564009,2.206103 -0.459153,4.447641 0.104844,2.241537 -1.398302,5.292289 0.948091,7.428947 2.346393,2.136658 7.355264,8.886305 7.213538,11.561965 -0.141738,2.67568 -0.682128,4.43583 -0.788408,6.44259 -0.106245,2.00675 10.311551,12.17325 10.193432,14.40298 -0.11813,2.22971 27.273425,0.10298 27.273425,0.10298 L -2.3939886,62.621041 -19.217674,46.748889 Z"
       id="path3209" />
    <path
       style="color:#000000;display:inline;overflow:visible;visibility:visible;opacity:0.14;fill:#000000;fill-opacity:1;fill-rule:evenodd;stroke:#000000;stroke-width:0.884163px;stroke-linecap:butt;stroke-linejoin:miter;stroke-miterlimit:4;stroke-dasharray:none;stroke-dashoffset:0;stroke-opacity:1;marker:none;marker-start:none;marker-mid:none;marker-end:none"
       d="m -19.926877,59.33334 c -5.423928,0.08546 -13.515179,0.646297 -18.206144,2.991791 -7.505537,3.752763 -9.199504,9.152605 -18.789908,17.075101 -1.451179,1.198806 -2.704696,2.018691 -3.830952,2.590453 0.0418,0.1122 0.07928,0.244948 0.07297,0.364853 -0.07087,1.337836 -0.145941,2.882335 -0.145941,2.882335 0,1.2e-5 -1.405085,-2.996589 -1.933718,-1.45941 -0.528552,1.537191 -0.579164,2.209664 -0.474309,4.451202 0.104844,2.241549 -1.397776,5.306334 0.948617,7.442992 1.700598,1.548586 4.788757,5.522873 6.31195,8.610523 l 6.166008,-1.93372 35.427186,-42.943149 c 0,0 -2.291403,-0.124272 -5.545759,-0.07297 z"
       id="path7103" />
    <path
       style="color:#000000;display:inline;overflow:visible;visibility:visible;opacity:1;fill:#d38d5f;fill-opacity:1;fill-rule:evenodd;stroke:#000000;stroke-width:0.176833;stroke-linecap:butt;stroke-linejoin:miter;stroke-miterlimit:4;stroke-dasharray:none;stroke-dashoffset:0;stroke-opacity:1;marker:none;marker-start:none;marker-mid:none;marker-end:none"
       d="m -56.210597,115.09123 c 0,0 -2.653605,-16.806193 -5.602069,-17.985572 -5.258699,-2.103477 -4.127831,-6.781436 -4.127831,-6.781436 0,0 10.319595,-2.358769 12.9732,-6.4866 2.653605,-4.127843 6.781448,-14.152579 13.857732,-18.280422 7.594783,-26.702471 17.075498,-39.985499 29.074524,17.898045 0.815437,4.454925 1.2945556,7.45866 1.2945556,7.45866 0,0 -27.1506366,35.304195 -35.3814416,40.098985 -4.162904,2.42506 4.422678,-0.5897 -12.08867,-15.92166 z"
       id="path7099"
       sodipodi:nodetypes="cscscccsc" />
    <path
       id="path7101"
       d="m -24.217649,38.029893 c -3.197183,2.62388 -4.803375,0.802886 -6.117509,0.28608 -1.31431,-0.516818 -2.357403,-3.233096 -4.563576,-3.797153 -2.206068,-0.564032 -2.886796,-0.376492 -1.162053,0.832845 1.724649,1.209338 1.536292,1.848022 3.038037,3.045556 1.50185,1.197534 1.337836,0.07087 1.371962,3.650242 0.03398,3.57935 -0.509369,13.836088 0.745794,15.467755 1.255245,1.631656 -0.846061,3.309149 -1.469124,6.630113 -0.623075,3.320964 0.607733,13.162877 -0.743354,17.563268 -1.351098,4.400391 1.471693,16.112637 2.257265,18.166646 L -14.412174,79.630574 C -6.2873568,69.106742 -3.0451541,31.472868 -24.217649,38.029893 Z"
       style="color:#000000;display:inline;overflow:visible;visibility:visible;opacity:1;fill:#d38d5f;fill-opacity:1;fill-rule:evenodd;stroke:#000000;stroke-width:0.176833;stroke-linecap:butt;stroke-linejoin:miter;stroke-miterlimit:4;stroke-dasharray:none;stroke-dashoffset:0;stroke-opacity:1;marker:none;marker-start:none;marker-mid:none;marker-end:none"
       sodipodi:nodetypes="cssssssssccc" />
    <path
       id="path3211"
       d="m -28.567065,94.193749 c 0,0 -5.858202,9.484471 -13.146275,15.738971 -4.639033,3.98117 -10.459384,3.78572 -14.083041,3.1277 -0.0195,0.20411 -0.04869,0.39744 -0.05978,0.60556 -0.106246,2.00674 10.31217,12.1723 10.194039,14.40203 -0.02697,0.50877 1.417146,0.80571 3.602619,0.93787 l 10.483166,-7.77306 z"
       style="color:#000000;display:inline;overflow:visible;visibility:visible;opacity:0.14;fill:#000000;fill-opacity:1;fill-rule:evenodd;stroke:#000000;stroke-width:0.884163px;stroke-linecap:butt;stroke-linejoin:miter;stroke-miterlimit:4;stroke-dasharray:none;stroke-dashoffset:0;stroke-opacity:1;marker:none;marker-start:none;marker-mid:none;marker-end:none" />
    <path
       style="color:#000000;display:inline;overflow:visible;visibility:visible;opacity:1;fill:#d38d5f;fill-opacity:1;fill-rule:evenodd;stroke:#000000;stroke-width:0.176833;stroke-linecap:butt;stroke-linejoin:miter;stroke-miterlimit:4;stroke-dasharray:none;stroke-dashoffset:0;stroke-opacity:1;marker:none;marker-start:none;marker-mid:none;marker-end:none"
       d="m -4.2487824,30.10108 c -1.1265947,0.163933 -8.0505626,0.02078 -9.3647906,-0.496012 -1.314217,-0.516807 -1.888652,-2.336014 -3.226488,-2.406872 -1.337824,-0.07087 -3.555661,-0.411927 -1.608025,0.809226 1.947717,1.221153 2.652052,0.587652 2.299178,3.028533 -0.352873,2.440893 2.204656,4.812342 -1.139869,4.635181 -3.344607,-0.177149 -2.886877,-0.376493 -4.201012,-0.893299 -1.31431,-0.516818 -8.106884,-7.360928 -10.313057,-7.924984 -2.206068,-0.564033 -2.886796,-0.376493 -1.162053,0.832845 1.724649,1.209337 7.285773,5.975853 8.787518,7.173387 1.50185,1.197534 1.337836,0.07087 1.371963,3.650242 0.03397,3.57935 -0.50937,13.836088 0.745793,15.467755 1.255245,1.631656 -0.846061,3.309149 -1.469124,6.630113 -0.623075,3.320964 -4.40464,11.393803 -5.755727,15.794194 -1.351099,4.400391 -5.309755,15.81779 -4.524184,17.871799 0.785583,2.053986 2.709705,3.721087 1.147564,7.886702 -1.562317,4.16561 0.01051,4.02531 -4.61587,11.15901 -4.626296,7.13369 -9.840115,16.91942 -10.556289,17.77589 -0.716173,0.85646 7.086477,5.5181 8.422899,9.83725 1.336412,4.31914 9.082833,1.59907 9.082833,1.59907 L -5.566805,76.092438 Z"
       id="path3213" />
    <path
       id="path3215"
       d="m -45.135844,126.49107 c -1.345343,2.36237 -2.427828,4.28174 -2.707043,4.61566 -0.716173,0.85648 7.107784,5.50785 8.444195,9.827 0.599467,1.93759 2.479025,2.4601 4.380496,2.44553 l 5.098269,-11.62756 c 0,0 -11.949465,-0.96101 -14.902401,-4.91199 -0.105427,-0.1411 -0.208485,-0.23184 -0.313516,-0.34864 z"
       style="color:#000000;display:inline;overflow:visible;visibility:visible;opacity:0.14;fill:#000000;fill-opacity:1;fill-rule:evenodd;stroke:#000000;stroke-width:0.884163px;stroke-linecap:butt;stroke-linejoin:miter;stroke-miterlimit:4;stroke-dasharray:none;stroke-dashoffset:0;stroke-opacity:1;marker:none;marker-start:none;marker-mid:none;marker-end:none" />
    <path
       style="color:#000000;display:inline;overflow:visible;visibility:visible;opacity:1;fill:#d38d5f;fill-opacity:1;fill-rule:evenodd;stroke:#000000;stroke-width:0.176833;stroke-linecap:butt;stroke-linejoin:miter;stroke-miterlimit:4;stroke-dasharray:none;stroke-dashoffset:0;stroke-opacity:1;marker:none;marker-start:none;marker-mid:none;marker-end:none"
       d="m 4.3253117,26.530464 c 0,0 -6.7822417,-2.818811 -9.0998087,-3.388763 -2.3176603,-0.56994 -3.79651,-0.08932 -1.9484295,0.90299 1.8480688,0.992282 2.3463932,2.13667 1.1023685,2.406171 -1.2441065,0.2695 -1.3031717,1.384361 -1.3563059,2.387735 -0.053123,1.003385 -3.0011197,8.11417 -3.6005751,10.989185 -0.599468,2.875026 -0.224399,4.236481 -1.246232,6.641939 -1.021739,2.405447 -1.410059,5.515255 -1.504582,7.299039 -0.09457,1.783773 -3.509952,2.944448 -6.810087,10.371983 -3.300135,7.427534 -3.397484,17.707878 -3.397484,17.707878 0,0 -0.177184,3.344583 -2.525002,5.456209 -2.347806,2.111627 -3.17166,9.223123 -3.92321,10.748499 -0.75162,1.525364 -2.231275,4.130171 -0.847555,7.557421 1.383719,3.42727 3.118795,8.66193 3.118795,8.66193 0,0 -7.848009,25.74527 -10.195815,27.8569 -2.347899,2.11161 -2.736125,5.22142 -2.736125,5.22142 0,0 5.338126,4.7547 11.275731,6.63437 5.937511,1.87969 24.8614283,-51.45228 24.9322506,-52.79011 0.070869,-1.337831 8.674268,-75.116641 8.7620661,-74.664796 z"
       id="path3217" />
    <path
       id="path3219"
       d="m -38.439369,142.67235 c -1.87045,2.06348 -2.211824,4.66954 -2.211824,4.66954 0,0 5.330794,4.77665 11.268399,6.65632 1.48972,0.47164 3.825325,-2.53615 6.447313,-7.32277 -1.593886,-0.74106 -4.640621,-1.76628 -10.478216,-2.76849 -2.177965,-0.37394 -3.784041,-0.79493 -5.025672,-1.2346 z"
       style="color:#000000;display:inline;overflow:visible;visibility:visible;opacity:0.14;fill:#000000;fill-opacity:1;fill-rule:evenodd;stroke:#000000;stroke-width:0.884163px;stroke-linecap:butt;stroke-linejoin:miter;stroke-miterlimit:4;stroke-dasharray:none;stroke-dashoffset:0;stroke-opacity:1;marker:none;marker-start:none;marker-mid:none;marker-end:none" />
    <path
       style="color:#000000;display:inline;overflow:visible;visibility:visible;opacity:1;fill:#d38d5f;fill-opacity:1;fill-rule:evenodd;stroke:#000000;stroke-width:0.176833;stroke-linecap:butt;stroke-linejoin:miter;stroke-miterlimit:4;stroke-dasharray:none;stroke-dashoffset:0;stroke-opacity:1;marker:none;marker-start:none;marker-mid:none;marker-end:none"
       d="m 15.257544,24.873531 c -1.325973,-0.293832 -7.2517279,-2.39648 -9.4932654,-2.291613 -2.2415258,0.104844 -1.3496744,0.152106 -2.4777752,4.564312 -1.1280191,4.412217 -5.0159466,14.491793 -5.3688203,16.932674 -0.3528621,2.440881 -2.7375386,9.469719 -3.2779407,11.229873 -0.5404955,1.760165 -5.5889694,8.424288 -7.4908964,10.559522 -1.901833,2.135246 -3.957255,7.169138 -4.662991,12.0509 -0.705829,4.881774 0.573023,6.067504 -0.930228,9.118244 -1.50317,3.050763 -6.810006,10.372006 -5.862008,17.800957 0.948091,7.42894 3.188298,11.57236 4.396246,14.09592 1.207855,2.52355 -8.168343,36.01381 -8.744203,38.44287 -0.575766,2.42908 0.292396,2.92227 0.292396,2.92227 0,0 3.625245,3.32238 9.152324,4.50953 5.527079,1.18714 9.2245708,-1.0766 9.2245708,-1.0766 L 0.5470151,112.63913 Z"
       id="path3221"
       sodipodi:nodetypes="csssssssssscsccc" />
    <path
       id="path3223"
       d="m -8.5242358,156.68014 c -1.7807022,0.57591 -5.7876482,1.66632 -11.1099542,1.8464 -4.066886,0.13761 -6.929362,-1.13033 -8.705207,-2.28722 -0.05557,0.21371 -0.285052,1.04146 -0.309722,1.14568 -0.575767,2.42909 0.287971,2.92049 0.287971,2.92049 0,0 3.614551,3.30903 9.141629,4.49618 5.527079,1.18713 9.2421541,-1.05993 9.2421541,-1.05993 z"
       style="color:#000000;display:inline;overflow:visible;visibility:visible;opacity:0.14;fill:#000000;fill-opacity:1;fill-rule:evenodd;stroke:#000000;stroke-width:0.884163px;stroke-linecap:butt;stroke-linejoin:miter;stroke-miterlimit:4;stroke-dasharray:none;stroke-dashoffset:0;stroke-opacity:1;marker:none;marker-start:none;marker-mid:none;marker-end:none" />
    <path
       id="path3225"
       d="m -14.877306,112.91237 c 0,0 -0.634913,3.54394 -0.213961,8.26178 0.420859,4.71785 4.25724,8.27502 5.8771154,7.24283 1.6198754,-1.03219 1.7983904,-8.62507 1.7983904,-8.62507 z"
       style="color:#000000;display:inline;overflow:visible;visibility:visible;opacity:0.14;fill:#000000;fill-opacity:1;fill-rule:evenodd;stroke:#000000;stroke-width:0.884163px;stroke-linecap:butt;stroke-linejoin:miter;stroke-miterlimit:4;stroke-dasharray:none;stroke-dashoffset:0;stroke-opacity:1;marker:none;marker-start:none;marker-mid:none;marker-end:none" />
    <path
       style="color:#000000;display:inline;overflow:visible;visibility:visible;opacity:1;fill:#d38d5f;fill-opacity:1;fill-rule:evenodd;stroke:#000000;stroke-width:0.176833;stroke-linecap:butt;stroke-linejoin:miter;stroke-miterlimit:4;stroke-dasharray:none;stroke-dashoffset:0;stroke-opacity:1;marker:none;marker-start:none;marker-mid:none;marker-end:none"
       d="m -8.9650828,81.817121 c 0,0 -6.1789682,15.167266 -6.5464362,22.104539 -0.367456,6.93728 -0.851793,16.08185 2.815273,18.4896 3.6669725,2.40774 9.4639021,-11.51491 9.4639021,-11.51491 z"
       id="path3227" />
    <path
       id="path3229"
       d="m -13.564946,83.914153 2.944448,3.509917 -1.479562,2.604814 c 0,0 -1.844192,5.268658 2.8500185,5.293702 4.6941992,0.02499 7.4435882,-9.667648 6.1293716,-10.184443 -1.3142281,-0.516806 -9.9983031,-1.200382 -10.4442761,-1.22399 z"
       style="color:#000000;display:inline;overflow:visible;visibility:visible;opacity:0.14;fill:#000000;fill-opacity:1;fill-rule:evenodd;stroke:#000000;stroke-width:0.884163px;stroke-linecap:butt;stroke-linejoin:miter;stroke-miterlimit:4;stroke-dasharray:none;stroke-dashoffset:0;stroke-opacity:1;marker:none;marker-start:none;marker-mid:none;marker-end:none" />
    <path
       style="color:#000000;display:inline;overflow:visible;visibility:visible;opacity:1;fill:#d38d5f;fill-opacity:1;fill-rule:evenodd;stroke:#000000;stroke-width:0.176833;stroke-linecap:butt;stroke-linejoin:miter;stroke-miterlimit:4;stroke-dasharray:none;stroke-dashoffset:0;stroke-opacity:1;marker:none;marker-start:none;marker-mid:none;marker-end:none"
       d="m 25.923032,26.113866 c 0,0 -10.337015,-7.820454 -11.084665,-5.646552 -0.747569,2.173903 -10.8795424,26.30203 -11.411982,30.384634 -0.532533,4.082589 -1.0648909,8.165179 -1.0648909,8.165179 0,0 -6.2585469,4.727964 -9.0150228,9.008975 -2.7564641,4.281011 -7.2900113,12.262467 -6.6279533,17.673202 0.662071,5.410723 13.50701819,7.672143 13.50701819,7.672143 z"
       id="path3231" />
    <path
       style="color:#000000;display:inline;overflow:visible;visibility:visible;opacity:1;fill:#d38d5f;fill-opacity:1;fill-rule:evenodd;stroke:#000000;stroke-width:0.176833;stroke-linecap:butt;stroke-linejoin:miter;stroke-miterlimit:4;stroke-dasharray:none;stroke-dashoffset:0;stroke-opacity:1;marker:none;marker-start:none;marker-mid:none;marker-end:none"
       d="m -9.4658707,120.15831 c 0,0 -5.6121333,42.63353 -4.6862483,46.26013 0.925897,3.62661 2.826317,5.73969 17.108387,6.2725 14.28207,0.53288 21.947231,-4.87464 20.095356,-12.12786 -1.851793,-7.25322 -11.078127,-35.69165 -12.110385,-37.3115 -1.0321767,-1.61985 -19.7354074,-11.55442 -19.7354074,-11.55442 z"
       id="path3233" />
    <path
       style="color:#000000;display:inline;overflow:visible;visibility:visible;fill:#a05a2c;fill-opacity:1;fill-rule:evenodd;stroke:#000000;stroke-width:0.176833;stroke-linecap:butt;stroke-linejoin:miter;stroke-miterlimit:4;stroke-dasharray:none;stroke-dashoffset:0;stroke-opacity:1;marker:none;marker-start:none;marker-mid:none;marker-end:none"
       d="m 50.549986,190.19294 c 0,0 -3.218888,10.11501 -5.026291,10.46647 -1.807404,0.35145 -5.584732,-4.32055 -7.462958,-2.63127 -1.878319,1.68928 -4.672098,3.77724 -7.18233,0.51396 -2.510396,-3.26336 -7.882485,-11.5974 -7.294868,-14.24944 0.587698,-2.65205 15.870725,-12.57528 17.630914,-12.03488 1.760201,0.5405 9.35914,17.48919 9.335533,17.93516 z"
       id="path3235" />
    <path
       style="color:#000000;display:inline;overflow:visible;visibility:visible;fill:#c87137;fill-opacity:1;fill-rule:evenodd;stroke:#000000;stroke-width:0.176833;stroke-linecap:butt;stroke-linejoin:miter;stroke-miterlimit:4;stroke-dasharray:none;stroke-dashoffset:0;stroke-opacity:1;marker:none;marker-start:none;marker-mid:none;marker-end:none"
       d="m -53.214976,290.3889 c 0,0 -12.103497,13.58862 -12.984654,18.28511 -0.881239,4.6966 -4.236995,14.3215 -4.236995,14.3215 l 0.41759,-7.88328 c 0,0 -2.482901,5.08606 -3.720201,7.55022 -1.237218,2.46426 -0.790264,5.96625 -0.790264,5.96625 l -1.326161,-4.81348 c 0,0 -1.626772,0.8625 -1.834551,1.80016 -0.207778,0.93766 0.752954,6.68038 -0.932261,8.6465 -1.685216,1.9662 -1.00547,4.0576 -1.00547,4.0576 l -1.933754,0.68805 c 0,0 0.914578,-5.32716 1.031553,-7.53448 0.116886,-2.20732 1.528541,-4.97846 0.08453,-4.58067 -1.444104,0.39787 -3.45195,-0.49902 -3.759992,2.33056 -0.307954,2.82968 -0.41653,4.87926 -0.558438,7.5596 -0.141997,2.68034 0.32997,5.7094 -0.698489,4.23196 -1.028547,-1.47753 -1.002464,-4.9545 -1.002464,-4.9545 0,0 0.08152,4.43134 -0.731911,4.86255 -0.813342,0.43129 -1.6174,-2.29909 -1.6174,-2.29909 0,0 0.163041,8.86258 -0.509366,9.61757 -0.672406,0.7549 -2.066378,0.20671 -2.066378,0.20671 0,0 0.166046,-0.14924 -0.524132,3.92499 -0.69009,4.07422 -0.002,6.00797 -1.072226,5.31886 -1.070279,-0.68912 -1.477437,1.02845 -1.193531,-4.33214 0.283993,-5.3606 1.064975,-8.16515 0.509454,-9.61757 -0.555519,-1.45241 -2.787855,-1.09637 -3.005005,3.00297 -0.217151,4.09934 -0.905207,2.16559 -1.097335,5.79189 -0.192041,3.62631 0.404239,7.29435 -1.023154,7.37684 -1.427309,0.0825 -2.389009,-2.6563 -2.696969,0.17338 -0.30804,2.82959 -1.66956,4.65477 -2.0433,5.74175 -0.37382,1.08692 -1.71863,2.5968 -1.71863,2.5968 0,0 0.10017,-1.89203 1.50449,-7.50946 1.40432,-5.61754 1.13076,-6.42256 0.50008,-6.45599 -0.63067,-0.0333 -1.78645,6.86217 -2.19361,8.57974 -0.40724,1.71767 -0.84782,4.06592 -0.84782,4.06592 0,0 -1.28637,0.40619 -1.6602,1.49318 -0.37373,1.0869 0.41353,4.13266 -0.88955,4.85414 -1.30299,0.72156 -1.42633,-2.92145 -1.34278,-4.49809 0.0835,-1.57665 -0.79566,-2.88813 -0.9961,0.89583 -0.20044,3.78404 1.36683,7.02919 0.35411,8.2404 -1.01281,1.21122 -2.16656,2.09874 -1.70096,-0.72253 0.46569,-2.82129 0.48338,-6.14061 0.48338,-6.14061 0,0 -1.3365,1.35215 -1.42837,3.08653 -0.0919,1.73428 0.31432,3.02065 -0.24217,4.57227 -0.55649,1.55162 -2.30749,1.77504 -2.23234,0.35605 0.0752,-1.41891 -0.19009,-2.38166 -0.47302,-0.025 -0.28294,2.35664 -0.71618,7.55119 -1.40529,8.62147 -0.68912,1.07028 -1.19548,1.67584 -1.70096,-0.72254 -0.50538,-2.39838 -1.01077,-4.79677 -1.55895,-3.40278 -0.5481,1.39387 1.01917,4.63911 1.68221,7.0458 0.66312,2.40679 2.76283,1.56931 1.85762,3.73488 -0.90529,2.16558 -0.77267,2.64692 -1.92544,0.53041 -1.15268,-2.11642 -2.96858,-6.63963 -3.90614,-6.8474 -0.93766,-0.20777 -3.5104,0.60459 -4.00747,-1.95144 -0.49708,-2.55602 1.42102,-5.93282 1.81147,-7.3351 0.39053,-1.40229 0.26622,-2.04127 -2.17389,-0.74756 -2.44012,1.2937 -4.34151,4.35511 -4.76441,3.38413 -0.42289,-0.97107 4.81454,-4.3301 7.13874,-6.42053 2.3242,-2.09043 3.19607,-3.62533 3.19607,-3.62533 0,0 -3.06247,1.10273 -2.52269,-0.1336 0.53987,-1.23624 3.56052,-1.55056 5.22072,-3.04373 1.6601,-1.49309 7.23891,-8.31247 7.23891,-8.31247 0,0 2.39104,-3.35177 -2.73879,0.96171 -5.12982,4.3134 -6.981,6.42884 -6.93095,5.48287 0.0501,-0.94605 -0.14828,-3.17008 2.49961,-5.40144 2.6479,-2.23136 8.14315,-7.47401 8.874,-9.33261 0.73094,-1.8586 2.63224,-4.92001 4.01047,-7.06057 1.37824,-2.14047 3.51977,-3.76619 3.55319,-4.39685 0.0333,-0.63068 -1.18619,-1.48584 -1.71766,-0.40725 -0.53147,1.07868 -5.40339,3.50845 -6.04238,3.63267 -0.63898,0.12423 -1.2029,-1.17046 -1.2029,-1.17046 0,0 1.1037,0.0585 2.91314,-1.26868 1.80953,-1.32713 8.15049,-4.62771 8.98894,-5.53195 0.83845,-0.90422 4.840527,-7.80715 7.795401,-9.86416 2.954874,-2.05692 6.582243,-4.86883 6.823442,-6.43716 0.241111,-1.56833 0.955338,-3.11154 -0.347741,-2.39007 -1.303081,0.72157 -2.805628,2.22306 -5.569433,3.65771 -2.763807,1.43472 -7.427945,2.92684 -9.577789,4.71028 -2.14993,1.78336 -3.75159,2.17292 -4.10871,2.94453 -0.35711,0.77161 -1.15374,0.88752 -1.11201,0.0992 0.0417,-0.78832 7.968788,-7.16712 9.263557,-7.73095 1.294681,-0.56382 7.635724,-3.86449 9.61121,-5.34087 1.975486,-1.47647 1.776107,-0.69655 2.050639,-2.89546 0.274622,-2.199 1.362584,-4.82921 3.428874,-5.03593 2.066378,-0.20681 0.847824,-4.06592 2.474596,-4.92842 1.626772,-0.86241 9.845066,-9.7555 11.986511,-11.3813 2.141527,-1.62571 5.470232,-4.7697 6.035035,-6.47888 0.564886,-1.70936 12.058746,-3.78837 12.647694,-2.96663 0.588936,0.82174 -4.451062,9.40882 -4.583681,8.92748 z"
       id="path3237" />
    <path
       id="path3239"
       d="m -49.322005,281.27017 c -2.602269,-0.12918 -11.459909,1.66178 -11.954158,3.15744 -0.564885,1.70926 -3.90181,4.86068 -6.043348,6.4864 -0.423159,0.3213 -1.117582,0.95391 -1.917479,1.72465 0.2442,0.82943 0.336424,2.00864 0.138189,3.65954 -0.800247,6.66554 1.755157,13.73663 -0.381513,16.08302 -0.828724,0.91016 -1.402459,3.01403 -1.771946,5.24628 0.411577,-0.84049 1.239506,-2.50759 1.239506,-2.50759 l -0.416446,7.86358 c 0,0 3.334975,-9.60625 4.216132,-14.30284 0.88125,-4.6965 13.004805,-18.29193 13.004805,-18.29193 0.132631,0.48134 5.156179,-8.09477 4.567242,-8.91651 -0.07355,-0.10275 -0.309196,-0.18364 -0.680984,-0.20204 z"
       style="color:#000000;display:inline;overflow:visible;visibility:visible;opacity:0.14;fill:#000000;fill-opacity:1;fill-rule:evenodd;stroke:#000000;stroke-width:0.884163px;stroke-linecap:butt;stroke-linejoin:miter;stroke-miterlimit:4;stroke-dasharray:none;stroke-dashoffset:0;stroke-opacity:1;marker:none;marker-start:none;marker-mid:none;marker-end:none" />
    <path
       style="color:#000000;display:inline;overflow:visible;visibility:visible;fill:#c87137;fill-opacity:1;fill-rule:evenodd;stroke:#000000;stroke-width:0.176833;stroke-linecap:butt;stroke-linejoin:miter;stroke-miterlimit:4;stroke-dasharray:none;stroke-dashoffset:0;stroke-opacity:1;marker:none;marker-start:none;marker-mid:none;marker-end:none"
       d="m -26.521474,222.23538 c 0,0 -1.630045,60.62699 -2.095725,63.44826 -0.465598,2.82129 0.04822,5.06202 -1.678941,7.81645 -1.726949,2.75453 -4.614982,3.55019 -3.205273,6.78693 1.409627,3.23683 2.934103,10.27433 2.934103,10.27433 0,0 -0.764275,2.48927 -1.01485,7.2192 -0.250482,4.73001 0.24253,19.30198 0.24253,19.30198 0,0 -2.322167,-3.91754 -2.171859,-6.75554 0.150308,-2.83798 -0.808303,-14.58878 -0.657996,-17.42667 0.150308,-2.83799 1.098224,-8.79593 0.0035,-12.01596 -1.094324,-3.22013 -5.210375,-3.12198 -5.210375,-3.12198 l -4.216131,1.99025 c 0,0 -2.787941,-1.09636 -4.214275,-4.01782 -1.426241,-2.92144 -4.744602,-5.94316 -8.179925,-6.75757 -3.43516,-0.8144 -9.046324,3.63162 -9.046324,3.63162 l 5.728057,-6.65333 c 0,0 -1.11095,-2.90474 -4.230901,-3.70243 -3.119857,-0.79769 -14.757745,9.96965 -14.757745,9.96965 l -2.157181,-1.06294 9.977695,-9.27417 c 0,0 -21.67836,9.28689 -22.97304,9.85073 -1.294768,0.56382 -1.509885,-1.34482 -1.509885,-1.34482 0,0 19.571215,-11.2958 23.073298,-11.74274 3.502001,-0.44696 4.249558,-2.62085 5.312499,-4.77803 1.062848,-2.15727 1.031464,-7.53457 5.746796,-12.97668 4.71525,-5.44212 3.902872,-8.01486 3.902872,-8.01486 0,0 -23.104688,6.36536 -27.686334,9.28486 -4.581645,2.91951 -0.56383,-1.29467 -0.56383,-1.29467 0,0 25.877781,-10.96177 27.437798,-10.56292 1.559934,0.39884 5.362632,-5.72408 5.362632,-5.72408 0,0 -0.762326,-3.5187 -4.364594,-1.17983 -3.602257,2.33897 -4.464663,0.71219 -4.464663,0.71219 l 11.487485,-7.92935 c 0,0 5.114089,-7.00213 6.525748,-9.77327 1.411658,-2.77114 4.45008,-6.40479 4.45008,-6.40479 0,0 -5.659266,-0.616 -7.534667,-1.03147 -1.875213,-0.41556 -2.720912,-2.35762 -2.720912,-2.35762 0,0 10.936295,2.47655 11.949102,1.26533 1.01282,-1.21122 8.169149,-10.95108 9.380448,-9.93826 1.211217,1.01281 1.15702,13.97473 1.140301,14.29002 z"
       id="path3245" />
    <path
       id="path3247"
       d="m -26.667088,214.51549 -7.695587,1.11413 c 0,0 -1.921904,0.53854 -2.107576,10.01518 -0.185765,9.47664 6.245459,31.63607 0.433947,39.86605 -5.811605,8.23005 -16.734206,17.43437 -20.86687,17.84789 -0.987531,0.0989 -2.015983,0.69663 -2.986269,1.52969 0.408845,0.6045 0.580542,1.05445 0.580542,1.05445 l -5.721064,6.66952 c 0,0 5.611783,-4.45778 9.047025,-3.64347 3.435241,0.81441 6.737151,3.84709 8.163474,6.76853 1.426334,2.92154 4.214462,4.01385 4.214462,4.01393 l 4.227981,-1.98963 c 0,0 4.107902,-0.0946 5.202238,3.12543 1.094242,3.22012 0.150658,9.17037 3.5e-4,12.00835 -0.150307,2.83799 0.803797,14.60028 0.653489,17.43827 -0.150308,2.83798 2.187679,6.75642 2.187679,6.75642 0,0 -0.501138,-14.56854 -0.250656,-19.29846 0.250575,-4.73001 1.018995,-7.2229 1.018995,-7.2229 0,0 -1.531984,-7.04581 -2.941611,-10.28265 -1.409708,-3.23683 1.481769,-4.02046 3.208718,-6.77489 1.727031,-2.75444 1.221562,-5.00269 1.68716,-7.82397 0.465692,-2.82118 2.087693,-63.44465 2.087693,-63.44465 0.0093,-0.17063 0.03141,-4.04734 -0.14412,-7.72722 z"
       style="color:#000000;display:inline;overflow:visible;visibility:visible;opacity:0.14;fill:#000000;fill-opacity:1;fill-rule:evenodd;stroke:#000000;stroke-width:0.884163px;stroke-linecap:butt;stroke-linejoin:miter;stroke-miterlimit:4;stroke-dasharray:none;stroke-dashoffset:0;stroke-opacity:1;marker:none;marker-start:none;marker-mid:none;marker-end:none" />
    <path
       style="color:#000000;display:inline;overflow:visible;visibility:visible;fill:#c87137;fill-opacity:1;fill-rule:evenodd;stroke:#000000;stroke-width:0.176833;stroke-linecap:butt;stroke-linejoin:miter;stroke-miterlimit:4;stroke-dasharray:none;stroke-dashoffset:0;stroke-opacity:1;marker:none;marker-start:none;marker-mid:none;marker-end:none"
       d="m 19.005952,186.28618 c 0,0 -11.9252386,5.62912 -15.9622361,5.86245 -4.03718429,0.23334 -8.9898158,0.86542 -14.8816189,2.34215 -5.891803,1.47672 -18.451873,10.64975 -18.451873,10.64975 0,0 -3.68563,2.04073 -3.850976,5.16236 -0.165333,3.12162 0.324935,10.74993 3.727194,14.0605 3.402259,3.31057 5.419304,7.44218 9.104934,5.40144 3.685817,-2.04083 5.246545,-1.95815 5.246545,-1.95815 0,0 -5.295079,7.09832 -5.131251,8.22501 0.164014,1.1266 9.168331,-8.45834 9.227396,-9.57319 0.05908,-1.11484 -0.05908,1.11485 0.83288,1.16205 0.891863,0.0473 3.6384263,-1.14879 3.6384263,-1.14879 0,0 -6.2801233,4.58651 -5.4117853,5.07961 0.868162,0.49327 7.6415541,-4.96157 7.6415541,-4.96157 0,0 4.2600772,-0.22158 7.3934662,-0.27922 3.133389,-0.0576 21.6651797,-3.77158 24.8576337,-4.94407 3.192443,-1.17248 8.675144,-7.59001 10.342234,-9.51412 1.667172,-1.92403 0.961343,2.9577 0.878682,4.51851 -0.08266,1.56081 1.067623,0.95092 1.150296,-0.60989 0.08266,-1.56081 -0.186116,-4.92904 1.269745,-7.08781 1.455954,-2.15887 4.403309,-7.14554 4.533197,-9.59822 0.129876,-2.45275 -2.941611,-12.00648 -2.941611,-12.00648 L 19.88614,186.55638 Z"
       id="path3249" />
    <path
       style="color:#000000;display:inline;overflow:visible;visibility:visible;fill:#d38d5f;fill-opacity:1;fill-rule:evenodd;stroke:#000000;stroke-width:0.176833;stroke-linecap:butt;stroke-linejoin:miter;stroke-miterlimit:4;stroke-dasharray:none;stroke-dashoffset:0;stroke-opacity:1;marker:none;marker-start:none;marker-mid:none;marker-end:none"
       d="m 10.27228,228.75431 c 0,0 -2.3256109,5.914 -4.6616598,7.80266 -2.3359672,1.88866 -6.6211462,6.80443 -7.759603,7.19135 -1.1385268,0.3869 0.1284748,1.79555 2.47637416,-0.3161 2.34771254,-2.11156 -6.04821666,12.87201 -7.89107836,13.89233 -1.8427682,1.02042 -0.6584275,3.98987 -0.6584275,3.98987 0,0 -7.1616415,8.56463 -7.7020435,10.32473 -0.540391,1.76019 -2.994477,5.87863 -3.487758,6.74688 -0.493187,0.86825 -5.941749,10.86512 -7.127503,12.1439 -1.185753,1.27885 -3.098024,-0.61123 -4.226125,3.80092 -1.128019,4.41224 -1.153121,9.10644 0.443147,8.52025 1.596174,-0.58629 1.503169,-3.05081 1.503169,-3.05081 0,0 -0.295233,5.57438 4.10517,6.92539 4.400297,1.35109 8.214577,1.1059 8.214577,1.1059 0,0 -0.609894,-1.15029 -2.522247,-3.04037 -1.912189,-1.89007 -4.740001,-3.38139 -4.633721,-5.38818 0.106362,-2.0067 1.138527,-0.3869 2.101212,-1.67743 0.962768,-1.29062 1.478138,1.64339 1.478138,1.64339 0,0 0.784252,6.30232 1.150296,-0.6098 0.366136,-6.91213 -0.40769,-9.18911 0.941903,-9.34128 1.349768,-0.15208 1.337917,0.0709 1.172572,3.19254 -0.165334,3.12163 0.239343,3.92559 0.609193,3.27441 0.369849,-0.65119 1.878938,-3.81348 1.515638,-5.39791 -0.363311,-1.58442 -0.450397,-4.16043 -0.450397,-4.16043 0,0 0.274708,3.25673 1.236763,4.09032 0.961973,0.8335 -0.07531,-2.799 0.01331,-4.47131 0.0885,-1.67221 0.593455,-2.76354 0.593455,-2.76354 0,0 -0.581686,2.54065 0.08138,2.68751 0.662946,0.14695 0.881425,-3.97802 0.881425,-3.97802 0,0 0.07017,0.78628 0.827661,-0.85057 0.757551,-1.63685 0.682222,-4.43585 1.351087,-4.40039 0.6689587,0.0355 -0.06643,5.47464 0.5729412,6.06748 0.6394319,0.59282 1.6804468,-6.39534 1.7158929,-7.06429 0.035376,-0.66887 0.6636581,-1.97717 1.0217391,-2.40546 0.3580925,-0.42819 0.00701,-2.23561 0.6813461,-2.31164 0.6749598,-0.076 0.3005218,-3.56167 0.9457796,-3.08033 0.6452695,0.48141 -0.5706294,4.44176 0.3153844,4.60047 0.8859321,0.15871 0.5057382,-3.21534 0.9457913,-3.08025 0.4399597,0.1351 1.0440155,1.39689 1.1798224,-1.16727 0.1358068,-2.56425 1.655952,-3.82524 1.6094493,-5.0575 -0.046584,-1.23227 1.02624571,1.73128 1.10891838,0.17046 0.082661,-1.56081 0.4532228,-4.33611 0.4532228,-4.33611 0,0 0.58628599,1.59627 0.97381202,0.6106 0.3876193,-0.98566 0.177184,-3.34461 0.177184,-3.34461 0,0 0.9377471,3.40367 1.2080415,2.52358 0.2701077,-0.8801 0.5942369,-4.88766 0.5942369,-4.88766 0,0 0.3469544,-2.32942 1.6205876,-3.15637 1.2735515,-0.82696 1.1450767,-2.62252 1.9549677,-3.1386 0.8099844,-0.51609 0.8801062,0.2702 0.3691491,1.47293 -0.5108754,1.20273 -2.1845972,5.36244 -2.3492303,6.35987 -0.1646332,0.99752 0.4747053,1.59034 0.4747053,1.59034 0,0 -0.7035292,-1.49061 0.4526974,-2.212 1.1561332,-0.72138 3.2987227,-3.17927 3.3577879,-4.29411 0.059077,-1.11485 -0.039929,-3.46786 -0.039929,-3.46786 0,0 2.1188994,-2.01192 2.6356944,-3.32614 0.516702,-1.31423 1.914396,-4.48236 2.519071,-5.34477 0.604674,-0.86232 2.2311,-4.13019 2.2311,-4.13019 l -5.865989,-5.34167 z"
       id="path3251" />
    <path
       style="color:#000000;display:inline;overflow:visible;visibility:visible;opacity:1;fill:#d38d5f;fill-opacity:1;fill-rule:evenodd;stroke:#000000;stroke-width:0.176833;stroke-linecap:butt;stroke-linejoin:miter;stroke-miterlimit:4;stroke-dasharray:none;stroke-dashoffset:0;stroke-opacity:1;marker:none;marker-start:none;marker-mid:none;marker-end:none"
       d="m 10.2782,58.804018 c -5.8263633,2.537342 -12.1516695,8.52661 -13.2146105,10.683817 -1.0628594,2.157207 -3.0383406,3.633652 -4.4186042,11.782147 -1.3802752,8.148483 -2.6623143,20.412968 -0.8037147,21.143848 1.8585999,0.73086 8.64756657,-2.0717 10.6397667,-3.863472 C 4.4731441,96.758587 17.065041,62.009443 17.065041,62.009443 l -5.193574,-3.437238 z"
       id="path3253" />
    <path
       id="path3255"
       d="m 16.81721,150.9945 c 0,0 -9.8639089,7.05091 -18.8601812,9.73656 -4.4151482,1.31807 -8.7006888,0.3561 -11.9294768,-0.96389 -0.264807,3.40334 -0.379575,5.90275 -0.186735,6.6583 0.925979,3.62661 2.844613,5.74204 17.1266827,6.27492 9.4918413,0.35411 16.0678973,-1.92225 18.8631823,-5.61377 z"
       style="color:#000000;display:inline;overflow:visible;visibility:visible;opacity:0.14;fill:#000000;fill-opacity:1;fill-rule:evenodd;stroke:#000000;stroke-width:0.884163px;stroke-linecap:butt;stroke-linejoin:miter;stroke-miterlimit:4;stroke-dasharray:none;stroke-dashoffset:0;stroke-opacity:1;marker:none;marker-start:none;marker-mid:none;marker-end:none" />
    <path
       id="path3257"
       d="m -5.2752032,117.02629 c 0,0 2.6358702,13.5555 6.16659244,18.66167 3.53073386,5.10616 7.84846356,8.01802 9.25577876,10.99933 1.407234,2.98132 3.213225,6.87813 3.306242,9.34264 0.09305,2.4645 -1.306616,12.00508 1.203698,15.26845 2.510314,3.26326 10.150467,2.55001 12.486504,0.66136 2.335968,-1.88869 14.367568,-9.52454 14.779414,-13.08028 0.411927,-3.55575 -3.436655,-40.65325 -3.845757,-45.59408 C 37.668168,108.34457 21.17383,90.477483 16.878389,91.367945 12.582865,92.258408 -5.2752032,117.02629 -5.2752032,117.02629 Z"
       style="color:#000000;display:inline;overflow:visible;visibility:visible;opacity:1;fill:#d38d5f;fill-opacity:1;fill-rule:evenodd;stroke:#000000;stroke-width:0.176833;stroke-linecap:butt;stroke-linejoin:miter;stroke-miterlimit:4;stroke-dasharray:none;stroke-dashoffset:0;stroke-opacity:1;marker:none;marker-start:none;marker-mid:none;marker-end:none" />
    <path
       id="path3259"
       d="m 19.686236,106.24635 c 0,0 0.09165,6.71279 -5.989058,11.75708 -6.0807442,5.04426 -15.6344879,8.11581 -17.2529506,4.89971 -1.6184627,-3.2161 -5.1387589,-4.29695 -4.7844725,-10.98611 0.3542865,-6.68918 20.3566261,-21.28158 20.3566261,-21.28158 z"
       style="color:#000000;display:inline;overflow:visible;visibility:visible;opacity:0.14;fill:#000000;fill-opacity:1;fill-rule:evenodd;stroke:#000000;stroke-width:0.884163px;stroke-linecap:butt;stroke-linejoin:miter;stroke-miterlimit:4;stroke-dasharray:none;stroke-dashoffset:0;stroke-opacity:1;marker:none;marker-start:none;marker-mid:none;marker-end:none" />
    <path
       sodipodi:nodetypes="cssscsczscsc"
       style="color:#000000;display:inline;overflow:visible;visibility:visible;opacity:1;fill:#d38d5f;fill-opacity:1;fill-rule:evenodd;stroke:#000000;stroke-width:0.176833;stroke-linecap:butt;stroke-linejoin:miter;stroke-miterlimit:4;stroke-dasharray:none;stroke-dashoffset:0;stroke-opacity:1;marker:none;marker-start:none;marker-mid:none;marker-end:none"
       d="m -6.2961482,91.128731 c 0,0 12.704809,-24.940506 13.485792,-27.745072 0.780983,-2.804566 3.3409872,-15.317588 5.1013512,-18.702719 1.760376,-3.38512 9.133947,-17.224253 9.599628,-20.045515 0.46561,-2.821285 2.739675,-3.965685 2.739675,-3.965685 0,0 4.928417,2.474541 9.027749,2.691667 4.09925,0.217125 2.654258,3.618952 2.654258,3.618952 0,0 -16.077891,34.624944 -19.778909,54.532831 -3.620038,19.4725 -3.635777,35.29695 -9.7272969,36.87158 -6.09145029,1.57466 -11.3351583,-0.91659 -11.3351583,-0.91659 0,0 -6.8851598,-7.32142 -5.356608,-12.2999 1.5285397,-4.97848 3.9383297,-14.653517 3.589519,-14.039549 z"
       id="path3261" />
    <path
       id="path3263"
       d="m 5.213357,79.766019 c 0,0 -3.1702478,4.974826 -3.2529205,6.535648 -0.082661,1.560798 4.1523843,6.033471 11.0423185,2.597248 6.889923,-3.436222 -6.8856844,-9.308621 -6.8856844,-9.308621 z"
       style="color:#000000;display:inline;overflow:visible;visibility:visible;opacity:0.14;fill:#000000;fill-opacity:1;fill-rule:evenodd;stroke:#000000;stroke-width:0.884163px;stroke-linecap:butt;stroke-linejoin:miter;stroke-miterlimit:4;stroke-dasharray:none;stroke-dashoffset:0;stroke-opacity:1;marker:none;marker-start:none;marker-mid:none;marker-end:none" />
    <path
       style="color:#000000;display:inline;overflow:visible;visibility:visible;fill:#d38d5f;fill-opacity:1;fill-rule:evenodd;stroke:#000000;stroke-width:0.176833;stroke-linecap:butt;stroke-linejoin:miter;stroke-miterlimit:4;stroke-dasharray:none;stroke-dashoffset:0;stroke-opacity:1;marker:none;marker-start:none;marker-mid:none;marker-end:none"
       d="M 14.79964,86.870451 C 13.554996,86.488296 3.9781822,88.194545 3.2159497,84.675814 2.4537055,81.15707 14.208392,68.182434 15.006,65.062518 15.803691,61.942637 21.335463,47.057292 22.730321,44.601454 24.12526,42.145617 29.141207,31.027537 29.141207,31.027537 l 6.790998,-8.81053 0.133588,-2.522643 c 0,0 0.181703,2.539339 5.723995,5.362621 5.542373,2.823281 2.243382,41.226791 -4.165391,48.792724 C 31.215542,81.415631 16.04419,87.252583 14.79964,86.870451 Z"
       id="path3265" />
    <path
       id="path3267"
       d="m 42.215865,187.06415 -20.063529,-0.45392 c -1.796616,1.66753 -3.176705,3.36477 -3.691736,4.92311 -2.259389,6.83705 -28.4476904,11.79403 -44.61505,18.52693 -3.108987,1.29468 -5.758996,1.77001 -8.005134,1.73412 0.04623,3.61419 0.79204,9.70324 3.733825,12.56572 3.40226,3.31057 5.435312,7.44899 9.120941,5.40817 3.685724,-2.04074 5.25034,-1.96303 5.25034,-1.96303 0,0 -5.303042,7.09542 -5.139203,8.22211 0.164015,1.12669 9.162762,-8.44049 9.221828,-9.55533 0.05908,-1.11493 -0.03993,1.10458 0.852062,1.15188 0.891863,0.0472 3.6309076,-1.16346 3.6309076,-1.16346 0,0 -6.2838356,4.58774 -5.4154986,5.08093 0.868163,0.49318 7.6504045,-4.96255 7.6504045,-4.96255 0,0 4.2409764,-0.21583 7.3743537,-0.27347 3.133389,-0.0577 21.6666038,-3.76397 24.8590588,-4.93646 3.192442,-1.17249 8.687426,-7.59894 10.354516,-9.52306 1.667184,-1.92403 0.949597,2.96752 0.866925,4.52833 -0.08266,1.56073 1.083629,0.95853 1.166302,-0.60229 0.08266,-1.56081 -0.194428,-4.94053 1.261433,-7.09939 1.455954,-2.15886 4.391108,-7.158 4.521078,-9.61068 0.129887,-2.45267 -2.933824,-11.99766 -2.933824,-11.99766 z"
       style="color:#000000;display:inline;overflow:visible;visibility:visible;opacity:0.14;fill:#000000;fill-opacity:1;fill-rule:evenodd;stroke:#000000;stroke-width:0.884163px;stroke-linecap:butt;stroke-linejoin:miter;stroke-miterlimit:4;stroke-dasharray:none;stroke-dashoffset:0;stroke-opacity:1;marker:none;marker-start:none;marker-mid:none;marker-end:none" />
    <path
       id="path3269"
       d="m 10.263524,228.75644 c 0,0 -2.310667,5.91691 -4.6467159,7.80557 -2.3360489,1.88866 -6.6303463,6.81054 -7.7687914,7.19745 -1.1385386,0.3869 0.1326195,1.77265 2.48042543,-0.339 0.25898112,-0.23288 0.39902614,-0.22979 0.41971474,-0.0884 1.35931813,-1.06364 4.88421433,-3.71154 6.51010253,-3.80552 1.3831824,-0.08 3.3722766,2.59219 4.0760746,5.05794 0.208486,-0.30468 0.383813,-0.61776 0.489743,-0.88717 0.516701,-1.31422 1.91951,-4.48235 2.524278,-5.34467 0.604593,-0.86242 2.237731,-4.11482 2.237731,-4.11482 l -5.886934,-5.34759 z"
       style="color:#000000;display:inline;overflow:visible;visibility:visible;opacity:0.06;fill:#000000;fill-opacity:1;fill-rule:evenodd;stroke:#000000;stroke-width:0.884163px;stroke-linecap:butt;stroke-linejoin:miter;stroke-miterlimit:4;stroke-dasharray:none;stroke-dashoffset:0;stroke-opacity:1;marker:none;marker-start:none;marker-mid:none;marker-end:none" />
    <path
       style="color:#000000;display:inline;overflow:visible;visibility:visible;fill:#d38d5f;fill-opacity:1;fill-rule:evenodd;stroke:#000000;stroke-width:0.176833;stroke-linecap:butt;stroke-linejoin:miter;stroke-miterlimit:4;stroke-dasharray:none;stroke-dashoffset:0;stroke-opacity:1;marker:none;marker-start:none;marker-mid:none;marker-end:none"
       d="m 27.164394,180.01031 c 0,0 -2.312441,1.44277 -0.507863,9.58786 1.804485,8.1451 -0.08978,22.80222 -1.006713,27.44921 -0.916965,4.64698 -2.843818,11.47644 -2.843818,11.47644 l -0.776652,6.21964 c 0,0 -1.196097,-2.74656 -0.902289,-4.07255 0.293809,-1.32606 -1.608025,0.8092 -1.678929,2.14702 -0.07087,1.33783 1.289197,5.21099 1.147459,7.88673 -0.141727,2.67566 -0.202205,8.03882 -0.202205,8.03882 0,0 -0.856405,-0.71617 -0.773732,-2.27698 0.08266,-1.56082 0.753044,-5.77367 -0.478593,-7.85129 -1.231463,-2.07761 -2.158865,-1.45594 -2.158865,-1.45594 l -0.65844,3.98987 c 0,0 -1.114931,-0.059 -0.9968,-2.28875 0.118119,-2.22977 2.488119,-0.53899 -2.192817,-5.0353 -4.6811109,-4.49633 -8.6945943,-4.70888 -7.8721407,-7.57207 0.8225353,-2.86328 0.5182891,-5.56253 2.5146457,-9.48151 1.9963449,-3.91905 4.602513,-6.68781 4.602513,-6.68781 0,0 -0.386919,-1.13844 -0.714667,-3.39182 -0.327854,-2.25329 -0.16252,-5.37491 0.648083,-8.01521 0.810603,-2.6402 3.91004,-6.2772 4.04001,-8.72988 0.129887,-2.45275 -1.196098,-2.74656 1.198923,-5.75006 2.395021,-3.0035 1.293446,-7.53386 4.274753,-8.9411 2.981318,-1.40724 6.21815,5.02496 5.338137,4.75468 z"
       id="path3271" />
    <path
       id="path3273"
       d="m 22.890611,124.09007 c -3.982439,-0.14573 -4.012772,10.23839 -6.974359,19.88418 -1.259938,4.1036 -2.611387,6.15927 -3.782453,7.15956 0.721124,1.80432 1.267971,3.54784 1.318373,4.88421 0.09305,2.46451 -1.299809,12.01862 1.210423,15.28195 2.510396,3.26335 10.135336,2.54922 12.471292,0.66056 1.514576,-1.22448 7.094439,-4.86846 10.950983,-8.24631 l -8.858609,-8.27182 c 0,0 -1.54206,-30.43834 -5.923268,-31.30281 -0.136869,-0.027 -0.283908,-0.0448 -0.412382,-0.0495 z"
       style="color:#000000;display:inline;overflow:visible;visibility:visible;opacity:0.14;fill:#000000;fill-opacity:1;fill-rule:evenodd;stroke:#000000;stroke-width:0.884163px;stroke-linecap:butt;stroke-linejoin:miter;stroke-miterlimit:4;stroke-dasharray:none;stroke-dashoffset:0;stroke-opacity:1;marker:none;marker-start:none;marker-mid:none;marker-end:none" />
    <path
       id="path3275"
       d="m 22.957813,175.05961 c -0.372149,-0.0406 -0.771782,0.0125 -1.144376,0.18841 -2.981306,1.40723 -1.870263,5.95661 -4.265284,8.96011 -0.435453,0.54607 -0.709285,0.96569 -0.929796,1.36188 0.878682,0.13387 1.954536,0.4641 3.285903,1.17011 2.610056,1.38415 5.065286,3.21729 7.074988,4.85715 -0.0969,-0.69222 -0.170553,-1.38523 -0.30866,-2.00856 -1.804578,-8.14508 0.507163,-9.57425 0.507163,-9.57425 0.770008,0.23651 -1.615194,-4.67015 -4.219938,-4.95485 z"
       style="color:#000000;display:inline;overflow:visible;visibility:visible;opacity:0.14;fill:#000000;fill-opacity:1;fill-rule:evenodd;stroke:#000000;stroke-width:0.884163px;stroke-linecap:butt;stroke-linejoin:miter;stroke-miterlimit:4;stroke-dasharray:none;stroke-dashoffset:0;stroke-opacity:1;marker:none;marker-start:none;marker-mid:none;marker-end:none" />
    <path
       sodipodi:nodetypes="csssscssssccsccsscsccscscscccccsssccsscc"
       style="color:#000000;display:inline;overflow:visible;visibility:visible;fill:#d38d5f;fill-opacity:1;fill-rule:evenodd;stroke:#000000;stroke-width:0.176833;stroke-linecap:butt;stroke-linejoin:miter;stroke-miterlimit:4;stroke-dasharray:none;stroke-dashoffset:0;stroke-opacity:1;marker:none;marker-start:none;marker-mid:none;marker-end:none"
       d="m 76.694609,118.29195 c 0,0 2.012971,-14.12307 8.998206,-8.69363 6.985427,5.42943 14.018944,15.92085 17.055335,18.29519 3.03631,2.37433 5.84088,3.15531 5.70727,5.67796 -0.13358,2.52265 -6.11415,19.91392 -6.87852,22.40316 -0.76427,2.48924 -15.425725,22.5829 -15.425725,22.5829 0,0 3.43523,0.81432 1.376201,3.86743 -2.05896,3.0531 -10.658501,10.1868 -11.969799,11.06601 -1.311485,0.87912 -15.004256,2.68361 -16.829523,1.32208 -1.825174,-1.36151 -6.072793,-4.74866 -9.507942,-5.56306 -3.435323,-0.8144 -7.50124,-1.66214 -7.50124,-1.66214 l -4.381208,-0.86453 c 0,0 -5.412673,6.67004 -6.110096,7.89796 -0.697516,1.22793 -2.224025,0.1984 -2.224025,0.1984 l 5.811512,-8.22996 c 0,0 -0.730849,1.8586 -3.850788,1.06091 -3.119857,-0.79769 -0.879125,-1.31139 -4.395977,-6.55713 -3.516666,-5.24574 -3.499958,-5.56105 -3.499958,-5.56105 0,0 -10.159388,6.73486 -11.289088,10.15339 -1.129782,3.41852 -3.0884624,4.57961 -3.0884624,4.57961 l 0.2170552,-4.09924 c 0,0 8.5013222,-11.24974 11.3725542,-11.73011 2.871407,-0.48028 3.635683,-2.96955 3.635683,-2.96955 0,0 -2.954874,2.057 0.0669,-1.26135 3.021715,-3.3183 -0.745525,-3.83405 -0.745525,-3.83405 0,0 3.220113,-1.0943 5.112139,-0.99408 1.891933,0.10018 6.024598,-0.31333 6.024598,-0.31333 l -4.978457,-1.52856 6.306649,0.33404 4.132665,-0.41353 -4.015784,-1.79379 c 0,0 -1.560016,-0.39884 6.306567,0.33404 7.866572,0.73289 13.92469,-0.21111 20.064312,3.27624 6.139541,3.48735 7.749609,2.9402 10.040381,1.48046 2.290878,-1.45974 2.773277,-4.59635 2.773277,-4.59635 l -4.928417,-2.47454 c 0,0 -4.314449,-2.12581 -2.18866,-6.44022 2.125882,-4.31442 5.132828,-13.32539 5.830262,-14.5533 0.697517,-1.22793 -4.327011,-13.82646 -4.327011,-13.82646 z"
       id="path3277" />
    <path
       id="path3279"
       d="m 83.61929,166.48572 c -6.520891,-0.21994 -19.261683,6.94446 -32.989913,9.04347 -16.220318,2.48008 -25.391042,-5.36474 -26.10571,-6.00341 -0.15172,0.21204 -0.315466,0.45041 -0.534658,0.69109 -3.021714,3.31827 -0.06573,1.24163 -0.06573,1.24163 0,0 -0.773114,2.50846 -3.644522,2.98883 -2.871325,0.48036 -11.3834235,11.70968 -11.3834235,11.70968 l -0.2177673,4.11109 c 0,0 1.9635488,-1.17664 3.0933308,-4.59517 1.129689,-3.41853 11.300051,-10.13694 11.300051,-10.13694 0,0 -0.0202,0.30725 3.496514,5.55291 3.51684,5.24574 1.263557,5.77067 4.383496,6.56836 1.949936,0.49858 2.96955,-0.0341 3.45788,-0.50858 l -5.414972,7.68179 c 0,0 1.527395,1.01379 2.224818,-0.21414 0.697516,-1.22793 6.117883,-7.89363 6.117883,-7.89363 l 4.381033,0.86842 c 0,0 4.057593,0.85525 7.492835,1.66966 3.435148,0.81439 7.703806,4.17891 9.52898,5.54043 1.825185,1.36152 15.498237,-0.44394 16.809722,-1.32316 1.311391,-0.87911 9.925433,-7.98832 11.984381,-11.04143 2.059041,-3.0531 -1.371075,-3.89093 -1.371075,-3.89093 0,0 1.578229,-2.15418 3.552309,-4.90295 -0.846948,-2.44834 -1.746937,-4.48302 -2.661427,-5.64704 -0.77762,-0.98983 -1.929154,-1.45923 -3.433988,-1.50998 z"
       style="color:#000000;display:inline;overflow:visible;visibility:visible;opacity:0.14;fill:#000000;fill-opacity:1;fill-rule:evenodd;stroke:#000000;stroke-width:0.884163px;stroke-linecap:butt;stroke-linejoin:miter;stroke-miterlimit:4;stroke-dasharray:none;stroke-dashoffset:0;stroke-opacity:1;marker:none;marker-start:none;marker-mid:none;marker-end:none" />
    <path
       id="path3281"
       d="m 82.768804,108.36381 c -4.643716,-0.11935 -6.086582,9.91507 -6.086582,9.91507 l -7.293724,6.58622 c 0,0 5.029128,12.5869 4.331693,13.81483 -0.697516,1.22792 -3.708175,10.23474 -5.833975,14.54916 -1.860106,3.77511 1.218199,5.894 2.01492,6.35987 3.298723,0.10554 3.080874,1.6241 3.820024,-2.12185 0.864543,-4.3812 1.147027,-16.05832 4.43391,-18.41394 3.286966,-2.35562 12.777215,-8.1733 17.672124,-5.0681 3.55301,2.25388 8.117056,4.21389 11.344526,4.69587 0.72686,-2.43035 1.2563,-4.38965 1.29422,-5.10552 0.1336,-2.52264 -2.69509,-3.297 -5.7314,-5.67134 -3.036394,-2.37433 -10.057454,-12.87694 -17.042776,-18.30638 -1.091506,-0.84835 -2.062936,-1.2118 -2.92296,-1.23389 z"
       style="color:#000000;display:inline;overflow:visible;visibility:visible;opacity:0.14;fill:#000000;fill-opacity:1;fill-rule:evenodd;stroke:#000000;stroke-width:0.884163px;stroke-linecap:butt;stroke-linejoin:miter;stroke-miterlimit:4;stroke-dasharray:none;stroke-dashoffset:0;stroke-opacity:1;marker:none;marker-start:none;marker-mid:none;marker-end:none" />
    <path
       id="path3283"
       d="M 31.396626,112.69839 24.87026,126.2148 c -9.4e-5,0 -5.27501,23.87239 -0.230774,29.95311 2.762045,3.3295 3.432592,5.61948 5.363427,7.39496 l 5.711431,0.30253 4.117195,-0.41831 -4.00022,-1.789 c -9.4e-5,-4e-5 -1.575755,-0.39967 6.290817,0.3332 5.465632,0.50918 10.056306,0.2117 14.409832,1.15061 0.688679,-0.66747 1.146758,-1.24339 1.358338,-1.61586 0.986374,-1.73656 10.899437,-11.96188 13.693215,-14.04987 2.793778,-2.088 1.223418,-6.20015 3.526928,-15.91645 2.303334,-9.71631 -8.179925,-14.29534 -8.179925,-14.29534 z m -1.101855,51.1013 c 0.604336,0.50826 1.314929,0.98026 2.248963,1.41957 0.906714,-0.0725 1.834199,-0.15188 1.834199,-0.15188 z"
       style="color:#000000;display:inline;overflow:visible;visibility:visible;opacity:1;fill:#d38d5f;fill-opacity:1;fill-rule:evenodd;stroke:#000000;stroke-width:0.176833;stroke-linecap:butt;stroke-linejoin:miter;stroke-miterlimit:4;stroke-dasharray:none;stroke-dashoffset:0;stroke-opacity:1;marker:none;marker-start:none;marker-mid:none;marker-end:none" />
    <path
       id="path3285"
       d="m 61.929603,117.33147 c -1.57663,-0.0835 -15.415121,4.24691 -15.415121,4.24691 l -22.010359,6.52612 c -0.62722,3.20734 -1.857806,10.18648 -2.016858,16.66049 2.144177,-0.0601 5.407278,-0.98726 10.079726,-4.33583 9.860804,-7.06686 28.22161,-7.67543 29.349361,-5.08598 1.127657,2.58946 9.444451,6.8364 6.804962,8.91011 -1.594774,1.25285 -0.583823,3.43409 0.959661,4.86519 0.764801,-0.7013 1.457554,-1.30126 1.913159,-1.6418 2.793778,-2.088 1.223418,-6.20015 3.526927,-15.91645 1.61802,-6.8256 -3.069817,-11.09699 -6.004889,-13.04571 -3.478908,-0.62156 -6.602303,-1.15211 -7.186569,-1.18305 z"
       style="color:#000000;display:inline;overflow:visible;visibility:visible;opacity:0.14;fill:#000000;fill-opacity:1;fill-rule:evenodd;stroke:#000000;stroke-width:0.884163px;stroke-linecap:butt;stroke-linejoin:miter;stroke-miterlimit:4;stroke-dasharray:none;stroke-dashoffset:0;stroke-opacity:1;marker:none;marker-start:none;marker-mid:none;marker-end:none" />
    <path
       style="color:#000000;display:inline;overflow:visible;visibility:visible;fill:#d38d5f;fill-opacity:1;fill-rule:evenodd;stroke:#000000;stroke-width:0.176833;stroke-linecap:butt;stroke-linejoin:miter;stroke-miterlimit:4;stroke-dasharray:none;stroke-dashoffset:0;stroke-opacity:1;marker:none;marker-start:none;marker-mid:none;marker-end:none"
       d="m 74.847416,33.764667 c 0,0 -9.9235,-3.687766 -12.728159,-4.468749 -2.804555,-0.780983 -10.967773,-7.853869 -12.195615,-8.551351 -1.227925,-0.697458 -3.38519,-1.760364 -2.821274,-0.465645 0.563834,1.29473 8.146417,7.388224 8.146417,7.388224 0,0 -6.172967,-2.856673 -9.309625,-3.339026 -3.136565,-0.482353 -5.74264,0.960689 -5.74264,0.960689 0,0 -0.469755,14.837229 -2.096437,15.699718 -1.626776,0.862488 -5.959975,5.059974 -6.475707,8.827237 -0.515732,3.767278 -3.090494,10.587627 -3.804636,12.130878 -0.714142,1.54325 -6.456957,2.503928 -9.129873,5.208297 -2.672997,2.704357 -6.790998,8.810542 -7.024854,13.225176 -0.233774,4.414623 -1.033496,13.542511 1.654096,16.530788 2.687673,2.9883 2.121901,7.701567 1.938167,11.170197 -0.183722,3.46863 0.376131,16.77932 1.83588,19.07015 1.459667,2.29082 1.359493,4.18281 8.927399,4.58365 7.567907,0.40084 40.483272,-12.08543 40.286812,-20.31742 -0.19646,-8.232 1.01422,-54.967725 2.475919,-58.684889 1.461699,-3.717156 7.624053,-18.569084 6.06413,-18.967924 z"
       id="path3287" />
    <path
       sodipodi:nodetypes="cscsscc"
       id="path3289"
       d="m 54.238628,113.13349 c 0,0 -13.785345,9.3729 -26.250285,11.87483 -5.875178,1.17926 -9.665663,-4.53566 -12.332391,-5.89447 0.306277,3.64517 0.762676,7.00066 1.427747,8.04424 1.459667,2.29082 1.376107,4.16788 8.944013,4.56873 5.229383,0.27698 22.554568,-5.58992 32.701848,-11.96397 z"
       style="color:#000000;display:inline;overflow:visible;visibility:visible;opacity:0.14;fill:#000000;fill-opacity:1;fill-rule:evenodd;stroke:#000000;stroke-width:0.884163px;stroke-linecap:butt;stroke-linejoin:miter;stroke-miterlimit:4;stroke-dasharray:none;stroke-dashoffset:0;stroke-opacity:1;marker:none;marker-start:none;marker-mid:none;marker-end:none" />
    <path
       style="color:#000000;display:inline;overflow:visible;visibility:visible;fill:#d38d5f;fill-opacity:1;fill-rule:evenodd;stroke:#000000;stroke-width:0.176833;stroke-linecap:butt;stroke-linejoin:miter;stroke-miterlimit:4;stroke-dasharray:none;stroke-dashoffset:0;stroke-opacity:1;marker:none;marker-start:none;marker-mid:none;marker-end:none"
       d="m 89.816291,37.719669 c 0,0 -9.393168,-1.762395 -12.778277,-3.522759 -3.385108,-1.760376 -6.388165,-4.765372 -6.388165,-4.765372 l 1.674959,4.199506 c 0,0 -5.726107,0.645363 -7.851908,4.959776 -2.125789,4.314414 -5.794886,7.914651 -5.398078,12.362691 0.396901,4.448026 -3.353714,3.616944 -3.570781,7.716241 -0.217148,4.099297 -3.286872,2.355628 -3.869538,7.384208 -0.582492,5.028591 -5.462807,7.616032 -5.04928,11.748731 0.413515,4.132712 -2.93826,1.741672 -2.758507,10.288995 0.179752,8.547334 3.115887,12.813644 3.214112,16.929634 0.09819,4.11601 2.119869,13.70954 5.488176,15.78524 3.368495,2.07571 23.399298,5.98262 26.304038,4.87161 2.904834,-1.11101 12.633983,-11.66322 13.216556,-16.6918 0.582491,-5.02859 -5.11082,-52.762426 -5.02726,-54.33908 0.08348,-1.576642 2.777246,-16.612295 2.793953,-16.927621 z"
       id="path3291" />
    <path
       style="color:#000000;display:inline;overflow:visible;visibility:visible;fill:#d38d5f;fill-opacity:1;fill-rule:evenodd;stroke:#000000;stroke-width:0.176833;stroke-linecap:butt;stroke-linejoin:miter;stroke-miterlimit:4;stroke-dasharray:none;stroke-dashoffset:0;stroke-opacity:1;marker:none;marker-start:none;marker-mid:none;marker-end:none"
       d="m 106.5527,157.71095 c -1.86637,1.46634 -2.53657,0.22023 -3.23727,4.96006 -0.5068,3.42907 0.66056,10.8987 2.01014,10.74654 1.34968,-0.15209 5.85635,-0.80778 6.64334,-3.00209 0.78709,-2.19428 10.75559,-17.31814 10.75559,-17.31814 0,0 -5.17563,0.62025 -8.82581,1.9921 -3.65018,1.37185 -7.78001,2.37496 -7.34599,2.62153 z"
       id="path3293"
       sodipodi:nodetypes="cssscsc" />
    <path
       id="path3295"
       d="m 112.25874,160.69807 c -0.40255,-0.005 -0.87567,0.10531 -1.43198,0.39452 -3.53658,1.83847 -5.99463,1.5293 -7.4124,0.99085 -0.0334,0.19962 -0.0525,0.35061 -0.0859,0.57649 -0.50681,3.42907 0.65375,10.91075 2.00342,10.75859 1.34968,-0.15209 5.84618,-0.80229 6.63318,-2.99652 0.2137,-0.5959 1.13623,-2.16959 2.32058,-4.11047 0.12979,-2.89732 -0.2199,-5.5903 -2.02687,-5.61346 z"
       style="color:#000000;display:inline;overflow:visible;visibility:visible;opacity:0.2;fill:#000000;fill-opacity:1;fill-rule:evenodd;stroke:#000000;stroke-width:0.884163px;stroke-linecap:butt;stroke-linejoin:miter;stroke-miterlimit:4;stroke-dasharray:none;stroke-dashoffset:0;stroke-opacity:1;marker:none;marker-start:none;marker-mid:none;marker-end:none" />
    <path
       style="color:#000000;display:inline;overflow:visible;visibility:visible;fill:#deaa87;fill-opacity:1;fill-rule:evenodd;stroke:#000000;stroke-width:0.176833;stroke-linecap:butt;stroke-linejoin:miter;stroke-miterlimit:4;stroke-dasharray:none;stroke-dashoffset:0;stroke-opacity:1;marker:none;marker-start:none;marker-mid:none;marker-end:none"
       d="m 74.740167,180.96502 1.842768,-1.02032 c 0,0 11.312516,1.71714 14.469594,1.21361 3.157078,-0.50363 7.722814,-2.27416 9.612891,-4.18643 1.89008,-1.91227 4.46087,-4.01207 4.46087,-4.01207 0,0 2.60766,-7.01702 -1.01758,-10.3394 -3.62517,-3.32239 -8.623602,-6.04672 -18.647007,-2.55286 -10.023401,3.49386 -17.230751,8.70206 -17.723938,9.57032 -0.493188,0.86829 -2.68883,4.32954 -2.98272,5.6556 -0.293808,1.32598 -1.51502,3.27371 -4.202518,3.35495 -2.687416,0.0813 -3.87317,1.36002 -3.87317,1.36002 0,0 2.922253,-0.29238 4.025334,-0.0105 1.103081,0.28197 0.197966,4.70605 0.197966,4.70605 0,0 -0.341117,2.21784 -3.428703,5.63186 -3.087669,3.41411 -4.062193,4.92762 -4.062193,4.92762 0,0 5.786842,-3.71826 6.280123,-4.58651 0.493187,-0.86824 1.455148,-0.0348 0.979743,0.49911 -0.475418,0.53377 -1.585224,2.48742 -4.056285,4.81612 -2.471144,2.32863 -3.087587,3.41403 -3.146641,4.52887 -0.05908,1.11484 0.474705,1.59035 1.114931,0.0591 0.640039,-1.53129 3.13479,-4.30596 4.191287,-5.25618 1.056484,-0.9502 1.983875,-1.57187 1.701835,-0.46887 -0.282051,1.10308 -2.007401,2.01784 -1.831723,2.92154 0.175678,0.9037 0.750919,0.59884 1.320054,0.40539 0.56931,-0.19346 1.003351,0.0531 0.516176,0.80989 -0.487268,0.75676 -5.910892,6.05944 -6.650673,7.3619 -0.739781,1.30238 -0.922184,2.63427 -0.922184,2.63427 0,0 -0.968604,1.40211 2.113145,-1.90042 3.081667,-3.30252 6.344932,-5.81284 7.061106,-6.66933 0.716173,-0.85649 1.455954,-2.15885 1.625806,-1.14366 0.169759,1.0152 -0.265076,2.89271 -0.265076,2.89271 0,0 -0.640844,3.6554 -1.022532,4.52958 -0.381701,0.87416 -1.549672,1.81854 -1.549672,1.81854 0,0 -4.144072,4.36423 -3.323043,5.74927 0.820948,1.38513 0.128463,1.79565 -0.599467,2.87504 -0.728012,1.07947 -2.130833,2.23489 -2.125614,4.24761 0.0047,2.01262 -0.358081,0.4282 -1.602806,2.82189 -1.244819,2.39361 -3.868745,5.49676 -3.611106,6.96385 0.257731,1.467 -1.702549,2.59299 -1.702549,2.59299 0,0 -1.06656,0.41829 -1.797409,2.27689 -0.730943,1.8586 -0.499107,3.45195 0.131568,3.48537 0.630664,0.0333 0.780003,0.19938 1.029515,-1.5266 0.249513,-1.72597 3.030028,-3.476 3.030028,-3.476 0,0 0.02405,2.53102 0.679747,2.09141 0.655777,-0.43952 0.589917,-2.18221 0.589917,-2.18221 0,0 0.505388,2.39839 1.177872,1.64349 0.672415,-0.75499 0.971967,-3.42693 0.971967,-3.42693 0,0 5.901435,-3.95637 5.810543,-5.22602 -0.09083,-1.26967 -0.164983,-2.8547 -0.164983,-2.8547 0,0 1.35215,1.3365 1.87637,-2.58839 0.524045,-3.92499 -0.504501,-5.40242 1.586986,-6.08216 2.091393,-0.67974 3.154253,-2.83693 2.92251,-4.43028 -0.231918,-1.59344 -0.230855,-4.59738 1.827123,-4.64655 2.057979,-0.049 2.788922,-1.90766 3.013402,-3.16061 0.224411,-1.25295 -0.629694,-3.03736 0.81441,-3.43525 1.44401,-0.39777 0.297603,3.33604 0.903176,3.84249 0.605562,0.50637 1.569298,-2.76283 1.163115,-4.0492 -0.406183,-1.28637 0.866119,3.04992 2.616676,4.32843 1.750464,1.27849 1.846049,0.96735 2.024564,0.58159 0.178597,-0.38585 -0.751281,0.75074 -2.01987,-2.16239 -1.268695,-2.91315 -1.699992,-3.72658 -1.737037,-4.51905 -0.03701,-0.79248 1.078236,-7.18587 0.650745,-9.66807 -0.42749,-2.4822 0.534483,-1.64869 -0.679385,-4.06078 -1.213785,-2.41199 -1.735787,-3.11048 -1.043233,-3.521 0.692566,-0.41052 1.455254,-0.0348 1.455254,-0.0348 z"
       id="path3297" />
    <path
       id="path3299"
       d="m 103.86874,162.38419 c -0.83987,0.98444 -1.68008,2.1553 -2.30863,3.36398 -1.760378,3.38513 -18.329234,5.98195 -22.752263,5.90581 -4.422935,-0.0762 -7.672237,1.49486 -9.731278,4.54797 1.505201,8.56533 2.725081,17.00865 -1.17019,25.2273 -1.757539,7.62352 -1.001844,4.62374 -0.341642,5.40498 0.0047,0.006 0.02277,-0.005 0.02755,0.001 2.036227,-0.0655 2.766283,-1.91474 2.989701,-3.16194 0.22441,-1.25295 -0.625363,-3.04506 0.818741,-3.44294 1.44401,-0.39778 0.297871,3.33215 0.903433,3.83852 0.605562,0.50644 1.562059,-2.77504 1.155865,-4.06141 0.2764,0.75596 1.315022,3.39147 2.619781,4.34443 1.750464,1.27849 1.865944,0.96444 2.044541,0.57867 0.178597,-0.38584 -0.775321,0.75738 -2.044015,-2.15576 -1.268683,-2.91314 -1.688036,-3.72586 -1.725175,-4.51842 -0.03689,-0.79249 1.078411,-7.19506 0.65092,-9.67726 -0.42749,-2.4822 0.542878,-1.63544 -0.67099,-4.04753 -1.213774,-2.41208 -1.75002,-3.13179 -1.057465,-3.5423 0.692484,-0.41053 1.468155,-0.0329 1.468155,-0.0329 l 1.824298,-1.01016 c 9.3e-5,0 11.332667,1.71377 14.489756,1.21024 3.156985,-0.50361 7.71184,-2.2829 9.601917,-4.19517 1.89008,-1.91227 4.47264,-3.99643 4.47264,-3.99643 8e-5,0 2.59626,-7.02492 -1.02899,-10.3473 -0.0816,-0.0747 -0.15367,-0.15982 -0.23669,-0.23388 z"
       style="color:#000000;display:inline;overflow:visible;visibility:visible;opacity:0.14;fill:#000000;fill-opacity:1;fill-rule:evenodd;stroke:#000000;stroke-width:0.884163px;stroke-linecap:butt;stroke-linejoin:miter;stroke-miterlimit:4;stroke-dasharray:none;stroke-dashoffset:0;stroke-opacity:1;marker:none;marker-start:none;marker-mid:none;marker-end:none" />
    <path
       style="color:#000000;display:inline;overflow:visible;visibility:visible;fill:#c87137;fill-opacity:1;fill-rule:evenodd;stroke:#000000;stroke-width:0.176833;stroke-linecap:butt;stroke-linejoin:miter;stroke-miterlimit:4;stroke-dasharray:none;stroke-dashoffset:0;stroke-opacity:1;marker:none;marker-start:none;marker-mid:none;marker-end:none"
       d="m 153.64076,139.30659 c 0,0 0.30275,6.94758 -0.7677,14.4932 -1.07046,7.54563 -0.34395,10.71448 1.74692,5.01169 2.09087,-5.70281 1.52678,-3.4967 2.30342,-9.71631 0.77665,-6.2196 -0.7709,-10.77353 1.24756,-10.89021 2.01863,-0.11663 1.1106,12.8039 2.21368,13.08593 1.10308,0.28202 7.70062,-6.07647 7.92502,-10.31295 0.2244,-4.23647 6.13078,-14.43273 6.10859,-18.23507 -0.0222,-3.80234 -11.06309,-10.64788 -11.06309,-10.64788 z"
       id="path3301" />
    <path
       style="color:#000000;display:inline;overflow:visible;visibility:visible;fill:#c87137;fill-opacity:1;fill-rule:evenodd;stroke:#000000;stroke-width:0.176833;stroke-linecap:butt;stroke-linejoin:miter;stroke-miterlimit:4;stroke-dasharray:none;stroke-dashoffset:0;stroke-opacity:1;marker:none;marker-start:none;marker-mid:none;marker-end:none"
       d="m 154.80707,125.7289 c 0,0 -5.95219,6.83986 -6.28144,8.8348 -0.32936,1.99493 -2.05551,5.03389 -0.7412,5.5507 1.31412,0.51679 9.11961,-3.31813 9.11961,-3.31813 0,0 -1.85462,1.24335 -0.37507,-1.36146 1.47956,-2.60481 6.43362,-7.48517 5.9995,-7.73175 -0.43422,-0.24659 -7.24007,-2.61947 -7.7214,-1.97416 z"
       id="path3303" />
    <path
       style="color:#000000;display:inline;overflow:visible;visibility:visible;fill:#d38d5f;fill-opacity:1;fill-rule:evenodd;stroke:#000000;stroke-width:0.176833;stroke-linecap:butt;stroke-linejoin:miter;stroke-miterlimit:4;stroke-dasharray:none;stroke-dashoffset:0;stroke-opacity:1;marker:none;marker-start:none;marker-mid:none;marker-end:none"
       d="m 164.69016,120.66242 c -0.9274,0.62167 -9.19345,13.15252 -8.40777,15.20652 0.78557,2.054 1.77053,4.56574 3.78907,4.44906 2.01856,-0.11675 7.24289,-5.87712 7.54846,-7.42611 0.30566,-1.54899 -2.39502,3.00351 -4.20243,3.35498 -1.8074,0.35146 -4.27192,0.44452 -2.59306,-1.70254 1.67893,-2.14704 3.92196,-6.5002 5.20206,-9.56277 1.28026,-3.06255 -0.90221,-4.07255 -1.33633,-4.31914 z"
       id="path3305" />
    <path
       style="color:#000000;display:inline;overflow:visible;visibility:visible;fill:#d38d5f;fill-opacity:1;fill-rule:evenodd;stroke:#000000;stroke-width:0.176833;stroke-linecap:butt;stroke-linejoin:miter;stroke-miterlimit:4;stroke-dasharray:none;stroke-dashoffset:0;stroke-opacity:1;marker:none;marker-start:none;marker-mid:none;marker-end:none"
       d="m 76.524932,79.704712 c 0,0 -6.038386,-8.38332 1.104319,-26.819794 6.413641,-16.554631 11.980236,-17.23161 11.980236,-17.23161 l -2.579105,-5.037931 -0.181691,-2.539363 c 0,0 4.553524,6.565502 10.062483,10.019436 3.232676,2.026794 0.559141,40.188952 0.559141,40.188952 z"
       id="path3307"
       sodipodi:nodetypes="cscccscc" />
    <path
       id="path3309"
       d="m 70.35639,83.606801 c 0,1.2e-5 -4.649728,4.204456 -5.083931,12.40305 -0.434309,8.198589 7.081175,9.217229 9.470183,11.873489 1.564523,1.73954 1.994045,4.76484 2.809342,6.51263 -2.340474,0.26363 -6.065368,-0.24333 -14.770038,-1.14201 -8.864622,-0.91518 -13.242386,-3.06099 -15.419278,-5.07769 0.688235,4.62174 2.494927,10.99413 5.168555,12.64171 3.368389,2.07572 23.400267,5.9629 26.305089,4.8519 2.352406,-0.89973 9.172576,-7.97446 11.993849,-13.30982 -0.221211,-2.09685 -0.901752,-3.67086 -2.49077,-3.64588 -0.692309,0.0105 -1.562946,0.32831 -2.627382,1.02294 -0.532264,0.34732 -1.022972,0.66984 -1.462674,0.97394 1.448874,-2.11042 2.596438,-4.0958 2.596438,-4.0958 z"
       style="color:#000000;display:inline;overflow:visible;visibility:visible;opacity:0.14;fill:#000000;fill-opacity:1;fill-rule:evenodd;stroke:#000000;stroke-width:0.884163px;stroke-linecap:butt;stroke-linejoin:miter;stroke-miterlimit:4;stroke-dasharray:none;stroke-dashoffset:0;stroke-opacity:1;marker:none;marker-start:none;marker-mid:none;marker-end:none" />
    <path
       style="color:#000000;display:inline;overflow:visible;visibility:visible;fill:#deaa87;fill-opacity:1;fill-rule:evenodd;stroke:#000000;stroke-width:0.176833;stroke-linecap:butt;stroke-linejoin:miter;stroke-miterlimit:4;stroke-dasharray:none;stroke-dashoffset:0;stroke-opacity:1;marker:none;marker-start:none;marker-mid:none;marker-end:none"
       d="m 124.26878,43.971503 c 0,0 -15.13591,-0.801695 -19.6821,-4.520868 -4.54619,-3.719161 -12.011975,-12.019972 -12.011975,-12.019972 0,0 -1.576642,-0.08348 -1.04614,1.841881 0.530408,1.925382 6.187725,8.549331 6.187725,8.549331 0,0 -6.145729,14.536616 -6.895235,22.718502 -0.749682,8.181887 -1.300779,18.587786 -1.300779,18.587786 0,0 20.628144,4.570978 23.284354,2.181935 2.65629,-2.38902 -2.78583,-7.104269 -1.04217,-10.174075 1.74366,-3.069805 6.19569,-15.482592 8.28815,-19.166342 2.09229,-3.683753 4.51675,-7.666145 4.21817,-7.998178 z"
       id="path3311" />
    <path
       style="color:#000000;display:inline;overflow:visible;visibility:visible;fill:#cccccc;fill-opacity:1;fill-rule:evenodd;stroke:#000000;stroke-width:0.176833;stroke-linecap:butt;stroke-linejoin:miter;stroke-miterlimit:4;stroke-dasharray:none;stroke-dashoffset:0;stroke-opacity:1;marker:none;marker-start:none;marker-mid:none;marker-end:none"
       d="m 108.65525,82.038974 c -3.11995,-0.79769 -10.353819,-7.50514 -20.212591,-6.446238 -9.858767,1.058878 -15.6015,2.019567 -17.827556,8.225972 -2.225974,6.206393 -3.357706,15.6329 -0.951979,17.973832 2.405808,2.34093 6.720164,4.46674 9.789981,6.21042 3.069724,1.74367 0.497075,2.55604 3.234801,4.59835 2.73772,2.04229 8.181869,0.74958 10.205453,4.33513 2.023583,3.58555 4.876252,9.42852 9.838081,11.27239 4.96175,1.84389 9.39309,1.7624 11.99925,0.31935 2.60616,-1.44303 4.60039,-9.24279 4.60039,-9.24279 l 4.36847,-10.83614 z"
       id="path3313" />
    <path
       id="path3315"
       d="m 112.85848,61.095432 c 0,0 -3.52172,3.167434 -4.62622,7.133703 -1.10441,3.966257 1.78239,4.342761 1.80458,8.145097 0.0222,3.802348 -3.58077,4.282295 -3.58077,4.282295 l 3.3195,4.871384 7.81592,0.190377 -3.85292,-24.352632 z"
       style="color:#000000;display:inline;overflow:visible;visibility:visible;opacity:0.06;fill:#000000;fill-opacity:1;fill-rule:evenodd;stroke:#000000;stroke-width:0.884163px;stroke-linecap:butt;stroke-linejoin:miter;stroke-miterlimit:4;stroke-dasharray:none;stroke-dashoffset:0;stroke-opacity:1;marker:none;marker-start:none;marker-mid:none;marker-end:none" />
    <path
       id="path3317"
       d="m 123.89071,61.236038 c -3.1134,-0.122976 -5.59065,0.130319 -6.85908,0.992469 -0.6258,0.425342 -1.25339,0.817666 -1.88681,1.145158 -1.34347,3.325728 -2.62437,6.446554 -3.37175,7.762358 -1.65851,2.92 3.17133,7.332171 1.3618,9.811558 7.08417,5.3238 18.23117,9.561449 24.54065,9.434469 9.17726,-0.184715 23.0398,-4.58632 23.42803,-7.696125 0.38841,-3.109805 -5.03213,-14.566818 -5.67739,-15.048202 -1.19167,-0.587173 -20.41595,-5.962508 -31.53545,-6.401685 z"
       style="color:#000000;display:inline;overflow:visible;visibility:visible;fill:#deaa87;fill-opacity:1;fill-rule:evenodd;stroke:#000000;stroke-width:0.176833;stroke-linecap:butt;stroke-linejoin:miter;stroke-miterlimit:4;stroke-dasharray:none;stroke-dashoffset:0;stroke-opacity:1;marker:none;marker-start:none;marker-mid:none;marker-end:none" />
    <path
       style="color:#000000;display:inline;overflow:visible;visibility:visible;fill:#deaa87;fill-opacity:1;fill-rule:evenodd;stroke:#000000;stroke-width:0.176833;stroke-linecap:butt;stroke-linejoin:miter;stroke-miterlimit:4;stroke-dasharray:none;stroke-dashoffset:0;stroke-opacity:1;marker:none;marker-start:none;marker-mid:none;marker-end:none"
       d="m 136.37261,68.494794 c -10.94921,-0.12245 -20.59684,0.510233 -22.70009,2.228718 -2.10333,1.718497 -3.80244,0.02732 -4.37467,-1.832867 -0.57213,-1.8602 12.52525,-25.412586 14.73079,-24.838302 2.20527,0.574283 14.98657,-0.121167 17.10741,2.049817 2.12085,2.170961 4.89862,4.605458 4.89862,4.605458 l -8.77019,17.834426 z"
       id="path3319" />
    <path
       style="color:#000000;display:inline;overflow:visible;visibility:visible;fill:#deaa87;fill-opacity:1;fill-rule:evenodd;stroke:#000000;stroke-width:0.176833;stroke-linecap:butt;stroke-linejoin:miter;stroke-miterlimit:4;stroke-dasharray:none;stroke-dashoffset:0;stroke-opacity:1;marker:none;marker-start:none;marker-mid:none;marker-end:none"
       d="m 163.29089,58.428097 c 0,0 -18.22181,-10.579863 -20.02923,-10.228391 -1.8074,0.351462 -6.08074,5.044274 -7.37418,12.5781 -1.29335,7.533815 -4.32197,9.83297 3.62241,11.818935 7.94431,1.985978 12.10995,3.5482 12.61357,6.705244 0.50353,3.157054 24.26568,10.452787 22.79037,0.312745 -1.47531,-10.140053 -11.42356,-20.72888 -11.62294,-21.186633 z"
       id="path3321" />
    <path
       id="path3323"
       d="m 131.85967,114.16175 c 0.15969,0.10695 0.30168,0.21095 0.4237,0.31016 0.12201,0.0991 0.22404,0.19351 0.30352,0.28097 0.0795,0.0874 0.13652,0.16799 0.16853,0.23963 0.0321,0.0717 0.0391,0.13433 0.0188,0.18609 -0.0214,0.0543 -0.0197,0.0807 0.003,0.0841 0.0238,0.004 0.0698,-0.0162 0.13714,-0.0539 0.0673,-0.0377 0.15596,-0.0934 0.26516,-0.16226 0.10916,-0.0688 0.23881,-0.15074 0.38814,-0.24076 6.83008,2.6139 14.86226,5.99616 17.4861,8.3691 1.73642,1.57042 2.42632,2.71732 2.60696,3.54135 -0.11617,0.47047 -0.15783,0.81501 -0.0787,0.96422 0.006,0.012 0.0189,0.0178 0.026,0.0291 -0.26047,0.68077 -0.93411,0.91893 -0.93411,0.91893 0,-1e-5 7.48753,1.99348 9.56328,-1.37495 2.02828,-3.29141 11.03559,-4.08917 11.45204,-4.12479 l 0.88991,0.9602 c 0,0 0.76082,-1.7305 2.99059,-1.61241 2.22969,0.11813 1.01007,1.82431 1.01007,1.82431 0,0 7.33909,-3.64557 9.6648,-9.55954 2.32561,-5.91398 4.4872,-12.95347 1.16912,-22.073142 -3.31817,-9.119668 -8.29645,-20.338517 -11.52295,-22.745388 -3.22649,-2.406883 -9.54622,-9.661764 -10.8722,-9.955584 -1.32597,-0.293843 -6.7604,-3.484663 -6.7604,-3.484663 0,0 2.24746,7.517399 2.0937,7.517306 3.79942,8.049266 2.06461,12.066031 -5.94539,14.406738 -25.08052,2.760352 -24.9509,4.656722 -37.60018,0.173343 -19.297402,4.843316 -17.37407,8.074217 -12.44567,18.55116 0.30672,0.652181 -3.07175,3.1858 -0.0209,5.09543 1.5075,1.96122 6.03141,6.44433 25.51873,11.93542 z"
       style="color:#000000;display:inline;overflow:visible;visibility:visible;fill:#cccccc;fill-opacity:1;fill-rule:evenodd;stroke:#000000;stroke-width:0.176833;stroke-linecap:butt;stroke-linejoin:miter;stroke-miterlimit:4;stroke-dasharray:none;stroke-dashoffset:0;stroke-opacity:1;marker:none;marker-start:none;marker-mid:none;marker-end:none"
       sodipodi:nodetypes="cssssssscscsccsccscssssccccscc" />
    <path
       style="color:#000000;display:inline;overflow:visible;visibility:visible;fill:#deaa87;fill-opacity:1;fill-rule:evenodd;stroke:#000000;stroke-width:0.176833;stroke-linecap:butt;stroke-linejoin:miter;stroke-miterlimit:4;stroke-dasharray:none;stroke-dashoffset:0;stroke-opacity:1;marker:none;marker-start:none;marker-mid:none;marker-end:none"
       d="m 148.74224,113.25403 c 0,0 -1.01078,-4.79675 0.88125,-4.69654 1.89201,0.10017 4.34778,1.49515 4.34778,1.49515 0,0 3.74859,6.83907 2.07168,8.64754 -1.6769,1.80847 -13.73424,26.46705 -16.39053,28.85607 -2.65621,2.38904 -9.39715,10.25358 -9.39715,10.25358 l -0.56578,4.71325 -1.12775,-2.58945 -4.61506,3.55015 -6.62389,5.65724 c 0,0 -2.18433,5.41807 -4.05221,7.84889 -1.86798,2.43075 -3.68581,3.91552 -3.68581,3.91552 0,0 -2.415,0.82077 -0.4229,-0.97108 1.99228,-1.79175 5.23,-6.20532 5.4545,-7.45826 0.22449,-1.25304 0.80609,-3.27762 0.80609,-3.27762 0,0 -1.27904,3.2525 -4.59005,3.07718 -3.31093,-0.17543 -4.16608,1.04419 -3.31835,-3.02173 0.84782,-4.06589 1.13173,-9.42652 3.4393,-11.20158 2.30749,-1.77507 7.123,-9.10917 6.59251,-11.03456 -0.53042,-1.92539 11.79216,-25.62128 13.15378,-27.44645 1.36153,-1.82517 5.1308,-7.31739 11.42065,-6.66803 6.28994,0.64936 6.93732,0.36744 6.62194,0.35073 z"
       id="path3325" />
    <path
       id="path3327"
       d="m 148.68123,109.30941 c -0.48187,1.32378 0.0684,3.93261 0.0684,3.93261 0.31538,0.0167 -0.332,0.29862 -6.62194,-0.35075 -6.28993,-0.64936 -10.05939,4.84681 -11.42099,6.67198 -0.20787,0.27875 -0.73431,1.19112 -1.3687,2.33468 4.94504,-1.01282 11.5584,-1.50643 13.41126,3.80926 2.47054,7.08759 -8.1198,22.03307 -11.67192,23.42599 -3.55214,1.39294 -11.57344,9.17781 -17.01759,10.47053 -2.11801,0.50294 -3.49696,0.84852 -4.82169,1.18339 -0.8465,2.42091 -1.15084,5.72505 -1.72076,8.45853 -0.84783,4.06591 0.0151,2.85071 3.32596,3.02603 3.31101,0.17543 4.59004,-3.07713 4.59004,-3.07712 0,0 -0.58549,2.02435 -0.80998,3.27739 -0.22448,1.25295 -3.46618,5.66633 -5.45847,7.45809 -1.99212,1.79185 0.41936,0.96294 0.41936,0.96294 0,0 1.82491,-1.4685 3.69288,-3.89933 1.86789,-2.43083 4.04116,-7.86527 4.04116,-7.86527 l 6.63556,-5.65265 4.61488,-3.54621 1.10716,2.60417 0.58248,-4.72818 c 0,0 6.74007,-7.84879 9.39627,-10.23782 2.6563,-2.38902 14.71071,-27.06754 16.38761,-28.876 0.88178,-0.95091 0.26216,-3.27769 -0.52245,-5.28475 -2.60209,-2.0709 -5.20064,-3.81276 -6.83856,-4.09751 z"
       style="color:#000000;display:inline;overflow:visible;visibility:visible;opacity:0.14;fill:#000000;fill-opacity:1;fill-rule:evenodd;stroke:#000000;stroke-width:0.884163px;stroke-linecap:butt;stroke-linejoin:miter;stroke-miterlimit:4;stroke-dasharray:none;stroke-dashoffset:0;stroke-opacity:1;marker:none;marker-start:none;marker-mid:none;marker-end:none" />
    <path
       sodipodi:nodetypes="cssssssscscsccsccscssssccccscc"
       style="color:#000000;display:inline;overflow:visible;visibility:visible;fill:#cccccc;fill-opacity:1;fill-rule:evenodd;stroke:#000000;stroke-width:0.176833;stroke-linecap:butt;stroke-linejoin:miter;stroke-miterlimit:4;stroke-dasharray:none;stroke-dashoffset:0;stroke-opacity:1;marker:none;marker-start:none;marker-mid:none;marker-end:none"
       d="m 131.85967,114.16175 c 0.15969,0.10695 0.30168,0.21095 0.4237,0.31016 0.12201,0.0991 0.22404,0.19351 0.30352,0.28097 0.0795,0.0874 0.13652,0.16799 0.16853,0.23963 0.0321,0.0717 0.0391,0.13433 0.0188,0.18609 -0.0214,0.0543 -0.0197,0.0807 0.003,0.0841 0.0238,0.004 0.0698,-0.0162 0.13714,-0.0539 0.0673,-0.0377 0.15596,-0.0934 0.26516,-0.16226 0.10916,-0.0688 0.23881,-0.15074 0.38814,-0.24076 6.83008,2.6139 14.86226,5.99616 17.4861,8.3691 1.73642,1.57042 2.42632,2.71732 2.60696,3.54135 -0.11617,0.47047 -0.15783,0.81501 -0.0787,0.96422 0.006,0.012 0.0189,0.0178 0.026,0.0291 -0.26047,0.68077 -0.93411,0.91893 -0.93411,0.91893 0,-1e-5 7.48753,1.99348 9.56328,-1.37495 2.02828,-3.29141 11.03559,-4.08917 11.45204,-4.12479 l 0.88991,0.9602 c 0,0 0.76082,-1.7305 2.99059,-1.61241 2.22969,0.11813 1.01007,1.82431 1.01007,1.82431 0,0 7.33909,-3.64557 9.6648,-9.55954 2.32561,-5.91398 4.4872,-12.95347 1.16912,-22.073142 -3.31817,-9.119668 -8.29645,-20.338517 -11.52295,-22.745388 -3.22649,-2.406883 -9.54622,-9.661764 -10.8722,-9.955584 -1.32597,-0.293843 -6.7604,-3.484663 -6.7604,-3.484663 0,0 2.24746,7.517399 2.0937,7.517306 3.79942,8.049266 2.06461,12.066031 -5.94539,14.406738 -25.08052,2.760352 -24.9509,4.656722 -37.60018,0.173343 -19.297402,4.843316 -17.37407,8.074217 -12.44567,18.55116 0.30672,0.652181 -3.07175,3.1858 -0.0209,5.09543 1.5075,1.96122 6.03141,6.44433 25.51873,11.93542 z"
       id="path3329" />
    <path
       id="path3331"
       d="m 108.65525,82.038974 c -3.11995,-0.79769 -10.353819,-7.50514 -20.212591,-6.446238 -9.858767,1.058878 -15.6015,2.019567 -17.827556,8.225972 -2.225974,6.206393 -3.357706,15.6329 -0.951979,17.973832 2.405808,2.34093 6.720164,4.46674 9.789981,6.21042 3.069724,1.74367 0.497075,2.55604 3.234801,4.59835 2.73772,2.04229 8.181869,0.74958 10.205453,4.33513 2.023583,3.58555 4.876252,9.42852 9.838081,11.27239 4.96175,1.84389 9.39309,1.7624 11.99925,0.31935 2.60616,-1.44303 4.60039,-9.24279 4.60039,-9.24279 l 4.36847,-10.83614 z"
       style="color:#000000;display:inline;overflow:visible;visibility:visible;fill:#d38d5f;fill-opacity:1;fill-rule:evenodd;stroke:#000000;stroke-width:0.176833;stroke-linecap:butt;stroke-linejoin:miter;stroke-miterlimit:4;stroke-dasharray:none;stroke-dashoffset:0;stroke-opacity:1;marker:none;marker-start:none;marker-mid:none;marker-end:none" />
    <path
       sodipodi:nodetypes="cssscscssscccc"
       id="path3333"
       d="m 115.79151,79.37283 c 0,0 -0.68567,2.628258 -10.25603,2.638684 -5.09163,0.0058 -8.333767,13.784317 -5.844503,14.548605 2.489273,0.764264 -1.956824,7.169301 2.374253,8.979771 3.21198,1.34268 8.20645,5.04714 11.8622,6.9368 -3.27671,2.31998 -8.70565,3.98962 -13.52177,0.88859 -6.314966,-4.0661 -10.367095,1.12306 -10.499889,1.29767 1.227305,0.41452 2.295991,1.05004 2.979182,2.26062 2.023595,3.58555 4.871651,9.44014 9.833497,11.28403 4.96175,1.84388 9.41218,1.77525 12.01834,0.3322 2.60616,-1.44303 4.58474,-9.24757 4.58474,-9.24757 l 3.60013,-8.94002 c 2.95559,-2.42285 5.73221,-5.31315 5.73221,-5.31315 z"
       style="color:#000000;display:inline;overflow:visible;visibility:visible;opacity:0.14;fill:#000000;fill-opacity:1;fill-rule:evenodd;stroke:#000000;stroke-width:0.884163px;stroke-linecap:butt;stroke-linejoin:miter;stroke-miterlimit:4;stroke-dasharray:none;stroke-dashoffset:0;stroke-opacity:1;marker:none;marker-start:none;marker-mid:none;marker-end:none" />
    <path
       id="path3335"
       d="m 131.85967,114.16175 c 0.15969,0.10695 0.30168,0.21095 0.4237,0.31016 0.12201,0.0991 0.22404,0.19351 0.30352,0.28097 0.0795,0.0874 0.13652,0.16799 0.16853,0.23963 0.0321,0.0717 0.0391,0.13433 0.0188,0.18609 -0.0214,0.0543 -0.0197,0.0807 0.003,0.0841 0.0238,0.004 0.0698,-0.0162 0.13714,-0.0539 0.0673,-0.0377 0.15596,-0.0934 0.26516,-0.16226 0.10916,-0.0688 0.23881,-0.15074 0.38814,-0.24076 6.83008,2.6139 14.86226,5.99616 17.4861,8.3691 1.73642,1.57042 2.42632,2.71732 2.60696,3.54135 -0.11617,0.47047 -0.15783,0.81501 -0.0787,0.96422 0.006,0.012 0.0189,0.0178 0.026,0.0291 -0.26047,0.68077 -0.93411,0.91893 -0.93411,0.91893 0,-1e-5 7.48753,1.99348 9.56328,-1.37495 2.02828,-3.29141 11.03559,-4.08917 11.45204,-4.12479 l 0.88991,0.9602 c 0,0 0.76082,-1.7305 2.99059,-1.61241 2.22969,0.11813 1.01007,1.82431 1.01007,1.82431 0,0 7.33909,-3.64557 9.6648,-9.55954 2.32561,-5.91398 4.4872,-12.95347 1.16912,-22.073142 -3.31817,-9.119668 -8.29645,-20.338517 -11.52295,-22.745388 -3.22649,-2.406883 -9.54622,-9.661764 -10.8722,-9.955584 -1.32597,-0.293843 -6.7604,-3.484663 -6.7604,-3.484663 0,0 2.24746,7.517399 2.0937,7.517306 3.79942,8.049266 2.06461,12.066031 -5.94539,14.406738 -25.08052,2.760352 -24.9509,4.656722 -37.60018,0.173343 -19.297402,4.843316 -17.37407,8.074217 -12.44567,18.55116 0.30672,0.652181 -3.07175,3.1858 -0.0209,5.09543 1.5075,1.96122 6.03141,6.44433 25.51873,11.93542 z"
       style="color:#000000;display:inline;overflow:visible;visibility:visible;fill:#deaa87;fill-opacity:1;fill-rule:evenodd;stroke:#000000;stroke-width:0.176833;stroke-linecap:butt;stroke-linejoin:miter;stroke-miterlimit:4;stroke-dasharray:none;stroke-dashoffset:0;stroke-opacity:1;marker:none;marker-start:none;marker-mid:none;marker-end:none"
       sodipodi:nodetypes="cssssssscscsccsccscssssccccscc" />
    <path
       id="path3337"
       d="m 145.35802,97.872187 c -0.18082,-0.01331 -0.35331,-0.0058 -0.52564,-1.75e-4 -0.63651,0.02183 -1.22147,0.188276 -1.74286,0.516398 -2.78052,1.75002 -5.84627,2.84064 -6.46121,5.49591 -0.61502,2.65525 -4.31435,7.05232 2.53102,9.15409 6.84545,2.10177 11.20711,3.11146 13.58976,-0.0827 0.14156,-0.18979 0.25809,-0.3988 0.3923,-0.6156 1.74057,-0.0435 3.25779,-0.13671 4.17034,1.1893 1.46816,2.13316 8.69981,5.52419 8.58284,7.7315 -0.0578,1.09192 0.73959,2.18415 1.55577,3.0153 2.94727,-0.84414 5.99207,-1.11605 6.23035,-1.13645 l 0.88991,0.96021 c 0,0 0.7609,-1.7305 2.99059,-1.6124 2.22977,0.11811 1.01016,1.82431 1.01016,1.82431 0,0 7.339,-3.64559 9.6647,-9.55955 0.6541,-1.66331 1.29264,-3.43734 1.80254,-5.29995 -1.55391,-3.10923 -4.08377,-5.41705 -8.01866,-5.84781 -1.74878,-0.19144 -3.52055,-0.31722 -5.29162,-0.39096 -8.15914,-0.33969 -16.11335,0.44031 -20.69871,1.0895 0.22953,-1.06416 0.33855,-1.80227 0.28665,-1.75562 -4.58191,-2.16962 -8.24615,-4.475194 -10.95823,-4.675401 z"
       style="color:#000000;display:inline;overflow:visible;visibility:visible;opacity:0.14;fill:#000000;fill-opacity:1;fill-rule:evenodd;stroke:#000000;stroke-width:0.884163px;stroke-linecap:butt;stroke-linejoin:miter;stroke-miterlimit:4;stroke-dasharray:none;stroke-dashoffset:0;stroke-opacity:1;marker:none;marker-start:none;marker-mid:none;marker-end:none" />
    <path
       style="color:#000000;display:inline;overflow:visible;visibility:visible;opacity:1;fill:#d38d5f;fill-opacity:1;fill-rule:evenodd;stroke:#000000;stroke-width:0.176833;stroke-linecap:butt;stroke-linejoin:miter;stroke-miterlimit:4;stroke-dasharray:none;stroke-dashoffset:0;stroke-opacity:1;marker:none;marker-start:none;marker-mid:none;marker-end:none"
       d="m 154.82384,90.19737 c 1.36478,2.632379 3.29337,2.784461 6.23033,3.215992 1.10938,-0.08558 1.82913,-1.312069 1.63797,-2.351204 0.18954,-3.332558 -1.13765,-6.904295 -3.95364,-8.839345 -2.53353,-1.699722 -5.94088,-1.831641 -8.69405,-0.592649 -1.94788,2.81407 -1.84746,4.963735 1.41654,6.21773 0.85943,0.258573 2.47968,2.195853 3.36285,2.349476 z"
       id="path7993"
       sodipodi:nodetypes="ccccccc" />
    <path
       sodipodi:nodetypes="cssscssssscscssscscssssscssscsssscsssssssscsssssssssccsc"
       id="path3339"
       d="m 181.11014,74.089216 c -2.59856,0.325425 -4.88051,-3.361232 -8.44305,2.152654 -1.74385,2.69908 -0.21504,3.344828 -2.36789,6.541625 -5.90267,8.764565 -13.70851,6.315896 -18.21288,6.704485 -5.63221,0.485867 -6.4512,4.519315 -10.10651,8.232989 -2.44011,1.293738 -4.5186,1.5038 0.2114,1.754328 4.72992,0.250528 4.6026,-0.404455 3.73921,0.972783 -0.86356,1.37721 1.38363,1.03775 3.56602,1.62766 2.1822,0.58991 5.46395,1.3922 1.65497,1.66478 -3.80906,0.27259 -5.90002,0.79425 -2.43136,0.97797 3.46857,0.18375 -10.55947,-0.41305 -10.2524,-0.23868 3.75044,0.83107 9.39679,1.46613 11.28882,1.56635 1.89193,0.10017 4.66847,1.188 4.66847,1.188 0,3e-5 -7.10859,3.09 -2.64383,2.37783 4.46476,-0.71217 5.16634,-2.24421 9.26577,-2.02709 4.09933,0.21716 -3.22887,1.40611 -3.2287,1.40611 0,3e-5 2.01032,2.22152 6.29196,1.35702 1.4144,-0.66767 3.41906,-0.78783 0.28029,-0.0682 -0.0978,0.0224 -0.1847,0.0488 -0.28029,0.0682 -0.60502,0.28559 -1.1257,0.65646 -1.05612,1.13381 0.23173,1.59339 3.28528,3.64448 6.57225,1.28886 3.28687,-2.35564 1.60016,0.0848 1.60033,0.0848 -8e-5,-2e-5 -4.71781,2.12963 -7.71344,1.97097 -2.99563,-0.15865 -0.26277,2.04939 2.77477,1.41973 3.03736,-0.62964 8.7259,-3.32844 8.7259,-3.32844 0,0 -4.2286,4.83547 -6.77623,5.17485 -2.54763,0.33938 -4.00004,1.19134 -1.94197,1.14223 2.05798,-0.0492 7.57347,-2.76496 9.50723,-3.45307 1.93375,-0.68813 3.66424,-0.74666 3.66424,-0.74666 0,-3e-5 -4.14761,4.05317 -5.92373,4.74964 -1.7761,0.69648 -2.80403,1.89501 -0.40565,1.38961 2.39847,-0.5054 6.10002,-4.72054 6.89674,-4.83644 0.79664,-0.11593 -0.41247,5.02573 -1.71555,5.74726 -0.25622,0.1419 -0.45923,0.27874 -0.63031,0.40932 0.1351,0.0117 0.24863,0.0233 0.35711,0.0466 0.10461,0.0216 0.19036,0.039 0.27303,0.0698 0.0897,0.0333 0.14854,0.0797 0.21485,0.12206 0.0629,0.0385 0.11465,0.0745 0.15977,0.11913 0.0817,0.0809 0.14668,0.16442 0.18001,0.25856 0.0389,0.11173 0.0448,0.24545 0.0362,0.36161 -0.008,0.1004 -0.0404,0.17993 -0.0698,0.273 -0.002,0.009 0.001,0.0188 -10e-4,0.0275 -0.0979,0.29377 -0.24995,0.54015 -0.24995,0.54015 -1e-4,-1e-5 1.01723,-0.52339 2.43003,-1.47608 0.006,-0.004 0.0222,0.005 0.0275,10e-4 0.70238,-0.47439 1.49759,-1.07723 2.30669,-1.7593 0.27171,-0.22909 0.54023,-0.45286 0.81202,-0.70404 0.2718,-0.25119 0.55057,-0.51423 0.81644,-0.78683 0.52642,-0.54001 1.03579,-1.12638 1.50352,-1.74651 0.005,-0.006 -0.004,-0.0215 0.001,-0.0275 0.23572,-0.31345 0.4755,-0.62686 0.68726,-0.95969 0.42325,-0.66566 0.78894,-1.36173 1.07966,-2.10099 0.3533,-0.89846 0.67868,-1.84282 1.0059,-2.7966 0.92263,-3.00288 0.049,-0.0194 0.93474,-3.02173 1.19451,-4.63952 1.52784,-9.935126 -0.77151,-16.254793 -2.33897,-6.428294 -5.51834,-13.898116 -8.31202,-18.591019 z"
       style="color:#000000;display:inline;overflow:visible;visibility:visible;opacity:1;fill:#deaa87;fill-opacity:1;fill-rule:evenodd;stroke:#000000;stroke-width:0.176833;stroke-linecap:butt;stroke-linejoin:miter;stroke-miterlimit:4;stroke-dasharray:none;stroke-dashoffset:0;stroke-opacity:1;marker:none;marker-start:none;marker-mid:none;marker-end:none" />
    <path
       style="opacity:0.25;fill:#000000;fill-rule:evenodd;stroke:#000000;stroke-width:1.16753px;stroke-linecap:butt;stroke-linejoin:miter;stroke-opacity:1"
       d="m 170.00953,101.82318 c 2.72807,1.04309 4.4227,-0.43792 4.42268,-2.948436 -2.1249,-5.037313 -9.18769,-1.110156 -4.42268,2.948436 z"
       id="path6999"
       sodipodi:nodetypes="ccc" />
    <path
       sodipodi:nodetypes="ccc"
       id="path7001"
       d="m 174.45077,96.140299 c -1.59939,-2.443847 -3.84043,-2.236774 -5.31153,-0.202438 -1.22995,5.326999 6.79444,6.283429 5.31153,0.202438 z"
       style="opacity:0.25;fill:#000000;fill-rule:evenodd;stroke:#000000;stroke-width:1.16753px;stroke-linecap:butt;stroke-linejoin:miter;stroke-opacity:1" />
    <ellipse
       style="opacity:1;fill:#d38d5f;fill-opacity:1;stroke:#000000;stroke-width:0.116753;stroke-linecap:butt;stroke-miterlimit:4;stroke-dasharray:none;stroke-opacity:1"
       id="path5227"
       cx="171.5575"
       cy="98.285034"
       rx="3.3907223"
       ry="3.8329902" />
  </g>
</svg>
