<?xml version="1.0" encoding="UTF-8"?>
<svg xmlns="http://www.w3.org/2000/svg" xmlns:xlink="http://www.w3.org/1999/xlink" width="176.62724pt" height="278.28909pt" viewBox="0 0 176.62724 278.28909" version="1.1">
<g id="surface1">
<path style=" stroke:none;fill-rule:nonzero;fill:rgb(13.72549%,12.156863%,12.54902%);fill-opacity:1;" d="M 107.671875 5.601562 C 106.039062 14.132812 106.902344 22.371094 107.464844 31.113281 C 107.882812 33.730469 109.695312 35.484375 109.546875 38.097656 C 109.785156 38.84375 110.617188 39.707031 110.496094 40.359375 C 123.785156 45.324219 126.222656 64.238281 142.1875 63.582031 C 143.96875 64.058594 145.457031 65.425781 145.992188 67.179688 C 144.625 71.667969 144.800781 77.082031 140.492188 80.027344 C 139.214844 82.046875 139.421875 84.546875 136.746094 85.675781 C 131.246094 86.925781 124.5 84.425781 119.953125 88.53125 C 119.089844 89.273438 118.257812 90.582031 117.097656 90.222656 L 116.355469 89.273438 C 115.015625 90.078125 115.105469 92.039062 114.09375 93.019531 C 113.351562 93.464844 113.261719 92.277344 112.609375 92.484375 C 111.65625 92.929688 111.804688 95.132812 110.320312 94.179688 C 110.410156 93.882812 110.082031 93.792969 109.960938 93.613281 C 109.339844 95.160156 108.089844 95.964844 108.058594 97.777344 C 108.058594 98.667969 107.226562 100.425781 108.625 100.78125 C 108.625 103.101562 107.792969 107.261719 109.160156 109.820312 C 109.429688 114.757812 111.183594 119.367188 111.0625 124.359375 C 111.035156 126.472656 110.945312 129 112.191406 130.8125 C 111.777344 136.433594 115.078125 141.042969 115.222656 146.632812 C 118.078125 159.863281 112.996094 171.429688 111.0625 183.800781 C 110.109375 192.808594 110.378906 201.222656 111.449219 210.085938 C 111.867188 211.421875 112.042969 212.96875 112.757812 214.21875 C 115.285156 214.8125 117.871094 212.851562 120.515625 213.296875 C 121.914062 212.671875 123.488281 213.058594 124.855469 213.476562 C 124.558594 214.335938 122.953125 214.039062 122.597656 215.140625 C 128.871094 215.347656 135.4375 216.09375 141.445312 217.429688 C 141.738281 218.855469 143.730469 218.589844 144.832031 219.125 C 150.65625 221.355469 156.304688 223.882812 161.480469 227.628906 L 168.671875 234.617188 C 168.523438 235.152344 168.285156 235.71875 167.722656 235.777344 C 170.425781 238.570312 172.417969 242.320312 172.628906 246.125 C 171.554688 247.609375 170.011719 249.425781 169.980469 251.238281 C 169.773438 252.726562 168.40625 253.4375 167.335938 254.421875 C 161.804688 255.699219 156.605469 257.898438 151.074219 259.179688 C 148.132812 260.664062 144.683594 260.753906 141.652344 261.972656 C 140.996094 261.855469 140.492188 262.242188 139.957031 262.359375 L 139.957031 262.714844 C 138.796875 262.566406 138.796875 263.015625 138.054688 263.132812 L 134.101562 264.054688 L 134.277344 264.261719 C 133.269531 264.679688 132.613281 264.203125 131.632812 264.621094 C 124.203125 267.324219 115.757812 267.800781 107.851562 269.378906 C 108.503906 270.238281 110.617188 269.792969 110.109375 271.25 C 101.253906 271.785156 93.316406 275.742188 83.921875 273.71875 C 77.5 274.34375 71.167969 271.90625 64.867188 271.816406 C 63.648438 271.605469 62.460938 271.371094 61.476562 271.605469 L 64.480469 273.125 C 64.511719 274.015625 63.707031 274.042969 63.171875 273.71875 C 55.207031 272.589844 47.597656 270.746094 39.925781 268.8125 C 34.636719 266.910156 29.582031 264.410156 24.648438 261.824219 C 20.425781 259.625 16.59375 256.652344 12.550781 254.0625 C 8.65625 251 8.121094 246.035156 4.820312 242.734375 C 4.046875 235.417969 2.589844 226.289062 7.464844 220.078125 L 7.257812 219.542969 C 8.566406 217.015625 10.734375 214.8125 11.625 212.136719 C 14.925781 208.597656 19.445312 204.914062 22.210938 200.839844 C 21.941406 195.546875 25.480469 191.828125 25.957031 186.863281 C 27.53125 181.898438 31.484375 177.941406 34.25 173.453125 C 41.085938 163.582031 51.9375 157.871094 60.882812 150.40625 C 67.453125 144.816406 62.695312 135.273438 67.871094 129.117188 C 69.355469 124.628906 73.160156 121.179688 72.210938 115.707031 C 71.882812 112.378906 72.6875 108.542969 73.160156 105.121094 L 72.417969 104.765625 C 72.773438 102.058594 73.308594 99.414062 73.371094 96.617188 C 70.722656 96.113281 73.636719 94.0625 72.984375 92.484375 C 72.832031 90.582031 73.488281 87.847656 71.675781 87.191406 C 71.082031 86.625 71.585938 85.617188 70.871094 85.082031 C 70.546875 85.289062 70.425781 85.882812 69.921875 85.675781 C 68.316406 84.394531 70.128906 81.035156 67.691406 80.769531 C 67.957031 78.984375 67.957031 76.785156 67.871094 75.089844 C 67.632812 75.417969 67.277344 75.507812 66.917969 75.476562 L 66.917969 67.535156 L 66.53125 67.179688 L 66.738281 66.972656 C 65.34375 66.496094 65.519531 65.070312 65.226562 63.9375 C 64.300781 64.238281 64.601562 63.078125 64.273438 62.632812 C 64.273438 60.3125 64.152344 58.050781 64.480469 55.644531 C 63.53125 49.992188 62.28125 44.9375 63.320312 39.40625 C 63.441406 37.445312 63.769531 34.382812 64.660156 32.449219 C 66.085938 22.191406 74.351562 14.3125 81.664062 6.757812 C 82.96875 5.183594 85.261719 3.90625 87.101562 4.46875 C 88.320312 6.253906 87.90625 8.039062 88.230469 10.148438 C 89.363281 16.421875 90.996094 22.488281 92.78125 28.464844 C 93.671875 27.1875 93.226562 25.34375 93.878906 23.917969 C 96.496094 18.027344 99.140625 12.113281 102.5625 6.550781 C 103.839844 5.835938 105.117188 3.457031 106.722656 4.113281 L 107.671875 5.601562 "/>
<path style=" stroke:none;fill-rule:nonzero;fill:rgb(47.058824%,37.254902%,25.882353%);fill-opacity:1;" d="M 86.746094 8.808594 C 88.203125 15.738281 89.6875 23.648438 91.980469 30.753906 C 93.316406 34.886719 91.441406 38.664062 89.71875 42.054688 L 87.699219 44.136719 C 87.074219 43.542969 87.28125 42.144531 87.519531 41.3125 L 89.183594 37.148438 C 88.945312 33.222656 90.460938 30.21875 89.363281 26.355469 C 87.9375 19.960938 86.984375 13.332031 85.792969 6.757812 C 85.320312 6.34375 84.664062 5.925781 84.101562 6.371094 C 80.917969 12.648438 79.375 20.347656 79.582031 27.304688 C 81.605469 29.179688 79.640625 32.242188 80.503906 34.710938 C 82.40625 35.867188 81.039062 38.664062 82.761719 40.152344 C 82.824219 40.417969 82.644531 40.777344 82.96875 40.894531 C 83.269531 41.015625 83.355469 40.6875 83.566406 40.539062 L 83.566406 40.152344 C 85.410156 43.75 86.449219 47.972656 84.101562 51.6875 C 81.691406 50.351562 82.613281 54.007812 81.277344 54.902344 C 81.007812 56.058594 80.265625 57.367188 79.167969 57.933594 C 78.988281 57.664062 78.988281 57.339844 78.632812 57.1875 C 77.769531 56.894531 77.679688 57.84375 77.5 58.289062 L 75.421875 60.933594 C 75.09375 60.339844 75.390625 59.417969 74.46875 59.242188 L 73.90625 59.242188 C 72.773438 61.472656 71.824219 63.910156 69.5625 65.484375 C 69.238281 66.050781 68.820312 66.792969 68.078125 66.230469 C 66.949219 65.84375 67.898438 64.265625 66.53125 64.324219 C 66.679688 63.316406 66.503906 62.214844 65.226562 61.886719 C 64.570312 56.773438 65.878906 51.597656 64.125 46.960938 C 63.53125 34.886719 66.472656 22.398438 76.371094 13.71875 C 79.910156 10.832031 81.988281 6.582031 86.003906 5.214844 C 87.011719 6.34375 86.332031 7.441406 86.746094 8.808594 "/>
<path style=" stroke:none;fill-rule:nonzero;fill:rgb(36.078431%,30.588235%,24.313725%);fill-opacity:1;" d="M 106.515625 5.808594 C 105.859375 14.996094 106.066406 24.808594 107.109375 33.757812 C 107.972656 35.574219 107.734375 37.863281 108.804688 39.585938 C 106.246094 32.597656 105.980469 24.71875 105.414062 16.957031 L 105.773438 16.363281 C 105.773438 13.152344 106.664062 9.851562 105.773438 6.757812 C 100.867188 13.925781 101.90625 23.378906 101.253906 32.242188 L 102.027344 37.355469 C 99.410156 36.523438 96.496094 36.613281 93.878906 35.808594 C 94.417969 34.203125 92.898438 33.195312 93.671875 31.648438 C 94.59375 22.816406 98.84375 15.351562 103.125 7.859375 L 105.980469 5.214844 L 106.367188 6.015625 L 106.515625 5.808594 "/>
<path style=" stroke:none;fill-rule:nonzero;fill:rgb(79.215686%,33.72549%,49.019608%);fill-opacity:1;" d="M 85.378906 41.726562 L 86.03125 41.519531 L 85.792969 42.648438 L 85.378906 41.726562 "/>
<path style=" stroke:none;fill-rule:nonzero;fill:rgb(80%,35.686275%,49.803922%);fill-opacity:1;" d="M 86.03125 41.519531 L 85.378906 41.726562 L 84.636719 40.089844 L 86.835938 39.4375 C 86.65625 39.882812 86.449219 40.328125 86.210938 40.746094 L 86.03125 41.519531 "/>
<path style=" stroke:none;fill-rule:nonzero;fill:rgb(81.176471%,37.647059%,50.980392%);fill-opacity:1;" d="M 86.835938 39.4375 L 84.636719 40.089844 L 83.894531 38.484375 L 87.519531 37.386719 C 87.339844 38.097656 87.132812 38.785156 86.835938 39.4375 "/>
<path style=" stroke:none;fill-rule:nonzero;fill:rgb(81.960784%,39.607843%,52.156863%);fill-opacity:1;" d="M 87.519531 37.386719 L 83.894531 38.484375 L 83.566406 37.714844 C 83.296875 37.503906 83.089844 37.238281 82.96875 36.941406 L 87.9375 35.425781 C 87.847656 36.078125 87.699219 36.761719 87.519531 37.386719 "/>
<path style=" stroke:none;fill-rule:nonzero;fill:rgb(83.137255%,42.745098%,53.72549%);fill-opacity:1;" d="M 87.9375 35.425781 L 82.96875 36.941406 C 82.703125 36.433594 82.613281 35.839844 82.464844 35.246094 L 88.144531 33.519531 C 88.085938 34.144531 88.054688 34.800781 87.9375 35.425781 "/>
<path style=" stroke:none;fill-rule:nonzero;fill:rgb(83.921569%,44.705882%,54.901961%);fill-opacity:1;" d="M 88.144531 33.519531 L 82.464844 35.246094 C 82.316406 34.710938 82.109375 34.175781 81.664062 33.757812 C 81.664062 33.730469 81.664062 33.699219 81.664062 33.667969 L 88.230469 31.648438 C 88.230469 32.269531 88.203125 32.894531 88.144531 33.519531 "/>
<path style=" stroke:none;fill-rule:nonzero;fill:rgb(85.098039%,47.058824%,56.078431%);fill-opacity:1;" d="M 88.230469 31.648438 L 81.664062 33.667969 C 81.722656 33.042969 81.722656 32.421875 81.691406 31.828125 L 88.261719 29.804688 C 88.261719 30.398438 88.261719 31.023438 88.230469 31.648438 "/>
<path style=" stroke:none;fill-rule:nonzero;fill:rgb(85.882353%,49.019608%,57.254902%);fill-opacity:1;" d="M 88.261719 29.804688 L 81.691406 31.828125 C 81.691406 31.203125 81.632812 30.605469 81.574219 30.011719 L 88.230469 27.988281 C 88.261719 28.585938 88.261719 29.179688 88.261719 29.804688 "/>
<path style=" stroke:none;fill-rule:nonzero;fill:rgb(86.666667%,51.372549%,58.431373%);fill-opacity:1;" d="M 88.230469 27.988281 L 81.574219 30.011719 C 81.484375 29.417969 81.425781 28.851562 81.335938 28.257812 L 87.875 26.265625 C 87.996094 26.800781 88.113281 27.335938 88.230469 27.902344 C 88.230469 27.929688 88.230469 27.960938 88.230469 27.988281 "/>
<path style=" stroke:none;fill-rule:nonzero;fill:rgb(87.843137%,53.72549%,59.607843%);fill-opacity:1;" d="M 87.875 26.265625 L 81.335938 28.257812 C 81.246094 27.664062 81.15625 27.070312 81.097656 26.472656 L 87.519531 24.539062 C 87.636719 25.105469 87.757812 25.671875 87.875 26.265625 "/>
<path style=" stroke:none;fill-rule:nonzero;fill:rgb(88.627451%,55.686275%,60.784314%);fill-opacity:1;" d="M 87.519531 24.539062 L 81.097656 26.472656 C 81.007812 25.90625 80.949219 25.3125 80.917969 24.71875 L 87.164062 22.816406 C 87.28125 23.378906 87.398438 23.945312 87.519531 24.539062 "/>
<path style=" stroke:none;fill-rule:nonzero;fill:rgb(89.803922%,58.039216%,62.352941%);fill-opacity:1;" d="M 87.164062 22.816406 L 80.917969 24.71875 C 80.859375 24.09375 80.859375 23.5 80.859375 22.875 L 86.835938 21.0625 C 86.953125 21.65625 87.042969 22.222656 87.164062 22.816406 "/>
<path style=" stroke:none;fill-rule:nonzero;fill:rgb(91.372549%,61.176471%,63.921569%);fill-opacity:1;" d="M 86.835938 21.0625 L 80.859375 22.875 C 80.890625 22.25 80.949219 21.625 81.070312 20.972656 L 86.539062 19.308594 C 86.628906 19.902344 86.746094 20.46875 86.835938 21.0625 "/>
<path style=" stroke:none;fill-rule:nonzero;fill:rgb(91.764706%,62.745098%,64.705882%);fill-opacity:1;" d="M 86.539062 19.308594 L 81.070312 20.972656 C 81.128906 20.644531 81.1875 20.320312 81.277344 19.960938 C 81.335938 19.664062 81.394531 19.335938 81.425781 19.039062 L 86.242188 17.582031 C 86.332031 18.148438 86.417969 18.742188 86.539062 19.308594 "/>
<path style=" stroke:none;fill-rule:nonzero;fill:rgb(93.333333%,65.882353%,66.666667%);fill-opacity:1;" d="M 86.242188 17.582031 L 81.425781 19.039062 C 81.542969 18.386719 81.664062 17.730469 81.8125 17.078125 L 85.945312 15.828125 C 86.03125 16.394531 86.152344 16.988281 86.242188 17.582031 "/>
<path style=" stroke:none;fill-rule:nonzero;fill:rgb(94.509804%,68.235294%,67.843137%);fill-opacity:1;" d="M 85.945312 15.828125 L 81.8125 17.078125 C 81.960938 16.421875 82.109375 15.769531 82.257812 15.117188 L 85.675781 14.074219 C 85.765625 14.667969 85.855469 15.234375 85.945312 15.828125 "/>
<path style=" stroke:none;fill-rule:nonzero;fill:rgb(94.509804%,71.372549%,68.627451%);fill-opacity:1;" d="M 85.675781 14.074219 L 82.257812 15.117188 C 82.4375 14.429688 82.644531 13.746094 82.851562 13.09375 L 85.378906 12.320312 C 85.46875 12.914062 85.558594 13.480469 85.675781 14.074219 "/>
<path style=" stroke:none;fill-rule:nonzero;fill:rgb(96.470588%,74.509804%,70.588235%);fill-opacity:1;" d="M 85.378906 12.320312 L 82.851562 13.09375 C 83.0625 12.410156 83.296875 11.726562 83.566406 11.039062 L 85.050781 10.566406 C 85.171875 11.160156 85.261719 11.753906 85.378906 12.320312 "/>
<path style=" stroke:none;fill-rule:nonzero;fill:rgb(97.647059%,76.862745%,72.156863%);fill-opacity:1;" d="M 85.050781 10.566406 L 83.566406 11.039062 C 83.832031 10.328125 84.128906 9.613281 84.457031 8.929688 L 84.753906 8.839844 C 84.84375 9.433594 84.960938 10 85.050781 10.566406 "/>
<path style=" stroke:none;fill-rule:nonzero;fill:rgb(98.431373%,79.607843%,73.333333%);fill-opacity:1;" d="M 84.753906 8.839844 L 84.457031 8.929688 C 84.515625 8.78125 84.605469 8.601562 84.664062 8.453125 C 84.695312 8.574219 84.726562 8.722656 84.753906 8.839844 "/>
<path style=" stroke:none;fill-rule:nonzero;fill:rgb(65.490196%,40.784314%,43.921569%);fill-opacity:1;" d="M 103.214844 36.078125 L 106.929688 37.804688 C 106.992188 38.097656 107.050781 38.398438 107.109375 38.664062 C 106.066406 38.128906 104.167969 38.21875 103.335938 37.148438 C 103.304688 36.792969 103.246094 36.433594 103.214844 36.078125 "/>
<path style=" stroke:none;fill-rule:nonzero;fill:rgb(67.058824%,42.352941%,45.490196%);fill-opacity:1;" d="M 106.929688 37.804688 L 103.214844 36.078125 C 103.125 35.542969 103.066406 34.976562 103.007812 34.441406 L 106.605469 36.105469 C 106.722656 36.671875 106.839844 37.238281 106.929688 37.804688 "/>
<path style=" stroke:none;fill-rule:nonzero;fill:rgb(68.627451%,44.313725%,46.666667%);fill-opacity:1;" d="M 106.605469 36.105469 L 103.007812 34.441406 C 102.949219 33.90625 102.917969 33.371094 102.859375 32.808594 L 106.304688 34.414062 C 106.394531 34.976562 106.515625 35.542969 106.605469 36.105469 "/>
<path style=" stroke:none;fill-rule:nonzero;fill:rgb(70.588235%,45.882353%,48.235294%);fill-opacity:1;" d="M 106.304688 34.414062 L 102.859375 32.808594 C 102.828125 32.300781 102.769531 31.765625 102.738281 31.230469 L 105.980469 32.71875 C 106.097656 33.28125 106.1875 33.847656 106.304688 34.414062 "/>
<path style=" stroke:none;fill-rule:nonzero;fill:rgb(72.156863%,47.843137%,49.803922%);fill-opacity:1;" d="M 105.980469 32.71875 L 102.738281 31.230469 C 102.710938 30.695312 102.679688 30.160156 102.648438 29.625 L 105.710938 31.023438 C 105.800781 31.589844 105.890625 32.152344 105.980469 32.71875 "/>
<path style=" stroke:none;fill-rule:nonzero;fill:rgb(74.901961%,50.196078%,51.764706%);fill-opacity:1;" d="M 105.710938 31.023438 L 102.648438 29.625 C 102.648438 29.121094 102.621094 28.585938 102.621094 28.050781 L 105.414062 29.359375 C 105.503906 29.921875 105.59375 30.488281 105.710938 31.023438 "/>
<path style=" stroke:none;fill-rule:nonzero;fill:rgb(76.470588%,52.156863%,53.333333%);fill-opacity:1;" d="M 105.414062 29.359375 L 102.621094 28.050781 C 102.621094 27.542969 102.589844 27.007812 102.621094 26.503906 L 105.175781 27.691406 C 105.265625 28.257812 105.355469 28.792969 105.414062 29.359375 "/>
<path style=" stroke:none;fill-rule:nonzero;fill:rgb(77.647059%,54.509804%,54.509804%);fill-opacity:1;" d="M 105.175781 27.691406 L 102.621094 26.503906 C 102.621094 25.996094 102.621094 25.464844 102.621094 24.957031 L 104.96875 26.027344 C 105.027344 26.59375 105.117188 27.128906 105.175781 27.691406 "/>
<path style=" stroke:none;fill-rule:nonzero;fill:rgb(80%,56.078431%,56.470588%);fill-opacity:1;" d="M 104.96875 26.027344 L 102.621094 24.957031 C 102.648438 24.453125 102.679688 23.945312 102.679688 23.441406 L 104.789062 24.390625 C 104.847656 24.957031 104.910156 25.492188 104.96875 26.027344 "/>
<path style=" stroke:none;fill-rule:nonzero;fill:rgb(81.960784%,59.215686%,58.431373%);fill-opacity:1;" d="M 104.789062 24.390625 L 102.679688 23.441406 C 102.710938 22.933594 102.769531 22.429688 102.796875 21.925781 L 104.640625 22.785156 C 104.671875 23.320312 104.730469 23.855469 104.789062 24.390625 "/>
<path style=" stroke:none;fill-rule:nonzero;fill:rgb(83.529412%,60.392157%,59.607843%);fill-opacity:1;" d="M 104.640625 22.785156 L 102.796875 21.925781 C 102.828125 21.449219 102.886719 20.941406 102.917969 20.4375 L 104.523438 21.179688 C 104.554688 21.714844 104.582031 22.25 104.640625 22.785156 "/>
<path style=" stroke:none;fill-rule:nonzero;fill:rgb(85.490196%,63.137255%,61.568627%);fill-opacity:1;" d="M 104.523438 21.179688 L 102.917969 20.4375 C 102.976562 19.960938 103.035156 19.457031 103.097656 18.980469 L 104.464844 19.605469 C 104.464844 20.140625 104.492188 20.644531 104.523438 21.179688 "/>
<path style=" stroke:none;fill-rule:nonzero;fill:rgb(87.058824%,65.490196%,63.137255%);fill-opacity:1;" d="M 104.464844 19.605469 L 103.097656 18.980469 C 103.183594 18.503906 103.246094 18 103.335938 17.523438 L 104.433594 18.027344 C 104.433594 18.5625 104.433594 19.070312 104.464844 19.605469 "/>
<path style=" stroke:none;fill-rule:nonzero;fill:rgb(89.019608%,67.45098%,64.705882%);fill-opacity:1;" d="M 104.433594 18.027344 L 103.335938 17.523438 C 103.394531 17.046875 103.484375 16.570312 103.570312 16.097656 L 104.464844 16.511719 C 104.433594 17.019531 104.433594 17.523438 104.433594 18.027344 "/>
<path style=" stroke:none;fill-rule:nonzero;fill:rgb(90.588235%,69.803922%,66.27451%);fill-opacity:1;" d="M 104.464844 16.511719 L 103.570312 16.097656 C 103.660156 15.621094 103.78125 15.144531 103.867188 14.667969 L 104.523438 14.996094 C 104.492188 15.503906 104.464844 16.007812 104.464844 16.511719 "/>
<path style=" stroke:none;fill-rule:nonzero;fill:rgb(92.54902%,72.156863%,67.843137%);fill-opacity:1;" d="M 104.523438 14.996094 L 103.867188 14.667969 C 103.988281 14.222656 104.078125 13.746094 104.195312 13.300781 L 104.640625 13.480469 C 104.613281 13.984375 104.554688 14.492188 104.523438 14.996094 "/>
<path style=" stroke:none;fill-rule:nonzero;fill:rgb(94.901961%,74.901961%,70.196078%);fill-opacity:1;" d="M 104.640625 13.480469 L 104.195312 13.300781 C 104.316406 12.824219 104.464844 12.378906 104.582031 11.902344 L 104.847656 12.023438 C 104.761719 12.527344 104.703125 13.003906 104.640625 13.480469 "/>
<path style=" stroke:none;fill-rule:nonzero;fill:rgb(96.862745%,77.254902%,71.764706%);fill-opacity:1;" d="M 104.847656 12.023438 L 104.582031 11.902344 C 104.730469 11.457031 104.847656 11.011719 105 10.566406 L 105.085938 10.59375 C 105 11.070312 104.910156 11.546875 104.847656 12.023438 "/>
<path style=" stroke:none;fill-rule:nonzero;fill:rgb(98.431373%,79.607843%,73.333333%);fill-opacity:1;" d="M 105.085938 10.59375 L 105 10.566406 C 105.058594 10.355469 105.148438 10.179688 105.207031 9.96875 C 105.148438 10.179688 105.117188 10.386719 105.085938 10.59375 "/>
<path style=" stroke:none;fill-rule:nonzero;fill:rgb(97.254902%,61.176471%,20.784314%);fill-opacity:1;" d="M 106.160156 39.792969 C 116.5625 42.351562 121.644531 52.730469 128.601562 59.984375 C 131.246094 62.183594 134.398438 63.257812 137.488281 64.324219 C 134.902344 64.476562 131.960938 64.265625 129.761719 62.988281 C 125.359375 62.929688 122.300781 59.867188 119 57.933594 C 114.125 53.621094 106.902344 52.671875 100.511719 54.335938 C 95.78125 57.84375 89.898438 59.480469 85.050781 62.988281 L 84.664062 63.789062 C 81.574219 65.515625 78.421875 68.457031 76.9375 71.699219 C 77.027344 73.8125 75.421875 75.714844 74.675781 77.734375 C 74.558594 78.597656 73.964844 79.667969 74.675781 80.382812 C 75.628906 80.828125 75.835938 79.519531 76.550781 79.429688 C 76.816406 81.007812 74.4375 83.742188 76.371094 84.933594 L 76.757812 84.546875 C 75.835938 87.042969 75.183594 89.628906 74.113281 92.070312 C 74.46875 89.332031 73.398438 86.777344 72.984375 84.128906 C 71.199219 84.484375 73.398438 81.15625 71.082031 81.511719 L 70.335938 83.027344 L 70.335938 78.480469 C 70.011719 78.183594 69.714844 77.734375 69.175781 77.945312 L 69.03125 78.121094 C 68.941406 76.339844 70.011719 73.871094 68.820312 72.085938 L 68.078125 72.085938 C 67.632812 70.570312 67.988281 68.933594 68.433594 67.535156 C 71.347656 67.300781 73.101562 64.445312 74.113281 62.035156 C 74.171875 62.421875 74.558594 62.957031 75.0625 62.839844 C 77.324219 62.332031 77.414062 58.378906 79.96875 59.03125 C 81.960938 57.664062 82.226562 55.285156 83.355469 53.382812 C 85.675781 53.292969 86.003906 50.675781 86.566406 49.042969 C 86.6875 47.585938 86.0625 44.789062 88.410156 45.296875 C 89.363281 44.402344 91.175781 43.304688 91.054688 42.054688 C 92.78125 40.863281 92.125 38.992188 93.316406 37.503906 C 97.984375 37.265625 101.789062 39.347656 106.160156 39.792969 "/>
<path style=" stroke:none;fill-rule:nonzero;fill:rgb(13.72549%,12.156863%,12.54902%);fill-opacity:1;" d="M 104.078125 46.394531 C 104.34375 45.980469 104.34375 46.070312 104.671875 46.394531 C 104.761719 47.378906 103.484375 46.070312 102.949219 46.605469 L 101.460938 45.832031 C 102.265625 46.691406 103.273438 45.445312 104.078125 46.394531 "/>
<path style=" stroke:none;fill-rule:nonzero;fill:rgb(13.72549%,12.156863%,12.54902%);fill-opacity:1;" d="M 108.058594 47.527344 C 108.089844 47.347656 107.972656 47.257812 107.851562 47.140625 L 108.417969 47.703125 L 108.210938 47.703125 C 107.761719 48.417969 109.042969 48.507812 109.160156 49.042969 C 109.277344 48.953125 109.429688 48.832031 109.367188 48.65625 L 109.160156 48.449219 L 110.496094 49.785156 L 110.707031 49.605469 C 110.707031 49.367188 111.359375 50.738281 111.804688 50.144531 L 112.609375 50.945312 L 112.757812 50.738281 C 113.410156 51.421875 113.828125 52.433594 114.453125 52.996094 C 114.777344 52.433594 113.917969 51.984375 113.917969 51.300781 L 115.402344 53.949219 L 115.402344 53.382812 L 116.355469 54.691406 L 116.5625 54.542969 L 117.097656 55.078125 C 115.105469 54.75 112.609375 51.273438 109.960938 49.605469 L 109.753906 49.785156 C 109.011719 49.605469 108.503906 48.089844 107.671875 48.65625 C 107.140625 47.675781 105.652344 47.4375 105.207031 46.605469 C 106.160156 46.367188 107.109375 47.765625 108.058594 47.527344 "/>
<path style=" stroke:none;fill-rule:nonzero;fill:rgb(13.72549%,12.156863%,12.54902%);fill-opacity:1;" d="M 118.40625 56.980469 C 117.988281 56.445312 117.066406 56.507812 117.097656 55.644531 C 118.078125 55.523438 117.988281 57.101562 118.40625 56.980469 "/>
<path style=" stroke:none;fill-rule:nonzero;fill:rgb(100%,100%,100%);fill-opacity:1;" d="M 109.367188 56.238281 C 109.070312 57.636719 109.070312 58.734375 109.367188 60.191406 C 105.859375 58.707031 102.265625 57.574219 98.222656 57.546875 C 101.460938 55.703125 105.414062 55.523438 109.367188 56.238281 "/>
<path style=" stroke:none;fill-rule:nonzero;fill:rgb(65.882353%,74.509804%,35.686275%);fill-opacity:1;" d="M 111.035156 56.773438 L 110.585938 57.128906 C 110.707031 56.953125 110.824219 56.832031 111.035156 56.773438 "/>
<path style=" stroke:none;fill-rule:nonzero;fill:rgb(65.882353%,74.509804%,35.686275%);fill-opacity:1;" d="M 110.585938 57.128906 L 111.035156 56.773438 L 111.0625 56.773438 C 111.035156 56.980469 111.0625 57.160156 111.0625 57.339844 L 110.347656 57.933594 C 110.378906 57.636719 110.4375 57.339844 110.585938 57.128906 "/>
<path style=" stroke:none;fill-rule:nonzero;fill:rgb(65.882353%,74.509804%,35.686275%);fill-opacity:1;" d="M 110.347656 57.933594 L 111.0625 57.339844 C 111.09375 57.515625 111.152344 57.695312 111.210938 57.84375 L 110.320312 58.558594 C 110.320312 58.347656 110.320312 58.140625 110.347656 57.933594 "/>
<path style=" stroke:none;fill-rule:nonzero;fill:rgb(65.882353%,74.509804%,35.686275%);fill-opacity:1;" d="M 110.320312 58.558594 L 111.210938 57.84375 C 111.269531 57.992188 111.359375 58.140625 111.449219 58.261719 L 110.347656 59.152344 C 110.320312 59.121094 110.320312 59.0625 110.320312 59.03125 C 110.320312 58.882812 110.320312 58.734375 110.320312 58.558594 "/>
<path style=" stroke:none;fill-rule:nonzero;fill:rgb(65.882353%,74.509804%,35.686275%);fill-opacity:1;" d="M 110.347656 59.152344 L 111.449219 58.261719 C 111.539062 58.378906 111.65625 58.496094 111.746094 58.617188 L 110.46875 59.65625 C 110.410156 59.507812 110.378906 59.332031 110.347656 59.152344 "/>
<path style=" stroke:none;fill-rule:nonzero;fill:rgb(65.882353%,74.509804%,35.686275%);fill-opacity:1;" d="M 110.46875 59.65625 L 111.746094 58.617188 C 111.867188 58.734375 111.984375 58.824219 112.132812 58.945312 L 110.648438 60.105469 C 110.585938 59.953125 110.527344 59.804688 110.46875 59.65625 "/>
<path style=" stroke:none;fill-rule:nonzero;fill:rgb(65.882353%,74.509804%,35.686275%);fill-opacity:1;" d="M 110.648438 60.105469 L 112.132812 58.945312 C 112.253906 59.03125 112.371094 59.121094 112.519531 59.242188 L 110.914062 60.492188 C 110.824219 60.371094 110.734375 60.253906 110.648438 60.105469 "/>
<path style=" stroke:none;fill-rule:nonzero;fill:rgb(65.882353%,74.509804%,35.686275%);fill-opacity:1;" d="M 110.914062 60.492188 L 112.519531 59.242188 C 112.636719 59.332031 112.757812 59.417969 112.90625 59.507812 L 111.269531 60.816406 C 111.152344 60.726562 111.035156 60.609375 110.914062 60.492188 "/>
<path style=" stroke:none;fill-rule:nonzero;fill:rgb(65.882353%,74.509804%,35.686275%);fill-opacity:1;" d="M 111.269531 60.816406 L 112.90625 59.507812 C 113.023438 59.628906 113.171875 59.71875 113.292969 59.804688 L 111.714844 61.085938 C 111.566406 60.996094 111.417969 60.90625 111.269531 60.816406 "/>
<path style=" stroke:none;fill-rule:nonzero;fill:rgb(69.019608%,76.862745%,40%);fill-opacity:1;" d="M 111.714844 61.085938 L 113.292969 59.804688 C 113.410156 59.925781 113.53125 60.015625 113.648438 60.132812 L 112.222656 61.265625 C 112.042969 61.234375 111.867188 61.144531 111.714844 61.085938 "/>
<path style=" stroke:none;fill-rule:nonzero;fill:rgb(71.372549%,78.431373%,44.313725%);fill-opacity:1;" d="M 112.222656 61.265625 L 113.648438 60.132812 C 113.765625 60.253906 113.859375 60.371094 113.976562 60.492188 L 112.785156 61.410156 C 112.609375 61.382812 112.402344 61.320312 112.222656 61.265625 "/>
<path style=" stroke:none;fill-rule:nonzero;fill:rgb(73.72549%,80.784314%,49.019608%);fill-opacity:1;" d="M 112.785156 61.410156 L 113.976562 60.492188 C 114.066406 60.609375 114.152344 60.726562 114.242188 60.878906 L 113.410156 61.53125 C 113.203125 61.5 112.996094 61.472656 112.785156 61.410156 "/>
<path style=" stroke:none;fill-rule:nonzero;fill:rgb(77.254902%,83.137255%,54.117647%);fill-opacity:1;" d="M 113.410156 61.53125 L 114.242188 60.878906 C 114.273438 60.878906 114.273438 60.90625 114.273438 60.933594 C 114.511719 60.878906 114.777344 60.847656 115.046875 60.816406 L 114.066406 61.621094 C 113.859375 61.589844 113.648438 61.558594 113.410156 61.53125 "/>
<path style=" stroke:none;fill-rule:nonzero;fill:rgb(78.823529%,84.313725%,58.823529%);fill-opacity:1;" d="M 114.066406 61.621094 L 115.046875 60.816406 C 115.34375 60.789062 115.671875 60.757812 115.96875 60.726562 L 114.75 61.679688 C 114.511719 61.648438 114.304688 61.648438 114.066406 61.621094 "/>
<path style=" stroke:none;fill-rule:nonzero;fill:rgb(81.960784%,87.058824%,64.313725%);fill-opacity:1;" d="M 114.75 61.679688 L 115.96875 60.726562 C 116.414062 60.640625 116.859375 60.519531 117.214844 60.3125 L 115.371094 61.796875 C 115.164062 61.738281 114.957031 61.707031 114.75 61.679688 Z M 118.136719 59.597656 L 117.542969 60.042969 C 117.691406 59.894531 117.808594 59.65625 117.871094 59.417969 C 117.929688 59.507812 118.019531 59.566406 118.136719 59.597656 "/>
<path style=" stroke:none;fill-rule:nonzero;fill:rgb(84.705882%,88.627451%,69.411765%);fill-opacity:1;" d="M 115.371094 61.796875 L 117.214844 60.3125 C 117.335938 60.253906 117.453125 60.164062 117.542969 60.042969 L 118.136719 59.597656 C 118.316406 59.65625 118.554688 59.597656 118.734375 59.6875 L 116.027344 61.886719 C 115.9375 61.886719 115.847656 61.886719 115.757812 61.886719 C 115.640625 61.859375 115.523438 61.828125 115.371094 61.796875 "/>
<path style=" stroke:none;fill-rule:nonzero;fill:rgb(87.45098%,90.588235%,75.294118%);fill-opacity:1;" d="M 116.027344 61.886719 L 118.734375 59.6875 C 118.851562 59.746094 118.941406 59.835938 119 59.984375 C 118.96875 60.042969 118.941406 60.105469 118.910156 60.164062 L 116.917969 61.769531 C 116.652344 61.828125 116.355469 61.859375 116.027344 61.886719 "/>
<path style=" stroke:none;fill-rule:nonzero;fill:rgb(90.980392%,93.333333%,81.176471%);fill-opacity:1;" d="M 116.917969 61.769531 L 118.910156 60.164062 C 118.496094 61.113281 117.808594 61.558594 116.917969 61.769531 "/>
<path style=" stroke:none;fill-rule:nonzero;fill:rgb(100%,100%,100%);fill-opacity:1;" d="M 113.707031 57.339844 C 114.035156 58.050781 113.261719 58.199219 112.757812 58.082031 C 112.253906 58.289062 111.984375 57.84375 111.65625 57.546875 C 111.597656 57.101562 111.6875 56.980469 112.015625 56.773438 C 112.667969 56.714844 113.472656 56.773438 113.707031 57.339844 "/>
<path style=" stroke:none;fill-rule:nonzero;fill:rgb(94.117647%,93.72549%,93.72549%);fill-opacity:1;" d="M 111.269531 62.035156 C 111.480469 62.570312 112.253906 62.570312 112.757812 62.839844 C 114.777344 62.839844 116.5625 63.523438 118.40625 63.789062 C 120.960938 63.9375 124.320312 63.285156 126.757812 64.324219 C 130.710938 64.207031 133.804688 66.792969 137.875 65.84375 C 138.320312 66.644531 138.46875 67.597656 139.183594 68.28125 C 141.414062 69.113281 142.691406 71.105469 142.78125 73.394531 C 142.722656 76.339844 140.34375 79.105469 137.875 80.175781 C 130.921875 81.421875 124.203125 80.382812 118.046875 84.722656 C 119.117188 86.449219 120.695312 83.953125 122.210938 83.980469 L 128.066406 82.464844 C 131.21875 82.613281 134.605469 82.253906 137.875 82.078125 C 138.351562 83.355469 137.164062 84.277344 136.183594 84.933594 C 131.425781 85.4375 125.777344 83.652344 121.851562 86.417969 C 120.070312 86.089844 119 87.726562 117.871094 88.53125 C 117.246094 88.113281 117.066406 87.074219 115.96875 87.371094 C 114.984375 88.410156 114.035156 89.390625 113.917969 90.757812 C 112.667969 89.929688 111.984375 91.503906 111.0625 91.917969 L 110.855469 92.484375 C 110.171875 91.742188 108.953125 91.832031 108.058594 92.070312 C 106.304688 93.734375 103.394531 95.695312 104.253906 98.132812 C 105.414062 97.035156 105.742188 95.636719 107.316406 94.714844 C 106.1875 99.503906 107.734375 103.457031 107.464844 108.332031 C 107.972656 109.34375 107.734375 110.414062 108.058594 111.722656 C 109.636719 117.105469 109.695312 122.992188 110.109375 128.167969 C 109.042969 129.238281 110.527344 130.1875 110.320312 131.347656 L 110.855469 131.914062 C 111.6875 139.078125 114.691406 145.441406 114.273438 152.875 C 116.058594 163.582031 110.855469 172.828125 109.753906 183.054688 C 108.296875 190.222656 109.339844 198.636719 109.546875 205.535156 C 110.023438 207.765625 110.199219 210.324219 110.109375 212.523438 C 111.480469 212.671875 109.816406 213.800781 110.855469 214.21875 C 110.496094 214.695312 109.695312 214.8125 109.011719 214.992188 C 108.328125 214.8125 110.410156 214.457031 109.546875 213.65625 C 108.714844 212.226562 106.722656 212.226562 105.414062 212.523438 C 105.355469 211.15625 104.226562 209.550781 104.671875 208.003906 C 103.808594 207.351562 104.015625 205.742188 103.71875 204.585938 C 104.046875 203.453125 105.445312 202.324219 104.671875 201.195312 L 103.867188 201.582031 C 105.085938 200.214844 103.867188 198.339844 104.820312 197.238281 C 104.464844 196.199219 106.367188 195.367188 105.5625 194.207031 C 104.671875 195.695312 103.691406 197.152344 102.949219 198.757812 C 102.738281 196.972656 104.136719 195.695312 103.867188 194.207031 C 103.484375 194.683594 103.484375 195.277344 102.949219 195.695312 C 102.738281 195.335938 104.253906 193.554688 103.71875 192.304688 C 102.859375 192.691406 102.472656 193.554688 102.382812 194.386719 C 102.441406 192.363281 103.691406 190.015625 104.253906 187.785156 C 104.167969 187.578125 103.867188 187.605469 103.71875 187.605469 C 103.867188 186.863281 103.125 186.566406 103.125 185.910156 L 102.203125 187.042969 C 102.589844 185.703125 103.511719 184.542969 103.71875 183.054688 L 102.949219 182.90625 C 103.484375 181.957031 103.542969 180.796875 104.464844 180.054688 C 104.226562 179.816406 104.226562 179.457031 103.867188 179.308594 L 102.949219 180.410156 C 103.542969 178.449219 104.703125 176.664062 105.5625 174.761719 C 105.355469 174.402344 105 174.34375 104.671875 174.550781 L 104.078125 175.503906 C 104.226562 175 104.582031 174.550781 104.671875 174.019531 L 104.078125 173.453125 C 105 171.878906 105.355469 170.152344 106.160156 168.515625 L 105.773438 168.160156 C 103.484375 171.550781 101.105469 175.207031 100.511719 179.457031 C 99.410156 179.308594 100.242188 177.617188 99.765625 176.84375 C 98.964844 177.527344 99.617188 178.804688 99.171875 179.667969 C 98.429688 189.0625 100.210938 199.261719 102.027344 207.796875 C 101.847656 209.878906 103.097656 211.808594 102.382812 213.65625 C 101.460938 214.128906 100.539062 213.742188 100.300781 212.730469 C 98.308594 201.609375 94.148438 191.5 92.574219 180.261719 C 92.246094 179.816406 91.828125 179.609375 91.234375 179.667969 C 89.898438 176.011719 89.390625 172.023438 88.054688 168.308594 C 87.609375 168.277344 86.984375 168.367188 86.953125 168.902344 C 85.707031 167.179688 85.617188 163.816406 83.921875 161.707031 C 82.078125 162.125 82.824219 159.746094 81.8125 158.914062 C 81.394531 156.683594 81.246094 154.363281 80.503906 152.3125 C 79.464844 152.132812 80.085938 151.03125 79.375 150.617188 C 78.035156 143.507812 75.332031 136.847656 74.113281 129.863281 C 72.328125 128.375 73.636719 125.699219 72.984375 123.40625 C 73.785156 116.390625 72.832031 109.582031 74.46875 102.65625 C 73.308594 101.730469 74.351562 100.007812 74.320312 98.667969 C 74.707031 94.832031 75.449219 91.085938 77.5 87.933594 C 77.351562 90.640625 80.59375 91.621094 81.277344 93.792969 C 81.902344 94.507812 82.613281 95.875 83.714844 95.667969 C 83.625 93.464844 80.832031 91.382812 79.375 89.273438 C 78.183594 87.25 78.394531 84.632812 79.167969 82.464844 C 78.691406 82.046875 77.949219 81.660156 77.324219 82.078125 C 77.738281 80.382812 78.480469 78.804688 79.019531 77.171875 C 77.859375 76.128906 77.113281 78.183594 76.015625 78.332031 C 76.371094 75.296875 79.34375 72.207031 81.457031 69.828125 C 80.710938 69.082031 79.851562 70.363281 79.019531 70.570312 C 80.414062 67.628906 84.664062 64.863281 88.054688 63.375 C 89.808594 60.550781 93.316406 59.65625 96.316406 58.675781 C 101.609375 57.875 106.367188 60.726562 111.269531 62.035156 "/>
<path style=" stroke:none;fill-rule:nonzero;fill:rgb(100%,100%,100%);fill-opacity:1;" d="M 143.730469 65.277344 C 143.820312 65.84375 143.613281 66.257812 143.136719 66.585938 C 141.976562 66.289062 140.671875 66.4375 139.539062 65.84375 C 139.066406 64.625 140.550781 65.097656 141.085938 64.683594 C 142.066406 64.652344 143.019531 64.742188 143.730469 65.277344 "/>
<path style=" stroke:none;fill-rule:nonzero;fill:rgb(13.72549%,12.156863%,12.54902%);fill-opacity:1;" d="M 136.539062 69.441406 L 136.539062 69.828125 L 136.183594 69.230469 C 136.390625 69.203125 136.449219 69.351562 136.539062 69.441406 "/>
<path style=" stroke:none;fill-rule:nonzero;fill:rgb(13.72549%,12.156863%,12.54902%);fill-opacity:1;" d="M 85.617188 94.714844 C 85.792969 94.179688 85.527344 93.140625 86.359375 93.019531 C 87.011719 94.507812 87.726562 95.964844 88.976562 97.183594 C 87.847656 97.867188 87.699219 96.171875 86.746094 95.667969 C 86.65625 95.964844 86.210938 96.824219 85.792969 96.230469 C 84.339844 95.28125 83.921875 93.554688 83.355469 92.070312 C 85.261719 91.652344 84.308594 94.269531 85.617188 94.714844 "/>
<path style=" stroke:none;fill-rule:nonzero;fill:rgb(13.72549%,12.156863%,12.54902%);fill-opacity:1;" d="M 97.121094 97.183594 C 95.21875 98.132812 95.25 95.546875 94.265625 94.714844 L 94.265625 94.179688 C 95.21875 95.160156 95.78125 96.320312 97.121094 97.183594 "/>
<path style=" stroke:none;fill-rule:nonzero;fill:rgb(13.72549%,12.156863%,12.54902%);fill-opacity:1;" d="M 91.980469 95.875 L 94.089844 97.925781 C 93.820312 98.433594 93.820312 98.519531 93.878906 99.085938 C 92.898438 97.777344 90.699219 96.527344 90.671875 94.535156 C 91.710938 94.0625 91.828125 95.28125 91.980469 95.875 "/>
<path style=" stroke:none;fill-rule:nonzero;fill:rgb(13.72549%,12.156863%,12.54902%);fill-opacity:1;" d="M 89.570312 95.488281 L 90.671875 97.359375 L 89.570312 95.488281 "/>
<path style=" stroke:none;fill-rule:nonzero;fill:rgb(97.254902%,61.176471%,20.784314%);fill-opacity:1;" d="M 72.417969 130.425781 L 73.371094 135.511719 C 75.003906 136.550781 74.050781 139.289062 74.855469 141.011719 C 76.34375 142.855469 76.609375 145.472656 77.5 147.761719 C 78.78125 149.335938 78.839844 151.714844 79.375 153.796875 C 80.742188 157.097656 81.246094 160.816406 82.40625 164.203125 C 82.703125 164.472656 83.355469 164.472656 83.566406 164.355469 C 84.726562 166.644531 85.734375 169.230469 86.746094 171.757812 C 87.101562 171.699219 87.339844 172.5 87.699219 171.90625 C 89.835938 175.296875 89.390625 180.082031 91.054688 183.800781 C 91.382812 183.980469 91.59375 183.652344 91.828125 183.445312 C 92.15625 185.019531 92.691406 186.445312 92.78125 188.203125 C 94.890625 196.945312 97.894531 205.566406 99.378906 214.398438 C 98.101562 214.753906 96.734375 215.082031 95.78125 215.734375 C 95.335938 215.320312 95.78125 214.785156 95.960938 214.398438 C 93.761719 213.296875 89.214844 217.785156 89.363281 212.730469 L 88.230469 207.054688 C 85.707031 201.910156 85.707031 195.78125 83.148438 190.609375 C 83.59375 190.015625 83.238281 189.269531 82.761719 188.734375 L 82.019531 188.351562 L 81.8125 181.003906 C 80.414062 180.410156 82.289062 179.191406 80.710938 178.714844 C 80.625 176.542969 79.640625 174.640625 78.066406 173.246094 C 78.480469 174.851562 78.394531 176.457031 79.167969 178.148438 C 80.296875 183.742188 75.390625 187.992188 71.824219 191.949219 C 71.734375 192.511719 71.734375 192.601562 72.03125 193.046875 L 72.210938 193.046875 C 71.40625 194.535156 70.25 196.019531 69.175781 197.238281 C 71.257812 198.132812 69.445312 199.261719 69.175781 200.453125 C 69.058594 201.910156 67.839844 203.542969 68.820312 204.792969 C 69.59375 208.183594 67.277344 211.039062 67.125 214.039062 C 66.890625 216.152344 65.433594 217.785156 65.046875 219.898438 L 64.125 220.285156 C 63.976562 219.867188 64.242188 218.707031 64.480469 217.996094 C 61.390625 218.261719 58.65625 220.402344 55.59375 221.238281 C 53.363281 221.355469 51.402344 222.664062 49.378906 222.722656 L 48.992188 222.335938 C 43.226562 223.199219 36.242188 224.238281 31.246094 221.027344 C 30.679688 220.3125 29.226562 220.195312 29.550781 218.945312 C 28.363281 217.996094 25.925781 217.964844 26.34375 215.734375 L 26.550781 215.527344 L 25.390625 214.398438 C 24.378906 214.8125 26.015625 215.347656 25.210938 215.941406 C 26.042969 218.320312 27.292969 220.761719 30.117188 221.238281 C 34.753906 225.398438 41.5625 224.269531 47.476562 223.675781 C 48.753906 224.746094 50.746094 224.058594 52.027344 223.496094 C 55.683594 222.574219 59.039062 220.851562 62.578125 219.542969 C 62.28125 220.226562 62.339844 221.058594 62.964844 221.59375 C 65.640625 221.386719 67.78125 219.777344 70.335938 219.332031 C 71.199219 218.796875 72.359375 218.796875 73.371094 218.589844 C 74.378906 217.875 75.628906 217.667969 76.757812 217.253906 C 76.875 218.113281 75.539062 220.015625 77.113281 220.640625 C 79.375 220.226562 81.277344 218.410156 83.566406 218.589844 C 86.269531 217.339844 89.808594 217.253906 92.574219 215.734375 L 94.265625 215.527344 C 94.207031 216.390625 93.523438 216.984375 93.523438 217.785156 L 94.089844 218.203125 C 97.328125 215.554688 101.9375 215.554688 105.414062 213.832031 C 106.367188 213.503906 107.761719 213.714844 108.625 213.65625 C 107.671875 214.039062 107.347656 214.992188 107.316406 215.941406 C 107.972656 217.101562 109.042969 216.0625 109.960938 216.09375 C 113.621094 214.960938 117.871094 214.574219 121.644531 214.21875 C 121.140625 214.574219 121.140625 215.109375 120.902344 215.527344 C 123.785156 217.253906 128.273438 216.152344 131.457031 216.835938 C 133.59375 217.3125 135.914062 217.3125 138.054688 217.785156 C 136.984375 218.46875 137.25 219.898438 137.488281 220.851562 C 135.675781 220.730469 134.160156 222.21875 133.148438 223.882812 C 133.03125 224.953125 133.566406 226.351562 132.050781 226.289062 C 129.820312 227.71875 129.523438 229.949219 129.195312 232.179688 C 131.1875 233.992188 127.589844 234.945312 127.5 236.875 C 127.113281 238.484375 128.007812 239.613281 128.601562 240.832031 C 127.085938 242.109375 126.253906 243.984375 126.90625 245.976562 C 127.738281 247.402344 131.457031 248.859375 129.761719 250.675781 C 129.226562 251.921875 130.890625 252.398438 131.246094 253.113281 C 132.050781 253.675781 133.804688 254.390625 133.359375 255.371094 C 132.050781 257.601562 135.4375 259.207031 136.746094 260.484375 L 138.648438 261.230469 C 137.042969 262.804688 134.101562 262.03125 132.199219 263.3125 C 124.765625 266.402344 116.234375 266.730469 108.058594 268.066406 C 107.140625 268.632812 105.207031 267.535156 105.027344 268.960938 L 107.671875 270.507812 C 103.71875 271.101562 99.765625 272.351562 95.78125 272.378906 C 89.957031 274.136719 83.804688 272.230469 77.679688 272.558594 L 73.90625 271.457031 C 68.582031 271.578125 63.234375 270.625 58.238281 269.378906 C 57.910156 269.585938 57.820312 269.914062 57.882812 270.296875 C 58.625 270.953125 59.039062 271.25 59.726562 272.023438 C 56.335938 271.398438 52.886719 271.101562 49.945312 269.378906 C 47.417969 269.914062 44.710938 268.8125 42.1875 268.21875 C 39.660156 267.535156 37.074219 266.789062 34.84375 265.214844 C 29.96875 263.933594 25.65625 261.199219 21.257812 258.761719 C 20.070312 257.988281 19.117188 256.589844 17.660156 256.324219 C 14.777344 254.359375 10.792969 252.25 9.726562 248.769531 C 8.566406 247.847656 8.863281 246.421875 8.03125 245.378906 C 6.722656 242.167969 4.375 239.730469 5.027344 235.925781 C 3.363281 229.324219 6.277344 223.703125 8.773438 218.382812 C 12.222656 213.296875 15.9375 207.585938 21.617188 204.585938 C 21.824219 204.824219 22.089844 204.882812 22.359375 204.941406 C 22.6875 202.265625 23.28125 200.15625 23.308594 197.597656 C 24.378906 195.160156 25.65625 192.839844 25.957031 190.042969 C 26.699219 189.597656 26.042969 188.558594 26.550781 187.992188 C 27.769531 182.492188 31.992188 178.328125 35.199219 173.660156 C 42.363281 164.144531 52.027344 158.316406 61.269531 151.566406 C 62.578125 149.039062 65.757812 147.316406 65.609375 144.164062 C 65.550781 137.382812 67.277344 130.308594 71.082031 124.570312 C 72.65625 126.144531 70.25 128.941406 72.417969 130.425781 "/>
<path style=" stroke:none;fill-rule:nonzero;fill:rgb(91.372549%,91.372549%,91.372549%);fill-opacity:1;" d="M 80.710938 186.445312 C 80.832031 188.023438 81.246094 189.71875 81.070312 191.203125 L 81.664062 191.203125 C 84.25 196.824219 84.960938 202.503906 86.566406 208.539062 C 86.777344 209.667969 86.269531 210.441406 85.617188 211.183594 C 85.320312 213.386719 84.933594 215.496094 83.148438 217.042969 L 77.679688 219.125 C 77.441406 217.757812 80.117188 216.925781 78.632812 215.734375 C 74.46875 216.894531 70.21875 217.964844 66.175781 219.332031 C 68.496094 216.597656 67.75 211.898438 69.773438 208.746094 L 70.128906 203.453125 C 69.503906 202.144531 70.546875 200.628906 71.082031 199.292969 C 71.199219 198.429688 73.308594 197.269531 71.46875 196.644531 L 70.871094 197.03125 C 71.707031 195.367188 74.113281 194.179688 73.371094 192.15625 C 75.867188 189.539062 78.183594 186.863281 79.761719 183.800781 C 80.652344 184.304688 80.386719 185.585938 80.710938 186.445312 "/>
<path style=" stroke:none;fill-rule:nonzero;fill:rgb(94.117647%,93.72549%,93.72549%);fill-opacity:1;" d="M 160.527344 228.195312 C 162.222656 230.1875 164.570312 231.671875 166.175781 233.875 C 165.910156 233.785156 165.820312 234.113281 165.609375 234.230469 L 165.609375 234.824219 C 168.078125 237.796875 170.695312 240.769531 171.46875 244.429688 C 170.277344 246.777344 169.476562 249.632812 167.335938 251.238281 L 168.078125 252.160156 C 167.304688 253.558594 165.820312 253.617188 164.691406 253.46875 C 162.222656 254.003906 159.875 254.746094 157.316406 255.015625 L 156.929688 255.371094 L 157.316406 255.757812 C 152.027344 256.859375 147.449219 259.710938 142.039062 260.484375 C 140.789062 258.878906 139.480469 260.367188 138.054688 259.921875 C 136.925781 259 135.585938 258.554688 134.695312 257.273438 C 134.277344 256.382812 134.488281 255.105469 135.230469 254.628906 C 134.101562 253.054688 130.472656 252.605469 131.246094 250.078125 C 132.792969 248.117188 129.195312 247.523438 128.453125 246.125 C 127.828125 245.144531 128.007812 244.222656 128.246094 243.121094 L 130.148438 241.039062 C 129.316406 239.761719 128.453125 238.246094 128.808594 236.699219 C 129.285156 235.300781 130.800781 234.289062 131.839844 233.664062 C 130.769531 232.921875 130.175781 231.671875 130.710938 230.484375 C 130.980469 228.996094 131.871094 227.511719 133.359375 226.886719 C 136.121094 226.914062 133.417969 223.703125 135.585938 222.722656 C 136.242188 221.058594 138.46875 222.871094 139.007812 221.238281 C 139.007812 220.433594 138.144531 219.601562 139.007812 218.945312 C 146.734375 220.699219 153.75 224.058594 160.527344 228.195312 "/>
<path style=" stroke:none;fill-rule:nonzero;fill:rgb(97.647059%,67.843137%,35.294118%);fill-opacity:1;" d="M 70.695312 125.191406 C 70.664062 128.789062 70.78125 133.578125 70.277344 134.320312 L 69.863281 134.320312 C 69.863281 135.152344 69.445312 137.234375 69.445312 138.070312 C 68.613281 138.070312 69.445312 139.316406 68.613281 139.316406 C 68.613281 140.148438 67.78125 147.582031 68.613281 147.582031 C 68.613281 148.417969 67.363281 150.050781 67.363281 150.882812 C 67.78125 150.882812 68.195312 151.300781 68.613281 151.300781 L 68.195312 151.714844 C 67.78125 151.714844 62.402344 155.460938 61.566406 155.878906 C 61.566406 156.296875 61.566406 157.515625 61.984375 157.515625 C 61.984375 158.765625 57.851562 160.84375 57.4375 162.09375 C 57.851562 162.09375 58.238281 162.511719 58.65625 162.511719 C 56.601562 162.511719 52.859375 167.476562 51.191406 167.476562 L 51.191406 166.644531 C 51.191406 168.308594 43.316406 169.972656 43.316406 172.441406 L 44.148438 172.441406 C 41.679688 174.9375 39.597656 179.070312 37.101562 181.570312 C 37.101562 181.152344 36.269531 179.070312 37.101562 179.070312 C 34.636719 181.570312 32.554688 191.949219 30.890625 191.949219 C 30.890625 192.78125 29.226562 196.496094 28.808594 196.914062 C 28.808594 196.496094 28.394531 196.082031 28.394531 195.664062 L 27.589844 195.246094 C 27.589844 201.074219 22.179688 206.042969 22.179688 211.007812 C 21.761719 211.007812 21.347656 210.589844 20.515625 210.589844 C 20.515625 213.089844 21.347656 216.417969 21.347656 218.46875 L 22.597656 218.46875 L 22.179688 218.886719 L 20.515625 218.886719 C 20.929688 218.886719 21.761719 220.136719 22.179688 220.550781 C 24.527344 220.550781 27.976562 221.652344 30.800781 221.773438 C 35.410156 225.28125 41.859375 224.238281 47.476562 223.675781 C 48.753906 224.746094 50.746094 224.058594 52.027344 223.496094 C 55.683594 222.574219 59.039062 220.851562 62.578125 219.542969 C 62.28125 220.226562 62.339844 221.058594 62.964844 221.59375 C 65.640625 221.386719 67.78125 219.777344 70.335938 219.332031 C 71.199219 218.796875 72.359375 218.796875 73.371094 218.589844 C 74.378906 217.875 75.628906 217.667969 76.757812 217.253906 C 76.875 218.113281 75.539062 220.015625 77.113281 220.640625 C 79.375 220.226562 81.277344 218.410156 83.566406 218.589844 C 86.269531 217.339844 89.808594 217.253906 92.574219 215.734375 L 94.265625 215.527344 C 94.207031 216.390625 93.523438 216.984375 93.523438 217.785156 L 94.089844 218.203125 C 97.328125 215.554688 101.9375 215.554688 105.414062 213.832031 C 106.367188 213.503906 107.761719 213.714844 108.625 213.65625 C 107.671875 214.039062 107.347656 214.992188 107.316406 215.941406 C 107.972656 217.101562 109.042969 216.0625 109.960938 216.09375 C 113.621094 214.960938 117.871094 214.574219 121.644531 214.21875 C 121.140625 214.574219 121.140625 215.109375 120.902344 215.527344 C 123.785156 217.253906 128.273438 216.152344 131.457031 216.835938 C 133.59375 217.3125 135.914062 217.3125 138.054688 217.785156 C 136.984375 218.46875 137.25 219.898438 137.488281 220.851562 C 135.675781 220.730469 134.160156 222.21875 133.148438 223.882812 C 133.121094 224.03125 133.121094 224.210938 133.121094 224.386719 L 132.851562 224.683594 L 118.734375 224.683594 C 118.734375 225.933594 119.566406 228.847656 120.8125 228.847656 L 97.179688 229.679688 C 97.179688 230.511719 97.597656 231.347656 98.011719 231.347656 C 98.429688 232.148438 99.679688 232.980469 100.511719 233.398438 L 79.402344 232.566406 C 79.402344 233.8125 80.625 235.0625 81.457031 235.480469 L 67.78125 235.480469 C 65.3125 235.480469 61.152344 235.480469 58.65625 235.0625 C 56.601562 235.0625 53.273438 234.230469 51.191406 234.230469 C 51.191406 235.480469 52.441406 238.394531 53.273438 239.195312 L 54.523438 239.195312 L 40.433594 237.976562 C 33.804688 236.730469 26.34375 230.511719 19.296875 230.511719 C 19.296875 232.566406 19.710938 235.0625 19.710938 236.730469 L 10.171875 229.679688 C 10.171875 228.429688 9.339844 226.765625 9.339844 225.101562 C 9.339844 225.519531 8.921875 226.351562 8.921875 226.765625 C 8.507812 226.765625 8.089844 227.601562 8.089844 228.015625 C 8.089844 225.457031 7.820312 223.140625 7.582031 220.910156 C 8 220.046875 8.386719 219.214844 8.773438 218.382812 C 12.222656 213.296875 15.9375 207.585938 21.617188 204.585938 C 21.824219 204.824219 22.089844 204.882812 22.359375 204.941406 C 22.6875 202.265625 23.28125 200.15625 23.308594 197.597656 C 24.378906 195.160156 25.65625 192.839844 25.957031 190.042969 C 26.699219 189.597656 26.042969 188.558594 26.550781 187.992188 C 27.769531 182.492188 31.992188 178.328125 35.199219 173.660156 C 42.363281 164.144531 52.027344 158.316406 61.269531 151.566406 C 62.578125 149.039062 65.757812 147.316406 65.609375 144.164062 C 65.550781 137.621094 67.15625 130.8125 70.695312 125.191406 Z M 39.214844 223.199219 C 41.265625 223.257812 43.347656 223.109375 45.367188 222.84375 C 45.039062 222.8125 44.773438 222.722656 44.566406 222.632812 L 44.566406 222.21875 C 43.167969 222.21875 41.203125 222.78125 39.214844 223.199219 Z M 49.46875 222.722656 C 49.855469 222.691406 50.273438 222.632812 50.660156 222.542969 C 50.242188 222.605469 49.855469 222.664062 49.46875 222.722656 Z M 64.242188 218.886719 C 64.183594 219.066406 64.152344 219.273438 64.125 219.453125 C 64.300781 219.273438 64.480469 219.066406 64.480469 218.886719 C 64.390625 218.886719 64.300781 218.886719 64.242188 218.886719 Z M 64.09375 219.898438 C 64.066406 220.046875 64.09375 220.195312 64.125 220.285156 L 65.046875 219.898438 C 65.132812 219.542969 65.226562 219.214844 65.3125 218.886719 C 65.3125 219.15625 64.570312 219.632812 64.09375 219.898438 Z M 92.632812 214.8125 C 92.722656 214.785156 92.8125 214.753906 92.898438 214.722656 C 92.78125 214.722656 92.691406 214.753906 92.632812 214.753906 Z M 95.78125 215.734375 C 95.8125 215.707031 95.84375 215.707031 95.871094 215.675781 C 95.84375 215.707031 95.8125 215.707031 95.78125 215.734375 "/>
<path style=" stroke:none;fill-rule:nonzero;fill:rgb(89.803922%,59.215686%,22.745098%);fill-opacity:1;" d="M 4.550781 232.566406 C 6.632812 241.394531 12.429688 251.386719 20.515625 255.789062 L 20.929688 255.789062 L 20.929688 253.320312 C 25.511719 253.320312 35.050781 255.371094 39.183594 257.453125 C 38.765625 256.203125 37.933594 255.371094 37.933594 254.152344 C 41.265625 254.957031 43.316406 257.453125 46.230469 259.117188 C 50.777344 261.617188 63.648438 266.582031 61.566406 262.003906 L 61.566406 261.617188 C 63.648438 261.617188 66.117188 262.835938 67.78125 263.667969 C 71.109375 265.332031 89.71875 269.464844 83.953125 263.667969 C 83.953125 262.835938 83.535156 261.617188 83.535156 260.785156 C 88.886719 263.25 95.929688 262.835938 101.757812 262.835938 C 100.925781 262.417969 99.679688 257.453125 99.679688 256.621094 C 106.722656 256.621094 115.015625 260.367188 122.894531 260.367188 C 122.476562 259.535156 120.398438 255.789062 119.980469 255.789062 L 120.398438 255.371094 L 132.851562 256.203125 C 132.4375 255.789062 132.019531 254.957031 132.019531 254.152344 C 131.601562 254.152344 131.1875 253.734375 130.769531 253.734375 C 131.308594 253.734375 131.839844 253.765625 132.375 253.824219 C 133.058594 254.242188 133.65625 254.746094 133.359375 255.371094 C 132.050781 257.601562 135.4375 259.207031 136.746094 260.484375 L 138.648438 261.230469 C 137.042969 262.804688 134.101562 262.03125 132.199219 263.3125 C 124.765625 266.402344 116.234375 266.730469 108.058594 268.066406 C 107.140625 268.632812 105.207031 267.535156 105.027344 268.960938 L 107.671875 270.507812 C 103.71875 271.101562 99.765625 272.351562 95.78125 272.378906 C 89.957031 274.136719 83.804688 272.230469 77.679688 272.558594 L 73.90625 271.457031 C 68.582031 271.578125 63.234375 270.625 58.238281 269.378906 C 57.910156 269.585938 57.820312 269.914062 57.882812 270.296875 C 58.625 270.953125 59.039062 271.25 59.726562 272.023438 C 56.335938 271.398438 52.886719 271.101562 49.945312 269.378906 C 47.417969 269.914062 44.710938 268.8125 42.1875 268.21875 C 39.660156 267.535156 37.074219 266.789062 34.84375 265.214844 C 29.96875 263.933594 25.65625 261.199219 21.257812 258.761719 C 20.070312 257.988281 19.117188 256.589844 17.660156 256.324219 C 14.777344 254.359375 10.792969 252.25 9.726562 248.769531 C 8.566406 247.847656 8.863281 246.421875 8.03125 245.378906 C 6.722656 242.167969 4.375 239.730469 5.027344 235.925781 C 4.730469 234.765625 4.582031 233.664062 4.550781 232.566406 "/>
<path style=" stroke:none;fill-rule:nonzero;fill:rgb(89.803922%,59.215686%,22.745098%);fill-opacity:1;" d="M 78.15625 173.691406 C 78.15625 173.71875 78.183594 173.75 78.183594 173.78125 C 78.183594 173.808594 78.183594 173.839844 78.214844 173.867188 Z M 81.425781 180.738281 L 81.457031 180.738281 C 81.457031 180.765625 81.457031 180.765625 81.457031 180.796875 C 81.457031 180.765625 81.425781 180.765625 81.425781 180.738281 Z M 81.871094 182.996094 C 81.988281 183.144531 82.109375 183.234375 82.289062 183.234375 C 82.289062 184.484375 83.121094 187.785156 83.953125 188.617188 L 84.367188 188.617188 C 84.367188 189.03125 84.785156 189.867188 85.199219 189.867188 C 85.199219 190.28125 85.617188 191.949219 86.03125 191.949219 C 86.03125 198.164062 90.96875 204.792969 90.96875 211.421875 C 91.382812 211.421875 92.214844 213.089844 92.632812 213.089844 L 92.632812 214.753906 L 89.777344 214.753906 C 89.480469 214.367188 89.332031 213.742188 89.363281 212.730469 L 88.230469 207.054688 C 85.707031 201.910156 85.707031 195.78125 83.148438 190.609375 C 83.59375 190.015625 83.238281 189.269531 82.761719 188.734375 L 82.019531 188.351562 Z M 70.695312 195.425781 C 71.257812 194.652344 71.792969 193.851562 72.210938 193.046875 L 72.03125 193.046875 C 71.734375 192.601562 71.734375 192.511719 71.824219 191.949219 C 75.390625 187.992188 80.296875 183.742188 79.167969 178.148438 C 78.511719 176.722656 78.480469 175.386719 78.246094 174.019531 C 77.949219 173.898438 77.738281 173.570312 77.738281 173.273438 C 76.90625 175.355469 76.074219 179.070312 76.074219 181.570312 C 75.65625 181.570312 75.242188 181.152344 74.824219 180.738281 L 73.578125 180.738281 L 73.578125 186.148438 C 72.773438 186.148438 72.359375 186.535156 71.527344 186.535156 L 71.109375 186.953125 C 71.109375 190.105469 70.753906 192.867188 70.695312 195.425781 "/>
<path style=" stroke:none;fill-rule:nonzero;fill:rgb(89.803922%,59.215686%,22.745098%);fill-opacity:1;" d="M 74.203125 62.332031 C 72.832031 65.425781 71.320312 68.964844 71.320312 72.355469 L 71.527344 71.9375 C 71.941406 71.9375 72.566406 71.519531 72.984375 71.519531 C 71.734375 72.144531 72.359375 77.734375 72.359375 78.777344 L 72.773438 78.777344 C 72.773438 79.195312 72.566406 80.441406 72.566406 81.246094 L 73.371094 81.246094 C 73.371094 81.867188 73.160156 82.703125 73.160156 83.328125 L 73.992188 83.328125 L 73.992188 85.40625 L 74.824219 85.40625 C 75.363281 87.132812 74.707031 88.707031 74.144531 90.195312 C 74.023438 88.171875 73.308594 86.179688 72.984375 84.128906 C 71.199219 84.484375 73.398438 81.15625 71.082031 81.511719 L 70.335938 83.027344 L 70.335938 78.480469 C 70.011719 78.183594 69.714844 77.734375 69.175781 77.945312 L 69.03125 78.121094 C 68.941406 76.339844 70.011719 73.871094 68.820312 72.085938 L 68.078125 72.085938 C 67.632812 70.570312 67.988281 68.933594 68.433594 67.535156 C 71.347656 67.300781 73.101562 64.445312 74.113281 62.035156 C 74.113281 62.125 74.144531 62.214844 74.203125 62.332031 "/>
<path style=" stroke:none;fill-rule:nonzero;fill:rgb(98.039216%,70.588235%,33.72549%);fill-opacity:1;" d="M 90.996094 42.46875 C 93.40625 41.90625 96.050781 41.90625 98.28125 41.90625 C 98.074219 42.113281 98.011719 41.875 98.011719 42.085938 C 100.003906 42.382812 105.621094 43.394531 105.890625 43.929688 L 105.472656 43.929688 C 106.425781 43.957031 115.757812 49.308594 115.433594 49.757812 C 114.660156 49.308594 125.480469 56.894531 126.402344 58.648438 C 126.816406 58.648438 128.691406 60.3125 128.898438 60.519531 C 129.015625 60.519531 129.285156 60.609375 129.492188 60.667969 C 129.195312 60.460938 128.898438 60.222656 128.601562 59.984375 C 121.644531 52.730469 116.5625 42.351562 106.160156 39.792969 C 101.789062 39.347656 97.984375 37.265625 93.316406 37.503906 C 92.125 38.992188 92.78125 40.863281 91.054688 42.054688 C 91.054688 42.203125 91.054688 42.351562 90.996094 42.46875 Z M 129.730469 60.816406 L 129.730469 60.933594 C 129.730469 60.933594 130.027344 61.085938 130.324219 61.203125 C 130.117188 61.085938 129.910156 60.964844 129.730469 60.816406 Z M 130.890625 61.558594 C 131.21875 61.976562 131.988281 62.304688 132.851562 62.542969 C 132.167969 62.246094 131.515625 61.917969 130.890625 61.558594 "/>
<path style=" stroke:none;fill-rule:nonzero;fill:rgb(100%,100%,100%);fill-opacity:1;" d="M 84.070312 71.3125 C 83.683594 71.3125 82.734375 72.832031 82.347656 73.007812 C 82.734375 73.007812 83.296875 72.621094 83.683594 72.621094 C 81.78125 72.621094 81.394531 79.519531 80.238281 79.519531 C 80.238281 78.777344 81.007812 78.210938 81.78125 78.210938 C 81.78125 81.570312 80.414062 88.292969 83.507812 90.523438 L 83.683594 90.523438 C 84.457031 89.957031 84.84375 87.726562 85.617188 86.984375 L 86.003906 86.984375 C 86.003906 89.601562 87.757812 92.007812 89.449219 93.703125 C 89.835938 92.753906 90.820312 90.730469 91.59375 89.957031 L 92.15625 89.957031 C 92.15625 90.910156 93.703125 92.394531 94.089844 92.960938 C 95.457031 92.394531 97.003906 88.46875 98.546875 88.46875 C 98.933594 89.214844 99.320312 89.957031 99.5 90.730469 C 99.679688 88.351562 105.59375 84.933594 105.890625 87.164062 L 106.277344 87.371094 L 106.453125 87.164062 C 106.664062 87.726562 105.503906 87.90625 105.503906 88.679688 C 106.453125 88.679688 109.933594 85.675781 111.269531 85.109375 C 108.953125 85.109375 108.566406 84.1875 106.839844 85.320312 L 106.839844 82.878906 C 105.117188 82.878906 101.816406 84.574219 101.042969 86.0625 C 100.273438 84.574219 101.253906 84.1875 101.253906 82.316406 C 99.886719 82.316406 96.792969 84.007812 96.792969 84.753906 C 96.792969 83.265625 96.617188 81.007812 97.953125 79.730469 C 95.636719 79.730469 91.980469 81.007812 90.820312 83.265625 C 90.820312 79.34375 93.523438 74.851562 93.523438 71.3125 C 93.316406 71.519531 92.75 71.519531 92.363281 71.519531 C 92.15625 71.699219 91.980469 71.878906 91.59375 71.878906 C 91.59375 72.054688 90.820312 72.832031 90.820312 73.007812 C 89.449219 71.699219 94.089844 67.417969 94.089844 66.109375 C 94.296875 65.902344 94.863281 65.722656 95.070312 65.722656 C 94.058594 64.265625 85.558594 67.953125 84.070312 71.3125 "/>
<path style=" stroke:none;fill-rule:nonzero;fill:rgb(100%,100%,100%);fill-opacity:1;" d="M 104.105469 97.210938 C 103.273438 98.34375 102.175781 99.144531 102.175781 100.335938 C 101.757812 100.75 100.511719 102 100.09375 102.832031 L 101.757812 102.832031 C 101.757812 104.882812 100.09375 106.964844 100.09375 109.046875 L 100.925781 109.046875 L 100.925781 115.675781 L 102.175781 115.675781 L 102.175781 121.890625 L 104.226562 121.890625 C 104.226562 123.972656 103.808594 126.054688 103.808594 128.105469 C 105.445312 131.675781 103.335938 146.15625 103.808594 150.46875 C 104.226562 150.46875 107.972656 140.148438 108.386719 140.148438 L 108.386719 147.167969 L 109.21875 147.167969 C 110.855469 150.46875 110.050781 155.878906 110.050781 159.59375 C 110.46875 159.59375 111.269531 160.011719 111.6875 160.011719 C 111.6875 166.496094 110.945312 172.796875 110.347656 179.160156 C 112.074219 170.417969 115.820312 162.210938 114.273438 152.875 C 114.691406 145.441406 111.6875 139.078125 110.855469 131.914062 L 110.320312 131.347656 C 110.527344 130.1875 109.042969 129.238281 110.109375 128.167969 C 109.695312 122.992188 109.636719 117.105469 108.058594 111.722656 C 107.734375 110.414062 107.972656 109.34375 107.464844 108.332031 C 107.734375 103.457031 106.1875 99.503906 107.316406 94.714844 C 105.742188 95.636719 105.414062 97.035156 104.253906 98.132812 C 104.136719 97.835938 104.105469 97.507812 104.105469 97.210938 Z M 104.105469 97.003906 L 103.808594 97.003906 L 104.105469 97.003906 "/>
<path style=" stroke:none;fill-rule:nonzero;fill:rgb(100%,100%,100%);fill-opacity:1;" d="M 134.664062 224.328125 C 138.886719 224.625 140.582031 226.886719 144.445312 228.429688 L 142.78125 228.429688 L 156.039062 231.734375 C 155.238281 231.734375 164.332031 236.730469 165.996094 236.730469 C 163.855469 236.730469 166.175781 237.738281 168.554688 238.484375 C 167.632812 237.234375 166.621094 236.015625 165.609375 234.824219 L 165.609375 234.230469 C 165.820312 234.113281 165.910156 233.785156 166.175781 233.875 C 164.570312 231.671875 162.222656 230.1875 160.527344 228.195312 C 153.75 224.058594 146.734375 220.699219 139.007812 218.945312 C 138.144531 219.601562 139.007812 220.433594 139.007812 221.238281 C 138.46875 222.871094 136.242188 221.058594 135.585938 222.722656 C 135.5 222.753906 135.4375 222.78125 135.351562 222.84375 C 135.351562 223.050781 135.320312 223.257812 135.320312 223.464844 L 134.726562 223.765625 C 134.664062 223.941406 134.664062 224.121094 134.664062 224.328125 "/>
<path style=" stroke:none;fill-rule:nonzero;fill:rgb(85.490196%,85.098039%,85.098039%);fill-opacity:1;" d="M 134.8125 255.046875 C 137.699219 255.253906 140.9375 255.789062 143.613281 255.789062 C 142.78125 254.957031 141.949219 253.320312 141.117188 253.320312 L 141.117188 251.65625 C 146.941406 251.65625 153.570312 248.324219 159.367188 248.324219 L 158.535156 249.15625 C 159.785156 249.15625 164.15625 249.394531 168.464844 250.167969 C 168.136719 250.554688 167.75 250.941406 167.335938 251.238281 L 168.078125 252.160156 C 167.304688 253.558594 165.820312 253.617188 164.691406 253.46875 C 162.222656 254.003906 159.875 254.746094 157.316406 255.015625 L 156.929688 255.371094 L 157.316406 255.757812 C 152.027344 256.859375 147.449219 259.710938 142.039062 260.484375 C 140.789062 258.878906 139.480469 260.367188 138.054688 259.921875 C 136.925781 259 135.585938 258.554688 134.695312 257.273438 C 134.367188 256.5625 134.425781 255.640625 134.8125 255.046875 "/>
<path style=" stroke:none;fill-rule:nonzero;fill:rgb(56.470588%,42.745098%,27.058824%);fill-opacity:1;" d="M 80.503906 9.464844 C 78.71875 14.015625 76.074219 20.707031 73.992188 22.785156 L 73.992188 24.453125 L 73.160156 24.453125 L 73.160156 26.949219 L 71.527344 28.585938 C 71.527344 30.25 69.863281 32.746094 69.03125 34.414062 C 65.90625 42.175781 69.386719 55.078125 66.382812 62.808594 C 66.207031 62.394531 65.847656 62.035156 65.226562 61.886719 C 64.570312 56.773438 65.878906 51.597656 64.125 46.960938 C 63.53125 34.886719 66.472656 22.398438 76.371094 13.71875 C 77.949219 12.4375 79.226562 10.894531 80.503906 9.464844 Z M 84.785156 5.75 L 84.785156 6.195312 C 84.636719 6.164062 84.488281 6.195312 84.339844 6.222656 C 83.65625 6.34375 84.042969 6.730469 83.03125 6.9375 C 83.59375 6.492188 84.160156 6.074219 84.785156 5.75 "/>
</g>
</svg>
