<?xml version="1.0" encoding="UTF-8" standalone="no"?>
<svg
   xmlns:dc="http://purl.org/dc/elements/1.1/"
   xmlns:cc="http://creativecommons.org/ns#"
   xmlns:rdf="http://www.w3.org/1999/02/22-rdf-syntax-ns#"
   xmlns:svg="http://www.w3.org/2000/svg"
   xmlns="http://www.w3.org/2000/svg"
   xmlns:sodipodi="http://sodipodi.sourceforge.net/DTD/sodipodi-0.dtd"
   xmlns:inkscape="http://www.inkscape.org/namespaces/inkscape"
   width="168.62903pt"
   height="270.29037pt"
   viewBox="0 0 168.62903 270.29037"
   version="1.1"
   id="svg175"
   sodipodi:docname="fox.svg"
   inkscape:version="1.0.2-2 (e86c870879, 2021-01-15)">
  <metadata
     id="metadata181">
    <rdf:RDF>
      <cc:Work
         rdf:about="">
        <dc:format>image/svg+xml</dc:format>
        <dc:type
           rdf:resource="http://purl.org/dc/dcmitype/StillImage" />
      </cc:Work>
    </rdf:RDF>
  </metadata>
  <defs
     id="defs179" />
  <sodipodi:namedview
     pagecolor="#ffffff"
     bordercolor="#666666"
     borderopacity="1"
     objecttolerance="10"
     gridtolerance="10"
     guidetolerance="10"
     inkscape:pageopacity="0"
     inkscape:pageshadow="2"
     inkscape:window-width="1920"
     inkscape:window-height="1017"
     id="namedview177"
     showgrid="false"
     inkscape:zoom="1.1453916"
     inkscape:cx="13.051668"
     inkscape:cy="192.67694"
     inkscape:window-x="-8"
     inkscape:window-y="-8"
     inkscape:window-maximized="1"
     inkscape:current-layer="svg175" />
  <g
     id="surface1"
     transform="translate(-3.9998752,-4.0000233)">
    <path
       style="fill:#211e1e;fill-opacity:1;fill-rule:nonzero;stroke:none"
       d="m 107.67188,5.601562 c -1.63282,8.53125 -0.76954,16.769532 -0.20704,25.511719 0.41797,2.617188 2.23047,4.371094 2.08204,6.984375 0.23828,0.746094 1.07031,1.609375 0.94921,2.261719 13.28907,4.964844 15.72657,23.878906 31.69141,23.222656 1.78125,0.476563 3.26953,1.84375 3.80469,3.597657 -1.36719,4.488281 -1.19141,9.902343 -5.5,12.847656 -1.27735,2.019531 -1.07032,4.519531 -3.7461,5.648437 -5.5,1.25 -12.24609,-1.25 -16.79296,2.855469 -0.86329,0.742188 -1.69532,2.050781 -2.85547,1.691406 l -0.74219,-0.949218 c -1.33984,0.804687 -1.25,2.765624 -2.26172,3.746093 -0.74219,0.445313 -0.83203,-0.742187 -1.48437,-0.535156 -0.95313,0.445313 -0.80469,2.648437 -2.28907,1.695313 0.0898,-0.296876 -0.23828,-0.386719 -0.35937,-0.566407 -0.6211,1.546875 -1.8711,2.351563 -1.90235,4.164063 0,0.890625 -0.83203,2.648436 0.56641,3.003906 0,2.32031 -0.83203,6.48047 0.53516,9.03906 0.26953,4.9375 2.02343,9.54688 1.90234,14.53907 -0.0273,2.11328 -0.11719,4.64062 1.12891,6.45312 -0.41407,5.62109 2.88672,10.23047 3.03125,15.82031 2.85547,13.23047 -2.22657,24.79688 -4.16016,37.16797 -0.95312,9.00781 -0.68359,17.42188 0.38672,26.28516 0.41797,1.33593 0.59375,2.88281 1.30859,4.13281 2.52735,0.59375 5.11328,-1.36719 7.75782,-0.92188 1.39843,-0.625 2.97265,-0.23828 4.33984,0.17969 -0.29688,0.85938 -1.90234,0.5625 -2.25781,1.66406 6.27343,0.20704 12.83984,0.95313 18.84765,2.28907 0.29297,1.42578 2.28516,1.16015 3.38672,1.69531 5.82422,2.23047 11.47266,4.75781 16.64844,8.50391 l 7.1914,6.98828 c -0.14843,0.53515 -0.38671,1.10156 -0.94921,1.16015 2.70312,2.79297 4.69531,6.54297 4.90625,10.34766 -1.07422,1.48437 -2.61719,3.30078 -2.64844,5.11328 -0.20703,1.48828 -1.57422,2.19922 -2.64453,3.18359 -5.53125,1.27735 -10.73047,3.47657 -16.26172,4.75782 -2.94141,1.48437 -6.39063,1.57422 -9.42188,2.79297 -0.65625,-0.11719 -1.16015,0.26953 -1.69531,0.38671 v 0.35547 c -1.16016,-0.14843 -1.16016,0.30078 -1.90234,0.41797 l -3.95313,0.92188 0.17578,0.20703 c -1.00781,0.41797 -1.66406,-0.0586 -2.64453,0.35937 -7.42968,2.70313 -15.875,3.17969 -23.78125,4.75782 0.65235,0.85937 2.76563,0.41406 2.25782,1.87109 -8.85547,0.53516 -16.792974,4.49219 -26.187505,2.46875 -6.421875,0.625 -12.753906,-1.8125 -19.054687,-1.90234 -1.21875,-0.21094 -2.40625,-0.44532 -3.390626,-0.21094 l 3.003907,1.51953 c 0.03125,0.89062 -0.773438,0.91797 -1.308594,0.59375 -7.964844,-1.12891 -15.574219,-2.97266 -23.246094,-4.90625 -5.289062,-1.90234 -10.34375,-4.40234 -15.277343,-6.98828 C 20.425781,259.625 16.59375,256.65234 12.550781,254.0625 8.65625,251 8.121094,246.03516 4.820312,242.73437 4.046875,235.41797 2.589844,226.28906 7.464844,220.07812 l -0.207032,-0.53515 c 1.308594,-2.52735 3.476563,-4.73047 4.367188,-7.40625 3.300781,-3.53906 7.820312,-7.22266 10.585938,-11.29688 -0.269532,-5.29297 3.269531,-9.01172 3.746093,-13.97656 1.574219,-4.96484 5.527344,-8.92187 8.292969,-13.41016 6.835938,-9.87109 17.6875,-15.58203 26.632812,-23.04687 6.570313,-5.58984 1.8125,-15.13281 6.988282,-21.28906 1.484375,-4.48828 5.289062,-7.9375 4.339844,-13.41016 -0.328126,-3.32812 0.476562,-7.16406 0.949218,-10.58594 l -0.742187,-0.35546 c 0.355469,-2.70704 0.890625,-5.351568 0.953125,-8.148442 -2.648438,-0.503907 0.265625,-2.554688 -0.386719,-4.132813 -0.152344,-1.902344 0.503906,-4.636719 -1.308594,-5.292969 -0.59375,-0.566406 -0.08984,-1.574218 -0.804687,-2.109375 -0.324219,0.207031 -0.445313,0.800781 -0.949219,0.59375 -1.605469,-1.28125 0.207031,-4.640625 -2.230469,-4.90625 0.265625,-1.785156 0.265625,-3.984375 0.179688,-5.679687 -0.238282,0.328125 -0.59375,0.417968 -0.953125,0.386718 v -7.941406 l -0.386719,-0.355468 0.207031,-0.207032 c -1.394531,-0.476562 -1.21875,-1.902344 -1.511719,-3.035156 -0.925781,0.300781 -0.625,-0.859375 -0.953124,-1.304688 0,-2.320312 -0.121094,-4.582031 0.207031,-6.988281 C 63.53125,49.992188 62.28125,44.9375 63.320312,39.40625 63.441406,37.445312 63.769531,34.382812 64.660156,32.449219 66.085938,22.191406 74.351562,14.3125 81.664062,6.757812 82.96875,5.183594 85.261719,3.90625 87.101562,4.46875 c 1.21875,1.785156 0.804688,3.570312 1.128907,5.679688 1.132812,6.273437 2.765625,12.339843 4.550781,18.316406 0.890625,-1.277344 0.445312,-3.121094 1.097656,-4.546875 2.617188,-5.890625 5.261719,-11.804688 8.683594,-17.367188 1.27734,-0.714843 2.55469,-3.09375 4.16016,-2.4375 l 0.94922,1.488281"
       id="path2" />
    <path
       style="fill:#785e3f;fill-opacity:1;fill-rule:nonzero;stroke:none"
       d="m 86.746094,8.808594 c 1.457031,6.929687 2.941406,14.839844 5.234375,21.945312 1.335937,4.132813 -0.539063,7.910156 -2.261719,11.300782 l -2.019531,2.082031 c -0.625,-0.59375 -0.417969,-1.992188 -0.179688,-2.824219 l 1.664063,-4.164062 C 88.945312,33.222656 90.460938,30.21875 89.363281,26.355469 87.9375,19.960938 86.984375,13.332031 85.792969,6.757812 85.320312,6.34375 84.664062,5.925781 84.101562,6.371094 80.917969,12.648438 79.375,20.347656 79.582031,27.304688 c 2.023438,1.875 0.05859,4.9375 0.921875,7.40625 1.902344,1.15625 0.535156,3.953124 2.257813,5.441406 0.0625,0.265625 -0.117188,0.625 0.207031,0.742187 0.300781,0.121094 0.386719,-0.207031 0.597656,-0.355469 v -0.386718 c 1.84375,3.597656 2.882813,7.820312 0.535156,11.535156 -2.410156,-1.335938 -1.488281,2.320312 -2.824218,3.214844 -0.269532,1.15625 -1.011719,2.464844 -2.109375,3.03125 C 78.988281,57.664062 78.988281,57.339844 78.632812,57.1875 77.769531,56.894531 77.679688,57.84375 77.5,58.289062 l -2.078125,2.644532 c -0.328125,-0.59375 -0.03125,-1.515625 -0.953125,-1.691406 h -0.5625 c -1.132812,2.230468 -2.082031,4.667968 -4.34375,6.242187 -0.324219,0.566406 -0.742188,1.308594 -1.484375,0.746094 -1.128906,-0.386719 -0.179687,-1.964844 -1.546875,-1.90625 0.148438,-1.007813 -0.02734,-2.109375 -1.304688,-2.4375 -0.65625,-5.113281 0.652344,-10.289063 -1.101562,-14.925781 -0.59375,-12.074219 2.347656,-24.5625 12.246094,-33.242188 3.539062,-2.886719 5.617187,-7.136719 9.632812,-8.503906 1.007813,1.128906 0.328125,2.226562 0.742188,3.59375"
       id="path4" />
    <path
       style="fill:#5c4c3d;fill-opacity:1;fill-rule:nonzero;stroke:none"
       d="m 106.51563,5.808594 c -0.65625,9.1875 -0.44922,19 0.59375,27.949218 0.86328,1.816407 0.625,4.105469 1.69531,5.828126 -2.5586,-6.988282 -2.82422,-14.867188 -3.39063,-22.628907 l 0.35938,-0.59375 c 0,-3.210937 0.89062,-6.511719 0,-9.605469 -4.90625,7.167969 -3.86719,16.621094 -4.51953,25.484376 l 0.77343,5.113281 C 99.410156,36.523438 96.496094,36.613281 93.878906,35.808594 94.417969,34.203125 92.898438,33.195312 93.671875,31.648438 94.59375,22.816406 98.84375,15.351562 103.125,7.859375 l 2.85547,-2.644531 0.38672,0.800781 0.14844,-0.207031"
       id="path6" />
    <path
       style="fill:#ca547d;fill-opacity:1;fill-rule:nonzero;stroke:none"
       d="m 85.378906,41.726562 0.652344,-0.207031 -0.238281,1.128907 -0.414063,-0.921876"
       id="path8" />
    <path
       style="fill:#cc597d;fill-opacity:1;fill-rule:nonzero;stroke:none"
       d="m 86.03125,41.519531 -0.652344,0.207031 -0.742187,-1.636718 2.199219,-0.652344 c -0.179688,0.445312 -0.386719,0.890625 -0.625,1.308594 l -0.179688,0.773437"
       id="path10" />
    <path
       style="fill:#cf5e7f;fill-opacity:1;fill-rule:nonzero;stroke:none"
       d="m 86.835938,39.4375 -2.199219,0.652344 -0.742188,-1.605469 3.625,-1.097656 c -0.179687,0.710937 -0.386719,1.398437 -0.683593,2.050781"
       id="path12" />
    <path
       style="fill:#cf6385;fill-opacity:1;fill-rule:nonzero;stroke:none"
       d="m 87.519531,37.386719 -3.625,1.097656 -0.328125,-0.769531 C 83.296875,37.503906 83.089844,37.238281 82.96875,36.941406 l 4.96875,-1.515625 c -0.08984,0.652344 -0.238281,1.335938 -0.417969,1.960938"
       id="path14" />
    <path
       style="fill:#d46b87;fill-opacity:1;fill-rule:nonzero;stroke:none"
       d="m 87.9375,35.425781 -4.96875,1.515625 c -0.265625,-0.507812 -0.355469,-1.101562 -0.503906,-1.695312 l 5.679687,-1.726563 c -0.05859,0.625 -0.08984,1.28125 -0.207031,1.90625"
       id="path16" />
    <path
       style="fill:#d4708a;fill-opacity:1;fill-rule:nonzero;stroke:none"
       d="m 88.144531,33.519531 -5.679687,1.726563 c -0.148438,-0.535156 -0.355469,-1.070313 -0.800782,-1.488282 0,-0.02734 0,-0.05859 0,-0.08984 l 6.566407,-2.019531 c 0,0.621093 -0.02734,1.246093 -0.08594,1.871093"
       id="path18" />
    <path
       style="fill:#d9788f;fill-opacity:1;fill-rule:nonzero;stroke:none"
       d="m 88.230469,31.648438 -6.566407,2.019531 c 0.05859,-0.625 0.05859,-1.246094 0.02734,-1.839844 l 6.570313,-2.023437 c 0,0.59375 0,1.21875 -0.03125,1.84375"
       id="path20" />
    <path
       style="fill:#d97d91;fill-opacity:1;fill-rule:nonzero;stroke:none"
       d="m 88.261719,29.804688 -6.570313,2.023437 c 0,-0.625 -0.05859,-1.222656 -0.117187,-1.816406 l 6.65625,-2.023438 c 0.03125,0.597657 0.03125,1.191407 0.03125,1.816407"
       id="path22" />
    <path
       style="fill:#dc8294;fill-opacity:1;fill-rule:nonzero;stroke:none"
       d="m 88.230469,27.988281 -6.65625,2.023438 c -0.08984,-0.59375 -0.148438,-1.160157 -0.238281,-1.753907 L 87.875,26.265625 c 0.121094,0.535156 0.238281,1.070313 0.355469,1.636719 0,0.02734 0,0.05859 0,0.08594"
       id="path24" />
    <path
       style="fill:#de8797;fill-opacity:1;fill-rule:nonzero;stroke:none"
       d="m 87.875,26.265625 -6.539062,1.992187 c -0.08984,-0.59375 -0.179688,-1.1875 -0.238282,-1.785156 l 6.421875,-1.933594 c 0.117188,0.566407 0.238281,1.132813 0.355469,1.726563"
       id="path26" />
    <path
       style="fill:#e18c99;fill-opacity:1;fill-rule:nonzero;stroke:none"
       d="m 87.519531,24.539062 -6.421875,1.933594 C 81.007812,25.90625 80.949219,25.3125 80.917969,24.71875 l 6.246093,-1.902344 c 0.117188,0.5625 0.234376,1.128906 0.355469,1.722656"
       id="path28" />
    <path
       style="fill:#e3949e;fill-opacity:1;fill-rule:nonzero;stroke:none"
       d="M 87.164062,22.816406 80.917969,24.71875 C 80.859375,24.09375 80.859375,23.5 80.859375,22.875 l 5.976563,-1.8125 c 0.117187,0.59375 0.207031,1.160156 0.328124,1.753906"
       id="path30" />
    <path
       style="fill:#e89ca1;fill-opacity:1;fill-rule:nonzero;stroke:none"
       d="m 86.835938,21.0625 -5.976563,1.8125 c 0.03125,-0.625 0.08984,-1.25 0.210937,-1.902344 l 5.46875,-1.664062 c 0.08984,0.59375 0.207032,1.160156 0.296876,1.753906"
       id="path32" />
    <path
       style="fill:#e89ea3;fill-opacity:1;fill-rule:nonzero;stroke:none"
       d="m 86.539062,19.308594 -5.46875,1.664062 c 0.05859,-0.328125 0.117188,-0.652344 0.207032,-1.011718 0.05859,-0.296876 0.117187,-0.625 0.148437,-0.921876 l 4.816407,-1.457031 c 0.08984,0.566407 0.175781,1.160157 0.296874,1.726563"
       id="path34" />
    <path
       style="fill:#eea6a8;fill-opacity:1;fill-rule:nonzero;stroke:none"
       d="m 86.242188,17.582031 -4.816407,1.457031 c 0.117188,-0.652343 0.238281,-1.308593 0.386719,-1.960937 l 4.132812,-1.25 c 0.08594,0.566406 0.207032,1.160156 0.296876,1.753906"
       id="path36" />
    <path
       style="fill:#f0aeab;fill-opacity:1;fill-rule:nonzero;stroke:none"
       d="m 85.945312,15.828125 -4.132812,1.25 c 0.148438,-0.65625 0.296875,-1.308594 0.445312,-1.960937 l 3.417969,-1.042969 c 0.08984,0.59375 0.179688,1.160156 0.269531,1.753906"
       id="path38" />
    <path
       style="fill:#f0b5ae;fill-opacity:1;fill-rule:nonzero;stroke:none"
       d="m 85.675781,14.074219 -3.417969,1.042969 c 0.179688,-0.6875 0.386719,-1.371094 0.59375,-2.023438 l 2.527344,-0.773438 c 0.08984,0.59375 0.179688,1.160157 0.296875,1.753907"
       id="path40" />
    <path
       style="fill:#f5bdb3;fill-opacity:1;fill-rule:nonzero;stroke:none"
       d="m 85.378906,12.320312 -2.527344,0.773438 c 0.210938,-0.683594 0.445313,-1.367188 0.714844,-2.054688 l 1.484375,-0.472656 c 0.121094,0.59375 0.210938,1.1875 0.328125,1.753906"
       id="path42" />
    <path
       style="fill:#f8c2b8;fill-opacity:1;fill-rule:nonzero;stroke:none"
       d="m 85.050781,10.566406 -1.484375,0.472656 c 0.265625,-0.710937 0.5625,-1.425781 0.890625,-2.109374 L 84.753906,8.839844 C 84.84375,9.433594 84.960938,10 85.050781,10.566406"
       id="path44" />
    <path
       style="fill:#facaba;fill-opacity:1;fill-rule:nonzero;stroke:none"
       d="m 84.753906,8.839844 -0.296875,0.089844 c 0.05859,-0.148438 0.148438,-0.328126 0.207031,-0.476563 0.03125,0.121094 0.0625,0.269531 0.08984,0.386719"
       id="path46" />
    <path
       style="fill:#a6666e;fill-opacity:1;fill-rule:nonzero;stroke:none"
       d="m 103.21484,36.078125 3.71485,1.726563 c 0.0625,0.292968 0.12109,0.59375 0.17969,0.859374 -1.04297,-0.535156 -2.94141,-0.445312 -3.77344,-1.515624 -0.0312,-0.355469 -0.0898,-0.714844 -0.1211,-1.070313"
       id="path48" />
    <path
       style="fill:#ab6b73;fill-opacity:1;fill-rule:nonzero;stroke:none"
       d="m 106.92969,37.804688 -3.71485,-1.726563 c -0.0898,-0.535156 -0.14843,-1.101563 -0.20703,-1.636719 l 3.59766,1.664063 c 0.11719,0.566406 0.23437,1.132812 0.32422,1.699219"
       id="path50" />
    <path
       style="fill:#ae7075;fill-opacity:1;fill-rule:nonzero;stroke:none"
       d="m 106.60547,36.105469 -3.59766,-1.664063 c -0.0586,-0.535156 -0.0898,-1.070312 -0.14843,-1.632812 l 3.44531,1.605468 c 0.0898,0.5625 0.21094,1.128907 0.30078,1.691407"
       id="path52" />
    <path
       style="fill:#b3737a;fill-opacity:1;fill-rule:nonzero;stroke:none"
       d="m 106.30469,34.414062 -3.44531,-1.605468 c -0.0312,-0.507813 -0.0898,-1.042969 -0.1211,-1.578125 l 3.24219,1.488281 c 0.11719,0.5625 0.20703,1.128906 0.32422,1.695312"
       id="path54" />
    <path
       style="fill:#b8787d;fill-opacity:1;fill-rule:nonzero;stroke:none"
       d="m 105.98047,32.71875 -3.24219,-1.488281 c -0.0273,-0.535157 -0.0586,-1.070313 -0.0898,-1.605469 l 3.0625,1.398438 c 0.0898,0.566406 0.17969,1.128906 0.26953,1.695312"
       id="path56" />
    <path
       style="fill:#bd7f82;fill-opacity:1;fill-rule:nonzero;stroke:none"
       d="M 105.71094,31.023438 102.64844,29.625 c 0,-0.503906 -0.0273,-1.039062 -0.0273,-1.574219 l 2.79297,1.308594 c 0.0898,0.5625 0.17969,1.128906 0.29688,1.664063"
       id="path58" />
    <path
       style="fill:#c28587;fill-opacity:1;fill-rule:nonzero;stroke:none"
       d="m 105.41406,29.359375 -2.79297,-1.308594 c 0,-0.507812 -0.0312,-1.042969 0,-1.546875 l 2.55469,1.1875 c 0.0898,0.566406 0.17969,1.101563 0.23828,1.667969"
       id="path60" />
    <path
       style="fill:#c58a8a;fill-opacity:1;fill-rule:nonzero;stroke:none"
       d="m 105.17578,27.691406 -2.55469,-1.1875 c 0,-0.507812 0,-1.039062 0,-1.546875 l 2.34766,1.070313 c 0.0586,0.566406 0.14844,1.101562 0.20703,1.664062"
       id="path62" />
    <path
       style="fill:#cc8f8f;fill-opacity:1;fill-rule:nonzero;stroke:none"
       d="m 104.96875,26.027344 -2.34766,-1.070313 c 0.0273,-0.503906 0.0586,-1.011719 0.0586,-1.515625 l 2.10937,0.949219 c 0.0586,0.566406 0.1211,1.101563 0.17969,1.636719"
       id="path64" />
    <path
       style="fill:#cf9794;fill-opacity:1;fill-rule:nonzero;stroke:none"
       d="m 104.78906,24.390625 -2.10937,-0.949219 c 0.0312,-0.507812 0.0898,-1.011718 0.11719,-1.515625 l 1.84375,0.859375 c 0.0312,0.535156 0.0898,1.070313 0.14843,1.605469"
       id="path66" />
    <path
       style="fill:#d49997;fill-opacity:1;fill-rule:nonzero;stroke:none"
       d="m 104.64063,22.785156 -1.84375,-0.859375 c 0.0312,-0.476562 0.0898,-0.984375 0.12109,-1.488281 l 1.60547,0.742188 c 0.0312,0.535156 0.0586,1.070312 0.11719,1.605468"
       id="path68" />
    <path
       style="fill:#d9a19c;fill-opacity:1;fill-rule:nonzero;stroke:none"
       d="M 104.52344,21.179688 102.91797,20.4375 c 0.0586,-0.476562 0.11719,-0.980469 0.17969,-1.457031 l 1.36718,0.625 c 0,0.535156 0.0273,1.039062 0.0586,1.574219"
       id="path70" />
    <path
       style="fill:#dea6a1;fill-opacity:1;fill-rule:nonzero;stroke:none"
       d="m 104.46484,19.605469 -1.36718,-0.625 c 0.0859,-0.476563 0.14843,-0.980469 0.23828,-1.457031 l 1.09765,0.503906 c 0,0.535156 0,1.042968 0.0312,1.578125"
       id="path72" />
    <path
       style="fill:#e3aba3;fill-opacity:1;fill-rule:nonzero;stroke:none"
       d="m 104.43359,18.027344 -1.09765,-0.503906 c 0.0586,-0.476563 0.14844,-0.953126 0.23437,-1.425782 l 0.89453,0.414063 c -0.0312,0.507812 -0.0312,1.011719 -0.0312,1.515625"
       id="path74" />
    <path
       style="fill:#e6b0a8;fill-opacity:1;fill-rule:nonzero;stroke:none"
       d="m 104.46484,16.511719 -0.89453,-0.414063 c 0.0898,-0.476562 0.21094,-0.953125 0.29688,-1.429687 l 0.65625,0.328125 c -0.0312,0.507812 -0.0586,1.011718 -0.0586,1.515625"
       id="path76" />
    <path
       style="fill:#ebb8ab;fill-opacity:1;fill-rule:nonzero;stroke:none"
       d="m 104.52344,14.996094 -0.65625,-0.328125 c 0.12109,-0.445313 0.21094,-0.921875 0.32812,-1.367188 l 0.44532,0.179688 c -0.0273,0.503906 -0.0859,1.011719 -0.11719,1.515625"
       id="path78" />
    <path
       style="fill:#f0bdb3;fill-opacity:1;fill-rule:nonzero;stroke:none"
       d="m 104.64063,13.480469 -0.44532,-0.179688 c 0.1211,-0.476562 0.26953,-0.921875 0.38672,-1.398437 l 0.26563,0.121094 c -0.0859,0.503906 -0.14453,0.980468 -0.20703,1.457031"
       id="path80" />
    <path
       style="fill:#f5c5b5;fill-opacity:1;fill-rule:nonzero;stroke:none"
       d="m 104.84766,12.023438 -0.26563,-0.121094 c 0.14844,-0.445313 0.26563,-0.890625 0.41797,-1.335938 l 0.0859,0.02734 c -0.0859,0.476562 -0.17578,0.953125 -0.23828,1.429688"
       id="path82" />
    <path
       style="fill:#facaba;fill-opacity:1;fill-rule:nonzero;stroke:none"
       d="M 105.08594,10.59375 105,10.566406 c 0.0586,-0.210937 0.14844,-0.386718 0.20703,-0.597656 -0.0586,0.210938 -0.0898,0.417969 -0.12109,0.625"
       id="path84" />
    <path
       style="fill:#f89c33;fill-opacity:1;fill-rule:nonzero;stroke:none"
       d="m 106.16016,39.792969 c 10.40234,2.558593 15.48437,12.9375 22.4414,20.191406 2.64453,2.199219 5.79688,3.273437 8.88672,4.339844 -2.58594,0.152343 -5.52734,-0.05859 -7.72656,-1.335938 -4.40234,-0.05859 -7.46094,-3.121093 -10.76172,-5.054687 -4.875,-4.3125 -12.09766,-5.261719 -18.48828,-3.597656 -4.73047,3.507812 -10.613282,5.144531 -15.460939,8.652343 l -0.386719,0.800781 c -3.089843,1.726563 -6.242187,4.667969 -7.726562,7.910157 0.08984,2.113281 -1.515625,4.015625 -2.261719,6.035156 -0.117187,0.863281 -0.710937,1.933594 0,2.648437 0.953125,0.445313 1.160157,-0.863281 1.875,-0.953124 0.265625,1.578124 -2.113281,4.3125 -0.179687,5.503906 l 0.386718,-0.386719 c -0.921874,2.496094 -1.574218,5.082031 -2.644531,7.523437 0.355469,-2.738281 -0.714843,-5.292968 -1.128906,-7.941406 -1.785156,0.355469 0.414063,-2.972656 -1.902344,-2.617187 l -0.746093,1.515625 v -4.546875 c -0.324219,-0.296875 -0.621094,-0.746094 -1.160157,-0.535157 l -0.144531,0.175782 c -0.08984,-1.78125 0.980469,-4.25 -0.210938,-6.035156 h -0.742187 c -0.445313,-1.515626 -0.08984,-3.152344 0.355469,-4.550782 2.914062,-0.234375 4.667968,-3.089844 5.679687,-5.5 0.05859,0.386719 0.445313,0.921875 0.949219,0.804688 2.261719,-0.507813 2.351562,-4.460938 4.90625,-3.808594 1.992188,-1.367188 2.257812,-3.746094 3.386719,-5.648438 2.320312,-0.08984 2.648437,-2.707031 3.210937,-4.339843 0.121094,-1.457031 -0.503906,-4.253907 1.84375,-3.746094 0.953125,-0.894531 2.765625,-1.992187 2.644532,-3.242187 1.726562,-1.191407 1.070312,-3.0625 2.261718,-4.550782 4.667969,-0.238281 8.472654,1.84375 12.843754,2.289063"
       id="path86" />
    <path
       style="fill:#211e1e;fill-opacity:1;fill-rule:nonzero;stroke:none"
       d="m 104.07813,46.394531 c 0.26562,-0.414062 0.26562,-0.324219 0.59375,0 0.0898,0.984375 -1.1875,-0.324219 -1.72266,0.210938 l -1.48828,-0.773438 c 0.80469,0.859375 1.8125,-0.386719 2.61719,0.5625"
       id="path88" />
    <path
       style="fill:#211e1e;fill-opacity:1;fill-rule:nonzero;stroke:none"
       d="m 108.05859,47.527344 c 0.0312,-0.179688 -0.0859,-0.269532 -0.20703,-0.386719 l 0.56641,0.5625 h -0.20703 c -0.44922,0.714844 0.83203,0.804687 0.94922,1.339844 0.11718,-0.08984 0.26953,-0.210938 0.20703,-0.386719 l -0.20703,-0.207031 1.33593,1.335937 0.21094,-0.179687 c 0,-0.238281 0.65235,1.132812 1.09766,0.539062 l 0.80469,0.800781 0.14843,-0.207031 c 0.65235,0.683594 1.07032,1.695313 1.69532,2.257813 0.32421,-0.5625 -0.53516,-1.011719 -0.53516,-1.695313 l 1.48437,2.648438 v -0.566407 l 0.95313,1.308594 0.20703,-0.148437 0.53516,0.535156 C 115.10547,54.75 112.60938,51.273438 109.96094,49.605469 l -0.20703,0.179687 c -0.74219,-0.179687 -1.25,-1.695312 -2.08203,-1.128906 -0.53125,-0.980469 -2.01954,-1.21875 -2.46485,-2.050781 0.95313,-0.238281 1.90235,1.160156 2.85156,0.921875"
       id="path90" />
    <path
       style="fill:#211e1e;fill-opacity:1;fill-rule:nonzero;stroke:none"
       d="m 118.40625,56.980469 c -0.41797,-0.535157 -1.33984,-0.472657 -1.30859,-1.335938 0.98047,-0.121093 0.89062,1.457031 1.30859,1.335938"
       id="path92" />
    <path
       style="fill:#ffffff;fill-opacity:1;fill-rule:nonzero;stroke:none"
       d="m 109.36719,56.238281 c -0.29688,1.398438 -0.29688,2.496094 0,3.953125 -3.50781,-1.484375 -7.10156,-2.617187 -11.144534,-2.644531 3.238284,-1.84375 7.191404,-2.023437 11.144534,-1.308594"
       id="path94" />
    <path
       style="fill:#a6bd59;fill-opacity:1;fill-rule:nonzero;stroke:none"
       d="m 111.03516,56.773438 -0.44922,0.355468 c 0.12109,-0.175781 0.23828,-0.296875 0.44922,-0.355468"
       id="path96" />
    <path
       style="fill:#a6bd59;fill-opacity:1;fill-rule:nonzero;stroke:none"
       d="m 110.58594,57.128906 0.44922,-0.355468 h 0.0273 c -0.0273,0.207031 0,0.386718 0,0.566406 l -0.71484,0.59375 c 0.0312,-0.296875 0.0898,-0.59375 0.23828,-0.804688"
       id="path98" />
    <path
       style="fill:#a6bd59;fill-opacity:1;fill-rule:nonzero;stroke:none"
       d="m 110.34766,57.933594 0.71484,-0.59375 c 0.0312,0.175781 0.0898,0.355468 0.14844,0.503906 l -0.89063,0.714844 c 0,-0.210938 0,-0.417969 0.0273,-0.625"
       id="path100" />
    <path
       style="fill:#a6bd59;fill-opacity:1;fill-rule:nonzero;stroke:none"
       d="m 110.32031,58.558594 0.89063,-0.714844 c 0.0586,0.148438 0.14844,0.296875 0.23828,0.417969 l -1.10156,0.890625 c -0.0273,-0.03125 -0.0273,-0.08984 -0.0273,-0.121094 0,-0.148438 0,-0.296875 0,-0.472656"
       id="path102" />
    <path
       style="fill:#a6bd59;fill-opacity:1;fill-rule:nonzero;stroke:none"
       d="m 110.34766,59.152344 1.10156,-0.890625 c 0.0898,0.117187 0.20703,0.234375 0.29687,0.355469 l -1.27734,1.039062 c -0.0586,-0.148438 -0.0898,-0.324219 -0.12109,-0.503906"
       id="path104" />
    <path
       style="fill:#a6bd59;fill-opacity:1;fill-rule:nonzero;stroke:none"
       d="m 110.46875,59.65625 1.27734,-1.039062 c 0.1211,0.117187 0.23829,0.207031 0.38672,0.328124 l -1.48437,1.160157 c -0.0625,-0.152344 -0.1211,-0.300781 -0.17969,-0.449219"
       id="path106" />
    <path
       style="fill:#a6bd59;fill-opacity:1;fill-rule:nonzero;stroke:none"
       d="m 110.64844,60.105469 1.48437,-1.160157 c 0.1211,0.08594 0.23828,0.175782 0.38672,0.296876 l -1.60547,1.25 c -0.0898,-0.121094 -0.17968,-0.238282 -0.26562,-0.386719"
       id="path108" />
    <path
       style="fill:#a6bd59;fill-opacity:1;fill-rule:nonzero;stroke:none"
       d="m 110.91406,60.492188 1.60547,-1.25 c 0.11719,0.08984 0.23828,0.175781 0.38672,0.265624 l -1.63672,1.308594 c -0.11719,-0.08984 -0.23437,-0.207031 -0.35547,-0.324218"
       id="path110" />
    <path
       style="fill:#a6bd59;fill-opacity:1;fill-rule:nonzero;stroke:none"
       d="m 111.26953,60.816406 1.63672,-1.308594 c 0.11719,0.121094 0.26563,0.210938 0.38672,0.296876 l -1.57813,1.28125 c -0.14843,-0.08984 -0.29687,-0.179688 -0.44531,-0.269532"
       id="path112" />
    <path
       style="fill:#b0c266;fill-opacity:1;fill-rule:nonzero;stroke:none"
       d="m 111.71484,61.085938 1.57813,-1.28125 c 0.11719,0.121093 0.23828,0.210937 0.35547,0.328124 l -1.42578,1.132813 c -0.17969,-0.03125 -0.35547,-0.121094 -0.50782,-0.179687"
       id="path114" />
    <path
       style="fill:#b5c770;fill-opacity:1;fill-rule:nonzero;stroke:none"
       d="m 112.22266,61.265625 1.42578,-1.132813 c 0.11719,0.121094 0.21094,0.238282 0.32812,0.359376 l -1.1914,0.917968 c -0.17578,-0.02734 -0.38282,-0.08984 -0.5625,-0.144531"
       id="path116" />
    <path
       style="fill:#bacc7d;fill-opacity:1;fill-rule:nonzero;stroke:none"
       d="m 112.78516,61.410156 1.1914,-0.917968 c 0.0898,0.117187 0.17578,0.234374 0.26563,0.386718 l -0.83203,0.652344 c -0.20703,-0.03125 -0.41407,-0.05859 -0.625,-0.121094"
       id="path118" />
    <path
       style="fill:#c5d48a;fill-opacity:1;fill-rule:nonzero;stroke:none"
       d="m 113.41016,61.53125 0.83203,-0.652344 c 0.0312,0 0.0312,0.02734 0.0312,0.05469 0.23828,-0.05469 0.5039,-0.08594 0.77344,-0.117188 l -0.98047,0.804688 c -0.20703,-0.03125 -0.41797,-0.0625 -0.65625,-0.08984"
       id="path120" />
    <path
       style="fill:#c7d794;fill-opacity:1;fill-rule:nonzero;stroke:none"
       d="m 114.06641,61.621094 0.98047,-0.804688 c 0.29687,-0.02734 0.625,-0.05859 0.92187,-0.08984 L 114.75,61.679688 c -0.23828,-0.03125 -0.44531,-0.03125 -0.68359,-0.05859"
       id="path122" />
    <path
       style="fill:#cfdea3;fill-opacity:1;fill-rule:nonzero;stroke:none"
       d="m 114.75,61.679688 1.21875,-0.953126 c 0.44531,-0.08594 0.89063,-0.207031 1.24609,-0.414062 l -1.84375,1.484375 c -0.20703,-0.05859 -0.41406,-0.08984 -0.62109,-0.117187 z m 3.38672,-2.082032 -0.59375,0.445313 c 0.14844,-0.148438 0.26562,-0.386719 0.32812,-0.625 0.0586,0.08984 0.14844,0.148437 0.26563,0.179687"
       id="path124" />
    <path
       style="fill:#d7e1b0;fill-opacity:1;fill-rule:nonzero;stroke:none"
       d="m 115.37109,61.796875 1.84375,-1.484375 c 0.1211,-0.05859 0.23829,-0.148438 0.32813,-0.269531 l 0.59375,-0.445313 c 0.17969,0.05859 0.41797,0 0.59766,0.08984 l -2.70704,2.199219 c -0.0898,0 -0.17968,0 -0.26953,0 -0.11718,-0.02734 -0.23437,-0.05859 -0.38672,-0.08984"
       id="path126" />
    <path
       style="fill:#dee6bf;fill-opacity:1;fill-rule:nonzero;stroke:none"
       d="m 116.02734,61.886719 2.70704,-2.199219 c 0.11718,0.05859 0.20703,0.148438 0.26562,0.296875 -0.0312,0.05859 -0.0586,0.121094 -0.0898,0.179687 l -1.99219,1.605469 c -0.26563,0.05859 -0.5625,0.08984 -0.89063,0.117188"
       id="path128" />
    <path
       style="fill:#e6eecf;fill-opacity:1;fill-rule:nonzero;stroke:none"
       d="m 116.91797,61.769531 1.99219,-1.605469 c -0.41407,0.949219 -1.10157,1.394532 -1.99219,1.605469"
       id="path130" />
    <path
       style="fill:#ffffff;fill-opacity:1;fill-rule:nonzero;stroke:none"
       d="m 113.70703,57.339844 c 0.32813,0.710937 -0.44531,0.859375 -0.94922,0.742187 -0.5039,0.207031 -0.77343,-0.238281 -1.10156,-0.535156 -0.0586,-0.445313 0.0312,-0.566406 0.35938,-0.773437 0.65234,-0.05859 1.45703,0 1.6914,0.566406"
       id="path132" />
    <path
       style="fill:#f0eeee;fill-opacity:1;fill-rule:nonzero;stroke:none"
       d="m 111.26953,62.035156 c 0.21094,0.535156 0.98438,0.535156 1.48828,0.804688 2.01953,0 3.80469,0.683594 5.64844,0.949218 2.55469,0.148438 5.91406,-0.503906 8.35156,0.535157 3.95313,-0.117188 7.04688,2.46875 11.11719,1.519531 0.44531,0.800781 0.59375,1.753906 1.30859,2.4375 2.23047,0.832031 3.50782,2.824219 3.59766,5.113281 -0.0586,2.945313 -2.4375,5.710938 -4.90625,6.78125 -6.95313,1.246094 -13.67187,0.207031 -19.82812,4.546875 1.07031,1.726563 2.64843,-0.769531 4.16406,-0.742187 l 5.85547,-1.515625 c 3.15234,0.148437 6.53906,-0.210938 9.80859,-0.386719 0.47656,1.277344 -0.71094,2.199219 -1.69141,2.855469 -4.75781,0.503906 -10.40625,-1.28125 -14.33203,1.484375 -1.78125,-0.328125 -2.85156,1.308593 -3.98047,2.113281 -0.625,-0.417969 -0.80468,-1.457031 -1.90234,-1.160156 -0.98437,1.039062 -1.93359,2.019531 -2.05078,3.386718 -1.25,-0.828124 -1.93359,0.746094 -2.85547,1.160157 l -0.20703,0.566406 c -0.68359,-0.742187 -1.90234,-0.652344 -2.79688,-0.414063 -1.7539,1.664063 -4.66406,3.625 -3.80468,6.0625 1.16015,-1.097656 1.48828,-2.496093 3.0625,-3.417968 -1.12891,4.789062 0.41797,8.742186 0.14843,13.617186 0.50782,1.01172 0.26954,2.08203 0.59375,3.39063 1.57813,5.38281 1.63672,11.26953 2.05079,16.44531 -1.06641,1.07031 0.41796,2.01953 0.21093,3.17969 l 0.53516,0.5664 c 0.83203,7.16406 3.83594,13.52735 3.41797,20.96094 1.78515,10.70703 -3.41797,19.95312 -4.51953,30.17969 -1.45703,7.16797 -0.41407,15.58203 -0.20703,22.48047 0.47656,2.23046 0.65234,4.78906 0.5625,6.98828 1.37109,0.14843 -0.29297,1.27734 0.74609,1.69531 -0.35938,0.47656 -1.16016,0.59375 -1.84375,0.77344 -0.68359,-0.17969 1.39844,-0.53516 0.53516,-1.33594 -0.83204,-1.42969 -2.82422,-1.42969 -4.13282,-1.13281 -0.0586,-1.36719 -1.1875,-2.97266 -0.74218,-4.51953 -0.86329,-0.65235 -0.65625,-2.26172 -0.95313,-3.41797 0.32813,-1.13282 1.72656,-2.26172 0.95313,-3.39063 l -0.80469,0.38672 c 1.21875,-1.36719 0,-3.24219 0.95312,-4.34375 -0.35547,-1.03906 1.54688,-1.87109 0.74219,-3.03125 -0.89062,1.48828 -1.87109,2.94531 -2.61328,4.55078 -0.21094,-1.78515 1.1875,-3.0625 0.91797,-4.55078 -0.38281,0.47656 -0.38281,1.07031 -0.91797,1.48828 -0.21094,-0.35937 1.30469,-2.14062 0.76953,-3.39062 -0.85937,0.38672 -1.24609,1.25 -1.33594,2.08203 0.0586,-2.02344 1.3086,-4.3711 1.8711,-6.60156 -0.0859,-0.20704 -0.38672,-0.17969 -0.53516,-0.17969 0.14844,-0.74219 -0.59375,-1.03906 -0.59375,-1.69531 l -0.92187,1.13281 c 0.38671,-1.33985 1.30859,-2.5 1.51562,-3.98828 l -0.76953,-0.14844 c 0.53516,-0.94922 0.59375,-2.10938 1.51562,-2.85156 -0.23828,-0.23828 -0.23828,-0.59766 -0.59765,-0.7461 l -0.91797,1.10157 c 0.59375,-1.96094 1.75391,-3.7461 2.61328,-5.64844 -0.20703,-0.35938 -0.5625,-0.41797 -0.89062,-0.21094 l -0.59375,0.95313 c 0.14843,-0.50391 0.5039,-0.95313 0.59375,-1.48438 l -0.59375,-0.56641 c 0.92187,-1.57421 1.27734,-3.30078 2.08203,-4.9375 l -0.38672,-0.35546 c -2.28906,3.39062 -4.66797,7.04687 -5.26172,11.29687 -1.101564,-0.14844 -0.26953,-1.83984 -0.746095,-2.61328 -0.800781,0.68359 -0.148437,1.96094 -0.59375,2.82422 -0.742187,9.39453 1.039065,19.59375 2.855465,28.1289 -0.17968,2.08204 1.07032,4.01172 0.35547,5.85938 -0.92187,0.47266 -1.84375,0.0859 -2.08203,-0.92578 -1.992186,-11.1211 -6.152342,-21.23047 -7.726561,-32.46875 -0.328125,-0.44531 -0.746094,-0.65235 -1.339844,-0.59375 -1.335937,-3.65625 -1.84375,-7.64453 -3.179687,-11.35938 -0.445313,-0.0312 -1.070313,0.0586 -1.101563,0.59375 -1.246094,-1.72265 -1.335937,-5.08593 -3.03125,-7.19531 -1.84375,0.41797 -1.097656,-1.96094 -2.109375,-2.79297 -0.417969,-2.23047 -0.566406,-4.55078 -1.308594,-6.60156 -1.039062,-0.17969 -0.417968,-1.28125 -1.128906,-1.69531 -1.339844,-7.10938 -4.042969,-13.76953 -5.261719,-20.75391 -1.785156,-1.48828 -0.476562,-4.16406 -1.128906,-6.45703 0.800781,-7.01562 -0.152344,-13.82422 1.484375,-20.75 -1.160156,-0.92578 -0.117188,-2.64844 -0.148438,-3.988281 0.386719,-3.835938 1.128907,-7.582031 3.179688,-10.734375 -0.148438,2.707031 3.09375,3.6875 3.777344,5.859375 0.625,0.714843 1.335937,2.082031 2.4375,1.875 C 83.625,93.464844 80.832031,91.382812 79.375,89.273438 78.183594,87.25 78.394531,84.632812 79.167969,82.464844 c -0.476563,-0.417969 -1.21875,-0.804688 -1.84375,-0.386719 0.414062,-1.695313 1.15625,-3.273437 1.695312,-4.90625 -1.160156,-1.042969 -1.90625,1.011719 -3.003906,1.160156 0.355469,-3.035156 3.328125,-6.125 5.441406,-8.503906 -0.746093,-0.746094 -1.605469,0.535156 -2.4375,0.742187 1.394531,-2.941406 5.644531,-5.707031 9.035157,-7.195312 1.753906,-2.824219 5.261718,-3.71875 8.261718,-4.699219 5.292974,-0.800781 10.050784,2.050781 14.953124,3.359375"
       id="path134" />
    <path
       style="fill:#ffffff;fill-opacity:1;fill-rule:nonzero;stroke:none"
       d="m 143.73047,65.277344 c 0.0898,0.566406 -0.11719,0.980468 -0.59375,1.308594 -1.16016,-0.296876 -2.46485,-0.148438 -3.59766,-0.742188 -0.47265,-1.21875 1.01172,-0.746094 1.54688,-1.160156 0.98047,-0.03125 1.93359,0.05859 2.64453,0.59375"
       id="path136" />
    <path
       style="fill:#211e1e;fill-opacity:1;fill-rule:nonzero;stroke:none"
       d="m 136.53906,69.441406 v 0.386719 l -0.35547,-0.597656 c 0.20703,-0.02734 0.26563,0.121093 0.35547,0.210937"
       id="path138" />
    <path
       style="fill:#211e1e;fill-opacity:1;fill-rule:nonzero;stroke:none"
       d="m 85.617188,94.714844 c 0.175781,-0.535156 -0.08984,-1.574219 0.742187,-1.695313 0.652344,1.488281 1.367187,2.945313 2.617187,4.164063 -1.128906,0.683594 -1.277343,-1.011719 -2.230468,-1.515625 -0.08984,0.296875 -0.535156,1.15625 -0.953125,0.5625 -1.453125,-0.949219 -1.871094,-2.675781 -2.4375,-4.160157 1.90625,-0.417968 0.953125,2.199219 2.261719,2.644532"
       id="path140" />
    <path
       style="fill:#211e1e;fill-opacity:1;fill-rule:nonzero;stroke:none"
       d="M 97.121094,97.183594 C 95.21875,98.132812 95.25,95.546875 94.265625,94.714844 v -0.535156 c 0.953125,0.980468 1.515625,2.140624 2.855469,3.003906"
       id="path142" />
    <path
       style="fill:#211e1e;fill-opacity:1;fill-rule:nonzero;stroke:none"
       d="m 91.980469,95.875 2.109375,2.050781 c -0.269532,0.507813 -0.269532,0.59375 -0.210938,1.160157 -0.980468,-1.308594 -3.179687,-2.558594 -3.207031,-4.550782 1.039063,-0.472656 1.15625,0.746094 1.308594,1.339844"
       id="path144" />
    <path
       style="fill:#211e1e;fill-opacity:1;fill-rule:nonzero;stroke:none"
       d="m 89.570312,95.488281 1.101563,1.871094 -1.101563,-1.871094"
       id="path146" />
    <path
       style="fill:#f89c33;fill-opacity:1;fill-rule:nonzero;stroke:none"
       d="m 72.417969,130.42578 0.953125,5.08594 c 1.632812,1.03906 0.679687,3.77734 1.484375,5.5 1.488281,1.84375 1.753906,4.46094 2.644531,6.75 1.28125,1.57422 1.339844,3.95312 1.875,6.03515 1.367188,3.30079 1.871094,7.01954 3.03125,10.40625 0.296875,0.26954 0.949219,0.26954 1.160156,0.15235 1.160156,2.28906 2.167969,4.875 3.179688,7.40234 0.355468,-0.0586 0.59375,0.74219 0.953125,0.14844 2.136719,3.39062 1.691406,8.17578 3.355469,11.89453 0.328124,0.17969 0.539062,-0.14844 0.773437,-0.35547 0.328125,1.57422 0.863281,3 0.953125,4.75781 2.109375,8.74219 5.113281,17.36329 6.597656,26.19532 -1.277344,0.35547 -2.644531,0.68359 -3.597656,1.33593 -0.445312,-0.41406 0,-0.94921 0.179688,-1.33593 -2.199219,-1.10157 -6.746094,3.38672 -6.597657,-1.66797 l -1.132812,-5.67578 c -2.523438,-5.14453 -2.523438,-11.27344 -5.082031,-16.44532 0.445312,-0.59375 0.08984,-1.33984 -0.386719,-1.875 l -0.742188,-0.38281 -0.207031,-7.34765 c -1.398438,-0.59375 0.476562,-1.8125 -1.101562,-2.28907 -0.08594,-2.17187 -1.070313,-4.07422 -2.644532,-5.46875 0.414063,1.60547 0.328125,3.21094 1.101563,4.90235 1.128906,5.59375 -3.777344,9.84375 -7.34375,13.80078 -0.08984,0.5625 -0.08984,0.65234 0.207031,1.09765 h 0.179688 c -0.804688,1.48829 -1.960938,2.97266 -3.035157,4.19141 2.082031,0.89453 0.269531,2.02344 0,3.21484 -0.117187,1.45704 -1.335937,3.08985 -0.355469,4.33985 0.773438,3.39062 -1.542968,6.24609 -1.695312,9.24609 -0.234375,2.11328 -1.691406,3.7461 -2.078125,5.85938 L 64.125,220.28516 c -0.148438,-0.41797 0.117188,-1.57813 0.355469,-2.28907 -3.089844,0.26563 -5.824219,2.40625 -8.886719,3.24219 -2.230469,0.11719 -4.191406,1.42578 -6.214844,1.48438 l -0.386718,-0.38672 c -5.765626,0.86328 -12.75,1.90234 -17.746094,-1.3086 -0.566406,-0.71484 -2.019532,-0.83203 -1.695313,-2.08203 -1.1875,-0.94922 -3.625,-0.98047 -3.207031,-3.21094 l 0.207031,-0.20703 -1.160156,-1.1289 c -1.011719,0.41406 0.625,0.94922 -0.179687,1.54297 0.832031,2.3789 2.082031,4.82031 4.90625,5.29687 4.636718,4.16016 11.445312,3.03125 17.359374,2.4375 1.277344,1.07031 3.269532,0.38281 4.550782,-0.17969 3.65625,-0.92187 7.011718,-2.64453 10.550781,-3.95312 -0.296875,0.68359 -0.238281,1.51562 0.386719,2.05078 2.675781,-0.20703 4.816406,-1.81641 7.371094,-2.26172 0.863281,-0.53516 2.023437,-0.53516 3.035156,-0.74219 1.007812,-0.71484 2.257812,-0.92187 3.386718,-1.33593 0.117188,0.85937 -1.21875,2.76171 0.355469,3.38671 2.261719,-0.41406 4.164063,-2.23046 6.453125,-2.05078 2.703125,-1.25 6.242188,-1.33593 9.007813,-2.85547 l 1.691406,-0.20703 c -0.05859,0.86328 -0.742187,1.45703 -0.742187,2.25782 l 0.566406,0.41796 c 3.238281,-2.64843 7.847656,-2.64843 11.324216,-4.37109 0.95313,-0.32812 2.34766,-0.11719 3.21094,-0.17578 -0.95312,0.38281 -1.27734,1.33594 -1.30859,2.28516 0.65625,1.16015 1.72656,0.12109 2.64453,0.15234 3.66015,-1.13281 7.91015,-1.51953 11.68359,-1.875 -0.5039,0.35547 -0.5039,0.89062 -0.74219,1.30859 2.88282,1.72657 7.3711,0.625 10.55469,1.3086 2.13672,0.47656 4.45703,0.47656 6.59766,0.94922 -1.07032,0.68359 -0.80469,2.11328 -0.56641,3.0664 -1.8125,-0.12109 -3.32812,1.36719 -4.33984,3.03125 -0.11719,1.07031 0.41797,2.46875 -1.09766,2.40625 -2.23047,1.42969 -2.52734,3.66016 -2.85547,5.89063 1.99219,1.8125 -1.60547,2.76562 -1.69531,4.69531 -0.38672,1.60937 0.50781,2.73828 1.10156,3.95703 -1.51562,1.27734 -2.34765,3.15234 -1.69531,5.14453 0.83203,1.42578 4.55078,2.88281 2.85547,4.69922 -0.53516,1.24609 1.1289,1.72266 1.48437,2.4375 0.80469,0.5625 2.5586,1.27734 2.11328,2.25781 -1.30859,2.23047 2.07813,3.83594 3.38672,5.11328 l 1.90235,0.7461 c -1.60547,1.57422 -4.54688,0.80078 -6.44922,2.08203 -7.43359,3.08984 -15.96484,3.41797 -24.14063,4.75391 -0.91796,0.5664 -2.85156,-0.53125 -3.03125,0.89453 l 2.64454,1.54687 c -3.95313,0.59375 -7.906255,1.84375 -11.89063,1.8711 -5.824219,1.75781 -11.976562,-0.14844 -18.101562,0.17968 l -3.773438,-1.10156 c -5.324219,0.12109 -10.671875,-0.83203 -15.667969,-2.07812 -0.328125,0.20703 -0.417969,0.53515 -0.355469,0.91796 0.742188,0.65625 1.15625,0.95313 1.84375,1.72657 -3.390624,-0.625 -6.839843,-0.92188 -9.78125,-2.64453 -2.527343,0.53515 -5.234374,-0.56641 -7.757812,-1.16016 -2.527344,-0.68359 -5.113281,-1.42969 -7.34375,-3.00391 -4.875,-1.28125 -9.1875,-4.01562 -13.585938,-6.45312 -1.1875,-0.77344 -2.140624,-2.17188 -3.597656,-2.4375 -2.882812,-1.96485 -6.867187,-4.07422 -7.933594,-7.55469 -1.160156,-0.92187 -0.863281,-2.34766 -1.695312,-3.39062 -1.308594,-3.21094 -3.65625,-5.64844 -3.003906,-9.45313 -1.664063,-6.60156 1.25,-12.22266 3.746094,-17.54297 3.449218,-5.08594 7.164062,-10.79687 12.84375,-13.79687 0.207031,0.23828 0.472656,0.29687 0.742187,0.35547 0.328125,-2.67579 0.921875,-4.78516 0.949219,-7.34375 1.070312,-2.4375 2.347656,-4.75782 2.648437,-7.55469 0.742188,-0.44531 0.08594,-1.48438 0.59375,-2.05078 1.21875,-5.5 5.441407,-9.66407 8.648438,-14.33203 7.164062,-9.51563 16.828125,-15.34375 26.070312,-22.09375 1.308594,-2.52735 4.488281,-4.25 4.339844,-7.40235 -0.05859,-6.78125 1.667969,-13.85547 5.472656,-19.59375 1.574219,1.57422 -0.832031,4.3711 1.335938,5.85547"
       id="path148" />
    <path
       style="fill:#e8e8e8;fill-opacity:1;fill-rule:nonzero;stroke:none"
       d="m 80.710938,186.44531 c 0.121093,1.57813 0.535156,3.27344 0.359374,4.75781 h 0.59375 c 2.585938,5.6211 3.296876,11.30079 4.902344,17.33594 0.210938,1.12891 -0.296875,1.90235 -0.949218,2.64453 -0.296876,2.20313 -0.683594,4.3125 -2.46875,5.85938 l -5.46875,2.08203 c -0.238282,-1.36719 2.4375,-2.19922 0.953124,-3.39063 -4.164062,1.16016 -8.414062,2.23047 -12.457031,3.59766 2.320313,-2.73437 1.574219,-7.43359 3.597657,-10.58594 l 0.355468,-5.29297 c -0.625,-1.30859 0.417969,-2.82421 0.953125,-4.16015 0.117188,-0.86328 2.226563,-2.02344 0.386719,-2.64844 l -0.597656,0.38672 c 0.835937,-1.66406 3.242187,-2.85156 2.5,-4.875 2.496094,-2.61719 4.8125,-5.29297 6.390625,-8.35547 0.890625,0.50391 0.625,1.78516 0.949219,2.64453"
       id="path150" />
    <path
       style="fill:#f0eeee;fill-opacity:1;fill-rule:nonzero;stroke:none"
       d="m 160.52734,228.19531 c 1.69532,1.99219 4.04297,3.47656 5.64844,5.67969 -0.26562,-0.0898 -0.35547,0.23828 -0.56641,0.35547 v 0.59375 c 2.46875,2.97265 5.08594,5.94531 5.85938,9.60547 -1.19141,2.34765 -1.99219,5.20312 -4.13281,6.80859 l 0.74218,0.92188 c -0.77343,1.39843 -2.25781,1.45703 -3.38671,1.30859 -2.46875,0.53516 -4.81641,1.27734 -7.375,1.54687 l -0.38672,0.35547 0.38672,0.38672 c -5.28907,1.10156 -9.86719,3.95313 -15.27735,4.72656 -1.25,-1.60546 -2.55859,-0.11718 -3.98437,-0.5625 -1.12891,-0.92187 -2.46875,-1.36718 -3.35938,-2.64843 -0.41797,-0.89063 -0.20703,-2.16797 0.53516,-2.64453 -1.12891,-1.57422 -4.75781,-2.02344 -3.98438,-4.55079 1.54688,-1.96093 -2.05078,-2.55468 -2.79297,-3.95312 -0.62499,-0.98047 -0.44531,-1.90234 -0.20703,-3.00391 l 1.90235,-2.08203 c -0.83203,-1.27734 -1.69532,-2.79297 -1.33985,-4.33984 0.47657,-1.39844 1.99219,-2.41016 3.03125,-3.03516 -1.07031,-0.74219 -1.66406,-1.99219 -1.1289,-3.17969 0.26953,-1.48828 1.16015,-2.97265 2.64843,-3.59765 2.76172,0.0273 0.0586,-3.1836 2.22657,-4.16406 0.65625,-1.66407 2.88281,0.14843 3.42187,-1.48438 0,-0.80469 -0.86328,-1.63672 0,-2.29297 7.72656,1.75391 14.74219,5.11328 21.51953,9.25"
       id="path152" />
    <path
       style="fill:#f8ab59;fill-opacity:1;fill-rule:nonzero;stroke:none"
       d="m 70.695312,125.19141 c -0.03125,3.59765 0.08594,8.38671 -0.417968,9.1289 h -0.414063 c 0,0.83203 -0.417969,2.91406 -0.417969,3.75 -0.832031,0 0,1.2461 -0.832031,1.2461 0,0.83203 -0.832031,8.26562 0,8.26562 0,0.83594 -1.25,2.46875 -1.25,3.30078 0.417969,0 0.832031,0.41797 1.25,0.41797 l -0.417969,0.41406 c -0.414062,0 -5.792968,3.7461 -6.628906,4.16407 0,0.41796 0,1.63671 0.417969,1.63671 0,1.25 -4.132813,3.32813 -4.546875,4.57813 0.414062,0 0.800781,0.41797 1.21875,0.41797 -2.054688,0 -5.796875,4.96484 -7.464844,4.96484 v -0.83203 c 0,1.66406 -7.875,3.32813 -7.875,5.79688 h 0.832032 c -2.46875,2.49609 -4.550782,6.6289 -7.046876,9.1289 0,-0.41797 -0.832031,-2.5 0,-2.5 -2.464843,2.5 -4.546874,12.87891 -6.210937,12.87891 0,0.83203 -1.664063,4.54687 -2.082031,4.96484 0,-0.41797 -0.414063,-0.83203 -0.414063,-1.25 l -0.804687,-0.41797 c 0,5.82813 -5.410156,10.79688 -5.410156,15.76172 -0.417969,0 -0.832032,-0.41797 -1.664063,-0.41797 0,2.5 0.832031,5.82813 0.832031,7.87891 h 1.25 l -0.417968,0.41797 h -1.664063 c 0.414063,0 1.246094,1.25 1.664063,1.66406 2.347656,0 5.796874,1.10156 8.621093,1.22266 4.609375,3.50781 11.058594,2.46484 16.675781,1.90234 1.277344,1.07031 3.269532,0.38281 4.550782,-0.17969 3.65625,-0.92187 7.011718,-2.64453 10.550781,-3.95312 -0.296875,0.68359 -0.238281,1.51562 0.386719,2.05078 2.675781,-0.20703 4.816406,-1.81641 7.371094,-2.26172 0.863281,-0.53516 2.023437,-0.53516 3.035156,-0.74219 1.007812,-0.71484 2.257812,-0.92187 3.386718,-1.33593 0.117188,0.85937 -1.21875,2.76171 0.355469,3.38671 2.261719,-0.41406 4.164063,-2.23046 6.453125,-2.05078 2.703125,-1.25 6.242188,-1.33593 9.007813,-2.85547 l 1.691406,-0.20703 c -0.05859,0.86328 -0.742187,1.45703 -0.742187,2.25782 l 0.566406,0.41796 c 3.238281,-2.64843 7.847656,-2.64843 11.324216,-4.37109 0.95313,-0.32812 2.34766,-0.11719 3.21094,-0.17578 -0.95312,0.38281 -1.27734,1.33594 -1.30859,2.28516 0.65625,1.16015 1.72656,0.12109 2.64453,0.15234 3.66015,-1.13281 7.91015,-1.51953 11.68359,-1.875 -0.5039,0.35547 -0.5039,0.89062 -0.74219,1.30859 2.88282,1.72657 7.3711,0.625 10.55469,1.3086 2.13672,0.47656 4.45703,0.47656 6.59766,0.94922 -1.07032,0.68359 -0.80469,2.11328 -0.56641,3.0664 -1.8125,-0.12109 -3.32812,1.36719 -4.33984,3.03125 -0.0273,0.14844 -0.0273,0.32813 -0.0273,0.50391 l -0.26953,0.29687 h -14.11718 c 0,1.25 0.83203,4.16407 2.07812,4.16407 l -23.632812,0.83203 c 0,0.83203 0.417968,1.66797 0.832031,1.66797 0.417969,0.80078 1.667969,1.63281 2.500001,2.05078 l -21.109376,-0.83203 c 0,1.24609 1.222656,2.49609 2.054687,2.91406 H 67.78125 c -2.46875,0 -6.628906,0 -9.125,-0.41797 -2.054688,0 -5.382812,-0.83203 -7.464844,-0.83203 0,1.25 1.25,4.16406 2.082032,4.96484 h 1.25 l -14.089844,-1.21875 c -6.628906,-1.24609 -14.089844,-7.46484 -21.136719,-7.46484 0,2.05469 0.414063,4.55078 0.414063,6.21875 l -9.539063,-7.05078 c 0,-1.25 -0.832031,-2.91407 -0.832031,-4.57813 0,0.41797 -0.417969,1.25 -0.417969,1.66406 -0.414063,0 -0.832031,0.83594 -0.832031,1.25 0,-2.55859 -0.269532,-4.875 -0.507813,-7.10546 0.417969,-0.86329 0.804688,-1.69532 1.191407,-2.52735 3.449218,-5.08594 7.164062,-10.79687 12.84375,-13.79687 0.207031,0.23828 0.472656,0.29687 0.742187,0.35547 0.328125,-2.67579 0.921875,-4.78516 0.949219,-7.34375 1.070312,-2.4375 2.347656,-4.75782 2.648437,-7.55469 0.742188,-0.44531 0.08594,-1.48438 0.59375,-2.05078 1.21875,-5.5 5.441407,-9.66407 8.648438,-14.33203 7.164062,-9.51563 16.828125,-15.34375 26.070312,-22.09375 1.308594,-2.52735 4.488281,-4.25 4.339844,-7.40235 -0.05859,-6.54297 1.546875,-13.35156 5.085937,-18.97265 z m -31.480468,98.00781 c 2.050781,0.0586 4.132812,-0.0898 6.152344,-0.35547 -0.328126,-0.0312 -0.59375,-0.12109 -0.800782,-0.21094 v -0.41406 c -1.398437,0 -3.363281,0.5625 -5.351562,0.98047 z m 10.253906,-0.47656 c 0.386719,-0.0312 0.804688,-0.0898 1.191406,-0.17969 -0.417968,0.0625 -0.804687,0.12109 -1.191406,0.17969 z m 14.773438,-3.83594 c -0.05859,0.17969 -0.08984,0.38672 -0.117188,0.5664 0.175781,-0.17968 0.355469,-0.38671 0.355469,-0.5664 -0.08984,0 -0.179688,0 -0.238281,0 z m -0.148438,1.01172 c -0.02734,0.14843 0,0.29687 0.03125,0.38672 l 0.921875,-0.38672 c 0.08594,-0.35547 0.179687,-0.6836 0.265625,-1.01172 0,0.26953 -0.742188,0.74609 -1.21875,1.01172 z m 28.539062,-5.08594 c 0.08984,-0.0273 0.179688,-0.0586 0.265626,-0.0898 -0.117188,0 -0.207032,0.0312 -0.265626,0.0312 z m 3.148438,0.92187 c 0.03125,-0.0273 0.0625,-0.0273 0.08984,-0.0586 -0.02734,0.0312 -0.05859,0.0312 -0.08984,0.0586"
       id="path154" />
    <path
       style="fill:#e39738;fill-opacity:1;fill-rule:nonzero;stroke:none"
       d="m 4.550781,232.56641 c 2.082031,8.82812 7.878907,18.82031 15.964844,23.22265 h 0.414063 v -2.46875 c 4.582031,0 14.121093,2.05078 18.253906,4.13281 -0.417969,-1.25 -1.25,-2.08203 -1.25,-3.30078 3.332031,0.80469 5.382812,3.30078 8.296875,4.96485 4.546875,2.5 17.417969,7.46484 15.335937,2.88672 v -0.38672 c 2.082032,0 4.550782,1.21875 6.214844,2.05078 3.328125,1.66406 21.9375,5.79687 16.171875,0 0,-0.83203 -0.417969,-2.05078 -0.417969,-2.88281 5.351563,2.46484 12.394532,2.05078 18.222654,2.05078 -0.83203,-0.41797 -2.078122,-5.38282 -2.078122,-6.21485 7.042972,0 15.335942,3.7461 23.214842,3.7461 -0.41797,-0.83203 -2.49609,-4.57813 -2.91406,-4.57813 l 0.41797,-0.41797 12.45312,0.83203 c -0.41406,-0.41406 -0.83203,-1.24609 -0.83203,-2.05078 -0.41797,0 -0.83203,-0.41797 -1.25,-0.41797 0.53906,0 1.07031,0.0312 1.60547,0.0898 0.68359,0.41797 1.28125,0.92187 0.98437,1.54687 -1.30859,2.23047 2.07813,3.83594 3.38672,5.11328 l 1.90235,0.7461 c -1.60547,1.57422 -4.54688,0.80078 -6.44922,2.08203 -7.43359,3.08984 -15.96484,3.41797 -24.14063,4.75391 -0.91796,0.5664 -2.85156,-0.53125 -3.03125,0.89453 l 2.64454,1.54687 c -3.95313,0.59375 -7.906255,1.84375 -11.89063,1.8711 -5.824219,1.75781 -11.976562,-0.14844 -18.101562,0.17968 l -3.773438,-1.10156 c -5.324219,0.12109 -10.671875,-0.83203 -15.667969,-2.07812 -0.328125,0.20703 -0.417969,0.53515 -0.355469,0.91796 0.742188,0.65625 1.15625,0.95313 1.84375,1.72657 -3.390624,-0.625 -6.839843,-0.92188 -9.78125,-2.64453 -2.527343,0.53515 -5.234374,-0.56641 -7.757812,-1.16016 -2.527344,-0.68359 -5.113281,-1.42969 -7.34375,-3.00391 -4.875,-1.28125 -9.1875,-4.01562 -13.585938,-6.45312 -1.1875,-0.77344 -2.140624,-2.17188 -3.597656,-2.4375 C 14.777344,254.35937 10.792969,252.25 9.726562,248.76953 8.566406,247.84766 8.863281,246.42187 8.03125,245.37891 6.722656,242.16797 4.375,239.73047 5.027344,235.92578 4.730469,234.76562 4.582031,233.66406 4.550781,232.56641"
       id="path156" />
    <path
       style="fill:#e39738;fill-opacity:1;fill-rule:nonzero;stroke:none"
       d="m 78.15625,173.69141 c 0,0.0273 0.02734,0.0586 0.02734,0.0898 0,0.0273 0,0.0586 0.03125,0.0859 z m 3.269531,7.04687 h 0.03125 c 0,0.0273 0,0.0273 0,0.0586 0,-0.0312 -0.03125,-0.0312 -0.03125,-0.0586 z m 0.445313,2.25781 c 0.117187,0.14844 0.238281,0.23828 0.417968,0.23828 0,1.25 0.832032,4.55079 1.664063,5.38282 h 0.414063 c 0,0.41406 0.417968,1.25 0.832031,1.25 0,0.41406 0.417969,2.08203 0.832031,2.08203 0,6.21484 4.9375,12.84375 4.9375,19.47265 0.414062,0 1.246094,1.66797 1.664062,1.66797 v 1.66407 h -2.855468 c -0.296875,-0.38672 -0.445313,-1.01172 -0.414063,-2.02344 l -1.132812,-5.67578 c -2.523438,-5.14453 -2.523438,-11.27344 -5.082031,-16.44532 0.445312,-0.59375 0.08984,-1.33984 -0.386719,-1.875 l -0.742188,-0.38281 z m -11.175782,12.42969 c 0.5625,-0.77344 1.097657,-1.57422 1.515626,-2.37891 H 72.03125 c -0.296875,-0.44531 -0.296875,-0.53515 -0.207031,-1.09765 3.566406,-3.95703 8.472656,-8.20703 7.34375,-13.80078 -0.65625,-1.42578 -0.6875,-2.76172 -0.921875,-4.12891 -0.296875,-0.12109 -0.507813,-0.44922 -0.507813,-0.74609 -0.832031,2.08203 -1.664062,5.79687 -1.664062,8.29687 -0.417969,0 -0.832031,-0.41797 -1.25,-0.83203 h -1.246094 v 5.41016 c -0.804687,0 -1.21875,0.38672 -2.050781,0.38672 l -0.417969,0.41796 c 0,3.15235 -0.355469,5.91407 -0.414063,8.47266"
       id="path158" />
    <path
       style="fill:#e39738;fill-opacity:1;fill-rule:nonzero;stroke:none"
       d="m 74.203125,62.332031 c -1.371094,3.09375 -2.882813,6.632813 -2.882813,10.023438 L 71.527344,71.9375 c 0.414062,0 1.039062,-0.417969 1.457031,-0.417969 -1.25,0.625 -0.625,6.214844 -0.625,7.257813 h 0.414063 c 0,0.417968 -0.207032,1.664062 -0.207032,2.46875 h 0.804688 c 0,0.621094 -0.210938,1.457031 -0.210938,2.082031 h 0.832032 v 2.078125 h 0.832031 c 0.539062,1.726562 -0.117188,3.300781 -0.679688,4.789062 -0.121093,-2.023437 -0.835937,-4.015624 -1.160156,-6.066406 -1.785156,0.355469 0.414063,-2.972656 -1.902344,-2.617187 l -0.746093,1.515625 v -4.546875 c -0.324219,-0.296875 -0.621094,-0.746094 -1.160157,-0.535157 l -0.144531,0.175782 c -0.08984,-1.78125 0.980469,-4.25 -0.210938,-6.035156 h -0.742187 c -0.445313,-1.515626 -0.08984,-3.152344 0.355469,-4.550782 2.914062,-0.234375 4.667968,-3.089844 5.679687,-5.5 0,0.08984 0.03125,0.179688 0.08984,0.296875"
       id="path160" />
    <path
       style="fill:#fab354;fill-opacity:1;fill-rule:nonzero;stroke:none"
       d="m 90.996094,42.46875 c 2.410156,-0.5625 5.054687,-0.5625 7.285156,-0.5625 -0.207031,0.207031 -0.269531,-0.03125 -0.269531,0.179688 1.992191,0.296874 7.609371,1.308593 7.878911,1.84375 h -0.41797 c 0.95312,0.02734 10.28515,5.378906 9.96093,5.828124 -0.77343,-0.449218 10.04688,7.136719 10.96875,8.890626 0.41407,0 2.28907,1.664062 2.4961,1.871093 0.11718,0 0.38672,0.08984 0.59375,0.148438 -0.29688,-0.207031 -0.59375,-0.445313 -0.89063,-0.683594 -6.95703,-7.253906 -12.03906,-17.632813 -22.4414,-20.191406 -4.3711,-0.445313 -8.175785,-2.527344 -12.843754,-2.289063 -1.191406,1.488282 -0.535156,3.359375 -2.261718,4.550782 0,0.148437 0,0.296874 -0.05859,0.414062 z m 38.734376,18.347656 v 0.117188 c 0,0 0.29687,0.152344 0.59375,0.269531 -0.20703,-0.117187 -0.41406,-0.238281 -0.59375,-0.386719 z m 1.16015,0.742188 c 0.32813,0.417968 1.09766,0.746094 1.96094,0.984375 -0.68359,-0.296875 -1.33594,-0.625 -1.96094,-0.984375"
       id="path162" />
    <path
       style="fill:#ffffff;fill-opacity:1;fill-rule:nonzero;stroke:none"
       d="m 84.070312,71.3125 c -0.386718,0 -1.335937,1.519531 -1.722656,1.695312 0.386719,0 0.949219,-0.386718 1.335938,-0.386718 -1.902344,0 -2.289063,6.898437 -3.445313,6.898437 0,-0.742187 0.769531,-1.308593 1.542969,-1.308593 0,3.359374 -1.367188,10.082031 1.726562,12.3125 h 0.175782 c 0.773437,-0.566407 1.160156,-2.796876 1.933594,-3.539063 h 0.386718 c 0,2.617187 1.753906,5.023437 3.445313,6.71875 0.386719,-0.949219 1.371093,-2.972656 2.144531,-3.746094 h 0.5625 c 0,0.953125 1.546875,2.4375 1.933594,3.003907 1.367187,-0.566407 2.914062,-4.492188 4.457031,-4.492188 0.386719,0.746094 0.773437,1.488281 0.953125,2.261719 0.179688,-2.378907 6.09375,-5.796875 6.39063,-3.566407 l 0.38671,0.207032 0.17579,-0.207032 c 0.21093,0.5625 -0.94922,0.742188 -0.94922,1.515626 0.94922,0 4.42968,-3.003907 5.76562,-3.570313 -2.3164,0 -2.70312,-0.921875 -4.42969,0.210937 v -2.441406 c -1.72265,0 -5.02343,1.695313 -5.79687,3.183594 -0.76953,-1.488281 0.21094,-1.875 0.21094,-3.746094 -1.367191,0 -4.460941,1.691406 -4.460941,2.4375 0,-1.488281 -0.175781,-3.746094 1.160156,-5.023437 -2.316406,0 -5.972656,1.277343 -7.132813,3.535156 0,-3.921875 2.703126,-8.414063 2.703126,-11.953125 -0.207032,0.207031 -0.773438,0.207031 -1.160157,0.207031 -0.207031,0.179688 -0.382812,0.359375 -0.769531,0.359375 0,0.175782 -0.773438,0.953125 -0.773438,1.128906 -1.371093,-1.308593 3.269532,-5.589843 3.269532,-6.898437 0.207031,-0.207031 0.773437,-0.386719 0.980468,-0.386719 -1.011718,-1.457031 -9.511718,2.230469 -11,5.589844"
       id="path164" />
    <path
       style="fill:#ffffff;fill-opacity:1;fill-rule:nonzero;stroke:none"
       d="m 104.10547,97.210938 c -0.83203,1.132812 -1.92969,1.933593 -1.92969,3.125002 -0.41797,0.41406 -1.66406,1.66406 -2.08203,2.49609 h 1.66406 c 0,2.05078 -1.66406,4.13281 -1.66406,6.21485 h 0.83203 v 6.6289 h 1.25 v 6.21485 h 2.05078 c 0,2.08203 -0.41797,4.16406 -0.41797,6.21484 1.63672,3.57031 -0.47265,18.05078 0,22.36328 0.41797,0 4.16407,-10.32031 4.57813,-10.32031 v 7.01953 h 0.83203 c 1.63672,3.30078 0.83203,8.71094 0.83203,12.42578 0.41797,0 1.21875,0.41797 1.63672,0.41797 0,6.48437 -0.74219,12.78515 -1.33984,19.14844 1.72656,-8.74219 5.47265,-16.94922 3.92578,-26.28516 0.41797,-7.43359 -2.58594,-13.79688 -3.41797,-20.96094 l -0.53516,-0.5664 c 0.20703,-1.16016 -1.27734,-2.10938 -0.21093,-3.17969 -0.41407,-5.17578 -0.47266,-11.0625 -2.05079,-16.44531 -0.32421,-1.3086 -0.0859,-2.37891 -0.59375,-3.39063 0.26954,-4.875 -1.27734,-8.828124 -0.14843,-13.617186 -1.57422,0.921875 -1.90235,2.320312 -3.0625,3.417968 -0.11719,-0.296874 -0.14844,-0.625 -0.14844,-0.921874 z m 0,-0.207032 h -0.29688 0.29688"
       id="path166" />
    <path
       style="fill:#ffffff;fill-opacity:1;fill-rule:nonzero;stroke:none"
       d="m 134.66406,224.32812 c 4.22266,0.29688 5.91797,2.5586 9.78125,4.10157 h -1.66406 l 13.25781,3.30468 c -0.80078,0 8.29297,4.9961 9.95703,4.9961 -2.14062,0 0.17969,1.00781 2.5586,1.7539 -0.92188,-1.25 -1.9336,-2.46875 -2.94532,-3.66015 v -0.59375 c 0.21094,-0.11719 0.30079,-0.44531 0.56641,-0.35547 -1.60547,-2.20313 -3.95312,-3.6875 -5.64844,-5.67969 -6.77734,-4.13672 -13.79297,-7.49609 -21.51953,-9.25 -0.86328,0.65625 0,1.48828 0,2.29297 -0.53906,1.63281 -2.76562,-0.17969 -3.42187,1.48438 -0.0859,0.0312 -0.14844,0.0586 -0.23438,0.12109 0,0.20703 -0.0312,0.41406 -0.0312,0.62109 l -0.59375,0.30078 c -0.0625,0.17579 -0.0625,0.35547 -0.0625,0.5625"
       id="path168" />
    <path
       style="fill:#d9d9d9;fill-opacity:1;fill-rule:nonzero;stroke:none"
       d="m 134.8125,255.04687 c 2.88672,0.20704 6.125,0.74219 8.80078,0.74219 -0.83203,-0.83203 -1.66406,-2.46875 -2.49609,-2.46875 v -1.66406 c 5.82422,0 12.45312,-3.33203 18.25,-3.33203 l -0.83203,0.83203 c 1.25,0 5.62109,0.23828 9.92968,1.01172 -0.32812,0.38672 -0.71484,0.77344 -1.1289,1.07031 l 0.74218,0.92188 c -0.77343,1.39843 -2.25781,1.45703 -3.38671,1.30859 -2.46875,0.53516 -4.81641,1.27734 -7.375,1.54687 l -0.38672,0.35547 0.38672,0.38672 c -5.28907,1.10156 -9.86719,3.95313 -15.27735,4.72656 -1.25,-1.60546 -2.55859,-0.11718 -3.98437,-0.5625 -1.12891,-0.92187 -2.46875,-1.36718 -3.35938,-2.64843 -0.32812,-0.71094 -0.26953,-1.63282 0.11719,-2.22657"
       id="path170" />
    <path
       style="fill:#8f6b45;fill-opacity:1;fill-rule:nonzero;stroke:none"
       d="m 80.503906,9.464844 c -1.785156,4.550781 -4.429687,11.242187 -6.511718,13.320312 v 1.667969 h -0.832032 v 2.496094 l -1.632812,1.636719 c 0,1.664062 -1.664063,4.160156 -2.496094,5.828124 -3.125,7.761719 0.355469,20.664063 -2.648438,28.394532 -0.175781,-0.414063 -0.535156,-0.773438 -1.15625,-0.921875 C 64.570312,56.773438 65.878906,51.597656 64.125,46.960938 63.53125,34.886719 66.472656,22.398438 76.371094,13.71875 77.949219,12.4375 79.226562,10.894531 80.503906,9.464844 Z M 84.785156,5.75 v 0.445312 c -0.148437,-0.03125 -0.296875,0 -0.445312,0.027344 C 83.65625,6.34375 84.042969,6.730469 83.03125,6.9375 83.59375,6.492188 84.160156,6.074219 84.785156,5.75"
       id="path172" />
  </g>
</svg>
