<?xml version="1.0" encoding="UTF-8" standalone="no"?>
<svg
   xmlns:dc="http://purl.org/dc/elements/1.1/"
   xmlns:cc="http://creativecommons.org/ns#"
   xmlns:rdf="http://www.w3.org/1999/02/22-rdf-syntax-ns#"
   xmlns:svg="http://www.w3.org/2000/svg"
   xmlns="http://www.w3.org/2000/svg"
   xmlns:sodipodi="http://sodipodi.sourceforge.net/DTD/sodipodi-0.dtd"
   xmlns:inkscape="http://www.inkscape.org/namespaces/inkscape"
   version="1.1"
   viewBox="0 0 354.27061 328.97187"
   id="svg89"
   sodipodi:docname="fuse.svg"
   width="93.7341mm"
   height="87.040474mm"
   inkscape:version="1.0.2-2 (e86c870879, 2021-01-15)">
  <metadata
     id="metadata93">
    <rdf:RDF>
      <cc:Work
         rdf:about="">
        <dc:format>image/svg+xml</dc:format>
        <dc:type
           rdf:resource="http://purl.org/dc/dcmitype/StillImage" />
        <dc:title></dc:title>
      </cc:Work>
    </rdf:RDF>
  </metadata>
  <sodipodi:namedview
     pagecolor="#ffffff"
     bordercolor="#666666"
     borderopacity="1"
     objecttolerance="10"
     gridtolerance="10"
     guidetolerance="10"
     inkscape:pageopacity="0"
     inkscape:pageshadow="2"
     inkscape:window-width="1920"
     inkscape:window-height="1017"
     id="namedview91"
     showgrid="true"
     units="mm"
     inkscape:zoom="0.90509668"
     inkscape:cx="-79.600078"
     inkscape:cy="92.241241"
     inkscape:window-x="-8"
     inkscape:window-y="-8"
     inkscape:window-maximized="1"
     inkscape:current-layer="svg89">
    <inkscape:grid
       type="xygrid"
       id="grid940"
       originx="-18.833119"
       originy="-17.397846" />
  </sodipodi:namedview>
  <defs
     id="defs41">
    <filter
       id="l"
       x="-0.43439001"
       y="-0.46335"
       width="1.8688"
       height="1.9267"
       color-interpolation-filters="sRGB">
      <feGaussianBlur
         stdDeviation="4.3879625"
         id="feGaussianBlur2" />
    </filter>
    <filter
       id="m"
       x="-0.89096999"
       y="-0.29699001"
       width="2.7818999"
       height="1.594"
       color-interpolation-filters="sRGB">
      <feGaussianBlur
         stdDeviation="1.9224797"
         id="feGaussianBlur5" />
    </filter>
    <filter
       id="n"
       x="-0.058504999"
       y="-0.21142"
       width="1.117"
       height="1.4227999"
       color-interpolation-filters="sRGB">
      <feGaussianBlur
         stdDeviation="3.9153394"
         id="feGaussianBlur8" />
    </filter>
    <filter
       id="o"
       x="-0.069806002"
       y="-0.19574"
       width="1.1396"
       height="1.3915"
       color-interpolation-filters="sRGB">
      <feGaussianBlur
         stdDeviation="1.9561225"
         id="feGaussianBlur11" />
    </filter>
    <radialGradient
       id="q"
       cx="388.89999"
       cy="257.17999"
       r="61.609001"
       gradientTransform="matrix(2.2869533,0.48542641,-0.46587894,2.1948892,-639.76667,-543.63516)"
       gradientUnits="userSpaceOnUse">
      <stop
         offset="0"
         id="stop14" />
      <stop
         stop-color="#1f1f20"
         offset="1"
         id="stop16" />
    </radialGradient>
    <linearGradient
       id="p"
       x1="358.07999"
       x2="495.48999"
       y1="154.67"
       y2="154.67"
       gradientTransform="matrix(1.4362578,0,0,1.4362578,-432.82648,-157.98147)"
       gradientUnits="userSpaceOnUse">
      <stop
         stop-color="#715c24"
         offset="0"
         id="stop19" />
      <stop
         stop-color="#2e270f"
         offset=".60515"
         id="stop21" />
      <stop
         stop-color="#1a1a1a"
         offset=".74352"
         id="stop23" />
      <stop
         stop-color="#0f0f0f"
         offset=".8788"
         id="stop25" />
      <stop
         stop-color="#e9080b"
         offset="1"
         id="stop27" />
    </linearGradient>
    <radialGradient
       id="r"
       cx="514.45001"
       cy="195.39999"
       r="37.833"
       gradientTransform="matrix(0.99734,0,0,0.70554,-269.4043,-51.389)"
       gradientUnits="userSpaceOnUse">
      <stop
         stop-color="#a00"
         offset="0"
         id="stop30" />
      <stop
         stop-color="#e8871e"
         stop-opacity=".94619"
         offset="1"
         id="stop32" />
    </radialGradient>
    <filter
       id="j"
       x="-0.24765"
       y="-0.30390999"
       width="1.4953001"
       height="1.6078"
       color-interpolation-filters="sRGB">
      <feGaussianBlur
         stdDeviation="9.14587"
         id="feGaussianBlur35" />
    </filter>
    <filter
       id="k"
       color-interpolation-filters="sRGB">
      <feGaussianBlur
         stdDeviation="1.5655079"
         id="feGaussianBlur38" />
    </filter>
  </defs>
  <path
     d="m 71.98524,127.26958 v 37.07269 c -40.574282,7.28183 -71.26711001,40.84717 -71.26711001,81.19165 0,45.673 39.31468301,82.71983 87.79125101,82.71983 48.476579,0 87.746739,-37.04683 87.746739,-82.71983 0,-40.24538 -30.49463,-73.74753 -70.91523,-81.14856 v -37.11865 c -11.097099,2.97349 -22.250509,2.97349 -33.348469,0 z"
     fill="url(#q)"
     stroke="#000000"
     stroke-linecap="round"
     stroke-linejoin="round"
     id="path45"
     style="fill:url(#q);stroke-width:1.43626" />
  <path
     d="m 105.08073,126.76923 c 0,0.95987 -7.318839,1.73805 -16.346799,1.73805 -9.02823,0 -16.346809,-0.77812 -16.346809,-1.73805 0,-0.95987 7.318839,-1.73805 16.346809,-1.73805 9.02822,0 16.346799,0.77812 16.346799,1.73805 z"
     stroke="#000000"
     stroke-linecap="round"
     stroke-linejoin="round"
     stroke-width="1.56225"
     id="path47" />
  <rect
     transform="matrix(1.4362578,-0.38484526,0.38484526,1.4362578,-534.76185,-34.724496)"
     x="331.32999"
     y="260.39999"
     width="24.243999"
     height="22.728001"
     fill="#4d4d4d"
     filter="url(#l)"
     opacity="0.27437"
     id="rect49" />
  <path
     d="m 71.812889,164.19577 c 4.741662,8.27055 25.621402,8.47708 34.095321,-0.25647"
     fill="none"
     stroke="#000000"
     stroke-width="1.43626px"
     id="path51" />
  <path
     transform="matrix(1.4362578,0,0,2.2338117,-379.47941,-297.19198)"
     d="m 327.68,200.13 c 0,4.2901 -1.1593,7.7678 -2.5893,7.7678 -1.43,0 -2.5893,-3.4778 -2.5893,-7.7678 0,-4.2901 1.1593,-7.7679 2.5893,-7.7679 1.43,0 2.5893,3.4778 2.5893,7.7679 z"
     fill="#cccccc"
     filter="url(#m)"
     opacity="0.23051"
     id="path53" />
  <path
     d="m 82.225761,127.52811 c -2.90168,-269.85847 195.876829,-24.82572 195.876829,-24.82572 -5.98977,1.96854 -3.84185,9.85345 -9.37891,2.46161 C 198.43754,11.333274 75.432114,-51.689716 93.830581,127.52797 h -11.60669 z"
     fill="url(#p)"
     stroke="#000000"
     stroke-width="1.43626px"
     id="path57"
     style="fill:url(#p)" />
  <path
     d="m 82.340661,113.5246 9.79312,-7.97956"
     fill="none"
     stroke="#000000"
     stroke-width="1.43626px"
     id="path59" />
  <path
     d="m 83.417851,85.962807 9.06767,-7.254251"
     fill="none"
     stroke="#000000"
     stroke-width="1.43626px"
     id="path61" />
  <path
     d="m 88.143141,52.957603 9.43047,-3.627125"
     fill="none"
     stroke="#000000"
     stroke-width="1.43626px"
     id="path63" />
  <path
     d="m 105.19152,16.318668 16.32163,0.725425"
     fill="none"
     stroke="#000000"
     stroke-width="1.43626px"
     id="path65" />
  <path
     d="m 132.7533,0.3618442 7.61691,13.0575938"
     fill="none"
     stroke="#000000"
     stroke-width="1.43626px"
     id="path67" />
  <path
     d="m 165.02602,6.5233899 2.90167,12.6947951"
     fill="none"
     stroke="#000000"
     stroke-width="1.43626px"
     id="path69" />
  <path
     d="m 192.96123,21.762085 1.45091,12.33214"
     fill="none"
     stroke="#000000"
     stroke-width="1.43626px"
     id="path71" />
  <path
     d="m 211.81929,35.550159 1.08813,11.244032"
     fill="none"
     stroke="#000000"
     stroke-width="1.43626px"
     id="path73" />
  <path
     d="m 239.39544,60.56977 1.45091,11.969484"
     fill="none"
     stroke="#000000"
     stroke-width="1.43626px"
     id="path75" />
  <path
     d="m 276.87473,107.01646 c -1.42395,1.85337 -3.39772,2.72609 -4.40869,1.94936 -1.01091,-0.77668 -0.67601,-2.90874 0.74786,-4.762 1.42395,-1.85337 3.39771,-2.7261 4.40858,-1.94945 1.01091,0.77669 0.67613,2.90883 -0.74775,4.76209 z"
     stroke="#000000"
     stroke-linecap="round"
     stroke-linejoin="round"
     id="path77"
     style="stroke-width:1.43626" />
  <path
     d="m 209.68,73.36 c -0.11872,0.17144 -0.26305,0.31258 -0.35619,0.51431 -0.40929,0.88644 -0.35619,0.7774 -0.35619,1.5429 0,0.34287 0.16791,0.78616 0,1.0286 -0.16791,0.24244 -0.5,-0.15333 -0.71239,0 -0.11004,0.0795 0.0637,1.3589 0,1.5429 -0.0751,0.21684 -0.23746,0.34285 -0.35619,0.51429 0,0.34287 0.0751,0.70332 0,1.0286 -0.0804,0.34826 -0.93254,1.15 -1.0686,1.5429 -0.1062,0.30666 0.10619,0.72192 0,1.0286 -0.0751,0.21686 -0.28111,0.29746 -0.3562,0.5143 -0.0531,0.15333 0,0.34287 0,0.5143 v 0.51429 c 0,0.19599 -0.0346,2.5216 0,2.5715 0.084,0.12125 0.23746,0 0.3562,0 0.11873,0 0.24999,0.0766 0.35619,0 0.15019,-0.10843 0.20601,-0.40587 0.3562,-0.51429 0.10619,-0.0766 0.30309,0.15333 0.35619,0 0.1062,-0.30667 -0.1062,-0.72193 0,-1.0286 0.0531,-0.15334 0.30309,0.15332 0.35619,0 0.1062,-0.30667 -0.0751,-0.70333 0,-1.0286 -0.13314,-1.1204 0.59366,-0.17143 0.71239,-0.51429 0.1062,-0.30667 -0.1062,-0.72193 0,-1.0286 0.055,-0.15889 0.94116,0.092 1.0686,0 0.15018,-0.10843 0.28111,-0.29745 0.3562,-0.51429 0.053,-0.15333 -0.1062,-0.43762 0,-0.51429 0.21239,-0.15333 0.49999,0.15332 0.71239,0 0.10618,-0.0766 -0.11874,-0.5143 0,-0.5143 0.11872,0 0,0.34287 0,0.5143 0,0.34286 0.0751,0.70331 0,1.0286 -0.44016,1.9066 -0.3562,-0.6269 -0.3562,1.0286 v 7.7144 c 0,0.17144 0.053,0.36096 0,0.5143 -0.0751,0.21685 -0.2811,0.29745 -0.35619,0.5143 -0.0531,0.15332 0,0.34286 0,0.51429 0,2.0091 -0.1062,0.0543 0.35619,2.0572 0.0376,0.16264 0,0.34287 0,0.51429 v 4.6287 c 0,3.2034 0.10619,-1.281 -0.35619,2.0572 -0.0698,0.50431 0.0698,1.0386 0,1.5429 -0.0521,0.37589 -0.29181,0.6567 -0.3562,1.0286 -0.0575,0.33263 0,1.3715 0,1.0286 0,-0.68573 -0.13047,-1.3978 0,-2.0572 0.11761,-0.59433 0.49213,-1.0129 0.71239,-1.5429 0.27319,-0.65741 0.51518,-1.3453 0.71239,-2.0572 0.13944,-0.50334 0.28256,-1.0113 0.35619,-1.5429 0.0466,-0.33621 -0.1062,-0.72193 0,-1.0286 0.15019,-0.43369 0.52611,-0.62514 0.71239,-1.0286 0.0658,-0.14271 -0.0531,-0.36097 0,-0.51429 0.0751,-0.21686 0.2811,-0.29746 0.35619,-0.51431 0.0531,-0.15333 0,-0.68573 0,-0.51429 v 6.6858 -0.5143 c 0,-0.34286 -0.1062,-0.72192 0,-1.0286 1.6353,-4.7224 -0.26454,3.5264 1.4248,-2.5715 0.0882,-0.31833 -0.16792,-0.78614 0,-1.0286 0.11873,-0.17144 0.30309,0.28429 0.35619,0.51429 0.15019,0.65055 -0.11519,1.3919 0,2.0572 0.0644,0.37188 0.23746,0.68572 0.3562,1.0286 0.11872,0.68573 0.28175,1.3586 0.35619,2.0572 0.16348,1.5343 0.0954,3.1226 0.35619,4.6287 0.10383,0.59964 0.57701,0.95649 0.71239,1.5429 0.11264,0.48791 -0.0698,1.0386 0,1.5429 0.0521,0.37589 0.23746,0.68572 0.35619,1.0286 0.11874,0.34286 0.23747,0.68573 0.35619,1.0286 0.11874,0.34287 0.0907,1.0286 0.3562,1.0286 0.0271,0 -0.0279,-2.8435 0,-3.0858 0.0805,-0.69721 0.23746,-1.3715 0.3562,-2.0572 0.21076,-1.2173 0.0739,-2.9258 0.71239,-1.5429 0.78475,0.259 0.18828,1.058 0.35619,1.5429 0.0751,0.21685 0.30309,0.28429 0.35619,0.51429 0.0751,0.32527 -0.1062,0.72193 0,1.0286 0.15019,0.4337 0.5622,0.59491 0.71239,1.0286 0.28215,0.81477 -0.52785,1.5429 0.71238,1.5429 0.11874,0 0.0376,-0.35165 0,-0.51429 -0.084,-0.36366 -0.2918,-0.65669 -0.35619,-1.0286 -0.0575,-0.33263 0.0294,-0.68837 0,-1.0286 -0.0896,-1.0347 -0.30815,-2.0453 -0.35619,-3.0858 -0.0992,-2.1494 0.10311,-6.51 0,-8.743 -0.0559,-1.2095 -0.27265,-2.3939 -0.3562,-3.6001 -0.059,-0.8529 0,-1.7143 0,-2.5715 0,-0.17143 -0.0375,0.35166 0,0.5143 0.16791,0.72732 0.47492,1.3714 0.71239,2.0572 0.11874,0.34287 0.23746,0.68573 0.35619,1.0286 0.11874,0.68573 0.16336,1.4075 0.3562,2.0572 0.16863,0.56813 0.52094,0.99003 0.71239,1.5429 0.16791,0.48488 0.21675,1.0395 0.35619,1.5429 0.0986,0.35592 0.25162,0.67625 0.3562,1.0286 0.25186,0.84855 0.46051,1.7229 0.71238,2.5715 -0.12602,0.87781 0.52094,0.99003 0.71239,1.5429 0.0531,0.15333 0,0.68572 0,0.51429 v -7.7144 c 0,-0.34288 -0.23747,-1.0286 0,-1.0286 0.26549,0 0.25759,0.67268 0.35619,1.0286 0.0426,0.15359 0.69969,3.0628 0.71239,3.0858 0.26743,0.48266 0.81173,0.5341 1.0686,1.0286 0.14247,0.2743 -0.1062,0.72193 0,1.0286 0.15018,0.43368 0.47492,0.68573 0.71238,1.0286 0.35619,0.51429 0.6656,1.1065 1.0686,1.5429 0.0949,0.10282 0.27224,-0.12125 0.35619,0 0.18773,0.27105 0.16846,0.75752 0.3562,1.0286 0.084,0.12125 0,-0.34288 0,-0.51431 0,-2.1049 0.084,1.5135 -0.3562,-1.0286 -0.20361,-1.176 -0.18028,-2.4148 -0.35619,-3.6001 -0.18112,-1.2203 -0.58095,-2.3665 -0.71239,-3.6001 -0.14443,-1.3555 0,-2.7429 0,-4.1144 v -1.0286 c 0,-0.17143 -0.0375,0.35166 0,0.51429 0.084,0.36367 0.23747,0.68573 0.3562,1.0286 0.23746,0.68573 0.44894,1.3915 0.71238,2.0572 0.24341,0.61505 1.5626,3.3241 1.781,3.6001 1.4655,1.8515 3.2125,3.2159 4.6305,5.143 0.10563,0.14357 1.2824,4.1829 2.4934,3.6001 0.22528,-0.10843 0.0575,-0.69596 0,-1.0286 -0.48962,-2.8278 -0.30249,1.3 -1.0686,-2.5715 -0.13047,-0.65935 0.085,-1.3825 0,-2.0572 -0.15462,-1.2279 -0.55776,-2.3722 -0.71239,-3.6001 -0.085,-0.67466 0.13047,-1.3978 0,-2.0572 -0.11761,-0.59431 -0.52094,-0.99003 -0.71239,-1.5429 -0.0751,-0.21686 0.21648,0.3798 0.3562,0.51429 0.2209,0.21263 0.49148,0.30165 0.71238,0.51429 0.13972,0.1345 0.19691,0.43762 0.3562,0.51429 0.19149,0.0922 1.1232,0 1.4248,0 0.76979,0 1.3288,0.27726 1.781,-1.0286 0.0754,-0.21763 -0.19045,-2.0572 0.35619,-2.0572 0.59981,0 0.271,1.1738 0.3562,1.5429 0.084,0.36365 0.16846,0.75752 0.35619,1.0286 1.3901,2.0072 0.19129,-0.11909 1.0686,0.51429 0.15018,0.10843 0.20601,0.40587 0.35619,0.51431 0.1084,0.0782 0.90817,0 1.0686,0 h 0.35619 c 0.11874,0 0.3031,0.15333 0.3562,0 0.10619,-0.30667 0,-0.68573 0,-1.0286 0,-0.34286 0.0466,-0.69238 0,-1.0286 -0.14672,-1.0592 -0.39577,-1.6572 -0.71239,-2.5715 -0.11873,-0.34285 -0.25161,-0.67625 -0.35619,-1.0286 -0.25187,-0.84855 -0.35773,-1.8033 -0.71239,-2.5715 -0.37256,-0.80689 -0.90031,-1.4514 -1.4248,-2.0572 -0.0927,-0.10714 -0.23746,0 -0.35619,0 -0.23746,-0.17144 -0.52466,-0.24324 -0.71239,-0.51429 -0.084,-0.12125 0.24356,0.0541 0.35619,0 0.25187,-0.12125 0.47493,-0.34287 0.71239,-0.51431 0.47493,0 0.95632,0.11276 1.4248,0 0.26188,-0.0631 0.47492,-0.34285 0.71239,-0.51429 0.59365,-0.17143 1.1816,-0.39068 1.781,-0.51429 8.4952,-1.7523 -1.3898,0.79664 5.6991,-1.5429 27.927,-11.898 9.9323,-7.9345 -3.5619,-5.6572 -1.7829,0.32177 -3.563,0.67412 -5.3429,1.0286 -1.6634,0.33128 -3.3122,0.8495 -4.9867,1.0286 -1.5393,0.16463 -3.0919,-0.17773 -4.6305,0 -1.4398,0.1663 -2.8398,0.78491 -4.2743,1.0286 -0.58959,0.10008 -1.287,0.47546 -1.781,0 -0.7025,-0.67622 1.0173,-0.95453 1.4248,-1.5429 0.3027,-0.43707 0.47492,-1.0286 0.71239,-1.5429 l 0.71238,-1.5429 c 0.23747,-0.51429 0.36404,-1.1836 0.71239,-1.5429 3.5066,-2.0252 0.53709,0.25312 2.4934,-2.5715 0.0128,-0.0184 1.3631,-0.97515 1.4248,-1.0286 0.36709,-0.31802 0.68569,-0.75217 1.0686,-1.0286 0.10619,-0.0766 0.30309,0.15332 0.35619,0 0.1062,-0.30666 -0.16791,-0.78615 0,-1.0286 0.16791,-0.24245 0.54448,-0.24245 0.71239,0 0.11872,0.17143 -0.20601,0.40587 -0.3562,0.51429 -0.1062,0.0766 -0.24999,-0.0766 -0.35619,0 -0.25473,0.1839 -0.51082,1.0964 -0.71238,0.5143 -0.1062,-0.30666 0,-0.68572 0,-1.0286 0,-2.0233 -0.0882,-0.51759 0.71238,-3.6001 0.11873,-0.51429 0.23747,-1.0286 0.35619,-1.5429 0.23747,-0.34285 0.5622,-0.5949 0.71239,-1.0286 0.1062,-0.30667 -0.23747,-1.0286 0,-1.0286 0.42452,0 0.43197,2.7576 0.35619,3.0858 -0.0531,0.23 -0.2811,0.29745 -0.35619,0.51429 -0.11873,0.34287 0.35619,1.5429 -0.71239,0.51429 -0.2209,-0.21263 -0.23746,-0.68572 -0.35619,-1.0286 -0.18907,-0.54597 -0.60066,-1.3512 -0.35619,-2.0572 0.0531,-0.15333 0.23745,0 0.35619,0 0.51027,0 1.7904,-0.23675 2.1372,0.51429 0.44063,0.95431 -0.28024,1.3869 -0.71239,1.5429 -0.23036,0.0831 -0.47492,0 -0.71238,0 h -0.71239 c -0.11874,0 -0.25741,0.095 -0.35619,0 -0.27943,-0.26897 -0.47493,-0.68573 -0.71239,-1.0286 -0.23746,-0.34285 -0.53961,-0.6128 -0.71239,-1.0286 -0.19317,-0.46487 -0.16302,-1.078 -0.3562,-1.5429 -0.35619,-0.85716 -0.71238,-1.5429 -1.0686,-0.5143 -0.0531,0.15333 0.084,0.39308 0,0.5143 -0.084,0.12125 -0.27224,-0.12125 -0.3562,0 -0.84029,1.2133 0.21061,1.5429 -0.71238,1.5429 h -0.71239 c -0.23746,0 -0.54448,0.24243 -0.71239,0 -0.16791,-0.24244 0,-0.68572 0,-1.0286 0,-0.34287 -0.23746,-1.0286 0,-1.0286 0.23746,0 0,0.68572 0,1.0286 0,1.1134 0.10619,1.0558 -0.3562,2.0572 -0.18628,0.40346 -0.58766,0.57839 -0.71238,1.0286 -0.18181,0.65628 -0.20139,1.3866 -0.3562,2.0572 -0.084,0.36366 -0.2918,0.65669 -0.35619,1.0286 -0.1881,1.0864 0.3165,1.0859 -0.35619,2.0572 -0.084,0.12125 0.0375,-0.35167 0,-0.5143 -0.084,-0.36367 -0.2918,-0.6567 -0.35619,-1.0286 -0.0575,-0.33264 0,-1.3715 0,-1.0286 v 4.1144 c 0,0.17143 0.0658,0.37165 0,0.5143 -0.18629,0.40344 -0.47494,0.68573 -0.7124,1.0286 -0.11873,0.17144 -0.20601,0.40588 -0.35619,0.51431 -0.10619,0.0766 -0.23746,0 -0.3562,0 -0.11872,0 -0.24999,0.0766 -0.35619,0 -0.15018,-0.10843 -0.26305,-0.31257 -0.35619,-0.51431 -0.57061,-1.2358 -0.35619,-2.2108 -0.35619,-3.6001 0,-0.34286 -0.1062,-0.72192 0,-1.0286 0.35619,-1.0286 0.71238,-0.77145 1.0686,-1.5429 0.14727,-0.31895 0.23747,-0.68573 0.3562,-1.0286 0.11873,-0.34285 0.29181,-0.65669 0.35619,-1.0286 0.0575,-0.33263 0,-0.68573 0,-1.0286 v 0.51429 c 0,0.17144 0.0531,0.36098 0,0.51431 -0.0751,0.21684 -0.29383,0.28919 -0.35619,0.51429 -0.13419,0.48437 -0.29259,2.4796 -0.71239,3.0858 -0.084,0.12125 -0.23746,0 -0.35619,0 -0.11873,0 -0.27224,0.12125 -0.35619,0 -0.084,-0.12125 0,-0.34287 0,-0.51431 0,-0.34286 -0.1062,-0.72191 0,-1.0286 0.0531,-0.15334 0.23746,0 0.35619,0 0.23746,0 0.48711,-0.10844 0.71238,0 0.27116,0.13046 0.71239,1.3329 0.71239,1.5429 0,0.17142 -0.23746,0 -0.35619,0 -0.11873,0 -0.25,0.0766 -0.3562,0 -0.15018,-0.10844 -0.206,-0.40588 -0.35619,-0.51431 -0.21239,-0.15333 -0.51481,0.1902 -0.71238,0 -0.85159,-0.81971 -0.45039,-1.1912 -1.4248,-1.5429 -0.23037,-0.0831 -0.5148,0.19018 -0.71239,0 -0.2209,-0.21264 -0.16846,-0.75754 -0.35619,-1.0286 -0.084,-0.12125 -0.27224,-0.12125 -0.3562,0 -0.0364,0.0527 0.0243,1.3669 0,1.5429 -0.096,0.6931 -0.27571,1.36 -0.35619,2.0572 -0.11024,0.95504 0.13037,2.1446 0,3.0858 -0.0736,0.53159 -0.26513,1.017 -0.35619,1.5429 -0.0288,0.16631 0.084,0.39307 0,0.51429 -0.084,0.12125 -0.25,-0.0766 -0.3562,0 -0.15018,0.10843 -0.18828,0.51429 -0.35619,0.51429 -0.11873,0 0.084,-0.39307 0,-0.51429 -0.084,-0.12125 -0.30309,0.15333 -0.35619,0 -0.1062,-0.30667 0.16791,-1.271 0,-1.0286 -0.26549,0.38334 -0.14793,1.0918 -0.35619,1.5429 -0.13173,0.28529 -0.5,-0.15333 -0.71239,0 -0.2721,0.19644 -0.82739,1.4268 -1.0686,1.5429 -0.9729,0.46824 -0.47899,-0.0887 -1.0686,-0.51429 -0.87728,-0.63335 0.32155,1.4929 -1.0686,-0.51431 -0.18773,-0.27105 -0.2196,-0.69988 -0.35619,-1.0286 -0.84412,-2.0313 -0.71239,-0.8121 -0.71239,-2.5715 v 1.0286 c 0,0.34287 0.16791,0.78616 0,1.0286 -0.16791,0.24243 -0.47493,0 -0.71239,0 h -0.71239 c -0.23746,0 -0.52996,0.21949 -0.71238,0 -0.58405,-0.70273 -1.6652,-1.5301 -1.4248,-2.5715 0.2022,-0.87581 2.0184,0.17143 1.781,1.0286 -0.23746,0.85716 -1.1873,-0.68572 -2.1372,1.0286 z"
     fill="url(#r)"
     filter="url(#k)"
     opacity="0.88475"
     id="path81"
     style="fill:url(#r)"
     transform="matrix(1.4362578,0,0,1.4362578,-34.182933,-1.7925425)" />
  <path
     style="fill:#00ff00;fill-opacity:1;stroke:#006400;stroke-width:3;stroke-linecap:butt;stroke-linejoin:round;stroke-miterlimit:4;stroke-dasharray:none;stroke-opacity:1"
     d="M 28.384172,18.8978 20.333072,37.20571 56.9489,53.30792 52.923352,62.46188 79.28237,52.20507 69.02555,25.84605 65,35 Z"
     id="path942"
     inkscape:transform-center-x="19.306"
     inkscape:transform-center-y="31.152897" />
</svg>
