<?xml version="1.0" encoding="UTF-8" standalone="no"?>
<svg
   viewBox="0 0 332.59843 472.44095"
   version="1.1"
   id="svg228"
   sodipodi:docname="game_system.svg"
   width="88mm"
   height="125mm"
   inkscape:version="1.2.2 (732a01da63, 2022-12-09)"
   xmlns:inkscape="http://www.inkscape.org/namespaces/inkscape"
   xmlns:sodipodi="http://sodipodi.sourceforge.net/DTD/sodipodi-0.dtd"
   xmlns:xlink="http://www.w3.org/1999/xlink"
   xmlns="http://www.w3.org/2000/svg"
   xmlns:svg="http://www.w3.org/2000/svg">
  <sodipodi:namedview
     id="namedview230"
     pagecolor="#505050"
     bordercolor="#eeeeee"
     borderopacity="1"
     inkscape:showpageshadow="0"
     inkscape:pageopacity="0"
     inkscape:pagecheckerboard="0"
     inkscape:deskcolor="#505050"
     showgrid="false"
     inkscape:zoom="0.89782604"
     inkscape:cx="255.61745"
     inkscape:cy="309.07992"
     inkscape:current-layer="svg228"
     inkscape:document-units="mm" />
  <defs
     id="defs52">
    <filter
       id="c"
       x="-0.054497086"
       y="-0.044202852"
       width="1.1089942"
       height="1.0884057">
      <feGaussianBlur
         stdDeviation="1.25584"
         id="feGaussianBlur2" />
    </filter>
    <filter
       id="d"
       x="-0.070627013"
       y="-0.052146052"
       width="1.141254"
       height="1.1042921">
      <feGaussianBlur
         stdDeviation=".88066"
         id="feGaussianBlur5" />
    </filter>
    <filter
       id="o"
       x="-0.01454125"
       y="-0.06069636"
       width="1.0290825"
       height="1.1213927">
      <feGaussianBlur
         stdDeviation=".37869"
         id="feGaussianBlur8" />
    </filter>
    <filter
       id="i"
       x="-0.17555061"
       y="-0.091154634"
       width="1.3511012"
       height="1.1823093">
      <feGaussianBlur
         stdDeviation="1.07308"
         id="feGaussianBlur11" />
    </filter>
    <filter
       id="p"
       x="-0.55667011"
       y="-0.013656848"
       width="2.1132663"
       height="1.0264399">
      <feGaussianBlur
         stdDeviation="5.29689"
         id="feGaussianBlur14" />
    </filter>
    <filter
       id="q"
       x="-0.30298908"
       y="-0.2552929"
       width="1.6080312"
       height="1.5102995">
      <feGaussianBlur
         stdDeviation="2.70069"
         id="feGaussianBlur17" />
    </filter>
    <filter
       id="r"
       x="-0.28254959"
       y="-0.23816277"
       width="1.5671522"
       height="1.4760393">
      <feGaussianBlur
         stdDeviation="2.45517"
         id="feGaussianBlur20" />
    </filter>
    <filter
       id="j"
       x="-0.12383296"
       y="-0.0064275687"
       width="1.2476659"
       height="1.0128551">
      <feGaussianBlur
         stdDeviation="3.5312"
         id="feGaussianBlur23" />
    </filter>
    <linearGradient
       id="g">
      <stop
         stop-color="#fff"
         offset="0"
         id="stop26" />
      <stop
         stop-color="#7d7d7d"
         stop-opacity="0"
         offset="1"
         id="stop28" />
    </linearGradient>
    <linearGradient
       id="b">
      <stop
         stop-color="#e5e5e5"
         offset="0"
         id="stop31" />
      <stop
         stop-color="#4e4e4e"
         offset="1"
         id="stop33" />
    </linearGradient>
    <linearGradient
       id="h"
       x1="2135.5"
       x2="2126.3999"
       y1="1320.3"
       y2="1413.7"
       gradientUnits="userSpaceOnUse">
      <stop
         stop-color="#f5f5f5"
         offset="0"
         id="stop36" />
      <stop
         stop-color="#b6b6b6"
         offset="1"
         id="stop38" />
    </linearGradient>
    <linearGradient
       id="n"
       x1="131.99001"
       x2="68.775002"
       y1="442.85999"
       y2="440.17999"
       gradientUnits="userSpaceOnUse"
       xlink:href="#g"
       spreadMethod="reflect" />
    <linearGradient
       id="m"
       x1="304.39001"
       x2="231.46001"
       gradientUnits="userSpaceOnUse"
       xlink:href="#g"
       spreadMethod="reflect" />
    <linearGradient
       id="l"
       x1="564.69"
       x2="535.56"
       y1="575.63"
       y2="576.82001"
       gradientUnits="userSpaceOnUse"
       xlink:href="#b" />
    <linearGradient
       id="k"
       x1="503.35001"
       x2="521.82001"
       y1="505.63"
       y2="571.46997"
       gradientUnits="userSpaceOnUse"
       xlink:href="#b" />
    <radialGradient
       id="a"
       cx="2351.3"
       cy="1244.5"
       r="27.653"
       gradientTransform="matrix(1,0,0,1.2329,0,-289.82)"
       gradientUnits="userSpaceOnUse">
      <stop
         stop-color="#e5e5e5"
         offset="0"
         id="stop45" />
      <stop
         stop-color="#b9b9b9"
         offset="1"
         id="stop47" />
    </radialGradient>
    <radialGradient
       id="f"
       cx="2187.3"
       cy="1378.9"
       r="44.952"
       gradientTransform="matrix(2.4692,0.19073,-0.19634,2.3736,-2932.5,-2309.2)"
       gradientUnits="userSpaceOnUse"
       xlink:href="#b" />
    <radialGradient
       id="e"
       cx="2189.1001"
       cy="1374.7"
       r="44.952"
       gradientTransform="matrix(2.0684,-1.918e-6,2.9997e-6,2.9525,-2325.7,-2687)"
       gradientUnits="userSpaceOnUse"
       xlink:href="#b" />
    <radialGradient
       inkscape:collect="always"
       xlink:href="#b"
       id="radialGradient459"
       gradientUnits="userSpaceOnUse"
       gradientTransform="matrix(2.4692,0.19073,-0.19634,2.3736,-2932.5,-2309.2)"
       cx="2187.3"
       cy="1378.9"
       r="44.952" />
    <linearGradient
       inkscape:collect="always"
       xlink:href="#h"
       id="linearGradient461"
       gradientUnits="userSpaceOnUse"
       x1="2135.5"
       y1="1320.3"
       x2="2126.3999"
       y2="1413.7" />
    <radialGradient
       inkscape:collect="always"
       xlink:href="#b"
       id="radialGradient463"
       gradientUnits="userSpaceOnUse"
       gradientTransform="matrix(2.0684,-1.918e-6,2.9997e-6,2.9525,-2325.7,-2687)"
       cx="2189.1001"
       cy="1374.7"
       r="44.952" />
    <linearGradient
       inkscape:collect="always"
       xlink:href="#h"
       id="linearGradient465"
       gradientUnits="userSpaceOnUse"
       x1="2135.5"
       y1="1320.3"
       x2="2126.3999"
       y2="1413.7" />
    <radialGradient
       inkscape:collect="always"
       xlink:href="#a"
       id="radialGradient467"
       gradientUnits="userSpaceOnUse"
       gradientTransform="matrix(1,0,0,1.2329,0,-289.82)"
       cx="2351.3"
       cy="1244.5"
       r="27.653" />
    <radialGradient
       inkscape:collect="always"
       xlink:href="#a"
       id="radialGradient469"
       gradientUnits="userSpaceOnUse"
       gradientTransform="matrix(1,0,0,1.2329,0,-289.82)"
       cx="2351.3"
       cy="1244.5"
       r="27.653" />
    <radialGradient
       inkscape:collect="always"
       xlink:href="#a"
       id="radialGradient471"
       gradientUnits="userSpaceOnUse"
       gradientTransform="matrix(1,0,0,1.2329,0,-289.82)"
       cx="2351.3"
       cy="1244.5"
       r="27.653" />
    <radialGradient
       inkscape:collect="always"
       xlink:href="#a"
       id="radialGradient473"
       gradientUnits="userSpaceOnUse"
       gradientTransform="matrix(1,0,0,1.2329,0,-289.82)"
       cx="2351.3"
       cy="1244.5"
       r="27.653" />
  </defs>
  <g
     transform="matrix(0.51647099,0,0,0.51647099,-24.450253,-1.344916)"
     id="g226">
    <path
       d="m 84.032,307.54 c 20.575,-18.135 45.667,-25.732 69.828,-35.5 27.023,-11.111 52.075,-24.419 68.154,-47.724 30.671,-53.327 95.927,-70.174 155.59,-93.91 l 98.436,22.658 28.3,424.02 11.604,181.64 -118.41,2.3682 -349.07,-2.8418 35.568,-450.71 z"
       fill="#2f3236"
       fill-rule="evenodd"
       id="path54" />
    <path
       d="m 83.208,307.72 -35.867,449.3 c 48.805,0.95701 97.916,1.9751 142.39,2.0668 l 9.4727,-509.63 c -51.143,25.259 -93.752,37.615 -116,58.264 z"
       fill="url(#n)"
       fill-rule="evenodd"
       opacity="0.7"
       id="path56"
       style="fill:url(#n)" />
    <path
       transform="matrix(0.46887,0,0,0.46887,-1272.8,162.18)"
       d="m 3600.1,-41.552 10.354,-4.9245 58.084,1316.5 -17.678,2.0203 -50.76,-1313.6 z"
       fill="#007eba"
       fill-rule="evenodd"
       filter="url(#j)"
       id="path58" />
    <path
       d="m 447.26,224.22 6.986,145.17 -10.538,20.485 -1.5393,14.209 15.038,290.22 h 43.574 l -16.577,-290.57 -4.2627,-14.683 -9.4727,-14.15 -1.7169,-8.3478 -8.1109,-144.52 c 1.8098,-2.0875 3.9698,-4.0194 6.1495,-5.8666 10.128,-8.5831 4.9239,-27.894 -10.175,-33.504 -15.335,-3.868 -22.549,0.83603 -23.682,11.959 0.50554,7.6262 3.3926,14.671 10.361,20.721 2.3995,2.7116 3.6185,5.6956 3.9667,8.8806 z"
       fill="#1c232e"
       fill-rule="evenodd"
       stroke="#000000"
       stroke-width="0.46887"
       id="path60" />
    <g
       transform="matrix(0.55475,0,0,0.55475,-1555.3,108.23)"
       fill="none"
       filter="url(#r)"
       opacity="0.5"
       stroke="#ffffff"
       stroke-linecap="round"
       stroke-width="4.6"
       id="g66">
      <path
         d="m 3610.4,153.79 c -21.255,28.102 39.684,45.074 20.456,3.0305"
         id="path62" />
      <path
         d="m 3620,147.73 2.7779,16.92"
         id="path64" />
    </g>
    <path
       d="m 466.56,411.19 4.9731,79.452 12.67,-10e-6 -5.3284,-79.333 -12.314,-0.11841 z"
       fill="#01000b"
       fill-rule="evenodd"
       stroke="#000000"
       stroke-width="0.46887"
       id="path68" />
    <text
       transform="rotate(-93.361407)"
       x="-488.13043"
       y="452.33395"
       fill="#ffffff"
       font-family="'Bitstream Vera Sans'"
       font-size="11.389px"
       font-weight="bold"
       id="text72"><tspan
         x="-488.13043"
         y="452.33395"
         id="tspan70">SD</tspan></text>
    <path
       d="m 453.77,425.87 -1.4209,-15.156 c 0.64006,-1.4779 1.4588,-1.2582 2.2497,-1.3025 l 4.7364,0.23681 c 1.0485,0.9801 1.8993,2.0656 1.7761,3.6706 l 4.4995,72.939 c -0.0332,1.7383 0.52411,3.632 -2.3682,4.6179 l -4.3811,-0.71045 c -2.5339,-0.99463 -2.5342,-2.1702 -2.9602,-3.3154 l -2.1314,-60.98 z"
       fill="#222f71"
       fill-rule="evenodd"
       stroke="#000000"
       stroke-width="0.46887"
       id="path74" />
    <g
       transform="matrix(0.46887,0,0,0.46887,-1244.4,122.4)"
       fill="none"
       stroke="#0c87ff"
       stroke-linecap="round"
       stroke-width="4.6"
       id="g80">
      <path
         d="m 3610.4,153.79 c -21.255,28.102 39.684,45.074 20.456,3.0305"
         id="path76" />
      <path
         d="m 3620,147.73 2.7779,16.92"
         id="path78" />
    </g>
    <path
       d="m 228.14,216.31 -2.3681,545.39 159.14,-0.94731 -15.156,-628.04 c -57.063,22.181 -122.92,47.08 -141.62,83.596 z"
       fill="url(#m)"
       fill-rule="evenodd"
       opacity="0.7"
       id="path82"
       style="fill:url(#m)" />
    <path
       transform="matrix(0.46887,0,0,0.46887,-1272.8,162.18)"
       d="m 3600.1,-41.552 10.354,-4.9245 58.084,1316.5 -17.678,2.0203 -50.76,-1313.6 z"
       fill="#ffffff"
       fill-rule="evenodd"
       filter="url(#j)"
       opacity="0.5"
       id="path84" />
    <path
       d="m 414.7,138.73 24.274,619.87 -43.337,1.3025 -18.116,-629.34 37.18,8.1702 z"
       fill="#6d747b"
       fill-rule="evenodd"
       id="path86" />
    <g
       transform="matrix(0.46887,0,0,0.46887,-1244.4,122.4)"
       fill="none"
       filter="url(#q)"
       stroke="#0c87ff"
       stroke-linecap="round"
       stroke-width="4.6"
       id="g92">
      <path
         d="m 3610.4,153.79 c -21.255,28.102 39.684,45.074 20.456,3.0305"
         id="path88" />
      <path
         d="m 3620,147.73 2.7779,16.92"
         id="path90" />
    </g>
    <path
       transform="matrix(0.46828,0,0,0.49818,-1270.9,124.91)"
       d="m 3145.1,262.93 20.203,-24.749 -10e-5,1033.6 h -23.738 l 3.5355,-1008.9 z"
       fill="#ffffff"
       fill-rule="evenodd"
       filter="url(#p)"
       opacity="0.2"
       stroke="#000000"
       id="path94" />
    <path
       d="m 547.16,562.94 c -4.0616,-15.021 -11.801,-27.314 -29.839,-31.97 -12.91,-0.10777 -43.515,7.4274 -31.023,56.125 l -7.4597,-0.59205 c -0.20926,-9.8201 -13.762,-34.223 18.945,-58.849 14.768,-7.2902 26.976,-3.897 38.127,3.9075 10.449,9.5536 17.363,19.814 18.353,31.26 l -7.1044,0.11844 z"
       fill="url(#k)"
       fill-rule="evenodd"
       id="path96"
       style="fill:url(#k)" />
    <path
       d="m 673.64,624.59 c -7.3557,-27.338 -38.573,-23.605 -64.798,-23.744 -1.1157,0.35822 -2.2342,0.71049 -3.0282,1.7198 l 0.22295,6.6864 66.507,16.18 1.0958,-0.84228 z"
       fill="#696969"
       fill-rule="evenodd"
       id="path98" />
    <path
       d="m 419.88,602.81 c 10.043,-26.469 40.733,-19.645 66.841,-17.169 1.0744,0.4676 2.1523,0.92953 2.8418,2.013 l -0.88809,6.6308 -67.789,9.4727 -1.0064,-0.94726 z"
       fill="#696969"
       fill-rule="evenodd"
       id="path100" />
    <path
       d="m 460.89,585.97 191.66,21.378 c 13.04,3.453 17.148,12.409 22.445,20.633 17.173,40.955 23.634,83.105 5.296,128.02 -3.8633,3.5088 -8.4158,6.012 -14.375,6.4633 -78.347,4.0275 -224.98,3.9483 -235.04,-2.7345 -3.8288,-4.0602 -6.6716,-8.1204 -9.0789,-12.181 -21.092,-33.009 -28.166,-108.29 4.2872,-153.13 7.658,-7.3016 18.419,-11.074 34.802,-8.4519 z"
       fill="#d3d3d3"
       fill-rule="evenodd"
       id="path102" />
    <path
       d="m 474.94,594.46 179.98,20.366 c 12.245,3.2895 16.103,11.821 21.077,19.656 16.126,39.015 22.193,79.17 4.9731,121.96 -3.6278,3.3426 -7.9028,5.7273 -13.499,6.1572 -73.571,3.8368 -211.26,3.7613 -220.71,-2.605 -3.5954,-3.868 -6.2649,-7.736 -8.5254,-11.604 -19.807,-31.446 -26.449,-103.16 4.0259,-145.88 7.1912,-6.9559 17.296,-10.55 32.681,-8.0518 z"
       fill="#ababab"
       fill-rule="evenodd"
       id="path104" />
    <g
       transform="matrix(0.46887,0,0,0.46887,-474.82,78.895)"
       fill-rule="evenodd"
       id="g118">
      <path
         d="m 1989.1,1192 c 7.6285,-2.9906 15.334,-5.8348 17.857,-18.571 -1.3123,-7.0266 -2.8544,-14.283 -4.6429,-21.786 0.037,-6.2935 3.773,-10.968 11.429,-13.929 11.231,-1.8317 22.099,-0.041 32.857,2.8572 7.3122,3.4188 12.995,7.9237 13.214,16.071 l 0.7143,23.929 c 1.3268,6.1722 5.2288,12.16 13.214,17.857 l 19.286,1.0714 c 11.91,-0.3497 12.874,7.2604 14.643,14.286 1.7021,12.158 3.957,24.372 1.0714,36.071 -2.4882,12.363 -7.2775,16.672 -13.571,15.714 -4.5446,-1.9088 -10.468,-3.2047 -19.286,-3.2143 -6.5878,4.2063 -9.5718,9.1332 -11.429,14.286 l 0.3571,24.286 c 0.3923,7.9973 -2.489,14.832 -11.428,16.429 -13.176,1.4423 -25.807,3.7566 -43.572,-2.1429 -4.5208,-2.67 -4.2995,-10.151 -4.2856,-11.071 l 2.4999,-28.75 c -0.9858,-7.9531 -6.6387,-14.486 -18.571,-19.107 l -23.571,1.4285 c -6.3053,-1.5267 -9.4752,-4.758 -11.429,-10.893 -0.9664,-17.917 -5.2651,-35.833 3.5714,-53.75 3.2208,-4.6943 10.618,-4.1679 17.5,-4.2857 l 13.572,3.2142 z"
         fill="#c5c5c5"
         id="path106" />
      <path
         d="m 1997.1,1192 c 7.6285,-2.9906 15.334,-5.8348 17.857,-18.571 -1.3123,-7.0266 -2.8544,-14.283 -4.6429,-21.786 0.037,-6.2935 3.773,-10.968 11.429,-13.929 11.231,-1.8317 22.099,-0.041 32.857,2.8572 7.3122,3.4188 12.995,7.9237 13.214,16.071 l 0.7143,23.929 c 1.3268,6.1722 5.2288,12.16 13.214,17.857 l 19.286,1.0714 c 11.91,-0.3497 12.874,7.2604 14.643,14.286 1.7021,12.158 3.957,24.372 1.0714,36.071 -2.4882,12.363 -7.2775,16.672 -13.571,15.714 -4.5446,-1.9088 -10.468,-3.2047 -19.286,-3.2143 -6.5878,4.2063 -9.5718,9.1332 -11.429,14.286 l 0.3571,24.286 c 0.3923,7.9973 -2.489,14.832 -11.428,16.429 -13.176,1.4423 -25.807,3.7566 -43.572,-2.1429 -4.5208,-2.67 -4.2995,-10.151 -4.2856,-11.071 l 2.4999,-28.75 c -0.9858,-7.9531 -6.6387,-14.486 -18.571,-19.107 l -23.571,1.4285 c -6.3053,-1.5267 -9.4752,-4.758 -11.429,-10.893 -0.9664,-17.917 -5.2651,-35.833 3.5714,-53.75 3.2208,-4.6943 10.618,-4.1679 17.5,-4.2857 l 13.572,3.2142 z"
         fill="#eeeeee"
         id="path108" />
      <path
         d="m 2023.6,1168.3 15,-19.107 c 0.9651,-0.9737 2.0835,-1.4876 4.1072,0.7143 l 15.536,18.75 c 0.7709,1.4915 1.7825,4.1964 -1.6072,4.6428 l -29.554,-2.9017 c -2.8851,-0.5427 -3.1458,-1.3239 -3.4822,-2.0983 z"
         fill="#ffffff"
         id="path110" />
      <path
         d="m 1994.1,1240.3 -20.809,-12.533 c -1.0852,-0.8379 -1.7329,-1.8845 0.2031,-4.1639 l 16.694,-17.726 c 1.3852,-0.9487 3.945,-2.2857 4.8054,1.0232 l 0.7594,29.686 c -0.1833,2.93 -0.9264,3.2849 -1.6535,3.7141 z"
         fill="#ffffff"
         id="path112" />
      <path
         d="m 2091.7,1247.1 20.809,-12.533 c 1.0852,-0.8379 1.7329,-1.8845 -0.2031,-4.1639 l -16.694,-17.726 c -1.3852,-0.9487 -3.945,-2.2857 -4.8054,1.0232 l -0.7594,29.686 c 0.1833,2.93 0.9264,3.2849 1.6535,3.7141 z"
         fill="#ffffff"
         id="path114" />
      <path
         d="m 2025.9,1285.7 12.361,20.911 c 0.8289,1.092 1.8701,1.7483 4.1654,-0.1688 l 17.863,-16.548 c 0.9601,-1.3774 2.318,-3.9261 -0.9837,-4.8137 l -29.679,-1.0038 c -2.9314,0.1592 -3.2924,0.8994 -3.7276,1.623 z"
         fill="#ffffff"
         id="path116" />
    </g>
    <g
       transform="matrix(0.46887,0,0,0.46887,-474.82,78.895)"
       id="g128">
      <path
         transform="matrix(1.0955,0,0,1.1337,-218.79,-187.7)"
         d="m 2216.8,1376.1 a 44.952,51.013 0 1 1 -89.904,0 44.952,51.013 0 1 1 89.904,0 z"
         fill="url(#f)"
         id="path120"
         style="fill:url(#radialGradient459)" />
      <path
         d="m 2152.4,1294.8 c -36.008,1.062 -64.969,35.373 -64.969,77.5 0,42.796 29.886,77.531 66.687,77.531 36.801,0 66.656,-34.735 66.656,-77.531 0,-42.796 -29.854,-77.5 -66.656,-77.5 -0.575,0 -1.1471,-0.017 -1.7187,0 z m 9.5313,20.688 c 27.183,0 49.25,25.921 49.25,57.844 0,31.923 -22.067,57.812 -49.25,57.812 -27.183,0 -49.25,-25.89 -49.25,-57.812 0,-31.922 22.067,-57.844 49.25,-57.844 z"
         fill="url(#h)"
         id="path122"
         style="fill:url(#linearGradient461)" />
      <path
         transform="matrix(0.76966,0,0,0.79647,509.64,278.33)"
         d="m 2216.8,1376.1 a 44.952,51.013 0 1 1 -89.904,0 44.952,51.013 0 1 1 89.904,0 z"
         fill="#eeeeee"
         id="path124" />
      <path
         transform="matrix(0.76966,0,0,0.79647,513.64,278.33)"
         d="m 2216.8,1376.1 a 44.952,51.013 0 1 1 -89.904,0 44.952,51.013 0 1 1 89.904,0 z"
         fill="url(#e)"
         id="path126"
         style="fill:url(#radialGradient463)" />
    </g>
    <g
       transform="matrix(0.46887,0,0,0.46887,-395.72,83.631)"
       id="g138">
      <path
         transform="matrix(1.0955,0,0,1.1337,-218.79,-187.7)"
         d="m 2216.8,1376.1 a 44.952,51.013 0 1 1 -89.904,0 44.952,51.013 0 1 1 89.904,0 z"
         fill="url(#f)"
         id="path130"
         style="fill:url(#f)" />
      <path
         d="m 2152.4,1294.8 c -36.008,1.062 -64.969,35.373 -64.969,77.5 0,42.796 29.886,77.531 66.687,77.531 36.801,0 66.656,-34.735 66.656,-77.531 0,-42.796 -29.854,-77.5 -66.656,-77.5 -0.575,0 -1.1471,-0.017 -1.7187,0 z m 9.5313,20.688 c 27.183,0 49.25,25.921 49.25,57.844 0,31.923 -22.067,57.812 -49.25,57.812 -27.183,0 -49.25,-25.89 -49.25,-57.812 0,-31.922 22.067,-57.844 49.25,-57.844 z"
         fill="url(#h)"
         id="path132"
         style="fill:url(#linearGradient465)" />
      <path
         transform="matrix(0.76966,0,0,0.79647,509.64,278.33)"
         d="m 2216.8,1376.1 a 44.952,51.013 0 1 1 -89.904,0 44.952,51.013 0 1 1 89.904,0 z"
         fill="#eeeeee"
         id="path134" />
      <path
         transform="matrix(0.76966,0,0,0.79647,513.64,278.33)"
         d="m 2216.8,1376.1 a 44.952,51.013 0 1 1 -89.904,0 44.952,51.013 0 1 1 89.904,0 z"
         fill="url(#e)"
         id="path136"
         style="fill:url(#e)" />
    </g>
    <g
       transform="matrix(0.46887,0,0,0.46887,-466.76,52.371)"
       id="g148">
      <path
         transform="rotate(4.6454)"
         d="m 2275.5,1077.7 h 54.914 a 14.719,14.719 0 0 1 14.719,14.719 14.719,14.719 0 0 1 -14.719,14.719 H 2275.5 a 14.719,14.719 0 0 1 -14.719,-14.719 14.719,14.719 0 0 1 14.719,-14.719"
         fill="#919191"
         id="path140" />
      <path
         transform="rotate(4.6454)"
         d="m 2276.5,1078.2 h 52.937 a 14.189,14.189 0 0 1 14.189,14.189 14.189,14.189 0 0 1 -14.189,14.189 H 2276.5 a 14.189,14.189 0 0 1 -14.189,-14.189 14.189,14.189 0 0 1 14.189,-14.189"
         fill="#d9dfe3"
         id="path142" />
      <path
         d="m 2235.6,1263.4 c 13.883,12.003 10.331,20.954 -2.6675,28.253 5.7024,-0.2618 7.6504,-1.7388 9.5662,-3.3365 2.7583,-2.3002 4.3434,-5.2479 4.9389,-8.4223 0.8825,-4.6975 -1.5873,-14.517 -11.838,-16.494 z"
         fill="#ffffff"
         fill-rule="evenodd"
         filter="url(#i)"
         opacity="0.9"
         id="path144" />
      <path
         transform="matrix(-1,0,0,1,4364.2,-0.25254)"
         d="m 2186.4,1259.6 c 13.883,12.003 10.331,20.954 -2.6675,28.253 5.7024,-0.2618 7.6504,-1.7388 9.5662,-3.3365 2.7583,-2.3002 4.3434,-5.2479 4.9389,-8.4223 0.8825,-4.6975 -1.5873,-14.517 -11.838,-16.494 z"
         fill-rule="evenodd"
         filter="url(#i)"
         opacity="0.22337"
         id="path146" />
    </g>
    <text
       transform="matrix(0.5743,0.01711,-0.00795,0.68074,-823.35,-118.86)"
       x="2406.52"
       y="1107.08"
       fill="#6b6b6f"
       filter="url(#o)"
       font-family="'Bitstream Vera Sans'"
       font-size="19.772px"
       font-weight="bold"
       id="text152"><tspan
         x="2406.52"
         y="1107.08"
         id="tspan150">HOME</tspan></text>
    <text
       transform="matrix(0.5743,0.01711,-0.00795,0.68074,-823.35,-118.86)"
       x="2407.3401"
       y="1106.39"
       fill="#d7dbdf"
       font-family="'Bitstream Vera Sans'"
       font-size="19.772px"
       font-weight="bold"
       id="text156"><tspan
         x="2407.3401"
         y="1106.39"
         id="tspan154">HOME</tspan></text>
    <g
       transform="matrix(0.46887,0,0,0.46887,-474.82,78.895)"
       id="g172">
      <path
         transform="translate(-7.8084,-2.2728)"
         d="m 2378.9,1244.5 a 27.653,34.093 0 1 1 -55.306,0 27.653,34.093 0 1 1 55.306,0 z"
         filter="url(#c)"
         opacity="0.53952"
         id="path158" />
      <path
         transform="translate(-5.8084,-2.2728)"
         d="m 2378.9,1244.5 a 27.653,34.093 0 1 1 -55.306,0 27.653,34.093 0 1 1 55.306,0 z"
         fill="url(#a)"
         id="path160"
         style="fill:url(#radialGradient467)" />
      <path
         transform="matrix(1.1818,0,0,1.1807,-438.87,-227.66)"
         d="m 2372.5,1244.2 a 14.963,20.266 0 1 1 -29.926,0 14.963,20.266 0 1 1 29.926,0 z"
         fill="#6b6b6f"
         filter="url(#d)"
         id="path162" />
      <path
         transform="matrix(1.1818,0,0,1.1482,-437.98,-187.76)"
         d="m 2372.5,1244.2 a 14.963,20.266 0 1 1 -29.926,0 14.963,20.266 0 1 1 29.926,0 z"
         fill="#dcdcdc"
         id="path164" />
      <path
         transform="matrix(1.1818,0,0,1.1807,-434.04,-227.97)"
         d="m 2372.5,1244.2 a 14.963,20.266 0 1 1 -29.926,0 14.963,20.266 0 1 1 29.926,0 z"
         fill="#a9a9a9"
         id="path166" />
      <text
         transform="skewY(-6.39)"
         x="2343.73"
         y="1513.21"
         fill="#ffffff"
         font-family="'Bitstream Vera Sans'"
         font-size="25.548px"
         font-weight="bold"
         id="text170"><tspan
           x="2343.73"
           y="1513.21"
           id="tspan168">2</tspan></text>
    </g>
    <g
       transform="matrix(0.46887,0,0,0.46887,-450.42,104.47)"
       id="g188">
      <path
         transform="translate(-7.8084,-2.2728)"
         d="m 2378.9,1244.5 a 27.653,34.093 0 1 1 -55.306,0 27.653,34.093 0 1 1 55.306,0 z"
         filter="url(#c)"
         opacity="0.53952"
         id="path174" />
      <path
         transform="translate(-5.8084,-2.2728)"
         d="m 2378.9,1244.5 a 27.653,34.093 0 1 1 -55.306,0 27.653,34.093 0 1 1 55.306,0 z"
         fill="url(#a)"
         id="path176"
         style="fill:url(#radialGradient469)" />
      <path
         transform="matrix(1.1818,0,0,1.1807,-438.87,-227.66)"
         d="m 2372.5,1244.2 a 14.963,20.266 0 1 1 -29.926,0 14.963,20.266 0 1 1 29.926,0 z"
         fill="#6b6b6f"
         filter="url(#d)"
         id="path178" />
      <path
         transform="matrix(1.1818,0,0,1.1482,-437.98,-187.76)"
         d="m 2372.5,1244.2 a 14.963,20.266 0 1 1 -29.926,0 14.963,20.266 0 1 1 29.926,0 z"
         fill="#dcdcdc"
         id="path180" />
      <path
         transform="matrix(1.1818,0,0,1.1807,-434.04,-227.97)"
         d="m 2372.5,1244.2 a 14.963,20.266 0 1 1 -29.926,0 14.963,20.266 0 1 1 29.926,0 z"
         fill="#a9a9a9"
         id="path182" />
      <text
         transform="skewY(-6.39)"
         x="2343.73"
         y="1513.21"
         fill="#ffffff"
         font-family="'Bitstream Vera Sans'"
         font-size="25.548px"
         font-weight="bold"
         id="text186"><tspan
           x="2343.73"
           y="1513.21"
           id="tspan184">1</tspan></text>
    </g>
    <g
       transform="matrix(0.46887,0,0,0.46887,-450.19,59.002)"
       id="g204">
      <path
         transform="translate(-7.8084,-2.2728)"
         d="m 2378.9,1244.5 a 27.653,34.093 0 1 1 -55.306,0 27.653,34.093 0 1 1 55.306,0 z"
         filter="url(#c)"
         opacity="0.53952"
         id="path190" />
      <path
         transform="translate(-5.8084,-2.2728)"
         d="m 2378.9,1244.5 a 27.653,34.093 0 1 1 -55.306,0 27.653,34.093 0 1 1 55.306,0 z"
         fill="url(#a)"
         id="path192"
         style="fill:url(#radialGradient471)" />
      <path
         transform="matrix(1.1818,0,0,1.1807,-438.87,-227.66)"
         d="m 2372.5,1244.2 a 14.963,20.266 0 1 1 -29.926,0 14.963,20.266 0 1 1 29.926,0 z"
         fill="#6b6b6f"
         filter="url(#d)"
         id="path194" />
      <path
         transform="matrix(1.1818,0,0,1.1482,-437.98,-187.76)"
         d="m 2372.5,1244.2 a 14.963,20.266 0 1 1 -29.926,0 14.963,20.266 0 1 1 29.926,0 z"
         fill="#dcdcdc"
         id="path196" />
      <path
         transform="matrix(1.1818,0,0,1.1807,-434.04,-227.97)"
         d="m 2372.5,1244.2 a 14.963,20.266 0 1 1 -29.926,0 14.963,20.266 0 1 1 29.926,0 z"
         fill="#a9a9a9"
         id="path198" />
      <text
         transform="skewY(-6.39)"
         x="2343.73"
         y="1513.21"
         fill="#ffffff"
         font-family="'Bitstream Vera Sans'"
         font-size="25.548px"
         font-weight="bold"
         id="text202"><tspan
           x="2343.73"
           y="1513.21"
           id="tspan200">3</tspan></text>
    </g>
    <g
       transform="matrix(0.46887,0,0,0.46887,-427.45,83.158)"
       id="g220">
      <path
         transform="translate(-7.8084,-2.2728)"
         d="m 2378.9,1244.5 a 27.653,34.093 0 1 1 -55.306,0 27.653,34.093 0 1 1 55.306,0 z"
         filter="url(#c)"
         opacity="0.53952"
         id="path206" />
      <path
         transform="translate(-5.8084,-2.2728)"
         d="m 2378.9,1244.5 a 27.653,34.093 0 1 1 -55.306,0 27.653,34.093 0 1 1 55.306,0 z"
         fill="url(#a)"
         id="path208"
         style="fill:url(#radialGradient473)" />
      <path
         transform="matrix(1.1818,0,0,1.1807,-438.87,-227.66)"
         d="m 2372.5,1244.2 a 14.963,20.266 0 1 1 -29.926,0 14.963,20.266 0 1 1 29.926,0 z"
         fill="#6b6b6f"
         filter="url(#d)"
         id="path210" />
      <path
         transform="matrix(1.1818,0,0,1.1482,-437.98,-187.76)"
         d="m 2372.5,1244.2 a 14.963,20.266 0 1 1 -29.926,0 14.963,20.266 0 1 1 29.926,0 z"
         fill="#dcdcdc"
         id="path212" />
      <path
         transform="matrix(1.1818,0,0,1.1807,-434.04,-227.97)"
         d="m 2372.5,1244.2 a 14.963,20.266 0 1 1 -29.926,0 14.963,20.266 0 1 1 29.926,0 z"
         fill="#a9a9a9"
         id="path214" />
      <text
         transform="skewY(-6.39)"
         x="2343.73"
         y="1513.21"
         fill="#ffffff"
         font-family="'Bitstream Vera Sans'"
         font-size="25.548px"
         font-weight="bold"
         id="text218"><tspan
           x="2343.73"
           y="1513.21"
           id="tspan216">4</tspan></text>
    </g>
    <path
       d="m 427.34,645.85 c 6.0935,-30.632 22.944,-42.14 46.061,-42.508 l 49.85,4.2627 -0.14802,6.9269 c -2.047,1.5587 -3.0141,3.6122 -3.1674,6.0388 8.5656,18.481 15.244,15.257 21.965,12.522 5.3638,3.4821 10.718,6.7875 15.541,0.62163 4.4647,2.8882 8.5224,7.0685 16.481,1.7539 l 0.037,-0.007 c 5.2346,3.7227 10.555,5.4978 16.104,2.0722 7.9805,3.099 15.874,5.8931 19.3,-6.9861 0.0641,-4.6985 -0.55777,-9.3815 -3.9371,-14.002 l 49.672,7.6669 c 9.1408,1.6786 17.943,7.1499 25.517,26.375 l 4.2627,9.5911 c 5.2895,30.133 8.5803,60.8 -4.7955,95.91 -3.0623,3.4272 -9.144,5.9694 -14.543,5.9937 -69.106,0.31236 -143.07,5.385 -217.48,-4.0992 -26.513,-27.183 -25.324,-68.77 -20.721,-112.13 z"
       fill="none"
       stroke="#cac6c6"
       stroke-width="0.46887"
       id="path222" />
    <path
       d="m 543.26,565.45 c 0.0106,-1.1752 0.27621,-2.2547 1.5393,-2.9602 l 12.906,-1.3025 c 2.0208,0.53203 2.7381,1.8462 3.197,3.3154 l 3.789,32.681 -20.485,-2.1314 -0.94726,-29.602 z"
       fill="url(#l)"
       fill-rule="evenodd"
       id="path224"
       style="fill:url(#l)" />
  </g>
</svg>
