<?xml version="1.0" encoding="UTF-8" standalone="no"?>
<svg
   xmlns:dc="http://purl.org/dc/elements/1.1/"
   xmlns:cc="http://creativecommons.org/ns#"
   xmlns:rdf="http://www.w3.org/1999/02/22-rdf-syntax-ns#"
   xmlns:svg="http://www.w3.org/2000/svg"
   xmlns="http://www.w3.org/2000/svg"
   xmlns:xlink="http://www.w3.org/1999/xlink"
   xmlns:sodipodi="http://sodipodi.sourceforge.net/DTD/sodipodi-0.dtd"
   xmlns:inkscape="http://www.inkscape.org/namespaces/inkscape"
   viewBox="0 0 453.84879 152.67892"
   version="1.1"
   id="svg183"
   sodipodi:docname="glasses.svg"
   width="120.08083mm"
   height="40.396297mm"
   inkscape:version="1.0.2-2 (e86c870879, 2021-01-15)">
  <metadata
     id="metadata187">
    <rdf:RDF>
      <cc:Work
         rdf:about="">
        <dc:format>image/svg+xml</dc:format>
        <dc:type
           rdf:resource="http://purl.org/dc/dcmitype/StillImage" />
        <dc:title />
      </cc:Work>
    </rdf:RDF>
  </metadata>
  <sodipodi:namedview
     pagecolor="#ffffff"
     bordercolor="#666666"
     borderopacity="1"
     objecttolerance="10"
     gridtolerance="10"
     guidetolerance="10"
     inkscape:pageopacity="0"
     inkscape:pageshadow="2"
     inkscape:window-width="1920"
     inkscape:window-height="1017"
     id="namedview185"
     showgrid="false"
     units="mm"
     inkscape:zoom="0.99015341"
     inkscape:cx="514.36159"
     inkscape:cy="302.7263"
     inkscape:window-x="-8"
     inkscape:window-y="-8"
     inkscape:window-maximized="1"
     inkscape:current-layer="svg183"
     inkscape:document-rotation="0" />
  <defs
     id="defs27">
    <linearGradient
       id="d">
      <stop
         stop-color="#1a1a1a"
         offset="0"
         id="stop2" />
      <stop
         stop-color="#1a1a1a"
         stop-opacity="0"
         offset="1"
         id="stop4" />
    </linearGradient>
    <linearGradient
       id="f">
      <stop
         offset="0"
         id="stop7" />
      <stop
         stop-opacity="0"
         offset="1"
         id="stop9" />
    </linearGradient>
    <linearGradient
       id="b"
       x1="253.36"
       x2="259.12"
       y1="300.70999"
       y2="476.91"
       gradientUnits="userSpaceOnUse">
      <stop
         stop-color="#b3b3b3"
         offset="0"
         id="stop12" />
      <stop
         stop-color="#b3b3b3"
         stop-opacity="0"
         offset="1"
         id="stop14" />
    </linearGradient>
    <linearGradient
       id="g"
       x1="288.47"
       x2="184.82001"
       y1="422.62"
       y2="294.79001"
       gradientUnits="userSpaceOnUse">
      <stop
         stop-color="#fff"
         offset="0"
         id="stop17" />
      <stop
         offset="1"
         id="stop19" />
    </linearGradient>
    <linearGradient
       id="i"
       x1="-2.0787001"
       x2="76.106003"
       y1="96.285004"
       y2="183.11"
       gradientUnits="userSpaceOnUse"
       xlink:href="#d" />
    <linearGradient
       id="c"
       x1="287.34"
       x2="19.002001"
       y1="421.63"
       y2="273.07001"
       gradientUnits="userSpaceOnUse"
       xlink:href="#d" />
    <linearGradient
       id="a"
       x1="37.459999"
       x2="116.45"
       y1="288.06"
       y2="339.37"
       gradientUnits="userSpaceOnUse"
       xlink:href="#d" />
    <linearGradient
       id="h"
       x1="63.519001"
       x2="287.45999"
       y1="313.31"
       y2="531.54999"
       gradientUnits="userSpaceOnUse"
       xlink:href="#f" />
    <radialGradient
       id="e"
       cx="240.12"
       cy="593.22998"
       r="167.57001"
       gradientTransform="matrix(1,0,0,0.1512,0,503.53)"
       gradientUnits="userSpaceOnUse"
       xlink:href="#f" />
    <linearGradient
       inkscape:collect="always"
       xlink:href="#g"
       id="linearGradient1012"
       gradientUnits="userSpaceOnUse"
       x1="288.47"
       y1="422.62"
       x2="184.82001"
       y2="294.79001"
       gradientTransform="matrix(0.50028856,0,0,0.50028856,-19.555279,-145.83848)" />
    <linearGradient
       inkscape:collect="always"
       xlink:href="#b"
       id="linearGradient1014"
       gradientUnits="userSpaceOnUse"
       x1="253.36"
       y1="300.70999"
       x2="259.12"
       y2="476.91"
       gradientTransform="matrix(0.50028856,0,0,0.50028856,-19.555279,-145.83848)" />
    <linearGradient
       inkscape:collect="always"
       xlink:href="#b"
       id="linearGradient1016"
       gradientUnits="userSpaceOnUse"
       x1="253.36"
       y1="300.70999"
       x2="259.12"
       y2="476.91"
       gradientTransform="matrix(0.50028856,0,0,0.50028856,-19.555279,-145.83848)" />
    <linearGradient
       inkscape:collect="always"
       xlink:href="#b"
       id="linearGradient1018"
       gradientUnits="userSpaceOnUse"
       x1="253.36"
       y1="300.70999"
       x2="259.12"
       y2="476.91"
       gradientTransform="matrix(0.50028856,0,0,0.50028856,-19.555279,-145.83848)" />
    <linearGradient
       inkscape:collect="always"
       xlink:href="#b"
       id="linearGradient1020"
       gradientUnits="userSpaceOnUse"
       x1="253.36"
       y1="300.70999"
       x2="259.12"
       y2="476.91"
       gradientTransform="matrix(0.50028856,0,0,0.50028856,-19.555279,-145.83848)" />
    <linearGradient
       inkscape:collect="always"
       xlink:href="#f"
       id="linearGradient1022"
       gradientUnits="userSpaceOnUse"
       x1="63.519001"
       y1="313.31"
       x2="287.45999"
       y2="531.54999"
       gradientTransform="matrix(0.50028856,0,0,0.50028856,-19.555279,-145.83848)" />
    <linearGradient
       inkscape:collect="always"
       xlink:href="#b"
       id="linearGradient1024"
       gradientUnits="userSpaceOnUse"
       x1="253.36"
       y1="300.70999"
       x2="259.12"
       y2="476.91"
       gradientTransform="matrix(0.50028856,0,0,0.50028856,-19.555279,-145.83848)" />
    <linearGradient
       inkscape:collect="always"
       xlink:href="#b"
       id="linearGradient1026"
       gradientUnits="userSpaceOnUse"
       x1="253.36"
       y1="300.70999"
       x2="259.12"
       y2="476.91"
       gradientTransform="matrix(0.50028856,0,0,0.50028856,-19.555279,-145.83848)" />
    <linearGradient
       inkscape:collect="always"
       xlink:href="#b"
       id="linearGradient1028"
       gradientUnits="userSpaceOnUse"
       x1="253.36"
       y1="300.70999"
       x2="259.12"
       y2="476.91"
       gradientTransform="matrix(0.50028856,0,0,0.50028856,-19.555279,-145.83848)" />
    <linearGradient
       inkscape:collect="always"
       xlink:href="#b"
       id="linearGradient1030"
       gradientUnits="userSpaceOnUse"
       x1="253.36"
       y1="300.70999"
       x2="259.12"
       y2="476.91"
       gradientTransform="matrix(0.50028856,0,0,0.50028856,-19.555279,-145.83848)" />
    <radialGradient
       inkscape:collect="always"
       xlink:href="#f"
       id="radialGradient1032"
       gradientUnits="userSpaceOnUse"
       gradientTransform="matrix(0.50544154,0,0,0.04469858,0.236136,118.66954)"
       cx="240.12"
       cy="593.22998"
       r="167.57001" />
    <linearGradient
       inkscape:collect="always"
       xlink:href="#d"
       id="linearGradient1034"
       gradientUnits="userSpaceOnUse"
       x1="37.459999"
       y1="288.06"
       x2="116.45"
       y2="339.37"
       gradientTransform="matrix(0.50028856,0,0,0.50028856,-19.555279,-145.83848)" />
    <linearGradient
       inkscape:collect="always"
       xlink:href="#d"
       id="linearGradient1036"
       gradientUnits="userSpaceOnUse"
       x1="37.459999"
       y1="288.06"
       x2="116.45"
       y2="339.37"
       gradientTransform="matrix(0.50028856,0,0,0.50028856,-19.555279,-145.83848)" />
    <linearGradient
       inkscape:collect="always"
       xlink:href="#d"
       id="linearGradient1038"
       gradientUnits="userSpaceOnUse"
       x1="37.459999"
       y1="288.06"
       x2="116.45"
       y2="339.37"
       gradientTransform="matrix(0.50028856,0,0,0.50028856,-19.555279,-145.83848)" />
    <linearGradient
       inkscape:collect="always"
       xlink:href="#d"
       id="linearGradient1040"
       gradientUnits="userSpaceOnUse"
       x1="37.459999"
       y1="288.06"
       x2="116.45"
       y2="339.37"
       gradientTransform="matrix(0.50028856,0,0,0.50028856,-19.555279,-145.83848)" />
    <linearGradient
       inkscape:collect="always"
       xlink:href="#d"
       id="linearGradient1042"
       gradientUnits="userSpaceOnUse"
       x1="37.459999"
       y1="288.06"
       x2="116.45"
       y2="339.37"
       gradientTransform="matrix(0.50028856,0,0,0.50028856,-19.555279,-145.83848)" />
    <linearGradient
       inkscape:collect="always"
       xlink:href="#d"
       id="linearGradient1044"
       gradientUnits="userSpaceOnUse"
       x1="37.459999"
       y1="288.06"
       x2="116.45"
       y2="339.37"
       gradientTransform="matrix(0.50028856,0,0,0.50028856,-19.555279,-145.83848)" />
    <linearGradient
       inkscape:collect="always"
       xlink:href="#d"
       id="linearGradient1046"
       gradientUnits="userSpaceOnUse"
       x1="37.459999"
       y1="288.06"
       x2="116.45"
       y2="339.37"
       gradientTransform="matrix(0.50028856,0,0,0.50028856,-19.555279,-145.83848)" />
    <linearGradient
       inkscape:collect="always"
       xlink:href="#d"
       id="linearGradient1048"
       gradientUnits="userSpaceOnUse"
       x1="37.459999"
       y1="288.06"
       x2="116.45"
       y2="339.37"
       gradientTransform="matrix(0.50028856,0,0,0.50028856,-19.555279,-145.83848)" />
    <linearGradient
       inkscape:collect="always"
       xlink:href="#d"
       id="linearGradient1050"
       gradientUnits="userSpaceOnUse"
       x1="37.459999"
       y1="288.06"
       x2="116.45"
       y2="339.37"
       gradientTransform="matrix(0.50028856,0,0,0.50028856,-19.555279,-145.83848)" />
    <linearGradient
       inkscape:collect="always"
       xlink:href="#d"
       id="linearGradient1052"
       gradientUnits="userSpaceOnUse"
       x1="37.459999"
       y1="288.06"
       x2="116.45"
       y2="339.37"
       gradientTransform="matrix(0.50028856,0,0,0.50028856,-19.555279,-145.83848)" />
    <linearGradient
       inkscape:collect="always"
       xlink:href="#d"
       id="linearGradient1054"
       gradientUnits="userSpaceOnUse"
       x1="-2.0787001"
       y1="96.285004"
       x2="76.106003"
       y2="183.11"
       gradientTransform="matrix(0.50544154,0,0,0.29562551,0.236136,-30.186775)" />
    <linearGradient
       inkscape:collect="always"
       xlink:href="#d"
       id="linearGradient1056"
       gradientUnits="userSpaceOnUse"
       x1="287.34"
       y1="421.63"
       x2="19.002001"
       y2="273.07001"
       gradientTransform="matrix(0.50028856,0,0,0.50028856,-19.555279,-145.83848)" />
    <linearGradient
       inkscape:collect="always"
       xlink:href="#d"
       id="linearGradient1058"
       gradientUnits="userSpaceOnUse"
       x1="287.34"
       y1="421.63"
       x2="19.002001"
       y2="273.07001"
       gradientTransform="matrix(0.50028856,0,0,0.50028856,-19.555279,-145.83848)" />
    <linearGradient
       inkscape:collect="always"
       xlink:href="#d"
       id="linearGradient1060"
       gradientUnits="userSpaceOnUse"
       x1="287.34"
       y1="421.63"
       x2="19.002001"
       y2="273.07001"
       gradientTransform="matrix(0.50028856,0,0,0.50028856,-19.555279,-145.83848)" />
    <linearGradient
       inkscape:collect="always"
       xlink:href="#g"
       id="linearGradient1062"
       gradientUnits="userSpaceOnUse"
       x1="288.47"
       y1="422.62"
       x2="184.82001"
       y2="294.79001" />
    <linearGradient
       inkscape:collect="always"
       xlink:href="#b"
       id="linearGradient1064"
       gradientUnits="userSpaceOnUse"
       x1="253.36"
       y1="300.70999"
       x2="259.12"
       y2="476.91" />
    <linearGradient
       inkscape:collect="always"
       xlink:href="#b"
       id="linearGradient1066"
       gradientUnits="userSpaceOnUse"
       x1="253.36"
       y1="300.70999"
       x2="259.12"
       y2="476.91" />
    <linearGradient
       inkscape:collect="always"
       xlink:href="#b"
       id="linearGradient1068"
       gradientUnits="userSpaceOnUse"
       x1="253.36"
       y1="300.70999"
       x2="259.12"
       y2="476.91" />
    <linearGradient
       inkscape:collect="always"
       xlink:href="#b"
       id="linearGradient1070"
       gradientUnits="userSpaceOnUse"
       x1="253.36"
       y1="300.70999"
       x2="259.12"
       y2="476.91" />
    <linearGradient
       inkscape:collect="always"
       xlink:href="#b"
       id="linearGradient1072"
       gradientUnits="userSpaceOnUse"
       x1="253.36"
       y1="300.70999"
       x2="259.12"
       y2="476.91" />
    <linearGradient
       inkscape:collect="always"
       xlink:href="#b"
       id="linearGradient1074"
       gradientUnits="userSpaceOnUse"
       x1="253.36"
       y1="300.70999"
       x2="259.12"
       y2="476.91" />
    <linearGradient
       inkscape:collect="always"
       xlink:href="#b"
       id="linearGradient1076"
       gradientUnits="userSpaceOnUse"
       x1="253.36"
       y1="300.70999"
       x2="259.12"
       y2="476.91" />
    <linearGradient
       inkscape:collect="always"
       xlink:href="#b"
       id="linearGradient1078"
       gradientUnits="userSpaceOnUse"
       x1="253.36"
       y1="300.70999"
       x2="259.12"
       y2="476.91" />
    <linearGradient
       inkscape:collect="always"
       xlink:href="#d"
       id="linearGradient1080"
       gradientUnits="userSpaceOnUse"
       x1="37.459999"
       y1="288.06"
       x2="116.45"
       y2="339.37" />
    <linearGradient
       inkscape:collect="always"
       xlink:href="#d"
       id="linearGradient1082"
       gradientUnits="userSpaceOnUse"
       x1="37.459999"
       y1="288.06"
       x2="116.45"
       y2="339.37" />
    <linearGradient
       inkscape:collect="always"
       xlink:href="#d"
       id="linearGradient1084"
       gradientUnits="userSpaceOnUse"
       x1="37.459999"
       y1="288.06"
       x2="116.45"
       y2="339.37" />
    <linearGradient
       inkscape:collect="always"
       xlink:href="#d"
       id="linearGradient1086"
       gradientUnits="userSpaceOnUse"
       x1="37.459999"
       y1="288.06"
       x2="116.45"
       y2="339.37" />
    <linearGradient
       inkscape:collect="always"
       xlink:href="#d"
       id="linearGradient1088"
       gradientUnits="userSpaceOnUse"
       x1="37.459999"
       y1="288.06"
       x2="116.45"
       y2="339.37" />
    <linearGradient
       inkscape:collect="always"
       xlink:href="#d"
       id="linearGradient1090"
       gradientUnits="userSpaceOnUse"
       x1="37.459999"
       y1="288.06"
       x2="116.45"
       y2="339.37" />
    <linearGradient
       inkscape:collect="always"
       xlink:href="#d"
       id="linearGradient1092"
       gradientUnits="userSpaceOnUse"
       x1="37.459999"
       y1="288.06"
       x2="116.45"
       y2="339.37" />
    <linearGradient
       inkscape:collect="always"
       xlink:href="#d"
       id="linearGradient1094"
       gradientUnits="userSpaceOnUse"
       x1="37.459999"
       y1="288.06"
       x2="116.45"
       y2="339.37" />
    <linearGradient
       inkscape:collect="always"
       xlink:href="#d"
       id="linearGradient1096"
       gradientUnits="userSpaceOnUse"
       x1="37.459999"
       y1="288.06"
       x2="116.45"
       y2="339.37" />
    <linearGradient
       inkscape:collect="always"
       xlink:href="#d"
       id="linearGradient1098"
       gradientUnits="userSpaceOnUse"
       x1="287.34"
       y1="421.63"
       x2="19.002001"
       y2="273.07001" />
    <linearGradient
       inkscape:collect="always"
       xlink:href="#d"
       id="linearGradient1100"
       gradientUnits="userSpaceOnUse"
       x1="287.34"
       y1="421.63"
       x2="19.002001"
       y2="273.07001" />
  </defs>
  <path
     d="m 0.612853,12.537867 43.523602,23.074316 c 2.789961,-2.4972 5.794844,-4.56384 10.043299,-4.13994 4.379124,0.0686 7.919566,-1.911356 11.168441,-4.603711 4.038477,-3.473151 8.584953,-5.866379 14.253718,-5.875384 4.526513,-1.475553 7.188647,1.329716 9.754629,4.35631 0,0 9.25734,19.094015 17.034318,28.757085 7.77699,9.66308 29.93677,4.98568 23.15736,-6.47123 C 122.76881,36.178403 100.60953,15.501276 100.60953,15.501276 93.851632,7.0864202 85.636895,4.8876552 77.178016,3.7309872 42.509518,-5.5528708 22.266343,4.4375462 0.613854,12.538067 Z"
     fill="url(#g)"
     id="path29"
     style="fill:url(#linearGradient1012);stroke-width:0.500288" />
  <path
     d="M 0,11.31216 C 69.985368,10.724021 140.05578,9.0149332 208.50026,27.942754 l 1.72204,0.480684 c 7.38976,10.830745 19.86546,6.403695 30.14789,8.555435 l 0.40741,21.59245 c -12.58726,1.77047 -26.93504,-2.32739 -31.77783,25.25907 l -0.96606,1.51538 c -4.79221,12.89543 -12.38564,21.868607 -19.81142,31.076917 -7.51184,7.92707 -16.82021,12.26057 -26.48128,15.88867 -12.57225,4.47853 -26.30517,4.89407 -39.92603,5.70378 -13.7049,-0.27717 -24.089888,-2.21417 -34.629469,-4.07404 C 73.527132,131.55502 66.85378,128.00467 59.482029,124.57069 45.394406,119.12555 39.80218,108.21876 33.000754,98.089423 25.03466,79.395633 20.982823,67.971543 16.704355,56.126713 16.281241,46.767813 9.13599,42.210183 1.222925,38.200873 Z"
     fill="#1a1a1a"
     id="path31"
     style="stroke-width:0.500288" />
  <path
     d="M 198.81568,49.609253 C 192.2754,37.046003 177.09264,30.134019 156.44524,26.794589 121.37551,20.090226 89.061372,22.201841 56.632667,23.942748 45.374171,28.444146 28.869152,25.075299 31.780831,50.831753 c 0.03152,11.73277 0.308788,23.43002 4.07405,34.62948 4.588095,12.82039 13.342696,24.251977 27.70348,33.814497 12.36413,5.10144 25.127491,9.27035 39.111059,10.59261 17.07835,1.56375 33.16813,1.15146 48.07373,-1.62964 10.27192,-4.53742 18.06542,-3.05441 35.44444,-24.85184 5.74081,-9.890197 12.26258,-19.292617 13.85199,-31.777817 z"
     fill="#e6e6e6"
     id="path33"
     style="stroke-width:0.500288" />
  <path
     d="M 198.81568,49.609253 C 192.2754,37.046003 177.09264,30.134019 156.44524,26.794589 121.37551,20.090226 89.061372,22.201841 56.632667,23.942748 45.374171,28.444146 28.869152,25.075299 31.780831,50.831753 c 0.03152,11.73277 0.308788,23.43002 4.07405,34.62948 4.588095,12.82039 13.342696,24.251977 27.70348,33.814497 12.36413,5.10144 25.127491,9.27035 39.111059,10.59261 17.07835,1.56375 33.16813,1.15146 48.07373,-1.62964 10.27192,-4.53742 18.06542,-3.05441 35.44444,-24.85184 5.74081,-9.890197 12.26258,-19.292617 13.85199,-31.777817 z"
     fill="url(#b)"
     id="path35"
     style="fill:url(#linearGradient1014);stroke-width:0.500288" />
  <path
     d="M 198.81568,49.609253 C 192.2754,37.046003 177.09264,30.134019 156.44524,26.794589 121.37551,20.090226 89.061372,22.201841 56.632667,23.942748 45.374171,28.444146 28.869152,25.075299 31.780831,50.831753 c 0.03152,11.73277 0.308788,23.43002 4.07405,34.62948 4.588095,12.82039 13.342696,24.251977 27.70348,33.814497 12.36413,5.10144 25.127491,9.27035 39.111059,10.59261 17.07835,1.56375 33.16813,1.15146 48.07373,-1.62964 10.27192,-4.53742 18.06542,-3.05441 35.44444,-24.85184 5.74081,-9.890197 12.26258,-19.292617 13.85199,-31.777817 z"
     fill="url(#b)"
     id="path37"
     style="fill:url(#linearGradient1016);stroke-width:0.500288" />
  <path
     d="M 198.81568,49.609253 C 192.2754,37.046003 177.09264,30.134019 156.44524,26.794589 121.37551,20.090226 89.061372,22.201841 56.632667,23.942748 45.374171,28.444146 28.869152,25.075299 31.780831,50.831753 c 0.03152,11.73277 0.308788,23.43002 4.07405,34.62948 4.588095,12.82039 13.342696,24.251977 27.70348,33.814497 12.36413,5.10144 25.127491,9.27035 39.111059,10.59261 17.07835,1.56375 33.16813,1.15146 48.07373,-1.62964 10.27192,-4.53742 18.06542,-3.05441 35.44444,-24.85184 5.74081,-9.890197 12.26258,-19.292617 13.85199,-31.777817 z"
     fill="url(#b)"
     id="path39"
     style="fill:url(#linearGradient1018);stroke-width:0.500288" />
  <path
     d="M 198.81568,49.609253 C 192.2754,37.046003 177.09264,30.134019 156.44524,26.794589 121.37551,20.090226 89.061372,22.201841 56.632667,23.942748 45.374171,28.444146 28.869152,25.075299 31.780831,50.831753 c 0.03152,11.73277 0.308788,23.43002 4.07405,34.62948 4.588095,12.82039 13.342696,24.251977 27.70348,33.814497 12.36413,5.10144 25.127491,9.27035 39.111059,10.59261 17.07835,1.56375 33.16813,1.15146 48.07373,-1.62964 10.27192,-4.53742 18.06542,-3.05441 35.44444,-24.85184 5.74081,-9.890197 12.26258,-19.292617 13.85199,-31.777817 z"
     fill="url(#b)"
     id="path41"
     style="fill:url(#linearGradient1020);stroke-width:0.500288" />
  <path
     d="m 100.86418,15.974849 c -15.816126,0.03488 -31.368094,0.99242 -46.933074,1.860472 -11.52765,4.788015 -28.41789,1.198291 -25.43667,28.594492 0.03227,12.4797 0.318933,24.92138 4.174307,36.83375 4.697862,13.63687 13.655377,25.802377 28.360362,35.973747 12.659798,5.42613 25.720336,9.85018 40.038585,11.25649 17.48659,1.66336 33.9691,1.22281 49.2314,-1.7354 4.05654,-1.86142 7.73096,-2.7739 11.74127,-4.51821 -3.79108,1.55345 -7.27919,2.4102 -11.13142,4.11178 -14.9056,2.7811 -30.99638,3.18968 -48.07472,1.62593 C 88.850652,128.65594 76.081782,124.49474 63.717653,119.3938 49.356869,109.83129 40.602321,98.397693 36.014176,85.577303 32.248901,74.377833 31.965237,62.680593 31.93372,50.947823 29.02209,25.191464 45.533563,28.558907 56.792058,24.057315 c 32.430204,-1.740907 64.737342,-3.859127 99.807572,2.845391 20.64691,3.339376 35.82766,10.262417 42.36843,22.825667 l 1.23506,21.99718 c -0.0496,0.39017 -0.11281,0.77265 -0.17195,1.15692 0.30183,-1.41402 0.56773,-2.85495 0.75044,-4.34626 l -1.26633,-23.404 c -6.69687,-13.3632 -22.22782,-20.711944 -43.36902,-24.263988 -19.0765,-3.788591 -37.35705,-4.93295 -55.28188,-4.893423 z m 99.13718,57.077924 c -2.40854,11.0984 -8.22224,19.99103 -13.41374,29.282387 -10.78872,14.05711 -17.96936,18.99596 -24.29501,21.79357 6.25711,-2.6064 13.33969,-7.19065 24.06088,-20.6369 5.53419,-9.534497 11.78179,-18.612737 13.64837,-30.439557 z"
     fill="url(#h)"
     id="path43"
     style="fill:url(#linearGradient1022);stroke-width:0.500288" />
  <path
     d="M 198.81568,49.609253 C 192.2754,37.046003 177.09264,30.134019 156.44524,26.794589 121.37551,20.090226 89.061372,22.201841 56.632667,23.942748 45.374171,28.444146 28.869152,25.075299 31.780831,50.831753 c 0.03152,11.73277 0.308788,23.43002 4.07405,34.62948 4.588095,12.82039 13.342696,24.251977 27.70348,33.814497 12.36413,5.10144 25.127491,9.27035 39.111059,10.59261 17.07835,1.56375 33.16813,1.15146 48.07373,-1.62964 10.27192,-4.53742 18.06542,-3.05441 35.44444,-24.85184 5.74081,-9.890197 12.26258,-19.292617 13.85199,-31.777817 z"
     fill="#e6e6e6"
     id="path45"
     style="stroke-width:0.500288" />
  <path
     d="M 198.81568,49.609253 C 192.2754,37.046003 177.09264,30.134019 156.44524,26.794589 121.37551,20.090226 89.061372,22.201841 56.632667,23.942748 45.374171,28.444146 28.869152,25.075299 31.780831,50.831753 c 0.03152,11.73277 0.308788,23.43002 4.07405,34.62948 4.588095,12.82039 13.342696,24.251977 27.70348,33.814497 12.36413,5.10144 25.127491,9.27035 39.111059,10.59261 17.07835,1.56375 33.16813,1.15146 48.07373,-1.62964 10.27192,-4.53742 18.06542,-3.05441 35.44444,-24.85184 5.74081,-9.890197 12.26258,-19.292617 13.85199,-31.777817 z"
     fill="url(#b)"
     id="path47"
     style="fill:url(#linearGradient1024);stroke-width:0.500288" />
  <path
     d="M 198.81568,49.609253 C 192.2754,37.046003 177.09264,30.134019 156.44524,26.794589 121.37551,20.090226 89.061372,22.201841 56.632667,23.942748 45.374171,28.444146 28.869152,25.075299 31.780831,50.831753 c 0.03152,11.73277 0.308788,23.43002 4.07405,34.62948 4.588095,12.82039 13.342696,24.251977 27.70348,33.814497 12.36413,5.10144 25.127491,9.27035 39.111059,10.59261 17.07835,1.56375 33.16813,1.15146 48.07373,-1.62964 10.27192,-4.53742 18.06542,-3.05441 35.44444,-24.85184 5.74081,-9.890197 12.26258,-19.292617 13.85199,-31.777817 z"
     fill="url(#b)"
     id="path49"
     style="fill:url(#linearGradient1026);stroke-width:0.500288" />
  <path
     d="M 198.81568,49.609253 C 192.2754,37.046003 177.09264,30.134019 156.44524,26.794589 121.37551,20.090226 89.061372,22.201841 56.632667,23.942748 45.374171,28.444146 28.869152,25.075299 31.780831,50.831753 c 0.03152,11.73277 0.308788,23.43002 4.07405,34.62948 4.588095,12.82039 13.342696,24.251977 27.70348,33.814497 12.36413,5.10144 25.127491,9.27035 39.111059,10.59261 17.07835,1.56375 33.16813,1.15146 48.07373,-1.62964 10.27192,-4.53742 18.06542,-3.05441 35.44444,-24.85184 5.74081,-9.890197 12.26258,-19.292617 13.85199,-31.777817 z"
     fill="url(#b)"
     id="path51"
     style="fill:url(#linearGradient1028);stroke-width:0.500288" />
  <path
     d="M 198.81568,49.609253 C 192.2754,37.046003 177.09264,30.134019 156.44524,26.794589 121.37551,20.090226 89.061372,22.201841 56.632667,23.942748 45.374171,28.444146 28.869152,25.075299 31.780831,50.831753 c 0.03152,11.73277 0.308788,23.43002 4.07405,34.62948 4.588095,12.82039 13.342696,24.251977 27.70348,33.814497 12.36413,5.10144 25.127491,9.27035 39.111059,10.59261 17.07835,1.56375 33.16813,1.15146 48.07373,-1.62964 10.27192,-4.53742 18.06542,-3.05441 35.44444,-24.85184 5.74081,-9.890197 12.26258,-19.292617 13.85199,-31.777817 z"
     fill="url(#b)"
     id="path53"
     style="fill:url(#linearGradient1030);stroke-width:0.500288" />
  <path
     d="m 100.86418,15.974849 c -15.816126,0.03488 -31.368094,0.99242 -46.933074,1.860472 -11.52765,4.788015 -28.41789,1.198291 -25.43667,28.594492 0.03227,12.4797 0.318933,24.92138 4.174307,36.83375 4.697862,13.63687 13.655377,25.802377 28.360362,35.973747 12.659798,5.42613 25.720336,9.85018 40.038585,11.25649 17.48659,1.66336 33.9691,1.22281 49.2314,-1.7354 4.05654,-1.86142 7.73096,-2.7739 11.74127,-4.51821 -3.79108,1.55345 -7.27919,2.4102 -11.13142,4.11178 -14.9056,2.7811 -30.99638,3.18968 -48.07472,1.62593 C 88.850652,128.65594 76.081782,124.49474 63.717653,119.3938 49.356869,109.83129 40.602321,98.397693 36.014176,85.577303 32.248901,74.377833 31.965237,62.680593 31.93372,50.947823 29.02209,25.191464 45.533563,28.558907 56.792058,24.057315 c 32.430204,-1.740907 64.737342,-3.859127 99.807572,2.845391 20.64691,3.339376 35.82766,10.262417 42.36843,22.825667 l 1.23506,21.99718 c -0.0496,0.39017 -0.11281,0.77265 -0.17195,1.15692 0.30183,-1.41402 0.56773,-2.85495 0.75044,-4.34626 l -1.26633,-23.404 c -6.69687,-13.3632 -22.22782,-20.711944 -43.36902,-24.263988 -19.0765,-3.788591 -37.35705,-4.93295 -55.28188,-4.893423 z m 99.13718,57.077924 c -2.40854,11.0984 -8.22224,19.99103 -13.41374,29.282387 -10.78872,14.05711 -17.96936,18.99596 -24.29501,21.79357 6.25711,-2.6064 13.33969,-7.19065 24.06088,-20.6369 5.53419,-9.534497 11.78179,-18.612737 13.64837,-30.439557 z"
     fill="#333333"
     id="path55"
     style="stroke-width:0.500288" />
  <path
     d="m 21.381637,27.117599 a 7.2740835,4.6813492 16.403646 1 1 0.0086,-0.0298"
     fill="#999999"
     id="path57"
     style="stroke-width:0.431303" />
  <path
     d="m 21.381637,27.117599 a 7.2740835,4.6813492 16.403646 1 1 0.0086,-0.0298"
     fill="#999999"
     id="path59"
     style="stroke-width:0.431303" />
  <path
     d="M 198.81568,49.609253 C 192.2754,37.046003 177.09264,30.134019 156.44524,26.794589 121.37551,20.090226 89.061372,22.201841 56.632667,23.942748 45.374171,28.444146 28.869152,25.075299 31.780831,50.831753 c 0.03152,11.73277 0.308788,23.43002 4.07405,34.62948 4.588095,12.82039 13.342696,24.251977 27.70348,33.814497 12.36413,5.10144 25.127491,9.27035 39.111059,10.59261 17.07835,1.56375 33.16813,1.15146 48.07373,-1.62964 10.27192,-4.53742 18.06542,-3.05441 35.44444,-24.85184 5.74081,-9.890197 12.26258,-19.292617 13.85199,-31.777817 z"
     fill="#ffffff"
     id="path61"
     style="stroke-width:0.500288" />
  <path
     d="m 21.381637,27.117599 a 7.2740835,4.6813492 16.403646 1 1 0.0086,-0.0298"
     fill="#999999"
     id="path63"
     style="stroke-width:0.431303" />
  <path
     d="m 21.381637,27.117599 a 7.2740835,4.6813492 16.403646 1 1 0.0086,-0.0298"
     fill="#999999"
     id="path65"
     style="stroke-width:0.431303" />
  <path
     d="m 206.2996,145.18714 a 84.696836,7.4899678 0 1 1 -0.002,-0.0497"
     fill="url(#e)"
     id="path67"
     style="fill:url(#radialGradient1032);stroke-width:0.386551" />
  <path
     d="M 0,11.31216 C 69.985368,10.724021 140.05578,9.0149332 208.50026,27.942754 l 1.72204,0.480684 c 7.38976,10.830745 19.86546,6.403695 30.14789,8.555435 l 0.40741,21.59245 c -12.58726,1.77047 -26.93504,-2.32739 -31.77783,25.25907 l -0.96606,1.51538 c -4.79221,12.89543 -12.38564,21.868607 -19.81142,31.076917 -7.51184,7.92707 -16.82021,12.26057 -26.48128,15.88867 -12.57225,4.47853 -26.30517,4.89407 -39.92603,5.70378 -13.7049,-0.27717 -24.089888,-2.21417 -34.629469,-4.07404 C 73.527132,131.55502 66.85378,128.00467 59.482029,124.57069 45.394406,119.12555 39.80218,108.21876 33.000754,98.089423 25.03466,79.395633 20.982823,67.971543 16.704355,56.126713 16.281241,46.767813 9.13599,42.210183 1.222925,38.200873 Z"
     fill="url(#a)"
     id="path69"
     style="fill:url(#linearGradient1034);stroke-width:0.500288" />
  <path
     d="M 198.81568,49.609253 C 192.2754,37.046003 177.09264,30.134019 156.44524,26.794589 121.37551,20.090226 89.061372,22.201841 56.632667,23.942748 45.374171,28.444146 28.869152,25.075299 31.780831,50.831753 c 0.03152,11.73277 0.308788,23.43002 4.07405,34.62948 4.588095,12.82039 13.342696,24.251977 27.70348,33.814497 12.36413,5.10144 25.127491,9.27035 39.111059,10.59261 17.07835,1.56375 33.16813,1.15146 48.07373,-1.62964 10.27192,-4.53742 18.06542,-3.05441 35.44444,-24.85184 5.74081,-9.890197 12.26258,-19.292617 13.85199,-31.777817 z"
     fill="url(#a)"
     id="path71"
     style="fill:url(#linearGradient1036);stroke-width:0.500288" />
  <path
     d="M 198.81568,49.609253 C 192.2754,37.046003 177.09264,30.134019 156.44524,26.794589 121.37551,20.090226 89.061372,22.201841 56.632667,23.942748 45.374171,28.444146 28.869152,25.075299 31.780831,50.831753 c 0.03152,11.73277 0.308788,23.43002 4.07405,34.62948 4.588095,12.82039 13.342696,24.251977 27.70348,33.814497 12.36413,5.10144 25.127491,9.27035 39.111059,10.59261 17.07835,1.56375 33.16813,1.15146 48.07373,-1.62964 10.27192,-4.53742 18.06542,-3.05441 35.44444,-24.85184 5.74081,-9.890197 12.26258,-19.292617 13.85199,-31.777817 z"
     fill="url(#a)"
     id="path73"
     style="fill:url(#linearGradient1038);stroke-width:0.500288" />
  <path
     d="M 198.81568,49.609253 C 192.2754,37.046003 177.09264,30.134019 156.44524,26.794589 121.37551,20.090226 89.061372,22.201841 56.632667,23.942748 45.374171,28.444146 28.869152,25.075299 31.780831,50.831753 c 0.03152,11.73277 0.308788,23.43002 4.07405,34.62948 4.588095,12.82039 13.342696,24.251977 27.70348,33.814497 12.36413,5.10144 25.127491,9.27035 39.111059,10.59261 17.07835,1.56375 33.16813,1.15146 48.07373,-1.62964 10.27192,-4.53742 18.06542,-3.05441 35.44444,-24.85184 5.74081,-9.890197 12.26258,-19.292617 13.85199,-31.777817 z"
     fill="url(#a)"
     id="path75"
     style="fill:url(#linearGradient1040);stroke-width:0.500288" />
  <path
     d="M 198.81568,49.609253 C 192.2754,37.046003 177.09264,30.134019 156.44524,26.794589 121.37551,20.090226 89.061372,22.201841 56.632667,23.942748 45.374171,28.444146 28.869152,25.075299 31.780831,50.831753 c 0.03152,11.73277 0.308788,23.43002 4.07405,34.62948 4.588095,12.82039 13.342696,24.251977 27.70348,33.814497 12.36413,5.10144 25.127491,9.27035 39.111059,10.59261 17.07835,1.56375 33.16813,1.15146 48.07373,-1.62964 10.27192,-4.53742 18.06542,-3.05441 35.44444,-24.85184 5.74081,-9.890197 12.26258,-19.292617 13.85199,-31.777817 z"
     fill="url(#a)"
     id="path77"
     style="fill:url(#linearGradient1042);stroke-width:0.500288" />
  <path
     d="M 198.81568,49.609253 C 192.2754,37.046003 177.09264,30.134019 156.44524,26.794589 121.37551,20.090226 89.061372,22.201841 56.632667,23.942748 45.374171,28.444146 28.869152,25.075299 31.780831,50.831753 c 0.03152,11.73277 0.308788,23.43002 4.07405,34.62948 4.588095,12.82039 13.342696,24.251977 27.70348,33.814497 12.36413,5.10144 25.127491,9.27035 39.111059,10.59261 17.07835,1.56375 33.16813,1.15146 48.07373,-1.62964 10.27192,-4.53742 18.06542,-3.05441 35.44444,-24.85184 5.74081,-9.890197 12.26258,-19.292617 13.85199,-31.777817 z"
     fill="url(#a)"
     id="path79"
     style="fill:url(#linearGradient1044);stroke-width:0.500288" />
  <path
     d="m 100.86418,15.974849 c -15.816126,0.03488 -31.368094,0.99242 -46.933074,1.860472 -11.52765,4.788015 -28.41789,1.198291 -25.43667,28.594492 0.03227,12.4797 0.318933,24.92138 4.174307,36.83375 4.697862,13.63687 13.655377,25.802377 28.360362,35.973747 12.659798,5.42613 25.720336,9.85018 40.038585,11.25649 17.48659,1.66336 33.9691,1.22281 49.2314,-1.7354 4.05654,-1.86142 7.73096,-2.7739 11.74127,-4.51821 -3.79108,1.55345 -7.27919,2.4102 -11.13142,4.11178 -14.9056,2.7811 -30.99638,3.18968 -48.07472,1.62593 C 88.850652,128.65594 76.081782,124.49474 63.717653,119.3938 49.356869,109.83129 40.602321,98.397693 36.014176,85.577303 32.248901,74.377833 31.965237,62.680593 31.93372,50.947823 29.02209,25.191464 45.533563,28.558907 56.792058,24.057315 c 32.430204,-1.740907 64.737342,-3.859127 99.807572,2.845391 20.64691,3.339376 35.82766,10.262417 42.36843,22.825667 l 1.23506,21.99718 c -0.0496,0.39017 -0.11281,0.77265 -0.17195,1.15692 0.30183,-1.41402 0.56773,-2.85495 0.75044,-4.34626 l -1.26633,-23.404 c -6.69687,-13.3632 -22.22782,-20.711944 -43.36902,-24.263988 -19.0765,-3.788591 -37.35705,-4.93295 -55.28188,-4.893423 z m 99.13718,57.077924 c -2.40854,11.0984 -8.22224,19.99103 -13.41374,29.282387 -10.78872,14.05711 -17.96936,18.99596 -24.29501,21.79357 6.25711,-2.6064 13.33969,-7.19065 24.06088,-20.6369 5.53419,-9.534497 11.78179,-18.612737 13.64837,-30.439557 z"
     fill="url(#a)"
     id="path81"
     style="fill:url(#linearGradient1046);stroke-width:0.500288" />
  <path
     d="M 198.81568,49.609253 C 192.2754,37.046003 177.09264,30.134019 156.44524,26.794589 121.37551,20.090226 89.061372,22.201841 56.632667,23.942748 45.374171,28.444146 28.869152,25.075299 31.780831,50.831753 c 0.03152,11.73277 0.308788,23.43002 4.07405,34.62948 4.588095,12.82039 13.342696,24.251977 27.70348,33.814497 12.36413,5.10144 25.127491,9.27035 39.111059,10.59261 17.07835,1.56375 33.16813,1.15146 48.07373,-1.62964 10.27192,-4.53742 18.06542,-3.05441 35.44444,-24.85184 5.74081,-9.890197 12.26258,-19.292617 13.85199,-31.777817 z"
     fill="url(#a)"
     id="path83"
     style="fill:url(#linearGradient1048);stroke-width:0.500288" />
  <path
     d="M 198.81568,49.609253 C 192.2754,37.046003 177.09264,30.134019 156.44524,26.794589 121.37551,20.090226 89.061372,22.201841 56.632667,23.942748 45.374171,28.444146 28.869152,25.075299 31.780831,50.831753 c 0.03152,11.73277 0.308788,23.43002 4.07405,34.62948 4.588095,12.82039 13.342696,24.251977 27.70348,33.814497 12.36413,5.10144 25.127491,9.27035 39.111059,10.59261 17.07835,1.56375 33.16813,1.15146 48.07373,-1.62964 10.27192,-4.53742 18.06542,-3.05441 35.44444,-24.85184 5.74081,-9.890197 12.26258,-19.292617 13.85199,-31.777817 z"
     fill="url(#a)"
     id="path85"
     style="fill:url(#linearGradient1050);stroke-width:0.500288" />
  <path
     d="m 100.86418,15.974849 c -15.816126,0.03488 -31.368094,0.99242 -46.933074,1.860472 -11.52765,4.788015 -28.41789,1.198291 -25.43667,28.594492 0.03227,12.4797 0.318933,24.92138 4.174307,36.83375 4.697862,13.63687 13.655377,25.802377 28.360362,35.973747 12.659798,5.42613 25.720336,9.85018 40.038585,11.25649 17.48659,1.66336 33.9691,1.22281 49.2314,-1.7354 4.05654,-1.86142 7.73096,-2.7739 11.74127,-4.51821 -3.79108,1.55345 -7.27919,2.4102 -11.13142,4.11178 -14.9056,2.7811 -30.99638,3.18968 -48.07472,1.62593 C 88.850652,128.65594 76.081782,124.49474 63.717653,119.3938 49.356869,109.83129 40.602321,98.397693 36.014176,85.577303 32.248901,74.377833 31.965237,62.680593 31.93372,50.947823 29.02209,25.191464 45.533563,28.558907 56.792058,24.057315 c 32.430204,-1.740907 64.737342,-3.859127 99.807572,2.845391 20.64691,3.339376 35.82766,10.262417 42.36843,22.825667 l 1.23506,21.99718 c -0.0496,0.39017 -0.11281,0.77265 -0.17195,1.15692 0.30183,-1.41402 0.56773,-2.85495 0.75044,-4.34626 l -1.26633,-23.404 c -6.69687,-13.3632 -22.22782,-20.711944 -43.36902,-24.263988 -19.0765,-3.788591 -37.35705,-4.93295 -55.28188,-4.893423 z m 99.13718,57.077924 c -2.40854,11.0984 -8.22224,19.99103 -13.41374,29.282387 -10.78872,14.05711 -17.96936,18.99596 -24.29501,21.79357 6.25711,-2.6064 13.33969,-7.19065 24.06088,-20.6369 5.53419,-9.534497 11.78179,-18.612737 13.64837,-30.439557 z"
     fill="url(#a)"
     id="path87"
     style="fill:url(#linearGradient1052);stroke-width:0.500288" />
  <path
     d="m 21.381637,27.117599 a 7.2740835,4.6813492 16.403646 1 1 0.0086,-0.0298"
     fill="#999999"
     id="path89"
     style="stroke-width:0.431303" />
  <path
     d="m 21.381637,27.117599 a 7.2740835,4.6813492 16.403646 1 1 0.0086,-0.0298"
     fill="#999999"
     id="path91"
     style="stroke-width:0.431303" />
  <path
     d="m 21.381637,27.117599 a 7.2740835,4.6813492 16.403646 1 1 0.0086,-0.0298"
     fill="#999999"
     id="path93"
     style="stroke-width:0.431303" />
  <path
     d="m 21.381637,27.117599 a 7.2740835,4.6813492 16.403646 1 1 0.0086,-0.0298"
     fill="#999999"
     id="path95"
     style="stroke-width:0.431303" />
  <path
     d="m 206.2996,145.18714 a 84.696836,7.4899678 0 1 1 -0.002,-0.0497"
     fill="url(#i)"
     id="path97"
     style="fill:url(#linearGradient1054);stroke-width:0.386551" />
  <path
     d="m 105.54688,22.198442 c -6.378178,-0.0357 -12.710328,0.08403 -19.010963,0.297044 1.008082,0.834881 1.923605,1.870327 2.829725,2.939197 0,0 9.24884,19.08801 17.025318,28.75108 7.77649,9.66307 29.94928,4.98463 23.16937,-6.47273 -4.35321,-7.35674 -14.99365,-18.454643 -22.09074,-25.499206 l -1.92301,-0.01564 z m -34.675999,0.984967 c -4.750894,0.241897 -9.495977,0.511246 -14.242717,0.766043 -6.712373,2.683745 -15.280814,2.575481 -20.496324,7.504331 l 8.004615,4.23684 c 2.789961,-2.49719 5.804351,-4.55128 10.0528,-4.12738 4.37913,0.0686 7.914066,-1.91971 11.16244,-4.612059 1.730001,-1.487862 3.554004,-2.778855 5.518685,-3.767775 z"
     fill="url(#c)"
     id="path99"
     style="fill:url(#linearGradient1056);stroke-width:0.500288" />
  <path
     d="m 105.54688,22.198442 c -6.378178,-0.0357 -12.710328,0.08403 -19.010963,0.297044 1.008082,0.834881 1.923605,1.870327 2.829725,2.939197 0,0 9.24884,19.08801 17.025318,28.75108 7.77649,9.66307 29.94928,4.98463 23.16937,-6.47273 -4.35321,-7.35674 -14.99365,-18.454643 -22.09074,-25.499206 l -1.92301,-0.01564 z m -34.675999,0.984967 c -4.750894,0.241897 -9.495977,0.511246 -14.242717,0.766043 -6.712373,2.683745 -15.280814,2.575481 -20.496324,7.504331 l 8.004615,4.23684 c 2.789961,-2.49719 5.804351,-4.55128 10.0528,-4.12738 4.37913,0.0686 7.914066,-1.91971 11.16244,-4.612059 1.730001,-1.487862 3.554004,-2.778855 5.518685,-3.767775 z"
     fill="url(#c)"
     id="path101"
     style="fill:url(#linearGradient1058);stroke-width:0.500288" />
  <path
     d="m 105.54688,22.198442 c -6.378178,-0.0357 -12.710328,0.08403 -19.010963,0.297044 1.008082,0.834881 1.923605,1.870327 2.829725,2.939197 0,0 9.24884,19.08801 17.025318,28.75108 7.77649,9.66307 29.94928,4.98463 23.16937,-6.47273 -4.35321,-7.35674 -14.99365,-18.454643 -22.09074,-25.499206 l -1.92301,-0.01564 z m -34.675999,0.984967 c -4.750894,0.241897 -9.495977,0.511246 -14.242717,0.766043 -6.712373,2.683745 -15.280814,2.575481 -20.496324,7.504331 l 8.004615,4.23684 c 2.789961,-2.49719 5.804351,-4.55128 10.0528,-4.12738 4.37913,0.0686 7.914066,-1.91971 11.16244,-4.612059 1.730001,-1.487862 3.554004,-2.778855 5.518685,-3.767775 z"
     fill="url(#c)"
     id="path103"
     style="fill:url(#linearGradient1060);stroke-width:0.500288" />
  <g
     transform="matrix(-0.50028857,0,0,0.50028857,473.40406,-145.83849)"
     id="g181">
    <path
       d="m 40.313,316.57 86.997,46.122 c 5.5767,-4.9915 11.583,-9.1224 20.075,-8.2751 8.7532,0.13709 15.83,-3.8205 22.324,-9.2021 8.0723,-6.9423 17.16,-11.726 28.491,-11.744 9.0478,-2.9494 14.369,2.6579 19.498,8.7076 0,0 18.504,38.166 34.049,57.481 15.545,19.315 59.839,9.9656 46.288,-12.935 -13.551,-22.9006 -57.844,-64.231 -57.844,-64.231 -13.508,-16.82 -29.928,-21.215 -46.836,-23.527 -69.297,-18.557 -109.76,1.4123 -153.04,17.604 z"
       fill="url(#g)"
       id="path105"
       style="fill:url(#linearGradient1062)" />
    <path
       d="m 39.088,314.12 c 139.89,-1.1756 279.95,-4.5918 416.76,33.242 l 3.4421,0.96081 c 14.771,21.649 39.708,12.8 60.261,17.101 l 0.81434,43.16 c -25.16,3.5389 -53.839,-4.6521 -63.519,50.489 l -1.931,3.029 c -9.5789,25.776 -24.757,43.712 -39.6,62.118 -15.015,15.845 -33.621,24.507 -52.932,31.759 -25.13,8.9519 -52.58,9.7825 -79.806,11.401 -27.394,-0.55403 -48.152,-4.4258 -69.219,-8.1434 -27.301,-4.7694 -40.64,-11.866 -55.375,-18.73 -28.159,-10.884 -39.337,-32.685 -52.932,-52.932 -15.923,-37.366 -24.022,-60.201 -32.574,-83.877 -0.84574,-18.707 -15.128,-27.817 -30.945,-35.831 z"
       fill="#1a1a1a"
       id="path107" />
    <path
       d="m 436.49,390.67 c -13.073,-25.112 -43.421,-38.928 -84.692,-45.603 -70.099,-13.401 -134.69,-9.1802 -199.51,-5.7004 -22.504,8.9976 -55.495,2.2638 -49.675,53.747 0.063,23.452 0.61722,46.833 8.1434,69.219 9.1709,25.626 26.67,48.476 55.375,67.59 24.714,10.197 50.226,18.53 78.177,21.173 34.137,3.1257 66.298,2.3016 96.092,-3.2574 20.532,-9.0696 36.11,-6.1053 70.848,-49.675 11.475,-19.769 24.511,-38.563 27.688,-63.519 z"
       fill="#e6e6e6"
       id="path109" />
    <path
       d="m 436.49,390.67 c -13.073,-25.112 -43.421,-38.928 -84.692,-45.603 -70.099,-13.401 -134.69,-9.1802 -199.51,-5.7004 -22.504,8.9976 -55.495,2.2638 -49.675,53.747 0.063,23.452 0.61722,46.833 8.1434,69.219 9.1709,25.626 26.67,48.476 55.375,67.59 24.714,10.197 50.226,18.53 78.177,21.173 34.137,3.1257 66.298,2.3016 96.092,-3.2574 20.532,-9.0696 36.11,-6.1053 70.848,-49.675 11.475,-19.769 24.511,-38.563 27.688,-63.519 z"
       fill="url(#b)"
       id="path111"
       style="fill:url(#linearGradient1064)" />
    <path
       d="m 436.49,390.67 c -13.073,-25.112 -43.421,-38.928 -84.692,-45.603 -70.099,-13.401 -134.69,-9.1802 -199.51,-5.7004 -22.504,8.9976 -55.495,2.2638 -49.675,53.747 0.063,23.452 0.61722,46.833 8.1434,69.219 9.1709,25.626 26.67,48.476 55.375,67.59 24.714,10.197 50.226,18.53 78.177,21.173 34.137,3.1257 66.298,2.3016 96.092,-3.2574 20.532,-9.0696 36.11,-6.1053 70.848,-49.675 11.475,-19.769 24.511,-38.563 27.688,-63.519 z"
       fill="url(#b)"
       id="path113"
       style="fill:url(#linearGradient1066)" />
    <path
       d="m 436.49,390.67 c -13.073,-25.112 -43.421,-38.928 -84.692,-45.603 -70.099,-13.401 -134.69,-9.1802 -199.51,-5.7004 -22.504,8.9976 -55.495,2.2638 -49.675,53.747 0.063,23.452 0.61722,46.833 8.1434,69.219 9.1709,25.626 26.67,48.476 55.375,67.59 24.714,10.197 50.226,18.53 78.177,21.173 34.137,3.1257 66.298,2.3016 96.092,-3.2574 20.532,-9.0696 36.11,-6.1053 70.848,-49.675 11.475,-19.769 24.511,-38.563 27.688,-63.519 z"
       fill="url(#b)"
       id="path115"
       style="fill:url(#linearGradient1068)" />
    <path
       d="m 436.49,390.67 c -13.073,-25.112 -43.421,-38.928 -84.692,-45.603 -70.099,-13.401 -134.69,-9.1802 -199.51,-5.7004 -22.504,8.9976 -55.495,2.2638 -49.675,53.747 0.063,23.452 0.61722,46.833 8.1434,69.219 9.1709,25.626 26.67,48.476 55.375,67.59 24.714,10.197 50.226,18.53 78.177,21.173 34.137,3.1257 66.298,2.3016 96.092,-3.2574 20.532,-9.0696 36.11,-6.1053 70.848,-49.675 11.475,-19.769 24.511,-38.563 27.688,-63.519 z"
       fill="url(#b)"
       id="path117"
       style="fill:url(#linearGradient1070)" />
    <path
       d="m 240.7,323.44 c -31.614,0.0697 -62.7,1.9837 -93.812,3.7188 -23.042,9.5705 -56.803,2.3952 -50.844,57.156 0.0645,24.945 0.6375,49.814 8.3438,73.625 9.3903,27.258 27.295,51.575 56.688,71.906 25.305,10.846 51.411,19.689 80.031,22.5 34.953,3.3248 67.899,2.4442 98.406,-3.4688 8.1084,-3.7207 15.453,-5.5446 23.469,-9.0312 -7.5778,3.1051 -14.55,4.8176 -22.25,8.2188 -29.794,5.559 -61.957,6.3757 -96.094,3.25 -27.951,-2.6424 -53.474,-10.96 -78.188,-21.156 -28.705,-19.114 -46.204,-41.968 -55.375,-67.594 -7.5262,-22.386 -8.0932,-45.767 -8.1562,-69.219 -5.8199,-51.483 27.184,-44.752 49.688,-53.75 64.823,-3.4798 129.4,-7.7138 199.5,5.6875 41.27,6.6749 71.614,20.513 84.688,45.625 l 2.4687,43.969 c -0.0992,0.77988 -0.2255,1.5444 -0.3437,2.3125 0.6033,-2.8264 1.1348,-5.7066 1.5,-8.6875 l -2.5312,-46.781 c -13.386,-26.711 -44.43,-41.4 -86.688,-48.5 -38.131,-7.5728 -74.671,-9.8602 -110.5,-9.7812 z m 198.16,114.09 c -4.8143,22.184 -16.435,39.959 -26.812,58.531 -21.565,28.098 -35.918,37.97 -48.562,43.562 12.507,-5.2098 26.664,-14.373 48.094,-41.25 11.062,-19.058 23.55,-37.204 27.281,-60.844 z"
       fill="url(#h)"
       id="path119"
       style="fill:url(#h)" />
    <path
       d="m 436.49,390.67 c -13.073,-25.112 -43.421,-38.928 -84.692,-45.603 -70.099,-13.401 -134.69,-9.1802 -199.51,-5.7004 -22.504,8.9976 -55.495,2.2638 -49.675,53.747 0.063,23.452 0.61722,46.833 8.1434,69.219 9.1709,25.626 26.67,48.476 55.375,67.59 24.714,10.197 50.226,18.53 78.177,21.173 34.137,3.1257 66.298,2.3016 96.092,-3.2574 20.532,-9.0696 36.11,-6.1053 70.848,-49.675 11.475,-19.769 24.511,-38.563 27.688,-63.519 z"
       fill="#e6e6e6"
       id="path121" />
    <path
       d="m 436.49,390.67 c -13.073,-25.112 -43.421,-38.928 -84.692,-45.603 -70.099,-13.401 -134.69,-9.1802 -199.51,-5.7004 -22.504,8.9976 -55.495,2.2638 -49.675,53.747 0.063,23.452 0.61722,46.833 8.1434,69.219 9.1709,25.626 26.67,48.476 55.375,67.59 24.714,10.197 50.226,18.53 78.177,21.173 34.137,3.1257 66.298,2.3016 96.092,-3.2574 20.532,-9.0696 36.11,-6.1053 70.848,-49.675 11.475,-19.769 24.511,-38.563 27.688,-63.519 z"
       fill="url(#b)"
       id="path123"
       style="fill:url(#linearGradient1072)" />
    <path
       d="m 436.49,390.67 c -13.073,-25.112 -43.421,-38.928 -84.692,-45.603 -70.099,-13.401 -134.69,-9.1802 -199.51,-5.7004 -22.504,8.9976 -55.495,2.2638 -49.675,53.747 0.063,23.452 0.61722,46.833 8.1434,69.219 9.1709,25.626 26.67,48.476 55.375,67.59 24.714,10.197 50.226,18.53 78.177,21.173 34.137,3.1257 66.298,2.3016 96.092,-3.2574 20.532,-9.0696 36.11,-6.1053 70.848,-49.675 11.475,-19.769 24.511,-38.563 27.688,-63.519 z"
       fill="url(#b)"
       id="path125"
       style="fill:url(#linearGradient1074)" />
    <path
       d="m 436.49,390.67 c -13.073,-25.112 -43.421,-38.928 -84.692,-45.603 -70.099,-13.401 -134.69,-9.1802 -199.51,-5.7004 -22.504,8.9976 -55.495,2.2638 -49.675,53.747 0.063,23.452 0.61722,46.833 8.1434,69.219 9.1709,25.626 26.67,48.476 55.375,67.59 24.714,10.197 50.226,18.53 78.177,21.173 34.137,3.1257 66.298,2.3016 96.092,-3.2574 20.532,-9.0696 36.11,-6.1053 70.848,-49.675 11.475,-19.769 24.511,-38.563 27.688,-63.519 z"
       fill="url(#b)"
       id="path127"
       style="fill:url(#linearGradient1076)" />
    <path
       d="m 436.49,390.67 c -13.073,-25.112 -43.421,-38.928 -84.692,-45.603 -70.099,-13.401 -134.69,-9.1802 -199.51,-5.7004 -22.504,8.9976 -55.495,2.2638 -49.675,53.747 0.063,23.452 0.61722,46.833 8.1434,69.219 9.1709,25.626 26.67,48.476 55.375,67.59 24.714,10.197 50.226,18.53 78.177,21.173 34.137,3.1257 66.298,2.3016 96.092,-3.2574 20.532,-9.0696 36.11,-6.1053 70.848,-49.675 11.475,-19.769 24.511,-38.563 27.688,-63.519 z"
       fill="url(#b)"
       id="path129"
       style="fill:url(#linearGradient1078)" />
    <path
       d="m 240.7,323.44 c -31.614,0.0697 -62.7,1.9837 -93.812,3.7188 -23.042,9.5705 -56.803,2.3952 -50.844,57.156 0.0645,24.945 0.6375,49.814 8.3438,73.625 9.3903,27.258 27.295,51.575 56.688,71.906 25.305,10.846 51.411,19.689 80.031,22.5 34.953,3.3248 67.899,2.4442 98.406,-3.4688 8.1084,-3.7207 15.453,-5.5446 23.469,-9.0312 -7.5778,3.1051 -14.55,4.8176 -22.25,8.2188 -29.794,5.559 -61.957,6.3757 -96.094,3.25 -27.951,-2.6424 -53.474,-10.96 -78.188,-21.156 -28.705,-19.114 -46.204,-41.968 -55.375,-67.594 -7.5262,-22.386 -8.0932,-45.767 -8.1562,-69.219 -5.8199,-51.483 27.184,-44.752 49.688,-53.75 64.823,-3.4798 129.4,-7.7138 199.5,5.6875 41.27,6.6749 71.614,20.513 84.688,45.625 l 2.4687,43.969 c -0.0992,0.77988 -0.2255,1.5444 -0.3437,2.3125 0.6033,-2.8264 1.1348,-5.7066 1.5,-8.6875 l -2.5312,-46.781 c -13.386,-26.711 -44.43,-41.4 -86.688,-48.5 -38.131,-7.5728 -74.671,-9.8602 -110.5,-9.7812 z m 198.16,114.09 c -4.8143,22.184 -16.435,39.959 -26.812,58.531 -21.565,28.098 -35.918,37.97 -48.562,43.562 12.507,-5.2098 26.664,-14.373 48.094,-41.25 11.062,-19.058 23.55,-37.204 27.281,-60.844 z"
       fill="#333333"
       id="path131" />
    <path
       transform="matrix(0.80073,0.23573,-0.25147,0.85416,99.179,22.13)"
       d="m 89.541,354.12 c 0,5.8039 -7.7986,10.509 -17.419,10.509 -9.6204,0 -17.419,-4.705 -17.419,-10.509 0,-5.804 7.7986,-10.509 17.419,-10.509 9.575,0 17.355,4.6626 17.418,10.439"
       fill="#999999"
       id="path133" />
    <path
       transform="matrix(0.80073,0.23573,-0.25147,0.85416,99.179,22.13)"
       d="m 89.541,354.12 c 0,5.8039 -7.7986,10.509 -17.419,10.509 -9.6204,0 -17.419,-4.705 -17.419,-10.509 0,-5.804 7.7986,-10.509 17.419,-10.509 9.575,0 17.355,4.6626 17.418,10.439"
       fill="#999999"
       id="path135" />
    <path
       d="m 436.49,390.67 c -13.073,-25.112 -43.421,-38.928 -84.692,-45.603 -70.099,-13.401 -134.69,-9.1802 -199.51,-5.7004 -22.504,8.9976 -55.495,2.2638 -49.675,53.747 0.063,23.452 0.61722,46.833 8.1434,69.219 9.1709,25.626 26.67,48.476 55.375,67.59 24.714,10.197 50.226,18.53 78.177,21.173 34.137,3.1257 66.298,2.3016 96.092,-3.2574 20.532,-9.0696 36.11,-6.1053 70.848,-49.675 11.475,-19.769 24.511,-38.563 27.688,-63.519 z"
       fill="#ffffff"
       id="path137" />
    <path
       transform="matrix(0.80073,0.23573,-0.25147,0.85416,99.179,22.13)"
       d="m 89.541,354.12 c 0,5.8039 -7.7986,10.509 -17.419,10.509 -9.6204,0 -17.419,-4.705 -17.419,-10.509 0,-5.804 7.7986,-10.509 17.419,-10.509 9.575,0 17.355,4.6626 17.418,10.439"
       fill="#999999"
       id="path139" />
    <path
       transform="matrix(0.80073,0.23573,-0.25147,0.85416,99.179,22.13)"
       d="m 89.541,354.12 c 0,5.8039 -7.7986,10.509 -17.419,10.509 -9.6204,0 -17.419,-4.705 -17.419,-10.509 0,-5.804 7.7986,-10.509 17.419,-10.509 9.575,0 17.355,4.6626 17.418,10.439"
       fill="#999999"
       id="path141" />
    <path
       transform="matrix(1.0103,0,0,0.59091,39.56,231.17)"
       d="m 407.69,593.23 c 0,13.993 -75.022,25.336 -167.57,25.336 -92.548,0 -167.57,-11.343 -167.57,-25.336 0,-13.993 75.022,-25.336 167.57,-25.336 92.11,0 166.95,11.241 167.56,25.168"
       fill="url(#e)"
       id="path143"
       style="fill:url(#e)" />
    <path
       d="m 39.088,314.12 c 139.89,-1.1756 279.95,-4.5918 416.76,33.242 l 3.4421,0.96081 c 14.771,21.649 39.708,12.8 60.261,17.101 l 0.81434,43.16 c -25.16,3.5389 -53.839,-4.6521 -63.519,50.489 l -1.931,3.029 c -9.5789,25.776 -24.757,43.712 -39.6,62.118 -15.015,15.845 -33.621,24.507 -52.932,31.759 -25.13,8.9519 -52.58,9.7825 -79.806,11.401 -27.394,-0.55403 -48.152,-4.4258 -69.219,-8.1434 -27.301,-4.7694 -40.64,-11.866 -55.375,-18.73 -28.159,-10.884 -39.337,-32.685 -52.932,-52.932 -15.923,-37.366 -24.022,-60.201 -32.574,-83.877 -0.84574,-18.707 -15.128,-27.817 -30.945,-35.831 z"
       fill="url(#a)"
       id="path145"
       style="fill:url(#linearGradient1080)" />
    <path
       d="m 436.49,390.67 c -13.073,-25.112 -43.421,-38.928 -84.692,-45.603 -70.099,-13.401 -134.69,-9.1802 -199.51,-5.7004 -22.504,8.9976 -55.495,2.2638 -49.675,53.747 0.063,23.452 0.61722,46.833 8.1434,69.219 9.1709,25.626 26.67,48.476 55.375,67.59 24.714,10.197 50.226,18.53 78.177,21.173 34.137,3.1257 66.298,2.3016 96.092,-3.2574 20.532,-9.0696 36.11,-6.1053 70.848,-49.675 11.475,-19.769 24.511,-38.563 27.688,-63.519 z"
       fill="url(#a)"
       id="path147"
       style="fill:url(#linearGradient1082)" />
    <path
       d="m 436.49,390.67 c -13.073,-25.112 -43.421,-38.928 -84.692,-45.603 -70.099,-13.401 -134.69,-9.1802 -199.51,-5.7004 -22.504,8.9976 -55.495,2.2638 -49.675,53.747 0.063,23.452 0.61722,46.833 8.1434,69.219 9.1709,25.626 26.67,48.476 55.375,67.59 24.714,10.197 50.226,18.53 78.177,21.173 34.137,3.1257 66.298,2.3016 96.092,-3.2574 20.532,-9.0696 36.11,-6.1053 70.848,-49.675 11.475,-19.769 24.511,-38.563 27.688,-63.519 z"
       fill="url(#a)"
       id="path149"
       style="fill:url(#linearGradient1084)" />
    <path
       d="m 436.49,390.67 c -13.073,-25.112 -43.421,-38.928 -84.692,-45.603 -70.099,-13.401 -134.69,-9.1802 -199.51,-5.7004 -22.504,8.9976 -55.495,2.2638 -49.675,53.747 0.063,23.452 0.61722,46.833 8.1434,69.219 9.1709,25.626 26.67,48.476 55.375,67.59 24.714,10.197 50.226,18.53 78.177,21.173 34.137,3.1257 66.298,2.3016 96.092,-3.2574 20.532,-9.0696 36.11,-6.1053 70.848,-49.675 11.475,-19.769 24.511,-38.563 27.688,-63.519 z"
       fill="url(#a)"
       id="path151"
       style="fill:url(#linearGradient1086)" />
    <path
       d="m 436.49,390.67 c -13.073,-25.112 -43.421,-38.928 -84.692,-45.603 -70.099,-13.401 -134.69,-9.1802 -199.51,-5.7004 -22.504,8.9976 -55.495,2.2638 -49.675,53.747 0.063,23.452 0.61722,46.833 8.1434,69.219 9.1709,25.626 26.67,48.476 55.375,67.59 24.714,10.197 50.226,18.53 78.177,21.173 34.137,3.1257 66.298,2.3016 96.092,-3.2574 20.532,-9.0696 36.11,-6.1053 70.848,-49.675 11.475,-19.769 24.511,-38.563 27.688,-63.519 z"
       fill="url(#a)"
       id="path153"
       style="fill:url(#linearGradient1088)" />
    <path
       d="m 436.49,390.67 c -13.073,-25.112 -43.421,-38.928 -84.692,-45.603 -70.099,-13.401 -134.69,-9.1802 -199.51,-5.7004 -22.504,8.9976 -55.495,2.2638 -49.675,53.747 0.063,23.452 0.61722,46.833 8.1434,69.219 9.1709,25.626 26.67,48.476 55.375,67.59 24.714,10.197 50.226,18.53 78.177,21.173 34.137,3.1257 66.298,2.3016 96.092,-3.2574 20.532,-9.0696 36.11,-6.1053 70.848,-49.675 11.475,-19.769 24.511,-38.563 27.688,-63.519 z"
       fill="url(#a)"
       id="path155"
       style="fill:url(#linearGradient1090)" />
    <path
       d="m 240.7,323.44 c -31.614,0.0697 -62.7,1.9837 -93.812,3.7188 -23.042,9.5705 -56.803,2.3952 -50.844,57.156 0.0645,24.945 0.6375,49.814 8.3438,73.625 9.3903,27.258 27.295,51.575 56.688,71.906 25.305,10.846 51.411,19.689 80.031,22.5 34.953,3.3248 67.899,2.4442 98.406,-3.4688 8.1084,-3.7207 15.453,-5.5446 23.469,-9.0312 -7.5778,3.1051 -14.55,4.8176 -22.25,8.2188 -29.794,5.559 -61.957,6.3757 -96.094,3.25 -27.951,-2.6424 -53.474,-10.96 -78.188,-21.156 -28.705,-19.114 -46.204,-41.968 -55.375,-67.594 -7.5262,-22.386 -8.0932,-45.767 -8.1562,-69.219 -5.8199,-51.483 27.184,-44.752 49.688,-53.75 64.823,-3.4798 129.4,-7.7138 199.5,5.6875 41.27,6.6749 71.614,20.513 84.688,45.625 l 2.4687,43.969 c -0.0992,0.77988 -0.2255,1.5444 -0.3437,2.3125 0.6033,-2.8264 1.1348,-5.7066 1.5,-8.6875 l -2.5312,-46.781 c -13.386,-26.711 -44.43,-41.4 -86.688,-48.5 -38.131,-7.5728 -74.671,-9.8602 -110.5,-9.7812 z m 198.16,114.09 c -4.8143,22.184 -16.435,39.959 -26.812,58.531 -21.565,28.098 -35.918,37.97 -48.562,43.562 12.507,-5.2098 26.664,-14.373 48.094,-41.25 11.062,-19.058 23.55,-37.204 27.281,-60.844 z"
       fill="url(#a)"
       id="path157"
       style="fill:url(#linearGradient1092)" />
    <path
       d="m 436.49,390.67 c -13.073,-25.112 -43.421,-38.928 -84.692,-45.603 -70.099,-13.401 -134.69,-9.1802 -199.51,-5.7004 -22.504,8.9976 -55.495,2.2638 -49.675,53.747 0.063,23.452 0.61722,46.833 8.1434,69.219 9.1709,25.626 26.67,48.476 55.375,67.59 24.714,10.197 50.226,18.53 78.177,21.173 34.137,3.1257 66.298,2.3016 96.092,-3.2574 20.532,-9.0696 36.11,-6.1053 70.848,-49.675 11.475,-19.769 24.511,-38.563 27.688,-63.519 z"
       fill="url(#a)"
       id="path159"
       style="fill:url(#linearGradient1094)" />
    <path
       d="m 436.49,390.67 c -13.073,-25.112 -43.421,-38.928 -84.692,-45.603 -70.099,-13.401 -134.69,-9.1802 -199.51,-5.7004 -22.504,8.9976 -55.495,2.2638 -49.675,53.747 0.063,23.452 0.61722,46.833 8.1434,69.219 9.1709,25.626 26.67,48.476 55.375,67.59 24.714,10.197 50.226,18.53 78.177,21.173 34.137,3.1257 66.298,2.3016 96.092,-3.2574 20.532,-9.0696 36.11,-6.1053 70.848,-49.675 11.475,-19.769 24.511,-38.563 27.688,-63.519 z"
       fill="url(#a)"
       id="path161"
       style="fill:url(#linearGradient1096)" />
    <path
       d="m 240.7,323.44 c -31.614,0.0697 -62.7,1.9837 -93.812,3.7188 -23.042,9.5705 -56.803,2.3952 -50.844,57.156 0.0645,24.945 0.6375,49.814 8.3438,73.625 9.3903,27.258 27.295,51.575 56.688,71.906 25.305,10.846 51.411,19.689 80.031,22.5 34.953,3.3248 67.899,2.4442 98.406,-3.4688 8.1084,-3.7207 15.453,-5.5446 23.469,-9.0312 -7.5778,3.1051 -14.55,4.8176 -22.25,8.2188 -29.794,5.559 -61.957,6.3757 -96.094,3.25 -27.951,-2.6424 -53.474,-10.96 -78.188,-21.156 -28.705,-19.114 -46.204,-41.968 -55.375,-67.594 -7.5262,-22.386 -8.0932,-45.767 -8.1562,-69.219 -5.8199,-51.483 27.184,-44.752 49.688,-53.75 64.823,-3.4798 129.4,-7.7138 199.5,5.6875 41.27,6.6749 71.614,20.513 84.688,45.625 l 2.4687,43.969 c -0.0992,0.77988 -0.2255,1.5444 -0.3437,2.3125 0.6033,-2.8264 1.1348,-5.7066 1.5,-8.6875 l -2.5312,-46.781 c -13.386,-26.711 -44.43,-41.4 -86.688,-48.5 -38.131,-7.5728 -74.671,-9.8602 -110.5,-9.7812 z m 198.16,114.09 c -4.8143,22.184 -16.435,39.959 -26.812,58.531 -21.565,28.098 -35.918,37.97 -48.562,43.562 12.507,-5.2098 26.664,-14.373 48.094,-41.25 11.062,-19.058 23.55,-37.204 27.281,-60.844 z"
       fill="url(#a)"
       id="path163"
       style="fill:url(#a)" />
    <path
       transform="matrix(0.80073,0.23573,-0.25147,0.85416,99.179,22.13)"
       d="m 89.541,354.12 c 0,5.8039 -7.7986,10.509 -17.419,10.509 -9.6204,0 -17.419,-4.705 -17.419,-10.509 0,-5.804 7.7986,-10.509 17.419,-10.509 9.575,0 17.355,4.6626 17.418,10.439"
       fill="#999999"
       id="path165" />
    <path
       transform="matrix(0.80073,0.23573,-0.25147,0.85416,99.179,22.13)"
       d="m 89.541,354.12 c 0,5.8039 -7.7986,10.509 -17.419,10.509 -9.6204,0 -17.419,-4.705 -17.419,-10.509 0,-5.804 7.7986,-10.509 17.419,-10.509 9.575,0 17.355,4.6626 17.418,10.439"
       fill="#999999"
       id="path167" />
    <path
       transform="matrix(0.80073,0.23573,-0.25147,0.85416,99.179,22.13)"
       d="m 89.541,354.12 c 0,5.8039 -7.7986,10.509 -17.419,10.509 -9.6204,0 -17.419,-4.705 -17.419,-10.509 0,-5.804 7.7986,-10.509 17.419,-10.509 9.575,0 17.355,4.6626 17.418,10.439"
       fill="#999999"
       id="path169" />
    <path
       transform="matrix(0.80073,0.23573,-0.25147,0.85416,99.179,22.13)"
       d="m 89.541,354.12 c 0,5.8039 -7.7986,10.509 -17.419,10.509 -9.6204,0 -17.419,-4.705 -17.419,-10.509 0,-5.804 7.7986,-10.509 17.419,-10.509 9.575,0 17.355,4.6626 17.418,10.439"
       fill="#999999"
       id="path171" />
    <path
       transform="matrix(1.0103,0,0,0.59091,39.56,231.17)"
       d="m 407.69,593.23 c 0,13.993 -75.022,25.336 -167.57,25.336 -92.548,0 -167.57,-11.343 -167.57,-25.336 0,-13.993 75.022,-25.336 167.57,-25.336 92.11,0 166.95,11.241 167.56,25.168"
       fill="url(#i)"
       id="path173"
       style="fill:url(#i)" />
    <path
       d="m 250.06,335.88 c -12.749,-0.0714 -25.406,0.16796 -38,0.59375 2.015,1.6688 3.845,3.7385 5.6562,5.875 0,0 18.487,38.154 34.031,57.469 15.544,19.315 59.864,9.9635 46.312,-12.938 -8.7014,-14.705 -29.97,-36.888 -44.156,-50.969 l -3.8438,-0.0312 z m -69.312,1.9688 c -9.4963,0.48352 -18.981,1.0219 -28.469,1.5312 -13.417,5.3644 -30.544,5.148 -40.969,15 l 16,8.4688 c 5.5767,-4.9915 11.602,-9.0973 20.094,-8.25 8.7532,0.13709 15.819,-3.8372 22.312,-9.2188 3.458,-2.974 7.1039,-5.5545 11.031,-7.5312 z"
       fill="url(#c)"
       id="path175"
       style="fill:url(#linearGradient1098)" />
    <path
       d="m 250.06,335.88 c -12.749,-0.0714 -25.406,0.16796 -38,0.59375 2.015,1.6688 3.845,3.7385 5.6562,5.875 0,0 18.487,38.154 34.031,57.469 15.544,19.315 59.864,9.9635 46.312,-12.938 -8.7014,-14.705 -29.97,-36.888 -44.156,-50.969 l -3.8438,-0.0312 z m -69.312,1.9688 c -9.4963,0.48352 -18.981,1.0219 -28.469,1.5312 -13.417,5.3644 -30.544,5.148 -40.969,15 l 16,8.4688 c 5.5767,-4.9915 11.602,-9.0973 20.094,-8.25 8.7532,0.13709 15.819,-3.8372 22.312,-9.2188 3.458,-2.974 7.1039,-5.5545 11.031,-7.5312 z"
       fill="url(#c)"
       id="path177"
       style="fill:url(#linearGradient1100)" />
    <path
       d="m 250.06,335.88 c -12.749,-0.0714 -25.406,0.16796 -38,0.59375 2.015,1.6688 3.845,3.7385 5.6562,5.875 0,0 18.487,38.154 34.031,57.469 15.544,19.315 59.864,9.9635 46.312,-12.938 -8.7014,-14.705 -29.97,-36.888 -44.156,-50.969 l -3.8438,-0.0312 z m -69.312,1.9688 c -9.4963,0.48352 -18.981,1.0219 -28.469,1.5312 -13.417,5.3644 -30.544,5.148 -40.969,15 l 16,8.4688 c 5.5767,-4.9915 11.602,-9.0973 20.094,-8.25 8.7532,0.13709 15.819,-3.8372 22.312,-9.2188 3.458,-2.974 7.1039,-5.5545 11.031,-7.5312 z"
       fill="url(#c)"
       id="path179"
       style="fill:url(#c)" />
  </g>
</svg>
