<?xml version="1.0" encoding="UTF-8" standalone="no"?>
<svg
   xmlns:dc="http://purl.org/dc/elements/1.1/"
   xmlns:cc="http://creativecommons.org/ns#"
   xmlns:rdf="http://www.w3.org/1999/02/22-rdf-syntax-ns#"
   xmlns:svg="http://www.w3.org/2000/svg"
   xmlns="http://www.w3.org/2000/svg"
   xmlns:sodipodi="http://sodipodi.sourceforge.net/DTD/sodipodi-0.dtd"
   xmlns:inkscape="http://www.inkscape.org/namespaces/inkscape"
   width="125mm"
   height="88mm"
   fill-rule="evenodd"
   viewBox="0 0 18.869055 12.164669"
   version="1.1"
   id="svg10"
   sodipodi:docname="gloves.svg"
   inkscape:version="1.0.2-2 (e86c870879, 2021-01-15)">
  <metadata
     id="metadata16">
    <rdf:RDF>
      <cc:Work
         rdf:about="">
        <dc:format>image/svg+xml</dc:format>
        <dc:type
           rdf:resource="http://purl.org/dc/dcmitype/StillImage" />
        <dc:title></dc:title>
      </cc:Work>
    </rdf:RDF>
  </metadata>
  <defs
     id="defs14" />
  <sodipodi:namedview
     pagecolor="#ffffff"
     bordercolor="#666666"
     borderopacity="1"
     objecttolerance="10"
     gridtolerance="10"
     guidetolerance="10"
     inkscape:pageopacity="0"
     inkscape:pageshadow="2"
     inkscape:window-width="1920"
     inkscape:window-height="1017"
     id="namedview12"
     showgrid="false"
     units="mm"
     inkscape:zoom="1.5178571"
     inkscape:cx="132.2693"
     inkscape:cy="138.36373"
     inkscape:window-x="-8"
     inkscape:window-y="-8"
     inkscape:window-maximized="1"
     inkscape:current-layer="svg10" />
  <g
     transform="matrix(4.9291111,0,0,4.9291111,-0.95004346,-37.346233)"
     fill="none"
     stroke="#000000"
     stroke-linecap="round"
     id="g8">
    <path
       d="m 0.74732,9.62387 c 0.01491,0.16026 0.03353,0.26462 0.01863,0.32798 -0.0149,0.06336 -0.04099,0.10436 0.01117,0.10436 l 0.1677,0.0037 c 0.08571,0 0.1677,-0.0075 0.23851,-0.0037 l 0.13043,-0.0037 c 0.04472,0 0.03727,0.01117 0.08199,0.01117 0.04472,0 0.05963,0 0.09316,-0.0149 C 1.52244,10.03385 1.60817,10.02638 1.57835,9.98911 1.54853,9.95184 1.54482,9.78786 1.55227,9.61269 1.62307,9.47851 1.70878,9.34061 1.71624,9.21389 1.7237,9.08717 1.73115,9.07971 1.7945,8.97163 1.85785,8.86355 1.88394,8.80018 1.9361,8.73682 1.98826,8.67346 2.03672,8.62874 2.01064,8.55046 1.98456,8.47218 1.9361,8.43865 1.85785,8.44238 1.7796,8.44611 1.71624,8.50202 1.6417,8.5952 1.56716,8.68838 1.53363,8.74427 1.49636,8.82255 1.49636,8.68092 1.5001,8.4573 1.515,8.31939 1.5299,8.18148 1.5411,8.13303 1.54482,8.04732 1.54854,7.96161 1.53736,7.80505 1.5001,7.74169 1.46284,7.67833 1.45165,7.66715 1.39948,7.6746 1.34731,7.68205 1.3473,7.71559 1.32494,7.72678 1.30258,7.73797 1.28768,7.76777 1.2765,7.84605 1.26532,7.92433 1.23178,8.17776 1.24295,8.35666 1.23178,8.11814 1.22432,7.94296 1.19823,7.83487 1.17214,7.72678 1.13488,7.64852 1.09016,7.61124 1.04544,7.57396 0.99326,7.57025 0.96718,7.59634 0.9411,7.62243 0.9411,7.64852 0.92619,7.66341 0.91128,7.6783 0.88892,7.69696 0.90011,7.78268 0.9113,7.8684 0.95229,8.19639 0.95974,8.2933 0.92247,8.16285 0.88148,8.04732 0.86284,7.98767 0.8442,7.92802 0.81068,7.82368 0.78459,7.77523 0.7585,7.72678 0.71378,7.68951 0.67278,7.68951 c -0.041,0 -0.08944,0.01491 -0.10062,0.07081 -0.01118,0.0559 0.00746,0.06709 -0.00372,0.08945 -0.01118,0.02236 0,0.07827 0.01491,0.14163 C 0.59826,8.05476 0.69142,8.34548 0.72496,8.42002 0.63552,8.24112 0.60943,8.09948 0.56099,8.03241 0.51255,7.96534 0.42683,7.92431 0.38212,7.95786 0.33741,7.99141 0.30386,8.05849 0.33366,8.14049 c 0.0298,0.082 0.13043,0.31308 0.17142,0.40253 0.04099,0.08945 0.0261,0.06335 0.03727,0.1938 0.01117,0.13045 0.01491,0.36898 0.02981,0.49198 0.0149,0.123 0.08573,0.33545 0.17516,0.39508"
       stroke-width="0.02215"
       id="path2" />
    <path
       d="M 0.77713,9.60896 C 0.81812,9.57169 0.82186,9.59779 0.86284,9.59779 c 0.04098,0 0.07826,0.02236 0.10435,0 C 0.99328,9.57543 1.04918,9.57169 1.05664,9.56424 1.0641,9.55679 1.079,9.56052 1.08645,9.57169 1.0939,9.58286 1.16099,9.60151 1.18707,9.58288 1.21315,9.56425 1.2206,9.56797 1.23924,9.56424 L 1.29887,9.57915 C 1.31378,9.5866 1.35477,9.60151 1.37341,9.59032 1.39205,9.57913 1.35478,9.58287 1.39577,9.56796 1.43676,9.55305 1.43676,9.57168 1.44049,9.58287 1.44422,9.59406 1.43303,9.62014 1.46657,9.60523 1.50011,9.59032 1.50011,9.58287 1.50384,9.59778 M 0.80697,9.62014 c 0.03727,0.12672 0.01117,0.30189 0.01117,0.34662 0,0.04473 -0.01864,0.03727 -0.02236,0.04846 M 1.51657,9.6278 C 1.51319,9.65494 1.50376,9.92049 1.52837,9.96575 M 1.4852,9.62387 C 1.48148,9.65369 1.47402,9.95558 1.50384,9.9854 M 0.8666,10.01223 C 0.86954,10.00175 0.88595,10.00753 0.88568,9.96596 0.88393,9.91755 0.90801,9.73713 0.87479,9.62051 m 0.0626,0.38874 C 0.93954,9.99948 0.95377,10.00357 0.95321,9.96517 0.9497,9.91306 0.97178,9.72739 0.94261,9.62089 m 0.06558,0.38539 C 1.00956,9.99721 1.02158,9.99962 1.02073,9.96437 1.0155,9.90858 1.04076,9.69047 1.01565,9.59406 M 1.079,10.00328 C 1.07958,9.99492 1.08939,9.99566 1.08827,9.96358 1.08128,9.90409 1.09933,9.70794 1.07825,9.62163 M 1.1498,10.0003 C 1.1496,9.99265 1.15721,9.9917 1.15581,9.96277 1.14707,9.8996 1.16311,9.6982 1.14608,9.62199 M 1.22061,9.99731 C 1.21963,9.99036 1.22504,9.98774 1.22334,9.96197 1.21286,9.89511 1.22689,9.68847 1.21391,9.62237 M 1.29142,9.99432 C 1.28964,9.98808 1.29285,9.98377 1.29088,9.96117 1.27865,9.89061 1.29066,9.67873 1.28173,9.62273 M 1.36222,9.99135 C 1.35967,9.9858 1.36066,9.97981 1.35841,9.96037 1.34442,9.88613 1.35443,9.669 1.34955,9.6231 M 1.43302,9.98836 C 1.42968,9.98354 1.42848,9.97586 1.42595,9.95959 1.41022,9.88166 1.41821,9.65928 1.41737,9.62349 M 1.47774,9.99284 C 1.43301,9.98837 1.42184,10.00775 1.38085,10.01148 l -0.21242,0.0075 c -0.06707,-0.0037 -0.18261,-0.0037 -0.20124,0.0074 M 1.42184,10.03008 1.52991,10.004 M 1.01937,9.53814 C 0.97092,9.40024 0.90012,9.32197 0.89267,9.25116 M 1.18335,9.5456 C 1.19452,9.46732 1.16844,9.47851 1.18708,9.38906"
       stroke-width="0.0092"
       id="path4" />
    <path
       d="M 1.51714,9.59381 1.5501,9.53247 C 1.60924,9.42342 1.6704,9.31395 1.67642,9.21155 1.67876,9.17171 1.68118,9.14313 1.6851,9.11956 1.69459,9.06262 1.71196,9.03356 1.75973,8.95207 l 0.05266,-0.0937 -2.2e-4,3.9e-4 C 1.84421,8.8002 1.86871,8.7559 1.9053,8.71148 L 1.92176,8.69181 C 1.94802,8.66064 1.97278,8.63505 1.97738,8.60185 1.979,8.59011 1.97757,8.57744 1.97278,8.56309 1.96293,8.5335 1.94987,8.5117 1.93084,8.49831 1.91181,8.48492 1.88862,8.48086 1.85972,8.48223 L 1.80768,8.49554 C 1.762,8.51701 1.72034,8.56073 1.67283,8.62012 1.60082,8.71014 1.56835,8.7641 1.53236,8.83971 M 1.48559,9.57687 1.5246,9.50441 C 1.57914,9.40391 1.63513,9.30379 1.64068,9.20947 1.64311,9.16799 1.64571,9.13822 1.6498,9.11369 1.65995,9.05273 1.67769,9.02124 1.72885,8.93398 l -3.2e-4,5.7e-4 0.0528,-0.09397 C 1.81404,8.78079 1.83968,8.73488 1.87769,8.68873 L 1.90302,8.65861 C 1.92102,8.63754 1.93871,8.6202 1.94192,8.59696 1.94287,8.59013 1.94162,8.5828 1.93883,8.57442 1.93182,8.5534 1.92376,8.53711 1.91025,8.5276 1.89674,8.51809 1.88115,8.51707 1.86143,8.518 1.84795,8.51864 1.83527,8.52213 1.82292,8.52794 1.78125,8.54753 1.74411,8.58833 1.70078,8.64251 1.63106,8.72967 1.59954,8.78189 1.56467,8.85511 M 1.46056,8.82257 c 0,-0.14272 0.00382,-0.36804 0.01884,-0.507 L 1.49513,8.18594 C 1.5019,8.13417 1.50683,8.0967 1.50905,8.04578 1.51253,7.96567 1.50406,7.81908 1.46924,7.75986 1.45455,7.73488 1.44608,7.71913 1.43513,7.71113 L 1.43013,7.70896 1.40454,7.71006 1.38925,7.71416 C 1.38024,7.71824 1.3762,7.7249 1.37208,7.73033 1.36577,7.73866 1.35954,7.74612 1.35194,7.75194 L 1.34096,7.75882 1.33569,7.76376 C 1.32496,7.77851 1.31852,7.80508 1.31195,7.85113 1.30093,7.92829 1.26768,8.17811 1.27869,8.35445 M 1.20998,8.35823 1.20894,8.33605 C 1.19844,8.11165 1.19111,7.94604 1.16615,7.84265 1.14119,7.73926 1.11005,7.67082 1.06904,7.63665 L 1.01822,7.61291 1.00051,7.61414 0.99057,7.61973 C 0.97939,7.63091 0.97494,7.64232 0.9708,7.65194 0.96482,7.66584 0.9588,7.67759 0.94958,7.68682 L 0.94788,7.6885 C 0.94343,7.6929 0.93782,7.69788 0.93438,7.70799 0.93094,7.7181 0.93144,7.71914 0.93075,7.72664 0.93006,7.73414 0.93004,7.75669 0.93288,7.77845 L 0.99256,8.2895 M 0.69229,8.4364 C 0.64642,8.34465 0.61688,8.26257 0.59261,8.19497 0.5706,8.13368 0.5539,8.08503 0.53138,8.05383 0.50392,8.01581 0.46265,7.98673 0.42736,7.98285 L 0.40406,7.98713 C 0.39225,7.996 0.38151,8.00797 0.37345,8.02243 0.36539,8.03689 0.35999,8.05406 0.35906,8.07303 0.35813,8.092 0.36094,8.10848 0.36804,8.12801 0.39764,8.20945 0.49763,8.43896 0.53833,8.5278 0.57165,8.60049 0.57141,8.60485 0.57391,8.65814 l -4e-5,-6.7e-4 0.00499,0.07712 c 0.00474,0.05536 0.00821,0.13155 0.01174,0.21002 0.00465,0.10308 0.00942,0.21015 0.01786,0.2798 0.00996,0.08218 0.046,0.20623 0.09605,0.29277 0.01925,0.03329 0.04011,0.06096 0.06308,0.07628 M 0.62625,8.66391 C 0.61394,8.67373 0.61767,8.73154 0.61767,8.73154 0.62244,8.78704 0.62593,8.8638 0.6295,8.94285 0.6341,9.04485 0.63877,9.1508 0.64712,9.21972 0.65658,9.29774 0.69071,9.41552 0.73822,9.49769 0.75403,9.52504 0.77033,9.54847 0.7892,9.56105 M 0.93028,8.30172 C 0.9045,8.21148 0.87692,8.12844 0.85629,8.06626 L 0.8336,7.99682 C 0.81546,7.93873 0.78302,7.83697 0.75761,7.78976 0.74258,7.76183 0.72046,7.73797 0.6967,7.72643 0.68875,7.72257 0.68069,7.72015 0.67278,7.72015 0.65768,7.72015 0.64114,7.72241 0.6273,7.7301 L 0.61412,7.74058 C 0.60844,7.74706 0.60436,7.75557 0.60221,7.76634 0.59726,7.79108 0.5994,7.80517 0.601,7.81577 0.6026,7.82637 0.60356,7.83698 0.60157,7.84695 0.59958,7.85692 0.59583,7.86348 0.59583,7.86348 c 0,0 0.0047,0.06721 0.01733,0.12091 0.01471,0.06254 0.10663,0.34949 0.13972,0.42306 M 0.68287,8.48925 C 0.70646,8.47037 0.73006,8.4326 0.78198,8.4326 M 0.91415,8.36179 C 0.94719,8.34291 0.99438,8.3382 1.01799,8.34763 m 0.17462,0.05665 c 0.0472,0 0.08025,0 0.08497,0.00945 M 1.33422,8.91411 C 1.24926,8.92356 1.16431,8.98492 1.15014,9.05572"
       stroke-width="0.00563"
       id="path6" />
  </g>
  <g
     transform="matrix(-4.9291111,0,0,4.9291111,19.796327,-37.154301)"
     fill="none"
     stroke="#000000"
     stroke-linecap="round"
     id="g847">
    <path
       d="m 0.74732,9.62387 c 0.01491,0.16026 0.03353,0.26462 0.01863,0.32798 -0.0149,0.06336 -0.04099,0.10436 0.01117,0.10436 l 0.1677,0.0037 c 0.08571,0 0.1677,-0.0075 0.23851,-0.0037 l 0.13043,-0.0037 c 0.04472,0 0.03727,0.01117 0.08199,0.01117 0.04472,0 0.05963,0 0.09316,-0.0149 C 1.52244,10.03385 1.60817,10.02638 1.57835,9.98911 1.54853,9.95184 1.54482,9.78786 1.55227,9.61269 1.62307,9.47851 1.70878,9.34061 1.71624,9.21389 1.7237,9.08717 1.73115,9.07971 1.7945,8.97163 1.85785,8.86355 1.88394,8.80018 1.9361,8.73682 1.98826,8.67346 2.03672,8.62874 2.01064,8.55046 1.98456,8.47218 1.9361,8.43865 1.85785,8.44238 1.7796,8.44611 1.71624,8.50202 1.6417,8.5952 1.56716,8.68838 1.53363,8.74427 1.49636,8.82255 1.49636,8.68092 1.5001,8.4573 1.515,8.31939 1.5299,8.18148 1.5411,8.13303 1.54482,8.04732 1.54854,7.96161 1.53736,7.80505 1.5001,7.74169 1.46284,7.67833 1.45165,7.66715 1.39948,7.6746 1.34731,7.68205 1.3473,7.71559 1.32494,7.72678 1.30258,7.73797 1.28768,7.76777 1.2765,7.84605 1.26532,7.92433 1.23178,8.17776 1.24295,8.35666 1.23178,8.11814 1.22432,7.94296 1.19823,7.83487 1.17214,7.72678 1.13488,7.64852 1.09016,7.61124 1.04544,7.57396 0.99326,7.57025 0.96718,7.59634 0.9411,7.62243 0.9411,7.64852 0.92619,7.66341 0.91128,7.6783 0.88892,7.69696 0.90011,7.78268 0.9113,7.8684 0.95229,8.19639 0.95974,8.2933 0.92247,8.16285 0.88148,8.04732 0.86284,7.98767 0.8442,7.92802 0.81068,7.82368 0.78459,7.77523 0.7585,7.72678 0.71378,7.68951 0.67278,7.68951 c -0.041,0 -0.08944,0.01491 -0.10062,0.07081 -0.01118,0.0559 0.00746,0.06709 -0.00372,0.08945 -0.01118,0.02236 0,0.07827 0.01491,0.14163 C 0.59826,8.05476 0.69142,8.34548 0.72496,8.42002 0.63552,8.24112 0.60943,8.09948 0.56099,8.03241 0.51255,7.96534 0.42683,7.92431 0.38212,7.95786 0.33741,7.99141 0.30386,8.05849 0.33366,8.14049 c 0.0298,0.082 0.13043,0.31308 0.17142,0.40253 0.04099,0.08945 0.0261,0.06335 0.03727,0.1938 0.01117,0.13045 0.01491,0.36898 0.02981,0.49198 0.0149,0.123 0.08573,0.33545 0.17516,0.39508"
       stroke-width="0.02215"
       id="path841" />
    <path
       d="M 0.77713,9.60896 C 0.81812,9.57169 0.82186,9.59779 0.86284,9.59779 c 0.04098,0 0.07826,0.02236 0.10435,0 C 0.99328,9.57543 1.04918,9.57169 1.05664,9.56424 1.0641,9.55679 1.079,9.56052 1.08645,9.57169 1.0939,9.58286 1.16099,9.60151 1.18707,9.58288 1.21315,9.56425 1.2206,9.56797 1.23924,9.56424 L 1.29887,9.57915 C 1.31378,9.5866 1.35477,9.60151 1.37341,9.59032 1.39205,9.57913 1.35478,9.58287 1.39577,9.56796 1.43676,9.55305 1.43676,9.57168 1.44049,9.58287 1.44422,9.59406 1.43303,9.62014 1.46657,9.60523 1.50011,9.59032 1.50011,9.58287 1.50384,9.59778 M 0.80697,9.62014 c 0.03727,0.12672 0.01117,0.30189 0.01117,0.34662 0,0.04473 -0.01864,0.03727 -0.02236,0.04846 M 1.51657,9.6278 C 1.51319,9.65494 1.50376,9.92049 1.52837,9.96575 M 1.4852,9.62387 C 1.48148,9.65369 1.47402,9.95558 1.50384,9.9854 M 0.8666,10.01223 C 0.86954,10.00175 0.88595,10.00753 0.88568,9.96596 0.88393,9.91755 0.90801,9.73713 0.87479,9.62051 m 0.0626,0.38874 C 0.93954,9.99948 0.95377,10.00357 0.95321,9.96517 0.9497,9.91306 0.97178,9.72739 0.94261,9.62089 m 0.06558,0.38539 C 1.00956,9.99721 1.02158,9.99962 1.02073,9.96437 1.0155,9.90858 1.04076,9.69047 1.01565,9.59406 M 1.079,10.00328 C 1.07958,9.99492 1.08939,9.99566 1.08827,9.96358 1.08128,9.90409 1.09933,9.70794 1.07825,9.62163 M 1.1498,10.0003 C 1.1496,9.99265 1.15721,9.9917 1.15581,9.96277 1.14707,9.8996 1.16311,9.6982 1.14608,9.62199 M 1.22061,9.99731 C 1.21963,9.99036 1.22504,9.98774 1.22334,9.96197 1.21286,9.89511 1.22689,9.68847 1.21391,9.62237 M 1.29142,9.99432 C 1.28964,9.98808 1.29285,9.98377 1.29088,9.96117 1.27865,9.89061 1.29066,9.67873 1.28173,9.62273 M 1.36222,9.99135 C 1.35967,9.9858 1.36066,9.97981 1.35841,9.96037 1.34442,9.88613 1.35443,9.669 1.34955,9.6231 M 1.43302,9.98836 C 1.42968,9.98354 1.42848,9.97586 1.42595,9.95959 1.41022,9.88166 1.41821,9.65928 1.41737,9.62349 M 1.47774,9.99284 C 1.43301,9.98837 1.42184,10.00775 1.38085,10.01148 l -0.21242,0.0075 c -0.06707,-0.0037 -0.18261,-0.0037 -0.20124,0.0074 M 1.42184,10.03008 1.52991,10.004 M 1.01937,9.53814 C 0.97092,9.40024 0.90012,9.32197 0.89267,9.25116 M 1.18335,9.5456 C 1.19452,9.46732 1.16844,9.47851 1.18708,9.38906"
       stroke-width="0.0092"
       id="path843" />
    <path
       d="M 1.51714,9.59381 1.5501,9.53247 C 1.60924,9.42342 1.6704,9.31395 1.67642,9.21155 1.67876,9.17171 1.68118,9.14313 1.6851,9.11956 1.69459,9.06262 1.71196,9.03356 1.75973,8.95207 l 0.05266,-0.0937 -2.2e-4,3.9e-4 C 1.84421,8.8002 1.86871,8.7559 1.9053,8.71148 L 1.92176,8.69181 C 1.94802,8.66064 1.97278,8.63505 1.97738,8.60185 1.979,8.59011 1.97757,8.57744 1.97278,8.56309 1.96293,8.5335 1.94987,8.5117 1.93084,8.49831 1.91181,8.48492 1.88862,8.48086 1.85972,8.48223 L 1.80768,8.49554 C 1.762,8.51701 1.72034,8.56073 1.67283,8.62012 1.60082,8.71014 1.56835,8.7641 1.53236,8.83971 M 1.48559,9.57687 1.5246,9.50441 C 1.57914,9.40391 1.63513,9.30379 1.64068,9.20947 1.64311,9.16799 1.64571,9.13822 1.6498,9.11369 1.65995,9.05273 1.67769,9.02124 1.72885,8.93398 l -3.2e-4,5.7e-4 0.0528,-0.09397 C 1.81404,8.78079 1.83968,8.73488 1.87769,8.68873 L 1.90302,8.65861 C 1.92102,8.63754 1.93871,8.6202 1.94192,8.59696 1.94287,8.59013 1.94162,8.5828 1.93883,8.57442 1.93182,8.5534 1.92376,8.53711 1.91025,8.5276 1.89674,8.51809 1.88115,8.51707 1.86143,8.518 1.84795,8.51864 1.83527,8.52213 1.82292,8.52794 1.78125,8.54753 1.74411,8.58833 1.70078,8.64251 1.63106,8.72967 1.59954,8.78189 1.56467,8.85511 M 1.46056,8.82257 c 0,-0.14272 0.00382,-0.36804 0.01884,-0.507 L 1.49513,8.18594 C 1.5019,8.13417 1.50683,8.0967 1.50905,8.04578 1.51253,7.96567 1.50406,7.81908 1.46924,7.75986 1.45455,7.73488 1.44608,7.71913 1.43513,7.71113 L 1.43013,7.70896 1.40454,7.71006 1.38925,7.71416 C 1.38024,7.71824 1.3762,7.7249 1.37208,7.73033 1.36577,7.73866 1.35954,7.74612 1.35194,7.75194 L 1.34096,7.75882 1.33569,7.76376 C 1.32496,7.77851 1.31852,7.80508 1.31195,7.85113 1.30093,7.92829 1.26768,8.17811 1.27869,8.35445 M 1.20998,8.35823 1.20894,8.33605 C 1.19844,8.11165 1.19111,7.94604 1.16615,7.84265 1.14119,7.73926 1.11005,7.67082 1.06904,7.63665 L 1.01822,7.61291 1.00051,7.61414 0.99057,7.61973 C 0.97939,7.63091 0.97494,7.64232 0.9708,7.65194 0.96482,7.66584 0.9588,7.67759 0.94958,7.68682 L 0.94788,7.6885 C 0.94343,7.6929 0.93782,7.69788 0.93438,7.70799 0.93094,7.7181 0.93144,7.71914 0.93075,7.72664 0.93006,7.73414 0.93004,7.75669 0.93288,7.77845 L 0.99256,8.2895 M 0.69229,8.4364 C 0.64642,8.34465 0.61688,8.26257 0.59261,8.19497 0.5706,8.13368 0.5539,8.08503 0.53138,8.05383 0.50392,8.01581 0.46265,7.98673 0.42736,7.98285 L 0.40406,7.98713 C 0.39225,7.996 0.38151,8.00797 0.37345,8.02243 0.36539,8.03689 0.35999,8.05406 0.35906,8.07303 0.35813,8.092 0.36094,8.10848 0.36804,8.12801 0.39764,8.20945 0.49763,8.43896 0.53833,8.5278 0.57165,8.60049 0.57141,8.60485 0.57391,8.65814 l -4e-5,-6.7e-4 0.00499,0.07712 c 0.00474,0.05536 0.00821,0.13155 0.01174,0.21002 0.00465,0.10308 0.00942,0.21015 0.01786,0.2798 0.00996,0.08218 0.046,0.20623 0.09605,0.29277 0.01925,0.03329 0.04011,0.06096 0.06308,0.07628 M 0.62625,8.66391 C 0.61394,8.67373 0.61767,8.73154 0.61767,8.73154 0.62244,8.78704 0.62593,8.8638 0.6295,8.94285 0.6341,9.04485 0.63877,9.1508 0.64712,9.21972 0.65658,9.29774 0.69071,9.41552 0.73822,9.49769 0.75403,9.52504 0.77033,9.54847 0.7892,9.56105 M 0.93028,8.30172 C 0.9045,8.21148 0.87692,8.12844 0.85629,8.06626 L 0.8336,7.99682 C 0.81546,7.93873 0.78302,7.83697 0.75761,7.78976 0.74258,7.76183 0.72046,7.73797 0.6967,7.72643 0.68875,7.72257 0.68069,7.72015 0.67278,7.72015 0.65768,7.72015 0.64114,7.72241 0.6273,7.7301 L 0.61412,7.74058 C 0.60844,7.74706 0.60436,7.75557 0.60221,7.76634 0.59726,7.79108 0.5994,7.80517 0.601,7.81577 0.6026,7.82637 0.60356,7.83698 0.60157,7.84695 0.59958,7.85692 0.59583,7.86348 0.59583,7.86348 c 0,0 0.0047,0.06721 0.01733,0.12091 0.01471,0.06254 0.10663,0.34949 0.13972,0.42306 M 0.68287,8.48925 C 0.70646,8.47037 0.73006,8.4326 0.78198,8.4326 M 0.91415,8.36179 C 0.94719,8.34291 0.99438,8.3382 1.01799,8.34763 m 0.17462,0.05665 c 0.0472,0 0.08025,0 0.08497,0.00945 M 1.33422,8.91411 C 1.24926,8.92356 1.16431,8.98492 1.15014,9.05572"
       stroke-width="0.00563"
       id="path845" />
  </g>
</svg>
