<?xml version="1.0" encoding="UTF-8" standalone="no"?>
<svg
   xmlns:dc="http://purl.org/dc/elements/1.1/"
   xmlns:cc="http://creativecommons.org/ns#"
   xmlns:rdf="http://www.w3.org/1999/02/22-rdf-syntax-ns#"
   xmlns:svg="http://www.w3.org/2000/svg"
   xmlns="http://www.w3.org/2000/svg"
   xmlns:xlink="http://www.w3.org/1999/xlink"
   xmlns:sodipodi="http://sodipodi.sourceforge.net/DTD/sodipodi-0.dtd"
   xmlns:inkscape="http://www.inkscape.org/namespaces/inkscape"
   viewBox="0 0 472.44094 332.59843"
   version="1.1"
   id="svg203"
   sodipodi:docname="grapefruit.svg"
   width="125mm"
   height="88mm"
   inkscape:version="1.0.2-2 (e86c870879, 2021-01-15)">
  <metadata
     id="metadata207">
    <rdf:RDF>
      <cc:Work
         rdf:about="">
        <dc:format>image/svg+xml</dc:format>
        <dc:type
           rdf:resource="http://purl.org/dc/dcmitype/StillImage" />
        <dc:title></dc:title>
      </cc:Work>
    </rdf:RDF>
  </metadata>
  <sodipodi:namedview
     pagecolor="#ffffff"
     bordercolor="#666666"
     borderopacity="1"
     objecttolerance="10"
     gridtolerance="10"
     guidetolerance="10"
     inkscape:pageopacity="0"
     inkscape:pageshadow="2"
     inkscape:window-width="1920"
     inkscape:window-height="1017"
     id="namedview205"
     showgrid="false"
     units="mm"
     inkscape:zoom="1.1695322"
     inkscape:cx="62.309851"
     inkscape:cy="142.91753"
     inkscape:window-x="-8"
     inkscape:window-y="-8"
     inkscape:window-maximized="1"
     inkscape:current-layer="svg203" />
  <defs
     id="defs159">
    <filter
       id="r">
      <feGaussianBlur
         stdDeviation="4.39573"
         id="feGaussianBlur2" />
    </filter>
    <filter
       id="k">
      <feGaussianBlur
         stdDeviation="1.6994"
         id="feGaussianBlur5" />
    </filter>
    <filter
       id="j">
      <feGaussianBlur
         stdDeviation="2.5071"
         id="feGaussianBlur8" />
    </filter>
    <filter
       id="i">
      <feGaussianBlur
         stdDeviation="2.41668"
         id="feGaussianBlur11" />
    </filter>
    <filter
       id="q"
       x="-0.27835"
       y="-0.27605999"
       width="1.5567"
       height="1.5520999">
      <feGaussianBlur
         stdDeviation="8.70355"
         id="feGaussianBlur14" />
    </filter>
    <filter
       id="p"
       x="-0.090379998"
       y="-0.354"
       width="1.1808"
       height="1.7079999">
      <feGaussianBlur
         stdDeviation="1.55248"
         id="feGaussianBlur17" />
    </filter>
    <filter
       id="o"
       x="-0.21381"
       y="-0.31037"
       width="1.4276"
       height="1.6208">
      <feGaussianBlur
         stdDeviation="7.03265"
         id="feGaussianBlur20" />
    </filter>
    <filter
       id="n"
       x="-0.02974"
       y="-0.23793"
       width="1.0595"
       height="1.4759001">
      <feGaussianBlur
         stdDeviation=".26087"
         id="feGaussianBlur23" />
    </filter>
    <filter
       id="m"
       x="-0.20857"
       y="-0.22397999"
       width="1.4171"
       height="1.448">
      <feGaussianBlur
         stdDeviation="7.69641"
         id="feGaussianBlur26" />
    </filter>
    <filter
       id="l"
       x="-0.43741"
       y="-0.18905"
       width="1.8748"
       height="1.3781">
      <feGaussianBlur
         stdDeviation="5.76484"
         id="feGaussianBlur29" />
    </filter>
    <linearGradient
       id="h"
       x1="164.13"
       x2="330.39999"
       gradientUnits="userSpaceOnUse">
      <stop
         stop-color="#f3c440"
         offset="0"
         id="stop32" />
      <stop
         stop-color="#efd063"
         offset="1"
         id="stop34" />
    </linearGradient>
    <linearGradient
       id="g"
       x1="210.55"
       x2="48.061001"
       y1="171.86"
       y2="295.22"
       gradientUnits="userSpaceOnUse">
      <stop
         stop-color="#f6c03a"
         offset="0"
         id="stop37" />
      <stop
         stop-color="#ffda61"
         offset=".5"
         id="stop39" />
      <stop
         stop-color="#e89458"
         offset="1"
         id="stop41" />
    </linearGradient>
    <linearGradient
       id="f"
       x1="28"
       x2="67.192001"
       y1="249.94"
       y2="203.46001"
       gradientUnits="userSpaceOnUse">
      <stop
         stop-color="#ffc282"
         offset="0"
         id="stop44" />
      <stop
         stop-color="#fcdf59"
         offset="1"
         id="stop46" />
    </linearGradient>
    <linearGradient
       id="e"
       x1="111.01"
       x2="249.14999"
       y1="156.02"
       y2="213.91"
       gradientUnits="userSpaceOnUse">
      <stop
         stop-color="#fff"
         stop-opacity="0"
         offset="0"
         id="stop49" />
      <stop
         stop-color="#fff"
         offset="1"
         id="stop51" />
    </linearGradient>
    <pattern
       id="s"
       width="10"
       height="10"
       patternTransform="scale(10)"
       patternUnits="userSpaceOnUse">
      <path
         d="m2.617.81a0.05,0.05 0 1,0 -.1,0 0.05,0.05 0 1,0 .1,0"
         id="path54" />
      <path
         d="m3.098,2.33a0.05,0.05 0 1,0 -.1,0 0.05,0.05 0 1,0 .1,0"
         id="path56" />
      <path
         d="m4.468,2.415a0.05,0.05 0 1,0 -.1,0 0.05,0.05 0 1,0 .1,0"
         id="path58" />
      <path
         d="m1.894,3.029a0.05,0.05 0 1,0 -.1,0 0.05,0.05 0 1,0 .1,0"
         id="path60" />
      <path
         d="m6.13,1.363a0.05,0.05 0 1,0 -.1,0 0.05,0.05 0 1,0 .1,0"
         id="path62" />
      <path
         d="m5.869,4.413a0.05,0.05 0 1,0 -.1,0 0.05,0.05 0 1,0 .1,0"
         id="path64" />
      <path
         d="m4.355,4.048a0.05,0.05 0 1,0 -.1,0 0.05,0.05 0 1,0 .1,0"
         id="path66" />
      <path
         d="m5.591,3.045a0.05,0.05 0 1,0 -.1,0 0.05,0.05 0 1,0 .1,0"
         id="path68" />
      <path
         d="m4.835,5.527a0.05,0.05 0 1,0 -.1,0 0.05,0.05 0 1,0 .1,0"
         id="path70" />
      <path
         d="m2.717,5.184a0.05,0.05 0 1,0 -.1,0 0.05,0.05 0 1,0 .1,0"
         id="path72" />
      <path
         d="m8.015,1.448a0.05,0.05 0 1,0 -.1,0 0.05,0.05 0 1,0 .1,0"
         id="path74" />
      <path
         d="m7.097,5.049a0.05,0.05 0 1,0 -.1,0 0.05,0.05 0 1,0 .1,0"
         id="path76" />
      <path
         d="m4.39.895a0.05,0.05 0 1,0 -.1,0 0.05,0.05 0 1,0 .1,0"
         id="path78" />
      <path
         d="m7.175.34a0.05,0.05 0 1,0 -.1,0 0.05,0.05 0 1,0 .1,0"
         id="path80" />
      <path
         d="m9.603,1.049a0.05,0.05 0 1,0 -.1,0 0.05,0.05 0 1,0 .1,0"
         id="path82" />
      <path
         d="m7.056,2.689a0.05,0.05 0 1,0 -.1,0 0.05,0.05 0 1,0 .1,0"
         id="path84" />
      <path
         d="m8.959,2.689a0.05,0.05 0 1,0 -.1,0 0.05,0.05 0 1,0 .1,0"
         id="path86" />
      <path
         d="m9.365,4.407a0.05,0.05 0 1,0 -.1,0 0.05,0.05 0 1,0 .1,0"
         id="path88" />
      <path
         d="m7.87,3.87a0.05,0.05 0 1,0 -.1,0 0.05,0.05 0 1,0 .1,0"
         id="path90" />
      <path
         d="m8.32,5.948a0.05,0.05 0 1,0 -.1,0 0.05,0.05 0 1,0 .1,0"
         id="path92" />
      <path
         d="m8.023,7.428a0.05,0.05 0 1,0 -.1,0 0.05,0.05 0 1,0 .1,0"
         id="path94" />
      <path
         d="m9.392,8.072a0.05,0.05 0 1,0 -.1,0 0.05,0.05 0 1,0 .1,0"
         id="path96" />
      <path
         d="m8.256,9.315a0.05,0.05 0 1,0 -.1,0 0.05,0.05 0 1,0 .1,0"
         id="path98" />
      <path
         d="m9.732,9.475a0.05,0.05 0 1,0 -.1,0 0.05,0.05 0 1,0 .1,0"
         id="path100" />
      <path
         d="m9.738,6.186a0.05,0.05 0 1,0 -.1,0 0.05,0.05 0 1,0 .1,0"
         id="path102" />
      <path
         d="m3.429,6.296a0.05,0.05 0 1,0 -.1,0 0.05,0.05 0 1,0 .1,0"
         id="path104" />
      <path
         d="m2.921,8.204a0.05,0.05 0 1,0 -.1,0 0.05,0.05 0 1,0 .1,0"
         id="path106" />
      <path
         d="m4.64,8.719a0.05,0.05 0 1,0 -.1,0 0.05,0.05 0 1,0 .1,0"
         id="path108" />
      <path
         d="m3.231,9.671a0.05,0.05 0 1,0 -.1,0 0.05,0.05 0 1,0 .1,0"
         id="path110" />
      <path
         d="m5.784,7.315a0.05,0.05 0 1,0 -.1,0 0.05,0.05 0 1,0 .1,0"
         id="path112" />
      <path
         d="m6.757,6.513a0.05,0.05 0 1,0 -.1,0 0.05,0.05 0 1,0 .1,0"
         id="path114" />
      <path
         d="m5.78,9.67a0.05,0.05 0 1,0 -.1,0 0.05,0.05 0 1,0 .1,0"
         id="path116" />
      <path
         d="m6.585,8.373a0.05,0.05 0 1,0 -.1,0 0.05,0.05 0 1,0 .1,0"
         id="path118" />
      <path
         d="m4.42,7.154a0.05,0.05 0 1,0 -.1,0 0.05,0.05 0 1,0 .1,0"
         id="path120" />
      <path
         d="m.672,7.25a0.05,0.05 0 1,0 -.1,0 0.05,0.05 0 1,0 .1,0"
         id="path122" />
      <path
         d="m.881,5.679a0.05,0.05 0 1,0 -.1,0 0.05,0.05 0 1,0 .1,0"
         id="path124" />
      <path
         d="m1.307,8.519a0.05,0.05 0 1,0 -.1,0 0.05,0.05 0 1,0 .1,0"
         id="path126" />
      <path
         d="m2.039,6.877a0.05,0.05 0 1,0 -.1,0 0.05,0.05 0 1,0 .1,0"
         id="path128" />
      <path
         d="m.424,3.181a0.05,0.05 0 1,0 -.1,0 0.05,0.05 0 1,0 .1,0"
         id="path130" />
      <path
         d="m1.216,1.664a0.05,0.05 0 1,0 -.1,0 0.05,0.05 0 1,0 .1,0"
         id="path132" />
      <path
         d="m1.201.093a0.05,0.05 0 1,0 -.1,0 0.05,0.05 0 1,0 .1,0"
         id="path134" />
      <path
         d="m1.201,10.093a0.05,0.05 0 1,0 -.1,0 0.05,0.05 0 1,0 .1,0"
         id="path136" />
      <path
         d="m1.352,4.451a0.05,0.05 0 1,0 -.1,0 0.05,0.05 0 1,0 .1,0"
         id="path138" />
      <path
         d="m3.097,3.763a0.05,0.05 0 1,0 -.1,0 0.05,0.05 0 1,0 .1,0"
         id="path140" />
    </pattern>
    <pattern
       id="d"
       xlink:href="#s"
       patternTransform="matrix(5.7726 -.21378 .20513 5.539 -44 0)" />
    <radialGradient
       id="c"
       cx="276.95999"
       cy="158.14999"
       r="58.410999"
       gradientUnits="userSpaceOnUse">
      <stop
         stop-color="#ff7f2a"
         offset="0"
         id="stop144" />
      <stop
         stop-color="#e7874b"
         offset="1"
         id="stop146" />
    </radialGradient>
    <radialGradient
       id="b"
       cx="61.960999"
       cy="227.91"
       r="69.085999"
       gradientUnits="userSpaceOnUse">
      <stop
         stop-color="#fee5c3"
         offset="0"
         id="stop149" />
      <stop
         stop-color="#fdfff8"
         offset="1"
         id="stop151" />
    </radialGradient>
    <radialGradient
       id="a"
       cx="105.28"
       cy="169.53"
       r="58.312"
       gradientUnits="userSpaceOnUse">
      <stop
         stop-color="#fdfff8"
         offset="0"
         id="stop154" />
      <stop
         stop-color="#fdfff8"
         stop-opacity="0"
         offset="1"
         id="stop156" />
    </radialGradient>
  </defs>
  <g
     transform="matrix(1.4431904,0,0,1.4431904,-26.590663,-96.1448)"
     id="g201">
    <path
       d="m 166.4,157.26 c 1.5052,-4.8041 4.0384,-9.2485 6.5783,-13.595 3.2325,-5.5319 6.4176,-11.273 10.964,-15.788 7.1639,-7.1143 15.968,-12.586 24.998,-17.104 6.9043,-3.4543 14.254,-6.6125 21.928,-7.4554 9.3554,-1.0276 18.797,1.4483 28.067,3.0699 9.1855,1.6066 18.904,2.3024 27.19,6.5783 10.498,5.4168 19.457,13.952 26.752,23.243 3.351,4.2683 5.2731,9.5039 7.4554,14.472 3.0689,6.9868 6.8141,13.935 7.894,21.489 0.91231,6.3822 -0.40125,12.914 -1.3157,19.296 -1.0615,7.4084 -2.0104,14.993 -4.8241,21.928 -2.7148,6.6912 -6.6194,13.01 -11.402,18.419 -6.3362,7.1665 -14.097,13.171 -22.366,17.981 -5.8429,3.3985 -12.28,5.8975 -18.858,7.4554 -6.4264,1.5222 -13.133,1.914 -19.735,1.7542 -8.5565,-0.20715 -17.046,-1.8178 -25.436,-3.5084 -6.674,-1.3448 -13.49,-2.5513 -19.735,-5.2626 -7.5901,-3.2953 -14.861,-7.6655 -21.051,-13.157 -5.0553,-4.4846 -9.2801,-9.97 -12.718,-15.788 -3.135,-5.3053 -5.6443,-11.096 -7.0169,-17.104 -1.631,-7.1384 -1.6695,-14.614 -1.3157,-21.928 0.4076,-8.4259 1.4248,-16.948 3.947,-24.998 z"
       filter="url(#i)"
       opacity="0.5"
       id="path161" />
    <path
       d="m 168.26,156.02 c 1.5052,-4.8041 4.0384,-9.2485 6.5783,-13.595 3.2325,-5.5319 6.4176,-11.273 10.964,-15.788 7.1639,-7.1143 15.968,-12.586 24.998,-17.104 6.9043,-3.4543 14.254,-6.6125 21.928,-7.4554 9.3554,-1.0276 18.797,1.4483 28.067,3.0699 9.1855,1.6066 18.904,2.3024 27.19,6.5783 10.498,5.4168 19.457,13.952 26.752,23.243 3.351,4.2683 5.2731,9.5039 7.4554,14.472 3.0689,6.9868 6.8141,13.935 7.894,21.489 0.91231,6.3822 -0.40125,12.914 -1.3157,19.296 -1.0615,7.4084 -2.0104,14.993 -4.8241,21.928 -2.7148,6.6912 -6.6194,13.01 -11.402,18.419 -6.3362,7.1665 -14.097,13.171 -22.366,17.981 -5.8429,3.3985 -12.28,5.8975 -18.858,7.4554 -6.4264,1.5222 -13.133,1.914 -19.735,1.7542 -8.5565,-0.20715 -17.046,-1.8178 -25.436,-3.5084 -6.674,-1.3448 -13.49,-2.5513 -19.735,-5.2626 -7.5901,-3.2953 -14.861,-7.6655 -21.051,-13.157 -5.0553,-4.4846 -9.2801,-9.97 -12.718,-15.788 -3.135,-5.3053 -5.6443,-11.096 -7.0169,-17.104 -1.631,-7.1384 -1.6695,-14.614 -1.3157,-21.928 0.4076,-8.4259 1.4248,-16.948 3.947,-24.998 z"
       fill="url(#h)"
       id="path163"
       style="fill:url(#h)" />
    <path
       d="m 168.26,156.02 c 1.5052,-4.8041 4.0384,-9.2485 6.5783,-13.595 3.2325,-5.5319 6.4176,-11.273 10.964,-15.788 7.1639,-7.1143 15.968,-12.586 24.998,-17.104 6.9043,-3.4543 14.254,-6.6125 21.928,-7.4554 9.3554,-1.0276 18.797,1.4483 28.067,3.0699 9.1855,1.6066 18.904,2.3024 27.19,6.5783 10.498,5.4168 19.457,13.952 26.752,23.243 3.351,4.2683 5.2731,9.5039 7.4554,14.472 3.0689,6.9868 6.8141,13.935 7.894,21.489 0.91231,6.3822 -0.40125,12.914 -1.3157,19.296 -1.0615,7.4084 -2.0104,14.993 -4.8241,21.928 -2.7148,6.6912 -6.6194,13.01 -11.402,18.419 -6.3362,7.1665 -14.097,13.171 -22.366,17.981 -5.8429,3.3985 -12.28,5.8975 -18.858,7.4554 -6.4264,1.5222 -13.133,1.914 -19.735,1.7542 -8.5565,-0.20715 -17.046,-1.8178 -25.436,-3.5084 -6.674,-1.3448 -13.49,-2.5513 -19.735,-5.2626 -7.5901,-3.2953 -14.861,-7.6655 -21.051,-13.157 -5.0553,-4.4846 -9.2801,-9.97 -12.718,-15.788 -3.135,-5.3053 -5.6443,-11.096 -7.0169,-17.104 -1.631,-7.1384 -1.6695,-14.614 -1.3157,-21.928 0.4076,-8.4259 1.4248,-16.948 3.947,-24.998 z"
       fill="url(#d)"
       opacity="0.5"
       id="path165" />
    <path
       d="m 282.23,121.56 v -7.4425 l -18.606,-3.7212 -20.467,-6.2021 -18.606,4.9617 -21.087,8.6829 -19.226,17.986 -12.404,21.707 -2.4808,27.289 2.4808,24.188 11.443,19.847 17.087,13.645 -4.3415,-30.39 -5.5819,-39.693 9.3031,-16.746 28.53,-3.101 14.885,-19.847 z"
       fill="#f9a948"
       filter="url(#r)"
       id="path167" />
    <path
       d="m 234.76,109.36 c 0,0 5.5788,0.37371 7.894,1.7542 2.4922,1.4861 5.7012,6.5783 5.7012,6.5783 0,0 7.6747,-1 12.28,-1 4.6053,0 15.349,1 15.349,1 l -9.2096,-3.947 -9.2096,-1.7542 -5.7012,-3.0699 -10.087,-1.7542 z"
       fill="#dc7d46"
       filter="url(#p)"
       id="path169" />
    <path
       d="m 262.38,146.99 9.7729,22.522 18.137,5.3873 12.404,17.986 11.784,3.101 -6.8223,-22.948 -1.2404,-14.885 -8.6829,-13.024 -9.3031,-14.885 -4.9617,-9.9234 -9.9233,8.0627 -13.645,3.7212 -20.467,2.4808 11.784,5.5819 z"
       fill="url(#c)"
       filter="url(#q)"
       id="path171"
       style="fill:url(#c)" />
    <path
       d="m 210.92,160.4 22.805,-8.7711 28.067,24.559 22.805,17.542 5.2626,-2.6313 -21.051,-30.699 c -3.5084,-0.87711 -12.28,-21.051 -12.28,-21.051 l -42.978,7.894 z"
       fill="#ffffff"
       filter="url(#o)"
       opacity="0.39799"
       id="path173" />
    <path
       transform="matrix(0.54333,0,0,0.7643,35.329,12.707)"
       d="m 414.43,131.9 c 0,0.72662 -4.7123,1.3157 -10.525,1.3157 -5.8127,0 -10.525,-0.58904 -10.525,-1.3157 0,-0.72666 4.7123,-1.3157 10.525,-1.3157 5.8127,0 10.525,0.58905 10.525,1.3157 z"
       fill="#552200"
       filter="url(#n)"
       id="path175" />
    <g
       transform="matrix(0.54333,0,0,0.7643,34.553,12.483)"
       id="g181">
      <path
         d="m 414.43,131.9 c 0,0.72662 -4.7123,1.3157 -10.525,1.3157 -5.8127,0 -10.525,-0.58904 -10.525,-1.3157 0,-0.72666 4.7123,-1.3157 10.525,-1.3157 5.8127,0 10.525,0.58905 10.525,1.3157 z"
         fill="#9c5328"
         id="path177" />
      <path
         transform="matrix(0.7643,0,0,0.7643,94.721,30.779)"
         d="m 414.43,131.9 c 0,0.72662 -4.7123,1.3157 -10.525,1.3157 -5.8127,0 -10.525,-0.58904 -10.525,-1.3157 0,-0.72666 4.7123,-1.3157 10.525,-1.3157 5.8127,0 10.525,0.58905 10.525,1.3157 z"
         fill="#d3bc5f"
         id="path179" />
    </g>
    <path
       d="m 145.91,97.188 c -4.0977,-0.04749 -8.2617,0.34729 -12.281,0.71875 -10.585,0.97824 -21.099,3.5992 -31,7.4688 -7.4997,2.931 -14.709,6.875 -21.094,11.781 -7.5354,5.7903 -13.857,13.088 -19.844,20.469 -7.2243,8.9062 -14.431,18.111 -19.219,28.531 -3.5806,7.7932 -6.338,16.22 -6.8438,24.781 -0.40686,6.8882 1.5419,13.745 3.0938,20.469 0.96307,4.1724 1.9195,8.4558 3.8438,12.281 1.787,3.5525 3.8506,7.2381 7.0312,9.625 0.61852,0.46416 1.2543,0.92558 1.9062,1.3438 1.4243,1.9491 3.0406,4.1027 4.2812,5.5 4.1746,4.7018 8.447,9.4789 13.656,13 6.2087,4.1966 13.35,6.9706 20.469,9.3125 6.6248,2.1794 13.467,4.1341 20.438,4.3438 8.3582,0.25138 16.868,-1.1101 24.812,-3.7188 7.9955,-2.6253 15.307,-7.1653 22.344,-11.781 4.6909,-3.0772 9.093,-6.6304 13.125,-10.531 2.9059,-2.8113 5.4315,-6.0213 7.9062,-9.2188 3.599,-4.6501 7.2798,-9.3056 10.094,-14.469 2.949,-5.4109 5.1377,-11.22 7,-17.094 1.5862,-5.003 2.7905,-10.144 3.5,-15.344 0.85065,-6.235 1.3671,-12.602 0.875,-18.875 -0.39684,-5.059 -1.853,-9.978 -3.0625,-14.906 -1.2683,-5.1678 -2.0226,-10.571 -4.375,-15.344 -2.1715,-4.4058 -5.6847,-8.0309 -8.7812,-11.844 -2.2195,-2.7329 -4.4228,-5.5077 -7,-7.9062 -1.0567,-0.98346 -2.7968,-2.3021 -4.25,-3.375 -1.1172,-1.5847 -2.3257,-3.0978 -3.6562,-4.5 -3.2344,-3.4085 -6.6648,-7.0948 -11.062,-8.75 -3.7779,-1.4219 -7.8086,-1.9213 -11.906,-1.9688 z"
       filter="url(#j)"
       opacity="0.5"
       id="path183" />
    <path
       d="M 168.9,109.52 47.34,229.22 c 0,0 4.6973,6.8315 7.4425,9.9234 4.1746,4.7018 8.4353,9.5033 13.645,13.024 6.2087,4.1966 13.348,6.9612 20.467,9.3031 6.6248,2.1794 13.496,4.1318 20.467,4.3415 8.3582,0.25138 16.864,-1.1126 24.808,-3.7213 7.9955,-2.6253 15.291,-7.168 22.328,-11.784 4.6909,-3.0772 9.1019,-6.6236 13.134,-10.524 2.9059,-2.8113 5.4193,-6.0122 7.894,-9.2096 3.599,-4.6501 7.2728,-9.3091 10.087,-14.472 2.949,-5.4109 5.1545,-11.229 7.0169,-17.104 1.5862,-5.003 2.799,-10.149 3.5084,-15.349 0.85065,-6.235 1.3692,-12.584 0.8771,-18.858 -0.39684,-5.059 -1.8603,-9.9826 -3.0699,-14.911 -1.2683,-5.1678 -2.0331,-10.576 -4.3855,-15.349 -2.1715,-4.4058 -5.6745,-8.0281 -8.7711,-11.841 -2.2195,-2.7329 -4.4397,-5.4955 -7.0169,-7.894 -2.1134,-1.9669 -6.8695,-5.2752 -6.8695,-5.2752 z"
       fill="url(#g)"
       id="path185"
       style="fill:url(#g)" />
    <path
       d="m 37.734,210.42 c -1.5519,-6.7234 -3.5079,-13.579 -3.101,-20.467 0.5057,-8.5615 3.2417,-17.015 6.8223,-24.808 4.7877,-10.421 12.002,-19.623 19.226,-28.53 5.9866,-7.3804 12.311,-14.677 19.847,-20.467 6.3848,-4.9062 13.587,-8.8529 21.087,-11.784 9.9011,-3.8695 20.425,-6.4643 31.01,-7.4425 8.0391,-0.74293 16.632,-1.6034 24.188,1.2404 4.3977,1.6552 7.8261,5.331 11.06,8.7395 2.9594,3.1188 5.2806,6.8165 7.4554,10.525 1.72,2.9331 3.7808,5.8637 4.3855,9.2096 1.3309,7.3643 -0.52556,15.019 -1.947,22.366 -1.7704,9.1512 -4.4994,18.171 -8.1398,26.752 -2.939,6.9276 -6.4734,13.696 -10.964,19.735 -4.5032,6.0558 -10.017,11.363 -15.788,16.226 -6.9142,5.827 -14.445,10.989 -22.366,15.349 -7.8026,4.2948 -15.938,8.2874 -24.559,10.525 -8.2505,2.1418 -16.975,3.6622 -25.436,2.6313 -7.7114,-0.93952 -15.714,-3.2312 -21.928,-7.894 -3.1807,-2.3869 -5.2299,-6.0957 -7.0169,-9.6482 -1.9242,-3.8254 -2.874,-8.0875 -3.8371,-12.26 z"
       fill="url(#f)"
       id="path187"
       style="fill:url(#f)" />
    <path
       d="m 42.887,218.17 c 2.1766,3.3948 5.2469,6.1746 8.3325,8.7711 2.8231,2.3755 5.7665,4.814 9.2096,6.1398 3.7236,1.4337 7.8617,1.4611 11.841,1.7542 1.0205,0.0752 2.047,0.0284 3.0699,0 5.2687,-0.14624 10.584,-0.0388 15.788,-0.87711 5.5316,-0.89116 10.99,-2.3918 16.226,-4.3855 6.1097,-2.3263 12.049,-5.2268 17.542,-8.7711 5.0647,-3.2677 9.5578,-7.3656 14.034,-11.402 4.2986,-3.8769 8.5127,-7.8842 12.28,-12.28 4.8328,-5.6392 9.6461,-11.436 13.157,-17.981 4.1975,-7.8254 7.0514,-16.384 9.2096,-24.998 1.2913,-5.1539 2.007,-10.478 2.1928,-15.788 0.22538,-6.4431 0.91205,-13.246 -1.3157,-19.296 -1.6972,-4.6093 -5.142,-8.5309 -8.7711,-11.841 -3.538,-3.2269 -7.6681,-6.1651 -12.28,-7.4554 -5.9127,-1.6544 -12.291,-0.37231 -18.419,0 -6.0269,0.36614 -12.156,0.60319 -17.981,2.1928 -8.4628,2.3094 -16.421,6.3217 -24.12,10.525 -4.6262,2.5257 -9.0805,5.4295 -13.157,8.7711 -5.1161,4.1942 -9.6871,9.0465 -14.034,14.034 -3.9764,4.5625 -7.6958,9.3783 -10.964,14.472 -3.6729,5.725 -7.3226,11.589 -9.6482,17.981 -1.2253,3.3678 -1.2413,7.0702 -2.1928,10.525 -1.1906,4.3234 -3.5562,8.3111 -4.3855,12.718 -0.67646,3.5944 -0.77367,7.3217 -0.43856,10.964 0.30217,3.2842 1.2119,6.4994 2.1928,9.6482 0.70242,2.2548 1.3566,4.5902 2.6313,6.5783 z"
       fill="url(#b)"
       id="path189"
       style="fill:url(#b)" />
    <path
       d="m 95.012,220.45 1.8606,4.0314 6.8223,-2.4808 h 0.3101 l 5.892,-4.6516 1.7596,-9.8537 2.5819,6.4425 h 2.7909 l 5.892,-2.7909 3.7212,-5.2718 7.1324,-2.7909 1.8606,-7.1324 4.0314,0.3101 11.232,-11.395 v -6.1398 h 2.8506 l 3.7277,-6.1398 1.9735,-7.6747 -2.6313,-0.87711 3.947,-3.5084 0.21928,-9.2096 3.5084,-2.6313 0.21928,-8.1132 -5.7012,-1.0964 5.4632,-4.3057 -0.3101,-4.9617 -2.7909,-0.93032 2.2426,-3.3975 -1.5349,-2.412 -1.9735,-3.0699 -4.6048,-0.87711 -4.8241,4.3855 3.947,-6.5783 -0.21927,-5.0434 -4.8241,-3.0699 h -8.1132 l -1.5349,1.0964 -6.359,0.21928 -2.1928,2.8506 -3.0699,-0.21927 0.87711,-4.6048 -9.8675,-0.87711 -5.9205,4.1663 -6.359,0.43856 -5.2626,3.7277 -0.87711,4.3855 0.21928,3.2892 -1.7542,-4.3855 -2.1928,-1.0964 -8.9904,4.1663 -3.0699,3.7277 -5.0434,2.8506 -5.4819,5.2626 -3.7277,5.0434 0.21928,2.1928 6.359,4.0699 -8.9904,-1.6578 -3.947,4.3855 -3.2892,3.0699 -4.3855,5.4819 -1.5349,4.3855 -1.3157,4.6048 0.21928,2.1928 3.7277,-0.43856 -5.7012,5.7012 -3.5084,5.7012 0.43855,3.947 h 5.0434 l -3.2892,3.0699 -3.2892,3.947 v 4.6048 l 6.1398,1.5349 3.947,1.3157 -4.1663,2.1928 -5.2626,3.2892 -1.5349,2.412 v 5.2626 l 2.1928,0.21928 -2.1928,2.6313 4.1663,4.6048 3.7277,2.1928 3.947,-1.0964 0.21928,2.8506 4.3855,3.0699 5.7012,-0.43855 3.2626,-5.2626 h 4.1928 l -3.7277,4.1663 1.0964,1.5349 3.7277,2.8506 3.7277,0.43856 5.4819,-0.87711 3.7277,-1.3157 2.1928,-2.6313 z"
       fill="#cc313f"
       id="path191" />
    <path
       d="m 117.16,125.31 -10.531,2.625 -14.906,10.531 -15.781,13.156 -4.4062,12.281 -6.125,10.531 0.875,9.6562 -1.75,18.406 10.5,5.2812 43.875,-6.1562 13.156,-14.031 14.906,-23.688 6.125,-16.656 -2.625,-13.156 -13.156,-6.1562 -7.875,-1.75 -12.281,-0.875 z m -1.75,7.9062 21.906,6.125 1.75,17.562 -3.5,11.406 -12.281,11.375 -4.375,14.062 -17.562,-2.6562 H 81.192 l -4.375,-19.281 6.125,-16.656 16.656,-14.062 15.812,-7.875 z"
       fill="#c75942"
       filter="url(#m)"
       id="path193" />
    <path
       d="m 154.71,213.97 16.746,-17.366 13.024,-46.516 1.8606,44.035 -13.645,29.15 z"
       fill="#ffccaa"
       filter="url(#l)"
       opacity="0.48161"
       id="path195" />
    <path
       d="m 129.41,110.56 -10.75,37.906 -5.625,0.3125 -1.5312,4.1875 -4.8438,-0.4375 -1.9688,-3.3125 -0.15625,0.25 -4.2188,-35.719 v -0.1875 l -0.125,-0.0937 -0.625,-0.625 -0.71875,0.6875 0.5,0.5 4.3438,36.781 -2.5312,4.0312 -31.531,-12.656 -0.375,0.9375 30.125,12.094 -3.875,0.15625 v 5.9062 l -4.625,-0.4375 0.21875,2.4062 3.0625,1.5625 -0.875,2.8438 -3.7188,0.21875 0.4375,2.625 -0.25,0.46875 -42.781,12.75 0.28125,0.96875 41.844,-12.5 -0.40625,0.71875 3.2812,0.21875 h 2.875 l 1.3125,5.0625 2.8438,-1.7812 0.65625,0.0625 -32.188,51.5 0.84375,0.53125 32.438,-51.938 2.8438,0.28125 3.2812,-3.0625 2.0312,2.1875 2.8125,38.031 1,-0.0625 -2.8438,-38.594 0.96875,-3.75 1.9688,-1.75 5.0312,1.0938 20.219,28.875 -0.59375,4.1562 1,0.15625 0.625,-4.3438 v -0.1875 l -0.0937,-0.1875 -20.812,-29.812 0.3125,-1.2812 3.9375,-4.5938 38.5,-1.6562 -0.0312,-1 -39.656,1.7188 -2.3125,-1.7188 3.75,-4.9688 40.906,-17.625 -0.40625,-0.9375 -41.406,17.875 -1.2812,-0.46875 1.0938,-3.75 -0.875,-2.8438 -1,0.0625 10.656,-37.562 -0.96875,-0.28125 z"
       fill="url(#a)"
       id="path197"
       style="fill:url(#a)" />
    <path
       d="m 89.518,230.57 48.68,-24.559 30.26,-49.118 -4.3855,-41.224 c 0,0 -16.237,19.179 -21.928,30.26 -3.3788,6.5796 -3.3932,14.603 -7.0169,21.051 -4.8786,8.6808 -13.369,14.804 -19.296,22.805 -9.631,13 -26.313,40.786 -26.313,40.786 z"
       fill="url(#e)"
       filter="url(#k)"
       opacity="0.7893"
       id="path199"
       style="fill:url(#e)" />
  </g>
</svg>
