<?xml version="1.0" encoding="UTF-8" standalone="no"?>
<svg
   xmlns:dc="http://purl.org/dc/elements/1.1/"
   xmlns:cc="http://creativecommons.org/ns#"
   xmlns:rdf="http://www.w3.org/1999/02/22-rdf-syntax-ns#"
   xmlns:svg="http://www.w3.org/2000/svg"
   xmlns="http://www.w3.org/2000/svg"
   xmlns:sodipodi="http://sodipodi.sourceforge.net/DTD/sodipodi-0.dtd"
   xmlns:inkscape="http://www.inkscape.org/namespaces/inkscape"
   id="svg5657"
   sodipodi:docname="hammer.svg"
   viewBox="0 0 458.35294 295.37307"
   sodipodi:version="0.32"
   version="1.0"
   inkscape:output_extension="org.inkscape.output.svg.inkscape"
   inkscape:version="1.0.2-2 (e86c870879, 2021-01-15)"
   width="121.27254mm"
   height="78.150795mm">
  <defs
     id="defs5659">
    <filter
       id="filter3542"
       inkscape:collect="always">
      <feGaussianBlur
         id="feGaussianBlur3544"
         stdDeviation="0.84799655"
         inkscape:collect="always" />
    </filter>
    <filter
       id="filter5582"
       height="1.3426"
       width="1.6931"
       y="-0.17129"
       x="-0.34652999"
       inkscape:collect="always">
      <feGaussianBlur
         id="feGaussianBlur5584"
         stdDeviation="0.92750316"
         inkscape:collect="always" />
    </filter>
    <filter
       id="filter5586"
       height="1.2247"
       width="1.6058"
       y="-0.11234"
       x="-0.30291"
       inkscape:collect="always">
      <feGaussianBlur
         id="feGaussianBlur5588"
         stdDeviation="0.92750316"
         inkscape:collect="always" />
    </filter>
    <filter
       id="filter5590"
       height="1.2247"
       width="1.5671"
       y="-0.11234"
       x="-0.28356001"
       inkscape:collect="always">
      <feGaussianBlur
         id="feGaussianBlur5592"
         stdDeviation="0.92750316"
         inkscape:collect="always" />
    </filter>
    <filter
       id="filter5594"
       height="1.2484"
       width="1.7196"
       y="-0.12422"
       x="-0.35979"
       inkscape:collect="always">
      <feGaussianBlur
         id="feGaussianBlur5596"
         stdDeviation="0.92750316"
         inkscape:collect="always" />
    </filter>
    <filter
       id="filter5598"
       height="1.2538"
       width="1.8681999"
       y="-0.1269"
       x="-0.4341"
       inkscape:collect="always">
      <feGaussianBlur
         id="feGaussianBlur5600"
         stdDeviation="0.92750316"
         inkscape:collect="always" />
    </filter>
    <filter
       id="filter5602"
       height="1.2306"
       width="1.7657"
       y="-0.11528"
       x="-0.38284001"
       inkscape:collect="always">
      <feGaussianBlur
         id="feGaussianBlur5604"
         stdDeviation="0.92750316"
         inkscape:collect="always" />
    </filter>
    <filter
       id="filter5606"
       height="1.2247"
       width="1.8411"
       y="-0.11234"
       x="-0.42052999"
       inkscape:collect="always">
      <feGaussianBlur
         id="feGaussianBlur5608"
         stdDeviation="0.92750316"
         inkscape:collect="always" />
    </filter>
    <filter
       id="filter5610"
       height="1.2247"
       width="2.0634999"
       y="-0.11234"
       x="-0.53175998"
       inkscape:collect="always">
      <feGaussianBlur
         id="feGaussianBlur5612"
         stdDeviation="0.92750316"
         inkscape:collect="always" />
    </filter>
    <filter
       id="filter5614"
       height="1.2416"
       width="2.1622"
       y="-0.12081"
       x="-0.58108997"
       inkscape:collect="always">
      <feGaussianBlur
         id="feGaussianBlur5616"
         stdDeviation="0.92750316"
         inkscape:collect="always" />
    </filter>
    <filter
       id="filter5618"
       height="1.336"
       width="1.8355"
       y="-0.16802"
       x="-0.41776001"
       inkscape:collect="always">
      <feGaussianBlur
         id="feGaussianBlur5620"
         stdDeviation="0.92750316"
         inkscape:collect="always" />
    </filter>
    <filter
       id="filter5224"
       height="1.1253"
       width="1.4766999"
       y="-0.062674001"
       x="-0.23833001"
       inkscape:collect="always">
      <feGaussianBlur
         id="feGaussianBlur5226"
         stdDeviation="0.45807503"
         inkscape:collect="always" />
    </filter>
    <filter
       id="filter5228"
       height="1.1177"
       width="1.4044"
       y="-0.058860999"
       x="-0.20218"
       inkscape:collect="always">
      <feGaussianBlur
         id="feGaussianBlur5230"
         stdDeviation="0.45807503"
         inkscape:collect="always" />
    </filter>
    <filter
       id="filter3650"
       height="1.2562"
       width="2.0373001"
       y="-0.12809999"
       x="-0.51866001"
       inkscape:collect="always">
      <feGaussianBlur
         id="feGaussianBlur3652"
         stdDeviation="1.012616"
         inkscape:collect="always" />
    </filter>
    <filter
       id="filter3706"
       height="1.1012"
       width="1.2639"
       y="-0.050618"
       x="-0.13197"
       inkscape:collect="always">
      <feGaussianBlur
         id="feGaussianBlur3708"
         stdDeviation="0.32992165"
         inkscape:collect="always" />
    </filter>
    <filter
       id="filter3654"
       height="1.2318"
       width="1.727"
       y="-0.11589"
       x="-0.3635"
       inkscape:collect="always">
      <feGaussianBlur
         id="feGaussianBlur3656"
         stdDeviation="1.012616"
         inkscape:collect="always" />
    </filter>
    <filter
       id="filter3358"
       height="1.1046"
       width="1.2435"
       y="-0.052297998"
       x="-0.12177"
       inkscape:collect="always">
      <feGaussianBlur
         id="feGaussianBlur3360"
         stdDeviation="1.214068"
         inkscape:collect="always" />
    </filter>
    <filter
       id="filter3430"
       inkscape:collect="always">
      <feGaussianBlur
         id="feGaussianBlur3432"
         stdDeviation="1.0413037"
         inkscape:collect="always" />
    </filter>
    <filter
       id="filter3442"
       inkscape:collect="always">
      <feGaussianBlur
         id="feGaussianBlur3444"
         stdDeviation="0.49542683"
         inkscape:collect="always" />
    </filter>
    <filter
       id="filter3482"
       inkscape:collect="always">
      <feGaussianBlur
         id="feGaussianBlur3484"
         stdDeviation="1.5664925"
         inkscape:collect="always" />
    </filter>
  </defs>
  <sodipodi:namedview
     id="base"
     bordercolor="#666666"
     inkscape:pageshadow="2"
     guidetolerance="10"
     pagecolor="#ffffff"
     gridtolerance="10000"
     inkscape:window-height="1017"
     inkscape:zoom="0.35"
     objecttolerance="10"
     showgrid="false"
     borderopacity="1.0"
     inkscape:current-layer="layer1"
     inkscape:cx="366.43856"
     inkscape:cy="502.07086"
     inkscape:window-y="-8"
     inkscape:window-x="-8"
     inkscape:window-width="1920"
     inkscape:pageopacity="0.0"
     inkscape:document-units="px"
     inkscape:document-rotation="0"
     units="mm"
     inkscape:window-maximized="1" />
  <g
     id="layer1"
     inkscape:label="Layer 1"
     inkscape:groupmode="layer"
     transform="translate(-136.53144,-300.43914)">
    <g
       id="g5622"
       transform="matrix(1.5974695,0,0,1.5974695,377.81323,48.67475)">
      <path
         id="path2476"
         style="fill:#1d1d1d;fill-rule:evenodd"
         d="m -84.61,162.53 10.714,1.07 -6.428,10.35 13.571,-9.64 10.714,2.86 -1.071,3.93 -12.857,12.85 -11.429,12.15 c 0,0 -8.928,11.07 -10.714,15.35 -1.786,4.29 -5,9.65 -5.714,13.93 -0.715,4.29 -1.429,10 -0.357,11.43 1.071,1.43 11.071,4.64 11.071,4.64 l 7.857,-0.35 3.572,1.78 88.928,-1.43 2.143,-4.28 41.786,-5 46.074,0.36 13.93,-1.08 1.78,-0.71 6.79,0.36 c 0,0 8.21,4.64 9.28,8.21 1.07,3.57 1.07,10 0.36,13.57 -0.71,3.57 -3.21,9.65 -5.71,11.79 -2.5,2.14 -8.58,3.21 -8.58,3.21 l -5.35,-2.5 -21.789,-0.35 -38.928,2.5 -39.286,-2.15 -3.571,-2.5 -86.786,2.15 -1.786,2.14 -6.071,0.36 -15.357,8.21 c 0,0 -6.426,6.07 -8.216,10 -1.78,3.93 -5.36,11.43 -5.36,16.43 0,5 2.5,12.5 2.5,12.5 l 0.36,6.78 -2.5,15 c 0,0 -2.14,3.58 -5.71,5 -3.57,1.43 -20.36,0.72 -22.86,-0.71 -2.5,-1.43 -9.29,-5.71 -10.71,-8.21 -1.43,-2.5 3.21,-21.08 3.21,-21.08 l 6.79,-7.85 c 0,0 2.14,-6.79 2.14,-10.36 0,-3.57 -5.36,-13.21 -5.36,-13.21 l -3.21,-6.08 1.43,-14.28 c 0,0 5,-22.86 6.07,-26.79 1.07,-3.93 8.21,-19.28 10.71,-24.28 2.5,-5 14.64,-20 17.14,-22.15 2.5,-2.14 27.147,-23.57 26.79,-23.92 z" />
      <path
         id="path3250"
         style="fill:#ffffff;fill-rule:evenodd;filter:url(#filter3482)"
         d="m -84.61,162.53 -27.14,25.35 -9.65,9.65 -4.64,7.14 17.86,7.14 8.927,-12.14 10,-7.86 21.429,-17.14 11.071,-6.79 -11.071,-3.93 -32.496,26.79 -12.86,11.07 5.71,-7.5 14.289,-13.57 13.928,-11.79 4.643,-5.35 z" />
      <path
         id="path3254"
         sodipodi:nodetypes="cccccc"
         style="fill:#a9a9a9;fill-rule:evenodd;filter:url(#filter3442)"
         d="m -126.04,204.31 17.86,7.5 -3.86,7.04 -11.86,-3.11 -6.49,-2.84 z" />
      <path
         id="path3304"
         style="fill:#707070;fill-rule:evenodd"
         d="m -79.61,173.24 -17.143,12.86 -14.647,14.28 24.29,-24.28 10.714,-8.93 z" />
      <path
         id="path3308"
         style="fill:#f7f7f7;fill-rule:evenodd;filter:url(#filter3430)"
         d="m -130.32,213.24 17.5,5.36 -10,23.57 -0.36,-6.79 -3.57,-4.64 -5.72,-2.5 -5.35,-0.36 z" />
      <path
         id="path3312"
         sodipodi:nodetypes="ccccccccccccc"
         style="fill:#9d9d9d;fill-rule:evenodd;filter:url(#filter3358)"
         d="m -122.93,243.03 -3.99,13.68 -2.04,10.74 -0.65,12.58 -7.5,3.57 -9.64,-9.65 2.5,-20 3.93,-17.14 2.5,-8.93 7.5,1.07 4.28,2.86 3.22,5 z" />
      <path
         id="path3494"
         style="fill:none;stroke:#626262;stroke-width:1px"
         d="m -108.18,289.67 -10.72,1.78 -10,-8.57" />
      <path
         id="path3498"
         sodipodi:nodetypes="cccccc"
         style="fill:#515151;fill-rule:evenodd"
         d="m -130.68,302.53 9.28,-0.58 0.36,20.43 -15.93,-2.5 5.22,-12 z" />
      <path
         id="path3500"
         sodipodi:nodetypes="cccccccccccccccccccccccccccccccccccccccccccccccccsc"
         style="fill:#9a9a9a;fill-rule:evenodd"
         d="m -108.9,320.03 -5.71,0.85 -7.5,0.57 -13.57,-3.21 5.57,-14.79 8.36,-0.21 2.85,-2.14 9.29,-5.72 3.57,-9.64 4.69,-6.5 4.893,-4.34 13.99,-7.37 1.428,-8.58 -0.357,-5.35 -0.714,-3.93 -2.5,-1.43 -7.143,-1.43 -3.571,-1.78 -1.786,-1.79 v -6.07 l -1.429,-0.36 0.296,-9.5 1.429,-6.13 3.99,-8.3 5.357,-8.93 6.428,-8.27 7.226,-7.86 9.56,-8.87 7.143,-7.85 0.505,-4.04 -18.005,13.32 -13.929,11.43 -12.501,11.43 -9.28,11.07 -6.79,16.07 -7.5,17.86 -3.57,18.21 -1.07,10.72 -0.36,2.64 -7.86,3.22 -8.38,-7.9 6.6,13.82 -0.03,10.38 -1.76,4.62 -6.78,7.15 -3.22,22.14 11.43,6.79 18.57,1.78 6.07,-2.14 c 0,0 4.29,-2.5 4.29,-3.93 0,-1.43 2.86,-15.71 1.78,-15.71 z" />
      <path
         id="path3486"
         style="fill:none;stroke:#fcfcfc;stroke-width:2.4;filter:url(#filter3654)"
         d="m -140.68,337.17 4.28,-18.57" />
      <path
         id="path3490"
         style="fill:none;stroke:#c9c9c9;stroke-width:1px;filter:url(#filter3706)"
         d="m -136.75,316.45 c 1.43,-1.42 3.21,-7.14 3.21,-7.14 l 1.79,-7.5" />
      <path
         id="path3488"
         sodipodi:nodetypes="cc"
         style="fill:none;stroke:#cecece;stroke-width:2.4;filter:url(#filter3650)"
         d="m -117.11,340.38 2.29,-16.57" />
      <path
         id="path3504"
         sodipodi:nodetypes="cccccccc"
         style="fill:#dbdbdb;fill-rule:evenodd"
         d="m -121.04,321.1 -0.71,-17.88 8.53,-5.69 -1.39,8.57 -0.36,5.71 2.86,8.93 -4.64,0.36 z" />
      <path
         id="path3506"
         sodipodi:nodetypes="ccccccccccc"
         style="fill:#7f7f7f;fill-rule:evenodd"
         d="m -112.47,320.38 4.29,-0.35 -0.72,-5.36 -2.12,-8.32 -0.48,-4.01 -0.02,-2.51 2.12,-4.66 -3.78,1.07 -2.14,10.93 0.35,4.28 z" />
      <path
         id="path5112"
         style="fill:#e0e0e0;fill-rule:evenodd"
         d="m -82.327,267.47 h 6.187 l 1.389,-2.27 8.081,-0.25 2.399,-2.65 1.389,-3.29 0.379,-3.78 v -2.66 l -0.505,-2.14 -0.505,-1.64 -14.521,-1.52 -3.662,0.88 0.379,5.56 -0.253,7.58 z" />
      <path
         id="path5118"
         style="fill:#959595;fill-rule:evenodd"
         d="m -64.145,261.03 -10.859,-0.12 c 0,0 -1.768,2.14 -2.651,2.14 -0.884,0 -4.167,0.13 -4.167,0.13 l -0.253,4.04 6.187,0.25 1.389,-2.27 8.208,-0.5 z" />
      <path
         id="path5114"
         style="fill:none;stroke:#6f6f6f;stroke-width:1px;filter:url(#filter5228)"
         d="m -79.044,266.21 c 0,0 3.661,-3.66 4.293,-7.83 0.631,-4.16 -1.01,-9.85 -1.01,-9.85" />
      <path
         id="path5116"
         style="fill:none;stroke:#6f6f6f;stroke-width:1px;filter:url(#filter5224)"
         d="m -81.444,265.45 c 0,0 3.157,-4.29 3.536,-7.45 0.379,-3.15 -0.758,-9.09 -0.758,-9.09" />
      <path
         id="path5110"
         style="fill:#454545;fill-rule:evenodd;stroke:#4e4e4e;stroke-width:1px"
         d="m -97.101,238.05 -0.252,4.67 1.262,1.77 3.788,1.77 8.082,2.15 1.641,0.75 1.515,5.43 -0.126,-5.68 v -0.88 h 1.136 l 0.505,1.01 1.516,-1.64 1.389,0.38 0.631,1.13 0.884,-1.26 1.894,0.5 3.157,0.51 6.692,-0.51 0.126,-2.77 76.014,-3.29 -0.126,-0.75 -88.01,1.51 -3.788,-2.02 -7.702,0.25 -6.566,-2.27 -3.536,-1.39 z" />
      <path
         id="path5232"
         style="fill:#2b2b2b;fill-rule:evenodd"
         d="m -66.165,264.82 70.458,-1.77 c 10e-5,0 5.4297,-5.8 5.3034,-11.61 -0.1262,-5.81 -4.2931,-8.84 -4.2931,-8.84 l -67.932,3.41 -0.632,2.52 c 0,0 1.642,4.55 0.758,8.59 -0.884,4.04 -3.915,7.83 -3.662,7.7 z" />
      <path
         id="path5236"
         sodipodi:nodetypes="ccscccsc"
         style="fill:#d0d0d0;fill-rule:evenodd"
         d="m 4.4194,263.05 9.0916,-0.12 c 0,0 6.692,-1.77 7.702,-7.2 1.01,-5.43 -1.01,-10.98 -1.01,-10.98 l -9.723,0.37 -3.0301,-0.5 c 0,0 3.5351,4.54 1.6415,9.6 -1.8941,5.05 -4.672,8.71 -4.672,8.83 z" />
      <path
         id="path5238"
         style="fill:#707070;fill-rule:evenodd"
         d="m 20.582,245 c 0,0 -1.894,-2.78 -3.662,-3.41 -1.768,-0.63 -3.283,0.12 -3.283,0.12 l -1.263,0.64 -6.1868,0.25 1.5152,2.15 2.5256,0.63 z" />
      <path
         id="path5242"
         style="fill:none;stroke:#000000;stroke-width:1px;filter:url(#filter5618)"
         d="m 58.336,248.15 c 0,0 3.031,3.41 2.147,6.95 -0.884,3.53 -4.167,5.3 -4.167,5.3" />
      <path
         id="path5244"
         style="fill:none;stroke:#000000;stroke-width:1px;filter:url(#filter5614)"
         d="m 72.731,248.79 c 0,0 3.283,4.16 2.778,8.96 -0.505,4.8 -2.525,8.46 -2.525,8.46" />
      <path
         id="path5246"
         style="fill:none;stroke:#000000;stroke-width:1px;filter:url(#filter5610)"
         d="m 78.792,247.27 c 0,0 3.409,4.17 3.03,9.98 -0.378,5.8 -3.156,8.83 -3.156,8.83" />
      <path
         id="path5248"
         style="fill:none;stroke:#000000;stroke-width:1px;filter:url(#filter5606)"
         d="m 85.358,247.02 c 0,0 4.041,4.04 3.157,9.22 -0.884,5.17 -4.167,9.59 -4.167,9.59" />
      <path
         id="path5250"
         style="fill:none;stroke:#000000;stroke-width:1px;filter:url(#filter5602)"
         d="m 92.176,247.02 c 0,0 2.778,3.15 2.526,8.33 -0.253,5.18 -4.798,9.98 -4.798,9.98" />
      <path
         id="path5252"
         style="fill:none;stroke:#000000;stroke-width:1px;filter:url(#filter5598)"
         d="m 99.247,247.9 c 0,0 2.143,4.04 1.263,8.97 -0.884,4.92 -3.914,7.57 -3.914,7.57" />
      <path
         id="path5254"
         style="fill:none;stroke:#000000;stroke-width:1px;filter:url(#filter5594)"
         d="m 105.31,247.78 c 0,0 2.65,4.29 1.89,7.95 -0.76,3.66 -5.05,8.97 -5.05,8.97" />
      <path
         id="path5256"
         style="fill:none;stroke:#000000;stroke-width:1px;filter:url(#filter5590)"
         d="m 110.61,246.39 c 0,0 3.16,3.41 2.78,9.09 -0.38,5.68 -6.82,9.72 -6.82,9.72 l 0.76,-0.13" />
      <path
         id="path5258"
         style="fill:none;stroke:#000000;stroke-width:1px;filter:url(#filter5586)"
         d="m 117.18,246.26 c 0,0 3.03,3.91 2.14,8.97 -0.88,5.05 -6.18,9.84 -6.18,9.84" />
      <path
         id="path5260"
         style="fill:none;stroke:#000000;stroke-width:1px;filter:url(#filter5582)"
         d="m 118.95,245 c 0,0 4.29,2.4 5.05,6.18 0.75,3.79 0.12,5.81 0.12,5.81" />
      <path
         id="path3502"
         style="fill:none;stroke:#000000;stroke-width:1px;filter:url(#filter3542)"
         d="m -129.25,281.1 c 0,-1.79 2.85,-25 2.85,-25 l 3.22,-10 5,-14.29 5.71,-12.86 4.65,-7.14" />
    </g>
  </g>
  <metadata
     id="metadata79">
    <rdf:RDF>
      <cc:Work>
        <dc:format>image/svg+xml</dc:format>
        <dc:type
           rdf:resource="http://purl.org/dc/dcmitype/StillImage" />
        <cc:license
           rdf:resource="http://creativecommons.org/publicdomain/zero/1.0/" />
        <dc:publisher>
          <cc:Agent
             rdf:about="http://openclipart.org/">
            <dc:title>Openclipart</dc:title>
          </cc:Agent>
        </dc:publisher>
        <dc:title>Hammer</dc:title>
        <dc:date>2008-02-17T22:29:55</dc:date>
        <dc:description>A hammer...</dc:description>
        <dc:source>https://openclipart.org/detail/14358/hammer-by-mystica</dc:source>
        <dc:creator>
          <cc:Agent>
            <dc:title>mystica</dc:title>
          </cc:Agent>
        </dc:creator>
        <dc:subject>
          <rdf:Bag>
            <rdf:li>hammer</rdf:li>
            <rdf:li>tool</rdf:li>
          </rdf:Bag>
        </dc:subject>
      </cc:Work>
      <cc:License
         rdf:about="http://creativecommons.org/publicdomain/zero/1.0/">
        <cc:permits
           rdf:resource="http://creativecommons.org/ns#Reproduction" />
        <cc:permits
           rdf:resource="http://creativecommons.org/ns#Distribution" />
        <cc:permits
           rdf:resource="http://creativecommons.org/ns#DerivativeWorks" />
      </cc:License>
    </rdf:RDF>
  </metadata>
</svg>
