<?xml version="1.0" encoding="UTF-8" standalone="no"?>
<svg
   xmlns:dc="http://purl.org/dc/elements/1.1/"
   xmlns:cc="http://creativecommons.org/ns#"
   xmlns:rdf="http://www.w3.org/1999/02/22-rdf-syntax-ns#"
   xmlns:svg="http://www.w3.org/2000/svg"
   xmlns="http://www.w3.org/2000/svg"
   xmlns:xlink="http://www.w3.org/1999/xlink"
   xmlns:sodipodi="http://sodipodi.sourceforge.net/DTD/sodipodi-0.dtd"
   xmlns:inkscape="http://www.inkscape.org/namespaces/inkscape"
   viewBox="0 0 285.3877 317.45335"
   version="1.1"
   id="svg210"
   sodipodi:docname="headphones.svg"
   width="75.508827mm"
   height="83.992867mm"
   inkscape:version="1.0.2-2 (e86c870879, 2021-01-15)">
  <metadata
     id="metadata214">
    <rdf:RDF>
      <cc:Work
         rdf:about="">
        <dc:format>image/svg+xml</dc:format>
        <dc:type
           rdf:resource="http://purl.org/dc/dcmitype/StillImage" />
        <dc:title />
      </cc:Work>
    </rdf:RDF>
  </metadata>
  <sodipodi:namedview
     pagecolor="#ffffff"
     bordercolor="#666666"
     borderopacity="1"
     objecttolerance="10"
     gridtolerance="10"
     guidetolerance="10"
     inkscape:pageopacity="0"
     inkscape:pageshadow="2"
     inkscape:window-width="1920"
     inkscape:window-height="1017"
     id="namedview212"
     showgrid="false"
     units="mm"
     inkscape:zoom="0.47222222"
     inkscape:cx="432.21019"
     inkscape:cy="527.97187"
     inkscape:window-x="-8"
     inkscape:window-y="-8"
     inkscape:window-maximized="1"
     inkscape:current-layer="svg210"
     inkscape:document-rotation="0" />
  <defs
     id="defs102">
    <filter
       id="af">
      <feGaussianBlur
         stdDeviation="3.5314"
         id="feGaussianBlur2" />
    </filter>
    <filter
       id="ae">
      <feGaussianBlur
         stdDeviation="8.3187"
         id="feGaussianBlur5" />
    </filter>
    <filter
       id="ah"
       x="-0.12816"
       y="-0.03269"
       width="1.2563"
       height="1.0654">
      <feGaussianBlur
         stdDeviation=".4768"
         id="feGaussianBlur8" />
    </filter>
    <filter
       id="ag"
       x="-0.11867"
       y="-0.02605"
       width="1.2373"
       height="1.0520999">
      <feGaussianBlur
         stdDeviation=".4768"
         id="feGaussianBlur11" />
    </filter>
    <linearGradient
       id="c">
      <stop
         stop-color="#ccc"
         offset="0"
         id="stop14" />
      <stop
         stop-color="#ccc"
         stop-opacity="0"
         offset="1"
         id="stop16" />
    </linearGradient>
    <linearGradient
       id="a">
      <stop
         stop-color="#fff"
         offset="0"
         id="stop19" />
      <stop
         stop-color="#fff"
         stop-opacity="0"
         offset="1"
         id="stop21" />
    </linearGradient>
    <linearGradient
       id="b">
      <stop
         offset="0"
         id="stop24" />
      <stop
         stop-opacity="0"
         offset="1"
         id="stop26" />
    </linearGradient>
    <linearGradient
       id="d">
      <stop
         stop-color="#4d4d4d"
         offset="0"
         id="stop29" />
      <stop
         stop-color="#4d4d4d"
         stop-opacity="0"
         offset="1"
         id="stop31" />
    </linearGradient>
    <linearGradient
       id="e">
      <stop
         stop-color="#e6e6e6"
         offset="0"
         id="stop34" />
      <stop
         stop-color="#e6e6e6"
         stop-opacity="0"
         offset="1"
         id="stop36" />
    </linearGradient>
    <linearGradient
       id="x"
       x1="738.29999"
       x2="490.17999"
       y1="272.37"
       y2="341.76001"
       gradientUnits="userSpaceOnUse">
      <stop
         stop-color="#1a1a1a"
         offset="0"
         id="stop39" />
      <stop
         stop-color="#1a1a1a"
         stop-opacity="0"
         offset="1"
         id="stop41" />
    </linearGradient>
    <linearGradient
       id="w"
       x1="237.86"
       x2="408.17999"
       y1="261.85999"
       y2="354.38"
       gradientUnits="userSpaceOnUse">
      <stop
         stop-color="#333"
         offset="0"
         id="stop44" />
      <stop
         stop-color="#333"
         stop-opacity="0"
         offset="1"
         id="stop46" />
    </linearGradient>
    <linearGradient
       id="s"
       x1="546.32001"
       x2="647.77002"
       y1="2274.7"
       y2="2214"
       gradientUnits="userSpaceOnUse"
       xlink:href="#d" />
    <linearGradient
       id="ad"
       x1="879.98999"
       x2="713.46997"
       y1="738.15997"
       y2="766.40997"
       gradientUnits="userSpaceOnUse"
       xlink:href="#b" />
    <linearGradient
       id="ac"
       x1="621.28998"
       x2="729.82001"
       y1="849.67999"
       y2="842.23999"
       gradientUnits="userSpaceOnUse"
       xlink:href="#c" />
    <linearGradient
       id="ab"
       x1="471.12"
       x2="875.63"
       y1="907.65997"
       y2="681.72998"
       gradientUnits="userSpaceOnUse"
       xlink:href="#a" />
    <linearGradient
       id="aa"
       x1="567.97998"
       x2="607.92999"
       y1="671.88"
       y2="688.70001"
       gradientUnits="userSpaceOnUse"
       xlink:href="#e" />
    <linearGradient
       id="z"
       x1="544.84998"
       x2="652.09003"
       y1="865.33002"
       y2="859.02002"
       gradientUnits="userSpaceOnUse"
       xlink:href="#b" />
    <linearGradient
       id="y"
       x1="435.42999"
       x2="610.88"
       y1="882.39001"
       y2="874.95001"
       gradientUnits="userSpaceOnUse"
       xlink:href="#d" />
    <linearGradient
       id="v"
       x1="70.700996"
       x2="105.4"
       y1="622.46997"
       y2="635.08002"
       gradientUnits="userSpaceOnUse"
       xlink:href="#e" />
    <linearGradient
       id="u"
       x1="152.2"
       x2="204.24001"
       y1="414.78"
       y2="420.73001"
       gradientUnits="userSpaceOnUse"
       xlink:href="#c" />
    <linearGradient
       id="t"
       x1="323.25"
       x2="258.60001"
       y1="721.03003"
       y2="727.09003"
       gradientUnits="userSpaceOnUse"
       xlink:href="#c" />
    <radialGradient
       id="p"
       cx="-89.220001"
       cy="2072.8"
       r="59.403"
       gradientTransform="matrix(1.6077,0.00346,-0.00936,4.3525,435.98,-8311.5)"
       gradientUnits="userSpaceOnUse">
      <stop
         stop-color="#666"
         offset="0"
         id="stop59" />
      <stop
         stop-color="#151515"
         offset="1"
         id="stop61" />
    </radialGradient>
    <radialGradient
       id="n"
       cx="-100.66"
       cy="2063.3999"
       r="186.50999"
       gradientTransform="matrix(0.76103,0.08322,-0.13471,1.232,619.21,-1830)"
       gradientUnits="userSpaceOnUse">
      <stop
         offset="0"
         id="stop64" />
      <stop
         stop-color="#292929"
         offset=".6351"
         id="stop66" />
      <stop
         stop-color="#515151"
         offset=".7908"
         id="stop68" />
      <stop
         stop-color="#202020"
         offset=".9743"
         id="stop70" />
      <stop
         offset="1"
         id="stop72" />
    </radialGradient>
    <radialGradient
       id="m"
       cx="-249.75"
       cy="1933.7"
       r="124.52"
       gradientTransform="matrix(1.1581,-0.72191,0.49399,0.79247,-506.14,-1089)"
       gradientUnits="userSpaceOnUse">
      <stop
         stop-color="#666"
         offset="0"
         id="stop75" />
      <stop
         stop-color="#666"
         offset=".8914"
         id="stop77" />
      <stop
         stop-color="#323232"
         offset="1"
         id="stop79" />
    </radialGradient>
    <radialGradient
       id="l"
       cx="-136.32001"
       cy="2063.8999"
       r="199.64"
       gradientTransform="matrix(0.72368,0.13376,-0.19484,1.0542,739.81,-1449.7)"
       gradientUnits="userSpaceOnUse">
      <stop
         stop-color="#999"
         offset="0"
         id="stop82" />
      <stop
         stop-color="#434343"
         offset=".337"
         id="stop84" />
      <stop
         stop-color="#d6d6d6"
         offset=".5909"
         id="stop86" />
      <stop
         stop-color="#515151"
         offset=".8826"
         id="stop88" />
      <stop
         stop-color="#999"
         offset="1"
         id="stop90" />
    </radialGradient>
    <radialGradient
       id="r"
       cx="581.03998"
       cy="1840.6"
       r="203.28999"
       gradientTransform="matrix(1.0164,0.03453,-0.01702,0.50112,210.13,-405.87)"
       gradientUnits="userSpaceOnUse"
       xlink:href="#b" />
    <radialGradient
       id="q"
       cx="509.5"
       cy="2185.6001"
       r="225.31"
       gradientTransform="matrix(2.4086,0.24966,-0.26593,2.5656,161.19,-4957.8)"
       gradientUnits="userSpaceOnUse"
       xlink:href="#b" />
    <radialGradient
       id="o"
       cx="-73.712997"
       cy="2059.8999"
       r="186.50999"
       gradientTransform="matrix(3.516,0.2604,-0.30733,4.1497,1210.5,-7826.2)"
       gradientUnits="userSpaceOnUse"
       xlink:href="#b" />
    <radialGradient
       id="k"
       cx="313.32999"
       cy="153.69"
       r="282.63"
       gradientTransform="matrix(0.47807,0.01006,-0.00715,0.33986,166.84,171.92)"
       gradientUnits="userSpaceOnUse"
       xlink:href="#a" />
    <radialGradient
       id="j"
       cx="179.50999"
       cy="413.19"
       r="16.559"
       gradientTransform="matrix(2.0981,0.36603,-0.39349,2.2555,-34.528,-584.47)"
       gradientUnits="userSpaceOnUse"
       xlink:href="#a" />
    <radialGradient
       id="i"
       cx="170.84"
       cy="481.28"
       r="17.754"
       gradientTransform="matrix(0.99721,0.07458,-0.22758,3.0428,110.01,-995.91)"
       gradientUnits="userSpaceOnUse"
       xlink:href="#a" />
    <radialGradient
       id="h"
       cx="907.53998"
       cy="326.34"
       r="282.63"
       gradientTransform="matrix(0.47807,0.01006,-0.00715,0.33986,166.84,171.92)"
       gradientUnits="userSpaceOnUse"
       xlink:href="#a" />
    <radialGradient
       id="g"
       cx="671.82001"
       cy="452.72"
       r="23.778999"
       gradientTransform="matrix(1,0,0,2.0797,0,-488.8)"
       gradientUnits="userSpaceOnUse"
       xlink:href="#a" />
    <radialGradient
       id="f"
       cx="659.64001"
       cy="545.31"
       r="27.969999"
       gradientTransform="matrix(1,0,0,1.5699,0,-310.77)"
       gradientUnits="userSpaceOnUse"
       xlink:href="#a" />
  </defs>
  <g
     transform="matrix(0.35957175,0,0,0.35957175,-24.660677,-58.087061)"
     id="g208">
    <path
       d="m 182.41,359.63 19.975,15.77 81.478,5.7823 c 34.921,-100.43 113.47,-144.31 201.38,-176.04 77.224,33.448 124.59,106.25 158.35,197 l 31.966,-15.612 72.11,4.4604 c -6.499,-3.9424 -14.855,-7.1417 -11.894,-14.868 -59.105,-137.47 -159.33,-226.12 -344.94,-213.36 -88.714,25.012 -154.62,83.532 -194.77,179.9 -1.9732,9.9496 -5.753,16.888 -13.652,16.961 z"
       fill="#b3b3b3"
       id="path104" />
    <path
       d="m 546.95,590.97 c -78.361,85.774 -125.35,312.26 -34.197,420.77 47.143,43.89 132.53,37.853 182.88,11.894 l 59.472,-438.61 c -83.746,-73.414 -147.95,-44.233 -208.15,5.9472 z"
       id="path106" />
    <g
       transform="matrix(0.73593,0,0,0.73593,-138.51,-762.83)"
       id="g112">
      <path
         d="m 445.34,1649.2 2.6628,13.284 8.5863,-6.0609 -0.6066,-12.988 z"
         fill="#333333"
         id="path108" />
      <path
         d="m 454.55,1642 2.5402,13.912 72.226,4.5457 -3.2904,-14.223 z"
         fill="#999999"
         id="path110" />
    </g>
    <path
       d="M 178.99,890.56 C 73.83,901.368 24.73,530.61 228.403,500.51 432.083,446.951 449.543,921.04 178.99,890.56 Z"
       fill="url(#l)"
       id="path114"
       style="fill:url(#l)" />
    <path
       transform="matrix(0.72933,0,0,0.72962,336.65,-804.54)"
       d="m -93.612,1784.3 c -37.188,-3.1034 -75.07,-11.233 -107.08,23.234 -84.298,78.159 -89.751,152.02 -102.53,226.27 -12.094,8.2499 -24.637,13.804 -39.396,6.061 -0.74442,-24.55 11.828,-145.03 89.904,-234.86 22.212,-21.412 20.061,-46.884 18.688,-72.226 l 33.335,-5.0508 c 34.774,-0.9119 68.428,2.0966 100.51,10.607 z"
       fill="#1a1a1a"
       filter="url(#af)"
       id="path116" />
    <path
       d="m 267.8,495.07 c -27.368,-2.2839 -55.247,-8.267 -78.801,17.098 -62.037,57.52 -66.051,111.87 -75.456,166.52 -8.9002,6.0714 -18.131,10.159 -28.993,4.4605 -0.54785,-18.067 8.7043,-106.73 66.163,-172.84 16.346,-15.758 14.763,-34.503 13.753,-53.154 l 24.532,-3.7171 c 25.591,-0.6711 50.359,1.543 73.969,7.8058 z"
       fill="url(#m)"
       id="path118"
       style="fill:url(#m)" />
    <path
       transform="matrix(0.73593,0,0,0.73593,338.79,-815.39)"
       d="m -192.5,1734.5 9.6429,-0.3571 -0.35715,43.571 -8.5714,0.3572 z"
       fill="#1a1a1a"
       filter="url(#ag)"
       id="path120" />
    <path
       transform="matrix(0.73593,0,0,0.73593,338.79,-815.39)"
       d="m -117.86,1740.9 -0.35715,35 h 8.9286 l -0.35715,-34.643 z"
       fill="#1a1a1a"
       filter="url(#ah)"
       id="path122" />
    <path
       d="m 178.2,374.88 c 24.706,0.1148 49.413,1.7329 74.119,6.0452 10.97,5.0815 19.08,10.163 24.444,15.244 -6.5258,18.558 -11.872,37.545 -10.776,58.875 l -81.478,-4.731 -21.552,0.78848 c 0.0839,-24.618 2.0085,-49.527 15.244,-76.222 z"
       fill="#323232"
       stroke="#000000"
       stroke-width="0.73593"
       id="path124" />
    <path
       d="m 178.01,375.28 c -13.061,26.547 -14.98,51.327 -15.064,75.824 l 21.549,-0.78193 c -0.97649,-19.694 0.78448,-39.547 11.568,-59.933 l -18.053,-15.11 z"
       fill="url(#u)"
       id="path126"
       style="fill:url(#u)" />
    <path
       d="m 648.05,422.59 c 6.542,-7.6942 14.675,-14.593 27.134,-19.329 l 82.518,4.8322 c 15.95,30.358 16.118,61.592 14.496,92.926 -26.763,2.9256 -53.525,5.032 -80.288,1.1151 -11.751,0.31256 -22.933,-1.0811 -32.71,-6.6907 3.8479,-26.806 -3.3301,-49.937 -11.151,-72.854 z"
       fill="#767676"
       id="path128" />
    <path
       d="m 267.8,495.07 c -27.368,-2.2839 -55.247,-8.267 -78.801,17.098 -62.037,57.52 -66.051,111.87 -75.456,166.52 -8.9002,6.0714 -18.131,10.159 -28.993,4.4605 -0.54785,-18.067 8.7043,-106.73 66.163,-172.84 16.346,-15.758 14.763,-34.503 13.753,-53.154 l 24.532,-3.7171 c 25.591,-0.6711 50.359,1.543 73.969,7.8058 z"
       fill="url(#v)"
       id="path130"
       style="fill:url(#v)" />
    <path
       d="m 378.74,556.23 c -68.949,-102.31 -171.19,-68.568 -196.6,-12.616 -55.731,92.8 -83.144,192.38 -27.335,312.25 32.278,60.257 107.07,85.932 178.73,21.027 82.025,-76.258 73.616,-276.81 45.207,-320.66 z"
       fill="url(#n)"
       id="path132"
       style="fill:url(#n)" />
    <path
       d="m 178.2,374.89 -0.29897,0.62098 17.915,14.604 80.884,6.2554 0.069,-0.20702 c -5.363,-5.0814 -13.477,-10.166 -24.447,-15.248 -24.706,-4.3123 -49.416,-5.9107 -74.122,-6.0255 z"
       fill="#b3b3b3"
       id="path134" />
    <path
       d="m 207.51,365.94 -8.1478,19.187 66.891,5.9138 4.731,-21.421 z"
       fill="#333333"
       id="path136" />
    <path
       d="m 182.41,359.63 19.975,15.77 81.478,5.7823 c 34.921,-100.43 113.47,-144.31 201.38,-176.04 77.224,33.448 124.59,106.25 158.35,197 l 31.966,-15.612 72.11,4.4604 c -6.499,-3.9424 -14.855,-7.1417 -11.894,-14.868 -59.105,-137.47 -159.33,-226.12 -344.94,-213.36 -88.714,25.012 -154.62,83.532 -194.77,179.9 -1.9732,9.9496 -5.753,16.888 -13.652,16.961 z"
       fill="url(#k)"
       id="path138"
       style="fill:url(#k)" />
    <path
       d="m 207.77,366.2 -8.1478,19.055 -3.9425,-3.5482 8.2793,-21.421 z"
       fill="#666666"
       id="path140" />
    <path
       d="m 412.48,193.5 c -106.33,0.85501 -165.39,80.149 -211.72,180.6 l 0.78193,0.62091 52.366,4.3236 29.943,2.1388 c 34.905,-100.39 113.41,-144.27 201.28,-176 l 0.11499,-1.5408 c -26.502,-7.1193 -50.659,-10.32 -72.766,-10.142 z"
       fill="url(#w)"
       id="path142"
       style="fill:url(#w)" />
    <path
       d="m 424.64,161.56 c -2.6298,0.007 -5.2901,0.0199 -7.9573,0.0692 128.26,6.8093 195.83,91.287 239.55,206.31 l 17.087,17.11 72.191,4.6916 c -6.0201,-3.4298 -12.393,-6.72 -9.7511,-13.615 -55.411,-128.88 -146.95,-214.84 -311.12,-214.57 z"
       fill="url(#x)"
       id="path144"
       style="fill:url(#x)" />
    <path
       d="m 643.59,401.5 83.261,2.4986 21.187,-14.159 -72.854,-5.4137 z"
       fill="#1a1a1a"
       id="path146" />
    <g
       transform="matrix(0.73593,0,0,0.73593,338.79,-815.39)"
       id="g152">
      <path
         d="m 445.34,1649.2 2.6628,13.284 8.5863,-6.0609 -0.6066,-12.988 z"
         fill="#333333"
         id="path148" />
      <path
         d="m 454.55,1642 2.5402,13.912 72.226,4.5457 -3.2904,-14.223 z"
         fill="#999999"
         id="path150" />
    </g>
    <path
       d="m 675.18,403.27 c -12.459,4.7356 -20.596,11.624 -27.138,19.318 7.821,22.917 15.002,46.051 11.154,72.858 9.7383,5.5874 20.865,6.9903 32.565,6.6924 7.933,-31.869 3.547,-64.757 -12.948,-98.661 l -3.6337,-0.20701 z"
       fill="#b3b3b3"
       id="path154" />
    <path
       d="m 378.74,556.23 c -68.949,-102.31 -171.19,-68.568 -196.6,-12.616 -55.731,92.8 -83.144,192.38 -27.335,312.25 32.278,60.257 107.07,85.932 178.73,21.027 82.025,-76.258 73.616,-276.81 45.207,-320.66 z"
       fill="url(#o)"
       id="path156"
       style="fill:url(#o)" />
    <path
       d="m 313.56,624.57 c -18.574,-36.761 -37.147,-53.367 -55.721,-1.0514 -24.333,50.037 -36.85,105.98 -22.078,175.57 16.992,32.211 35.263,47.165 57.823,4.2053 32.374,-59.576 22.246,-119.15 19.975,-178.73 z"
       fill="url(#p)"
       id="path158"
       style="fill:url(#p)" />
    <path
       d="m 313.56,624.57 c -18.574,-36.761 -37.147,-53.367 -55.721,-1.0514 -24.333,50.037 -36.85,105.98 -22.078,175.57 16.992,32.211 35.263,47.165 57.823,4.2053 32.374,-59.576 22.246,-119.15 19.975,-178.73 z"
       fill="url(#t)"
       id="path160"
       style="fill:url(#t)" />
    <path
       d="m 598.94,555.47 c -17.878,8.9723 -35.095,21.42 -51.998,35.509 -78.361,85.774 -125.36,312.26 -34.198,420.77 16.004,14.9 36.417,24.021 58.369,28.586 l -21.204,-30.081 c -63.424,-170.61 -60.941,-278.47 41.626,-425.23 l 7.4053,-29.552 z"
       fill="url(#y)"
       opacity="0.1591"
       id="path162"
       style="fill:url(#y)" />
    <path
       d="m 638.52,1044.1 c -158.74,-7.8286 -168.25,-454.67 68.243,-487.85 230.6,-26.254 180.84,502.78 -68.243,487.85 z"
       fill="#4d4d4d"
       id="path164" />
    <path
       d="m 638.52,1044.1 c -158.74,-7.8286 -168.25,-454.67 68.243,-487.85 230.6,-26.254 180.84,502.78 -68.243,487.85 z"
       fill="url(#z)"
       id="path166"
       style="fill:url(#z)" />
    <path
       d="m 638.52,1044.1 c -158.74,-7.8286 -168.25,-454.67 68.243,-487.85 230.6,-26.254 180.84,502.78 -68.243,487.85 z"
       fill="url(#q)"
       id="path168"
       style="fill:url(#q)" />
    <path
       d="m 644.06,1044.1 c -145.86,-7.8286 -154.6,-454.67 62.704,-487.85 211.88,-26.254 166.16,502.78 -62.704,487.85 z"
       fill="url(#ab)"
       id="path170"
       style="fill:url(#ab)" />
    <path
       d="m 681.53,658.21 c 56.975,-74.284 109.45,-92.714 152.44,6.308 21.572,94.887 28.295,191.17 -38.899,294.37 -29.263,42.427 -63.128,73.677 -119.85,49.413 -57.63,-78.687 -59.394,-192.92 6.308,-350.09 z"
       fill="url(#ac)"
       opacity="0.3939"
       id="path172"
       style="fill:url(#ac)" />
    <path
       d="m 678.55,662.67 c 56.975,-74.284 109.45,-92.714 152.44,6.308 21.572,94.887 28.295,191.17 -38.899,294.37 -29.263,42.427 -63.128,73.677 -119.85,49.413 -57.63,-78.687 -59.394,-192.92 6.308,-350.09 z"
       fill="url(#ad)"
       id="path174"
       style="fill:url(#ad)" />
    <path
       transform="matrix(0.98095,0.02196,-0.10578,0.74067,392.5,-837.35)"
       d="m 672.86,2208.8 a 53.571,135 0 1 1 -1.7815,-34.525"
       id="path176" />
    <path
       transform="matrix(0.84968,0.01902,-0.09163,0.64155,442.52,-616.61)"
       d="m 672.86,2208.8 a 53.571,135 0 1 1 -1.7815,-34.525"
       fill="#4d4d4d"
       id="path178" />
    <path
       transform="matrix(0.71474,0,0,0.73593,344.25,-815.39)"
       d="m 437.14,1803.6 c -1.5643,45.405 -8.8549,87.231 -42.426,112.63 -54.74,85.375 -110.93,169.85 -117.18,285.37 17.509,7.4078 35.019,8.0812 52.528,2.0203 16.109,-98.929 36.729,-197.4 130.81,-288.4 64.398,-59.286 114.97,-48.46 160.61,-12.627 26.146,29.874 47.258,62.893 62.629,99.5 -8.8331,-41.248 -20.004,-82.496 -67.175,-123.74 -16.832,-10.122 -16.455,-42.146 -19.193,-70.206 h -118.69 z"
       filter="url(#ae)"
       id="path180" />
    <path
       d="m 657.34,501.39 c -1.1512,33.415 -6.5166,64.197 -31.223,82.89 -40.285,62.831 -81.639,125 -86.235,210.01 12.886,5.4517 25.771,5.9472 38.657,1.4868 11.855,-72.805 27.03,-145.27 96.271,-212.24 47.393,-43.631 84.612,-35.664 118.2,-9.2926 19.241,21.985 34.779,46.285 46.091,73.225 -6.5006,-30.356 -14.722,-60.711 -49.437,-91.067 -12.387,-7.449 -12.11,-31.016 -14.125,-51.667 h -87.35 z"
       fill="#4d4d4d"
       id="path182" />
    <path
       d="m 657.34,501.39 c -1.1512,33.415 -6.5166,64.197 -31.223,82.89 -40.285,62.831 -81.639,125 -86.235,210.01 12.886,5.4517 25.771,5.9472 38.657,1.4868 11.855,-72.805 27.03,-145.27 96.271,-212.24 47.393,-43.631 84.612,-35.664 118.2,-9.2926 19.241,21.985 34.779,46.285 46.091,73.225 -6.5006,-30.356 -14.722,-60.711 -49.437,-91.067 -12.387,-7.449 -12.11,-31.016 -14.125,-51.667 h -87.35 z"
       fill="url(#r)"
       id="path184"
       style="fill:url(#r)" />
    <path
       d="m 657.34,501.39 c -1.1512,33.415 -6.5166,64.197 -31.223,82.89 -40.285,62.831 -81.639,125 -86.235,210.01 12.886,5.4517 25.771,5.9472 38.657,1.4868 11.855,-72.805 27.03,-145.27 96.271,-212.24 47.393,-43.631 84.612,-35.664 118.2,-9.2926 19.241,21.985 34.779,46.285 46.091,73.225 -6.5006,-30.356 -14.722,-60.711 -49.437,-91.067 -12.387,-7.449 -12.11,-31.016 -14.125,-51.667 h -87.35 z"
       fill="url(#aa)"
       id="path186"
       style="fill:url(#aa)" />
    <g
       transform="matrix(0.73593,0,0,0.73593,362.97,-712.36)"
       id="g192">
      <path
         d="m 445.34,1649.2 2.6628,13.284 8.5863,-6.0609 -0.6066,-12.988 z"
         fill="#333333"
         id="path188" />
      <path
         d="m 454.55,1642 2.5402,13.912 72.226,4.5457 -3.2904,-14.223 z"
         fill="#999999"
         id="path190" />
    </g>
    <path
       d="m 657.34,501.4 c -1.059,30.738 -5.7004,59.226 -25.666,78.147 5.9977,10.636 14.908,16.402 39.418,-3.8177 17.437,-20.971 17.734,-45.377 15.616,-70.259 l -4.9216,-1.4259 -24.447,-2.6448 z"
       fill="url(#f)"
       id="path194"
       style="fill:url(#f)" />
    <path
       transform="matrix(0.71578,0.01603,-0.07719,0.54046,493.55,-391.45)"
       d="m 672.86,2208.8 a 53.571,135 0 1 1 -1.7815,-34.525"
       id="path196" />
    <path
       transform="matrix(0.71578,0.01603,-0.07719,0.54046,493.55,-391.45)"
       d="m 672.86,2208.8 a 53.571,135 0 1 1 -1.7815,-34.525"
       fill="url(#s)"
       id="path198"
       style="fill:url(#s)" />
    <path
       d="m 178.01,375.28 c -13.061,26.547 -14.98,51.327 -15.064,75.824 l 21.549,-0.78193 c -0.97649,-19.694 0.78448,-39.547 11.568,-59.933 l -18.053,-15.11 z"
       fill="url(#j)"
       id="path200"
       style="fill:url(#j)" />
    <path
       d="m 188.59,453.52 -24.125,3.6336 c 0.95832,17.69 2.4156,35.48 -11.384,50.711 8.2984,2.6202 17.728,2.1864 33.531,-15.501 l 1.9778,-38.844 z"
       fill="url(#i)"
       id="path202"
       style="fill:url(#i)" />
    <path
       d="m 182.41,359.63 19.975,15.77 81.478,5.7823 c 34.921,-100.43 113.47,-144.31 201.38,-176.04 77.224,33.448 124.59,106.25 158.35,197 l 31.966,-15.612 72.11,4.4604 c -6.499,-3.9424 -14.855,-7.1417 -11.894,-14.868 -59.105,-137.47 -159.33,-226.12 -344.94,-213.36 -88.714,25.012 -154.62,83.532 -194.77,179.9 -1.9732,9.9496 -5.753,16.888 -13.652,16.961 z"
       fill="url(#h)"
       id="path204"
       style="fill:url(#h)" />
    <path
       d="m 675.18,403.27 c -12.459,4.7356 -20.596,11.624 -27.138,19.318 7.821,22.917 15.002,46.051 11.154,72.858 9.7383,5.5874 20.865,6.9903 32.565,6.6924 7.933,-31.869 3.547,-64.757 -12.948,-98.661 l -3.6337,-0.20701 z"
       fill="url(#g)"
       id="path206"
       style="fill:url(#g)" />
  </g>
</svg>
