<?xml version="1.0" encoding="UTF-8" standalone="no"?>
<svg
   xmlns:dc="http://purl.org/dc/elements/1.1/"
   xmlns:cc="http://creativecommons.org/ns#"
   xmlns:rdf="http://www.w3.org/1999/02/22-rdf-syntax-ns#"
   xmlns:svg="http://www.w3.org/2000/svg"
   xmlns="http://www.w3.org/2000/svg"
   xmlns:sodipodi="http://sodipodi.sourceforge.net/DTD/sodipodi-0.dtd"
   xmlns:inkscape="http://www.inkscape.org/namespaces/inkscape"
   version="1.1"
   x="0"
   y="0"
   width="88mm"
   height="125mm"
   viewBox="0 0 332.59843 472.44094"
   id="svg176"
   sodipodi:docname="humid.svg"
   inkscape:version="1.0.2-2 (e86c870879, 2021-01-15)">
  <metadata
     id="metadata180">
    <rdf:RDF>
      <cc:Work
         rdf:about="">
        <dc:format>image/svg+xml</dc:format>
        <dc:type
           rdf:resource="http://purl.org/dc/dcmitype/StillImage" />
        <dc:title></dc:title>
      </cc:Work>
    </rdf:RDF>
  </metadata>
  <sodipodi:namedview
     pagecolor="#ffffff"
     bordercolor="#666666"
     borderopacity="1"
     objecttolerance="10"
     gridtolerance="10"
     guidetolerance="10"
     inkscape:pageopacity="0"
     inkscape:pageshadow="2"
     inkscape:window-width="1920"
     inkscape:window-height="1017"
     id="namedview178"
     showgrid="false"
     fit-margin-top="0"
     fit-margin-left="0"
     fit-margin-right="0"
     fit-margin-bottom="0"
     inkscape:zoom="1.1363637"
     inkscape:cx="39.638503"
     inkscape:cy="174.49818"
     inkscape:window-x="-8"
     inkscape:window-y="-8"
     inkscape:window-maximized="1"
     inkscape:current-layer="g173"
     inkscape:document-rotation="0"
     units="mm" />
  <defs
     id="defs5">
    <clipPath
       id="Clip_1">
      <path
         d="M 361.897,-0.958 V 372.885 H 0.316 V -0.958 Z"
         id="path2" />
    </clipPath>
  </defs>
  <g
     id="Layer_1"
     transform="translate(-2.2590923,-2.8635514)">
    <g
       clip-path="url(#Clip_1)"
       id="g173">
      <path
         d="M 260.58811,141.29456 C 256.11411,87.869528 226.59739,36.081078 166.41497,38.026056 106.23164,36.081078 76.714912,87.869528 72.240917,141.29456 c -4.671404,55.7712 1.766673,101.4336 37.059203,102.79818 14.15976,0.54674 17.41383,-3.33412 17.41383,-3.33412 l 39.70102,-6.64367 39.70011,6.64367 c 0,0 3.25497,3.88086 17.41474,3.33412 35.29252,-1.36458 41.72969,-47.02698 37.05829,-102.79818"
         fill="#a79275"
         id="path11"
         style="stroke-width:0.909718" />
      <path
         d="M 260.58811,141.29456 C 256.11411,87.869528 226.59739,36.081078 166.41497,38.026056 106.23164,36.081078 76.714912,87.869528 72.240917,141.29456 c -4.671404,55.7712 1.766673,101.4336 37.059203,102.79818 14.15976,0.54674 17.41383,-3.33412 17.41383,-3.33412 l 39.70102,-6.64367 39.70011,6.64367 c 0,0 3.25497,3.88086 17.41474,3.33412 35.29252,-1.36458 41.72969,-47.02698 37.05829,-102.79818 z"
         fill-opacity="0"
         stroke="#797979"
         stroke-width="3.33958"
         stroke-linecap="round"
         stroke-linejoin="round"
         id="path13"
         style="stroke:#000000;stroke-opacity:1" />
      <path
         d="m 126.71395,240.75862 c 0,0 -23.99201,4.24111 -30.873118,-25.47393"
         fill-opacity="0"
         stroke="#797979"
         stroke-width="3.33958"
         stroke-linecap="round"
         stroke-linejoin="round"
         id="path15"
         style="stroke:#000000;stroke-opacity:1" />
      <path
         d="m 206.11508,240.75862 c 0,0 23.992,4.24111 30.87402,-25.47393"
         fill-opacity="0"
         stroke="#797979"
         stroke-width="3.33958"
         stroke-linecap="round"
         stroke-linejoin="round"
         id="path17"
         style="stroke:#000000;stroke-opacity:1" />
      <path
         d="m 194.94101,251.55425 c 0,0 0.0664,-1.16535 -4.9798,-3.94909 -5.04803,-2.78373 -15.62533,-6.62366 -22.0634,-6.26887 -1.47375,0.0819 -2.35708,0.14465 -2.37892,0.14556 -0.0209,9.1e-4 -0.92154,0.0355 -2.39528,0.11189 -6.4399,0.33751 -16.54414,5.29002 -21.26376,8.59957 -4.71962,3.30774 -4.52767,4.45944 -4.52767,4.45944 0.26837,6.09603 5.81765,21.74227 5.81765,21.74227 l 24.1694,-1.29999 24.1694,-1.29998 c 0,0 3.8381,-16.15114 3.45238,-22.2408"
         fill="#ffffff"
         id="path19"
         style="stroke-width:0.909718" />
      <path
         d="m 194.94101,251.55425 c 0,0 0.0664,-1.16535 -4.9798,-3.94909 -5.04803,-2.78373 -15.62533,-6.62366 -22.0634,-6.26887 -1.47375,0.0819 -2.35708,0.14465 -2.37892,0.14556 -0.0209,9.1e-4 -0.92154,0.0355 -2.39528,0.11189 -6.4399,0.33751 -16.54414,5.29002 -21.26376,8.59957 -4.71962,3.30774 -4.52767,4.45944 -4.52767,4.45944 0.26837,6.09603 5.81765,21.74227 5.81765,21.74227 l 24.1694,-1.29999 24.1694,-1.29998 c 0,0 3.8381,-16.15114 3.45238,-22.2408 z"
         fill-opacity="0"
         stroke="#797979"
         stroke-width="3.63887"
         stroke-linecap="round"
         stroke-linejoin="round"
         id="path21" />
      <path
         d="m 177.60632,243.55692 -4.04915,-2.34162 -1.23813,-13.08175 -5.90407,-3.83901 -5.90408,3.83901 -1.23903,13.08175 -4.04916,2.34162 c 0,7.70258 11.19227,38.57752 11.19227,38.57752 0,0 11.19135,-30.70118 11.19135,-38.57752"
         fill="#ffefd9"
         id="path23"
         style="stroke-width:0.909718" />
      <path
         d="m 177.60632,243.55692 -4.04915,-2.34162 -1.23813,-13.08175 -5.90407,-3.83901 -5.90408,3.83901 -1.23903,13.08175 -4.04916,2.34162 c 0,7.70258 11.19227,38.57752 11.19227,38.57752 0,0 11.19135,-30.70118 11.19135,-38.57752 z"
         fill-opacity="0"
         stroke="#797979"
         stroke-width="3.63887"
         stroke-linecap="round"
         stroke-linejoin="round"
         id="path25"
         style="stroke:#000000;stroke-opacity:1" />
      <path
         d="m 142.32926,248.88514 c -3.34139,0.92882 -29.12827,31.34617 -31.74189,34.9723 L 78.518883,257.75489 63.693202,263.5589 c 0,0 33.353916,34.88497 39.470858,39.38353 11.56435,8.50495 19.69814,-4.52585 23.05773,-8.65779 1.25632,-1.54471 16.12567,-18.36631 18.98218,-21.87964"
         fill="#ffefd9"
         id="path27"
         style="stroke-width:0.909718" />
      <path
         d="m 142.32926,248.88514 c -3.34139,0.92882 -29.12827,31.34617 -31.74189,34.9723 L 78.518883,257.75489 63.693202,263.5589 c 0,0 33.353916,34.88497 39.470858,39.38353 11.56435,8.50495 19.69814,-4.52585 23.05773,-8.65779 1.25632,-1.54471 16.12567,-18.36631 18.98218,-21.87964"
         fill-opacity="0"
         stroke="#797979"
         stroke-width="3.63887"
         stroke-linecap="round"
         stroke-linejoin="round"
         id="path29"
         style="stroke:#000000;stroke-opacity:1" />
      <path
         d="m 214.35258,329.23511 -6.61184,-16.53232 28.85718,-8.8179 12.61962,10.23979 z"
         fill="#ffefd9"
         id="path31"
         style="stroke-width:0.909718" />
      <path
         d="m 214.35258,329.23511 -6.61184,-16.53232 28.85718,-8.8179 12.61962,10.23979 z"
         fill-opacity="0"
         stroke="#797979"
         stroke-width="3.63887"
         stroke-linecap="round"
         stroke-linejoin="round"
         id="path33"
         style="stroke:#000000;stroke-opacity:1" />
      <path
         d="m 185.85747,271.97652 15.04492,45.66332 c 0,0 1.93224,6.9557 9.52475,6.9557 3.44602,0 8.83883,-6.36803 8.83883,-6.36803 -4.94978,-18.52914 -21.13094,-65.46606 -25.92243,-68.12699 l -1.04527,-0.47032"
         fill="#ffefd9"
         id="path35"
         style="stroke-width:0.909718" />
      <path
         d="m 185.85747,271.97652 15.04492,45.66332 c 0,0 1.93224,6.9557 9.52475,6.9557 3.44602,0 8.83883,-6.36803 8.83883,-6.36803 -4.94978,-18.52914 -21.13094,-65.46606 -25.92243,-68.12699 l -1.04527,-0.47032"
         fill-opacity="0"
         stroke="#797979"
         stroke-width="3.63887"
         stroke-linecap="round"
         stroke-linejoin="round"
         id="path37"
         style="stroke:#000000;stroke-opacity:1" />
      <path
         d="m 183.75056,244.39204 c 0,0 15.58257,-0.42666 18.19983,4.05643 6.48174,11.1013 17.01537,23.56262 17.01537,23.56262 l -26.89855,21.01359 -5.41556,-20.43865"
         fill="#ffffff"
         id="path39"
         style="stroke-width:0.909718" />
      <path
         d="m 183.75056,244.39204 c 0,0 15.58257,-0.42666 18.19983,4.05643 6.48174,11.1013 17.01537,23.56262 17.01537,23.56262 l -26.89855,21.01359 -5.41556,-20.43865"
         fill-opacity="0"
         stroke="#797979"
         stroke-width="3.63887"
         stroke-linecap="round"
         stroke-linejoin="round"
         id="path41"
         style="stroke:#000000;stroke-opacity:1" />
      <path
         d="m 149.07846,244.39204 c 0,0 -15.58256,-0.42666 -18.19982,4.05643 -6.48175,11.1013 -17.01538,23.56262 -17.01538,23.56262 l 23.90467,18.67288 8.41035,-18.09794"
         fill="#ffffff"
         id="path43"
         style="stroke-width:0.909718" />
      <path
         d="m 149.07846,244.39204 c 0,0 -15.58256,-0.42666 -18.19982,4.05643 -6.48175,11.1013 -17.01538,23.56262 -17.01538,23.56262 l 23.90467,18.67288 8.41035,-18.09794"
         fill-opacity="0"
         stroke="#797979"
         stroke-width="3.63887"
         stroke-linecap="round"
         stroke-linejoin="round"
         id="path45"
         style="stroke:#000000;stroke-opacity:1" />
      <path
         style="fill:#000000;fill-opacity:1;stroke:#000000;stroke-width:0.900458px;stroke-linecap:butt;stroke-linejoin:miter;stroke-opacity:1"
         d="m 125.19578,372.71159 9.39571,-36.96853 63.56985,0.61914 8.36693,36.44711 z"
         id="path1005" />
      <path
         d="m 143.55829,269.372 -5.15264,50.85689 -3.68527,14.6401 63.38736,0.6359 -3.75077,-15.276 -5.15265,-50.85689"
         fill="#ffffff"
         id="path51"
         style="stroke-width:0.909718" />
      <path
         d="m 143.55829,269.372 -5.15264,50.85689 -3.68527,14.6401 63.38736,0.6359 -3.75077,-15.276 -5.15265,-50.85689"
         fill-opacity="0"
         stroke="#797979"
         stroke-width="3.63887"
         stroke-linecap="round"
         stroke-linejoin="round"
         id="path53"
         style="stroke:#000000;stroke-opacity:1" />
      <path
         d="m 155.25818,256.97526 c 0,5.02256 11.19227,25.15918 11.19227,25.15918 0,0 11.19226,-20.02291 11.19226,-25.15918"
         fill="#ffefd9"
         id="path59"
         style="stroke-width:0.909718" />
      <path
         d="m 159.30734,241.2153 -8.74877,2.18878 -9.99962,19.10136 14.56823,-4.92794 11.32872,24.3004 -8.15744,-34.46924 z"
         fill="#ffffff"
         id="path63"
         style="stroke-width:0.909718" />
      <path
         d="m 159.30734,241.2153 -8.74877,2.18878 -9.99962,19.10136 14.56823,-4.92794 11.32872,24.3004 -8.15744,-34.46924 z"
         fill-opacity="0"
         stroke="#797979"
         stroke-width="3.63887"
         stroke-linecap="round"
         stroke-linejoin="round"
         id="path65"
         style="stroke:#000000;stroke-opacity:1" />
      <path
         d="m 173.52169,241.2153 8.75058,2.18878 9.99871,19.10136 -14.56823,-4.92794 -11.32872,24.3004 8.15744,-34.46924 z"
         fill="#ffffff"
         id="path67"
         style="stroke-width:0.909718" />
      <path
         d="m 173.52169,241.2153 8.75058,2.18878 9.99871,19.10136 -14.56823,-4.92794 -11.32872,24.3004 8.15744,-34.46924 z"
         fill-opacity="0"
         stroke="#797979"
         stroke-width="3.63887"
         stroke-linecap="round"
         stroke-linejoin="round"
         id="path69"
         style="stroke:#000000;stroke-opacity:1" />
      <path
         d="m 101.72398,149.25915 c 0,0 -25.600385,-5.28365 -25.600385,17.86323 0,13.61575 8.812442,19.7982 26.932215,20.05747"
         fill="#ffefd9"
         id="path71"
         style="stroke-width:0.909718" />
      <path
         d="m 101.72398,149.25915 c 0,0 -25.600385,-5.28365 -25.600385,17.86323 0,13.61575 8.812442,19.7982 26.932215,20.05747"
         fill-opacity="0"
         stroke="#797979"
         stroke-width="3.63887"
         stroke-linecap="round"
         stroke-linejoin="round"
         id="path73"
         style="stroke:#000000;stroke-opacity:1" />
      <path
         d="m 85.878505,168.37506 c 0,0 3.355952,-1.55016 6.554521,-1.53015"
         fill="#ffefd9"
         id="path75"
         style="stroke-width:0.909718" />
      <path
         d="m 85.878505,168.37506 c 0,0 3.355952,-1.55016 6.554521,-1.53015"
         fill-opacity="0"
         stroke="#797979"
         stroke-width="3.63887"
         stroke-linecap="round"
         stroke-linejoin="round"
         id="path77"
         style="stroke:#000000;stroke-opacity:1" />
      <path
         d="m 231.10413,149.25915 c 0,0 25.60221,-5.28365 25.60221,17.86323 0,13.61575 -8.81517,19.7982 -26.93494,20.05747"
         fill="#ffefd9"
         id="path79"
         style="stroke-width:0.909718" />
      <path
         d="m 231.10413,149.25915 c 0,0 25.60221,-5.28365 25.60221,17.86323 0,13.61575 -8.81517,19.7982 -26.93494,20.05747"
         fill-opacity="0"
         stroke="#797979"
         stroke-width="3.63887"
         stroke-linecap="round"
         stroke-linejoin="round"
         id="path81"
         style="stroke:#000000;stroke-opacity:1" />
      <path
         d="m 246.94961,168.37506 c 0,0 -3.35595,-1.55016 -6.55452,-1.53015"
         fill="#ffefd9"
         id="path83"
         style="stroke-width:0.909718" />
      <path
         d="m 246.94961,168.37506 c 0,0 -3.35595,-1.55016 -6.55452,-1.53015"
         fill-opacity="0"
         stroke="#797979"
         stroke-width="3.63887"
         stroke-linecap="round"
         stroke-linejoin="round"
         id="path85"
         style="stroke:#000000;stroke-opacity:1" />
      <path
         d="m 166.41406,237.0961 c -109.857599,0 -99.228449,-179.166315 0,-179.166315 99.22935,0 109.8585,179.166315 0,179.166315"
         fill="#ffefd9"
         id="path87"
         style="stroke-width:0.909718" />
      <path
         d="m 166.41406,237.0961 c -109.857599,0 -99.228449,-179.166315 0,-179.166315 99.22935,0 109.8585,179.166315 0,179.166315 z"
         fill-opacity="0"
         stroke="#797979"
         stroke-width="3.63887"
         stroke-linecap="round"
         stroke-linejoin="round"
         id="path89"
         style="stroke:#000000;stroke-opacity:1" />
      <path
         d="m 110.91669,74.979727 c -0.25291,18.755665 16.73881,26.816683 39.41627,29.536733 22.67928,2.72097 75.9151,-1.5547 92.11445,6.6082 0,0 -6.30071,-68.044209 -90.57884,-68.044209 -27.08414,0 -40.7099,14.065157 -40.95188,31.899276"
         fill="#a79275"
         id="path91"
         style="stroke-width:0.909718" />
      <path
         d="m 119.29792,54.214495 c -5.48196,5.550192 -8.27298,12.779724 -8.38123,20.765232 -0.25291,18.755665 16.73881,26.816683 39.41627,29.536733 22.67928,2.72097 75.9151,-1.5547 92.11445,6.6082"
         fill-opacity="0"
         stroke="#797979"
         stroke-width="3.2486"
         stroke-linecap="round"
         stroke-linejoin="round"
         id="path93"
         style="stroke:#000000;stroke-opacity:1" />
      <path
         d="m 149.65613,61.766067 c 0,0 -6.64276,32.128526 15.10042,42.102683"
         fill-opacity="0"
         stroke="#797979"
         stroke-width="3.17674"
         stroke-linecap="round"
         stroke-linejoin="round"
         id="path95"
         style="stroke:#000000;stroke-opacity:1" />
      <path
         d="m 170.57966,72.648119 c 0,0 4.22291,22.181664 16.89438,32.271351"
         fill-opacity="0"
         stroke="#797979"
         stroke-width="3.17674"
         stroke-linecap="round"
         stroke-linejoin="round"
         id="path97"
         style="stroke:#000000;stroke-opacity:1" />
      <path
         d="m 162.84978,182.96057 c 0,0 -1.21265,5.45831 3.56519,5.15538"
         fill-opacity="0"
         stroke="#797979"
         stroke-width="3.63887"
         stroke-linecap="round"
         stroke-linejoin="round"
         id="path99"
         style="stroke:#000000;stroke-opacity:1" />
      <path
         d="m 170.11934,196.08963 c -0.8988,-0.52946 -1.98228,-0.85241 -3.26953,-0.91336 -0.0437,-0.003 -0.0864,-0.0118 -0.12918,-0.0136 -0.10644,-0.003 -0.20287,0.005 -0.30657,0.005 -0.10371,0 -0.20014,-0.008 -0.30658,-0.005 -0.0428,0.002 -0.0864,0.0109 -0.13009,0.0136 -1.28725,0.061 -2.36981,0.3839 -3.26862,0.91336 -8.39943,4.18016 -15.26143,21.30833 -10.70192,24.61152 7.03212,5.09533 7.17586,-3.09122 14.40721,-3.09122 7.23135,0 7.37417,8.18655 14.40721,3.09122 4.5586,-3.30319 -2.30341,-20.43136 -10.70193,-24.61152"
         fill="#f4aca6"
         id="path101"
         style="fill:#f491a6;fill-opacity:1;stroke-width:0.909718" />
      <path
         d="m 170.11934,196.08963 c -0.8988,-0.52946 -1.98228,-0.85241 -3.26953,-0.91336 -0.0437,-0.003 -0.0864,-0.0118 -0.12918,-0.0136 -0.10644,-0.003 -0.20287,0.005 -0.30657,0.005 -0.10371,0 -0.20014,-0.008 -0.30658,-0.005 -0.0428,0.002 -0.0864,0.0109 -0.13009,0.0136 -1.28725,0.061 -2.36981,0.3839 -3.26862,0.91336 -8.39943,4.18016 -15.26143,21.30833 -10.70192,24.61152 7.03212,5.09533 7.17586,-3.09122 14.40721,-3.09122 7.23135,0 7.37417,8.18655 14.40721,3.09122 4.5586,-3.30319 -2.30341,-20.43136 -10.70193,-24.61152 z"
         fill-opacity="0"
         stroke="#797979"
         stroke-width="3.63887"
         stroke-linecap="round"
         stroke-linejoin="round"
         id="path103"
         style="stroke:#e2465b;stroke-opacity:1" />
      <path
         d="m 204.54308,152.71153 c 0,6.93842 -2.30795,12.56321 -5.15628,12.56321 -2.84833,0 -5.15628,-5.62479 -5.15628,-12.56321 0,-6.93843 2.30795,-12.5614 5.15628,-12.5614 2.84833,0 5.15628,5.62297 5.15628,12.5614"
         fill="#797979"
         id="path105"
         style="fill:#000000;fill-opacity:1;stroke-width:0.909718" />
      <path
         d="m 126.09443,159.40887 c 0,0 9.5666,-0.40846 13.9942,-6.74283 -5.35188,0.77235 -14.90392,-2.73461 -14.90392,-2.73461"
         fill-opacity="0"
         stroke="#797979"
         stroke-width="3.63887"
         stroke-linecap="round"
         stroke-linejoin="round"
         id="path107"
         style="stroke:#000000;stroke-opacity:1" />
      <path
         d="m 112.18119,178.58938 c 0,0 -2.58996,14.54276 1.56472,20.98993 3.62523,5.62479 9.41195,3.7817 8.7897,-3.37233 -0.31022,-3.57974 -1.78305,-5.68028 -1.78305,-5.68028"
         fill="#b4e2eb"
         id="path109"
         style="fill:#73e2eb;fill-opacity:1;stroke-width:0.909718" />
      <path
         d="m 228.65335,163.60722 c 0,0 -8.0783,12.36672 -6.78013,19.92557 1.1326,6.59455 7.17859,7.16585 9.4074,0.33932 1.11622,-3.41508 0.58495,-5.92408 0.58495,-5.92408"
         fill="#b4e2eb"
         id="path113"
         style="fill:#73e2eb;fill-opacity:1;stroke-width:0.909718" />
      <path
         d="m 124.01117,119.13928 c 0,0 11.97826,-1.76031 17.28465,-7.27775"
         fill-opacity="0"
         stroke="#797979"
         stroke-width="3.63887"
         stroke-linecap="round"
         stroke-linejoin="round"
         id="path117"
         style="stroke:#000000;stroke-opacity:1" />
      <path
         d="m 208.81603,119.13928 c 0,0 -11.97826,-1.76031 -17.28465,-7.27775"
         fill-opacity="0"
         stroke="#797979"
         stroke-width="3.63887"
         stroke-linecap="round"
         stroke-linejoin="round"
         id="path119"
         style="stroke:#000000;stroke-opacity:1" />
      <path
         d="m 69.010507,269.09089 -1.945888,-2.01047 c -1.926784,-1.26633 -3.849928,-3.21677 -4.787848,-6.0369 -1.049815,-3.1549 -0.571303,-3.43145 -0.593137,-5.74032 -0.124631,-12.90435 6.876562,-20.34949 12.555024,-29.70412 5.682101,-9.35646 17.496614,-17.78682 26.936762,-11.25504 6.52905,4.51675 2.378,13.89959 -2.468975,20.50414 -4.84698,6.61184 -7.457872,11.2796 -7.457872,11.2796 0,0 -2.559038,9.63028 -7.095804,16.21391 l 4.274767,3.47786"
         fill="#ffefd9"
         id="path121"
         style="stroke-width:0.909718" />
      <path
         d="m 69.010507,269.09089 -1.945888,-2.01047 c -1.926784,-1.26633 -3.849928,-3.21677 -4.787848,-6.0369 -1.049815,-3.1549 -0.571303,-3.43145 -0.593137,-5.74032 -0.124631,-12.90435 6.876562,-20.34949 12.555024,-29.70412 5.682101,-9.35646 17.496614,-17.78682 26.936762,-11.25504 6.52905,4.51675 2.378,13.89959 -2.468975,20.50414 -4.84698,6.61184 -7.457872,11.2796 -7.457872,11.2796 0,0 -2.559038,9.63028 -7.095804,16.21391 l 4.274767,3.47786"
         fill-opacity="0"
         stroke="#797979"
         stroke-width="3.63887"
         stroke-linecap="round"
         stroke-linejoin="round"
         id="path123"
         style="stroke:#000000;stroke-opacity:1" />
      <path
         d="m 104.09835,224.26361 c 0,0 -4.554964,-0.4676 -9.356458,2.43804 -4.799675,2.90655 -9.01349,8.09013 -9.01349,8.09013"
         fill="#ffefd9"
         id="path125"
         style="stroke-width:0.909718" />
      <path
         d="m 104.09835,224.26361 c 0,0 -4.554964,-0.4676 -9.356458,2.43804 -4.799675,2.90655 -9.01349,8.09013 -9.01349,8.09013"
         fill-opacity="0"
         stroke="#797979"
         stroke-width="3.63887"
         stroke-linecap="round"
         stroke-linejoin="round"
         id="path127"
         style="stroke:#000000;stroke-opacity:1" />
      <path
         d="m 102.63461,215.63129 c 0,0 -6.348926,-1.48375 -12.161117,2.88927 -4.966153,3.73894 -6.482653,4.90065 -6.482653,4.90065"
         fill="#ffefd9"
         id="path129"
         style="stroke-width:0.909718" />
      <path
         d="m 102.63461,215.63129 c 0,0 -6.348926,-1.48375 -12.161117,2.88927 -4.966153,3.73894 -6.482653,4.90065 -6.482653,4.90065"
         fill-opacity="0"
         stroke="#797979"
         stroke-width="3.63887"
         stroke-linecap="round"
         stroke-linejoin="round"
         id="path131"
         style="stroke:#000000;stroke-opacity:1" />
      <path
         d="m 229.62129,251.43599 c -2.17059,-3.25861 -5.64662,-5.86496 -5.64662,-6.62639 v -4.90156 h -13.57664 v 4.90156 c 0,0.76143 -3.47512,3.36778 -5.64844,6.62639 -2.17059,3.2577 -4.8861,7.0585 -4.8861,12.05559 v 63.64299 c 0,7.16585 3.58702,12.12472 6.19337,12.12472 2.60634,0 3.79898,-3.00207 3.79898,-3.00207 l 1.95589,0.10826 c 0,0 0.2147,1.73756 0.65045,2.82286 0.43485,1.0862 1.84673,2.38983 3.04119,2.38983 h 3.36596 c 1.19446,0 2.60634,-1.30363 3.0421,-2.38983 0.43393,-1.0853 0.65045,-2.82286 0.65045,-2.82286 l 1.95589,-0.10826 c 0,0 1.19082,3.00207 3.79899,3.00207 2.60452,0 6.19245,-4.95887 6.19245,-12.12472 v -63.64299 c 0,-4.99709 -2.71551,-8.79789 -4.88792,-12.05559"
         fill="#ebfcff"
         id="path133"
         style="stroke-width:0.909718" />
      <path
         d="m 229.62129,251.43599 c -2.17059,-3.25861 -5.64662,-5.86496 -5.64662,-6.62639 v -4.90156 h -13.57664 v 4.90156 c 0,0.76143 -3.47512,3.36778 -5.64844,6.62639 -2.17059,3.2577 -4.8861,7.0585 -4.8861,12.05559 v 63.64299 c 0,7.16585 3.58702,12.12472 6.19337,12.12472 2.60634,0 3.79898,-3.00207 3.79898,-3.00207 l 1.95589,0.10826 c 0,0 0.2147,1.73756 0.65045,2.82286 0.43485,1.0862 1.84673,2.38983 3.04119,2.38983 h 3.36596 c 1.19446,0 2.60634,-1.30363 3.0421,-2.38983 0.43393,-1.0853 0.65045,-2.82286 0.65045,-2.82286 l 1.95589,-0.10826 c 0,0 1.19082,3.00207 3.79899,3.00207 2.60452,0 6.19245,-4.95887 6.19245,-12.12472 v -63.64299 c 0,-4.99709 -2.71551,-8.79789 -4.88792,-12.05559 z"
         fill-opacity="0"
         stroke="#797979"
         stroke-width="3.63887"
         stroke-linecap="round"
         stroke-linejoin="round"
         id="path135" />
      <path
         d="m 217.23821,236.94872 c -0.9352,0 -9.12994,0.0591 -9.12994,2.13511 0,2.07507 8.19474,2.1342 9.12994,2.1342 0.93337,0 9.12902,-0.0591 9.12902,-2.1342 0,-2.07598 -8.19565,-2.13511 -9.12902,-2.13511"
         fill="#ffffff"
         id="path137"
         style="stroke-width:0.909718" />
      <path
         d="m 217.23821,236.94872 c -0.9352,0 -9.12994,0.0591 -9.12994,2.13511 0,2.07507 8.19474,2.1342 9.12994,2.1342 0.93337,0 9.12902,-0.0591 9.12902,-2.1342 0,-2.07598 -8.19565,-2.13511 -9.12902,-2.13511 z"
         fill-opacity="0"
         stroke="#797979"
         stroke-width="3.63887"
         stroke-linecap="round"
         stroke-linejoin="round"
         id="path139" />
      <path
         d="m 224.98901,232.17634 c 0,-0.33296 -0.19104,-0.61224 -0.50854,-0.84695 -0.39845,-1.72028 -6.5245,-1.77122 -7.24226,-1.77122 -0.7205,0 -6.84564,0.0509 -7.24409,1.77122 -0.3184,0.23471 -0.51035,0.51399 -0.51035,0.84695 v 0.69866 c 0,0.252 0.10916,0.47215 0.29929,0.66774 -0.19013,0.19468 -0.29929,0.41574 -0.29929,0.66773 v 0.69957 c 0,0.34661 0.2156,0.63226 0.55856,0.87333 -0.0109,0.0246 -0.01,0.0537 -0.0191,0.0819 -0.32932,0.23743 -0.53946,0.51854 -0.53946,0.85786 v 2.15422 c 0,2.02412 6.96025,2.08143 7.75444,2.08143 0.79327,0 7.7508,-0.0573 7.7508,-2.08143 v -2.15422 c 0,-0.33932 -0.20833,-0.62043 -0.53856,-0.85786 -0.008,-0.0282 -0.008,-0.0573 -0.0182,-0.0819 0.34205,-0.24107 0.55675,-0.52581 0.55675,-0.87333 v -0.69957 c 0,-0.25199 -0.10735,-0.47305 -0.2993,-0.66773 0.19195,-0.19559 0.2993,-0.41574 0.2993,-0.66774 z"
         fill="#ebfcff"
         id="path141"
         style="stroke-width:0.909718" />
      <path
         d="m 224.98901,232.17634 c 0,-0.33296 -0.19104,-0.61224 -0.50854,-0.84695 -0.39845,-1.72028 -6.5245,-1.77122 -7.24226,-1.77122 -0.7205,0 -6.84564,0.0509 -7.24409,1.77122 -0.3184,0.23471 -0.51035,0.51399 -0.51035,0.84695 v 0.69866 c 0,0.252 0.10916,0.47215 0.29929,0.66774 -0.19013,0.19468 -0.29929,0.41574 -0.29929,0.66773 v 0.69957 c 0,0.34661 0.2156,0.63226 0.55856,0.87333 -0.0109,0.0246 -0.01,0.0537 -0.0191,0.0819 -0.32932,0.23743 -0.53946,0.51854 -0.53946,0.85786 v 2.15422 c 0,2.02412 6.96025,2.08143 7.75444,2.08143 0.79327,0 7.7508,-0.0573 7.7508,-2.08143 v -2.15422 c 0,-0.33932 -0.20833,-0.62043 -0.53856,-0.85786 -0.008,-0.0282 -0.008,-0.0573 -0.0182,-0.0819 0.34205,-0.24107 0.55675,-0.52581 0.55675,-0.87333 v -0.69957 c 0,-0.25199 -0.10735,-0.47305 -0.2993,-0.66773 0.19195,-0.19559 0.2993,-0.41574 0.2993,-0.66774 z"
         fill-opacity="0"
         stroke="#797979"
         stroke-width="3.63887"
         stroke-linecap="round"
         stroke-linejoin="round"
         id="path143" />
      <path
         d="m 217.21091,265.49205 c -1.77304,0 -17.32194,-0.1119 -17.32194,-4.05098 v 30.65114 c 0,3.93817 15.5489,4.05098 17.32194,4.05098 1.77486,0 17.32377,-0.11281 17.32377,-4.05098 v -30.65114 c 0,3.93908 -15.54891,4.05098 -17.32377,4.05098"
         fill="#addaff"
         id="path145"
         style="stroke-width:0.909718" />
      <path
         d="m 217.21091,265.49205 c -1.77304,0 -17.32194,-0.1119 -17.32194,-4.05098 v 30.65114 c 0,3.93817 15.5489,4.05098 17.32194,4.05098 1.77486,0 17.32377,-0.11281 17.32377,-4.05098 v -30.65114 c 0,3.93908 -15.54891,4.05098 -17.32377,4.05098 z"
         fill-opacity="0"
         stroke="#797979"
         stroke-width="3.63887"
         stroke-linecap="round"
         stroke-linejoin="round"
         id="path147" />
      <path
         d="m 239.69824,317.50065 c 0,0 17.50571,2.62636 19.25601,-20.98175 1.74939,-23.60628 -14.56368,-32.61613 -22.803,-28.19308 -5.99595,3.21858 -8.68781,25.20193 -0.56584,36.6189 0,0 -4.31207,9.77219 4.11283,12.55593"
         fill="#ffefd9"
         id="path149"
         style="stroke-width:0.909718" />
      <path
         d="m 239.69824,317.50065 c 0,0 17.50571,2.62636 19.25601,-20.98175 1.74939,-23.60628 -14.56368,-32.61613 -22.803,-28.19308 -5.99595,3.21858 -8.68781,25.20193 -0.56584,36.6189 0,0 -4.31207,9.77219 4.11283,12.55593 z"
         fill-opacity="0"
         stroke="#797979"
         stroke-width="3.63887"
         stroke-linecap="round"
         stroke-linejoin="round"
         id="path151"
         style="stroke:#000000;stroke-opacity:1" />
      <path
         d="m 243.5973,290.5557 c 0,0 -3.32684,-2.23518 -7.01848,-1.09803 -6.07146,1.86765 0,0 0,0"
         fill="#797979"
         id="path153"
         style="stroke-width:0.909718" />
      <path
         d="m 243.5973,290.5557 c 0,0 -3.32684,-2.23518 -7.01848,-1.09803 -6.07146,1.86765 0,0 0,0"
         fill-opacity="0"
         stroke="#797979"
         stroke-width="3.63887"
         stroke-linecap="round"
         stroke-linejoin="round"
         id="path155"
         style="stroke:#000000;stroke-opacity:1" />
      <path
         d="m 246.6494,281.29204 c 0,0 -2.68276,-4.14468 -9.46198,-3.55427 -10.55273,0.91972 0,0 0,0"
         fill="#797979"
         id="path157"
         style="stroke-width:0.909718" />
      <path
         d="m 246.6494,281.29204 c 0,0 -2.68276,-4.14468 -9.46198,-3.55427 -10.55273,0.91972 0,0 0,0"
         fill-opacity="0"
         stroke="#797979"
         stroke-width="3.63887"
         stroke-linecap="round"
         stroke-linejoin="round"
         id="path159"
         style="stroke:#000000;stroke-opacity:1" />
      <path
         d="m 59.194645,230.58524 c 0,0 -9.802216,5.58385 -10.933906,17.03539"
         fill-opacity="0"
         stroke="#797979"
         stroke-width="3.63887"
         stroke-linecap="round"
         stroke-linejoin="round"
         id="path161"
         style="stroke:#000000;stroke-opacity:1" />
      <path
         d="m 59.160076,217.28516 c -6.6555,3.00389 -19.180503,14.67831 -20.383151,30.74757"
         fill-opacity="0"
         stroke="#797979"
         stroke-width="3.63887"
         stroke-linecap="round"
         stroke-linejoin="round"
         id="path163"
         style="stroke:#000000;stroke-opacity:1" />
      <path
         d="m 21.222089,97.751799 c -8.919789,10.751961 -7.674385,30.205381 3.508784,39.335311 11.183168,9.12812 21.100918,12.15839 18.28443,25.4612 -2.816488,13.30099 2.64728,17.25645 8.112869,21.211"
         fill-opacity="0"
         stroke="#f9afa2"
         stroke-width="5.45831"
         stroke-linecap="round"
         stroke-linejoin="round"
         id="path165" />
      <path
         d="m 4.9945316,149.44473 c -0.1382772,8.29481 2.0104777,18.66014 13.1991044,23.33518 11.188627,4.67596 10.411727,14.37628 8.877942,20.41682 -1.535605,6.04234 2.527198,12.19568 8.756949,15.35422"
         fill-opacity="0"
         stroke="#f9afa2"
         stroke-width="5.45831"
         stroke-linecap="round"
         stroke-linejoin="round"
         id="path167" />
      <path
         d="m 309.02606,97.751799 c 8.9207,10.751961 7.6753,30.205381 -3.50787,39.335311 -11.18317,9.12812 -21.10092,12.15839 -18.28534,25.4612 2.8174,13.30099 -2.64728,17.25645 -8.11287,21.211"
         fill-opacity="0"
         stroke="#f9afa2"
         stroke-width="5.45831"
         stroke-linecap="round"
         stroke-linejoin="round"
         id="path169" />
      <path
         d="m 325.25362,149.44473 c 0.13919,8.29481 -2.01048,18.66014 -13.19819,23.33518 -11.18863,4.67596 -10.41264,14.37628 -8.87795,20.41682 1.5347,6.04234 -2.5281,12.19568 -8.75695,15.35422"
         fill-opacity="0"
         stroke="#f9afa2"
         stroke-width="5.45831"
         stroke-linecap="round"
         stroke-linejoin="round"
         id="path171" />
    </g>
  </g>
</svg>
