<?xml version="1.0" encoding="UTF-8" standalone="no"?>
<svg
   xmlns:dc="http://purl.org/dc/elements/1.1/"
   xmlns:cc="http://creativecommons.org/ns#"
   xmlns:rdf="http://www.w3.org/1999/02/22-rdf-syntax-ns#"
   xmlns:svg="http://www.w3.org/2000/svg"
   xmlns="http://www.w3.org/2000/svg"
   xmlns:sodipodi="http://sodipodi.sourceforge.net/DTD/sodipodi-0.dtd"
   xmlns:inkscape="http://www.inkscape.org/namespaces/inkscape"
   id="svg2"
   viewBox="0 0 317.1979 301.62964"
   version="1.0"
   inkscape:version="1.0.2-2 (e86c870879, 2021-01-15)"
   sodipodi:docname="ibis.svg"
   width="83.925278mm"
   height="79.806175mm">
  <defs
     id="defs9" />
  <sodipodi:namedview
     pagecolor="#ffffff"
     bordercolor="#666666"
     borderopacity="1"
     objecttolerance="10"
     gridtolerance="10"
     guidetolerance="10"
     inkscape:pageopacity="0"
     inkscape:pageshadow="2"
     inkscape:window-width="1920"
     inkscape:window-height="1017"
     id="namedview7"
     showgrid="false"
     inkscape:zoom="1.0029679"
     inkscape:cx="59.016643"
     inkscape:cy="-25.508259"
     inkscape:window-x="-8"
     inkscape:window-y="-8"
     inkscape:window-maximized="1"
     inkscape:current-layer="svg2"
     inkscape:document-rotation="0"
     units="mm" />
  <g
     id="layer1"
     transform="matrix(1.4623584,0,0,1.4623584,-446.30562,-609.21491)">
    <path
       id="path2221"
       style="fill:#000000"
       d="m 418.24,622.24 c -0.96,-0.34 -5.12,-0.73 -9.24,-0.86 -4.12,-0.14 -9.3,-0.31 -11.5,-0.38 -3.52,-0.12 -3.97,-0.41 -3.76,-2.39 0.21,-1.99 -0.21,-2.25 -3.69,-2.25 -4.2,0 -6.24,-1.49 -3.31,-2.41 3.46,-1.09 11.44,-0.92 12.17,0.27 0.55,0.89 1.81,0.8 5.14,-0.38 2.43,-0.85 7.62,-1.57 11.55,-1.59 l 7.14,-0.04 0.58,-8.17 c 0.32,-4.5 0.35,-13.8 0.07,-20.68 -0.72,-17.61 -0.82,-18.85 -1.49,-18.44 -0.33,0.21 -0.64,-0.98 -0.68,-2.64 -0.05,-1.65 -0.91,-4.28 -1.9,-5.84 -5.45,-8.49 -8.1,-12.1 -12.48,-17.03 -2.66,-2.99 -4.84,-5.87 -4.84,-6.38 0,-0.51 -0.82,-1.66 -1.81,-2.55 -4.56,-4.07 -13.63,-20.23 -14.75,-26.28 -0.34,-1.84 -0.6,-7.44 -0.58,-12.46 0.04,-7.88 0.58,-10.73 3.99,-21 2.17,-6.53 4.26,-14.26 4.64,-17.17 0.68,-5.1 0.59,-5.4 -2.71,-8.5 -1.87,-1.76 -5.81,-4.51 -8.75,-6.11 l -5.35,-2.89 -10.09,1.13 c -26.45,2.99 -42.18,10.8 -57.4,28.52 -3.96,4.6 -5.15,4.11 -2.78,-1.15 2.16,-4.8 12.88,-16.21 15.23,-16.21 0.36,0 2.95,-1.49 5.76,-3.31 9.8,-6.35 19.42,-9.59 39.1,-13.14 11.62,-2.1 14.26,-2.9 15.5,-4.71 3.44,-5 9.13,-9.77 12.39,-10.38 4.94,-0.93 13.74,1.18 16.81,4.02 4.23,3.93 5.15,8.42 4.49,21.95 -0.33,6.64 -1.26,14.19 -2.08,16.78 -0.82,2.59 -1.63,7.25 -1.8,10.35 l -0.31,5.64 7,1.87 c 3.85,1.03 9.02,2.33 11.5,2.89 7.68,1.75 12.4,3.35 15,5.07 1.38,0.91 3.85,2.33 5.5,3.14 9.05,4.49 14.66,7.66 20.37,11.52 3.5,2.37 6.79,4.31 7.31,4.31 1.13,0 6.68,4.01 12.41,8.97 2.26,1.94 7.59,6.01 11.87,9.03 12.16,8.61 20.64,15.47 19.55,15.83 -0.54,0.18 -2.18,-0.6 -3.64,-1.75 -1.45,-1.14 -3.26,-2.08 -4.02,-2.08 -0.77,0 -3.07,-1.06 -5.12,-2.35 -4.65,-2.93 -8.23,-4.13 -8.23,-2.75 0,0.56 1.8,1.51 4,2.1 2.35,0.64 4,1.68 4,2.54 0,0.84 0.96,1.48 2.25,1.49 1.24,0.02 3.1,0.68 4.15,1.47 1.51,1.15 1.65,1.73 0.7,2.88 -0.81,0.98 -0.86,1.65 -0.15,2.09 0.57,0.35 1.5,1.51 2.07,2.56 0.88,1.66 0.53,2.13 -2.54,3.42 -3.98,1.66 -9.49,1.07 -10.81,-1.16 -0.46,-0.77 -2.03,-1.88 -3.5,-2.46 -1.59,-0.64 -2.15,-1.26 -1.38,-1.54 0.71,-0.27 2.86,0.27 4.79,1.18 1.93,0.92 3.99,1.51 4.58,1.31 1.85,-0.61 -5.44,-5.39 -9.94,-6.51 -4.72,-1.18 -24.71,-0.84 -30.22,0.52 -3.32,0.81 -3.38,0.9 -1.13,1.64 1.63,0.54 2.65,0.36 3.24,-0.57 0.63,-1 0.86,-0.79 0.87,0.81 0.02,1.95 -0.66,2.24 -6.73,2.81 -3.71,0.35 -10.46,1.75 -15,3.11 -8.11,2.44 -8.25,2.53 -8.25,5.7 0,1.77 0.85,6.19 1.89,9.83 1.4,4.9 1.68,7.75 1.09,11 -0.44,2.41 -0.62,4.57 -0.4,4.79 0.22,0.22 -0.01,0.9 -0.5,1.5 -0.78,0.93 -2.23,20.13 -2.5,33.09 -0.1,4.93 -1.55,6.44 -4.44,4.61 -1.13,-0.71 -1.1,-1.25 0.14,-3.23 0.88,-1.42 1.55,-5.21 1.66,-9.41 0.1,-3.87 0.55,-10.62 0.99,-15 0.7,-6.84 0.77,-18.73 0.21,-35.1 l -0.14,-4.14 -6.75,-0.45 c -3.71,-0.25 -7.43,-0.64 -8.25,-0.87 -2.4,-0.66 -1.94,7.58 0.85,15.09 2.34,6.3 3.09,16.85 1.7,23.81 -0.25,1.27 -0.53,7.23 -0.62,13.26 -0.16,11.05 0.6,13.93 3.69,13.93 0.76,0 1.38,0.44 1.38,0.98 0,1.73 -5.19,2.36 -8.77,1.06 -2.25,-0.81 -3.7,-0.91 -4.1,-0.26 -0.35,0.54 -1.53,1.22 -2.63,1.49 -1.1,0.28 0.92,0.61 4.5,0.75 3.58,0.14 8.3,0.38 10.5,0.55 12.79,0.95 14.71,0.86 15.85,-0.7 0.68,-0.93 3.52,-1.87 6.9,-2.29 7.53,-0.94 7.46,-2.74 -0.09,-2.47 -5.61,0.2 -8.16,-0.41 -8.16,-1.95 0,-1.01 14.1,-0.14 16.28,1.01 0.98,0.51 1.51,1.36 1.19,1.88 -0.32,0.52 -0.11,0.95 0.47,0.95 0.58,0 1.06,0.4 1.06,0.88 0,0.49 -3.47,1.21 -7.72,1.61 -5.37,0.5 -8.08,1.22 -8.92,2.37 -1.02,1.38 -3.35,1.64 -14.8,1.64 -7.47,0 -14.37,-0.28 -15.32,-0.62 z m -13.99,-5.54 c -0.69,-0.28 -1.81,-0.28 -2.5,0 -0.69,0.28 -0.13,0.5 1.25,0.5 1.38,0 1.94,-0.22 1.25,-0.5 z M 420,550.36 c 0,-0.55 -0.45,-1 -1,-1 -0.55,0 -1,0.45 -1,1 0,0.55 0.45,1 1,1 0.55,0 1,-0.45 1,-1 z m -1.79,-7.5 c -0.31,-3.67 -0.08,-5.5 0.67,-5.5 0.68,0 1.13,2.04 1.14,5.25 0.01,5.96 1.87,4.84 2.05,-1.25 l 0.11,-3.5 0.99,3.5 c 1.43,5.08 3.24,6.45 2.42,1.83 -0.38,-2.16 -0.23,-3.93 0.38,-4.31 0.61,-0.38 1.06,0.51 1.1,2.17 0.04,1.55 0.49,3.71 1,4.81 0.7,1.53 0.79,1.24 0.35,-1.22 -0.31,-1.78 -0.2,-3.8 0.26,-4.5 0.53,-0.83 1,0.13 1.32,2.71 0.37,2.99 1,4.08 2.5,4.35 1.62,0.29 1.76,0.11 0.75,-0.94 -0.69,-0.71 -1.25,-2.45 -1.25,-3.85 0,-2.39 0.11,-2.34 1.75,0.89 0.96,1.89 2.43,3.66 3.25,3.92 1.26,0.39 1.29,0.22 0.18,-1.13 -0.9,-1.09 -1.11,-2.98 -0.68,-5.92 0.55,-3.62 0.24,-4.91 -1.94,-8.13 -1.43,-2.1 -2.36,-4.19 -2.07,-4.66 0.75,-1.22 -5.18,-5.92 -8.32,-6.59 -4.31,-0.91 -10.59,-4.18 -13.02,-6.77 l -2.26,-2.4 2.46,-0.47 c 2.06,-0.4 2.55,-0.01 3.03,2.37 0.56,2.81 2.56,4 2.68,1.59 0.04,-0.69 0.47,-0.24 0.97,1 1.15,2.87 4,3.08 3.26,0.24 -0.29,-1.11 -0.91,-2.25 -1.37,-2.54 -0.46,-0.28 -0.58,-1.17 -0.27,-1.98 0.4,-1.04 -0.35,-1.66 -2.54,-2.1 -1.97,-0.39 -3.11,-1.22 -3.11,-2.26 0,-0.91 -1.33,-3.26 -2.95,-5.23 -1.91,-2.32 -2.76,-4.28 -2.42,-5.59 0.6,-2.27 -2.43,-3.66 -4.77,-2.18 -0.75,0.47 -0.87,0.87 -0.28,0.88 1.6,0.02 1.32,2.84 -0.34,3.47 -0.78,0.3 -1.9,0.26 -2.48,-0.1 -0.69,-0.43 -0.82,0.25 -0.38,2.01 0.37,1.47 0.15,3.64 -0.48,4.82 -0.94,1.75 -0.85,2.38 0.47,3.34 1.83,1.34 2.25,7.47 0.51,7.47 -0.65,0 -0.91,-1.04 -0.64,-2.49 0.29,-1.5 -0.12,-2.99 -1.03,-3.75 -1.3,-1.08 -1.44,-0.81 -1.03,2 0.45,3.07 -0.82,4.65 -1.62,1.99 -1.57,-5.27 -1.63,-5.35 -2.69,-3.48 -0.55,0.98 -1.42,1.51 -1.93,1.19 -0.52,-0.31 -0.94,-0.06 -0.94,0.58 0,0.63 0.94,1.39 2.08,1.69 1.35,0.36 1.68,0.8 0.93,1.27 -0.86,0.53 -0.79,1.58 0.26,4.11 1.81,4.32 6.63,10.07 7.82,9.34 0.5,-0.31 0.91,0.29 0.91,1.33 0,2.78 1.13,3.43 2.56,1.48 1.08,-1.49 1.18,-1.33 0.7,1.17 -0.46,2.4 -0.27,2.79 1.09,2.27 1.18,-0.45 1.65,-0.09 1.65,1.27 0,1.05 0.52,2.23 1.14,2.62 0.8,0.49 0.99,-0.12 0.63,-1.99 -0.4,-2.1 -0.15,-2.63 1.1,-2.38 0.88,0.17 1.77,1.14 1.96,2.16 0.24,1.23 -0.04,1.61 -0.82,1.13 -0.8,-0.5 -1.07,0 -0.84,1.55 0.52,3.61 2.83,3.63 2.83,0.03 0,-1.7 0.39,-3.09 0.87,-3.09 0.48,0 0.56,1.46 0.17,3.25 -0.6,2.74 0.99,8.75 2.32,8.75 0.17,0 0.1,-2.47 -0.15,-5.5 z m 12.87,-6.91 c -0.04,-1.06 0.19,-1.65 0.52,-1.32 0.34,0.34 0.37,1.2 0.08,1.92 -0.32,0.8 -0.55,0.56 -0.6,-0.6 z M 423,534.86 c 0,-0.82 0.44,-1.5 0.97,-1.5 0.53,0 0.71,0.68 0.39,1.5 -0.74,1.92 -1.36,1.92 -1.36,0 z m -19.92,-8.91 c -0.04,-1.06 0.19,-1.65 0.52,-1.32 0.34,0.34 0.37,1.2 0.08,1.92 -0.32,0.8 -0.55,0.56 -0.6,-0.6 z m -2.52,-6.88 c 0.38,-0.99 0.94,-1.54 1.25,-1.23 0.3,0.3 0,1.11 -0.69,1.79 -0.98,0.98 -1.1,0.86 -0.56,-0.56 z m 5.44,0.35 c 0,-0.52 0.45,-1.22 1,-1.56 0.55,-0.34 1,0.09 1,0.94 0,0.86 -0.45,1.56 -1,1.56 -0.55,0 -1,-0.42 -1,-0.94 z m -3,-1 c 0,-0.52 0.45,-1.22 1,-1.56 0.55,-0.34 1,0.09 1,0.94 0,0.86 -0.45,1.56 -1,1.56 -0.55,0 -1,-0.42 -1,-0.94 z m 0.44,-5.24 c -0.42,-0.73 -0.41,-1 0.02,-0.61 0.44,0.39 1.62,-0.29 2.63,-1.5 1.01,-1.21 1.86,-1.72 1.88,-1.11 0.02,0.6 -0.83,1.87 -1.87,2.81 -1.51,1.37 -2.06,1.45 -2.66,0.41 z M 416,512.42 c 0,-0.58 0.45,-1.06 1,-1.06 1.28,0 1.28,0.71 0,1.5 -0.55,0.34 -1,0.14 -1,-0.44 z m -8.02,-6.56 c -0.04,-2.56 -0.22,-2.77 -1.26,-1.41 -1.5,1.96 -3.72,1.36 -3.72,-1 0,-2.58 1,-3.16 3.32,-1.91 3.35,1.79 7.14,5.69 6.33,6.51 -0.42,0.41 -1.18,0.09 -1.7,-0.72 -0.83,-1.29 -1.07,-1.28 -1.93,0.03 -0.77,1.17 -1,0.83 -1.04,-1.5 z m 33.53,38.51 c -2.17,-2.4 -3.51,-2.58 -3.51,-0.48 0,0.85 1.01,1.92 2.25,2.39 3.03,1.14 3.44,0.51 1.26,-1.91 z m 73.46,0.74 c -0.02,-0.69 -1.26,-2.13 -2.75,-3.2 -2.67,-1.92 -2.69,-1.92 -1.22,-0.01 3.82,4.94 4.02,5.1 3.97,3.21 z m -68.67,-2.22 c -1.91,-2.62 -5.3,-3.41 -5.3,-1.23 0,2.02 2.16,3.7 4.75,3.7 2.31,0 2.32,-0.03 0.55,-2.47 z m 5.7,-1.03 c -1.32,-1.59 -5,-2.08 -5,-0.66 0,1.44 1.25,2.16 3.79,2.16 2.07,0 2.26,-0.23 1.21,-1.5 z m 5.5,-0.5 c -0.8,-1.3 -3.5,-1.3 -3.5,0 0,0.55 0.93,1 2.06,1 1.13,0 1.78,-0.45 1.44,-1 z m 6.69,-0.68 c -0.72,-0.29 -1.59,-0.25 -1.92,0.08 -0.33,0.33 0.26,0.57 1.31,0.52 1.17,-0.04 1.41,-0.28 0.61,-0.6 z m 42.58,-5.51 c -0.62,-1.85 -2.77,-2.16 -2.77,-0.39 0,0.87 0.71,1.58 1.58,1.58 0.87,0 1.41,-0.53 1.19,-1.19 z M 485,533.83 c 0,-0.38 -6.08,-3.47 -6.83,-3.47 -0.28,0 0.51,1.09 1.76,2.43 1.26,1.34 2.91,2.19 3.68,1.89 0.76,-0.29 1.39,-0.68 1.39,-0.85 z m 15,0.65 c 0,-1.53 -2.87,-3.32 -4.11,-2.55 -0.86,0.53 -0.68,1.11 0.65,2.08 2.12,1.56 3.46,1.74 3.46,0.47 z m -56,-1.75 c -3.02,-0.83 -5.93,-1.93 -6.45,-2.44 -1.34,-1.31 0.09,-1.17 5.86,0.58 2.7,0.82 6.75,1.45 9,1.39 l 4.09,-0.1 -3.5,-0.85 c -1.92,-0.47 -4.88,-1.08 -6.57,-1.37 -4.16,-0.69 -8.95,-3.23 -7.25,-3.83 0.96,-0.35 0.68,-1.17 -1.04,-3.05 l -2.37,-2.57 3.27,0.09 c 1.8,0.05 4.1,0.92 5.12,1.94 2.1,2.11 5.01,2.36 8.11,0.7 1.6,-0.86 2.23,-0.86 2.52,0 0.21,0.63 1.07,1.14 1.92,1.14 1.25,0 1.3,-0.27 0.29,-1.5 -1.04,-1.25 -0.9,-1.5 0.88,-1.5 1.64,0 2.12,0.62 2.13,2.75 v 2.75 l 1.51,-2.9 c 0.84,-1.59 1.39,-3.02 1.23,-3.18 -0.16,-0.16 -2.75,-0.58 -5.77,-0.93 -4,-0.47 -5.07,-0.36 -3.98,0.42 1.3,0.92 1.28,1.06 -0.19,1.08 -0.93,0.01 -2.29,-0.83 -3.01,-1.86 -1.45,-2.07 -9.53,-3.39 -10.15,-1.65 -0.2,0.56 -1.55,-0.23 -2.99,-1.75 -2.14,-2.28 -3.33,-2.73 -6.63,-2.5 -2.29,0.15 -4.03,0.79 -4.03,1.46 0,1.68 2.3,2.91 2.77,1.49 0.62,-1.86 1.94,-1.38 2.55,0.92 0.3,1.16 1.01,1.82 1.57,1.47 0.56,-0.35 0.78,-1.4 0.49,-2.35 -0.46,-1.49 -0.38,-1.48 0.63,0.09 0.64,1 0.93,2.41 0.65,3.13 -0.28,0.73 -0.01,1.82 0.6,2.42 2.03,2.03 0.13,2.15 -2.04,0.13 -3.12,-2.91 -3.42,-2.44 -0.92,1.47 1.21,1.9 2.82,3.48 3.57,3.5 1.05,0.03 1.11,0.37 0.24,1.41 -1.98,2.38 2.99,5.12 9.72,5.37 3.26,0.11 3.06,-0.04 -1.83,-1.37 z m 2.25,-10.59 c -2.4,-1.16 -2.85,-2.29 -1.29,-3.26 0.53,-0.32 1.88,0.33 3,1.45 3.19,3.18 2.54,3.86 -1.71,1.81 z m 22.58,10.73 c 1.19,-1.19 -0.99,-1.66 -4.76,-1.02 -5.44,0.92 -5.35,2.87 0.09,2.11 2.29,-0.32 4.39,-0.81 4.67,-1.09 z m 7.17,0.69 c 0,-1.03 -2.17,-3.2 -3.2,-3.2 -1.29,0 -0.92,2.79 0.45,3.34 1.93,0.78 2.75,0.74 2.75,-0.14 z m 16,-0.72 c 0,-0.15 -1.35,-0.75 -3.01,-1.33 -2.77,-0.97 -2.93,-0.9 -2.01,0.81 0.65,1.22 1.69,1.68 3.01,1.34 1.1,-0.29 2.01,-0.66 2.01,-0.82 z m -39.5,-4.48 c -0.34,-0.55 -1.07,-1 -1.62,-1 -0.55,0 -0.72,0.45 -0.38,1 0.34,0.55 1.07,1 1.62,1 0.55,0 0.72,-0.45 0.38,-1 z m 15.5,-0.53 c 0,-1.18 -0.42,-1.31 -1.84,-0.55 -1.01,0.54 -2.88,0.71 -4.15,0.37 -1.62,-0.42 -2.1,-0.25 -1.61,0.55 1.12,1.81 7.6,1.48 7.6,-0.37 z m -19,-0.47 c 0,-0.55 -0.68,-1 -1.5,-1 -0.82,0 -1.5,0.45 -1.5,1 0,0.55 0.68,1 1.5,1 0.82,0 1.5,-0.45 1.5,-1 z m 26,-0.06 c 0,-0.58 -0.45,-0.78 -1,-0.44 -1.28,0.79 -1.28,1.5 0,1.5 0.55,0 1,-0.47 1,-1.06 z m 12,-0.44 c -1.06,-1.28 -0.78,-1.5 1.88,-1.5 1.71,0 3.12,-0.43 3.12,-0.97 0,-0.53 -0.63,-0.72 -1.4,-0.43 -0.77,0.3 -1.7,0.05 -2.07,-0.55 -0.37,-0.59 -1.11,-0.81 -1.64,-0.48 -0.54,0.33 -1.61,0.08 -2.38,-0.56 -0.78,-0.64 -3.13,-1.04 -5.24,-0.89 -2.1,0.15 -4.44,-0.1 -5.18,-0.56 -0.75,-0.47 -2.31,-0.89 -3.46,-0.95 -1.16,-0.06 -2.25,-0.9 -2.44,-1.86 -0.44,-2.28 1,-2.21 5.04,0.25 3.69,2.25 13.33,2.82 14,0.82 0.62,-1.86 3.67,-0.15 5.55,3.12 1.27,2.22 2.24,2.85 3.79,2.46 1.21,-0.31 2.62,0.12 3.38,1.04 0.71,0.86 1.67,1.56 2.13,1.56 1.41,0 -3.89,-4.8 -6.07,-5.5 -1.14,-0.36 -2.75,-1.69 -3.59,-2.97 -0.83,-1.28 -2.85,-2.88 -4.47,-3.55 -1.62,-0.67 -2.95,-1.62 -2.95,-2.1 0,-0.48 -0.75,-0.88 -1.67,-0.88 -1.39,0 -1.27,0.44 0.68,2.52 3.3,3.51 1.54,5.29 -3.65,3.7 -2.03,-0.62 -4.02,-0.93 -4.42,-0.68 -0.4,0.25 -1,-0.24 -1.32,-1.08 -0.68,-1.77 1.62,-2.97 3.95,-2.07 1.12,0.43 1.48,0.1 1.24,-1.13 -0.18,-0.96 -2.26,-2.7 -4.61,-3.87 -5.19,-2.59 -6.2,-3.49 -3.64,-3.25 1.07,0.1 2.84,0.11 3.94,0.02 1.65,-0.14 1.42,-0.52 -1.32,-2.19 l -3.32,-2.02 -1.89,2.28 c -1.05,1.25 -1.92,1.77 -1.94,1.17 -0.05,-1.68 -6.03,-1.17 -6.03,0.51 0,1.07 -0.46,0.99 -1.98,-0.39 -1.08,-0.98 -1.72,-2.19 -1.41,-2.7 0.31,-0.5 0.02,-1.56 -0.65,-2.36 -1.01,-1.22 -0.7,-1.46 1.92,-1.46 1.71,0 3.12,0.48 3.12,1.06 0,0.58 0.54,0.73 1.2,0.32 0.94,-0.58 0.94,-0.83 0,-1.14 -0.66,-0.22 -1.2,-0.93 -1.21,-1.57 0,-1.08 -6.98,-5.67 -8.61,-5.67 -0.4,0 0.29,1.08 1.53,2.41 1.86,1.98 2.01,2.55 0.82,3.25 -2.2,1.3 -2.98,5.89 -1.23,7.34 0.81,0.68 1.25,1.59 0.98,2.04 -0.28,0.45 1.97,1.12 5.01,1.5 3.51,0.44 5.51,1.17 5.51,2 0,0.71 0.3,2.08 0.66,3.03 0.57,1.48 0.25,1.63 -2.25,1.02 -1.6,-0.39 -3.59,-1.52 -4.41,-2.5 -1.77,-2.12 -5,-3.45 -5,-2.06 0,0.54 0.4,0.97 0.88,0.97 0.49,0 1.12,0.9 1.41,2 0.39,1.48 0.03,2 -1.35,2 -2.01,0 -4.33,-3.34 -3.67,-5.3 0.22,-0.66 -0.91,-1.65 -2.52,-2.2 -2.41,-0.82 -3.92,-2.55 -6.43,-7.35 -0.1,-0.19 -0.64,-0.07 -1.19,0.27 -1.47,0.91 1.69,5.95 5.12,8.21 2.2,1.44 2.78,2.49 2.49,4.54 -0.33,2.39 0.07,2.8 3.84,3.86 2.32,0.64 5.56,0.88 7.19,0.52 2.2,-0.48 3.13,-0.24 3.57,0.9 0.33,0.85 1.48,1.55 2.56,1.55 1.08,0 2.69,0.73 3.58,1.62 1.93,1.93 1.19,3.19 -0.87,1.48 -0.98,-0.82 -1.64,-0.86 -2.09,-0.14 -0.35,0.58 0.39,1.45 1.67,1.93 2.7,1.02 3.81,0.58 3.81,-1.51 0,-0.82 0.46,-1.21 1.02,-0.87 0.56,0.35 0.75,1.05 0.44,1.56 -0.32,0.51 -0.1,0.93 0.48,0.93 0.58,0 1.06,-0.54 1.06,-1.2 0,-0.86 0.35,-0.83 1.25,0.13 1,1.06 1,1.41 0,1.78 -3.13,1.15 -0.7,2.29 4.87,2.29 5.33,0 5.96,-0.19 4.88,-1.5 z m -4.45,-0.41 c -0.32,-0.52 -0.16,-1.21 0.36,-1.54 0.53,-0.32 1.22,-0.15 1.54,0.37 0.32,0.52 0.16,1.21 -0.36,1.53 -0.53,0.32 -1.22,0.16 -1.54,-0.36 z M 479,525.36 c 0,-0.55 0.45,-1 1,-1 0.55,0 1,0.45 1,1 0,0.55 -0.45,1 -1,1 -0.55,0 -1,-0.45 -1,-1 z m -9.71,-12.75 c -0.35,-0.96 -1.11,-2.06 -1.69,-2.44 -0.57,-0.39 -0.75,-0.99 -0.4,-1.34 0.73,-0.73 6.8,3.48 6.8,4.72 0,1.59 -4.07,0.78 -4.71,-0.94 z m -4.04,12.23 c 0.54,-2.85 -0.72,-4.3 -1.65,-1.89 -0.87,2.28 -0.74,4.41 0.28,4.41 0.49,0 1.1,-1.13 1.37,-2.52 z M 444,524.6 c 0,-0.41 -0.9,-1.32 -2,-2.01 -2.19,-1.36 -2.71,-0.34 -0.8,1.57 1.35,1.36 2.8,1.58 2.8,0.44 z m -17.36,-5.52 c -0.97,-0.7 -1.88,-1.94 -2.04,-2.75 -0.8,-3.98 -3.6,-6.97 -3.6,-3.84 0,2.18 4.18,7.87 5.77,7.87 1.41,0 1.39,-0.16 -0.13,-1.28 z m 18.76,-3.95 c 1.08,-1 0.93,-1.42 -0.79,-2.28 -1.5,-0.75 -2.02,-1.82 -1.8,-3.7 0.35,-2.95 -2.48,-5.23 -4.75,-3.83 -1.02,0.64 -0.82,1.1 0.87,2 2.3,1.24 2.62,5.54 0.4,5.54 -0.64,0 -1.5,0.34 -1.91,0.75 -0.42,0.41 0.42,0.75 1.85,0.75 1.44,0 2.89,0.45 3.23,1 0.8,1.3 1.31,1.26 2.9,-0.23 z m -15.98,-7.07 c -0.78,-0.44 -1.42,-1.56 -1.43,-2.5 -0.01,-1.03 -1.58,-2.36 -4,-3.37 -3.8,-1.6 -3.99,-1.59 -3.99,0.12 0,1.2 1,2 3,2.4 2.52,0.51 3,1.08 3,3.54 0,3.37 1.95,4.54 3.67,2.2 0.92,-1.24 0.87,-1.76 -0.25,-2.39 z m 6.08,3.3 c -0.79,-1.28 -1.5,-1.28 -1.5,0 0,0.55 0.48,1 1.06,1 0.58,0 0.78,-0.45 0.44,-1 z m 46.39,-2.6 c -2.92,-1.62 -3.89,-1.71 -3.89,-0.37 0,1.25 4.14,2.95 5.39,2.21 0.48,-0.29 -0.19,-1.12 -1.5,-1.84 z m -47.3,-4.02 c -0.32,-0.83 -0.99,-1.25 -1.49,-0.94 -0.53,0.33 -0.43,1.6 0.24,3.05 0.83,1.78 1.26,2.04 1.49,0.94 0.19,-0.85 0.08,-2.22 -0.24,-3.05 z m -44.93,0.37 c -0.28,-0.69 -0.5,-0.12 -0.5,1.25 0,1.38 0.22,1.94 0.5,1.25 0.28,-0.69 0.28,-1.81 0,-2.5 z m 8.34,1.19 c 0,-0.51 -0.45,-0.94 -1,-0.94 -0.55,0 -1,0.7 -1,1.56 0,0.86 0.45,1.28 1,0.94 0.55,-0.34 1,-1.04 1,-1.56 z m 23,0.8 c 0,-0.69 -0.87,-1.8 -1.94,-2.47 -1.23,-0.77 -2.05,-2.57 -2.25,-4.98 -0.23,-2.84 -0.8,-3.86 -2.31,-4.15 -1.1,-0.2 -2.33,-0.88 -2.72,-1.5 -0.4,-0.63 -0.66,0.55 -0.59,2.61 0.12,3.49 1.81,5.58 1.81,2.25 0,-0.82 0.4,-1.5 0.89,-1.5 1.2,0 2.11,2.55 2.11,5.88 0,2.92 1.59,5.12 3.7,5.12 0.72,0 1.3,-0.56 1.3,-1.26 z m 30.57,-2.49 c -0.17,-1.59 -0.98,-2.88 -1.93,-3.07 -0.9,-0.18 -1.64,-0.83 -1.64,-1.45 0,-0.82 -0.3,-0.83 -1.1,-0.03 -0.81,0.81 -0.48,1.95 1.19,4.2 2.82,3.83 3.86,3.93 3.48,0.35 z m -20.63,-3.82 c -0.78,-0.93 -0.76,-1.9 0.07,-3.45 1.41,-2.62 0.59,-3.72 -1.49,-2 -1.51,1.26 -2.12,7.09 -0.86,8.35 0.36,0.36 1.27,0.15 2.01,-0.47 0.99,-0.82 1.06,-1.48 0.27,-2.43 z m 8.27,0.56 1.71,-3.01 -2.46,0.62 c -1.85,0.47 -2.46,0.22 -2.46,-0.99 0,-1.97 -1.36,-2.08 -2.89,-0.24 -0.86,1.03 -0.8,1.64 0.22,2.49 0.74,0.62 1.65,0.83 2.01,0.47 0.36,-0.37 0.66,0.31 0.66,1.51 0,3.01 1.19,2.69 3.21,-0.85 z M 397,501.36 c 2.28,-2.28 2.49,-3 0.86,-3 -1.16,0 -3.77,2.9 -3.83,4.25 -0.05,1.24 0.86,0.86 2.97,-1.25 z m 69.5,0 c -0.79,-1.28 -1.5,-1.28 -1.5,0 0,0.55 0.48,1 1.06,1 0.58,0 0.78,-0.45 0.44,-1 z m -77.9,-2.73 c -1.01,-1.01 -1.85,0.52 -1.02,1.87 0.63,1.02 0.87,1.02 1.21,0 0.23,-0.69 0.15,-1.53 -0.19,-1.87 z m 34.97,0.51 c -1.26,-0.7 -1.53,-1.7 -1.05,-3.86 0.78,-3.56 -0.7,-3.81 -2.88,-0.49 -1.53,2.33 -1.48,2.52 1.12,4.42 1.49,1.08 3.12,1.73 3.61,1.43 0.49,-0.31 0.13,-0.98 -0.8,-1.5 z m -25.07,-8.09 c 0.61,-0.56 0.03,-0.62 -1.5,-0.17 l -2.5,0.75 2,-2.3 2,-2.31 -3.25,2.36 c -3.62,2.63 -4.13,3.5 -1.5,2.59 0.96,-0.34 0.51,0.33 -1,1.47 -1.51,1.15 -2.75,2.52 -2.75,3.06 0,0.83 5.49,-2.69 8.5,-5.45 z m 55,5.31 c -0.8,-1.29 -2.5,-1.29 -2.5,0 0,0.55 0.7,1 1.56,1 0.86,0 1.28,-0.45 0.94,-1 z M 402,494.8 c 0,-0.24 -0.7,-0.44 -1.56,-0.44 -0.86,0 -1.28,0.46 -0.93,1.02 0.57,0.92 2.49,0.48 2.49,-0.58 z m -13,-2.19 c 0,-0.99 1.3,-2.33 2.95,-3.06 1.76,-0.78 2.74,-1.84 2.43,-2.64 -0.28,-0.74 0.52,-2.06 1.78,-2.94 2.94,-2.07 3.85,-2.03 3.67,0.14 -0.29,3.51 0.19,5.36 1.24,4.71 0.59,-0.36 0.83,-1.28 0.54,-2.03 -0.29,-0.75 0.12,-2.02 0.91,-2.8 1.25,-1.25 0.95,-1.57 -2.29,-2.43 -2.41,-0.64 -2.96,-1.03 -1.54,-1.09 1.21,-0.06 2.44,-0.52 2.75,-1.01 0.31,-0.5 -0.45,-0.69 -1.69,-0.43 -2.19,0.47 -2.2,0.44 -0.31,-1.09 1.07,-0.87 2.58,-1.58 3.36,-1.58 0.87,0 1.18,-0.6 0.81,-1.56 -0.47,-1.23 -0.13,-1.42 1.51,-0.9 1.53,0.49 1.99,0.3 1.67,-0.68 -0.76,-2.28 -3.38,-2.07 -4.55,0.35 -0.87,1.8 -1.12,1.92 -1.17,0.54 -0.09,-2.26 3.61,-6.09 4.29,-4.44 0.26,0.66 0.55,0.07 0.64,-1.31 0.09,-1.37 0.38,-1.94 0.66,-1.25 0.28,0.69 1.2,1.25 2.05,1.25 1.15,0 1.26,-0.33 0.45,-1.3 -0.59,-0.72 -0.82,-2.29 -0.5,-3.5 0.34,-1.29 0.11,-2.2 -0.54,-2.2 -0.62,0 -1.12,0.93 -1.12,2.06 0,1.17 -0.45,1.78 -1.04,1.42 -0.57,-0.36 -0.75,-1.56 -0.39,-2.69 0.39,-1.24 0.11,-2.37 -0.71,-2.9 -0.91,-0.57 -0.97,-0.86 -0.17,-0.87 0.66,-0.01 1.47,0.43 1.81,0.98 0.34,0.55 1.09,1 1.67,1 0.59,0 0.35,-1.09 -0.55,-2.46 -2.01,-3.06 -2.03,-3.63 -0.12,-2.9 0.82,0.32 1.5,0.08 1.5,-0.53 0,-0.61 0.68,-1.11 1.5,-1.11 0.82,0 1.52,-0.34 1.55,-0.75 0.03,-0.41 0.22,-2.66 0.42,-5 0.29,-3.4 0.04,-4.25 -1.25,-4.25 -1.24,0 -1.34,-0.28 -0.45,-1.17 0.89,-0.89 0.41,-1.72 -1.99,-3.49 -1.79,-1.32 -3.42,-1.91 -3.76,-1.37 -0.36,0.58 -1.72,0.38 -3.46,-0.52 -1.57,-0.82 -3.09,-1.25 -3.38,-0.97 -0.28,0.29 0.01,0.52 0.65,0.52 0.65,0 1.17,0.44 1.17,0.97 0,0.53 -0.7,0.7 -1.56,0.37 -0.85,-0.33 -1.32,-1.2 -1.04,-1.93 0.62,-1.63 -1.01,-2.85 -1.89,-1.42 -0.42,0.67 -1.25,0.69 -2.44,0.05 -0.99,-0.53 -1.99,-0.78 -2.22,-0.55 -0.23,0.23 -0.42,-0.46 -0.42,-1.54 0,-2.33 0.9,-2.47 2.93,-0.45 1.91,1.92 2.74,1.92 2,0 -0.31,-0.82 -0.11,-1.5 0.47,-1.5 0.57,0 1.32,0.9 1.67,2 0.35,1.1 1.02,2 1.49,2 0.46,0 1.67,0.27 2.68,0.6 1.37,0.44 1.49,0.35 0.47,-0.38 -0.95,-0.68 -1.02,-1.17 -0.25,-1.65 0.61,-0.38 1.11,-1.14 1.11,-1.69 0,-0.55 -0.45,-0.72 -1,-0.38 -0.55,0.34 -1,0.16 -1,-0.41 0,-0.56 -0.68,-0.77 -1.5,-0.45 -0.82,0.32 -1.5,0.08 -1.5,-0.53 0,-0.61 0.56,-1.11 1.25,-1.12 0.83,-0.01 0.75,-0.34 -0.25,-0.99 -1.24,-0.8 -1.25,-0.97 -0.08,-0.98 0.78,-0.01 2.25,0.73 3.27,1.65 1.73,1.57 1.93,1.55 3.24,-0.25 1.83,-2.49 0.56,-3.98 -4.22,-5 -3.85,-0.81 -11.08,-0.88 -11.86,-0.1 -0.24,0.24 -0.53,1.73 -0.65,3.31 -0.12,1.69 -1.02,3.32 -2.2,3.95 -2.73,1.48 -3.18,0.83 -1.06,-1.51 0.97,-1.08 1.58,-2.51 1.35,-3.19 -0.36,-1.09 -4.79,4.9 -4.79,6.49 0,0.34 1.46,1.3 3.25,2.12 l 3.25,1.49 -3.25,-0.57 c -3.89,-0.68 -4.59,1.64 -1,3.33 1.24,0.58 4.22,2.76 6.62,4.84 l 4.37,3.79 -0.6,6.56 c -0.84,9.25 -1.2,10.81 -4.06,17.57 -2.46,5.83 -3.3,10.5 -1.88,10.5 0.38,0 2.05,-1.24 3.71,-2.75 1.66,-1.51 2.41,-1.96 1.68,-1 -1.12,1.47 -1.11,1.76 0.04,1.77 0.79,0.02 0.31,0.85 -1.13,1.97 -1.38,1.07 -3.18,1.85 -4,1.73 -0.97,-0.14 -1.61,0.78 -1.83,2.62 -0.29,2.55 -0.08,2.78 2,2.2 2.02,-0.56 2.12,-0.47 0.75,0.66 -1.82,1.5 -3.17,5.8 -1.83,5.8 0.5,0 0.91,-0.79 0.91,-1.75 z m 8.73,-18.37 c 0.68,-0.69 1.49,-0.99 1.8,-0.68 0.3,0.3 -0.25,0.86 -1.24,1.24 -1.42,0.54 -1.54,0.43 -0.56,-0.56 z m -2.21,-2.27 c 1.36,-2.08 5.48,-4.29 5.48,-2.94 0,1.01 -2.79,3.21 -3.36,2.64 -0.32,-0.33 -0.88,0.15 -1.22,1.05 -0.35,0.9 -1.05,1.64 -1.55,1.64 -0.5,0 -0.21,-1.08 0.65,-2.39 z M 409,450.36 c 0,-0.55 -0.75,-1 -1.67,-1 -0.91,0 -1.4,-0.26 -1.07,-0.59 0.83,-0.83 4.74,0.53 4.74,1.66 0,0.51 -0.45,0.93 -1,0.93 -0.55,0 -1,-0.45 -1,-1 z m -0.4,-4.6 c -0.36,-0.93 -0.42,-1.91 -0.15,-2.18 0.28,-0.28 0.79,0.25 1.15,1.18 0.36,0.93 0.42,1.91 0.15,2.19 -0.28,0.27 -0.79,-0.26 -1.15,-1.19 z m -3.33,-3.38 c 0.09,-1.11 0.51,-2.02 0.94,-2.02 1.11,0 0.99,2.76 -0.15,3.46 -0.52,0.32 -0.87,-0.32 -0.79,-1.44 z m -14.12,-13.9 c -1.99,-1.27 -0.96,-4.57 1.54,-4.93 2.29,-0.33 4.92,3.02 3.8,4.83 -0.74,1.2 -3.52,1.25 -5.34,0.1 z m 18.21,63.39 c -0.31,-0.82 -0.97,-1.25 -1.46,-0.94 -1.42,0.87 -1.05,2.43 0.57,2.43 0.89,0 1.24,-0.58 0.89,-1.49 z m 5.64,-0.51 c 0,-0.55 -0.48,-1 -1.06,-1 -0.58,0 -0.78,0.45 -0.44,1 0.79,1.28 1.5,1.28 1.5,0 z m 20.51,-1.82 c -0.79,-0.79 -2.51,1.01 -1.9,2 0.41,0.67 0.93,0.57 1.46,-0.29 0.45,-0.73 0.65,-1.5 0.44,-1.71 z m -8.51,0.82 c 0,-1.29 -1.7,-1.29 -2.5,0 -0.34,0.55 0.08,1 0.94,1 0.86,0 1.56,-0.45 1.56,-1 z m -20.5,-1 c 0.34,-0.55 0.17,-1 -0.38,-1 -0.55,0 -1.28,0.45 -1.62,1 -0.34,0.55 -0.17,1 0.38,1 0.55,0 1.28,-0.45 1.62,-1 z m 18.13,-3.2 c 0.33,-0.54 -0.41,-0.82 -1.69,-0.63 -1.26,0.18 -2.46,0.86 -2.67,1.5 -0.46,1.39 3.44,0.61 4.36,-0.87 z m 16.46,-0.34 c -2.98,-1.38 -5.87,-2.36 -6.43,-2.18 -1.59,0.53 6.55,4.58 9.34,4.65 1.84,0.04 1.07,-0.61 -2.91,-2.47 z M 405,485.8 c 0,-0.24 -0.45,-0.44 -1,-0.44 -0.55,0 -1,0.48 -1,1.06 0,0.58 0.45,0.78 1,0.44 0.55,-0.34 1,-0.81 1,-1.06 z m 6,-0.5 c 0,-0.58 -0.45,-0.78 -1,-0.44 -1.28,0.79 -1.28,1.5 0,1.5 0.55,0 1,-0.47 1,-1.06 z m 5,-1.5 c 0,-0.24 -0.45,-0.44 -1,-0.44 -0.55,0 -1,0.48 -1,1.06 0,0.58 0.45,0.78 1,0.44 0.55,-0.34 1,-0.81 1,-1.06 z m 15,0.68 c 0,-0.49 -0.79,-1.16 -1.75,-1.5 -0.96,-0.34 -2.43,-0.88 -3.25,-1.19 -0.82,-0.32 -0.38,0.35 1,1.48 2.7,2.21 4,2.61 4,1.21 z m -23,-1.12 c 0,-1.29 -1.7,-1.29 -2.5,0 -0.34,0.55 0.08,1 0.94,1 0.86,0 1.56,-0.45 1.56,-1 z m 3,-26.06 c 0,-0.58 -0.45,-0.78 -1,-0.44 -1.28,0.79 -1.28,1.5 0,1.5 0.55,0 1,-0.47 1,-1.06 z m 3.58,-21.7 c -1.09,-1.08 -1.4,0.27 -0.76,3.26 l 0.65,3 0.34,-2.84 c 0.19,-1.56 0.08,-3.1 -0.23,-3.42 z m -8.08,-1.24 c -0.34,-0.55 -1.07,-1 -1.62,-1 -0.55,0 -0.72,0.45 -0.38,1 0.34,0.55 1.07,1 1.62,1 0.55,0 0.72,-0.45 0.38,-1 z m 4.52,-1.47 c -1.69,-2.04 -4.14,-2 -3.35,0.06 0.43,1.11 0.82,1.24 1.33,0.41 0.5,-0.81 0.93,-0.63 1.38,0.56 0.37,0.95 0.95,1.45 1.29,1.11 0.34,-0.34 0.05,-1.31 -0.65,-2.14 z m 3.09,-3.82 c -0.81,-0.81 -1.11,-0.7 -1.11,0.43 0,1.98 1.34,3.33 1.84,1.84 0.21,-0.64 -0.12,-1.65 -0.73,-2.27 z" />
  </g>
  <metadata
     id="metadata4">
    <rdf:RDF>
      <cc:Work>
        <dc:format>image/svg+xml</dc:format>
        <dc:type
           rdf:resource="http://purl.org/dc/dcmitype/StillImage" />
        <cc:license
           rdf:resource="http://creativecommons.org/publicdomain/zero/1.0/" />
        <dc:publisher>
          <cc:Agent
             rdf:about="http://openclipart.org/">
            <dc:title>Openclipart</dc:title>
          </cc:Agent>
        </dc:publisher>
        <dc:title>Long Billed Curlew 2</dc:title>
        <dc:date>2007-09-25T13:51:29</dc:date>
        <dc:description />
        <dc:source>https://openclipart.org/detail/6062/long-billed-curlew-2-by-kelan</dc:source>
        <dc:creator>
          <cc:Agent>
            <dc:title>kelan</dc:title>
          </cc:Agent>
        </dc:creator>
        <dc:subject>
          <rdf:Bag>
            <rdf:li>billed curlew</rdf:li>
            <rdf:li>bird</rdf:li>
            <rdf:li>curlew</rdf:li>
            <rdf:li>fws</rdf:li>
            <rdf:li>fws lineart</rdf:li>
            <rdf:li>line art</rdf:li>
            <rdf:li>long</rdf:li>
            <rdf:li>numenius americanus</rdf:li>
            <rdf:li>remix</rdf:li>
            <rdf:li>request+completed</rdf:li>
            <rdf:li>source+wiki</rdf:li>
          </rdf:Bag>
        </dc:subject>
      </cc:Work>
      <cc:License
         rdf:about="http://creativecommons.org/publicdomain/zero/1.0/">
        <cc:permits
           rdf:resource="http://creativecommons.org/ns#Reproduction" />
        <cc:permits
           rdf:resource="http://creativecommons.org/ns#Distribution" />
        <cc:permits
           rdf:resource="http://creativecommons.org/ns#DerivativeWorks" />
      </cc:License>
    </rdf:RDF>
  </metadata>
</svg>
