<?xml version="1.0" encoding="UTF-8" standalone="no"?>
<svg
   xmlns:dc="http://purl.org/dc/elements/1.1/"
   xmlns:cc="http://creativecommons.org/ns#"
   xmlns:rdf="http://www.w3.org/1999/02/22-rdf-syntax-ns#"
   xmlns:svg="http://www.w3.org/2000/svg"
   xmlns="http://www.w3.org/2000/svg"
   xmlns:sodipodi="http://sodipodi.sourceforge.net/DTD/sodipodi-0.dtd"
   xmlns:inkscape="http://www.inkscape.org/namespaces/inkscape"
   version="1.1"
   x="0"
   y="0"
   width="42.055901mm"
   height="99.412003mm"
   viewBox="0 0 158.95144 375.7304"
   id="svg41"
   sodipodi:docname="ice_cream.svg"
   inkscape:version="1.0.2-2 (e86c870879, 2021-01-15)">
  <metadata
     id="metadata47">
    <rdf:RDF>
      <cc:Work
         rdf:about="">
        <dc:format>image/svg+xml</dc:format>
        <dc:type
           rdf:resource="http://purl.org/dc/dcmitype/StillImage" />
        <dc:title />
      </cc:Work>
    </rdf:RDF>
  </metadata>
  <defs
     id="defs45" />
  <sodipodi:namedview
     pagecolor="#ffffff"
     bordercolor="#666666"
     borderopacity="1"
     objecttolerance="10"
     gridtolerance="10"
     guidetolerance="10"
     inkscape:pageopacity="0"
     inkscape:pageshadow="2"
     inkscape:window-width="1920"
     inkscape:window-height="1017"
     id="namedview43"
     showgrid="false"
     units="mm"
     inkscape:zoom="1.5045977"
     inkscape:cx="12.348322"
     inkscape:cy="219.98213"
     inkscape:window-x="-8"
     inkscape:window-y="-8"
     inkscape:window-maximized="1"
     inkscape:current-layer="svg41"
     inkscape:document-rotation="0" />
  <g
     id="Layer_1"
     transform="matrix(0.688904,0,0,0.688904,-1.1261077,-0.81488853)">
    <path
       d="m 55.701,229.133 c -2.787,-1.431 -5.822,-2.577 -7.99,-4.856 -4.789,-5.336 -1.703,-13.611 -1.635,-20.748 0.156,-5.795 -2.105,-11.566 -5.891,-15.893 -4.354,-4.825 -10.467,-7.786 -14.313,-13.051 -4.736,-6.549 -4.9,-15.149 -6.1,-23.143 -1.197,-7.995 -4.818,-15.963 -12.514,-18.417 l 0.033,221.198 60.15,-112.269 c -2.344,-4.959 -6.857,-10.179 -11.74,-12.817 z"
       fill="#f4b865"
       id="path4885" />
    <path
       d="M 212.98,56.919 C 205.681,40.042 166.412,-12.806 93.991,5.014 20.108,23.198 20.819,93.252 20.819,93.252 c 0,0 -16.145,6.176 -18.873,25.999 -3.102,22.406 17.996,32.185 17.996,32.185 l 1.963,13.458 c 0.531,4.003 3.26,8.667 4.133,9.685 3.846,5.265 9.961,8.226 14.316,13.051 3.916,4.318 6.049,10.097 5.891,15.893 -0.068,7.137 -3.158,15.412 1.635,20.748 2.033,2.288 5.205,3.425 7.988,4.856 4.885,2.639 8.918,6.679 11.395,11.628 l 0.475,1.044 c 3.527,-1.577 5.752,-2.531 8.541,-5.137 2.662,-2.462 4.604,-5.686 7.123,-8.273 3.918,-3.891 9.293,-5.993 14.679,-5.944 7.002,0.078 13.848,3.932 20.781,2.937 14.271,-1.881 20.906,-21.693 35.313,-23.584 4.135,-0.541 8.51,0.517 12.662,0.244 0,0 2.814,-0.186 5.262,-1.827 1.939,-1.205 4.559,-4.337 4.559,-4.337 0,0 14.217,1.352 33.471,-8.662 41.635,-21.578 11.986,-65.238 11.986,-65.238 7.722,-19.615 -1.836,-48.318 -9.131,-65.059 z"
       fill="#f08895"
       id="path4887" />
    <path
       d="m 20.401,152.214 c 14.627,5.497 22.309,13.87 34.27,19.809 30.586,14.94 53.464,4.823 74.513,5.723 16.193,0.684 24.025,7.298 28.551,10.635 6.357,4.559 10.686,6.965 18.938,7.633 0,0 -2.629,2.998 -4.561,4.336 -2.445,1.642 -5.26,1.827 -5.26,1.827 -4.01,0.398 -8.52,-0.65 -12.662,-0.243 -14.285,1.749 -21.043,21.704 -35.314,23.585 -6.941,0.859 -13.777,-2.861 -20.781,-2.939 -5.384,-0.048 -10.895,2.064 -14.677,5.946 -2.654,2.597 -4.461,5.81 -7.125,8.273 -2.789,2.606 -4.869,3.685 -8.539,5.137 l -0.475,-1.046 c -2.479,-4.95 -6.52,-9.123 -11.396,-11.628 -2.783,-1.431 -5.818,-2.576 -7.988,-4.855 -4.791,-5.336 -1.701,-13.613 -1.633,-20.748 0.156,-5.796 -2.109,-11.568 -5.891,-15.894 -4.355,-4.826 -10.471,-7.787 -14.316,-13.05 -0.883,-1.153 -3.469,-5.692 -4.135,-9.685 l -1.963,-13.459 z"
       fill="#ed6f75"
       id="path4889" />
    <path
       d="M 8.001,546.581 C 7.952,509.046 7.771,471.518 7.712,433.852 7.651,410.444 7.587,387.037 7.526,363.628 7.52,351.251 7.51,338.873 7.37,326.503 c 0.025,-9.824 -0.625,-21.756 8.07,-28.651 4.219,-3.372 9.908,-4.823 14.117,-8.33 7.92,-6.44 9.045,-17.953 13.553,-27.129 3.436,-7.089 9.234,-12.987 16.127,-16.67 5.725,-2.933 12.211,-4.571 16.9,-8.916 2.666,-2.463 4.605,-5.686 7.127,-8.273 3.914,-3.891 9.293,-5.994 14.675,-5.946 7.004,0.078 13.85,3.932 20.781,2.939 14.271,-1.883 20.908,-21.694 35.314,-23.585 5.734,-0.781 11.945,1.635 17.023,-0.985 2.215,-1.088 3.832,-3.078 5.594,-4.943 4.906,-5.167 11.207,-9.619 18.059,-11.818 3.162,-1.016 7.006,-1.942 10.406,-1.359 5.168,0.871 4.32,2.273 2.182,6.585 -1.664,3.337 -3.605,6.561 -5.41,9.774 -5.779,10.337 -11.549,20.808 -17.459,31.154 -17.451,31.288 -34.906,62.441 -52.223,93.721 -19.857,35.617 -39.712,71.234 -59.575,106.72 -15.885,28.494 -31.771,56.987 -47.654,85.481 -5.652,10.194 -11.314,20.254 -16.976,30.314 z"
       fill="#f3b866"
       id="path4891" />
    <path
       d="m 222,122.254 c -1.443,4.669 -8.219,12.112 -18.539,16.829 -10.311,4.849 -22.428,4.705 -33.393,1.66 -7.535,-2.061 -14.758,-5.486 -22.572,-5.646 -7.947,-0.149 -15.648,3.452 -22.672,7.144 C 111.431,149.312 98.117,157.59 83.2,159.915 65.614,162.553 46.759,156.127 34.721,142.927 22.684,129.725 16.975,110.458 21.08,93.099 c 2.541,14.095 7.086,27.924 16.025,39.042 8.939,11.117 23.563,18.63 37.621,15.552 5.969,-1.334 11.418,-4.384 16.446,-7.676 8.133,-5.244 15.934,-11.409 22.898,-18.056 6.711,-6.363 12.969,-13.501 20.117,-19.355 7.15,-5.853 15.707,-10.722 24.926,-11.732 9.889,-1.054 20.191,2.168 29.375,-1.395 8.531,-3.253 14.148,-11.966 16.389,-20.859 2.213,-9.295 0.658,-18.611 -2.416,-28.499 0,0 11.352,10.958 19.07,40.32 3.288,13.103 4.786,27.67 0.469,41.813 z"
       fill="#ed6f75"
       id="path4893" />
    <path
       d="m 31.701,70.066 c 0,0 -12.65,24.515 6.055,53.152 18.705,28.639 52.082,12.449 65.62,-6.742 0,0 -33.386,24.264 -52.239,5.592 C 28.811,99.724 31.701,70.066 31.701,70.066 Z"
       fill="#f7bec1"
       id="path4895" />
    <path
       d="m 133.92,102.624 c 0,0 9.33,-9.494 24.027,-15.171 14.695,-5.676 26.41,-25.958 12.01,-50.574 C 150.828,3.83 110.746,2.028 110.746,2.028 c 0,0 52.629,-9.923 91.59,38.235 0,0 13.318,30.608 -8.658,46.317 -18.619,13.471 -31.037,-7.509 -59.758,16.044 z"
       fill="#eb6277"
       id="path4897" />
    <path
       d="m 148.14,30.51 c -8.4,-4.963 -18.438,-6.186 -28.27,-6.346 -5.25,-0.058 -28.772,0.28 -33.403,1.526 -5.555,1.441 -12.773,4.205 -19.762,12.469 -8.35,10.102 -15.729,20.68 -19.881,33.197 -2.148,6.197 -3.469,12.741 -2.902,19.297 0.576,6.689 4.158,14.124 10.705,15.44 6.689,1.444 12.791,-3.937 17.014,-9.327 3.477,-4.399 13.313,-20.521 24.71,-25.172 4.584,-1.917 9.361,-2.904 14.346,-2.83 6.334,0.122 12.674,0.376 19.041,1.034 6.367,0.656 12.895,1.707 18.951,-0.306 6.449,-2.174 11.447,-8.02 12.488,-14.681 1.65,-9.66 -4.637,-19.338 -13.037,-24.301 z"
       fill="#f3a2b1"
       id="path4899" />
    <path
       d="m 5.901,128.814 c 1.184,5.708 4.867,10.578 9.662,13.896 4.66,3.326 10.309,5.375 15.918,6.756 -4.244,-1.067 -9.344,-9.072 -11.457,-12.566 -3.025,-5.05 -5.137,-10.561 -6.186,-16.277 -0.605,-3.056 0.26,-12.396 -5.102,-8.007 -3.441,2.917 -3.636,12.215 -2.835,16.198 z"
       fill="#f7bec1"
       id="path4901" />
    <path
       d="m 142.79,35.034 c -3.383,-2.333 -7.613,-3.266 -11.805,-3.529 -14.32,-0.94 -29.191,-1.98 -43.429,0.438 -13.299,2.355 -21.195,15.254 -24.066,20.69 -3.813,7.517 -8.676,13.353 -7.375,20.803 0.666,3.992 3.625,8.103 7.537,8.25 2.975,0.208 5.541,-1.711 7.838,-3.61 5.361,-4.391 10.596,-8.637 15.95,-13.16 13.137,-10.957 26.006,-9.652 39.947,-10.434 4.287,-0.282 8.582,-0.431 12.523,-1.901 3.928,-1.604 7.479,-4.932 8.143,-9.147 0.683,-3.948 -1.878,-6.067 -5.263,-8.4 z"
       fill="#f7bec1"
       id="path4903" />
    <path
       d="m 167.59,139.964 c 0.824,0.215 1.654,0.564 2.342,0.788 10.963,3.045 23.082,3.188 33.395,-1.66 10.311,-4.85 17.086,-12.293 18.535,-16.829 4.314,-14.143 2.818,-28.71 -0.594,-41.672 C 213.549,51.23 202.2,40.271 202.2,40.271 c 2.941,9.899 4.627,19.206 2.414,28.501 -2.105,8.884 -7.719,17.595 -16.387,20.857 -9.184,3.565 -19.619,0.35 -29.373,1.396 -6.012,0.665 -11.65,2.92 -16.832,5.953 5.951,-1.603 21.553,-3.706 31.504,6.402 9.949,10.109 16.043,29.082 -5.936,36.584 z"
       fill="#eb595f"
       id="path4905" />
    <path
       d="m 24.301,517.521 -16.4,-30.67 -0.1,-11.29 19.5,36.52 z"
       fill="#f5db8e"
       id="polygon4907" />
    <path
       d="m 44.701,480.931 -37.1,-69.679 0.1,-10.9 40,75.129 z"
       fill="#f5db8e"
       id="polygon4909" />
    <path
       d="m 65.201,444.191 -57.7,-108.279 -0.1,-11.29 60.8,114.129 z"
       fill="#f5db8e"
       id="polygon4911" />
    <path
       d="m 85.601,407.592 -60.8,-114.259 4.6,-2.45 59.3,111.269 z"
       fill="#f5db8e"
       id="polygon4913" />
    <path
       d="m 7.501,377.752 v -5.92 l 139.519,-74.299 -4.7,8.379 z"
       fill="#f5db8e"
       id="polygon4915" />
    <path
       d="m 7.701,418.782 v -5.92 l 106.579,-56.8 -4.69,8.52 z"
       fill="#f5db8e"
       id="polygon4917" />
    <path
       d="m 7.401,336.322 v -5.92 l 172.469,-91.819 -4.69,8.39 z"
       fill="#f5db8e"
       id="polygon4919" />
    <path
       d="m 39.001,278.133 1.2,-6.67 167.459,-89.06 0.24,5.77 z"
       fill="#f5db8e"
       id="polygon4921" />
    <path
       d="m 7.401,257.473 v -5.92 l 47.2,-24.63 5,3.3 z"
       fill="#f5db8e"
       id="polygon4923" />
    <path
       d="m 7.401,216.973 0.1,-5.92 35.7,-19.04 2.6,4.54 z"
       fill="#f5db8e"
       id="polygon4925" />
    <path
       d="m 7.501,176.873 v -6.05 l 14.3,-7.54 1.7,5.01 z"
       fill="#f5db8e"
       id="polygon4927" />
    <path
       d="m 7.801,459.941 -0.1,-5.91 74,-39.449 -4.7,8.52 z"
       fill="#f5db8e"
       id="polygon4929" />
    <path
       d="m 7.901,501.251 v -5.92 l 40.7,-21.38 -4.7,8.38 z"
       fill="#f5db8e"
       id="polygon4931" />
    <path
       d="m 106.1,370.862 -59.699,-111.919 3.4,-4.8 59.309,111.269 z"
       fill="#f5db8e"
       id="polygon4933" />
    <path
       d="m 40.701,270.223 -33.3,-62.26 0.1,-11.17 36.2,68.12 z"
       fill="#f5db8e"
       id="polygon4935" />
    <path
       d="m 16.901,297.353 -9.5,-17.94 0.1,-11.04 13.8,25.86 z"
       fill="#f5db8e"
       id="polygon4937" />
    <path
       d="m 126.57,334.262 -50.869,-95.409 3.7,-4.28 50.169,94.249 z"
       fill="#f5db8e"
       id="polygon4939" />
    <path
       d="m 147.02,297.532 -38.22,-71.759 4.54,-2.45 36.69,68.76 z"
       fill="#f5db8e"
       id="polygon4941" />
    <path
       d="m 167.48,260.933 -27.62,-51.73 4.68,-2.47 25.95,48.75 z"
       fill="#f5db8e"
       id="polygon4943" />
    <path
       d="m 187.33,225.183 -13.48,-24.95 4.55,-2.45 11.95,22.08 z"
       fill="#f5db8e"
       id="polygon4945" />
    <path
       d="m 146,186.053 c -11.646,-5.288 -23.037,-4.538 -34.396,-3.385 -3.205,0.345 -6.004,0.798 -6.604,3.932 -0.734,3.143 0.682,6.279 2.727,8.701 3.068,3.7 5.023,4.782 9.451,6.643 9.68,3.939 23.516,-0.471 34.414,-4.552 10.106,-3.896 -2.402,-9.934 -5.592,-11.339 z"
       fill="#f3a2b1"
       id="path4951" />
    <path
       d="M 59.301,179.383 C 44.949,167.815 21.727,160.465 21.727,160.465 l -0.523,0.168 0.684,4.26 c 0.531,4.003 3.26,8.667 4.133,9.685 3.846,5.265 9.961,8.226 14.316,13.051 3.916,4.318 6.049,10.097 5.891,15.893 -0.068,7.137 -3.158,15.412 1.635,20.748 2.033,2.288 5.205,3.425 7.988,4.856 4.885,2.639 8.918,6.679 11.395,11.628 l 0.475,1.044 c 3.527,-1.577 5.619,-2.522 8.541,-5.137 2.662,-2.462 4.604,-5.686 7.123,-8.273 3.918,-3.891 9.293,-5.993 14.679,-5.944 7.002,0.078 13.848,3.932 20.781,2.937 4.133,-0.541 7.76,-2.664 10.941,-5.429 -33.27,5.555 -56.134,-28.999 -70.485,-40.569 z"
       fill="#eb5d64"
       id="path4953" />
    <path
       d="m 45.401,197.253 -0.125,0.144 c 0.533,1.982 0.941,4.109 0.816,6.271 -0.07,7.135 -3.156,15.412 1.633,20.748 2.037,2.288 5.205,3.424 7.992,4.855 4.883,2.639 9.395,7.858 11.875,12.808 0,0 5.502,-2.246 8.541,-5.137 2.656,-2.597 4.604,-5.686 7.127,-8.274 0.383,-0.294 0.633,-0.578 1.016,-0.873 L 84.268,227.66 C 55.741,231.69 45.401,197.253 45.401,197.253 Z"
       fill="#e83c51"
       id="path4955" />
    <path
       d="m 17.201,301.902 c 4.219,-3.372 9.91,-4.824 14.119,-8.33 7.918,-6.44 9.043,-17.952 13.551,-27.128 3.436,-7.089 9.236,-12.987 16.127,-16.67 5.725,-2.933 12.211,-4.57 16.902,-8.917 2.666,-2.462 4.605,-5.684 7.127,-8.272 3.914,-3.891 9.292,-5.994 14.675,-5.945 7.002,0.077 13.848,3.932 20.781,2.937 14.271,-1.881 20.906,-21.693 35.313,-23.584 5.736,-0.78 11.947,1.636 17.021,-0.985 2.219,-1.087 3.836,-3.079 5.596,-4.942 4.906,-5.167 11.209,-9.62 18.059,-11.819 2.904,-0.865 8.828,-2.869 12.326,-2.831 0.309,-1.5 -0.674,-2.108 -3.809,-2.709 -3.268,-0.593 -7.244,0.343 -10.406,1.357 -6.986,2.209 -13.16,6.518 -18.059,11.818 -1.762,1.866 -3.389,3.722 -5.596,4.943 -5.074,2.622 -11.279,0.339 -17.023,0.987 -14.279,1.748 -21.041,21.703 -35.313,23.584 -6.939,0.861 -13.779,-2.86 -20.779,-2.938 -5.384,-0.048 -10.895,2.063 -14.677,5.944 -2.654,2.596 -4.461,5.812 -7.125,8.273 -4.693,4.347 -11.176,5.982 -16.904,8.917 -6.889,3.683 -12.691,9.582 -16.127,16.669 -4.506,9.178 -5.633,20.689 -13.551,27.13 -4.211,3.507 -9.908,4.823 -14.119,8.329 -7.021,5.71 -7.904,14.783 -8.02,23.268 1.791,-7.519 4.934,-14.992 9.911,-19.086 z"
       fill="#fae4b5"
       id="path4957" />
    <path
       d="m 203.46,139.084 c -10.311,4.849 -22.428,4.705 -33.393,1.66 -0.82,-0.215 -1.643,-0.43 -2.34,-0.788 9.426,38.935 -30.145,38.716 -30.145,38.716 l 0.141,0.126 c 10.637,2.125 16.473,6.987 20.275,9.563 6.354,4.56 10.686,6.965 18.936,7.633 0,0 14.217,1.351 33.471,-8.661 41.367,-21.562 11.594,-65.078 11.594,-65.078 -1.318,4.527 -8.228,11.979 -18.539,16.829 z"
       fill="#eb6277"
       id="path4959" />
    <path
       d="m 168.58,144.744 c -7.662,-3.936 -14.758,-5.488 -23.432,-4.378 -10.547,1.232 -30.863,9.433 -22.172,16.799 2.135,1.743 8.941,0.892 11.736,0.438 7.592,-1.172 16.736,-1.237 24.262,2.707 1.117,0.599 5.025,2.764 5.025,2.764 0.572,0.5 1.266,0.858 1.828,1.226 2.785,-4.758 3.978,-11.16 2.753,-19.556 z"
       fill="#f3a2b1"
       id="path4961" />
    <path
       d="m 213.53,140.704 c -9.678,4.27 -12.322,7.001 -20.604,7.95 -11.619,1.304 -23.234,-3.448 -23.234,-3.448 -0.418,-0.242 -0.832,-0.35 -1.115,-0.601 1.234,8.531 0.041,14.933 -2.605,19.681 15.654,10.943 30.033,12.688 47.857,3.442 18.474,-9.556 9.25,-31.15 -0.299,-27.024 z"
       fill="#ef798b"
       id="path4963" />
  </g>
</svg>
