<?xml version="1.0" encoding="UTF-8" standalone="no"?>
<svg
   xmlns:dc="http://purl.org/dc/elements/1.1/"
   xmlns:cc="http://creativecommons.org/ns#"
   xmlns:rdf="http://www.w3.org/1999/02/22-rdf-syntax-ns#"
   xmlns:svg="http://www.w3.org/2000/svg"
   xmlns="http://www.w3.org/2000/svg"
   xmlns:xlink="http://www.w3.org/1999/xlink"
   xmlns:sodipodi="http://sodipodi.sourceforge.net/DTD/sodipodi-0.dtd"
   xmlns:inkscape="http://www.inkscape.org/namespaces/inkscape"
   id="svg32"
   viewBox="0 0 332.59843 472.44094"
   version="1.0"
   y="0"
   x="0"
   sodipodi:docname="igloo.svg"
   inkscape:version="1.0.2-2 (e86c870879, 2021-01-15)"
   width="88mm"
   height="125mm">
  <sodipodi:namedview
     pagecolor="#ffffff"
     bordercolor="#666666"
     borderopacity="1"
     objecttolerance="10"
     gridtolerance="10"
     guidetolerance="10"
     inkscape:pageopacity="0"
     inkscape:pageshadow="2"
     inkscape:window-width="1920"
     inkscape:window-height="1017"
     id="namedview73"
     showgrid="false"
     inkscape:zoom="0.92074464"
     inkscape:cx="187.6409"
     inkscape:cy="258.71938"
     inkscape:window-x="-8"
     inkscape:window-y="-8"
     inkscape:window-maximized="1"
     inkscape:current-layer="svg32"
     inkscape:document-rotation="0"
     units="mm" />
  <defs
     id="defs34">
    <linearGradient
       id="linearGradient129">
      <stop
         id="stop130"
         style="stop-color:#0017a2;stop-opacity:.1647"
         offset="0" />
      <stop
         id="stop131"
         style="stop-color:#ffffff"
         offset="1" />
    </linearGradient>
    <linearGradient
       id="linearGradient132"
       y2="47.618877"
       xlink:href="#linearGradient129"
       y1="346.49475"
       x2="138.252"
       x1="165.30418"
       gradientTransform="matrix(0.79673312,0,0,0.72327694,4.9766494,44.150432)"
       gradientUnits="userSpaceOnUse" />
    <linearGradient
       id="linearGradient142"
       y2="105.35732"
       xlink:href="#linearGradient129"
       y1="336.27997"
       x2="333.28841"
       x1="248.28214"
       gradientTransform="matrix(0.7020642,0,0,0.82080624,4.9766494,44.150432)"
       gradientUnits="userSpaceOnUse" />
    <linearGradient
       id="linearGradient71"
       y2="760.15631"
       xlink:href="#linearGradient129"
       y1="560.42816"
       x2="22.310747"
       x1="107.95903"
       gradientTransform="matrix(1.4173965,0,0,0.39588984,7.06361,38.077495)"
       gradientUnits="userSpaceOnUse" />
  </defs>
  <path
     id="path70"
     style="fill:url(#linearGradient71);fill-rule:evenodd;stroke-width:0.749088"
     d="m 34.828382,247.45716 c -5.347312,0 -14.695127,31.61723 -8.933129,34.94216 -0.688188,10.07348 107.227117,57.70049 173.384747,28.61871 11.79011,12.43434 29.72289,11.58413 37.96487,11.72077 11.76794,7.02942 15.24953,3.99295 29.442,3.05165 20.01731,-34.07677 51.89125,-33.77312 40.81076,-33.77312 -51.45511,-40.03583 -31.57086,22.75074 -47.10127,27.44208 -5.80266,-6.703 -52.80784,-21.91571 -63.14914,-27.20675 C 125.78959,337.28348 55.751196,281.4656 34.824686,247.45716 Z" />
  <path
     id="path133"
     style="fill:#3069bf;fill-rule:evenodd;stroke-width:0.759117"
     d="m 274.42524,282.6726 c 1.30568,-2.93778 6.81687,-45.59257 10.48341,-45.59257 27.82923,-6.42972 23.76036,52.76623 23.76036,57.38925 -14.31694,-9.83057 -38.38855,-11.79668 -34.24377,-11.79668 z" />
  <path
     id="path58"
     style="fill:#0094de;fill-rule:evenodd;stroke:#00ffff;stroke-width:0.754114"
     d="M 33.334985,249.92429 C 38.399814,183.1144 64.029124,91.063865 137.07592,88.945929 c 12.91258,-1.01494 17.40655,0.623235 33.59093,2.571129 103.01218,12.344762 116.93439,119.485022 112.24304,164.735992 -11.2577,11.97128 -11.2577,12.60893 -22.51541,19.0007 -3.75004,-28.8844 -16.89035,-87.85262 -45.03841,-78.10555 -31.8981,8.44138 -18.76538,93.64468 -18.76538,103.42969 C 127.16185,344.90274 49.504179,283.69513 33.334985,249.92201 Z" />
  <path
     id="path128"
     style="fill:url(#linearGradient132);fill-rule:evenodd;stroke-width:0.759117"
     d="M 73.886259,122.59 C 61.533147,140.17874 50.973829,154.23759 33.82993,249.21831 78.509282,303.85197 135.71862,357.08125 271.66889,261.73615 305.28259,226.62699 259.73557,136.67921 239.05722,120.23673 226.46347,106.20825 190.83051,89.837132 147.26479,87.741969 124.93156,85.656674 96.373583,94.543658 73.8855,122.59 Z" />
  <path
     id="path62"
     style="fill:#7fb8ff;fill-rule:evenodd;stroke-width:0.759117"
     d="m 281.73554,313.78881 c -1.6321,-44.33244 7.76577,-64.7375 13.76279,-70.36256 8.74503,-8.43379 10.05071,32.83181 12.51025,51.59718 5.30623,-3.75762 6.04257,-9.6256 10.42268,-12.19901 -2.4975,-75.75229 -16.45766,-64.50217 -26.68297,-60.50922 -19.62317,8.69949 -33.15823,60.52441 -23.77554,103.4297 0,1.41196 11.88777,-9.14736 13.76279,-11.95609 z" />
  <path
     id="path61"
     style="fill:#0093df;fill-rule:evenodd;stroke-width:0.759117"
     d="m 195.83386,298.07509 c 15.88831,6.33103 42.74588,15.96423 72.76896,28.37579 -10.39991,-86.35715 17.08013,-100.61337 33.98567,-105.77537 -25.89349,-8.44138 -71.73657,-31.42744 -90.28179,-25.09641 -27.48763,27.44208 -20.22288,66.61252 -16.47284,102.49599 z" />
  <path
     id="path80"
     style="fill:none;stroke:#00ffff;stroke-width:1.89779"
     d="m 39.663744,214.5798 c 19.526768,46.07081 105.502086,79.37328 151.793046,58.41406 7.60635,-4.19792 59.97783,9.73188 73.02706,15.77445 3.36288,3.27179 14.12716,-3.87909 17.39137,-7.53044" />
  <path
     id="path81"
     style="fill:none;stroke:#00ffff;stroke-width:1.89779"
     d="m 45.305502,186.27233 c 14.178788,33.014 98.404338,70.43088 140.725118,57.8599 3.21106,0 4.88112,-4.36493 7.50767,-1.41196 3.46916,0 66.37719,18.29472 74.91726,18.29472 6.17921,0 12.03959,-0.67561 15.76686,6.15644" />
  <path
     id="path82"
     style="fill:none;stroke:#00ffff;stroke-width:1.89779"
     d="m 55.926309,159.69564 c 37.737986,52.21207 113.207121,60.12207 141.833431,55.40795 4.19791,-4.97981 76.5114,16.01737 82.0985,19.1753 2.74801,4.66098 9.22328,13.24659 9.22328,16.3362" />
  <path
     id="path83"
     style="fill:none;stroke:#00ffff;stroke-width:1.89779"
     d="m 67.185533,138.59218 c 44.560927,40.68868 96.650777,67.29573 179.584317,27.92033 1.99648,-2.24699 18.0518,-9.45101 13.39082,-18.37063" />
  <path
     id="path84"
     style="fill:none;stroke:#00ffff;stroke-width:1.89779"
     d="m 245.27515,198.18287 c 18.63632,-5.7617 30.04585,-18.27194 24.45875,-29.46133" />
  <path
     id="path86"
     style="fill:none;stroke:#00ffff;stroke-width:1.89779"
     d="m 83.621176,115.74428 c 4.137188,5.76777 3.643762,6.15492 7.705038,11.91662 27.624266,27.35858 85.400666,40.93918 139.449796,16.03255 6.18681,-4.33456 16.69299,-11.9485 13.26937,-16.66262" />
  <path
     id="path87"
     style="fill:none;stroke:#00ffff;stroke-width:1.89779"
     d="m 105.35469,97.092014 c 0.4327,3.145026 2.07239,9.821456 5.03295,12.441926 17.49765,14.55911 62.72584,21.96809 100.9322,10.15243 7.68986,-2.36161 11.50063,-7.00741 7.94796,-12.77214" />
  <path
     id="path88"
     style="fill:none;stroke:#00ffff;stroke-width:1.89779"
     d="m 46.703796,267.33084 c -0.466098,-14.63577 4.738408,-22.93292 6.919352,-31.14657" />
  <path
     id="path89"
     style="fill:none;stroke:#00ffff;stroke-width:1.89779"
     d="m 74.596793,217.03175 c -4.308749,8.38824 -6.720464,20.01032 -7.6519,30.04585" />
  <path
     id="path90"
     style="fill:none;stroke:#00ffff;stroke-width:1.89779"
     d="m 90.863153,262.39658 c -3.264204,8.90445 -5.298637,16.63985 -4.835576,35.07121" />
  <path
     id="path91"
     style="fill:none;stroke:#00ffff;stroke-width:1.89779"
     d="m 146.31665,279.11234 c -1.39678,10.69596 0.91853,25.39247 -0.75912,34.8207" />
  <path
     id="path98"
     style="fill:none;stroke:#00ffff;stroke-width:1.89779"
     d="m 167.60988,186.2116 c -1.39677,7.12811 -0.0228,17.52042 -1.41955,27.98105" />
  <path
     id="path99"
     style="fill:none;stroke:#00ffff;stroke-width:1.89779"
     d="m 122.92066,176.88205 c -5.13922,4.72171 -5.51878,12.66207 -6.91555,26.15917" />
  <path
     id="path100"
     style="fill:none;stroke:#00ffff;stroke-width:1.89779"
     d="m 81.465284,151.97542 c -3.870738,4.71412 -5.987916,13.01886 -9.71518,25.07363" />
  <path
     id="path101"
     style="fill:none;stroke:#00ffff;stroke-width:1.89779"
     d="m 94.119765,194.09882 c -5.738925,9.08663 -10.620048,12.71521 -8.75262,28.14806" />
  <path
     id="path102"
     style="fill:none;stroke:#00ffff;stroke-width:1.89779"
     d="m 65.615679,172.33494 c -7.920628,6.11848 -11.698753,23.04679 -11.698753,26.53873" />
  <path
     id="path103"
     style="fill:none;stroke:#00ffff;stroke-width:1.89779"
     d="m 145.21593,212.06712 c -2.54304,4.71412 -0.19737,19.78259 -4.39529,30.92643" />
  <path
     id="path104"
     style="fill:none;stroke:#00ffff;stroke-width:1.89779"
     d="m 117.91808,238.46921 c -1.39677,4.51675 -8.26678,18.13531 -6.87001,31.45782" />
  <path
     id="path105"
     style="fill:none;stroke:#00ffff;stroke-width:1.89779"
     d="m 164.61896,246.22739 c 0,6.58914 0.29606,23.53263 -1.57137,31.48058" />
  <path
     id="path108"
     style="fill:none;stroke:#00ffff;stroke-width:1.89779"
     d="m 239.99928,138.42518 c 6.74856,0.52379 15.1368,17.09531 15.1368,19.86609" />
  <path
     id="path109"
     style="fill:none;stroke:#00ffff;stroke-width:1.89779"
     d="m 219.19948,148.43793 c 1.39677,6.43732 8.87408,16.70058 7.94795,25.33174" />
  <path
     id="path110"
     style="fill:none;stroke:#00ffff;stroke-width:1.89779"
     d="m 209.42964,120.62388 c 5.39732,3.67413 16.02496,17.59634 16.02496,23.54022" />
  <path
     id="path111"
     style="fill:none;stroke:#00ffff;stroke-width:1.89779"
     d="m 162.2657,90.609154 c 7.14329,2.095922 15.37971,11.674456 22.83424,17.187926 -12.19142,-0.61412 -34.60056,-3.74548 -40.18766,-5.01776" />
  <path
     id="path112"
     style="fill:none;stroke:#00ffff;stroke-width:1.89779"
     d="m 161.94687,91.132945 c -6.32344,0 -21.84739,1.271521 -24.96736,1.271521 -0.34919,3.012176 5.38973,4.303434 8.18328,9.821454" />
  <path
     id="path113"
     style="fill:none;stroke:#00ffff;stroke-width:1.89779"
     d="m 135.33982,92.346773 c -10.45304,0.523791 -20.61762,3.173109 -28.85404,7.365713" />
  <path
     id="path114"
     style="fill:none;stroke:#00ffff;stroke-width:1.89779"
     d="m 160.99038,125.86938 c 1.27532,7.20402 0.80467,22.34841 0.34161,28.83127" />
  <path
     id="path115"
     style="fill:none;stroke:#00ffff;stroke-width:1.89779"
     d="m 182.60244,156.30239 c 2.33049,5.42768 4.54712,21.28564 4.19033,27.45726" />
  <path
     id="path116"
     style="fill:none;stroke:#00ffff;stroke-width:1.89779"
     d="m 142.10355,153.29628 c 0,7.03702 -2.33049,18.568 -3.2642,26.21231" />
  <path
     id="path117"
     style="fill:none;stroke:#00ffff;stroke-width:1.89779"
     d="m 111.98179,143.47331 c -9.57247,6.80928 -9.8913,12.14587 -12.214197,19.3423" />
  <path
     id="path118"
     style="fill:none;stroke:#00ffff;stroke-width:1.89779"
     d="m 108.9605,109.20448 c -6.92315,4.7164 -10.938874,13.54493 -15.1292,20.1948" />
  <path
     id="path119"
     style="fill:none;stroke:#00ffff;stroke-width:1.89779"
     d="m 86.270495,120.65425 c -5.665291,0 -11.405734,17.11809 -12.33793,23.20621" />
  <path
     id="path120"
     style="fill:none;stroke:#00ffff;stroke-width:1.89779"
     d="m 298.62589,241.3159 c 0,-5.94388 4.57748,-20.58725 6.42973,-20.58725" />
  <path
     id="path121"
     style="fill:none;stroke:#00ffff;stroke-width:1.89779"
     d="m 303.94731,255.38993 c 2.80114,-4.06127 7.80372,-8.28196 10.94646,-9.85334" />
  <path
     id="path122"
     style="fill:none;stroke:#00ffff;stroke-width:1.89779"
     d="m 306.74845,275.44581 c 6.39176,-2.61896 10.46822,-8.27438 10.46822,-10.73392" />
  <path
     id="path124"
     style="fill:none;stroke:#00ffff;stroke-width:1.89779"
     d="m 146.05855,102.65406 c -9.31437,5.97805 -10.11903,14.67374 -12.10792,18.34179" />
  <path
     id="path125"
     style="fill:none;stroke:#00ffff;stroke-width:1.89779"
     d="m 184.26491,107.37046 c 3.05924,4.1926 8.38824,3.65591 11.65245,14.67297" />
  <path
     id="path126"
     style="fill:none;stroke:#00ffff;stroke-width:1.89779"
     d="m 170.28957,94.791889 c 3.72726,0 14.13476,-1.047582 35.41281,5.764731" />
  <path
     id="path127"
     style="fill:none;stroke:#00ffff;stroke-width:1.89779"
     d="m 153.05002,91.123835 c -3.26421,-2.861112 -3.11238,-1.047581 -6.52082,-2.619713" />
  <path
     id="path134"
     style="fill:none;stroke:#00ffff;stroke-width:1.89779"
     d="m 305.87546,274.81574 c -3.3477,-1.88261 -16.48802,-0.78948 -20.96681,-4.71412" />
  <path
     id="path135"
     style="fill:none;stroke:#00ffff;stroke-width:1.89779"
     d="m 302.37593,255.94409 c -8.38065,0.66043 -7.03701,0.78948 -13.27695,0" />
  <path
     id="path141"
     style="fill:url(#linearGradient142);fill-rule:evenodd;stroke-width:0.759117"
     d="m 197.07881,297.08823 c -16.07051,-74.98558 12.30528,-101.8811 20.0331,-101.67613 11.41712,-2.61896 61.73899,15.31139 85.49935,24.37524 -30.28118,8.7754 -41.93363,51.53646 -34.70683,104.2875 -1.96612,2.20903 -67.54624,-24.62575 -70.82562,-26.98661 z" />
  <path
     id="path85"
     style="fill:none;stroke:#00ffff;stroke-width:1.89779"
     d="m 270.75871,207.34542 c 3.92463,0 10.42267,-4.85076 6.94592,-12.9885" />
  <path
     id="path92"
     style="fill:none;stroke:#00ffff;stroke-width:1.89779"
     d="m 207.30411,273.48728 c -2.80114,9.79261 -2.04202,20.94404 -2.04202,26.31859" />
  <path
     id="path93"
     style="fill:none;stroke:#00ffff;stroke-width:1.89779"
     d="m 244.68304,281.92867 c -4.19033,8.6767 -2.35327,27.86718 -2.35327,33.97048" />
  <path
     id="path94"
     style="fill:none;stroke:#00ffff;stroke-width:1.89779"
     d="m 228.42275,251.32866 c -5.12404,4.94185 -5.32141,18.61355 -5.32141,24.61057" />
  <path
     id="path95"
     style="fill:none;stroke:#00ffff;stroke-width:1.89779"
     d="m 263.60023,228.64624 c -4.61543,0 -14.05884,18.19604 -13.12513,27.76091" />
  <path
     id="path96"
     style="fill:none;stroke:#00ffff;stroke-width:1.89779"
     d="m 214.46259,215.84753 c -5.12404,6.74855 -7.62913,22.9557 -7.62913,29.46892" />
  <path
     id="path97"
     style="fill:none;stroke:#00ffff;stroke-width:1.89779"
     d="m 256.85168,203.51187 c -11.65244,-1.60173 -18.80333,17.77093 -19.38025,17.77093" />
  <path
     id="path106"
     style="fill:none;stroke:#00ffff;stroke-width:1.89779"
     d="m 204.79903,179.5921 c 0,7.08256 1.25254,15.57708 1.25254,22.65205" />
  <path
     id="path107"
     style="fill:none;stroke:#00ffff;stroke-width:1.89779"
     d="m 239.82469,170.42955 c 5.13163,4.88113 13.70965,20.68594 13.70965,25.46838" />
  <path
     id="path123"
     style="fill:none;stroke:#00ffff;stroke-width:1.89779"
     d="m 268.24603,183.00812 c 5.13163,4.88113 8.58561,17.01941 8.58561,21.80184" />
  <path
     id="path136"
     style="fill:none;stroke:#00ffff;stroke-width:1.89779"
     d="M 194.04993,272.45488 V 241.79415" />
  <path
     id="path140"
     style="fill:none;stroke:#00ffff;stroke-width:1.89779"
     d="m 200.34301,211.92289 c 5.5871,-12.47229 10.36195,-18.86406 27.25989,-18.08217" />
  <metadata
     id="metadata70">
    <rdf:RDF>
      <cc:Work>
        <dc:format>image/svg+xml</dc:format>
        <dc:type
           rdf:resource="http://purl.org/dc/dcmitype/StillImage" />
        <cc:license
           rdf:resource="http://creativecommons.org/publicdomain/zero/1.0/" />
        <dc:publisher>
          <cc:Agent
             rdf:about="http://openclipart.org/">
            <dc:title>Openclipart</dc:title>
          </cc:Agent>
        </dc:publisher>
        <dc:title>home10</dc:title>
        <dc:date>2011-01-21T16:58:37</dc:date>
        <dc:description>Originally uploaded by Jose Hevia for OCAL 0.18</dc:description>
        <dc:source>https://openclipart.org/detail/107341/home10-by-anonymous</dc:source>
        <dc:creator>
          <cc:Agent>
            <dc:title>Anonymous</dc:title>
          </cc:Agent>
        </dc:creator>
        <dc:subject>
          <rdf:Bag>
            <rdf:li>fix</rdf:li>
            <rdf:li>keyword</rdf:li>
            <rdf:li>librarians</rdf:li>
            <rdf:li>tag</rdf:li>
          </rdf:Bag>
        </dc:subject>
      </cc:Work>
      <cc:License
         rdf:about="http://creativecommons.org/publicdomain/zero/1.0/">
        <cc:permits
           rdf:resource="http://creativecommons.org/ns#Reproduction" />
        <cc:permits
           rdf:resource="http://creativecommons.org/ns#Distribution" />
        <cc:permits
           rdf:resource="http://creativecommons.org/ns#DerivativeWorks" />
      </cc:License>
    </rdf:RDF>
  </metadata>
</svg>
