<?xml version="1.0" encoding="UTF-8" standalone="no"?>
<svg
   xmlns:dc="http://purl.org/dc/elements/1.1/"
   xmlns:cc="http://creativecommons.org/ns#"
   xmlns:rdf="http://www.w3.org/1999/02/22-rdf-syntax-ns#"
   xmlns:svg="http://www.w3.org/2000/svg"
   xmlns="http://www.w3.org/2000/svg"
   xmlns:sodipodi="http://sodipodi.sourceforge.net/DTD/sodipodi-0.dtd"
   xmlns:inkscape="http://www.inkscape.org/namespaces/inkscape"
   viewBox="0 0 472.44094 332.59843"
   version="1.1"
   id="svg6"
   sodipodi:docname="japan.svg"
   width="125mm"
   height="88mm"
   inkscape:version="1.0.2-2 (e86c870879, 2021-01-15)">
  <metadata
     id="metadata12">
    <rdf:RDF>
      <cc:Work
         rdf:about="">
        <dc:format>image/svg+xml</dc:format>
        <dc:type
           rdf:resource="http://purl.org/dc/dcmitype/StillImage" />
        <dc:title></dc:title>
      </cc:Work>
    </rdf:RDF>
  </metadata>
  <defs
     id="defs10" />
  <sodipodi:namedview
     pagecolor="#ffffff"
     bordercolor="#666666"
     borderopacity="1"
     objecttolerance="10"
     gridtolerance="10"
     guidetolerance="10"
     inkscape:pageopacity="0"
     inkscape:pageshadow="2"
     inkscape:window-width="1920"
     inkscape:window-height="1017"
     id="namedview8"
     showgrid="false"
     units="mm"
     inkscape:zoom="1.2280088"
     inkscape:cx="189.04955"
     inkscape:cy="152.57836"
     inkscape:window-x="-8"
     inkscape:window-y="-8"
     inkscape:window-maximized="1"
     inkscape:current-layer="svg6" />
  <path
     d="M 0.28764764,10.287648 H 472.87623 V 325.3467 H 0.28764764 Z"
     fill="#ffffff"
     stroke="#000000"
     id="path2"
     style="stroke-width:1.5753" />
  <path
     d="m 331.09966,167.81718 a 94.51772,94.51772 0 1 1 -189.03544,0 94.51772,94.51772 0 1 1 189.03544,0 z"
     fill="#be0026"
     id="path4"
     style="stroke-width:1.5753" />
  <path
     d="m 225.41858,237.20418 -0.13125,-0.27022 0.38603,-1.36653 -0.66397,-1.08087 0.0849,-1.1272 0.35514,-1.05771 -0.19301,-0.24705 -0.68713,0.27794 -0.88014,-0.27022 v 0 l -0.74889,-1.21212 -0.24705,-0.93419 v 0 l 0.16985,-1.69079 1.30476,-2.293 0.98823,0.11581 1.28161,-0.38602 1.14263,-0.87242 -0.0154,0.44007 0.91102,0.67168 -0.0232,0.50184 0.38603,0.16213 -0.0695,0.37058 0.20846,0.24706 0.24705,0.11581 0.23162,-0.16213 0.72573,0.3011 0.40147,0.54815 0.65624,-0.13125 0.71029,-0.56359 0.48639,-0.008 0.57904,0.36286 -0.054,0.18529 0.64852,0.0386 -0.0154,0.23933 0.76433,0.38603 1.32793,-1.08088 0.61764,-0.0618 v 0 l -0.24706,0.6408 0.49412,0.62537 -0.008,0.39374 0.97278,-0.20073 0.65625,-0.42463 1.2044,0.23162 0.16985,0.3011 0.64852,-0.20846 v 0 l -0.23933,0.75661 0.40146,0.38603 -0.44779,0.44007 0.0618,0.36286 -0.35515,0.1853 -1.12719,1.5441 -0.0232,0.81837 -0.98823,1.49006 -2.12314,1.18124 -0.33199,0.94963 0.12353,1.79116 v 0 l -2.63269,0.60992 -2.64814,0.94962 -1.56727,0.20846 -0.20073,-0.16213 0.61764,-1.32021 0.37831,0.0386 0.19301,0.44007 1.82204,-0.78749 0.66397,-0.40919 -0.0772,-0.3397 0.34742,-0.27794 0.37059,0.11581 0.16985,-0.14669 0.16213,-0.88014 -0.44007,-0.54044 -1.30477,-0.23934 -0.40146,0.35515 -0.1853,0.71801 -0.62536,-0.44007 -1.64447,0.19301 -1.09631,-1.05771 0.23933,-0.83382 -0.3397,-0.14669 -0.32426,0.45551 -0.20845,1.71396 0.78749,0.71801 0.11581,0.6794 -1.30477,-0.46323 z"
     title="Aichi"
     id="JP-23"
     style="stroke-width:0.772052" />
  <path
     d="m 274.25086,142.65098 -0.53271,-2.12314 -1.07315,-1.25073 0.39374,-0.62536 0.57132,0.17757 0.46323,0.68713 0.14669,-0.88014 -0.20073,-0.31654 0.30882,-0.47095 0.14669,-1.08088 -0.2625,-1.08859 -0.82609,-0.3397 -0.34743,0.33198 -0.41691,0.62536 -0.47095,1.59043 0.41691,0.32426 -0.0618,0.97279 -0.57904,-0.2239 -0.68713,0.11581 -0.14669,0.19301 0.13125,0.65625 -1.62131,-0.0695 -0.74117,-1.42057 -0.16985,-1.00367 0.10809,-0.5636 1.49006,1.01911 0.51727,-0.16213 1.14264,-1.1272 0.67168,-1.21212 0.61765,-1.8452 0.46323,-2.31616 0.0232,-1.28933 -1.32793,-1.39741 v 0 l 0.39375,-0.0849 0.87241,0.27022 0.20074,-0.67168 0.59448,-0.27022 0.41691,0.24706 0.16213,0.3783 1.14263,-0.10037 0.62537,0.21618 1.04227,-0.29338 0.66396,0.13897 0.38603,-0.77205 1.01138,-0.0849 0.20846,0.64852 h 0.61764 l 0.88786,0.91875 0.77205,-0.64853 0.96507,0.64853 0.60992,-0.4864 0.58676,-0.0386 0.55587,-0.47867 0.54816,0.0772 0.18529,-0.83381 0.94963,-0.37831 -0.12353,1.81432 1.64447,-0.17757 0.21618,1.42058 -0.31655,0.20845 -0.38602,0.9419 0.10809,1.01139 v 0 l -0.30883,0.44007 -0.47095,0.16985 -0.62536,0.85698 0.30882,0.37831 -0.11581,1.2044 -0.40146,0.35514 -0.0386,2.0691 0.47868,1.93013 -0.43235,0.13897 -0.37831,-0.37058 -0.63308,0.34742 0.054,0.81838 0.8647,0.50955 -0.63308,1.13492 -0.3011,0.10808 0.50955,0.9033 0.10037,0.83382 -0.39375,0.91874 -0.20845,-0.0232 -0.47095,0.66397 -0.32427,0.0849 0.16214,0.55588 -0.33199,1.03455 -0.6022,0.65624 0.0386,0.62536 -0.34743,0.0926 -0.0386,0.50183 0.3011,0.0695 0.46323,0.96506 -0.11581,0.71029 0.40919,0.57904 0.8647,0.59448 -0.25478,0.81838 0.65625,0.3397 -0.46324,0.23161 -0.36286,0.64081 0.20845,0.16985 -0.21617,0.74889 0.74889,0.29338 0.10809,0.30882 -0.60992,1.05771 0.0618,0.88786 v 0 l -0.54816,0.13125 -1.26616,1.21212 -1.35881,0.27794 -0.20846,-0.13897 v 0 l -0.18529,-0.34742 -1.17352,-0.40919 -0.44779,-1.38969 -0.81837,-0.0618 -0.27022,-0.59448 -0.83382,0.20846 -2.37792,-0.72573 -0.60992,-0.54044 -0.54816,-0.13897 -0.15441,-0.9033 -0.75661,0.18529 -0.28566,0.35515 -1.93785,-0.31654 v 0 l 0.525,-1.13492 -0.17757,-0.71801 0.3011,-0.6022 -0.0309,-0.40919 0.30111,-0.47095 0.54043,-0.0849 0.72573,-1.84521 0.61764,-3.2349 z"
     title="Akita"
     id="JP-05"
     style="stroke-width:0.772052" />
  <path
     d="m 290.56432,119.67471 0.71029,-0.6408 0.44779,-0.81065 0.44007,-1.4283 0.17757,-1.89153 0.45551,-0.88014 -0.55588,-1.59042 -0.66396,-0.80294 -0.60992,-0.0618 -0.65625,1.243 -0.87241,0.62536 -1.17352,-0.32426 -0.51728,0.50184 -1.39741,0.26249 -0.65625,0.67169 -0.718,-0.36287 0.53271,-3.54371 0.32426,-0.50956 0.23934,-1.42057 1.10403,-1.56727 -0.16985,-0.63308 0.23162,-0.42463 1.32793,1.21212 1.01911,0.0849 0.68712,0.38602 1.21212,1.52094 1.1272,0.65625 0.68713,0.0849 0.77205,-0.28566 1.57498,-1.28932 -1.15035,5.28855 -0.0772,3.92975 0.42463,4.28489 1.05771,3.75217 0.91102,0.84154 0.51728,-0.3011 0.17757,0.42462 1.47462,1.45918 v 0 l -0.36287,0.41691 -1.07315,0.47867 -0.0849,0.64081 -0.68713,0.53271 -0.95735,-0.59448 -0.52499,0.0695 -1.32793,0.84925 -0.525,-0.83381 -1.51322,1.15035 -1.17352,0.29338 -0.57131,0.38603 -0.0309,0.55588 -0.35514,0.0154 -0.77205,0.6022 -0.72573,-0.008 -0.35514,-0.525 v 0 l -0.10809,-1.01138 0.38602,-0.94191 0.31655,-0.20845 -0.21618,-1.42058 -1.64447,0.17757 0.12353,-1.81432 -0.94963,0.37831 -0.18529,0.83381 -0.54816,-0.0772 -0.55587,0.47867 -0.58676,0.0386 -0.60992,0.4864 -0.96507,-0.64853 -0.77205,0.64853 -0.88786,-0.91875 h -0.61764 l -0.20846,-0.64852 -1.01138,0.0849 -0.38603,0.77205 -0.66396,-0.13897 -1.04227,0.29338 -0.62537,-0.21618 -1.14263,0.10037 -0.16213,-0.3783 -0.41691,-0.24706 -0.59448,0.27022 -0.20074,0.67168 -0.87241,-0.27022 -0.39375,0.0849 v 0 l 0.20073,-1.37425 -0.14669,-1.11176 -0.34742,-0.66396 -0.74117,0.0386 -0.11581,-0.63308 1.37425,-1.09632 0.7875,-1.38969 0.50183,-0.3397 0.47095,-0.19302 0.94963,0.53272 1.10403,-0.82609 0.62536,-0.0772 0.32426,-0.47095 0.7875,-2.78711 0.054,-2.9338 -0.53271,-0.57904 -0.54044,-0.0618 0.13125,-0.3011 0.6794,0.17757 0.29338,-0.33198 0.30882,-2.27755 0.84154,0.53271 0.51728,0.76433 0.49411,0.27794 0.51727,-0.14669 0.77206,-0.77977 0.84153,0.29338 0.50184,0.55588 -0.0849,1.75255 0.3011,1.94558 0.5636,2.53233 0.71801,0.91874 1.02683,-0.0849 0.91874,-0.98822 0.16985,-0.43235 -0.16985,-0.95735 0.25478,-1.11947 1.15035,0.41691 0.525,0.74116 -0.13897,0.42463 0.5636,-0.008 0.71028,0.34743 0.40919,0.6794 z"
     title="Aomori"
     id="JP-02"
     style="stroke-width:0.772052" />
  <path
     d="m 270.90016,225.8087 0.10809,-0.16213 0.74117,0.32426 0.3011,-0.36287 -0.23162,-0.55587 0.0695,-0.44779 1.04227,-0.29338 -0.0926,-0.39375 0.21617,-0.10037 0.1853,0.29338 1.16579,-1.66763 0.44007,0.34742 0.17758,-0.27021 -0.41691,-0.99595 -0.58676,-0.64081 -0.93418,-0.91874 -0.53272,0.2239 -0.27022,-0.58676 v 0 l -0.83381,-1.74484 v 0 l 0.26249,-0.20073 0.16985,-1.02683 -1.29704,-2.48601 -0.0386,-0.80293 -0.54815,-1.0886 v 0 l 0.32426,0.0232 0.25478,0.64852 1.25844,1.55182 0.55588,0.1853 0.15441,0.54815 0.80293,0.54044 1.89925,0.66396 0.44779,0.55588 0.78749,-0.31654 0.66397,0.0849 0.45551,-0.30882 0.61764,0.17757 0.66397,-0.63309 1.55182,-0.40146 0.83382,0.40146 0.70256,-0.0309 0.87242,0.74889 0.94963,0.20074 0.85697,1.18124 1.93013,1.18896 v 0 l -0.0849,0.50183 -0.58676,-0.39375 -1.15808,0.38603 -0.61764,-0.16985 -0.57904,0.14669 -2.09998,1.59815 -1.07315,1.21212 -0.8647,1.66763 -0.2239,1.79116 0.36287,0.94962 -0.47095,2.20035 -0.51728,0.10809 -0.36286,0.78749 -0.21618,0.0772 -1.65991,0.47867 -0.17757,-0.3397 -0.98823,0.14669 -0.62536,0.84925 -1.52094,1.04999 -0.39375,0.93419 0.0772,0.44779 -0.34743,0.47095 -0.80293,0.33198 -0.9033,-0.16213 -0.14669,-0.55588 -1.01139,-0.51727 0.0232,-0.2239 0.61764,0.0849 0.96507,-0.43235 -0.6022,-1.28161 0.35514,-0.38602 -0.27794,-0.27794 0.2239,-0.54044 -0.31654,-0.44007 0.008,-0.6408 0.71029,-0.54816 0.0618,-0.40146 -0.3397,-0.57904 0.0463,-0.3011 -0.57904,-0.35515 z"
     title="Chiba"
     id="JP-12"
     style="stroke-width:0.772052" />
  <path
     d="m 158.89086,264.14108 0.17757,-0.33199 0.27022,-0.20073 0.27022,0.0309 0.0154,-0.15441 -0.22389,-0.10037 -0.29338,-0.12352 -0.36287,0.12352 -0.21617,0.17758 -0.33971,-0.19302 -0.15441,0.29338 -0.30882,-0.10036 -0.10808,-0.17758 h -0.35515 l 0.10037,-0.34742 0.13125,-0.10037 0.10809,-0.0772 0.23933,-0.0926 -0.0232,-0.13125 -0.0309,-0.19301 -0.23162,0.0232 -0.16985,-0.28566 0.27022,-0.22389 -0.054,-0.27794 -0.20846,-0.054 0.27022,-0.24706 0.12353,-0.0309 0.16985,-0.20846 0.0695,-0.35514 -0.17757,0.10037 -0.30882,-0.0386 0.13125,-0.31654 -0.39375,0.0772 -0.25477,-0.27794 -0.17758,0.0463 -0.27021,0.2239 -0.66397,0.46323 -0.40147,0.10809 -0.25477,0.28565 -0.84926,0.25478 -0.44007,0.40919 -0.12353,0.23934 -0.23933,0.21617 -0.39375,0.0463 -0.0232,-0.18529 0.27022,-0.16985 0.008,-0.13125 -0.39375,0.0154 -0.65624,0.54816 -0.39375,0.23933 -0.19301,0.008 1.65991,-1.39742 0.39375,-0.23161 0.50955,-0.27794 0.44007,0.0618 0.23934,-0.25478 0.23933,-0.10808 0.35515,-0.0309 0.18529,-0.10808 0.0772,-0.13897 0.89558,-0.40147 0.66397,-0.49411 0.57904,-0.30882 0.16213,-0.38603 0.6408,-0.76433 0.48639,-0.35514 1.19668,-0.43235 0.94191,-0.70257 0.16213,-0.18529 0.28566,-0.75661 0.34742,-0.30883 -0.17757,-0.55587 -0.008,-0.76433 0.15441,-0.80294 0.18529,-0.50955 0.33198,0.13125 0.33199,-0.2239 0.26249,-0.9419 0.0541,-0.47867 1.36653,-1.28933 0.85698,-0.13125 -0.0463,-0.34742 0.20074,-0.13125 -0.11581,-0.43235 0.27794,-0.46323 0.57904,0.67168 0.75661,1.0886 0.55588,1.14263 0.29337,0.46323 0.10037,0.33199 0.38603,0.27794 0.73345,-0.24706 1.06543,-0.2625 0.28566,-0.0772 -0.0926,-0.35515 0.92646,-0.15441 0.1853,-0.20073 0.29338,0.0386 0.28566,0.25478 0.54043,-0.23162 0.525,0.0772 0.37058,0.0772 0.5636,0.25478 0.38603,-0.054 0.53271,-0.38603 0.15441,-0.2625 0.10809,-0.3397 0.12353,-0.0618 0.30882,-0.20846 v 0 l 0.25478,0.20846 0.73345,0.10036 0.47095,0.2625 v 0 l -0.2239,0.525 0.20846,0.3783 v 0.80293 l -0.16986,0.47096 -0.26249,0.22389 v 0 l -0.31654,0.008 -0.50184,-0.008 -0.36286,0.25478 -0.39375,-0.2625 -0.16213,0.0309 -0.43235,0.59448 -0.16213,0.20846 -0.15441,0.12353 -1.59815,0.054 -0.61764,-0.10037 -1.13492,0.0154 -0.15441,0.13125 -0.16985,0.5636 -0.13897,0.0849 -0.40146,0.14669 -0.2625,-0.2625 -0.15441,0.0154 -0.20074,0.53271 -0.3011,0.60993 -0.30882,0.30882 -0.27022,0.38602 -0.0463,0.42463 -0.16985,0.21618 -0.47095,0.0772 -0.13897,0.50183 -0.19301,0.5636 -0.14669,0.35515 0.22389,0.22389 0.0309,0.40147 -0.27794,0.20845 -0.44006,0.67941 -0.008,0.20845 -0.92646,0.2625 -0.16213,-0.10037 -0.50955,0.0618 -1.00367,-0.16213 -0.31654,0.0849 -0.24706,0.23162 0.27022,0.24705 0.11581,0.72573 0.11581,0.15441 h 0.15441 l 0.17757,0.55588 0.34742,0.10809 0.20846,0.27794 0.0309,0.44007 -0.0618,0.16985 -0.61764,0.35514 -0.93418,0.32426 -0.23934,0.40147 -0.13897,0.88014 -0.33198,0.0232 -0.13125,0.11581 -0.10809,0.36286 -0.54815,0.69485 -0.14669,0.054 -0.73345,-0.71028 -0.0849,-0.20846 -0.15441,0.054 -0.10808,0.22389 0.22389,0.47867 -0.0232,0.20074 0.36286,0.39374 0.16213,0.0386 0.0695,0.23161 -0.15441,0.71029 0.23161,0.23934 0.16214,0.72572 -0.008,1.02683 -0.31654,0.0772 -0.0386,0.29338 v 0 l -0.24706,-0.0926 -0.72572,0.27022 -0.10809,-0.20845 -0.19302,-0.2625 -0.0695,-0.13897 -0.35514,0.12353 -0.14669,0.0695 -0.20074,0.0463 -0.0154,0.22389 0.0154,0.10037 -0.14669,0.20073 -0.27022,-0.0232 -0.20845,0.008 -0.19301,-0.0309 0.0618,-0.28566 -0.24705,-0.29338 0.0772,-0.0926 0.27794,-0.0309 0.27022,-0.20073 -0.4864,-0.2625 0.21618,-0.17757 0.18529,0.10808 0.11581,0.0309 0.10809,-0.0772 -0.16213,-0.3011 0.0772,-0.20073 -0.23161,-0.10809 -0.0927,-0.0309 -0.008,-0.6408 -0.21618,-0.0309 -0.27021,0.25478 -0.32427,-0.18529 -0.29338,0.13125 -0.10036,0.0618 -0.0695,0.16213 -0.0386,0.2239 -0.27794,-0.13897 0.25478,-0.30882 0.0154,-0.29338 0.11581,-0.27022 0.16985,-0.0386 0.15441,0.0849 0.10809,0.2625 0.25477,-0.0463 0.44007,-0.16986 0.10037,-0.20845 -0.23162,-0.0927 0.16214,-0.3011 0.29338,-0.46323 -0.0154,-0.25477 -0.3011,-0.0695 -0.1158,0.008 -0.16986,0.0618 -0.1158,0.10036 -0.16985,-0.10808 0.0386,-0.19302 -0.27794,-0.13125 0.11581,-0.25477 0.22389,-0.27022 -0.40146,-0.43235 0.39374,0.15441 0.53272,0.2625 0.22389,0.25477 0.27022,0.0155 -0.0618,-0.28566 -0.15441,-0.31655 0.23933,-0.20845 0.43235,0.0309 0.17757,-0.0232 0.0695,-0.12353 -0.10809,-0.26249 -0.21617,0.0309 -0.29338,-0.2625 0.3011,-0.16213 0.0309,-0.23934 -0.61764,0.0386 z"
     title="Ehime"
     id="JP-38"
     style="stroke-width:0.772052" />
  <path
     d="m 208.44888,222.00248 0.89558,0.55588 0.054,0.29338 0.23934,-0.0309 0.32426,-0.20074 -0.50184,-0.62536 0.15442,-0.10037 0.4169,0.27794 0.28566,-0.50183 -0.44779,-0.34743 -0.19301,-0.64852 0.45551,0.11581 0.33198,0.53271 0.58676,-0.30882 0.11581,0.27022 0.9419,-0.27794 0.17757,-0.33198 -0.19301,-0.24706 0.0463,-0.73345 -0.33198,-0.52499 0.95735,-0.76433 0.3011,0.46323 -0.17757,1.10403 0.27793,0.41691 0.46324,-0.0849 0.37058,-1.17352 0.0154,-0.98823 -0.44007,-0.87242 -1.17352,-1.17352 0.0618,-0.84925 -0.60992,-0.91875 0.81837,-0.9805 0.27022,-1.15036 1.62131,-2.38564 -0.18529,-0.50955 h 0.65624 l 1.18124,-0.84154 v 0 l 1.29705,1.22756 0.19301,0.96507 0.31654,0.29338 0.69485,-0.10037 0.50183,0.58676 0.36287,0.0386 1.35109,-0.32426 1.43601,1.1272 0.1853,0.47867 1.45917,-0.37059 v 0 l 0.16213,0.37831 -0.3783,0.28566 -0.19301,1.07315 0.38602,0.28566 -0.0386,0.40919 0.60992,0.21617 -0.10037,0.37831 0.49412,0.40918 0.23161,0.94191 -0.48639,0.35514 -0.13125,0.6022 -1.03455,-0.0154 -0.87242,0.37831 -0.32426,-0.40147 -0.35514,0.34742 -0.40147,-0.13125 -0.37831,0.33971 -0.63308,-0.16213 -0.43235,0.59448 -0.23161,-0.39375 -0.81838,0.0154 -0.9033,-0.32426 -0.69485,0.37058 -0.008,0.74889 -0.76433,1.26617 v 0 l -1.39741,-0.72573 -0.51728,0.10037 -0.23933,0.51727 0.6408,1.35881 -0.10037,0.57904 -0.84925,-0.24705 -0.27022,0.82609 -0.99595,0.10037 -0.34742,0.67168 -0.35515,0.0772 -0.59448,-0.59448 -0.80293,2.13858 -0.44007,0.21618 -0.27022,-0.30882 -0.50955,-0.008 -0.0386,0.38602 -0.28566,0.0772 -0.34743,0.57132 v 0 l -1.05771,0.20073 -1.1658,-0.45551 -1.33565,-0.14669 -0.10036,-0.67169 -1.01139,-0.93418 0.22389,-0.77205 -0.40146,-0.32426 0.31654,-0.69485 v 0 l 0.6794,0.13125 -0.16213,0.84153 0.13897,0.19302 1.9919,0.3011 1.37425,-0.29338 0.20845,-0.67941 -0.50183,0.20846 -0.0232,-0.38603 -0.44007,-0.0849 0.40147,-0.45552 z"
     title="Fukui"
     id="JP-18"
     style="stroke-width:0.772052" />
  <path
     d="m 127.29078,256.65989 0.95734,-1.04227 0.10809,-0.46323 -0.0927,-0.27794 -0.25478,0.008 -0.0463,-0.52499 0.43235,-0.0386 0.19301,-0.62536 0.65625,-0.40146 -0.0618,-0.3011 0.6022,-0.0232 0.19302,0.23162 0.80293,-0.0849 0.525,-0.30882 0.54815,-0.72573 0.84926,0.34743 0.34742,-0.2625 1.38198,0.3011 0.33198,0.44779 0.57132,-0.21617 0.24705,-0.59448 0.89558,-0.58676 0.30882,0.23933 -0.55587,1.04227 0.13125,0.74117 -0.60992,0.54044 0.16985,0.35514 0.50955,-0.10036 0.42463,1.95329 1.08087,1.62131 0.43235,-0.21618 0.83382,0.58676 v 0 l -0.11581,0.28566 0.23162,0.61764 -0.3011,0.40147 0.10036,0.35514 -1.47462,0.0849 -0.74889,-0.20846 -0.71801,0.17758 -1.243,1.06543 -0.23162,1.27388 -0.3783,0.10037 -0.36287,0.53272 0.23162,0.12352 0.2239,0.73345 -0.10809,0.49412 -0.40147,0.20073 -0.0927,0.29338 0.27794,0.14669 -0.0232,0.47867 0.64853,0.5636 -0.37059,1.06543 -0.27022,0.19302 v 0 l -1.18124,-0.40147 -0.51727,-0.47095 -0.62536,0.0309 -0.12353,-0.30882 -0.40919,1.11175 -1.15808,-0.13125 -1.25072,1.15036 0.13897,0.8261 -1.65219,-0.0618 v 0 l 0.37058,-0.84925 -0.24706,-0.61765 -0.57131,-0.6022 0.0232,-0.31654 -0.28566,-0.14669 v 0 l 0.13125,-0.94962 0.45551,-0.80294 1.42829,-1.09631 0.39375,-0.66396 0.39375,0.0232 0.0154,-1.73712 -0.31654,-0.16213 -0.57132,0.19301 -0.76433,0.73345 -0.47868,-0.54815 -0.59448,-0.13125 -1.31248,-0.8261 -0.37059,0.16985 -0.66396,-0.18529 -0.53272,0.24706 -2.0305,-0.0618 v 0 l 0.11581,-0.52499 1.243,-0.24706 0.41691,-0.49411 0.14669,-0.42463 -0.32426,0.23161 -0.11581,-0.34742 -0.20845,-0.12353 -0.34743,0.18529 -0.16985,-0.30882 0.91874,-0.27021 0.2239,-0.29338 -0.0926,-0.29338 0.65624,-0.23162 0.11581,-0.47095 0.45551,0.30882 -0.19301,0.28566 0.13897,0.32426 0.63308,0.10809 0.0849,0.54043 0.37059,-0.0618 0.12353,-0.2625 0.50955,0.0541 0.80293,-0.37831 0.0927,-0.64852 0.44007,-0.17757 -0.0618,-0.46324 z"
     title="Fukuoka"
     id="JP-40"
     style="stroke-width:0.772052" />
  <path
     d="m 288.08603,195.41301 -0.47867,0.62536 -1.92241,0.91875 -0.3011,0.50955 0.0309,0.37058 v 0 l -2.64814,-0.80293 -0.44007,-0.79521 -0.2625,0.35514 0.35514,1.00367 -0.86469,0.3783 -1.1272,1.08088 -0.33198,-0.44007 -0.88014,-0.32426 -0.25478,-0.89559 -0.63308,-0.19301 -0.58676,-0.78749 -0.42463,-0.0232 v 0 l -0.25478,-0.25478 0.12353,-1.43602 -0.65624,0.0386 -0.17757,-0.72573 -0.7875,-0.75661 -1.8452,-0.77206 -1.86065,-0.21617 -1.04999,0.45551 -0.13897,0.70257 -2.15402,0.67168 -0.20074,0.32426 -0.60992,0.14669 -0.17757,0.33971 -0.48639,0.0695 -0.71029,0.57132 -1.04999,0.18529 -0.54816,0.7875 -0.72573,0.33198 v 0 l -1.77571,-0.55588 -0.40147,0.15441 -0.008,-0.28566 v 0 l 0.18529,-0.32426 -0.0849,-1.03455 0.16986,-0.6022 -0.32427,-1.07315 0.27022,-0.98823 -0.36286,-0.71801 -0.525,-0.12353 -0.45551,-0.61764 0.74889,-1.08087 0.15441,-0.89558 0.10809,-0.91874 -0.51727,-0.43235 0.44006,-0.71029 1.65992,-0.18529 0.42462,-0.2239 0.525,0.1853 0.24706,-0.91875 0.31654,-0.12352 0.36286,-0.0309 0.3011,0.24706 0.28566,-0.18529 0.97279,0.16985 0.37058,-0.17757 -0.29338,-0.63308 0.0695,-0.62537 -0.32426,-0.79521 0.0232,-0.5636 1.18124,-0.80293 -0.10037,-0.18529 0.54816,-1.00367 1.21984,-1.32021 v 0 l 0.60992,-0.13897 0.48639,0.525 0.72573,-0.4478 0.47095,0.30111 0.4864,-0.054 0.25477,-0.27022 0.74889,1.29705 0.94963,-0.35514 1.13491,0.86469 0.57132,-0.43234 1.00367,0.20073 1.02683,-1.243 -0.42463,-0.31655 -0.0309,-1.55182 0.23161,-1.32021 v 0 l 1.07316,0.50956 0.87241,-0.44007 0.88014,0.53271 0.28566,0.84154 2.04594,-0.20846 0.63308,0.21618 0.43235,0.35514 -0.13897,0.88014 0.21618,0.57904 0.48639,0.38603 0.93418,0.20845 0.11581,-0.12353 -0.36286,-0.3011 1.21984,0.0463 0.10037,-0.16986 -0.0232,-1.67535 0.55588,-0.20845 0.53272,0.13897 v 0 l 0.29338,0.98822 0.54815,0.33199 0.0386,0.98822 0.3397,0.57904 0.42463,4.65547 v 2.5555 z m -2.64813,2.43969 v 0 l 0.0232,0.008 z"
     title="Fukushima"
     id="JP-07"
     style="stroke-width:0.772052" />
  <path
     d="m 218.84842,228.61897 -0.55588,-0.53272 0.24706,-0.16213 0.0154,-0.71801 0.24705,-0.40147 0.0309,-1.03455 0.42462,-0.3397 -0.40918,-0.65624 0.0695,-0.77206 -0.48639,-0.49411 0.18529,-0.68712 -0.42463,-0.54816 -0.23933,0.38602 -0.6022,-0.22389 0.0926,-1.23528 -0.50955,-0.054 -0.20074,-0.82609 v 0 l 0.75661,-1.26617 0.008,-0.74889 0.69484,-0.37058 0.9033,0.32426 0.81838,-0.008 0.23161,0.39374 0.43235,-0.59448 0.63309,0.16986 0.37058,-0.33971 0.40147,0.13125 0.35514,-0.3397 0.31654,0.40147 0.87242,-0.37831 1.04227,0.0154 0.13125,-0.6022 0.47867,-0.35514 -0.23161,-0.94191 -0.49412,-0.40146 0.0926,-0.37831 -0.60992,-0.21617 0.0386,-0.40919 -0.3783,-0.28566 0.18529,-1.07315 0.38602,-0.28566 -0.16213,-0.37831 v 0 l 0.38603,-0.84153 -0.17757,-0.57132 0.47095,-0.17757 0.72573,-1.28933 -0.0309,-0.3011 -0.58676,-0.33198 -0.19302,-0.44779 v 0 l 0.44779,-0.0618 0.2239,-0.81837 0.59448,-0.43235 0.19301,0.45551 0.27022,-0.27794 0.71029,0.39375 0.2625,0.59448 -0.20074,0.56359 0.2625,0.0618 1.07315,-0.9419 0.19301,-0.88786 1.60587,-1.55955 0.42463,-0.0154 0.19301,0.3397 1.1272,-0.53271 0.45551,0.0386 0.0309,0.6794 0.16213,0.0309 1.04227,-0.61764 0.21618,0.6022 0.87242,0.27021 0.54815,-0.26249 0.64853,0.63308 0.72573,0.054 v 0 l 0.10036,0.39375 0.79522,0.50955 0.0695,0.40919 -0.0695,0.6022 -1.07316,1.39742 0.29338,0.42462 -0.0386,0.40147 -0.57904,0.54816 -0.008,0.62536 0.35515,0.38603 0.55587,0.19301 -0.3011,1.21212 -0.77205,0.58676 -0.28566,0.71029 -0.3397,0.0772 -0.40147,0.81838 -0.32426,0.054 -0.25478,-0.25478 -0.88786,0.27022 -0.27021,0.81838 -0.45552,0.19301 -0.0849,0.41691 0.22389,0.3011 0.80294,0.008 0.0386,0.39375 0.94962,0.28566 0.61765,1.38197 0.6022,0.54043 -0.33199,0.98823 0.3011,0.34742 -0.054,0.84926 0.23934,0.42463 0.82609,-0.24706 0.44007,0.41691 v 0.70257 l -0.50183,0.54044 0.54816,0.75661 -0.67169,0.22389 0.20073,0.98051 -0.64852,0.50183 0.008,0.40919 v 0 l -0.61764,0.0618 -1.32793,1.08088 -0.76433,-0.37831 0.0154,-0.24706 -0.64852,-0.0309 0.054,-0.18529 -0.57904,-0.37059 -0.48639,0.0155 -0.71029,0.56359 -0.65624,0.13125 -0.40147,-0.54816 -0.72573,-0.3011 -0.23162,0.16214 -0.24705,-0.11581 -0.20846,-0.24706 0.0695,-0.3783 -0.37831,-0.15441 0.0232,-0.50184 -0.91102,-0.67168 0.0154,-0.43235 -1.15035,0.8647 -1.28161,0.38602 -0.98051,-0.11581 -1.30476,2.30072 -0.16985,1.69079 v 0 l -0.83382,-0.0926 -1.30477,-1.93013 z"
     title="Gifu"
     id="JP-21"
     style="stroke-width:0.772052" />
  <path
     d="m 268.21342,209.91215 -0.23934,0.44779 -0.3783,0.13897 -0.40147,-0.37059 -1.96101,0.37059 -1.39742,-1.03455 -0.66396,0.16213 -0.74889,-0.2239 -0.46323,0.11581 -1.30477,-0.66396 -0.54044,-0.0386 -0.94962,1.52095 -0.0154,0.718 -0.32426,0.58676 -1.18124,0.054 -0.35515,0.6022 -1.17352,0.30882 -0.71028,0.77977 -0.94963,0.0154 -0.57904,0.77977 v 0 l -0.27794,0.0695 -0.27793,-0.40147 -0.47096,-0.14669 -0.29338,-1.36653 0.25478,-0.27022 -0.21617,-0.51727 -0.50184,-0.0618 -0.3397,-0.58676 0.12353,-0.13125 0.35514,0.25478 0.34743,-0.37058 0.0232,-0.62537 -0.32426,-0.3397 -0.17758,-0.85698 0.79522,-0.52499 0.054,-1.14264 -0.22389,-0.88786 -0.64081,-0.19301 -0.54043,0.0772 -0.33971,0.30883 -0.6794,-0.19302 -0.16213,0.23934 -0.33199,-0.0541 -0.96506,-0.57131 -0.0463,-1.00367 0.46323,-1.28161 -0.0154,-0.76433 0.74117,-0.91102 0.74117,-0.12353 0.008,-0.84154 1.38197,-0.27793 1.19668,-0.64081 v 0 l 0.19301,0.13125 0.27794,-0.48639 0.92646,0.3397 0.60993,-0.51727 -0.0772,-0.77205 0.49411,0.0232 1.15036,-0.47868 -0.19301,-0.3397 0.22389,-0.73345 0.65625,0.0849 0.0695,-0.20074 -0.20845,-1.49006 1.26616,-0.21617 0.63309,-0.5636 0.0926,-0.73345 1.18896,1.19668 0.0849,0.58676 0.71029,0.054 0.17757,0.26249 v 0 l 0.008,0.28566 0.40146,-0.15441 1.77572,0.54816 v 0 l -0.44779,1.18896 0.7875,0.3397 -0.7875,1.0886 0.21618,0.9033 -0.45551,0.68712 -0.13897,1.05771 1.13491,0.57132 0.94963,-0.054 0.2625,0.52499 -0.63309,0.50184 -0.30882,0.92646 0.25478,0.58676 -0.91874,1.19668 -0.13897,0.74117 0.81065,0.6022 -0.0309,0.44779 0.85698,0.74889 0.77977,-0.22389 0.54816,0.33198 0.85698,-0.13897 0.29338,0.18529 -0.0695,0.21618 z"
     title="Gunma"
     id="JP-10"
     style="stroke-width:0.772052" />
  <path
     d="m 189.1167,236.94941 -0.84154,0.69484 -0.93418,-0.16985 v 0 l -0.41691,-1.05771 -0.83382,-0.74117 -0.13897,-0.36286 0.54044,-1.01139 -0.525,-0.65625 0.27022,-0.24705 0.11581,-0.70257 -0.15441,-0.45551 0.71029,-0.41691 0.0463,-0.71801 0.45551,-0.19301 0.18529,-0.84926 0.1853,-0.20073 0.51727,0.054 0.0618,-0.6022 -0.48639,-0.50955 0.33971,-0.61764 v 0 l 0.44779,0.20073 1.26616,-0.88786 -0.20073,-0.89558 0.1158,-0.33198 -0.56359,-0.74117 0.0695,-0.83382 -0.5636,-0.2625 -0.3783,-1.45145 0.0926,-0.7875 -0.29338,-0.59448 -0.53271,-0.40146 v 0 l 1.64447,-0.50956 0.9419,-0.57132 0.92647,0.23934 0.32426,0.36286 0.63308,-0.51727 1.06543,0.15441 0.98823,-0.2239 0.34742,0.25478 0.75661,-0.0463 v 0 l 0.0154,1.55954 0.66397,0.61765 0.16213,0.47095 0.55588,0.13897 1.02683,-0.50956 0.24705,0.41691 v 2.0305 l -0.70257,0.40146 -0.88013,-0.42463 -0.28566,0.77206 0.0154,0.9805 1.15035,0.47095 1.01911,0.87242 0.58676,-0.35514 0.7875,0.0154 0.0154,0.6022 0.66396,0.63308 -0.19301,0.42463 0.42463,0.18529 0.33198,-0.27793 0.62536,0.0309 0.16985,0.0463 0.0309,0.5636 0.65625,-0.13897 0.74889,0.37831 0.22389,0.97278 -0.29338,0.16213 -0.13124,0.41691 v 0 l -0.33199,-0.0386 -0.22389,0.23933 0.30882,0.1853 0.0618,0.74889 -0.18529,0.27793 1.08087,0.62537 0.74117,0.10808 -0.70256,0.39375 0.33198,0.19301 -0.36287,1.57499 0.57132,0.95734 0.11581,1.10404 -0.41691,0.93418 v 0 l -0.3397,-0.25478 0.10809,-0.36286 -0.19302,-0.40147 -0.71028,0.24706 -0.32427,-0.46323 -0.74889,-0.10037 -1.52866,0.72573 -0.0772,0.525 -1.9919,0.49411 -3.29666,-1.32793 -1.28933,-1.27389 z m 7.25728,8.55433 0.16986,0.59448 -1.59043,0.64853 -0.75661,0.63308 -1.03455,0.14669 -0.008,-0.34743 -0.45551,-0.23933 0.0463,-0.38603 -0.33198,-0.12353 -0.41691,-0.77977 0.51727,-0.74117 0.29338,0.18529 0.36287,-0.18529 1.02683,-2.17718 0.30882,-0.35515 0.31654,0.008 0.73345,-1.15808 0.73345,-0.33198 0.59448,-0.8647 0.42463,-0.22389 0.3397,0.6408 -0.46323,0.55588 -0.11581,0.59448 -1.37425,1.79888 -0.008,1.18896 z"
     title="Hyogo"
     id="JP-28"
     style="stroke-width:0.772052" />
  <path
     d="m 279.28464,77.922138 2.09226,-1.64447 0.0309,-0.455511 -1.51323,-2.447405 -1.06543,-0.764331 -0.54043,-0.89558 0.52499,-1.961012 -0.20845,-0.370585 1.26616,0.08492 0.46323,-0.324262 0.16213,-0.416908 0.40919,-0.16213 2.12314,2.053658 1.49006,0.671685 0.87242,0.988227 1.91469,-0.362865 0.13125,-0.324262 0.78749,-0.247056 0.55588,0.01544 -0.10809,0.903301 2.34704,1.073152 1.69852,-0.941904 1.52094,-1.659911 0.76433,-1.235284 0.0772,-1.814322 -1.06544,-2.130863 0.41691,-1.497781 -0.50955,-1.111755 -0.34743,-1.752558 0.7875,-1.621309 1.13491,-0.687126 0.58676,-0.0386 1.56727,-1.019109 0.71801,-1.459178 0.31654,-1.505502 -0.27022,-6.068328 0.38603,-0.247056 1.26616,-2.655859 0.16213,-2.208068 0.29338,-0.609922 0.10037,-1.235283 -0.23162,-2.524609 -0.59448,-2.96468 -2.34703,-5.65142 -0.23934,-0.89558 0.054,-0.764332 0.66397,-0.980506 0.60992,-1.505501 -0.31654,-1.080873 0.1158,-0.988226 0.57904,0.59448 0.10037,0.401467 0.3011,0.123528 1.35881,-0.216175 1.04227,-0.725728 0.42463,-1.536384 0.67169,-0.239336 0.36286,0.254777 0.43235,0.995947 0.45551,0.262498 0.48639,1.134916 1.79116,1.312489 1.70624,2.408802 3.82166,4.292608 3.01872,5.581936 1.99189,1.968733 1.88381,2.393361 4.30805,3.397028 1.21212,0.687126 0.25478,0.73345 0.97278,0.74117 2.8566,1.49778 2.50144,0.988227 4.53967,1.304768 2.15402,0.409187 0.33971,-0.239336 0.22389,0.59448 -0.0463,0.988227 0.67168,1.19668 0.44779,0.370585 2.47829,0.779772 2.6327,0.162131 1.98417,-0.247056 1.76028,-1.536384 1.18896,-1.482339 1.68307,-1.574986 1.41286,-0.972786 0.50955,-1.119475 0.84926,-0.89558 0.6022,-1.065432 0.35514,0.02316 0.34743,1.721676 -0.93419,1.92241 -0.70256,0.710287 -0.46323,1.852925 -1.33565,1.644471 -0.72573,1.63675 0.0772,0.640803 -0.59448,1.582706 0.16985,0.818375 1.04227,1.991894 1.15036,1.520943 1.17352,4.037831 1.15036,1.513222 -0.89558,-0.409187 -0.14669,-0.409188 -0.88014,-0.169851 -0.18529,0.285659 0.16213,0.972785 0.66396,-0.517274 0.36287,0.30882 -0.2239,0.424629 0.28566,0.3011 0.30882,-0.216174 1.96873,0.478672 1.61359,-1.312488 0.24706,-0.463232 0.85698,-0.548156 0.18529,-0.386026 2.53233,0.15441 -0.14669,0.386026 -0.9033,0.702567 -1.33565,0.239336 -1.44374,0.795214 -0.61764,2.262112 -0.59448,-0.277938 -0.95734,-0.0386 -2.09226,0.393746 -1.1658,0.694847 -0.97279,-0.162131 -0.47867,0.463231 -0.10809,0.88786 -1.23528,1.659912 -0.78749,0.378305 -1.4669,-0.07721 -0.69485,-0.609921 0.0232,-0.409187 0.25478,-0.239337 -0.42463,-0.285659 -0.5636,0.07721 -0.91874,1.33565 -0.0154,0.316542 0.88786,0.872418 -1.55183,-0.09265 -0.88785,-0.270218 -2.76395,-0.01544 -0.53272,-0.115808 -1.21984,-0.980506 -2.36248,0.416908 -1.87608,0.911021 -2.62498,1.953292 -4.06871,4.068714 -3.14998,4.477894 -1.18124,2.55549 -0.21617,1.28933 0.42463,1.11176 -0.63308,2.99556 -0.70257,1.18124 v 1.243 l -2.85659,-2.87203 -3.74446,-1.55955 -6.2459,-3.43563 -1.83748,-1.28933 -1.42058,-1.5827 -2.47828,-0.725726 -1.70624,-1.582707 -1.40513,-0.926462 -1.41286,-0.409188 -1.83748,-0.03088 -2.4474,0.802934 -1.60587,0.995947 -2.0691,1.760282 -1.22756,0.68713 -1.63675,1.89152 -0.2625,0.57904 -0.8261,-0.30882 -0.25478,-0.42463 0.29338,-0.22389 0.45552,0.49411 0.0926,-0.62536 -1.04227,-0.31654 -0.67168,-1.82977 -0.60992,-0.30882 -0.8261,-0.864697 -0.0926,-0.447791 -0.9805,-0.949624 -0.95735,-0.06948 -0.96506,0.409187 -0.74889,-0.45551 -0.93419,0.02316 -1.29704,1.397414 -1.11176,2.123141 -0.54815,1.96873 0.21617,1.49779 1.79116,0.92646 2.11542,1.81432 0.57904,0.10809 1.05771,-0.40919 1.57499,0.23934 0.94962,1.70623 1.25845,0.9419 0.83381,1.45146 2.43197,1.04999 0.42463,0.687133 0.60992,0.45551 -0.47095,0.47095 -0.73345,0.008 -0.84926,1.00367 -1.28161,0.50956 -0.66396,-0.60993 -2.14631,-0.70256 -0.718,0.12353 -0.21618,0.47867 -0.31654,0.0772 -0.13897,-0.47095 0.525,-0.34742 -0.15441,-0.51728 -0.45552,-0.28566 -0.66396,0.0618 -0.31654,0.25477 -0.33198,1.29705 -1.11176,0.81838 -0.99595,0.0772 -0.27021,0.25478 -0.23934,3.04188 -0.30882,0.37059 -0.72573,0.0232 -1.51322,0.67169 -0.69485,1.45917 -0.3011,0.24706 -0.78749,-0.61764 -0.88014,0.16985 -0.69485,-0.54816 -0.83381,-2.09998 -0.0695,-0.66396 0.31654,-1.36653 1.04227,-2.33932 v -0.81066 l 0.59448,0.0618 0.2239,-0.45551 0.23933,-2.084553 -0.30882,-1.52866 -1.46689,-2.26983 -0.51728,-0.27794 -1.00367,-0.0927 -0.39374,-1.02682 -0.65625,-0.67941 -0.88014,-0.31654 -0.3011,-0.5636 -0.14669,-1.07315 0.23934,-0.8647 0.72573,-0.79521 0.25477,-0.73345 0.0232,-2.045941 -0.37831,-1.721675 0.71029,-1.119476 0.8647,-0.478672 1.76028,-0.04632 0.47095,-0.702567 1.07315,-0.563598 0.65624,-1.48234 0.63309,0.44007 0.43235,0.74889 0.68712,-0.177572 0.0695,-1.073152 0.63308,-0.648524 z m 11.36461,-47.427151 -0.0695,-0.949624 0.98823,-0.965065 1.59815,0.934183 0.39374,1.397414 -1.39741,1.150358 -1.05771,-0.826096 z m -24.61302,62.66746 -0.22389,1.71395 -0.3011,0.48639 -0.50184,0.17758 -0.0154,0.27794 -0.47095,-0.41691 0.0463,-1.32021 -0.32426,-0.85698 0.57132,-0.84154 1.47462,-0.29338 0.35514,-0.40146 0.0232,0.49411 z m 23.43178,-66.998671 -0.20074,1.999614 -0.3011,0.100367 -0.6794,-2.292994 0.16985,-1.011388 -0.47095,-0.262498 0.0695,-0.563598 0.50184,0.656244 0.50955,-0.115807 -0.0154,-0.455511 0.2625,0.208454 0.27022,0.6022 z"
     title="HokkaidoÂ"
     id="JP-01"
     style="stroke-width:0.772052" />
  <path
     d="m 161.29194,247.28718 -0.6022,-0.54043 -1.11947,1.35109 0.23933,0.69484 0.58676,-0.15441 0.24706,0.23934 -0.11581,0.16213 -0.54043,0.40919 -0.21618,-0.21618 -1.18896,0.20074 -0.13897,-0.45551 0.88014,-0.4864 -0.19301,-0.35514 0.10809,-0.48639 0.40918,-0.33971 0.0618,-0.74889 -0.54816,-1.33565 0.11581,-0.74889 -1.01139,-0.50183 -1.76028,0.80293 -0.0154,0.28566 -1.33565,1.24301 -0.16213,0.39374 0.20845,0.11581 v 0 l -0.25477,0.14669 -0.98823,-0.23934 -0.38603,-1.12719 0.0618,-0.48639 -0.71029,-0.60221 -0.18529,-1.04999 0.13125,-0.62536 -0.23162,-0.52499 v 0 l -0.3783,-0.4864 0.23161,-0.49411 0.46323,-0.13897 0.4864,-0.52499 0.16213,-1.37426 0.54043,-0.79521 -0.42463,-0.2625 0.23162,-0.37058 1.11948,-0.66397 0.23933,-0.88014 0.60992,0.0849 0.30882,0.37058 0.16213,-0.3397 0.95735,-0.10037 0.40147,0.32427 0.39374,-0.33199 -0.054,-0.19301 0.31654,-0.10809 0.19301,0.31654 1.25845,0.10037 1.13491,-0.81837 1.35881,-0.10809 -0.008,-0.67169 -0.53271,-0.16213 -0.29338,-0.36286 0.65624,-0.77205 0.91874,-0.19302 1.85293,-2.57093 0.30882,-0.054 0.88786,0.54043 0.60992,-0.47867 0.75661,0.60992 1.09632,-0.32426 0.44779,0.16985 v 0 0.20074 l 1.6213,-0.24706 0.32427,0.38602 v 0 l 0.77977,0.94191 -0.35514,0.93418 -0.008,1.23528 1.23529,1.54411 -0.2239,0.8647 0.31654,1.4669 -0.008,1.06543 0.93419,1.27388 0.0926,1.34337 v 0 l -0.34742,0.95735 -0.67941,0.0695 -0.0309,0.69485 -0.25478,0.23933 -1.85292,-0.39374 -0.0309,-0.16213 0.44007,-0.14669 -0.0309,-0.46323 -0.43235,-0.16213 0.054,0.33198 -0.50955,0.23161 -1.27389,0.51728 -0.57132,-0.0695 -0.17757,0.75661 -0.97279,0.3011 -0.98822,-0.16213 -0.88786,0.20074 -0.27022,0.44007 -0.42463,0.20073 -0.19301,-0.43235 -0.54816,0.0618 -0.20073,0.66396 -0.34743,-0.11581 -0.0309,0.75661 -0.89558,0.0618 z"
     title="Hiroshima"
     id="JP-34"
     style="stroke-width:0.772052" />
  <path
     d="m 281.99455,208.19819 -0.0772,1.63675 0.68713,2.52461 2.0691,4.24629 1.25844,1.92241 0.63308,0.36286 0.0309,0.34742 v 0 l -1.93013,-1.18896 -0.85697,-1.18124 -0.94963,-0.20073 -0.87242,-0.74889 -0.70256,0.0309 -0.83382,-0.40146 -1.55182,0.40146 -0.66397,0.63309 -0.61764,-0.17758 -0.45551,0.30882 -0.66396,-0.0849 -0.7875,0.31654 -0.44779,-0.55588 -1.89925,-0.66396 -0.80293,-0.54044 -0.15441,-0.54816 -0.55588,-0.18529 -1.25844,-1.55182 -0.25478,-0.64853 -0.32426,-0.0232 v 0 l -0.3011,0.27022 -0.3011,-0.0772 -0.67169,-1.51323 0.13125,-0.68712 v 0 l 0.5636,-0.0463 1.27389,-0.67168 0.42462,-1.30477 0.87242,0.21618 0.0926,-0.67941 0.77205,-0.36286 0.10037,-0.34743 1.2044,-0.0618 0.20073,-0.10037 0.0386,-0.40147 0.51728,0.1853 0.31654,-0.35515 0.3397,-0.0154 0.21618,0.3011 0.51727,-0.16213 0.16213,-0.9033 0.71029,-1.4283 -0.0154,-1.39741 -0.44007,-1.5055 0.21618,-0.29338 0.73345,-0.16213 0.0772,-0.23934 -0.48639,-0.77205 0.16985,-1.00367 -0.21618,-0.76433 0.0695,-1.53638 v 0 l 0.42463,0.0232 0.58676,0.78749 0.63308,0.19302 0.25478,0.89558 0.88014,0.32426 0.33198,0.44007 1.12719,-1.08088 0.8647,-0.3783 -0.35514,-1.00367 0.2625,-0.35514 0.44007,0.79521 2.64813,0.80294 v 0 l 0.0309,0.0154 v 0 l 0.0232,0.008 v 0 l 0.13897,0.49411 -0.4864,0.13125 -0.3783,0.73345 -0.91102,3.08821 -0.54044,0.9033 -0.6022,1.75255 0.12353,2.22351 z"
     title="Ibaraki"
     id="JP-08"
     style="stroke-width:0.772052" />
  <path
     d="m 223.48073,193.40568 -0.0463,-0.99595 -0.24705,-0.10809 -0.27794,0.2625 -0.23162,-0.21617 0.47096,-1.79889 0.30882,-0.27021 v -1.28933 l 0.27021,-0.29338 1.11176,-0.9033 0.87242,-0.39375 0.87242,0.21618 2.23895,-1.14264 0.32426,-0.44779 0.75661,-0.37059 0.98051,-0.13124 1.0191,-0.54816 0.79522,0.10037 0.36286,0.50955 -0.18529,0.36286 0.31654,0.62537 -0.47095,0.22389 -0.77977,-0.0309 -0.40919,0.27794 -0.21617,0.9033 0.46323,0.81065 -0.50956,0.75661 -1.38197,-0.0386 -0.68713,0.38603 -0.44007,1.15036 -0.89558,0.66396 -0.43235,-0.40919 -0.3783,-0.0618 0.13125,-0.47095 h -0.27022 l -1.1272,1.67535 0.41691,0.17757 -0.13125,0.47867 -0.39374,0.0926 0.0926,0.33198 -0.20073,0.3011 0.43235,0.0695 0.43235,-0.44007 0.87242,0.85697 0.57903,-0.50183 0.15442,-0.52499 h 0.43234 l 0.0309,2.69446 v 0 l -0.95735,-0.0772 -0.55588,0.20074 -1.08087,1.05771 -0.46323,2.69446 -0.42463,0.50183 -0.12353,0.75661 0.17758,0.35515 -0.58676,0.94962 0.14669,0.87242 0.35514,0.44779 -0.57904,2.28527 0.34742,1.45146 -0.24705,0.32426 0.10808,0.67941 v 0 l 0.19302,0.44779 0.58676,0.33198 0.0309,0.3011 -0.72573,1.29705 -0.46323,0.17757 0.16985,0.5636 -0.38603,0.84153 v 0 l -1.45917,0.37059 -0.1853,-0.47867 -1.43601,-1.1272 -1.35109,0.32426 -0.36287,-0.0386 -0.50183,-0.58676 -0.69485,0.10037 -0.31654,-0.29338 -0.19301,-0.96507 -1.29705,-1.22756 v 0 l 0.84926,-1.08087 0.71029,-0.24706 1.08859,-1.04999 3.45107,-4.65547 0.84154,-1.52094 1.02683,-2.9338 0.0309,-1.77572 -0.73345,-1.14264 z"
     title="Ishikawa"
     id="JP-17"
     style="stroke-width:0.772052" />
  <path
     d="m 302.33039,150.98142 0.32427,0.12353 0.0386,0.34742 -0.64081,-0.0309 0.40919,0.40919 0.38603,-0.008 0.25478,0.52499 -0.79522,0.33199 -0.5636,-0.0232 0.008,0.27794 0.37831,0.20846 0.42463,-0.0927 0.008,0.18529 -0.50956,0.40919 -0.57131,-0.0232 -0.20074,0.20845 1.28933,0.80294 -0.66397,0.23161 -0.97278,-0.40918 0.16213,0.74889 0.78749,0.20073 -0.9419,0.13897 0.57132,0.44007 -0.20846,0.21617 -0.84153,-0.0618 -0.36287,0.19301 -0.32426,-0.36286 0.0309,-0.44007 -0.27021,-0.13125 0.0463,0.47095 -0.23162,0.3397 0.53272,0.66397 -0.33198,0.0463 0.0849,0.70257 -0.36286,0.2625 -0.55588,-0.74117 0.19301,-0.40919 -0.15441,-0.14669 -0.71028,0.0695 0.12352,0.57904 v 0 l -0.9033,-0.3783 -1.11175,-0.10037 -0.18529,0.40147 0.0849,1.37425 -0.52499,0.54044 0.0772,0.39374 -0.38603,1.49778 -1.89152,-0.77205 -0.69485,0.67169 -0.13125,0.54043 -0.40146,0.13897 -1.36654,-0.77977 -0.36286,-0.84154 0.45551,-0.42463 -0.19301,-0.38602 -0.55588,-0.15441 -1.70624,0.19301 -0.42462,-0.62536 -1.11176,-0.37059 -0.9419,-0.70256 -0.73345,0.10808 v 0 l -0.0618,-0.88786 0.60992,-1.05771 -0.10808,-0.30882 -0.74889,-0.29338 0.21617,-0.74889 -0.20845,-0.16985 0.36286,-0.6408 0.46323,-0.23162 -0.65624,-0.3397 0.25478,-0.81838 -0.8647,-0.59448 -0.40919,-0.57903 0.11581,-0.71029 -0.46323,-0.96507 -0.3011,-0.0695 0.0386,-0.50184 0.34742,-0.0926 -0.0386,-0.62536 0.6022,-0.65625 0.33198,-1.03455 -0.16213,-0.55588 0.32426,-0.0849 0.47096,-0.66397 0.20845,0.0232 0.39375,-0.91875 -0.10037,-0.83381 -0.50955,-0.9033 0.3011,-0.10809 0.63308,-1.13492 -0.8647,-0.50955 -0.054,-0.81838 0.63308,-0.34742 0.3783,0.37059 0.43235,-0.13898 -0.47867,-1.93013 0.0386,-2.06909 0.40147,-0.35515 0.11581,-1.2044 -0.30882,-0.37831 0.62536,-0.85697 0.47095,-0.16985 0.30882,-0.44007 v 0 l 0.35515,0.52499 0.72573,0.008 0.77205,-0.6022 0.35514,-0.0154 0.0309,-0.55588 0.57132,-0.38602 1.17352,-0.29338 1.51322,-1.15036 0.525,0.83382 1.32793,-0.84926 0.52499,-0.0695 0.95735,0.59448 0.68712,-0.53271 0.0849,-0.6408 1.07315,-0.47868 0.36287,-0.41691 v 0 l 1.05771,1.57499 1.18896,2.6713 -0.75661,0.83382 1.07315,0.46323 0.35514,0.49411 -0.0926,0.19301 -0.37831,0.008 -0.27794,0.41691 0.0849,0.75661 0.25477,0.37059 0.39375,0.13125 0.37831,0.68712 0.53271,0.0926 0.30882,0.54044 -0.24705,1.23528 0.55587,0.93418 0.17758,2.30072 -0.32427,1.30477 0.33971,0.054 -0.65625,1.98417 h 0.19302 l 1.02682,-1.38969 0.0154,1.55955 0.46323,0.0618 0.22389,0.54044 -0.11581,0.27793 -0.47867,0.0618 -0.66396,0.9033 -0.54044,0.19301 0.33198,0.67941 0.89558,-0.87242 0.23934,-0.0386 0.15441,0.28566 -0.33198,1.02683 -0.8647,0.20073 -0.68713,0.46323 -0.62536,0.91874 0.2625,0.27022 0.60992,-0.32426 0.3397,0.41691 -1.31249,0.22389 z"
     title="Iwate"
     id="JP-03"
     style="stroke-width:0.772052" />
  <path
     d="m 168.49519,267.91641 -0.18529,0.79521 -0.77978,-0.27022 -0.46323,0.33971 -0.3397,1.22756 0.2625,1.28161 -0.88014,0.37058 -0.0154,0.84926 0.79521,0.48639 0.25478,1.14264 -0.23934,0.0386 -1.29705,-1.15808 -0.59448,-0.0849 h -0.27021 l -0.93419,0.80293 -0.45551,-0.27794 -0.21617,0.15441 -0.70257,-0.81837 -1.22756,0.6794 -0.0695,-0.64852 0.525,-0.77977 -0.0386,-0.27794 0.89558,-0.97279 -0.1853,-0.29338 -0.6408,0.0541 0.0386,-0.29338 0.31654,-0.0772 0.008,-1.02683 -0.39375,-0.96506 0.15441,-0.71029 -0.58676,-0.66396 -0.20845,-0.67941 0.26249,-0.28566 0.81066,0.91102 0.14669,-0.054 0.65624,-1.06543 0.46323,-0.13125 0.37831,-1.28161 0.93418,-0.32426 0.68713,-0.51727 -0.0309,-0.44007 -0.54816,-0.39375 -0.83382,-1.68307 0.5636,-0.31655 1.67535,0.20074 0.92647,-0.2625 0.72572,-1.09631 -0.24705,-0.61764 0.47867,-1.42058 0.6408,-0.29338 0.0463,-0.42463 0.57903,-0.69485 0.50184,-1.14263 0.41691,0.25477 0.40146,-0.14669 0.45551,-0.77977 3.35071,0.0309 0.74889,-0.92646 0.54816,0.23162 0.36286,-0.25478 h 0.81838 v 0 l 0.28566,0.41691 1.03455,0.40147 1.39741,-0.13125 0.50183,0.69484 0.60992,0.24706 0.47096,-0.15441 0.32426,-0.62536 0.3011,-0.10037 0.19301,0.35514 0.54044,-0.13124 0.39374,0.97278 0.0772,1.54411 1.52094,0.0386 0.17757,0.61764 -0.36286,0.41691 0.0772,0.36286 0.6022,0.91874 1.62903,0.16986 v 0 l -1.45145,2.76394 -0.50184,2.75623 -0.57132,-0.93419 h -0.47095 l -0.0926,-0.56359 -0.75661,-0.77206 -0.33199,-0.79521 -1.08859,-0.52499 -0.39375,-0.83382 -2.49372,-0.46323 -0.34743,-0.42463 -2.43196,0.38603 -0.19301,0.36286 -1.79889,0.9033 0.0154,0.49411 -1.6908,0.31654 -0.42463,0.8261 -0.19301,-0.44779 -0.71029,0.23162 0.0618,0.47867 -0.20846,0.21617 0.16213,0.33971 -0.26249,0.61764 0.26249,-0.0695 0.054,0.40919 -0.25478,0.14669 0.14669,0.43235 -0.69485,0.72573 0.19302,0.5636 -0.1853,0.1158 -0.054,-0.30882 -0.3397,0.0232 z"
     title="Kochi"
     id="JP-39"
     style="stroke-width:0.772052" />
  <path
     d="m 178.66311,245.65043 1.65219,-0.9419 0.13897,-0.74117 1.60587,0.54043 1.243,0.0541 0.8261,-0.92646 0.40919,0.29338 -0.14669,0.74117 0.13897,0.28565 0.27794,0.0463 0.10036,-0.30882 0.34743,-0.0695 0.85697,0.17757 -0.008,0.31655 -0.3011,0.23933 0.14669,0.37059 0.87242,0.20073 0.63308,0.48639 0.3011,-0.0463 1.05772,0.81065 v 0 l -0.12353,0.74117 -0.32426,0.16986 -0.84154,-0.44779 -0.21618,0.23161 -1.25844,-0.20073 -1.31249,0.13897 -0.57132,0.44779 0.0463,0.32426 -0.24706,0.2625 -0.95735,0.10808 -0.9033,0.70257 h -0.36286 l -0.66396,-0.74889 -1.06544,0.19301 -0.58676,0.2239 -0.21617,0.38602 -0.44779,-0.14669 -0.77205,0.64853 -0.10809,0.39374 -0.47867,0.16986 v 0 l -1.45146,-0.57132 0.53272,-0.38603 0.25477,-2.37792 -1.1658,-0.93418 0.054,-0.25478 0.23933,-0.0695 1.22757,0.61764 0.42463,-0.13125 z"
     title="Kagawa"
     id="JP-37"
     style="stroke-width:0.772052" />
  <path
     d="m 132.30139,285.3339 -0.96506,-0.50183 -0.20074,-0.37831 -0.44006,-0.10036 -0.30883,-0.54816 -0.4169,0.58676 -0.70257,0.31654 -0.64852,-0.008 -0.46324,0.42463 -0.80293,-0.12353 -0.24706,-0.47867 -0.4169,-0.20074 v 0 l 0.13896,-0.83381 0.80294,-0.87242 0.96506,-2.0305 1.28161,-1.28932 -0.0926,-0.74117 -0.29338,-0.0232 -0.054,-0.34742 0.51728,0.0232 0.10036,-0.16985 -0.69484,-0.42463 1.8838,-1.86836 -0.17757,-0.15441 -0.85698,0.35514 -2.02277,0.0772 0.008,-0.29338 2.09998,-1.41286 -0.0154,-1.17352 0.17757,-0.27022 -0.65625,-0.89558 -0.59448,-0.13897 -0.10036,-0.57904 -1.1272,-0.52499 -0.24705,-1.35109 -0.44007,-0.37059 v 0 l 1.65219,0.0618 -0.13897,-0.8261 1.25072,-1.15036 1.15808,0.13125 0.40919,-1.11175 0.12353,0.30882 0.62536,-0.0309 0.51727,0.47095 1.18124,0.40147 v 0 l -0.008,0.22389 0.67169,0.13125 0.46323,0.60992 0.48639,0.0386 0.30882,0.4864 0.29338,0.008 0.37831,-0.4864 0.13897,-0.65624 -0.64081,-0.93418 0.10037,-0.57132 0.78749,-0.43235 1.0886,0.20073 0.80293,0.84154 0.14669,0.9033 0.66396,0.6022 0.45552,1.25073 0.16213,1.75255 1.08087,0.98051 v 0 l -0.97279,0.12353 -0.43235,0.77205 -0.0232,0.69485 -0.74889,0.49411 -0.15441,0.71801 h -0.45551 l -0.27794,0.41691 -0.19301,1.08859 -0.35514,0.2625 -0.54816,-0.16213 -0.2239,0.55587 -0.30882,0.13125 -0.19301,1.06543 0.19301,0.87242 0.32426,0.525 0.33971,0.0695 0.14669,0.88786 0.58676,0.525 -0.4864,0.79521 -0.43234,0.0232 -0.15442,0.45551 0.88786,1.03455 0.13125,0.70257 -0.6794,0.0849 -0.85698,-0.27794 -0.54044,0.91874 -0.30882,0.10037 -0.65624,-0.27022 -0.77205,0.54815 z m -4.64775,-7.55067 0.36286,-0.054 -0.17757,0.98823 -0.41691,0.58676 0.21618,0.0695 -0.43235,0.65624 -0.6408,0.29338 -0.91874,-0.40146 -0.69485,0.0618 -0.0463,-0.29338 -0.39375,-0.13125 -0.3011,0.30882 0.38602,0.30882 0.0386,0.33971 -0.33199,0.76433 -1.43602,1.04227 -0.17757,0.66396 -0.81837,0.54816 0.0386,0.74117 -0.36287,0.13125 -0.50955,-0.84926 0.19301,-0.67168 -0.5636,-0.16213 0.50184,-1.09632 -0.33971,-0.44779 -0.0154,-0.55588 0.91875,-1.86064 0.13897,-0.87242 1.07315,-0.50183 1.0886,-0.11581 0.18529,0.21617 -0.11581,0.71029 0.20073,0.79522 1.25073,-0.62537 0.46323,-0.55587 0.67169,-0.20846 0.44007,0.28566 z m -3.99151,5.49701 -0.0618,-0.54815 0.44779,-0.45551 -0.16985,0.74117 0.50955,1.31248 -0.35514,0.21618 -0.36287,0.95734 -0.78749,-0.63308 0.0618,-0.57904 -0.2625,-0.27794 0.10809,-0.67168 z m 4.37754,-6.13781 -0.40919,0.20845 -0.27794,-0.12352 -0.16985,-0.67169 0.74117,-0.68713 0.25478,0.67941 -0.24706,0.32426 z"
     title="Kumamoto"
     id="JP-43"
     style="stroke-width:0.772052" />
  <path
     d="m 256.91058,225.2065 0.31654,-0.87242 1.38197,-0.64081 0.35515,-0.50183 0.54815,-0.0772 0.37831,-0.40147 0.2625,-0.54044 0.0154,-2.01505 v 0 l 0.46323,0.10036 0.35514,0.42463 0.47095,-0.0232 0.45551,0.76433 0.66397,-0.12353 1.67535,0.54816 1.04227,1.45918 0.23162,-0.0232 0.14669,-1.55955 -0.60992,-0.47867 0.16985,-0.17757 0.3783,0.36286 0.58676,-0.70257 2.0691,0.98051 0.25478,0.51728 0.37058,0.17757 0.008,0.29338 v 0 l 0.49412,-0.14669 v 0 h 0.008 v 0 h 0.0232 v 0 h 0.0154 v 0 l 0.32426,0.5636 -1.15036,0.6022 -0.57131,-0.0463 -0.31654,0.31654 0.29337,0.34743 0.30883,-0.0927 0.30882,0.2239 -0.31654,0.6794 -0.27022,-0.19301 -0.36287,0.0618 -0.0772,0.3011 0.3783,0.20074 0.20846,1.01911 -0.2625,0.54043 0.74117,0.6022 0.82609,0.17757 -0.33198,0.81838 -0.54815,0.0695 -0.50184,0.42463 0.0926,0.45551 0.2625,0.0695 -0.0309,0.33198 -1.03455,-0.0232 0.11581,-0.91102 -0.25478,-0.91102 -0.48639,-0.525 0.0463,-0.48639 -1.96101,-0.47867 -1.89152,0.26249 -1.63675,0.50956 -0.89558,0.71801 -0.13125,1.61358 -0.49412,0.27022 v 0 l -1.17352,-0.16213 -0.10036,-0.52499 -0.54044,-0.41691 -0.18529,-1.1658 0.44007,-0.48639 0.20845,-0.74117 -0.2625,-1.18124 -0.1158,-0.18529 z"
     title="Kanagawa"
     id="JP-14"
     style="stroke-width:0.772052" />
  <path
     d="m 125.19852,297.37791 0.87241,-1.45918 0.20846,-1.8066 -0.15441,-0.82609 -2.38564,-2.46285 0.87242,-2.08454 -0.13897,-0.84154 -0.5636,-1.08087 0.44007,-0.83381 -0.55588,-0.4478 0.16213,-0.4169 0.64853,-0.33199 0.40146,0.008 0.525,0.35514 0.83381,-0.0772 0.33971,-0.74117 v 0 l 0.4169,0.20074 0.24706,0.47867 0.80294,0.12353 0.46323,-0.42463 0.64852,0.008 0.70257,-0.31654 0.41691,-0.58676 0.30882,0.54816 0.44007,0.10036 0.20073,0.37831 0.96506,0.50183 v 0 l -0.37058,0.77205 0.50183,0.17758 0.63309,0.60992 0.32426,1.09631 0.83381,0.27022 0.57132,0.65624 -0.0926,0.97279 -0.15441,0.054 0.13124,0.67941 0.50184,0.0772 0.23161,0.27794 0.83382,0.10037 -0.13897,0.47095 0.60992,0.14669 0.12353,1.21212 0.42463,0.74889 0.38602,-0.44779 0.54816,0.49412 0.74117,-0.0849 0.36287,0.22389 0.23161,0.71029 -0.19301,0.47867 0.14669,0.64853 -0.47867,0.50955 -0.0926,0.55588 v 0 l -0.9033,-0.32426 -0.76433,0.6022 -0.54044,0.84154 -0.0618,0.61764 1.36653,0.47095 0.0154,0.33198 -0.50183,0.54816 0.13897,0.13897 0.60992,-0.21618 0.0926,0.19302 -0.9805,0.87241 -0.77978,0.0232 -0.16213,0.64852 -0.60992,0.9033 -1.35881,0.75661 -1.11175,0.19301 -2.11543,1.58271 0.27794,-1.04999 -0.39374,-0.30882 1.38969,-1.07315 0.3397,-0.8647 -0.19301,-0.55588 0.54044,-0.68713 0.20845,-1.49006 -0.72573,-1.59042 -0.35514,-0.46323 -0.51728,-0.21618 0.0849,-1.49778 -1.04227,0.0232 -0.67169,-0.63308 0.525,-0.70257 0.81065,-0.15441 0.57132,0.47867 -0.0849,0.64081 0.81838,0.0695 0.87242,-1.59042 -0.37831,-0.84926 -2.06138,-0.6022 -0.64852,0.51727 -0.16985,0.91874 -0.71801,1.03455 0.11581,0.41691 -0.54044,1.13492 -0.18529,-0.0232 -0.12353,0.75661 0.20074,1.01911 0.61764,1.59042 0.82609,0.75661 0.68713,0.17758 -0.40147,1.35881 -0.79521,0.57132 -0.47867,-0.37831 -0.58676,0.2239 -0.1853,-0.2239 0.0463,-0.63308 -0.74117,-0.65625 -1.63675,0.0154 -0.66397,-0.28565 -1.43601,0.31654 -0.13897,-1.14264 -0.49412,-0.17757 0.55588,-0.42463 -1.18896,-1.14264 0.41691,-0.50955 0.20073,0.37058 0.79522,0.39375 z m 3.58232,16.95426 1.09631,0.4864 -0.0463,0.25477 1.05771,0.28566 0.51727,0.48639 -0.29338,1.35882 -1.01138,1.0191 -0.95735,0.23162 -1.30477,-0.21617 -0.20073,-0.60993 -0.16985,0.13897 0.008,-0.53271 -0.34742,-0.44779 -0.20846,-0.88014 0.0309,-0.36287 0.72573,-0.0618 0.57132,-0.70257 0.008,-0.36286 0.42463,0.0695 0.0849,-0.28566 z m 6.84038,-2.06138 -0.13897,-1.59042 0.63308,-1.00367 0.23162,0.008 0.1158,-1.03455 0.81838,-0.98051 0.39374,0.88014 -0.18529,0.43235 0.12353,1.21984 -0.39375,0.55588 0.0618,0.88786 -0.37059,0.48639 0.0309,0.36287 -0.53272,0.32426 -0.57132,1.17352 0.10809,0.21617 -0.16985,0.19302 0.33198,0.40146 -0.17757,0.36287 0.20845,0.27022 -0.25478,0.0926 -0.008,0.35515 -0.62536,-0.008 -0.77205,0.52499 -0.23162,-0.44779 0.13125,-0.6794 -0.26249,-1.04227 0.37058,0.008 z m -18.62962,-18.79946 -0.59448,0.36286 -0.31654,-0.22389 -0.10037,-0.43235 0.28566,-0.16213 0.3011,-0.8647 1.01911,-0.37831 0.33198,-0.95734 0.27794,0.13125 -0.0386,0.3783 -0.48639,0.88786 -0.46323,0.13897 0.0849,0.31654 -0.29338,0.31655 0.20073,0.24705 z m 1.66763,-3.47423 -0.24705,-0.43235 0.27021,-0.36287 0.41691,0.0618 0.29338,0.3783 0.65625,-0.14669 0.0927,0.29338 -0.0232,0.46323 -0.70257,0.23162 -0.39375,-0.20846 0.0618,-0.25477 -0.30882,-0.25478 z m 6.03745,24.21154 0.53272,0.37831 -0.008,0.20073 -0.30882,-0.054 -0.51728,0.3011 -0.29338,-0.34742 0.0618,-0.37059 -0.38603,0.10037 -0.40919,-0.57904 z"
     title="Kagoshima"
     id="JP-46"
     style="stroke-width:0.772052" />
  <path
     d="m 202.95959,231.81526 0.13125,-0.40919 0.28566,-0.16213 -0.2239,-0.97278 -0.74889,-0.37831 -0.66396,0.13897 -0.0309,-0.57132 -0.16985,-0.0463 -0.62536,-0.0309 -0.32426,0.27794 -0.43235,-0.1853 0.19301,-0.42463 -0.66396,-0.6408 -0.0154,-0.59448 -0.7875,-0.0232 -0.59448,0.36286 -1.01911,-0.88013 -1.15035,-0.47096 -0.0154,-0.97278 0.28566,-0.77205 0.88013,0.42462 0.70257,-0.40146 0.008,-2.0305 -0.25477,-0.41691 -1.02683,0.50956 -0.55588,-0.13897 -0.16213,-0.47095 -0.66397,-0.61765 -0.0154,-1.55954 v 0 l 0.20074,0.23162 0.74889,-0.0155 0.45551,-0.23161 0.34742,-0.6022 0.62536,0.0463 1.48234,-1.04227 1.45918,-0.46323 0.83382,0.525 0.50955,0.92646 -0.8261,0.77977 -0.14669,0.57132 -0.84153,1.01911 0.0463,0.46323 0.23162,-0.008 0.45551,-0.74889 0.47095,0.26249 0.10037,0.13125 -0.49412,0.42463 1.04227,0.47095 0.19302,-0.25477 0.10808,1.06543 0.37059,-0.37059 0.64852,0.16213 0.0386,-0.39374 -0.97278,-0.60992 0.65624,-0.525 0.71801,-0.0849 0.11581,-0.44779 0.27022,-0.008 0.008,0.44006 0.31654,0.19302 v 0 l -0.31654,0.68712 0.40146,0.32427 -0.22389,0.77977 1.01139,0.93418 0.10036,0.67169 1.33565,0.14669 1.15808,0.45551 1.05771,-0.20074 v 0 l 0.91102,1.42058 0.32427,-0.008 -0.29338,1.11175 0.33198,1.62903 -0.23934,1.34337 -0.26249,0.19302 0.22389,0.9033 0.68713,1.1658 -0.1853,0.82609 0.54816,0.36287 0.5636,-0.29338 0.10037,0.6794 0.23933,-0.0386 0.23162,0.28566 0.30882,-0.11581 0.47095,0.46323 -0.20073,0.20074 0.1158,0.31654 v 0 l 0.34743,0.92646 v 0 l -0.2625,0.57904 -0.44779,-0.0618 -0.37831,-0.51727 -0.76433,-0.008 0.0618,-0.27794 -0.57132,0.87242 -0.5636,0.0618 -1.48234,-0.40146 -0.40147,-0.94191 v 0 l 0.21618,-0.47867 -0.78749,-0.88786 -0.23934,-0.81838 -0.95734,-0.88785 v -0.47868 l -0.57904,-0.0154 -0.20074,0.525 0.29338,0.32426 -0.60992,0.20073 -0.53271,-0.5636 -0.19302,0.0849 -0.054,-0.89558 -1.66763,-0.46323 z"
     title="Kyoto"
     id="JP-26"
     style="stroke-width:0.772052" />
  <path
     d="m 223.10242,245.68903 -0.14669,0.10037 0.50956,-0.92646 -0.44007,-0.25478 -0.50956,1.08859 -0.84925,0.57132 -0.28566,0.0386 -0.20846,-0.60993 -0.21617,0.0695 -0.17757,0.64852 -0.0695,-0.53271 -0.54043,-0.008 0.21617,0.72573 -0.16985,0.18529 -2.27755,0.55588 -0.31655,-0.0849 -0.49411,0.42463 -0.42463,0.77977 0.27022,0.47095 0.32426,-0.0463 -0.27022,0.53271 -0.47095,0.0772 -0.28566,-0.41691 -0.31654,0.0849 0.13897,0.24705 -0.54044,0.1853 0.13897,0.24705 0.525,-0.0772 0.008,0.52499 0.55588,0.28566 -0.13125,0.92647 -0.50956,0.0695 -0.6022,0.87242 -0.72573,0.13897 -0.31654,0.50955 -0.47095,-0.0232 -0.81837,1.45146 -0.55588,1.5441 v 0 l -0.99595,-0.20845 -1.31249,-1.49778 0.054,-1.48234 v 0 l 0.84925,-1.32793 0.93419,-0.3011 0.6408,-0.8647 1.25072,0.19301 -0.10808,-1.02683 0.18529,-0.20845 0.0926,-1.35109 -0.28566,-0.525 0.56359,-1.04999 -0.53271,-0.88786 0.51727,-0.27794 -0.89558,-1.42829 0.38603,-0.73345 1.68307,-0.24706 0.3011,-0.72573 -0.22389,-0.74117 -0.50184,0.20074 -0.35514,-0.77978 -0.63308,0.20846 -0.80294,-0.39375 -0.20073,-0.31654 0.3397,-0.77205 -0.0386,-0.46323 0.29338,-0.40147 -0.61764,-1.21212 v 0 l -0.34742,-0.93418 v 0 l 1.03454,-0.42463 -0.054,-0.39375 0.59448,-0.48639 -0.0618,-0.19301 -0.47868,-0.0386 -0.054,-0.19301 0.36287,-0.3011 0.24705,0.29338 0.7875,-0.0154 1.03454,0.50955 1.79889,-0.87242 0.16213,-0.71028 0.60992,-0.84926 0.0309,-1.06543 0.5636,-1.93013 -0.54816,-0.5636 -0.0618,-0.65624 v 0 0 0 l 1.70623,-0.73345 1.31249,1.92241 0.83382,0.0926 v 0 l 0.24705,0.93418 0.74889,1.21213 v 0 l -0.58676,0.15441 -0.71028,0.53271 -0.27794,0.7875 0.20073,0.86469 -1.49006,2.27756 -0.43235,1.25844 0.0463,0.50956 0.51728,0.22389 -0.29338,1.02683 1.62131,0.47095 0.21617,0.525 0.98823,0.36286 0.83382,0.62536 0.91102,0.0232 0.16985,0.50184 0.43235,0.10037 -0.16213,0.21617 0.12352,0.21617 0.54816,-0.10036 0.21618,0.22389 0.0618,0.5636 -0.87242,0.51728 0.0849,0.25477 0.48639,0.10809 -0.48639,0.54816 0.22389,0.36286 -0.35514,0.98051 -0.74889,0.20845 -1.05771,-0.36286 0.83381,-0.12353 0.41691,0.20845 0.054,-0.50183 -0.37058,-0.0926 -0.20845,0.15441 -1.1272,-0.26249 z"
     title="Mie"
     id="JP-24"
     style="stroke-width:0.772052" />
  <path
     d="m 289.53749,169.27133 -0.31654,0.54816 0.24706,0.19301 0.2625,-0.11581 0.13896,0.50184 -0.97278,0.57904 -1.32021,2.79483 -0.30882,2.85659 0.24706,1.5055 v 0 l -0.53272,-0.13897 -0.55588,0.20845 0.0232,1.67536 -0.10036,0.16985 -1.21984,-0.0463 0.36286,0.3011 -0.11581,0.12353 -0.93418,-0.20845 -0.48639,-0.38603 -0.21618,-0.57904 0.13897,-0.88014 -0.43235,-0.35514 -0.63308,-0.21617 -2.04594,0.20845 -0.28566,-0.84154 -0.88014,-0.53271 -0.87241,0.44007 -1.07316,-0.50956 v 0 l -0.0463,-1.52866 1.32793,-0.008 0.76433,-0.42463 0.14669,-0.78749 0.85698,-1.21984 -0.17757,-0.94963 0.12352,-0.78749 0.81066,-1.01911 -0.12353,-0.46323 0.84154,-0.88014 0.47095,-1.23528 -0.15441,-0.54044 -0.46323,-0.3011 -0.20846,-0.70257 0.29338,-0.50183 -0.0232,-0.41691 -0.47095,-1.05771 0.0772,-0.17757 0.50955,0.27022 0.30882,-0.0772 0.33198,-0.88786 -0.16985,-0.74889 0.525,-0.84926 -0.64081,-0.34742 -0.14669,-0.81837 -0.81837,-0.7875 0.17757,-0.27022 v 0 l 0.20845,0.13897 1.35882,-0.27793 1.26616,-1.21213 0.54816,-0.13125 v 0 l 0.73345,-0.10808 0.9419,0.70256 1.11176,0.37059 0.42462,0.62536 1.70624,-0.19301 0.55588,0.15441 0.19301,0.38603 -0.45551,0.42462 0.36286,0.84154 1.36654,0.77977 0.40146,-0.13897 0.13125,-0.54043 0.69485,-0.67169 1.89152,0.77205 0.38603,-1.49778 -0.0772,-0.39374 0.52499,-0.54044 -0.0849,-1.37425 0.18529,-0.40147 1.11175,0.10037 0.9033,0.3783 v 0 l 0.65625,2.20035 -0.29338,-0.0926 -0.39375,-0.63308 -0.53271,0.15441 -0.0695,1.28933 -1.04999,0.64852 -0.11581,0.43235 0.7875,0.525 -0.0386,0.93418 -0.54815,-0.49411 -0.77978,0.72573 -0.46323,0.13897 -0.0232,0.55587 1.32793,0.16213 -0.0926,0.525 -0.55587,0.49411 -0.36287,0.0386 0.0232,0.37831 0.34743,0.15441 0.12353,0.41691 0.37058,-0.13125 0.47095,0.27794 -0.22389,0.73345 -0.36287,-0.50184 -0.27794,0.0849 v 1.27389 l -0.718,-0.0155 0.27793,0.24706 0.0926,0.72573 1.02683,-0.12353 0.0232,0.2239 -0.50955,0.0926 0.53271,1.3897 -0.2625,0.75661 -1.12719,-0.81838 0.20073,-0.40146 -0.71801,-0.20846 0.20074,-0.34742 0.44007,-0.16985 -0.41691,-0.49412 -0.87242,0.29338 -0.13125,-0.50955 -0.20845,-0.0849 -0.74889,-0.0463 -1.2044,0.34742 -0.96507,0.64853 0.0926,0.71028 -0.41691,0.13125 -0.054,-1.06543 -0.71029,-0.0926 -0.39375,0.23933 z"
     title="Miyagi"
     id="JP-04"
     style="stroke-width:0.772052" />
  <path
     d="m 144.09835,286.29125 -0.77206,2.60953 -0.1158,1.11948 0.6408,0.9033 -0.43235,1.2044 0.0463,1.55954 -0.60992,0.35515 -0.69484,1.61359 0.18529,0.61764 -0.42463,0.2625 0.14669,0.74117 -0.6022,0.56359 0.2625,0.54816 -0.39375,0.0232 -0.40147,-0.35514 -0.6794,0.0618 -0.525,-1.1658 -0.81065,-0.20073 v 0 l 0.0926,-0.55588 0.47868,-0.50955 -0.14669,-0.64853 0.19301,-0.47867 -0.23162,-0.71029 -0.36286,-0.22389 -0.74117,0.0849 -0.54816,-0.49412 -0.38602,0.44779 -0.42463,-0.74889 -0.12353,-1.21212 -0.60992,-0.14669 0.13897,-0.47095 -0.83382,-0.10037 -0.23161,-0.27794 -0.50184,-0.0772 -0.13125,-0.67941 0.15441,-0.054 0.0926,-0.97279 -0.57132,-0.65624 -0.83381,-0.27022 -0.32427,-1.09631 -0.63308,-0.60992 -0.50183,-0.17758 0.37058,-0.77205 v 0 l 1.98418,0.0386 0.77205,-0.54815 0.65624,0.27022 0.30882,-0.10037 0.54044,-0.91874 0.85698,0.27794 0.6794,-0.0849 -0.13125,-0.70257 -0.88786,-1.03455 0.15442,-0.45551 0.43234,-0.0232 0.4864,-0.79521 -0.58676,-0.525 -0.14669,-0.88786 -0.33971,-0.0695 -0.32426,-0.525 -0.19301,-0.87242 0.19301,-1.06543 0.30882,-0.13125 0.2239,-0.55587 0.54816,0.16213 0.35514,-0.2625 0.19301,-1.08859 0.27794,-0.41691 h 0.45551 l 0.15441,-0.71801 0.74889,-0.49411 0.0232,-0.69485 0.43235,-0.77205 0.97279,-0.12353 v 0 l 0.37058,0.44779 0.29338,0.008 1.55955,-0.54044 0.6408,0.66397 -0.13897,0.36286 0.14669,0.2239 0.69485,0.23161 0.40147,-0.3397 1.72167,0.0154 0.37831,-0.44779 0.1158,-0.57132 0.61765,-0.1158 1.26616,0.47867 -0.20073,1.2044 0.43235,0.008 v 0 l -0.17757,0.40147 -1.20441,0.74889 -0.45551,1.28932 -0.83381,0.40919 -0.30882,0.67169 0.17757,0.48639 0.5636,0.40919 -0.50956,0.4169 -0.69484,0.13125 0.14669,0.42463 0.45551,0.27022 -0.71029,0.27794 -0.9033,2.1463 z"
     title="Miyazaki"
     id="JP-45"
     style="stroke-width:0.772052" />
  <path
     d="m 246.14817,191.9465 1.4283,-0.94191 1.97645,-2.03821 1.78344,-1.00367 1.768,-2.9724 0.64852,-0.44779 0.525,-0.91102 1.06543,-3.55916 0.70257,-0.84926 3.14225,-2.26211 1.83748,-0.48639 1.32021,-0.85698 1.35109,-1.45146 0.95735,-1.5441 0.31654,-1.22756 0.10037,-2.99557 1.42829,-2.89519 v 0 l 1.39742,0.74117 1.14263,0.24706 0.1853,0.22389 -0.30882,1.53638 0.61764,0.87242 1.42057,0.37059 0.88786,0.94962 -0.60992,1.22756 -1.05771,0.66397 -1.21984,-0.16985 -0.40147,0.63308 0.12353,1.01139 -0.2625,0.63308 0.27022,0.58676 -0.53272,0.39375 -0.45551,2.4474 0.50956,0.89558 0.50955,0.24706 0.34742,-0.10037 0.34743,0.59448 v 0 l -1.21984,1.32021 -0.54816,1.00367 0.10037,0.18529 -1.18124,0.80293 -0.0232,0.5636 0.32426,0.79522 -0.0695,0.62536 0.29338,0.63308 -0.37058,0.17757 -0.97279,-0.16985 -0.28566,0.18529 -0.3011,-0.24705 -0.36286,0.0309 -0.31654,0.12353 -0.24706,0.91874 -0.525,-0.18529 -0.42462,0.22389 -1.65992,0.18529 -0.44007,0.71029 0.51728,0.43235 -0.10809,0.91874 -0.15441,0.89558 -0.74889,1.08088 0.45551,0.61764 0.525,0.12353 0.36286,0.718 -0.27022,0.98823 0.32427,1.07315 -0.16986,0.6022 0.0849,1.03455 -0.18529,0.32426 v 0 l -0.17757,-0.26249 -0.71029,-0.054 -0.0849,-0.58676 -1.18896,-1.19668 -0.0926,0.74117 -0.63309,0.5636 -1.25844,0.21618 0.20845,1.49006 -0.0772,0.19301 -0.64853,-0.0772 -0.22389,0.73345 0.19301,0.33971 -1.15036,0.47867 -0.50183,-0.0232 0.0849,0.77205 -0.60993,0.51727 -0.92646,-0.3397 -0.27794,0.48639 -0.19301,-0.12353 v 0 l -0.0926,-0.37058 -0.29338,-0.19301 0.40147,-0.65625 -0.17757,-0.35514 0.10809,-0.5636 -0.75661,-0.34742 -0.79522,-0.84154 -0.0309,-1.19668 -0.32426,-0.72573 -0.62536,-0.17757 -1.97646,0.62536 -0.56359,1.2044 -0.91875,0.40919 -0.20073,1.27389 -0.19301,0.0309 -0.2239,-0.48639 -0.65624,-0.0463 -0.77977,0.50956 -0.95735,0.0154 -0.71801,0.81837 -0.73345,-0.53271 0.42463,-0.99595 -0.28566,-0.43235 -1.43601,-0.3011 -0.77978,0.0695 0.0618,0.99595 -0.6022,1.01139 -1.05771,0.81065 v 0 l -0.45551,-1.29704 v -0.59448 l -0.3011,-0.46323 -0.0232,-0.91875 -0.63308,-0.19301 -0.54043,-0.62536 v 0 l 4.18452,-1.52866 1.39741,-1.02683 0.66397,-0.23162 0.71028,-0.84926 0.85698,0.21618 z m 3.86026,-19.12373 -0.45551,0.97279 0.14669,0.82609 0.54044,0.23162 1.243,-0.50184 0.15441,0.19302 -1.09631,3.03416 -2.12314,1.72168 -0.84926,0.0463 -0.77977,0.47095 -0.57132,-0.11581 -0.16213,-0.36286 1.01138,-0.44007 0.2625,-0.64852 -0.0772,-0.65625 0.85698,-0.77205 0.17757,-0.68713 -0.19302,0.31655 -0.40146,-0.44779 -0.47095,-0.0772 -0.43235,0.81065 -0.31655,-0.18529 0.008,-0.6794 -0.17758,-0.11581 0.27022,-0.27022 0.0232,-1.05771 0.75661,-0.96507 0.54044,-1.22756 0.6022,-0.29338 0.525,-0.76433 0.54815,-0.13897 0.35515,-1.18896 0.84153,-0.20073 -0.3397,2.47828 z"
     title="Niigata"
     id="JP-15"
     style="stroke-width:0.772052" />
  <path
     d="m 236.29679,227.32964 -0.008,-0.40919 0.64852,-0.50183 -0.20073,-0.98051 0.67169,-0.22389 -0.54816,-0.75661 0.50183,-0.54044 v -0.70257 l -0.44007,-0.41691 -0.82609,0.24706 -0.23934,-0.42463 0.054,-0.84926 -0.3011,-0.34742 0.33199,-0.98823 -0.6022,-0.54043 -0.61765,-1.38197 -0.94962,-0.28566 -0.0386,-0.39375 -0.80294,-0.008 -0.22389,-0.3011 0.0849,-0.41691 0.45552,-0.19301 0.27021,-0.81838 0.88786,-0.27022 0.25478,0.25478 0.32426,-0.054 0.40147,-0.81838 0.3397,-0.0772 0.28566,-0.71029 0.77205,-0.58676 0.3011,-1.21212 -0.55587,-0.19301 -0.35515,-0.38603 0.008,-0.62536 0.57904,-0.54816 0.0386,-0.40147 -0.29338,-0.42462 1.07316,-1.39742 0.0695,-0.6022 -0.0695,-0.40919 -0.79522,-0.50955 -0.10036,-0.39375 v 0 l 0.69484,-0.66396 0.32426,-0.62536 -0.0154,-0.57904 0.3011,-0.40919 0.47096,-0.13125 -0.0927,-0.3783 -0.16213,0.0309 0.0849,-0.59448 0.91103,-0.54044 0.15441,-3.22718 v 0 l 1.05771,-0.81065 0.6022,-1.01139 -0.0618,-0.99595 0.77978,-0.0695 1.43601,0.3011 0.28566,0.43235 -0.42463,1.00367 0.73345,0.53271 0.71801,-0.81837 0.95735,-0.0232 0.77977,-0.50184 0.65624,0.0463 0.2239,0.47867 0.18529,-0.0309 0.20073,-1.27389 0.91874,-0.40919 0.5636,-1.21212 1.98418,-0.62536 0.62536,0.17757 0.32426,0.72573 0.0309,1.19668 0.79522,0.84154 0.75661,0.34742 -0.10809,0.5636 0.17757,0.34742 -0.40147,0.66397 0.29338,0.18529 0.0927,0.37058 v 0 l -1.19668,0.64081 -1.38197,0.27793 -0.008,0.84154 -0.74117,0.12353 -0.74117,0.91102 0.0154,0.76433 -0.46323,1.28161 0.0463,1.00367 0.96506,0.57131 0.33199,0.0541 0.16213,-0.23934 0.6794,0.19302 0.33971,-0.30883 0.54043,-0.0772 0.64081,0.19301 0.22389,0.88786 -0.054,1.14264 -0.79522,0.52499 0.17758,0.85698 0.32426,0.3397 -0.0232,0.62537 -0.34743,0.37058 -0.35514,-0.25478 -0.12353,0.13125 0.3397,0.58676 0.50184,0.0618 0.21617,0.51727 -0.25478,0.27022 0.29338,1.36653 0.47096,0.14669 0.27793,0.40147 0.27794,-0.0695 v 0 l -0.0772,0.35515 0.40146,0.81065 -0.15441,0.40147 v 0 l -0.30882,-0.008 -0.56359,0.72573 -0.74889,0.008 -0.41691,-0.88014 -1.35881,-0.0232 -0.16986,0.31654 -0.37058,0.0695 -0.37059,-0.40918 0.008,-0.51728 -1.10404,-0.44779 -1.36653,2.09226 -0.55588,-0.47867 -0.15441,0.0927 -0.74889,1.52094 0.67941,0.66396 -0.77206,0.84926 0.5636,1.36653 v 0 l -0.44779,1.26617 -0.27794,-0.10809 -0.43235,0.50183 0.25478,0.20074 -0.31654,0.43235 0.32426,1.01138 -0.57132,0.20074 v 0.51727 l 0.40919,0.51728 -0.10809,0.55587 -1.27388,0.4864 -0.93418,0.77977 -0.98823,0.49411 -0.16213,0.33199 -0.39375,0.008 -0.35514,0.718 -0.8261,0.0849 v 0 l -0.64852,0.20073 -0.16985,-0.3011 -1.19668,-0.23161 -0.66397,0.43235 -0.96506,0.20073 v -0.39375 l -0.4864,-0.62536 z"
     title="Nagano"
     id="JP-20"
     style="stroke-width:0.772052" />
  <path
     d="m 213.22016,237.4358 0.61764,1.21212 -0.29338,0.40147 0.0386,0.45551 -0.33198,0.77977 0.20073,0.31654 0.79522,0.38603 0.63308,-0.20846 0.36286,0.77978 0.50184,-0.20846 0.22389,0.74117 -0.3011,0.73345 -1.68307,0.24706 -0.38603,0.73345 0.88786,1.42829 -0.50955,0.27794 0.53271,0.89558 -0.55587,1.04999 0.28566,0.525 -0.10037,1.35109 -0.18529,0.20845 0.10808,1.02683 -1.25072,-0.19301 -0.63308,0.85698 -0.93419,0.3011 -0.84925,1.32793 v 0 l -1.55183,0.26249 -0.50955,-0.31654 -0.50956,-0.008 -0.88786,0.525 -0.16985,-0.44007 -0.28566,-0.10037 0.54816,-1.41285 -0.21617,-0.39375 -0.44779,-0.16213 0.0463,-0.40147 -0.88014,-0.74117 0.0926,-0.41691 1.15807,-1.11947 0.29338,-0.44779 -0.008,-0.54816 0.41691,-0.20845 0.62536,0.28566 0.3011,-0.46323 -0.16213,-0.50184 -0.68712,-0.38602 -0.15441,-1.32793 -0.30882,-0.525 v 0 l 0.47095,-0.28566 0.14669,-0.84926 -0.0618,-0.9033 -0.40918,-0.96506 0.44007,-0.69485 -0.16214,-0.34742 -0.29338,-0.054 0.39375,-1.82977 0.39375,-0.3397 0.12353,-1.04999 0.27021,0.0463 v 0 l 0.40147,0.94191 1.48234,0.40146 0.5636,-0.0618 0.57132,-0.87242 -0.0618,0.27794 0.76433,0.008 0.37831,0.51727 0.44779,0.0618 z"
     title="Nara"
     id="JP-29"
     style="stroke-width:0.772052" />
  <path
     d="m 125.14447,271.45241 0.73345,-0.10809 0.37831,0.27794 0.6794,1.32021 v 0.84925 l -0.47095,0.61765 0.17757,0.23933 -0.16213,0.37831 -1.243,0.46323 -0.50956,0.65624 -0.9805,0.36287 0.0232,-0.525 -0.61765,-0.3783 0.0618,-0.67169 1.0886,-0.8647 0.0463,-0.47095 -0.36287,-0.19301 0.14669,-0.32426 -0.20073,-0.2239 -1.43602,-0.0232 -0.83382,0.54816 -1.18124,-0.0695 -0.14669,0.76433 -0.72573,1.15036 -0.74117,0.44007 -0.64852,0.84926 -1.01139,0.37058 0.18529,-0.4169 0.45551,-0.1853 0.77978,-2.35476 -0.99595,-1.18124 0.14669,-0.34742 -0.43235,-0.0695 -0.13897,0.31654 -0.69485,-0.67169 -0.46323,-1.35881 -0.48639,-0.63308 -0.054,-0.44007 0.35514,-0.5636 0.17757,-1.21984 0.7489,-0.20845 0.43234,0.55587 -0.1158,0.9033 0.3011,0.0695 0.19301,-0.32426 0.77977,0.47867 0.0154,1.25844 -0.29338,-0.008 0.11581,0.55588 -0.24706,0.50955 0.45551,0.0463 0.45551,0.58676 0.7489,-0.87242 1.25844,0.79521 0.44007,-0.19301 -1.18124,-1.38969 0.3011,-1.13492 -0.29338,-0.72573 -1.08087,-0.72573 -1.2044,0.0926 -0.64081,-0.3011 -0.24705,-1.55183 -0.34743,0.0695 0.16985,0.62536 -0.6794,0.45551 -0.14669,-0.55588 0.49411,-0.0618 -0.17757,-0.53272 -0.63308,-0.0463 -0.2625,-0.525 -0.5636,-0.3783 -0.42463,0.008 0.10037,-0.68713 0.44779,-0.32426 -0.20073,-1.09631 0.30882,-0.88014 0.45551,0.35514 0.69484,-0.6794 0.2239,0.20845 -0.27022,0.40919 0.14669,0.20845 0.57904,0.11581 0.50955,-0.35514 0.2625,0.24705 0.25478,-0.34742 0.16213,0.64852 v 0 l -0.45551,0.76433 0.81066,1.06544 0.0232,0.97278 1.06543,0.44779 0.78749,-0.0772 0.27794,0.67168 -0.0772,0.32426 -0.40147,0.0772 -0.0386,0.27794 0.88786,0.59448 1.19668,1.27388 2.16176,0.525 v 0 l -0.0386,0.46323 -0.52499,0.2625 -0.61765,0.71801 0.65625,0.57131 z m -14.14399,-26.48138 0.27021,-0.88014 -0.43235,0.54815 -1.0191,-0.0386 -0.38603,-0.23161 0.40147,-0.10809 0.21617,-0.3397 0.10037,-1.53639 0.51727,-1.04227 0.31654,-0.13897 -0.0154,-0.32426 -0.6022,-0.0849 -0.0232,-0.28565 0.28566,-0.33971 0.23162,-1.10403 1.11175,-0.0541 0.3011,-0.74117 0.54816,-0.27021 0.50183,0.22389 0.23934,0.47095 -0.42463,1.1272 0.054,0.95734 -0.58676,0.93419 -1.00366,0.94962 0.44006,0.74889 -0.20073,0.8647 0.37831,0.0463 0.0849,0.2239 -0.67941,0.57132 0.0232,0.30882 0.29338,0.12352 -0.51727,0.4864 -0.47096,-0.10037 -0.70256,2.6713 -1.05771,0.84154 -0.15442,-0.34743 -0.55587,0.008 0.58676,-4.19996 0.37058,0.23162 -0.0926,0.47095 0.65625,-0.21618 0.0154,-0.3011 z m -7.43486,28.83614 0.10808,0.91874 0.72573,0.63308 -0.0618,0.25478 -1.11947,0.0772 -0.16986,-0.34742 -0.57131,0.19301 -0.11581,0.44779 0.39374,0.20846 0.0849,0.3011 -0.33198,0.3397 -0.29338,-0.10037 -0.27022,-0.51727 -1.23528,0.3011 -0.856977,-0.39375 0.208457,-0.63308 0.15441,0.23161 0.74117,-0.31654 -0.33971,-0.51727 -0.13124,-1.4669 0.25477,-0.34742 0.36287,0.0309 0.41691,0.52499 1.5441,-0.87241 -0.008,0.36286 z m 3.99922,-5.55106 -0.23933,1.19668 0.50183,-0.0309 0.67169,-0.44779 0.24705,0.10809 0.0232,0.44007 -1.32021,1.15036 0.0618,0.98822 -0.53271,-0.0463 -0.10037,0.84154 -0.24705,-0.12353 0.23933,-1.18896 -0.35514,-1.01139 -0.20846,0.23161 -0.46323,-0.20845 0.31654,-0.59448 0.54044,0.0154 -0.0927,-0.93418 0.91874,-0.95735 -0.12353,-0.74117 0.29338,-0.76433 0.12353,1.03455 z m 6.38487,-5.9834 0.23934,0.0772 0.0463,-0.2625 -0.42463,0.008 0.11581,-0.29338 0.48639,-0.0618 0.12353,0.50956 -0.14669,0.20073 0.24706,0.23934 -0.36287,0.16213 -0.0232,0.32426 -0.34742,0.0772 0.16985,0.27793 -1.04227,1.76028 -1.4283,0.80294 -0.31654,-0.21618 0.054,-0.41691 0.29338,0.33971 0.33971,-0.0232 -0.21618,-0.67941 0.71029,-0.40147 -0.34743,-0.45551 0.59448,-0.97278 0.99595,-1.00367 z m -10.1216,9.68153 0.64081,0.40147 -0.33199,1.04999 -0.57904,-0.37831 -0.0618,-0.98822 z m 2.26984,-0.29338 -0.40919,-0.20073 -0.30882,-0.50956 0.54815,0.0772 -0.28565,-0.41691 0.15441,-0.25478 0.69484,0.63309 -0.0849,0.94962 z m 2.03821,-7.86721 -0.0154,0.32426 0.24706,0.10809 -0.43235,0.21618 0.0309,0.18529 -0.88014,-0.18529 -0.0463,-0.20846 0.3397,-0.29338 0.44779,-0.0232 0.0386,-0.24706 z m -3.07276,8.94808 -0.12353,-0.31654 -0.27022,-0.0618 -0.0154,-0.32426 -0.63308,-0.40919 0.25477,-0.27794 0.44007,0.12353 0.20074,0.57132 0.28566,-0.62536 0.13897,0.054 0.10036,0.33198 -0.3397,0.41691 0.15441,0.22389 z m 7.10287,-10.34549 0.42463,-1.28161 v 1.61359 l -0.55587,-0.0772 z m 2.57094,-1.97645 -0.34743,0.22389 -0.84925,-0.0463 0.9033,-0.71801 0.41691,0.27022 z m -7.82861,5.32715 -0.17757,0.10037 -0.3011,-0.23934 0.24705,-0.4169 0.33199,0.20845 0.45551,-0.13897 -0.13897,0.525 z"
     title="Nagasaki"
     id="JP-42"
     style="stroke-width:0.772052" />
  <path
     d="m 203.72392,241.37326 0.28566,-0.61764 -0.49412,-0.10809 -0.0232,-0.62536 0.23162,-0.39374 0.57132,-0.33199 -0.35515,-0.17757 v 0 l 0.41691,-0.93418 -0.11581,-1.10404 -0.57131,-0.95734 0.36286,-1.57499 -0.33198,-0.19301 0.70256,-0.39375 -0.74117,-0.10808 -1.08087,-0.62536 0.18529,-0.27794 -0.0618,-0.74889 -0.30882,-0.1853 0.22389,-0.23933 0.33199,0.0386 v 0 l 0.14669,0.57132 1.66763,0.46323 0.054,0.89558 0.19302,-0.0849 0.53271,0.5636 0.60992,-0.20073 -0.29338,-0.32426 0.20074,-0.525 0.57904,0.0154 v 0.47095 l 0.95734,0.88786 0.23162,0.81838 0.79521,0.89558 -0.2239,0.47867 v 0 l -0.27021,-0.0463 -0.11581,1.04999 -0.39375,0.3397 -0.39375,1.82977 0.29338,0.0618 0.16214,0.34742 -0.44007,0.69485 0.40918,0.97279 0.0618,0.89558 -0.14669,0.84925 -0.47095,0.28566 v 0 l -0.99595,0.13897 -0.92646,0.61764 -1.25073,-0.10808 -1.59042,0.57131 -1.25845,0.0695 -0.94962,0.60992 -0.80294,0.13897 -0.33198,-0.0309 -0.10037,-0.67941 -0.20845,-0.0695 v 0 l 1.98417,-0.65625 1.42058,-1.29704 0.74889,-1.15036 z"
     title="Osaka"
     id="JP-27"
     style="stroke-width:0.772052" />
  <path
     d="m 182.51565,240.54717 -1.08859,0.84153 -0.36287,1.32793 -1.51322,-0.4169 -0.40146,0.26249 -1.42058,-0.26249 -0.47867,-0.6022 -1.23529,0.22389 -0.20845,0.23934 0.18529,0.16985 -1.71395,0.58676 -0.53272,-0.64853 v 0 l -0.0926,-1.34337 -0.93419,-1.27388 0.008,-1.06543 -0.31654,-1.4669 0.2239,-0.8647 -1.23529,-1.5441 0.008,-1.23529 0.35515,-0.93418 -0.77977,-0.9419 v 0 l 0.27793,-0.19302 0.1853,-0.64852 0.29338,0.16985 1.39741,-0.48639 -0.25478,-0.91874 0.20846,-0.29338 0.6022,0.25477 0.93418,-0.3783 0.16213,-0.38603 -0.16213,-0.37058 0.74117,-0.19302 0.6022,-1.87608 1.31249,0.48639 0.98051,0.008 0.82609,0.57132 0.40147,0.70257 0.50955,-0.38603 0.15441,-0.41691 0.89558,-0.3783 0.0232,-0.37059 1.15808,-0.33198 -0.11581,0.68713 0.14669,0.13125 0.60993,0.16213 0.72572,-0.13125 0.53272,0.45551 0.16985,0.32426 -0.0926,0.47095 0.3783,0.23934 -0.14669,0.54815 0.39375,0.4864 1.14263,-0.71029 0.41691,0.20845 0.53272,-0.10036 1.07315,-0.89558 0.23162,0.17757 v 0 l -0.33971,0.61764 0.4864,0.50955 -0.0618,0.6022 -0.51727,-0.054 -0.1853,0.20073 -0.18529,0.84926 -0.45551,0.19301 -0.0463,0.71801 -0.71029,0.41691 0.15441,0.45551 -0.11581,0.70257 -0.27022,0.24706 0.525,0.65624 -0.54044,1.01139 0.13897,0.36286 0.83382,0.74117 0.41691,1.05771 v 0 l -0.38603,0.25478 -0.15441,-0.21617 -0.50955,-0.008 -1.35881,1.52866 -0.28566,0.68712 -0.75661,0.45552 -0.98823,0.0463 z m 4.06099,2.19263 -0.28565,0.0463 0.52499,-0.54816 -0.66396,0.15441 -0.51728,0.99595 -0.17757,-0.45551 0.28566,-0.37831 -0.0849,-0.18529 -0.38602,-0.22389 -0.9033,0.38602 -0.16213,-0.19301 0.34742,-0.66397 2.84115,-1.04227 -0.0926,0.36287 0.23162,0.2625 -0.30882,1.73711 -0.30882,-0.40146 z"
     title="Okayama"
     id="JP-33"
     style="stroke-width:0.772052" />
  <path
     d="m 134.06167,267.27561 0.27022,-0.19302 0.37058,-1.06543 -0.64852,-0.5636 0.0232,-0.47867 -0.27794,-0.14669 0.0926,-0.29338 0.40147,-0.20073 0.10808,-0.49411 -0.22389,-0.73345 -0.23162,-0.12353 0.36287,-0.53272 0.3783,-0.10036 0.23162,-1.27389 1.243,-1.06543 0.71801,-0.17757 0.74889,0.20845 1.47462,-0.0849 -0.10037,-0.35514 0.3011,-0.40147 -0.23161,-0.61764 0.11581,-0.28566 v 0 l 0.24705,-0.33198 1.37426,0.70257 1.98417,0.0926 0.0695,-0.34742 0.77206,-0.69485 0.3783,-0.74117 1.29705,-0.38602 1.23528,0.62536 0.96507,1.28933 0.20845,0.83381 -0.0695,1.38198 -0.24706,0.1158 -0.30882,0.93419 -1.05771,-0.30882 -0.13897,0.22389 0.38602,0.50183 -0.0926,0.16986 -0.70257,0.0772 -0.16213,0.45551 -0.5636,-0.0849 -0.18529,-0.32427 -0.54816,0.11581 -0.0926,0.54816 0.27021,1.15808 1.15808,0.39374 1.45146,-0.62536 1.03455,0.74117 2.28527,-0.51727 -1.04999,1.56726 -0.38602,0.97279 0.54043,0.23933 0.83382,-0.3783 0.24706,0.21617 -0.53272,0.2625 -0.30882,0.525 0.76433,0.22389 0.23162,0.0232 0.22389,-0.54816 0.45551,0.64853 0.27794,-0.13125 -0.0232,-0.39375 0.22389,-0.10808 0.054,0.61764 -0.38603,0.27794 -0.79521,-0.0849 -0.57904,1.06543 0.0927,0.21618 0.44779,0.14669 0.19301,0.35514 0.55588,-0.20073 0.34742,0.28566 1.26616,0.054 0.0541,0.20073 -1.62903,0.20846 0.13125,0.59448 0.47095,-0.0154 -0.62536,0.58676 0.50955,0.54043 -1.10403,0.7875 -0.71029,-0.36287 -0.19301,1.18124 v 0 l -0.43235,-0.008 0.20073,-1.2044 -1.26616,-0.47867 -0.61765,0.1158 -0.1158,0.57132 -0.37831,0.44779 -1.72168,-0.0154 -0.40146,0.3397 -0.69485,-0.23161 -0.14669,-0.2239 0.13897,-0.36286 -0.6408,-0.66397 -1.55955,0.54044 -0.29338,-0.008 -0.37058,-0.44779 v 0 l -1.08088,-0.98051 -0.16213,-1.75255 -0.45551,-1.25073 -0.66396,-0.6022 -0.14669,-0.9033 -0.80294,-0.84154 -1.08859,-0.20073 -0.78749,0.43235 -0.10037,0.57132 0.6408,0.93418 -0.13896,0.65625 -0.37831,0.48639 -0.29338,-0.008 -0.30882,-0.48639 -0.48639,-0.0386 -0.46323,-0.60992 -0.67169,-0.13125 z"
     title="Oita"
     id="JP-44"
     style="stroke-width:0.772052" />
  <path
     d="m 118.21916,263.19145 0.51728,0.74117 0.12353,-0.71029 -0.14669,-0.14669 0.51727,-1.07315 -1.35109,-1.03455 0.37058,-0.11581 -0.20073,-0.26249 0.20845,-0.24706 0.3011,0.10809 0.27022,0.61764 0.21618,-0.16985 -0.43235,-0.91102 -0.0232,-0.24706 0.41691,-0.0232 -0.15441,-0.67941 0.49411,0.37059 0.24706,-0.0309 0.0154,-0.20846 0.52499,-0.0232 0.0232,0.2625 0.57132,0.48639 -0.48639,0.57132 0.47095,0.41691 0.88014,0.14669 0.21617,-0.12353 -0.0386,-0.25478 v 0 l 2.0305,0.0618 0.53272,-0.24705 0.66396,0.18529 0.36287,-0.16213 1.31248,0.8261 0.59448,0.13124 0.47868,0.54816 0.76433,-0.73345 0.57132,-0.19301 0.31654,0.16213 -0.0154,1.73712 -0.39375,-0.0232 -0.39375,0.66396 -1.42829,1.09631 -0.45551,0.80294 -0.13125,0.94962 v 0 l -1.01139,-0.008 -0.15441,-0.40147 -0.67941,-0.44779 -0.14669,0.50956 -1.38197,1.11175 1.37425,2.36248 0.0309,0.31654 -0.32427,0.0232 v 0 l -2.16175,-0.52499 -1.19668,-1.27389 -0.88786,-0.59448 0.0386,-0.27794 0.40147,-0.0772 0.0772,-0.32426 -0.27794,-0.67169 -0.78749,0.0772 -1.06543,-0.44779 -0.0232,-0.97279 -0.81066,-1.06543 0.45551,-0.76433 v 0 z m -1.243,-6.93302 -0.47095,-0.0232 -0.3011,-0.84925 -0.28566,0.38602 -0.16213,-0.57132 0.26249,-0.38602 -0.14669,-0.3011 0.81838,-1.03455 1.05771,0.38602 -0.20073,0.65625 0.40146,0.34742 -0.44007,0.2239 0.6022,0.20845 -0.13124,0.41691 -0.84154,0.0386 z m 0.18529,5.13414 0.28566,-0.77205 0.6022,0.73345 -0.47095,-0.0463 -0.0618,0.32427 -0.37059,0.17757 -0.23161,-0.23162 z"
     title="Saga"
     id="JP-41"
     style="stroke-width:0.772052" />
  <path
     d="m 218.84842,228.61897 0.054,0.65624 0.54816,0.5636 -0.5636,1.93013 -0.0309,1.06543 -0.6022,0.84926 -0.16213,0.71028 -1.80661,0.87242 -1.02683,-0.50955 -0.78749,0.008 -0.25478,-0.29338 -0.36286,0.3011 0.054,0.20073 0.47868,0.0309 0.0618,0.20073 -0.59448,0.47867 0.054,0.40147 -1.03455,0.42463 v 0 l -0.1158,-0.31654 0.20073,-0.20074 -0.47095,-0.46323 -0.30882,0.11581 -0.23162,-0.28566 -0.23933,0.0386 -0.10037,-0.6794 -0.5636,0.29338 -0.54816,-0.36287 0.1853,-0.82609 -0.68713,-1.1658 -0.22389,-0.9033 0.26249,-0.19302 0.23934,-1.34337 -0.33198,-1.62903 0.29338,-1.11175 -0.32427,0.008 -0.91102,-1.42058 v 0 l 0.34743,-0.57131 0.28566,-0.0772 0.0463,-0.38603 h 0.50183 l 0.27022,0.30882 0.44007,-0.21617 0.80293,-2.13086 0.59448,0.59448 0.35515,-0.0772 0.35514,-0.6794 0.99595,-0.0926 0.27022,-0.8261 0.84925,0.24706 0.10809,-0.57904 -0.6408,-1.35881 0.23934,-0.51727 0.51727,-0.10037 1.39741,0.71801 v 0 l 0.20074,0.82609 0.50955,0.054 -0.0926,1.23528 0.6022,0.22389 0.23933,-0.38602 0.42463,0.54816 -0.18529,0.68712 0.48639,0.49411 -0.0695,0.77206 0.40918,0.65624 -0.42462,0.3397 -0.0309,1.03455 -0.24705,0.40147 -0.0154,0.71801 -0.24706,0.16213 z"
     title="Shiga"
     id="JP-25"
     style="stroke-width:0.772052" />
  <path
     d="m 156.33537,231.55276 0.21617,-0.60992 0.94963,-0.71801 0.0618,-0.51727 0.38603,-0.51728 1.93785,-1.38969 1.09631,-0.41691 0.43235,-0.39374 0.31654,-0.6022 0.10037,-1.24301 -0.74117,-0.3011 0.0772,-0.28566 0.86469,-0.35514 0.38603,0.23161 0.65624,-0.13124 0.0849,-0.16214 -0.47867,-0.27021 1.11175,-0.23162 0.18529,-0.24706 1.64448,-0.39374 0.77205,0.0309 -0.0541,-0.50183 0.9033,0.0926 0.31655,-0.74117 0.718,-0.49411 0.70257,0.81837 0.83382,-0.13125 0.31654,-0.25477 1.66763,0.24705 -0.93418,0.23162 -0.31654,0.39375 0.3783,0.76433 0.88014,0.52499 v 0 l -0.12353,1.88381 -0.32426,0.47867 0.20846,1.25845 -2.39337,1.06543 0.0154,0.22389 0.47095,0.10037 0.17757,0.53272 -0.68713,0.54043 -0.13125,1.18896 v 0 l -0.44779,-0.16985 -1.09631,0.32426 -0.75661,-0.60992 -0.60992,0.47867 -0.88786,-0.54043 -0.30882,0.054 -1.85293,2.57093 -0.91874,0.19302 -0.65624,0.77205 0.29338,0.36286 0.53271,0.16213 0.008,0.67169 -1.35881,0.10809 -1.13492,0.81837 -1.25844,-0.10036 -0.19301,-0.31655 -0.31654,0.10809 0.054,0.19301 -0.39375,0.33199 -0.40146,-0.32427 -0.95735,0.10037 -0.16213,0.3397 -0.30882,-0.37058 -0.60992,-0.0849 -0.23934,0.88014 -1.11947,0.66397 -0.23162,0.37058 0.42463,0.2625 -0.54044,0.79521 -0.16213,1.37426 -0.48639,0.52499 -0.46323,0.13897 -0.23162,0.49411 0.37831,0.4864 v 0 l -0.62536,0.34742 -0.37059,0.54816 -0.11581,0.23933 0.33199,0.68713 -0.8647,1.21984 -0.53272,-0.48639 -0.72573,0.54044 -0.81065,0.0772 -0.67169,-0.66396 -0.13124,-0.59448 0.42462,-1.18896 -1.44373,0.0309 -0.47095,-1.27389 0.50955,-0.49411 0.0154,-0.63308 0.33198,-0.12353 -0.6408,-1.96101 v 0 l 0.88786,0.0232 1.1658,-0.34743 1.02683,-1.17351 0.87242,-0.63309 0.17757,-0.50955 0.48639,-0.15441 0.89558,-0.95735 0.57904,-0.95734 2.20807,-1.83748 z m 13.97414,-21.10018 -0.3011,-0.38602 -0.37058,-0.054 0.13124,-0.62536 -0.23161,-0.13125 0.0618,-0.67168 0.67169,-0.76433 0.83381,-0.23934 0.60992,0.25478 0.99595,1.12719 -0.23161,1.15808 -0.34743,0.14669 -0.0772,-0.43235 -0.10809,0.34742 -0.44779,0.0695 0.46323,0.10809 0.0849,0.43235 -0.20074,0.054 -1.38197,0.0386 0.10809,-0.33198 z m -35.52983,-25.6244 0.24706,-0.14669 0.16213,0.16985 -0.16985,0.24706 0.0772,0.74889 -0.58676,0.6794 -0.99595,-0.4169 -0.26249,-0.74117 0.47095,-0.31655 z m 33.24456,26.4891 0.20845,0.0695 -0.0695,0.25477 -0.71801,0.35515 0.25477,0.38602 -0.16985,0.4864 -0.3397,-0.0463 -0.28566,-0.54815 -0.27022,-0.0232 -0.14669,0.17758 0.33199,0.86469 -0.79522,-0.49411 0.48639,-0.95734 0.54816,-0.0386 -0.0154,-0.35514 0.525,0.13125 z m 0.88014,1.06543 -1.01911,0.97279 0.16985,-0.6408 -0.23934,-0.61765 0.20074,-0.13897 0.20073,0.23162 0.054,-0.38603 0.28566,-0.0618 0.3011,0.16985 z m -1.99962,0.99595 1.04227,0.40919 -0.10809,0.27022 -0.91102,-0.12353 z"
     title="Shimane"
     id="JP-32"
     style="stroke-width:0.772052" />
  <path
     d="m 254.04626,215.74886 0.15441,-0.40147 -0.40146,-0.81065 0.0772,-0.35515 v 0 l 0.57904,-0.77977 0.94963,-0.0154 0.71028,-0.77977 1.17352,-0.30882 0.35515,-0.6022 1.18124,-0.054 0.32426,-0.58676 0.0154,-0.718 0.94962,-1.52095 0.54044,0.0386 1.30477,0.66396 0.46323,-0.11581 0.74889,0.2239 0.66396,-0.16213 1.39742,1.03455 1.96101,-0.37059 0.40147,0.37059 0.3783,-0.13897 0.23934,-0.44779 v 0 l 0.64852,0.31654 v 0 l -0.13125,0.68712 0.66397,1.51323 0.3011,0.0772 0.3011,-0.27022 v 0 l 0.54815,1.08088 0.0463,0.80293 1.28932,2.48601 -0.16985,1.02683 -0.27022,0.20845 v 0 l -0.71028,0.054 -0.13125,-0.32426 -0.40147,0.10809 -0.34742,-0.21618 -0.31654,0.57132 -1.37426,-0.23933 -0.51727,0.61764 -0.42463,-0.2239 -0.70257,0.28566 -0.21617,-0.67168 -1.22756,0.57904 -0.96507,0.0232 -0.40919,-0.46323 -0.6022,-0.11581 -0.31654,-0.67169 -1.62131,-0.1158 -0.79521,-0.43235 -1.28161,-0.21618 -0.54043,-0.41691 -1.07316,0.44779 -0.13896,0.33971 v 0 l -0.84154,0.22389 -0.53272,-0.40918 -0.89558,-0.15442 -0.22389,-0.49411 z"
     title="Saitama"
     id="JP-11"
     style="stroke-width:0.772052" />
  <path
     d="m 259.85982,234.98067 -0.8261,1.58271 -0.94962,0.78749 -0.37059,0.97279 0.2239,0.58676 -0.34743,0.13125 -0.37058,-0.19302 -0.31654,0.14669 -0.15441,0.40147 -0.97279,0.57132 -0.29338,-0.10809 -0.83381,-0.78749 0.17757,-0.2239 -0.10809,-0.28566 -0.5636,-0.25477 0.008,-0.62536 0.57132,-0.5636 -0.37058,-0.83382 0.20845,-0.15441 -0.15441,-1.38197 0.51727,-0.47095 -0.4169,-1.18124 0.3783,-0.94963 1.58271,0.12353 0.20845,-0.54816 -1.37425,-1.22756 -1.79116,-0.39374 -2.11542,0.63308 -0.69485,1.21212 0.30882,0.38603 -0.16985,0.46323 -2.3702,1.2816 -0.61764,1.03455 0.13897,0.77205 -0.53272,0.94963 -1.17352,0.88786 -0.41691,1.05771 0.008,0.55588 0.57903,0.54815 -0.0695,0.16985 -3.45107,-1.21984 -1.59043,-0.054 -1.42058,0.34742 -2.05365,-0.47095 -2.74851,-0.054 v 0 l -0.12353,-1.79116 0.33199,-0.94963 2.12314,-1.18896 0.98823,-1.48234 0.0232,-0.81837 1.12719,-1.54411 0.36287,-0.18529 -0.0618,-0.36286 0.44007,-0.44779 -0.39374,-0.38603 0.23933,-0.75661 v 0 l 0.8261,-0.0849 0.35514,-0.718 0.39375,-0.008 0.16213,-0.33199 0.98823,-0.49411 0.93418,-0.77977 1.27388,-0.4864 0.10809,-0.55587 -0.40919,-0.51728 v -0.51727 l 0.57132,-0.20074 -0.32426,-1.01138 0.31654,-0.43235 -0.25478,-0.20074 0.43235,-0.50183 0.27794,0.10809 0.44779,-1.26617 v 0 l 0.72573,2.45513 -0.29338,0.91102 0.17757,0.82609 -0.35514,0.71801 0.25478,1.00367 0.52499,0.39375 0.58676,-0.40147 0.58676,0.27794 0.53272,2.07682 0.53271,0.38602 0.95735,0.0927 0.55587,-0.48639 -0.30882,-2.05366 0.33199,-0.47095 -0.0386,-1.32021 0.76433,-0.70257 0.44007,0.97279 0.79522,-0.0926 0.34742,0.74889 2.16175,-0.36286 0.28566,-0.20846 0.54043,0.0541 0.51728,-0.3011 v 0 l 1.1658,-0.0232 0.1158,0.1853 0.27022,1.17352 -0.21617,0.74889 -0.44007,0.47867 0.18529,1.17352 0.54044,0.41691 0.10036,0.52499 1.17352,0.16213 v 0 l -0.51727,0.74889 -0.10809,0.77977 0.48639,0.19302 -0.10036,1.02683 0.79521,0.6408 -0.0849,1.18124 z"
     title="Shizuoka"
     id="JP-22"
     style="stroke-width:0.772052" />
  <path
     d="m 277.31591,196.40124 -0.0695,1.53638 0.20845,0.76433 -0.16985,1.00367 0.47867,0.77205 -0.0695,0.24706 -0.73345,0.16213 -0.21618,0.29338 0.44007,1.5055 0.0154,1.39741 -0.71029,1.43602 -0.16213,0.9033 -0.51727,0.15441 -0.21618,-0.3011 -0.34742,0.0154 -0.31654,0.36287 -0.525,-0.18529 -0.0386,0.40146 -0.20073,0.10037 -1.2044,0.0618 -0.10037,0.34743 -0.77205,0.36286 -0.0926,0.67941 -0.87242,-0.21618 -0.43235,1.30477 -1.26616,0.67168 -0.5636,0.0463 v 0 l -0.64852,-0.31654 v 0 l -0.39375,-0.60992 0.0695,-0.21618 -0.29338,-0.18529 -0.85698,0.13897 -0.54816,-0.33198 -0.77977,0.22389 -0.85698,-0.74889 0.0309,-0.44779 -0.81065,-0.6022 0.13897,-0.74117 0.91874,-1.19668 -0.25478,-0.58676 0.30882,-0.92646 0.63309,-0.50184 -0.2625,-0.52499 -0.94963,0.054 -1.13491,-0.57132 0.13897,-1.05771 0.45551,-0.68712 -0.21618,-0.9033 0.7875,-1.0886 -0.7875,-0.3397 0.44779,-1.18896 v 0 l 0.72573,-0.33198 0.54816,-0.7875 1.04227,-0.18529 0.71029,-0.57904 0.48639,-0.0695 0.17757,-0.33198 0.60992,-0.15441 0.20074,-0.31655 2.16174,-0.67168 0.13897,-0.70257 1.04999,-0.45551 1.86837,0.21618 1.8452,0.77205 0.7875,0.75661 0.17757,0.71801 0.65624,-0.0386 -0.12353,1.43602 z"
     title="Tochigi"
     id="JP-09"
     style="stroke-width:0.772052" />
  <path
     d="m 264.11382,238.38542 -0.52499,-0.3011 -0.10809,-0.31654 -0.0463,-1.07315 0.17757,-0.38603 0.9419,0.33199 0.40147,0.71028 -0.12353,1.15808 z m -1.62903,4.74812 -0.25477,1.768 -0.37831,-0.30882 -0.0463,-0.40147 z m -1.09631,1.6908 0.19301,0.20845 -0.47095,0.15441 z m 9.51168,-23.99538 -0.63308,-0.0463 -0.15441,-0.71801 -0.38603,0.3397 -0.23162,1.2044 0.24706,0.57904 0.19301,-0.11581 0.33971,0.54816 -0.67169,-0.15441 -0.71801,0.2239 v 0 l -0.008,-0.29338 -0.37058,-0.17758 -0.25478,-0.51727 -2.0691,-0.98051 -0.58676,0.70257 -0.3783,-0.36286 -0.16986,0.17757 0.60993,0.47867 -0.14669,1.55955 -0.23162,0.0232 -1.04227,-1.45918 -1.65991,-0.54044 -0.66397,0.12353 -0.45551,-0.76433 -0.47095,0.0232 -0.35514,-0.42463 -0.46323,-0.10036 v 0 l -1.62131,-0.89558 -1.21984,-2.50145 v 0 l 0.14669,-0.33971 1.06543,-0.44779 0.54815,0.41691 1.28161,0.2239 0.79521,0.43235 1.62131,0.1158 0.31654,0.67169 0.6022,0.12353 0.40919,0.46323 0.96507,-0.0309 1.22756,-0.57904 0.21617,0.67168 0.71029,-0.28566 0.42463,0.2239 0.51728,-0.61764 1.37425,0.24705 0.31654,-0.57903 0.34742,0.21617 0.40147,-0.10809 0.13125,0.32426 0.71801,-0.054 v 0 l 0.83381,1.74484 v 0 l 0.27022,0.58676 -0.43235,0.24705 0.30882,0.29338 -0.6408,0.44007 z m -4.33893,29.0446 0.20845,-0.35515 -0.0232,-0.40919 -0.40147,-0.40918 -0.71801,0.0849 -0.30882,0.77205 0.13897,0.4864 0.53272,0.0695 z m 3.47423,17.99653 0.74889,0.46323 0.11581,-0.54044 0.3011,-0.0695 -0.19301,-0.70257 -0.42463,-0.0386 -0.67941,-0.69485 -0.37058,0.008 -0.12353,0.55588 0.21617,0.43235 0.32426,0.10036 z m 0,0 0.74889,0.46323 0.11581,-0.54044 0.3011,-0.0695 -0.19301,-0.70257 -0.42463,-0.0386 -0.67941,-0.69485 -0.37058,0.008 -0.12353,0.55588 0.21617,0.43235 0.32426,0.10036 z"
     title="Tokyo"
     id="JP-13"
     style="stroke-width:0.772052" />
  <path
     d="m 193.1082,254.20477 -1.61358,0.67168 -0.68713,0.59448 -0.13897,0.39375 -0.96506,0.70257 -0.91875,0.54043 -0.71028,0.14669 -0.49412,1.38198 -0.68712,-0.0309 -0.16213,0.36287 0.20073,0.10808 -0.23162,0.13897 v 0 l -1.62903,-0.16985 -0.6022,-0.91874 -0.0772,-0.36286 0.36286,-0.41691 -0.17757,-0.61764 -1.52094,-0.0386 -0.0772,-1.5441 -0.39374,-0.97279 -0.54044,0.13125 -0.19301,-0.35514 -0.3011,0.10037 -0.32427,0.62536 -0.47095,0.15441 -0.60992,-0.24706 -0.50183,-0.69484 -1.39742,0.13124 -1.03455,-0.40146 -0.28565,-0.41691 v 0 l 0.43234,-0.69485 v -0.80293 l -0.20845,-0.37831 0.2239,-0.52499 v 0 l 0.47867,-0.16985 0.10809,-0.39375 0.77205,-0.64852 0.44779,0.14669 0.21617,-0.38603 0.58676,-0.22389 1.06543,-0.19302 0.66397,0.74889 h 0.36286 l 0.9033,-0.70256 0.95735,-0.10809 0.24705,-0.2625 -0.0463,-0.32426 0.57132,-0.44779 1.31249,-0.13897 1.25844,0.20073 0.21618,-0.23161 0.84153,0.44779 0.32427,-0.16985 0.12352,-0.74117 v 0 l 2.16947,-0.60993 v 0.72573 l 0.57904,0.37831 -0.55588,2.28527 0.0695,0.84926 0.37058,0.40919 0.27794,-0.43235 0.45551,0.82609 0.48639,0.27794 -0.40146,0.3011 0.54043,0.14669 -0.10809,0.35515 -0.99594,0.72573 -0.0695,0.25477 0.20846,0.16213 1.52866,0.0309 0.10809,0.16213 z"
     title="Tokushima"
     id="JP-36"
     style="stroke-width:0.772052" />
  <path
     d="m 171.81501,223.97121 1.1272,0.2239 0.36286,-0.12353 0.36287,-0.66397 0.75661,-0.38602 1.38969,-0.29338 1.11176,0.44779 1.38969,0.13125 2.60181,-0.17757 0.51728,-0.28566 1.08087,0.13125 1.4283,-0.15441 2.1463,-0.57132 0.43235,-0.59448 0.58676,-0.0386 0.10037,-0.3011 0.47095,-0.10036 v 0 l 0.53272,0.40146 0.29337,0.59448 -0.0926,0.7875 0.3783,1.45145 0.5636,0.2625 -0.0695,0.83382 0.5636,0.74117 -0.11581,0.33198 0.20073,0.89558 -1.26616,0.88786 -0.44779,-0.20073 v 0 l -0.23162,-0.17757 -1.07315,0.89558 -0.53272,0.10036 -0.41691,-0.20845 -1.14263,0.71029 -0.39375,-0.4864 0.14669,-0.54815 -0.37831,-0.23934 0.0927,-0.47095 -0.16985,-0.32426 -0.53272,-0.45551 -0.72572,0.13125 -0.60993,-0.16214 -0.14669,-0.13124 0.11581,-0.68713 -1.15808,0.33198 -0.0232,0.37059 -0.89558,0.3783 -0.15441,0.41691 -0.50955,0.38603 -0.40147,-0.70257 -0.8261,-0.57132 -0.9805,-0.008 -1.31249,-0.48639 -0.6022,1.87608 -0.74117,0.19302 0.16213,0.37058 -0.16213,0.38603 -0.93418,0.3783 -0.6022,-0.25477 -0.20846,0.29338 0.25478,0.91874 -1.39741,0.48639 -0.29338,-0.16985 -0.1853,0.64852 -0.27793,0.19301 v 0 l -0.32427,-0.38602 -1.62131,0.24706 v -0.20074 0 l 0.13125,-1.18896 0.68713,-0.54043 -0.17757,-0.53272 -0.47095,-0.10037 -0.0154,-0.22389 2.39337,-1.06543 -0.20846,-1.25845 0.32426,-0.47867 z"
     title="Tottori"
     id="JP-31"
     style="stroke-width:0.772052" />
  <path
     d="m 229.51045,199.22695 1.01139,0.52499 0.75661,-0.17757 1.49778,0.0695 0.9033,-0.85698 0.27794,-0.77977 -0.0232,-0.93419 0.28566,-0.54815 1.03455,-0.54816 2.1463,-0.46323 v 0 l 0.54044,0.62536 0.63308,0.19301 0.0232,0.92647 0.3011,0.46323 v 0.59448 l 0.45551,1.29704 v 0 l -0.15441,3.22718 -0.91103,0.54044 -0.0849,0.59448 0.16213,-0.0309 0.0927,0.3783 -0.47096,0.13125 -0.3011,0.40919 0.0154,0.57904 -0.32426,0.62536 -0.69484,0.66396 v 0 l -0.72573,-0.054 -0.64853,-0.63308 -0.54815,0.26249 -0.87242,-0.27021 -0.21618,-0.6022 -1.04227,0.61764 -0.16213,-0.0309 -0.0309,-0.6794 -0.45551,-0.0386 -1.1272,0.53271 -0.19301,-0.3397 -0.42463,0.0154 -1.60587,1.55955 -0.19301,0.88786 -1.07315,0.9419 -0.2625,-0.0618 0.20074,-0.56359 -0.2625,-0.59448 -0.71029,-0.39375 -0.27022,0.27794 -0.19301,-0.45551 -0.59448,0.43235 -0.2239,0.81837 -0.44779,0.0618 v 0 l -0.1158,-0.68713 0.24705,-0.32426 -0.34742,-1.45918 0.57904,-2.27755 -0.35515,-0.44779 -0.14669,-0.87242 0.59448,-0.94963 -0.17757,-0.35514 0.12353,-0.74889 0.42463,-0.50183 0.46323,-2.69446 1.08087,-1.05772 0.5636,-0.20073 0.95735,0.0772 v 0 l -1.02683,1.76799 1.09631,1.20441 0.53272,0.38602 z"
     title="Toyama"
     id="JP-16"
     style="stroke-width:0.772052" />
  <path
     d="m 209.83085,259.81758 -0.41691,0.29338 -0.24706,0.53272 0.0695,0.54816 -0.37059,0.0618 -0.19301,-0.27022 0.24706,-0.57904 -0.60992,0.0849 -1.45146,-0.57904 -1.81432,-0.29338 -1.55955,-0.93418 -0.31654,-0.57132 0.11581,-0.60992 -0.98051,-0.48639 0.75661,-0.40919 0.19302,-0.44007 -1.11176,-0.9419 -2.02277,-0.93419 -0.525,-1.08859 -0.59448,-0.29338 -0.85698,0.24706 0.16213,-1.79888 1.21213,-0.49412 0.3783,-0.48639 -0.5636,-0.58676 -0.8647,-0.19301 0.47096,-0.49412 0.23161,-0.6408 0.67169,0.054 0.23161,-0.27021 -0.10036,-0.57904 -0.57904,-0.15441 -0.33199,-0.94191 -0.77205,-0.83381 0.10037,-0.37059 0.27794,-0.10809 v 0 l 0.20845,0.0695 0.10037,0.67941 0.33198,0.0309 0.80294,-0.13897 0.94962,-0.60992 1.25844,-0.0695 1.59043,-0.57132 1.25073,0.10809 0.92646,-0.61764 0.99594,-0.13897 v 0 l 0.30883,0.525 0.15441,1.32792 0.68712,0.38603 0.16213,0.50956 -0.3011,0.46323 -0.62536,-0.28566 -0.42463,0.20845 0.008,0.54816 -0.29338,0.44007 -1.15035,1.11947 -0.10037,0.41691 0.88014,0.74117 -0.0463,0.40919 0.44779,0.16213 0.21618,0.39375 -0.54816,1.41285 0.29338,0.10037 0.16213,0.44007 0.88786,-0.525 0.50956,0.008 0.50955,0.31654 1.55183,-0.26249 v 0 l -0.054,1.48234 1.31249,1.49778 0.99595,0.20845 v 0 l -0.25478,0.34742 -0.11581,0.88786 -0.74117,0.20074 -0.17757,0.65624 0.55588,0.21618 -0.054,0.27021 -1.60586,1.1272 z"
     title="Wakayama"
     id="JP-30"
     style="stroke-width:0.772052" />
  <path
     d="m 144.16783,250.54524 -0.45551,-0.31654 -0.27022,0.67941 -0.57132,0.27021 -0.22389,-0.15441 0.11581,-0.45551 -0.33971,-0.10808 -0.59448,1.12719 -1.32793,0.79521 -1.68307,-0.6022 0.0618,-0.60992 -1.74484,-0.98822 -0.53272,0.29338 -0.24705,0.6794 -1.42058,1.37425 -0.14669,-0.45551 0.35514,-0.67168 -0.0232,-1.29705 -0.81837,-1.17352 0.0926,-0.47095 0.57904,-0.10037 0.42463,-0.85697 -0.18529,-0.93419 -0.8261,-0.9033 0.23162,-0.12353 0.29338,-1.05771 2.03822,-0.31654 -0.23162,-0.37058 -0.9419,-0.29338 0.21617,-0.63309 0.71029,0.57132 0.83382,-0.26249 0.40146,0.1158 0.84154,0.85698 2.28527,-0.20073 0.47867,-0.64081 0.7875,0.0232 1.11175,-1.29705 -0.20845,-0.50956 0.27022,-0.43235 0.54043,0.10809 0.54044,-0.54815 0.2625,-0.32427 0.0232,-0.66396 0.35514,-0.0849 0.29338,-0.6794 0.19302,-0.17757 0.74889,0.22389 0.36286,-0.3783 v 0 l 0.6408,1.96101 -0.33198,0.12353 -0.0154,0.63308 -0.50955,0.49411 0.47095,1.27389 1.44373,-0.0309 -0.42462,1.18896 0.13124,0.59448 0.67169,0.66397 0.81065,-0.0772 0.72573,-0.54043 0.53272,0.48639 0.8647,-1.21984 -0.33198,-0.68713 0.1158,-0.23933 0.37059,-0.54816 0.62536,-0.34742 v 0 l 0.23162,0.52499 -0.13125,0.62536 0.18529,1.04999 0.71029,0.6022 -0.0618,0.4864 0.38603,1.12719 0.98823,0.23934 0.25477,-0.14669 v 0 l 0.18529,0.3783 -0.22389,0.40147 0.28566,0.36287 -0.75661,0.70256 0.18529,2.28528 -0.44007,0.74117 -0.84154,0.0926 0.008,1.25073 0.44779,0.52499 -0.25477,0.4864 -0.37831,-0.8261 -1.10403,-0.5636 -0.28566,0.13125 -2.78711,-2.13086 -0.36286,0.46323 -0.0232,0.42463 -0.70257,-0.15441 0.8647,-0.91102 -0.96507,-0.54816 -0.40147,-0.0618 -1.40513,0.42463 -1.62131,0.74117 z m 11.68887,2.79483 -0.69485,-0.10809 -0.40147,0.35515 -0.44779,-0.67169 -0.0463,-0.60992 0.91102,-0.73345 1.04999,0.87242 0.75661,0.0463 0.97279,-0.65624 0.84926,0.0463 -0.97279,0.74117 -0.54816,-0.008 -0.14669,0.23934 0.14669,0.6408 -0.67168,0.0772 -0.0772,-0.63308 -0.3397,-0.0772 -0.41691,0.0695 z"
     title="Yamaguchi"
     id="JP-35"
     style="stroke-width:0.772052" />
  <path
     d="m 260.16092,220.15728 -0.0154,2.01505 -0.26249,0.54044 -0.37831,0.40147 -0.54816,0.0772 -0.35514,0.50183 -1.38197,0.64081 -0.30882,0.87242 v 0 l -0.51728,0.3011 -0.54043,-0.0541 -0.28566,0.20846 -2.16175,0.36286 -0.34742,-0.74889 -0.79522,0.0926 -0.44007,-0.97279 -0.76433,0.70257 0.0386,1.32021 -0.33199,0.47095 0.30882,2.05366 -0.55587,0.48639 -0.95735,-0.0927 -0.53271,-0.38602 -0.53272,-2.07682 -0.58676,-0.27794 -0.58676,0.40147 -0.52499,-0.39375 -0.25478,-1.00367 0.35514,-0.71801 -0.17757,-0.82609 0.29338,-0.91102 -0.72573,-2.45513 v 0 l -0.5636,-1.36653 0.77206,-0.84926 -0.67941,-0.66396 0.74889,-1.52094 0.15441,-0.0927 0.55588,0.47867 1.36653,-2.09226 1.10404,0.44779 -0.008,0.51728 0.37059,0.40918 0.37058,-0.0695 0.16986,-0.31654 1.35881,0.0232 0.41691,0.88014 0.74889,-0.008 0.56359,-0.72573 0.30882,0.008 v 0 l 0.7875,0.17757 0.22389,0.49411 0.89558,0.15442 0.53272,0.40918 0.84154,-0.22389 v 0 l 1.21212,2.50145 z"
     title="Yamanashi"
     id="JP-19"
     style="stroke-width:0.772052" />
  <path
     d="m 277.65561,176.55178 -0.23161,1.32021 0.0309,1.55183 0.42463,0.31654 -1.02683,1.243 -1.00367,-0.20073 -0.57132,0.43235 -1.13491,-0.8647 -0.94963,0.35514 -0.74889,-1.29705 -0.25477,0.27022 -0.4864,0.0541 -0.47095,-0.3011 -0.72573,0.44779 -0.48639,-0.525 -0.60992,0.13897 v 0 l -0.34743,-0.59448 -0.34742,0.10037 -0.50955,-0.24706 -0.50956,-0.89558 0.45551,-2.4474 0.53272,-0.39375 -0.27022,-0.58676 0.2625,-0.63308 -0.12353,-1.01139 0.40147,-0.63308 1.21984,0.16985 1.05771,-0.66397 0.60992,-1.22756 -0.88786,-0.94962 -1.42057,-0.37059 -0.61764,-0.87242 0.30882,-1.53638 -0.1853,-0.2239 -1.14263,-0.24705 -1.39742,-0.74117 v 0 l 0.9033,-2.37792 1.34337,-1.1658 0.88014,-1.15808 0.87242,-3.14997 0.47095,-0.80293 0.54044,-2.03822 -0.13897,-0.44779 v 0 l 1.93785,0.31654 0.28566,-0.35514 0.75661,-0.1853 0.15441,0.9033 0.54816,0.13897 0.60992,0.54044 2.37792,0.72573 0.83382,-0.20846 0.27021,0.59448 0.81838,0.0618 0.44779,1.38969 1.17352,0.40919 0.18529,0.34742 v 0 l -0.17757,0.27022 0.81837,0.78749 0.14669,0.81838 0.64081,0.34742 -0.525,0.84926 0.16985,0.74889 -0.33198,0.88786 -0.30882,0.0772 -0.50956,-0.27022 -0.0772,0.17757 0.47095,1.05771 0.0232,0.41691 -0.29338,0.50183 0.20846,0.70257 0.46323,0.3011 0.15441,0.54044 -0.47095,1.23528 -0.84154,0.88014 0.12353,0.46323 -0.81066,1.01911 -0.12352,0.78749 0.17757,0.94962 -0.85698,1.21985 -0.14669,0.78749 -0.76433,0.42463 -1.32793,0.008 z"
     title="Yamagata"
     id="JP-06"
     style="stroke-width:0.772052" />
  <path
     d="m 91.51505,70.180722 0.83,-0.81 2.11,-0.89 0.38,-0.75 -0.74,-0.6 -1,-0.1 -0.33,-0.83 0.31,-0.35 -0.38,-0.53 0.06,-0.6 0.52,0.27 1.11,-0.17 0.77,0.3 0.19,0.2 -0.34,0.71 0.32,0.48 0.92,-0.11 0.94,-0.6 0.31,-0.9 0.82,-0.39 -0.02,-0.31 1.44,-1.37 0.42,-1 -0.09,-0.59 0.25,-0.12 0.91,0.71 0.39,2.04 -1.76,2.62 -1.76,0.03 0.05,0.69 -0.52,-0.1 0.55,0.79 -1.15,0.72 -1.15,-0.38 0.33,0.67 -1.71,1.16 -0.33,0.67 -1.59,-0.45 -0.75,0.57 0.21,0.58 0.7,0.53 -0.07,0.48 0.99,1.06 -0.05,0.35 -1.01,-0.89 -0.67,0.14 -1.32,2.79 0.2,0.3 0.74,-0.1 0.28,0.56 -1.64,1.05 -0.45,0.63 -0.95,0.34 -0.39,-0.21 -0.39,-2.51 1.4,-1.64 0.96,-0.49 0.05,-0.26 -0.88,-2.1 0.03,-0.64 0.16,-0.15 0.24,0.38 z m 35.08,-42.13 -1.1,1.43 -1.07,0.4 -0.5,-0.19 -0.28,1.13 0.38,0.75 -1.07,0.74 -0.18,0.6 -0.35,-0.3 -0.29,0.3 0.21,1.01 -1.64,-0.93 0.03,-0.5 -0.45,-0.87 -1.89,-0.3 -0.85,-0.66 1.8,-0.45 0.18,-0.19 -0.38,-0.46 0.97,-0.56 0.76,-0.04 0.72,-0.88 0.53,0.33 0.55,-0.71 1.04,0.12 0.3,-0.74 0.3,0.31 0.56,-0.01 0.23,-0.9 0.49,-0.52 0.51,0.15 1.04,-0.46 0.16,0.95 -0.22,0.26 0.37,0.19 0.72,-1 -0.57,-0.93 0.89,-0.62 0.11,0.91 0.48,0.33 -0.07,1 -1.01,0.73 -1.02,-0.09 z m -111.44,87.789998 -0.22,0.94 -0.5,0.16 0.03,0.73 -0.4,-0.04 -0.11,0.46 -0.85,-0.37 -1.59,-0.15 -0.59,-0.42 -0.12,0.46 -0.75,-0.1 -0.38,-0.54 0.83,-0.91 0.52,0.19 0.27,0.45 0.18,-1.2 -0.19,-0.39 0.66,-0.95 0.71,0.59 1.23,0.16 z m 99.16,-76.369998 -0.05,0.87 1.38,1.22 -0.97,2.05 -1.03,0.19 -1.12,-1.37 0.51,-0.9 -0.54,-1.57 0.42,-1.32 1.44,0.04 z m -94.63,74.409998 1.06,-0.13 -0.05,-0.35 0.71,-1.03 0.44,0.28 0.33,-0.74 -0.26,-0.44 0.51,-0.56 0.06,-0.49 0.57,0.1 -0.14,0.79 -0.59,0.52 0.11,0.29 -0.51,0.5 -0.03,0.42 -0.62,0.54 0.16,1.09 -0.36,1.4 -1.69,0.37 -0.24,-0.46 -0.62,-0.29 0.5,-0.46 0.11,-0.58 -0.86,-0.41 -0.3,0.36 -0.31,-0.33 0.14,-0.51 0.83,0.18 -0.01,-0.8 z m 21.34,-6.62 0.17,-0.26 0.12,0.38 0.34,-0.03 -0.56,-0.99 0.45,-0.33 0.14,-0.65 -0.56,-1.37 0.18,-0.19 1.38,2.04 0.01,0.52 1.91,0.79 0.4,0.67 -2.86,0.41 -0.93,-0.5 z m 66.54,-56.889998 -0.59,0.55 -0.8,0.23 -0.57,-0.52 -0.14,-0.81 0.21,-0.37 1.23,0.17 1.89,-0.96 0.38,0.04 z m 11.68,-17.61 0.39,0.18 0.3,-0.52 0.61,1.09 1.12,0.16 0.21,0.33 -0.28,0.58 -0.38,0.18 -0.55,-0.51 -0.18,0.65 -0.71,-0.83 -0.66,0.51 0.1,-1.4 -0.63,-0.38 -0.27,-0.69 0.69,-0.29 0.19,0.22 -0.3,0.23 z m -48.32,40.42 -0.89,-0.5 -0.26,-0.5 1.45,-0.38 0.79,0.92 -0.38,0.49 0.14,0.71 -0.66,-0.3 z m 64.35,-45.08 -1.2,1.87 -0.58,0.22 -0.49,-0.38 0.05,-0.73 0.61,-0.07 1.2,-1.14 z m -96.49,77.839998 0.01,-0.67 0.31,0.37 0.2,-0.73 0.9,0.39 0.24,0.7 -1.2,0.27 z m 55.41,-48.499998 0.9,-1.03 0.5,-0.09 -0.59,1.1 -1.46,1.17 z m -2.64,6.79 0.24,0.54 -1.3,0.04 -0.26,-0.23 0.21,-0.42 z m -9.03,11.13 0.29,0.24 v 0.55 l -0.26,0.21 0.09,0.5 -0.45,0.41 -0.06,-0.98 z m 11.43,-16 0.39,0.45 -0.07,0.47 -0.28,0.08 -0.56,-0.59 z m -77.58,58.679998 0.56,0.25 -0.31,0.53 -0.47,-0.41 z m 65.24,-43.189998 0.42,0.21 -0.48,0.46 -0.49,-0.15 z"
     title="Okinawa"
     id="JP-47" />
  <path
     style="fill:none;stroke:#00b400;stroke-width:1px;stroke-linecap:butt;stroke-linejoin:miter;stroke-opacity:1"
     d="M 0.81432643,282.57127 204.39593,10.586244"
     id="path169" />
</svg>
