<?xml version="1.0" encoding="UTF-8" standalone="no"?>
<svg
   xmlns:dc="http://purl.org/dc/elements/1.1/"
   xmlns:cc="http://creativecommons.org/ns#"
   xmlns:rdf="http://www.w3.org/1999/02/22-rdf-syntax-ns#"
   xmlns:svg="http://www.w3.org/2000/svg"
   xmlns="http://www.w3.org/2000/svg"
   xmlns:sodipodi="http://sodipodi.sourceforge.net/DTD/sodipodi-0.dtd"
   xmlns:inkscape="http://www.inkscape.org/namespaces/inkscape"
   viewBox="0 0 332.59842 472.44094"
   version="1.1"
   id="svg561"
   sodipodi:docname="jellyfish.svg"
   width="88mm"
   height="125mm"
   inkscape:version="1.0.2-2 (e86c870879, 2021-01-15)">
  <metadata
     id="metadata565">
    <rdf:RDF>
      <cc:Work
         rdf:about="">
        <dc:format>image/svg+xml</dc:format>
        <dc:type
           rdf:resource="http://purl.org/dc/dcmitype/StillImage" />
        <dc:title></dc:title>
      </cc:Work>
    </rdf:RDF>
  </metadata>
  <sodipodi:namedview
     pagecolor="#ffffff"
     bordercolor="#666666"
     borderopacity="1"
     objecttolerance="10"
     gridtolerance="10"
     guidetolerance="10"
     inkscape:pageopacity="0"
     inkscape:pageshadow="2"
     inkscape:window-width="1920"
     inkscape:window-height="1017"
     id="namedview563"
     showgrid="false"
     units="mm"
     inkscape:zoom="1.4002884"
     inkscape:cx="354.43379"
     inkscape:cy="260.8836"
     inkscape:window-x="-8"
     inkscape:window-y="-8"
     inkscape:window-maximized="1"
     inkscape:current-layer="svg561" />
  <defs
     id="defs49">
    <filter
       id="d">
      <feGaussianBlur
         stdDeviation="18.9208"
         id="feGaussianBlur2" />
    </filter>
    <filter
       id="g">
      <feGaussianBlur
         stdDeviation="8.33816"
         id="feGaussianBlur5" />
    </filter>
    <filter
       id="o">
      <feGaussianBlur
         stdDeviation="5.70042"
         id="feGaussianBlur8" />
    </filter>
    <filter
       id="h"
       x="-0.041030001"
       y="-0.10413"
       width="1.0821"
       height="1.2083">
      <feGaussianBlur
         stdDeviation="7.08815"
         id="feGaussianBlur11" />
    </filter>
    <filter
       id="n"
       x="-0.22397"
       y="-0.34527999"
       width="1.4479001"
       height="1.6906">
      <feGaussianBlur
         stdDeviation="49.14493"
         id="feGaussianBlur14" />
    </filter>
    <filter
       id="l"
       x="-0.33006001"
       y="-0.40143001"
       width="1.6601"
       height="1.8029">
      <feGaussianBlur
         stdDeviation="71.27214"
         id="feGaussianBlur17" />
    </filter>
    <filter
       id="m"
       x="-0.19047"
       y="-0.059409998"
       width="1.3809"
       height="1.1188">
      <feGaussianBlur
         stdDeviation="15.34057"
         id="feGaussianBlur20" />
    </filter>
    <filter
       id="c"
       x="-0.1074"
       y="-0.11968"
       width="1.2148"
       height="1.2394">
      <feGaussianBlur
         stdDeviation="1.34264"
         id="feGaussianBlur23" />
    </filter>
    <filter
       id="b"
       x="-0.264"
       y="-0.22"
       width="1.528"
       height="1.4400001">
      <feGaussianBlur
         stdDeviation=".89578"
         id="feGaussianBlur26" />
    </filter>
    <filter
       id="a"
       x="-0.18901999"
       y="-0.21064"
       width="1.378"
       height="1.4213001">
      <feGaussianBlur
         stdDeviation="2.36304"
         id="feGaussianBlur29" />
    </filter>
    <filter
       id="k"
       x="-0.16165"
       y="-0.29282001"
       width="1.3233"
       height="1.5856">
      <feGaussianBlur
         stdDeviation="17.44037"
         id="feGaussianBlur32" />
    </filter>
    <filter
       id="f"
       x="-0.61192"
       y="-0.76322001"
       width="2.2237999"
       height="2.5264001">
      <feGaussianBlur
         stdDeviation="31.86849"
         id="feGaussianBlur35" />
    </filter>
    <filter
       id="e"
       x="-0.13586"
       y="-0.058219999"
       width="1.2717"
       height="1.1164">
      <feGaussianBlur
         stdDeviation="2.57883"
         id="feGaussianBlur38" />
    </filter>
    <filter
       id="j"
       x="-0.14756"
       y="-0.12586001"
       width="1.2951"
       height="1.2517">
      <feGaussianBlur
         stdDeviation="2.90397"
         id="feGaussianBlur41" />
    </filter>
    <linearGradient
       id="i"
       x1="515.20001"
       x2="553.35999"
       y1="-180.41"
       y2="886.34998"
       gradientUnits="userSpaceOnUse"
       gradientTransform="matrix(0.31011584,0,0,0.62808633,2.6035203,2.7769204)">
      <stop
         stop-color="#000080"
         offset="0"
         id="stop44" />
      <stop
         stop-color="#000080"
         stop-opacity="0"
         offset="1"
         id="stop46" />
    </linearGradient>
  </defs>
  <path
     d="M 4.4729254,2.6424345 H 328.8851 a 1.8694092,3.7861672 0 0 1 1.86942,3.7861672 V 466.282 a 1.8694092,3.7861672 0 0 1 -1.86942,3.78617 H 4.4729254 A 1.8694092,3.7861672 0 0 1 2.6035203,466.282 V 6.4286017 A 1.8694092,3.7861672 0 0 1 4.4729254,2.6424345"
     fill="url(#i)"
     id="path51"
     style="fill:url(#i);stroke-width:0.441338" />
  <path
     transform="matrix(0.30072548,0,0,0.6657607,19.355564,-12.478433)"
     d="m 60.261,231.06 c -16.522,0 42.71,10.258 61.89,35.831 10.904,14.539 6.5147,46.214 6.5147,63.519 0,17.693 -8.9733,37.522 -13.029,53.747 -3.0311,12.124 -4.886,22.558 -4.886,35.831 0,15.308 -0.2336,30.011 3.2574,43.974 3.6228,14.491 16.067,29.096 26.059,39.088 14.128,14.128 33.955,19.89 52.118,24.43 9.8555,2.4639 20.52,1.6287 30.945,1.6287 13.385,0 30.644,-8.5858 43.974,-13.029 17.211,-5.7371 35.063,-7.7285 52.118,-4.886 18.036,3.0059 42.502,24.586 55.375,37.46 15.135,15.135 37.422,21.135 52.118,35.831 7.7693,7.7693 21.682,16.287 32.574,16.287 19.264,0 30.148,0.97018 48.861,-6.5147 18.779,-7.5117 35.629,-30.03 53.747,-39.088 15.627,-7.8136 34.399,-9.7721 52.118,-9.7721 24.929,0 40.717,51.273 40.717,70.033 0,28.794 14.645,42.343 39.088,47.232 18.143,3.6287 38.444,-22.157 48.861,-32.574 15.213,-15.213 22.802,-54.989 22.802,-76.548 0,-31.043 -13.757,-44.702 -34.202,-65.147 -21.065,-21.065 -64.46,-22.458 -91.206,-35.831 -23.065,-11.533 -49.1,-16.874 -70.033,-32.574 -12.537,-9.4025 -19.776,-19.076 -22.802,-34.202 -3.1494,-15.747 -3.2574,-30.965 -3.2574,-47.232 0,-11.547 1.6287,-21.517 1.6287,-32.574 0,-26.807 -25.207,-24.43 -47.232,-24.43 -25.946,0 -49.261,9.7721 -73.291,9.7721 -26.82,0 -45.348,-6.4128 -70.033,-16.287 -40.321,-16.128 -73.676,-47.425 -112.38,-66.776 -11.986,-5.9929 -10.145,-9.6338 -13.029,-21.173 -5.7,-22.8 -43.552,-43.552 -60.261,-60.261 -11.441,-11.441 -22.602,-11.467 -37.46,-6.5147 -14.898,4.9659 -38.859,34.982 -45.603,43.974 -5.2133,6.951 -10.468,12.737 -19.544,19.544 -11.594,8.6958 -16.286,21.168 -17.916,27.688 -1.8292,7.3169 11.401,12.002 11.401,19.544 z"
     fill="#00ffff"
     fill-rule="evenodd"
     filter="url(#g)"
     opacity="0.0728"
     id="path53" />
  <path
     transform="matrix(0.2785045,0,0,0.5986851,33.013217,19.18159)"
     d="m 60.261,273.4 c 0.26914,11.927 -1.6287,34.93 -1.6287,52.118 0,12.323 0.37101,22.657 3.2574,34.202 3.3189,13.276 9.8925,19.785 16.287,32.574 5.0511,10.102 15.693,15.841 22.802,21.173 10.343,7.7571 25.466,10.549 37.46,19.544 9.8798,7.4099 19.73,10.726 29.316,17.916 11.955,8.9659 20.34,18.712 30.945,29.316 9.9652,9.9652 23.582,18.5 35.831,27.688 7.9508,5.9631 15.004,9.4514 22.802,11.401 13.881,3.4703 24.394,1.5921 35.831,13.029 8.9614,8.9614 19.449,12.934 27.688,21.173 l 29.316,29.316 c 10.087,10.087 26.734,15.334 35.831,24.43 7.56,7.56 23.011,13.866 19.544,0 -4.0506,-16.202 -22.13,-32.54 -30.945,-47.232 -9.97,-16.617 -14.092,-33.07 -22.802,-50.489 -16.833,-33.665 -23.038,-73.552 -27.688,-110.75 -3.1204,-24.963 3.0409,-43.758 19.544,-60.261 8.0818,-8.0818 -17.342,-8.1251 -30.945,-16.287 -16.721,-10.033 -15.757,-59.692 -8.1434,-74.919 16.386,-32.772 33.006,-48.352 55.375,-78.177 4.7014,-6.2685 -9.7721,105.97 -9.7721,123.78 0,101.58 154.62,226.71 214.99,298.05 129.98,153.61 106.66,-50.057 57.004,-110.75 -38.711,-47.313 12.527,-139.12 71.662,-97.721 59.403,41.582 64.582,-21.793 78.177,-68.405 23.481,-80.508 30.945,-172.48 30.945,-255.7 0,-24.724 -16.287,46.689 -24.43,70.033 -26.54,76.081 104.73,240.46 136.81,293.16 33.784,55.502 31.332,136.38 21.173,190.56 -1.334,7.1147 25.021,12.17 29.316,13.029 8.1029,1.6206 6.5147,-38.721 6.5147,-42.346 0,-25.286 -0.79442,-48.741 -4.886,-73.291 -5.5676,-33.405 -9.7721,-68.798 -9.7721,-102.61 0,-30.484 -8.4766,-85.136 -27.688,-110.75 -11.11,-14.814 -13.55,-24.884 -17.916,-42.346 -12.282,-49.127 -59.484,-124.84 -91.206,-164.5 -44.437,-55.546 -103.91,-8.3751 -159.61,4.886 -112.01,26.67 -192.06,60.625 -307.82,63.519 -223.99,5.5997 -159.11,73.108 -285.02,118.89 -17.874,6.4996 -12.475,-46.99 -9.7721,-53.747 6.9215,-17.304 12.675,-38.944 16.287,-57.004 2.3722,-11.861 10.723,-26.331 16.287,-37.46 6.9616,-13.923 16.514,-24.657 27.688,-35.831 14.411,-14.411 42.897,-21.173 61.89,-21.173 15.599,0 31.161,-3.2574 47.232,-3.2574 16.632,0 8.7827,19.255 4.886,30.945 -6.3628,19.088 -18.178,34.639 -27.688,50.489 -10.241,17.069 -30.544,32.173 -45.603,47.232 -15.543,15.543 -28.599,27.964 -45.603,40.717 -9.7347,7.301 -19.384,19.384 -27.688,27.688 -9.1241,9.1242 -14.798,12.648 -26.059,8.1434 z"
     fill="#e3dbdb"
     fill-opacity="0.375"
     fill-rule="evenodd"
     filter="url(#o)"
     opacity="0.15326"
     id="path57" />
  <g
     transform="matrix(0.46309433,0,0,0.46093999,-131.85314,52.790178)"
     id="g559">
    <g
       transform="matrix(0.96583,0.25918,-0.25918,0.96583,-77.959,-112.13)"
       fill-rule="evenodd"
       id="g307">
      <path
         transform="matrix(0.29542,0.075972,-0.098409,0.16623,857.24,241.7)"
         d="M 719.04,1026.9 C 698.173,995.457 655.436,913.84 589.76,897.84 523.037,907.7558 476.86,819.98 452.49,789.12 422.005,731.014 367.055,703.016 315.29,670.37 259.836,691.078 178.47,638.535 178.84,563.41 163.107,500.806 111.061,468.465 42.76,449.68 c 52.124,25.031 110,50.361 119.55,129.93 28.326,59.493 62.927,115.07 148.48,106.08 54.47,23.254 87.688,43.658 127.83,112.84 43.724,39.082 61.778,96.283 142.86,116.4 21.108,-20.221 96.198,61.846 137.56,111.97 z"
         fill="#47b162"
         filter="url(#d)"
         id="path301" />
      <path
         d="m 755.55,319.02 74.092,38.285 40.006,-17.81 c 0,0 14.799,-85.09 9.8991,-82.337 -4.8999,2.753 -124.19,61.442 -124,61.863 z"
         fill="#41ac62"
         filter="url(#f)"
         id="path303" />
      <path
         transform="matrix(0.30422,-0.022315,-0.040192,0.18895,832.08,229.79)"
         d="M 719.04,1026.9 C 698.173,995.457 655.436,913.84 589.76,897.84 523.037,907.7558 476.86,819.98 452.49,789.12 422.005,731.014 367.055,703.016 315.29,670.37 259.836,691.078 178.47,638.535 178.84,563.41 163.107,500.806 111.061,468.465 42.76,449.68 c 52.124,25.031 110,50.361 119.55,129.93 28.326,59.493 62.927,115.07 148.48,106.08 54.47,23.254 87.688,43.658 127.83,112.84 43.724,39.082 61.778,96.283 142.86,116.4 21.108,-20.221 96.198,61.846 137.56,111.97 z"
         fill="#47b162"
         filter="url(#d)"
         id="path305" />
    </g>
    <path
       d="m 550.33,418.37 74.092,38.285 40.006,-17.81 c 0,0 14.799,-85.09 9.8991,-82.337 -4.8999,2.753 -124.19,61.442 -124,61.863 z"
       fill="#ffffff"
       fill-rule="evenodd"
       filter="url(#f)"
       id="path309" />
    <path
       transform="matrix(0.49192,0.35744,-0.30975,0.35988,683.55,162.52)"
       d="M 719.04,1026.9 C 698.173,995.457 655.436,913.84 589.76,897.84 523.037,907.7558 476.86,819.98 452.49,789.12 422.005,731.014 367.055,703.016 315.29,670.37 259.836,691.078 178.47,638.535 178.84,563.41 163.107,500.806 111.061,468.465 42.76,449.68 c 52.124,25.031 110,50.361 119.55,129.93 28.326,59.493 62.927,115.07 148.48,106.08 54.47,23.254 87.688,43.658 127.83,112.84 43.724,39.082 61.778,96.283 142.86,116.4 21.108,-20.221 96.198,61.846 137.56,111.97 z"
       fill="#f9f9f9"
       fill-rule="evenodd"
       filter="url(#d)"
       id="path311" />
    <path
       transform="matrix(0.57472,0.19859,-0.19145,0.43452,607.01,104.4)"
       d="M 719.04,1026.9 C 698.173,995.457 655.436,913.84 589.76,897.84 523.037,907.7558 476.86,819.98 452.49,789.12 422.005,731.014 367.055,703.016 315.29,670.37 259.836,691.078 178.47,638.535 178.84,563.41 163.107,500.806 111.061,468.465 42.76,449.68 c 52.124,25.031 110,50.361 119.55,129.93 28.326,59.493 62.927,115.07 148.48,106.08 54.47,23.254 87.688,43.658 127.83,112.84 43.724,39.082 61.778,96.283 142.86,116.4 21.108,-20.221 96.198,61.846 137.56,111.97 z"
       fill="#f9f9f9"
       fill-rule="evenodd"
       filter="url(#d)"
       id="path313" />
    <g
       transform="matrix(1.0543,0,0,0.81853,290.58,50.808)"
       fill="#ffffff"
       filter="url(#a)"
       id="g319">
      <path
         d="m 242.49,462.36 2.1468,-11.86 0.89014,11.753 12.148,0.21369 -12.148,2.5108 -1.0996,12.447 -1.885,-12.127 -14.871,-1.1753 14.818,-1.7629 z"
         fill-rule="evenodd"
         filter="url(#c)"
         id="path315" />
      <path
         transform="translate(146.58,172.64)"
         d="m 100.98,291.32 a 4.0717,4.886 0 1 1 -8.1434,0 4.0717,4.886 0 1 1 8.1434,0 z"
         filter="url(#b)"
         id="path317" />
    </g>
    <path
       d="m 717.63,573.71 c -13.057,-30.607 -82.097,-69.344 -100.57,-73.606 -53.72,-26.789 -72.775,-50.991 -80.508,-73.366 -15.273,-25.712 -43.6,-26.163 -64.147,-37.952 49.905,21.883 43.389,17.277 63.148,39.275 -1.0837,27.181 44.427,52.089 83.333,75.251 21.299,3.2014 86.836,43.462 99.477,71.986 7.3564,24.606 36.943,47.486 73.229,69.866 -27.707,-18.858 -57.78,-36.799 -73.964,-71.453 z"
       fill="#ffffff"
       fill-rule="evenodd"
       id="path321" />
    <path
       d="m 781.17,524.79 c -18.985,-29.428 -56.24,-79.855 -65.043,-87.297 -27.818,-24.95 -54.19,-49.73 -78.238,-74.239 -20.358,-27.279 -17.785,-36.113 -25.184,-52.968 9.5851,17.699 10.884,30.405 29.393,55.612 25.757,26.399 52.18,50.068 78.601,73.745 8.1768,7.5838 44.837,58.643 62.848,86.102 21.337,26.161 49.31,47.144 76.842,68.472 -29.438,-21.223 -57.366,-43.402 -79.219,-69.426 z"
       fill="#ffffff"
       fill-rule="evenodd"
       id="path323" />
    <path
       d="m 652.23,470.84 c 22.374,33.864 66.226,91.868 76.555,100.41 32.648,28.648 63.608,57.108 91.853,85.267 23.96,31.376 21.024,41.587 29.786,61.002 -11.318,-20.377 -12.929,-35.036 -34.717,-64.032 -30.254,-30.331 -61.265,-57.508 -92.273,-84.695 -9.5984,-8.7094 -52.761,-67.446 -73.985,-99.043 -25.095,-30.081 -57.894,-54.15 -90.18,-78.618 34.511,24.338 67.266,49.787 92.961,79.706 z"
       fill="#ffffff"
       fill-rule="evenodd"
       id="path325" />
    <path
       d="m 788.2,582.29 c -46.588,-17.682 -69.871,-74.055 -65.043,-87.297 -12.041,-42.852 -42.949,-62.486 -78.238,-74.239 -36.213,-17.64 -17.785,-36.113 -25.184,-52.968 5.7433,38.903 1.8261,33.297 28.261,52.721 49.988,7.4956 64.199,44.467 79.733,76.636 -8.6706,14.753 19.752,69.317 62.848,86.102 39.588,12.182 60.943,38.234 76.842,68.472 -15.345,-23.622 -27.422,-48.499 -79.219,-69.426 z"
       fill="#ffffff"
       fill-rule="evenodd"
       id="path327" />
    <path
       transform="matrix(0.60348,0.074517,-0.096735,0.46487,596.16,85.28)"
       d="M 719.04,1026.9 C 698.173,995.457 655.436,913.84 589.76,897.84 523.037,907.7558 476.86,819.98 452.49,789.12 422.005,731.014 367.055,703.016 315.29,670.37 259.836,691.078 178.47,638.535 178.84,563.41 163.107,500.806 111.061,468.465 42.76,449.68 c 52.124,25.031 110,50.361 119.55,129.93 28.326,59.493 62.927,115.07 148.48,106.08 54.47,23.254 87.688,43.658 127.83,112.84 43.724,39.082 61.778,96.283 142.86,116.4 21.108,-20.221 96.198,61.846 137.56,111.97 z"
       fill="#f9f9f9"
       fill-rule="evenodd"
       filter="url(#d)"
       id="path329" />
    <path
       transform="matrix(0.91496,-0.40354,0.40354,0.91496,-82.528,265.33)"
       d="m 456.79,375.04 c -4.4021,-35.688 27.287,-79.254 38.807,-90.575 16.914,-17.871 42.569,-18.739 61.967,-23.342 24.854,-9.3393 47.812,-10.158 65.102,4.2156 32.084,10.645 46.984,22.699 60.445,37.032 16.263,13.934 25.709,36.099 24.11,45.316 13.156,20.254 13.69,35.565 -24.634,35.66 -16.719,7.7678 -45.231,8.6544 -68.499,8.7143 -21.622,5.6268 -46.139,7.7995 -55.76,0.67765 -31.866,0.0424 -104.53,2.1276 -101.54,-17.698 z"
       fill="#ffffff"
       fill-rule="evenodd"
       filter="url(#k)"
       id="path331" />
    <path
       d="m 487.6,422 c -18.454,-30.865 -6.8585,-83.595 -0.81947,-98.631 8.3616,-23.22 31.632,-34.432 47.635,-46.521 19.115,-18.638 39.922,-28.71 61.642,-22.579 33.836,-3.289 52.419,1.6894 70.597,9.3375 20.596,6.1454 38.238,22.59 40.485,31.672 20.287,13.189 26.957,26.982 -8.291,42.631 -12.259,13.896 -38.153,26.286 -59.551,35.789 -17.637,13.928 -39.334,25.872 -51.066,23.263 -29.323,12.979 -95.386,44.395 -100.63,25.039 z"
       fill="#008000"
       fill-opacity="0.54911"
       fill-rule="evenodd"
       id="path333" />
    <g
       transform="matrix(0.49833,-0.24713,0.1511,0.25861,428.61,341.11)"
       fill-rule="evenodd"
       id="g463">
      <path
         d="m 43.763,255.79 c 149.22,-100.01 283.63,-66.599 414.6,-2.3033 -2.913,26.634 -7.4688,53.085 -64.493,73.706 -29.93,6.1555 -48.103,24.067 -94.436,13.82 -47.471,21.17 -84.427,16.055 -119.77,6.9099 -37.414,2.0358 -72.372,-8.2063 -103.65,-36.853 -27.92,-14.134 -27.772,-35.284 -32.246,-55.279 z"
         fill="#f2f2f2"
         filter="url(#h)"
         opacity="0.92337"
         id="path335" />
      <path
         d="M 64.493,239.67 C 34.51,260.364 20.966,285.87 53.598,324.892 25.318,295.22 15.779,266.29 64.493,239.67 Z"
         fill="#f9f9f9"
         id="path337" />
      <path
         d="M 78.312,239.67 C 40.28,277.702 23.102,324.578 64.492,396.29 28.621,341.757 16.522,288.59 78.312,239.67 Z"
         fill="#f9f9f9"
         id="path339" />
      <path
         d="M 92.132,258.1 C 54.1,287.743 36.922,324.279 78.312,380.18 42.441,337.676 30.342,296.237 92.132,258.1 Z"
         fill="#f9f9f9"
         id="path341" />
      <path
         d="M 101.35,271.92 C 67.342,299.325 51.981,333.104 88.992,384.78 56.916,345.484 46.097,307.172 101.35,271.92 Z"
         fill="#f9f9f9"
         id="path343" />
      <path
         d="M 115.17,278.83 C 81.162,306.235 65.801,340.014 102.812,391.69 70.736,352.394 59.917,314.082 115.17,278.83 Z"
         fill="#f9f9f9"
         id="path345" />
      <path
         d="M 131.29,294.95 C 97.282,322.355 81.921,356.134 118.932,407.81 86.856,368.514 76.037,330.202 131.29,294.95 Z"
         fill="#f9f9f9"
         id="path347" />
      <path
         d="m 142.81,306.47 c -25.959,24.05 -37.685,53.692 -9.4329,99.042 -24.484,-34.484 -32.743,-68.105 9.4329,-99.042 z"
         fill="#f9f9f9"
         id="path349" />
      <path
         d="m 161.23,324.89 c -23.947,21.813 -34.764,48.697 -8.7018,89.829 -22.587,-31.276 -30.205,-61.77 8.7018,-89.829 z"
         fill="#f9f9f9"
         id="path351" />
      <path
         d="m 175.05,334.11 c -17.911,21.813 -26.001,48.697 -6.5083,89.829 -16.893,-31.276 -22.591,-61.77 6.5083,-89.829 z"
         fill="#f9f9f9"
         id="path353" />
      <path
         d="m 186.57,334.11 c -11.874,21.813 -17.238,48.697 -4.3149,89.829 -11.2,-31.276 -14.977,-61.77 4.3149,-89.829 z"
         fill="#f9f9f9"
         id="path355" />
      <path
         d="m 202.69,341.02 c -11.874,21.813 -17.238,48.697 -4.3149,89.829 -11.2,-31.276 -14.977,-61.77 4.3149,-89.829 z"
         fill="#f9f9f9"
         id="path357" />
      <path
         d="m 202.69,338.71 c 10.259,21.813 14.893,48.697 3.7278,89.829 9.676,-31.276 12.94,-61.77 -3.7278,-89.829 z"
         fill="#f9f9f9"
         id="path359" />
      <path
         d="m 216.51,341.02 c 10.259,21.813 14.893,48.697 3.7278,89.829 9.676,-31.276 12.94,-61.77 -3.7278,-89.829 z"
         fill="#f9f9f9"
         id="path361" />
      <path
         d="m 232.63,341.02 c 16.295,21.813 23.656,48.697 5.9213,89.829 15.369,-31.276 20.553,-61.77 -5.9213,-89.829 z"
         fill="#f9f9f9"
         id="path363" />
      <path
         d="m 248.76,341.02 c 16.295,20.694 23.656,46.2 5.9213,85.222 15.369,-29.672 20.553,-58.602 -5.9213,-85.222 z"
         fill="#f9f9f9"
         id="path365" />
      <path
         d="m 267.18,341.02 c 16.295,20.694 23.656,46.2 5.9213,85.222 15.369,-29.672 20.553,-58.602 -5.9213,-85.222 z"
         fill="#f9f9f9"
         id="path367" />
      <path
         d="m 278.7,338.71 c 16.295,20.694 23.656,46.2 5.9213,85.222 15.369,-29.672 20.553,-58.602 -5.9213,-85.222 z"
         fill="#f9f9f9"
         id="path369" />
      <path
         d="m 290.22,331.8 c 16.295,20.694 23.656,46.2 5.9213,85.222 15.369,-29.672 20.553,-58.602 -5.9213,-85.222 z"
         fill="#f9f9f9"
         id="path371" />
      <path
         d="m 304.04,331.8 c 16.295,20.694 23.656,46.2 5.9213,85.222 15.369,-29.672 20.553,-58.602 -5.9213,-85.222 z"
         fill="#f9f9f9"
         id="path373" />
      <path
         d="m 313.25,329.5 c 20.319,20.694 29.497,46.2 7.3836,85.222 19.165,-29.672 25.629,-58.602 -7.3836,-85.222 z"
         fill="#f9f9f9"
         id="path375" />
      <path
         d="m 313.25,329.5 c 20.319,20.694 29.497,46.2 7.3836,85.222 19.165,-29.672 25.629,-58.602 -7.3836,-85.222 z"
         fill="#f9f9f9"
         id="path377" />
      <path
         d="m 324.77,331.8 c 20.319,20.694 29.497,46.2 7.3836,85.222 19.165,-29.672 25.629,-58.602 -7.3836,-85.222 z"
         fill="#f9f9f9"
         id="path379" />
      <path
         d="m 329.37,329.5 c 28.368,20.694 41.181,46.2 10.308,85.222 C 366.434,385.05 375.459,356.12 329.37,329.5 Z"
         fill="#f9f9f9"
         id="path381" />
      <path
         d="m 343.19,324.89 c 28.368,20.694 41.181,46.2 10.308,85.222 26.756,-29.672 35.781,-58.602 -10.308,-85.222 z"
         fill="#f9f9f9"
         id="path383" />
      <path
         d="m 357.01,317.98 c 28.368,20.694 41.181,46.2 10.308,85.222 C 394.074,373.53 403.099,344.6 357.01,317.98 Z"
         fill="#f9f9f9"
         id="path385" />
      <path
         d="m 373.14,313.38 c 28.368,20.694 41.181,46.2 10.308,85.222 C 410.204,368.93 419.229,340 373.14,313.38 Z"
         fill="#f9f9f9"
         id="path387" />
      <path
         d="m 389.26,308.77 c 28.368,20.694 41.181,46.2 10.308,85.222 26.756,-29.672 35.781,-58.602 -10.308,-85.222 z"
         fill="#f9f9f9"
         id="path389" />
      <path
         d="m 398.47,301.86 c 28.368,20.694 41.181,46.2 10.308,85.222 26.756,-29.672 35.781,-58.602 -10.308,-85.222 z"
         fill="#f9f9f9"
         id="path391" />
      <path
         d="m 412.29,299.56 c 28.368,20.694 41.181,46.2 10.308,85.222 26.756,-29.672 35.781,-58.602 -10.308,-85.222 z"
         fill="#f9f9f9"
         id="path393" />
      <path
         d="m 419.2,288.04 c 28.368,20.694 41.181,46.2 10.308,85.222 C 456.264,343.59 465.289,314.66 419.2,288.04 Z"
         fill="#f9f9f9"
         id="path395" />
      <path
         d="m 428.42,269.61 c 28.368,20.694 41.181,46.2 10.308,85.222 26.756,-29.672 35.781,-58.602 -10.308,-85.222 z"
         fill="#f9f9f9"
         id="path397" />
      <path
         d="m 435.33,251.19 c 28.368,20.694 41.181,46.2 10.308,85.222 26.756,-29.672 35.781,-58.602 -10.308,-85.222 z"
         fill="#f9f9f9"
         id="path399" />
      <path
         d="m 444.54,244.28 c 28.368,20.694 41.181,46.2 10.308,85.222 C 481.604,299.83 490.629,270.9 444.54,244.28 Z"
         fill="#f9f9f9"
         id="path401" />
      <path
         d="M 39.525,290.67 C 10.735,220.006 54.205,242.426 77.097,262.941 35.657,234.616 20.165,238.223 39.525,290.67 Z"
         fill="#f9f9f9"
         id="path403" />
      <path
         d="M 41.828,279.15 C 13.038,208.486 56.508,230.906 79.4,251.421 37.96,223.096 22.468,226.703 41.828,279.15 Z"
         fill="#f9f9f9"
         id="path405" />
      <path
         d="M 51.042,267.63 C 22.252,196.966 65.722,219.386 88.614,239.901 47.174,211.576 31.682,215.183 51.042,267.63 Z"
         fill="#f9f9f9"
         id="path407" />
      <path
         d="m 53.535,249.99 c 4.6195,-76.164 34.109,-37.143 45.87,-8.7423 -25.105,-43.467 -40.632,-46.918 -45.87,8.7423 z"
         fill="#f9f9f9"
         id="path409" />
      <path
         d="m 71.962,247.68 c 4.6195,-76.164 34.109,-37.143 45.87,-8.7423 -25.104,-43.467 -40.632,-46.918 -45.87,8.7423 z"
         fill="#f9f9f9"
         id="path411" />
      <path
         d="m 78.872,238.47 c 4.6195,-76.164 34.109,-37.143 45.87,-8.7423 -25.104,-43.467 -40.632,-46.918 -45.87,8.7423 z"
         fill="#f9f9f9"
         id="path413" />
      <path
         d="m 85.581,222.42 c 35.646,-67.466 46.399,-19.752 45.389,10.971 -4.9241,-49.954 -17.642,-59.506 -45.389,-10.971 z"
         fill="#f9f9f9"
         id="path415" />
      <path
         d="m 97.098,213.21 c 35.646,-67.466 46.399,-19.752 45.389,10.971 -4.9241,-49.954 -17.642,-59.506 -45.389,-10.971 z"
         fill="#f9f9f9"
         id="path417" />
      <path
         d="m 110.92,208.6 c 35.646,-67.466 46.399,-19.752 45.389,10.971 -4.9241,-49.954 -17.642,-59.506 -45.389,-10.971 z"
         fill="#f9f9f9"
         id="path419" />
      <path
         d="m 127.04,201.69 c 35.646,-67.466 46.399,-19.752 45.389,10.971 -4.9241,-49.954 -17.642,-59.506 -45.389,-10.971 z"
         fill="#f9f9f9"
         id="path421" />
      <path
         d="m 140.86,194.78 c 35.646,-67.466 46.399,-19.752 45.389,10.971 -4.9241,-49.954 -17.642,-59.506 -45.389,-10.971 z"
         fill="#f9f9f9"
         id="path423" />
      <path
         d="m 152.38,187.87 c 35.646,-67.466 46.399,-19.752 45.389,10.971 -4.9241,-49.954 -17.642,-59.506 -45.389,-10.971 z"
         fill="#f9f9f9"
         id="path425" />
      <path
         d="m 182.32,193.73 c 23.001,-88.071 29.94,-25.784 29.288,14.322 -3.1774,-65.21 -11.384,-77.68 -29.288,-14.322 z"
         fill="#f9f9f9"
         id="path427" />
      <path
         d="m 193.84,191.43 c 23.001,-88.071 29.94,-25.784 29.288,14.322 -3.1774,-65.21 -11.384,-77.68 -29.288,-14.322 z"
         fill="#f9f9f9"
         id="path429" />
      <path
         d="m 209.96,191.43 c 23.001,-88.071 29.94,-25.784 29.288,14.322 -3.1774,-65.21 -11.384,-77.68 -29.288,-14.322 z"
         fill="#f9f9f9"
         id="path431" />
      <path
         d="m 228.39,191.36 c 23.001,-74.334 29.94,-21.762 29.288,12.088 -3.1774,-55.039 -11.384,-65.564 -29.288,-12.088 z"
         fill="#f9f9f9"
         id="path433" />
      <path
         d="m 249.12,193.66 c 23.001,-74.334 29.94,-21.762 29.288,12.088 -3.1774,-55.039 -11.384,-65.564 -29.288,-12.088 z"
         fill="#f9f9f9"
         id="path435" />
      <path
         d="m 267.29,189.94 c 39.485,-67.049 34.144,-14.291 25.722,18.502 9.5694,-54.294 4.0038,-66.425 -25.722,-18.502 z"
         fill="#f9f9f9"
         id="path437" />
      <path
         d="m 278.8,194.55 c 39.485,-67.049 34.144,-14.291 25.722,18.502 9.5694,-54.294 4.0038,-66.425 -25.722,-18.502 z"
         fill="#f9f9f9"
         id="path439" />
      <path
         d="m 297.23,199.16 c 39.485,-67.049 34.144,-14.291 25.722,18.502 9.5694,-54.294 4.0038,-66.425 -25.722,-18.502 z"
         fill="#f9f9f9"
         id="path441" />
      <path
         d="m 313.35,208.37 c 39.485,-67.049 34.144,-14.291 25.722,18.502 9.5694,-54.294 4.0038,-66.425 -25.722,-18.502 z"
         fill="#f9f9f9"
         id="path443" />
      <path
         d="m 331.78,210.67 c 39.485,-67.049 34.144,-14.291 25.722,18.502 9.5694,-54.294 4.0038,-66.425 -25.722,-18.502 z"
         fill="#f9f9f9"
         id="path445" />
      <path
         d="m 343.29,215.28 c 39.485,-67.049 34.144,-14.291 25.722,18.502 9.5694,-54.294 4.0038,-66.425 -25.722,-18.502 z"
         fill="#f9f9f9"
         id="path447" />
      <path
         d="m 345.6,217.58 c 53.831,-67.049 46.549,-14.291 35.068,18.502 13.046,-54.294 5.4585,-66.425 -35.068,-18.502 z"
         fill="#f9f9f9"
         id="path449" />
      <path
         d="m 357.11,224.49 c 53.831,-67.049 46.549,-14.291 35.068,18.502 13.046,-54.294 5.4585,-66.425 -35.068,-18.502 z"
         fill="#f9f9f9"
         id="path451" />
      <path
         d="m 370.93,231.4 c 53.831,-67.049 46.549,-14.291 35.068,18.502 13.046,-54.294 5.4585,-66.425 -35.068,-18.502 z"
         fill="#f9f9f9"
         id="path453" />
      <path
         d="m 382.45,236.01 c 53.831,-67.049 46.549,-14.291 35.068,18.502 13.046,-54.294 5.4585,-66.425 -35.068,-18.502 z"
         fill="#f9f9f9"
         id="path455" />
      <path
         d="m 396.27,240.62 c 53.831,-67.049 46.549,-14.291 35.068,18.502 13.046,-54.294 5.4585,-66.425 -35.068,-18.502 z"
         fill="#f9f9f9"
         id="path457" />
      <path
         d="m 410.09,245.22 c 53.831,-67.049 46.549,-14.291 35.068,18.502 13.046,-54.294 5.4585,-66.425 -35.068,-18.502 z"
         fill="#f9f9f9"
         id="path459" />
      <path
         d="m 419.3,259.04 c 53.831,-67.049 46.549,-14.291 35.068,18.502 13.046,-54.294 5.4585,-66.425 -35.068,-18.502 z"
         fill="#f9f9f9"
         id="path461" />
    </g>
    <path
       d="m 487.66,424.6 c -18.821,-30.865 -6.9946,-83.595 -0.83572,-98.631 8.5275,-23.22 32.259,-34.432 48.58,-46.521 19.495,-18.638 40.714,-28.71 62.865,-22.579 34.507,-3.289 53.459,1.6894 71.997,9.3375 21.005,6.1454 38.997,22.59 41.288,31.672 20.689,13.189 27.492,26.982 -8.4554,42.631 -12.502,13.896 -38.91,26.286 -60.733,35.789 -17.987,13.928 -40.114,25.872 -52.079,23.263 -29.905,12.979 -97.279,44.395 -102.63,25.039 z"
       fill="#00aa44"
       fill-opacity="0.54911"
       fill-rule="evenodd"
       opacity="0.66667"
       id="path465" />
    <path
       d="m 759.73,436.64 c 22.374,33.864 66.226,91.868 76.555,100.41 32.648,28.648 63.608,57.108 91.853,85.267 23.96,31.376 21.024,41.587 29.786,61.002 -11.318,-20.377 -12.929,-35.036 -34.717,-64.032 -30.254,-30.331 -61.265,-57.508 -92.273,-84.695 -9.5984,-8.7094 -52.761,-67.446 -73.985,-99.043 -25.095,-30.081 -57.894,-54.15 -90.18,-78.618 34.511,24.338 67.266,49.787 92.961,79.706 z"
       fill="#ffffff"
       fill-rule="evenodd"
       id="path467" />
    <path
       d="m 890.27,544.39 c -13.057,-30.607 -82.097,-69.344 -100.57,-73.606 -53.72,-26.789 -72.775,-50.991 -80.508,-73.366 -15.273,-25.712 -43.6,-26.163 -64.147,-37.952 49.905,21.883 43.389,17.277 63.148,39.275 -1.0837,27.181 44.427,52.089 83.333,75.251 21.299,3.2014 86.836,43.462 99.477,71.986 7.3564,24.606 36.943,47.486 73.229,69.866 -27.707,-18.858 -57.78,-36.799 -73.964,-71.453 z"
       fill="#ffffff"
       fill-rule="evenodd"
       id="path469" />
    <path
       d="m 682.71,631.04 c -43.009,-25.167 -56.615,-84.622 -49.656,-96.88 -4.764,-44.256 -31.986,-68.746 -64.835,-86.192 -32.784,-23.405 -11.546,-38.563 -16.046,-56.413 -0.79155,39.317 -3.7241,33.138 19.121,56.679 48.051,15.686 55.93,54.503 65.912,88.804 -10.998,13.109 7.9765,71.633 47.69,95.336 37.017,18.582 53.754,47.816 64.415,80.273 -11.212,-25.841 -18.994,-52.377 -66.601,-81.608 z"
       fill="#ffffff"
       fill-rule="evenodd"
       id="path471" />
    <path
       d="m 869.48,526.71 c -47.669,-14.52 -74.678,-69.205 -70.748,-82.742 -14.886,-41.949 -47.041,-59.466 -83.038,-68.828 -37.314,-15.173 -20.165,-34.839 -28.678,-51.161 8.3379,38.431 4.0537,33.099 31.731,50.708 50.378,4.1283 67.035,40.064 84.691,71.12 -7.6623,15.301 24.354,67.837 68.478,81.695 40.315,9.5016 63.368,34.064 81.258,63.167 -16.893,-22.541 -30.611,-46.552 -83.694,-63.96 z"
       fill="#ffffff"
       fill-rule="evenodd"
       id="path473" />
    <g
       transform="matrix(1.0543,0,0,0.81853,328.04,45.922)"
       fill="#ffffff"
       filter="url(#a)"
       id="g479">
      <path
         d="m 242.49,462.36 2.1468,-11.86 0.89014,11.753 12.148,0.21369 -12.148,2.5108 -1.0996,12.447 -1.885,-12.127 -14.871,-1.1753 14.818,-1.7629 z"
         fill-rule="evenodd"
         filter="url(#c)"
         id="path475" />
      <path
         transform="translate(146.58,172.64)"
         d="m 100.98,291.32 a 4.0717,4.886 0 1 1 -8.1434,0 4.0717,4.886 0 1 1 8.1434,0 z"
         filter="url(#b)"
         id="path477" />
    </g>
    <g
       transform="matrix(1.0543,0,0,0.81853,345.95,31.263)"
       fill="#ffffff"
       filter="url(#a)"
       id="g485">
      <path
         d="m 242.49,462.36 2.1468,-11.86 0.89014,11.753 12.148,0.21369 -12.148,2.5108 -1.0996,12.447 -1.885,-12.127 -14.871,-1.1753 14.818,-1.7629 z"
         fill-rule="evenodd"
         filter="url(#c)"
         id="path481" />
      <path
         transform="translate(146.58,172.64)"
         d="m 100.98,291.32 a 4.0717,4.886 0 1 1 -8.1434,0 4.0717,4.886 0 1 1 8.1434,0 z"
         filter="url(#b)"
         id="path483" />
    </g>
    <g
       transform="matrix(1.0543,0,0,0.81853,388.3,13.348)"
       fill="#ffffff"
       filter="url(#a)"
       id="g491">
      <path
         d="m 242.49,462.36 2.1468,-11.86 0.89014,11.753 12.148,0.21369 -12.148,2.5108 -1.0996,12.447 -1.885,-12.127 -14.871,-1.1753 14.818,-1.7629 z"
         fill-rule="evenodd"
         filter="url(#c)"
         id="path487" />
      <path
         transform="translate(146.58,172.64)"
         d="m 100.98,291.32 a 4.0717,4.886 0 1 1 -8.1434,0 4.0717,4.886 0 1 1 8.1434,0 z"
         filter="url(#b)"
         id="path489" />
    </g>
    <g
       transform="matrix(1.0543,0,0,0.81853,424.13,0.31845)"
       fill="#ffffff"
       filter="url(#a)"
       id="g497">
      <path
         d="m 242.49,462.36 2.1468,-11.86 0.89014,11.753 12.148,0.21369 -12.148,2.5108 -1.0996,12.447 -1.885,-12.127 -14.871,-1.1753 14.818,-1.7629 z"
         fill-rule="evenodd"
         filter="url(#c)"
         id="path493" />
      <path
         transform="translate(146.58,172.64)"
         d="m 100.98,291.32 a 4.0717,4.886 0 1 1 -8.1434,0 4.0717,4.886 0 1 1 8.1434,0 z"
         filter="url(#b)"
         id="path495" />
    </g>
    <g
       transform="matrix(0.78287,0,0,0.69755,507.1,22.247)"
       fill="#ffffff"
       filter="url(#a)"
       id="g503">
      <path
         d="m 242.49,462.36 2.1468,-11.86 0.89014,11.753 12.148,0.21369 -12.148,2.5108 -1.0996,12.447 -1.885,-12.127 -14.871,-1.1753 14.818,-1.7629 z"
         fill-rule="evenodd"
         filter="url(#c)"
         id="path499" />
      <path
         transform="translate(146.58,172.64)"
         d="m 100.98,291.32 a 4.0717,4.886 0 1 1 -8.1434,0 4.0717,4.886 0 1 1 8.1434,0 z"
         filter="url(#b)"
         id="path501" />
    </g>
    <g
       transform="matrix(0.78287,0,0,0.69755,494.07,79.25)"
       fill="#ffffff"
       filter="url(#a)"
       id="g509">
      <path
         d="m 242.49,462.36 2.1468,-11.86 0.89014,11.753 12.148,0.21369 -12.148,2.5108 -1.0996,12.447 -1.885,-12.127 -14.871,-1.1753 14.818,-1.7629 z"
         fill-rule="evenodd"
         filter="url(#c)"
         id="path505" />
      <path
         transform="translate(146.58,172.64)"
         d="m 100.98,291.32 a 4.0717,4.886 0 1 1 -8.1434,0 4.0717,4.886 0 1 1 8.1434,0 z"
         filter="url(#b)"
         id="path507" />
    </g>
    <g
       transform="matrix(0.78287,0,0,0.69755,469.64,90.651)"
       fill="#ffffff"
       filter="url(#a)"
       id="g515">
      <path
         d="m 242.49,462.36 2.1468,-11.86 0.89014,11.753 12.148,0.21369 -12.148,2.5108 -1.0996,12.447 -1.885,-12.127 -14.871,-1.1753 14.818,-1.7629 z"
         fill-rule="evenodd"
         filter="url(#c)"
         id="path511" />
      <path
         transform="translate(146.58,172.64)"
         d="m 100.98,291.32 a 4.0717,4.886 0 1 1 -8.1434,0 4.0717,4.886 0 1 1 8.1434,0 z"
         filter="url(#b)"
         id="path513" />
    </g>
    <g
       transform="matrix(0.78287,0,0,0.69755,445.21,108.57)"
       fill="#ffffff"
       filter="url(#a)"
       id="g521">
      <path
         d="m 242.49,462.36 2.1468,-11.86 0.89014,11.753 12.148,0.21369 -12.148,2.5108 -1.0996,12.447 -1.885,-12.127 -14.871,-1.1753 14.818,-1.7629 z"
         fill-rule="evenodd"
         filter="url(#c)"
         id="path517" />
      <path
         transform="translate(146.58,172.64)"
         d="m 100.98,291.32 a 4.0717,4.886 0 1 1 -8.1434,0 4.0717,4.886 0 1 1 8.1434,0 z"
         filter="url(#b)"
         id="path519" />
    </g>
    <g
       transform="matrix(0.78287,0,0,0.69755,397.97,128.11)"
       fill="#ffffff"
       filter="url(#a)"
       id="g527">
      <path
         d="m 242.49,462.36 2.1468,-11.86 0.89014,11.753 12.148,0.21369 -12.148,2.5108 -1.0996,12.447 -1.885,-12.127 -14.871,-1.1753 14.818,-1.7629 z"
         fill-rule="evenodd"
         filter="url(#c)"
         id="path523" />
      <path
         transform="translate(146.58,172.64)"
         d="m 100.98,291.32 a 4.0717,4.886 0 1 1 -8.1434,0 4.0717,4.886 0 1 1 8.1434,0 z"
         filter="url(#b)"
         id="path525" />
    </g>
    <g
       transform="matrix(0.78287,0,0,0.69755,430.55,133)"
       fill="#ffffff"
       filter="url(#a)"
       id="g533">
      <path
         d="m 242.49,462.36 2.1468,-11.86 0.89014,11.753 12.148,0.21369 -12.148,2.5108 -1.0996,12.447 -1.885,-12.127 -14.871,-1.1753 14.818,-1.7629 z"
         fill-rule="evenodd"
         filter="url(#c)"
         id="path529" />
      <path
         transform="translate(146.58,172.64)"
         d="m 100.98,291.32 a 4.0717,4.886 0 1 1 -8.1434,0 4.0717,4.886 0 1 1 8.1434,0 z"
         filter="url(#b)"
         id="path531" />
    </g>
    <g
       transform="matrix(0.78287,0,0,0.69755,471.26,124.85)"
       fill="#ffffff"
       filter="url(#a)"
       id="g539">
      <path
         d="m 242.49,462.36 2.1468,-11.86 0.89014,11.753 12.148,0.21369 -12.148,2.5108 -1.0996,12.447 -1.885,-12.127 -14.871,-1.1753 14.818,-1.7629 z"
         fill-rule="evenodd"
         filter="url(#c)"
         id="path535" />
      <path
         transform="translate(146.58,172.64)"
         d="m 100.98,291.32 a 4.0717,4.886 0 1 1 -8.1434,0 4.0717,4.886 0 1 1 8.1434,0 z"
         filter="url(#b)"
         id="path537" />
    </g>
    <g
       transform="matrix(0.78287,0,0,0.69755,518.5,124.85)"
       fill="#ffffff"
       filter="url(#a)"
       id="g545">
      <path
         d="m 242.49,462.36 2.1468,-11.86 0.89014,11.753 12.148,0.21369 -12.148,2.5108 -1.0996,12.447 -1.885,-12.127 -14.871,-1.1753 14.818,-1.7629 z"
         fill-rule="evenodd"
         filter="url(#c)"
         id="path541" />
      <path
         transform="translate(146.58,172.64)"
         d="m 100.98,291.32 a 4.0717,4.886 0 1 1 -8.1434,0 4.0717,4.886 0 1 1 8.1434,0 z"
         filter="url(#b)"
         id="path543" />
    </g>
    <g
       transform="matrix(0.78287,0,0,0.69755,505.47,98.795)"
       fill="#ffffff"
       filter="url(#a)"
       id="g551">
      <path
         d="m 242.49,462.36 2.1468,-11.86 0.89014,11.753 12.148,0.21369 -12.148,2.5108 -1.0996,12.447 -1.885,-12.127 -14.871,-1.1753 14.818,-1.7629 z"
         fill-rule="evenodd"
         filter="url(#c)"
         id="path547" />
      <path
         transform="translate(146.58,172.64)"
         d="m 100.98,291.32 a 4.0717,4.886 0 1 1 -8.1434,0 4.0717,4.886 0 1 1 8.1434,0 z"
         filter="url(#b)"
         id="path549" />
    </g>
    <path
       d="m 519.55,315.75 c -11.745,15.029 -23.159,30.223 -17.916,53.747 -5.6268,39.139 4.0357,38.925 24.43,22.802 l 3.2574,-22.802 -3.2574,-29.316 c 13.68,-2.7157 18.865,-19.591 19.544,-43.974 l -26.059,19.544 z"
       fill="#ffffff"
       fill-opacity="0.6875"
       fill-rule="evenodd"
       filter="url(#e)"
       opacity="0.5977"
       id="path553" />
    <path
       d="m 612.39,281.55 -22.802,39.088 21.173,16.287 17.916,-6.5147 8.1434,-22.802 -24.43,-26.059 z"
       fill="#ffffff"
       fill-opacity="0.59821"
       fill-rule="evenodd"
       filter="url(#j)"
       opacity="0.70881"
       id="path555" />
    <path
       transform="matrix(-0.69405,-0.45629,0.71992,-0.43989,769.97,796.63)"
       d="m 596.1,307.61 c -11.745,15.029 -23.159,30.223 -17.916,53.747 -5.6268,39.139 4.0357,38.925 24.43,22.802 l 3.2574,-22.802 -3.2574,-29.316 c 13.68,-2.7157 18.865,-19.591 19.544,-43.974 l -26.059,19.544 z"
       fill="#ffffff"
       fill-opacity="0.6875"
       fill-rule="evenodd"
       filter="url(#e)"
       opacity="0.5977"
       id="path557" />
  </g>
</svg>
