<?xml version="1.0" encoding="UTF-8" standalone="no"?>
<svg
   xmlns:dc="http://purl.org/dc/elements/1.1/"
   xmlns:cc="http://creativecommons.org/ns#"
   xmlns:rdf="http://www.w3.org/1999/02/22-rdf-syntax-ns#"
   xmlns:svg="http://www.w3.org/2000/svg"
   xmlns="http://www.w3.org/2000/svg"
   xmlns:xlink="http://www.w3.org/1999/xlink"
   xmlns:sodipodi="http://sodipodi.sourceforge.net/DTD/sodipodi-0.dtd"
   xmlns:inkscape="http://www.inkscape.org/namespaces/inkscape"
   height="121.71681mm"
   width="81.683525mm"
   viewBox="0 0 308.72177 460.03376"
   version="1.1"
   id="svg200"
   sodipodi:docname="jersey.svg"
   inkscape:version="1.0.2-2 (e86c870879, 2021-01-15)">
  <sodipodi:namedview
     pagecolor="#ffffff"
     bordercolor="#666666"
     borderopacity="1"
     objecttolerance="10"
     gridtolerance="10"
     guidetolerance="10"
     inkscape:pageopacity="0"
     inkscape:pageshadow="2"
     inkscape:window-width="1920"
     inkscape:window-height="1017"
     id="namedview202"
     showgrid="false"
     units="mm"
     inkscape:zoom="0.634035"
     inkscape:cx="167.54991"
     inkscape:cy="390.03412"
     inkscape:window-x="-8"
     inkscape:window-y="-8"
     inkscape:window-maximized="1"
     inkscape:current-layer="svg200"
     inkscape:document-rotation="0" />
  <metadata
     id="metadata2">
    <rdf:RDF>
      <cc:Work>
        <dc:format>
          image/svg+xml
        </dc:format>
        <dc:type
           rdf:resource="http://purl.org/dc/dcmitype/StillImage" />
        <dc:title>
          Heimtrikot des AEK B.C.
        </dc:title>
        <cc:license
           rdf:resource="http://creativecommons.org/licenses/by-sa/4.0/" />
        <dc:creator>
          <cc:Agent>
            <dc:title>
              MagentaGreen
            </dc:title>
          </cc:Agent>
        </dc:creator>
      </cc:Work>
      <cc:License
         rdf:about="http://creativecommons.org/licenses/by-sa/4.0/">
        <cc:permits
           rdf:resource="http://creativecommons.org/ns#Reproduction" />
        <cc:permits
           rdf:resource="http://creativecommons.org/ns#Distribution" />
        <cc:requires
           rdf:resource="http://creativecommons.org/ns#Notice" />
        <cc:requires
           rdf:resource="http://creativecommons.org/ns#Attribution" />
        <cc:permits
           rdf:resource="http://creativecommons.org/ns#DerivativeWorks" />
        <cc:requires
           rdf:resource="http://creativecommons.org/ns#ShareAlike" />
      </cc:License>
    </rdf:RDF>
  </metadata>
  <defs
     id="defs68">
    <linearGradient
       id="c">
      <stop
         stop-color="#606062"
         offset="0"
         id="stop4" />
      <stop
         stop-color="#fefefe"
         offset="1"
         id="stop6" />
    </linearGradient>
    <linearGradient
       id="b">
      <stop
         stop-color="#fff"
         offset="0"
         id="stop9" />
      <stop
         stop-color="#d2d2d2"
         offset=".547"
         id="stop11" />
      <stop
         offset="1"
         id="stop13" />
    </linearGradient>
    <linearGradient
       id="a">
      <stop
         stop-color="#1a84f9"
         offset="0"
         id="stop16" />
      <stop
         stop-color="#141740"
         offset="1"
         id="stop18" />
    </linearGradient>
    <radialGradient
       id="m"
       xlink:href="#a"
       gradientUnits="userSpaceOnUse"
       cy="446.51999"
       cx="306.39999"
       gradientTransform="matrix(1.18,0,0,1.14,-62.6,-60.02)"
       r="154.53999" />
    <radialGradient
       id="n"
       xlink:href="#a"
       gradientUnits="userSpaceOnUse"
       cy="427.48001"
       cx="293.07999"
       gradientTransform="matrix(1.18,0,0,1.14,-62.6,-60.02)"
       r="154.53999" />
    <radialGradient
       id="r"
       xlink:href="#b"
       gradientUnits="userSpaceOnUse"
       cy="1010.3"
       cx="673.15997"
       gradientTransform="matrix(2.16,0.02,-0.02,1.97,-416.08,-993.93)"
       r="872.08002" />
    <radialGradient
       id="l"
       xlink:href="#b"
       gradientUnits="userSpaceOnUse"
       cy="511.95999"
       cx="335.87"
       gradientTransform="matrix(1.57,0.02,-0.03,1.84,-178.57,-438.88)"
       r="154.53999" />
    <linearGradient
       id="o"
       x1="544.57001"
       xlink:href="#c"
       gradientUnits="userSpaceOnUse"
       x2="1027.3"
       y1="1510.6"
       y2="1510.6" />
    <linearGradient
       id="p"
       x1="364.72"
       xlink:href="#c"
       gradientUnits="userSpaceOnUse"
       x2="825.5"
       y1="1503"
       y2="1503" />
    <linearGradient
       id="q"
       x1="169.73"
       xlink:href="#c"
       gradientUnits="userSpaceOnUse"
       x2="344.48999"
       y1="1259.5"
       y2="1259.5" />
    <radialGradient
       id="k"
       xlink:href="#a"
       gradientUnits="userSpaceOnUse"
       cy="446.51999"
       cx="306.39999"
       gradientTransform="matrix(2.04,-0.06,0.04,1.14,-336.6,-44.54)"
       r="154.53999" />
    <filter
       id="s"
       color-interpolation-filters="sRGB">
      <feBlend
         mode="lighten"
         in2="BackgroundImage"
         id="feBlend29" />
    </filter>
    <radialGradient
       id="t"
       xlink:href="#b"
       gradientUnits="userSpaceOnUse"
       cy="1018.8"
       cx="433.32999"
       gradientTransform="matrix(2.16,0.02,-0.02,1.97,-416.08,-993.93)"
       r="872.08002" />
    <linearGradient
       id="i"
       y2="-64.541"
       gradientUnits="userSpaceOnUse"
       x2="127.14"
       y1="61.294998"
       x1="129.99001"
       gradientTransform="matrix(0.70223419,0,0,0.70223419,-5.8641383,-5.1001538)">
      <stop
         offset="0"
         id="stop33" />
      <stop
         stop-opacity="0"
         offset="1"
         id="stop35" />
    </linearGradient>
    <linearGradient
       id="j"
       y2="-17.066999"
       gradientUnits="userSpaceOnUse"
       x2="147.81"
       y1="23.014"
       x1="148.14999"
       gradientTransform="matrix(0.70223419,0,0,0.70223419,-5.8641383,-5.1001538)">
      <stop
         offset="0"
         id="stop38" />
      <stop
         stop-opacity="0"
         offset="1"
         id="stop40" />
    </linearGradient>
    <linearGradient
       id="f"
       y2="485.31"
       gradientUnits="userSpaceOnUse"
       x2="498.47"
       y1="496.48999"
       x1="390.54999"
       gradientTransform="matrix(0.70223419,0,0,0.70223419,-5.8641383,-5.1001538)">
      <stop
         offset="0"
         id="stop43" />
      <stop
         stop-opacity="0"
         offset="1"
         id="stop45" />
    </linearGradient>
    <linearGradient
       id="e"
       y2="493.54001"
       gradientUnits="userSpaceOnUse"
       x2="-41.012001"
       y1="507.53"
       x1="54.259998"
       gradientTransform="matrix(0.70223419,0,0,0.70223419,-5.8641383,-5.1001538)">
      <stop
         offset="0"
         id="stop48" />
      <stop
         stop-opacity="0"
         offset="1"
         id="stop50" />
    </linearGradient>
    <radialGradient
       id="h"
       gradientUnits="userSpaceOnUse"
       cy="171.23"
       cx="429.72"
       gradientTransform="matrix(10.744183,1.5730046,-1.9662557,13.440762,-3977.3496,-2888.6142)"
       r="20.441999">
      <stop
         offset="0"
         id="stop53" />
      <stop
         stop-opacity=".408"
         offset="1"
         id="stop55" />
    </radialGradient>
    <radialGradient
       id="g"
       gradientUnits="userSpaceOnUse"
       cy="166.55"
       cx="27.216"
       gradientTransform="matrix(16.958956,-2.5561325,2.4367526,16.172453,-857.9551,-2531.3877)"
       r="18.858">
      <stop
         offset="0"
         id="stop58" />
      <stop
         stop-opacity=".408"
         offset="1"
         id="stop60" />
    </radialGradient>
    <linearGradient
       id="d"
       y2="103.57"
       gradientUnits="userSpaceOnUse"
       y1="-40.91"
       x2="222.67999"
       x1="226.53"
       gradientTransform="matrix(0.70223419,0,0,0.70223419,-5.8641383,-5.1001538)">
      <stop
         stop-color="#404040"
         offset="0"
         id="stop63" />
      <stop
         stop-color="#434343"
         stop-opacity="0"
         offset="1"
         id="stop65" />
    </linearGradient>
  </defs>
  <path
     d="m 138.97167,459.69461 c -0.90588,-0.30196 -9.79266,-0.89043 -19.75034,-1.30966 -25.408942,-1.0688 -40.697284,-2.82088 -67.151148,-7.69508 -8.871325,-1.63481 -18.370447,-3.2359 -21.10916,-3.55822 -6.79552,-0.80055 -17.703324,-3.63196 -19.708203,-5.11578 -1.9978564,-1.47891 -2.4578194,-5.44442 -1.3869124,-11.94852 2.7977014,-16.99125 2.9880064,-18.05303 6.9542254,-38.84268 0.587068,-3.07789 1.358121,-9.89167 1.713452,-15.14227 0.693105,-10.24981 1.957828,-21.55859 3.533642,-31.60054 2.071591,-13.19638 3.895995,-35.08643 4.995694,-59.90971 0.308983,-7.05745 1.221887,-15.69493 1.903055,-19.803 2.830003,-16.99407 3.623528,-28.3211 2.794892,-40.77172 -0.533698,-4.98586 -3.80611,-36.45297 -9.220335,-37.48526 -1.727496,-0.1896 -2.443775,-0.87779 -3.80611,-1.39042 -0.779479,-0.28792 -1.432557,-0.29494 -1.9803,-0.50561 -3.770998,-1.41851 -2.415686,-1.86794 -1.973278,-16.55868 0.400273,-13.37054 -0.674145,-42.06383 -1.924122,-51.23501 -0.182581,-1.33424 -0.926949,-7.3243 -1.65025,-13.30734 C 9.9284056,92.925417 6.1503856,70.334546 4.3315986,62.385254 3.8330126,60.215351 2.7585946,55.348868 1.9510246,51.57787 1.2487916,47.4698 -1.3494744,44.070987 0.98896459,42.996569 1.8667566,42.146865 9.7528466,38.410979 12.112354,39.204504 c 0.505609,-0.505609 0.842681,-0.547743 1.193798,-0.68819 20.364792,-8.166983 58.86127,-24.023431 71.480418,-30.3435395 0.610944,0.07725 0.884815,-0.04213 0.940994,-0.477519 2.830004,-1.79772 5.933884,-3.616506 8.672594,-5.2808013 3.29348,-1.99434506 4.76817,-1.72047366 8.230192,-0.6460554 34.55694,9.4520722 68.97344,12.8579082 95.92519,-1.55895986 2.94236,-0.9971726 8.41979,2.52804256 12.12056,4.76114756 0.69521,0.386229 1.95923,1.959234 2.63338,2.366529 36.36871,22.0290875 82.00691,34.5780125 82.44229,34.9150845 0.82162,0.737346 0.88482,0.610944 1.90306,0.400274 1.6362,-0.175559 9.431,2.331417 10.77929,3.096853 0.36516,0.203647 0.4073,1.896032 -0.69521,7.211945 -6.20073,29.823886 -8.53214,43.075045 -10.28071,58.468018 -2.57017,22.54874 -2.7668,25.66666 -2.90725,46.65644 -0.13342,19.76087 0.40028,21.42517 -0.58987,21.97993 -0.62499,0.35112 -2.5772,0.5969 -4.48728,1.03931 -1.31318,0.30898 -2.47889,0.83566 -3.69375,1.05335 -1.23593,0.21769 -2.27524,0.0562 -2.80192,0.0562 -2.56315,0 -4.28363,3.41988 -6.03219,6.87487 -2.18395,4.31172 -3.39179,11.5026 -4.26256,25.35768 -0.38623,6.15157 -1.00419,14.00255 -1.37638,17.4435 -0.44943,4.18531 -0.45645,7.56306 -0.0211,10.20346 2.0716,12.52786 3.40584,29.59215 3.3005,42.13405 -0.10533,12.57701 -0.0211,13.59525 1.98031,22.71728 3.62352,16.53059 4.5575,21.83246 5.2808,29.95028 3.88335,30.9264 5.62489,56.75457 9.22033,85.25826 0.25281,4.79626 2.61231,14.69776 -2.47186,16.55166 -9.59252,3.49712 -19.33953,5.35804 -28.43347,7.47177 -11.39023,2.78085 -33.82662,7.1347 -46.0806,8.93944 -13.15285,1.93114 -13.77784,1.99435 -32.44322,3.16005 -6.07433,0.37921 -11.32704,0.85673 -11.66411,1.0674 -1.01122,0.62499 -29.16379,0.92695 -30.94746,0.33707 z"
     stroke="#000000"
     stroke-width="0.0702234"
     fill="#f4cf00"
     id="path70" />
  <path
     d="M 192.7909,13.296276 C 165.18607,26.066404 132.26042,24.198462 102.81363,10.726099 L 98.830558,8.8623685 c -0.22472,-0.940994 -0.0843,-0.333561 0.0386,0.213479 5.574342,22.1611075 32.804172,45.6873575 51.700592,52.9554805 21.18851,-9.459094 44.4753,-29.11814 49.17535,-51.609999 -0.14957,-1.1727315 -5.59821,2.212038 -6.95563,2.874947 z"
     fill-rule="evenodd"
     fill="url(#d)"
     id="path72"
     style="fill:url(#d);stroke-width:0.702234" />
  <path
     d="m 28.039728,446.75244 c -10.0265,-2.10319 -15.926672,-3.91706 -17.339567,-5.32996 -1.4789054,-1.4789 -1.5603644,-1.9171 -1.1748384,-6.30887 0.5758324,-6.57713 1.3862114,-12.09247 3.0111814,-20.51928 4.84682,-25.14139 5.212684,-27.66663 6.954225,-48.06091 0.556871,-6.51673 1.573004,-15.25674 2.256278,-19.42029 2.331418,-14.19215 5.301868,-50.18868 5.294846,-64.1842 -0.007,-5.18951 2.99854,-23.65125 3.911444,-30.65955 0.646056,3.42691 0.842681,7.0083 0.919927,9.57145 0.316006,10.81441 0.266849,35.59626 0.02107,89.2329 -0.42134,91.76797 -0.526675,96.37462 -2.21906,96.03053 -0.182581,-0.0351 -0.926949,-0.18961 -1.65025,-0.3441 z"
     fill="url(#e)"
     id="path74"
     style="fill:url(#e);stroke-width:0.702234" />
  <path
     d="m 269.02544,444.21737 c 0,0 -0.25421,-9.26738 -0.0632,-19.06004 0.19241,-9.79265 0.0562,-37.67837 0.72541,-61.94899 0.9129,-33.10332 1.18186,-37.21841 -0.47331,-48.71399 -0.91992,-6.37628 -1.16571,-53.94563 -0.24578,-66.32602 0.10534,-1.43255 1.10953,-7.90715 1.93115,-12.01522 -0.0702,3.46903 -0.0562,3.38477 0.82161,9.57847 0.37218,2.64742 1.03228,7.17684 1.573,14.05873 0.65308,8.35659 1.29914,14.3326 1.17976,24.03045 -0.10534,8.55322 0.13342,14.27643 0.68819,16.88874 0.46347,2.17692 1.82581,8.54619 3.04067,14.15704 0.94099,3.85526 2.09266,10.11217 3.09685,17.90697 2.95641,22.92092 6.90297,67.02123 10.25262,94.81566 0.47752,4.50132 0.60392,9.89448 -3.22325,11.22872 -5.94793,2.05755 -12.30314,3.98167 -19.31846,5.42125 z"
     fill="url(#f)"
     id="path76"
     style="fill:url(#f);stroke-width:0.702234" />
  <path
     d="m 20.029342,185.66879 c -0.905882,-0.51684 -2.113725,-0.88482 -2.674107,-0.96206 -2.865116,-0.39747 -3.351062,-2.17201 -3.155841,-3.86229 l 0.54072,-12.73502 c 0.709257,-16.83957 -0.744368,-43.4402 -2.977473,-60.6309 C 9.3188656,87.86512 5.5268016,66.896407 1.8470946,50.969736 0.45667059,44.944566 -0.65285841,44.440362 0.56200659,43.224092 1.2501956,42.541521 3.9959306,41.215703 6.6784656,40.280327 c 4.0167794,-1.404469 5.0279974,-1.551938 5.7372534,-0.839872 1.088463,1.087058 2.900227,8.162068 6.551845,28.538797 2.556133,14.282039 4.620701,33.143348 6.474599,52.337518 2.408664,24.9237 0.610944,65.03391 -3.08983,66.10341 -0.358139,0.10534 -1.397446,-0.23314 -2.303328,-0.74928 z"
     fill="url(#g)"
     id="path78"
     style="fill:url(#g);stroke-width:0.702234" />
  <path
     d="m 282.48025,181.2728 c -0.69802,-2.77382 -0.93678,-4.1502 -1.39885,-9.6515 -0.36165,-4.3061 -0.86515,-10.28914 -0.99436,-18.66117 -0.26685,-17.20264 0.16572,-23.90897 3.09685,-48.11709 1.59618,-13.182344 9.07567,-48.521578 12.45553,-60.54172 0.55476,-1.987323 1.51682,-2.36653 8.36361,-0.168537 0,0 4.1502,1.376379 4.41003,1.643228 0.69521,0.723302 0.007,2.766803 0.007,2.766803 -0.0983,1.973278 -0.70224,5.463382 -1.43256,8.553213 -3.27943,13.826991 -7.87204,39.74645 -9.41696,53.524293 -0.35814,3.14601 -1.12357,10.02088 -1.69941,15.27359 -0.69521,6.24989 -1.13762,17.15558 -1.27806,31.60054 -0.0913,9.0518 -0.21067,15.28764 -0.0632,18.8269 0.0702,1.84688 0.42836,3.20921 -0.77948,3.82718 -1.20785,0.61796 -1.53087,0.28089 -3.8342,0.82161 -1.257,0.28792 -2.12777,0.63201 -2.62636,0.73735 -2.49995,0.55476 -4.45919,1.02526 -4.83137,-0.45646 z"
     fill="url(#h)"
     id="path80"
     style="fill:url(#h);stroke-width:0.702234" />
  <path
     d="M 96.374138,36.745982 C 87.849018,24.967408 84.646826,15.428961 85.573775,8.5372345 c 0.0309,-0.781587 0.344095,-1.044223 0.886219,-1.384806 1.116553,-0.6601 3.610894,-2.169904 5.317324,-3.181121 2.49644,-1.4796075 4.778,-2.8932049 6.47671,-2.9676418 -0.26404,3.7660818 -0.0534,5.3847318 0.61796,8.0735868 5.574342,22.1554885 32.804872,45.6873565 51.701292,52.9484585 17.96315,-7.696487 44.47952,-29.11463 49.17746,-51.607191 0.57583,-2.8580935 0.44943,-5.6951195 -0.54774,-8.8692183 -0.0772,-0.2387596 -0.32303,-0.84970336 -0.67415,-1.36233426 0.12641,-0.091291 1.39745,-0.3440948 3.00557,0.098313 0.99717,0.2738713 2.03648,0.85672566 2.92831,1.19379806 2.37355,1.0041949 4.87351,2.464842 6.19371,3.462014 2.42973,10.7512065 -1.1306,23.7495615 -8.30743,31.8603665 C 189.28745,51.576466 173.18522,66.58321 150.68564,75.81759 129.45008,66.562143 105.3494,49.104602 96.388888,36.724213 Z"
     fill="url(#i)"
     id="path82"
     style="fill:url(#i);stroke-width:0.702234" />
  <path
     d="M 102.81363,10.726099 98.829858,8.8623685 c -0.68468,-2.620738 -0.79493,-4.88755 -0.52668,-7.7997151 0.18961,-0.19100766 3.933922,0.6622069 7.273742,1.5364884 28.28249,7.2765507 60.3781,12.2961212 87.87759,0.023876 4.17548,-1.87356076 3.39179,-1.3834014 5.06592,-2.42270796 1.55194,2.86300866 1.75558,6.43527366 1.32722,9.64518666 L 192.7902,13.295573 C 165.18537,26.065 132.25761,24.197759 102.81293,10.725396 Z"
     fill="url(#j)"
     id="path84"
     style="fill:url(#j);stroke-width:0.702234" />
  <g
     enable-background="new"
     transform="matrix(0.02106703,0,0,0.02106703,212.43239,75.038812)"
     id="g130">
    <circle
       fill-rule="evenodd"
       transform="matrix(6.58,0,0,6.58,-1295.2,-2278.3)"
       cy="500.92999"
       cx="351.42999"
       r="154.45"
       fill="url(#k)"
       id="circle86"
       style="fill:url(#k)" />
    <circle
       fill-rule="evenodd"
       transform="matrix(4.75,0,0,4.75,-652.99,-1363)"
       cy="500.35999"
       cx="352"
       r="174.60001"
       fill="url(#l)"
       id="circle88"
       style="fill:url(#l)" />
    <path
       d="m 1024.3,1840.7 c 117.29,-18.26 173.83,-70.18 237.13,-133.88 13.642,-2.064 40,8.877 49.268,12.775 -33.013,44.52 -72.786,74.09 -108.68,100.5 -29.655,21.89 -66.056,18.66 -105.11,18.33 -21.478,1.44 -51.09,3.86 -72.61,2.28 z"
       fill="#4d4d4d"
       id="path90" />
    <path
       d="m 588.98,1714.8 c -40.62,-25.1 -114.07,-73.3 -152.21,-126.1 80.4,63.832 156.11,91.51 248.67,87.193 6.89,0.514 10.13,12.442 14.47,19.058 11.96,10.34 20.54,20.55 15.88,22.16 -34.9,6.22 -85.25,7.58 -126.79,-2.28 z"
       fill="#666666"
       id="path92" />
    <path
       d="m 1616.5,1571.1 c 28.075,-64.96 35.293,-138.18 34.703,-190.3 11.35,-24.73 28.132,-54.54 34.024,-66.76 16.756,48.53 12.337,131.3 4,177.92 -16.393,29.67 -54.468,63.47 -72.727,79.15 z m 33.727,-918.94 c 1.387,-63.162 -4.216,-130.76 -29.195,-187.79 25.823,19.73 58.387,55.11 66.77,73.16 13.926,59.35 8.698,125.8 -2.197,182.2 -6.092,-26.43 -35.846,-48.38 -35.38,-67.55 z"
       fill="#333333"
       id="path94" />
    <path
       d="m 445,430.01 c 51.814,-48.483 106.16,-106.14 176.88,-123.21 44.18,-5.493 129.34,-8.31 66.113,44.267 -87.94,-5.197 -172.04,29.777 -242.3,80.027 z"
       fill="#666666"
       id="path96" />
    <path
       d="m 1265.2,325.28 c -59.03,-68.357 -126.1,-112.4 -208.34,-133.43 36.112,-0.413 105.46,5.568 150.74,20.25 40.522,28.25 85.184,70.39 107.32,101.19 -6.1,10.212 -13.27,13.395 -49.726,11.987 z"
       fill="#4d4d4d"
       id="path98" />
    <circle
       fill-rule="evenodd"
       transform="matrix(4.75,0,0,4.75,-652.99,-1363)"
       cy="500.92999"
       cx="351.42999"
       r="154.45"
       fill="url(#m)"
       id="circle100"
       style="fill:url(#m)" />
    <path
       transform="matrix(4.75,0,0,4.75,-652.99,-1363)"
       fill="url(#n)"
       d="m 475.53,408.96 c 19.072,25.693 30.355,57.514 30.355,91.97 0,85.302 -69.152,154.45 -154.45,154.45 -61.51,0 -114.62,-35.95 -139.47,-87.986 0,0 44.76,-43.968 103.26,-83.808 68.96,-46.967 160.29,-74.63 160.29,-74.63 z"
       fill-rule="evenodd"
       id="path102"
       style="fill:url(#n)" />
    <path
       d="m 552.1,1180.4 c 1.237,-2.042 12.08,-1.508 16.18,1.524 9.28,63.037 19.537,119.58 35.434,178.1 30.424,113.8 84.427,229.93 149.23,314.38 94.73,112.7 175.51,156.04 274.33,167.74 -302.85,-10.25 -527.24,-397.66 -475.18,-661.74 z"
       fill="url(#o)"
       id="path104"
       style="fill:url(#o)" />
    <path
       stroke="#ffffff"
       d="m 798.8,1823.3 c -133.01,-37.7 -224.55,-82.9 -325.18,-167.1 -91.27,-72 -122.84,-208.8 -102.46,-321.9 13.14,-64.94 25.69,-114.57 92.34,-147.8 11.54,-5.53 43.29,-5.9 45.4,-4.6 2.23,1.38 8.2,5.73 1,8.77 -77.45,13.3 -117.95,128.68 -119.8,203.58 -1.39,56.33 10.71,119.03 31.99,167.48 90.94,133.78 251.59,201.8 382.93,249.54 15.1,4.14 20,6.05 20,7.77 0,1.59 -8.69,8.87 -26.2,4.32 z"
       fill="url(#p)"
       id="path106"
       style="fill:url(#p)" />
    <path
       d="m 1308.8,1689.1 c -312.12,-62.9 -455.71,-465 -728.45,-543.4 -6.703,-1.544 -22.044,-12.763 -22.044,-13.366 61.917,9.323 120.61,36.794 168.78,68.033 141.85,103.22 230.71,222.13 361.03,336.65 101.76,93.48 186.53,134.36 296.11,142.83 -23.44,7.707 -70.57,10.41 -75.47,9.28 z"
       fill="#8b8b8b"
       id="path108" />
    <path
       d="m 334.96,1484.8 c -2.187,-2.986 -7.57,-1.413 -7.57,-1.413 -87.704,-76.44 -204.42,-332.47 -137.11,-444.32 1.628,-1.99 6.053,-20.24 8.022,-0.06 7.473,177.87 42.688,288.81 145.68,442.59 0.24,4.24 -3.738,7.33 -4.202,7.8 -0.464,0.47 -2.633,-1.6 -4.82,-4.58 z"
       fill="url(#q)"
       id="path110"
       style="fill:url(#q)" />
    <path
       d="m 548.17,1133.3 c -1.093,-19.195 -13.108,-96.155 0.643,-96.45 2.15,-0.01 8.928,1.323 9.597,2.182 -0.097,40.484 2.923,75.62 6.935,97.524 -2.742,3.196 -15.247,1.09 -17.176,-3.255 z"
       fill="#4d4d4d"
       id="path112" />
    <path
       d="M 188.71,992.37 C 152.57,881.6 260.45,555.31 338.99,542.5 c 1.54,0 0.12,11.58 -2.073,16.875 -89.54,155.13 -129.48,290.27 -135.16,434.16 -3.75,-0.05 -10.53,1.695 -13.06,-1.167 z"
       fill="#5d5d5d"
       id="path114" />
    <path
       d="m 546.93,991.34 c -1.275,-9.253 -13.56,-80.28 4.47,-96.74 4.3,-1.22 9.387,-2.253 13.938,-2.27 -4.378,32.45 -6.143,57.19 -5.965,99.543 -3.532,-0.2 -9.592,1.714 -12.443,-0.533 z"
       fill="#4d4d4d"
       id="path116" />
    <path
       d="m 563.28,895.75 c -1.623,-0.07 0.187,-2.724 3.886,-3.376 346.58,-123.84 401.47,-410.51 691.85,-522.69 35.477,-14.41 91.186,-18.173 115.26,-20.055 15.52,-1.22 12.49,2.38 -6.874,4.21 -35.46,3.35 -68.26,11.72 -89.906,19.5 -129,51.26 -223.1,151.02 -319.75,248.81 -151.23,153.29 -271.14,275.4 -394.47,273.58 z"
       fill="#6b6d6e"
       id="path118" />
    <path
       d="m 492.19,854.74 c -59.487,-15.736 -95.106,-69.587 -110.65,-120.32 -20.814,-95.082 -17.7,-213.93 34.575,-294.29 12.005,-17.79 56.17,-75.81 98.733,-106.5 86.06,-48.88 216.09,-139.7 306.21,-120.48 1.49,1.49 -3.43,4.1 -11.685,6.2 -127.52,31.52 -224.23,91.2 -297.64,147.92 -55,43.94 -78.87,69.45 -92.714,103.79 -35.41,102.6 -46.13,218.89 11.74,312.38 23.98,31.13 44.86,48.06 87.21,60.39 0,0 -13.75,13.89 -25.79,10.93 z"
       fill="#616161"
       id="path120" />
    <path
       d="m 557.59,850.53 c 0.333,-152.9 57.52,-330.77 133.14,-446.66 55.646,-79.29 131.21,-144.79 207.39,-181.96 19.992,-10.3 89.25,-26.85 78.125,-23.27 -38.854,9.68 -64.005,21.02 -99.375,43.06 -39.86,24.89 -65.732,48.97 -93.37,77.71 -69.482,71.93 -117.76,167.25 -149.66,249.98 -36.8,96.53 -52.65,197.66 -65.34,279.82 0,0 -9.35,3.24 -10.93,1.34 z"
       fill="#414142"
       id="path122" />
    <path
       d="m 563.28,895.75 c -1.623,-0.07 0.187,-2.724 3.886,-3.376 346.58,-123.84 401.47,-410.51 691.85,-522.69 35.477,-14.41 91.186,-18.173 115.26,-20.055 15.52,-1.22 12.49,2.38 -6.874,4.21 -35.46,3.35 -68.26,11.72 -89.906,19.5 -129,51.26 -223.1,151.02 -319.75,248.81 -151.23,153.29 -271.14,275.4 -394.47,273.58 z"
       fill="#6b6d6e"
       id="path124" />
    <path
       d="M 963.12,1886.2 C 625.06,1869.8 310.54,1636.8 197.74,1317.4 75.72,996.61 165.88,608.02 421.71,377.55 675.36,133.8 1082,73.68 1395.7,231.95 c 318.81,145.91 518.47,503.11 488.38,850.76 -22.274,357.59 -290.13,680.71 -635.53,772.65 -92.71,25.953 -189.46,34.753 -285.47,30.796 z m 97.236,-45.03 c 141.57,-8.03 282.86,-51.82 400.61,-130.88 -160.62,48.12 -318.34,-46.71 -431.33,-153.72 -138.78,-120.94 -248,-283.65 -419.91,-360.96 -19.68,-5.143 -33.02,-8.94 -52.48,-11.345 -1.46,44.013 19.34,123.52 34.03,177.68 52.67,174.9 140.1,360.78 309.91,448.43 49.1,24.093 104.71,34.59 159.2,30.785 z m -236.89,-22.702 c -153.53,-109.82 -235.28,-293.26 -282.47,-471.04 -13.65,-46.245 -26.86,-128.6 -32.14,-163.13 -17.7,0.713 -34.35,2.72 -60.5,26.565 -83.2,84.76 -81.05,222.1 -47.89,328.68 41.68,108.17 156.26,164.21 251.22,218.7 54.09,26.51 114.45,49.31 171.79,60.23 z m 588.46,-144.24 c 100.43,-20.897 192.33,-80.554 259.42,-157.36 73.55,-95.436 131.53,-217.81 149.68,-322.76 l -922.1,-2.208 c -55.61,1.45 -56.06,-22.29 -61.12,-44.92 l 991.82,-0.51 c 10.01,-51.19 9.626,-82.64 10.71,-106.81 l -1292.9,-0.28 c -1.832,36.94 -0.22,73.2 5.858,95.6 35.845,2.58 40.08,9.95 73.265,19.93 168.52,70.89 276.16,227.23 409.03,345.62 101.36,94.6 227.84,196.71 376.33,173.67 z m -906.36,-537.43 c -1.71,-27.732 -4.43,-57.887 -3.74,-98.998 -82.94,0.048 -228,-0.6 -310.92,1.128 1.13,160.1 56.6,323.68 150.01,451.34 -21.03,-259.52 60.43,-327.38 164.66,-353.47 z m -5.83,-144.2 c 0.367,-34.984 3.365,-76.127 6.93,-98.364 -172.76,-30.95 -182.32,-230.83 -166.62,-354.34 -94.88,130.83 -146.14,291.21 -151.68,452.34 103.74,1.933 207.6,1.302 311.37,0.36 z m 1341.3,-0.153 c -0.237,-33.886 -5.238,-74.477 -8.657,-95.826 l -994.31,-2.34 c 1.7,-53.27 52.8,-44.73 86.72,-42.61 l 898.94,-1.82 c -20.22,-114.18 -64.42,-223.41 -135.92,-315.35 -43.43,-57.88 -96.52,-111.03 -152.11,-155.9 -94.68,-27.98 -196.7,-38.87 -290.69,2.2 -140.09,61.21 -238.78,184.69 -347.19,286.29 -97.66,97.3 -202.76,211.96 -345.94,227.74 -4.66,36.93 -4.57,69.36 -4.76,95.63 z m -1330.6,-144.92 c 30.79,-235.98 116.19,-484.35 310.96,-634.57 -151.95,35.62 -298.61,115.08 -401.01,233.78 -53.975,108.17 -60.664,251.86 9.052,354.59 19.515,23.81 49.123,45.98 80.992,46.194 z m 432.78,-289.13 c 110.97,-107.42 285.87,-300 520.57,-237.08 -204.4,-125.84 -380.6,-151.8 -526.64,-114.08 -174.43,62.37 -273.13,241.12 -329.77,407.16 -24.36,75.544 -42.17,155.12 -50.345,234.08 132.23,-9 294,-200.84 386.18,-290.08 z"
       fill="url(#r)"
       id="path126"
       style="fill:url(#r)" />
    <path
       filter="url(#s)"
       d="M 963.12,1886.2 C 625.06,1869.8 310.54,1636.8 197.74,1317.4 75.72,996.61 165.88,608.02 421.71,377.55 675.36,133.8 1082,73.68 1395.7,231.95 c 318.81,145.91 518.47,503.11 488.38,850.76 -22.274,357.59 -290.13,680.71 -635.53,772.65 -92.71,25.953 -189.46,34.753 -285.47,30.796 z m 97.236,-45.03 c 141.57,-8.03 282.86,-51.82 400.61,-130.88 -160.62,48.12 -318.34,-46.71 -431.33,-153.72 -138.78,-120.94 -248,-283.65 -419.91,-360.96 -19.68,-5.143 -33.02,-8.94 -52.48,-11.345 -1.46,44.013 19.34,123.52 34.03,177.68 52.67,174.9 140.1,360.78 309.91,448.43 49.1,24.093 104.71,34.59 159.2,30.785 z m -236.89,-22.702 c -153.53,-109.82 -235.28,-293.26 -282.47,-471.04 -13.65,-46.245 -26.86,-128.6 -32.14,-163.13 -17.7,0.713 -34.35,2.72 -60.5,26.565 -83.2,84.76 -81.05,222.1 -47.89,328.68 41.68,108.17 156.26,164.21 251.22,218.7 54.09,26.51 114.45,49.31 171.79,60.23 z m 588.46,-144.24 c 100.43,-20.897 192.33,-80.554 259.42,-157.36 73.55,-95.436 131.53,-217.81 149.68,-322.76 l -922.1,-2.208 c -55.61,1.45 -56.06,-22.29 -61.12,-44.92 l 991.82,-0.51 c 10.01,-51.19 9.626,-82.64 10.71,-106.81 l -1292.9,-0.28 c -1.832,36.94 -0.22,73.2 5.858,95.6 35.845,2.58 40.08,9.95 73.265,19.93 168.52,70.89 276.16,227.23 409.03,345.62 101.36,94.6 227.84,196.71 376.33,173.67 z m -906.36,-537.43 c -1.71,-27.732 -4.43,-57.887 -3.74,-98.998 -82.94,0.048 -228,-0.6 -310.92,1.128 1.13,160.1 56.6,323.68 150.01,451.34 -21.03,-259.52 60.43,-327.38 164.66,-353.47 z m -5.83,-144.2 c 0.367,-34.984 3.365,-76.127 6.93,-98.364 -172.76,-30.95 -182.32,-230.83 -166.62,-354.34 -94.88,130.83 -146.14,291.21 -151.68,452.34 103.74,1.933 207.6,1.302 311.37,0.36 z m 1341.3,-0.153 c -0.237,-33.886 -5.238,-74.477 -8.657,-95.826 l -994.31,-2.34 c 1.7,-53.27 52.8,-44.73 86.72,-42.61 l 898.94,-1.82 c -20.22,-114.18 -64.42,-223.41 -135.92,-315.35 -43.43,-57.88 -96.52,-111.03 -152.11,-155.9 -94.68,-27.98 -196.7,-38.87 -290.69,2.2 -140.09,61.21 -238.78,184.69 -347.19,286.29 -97.66,97.3 -202.76,211.96 -345.94,227.74 -4.66,36.93 -4.57,69.36 -4.76,95.63 z m -1330.6,-144.92 c 30.79,-235.98 116.19,-484.35 310.96,-634.57 -151.95,35.62 -298.61,115.08 -401.01,233.78 -53.975,108.17 -60.664,251.86 9.052,354.59 19.515,23.81 49.123,45.98 80.992,46.194 z m 432.78,-289.13 c 110.97,-107.42 285.87,-300 520.57,-237.08 -204.4,-125.84 -380.6,-151.8 -526.64,-114.08 -174.43,62.37 -273.13,241.12 -329.77,407.16 -24.36,75.544 -42.17,155.12 -50.345,234.08 132.23,-9 294,-200.84 386.18,-290.08 z"
       fill="url(#t)"
       id="path128"
       style="fill:url(#t)" />
  </g>
  <path
     d="m 224.51784,122.95225 h 2.91287 v 0.52457 h -2.28929 v 1.36374 h 2.19378 v 0.51966 h -2.19378 v 1.66429 h 2.34547 v 0.51965 h -2.96905 v -4.60665 z m 4.71901,4.08701 h 2.25277 v 0.52457 h -2.96905 v -0.52457 l 1.47891,-1.92553 -1.4782,-1.63269 v -0.52457 h 2.91427 v 0.52457 h -2.19799 l 1.48171,1.62005 -1.47469,1.93817 z m 4.81031,-3.46904 -0.84549,2.29279 h 1.69449 l -0.8497,-2.29279 z m -0.35112,-0.61445 h 0.70575 l 1.75558,4.60665 h -0.64746 l -0.41993,-1.18116 h -2.07651 l -0.41994,1.18186 h -0.65729 l 1.7591,-4.60665 z m 3.13196,-0.004 h 0.62359 v 1.9473 l 2.06738,-1.9473 h 0.80265 l -2.28718,2.14884 2.4508,2.45782 h -0.82161 l -2.21204,-2.21906 v 2.21906 H 236.828 Z m 4.14319,0 h 2.91286 v 0.52457 h -2.28928 v 1.36374 h 2.19378 v 0.51966 h -2.19378 v 1.66429 h 2.34546 v 0.51965 h -2.97045 v -4.60665 z"
     stroke="#000000"
     stroke-width="0.175559"
     fill="#333333"
     id="path132" />
  <g
     stroke-linejoin="round"
     id="g168"
     transform="matrix(0.70223419,0,0,0.70223419,-5.8641383,-5.1001538)">
    <path
       stroke="#f2f2f2"
       stroke-width="9.17"
       d="m 212.36,237.2 a 4.586,4.586 0 0 0 -4.586,4.586 v 4.664 c -0.367,-0.27 -0.69,-0.592 -1.074,-0.842 -5.606,-3.668 -12.42,-4.63 -19.303,-2.974 -5.017,1.207 -9.316,3.62 -12.668,6.97 -2.31,-2.773 -5.13,-4.89 -8.5,-5.84 -5.33,-1.5 -11.17,-0.395 -17.36,2.415 l -15.7,7.12 a 4.586,4.586 0 0 0 -1.5,1.09 4.586,4.586 0 0 0 -1.37,-0.2 c -2.28,0.01 -4.62,0.31 -7,0.85 -2.4,0.51 -4.94,1.31 -7.67,2.38 -2.91,1.14 -5.59,2.56 -8.02,4.26 -2.51,1.73 -4.64,3.79 -6.3,6.16 a 4.586,4.586 0 0 0 -0.02,0.02 c -1.69,2.44 -2.77,5.24 -3.17,8.17 -0.44,3.13 0.08,6.36 1.3,9.49 1.6,4.08 4.4,7.48 8.1,9.58 a 4.586,4.586 0 0 0 0.02,0.01 c 3.67,2.05 8.06,2.96 13.04,3.07 a 4.586,4.586 0 0 0 0.03,0 c 1.7,0.03 3.28,0.08 4.75,0.16 1.33,0.07 2.44,0.23 3.31,0.43 a 4.586,4.586 0 0 0 0.05,0.01 c 0.77,0.17 1.26,0.39 1.55,0.58 -0.01,0.02 0,-0.01 -0.06,0.07 -0.13,0.17 -0.48,0.54 -1.13,1 a 4.586,4.586 0 0 0 -0.02,0.01 c -0.54,0.38 -1.39,0.83 -2.53,1.28 -1.88,0.73 -3.86,1.14 -6.01,1.22 -2.11,0.05 -4.2,-0.27 -6.37,-1 a 4.586,4.586 0 0 0 -5.74,6.02 l 4.29,10.98 a 4.586,4.586 0 0 0 3.81,2.89 c 2.67,0.27 5.48,0.08 8.43,-0.47 2.93,-0.56 5.86,-1.42 8.8,-2.57 2.9,-1.14 5.59,-2.51 8.04,-4.13 2.57,-1.69 4.76,-3.71 6.46,-6.05 a 4.586,4.586 0 0 0 0.02,-0.04 c 1.15,-1.61 1.91,-3.43 2.49,-5.3 l 0.24,0.52 a 4.586,4.586 0 0 0 6.07,2.28 l 10.01,-4.55 a 4.586,4.586 0 0 0 2.28,-6.07 l -5.06,-11.15 0.6,-0.27 c 2.05,-0.93 3.83,-2.09 5.52,-3.31 2.07,4.52 5.15,8.28 9.24,10.89 a 4.586,4.586 0 0 0 0.01,0 c 5.69,3.6 12.52,4.53 19.42,2.87 4.65,-1.12 8.66,-3.35 11.89,-6.39 a 4.586,4.586 0 0 0 1.28,0.18 h 8.93 a 4.586,4.586 0 0 0 4.59,-4.58 v -14 l 10.87,16.57 a 4.586,4.586 0 0 0 3.83,2.07 h 9.54 a 4.586,4.586 0 0 0 3.77,-1.99 c 1.53,0.86 3.17,1.58 4.97,2.12 2.22,0.66 4.55,1.11 6.98,1.35 2.41,0.25 4.76,0.26 7.04,0.01 2.42,-0.26 4.73,-0.88 6.81,-1.94 a 4.586,4.586 0 0 0 0.03,-0.01 c 1.89,-0.97 3.5,-2.4 4.82,-4.07 2.94,3.17 6.85,5.37 11.32,6.38 5.36,1.2 10.68,0.47 15.24,-2.03 a 4.586,4.586 0 0 0 3.25,4.09 l 7.17,2.15 a 4.586,4.586 0 0 0 5.71,-3.07 l 0.88,-2.93 1.58,6.15 a 4.586,4.586 0 0 0 3.12,3.25 l 8.24,2.47 a 4.586,4.586 0 0 0 5.73,-5.64 l -3.19,-11.2 v -0.01 c -0.19,-0.69 -0.43,-1.38 -0.69,-2.07 -0.02,-0.06 -0.05,-0.11 -0.07,-0.17 0.55,-0.27 1.15,-0.41 1.66,-0.74 1.28,-0.86 2.4,-1.93 3.32,-3.16 a 4.586,4.586 0 0 0 0.02,-0.02 c 0.96,-1.3 1.67,-2.78 2.14,-4.34 1.16,-3.87 0.71,-8.21 -1.66,-11.41 -2.37,-3.2 -6,-5.11 -10.41,-6.43 l -11.36,-3.41 a 4.586,4.586 0 0 0 -5.71,3.07 l -0.55,1.84 c -0.13,-0.24 -0.2,-0.51 -0.34,-0.75 h -0.01 c -2.9,-4.91 -7.79,-8.23 -13.6,-9.54 -1.52,-0.34 -3.04,-0.55 -4.53,-0.62 -0.57,-0.02 -1.13,-0.03 -1.68,-0.01 -3.89,0.11 -7.64,1.32 -10.85,3.5 -0.22,0.14 -0.38,0.34 -0.59,0.49 l 0.19,-1.89 a 4.586,4.586 0 0 0 -2.49,-4.56 c -1.62,-0.82 -3.37,-1.46 -5.22,-1.93 -1.85,-0.5 -3.88,-0.84 -6.11,-1.07 -1.22,-0.13 -2.42,-0.18 -3.61,-0.17 -1.19,0.01 -2.35,0.1 -3.5,0.26 -2.39,0.31 -4.66,0.99 -6.72,2.08 a 4.586,4.586 0 0 0 -0.03,0.01 c -2.12,1.13 -3.96,2.76 -5.33,4.73 -0.51,0.72 -0.83,1.54 -1.18,2.34 v -7.66 a 4.586,4.586 0 0 0 -4.59,-4.59 h -8.93 a 4.586,4.586 0 0 0 -4.59,4.59 V 255 l -10.22,-15.68 a 4.586,4.586 0 0 0 -3.85,-2.08 h -10.18 z"
       id="path134" />
    <path
       d="m 241.18,237.5 a 4.287,4.287 0 0 0 -4.287,4.287 v 14.168 L 226.14,239.45 a 4.287,4.287 0 0 0 -3.59,-1.944 h -10.19 a 4.287,4.287 0 0 0 -4.287,4.285 v 5.4 c -0.525,-0.41 -1.065,-0.8 -1.63,-1.17 -4.123,-2.69 -8.896,-3.9 -13.884,-3.65 -1.67,0.09 -3.36,0.34 -5.05,0.74 -4.97,1.2 -9.26,3.52 -12.55,6.83 -2.33,-2.91 -5.28,-5.05 -8.76,-6.02 -1.32,-0.37 -2.68,-0.58 -4.06,-0.64 -4.16,-0.19 -8.58,0.96 -13.21,3.06 l -15.7,7.12 a 4.463,4.463 0 0 0 -1.44,1.04 4.585,4.585 0 0 0 -1.46,-0.23 c -2.29,0.02 -4.63,0.31 -7.01,0.86 -2.39,0.52 -4.92,1.32 -7.65,2.38 a 4.585,4.585 0 0 0 -0.01,0 c -2.91,1.14 -5.6,2.56 -8.03,4.27 -2.51,1.73 -4.65,3.79 -6.31,6.16 a 4.585,4.585 0 0 0 -0.02,0.03 c -1.68,2.45 -2.76,5.24 -3.17,8.17 -0.44,3.13 0.08,6.36 1.3,9.48 a 4.585,4.585 0 0 0 0,0.01 c 1.6,4.08 4.4,7.48 8.1,9.58 a 4.585,4.585 0 0 0 0.02,0.01 c 3.67,2.06 8.06,2.97 13.04,3.078 a 4.585,4.585 0 0 0 0.03,0 c 1.7,0.02 3.28,0.074 4.76,0.15 1.32,0.07 2.43,0.22 3.3,0.42 a 4.585,4.585 0 0 0 0.04,0.01 c 0.77,0.175 1.26,0.4 1.56,0.58 -0.01,0.028 0,-0.015 -0.06,0.085 -0.13,0.17 -0.47,0.54 -1.11,0.98 a 4.585,4.585 0 0 0 -0.02,0.02 c -0.55,0.38 -1.4,0.84 -2.54,1.29 -1.88,0.74 -3.85,1.14 -6,1.217 -2.11,0.05 -4.21,-0.27 -6.37,-1 a 4.585,4.585 0 0 0 -5.74,6.02 l 4.3,10.98 a 4.585,4.585 0 0 0 0.7,1.21 l 0.07,0.085 a 4.585,4.585 0 0 0 3.103,1.68 c 2.68,0.275 5.49,0.094 8.44,-0.466 a 4.585,4.585 0 0 0 0.01,0 c 2.92,-0.557 5.85,-1.42 8.79,-2.574 2.9,-1.13 5.58,-2.503 8.032,-4.12 2.57,-1.69 4.76,-3.71 6.46,-6.06 a 4.585,4.585 0 0 0 0.02,-0.03 c 1.15,-1.62 2.02,-3.42 2.6,-5.305 l 0.18,0.4 a 4.463,4.463 0 0 0 5.91,2.22 l 10.012,-4.55 a 4.463,4.463 0 0 0 2.22,-5.91 l -5.1,-11.24 0.72,-0.33 c 2.166,-0.983 4.145,-2.143 5.916,-3.46 2.04,4.48 5.11,8.16 9.14,10.73 a 4.11,4.11 0 0 0 0.01,0.01 c 5.516,3.49 12.1,4.42 18.81,2.867 a 4.11,4.11 0 0 0 0.26,-0.05 c 4.64,-1.12 8.68,-3.253 11.86,-6.28 a 4.287,4.287 0 0 0 1.41,0.24 h 8.93 a 4.287,4.287 0 0 0 4.284,-4.286 v -15.07 l 11.43,17.4 a 4.287,4.287 0 0 0 3.59,1.937 h 9.54 a 4.287,4.287 0 0 0 3.67,-2.086 4.32,4.32 0 0 0 0.778,0.2 c 1.398,0.74 2.786,1.484 4.42,1.974 a 4.32,4.32 0 0 0 0.024,0.003 c 2.2,0.64 4.515,1.09 6.926,1.34 a 4.32,4.32 0 0 0 0.02,0 c 2.38,0.24 4.71,0.243 6.97,0.003 2.4,-0.257 4.67,-0.877 6.72,-1.916 a 4.32,4.32 0 0 0 0.02,-0.01 c 2.01,-1.03 3.75,-2.52 5.1,-4.334 2.72,3.01 6.36,5.106 10.54,6.183 a 4.026,4.026 0 0 0 0.69,0.23 c 5.53,1.25 11,0.5 15.59,-2.27 a 4.12,4.12 0 0 0 2.9,4.457 l 7.17,2.15 a 4.12,4.12 0 0 0 5.13,-2.76 l 1.37,-4.57 2,7.77 a 4.12,4.12 0 0 0 2.8,2.91 l 7.62,2.28 a 4.12,4.12 0 0 0 5.2,-1.45 l 0.03,-0.04 a 4.12,4.12 0 0 0 0.32,-3.95 l -3.02,-10.61 a 4.12,4.12 0 0 0 0,-0.01 c -0.197,-0.665 -0.426,-1.34 -0.68,-2.025 -0.07,-0.2 -0.166,-0.38 -0.24,-0.58 0.67,-0.3 1.395,-0.494 2.01,-0.9 1.233,-0.83 2.32,-1.87 3.21,-3.07 0.94,-1.26 1.63,-2.69 2.082,-4.21 1.13,-3.764 0.69,-7.913 -1.59,-10.992 -2.28,-3.08 -5.81,-4.96 -10.16,-6.264 l -11.36,-3.41 a 4.12,4.12 0 0 0 -1.22,-0.17 4.12,4.12 0 0 0 -3.91,2.94 l -0.887,2.94 c -0.275,-0.59 -0.577,-1.17 -0.91,-1.74 -2.82,-4.77 -7.55,-7.99 -13.247,-9.27 -1.49,-0.34 -2.98,-0.537 -4.444,-0.59 -4.394,-0.166 -8.593,0.944 -12.17,3.37 -0.43,0.29 -0.84,0.6 -1.24,0.92 l 0.29,-2.83 a 4.32,4.32 0 0 0 -2.35,-4.296 c -1.6,-0.805 -3.325,-1.44 -5.163,-1.91 -1.84,-0.493 -3.86,-0.836 -6.087,-1.06 H 275 c -2.405,-0.243 -4.76,-0.215 -7.046,0.1 -2.37,0.306 -4.617,0.977 -6.64,2.05 a 4.32,4.32 0 0 0 -0.018,0.01 c -2.09,1.12 -3.89,2.72 -5.24,4.66 -0.735,1.05 -1.31,2.2 -1.73,3.418 v -8.88 a 4.287,4.287 0 0 0 -4.284,-4.29 h -8.92 z m 32.223,18.545 c 0.168,-0.004 0.35,-0.002 0.57,0.02 l 0.004,0.002 c 0.525,0.058 1.105,0.16 1.74,0.312 a 4.32,4.32 0 0 0 0.022,0 c 0.59,0.14 1.19,0.33 1.78,0.57 a 4.32,4.32 0 0 0 0.1,0.04 c 0.58,0.22 1.14,0.48 1.67,0.8 a 4.32,4.32 0 0 0 0.05,0.03 c 0.52,0.29 0.96,0.61 1.34,0.94 a 4.32,4.32 0 0 0 1.1,0.69 c -0.24,0.57 -0.45,1.16 -0.65,1.76 -0.11,-0.09 -0.22,-0.18 -0.33,-0.26 -1.36,-1.01 -2.86,-1.96 -4.5,-2.86 a 4.32,4.32 0 0 0 -0.02,-0.02 c -1.04,-0.56 -1.95,-1.08 -2.74,-1.56 -0.29,-0.18 -0.42,-0.31 -0.66,-0.48 0.17,-0.01 0.32,-0.02 0.49,-0.02 z m -19.016,5.295 c 0.368,1.017 0.837,1.998 1.434,2.908 a 4.32,4.32 0 0 0 0.02,0.018 c 1.86,2.803 4.6,5.013 7.99,6.85 a 4.32,4.32 0 0 0 0.03,0.017 c 1.12,0.595 2.15,1.17 3.09,1.723 0.68,0.395 1.15,0.75 1.58,1.088 -0.39,0.023 -0.78,0.053 -1.42,-0.012 -1.41,-0.145 -2.77,-0.527 -4.16,-1.18 -1.33,-0.648 -2.54,-1.516 -3.67,-2.682 a 4.32,4.32 0 0 0 -4.87,-0.92 v -7.81 z m -117.28,11.422 3.34,7.357 c -1.893,-0.83 -3.93,-1.41 -6.082,-1.75 -2.168,-0.38 -4.477,-0.59 -6.943,-0.64 a 4.585,4.585 0 0 0 -0.016,0 c -1.588,-0.03 -3.005,-0.1 -4.254,-0.19 -1.147,-0.11 -2.092,-0.27 -2.81,-0.45 -0.446,-0.13 -0.633,-0.24 -0.827,-0.34 0.01,-0.02 0,-0.01 0.012,-0.03 0.162,-0.21 0.52,-0.57 1.14,-0.99 a 4.585,4.585 0 0 0 0.067,-0.05 c 0.588,-0.41 1.358,-0.83 2.33,-1.21 a 4.585,4.585 0 0 0 0.002,0 c 0.7,-0.28 1.49,-0.53 2.37,-0.75 0.865,-0.22 1.753,-0.36 2.675,-0.45 a 4.585,4.585 0 0 0 0.08,-0.01 c 0.9,-0.1 1.78,-0.13 2.65,-0.08 a 4.585,4.585 0 0 0 0.06,0 c 0.89,0.03 1.69,0.15 2.44,0.32 a 4.585,4.585 0 0 0 3.78,-0.78 z m 113.74,6.783 0.3,0.05 v 0.015 a 4.287,4.287 0 0 0 -0.3,-0.065 z"
       stroke="#ffffff"
       stroke-width="5"
       color="#000000"
       id="path136" />
    <g
       fill="#f4cf00"
       id="g166">
      <path
         d="m 117.06,317.31 -4.297,-10.978 q 3.964,1.336 7.96,1.236 3.983,-0.13 7.55,-1.53 2.093,-0.82 3.49,-1.8 1.43,-0.99 2.203,-2.05 0.795,-1.1 0.96,-2.19 0.152,-1.12 -0.264,-2.19 -0.564,-1.44 -1.83,-2.25 -1.267,-0.81 -3.084,-1.21 -1.782,-0.41 -4.087,-0.53 -2.305,-0.12 -4.93,-0.16 -6.7,-0.14 -10.9,-2.49 -4.17,-2.36 -6.09,-7.26 -1.5,-3.84 -1.03,-7.19 0.46,-3.38 2.4,-6.2 1.98,-2.83 5.16,-5.02 3.17,-2.23 7.08,-3.76 3.84,-1.5 6.98,-2.18 3.16,-0.72 6.04,-0.74 l 4.02,10.26 q -1.57,-0.37 -3.3,-0.44 -1.69,-0.09 -3.4,0.1 -1.71,0.16 -3.34,0.56 -1.59,0.39 -2.96,0.93 -1.88,0.74 -3.28,1.72 -1.41,0.95 -2.22,2.01 -0.81,1.06 -1.03,2.23 -0.23,1.12 0.21,2.25 0.48,1.24 1.53,1.97 1.03,0.71 2.58,1.13 1.54,0.39 3.59,0.58 2.04,0.15 4.55,0.2 3.44,0.08 6.32,0.58 2.91,0.45 5.27,1.54 2.37,1.09 4.15,3.01 1.77,1.88 2.93,4.87 1.61,4.11 1.13,7.55 -0.45,3.38 -2.44,6.18 -2,2.77 -5.27,4.92 -3.24,2.14 -7.18,3.68 -4.05,1.59 -7.98,2.34 -3.9,0.74 -7.12,0.41 z"
         stroke="#000000"
         stroke-width="9.17"
         id="path138" />
      <path
         fill="#ffffff"
         d="m 117.06,317.31 -4.297,-10.978 q 3.964,1.336 7.96,1.236 3.983,-0.13 7.55,-1.53 2.093,-0.82 3.49,-1.8 1.43,-0.99 2.203,-2.05 0.795,-1.1 0.96,-2.19 0.152,-1.12 -0.264,-2.19 -0.564,-1.44 -1.83,-2.25 -1.267,-0.81 -3.084,-1.21 -1.782,-0.41 -4.087,-0.53 -2.305,-0.12 -4.93,-0.16 -6.7,-0.14 -10.9,-2.49 -4.17,-2.36 -6.09,-7.26 -1.5,-3.84 -1.03,-7.19 0.46,-3.38 2.4,-6.2 1.98,-2.83 5.16,-5.02 3.17,-2.23 7.08,-3.76 3.84,-1.5 6.98,-2.18 3.16,-0.72 6.04,-0.74 l 4.02,10.26 q -1.57,-0.37 -3.3,-0.44 -1.69,-0.09 -3.4,0.1 -1.71,0.16 -3.34,0.56 -1.59,0.39 -2.96,0.93 -1.88,0.74 -3.28,1.72 -1.41,0.95 -2.22,2.01 -0.81,1.06 -1.03,2.23 -0.23,1.12 0.21,2.25 0.48,1.24 1.53,1.97 1.03,0.71 2.58,1.13 1.54,0.39 3.59,0.58 2.04,0.15 4.55,0.2 3.44,0.08 6.32,0.58 2.91,0.45 5.27,1.54 2.37,1.09 4.15,3.01 1.77,1.88 2.93,4.87 1.61,4.11 1.13,7.55 -0.45,3.38 -2.44,6.18 -2,2.77 -5.27,4.92 -3.24,2.14 -7.18,3.68 -4.05,1.59 -7.98,2.34 -3.9,0.74 -7.12,0.41 z"
         id="path140" />
      <path
         d="m 158.33,282.09 6.954,15.32 -10.017,4.547 -20.186,-44.47 15.7,-7.12 q 16.81,-7.63 23.25,6.55 3.04,6.7 0.09,13.05 -2.93,6.31 -11,9.97 l -4.77,2.17 z m -9.74,-21.462 6.29,13.863 3.94,-1.78 q 8.002,-3.63 4.82,-10.64 -3.11,-6.85 -11.112,-3.22 l -3.94,1.79 z"
         stroke="#000000"
         stroke-width="8.925"
         id="path142" />
      <path
         fill="#ffffff"
         d="m 158.33,282.09 6.954,15.32 -10.017,4.547 -20.186,-44.47 15.7,-7.12 q 16.81,-7.63 23.25,6.55 3.04,6.7 0.09,13.05 -2.93,6.31 -11,9.97 l -4.77,2.17 z m -9.74,-21.462 6.29,13.863 3.94,-1.78 q 8.002,-3.63 4.82,-10.64 -3.11,-6.85 -11.112,-3.22 l -3.94,1.79 z"
         id="path144" />
      <path
         d="m 250.13,283.77 h -9.543 l -17.302,-26.377 q -1.522,-2.312 -2.107,-3.483 h -0.117 q 0.23,2.225 0.23,6.79 v 23.07 h -8.93 v -41.98 h 10.19 l 16.65,25.557 q 1.14,1.727 2.11,3.425 h 0.11 q -0.24,-1.464 -0.24,-5.767 v -23.22 h 8.92 v 41.98 z"
         stroke="#000000"
         stroke-width="8.574"
         id="path146" />
      <path
         fill="#ffffff"
         d="m 250.13,283.77 h -9.543 l -17.302,-26.377 q -1.522,-2.312 -2.107,-3.483 h -0.117 q 0.23,2.225 0.23,6.79 v 23.07 h -8.93 v -41.98 h 10.19 l 16.65,25.557 q 1.14,1.727 2.11,3.425 h 0.11 q -0.24,-1.464 -0.24,-5.767 v -23.22 h 8.92 v 41.98 z"
         id="path148" />
      <path
         d="m 198.12,290.1 q -8.898,2.14 -15.894,-2.29 -7.003,-4.458 -9.242,-13.76 -2.36,-9.824 1.87,-17.26 4.23,-7.438 13.62,-9.698 8.87,-2.134 15.73,2.36 6.89,4.485 9.18,13.99 2.35,9.767 -1.9,17.117 -4.22,7.34 -13.35,9.54 z m -7.973,-34.914 q -4.912,1.182 -6.91,5.576 -2.008,4.364 -0.548,10.432 1.48,6.154 5.23,9.042 3.75,2.887 8.43,1.76 4.82,-1.16 6.82,-5.31 1.99,-4.176 0.5,-10.36 -1.55,-6.442 -5.16,-9.364 -3.61,-2.922 -8.38,-1.775 z"
         stroke="#000000"
         stroke-width="8.22"
         id="path150" />
      <path
         fill="#ffffff"
         d="m 198.12,290.1 q -8.898,2.14 -15.894,-2.29 -7.003,-4.458 -9.242,-13.76 -2.36,-9.824 1.87,-17.26 4.23,-7.438 13.62,-9.698 8.87,-2.134 15.73,2.36 6.89,4.485 9.18,13.99 2.35,9.767 -1.9,17.117 -4.22,7.34 -13.35,9.54 z m -7.973,-34.914 q -4.912,1.182 -6.91,5.576 -2.008,4.364 -0.548,10.432 1.48,6.154 5.23,9.042 3.75,2.887 8.43,1.76 4.82,-1.16 6.82,-5.31 1.99,-4.176 0.5,-10.36 -1.55,-6.442 -5.16,-9.364 -3.61,-2.922 -8.38,-1.775 z"
         id="path152" />
      <path
         stroke="#000000"
         stroke-width="8.637"
         d="m 255.26,281.91 0.905,-8.834 q 2.196,2.262 4.907,3.572 2.715,1.283 5.586,1.578 1.684,0.173 2.958,-0.004 1.3,-0.173 2.184,-0.613 0.912,-0.47 1.4,-1.14 0.49,-0.71 0.578,-1.56 0.12,-1.16 -0.45,-2.14 -0.57,-0.98 -1.65,-1.87 -1.052,-0.89 -2.552,-1.77 -1.5,-0.88 -3.246,-1.81 -4.44,-2.41 -6.446,-5.44 -1.978,-3.02 -1.573,-6.97 0.32,-3.09 1.79,-5.18 1.47,-2.11 3.75,-3.33 2.3,-1.22 5.19,-1.59 2.89,-0.4 6.04,-0.08 3.09,0.31 5.43,0.94 2.37,0.61 4.31,1.59 l -0.84,8.25 q -0.92,-0.8 -2.05,-1.44 -1.11,-0.65 -2.32,-1.11 -1.2,-0.49 -2.43,-0.78 -1.2,-0.29 -2.3,-0.41 -1.52,-0.16 -2.79,0.02 -1.27,0.15 -2.18,0.59 -0.91,0.44 -1.45,1.13 -0.54,0.67 -0.63,1.58 -0.1,0.99 0.34,1.85 0.45,0.82 1.34,1.64 0.9,0.79 2.21,1.62 1.31,0.8 2.98,1.7 2.27,1.24 4.03,2.56 1.8,1.3 3,2.84 1.21,1.54 1.74,3.44 0.54,1.87 0.29,4.27 -0.34,3.31 -1.84,5.44 -1.47,2.11 -3.77,3.29 -2.29,1.16 -5.23,1.47 -2.9,0.31 -6.08,-0.01 -3.26,-0.34 -6.16,-1.19 -2.87,-0.86 -4.91,-2.18 z"
         id="path154" />
      <path
         fill="#ffffff"
         d="m 255.26,281.91 0.905,-8.834 q 2.196,2.262 4.907,3.572 2.715,1.283 5.586,1.578 1.684,0.173 2.958,-0.004 1.3,-0.173 2.184,-0.613 0.912,-0.47 1.4,-1.14 0.49,-0.71 0.578,-1.56 0.12,-1.16 -0.45,-2.14 -0.57,-0.98 -1.65,-1.87 -1.052,-0.89 -2.552,-1.77 -1.5,-0.88 -3.246,-1.81 -4.44,-2.41 -6.446,-5.44 -1.978,-3.02 -1.573,-6.97 0.32,-3.09 1.79,-5.18 1.47,-2.11 3.75,-3.33 2.3,-1.22 5.19,-1.59 2.89,-0.4 6.04,-0.08 3.09,0.31 5.43,0.94 2.37,0.61 4.31,1.59 l -0.84,8.25 q -0.92,-0.8 -2.05,-1.44 -1.11,-0.65 -2.32,-1.11 -1.2,-0.49 -2.43,-0.78 -1.2,-0.29 -2.3,-0.41 -1.52,-0.16 -2.79,0.02 -1.27,0.15 -2.18,0.59 -0.91,0.44 -1.45,1.13 -0.54,0.67 -0.63,1.58 -0.1,0.99 0.34,1.85 0.45,0.82 1.34,1.64 0.9,0.79 2.21,1.62 1.31,0.8 2.98,1.7 2.27,1.24 4.03,2.56 1.8,1.3 3,2.84 1.21,1.54 1.74,3.44 0.54,1.87 0.29,4.27 -0.34,3.31 -1.84,5.44 -1.47,2.11 -3.77,3.29 -2.29,1.16 -5.23,1.47 -2.9,0.31 -6.08,-0.01 -3.26,-0.34 -6.16,-1.19 -2.87,-0.86 -4.91,-2.18 z"
         id="path156" />
      <path
         d="m 296.9,285.73 q -7.29,-1.642 -10.815,-7.41 -3.52,-5.79 -1.803,-13.412 1.812,-8.046 7.594,-11.966 5.782,-3.92 13.474,-2.188 7.266,1.637 10.667,7.402 3.425,5.77 1.67,13.556 -1.8,8 -7.566,11.85 -5.75,3.853 -13.23,2.17 z m 6.755,-28.444 q -4.024,-0.906 -7.073,1.59 -3.044,2.473 -4.163,7.443 -1.14,5.04 0.57,8.5 1.71,3.46 5.54,4.33 3.95,0.89 6.91,-1.43 2.96,-2.35 4.1,-7.41 1.19,-5.28 -0.4,-8.72 -1.59,-3.44 -5.49,-4.32 z"
         stroke="#000000"
         stroke-width="8.052"
         id="path158" />
      <path
         fill="#ffffff"
         d="m 296.9,285.73 q -7.29,-1.642 -10.815,-7.41 -3.52,-5.79 -1.803,-13.412 1.812,-8.046 7.594,-11.966 5.782,-3.92 13.474,-2.188 7.266,1.637 10.667,7.402 3.425,5.77 1.67,13.556 -1.8,8 -7.566,11.85 -5.75,3.853 -13.23,2.17 z m 6.755,-28.444 q -4.024,-0.906 -7.073,1.59 -3.044,2.473 -4.163,7.443 -1.14,5.04 0.57,8.5 1.71,3.46 5.54,4.33 3.95,0.89 6.91,-1.43 2.96,-2.35 4.1,-7.41 1.19,-5.28 -0.4,-8.72 -1.59,-3.44 -5.49,-4.32 z"
         id="path160" />
      <path
         d="m 342.39,295.88 -8.233,-2.47 -2.492,-9.673 q -0.276,-1.09 -0.566,-1.98 -0.3,-0.88 -0.67,-1.55 -0.36,-0.68 -0.85,-1.12 -0.47,-0.45 -1.14,-0.65 l -1.93,-0.58 -3.66,12.19 -7.17,-2.15 9.54,-31.82 11.36,3.41 q 11.58,3.48 8.99,12.13 -0.5,1.67 -1.44,2.93 -0.93,1.25 -2.2,2.1 -1.27,0.85 -2.85,1.28 -1.56,0.43 -3.32,0.41 l -0.03,0.09 q 0.64,0.44 1.16,1.15 0.52,0.69 0.94,1.54 0.42,0.85 0.74,1.8 0.35,0.93 0.6,1.8 l 3.19,11.21 z m -11.593,-32.31 -2.657,8.854 3.107,0.932 q 2.308,0.693 4.105,-0.22 1.827,-0.927 2.426,-2.924 1.25,-4.172 -3.742,-5.67 l -3.24,-0.972 z"
         stroke="#000000"
         stroke-width="8.239"
         id="path162" />
      <path
         fill="#ffffff"
         d="m 342.39,295.88 -8.233,-2.47 -2.492,-9.673 q -0.276,-1.09 -0.566,-1.98 -0.3,-0.88 -0.67,-1.55 -0.36,-0.68 -0.85,-1.12 -0.47,-0.45 -1.14,-0.65 l -1.93,-0.58 -3.66,12.19 -7.17,-2.15 9.54,-31.82 11.36,3.41 q 11.58,3.48 8.99,12.13 -0.5,1.67 -1.44,2.93 -0.93,1.25 -2.2,2.1 -1.27,0.85 -2.85,1.28 -1.56,0.43 -3.32,0.41 l -0.03,0.09 q 0.64,0.44 1.16,1.15 0.52,0.69 0.94,1.54 0.42,0.85 0.74,1.8 0.35,0.93 0.6,1.8 l 3.19,11.21 z m -11.593,-32.31 -2.657,8.854 3.107,0.932 q 2.308,0.693 4.105,-0.22 1.827,-0.927 2.426,-2.924 1.25,-4.172 -3.742,-5.67 l -3.24,-0.972 z"
         id="path164" />
    </g>
  </g>
  <g
     stroke-width="2"
     fill-rule="evenodd"
     id="g174"
     transform="matrix(0.70223419,0,0,0.70223419,-5.8641383,-5.1001538)">
    <path
       d="m 178.76,309.34 c -11.625,3.864 -6.442,18.412 2.85,15.19 46.868,-16.246 110.93,-12.17 161.67,-9.18 6.352,0.376 7.345,-3.76 1.533,-4.992 -40.04,-8.488 -111.01,-19.316 -166.05,-1.02 z"
       stroke="#ffffff"
       id="path170" />
    <path
       d="m 183.72,310.85 c -10.478,2.334 -9.87,11.33 3.252,7.534 41.615,-12.037 103.27,-9.688 149.58,-5.196 5.188,0.504 6.047,-1.297 1.193,-2.16 -70.952,-12.605 -104.41,-11.227 -154.02,-0.178 z"
       stroke="#000000"
       fill="#ffffff"
       id="path172" />
  </g>
  <path
     stroke-linejoin="round"
     d="m 50.721892,84.195946 c 12.276458,-5.512538 20.152015,-5.57293 32.424961,0 0,0 0.224715,15.279211 0,16.800954 -1.797719,12.18377 -9.501228,16.54253 -16.291833,21.06422 -6.816587,-4.51537 -14.330493,-8.87624 -16.133128,-20.97574 -0.236653,-1.587053 0,-16.888732 0,-16.888732 z"
     fill-rule="evenodd"
     stroke="#000000"
     stroke-linecap="round"
     stroke-width="0.608135"
     fill="#f6c110"
     id="path176" />
  <path
     d="m 64.626129,115.2347 v 2.2949 h 0.964168 c 0.115166,0 0.224714,-0.0112 0.326538,-0.0351 0.105336,-0.0239 0.196626,-0.0618 0.275276,-0.11376 0.08076,-0.0492 0.14466,-0.11938 0.191008,-0.20365 0.04775,-0.0843 0.07022,-0.1896 0.07022,-0.30196 0,-0.0773 -0.01194,-0.14747 -0.03792,-0.21067 -0.02458,-0.0632 -0.0632,-0.11938 -0.112358,-0.16854 -0.04916,-0.0492 -0.110953,-0.0913 -0.182581,-0.11938 -0.04213,-0.014 -0.08848,-0.0281 -0.137638,-0.0421 0.0323,-0.014 0.0618,-0.0281 0.08989,-0.0421 0.05618,-0.0351 0.102527,-0.0702 0.140447,-0.11938 0.03722,-0.0421 0.06531,-0.0983 0.08427,-0.1545 0.01826,-0.0562 0.02809,-0.11938 0.02809,-0.18258 0,-0.0983 -0.01966,-0.18258 -0.05758,-0.2528 -0.03862,-0.0702 -0.0941,-0.13343 -0.16643,-0.17556 -0.07022,-0.0492 -0.154492,-0.0772 -0.259827,-0.0983 -0.09831,-0.0211 -0.21067,-0.0281 -0.344094,-0.0281 h -0.870771 z m 0.410807,0.31249 h 0.442408 c 0.147469,0 0.259826,0.0281 0.33005,0.0759 0.0632,0.0491 0.09831,0.12078 0.09831,0.22682 0,0.0562 -0.007,0.0983 -0.02809,0.14044 -0.01404,0.0421 -0.04213,0.0772 -0.07725,0.10534 -0.03511,0.0281 -0.07725,0.0492 -0.133424,0.0702 -0.05618,0.0211 -0.11938,0.0281 -0.203648,0.0281 h -0.44943 v -0.63201 z m 0,0.93819 h 0.484542 c 0.07724,0 0.147469,0.007 0.21067,0.0211 0.0632,0.014 0.11938,0.0351 0.161514,0.0632 0.04213,0.0351 0.07725,0.0702 0.105335,0.11236 0.02107,0.0421 0.03511,0.0983 0.03511,0.16151 0,0.0702 -0.01405,0.13342 -0.04214,0.17556 -0.02809,0.0491 -0.0632,0.0843 -0.105335,0.11938 -0.04916,0.0281 -0.09831,0.0491 -0.161514,0.0632 -0.0632,0.014 -0.126402,0.0211 -0.196625,0.0211 h -0.512631 v -0.73033 z m 4.237983,0.75139 c -0.121486,0.10534 -0.237355,0.18258 -0.34901,0.23174 -0.148874,0.0632 -0.319517,0.0983 -0.510524,0.0983 -0.351117,0 -0.639033,-0.11236 -0.863748,-0.33005 -0.224715,-0.21769 -0.337073,-0.50561 -0.337073,-0.85673 0,-0.22471 0.05618,-0.42836 0.154492,-0.60392 0.105335,-0.17556 0.252804,-0.316 0.442407,-0.42134 0.196626,-0.10533 0.400274,-0.16151 0.617966,-0.16151 0.189604,0 0.372184,0.0421 0.540721,0.11938 0.105335,0.0491 0.196625,0.10533 0.287916,0.17556 l -0.337073,0.28089 c -0.154491,-0.10533 -0.316005,-0.15449 -0.491564,-0.15449 -0.217692,0 -0.400273,0.0772 -0.547742,0.22471 -0.147469,0.14747 -0.217693,0.33005 -0.217693,0.54775 0,0.15449 0.03511,0.28791 0.09831,0.40729 0.07022,0.11938 0.161514,0.21067 0.280894,0.2809 0.119379,0.0702 0.252804,0.10533 0.400273,0.10533 0.126402,0 0.245782,-0.0211 0.344095,-0.0702 0.05618,-0.0211 0.112357,-0.0562 0.175558,-0.10534 z"
     id="path178"
     style="stroke-width:0.702234" />
  <path
     d="m 67.161194,117.29225 a 0.27387133,0.27387133 0 0 1 -0.273871,0.27387 0.27387133,0.27387133 0 0 1 -0.272467,-0.27387 0.27387133,0.27387133 0 0 1 0.273872,-0.27247 0.27387133,0.27387133 0 0 1 0.272466,0.27247 z m 2.848262,0 a 0.27387133,0.27387133 0 0 1 -0.273871,0.27387 0.27387133,0.27387133 0 0 1 -0.272467,-0.27387 0.27387133,0.27387133 0 0 1 0.273871,-0.27247 0.27387133,0.27387133 0 0 1 0.272467,0.27247 z"
     fill-rule="evenodd"
     id="path180"
     style="stroke-width:0.702234" />
  <path
     d="m 62.596672,91.183176 c -0.02317,0 -0.04354,0.01404 -0.0955,0.03932 -0.151682,0.07303 -0.0309,0.610944 -0.0309,0.610944 -1.587049,0.227524 -1.36725,1.450117 -1.303347,1.959237 -0.419936,0.25983 -0.894646,0.73594 -0.916415,1.30756 -0.007,0.26966 0.969083,-0.55195 1.3202,-0.0527 0.905882,1.26894 2.647423,0.20155 2.5772,1.81598 -0.624989,1.33425 -1.762608,0.27387 -2.261195,-0.44241 -1.615138,-2.26821 -3.110897,0.0632 -3.827176,2.02244 -0.674145,1.53789 -1.123575,3.110903 -1.123575,3.110903 0,0 -3.110897,-3.925493 -3.63055,-4.297683 -0.126403,-0.0702 -0.217693,0 -0.175559,0.11938 0.147469,0.61095 3.335612,5.386143 3.335612,5.386143 -0.42134,1.30615 -0.639033,1.83283 -1.242954,3.98167 -0.674145,2.05754 0.133424,1.03228 1.067396,-0.33708 0.442407,-0.99015 0.561787,-0.42134 0.252804,0.54072 -0.54072,1.52385 0.379207,0.39326 0.955039,-0.63201 0.344094,-0.65307 -0.294939,1.43256 0.877792,-0.33707 0.582855,-0.75841 0.793525,-0.60392 0.540721,0.22472 -0.0632,0.56178 -0.09129,1.03228 0.196625,1.23593 0.674145,0.48454 1.088463,0.35814 1.390424,0.82863 0.575832,0.61095 1.397446,0.23876 1.186776,-0.94801 0.561787,0.0702 1.509803,0.014 2.33844,-0.3441 -0.245782,1.46065 -1.179754,2.95641 -2.169904,4.02381 -0.737346,0.82863 0.105335,0.80757 0.793525,0.18258 0.835658,-0.7233 0.519653,0.1264 -0.05618,0.63201 -0.470497,0.66712 0.316005,0.50561 0.716279,0.16853 0.56881,-0.47049 0.678358,-0.33005 0.522462,0.014 -0.571619,0.75139 -0.04916,0.76543 0.432576,0.24578 0.308983,-0.33005 0.405189,-0.0632 0.35814,0.11938 -0.231738,1.257 0.940994,-0.30898 0.87077,0.14747 -0.287916,0.82864 0.201541,0.68117 0.442408,0.38623 0.308983,-0.37921 0.456452,-0.18258 0.758413,0.28089 0.112357,0.26685 0.280893,0.25281 0.526675,-0.20365 0.210671,-0.35814 0.210671,-0.47049 0.646056,-0.014 0.547742,0.4705 0.519653,-0.13343 0.393251,-0.33005 -0.140447,-0.21067 0.08427,-0.42134 0.646055,0.21769 0.224715,0.22472 0.351117,-0.1264 0.203648,-0.44943 -0.112357,-0.30898 0.105335,-0.44943 0.68819,0.14747 0.379206,0.33707 0.561787,-0.014 0.245782,-0.36516 -0.266849,-0.30196 -0.287916,-0.70223 0.126402,-0.33707 0.933971,0.82863 1.657273,0.58285 0.730323,-0.26685 -0.688189,-0.69521 -0.21067,-0.77246 0.203648,-0.36516 0.933972,0.92695 1.397446,0.41431 0.793525,-0.16854 -1.193798,-1.27104 -1.952211,-2.96343 -2.064569,-3.94656 0.617967,0.19663 1.116553,0.22472 1.699407,0.25281 1.397446,1.24998 3.20921,0.22471 3.167076,-1.04633 -0.07724,-1.01122 0.224715,-0.99717 0.793525,-0.1896 1.249977,1.79772 0.07725,-1.43958 1.271044,1.00419 0.912904,1.32722 0.54072,0.28089 0.435385,-0.37921 -0.379206,-1.94518 0.351117,0.0492 0.835659,0.55477 1.516826,1.68536 0.407296,-0.49859 0.273871,-1.41851 -0.07022,-0.73033 -1.818786,-6.025173 -3.202188,-8.637483 -0.87077,-1.94519 -2.394618,-2.1348 -3.096853,-0.92695 -1.853898,3.04067 -3.447969,-0.3441 -1.453624,-0.4705 1.060373,-0.0702 1.313178,-0.39325 1.832831,-0.82864 0.217692,-0.18258 1.123575,0.23876 1.123575,0.23876 0.105335,-1.16571 -1.074419,-1.17273 -0.92695,-1.64322 0.414319,-1.095495 -0.610943,-1.685372 -1.278066,-1.741551 0.03511,-0.175558 0.09831,-0.435385 0.07725,-0.54072 -0.02107,-0.08427 -0.33005,-0.07725 -0.33005,-0.07725 -0.07022,0.09831 0.007,0.624989 0.007,0.624989 -1.137619,0.04916 -1.460647,0.842681 -1.509803,1.537892 -0.800547,0.28792 -0.877793,0.87077 -1.544915,1.07442 l 0.04916,-0.65308 c 0,-0.0421 0.02107,-0.0632 0.04916,-0.0913 l 0.646056,-0.75139 c 0.04213,-0.0492 0.04213,-0.0562 0.04213,-0.14747 l -0.02809,-1.285088 c 0,-0.09129 0,-0.09129 -0.07725,-0.02809 l -1.067396,0.863748 c -0.0632,0.03511 -0.07725,0.05618 -0.07725,0.11938 l 0.04916,0.99015 c 0,0.0351 -0.007,0.0562 -0.02107,0.0843 l -0.765435,1.39744 -0.632011,-1.27806 c -0.02247,-0.0281 -0.02247,-0.0562 -0.02247,-0.0913 l 0.007,-1.144644 c -0.007,-0.0632 -0.01404,-0.09129 -0.07725,-0.140447 L 64.99616,91.47035 c -0.07725,-0.07022 -0.07725,-0.07022 -0.07725,0.03511 l -0.04213,1.341267 c 0,0.0772 0,0.0913 0.04916,0.15449 l 0.695212,0.77246 c 0.02809,0.0211 0.02809,0.0421 0.02809,0.0773 l 0.02809,0.5969 c -0.730324,-0.16854 -0.933972,-0.72331 -1.565983,-0.98313 0.07725,-1.15869 -0.730323,-1.60812 -1.460647,-1.60812 0,0 0.09129,-0.547743 -0.03511,-0.610944 -0.0632,-0.02809 -0.08778,-0.04213 -0.11025,-0.04213 z m 8.054626,1.910081 c -0.220501,0.033 -0.320921,0.059 -0.465581,0.11235 -0.02809,-0.4108 0.337072,-0.819503 0.592686,-0.846188 -0.161514,0.272466 -0.154492,0.519648 -0.126402,0.733838 z m -8.627649,-0.619374 c -0.102526,0.308984 -0.103931,0.426954 -0.04213,0.788604 -0.122891,0.0632 -0.230333,0.0983 -0.344095,0.16152 -0.0948,-0.0632 -0.07724,-0.57583 0.09831,-0.800548 0.06531,-0.08427 0.153087,-0.154492 0.287916,-0.14747 z m 1.589858,0.725404 c -0.09691,-0.0211 -0.381313,-0.0351 -0.394655,-0.0562 0.02809,-0.20364 -0.04775,-0.477514 -0.134829,-0.737341 0.370077,0.007 0.610943,0.632011 0.529484,0.793521 z m 8.649419,0.10534 c -0.114464,-0.0351 -0.193115,-0.0983 -0.323028,-0.10534 0.02809,-0.21769 0.02317,-0.32302 -0.112357,-0.744365 0.505608,0.09129 0.554765,0.639035 0.435385,0.856725 z m -6.89594,5.27378 c 0.0302,0 0.05618,0.0211 0.06601,0.0491 l 0.203648,0.63904 0.667122,0.014 c 0.0632,0 0.08427,0.0843 0.03511,0.11938 l -0.54072,0.39325 0.196625,0.639043 c 0.01404,0.0632 -0.04916,0.11235 -0.105335,0.0772 l -0.547742,-0.39325 -0.547743,0.38623 c -0.05618,0.0351 -0.11938,-0.014 -0.105335,-0.0702 l 0.203648,-0.639043 -0.533698,-0.40027 c -0.04916,-0.0351 -0.02809,-0.11938 0.03511,-0.11938 h 0.667123 l 0.21067,-0.62499 v 0.0141 c 0,-0.0351 0.02809,-0.0632 0.0632,-0.0632 z m 3.224659,0 c 0.02949,0 0.05618,0.0211 0.06601,0.0491 l 0.210671,0.63904 0.674145,0.014 c 0.0632,0 0.09129,0.0843 0.04213,0.11938 l -0.540721,0.39325 0.196626,0.639043 c 0.02107,0.0632 -0.04916,0.11235 -0.09831,0.0772 l -0.54072,-0.39325 -0.547743,0.38623 c -0.04916,0.0351 -0.11938,-0.014 -0.09831,-0.0702 l 0.210671,-0.639043 -0.533698,-0.40027 c -0.04916,-0.0351 -0.02107,-0.11938 0.04213,-0.11938 h 0.674144 l 0.217693,-0.62499 v 0.0141 c 0,-0.0351 0.02809,-0.0632 0.0632,-0.0632 z m -5.933878,3.209213 c 0.823018,0.0632 1.318795,0.37218 1.45854,1.5098 0.07725,0.88482 -0.598304,0.82864 -0.667123,1.36936 -0.537209,0.11938 -0.760519,0.33005 -1.240145,0.70925 -0.663611,0.58988 -0.60041,0.11938 -0.773862,-0.44943 -0.172048,-0.53369 -0.698021,-0.9129 -1.302645,-0.77948 -0.470496,0.11236 -0.926949,-0.56178 -0.456452,-0.68116 0.56881,-0.0843 0.386229,0.3792 0.962061,-0.2809 0.287916,-0.46347 0.554765,-0.69521 1.004195,-0.47752 0.386229,0.18259 0.526676,-0.93397 1.018239,-0.93397 z m 8.395209,0.0351 c 0.266849,0 0.503502,0.11938 0.630607,0.36516 0.535804,1.02526 0.840574,0.0351 1.186775,0.52668 0.919927,1.1938 0.959252,0.64605 1.297027,0.62499 0.523164,0 0.242271,1.3834 -0.341988,1.08144 -0.394656,-0.21067 -0.85813,-0.30196 -1.383401,-0.17556 l -0.02107,-0.014 -0.121486,-0.28791 0.007,-0.0281 0.442408,-0.17556 0.01053,-0.014 -0.06671,-0.16853 -0.01966,-0.007 -0.44943,0.16853 -0.02809,-0.014 -0.182581,-0.45646 -0.02107,-0.014 -0.175558,0.0702 -0.007,0.0211 0.18258,0.45645 -0.007,0.0281 -0.428363,0.17556 -0.01404,0.014 0.07724,0.15449 h 0.01405 l 0.414318,-0.16854 0.02107,0.007 0.105335,0.28792 -0.007,0.014 c -0.421341,0.16854 -0.751391,0.57584 -0.800547,0.77948 -0.04916,0.19663 -0.428363,-0.25982 -0.589877,-0.28791 -1.207843,-0.18961 0.05618,-0.28792 -0.962061,-0.87077 -0.344094,-1.3834 0.519654,-2.14182 1.200821,-2.14182 z M 66.930862,89.32998 c -1.523849,-0.161514 -2.85388,-1.3202 -2.858094,-2.66849 0,-1.397446 1.22891,-2.31035 2.38549,-2.626355 1.278066,-0.301961 3.174099,0.02107 3.44797,1.123574 0.11938,0.624989 -0.646056,0.891838 -0.962061,0.589877 -0.231737,-0.259827 -0.07725,-0.456452 -0.280894,-0.800547 -1.025262,-1.313178 -3.433925,-0.414318 -3.363701,1.460647 0,0 2.436752,-0.007 4.395986,-0.007 0.30196,0.007 0.05618,0.603921 -0.351117,0.624988 -0.133425,-0.04916 -0.196626,-0.133424 -0.294939,-0.231737 l -3.74993,0.01404 c 0.463474,2.485909 3.047696,2.513998 3.686729,1.271043 0.484542,-0.912904 1.137619,-0.653077 0.997173,0.08427 -0.400274,0.940993 -2.015413,1.256999 -3.075786,1.137619 z m 10.789126,-5.407203 c -0.245782,0 -0.460666,0.161514 -0.877793,0.477519 -0.557574,0.421341 -2.598267,1.959234 -2.949384,2.21906 v -1.896032 c -0.007,-0.526676 -0.03792,-0.519653 -0.08989,-0.582854 -0.192412,-0.203648 -0.77948,-0.196626 -0.981723,-0.01404 -0.08427,0.07022 -0.120784,0.154492 -0.136233,0.526676 v 4.143181 c 0.01404,0.912905 1.207842,0.287916 1.207842,-0.217692 v -1.608117 c 0.519654,0.35814 1.813169,1.264022 2.296306,1.671318 0.908691,0.6601 1.074418,0.646055 1.615139,0.646055 0.54072,0 1.182562,0.03511 0.55336,-0.484541 -0.629202,-0.519654 -2.349675,-1.720474 -3.445863,-2.450798 0.508418,-0.435385 1.648846,-1.249976 2.331418,-1.74154 0.101121,-0.05618 0.189603,-0.04213 0.366566,0.04916 0.189603,0.09831 0.316005,0.09831 0.484541,0.01404 0.23876,-0.126402 0.259827,-0.505609 -0.007,-0.695212 -0.147469,-0.0632 -0.266849,-0.09129 -0.372184,-0.09129 z m -20.960286,0.140447 c -0.287916,0.323028 0.196625,1.214865 0.570916,1.945189 0,0 -1.881988,2.471864 -2.036479,2.914272 -0.0632,0.21067 0.03511,0.54072 1.221887,-0.04916 l 2.436753,-1.095485 c 0.877793,0.639033 2.015412,1.137619 2.87916,1.432558 0.814592,0.189603 0.940994,-0.04916 0.56881,-0.210671 -1.327223,-0.744368 -2.710624,-1.762608 -3.53926,-2.935339 -0.653078,-0.940993 -0.912905,-1.846876 -1.235933,-2.057546 -0.133424,-0.09129 -0.723301,-0.09831 -0.842681,0.04916 z m 1.525954,3.103875 c -0.484541,0.21067 -0.919926,0.519653 -1.383401,0.744368 -0.926949,0.56881 -0.526676,0.175559 0.09831,-0.639033 0.245782,-0.407296 0.54072,-0.800547 0.54072,-0.800547 0.11938,-0.203648 0.294939,0.379207 0.751391,0.681167 z"
     id="path182"
     style="stroke-width:0.702234" />
  <path
     d="m 64.023612,88.697267 a 0.49367064,0.49367064 0 0 1 -0.493671,0.493671 0.49367064,0.49367064 0 0 1 -0.498586,-0.493671 0.49367064,0.49367064 0 0 1 0.491564,-0.49367 0.49367064,0.49367064 0 0 1 0.491564,0.49367 z m 7.912775,0 a 0.49367064,0.49367064 0 0 1 -0.492969,0.493671 0.49367064,0.49367064 0 0 1 -0.49367,-0.493671 0.49367064,0.49367064 0 0 1 0.49367,-0.49367 0.49367064,0.49367064 0 0 1 0.493671,0.49367 z"
     fill-rule="evenodd"
     id="path184"
     style="stroke-width:0.702234" />
  <switch
     id="switch196"
     transform="matrix(0.70223419,0,0,0.70223419,-5.8641383,-5.1001538)">
    <g
       systemLanguage="aks"
       id="g188">
      <!--AMERIKANOS-->
      <path
         d="m 213.49,455.57 h -17.666 v -66.62 q -9.668,9.052 -22.852,13.358 v -15.996 q 6.943,-2.285 15.03,-8.613 8.085,-6.33 11.16,-14.77 h 14.327 v 92.63 z m 38.64,-92.63 q 13.447,0 21.006,9.58 8.965,11.338 8.965,37.53 0,26.192 -9.05,37.616 -7.47,9.492 -20.92,9.492 -13.45,0 -21.71,-10.37 -8.17,-10.372 -8.17,-36.915 0,-26.016 9.06,-37.53 7.47,-9.403 20.83,-9.403 z m 0,14.678 q -3.164,0 -5.713,2.022 -2.46,2.02 -3.867,7.382 -1.846,6.856 -1.846,23.027 0,16.26 1.582,22.32 1.67,6.06 4.13,8.08 2.55,2.02 5.714,2.02 3.252,0 5.713,-2.02 2.55,-2.02 3.955,-7.39 1.846,-6.77 1.846,-23.03 0,-16.18 -1.67,-22.24 -1.67,-6.16 -4.13,-8.18 -2.462,-2.03 -5.714,-2.03 z"
         id="path186" />
    </g>
    <g
       systemLanguage="tzs"
       id="g192">
      <!--TRONTZOS-->
      <path
         d="m 256.96,385.95 -17.14,1.934 q -0.614,-5.274 -3.25,-7.823 -2.638,-2.54 -6.857,-2.54 -5.625,0 -9.492,5.1 -3.86,5.01 -4.83,20.92 6.59,-7.82 16.44,-7.82 11.08,0 18.9,8.44 7.91,8.44 7.91,21.8 0,14.15 -8.35,22.77 -8.26,8.53 -21.27,8.53 -13.97,0 -23.02,-10.81 -8.96,-10.9 -8.96,-35.68 0,-25.31 9.41,-36.47 9.41,-11.25 24.35,-11.25 10.55,0 17.4,5.89 6.86,5.89 8.79,17.05 z m -40.078,38.584 q 0,8.613 3.955,13.36 3.955,4.657 9.053,4.657 4.922,0 8.174,-3.77 3.252,-3.86 3.252,-12.65 0,-8.96 -3.516,-13.09 -3.515,-4.22 -8.79,-4.22 -5.097,0 -8.612,4.05 -3.516,3.96 -3.516,11.69 z"
         id="path190" />
    </g>
    <!--MILOSEVIC-->
    <path
       d="m 214.24,405.76 q -6.79,-2.873 -9.926,-7.923 -3.046,-5.05 -3.046,-10.97 0,-10.274 7.14,-16.892 7.138,-6.704 20.286,-6.704 13.06,0 20.2,6.71 7.225,6.62 7.225,16.89 0,6.36 -3.31,11.32 -3.31,4.96 -9.32,7.58 7.66,3.05 11.58,8.88 4,5.83 4,13.5 0,12.71 -8.1,20.64 -8.1,7.93 -21.51,7.92 -12.46,0 -20.73,-6.61 -9.84,-7.66 -9.84,-21.16 0,-7.4 3.65,-13.58 3.74,-6.26 11.66,-9.57 z m 3.57,-17.675 q 0,5.224 2.96,8.184 2.96,2.87 7.924,2.87 4.963,0 7.923,-2.96 3.047,-2.97 3.047,-8.19 0,-4.88 -2.96,-7.84 -2.958,-2.96 -7.836,-2.96 -5.048,0 -8.094,2.95 -2.957,2.96 -2.957,7.92 z m -1.567,39.18 q 0,7.228 3.657,11.32 3.743,4.005 9.317,4.005 5.397,0 8.967,-3.918 3.57,-3.918 3.57,-11.232 0,-6.443 -3.657,-10.274 -3.57,-3.918 -9.143,-3.918 -6.443,0 -9.577,4.44 -3.13,4.354 -3.13,9.578 z"
       id="path194" />
  </switch>
  <path
     d="m 91.886868,185.09998 -9.60938,0.36938 -5.912812,3.32648 1.4775,2.40164 17.555862,2.95641 z m 79.647402,-1.48171 9.79406,5.17406 3.1418,-0.73875 v -2.03297 l -12.00821,-9.97875 m 21.43921,0.1896 -5.91281,-3.13898 -3.69375,0.74437 0.74437,2.40164 7.20492,3.88335 z"
     fill-rule="evenodd"
     id="path198"
     style="stroke-width:0.702234" />
</svg>
