<?xml version="1.0" encoding="UTF-8" standalone="no"?>
<svg
   xmlns:dc="http://purl.org/dc/elements/1.1/"
   xmlns:cc="http://creativecommons.org/ns#"
   xmlns:rdf="http://www.w3.org/1999/02/22-rdf-syntax-ns#"
   xmlns:svg="http://www.w3.org/2000/svg"
   xmlns="http://www.w3.org/2000/svg"
   xmlns:sodipodi="http://sodipodi.sourceforge.net/DTD/sodipodi-0.dtd"
   xmlns:inkscape="http://www.inkscape.org/namespaces/inkscape"
   width="123.73513mm"
   height="56.550751mm"
   viewBox="0 0 467.63811 115.52122"
   version="1.1"
   id="svg76"
   sodipodi:docname="kite.svg"
   inkscape:version="1.0.2-2 (e86c870879, 2021-01-15)">
  <metadata
     id="metadata80">
    <rdf:RDF>
      <cc:Work
         rdf:about="">
        <dc:format>image/svg+xml</dc:format>
        <dc:type
           rdf:resource="http://purl.org/dc/dcmitype/StillImage" />
        <dc:title />
      </cc:Work>
    </rdf:RDF>
  </metadata>
  <sodipodi:namedview
     pagecolor="#ffffff"
     bordercolor="#666666"
     borderopacity="1"
     objecttolerance="10"
     gridtolerance="10"
     guidetolerance="10"
     inkscape:pageopacity="0"
     inkscape:pageshadow="2"
     inkscape:window-width="1920"
     inkscape:window-height="1017"
     id="namedview78"
     showgrid="false"
     units="mm"
     inkscape:zoom="1.6553067"
     inkscape:cx="230.55727"
     inkscape:cy="104.21436"
     inkscape:window-x="-8"
     inkscape:window-y="-8"
     inkscape:window-maximized="1"
     inkscape:current-layer="svg76"
     inkscape:document-rotation="0" />
  <defs
     id="defs8">
    <filter
       id="b">
      <feGaussianBlur
         stdDeviation=".53919"
         id="feGaussianBlur2" />
    </filter>
    <filter
       id="a">
      <feGaussianBlur
         stdDeviation=".64636"
         id="feGaussianBlur5" />
    </filter>
  </defs>
  <g
     transform="matrix(0.50592152,0,0,0.50592152,47.287546,-184.46977)"
     stroke="#000000"
     id="g74">
    <path
       d="m 78.156,502.29 c 1.7968,2.1562 330.52,-225.82 334.7,-221.94 12.664,11.775 248.19,307.4 248.19,306.66 l -174.21,-115.74 -59.064,-5.9661 -33.41,20.881 -20.881,48.922 -4.7728,-55.484 -29.234,-29.234 -60.257,-9.5457 -180.18,51.905 -20.881,9.5457 z"
       id="path10" />
    <path
       d="m 356.3,317.68 c 0,0 -1.051,10.51 2.1021,23.123 3.1531,12.613 13.664,67.792 15.766,79.354 2.102,11.562 4.2042,32.582 6.3063,38.363 2.1021,5.781 3.1531,11.561 3.1531,11.561 0,0 12.613,-20.495 13.138,-25.751 0.525,-5.256 10.51,-24.7 13.138,-30.48 2.628,-5.78 14.189,-29.955 16.817,-35.21 2.628,-5.255 21.021,-35.735 22.072,-37.838 1.051,-2.103 5.2552,-6.8318 2.1021,-9.9849 -3.1531,-3.1531 -31.531,-39.94 -34.684,-40.465 -3.153,-0.525 -12.613,-3.1531 -15.24,-1.051 -2.627,2.1021 -42.567,28.378 -44.669,28.378 z"
       fill="#fdeb04"
       id="path12" />
    <path
       d="m 340.01,329.77 c 0,0 5.2552,31.531 9.4594,45.195 4.2042,13.664 13.664,79.354 13.664,79.354 0,0 -48.874,-59.384 -55.18,-65.69 -6.306,-6.306 -21.021,-19.97 -21.021,-19.97 0,0 30.48,-22.597 35.21,-26.276 4.73,-3.679 16.817,-12.613 17.868,-12.613 z"
       fill="#f2a438"
       id="path14" />
    <path
       d="m 465.09,350.26 c 0,0 31.006,38.889 34.684,43.093 3.678,4.204 6.3063,7.8828 6.3063,7.8828 0,0 -63.588,32.057 -73.048,38.889 -9.46,6.832 -24.174,17.868 -24.174,17.868 0,0 28.378,-66.741 39.414,-80.93 11.036,-14.189 16.291,-26.802 16.817,-26.802 z"
       fill="#6bb427"
       id="path16" />
    <path
       d="m 272.75,378.12 56.231,56.231 c 0,0 -54.129,-9.9849 -61.486,-11.561 -7.357,-1.5761 -31.006,-2.6276 -37.838,-2.6276 -6.832,0 -24.7,1.051 -24.7,1.051 0,0 47.822,-33.108 54.129,-36.261 6.307,-3.153 13.138,-6.8318 13.664,-6.8318 z"
       fill="#d44117"
       id="path18" />
    <path
       d="m 517.64,414.9 c 0,0 -45.72,20.495 -54.654,27.853 -8.934,7.358 -13.664,8.9339 -13.664,8.9339 0,0 52.552,4.7297 65.69,8.9339 13.138,4.2042 52.552,12.613 52.552,12.613 0,0 -38.889,-44.144 -42.567,-48.874 -3.678,-4.73 -9.9849,-9.4594 -9.9849,-9.4594 h 2.6276 z"
       fill="#5775b1"
       id="path20" />
    <path
       d="m 525.52,481.12 93.543,62.537 17.342,24.174 20.495,16.291 c 0,0 -65.165,-78.303 -67.267,-85.135 -2.102,-6.832 -17.342,-16.291 -17.342,-16.291 l 4.2042,8.4084 -50.976,-9.9849 z"
       fill="#392108"
       id="path22" />
    <path
       d="m 186.56,432.25 -64.114,40.991 -24.7,17.342 17.868,-6.8318 19.444,-14.715 105.1,-32.057 -53.603,-4.7297 z"
       fill="#3b220d"
       id="path24" />
    <path
       d="m 286.71,370.24 -13.128,8.4019 c 0,0 27.801,18.528 58.288,58.813 15.378,20.319 37.283,42.009 37.283,42.009 l -6.8265,-25.731 c 0,0 -39.384,-48.836 -48.311,-58.813 -8.927,-9.977 -25.731,-24.68 -27.306,-24.68 z"
       fill="#765682"
       id="path26" />
    <path
       transform="matrix(1.0002,0,0,0.98487,-0.08828,4.315)"
       d="m 411.49,287.84 c 0,0 -19.297,107.27 -23.838,136.22 -4.541,28.95 -4.5406,47.109 -4.5406,47.109 l 3.4054,-1.7027 c 0,0 2.2703,-40.865 6.8109,-66.406 4.5406,-25.541 14.757,-85.136 15.892,-90.244 1.135,-5.108 5.1082,-26.108 5.1082,-26.108 l -2.8379,1.1351 z"
       fill="#550000"
       filter="url(#b)"
       id="path28" />
    <path
       d="m 410.64,458.46 -13.653,26.256 c 0,0 61.439,-42.009 68.79,-45.685 7.351,-3.676 49.886,-24.155 49.886,-24.155 l -9.4521,-13.128 c 0,0 -48.311,26.256 -57.238,31.507 -8.927,5.251 -21.005,11.027 -25.731,15.754 -4.726,4.727 -12.078,10.502 -12.603,9.4521 z"
       fill="#765682"
       id="path30" />
    <path
       d="m 327.15,434.3 12.603,15.228 c 0,0 -65.64,-11.027 -76.667,-12.078 -11.027,-1.051 -39.384,-3.1507 -47.26,-3.1507 -7.876,0 -26.256,-3.1507 -26.256,-3.1507 l 15.753,-9.4521 c 0,0 34.133,-3.6758 46.735,-0.52512 12.602,3.15068 46.735,8.4019 58.288,10.502 11.553,2.1001 17.854,3.1507 16.804,2.6256 z"
       fill="#765682"
       id="path32" />
    <path
       d="m 108.7,490.49 27.831,-19.954 -23.63,16.804 c 0,0 57.763,-16.279 66.69,-19.954 8.927,-3.675 57.238,-16.279 57.238,-16.279 l 39.909,-11.027 c 0,0 -19.429,-1.5754 -26.256,-1.5754 h -12.603 c 0,0 -51.987,16.804 -61.439,19.954 -9.452,3.15 -39.384,11.027 -67.74,32.032 z"
       fill="#765682"
       id="path34" />
    <path
       d="m 448.97,453.2 -17.329,10.502 c 0,0 38.334,4.726 49.886,5.7763 11.552,1.0503 38.334,8.4019 51.987,11.027 13.653,2.6251 37.808,7.3516 37.808,7.3516 l -3.1507,-12.078 c 0,0 -28.356,-6.3014 -38.859,-9.9772 -10.503,-3.6758 -37.283,-8.4019 -49.361,-9.9772 -12.078,-1.5753 -29.932,-3.1507 -30.982,-2.6256 z"
       fill="#765682"
       id="path36" />
    <path
       d="m 492.03,473.16 29.932,6.8265 c 0,0 66.165,45.16 70.891,47.786 4.726,2.626 25.731,17.329 25.731,17.329 l 15.228,23.105 c 0,0 -51.987,-33.607 -58.288,-38.859 -6.301,-5.252 -32.032,-24.155 -40.434,-28.356 -8.402,-4.201 -25.731,-16.279 -28.356,-17.854 -2.625,-1.575 -13.128,-9.4521 -14.703,-9.9772 z"
       fill="#765682"
       id="path38" />
    <path
       d="m 388.8,434.41 c 0,0 -5.0432,5.0432 -5.0432,6.4617 0,1.4185 -0.1576,4.5704 1.1032,6.4616 1.2608,1.8912 1.576,5.8312 3.152,3.3096 1.576,-2.5216 4.8856,-5.6736 4.8856,-8.0377 0,-2.3641 -1.576,-6.9345 -1.576,-6.9345 L 388.8,434.4099 Z"
       fill="#ffffff"
       id="path40" />
    <path
       d="m 388.95,432.03 c -0.52279,-0.0112 -1.6244,1.4843 -3.6875,3.9062 -2.3579,2.7679 -1.9699,3.282 -2.6875,6.5625 -0.7176,3.2805 2.0648,7.0533 3.5,9.7188 1.4352,2.6655 2.577,-1.8304 6.0625,-7.4688 3.4855,-5.6384 -3,-12.625 -3,-12.625 -0.0513,-0.0641 -0.11282,-0.0922 -0.1875,-0.0937 z m -0.84375,4.2812 c 1.2164,-0.23089 0.125,6.6875 0.125,6.6875 -0.10252,0.10252 1.1273,-3.6997 2.5625,-5.75 1.4352,-2.0503 1.0175,4.4222 0.8125,6.0625 -0.205,1.6403 -2.6635,4.2024 -4.4062,5.125 -1.7427,0.9226 -2.6574,-3.6997 -3.375,-5.75 -0.7176,-2.0503 2.3598,-4.9173 4,-6.25 0.10252,-0.0833 0.20016,-0.10961 0.28125,-0.125 z"
       id="path42" />
    <path
       d="m 351.26,323.09 107.87,21.397"
       fill="none"
       filter="url(#a)"
       id="path44" />
    <path
       d="m 195.24,427.4 c 128.51,7.149 255.14,24.674 378.9,57.949"
       fill="none"
       id="path46" />
    <g
       transform="matrix(0.92197,0.38725,-0.38725,0.92197,198.61,8.891)"
       id="g52">
      <path
         d="m 79.346,503.18 c 0,0 -26.746,31.203 -57.949,32.987 -31.203,1.784 -96.285,38.336 -96.285,38.336 l 7.1322,12.481 c 0,0 32.095,-24.963 55.275,-32.095 23.18,-7.132 51.709,-8.9153 64.19,-17.831 12.481,-8.9157 29.42,-32.095 27.637,-33.878 z"
         fill="#fdeb04"
         id="path48" />
      <path
         d="m 81.031,499.82 c 0,0 -17.758,37.063 -47.437,46.861 -29.679,9.798 -83.082,61.95 -83.082,61.95 l 10.12,10.21 c 0,0 24.541,-32.419 45.084,-45.308 20.543,-12.889 47.639,-21.995 57.388,-33.837 9.749,-11.842 20.111,-38.616 17.927,-39.877 z"
         fill="#d44117"
         id="path50" />
    </g>
    <path
       d="m 373.39,536.83 c 0,0 -12.054,39.29 -39.947,53.39 -27.893,14.1 -72.954,73.608 -72.954,73.608 l 11.524,8.5931 c 0,0 19.451,-35.706 37.851,-51.504 18.4,-15.798 43.842,-28.829 51.723,-41.988 7.881,-13.159 14.15,-41.176 11.803,-42.098 z"
       fill="#fdeb04"
       id="path54" />
    <path
       d="m 373.59,533.08 c 0,0 -1.4743,41.071 -24.768,61.909 -23.2937,20.838 -51.417,89.981 -51.417,89.981 l 13.356,5.3175 c 0,0 9.5467,-39.523 23.232,-59.546 13.6853,-20.023 34.887,-39.194 39.093,-53.945 4.206,-14.751 3.0106,-43.435 0.50492,-43.718 z"
       fill="#5775b1"
       id="path56" />
    <path
       d="M 204.25,419.44 305.11,403.049"
       fill="none"
       id="path58" />
    <path
       d="m 344.2,327.4 -39.085,76.909"
       fill="none"
       id="path60" />
    <path
       d="M 474.06,690.51 305.11,404.31"
       fill="none"
       id="path62" />
    <path
       d="m 465.24,352.61 25.216,75.649 79.431,44.128 v -1.2608"
       fill="none"
       id="path64" />
    <path
       d="M 387.07,443.39 489.2,430.782 616.54,670.332"
       fill="none"
       id="path66" />
    <g
       transform="matrix(-0.96593,0.25882,0.25882,0.96593,609.22,82.527)"
       id="g72">
      <path
         d="m 79.346,503.18 c 0,0 -26.746,31.203 -57.949,32.987 -31.203,1.784 -96.285,38.336 -96.285,38.336 l 7.1322,12.481 c 0,0 32.095,-24.963 55.275,-32.095 23.18,-7.132 51.709,-8.9153 64.19,-17.831 12.481,-8.9157 29.42,-32.095 27.637,-33.878 z"
         fill="#fdeb04"
         id="path68" />
      <path
         d="m 81.031,499.82 c 0,0 -17.758,37.063 -47.437,46.861 -29.679,9.798 -83.082,61.95 -83.082,61.95 l 10.12,10.21 c 0,0 24.541,-32.419 45.084,-45.308 20.543,-12.889 47.639,-21.995 57.388,-33.837 9.749,-11.842 20.111,-38.616 17.927,-39.877 z"
         fill="#d44117"
         id="path70" />
    </g>
  </g>
</svg>
