<?xml version="1.0" encoding="UTF-8" standalone="no"?>
<svg
   xmlns:dc="http://purl.org/dc/elements/1.1/"
   xmlns:cc="http://creativecommons.org/ns#"
   xmlns:rdf="http://www.w3.org/1999/02/22-rdf-syntax-ns#"
   xmlns:svg="http://www.w3.org/2000/svg"
   xmlns="http://www.w3.org/2000/svg"
   xmlns:sodipodi="http://sodipodi.sourceforge.net/DTD/sodipodi-0.dtd"
   xmlns:inkscape="http://www.inkscape.org/namespaces/inkscape"
   version="1.1"
   viewBox="0 0 332.59844 472.44095"
   id="svg270"
   sodipodi:docname="ladder.svg"
   width="88mm"
   height="125mm"
   inkscape:version="1.0.2-2 (e86c870879, 2021-01-15)">
  <metadata
     id="metadata276">
    <rdf:RDF>
      <cc:Work
         rdf:about="">
        <dc:format>image/svg+xml</dc:format>
        <dc:type
           rdf:resource="http://purl.org/dc/dcmitype/StillImage" />
        <dc:title></dc:title>
      </cc:Work>
    </rdf:RDF>
  </metadata>
  <defs
     id="defs274" />
  <sodipodi:namedview
     pagecolor="#ffffff"
     bordercolor="#666666"
     borderopacity="1"
     objecttolerance="10"
     gridtolerance="10"
     guidetolerance="10"
     inkscape:pageopacity="0"
     inkscape:pageshadow="2"
     inkscape:window-width="1920"
     inkscape:window-height="1017"
     id="namedview272"
     showgrid="false"
     units="mm"
     inkscape:zoom="0.66329557"
     inkscape:cx="129.39822"
     inkscape:cy="437.54486"
     inkscape:window-x="-8"
     inkscape:window-y="-8"
     inkscape:window-maximized="1"
     inkscape:current-layer="svg270" />
  <g
     transform="matrix(0.72935379,0,0,0.72935379,-176.46892,-405.42494)"
     id="g268">
    <path
       d="m 351.44,1039 c 0,0 3.6532,-3.8914 4.2091,-4.6061 0.55591,-0.7148 7.2269,-5.6386 8.2593,-6.0357 1.0324,-0.3971 8.0211,-3.4149 8.3388,-2.1443 0.31767,1.2707 -1.3501,4.6856 -1.906,5.3209 -0.55592,0.6354 -9.7683,11.674 -9.7683,11.674 0,0 -8.4182,8.8153 -9.4506,13.183 -1.0324,4.3679 -3.6532,2.859 -3.7326,2.5413 -0.0794,-0.3177 4.0503,-19.934 4.0503,-19.934 z"
       fill="#1a1a1a"
       stroke="#000000"
       stroke-width="0.53985"
       id="path2" />
    <path
       d="m 426.95,572.85 51.664,5.6156 1.797,1.797 c 0,0 4.2679,0.22463 5.391,-0.8985 1.1231,-1.12313 8.5357,-2.6955 8.5357,-2.6955 l 1.5724,-0.44925 v -0.44924 l -1.5724,-5.1664 -2.9201,-3.594 -47.396,-4.9417 -16.847,4.9417 z"
       fill="#999999"
       stroke="#000000"
       stroke-width="0.53985"
       id="path4" />
    <path
       d="m 476.37,575.31 4.5517,-0.84867 -31.077,448.26997 -6.3806,-0.9948 29.02,-447.63997 z"
       fill="#808000"
       stroke="#000000"
       stroke-width="0.53985"
       id="path6" />
    <path
       d="m 423.36,570.38 58.178,5.6156 10.782,-9.8835 -50.316,-5.391 z"
       fill="#333333"
       id="path8" />
    <path
       d="m 450.87,1022 -3.1447,0.5615 -7.188,-1.0108 6.851,-1.46 28.752,-444.87 3.594,-0.78618 -29.426,445.42998 z"
       stroke="#000000"
       stroke-width="0.53985"
       id="path10" />
    <g
       transform="matrix(0.53985,0,0,0.60157,156.95,539.14)"
       id="g26">
      <path
         d="m 552.05,220.86 12.368,12.743 7.5389,7.9564 c 0,0 5.5948,0.96732 4.6944,-3.606 -0.90044,-4.5734 -10.957,-17.213 -10.957,-17.213 z"
         fill="#b3b3b3"
         stroke="#1a1a1a"
         stroke-width="1.3404"
         id="path12" />
      <g
         transform="matrix(-0.52009,0.058925,0.0041979,0.77943,758.57,-282.21)"
         id="g24">
        <g
           transform="matrix(1.4477,-0.033848,-0.0036137,1.0003,-253.67,17.309)"
           id="g22">
          <path
             d="m 532.69,606.66 10.591,5.6847 6.4482,3.5836 c 0,0 4.9844,-0.4429 4.3603,-3.1475 -0.62413,-2.7046 -9.1442,-8.7579 -9.1442,-8.7579 z"
             fill="#b3b3b3"
             stroke="#1a1a1a"
             id="path14" />
          <g
             transform="matrix(0.99325,0.032173,-0.076611,1.0043,49.792,-18.216)"
             id="g20">
            <path
               d="m 408,621.68 153.71,-16.05 0.20577,-11.318 -152.07,15.639 z"
               fill="#999999"
               stroke="#1a1a1a"
               id="path16" />
            <path
               d="m 409.64,609.99 -2.9126,-3.1207 149.58,-14.147 6.2413,1.2483 -1.8724,1.4563 z"
               fill="#1a1a1a"
               id="path18" />
          </g>
        </g>
      </g>
    </g>
    <g
       transform="matrix(0.53985,0,0,0.53985,156.95,552.18)"
       id="g36">
      <g
         transform="matrix(-0.75041,0.12115,0.091585,0.99263,815.75,-274.73)"
         id="g34">
        <path
           d="m 551.19,604.92 5.2011,5.8252 3.9528,2.7046 c 0,0 4.9931,0.62413 4.3689,-2.0804 -0.62413,-2.7046 -6.6574,-8.9459 -6.6574,-8.9459 z"
           fill="#b3b3b3"
           stroke="#1a1a1a"
           id="path28" />
        <path
           d="m 395.51,622.79 166.2,-17.155 0.20577,-11.318 -169.34,14.812 z"
           fill="#999999"
           stroke="#1a1a1a"
           id="path30" />
        <path
           d="m 391.95,615.08 -0.97959,-5.662 165.34,-16.699 6.2413,1.2483 -1.8724,1.4563 z"
           fill="#1a1a1a"
           id="path32" />
      </g>
    </g>
    <path
       d="m 489.6,1192.4 7.9691,8.0746 6.3331,-2.5332 -1.425,-1.8472 -8.3386,-5.2248 -3.7471,0.5806 z"
       fill="#1a1a1a"
       stroke="#000000"
       stroke-width="0.53985"
       id="path38" />
    <path
       d="M 500.78,577.43 471.27,1027.7"
       fill="#ffff00"
       id="path40" />
    <g
       transform="matrix(0.64473,-0.024709,0.03863,0.53948,173.63,558.64)"
       id="g52">
      <path
         d="m 410.11,660.26 c 0,0 1.563,0.1295 2.4693,-1.9548 2.0577,-4.7328 -11.729,-13.478 -11.729,-13.478 m 180.46,79.017 -82.721,-26.545 v -1.0289 l -10.494,-3.4982 -1.852,-0.61732 -71.198,-38.48 -2.4693,-0.82309 -11.215,-8.7454 -2.0577,6.0703 11.523,10.289 2.4693,0.8231 71.712,39.92 c 0,0 0.61732,1.2346 0.82309,2.0577 0.20577,0.8231 8.6425,3.4982 8.6425,3.4982 l 2.2635,-0.41155 52.678,15.845 31.895,10.289 z"
         fill="#999999"
         stroke="#000000"
         id="path42" />
      <path
         d="m 411.96,660.36 c 0,0 1.3025,-0.69108 1.852,-1.3375 1.7491,-2.0577 -1.3375,-6.5848 -1.3375,-6.5848"
         fill="none"
         stroke="#000000"
         id="path44" />
      <path
         d="m 501.88,698.84 79.326,26.545 v -1.5433 l -82.927,-27.162 -0.20578,-0.41155 -11.832,-4.2184 -1.4404,1.2346 10.597,4.3212 1.9548,0.41154 1.6462,0.10289 z"
         fill="#b3b3b3"
         id="path46" />
      <path
         d="m 484.8,700.79 0.20578,-7.2021 8.0252,3.2924 2.8808,0.82309 0.61732,8.6425 1.6462,-0.82309 c -0.13675,-4.33 -0.91986,-8.1945 -0.28694,-8.6969 0.63292,-0.50245 4.9821,2.989 4.0938,2.5237 0,0 1.3413,2.9733 1.3118,3.9869 -0.0325,1.1186 -0.90026,3.1123 -2.032,3.2152 -2.2635,0.20578 -3.4982,-0.61732 -3.4982,-0.61732 0,0 3.5227,0.008 3.601,-2.2635 0.10289,-2.9837 -4.4241,-6.0703 -4.4241,-6.0703"
         fill="none"
         stroke="#000000"
         id="path48" />
      <path
         d="m 415.56,654.08 27.574,15.845 43.007,23.458 1.3375,-1.0289 -56.691,-30.249 z"
         fill="#b3b3b3"
         id="path50" />
    </g>
    <g
       transform="matrix(0.53985,0,0,0.53985,156.95,552.18)"
       stroke="#000000"
       id="g58">
      <path
         d="m 603.3,32.832 237.58,1033 14.71,8 6.18,-3.6 -238.03,-1035.6 z"
         fill="#808000"
         id="path54" />
      <path
         d="m 610.65,33.274 237.34,1027.3 -7.0735,5.4091 15.395,9.154 2.4965,-7.0735 -238.43,-1036.1 z"
         fill-opacity="0.86667"
         id="path56" />
    </g>
    <g
       transform="matrix(0.53985,0,0,0.53985,156.95,552.18)"
       stroke="#000000"
       id="g64">
      <path
         d="m 573.63,582.96 168.64,-20.408 7.9684,31.897 -31.403,-16.035 19.308,-2.5827 -136.87,18.148 6.8983,-0.20507 -26.264,31.577 -1.2401,-21.235 9.3533,-9.9976 -15.608,1.2493 z"
         fill="#cccccc"
         stroke-width="1.3219"
         id="path60" />
      <path
         d="m 574.03,582.83 3.5946,-7.7422 160.93,-16.038 3.5946,3.8711 z"
         fill="#333333"
         id="path62" />
    </g>
    <g
       transform="matrix(0.49772,0,0,0.44989,177.26,554.21)"
       stroke="#000000"
       id="g70">
      <path
         d="m 573.63,582.96 168.64,-20.408 7.9684,31.897 -33.339,-16.312 21.243,-2.3062 -136.87,18.148 6.6218,-1.5876 -25.987,32.959 -1.2401,-21.235 9.3533,-9.9976 -15.608,1.2493 z"
         fill="#cccccc"
         stroke-width="1.3219"
         id="path66" />
      <path
         d="m 574.03,582.83 3.5946,-7.7422 160.93,-16.038 3.5946,3.8711 z"
         fill="#333333"
         id="path68" />
    </g>
    <g
       transform="matrix(0.57132,-0.021862,0.023156,0.5394,131.67,617.34)"
       stroke="#000000"
       id="g76">
      <path
         d="m 573.63,582.96 168.64,-20.408 5.1584,36.765 -28.593,-20.903 19.308,-2.5827 -136.87,18.148 6.8983,-0.20507 -26.264,31.577 -1.2401,-21.235 9.3533,-9.9976 -15.608,1.2493 z"
         fill="#cccccc"
         stroke-width="1.3219"
         id="path72" />
      <path
         d="m 574.03,582.83 3.5946,-7.7422 160.93,-16.038 3.5946,3.8711 z"
         fill="#333333"
         id="path74" />
    </g>
    <g
       transform="matrix(0.59715,-0.04672,0.047148,0.55855,106.75,674.11)"
       stroke="#000000"
       id="g82">
      <path
         transform="matrix(0.89811,0.075123,-0.07581,0.96017,100.63,-209.87)"
         d="M 781.72,743.66 593.53,778 l 2.85,14.41 15.62,-2.91 -12.188,13.906 1.375,23.25 31.375,-39.094 -7.8125,0.8125 153.5,-30.625 -35.5,7.125 55.844,50.375 -16.875,-71.594 z m -0.1875,13.531 7.8125,30.438 -29.625,-25.5 21.812,-4.9375 z"
         fill="#cccccc"
         stroke-width="1.4362"
         id="path78" />
      <path
         d="m 574.03,582.83 3.9655,-6.1077 160.56,-17.672 3.5946,3.8711 z"
         fill="#333333"
         id="path80" />
    </g>
    <g
       transform="matrix(0.68419,-0.086695,0.092484,0.55428,38.542,808.79)"
       stroke="#000000"
       id="g88">
      <path
         transform="matrix(0.7727,0.12086,-0.12893,0.9538,230.77,-426.86)"
         d="m 826.34,932.97 -217.56,50.656 4.25,15.281 17.812,-4.2188 -13.062,15.812 3.1875,24.844 33.375,-44.188 -8.9062,1.4062 157,-39.312 -0.75,-0.59375 23.875,-6.5938 7.8125,31.688 -30.688,-24.281 -20.531,5.4688 63.625,54.03095 -19.438,-79.99995 z"
         fill="#cccccc"
         stroke-width="1.6001"
         id="path84" />
      <path
         d="m 574.14,584.75 3.7709,-7.2735 170.27,-20.921 0.37895,5.7164 z"
         fill="#333333"
         id="path86" />
    </g>
    <g
       transform="matrix(0.634,-0.074968,0.075219,0.55576,74.595,745.43)"
       stroke="#000000"
       id="g94">
      <path
         transform="matrix(0.83808,0.11305,-0.11343,0.95606,168.46,-324.98)"
         d="m 805.5,833.41 -202.03,46.938 3.6562,15.375 16.531,-3.9375 -12.375,15.562 2.5,24.938 31.656,-43.625 -8.2812,1.25 143.75,-36.094 -0.40625,-0.34375 22.625,-5.3438 6.5938,30.469 -28.531,-24.531 -17.031,4.5625 57.812,55.125 -16.46,-80.35 z"
         fill="#cccccc"
         stroke-width="1.5384"
         id="path90" />
      <path
         d="m 574.14,584.75 3.7709,-7.2735 170.27,-20.921 0.37895,5.7164 z"
         fill="#333333"
         id="path92" />
    </g>
    <path
       d="m 490.02,1191.8 7.5469,7.547 5.6998,-2.2694 -9.0246,-6.3331 z"
       stroke="#000000"
       stroke-width="0.53985"
       id="path96" />
    <path
       d="m 494.95,1156.3 10.211,-13.039 13.511,-5.8912 2.1994,0.7855 0.47131,1.6495 c 0,0 -9.5045,25.686 -10.133,26.628 -0.6284,0.9426 -4.7915,10.369 -5.2628,11.468 -0.4713,1.0997 -3.4562,11.233 -3.9275,11.94 -0.4713,0.707 -3.3776,0.3928 -3.3776,0.3928 z"
       fill="#333333"
       stroke="#000000"
       stroke-width="0.53985"
       id="path98" />
    <path
       d="m 497.39,1170.2 1.9638,0.078 17.202,-29.142 -12.175,2.1994 -8.2477,11.861 z"
       fill="#1a1a1a"
       id="path100" />
    <g
       transform="matrix(0.53985,0,0,0.54869,156.95,542.2)"
       stroke="#000000"
       id="g106">
      <path
         d="m 612.76,1129 -1.1731,0.9776 5.4746,53.964 14.078,14.273 9.5805,-3.7149 -5.0836,-56.31 -1.1731,-0.1955 -0.19552,0.5866 -8.6029,3.1283 z"
         fill="#1a1a1a"
         id="path102" />
      <path
         d="m 625.88,1141.6 4.6777,56.194 9.9606,-3.7571 -4.6897,-55.411 z"
         fill="#333333"
         id="path104" />
    </g>
    <g
       transform="matrix(0.53985,0,0,0.53985,156.95,552.18)"
       id="g118">
      <path
         d="m 846.67,1110.1 c 0,0 1.6591,-1.5208 2.2121,-1.659 0.55302,-0.1383 8.71,-0.9678 8.71,-0.9678 l 17.835,9.9543 1.106,1.6591 -9.263,5.1154 z"
         fill="#1a1a1a"
         stroke="#000000"
         id="path108" />
      <path
         d="m 800.66,1029.5 6.4522,-7.6253 8.4074,4.6925 -3.5194,8.603 5.4746,10.558 1.9552,2.3462 23.071,17.792 13.686,8.4074 6.2567,-4.3015 -0.19552,-1.5642 1.3686,1.3687 10.949,47.707 -7.8208,4.106 -17.401,-11.34 c 0,0 -5.0835,-18.379 -8.994,-22.485 -3.9104,-4.1059 -28.155,-29.328 -28.155,-29.328 0,0 -7.2343,-7.0388 -8.4074,-10.363 -1.1731,-3.3238 -3.1283,-18.574 -3.1283,-18.574 z"
         fill="#1a1a1a"
         stroke="#000000"
         id="path110" />
      <path
         d="m 810.24,1048.9 14.273,17.01 28.351,27.764 c 0,0 7.4298,7.6254 8.2119,13.296 0.78208,5.6701 1.3686,9.5805 1.3686,9.5805 0,0 -1.5642,-5.8656 -3.5194,-6.6477 -1.9552,-0.7821 -5.2791,0 -6.0612,0.391 -0.78208,0.3911 -2.3462,0.9776 -2.3462,0.9776 0,0 -2.5418,-15.251 -4.1059,-17.988 -1.5642,-2.7373 -10.558,-11.145 -14.273,-15.055 -3.7149,-3.9104 -26.395,-26.786 -26.395,-26.786 l -3.1283,-4.497 z"
         stroke="#000000"
         id="path112" />
      <path
         d="m 863.42,1070 -6.6477,4.3015 c 0,0 8.994,43.015 9.5805,44.383 0.58656,1.3687 1.1731,2.3463 1.1731,2.3463 l 6.4522,-2.9328 -2.7373,-14.86 z"
         fill="#333333"
         id="path114" />
      <path
         d="m 866.99,1121.1 7.604,-3.4563 1.5208,0.6912 0.27651,0.4148 -8.5718,5.1154 z"
         fill="#1a1a1a"
         id="path116" />
    </g>
    <g
       transform="matrix(0.53985,0,0,0.53985,156.95,552.18)"
       stroke="#000000"
       id="g124">
      <path
         d="m 617.17,1083.3 2.7651,23.78 232.27,-68.021 -2.7651,-19.356 z"
         fill="#cccccc"
         id="path120" />
      <path
         d="m 613.85,1081.1 231.71,-65.256 5.5302,10.507 -1.659,3.8711 -226.74,62.491 z"
         fill="#333333"
         id="path122" />
    </g>
    <path
       d="m 352.4,1043.2 c 0,0 6.5122,-9.2918 8.4182,-10.801 1.906,-1.5089 8.3388,-5.5591 9.1329,-5.4003 0.79417,0.1588 1.6678,1.1118 1.6678,1.1118 l -0.23825,1.3501 -1.2707,2.6208 -4.4473,5.3209 -7.7034,8.7358 -3.0972,3.8914 -2.0648,2.9385 -2.5413,4.765 z"
       fill="#333333"
       id="path126" />
    <path
       d="m 428.52,1015.4 c 0,0 12.467,12.579 12.804,14.713 0.33693,2.134 1.0108,6.2895 1.0108,6.2895 l 1.5724,0.8985 -2.0216,-1.3477 -0.78619,0.4492 5.7279,4.1556 3.8186,-1.5724 -0.78619,-0.8985 -2.6955,0.6739 2.8078,-0.7862 1.5724,-15.611 -0.33694,-0.2246 -2.5832,0.2246 0.33694,-1.8531 -1.7408,-0.2247 -3.594,0.8985 -9.0411,-6.121 z"
       fill="#1a1a1a"
       stroke="#000000"
       stroke-width="0.53985"
       id="path128" />
    <g
       transform="matrix(0.54318,0,0,0.53985,156.71,552.39)"
       stroke="#1a1a1a"
       id="g134">
      <path
         d="m 357.36,876.4 177.81,-34.63 6.9842,3.7831 -0.58558,8.1482 -187.7,36.958 z"
         fill="#999999"
         id="path130" />
      <path
         d="m 357.36,881.64 1.746,-6.1112 178.37,-33.757 4.0866,5.2381 z"
         fill="#1a1a1a"
         id="path132" />
    </g>
    <g
       transform="matrix(0.53985,0,0,0.53985,156.95,552.18)"
       stroke="#1a1a1a"
       id="g146">
      <path
         d="m 511.01,797.25 36.085,34.339 0.29101,-12.804 -27.064,-23.281 z"
         fill="#999999"
         id="path136" />
      <path
         d="m 370.74,835.66 20.953,-18.915 19.206,-1.455 -44.233,45.106 3.2011,-12.513 32.011,-30.265 h -6.1112 l -25.027,25.609 z"
         fill="#999999"
         id="path138" />
      <g
         transform="matrix(0.96705,0.030201,-0.03202,0.9995,51.819,-74.791)"
         id="g144">
        <path
           d="m 357.36,876.4 177.81,-34.63 6.9842,3.7831 -0.58558,8.1482 -187.7,36.958 z"
           fill="#999999"
           id="path140" />
        <path
           d="m 357.36,881.64 1.746,-6.1112 178.37,-33.757 4.0866,5.2381 z"
           fill="#1a1a1a"
           id="path142" />
      </g>
    </g>
    <g
       transform="matrix(0.52533,0,0,0.53985,166.6,518.32)"
       stroke="#1a1a1a"
       id="g158">
      <path
         d="m 511.01,797.25 36.085,34.339 0.29101,-12.804 -27.064,-23.281 z"
         fill="#999999"
         id="path148" />
      <path
         d="m 370.74,835.66 20.953,-18.915 19.206,-1.455 -44.233,45.106 3.2011,-12.513 32.011,-30.265 h -6.1112 l -25.027,25.609 z"
         fill="#999999"
         id="path150" />
      <g
         transform="matrix(0.96705,0.030201,-0.03202,0.9995,51.819,-74.791)"
         id="g156">
        <path
           d="m 357.36,876.4 177.81,-34.63 6.9842,3.7831 -0.58558,8.1482 -187.7,36.958 z"
           fill="#999999"
           id="path152" />
        <path
           d="m 357.36,881.64 1.746,-6.1112 178.37,-33.757 4.0866,5.2381 z"
           fill="#1a1a1a"
           id="path154" />
      </g>
    </g>
    <g
       transform="matrix(0.50106,0.024049,-0.023956,0.53929,201.47,473.68)"
       stroke="#1a1a1a"
       id="g170">
      <path
         d="m 511.01,797.25 36.085,34.339 0.29101,-12.804 -27.064,-23.281 z"
         fill="#999999"
         id="path160" />
      <path
         d="m 370.74,835.66 20.953,-18.915 19.206,-1.455 -44.233,45.106 3.2011,-12.513 32.011,-30.265 h -6.1112 l -25.027,25.609 z"
         fill="#999999"
         id="path162" />
      <g
         transform="matrix(0.96705,0.030201,-0.03202,0.9995,51.819,-74.791)"
         id="g168">
        <path
           d="m 357.36,876.4 177.81,-34.63 6.9842,3.7831 -0.58558,8.1482 -187.7,36.958 z"
           fill="#999999"
           id="path164" />
        <path
           d="m 357.36,881.64 1.746,-6.1112 178.37,-33.757 4.0866,5.2381 z"
           fill="#1a1a1a"
           id="path166" />
      </g>
    </g>
    <g
       transform="matrix(0.53985,0,0,0.53985,156.95,552.18)"
       id="g178">
      <path
         d="m 538.08,606.52 5.2011,5.8252 3.9528,2.7046 c 0,0 4.9931,0.62413 4.3689,-2.0804 -0.62413,-2.7046 -6.6574,-8.9459 -6.6574,-8.9459 z"
         fill="#b3b3b3"
         stroke="#1a1a1a"
         id="path172" />
      <path
         d="m 408,621.68 153.71,-16.05 0.20577,-11.318 -152.07,15.639 z"
         fill="#999999"
         stroke="#1a1a1a"
         id="path174" />
      <path
         d="m 409.64,609.99 -2.9126,-3.1207 149.58,-14.147 6.2413,1.2483 -1.8724,1.4563 z"
         fill="#1a1a1a"
         id="path176" />
    </g>
    <g
       transform="matrix(0.50667,0.030736,-0.02842,0.68043,186.25,458.14)"
       id="g194">
      <path
         d="m 552.05,220.86 12.368,12.743 7.5389,7.9564 c 0,0 5.5948,0.96732 4.6944,-3.606 -0.90044,-4.5734 -10.957,-17.213 -10.957,-17.213 z"
         fill="#b3b3b3"
         stroke="#1a1a1a"
         stroke-width="1.3404"
         id="path180" />
      <g
         transform="matrix(-0.52009,0.058925,0.0041979,0.77943,758.57,-282.21)"
         id="g192">
        <g
           transform="matrix(1.4477,-0.033848,-0.0036137,1.0003,-253.67,17.309)"
           id="g190">
          <path
             d="m 532.69,606.66 10.591,5.6847 6.4482,3.5836 c 0,0 4.9844,-0.4429 4.3603,-3.1475 -0.62413,-2.7046 -9.1442,-8.7579 -9.1442,-8.7579 z"
             fill="#b3b3b3"
             stroke="#1a1a1a"
             id="path182" />
          <g
             transform="matrix(0.99325,0.032173,-0.076611,1.0043,49.792,-18.216)"
             id="g188">
            <path
               d="m 408,621.68 153.71,-16.05 0.20577,-11.318 -152.07,15.639 z"
               fill="#999999"
               stroke="#1a1a1a"
               id="path184" />
            <path
               d="m 409.64,609.99 -2.9126,-3.1207 149.58,-14.147 6.2413,1.2483 -1.8724,1.4563 z"
               fill="#1a1a1a"
               id="path186" />
          </g>
        </g>
      </g>
    </g>
    <g
       transform="matrix(0.51224,0.013113,-0.014962,0.53965,184.42,507.45)"
       id="g202">
      <path
         d="m 538.08,606.52 5.2011,5.8252 3.9528,2.7046 c 0,0 4.9931,0.62413 4.3689,-2.0804 -0.62413,-2.7046 -6.6574,-8.9459 -6.6574,-8.9459 z"
         fill="#b3b3b3"
         stroke="#1a1a1a"
         id="path196" />
      <path
         d="m 408,621.68 153.71,-16.05 0.20577,-11.318 -152.07,15.639 z"
         fill="#999999"
         stroke="#1a1a1a"
         id="path198" />
      <path
         d="m 409.64,609.99 -2.9126,-3.1207 149.58,-14.147 6.2413,1.2483 -1.8724,1.4563 z"
         fill="#1a1a1a"
         id="path200" />
    </g>
    <g
       transform="matrix(0.48366,0.025913,-0.028882,0.53907,210.71,463.41)"
       id="g210">
      <path
         d="m 538.08,606.52 5.2011,5.8252 3.9528,2.7046 c 0,0 4.9931,0.62413 4.3689,-2.0804 -0.62413,-2.7046 -6.6574,-8.9459 -6.6574,-8.9459 z"
         fill="#b3b3b3"
         stroke="#1a1a1a"
         id="path204" />
      <path
         d="m 408,621.68 153.71,-16.05 0.20577,-11.318 -152.07,15.639 z"
         fill="#999999"
         stroke="#1a1a1a"
         id="path206" />
      <path
         d="m 409.64,609.99 -2.9126,-3.1207 149.58,-14.147 6.2413,1.2483 -1.8724,1.4563 z"
         fill="#1a1a1a"
         id="path208" />
    </g>
    <g
       transform="matrix(0.53985,0,0,0.53985,156.95,552.18)"
       id="g222">
      <path
         d="m 410.11,660.26 c 0,0 1.563,0.1295 2.4693,-1.9548 2.0577,-4.7328 -11.729,-13.478 -11.729,-13.478 m 180.46,79.017 -82.721,-26.545 v -1.0289 l -10.494,-3.4982 -1.852,-0.61732 -71.198,-38.48 -2.4693,-0.82309 -11.215,-8.7454 -2.0577,6.0703 11.523,10.289 2.4693,0.8231 71.712,39.92 c 0,0 0.61732,1.2346 0.82309,2.0577 0.20577,0.8231 8.6425,3.4982 8.6425,3.4982 l 2.2635,-0.41155 52.678,15.845 31.895,10.289 z"
         fill="#999999"
         stroke="#000000"
         id="path212" />
      <path
         d="m 411.96,660.36 c 0,0 1.3025,-0.69108 1.852,-1.3375 1.7491,-2.0577 -1.3375,-6.5848 -1.3375,-6.5848"
         fill="none"
         stroke="#000000"
         id="path214" />
      <path
         d="m 501.88,698.84 79.326,26.545 v -1.5433 l -82.927,-27.162 -0.20578,-0.41155 -11.832,-4.2184 -1.4404,1.2346 10.597,4.3212 1.9548,0.41154 1.6462,0.10289 z"
         fill="#b3b3b3"
         id="path216" />
      <path
         d="m 484.8,700.79 0.20578,-7.2021 8.0252,3.2924 2.8808,0.82309 0.61732,8.6425 1.6462,-0.82309 c -0.13675,-4.33 -0.91986,-8.1945 -0.28694,-8.6969 0.63292,-0.50245 4.9821,2.989 4.0938,2.5237 0,0 1.3413,2.9733 1.3118,3.9869 -0.0325,1.1186 -0.90026,3.1123 -2.032,3.2152 -2.2635,0.20578 -3.4982,-0.61732 -3.4982,-0.61732 0,0 3.5227,0.008 3.601,-2.2635 0.10289,-2.9837 -4.4241,-6.0703 -4.4241,-6.0703"
         fill="none"
         stroke="#000000"
         id="path218" />
      <path
         d="m 415.56,654.08 27.574,15.845 43.007,23.458 1.3375,-1.0289 -56.691,-30.249 z"
         fill="#b3b3b3"
         id="path220" />
    </g>
    <g
       transform="matrix(-0.43875,0.042799,0.031441,0.42033,629.18,440.22)"
       id="g230">
      <path
         d="m 538.08,606.52 5.2011,5.8252 3.9528,2.7046 c 0,0 4.9931,0.62413 4.3689,-2.0804 -0.62413,-2.7046 -6.6574,-8.9459 -6.6574,-8.9459 z"
         fill="#b3b3b3"
         stroke="#1a1a1a"
         id="path224" />
      <path
         d="m 408,621.68 153.71,-16.05 0.20577,-11.318 -152.07,15.639 z"
         fill="#999999"
         stroke="#1a1a1a"
         id="path226" />
      <path
         d="m 409.64,609.99 -2.9126,-3.1207 149.58,-14.147 6.2413,1.2483 -1.8724,1.4563 z"
         fill="#1a1a1a"
         id="path228" />
    </g>
    <g
       transform="matrix(0.53985,0,0,0.53985,156.95,552.18)"
       id="g240">
      <path
         d="m 496.64,31.656 -45.01,268.62 -102.1,603.74 6.767,6.4728 5.5902,-1.7653 150.93,-872.07 -5.5902,-3.8248 z"
         fill="#808000"
         stroke="#000000"
         id="path232" />
      <g
         fill="#ffff00"
         id="g238">
        <path
           d="m 598.11,38.698 4.3822,1.455 -57.836,830.51 -4.577,0.83218 z"
           stroke="#000000"
           id="path234" />
        <path
           d="M 506.8,32.871 356.59,910.191 362,908.531 512.83,36.201 Z"
           id="path236" />
      </g>
    </g>
    <path
       d="m 454.75,711.49 68.733,-0.007 3.2158,11.532 -14.313,-5.3242 8.5038,0.22878 -55.029,0.18756 2.7144,-0.0305 -8.7774,12.049 -1.9343,-8.6738 3.7969,-3.5634 -4.8494,0.0185 z"
       fill="#cccccc"
       stroke="#000000"
       stroke-width="0.59555"
       id="path242" />
    <path
       d="m 451.21,660.68 61.581,3.594 2.2081,11.68 -12.512,-6.0649 7.6056,0.67388 -49.426,-3.3694 3.1273,0.11231 -9.1486,12.242 -1.2267,-8.7604 3.4348,-3.8186 -4.1708,0.22462 z"
       fill="#cccccc"
       stroke="#000000"
       stroke-width="0.5642"
       id="path244" />
    <path
       d="m 445.82,611.48 56.381,3.594 2.0216,11.68 -11.456,-6.0649 6.9634,0.67388 -45.149,-2.6955 2.2462,-0.22462 -7.8618,11.905 -1.1231,-8.7604 3.1447,-3.8186 -3.8186,0.22462 z"
       fill="#cccccc"
       stroke="#000000"
       stroke-width="0.53985"
       id="path246" />
    <path
       d="m 458.39,761.88 76.612,-2.4258 4.0723,13.158 -16.179,-5.6237 9.4884,-0.0358 -61.33,2.1519 3.0101,-0.51837 -9.2596,14.563 -2.523,-9.9142 3.8121,-4.7436 -5.1352,0.70095 z"
       fill="#cccccc"
       stroke="#000000"
       stroke-width="0.67491"
       id="path248" />
    <g
       transform="matrix(0.53985,0,0,0.53985,156.95,552.18)"
       stroke="#000000"
       id="g256">
      <path
         d="m 514.91,40.361 97.949,1089.3 12.651,12.063 8.8266,-2.3538 -101.21,-1115.7 -9.415,-3.5306 -9.415,7.0613 z"
         fill="#808000"
         id="path250" />
      <path
         d="m 523.65,20.18 101.52,1121.1 9.16,-2 L 532.59,23.08 Z"
         fill="#ffff00"
         fill-opacity="0.86667"
         id="path252" />
      <path
         d="m 616.39,34.009 239.05,1040.1 6.767,-3.972 -238.47,-1035.6 z"
         fill="#ffff00"
         id="path254" />
    </g>
    <path
       d="m 422.23,577.9 2.1339,-11.568 15.836,-6.0648 52.899,5.1664 1.5724,5.6156 0.11231,0.56156 -53.236,-4.3802 -1.0108,-6.2895 -0.22462,0.22462 0.22462,11.68 -6.4018,1.3477 -1.5724,-0.67387 -0.78618,-6.9634 2.1339,-1.797 -2.1339,1.6847 0.22462,4.8294 -2.1339,4.4925 c 0,0 -4.8294,2.3586 -5.8402,2.5832 -1.0108,0.22463 -1.797,-0.44924 -1.797,-0.44924 z"
       fill="#cccccc"
       stroke="#000000"
       stroke-width="0.53985"
       id="path258" />
    <path
       d="m 345.41,1040.2 -0.39709,0.2382 -0.55592,2.6208 -1.7472,13.342 1.8266,1.8266 -2.0648,-1.8266 -1.1118,0.4765 4.9238,4.5267 4.6856,-1.1912 -0.31766,-0.953 -3.812,0.7941 3.7326,-0.5559 2.5413,-16.678 h -0.23826 l -0.4765,-0.079 -2.9384,1.1118 z"
       fill="#1a1a1a"
       stroke="#000000"
       stroke-width="0.53985"
       id="path260" />
    <path
       d="m 350.41,1059.4 -3.5738,0.4765 c 0,0 -0.23826,-3.6532 0.15883,-4.5268 0.39708,-0.8735 2.2237,-9.6888 2.2237,-10.006 0,-0.3176 -0.31767,-0.7147 0.23825,-1.1118 0.55591,-0.3971 3.6532,-1.1118 3.6532,-1.1118 z"
       fill="#333333"
       id="path262" />
    <path
       d="m 429.76,1016 11.849,11.568 c 0,0 3.594,7.5249 4.3802,10.333 0.78619,2.8078 -0.95465,-2.7516 -1.7408,-2.8639 -0.78619,-0.1123 -1.2916,1.0108 -1.2916,1.0108 0,0 -1.0108,-6.1772 -1.7408,-7.0195 -0.73002,-0.8424 -11.456,-13.028 -11.456,-13.028 z"
       id="path264" />
    <path
       d="m 443.29,1020.7 c 0,0 2.8078,2.2463 3.4255,2.2463 0.61772,0 4.2679,-0.7862 4.2679,-0.7862 l -2.1901,0.1123 0.11231,-1.9093 -1.6285,-0.4492 z"
       id="path266" />
  </g>
</svg>
