<?xml version="1.0" encoding="UTF-8" standalone="no"?>
<svg
   xmlns:dc="http://purl.org/dc/elements/1.1/"
   xmlns:cc="http://creativecommons.org/ns#"
   xmlns:rdf="http://www.w3.org/1999/02/22-rdf-syntax-ns#"
   xmlns:svg="http://www.w3.org/2000/svg"
   xmlns="http://www.w3.org/2000/svg"
   xmlns:xlink="http://www.w3.org/1999/xlink"
   xmlns:sodipodi="http://sodipodi.sourceforge.net/DTD/sodipodi-0.dtd"
   xmlns:inkscape="http://www.inkscape.org/namespaces/inkscape"
   viewBox="0 0 472.44094 332.59842"
   version="1.1"
   id="svg133"
   sodipodi:docname="ladle.svg"
   width="125mm"
   height="88mm"
   inkscape:version="1.0.2-2 (e86c870879, 2021-01-15)">
  <metadata
     id="metadata137">
    <rdf:RDF>
      <cc:Work
         rdf:about="">
        <dc:format>image/svg+xml</dc:format>
        <dc:type
           rdf:resource="http://purl.org/dc/dcmitype/StillImage" />
        <dc:title></dc:title>
      </cc:Work>
    </rdf:RDF>
  </metadata>
  <sodipodi:namedview
     pagecolor="#ffffff"
     bordercolor="#666666"
     borderopacity="1"
     objecttolerance="10"
     gridtolerance="10"
     guidetolerance="10"
     inkscape:pageopacity="0"
     inkscape:pageshadow="2"
     inkscape:window-width="1920"
     inkscape:window-height="1017"
     id="namedview135"
     showgrid="false"
     units="mm"
     inkscape:zoom="0.56666667"
     inkscape:cx="226.15966"
     inkscape:cy="410.40374"
     inkscape:window-x="-8"
     inkscape:window-y="-8"
     inkscape:window-maximized="1"
     inkscape:current-layer="svg133" />
  <defs
     id="defs71">
    <filter
       id="q">
      <feGaussianBlur
         stdDeviation="15.698"
         id="feGaussianBlur2" />
    </filter>
    <linearGradient
       id="a">
      <stop
         stop-color="#e8f1f1"
         offset="0"
         id="stop5" />
      <stop
         stop-color="#a6f2f2"
         stop-opacity="0"
         offset="1"
         id="stop7" />
    </linearGradient>
    <linearGradient
       id="d">
      <stop
         stop-color="#fff"
         offset="0"
         id="stop10" />
      <stop
         stop-color="#fff"
         stop-opacity="0"
         offset="1"
         id="stop12" />
    </linearGradient>
    <linearGradient
       id="p"
       x1="506.81"
       x2="541.20001"
       y1="507.81"
       y2="533.60999"
       gradientUnits="userSpaceOnUse"
       gradientTransform="matrix(0.4803479,0,0,0.4803479,96.720004,-155.39939)">
      <stop
         stop-color="#d0cfce"
         offset="0"
         id="stop15" />
      <stop
         stop-color="#e1dcd9"
         stop-opacity=".749"
         offset=".124"
         id="stop17" />
      <stop
         stop-color="#907e72"
         stop-opacity=".498"
         offset=".2053"
         id="stop19" />
      <stop
         stop-color="#502d16"
         stop-opacity="0"
         offset="1"
         id="stop21" />
    </linearGradient>
    <radialGradient
       id="k"
       cx="-545.54999"
       cy="806.78003"
       r="142.28999"
       gradientTransform="matrix(0.4871208,-0.02300387,0.01288773,0.27291447,439.77967,37.537142)"
       gradientUnits="userSpaceOnUse">
      <stop
         stop-color="#7d7d7d"
         offset="0"
         id="stop24" />
      <stop
         stop-color="#e4e1e1"
         offset=".4605"
         id="stop26" />
      <stop
         stop-color="#d5d2d2"
         offset=".8267"
         id="stop28" />
      <stop
         stop-color="#f9f0f0"
         offset="1"
         id="stop30" />
    </radialGradient>
    <radialGradient
       id="j"
       cx="957.52002"
       cy="318.32999"
       r="29.483999"
       gradientTransform="matrix(0.49706402,0.13521793,-0.07280633,0.25470447,-143.77098,-83.409656)"
       gradientUnits="userSpaceOnUse">
      <stop
         offset="0"
         id="stop33" />
      <stop
         stop-color="#734221"
         offset=".1499"
         id="stop35" />
      <stop
         stop-color="#28170b"
         offset="1"
         id="stop37" />
    </radialGradient>
    <radialGradient
       id="i"
       cx="1085.6"
       cy="221.06"
       r="113.57"
       gradientTransform="matrix(-0.81414162,0.72887984,-0.17366979,-0.20189023,1222.0311,-634.55124)"
       gradientUnits="userSpaceOnUse">
      <stop
         stop-color="#d0cfce"
         offset="0"
         id="stop40" />
      <stop
         stop-color="#e1dcd9"
         stop-opacity=".749"
         offset=".0547"
         id="stop42" />
      <stop
         stop-color="#907e72"
         stop-opacity=".498"
         offset=".4124"
         id="stop44" />
      <stop
         stop-color="#502d16"
         stop-opacity="0"
         offset="1"
         id="stop46" />
    </radialGradient>
    <radialGradient
       id="h"
       cx="-541.82001"
       cy="722.27002"
       r="151.91"
       gradientTransform="matrix(0.90502418,0.05611443,-0.02031383,0.32765954,661.26384,367.4077)"
       gradientUnits="userSpaceOnUse">
      <stop
         stop-color="#808080"
         offset="0"
         id="stop49" />
      <stop
         stop-color="#e8e8e8"
         offset=".9373"
         id="stop51" />
      <stop
         stop-color="#e0e0e0"
         offset=".9373"
         id="stop53" />
      <stop
         stop-color="#808080"
         offset="1"
         id="stop55" />
    </radialGradient>
    <radialGradient
       id="e"
       cx="-572.84998"
       cy="820.60999"
       r="150.10001"
       gradientTransform="matrix(0.3005777,0.43358603,-0.24086565,0.16697374,543.05926,393.35005)"
       gradientUnits="userSpaceOnUse">
      <stop
         stop-color="#ededed"
         offset="0"
         id="stop58" />
      <stop
         stop-color="#4d4d4d"
         stop-opacity="0"
         offset="1"
         id="stop60" />
    </radialGradient>
    <radialGradient
       id="o"
       cx="-543.34998"
       cy="738.48999"
       r="113.87"
       gradientTransform="matrix(0.60950946,0,0,0.21592758,438.67541,422.93059)"
       gradientUnits="userSpaceOnUse"
       xlink:href="#a" />
    <radialGradient
       id="n"
       cx="-543.34998"
       cy="738.48999"
       r="113.87"
       gradientTransform="matrix(0.60950946,0,0,0.21592758,453.09739,419.6534)"
       gradientUnits="userSpaceOnUse"
       xlink:href="#a" />
    <radialGradient
       id="b"
       cx="-543.34998"
       cy="738.48999"
       r="113.87"
       gradientTransform="matrix(0.60950946,0,0,0.21592758,524.56847,427.52102)"
       gradientUnits="userSpaceOnUse"
       xlink:href="#a" />
    <radialGradient
       id="m"
       cx="-543.34998"
       cy="738.48999"
       r="113.87"
       gradientTransform="matrix(0.60950946,0,0,0.21592758,420.31369,414.41227)"
       gradientUnits="userSpaceOnUse"
       xlink:href="#a" />
    <radialGradient
       id="l"
       cx="-543.34998"
       cy="738.48999"
       r="113.87"
       gradientTransform="matrix(0.60950946,0,0,0.21592758,489.17011,403.91817)"
       gradientUnits="userSpaceOnUse"
       xlink:href="#a" />
    <radialGradient
       id="c"
       cx="-543.34998"
       cy="738.48999"
       r="113.87"
       gradientTransform="matrix(0.60950946,0,0,0.21592758,459.00106,436.05117)"
       gradientUnits="userSpaceOnUse"
       xlink:href="#a" />
    <radialGradient
       id="g"
       cx="-317.76999"
       cy="591.32001"
       r="244.47"
       gradientTransform="matrix(0.39855906,0.3207523,-0.3087244,0.38361545,552.22912,80.067145)"
       gradientUnits="userSpaceOnUse"
       xlink:href="#d" />
    <radialGradient
       id="f"
       cx="-414.60999"
       cy="647.39001"
       r="117.75"
       gradientTransform="matrix(0.05438979,0.03463788,-0.34085487,0.53520361,469.94551,-101.48034)"
       gradientUnits="userSpaceOnUse"
       xlink:href="#d" />
  </defs>
  <path
     transform="matrix(0.37270194,0,0,0.37270194,389.69859,-18.754829)"
     d="m 31.61161,148.62054 c -1.35347,0.047 -2.93747,0.3199 -4.84375,0.90625 -99.8594,57.05779 -164.1182,141.54646 -236.96879,219.40625 l -0.9687,5.46875 -2.9063,16.4375 c -49.6576,67.36642 -99.2507,138.79577 -144.5,193.5 -0.6894,0.83342 -1.375,1.64317 -2.0624,2.46875 -2.3002,2.76272 -4.5983,5.48497 -6.875,8.15625 -0.9158,1.0742 -1.8382,2.15996 -2.75,3.21875 -0.5533,0.64255 -1.1045,1.30074 -1.6563,1.9375 -1.3179,1.52046 -2.6593,3.04454 -3.9687,4.53125 -1.6038,1.82117 -3.1907,3.60632 -4.7813,5.375 -1.4118,1.56953 -2.8176,3.0983 -4.2187,4.625 -0.039,0.0429 -0.086,0.0821 -0.125,0.125 -0.6461,0.70357 -1.2938,1.43077 -1.9376,2.125 -3.6388,3.92446 -7.2505,7.70112 -10.8124,11.3125 -0.015,0.0156 -0.016,0.0469 -0.031,0.0625 -1.3845,1.40327 -2.7839,2.77166 -4.1563,4.125 -0.3951,0.38957 -0.7933,0.80215 -1.1874,1.1875 l -0.7813,0.75 c -0.1007,0.0979 -0.2119,0.18363 -0.3125,0.28125 -2.6022,2.52456 -5.1629,4.94862 -7.7188,7.28125 -1.0839,0.98953 -2.1746,1.95254 -3.25,2.90625 -2.9091,2.57923 -5.7808,5.06836 -8.625,7.375 l -0.5937,0.46875 -0.1563,0.125 c -3.1029,2.4946 -6.1665,4.82068 -9.1874,6.96875 l -0.2188,0.15625 c -0.7423,0.52602 -1.4816,1.05821 -2.2188,1.5625 -0.1862,0.12743 -0.3765,0.24897 -0.5624,0.375 -0.3339,0.2263 -0.6673,0.46574 -1,0.6875 -1.0924,0.72781 -2.2005,1.41542 -3.2813,2.09375 l -0.1563,0.0937 -0.3437,0.21875 -0.1563,0.0937 c -1.1935,0.7396 -2.3834,1.44755 -3.5624,2.125 l -0.5313,0.3125 c -0.649,0.36829 -1.293,0.71349 -1.9375,1.0625 -0.066,0.0355 -0.122,0.0897 -0.1875,0.125 -0.8478,0.45695 -1.6914,0.88942 -2.5313,1.3125 -0.6955,0.35024 -1.4037,0.70456 -2.0937,1.03125 -0.8361,0.39579 -1.6721,0.76425 -2.5,1.125 l -0.2187,0.0937 -0.063,0.0312 c -1.4184,0.61177 -2.8246,1.18105 -4.2187,1.6875 l -0.094,0.0312 c -0.7124,0.25765 -1.4192,0.48914 -2.125,0.71875 l -0.2188,0.0625 -0.2188,0.0625 c -0.5914,0.18793 -1.1943,0.39462 -1.7812,0.5625 -0.2795,0.0799 -0.5653,0.14343 -0.8438,0.21875 -0.4426,0.11967 -0.8725,0.23573 -1.3124,0.34375 l -0.375,0.0937 c -0.2397,0.0571 -0.4799,0.10263 -0.7188,0.15625 l -0.9688,0.21875 -0.094,0.0312 c -0.5281,0.10758 -1.0697,0.19116 -1.5937,0.28125 l -0.5626,0.0937 c -0.366,0.0587 -0.7296,0.1375 -1.0937,0.1875 -0.335,0.0459 -0.6667,0.0865 -1,0.125 l -0.375,0.0312 -0.25,0.0312 c -0.156,0.0159 -0.3131,0.017 -0.4687,0.0312 -0.072,0.007 -0.1464,0.025 -0.2188,0.0312 -0.3183,0.0276 -0.652,0.0418 -0.9688,0.0625 l -0.3437,0.0312 c -0.3072,0.0176 -0.6006,0.0202 -0.9063,0.0312 -0.4761,0.015 -0.9653,0.0318 -1.4374,0.0312 h -0.5313 c -0.4073,-0.004 -0.8142,-0.0148 -1.2187,-0.0312 l -1.0938,-0.0625 -0.4062,-0.0312 c -0.6698,-0.053 -1.3382,-0.1312 -2,-0.21875 -5.8625,0.16519 -11.7334,0.31374 -17.5938,0.46875 -3.9289,0.10379 -7.8466,0.21163 -11.7812,0.34375 l -5.0626,0.1875 -3.375,0.125 c -5.6396,0.24134 -11.2965,0.56502 -16.9687,0.96875 -2.6259,0.18679 -5.2397,0.39128 -7.875,0.625 -6.5986,0.58504 -13.2008,1.31777 -19.875,2.28125 -1.3327,0.19234 -2.6637,0.41469 -4,0.625 -13.3733,2.10387 -26.9112,5.09893 -40.75,9.53125 -1.6055,0.64434 -3.1412,1.29335 -4.625,1.9375 -1.493,0.64784 -2.9087,1.29008 -4.2813,1.9375 -1.3646,0.64373 -2.6581,1.29442 -3.9062,1.9375 -5.0035,2.57648 -9.0773,5.13074 -12.3125,7.6875 -0.8075,0.63816 -1.5463,1.2699 -2.25,1.90625 -10.0307,9.06007 -9.6545,17.9133 -2.5937,26.25 15.245,36.90728 34.6412,72.61364 76.4374,101.8125 25.6053,21.07084 72.002,28.76398 116.4063,15.125 1.4801,-0.45463 2.9626,-0.93514 4.4375,-1.4375 1.4749,-0.50236 2.9384,-1.04307 4.4062,-1.59375 32.0359,-13.89014 48.6332,-29.68006 65.6563,-45.4375 10.9001,-11.96716 17.544,-24.04958 21.9375,-36.28125 12.9922,-9.58973 18.8758,-22.6876 13.4375,-40.5 -5.4959,-113.43274 84.9508,-211.42391 171.2187,-314.34375 0.1643,-0.005 0.3357,0.009 0.5,0 h 0.1563 c 0.3692,-0.022 0.724,-0.0541 1.0937,-0.0937 l 1,-0.125 0.25,-0.0312 c 0.3128,-0.0493 0.6243,-0.12609 0.9376,-0.1875 l 0.3124,-0.0625 0.4376,-0.0937 0.1562,-0.0312 0.2812,-0.0625 0.375,-0.0937 c 0.2602,-0.0673 0.5209,-0.1435 0.7813,-0.21875 0.1558,-0.0455 0.3129,-0.10787 0.4687,-0.15625 0.2344,-0.072 0.4842,-0.1404 0.7188,-0.21875 0.1842,-0.0622 0.3782,-0.12146 0.5625,-0.1875 1.7859,-0.63373 3.5769,-1.45718 5.375,-2.4375 0.3094,-0.16946 0.6277,-0.35216 0.9375,-0.53125 0.3953,-0.22795 0.7917,-0.47525 1.1875,-0.71875 l 0.031,-0.0312 0.2187,-0.125 c 0.075,-0.0466 0.144,-0.10907 0.2187,-0.15625 5.50489,-3.47084 11.06259,-8.3914 16.65629,-14.375 l 0.0313,-0.0312 c 0.6499,-0.6951 1.2865,-1.4026 1.9374,-2.125 3.9092,-4.34167 7.8434,-9.15681 11.7813,-14.3125 0.4859,-0.63548 0.9825,-1.29216 1.4687,-1.9375 0.8219,-1.09209 1.646,-2.19438 2.4688,-3.3125 0.0477,-0.0647 0.1086,-0.12272 0.1562,-0.1875 2.5672,-3.49296 5.1446,-7.15271 7.7188,-10.84375 0.914,-1.30953 1.8354,-2.6412 2.75,-3.96875 l 1.2188,-1.75 c 1.3478,-1.96596 2.6825,-3.94565 4.0312,-5.9375 2.6187,-3.86999 5.2239,-7.7537 7.8438,-11.65625 2.6403,-3.93158 5.2681,-7.83979 7.9062,-11.71875 3.6276,-5.79099 7.4119,-11.49303 11.3125,-17.125 1.9501,-2.81572 3.9279,-5.62535 5.9375,-8.40625 2.0147,-2.78798 4.0563,-5.55602 6.125,-8.3125 2.0633,-2.74947 4.1388,-5.46609 6.25,-8.1875 10.5531,-13.60351 21.68243,-26.87486 33,-40.03125 0.005,-0.006 -0.005,-0.0253 0,-0.0312 4.52404,-5.25896 9.09097,-10.48427 13.65625,-15.71875 0.005,-0.006 -0.005,-0.0253 0,-0.0312 4.56532,-5.2345 9.15842,-10.45064 13.71875,-15.6875 0.005,-0.006 -0.005,-0.0253 0,-0.0312 2.27756,-2.61548 4.57608,-5.22267 6.84375,-7.84375 0.005,-0.006 -0.005,-0.0253 0,-0.0312 0.37215,-0.43017 0.7532,-0.85089 1.125,-1.28125 l 0.6875,-0.78125 1.34375,-1.5625 c 1.22015,-1.41643 2.44105,-2.83075 3.65625,-4.25 5.46499,-6.02975 10.02711,-12.2373 13.65625,-18.625 0.005,-0.008 -0.005,-0.0232 0,-0.0312 0.44936,-0.79149 0.89223,-1.57784 1.3125,-2.375 0.004,-0.008 -0.004,-0.0231 0,-0.0312 0.844,-1.60212 1.6497,-3.21847 2.375,-4.84375 0.004,-0.009 -0.004,-0.0224 0,-0.0312 0.10736,-0.24081 0.20776,-0.47743 0.3125,-0.71875 0.005,-0.0125 0.0258,-0.0187 0.0312,-0.0312 0.59576,-1.37465 1.14627,-2.76486 1.65625,-4.15625 0.003,-0.009 -0.003,-0.022 0,-0.0312 0.90681,-2.47699 1.68178,-4.96909 2.3125,-7.5 -0.005,-0.007 0.005,-0.0245 0,-0.0312 -0.47725,-0.62537 -0.87686,-1.27151 -1.3125,-1.9375 l -0.0312,0.0312 c -0.24738,-0.3783 -0.46313,-0.75475 -0.71875,-1.125 -1.57592,-2.28263 -3.47083,-4.26615 -7.53125,-4.125 z"
     fill="#b3b3b3"
     filter="url(#q)"
     id="path73"
     style="display:inline" />
  <path
     d="m 131.80461,248.47232 c 5.89868,14.84467 12.99966,29.3406 29.74266,41.03708 10.17954,8.37679 29.17778,11.08547 46.68454,4.51786 11.94001,-5.17671 18.12689,-11.06913 24.4718,-16.94187 7.52321,-8.26006 9.62136,-16.6527 10.98652,-25.31193 z"
     fill="#4d4d4d"
     id="path75"
     style="display:inline;stroke-width:0.480348" />
  <path
     d="m 313.04468,113.11027 c -29.71048,21.59116 16.78576,-9.99315 -3.06923,17.87808 -32.23518,38.47874 -66.1487,75.08318 -64.09281,117.48349 6.38766,20.92155 -29.07643,24.39639 -57.60333,24.4718 -24.54097,-3.9537 -80.0836,-19.26724 -41.79026,-34.63693 16.49226,-5.28238 31.91383,-5.20986 47.43724,-5.64745 24.72301,3.2705 61.56618,-58.39109 100.78178,-111.15731 16.14642,-26.103059 -13.63227,21.80203 11.06338,-4.30113 8.71975,-4.33278 7.57316,-13.7879 7.27438,-4.09242 z"
     fill="#4d4d4d"
     id="path77"
     style="display:inline;stroke-width:0.480348" />
  <path
     d="m 131.80461,248.47232 c 5.89868,14.84467 12.99966,29.3406 29.74266,41.03708 10.17954,8.37679 29.17778,11.08547 46.68454,4.51786 11.94001,-5.17671 18.12689,-11.06913 24.4718,-16.94187 7.52321,-8.26006 9.62136,-16.6527 10.98652,-25.31193 z"
     fill="url(#e)"
     id="path79"
     style="display:inline;fill:url(#e);stroke-width:0.480348" />
  <path
     d="m 310.25386,116.70809 c -29.71048,21.59115 17.31799,-16.64838 -2.53676,11.22285 -32.2352,38.47875 -66.14871,75.88536 -64.09283,118.28086 6.38768,20.92155 -29.07642,24.39638 -57.60331,24.4718 -24.54098,-3.9537 -80.08361,-19.26724 -41.79028,-34.63692 16.49227,-5.28239 31.91384,-5.20986 47.43725,-5.64746 24.72302,3.27051 64.22731,-58.39108 103.44291,-111.1573 16.14642,-26.103064 -8.3081,16.74397 13.99205,-4.30113 8.71976,-4.33279 1.45032,-7.93103 1.15164,1.76431 z"
     fill="#b3b3b3"
     id="path81"
     style="display:inline;stroke-width:0.480348" />
  <path
     d="m 253.19333,176.44896 c -23.91796,31.64195 -45.74353,56.03738 -61.53256,53.94787 -4.69641,0.13233 -9.38264,0.21788 -14.09294,0.41928 14.44359,7.16679 39.37701,19.80283 60.78324,30.67839 5.02106,-3.59022 7.32674,-8.52618 5.2646,-15.28083 -1.09625,-22.62583 8.05304,-43.83175 21.72181,-64.53474 l -12.14799,-5.22955 z"
     fill="url(#f)"
     id="path83"
     style="display:inline;fill:url(#f);stroke-width:0.480348" />
  <path
     d="m 310.25386,116.70809 c -29.71048,21.59115 17.31799,-16.64838 -2.53676,11.22285 -32.2352,38.47875 -66.14871,75.88536 -64.09283,118.28086 6.38768,20.92155 -29.07642,24.39638 -57.60331,24.4718 -24.54098,-3.9537 -80.08361,-19.26724 -41.79028,-34.63692 16.49227,-5.28239 31.91384,-5.20986 47.43725,-5.64746 24.72302,3.27051 64.22731,-58.39108 103.44291,-111.1573 16.14642,-26.103064 -8.3081,16.74397 13.99205,-4.30113 8.71976,-4.33279 1.45032,-7.93103 1.15164,1.76431 z"
     fill="url(#g)"
     opacity="0.4754"
     id="path85"
     style="display:inline;fill:url(#g);stroke-width:0.480348" />
  <path
     d="m 309.41805,131.32507 c 9.89229,0.0197 20.39942,-17.3665 30.8345,-32.709776 10.81599,-17.266582 25.1587,-32.469112 38.61805,-48.188497 4.07859,-4.500043 6.8267,-9.259666 8.08281,-14.310525 -1.10715,-1.450987 -1.59937,-3.501928 -5.38854,-2.336412 -37.21784,21.265481 -61.1627,52.756612 -88.31197,81.77443 l -1.4968,8.46949 c 3.22539,-6.84111 22.89241,-0.71005 17.66238,7.30129 z"
     fill="#2b1100"
     id="path89"
     style="stroke-width:0.480348" />
  <path
     d="m 309.41805,131.32507 c 9.89229,0.0197 20.39942,-17.3665 30.8345,-32.709776 10.81599,-17.266582 25.1587,-32.469112 38.61805,-48.188497 4.07859,-4.500043 6.8267,-9.259666 8.08281,-14.310525 -1.10715,-1.450987 -1.59937,-3.501928 -5.38854,-2.336412 -37.21784,21.265481 -61.1627,52.756612 -88.31197,81.77443 l -1.4968,8.46949 c 3.22539,-6.84111 22.89241,-0.71005 17.66238,7.30129 z"
     fill="url(#i)"
     id="path91"
     style="fill:url(#i);stroke-width:0.480348" />
  <path
     d="m 386.46105,35.385183 c -27.73144,26.165031 -48.80814,56.11424 -71.27402,85.276157 l 1.63717,7.79413 c 7.65387,-5.55714 15.56471,-18.26907 23.4309,-29.834886 10.81599,-17.266589 25.16446,-32.476322 38.62381,-48.193306 4.07859,-4.500044 6.82478,-9.259667 8.0809,-14.310525 -0.17788,-0.233069 -0.33538,-0.480079 -0.49775,-0.728304 z"
     fill="#502d16"
     id="path93"
     style="stroke-width:0.480348" />
  <path
     d="m 386.46105,35.385183 c -27.73144,26.165031 -48.80814,56.11424 -71.27402,85.276157 l 1.63717,7.79413 c 7.65387,-5.55714 15.56471,-18.26907 23.4309,-29.834886 10.81599,-17.266589 25.16446,-32.476322 38.62381,-48.193306 4.07859,-4.500044 6.82478,-9.259667 8.0809,-14.310525 -0.17788,-0.233069 -0.33538,-0.480079 -0.49775,-0.728304 z"
     fill="url(#p)"
     opacity="0.4959"
     id="path95"
     style="fill:url(#p);stroke-width:0.480348" />
  <path
     d="m 297.21722,116.76092 c -1.63214,0.006 -3.12044,0.25338 -4.32208,0.83052 l -1.13948,6.42706 c 3.22539,-6.84112 22.89819,-0.70275 17.66816,7.30849 2.31844,0.005 4.66908,-0.96209 7.04622,-2.61933 l -1.50618,-6.18401 c -3.66116,-2.48157 -11.72625,-5.78387 -17.74693,-5.76273 z"
     fill="#28170b"
     id="path97"
     style="stroke-width:0.480348" />
  <path
     d="m 297.21722,116.76092 c -1.63214,0.006 -3.12044,0.25338 -4.32208,0.83052 l -1.13948,6.42706 c 3.22539,-6.84112 22.89819,-0.70275 17.66816,7.30849 2.31844,0.005 4.66908,-0.96209 7.04622,-2.61933 l -1.50618,-6.18401 c -3.66116,-2.48157 -11.72625,-5.78387 -17.74693,-5.76273 z"
     fill="url(#j)"
     id="path99"
     style="fill:url(#j);stroke-width:0.480348" />
  <path
     d="m 196.58914,231.25665 c -1.75035,0.3483 -3.4317,0.42242 -5.0398,0.20275 -14.53967,0.42304 -28.98421,0.35453 -44.43124,5.463 -35.86758,14.86436 16.15507,29.67589 39.14067,33.49946 24.63032,-0.0673 54.78848,-2.92878 54.66359,-19.22785 -2e-5,-0.004 4e-5,-0.007 0,-0.0112 -10.90149,-7.72015 -29.42131,-15.46288 -44.33322,-19.92627 z"
     fill="url(#k)"
     id="path101"
     style="fill:url(#k);stroke-width:0.480348" />
</svg>
