<?xml version="1.0" encoding="UTF-8" standalone="no"?>
<svg
   xmlns:dc="http://purl.org/dc/elements/1.1/"
   xmlns:cc="http://creativecommons.org/ns#"
   xmlns:rdf="http://www.w3.org/1999/02/22-rdf-syntax-ns#"
   xmlns:svg="http://www.w3.org/2000/svg"
   xmlns="http://www.w3.org/2000/svg"
   xmlns:xlink="http://www.w3.org/1999/xlink"
   xmlns:sodipodi="http://sodipodi.sourceforge.net/DTD/sodipodi-0.dtd"
   xmlns:inkscape="http://www.inkscape.org/namespaces/inkscape"
   version="1.1"
   id="Layer_1"
   x="0px"
   y="0px"
   width="125mm"
   height="88mm"
   viewBox="0 0 472.44095 332.59842"
   enable-background="new 0 0 800 800"
   xml:space="preserve"
   inkscape:version="1.0.2-2 (e86c870879, 2021-01-15)"
   sodipodi:docname="ladybug.svg"><metadata
   id="metadata123"><rdf:RDF><cc:Work
       rdf:about=""><dc:format>image/svg+xml</dc:format><dc:type
         rdf:resource="http://purl.org/dc/dcmitype/StillImage" /><dc:title></dc:title></cc:Work></rdf:RDF></metadata><defs
   id="defs121"><radialGradient
     inkscape:collect="always"
     xlink:href="#SVGID_2_"
     id="radialGradient181"
     gradientUnits="userSpaceOnUse"
     gradientTransform="matrix(-0.76173676,-0.22471541,0.17726799,-0.60067332,494.37752,483.96338)"
     cx="454.2959"
     cy="321.65231"
     r="172.8997" /><radialGradient
     inkscape:collect="always"
     xlink:href="#SVGID_2_"
     id="radialGradient205"
     gradientUnits="userSpaceOnUse"
     gradientTransform="matrix(0.76173676,-0.22471541,-0.17726799,-0.60067332,-21.638799,483.96338)"
     cx="454.2959"
     cy="321.65231"
     r="172.8997" /></defs><sodipodi:namedview
   pagecolor="#ffffff"
   bordercolor="#666666"
   borderopacity="1"
   objecttolerance="10"
   gridtolerance="10"
   guidetolerance="10"
   inkscape:pageopacity="0"
   inkscape:pageshadow="2"
   inkscape:window-width="1920"
   inkscape:window-height="1017"
   id="namedview119"
   showgrid="false"
   inkscape:zoom="1.305"
   inkscape:cx="201.31879"
   inkscape:cy="46.890434"
   inkscape:window-x="-8"
   inkscape:window-y="-8"
   inkscape:window-maximized="1"
   inkscape:current-layer="Layer_1"
   inkscape:document-rotation="0"
   units="mm" />
<path
   fill="#1a1d1e"
   stroke="#888a85"
   stroke-width="1.41176"
   d="m 296.2771,219.773 5.40213,12.95136 0.92071,9.45266 -3.86761,6.01533 c 0,0 -2.08695,11.66236 -3.98976,17.24802 -1.47314,4.23528 -5.58566,12.09204 -5.58566,12.09204 l -3.13042,0.92071 1.77882,3.98976 c 0.92071,3.00766 0.3069,11.72436 -0.92072,21.48331 h 4.05237 l -5.83118,4.05175 -6.69052,-2.70076 c 1.90281,-0.85933 3.805,-1.65728 5.7698,-2.45524 -2.21094,-11.60098 -2.76214,-18.41426 -2.63999,-23.50887 l 15.65213,-36.03058 -9.75956,-9.39128 z"
   id="path3" />
<path
   fill="#1a1d1e"
   stroke="#888a85"
   stroke-width="1.41176"
   d="m 175.13498,221.01778 -5.40152,12.95137 -0.92071,9.45265 3.867,6.01533 c 0,0 2.08695,11.66237 3.98975,17.24864 1.47315,4.1739 5.58567,12.09142 5.58567,12.09142 l 3.1918,0.85934 -1.84143,4.05113 c -0.92071,2.9469 -0.3069,11.72437 0.92072,21.48331 h -4.05114 l 5.83118,4.05175 6.69052,-2.70075 c -1.90281,-0.85872 -3.80562,-1.65729 -5.7698,-2.51662 2.20971,-11.60099 2.76214,-18.35288 2.63937,-23.4475 l -15.65212,-36.03058 6.26085,-6.50637 z"
   id="path5" />
<path
   id="path7"
   d="m 234.7798,84.563658 c -16.5574,-0.26438 -39.2438,25.218482 -68.09682,94.657232 0,61.93331 39.10024,118.15796 68.43969,112.38815 29.33944,5.76981 68.43968,-50.45484 68.43968,-112.38815 -29.0537,-69.92173 -51.85296,-95.27004 -68.43968,-94.644041 -0.11437,-0.0043 -0.22792,-0.01136 -0.34287,-0.0132 z"
   style="stroke-width:0.613809" /><g
   id="g203"
   transform="matrix(0.61380883,0,0,0.61380883,-0.8063748,-81.422994)"><path
     opacity="0.4"
     fill="#eeeeec"
     stroke="#d3d7cf"
     stroke-width="3"
     enable-background="new    "
     d="m 386.4,430.4 c -9.601,27.399 -16.1,65.1 -80,152.699 -33.699,46.2 -80.4,51.4 -125.299,65.5 C 140.4,661.5 95.7,675.2 54.2,665.2 42.399,662.3 24.899,656.599 24.3,644.5 23.499,629.5 39.999,626.6 89.9,589.9 L 180.101,523.3 352.8,371.7 c 23,6.2 59.9,-3.3 33.6,58.7 z"
     id="path149" /><path
     opacity="0.4"
     fill="none"
     stroke="#babdb6"
     stroke-width="0.765"
     stroke-linecap="round"
     enable-background="new    "
     d="m 200.7,633.7 5.799,-10.601 m -33.398,1.301 -6.201,-3.4 -7.199,0.7 -6.6,6.399 L 182.9,604.6 c -0.199,1 -7.199,11.301 -7.199,11.301 l -2.801,6.399 0.4,2.601 -0.4,8.5 -4.699,7.3 -3.9,4.899 -3.6,9.5 m -97.901,-30 -8.6,5.2 c -3.1,1 -9.6,0.8 -9.6,0.8 l -7.201,4.7 -5.4,2.8 h -4.6 m 30.202,25 0.699,-5.4 c 0,0 1.9,-3.2 2.1,-4.9 0.801,-6.5 1.1,-10.899 1.1,-10.899 l 3,-6.4 -1,-7.2 -0.5,-11.399 -1.799,-3.101 m 47.4,42.799 c -4.4,-0.399 -4.4,-0.399 -4.4,-0.399 0,0 -1.801,-2.9 -4.6,-1.9 -2.9,1 -13.602,1.6 -13.602,1.6 l -5.699,-3.6 1,-10.4 M 142.601,604.3 c -1.5,3.5 -0.9,1.9 -1.701,4.8 -0.9,3.3 -0.199,3.8 -0.299,6.2 -3.602,5.6 -7.701,12.3 -7.701,12.3 -0.799,0.8 -0.4,2.3 -1,4 m -29.5,-8.201 c 0,0 -1.199,-1.3 -3.1,-2.899 -1.801,-1.601 -4.6,-1.3 -3.6,-3.9 1,-2.6 1.299,-1.5 1.299,-3.3 0,-1.8 0.301,-6.7 0.301,-6.7 l -3.1,-8 1,-4.899 2.799,-3.601 1.102,-4.899 M 196.7,553.2 l -3.6,4.3 -2.9,7.8 c -1.201,1.5 -15.5,15 -16.9,16.7 -0.6,1.399 -13.6,12.5 -13.6,12.5 l -15,8.8 -7.701,3.6 -5.1,0.2 c 0,0 -4.9,4.6 -6,5.7 -1,1 -7.5,2.3 -7.5,2.3 l -7,2.6 -3.6,1.2 m 98.001,15.299 -0.199,-6.199 1,-5.2 c 0,0 1.1,-4.601 1.1,-5.9 0,-1.2 -0.801,-7.8 -0.801,-7.8 l 0.5,-15.9 0.301,-10.3 -0.6,-6.5 c -1.602,-0.8 -2.301,-1.1 -2,-3.399 0.199,-1 -0.602,-3.601 -0.602,-3.601 l -2.898,-2.6 c -0.602,-1.4 0.5,-2.7 0.699,-4.2 -0.5,-1 -0.6,-1.3 -2.9,-3.9 -2.299,-2.6 -2.6,-5.5 -2.6,-5.5 l -6.9,-2.8 c -3,-0.7 -6.4,-0.8 -10,-0.8 -3.699,0.4 -7.5,1.1 -9.9,-0.5 l -4.1,-1.3 m 62.4,13.7 3.6,4.3 c 0,0 3.301,-1.5 1.301,5.5 -2.1,6.899 -1.301,20.6 -1.301,20.6 0,0 -0.299,8.8 -0.299,10.601 0,1.8 0.299,13.6 0.299,13.6 0,0 -1.799,4.1 -2,5.2 -0.299,1 -0.6,6.7 -0.6,6.7 l 0.301,4.399 -0.201,1.8 m 55.599,-32.801 -0.199,-12.099 -10.9,-11.101 -5.9,-4.3 -7.5,-6 -5.398,-7.2 -0.201,-17.3 -0.299,0.3 -85.4,-1.8 -15.5,30.4 -12.801,17.6 -26.3,23.101 -33.5,29.399 -11.4,11.9 -6.701,9.3 127.4,-77.3 c 1.6,-5.7 2.4,-4.9 6.201,-10.7 1.5,-2.3 4.1,-5.6 4.6,-8.2 0.699,-4.3 1.699,-5.8 2,-7 l 7.299,-8.3 4.4,-6.2 4.201,-5.2 11,-11.699 M 312.7,489.3 c 2.6,4.2 -5.5,14 -13.5,23.7 -3.201,1.6 -7.4,4.699 -12.9,8.199 -14.4,9.4 -41.699,28.101 -49.5,32 -2,1.301 -3.5,3 -5.199,4.4 -0.801,0.6 -2.201,0.7 -2.701,1.5 -2.9,4.1 -3.9,3.6 -5.4,5.5 l -16.1,9.9 -2,0.399 M 385.3,437.2 359,464 l -17.5,41.8 -50.6,36.1 -36,1.5 0.4,-0.5"
     id="path151" /></g>
<path
   fill="#1a1d1e"
   stroke="#888a85"
   stroke-width="1.41176"
   d="m 299.40752,9.9731401 11.04856,3.8669959 -4.66495,2.516616 0.92072,2.82352 c -4.05114,6.629136 -6.7519,12.276177 -10.80304,18.04598 0.9821,4.1739 3.43733,10.43475 3.13043,16.756981 l -0.30691,28.173828 c 0.36829,10.005084 -5.09523,8.102277 -8.04089,10.618893 -10.06647,0.859332 -19.70327,8.040896 -20.07217,-4.910471 l 5.03385,-6.629135 c 1.78005,-2.332474 11.04856,-5.585661 17.12527,-5.401518 -1.47314,-10.9258 -3.13166,-19.334981 -3.80623,-37.38096 3.68285,-5.462899 8.90023,-14.915555 9.75956,-21.115024 l 3.2538,-2.209712 z"
   id="path9" />
<path
   fill="#1a1d1e"
   stroke="#888a85"
   stroke-width="1.41176"
   d="m 164.73787,4.8171459 -9.45266,7.3043251 5.58566,1.657284 -0.24552,4.051138 11.04855,12.705843 c 0.12277,4.419423 -2.82352,9.268513 -3.13042,15.590744 -0.24552,3.989757 1.04347,8.961609 1.289,12.889985 l -0.24553,17.18665 c 2.14834,3.314568 4.84909,6.19947 7.79538,8.716086 2.14833,0.429666 2.51661,0.859332 5.09461,0 7.54985,6.138088 18.78255,3.805614 14.54727,-3.805615 l -5.09461,-6.567754 c -1.78005,-2.393855 -11.04856,-5.647042 -17.06389,-5.401518 1.41176,-10.987181 3.13043,-19.396362 3.80562,-37.380961 -1.35038,-5.647041 -6.56776,-12.644461 -10.12785,-19.028073 l -2.8849,-1.534522 z"
   id="path11" />

<path
   fill="#1a1d1e"
   stroke="#888a85"
   stroke-width="1.41176"
   d="m 201.75054,55.026708 c -2.2711,1.166237 -4.91047,1.227618 -7.18157,9.636798 -0.9827,3.682856 -1.16623,8.900231 3.13043,19.887409 20.50121,14.363127 44.50114,19.273595 75.68201,4.480805 0,0 3.74547,-7.856753 4.23528,-12.092034 0.61381,-4.971851 0.61381,-10.250607 -1.34976,-14.976938 -1.22762,-2.946283 -5.58566,-7.181564 -5.58566,-7.181564 z"
   id="path15" />
<path
   fill="#1a1d1e"
   stroke="#888a85"
   stroke-width="1.41176"
   d="m 197.02421,54.535661 h 75.62125 c 1.5959,0 2.57738,-3.989758 1.41237,-5.094613 -6.07671,-5.585661 -6.8145,-14.301746 -38.11814,-13.87208 -30.1994,-0.67519 -28.84902,4.1739 -38.05615,12.276177 0,0 -3.13042,6.690516 -0.85933,6.690516 z"
   id="path17" />
<path
   fill="#1a1d1e"
   stroke="#888a85"
   stroke-width="1.41176"
   d="m 223.17247,9.6048548 4.91047,2.1483312 0.92071,5.892564 -8.3478,1.104856 c 0,0 -7.30433,4.1739 -8.71609,6.199469 -0.85933,1.227618 -2.21032,5.217375 -2.21032,5.217375 l 4.05175,7.427087 c -2.63938,0.920713 -4.91047,2.577997 -6.93604,2.455236 -0.98271,-4.542186 -2.08695,-7.488468 -2.76214,-12.092034 -0.062,-0.552428 2.33247,-5.585661 3.867,-6.997421 2.63937,-2.209712 8.96161,-4.84909 8.96161,-4.84909 z"
   id="path19" />
<path
   fill="#1a1d1e"
   stroke="#888a85"
   stroke-width="1.41176"
   d="m 249.99591,10.402806 -4.72571,2.393855 -1.10486,6.26085 7.67261,0.73657 c 0,0 6.56837,4.051139 7.79599,6.076708 0.67519,1.166236 1.77882,5.278756 1.77882,5.278756 l -4.17329,7.979514 c 2.39385,0.797952 4.41881,2.332474 6.38361,2.148331 1.04286,-4.787709 2.20971,-7.979515 3.06905,-12.767223 0.12214,-0.491047 -1.84143,-5.647042 -3.13166,-6.997421 -2.33186,-2.271093 -8.10166,-4.664947 -8.10166,-4.664947 z"
   id="path21" />

<path
   opacity="0.4"
   fill="none"
   stroke="#babdb6"
   stroke-width="0.469564"
   stroke-linecap="round"
   enable-background="new    "
   d="m 350.35365,307.54766 -3.55947,-6.50699 m 20.49998,0.79857 3.80623,-2.08695 4.41881,0.42966 4.05114,3.92777 -18.29089,-14.4239 c 0.12215,0.61381 4.41881,6.93666 4.41881,6.93666 l 1.71928,3.92776 -0.24552,1.59651 0.24552,5.21738 2.88429,4.4808 2.39385,3.00705 2.20971,5.83119 m 60.0925,-18.41427 5.27876,3.19181 c 1.9028,0.61381 5.89256,0.49105 5.89256,0.49105 l 4.42004,2.8849 3.31457,1.71866 h 2.82352 m -18.53826,15.34522 -0.42905,-3.31457 c 0,0 -1.16624,-1.96418 -1.289,-3.00766 -0.49166,-3.98976 -0.67519,-6.6899 -0.67519,-6.6899 l -1.84142,-3.92838 0.61381,-4.41942 0.3069,-6.99681 1.10424,-1.90342 m -29.09454,26.27041 c 2.70076,-0.24491 2.70076,-0.24491 2.70076,-0.24491 0,0 1.10547,-1.78005 2.82352,-1.16624 1.78005,0.61381 8.34903,0.98209 8.34903,0.98209 l 3.4981,-2.20971 -0.61381,-6.38361 m -37.6271,-23.38673 c 0.92072,2.14833 0.55243,1.16624 1.04409,2.94628 0.55243,2.02557 0.12215,2.33248 0.18353,3.80562 2.21094,3.43733 4.72694,7.54984 4.72694,7.54984 0.49044,0.49105 0.24553,1.41177 0.61381,2.45524 m 18.10736,-5.03385 c 0,0 0.73596,-0.79795 1.90281,-1.77943 1.10547,-0.98271 2.82352,-0.79795 2.20971,-2.39385 -0.61381,-1.59591 -0.79734,-0.92072 -0.79734,-2.02557 0,-1.10486 -0.18475,-4.11252 -0.18475,-4.11252 l 1.9028,-4.91047 -0.6138,-3.00705 -1.71806,-2.21033 -0.67641,-3.00705 m -59.90713,-19.64249 2.20971,2.63938 1.78005,4.7877 c 0.73718,0.92072 9.51403,9.20714 10.37337,10.25061 0.36828,0.85872 8.3478,7.67261 8.3478,7.67261 l 9.20713,5.40152 4.72694,2.20971 3.13043,0.12276 c 0,0 3.00766,2.82352 3.68285,3.49871 0.61381,0.61381 4.60356,1.41176 4.60356,1.41176 l 4.29667,1.59591 2.20971,0.73657 m -60.15388,9.39066 0.12215,-3.805 -0.61381,-3.19181 c 0,0 -0.67519,-2.82413 -0.67519,-3.62147 0,-0.73657 0.49166,-4.78771 0.49166,-4.78771 l -0.3069,-9.75956 -0.18476,-6.32223 0.36828,-3.98976 c 0.98333,-0.49104 1.41238,-0.67519 1.22762,-2.08633 -0.12215,-0.61381 0.36951,-2.21033 0.36951,-2.21033 l 1.77882,-1.5959 c 0.36952,-0.85933 -0.3069,-1.65729 -0.42905,-2.578 0.3069,-0.61381 0.36829,-0.79795 1.78005,-2.39385 1.41114,-1.59591 1.5959,-3.37595 1.5959,-3.37595 l 4.23528,-1.71867 c 1.84143,-0.42966 3.92838,-0.49104 6.13809,-0.49104 2.27048,0.24552 4.60356,0.67519 6.07671,-0.30691 l 2.51661,-0.79795 m -38.30167,8.40918 -2.20971,2.63938 c 0,0 -2.02618,-0.92071 -0.79857,3.37595 1.289,4.23467 0.79857,12.64446 0.79857,12.64446 0,0 0.18353,5.40152 0.18353,6.50699 0,1.10485 -0.18353,8.3478 -0.18353,8.3478 0,0 1.10424,2.51661 1.22762,3.1918 0.18353,0.61381 0.36828,4.11252 0.36828,4.11252 l -0.18475,2.70015 0.12337,1.10485 m -34.12716,-20.13354 0.12215,-7.42647 6.69052,-6.81389 3.62147,-2.63938 4.60357,-3.68286 3.31334,-4.41942 0.12337,-10.61889 0.18353,0.18414 52.41927,-1.10486 9.51404,18.65979 7.85737,10.80304 16.14317,14.1796 20.5626,18.04536 6.99742,7.30433 4.11313,5.70842 -78.19924,-47.44742 c -0.9821,-3.49871 -1.47315,-3.00767 -3.80623,-6.56776 -0.92072,-1.41176 -2.51662,-3.43733 -2.82352,-5.03323 -0.42906,-2.63938 -1.04287,-3.56009 -1.22762,-4.29666 l -4.48019,-5.09462 -2.70076,-3.80561 -2.57861,-3.19181 -6.7519,-7.18095 m -50.69999,-24.36821 c -1.59591,2.578 3.37594,8.59333 8.28641,14.54727 1.96481,0.9821 4.54219,2.88429 7.91814,5.03262 8.83885,5.7698 25.59521,17.24864 30.38354,19.64188 1.22761,0.79857 2.14833,1.84143 3.19119,2.70076 0.49166,0.36829 1.35099,0.42967 1.6579,0.92072 1.78004,2.51661 2.39385,2.20971 3.31456,3.37595 l 9.88233,6.0767 1.22761,0.24491 m -110.4242,-84.52024 16.14317,16.45007 10.74165,25.65721 31.05873,22.1585 22.09712,0.92071 -0.24553,-0.3069"
   id="path25" />
<radialGradient
   id="SVGID_1_"
   cx="483.75879"
   cy="380.0679"
   r="109.4"
   gradientTransform="matrix(0.1617,-1.673,-1.362,-0.1316,809.4764,1308.4456)"
   gradientUnits="userSpaceOnUse">
	<stop
   offset="0"
   style="stop-color:#F80000"
   id="stop28" />
	<stop
   offset="1"
   style="stop-color:#AC0000"
   id="stop30" />
</radialGradient>

<radialGradient
   id="SVGID_2_"
   cx="454.2959"
   cy="321.65231"
   r="172.8997"
   gradientTransform="matrix(1.241,-0.3661,-0.2888,-0.9786,-33.9396,921.1115)"
   gradientUnits="userSpaceOnUse">
	<stop
   offset="0"
   style="stop-color:#F80000"
   id="stop35" />
	<stop
   offset="1"
   style="stop-color:#AC0000"
   id="stop37" />
</radialGradient>
<g
   id="g199"
   transform="matrix(-0.61380883,0,0,0.61380883,473.54509,-81.422994)"><path
     opacity="0.4"
     fill="#eeeeec"
     stroke="#d3d7cf"
     stroke-width="3"
     enable-background="new    "
     d="m 386.4,430.4 c -9.601,27.399 -16.1,65.1 -80,152.699 -33.699,46.2 -80.4,51.4 -125.299,65.5 C 140.4,661.5 95.7,675.2 54.2,665.2 42.399,662.3 24.899,656.599 24.3,644.5 23.499,629.5 39.999,626.6 89.9,589.9 L 180.101,523.3 352.8,371.7 c 23,6.2 59.9,-3.3 33.6,58.7 z"
     id="path193" /><path
     opacity="0.4"
     fill="none"
     stroke="#babdb6"
     stroke-width="0.765"
     stroke-linecap="round"
     enable-background="new    "
     d="m 200.7,633.7 5.799,-10.601 m -33.398,1.301 -6.201,-3.4 -7.199,0.7 -6.6,6.399 L 182.9,604.6 c -0.199,1 -7.199,11.301 -7.199,11.301 l -2.801,6.399 0.4,2.601 -0.4,8.5 -4.699,7.3 -3.9,4.899 -3.6,9.5 m -97.901,-30 -8.6,5.2 c -3.1,1 -9.6,0.8 -9.6,0.8 l -7.201,4.7 -5.4,2.8 h -4.6 m 30.202,25 0.699,-5.4 c 0,0 1.9,-3.2 2.1,-4.9 0.801,-6.5 1.1,-10.899 1.1,-10.899 l 3,-6.4 -1,-7.2 -0.5,-11.399 -1.799,-3.101 m 47.4,42.799 c -4.4,-0.399 -4.4,-0.399 -4.4,-0.399 0,0 -1.801,-2.9 -4.6,-1.9 -2.9,1 -13.602,1.6 -13.602,1.6 l -5.699,-3.6 1,-10.4 M 142.601,604.3 c -1.5,3.5 -0.9,1.9 -1.701,4.8 -0.9,3.3 -0.199,3.8 -0.299,6.2 -3.602,5.6 -7.701,12.3 -7.701,12.3 -0.799,0.8 -0.4,2.3 -1,4 m -29.5,-8.201 c 0,0 -1.199,-1.3 -3.1,-2.899 -1.801,-1.601 -4.6,-1.3 -3.6,-3.9 1,-2.6 1.299,-1.5 1.299,-3.3 0,-1.8 0.301,-6.7 0.301,-6.7 l -3.1,-8 1,-4.899 2.799,-3.601 1.102,-4.899 M 196.7,553.2 l -3.6,4.3 -2.9,7.8 c -1.201,1.5 -15.5,15 -16.9,16.7 -0.6,1.399 -13.6,12.5 -13.6,12.5 l -15,8.8 -7.701,3.6 -5.1,0.2 c 0,0 -4.9,4.6 -6,5.7 -1,1 -7.5,2.3 -7.5,2.3 l -7,2.6 -3.6,1.2 m 98.001,15.299 -0.199,-6.199 1,-5.2 c 0,0 1.1,-4.601 1.1,-5.9 0,-1.2 -0.801,-7.8 -0.801,-7.8 l 0.5,-15.9 0.301,-10.3 -0.6,-6.5 c -1.602,-0.8 -2.301,-1.1 -2,-3.399 0.199,-1 -0.602,-3.601 -0.602,-3.601 l -2.898,-2.6 c -0.602,-1.4 0.5,-2.7 0.699,-4.2 -0.5,-1 -0.6,-1.3 -2.9,-3.9 -2.299,-2.6 -2.6,-5.5 -2.6,-5.5 l -6.9,-2.8 c -3,-0.7 -6.4,-0.8 -10,-0.8 -3.699,0.4 -7.5,1.1 -9.9,-0.5 l -4.1,-1.3 m 62.4,13.7 3.6,4.3 c 0,0 3.301,-1.5 1.301,5.5 -2.1,6.899 -1.301,20.6 -1.301,20.6 0,0 -0.299,8.8 -0.299,10.601 0,1.8 0.299,13.6 0.299,13.6 0,0 -1.799,4.1 -2,5.2 -0.299,1 -0.6,6.7 -0.6,6.7 l 0.301,4.399 -0.201,1.8 m 55.599,-32.801 -0.199,-12.099 -10.9,-11.101 -5.9,-4.3 -7.5,-6 -5.398,-7.2 -0.201,-17.3 -0.299,0.3 -85.4,-1.8 -15.5,30.4 -12.801,17.6 -26.3,23.101 -33.5,29.399 -11.4,11.9 -6.701,9.3 127.4,-77.3 c 1.6,-5.7 2.4,-4.9 6.201,-10.7 1.5,-2.3 4.1,-5.6 4.6,-8.2 0.699,-4.3 1.699,-5.8 2,-7 l 7.299,-8.3 4.4,-6.2 4.201,-5.2 11,-11.699 M 312.7,489.3 c 2.6,4.2 -5.5,14 -13.5,23.7 -3.201,1.6 -7.4,4.699 -12.9,8.199 -14.4,9.4 -41.699,28.101 -49.5,32 -2,1.301 -3.5,3 -5.199,4.4 -0.801,0.6 -2.201,0.7 -2.701,1.5 -2.9,4.1 -3.9,3.6 -5.4,5.5 l -16.1,9.9 -2,0.399 M 385.3,437.2 359,464 l -17.5,41.8 -50.6,36.1 -36,1.5 0.4,-0.5"
     id="path195" /></g><path
   fill="url(#SVGID_2_)"
   stroke="#ef2929"
   stroke-width="1.84143"
   d="m 237.65835,97.625043 c 12.82861,-5.769803 18.84332,-7.304325 33.45258,-10.987178 19.94879,-4.971851 36.15334,10.496131 52.05161,19.641885 13.8107,8.59332 25.59521,17.67769 43.08876,38.24029 17.37141,20.62397 28.48073,66.16859 31.79591,86.3629 0.9821,6.01532 -6.01594,30.38353 -22.52739,29.52481 -16.44947,-0.85933 -25.53445,-8.47117 -42.47496,-13.56578 C 293.39281,227.38423 262.64037,209.64515 237.65897,178.034 V 97.625043 Z"
   id="path39"
   style="fill:url(#radialGradient205)" />







<path
   fill="#1a1d1e"
   stroke="#ef2929"
   stroke-width="1.84143"
   stroke-linecap="round"
   d="m 252.45115,119.29249 c 3.2538,1.90281 7.97951,3.49872 13.13551,-1.41176 5.15599,-4.84909 5.58566,-10.80303 2.08695,-14.30174 -3.49933,-3.49871 -8.90023,-3.928377 -14.05623,0.92071 -2.39385,2.27109 -4.91047,4.54219 -6.01594,7.42709 -1.22761,3.43733 2.9469,5.4629 4.84971,7.3657 z"
   id="path55" />
<path
   fill="#1a1d1e"
   stroke="#ef2929"
   stroke-width="1.84143"
   stroke-linecap="round"
   d="m 296.46185,137.33847 c 6.13809,6.19947 10.80304,3.98976 16.44947,-1.35037 5.64765,-5.34014 8.59332,-12.09204 2.39385,-18.29151 -6.19947,-6.19947 -11.23332,-6.38361 -16.87974,-1.04347 -5.64643,5.34013 -8.16427,14.48589 -1.96358,20.68535 z"
   id="path57" />
<path
   fill="#1a1d1e"
   stroke="#ef2929"
   stroke-width="1.84143"
   stroke-linecap="round"
   d="m 258.95691,156.61207 c 3.74546,3.74424 14.18021,7.18156 17.49355,4.11252 1.59713,-1.53452 4.11313,-4.29666 5.83118,-7.18156 1.90404,-3.00767 -4.41881,-9.3299 -6.32162,-11.2327 -3.74423,-3.74424 -12.64446,-1.59591 -15.89764,1.47314 -3.31457,3.13042 -4.84909,9.08437 -1.10547,12.8286 z"
   id="path59" />
<path
   fill="#1a1d1e"
   stroke="#ef2929"
   stroke-width="1.84143"
   stroke-linecap="round"
   d="m 286.94782,189.38946 c 4.72571,4.72633 6.32161,2.76214 10.31137,0.61381 1.6579,-0.92071 1.53452,-1.22762 3.49932,-2.76214 2.45524,-1.90342 3.74424,-6.38361 -0.12337,-10.25061 -3.92838,-3.92837 -7.36571,-5.40151 -12.09142,-0.92071 -4.72756,4.48081 -5.46351,9.39128 -1.5959,13.31965 z"
   id="path61" />
<path
   fill="#1a1d1e"
   stroke="#ef2929"
   stroke-width="1.84143"
   stroke-linecap="round"
   d="m 338.81466,174.71943 c 6.13809,4.11252 6.44499,2.76214 11.47761,0.73657 2.33309,-0.92071 4.41881,-2.14833 6.19947,-5.03323 3.06905,-4.91047 4.23528,-9.82094 -1.9028,-14.67003 -5.95334,-4.60357 -9.75957,-4.97185 -14.48589,-0.49105 -4.78771,4.48081 -7.42648,15.34522 -1.28839,19.45774 z"
   id="path63" />
<path
   fill="#1a1d1e"
   stroke="#ef2929"
   stroke-width="1.84143"
   stroke-linecap="round"
   d="m 326.47588,229.28703 c 5.95456,1.65729 11.84712,-6.20008 14.91617,-10.43475 5.21737,-7.30432 2.08695,-10.68027 0.36828,-12.88998 -3.06904,-3.867 -6.01471,-7.67261 -11.29408,-2.63938 -3.805,3.56009 -10.18923,8.90023 -10.18923,16.08118 0,2.14894 2.45524,8.83946 6.19886,9.88293 z"
   id="path65" />
<path
   fill="#1a1d1e"
   stroke="#ef2929"
   stroke-width="1.84143"
   stroke-linecap="round"
   d="m 365.02369,234.01336 c 4.1119,3.805 9.08498,4.60357 11.66236,2.39324 2.45524,-2.20971 2.63999,-7.3657 4.23528,-10.86441 2.39386,-5.33953 1.71805,-9.82095 -1.9028,-12.95137 -3.19242,-2.76214 -5.70904,-5.52428 -10.80427,0.36828 -8.34657,9.6988 -5.58443,18.66041 -3.19057,21.05426 z"
   id="path67" />
<path
   fill="#ffffff"
   stroke="#d3d7cf"
   stroke-width="0.939128"
   d="m 245.39235,40.970486 c -4.97124,1.350379 -1.47315,3.437329 0.43028,5.401517 2.02495,-0.184142 3.00643,-0.368285 6.68928,-0.491047 0.24553,-1.288998 1.71928,-1.595903 -0.18353,-4.480804 -2.516,-0.368285 -5.03384,-0.67519 -6.93603,-0.429666 z"
   id="path69" />
<path
   fill="#ffffff"
   stroke="#d3d7cf"
   stroke-width="0.939128"
   d="m 225.44356,40.111153 c 4.97185,1.35038 1.47314,3.43733 -0.36829,5.401518 -2.08695,-0.122762 -3.06904,-0.368285 -6.75189,-0.491047 -0.24553,-1.227618 -1.71928,-1.595903 0.18414,-4.480804 2.578,-0.368286 5.03323,-0.67519 6.93604,-0.429667 z"
   id="path71" />
<path
   fill="#ffffff"
   stroke="#d3d7cf"
   stroke-width="0.939128"
   d="m 215.62262,58.402656 c -0.18415,5.278756 -1.35038,8.347803 -2.02557,12.521704 -5.70842,-0.552428 -11.04856,-1.166237 -17.30941,-1.780046 0.12276,-3.25319 0.18414,-6.506377 0.3069,-8.040899 2.45524,-1.534522 3.56009,-3.49871 4.23528,-5.58566 3.80501,-0.245524 7.24295,-0.184143 10.49614,0.245523 1.9028,0.429667 3.56009,0.982095 4.29666,2.639378 z"
   id="path73" />
<path
   fill="#ffffff"
   stroke="#d3d7cf"
   stroke-width="0.939128"
   d="m 255.8271,59.261989 c 0.18475,5.278756 1.35099,8.347803 2.02618,12.521703 5.7698,-0.613809 11.04856,-1.166237 17.30879,-1.780046 -0.12214,-3.253187 -0.18353,-6.506376 -0.3069,-8.040898 -2.39386,-1.534522 -3.55948,-3.498711 -4.23528,-5.585661 -3.805,-0.245523 -7.24233,-0.184142 -10.49613,0.184143 -1.90281,0.491047 -3.55948,1.043475 -4.29666,2.700759 z"
   id="path75" />
<path
   fill="#1a1d1e"
   stroke="#1a1d1e"
   d="M 236.73764,94.003571 V 178.95471"
   id="path77"
   style="stroke-width:0.613809" />













<text
   font-size="42"
   style="font-size:25.78px;line-height:0%;font-family:MyriadPro-Regular;stroke-width:0.613809"
   id="text3102"
   x="364.71677"
   y="51.466618"> </text>
<text
   transform="translate(595.5,216.5)"
   font-size="42"
   style="font-size:42px;font-family:MyriadPro-Regular"
   id="text3100" />

<text
   transform="translate(642.5,301.5)"
   id="text101"
   style="line-height:0%"><tspan
     x="0"
     y="0"
     font-size="42"
     id="tspan103"
     style="font-size:42px;font-family:MyriadPro-Regular" /></text>
<text
   transform="translate(642.5,301.5)"
   id="text3108"
   style="line-height:0%"><tspan
     x="0"
     y="0"
     font-size="42"
     style="font-size:42px;font-family:MyriadPro-Regular"
     id="tspan3110" /></text>
<text
   transform="translate(642.5,301.5)"
   id="text3104"
   style="line-height:0%"><tspan
     x="0"
     y="0"
     font-size="42"
     style="font-size:42px;font-family:MyriadPro-Regular"
     id="tspan3106" /></text>


<text
   transform="translate(517.5,724.5)"
   font-size="42"
   id="text107"
   style="font-size:42px;font-family:MyriadPro-Regular" />

<text
   transform="translate(301.5,721.5)"
   font-size="42"
   id="text109"
   style="font-size:42px;font-family:MyriadPro-Regular" />







<text
   y="732.02753"
   x="520.32196"
   font-size="42"
   id="text111-2"
   style="font-size:42px;font-family:MyriadPro-Regular" />

<path
   fill="url(#SVGID_2_)"
   stroke="#ef2929"
   stroke-width="1.84143"
   d="m 235.08036,97.625043 c -12.82861,-5.769803 -18.84332,-7.304325 -33.45258,-10.987178 -19.94879,-4.971851 -36.15334,10.496131 -52.05161,19.641885 -13.81069,8.59332 -25.59521,17.67769 -43.08876,38.24029 -17.371406,20.62397 -28.480732,66.16859 -31.795913,86.3629 -0.982094,6.01532 6.01594,30.38353 22.527393,29.52481 16.44947,-0.85933 25.53445,-8.47117 42.47496,-13.56578 39.65205,-19.45774 70.40449,-37.19682 95.38589,-68.80797 V 97.625043 Z"
   id="path153"
   style="fill:url(#radialGradient181)" /><path
   fill="#1a1d1e"
   stroke="#ef2929"
   stroke-width="1.84143"
   stroke-linecap="round"
   d="m 220.28756,119.29249 c -3.2538,1.90281 -7.97951,3.49872 -13.1355,-1.41176 -5.156,-4.84909 -5.58567,-10.80303 -2.08695,-14.30174 3.49932,-3.49871 8.90022,-3.928377 14.05622,0.92071 2.39385,2.27109 4.91047,4.54219 6.01594,7.42709 1.22762,3.43733 -2.9469,5.4629 -4.84971,7.3657 z"
   id="path155" /><path
   fill="#1a1d1e"
   stroke="#ef2929"
   stroke-width="1.84143"
   stroke-linecap="round"
   d="m 176.27686,137.33847 c -6.13809,6.19947 -10.80304,3.98976 -16.44947,-1.35037 -5.64765,-5.34014 -8.59332,-12.09204 -2.39385,-18.29151 6.19947,-6.19947 11.23332,-6.38361 16.87974,-1.04347 5.64643,5.34013 8.16427,14.48589 1.96358,20.68535 z"
   id="path157" /><path
   fill="#1a1d1e"
   stroke="#ef2929"
   stroke-width="1.84143"
   stroke-linecap="round"
   d="m 213.7818,156.61207 c -3.74546,3.74424 -14.18021,7.18156 -17.49355,4.11252 -1.59713,-1.53452 -4.11313,-4.29666 -5.83118,-7.18156 -1.90404,-3.00767 4.41881,-9.3299 6.32162,-11.2327 3.74423,-3.74424 12.64446,-1.59591 15.89764,1.47314 3.31457,3.13042 4.84909,9.08437 1.10547,12.8286 z"
   id="path159" /><path
   fill="#1a1d1e"
   stroke="#ef2929"
   stroke-width="1.84143"
   stroke-linecap="round"
   d="m 185.79089,189.38946 c -4.72571,4.72633 -6.32161,2.76214 -10.31137,0.61381 -1.6579,-0.92071 -1.53452,-1.22762 -3.49932,-2.76214 -2.45524,-1.90342 -3.74424,-6.38361 0.12337,-10.25061 3.92838,-3.92837 7.36571,-5.40151 12.09142,-0.92071 4.72756,4.48081 5.46351,9.39128 1.5959,13.31965 z"
   id="path161" /><path
   fill="#1a1d1e"
   stroke="#ef2929"
   stroke-width="1.84143"
   stroke-linecap="round"
   d="m 133.92405,174.71943 c -6.13809,4.11252 -6.44499,2.76214 -11.47761,0.73657 -2.33309,-0.92071 -4.41881,-2.14833 -6.19947,-5.03323 -3.06905,-4.91047 -4.23528,-9.82094 1.90281,-14.67003 5.95333,-4.60357 9.75956,-4.97185 14.48588,-0.49105 4.78771,4.48081 7.42648,15.34522 1.28839,19.45774 z"
   id="path163" /><path
   fill="#1a1d1e"
   stroke="#ef2929"
   stroke-width="1.84143"
   stroke-linecap="round"
   d="m 146.26283,229.28703 c -5.95456,1.65729 -11.84712,-6.20008 -14.91616,-10.43475 -5.21738,-7.30432 -2.08695,-10.68027 -0.36829,-12.88998 3.06904,-3.867 6.01471,-7.67261 11.29408,-2.63938 3.805,3.56009 10.18923,8.90023 10.18923,16.08118 0,2.14894 -2.45524,8.83946 -6.19886,9.88293 z"
   id="path165" /><path
   fill="#1a1d1e"
   stroke="#ef2929"
   stroke-width="1.84143"
   stroke-linecap="round"
   d="m 107.71503,234.01336 c -4.11191,3.805 -9.08499,4.60357 -11.66237,2.39324 -2.45524,-2.20971 -2.63999,-7.3657 -4.23528,-10.86441 -2.393857,-5.33953 -1.71805,-9.82095 1.9028,-12.95137 3.19242,-2.76214 5.70904,-5.52428 10.80427,0.36828 8.34657,9.6988 5.58443,18.66041 3.19058,21.05426 z"
   id="path167" /></svg>
