<?xml version="1.0" encoding="UTF-8" standalone="no"?>
<svg
   xmlns:dc="http://purl.org/dc/elements/1.1/"
   xmlns:cc="http://creativecommons.org/ns#"
   xmlns:rdf="http://www.w3.org/1999/02/22-rdf-syntax-ns#"
   xmlns:svg="http://www.w3.org/2000/svg"
   xmlns="http://www.w3.org/2000/svg"
   xmlns:sodipodi="http://sodipodi.sourceforge.net/DTD/sodipodi-0.dtd"
   xmlns:inkscape="http://www.inkscape.org/namespaces/inkscape"
   id="svg2"
   sodipodi:docname="leg.svg"
   viewBox="0 0 325.93698 348.65818"
   sodipodi:version="0.32"
   version="1.0"
   inkscape:output_extension="org.inkscape.output.svg.inkscape"
   inkscape:version="1.0.2-2 (e86c870879, 2021-01-15)"
   width="86.237488mm"
   height="92.249146mm">
  <defs
     id="defs4">
    <linearGradient
       id="linearGradient7707"
       y2="165.62"
       gradientUnits="userSpaceOnUse"
       x2="482.25"
       y1="182.03"
       x1="534.65997"
       inkscape:collect="always">
      <stop
         id="stop7687"
         style="stop-color:#2e2610"
         offset="0" />
      <stop
         id="stop7689"
         style="stop-color:#2e2610;stop-opacity:0"
         offset="1" />
    </linearGradient>
    <linearGradient
       id="linearGradient7709"
       y2="120.73"
       gradientUnits="userSpaceOnUse"
       x2="547.16998"
       gradientTransform="translate(-2)"
       y1="111.98"
       x1="565.96997"
       inkscape:collect="always">
      <stop
         id="stop7483"
         style="stop-color:#dcba56"
         offset="0" />
      <stop
         id="stop7485"
         style="stop-color:#dcba56;stop-opacity:0"
         offset="1" />
    </linearGradient>
    <linearGradient
       id="linearGradient7711"
       y2="183.60001"
       gradientUnits="userSpaceOnUse"
       x2="521.46997"
       y1="182.17"
       x1="520.60999"
       inkscape:collect="always">
      <stop
         id="stop7499"
         style="stop-color:#dcba56"
         offset="0" />
      <stop
         id="stop7501"
         style="stop-color:#dcba56;stop-opacity:0"
         offset="1" />
    </linearGradient>
    <linearGradient
       id="linearGradient7713"
       y2="181.45"
       gradientUnits="userSpaceOnUse"
       x2="519.66998"
       y1="181.28999"
       x1="517.15997"
       inkscape:collect="always">
      <stop
         id="stop7509"
         style="stop-color:#dcba56"
         offset="0" />
      <stop
         id="stop7511"
         style="stop-color:#dcba56;stop-opacity:0"
         offset="1" />
    </linearGradient>
    <linearGradient
       id="linearGradient7715"
       y2="186.57001"
       gradientUnits="userSpaceOnUse"
       x2="526.10999"
       y1="184.32001"
       x1="524.08002"
       inkscape:collect="always">
      <stop
         id="stop7519"
         style="stop-color:#dcba56"
         offset="0" />
      <stop
         id="stop7521"
         style="stop-color:#dcba56;stop-opacity:0"
         offset="1" />
    </linearGradient>
  </defs>
  <sodipodi:namedview
     id="base"
     bordercolor="#666666"
     inkscape:pageshadow="2"
     guidetolerance="10"
     pagecolor="#ffffff"
     gridtolerance="10000"
     inkscape:window-height="1017"
     inkscape:zoom="0.81433943"
     objecttolerance="10"
     borderopacity="1.0"
     inkscape:current-layer="layer1"
     inkscape:cx="-287.50475"
     inkscape:cy="36.227041"
     inkscape:window-y="-8"
     inkscape:window-x="-8"
     inkscape:window-width="1920"
     inkscape:pageopacity="0.0"
     inkscape:document-units="px"
     inkscape:document-rotation="0"
     showgrid="false"
     units="mm"
     inkscape:window-maximized="1" />
  <g
     id="layer1"
     inkscape:label="Layer 1"
     inkscape:groupmode="layer"
     transform="translate(-429.45035,-101.8447)">
    <g
       id="g7693"
       inkscape:export-ydpi="300"
       inkscape:export-xdpi="300"
       inkscape:export-filename="/home/biswa/Desktop/Image for Rahul Book/created by Biswa/Biswa_Lag.png"
       transform="matrix(2.6731482,0,0,2.4090545,-794.47728,-8.1154463)">
      <path
         id="path7683"
         sodipodi:nodetypes="csssssssssssssssc"
         style="fill:url(#linearGradient7707);fill-rule:evenodd"
         d="m 488.34,157.8 c 7.98,0.79 16.38,-0.34 24.26,1.24 6.47,1.29 10.02,4.98 18.66,4.98 8.3,0 18.71,-0.77 26.75,1.24 5.89,1.47 13.01,2.55 7.47,8.09 -2.17,2.17 -11.69,1.3 -14.93,3.73 -6.16,4.62 -14.26,1.82 -19.29,6.84 -2.17,2.18 -3.13,5.29 -6.03,5.87 -3.09,0.62 -12.31,-3.68 -13.87,-5.24 -3.84,-3.84 -5.59,-5.7 2.57,-8.96 3.2,-1.29 4.74,-1.97 6.42,-3.33 0.67,-0.54 3.47,-0.56 4.63,-0.81 1.39,-0.31 -5.59,0.03 -11.99,-1.48 -4.29,-1 -8.76,-1.67 -12.32,-1.67 -6.47,0 -11.69,-3.66 -18.55,-3.66 -6.86,0 -13.36,1.57 -18.04,-3.11 -0.89,-0.89 -4.68,-0.62 -6.22,-0.62" />
      <g
         id="g7671">
        <path
           id="path6582"
           sodipodi:nodetypes="cssssssssssssssssssssssssssssssc"
           style="fill:#fddf87;fill-rule:evenodd;stroke:#000000;stroke-width:1px"
           d="m 535.55,45.755 c -1.5,6.621 -3.54,12.441 -7.85,19.627 -1.59,2.642 -3.13,7.947 -4.49,10.655 -1.13,2.26 1.58,7.746 2.81,8.973 3.48,3.489 5.6,1.287 5.6,7.29 0,8 5.4,16.2 7.85,23.55 2.29,6.86 4.16,12.94 5.61,20.19 1.09,5.46 3.37,10.95 3.37,16.26 0,5.21 -0.15,10.3 -4.75,12.6 -4.09,2.04 -10.07,4.1 -12.72,6.08 -1.79,1.35 -4.48,3.33 -6.45,4.18 -2.17,0.94 -3.75,0.21 -5.93,1.3 -2.8,1.4 -4.26,1.85 -2.68,5 0.81,1.62 2.93,3.49 4.49,5.05 1.61,1.61 1.96,2.54 4.06,3.06 4.23,1.06 8.32,-0.93 10.86,-2.15 2.83,-1.35 6.69,-1.1 9.02,-1.68 2.61,-0.65 5.15,-1.63 7.07,-3.24 3.77,-3.17 6.78,-3.11 9.33,-3.75 3.46,-0.87 8.72,0.46 12.15,-0.73 4.42,-1.54 6.39,-3.79 6.39,-8.33 0,-4.69 -0.16,-7.46 -2.8,-10.1 -1.88,-1.87 -3.34,-3.89 -5.05,-5.6 -2.6,-2.6 -3.13,-5.79 -3.93,-8.98 -0.78,-3.13 -1.68,-6.76 -1.68,-10.09 0,-3.71 0.7,-5.89 0.7,-9.76 0,-4.86 0.42,-7.81 0.42,-12.67 0,-5.08 0.46,-9.49 -0.56,-14.582 -0.77,-3.881 -1.87,-7.35 -3.92,-10.094 -2.04,-2.717 -0.6,-3.662 -3.37,-5.047 -3.9,-1.953 -0.21,-1.053 1.12,-5.047 0.51,-1.514 3.37,-1.699 3.37,-5.047" />
        <path
           id="path7479"
           sodipodi:nodetypes="cssssssssssssssssssssssssssssssc"
           style="fill:url(#linearGradient7709);fill-rule:evenodd"
           d="m 535.55,45.755 c -1.5,6.621 -3.54,12.441 -7.85,19.627 -1.59,2.642 -3.13,7.947 -4.49,10.655 -1.13,2.26 1.58,7.746 2.81,8.973 3.48,3.489 5.6,1.287 5.6,7.29 0,8 5.4,16.2 7.85,23.55 2.29,6.86 4.16,12.94 5.61,20.19 1.09,5.46 3.37,10.95 3.37,16.26 0,5.21 -0.15,10.3 -4.75,12.6 -4.09,2.04 -10.07,4.1 -12.72,6.08 -1.79,1.35 -4.48,3.33 -6.45,4.18 -2.17,0.94 -3.75,0.21 -5.93,1.3 -2.8,1.4 -4.26,1.85 -2.68,5 0.81,1.62 2.93,3.49 4.49,5.05 1.61,1.61 1.96,2.54 4.06,3.06 4.23,1.06 8.32,-0.93 10.86,-2.15 2.83,-1.35 6.69,-1.1 9.02,-1.68 2.61,-0.65 5.15,-1.63 7.07,-3.24 3.77,-3.17 6.78,-3.11 9.33,-3.75 3.46,-0.87 8.72,0.46 12.15,-0.73 4.42,-1.54 6.39,-3.79 6.39,-8.33 0,-4.69 -0.16,-7.46 -2.8,-10.1 -1.88,-1.87 -3.34,-3.89 -5.05,-5.6 -2.6,-2.6 -3.13,-5.79 -3.93,-8.98 -0.78,-3.13 -1.68,-6.76 -1.68,-10.09 0,-3.71 0.7,-5.89 0.7,-9.76 0,-4.86 0.42,-7.81 0.42,-12.67 0,-5.08 0.46,-9.49 -0.56,-14.582 -0.77,-3.881 -1.87,-7.35 -3.92,-10.094 -2.04,-2.717 -0.6,-3.662 -3.37,-5.047 -3.9,-1.953 -0.21,-1.053 1.12,-5.047 0.51,-1.514 3.37,-1.699 3.37,-5.047" />
        <path
           id="path6584"
           sodipodi:nodetypes="csc"
           style="fill:none;stroke:#000000;stroke-width:1px"
           d="m 530.5,181.46 c -1.58,2.09 -7.09,2.15 -9.53,3.37 -1.21,0.6 -0.13,3.31 1.73,3.88" />
        <path
           id="path6586"
           sodipodi:nodetypes="csssc"
           style="fill:url(#linearGradient7711);fill-rule:evenodd;stroke:#000000;stroke-width:0.4"
           d="m 526.61,180.04 c -1.15,0.57 -2.35,1 -4.13,1.41 -1.13,0.26 -2.88,0.45 -3.77,0.91 -0.42,0.22 -0.29,1 -0.59,1.3 -0.27,0.27 1.12,1.25 1.12,1.62" />
        <path
           id="path6588"
           sodipodi:nodetypes="csc"
           style="fill:none;stroke:#000000;stroke-width:0.4"
           d="m 523.59,178.79 c -0.1,0.1 -3.79,1.81 -6.15,1.63 -0.68,-0.05 -1.01,1.79 -0.96,1.94" />
        <path
           id="path6590"
           sodipodi:nodetypes="csssc"
           style="fill:none;stroke:#000000;stroke-width:0.5"
           d="m 564.79,152.88 c 0.06,1.37 1.27,3.19 2.19,4.51 0.81,1.16 2.32,1.97 2.78,3.33 0.72,2.13 0.22,4.2 -1.21,5.14 -1.73,1.13 -4.55,0.92 -4.96,1.02" />
        <path
           id="path7477"
           sodipodi:nodetypes="csc"
           style="fill:none;stroke:#000000;stroke-width:0.4"
           d="m 521.79,177.82 c -2.29,0.87 -2.9,1.04 -5.25,0.86 -0.68,-0.06 -0.88,2.43 -0.06,1.68" />
        <path
           id="path7505"
           sodipodi:nodetypes="cssc"
           style="fill:url(#linearGradient7713);fill-rule:evenodd;stroke:#000000;stroke-width:0.4"
           d="m 523.59,178.79 c -0.1,0.1 -3.79,1.81 -6.15,1.63 -0.4,-0.03 -0.66,0.71 -0.8,1.36 -0.09,0.45 1.69,2.72 1,2.01" />
        <path
           id="path7515"
           sodipodi:nodetypes="csc"
           style="fill:url(#linearGradient7715);fill-rule:evenodd;stroke:#000000;stroke-width:1px"
           d="m 530.5,181.46 c -1.58,2.09 -7.09,2.15 -9.53,3.37 -1.21,0.6 0.86,3.97 2.72,4.54" />
        <path
           id="path7525"
           style="fill:#f4f2ec;fill-opacity:0.58929;fill-rule:evenodd;stroke:#000000;stroke-width:0.1"
           d="m 522.14,184.58 c 0.33,0.16 0.98,0.59 1.32,1.05 0.25,0.33 -0.09,0.61 0.33,0.71 0.64,0.16 1.64,-0.26 2.26,-0.38 0.07,-0.02 0.14,-0.04 0.22,-0.06 0.47,-0.12 0.45,-0.09 0.55,-0.55 0.03,-0.16 -0.42,-0.65 -0.55,-0.82 -0.24,-0.31 -0.77,-0.77 -1.1,-0.77 -0.96,0 -1.67,0.14 -2.48,0.55 -0.19,0.09 -0.34,0.19 -0.55,0.27 z" />
      </g>
    </g>
  </g>
  <metadata
     id="metadata33">
    <rdf:RDF>
      <cc:Work>
        <dc:format>image/svg+xml</dc:format>
        <dc:type
           rdf:resource="http://purl.org/dc/dcmitype/StillImage" />
        <cc:license
           rdf:resource="http://creativecommons.org/publicdomain/zero/1.0/" />
        <dc:publisher>
          <cc:Agent
             rdf:about="http://openclipart.org/">
            <dc:title>Openclipart</dc:title>
          </cc:Agent>
        </dc:publisher>
        <dc:title>Leg</dc:title>
        <dc:date>2007-09-04T08:53:24</dc:date>
        <dc:description />
        <dc:source>https://openclipart.org/detail/5176/leg-by-biswajyotim</dc:source>
        <dc:creator>
          <cc:Agent>
            <dc:title>biswajyotim</dc:title>
          </cc:Agent>
        </dc:creator>
        <dc:subject>
          <rdf:Bag>
            <rdf:li>body part</rdf:li>
            <rdf:li>cartoon</rdf:li>
            <rdf:li>icon</rdf:li>
            <rdf:li>leg</rdf:li>
            <rdf:li>man</rdf:li>
            <rdf:li>people</rdf:li>
          </rdf:Bag>
        </dc:subject>
      </cc:Work>
      <cc:License
         rdf:about="http://creativecommons.org/publicdomain/zero/1.0/">
        <cc:permits
           rdf:resource="http://creativecommons.org/ns#Reproduction" />
        <cc:permits
           rdf:resource="http://creativecommons.org/ns#Distribution" />
        <cc:permits
           rdf:resource="http://creativecommons.org/ns#DerivativeWorks" />
      </cc:License>
    </rdf:RDF>
  </metadata>
</svg>
