<?xml version="1.0" encoding="UTF-8" standalone="no"?>
<svg
   xmlns:dc="http://purl.org/dc/elements/1.1/"
   xmlns:cc="http://creativecommons.org/ns#"
   xmlns:rdf="http://www.w3.org/1999/02/22-rdf-syntax-ns#"
   xmlns:svg="http://www.w3.org/2000/svg"
   xmlns="http://www.w3.org/2000/svg"
   xmlns:sodipodi="http://sodipodi.sourceforge.net/DTD/sodipodi-0.dtd"
   xmlns:inkscape="http://www.inkscape.org/namespaces/inkscape"
   enable-background="new 0 0 88.9 58.8"
   version="1.1"
   viewBox="0 0 456.78562 302.1208"
   id="svg62"
   sodipodi:docname="light.svg"
   width="120.85786mm"
   height="79.936127mm"
   inkscape:version="1.0.2-2 (e86c870879, 2021-01-15)">
  <metadata
     id="metadata68">
    <rdf:RDF>
      <cc:Work
         rdf:about="">
        <dc:format>image/svg+xml</dc:format>
        <dc:type
           rdf:resource="http://purl.org/dc/dcmitype/StillImage" />
        <dc:title />
      </cc:Work>
    </rdf:RDF>
  </metadata>
  <defs
     id="defs66" />
  <sodipodi:namedview
     pagecolor="#ffffff"
     bordercolor="#666666"
     borderopacity="1"
     objecttolerance="10"
     gridtolerance="10"
     guidetolerance="10"
     inkscape:pageopacity="0"
     inkscape:pageshadow="2"
     inkscape:window-width="1920"
     inkscape:window-height="1017"
     id="namedview64"
     showgrid="false"
     units="mm"
     inkscape:zoom="1.4651293"
     inkscape:cx="192.28398"
     inkscape:cy="108.87384"
     inkscape:window-x="-8"
     inkscape:window-y="-8"
     inkscape:window-maximized="1"
     inkscape:current-layer="svg62"
     inkscape:document-rotation="0" />
  <g
     clip-rule="evenodd"
     fill-rule="evenodd"
     id="g60"
     transform="matrix(5.1381959,0,0,5.1381959,0,-260.76344)">
    <radialGradient
       id="e"
       cx="45.099998"
       cy="58.650002"
       r="6.5374999"
       gradientTransform="matrix(1,0,0,-0.3289,0,77.939)"
       gradientUnits="userSpaceOnUse">
      <stop
         offset="0"
         id="stop2" />
      <stop
         stop-opacity="0"
         offset="1"
         id="stop4" />
    </radialGradient>
    <path
       d="m 54.1,58.65 c 0,0.699 -0.883,1.3 -2.649,1.8 -1.766,0.5 -3.885,0.75 -6.351,0.75 -2.5,0 -4.616,-0.25 -6.35,-0.75 -1.767,-0.5 -2.65,-1.101 -2.65,-1.8 0,-0.733 0.883,-1.351 2.65,-1.851 1.733,-0.5 3.85,-0.75 6.35,-0.75 2.5,0 4.617,0.25 6.351,0.75 1.766,0.501 2.649,1.118 2.649,1.851 z"
       fill="url(#e)"
       id="path7"
       style="fill:url(#e)" />
    <radialGradient
       id="f"
       cx="45.775002"
       cy="58.450001"
       r="30.995001"
       gradientTransform="matrix(1,0,0,-0.2084,0,70.63)"
       gradientUnits="userSpaceOnUse">
      <stop
         stop-opacity=".2392"
         offset="0"
         id="stop9" />
      <stop
         stop-opacity="0"
         offset="1"
         id="stop11" />
    </radialGradient>
    <path
       d="m 45.75,50.75 c 11.767,0 21.833,0.75 30.2,2.25 8.333,1.5 12.5,3.316 12.5,5.45 0,2.133 -4.167,3.95 -12.5,5.45 -8.367,1.5 -18.434,2.25 -30.2,2.25 C 33.984,66.15 23.934,65.4 15.6,63.9 7.266,62.4 3.1,60.583 3.1,58.45 3.1,56.316 7.267,54.5 15.6,53 23.933,51.5 33.983,50.75 45.75,50.75 Z"
       fill="url(#f)"
       id="path14"
       style="fill:url(#f)" />
    <path
       d="m 0.4,103.35 c -0.133,0.067 -0.233,0.134 -0.3,0.2 H 0 l 0.6,-0.399 c 0.133,-0.167 0.35,-0.317 0.65,-0.45 l 33.1,-23.5 c 0.433,-0.167 0.816,-0.316 1.15,-0.45 1.733,-0.667 2.683,-1.033 2.85,-1.1 1.9,-0.567 3.967,-0.851 6.2,-0.851 2.334,0 4.351,0.267 6.05,0.8 0.867,0.267 1.934,0.667 3.2,1.2 0.134,0.033 0.267,0.084 0.4,0.15 l 34.7,24.6 h -0.1 c -0.133,-0.133 -0.3,-0.25 -0.5,-0.35 -0.866,-0.434 -2.467,-0.834 -4.8,-1.2 L 54,80.65 l 6.4,6.699 c 4.433,4.733 7.05,7.817 7.85,9.25 0.767,1.367 -0.45,2.601 -3.65,3.7 -6.133,-0.3 -12.85,-0.45 -20.149,-0.45 -7.167,0 -13.75,0.15 -19.75,0.45 0.867,-4.733 2.833,-9.35 5.9,-13.85 1.533,-2.267 2.967,-4.05 4.3,-5.351 C 21.567,91.899 13.067,98.683 9.4,101.449 H 9.3 c -4.767,0.53 -7.733,1.17 -8.9,1.9 z m 15.35,-2.5 c -0.467,0.034 -0.917,0.067 -1.35,0.101 -0.833,0.066 -1.617,0.133 -2.35,0.2 1.167,-0.13 2.4,-0.23 3.7,-0.3 z"
       fill="#cec8b8"
       id="path16" />
    <path
       d="m 37.3,76.85 c 0,-0.133 0.017,-0.3 0.05,-0.5 0.033,-0.399 0.133,-0.767 0.3,-1.1 0.2,-0.366 0.667,-0.717 1.4,-1.05 0.667,-0.3 1.383,-0.517 2.15,-0.65 0.566,-0.1 1.25,0.066 2.05,0.5 -0.7,-0.066 -1.517,0.066 -2.45,0.4 -0.6,0.2 -1.367,0.666 -2.3,1.399 z M 24.7,100.3 c -0.5,0.033 -0.983,0.05 -1.45,0.05 l -7.5,0.5 c -1.3,0.067 -2.533,0.167 -3.7,0.301 l -2.2,0.25 c -0.167,0 -0.317,0.017 -0.45,0.05 3.667,-2.767 12.167,-9.55 25.5,-20.351 -1.333,1.301 -2.767,3.084 -4.3,5.351 -3.067,4.5 -5.033,9.116 -5.9,13.85 z M 41.15,72.75 c 0.133,-0.566 0.517,-1.05 1.15,-1.45 0.934,-0.566 1.45,-0.899 1.55,-1 l 4,1.25 C 47.083,71.517 46.5,71.5 46.1,71.5 c -0.699,-0.033 -1.267,0 -1.699,0.1 -0.167,0.067 -0.7,0.301 -1.601,0.7 -0.433,0.2 -0.8,0.334 -1.1,0.4 -0.2,0 -0.383,0.017 -0.55,0.05 z"
       fill="#f4ecda"
       id="path18" />
    <path
       d="m 39.6,73.1 c 0.5,-0.199 1.017,-0.316 1.55,-0.35 0.167,-0.033 0.35,-0.05 0.55,-0.05 h 5.8 c 1.033,0 1.983,0.233 2.85,0.7 0.567,0.3 1.101,0.699 1.601,1.199 1.133,1.167 1.75,2.567 1.85,4.2 -1.267,-0.533 -2.333,-0.934 -3.2,-1.2 -1.699,-0.533 -3.716,-0.8 -6.05,-0.8 -2.233,0 -4.3,0.283 -6.2,0.851 -0.167,0.066 -1.117,0.433 -2.85,1.1 0.1,-1.6 0.717,-2.983 1.85,-4.15 0.666,-0.7 1.416,-1.2 2.249,-1.5 z m -2.3,3.75 1.2,-1 c 0.933,-0.733 1.7,-1.199 2.3,-1.399 0.934,-0.334 1.75,-0.467 2.45,-0.4 -0.8,-0.434 -1.483,-0.6 -2.05,-0.5 -0.767,0.134 -1.483,0.351 -2.15,0.65 -0.733,0.333 -1.2,0.684 -1.4,1.05 -0.167,0.333 -0.267,0.7 -0.3,1.1 -0.033,0.199 -0.05,0.366 -0.05,0.499 z m 14.45,0.85 c 0.733,0.399 1.066,0.416 1,0.05 -0.066,-0.4 -0.4,-1 -1,-1.8 -0.7,-0.967 -1.366,-1.5 -2,-1.601 l 0.8,0.801 c 0.533,0.633 0.851,1.149 0.95,1.55 z"
       fill="#b8b2a4"
       id="path20" />
    <linearGradient
       id="g"
       x1="42.674999"
       x2="48.025002"
       y1="64.224998"
       y2="64.224998"
       gradientUnits="userSpaceOnUse">
      <stop
         stop-color="#6D6C69"
         offset=".0353"
         id="stop22" />
      <stop
         stop-color="#787673"
         offset=".1255"
         id="stop24" />
      <stop
         stop-color="#95928E"
         offset=".2784"
         id="stop26" />
      <stop
         stop-color="#9B9793"
         offset=".302"
         id="stop28" />
      <stop
         stop-color="#8C8985"
         offset=".3451"
         id="stop30" />
      <stop
         stop-color="#5F5D59"
         offset=".502"
         id="stop32" />
      <stop
         stop-color="#42413E"
         offset=".6235"
         id="stop34" />
      <stop
         stop-color="#383734"
         offset=".6941"
         id="stop36" />
      <stop
         stop-color="#65625E"
         offset="1"
         id="stop38" />
    </linearGradient>
    <path
       d="m 48,70.4 c -0.9,-0.4 -1.917,-0.6 -3.05,-0.6 -0.8,0 -1.55,0.101 -2.25,0.3 V 59.15 l 0.1,-0.551 c 0.333,-0.366 1.1,-0.55 2.3,-0.55 1.2,0 2.051,0.184 2.551,0.55 C 47.884,58.8 48,58.983 48,59.15 Z"
       fill="url(#g)"
       id="path41"
       style="fill:url(#g)" />
    <path
       d="m 41.15,72.75 c -0.533,0.033 -1.05,0.15 -1.55,0.35 0.066,-0.866 0.583,-1.633 1.55,-2.3 0.467,-0.3 0.983,-0.533 1.55,-0.7 0.7,-0.199 1.45,-0.3 2.25,-0.3 1.133,0 2.15,0.2 3.05,0.6 0.267,0.1 0.533,0.233 0.8,0.399 1.033,0.667 1.55,1.483 1.55,2.45 v 0.15 c -0.866,-0.467 -1.816,-0.7 -2.85,-0.7 h -5.8 c 0.3,-0.066 0.667,-0.2 1.1,-0.4 0.9,-0.399 1.434,-0.633 1.601,-0.7 0.433,-0.1 1,-0.133 1.699,-0.1 0.4,0 0.983,0.017 1.75,0.05 l -4,-1.25 c -0.1,0.101 -0.617,0.434 -1.55,1 -0.633,0.401 -1.017,0.885 -1.15,1.451 z m 10.6,4.95 -0.25,-1 c -0.1,-0.4 -0.417,-0.917 -0.95,-1.55 l -0.8,-0.801 c 0.634,0.101 1.3,0.634 2,1.601 0.6,0.8 0.934,1.399 1,1.8 0.066,0.366 -0.267,0.35 -1,-0.05 z"
       fill="#979287"
       id="path43" />
    <path
       d="m 83.5,102 c -0.366,-0.066 -0.733,-0.134 -1.1,-0.2 l -2.15,-0.25 c -1.667,-0.233 -3.583,-0.434 -5.75,-0.6 H 74.25 L 64.6,100.3 c 3.2,-1.1 4.417,-2.333 3.65,-3.7 -0.8,-1.433 -3.417,-4.517 -7.85,-9.25 L 54,80.65 Z"
       fill="#b3ada0"
       id="path45" />
    <path
       d="m 15.75,100.85 7.5,-0.5 c 0.467,0 0.95,-0.017 1.45,-0.05 6,-0.3 12.583,-0.45 19.75,-0.45 7.3,0 14.017,0.15 20.149,0.45 l 9.65,0.65 h 0.25 c 2.167,0.166 4.083,0.366 5.75,0.6 l 2.15,0.25 c 0.366,0.066 0.733,0.134 1.1,0.2 2.333,0.366 3.934,0.767 4.8,1.2 0.233,0.233 0.351,0.483 0.351,0.75 0,1.566 -4.317,2.883 -12.95,3.95 -8.634,1.1 -19.066,1.649 -31.3,1.649 -12.2,0 -22.617,-0.55 -31.25,-1.649 -8.667,-1.101 -13,-2.417 -13,-3.95 0,-0.2 0.083,-0.4 0.25,-0.601 1.167,-0.733 4.133,-1.366 8.9,-1.899 h 0.1 c 0.133,-0.033 0.283,-0.05 0.45,-0.05 l 2.2,-0.25 c 0.733,-0.067 1.517,-0.134 2.35,-0.2 0.433,-0.03 0.883,-0.07 1.35,-0.1 z M 72,102.4 c -7.733,-0.634 -17.066,-0.95 -28,-0.95 -10.967,0 -20.317,0.316 -28.05,0.95 -7.733,0.633 -11.6,1.399 -11.6,2.3 0,0.899 3.867,1.666 11.6,2.3 7.733,0.634 17.083,0.95 28.05,0.95 10.934,0 20.267,-0.316 28,-0.95 7.733,-0.634 11.6,-1.4 11.6,-2.3 0,-0.9 -3.867,-1.67 -11.6,-2.3 z"
       fill="#b9b5aa"
       id="path47" />
    <path
       d="m 44.9,104.85 c -0.067,0.801 -0.667,0.95 -1.8,0.45 -0.767,-0.333 -1.35,-0.833 -1.75,-1.5 -0.4,-0.666 -0.55,-1.399 -0.45,-2.2 0.267,-0.033 1.583,-0.05 3.95,-0.05 l 0.5,1 c -0.166,0.17 -0.317,0.93 -0.45,2.3 z"
       fill="#ffffff"
       id="path49" />
    <path
       d="m 44.9,104.85 c 0.133,-1.366 0.283,-2.133 0.449,-2.3 l -0.5,-1 c -2.366,0 -3.683,0.017 -3.95,0.05 -0.1,0.801 0.05,1.534 0.45,2.2 0.4,0.667 0.983,1.167 1.75,1.5 1.134,0.5 1.734,0.35 1.801,-0.45 z m 4.7,0.55 c -1.199,1.033 -2.649,1.55 -4.35,1.55 -1.667,0 -3.1,-0.533 -4.3,-1.601 -1.2,-1.066 -1.817,-2.35 -1.85,-3.85 l 12.35,0.05 c -0.033,1.5 -0.65,2.78 -1.85,3.85 z"
       fill="#f3eede"
       id="path51" />
    <linearGradient
       id="h"
       x1="-109.77"
       x2="-102.12"
       y1="43.987999"
       y2="43.987999"
       gradientTransform="matrix(1.3072e-4,-1,1,-0.001,1.5662e-4,-3.8192e-4)"
       gradientUnits="userSpaceOnUse">
      <stop
         stop-color="#9A9488"
         offset="0"
         id="stop53" />
      <stop
         stop-color="#716D65"
         offset="1"
         id="stop55" />
    </linearGradient>
    <path
       d="m 49.6,105.4 c 1.2,-1.067 1.817,-2.351 1.851,-3.851 L 39.1,101.499 c 0.033,1.5 0.65,2.783 1.85,3.85 1.2,1.067 2.633,1.601 4.3,1.601 1.7,0 3.15,-0.52 4.35,-1.55 z m 22.4,-3 c 7.733,0.633 11.6,1.399 11.6,2.3 0,0.899 -3.866,1.666 -11.6,2.3 -7.734,0.634 -17.066,0.95 -28,0.95 -10.967,0 -20.317,-0.316 -28.05,-0.95 -7.733,-0.634 -11.6,-1.4 -11.6,-2.3 0,-0.9 3.867,-1.667 11.6,-2.3 7.733,-0.634 17.083,-0.95 28.05,-0.95 10.934,0 20.267,0.32 28,0.95 z"
       fill="url(#h)"
       id="path58"
       style="fill:url(#h)" />
  </g>
</svg>
