<?xml version="1.0" encoding="UTF-8" standalone="no"?>
<!-- Created with Inkscape (http://www.inkscape.org/) -->

<svg
   width="125mm"
   height="88mm"
   id="svg3005"
   version="1.1"
   inkscape:version="1.2.2 (732a01da63, 2022-12-09)"
   sodipodi:docname="lime.svg"
   viewBox="0 0 125 88"
   xmlns:inkscape="http://www.inkscape.org/namespaces/inkscape"
   xmlns:sodipodi="http://sodipodi.sourceforge.net/DTD/sodipodi-0.dtd"
   xmlns:xlink="http://www.w3.org/1999/xlink"
   xmlns="http://www.w3.org/2000/svg"
   xmlns:svg="http://www.w3.org/2000/svg"
   xmlns:rdf="http://www.w3.org/1999/02/22-rdf-syntax-ns#"
   xmlns:cc="http://creativecommons.org/ns#"
   xmlns:dc="http://purl.org/dc/elements/1.1/">
  <defs
     id="defs3007">
    <linearGradient
       inkscape:collect="always"
       id="linearGradient5644">
      <stop
         style="stop-color:#8dca2e;stop-opacity:1;"
         offset="0"
         id="stop5640" />
      <stop
         id="stop5650"
         offset="0.969750464"
         style="stop-color:#a5d03f;stop-opacity:1" />
      <stop
         id="stop5648"
         offset="0.9759944081"
         style="stop-color:#8ac22d;stop-opacity:1" />
      <stop
         style="stop-color:#7ead28;stop-opacity:1"
         offset="1"
         id="stop5642" />
    </linearGradient>
    <linearGradient
       inkscape:collect="always"
       id="linearGradient5636">
      <stop
         style="stop-color:#a0b52c;stop-opacity:1"
         offset="0"
         id="stop5632" />
      <stop
         id="stop5652"
         offset="0.4824158847"
         style="stop-color:#b2c243;stop-opacity:1" />
      <stop
         style="stop-color:#b0c13d;stop-opacity:1"
         offset="0.7919954062"
         id="stop5654" />
      <stop
         style="stop-color:#a0b030;stop-opacity:1"
         offset="1"
         id="stop5634" />
    </linearGradient>
    <linearGradient
       inkscape:collect="always"
       id="linearGradient1930">
      <stop
         style="stop-color:#eff2ef;stop-opacity:1"
         offset="0"
         id="stop1926" />
      <stop
         id="stop1936"
         offset="0.8982880116"
         style="stop-color:#f4fad9;stop-opacity:1" />
      <stop
         id="stop1934"
         offset="0.9590629339"
         style="stop-color:#eaf9d3;stop-opacity:1" />
      <stop
         style="stop-color:#b2de6d;stop-opacity:1"
         offset="1"
         id="stop1928" />
    </linearGradient>
    <radialGradient
       inkscape:collect="always"
       xlink:href="#linearGradient1930"
       id="radialGradient1932"
       cx="598.92401"
       cy="520.737"
       fx="598.92401"
       fy="520.737"
       r="484.9668"
       gradientUnits="userSpaceOnUse" />
    <radialGradient
       inkscape:collect="always"
       xlink:href="#linearGradient5636"
       id="radialGradient5638"
       cx="602.19012"
       cy="600.73444"
       fx="602.19012"
       fy="600.73444"
       r="421.94626"
       gradientTransform="matrix(0.99999993,0,0,1.0031807,4.3553851e-5,-1.9107281)"
       gradientUnits="userSpaceOnUse" />
    <radialGradient
       inkscape:collect="always"
       xlink:href="#linearGradient5644"
       id="radialGradient5646"
       cx="600"
       cy="522.51965"
       fx="600"
       fy="522.51965"
       r="500"
       gradientUnits="userSpaceOnUse" />
    <radialGradient
       inkscape:collect="always"
       xlink:href="#linearGradient5636"
       id="radialGradient5680"
       gradientUnits="userSpaceOnUse"
       gradientTransform="matrix(0.99999993,0,0,1.0031807,3.8424351,-77.469872)"
       cx="602.19012"
       cy="600.73444"
       fx="602.19012"
       fy="600.73444"
       r="421.94626" />
    <radialGradient
       inkscape:collect="always"
       xlink:href="#linearGradient5636"
       id="radialGradient5682"
       gradientUnits="userSpaceOnUse"
       gradientTransform="matrix(0.99999993,0,0,1.0031807,-1.5232596,-77.867765)"
       cx="602.19012"
       cy="600.73444"
       fx="602.19012"
       fy="600.73444"
       r="421.94626" />
    <radialGradient
       inkscape:collect="always"
       xlink:href="#linearGradient5636"
       id="radialGradient5684"
       gradientUnits="userSpaceOnUse"
       gradientTransform="matrix(0.99999993,0,0,1.0031807,-2.7169376,-71.240125)"
       cx="602.19012"
       cy="600.73444"
       fx="602.19012"
       fy="600.73444"
       r="421.94626" />
  </defs>
  <sodipodi:namedview
     id="base"
     pagecolor="#4f4f4f"
     bordercolor="#ffffff"
     borderopacity="1"
     inkscape:pageopacity="0"
     inkscape:pageshadow="2"
     inkscape:zoom="0.44166667"
     inkscape:cx="603.39623"
     inkscape:cy="601.13208"
     inkscape:document-units="px"
     inkscape:current-layer="layer1"
     showgrid="false"
     inkscape:window-width="1366"
     inkscape:window-height="705"
     inkscape:window-x="-8"
     inkscape:window-y="-8"
     inkscape:window-maximized="1"
     inkscape:snap-global="false"
     guidecolor="#00ffe4"
     guideopacity="1"
     guidehicolor="#f000ff"
     guidehiopacity="1"
     inkscape:pagecheckerboard="true"
     borderlayer="true"
     inkscape:showpageshadow="false"
     inkscape:snap-center="true"
     showguides="true"
     inkscape:guide-bbox="true"
     inkscape:snap-bbox="false"
     inkscape:snap-bbox-edge-midpoints="false"
     inkscape:bbox-nodes="false"
     inkscape:bbox-paths="false"
     inkscape:snap-smooth-nodes="true"
     inkscape:deskcolor="#4f4f4f" />
  <metadata
     id="metadata3010">
    <rdf:RDF>
      <cc:Work
         rdf:about="">
        <dc:format>image/svg+xml</dc:format>
        <dc:type
           rdf:resource="http://purl.org/dc/dcmitype/StillImage" />
        <dc:date>2017</dc:date>
        <dc:creator>
          <cc:Agent>
            <dc:title>Lazur URH</dc:title>
          </cc:Agent>
        </dc:creator>
        <dc:publisher>
          <cc:Agent>
            <dc:title />
          </cc:Agent>
        </dc:publisher>
        <cc:license
           rdf:resource="http://creativecommons.org/publicdomain/zero/1.0/" />
        <dc:subject>
          <rdf:Bag />
        </dc:subject>
        <dc:description />
      </cc:Work>
      <cc:License
         rdf:about="http://creativecommons.org/publicdomain/zero/1.0/">
        <cc:permits
           rdf:resource="http://creativecommons.org/ns#Reproduction" />
        <cc:permits
           rdf:resource="http://creativecommons.org/ns#Distribution" />
        <cc:permits
           rdf:resource="http://creativecommons.org/ns#DerivativeWorks" />
      </cc:License>
    </rdf:RDF>
  </metadata>
  <g
     inkscape:label="plant"
     inkscape:groupmode="layer"
     id="layer1"
     transform="translate(0,77.48034)">
    <g
       id="g5831"
       transform="matrix(0.088,0,0,0.088,9.7208343,-79.46207)">
      <path
         id="use4089"
         d="M 1100,522.51965 A 500,500 0 0 1 600,1022.5197 500,500 0 0 1 100,522.51965 500,500 0 0 1 600,22.519653 500,500 0 0 1 1100,522.51965 Z"
         style="fill:url(#radialGradient5646);fill-opacity:1;stroke:none;stroke-width:1.0162" />
      <path
         id="use4105"
         d="M 1083.8908,520.737 A 484.9668,484.9668 0 0 1 598.92401,1005.7038 484.9668,484.9668 0 0 1 113.95721,520.737 484.9668,484.9668 0 0 1 598.92401,35.770203 484.9668,484.9668 0 0 1 1083.8908,520.737 Z"
         style="fill:url(#radialGradient1932);fill-opacity:1;stroke:none;stroke-width:0.98979" />
      <path
         d="m 554.34409,416.96222 c 4.60457,8.23308 9.69509,17.33803 18.82705,21.22772 7.15274,3.04666 15.27993,0.41133 21.03939,-4.35297 7.63469,-6.31552 9.9784,-16.4675 10.94572,-25.76816 4.7155,-45.33892 10.06511,-44.00778 20.96548,-116.57606 6.68743,-44.52093 13.29992,-89.05408 19.5853,-133.63276 1.41372,-10.0267 -0.13045,-20.75386 -5.65504,-29.43058 -5.93745,-9.32515 -15.864,-15.30327 -26.13981,-18.77006 -8.79703,-2.96788 -18.01814,-4.30147 -27.1433,-5.80385 -18.36156,-3.02308 -37.12105,-5.11861 -55.72024,-3.12118 -11.21039,1.20392 -22.03558,4.66876 -32.53048,8.64651 -13.51977,5.12422 -26.75904,11.26519 -38.78272,19.33981 -7.9751,5.35576 -15.88399,11.38062 -20.9879,19.71714 -4.71548,7.70207 -6.29995,16.99299 -5.26518,25.89083 1.27748,10.98479 1.77108,12.14075 10.87656,30.93498 27.04102,55.81424 76.22807,151.34009 109.98517,211.69863 z M 714.14461,109.29969 c -15.19915,-0.70776 -30.74622,4.50723 -42.52661,14.37203 -9.69932,8.12214 -16.31912,19.78769 -18.16952,32.38595 -7.22055,49.16041 -14.07777,98.3721 -21.43576,147.51079 -6.02155,40.21353 8.11546,-56.66722 -4.15766,17.50185 -4.48169,27.0838 -11.12551,53.76567 -15.76755,80.81972 -1.96577,11.45661 -4.15068,23.73066 0.0524,34.99717 2.9782,7.98309 10.86637,13.54666 19.45405,13.71375 8.40682,0.16357 16.27719,-3.53016 22.34614,-9.06387 11.86203,-10.81588 24.30923,-27.43358 35.94314,-38.44411 76.62737,-72.5214 122.03201,-110.31048 171.49601,-157.73001 8.8111,-8.44691 14.13917,-20.56635 14.14608,-32.87621 0.007,-12.97766 -5.24874,-25.52793 -13.02126,-35.70493 -11.58343,-15.16684 -27.18751,-26.74728 -43.4698,-36.46833 -7.70012,-4.59722 -15.5582,-9.00496 -23.81305,-12.51111 -11.52233,-4.89395 -23.74835,-7.89939 -35.89828,-10.82554 -14.85472,-3.57755 -29.90522,-6.96594 -45.17837,-7.67715 z m -330.12117,57.62427 c -6.0411,0.0692 -11.8556,1.90976 -17.3791,4.2379 -21.8134,9.1943 -41.06933,23.38497 -58.80979,38.84507 -12.91464,11.2546 -23.88887,24.90715 -31.19256,40.46125 -2.90583,6.18832 -5.50324,12.56514 -7.22759,19.18555 -3.32026,12.74772 -1.00474,26.61895 5.44997,38.04574 5.19211,9.19161 13.17837,16.37295 21.85206,22.37675 73.37629,50.78995 162.27037,99.02343 199.08957,117.51821 9.82094,4.9332 18.8128,12.34798 29.88992,14.02044 9.03033,1.36342 19.20148,-1.97141 24.24037,-10.05619 4.64352,-7.45043 5.69782,-16.7766 2.89851,-25.03758 -4.01571,-11.85069 -10.65938,-22.56899 -17.00645,-33.26966 -22.39846,-37.76203 -56.75229,-106.21147 -95.07501,-177.81354 -6.77879,-12.66548 -14.25596,-25.2769 -24.73511,-35.26129 -7.1965,-6.85671 -16.34865,-11.98843 -26.35764,-13.00234 -1.87273,-0.18971 -3.75486,-0.27188 -5.63715,-0.25031 z m 510.12823,74.41631 c -8.2053,-0.26726 -15.90057,3.52561 -22.16341,8.83482 -64.99164,55.09543 -119.37528,105.56794 -175.39893,157.58762 -13.36694,12.41161 -25.83219,25.83598 -37.3347,40.02402 -5.12487,6.32139 -9.21198,14.19934 -8.15776,22.65768 0.85045,6.82344 4.75397,13.21255 11.02771,16.17576 8.68392,4.10158 18.49688,1.30456 27.11572,-1.43698 70.44147,-22.40655 162.75127,-53.91028 261.89176,-82.9547 8.23847,-2.41357 16.70899,-4.91012 23.74171,-10.06942 5.21653,-3.8269 8.67677,-9.71141 9.83453,-16.03491 1.43103,-7.81606 0.83604,-15.8475 -0.19708,-23.66301 -2.04433,-15.46515 -6.62085,-30.5487 -12.73351,-44.8929 -1.67425,-3.92887 -3.88535,-7.57572 -6.38637,-11.02501 -10.21999,-14.09497 -21.89285,-27.1738 -34.96374,-38.6848 -5.11512,-4.50467 -10.91485,-8.21892 -17.00056,-11.26475 -5.98431,-2.99508 -12.53872,-5.034 -19.27537,-5.25342 z m -628.71222,86.90986 c -10.37482,-0.30812 -20.45148,3.78233 -28.5769,10.0562 -7.02063,5.42083 -12.59816,12.37305 -17.86057,19.43949 -10.6801,14.3414 -21.3698,28.93653 -28.59629,45.39254 -3.33086,7.58496 -5.46328,15.61978 -7.01327,23.74309 -3.10418,16.26872 -3.77305,32.92829 -2.59106,49.42224 0.57583,8.03538 1.18172,16.08864 2.44726,24.04686 1.78986,11.25528 6.54618,22.45962 15.26422,30.12045 6.67551,5.86601 15.51366,8.5553 24.24698,9.1544 8.26669,0.5671 16.46603,-0.79975 24.70057,-1.20853 65.32657,-3.24293 164.9981,-18.79371 237.01173,-27.59295 8.7908,-1.07414 18.27091,-3.91382 23.67588,-11.59274 4.38448,-6.2291 5.28252,-14.33195 2.76963,-21.42747 -3.55396,-10.03512 -12.60011,-16.61094 -21.34221,-21.73089 C 464.34483,441.29611 367.2097,381.4548 292.54691,336.91073 c -8.19615,-4.88985 -17.46023,-8.37409 -27.10746,-8.6606 z M 683.8829,494.26412 c -8.53905,3.14858 -15.79328,10.78833 -17.2711,20.07189 -1.59799,10.0384 5.31408,19.61649 13.81563,24.3403 10.85269,6.0302 20.5102,8.92289 32.02089,13.32731 56.7308,21.70727 120.67544,42.57569 172.39003,60.00601 17.82002,6.00622 35.80745,11.5194 53.84315,16.84143 12.27406,3.62186 25.21914,6.23583 38.08004,4.60343 9.78872,-1.24247 18.96136,-6.44764 24.96406,-14.2959 4.0428,-5.28585 6.4289,-11.55372 8.2808,-17.87911 5.0664,-17.30505 8.5837,-35.05595 10.6813,-52.96144 1.2231,-10.44016 0.6881,-20.9703 0.015,-31.42147 -1.3269,-20.61356 -3.6771,-41.25677 -8.6006,-61.33228 -2.8675,-11.69187 -7.4689,-23.29718 -15.26085,-32.66977 -6.00942,-7.22848 -14.81554,-13.59755 -24.24404,-12.88231 -21.5986,1.63845 -206.98574,54.11621 -288.71471,84.25191 z m -189.9272,26.20001 c -103.19278,11.30438 -226.63499,29.51765 -278.92307,31.99848 -9.71327,0.46085 -19.40419,4.31058 -26.81066,10.79036 -5.08872,4.45203 -8.40639,10.72956 -9.40208,17.43375 -2.29506,15.45322 -1.05409,31.23107 2.08678,46.45188 4.34219,21.04245 12.78825,41.08 23.42838,59.67928 5.7508,10.05256 12.18288,19.80666 19.97637,28.39678 7.37128,8.12476 18.29783,12.52044 29.19018,12.86556 11.95186,0.3787 24.18095,-2.72921 34.0725,-9.368 51.96085,-34.87389 160.09367,-113.37276 219.48497,-153.69151 7.69384,-5.22309 14.66615,-12.91682 15.73817,-22.63463 1.03517,-9.38379 -6.15497,-17.92549 -14.95395,-20.2435 -4.5273,-1.19268 -9.25031,-2.18644 -13.88759,-1.67845 z m 178.21069,31.13654 c -10.1983,-0.11278 -21.01706,4.5512 -25.9463,13.99222 -4.25857,8.15648 -4.70176,17.9286 -1.53066,26.33684 31.62798,83.86242 66.76123,157.39653 107.15661,243.13702 6.4551,13.70117 18.02312,25.15017 31.90656,31.68326 12.30923,5.79232 26.78011,6.35801 39.63529,2.07191 6.77004,-2.25722 13.05222,-5.69393 19.40943,-8.88101 19.17028,-9.61067 38.16355,-20.33716 53.78593,-35.22793 7.27275,-6.93216 13.73648,-14.66427 20.07768,-22.44321 19.27052,-23.63974 35.06057,-49.92532 48.86006,-77.0388 6.58799,-12.94421 10.33858,-27.70355 9.00385,-42.3501 -1.00042,-10.97788 -5.77376,-21.56501 -13.52772,-29.43626 -8.10643,-8.22905 -18.76876,-13.33119 -29.69983,-16.70512 -68.29376,-21.07923 -124.37274,-41.81809 -225.25912,-77.72396 -10.88315,-3.87336 -22.21841,-7.28599 -33.87178,-7.41486 z m -137.50046,21.38287 c -10.82349,-0.25119 -22.37493,0.48065 -30.87908,6.22681 -52.63373,35.56408 -155.20704,111.58596 -211.68405,153.59599 -9.53661,7.09374 -17.90089,16.6371 -20.89219,28.34661 -2.59575,10.16112 -0.90083,21.01321 3.38926,30.48693 6.69114,14.77592 15.26748,28.74217 25.81874,41.06963 4.64719,5.42951 9.94566,10.27189 15.76225,14.42987 16.93703,12.10743 57.07743,30.86323 76.97099,36.90552 8.14446,2.47372 16.46188,4.63733 24.96866,5.36285 10.2305,0.87253 21.11387,-1.15482 29.37434,-7.55908 7.76699,-6.02167 12.12812,-15.10183 16.67265,-23.60754 29.02642,-54.32691 71.11214,-186.60401 93.52793,-245.12057 3.1679,-8.26981 4.92274,-18.56084 1.20159,-27.04527 -3.64929,-8.32059 -15.28329,-12.88409 -24.23109,-13.09175 z m 72.9371,4.61275 c -10.89251,-0.45529 -21.0077,1.25286 -27.16107,9.64208 -9.16281,12.49215 -22.90896,50.81629 -27.76357,65.43185 -14.50867,43.68065 -43.41206,130.3254 -70.97539,206.43211 -4.40112,12.15217 -13.01938,26.78535 -10.16167,39.50926 2.77403,12.35135 10.74731,23.22449 21.23663,30.20396 6.68766,4.44989 14.12027,7.62615 21.52054,10.66759 14.45003,5.93883 28.55189,5.99245 54.41474,8.18738 20.58652,1.74714 41.31237,0.51092 61.79975,-1.81234 27.69712,-3.14084 55.21204,-8.55834 81.75466,-17.15517 9.09071,-2.94437 17.78912,-7.29635 25.37979,-13.13109 8.71631,-6.69999 15.69606,-16.19183 17.66778,-27.17171 2.12347,-11.82493 -0.5183,-24.05112 -5.51323,-34.75233 -38.29004,-82.03309 -71.83913,-161.2113 -110.26639,-246.92787 -4.94837,-11.03794 -7.45932,-17.45932 -18.4783,-23.34939 -3.503,-1.87248 -9.47746,-5.6081 -13.45427,-5.77433 z"
         style="color:#000000;fill:url(#radialGradient5680);fill-opacity:1;stroke:none;stroke-width:2.20286"
         id="path3040" />
    </g>
  </g>
</svg>
