<?xml version="1.0" encoding="UTF-8" standalone="no"?>
<svg
   xmlns:dc="http://purl.org/dc/elements/1.1/"
   xmlns:cc="http://creativecommons.org/ns#"
   xmlns:rdf="http://www.w3.org/1999/02/22-rdf-syntax-ns#"
   xmlns:svg="http://www.w3.org/2000/svg"
   xmlns="http://www.w3.org/2000/svg"
   xmlns:xlink="http://www.w3.org/1999/xlink"
   xmlns:sodipodi="http://sodipodi.sourceforge.net/DTD/sodipodi-0.dtd"
   xmlns:inkscape="http://www.inkscape.org/namespaces/inkscape"
   id="svg1931"
   viewBox="0 0 379.20041 324.92795"
   version="1.0"
   y="0"
   x="0"
   inkscape:version="1.0.2-2 (e86c870879, 2021-01-15)"
   sodipodi:docname="lock.svg"
   width="100.33011mm"
   height="85.97052mm">
  <sodipodi:namedview
     pagecolor="#ffffff"
     bordercolor="#666666"
     borderopacity="1"
     objecttolerance="10"
     gridtolerance="10"
     guidetolerance="10"
     inkscape:pageopacity="0"
     inkscape:pageshadow="2"
     inkscape:window-width="1920"
     inkscape:window-height="1017"
     id="namedview75"
     showgrid="false"
     units="mm"
     inkscape:zoom="1.4843305"
     inkscape:cx="51.758012"
     inkscape:cy="69.16277"
     inkscape:window-x="-8"
     inkscape:window-y="-8"
     inkscape:window-maximized="1"
     inkscape:current-layer="svg1931"
     inkscape:document-rotation="0" />
  <defs
     id="defs3">
    <linearGradient
       id="linearGradient3057">
      <stop
         id="stop3059"
         style="stop-color:#282828"
         offset="0" />
      <stop
         id="stop3061"
         style="stop-color:#282828;stop-opacity:0"
         offset="1" />
    </linearGradient>
    <linearGradient
       id="linearGradient2834">
      <stop
         id="stop2836"
         style="stop-color:#ffe19c"
         offset="0" />
      <stop
         id="stop2838"
         style="stop-color:#b79e4f;stop-opacity:0"
         offset="1" />
    </linearGradient>
    <linearGradient
       id="linearGradient2780">
      <stop
         id="stop2782"
         style="stop-color:#ffffff"
         offset="0" />
      <stop
         id="stop2784"
         style="stop-color:#ffffff;stop-opacity:0"
         offset="1" />
    </linearGradient>
    <linearGradient
       id="linearGradient2713">
      <stop
         id="stop2715"
         style="stop-color:#000000"
         offset="0" />
      <stop
         id="stop2717"
         style="stop-color:#ffffff"
         offset="1" />
    </linearGradient>
    <linearGradient
       id="linearGradient2707"
       y2="52.609001"
       spreadMethod="reflect"
       gradientUnits="userSpaceOnUse"
       y1="52.609001"
       gradientTransform="matrix(2.1518,0,0,1.7708,-0.051304,4.3518)"
       x2="44.723999"
       x1="29.614">
      <stop
         id="stop2703"
         style="stop-color:#a47c44"
         offset="0" />
      <stop
         id="stop2770"
         style="stop-color:#baa363"
         offset=".75" />
      <stop
         id="stop2705"
         style="stop-color:#d6c795"
         offset="1" />
    </linearGradient>
    <linearGradient
       id="linearGradient2732"
       y2="47.296001"
       xlink:href="#linearGradient2713"
       spreadMethod="reflect"
       gradientUnits="userSpaceOnUse"
       y1="46.356998"
       gradientTransform="matrix(2.2188,0,0,1.826,-0.051304,-1.0128)"
       x2="29.094"
       x1="29.094" />
    <linearGradient
       id="linearGradient2736"
       y2="45.888"
       xlink:href="#linearGradient2713"
       spreadMethod="reflect"
       gradientUnits="userSpaceOnUse"
       y1="44.011002"
       gradientTransform="matrix(2.2188,0,0,1.826,-0.051304,-1.0128)"
       x2="24.606001"
       x1="24.261" />
    <radialGradient
       id="radialGradient2811"
       xlink:href="#linearGradient2780"
       gradientUnits="userSpaceOnUse"
       cy="22.546"
       cx="20.361"
       gradientTransform="matrix(0.43334,0,0,1.435,6.4099,-0.11314)"
       r="15.157" />
    <radialGradient
       id="radialGradient2813"
       xlink:href="#linearGradient2780"
       gradientUnits="userSpaceOnUse"
       cy="22.546"
       cx="20.361"
       gradientTransform="matrix(0.50007,0,0,1.6752,5.003,-5.1081)"
       r="15.157" />
    <radialGradient
       id="radialGradient2815"
       xlink:href="#linearGradient2780"
       gradientUnits="userSpaceOnUse"
       cy="22.546"
       cx="20.361"
       gradientTransform="matrix(0.6214,0,0,1.8821,2.3888,-9.4094)"
       r="15.157" />
    <radialGradient
       id="radialGradient2869"
       xlink:href="#linearGradient2834"
       gradientUnits="userSpaceOnUse"
       cy="8.9813995"
       cx="21.594999"
       gradientTransform="matrix(2.3666,0,0,1.7265,-0.40436,8.5703)"
       r="6.0679002" />
    <radialGradient
       id="radialGradient2873"
       xlink:href="#linearGradient2834"
       gradientUnits="userSpaceOnUse"
       cy="8.9813995"
       cx="21.594999"
       gradientTransform="matrix(-2.3666,0,0,1.7265,129.12,8.4702)"
       r="6.0679002" />
    <linearGradient
       id="linearGradient2895"
       y2="-13.17"
       xlink:href="#linearGradient2780"
       gradientUnits="userSpaceOnUse"
       y1="24.385"
       gradientTransform="matrix(2.1611,0,0,1.8045,-0.051304,10.85)"
       x2="33.183998"
       x1="33.183998" />
    <linearGradient
       id="linearGradient2935"
       y2="-13.17"
       xlink:href="#linearGradient2780"
       gradientUnits="userSpaceOnUse"
       y1="24.385"
       gradientTransform="matrix(2.2102,0,0,1.9643,-1.5159,6.4118)"
       x2="33.183998"
       x1="33.183998" />
    <linearGradient
       id="linearGradient2943"
       y2="7.5862999"
       xlink:href="#linearGradient2780"
       gradientUnits="userSpaceOnUse"
       y1="9.5746002"
       gradientTransform="matrix(1.632,0,0,2.4825,-0.051304,8.5703)"
       x2="38.782001"
       x1="38.782001" />
    <linearGradient
       id="linearGradient2951"
       y2="6.0918002"
       xlink:href="#linearGradient2780"
       gradientUnits="userSpaceOnUse"
       y1="11.17"
       gradientTransform="matrix(1.6375,0,0,2.4742,-0.051304,8.5703)"
       x2="39.723999"
       x1="38.362999" />
    <radialGradient
       id="radialGradient2955"
       xlink:href="#linearGradient2834"
       gradientUnits="userSpaceOnUse"
       cy="8.9813995"
       cx="21.594999"
       gradientTransform="matrix(3.085,0,0,2.0529,-15.985,5.4338)"
       r="6.0679002" />
    <radialGradient
       id="radialGradient2959"
       xlink:href="#linearGradient2834"
       gradientUnits="userSpaceOnUse"
       cy="8.9813995"
       cx="21.594999"
       gradientTransform="matrix(-2.8463,0,0,2.0879,139.53,4.9969)"
       r="6.0679002" />
    <radialGradient
       id="radialGradient3063"
       xlink:href="#linearGradient3057"
       gradientUnits="userSpaceOnUse"
       cy="231.98"
       cx="8.0178003"
       gradientTransform="matrix(7.5313,0,0,0.53795,-61.705,14.541)"
       r="7.4833002" />
    <radialGradient
       id="radialGradient3069"
       xlink:href="#linearGradient3057"
       gradientUnits="userSpaceOnUse"
       cy="231.98"
       cx="8.0178003"
       gradientTransform="matrix(7.5313,0,0,0.53795,-48.644,17.38)"
       r="7.4833002" />
    <radialGradient
       id="radialGradient3071"
       xlink:href="#linearGradient3057"
       gradientUnits="userSpaceOnUse"
       cy="231.98"
       cx="8.0178003"
       gradientTransform="matrix(7.5313,0,0,0.67244,-57.6,-15.945)"
       r="7.4833002" />
    <linearGradient
       id="linearGradient3080"
       y2="44.980999"
       xlink:href="#linearGradient2780"
       gradientUnits="userSpaceOnUse"
       y1="68.68"
       gradientTransform="matrix(2.1361,0,0,1.826,2.3487,-1.0128)"
       x2="26.974001"
       x1="26.974001" />
    <linearGradient
       id="linearGradient3084"
       y2="11.711"
       xlink:href="#linearGradient2780"
       gradientUnits="userSpaceOnUse"
       y1="1.6246001"
       gradientTransform="matrix(1.632,0,0,2.4361,-0.051304,10.593)"
       x2="35.995998"
       x1="35.995998" />
    <linearGradient
       id="linearGradient3086"
       y2="62.779999"
       xlink:href="#linearGradient2713"
       spreadMethod="reflect"
       gradientUnits="userSpaceOnUse"
       y1="60.433998"
       gradientTransform="matrix(2.2188,0,0,1.826,-0.051304,-1.0128)"
       x2="17.424999"
       x1="17.681999" />
    <radialGradient
       inkscape:collect="always"
       xlink:href="#linearGradient2780"
       id="radialGradient900"
       gradientUnits="userSpaceOnUse"
       gradientTransform="matrix(0.43334,0,0,1.435,6.4099,-0.11314)"
       cx="20.361"
       cy="22.546"
       r="15.157" />
    <radialGradient
       inkscape:collect="always"
       xlink:href="#linearGradient2780"
       id="radialGradient902"
       gradientUnits="userSpaceOnUse"
       gradientTransform="matrix(0.50007,0,0,1.6752,5.003,-5.1081)"
       cx="20.361"
       cy="22.546"
       r="15.157" />
    <radialGradient
       inkscape:collect="always"
       xlink:href="#linearGradient2780"
       id="radialGradient904"
       gradientUnits="userSpaceOnUse"
       gradientTransform="matrix(0.6214,0,0,1.8821,2.3888,-9.4094)"
       cx="20.361"
       cy="22.546"
       r="15.157" />
  </defs>
  <g
     id="layer2"
     transform="matrix(2.3959234,0,0,2.3959234,138.19447,-25.356057)">
    <path
       id="rect2723"
       style="fill:#282828;fill-rule:evenodd"
       d="m 64.359,10.583 c -20.072,0 -36.231,16.159 -36.231,36.231 V 87.07 H 38.192 V 46.814 c 0,-14.496 11.671,-26.167 26.167,-26.167 14.496,0 26.167,11.671 26.167,26.167 V 87.07 H 100.59 V 46.814 c 0,-20.072 -16.159,-36.231 -36.231,-36.231 z" />
    <path
       id="path3082"
       style="opacity:0.65;fill:url(#linearGradient3084);fill-rule:evenodd"
       d="m 64.359,13.212 c -18.957,0 -34.218,16.307 -34.218,34.909 v 37.528 c 0,14.09 8.776,26.051 21.261,31.051 C 42.457,112.62 36.18,103.9 36.18,93.55 V 46.146 c 0,-14.225 11.67,-26.621 26.166,-26.621 h 4.026 c 14.496,0 26.167,12.396 26.167,26.621 V 93.55 c 0,10.35 -6.277,19.07 -15.222,23.15 12.484,-5 21.26,-16.961 21.26,-31.051 V 48.121 c 0,-18.602 -15.261,-34.909 -34.218,-34.909 z" />
    <path
       id="path2931"
       style="opacity:0.5;fill:url(#linearGradient2951);fill-rule:evenodd"
       d="m 64.359,11.437 c -19.51,0 -35.217,15.601 -35.217,34.98 v 39.095 c 0,14.678 9.033,27.138 21.881,32.348 C 41.817,113.61 35.357,104.52 35.357,93.743 V 44.359 c 0,-14.819 12.011,-29.082 26.931,-29.082 h 4.143 c 14.919,0 26.93,14.263 26.93,29.082 v 49.384 c 0,10.777 -6.46,19.867 -15.666,24.117 12.848,-5.21 21.881,-17.67 21.881,-32.348 V 46.417 c 0,-19.379 -15.707,-34.98 -35.217,-34.98 z" />
    <path
       id="path2861"
       style="opacity:0.8;fill:url(#radialGradient2869);fill-rule:evenodd"
       d="m 49.471,20.586 c -5.439,3.406 -8.499,9.21 -7.9,11.145 0.646,2.085 4.467,-7.233 15.283,-10.119 8.341,-2.225 0,-5.649 -7.383,-1.026 z" />
    <path
       id="path2871"
       style="opacity:0.8;fill:url(#radialGradient2873);fill-rule:evenodd"
       d="m 79.248,20.486 c 5.438,3.405 8.498,9.21 7.899,11.145 -0.646,2.085 -4.467,-7.233 -15.283,-10.119 -8.341,-2.225 0,-5.649 7.384,-1.026 z" />
    <path
       id="rect2875"
       style="opacity:0.5;fill:url(#linearGradient2943);fill-rule:evenodd"
       d="m 64.359,14.862 c -18.957,0 -34.218,12.995 -34.218,31.952 v 38.244 c 0,14.357 8.776,26.542 21.261,31.642 C 42.457,112.55 36.18,103.65 36.18,93.109 V 44.801 c 0,-14.496 11.67,-26.182 26.166,-26.182 h 4.026 c 14.496,0 26.167,11.686 26.167,26.182 v 48.308 c 0,10.541 -6.277,19.441 -15.222,23.591 12.484,-5.1 21.26,-17.285 21.26,-31.642 V 46.814 c 0,-18.957 -15.261,-31.952 -34.218,-31.952 z" />
    <path
       id="path2933"
       style="opacity:0.8;fill:url(#linearGradient2935);fill-rule:evenodd"
       d="m 64.359,12.622 c -26.762,0 -32.937,23.315 -32.937,33.86 0,31.635 2.058,31.635 2.058,0 0,-23.199 16.463,-32.355 30.879,-32.355 14.416,0 30.879,10.103 30.879,32.355 0,31.635 2.059,31.635 2.059,0 0,-10.545 -6.176,-33.86 -32.938,-33.86 z" />
    <path
       id="path2885"
       style="opacity:0.6;fill:url(#linearGradient2895);fill-rule:evenodd"
       d="m 64.359,15.674 c -26.167,0 -32.205,22.301 -32.205,31.988 0,29.062 2.013,29.062 2.013,0 0,-21.312 16.096,-30.605 30.192,-30.605 14.096,0 30.193,10.162 30.193,30.605 0,29.062 2.012,29.062 2.012,0 0,-9.687 -6.038,-31.988 -32.205,-31.988 z" />
    <path
       id="path2897"
       style="opacity:0.8;fill:#ffffff;fill-rule:evenodd"
       d="m 36.98,25.071 c -2.876,5.248 3.027,1.931 4.398,0.273 3.854,-4.659 10.367,-8.036 16.085,-9.138 4.794,-0.924 5.525,-2.776 1.577,-3.082 -7.872,-0.611 -19.304,6.915 -22.06,11.947 z" />
    <path
       id="path2901"
       style="opacity:0.6;fill:#ffffff;fill-rule:evenodd"
       d="m 32.623,33.739 c 0.305,2.564 5.264,-5.798 9.168,-9.724 4.768,-4.795 11.996,-8.151 15.474,-8.594 6.198,-0.791 3.256,-3.828 -0.629,-3.061 -14.12,2.789 -24.79,14.839 -24.013,21.379 z" />
    <path
       id="path2909"
       style="opacity:0.8;fill:#ffffff;fill-rule:evenodd"
       d="m 91.58,25.035 c 2.894,5.237 -3.02,1.942 -4.397,0.29 -3.871,-4.645 -10.397,-7.998 -16.119,-9.08 -4.798,-0.906 -6.148,-2.752 -2.201,-3.073 7.87,-0.64 19.942,6.842 22.717,11.863 z" />
    <path
       id="path2911"
       style="opacity:0.6;fill:#ffffff;fill-rule:evenodd"
       d="m 95.798,33.508 c -0.295,2.566 -5.284,-5.779 -9.203,-9.69 -4.786,-4.777 -12.026,-8.107 -15.505,-8.537 -6.201,-0.768 -3.293,-3.696 0.617,-3.063 14.141,2.302 24.844,14.747 24.091,21.29 z" />
    <path
       id="path2953"
       style="opacity:0.4;fill:url(#radialGradient2955);fill-rule:evenodd"
       d="m 49.032,19.721 c -7.089,4.049 -11.079,10.952 -10.298,13.252 0.842,2.48 5.823,-8.601 19.923,-12.032 10.873,-2.646 0,-6.717 -9.625,-1.22 z" />
    <path
       id="path2957"
       style="opacity:0.4;fill:url(#radialGradient2959);fill-rule:evenodd"
       d="m 79.54,19.528 c 6.541,4.119 10.222,11.139 9.501,13.479 -0.776,2.521 -5.372,-8.748 -18.381,-12.238 -10.031,-2.691 0.001,-6.831 8.88,-1.241 z" />
    <path
       id="path3055"
       style="opacity:0.4;fill:url(#radialGradient3063);fill-rule:evenodd"
       d="m 55.039,139.34 c 0,2.22 -25.233,4.02 -56.359,4.02 -31.126,0 -56.359,-1.8 -56.359,-4.02 0,-2.23 25.233,-4.03 56.359,-4.03 31.126,0 56.359,1.8 56.359,4.03 z" />
    <path
       id="path3065"
       style="opacity:0.4;fill:url(#radialGradient3071);fill-rule:evenodd"
       d="m 59.144,140.05 c 0,2.78 -25.233,5.03 -56.359,5.03 -31.127,0 -56.359,-2.25 -56.359,-5.03 0,-2.78 25.232,-5.03 56.359,-5.03 31.126,0 56.359,2.25 56.359,5.03 z" />
    <path
       id="path3067"
       style="opacity:0.4;fill:url(#radialGradient3069);fill-rule:evenodd"
       d="m 68.1,142.17 c 0,2.23 -25.233,4.03 -56.359,4.03 -31.126,0 -56.359,-1.8 -56.359,-4.03 0,-2.22 25.233,-4.02 56.359,-4.02 31.126,0 56.359,1.8 56.359,4.02 z" />
  </g>
  <g
     id="layer1"
     transform="matrix(2.3959234,0,0,2.3959234,-8.4384372,13.090607)">
    <rect
       id="rect1941"
       style="fill:url(#linearGradient2707);fill-rule:evenodd"
       rx="0.5"
       ry="0.5"
       height="66.259003"
       width="80.513"
       y="57.359001"
       x="24.103001" />
    <rect
       id="rect2709"
       style="opacity:0.03;fill:url(#linearGradient2732);fill-rule:evenodd"
       rx="0.5"
       ry="0.5"
       height="66.259003"
       width="80.513"
       y="57.359001"
       x="24.103001" />
    <rect
       id="rect2734"
       style="opacity:0.03;fill:url(#linearGradient2736);fill-rule:evenodd"
       rx="0.5"
       ry="0.5"
       height="66.259003"
       width="80.513"
       y="57.359001"
       x="24.103001" />
    <rect
       id="rect2738"
       style="opacity:0.03;fill:url(#linearGradient3086);fill-rule:evenodd"
       rx="0.5"
       ry="0.5"
       height="66.259003"
       width="80.513"
       y="57.359001"
       x="24.103001" />
    <path
       id="path2727"
       style="opacity:0.5;fill:#ffffff;fill-rule:evenodd"
       d="m 26.619,57.359 c 1.81,2.122 18.145,3.786 38.655,3.786 20.229,0 36.296,-1.647 38.486,-3.727 -0.03,-0.003 -0.03,-0.059 -0.06,-0.059 z" />
    <g
       id="g2798"
       transform="matrix(1.7195,0,0,1.9816,4.4209,1.4876)">
      <path
         id="path2778"
         style="opacity:0.40278;fill:url(#radialGradient900);fill-rule:evenodd"
         d="m 13.971,30.767 c -0.439,2.629 -0.931,19.309 0.697,22.88 1.592,3.493 1.393,-16.667 5.273,-19.84 3.921,-3.207 -5.555,-5.52 -5.97,-3.04 z" />
      <path
         id="path2790"
         style="opacity:0.3;fill:url(#radialGradient902);fill-rule:evenodd"
         d="m 13.729,30.942 c -0.508,3.069 -1.075,22.541 0.803,26.71 1.837,4.078 1.608,-19.457 6.085,-23.161 4.525,-3.744 -6.41,-6.445 -6.888,-3.549 z" />
      <path
         id="path2794"
         style="opacity:0.2;fill:url(#radialGradient904);fill-rule:evenodd"
         d="m 13.232,31.092 c -0.631,3.449 -1.335,25.325 0.998,30.009 2.283,4.582 1.998,-21.86 7.562,-26.022 5.623,-4.206 -7.966,-7.24 -8.56,-3.987 z" />
    </g>
    <g
       id="g2803"
       transform="matrix(-1.7195,0,0,1.9816,124.3,1.4876)">
      <path
         id="path2805"
         style="opacity:0.40278;fill:url(#radialGradient2811);fill-rule:evenodd"
         d="m 13.971,30.767 c -0.439,2.629 -0.931,19.309 0.697,22.88 1.592,3.493 1.393,-16.667 5.273,-19.84 3.921,-3.207 -5.555,-5.52 -5.97,-3.04 z" />
      <path
         id="path2807"
         style="opacity:0.3;fill:url(#radialGradient2813);fill-rule:evenodd"
         d="m 13.729,30.942 c -0.508,3.069 -1.075,22.541 0.803,26.71 1.837,4.078 1.608,-19.457 6.085,-23.161 4.525,-3.744 -6.41,-6.445 -6.888,-3.549 z" />
      <path
         id="path2809"
         style="opacity:0.2;fill:url(#radialGradient2815);fill-rule:evenodd"
         d="m 13.232,31.092 c -0.631,3.449 -1.335,25.325 0.998,30.009 2.283,4.582 1.998,-21.86 7.562,-26.022 5.623,-4.206 -7.966,-7.24 -8.56,-3.987 z" />
    </g>
    <path
       id="rect3077"
       style="opacity:0.25;fill:url(#linearGradient3080);fill-rule:evenodd"
       d="m 103.12,114.72 v 7.89 c 0,0.56 -0.44,1.01 -0.97,1.01 H 26.572 c -0.537,0 -0.969,-0.45 -0.969,-1.01 V 94.596 c 0,29.514 77.517,-20.879 77.517,20.124 z" />
    <path
       id="path2768"
       style="opacity:0.5;fill:#000000;fill-rule:evenodd"
       d="m 25.647,123.62 c 1.81,-2.12 18.145,-3.79 38.655,-3.79 20.229,0 36.298,1.65 38.488,3.73 -0.04,0 -0.03,0.06 -0.06,0.06 z" />
  </g>
  <metadata
     id="metadata72">
    <rdf:RDF>
      <cc:Work>
        <dc:format>image/svg+xml</dc:format>
        <dc:type
           rdf:resource="http://purl.org/dc/dcmitype/StillImage" />
        <cc:license
           rdf:resource="http://creativecommons.org/publicdomain/zero/1.0/" />
        <dc:publisher>
          <cc:Agent
             rdf:about="http://openclipart.org/">
            <dc:title>Openclipart</dc:title>
          </cc:Agent>
        </dc:publisher>
        <dc:title>lock - open</dc:title>
        <dc:date>2008-02-06T02:54:54</dc:date>
        <dc:description />
        <dc:source>https://openclipart.org/detail/12939/lock---open-by-anonymous-12939</dc:source>
        <dc:creator>
          <cc:Agent>
            <dc:title>Anonymous</dc:title>
          </cc:Agent>
        </dc:creator>
        <dc:subject>
          <rdf:Bag>
            <rdf:li>lock</rdf:li>
            <rdf:li>open</rdf:li>
            <rdf:li>padlock</rdf:li>
            <rdf:li>security</rdf:li>
            <rdf:li>tool</rdf:li>
          </rdf:Bag>
        </dc:subject>
      </cc:Work>
      <cc:License
         rdf:about="http://creativecommons.org/publicdomain/zero/1.0/">
        <cc:permits
           rdf:resource="http://creativecommons.org/ns#Reproduction" />
        <cc:permits
           rdf:resource="http://creativecommons.org/ns#Distribution" />
        <cc:permits
           rdf:resource="http://creativecommons.org/ns#DerivativeWorks" />
      </cc:License>
    </rdf:RDF>
  </metadata>
</svg>
