<?xml version="1.0" encoding="UTF-8" standalone="no"?>
<svg
   xmlns:dc="http://purl.org/dc/elements/1.1/"
   xmlns:cc="http://creativecommons.org/ns#"
   xmlns:rdf="http://www.w3.org/1999/02/22-rdf-syntax-ns#"
   xmlns:svg="http://www.w3.org/2000/svg"
   xmlns="http://www.w3.org/2000/svg"
   xmlns:xlink="http://www.w3.org/1999/xlink"
   xmlns:sodipodi="http://sodipodi.sourceforge.net/DTD/sodipodi-0.dtd"
   xmlns:inkscape="http://www.inkscape.org/namespaces/inkscape"
   enable-background="new 0 0 74.6 71.7"
   version="1.1"
   viewBox="0 0 472.44095 332.59844"
   id="svg234"
   sodipodi:docname="log.svg"
   width="125mm"
   height="88mm"
   inkscape:version="1.0.2-2 (e86c870879, 2021-01-15)">
  <metadata
     id="metadata240">
    <rdf:RDF>
      <cc:Work
         rdf:about="">
        <dc:format>image/svg+xml</dc:format>
        <dc:type
           rdf:resource="http://purl.org/dc/dcmitype/StillImage" />
        <dc:title></dc:title>
      </cc:Work>
    </rdf:RDF>
  </metadata>
  <defs
     id="defs238" />
  <sodipodi:namedview
     pagecolor="#ffffff"
     bordercolor="#666666"
     borderopacity="1"
     objecttolerance="10"
     gridtolerance="10"
     guidetolerance="10"
     inkscape:pageopacity="0"
     inkscape:pageshadow="2"
     inkscape:window-width="1920"
     inkscape:window-height="1017"
     id="namedview236"
     showgrid="false"
     units="mm"
     inkscape:zoom="1.481869"
     inkscape:cx="131.81598"
     inkscape:cy="58.061958"
     inkscape:window-x="-8"
     inkscape:window-y="-8"
     inkscape:window-maximized="1"
     inkscape:current-layer="svg234" />
  <symbol
     id="h"
     viewBox="-0.04 -12.963 59.596 12.963">
    <path
       d="m 57.2,0 c 1.033,0 1.75,-0.95 2.15,-2.85 0.433,-1.9 0.183,-3.183 -0.75,-3.85 -1.367,-0.966 -3.2,-1.917 -5.5,-2.85 -3.333,-1.3 -6.983,-2.284 -10.95,-2.95 -3.9,-0.633 -9.8,-0.617 -17.7,0.05 -5.367,0.467 -10.284,1.067 -14.75,1.8 -2.4,0.4 -4.583,1.05 -6.55,1.95 -1.8,0.8 -2.85,1.533 -3.15,2.2 -0.233,0.467 0.567,1.267 2.4,2.4 0.9,0.533 1.833,1.033 2.8,1.5 33.3,1.733 50.633,2.6 52,2.6 z"
       clip-rule="evenodd"
       fill-rule="evenodd"
       id="path2" />
  </symbol>
  <symbol
     id="i"
     viewBox="0 -78.704 20.75 78.704">
    <path
       d="m 10.25,-2.15 c 0.8,0.633 2.017,1.35 3.65,2.15 0.067,-1.233 0.15,-2.8 0.25,-4.7 0.067,-1.6 0.067,-3.15 0,-4.65 -0.033,-0.967 -0.4,-3.083 -1.1,-6.35 -0.566,-2.667 -0.733,-4.783 -0.5,-6.35 0.1,0.133 0.667,1.066 1.7,2.8 0.7,1.2 1.4,1.95 2.1,2.25 -0.4,-0.8 -1.033,-2.05 -1.9,-3.75 0.466,0.367 1.483,1.633 3.05,3.8 1.233,1.733 2.317,2.65 3.25,2.75 -0.333,-0.933 -1.05,-2.183 -2.15,-3.75 -1.1,-1.533 -1.833,-2.816 -2.2,-3.85 -0.367,-1.2 -0.767,-4.367 -1.2,-9.5 -0.4,-4.867 -0.567,-8.15 -0.5,-9.85 0.066,-1.434 0.3,-5.883 0.7,-13.35 0.367,-6.4 0.567,-10.783 0.6,-13.15 -0.533,-0.3 -1.2,-1.067 -2,-2.3 -0.733,-1.2 -1.417,-1.917 -2.05,-2.15 l -0.05,0.15 C 10.2,-73.983 8.117,-75.7 5.65,-77.1 3.15,-78.5 1.267,-78.983 0,-78.55 c 0.167,1.4 0.85,3.45 2.05,6.15 0.233,-0.633 0.567,-1.184 1,-1.65 0.267,1.2 0.617,3.65 1.05,7.35 1.066,-1.933 2.183,-3.216 3.35,-3.85 0.367,1.267 0.383,2.833 0.05,4.7 -0.2,1.167 -0.633,2.733 -1.3,4.7 0.1,-0.767 0.017,-1.5 -0.25,-2.2 -0.367,6.267 -0.633,11.533 -0.8,15.8 -0.3,8.066 -0.1,13.183 0.6,15.35 -0.6,5.534 -0.3,8.667 0.9,9.4 0.067,-0.2 0.217,-0.534 0.45,-1 0.233,-0.4 0.383,-0.717 0.45,-0.95 -0.167,3.667 -0.3,6.783 -0.4,9.35 -0.167,4.867 -0.033,8 0.4,9.4 0.433,1.467 1.333,2.75 2.7,3.85 z"
       clip-rule="evenodd"
       fill="#1c1105"
       fill-rule="evenodd"
       id="path5" />
  </symbol>
  <symbol
     id="j"
     viewBox="-0.006 -75.995 16.056 76.005">
    <path
       d="m 13.3,-10.45 c 0.4,-2.033 0.867,-4.55 1.4,-7.55 0.566,-2.5 0.966,-6.35 1.2,-11.55 0.2,-4.7 0.2,-8.65 0,-11.85 0.033,1.033 -0.1,2.45 -0.4,4.25 -0.367,2.033 -0.767,3.217 -1.2,3.55 -1.066,-2.633 -1.417,-8.617 -1.05,-17.95 0.3,-8.167 0.833,-14.184 1.6,-18.05 0.6,-3.167 0.9,-4.883 0.9,-5.15 -0.033,-1.233 -0.883,-1.55 -2.55,-0.95 -2.434,0.867 -3.967,1.45 -4.6,1.75 -2,0.934 -3.35,1.95 -4.05,3.05 l 0.3,0.05 c -0.667,2.3 -1.167,3.833 -1.5,4.6 -0.367,0.733 -1.033,1.85 -2,3.35 l -1.35,2 c -0.033,0.533 0.067,1.167 0.3,1.9 0.133,0.433 0.383,0.75 0.75,0.95 l 0.5,0.15 2.5,-2.35 c 0.533,1.6 0.85,3.183 0.95,4.75 0.1,0.967 0.75,4.983 1.95,12.05 l 1.75,10.3 c 0.033,1.833 -0.284,4.233 -0.95,7.2 -0.767,3.3 -1.2,5.684 -1.3,7.15 -0.533,8.467 -1.083,14.05 -1.65,16.75 l -0.05,1.7 c 0.133,0.633 1.067,0.434 2.8,-0.6 0.867,-0.533 1.717,-1.117 2.55,-1.75 l 0.2,0.15 c 0.233,-0.034 0.617,-0.4 1.15,-1.1 0.5,-0.633 1.117,-2.9 1.85,-6.8 z"
       clip-rule="evenodd"
       fill="#1c1105"
       fill-rule="evenodd"
       id="path8" />
  </symbol>
  <symbol
     id="k"
     viewBox="0 -74.864 15.708 74.864">
    <path
       d="m 15.7,0 c 0.066,-1.9 -0.317,-5.667 -1.15,-11.3 -0.833,-5.367 -1.15,-9.034 -0.95,-11 -0.033,0.233 -0.167,1.167 -0.4,2.8 -0.167,1.133 -0.217,2.1 -0.15,2.9 -0.5,-1.133 -0.767,-2.583 -0.8,-4.35 -0.033,-1 -0.05,-2.55 -0.05,-4.65 -0.1,-2.033 -0.567,-6.283 -1.4,-12.75 -0.133,-1.533 -0.1,-4.2 0.1,-8 0.2,-3.733 0.434,-6.333 0.7,-7.8 0.167,-1 0.333,-2.45 0.5,-4.35 0.167,-2.033 0.316,-3.5 0.45,-4.4 0.067,-0.4 0.567,-2.117 1.5,-5.15 0.767,-2.467 1.083,-4.067 0.95,-4.8 -0.167,-0.967 -0.933,-1.583 -2.3,-1.85 -0.967,-0.2 -2.067,-0.216 -3.3,-0.05 -1.2,0.133 -2.467,0.35 -3.8,0.65 -1.934,0.434 -3.033,0.85 -3.3,1.25 -0.367,0.567 -0.583,2 -0.65,4.3 -0.133,2.933 -0.217,4.5 -0.25,4.7 -0.1,-0.2 -0.35,-0.667 -0.75,-1.4 -0.3,-0.567 -0.517,-1.067 -0.65,-1.5 0.067,6.433 0.467,11.85 1.2,16.25 0.1,0.7 0.35,3.117 0.75,7.25 0.4,3.9 0.683,6.317 0.85,7.25 0.8,4.167 1.633,10.067 2.5,17.7 0.933,8.233 1.4,14.2 1.4,17.9 l -0.15,0.25 c 0.367,0.133 1.717,0.05 4.05,-0.25 2.267,-0.333 3.967,-0.2 5.1,0.4 z"
       clip-rule="evenodd"
       fill="#ffffff"
       fill-rule="evenodd"
       id="path11" />
  </symbol>
  <symbol
     id="l"
     viewBox="0 -81.3 26.55 81.3">
    <path
       d="m 23.975,-7.475 c 0.291,0.968 0.866,1.277 1.725,0.925 -0.477,-0.132 -1.053,-0.44 -1.725,-0.925 -0.219,-0.678 -0.294,-1.686 -0.225,-3.025 0.167,-3.233 1.1,-5.033 2.8,-5.4 -2.1,-2.367 -3.3,-3.783 -3.6,-4.25 -1.2,-1.833 -2,-4.217 -2.4,-7.15 -1,-8 -1.5,-13.45 -1.5,-16.35 -0.033,-3.533 0.284,-9.283 0.95,-17.25 0.333,-4.333 0.383,-7.067 0.15,-8.2 -0.4,-1.967 -1.733,-3.783 -4,-5.45 -1.566,-1.167 -3.583,-2.4 -6.05,-3.7 -1.367,-0.7 -3.4,-1.717 -6.1,-3.05 0.033,1.4 -0.1,2.883 -0.4,4.45 -0.333,1.767 -0.583,3.184 -0.75,4.25 -0.2,1.367 -0.333,3.2 -0.4,5.5 -0.1,2.833 -0.184,4.684 -0.25,5.55 -0.534,7.8 -1.1,13.466 -1.7,17 -0.267,1.5 -0.417,3.966 -0.45,7.4 0,3.8 -0.017,6.333 -0.05,7.6 0.167,-0.7 0.617,-1.9 1.35,-3.6 0.596,-1.341 0.963,-2.466 1.1,-3.375 -0.603,4.678 -0.97,9.12 -1.1,13.325 -0.2,6.733 0.367,11.034 1.7,12.9 l 0.2,2.25 c 0.633,0.167 1.567,0.167 2.8,0 0.933,-0.1 1.85,0.117 2.75,0.65 1,0.566 2.6,1.867 4.8,3.9 2.033,1.867 3.583,3.033 4.65,3.5 0,-0.233 -0.1,-2.5 -0.3,-6.8 -0.133,-2.567 -0.083,-4.784 0.15,-6.65 0.566,1.034 1.717,2.35 3.45,3.95 0.911,0.86 1.72,1.536 2.425,2.025 z"
       clip-rule="evenodd"
       fill="#1c1105"
       fill-rule="evenodd"
       id="path14" />
  </symbol>
  <radialGradient
     id="g"
     cx="37.075001"
     cy="85.349998"
     r="31.402"
     gradientTransform="matrix(4.3013868,0,0,-0.9596394,81.707323,371.91087)"
     gradientUnits="userSpaceOnUse">
    <stop
       stop-opacity=".2471"
       offset=".0863"
       id="stop17" />
    <stop
       stop-opacity=".102"
       offset=".8667"
       id="stop19" />
    <stop
       stop-opacity="0"
       offset="1"
       id="stop21" />
  </radialGradient>
  <path
     d="m 241.0737,259.91566 c 37.28012,0 69.1835,2.94215 95.70586,8.82214 26.3847,5.98753 39.57275,13.12783 39.57275,21.42091 0,8.29307 -13.18805,15.38176 -39.57275,21.26175 -26.52236,5.88 -58.42574,8.82215 -95.70586,8.82215 -37.28012,0 -69.10608,-2.94215 -95.49078,-8.82215 -26.38471,-5.87999 -39.57276,-12.97298 -39.57276,-21.26175 0,-8.29738 13.19235,-15.43768 39.57276,-21.42091 26.3804,-5.8843 58.21066,-8.82214 95.49078,-8.82214 z"
     clip-rule="evenodd"
     fill="url(#g)"
     fill-rule="evenodd"
     id="path24"
     style="fill:url(#g);stroke-width:4.30139" />
  <use
     transform="matrix(4.3013868,0,0,-3.1503357,111.17225,277.28036)"
     x="-0.039999999"
     y="-12.963"
     width="59.596001"
     height="12.963"
     enable-background="new"
     opacity="0.1484"
     xlink:href="#h"
     id="use26" />
  <path
     d="m 328.39185,76.891653 c 11.61375,-3.780919 20.00145,-7.561838 25.16742,-11.342757 -0.86028,3.780919 -1.57861,9.187762 -2.1507,16.224831 -1.00222,14.069836 -0.86028,29.085973 0.43014,45.044123 2.15069,25.62336 5.30361,77.8637 9.46305,156.72532 -4.15944,6.508 -11.97076,12.91707 -23.44256,19.2186 -22.79735,12.702 -52.33067,18.68953 -88.60856,17.95399 -42.44179,-0.73554 -76.13455,-5.40684 -101.08259,-14.01822 -7.7425,-2.73138 -14.12575,-5.66923 -19.14117,-8.82214 l -5.37673,-3.94008 c 2.15069,-2.72707 4.08631,-5.98322 5.80687,-9.76414 3.44111,-7.56184 4.22826,-13.75584 2.36576,-18.5863 -1.29041,-3.35938 -0.57208,-20.94775 2.15069,-52.76941 2.72278,-32.44536 2.94215,-52.60166 0.64521,-60.4818 -4.15514,-14.49137 -8.81784,-41.63742 -13.9795,-81.433849 8.17263,2.520613 19.50248,5.092842 33.98095,7.716688 28.96124,5.144459 59.35913,7.979072 91.1894,8.508143 31.82596,0.529071 59.35483,-2.886231 82.58232,-10.232999 z"
     clip-rule="evenodd"
     fill="#7e4e18"
     fill-rule="evenodd"
     id="path28"
     style="stroke-width:4.30139" />
  <path
     d="m 359.57691,170.91996 c -4.73153,23.31352 -7.60055,35.22836 -8.60278,35.75743 -1.00222,0.62801 -0.71403,4.35731 0.86028,11.18361 0,7.66507 -4.51646,13.54076 -13.54507,17.63999 -13.0504,5.98753 -16.63346,-7.87584 -10.75346,-41.58151 2.29263,-12.60306 9.3168,-41.11266 21.07249,-85.52877 l 30.75491,-22.362912 5.37674,7.402687 c 3.86694,5.669228 6.80909,10.241595 8.81784,13.704215 1.72056,3.14862 -1.07535,6.98545 -8.3877,11.50191 -9.31681,5.66492 -14.55159,9.50176 -15.69576,11.49761 -1.72486,2.83031 -5.02402,16.42699 -9.89749,40.78574 z"
     clip-rule="evenodd"
     fill="#7e4e18"
     fill-rule="evenodd"
     id="path30"
     style="stroke-width:4.30139" />
  <path
     d="m 379.36328,87.602106 c 5.59181,-4.202455 10.46958,-2.206611 14.62042,5.98753 4.01749,8.185534 3.22604,14.801074 -2.36576,19.842294 -5.30361,4.83046 -9.82007,2.57653 -13.54507,-6.77038 -3.58736,-9.450147 -3.15292,-15.807596 1.29041,-19.059444 z"
     clip-rule="evenodd"
     fill="#c49764"
     fill-rule="evenodd"
     id="path32"
     style="stroke-width:4.30139" />
  <path
     d="m 157.41173,157.22005 c -1.72055,3.57015 -3.08409,18.42714 -4.08632,44.57527 -1.00222,26.77613 -2.07757,41.89551 -3.22604,45.36242 -2.29264,7.56184 -3.08409,27.19767 -2.36576,58.9075 l -8.17263,-6.30154 c 2.29264,-30.02798 4.22826,-50.08965 5.80687,-60.16779 1.43236,-9.45015 2.86902,-24.14799 4.30138,-44.10212 1.43237,-22.57368 1.57861,-36.96612 0.43014,-43.15582 l -15.48499,-81.588697 12.04388,7.402686 c 2.58084,11.549224 4.9466,23.468361 7.09729,35.757421 4.44333,24.77599 5.66493,39.22005 3.65618,43.31067 z"
     clip-rule="evenodd"
     fill="#704515"
     fill-rule="evenodd"
     id="path34"
     style="stroke-width:4.30139" />
  <path
     d="m 205.15712,83.980338 12.47402,1.260307 c -1.72055,8.082305 -3.44111,16.693675 -5.16166,25.829825 -3.58306,18.37122 -5.66063,30.44952 -6.23701,36.22628 -0.2882,4.40892 -0.64521,19.05944 -1.07535,43.94727 -0.43014,25.82982 -0.86028,42.36866 -1.29042,49.61219 -0.86027,14.17737 -0.86027,40.53197 0,79.06809 l -10.75346,-2.52061 c 0.86028,-28.45367 1.64743,-48.92827 2.36576,-61.4238 0.28389,-3.35939 0.9291,-19.74337 1.93562,-49.14335 1.00223,-25.40829 1.93563,-41.52989 2.79591,-48.35619 1.5786,-11.65245 3.22604,-36.49296 4.94659,-74.500012 z"
     clip-rule="evenodd"
     fill="#704515"
     fill-rule="evenodd"
     id="path36"
     style="stroke-width:4.30139" />
  <path
     d="m 161.06791,79.253114 13.11923,2.361462 -0.43014,24.883514 c -0.28389,17.85076 -0.21507,30.19144 0.21507,37.01344 l 7.31236,106.16252 c 0.71833,13.33861 2.29264,35.06921 4.73152,65.20903 l -9.67812,-1.26031 c 1.72056,-20.05306 1.36354,-34.28205 -1.07534,-42.68266 -1.00223,-3.46692 -1.93563,-19.63583 -2.79591,-48.51104 -0.71833,-28.2429 -2.15069,-45.36242 -4.30138,-51.34995 -2.43889,-6.72307 -4.37451,-24.04476 -5.80687,-51.97796 -0.71834,-13.9666 -1.14847,-27.249284 -1.29042,-39.848046 z"
     clip-rule="evenodd"
     fill="#704515"
     fill-rule="evenodd"
     id="path38"
     style="stroke-width:4.30139" />
  <path
     d="m 217.201,140.04891 14.19458,-46.781878 c -1.57861,8.611378 -3.15292,17.695898 -4.73153,27.249278 -3.29916,19.32183 -4.94659,31.55498 -4.94659,36.69944 0,4.20245 -0.21507,18.53467 -0.64521,43.00096 -0.28389,23.62322 0.35702,38.85013 1.93563,45.67643 2.29263,10.81798 1.07534,35.49074 -3.65618,74.02686 l -4.73153,-1.256 c 1.57861,-16.69799 2.36576,-29.66237 2.36576,-38.90605 0,-7.66507 -0.71833,-23.62751 -2.15069,-47.88303 -1.43236,-25.62336 -2.72278,-42.52781 -3.87125,-50.71765 -1.00222,-7.34677 1.07535,-21.05099 6.23701,-41.10836 z"
     clip-rule="evenodd"
     fill="#704515"
     fill-rule="evenodd"
     id="path40"
     style="stroke-width:4.30139" />
  <path
     d="m 168.1652,313.62277 -4.9466,-2.51631 c -2.29694,-21.73921 -3.44111,-35.54666 -3.44111,-41.42666 0,-3.67338 1.2173,-19.32182 3.65618,-46.93673 l 3.44111,-40.3212 0.86028,44.41612 c 0.57208,30.55705 1.07535,48.19704 1.50548,52.92427 0.86028,7.56183 0.50327,18.84867 -1.07534,33.86051 z"
     clip-rule="evenodd"
     fill="#704515"
     fill-rule="evenodd"
     id="path42"
     style="stroke-width:4.30139" />
  <polygon
     points="17.3,86.621 15.35,85.742 16.75,79.041 "
     clip-rule="evenodd"
     fill="#704515"
     fill-rule="evenodd"
     id="polygon44"
     transform="matrix(4.3013868,0,0,4.3013868,81.707323,-62.744266)" />
  <path
     d="m 329.03706,162.26127 c -2.00875,-9.34691 -2.58083,-25.77821 -1.72056,-49.29819 0.43444,-11.65676 1.00223,-22.418826 1.72056,-32.290508 l 8.3877,-6.29723 c -3.15291,29.399978 -5.16166,51.608038 -6.02194,66.624178 -0.71403,16.27645 3.29917,37.17258 12.04389,62.68841 3.15291,9.23938 9.10603,35.85636 17.85075,79.85524 l -12.04388,13.70422 c -3.15292,-18.37552 -5.09284,-31.28828 -5.81118,-38.74689 -1.00222,-8.82214 -2.93784,-23.41245 -5.80687,-43.78812 -3.7207,-25.09859 -6.58972,-42.58373 -8.59847,-52.45111 z"
     clip-rule="evenodd"
     fill="#704515"
     fill-rule="evenodd"
     id="path46"
     style="stroke-width:4.30139" />
  <path
     d="m 343.44671,298.5034 c -10.31903,-15.85922 -15.485,-25.88575 -15.485,-30.0839 l 1.07535,-72.13856 2.58083,29.4602 c 2.00875,20.36707 3.51423,32.07974 4.52076,35.12082 1.71625,5.03693 4.15084,17.58837 7.30806,37.64144 z"
     clip-rule="evenodd"
     fill="#704515"
     fill-rule="evenodd"
     id="path48"
     style="stroke-width:4.30139" />
  <path
     d="m 378.07287,107.1304 4.73152,5.04122 c -1.72055,0.62801 -3.94437,1.73346 -6.66715,3.31207 -5.30361,3.14862 -10.18138,7.08439 -14.62471,11.81161 -4.44333,4.61969 -7.95757,11.65676 -10.5384,21.1069 -1.04523,3.84114 -1.79798,7.35538 -2.25392,10.55131 0.51616,-4.58528 1.2689,-9.41574 2.25392,-14.49138 2.1507,-11.75999 4.44764,-19.16267 6.88652,-22.20806 2.58083,-3.14861 6.73597,-6.61553 12.46972,-10.39645 2.86903,-1.89261 5.44556,-3.46691 7.7425,-4.72722 z"
     clip-rule="evenodd"
     fill="#704515"
     fill-rule="evenodd"
     id="path50"
     style="stroke-width:4.30139" />
  <path
     d="m 342.37136,72.951583 9.46305,-7.084384 1.29042,3.307766 c 0.71833,2.942149 1.07534,5.931612 1.07534,8.976994 v 25.197521 l -9.45875,16.38398 z"
     clip-rule="evenodd"
     fill="#704515"
     fill-rule="evenodd"
     id="path52"
     style="stroke-width:4.30139" />
  <path
     d="m 238.49287,167.2982 c -0.57209,5.56599 0.14194,21.78652 2.15069,48.66589 2.15069,26.78043 3.79813,41.74065 4.94229,44.89357 1.14848,2.94215 2.65396,8.92538 4.52076,17.95829 1.8625,8.29738 3.15292,14.85699 3.86695,19.68745 l 2.36576,23.94152 -7.09298,-1.73346 c -0.57639,-6.61554 -1.50979,-13.9623 -2.79591,-22.05321 -2.72277,-16.16892 -5.80687,-27.92891 -9.24798,-35.27998 -3.44111,-7.03276 -4.94659,-24.46628 -4.51645,-52.29196 1.14847,-27.9289 1.50548,-43.78811 1.07534,-47.56903 -0.57208,-4.61969 0.43014,-14.80538 3.01097,-30.55705 l 4.08632,-22.04891 8.38771,-16.383981 z"
     clip-rule="evenodd"
     fill="#704515"
     fill-rule="evenodd"
     id="path54"
     style="stroke-width:4.30139" />
  <path
     d="m 239.56821,318.6683 h -13.11922 c 0,-6.09077 0.21506,-12.23745 0.6452,-18.43144 0.86028,-12.60307 2.29694,-19.42507 4.30139,-20.4746 2.00875,-1.04954 3.94437,5.14445 5.80687,18.58199 1.00223,6.61553 1.79368,13.39451 2.36576,20.32405 z"
     clip-rule="evenodd"
     fill="#704515"
     fill-rule="evenodd"
     id="path56"
     style="stroke-width:4.30139" />
  <path
     d="m 259.9998,94.527339 c 0.71403,39.379191 0.28389,61.952871 -1.29041,67.729631 -1.00223,3.99169 -0.43444,19.37345 1.71625,46.14958 2.15069,24.78029 3.94437,41.05674 5.37673,48.82934 1.57861,8.29308 0.79146,29.61075 -2.36576,63.94872 -4.0175,-35.18104 -6.8091,-56.07288 -8.3877,-62.68841 -1.29042,-5.46276 -2.72278,-18.63791 -4.30139,-39.53405 -1.57431,-21.7349 -2.07757,-36.43704 -1.50549,-44.10212 0.43014,-6.8263 2.36577,-22.26397 5.80688,-46.30873 1.72485,-11.97075 3.37228,-23.30921 4.95089,-34.023961 z"
     clip-rule="evenodd"
     fill="#704515"
     fill-rule="evenodd"
     id="path58"
     style="stroke-width:4.30139" />
  <path
     d="m 273.11903,94.527339 5.80687,-1.260307 -3.44111,72.770858 c 0,4.72722 1.29042,20.21222 3.87125,46.46788 2.58083,26.9826 4.44333,43.1042 5.59181,48.35189 1.5743,7.56184 4.37451,26.82775 8.3877,57.80634 h -12.04388 c -1.57861,-23.41675 -2.37007,-39.32758 -2.37007,-47.72819 0,-3.46692 -1.50548,-18.69383 -4.51645,-45.67643 -2.86473,-25.40829 -4.08632,-39.69319 -3.65618,-42.84181 0.71833,-5.87569 1.50978,-35.17674 2.37006,-87.890231 z"
     clip-rule="evenodd"
     fill="#704515"
     fill-rule="evenodd"
     id="path60"
     style="stroke-width:4.30139" />
  <path
     d="m 317.20825,86.969802 c -0.71834,9.450147 -1.43237,19.321828 -2.1507,29.610748 -1.43236,20.4789 -1.93562,32.81528 -1.50548,37.01343 0.57208,4.83046 1.50548,19.73906 2.7916,44.73012 1.29041,24.67275 1.93562,40.53197 1.93562,47.56904 0,7.35107 0.49896,15.74737 1.50549,25.19752 1.00222,9.87168 2.07757,15.69576 3.22604,17.48514 1.72055,2.52061 4.15944,8.34469 7.31235,17.48083 l -8.3877,5.04123 c -3.15292,-22.57368 -4.73153,-35.54666 -4.73153,-38.90605 -3.15291,-54.07703 -5.5918,-84.42331 -7.31235,-91.03885 -0.86028,-3.78092 -1.00223,-14.22898 -0.43014,-31.3442 0.57208,-17.11522 0.71403,-26.3546 0.43014,-27.72244 -0.43014,-1.99584 -0.71403,-8.24146 -0.86028,-18.74114 l -0.21507,-15.119373 z"
     clip-rule="evenodd"
     fill="#704515"
     fill-rule="evenodd"
     id="path62"
     style="stroke-width:4.30139" />
  <path
     d="m 293.33555,92.011027 h 7.09299 l -2.7916,30.083893 c -1.86681,20.58214 -2.51201,31.87328 -1.93563,33.86482 0.43014,2.09908 -0.21507,17.53676 -1.93562,46.30873 -0.86028,14.28061 -1.78938,28.40636 -2.7916,42.37296 -1.00223,-13.9666 -1.93563,-28.08805 -2.7959,-42.37296 -1.86681,-28.76767 -2.50771,-44.20535 -1.93563,-46.30873 0.71403,-3.25615 3.0798,-24.56952 7.09299,-63.948713 z"
     clip-rule="evenodd"
     fill="#704515"
     fill-rule="evenodd"
     id="path64"
     style="stroke-width:4.30139" />
  <path
     d="m 314.84248,307.32554 c -4.01749,-1.68184 -6.45208,-3.78092 -7.31235,-6.30153 -3.87125,-15.01614 -7.45431,-27.98482 -10.75347,-38.90604 -2.00875,-6.72307 -0.79146,-24.15229 3.65618,-52.28766 l 7.09729,-40.0115 -0.86028,34.49712 c -0.43014,23.83399 -0.14195,38.11459 0.86028,42.84181 1.5743,7.56184 4.01749,27.61491 7.31235,60.1678 z"
     clip-rule="evenodd"
     fill="#704515"
     fill-rule="evenodd"
     id="path66"
     style="stroke-width:4.30139" />
  <polygon
     points="52.25,88.086 49.2,88.672 50.3,79.92 "
     clip-rule="evenodd"
     fill="#704515"
     fill-rule="evenodd"
     id="polygon68"
     transform="matrix(4.3013868,0,0,4.3013868,81.707323,-62.744266)" />
  <path
     d="m 348.28577,69.643816 c -6.99406,4.30999 -13.40743,7.983374 -19.24871,11.024454 -4.73153,2.520613 -12.4052,4.623991 -23.01242,6.301532 -10.61152,1.681842 -21.36499,2.520613 -32.2604,2.520613 -10.32333,0 -18.20777,-0.107535 -23.65763,-0.318303 -4.44763,-0.210768 -11.04166,-0.628002 -19.79068,-1.256005 -7.02416,-0.52907 -14.19457,-1.316224 -21.50693,-2.361461 l -9.03291,-1.574308 39.35768,0.473153 c 28.24721,0 47.31526,-0.529071 57.20845,-1.574308 9.89319,-1.05384 22.36291,-3.884152 37.41776,-8.508143 5.40254,-1.638828 10.2416,-3.213136 14.52579,-4.727224 0.75704,-0.473152 1.51408,-0.950606 2.25822,-1.419457 l 2.7959,-0.473153 c -1.58291,0.615098 -3.26905,1.243101 -5.05412,1.89261 z"
     clip-rule="evenodd"
     fill="#b06d22"
     fill-rule="evenodd"
     id="path70"
     style="stroke-width:4.30139" />
  <path
     d="m 376.13724,98.944863 0.43014,-8.034991 4.73583,15.751678 c 1.14847,3.45401 2.97226,5.65632 5.47997,6.61553 h -0.10754 c -3.58735,-0.42154 -6.16819,-1.47107 -7.7468,-3.14861 -1.71625,-1.78938 -2.64965,-5.51868 -2.7916,-11.183607 z"
     clip-rule="evenodd"
     fill="#b06d22"
     fill-rule="evenodd"
     id="path72"
     style="stroke-width:4.30139" />
  <path
     d="m 233.97641,318.19515 c -0.71833,-3.99169 -1.43236,-8.13823 -2.15069,-12.44392 -1.29042,-8.50814 -1.57861,-13.28268 -0.86028,-14.33652 0.57209,-1.04523 1.14847,-2.88193 1.72056,-5.51007 l 0.6452,-3.62177 2.79591,12.60306 c 1.8668,8.92108 2.7959,14.75376 2.7959,17.48084 v 10.08245 z"
     clip-rule="evenodd"
     fill="#593711"
     fill-rule="evenodd"
     id="path74"
     style="stroke-width:4.30139" />
  <path
     d="m 253.11758,319.9243 c -1.57861,-25.61906 -3.65618,-41.2675 -6.23701,-46.93243 -6.45208,-13.12783 -9.67812,-25.36097 -9.67812,-36.69943 l 3.22604,-79.07239 c 3.15722,62.16364 5.01972,95.50369 5.5918,100.02014 0.2839,1.78508 1.71626,8.39631 4.30139,19.8423 2.43459,10.49969 3.65618,16.69798 3.65618,18.58629 z"
     clip-rule="evenodd"
     fill="#593711"
     fill-rule="evenodd"
     id="path76"
     style="stroke-width:4.30139" />
  <path
     d="m 310.32603,302.28432 c -1.43667,-6.40477 -2.86903,-12.96868 -4.30139,-19.68745 -2.72708,-13.54507 -3.94437,-21.15852 -3.66048,-22.84036 0.43444,-1.78508 1.43666,-4.40893 3.01097,-7.87584 l 2.15069,-4.72723 2.36577,11.34276 c 1.43666,8.29737 2.15069,14.54299 2.15069,18.74114 0.004,6.72737 -0.56778,15.07206 -1.71625,25.04698 z"
     clip-rule="evenodd"
     fill="#593711"
     fill-rule="evenodd"
     id="path78"
     style="stroke-width:4.30139" />
  <path
     d="m 209.88865,84.453491 7.74249,1.888309 -3.22604,19.84229 c -2.58083,14.06984 -4.51645,22.99952 -5.80687,26.78044 -1.41085,4.06481 -2.80881,12.43961 -4.19385,25.1201 z"
     clip-rule="evenodd"
     fill="#593711"
     fill-rule="evenodd"
     id="path80"
     style="stroke-width:4.30139" />
  <path
     d="m 165.79944,237.86675 0.6452,11.1836 c 0.43014,8.08661 1.00223,13.86337 1.72056,17.32169 1.00222,5.56599 0.71833,17.01198 -0.86028,34.33797 -2.72278,-12.81383 -4.30139,-21.21444 -4.73152,-25.20183 -0.2839,-2.41307 0.14624,-9.39853 1.29041,-20.94775 z"
     clip-rule="evenodd"
     fill="#593711"
     fill-rule="evenodd"
     id="path82"
     style="stroke-width:4.30139" />
  <path
     d="m 136.98014,78.625112 -2.36576,-3.307767 13.54937,5.824078 7.95757,55.285717 c -4.15514,-12.80953 -7.31236,-21.46822 -9.46306,-25.98467 -1.29041,-2.73138 -3.29916,-8.87376 -6.02194,-18.431443 z"
     clip-rule="evenodd"
     fill="#593711"
     fill-rule="evenodd"
     id="path84"
     style="stroke-width:4.30139" />
  <polygon
     points="11.2,32.097 12.7,46.085 9.05,31.071 "
     clip-rule="evenodd"
     fill="#704515"
     fill-rule="evenodd"
     id="polygon86"
     transform="matrix(4.3013868,0,0,4.3013868,81.707323,-62.744266)" />
  <path
     d="m 333.55352,89.494716 3.87124,41.895504 c 0.57209,2.73138 -0.50326,15.27853 -3.22604,37.64574 -2.15069,-13.96661 -3.08409,-23.31352 -2.7959,-28.04074 z"
     clip-rule="evenodd"
     fill="#593711"
     fill-rule="evenodd"
     id="path88"
     style="stroke-width:4.30139" />
  <polygon
     points="46,36.857 47.45,36.381 45.2,49.014 "
     clip-rule="evenodd"
     fill="#593711"
     fill-rule="evenodd"
     id="polygon90"
     transform="matrix(4.3013868,0,0,4.3013868,81.707323,-62.744266)" />
  <path
     d="m 166.44464,200.84901 6.45208,65.51873 c 0.43014,5.04552 -1.14847,20.7929 -4.73152,47.25073 l 0.64521,-27.24498 c 0.14194,-4.83046 0.21507,-9.08453 0.21507,-12.75792 0,-7.03707 -0.2839,-12.81383 -0.86028,-17.32598 -0.71833,-4.51646 -1.21729,-15.12368 -1.50549,-31.81736 z"
     clip-rule="evenodd"
     fill="#8c571b"
     fill-rule="evenodd"
     id="path92"
     style="stroke-width:4.30139" />
  <path
     d="m 148.16375,81.141423 5.80687,23.941517 c 3.87125,17.22275 5.94882,28.76767 6.23701,34.65197 0.43014,9.45015 -2.50771,30.0839 -8.81784,61.90126 1.00222,-20.05307 2.07757,-32.8669 3.22604,-38.43289 1.72055,-9.87169 1.93562,-19.63583 0.64521,-29.29675 z"
     clip-rule="evenodd"
     fill="#8c571b"
     fill-rule="evenodd"
     id="path94"
     style="stroke-width:4.30139" />
  <path
     d="m 246.88057,121.30777 v 20.00145 c -0.14624,14.38814 -0.43444,24.14798 -0.86028,29.30104 -0.43444,6.09077 0.64091,23.2533 3.22605,51.50481 2.43458,27.82997 4.30138,44.78604 5.5918,50.8768 1.57431,7.87154 2.36576,22.41453 2.36576,43.62897 -1.57431,-17.32599 -2.94215,-27.92891 -4.08632,-31.81306 -1.5743,-5.25199 -2.86472,-9.66091 -3.86694,-13.23106 -1.86681,-6.5123 -2.94215,-11.28684 -3.22604,-14.33222 -0.43444,-3.88416 -1.2173,-17.37761 -2.36577,-40.48036 -1.14847,-23.30921 -1.72055,-37.8565 -1.72055,-43.63326 0,-4.82616 0.86028,-14.90861 2.58083,-30.23875 z"
     clip-rule="evenodd"
     fill="#8c571b"
     fill-rule="evenodd"
     id="path96"
     style="stroke-width:4.30139" />
  <polygon
     points="54.75,34.806 57.5,33.341 54.2,45.608 "
     clip-rule="evenodd"
     fill="#593711"
     fill-rule="evenodd"
     id="polygon98"
     transform="matrix(4.3013868,0,0,4.3013868,81.707323,-62.744266)" />
  <path
     d="m 349.25358,297.24309 c -6.31014,-7.4543 -10.25451,-13.70422 -11.82882,-18.74114 -1.29041,-4.20246 -3.01097,-17.90237 -5.16166,-41.10835 -2.15069,-23.41675 -2.43459,-33.39597 -0.86028,-29.92905 1.57861,3.14861 5.01972,19.05944 10.32333,47.72388 2.72278,14.38814 5.23479,28.40636 7.52743,42.05466 z"
     clip-rule="evenodd"
     fill="#593711"
     fill-rule="evenodd"
     id="path100"
     style="stroke-width:4.30139" />
  <path
     d="m 361.51253,147.29675 c -1.71625,5.87999 -5.23479,25.67498 -10.5384,59.38494 l 0.86028,-58.12464 12.04388,-27.56328 -0.21507,9.9233 c -0.43014,7.24353 -1.14847,12.70629 -2.15069,16.37968 z"
     clip-rule="evenodd"
     fill="#593711"
     fill-rule="evenodd"
     id="path102"
     style="stroke-width:4.30139" />
  <path
     d="m 304.51916,213.29293 v -10.39215 l 0.21506,8.03068 c 1.00223,22.15215 2.72708,35.06921 5.16167,38.7469 2.58513,3.67338 3.94437,12.91706 4.08632,27.71813 0.14194,7.45431 0,14.49137 -0.43014,21.10691 -1.57861,-19.2143 -3.58736,-32.97443 -6.02194,-41.26751 -1.43237,-5.24769 -2.43459,-19.89391 -3.01097,-43.94296 z"
     clip-rule="evenodd"
     fill="#8c571b"
     fill-rule="evenodd"
     id="path104"
     style="stroke-width:4.30139" />
  <path
     d="m 331.40282,202.58247 12.04389,55.91803 5.81117,38.74689 c -3.87125,-17.53675 -6.59403,-28.40636 -8.17264,-32.60451 -1.00222,-2.52061 -2.94214,-13.6483 -5.80687,-33.39166 z"
     clip-rule="evenodd"
     fill="#8c571b"
     fill-rule="evenodd"
     id="path106"
     style="stroke-width:4.30139" />
  <path
     d="m 335.059,166.67019 1.07535,-18.11314 c 0.28389,-1.99584 0.21507,-6.87791 -0.21937,-14.64622 -0.43014,-7.87584 -0.9291,-13.02029 -1.50549,-15.43767 -0.43014,-2.09908 0.14195,-8.18984 1.72056,-18.26799 l 2.58083,-14.495674 c 0,16.383974 -0.64521,26.040594 -1.93563,28.982744 -0.71403,1.88831 -0.57208,5.66922 0.43444,11.34275 0.57209,3.04539 1.43237,6.98115 2.58084,11.81161 0.86027,3.35938 -0.71834,12.96868 -4.73153,28.82359 z"
     clip-rule="evenodd"
     fill="#8c571b"
     fill-rule="evenodd"
     id="path108"
     style="stroke-width:4.30139" />
  <polygon
     points="47.45,36.381 48.1,36.125 45.85,47.806 "
     clip-rule="evenodd"
     fill="#8c571b"
     fill-rule="evenodd"
     id="polygon110"
     transform="matrix(4.3013868,0,0,4.3013868,81.707323,-62.744266)" />
  <path
     d="m 231.39558,279.76226 10.5384,21.26175 c 2.29264,5.04123 2.43458,10.12977 0.43014,15.27853 -0.85598,2.52061 -2.00445,4.57237 -3.44111,6.14668 -0.28389,-8.40061 -1.07535,-15.12368 -2.36577,-20.1649 z"
     clip-rule="evenodd"
     fill="#8c571b"
     fill-rule="evenodd"
     id="path112"
     style="stroke-width:4.30139" />
  <path
     d="m 170.53096,170.45111 c -1.72055,-5.77676 -1.64743,-11.97076 0.21507,-18.58629 l 3.22604,-8.34469 9.03291,102.38161 c -5.5918,-41.06104 -9.75124,-66.21125 -12.47402,-75.45063 z"
     clip-rule="evenodd"
     fill="#593711"
     fill-rule="evenodd"
     id="path114"
     style="stroke-width:4.30139" />
  <polygon
     points="23.7,87.793 23.8,79.627 25.35,88.086 "
     clip-rule="evenodd"
     fill="#593711"
     fill-rule="evenodd"
     id="polygon116"
     transform="matrix(4.3013868,0,0,4.3013868,81.707323,-62.744266)" />
  <polygon
     points="11.5,83.838 14.25,76.697 14.1,85.156 "
     clip-rule="evenodd"
     fill="#593711"
     fill-rule="evenodd"
     id="polygon118"
     transform="matrix(4.3013868,0,0,4.3013868,81.707323,-62.744266)" />
  <polygon
     points="51.7,87.939 50.45,88.086 50.6,81.091 "
     clip-rule="evenodd"
     fill="#593711"
     fill-rule="evenodd"
     id="polygon120"
     transform="matrix(4.3013868,0,0,4.3013868,81.707323,-62.744266)" />
  <path
     d="m 263.44091,321.18891 c 0.86028,-17.95829 1.50549,-28.61282 1.93563,-31.98081 0.14194,-2.09477 0.0731,-5.35092 -0.21507,-9.76415 l -0.43444,-5.98753 6.02194,36.38543 -3.65188,11.34706 z"
     clip-rule="evenodd"
     fill="#593711"
     fill-rule="evenodd"
     id="path122"
     style="stroke-width:4.30139" />
  <use
     transform="matrix(4.3013868,0,0,-3.1503357,274.19438,64.576783)"
     y="-81.300003"
     width="26.549999"
     height="81.300003"
     enable-background="new"
     opacity="0.2383"
     xlink:href="#l"
     id="use124"
     x="0" />
  <polygon
     points="62.8,30.156 63.35,31.035 62.85,31.181 "
     clip-rule="evenodd"
     fill="#1c1105"
     fill-rule="evenodd"
     id="polygon126"
     transform="matrix(4.3013868,0,0,4.3013868,81.707323,-62.744266)" />
  <use
     transform="matrix(4.3013868,0,0,-3.1503357,292.2602,71.028863)"
     y="-78.704002"
     width="20.75"
     height="78.704002"
     enable-background="new"
     opacity="0.25"
     xlink:href="#i"
     id="use128"
     x="0" />
  <path
     d="m 260.64501,85.240645 c -12.90416,-0.529071 -22.07902,-1.574308 -27.52457,-3.148616 l 16.7711,2.361462 c 1.14847,-1.681842 6.09507,-2.361462 14.83979,-2.04746 4.58528,0.103233 10.53839,0.314001 17.85075,0.628002 3.01097,-0.206466 8.24146,-1.20869 15.69576,-2.989464 1.29472,-0.314001 7.31236,-0.843071 18.06583,-1.574307 2.30984,-0.18496 4.42182,-0.421536 6.34884,-0.709729 -4.76163,1.393649 -8.74041,2.468996 -11.93634,3.230341 -7.88445,1.995844 -15.41187,3.359384 -22.58228,4.094921 -6.73598,0.623701 -15.91514,0.675317 -27.52888,0.15485 z"
     clip-rule="evenodd"
     fill="#8c6a44"
     fill-rule="evenodd"
     id="path130"
     style="stroke-width:4.30139" />
  <path
     d="m 386.46057,109.96501 c -1.32913,-0.628 -2.47329,-1.78507 -3.44111,-3.46692 3.29487,1.01083 6.23271,-1.08825 8.81785,-6.29723 1.29471,3.25185 1.57861,5.98323 0.86027,8.18554 -1.00652,2.62815 -3.08409,3.15722 -6.23701,1.57861 z m -1.72055,-20.947748 2.90343,2.91634 c -2.47759,-2.133487 -4.09061,-1.002223 -4.83906,3.385192 -0.49466,2.258229 -0.78285,5.226186 -0.86027,8.899566 -0.6022,-1.62162 -1.10116,-3.54004 -1.50549,-5.750947 -1.29041,-6.404769 0.14195,-9.553384 4.30139,-9.450151 z"
     clip-rule="evenodd"
     fill="#99744a"
     fill-rule="evenodd"
     id="path132"
     style="stroke-width:4.30139" />
  <path
     d="m 384.30988,95.791946 c 0.58499,-1.342032 1.36784,-1.914117 2.37006,-1.733459 0.85598,0.103234 1.57431,0.838771 2.1507,2.206612 1.29041,3.884151 -0.36132,5.355221 -4.9466,4.408921 -0.71833,-1.363537 -0.71833,-2.731377 0,-4.09492 0.12044,-0.301097 0.26669,-0.567783 0.42584,-0.787154 z"
     clip-rule="evenodd"
     fill="#99744a"
     fill-rule="evenodd"
     id="path134"
     style="stroke-width:4.30139" />
  <path
     d="m 380.00849,87.128953 -0.64521,0.628003 c 0.86028,-4.408922 3.44111,-5.041225 7.7425,-1.888309 4.30139,3.045382 6.09507,6.193997 5.37673,9.450147 -2.00874,-6.929534 -6.16818,-9.660915 -12.47402,-8.189841 z"
     clip-rule="evenodd"
     fill="#99744a"
     fill-rule="evenodd"
     id="path136"
     style="stroke-width:4.30139" />
  <path
     d="m 138.91577,168.40365 0.64521,-1.2646 -4.08632,83.79961 c -1.29042,8.71461 -2.50771,23.67914 -3.65618,44.89358 l -10.75347,-1.57431 c -2.29264,-9.13615 -5.08854,-16.22483 -8.3877,-21.26176 -2.00875,-3.04538 -4.80465,-5.99183 -8.38771,-8.82214 l -4.731521,-3.31207 c -0.718332,-1.35924 -0.283892,-3.35938 1.290421,-5.98323 1.00222,-1.68184 2.22381,-2.73568 3.65617,-3.14861 l 1.72056,-0.3183 10.75347,7.40698 c 0.71833,-0.21076 1.35923,-0.79145 1.93562,-1.72915 1.00222,-1.68615 1.14847,-3.99169 0.43014,-6.92954 -0.86028,-2.94645 1.72055,-16.48721 7.74249,-40.6395 5.88,-23.53289 9.82007,-37.2285 11.82882,-41.11696 z"
     clip-rule="evenodd"
     fill="#7e4e18"
     fill-rule="evenodd"
     id="path138"
     style="stroke-width:4.30139" />
  <path
     d="m 131.81848,265.58488 -3.01097,33.07337 -7.7425,-4.40462 c -1.57861,-6.5123 -3.94437,-12.02238 -7.09729,-16.53883 -2.00874,-2.73569 -5.01971,-6.35745 -9.03291,-10.86961 l -5.376731,-5.98753 c 3.583051,-0.314 6.021941,-1.10115 7.312361,-2.36146 0.71833,-0.83877 2.00874,-0.36992 3.87124,1.41516 0.57209,0.628 2.43889,2.89053 5.59181,6.77468 2.72278,3.46262 5.87999,8.08231 9.46305,13.85907 z"
     clip-rule="evenodd"
     fill="#704515"
     fill-rule="evenodd"
     id="path140"
     style="stroke-width:4.30139" />
  <path
     d="m 135.04452,227.31545 c -2.72278,13.12353 -5.01972,20.99937 -6.88222,23.62321 -2.72278,4.20246 -6.45208,6.822 -11.1836,7.87584 0,-4.40892 0.35701,-8.18984 1.07534,-11.34276 l 13.11923,-50.8725 v 2.83032 c -0.14194,2.20661 -0.71833,4.15083 -1.72055,5.82838 -1.00223,1.67754 -1.79368,8.29307 -2.36577,19.84229 -0.28389,5.77676 -0.50326,11.39007 -0.6452,16.85284 l 12.04388,-33.54652 z"
     clip-rule="evenodd"
     fill="#704515"
     fill-rule="evenodd"
     id="path142"
     style="stroke-width:4.30139" />
  <path
     d="m 133.1089,107.28955 6.45208,16.06568 c 1.29041,2.73138 3.29916,11.54922 6.02194,26.45783 l -10.10826,-22.04891 c -1.57861,-2.94215 -2.43889,-7.24784 -2.58083,-12.91276 z"
     clip-rule="evenodd"
     fill="#593711"
     fill-rule="evenodd"
     id="path144"
     style="stroke-width:4.30139" />
  <path
     d="m 136.33494,135.48514 7.95756,26.93098 c 0.57209,2.52492 0.0731,8.40061 -1.50548,17.64429 -1.57861,9.24368 -3.22604,15.96245 -4.9466,20.1649 -2.43458,5.46276 -5.80687,18.84868 -10.10826,40.16205 0.71833,-18.68952 1.72056,-29.34406 3.01097,-31.97221 1.29042,-2.94215 3.29917,-9.76845 6.02194,-20.4789 3.15292,-11.96646 4.51646,-19.42936 4.08632,-22.36721 z"
     clip-rule="evenodd"
     fill="#8c571b"
     fill-rule="evenodd"
     id="path146"
     style="stroke-width:4.30139" />
  <polygon
     points="5.7,74.207 5.7,73.035 8.2,74.757 8.6,76.514 "
     clip-rule="evenodd"
     fill="#8c571b"
     fill-rule="evenodd"
     id="polygon148"
     transform="matrix(4.3013868,0,0,4.3013868,81.707323,-62.744266)" />
  <path
     d="m 138.48563,240.38306 -0.43014,5.67353 c -0.28819,4.09492 -0.14195,7.03707 0.43014,8.82214 0.71833,2.94215 -0.9334,8.18554 -4.9466,15.74738 l -2.7959,-13.70422 c -0.57208,-2.20661 0.2882,-5.56599 2.58084,-10.08245 2.29263,-4.30139 4.01319,-6.45638 5.16166,-6.45638 z"
     clip-rule="evenodd"
     fill="#704515"
     fill-rule="evenodd"
     id="path150"
     style="stroke-width:4.30139" />
  <path
     d="m 136.55001,243.06282 1.29041,4.09492 c 0.86028,3.14862 1.07535,5.72085 0.64521,7.72099 l -3.01097,12.28046 c -1.57861,-4.20245 -2.00875,-7.61345 -1.29042,-10.2373 0.57209,-1.68184 1.14847,-4.46054 1.72056,-8.34469 z"
     clip-rule="evenodd"
     fill="#593711"
     fill-rule="evenodd"
     id="path152"
     style="stroke-width:4.30139" />
  <path
     d="m 258.27925,144.30298 4.08631,18.11314 c 0.86028,4.20676 -0.28389,16.01837 -3.4411,35.43913 -1.29042,-17.63999 -1.93563,-28.29883 -1.93563,-31.97221 z"
     clip-rule="evenodd"
     fill="#593711"
     fill-rule="evenodd"
     id="path154"
     style="stroke-width:4.30139" />
  <polygon
     points="40.9,35.319 42.15,35.393 39.8,41.251 "
     clip-rule="evenodd"
     fill="#593711"
     fill-rule="evenodd"
     id="polygon156"
     transform="matrix(4.3013868,0,0,4.3013868,81.707323,-62.744266)" />
  <path
     d="m 272.04368,240.38306 5.80688,14.49567 c 1.57861,3.67339 1.93562,9.02861 1.07534,16.06138 -5.87569,-5.46276 -9.38992,-9.87168 -10.53409,-13.23106 -0.86028,-2.52062 -0.79146,-6.03485 0.21507,-10.55131 1.00222,-4.30568 2.14639,-6.56391 3.4368,-6.77468 z"
     clip-rule="evenodd"
     fill="#593711"
     fill-rule="evenodd"
     id="path158"
     style="stroke-width:4.30139" />
  <path
     d="m 272.04368,240.38306 5.80688,14.49567 c 0.86027,2.61955 1.22159,7.97477 1.07534,16.06138 -2.29264,-4.40892 -3.44111,-8.45653 -3.44111,-12.12561 0,-2.30984 -0.57208,-6.09076 -1.71625,-11.34276 z"
     clip-rule="evenodd"
     fill="#8c571b"
     fill-rule="evenodd"
     id="path160"
     style="stroke-width:4.30139" />
  <polygon
     points="30.9,88.672 28.85,88.415 31.35,84.644 "
     clip-rule="evenodd"
     fill="#593711"
     fill-rule="evenodd"
     id="polygon162"
     transform="matrix(4.3013868,0,0,4.3013868,81.707323,-62.744266)" />
  <polygon
     points="34.55,35.026 36.75,35.136 34.65,37.956 "
     clip-rule="evenodd"
     fill="#593711"
     fill-rule="evenodd"
     id="polygon164"
     transform="matrix(4.3013868,0,0,4.3013868,81.707323,-62.744266)" />
  <path
     d="m 178.91866,106.5024 1.72056,-3.93577 4.30139,10.2373 1.07534,6.45638 c 1.00223,4.83046 2.00875,8.71461 3.01097,11.65676 1.57861,4.72722 3.01097,14.01822 4.30139,27.87729 -2.00875,-3.88416 -3.01097,-6.87792 -3.01097,-8.977 0,-1.36354 -1.36354,-5.62191 -4.08632,-12.75791 -2.43458,-6.194 -4.30138,-10.60722 -5.5918,-13.23107 -0.71833,-1.68184 -1.21729,-5.04122 -1.50549,-10.08245 z"
     clip-rule="evenodd"
     fill="#593711"
     fill-rule="evenodd"
     id="path166"
     style="stroke-width:4.30139" />
  <path
     d="m 238.06273,84.767492 c -1.14847,0.314001 -11.39868,0.314001 -30.75492,0 -19.92832,-0.210768 -32.33352,-0.580687 -37.20699,-1.101155 -6.73597,-0.83877 -17.48944,-3.363684 -32.2604,-7.561838 -3.01097,-0.735537 -6.59402,-2.468996 -10.75347,-5.196075 l -5.37673,-3.78522 13.97951,5.355226 c 11.32555,3.780919 21.58006,6.039147 30.75491,6.774684 14.76666,1.367841 38.63936,3.204533 71.61809,5.514378 z"
     clip-rule="evenodd"
     fill="#b06d22"
     fill-rule="evenodd"
     id="path168"
     style="stroke-width:4.30139" />
  <polygon
     points="25.95,34.477 28,34.404 26.9,37.333 "
     clip-rule="evenodd"
     fill="#593711"
     fill-rule="evenodd"
     id="polygon170"
     transform="matrix(4.3013868,0,0,4.3013868,81.707323,-62.744266)" />
  <path
     d="m 222.57774,145.40844 -1.50549,4.72292 c -1.00222,3.67339 -1.35924,6.822 -1.07534,9.45015 0.57208,4.20245 0.0731,10.70615 -1.50549,19.5326 l -3.22604,-16.38399 c -0.28389,-2.20661 0.86028,-5.72084 3.44111,-10.5556 z"
     clip-rule="evenodd"
     fill="#593711"
     fill-rule="evenodd"
     id="path172"
     style="stroke-width:4.30139" />
  <use
     transform="matrix(4.3013868,0,0,-3.1503357,99.557649,68.448031)"
     x="-0.0060000001"
     y="-75.995003"
     width="16.056"
     height="76.004997"
     enable-background="new"
     opacity="0.25"
     xlink:href="#j"
     id="use174" />
  <use
     transform="matrix(4.3013868,0,0,-3.1503357,187.0913,87.374132)"
     y="-74.863998"
     width="15.708"
     height="74.863998"
     enable-background="new"
     opacity="0.1211"
     xlink:href="#k"
     id="use176"
     x="0" />
  <polygon
     points="21.95,41.507 17.7,32.243 23,34.477 24.15,50.369 "
     clip-rule="evenodd"
     fill="#593711"
     fill-rule="evenodd"
     id="polygon178"
     transform="matrix(4.3013868,0,0,4.3013868,81.707323,-62.744266)" />
  <g
     clip-rule="evenodd"
     fill-rule="evenodd"
     id="g232"
     transform="matrix(4.3013868,0,0,4.3013868,81.707323,-62.744266)">
    <path
       d="M 51.65,24.5 C 51.616,24.2 51.516,23.95 51.349,23.75 L 50.8,24.4 c 0.334,-0.033 0.617,0 0.85,0.1 0.066,0.633 -0.134,1.383 -0.601,2.25 -0.533,0.867 -1.184,1.667 -1.95,2.4 1.134,0.533 2.034,-0.167 2.7,-2.1 0.534,-1.4 0.484,-2.25 -0.149,-2.55 z m -19.7,11.65 c -1.233,-0.134 -2.467,-0.317 -3.7,-0.55 l 0.05,-0.15 c 3.434,0.733 7.1,1.05 11,0.95 4.233,-0.134 8.384,-0.784 12.45,-1.95 3.1,-0.9 5.5,-2.184 7.2,-3.85 1.233,-1.2 1.649,-2.517 1.25,-3.95 -0.367,-1.3 -1.217,-2.267 -2.55,-2.9 l 0.149,0.3 c 0.767,0.4 1.25,1.25 1.45,2.55 0.2,1.3 0.017,2.367 -0.55,3.2 -0.334,0.467 -1.167,0.95 -2.5,1.45 -0.167,0.067 -1.066,0.35 -2.7,0.85 -4.667,1.6 -9.634,2.583 -14.9,2.95 -1.966,0.167 -4.266,0.034 -6.899,-0.4 -2.534,-0.433 -4.567,-0.783 -6.1,-1.05 0.1,-0.133 0.167,-0.267 0.2,-0.4 l -1.25,-0.1 c -0.066,0.1 -0.1,0.217 -0.1,0.35 -2.233,-0.367 -4.75,-1.383 -7.55,-3.05 -3.767,-2.233 -4.983,-4.433 -3.65,-6.6 -0.867,0.267 -1.25,0.967 -1.15,2.1 0.133,0.934 0.5,1.85 1.1,2.75 0.566,0.867 1.3,1.55 2.2,2.05 0.2,0.133 0.983,0.517 2.35,1.15 2.8,1.267 5.85,2.333 9.15,3.2 0.367,0.1 0.733,0.2 1.1,0.3 l -0.1,0.15 h -0.05 v 0.1 L 26.1,37.8 25,35.6 24.55,43.95 24.5,43.4 24.45,43.15 23.45,35 23.4,34.6 c 0.067,0.033 0.133,0.083 0.2,0.15 0.033,0.6 0.117,1.65 0.25,3.15 0.033,0.166 0.066,0.466 0.1,0.899 0.066,0.334 0.2,0.584 0.4,0.75 0.2,-0.7 0.217,-1.616 0.05,-2.75 -0.167,-1.033 -0.433,-1.716 -0.8,-2.05 -0.033,-0.367 -0.05,-0.567 -0.05,-0.6 l -0.2,0.35 c -0.3,-0.067 -0.583,-0.15 -0.85,-0.25 -2.167,-0.633 -4.017,-1.317 -5.55,-2.05 -3.434,-1.633 -5.317,-3.534 -5.65,-5.7 -0.333,-2.067 2.067,-3.85 7.2,-5.35 4.767,-1.333 10.55,-2.1 17.35,-2.3 7,-0.2 12.933,0.3 17.8,1.5 5.466,1.367 8.316,3.417 8.55,6.15 0.233,2.267 -1.667,4.383 -5.7,6.35 -0.7,0.333 -1.417,0.65 -2.15,0.95 -0.399,0.133 -0.783,0.284 -1.149,0.45 -2.4,0.833 -5.033,1.433 -7.9,1.8 -1,0.134 -2.033,0.25 -3.1,0.351 -1.834,0.1 -3.617,0.133 -5.35,0.1 -0.867,-0.033 -1.75,-0.066 -2.65,-0.1 -0.167,0 -0.317,-0.017 -0.45,-0.051 h -0.2 C 33.017,36.283 32.483,36.217 31.95,36.15 Z M 16.8,28.05 c -0.066,-0.9 0.15,-1.7 0.65,-2.4 -0.167,0.567 -0.05,1.167 0.35,1.8 l 0.65,0.05 -0.55,-0.3 c -0.3,-1.467 1.2,-2.833 4.5,-4.1 1.7,-0.667 3.667,-1.317 5.9,-1.95 -0.533,-0.066 -1.05,-0.066 -1.55,0 L 26.8,21.1 c 0.233,-0.033 0.917,-0.05 2.05,-0.05 0.867,0.034 1.517,-0.1 1.95,-0.4 -0.3,-0.133 -0.583,-0.25 -0.85,-0.35 3.367,-0.233 7.116,-0.2 11.25,0.1 5.5,0.467 10.133,1.117 13.899,1.95 -1.3,-1.233 -3.583,-2.067 -6.85,-2.5 -3.6,-0.267 -6,-0.483 -7.2,-0.65 -0.866,-0.1 -2.116,-0.067 -3.75,0.1 -1.966,0.233 -3.283,0.35 -3.95,0.35 -1.5,0 -2.867,0.15 -4.1,0.45 -0.967,-0.133 -2.083,0.017 -3.35,0.45 -0.333,0.1 -0.617,0.217 -0.85,0.35 -4.333,0.733 -7.2,2.1 -8.6,4.1 -0.767,0.233 -1.317,0.417 -1.65,0.55 h 1.3 c -0.233,0.333 -0.367,0.684 -0.4,1.05 -0.034,-0.033 -0.067,-0.067 -0.1,-0.1 L 14.8,26 c -0.033,0.033 -0.2,0.117 -0.5,0.25 -0.2,0.1 -0.316,0.35 -0.35,0.75 0.5,0.933 1.833,1.617 4,2.05 -0.433,-0.3 -0.817,-0.633 -1.15,-1 z m 17.35,2.05 c 2.833,0.867 5.85,1.2 9.05,1 4.733,-0.233 6.983,-1.983 6.75,-5.25 L 49.3,25.2 c 0.101,-0.067 0.184,-0.117 0.25,-0.15 h -0.8 c 0.1,0.1 0.217,0.233 0.35,0.4 -2.8,2.133 -5.949,3.383 -9.449,3.75 -2.601,0.233 -6.034,-0.017 -10.3,-0.75 -1.733,0.033 -3.05,0.017 -3.95,-0.05 -1.7,-0.133 -2.816,-0.85 -3.35,-2.15 1.233,-1.467 3.333,-2.567 6.3,-3.3 2.2,-0.567 4.467,-0.85 6.8,-0.85 2.333,0 4.65,0.15 6.95,0.45 2.967,0.4 5.217,0.983 6.75,1.75 -2.633,-2.267 -7.066,-3.4 -13.3,-3.4 -2.167,0 -4.716,0.467 -7.65,1.4 -2.967,0.9 -5.45,2 -7.45,3.3 0.233,1.833 2.4,3.117 6.5,3.85 0.666,0.1 3.066,0.317 7.199,0.65 z m -10.5,1.2 c -0.233,0.067 -0.467,0.15 -0.7,0.25 0.6,0.333 1.367,0.567 2.3,0.7 0.933,0.133 2.117,0.167 3.55,0.1 0.633,0.033 2.133,0.433 4.5,1.2 1.6,0.567 3,0.717 4.2,0.45 1.2,0.1 2.483,0.1 3.85,0 1.134,-0.067 2.784,-0.3 4.95,-0.7 1.066,-0.2 2.584,-0.45 4.55,-0.75 1.667,-0.367 3.134,-1.05 4.4,-2.05 0.267,-0.233 0.517,-0.45 0.75,-0.65 -0.8,1 -1.217,1.533 -1.25,1.6 0.8,0.2 1.733,-0.7 2.8,-2.7 0.834,-1.533 1.017,-2.517 0.55,-2.95 -0.033,-0.2 -0.1,-0.4 -0.199,-0.6 -0.267,-1.133 -1.217,-1.983 -2.851,-2.55 2.101,2.233 1.834,4.217 -0.8,5.95 -1.934,1.267 -3.833,1.983 -5.7,2.15 -0.333,0.033 -2.416,0.45 -6.25,1.25 -2.566,0.467 -4.649,0.583 -6.25,0.35 -1.267,-0.233 -3.117,-0.633 -5.55,-1.2 -2.5,-0.6 -4.333,-1 -5.5,-1.2 -2.4,-0.2 -4.35,-0.417 -5.85,-0.65 -0.467,-0.066 -0.867,-0.15 -1.2,-0.25 1.3,1 2.983,1.7 5.05,2.1 0.233,0.033 0.45,0.083 0.65,0.15 z m 25.6,-5.95 V 25.6 L 49.1,25.45 c 0.034,-0.033 0.084,-0.067 0.15,-0.1 z m -5.55,5 c 0.166,-0.067 0.35,-0.117 0.55,-0.15 0.366,-0.067 0.717,-0.133 1.05,-0.2 -0.5,0.167 -1.033,0.283 -1.6,0.35 z M 42.5,26.1 c -0.967,0.133 -2.767,0.383 -5.4,0.75 -2.466,0.367 -4.366,0.233 -5.7,-0.4 0.3,-0.6 0.867,-1.067 1.7,-1.4 -0.333,0.367 -0.617,0.85 -0.85,1.45 0.633,-1.067 1.7,-1.633 3.2,-1.7 0.833,-0.033 1.934,0.05 3.3,0.25 h 0.15 l 1.199,0.5 c 0.034,-0.333 -0.066,-0.6 -0.3,-0.8 0.4,0.033 0.816,0.117 1.25,0.25 -0.566,-0.5 -1.434,-0.8 -2.6,-0.9 -0.101,0 -0.334,-0.017 -0.7,-0.05 H 35.1 c -1.1,0 -1.85,0.017 -2.25,0.05 -0.367,0.066 -0.7,0.183 -1,0.35 -1.4,0.233 -2.7,0.617 -3.9,1.15 0.267,2.2 2.617,3.167 7.05,2.9 2.366,-0.1 4.283,-0.417 5.75,-0.95 l -0.7,0.55 c 1,0 1.783,-0.117 2.351,-0.35 0.833,-0.367 1.5,-1.033 2,-2 -0.2,-0.133 -0.534,-0.267 -1,-0.4 z M 16.3,25.275 C 16.338,25.186 16.388,25.094 16.45,25 h 0.05 c -0.094,0.094 -0.161,0.186 -0.2,0.275 z m 21.05,0.475 c -0.267,-0.267 -0.683,-0.4 -1.25,-0.4 h -0.35 c -0.467,-0.067 -1.017,0.066 -1.65,0.4 0.267,0.533 0.783,0.783 1.55,0.75 0.733,-0.033 1.3,-0.283 1.7,-0.75 z"
       fill="#c49764"
       id="path216" />
    <path
       d="m 51.65,24.5 c 0.633,0.3 0.683,1.15 0.149,2.55 -0.666,1.934 -1.566,2.633 -2.7,2.1 0.767,-0.733 1.417,-1.533 1.95,-2.4 0.468,-0.867 0.668,-1.617 0.601,-2.25 -0.233,-0.1 -0.517,-0.133 -0.851,-0.1 l 0.55,-0.65 c 0.168,0.2 0.267,0.45 0.301,0.75 z m -23.4,11.1 -0.2,0.35 h -0.2 l -0.45,1.2 c 0.033,-0.334 0.05,-0.634 0.05,-0.9 l -0.55,0.9 -0.85,1.95 c -0.3,-0.5 -0.5,-0.883 -0.6,-1.149 0.033,0.866 0,1.899 -0.1,3.1 -0.067,0.434 -0.133,0.967 -0.2,1.601 l -0.35,0.8 -0.1,0.25 -0.05,0.05 -0.1,0.2 0.45,-8.352 1.1,2.2 1.75,-2.2 0.05,-0.1 0.1,-0.15 c -0.367,-0.1 -0.733,-0.2 -1.1,-0.3 -3.3,-0.867 -6.35,-1.933 -9.15,-3.2 -1.367,-0.633 -2.15,-1.017 -2.35,-1.15 -0.9,-0.5 -1.633,-1.184 -2.2,-2.05 -0.6,-0.9 -0.967,-1.816 -1.1,-2.75 -0.1,-1.133 0.283,-1.833 1.15,-2.1 -1.333,2.167 -0.117,4.367 3.65,6.6 2.8,1.667 5.317,2.684 7.55,3.05 0,-0.133 0.033,-0.25 0.1,-0.35 l 1.25,0.1 c -0.033,0.133 -0.1,0.267 -0.2,0.4 1.533,0.267 3.566,0.617 6.1,1.05 2.633,0.434 4.933,0.567 6.899,0.4 5.267,-0.367 10.233,-1.35 14.9,-2.95 1.634,-0.5 2.533,-0.783 2.7,-0.85 1.333,-0.5 2.166,-0.983 2.5,-1.45 0.566,-0.833 0.75,-1.9 0.55,-3.2 -0.2,-1.3 -0.684,-2.15 -1.45,-2.55 l -0.149,-0.3 c 1.333,0.633 2.183,1.6 2.55,2.9 0.399,1.434 -0.017,2.75 -1.25,3.95 -1.7,1.667 -4.101,2.95 -7.2,3.85 -4.066,1.167 -8.217,1.816 -12.45,1.95 -3.9,0.1 -7.566,-0.217 -11,-0.95 z m 1.7,-15.3 c -0.233,-0.1 -0.467,-0.167 -0.7,-0.2 1.233,-0.3 2.6,-0.45 4.1,-0.45 0.667,0 1.983,-0.117 3.95,-0.35 1.634,-0.167 2.884,-0.2 3.75,-0.1 1.2,0.167 3.601,0.383 7.2,0.65 3.267,0.433 5.55,1.267 6.85,2.5 C 51.333,21.517 46.7,20.867 41.2,20.4 37.066,20.1 33.317,20.067 29.95,20.3 Z m 14.3,9.9 c -0.2,0.033 -0.384,0.083 -0.55,0.15 -0.5,0.033 -1,0.05 -1.5,0.05 -4.033,-0.566 -6.717,-0.667 -8.05,-0.3 -4.133,-0.333 -6.533,-0.55 -7.2,-0.65 -4.1,-0.733 -6.267,-2.017 -6.5,-3.85 2,-1.3 4.483,-2.4 7.45,-3.3 2.934,-0.933 5.483,-1.4 7.65,-1.4 6.233,0 10.667,1.133 13.3,3.4 -1.533,-0.767 -3.783,-1.35 -6.75,-1.75 -2.3,-0.3 -4.616,-0.45 -6.95,-0.45 -2.333,0 -4.6,0.283 -6.8,0.85 -2.967,0.733 -5.067,1.833 -6.3,3.3 0.534,1.3 1.65,2.017 3.35,2.15 0.9,0.067 2.217,0.083 3.95,0.05 4.267,0.733 7.7,0.983 10.3,0.75 3.5,-0.367 6.649,-1.617 9.449,-3.75 -0.133,-0.167 -0.25,-0.3 -0.35,-0.4 h 0.8 c -0.066,0.034 -0.149,0.083 -0.25,0.15 l -0.1,-0.15 c 0,0.1 0.017,0.2 0.05,0.3 -0.066,0.033 -0.116,0.066 -0.15,0.1 0.067,0.066 0.117,0.117 0.15,0.15 0,0.367 0.033,0.65 0.1,0.85 -0.133,0.333 -0.283,0.65 -0.449,0.95 0.033,-0.433 -0.051,-0.9 -0.25,-1.4 l -0.2,1 c -0.601,1 -1.533,1.7 -2.8,2.1 -1.634,0.467 -2.65,0.85 -3.051,1.15 0.568,0 1.118,-0.017 1.651,-0.05 z M 37.5,34 c 0.134,-0.067 0.25,-0.117 0.35,-0.15 -1.8,-0.2 -3.5,-0.533 -5.1,-1 -2.133,-0.767 -3.783,-1.283 -4.95,-1.55 -1.667,-0.367 -3.05,-0.367 -4.15,0 -0.2,-0.066 -0.417,-0.117 -0.65,-0.15 -2.067,-0.4 -3.75,-1.1 -5.05,-2.1 0.333,0.1 0.733,0.184 1.2,0.25 1.5,0.233 3.45,0.45 5.85,0.65 1.167,0.2 3,0.6 5.5,1.2 2.433,0.567 4.283,0.967 5.55,1.2 1.601,0.233 3.684,0.117 6.25,-0.35 3.834,-0.8 5.917,-1.217 6.25,-1.25 1.867,-0.167 3.767,-0.883 5.7,-2.15 2.634,-1.733 2.9,-3.717 0.8,-5.95 1.634,0.567 2.584,1.417 2.851,2.55 -0.134,-0.3 -0.4,-0.567 -0.801,-0.8 v 0.65 c 0.167,1.667 -0.533,2.967 -2.1,3.9 -0.566,0.333 -1.783,0.75 -3.65,1.25 -2.366,0.633 -5.267,1.833 -8.699,3.6 2.966,-0.5 6.449,-1.4 10.449,-2.7 1.034,-0.333 2.233,-1.233 3.601,-2.7 0.333,-0.3 0.583,-0.583 0.75,-0.85 -0.2,0.6 -0.483,1.117 -0.851,1.55 -0.233,0.267 -0.433,0.517 -0.6,0.75 -0.233,0.2 -0.483,0.417 -0.75,0.65 -1.267,1 -2.733,1.683 -4.4,2.05 -1.966,0.3 -3.483,0.55 -4.55,0.75 -2.166,0.4 -3.816,0.633 -4.95,0.7 -1.367,0.1 -2.65,0.1 -3.85,0 z m -5.65,-9.55 c -0.667,0.3 -1.167,0.733 -1.5,1.3 0.2,0.767 0.517,1.183 0.95,1.25 -0.033,0.033 -0.05,0.083 -0.05,0.15 0.4,0.1 0.667,0.117 0.8,0.05 L 31.35,27 H 31.3 c 0.034,-0.2 0.067,-0.383 0.1,-0.55 1.333,0.633 3.233,0.767 5.7,0.4 2.634,-0.367 4.434,-0.617 5.4,-0.75 l -1.75,1.45 c -1.467,0.534 -3.384,0.85 -5.75,0.95 -4.433,0.267 -6.783,-0.7 -7.05,-2.9 1.2,-0.533 2.5,-0.917 3.9,-1.15 z M 16.3,25.275 V 25.3 l -0.05,0.05 c -0.067,0.066 -0.117,0.133 -0.15,0.2 h -1.3 c 0.333,-0.133 0.883,-0.316 1.65,-0.55 1.4,-2 4.267,-3.367 8.6,-4.1 -1.833,0.733 -3.2,1.217 -4.1,1.45 -1.667,0.467 -3.034,1.217 -4.1,2.25 -0.133,0.133 -0.25,0.267 -0.35,0.4 h -0.05 c -0.062,0.094 -0.113,0.186 -0.15,0.275 z m 1.65,3.775 c -2.167,-0.433 -3.5,-1.117 -4,-2.05 0.033,-0.4 0.15,-0.65 0.35,-0.75 0.3,-0.133 0.467,-0.217 0.5,-0.25 l 0.8,0.5 c 0.033,0.033 0.066,0.067 0.1,0.1 -0.034,0.133 -0.05,0.267 -0.05,0.4 -0.033,0.867 0.434,1.417 1.4,1.65 l -0.25,-0.2 c -0.033,-0.133 -0.033,-0.267 0,-0.4 0.333,0.367 0.717,0.7 1.15,1 z m 19.4,-3.3 c -0.399,0.467 -0.966,0.717 -1.7,0.75 -0.767,0.033 -1.283,-0.217 -1.55,-0.75 0.633,-0.333 1.183,-0.467 1.65,-0.4 h 0.35 c 0.567,0 0.983,0.133 1.25,0.4 z"
       fill="#99744a"
       id="path218" />
    <path
       d="m 34.15,30.1 c 1.333,-0.367 4.017,-0.267 8.05,0.3 0.5,0 1,-0.017 1.5,-0.05 0.566,-0.067 1.1,-0.184 1.6,-0.35 0.767,-0.2 1.434,-0.5 2,-0.9 0.634,-0.467 1.167,-1.033 1.601,-1.7 0.166,-0.3 0.316,-0.617 0.449,-0.95 -0.066,-0.2 -0.1,-0.483 -0.1,-0.85 v -0.25 c -0.033,-0.1 -0.05,-0.2 -0.05,-0.3 l 0.1,0.15 0.65,0.65 c 0.233,3.267 -2.017,5.017 -6.75,5.25 -3.2,0.2 -6.217,-0.133 -9.05,-1 z M 58.1,25.8 c 0.467,0.434 0.284,1.417 -0.55,2.95 -1.066,2 -2,2.9 -2.8,2.7 0.033,-0.067 0.45,-0.6 1.25,-1.6 0.167,-0.233 0.366,-0.483 0.6,-0.75 0.367,-0.434 0.65,-0.95 0.851,-1.55 0.166,-0.5 0.3,-1.033 0.399,-1.6 0.034,-0.1 0.051,-0.2 0.051,-0.3 -0.134,0.1 -0.167,0.167 -0.101,0.2 l 0.05,0.1 -0.35,-0.4 c 0.2,0 0.366,0.05 0.5,0.15 0.033,0.033 0.066,0.067 0.1,0.1 z m -17.35,1.75 1.75,-1.45 0.9,-0.75 c 0.466,0.133 0.8,0.267 1,0.4 -0.5,0.967 -1.167,1.633 -2,2 -0.567,0.233 -1.351,0.35 -2.351,0.35 z m -5.35,-3.5 h 2.1 c 0.071,0.002 0.155,0.019 0.25,0.05 0.4,0.033 0.717,0.083 0.95,0.15 0.467,0.133 0.833,0.3 1.1,0.5 0.233,0.2 0.334,0.467 0.3,0.8 l -1.199,-0.5 h -0.15 c -1.366,-0.2 -2.467,-0.283 -3.3,-0.25 -1.5,0.067 -2.567,0.633 -3.2,1.7 0.233,-0.6 0.517,-1.083 0.85,-1.45 0.333,-0.333 0.7,-0.583 1.1,-0.75 0.066,-0.033 0.117,-0.05 0.15,-0.05 0.266,-0.1 0.616,-0.167 1.049,-0.2 z M 37.5,34 c -1.2,0.267 -2.6,0.117 -4.2,-0.45 -2.367,-0.767 -3.867,-1.167 -4.5,-1.2 -1.433,0.066 -2.617,0.033 -3.55,-0.1 -0.933,-0.133 -1.7,-0.367 -2.3,-0.7 0.233,-0.1 0.466,-0.183 0.7,-0.25 1.1,-0.367 2.483,-0.367 4.15,0 1.167,0.267 2.817,0.784 4.95,1.55 1.6,0.467 3.3,0.8 5.1,1 -0.1,0.033 -0.216,0.083 -0.35,0.15 z M 26.75,21.15 c 0.5,-0.066 1.017,-0.066 1.55,0 -2.233,0.633 -4.2,1.283 -5.9,1.95 -3.3,1.267 -4.8,2.633 -4.5,4.1 l 0.55,0.3 -0.65,-0.05 c -0.4,-0.633 -0.517,-1.233 -0.35,-1.8 0.1,-0.233 0.233,-0.45 0.4,-0.65 0.233,-0.3 0.517,-0.55 0.85,-0.75 0.233,-0.133 0.5,-0.267 0.8,-0.4 2.267,-1.1 3.717,-1.767 4.35,-2 0.833,-0.3 1.633,-0.517 2.4,-0.65 0.1,-0.034 0.217,-0.05 0.35,-0.05 z M 23.4,34.6 c -0.033,-0.033 -0.066,-0.05 -0.1,-0.05 l 0.05,-0.05 0.2,-0.35 c 0,0.033 0.017,0.233 0.05,0.6 0.367,0.333 0.633,1.017 0.8,2.05 0.167,1.134 0.15,2.05 -0.05,2.75 -0.2,-0.166 -0.333,-0.416 -0.4,-0.75 -0.034,-0.434 -0.067,-0.733 -0.1,-0.899 -0.133,-1.5 -0.217,-2.55 -0.25,-3.15 -0.067,-0.068 -0.133,-0.118 -0.2,-0.151 z"
       fill="#d4a36c"
       id="path220" />
    <path
       d="m 27.4,37.15 -2.5,6.899 c 0,-0.066 0.017,-0.133 0.05,-0.2 V 43.8 c 0.066,-0.434 0.133,-0.816 0.2,-1.149 0.067,-0.634 0.133,-1.167 0.2,-1.601 0.1,-1.2 0.133,-2.233 0.1,-3.1 0.1,0.267 0.3,0.649 0.6,1.149 l 0.85,-1.949 0.55,-0.9 c 0,0.267 -0.017,0.566 -0.05,0.9 z M 25.05,20.9 c 0.233,-0.133 0.517,-0.25 0.85,-0.35 1.267,-0.433 2.383,-0.583 3.35,-0.45 0.233,0.033 0.467,0.1 0.7,0.2 0.267,0.1 0.55,0.217 0.85,0.35 -0.433,0.3 -1.083,0.434 -1.95,0.4 -1.133,0 -1.817,0.017 -2.05,0.05 l -0.05,0.05 H 26.6 c -0.133,0 -0.25,0.017 -0.35,0.05 -0.767,0.133 -1.567,0.35 -2.4,0.65 -0.633,0.233 -2.083,0.9 -4.35,2 -0.3,0.133 -0.567,0.267 -0.8,0.4 -0.333,0.2 -0.617,0.45 -0.85,0.75 -0.167,0.2 -0.3,0.417 -0.4,0.65 -0.5,0.7 -0.717,1.5 -0.65,2.4 -0.033,0.133 -0.033,0.267 0,0.4 l 0.25,0.2 c -0.966,-0.233 -1.433,-0.783 -1.4,-1.65 0,-0.133 0.017,-0.267 0.05,-0.4 0.033,-0.367 0.167,-0.717 0.4,-1.05 0.033,-0.066 0.083,-0.133 0.15,-0.2 L 16.3,25.3 v -0.025 c 0.04,-0.089 0.106,-0.181 0.2,-0.275 0.1,-0.133 0.217,-0.267 0.35,-0.4 1.066,-1.033 2.433,-1.783 4.1,-2.25 0.9,-0.233 2.267,-0.717 4.1,-1.45 z m 32.4,6.65 c -0.167,0.267 -0.417,0.55 -0.75,0.85 -1.367,1.467 -2.566,2.367 -3.601,2.7 -4,1.3 -7.483,2.2 -10.449,2.7 3.433,-1.767 6.333,-2.966 8.699,-3.6 1.867,-0.5 3.084,-0.917 3.65,-1.25 1.566,-0.934 2.267,-2.233 2.1,-3.9 V 24.4 c 0.4,0.233 0.667,0.5 0.801,0.8 0.1,0.2 0.166,0.4 0.199,0.6 l -0.1,-0.1 c -0.134,-0.1 -0.3,-0.15 -0.5,-0.15 l 0.35,0.4 -0.05,-0.1 c -0.066,-0.033 -0.033,-0.1 0.101,-0.2 0,0.1 -0.017,0.2 -0.051,0.3 -0.099,0.567 -0.233,1.1 -0.399,1.6 z m -3.1,6.25 c 0.2,0 0.384,-0.017 0.551,-0.05 0.366,-0.033 0.716,-0.067 1.05,-0.1 -0.533,0.133 -1.066,0.25 -1.601,0.35 -0.399,0.067 -0.783,0.15 -1.149,0.25 0.365,-0.167 0.749,-0.317 1.149,-0.45 z M 45.3,30 c -0.333,0.067 -0.684,0.133 -1.05,0.2 -0.533,0.033 -1.083,0.05 -1.65,0.05 0.4,-0.3 1.417,-0.683 3.051,-1.15 1.267,-0.4 2.199,-1.1 2.8,-2.1 l 0.2,-1 c 0.199,0.5 0.283,0.967 0.25,1.4 -0.434,0.667 -0.967,1.233 -1.601,1.7 -0.567,0.4 -1.234,0.7 -2,0.9 z m -7.8,-5.95 h 0.25 c 0.366,0.034 0.6,0.05 0.7,0.05 1.166,0.1 2.033,0.4 2.6,0.9 -0.434,-0.133 -0.85,-0.217 -1.25,-0.25 -0.267,-0.2 -0.633,-0.367 -1.1,-0.5 -0.233,-0.067 -0.55,-0.117 -0.95,-0.15 -0.095,-0.032 -0.179,-0.048 -0.25,-0.05 z m -2.1,0 c -0.433,0.034 -0.783,0.1 -1.05,0.2 -0.033,0 -0.083,0.017 -0.15,0.05 -0.4,0.167 -0.767,0.417 -1.1,0.75 -0.833,0.333 -1.4,0.8 -1.7,1.4 -0.033,0.167 -0.066,0.35 -0.1,0.55 h 0.05 l 0.7,0.2 c -0.133,0.066 -0.4,0.05 -0.8,-0.05 0,-0.066 0.017,-0.117 0.05,-0.15 -0.433,-0.067 -0.75,-0.483 -0.95,-1.25 0.333,-0.567 0.833,-1 1.5,-1.3 0.3,-0.167 0.633,-0.284 1,-0.35 0.4,-0.033 1.15,-0.05 2.25,-0.05 z"
       fill="#8c6a44"
       id="path222" />
    <path
       d="m 27.85,35.6 v -0.1 h 0.05 z m 23.9,0.25 c -4.2,1.133 -8.95,1.833 -14.25,2.1 -3.233,0.1 -6.25,0.033 -9.05,-0.2 l 1,-1.8 h -1.4 l 0.2,-0.35 c 1.233,0.233 2.467,0.417 3.7,0.55 -0.8,-0.034 -1.65,-0.051 -2.55,-0.051 l 2.75,0.15 c 0.467,0.033 0.934,0.066 1.4,0.1 h 0.2 c 0.133,0.034 0.283,0.051 0.45,0.051 0.9,0.033 1.783,0.066 2.65,0.1 2.966,0.134 5.534,0.2 7.7,0.2 2.134,0 4.533,-0.283 7.2,-0.85 z m -6.45,0.2 c 2.867,-0.367 5.5,-0.966 7.9,-1.8 0.366,-0.1 0.75,-0.183 1.149,-0.25 -2.767,1.133 -5.017,1.783 -6.75,1.95 -0.632,0.033 -1.399,0.067 -2.299,0.1 z m -28.35,-3.85 -4,-0.25 c -0.3,-0.2 -0.534,-0.367 -0.7,-0.5 -0.967,-0.8 -1.817,-2.35 -2.55,-4.65 -0.167,-2.566 2.466,-4.683 7.9,-6.35 5.1,-1.567 11.35,-2.383 18.75,-2.45 7.567,-0.133 13.9,0.533 19,2 5.767,1.633 8.617,3.933 8.551,6.9 -0.067,2.1 -1.467,4 -4.2,5.7 0.5,-0.467 1,-1 1.5,-1.6 L 62.1,30.2 c -1.533,0.867 -3.283,1.767 -5.25,2.7 -0.666,0.3 -1.316,0.583 -1.949,0.85 -0.167,0.033 -0.351,0.05 -0.551,0.05 0.733,-0.3 1.45,-0.617 2.15,-0.95 4.033,-1.967 5.934,-4.083 5.7,-6.35 -0.233,-2.733 -3.084,-4.783 -8.55,-6.15 -4.867,-1.2 -10.801,-1.7 -17.8,-1.5 -6.8,0.2 -12.583,0.967 -17.35,2.3 -5.133,1.5 -7.533,3.283 -7.2,5.35 0.333,2.167 2.217,4.067 5.65,5.7 z m -3,1.2 c 1.566,0.4 3.383,1.05 5.45,1.95 0.3,0.1 0.667,0.4 1.1,0.9 -0.5,-0.167 -0.983,-0.317 -1.45,-0.45 -2,-0.667 -3.7,-1.467 -5.1,-2.4 z"
       fill="#945c1d"
       id="path224" />
    <path
       d="M 24.9,44.125 V 44.05 l 2.5,-6.899 0.45,-1.2 h 1.6 l -1,1.8 L 24.9,44.2 Z M 45.3,36.05 c 0.9,-0.033 1.667,-0.066 2.3,-0.1 1.733,-0.167 3.983,-0.817 6.75,-1.95 0.534,-0.1 1.067,-0.217 1.601,-0.35 -0.334,0.033 -0.684,0.067 -1.05,0.1 0.633,-0.267 1.283,-0.55 1.949,-0.85 1.967,-0.933 3.717,-1.833 5.25,-2.7 L 61.2,31 c -0.5,0.6 -1,1.133 -1.5,1.6 -0.8,0.7 -1.634,1.233 -2.5,1.6 -1.334,0.566 -3.101,1.1 -5.3,1.6 -0.067,0 -0.117,0.017 -0.15,0.05 -2.667,0.567 -5.066,0.85 -7.2,0.85 -2.166,0 -4.733,-0.066 -7.7,-0.2 1.733,0.033 3.516,0 5.35,-0.1 1.067,-0.1 2.1,-0.216 3.1,-0.35 z M 22,38.1 l 0.85,1.45 0.4,0.75 C 23.117,40.1 23,39.917 22.9,39.75 c -0.967,-1.6 -1.767,-2.767 -2.4,-3.5 -0.433,-0.5 -0.8,-0.8 -1.1,-0.9 C 17.334,34.45 15.517,33.8 13.95,33.4 13.717,33.334 13.5,33.267 13.3,33.2 12.067,32.9 11.217,32.75 10.75,32.75 9.583,32.417 9,31.167 9,29 l 0.4,-3.2 c 0.067,0.367 0.167,0.7 0.3,1 0.733,2.3 1.583,3.85 2.55,4.65 0.167,0.133 0.4,0.3 0.7,0.5 0.667,0.367 1.5,0.716 2.5,1.05 1.133,0.333 1.966,0.5 2.5,0.5 0.267,0 0.65,0.233 1.15,0.7 0.467,0.4 1.05,0.983 1.75,1.75 z m 11.55,-1.75 c -0.466,-0.033 -0.933,-0.066 -1.4,-0.1 L 29.4,36.1 c 0.9,0 1.75,0.017 2.55,0.051 0.533,0.066 1.067,0.132 1.6,0.199 z"
       fill="#b06d22"
       id="path226" />
    <path
       d="m 24.8,43.45 0.1,0.675 C 24.886,44.101 24.87,44.076 24.85,44.05 L 24.7,43.7 Z M 23.45,35 l 1,8.15 L 22.8,39.1 22.45,38.7 22,38.1 20.85,35.951 c -0.7,-0.767 -1.283,-1.35 -1.75,-1.75 l -0.25,-0.35 z"
       fill="#593711"
       id="path228" />
    <path
       d="m 24.9,44.05 v 0.1 l -0.05,-0.101 c -0.056,-0.098 -0.123,-0.197 -0.2,-0.3 l 0.05,-0.05 0.15,0.35 c 0.02,0.026 0.036,0.051 0.05,0.075 l -0.1,-0.675 0.35,-0.8 c -0.066,0.333 -0.133,0.716 -0.2,1.149 v 0.05 C 24.917,43.917 24.9,43.983 24.9,44.05 Z M 16.95,32.2 c 1.533,0.733 3.383,1.417 5.55,2.05 0.267,0.1 0.55,0.183 0.85,0.25 l -0.05,0.05 c 0.034,0 0.067,0.017 0.1,0.05 l 0.05,0.4 -4.6,-1.15 0.25,0.35 c -0.5,-0.467 -0.883,-0.7 -1.15,-0.7 -0.534,0 -1.367,-0.167 -2.5,-0.5 -1,-0.333 -1.833,-0.683 -2.5,-1.05 z m 7.5,10.95 0.05,0.25 c -0.667,-1.467 -1.2,-2.684 -1.6,-3.65 0.1,0.167 0.217,0.35 0.35,0.55 l -0.4,-0.75 c -0.167,-0.333 -0.3,-0.616 -0.4,-0.85 l 0.35,0.4 z"
       fill="#9c5f10"
       id="path230" />
  </g>
</svg>
