<?xml version="1.0" encoding="UTF-8" standalone="no"?>
<svg
   viewBox="0 0 332.59843 472.44095"
   version="1.1"
   id="svg77"
   sodipodi:docname="marker.svg"
   width="88mm"
   height="125mm"
   inkscape:version="1.2.2 (732a01da63, 2022-12-09)"
   xmlns:inkscape="http://www.inkscape.org/namespaces/inkscape"
   xmlns:sodipodi="http://sodipodi.sourceforge.net/DTD/sodipodi-0.dtd"
   xmlns:xlink="http://www.w3.org/1999/xlink"
   xmlns="http://www.w3.org/2000/svg"
   xmlns:svg="http://www.w3.org/2000/svg">
  <sodipodi:namedview
     id="namedview79"
     pagecolor="#505050"
     bordercolor="#eeeeee"
     borderopacity="1"
     inkscape:showpageshadow="0"
     inkscape:pageopacity="0"
     inkscape:pagecheckerboard="0"
     inkscape:deskcolor="#505050"
     showgrid="false"
     inkscape:zoom="0.76595678"
     inkscape:cx="-82.250072"
     inkscape:cy="251.31966"
     inkscape:current-layer="svg77"
     inkscape:document-units="mm" />
  <defs
     id="defs51">
    <linearGradient
       id="linearGradient953">
      <stop
         stop-color="#0080ff"
         offset="0"
         id="stop949"
         style="stop-color:#000000;stop-opacity:1;" />
      <stop
         stop-color="#0ff"
         offset="1"
         id="stop951"
         style="stop-color:#787878;stop-opacity:1;" />
    </linearGradient>
    <filter
       id="j"
       x="-0.025328883"
       y="-0.062207863"
       width="1.0506578"
       height="1.1244157">
      <feGaussianBlur
         stdDeviation="5.2758"
         id="feGaussianBlur2" />
    </filter>
    <filter
       id="k"
       x="-0.016723952"
       y="-0.042475058"
       width="1.0334479"
       height="1.0849501">
      <feGaussianBlur
         stdDeviation=".667"
         id="feGaussianBlur5" />
    </filter>
    <filter
       id="m"
       x="-0.15555077"
       y="-0.046842469"
       width="1.3111015"
       height="1.0936849">
      <feGaussianBlur
         stdDeviation="6.3089"
         id="feGaussianBlur8" />
    </filter>
    <filter
       id="l"
       x="-0.18147374"
       y="-0.05464893"
       width="1.3629475"
       height="1.1092979">
      <feGaussianBlur
         stdDeviation="7.3603"
         id="feGaussianBlur11" />
    </filter>
    <linearGradient
       id="b">
      <stop
         stop-color="#0080ff"
         offset="0"
         id="stop14"
         style="stop-color:#000000;stop-opacity:1;" />
      <stop
         stop-color="#0ff"
         offset="1"
         id="stop16"
         style="stop-color:#808080;stop-opacity:1;" />
    </linearGradient>
    <linearGradient
       id="h"
       x1="-35.779999"
       x2="411.56"
       gradientUnits="userSpaceOnUse"
       gradientTransform="matrix(-0.15674667,-0.15511223,0.15511223,-0.15674667,343.03609,103.3231)">
      <stop
         stop-color="#2fa4ff"
         offset="0"
         id="stop19" />
      <stop
         stop-color="#6bd0ff"
         offset=".25"
         id="stop21" />
      <stop
         stop-color="#2fa4ff"
         offset=".4741"
         id="stop23" />
      <stop
         stop-color="#6bd0ff"
         offset=".7318"
         id="stop25" />
      <stop
         stop-color="#2fa4ff"
         offset="1"
         id="stop27" />
    </linearGradient>
    <linearGradient
       id="a">
      <stop
         offset="0"
         id="stop30" />
      <stop
         stop-color="#333"
         offset=".25"
         id="stop32" />
      <stop
         offset=".4741"
         id="stop34" />
      <stop
         stop-color="#333"
         offset=".7318"
         id="stop36" />
      <stop
         offset="1"
         id="stop38" />
    </linearGradient>
    <linearGradient
       id="c"
       x1="139.28"
       x2="235"
       gradientUnits="userSpaceOnUse">
      <stop
         stop-color="#5ff"
         offset="0"
         id="stop41"
         style="stop-color:#aaaaaa;stop-opacity:1;" />
      <stop
         stop-color="#5ff"
         offset="1"
         id="stop43"
         style="stop-color:#aaaaaa;stop-opacity:1;" />
    </linearGradient>
    <linearGradient
       id="i"
       x1="138.57001"
       x2="234.28999"
       gradientUnits="userSpaceOnUse"
       xlink:href="#b"
       gradientTransform="matrix(-0.15674667,-0.15511223,0.15511223,-0.15674667,343.03609,103.3231)" />
    <linearGradient
       id="g"
       x1="39.938999"
       x2="339.94"
       gradientUnits="userSpaceOnUse"
       xlink:href="#a"
       gradientTransform="matrix(-0.15674667,-0.15511223,0.15511223,-0.15674667,343.03609,103.3231)" />
    <linearGradient
       id="f"
       x1="-37.450001"
       x2="411.17999"
       gradientUnits="userSpaceOnUse"
       xlink:href="#a"
       gradientTransform="matrix(-0.15674667,-0.15511223,0.15511223,-0.15674667,343.03609,103.3231)" />
    <linearGradient
       id="e"
       x1="118.57"
       x2="257.14001"
       gradientUnits="userSpaceOnUse"
       xlink:href="#a"
       gradientTransform="matrix(-0.15674667,-0.15511223,0.15511223,-0.15674667,343.03609,103.3231)" />
    <linearGradient
       id="d"
       x1="228.56"
       x2="137.14"
       y1="-1794.5"
       y2="-1795.9"
       gradientUnits="userSpaceOnUse"
       xlink:href="#linearGradient953"
       gradientTransform="matrix(-0.15674667,-0.15511223,0.15511223,-0.15674667,343.03609,103.3231)" />
  </defs>
  <path
     transform="matrix(-0.36373116,0.6185191,-0.6185191,-0.36373116,438.31025,-598.47725)"
     d="m 979.46434,-361.73044 c -9.6206,0.14597 -17.8152,5.13558 -19.9063,13.375 l -19.125,75.28125 c -2.5738,10.1408 5.3441,20.41355 17.4687,23.9375 l 308.62496,89.6875 0.031,-0.125 3.9063,1 c 6.6016,1.67555 13.262,-2.30455 14.9374,-8.90625 l 2.375,-9.28125 8.8438,2.25 0.2188,-0.84375 c 1.182,-0.4147 29.5561,-10.33654 44.6874,-10.625 19.4495,-0.37078 57.2188,11.375 57.2188,11.375 l 0.062,-0.28125 c 2.8147,0.34492 5.5021,-1.45736 6.2187,-4.28125 l 0.3126,-1.25 24.7187,6.28125 0.1875,0.25 0.5938,0.15625 -0.1876,-0.25 0.2188,0.0312 2.0312,0.53125 h 0.031 c 0.3741,0.0928 0.7923,0.13645 1.1875,0.15625 0.3247,0.0163 0.6419,-7.9e-4 0.9688,-0.0312 0.2856,-0.0266 0.5642,-0.0643 0.8437,-0.125 l 0.1563,-0.0312 0.125,-0.0312 0.3124,-0.0937 c 0.2489,-0.0773 0.4855,-0.14607 0.7188,-0.25 0.1333,-0.0587 0.2481,-0.1204 0.375,-0.1875 0.3327,-0.17692 0.6623,-0.39319 0.9375,-0.625 l 0.031,-0.0312 c 0.1239,-0.10632 0.2347,-0.19547 0.3437,-0.3125 0.015,-0.0162 0.016,-0.0461 0.031,-0.0625 0.097,-0.10812 0.1978,-0.22705 0.2812,-0.34375 l 0.062,-0.0937 c 0.068,-0.102 0.1307,-0.20442 0.1875,-0.3125 0.026,-0.0505 0.039,-0.10444 0.062,-0.15625 0.043,-0.0931 0.091,-0.18408 0.125,-0.28125 0.025,-0.0718 0.043,-0.14471 0.062,-0.21875 0.023,-0.0829 0.047,-0.16437 0.062,-0.25 0.016,-0.0864 0.023,-0.19166 0.031,-0.28125 0.017,-0.19039 0.016,-0.36157 0,-0.5625 v -0.0312 l -1.5,-18.9375 c -0.2543,-3.15179 -1.0602,-6.15962 -4.125,-6.9375 h -0.031 l -1.7813,-0.46875 -19.8124,-5 0.094,-0.4375 c 0.7156,-2.81918 -0.776,-5.67535 -3.4063,-6.71875 l 0.063,-0.25 c 0,0 -38.8003,-7.71132 -55.7188,-17.3125 -13.4403,-7.62726 -34.5312,-30.96875 -34.5312,-30.96875 l -0.1563,0.625 -8.4687,-2.15625 2.8124,-11.125 c 1.6757,-6.60172 -2.3045,-13.2932 -8.9062,-14.96875 l -3.9062,-0.96875 -0.125,0.5 -314.03126,-68.34375 c -2.3133,-0.50339 -4.6236,-0.72118 -6.8437,-0.6875 z"
     filter="url(#j)"
     opacity="0.5"
     id="path53" />
  <path
     d="m 39.435573,360.85765 -12.283054,-5.95014 c -2.041881,-0.98913 -1.626164,-4.17891 -0.0302,-5.79169 L 46.84329,329.18705 c 1.595949,-1.61277 4.179061,-1.62632 5.791686,-0.0305 l 9.18081,9.08507 c 1.612766,1.59595 1.626163,4.17891 0.0302,5.79169 l -16.618725,16.79384 c -1.595949,1.61277 -3.749837,1.01952 -5.791686,0.0305 z"
     fill="url(#i)"
     id="path55"
     style="fill:url(#i);stroke-width:0.220521" />
  <path
     d="M 62.21591,350.14256 40.271377,328.42685 c 0,0 21.000442,-19.10939 27.844914,-31.27343 5.437597,-9.66364 9.753829,-31.80234 9.753829,-31.80234 l 47.024,46.53367 c 0,0 -22.09286,4.54867 -31.698362,10.08663 -12.092141,6.97202 -30.979848,28.17118 -30.979848,28.17118 z"
     id="path57"
     style="stroke-width:0.220521" />
  <path
     d="m 227.74,-1689.2 c 0,0 -6.7377,128.58 10,189.62 13.297,48.493 70,133.62 70,133.62 h 16 c 0,0 -56.703,-85.132 -70,-133.62 -16.738,-61.043 -10,-189.62 -10,-189.62 z"
     fill="#999999"
     filter="url(#m)"
     opacity="0.4893"
     id="path59"
     transform="matrix(-0.15674667,-0.15511223,0.15511223,-0.15674667,343.03609,103.3231)" />
  <path
     d="m 150.2,-1691.3 c -10e-5,0 6.7376,128.58 -10,189.62 -13.297,48.493 -70,133.62 -70,133.62 h 16 c 0,0 56.703,-85.132 70,-133.62 16.738,-61.043 9.9999,-189.62 10,-189.62 z"
     fill="#e6e6e6"
     filter="url(#l)"
     opacity="0.4893"
     id="path61"
     transform="matrix(-0.15674667,-0.15511223,0.15511223,-0.15674667,343.03609,103.3231)" />
  <path
     d="M 149.10811,310.51193 305.60813,141.11566 c 6.14811,-6.65451 7.21339,-15.87802 1.87726,-21.15851 L 267.87237,80.757191 c -5.33597,-5.28033 -14.55276,-4.123337 -21.14252,2.094129 L 78.988117,241.1231 149.10717,310.511 Z"
     fill="url(#h)"
     stroke="#00aad4"
     stroke-width="0.330781"
     id="path63"
     style="fill:url(#h)" />
  <path
     d="m 124.39612,311.74561 -47.024002,-46.53367 8.420423,-8.50915 47.023999,46.53367 z"
     fill="url(#g)"
     id="path65"
     style="fill:url(#g);stroke-width:0.220521" />
  <path
     d="m 134.86348,312.88965 c 3.47382,3.4376 9.03675,3.40844 12.47435,-0.0654 l 2.03585,-2.0573 -70.319692,-69.58645 -2.035848,2.0573 c -3.437597,3.47382 -3.408442,9.03676 0.06538,12.47436 z"
     fill="url(#f)"
     id="path67"
     style="fill:url(#f);stroke-width:0.220521" />
  <path
     d="m 56.713606,349.6615 c 1.536713,1.52069 3.955854,1.58326 5.56097,0.19009 L 40.569865,328.3732 c -1.376189,1.61971 -1.288307,4.03802 0.248375,5.55868 l 15.89568,15.72993 z"
     fill="url(#e)"
     id="path69"
     style="fill:url(#e);stroke-width:0.220521" />
  <path
     d="m 26.63169,354.57825 c 0.149342,0.12824 0.321971,0.24081 0.513413,0.33355 l 12.281643,5.94875 c 2.041882,0.98913 4.197931,1.58725 5.793741,-0.0254 l 0.935529,-0.94539 c -0.556858,-3.05017 -1.869673,-5.74743 -3.988261,-7.84393 -3.446843,-3.41093 -8.452382,-4.6702 -13.981895,-4.00548 l -1.071252,1.08254 c -1.446266,1.46151 -1.926083,4.21507 -0.483027,5.45538 z"
     fill="url(#d)"
     id="path71"
     style="fill:url(#d);stroke-width:0.220521" />
  <path
     d="m 235,-1793.1 c -15.703,19.781 -35.854,31.688 -57.844,31.688 -13.516,0 -26.351,-4.5071 -37.875,-12.562 v 2 c 11.524,8.0554 24.359,16.562 37.875,16.562 21.99,10e-5 42.141,-15.907 57.844,-35.688 z"
     fill="url(#c)"
     filter="url(#k)"
     id="path73"
     style="fill:url(#c)"
     transform="matrix(-0.15674667,-0.15511223,0.15511223,-0.15674667,343.03609,103.3231)" />
</svg>
