<?xml version="1.0" encoding="UTF-8" standalone="no"?>
<svg
   xmlns:dc="http://purl.org/dc/elements/1.1/"
   xmlns:cc="http://creativecommons.org/ns#"
   xmlns:rdf="http://www.w3.org/1999/02/22-rdf-syntax-ns#"
   xmlns:svg="http://www.w3.org/2000/svg"
   xmlns="http://www.w3.org/2000/svg"
   xmlns:sodipodi="http://sodipodi.sourceforge.net/DTD/sodipodi-0.dtd"
   xmlns:inkscape="http://www.inkscape.org/namespaces/inkscape"
   version="1.1"
   id="svg2"
   viewBox="0 0 311.81102 442.91338"
   height="125mm"
   width="88mm"
   sodipodi:docname="mask.svg"
   inkscape:version="1.0.2-2 (e86c870879, 2021-01-15)">
  <sodipodi:namedview
     pagecolor="#ffffff"
     bordercolor="#666666"
     borderopacity="1"
     objecttolerance="10"
     gridtolerance="10"
     guidetolerance="10"
     inkscape:pageopacity="0"
     inkscape:pageshadow="2"
     inkscape:window-width="1920"
     inkscape:window-height="1017"
     id="namedview24"
     showgrid="false"
     inkscape:zoom="0.71981321"
     inkscape:cx="-184.68751"
     inkscape:cy="381.6516"
     inkscape:window-x="-8"
     inkscape:window-y="-8"
     inkscape:window-maximized="1"
     inkscape:current-layer="g4741"
     inkscape:document-rotation="0" />
  <defs
     id="defs4" />
  <metadata
     id="metadata7">
    <rdf:RDF>
      <cc:Work
         rdf:about="">
        <dc:format>image/svg+xml</dc:format>
        <dc:type
           rdf:resource="http://purl.org/dc/dcmitype/StillImage" />
        <dc:title></dc:title>
      </cc:Work>
    </rdf:RDF>
  </metadata>
  <g
     transform="translate(-449.71219,-315.85719)"
     id="layer1">
    <g
       id="g4741"
       transform="translate(484.47958,-1039.3011)"
       style="display:inline">
      <path
         style="display:inline;fill:#e9e9ea;stroke-width:0.945591"
         d="m 36.711711,1779.2888 c 3.96489,-4.5221 4.621641,-7.6433 5.486119,-26.0726 0.46784,-9.9737 0.851059,-25.1548 0.851589,-33.736 l 9.69e-4,-15.6023 -4.82428,-5.2007 c -6.530637,-7.0403 -11.65152,-15.0741 -12.985597,-20.3721 -1.715618,-6.8134 -3.833948,-22.9781 -3.853121,-29.4026 l -0.01731,-5.8047 -3.272775,-0.614 c -3.817339,-0.7162 -8.2897829,-4.8598 -11.0184993,-10.2085 -2.2962202,-4.501 -8.4431538,-23.5671 -11.1775707,-34.6698 -2.097683,-8.5174 -2.620876,-22.3534 -1.072572,-28.3646 0.484392,-1.8806 1.364071,-5.8576 1.9548436,-8.8378 1.1188918,-5.6444 4.08858242,-9.2381 7.6340138,-9.2381 1.3805207,0 1.6225285,-0.5837 1.2741597,-3.0731 -0.5390751,-3.8521 -4.89976718,-62.8232 -5.68126188,-76.8293 l -0.5803704,-10.4015 5.27694008,-10.2132 c 8.3924351,-16.243 16.7886931,-29.8094 21.3910211,-34.5627 2.447936,-2.5283 8.229438,-6.5781 13.612732,-9.5354 10.849697,-5.9604 18.094025,-11.417 20.295733,-15.2874 2.277356,-4.0036 3.268507,-3.3459 2.770381,1.8382 l -0.439807,4.577 6.223984,-3.637 c 3.42318,-2.0004 8.99228,-4.6863 12.375765,-5.9689 12.453024,-4.7201 17.157664,-5.3797 43.975433,-6.1662 25.37676,-0.7442 31.40662,-1.5245 34.75045,-4.4969 3.18522,-2.8314 1.86111,1.0641 -1.6733,4.9228 -1.83045,1.9984 -3.16013,3.8014 -2.95483,4.0067 0.39877,0.3988 18.9801,-6.4083 22.20722,-8.1355 2.86588,-1.5337 3.17358,0.1162 0.50129,2.6882 -1.35366,1.3029 -2.21637,3.0778 -2.05219,4.2222 0.5234,3.6483 4.89739,4.7906 18.01307,4.7042 6.63096,-0.044 12.05628,0.088 12.05628,0.2923 0,0.2044 -0.62021,1.3182 -1.37823,2.4752 -1.83803,2.8051 -0.68375,4.3992 3.93718,5.4375 4.04623,0.9092 13.00041,-0.1399 16.30908,-1.9106 2.66554,-1.4266 2.42832,0.129 -0.42901,2.8133 -2.80933,2.6393 -3.10914,4.2477 -0.53496,2.8701 2.85251,-1.5266 2.97454,-1.2151 0.90082,2.2996 -3.34997,5.6778 0.35768,6.6162 5.38952,1.3641 3.10924,-3.2453 4.17332,-3.4556 4.17332,-0.8246 0,2.1665 4.40682,13.6885 10.68277,27.9311 8.4651,19.2107 10.30454,27.6335 8.28598,37.9417 -0.48877,2.496 -2.00122,11.7719 -3.36101,20.6131 -2.06413,13.4209 -8.80514,51.4093 -10.44148,58.842 -0.41737,1.8958 -0.18256,2.0502 2.34786,1.5441 2.26719,-0.4534 3.34251,-0.031 5.55338,2.1795 3.59245,3.5924 4.90086,11.0318 4.89209,27.8158 -0.008,14.1301 -1.13903,20.091 -7.37394,38.842 -4.62451,13.9079 -8.46835,19.6247 -14.5075,21.5763 l -4.32088,1.3963 -0.59365,11.0407 c -0.69458,12.9175 -3.45982,25.7859 -6.89891,32.1046 -1.34114,2.4641 -5.1576,7.4595 -8.48102,11.1008 l -6.04259,6.6208 0.007,10.7218 c 0.004,5.897 0.4419,21.1469 0.97425,33.8888 l 0.96791,23.1669 2.76906,4.4916 2.76907,4.4915 h -88.04742 c -83.777035,0 -87.977065,-0.08 -86.596521,-1.6547 z m 108.646079,-28.0731 c 7.52451,-1.5948 15.34791,-5.4096 23.20046,-11.3124 11.24948,-8.4564 33.69099,-34.1224 34.67928,-39.6622 0.29262,-1.6402 4.19518,-20.6412 8.67233,-42.2244 4.77562,-23.0218 7.92785,-40.3411 7.62634,-41.9011 -0.28267,-1.4626 0.0973,-4.122 0.84431,-5.91 1.65693,-3.9656 0.67634,-4.1425 -2.9246,-0.5277 -2.64363,2.6538 -3.14523,2.7622 -19.73321,4.264 -19.02063,1.7222 -39.94946,2.0019 -44.83949,0.5995 -1.77156,-0.508 -4.74737,-1.9646 -6.61289,-3.2367 -3.78061,-2.5781 -8.28726,-3.8781 -16.43396,-4.7412 -5.05961,-0.536 -5.40826,-0.451 -4.57123,1.1129 4.21997,7.8851 3.98879,79.928 -0.40876,127.3773 -0.76974,8.3053 -1.71034,15.3966 -2.09022,15.7585 -0.37988,0.3619 -1.75449,0.8488 -3.05467,1.0819 -1.30019,0.2333 2.52945,0.4747 8.51032,0.5366 6.18821,0.064 13.57265,-0.4597 17.13599,-1.215 z m -56.850805,-10.351 c 0,-0.2002 -1.170172,-1.0765 -2.600376,-1.9473 l -2.60037,-1.5833 2.232328,1.9474 c 2.178384,1.9002 2.968418,2.3216 2.968418,1.5832 z m -12.329311,-8.6632 c -0.667587,-0.8044 -2.528131,-2.3412 -4.134545,-3.4152 -2.198956,-1.4702 -1.986029,-1.1175 0.861611,1.427 4.063722,3.6311 5.218772,4.3328 3.272934,1.9882 z m -8.47368,-6.3981 c 0,-0.1627 -1.382926,-1.5456 -3.073174,-3.0732 l -3.073169,-2.7772 2.777286,3.0731 c 2.588819,2.8647 3.369057,3.5079 3.369057,2.7773 z m -9.933951,-10.1113 c -0.944212,-1.0434 -1.966895,-1.6469 -2.272644,-1.3412 -0.305744,0.3058 0.269409,1.1594 1.278116,1.897 2.590817,1.8944 3.00338,1.6638 0.994528,-0.5558 z m -6.141091,-5.9637 c 0,-0.1628 -1.382927,-1.5457 -3.07317,-3.0732 l -3.073169,-2.7773 2.777284,3.0732 c 2.588819,2.8646 3.369055,3.5078 3.369055,2.7773 z M 40.90811,1677.6378 c -0.262316,-0.6501 -0.476947,-0.1182 -0.476947,1.1819 0,1.3002 0.214631,1.8321 0.476947,1.182 0.262316,-0.65 0.262316,-1.7138 0,-2.3639 z m -5.653847,-26.4174 c -0.301851,-0.7544 -0.525919,-0.5303 -0.571288,0.5713 -0.04104,0.9967 0.182423,1.5553 0.496643,1.241 0.31421,-0.3142 0.347798,-1.1297 0.07461,-1.8123 z m -0.94559,-3.7824 c -0.301852,-0.7543 -0.525919,-0.5303 -0.571288,0.5713 -0.04104,0.9968 0.182423,1.5553 0.496643,1.2411 0.31421,-0.3143 0.347797,-1.1298 0.07461,-1.8124 z m -1.910878,-8.5694 c -0.262317,-0.6502 -0.476947,-0.1182 -0.476947,1.182 0,1.3001 0.21463,1.8321 0.476947,1.1819 0.262316,-0.65 0.262316,-1.7139 0,-2.3639 z m 22.304325,-24.0297 c -0.650093,-0.2623 -1.713882,-0.2623 -2.363976,0 -0.650093,0.2623 -0.118198,0.477 1.181989,0.477 1.300185,0 1.832082,-0.2147 1.181987,-0.477 z m -8.273917,-1.2649 c -1.560225,-0.3969 -4.113319,-0.7162 -5.673544,-0.7092 -2.734836,0.012 -2.717844,0.038 0.472796,0.7092 1.820262,0.3832 4.373356,0.7023 5.673543,0.7092 2.097595,0.011 2.044311,-0.069 -0.472795,-0.7092 z m 50.589099,-0.4728 c 1.300185,-0.7432 1.93846,-1.3513 1.418383,-1.3513 -0.520076,0 -2.009379,0.6081 -3.309565,1.3513 -1.30019,0.7433 -1.938465,1.3514 -1.418388,1.3514 0.520076,0 2.009379,-0.6081 3.30957,-1.3514 z m -66.705055,-2.9836 c -1.701108,-1.2438 -3.268651,-1.6641 -3.268651,-0.8761 0,1.9245 1.346701,3.105 3.037653,2.6628 1.889763,-0.4942 1.899162,-0.5669 0.230998,-1.7867 z m 6.423653,1.8846 c -0.650094,-0.2623 -1.713884,-0.2623 -2.363977,0 -0.650093,0.2622 -0.118198,0.4769 1.181988,0.4769 1.300187,0 1.832082,-0.2147 1.181989,-0.4769 z M 26.081571,1597.499 c -2.271962,-5.6618 -2.726133,-6.3292 -2.252142,-3.3096 0.6821,4.3454 4.193525,12.7597 4.735329,11.3471 0.199473,-0.5201 -0.91796,-4.137 -2.483187,-8.0375 z m 195.753689,2.1832 c 0,-2.1086 -0.71533,-1.3734 -1.78569,1.8355 -0.93785,2.8117 -0.90548,2.917 0.3803,1.2377 0.77296,-1.0095 1.40539,-2.3924 1.40539,-3.0732 z"
         id="path4757" />
      <path
         style="display:inline;fill:#ca895b;stroke-width:0.945591"
         d="m 37.829182,1778.8159 c 4.279024,-5.8345 4.602274,-8.7617 5.891086,-53.3465 l 0.605897,-20.9601 -6.040906,-6.7236 c -12.013794,-13.3715 -15.160123,-22.6647 -16.153067,-47.7107 -0.257179,-6.487 -0.277102,-6.5308 -3.583547,-7.8869 -4.198087,-1.7218 -9.1356071,-6.3605 -11.3339347,-10.6479 -2.2997523,-4.4852 -7.21539168023,-20.0564 -10.1493834,-32.15 -2.1540199,-8.8787 -2.3509659,-11.1788 -1.8622429,-21.7486 0.828107,-17.9098 3.4941205,-25.531 8.9311926,-25.531 2.3162374,0 2.325302,-0.036 1.7188898,-6.8555 -1.6969644,-19.0832 -5.27309818,-72.032 -5.27916888,-78.1643 -0.00681,-6.8837 0.118908,-7.2502 7.05896338,-20.5783 8.9689341,-17.2245 15.7839841,-27.8522 20.3863901,-31.7917 1.990081,-1.7035 7.692786,-5.3478 12.672701,-8.0987 10.535884,-5.8198 18.15702,-11.5799 19.646335,-14.8485 1.714982,-3.764 2.91298,-2.7086 2.214282,1.9506 -0.350954,2.3403 -0.420582,4.2552 -0.154716,4.2552 0.265854,0 2.951405,-1.4936 5.967876,-3.3191 3.016472,-1.8255 8.675869,-4.5539 12.57643,-6.063 12.554382,-4.8571 20.073201,-5.926 46.806741,-6.6542 18.48656,-0.5036 25.58227,-1.0332 28.60412,-2.1348 2.21032,-0.8058 4.01876,-1.2119 4.01876,-0.9024 0,0.3096 -1.7762,2.3726 -3.94711,4.5847 -3.80719,3.8792 -3.85644,4.0054 -1.38919,3.5579 1.40686,-0.2551 6.90633,-2.1528 12.22103,-4.2171 5.31471,-2.0643 10.01312,-3.7557 10.44092,-3.7586 0.42781,0 -0.10409,1.1159 -1.18199,2.4863 -2.59627,3.3006 -2.47218,4.6936 0.59738,6.7061 2.12425,1.3927 4.68542,1.6767 15.1277,1.6767 6.91378,0 12.5713,0.086 12.57226,0.1918 0.001,0.1056 -0.51484,1.3257 -1.14623,2.7115 -1.02003,2.2387 -0.90295,2.718 1.05034,4.2997 2.66053,2.1543 11.88452,2.3837 17.35467,0.4315 1.95028,-0.6959 3.54597,-1.1175 3.54597,-0.937 0,0.1808 -1.32884,1.8421 -2.95297,3.6918 l -2.95297,3.3632 2.48017,-0.9429 c 2.39278,-0.9098 3.55137,0.1277 1.53459,1.3742 -0.52008,0.3214 -0.9456,1.6231 -0.9456,2.8925 0,3.2317 2.9106,3.0159 6.9308,-0.5139 l 3.21424,-2.8221 1.95703,5.9615 c 1.07636,3.2788 4.55462,11.8328 7.72945,19.0088 5.13659,11.6102 9.7517,24.9507 10.48829,30.3175 0.74968,5.4621 -6.92437,54.5117 -13.63108,87.1244 l -1.23721,6.0162 h 3.47477 c 6.72296,0 9.33616,6.4914 10.12214,25.1442 0.41021,9.7352 0.17182,13.9759 -1.11629,19.8574 -1.97337,9.0104 -8.5904,29.8284 -10.94301,34.428 -2.33938,4.5738 -7.08178,9.1703 -10.87738,10.5428 -2.93873,1.0626 -3.21665,1.5172 -3.63292,5.9418 -3.19167,33.9255 -4.05946,36.5269 -16.58149,49.7068 -3.39215,3.5704 -5.63537,5.3537 -5.35235,4.2551 3.01693,-11.7109 16.95526,-82.2571 16.81417,-85.1016 -0.10314,-2.0796 0.2785,-5.193 0.8481,-6.9189 1.40903,-4.2694 0.71788,-4.5326 -2.93693,-1.1186 -2.99948,2.8021 -3.58276,2.9432 -18.3324,4.4369 -8.37889,0.8486 -22.0426,1.58 -30.36379,1.6254 -16.49245,0.09 -14.14956,0.6382 -27.42213,-6.4172 -3.38854,-1.8012 -5.30843,-2.0106 -18.43902,-2.0106 -14.02263,0 -14.92253,0.116 -20.80299,2.6823 -11.980978,5.2285 -16.571869,6.3008 -26.97522,6.3008 -12.577916,0 -39.07307,-3.3809 -45.094118,-5.7541 l -4.659161,-1.8365 0.692825,2.1405 c 0.381054,1.1772 0.609584,3.8553 0.507829,5.951 -0.157147,3.2371 8.475868,45.3562 16.371578,79.8743 l 2.2711,9.9287 10.825283,10.4785 c 17.872605,17.2999 35.008723,29.1391 49.369444,34.109 6.96331,2.4098 8.6924,2.6173 21.74859,2.6098 10.87557,-0.01 15.49565,-0.4025 19.80797,-1.6986 16.34712,-4.913 30.18997,-16.2305 49.75011,-40.674 l 5.14358,-6.4277 0.59812,9.3118 c 0.32897,5.1216 0.66114,15.4818 0.73815,23.0229 0.22844,22.367 1.52177,36.4129 3.63364,39.4624 0.99656,1.439 2.11956,3.1482 2.49557,3.7984 0.54483,0.942 -17.01523,1.1819 -86.48183,1.1819 H 36.268835 Z m -7.948814,-173.1164 c 0,-0.1704 -1.112629,-3.0426 -2.472502,-6.3827 -1.359882,-3.3401 -2.861094,-7.0894 -3.336027,-8.3317 -1.564962,-4.0935 -1.705005,-1.5504 -0.256538,4.6586 1.457592,6.2482 3.499812,10.3656 5.141272,10.3656 0.508085,0 0.923795,-0.1394 0.923795,-0.3098 z m 191.914612,-5.1615 c 1.54864,-5.5762 1.04488,-6.741 -0.90531,-2.0934 -1.99101,4.7448 -2.352,7.0155 -0.9806,6.1679 0.50082,-0.3095 1.34947,-2.143 1.88591,-4.0745 z"
         id="path4755" />
      <path
         style="display:inline;fill:#b96734;stroke-width:0.945591"
         d="m 37.445092,1780.4505 c 0,-0.2712 1.110701,-2.1714 2.468219,-4.2228 2.373461,-3.5865 2.498676,-4.4662 3.261446,-22.9104 0.436276,-10.5492 0.814882,-25.8378 0.841349,-33.9746 l 0.04812,-14.7941 9.692303,9.6583 c 10.249283,10.2133 20.35619,18.5981 31.374772,26.029 15.295829,10.3153 24.669849,13.2855 41.929369,13.2855 19.34086,0 29.13448,-2.9871 41.77655,-12.7421 6.44714,-4.9748 20.42596,-19.391 27.82224,-28.6927 3.02669,-3.8065 5.61803,-6.7851 5.75854,-6.6192 0.14049,0.166 0.53382,12.0034 0.87406,26.3054 0.82678,34.7551 1.2327,39.2592 3.9947,44.3255 1.2407,2.2758 2.25582,4.297 2.25582,4.4916 0,0.1945 -5.74447,0.3536 -12.76547,0.3536 -11.54412,0 -12.76123,-0.1582 -12.72107,-1.6547 0.0244,-0.9101 2.28092,-14.3139 5.01443,-29.7861 2.7335,-15.4723 4.73472,-28.0993 4.44715,-28.06 -0.28758,0.04 -3.19933,3.2173 -6.47056,7.0626 -13.26378,15.5911 -37.52347,33.8065 -61.09418,45.8726 l -12.82586,6.5656 H 75.286055 c -20.812531,0 -37.840963,-0.2218 -37.840963,-0.493 z m 1.43292,-82.9025 c -6.497578,-7.2268 -9.807193,-12.3641 -11.923509,-18.5078 -2.212585,-6.4232 -4.63886,-22.6982 -4.63886,-31.1168 0,-5.0609 -0.254716,-5.9839 -1.654784,-5.9962 -1.280404,-0.011 -1.366497,-0.1971 -0.380537,-0.8219 1.391976,-0.8822 0.989682,-10.0069 -0.966045,-21.9114 -0.863853,-5.2583 -0.78395,-6.6537 0.526064,-9.1869 1.137563,-2.1999 1.978752,-2.8244 3.191952,-2.3698 1.437914,0.5389 1.483449,0.4159 0.358196,-0.9677 -1.588564,-1.9531 -2.382772,-1.5144 -3.903214,2.1562 -0.650888,1.5714 -1.501649,2.8571 -1.890581,2.8571 -0.747239,0 -1.79231,-5.168 -2.007746,-9.9287 -0.08053,-1.7793 -0.427027,-0.8981 -0.929566,2.364 -0.740302,4.8055 -0.546842,8.1288 0.736232,12.6474 0.913395,3.2168 -1.526573,0.6538 -3.972244,-4.1725 -2.719401,-5.3666 -2.8607148,-7.93 -0.951584,-17.2615 1.189739,-5.8152 1.206706,-7.5096 0.115598,-11.5436 l -1.2788121,-4.7279 -1.7067373,3.7823 c -2.8578147,6.3333 -2.1528921,18.2516 1.7482461,29.558 1.7480523,5.0662 3.5111193,9.9559 3.9179293,10.866 0.471441,1.0547 0.33833,1.6548 -0.36708,1.6548 -1.553944,0 -8.9532109,-16.1667 -11.0359611,-24.1126 -1.25554668,-4.7899 -1.73424628,-10.016 -1.73228318,-18.9118 0.00236,-10.6045 0.2847598,-12.9095 2.05655358,-16.7842 1.1296119,-2.4704 2.4577582,-4.4916 2.951435,-4.4916 1.0545897,0 1.9888873,2.1563 2.1845411,5.0418 0.07646,1.1276 0.4323356,-0.5029 0.7908297,-3.6234 0.4461938,-3.8838 0.2737213,-6.4192 -0.546749,-8.0375 -1.0661611,-2.1028 -2.0977606,-15.0157 -6.65826168,-83.3433 l -0.6083382,-9.1144 7.77260048,-14.9982 c 4.2749303,-8.2489 10.0779573,-18.4666 12.8956153,-22.7059 5.442344,-8.1882 7.903111,-10.1862 22.608321,-18.3554 4.153885,-2.3076 10.057935,-6.6086 13.120117,-9.5579 l 5.567593,-5.362 -0.572956,4.1801 c -0.315125,2.2991 -0.374725,4.1801 -0.132448,4.1801 0.242272,0 2.589546,-1.3223 5.21616,-2.9385 7.788208,-4.7921 19.319967,-9.2106 29.593137,-11.3387 7.857714,-1.6279 13.718364,-2.0473 31.850964,-2.2795 16.36565,-0.2095 23.39623,-0.6549 26.67973,-1.69 l 4.45836,-1.4056 -1.55126,2.0566 c -0.8532,1.1311 -3.03436,3.2125 -4.84703,4.6254 -1.81267,1.4128 -2.84654,2.5689 -2.2975,2.5689 1.77482,0 13.00335,-3.6889 19.95819,-6.5569 6.41435,-2.6451 8.49302,-2.6692 5.35183,-0.062 -1.98986,1.6515 -1.76452,4.1212 0.56901,6.2362 1.70259,1.5432 3.7928,1.8455 14.58553,2.1097 l 12.59814,0.3083 -0.51055,3.1461 c -0.42076,2.5929 -0.13271,3.3483 1.63785,4.2959 2.6577,1.4223 13.70475,1.4043 17.47343,-0.029 l 2.78893,-1.0603 -2.34979,2.6343 c -1.29239,1.4489 -2.98807,3.1648 -3.76818,3.8133 -1.72724,1.4358 -0.92921,1.5457 2.30242,0.3171 2.69671,-1.0253 2.88583,-0.7592 1.41433,1.9904 -0.72381,1.3523 -0.71393,2.2477 0.0348,3.1497 1.44337,1.7392 4.07654,0.8528 7.22289,-2.4313 l 2.65423,-2.7704 2.08256,6.4142 c 1.14541,3.5277 4.63126,12.1748 7.74634,19.2158 12.22261,27.6265 12.26596,28.634 3.43508,79.8415 -2.3319,13.522 -5.30539,29.4788 -6.60776,35.4597 -1.38,6.3374 -2.33404,13.6512 -2.28669,17.5303 0.0658,5.3927 -0.29262,7.1314 -1.88835,9.16 -1.71636,2.182 -2.14324,4.9126 -3.32035,21.2389 -1.57726,21.8762 -1.27859,19.2135 -2.15156,19.1822 -0.39006,-0.014 -1.71584,-1.6585 -2.94617,-3.6546 l -2.23696,-3.6292 -4.14578,2.317 c -2.2802,1.2745 -4.1458,2.6152 -4.1458,2.9793 0,0.3641 -0.74465,0.7103 -1.65478,0.7693 -0.91013,0.059 -4.20788,0.5626 -7.32833,1.1194 -16.54373,2.9518 -47.37053,4.0013 -54.52927,1.8565 -6.02438,-1.8049 -9.69769,-6.2753 -16.03802,-19.518 -3.16005,-6.6002 -6.4064,-12.745 -7.21409,-13.6551 -1.07969,-1.2166 -2.91928,-1.6548 -6.94741,-1.6548 -5.10178,0 -5.64487,0.2177 -7.89096,3.1624 -1.32666,1.7393 -2.4121,3.4736 -2.4121,3.8541 0,0.3804 -2.07713,4.8635 -4.61585,9.9625 -9.052406,18.1816 -9.701656,18.5174 -35.571756,18.3972 -18.785217,-0.087 -34.144331,-1.8451 -41.856454,-4.7904 -4.513881,-1.7239 -5.577802,-1.3751 -4.119182,1.3504 0.541379,1.0116 0.753731,3.282 0.471897,5.0453 -0.329812,2.0636 1.375825,11.7992 4.78605,27.3186 2.914159,13.2619 7.015942,31.9247 9.115058,41.4728 2.099117,9.5481 3.633659,17.5431 3.410103,17.7667 -0.223566,0.2236 -2.423436,-1.8369 -4.888609,-4.5787 z m 157.916048,-86.8137 c 10.53594,-1.8011 21.57733,-4.9353 23.77614,-6.7491 1.89027,-1.5591 3.24521,-9.4611 2.40926,-14.0509 l -0.77501,-4.2552 -0.62195,5.7097 c -0.34208,3.1403 -1.36178,7.3954 -2.26599,9.4559 l -1.64402,3.7462 -0.64311,-6.6767 c -0.39852,-4.1375 -1.60115,-8.7019 -3.16218,-12.0016 -2.59672,-5.4891 -9.69993,-14.158 -13.08556,-15.9699 -1.05563,-0.5649 -0.3673,0.5248 1.52963,2.4218 1.89692,1.8969 3.44895,3.7875 3.44895,4.2014 0,1.1946 -8.58908,4.6786 -13.02356,5.2826 -4.0071,0.5458 -4.03598,0.5287 -3.49917,-2.0647 0.51973,-2.5109 0.48666,-2.4972 -0.83052,0.3447 -0.7545,1.6277 -1.78084,3.2123 -2.28077,3.5214 -1.42775,0.8824 -15.7674,1.0506 -17.14194,0.2011 -0.67893,-0.4196 -1.81401,-2.0948 -2.52242,-3.7225 -0.70839,-1.6279 -1.30465,-2.3097 -1.325,-1.5154 -0.0204,0.7944 0.62539,2.3901 1.43499,3.546 l 1.47201,2.1016 h -6.78854 c -6.23514,0 -6.68274,-0.1291 -5.49076,-1.5836 1.18542,-1.4463 1.0824,-1.4433 -1.19,0.035 l -2.48776,1.6185 -0.6673,-4.4499 c -0.40288,-2.6866 -0.95622,-3.9823 -1.39648,-3.2699 -0.44209,0.7153 -0.9444,-0.4246 -1.27578,-2.8952 -0.35615,-2.6553 -0.15594,-4.3235 0.57469,-4.788 0.7024,-0.4467 0.35359,-0.7185 -0.93376,-0.7276 -5.06954,-0.036 -11.77354,9.6926 -11.8878,17.2506 -0.10003,6.6175 7.68019,21.2429 13.2374,24.8842 5.34764,3.5039 27.78325,3.6943 47.05631,0.3995 z m -107.591861,0.8404 c 5.678585,-0.9889 6.284671,-1.3495 9.850704,-5.8608 5.590707,-7.0728 9.313187,-14.9847 9.302247,-19.7715 -0.01,-4.412 -3.37809,-12.5535 -6.23948,-15.0827 -0.98384,-0.8696 -3.065352,-1.8368 -4.625575,-2.1493 -2.578873,-0.5166 -2.633545,-0.4795 -0.601369,0.4085 1.711709,0.7479 2.102401,1.473 1.667694,3.095 -0.312233,1.1649 -0.573521,3.1006 -0.580624,4.3015 -0.0075,1.2124 -0.43342,1.9235 -0.958494,1.5989 -0.820839,-0.5073 -1.283055,1.2997 -1.227343,4.7981 0.01013,0.6349 -3.212531,1.0975 -8.597754,1.2341 -6.907812,0.1752 -8.379813,-0.017 -7.431933,-0.9683 0.650095,-0.6529 1.181987,-1.5744 1.181987,-2.0482 0,-0.4736 -0.794779,0.1203 -1.766176,1.32 -1.617782,1.9978 -2.426552,2.1634 -9.62629,1.9703 -4.32306,-0.116 -8.315334,-0.5772 -8.871719,-1.0249 -0.556379,-0.4477 -3.351942,-1.1244 -6.212351,-1.5037 -4.880619,-0.6471 -9.320091,-2.3002 -12.067939,-4.4938 -0.961136,-0.7673 -0.961136,-1.2436 0,-2.4452 0.656505,-0.8208 -0.175511,-0.5325 -1.848923,0.6408 -4.082748,2.8626 -9.541728,14.0507 -10.448313,21.4139 l -0.696247,5.6547 -2.598738,-6.6237 c -1.429308,-3.6431 -2.598738,-7.3579 -2.598738,-8.2552 0,-0.8972 -0.425517,-1.6313 -0.945591,-1.6313 -1.894196,0 -0.155961,12.0482 2.484492,17.2207 1.798428,3.5231 9.891766,5.9634 28.719997,8.6597 5.67935,0.8134 29.218908,0.5032 34.736476,-0.4576 z m -75.474133,-28.1364 c -0.981661,-8.0996 -1.502887,-9.8388 -3.499174,-11.6757 -2.0833674,-1.9171 -2.2348321,-1.947 -1.3543812,-0.2674 1.5377152,2.9336 3.8660632,11.7663 4.5574042,17.2886 0.34399,2.7478 0.810879,4.8105 1.037532,4.5839 0.226654,-0.2267 -0.106968,-4.6948 -0.741381,-9.9294 z m 208.985034,-6.0907 c -0.40467,-4.0622 -1.41581,-8.4237 -2.24699,-9.6923 -1.37584,-2.0998 -2.08102,-2.2915 -7.87215,-2.1394 l -6.36094,0.167 6.53947,0.5422 c 6.44564,0.5344 6.55655,0.5897 7.72919,3.8517 0.65434,1.8203 1.22208,5.296 1.26164,7.7238 0.0641,3.9319 0.88367,7.9563 1.46836,7.21 0.11945,-0.1524 -0.11391,-3.6008 -0.51858,-7.663 z m -199.718919,0.5434 c -0.217348,-1.4374 -0.400986,-0.4858 -0.408086,2.1145 -0.0071,2.6004 0.170731,3.7765 0.395179,2.6135 0.224447,-1.1631 0.230256,-3.2907 0.01291,-4.728 z m 129.784009,-6.3958 c 0,-0.52 -0.41248,-0.3073 -0.91663,0.4728 -0.50415,0.7801 -0.91663,1.8439 -0.91663,2.364 0,0.5201 0.41248,0.3073 0.91663,-0.4728 0.50415,-0.7801 0.91663,-1.8439 0.91663,-2.364 z m -127.018091,-4.2928 c 0.445884,-0.4444 3.576554,-0.9612 6.957041,-1.1485 l 6.146339,-0.3406 -6.329122,-0.1822 c -5.580667,-0.1606 -6.503186,0.066 -7.801119,1.9193 -0.809602,1.156 -1.428447,3.1771 -1.375212,4.4916 0.08195,2.0236 0.211353,1.9055 0.844081,-0.7707 0.411008,-1.7385 1.112108,-3.5245 1.557992,-3.9689 z m 134.355681,3.2487 c -0.31422,-0.3142 -1.12979,-0.3478 -1.81238,-0.075 -0.75433,0.3019 -0.53027,0.526 0.57129,0.5714 0.9968,0.041 1.5553,-0.1825 1.24109,-0.4967 z m 22.95027,-2.6993 c 14.51515,0.048 10.09276,-1.1422 -6.61914,-1.7808 -6.75167,-0.258 -10.19806,-0.1403 -8.03752,0.2745 2.78441,0.5346 3.15864,0.7792 1.41839,0.9268 -1.30019,0.1104 -3.21501,0.5862 -4.25516,1.0575 -1.25612,0.5692 -0.62106,0.6262 1.89118,0.1699 2.0803,-0.3777 9.10131,-0.6693 15.60225,-0.6479 z m 14.87335,0.8081 c -0.31421,-0.3142 -1.12979,-0.3477 -1.81238,-0.075 -0.75433,0.3019 -0.53027,0.526 0.5713,0.5714 0.9968,0.04 1.55529,-0.1825 1.24108,-0.4967 z m -35.75514,-1.911 c 0.70355,-0.6329 -5.98755,-0.1524 -8.90431,0.6394 -1.86538,0.5064 -0.894,0.5895 2.83676,0.2425 3.12046,-0.2901 5.85085,-0.687 6.06755,-0.8819 z m -98.953831,-0.029 c -0.640192,-0.259 -1.916741,-0.2748 -2.836772,-0.035 -0.920032,0.2397 -0.396229,0.4517 1.163994,0.4709 1.560224,0.019 2.312975,-0.1768 1.672778,-0.4358 z m 9.437915,-0.01 c -0.650095,-0.2623 -1.713884,-0.2623 -2.36398,0 -0.65009,0.2623 -0.118198,0.477 1.181987,0.477 1.300191,0 1.832083,-0.2147 1.181993,-0.477 z m 63.118176,-2.9021 c 5.8147,-3.2236 12.58074,-4.6574 27.89492,-5.9114 l 10.4015,-0.8516 -11.34709,0.4301 c -6.2409,0.2365 -12.51726,0.6868 -13.94746,1.0006 -2.56007,0.5616 -2.60015,0.4991 -2.5859,-4.0313 0.008,-2.531 0.3271,-5.0697 0.70919,-5.6416 0.3821,-0.5719 3.09223,-1.2807 6.02251,-1.5751 5.35888,-0.5386 17.24078,-3.4995 16.60287,-4.1374 -0.18824,-0.1883 -3.67203,0.5094 -7.74175,1.5502 -8.88428,2.2723 -14.45103,2.4077 -17.28807,0.4205 -2.96926,-2.0797 -2.64225,-3.6572 1.74475,-8.4166 3.29928,-3.5792 4.74507,-4.3752 10.1651,-5.596 10.58493,-2.3842 27.17367,-4.3728 36.4771,-4.3728 8.54032,0 8.94093,0.098 12.74309,3.1065 4.40405,3.4849 8.95854,8.7271 11.0258,12.6904 0.758,1.4531 1.38079,1.9803 1.38399,1.1714 0.009,-2.0728 -9.71832,-13.6245 -13.20689,-15.6852 l -2.9021,-1.7144 0.58675,-6.6398 c 0.32271,-3.652 0.86356,-11.5153 1.20188,-17.4742 0.59591,-10.4957 0.68897,-10.8572 2.9791,-11.5706 2.05783,-0.6412 1.98838,-0.6845 -0.53621,-0.3347 -14.31344,1.9828 -19.39531,2.3603 -23.02925,1.711 -5.44561,-0.973 -5.91195,-2.5847 -0.78323,-2.707 4.34292,-0.1034 13.9472,-3.7878 13.9472,-5.3505 0,-0.6397 -3.37817,-0.6795 -10.1651,-0.1199 -19.92009,1.6427 -39.00561,0.4155 -39.00561,-2.5077 0,-0.5001 3.08498,-0.9158 6.85553,-0.9237 8.23169,-0.017 10.83761,-1.1276 6.33276,-2.6981 -4.82179,-1.6808 -9.64901,-1.2898 -22.99518,1.8625 -13.27728,3.136 -13.25945,3.1358 -31.32631,0.3929 -20.263618,-3.0763 -44.705253,-2.8159 -56.308681,0.6001 -4.372675,1.2873 -12.246637,7.0238 -12.246637,8.9221 0,0.8151 1.230308,2.7122 2.734015,4.216 2.495518,2.4955 2.78849,3.4995 3.358596,11.5107 0.851845,11.9702 2.349093,27.232 2.92509,29.8161 0.260832,1.1702 1.210781,2.1575 2.111002,2.1941 1.387995,0.057 1.355013,0.1766 -0.216937,0.7913 -1.135929,0.4442 2.342474,0.9772 8.983109,1.3765 12.784661,0.7689 28.738409,2.9633 35.541718,4.8889 3.462251,0.9799 5.826635,2.4558 8.273915,5.1647 5.54766,6.1405 4.10766,9.338 -4.312537,9.576 -3.87637,0.1095 -3.802321,0.156 1.477338,0.9267 3.057039,0.4463 7.477779,1.9363 9.823879,3.3112 6.13796,3.5971 8.40439,4.1428 15.82235,3.8096 5.25667,-0.2361 7.68965,-0.8908 11.81989,-3.1805 z m -95.923836,-71.38 c -1.882954,-2.6883 -1.852109,-3.5477 0.182783,-5.0924 2.635209,-2.0005 3.073169,-1.5817 3.073169,2.9388 0,4.6883 -1.011839,5.3576 -3.255952,2.1536 z m 45.807529,65.0343 c -2.860414,-0.6454 -8.392119,-2.079 -12.29268,-3.1858 -12.448775,-3.5323 -16.425588,-3.5817 -25.058149,-0.3116 l -7.564725,2.8656 15.129448,-0.139 15.129452,-0.139 -12.29268,-0.5162 -12.292676,-0.5161 5.135975,-1.6548 c 6.452671,-2.079 8.038927,-2.0214 18.50379,0.6722 7.723961,1.988 8.160822,2.2161 4.727954,2.469 -2.502459,0.1844 -1.222566,0.4814 3.782363,0.8776 11.594111,0.9177 12.728906,0.8502 7.091928,-0.4219 z m -54.651893,-3.1404 c 2.448484,-4.1449 9.392873,-11.6732 12.535978,-13.5899 1.580649,-0.9639 2.316536,-1.7541 1.635314,-1.7561 -1.656032,-0.01 -10.683009,8.6058 -13.92211,13.2798 -2.131541,3.0759 -3.142822,3.7373 -5.713816,3.7373 -2.913484,0 -3.148863,-0.2389 -3.494801,-3.546 l -0.370919,-3.5459 -0.158957,4.0187 -0.158956,4.0188 h 4.051278 c 3.422925,0 4.291024,-0.4059 5.596989,-2.6167 z m 181.65397,1.9103 c -6.8599,-0.1613 -18.34882,-0.1617 -25.53095,0 -7.18212,0.1608 -1.56948,0.2929 12.47254,0.2934 14.04203,4e-4 19.9183,-0.1311 13.05841,-0.2925 z m 11.70598,-7.5676 c -0.23785,-0.9101 -0.43245,-0.1654 -0.43245,1.6549 0,1.8202 0.1946,2.5648 0.43245,1.6547 0.23783,-0.9101 0.23783,-2.3994 0,-3.3096 z m -7.74376,-2.1275 c 0.33888,-0.5483 -0.58094,-0.9456 -2.18928,-0.9456 -1.52553,0 -4.59563,-0.6428 -6.82244,-1.4285 -2.22682,-0.7856 -4.22099,-1.2562 -4.4315,-1.0457 -0.21051,0.2104 1.45156,1.0385 3.69347,1.8401 7.98476,2.8546 8.87286,2.9985 9.74975,1.5797 z m -193.663581,-4.4736 c -0.239749,-0.92 -0.451674,-0.3962 -0.470944,1.164 -0.01927,1.5603 0.176887,2.313 0.435906,1.6728 0.259019,-0.6402 0.274786,-1.9167 0.03503,-2.8368 z m 199.426081,-5.2141 c -0.80648,-2.7329 -2.53319,-6.2455 -3.83714,-7.8057 -2.21603,-2.6516 -2.18845,-2.4973 0.42236,2.3639 1.53624,2.8604 3.10169,7.1156 3.47875,9.4559 0.37706,2.3404 0.84684,3.5126 1.04396,2.6051 0.19712,-0.9076 -0.30146,-3.8862 -1.10793,-6.6192 z m -40.88466,3.9547 c 3.5661,-0.6136 8.45953,-0.875 10.87429,-0.581 3.60806,0.4392 3.96919,0.3594 2.0265,-0.4478 -3.01776,-1.254 -14.30145,-0.4044 -19.85741,1.4951 -2.34033,0.8002 -3.19137,1.2735 -1.89118,1.0521 1.30019,-0.2216 5.2817,-0.9047 8.8478,-1.5184 z M 28.530547,1526.7976 c 1.419237,-2.181 1.439775,-2.385 0.132288,-1.3138 -1.694583,1.3884 -5.432016,10.5998 -5.35075,13.1876 0.02797,0.8907 0.835539,-0.8357 1.7946,-3.8363 0.959066,-3.0007 2.499802,-6.6176 3.423862,-8.0375 z m 188.576763,-7.008 c 0,-0.3935 -0.63583,-0.4713 -1.41296,-0.1731 -0.77712,0.2982 -1.20843,0.8731 -0.95847,1.2776 0.24997,0.4044 -0.42661,1.9555 -1.50352,3.4469 -1.35745,1.8798 -1.06347,1.7073 0.95849,-0.5623 1.60404,-1.8006 2.91646,-3.5957 2.91646,-3.9891 z m -182.105453,3.8657 c -0.984918,-1.0883 -2.646557,-2.3856 -3.692522,-2.883 -1.045974,-0.4972 -0.428532,0.3932 1.372089,1.9788 3.782373,3.3308 4.916344,3.7727 2.320433,0.9042 z m 0.07773,-7.2992 c -1.299364,-3.1975 -2.362444,-5.9953 -2.362444,-6.217 0,-0.2216 0.95741,-0.2181 2.127579,0.01 2.020367,0.3903 2.013445,0.361 -0.137282,-0.5816 -1.245673,-0.5459 -2.484113,-0.7733 -2.752084,-0.5054 -0.267961,0.268 0.691832,3.4924 2.132893,7.1655 1.441061,3.6729 2.785162,6.5131 2.986903,6.3113 0.201742,-0.2016 -0.696276,-2.983 -1.995603,-6.1806 z m 181.032023,-1.443 c -0.23245,-0.2073 -1.44984,0.95 -2.70531,2.5717 l -2.28267,2.9485 2.70532,-2.5717 c 1.48792,-1.4144 2.51512,-2.7413 2.28266,-2.9485 z m 0.0303,-6.3477 c -0.63537,-1.5338 -1.5532,-2.7887 -2.03967,-2.7887 -0.48647,0 -0.22208,0.9457 0.58752,2.1016 0.80959,1.1559 1.50559,2.9643 1.54665,4.0187 0.0426,1.0938 0.28637,1.3889 0.56762,0.6872 0.27112,-0.6766 -0.0269,-2.485 -0.66217,-4.0188 z m -175.623604,2.2585 c -0.650094,-0.2622 -1.713883,-0.2622 -2.363977,0 -0.650093,0.2624 -0.118199,0.477 1.181989,0.477 1.300187,0 1.832081,-0.2146 1.181988,-0.477 z m 0.559676,-4.1016 c -2.117243,-2.8637 -3.367863,-3.8369 -2.126435,-1.6548 0.880222,1.5472 3.41657,4.4915 3.869196,4.4915 0.195009,0 -0.589235,-1.2765 -1.742761,-2.8367 z m -3.517417,-6.3118 c -1.1147,-1.917 -1.383882,-1.3034 -0.471406,1.0745 0.324281,0.845 0.788802,1.3373 1.032264,1.0938 0.243461,-0.2434 -0.0085,-1.2192 -0.560858,-2.1683 z m 173.804615,-1.8533 c 2.42596,-3.084 2.42561,-3.3895 -0.008,-6.1504 l -1.96695,-2.2324 1.49415,2.338 c 1.98224,3.1017 1.9165,3.5073 -1.00789,6.2176 -1.37572,1.2753 -2.04487,2.3187 -1.4866,2.3187 0.55827,0 1.89695,-1.1211 2.97485,-2.4915 z m -174.392839,-1.2908 c 0.321425,-0.5201 0.133782,-0.9456 -0.416986,-0.9456 -0.550769,0 -1.0014,0.4255 -1.0014,0.9456 0,0.52 0.187643,0.9455 0.416987,0.9455 0.229343,0 0.679974,-0.4255 1.001399,-0.9455 z m 4.944654,0.3743 c -0.31422,-0.3143 -1.129792,-0.3478 -1.812385,-0.075 -0.754326,0.302 -0.530269,0.5259 0.571297,0.5713 0.996804,0.04 1.555298,-0.1824 1.241088,-0.4965 z m 162.313075,202.4548 c 2.25083,-9.6945 11.02112,-51.8025 14.86158,-71.3537 1.06853,-5.4398 1.72034,-10.9716 1.44848,-12.2927 -0.51481,-2.5019 1.94696,-10.4398 3.2377,-10.4398 0.407,0 1.68236,1.5247 2.83412,3.3883 1.98619,3.2138 2.04038,3.8109 1.05143,11.5835 -2.12964,16.738 -2.19098,20.0087 -0.37644,20.075 1.32168,0.049 1.25615,0.2153 -0.33735,0.8596 -1.79648,0.7265 -2.03433,1.8255 -2.59639,11.9964 -0.71178,12.8801 -3.38076,25.1264 -6.87552,31.5474 -2.85909,5.253 -13.90163,17.453 -13.24761,14.636 z m 30.141,-77.1614 c 0.28451,-1.2475 1.87441,-6.0978 3.53311,-10.7785 2.49964,-7.0537 3.04147,-10.0478 3.16577,-17.4934 0.12147,-7.2762 -0.1952,-9.6119 -1.6666,-12.2927 l -1.81658,-3.3095 -1.18531,4.5962 c -0.97309,3.7732 -0.94707,5.7203 0.14536,10.8743 1.84869,8.7219 1.68974,13.2507 -0.61909,17.6391 -2.3044,4.38 -5.43448,7.9341 -4.15155,4.714 0.4144,-1.0402 0.82188,-7.6357 0.90551,-14.6567 0.13728,-11.5252 0.49864,-14.0517 3.71939,-26.0037 1.96202,-7.2811 4.12603,-13.8193 4.80889,-14.5295 3.4092,-3.5456 6.69476,10.2862 5.87819,24.7461 -0.63167,11.1856 -3.16903,21.0025 -7.935,30.7001 -3.52192,7.1662 -5.69571,9.8 -4.78209,5.7942 z m -128.07516,-16.6252 c 0.6826,-0.2731 1.49817,-0.2396 1.81239,0.075 0.31421,0.3143 -0.24429,0.5377 -1.24109,0.4967 -1.10157,-0.045 -1.32563,-0.2694 -0.5713,-0.5713 z m 32.15008,0 c 0.6826,-0.2731 1.49817,-0.2396 1.81239,0.075 0.31421,0.3143 -0.24429,0.5377 -1.24109,0.4967 -1.10156,-0.045 -1.32562,-0.2694 -0.5713,-0.5713 z m -28.36772,-0.9455 c 0.6826,-0.2732 1.49817,-0.2397 1.81239,0.075 0.31421,0.3142 -0.24428,0.5376 -1.24109,0.4966 -1.10156,-0.045 -1.32562,-0.2694 -0.5713,-0.5712 z m 23.58067,0.02 c 0.65009,-0.2623 1.71388,-0.2623 2.36398,0 0.65009,0.2623 0.1182,0.4769 -1.18199,0.4769 -1.30019,0 -1.83208,-0.2146 -1.18199,-0.4769 z m -13.21327,-1.0129 c 2.22406,-0.1998 5.62819,-0.197 7.56472,0.01 1.93653,0.2031 0.11684,0.3666 -4.04376,0.3633 -4.16059,0 -5.74503,-0.1698 -3.52096,-0.3695 z m 128.88637,-7.4229 c 0.0454,-1.1014 0.26944,-1.3256 0.57129,-0.5712 0.27316,0.6825 0.23957,1.4982 -0.0746,1.8123 -0.3142,0.3143 -0.5377,-0.2442 -0.49664,-1.2411 z m 1.23834,-15.9961 c 0.002,-6.761 0.15227,-9.4028 0.3347,-5.8706 0.18243,3.5321 0.18107,9.0638 -0.003,12.2927 -0.18409,3.2288 -0.33335,0.3389 -0.3317,-6.4221 z m -254.370281,0 c 0.0019,-6.2409 0.154907,-8.671 0.3400819,-5.4001 0.185175,3.2708 0.183646,8.377 -0.0034,11.3471 -0.1870399,2.97 -0.3385469,0.2939 -0.3366769,-5.947 z m 245.315271,-28.5409 c 0.68259,-0.2732 1.49817,-0.2397 1.81238,0.075 0.31421,0.3142 -0.24428,0.5376 -1.24109,0.4966 -1.10156,-0.045 -1.32562,-0.2694 -0.57129,-0.5712 z"
         id="path4749" />
      <path
         style="display:inline;fill:#b6501a;stroke-width:0.945591"
         d="m 37.445064,1780.2764 c 1.9e-5,-0.107 1.041776,-1.7296 2.315033,-3.6058 1.273247,-1.8762 2.535289,-5.1929 2.804527,-7.3703 0.707037,-5.7181 1.4496,-25.84 1.704162,-46.1793 l 0.22072,-17.6351 11.0903,10.6923 c 19.848827,19.1367 40.140892,32.663 53.848144,35.8942 7.91095,1.8649 28.44607,1.8754 37.20948,0.019 12.12706,-2.5687 25.48815,-12.1869 41.33282,-29.7538 3.99749,-4.432 8.89093,-10.1857 10.87429,-12.7861 l 3.60612,-4.728 0.61404,27.895 c 0.76916,34.941 1.17235,39.1816 4.1563,43.7132 1.27688,1.9392 2.32165,3.6413 2.32172,3.7824 8e-5,0.1411 -5.638,0.1739 -12.52907,0.073 -12.49607,-0.1835 -12.5284,-0.1897 -12.22319,-2.364 0.1683,-1.1989 2.40226,-14.154 4.96435,-28.7889 2.56208,-14.6349 4.65833,-27.305 4.65833,-28.1556 0,-0.8764 -2.39065,1.2297 -5.51708,4.8603 -16.00014,18.5812 -39.64213,36.4397 -64.82579,48.9678 l -10.51762,5.2322 -38.053808,0.2162 c -20.929585,0.1188 -38.053787,0.1286 -38.053778,0.021 z m 168.389816,-86.8788 c 0.0454,-1.1015 0.26943,-1.3256 0.57128,-0.5713 0.27316,0.6826 0.23957,1.4982 -0.0746,1.8124 -0.31421,0.3143 -0.5377,-0.2443 -0.49664,-1.2411 z m 0.94559,-4.7279 c 0.0454,-1.1016 0.26943,-1.3256 0.57129,-0.5713 0.27315,0.6826 0.23956,1.4982 -0.0746,1.8124 -0.31421,0.3142 -0.5377,-0.2444 -0.49664,-1.2411 z m -167.294897,-4.1764 c 0,-1.3002 0.21463,-1.8321 0.476947,-1.182 0.262316,0.6501 0.262316,1.7139 0,2.364 -0.262317,0.6501 -0.476947,0.1182 -0.476947,-1.182 z m 168.315127,0 c 0,-1.3002 0.21464,-1.8321 0.47695,-1.182 0.26232,0.6501 0.26232,1.7139 0,2.364 -0.26231,0.6501 -0.47695,0.1182 -0.47695,-1.182 z m -169.335363,-4.3339 c 0.04539,-1.1016 0.269437,-1.3257 0.571288,-0.5713 0.273153,0.6826 0.239566,1.4981 -0.07461,1.8124 -0.314219,0.3142 -0.5377,-0.2444 -0.496642,-1.2411 z m 170.206313,0 c 0.0454,-1.1016 0.26944,-1.3257 0.57129,-0.5713 0.27315,0.6826 0.23956,1.4981 -0.0746,1.8124 -0.31421,0.3142 -0.5377,-0.2444 -0.49664,-1.2411 z m 4.72795,-23.6398 c 0.0454,-1.1016 0.26944,-1.3256 0.57129,-0.5713 0.27315,0.6826 0.23956,1.4982 -0.0746,1.8124 -0.31421,0.3142 -0.5377,-0.2444 -0.49664,-1.2411 z m -180.607806,-2.8368 c 0.04539,-1.1016 0.269437,-1.3256 0.571288,-0.5713 0.273153,0.6826 0.239565,1.4982 -0.07461,1.8124 -0.31422,0.3143 -0.537701,-0.2443 -0.496643,-1.2411 z m 181.628046,-1.3396 c 0,-1.3002 0.21463,-1.832 0.47694,-1.182 0.26232,0.6501 0.26232,1.7139 0,2.364 -0.26231,0.6501 -0.47694,0.1182 -0.47694,-1.182 z m -182.573636,-3.3883 c 0.04539,-1.1016 0.269436,-1.3256 0.571288,-0.5713 0.273152,0.6826 0.239565,1.4982 -0.07461,1.8124 -0.31422,0.3142 -0.5377,-0.2444 -0.496643,-1.2411 z m 183.444576,-0.9456 c 0.0454,-1.1016 0.26944,-1.3256 0.57129,-0.5713 0.27315,0.6826 0.23956,1.4981 -0.0746,1.8124 -0.31421,0.3142 -0.53769,-0.2443 -0.49664,-1.2411 z m -184.390167,-2.8368 c 0.04539,-1.1016 0.269437,-1.3256 0.571288,-0.5713 0.273152,0.6826 0.239565,1.4982 -0.07461,1.8124 -0.314219,0.3142 -0.5377,-0.2443 -0.496642,-1.2411 z m 185.410407,-1.3396 c 0,-1.3002 0.21463,-1.8321 0.47694,-1.182 0.26232,0.6501 0.26232,1.7139 0,2.364 -0.26231,0.6501 -0.47694,0.1182 -0.47694,-1.182 z M 8.1590182,1616.3104 c -6.0770694,-12.6985 -7.87557228,-21.4802 -7.41749508,-36.2182 0.38275518,-12.3145 1.58651378,-17.4087 4.32447888,-18.3007 0.7202185,-0.2346 1.4571326,0.8568 1.8681739,2.767 0.6058987,2.8156 0.7459631,2.4942 1.3042012,-2.992 0.4433002,-4.3567 0.2580525,-6.8346 -0.6362049,-8.5103 -1.1381781,-2.1327 -2.3176112,-16.6529 -6.69291358,-82.3977 l -0.6065624,-9.1144 7.77260048,-14.9982 c 4.2749303,-8.2489 10.0779573,-18.4666 12.8956153,-22.7059 5.442344,-8.1882 7.903111,-10.1862 22.608321,-18.3554 4.153885,-2.3076 10.057935,-6.6086 13.120117,-9.5579 l 5.567593,-5.362 -0.572956,4.1801 c -0.315125,2.2991 -0.374725,4.1801 -0.132448,4.1801 0.242272,0 2.589546,-1.3223 5.21616,-2.9385 7.788208,-4.7921 19.319967,-9.2106 29.593137,-11.3387 7.857714,-1.6279 13.718364,-2.0473 31.850964,-2.2795 16.36565,-0.2095 23.39623,-0.6549 26.67973,-1.69 l 4.45836,-1.4056 -1.55126,2.0566 c -0.8532,1.1311 -3.03436,3.2125 -4.84703,4.6254 -1.81267,1.4128 -2.84654,2.5689 -2.2975,2.5689 1.77482,0 13.00335,-3.6889 19.95819,-6.5569 6.41435,-2.6451 8.49302,-2.6692 5.35183,-0.062 -1.98986,1.6515 -1.76452,4.1212 0.56901,6.2362 1.70259,1.5432 3.7928,1.8455 14.58553,2.1097 l 12.59814,0.3083 -0.51055,3.1461 c -0.42076,2.5929 -0.13271,3.3483 1.63785,4.2959 2.6577,1.4223 13.70475,1.4043 17.47343,-0.029 l 2.78893,-1.0603 -2.34979,2.6343 c -1.29239,1.4489 -2.98807,3.1648 -3.76818,3.8133 -1.72724,1.4358 -0.92921,1.5457 2.30242,0.3171 2.69671,-1.0253 2.88583,-0.7592 1.41433,1.9904 -0.72381,1.3523 -0.71393,2.2477 0.0348,3.1497 1.44337,1.7392 4.07654,0.8528 7.22289,-2.4313 l 2.65423,-2.7704 2.08256,6.4142 c 1.14541,3.5277 4.63126,12.1748 7.74634,19.2158 12.10243,27.3549 12.18138,28.898 3.93945,77.0047 -4.98958,29.1234 -8.17901,45.482 -9.23572,47.3702 -0.47941,0.8567 -0.66104,4.5013 -0.40362,8.0992 0.41823,5.8454 0.24096,6.7832 -1.66565,8.8127 -1.94931,2.075 -2.25322,3.8898 -3.5169,21.0008 -0.76076,10.3014 -1.59296,18.9395 -1.84932,19.1958 -0.25637,0.2563 -0.84276,-0.2069 -1.30311,-1.0295 -0.46034,-0.8226 -1.59859,-2.4099 -2.52944,-3.5273 l -1.69247,-2.0317 -4.41885,2.7825 c -2.71512,1.7096 -7.27241,3.3495 -11.81989,4.2532 -8.16115,1.6216 -25.28322,3.2911 -24.17614,2.3571 0.38505,-0.3248 6.02414,-1.4888 12.53132,-2.5866 15.91556,-2.6852 23.64904,-5.4784 25.45793,-9.1951 2.89721,-5.9526 2.04878,-30.7232 -1.19176,-34.7942 -0.81057,-1.0182 -4.04793,-1.5447 -11.98485,-1.949 -7.03744,-0.3585 -10.1371,-0.245 -8.78498,0.3219 2.15357,0.9027 8.20205,8.4823 7.40495,9.2794 -0.2462,0.2461 -1.96604,-0.8855 -3.82187,-2.515 -1.85582,-1.6294 -3.67855,-2.9605 -4.05052,-2.9579 -0.37196,0 0.41846,0.96 1.75648,2.1276 4.89138,4.2683 5.0516,5.0356 1.50861,7.2253 -3.48515,2.1539 -7.25098,2.6347 -7.25098,0.9257 0,-0.6777 -1.02964,-0.8579 -2.83677,-0.4965 -1.91659,0.3834 -2.83725,0.1916 -2.83824,-0.5909 -0.001,-0.6371 -0.74547,0.3309 -1.65478,2.1512 l -1.65332,3.3095 h -8.87087 -8.87086 l -1.76703,-3.2947 c -1.04077,-1.9407 -1.76703,-2.6208 -1.76703,-1.6549 0,1.2187 -0.7895,1.6416 -3.07317,1.6459 -1.69024,0 -4.29198,0.6415 -5.78163,1.4184 -1.48966,0.7769 -2.98859,1.4125 -3.33098,1.4125 -0.84592,0 -3.08436,-8.2582 -3.26793,-12.0562 -0.26365,-5.4549 -6.44701,-2.8793 -10.36359,4.3167 -4.26766,7.841 -4.24692,11.6641 0.11162,20.5819 4.44878,9.1024 8.58622,14.0884 12.86177,15.4995 1.72513,0.5693 8.61849,1.3846 15.31859,1.8117 l 12.18198,0.7765 -12.34342,0.1372 c -19.36262,0.2152 -21.72541,-1.5238 -31.93114,-23.5025 -2.2942,-4.9407 -4.97264,-9.6804 -5.9521,-10.5327 -2.59115,-2.2546 -7.43101,-3.016 -11.22091,-1.7652 -3.02468,0.9983 -3.80236,2.1297 -9.31223,13.5491 -8.93141,18.5105 -12.188643,21.5273 -23.059703,21.3576 l -5.467516,-0.085 7.091928,-1.2698 c 6.4789,-1.16 7.40352,-1.6185 10.696654,-5.3033 3.938477,-4.4069 9.550167,-14.0398 10.449837,-17.938 0.76785,-3.327 -1.42623,-11.3706 -4.21361,-15.4473 -2.35749,-3.448 -6.469031,-5.8144 -8.610907,-4.956 -0.79221,0.3175 -0.641016,0.5195 0.424739,0.5677 2.114842,0.095 2.127788,2.663 0.04669,9.2649 l -1.608072,5.1013 -7.870066,-0.1892 c -4.328537,-0.1041 -8.143745,0.084 -8.478231,0.4188 -0.334496,0.3345 -4.17445,0.6082 -8.533248,0.6082 -7.238776,0 -8.114793,-0.2047 -10.115928,-2.3639 -1.204972,-1.3002 -2.780339,-2.3342 -3.50081,-2.2975 -0.741044,0.038 -0.488615,0.4273 0.581227,0.8975 1.208914,0.5313 -0.155616,0.6384 -3.782364,0.2967 -3.822872,-0.3602 -6.965816,-1.353 -9.635218,-3.0437 l -3.961666,-2.5092 1.491925,-3.0806 c 0.820564,-1.6942 2.784339,-4.168 4.363948,-5.4971 l 2.872004,-2.4166 -11.276555,0.6528 c -8.310872,0.4812 -11.573008,1.027 -12.403724,2.0755 -3.694468,4.6629 -2.371506,31.7507 1.827586,37.4202 2.389536,3.2263 13.091938,5.8895 35.082283,8.7298 2.518023,0.3252 4.38112,0.7884 4.140221,1.0293 -0.703787,0.7038 -25.530371,-2.397 -31.37014,-3.9181 -2.93343,-0.764 -7.095182,-2.2404 -9.248338,-3.2806 -2.153148,-1.0404 -3.99603,-1.8915 -4.095287,-1.8915 -0.09926,0 -0.70923,1.2766 -1.355496,2.8368 -0.646265,1.5602 -1.493959,2.8368 -1.883762,2.8368 -0.389802,0 -1.04009,-2.6595 -1.445084,-5.91 l -0.736352,-5.9099 -0.849012,4.2551 c -0.466957,2.3404 -0.67854,6.2764 -0.470184,8.7468 0.208357,2.4703 0.237183,4.4915 0.06405,4.4915 -0.173124,0 -1.224432,-1.7831 -2.336242,-3.9624 -2.0501669,-4.0187 -2.1198014,-8.6947 -0.328236,-22.0413 0.283695,-2.1134 -0.08205,-5.66 -0.828913,-8.0375 l -1.3366321,-4.2552 -1.7345442,3.7824 c -1.1245127,2.452 -1.8443349,6.6091 -2.0467215,11.8198 -0.2840952,7.3145 0.02172,9.0159 3.3994831,18.9119 2.0414137,5.9808 3.5539517,11.0418 3.3611957,11.2466 -0.192757,0.2047 -2.059765,-3.1994 -4.1489067,-7.5647 z m 6.0906928,-31.0033 c -1.214486,-9.8335 -3.005932,-15.2303 -5.0556181,-15.2303 -0.4319011,0 -0.2288639,2.0212 0.4511935,4.4916 2.7117566,9.8506 4.0048626,15.0589 4.6019756,18.5356 1.281601,7.4622 1.283137,2.5725 0.0025,-7.7969 z m 74.912943,-3.5427 c -0.915917,-0.916 -9.165986,-1.0764 -9.165986,-0.1783 0,0.4309 2.198498,0.7834 4.885557,0.7834 2.687043,0 4.613251,-0.2723 4.280429,-0.6051 z m 63.615536,-10.2692 c 0,-0.52 -0.41248,-0.3073 -0.91663,0.4728 -0.50415,0.7801 -0.91663,1.8439 -0.91663,2.364 0,0.5201 0.41248,0.3073 0.91663,-0.4728 0.50415,-0.7801 0.91663,-1.8439 0.91663,-2.364 z m 7.33759,-1.0441 c -0.31422,-0.3142 -1.12979,-0.3478 -1.81238,-0.075 -0.75433,0.3019 -0.53027,0.526 0.57129,0.5714 0.9968,0.041 1.5553,-0.1825 1.24109,-0.4967 z m 22.95027,-2.6993 c 14.51515,0.048 10.09276,-1.1422 -6.61914,-1.7808 -6.75167,-0.258 -10.19806,-0.1403 -8.03752,0.2745 2.78441,0.5346 3.15864,0.7792 1.41839,0.9268 -1.30019,0.1104 -3.21501,0.5862 -4.25516,1.0575 -1.25612,0.5692 -0.62106,0.6262 1.89118,0.1699 2.0803,-0.3777 9.10131,-0.6693 15.60225,-0.6479 z m 14.87335,0.8081 c -0.31421,-0.3142 -1.12979,-0.3477 -1.81238,-0.075 -0.75433,0.3019 -0.53027,0.526 0.5713,0.5714 0.9968,0.04 1.55529,-0.1825 1.24108,-0.4967 z m -35.75514,-1.911 c 0.70355,-0.6329 -5.98755,-0.1524 -8.90431,0.6394 -1.86538,0.5064 -0.894,0.5895 2.83676,0.2425 3.12046,-0.2901 5.85085,-0.687 6.06755,-0.8819 z m -98.953831,-0.029 c -0.640192,-0.259 -1.916741,-0.2748 -2.836772,-0.035 -0.920032,0.2397 -0.396229,0.4517 1.163994,0.4709 1.560224,0.019 2.312975,-0.1768 1.672778,-0.4358 z m 9.437915,-0.01 c -0.650095,-0.2623 -1.713884,-0.2623 -2.36398,0 -0.65009,0.2623 -0.118198,0.477 1.181987,0.477 1.300191,0 1.832083,-0.2147 1.181993,-0.477 z m 62.702136,-2.5886 c 3.99627,-1.9578 9.31884,-3.6368 13.61157,-4.2938 8.94093,-1.3684 40.19543,-2.8446 60.8052,-2.8718 l 15.84689,-0.021 -0.5523,-5.4372 c -1.51472,-14.9113 -5.32497,-24.8217 -9.5432,-24.8217 -2.77489,0 -2.76219,-0.3527 0.15028,-4.1712 2.84138,-3.7252 3.00767,-4.7572 0.51581,-3.201 -2.75872,1.7229 -3.36946,0.2554 -1.0964,-2.6343 3.74471,-4.7606 2.22683,-9.9726 -3.4309,-11.7806 -5.13263,-1.6403 -5.50311,-2.3774 -2.1812,-4.3397 3.36877,-1.99 4.47625,-4.9377 2.93624,-7.8152 -1.45087,-2.7111 -4.89932,-3.3633 -11.14715,-2.1086 -6.2635,1.2579 -20.72486,1.4189 -21.45415,0.239 -0.28034,-0.4537 1.29023,-1.0307 3.49016,-1.2825 4.71584,-0.5395 13.92858,-4.3217 13.92858,-5.718 0,-0.6607 -3.87212,-0.7013 -12.05628,-0.1265 -19.43844,1.3656 -35.83878,0.3851 -37.45573,-2.2391 -0.23163,-0.3759 2.77511,-0.7508 6.68164,-0.8332 8.02143,-0.169 10.6886,-1.5228 6.34271,-3.2192 -3.72558,-1.4542 -14.9665,-0.532 -24.97573,2.0489 -9.74869,2.5137 -14.63654,2.6027 -26.94933,0.4906 -5.20075,-0.8921 -16.723836,-1.8745 -25.606847,-2.1833 -23.823136,-0.828 -35.035852,1.1869 -42.712081,7.6751 -3.855504,3.2589 -3.855504,4.8228 0,8.8949 l 3.073169,3.2458 -2.836772,-0.5342 c -1.560224,-0.2938 -3.578171,-0.821 -4.484321,-1.1716 -1.544301,-0.5975 -1.556952,-0.3806 -0.201808,3.4603 0.795166,2.2537 2.281218,5.5136 3.302343,7.2443 1.021115,1.7307 1.856582,3.2781 1.856582,3.4385 0,0.1605 -1.808442,-0.058 -4.01876,-0.4857 -2.210318,-0.4276 -4.337897,-0.7959 -4.727953,-0.8185 -1.28362,-0.075 -0.744152,2.7471 1.653214,8.647 1.299326,3.1977 2.143984,6.0324 1.877016,6.2994 -0.266969,0.2669 -1.968322,-0.952 -3.780793,-2.7087 l -3.295402,-3.194 v 2.935 c 0,1.6142 -1.066531,4.9955 -2.370075,7.5137 -2.469875,4.7717 -4.642854,13.9567 -5.501482,23.2543 l -0.502114,5.4372 h 4.901595 c 4.520339,0 4.997815,-0.2174 6.138594,-2.7947 0.680344,-1.5369 3.591722,-5.1492 6.469722,-8.0272 7.415283,-7.4153 9.379474,-7.8436 27.089664,-5.9083 7.899761,0.8633 18.192836,2.2707 22.873506,3.1275 7.978307,1.4604 8.761539,1.8171 12.529083,5.7057 2.21031,2.2813 4.01876,4.9764 4.01876,5.9891 0,4.9711 -8.508574,4.831 -28.884963,-0.4756 -15.209899,-3.9611 -20.025914,-4.0007 -29.741659,-0.2443 l -6.146339,2.3765 18.91181,0.672 c 10.401498,0.3697 24.50082,1.2352 31.331843,1.9234 10.975558,1.1056 13.223418,1.6469 19.327858,4.6543 5.8231,2.8687 7.8908,3.403 13.16767,3.403 5.20183,0 7.369,-0.5433 12.82223,-3.2149 z m 9.88032,-18.7581 c -3.43401,-1.8099 -3.32222,-3.6058 0.50258,-8.0742 2.54308,-2.971 4.6494,-4.3373 8.30375,-5.3863 10.84724,-3.1137 40.87884,-6.25 46.45209,-4.8512 4.84646,1.2164 17.65512,15.1152 16.15961,17.535 -1.03099,1.6681 -3.73437,1.1698 -15.3677,-2.8332 -12.87031,-4.4286 -12.86128,-4.4287 -31.94614,0.5481 -15.28585,3.9862 -20.97839,4.7092 -24.10419,3.0618 z m 92.71914,68.3066 c 3.18445,-9.3313 3.7089,-12.0148 3.6961,-18.9118 -0.0114,-6.1743 -0.4768,-9.024 -2.00735,-12.2928 l -1.99244,-4.2551 -1.34608,5.0947 c -1.17252,4.4377 -1.16444,6.1521 0.0627,13.296 1.5102,8.7917 1.08209,13.0376 -1.7505,17.3608 -0.91715,1.3997 -1.72499,2.5446 -1.79519,2.5443 -0.0702,-4e-4 -0.11725,-5.6385 -0.10455,-12.5291 0.0217,-11.7934 0.25959,-13.3857 4.05441,-27.142 2.21722,-8.0374 4.21774,-14.7999 4.44562,-15.0278 0.22785,-0.2277 1.02546,0.093 1.77244,0.7129 3.75488,3.1163 4.99719,23.7989 2.19938,36.6165 -1.66108,7.6098 -6.60058,20.0976 -9.21173,23.2888 -1.24448,1.5208 -0.68644,-0.9504 1.97717,-8.7554 z m -16.86089,4.7279 c 0,-1.8203 0.1946,-2.5649 0.43245,-1.6548 0.23783,0.9102 0.23783,2.3994 0,3.3096 -0.23785,0.9101 -0.43245,0.1655 -0.43245,-1.6548 z m -195.737258,-0.9454 c 0,-1.8203 0.194602,-2.5649 0.432447,-1.6548 0.237835,0.9101 0.237835,2.3995 0,3.3096 -0.237845,0.9101 -0.432447,0.1655 -0.432447,-1.6548 z m 43.986982,-3.463 c 0.650095,-0.2624 1.713884,-0.2624 2.363979,0 0.65009,0.2623 0.118198,0.477 -1.181992,0.477 -1.300186,0 -1.832077,-0.2147 -1.181987,-0.477 z m 152.505456,-4.5745 c 0,-0.5201 0.41247,-1.5839 0.91662,-2.364 0.50416,-0.7801 0.91663,-0.9928 0.91663,-0.4728 0,0.5201 -0.41247,1.5839 -0.91663,2.364 -0.50415,0.7801 -0.91662,0.9928 -0.91662,0.4728 z"
         id="path4747" />
      <path
         style="fill:#ffffff;fill-opacity:1;stroke:none;stroke-width:0.886492px;stroke-linecap:butt;stroke-linejoin:miter;stroke-opacity:1"
         d="m 94.290047,1582.6775 c 0,0 -12.528931,-9.3948 -16.575549,-9.0949 -4.046618,0.2997 -19.183981,-0.2999 -19.183981,-0.2999 0,0 -7.49374,0 -10.940862,3.4472 -3.447122,3.4471 1.348873,3.4471 1.348873,3.4471 0,0 7.943365,4.1965 21.581978,4.3464 13.638614,0.1498 23.769541,-1.8459 23.769541,-1.8459 z"
         id="path877" />
      <path
         style="fill:#ffffff;fill-opacity:1;stroke:none;stroke-width:0.886492px;stroke-linecap:butt;stroke-linejoin:miter;stroke-opacity:1"
         d="m 152.87173,1583.4288 c 0,0 6.22482,-6.3242 13.71857,-8.7223 7.49374,-2.3979 22.6311,-0.8991 22.6311,-0.8991 0,0 8.91755,0.8991 9.74186,3.8218 0.82431,2.9225 -0.89925,2.7726 -0.89925,2.7726 0,0 -7.94337,4.2714 -20.60779,4.1216 -12.66443,-0.1499 -24.58449,-1.0946 -24.58449,-1.0946 z"
         id="path871" />
      <path
         style="display:inline;fill:#242424;stroke-width:0.945591"
         d="m 154.22553,1613.5786 c -1.10256,-0.471 2.64338,-0.5856 8.98312,-0.2747 5.98086,0.2933 11.05159,0.6867 11.26829,0.8745 0.846,0.7327 -18.47164,0.1607 -20.25141,-0.5998 z m -110.918513,-1.547 c -9.245105,-1.4263 -18.180456,-4.292 -20.445751,-6.5574 -1.16199,-1.162 -1.642769,-0.8642 -3.545329,2.1958 l -2.201042,3.54 -0.72406,-7.5647 c -2.284609,-23.8688 -3.352466,-29.7736 -5.940627,-32.8494 -2.2943499,-2.7267 -2.4767218,-3.5311 -2.0817198,-9.1821 0.2818796,-4.0326 0.00361,-7.0185 -0.7974957,-8.5576 -1.0977113,-2.109 -2.3463072,-17.5526 -6.66173388,-82.3977 l -0.6065624,-9.1144 7.77260048,-14.9982 c 4.2749303,-8.2489 10.0779573,-18.4666 12.8956153,-22.7059 5.442344,-8.1882 7.903111,-10.1862 22.608321,-18.3554 4.153885,-2.3076 10.057935,-6.6086 13.120117,-9.5579 l 5.567593,-5.362 -0.572956,4.1801 c -0.315125,2.2991 -0.374725,4.1801 -0.132448,4.1801 0.242272,0 2.589546,-1.3223 5.21616,-2.9385 7.788208,-4.7921 19.319967,-9.2106 29.593137,-11.3387 7.857714,-1.6279 13.718364,-2.0473 31.850964,-2.2795 16.36565,-0.2095 23.39623,-0.6549 26.67973,-1.69 l 4.45836,-1.4056 -1.55126,2.0566 c -0.8532,1.1311 -3.03436,3.2125 -4.84703,4.6254 -1.81267,1.4128 -2.84654,2.5689 -2.2975,2.5689 1.77482,0 13.00335,-3.6889 19.95819,-6.5569 6.41435,-2.6451 8.49302,-2.6692 5.35183,-0.062 -1.98986,1.6515 -1.76452,4.1212 0.56901,6.2362 1.70259,1.5432 3.7928,1.8455 14.58553,2.1097 l 12.59814,0.3083 -0.51055,3.1461 c -0.42076,2.5929 -0.13271,3.3483 1.63785,4.2959 2.6577,1.4223 13.70475,1.4043 17.47343,-0.029 l 2.78893,-1.0603 -2.34979,2.6343 c -1.29239,1.4489 -2.98807,3.1648 -3.76818,3.8133 -1.72724,1.4358 -0.92921,1.5457 2.30242,0.3171 2.69671,-1.0253 2.88583,-0.7592 1.41433,1.9904 -0.72381,1.3523 -0.71393,2.2477 0.0348,3.1497 1.44337,1.7392 4.07654,0.8528 7.22289,-2.4313 l 2.65423,-2.7704 2.08256,6.4142 c 1.14541,3.5277 4.63126,12.1748 7.74634,19.2158 12.10243,27.3549 12.18138,28.898 3.93945,77.0047 -5.55816,32.442 -8.16957,45.3448 -9.8255,48.547 -1.05136,2.0331 -1.18091,3.0711 -0.4404,3.5288 1.69212,1.0457 0.50224,10.0392 -1.74748,13.2079 -1.70919,2.4074 -2.13048,5.0644 -3.01183,18.9951 -0.56357,8.908 -1.02468,17.0991 -1.02468,18.2026 0,2.9616 -1.13385,2.4168 -3.7306,-1.7928 l -2.31222,-3.7483 -2.04711,1.9232 c -3.20889,3.0146 -10.61327,5.3897 -22.01463,7.0618 -15.0519,2.2073 -17.05422,1.3199 -2.70186,-1.1975 6.66001,-1.1681 14.52636,-3.083 17.48075,-4.2553 7.64623,-3.0339 8.2337,-4.5691 8.2337,-21.5157 0,-17.0201 -0.84981,-19.2632 -7.6513,-20.1954 -7.19787,-0.9865 -43.0046,-0.694 -53.5386,0.4375 -13.66381,1.4676 -18.50584,3.2397 -21.69099,7.9381 -3.29343,4.8581 -4.97635,10.8788 -4.29564,15.3677 0.48393,3.1912 0.21072,2.9052 -2.74408,-2.8737 -3.46076,-6.7684 -5.45842,-8.251 -11.08274,-8.225 -4.88252,0.023 -7.38577,1.9775 -10.50858,8.2066 l -2.93604,5.8565 -0.0144,-5.3837 c -0.011,-4.161 -0.64696,-6.5383 -2.79977,-10.4672 -3.45367,-6.3032 -5.04364,-7.3594 -13.806379,-9.1706 -8.023721,-1.6587 -50.562194,-2.9614 -60.821417,-1.8628 -6.216407,0.6658 -6.414725,0.7704 -7.818087,4.1291 -1.130293,2.7052 -1.337812,5.991 -0.965152,15.2817 0.50993,12.713 1.648716,18.0043 4.485388,20.841 2.321595,2.3216 12.300772,5.2609 23.617458,6.9565 4.940711,0.7402 7.281048,1.3459 5.200749,1.3459 -2.0803,0 -7.739991,-0.6105 -12.577093,-1.3569 z m 93.637783,-48.3991 c 8.34914,-4.1776 15.6207,-4.9123 54.97869,-5.5551 l 33.9156,-0.5538 -0.63833,-7.3178 c -1.22471,-14.0397 -5.12929,-23.6261 -9.62305,-23.6261 h -2.32094 l 2.39807,-3.5291 c 2.87065,-4.2246 3.03332,-5.3878 0.56904,-4.0689 -2.90217,1.5532 -3.1804,1.1622 -1.07638,-1.5127 2.45455,-3.1204 2.6153,-8.9173 0.30503,-10.9993 -0.91013,-0.8202 -2.82897,-1.7843 -4.2641,-2.1425 -3.7255,-0.9298 -3.8458,-1.749 -0.60834,-4.1424 3.66605,-2.7105 3.53395,-6.9942 -0.30366,-9.8467 -2.29255,-1.704 -2.96826,-1.7873 -6.14634,-0.7569 -5.16321,1.6738 -21.29623,2.5137 -23.51717,1.2241 -1.54397,-0.8963 -1.27729,-1.0502 1.86209,-1.0749 3.87066,-0.03 14.7749,-4.3906 14.7749,-5.9079 0,-0.5528 -7.29344,-0.6377 -19.14821,-0.223 -14.50757,0.5076 -20.52321,0.3659 -24.82175,-0.5845 l -5.67355,-1.2544 6.77834,-0.6539 c 8.14029,-0.7853 9.83931,-1.5622 7.36804,-3.3693 -2.5721,-1.8807 -12.89251,-1.5638 -22.1839,0.6814 -14.86099,3.5909 -15.61153,3.6385 -26.83025,1.6993 -6.72896,-1.1632 -17.506806,-2.0212 -29.905189,-2.3807 -23.867086,-0.6921 -32.114308,0.5006 -40.096133,5.7986 -2.813473,1.8675 -5.333273,3.9632 -5.599551,4.657 -0.566504,1.4763 2.67152,7.1822 4.075798,7.1822 0.527724,0 0.959491,0.3912 0.959491,0.8694 0,0.516 -1.381357,0.4879 -3.398235,-0.069 -1.869036,-0.5161 -3.589368,-0.7472 -3.822967,-0.5135 -0.698044,0.698 3.203538,10.1754 5.04309,12.2502 1.687936,1.9038 1.666774,1.9183 -2.077046,1.4135 -2.080299,-0.2805 -4.420636,-0.6619 -5.200748,-0.8476 -1.998951,-0.4757 -1.44352,3.1328 1.457571,9.4697 1.293605,2.8256 2.215802,5.2736 2.049341,5.4401 -0.166472,0.1665 -1.874653,-0.9931 -3.79597,-2.5769 l -3.493305,-2.8794 v 2.7865 c 0,1.5326 -1.048452,4.6624 -2.329897,6.9552 -2.693659,4.8194 -4.839756,13.4661 -5.771947,23.2552 l -0.652831,6.8556 5.086531,-0.025 c 4.987479,-0.024 5.119777,-0.097 6.7937,-3.729 0.938943,-2.0375 4.324885,-6.1281 7.524319,-9.0902 l 5.817141,-5.3857 13.278685,0.538 c 15.321656,0.6207 34.622155,3.7115 38.497136,6.1649 2.910176,1.8426 7.404416,7.4458 7.404416,9.2315 0,0.616 -1.27069,1.6462 -2.82375,2.2895 -3.549744,1.4704 -8.039525,0.8604 -24.818479,-3.3717 -16.878233,-4.2572 -20.239186,-4.2886 -31.20099,-0.292 l -8.766514,3.1963 23.166971,0.5951 c 30.852803,0.7926 40.349832,1.9372 48.118472,5.7998 10.17286,5.0579 18.47387,5.0365 28.68706,-0.074 z m 6.8642,-19.4535 c -1.74023,-1.2724 -1.717,-1.4301 0.76308,-5.1778 1.40688,-2.1258 3.58756,-4.5399 4.84594,-5.3644 4.7292,-3.0987 40.78702,-7.9029 49.50396,-6.5957 3.78089,0.567 5.22776,1.5065 10.32413,6.7043 5.45581,5.5642 8.00578,10.0255 6.55793,11.4734 -0.66965,0.6696 -7.33455,-1.1903 -17.60854,-4.9137 -8.53691,-3.0939 -11.30292,-2.9187 -29.92294,1.8952 -13.48927,3.4874 -21.51275,4.1365 -24.46356,1.9787 z m -55.057885,68.0669 c 6.354756,-1.3651 9.639619,-4.095 14.633455,-12.1609 1.85633,-2.9983 3.5803,-5.2464 3.83103,-4.9956 0.62452,0.6245 -6.74619,12.9067 -8.933301,14.886 -1.879328,1.7007 -8.691998,3.5893 -12.612086,3.4963 -1.300185,-0.031 0.08624,-0.5825 3.080902,-1.2258 z m 57.245065,-3.1635 c -2.45947,-2.6244 -8.31848,-12.4628 -8.31848,-13.9682 0,-0.4475 1.5168,1.7145 3.37066,4.8043 1.85387,3.0899 4.70319,7.0009 6.33184,8.6912 1.62864,1.6902 2.53179,3.0731 2.007,3.0731 -0.5248,0 -2.05075,-1.1702 -3.39102,-2.6004 z m -83.02014,-25.4779 c -2.388828,-0.8538 -3.782363,-3.3302 -3.782363,-6.7217 0,-3.1992 -0.03662,-3.2272 -3.393792,-2.5974 -5.718639,1.0729 -8.052564,2.4993 -7.408626,4.5282 0.544007,1.714 0.432551,1.7297 -2.290438,0.3215 -3.936711,-2.0357 -4.198148,-2.786 -1.961675,-5.6292 4.508604,-5.7317 26.020858,-7.718 38.694295,-3.5727 3.380484,1.1058 7.270986,2.0159 8.645543,2.0226 2.843186,0.014 3.647136,1.4579 3.647136,6.5511 0,4.7714 -0.70027,5.1828 -4.039859,2.3727 -2.598539,-2.1865 -9.369865,-6.0748 -10.579124,-6.0748 -0.280756,0 -0.510469,1.1819 -0.510469,2.6264 0,1.4445 -0.662406,3.572 -1.472,4.7279 -1.282645,1.8313 -2.286182,2.092 -7.801122,2.027 -3.481019,-0.04 -6.967397,-0.3028 -7.747506,-0.5816 z m 105.55328,-1.3507 c -0.84606,-1.2079 -1.53831,-3.3781 -1.53831,-4.8226 0,-1.4445 -0.22971,-2.6264 -0.51047,-2.6264 -1.22888,0 -8.00118,3.9055 -10.67806,6.1581 l -2.93075,2.4659 -0.57892,-2.3065 c -0.86085,-3.43 -0.14945,-7.4502 1.45993,-8.2502 0.78011,-0.3879 5.46078,-1.7007 10.4015,-2.9176 15.0637,-3.7101 31.68347,-2.5351 37.87892,2.678 4.16382,3.5036 3.78478,4.4067 -3.2277,7.691 -0.44463,0.2083 -0.54489,-0.4516 -0.22281,-1.4665 0.65148,-2.0526 -1.62907,-3.4935 -7.15846,-4.5225 -3.0965,-0.5764 -3.16085,-0.5199 -3.33672,2.9236 -0.27171,5.3206 -2.04401,6.4665 -10.60306,6.8552 -6.8806,0.3124 -7.52796,0.178 -8.95509,-1.8595 z"
         id="path4745" />
      <path
         style="display:inline;fill:#010101;stroke-width:0.945591"
         d="m 195.35873,1611.9674 c 6.60634,-1.1275 18.84155,-4.2501 21.8763,-5.5831 4.17832,-1.8353 5.29531,-4.1106 6.59085,-13.4252 1.77242,-12.7432 -0.78994,-26.7734 -5.15219,-28.2108 -1.12155,-0.3696 -13.31534,-0.6689 -27.09732,-0.6652 -32.07305,0.01 -45.19809,1.7592 -49.71203,6.6299 -3.31378,3.5756 -6.15184,10.0544 -6.32685,14.4432 l -0.15498,3.8865 -1.79827,-3.573 c -3.30569,-6.5681 -5.08208,-7.8281 -11.03599,-7.8281 -6.00994,0 -7.96373,1.3987 -11.30275,8.0914 l -1.86016,3.7284 -0.0377,-3.8677 c -0.0493,-5.0577 -4.79179,-14.5736 -8.27177,-16.5975 -3.996848,-2.3244 -10.957965,-3.5014 -27.410512,-4.6345 -14.389582,-0.9911 -46.291642,-0.4218 -48.257524,0.861 -3.780275,2.4668 -5.155891,17.0974 -2.723688,28.9681 2.009019,9.8054 3.538097,11.7961 11.049859,14.3854 3.341272,1.1517 5.316961,2.1092 4.390424,2.1276 -2.634633,0.052 -13.261292,-3.7467 -15.105413,-5.4003 -0.91332,-0.819 -1.799071,-1.3143 -1.968336,-1.1007 -0.169265,0.2134 -0.994225,1.4067 -1.833244,2.6517 l -1.52549,2.2635 -0.448986,-2.2635 c -0.246981,-1.245 -1.145214,-9.0719 -1.996114,-17.3931 -1.409326,-13.7822 -1.75897,-15.3509 -3.926553,-17.6163 -2.1495225,-2.2466 -2.3606442,-3.1604 -2.1847116,-9.4559 0.1327855,-4.7516 -0.2968084,-8.0876 -1.3501432,-10.4846 -0.8496929,-1.9336 -1.5448956,-5.6575 -1.5448956,-8.2753 0,-2.6179 -1.0450404,-18.6948 -2.322312,-35.7264 -1.2772707,-17.0318 -2.5591596,-34.1581 -2.8486408,-38.0587 -0.51350108,-6.9191 -0.49007598,-7.02 0.9611512,-4.1444 3.1933758,6.3277 7.9196824,5.9593 17.107846,-1.3335 5.86994,-4.659 9.926791,-12.1806 12.325244,-22.8516 l 1.656731,-7.3709 2.541615,2.7207 c 4.244312,4.5435 11.25945,3.264 32.514549,-5.931 36.608474,-15.8366 48.579224,-19.7901 59.439334,-19.6306 5.40348,0.079 5.57676,0.1468 2.49686,0.9717 -11.4441,3.0653 -20.28615,6.2109 -26.47654,9.4192 -7.243778,3.754 -16.229801,10.8647 -18.065911,14.2955 -0.991803,1.8531 -0.840942,1.8908 4.975584,1.2435 18.692997,-2.0802 43.519757,-8.8822 63.820757,-17.4856 5.90312,-2.5016 10.73296,-4.3934 10.73296,-4.2039 0,0.5962 -13.22157,9.2538 -25.99514,17.0219 -13.35932,8.1242 -13.62004,9.1843 -1.60174,6.5129 16.73573,-3.7201 40.40804,-13.7459 50.13583,-21.2338 l 5.04553,-3.8837 -1.73596,2.9606 c -4.25417,7.2555 -15.82556,19.0789 -27.26691,27.8607 -1.80415,1.3848 -1.76064,1.4247 0.94559,0.8663 7.75208,-1.5993 29.58906,-9.5732 39.24201,-14.3293 5.98086,-2.947 11.29981,-5.5431 11.81988,-5.7694 0.52008,-0.2263 -1.6909,2.1808 -4.91329,5.3492 -9.27956,9.1239 -10.72878,12.469 -5.40202,12.469 3.22645,0 8.34956,-2.2663 13.52305,-5.9821 l 4.35699,-3.1294 0.008,14.7208 c 0.008,13.5371 0.1972,15.1755 2.36397,20.373 1.79862,4.3144 2.98568,5.873 5.01584,6.586 5.58071,1.96 14.5799,-5.6922 19.53362,-16.6098 l 1.87782,-4.1386 0.0208,5.6804 c 0.0115,3.1243 -1.05332,13.3366 -2.36606,22.6942 -2.08924,14.8924 -3.97096,25.7776 -10.54215,60.9837 -0.82511,4.4207 -1.96182,8.6167 -2.52604,9.3245 -0.57822,0.7254 -0.9106,4.11 -0.76171,7.7566 0.2194,5.3741 -0.0758,6.9294 -1.74346,9.185 -1.743,2.3576 -2.17827,5.074 -3.30265,20.6112 -0.71228,9.8426 -1.32571,18.1008 -1.3632,18.3515 -0.0374,0.2508 -1.14726,-1.1321 -2.46621,-3.0731 -2.29673,-3.3802 -4.22094,-4.5666 -4.22094,-2.6027 0,2.5304 -20.27424,8.7305 -27.42213,8.386 l -2.36398,-0.114 z M 135.87996,1564.64 c 7.96161,-4.5247 20.20141,-5.8408 62.73668,-6.7462 l 27.37047,-0.5825 -0.25923,-5.6735 c -0.5978,-13.0832 -5.21249,-25.6065 -9.3802,-25.4558 -2.11091,0.077 -2.77237,-0.9522 -1.22673,-1.9075 0.46772,-0.289 1.76044,-2.068 2.8727,-3.9531 2.16322,-3.6663 2.34089,-3.5692 -2.75341,-1.5059 -0.88392,0.358 -0.62433,-0.4141 0.70919,-2.1094 4.0619,-5.1639 1.99283,-10.9823 -4.60874,-12.9602 l -3.807,-1.1406 2.35978,-1.4318 c 5.02494,-3.049 5.47093,-8.2008 0.96552,-11.1528 -2.01087,-1.3176 -3.23844,-1.3756 -9.14779,-0.4321 -9.99715,1.5959 -16.27142,1.944 -17.78397,0.9865 -1.00137,-0.634 -0.77405,-0.8481 0.91175,-0.859 2.64188,-0.017 13.35652,-4.6492 13.35652,-5.7742 0,-1.6596 -7.30356,-1.9948 -18.52715,-0.8504 -11.55942,1.1786 -23.83656,0.7688 -28.07527,-0.937 -1.59952,-0.6437 -0.79388,-0.8575 3.40381,-0.9032 5.33376,-0.059 9.15735,-1.2191 9.15735,-2.7804 0,-1.1134 -6.74688,-2.9531 -10.83046,-2.9531 -1.93551,0 -9.29624,1.3478 -16.35717,2.9953 l -12.83807,2.9952 -10.00965,-1.5779 c -27.528522,-4.3396 -50.988834,-4.531 -64.359835,-0.5249 -4.286059,1.2841 -12.651803,7.3659 -13.061991,9.4958 -0.158216,0.8216 0.834219,2.827 2.20542,4.4566 1.371201,1.6296 2.346067,2.9629 2.166386,2.9629 -0.179681,0 -1.70681,-0.3959 -3.393621,-0.8796 -2.791487,-0.8006 -3.06585,-0.6944 -3.054948,1.182 0.0066,1.1338 1.2235,4.45 2.704248,7.3692 l 2.692276,5.3078 -3.41345,-0.7937 c -1.877394,-0.4364 -3.945335,-0.8036 -4.595428,-0.816 -1.862019,-0.036 -1.37227,3.7841 1.191226,9.2908 1.29511,2.782 2.354738,5.3122 2.354738,5.6227 0,0.3103 -1.459736,-0.8505 -3.243867,-2.5798 l -3.243867,-3.144 -0.667426,3.6677 c -0.367088,2.0173 -1.639201,5.6078 -2.826929,7.9788 -2.442197,4.8754 -4.896186,15.8316 -5.282371,23.5839 l -0.259079,5.2007 5.265168,0.2797 c 5.031837,0.2672 5.315741,0.1575 6.406489,-2.4758 1.512359,-3.6512 10.640977,-13.1579 13.780782,-14.3518 3.712748,-1.4115 11.034201,-1.1572 27.622157,0.9598 19.299638,2.463 23.852325,3.7918 27.594312,8.0536 7.83451,8.923 -1.018868,10.4978 -23.539384,4.1874 -15.158722,-4.2477 -21.423973,-4.2386 -33.095669,0.048 l -8.983111,3.2992 8.03752,0.2103 c 17.477985,0.4572 48.106212,2.2667 54.371459,3.2123 3.784025,0.5711 8.396805,2.026 10.769465,3.3968 6.06215,3.5022 8.34365,4.0376 15.80052,3.7083 5.41324,-0.2392 7.70118,-0.8584 11.81988,-3.199 z m 9.12607,-20.1079 c -2.45216,-1.52 -2.03707,-3.3399 1.70708,-7.4842 2.80103,-3.1005 4.41796,-3.9613 9.6923,-5.1601 9.94145,-2.2595 27.84099,-4.3625 37.13169,-4.3625 h 8.48302 l 4.38307,4.0187 c 4.43277,4.0643 9.75853,10.7215 9.75853,12.1981 0,1.5832 -4.30388,0.7454 -15.06829,-2.9336 l -10.93545,-3.7374 -7.09193,1.2662 c -3.90056,0.6964 -11.1357,2.3738 -16.0781,3.7276 -10.62722,2.9107 -19.63544,3.9218 -21.98192,2.4672 z m -103.955873,66.5048 c 0.682593,-0.2732 1.498165,-0.2396 1.812385,0.075 0.31421,0.3142 -0.244284,0.5377 -1.241088,0.4966 -1.101566,-0.045 -1.325623,-0.2694 -0.571297,-0.5712 z m 55.40251,-1.4817 c 1.307687,-1.1701 3.232075,-3.1913 4.276443,-4.4915 1.04434,-1.3002 1.91297,-2.0461 1.93028,-1.6575 0.047,1.0547 -6.668357,8.2766 -7.696037,8.2766 -0.488556,0 0.181638,-0.9574 1.489314,-2.1276 z m 49.614733,-0.4728 c -1.17619,-1.4997 -1.14275,-1.5331 0.35702,-0.357 1.57511,1.2353 2.07602,2.0119 1.29776,2.0119 -0.19635,0 -0.941,-0.7447 -1.65478,-1.6549 z m -85.103163,-27.4221 c -1.180059,-1.5047 -1.145609,-1.5353 0.379873,-0.338 1.93678,1.5201 3.478537,0.6244 1.805285,-1.0489 -0.615419,-0.6153 -1.118946,-2.2607 -1.118946,-3.6563 0,-3.2692 -2.544895,-3.9854 -8.158434,-2.296 -4.81699,1.4497 -7.208303,3.1172 -6.383729,4.4513 0.311543,0.5041 -0.814447,0.2025 -2.502222,-0.6703 l -3.068678,-1.5869 2.842039,-2.842 c 5.604071,-5.6041 22.822736,-7.2216 36.713934,-3.4489 4.128535,1.1213 8.570208,2.1141 9.870398,2.2062 2.164473,0.1533 2.388553,0.5928 2.655135,5.2073 l 0.291155,5.0397 -3.127928,-2.3778 c -3.826862,-2.9092 -7.948579,-5.025 -11.401847,-5.853 -2.303637,-0.5524 -2.600376,-0.3568 -2.600376,1.714 0,1.2856 -0.493817,3.4213 -1.097377,4.7459 -1.017389,2.233 -1.560262,2.4085 -7.448936,2.4085 -4.924331,0 -6.643191,-0.3718 -7.649346,-1.6548 z m 16.388251,-0.1933 c 0.634811,-1.0165 1.286711,-1.7157 1.448654,-1.5537 0.560515,0.5604 -0.9015,3.4018 -1.750424,3.4018 -0.468839,0 -0.333047,-0.8317 0.30177,-1.8481 z m 91.510732,0.4068 c -0.65787,-0.7927 -1.01299,-1.6243 -0.78918,-1.8481 0.22382,-0.2238 0.92634,0.4248 1.56115,1.4413 1.37282,2.1982 0.91498,2.4395 -0.77197,0.4068 z m 2.14655,-1.1186 c -0.6501,-1.3997 -1.18199,-3.4792 -1.18199,-4.6209 0,-1.8569 -0.32659,-2.0023 -3.09542,-1.3778 -3.70119,0.8347 -6.69439,2.358 -10.9068,5.5505 l -3.12793,2.3705 0.29116,-5.1183 c 0.19683,-3.4602 0.6724,-5.0424 1.46796,-4.8837 0.64725,0.1291 5.26813,-0.8283 10.26862,-2.1276 15.52942,-4.0349 31.68942,-2.6882 37.50288,3.1253 l 2.84204,2.842 -2.93921,1.5199 c -2.36569,1.2233 -2.83979,1.2608 -2.42974,0.1923 0.77592,-2.022 -7.83393,-4.9938 -13.08932,-4.518 -1.10709,0.1003 -1.65479,0.9528 -1.65479,2.5759 0,1.3345 -0.44049,3.2492 -0.97886,4.2552 -1.10096,2.0572 -0.0219,2.447 1.79136,0.647 0.95472,-0.9477 1.06586,-0.854 0.56074,0.4728 -0.5192,1.3638 -1.81777,1.6535 -7.38435,1.6474 -6.40655,-0.01 -6.81523,-0.1384 -7.93635,-2.5525 z m 49.40711,-179.9391 c 0.94132,-1.0401 1.92425,-1.8912 2.18429,-1.8912 0.26004,0 -0.29738,0.8511 -1.2387,1.8912 -0.94133,1.0402 -1.92426,1.8912 -2.1843,1.8912 -0.26003,0 0.29738,-0.851 1.23871,-1.8912 z"
         id="path4743" />
    </g>
    <path
       style="display:none;fill:#f1eff5;fill-opacity:1;fill-rule:evenodd;stroke:none;stroke-width:1px;stroke-linecap:butt;stroke-linejoin:miter;stroke-opacity:1"
       d="m 607.85538,572.33829 -5.22136,161.862 42.351,0.5802 52.79371,-62.6563 20.30528,-81.8012 -4.06106,-30.748 z"
       id="path4761" />
  </g>
</svg>
