<?xml version="1.0" encoding="UTF-8" standalone="no"?>
<svg
   xmlns:dc="http://purl.org/dc/elements/1.1/"
   xmlns:cc="http://creativecommons.org/ns#"
   xmlns:rdf="http://www.w3.org/1999/02/22-rdf-syntax-ns#"
   xmlns:svg="http://www.w3.org/2000/svg"
   xmlns="http://www.w3.org/2000/svg"
   xmlns:sodipodi="http://sodipodi.sourceforge.net/DTD/sodipodi-0.dtd"
   xmlns:inkscape="http://www.inkscape.org/namespaces/inkscape"
   id="svg6599"
   viewBox="0 0 325.21276 311.21986"
   version="1.1"
   sodipodi:docname="microphone.svg"
   width="86.045876mm"
   height="82.34359mm"
   inkscape:version="1.0.2-2 (e86c870879, 2021-01-15)">
  <sodipodi:namedview
     pagecolor="#ffffff"
     bordercolor="#666666"
     borderopacity="1"
     objecttolerance="10"
     gridtolerance="10"
     guidetolerance="10"
     inkscape:pageopacity="0"
     inkscape:pageshadow="2"
     inkscape:window-width="1920"
     inkscape:window-height="1017"
     id="namedview59"
     showgrid="false"
     units="mm"
     inkscape:zoom="0.9951006"
     inkscape:cx="-206.05539"
     inkscape:cy="96.110761"
     inkscape:window-x="-8"
     inkscape:window-y="-8"
     inkscape:window-maximized="1"
     inkscape:current-layer="svg6599"
     inkscape:document-rotation="0" />
  <defs
     id="defs6601">
    <filter
       id="filter10006"
       color-interpolation-filters="sRGB">
      <feGaussianBlur
         id="feGaussianBlur10008"
         stdDeviation="1.2652113" />
    </filter>
    <filter
       id="filter5184"
       color-interpolation-filters="sRGB">
      <feGaussianBlur
         id="feGaussianBlur5186"
         stdDeviation="2.3536243" />
    </filter>
    <filter
       id="filter10101"
       color-interpolation-filters="sRGB">
      <feGaussianBlur
         id="feGaussianBlur10103"
         stdDeviation="4.9801895" />
    </filter>
    <linearGradient
       id="linearGradient4077"
       y2="998.23999"
       gradientUnits="userSpaceOnUse"
       x2="829.44"
       gradientTransform="matrix(-1.018,0,0,1.018,919.49,-899.06)"
       y1="998.23999"
       x1="819.89001">
      <stop
         id="stop10073"
         stop-color="#cbcbcb"
         offset="0" />
      <stop
         id="stop10075"
         stop-color="#868686"
         offset="1" />
    </linearGradient>
    <linearGradient
       id="linearGradient4079"
       y2="374.97"
       gradientUnits="userSpaceOnUse"
       x2="1257.6"
       gradientTransform="matrix(1.018,0,0,1.018,-1252.1,-294.1)"
       y1="384.48999"
       x1="1257.6">
      <stop
         id="stop10016"
         stop-color="#a0a0a0"
         offset="0" />
      <stop
         id="stop10027"
         stop-color="#c4c4c4"
         offset=".15578" />
      <stop
         id="stop10022"
         stop-color="#b8b8b8"
         offset=".31156" />
      <stop
         id="stop10025"
         stop-color="#ebebeb"
         offset=".94505" />
      <stop
         id="stop10018"
         stop-color="#b6b6b6"
         offset="1" />
    </linearGradient>
    <radialGradient
       id="radialGradient4081"
       gradientUnits="userSpaceOnUse"
       cy="357.89001"
       cx="286.07001"
       gradientTransform="matrix(0.26645,-0.15383,-0.15383,-0.26645,133.14,169.15)"
       r="60">
      <stop
         id="stop4812"
         stop-color="#f9f9f9"
         stop-opacity=".67254"
         offset="0" />
      <stop
         id="stop4814"
         stop-color="#f9f9f9"
         stop-opacity="0"
         offset="1" />
    </radialGradient>
    <radialGradient
       id="radialGradient4083"
       gradientUnits="userSpaceOnUse"
       cy="435.79999"
       cx="300.67999"
       gradientTransform="matrix(0.26645,-0.15383,-0.15383,-0.26645,133.14,169.15)"
       r="60">
      <stop
         id="stop4824-7"
         stop-color="#4d4d4d"
         offset="0" />
      <stop
         id="stop4826-8"
         stop-color="#4d4d4d"
         stop-opacity="0"
         offset="1" />
    </radialGradient>
    <linearGradient
       id="linearGradient4085"
       y2="455.22"
       spreadMethod="reflect"
       gradientUnits="userSpaceOnUse"
       x2="314.82999"
       gradientTransform="matrix(0.21625,-0.12485,-0.12485,-0.21625,120.98,154.41)"
       y1="379.72"
       x1="314.82999">
      <stop
         id="stop4056"
         stop-color="#6d674f"
         offset="0" />
      <stop
         id="stop4062"
         stop-color="#BBB"
         offset=".69708" />
      <stop
         id="stop4058"
         stop-color="#6d674f"
         offset="1" />
    </linearGradient>
    <linearGradient
       id="linearGradient4087"
       y2="360.72"
       spreadMethod="reflect"
       gradientUnits="userSpaceOnUse"
       x2="318.98999"
       gradientTransform="matrix(0.21625,-0.12485,-0.12485,-0.21625,129.9,148.39)"
       y1="465.22"
       x1="322.98999">
      <stop
         id="stop4900"
         stop-color="#6d674f"
         offset="0" />
      <stop
         id="stop4902-0"
         stop-color="#BBB"
         offset=".57397" />
      <stop
         id="stop4904-7"
         stop-color="#6d674f"
         offset="1" />
    </linearGradient>
    <linearGradient
       id="linearGradient4089"
       y2="964.72998"
       gradientUnits="userSpaceOnUse"
       x2="837.84003"
       gradientTransform="matrix(-1.018,0,0,1.018,919.74,-899.06)"
       y1="947.40002"
       x1="807.75">
      <stop
         id="stop10081"
         stop-color="#5a5a5a"
         offset="0" />
      <stop
         id="stop10083"
         stop-color="#1e1e1e"
         offset="1" />
    </linearGradient>
    <linearGradient
       id="linearGradient4091"
       y2="415.04999"
       gradientUnits="userSpaceOnUse"
       x2="155.72"
       gradientTransform="matrix(1,0,0,-1,-18,678.03)"
       y1="373.07999"
       x1="154.67">
      <stop
         id="stop9974"
         stop-color="#FFF"
         stop-opacity=".082353"
         offset="0" />
      <stop
         id="stop9976"
         stop-color="#FFF"
         stop-opacity=".88627"
         offset=".48605" />
      <stop
         id="stop9978"
         stop-color="#FFF"
         stop-opacity=".082353"
         offset="1" />
    </linearGradient>
  </defs>
  <g
     id="g4059"
     transform="matrix(1.91923,0,0,1.91923,0.08353585,-5.6855044e-5)">
    <path
       id="path6338"
       stroke="#575757"
       stroke-width="0.50901"
       fill="url(#linearGradient4077)"
       d="m 84.826,83.149 v 78.385 l -9.0161,0.3599 -0.19275,-79.465"
       style="fill:url(#linearGradient4077)" />
    <path
       id="path6340"
       style="color:#000000;text-indent:0;text-transform:none"
       d="m 16.156,96.809 1.8133,3.3085 c 0,0 -1.4472,0.78902 -2.9586,1.9406 -1.5114,1.15158 -2.856,2.8276 -2.9586,3.3404 -0.2579,1.2896 -2.3447,13.429 -4.2947,24.973 -1.95,11.544 -3.8175,22.682 -3.8175,22.682 L 0.2496,152.449 c 0,0 1.8671,-11.168 3.8175,-22.714 1.9505,-11.547 3.9286,-23.27 4.2947,-25.1 0.52152,-2.6076 2.5934,-4.2225 4.3584,-5.5672 1.765,-1.3447 3.4358,-2.2587 3.4358,-2.2587 z"
       stroke="#000000"
       stroke-width="0.50901"
       fill="#2f2f2f" />
    <rect
       id="rect6342"
       stroke-linejoin="round"
       ry="2.4226"
       transform="matrix(-0.856,0.51698,0.51698,0.856,0,0)"
       height="9.2358999"
       width="28.441999"
       stroke="#b6b6b6"
       stroke-linecap="square"
       y="87.778999"
       x="10.873"
       stroke-width="0.62404"
       fill="url(#linearGradient4079)"
       style="fill:url(#linearGradient4079)" />
    <path
       id="path6344"
       d="m 166.93,9.2329 c -5.0976,-8.8292 -16.388,-11.854 -25.217,-6.7568 -8.8292,5.0976 -11.854,16.387 -6.7568,25.217 5.0976,8.8292 16.388,11.854 25.217,6.7568 8.8292,-5.0976 11.854,-16.387 6.7568,-25.217 z"
       fill="#aea694" />
    <path
       id="path6346"
       d="m 166.93,9.2329 c -5.0976,-8.8292 -16.388,-11.854 -25.217,-6.7568 -8.8292,5.0976 -11.854,16.387 -6.7568,25.217 5.0976,8.8292 16.388,11.854 25.217,6.7568 8.8292,-5.0976 11.854,-16.387 6.7568,-25.217 z"
       fill="url(#radialGradient4081)"
       style="fill:url(#radialGradient4081)" />
    <path
       id="path6348"
       d="m 166.93,9.2329 c -5.0976,-8.8292 -16.388,-11.854 -25.217,-6.7568 -8.8292,5.0976 -11.854,16.387 -6.7568,25.217 5.0976,8.8292 16.388,11.854 25.217,6.7568 8.8292,-5.0976 11.854,-16.387 6.7568,-25.217 z"
       fill="url(#radialGradient4083)"
       style="fill:url(#radialGradient4083)" />
    <path
       id="path6350"
       opacity="0.63028"
       d="m 161.26,32.949 z m -0.86819,0.21293 z m 3.3673,-2.3766 z m -1.1234,0.50441 c -1.2738,0.51717 0.2252,-0.94614 0.19454,-0.17821 z m -7.6546,4.3924 z m 6.0584,-3.7862 c -1.5292,0.8806 1.0703,-1.4563 0.27891,-0.17046 l -0.27892,0.17047 z m -5.668,3.0111 c -1.1615,0.41447 -0.56429,-1.2803 0.29116,-0.24884 l -0.0744,0.10694 -0.21676,0.1419 h 1e-5 z m -2.0468,1.1367 c -0.63313,-0.0381 -2.1075,-1.484 -0.46557,-0.90421 0.84011,-0.18139 1.4544,-0.0838 0.3573,0.4982 -0.54874,0.091 0.0707,0.22432 0.10827,0.40601 z m 10.711,-6.184 c 0.17647,-0.89663 -1.1903,0.49574 -0.68741,-0.67796 0.49886,-0.57379 1.2105,0.17068 0.68741,0.67796 z m -12.556,7.1862 z m 7.9158,-4.6423 c -1.0798,0.27941 -2.5371,-2.626 -0.51246,-1.8396 0.88784,0.44159 -1.1487,0.41693 0.30075,0.75496 -0.0762,0.29622 -0.63737,1.1754 0.29989,0.45703 0.72356,-0.80456 0.44715,0.50328 -0.0882,0.62757 z m 3.0173,-1.8592 z m -10.11,5.7738 z m 13.056,-7.6007 c -1.2207,0.33772 -0.0174,-0.62036 -1e-5,0 z m 0.98578,-0.75836 z m -5.6422,3.1494 z m 1.0731,-0.9349 c -1.1909,-0.33534 1.3253,-1.3784 0.24795,-0.17919 z m -8.3323,4.5764 c -2.0221,-0.28131 1.3328,-1.5348 0.9163,-0.65776 -0.30744,0.21645 -0.59235,0.46525 -0.9163,0.65776 z m -3.7042,2.1206 c -0.11627,0.004 0.24126,-0.80512 -0.56735,-0.30155 -0.91482,-1.2562 0.65408,-0.23118 1.056,-0.47426 -0.83445,-1.0546 -0.45375,-1.8039 0.69619,-1.3136 -0.7412,-0.86898 1.5355,-0.9158 -0.1611,-1.0525 -1.3954,0.12426 0.93271,-1.0034 0.11106,-1.2272 -0.544,0.63902 -2.5375,1.6692 -2.4574,0.23823 0.50181,-0.34617 3.1009,-1.8506 1.165,-1.1631 -0.87465,0.40422 -2.3914,1.0215 -1.4866,1.7718 -0.59849,0.68597 -3.1367,1.4032 -2.827,-0.10276 1.4157,-0.97443 -0.57554,0.41169 -0.59985,-0.7893 -0.46101,2.0304 -2.0515,-1.2403 -2.025,-0.76285 -0.30313,0.70395 -0.47205,2.1846 0.58672,1.7274 -0.69559,-1.2063 2.3612,0.42297 0.53849,0.83311 -0.93047,0.20192 0.3366,2.1328 -0.87276,0.91255 -1.3893,-1.4356 -2.5706,-3.0554 -3.6478,-4.7312 0.90754,-0.82856 -1.8298,-0.65658 -1.6116,-2.084 -0.72548,-0.85644 0.53831,2.5784 -0.0873,2.387 -1.7092,-2.9605 -3.4185,-5.921 -5.1278,-8.8815 0.65531,0.70882 1.3205,0.97858 0.7324,-0.16534 -0.3333,-1.1921 -1.1707,-2.6434 -0.99294,-3.7703 1.1162,0.76458 -0.12208,-1.7988 0.067,-2.3788 -0.37256,-0.79568 0.28368,-2.8078 1.0908,-2.0564 0.24863,-0.97539 0.65797,-1.0777 0.43043,-2.0155 0.30832,-0.6858 1.4027,0.97189 0.81943,-0.42498 -0.31308,-1.4892 1.6717,-0.26014 0.96909,-1.5243 0.49578,-0.79357 1.3033,-1.1927 1.8686,-1.9564 0.49192,0.64919 1.4483,1.038 1.909,0.0163 0.79999,0.79202 1.4838,2.7916 -0.19622,2.9665 1.5285,0.3288 1.5199,-1.5456 2.8397,-1.9639 0.87167,-0.76412 1.8064,-1.0889 1.9536,0.37443 1.6071,3.9429 3.7595,7.6414 5.9182,11.303 0.30441,0.86544 0.40572,-0.64257 0.31801,-0.70045 -1.0173,-0.30449 -1.3474,-1.6968 -1.9597,-2.5423 -0.20658,-0.50524 -1.0844,-1.2734 -0.0738,-1.3018 0.77886,-0.27875 1.7722,-0.66247 1.4281,0.52636 1.544,-1.3747 -1.2174,-1.4766 -2.0438,-0.80745 -0.91861,-1.2622 -1.2828,-2.5521 -2.2152,-3.8573 -0.16665,-0.51732 -0.9378,-1.2992 0.0449,-1.3134 1.3645,-0.4181 0.0312,-0.55711 -0.55819,-0.28487 -0.75323,-0.55013 -0.49393,-2.4969 -0.66129,-2.4303 -0.97499,0.38453 -0.19064,-1.805 0.63565,-0.65622 0.80055,0.0465 -1.1063,-1.1554 0.33064,-0.67115 0.20778,-1.4001 -2.246,1.5198 -2.0115,-0.5665 -0.11131,-1.0213 -0.92621,-2.959 0.75843,-2.6595 -0.53435,1.3011 1.7738,-1.3297 1.6788,-0.17784 -1.6823,0.69191 1.3504,0.13152 0.66598,-0.47595 0.41015,-0.28749 1.2941,-1.0281 0.98162,-0.14425 1.0899,0.23761 2.525,-0.43981 3.3358,0.0402 -1.6254,0.28105 1.7986,0.35342 0.63962,1.3872 1.4835,-0.41384 2.7455,1.7835 1.5459,2.1671 0.75483,-0.10526 1.7432,-0.83895 2.1901,-0.46085 -1.1707,-0.37155 -2.0693,-1.3268 -2.7509,-2.1844 0.97745,0.2622 1.3911,0.044 0.23309,-0.32441 -1.3373,0.86119 -2.1915,-2.1132 -0.49213,-0.74978 -0.0181,0.72167 1.9933,-0.67568 1.4934,0.50342 -1.6866,-0.31579 2.4938,0.99559 0.61377,1.7738 0.41399,0.0242 1.5138,-0.67014 2.0312,-0.28973 -1.2386,-0.43212 -2.7179,-1.8191 -3.1676,-2.5682 0.97977,0.12006 1.36,-0.40176 0.19944,-0.34913 -0.56069,0.20851 -1.3474,1.0841 -1.6059,0.0683 1.1282,-0.38989 3.1497,-0.63068 2.7322,0.87595 1.3478,0.18775 0.31914,1.8152 1.6562,0.79021 1.2713,0.4711 0.31923,-0.50814 -0.33719,-0.51774 0.40211,-0.8746 2.893,-0.38251 1.0466,-0.39658 0.50391,0.68248 0.1984,0.90577 1.087,1.4211 0.20227,1.6266 -1.2685,-0.10215 -2.106,-0.11925 0.99127,0.17974 2.2616,2.0924 0.69534,2.0621 -0.51657,-0.7808 -2.091,-1.3467 -0.6108,-0.22601 1.3416,1.6172 -1.1735,2.1744 -1.7158,0.69146 0.84825,0.90078 0.64403,3.175 -0.94499,2.7774 -0.71822,-1.1391 -0.37153,-2.0445 0.92852,-1.4794 -1.1331,-0.25559 -1.9722,-1.1046 -2.3467,-2.198 -0.77513,-0.85486 1.5362,-0.25274 0.13506,-0.65539 -0.88358,-0.38178 -2.3508,1.0704 -0.74595,0.85138 2.223,0.75967 0.0386,4.1248 -1.0441,1.6505 0.003,0.56057 0.85937,2.2986 0.0662,2.9735 0.77152,0.38126 2.7864,-1.2226 0.83188,-1.0078 -0.32704,-1.3948 2.6677,-1.3851 1.8169,0.44777 0.93376,-0.0461 2.7523,-0.79654 2.3095,1.1968 1.2096,-0.38067 2.2202,-0.14938 1.9572,1.3665 0.96339,0.14402 2.2077,0.17537 1.7378,1.6308 0.63688,-0.27014 0.10645,-1.752 1.1049,-1.914 -0.89169,-0.80647 -2.9927,0.97159 -2.5675,-1.1382 -0.0732,-0.91451 1.4337,-0.34932 0.0951,-0.91885 -0.1982,-2.0873 2.4784,0.20279 1.4421,0.84992 -0.54356,0.35654 1.3843,0.0325 1.9377,-0.0397 1.0465,0.40062 1.1808,-0.36457 0.14555,-0.6368 -0.14327,-1.0482 1.7394,-0.9524 1.9979,-0.70625 -0.76252,-0.48504 -0.77009,-1.6932 0.10502,-0.67039 0.87247,0.53111 0.6371,2.992 -0.39875,1.8278 0.0241,-0.59336 -0.69407,-1.8522 -0.6284,-0.67044 0.70635,0.88119 0.33433,1.528 -0.002,2.2293 -0.89929,0.94609 -1.394,-2.3488 -1.2272,-0.47607 -0.33583,1.0289 -0.13785,1.9673 0.86825,1.195 1.0771,-0.005 1.0052,1.8489 0.27894,1.9195 0.4551,0.68513 0.71052,0.14316 1.5021,0.2198 0.38472,1.0011 0.0748,2.153 1.2201,2.4897 0.0233,1.5825 0.55853,0.67563 0.36604,-0.37974 -0.0412,-1.2408 0.83922,1.3139 0.62863,-0.10568 -0.74416,-0.56429 -2.082,-0.21602 -1.7116,-1.6762 -0.23082,-1.2716 1.1847,-2.385 1.9864,-1.3747 0.0125,-0.6039 -0.76546,-1.1216 -0.14126,-1.7787 -0.25651,-0.66773 -1.4521,-2.1155 -0.67605,-0.57459 0.20777,0.61673 -0.74732,0.80434 0.15588,0.95349 -0.74909,2.4385 -1.7964,-1.7135 -1.1524,-1.2111 1.513,0.68919 -1.0476,-0.89833 0.18244,-0.97933 0.62407,-0.19204 2.0538,0.53314 0.99081,-0.49996 -0.97334,-1.7968 2.4695,1.8707 0.62735,0.43915 0.20876,1.243 0.39279,2.3684 1.4106,2.9775 0.3522,0.88134 -0.55499,1.733 -0.64169,0.33929 -0.0486,-0.72049 -0.9467,-1.7817 -0.48613,-0.41606 0.59528,0.80926 -0.44234,2.4796 1.0595,1.5545 0.79723,-1.6684 1.894,1.0414 1.4055,1.2481 -1.103,0.15841 0.0576,2.5484 0.27045,2.7001 -1.1165,0.31215 0.9946,1.4328 -0.0464,1.3242 -1.0661,0.31407 -0.23189,-2.4465 -1.4862,-1.5923 -0.79755,-0.0175 0.69673,-0.61142 -0.60421,-0.54579 -0.17834,-0.52102 -0.771,-3.1154 0.14291,-1.3955 0.64318,-0.57539 -0.64551,-1.4966 -1.1566,-0.87445 -0.11056,-0.6709 -0.71974,-3.1695 -0.55557,-1.1937 0.54043,0.99515 -0.93187,1.2336 0.22644,1.6372 1.3534,0.2365 1.1411,3.412 -0.76976,3.1925 -0.41805,0.0157 -0.39636,-0.68402 -0.30007,0.34283 1.5571,-0.70472 1.2462,2.6723 -0.10979,2.9202 -1.1827,0.21302 -0.27742,-2.7227 0.23001,-1.4138 0.89771,-1.4077 -2.5604,-0.29689 -1.4163,-2.102 -0.0373,-0.65401 1.8395,-0.36902 0.51479,-1 -1.0452,0.0693 -2.0767,-0.0936 -1.4508,-1.4599 -0.0549,-1.3157 1.0875,0.67565 0.56055,-0.52145 -1.137,0.10079 -2.911,-0.71337 -1.449,-1.801 0.66132,-1.004 -1.8276,-0.24785 -2.4977,0.0905 1.268,-0.31723 1.9826,0.54967 1.505,1.7022 0.44843,-0.91676 -0.0671,1.1101 1.0793,0.3632 0.69599,0.62685 -0.022,2.0046 1.3526,2.2712 -0.91873,1.3944 1.6154,2.2199 0.55226,3.2983 0.11573,0.32277 -1.0826,2.0233 -2.2671,1.7128 0.0214,-0.77481 -0.50372,-1.0118 -0.35912,-0.31257 -0.88082,0.24221 -2.1087,2.0086 -0.45695,0.83918 0.7087,-0.52084 2.8641,0.32053 2.4612,1.1658 -1.3486,0.60421 -0.89341,2.2824 -2.5249,2.6588 -1.225,0.47022 -2.4517,2.4424 -3.6231,2.0796 0.32205,-1.2182 -0.25724,-0.94164 -1.054,-1.329 -0.29178,-0.58576 0.68448,0.10314 0.94882,-0.35171 1.1158,0.8655 1.8591,-0.1282 2.7059,-0.79191 0.80229,0.26676 1.4519,-0.008 0.41117,-0.56742 0.46702,-0.60156 2.1712,-1.2182 1.8924,-1.9645 -1.5556,0.74148 -2.4683,2.2694 -3.8204,3.1751 -1.007,-0.38629 -1.9741,-0.28609 -2.964,-0.50065 -0.18416,-0.95985 3.2841,-1.3962 1.2571,-1.5454 -0.30359,-0.20127 0.74413,-1.0222 -0.25916,-0.76023 -0.33819,0.41149 -0.94992,2.2001 -1.4537,1.4374 0.14435,-0.54781 0.36927,-1.4466 -0.67819,-1.0676 -0.53111,-0.67003 0.65737,-1.8429 -0.76947,-1.465 -0.7416,-0.67029 -0.33355,-0.62486 -0.0942,-1.3473 -0.95684,0.30143 -1.4325,-0.12364 -2.2751,-0.56962 -0.53861,0.0194 -0.55112,1.0658 -1.2083,0.77871 -0.42094,1.2187 -1.6869,0.16751 -1.3557,1.7916 -0.42347,0.78495 1.3172,1.0311 0.7173,2.1888 0.92962,-0.82821 1.4292,1.101 0.0394,0.83454 -0.70812,0.19476 0.34812,-0.85457 -0.53658,-0.0866 -0.4309,0.57146 -1.6173,1.4962 -0.0951,0.86274 1.1266,-0.8466 3.0011,-0.26049 2.506,1.1629 1.2842,-0.73566 0.4806,0.71642 -0.45479,0.76764 -0.66396,1.1973 2.7997,-1.4694 1.837,0.80828 -1.5465,1.4702 1.3907,-0.78207 1.1572,1.0311 0.22921,1.3752 -1.4282,2.6528 -2.3105,3.5292 1.6411,-0.55277 -0.4331,1.0967 -0.66766,1.3406 z m 16.391,-9.6258 c -0.85266,0.54436 0.43253,-1.0936 -0.57129,-1.3101 -0.61166,-1.3202 1.4923,-0.50624 0.30503,-1.3203 -0.41492,-0.47791 -0.98992,2.1711 -1.082,0.66974 -0.55929,-1.0703 0.7375,-1.6273 1.5096,-0.79412 0.60437,-0.10917 0.26619,-2.256 0.61973,-0.71458 0.17241,1.9206 0.46018,-1.9596 0.57887,0.006 0.65149,0.57241 1.0099,-1.6112 0.76618,-0.018 -0.36741,0.50274 -1.6833,2.4994 -1.4326,0.81934 -0.13502,0.49416 -1.6051,1.475 -0.46295,1.223 0.63146,0.23417 -0.0983,1.0912 -0.23064,1.4396 z m -0.90371,0.49475 c -1.9196,0.9012 -0.44774,-2.7831 0.0852,-0.73635 0.0671,0.23135 0.22199,0.60164 -0.0852,0.73635 z m -1.5081,0.61841 c -1.1937,0.71421 -2.7459,-0.87615 -0.80901,-1.2274 0.89198,-0.17707 -0.25968,2.0921 0.57998,0.63073 0.31308,-0.0361 0.65605,0.44443 0.22903,0.59663 z m 1.1922,-0.69733 c 0.82462,-0.97957 -0.40245,-0.4271 -1e-5,0 z m -4.824,2.5689 c -0.99617,-0.2566 -1.8978,-0.81316 -2.7706,0.22233 -0.87905,-0.3938 1.0592,-1.1987 1.37,-1.5772 0.79775,0.51942 1.0578,0.003 0.53519,-0.57606 1.1288,-1.6644 3.4704,1.2818 1.5578,0.92034 1.2303,-2.0304 -2.5668,1.0935 -0.4579,0.40091 0.23439,0.18119 -0.054,0.51143 -0.23449,0.60968 z m -6.0391,3.3515 c -0.79054,0.50481 -1.8838,-0.32612 -0.47166,-0.28633 0.0123,0.0311 0.74964,0.0939 0.47166,0.28633 z m 13.425,-7.976 c -0.40245,-0.42709 0.82463,-0.97957 -1e-5,0 z m -19.467,10.915 c -0.70261,0.41609 -1.8451,0.89525 -1.2266,-0.13927 -0.83812,-1.4086 0.37353,-0.61444 0.76538,0.0271 0.12098,-0.20878 1.1057,-0.22902 0.46121,0.11216 z m 5.7018,-3.6704 z m -5.1658,2.7572 c -0.59936,0.76323 -1.7055,0.18867 -0.7474,-0.39432 0.41268,0.14081 1.8473,-0.12393 0.7474,0.39432 z m 15.246,-8.9103 c -0.67463,-0.25384 0.74531,-2.3307 0.66485,-0.66426 -0.10571,0.3074 -0.3869,0.52071 -0.66485,0.66426 z m -12.069,6.5626 c 0.14013,-0.64996 0.77292,-1.9722 -0.21258,-1.0008 -0.18779,0.30581 -0.51901,1.1777 0.21258,1.0008 z m -2.7463,1.4234 c -1.2976,1.2774 -2.6086,-0.8705 -0.65344,-0.4607 0.71688,0.64659 0.0165,-0.99981 1.2812,-0.49642 0.99532,0.0164 -0.51409,0.80164 -0.62774,0.95712 z m 12.406,-7.1807 c -1.4842,0.0899 1.3866,-1.9889 0.66695,-0.51101 -0.19213,0.20493 -0.41541,0.38424 -0.66695,0.51101 z m -16.167,9.2348 c -0.80883,-0.062 -0.81757,-0.93539 -1.3327,-0.77292 0.50949,-0.7029 0.64084,-0.78649 0.10871,-1.0974 0.13931,-1.2538 1.225,0.33793 1.981,0.388 -0.13959,-0.30699 -1.3097,-1.2367 -0.66945,-1.0724 1.1217,-0.0155 1.881,0.92051 0.44757,1.4528 -0.65949,0.28508 -0.635,0.61177 -0.53516,1.1019 z m 18.005,-10.467 c -2.0944,0.33865 0.16514,-2.6618 0.5039,-0.95762 -0.0422,0.36128 -0.15633,0.76809 -0.5039,0.95762 z m 4.8723,-3.4528 z m -22.474,12.777 z m 20.646,-12.244 c -1.0138,0.30258 -0.30468,-2.766 0.24881,-1.5042 0.47356,-1.1562 -1.9616,-0.71129 -0.93366,-2.101 0.15284,-1.034 0.31715,-0.42064 0.75029,-0.4303 -0.50172,-1.0045 -0.0187,-1.8508 0.95563,-0.96908 1.0093,0.52592 -0.1637,0.90491 0.43892,1.7942 -0.79423,1.1069 1.1703,1.2184 0.62371,0.35841 1.2514,0.22375 -1.301,2.7539 -1.2228,1.8773 -0.26597,-0.61268 1.8631,-1.0777 0.73534,-0.88961 -1.2718,0.23341 0.17002,-1.631 -0.83154,-1.9147 0.0966,-1.1024 -0.48671,-1.5839 -0.36513,-0.11556 0.18007,1.3862 -0.78227,-0.45824 -0.3941,0.78273 1.2231,-0.0718 0.55243,2.5104 0.1814,2.265 0.27592,0.24784 0.10825,0.70316 -0.1869,0.84675 z m -2.1033,1.0701 c -1.0408,-0.0687 0.43079,-2.2666 -0.5938,-0.57917 -0.9526,1.701 -1.973,-2.1282 0.002,-1.3166 1.0851,0.16356 1.7133,1.2037 0.59169,1.8957 z m -14.205,8.1382 z m 15.278,-8.9646 c -0.54198,-0.61949 -0.75639,-2.5749 0.30539,-1.8989 0.007,0.64568 -0.18459,1.2701 -0.30539,1.8989 z m -18.912,9.91 c -0.0676,-0.9328 1.6332,-0.25756 0.34412,-0.98875 -1.1205,-0.96077 2.0355,-2.132 1.4604,-0.86839 0.74365,-0.75911 0.44155,-1.6525 -0.48295,-0.8791 -1.8543,-0.45437 -1.3998,2.1561 -1.7016,2.768 l 0.11188,0.0329 0.26814,-0.0646 z m 11.138,-7.0521 c 1.2664,-1.384 -1.1733,-0.86412 -0.45432,0.11577 l 0.3423,-0.0601 0.11202,-0.0557 z m -1.3623,0.54323 z m 3.4966,-2.0277 c 0.38344,-0.997 -2.1505,-0.37048 -1.4178,0.49855 0.34305,-0.66411 0.9092,-0.29325 1.4178,-0.49855 z m 5.1031,-3.8022 z m -20.229,11.094 c 0.0441,-0.73655 0.76272,-0.74695 1.0711,-0.74659 -1.7984,-0.50264 0.53315,-2.1734 0.95461,-1.3016 -0.49555,1.0884 0.95533,-0.85752 1.1015,-0.53361 -1.0587,-0.5909 -3.7577,-0.0765 -3.2856,1.574 -8.9e-4,0.23653 -0.31552,1.0517 0.15838,1.0078 z m 4.6094,-2.9406 c 1.002,-0.37396 1.0025,-1.2912 -0.1213,-0.50661 -1.0232,0.55181 -1.2295,1.3203 0.1213,0.50661 z m 7.4332,-4.3546 c 0.70127,-0.1581 1.7427,-1.874 0.41905,-0.85716 -0.11553,0.0335 -1.1299,1.1822 -0.41905,0.85716 z m -14.643,8.4092 z m 20.087,-11.606 c 0.16818,-0.51633 -0.23249,-1.3095 0.45928,-1.842 -0.5933,0.50314 -2.2897,1.2441 -1.4112,1.9471 0.34005,-0.0345 0.5454,-0.3231 0.95196,-0.10518 z m -2.8693,1.179 c 0.54886,-0.51649 -1.4711,-0.73904 -1.3649,-0.25718 0.12045,0.61246 0.96757,0.42324 1.3649,0.25718 z m -10.044,5.5286 z m 18.863,-10.917 c -0.38923,-0.84011 0.008,-2.5141 -0.95903,-2.7965 0.45455,0.669 -0.12664,1.8119 0.0656,1.8888 0.63643,-0.10643 0.46717,0.70521 0.89351,0.90775 z m -24.271,14.004 z m 12.082,-7.1647 c 0.78418,-0.89067 -1.2029,0.31459 -0.18985,-0.71929 0.57592,-0.37298 2.2165,-2.1761 0.59313,-1.2637 -0.32722,0.69045 -2.6954,1.7627 -1.7014,2.3299 0.44439,-0.0589 0.88373,-0.17588 1.2982,-0.34687 z m 12.988,-7.5617 z m -10.04,5.427 c 0.42505,-0.47142 2.8565,-1.8309 0.99794,-1.2968 -0.35698,-0.0391 -1.8058,1.2214 -0.99794,1.2968 z m -16.851,9.4227 z m 0.82743,-0.89219 c 0.98727,-0.75966 0.30197,-2.4367 2.1222,-2.3413 0.42801,-0.98203 -2.2655,0.12048 -1.9396,1.1906 0.11969,0.34023 -0.97021,1.2586 -0.18263,1.1506 z m -1.8459,1.0477 c 1.1033,-0.7926 -0.0465,-2.5803 -0.90911,-1.9594 1.5698,0.22782 0.29157,1.2251 0.90911,1.9594 z m 4.3324,-2.5464 c 1.0297,-0.97567 0.51309,-2.4316 2.3231,-2.6077 1.4196,-0.90372 -1.1464,0.002 -0.43412,-1.0561 -0.77902,1.007 -1.8051,2.34 -1.889,3.6638 z m 14.985,-8.7688 z m 1.1726,-0.96534 z m -2.7879,1.4294 c 0.44746,-0.43253 -1.7682,-0.41021 -1.3679,-0.28608 -0.44041,0.79113 0.93973,0.36727 1.3679,0.28608 z m 1.8453,-1.4078 c 0.65299,-0.3636 1.5995,-2.5878 0.43133,-1.0375 -0.51976,0.80495 -2.1149,-0.20712 -0.73132,0.99191 l 0.15286,0.0685 0.14713,-0.023 z m -5.3947,3.0786 c 1.4451,-0.74243 -0.44643,-0.67445 -1e-5,0 z m 13.131,-7.6262 c 0.48949,-0.97126 -1.3436,-1.2916 -0.38568,-0.0726 0.10048,0.096 0.25844,0.1248 0.38568,0.0726 z m -14.194,8.0326 z m 4.0472,-2.6971 c 0.73941,-0.42222 1.6563,-2.0296 0.16615,-0.91073 -0.23269,0.0864 -0.80817,1.2009 -0.16615,0.91073 z m -3.4517,1.6685 c 0.58443,-0.338 2.4906,-2.0136 0.71499,-1.1714 -1.0872,0.51484 -0.1385,-1.0066 -1.1534,-0.10856 -0.739,0.31775 -1.8577,0.70683 -0.44593,0.43511 1.1236,-0.26241 1.5549,0.057 0.65189,0.81683 l 0.0893,0.0571 0.1431,-0.0291 z m -13.078,7.0007 z m 3.5477,-2.2825 c -0.0659,-0.605 0.47733,-2.1985 -0.45935,-0.77999 -0.39022,0.458 -0.19712,1.0079 0.45935,0.77999 z m -2.8879,1.5682 c 0.002,-0.6435 0.55106,-2.1367 -0.37587,-0.72907 -0.35161,0.41695 -0.38589,1.0333 0.37587,0.72907 z m 16.777,-9.8482 c 0.34989,-1.0163 1.0898,-1.298 1.7243,-1.1298 -0.72005,-1.0615 -2.4716,-0.49947 -1.6792,0.83347 l -0.0451,0.29638 z m -19.365,11.108 c 0.55231,-0.49084 1.0111,-2.4318 0.0349,-1.0261 -0.0631,0.20223 -0.49955,1.051 -0.0349,1.0261 z m 18.035,-10.431 c 0.44634,-0.57132 -1.5921,-0.33568 -0.23676,-1.1195 0.58884,-1.6655 -1.7712,1.4011 -0.92444,1.3298 0.39373,-0.003 0.80271,-0.0282 1.1612,-0.2103 z m -13.896,7.6896 z m 3.094,-1.8043 c 0.20426,-1.005 -2.5972,0.43165 -0.52765,0.1926 l 0.20116,-0.048 0.32648,-0.14457 h 1e-5 z m 17.822,-10.488 z m 3.1023,-1.8992 c -0.95707,-0.27203 -1.4017,-2.1149 -0.67734,-1.9623 -0.26122,0.84019 0.70772,1.2683 0.67734,1.9623 z m -14.178,7.7799 c 0.48262,-0.32142 2.5687,-2.0443 0.86735,-1.3239 -0.35854,0.23431 -1.0245,0.98137 -0.86735,1.3239 z m -2.3674,1.0965 c 1.0856,-1.1115 -1.5092,-0.53875 -0.28918,0.11277 z m 6.958,-4.1164 z m -10.894,5.9293 z m -8.2478,4.6447 c -0.44303,-0.76835 -0.0776,-1.5951 0.44123,-2.201 -0.14433,-0.23918 -1.5442,1.2692 -1.484,2.1944 0.79779,-0.95606 0.48673,-0.29466 1.0428,0.006 z m 5.0524,-3.0161 c 0.13888,-0.47926 1.0118,-2.149 -0.0664,-1.0564 -0.24286,0.30203 -0.80466,1.1798 0.0664,1.0564 z m -3.8828,2.2327 c 0.69758,-0.34161 2.1411,-3.3636 0.77395,-1.7196 -0.23988,0.49896 -0.84408,1.2832 -0.77395,1.7196 z m 23.317,-13.642 c -1.2224,1.1352 -1.5447,-2.7141 -0.3134,-1.2607 0.30174,-0.43363 -1.486,-1.2229 -0.0726,-1.3737 1.2812,0.50616 0.24822,1.897 0.6047,2.4844 l -0.21872,0.15001 z m -5.8475,3.34 c 0.52101,-0.75293 0.45296,-1.8273 1.656,-1.6021 -0.58084,-0.91866 -2.2645,-0.0814 -1.6848,1.0061 0.0381,0.0885 -0.22086,0.60745 0.0288,0.59608 z m -1.0513,0.59799 c -0.85034,-0.45117 -0.27026,-2.449 -1.2212,-0.86967 0.0644,0.5485 0.77084,0.77522 1.2212,0.86967 z m -3.3386,1.8645 z m -7.2817,4.0239 c -0.27997,-1.0771 -2.1693,0.50434 -0.33436,0.13464 L 145.8648,23.386 Z m -3.0668,1.6174 c 0.067,-1.0183 -2.0235,3.5e-4 -0.34234,0.0625 z m 12.054,-6.9952 z m -2.4805,0.90052 c 0.60708,-0.65687 2.0103,-2.1444 0.29676,-1.1117 -0.2508,0.053 -0.81545,1.2618 -0.29676,1.1117 z m 4.328,-3.3187 z m -19.263,11.113 z m 5.7175,-3.4091 c 0.51697,-0.55246 1.449,-2.3572 0.12195,-1.0089 -0.15235,0.22994 -1.1568,1.3468 -0.12195,1.0089 z m 8.7865,-5.163 z m 1.1703,-0.82887 c 0.25432,-0.86591 1.1317,-1.4457 1.6328,-1.7446 -0.92099,-0.57428 -1.6081,0.98393 -1.6328,1.7446 z m -2.7538,1.4728 z m -5.0384,2.8999 c 0.43963,-1.1368 -2.1031,0.0786 -0.54041,0.14081 l 0.32476,-0.0634 0.21565,-0.0774 z m -4.8424,2.7868 c -0.55056,-0.25132 0.95151,-2.1193 -0.26555,-1.0532 -0.64311,0.5584 -1.23,1.5637 0.26555,1.0532 z m 15.736,-9.3558 c 0.32184,-0.82488 0.49012,-1.829 1.2738,-1.7496 -1.6389,-1.279 -1.4581,0.92156 -1.2738,1.7496 z m -19.782,11.322 z m 5.6967,-3.289 z m 8.8415,-5.6452 c 1.0483,-0.53951 0.3404,-1.9478 -0.1596,-0.50705 -0.0492,0.0514 -0.12312,0.64584 0.1596,0.50705 z m 13.143,-7.8402 c -0.59328,-1.6349 -2.4057,-2.1705 -3.0508,-3.7134 -0.0543,-0.66653 0.77394,0.87812 0.56658,-0.31988 -1.7625,-0.47768 0.19674,1.6463 -0.13916,1.9708 -0.14271,-0.0352 0.49753,1.3773 -0.57082,0.79437 -0.42764,-0.71147 -1.5545,-1.5861 -0.65908,-0.20729 -0.0492,0.79135 0.93889,2.0752 -0.38364,1.5006 -1.3788,0.51754 -1.0813,-2.6814 -2.779,-1.5804 -0.19617,-0.73066 -1.266,-1.4511 -0.48423,-0.26873 0.34429,1.093 -0.18096,2.2986 -1.4023,2.1166 0.0186,-0.73275 -0.83013,-2.5174 0.0224,-1.5812 1.6356,0.0307 -1.5361,-0.79366 0.20175,-1.3257 0.68411,-0.48378 2.8599,-0.11247 1.1067,-0.96367 -0.18897,-1.1575 1.7432,0.0511 1.6337,0.9869 -0.0331,0.97984 2.2639,1.4429 0.65958,0.76126 -0.66422,-0.58242 1.4816,-0.82051 0.87054,-1.248 0.75723,-0.6795 1.5409,-1.3479 0.206,-2.4087 0.36989,-1.4212 0.95528,0.92676 1.7971,0.96866 0.41342,1.2066 1.0015,2.2287 1.9313,3.0632 0.28948,-0.49011 -1.3936,-1.783 -0.46854,-1.4256 0.68367,-0.0165 2.0854,1.2738 2.3075,1.6687 -0.85243,0.33764 -2.0744,-1.6488 -1.2158,-0.0192 0.13825,0.40107 0.17886,0.90472 -0.14975,1.2306 z m -26.722,15.392 c 1.0672,-0.52469 0.65711,-1.6812 -0.0755,-0.44295 -0.24232,0.16974 -0.40303,0.81721 0.0755,0.44295 z m 14.722,-8.725 z m -10.378,5.6676 c 0.95833,-0.40183 1.3121,-1.3055 2.1052,-1.8712 -1.0496,-0.23187 -1.6867,1.0635 -2.1052,1.8712 z m 13.372,-7.9728 z m -5.9777,3.4422 z m -4.2612,2.4512 c 0.52889,-0.78204 -1.8934,0.0288 -0.22056,0.0671 z m 5.5077,-3.3511 c 1.5986,-1.1122 -0.95378,-0.36391 -0.71495,0.27087 0.2495,-0.0534 0.50004,-0.12821 0.71495,-0.27087 z m -14.752,8.3458 c -1.1591,-0.84527 -0.5119,-1.9348 -0.0192,-2.6238 -1.1369,1.2882 -1.6103,-0.43179 -1.6064,-1.1762 -1.1094,0.57595 0.62114,2.8219 1.2022,3.6618 0.10276,0.0997 0.27131,0.22563 0.42343,0.13828 z m 4.2425,-2.5305 c -0.26154,-0.38311 1.248,-2.081 -0.0249,-1.0842 -0.56453,0.53864 -1.5535,1.3083 0.0249,1.0842 z m 1.6413,-1.1368 z m 10.344,-6.0081 c 0.34839,-0.6215 1.1489,-1.0202 1.1326,-1.0503 2.1272,-0.27229 -2.6,-0.86486 -1.1326,1.0503 z m 2.7108,-1.7813 c 0.0438,-0.97588 0.67409,-1.8744 1.4068,-1.7637 -1.0386,-0.52026 -2.3312,0.0232 -1.466,1.3023 l 0.0295,0.35027 0.0296,0.11114 z m -17.469,9.7255 c 0.0764,-0.60599 1.037,-1.9601 -0.20624,-1.0834 -0.44041,0.55136 -1.3352,2.1068 -0.11684,0.88705 0.16392,-0.0591 0.2099,0.13729 0.32308,0.19638 z m -1.5487,0.4076 z m 7.0776,-4.2214 c 0.73374,-0.48477 1.7661,-1.5727 0.1862,-0.82864 -0.61193,0.20404 -1.9186,1.6332 -0.1862,0.82864 z m 7.3369,-4.6775 c 0.80797,-0.67989 1.0708,-2.847 -0.009,-1.6076 0.32623,0.47332 -0.34642,1.3024 0.009,1.6076 z m 3.1594,-2.1124 c 0.5544,-0.60842 -1.0689,-0.0865 -1e-5,0 z m -0.98824,0.42639 c -0.21826,-0.80667 -1.8497,-0.56071 -0.37279,-0.037 z m -12.618,7.2668 c -0.18678,-0.47742 1.8656,-1.6976 0.093,-1.0361 -0.66123,0.29759 -1.6181,1.2847 -0.093,1.0361 z m 8.2744,-5.1917 c 1.0192,-0.44467 0.0938,-1.6655 -0.0906,-0.34416 -0.1111,-0.11093 -0.0851,0.53197 0.0906,0.34416 z m 15.029,-8.6771 c -1.1013,-0.17886 -0.24178,-1.6759 0.0794,-0.21522 l -0.0152,0.13262 z m -25.824,14.856 c -1.1322,-0.71312 1.59,-2.0384 -0.0724,-1.579 -1.5195,0.77868 -0.7152,0.81367 0.0724,1.579 z m 15.745,-9.3248 c -0.20625,-0.96334 0.80422,-1.6117 1.2984,-1.7775 -1.019,-0.39635 -2.43,0.0715 -1.4776,1.249 0.0417,0.17123 -0.18913,0.75716 0.17922,0.52856 z m -10.04,5.6612 c 1.598,-1.2466 -1.3371,-0.60758 -1.0188,0.27766 0.35985,0.0287 0.70529,-0.11865 1.0188,-0.27766 z m 6.2656,-3.7706 z m 11.621,-6.7455 z m -25.525,14.485 z m 3.291,-1.9 z m 9.1028,-5.4267 z m 1.0881,-1.0337 c -0.3968,-1.0446 1.3198,-1.4609 1.28,-1.8563 -0.7108,0.24813 -2.5092,-0.0853 -1.5406,1.2699 0.0653,0.16545 -0.035,0.6745 0.26065,0.58634 z m 2.6245,-1.8216 c 0.33437,-0.96287 -1.0977,-1.543 -0.37335,-0.16287 l 0.22213,0.1407 0.15121,0.0222 h 1e-5 z m 11.011,-6.4292 z m -3.1135,1.7706 c -1.0119,-0.0613 -2.8739,-2.6003 -0.70031,-2.4383 0.49868,-0.39028 1.5588,0.75576 0.51466,-0.28192 -0.89632,0.0368 -2.3595,-2.4748 -0.84323,-1.1999 0.86738,0.49846 2.5034,1.5764 1.8782,2.6137 -0.57947,-0.2161 -2.1232,-1.3699 -0.92108,-0.21853 0.38999,0.38191 0.61224,1.1702 0.0718,1.525 z m -24.214,13.791 z m 5.4524,-3.166 z m -1.3566,0.52191 z m -1.9831,1.0909 c -0.30946,-0.87221 0.14282,-1.1991 0.82047,-1.7382 -0.80087,-0.25777 -2.5159,0.90975 -1.0288,1.4711 l 0.20831,0.26717 1e-5,-10e-6 z m 10.118,-6.04 c 0.30952,-0.5275 -1.6175,-0.40247 -0.29182,-0.004 z m -4.8658,2.7462 z m 4.4242,-3.4643 c -0.3086,-0.74993 1.2197,-2.227 -0.42702,-1.4254 -0.28929,0.35917 0.29985,1.024 0.42702,1.4254 z m 11.707,-6.7681 c -0.052,-0.87612 -1.6462,-0.55698 -0.18607,-0.0151 z m -23.372,13.485 z m 5.0345,-2.9067 c -0.30076,-0.79405 2.3416,-1.7081 0.48682,-1.092 -0.60085,0.32421 -1.5911,-0.35096 -1.3377,0.83864 0.24238,0.16933 0.55923,0.24154 0.85085,0.25334 z m 8.9478,-5.6796 z m -15.287,8.5737 c 0.26481,-0.59321 0.61813,-1.196 -0.16702,-0.33608 -0.17832,0.0726 10e-4,0.50479 0.16702,0.33608 z m 14.14,-8.15 z m -11.714,6.7091 z m 1.365,-1.0223 c -0.49631,-0.90742 2.0312,-1.9358 0.0135,-1.5599 -0.94963,0.0965 -0.65596,1.3694 -0.0135,1.5599 z m -2.4676,1.4066 z m 13.606,-7.9903 c -0.55885,-0.94712 0.40288,-1.5688 0.83826,-1.9346 -0.61239,0.0804 -3.2416,0.71758 -1.4382,1.0456 0.31754,0.18141 0.25224,0.80018 0.59999,0.88899 z m -8.1912,4.3057 z m -4.1254,2.0935 z m 5.2562,-3.1157 c 0.46267,-1.2387 -3.393,0.90787 -1.0124,0.24946 0.33132,-0.10843 0.67473,-0.16715 1.0124,-0.24946 z m -6.219,3.3833 z m 11.686,-7.071 c -0.19788,-0.1696 -1.7338,-1.6051 -0.83686,-0.13855 0.15639,0.32932 0.57023,0.29431 0.83686,0.13855 z m 11.487,-6.713 z m -20.495,11.554 z m -4.2543,2.276 z m 1.826,-1.3786 z m 12.338,-7.1416 c 0.46846,-0.92271 -1.4117,-1.9038 0.1257,-2.4786 -0.62421,-0.0142 -2.3474,0.36905 -1.6758,0.82364 0.77681,-0.0222 1.4605,0.93577 1.5502,1.6549 z m -8.1984,4.6523 z m 10.402,-6.3752 c 1.3091,-0.83199 -1.0288,-0.15037 -1.1553,-1.1982 -1.9552,-0.61744 1.0167,0.43435 -0.004,1.5536 0.21756,0.27551 0.89642,-0.31981 1.1596,-0.35541 z m -16.973,9.7271 z m 5.7711,-3.3319 c 0.44057,-1.0493 -2.595,0.65154 -0.37039,0.16121 l 0.1912,-0.0717 0.17918,-0.0896 h 1e-5 z m -2.7237,1.2752 c 0.57598,-0.47614 0.34959,-1.5965 -0.0116,-0.4258 0.0218,-0.18126 -0.23138,0.55946 0.0116,0.4258 z m 10.169,-6.0151 c 1.2257,-1.2756 -1.3323,0.0204 -1.1861,0.46446 0.40041,-0.14082 0.81703,-0.24763 1.1861,-0.46446 z m -7.1612,3.702 z m 15.939,-9.4728 c -0.90936,0.0695 -1.0023,-1.3448 0.095,-0.53556 0.67165,-0.58471 0.24977,0.36442 -0.095,0.53556 z m -21.387,12.195 c -0.33273,-0.8685 -2.1231,0.24679 -0.57344,0.11482 l 0.36692,-0.0642 0.20652,-0.0506 z m 1.7008,-1.018 c 0.37103,-0.74172 2.6415,-1.4098 0.72773,-0.99025 -0.18737,0.21314 -2.19,1.4777 -0.72773,0.99025 z m 2.2357,-1.543 z m -3.9819,2.1548 c 0.27301,-0.58062 1.4585,-1.61 0.16039,-0.78595 -0.13167,0.23832 -0.15964,0.51902 -0.16039,0.78595 z m 16.612,-10.087 c -0.45,-0.7683 -2.24,-0.4184 -0.62,-0.0501 l 0.35809,0.0702 0.19382,-0.0194 z m -14.118,8.07 c -0.11188,-0.65635 1.8844,-1.5711 0.30844,-1.3041 -0.2095,0.1552 -0.69396,1.2674 -0.30844,1.3041 z m -1.0452,0.46826 z m 13.85,-8.2218 c -0.56952,-0.32528 -2.3632,-0.45506 -2.9781,-0.11712 1.195,-0.44881 1.2175,1.5248 2.3177,0.2466 0.20432,-0.10817 0.43788,-0.10612 0.66043,-0.12948 z m -2.6655,1.3136 c -0.27188,-1.0116 -2.0831,0.18715 -0.45998,-0.1962 l 0.27564,0.0954 0.18434,0.10078 z m -8.0185,4.6205 z m 11.968,-7.1439 c -1.2428,-0.10903 -2.4785,-0.50771 -3.7153,-0.45376 -0.26559,0.70675 1.8772,0.51041 1.9232,0.7676 0.51423,-0.40992 1.1817,-0.33894 1.7921,-0.31384 z m -14.453,7.6776 c 0.77383,-0.29535 1.4153,-1.6285 0.28085,-0.49665 -0.19276,0.16003 -1.0804,1.0109 -0.28085,0.49665 z m 8.9219,-5.4124 c 1.4654,-1.2268 -1.1166,-0.34776 -1.1712,-0.4624 0.33267,0.19212 0.73986,0.67713 1.1712,0.4624 z m -7.2043,4.0332 c -0.31675,-0.85163 -1.7978,0.31874 -0.20875,0.0572 l 0.15,-0.0562 z m 13.008,-7.5279 c -0.76519,-0.12146 -2.4972,0.36234 -2.6852,-0.16735 0.93178,-0.29936 1.0078,-0.37252 1.591,-0.18297 0.25399,-0.2232 1.4565,-0.15043 1.0943,0.35032 z m -5.3167,2.3398 z m -6.5132,3.6072 c -1.6789,0.28744 -0.51355,-1.2289 0.37574,-1.404 0.34904,-1.5004 0.48127,1.5916 -0.37574,1.404 z m 0.0531,-0.45417 z m 1.0723,-2.6374 z" />
    <path
       id="path6352"
       opacity="0.50704"
       d="m 160.95,32.729 z m -0.86819,0.21292 z m 3.3673,-2.3766 z m -1.1234,0.50442 c -1.3424,0.48197 0.57417,-0.99527 0.0466,-0.0427 z m -7.6546,4.3924 z m 6.0584,-3.7862 c -1.2423,0.28869 1.4389,-1.2208 0.0221,-0.0136 z m -5.668,3.0111 z m -2.0468,1.1367 c -1.529,-0.30241 -0.58405,-1.3796 0.52735,-0.91949 -0.0517,0.53436 -1.4118,0.41533 -0.52735,0.91949 z m 10.711,-6.184 c 0.0905,-0.6028 -1.4772,0.13475 -0.49598,-0.80428 0.55431,-0.22291 0.91962,0.37397 0.49598,0.80428 z m -12.556,7.1862 z m 7.797,-4.5827 c -1.3522,-0.38273 0.25154,-0.71772 0.58126,-0.79347 -0.16618,0.28363 -0.39247,0.52552 -0.58126,0.79347 z m 3.136,-1.9187 z m -10.11,5.7738 z m 13.056,-7.6007 z m 0.98578,-0.75836 z m -5.4852,2.9687 z m 0.91612,-0.75417 c 0.463,-1.0892 -0.31125,-0.15119 -0.25344,-0.45569 0.89173,-0.67143 0.99438,0.0231 0.25344,0.45569 z m -2.7499,1.4795 z m -5.5824,3.0969 c -2.0097,-0.46847 1.9458,-1.4563 0.58352,-0.5166 0.0298,0.31664 -0.43452,0.31867 -0.58352,0.5166 z m -3.7042,2.1206 c 0.26208,-0.70928 -1.231,-0.33442 -0.25007,-0.74159 1.0748,0.2989 0.51999,-0.76652 0.73781,-1.0975 -1.0947,-0.11631 0.26593,-0.36894 0.58341,-0.27021 -0.15034,-0.96683 0.84574,-0.53871 0.47952,-1.4036 1.3,0.0542 0.34582,-3.4084 1.4589,-1.4552 0.0451,1.078 -0.78616,1.5111 -1.1515,2.5097 -0.50026,0.57967 -1.4254,0.9497 -0.85246,1.4412 -0.28829,0.38417 -0.74204,0.61234 -1.0056,1.0173 z m 2.3935,-1.535 z m 13.998,-8.0908 c -0.76527,0.0634 -0.0287,-2.5288 0.46654,-1.051 -0.0769,0.37835 -0.24981,0.73387 -0.46654,1.051 z m -0.90371,0.49474 c -1.3043,0.59025 -0.75794,-1.1048 -0.32449,-1.312 0.30294,0.22374 0.77852,1.031 0.32449,1.312 z m -6.8237,3.8496 c -0.39271,-0.22707 0.56992,-1.1799 -0.50491,-1.015 1.1244,-0.56892 1.1412,0.59652 0.99811,0.56361 0.0157,0.24463 -0.35348,0.3084 -0.4932,0.45137 z m 5.3156,-3.2312 c -0.5591,0.6749 -2.6759,-0.64077 -0.95697,-0.35763 1.2819,-0.86026 -0.99063,-0.18759 -0.19567,-0.62234 1.0435,-1.0956 0.50703,1.8549 0.75917,0.50594 0.34413,-0.30098 0.85595,0.17967 0.39347,0.47403 z m 1.1922,-0.69732 z m -13.864,7.824 z m 9.1304,-5.3165 c -1.0208,-0.43315 -2.0465,-0.34749 -3.1266,-0.0505 0.63246,-1.1727 1.6931,-0.27698 2.517,-0.51148 0.392,-0.70215 -1.2767,-0.19647 -0.0166,-0.6504 -0.65823,-1.1139 1.8154,-0.97385 0.42719,0.0854 -1.1471,1.4304 1.1732,-0.0309 0.19904,1.1269 z m -6.1298,3.4129 c -0.37788,0.061 -0.5089,-0.47678 -1.1839,-0.19679 0.23289,-0.0483 1.3303,-0.28375 1.1839,0.19679 z m -5.0972,2.7356 z m 12.643,-7.3172 c -0.93262,0.20032 -0.66638,0.17967 -0.62505,-0.58863 -0.98881,-1.2695 0.99828,0.2415 0.62505,0.58863 z m 5.8792,-3.3944 z m -3.2604,1.5941 z m -16.207,9.3211 c -0.5929,0.92155 -2.2067,0.15178 -0.77209,-0.2296 0.15935,0.22982 1.4775,-0.21091 0.77209,0.2296 z m 18.897,-11.154 c 0.46595,-2.0175 -1.3601,1.3615 -1.0611,-0.37863 0.61653,0.25213 0.54014,-0.84115 1.3871,-0.79448 -0.27134,-0.96956 1.0166,-0.008 1.0828,-0.89772 0.0448,0.79144 -0.90237,1.5161 -1.4089,2.0708 z m -13.209,7.4911 z m -4.882,2.5934 c -0.5049,-0.0148 -1.8306,0.97053 -1.162,-0.15314 0.13551,-0.0925 1.7155,-0.18515 1.162,0.15314 z m 15.63,-9.3843 c -0.77033,-0.0983 -0.95559,0.43939 -0.46223,-0.62778 0.2962,-0.44997 0.57389,0.42452 0.46223,0.62778 z m 0.46811,-0.29728 z m 0.39005,-0.43243 z m 0.85433,-0.50225 z m -19.332,11.134 z m 2.1497,-1.2862 c -0.44725,0.57799 -2.6353,-0.0529 -0.98478,-0.31176 0.79868,-0.0846 0.62822,0.0584 0.90479,-0.5962 1.0771,-0.35731 1.0271,0.57777 0.0855,0.55921 -0.0266,0.11411 0.18184,0.27965 -0.005,0.34875 z m 12.231,-7.1247 c -1.0714,-0.71656 2.1034,-1.5264 0.32984,-0.51889 -0.16163,0.085 -0.53271,0.28761 -0.32984,0.51889 z m -15.992,9.1788 c -1.3311,0.009 -0.59669,-1.9654 0.41868,-1.1788 -1.5665,0.006 0.47462,-1.1088 0.055,0.12109 -0.30442,0.26604 -0.85399,0.58472 -0.47371,1.0577 z m 5.6299,-3.2955 z m 12.375,-7.1718 c -1.7668,0.31554 0.48579,-2.1416 0.32371,-1.2645 -0.94513,-0.10507 -0.60925,1.9095 -0.0347,0.96075 -0.0623,0.13414 -0.17392,0.21775 -0.28895,0.30375 z m 2.3032,-1.5821 c -0.6035,-0.24222 -1.1252,0.56911 -0.58708,-0.55795 0.23757,-0.11897 0.73464,0.29744 0.58708,0.55795 z m -14.5,8.1104 c 0.002,-0.41517 -1.009,-0.25934 -0.17758,-1.0221 0.93534,-0.99971 0.29499,0.79435 0.17758,1.0221 z m 16.239,-9.4209 z m -8.9752,5.1638 c -0.63779,-0.36155 -2.5671,1.9136 -1.679,0.25673 1.0806,-1.1742 2.9466,-1.4106 3.5895,-2.5544 0.74221,-0.53474 0.9936,-2.4046 2.1175,-2.0578 -1.0694,1.3238 -1.5885,2.9677 -3.2571,3.3979 -0.73296,0.0452 -0.36636,0.75001 -0.77088,0.95755 z m 9.8051,-5.7241 z m -18.341,10.571 c -0.99567,0.1095 -1.7958,-0.39048 -0.5217,-0.67156 0.76049,-0.43964 1.6114,-0.9693 0.56562,0.17367 -0.56441,0.32673 0.28011,0.39017 -0.0439,0.49789 z m 17.156,-9.9864 z m -20.641,11.863 z m 19.998,-11.915 c -0.023,-1.3116 -0.73746,0.71786 -0.46598,-0.80359 -0.0802,-0.53394 0.72447,-1.1408 0.79365,-0.28937 0.51412,-1.113 0.30321,0.74325 -0.32398,0.0454 0.42874,0.21632 0.36003,0.81366 -0.004,1.0475 z m 0.96922,-0.56857 c 0.18034,-0.94848 0.045,-0.77057 0.91769,-1.3704 -1.3747,0.17615 -0.0467,-0.25246 0.32014,-0.67864 0.30852,-0.62556 0.29426,1.017 -0.4621,1.2091 -0.26252,0.27459 -0.5822,0.50629 -0.77573,0.83988 z m -23.265,13.342 -0.0592,-0.0559 z m 20.037,-11.677 c -0.93753,-0.90092 0.84377,-2.4396 0.60421,-0.91324 -0.3513,0.16974 -0.90676,0.41345 -0.60421,0.91324 z m 1.2283,-0.85331 c -0.86489,-0.63977 -0.0912,-3.0695 -0.13202,-1.0798 0.13056,0.34323 0.34456,0.71448 0.13202,1.0798 z m -17.339,9.9659 c -0.9167,0.005 -2.074,1.1757 -2.7756,0.0617 1.1383,0.37281 2.499,-0.70733 2.127,-1.4565 0.42964,-0.86409 3.5098,-1.6536 1.5749,-0.63939 -1.2454,0.441 -0.96211,1.3282 -0.92637,2.0342 z m -2.975,1.5734 z m 18.249,-10.779 c -1.3483,-0.25143 0.78552,-2.6686 -0.11731,-0.64354 0.15087,0.38142 0.82688,0.18261 0.11731,0.64354 z m -19.683,11.229 0.0685,-0.13163 z m 8.1986,-4.8236 c -1.0027,0.12704 -1.6223,0.61635 -0.76737,-0.52545 0.34656,-0.78285 0.9384,0.007 0.76737,0.52545 z m 3.8843,-2.3237 z m 1.2975,-0.7491 c -0.38607,-0.77642 -2.7416,0.0979 -2.1828,-0.84458 1.4633,0.46149 2.8753,0.38415 3.6245,-1.1177 0.58045,-0.61334 3.2272,-2.335 1.6474,-0.74709 -1.2682,0.92732 -1.7824,1.7427 -3.0891,2.7094 z m -13.667,7.7738 c -1.6322,-0.60186 0.88277,-3.3163 1.0029,-1.6342 -1.5663,0.0834 -0.44266,0.95537 -1.0029,1.6342 z m 1.4079,-0.948 z m 4.5591,-2.7313 z m 18.194,-10.577 z m -0.41382,0.0948 c -1.1757,0.3162 -0.50446,-2.0582 -0.33874,-0.3061 0.12202,0.0982 0.49288,0.0402 0.33874,0.3061 z m 0.69074,-0.72318 c -0.38118,-0.30922 -1.0976,-2.3178 -0.26422,-2.0151 0.41913,0.29552 0.13729,1.3406 0.26422,2.0151 z m -22.014,12.466 z m 23.1,-13.37 c -1.2373,-0.64529 -0.51409,-2.3301 -1.0532,-3.4759 1.0437,1.0105 0.56654,2.3277 1.1759,3.1889 -0.0408,0.0957 -0.0817,0.19136 -0.12261,0.28704 z m -22.975,13.174 c -1.0555,0.56056 -0.14038,-1.4198 -0.17622,-1.8986 0.50993,-0.95978 0.94474,-0.16066 1.6897,-0.81441 1.6216,0.66768 -2.4902,0.31709 -1.5045,1.9979 0.71467,0.78351 -0.29678,-0.0925 -0.009,0.71503 z m 5.032,-3.2386 c -0.60286,-0.21516 -2.8326,0.98805 -1.328,-0.10274 0.24533,-0.13963 1.7046,-0.5896 1.328,0.10274 z m 13.206,-7.6517 c -1.2062,-0.59091 1.1772,-1.8531 0.6022,-2.9105 0.25856,0.1319 0.22278,1.4834 0.35694,1.974 -0.42746,0.33134 -0.28612,-0.79109 -0.78573,0.21397 -0.16948,0.18594 -0.28705,0.47758 -0.17341,0.72253 z m 1.7819,-1.0648 z m -9.0722,5.1207 c -1.4262,0.39722 0.87468,-1.9951 0.20762,-0.18918 -0.0692,0.063 -0.13841,0.12612 -0.20762,0.18918 z m -12.326,7.0535 c -0.86909,0.10618 -1.3489,-0.47726 -0.58517,-0.80311 0.1807,-0.22372 1.0037,0.60005 0.58517,0.80311 z m 17.231,-10.029 c -1.9787,0.31518 0.43297,-1.221 0.7538,-1.891 0.93877,-1.0281 -1.7678,-2.6903 -0.26882,-3.3086 -0.36217,1.2904 1.1161,2.4286 0.85254,3.6042 0.60813,0.80652 -1.9623,0.46197 -1.3375,1.5954 z m -14.289,8.1956 z m 8.0221,-4.6766 z m 11.137,-6.4298 c -0.45143,-0.37509 -1.3219,-0.27027 -0.6273,-0.71827 0.22916,-0.33967 1.1793,0.0531 0.6273,0.71827 z m -7.6671,4.4176 c -0.63033,-0.2413 -2.029,1.008 -1.2273,-0.35931 0.2369,-0.22202 1.8692,-0.26975 1.2273,0.35931 z m -14.132,8.1233 z m 5.531,-3.779 c -0.81095,-0.0436 -1.2332,-1.7377 -0.21537,-0.58812 0.0951,0.14924 0.39344,0.37834 0.21537,0.58812 z m 13.732,-8.1622 z m -3.5855,2.0611 c -0.84482,0.29404 -2.876,1.2054 -1.169,-0.044 0.96883,-1.1824 0.22318,-0.91782 1.169,0.044 z m -4.8349,2.7374 z m -5.9034,3.3993 0.0598,-0.0525 z m -7.3228,4.1557 c -1.4844,0.16606 -0.0885,-3.3654 0.093,-0.90186 0.0531,0.30278 -0.006,0.61159 -0.093,0.90186 z m 12.43,-7.3115 c -1.4008,1.0515 -0.48017,-1.6401 0.36026,-0.99378 -0.92434,0.23781 0.80178,0.75866 -0.36026,0.99378 z m 11.548,-6.7481 z m -22.56,12.8 c -0.70268,-0.003 0.75504,-0.91549 -0.24477,-0.40831 -0.85309,-1.9186 2.6724,-3.1075 3.1825,-2.0359 -1.1908,-0.0265 -2.9544,0.68206 -2.5638,1.7039 -0.35207,0.0793 0.014,0.65885 -0.37393,0.74027 z m 4.6094,-2.9406 c -2.0347,1.0412 0.6552,-1.4857 0.70577,-0.6828 -1.0136,0.17198 0.39722,0.17993 -0.70577,0.6828 z m 7.4332,-4.3546 c -0.54006,-0.4887 1.9679,-1.8567 0.65078,-0.47893 -0.2005,0.18037 -0.41698,0.34392 -0.65078,0.47893 z m -14.643,8.4092 z m 26.124,-15.101 c -0.49441,0.10849 -0.0855,-0.73467 -0.52526,-0.66117 0.3182,-0.1017 0.53372,0.41432 0.52526,0.66117 z m -21.413,12.336 z m 17.957,-10.503 z m 4.8655,-2.8091 z m -7.5645,4.2052 c -0.31242,0.39559 -1.4378,0.40071 -0.70464,-0.22393 -1.0624,0.16044 2.1541,-2.3223 0.83678,-0.43407 -0.0446,0.20699 -0.23289,0.43444 -0.13214,0.658 z m -2.752,1.4447 c -0.52962,0.24277 -1.8973,-0.15263 -1.099,-0.45351 0.27488,0.21093 1.548,-0.28169 1.099,0.45351 z m 7.1476,-4.1627 c -0.81821,0.47726 -3.2771,0.13323 -1.1545,-0.36486 1.814,0.20393 0.52514,-2.4689 1.1706,-2.3422 0.13304,0.77544 1.0352,1.9775 -0.14414,2.1311 l -0.003,0.19737 0.1312,0.37853 z m 2.0611,-1.19 z m -14.366,8.0779 z m -4.8868,2.8034 z m 18.863,-10.917 z m -24.271,14.004 z m 6.1018,-3.8202 c -1.1598,0.4525 -0.75413,-0.48631 -1.5182,0.28415 -0.61609,0.48514 -1.9533,0.42687 -0.6877,-0.32217 0.78066,-1.1709 0.35598,0.23915 1.3283,-0.42454 0.69443,-0.51064 1.3285,-0.59138 0.87763,0.46256 z m 17.417,-10.128 z m -12.181,7.0238 c -2.1454,-0.0505 1.3363,-1.829 1.4718,-2.4295 1.4213,-0.0366 -1.6998,1.7311 -1.4718,2.4295 z m 13.735,-8.1554 c -0.84961,-0.61601 -0.29038,-1.2045 0.0846,-1.2666 -0.43346,-0.52814 -0.55264,-1.7364 0.10541,-0.55517 0.98135,1.2063 -0.10353,0.96902 -0.19005,1.8217 z m -10.043,5.7803 c -0.70986,-1.0428 3.1353,-2.0626 1.0596,-0.79561 -0.34603,0.26505 -0.78656,0.44859 -1.0596,0.79561 z m 8.8478,-5.3065 z m -25.679,14.718 z m 0.80715,-0.88049 c -0.46005,-1.0836 1.1092,-3.3721 2.2925,-2.4478 -1.8139,-0.007 -1.3757,1.6191 -2.2925,2.4478 z m -1.7947,1.0272 c -0.97196,-0.84769 0.8422,-1.9685 0.21149,-0.342 l -0.086,0.18166 -0.12548,0.16034 z m 4.2812,-2.5258 z m 19.582,-11.387 z m -4.5973,2.6182 z m 7.4622,-4.5696 z m -14.256,8.2216 z m -7.7854,4.3688 c -0.13084,-0.93691 1.0704,-3.3896 1.9878,-2.2236 -0.53759,0.63598 -1.7066,0.76527 -1.7482,1.9704 l -0.23957,0.25318 z m 3.4945,-2.0626 c -1.3122,0.66566 -0.8251,-2.1454 -0.0799,-0.43674 l 0.0964,0.23777 z m 9.4694,-5.4941 c -0.89069,0.5898 -2.2833,-0.63511 -0.68893,-0.27572 0.2067,0.0436 0.81561,-0.1115 0.68893,0.27572 z m 5.3788,-3.1686 c -1.0162,0.40622 -1.9465,-0.80563 -0.39349,-0.37673 0.16974,0.0465 0.3876,0.17266 0.39349,0.37673 z m -2.7624,1.5048 z m 5.7396,-3.4489 0.056,-0.1672 z m -6.5108,3.705 c -0.82663,-0.0841 -1.1028,-1.1922 -0.0106,-0.67791 0.71191,-0.67263 1.3536,-1.3508 0.71603,0.0269 -0.0109,0.49844 -1.3052,0.13972 -0.70548,0.651 z m -5.3947,3.0786 z m 13.131,-7.6262 z m -2.6038,1.4673 c -0.40246,-0.33204 -1.1209,0.025 -0.88818,-0.48733 0.32397,0.006 0.76856,0.15369 0.88818,0.48733 z m -11.59,6.5654 z m -12.671,7.2525 z m 6.3974,-3.7296 z m 18.832,-11.08 z m -8.5111,4.8598 c -0.96413,-0.65669 2.1489,-1.9646 0.50129,-0.46682 -0.14787,0.17427 -0.30914,0.34066 -0.50129,0.46682 z m 4.2773,-2.5326 c -1.4003,0.0106 -0.34807,-2.6778 -0.27077,-0.59012 0.11123,0.18581 0.21634,0.3787 0.27077,0.59012 z m 2.027,-1.2334 c -1.3983,0.2281 -0.49253,-3.1276 -0.41931,-0.89355 0.0727,0.38814 0.76915,0.34278 0.41931,0.89355 z m -25.9,14.77 c -0.51745,-0.56053 -1.3031,-3.052 -0.70905,-3.0101 0.48055,0.90685 0.93685,1.9651 0.70905,3.0101 z m 16.126,-9.3372 c -0.56746,-0.54466 1.2011,-0.43385 -1e-5,0 z m 11.218,-6.585 c -1.1042,0.18859 -0.7413,-0.60717 -0.60368,-0.88244 -0.18976,-2.2806 0.58386,0.47435 0.60368,0.88244 z m 1.9971,-1.2071 z m -12.396,7.1206 c -0.19038,-0.91897 -3.8346,0.59516 -1.6479,-0.40809 0.65224,-0.27798 1.9806,-0.19285 2.2696,-0.13892 -0.18926,0.20227 -0.40411,0.37681 -0.62175,0.54701 z m -7.1957,4.0013 c -1.148,-0.34925 -0.45618,-2.3766 0.39677,-2.1534 0.70668,-0.64611 0.9497,-0.98417 1.6896,-1.3113 1.4744,0.41405 -0.83834,1.4131 -1.284,1.8742 -1.0828,0.0761 -0.47951,0.97455 -0.80241,1.5905 z m 3.8719,-2.2985 z m -11.991,6.8691 z m -0.44914,0.20525 z m 1.8669,-1.1049 z m 25.259,-14.601 c -1.0388,0.009 0.13896,-1.3526 -0.52182,-1.8592 0.0908,0.10048 1.168,1.7054 0.52182,1.8592 z m 0.60868,-0.45954 c -0.0217,-1.665 -1.8679,-2.467 -1.1754,-4.2174 -1.1297,-1.7041 1.7856,1.5095 0.30344,0.4972 -0.2248,1.3779 1.0514,2.2527 1.3791,3.1637 -0.1045,0.23217 -0.2726,0.4421 -0.50716,0.55652 z m -22.32,12.778 c -1.7116,0.27042 0.90268,-2.5094 -0.0336,-0.51762 -0.13172,0.18997 0.26909,0.36363 0.0336,0.51762 z m -2.8879,1.5682 c -1.5582,0.22786 0.92528,-2.5521 0.0801,-0.3149 l 0.0293,0.17103 z m 26.268,-15.211 c -1.2844,-0.13198 -0.98761,-3.1893 -0.5698,-1.1552 0.20056,0.3753 0.58146,0.69516 0.5698,1.1552 z m -9.4912,5.3626 c -0.54725,-1.179 0.6039,-2.3824 1.5831,-1.2908 -0.89956,0.11915 -1.3985,0.40281 -1.5831,1.2908 z m -19.365,11.108 c -0.93828,-0.72284 1.4366,-2.3474 0.34222,-0.66354 -0.0792,0.23393 -0.12529,0.50736 -0.34222,0.66354 z m 18.062,-10.446 z m -0.45228,0.15299 c -1.802,0.84911 -0.17728,-2.0404 0.35572,-1.6708 -0.41322,0.62349 -0.74181,0.86644 -0.1548,1.4213 l -0.20092,0.24948 z m -13.471,7.5522 z m 3.094,-1.8043 c -0.92457,0.79679 -1.8474,-0.49784 -0.33964,-0.32982 0.16097,-0.0465 0.69686,0.11779 0.33964,0.32982 z m 16,-9.31 c -0.76459,0.0729 -2.1769,-0.66355 -0.63607,-0.44994 0.26424,0.038 0.55138,0.17363 0.63607,0.44994 z m 1.824,-1.1792 z m 1.1843,-1.1793 -0.16743,-0.002 z m -12.259,7.06 c -0.0241,-0.8274 2.4705,-2.2785 1.0636,-0.86287 -0.34811,0.29534 -0.73539,0.54449 -1.0636,0.86287 z m -2.3674,1.0965 z m 13.002,-7.5066 z m -3.0826,1.7617 z m 2.7735,-1.6103 c -1.0556,0.0575 -0.0886,-1.4282 0.0437,-1.6283 -0.25548,-0.873 -0.21336,-1.6252 0.27081,-0.36691 0.41058,0.69591 -0.0492,1.357 -0.3145,1.9952 z m -5.7347,3.2388 z m 2.6622,-1.6001 c -0.70537,0.40839 -0.20191,-1.3136 -0.70164,-0.35695 -0.31654,-0.81824 0.74551,-1.7317 0.59845,-0.43044 0.47595,0.0304 0.005,0.54421 0.10319,0.78739 z m 4.6067,-2.6957 c -0.78684,-0.22588 -0.44081,-1.337 -0.38959,-1.646 0.54503,-0.49907 -0.73786,-1.5688 0.33278,-0.48283 0.56477,0.75696 -0.14063,1.409 0.24363,2.0358 l -0.18682,0.0931 z m -0.18064,0.0773 z m -2.8918,1.5615 c -0.6474,-0.40565 0.0379,-1.6037 0.12176,-1.825 0.2605,1.2649 1.353,0.7691 -0.12176,1.825 z m -15.09,8.5864 c -1.2126,0.64998 0.15348,-1.1878 0,-10e-6 z m -3.1954,1.6286 c -1.5374,-0.26982 1.5087,-2.3229 0.10221,-0.63687 -0.10048,0.20709 0.0638,0.45068 -0.10221,0.63687 z m -3.8828,2.2327 c -0.2316,-0.84438 2.0272,-3.2896 1.0071,-1.3004 -0.2959,0.46143 -0.59622,0.93086 -1.0071,1.3004 z m -1.3994,0.6818 c -0.13222,-0.86969 -1.4121,0.71508 -0.55868,-0.7921 0.34098,-0.82974 1.8302,-1.9557 0.60813,-0.47948 -0.14312,0.41877 0.18122,0.8655 -0.0495,1.2716 z m 18.869,-10.984 c -0.78289,-0.98461 0.73858,-2.8161 1.6398,-1.5883 -1.1758,-0.28015 -1.1506,0.9162 -1.6398,1.5883 z m -4.3899,2.4624 z m -0.22147,0.0378 z m -7.0603,3.9862 c -1.002,0.81879 -1.4964,-0.78014 -0.14079,-0.29993 0.0809,0.045 0.30785,0.19439 0.14079,0.29993 z m 10.19,-6.0094 c -1.5699,-0.005 0.14406,-2.4331 -0.1364,-0.57771 l 0.0992,0.28645 0.0373,0.29126 z m -13.236,7.6151 z m 12.033,-6.9835 z m -4.7388,2.5917 c -2.3557,-3.5867 -4.2975,-7.433 -6.1209,-11.306 -0.16993,-2.1829 0.74109,0.70452 0.96538,1.4469 0.52667,1.5358 1.5896,2.8128 2.2172,4.3097 0.82845,1.709 1.7677,3.3642 2.889,4.9024 -0.11042,0.20718 0.0148,0.44432 0.0494,0.64728 z m 2.1974,-1.6561 c -0.96094,-0.97204 2.3204,-2.061 0.70654,-0.86744 -0.59533,-0.43264 -0.37943,0.76282 -0.70654,0.86744 z m 8.9346,-5.3747 c -0.62077,0.71237 -2.5313,-0.13694 -0.89555,-0.42797 0.25321,-0.0832 1.2737,-0.0867 0.89555,0.42797 z m -10.912,6.21 z m 6.3664,-4.1892 z m -19.263,11.113 z m 5.7175,-3.4091 c -1.4405,-0.20851 1.8673,-2.4037 0.45562,-0.79288 -0.1977,0.24061 -0.16168,0.62188 -0.45562,0.79288 z m 8.7865,-5.163 c -0.6647,-0.49404 1.1659,-0.91632 0.0308,-0.0305 z m 10.554,-6.1116 c -1.8188,0.32606 0.66513,-1.8558 -0.65649,-2.6664 0.90148,0.22918 1.1273,1.525 0.71399,2.2158 0.34976,0.25008 0.0683,0.32931 -0.0575,0.45062 z m -9.3841,5.2828 c -0.42717,-1.0341 1.8426,-2.4134 1.2989,-1.5062 -0.72836,0.15367 -0.97679,0.938 -1.2989,1.5062 z m 6.1378,-3.5707 c -0.94117,0.39826 -0.32698,-0.5356 -1e-5,-1e-5 z m -8.8916,5.0434 z m -5.0384,2.8999 c -1.624,0.84124 -0.45076,-1.3917 0.0971,-0.0793 z m 15.453,-8.9577 c -0.69335,-0.63006 -0.20513,-3.1261 0.3824,-1.1369 0.094,0.39343 0.0721,0.96826 -0.3824,1.1369 z m -20.412,11.776 c -2.1822,0.57263 1.2771,-2.5613 -0.007,-0.63034 -0.34398,0.25431 0.40411,0.44228 0.007,0.63034 z m 15.853,-9.3873 c -0.60362,-0.86476 0.26536,-2.9984 1.2954,-1.6579 -1.1518,-0.35858 -0.7812,1.1473 -1.2954,1.6579 z m 7.639,-4.4194 c -1.4208,0.15124 0.0851,-1.6642 -0.81288,-2.4252 1.1295,0.73164 0.85192,1.6581 0.81288,2.4252 z m -27.421,15.742 z m 5.6107,-3.2664 z m 22.962,-13.383 c -1.2281,0.15408 -0.68763,-2.8597 -0.0975,-1.0429 -0.47997,0.36262 0.53789,0.62872 0.0975,1.0429 z m -6.2732,3.5858 z m 7.5826,-4.486 c -0.56844,0.33273 -1.9943,-0.72497 -0.71658,-0.50845 -0.62232,-0.20835 -1.7428,-1.6316 -0.52116,-0.54294 0.36866,0.39885 0.80566,0.72569 1.2377,1.0514 z m -15.344,8.6156 c -0.4838,-0.6118 1.331,-1.2119 0.1832,-0.16303 -0.0576,0.0573 -0.12304,0.10795 -0.1832,0.16303 z m -13.579,7.5518 c -1.0388,-0.14355 1.6422,-1.8083 0.33901,-0.29518 -0.0975,0.1143 -0.22765,0.19524 -0.33901,0.29518 z m 14.722,-8.725 z m -0.54563,0.0538 z m -9.8327,5.6138 z m 0.49902,-0.30613 c -0.86057,-1.1168 2.669,-2.1244 0.83779,-0.93508 -0.10098,0.43126 -0.45496,0.74719 -0.83779,0.93508 z m 17.345,-10.05 c -0.74249,0.61493 -2.598,-0.073 -0.92283,-0.44104 0.25938,-0.0122 1.2736,-0.0925 0.92283,0.44104 z m -4.4716,2.3834 z m -6.0182,3.4656 z m -4.2207,2.4278 z m 16.524,-9.6303 c -0.8614,0.0909 -2.4809,-0.48934 -0.86845,-0.54421 0.03,-0.85976 -0.89953,-3.1041 0.3286,-1.3055 0.11347,0.77218 -0.29769,1.3132 0.53985,1.8497 z m -11.243,6.4012 z m 0.44782,-0.28557 z m 10.857,-6.3675 -0.0994,-0.14083 z m -25.83,14.877 c -1.2719,-0.5253 -2.1893,-3.0228 -1.6915,-3.7161 0.39379,1.2949 0.84151,2.5883 1.6915,3.7161 z m 4.2425,-2.5305 c -2.3096,0.45235 1.7063,-2.6157 0.0132,-0.53194 -0.10449,0.15996 -0.0838,0.36519 -0.0132,0.53194 z m 1.6413,-1.1368 z m 10.344,-6.0081 c -1.5841,-1.3382 2.8832,-1.671 0.95925,-0.9489 -0.15476,0.48196 -0.8559,0.31594 -0.95925,0.9489 z m 5.6434,-3.3033 c -1.3274,0.34163 -0.32112,-2.4233 -0.26609,-0.54562 0.27549,0.0479 0.35306,0.30649 0.26609,0.54562 z m -2.9326,1.522 c -0.94168,-1.1584 0.2732,-2.6624 1.2795,-1.6838 -1.038,-0.12994 -1.0358,0.89468 -1.2795,1.6838 z m 9.0784,-5.2504 c -0.76486,-0.47482 -1.9613,-2.7296 -1.4447,-2.6164 0.57342,0.81934 0.90852,1.7749 1.4447,2.6164 z m -13.981,8.0268 z m 12.46,-7.2748 z m 1.9509,-1.1624 z m -1.7271,0.98816 c -1.668,0.11283 -0.24447,-1.3862 -1.1797,-2.2467 1.1755,0.47458 0.8037,1.526 1.1797,2.2467 z m -2.8271,1.5331 c -0.7308,0.36643 -1.143,-0.046 -0.73354,-0.42209 -0.48716,-1.45 0.32923,-0.49847 0.68303,0.20168 l 0.0505,0.22041 z m -22.423,12.865 c -0.86658,-0.093 -1.1577,0.46804 -0.5465,-0.70482 1.4072,-1.3462 0.91271,-0.22297 0.5465,0.70482 z m 12.933,-7.7192 c -0.44575,-0.20076 -2.837,0.5458 -1.6878,-0.17896 0.27386,0.61962 1.3075,-1.1877 1.6878,0.17896 z m 12.881,-7.5448 z m -20.285,11.45 c -2.2403,0.73933 1.6293,-2.0962 0.78501,-0.71586 -0.296,0.20076 -0.50785,0.4934 -0.78501,0.71586 z m -7.1312,3.91 -0.18135,-0.003 z m 14.468,-8.5874 c -0.48628,-0.76365 0.41146,-2.8256 0.75443,-1.6059 -0.3006,0.51247 -0.31589,1.1715 -0.75443,1.6059 z m 13.595,-7.8673 z m -28.47,16.203 z m 18.034,-10.448 z m 4.7176,-2.7688 -0.0684,-0.14966 z m -18.324,10.462 c -2.2563,0.26228 1.82,-2.2014 0.45271,-0.6862 -0.22434,0.1467 -0.70683,0.35488 -0.45271,0.6862 z m 12.663,-7.3289 z m 4.393,-2.6444 c -1.5948,-0.24019 0.86846,-1.1 0.0129,-2.1215 -0.28399,-1.8128 1.1137,0.69768 0.68148,1.346 0.53754,0.22368 -0.5517,0.64808 -0.69436,0.77554 z m -8.7814,4.7816 z m -10.795,6.1785 c -1.8124,-0.25211 0.17439,-2.368 0.41462,-1.4872 -0.34256,0.42316 -1.0847,0.94667 -0.41462,1.4872 z m 22.48,-13.02 z m -0.17522,-0.007 c -1.1842,-0.0149 -1.9319,-3.3849 -0.67316,-1.2405 0.0997,0.49624 0.11994,1.0093 0.67316,1.2405 z m -3.7913,2.1259 c -1.2682,0.57541 -0.32882,-2.0095 -0.25167,-0.32158 l 0.26606,0.0215 -0.0143,0.30005 z m -2.7649,1.5783 c -1.6347,-1.176 1.1383,-2.7212 0.99071,-1.5911 -1.3171,0.20575 -0.70253,0.82895 -0.99071,1.5911 z m -10.04,5.6612 c -1.7444,1.0362 -0.57801,-1.2153 0.45568,-0.69256 0.14555,0.30849 -0.23219,0.57351 -0.45568,0.69256 z m 15.85,-9.2053 z m -10.284,5.8927 z m 0.69967,-0.45801 z m 11.621,-6.7455 z m -27.204,15.508 z m 1.6795,-1.0237 z m 3.291,-1.9001 z m 24.525,-14.25 z m -1.3006,0.69685 z m -14.122,8.1262 z m 12.265,-7.2526 c -1.0312,0.45402 -0.41155,-2.2672 -0.63321,-1.9869 0.68407,0.49955 0.96046,1.4936 0.63321,1.9869 z m -11.177,6.219 c -1.4769,-1.228 0.63637,-2.2053 1.2472,-1.6912 -0.95202,0.34803 -1.1674,0.82834 -1.2472,1.6912 z m 2.6245,-1.8216 c -1.1057,-0.13877 -0.12896,-1.89 0.0242,-0.39384 0.0138,0.10501 0.13258,0.31744 -0.0242,0.39384 z m 9.4548,-5.5038 c -1.2278,-0.20546 -0.29687,-1.182 -0.97343,-2.0131 0.66423,0.61365 1.142,1.108 0.97343,2.0131 z m -25.771,14.636 z m 5.4524,-3.166 z m 15.513,-9.0102 z m 5.6535,-3.4262 z m -22.523,12.958 z m 15.475,-8.9346 c -2.0894,0.0978 1.0816,-1.3976 -0.20404,-2.4081 0.0182,-0.9242 1.2907,1.4778 0.57913,1.8854 0.0418,0.23932 -0.075,0.55387 -0.37509,0.52269 z m -17.458,10.025 c -0.5148,-0.32319 -1.2722,-1.5689 -0.16702,-1.1787 0.17767,-1.0092 1.481,-0.69613 0.37082,0.0337 -0.3602,0.27911 -0.54452,0.76019 -0.2038,1.145 z m 10.118,-6.04 z m -4.8658,2.7462 z m 10.854,-6.4198 c -1.056,0.25578 -0.26964,-2.1203 -0.081,-0.56934 0.44522,-0.092 0.47451,0.50223 0.081,0.56934 z m 4.2196,-2.6794 z m -0.58409,0.11196 c -0.83864,0.34338 -2.0331,0.3927 -0.85517,-0.36774 0.15212,-0.8501 -0.95703,-2.2948 0.23448,-0.94837 0.29156,0.38556 0.57631,0.82168 0.62069,1.3161 z m -10.065,5.5229 c -1.0238,-0.48371 -0.0313,-2.377 0.31965,-1.3504 -0.29371,0.38152 -0.37225,0.88228 -0.31965,1.3504 z m -11.665,6.7167 z m 23.253,-13.488 z m -18.369,10.57 c -1.4853,-0.3221 -0.10369,-1.4159 0.66161,-1.1187 1.9771,-0.44455 -1.1762,0.44738 -0.66161,1.1187 z m 10.798,-6.2521 c -1.6187,0.23987 0.55412,-2.0925 -0.81476,-2.566 1.048,0.15912 1.0453,1.6033 1.0661,2.3612 l -0.11024,0.13977 -0.14108,0.065 z m 6.7631,-3.9858 c -1.2483,0.28726 -0.67701,-3.0361 -0.0271,-0.89305 0.107,0.26811 0.25587,0.64047 0.0271,0.89305 z m -5.7212,3.231 z m -2.7408,1.3392 z m 10.316,-6.0099 z m -1.6089,0.80275 z m -23.994,13.781 c -0.62672,-0.51878 0.92393,-1.1437 0.13634,-0.20729 l -0.0312,0.11701 -0.1052,0.0903 z m 14.178,-8.1855 z m -11.714,6.7092 z m 17.716,-10.328 z m -16.351,9.3053 c -1.8135,-0.46561 0.99971,-2.5295 0.66938,-1.2984 -0.48147,0.26402 -0.85993,0.71557 -0.66938,1.2984 z m -2.4676,1.4066 c -1.4673,0.74234 1.1304,-1.447 0.19165,-0.1197 -0.0639,0.0399 -0.12777,0.0798 -0.19165,0.1197 z m 23.334,-13.535 c -1.374,0.83007 -0.57194,-2.0333 -0.005,-0.28294 -0.009,0.085 0.0393,0.21189 0.005,0.28294 z m -6.0221,3.4589 c -0.75944,-0.16014 -1.7417,0.27456 -0.60407,-0.54928 0.50657,-0.62013 -0.66883,-2.3785 0.47977,-1.0291 0.49979,0.36016 0.39809,1.1111 0.1243,1.5784 z m -3.7063,2.0858 z m -8.1912,4.3057 z m 18.783,-10.961 z m -0.44943,0.14234 z m -22.459,12.913 z m 18.63,-10.81 z m -13.376,7.6863 c -0.5904,0.35757 -2.5396,0.46465 -1.2736,-0.0783 0.28534,0.0744 1.8188,-0.80377 1.2736,0.0783 z m 15.57,-9.0347 z m -21.789,12.418 z m 13.112,-7.6426 c -1.6016,0.3838 -0.84652,-1.0443 0.30889,-0.59323 0.82625,-0.77103 0.85991,-0.0396 -0.0831,0.22699 l -0.19045,0.18507 -0.0353,0.18117 z m -1.3904,0.54142 z m -1.173,0.66822 z m 0.89383,-0.54306 z m 7.1457,-4.1346 c -0.85454,0.48912 -1.8294,0.54411 -0.68816,-0.27946 -0.84741,-1.4952 0.31829,-0.56315 0.68816,0.27946 z m 2.0416,-1.2238 z m 1.4552,-0.97531 c -1.2944,-0.0223 -0.10048,-1.6223 0.5515,-0.70114 -1.0464,-0.40424 -0.52435,0.0664 -0.5515,0.70114 z m -19.409,11.079 z m 16.943,-9.8093 z m -21.198,12.085 z m 20.377,-12.071 c -0.56834,-0.24431 0.92465,-0.81174 0.0387,-1.1035 1.0146,0.28011 0.75036,0.78323 -0.0387,1.1035 z m -20.189,11.647 z m 1.6382,-0.95482 z m 14.106,-8.1532 z m -1.7676,1.0116 c -0.17405,-0.59439 -0.84016,-1.7142 0.10627,-0.61604 0.0788,0.19718 0.098,0.4788 -0.10627,0.61604 z m -8.2119,4.6601 z m 16.056,-9.2701 z m 0.68405,-0.48505 z m -10.505,5.822 z m 4.3054,-2.5308 z m -0.55,0.248 c -1.3354,1.2396 -0.51454,-2.1014 -0.0312,-0.26986 -0.003,0.0801 0.0615,0.20352 0.0312,0.26986 z m -16.637,9.5601 z m 5.7711,-3.3319 c -1.5595,0.8766 -1.0152,-0.84238 0.16905,-0.21304 l -0.0335,0.0926 -0.13556,0.12041 z m 16.327,-9.4716 z m 0.5946,-0.57756 c -1.2696,0.15333 -0.0303,-1.3334 -0.19488,-0.44142 -0.91374,0.42928 0.71686,0.056 0.19488,0.44142 z m -19.646,11.324 z m 16.905,-9.8139 z m -6.7359,3.7989 c -1.2068,0.828 -1.2885,0.0726 -0.2582,-0.51269 0.69852,-0.25806 1.0304,0.18337 0.2582,0.51269 z m 4.5723,-2.802 c -2.2799,-0.19067 1.6496,-1.4262 0.77087,-0.75195 -0.52416,-0.1129 -0.29402,0.68013 -0.77087,0.75195 z m 5.3039,-3.2514 -0.0648,0.0284 z m -17.037,9.7555 z m 14.92,-8.632 c -1.2582,0.25142 -0.98559,-1.0275 -0.15239,-0.23851 0.023,0.026 0.2608,0.14461 0.15239,0.23851 z m -17.576,9.9311 z m 16.624,-9.6607 c -1.1643,0.28886 -1.6898,-0.81859 -0.29532,-0.22846 z m -3.7981,2.1298 z m 5.2554,-3.0702 z m -20.873,12.024 z m 1.7008,-1.018 z m 0.46906,-0.5141 c -0.72333,-0.66551 1.8772,-0.65041 0.20487,-0.13131 -0.0683,0.0438 -0.13658,0.0875 -0.20487,0.13131 z m 16.039,-9.1432 z m -11.658,6.7128 c -0.87258,0.34859 -1.3149,-0.0266 -0.25101,-0.28353 0.17445,-0.62527 -0.49802,-2.9192 0.47077,-1.3214 0.25689,0.53248 0.0776,1.1322 -0.21976,1.6049 z m 6.6581,-3.8711 c -1.7943,-0.22774 0.3499,-1.2051 1.009,-0.83241 -0.34274,0.26628 -0.80561,0.41662 -1.009,0.83241 z m -9.8538,5.6711 0.0164,-0.0184 z m 0.58088,-0.39845 z m -3.9819,2.1548 z m 19.83,-11.74 z m 0.82389,-0.6018 z m -19.878,11.468 z m 3.4106,-2.0051 z m 12.434,-7.2418 z m -14.118,8.07 c -0.66059,-0.83488 1.9998,-1.6394 0.22262,-0.70339 -0.15142,0.22286 0.19238,0.62042 -0.22262,0.70339 z m -0.0358,-0.65508 c 0.074,-0.77627 1.3355,-1.1426 0.27234,-0.24637 z m -1.0093,1.1234 z m 17.805,-10.361 c -1.3393,0.39532 -0.346,-1.2196 -0.15639,-0.28315 0.14153,-0.0545 0.35826,0.20303 0.15639,0.28315 z m -8.4583,4.7483 c -1.7382,0.16508 0.69864,-1.8021 0.54671,-0.57153 -0.89172,-0.48399 -0.29419,0.23474 -0.54671,0.57153 z m 9.2783,-5.3568 z m -4.7748,2.7478 c -0.77422,0.63086 -3.7335,-0.40815 -1.4182,-0.2765 0.47129,0.0327 1.0101,-0.005 1.4182,0.2765 z m 3.0573,-1.7742 z m -5.7228,3.0878 z m -8.0185,4.6205 z m 12.88,-7.4364 z m -3.6328,2.0884 z m 2.7204,-1.7959 c -0.8968,-0.0534 -3.4394,0.31044 -3.0837,-0.31882 1.0379,-0.2227 2.0509,0.30135 3.0837,0.31882 z m 0.4846,-0.72129 c -0.63432,-0.39675 -3.3368,0.0913 -1.2693,-0.39035 0.55918,0.0625 1.4463,-0.39433 1.2693,0.39035 z m -5.1829,2.8212 z m -9.7545,5.5777 z m 12.422,-7.1991 z m -12.023,6.9234 z m 8.5726,-5.1746 c -1.0195,0.072 -1.6953,-0.77168 -0.21326,-0.52365 0.81054,-0.30144 0.66772,0.0614 0.21326,0.52365 z m -7.2544,4.0712 z m 2.1014,-1.2763 c 0.47215,-1.3921 -1.9722,0.92048 -0.56307,-0.65056 0.61924,-0.55255 1.1777,-1.6785 0.97038,-0.0814 -0.0499,0.2329 -0.0717,0.71365 -0.40731,0.73203 z m -1.4848,0.19051 z m 7.0743,-4.1023 z m -4.6888,0.97713 z"
       fill="#f0edec" />
    <path
       id="path6354"
       d="m 145.88,36.619 -3.3399,0.0361 c -2.2423,-2.8489 -4.453,-6.1053 -6.5133,-9.6739 -2.1831,-3.7812 -3.971,-7.5326 -5.3494,-11.076 l 1.6093,-2.8933 c 1.5617,3.511 4.1653,8.4785 6.3116,12.196 2.1089,3.6528 5.0621,8.3424 7.2817,11.411 z"
       fill="url(#linearGradient4085)"
       style="fill:url(#linearGradient4085)" />
    <path
       id="path6356"
       d="m 160.87,34.229 -3.4187,2.0185 c -7.841,-5.4744 -15.602,-22.185 -19.348,-32.126 l 3.9006,-2.2794 c 1.7738,9.0239 13.335,28.079 18.867,32.387 z"
       fill="url(#linearGradient4087)"
       style="fill:url(#linearGradient4087)" />
    <path
       id="path6358"
       fill="url(#linearGradient4089)"
       d="m 97.446,58.889 c -3.5949,3.7361 -8.0838,7.1434 -9.6772,12.287 -1.2946,4.63 -1.1581,15.784 -3.289,20.157 -1.8408,2.4896 -5.3194,1.8289 -7.6623,0.52942 -3.1794,-1.8972 -3.2988,-12.172 -5.2731,-14.977 -1.4503,-2.0272 -3.9083,-2.8812 -6.208,-3.4657 -3.8671,-2.1156 -6.1779,-6.0355 -8.9631,-9.2741 -0.74493,-1.2044 1.0515,-1.5586 1.7301,-2.1698 12.714,-8.0596 25.428,-16.119 38.141,-24.179 0.40047,7.031 0.80094,14.062 1.2014,21.093 z"
       style="fill:url(#linearGradient4089)" />
    <path
       id="path6360"
       filter="url(#filter10006)"
       fill-opacity="0.39216"
       transform="matrix(-1.018,0,0,1.018,919.74,-899.06)"
       d="m 809.87,940.42 c 0,0 7.034,6.1106 7.8866,8.8151 0.8526,2.7047 1.9184,10.819 2.6644,11.42 0.74603,0.6009 1.1723,1.5025 1.9184,1.803 0.74603,0.3006 5.1161,-0.3928 6.3219,-2.0928 1.2058,-1.6999 2.6978,-7.9332 6.3303,-7.9332 3.6324,0 9.6461,-2.4998 9.6461,-2.4998 l -33.762,-20.116 z" />
    <path
       id="path6362"
       fill="#1e1e1e"
       d="m 97.446,58.889 -32.11,14.53 c 0,0 -6.1779,-6.0355 -8.9631,-9.2741 -0.74493,-1.2044 1.0515,-1.5586 1.7301,-2.1698 12.714,-8.0596 25.428,-16.119 38.141,-24.179 0.40047,7.031 1.2014,21.093 1.2014,21.093 z" />
    <path
       id="path6364"
       d="M 131.03,16.569 C 112.144,29.474 48.075,69.61 29.26,82.539 c -1.1885,0.68621 -0.65465,3.8288 1.183,7.0118 1.8376,3.1829 4.2884,5.2098 5.477,4.5236 20.606,-9.954 86.125,-47.431 106.72,-57.426 -2.2876,-2.7656 -4.5411,-5.9926 -6.6086,-9.5737 -2.0659,-3.5782 -3.7426,-7.1448 -4.9936,-10.506 z"
       fill="#3c3c3c" />
    <path
       id="path6366"
       opacity="0.33"
       d="M 295.86,315.93 22.14,291.291 v -0.15625 c -0.16963,0.0231 -211.19,-5.7634 -211.36,-5.7634 -5.4963,0 -9.9375,-11.969 -9.9375,-26.688 l 490.1,1.6694 c -2.396,14.172 1.1998,-12.404 1.1998,4.1565 0,16.547 1.3265,37.257 3.7188,51.42 z"
       transform="matrix(0.21625,-0.12485,-0.11275,-0.19529,102.8,114.93)"
       filter="url(#filter5184)"
       fill="url(#linearGradient4091)"
       style="fill:url(#linearGradient4091)" />
    <path
       id="path6368"
       opacity="0.33"
       d="M -182.33,98.307 307.1,85.891"
       stroke-opacity="0.97647"
       transform="matrix(0.21625,-0.12485,-0.12485,-0.21625,85.669,91.752)"
       filter="url(#filter10101)"
       stroke="#ffffff"
       stroke-width="4"
       fill="none" />
  </g>
  <metadata
     id="metadata56">
    <rdf:RDF>
      <cc:Work>
        <dc:format>image/svg+xml</dc:format>
        <dc:type
           rdf:resource="http://purl.org/dc/dcmitype/StillImage" />
        <cc:license
           rdf:resource="http://creativecommons.org/publicdomain/zero/1.0/" />
        <dc:publisher>
          <cc:Agent
             rdf:about="http://openclipart.org/">
            <dc:title>Openclipart</dc:title>
          </cc:Agent>
        </dc:publisher>
        <dc:title>Microphone</dc:title>
        <dc:date>2013-04-22T08:06:48</dc:date>
        <dc:description>microphone, microphone stand, karaoke, speech</dc:description>
        <dc:source>https://openclipart.org/detail/177369/microphone-by-mirek2-177369</dc:source>
        <dc:creator>
          <cc:Agent>
            <dc:title>Mirek2</dc:title>
          </cc:Agent>
        </dc:creator>
        <dc:subject>
          <rdf:Bag>
            <rdf:li>karaoke</rdf:li>
            <rdf:li>microphone</rdf:li>
            <rdf:li>microphone stand</rdf:li>
            <rdf:li>speech</rdf:li>
          </rdf:Bag>
        </dc:subject>
      </cc:Work>
      <cc:License
         rdf:about="http://creativecommons.org/publicdomain/zero/1.0/">
        <cc:permits
           rdf:resource="http://creativecommons.org/ns#Reproduction" />
        <cc:permits
           rdf:resource="http://creativecommons.org/ns#Distribution" />
        <cc:permits
           rdf:resource="http://creativecommons.org/ns#DerivativeWorks" />
      </cc:License>
    </rdf:RDF>
  </metadata>
</svg>
