<?xml version="1.0" encoding="UTF-8" standalone="no"?>
<svg
   xmlns:dc="http://purl.org/dc/elements/1.1/"
   xmlns:cc="http://creativecommons.org/ns#"
   xmlns:rdf="http://www.w3.org/1999/02/22-rdf-syntax-ns#"
   xmlns:svg="http://www.w3.org/2000/svg"
   xmlns="http://www.w3.org/2000/svg"
   xmlns:sodipodi="http://sodipodi.sourceforge.net/DTD/sodipodi-0.dtd"
   xmlns:inkscape="http://www.inkscape.org/namespaces/inkscape"
   id="svg2"
   sodipodi:docname="mop.svg"
   version="1.1"
   inkscape:version="1.0.2-2 (e86c870879, 2021-01-15)"
   viewBox="0 0 332.59842 472.44095"
   width="88mm"
   height="125mm">
  <defs
     id="defs85" />
  <sodipodi:namedview
     id="namedview194"
     bordercolor="#666666"
     inkscape:pageshadow="2"
     guidetolerance="10"
     pagecolor="#ffffff"
     gridtolerance="10"
     inkscape:window-maximized="1"
     inkscape:zoom="0.95626158"
     objecttolerance="10"
     borderopacity="1"
     inkscape:current-layer="svg2"
     inkscape:cx="241.96642"
     inkscape:cy="206.85268"
     inkscape:window-y="-8"
     inkscape:window-x="-8"
     inkscape:window-width="1920"
     showgrid="false"
     inkscape:pageopacity="0"
     inkscape:window-height="1017"
     inkscape:document-rotation="0"
     units="mm" />
  <path
     id="path6"
     d="m 150.92342,435.81884 -1.95683,-1.18392 -0.57968,-2.35555 -0.57969,-2.35557 -1.95683,-1.18391 -3.91366,-2.36783 -3.81703,-1.97524 -3.91365,-2.36783 -3.81705,-1.97524 -3.91364,-2.36784 -3.91367,-2.36783 -3.81704,-1.97523 -3.81703,-1.97525 2.37397,-5.58063 2.37396,-5.58064 1.98138,-5.48404 1.49216,-5.78 0.8036,-5.19418 1.00297,-6.07599 -0.0782,-5.39355 -0.0782,-5.39355 0.0122,-3.33397 0.50148,-3.038 0.89409,-3.13459 0.89406,-3.13462 1.28667,-3.23121 1.67926,-3.32784 1.38328,-2.83863 1.38328,-2.83862 1.77587,-2.93525 2.26508,-2.63927 2.16847,-3.03184 1.77588,-2.93524 1.77587,-2.93524 2.26508,-2.63927 1.67926,-3.32783 2.26508,-2.63927 -0.0966,-0.39259 L 329.08602,12.662411 319.30187,6.7428302 137.25638,312.60602 l -0.3926,0.0966 0.0966,0.39259 -2.07185,3.42444 -2.16847,3.03187 -2.07184,3.42444 -2.07186,3.42445 -2.07185,3.42445 -1.67927,3.32784 -2.46445,3.52106 -1.67925,3.32784 -1.18392,1.95682 -1.57651,2.05344 -1.18392,1.95683 -1.67311,1.66085 -1.67312,1.66084 -1.67313,1.66084 -1.76974,1.26826 -2.16233,1.36489 -2.06572,1.75745 -1.76973,1.26826 -2.25894,0.97228 -1.769732,1.26824 -2.25895,0.97228 -2.25895,0.97228 -2.16232,1.36487 -2.25895,0.97228 -3.7327,1.75133 -3.63609,2.1439 -3.05027,2.83251 -3.05027,2.83249 -2.56105,3.12846 -2.56107,3.12847 -2.464441,3.52106 -2.464442,3.52107 -0.785186,0.19322 -2.44604,-1.47989 -2.446032,-1.47989 -2.838627,-1.38329 -2.838627,-1.38328 -2.446034,-1.4799 -2.446037,-1.4799 -2.838626,-1.38327 -2.838628,-1.38328 -1.467619,-0.88793 -1.467623,-0.88795 -1.46762,-0.88793 -1.564236,-1.28053 -1.860212,-0.79133 -1.763601,-0.39873 -1.763598,-0.39873 -1.962965,0.48308 -0.688572,0.58582 -0.591959,0.97841 -0.98455,1.07502 -0.688571,0.58583 -0.8818,-0.19936 -0.881801,-0.19937 -1.081164,0.68243 -0.785186,0.19324 -0.591959,0.9784 -0.591958,0.97842 -0.688571,0.58581 -0.688572,0.58583 -0.984552,1.07502 -0.591958,0.97842 -0.295978,0.48921 -0.688572,0.58583 -2.065717,1.75745 -1.673123,1.66084 -2.065714,1.75748 -1.57651,2.05344 -1.969102,2.15005 -1.087302,2.34942 -1.0873011,2.34942 -1.087303,2.34942 0.289843,1.17779 0.682434,1.08115 0.193228,0.78519 1.0750271,0.98455 3.42445,2.07185 3.327832,1.67926 2.935241,1.77588 3.817043,1.97524 3.424447,2.07184 2.935241,1.77589 3.327835,1.67925 3.817042,1.97525 2.446035,1.47989 2.446034,1.47989 2.838627,1.38329 2.838628,1.38328 2.34942,1.0873 2.935241,1.77588 2.446035,1.47989 2.838627,1.38328 29.557919,15.20995 12.918742,6.81366 3.03186,2.16846 3.03185,2.16847 3.32784,1.67927 3.42444,2.07185 3.32783,1.67925 2.93525,1.77588 3.42445,2.07186 2.63926,2.26507 0.4892,0.29598 0.0966,0.39259 0.39259,-0.0966 1.17779,-0.28984 1.17777,-0.28984 1.17777,-0.28985 1.17779,-0.28984 1.17777,-0.28983 1.08118,-0.68245 1.08116,-0.68244 1.08116,-0.68242 2.16233,-1.36487 1.96911,-2.15006 1.67312,-1.66085 1.87249,-2.54265 1.57651,-2.05344 1.47989,-2.44603 1.57651,-2.05344 1.5765,-2.05344 0.49535,-1.37101 0.59196,-0.97841 0.49535,-1.37101 0.49534,-1.37101 0.49535,-1.37101 0.19936,-0.8818 -0.68244,-1.08116 z"
     style="stroke-width:0.404307" />
  <path
     id="path8"
     style="fill:#eabca0;stroke-width:0.404307"
     d="m 135.51568,439.19419 -0.39259,0.0966 -1.46763,-0.88794 -1.95682,-1.18391 -1.46762,-0.88794 -1.95683,-1.18391 -1.86021,-0.79133 -1.95683,-1.18391 -1.86022,-0.79133 -1.46761,-0.88793 -1.95683,-1.18392 -2.44604,-1.47989 -1.95682,-1.18392 -2.34943,-1.0873 -2.34943,-1.0873 -1.95682,-1.18391 -1.95683,-1.18391 -2.05344,-1.57652 -1.66698,-0.006 -1.56424,-1.28053 -1.564232,-1.28053 -1.76359,-0.39873 -2.54266,-1.87249 -3.42445,-2.07185 -4.79545,-2.5672 -4.89206,-2.95979 -4.79546,-2.56719 -4.40287,-2.66381 -3.424443,-2.07185 -2.446037,-1.4799 -1.763599,-0.39872 -1.371007,-0.49535 -1.860212,-0.79132 -1.075029,-0.98457 -1.46762,-0.88792 -1.075028,-0.98457 -1.467621,-0.88792 -1.371009,-0.49535 -0.978411,-0.59196 -2.838627,-1.38327 -4.306249,-2.27123 -4.402863,-2.66381 -4.795454,-2.56719 -4.402862,-2.66382 -3.327834,-1.67926 -1.860213,-0.79131 -0.289843,-1.17779 -0.289841,-1.17778 -0.289843,-1.17777 0.495345,-1.37101 -2.162329,1.36487 -1.183916,1.95682 -1.280531,1.56424 -1.28053,1.56424 -1.377144,1.17164 -1.769736,1.26825 -1.377146,1.17164 -1.769735,1.26826 -1.280532,1.56423 110.096101,59.92734 z" />
  <path
     id="path10"
     style="fill:#c4967a;stroke-width:0.404307"
     d="m 10.361471,394.2145 -0.102753,1.27439 -0.102749,1.27439 -0.1993661,0.8818 1.0750291,0.98455 4.306247,2.27122 4.306247,2.27122 4.30625,2.27121 4.402861,2.66382 4.306247,2.27121 4.306249,2.27123 4.402862,2.6638 4.69884,2.17461 0.881801,0.19936 2.446034,1.4799 3.327834,1.67925 4.795455,2.5672 5.77387,3.15916 5.870481,3.55175 7.048258,3.2619 6.8489,4.14371 7.14488,3.6545 6.84889,4.1437 6.655672,3.35853 6.26308,3.45513 4.89207,2.95978 4.40286,2.66382 3.42445,2.07185 1.95683,1.18392 1.07502,0.98456 1.37102,0.49534 1.27438,0.10274 1.17778,-0.28984 1.57037,-0.38646 1.47377,-0.77905 1.47374,-0.77903 1.17779,-0.28985 2.36169,-2.24667 1.87249,-2.54265 2.26509,-2.63926 2.26507,-2.63926 1.87249,-2.54265 1.77588,-2.93524 1.77587,-2.93524 1.67925,-3.32784 -0.97841,-0.59195 -0.58582,-0.68858 -1.27438,-0.10275 -0.58582,-0.68857 -0.88181,-0.19937 -0.8818,-0.19936 -0.8818,-0.19937 -1.17778,0.28985 -1.17778,0.28984 -1.17777,0.28984 -1.08118,0.68244 -1.08115,0.68244 -1.08117,0.68242 -0.78519,0.19322 -0.68857,0.58583 -0.39259,0.0966 -0.3926,0.0966 -0.4892,-0.29598 -10.81779,8.49134 -110.096101,-59.92734 -1.280528,1.56424 -1.28053,1.56423 -0.887937,1.46762 z" />
  <ellipse
     id="ellipse12"
     style="fill:#916347;stroke-width:0.404307"
     rx="1.2129185"
     ry="2.0215309"
     cy="400.22894"
     cx="-67.96888"
     transform="rotate(-13.825304)" />
  <ellipse
     id="ellipse14"
     style="fill:#916347;stroke-width:0.404307"
     rx="1.2129185"
     ry="2.0215309"
     cy="388.50409"
     cx="-80.906677"
     transform="rotate(-13.825304)" />
  <circle
     id="circle16"
     style="fill:#916347;stroke-width:0.404307"
     cx="-53.413857"
     r="1.2129185"
     cy="405.88922"
     transform="rotate(-13.825304)" />
  <ellipse
     id="ellipse18"
     style="fill:#916347;stroke-width:0.404307"
     rx="1.2129185"
     ry="2.0215309"
     cy="421.25287"
     cx="-45.327732"
     transform="rotate(-13.825304)" />
  <ellipse
     id="ellipse20"
     style="fill:#916347;stroke-width:0.404307"
     rx="1.2129185"
     ry="2.0215309"
     cy="426.91318"
     cx="-32.389935"
     transform="rotate(-13.825304)" />
  <ellipse
     id="ellipse22"
     style="fill:#916347;stroke-width:0.404307"
     rx="1.2129185"
     ry="2.0215309"
     cy="439.44666"
     cx="-24.708118"
     transform="rotate(-13.825304)" />
  <circle
     id="circle24"
     style="fill:#916347;stroke-width:0.404307"
     cx="18.552647"
     r="1.6172247"
     cy="468.15237"
     transform="rotate(-13.825304)" />
  <ellipse
     id="ellipse26"
     style="fill:#916347;stroke-width:0.404307"
     rx="1.2129185"
     ry="2.0215309"
     cy="470.98254"
     cx="26.234463"
     transform="rotate(-13.825304)" />
  <ellipse
     id="ellipse28"
     style="fill:#916347;stroke-width:0.404307"
     rx="1.2129185"
     ry="2.0215309"
     cy="447.53281"
     cx="-8.9401798"
     transform="rotate(-13.825304)" />
  <circle
     id="circle30"
     style="fill:#916347;stroke-width:0.404307"
     cx="-0.4497506"
     r="1.2129185"
     cy="462.49213"
     transform="rotate(-13.825304)" />
  <circle
     id="circle32"
     style="fill:#916347;stroke-width:0.404307"
     cx="8.4449844"
     r="1.6172247"
     cy="463.70502"
     transform="rotate(-13.825304)" />
  <circle
     id="circle34"
     style="fill:#bf9175;stroke-width:0.404307"
     cx="-53.413857"
     r="2.425837"
     cy="397.3988"
     transform="rotate(-13.825304)" />
  <ellipse
     id="ellipse36"
     style="fill:#bf9175;stroke-width:0.404307"
     rx="2.425837"
     ry="1.6172247"
     cy="405.08066"
     cx="-36.837303"
     transform="rotate(-13.825304)" />
  <circle
     id="circle38"
     style="fill:#bf9175;stroke-width:0.404307"
     cx="-18.239223"
     r="2.425837"
     cy="421.25287"
     transform="rotate(-13.825304)" />
  <ellipse
     id="ellipse40"
     style="fill:#bf9175;stroke-width:0.404307"
     rx="2.425837"
     ry="1.6172247"
     cy="435.40359"
     cx="-10.557402"
     transform="rotate(-13.825304)" />
  <circle
     id="circle42"
     style="fill:#916347;stroke-width:0.404307"
     cx="-76.459305"
     r="1.2129185"
     cy="392.14282"
     transform="rotate(-13.825304)" />
  <circle
     id="circle44"
     style="fill:#916347;stroke-width:0.404307"
     cx="-78.885139"
     r="1.2129185"
     cy="384.46103"
     transform="rotate(-13.825304)" />
  <circle
     id="circle46"
     style="fill:#bf9175;stroke-width:0.404307"
     cx="-66.351654"
     r="1.2129185"
     cy="376.37488"
     transform="rotate(-13.825304)" />
  <circle
     id="circle48"
     style="fill:#bf9175;stroke-width:0.404307"
     cx="-70.799019"
     r="1.2129185"
     cy="379.20505"
     transform="rotate(-13.825304)" />
  <circle
     id="circle50"
     style="fill:#bf9175;stroke-width:0.404307"
     cx="-44.114815"
     r="1.2129185"
     cy="401.0376"
     transform="rotate(-13.825304)" />
  <circle
     id="circle52"
     style="fill:#bf9175;stroke-width:0.404307"
     cx="-58.26553"
     r="1.2129185"
     cy="385.26962"
     transform="rotate(-13.825304)" />
  <circle
     id="circle54"
     style="fill:#bf9175;stroke-width:0.404307"
     cx="-35.624386"
     r="1.2129185"
     cy="413.97537"
     transform="rotate(-13.825304)" />
  <circle
     id="circle56"
     style="fill:#bf9175;stroke-width:0.404307"
     cx="-16.217688"
     r="1.2129185"
     cy="429.74332"
     transform="rotate(-13.825304)" />
  <circle
     id="circle58"
     style="fill:#bf9175;stroke-width:0.404307"
     cx="-22.282282"
     r="1.6172247"
     cy="416.80551"
     transform="rotate(-13.825304)" />
  <circle
     id="circle60"
     style="fill:#bf9175;stroke-width:0.404307"
     cx="-5.7057261"
     r="1.2129185"
     cy="441.8725"
     transform="rotate(-13.825304)" />
  <circle
     id="circle62"
     style="fill:#bf9175;stroke-width:0.404307"
     cx="7.2320676"
     r="1.6172247"
     cy="445.51126"
     transform="rotate(-13.825304)" />
  <circle
     id="circle64"
     style="fill:#bf9175;stroke-width:0.404307"
     cx="19.765556"
     r="1.6172247"
     cy="456.83182"
     transform="rotate(-13.825304)" />
  <circle
     id="circle66"
     style="fill:#bf9175;stroke-width:0.404307"
     cx="12.892345"
     r="1.2129185"
     cy="451.17154"
     transform="rotate(-13.825304)" />
  <circle
     id="circle68"
     style="fill:#916347;stroke-width:0.404307"
     cx="-56.243999"
     r="1.2129185"
     cy="411.95386"
     transform="rotate(-13.825304)" />
  <circle
     id="circle70"
     style="fill:#916347;stroke-width:0.404307"
     cx="-40.476059"
     r="1.2129185"
     cy="419.63565"
     transform="rotate(-13.825304)" />
  <circle
     id="circle72"
     style="fill:#916347;stroke-width:0.404307"
     cx="24.617237"
     r="1.2129185"
     cy="464.51364"
     transform="rotate(-13.825304)" />
  <circle
     id="circle74"
     style="fill:#916347;stroke-width:0.404307"
     cx="19.765556"
     r="1.2129185"
     cy="473.81268"
     transform="rotate(-13.825304)" />
  <circle
     id="circle76"
     style="fill:#916347;stroke-width:0.404307"
     cx="-29.964096"
     r="1.2129185"
     cy="436.21219"
     transform="rotate(-13.825304)" />
  <circle
     id="circle78"
     style="fill:#916347;stroke-width:0.404307"
     cx="-19.047834"
     r="1.2129185"
     cy="445.51126"
     transform="rotate(-13.825304)" />
  <circle
     id="circle80"
     style="fill:#916347;stroke-width:0.404307"
     cx="-25.112427"
     r="1.2129185"
     cy="432.97775"
     transform="rotate(-13.825304)" />
  <circle
     id="circle82"
     style="fill:#916347;stroke-width:0.404307"
     cx="-6.9186435"
     r="1.2129185"
     cy="456.42752"
     transform="rotate(-13.825304)" />
  <circle
     id="circle84"
     style="fill:#916347;stroke-width:0.404307"
     cx="5.6148534"
     r="1.2129185"
     cy="468.15237"
     transform="rotate(-13.825304)" />
  <circle
     id="circle86"
     style="fill:#916347;stroke-width:0.404307"
     cx="4.8062272"
     r="1.2129185"
     cy="460.06628"
     transform="rotate(-13.825304)" />
  <ellipse
     id="ellipse88"
     style="fill:#916347;stroke-width:0.404307"
     rx="2.0215309"
     ry="1.2129185"
     cy="395.78159"
     cx="-69.181801"
     transform="rotate(-13.825304)" />
  <path
     id="path90"
     style="fill:#bf9175;stroke-width:0.404307"
     d="m 34.581071,394.49979 -0.193229,-0.7852 -0.682434,-1.08116 -0.682436,-1.08117 -0.881797,-0.19936 -1.17778,0.28985 -0.688574,0.5858 -0.392592,0.0966 -0.392593,0.0966 0.489206,0.29598 0.19323,0.78519 1.075026,0.98454 0.489208,0.29598 0.392593,-0.0966 1.177779,-0.28985 0.8818,0.19936 z" />
  <ellipse
     id="ellipse92"
     style="fill:#bf9175;stroke-width:0.404307"
     rx="2.425837"
     ry="1.6172247"
     cy="384.46103"
     cx="-64.734428"
     transform="rotate(-13.825304)" />
  <ellipse
     id="ellipse94"
     style="fill:#bf9175;stroke-width:0.404307"
     rx="2.425837"
     ry="1.6172247"
     cy="395.78159"
     cx="-45.73204"
     transform="rotate(-13.825304)" />
  <circle
     id="circle96"
     style="fill:#bf9175;stroke-width:0.404307"
     cx="-43.710506"
     r="2.0215309"
     cy="406.69788"
     transform="rotate(-13.825304)" />
  <circle
     id="circle98"
     style="fill:#bf9175;stroke-width:0.404307"
     cx="-30.772713"
     r="2.0215309"
     cy="409.52798"
     transform="rotate(-13.825304)" />
  <circle
     id="circle100"
     style="fill:#bf9175;stroke-width:0.404307"
     cx="-27.942568"
     r="2.0215309"
     cy="416.40118"
     transform="rotate(-13.825304)" />
  <ellipse
     id="ellipse102"
     style="fill:#bf9175;stroke-width:0.404307"
     rx="2.425837"
     ry="1.6172247"
     cy="425.29593"
     cx="-23.090891"
     transform="rotate(-13.825304)" />
  <circle
     id="circle104"
     style="fill:#bf9175;stroke-width:0.404307"
     cx="-10.153099"
     r="2.0215309"
     cy="429.33899"
     transform="rotate(-13.825304)" />
  <circle
     id="circle106"
     style="fill:#bf9175;stroke-width:0.404307"
     cx="-0.4497506"
     r="2.0215309"
     cy="438.63803"
     transform="rotate(-13.825304)" />
  <circle
     id="circle108"
     style="fill:#916347;stroke-width:0.404307"
     cx="36.342117"
     r="2.0215309"
     cy="461.68347"
     transform="rotate(-13.825304)" />
  <circle
     id="circle110"
     style="fill:#bf9175;stroke-width:0.404307"
     cx="2.7847044"
     r="2.0215309"
     cy="449.55432"
     transform="rotate(-13.825304)" />
  <circle
     id="circle112"
     style="fill:#bf9175;stroke-width:0.404307"
     cx="12.892345"
     r="2.0215309"
     cy="456.42752"
     transform="rotate(-13.825304)" />
  <ellipse
     id="ellipse114"
     style="fill:#916347;stroke-width:0.404307"
     rx="1.6172247"
     ry="2.8301432"
     cy="403.46341"
     cx="-60.691368"
     transform="rotate(-13.825304)" />
  <ellipse
     id="ellipse116"
     style="fill:#bf9175;stroke-width:0.404307"
     rx="1.6172247"
     ry="3.2344494"
     cy="390.12131"
     cx="-53.009548"
     transform="rotate(-13.825304)" />
  <ellipse
     id="ellipse118"
     style="fill:#916347;stroke-width:0.404307"
     rx="1.6172247"
     ry="3.2344494"
     cy="412.76242"
     cx="-48.562183"
     transform="rotate(-13.825304)" />
  <ellipse
     id="ellipse120"
     style="fill:#916347;stroke-width:0.404307"
     rx="1.6172247"
     ry="3.2344494"
     cy="427.31744"
     cx="-37.64592"
     transform="rotate(-13.825304)" />
  <ellipse
     id="ellipse122"
     style="fill:#916347;stroke-width:0.404307"
     rx="1.6172247"
     ry="2.8301432"
     cy="438.63803"
     cx="-19.452143"
     transform="rotate(-13.825304)" />
  <ellipse
     id="ellipse124"
     style="fill:#916347;stroke-width:0.404307"
     rx="1.6172247"
     ry="2.8301432"
     cy="451.17154"
     cx="-12.578938"
     transform="rotate(-13.825304)" />
  <ellipse
     id="ellipse126"
     style="fill:#916347;stroke-width:0.404307"
     rx="1.6172247"
     ry="3.2344494"
     cy="455.6189"
     cx="-0.85405701"
     transform="rotate(-13.825304)" />
  <ellipse
     id="ellipse128"
     style="fill:#916347;stroke-width:0.404307"
     rx="1.6172247"
     ry="3.2344494"
     cy="473.40839"
     cx="13.296654"
     transform="rotate(-13.825304)" />
  <ellipse
     id="ellipse130"
     style="fill:#916347;stroke-width:0.404307"
     rx="1.6172247"
     ry="3.2344494"
     cy="464.10931"
     cx="31.49044"
     transform="rotate(-13.825304)" />
  <path
     id="path132"
     style="fill:#494949;stroke-width:0.404307"
     d="m 29.641484,377.8115 2.349422,1.08732 3.327833,1.67925 4.795457,2.56721 4.892069,2.95978 5.284661,2.86318 4.89207,2.95979 4.402862,2.66381 3.817039,1.97524 0.10275,-1.2744 0.19937,-0.8818 0.10275,-1.27438 0.591954,-0.97843 -32.782997,-18.1636 -0.688571,0.58582 -0.59196,0.97841 -0.10275,1.2744 z" />
  <path
     id="path134"
     style="fill:#494949;stroke-width:0.404307"
     d="m 68.005125,398.34909 4.306253,2.27121 5.18805,2.47059 5.38127,3.25576 5.28466,2.86319 4.40286,2.66381 3.52106,2.46444 2.93525,1.77587 0.978412,0.59195 0.59196,-0.9784 0.59195,-0.97841 0.19937,-0.8818 0.59196,-0.97841 -27.890932,-15.20383 -4.892069,-2.95978 -0.199366,0.88179 -0.591958,0.97842 -0.199365,0.88179 z" />
  <path
     id="path136"
     style="fill:#494949;stroke-width:0.404307"
     d="m 105.38422,419.9617 1.07502,0.98455 2.34943,1.0873 2.93523,1.77587 4.20964,1.87862 4.01027,2.76043 4.30624,2.27122 4.30627,2.27122 3.32782,1.67926 1.46762,0.88792 1.86021,0.79134 1.76361,0.39872 1.28052,-1.56423 0.78519,-0.19322 0.68857,-0.58583 0.39259,-0.0966 0.78519,-0.19323 -30.82618,-16.97969 -2.83862,-1.38328 -0.10275,1.27439 -0.59196,0.97842 -0.59195,0.97841 z" />
  <path
     id="path138"
     style="fill:#d1d1d1;stroke-width:0.404307"
     d="m 31.616724,373.99447 32.782997,18.1636 0.199369,-0.88179 0.688574,-0.58582 0.295975,-0.4892 0.199365,-0.88181 -31.508606,-18.06086 -0.688572,0.58582 -0.688573,0.58583 -0.688572,0.58582 z" />
  <path
     id="path140"
     style="fill:#d1d1d1;stroke-width:0.404307"
     d="m 69.195179,394.72528 4.892069,2.95978 27.890932,15.20383 0.29599,-0.48921 0.29597,-0.48921 0.29597,-0.48921 0.29599,-0.4892 -33.078988,-17.67441 0.09662,0.39259 -0.392593,0.0966 -0.295975,0.48921 z" />
  <path
     id="path142"
     style="fill:#d1d1d1;stroke-width:0.404307"
     d="m 107.26284,415.75206 2.83862,1.38328 30.82618,16.97969 0.78518,-0.19323 1.17779,-0.28984 0.78518,-0.19323 0.78519,-0.19323 -35.32566,-20.03609 -0.68856,0.58582 -0.29598,0.48921 -0.59197,0.97841 z" />
  <path
     id="path144"
     style="fill:#494949;stroke-width:0.404307"
     d="m 51.891984,380.24685 -2.446034,-1.47989 -1.956829,-1.18391 -2.34942,-1.08731 -1.956827,-1.18392 -1.956828,-1.18391 -2.34942,-1.0873 -2.252808,-0.69472 -2.34942,-1.0873 31.508606,18.06086 0.295984,-0.48921 0.295974,-0.4892 z" />
  <path
     id="path146"
     style="fill:#494949;stroke-width:0.404307"
     d="m 70.971053,391.79004 -0.295974,0.4892 -0.295984,0.48921 -0.295983,0.4892 33.078988,17.67441 0.39259,-0.0966 -0.0966,-0.39259 0.3926,-0.0966 0.29598,-0.48922 -2.93524,-1.77587 -3.913662,-2.36783 -5.18805,-2.47058 -5.28466,-2.86318 -5.28466,-2.86317 -4.69885,-2.17461 -3.52106,-2.46445 z" />
  <path
     id="path148"
     style="fill:#494949;stroke-width:0.404307"
     d="m 146.71992,432.27323 -1.56424,-1.28053 -1.95683,-1.18391 -1.56422,-1.28053 -1.95683,-1.18392 -2.25281,-0.69471 -1.95684,-1.18392 -1.95682,-1.18391 -1.95683,-1.18391 -0.4892,-0.29598 -1.56423,-1.28054 -2.34942,-1.08731 -2.93524,-1.77586 -3.72043,-1.58265 -3.42445,-2.07186 -2.93525,-1.77587 -2.83863,-1.38328 -0.78518,0.19322 -0.68857,0.58582 -0.39259,0.0966 -0.29599,0.48921 35.32566,20.03609 0.4892,0.29599 0.78519,-0.19323 0.4892,0.29597 0.7852,-0.19322 z" />
  <path
     id="path150"
     style="fill:#778e8e;stroke-width:0.404307"
     d="m 119.50073,394.42019 1.98137,-5.48403 0.8036,-5.19418 0.31439,-5.49017 0.3144,-5.49016 -0.17481,-5.78614 0.411,-5.09758 1.09958,-5.68339 1.58878,-5.38741 1.67926,-3.32784 2.27121,-4.30625 2.36784,-3.91365 2.36783,-3.91366 2.85703,-3.61767 2.56106,-3.12848 2.46444,-3.52106 2.36785,-3.91365 2.36782,-3.91366 -0.28984,-1.17777 -0.48921,-0.29599 -0.48921,-0.29598 -0.39258,0.0966 -13.50616,19.56214 -0.19934,0.8818 -1.4799,2.44603 -1.77589,2.93523 -2.36783,3.91367 -1.97523,3.81704 -1.87863,4.20963 -1.19005,3.62382 -0.2055,2.54878 -0.10275,1.27439 -0.20551,2.5488 -0.30825,3.82317 -0.21164,4.21577 -0.0185,5.00095 -0.21163,4.21578 -0.40488,3.43059 0.0905,2.05958 -0.19936,0.88179 -0.69473,2.25281 -0.89406,3.1346 -1.58265,3.72043 -1.48603,4.11303 -1.19006,3.62381 -1.28666,3.23122 -1.08731,2.34942 -0.29598,0.4892 0.78519,-0.19323 0.48921,0.29599 0.78519,-0.19324 0.4892,0.29599 0.69472,-2.25281 1.08729,-2.34942 0.99069,-2.74201 1.08731,-2.34942 1.08729,-2.34942 0.79133,-1.86022 0.59196,-0.97841 z" />
  <path
     id="path152"
     style="fill:#bcd3d3;stroke-width:0.404307"
     d="m 110.92962,405.27321 0.006,-1.66699 0.59808,-2.64539 0.50148,-3.03799 1.09344,-4.01641 0.79747,-3.52721 1.38328,-2.83862 0.30211,-2.15618 0.19937,-0.88181 0.30212,-2.1562 0.50148,-3.03799 0.70084,-3.91979 0.21164,-4.21578 0.70084,-3.91979 0.40487,-3.43057 0.20551,-2.54879 -0.19323,-0.7852 0.50149,-3.03798 1.28666,-3.23122 1.48604,-4.11303 1.87862,-4.20963 2.46444,-3.52106 1.77588,-2.93524 1.08729,-2.34942 0.29599,-0.48921 14.59345,-21.91156 -0.97842,-0.59196 -0.8818,-0.19936 -1.27439,-0.10275 -1.27439,-0.10275 -2.85705,3.61768 -2.85703,3.61767 -2.66382,4.40286 -2.27121,4.30625 -2.27122,4.30625 -2.27122,4.30625 -2.76043,4.01027 -2.76042,4.01027 -1.28053,1.56423 -1.57651,2.05344 -1.76973,1.26825 -1.57651,2.05344 -1.76974,1.26826 -1.76973,1.26826 -2.16234,1.36487 -1.76973,1.26825 -1.86636,0.87567 -2.16232,1.36487 -1.866352,0.87566 -2.25895,0.97228 -2.16233,1.36487 -2.25894,0.97227 -1.86635,0.87566 -2.25894,0.97228 -2.85092,1.95068 -2.4583,1.85409 -2.06571,1.75745 -2.3617,2.24668 -1.9691,2.15005 -1.87249,2.54266 -1.87249,2.54263 -1.872481,2.54266 -0.495349,1.371 -0.984551,1.07504 -0.591958,0.97841 -0.887942,1.46761 -0.591949,0.97842 -0.98456,1.07504 -0.49534,1.371 -0.591949,0.97842 -0.302122,2.15619 -0.102747,1.2744 0.585812,0.68856 0.392593,-0.0966 -0.09661,-0.39259 0.199366,-0.8818 0.495349,-1.37101 0.591949,-0.97841 0.887942,-1.46762 0.887941,-1.46762 0.59195,-0.97841 0.688576,-0.58582 1.86022,0.79132 3.32783,1.67926 5.28466,2.86317 6.16646,3.06255 5.87048,3.55175 6.16646,3.06253 5.188052,2.47059 3.32783,1.67925 -0.10274,1.2744 -0.59197,0.97842 -1.08115,0.68243 -0.98456,1.07503 -0.79133,1.86022 -0.88793,1.46761 -0.39873,1.76361 0.38646,1.57036 0.59195,-0.97841 0.59196,-0.97841 0.19937,-0.8818 0.49535,-1.37101 0.59195,-0.97842 0.59196,-0.97842 0.59195,-0.97839 0.59197,-0.97843 0.68857,-0.58582 0.78517,-0.19322 1.17779,-0.28985 0.78518,-0.19323 0.29598,-0.4892 0.29598,-0.4892 0.29599,-0.48921 0.19936,-0.88181 -0.48921,-0.29597 -0.19322,-0.78519 -0.0966,-0.39259 z" />
  <path
     id="path154"
     style="fill:#e8ffff;stroke-width:0.404307"
     d="m 119.53142,386.08526 -0.0905,-2.05958 0.40487,-3.43059 0.21163,-4.21578 0.0185,-5.00095 0.21164,-4.21577 0.30825,-3.82317 0.20552,-2.5488 0.10274,-1.27439 0.2055,-2.54878 1.19004,-3.62382 1.87864,-4.20963 1.97523,-3.81704 2.36784,-3.91367 1.77588,-2.93523 1.47989,-2.44603 0.19936,-0.8818 13.50615,-19.56214 0.39258,-0.0966 -0.48919,-0.29597 -0.48921,-0.29598 -0.48921,-0.29598 -0.39259,0.0966 -14.59345,21.91156 -0.29598,0.48921 -1.0873,2.34942 -1.77587,2.93524 -2.46445,3.52106 -1.87863,4.20963 -1.48602,4.11303 -1.28668,3.23122 -0.50147,3.03798 0.19322,0.7852 -0.2055,2.54879 -0.40487,3.43057 -0.70084,3.91979 -0.21164,4.21578 -0.70085,3.91979 -0.50147,3.03799 -0.30213,2.1562 -0.19937,0.88181 -0.3021,2.15618 -1.38329,2.83862 -0.79747,3.52721 -1.09343,4.01641 -0.50148,3.03799 -0.5981,2.64539 -0.006,1.66699 0.19323,0.78519 0.0966,0.39259 0.19323,0.78519 0.48921,0.29597 1.0873,-2.34942 1.19006,-3.6238 1.28666,-3.23123 1.19005,-3.62381 1.28667,-3.23122 0.59809,-2.64539 0.79134,-1.86023 z" />
  <path
     id="path156"
     style="fill:#d6eded;stroke-width:0.404307"
     d="m 107.54357,366.13507 -0.39259,0.0966 -1.17778,0.28984 -1.17777,0.28984 -1.86636,0.87566 -2.35556,0.57969 -2.554932,1.46147 -2.25893,0.97228 -2.16233,1.36487 -2.06572,1.75747 -2.06572,1.75745 -1.67311,1.66086 -1.67314,1.66084 -1.28053,1.56424 -0.79132,1.86022 -1.28053,1.56423 -0.49534,1.37101 -0.49534,1.371 -0.10276,1.27439 0.77906,1.47377 1.17164,1.37714 1.17164,1.37714 1.56423,1.28053 1.56423,1.28052 1.37101,0.49535 1.46762,0.88794 1.86022,0.79133 1.95683,1.18391 2.34942,1.0873 2.34942,1.0873 1.467622,0.88794 0.9784,0.59196 0.48922,0.29598 0.29597,-0.48922 1.18392,-1.95682 1.0873,-2.34941 1.67927,-3.32784 1.28667,-3.23122 1.38327,-2.83863 0.89407,-3.1346 0.39874,-1.7636 0.21164,-4.21578 -0.0782,-5.39355 -0.76678,-4.80773 -2.54264,-1.87248 z" />
  <path
     id="path158"
     style="fill:#a3c600;stroke-width:0.404307"
     d="m 326.73058,13.242095 -2.44604,-1.479895 -9.96667,17.025626 -167.35543,284.344224 0.88179,0.19937 0.4892,0.29598 0.0966,0.39259 0.19323,0.78519 12.72709,-21.0359 19.73398,-33.16944 25.35759,-42.4644 24.96499,-42.36777 32.56383,-55.47974 29.90001,-51.076884 22.39779,-37.572317 z" />
  <path
     id="path160"
     style="fill:#f4ff00;stroke-width:0.404307"
     d="M 319.88168,9.098388 308.93046,27.199044 149.47597,296.2751 l -8.48678,14.5796 0.48921,0.29598 0.88181,0.19937 1.27439,0.10274 1.371,0.49535 21.70309,-35.31951 L 312.2583,28.878303 322.81693,10.874262 Z" />
  <path
     id="path162"
     style="fill:#ffffff;stroke-width:0.404307"
     d="m 324.28454,11.7622 -1.46761,-0.887938 -10.0633,16.633035 -146.04494,249.121333 -21.70309,35.31951 0.4892,0.29598 0.48922,0.29598 0.48921,0.29598 0.48921,0.29597 166.86008,-282.973216 z" />
  <metadata
     id="metadata82">
    <rdf:RDF>
      <cc:Work>
        <dc:format>image/svg+xml</dc:format>
        <dc:type
           rdf:resource="http://purl.org/dc/dcmitype/StillImage" />
        <cc:license
           rdf:resource="http://creativecommons.org/publicdomain/zero/1.0/" />
        <dc:publisher>
          <cc:Agent
             rdf:about="http://openclipart.org/">
            <dc:title>Openclipart</dc:title>
          </cc:Agent>
        </dc:publisher>
        <dc:title>mop</dc:title>
        <dc:date>2010-08-02T19:43:24</dc:date>
        <dc:description />
        <dc:source>https://openclipart.org/detail/76231/mop-by-gammillian</dc:source>
        <dc:creator>
          <cc:Agent>
            <dc:title>gammillian</dc:title>
          </cc:Agent>
        </dc:creator>
        <dc:subject>
          <rdf:Bag>
            <rdf:li>mop</rdf:li>
          </rdf:Bag>
        </dc:subject>
      </cc:Work>
      <cc:License
         rdf:about="http://creativecommons.org/publicdomain/zero/1.0/">
        <cc:permits
           rdf:resource="http://creativecommons.org/ns#Reproduction" />
        <cc:permits
           rdf:resource="http://creativecommons.org/ns#Distribution" />
        <cc:permits
           rdf:resource="http://creativecommons.org/ns#DerivativeWorks" />
      </cc:License>
    </rdf:RDF>
  </metadata>
</svg>
