<?xml version="1.0" encoding="UTF-8" standalone="no"?>
<svg
   xmlns:dc="http://purl.org/dc/elements/1.1/"
   xmlns:cc="http://creativecommons.org/ns#"
   xmlns:rdf="http://www.w3.org/1999/02/22-rdf-syntax-ns#"
   xmlns:svg="http://www.w3.org/2000/svg"
   xmlns="http://www.w3.org/2000/svg"
   xmlns:sodipodi="http://sodipodi.sourceforge.net/DTD/sodipodi-0.dtd"
   xmlns:inkscape="http://www.inkscape.org/namespaces/inkscape"
   id="svg2"
   sodipodi:docname="mop.svg"
   version="1.1"
   inkscape:version="1.0.2-2 (e86c870879, 2021-01-15)"
   viewBox="0 0 321.18299 458.40385"
   width="84.979668mm"
   height="121.28602mm">
  <defs
     id="defs85" />
  <sodipodi:namedview
     id="namedview194"
     bordercolor="#666666"
     inkscape:pageshadow="2"
     guidetolerance="10"
     pagecolor="#ffffff"
     gridtolerance="10"
     inkscape:window-maximized="1"
     inkscape:zoom="0.95626158"
     objecttolerance="10"
     borderopacity="1"
     inkscape:current-layer="svg2"
     inkscape:cx="234.06339"
     inkscape:cy="200.10985"
     inkscape:window-y="-8"
     inkscape:window-x="-8"
     inkscape:window-width="1920"
     showgrid="false"
     inkscape:pageopacity="0"
     inkscape:window-height="1017"
     inkscape:document-rotation="0"
     units="mm" />
  <path
     id="path6"
     d="m 143.02039,429.07601 -1.95683,-1.18392 -0.57968,-2.35555 -0.57969,-2.35557 -1.95683,-1.18391 -3.91366,-2.36783 -3.81703,-1.97524 -3.91365,-2.36783 -3.81705,-1.97524 -3.91364,-2.36784 -3.91367,-2.36783 -3.81704,-1.97523 -3.81703,-1.97525 2.37397,-5.58063 2.37396,-5.58064 1.98138,-5.48404 1.49216,-5.78 0.8036,-5.19418 1.00297,-6.07599 -0.0782,-5.39355 -0.0782,-5.39355 0.0122,-3.33397 0.50148,-3.038 0.89409,-3.13459 0.89406,-3.13462 1.28667,-3.23121 1.67926,-3.32784 1.38328,-2.83863 1.38328,-2.83862 1.77587,-2.93525 2.26508,-2.63927 2.16847,-3.03184 1.77588,-2.93524 1.77587,-2.93524 2.26508,-2.63927 1.67926,-3.32783 2.26508,-2.63927 -0.0966,-0.39259 L 321.18299,5.9195808 311.39884,0 129.35335,305.86319 l -0.3926,0.0966 0.0966,0.39259 -2.07185,3.42444 -2.16847,3.03187 -2.07184,3.42444 -2.07186,3.42445 -2.07185,3.42445 -1.67927,3.32784 -2.46445,3.52106 -1.67925,3.32784 -1.18392,1.95682 -1.57651,2.05344 -1.18392,1.95683 -1.67311,1.66085 -1.67312,1.66084 -1.67313,1.66084 -1.76974,1.26826 -2.162329,1.36489 -2.06572,1.75745 -1.76973,1.26826 -2.25894,0.97228 -1.769732,1.26824 -2.25895,0.97228 -2.25895,0.97228 -2.16232,1.36487 -2.25895,0.97228 -3.7327,1.75133 -3.63609,2.1439 -3.05027,2.83251 -3.05027,2.83249 -2.56105,3.12846 -2.56107,3.12847 -2.464441,3.52106 -2.464442,3.52107 -0.785186,0.19322 -2.44604,-1.47989 -2.446032,-1.47989 -2.838627,-1.38329 -2.838627,-1.38328 -2.446034,-1.4799 -2.446037,-1.4799 -2.838626,-1.38327 -2.838628,-1.38328 -1.467619,-0.88793 -1.467623,-0.88795 -1.46762,-0.88793 -1.564236,-1.28053 -1.860212,-0.79133 -1.763601,-0.39873 -1.763598,-0.39873 -1.962965,0.48308 -0.688572,0.58582 -0.591959,0.97841 -0.98455,1.07502 -0.688571,0.58583 -0.8818,-0.19936 -0.881801,-0.19937 -1.081164,0.68243 -0.785186,0.19324 -0.591959,0.9784 -0.591958,0.97842 -0.688571,0.58581 -0.688572,0.58583 -0.984552,1.07502 -0.591958,0.97842 -0.295978,0.48921 -0.688572,0.58583 -2.065717,1.75745 -1.6731229,1.66084 -2.065714,1.75748 -1.57651,2.05344 -1.969102,2.15005 -1.087302,2.34942 L 1.087303,386.9763 0,389.32572 l 0.289843,1.17779 0.682434,1.08115 0.193228,0.78519 1.0750271,0.98455 3.42445,2.07185 3.327832,1.67926 2.9352409,1.77588 3.817043,1.97524 3.424447,2.07184 2.935241,1.77589 3.327835,1.67925 3.817042,1.97525 2.446035,1.47989 2.446034,1.47989 2.838627,1.38329 2.838628,1.38328 2.34942,1.0873 2.935241,1.77588 2.446035,1.47989 2.838627,1.38328 29.557919,15.20995 12.918742,6.81366 3.03186,2.16846 3.03185,2.16847 3.327839,1.67927 3.42444,2.07185 3.32783,1.67925 2.93525,1.77588 3.42445,2.07186 2.63926,2.26507 0.4892,0.29598 0.0966,0.39259 0.39259,-0.0966 1.17779,-0.28984 1.17777,-0.28984 1.17777,-0.28985 1.17779,-0.28984 1.17777,-0.28983 1.08118,-0.68245 1.08116,-0.68244 1.08116,-0.68242 2.16233,-1.36487 1.96911,-2.15006 1.67312,-1.66085 1.87249,-2.54265 1.57651,-2.05344 1.47989,-2.44603 1.57651,-2.05344 1.5765,-2.05344 0.49535,-1.37101 0.59196,-0.97841 0.49535,-1.37101 0.49534,-1.37101 0.49535,-1.37101 0.19936,-0.8818 -0.68244,-1.08116 z"
     style="stroke-width:0.404307" />
  <path
     id="path8"
     style="fill:#eabca0;stroke-width:0.404307"
     d="m 127.61265,432.45136 -0.39259,0.0966 -1.46763,-0.88794 -1.95682,-1.18391 -1.46762,-0.88794 -1.95683,-1.18391 -1.86021,-0.79133 -1.95683,-1.18391 -1.86022,-0.79133 -1.46761,-0.88793 -1.95683,-1.18392 -2.44604,-1.47989 -1.95682,-1.18392 -2.34943,-1.0873 -2.34943,-1.0873 -1.95682,-1.18391 -1.956829,-1.18391 -2.05344,-1.57652 -1.66698,-0.006 -1.56424,-1.28053 -1.564232,-1.28053 -1.76359,-0.39873 -2.54266,-1.87249 -3.42445,-2.07185 -4.79545,-2.5672 -4.89206,-2.95979 -4.79546,-2.56719 -4.40287,-2.66381 -3.424443,-2.07185 -2.446037,-1.4799 -1.763599,-0.39872 -1.371007,-0.49535 -1.860212,-0.79132 -1.075029,-0.98457 -1.46762,-0.88792 -1.075028,-0.98457 -1.467621,-0.88792 -1.371009,-0.49535 -0.978411,-0.59196 -2.838627,-1.38327 -4.306249,-2.27123 -4.402863,-2.66381 -4.795454,-2.56719 -4.402862,-2.66382 -3.327834,-1.67926 -1.860213,-0.79131 -0.289843,-1.17779 -0.289841,-1.17778 -0.289843,-1.17777 0.495345,-1.37101 -2.162329,1.36487 -1.183916,1.95682 -1.280531,1.56424 -1.28053,1.56424 -1.377144,1.17164 -1.769736,1.26825 -1.3771459,1.17164 -1.769735,1.26826 -1.280532,1.56423 110.0960999,59.92734 z" />
  <path
     id="path10"
     style="fill:#c4967a;stroke-width:0.404307"
     d="m 2.4584421,387.47167 -0.102753,1.27439 -0.102749,1.27439 -0.1993661,0.8818 1.0750291,0.98455 4.306247,2.27122 4.3062469,2.27122 4.30625,2.27121 4.402861,2.66382 4.306247,2.27121 4.306249,2.27123 4.402862,2.6638 4.69884,2.17461 0.881801,0.19936 2.446034,1.4799 3.327834,1.67925 4.795455,2.5672 5.77387,3.15916 5.870481,3.55175 7.048258,3.2619 6.8489,4.14371 7.14488,3.6545 6.84889,4.1437 6.655672,3.35853 6.263079,3.45513 4.89207,2.95978 4.40286,2.66382 3.42445,2.07185 1.95683,1.18392 1.07502,0.98456 1.37102,0.49534 1.27438,0.10274 1.17778,-0.28984 1.57037,-0.38646 1.47377,-0.77905 1.47374,-0.77903 1.17779,-0.28985 2.36169,-2.24667 1.87249,-2.54265 2.26509,-2.63926 2.26507,-2.63926 1.87249,-2.54265 1.77588,-2.93524 1.77587,-2.93524 1.67925,-3.32784 -0.97841,-0.59195 -0.58582,-0.68858 -1.27438,-0.10275 -0.58582,-0.68857 -0.88181,-0.19937 -0.8818,-0.19936 -0.8818,-0.19937 -1.17778,0.28985 -1.17778,0.28984 -1.17777,0.28984 -1.08118,0.68244 -1.08115,0.68244 -1.08117,0.68242 -0.78519,0.19322 -0.68857,0.58583 -0.39259,0.0966 -0.3926,0.0966 -0.4892,-0.29598 -10.81779,8.49134 -110.0960999,-59.92734 -1.280528,1.56424 -1.28053,1.56423 -0.887937,1.46762 z" />
  <ellipse
     id="ellipse12"
     style="fill:#916347;stroke-width:0.404307"
     rx="1.2129185"
     ry="2.0215309"
     cy="391.79294"
     cx="-74.03167"
     transform="rotate(-13.825304)" />
  <ellipse
     id="ellipse14"
     style="fill:#916347;stroke-width:0.404307"
     rx="1.2129185"
     ry="2.0215309"
     cy="380.06808"
     cx="-86.969467"
     transform="rotate(-13.825304)" />
  <circle
     id="circle16"
     style="fill:#916347;stroke-width:0.404307"
     cx="-59.476643"
     r="1.2129185"
     cy="397.45322"
     transform="rotate(-13.825304)" />
  <ellipse
     id="ellipse18"
     style="fill:#916347;stroke-width:0.404307"
     rx="1.2129185"
     ry="2.0215309"
     cy="412.81686"
     cx="-51.390518"
     transform="rotate(-13.825304)" />
  <ellipse
     id="ellipse20"
     style="fill:#916347;stroke-width:0.404307"
     rx="1.2129185"
     ry="2.0215309"
     cy="418.47717"
     cx="-38.452721"
     transform="rotate(-13.825304)" />
  <ellipse
     id="ellipse22"
     style="fill:#916347;stroke-width:0.404307"
     rx="1.2129185"
     ry="2.0215309"
     cy="431.01065"
     cx="-30.770905"
     transform="rotate(-13.825304)" />
  <circle
     id="circle24"
     style="fill:#916347;stroke-width:0.404307"
     cx="12.48986"
     r="1.6172247"
     cy="459.71637"
     transform="rotate(-13.825304)" />
  <ellipse
     id="ellipse26"
     style="fill:#916347;stroke-width:0.404307"
     rx="1.2129185"
     ry="2.0215309"
     cy="462.54654"
     cx="20.171677"
     transform="rotate(-13.825304)" />
  <ellipse
     id="ellipse28"
     style="fill:#916347;stroke-width:0.404307"
     rx="1.2129185"
     ry="2.0215309"
     cy="439.0968"
     cx="-15.002967"
     transform="rotate(-13.825304)" />
  <circle
     id="circle30"
     style="fill:#916347;stroke-width:0.404307"
     cx="-6.512537"
     r="1.2129185"
     cy="454.05612"
     transform="rotate(-13.825304)" />
  <circle
     id="circle32"
     style="fill:#916347;stroke-width:0.404307"
     cx="2.3821979"
     r="1.6172247"
     cy="455.26901"
     transform="rotate(-13.825304)" />
  <circle
     id="circle34"
     style="fill:#bf9175;stroke-width:0.404307"
     cx="-59.476643"
     r="2.425837"
     cy="388.9628"
     transform="rotate(-13.825304)" />
  <ellipse
     id="ellipse36"
     style="fill:#bf9175;stroke-width:0.404307"
     rx="2.425837"
     ry="1.6172247"
     cy="396.64465"
     cx="-42.900089"
     transform="rotate(-13.825304)" />
  <circle
     id="circle38"
     style="fill:#bf9175;stroke-width:0.404307"
     cx="-24.30201"
     r="2.425837"
     cy="412.81686"
     transform="rotate(-13.825304)" />
  <ellipse
     id="ellipse40"
     style="fill:#bf9175;stroke-width:0.404307"
     rx="2.425837"
     ry="1.6172247"
     cy="426.96759"
     cx="-16.620188"
     transform="rotate(-13.825304)" />
  <circle
     id="circle42"
     style="fill:#916347;stroke-width:0.404307"
     cx="-82.522095"
     r="1.2129185"
     cy="383.70682"
     transform="rotate(-13.825304)" />
  <circle
     id="circle44"
     style="fill:#916347;stroke-width:0.404307"
     cx="-84.947929"
     r="1.2129185"
     cy="376.02502"
     transform="rotate(-13.825304)" />
  <circle
     id="circle46"
     style="fill:#bf9175;stroke-width:0.404307"
     cx="-72.414444"
     r="1.2129185"
     cy="367.93887"
     transform="rotate(-13.825304)" />
  <circle
     id="circle48"
     style="fill:#bf9175;stroke-width:0.404307"
     cx="-76.861809"
     r="1.2129185"
     cy="370.76904"
     transform="rotate(-13.825304)" />
  <circle
     id="circle50"
     style="fill:#bf9175;stroke-width:0.404307"
     cx="-50.177601"
     r="1.2129185"
     cy="392.60159"
     transform="rotate(-13.825304)" />
  <circle
     id="circle52"
     style="fill:#bf9175;stroke-width:0.404307"
     cx="-64.328316"
     r="1.2129185"
     cy="376.83362"
     transform="rotate(-13.825304)" />
  <circle
     id="circle54"
     style="fill:#bf9175;stroke-width:0.404307"
     cx="-41.687172"
     r="1.2129185"
     cy="405.53937"
     transform="rotate(-13.825304)" />
  <circle
     id="circle56"
     style="fill:#bf9175;stroke-width:0.404307"
     cx="-22.280474"
     r="1.2129185"
     cy="421.30731"
     transform="rotate(-13.825304)" />
  <circle
     id="circle58"
     style="fill:#bf9175;stroke-width:0.404307"
     cx="-28.345068"
     r="1.6172247"
     cy="408.36951"
     transform="rotate(-13.825304)" />
  <circle
     id="circle60"
     style="fill:#bf9175;stroke-width:0.404307"
     cx="-11.768513"
     r="1.2129185"
     cy="433.43649"
     transform="rotate(-13.825304)" />
  <circle
     id="circle62"
     style="fill:#bf9175;stroke-width:0.404307"
     cx="1.169281"
     r="1.6172247"
     cy="437.07526"
     transform="rotate(-13.825304)" />
  <circle
     id="circle64"
     style="fill:#bf9175;stroke-width:0.404307"
     cx="13.702769"
     r="1.6172247"
     cy="448.39581"
     transform="rotate(-13.825304)" />
  <circle
     id="circle66"
     style="fill:#bf9175;stroke-width:0.404307"
     cx="6.8295588"
     r="1.2129185"
     cy="442.73553"
     transform="rotate(-13.825304)" />
  <circle
     id="circle68"
     style="fill:#916347;stroke-width:0.404307"
     cx="-62.306786"
     r="1.2129185"
     cy="403.51785"
     transform="rotate(-13.825304)" />
  <circle
     id="circle70"
     style="fill:#916347;stroke-width:0.404307"
     cx="-46.538845"
     r="1.2129185"
     cy="411.19965"
     transform="rotate(-13.825304)" />
  <circle
     id="circle72"
     style="fill:#916347;stroke-width:0.404307"
     cx="18.554451"
     r="1.2129185"
     cy="456.07764"
     transform="rotate(-13.825304)" />
  <circle
     id="circle74"
     style="fill:#916347;stroke-width:0.404307"
     cx="13.702769"
     r="1.2129185"
     cy="465.37668"
     transform="rotate(-13.825304)" />
  <circle
     id="circle76"
     style="fill:#916347;stroke-width:0.404307"
     cx="-36.026882"
     r="1.2129185"
     cy="427.77618"
     transform="rotate(-13.825304)" />
  <circle
     id="circle78"
     style="fill:#916347;stroke-width:0.404307"
     cx="-25.11062"
     r="1.2129185"
     cy="437.07526"
     transform="rotate(-13.825304)" />
  <circle
     id="circle80"
     style="fill:#916347;stroke-width:0.404307"
     cx="-31.175213"
     r="1.2129185"
     cy="424.54175"
     transform="rotate(-13.825304)" />
  <circle
     id="circle82"
     style="fill:#916347;stroke-width:0.404307"
     cx="-12.98143"
     r="1.2129185"
     cy="447.99152"
     transform="rotate(-13.825304)" />
  <circle
     id="circle84"
     style="fill:#916347;stroke-width:0.404307"
     cx="-0.44793323"
     r="1.2129185"
     cy="459.71637"
     transform="rotate(-13.825304)" />
  <circle
     id="circle86"
     style="fill:#916347;stroke-width:0.404307"
     cx="-1.2565594"
     r="1.2129185"
     cy="451.63028"
     transform="rotate(-13.825304)" />
  <ellipse
     id="ellipse88"
     style="fill:#916347;stroke-width:0.404307"
     rx="2.0215309"
     ry="1.2129185"
     cy="387.34558"
     cx="-75.244591"
     transform="rotate(-13.825304)" />
  <path
     id="path90"
     style="fill:#bf9175;stroke-width:0.404307"
     d="m 26.678042,387.75696 -0.193229,-0.7852 -0.682434,-1.08116 -0.682436,-1.08117 -0.881797,-0.19936 -1.17778,0.28985 -0.688574,0.5858 -0.392592,0.0966 -0.392593,0.0966 0.489206,0.29598 0.19323,0.78519 1.075026,0.98454 0.489208,0.29598 0.392593,-0.0966 1.177779,-0.28985 0.8818,0.19936 z" />
  <ellipse
     id="ellipse92"
     style="fill:#bf9175;stroke-width:0.404307"
     rx="2.425837"
     ry="1.6172247"
     cy="376.02502"
     cx="-70.797218"
     transform="rotate(-13.825304)" />
  <ellipse
     id="ellipse94"
     style="fill:#bf9175;stroke-width:0.404307"
     rx="2.425837"
     ry="1.6172247"
     cy="387.34558"
     cx="-51.794827"
     transform="rotate(-13.825304)" />
  <circle
     id="circle96"
     style="fill:#bf9175;stroke-width:0.404307"
     cx="-49.773293"
     r="2.0215309"
     cy="398.26187"
     transform="rotate(-13.825304)" />
  <circle
     id="circle98"
     style="fill:#bf9175;stroke-width:0.404307"
     cx="-36.835499"
     r="2.0215309"
     cy="401.09198"
     transform="rotate(-13.825304)" />
  <circle
     id="circle100"
     style="fill:#bf9175;stroke-width:0.404307"
     cx="-34.005356"
     r="2.0215309"
     cy="407.96518"
     transform="rotate(-13.825304)" />
  <ellipse
     id="ellipse102"
     style="fill:#bf9175;stroke-width:0.404307"
     rx="2.425837"
     ry="1.6172247"
     cy="416.85992"
     cx="-29.153677"
     transform="rotate(-13.825304)" />
  <circle
     id="circle104"
     style="fill:#bf9175;stroke-width:0.404307"
     cx="-16.215885"
     r="2.0215309"
     cy="420.90298"
     transform="rotate(-13.825304)" />
  <circle
     id="circle106"
     style="fill:#bf9175;stroke-width:0.404307"
     cx="-6.512537"
     r="2.0215309"
     cy="430.20203"
     transform="rotate(-13.825304)" />
  <circle
     id="circle108"
     style="fill:#916347;stroke-width:0.404307"
     cx="30.279331"
     r="2.0215309"
     cy="453.24747"
     transform="rotate(-13.825304)" />
  <circle
     id="circle110"
     style="fill:#bf9175;stroke-width:0.404307"
     cx="-3.2780821"
     r="2.0215309"
     cy="441.11832"
     transform="rotate(-13.825304)" />
  <circle
     id="circle112"
     style="fill:#bf9175;stroke-width:0.404307"
     cx="6.8295588"
     r="2.0215309"
     cy="447.99152"
     transform="rotate(-13.825304)" />
  <ellipse
     id="ellipse114"
     style="fill:#916347;stroke-width:0.404307"
     rx="1.6172247"
     ry="2.8301432"
     cy="395.0274"
     cx="-66.754158"
     transform="rotate(-13.825304)" />
  <ellipse
     id="ellipse116"
     style="fill:#bf9175;stroke-width:0.404307"
     rx="1.6172247"
     ry="3.2344494"
     cy="381.6853"
     cx="-59.072334"
     transform="rotate(-13.825304)" />
  <ellipse
     id="ellipse118"
     style="fill:#916347;stroke-width:0.404307"
     rx="1.6172247"
     ry="3.2344494"
     cy="404.32642"
     cx="-54.624969"
     transform="rotate(-13.825304)" />
  <ellipse
     id="ellipse120"
     style="fill:#916347;stroke-width:0.404307"
     rx="1.6172247"
     ry="3.2344494"
     cy="418.88144"
     cx="-43.708706"
     transform="rotate(-13.825304)" />
  <ellipse
     id="ellipse122"
     style="fill:#916347;stroke-width:0.404307"
     rx="1.6172247"
     ry="2.8301432"
     cy="430.20203"
     cx="-25.514929"
     transform="rotate(-13.825304)" />
  <ellipse
     id="ellipse124"
     style="fill:#916347;stroke-width:0.404307"
     rx="1.6172247"
     ry="2.8301432"
     cy="442.73553"
     cx="-18.641724"
     transform="rotate(-13.825304)" />
  <ellipse
     id="ellipse126"
     style="fill:#916347;stroke-width:0.404307"
     rx="1.6172247"
     ry="3.2344494"
     cy="447.18289"
     cx="-6.9168434"
     transform="rotate(-13.825304)" />
  <ellipse
     id="ellipse128"
     style="fill:#916347;stroke-width:0.404307"
     rx="1.6172247"
     ry="3.2344494"
     cy="464.97238"
     cx="7.2338672"
     transform="rotate(-13.825304)" />
  <ellipse
     id="ellipse130"
     style="fill:#916347;stroke-width:0.404307"
     rx="1.6172247"
     ry="3.2344494"
     cy="455.67331"
     cx="25.427654"
     transform="rotate(-13.825304)" />
  <path
     id="path132"
     style="fill:#494949;stroke-width:0.404307"
     d="m 21.738455,371.06867 2.349422,1.08732 3.327833,1.67925 4.795457,2.56721 4.892069,2.95978 5.284661,2.86318 4.89207,2.95979 4.402862,2.66381 3.817039,1.97524 0.10275,-1.2744 0.19937,-0.8818 0.10275,-1.27438 0.591954,-0.97843 -32.782997,-18.1636 -0.688571,0.58582 -0.59196,0.97841 -0.10275,1.2744 z" />
  <path
     id="path134"
     style="fill:#494949;stroke-width:0.404307"
     d="m 60.102096,391.60626 4.306253,2.27121 5.18805,2.47059 5.38127,3.25576 5.28466,2.86319 4.40286,2.66381 3.52106,2.46444 2.93525,1.77587 0.978412,0.59195 0.59196,-0.9784 0.59195,-0.97841 0.19937,-0.8818 0.59196,-0.97841 -27.890932,-15.20383 -4.892069,-2.95978 -0.199366,0.88179 -0.591958,0.97842 -0.199365,0.88179 z" />
  <path
     id="path136"
     style="fill:#494949;stroke-width:0.404307"
     d="m 97.481191,413.21887 1.07502,0.98455 2.349429,1.0873 2.93523,1.77587 4.20964,1.87862 4.01027,2.76043 4.30624,2.27122 4.30627,2.27122 3.32782,1.67926 1.46762,0.88792 1.86021,0.79134 1.76361,0.39872 1.28052,-1.56423 0.78519,-0.19322 0.68857,-0.58583 0.39259,-0.0966 0.78519,-0.19323 -30.82618,-16.97969 -2.838619,-1.38328 -0.10275,1.27439 -0.59196,0.97842 -0.59195,0.97841 z" />
  <path
     id="path138"
     style="fill:#d1d1d1;stroke-width:0.404307"
     d="m 23.713695,367.25164 32.782997,18.1636 0.199369,-0.88179 0.688574,-0.58582 0.295975,-0.4892 0.199365,-0.88181 -31.508606,-18.06086 -0.688572,0.58582 -0.688573,0.58583 -0.688572,0.58582 z" />
  <path
     id="path140"
     style="fill:#d1d1d1;stroke-width:0.404307"
     d="m 61.29215,387.98245 4.892069,2.95978 27.890932,15.20383 0.29599,-0.48921 0.29597,-0.48921 0.29597,-0.48921 0.29599,-0.4892 -33.078988,-17.67441 0.09662,0.39259 -0.392593,0.0966 -0.295975,0.48921 z" />
  <path
     id="path142"
     style="fill:#d1d1d1;stroke-width:0.404307"
     d="m 99.359811,409.00923 2.838619,1.38328 30.82618,16.97969 0.78518,-0.19323 1.17779,-0.28984 0.78518,-0.19323 0.78519,-0.19323 -35.32566,-20.03609 -0.68856,0.58582 -0.29598,0.48921 -0.591969,0.97841 z" />
  <path
     id="path144"
     style="fill:#494949;stroke-width:0.404307"
     d="m 43.988955,373.50402 -2.446034,-1.47989 -1.956829,-1.18391 -2.34942,-1.08731 -1.956827,-1.18392 -1.956828,-1.18391 -2.34942,-1.0873 -2.252808,-0.69472 -2.34942,-1.0873 31.508606,18.06086 0.295984,-0.48921 0.295974,-0.4892 z" />
  <path
     id="path146"
     style="fill:#494949;stroke-width:0.404307"
     d="m 63.068024,385.04721 -0.295974,0.4892 -0.295984,0.48921 -0.295983,0.4892 33.078988,17.67441 0.39259,-0.0966 -0.0966,-0.39259 0.3926,-0.0966 0.29598,-0.48922 -2.93524,-1.77587 -3.913662,-2.36783 -5.18805,-2.47058 -5.28466,-2.86318 -5.28466,-2.86317 -4.69885,-2.17461 -3.52106,-2.46445 z" />
  <path
     id="path148"
     style="fill:#494949;stroke-width:0.404307"
     d="m 138.81689,425.5304 -1.56424,-1.28053 -1.95683,-1.18391 -1.56422,-1.28053 -1.95683,-1.18392 -2.25281,-0.69471 -1.95684,-1.18392 -1.95682,-1.18391 -1.95683,-1.18391 -0.4892,-0.29598 -1.56423,-1.28054 -2.34942,-1.08731 -2.93524,-1.77586 -3.72043,-1.58265 -3.42445,-2.07186 -2.93525,-1.77587 -2.83863,-1.38328 -0.78518,0.19322 -0.68857,0.58582 -0.39259,0.0966 -0.29599,0.48921 35.32566,20.03609 0.4892,0.29599 0.78519,-0.19323 0.4892,0.29597 0.7852,-0.19322 z" />
  <path
     id="path150"
     style="fill:#778e8e;stroke-width:0.404307"
     d="m 111.5977,387.67736 1.98137,-5.48403 0.8036,-5.19418 0.31439,-5.49017 0.3144,-5.49016 -0.17481,-5.78614 0.411,-5.09758 1.09958,-5.68339 1.58878,-5.38741 1.67926,-3.32784 2.27121,-4.30625 2.36784,-3.91365 2.36783,-3.91366 2.85703,-3.61767 2.56106,-3.12848 2.46444,-3.52106 2.36785,-3.91365 2.36782,-3.91366 -0.28984,-1.17777 -0.48921,-0.29599 -0.48921,-0.29598 -0.39258,0.0966 -13.50616,19.56214 -0.19934,0.8818 -1.4799,2.44603 -1.77589,2.93523 -2.36783,3.91367 -1.97523,3.81704 -1.87863,4.20963 -1.19005,3.62382 -0.2055,2.54878 -0.10275,1.27439 -0.20551,2.5488 -0.30825,3.82317 -0.21164,4.21577 -0.0185,5.00095 -0.21163,4.21578 -0.40488,3.43059 0.0905,2.05958 -0.19936,0.88179 -0.69473,2.25281 -0.89406,3.1346 -1.58265,3.72043 -1.48603,4.11303 -1.19006,3.62381 -1.28666,3.23122 -1.08731,2.34942 -0.29598,0.4892 0.78519,-0.19323 0.48921,0.29599 0.78519,-0.19324 0.4892,0.29599 0.69472,-2.25281 1.08729,-2.34942 0.99069,-2.74201 1.08731,-2.34942 1.08729,-2.34942 0.79133,-1.86022 0.59196,-0.97841 z" />
  <path
     id="path152"
     style="fill:#bcd3d3;stroke-width:0.404307"
     d="m 103.02659,398.53038 0.006,-1.66699 0.59808,-2.64539 0.50148,-3.03799 1.09344,-4.01641 0.79747,-3.52721 1.38328,-2.83862 0.30211,-2.15618 0.19937,-0.88181 0.30212,-2.1562 0.50148,-3.03799 0.70084,-3.91979 0.21164,-4.21578 0.70084,-3.91979 0.40487,-3.43057 0.20551,-2.54879 -0.19323,-0.7852 0.50149,-3.03798 1.28666,-3.23122 1.48604,-4.11303 1.87862,-4.20963 2.46444,-3.52106 1.77588,-2.93524 1.08729,-2.34942 0.29599,-0.48921 14.59345,-21.91156 -0.97842,-0.59196 -0.8818,-0.19936 -1.27439,-0.10275 -1.27439,-0.10275 -2.85705,3.61768 -2.85703,3.61767 -2.66382,4.40286 -2.27121,4.30625 -2.27122,4.30625 -2.27122,4.30625 -2.76043,4.01027 -2.76042,4.01027 -1.28053,1.56423 -1.57651,2.05344 -1.76973,1.26825 -1.57651,2.05344 -1.76974,1.26826 -1.76973,1.26826 -2.162339,1.36487 -1.76973,1.26825 -1.86636,0.87567 -2.16232,1.36487 -1.866352,0.87566 -2.25895,0.97228 -2.16233,1.36487 -2.25894,0.97227 -1.86635,0.87566 -2.25894,0.97228 -2.85092,1.95068 -2.4583,1.85409 -2.06571,1.75745 -2.3617,2.24668 -1.9691,2.15005 -1.87249,2.54266 -1.87249,2.54263 -1.872481,2.54266 -0.495349,1.371 -0.984551,1.07504 -0.591958,0.97841 -0.887942,1.46761 -0.591949,0.97842 -0.98456,1.07504 -0.49534,1.371 -0.591949,0.97842 -0.302122,2.15619 -0.102747,1.2744 0.585812,0.68856 0.392593,-0.0966 -0.09661,-0.39259 0.199366,-0.8818 0.495349,-1.37101 0.591949,-0.97841 0.887942,-1.46762 0.887941,-1.46762 0.59195,-0.97841 0.688576,-0.58582 1.86022,0.79132 3.32783,1.67926 5.28466,2.86317 6.16646,3.06255 5.87048,3.55175 6.16646,3.06253 5.188052,2.47059 3.32783,1.67925 -0.10274,1.2744 -0.59197,0.97842 -1.08115,0.68243 -0.98456,1.07503 -0.79133,1.86022 -0.88793,1.46761 -0.39873,1.76361 0.38646,1.57036 0.59195,-0.97841 0.59196,-0.97841 0.19937,-0.8818 0.49535,-1.37101 0.59195,-0.97842 0.59196,-0.97842 0.59195,-0.97839 0.59197,-0.97843 0.688569,-0.58582 0.78517,-0.19322 1.17779,-0.28985 0.78518,-0.19323 0.29598,-0.4892 0.29598,-0.4892 0.29599,-0.48921 0.19936,-0.88181 -0.48921,-0.29597 -0.19322,-0.78519 -0.0966,-0.39259 z" />
  <path
     id="path154"
     style="fill:#e8ffff;stroke-width:0.404307"
     d="m 111.62839,379.34243 -0.0905,-2.05958 0.40487,-3.43059 0.21163,-4.21578 0.0185,-5.00095 0.21164,-4.21577 0.30825,-3.82317 0.20552,-2.5488 0.10274,-1.27439 0.2055,-2.54878 1.19004,-3.62382 1.87864,-4.20963 1.97523,-3.81704 2.36784,-3.91367 1.77588,-2.93523 1.47989,-2.44603 0.19936,-0.8818 13.50615,-19.56214 0.39258,-0.0966 -0.48919,-0.29597 -0.48921,-0.29598 -0.48921,-0.29598 -0.39259,0.0966 -14.59345,21.91156 -0.29598,0.48921 -1.0873,2.34942 -1.77587,2.93524 -2.46445,3.52106 -1.87863,4.20963 -1.48602,4.11303 -1.28668,3.23122 -0.50147,3.03798 0.19322,0.7852 -0.2055,2.54879 -0.40487,3.43057 -0.70084,3.91979 -0.21164,4.21578 -0.70085,3.91979 -0.50147,3.03799 -0.30213,2.1562 -0.19937,0.88181 -0.3021,2.15618 -1.38329,2.83862 -0.79747,3.52721 -1.09343,4.01641 -0.50148,3.03799 -0.5981,2.64539 -0.006,1.66699 0.19323,0.78519 0.0966,0.39259 0.19323,0.78519 0.48921,0.29597 1.0873,-2.34942 1.19006,-3.6238 1.28666,-3.23123 1.19005,-3.62381 1.28667,-3.23122 0.59809,-2.64539 0.79134,-1.86023 z" />
  <path
     id="path156"
     style="fill:#d6eded;stroke-width:0.404307"
     d="m 99.640541,359.39224 -0.39259,0.0966 -1.17778,0.28984 -1.17777,0.28984 -1.86636,0.87566 -2.35556,0.57969 -2.554932,1.46147 -2.25893,0.97228 -2.16233,1.36487 -2.06572,1.75747 -2.06572,1.75745 -1.67311,1.66086 -1.67314,1.66084 -1.28053,1.56424 -0.79132,1.86022 -1.28053,1.56423 -0.49534,1.37101 -0.49534,1.371 -0.10276,1.27439 0.77906,1.47377 1.17164,1.37714 1.17164,1.37714 1.56423,1.28053 1.56423,1.28052 1.37101,0.49535 1.46762,0.88794 1.86022,0.79133 1.95683,1.18391 2.34942,1.0873 2.34942,1.0873 1.467622,0.88794 0.9784,0.59196 0.48922,0.29598 0.29597,-0.48922 1.18392,-1.95682 1.0873,-2.34941 1.67927,-3.32784 1.28667,-3.23122 1.383269,-2.83863 0.89407,-3.1346 0.39874,-1.7636 0.21164,-4.21578 -0.0782,-5.39355 -0.76678,-4.80773 -2.542639,-1.87248 z" />
  <path
     id="path158"
     style="fill:#a3c600;stroke-width:0.404307"
     d="m 318.82755,6.4992648 -2.44604,-1.479895 -9.96667,17.0256262 -167.35543,284.344224 0.88179,0.19937 0.4892,0.29598 0.0966,0.39259 0.19323,0.78519 12.72709,-21.0359 19.73398,-33.16944 25.35759,-42.4644 24.96499,-42.36777 32.56383,-55.47974 29.90001,-51.076884 22.39779,-37.572317 z" />
  <path
     id="path160"
     style="fill:#f4ff00;stroke-width:0.404307"
     d="M 311.97865,2.3555578 301.02743,20.456214 141.57294,289.53227 l -8.48678,14.5796 0.48921,0.29598 0.88181,0.19937 1.27439,0.10274 1.371,0.49535 L 158.80566,269.8858 304.35527,22.135473 314.9139,4.1314318 Z" />
  <path
     id="path162"
     style="fill:#ffffff;stroke-width:0.404307"
     d="M 316.38151,5.0193698 314.9139,4.1314318 304.8506,20.764467 158.80566,269.8858 l -21.70309,35.31951 0.4892,0.29598 0.48922,0.29598 0.48921,0.29598 0.48921,0.29597 166.86008,-282.973216 z" />
  <metadata
     id="metadata82">
    <rdf:RDF>
      <cc:Work>
        <dc:format>image/svg+xml</dc:format>
        <dc:type
           rdf:resource="http://purl.org/dc/dcmitype/StillImage" />
        <cc:license
           rdf:resource="http://creativecommons.org/publicdomain/zero/1.0/" />
        <dc:publisher>
          <cc:Agent
             rdf:about="http://openclipart.org/">
            <dc:title>Openclipart</dc:title>
          </cc:Agent>
        </dc:publisher>
        <dc:title>mop</dc:title>
        <dc:date>2010-08-02T19:43:24</dc:date>
        <dc:description />
        <dc:source>https://openclipart.org/detail/76231/mop-by-gammillian</dc:source>
        <dc:creator>
          <cc:Agent>
            <dc:title>gammillian</dc:title>
          </cc:Agent>
        </dc:creator>
        <dc:subject>
          <rdf:Bag>
            <rdf:li>mop</rdf:li>
          </rdf:Bag>
        </dc:subject>
      </cc:Work>
      <cc:License
         rdf:about="http://creativecommons.org/publicdomain/zero/1.0/">
        <cc:permits
           rdf:resource="http://creativecommons.org/ns#Reproduction" />
        <cc:permits
           rdf:resource="http://creativecommons.org/ns#Distribution" />
        <cc:permits
           rdf:resource="http://creativecommons.org/ns#DerivativeWorks" />
      </cc:License>
    </rdf:RDF>
  </metadata>
</svg>
