<?xml version="1.0" encoding="UTF-8" standalone="no"?>
<svg
   xmlns:dc="http://purl.org/dc/elements/1.1/"
   xmlns:cc="http://creativecommons.org/ns#"
   xmlns:rdf="http://www.w3.org/1999/02/22-rdf-syntax-ns#"
   xmlns:svg="http://www.w3.org/2000/svg"
   xmlns="http://www.w3.org/2000/svg"
   xmlns:sodipodi="http://sodipodi.sourceforge.net/DTD/sodipodi-0.dtd"
   xmlns:inkscape="http://www.inkscape.org/namespaces/inkscape"
   xml:space="preserve"
   width="88mm"
   height="125mm"
   version="1.1"
   style="clip-rule:evenodd;fill-rule:evenodd;image-rendering:optimizeQuality;shape-rendering:geometricPrecision;text-rendering:geometricPrecision"
   viewBox="0 0 9136.3453 12977.467"
   id="svg45"
   sodipodi:docname="mouth.svg"
   inkscape:version="1.0.2-2 (e86c870879, 2021-01-15)"><metadata
   id="metadata49"><rdf:RDF><cc:Work
       rdf:about=""><dc:format>image/svg+xml</dc:format><dc:type
         rdf:resource="http://purl.org/dc/dcmitype/StillImage" /><dc:title></dc:title></cc:Work></rdf:RDF></metadata><sodipodi:namedview
   pagecolor="#ffffff"
   bordercolor="#666666"
   borderopacity="1"
   objecttolerance="10"
   gridtolerance="10"
   guidetolerance="10"
   inkscape:pageopacity="0"
   inkscape:pageshadow="2"
   inkscape:window-width="1920"
   inkscape:window-height="1017"
   id="namedview47"
   showgrid="false"
   inkscape:zoom="0.65989737"
   inkscape:cx="371.97108"
   inkscape:cy="529.08326"
   inkscape:window-x="-8"
   inkscape:window-y="-8"
   inkscape:window-maximized="1"
   inkscape:current-layer="svg45" />
 <defs
   id="defs4">
  <style
   type="text/css"
   id="style2">
   <![CDATA[
    .fil11 {fill:#FEFEFE}
    .fil3 {fill:#7F2835}
    .fil9 {fill:#8C1A30}
    .fil2 {fill:#A12736}
    .fil10 {fill:#BF3444}
    .fil0 {fill:#C74D53}
    .fil5 {fill:#CF5F66}
    .fil7 {fill:#CF636B}
    .fil1 {fill:#D36571}
    .fil8 {fill:#D45660}
    .fil6 {fill:#DF7273}
    .fil4 {fill:#FDFDFD}
   ]]>
  </style>
 </defs>
 <g
   id="Vrstva_x0020_1"
   transform="matrix(0.50467437,0,0,0.50467437,0.02299281,219.69072)">
  <metadata
   id="CorelCorpID_0Corel-Layer" />
  <g
   id="_874907552">
   <path
   class="fil0"
   d="m 6085,22483 c 1060,-558 4604,-361 5461,247 -37,706 -367,976 -952,1176 -1109,381 -4465,472 -4509,-1423 z m 9959,-5639 c -155,452 -299,656 -546,1021 -410,607 -50,402 -707,800 -274,676 -1733,1661 -2363,2035 -1094,651 -2059,889 -3448,892 -2216,5 -4771,-1243 -5816,-2911 -645,-461 -282,-201 -706,-819 -237,-346 -400,-569 -529,-1020 -373,-716 272,-3341 3061,-3401 4475,-95 3377,2561 3990,2941 316,-224 43,-1676 1186,-2347 1401,-823 3953,-934 5209,447 501,551 988,1730 669,2362 z M 1049,8785 c 93,-1183 593,-1399 846,-2187 467,-1297 1671,-2155 2798,-2693 3039,-1449 5522,-1503 8577,-5 1148,564 2338,1416 2793,2697 217,706 729,1075 900,2231 l 288,1467 c 247,1401 145,3029 -316,4288 -100,344 -139,346 -212,732 -476,-622 -371,-961 -1115,-1570 -657,-538 -951,-459 -1635,-834 -3153,-625 -3956,228 -4993,225 -1316,-3 -1284,-808 -4997,-244 -273,165 -655,254 -946,409 -1332,709 -1235,1257 -1798,2024 l -140,-562 C 449,13946 400,11363 722,10304 710,9871 814,9062 1049,8785 Z M 3670,3104 C 3563,2002 4920,984 5615,751 c 2127,-712 3016,353 3369,363 153,5 990,-465 1567,-549 1784,-260 3874,941 3754,2562 -749,-18 -1830,-477 -2614,-691 C 6897,1127 5433,3151 3670,3104 Z M 6279,114 C 3867,697 1960,3200 1074,5505 -245,8933 -136,11403 281,15237 c 283,2610 1776,5888 3372,7538 3687,3810 10625,2897 12930,-3723 1559,-4480 2101,-9404 136,-13973 C 15698,2705 13610,216 11089,16 10198,-55 9370,302 8659,193 7737,53 7236,-118 6279,114 Z"
   id="path7" />
   <path
   class="fil1"
   d="m 1929,16842 c 427,17 976,1194 1190,1775 l 488,61 c 257,-475 -181,-166 329,-124 198,16 1655,1209 5712,993 1816,-97 3067,-151 4492,-1092 100,-66 211,-134 293,-190 508,-348 195,-422 475,-176 378,-338 712,-1282 1136,-1245 319,-632 -168,-1811 -669,-2362 -1256,-1381 -3808,-1270 -5209,-447 -1143,671 -870,2123 -1186,2347 -613,-380 485,-3036 -3990,-2941 -2789,60 -3434,2685 -3061,3401 z"
   id="path9" />
   <path
   class="fil2"
   d="m 3445,7532 c 214,173 78,275 702,139 l -353,237 c -169,110 -198,125 -381,290 -732,656 -1195,951 -1622,2232 -472,1416 -106,3188 -241,3560 -20,54 -326,606 -451,773 l 140,562 c 563,-767 466,-1315 1798,-2024 291,-155 673,-244 946,-409 l -426,96 c -1,-605 21,-225 -84,-358 -124,136 -986,572 -1165,576 -108,-449 -137,-1273 17,-1691 197,-531 -47,-250 278,-309 4,-440 217,-622 418,-865 676,-819 1200,-1287 2661,-1367 712,-39 1665,271 2123,682 763,681 397,1296 499,2512 520,317 1043,592 1480,-113 226,-501 -721,-2962 2395,-3080 973,-37 1710,222 2420,884 194,179 187,160 356,337 251,264 383,466 515,840 214,593 363,1448 216,2211 -288,-58 -1067,-421 -1265,-704 l -23,453 -425,-85 c 684,375 978,296 1635,834 744,609 639,948 1115,1570 73,-386 112,-388 212,-732 -188,19 -48,195 -534,-608 -203,-335 -34,-555 32,-994 225,-1504 -40,-3499 -1225,-4325 -416,-289 -890,-848 -914,-1138 -1119,-37 -397,-422 -1238,-451 -926,-31 -947,-348 -1389,-342 -644,9 -2286,422 -2662,-294 -227,546 -829,379 -1464,383 -1383,9 -979,-225 -1456,-49 -833,307 -511,175 -1346,306 -512,81 -57,74 -490,336 -360,217 -392,156 -804,125 z"
   id="path11" />
   <path
   class="fil3"
   d="m 2603,11206 c 423,251 826,646 870,1424 105,133 83,-247 84,358 l 426,-96 c 3713,-564 3681,241 4997,244 1037,3 1840,-850 4993,-225 l 425,85 23,-453 c 225,-997 458,-1098 1049,-1507 -132,-374 -264,-576 -515,-840 -169,-177 -162,-158 -356,-337 -710,-662 -1447,-921 -2420,-884 -3116,118 -2169,2579 -2395,3080 -437,705 -960,430 -1480,113 -102,-1216 264,-1831 -499,-2512 -458,-411 -1411,-721 -2123,-682 -1461,80 -1985,548 -2661,1367 -201,243 -414,425 -418,865 z"
   id="path13" />
   <path
   class="fil4"
   d="m 1895,6598 c -253,788 -753,1004 -846,2187 l -87,344 c 193,-78 281,-85 517,-251 292,-205 203,-191 395,-516 1484,-44 1168,-859 1571,-830 412,31 444,92 804,-125 433,-262 -22,-255 490,-336 835,-131 513,1 1346,-306 477,-176 73,58 1456,49 635,-4 1237,163 1464,-383 376,716 2018,303 2662,294 442,-6 463,311 1389,342 841,29 119,414 1238,451 l 330,-74 c 246,421 248,538 633,712 450,202 698,37 924,367 689,501 478,235 649,348 156,202 -31,108 133,-43 -171,-1156 -683,-1525 -900,-2231 -541,-211 -465,-209 -1104,-228 -151,-319 -162,-554 -498,-750 -349,-204 -500,-86 -790,-214 l -149,-89 c -407,-299 -357,-844 -1663,-398 -403,-566 -348,-800 -1241,-914 -911,-116 -1297,295 -1635,288 -356,-8 -683,-423 -1640,-282 -647,96 -942,306 -1126,950 -948,-281 -1402,-345 -1788,577 -909,-323 -1080,324 -1437,786 z"
   id="path15" />
   <path
   class="fil5"
   d="m 3670,3104 c 1763,47 3227,-1977 8021,-668 784,214 1865,673 2614,691 C 14425,1506 12335,305 10551,565 9974,649 9137,1119 8984,1114 8631,1104 7742,39 5615,751 4920,984 3563,2002 3670,3104 Z"
   id="path17" />
   <path
   class="fil6"
   d="m 1895,6598 1097,-275 c 357,-462 528,-1109 1437,-786 386,-922 840,-858 1788,-577 184,-644 479,-854 1126,-950 957,-141 1284,274 1640,282 338,7 724,-404 1635,-288 893,114 838,348 1241,914 1306,-446 1256,99 1663,398 l 149,89 c 290,128 441,10 790,214 336,196 347,431 498,750 639,19 563,17 1104,228 C 15608,5316 14418,4464 13270,3900 10215,2402 7732,2456 4693,3905 3566,4443 2362,5301 1895,6598 Z"
   id="path19" />
   <path
   class="fil4"
   d="m 14791,18665 26,-51 c -665,118 -1026,218 -1136,872 l -831,-9 c -462,956 -359,-29 -1531,615 -707,389 -496,-77 -1790,122 -783,121 -178,330 -823,81 -720,-278 -1697,-59 -1831,-72 -199,-20 13,29 -192,-65 -1270,-579 -1067,-26 -1494,-435 -146,-140 -62,-486 -987,-230 -62,-533 -153,-655 -595,-815 l -488,-61 45,64 c 1045,1668 3600,2916 5816,2911 1389,-3 2354,-241 3448,-892 630,-374 2089,-1359 2363,-2035 z"
   id="path21" />
   <path
   class="fil7"
   d="m 6085,22483 c 44,1895 3400,1804 4509,1423 585,-200 915,-470 952,-1176 -857,-608 -4401,-805 -5461,-247 z"
   id="path23" />
   <path
   class="fil8"
   d="m 3607,18678 c 442,160 533,282 595,815 925,-256 841,90 987,230 427,409 224,-144 1494,435 205,94 -7,45 192,65 134,13 1111,-206 1831,72 645,249 40,40 823,-81 1294,-199 1083,267 1790,-122 1172,-644 1069,341 1531,-615 l 831,9 c 110,-654 471,-754 1136,-872 l 91,-525 c -280,-246 33,-172 -475,176 -82,56 -193,124 -293,190 -1425,941 -2676,995 -4492,1092 -4057,216 -5514,-977 -5712,-993 -510,-42 -72,-351 -329,124 z"
   id="path25" />
   <path
   class="fil9"
   d="m 1874,8362 c -155,834 -487,1116 -809,1860 l -343,82 c -322,1059 -273,3642 377,4459 125,-167 431,-719 451,-773 135,-372 -231,-2144 241,-3560 427,-1281 890,-1576 1622,-2232 183,-165 212,-180 381,-290 l 353,-237 c -624,136 -488,34 -702,-139 -403,-29 -87,786 -1571,830 z"
   id="path27" />
   <path
   class="fil9"
   d="m 16935,14583 c 461,-1259 563,-2887 316,-4288 -430,-233 -374,-227 -612,-735 -177,-378 -340,-477 -458,-1037 -226,-330 -474,-165 -924,-367 -385,-174 -387,-291 -633,-712 l -330,74 c 24,290 498,849 914,1138 1185,826 1450,2821 1225,4325 -66,439 -235,659 -32,994 486,803 346,627 534,608 z"
   id="path29" />
   <path
   class="fil10"
   d="m 14421,12543 c 198,283 977,646 1265,704 147,-763 -2,-1618 -216,-2211 -591,409 -824,510 -1049,1507 z"
   id="path31" />
   <path
   class="fil10"
   d="m 3473,12630 c -44,-778 -447,-1173 -870,-1424 -325,59 -81,-222 -278,309 -154,418 -125,1242 -17,1691 179,-4 1041,-440 1165,-576 z"
   id="path33" />
   <path
   class="fil11"
   d="M 1049,8785 C 814,9062 710,9871 722,10304 l 343,-82 c 322,-744 654,-1026 809,-1860 -192,325 -103,311 -395,516 -236,166 -324,173 -517,251 z"
   id="path35" />
   <path
   class="fil11"
   d="m 17251,10295 -288,-1467 c -164,151 23,245 -133,43 -171,-113 40,153 -649,-348 118,560 281,659 458,1037 238,508 182,502 612,735 z"
   id="path37" />
   <path
   class="fil11"
   d="m 14908,18089 -91,525 -26,51 c 657,-398 297,-193 707,-800 247,-365 391,-569 546,-1021 -424,-37 -758,907 -1136,1245 z"
   id="path39" />
   <path
   class="fil11"
   d="m 3164,18681 -45,-64 c -214,-581 -763,-1758 -1190,-1775 129,451 292,674 529,1020 424,618 61,358 706,819 z"
   id="path41" />
  </g>
 </g>
</svg>
