<?xml version="1.0" encoding="UTF-8" standalone="no"?>
<svg
   xmlns:dc="http://purl.org/dc/elements/1.1/"
   xmlns:cc="http://creativecommons.org/ns#"
   xmlns:rdf="http://www.w3.org/1999/02/22-rdf-syntax-ns#"
   xmlns:svg="http://www.w3.org/2000/svg"
   xmlns="http://www.w3.org/2000/svg"
   xmlns:sodipodi="http://sodipodi.sourceforge.net/DTD/sodipodi-0.dtd"
   xmlns:inkscape="http://www.inkscape.org/namespaces/inkscape"
   viewBox="0 0 467.08786 317.34236"
   version="1.1"
   id="svg154"
   sodipodi:docname="note.svg"
   width="123.58366mm"
   height="83.963501mm"
   inkscape:version="1.0.2-2 (e86c870879, 2021-01-15)">
  <metadata
     id="metadata160">
    <rdf:RDF>
      <cc:Work
         rdf:about="">
        <dc:format>image/svg+xml</dc:format>
        <dc:type
           rdf:resource="http://purl.org/dc/dcmitype/StillImage" />
        <dc:title></dc:title>
      </cc:Work>
    </rdf:RDF>
  </metadata>
  <defs
     id="defs158" />
  <sodipodi:namedview
     pagecolor="#ffffff"
     bordercolor="#666666"
     borderopacity="1"
     objecttolerance="10"
     gridtolerance="10"
     guidetolerance="10"
     inkscape:pageopacity="0"
     inkscape:pageshadow="2"
     inkscape:window-width="1920"
     inkscape:window-height="1017"
     id="namedview156"
     showgrid="false"
     units="mm"
     inkscape:zoom="0.88407948"
     inkscape:cx="58.675329"
     inkscape:cy="-41.597796"
     inkscape:window-x="-8"
     inkscape:window-y="-8"
     inkscape:window-maximized="1"
     inkscape:current-layer="svg154" />
  <g
     transform="matrix(1.178407,-0.77966333,0.77966333,1.178407,-1472.4991,377.47048)"
     stroke-linecap="round"
     stroke-linejoin="round"
     id="g152">
    <path
       d="m 907.2,526.46 116.91,88.915 130.68,-165.3 -113.71,-76.472 z"
       fill="#ffffff"
       stroke="#000000"
       stroke-width="2.7012"
       id="path2" />
    <path
       d="m 913.24,514.16 0.41324,8.925 c -0.4257,1.832 0.97753,3.4363 3.2832,4.8837 l 110.23996,83.529 125.66,-160.12 -114.17,-76.193 z"
       fill="#ffffff"
       stroke="#000000"
       stroke-width="1.3506"
       id="path4" />
    <path
       d="m 1023.9,614.35 129.18,95.912 130.68,-165.3 -128.23,-84.321 -131.63,153.71 z"
       fill="#ffffff"
       stroke="#000000"
       stroke-width="2.7012"
       id="path6" />
    <path
       d="m 1148.6,690.21 2.9095,14.656 124.64,-155.88 c 1.7634,-2.0698 3.2267,-3.6034 2.3081,-6.5982 l -2.0576,-14.059 z"
       fill="#ffffff"
       stroke="#000000"
       stroke-dashoffset="1.5"
       stroke-width="1.3506"
       id="path8" />
    <path
       d="m 1026.2,599.92 0.7857,10.472 121.27,92.16 c 3.9468,3.9787 3.6146,1.7154 3.0832,-0.74908 l -1.75,-12.276 z"
       fill="#ffffff"
       stroke="#000000"
       stroke-dashoffset="1.5"
       stroke-width="1.3506"
       id="path10" />
    <path
       d="m 1022,597.23 c 42.598,31.093 75.598,56.74 120.19,88.054 5.8033,4.674 9.6757,2.3712 12.609,-1.2321 l 119.13,-149.38 c 3.6463,-4.0487 3.3531,-8.6974 -2.131,-11.03 -40.795,-24.82 -78.692,-51.286 -118.5,-77.421 z"
       fill="#ffffff"
       stroke="#000000"
       stroke-width="2.0259"
       id="path12" />
    <path
       d="m 916.7,516.49 c 39.463,32.715 69.208,51.794 108.71,83.732 l 134.4,-150.7 c -40.19,-23.85 -73.798,-46.692 -110.32,-74.118 -5.1736,-4.6136 -11.722,-2.5226 -13.203,0.3238 l -120.22,130.86 c -4.5733,3.8609 -2.1225,7.2222 0.63223,9.903 z"
       fill="#ffffff"
       stroke="#000000"
       stroke-width="2.0259"
       id="path14" />
    <path
       d="m 1151.5,478.54 108.77,71.589"
       fill="#ff0000"
       stroke="#000000"
       stroke-dashoffset="3.003"
       id="path16" />
    <path
       d="M 1187.9,468.64 1054.99,621.72"
       fill="#ff0000"
       stroke="#ff0000"
       stroke-dashoffset="3.003"
       id="path18" />
    <path
       d="m 1077.8,560.16 111.52,78.652"
       fill="#ff0000"
       stroke="#000000"
       stroke-dashoffset="3.003"
       id="path20" />
    <path
       d="m 1132.7,495.02 110.73,76.298"
       fill="#ff0000"
       stroke="#000000"
       stroke-dashoffset="3.003"
       id="path22" />
    <path
       d="m 1143.3,487.57 108.38,73.551"
       fill="#ff0000"
       stroke="#000000"
       stroke-dashoffset="3.003"
       id="path24" />
    <path
       d="m 1125.2,506.4 109.56,75.121"
       fill="#ff0000"
       stroke="#000000"
       stroke-dashoffset="3.003"
       id="path26" />
    <path
       d="m 1116.2,517.78 110.73,74.728"
       fill="#ff0000"
       stroke="#000000"
       stroke-dashoffset="3.003"
       id="path28" />
    <path
       d="m 1107.2,527.59 110.73,75.906"
       fill="#ff0000"
       stroke="#000000"
       stroke-dashoffset="3.003"
       id="path30" />
    <path
       d="m 1097.8,538.19 111.13,77.671"
       fill="#ff0000"
       stroke="#000000"
       stroke-dashoffset="3.003"
       id="path32" />
    <path
       d="m 1087.6,548 111.52,79.437"
       fill="#ff0000"
       stroke="#000000"
       stroke-dashoffset="3.003"
       id="path34" />
    <path
       d="m 1069.1,572.72 111.52,78.652"
       fill="#ff0000"
       stroke="#000000"
       stroke-dashoffset="3.003"
       id="path36" />
    <path
       d="m 1058.5,586.06 111.52,78.652"
       fill="#ff0000"
       stroke="#000000"
       stroke-dashoffset="3.003"
       id="path38" />
    <path
       d="M 1047.5,597.44 1160,676.485"
       fill="#ff0000"
       stroke="#000000"
       stroke-dashoffset="3.003"
       id="path40" />
    <path
       d="m 1026.7,387.43 107.93,77.772"
       fill="#ff0000"
       stroke="#000000"
       stroke-dashoffset="3.003"
       id="path42" />
    <path
       d="m 950.44,470.1 109.85,76.433"
       fill="#ff0000"
       stroke="#000000"
       stroke-dashoffset="3.003"
       id="path44" />
    <path
       d="m 1007.8,406.27 109.11,77.38"
       fill="#ff0000"
       stroke="#000000"
       stroke-dashoffset="3.003"
       id="path46" />
    <path
       d="m 1017.2,396.46 108.72,78.165"
       fill="#ff0000"
       stroke="#000000"
       stroke-dashoffset="3.003"
       id="path48" />
    <path
       d="m 998.18,417.19 111.69,77.447"
       fill="#ff0000"
       stroke="#000000"
       stroke-dashoffset="3.003"
       id="path50" />
    <path
       d="m 988.9,427.72 110.73,76.948"
       fill="#ff0000"
       stroke="#000000"
       stroke-dashoffset="3.003"
       id="path52" />
    <path
       d="m 980.43,438.08 109.07,75.351"
       fill="#ff0000"
       stroke="#000000"
       stroke-dashoffset="3.003"
       id="path54" />
    <path
       d="m 969.9,448.12 109.39,76.69"
       fill="#ff0000"
       stroke="#000000"
       stroke-dashoffset="3.003"
       id="path56" />
    <path
       d="m 960.68,458.13 110.54,78.686"
       fill="#ff0000"
       stroke="#000000"
       stroke-dashoffset="3.003"
       id="path58" />
    <path
       d="m 941.25,479.88 109.3,79.207"
       fill="#ff0000"
       stroke="#000000"
       stroke-dashoffset="3.003"
       id="path60" />
    <path
       d="m 930.69,490.64 109.26,80.121"
       fill="#ff0000"
       stroke="#000000"
       stroke-dashoffset="3.003"
       id="path62" />
    <path
       d="m 920.26,501.83 110.37,82.537"
       fill="#ff0000"
       stroke="#000000"
       stroke-dashoffset="3.003"
       id="path64" />
    <path
       d="M 1059.5,384.81 931.54,527.18"
       fill="#ff0000"
       stroke="#ff0000"
       stroke-dashoffset="3.003"
       id="path66" />
    <path
       transform="matrix(0.92669,0,0,0.88502,488.83,94.685)"
       d="m 720.86,442.95 c 0,2.6007 -2.1083,4.7089 -4.7089,4.7089 -2.6006,0 -4.7089,-2.1083 -4.7089,-4.7089 0,-2.6006 2.1083,-4.7089 4.7089,-4.7089 2.6006,0 4.7089,2.1083 4.7089,4.7089 z"
       fill="#ffffff"
       stroke="#000000"
       stroke-dashoffset="3.003"
       id="path68" />
    <path
       transform="matrix(0.92669,0,0,0.88502,445.34,145.31)"
       d="m 720.86,442.95 c 0,2.6007 -2.1083,4.7089 -4.7089,4.7089 -2.6006,0 -4.7089,-2.1083 -4.7089,-4.7089 0,-2.6006 2.1083,-4.7089 4.7089,-4.7089 2.6006,0 4.7089,2.1083 4.7089,4.7089 z"
       fill="#ffffff"
       stroke="#000000"
       stroke-dashoffset="3.003"
       id="path70" />
    <path
       transform="matrix(0.92669,0,0,0.88502,392.69,201.03)"
       d="m 720.86,442.95 c 0,2.6007 -2.1083,4.7089 -4.7089,4.7089 -2.6006,0 -4.7089,-2.1083 -4.7089,-4.7089 0,-2.6006 2.1083,-4.7089 4.7089,-4.7089 2.6006,0 4.7089,2.1083 4.7089,4.7089 z"
       fill="#ffffff"
       stroke="#000000"
       stroke-dashoffset="3.003"
       id="path72" />
    <path
       transform="matrix(0.92669,0,0,0.88502,414.73,123.33)"
       d="m 720.86,442.95 c 0,2.6007 -2.1083,4.7089 -4.7089,4.7089 -2.6006,0 -4.7089,-2.1083 -4.7089,-4.7089 0,-2.6006 2.1083,-4.7089 4.7089,-4.7089 2.6006,0 4.7089,2.1083 4.7089,4.7089 z"
       fill="#ffffff"
       stroke="#000000"
       stroke-dashoffset="3.003"
       id="path74" />
    <path
       transform="matrix(0.92669,0,0,0.88502,362.77,179.51)"
       d="m 720.86,442.95 c 0,2.6007 -2.1083,4.7089 -4.7089,4.7089 -2.6006,0 -4.7089,-2.1083 -4.7089,-4.7089 0,-2.6006 2.1083,-4.7089 4.7089,-4.7089 2.6006,0 4.7089,2.1083 4.7089,4.7089 z"
       fill="#ffffff"
       stroke="#000000"
       stroke-dashoffset="3.003"
       id="path76" />
    <path
       transform="matrix(0.92669,0,0,0.88502,458.22,71.925)"
       d="m 720.86,442.95 c 0,2.6007 -2.1083,4.7089 -4.7089,4.7089 -2.6006,0 -4.7089,-2.1083 -4.7089,-4.7089 0,-2.6006 2.1083,-4.7089 4.7089,-4.7089 2.6006,0 4.7089,2.1083 4.7089,4.7089 z"
       fill="#ffffff"
       stroke="#000000"
       stroke-dashoffset="3.003"
       id="path78" />
    <g
       transform="translate(435.96,-43.076)"
       fill="#ffffff"
       stroke="#000000"
       stroke-dashoffset="1.5"
       stroke-width="1.3506"
       id="g84">
      <path
         d="m 714.63,510.52 3.6358,2.5555 8.2238,-8.7665 -3.0333,-2.0288 z"
         id="path80" />
      <path
         d="m 717.8,510.08 4.6802,-5.0935 c -1.9618,-6.9484 -5.3133,-13.525 -13.199,-11.133 l -5.9903,7.4842 c 9.2882,-3.4278 12.139,-0.12304 14.509,8.7428 z"
         id="path82" />
    </g>
    <g
       transform="translate(426.66,-31.097)"
       fill="#ffffff"
       stroke="#000000"
       stroke-dashoffset="1.5"
       stroke-width="1.3506"
       id="g90">
      <path
         d="m 714.63,510.52 3.6358,2.5555 8.2238,-8.7665 -3.0333,-2.0288 z"
         id="path86" />
      <path
         d="m 717.8,510.08 4.6802,-5.0935 c -1.9618,-6.9484 -5.3133,-13.525 -13.199,-11.133 l -5.9903,7.4842 c 9.2882,-3.4278 12.139,-0.12304 14.509,8.7428 z"
         id="path88" />
    </g>
    <g
       transform="translate(415.4,-19.51)"
       fill="#ffffff"
       stroke="#000000"
       stroke-dashoffset="1.5"
       stroke-width="1.3506"
       id="g96">
      <path
         d="m 714.63,510.52 3.6358,2.5555 8.2238,-8.7665 -3.0333,-2.0288 z"
         id="path92" />
      <path
         d="m 717.8,510.08 4.6802,-5.0935 c -1.9618,-6.9484 -5.3133,-13.525 -13.199,-11.133 l -5.9903,7.4842 c 9.2882,-3.4278 12.139,-0.12304 14.509,8.7428 z"
         id="path94" />
    </g>
    <g
       transform="translate(404.93,-7.2062)"
       fill="#ffffff"
       stroke="#000000"
       stroke-dashoffset="1.5"
       stroke-width="1.3506"
       id="g102">
      <path
         d="m 714.63,510.52 3.6358,2.5555 8.2238,-8.7665 -3.0333,-2.0288 z"
         id="path98" />
      <path
         d="m 717.8,510.08 4.6802,-5.0935 c -1.9618,-6.9484 -5.3133,-13.525 -13.199,-11.133 l -5.9903,7.4842 c 9.2882,-3.4278 12.139,-0.12304 14.509,8.7428 z"
         id="path100" />
    </g>
    <g
       transform="translate(394.38,4.6103)"
       fill="#ffffff"
       stroke="#000000"
       stroke-dashoffset="1.5"
       stroke-width="1.3506"
       id="g108">
      <path
         d="m 714.63,510.52 3.6358,2.5555 8.2238,-8.7665 -3.0333,-2.0288 z"
         id="path104" />
      <path
         d="m 717.8,510.08 4.6802,-5.0935 c -1.9618,-6.9484 -5.3133,-13.525 -13.199,-11.133 l -5.9903,7.4842 c 9.2882,-3.4278 12.139,-0.12304 14.509,8.7428 z"
         id="path106" />
    </g>
    <g
       transform="translate(383.67,16.427)"
       fill="#ffffff"
       stroke="#000000"
       stroke-dashoffset="1.5"
       stroke-width="1.3506"
       id="g114">
      <path
         d="m 714.63,510.52 3.6358,2.5555 8.2238,-8.7665 -3.0333,-2.0288 z"
         id="path110" />
      <path
         d="m 717.8,510.08 4.6802,-5.0935 c -1.9618,-6.9484 -5.3133,-13.525 -13.199,-11.133 l -5.9903,7.4842 c 9.2882,-3.4278 12.139,-0.12304 14.509,8.7428 z"
         id="path112" />
    </g>
    <g
       transform="translate(373.04,28.339)"
       fill="#ffffff"
       stroke="#000000"
       stroke-dashoffset="1.5"
       stroke-width="1.3506"
       id="g120">
      <path
         d="m 714.63,510.52 3.6358,2.5555 8.2238,-8.7665 -3.0333,-2.0288 z"
         id="path116" />
      <path
         d="m 717.8,510.08 4.6802,-5.0935 c -1.9618,-6.9484 -5.3133,-13.525 -13.199,-11.133 l -5.9903,7.4842 c 9.2882,-3.4278 12.139,-0.12304 14.509,8.7428 z"
         id="path118" />
    </g>
    <g
       transform="translate(361.94,40.548)"
       fill="#ffffff"
       stroke="#000000"
       stroke-dashoffset="1.5"
       stroke-width="1.3506"
       id="g126">
      <path
         d="m 714.63,510.52 3.6358,2.5555 8.2238,-8.7665 -3.0333,-2.0288 z"
         id="path122" />
      <path
         d="m 717.8,510.08 4.6802,-5.0935 c -1.9618,-6.9484 -5.3133,-13.525 -13.199,-11.133 l -5.9903,7.4842 c 9.2882,-3.4278 12.139,-0.12304 14.509,8.7428 z"
         id="path124" />
    </g>
    <g
       transform="translate(351.13,53.407)"
       fill="#ffffff"
       stroke="#000000"
       stroke-dashoffset="1.5"
       stroke-width="1.3506"
       id="g132">
      <path
         d="m 714.63,510.52 3.6358,2.5555 8.2238,-8.7665 -3.0333,-2.0288 z"
         id="path128" />
      <path
         d="m 717.8,510.08 4.6802,-5.0935 c -1.9618,-6.9484 -5.3133,-13.525 -13.199,-11.133 l -5.9903,7.4842 c 9.2882,-3.4278 12.139,-0.12304 14.509,8.7428 z"
         id="path130" />
    </g>
    <g
       transform="translate(340.36,64.831)"
       fill="#ffffff"
       stroke="#000000"
       stroke-dashoffset="1.5"
       stroke-width="1.3506"
       id="g138">
      <path
         d="m 714.63,510.52 3.6358,2.5555 8.2238,-8.7665 -3.0333,-2.0288 z"
         id="path134" />
      <path
         d="m 717.8,510.08 4.6802,-5.0935 c -1.9618,-6.9484 -5.3133,-13.525 -13.199,-11.133 l -5.9903,7.4842 c 9.2882,-3.4278 12.139,-0.12304 14.509,8.7428 z"
         id="path136" />
    </g>
    <g
       transform="translate(329.1,77.04)"
       fill="#ffffff"
       stroke="#000000"
       stroke-dashoffset="1.5"
       stroke-width="1.3506"
       id="g144">
      <path
         d="m 714.63,510.52 3.6358,2.5555 8.2238,-8.7665 -3.0333,-2.0288 z"
         id="path140" />
      <path
         d="m 717.8,510.08 4.6802,-5.0935 c -1.9618,-6.9484 -5.3133,-13.525 -13.199,-11.133 l -5.9903,7.4842 c 9.2882,-3.4278 12.139,-0.12304 14.509,8.7428 z"
         id="path142" />
    </g>
    <g
       transform="translate(318.11,88.42)"
       fill="#ffffff"
       stroke="#000000"
       stroke-dashoffset="1.5"
       stroke-width="1.3506"
       id="g150">
      <path
         d="m 714.63,510.52 3.6358,2.5555 8.2238,-8.7665 -3.0333,-2.0288 z"
         id="path146" />
      <path
         d="m 717.8,510.08 4.6802,-5.0935 c -1.9618,-6.9484 -5.3133,-13.525 -13.199,-11.133 l -5.9903,7.4842 c 9.2882,-3.4278 12.139,-0.12304 14.509,8.7428 z"
         id="path148" />
    </g>
  </g>
  <path
     style="fill:#00ff00;stroke:#006400;stroke-width:4.23895;stroke-linecap:square;stroke-linejoin:round"
     id="path993"
     d="m 289.78505,48.397278 c 0.8301,4.524502 1.91315,8.999644 2.99182,13.470152 0.95215,3.881672 1.95929,7.750233 2.81984,11.653666 0.21011,0.692008 0.24045,1.435095 0.47217,2.121889 0.0318,0.0941 0.0982,0.291767 0.18107,0.236901 0.4528,-0.299807 0.87674,-0.64107 1.31512,-0.961605 -0.53353,-0.04734 -0.29728,0.01823 -0.71774,-0.160995 0,0 -0.168,0.0999 -0.168,0.0999 v 0 c 0.028,0.414258 0.0598,0.193762 -0.16545,0.647527 0.4846,-0.203696 0.9748,-0.394547 1.45379,-0.611101 0.11685,-0.05285 -0.5772,-2.211217 -0.58344,-2.338909 -1.05992,-3.823119 -2.11882,-7.646691 -3.14028,-11.480285 -1.13613,-4.473263 -2.21667,-8.969071 -2.80672,-13.552962 0,0 -1.65218,0.875753 -1.65218,0.875753 z" />
  <path
     style="fill:#00ff00;stroke:#006400;stroke-width:4.23895;stroke-linecap:square;stroke-linejoin:round"
     id="path995"
     d="m 290.80607,54.905525 c 0.21703,-0.989504 0.42826,-1.980499 0.68,-2.962088 0.37754,-1.348257 1.0727,-2.226861 2.15883,-3.075546 0.21523,-0.13648 0.44365,-0.254095 0.64571,-0.40942 0.19185,-0.147477 -0.85647,0.40076 -0.61496,0.385774 0.31419,-0.0195 0.56679,-0.274442 0.85517,-0.400678 0.93303,-0.408438 1.88014,-0.703645 2.86041,-0.972788 1.28888,-0.217477 2.93708,-0.588948 4.12051,0.218513 0.17874,0.121954 0.30998,0.301978 0.46498,0.452967 0.10131,0.200069 0.2368,0.3862 0.30372,0.600209 0.48304,1.544843 -0.32048,3.505427 -0.85058,4.932314 -0.78203,1.94437 -1.92266,3.699199 -3.18364,5.361026 -0.59076,0.767125 -1.2351,1.484916 -2.01855,2.056399 -0.54508,0.332677 -1.93573,1.227232 0.54341,-0.296747 0.11149,-0.06857 -0.23225,0.12105 -0.34937,0.179615 -0.2266,0.113321 -0.40235,0.194023 -0.62995,0.30067 -0.29444,0.188786 -2.98278,1.449592 -1.6653,1.046097 0,0 0.20441,-0.0798 0.20441,-0.0798 v 0 c 1.76635,-0.767995 -1.52529,0.780928 0.0247,0.173525 1.27537,-0.557049 2.49047,-1.247232 3.64307,-2.026871 0.78818,-0.59733 1.45595,-1.325061 2.03695,-2.125353 1.19608,-1.65825 2.26736,-3.408218 2.98702,-5.331749 0.50248,-1.431332 1.26979,-3.531572 0.7713,-5.052963 -0.0757,-0.231045 -0.22416,-0.431519 -0.33623,-0.647277 -0.17055,-0.164053 -0.31588,-0.359234 -0.51166,-0.49216 -1.24057,-0.842252 -2.95319,-0.451147 -4.30451,-0.228272 -2.31456,0.615898 -4.51036,1.527137 -6.46654,2.94804 -1.02773,0.86649 -1.65954,1.737958 -1.92086,3.081721 -0.12816,0.899117 -0.13593,1.804132 -0.14572,2.711189 0,0 0.69762,-0.346335 0.69762,-0.346335 z" />
  <path
     style="fill:#00ff00;stroke:#006400;stroke-width:4.23895;stroke-linecap:square;stroke-linejoin:round"
     id="path997"
     d="m 307.76756,49.043305 c 0.76074,2.224904 1.61074,4.417519 2.38034,6.639349 0.20119,0.602716 0.47405,1.370717 0.63173,2.003919 0.22281,0.894764 -0.0644,2.092779 1.71912,-1.027882 0.13988,-0.244614 -0.22616,-0.517216 -0.31178,-0.785642 -0.10866,-0.340629 -0.17991,-0.692062 -0.26988,-1.038092 -0.43186,-2.818185 0.34829,-4.388441 1.87786,-6.650186 0.65771,-0.860637 0.41503,-0.453051 0.78811,-1.184931 0,0 -0.0783,0.03236 -0.0783,0.03236 v 0 c -1.39914,1.06685 -0.73967,0.499231 -1.98209,1.698539 -0.29488,0.343321 -0.61277,0.668151 -0.88464,1.029963 -1.37599,1.83117 -1.87989,3.790012 -1.53273,6.052343 0.081,0.35957 0.14679,0.722893 0.24291,1.07871 0.0766,0.283551 -0.0171,0.804308 0.27473,0.837235 2.50125,0.282168 2.33108,-0.08474 1.94459,-1.031729 -0.26128,-0.640201 -0.55201,-1.268147 -0.80939,-1.909978 -0.89568,-2.168795 -1.69912,-4.375019 -2.40195,-6.614175 0,0 -1.5886,0.870198 -1.5886,0.870198 z" />
  <path
     style="fill:#00ff00;stroke:#006400;stroke-width:4.23895;stroke-linecap:square;stroke-linejoin:round"
     id="path1001"
     d="m 327.3016,44.576284 c -1.26345,0.405254 -2.47641,0.938078 -3.65818,1.537489 -1.62417,0.916414 -3.44066,1.772421 -4.4301,3.445006 -0.14031,0.237085 -0.2443,0.493796 -0.36645,0.740693 -0.66364,1.649325 -0.68168,3.155565 -0.26864,4.859846 0.38357,1.05965 0.9584,2.131855 1.88503,2.820125 0.16902,0.125544 0.35977,0.218803 0.53965,0.328205 0.93118,0.37121 2.2735,0.677263 3.22843,0.189105 0.79656,-0.407193 1.55149,-0.891104 2.32724,-1.336657 1.24141,-1.069825 1.84372,-2.595019 2.25566,-4.139027 0.30527,-1.278884 0.25128,-2.572317 0.0428,-3.857595 -0.081,-0.594817 -0.2961,-1.114961 -0.65124,-1.592552 -0.31313,-0.384041 -0.62844,-0.765669 -0.96452,-1.129894 -0.79135,-0.515204 -0.31863,-0.263339 -2.2217,1.123418 -0.0772,0.05622 0.0188,0.190616 0.041,0.283497 0.11275,0.473133 0.34864,0.902552 0.56727,1.33173 0.98037,1.758186 2.24059,3.336046 3.50977,4.890583 1.1432,1.397516 2.40665,2.695439 3.78947,3.856191 0.44326,0.319266 0.90589,0.827124 1.49383,0.777894 0.0779,-0.02512 0.15569,-0.05023 0.23355,-0.07535 0,0 1.23896,-0.805359 1.23896,-0.805359 v 0 c 0.0373,-0.0483 0.0746,-0.09659 0.11191,-0.144896 0.007,-0.04188 0.0322,-0.08411 0.0229,-0.125656 -0.0523,-0.232233 -0.94684,-0.698742 -1.097,-0.883593 -1.41811,-1.111169 -2.72143,-2.360205 -3.86787,-3.752764 -1.25686,-1.540355 -2.49944,-3.112357 -3.43711,-4.873519 -0.17658,-0.370001 -0.29057,-0.570693 -0.41071,-0.947885 -0.0329,-0.103289 -0.0641,-0.208458 -0.076,-0.316208 -0.006,-0.04804 0.0694,-0.162982 0.0254,-0.142727 -3.12307,1.441824 -2.6155,1.261902 -1.8721,1.006196 0.37838,0.311872 0.71432,0.665701 1.0135,1.054722 0.33218,0.445249 0.5517,0.92785 0.64108,1.482262 0.24479,1.240618 0.28425,2.494307 -0.006,3.735305 -0.39724,1.509973 -0.98275,2.990127 -2.26228,3.970855 0.38098,-0.207065 0.80034,-0.355414 1.14295,-0.621199 0.17499,-0.135759 -0.41132,0.169179 -0.62673,0.220738 -0.85926,0.20567 -1.75637,0.07261 -2.57135,-0.231393 -0.178,-0.09548 -0.36693,-0.172945 -0.53403,-0.286439 -0.92556,-0.628608 -1.49217,-1.677511 -1.86648,-2.69748 -0.4212,-1.666226 -0.38317,-3.114469 0.28463,-4.721643 0.51089,-0.996614 1.02488,-1.710202 1.93518,-2.385622 0.20628,-0.153049 0.88177,-0.343093 0.63984,-0.429371 -0.2575,-0.09183 -0.47629,0.26851 -0.71445,0.402765 1.20253,-0.633799 2.43953,-1.199352 3.73258,-1.625209 0,0 1.20006,-0.934591 1.20006,-0.934591 z" />
  <path
     style="fill:#00ff00;stroke:#006400;stroke-width:4.23895;stroke-linecap:square;stroke-linejoin:round"
     id="path1003"
     d="m 345.58635,45.53723 c -1.74837,0.787144 -3.44492,1.713523 -4.9208,2.944369 -1.04175,0.914414 -1.67947,2.085396 -2.01942,3.411987 -0.25688,1.387951 0.30541,2.670657 0.85352,3.911655 0.54213,1.217758 1.22946,2.354336 2.17674,3.295587 1.06382,0.882471 2.00954,1.056782 3.35782,0.998529 1.48074,-0.147953 2.87549,-0.655862 4.18712,-1.337014 1.67243,-0.888974 3.27645,-1.850292 4.39853,-3.393881 0.0716,-0.100322 0.42461,-0.671982 0.34606,-0.816952 -0.0867,-0.160114 -0.51667,-0.218243 -0.62702,-0.244373 0,0 -0.17159,0.08958 -0.17159,0.08958 v 0 c -0.45267,0.590594 -0.94554,1.147135 -1.3782,1.753969 -0.48869,0.561526 -1.00327,1.089041 -1.58919,1.551329 -0.17903,0.141256 -0.76322,0.486629 -0.54919,0.407964 0.41829,-0.153726 0.78326,-0.42528 1.17488,-0.637918 -1.29419,0.709415 -2.67387,1.241835 -4.1492,1.419747 -1.29944,0.09336 -2.22494,-0.03012 -3.28326,-0.848959 -0.97394,-0.885092 -1.66751,-1.989976 -2.16409,-3.207634 -0.48925,-1.215899 -0.98394,-2.493446 -0.73455,-3.824079 0.34436,-1.264801 0.97008,-2.38257 1.96843,-3.2548 0.17805,-0.147628 0.35064,-0.302102 0.53416,-0.442886 0.42322,-0.324661 1.51982,-1.007945 -0.41847,0.147888 -0.0603,0.03593 0.44431,-0.255227 1.13051,-0.582876 0.1432,-0.06837 0.28895,-0.131238 0.43342,-0.196858 0,0 1.44379,-1.144371 1.44379,-1.144371 z" />
  <path
     style="fill:#00ff00;stroke:#006400;stroke-width:4.23895;stroke-linecap:square;stroke-linejoin:round"
     id="path1005"
     d="m 360.36507,43.460289 c -0.93432,1.548931 -0.30394,3.458398 0.0641,5.089151 0.57264,2.371979 1.31076,4.698763 2.10522,7.004402 0.22328,0.610526 0.43675,1.244453 0.77131,1.80718 0.17923,0.301506 0.40747,0.590956 0.60382,0.883281 0.0244,0.02408 0.34604,0.352762 0.40307,0.367902 0.63779,0.169334 0.24088,-0.168586 0.52516,0.112629 0,0 0.18523,-0.09262 0.18523,-0.09262 v 0 c 0.32967,-0.580046 0.64084,-0.596522 0.57425,-1.333156 -0.21024,-1.006639 -0.52426,-1.981998 -0.91658,-2.933596 -0.84633,-2.269068 -1.62802,-4.564849 -2.19423,-6.922132 -0.21175,-0.948272 -0.35248,-1.469158 -0.47427,-2.42014 -0.10597,-0.827012 -0.14409,-1.682945 0.36599,-2.388391 0,0 -2.01316,0.825488 -2.01316,0.825488 z" />
  <path
     style="fill:#00ff00;stroke:#006400;stroke-width:4.23895;stroke-linecap:square;stroke-linejoin:round"
     id="path1007"
     d="m 351.42576,49.916981 c -0.49591,0.303891 -1.03736,0.543662 -1.48775,0.911674 -0.17295,0.14132 0.42115,-0.149324 0.63472,-0.214661 0.27137,-0.08301 0.5453,-0.157493 0.81959,-0.230246 1.08862,-0.28875 2.1904,-0.516199 3.29194,-0.748875 2.05711,-0.434209 4.133,-0.761636 6.21705,-1.033067 1.54824,-0.196699 3.0968,-0.389202 4.64869,-0.554804 0.69845,-0.06655 1.3969,-0.131407 2.09009,-0.241143 0.46396,-0.08491 0.93198,-0.138571 1.40259,-0.166613 0.28667,-0.0346 0.57774,-0.01679 0.86431,-0.04394 0.5377,-0.129712 0.93421,-0.567017 1.33476,-0.909961 0,0 -0.18995,0.115413 -0.18995,0.115413 v 0 c 0.19495,-0.107514 1.08338,-0.463465 1.12304,-0.770484 0.003,-0.02026 -0.0301,-0.02765 -0.0451,-0.04147 -0.28356,-0.05172 -0.57955,0.0062 -0.8642,0.01549 -0.4789,0.02764 -0.95752,0.0612 -1.43005,0.148806 -0.70622,0.130616 -1.41831,0.216845 -2.13242,0.292404 -1.57635,0.187042 -3.14755,0.414957 -4.72366,0.604264 -2.13197,0.287302 -4.25172,0.648583 -6.35352,1.110319 -1.13621,0.250951 -2.27086,0.502482 -3.394,0.807965 -0.12095,0.0329 -1.34353,0.372864 -1.53088,0.466203 -0.79725,0.39719 -1.56276,0.85509 -2.34415,1.282635 0,0 2.06893,-0.799894 2.06893,-0.799894 z" />
  <path
     style="fill:#00ff00;stroke:#006400;stroke-width:4.23895;stroke-linecap:square;stroke-linejoin:round"
     id="path1009"
     d="m 375.63575,51.111725 c 0.87795,-0.06426 1.06049,0.164956 1.33393,0.975646 0.40695,1.773512 0.51133,3.59621 0.77039,5.393894 0.094,0.439884 0.35509,1.61775 0.76987,1.911254 0.7049,0.201108 0.44625,0.02981 0.84208,0.396258 0,0 0.16059,-0.08573 0.16059,-0.08573 v 0 c 0.46004,-1.619414 -0.4678,1.506461 0.55417,-1.137448 0.25196,-0.651852 0.12138,-1.688269 0.11191,-2.364793 -0.18873,-1.831146 -0.32989,-3.681232 -0.75385,-5.475955 -0.50611,-1.268585 -0.85159,-1.274473 -2.10855,-0.884875 0,0 -1.68046,1.271752 -1.68046,1.271752 z" />
  <path
     style="fill:#00ff00;stroke:#006400;stroke-width:4.23895;stroke-linecap:square;stroke-linejoin:round"
     id="path1011"
     d="m 375.7677,39.46104 c -0.12901,0.971654 -0.22441,1.9534 -0.10484,2.929553 0.3777,0.398739 0.13041,0.278686 0.79768,0.2086 0,0 0.1799,-0.09736 0.1799,-0.09736 v 0 c 0.57952,-0.578657 0.35963,-0.254861 0.68027,-0.957069 0.0992,-0.986277 0.0788,-1.983274 0.25579,-2.961732 0,0 -1.8088,0.878007 -1.8088,0.878007 z" />
  <path
     style="fill:#00ff00;stroke:#006400;stroke-width:4.23895;stroke-linecap:square;stroke-linejoin:round"
     id="path1013"
     d="m 392.24315,45.154811 c -2.12652,0.555148 -3.97303,1.820969 -5.83561,2.92945 -1.097,0.820406 -2.07328,1.857649 -2.55076,3.166144 -0.0858,0.235218 -0.13381,0.48259 -0.2006,0.723885 -0.25609,1.55282 0.299,2.979794 0.97506,4.345493 0.78905,1.46856 1.65806,2.218161 3.14568,2.925527 1.53167,0.661742 3.17215,0.74372 4.81208,0.634248 1.49516,-0.144281 2.92726,-0.593632 4.28811,-1.213161 0.8731,-0.450577 1.74871,-0.973189 2.51548,-1.584487 0.0328,-0.02615 -0.0547,-0.06358 -0.0821,-0.09536 0,0 -0.16982,0.06981 -0.16982,0.06981 v 0 c -0.1817,0.114494 -0.73509,0.443521 -0.54507,0.343472 2.20107,-1.158872 0.46416,-0.313032 0.43972,-0.301281 -0.1528,0.07345 -0.3056,0.14692 -0.45839,0.22038 -1.32627,0.578043 -2.70528,1.040302 -4.15015,1.203883 -1.60979,0.138712 -3.22721,0.08557 -4.74355,-0.539075 -1.45102,-0.665231 -2.30455,-1.364548 -3.0809,-2.785635 -0.65713,-1.316725 -1.18425,-2.699742 -0.89854,-4.195262 0.0698,-0.229827 0.12222,-0.465757 0.20963,-0.689483 0.4968,-1.270733 1.48288,-2.261362 2.57567,-3.038632 -0.39372,0.21367 -0.78414,0.433523 -1.18114,0.641012 -0.25341,0.132439 0.49608,-0.284851 0.75025,-0.415812 0.62281,-0.320907 1.28122,-0.597628 1.94494,-0.822937 0.12858,-0.04365 0.26088,-0.07547 0.39131,-0.113208 0,0 1.84872,-1.408967 1.84872,-1.408967 z" />
  <path
     style="fill:#00ff00;stroke:#006400;stroke-width:4.23895;stroke-linecap:square;stroke-linejoin:round"
     id="path1015"
     d="m 402.75231,52.782561 c 1.17507,-0.338439 2.33322,-0.72487 3.45195,-1.219063 1.76613,-0.878936 3.52223,-1.739155 4.62438,-3.406643 0.48983,-0.984782 0.55214,-1.689966 -0.051,-2.62941 -0.82146,-0.950324 -1.98574,-1.091988 -3.16892,-1.144053 -2.42011,-0.03554 -3.60422,1.041548 -5.67598,2.33218 -1.42612,1.203707 -2.11722,2.618305 -2.63141,4.375309 -0.29611,1.457547 -0.35169,3.027572 0.35923,4.383782 0.1355,0.258543 0.31739,0.490005 0.47609,0.735008 1.41477,1.691756 3.28857,2.117254 5.38761,2.326996 1.56561,0.02135 3.11768,-0.262296 4.55677,-0.888432 1.16139,-0.505314 2.89699,-1.644892 3.72732,-2.145872 0.30575,-0.560454 0.20162,-0.270555 0.32534,-0.864946 0,0 -0.0934,0.03963 -0.0934,0.03963 v 0 c -1.27691,1.069666 -0.58382,0.546801 -2.09395,1.548971 0.30793,-0.167588 1.182,-0.265611 0.9238,-0.502767 -0.26076,-0.239513 -0.62318,0.33782 -0.94665,0.481777 -1.4133,0.628948 -2.92705,0.962734 -4.47503,0.960201 -2.10985,-0.174553 -3.7785,-0.541107 -5.27044,-2.153234 -0.16009,-0.227703 -0.34123,-0.441978 -0.48027,-0.683111 -0.73958,-1.282655 -0.69813,-2.79166 -0.38143,-4.191367 0.53453,-1.716214 1.24789,-3.089416 2.67301,-4.239407 -0.42706,0.216297 -0.84245,0.457397 -1.2812,0.648888 -0.21395,0.09338 0.39646,-0.247705 0.60452,-0.35355 0.79857,-0.40625 1.67553,-0.563341 2.56634,-0.562407 1.11689,0.02719 2.23621,0.115229 3.04467,0.982356 0.56745,0.82219 0.52912,1.483149 0.0499,2.35318 -0.33921,0.485532 -0.6875,0.889685 -1.15439,1.261115 -0.17309,0.137695 -0.7433,0.467862 -0.53566,0.391626 0.37542,-0.13785 0.70309,-0.381508 1.05,-0.580481 0.21596,-0.123862 -0.43804,0.23674 -0.65706,0.355111 -1.15305,0.547344 -2.33621,1.015722 -3.57126,1.346223 0,0 -1.35294,1.042382 -1.35294,1.042382 z" />
  <path
     style="fill:#00ff00;stroke:#006400;stroke-width:4.23895;stroke-linecap:square;stroke-linejoin:round"
     id="path1025"
     d="m 318.08609,89.891566 c 1.78873,-0.631928 3.56016,-1.312815 5.29087,-2.089984 1.41349,-0.717201 1.42093,-0.700302 3.31262,-1.867142 0.36681,-0.226261 0.76665,-0.560926 1.00911,-0.927666 0.27125,-0.410287 0.23373,-0.528695 0.28669,-0.985964 -0.28548,-1.350387 -1.59965,-1.758824 -2.78962,-2.03557 -1.57976,-0.226826 -3.19621,-0.07022 -4.6849,0.521856 -0.29586,0.117702 -0.5756,0.272395 -0.8634,0.408592 -2.00043,1.145689 -3.77991,1.918943 -4.0836,4.365592 -0.0359,0.289011 -0.0178,0.582191 -0.0267,0.873279 0.17435,1.878122 1.07268,3.491606 2.59737,4.616551 0.3672,0.270911 0.77483,0.482223 1.16224,0.723334 2.29147,1.081214 4.8335,1.579728 7.36637,1.491459 0.49563,-0.01724 0.98851,-0.08153 1.48275,-0.122223 1.49514,-0.166378 2.87017,-0.71949 4.24365,-1.290787 0,0 0.067,-0.05186 0.067,-0.05186 v 0 c -0.91823,0.122647 -1.83888,0.197493 -2.76634,0.209291 -2.92067,0.02642 -5.87775,-0.135929 -8.55906,-1.420626 -0.38323,-0.229892 -0.78521,-0.431101 -1.14969,-0.689676 -1.50016,-1.064315 -2.40111,-2.595705 -2.53106,-4.430518 0.0448,-0.871358 0.11162,-1.532563 0.56102,-2.307343 0.13254,-0.22848 0.28576,-0.446814 0.46064,-0.644786 0.18105,-0.204953 0.87452,-0.539562 0.60164,-0.557775 -0.38915,-0.026 -0.69602,0.352172 -1.04402,0.528257 0.28464,-0.144901 0.56035,-0.308934 0.85396,-0.434689 1.44904,-0.620568 3.03598,-0.808692 4.59215,-0.595459 0.89378,0.193606 2.0652,0.453496 2.49326,1.393412 0.0562,0.123353 0.0608,0.264298 0.0911,0.396454 -0.1023,0.586685 -0.24774,0.881094 -0.71434,1.287396 -0.17726,0.154355 -0.79235,0.487804 -0.56795,0.417904 0.0526,-0.01639 2.41683,-1.333572 0.13663,-0.09297 -1.72518,0.810656 -3.49401,1.521244 -5.30254,2.125421 0,0 -1.52583,1.186185 -1.52583,1.186185 z" />
  <path
     style="fill:#00ff00;stroke:#006400;stroke-width:4.23895;stroke-linecap:square;stroke-linejoin:round"
     id="path1031"
     d="m 333.26558,85.100271 c 1.7301,1.923408 3.46999,3.838126 5.20589,5.756362 1.26879,1.404052 2.54559,2.801689 3.90087,4.123124 0.34423,0.315264 0.67797,0.641547 1.03085,0.947207 1.94397,0.99978 2.68512,-2.396602 3.01091,-3.38234 0.6957,-2.10102 1.59568,-4.123887 2.44491,-6.16494 0.0464,-0.150129 0.34199,-0.967511 0.28564,-1.21823 -0.028,-0.124484 -0.16638,-0.193452 -0.24958,-0.29017 0,0 -0.13268,0.06132 -0.13268,0.06132 v 0 c -0.64947,0.699723 -1.26414,1.411188 -1.7048,2.26874 -1.02604,2.028816 -1.85228,4.148332 -2.644,6.277992 -0.15946,0.420362 -0.42715,1.140913 -0.61328,1.584024 -0.0571,0.135787 -0.11318,0.272694 -0.18367,0.402024 -0.0403,0.0739 -0.22383,0.2405 -0.14753,0.20495 1.84575,-0.860025 2.39131,-1.670709 1.93046,-1.000306 -0.38363,-0.270303 -0.722,-0.598158 -1.08922,-0.889387 -1.44016,-1.244258 -2.76789,-2.610414 -4.06958,-3.99727 -1.7464,-1.894964 -3.4873,-3.798208 -5.1208,-5.792293 0,0 -1.85442,1.109176 -1.85442,1.109176 z" />
  <path
     style="fill:#00ff00;stroke:#006400;stroke-width:4.23895;stroke-linecap:square;stroke-linejoin:round"
     id="path1033"
     d="m 353.2875,89.42613 c 1.83612,0.239288 3.69377,-0.237438 5.45727,-0.707452 0.95344,-0.290608 1.89409,-0.646326 2.76061,-1.144671 1.57226,-0.904209 2.40281,-1.145716 3.34703,-2.377738 0.2991,-0.608458 0.51207,-1.452813 -0.14115,-1.927914 -0.11841,-0.08605 -0.26166,-0.131125 -0.39249,-0.196603 -1.31174,-0.273596 -2.66214,3.25e-4 -3.9422,0.313979 -0.71992,0.208062 -1.41297,0.501495 -2.05858,0.882845 -1.65499,0.9776 -2.27794,1.223162 -3.38549,2.413274 -1.01305,1.268081 -1.1174,2.639889 -1.05479,4.201078 0.1642,1.343987 0.39103,2.786443 1.30034,3.854855 0.16511,0.194003 0.36581,0.354645 0.54872,0.531974 1.57754,1.111027 3.50867,1.250887 5.37777,1.231517 1.97998,-0.0591 3.78854,-0.77216 5.50076,-1.710843 0.33345,-0.22164 0.6669,-0.443281 1.00035,-0.664921 0,0 0.0938,-0.07602 0.0938,-0.07602 v 0 c -0.0569,9.04e-4 -0.11388,0.0014 -0.17088,0.0028 -1.53156,0.632775 -3.08003,1.197021 -4.76192,1.237009 -1.82714,0.04409 -3.71369,-0.06443 -5.28624,-1.101377 -0.1793,-0.163906 -0.37591,-0.310701 -0.53792,-0.491718 -0.90948,-1.016146 -1.12972,-2.431403 -1.26919,-3.734907 -0.0295,-1.529892 0.10978,-2.860695 1.14671,-4.06635 0.15936,-0.162493 0.30956,-0.334509 0.47807,-0.487479 0.17609,-0.159865 0.78486,-0.507063 0.55409,-0.449526 -0.41051,0.1023 -0.74111,0.409397 -1.12304,0.591375 -0.22465,0.106963 0.42856,-0.253743 0.65052,-0.36623 0.59018,-0.2991 0.74682,-0.331627 1.36455,-0.548449 1.22474,-0.319504 2.50965,-0.575494 3.77588,-0.371233 0.11177,0.04635 0.23347,0.07376 0.33539,0.138896 0.58827,0.376517 0.24533,1.201614 -0.0218,1.654461 -0.11784,0.136352 -0.22359,0.284108 -0.3536,0.408888 -0.5698,0.546937 -1.28796,0.833646 0.71113,-0.246353 0.26728,-0.144393 -0.52845,0.300612 -0.80125,0.434266 -0.8596,0.421125 -1.05824,0.459812 -1.97744,0.783654 -1.74616,0.493724 -3.56519,0.957648 -5.39493,0.798137 0,0 -1.73024,1.190776 -1.73024,1.190776 z" />
  <path
     style="fill:#00ff00;stroke:#006400;stroke-width:4.23895;stroke-linecap:square;stroke-linejoin:round"
     id="path1035"
     d="m 371.26653,87.605771 c 0.50263,1.430475 1.01661,2.857587 1.58918,4.261695 0.42843,1.022335 0.86468,2.041462 1.30375,3.05929 0.20854,0.472938 0.42795,0.941298 0.62001,1.421308 0.0489,0.16341 0.1413,0.30377 0.22974,0.44664 0.0113,-0.0153 0.0127,0.0449 0.025,0.0362 0.57031,-0.4244 1.20389,-0.77869 1.69965,-1.28819 0.0894,-0.0918 -0.0561,-0.250347 -0.08,-0.376357 -0.10385,-0.547375 -0.09,-0.531522 -0.15798,-1.127136 -0.0923,-1.289176 -0.01,-2.600367 0.41738,-3.830001 0.0962,-0.277071 0.22459,-0.541906 0.33688,-0.812874 0.89084,-1.715487 2.40672,-2.871278 4.04444,-3.817891 -0.29184,0.190145 -0.66932,0.289717 -0.87552,0.570435 -0.13084,0.178078 0.41065,-0.165319 0.62295,-0.226586 0.66634,-0.192265 1.38383,-0.166633 2.07006,-0.200912 0.20458,-0.04239 0.40917,-0.08478 0.61375,-0.127169 0,0 0.15665,-0.104843 0.15665,-0.104843 v 0 c 0.0244,-0.115017 0.0489,-0.229991 0.0733,-0.344993 -0.0591,-0.07531 -0.1006,-0.168866 -0.17738,-0.226078 -1.035,-0.770767 -3.73291,1.055413 -4.18319,1.314031 -1.65136,0.985315 -3.1588,2.190009 -4.03858,3.945696 -0.65423,1.618726 -0.91094,3.007914 -0.77667,4.757171 0.008,0.106398 0.1396,1.563107 0.18786,1.554337 0.64254,-0.117 1.21153,-0.48821 1.8173,-0.73232 -0.007,-0.004 -0.0165,-10e-4 -0.0195,-0.0113 -0.0981,-0.11389 -0.17942,-0.24239 -0.24056,-0.38079 -0.22732,-0.462991 -0.43267,-0.936396 -0.65469,-1.401917 -0.46136,-1.003472 -0.92176,-2.007551 -1.37196,-3.016039 -0.59696,-1.386926 -1.13646,-2.79639 -1.6328,-4.222512 0,0 -1.59899,0.881601 -1.59899,0.881601 z" />
  <path
     style="fill:#00ff00;stroke:#006400;stroke-width:4.23895;stroke-linecap:square;stroke-linejoin:round"
     id="path1037"
     d="m 382.88441,89.307552 c 1.64621,1.158052 3.39035,2.146405 5.19692,3.028388 1.33665,0.577938 2.70322,1.189138 4.1383,1.488464 0.25864,0.05398 1.98193,0.242171 2.35824,0.284405 0,0 0.0767,-0.05186 0.0767,-0.05186 v 0 c -0.15213,-0.13169 -1.14146,-0.991645 -1.22592,-1.045126 -1.16405,-0.737054 -2.54523,-1.095033 -3.76366,-1.720489 -1.82977,-0.886703 -3.57356,-1.911454 -5.33279,-2.927331 0,0 -1.44788,0.943476 -1.44788,0.943476 z" />
  <path
     style="fill:#00ff00;stroke:#006400;stroke-width:4.23895;stroke-linecap:square;stroke-linejoin:round"
     id="path1039"
     d="m 398.10672,87.124114 c 0.3406,-0.782397 0.66068,-1.57207 1.05492,-2.329372 0.21798,-0.332644 0.39323,-0.702887 0.6402,-1.01681 0.0437,-0.05553 0.20924,-0.188689 0.15197,-0.147444 -2.00181,1.441552 -1.61446,0.614195 -1.95914,2.218395 -1.07309,4.775456 -2.54033,9.448088 -4.08725,14.087511 -0.72001,2.188316 -1.59675,4.322246 -2.29573,6.517736 -1.3206,4.14809 0.38501,-0.94635 -0.69261,2.24298 0,0 0.0774,-0.0345 0.0774,-0.0345 v 0 c 0.80558,-1.06417 1.25598,-1.58526 1.91712,-2.80968 1.14125,-2.1136 1.79878,-4.43824 2.62191,-6.681036 1.56465,-4.676005 3.08634,-9.376445 4.22411,-14.177701 0.0599,-0.30519 0.46312,-0.787299 0.17979,-0.915584 -1.57807,-0.714503 -1.62634,0.448961 -1.96147,1.255675 -0.29883,0.733648 -0.54999,1.484238 -0.82044,2.228555 0,0 0.9492,-0.438731 0.9492,-0.438731 z" />
  <path
     style="fill:#00ff00;stroke:#006400;stroke-width:4.23895;stroke-linecap:square;stroke-linejoin:round"
     id="path1041"
     d="m 322.06593,125.9164 c -1.94039,-0.33789 -4.00354,-0.0852 -5.88006,0.48944 -0.49176,0.15058 -0.96474,0.35679 -1.44711,0.53518 -1.62135,0.88786 -4.59786,2.03617 -4.6724,4.23759 -0.0318,0.94085 0.32757,1.20608 0.82731,1.94039 0.35168,0.24468 0.67138,0.54337 1.05503,0.73403 1.94418,0.96622 4.2602,0.72496 6.27347,0.15937 0.51496,-0.14466 1.01182,-0.34736 1.51774,-0.52105 1.82487,-0.92912 0.98471,-0.45804 2.53293,-1.39077 0,0 0.0658,-0.0533 0.0658,-0.0533 v 0 c -1.11139,0.60063 -0.5258,0.33203 -1.7616,0.7953 -0.44049,0.12915 -0.87399,0.28504 -1.32145,0.38744 -1.87192,0.42835 -4.02969,0.53099 -5.80515,-0.33551 -0.36547,-0.17836 -0.67288,-0.45689 -1.00933,-0.68534 -0.19979,-0.28688 -0.46094,-0.5396 -0.59938,-0.86062 -0.26716,-0.61945 -0.22381,-1.26319 0.0801,-1.85858 0.16552,-0.32424 0.55246,-0.52167 0.66145,-0.86901 0.0387,-0.1235 -0.4908,0.078 -0.38839,-0.001 0.39398,-0.30475 0.87519,-0.47588 1.31277,-0.71382 0.49356,-0.19439 0.97712,-0.41634 1.48067,-0.58317 1.89185,-0.6268 3.97775,-0.93429 5.95658,-0.63675 0,0 1.1209,-0.76959 1.1209,-0.76959 z" />
  <path
     style="fill:#00ff00;stroke:#006400;stroke-width:4.23895;stroke-linecap:square;stroke-linejoin:round"
     id="path1047"
     d="m 320.63877,111.32927 c 0.60084,3.06272 0.88776,6.18116 1.28105,9.27603 0.46974,3.61934 0.9684,7.23473 1.55675,10.83682 0.17644,0.99706 0.32978,2.00037 0.57458,2.98377 0.0352,0.12519 0.0575,0.25673 0.12589,0.36914 0.36305,-0.27414 0.72612,-0.54827 1.08919,-0.82242 0,0 -0.18957,0.10103 -0.18957,0.10103 v 0 c 0.38054,-0.18056 0.76107,-0.36111 1.14162,-0.54166 0.0431,0.0859 -0.10993,-0.22581 -0.0952,-0.23683 -0.31499,-0.93664 -0.5179,-1.90647 -0.74687,-2.86635 -0.76565,-3.51249 -1.446,-7.04414 -1.98374,-10.59923 -0.4505,-3.07187 -0.74031,-6.18544 -1.46598,-9.20712 0,0 -1.28767,0.7068 -1.28767,0.7068 z" />
  <path
     style="fill:#00ff00;stroke:#006400;stroke-width:4.23895;stroke-linecap:square;stroke-linejoin:round"
     id="path1049"
     d="m 343.21019,123.40126 c -1.12537,-0.67082 -2.38079,-0.87616 -3.67023,-0.85752 -0.81117,0.0818 -1.60374,0.30831 -2.31702,0.71091 -1.98266,1.11904 -2.54531,1.33606 -3.84422,2.77161 -1.13493,1.39359 -1.67725,3.07692 -1.96263,4.82337 -0.11375,1.51621 0.11784,2.52962 1.12175,3.67733 0.75397,0.64167 1.71162,1.05308 2.71937,0.99133 0.21644,-0.0127 0.42847,-0.0671 0.64269,-0.10074 0.66398,-0.22607 0.67654,-0.1894 1.29037,-0.57107 2.24473,-1.39576 2.67982,-1.44689 3.74759,-3.50221 0.59207,-1.38745 0.71544,-2.88839 0.71667,-4.37868 -0.0168,-0.80931 -0.0845,-1.61592 -0.0868,-2.42545 8.6e-4,-1.09342 0.35366,-1.65563 -1.79436,0.64571 -0.10753,0.11529 0.13098,0.28689 0.1965,0.43033 0.80128,1.64495 2.06518,2.98043 3.35866,4.24685 1.14344,0.95628 2.25974,2.19632 3.75613,2.59166 0.25612,0.0677 0.52334,0.0825 0.78503,0.12378 0.30212,-0.0349 0.60424,-0.0697 0.90637,-0.10442 0,0 0.1266,-0.0845 0.1266,-0.0845 v 0 c -0.003,-0.16252 -0.007,-0.32505 -0.01,-0.48758 -0.11332,-0.13522 -0.21213,-0.28408 -0.34015,-0.40546 -0.28724,-0.2724 -0.8689,-0.64914 -1.17478,-0.8664 -0.80093,-0.56891 -1.58114,-1.16713 -2.29502,-1.8443 -1.27389,-1.25173 -2.48849,-2.58291 -3.21592,-4.2386 -0.0622,-0.14267 -0.0325,-0.45034 -0.18644,-0.428 -2.17486,0.31545 -2.05879,0.2442 -2.02541,1.3998 0.0257,0.80204 0.0954,1.6015 0.12491,2.40333 0.0196,1.45902 -0.117,2.92689 -0.73199,4.27086 -0.32986,0.59918 -0.41051,0.81734 -0.85786,1.34224 -0.16923,0.19858 -0.81099,0.55989 -0.55012,0.5568 0.43575,-0.006 0.76708,-0.42296 1.17932,-0.56426 0.42857,-0.1469 -1.51346,0.86148 -1.2168,0.60557 -1.30023,0.2685 -2.16315,0.11375 -3.21875,-0.72131 -0.96392,-1.09246 -1.14683,-2.07023 -1.02829,-3.51075 0.29011,-1.71263 0.84032,-3.35349 1.98651,-4.69691 0.20711,-0.21729 0.40049,-0.44856 0.62133,-0.65188 0.49109,-0.45214 1.63177,-1.1608 -0.38046,0.01 -0.24678,0.1436 0.50269,-0.27258 0.76501,-0.38529 0.70648,-0.30358 0.8339,-0.2924 1.57046,-0.44526 1.32627,-0.089 2.6172,0.035 3.83352,0.61571 0,0 1.45855,-0.94671 1.45855,-0.94671 z" />
  <path
     style="fill:#00ff00;stroke:#006400;stroke-width:4.23895;stroke-linecap:square;stroke-linejoin:round"
     id="path1051"
     d="m 350.64571,124.10404 c 0.67456,2.17394 1.98297,4.04165 3.39827,5.79181 1.15586,1.2985 2.45308,2.5771 4.09359,3.2459 0.2593,0.10569 0.53412,0.16837 0.80117,0.25255 1.4016,0.42033 2.79493,0.16722 4.15207,-0.27301 0,0 0.11826,-0.0884 0.11826,-0.0884 v 0 c -0.75792,-0.28925 -1.43749,-0.78755 -2.23432,-0.99841 -1.69733,-0.92965 -3.18843,-2.16413 -4.47953,-3.60833 -1.42562,-1.70067 -2.69086,-3.52552 -3.47396,-5.6195 0,0 -2.37556,1.29744 -2.37556,1.29744 z" />
  <path
     style="fill:#00ff00;stroke:#006400;stroke-width:4.23895;stroke-linecap:square;stroke-linejoin:round"
     id="path1053"
     d="m 366.10638,124.19229 c -1.20683,4.54189 -3.06404,8.86329 -4.94665,13.15636 -2.16391,4.7882 -4.5039,9.49591 -6.96705,14.13672 -0.64125,1.18014 -1.31016,2.34514 -1.98063,3.50887 -0.006,0.0687 -0.30005,0.38021 -0.0851,0.25059 0.10146,-0.0338 0.20304,-0.0675 0.30454,-0.10117 0,0 1.23122,-0.52936 1.23122,-0.52936 v 0 c 0.11191,-0.0473 0.22373,-0.0947 0.3356,-0.1419 0.16382,-0.10979 0.25928,-0.25339 0.34847,-0.43184 0.63101,-1.15914 1.29331,-2.30128 1.89471,-3.47651 2.44163,-4.6359 4.75231,-9.34111 6.89627,-14.12242 1.87275,-4.28186 3.86744,-8.58772 4.87681,-13.17231 0,0 -1.90821,0.92302 -1.90821,0.92302 z" />
  <path
     style="fill:#00ff00;stroke:#006400;stroke-width:4.23895;stroke-linecap:square;stroke-linejoin:round"
     id="path1055"
     d="m 377.70457,115.11113 c 0.32839,2.71486 0.62487,5.43331 0.97541,8.14557 0.0934,0.46347 0.34344,1.96763 0.6231,2.46455 0.75676,0.77529 0.49182,0.36294 0.86987,1.18548 0,0 0.11092,-0.0586 0.11092,-0.0586 v 0 c 0.0955,-1.12008 -0.01,-0.49251 0.41566,-1.86343 0.0983,-0.64516 -0.0561,-2.14665 -0.10046,-2.73681 -0.3444,-2.71032 -0.66897,-5.42368 -1.03599,-8.1307 0,0 -1.85858,0.99399 -1.85858,0.99399 z" />
  <path
     style="fill:#00ff00;stroke:#006400;stroke-width:4.23895;stroke-linecap:square;stroke-linejoin:round"
     id="path1057"
     d="m 375.66937,135.94036 c 0.42514,0.23103 1.19497,1.0399 1.6299,1.10556 0.29433,0.0444 0.59385,-0.042 0.89097,-0.0596 0.19901,-0.0113 0.39825,-0.0195 0.59738,-0.0292 0,0 0.16115,-0.0958 0.16115,-0.0958 v 0 c 0.0985,-0.20799 0.45182,-0.88259 0.41265,-1.11666 -0.0458,-0.27329 -1.22457,-1.00966 -1.49159,-1.2138 0,0 -2.20046,1.40962 -2.20046,1.40962 z" />
</svg>
