<?xml version="1.0" encoding="UTF-8" standalone="no"?>
<svg
   xmlns:dc="http://purl.org/dc/elements/1.1/"
   xmlns:cc="http://creativecommons.org/ns#"
   xmlns:rdf="http://www.w3.org/1999/02/22-rdf-syntax-ns#"
   xmlns:svg="http://www.w3.org/2000/svg"
   xmlns="http://www.w3.org/2000/svg"
   xmlns:sodipodi="http://sodipodi.sourceforge.net/DTD/sodipodi-0.dtd"
   xmlns:inkscape="http://www.inkscape.org/namespaces/inkscape"
   version="1.1"
   viewBox="0 0 472.44093 332.59843"
   id="svg264"
   sodipodi:docname="octopus.svg"
   width="125mm"
   height="88mm"
   inkscape:version="1.0.2-2 (e86c870879, 2021-01-15)">
  <metadata
     id="metadata270">
    <rdf:RDF>
      <cc:Work
         rdf:about="">
        <dc:format>image/svg+xml</dc:format>
        <dc:type
           rdf:resource="http://purl.org/dc/dcmitype/StillImage" />
        <dc:title></dc:title>
      </cc:Work>
    </rdf:RDF>
  </metadata>
  <defs
     id="defs268" />
  <sodipodi:namedview
     pagecolor="#ffffff"
     bordercolor="#666666"
     borderopacity="1"
     objecttolerance="10"
     gridtolerance="10"
     guidetolerance="10"
     inkscape:pageopacity="0"
     inkscape:pageshadow="2"
     inkscape:window-width="1920"
     inkscape:window-height="1017"
     id="namedview266"
     showgrid="false"
     units="mm"
     inkscape:zoom="1.1511143"
     inkscape:cx="277.69168"
     inkscape:cy="246.13431"
     inkscape:window-x="-8"
     inkscape:window-y="-8"
     inkscape:window-maximized="1"
     inkscape:current-layer="svg264" />
  <g
     transform="matrix(0.69045842,0,0,0.69045842,125.59317,-1054.2676)"
     id="g262">
    <g
       transform="matrix(0.40338,0,0,0.38564,-96.429,1232.9)"
       id="g74">
      <path
         d="m 809.98,1274.5 c 0,0 -43.679,-50.174 -17.027,-17.623 88.931,108.61 112.89,259.65 189.09,327.38 76.201,67.734 82.554,69.871 170.24,79.365 67.864,7.3475 120.85,-13.014 169.84,-34.209 7.6361,-3.304 47.845,-21.648 55.446,-19.757 60.078,14.95 48.478,23.426 15.121,16.348 -17.623,-3.7396 -55.489,14.195 -76.211,28.809 -76.22,53.752 -153.81,76.2 -261.06,50.8 -107.25,-25.4 -262.47,-242.71 -279.4,-276.58 -16.933,-33.867 -135.47,-71.967 -158.05,-55.034 -22.578,16.934 -79.023,83.256 -70.556,145.35 8.4667,62.089 67.734,245.53 90.312,276.58 22.578,31.045 61.889,45.725 97.443,83.41 28.482,30.189 120.78,45.643 87.813,47.807 -36.224,2.3775 -121.12,-44.668 -135.7,-57.443 -24.65,-21.602 -26.432,-2.2255 -104.14,-68.873 -103.63,-88.876 -145.79,-213.75 -157.08,-295.59 -11.289,-81.845 33.725,-152.4 33.725,-152.4 0,0 -36.689,-33.867 -79.023,25.4 -42.334,59.267 -84.525,222.96 -149.44,296.34 -64.912,73.378 -141.82,167.26 -234.19,153.83 -61.253,-8.9038 -89.11,50.958 -93.819,36.239 -11.386,-35.596 74.868,-66.551 118.65,-73.696 104.37,-17.032 115.61,-75.867 164.46,-149.27 70.06,-105.29 62.263,-208.72 177.03,-345.88 40.409,-48.292 42.015,-56.327 87.998,-92.532 43.734,-34.434 246.95,-132.65 382.41,-25.4 135.47,107.25 270.97,137.41 331.19,207.88 125.18,146.5 97.256,244.4 90.737,215.46 -22.952,-101.92 -70.556,-158.05 -166.51,-174.98 -95.956,-16.934 -208.47,-94.223 -231.42,-101.6 -32.556,-10.462 -13.33,5.0759 -30.325,-22.514 -5.2895,-8.587 -17.56,-27.596 -17.56,-27.596 z"
         fill="#782121"
         stroke="#000000"
         stroke-width="10"
         id="path2" />
      <path
         d="m 560.48,1251.9 c -4.1629,-41.825 4.6072,-84.092 11.289,-125.59 5.9128,-36.722 17.073,-72.405 25.4,-108.66 2.9564,-12.87 4.6991,-20.72 8.721,-38.643 19.638,-87.512 65.789,-131.67 126.4,-165.5 66.049,-36.864 167.13,-70.308 225.8,-22.561 67.004,54.534 50.44,174.56 27.136,257.75 -11.963,42.707 -41.365,85.23 -80.642,105.83 -39.263,20.592 -116.93,-21.508 -132.86,6.1702 -20.341,35.334 -22.589,63.799 -30.732,84.212 -32.79,82.206 -29.72,80.128 -60.466,107.36 -18.315,16.223 -44.698,35.998 -67.834,28.039 -18.923,-6.5092 -21.801,-33.796 -29.634,-52.211 -10.369,-24.378 -19.954,-49.839 -22.578,-76.2 z"
         fill="#c83737"
         stroke="#000000"
         stroke-width="10"
         id="path4" />
      <path
         d="m 435.22,1291.3 c 0,0 -8.266,4.6421 -18.453,18.128 -84.611,112.01 -112.89,259.65 -189.09,327.38 -76.2,67.734 -53.141,30.653 -140.83,40.147 -67.864,7.3474 -168.42,-22.92 -202.29,-3.1647 -33.867,19.756 -75.191,41.445 5.6445,25.4 91.482,-18.158 186.27,45.156 293.51,19.756 107.25,-25.4 262.47,-242.71 279.4,-276.58 16.933,-33.867 133.13,-68.298 158.05,-55.034 25.782,13.729 79.165,83.113 70.556,145.35 -8.5873,62.073 -67.734,245.53 -90.312,276.58 -22.578,31.045 -31.045,93.134 -5.6445,138.29 25.4005,45.156 67.734,62.089 98.778,50.8 31.045,-11.289 -9.3936,-12.641 -29.149,-29.575 -19.756,-16.933 -77.127,-36.08 -9.3936,-154.61 67.734,-118.53 145.79,-213.75 157.08,-295.59 11.289,-81.845 -19.756,-152.4 -19.756,-152.4 0,0 36.689,-33.867 79.023,25.4 42.334,59.267 70.556,222.96 135.47,296.34 64.912,73.378 211.67,121.36 268.11,95.956 56.445,-25.4 81.845,-70.556 81.845,-87.49 0,-16.933 -52.855,37.917 -86.722,52.028 -33.867,14.111 -162.2,-19.951 -204.37,-97.384 -56.445,-103.66 -33.065,-184.3 -157.08,-355.86 -25.826,-35.728 -73.946,-50.34 -121.92,-78.563 -47.978,-28.222 -246.95,-132.65 -382.41,-25.4 -135.47,107.25 -241.64,183.93 -331.19,207.88 -51.802,13.854 -200.8,-49.832 -175.4,-24.432 25.4,25.4 155.22,81.845 251.18,64.912 95.956,-16.934 203.13,-79.375 221.02,-95.534 49.021,-44.26 13.33,5.0759 30.325,-22.514 5.2894,-8.587 34.025,-30.196 34.025,-30.196 z"
         fill="#c83737"
         stroke="#000000"
         stroke-width="10"
         id="path6" />
      <path
         d="m 468.75,1243.4 c 0,-5.9408 34.486,-39.311 50.257,-60.137 3.3471,-4.4197 5.2582,-10.033 9.3937,-13.726 13.857,-12.372 -11.337,3.2127 49.247,-26.085"
         fill="#c83737"
         stroke="#000000"
         stroke-width="10"
         id="path8" />
      <path
         d="m 776.04,1253.5 c 0,36.239 -111.85,88.195 -148.87,88.195 -37.019,0 -98.073,-91.467 -98.073,-127.71 0,-36.239 77.988,-112.18 115.01,-112.18 37.019,0 131.94,115.46 131.94,151.7 z"
         fill="#c83737"
         id="path10" />
      <path
         transform="matrix(2.479,0,0,2.5931,-161.6,762.3)"
         d="m 309.91,90.815 c 0,0 0.1532,-4.9022 5.2086,-4.5958 5.0554,0.30639 24.358,-3.6767 26.043,-3.983 1.6851,-0.30639 18.69,0.30639 21.907,2.2979 3.2171,1.9915 18.335,1.4563 25.43,6.5874 6.4966,4.6978 9.5932,12.974 13.022,20.222 4.7718,10.087 5.0554,27.269 10.264,31.864 4.6052,4.0634 14.962,4.7846 17.614,5.1823 0.34742,0.0521 -7.203,3.2789 -7.0433,3.2434 1.3788,-0.30638 -5.8214,0.76596 -9.498,0.30638 -3.6767,-0.45958 -26.503,-5.515 -30.486,-3.6767 -3.983,1.8383 -11.678,4.8573 -14.247,16.698 -0.72111,3.3242 -4.9022,0.61278 -5.6682,-2.4511 -0.76597,-3.0639 2.7575,-6.4342 2.1447,-8.5789 -0.87575,-3.0651 18.69,-21.141 19.762,-29.26 1.0724,-8.1193 -0.61277,-18.996 -10.724,-21.907 -10.111,-2.9107 -52.392,-8.8853 -52.392,-8.8853 l -11.34,-2.755 z"
         fill="#a02c2c"
         stroke="#a02c2c"
         stroke-width="3"
         id="path12" />
      <path
         d="m 574.86,1138.3 c 0,0 7.5981,-19.278 1.1466,-29.669 -11.932,-19.216 -27.83,-50.305 -21.556,-71.454 9.6675,-32.584 34.373,-52.808 67.672,-43.82 33.299,8.9886 49.223,-20.921 114.94,17.977 43.246,8.2947 67.978,-3.4343 75.192,30.337 9.6675,52.808 -15.038,96.628 -40.818,105.62 -25.78,8.9887 -35.447,11.236 -38.67,25.842"
         fill="#c83737"
         stroke="#000000"
         stroke-width="7.6063"
         id="path14" />
      <path
         transform="translate(-286.19,791.71)"
         d="m 1073.9,280.27 c 0,21.432 -17.058,38.806 -38.1,38.806 -21.042,0 -38.1,-17.374 -38.1,-38.806 0,-21.432 17.058,-38.806 38.1,-38.806 21.042,0 38.1,17.374 38.1,38.806 z"
         fill="#a02c2c"
         id="path16" />
      <path
         transform="translate(-305.95,797.35)"
         d="m 1086.6,272.51 c 0,16.366 -13.267,29.634 -29.634,29.634 -16.366,0 -29.634,-13.267 -29.634,-29.634 0,-16.366 13.267,-29.634 29.634,-29.634 16.366,0 29.634,13.267 29.634,29.634 z"
         fill="#c83737"
         stroke="#000000"
         stroke-width="4"
         id="path18" />
      <path
         d="m 727.37,1059.5 c 0,0 31.93,-6.9846 42.906,3.9913 10.976,10.9759 0.9979,13.969 0.9979,13.969 0,0 -6.7607,-7.6426 -20.954,0 -25.943,13.969 -22.95,-17.961 -22.95,-17.961 z"
         stroke="#000000"
         stroke-width="4"
         id="path20" />
      <path
         transform="translate(-307.36,810.05)"
         d="m 1055.7,259.93 c 0,2.4798 -2.4571,4.4902 -5.488,4.4902 -3.0309,0 -5.488,-2.0103 -5.488,-4.4902 0,-2.4798 2.4571,-4.4902 5.488,-4.4902 3.0309,0 5.488,2.0103 5.488,4.4902 z"
         fill="#ffffff"
         stroke="#ffffff"
         stroke-width="4"
         id="path22" />
      <path
         transform="translate(-437.18,768.43)"
         d="m 1073.9,280.27 c 0,21.432 -17.058,38.806 -38.1,38.806 -21.042,0 -38.1,-17.374 -38.1,-38.806 0,-21.432 17.058,-38.806 38.1,-38.806 21.042,0 38.1,17.374 38.1,38.806 z"
         fill="#a02c2c"
         id="path24" />
      <path
         transform="translate(-462.27,774.02)"
         d="m 1086.6,272.51 c 0,16.366 -13.267,29.634 -29.634,29.634 -16.366,0 -29.634,-13.267 -29.634,-29.634 0,-16.366 13.267,-29.634 29.634,-29.634 16.366,0 29.634,13.267 29.634,29.634 z"
         fill="#c83737"
         stroke="#000000"
         stroke-width="4"
         id="path26" />
      <path
         d="m 572.05,1043.2 c 0,0 30.932,-13.969 41.908,-2.9934 10.976,10.9756 0.9979,13.969 0.9979,13.969 0,0 -6.9847,-3.9912 -21.952,1.9957 -14.9673,5.9869 -20.954,-12.972 -20.954,-12.972 z"
         stroke="#000000"
         stroke-width="4"
         id="path28" />
      <path
         transform="translate(-463.68,786.72)"
         d="m 1055.7,259.93 c 0,2.4798 -2.4571,4.4902 -5.488,4.4902 -3.0309,0 -5.488,-2.0103 -5.488,-4.4902 0,-2.4798 2.4571,-4.4902 5.488,-4.4902 3.0309,0 5.488,2.0103 5.488,4.4902 z"
         fill="#ffffff"
         stroke="#ffffff"
         stroke-width="4"
         id="path30" />
      <path
         d="m 697.22,954.45 c 0,0 37.138,-29.647 47.116,-47.608 9.9782,-17.961 35.921,-61.864 59.869,-83.816 23.948,-21.952 83.916,-33.483 83.916,-33.483 0,0 -95.748,-25.459 -135.66,46.384 -39.912,71.842 -41.036,101.33 -54.793,118.06 -1.5587,1.8952 -0.44784,0.46756 -0.44784,0.46756 z"
         fill="#a02c2c"
         id="path32" />
      <path
         d="m 693.24,958.41 c 29.101,-27.703 19.835,-15.289 27.739,-25.024 8.8333,-10.88 11.041,-21.904 21.363,-36.528 11.974,-16.963 22.839,-40.198 45.899,-69.847 20.954,-26.941 54.88,-27.939 100.78,-40.91"
         fill="none"
         stroke="#000000"
         stroke-width="10"
         id="path34" />
      <path
         d="m 633.83,1392.4 c 0,0 -21.909,-15.226 -55.749,-8.6432 -37.304,7.2567 -27.466,5.056 -31.677,7.3139 -2.0208,1.0834 -29.042,9.868 -41.888,15.503 -82.779,36.311 -47.836,-33.359 6.3328,-96.599 26.002,-30.356 32.442,-39.776 37.875,-45.633 13.367,-14.409 44.004,-16.65 55.978,-16.65 11.974,0 24.987,1.1889 30.46,40.013 5.5442,39.328 -5.133,16.246 13.285,58.959 22.308,51.736 63.307,173.03 45.434,132.91 -10.137,-22.752 -21.874,-42.691 -60.05,-87.175 z"
         fill="#a02c2c"
         id="path36" />
      <g
         fill="#d35f5f"
         id="g54">
        <path
           transform="matrix(0.38294,0.47505,-0.47505,0.38294,1163,468.41)"
           d="m 246.11,647.63 c 0,9.8115 -11.058,17.765 -24.698,17.765 -13.64,0 -24.698,-7.9538 -24.698,-17.765 0,-9.8115 11.058,-17.765 24.698,-17.765 13.64,0 24.698,7.9538 24.698,17.765 z"
           id="path38" />
        <path
           transform="matrix(0.38294,0.47505,-0.47505,0.38294,1189.8,533.41)"
           d="m 246.11,647.63 c 0,9.8115 -11.058,17.765 -24.698,17.765 -13.64,0 -24.698,-7.9538 -24.698,-17.765 0,-9.8115 11.058,-17.765 24.698,-17.765 13.64,0 24.698,7.9538 24.698,17.765 z"
           id="path40" />
        <path
           transform="matrix(0.62759,0.77855,-0.77855,0.62759,1293.2,284.37)"
           d="m 246.11,647.63 c 0,9.8115 -11.058,17.765 -24.698,17.765 -13.64,0 -24.698,-7.9538 -24.698,-17.765 0,-9.8115 11.058,-17.765 24.698,-17.765 13.64,0 24.698,7.9538 24.698,17.765 z"
           id="path42" />
        <path
           transform="matrix(0.62759,0.77855,-0.77855,0.62759,1254.2,240.18)"
           d="m 246.11,647.63 c 0,9.8115 -11.058,17.765 -24.698,17.765 -13.64,0 -24.698,-7.9538 -24.698,-17.765 0,-9.8115 11.058,-17.765 24.698,-17.765 13.64,0 24.698,7.9538 24.698,17.765 z"
           id="path44" />
        <path
           transform="matrix(0.62759,0.77855,-0.77855,0.62759,1330.5,393.56)"
           d="m 246.11,647.63 c 0,9.8115 -11.058,17.765 -24.698,17.765 -13.64,0 -24.698,-7.9538 -24.698,-17.765 0,-9.8115 11.058,-17.765 24.698,-17.765 13.64,0 24.698,7.9538 24.698,17.765 z"
           id="path46" />
        <path
           transform="matrix(0.62759,0.77855,-0.77855,0.62759,1315.8,449.03)"
           d="m 246.11,647.63 c 0,9.8115 -11.058,17.765 -24.698,17.765 -13.64,0 -24.698,-7.9538 -24.698,-17.765 0,-9.8115 11.058,-17.765 24.698,-17.765 13.64,0 24.698,7.9538 24.698,17.765 z"
           id="path48" />
        <path
           transform="matrix(0.62759,0.77855,-0.77855,0.62759,1279.4,332.9)"
           d="m 246.11,647.63 c 0,9.8115 -11.058,17.765 -24.698,17.765 -13.64,0 -24.698,-7.9538 -24.698,-17.765 0,-9.8115 11.058,-17.765 24.698,-17.765 13.64,0 24.698,7.9538 24.698,17.765 z"
           id="path50" />
        <path
           transform="matrix(0.40741,0.5054,-0.5054,0.40741,1151.2,595.77)"
           d="m 246.11,647.63 c 0,9.8115 -11.058,17.765 -24.698,17.765 -13.64,0 -24.698,-7.9538 -24.698,-17.765 0,-9.8115 11.058,-17.765 24.698,-17.765 13.64,0 24.698,7.9538 24.698,17.765 z"
           id="path52" />
      </g>
      <g
         transform="matrix(0.89977,0.43636,-0.43636,0.89977,478.28,-319.91)"
         fill="#a02c2c"
         id="g72">
        <path
           transform="matrix(0.38294,0.47505,-0.47505,0.38294,1163,468.41)"
           d="m 246.11,647.63 c 0,9.8115 -11.058,17.765 -24.698,17.765 -13.64,0 -24.698,-7.9538 -24.698,-17.765 0,-9.8115 11.058,-17.765 24.698,-17.765 13.64,0 24.698,7.9538 24.698,17.765 z"
           id="path56" />
        <path
           transform="matrix(0.38294,0.47505,-0.47505,0.38294,1189.8,533.41)"
           d="m 246.11,647.63 c 0,9.8115 -11.058,17.765 -24.698,17.765 -13.64,0 -24.698,-7.9538 -24.698,-17.765 0,-9.8115 11.058,-17.765 24.698,-17.765 13.64,0 24.698,7.9538 24.698,17.765 z"
           id="path58" />
        <path
           transform="matrix(0.62759,0.77855,-0.77855,0.62759,1293.2,284.37)"
           d="m 246.11,647.63 c 0,9.8115 -11.058,17.765 -24.698,17.765 -13.64,0 -24.698,-7.9538 -24.698,-17.765 0,-9.8115 11.058,-17.765 24.698,-17.765 13.64,0 24.698,7.9538 24.698,17.765 z"
           id="path60" />
        <path
           transform="matrix(0.62759,0.77855,-0.77855,0.62759,1254.2,240.18)"
           d="m 246.11,647.63 c 0,9.8115 -11.058,17.765 -24.698,17.765 -13.64,0 -24.698,-7.9538 -24.698,-17.765 0,-9.8115 11.058,-17.765 24.698,-17.765 13.64,0 24.698,7.9538 24.698,17.765 z"
           id="path62" />
        <path
           transform="matrix(0.62759,0.77855,-0.77855,0.62759,1330.5,393.56)"
           d="m 246.11,647.63 c 0,9.8115 -11.058,17.765 -24.698,17.765 -13.64,0 -24.698,-7.9538 -24.698,-17.765 0,-9.8115 11.058,-17.765 24.698,-17.765 13.64,0 24.698,7.9538 24.698,17.765 z"
           id="path64" />
        <path
           transform="matrix(0.62759,0.77855,-0.77855,0.62759,1315.8,449.03)"
           d="m 246.11,647.63 c 0,9.8115 -11.058,17.765 -24.698,17.765 -13.64,0 -24.698,-7.9538 -24.698,-17.765 0,-9.8115 11.058,-17.765 24.698,-17.765 13.64,0 24.698,7.9538 24.698,17.765 z"
           id="path66" />
        <path
           transform="matrix(0.62759,0.77855,-0.77855,0.62759,1279.4,332.9)"
           d="m 246.11,647.63 c 0,9.8115 -11.058,17.765 -24.698,17.765 -13.64,0 -24.698,-7.9538 -24.698,-17.765 0,-9.8115 11.058,-17.765 24.698,-17.765 13.64,0 24.698,7.9538 24.698,17.765 z"
           id="path68" />
        <path
           transform="matrix(0.40741,0.5054,-0.5054,0.40741,1151.2,595.77)"
           d="m 246.11,647.63 c 0,9.8115 -11.058,17.765 -24.698,17.765 -13.64,0 -24.698,-7.9538 -24.698,-17.765 0,-9.8115 11.058,-17.765 24.698,-17.765 13.64,0 24.698,7.9538 24.698,17.765 z"
           id="path70" />
      </g>
    </g>
    <g
       transform="translate(3.6767,3.0639)"
       id="g80">
      <path
         transform="matrix(0.91193,-0.41034,0.41034,0.91193,-227.94,1721.9)"
         d="m 430.27,252.01 c 0,7.897 -4.0739,14.299 -9.0993,14.299 -5.0254,0 -9.0993,-6.4018 -9.0993,-14.299 0,-7.897 4.0739,-14.299 9.0993,-14.299 5.0254,0 9.0993,6.4018 9.0993,14.299 z"
         fill="#e9afaf"
         stroke="#000000"
         stroke-width="4"
         id="path76" />
      <path
         transform="translate(-161.62,1526.9)"
         d="m 423.12,257.32 c 0,0 0.29316,-1.5935 -0.0827,-3.2555 -0.40593,-1.7948 -0.94264,-4.4553 -1.7297,-5.7652 -2.3017,-3.8307 -6.9351,-2.4199 -6.6876,-2.967 0.48268,-1.0669 2.3704,-3.0918 4.492,-1.7696 8.3499,5.204 10.162,20.355 2.5998,16.249"
         id="path78" />
    </g>
    <g
       transform="matrix(0.80794,-0.58926,0.58926,0.80794,-1018,481.72)"
       id="g86">
      <path
         transform="matrix(0.91193,-0.41034,0.41034,0.91193,-227.94,1721.9)"
         d="m 430.27,252.01 c 0,7.897 -4.0739,14.299 -9.0993,14.299 -5.0254,0 -9.0993,-6.4018 -9.0993,-14.299 0,-7.897 4.0739,-14.299 9.0993,-14.299 5.0254,0 9.0993,6.4018 9.0993,14.299 z"
         fill="#e9afaf"
         stroke="#000000"
         stroke-width="4"
         id="path82" />
      <path
         transform="translate(-161.62,1526.9)"
         d="m 423.12,257.32 c 0,0 0.29316,-1.5935 -0.0827,-3.2555 -0.40593,-1.7948 -0.94264,-4.4553 -1.7297,-5.7652 -2.3017,-3.8307 -6.9351,-2.4199 -6.6876,-2.967 0.48268,-1.0669 2.3704,-3.0918 4.492,-1.7696 8.3499,5.204 10.162,20.355 2.5998,16.249"
         id="path84" />
    </g>
    <g
       transform="translate(17.771,29.413)"
       id="g92">
      <path
         transform="matrix(0.91193,-0.41034,0.41034,0.91193,-227.94,1721.9)"
         d="m 430.27,252.01 c 0,7.897 -4.0739,14.299 -9.0993,14.299 -5.0254,0 -9.0993,-6.4018 -9.0993,-14.299 0,-7.897 4.0739,-14.299 9.0993,-14.299 5.0254,0 9.0993,6.4018 9.0993,14.299 z"
         fill="#e9afaf"
         stroke="#000000"
         stroke-width="4"
         id="path88" />
      <path
         transform="translate(-161.62,1526.9)"
         d="m 423.12,257.32 c 0,0 0.29316,-1.5935 -0.0827,-3.2555 -0.40593,-1.7948 -0.94264,-4.4553 -1.7297,-5.7652 -2.3017,-3.8307 -6.9351,-2.4199 -6.6876,-2.967 0.48268,-1.0669 2.3704,-3.0918 4.492,-1.7696 8.3499,5.204 10.162,20.355 2.5998,16.249"
         id="path90" />
    </g>
    <g
       transform="translate(30.026,61.278)"
       id="g98">
      <path
         transform="matrix(0.91193,-0.41034,0.41034,0.91193,-227.94,1721.9)"
         d="m 430.27,252.01 c 0,7.897 -4.0739,14.299 -9.0993,14.299 -5.0254,0 -9.0993,-6.4018 -9.0993,-14.299 0,-7.897 4.0739,-14.299 9.0993,-14.299 5.0254,0 9.0993,6.4018 9.0993,14.299 z"
         fill="#e9afaf"
         stroke="#000000"
         stroke-width="4"
         id="path94" />
      <path
         transform="translate(-161.62,1526.9)"
         d="m 423.12,257.32 c 0,0 0.29316,-1.5935 -0.0827,-3.2555 -0.40593,-1.7948 -0.94264,-4.4553 -1.7297,-5.7652 -2.3017,-3.8307 -6.9351,-2.4199 -6.6876,-2.967 0.48268,-1.0669 2.3704,-3.0918 4.492,-1.7696 8.3499,5.204 10.162,20.355 2.5998,16.249"
         id="path96" />
    </g>
    <g
       transform="matrix(0.98493,-0.17296,0.17296,0.98493,-257.8,161.78)"
       id="g104">
      <path
         transform="matrix(0.91193,-0.41034,0.41034,0.91193,-227.94,1721.9)"
         d="m 430.27,252.01 c 0,7.897 -4.0739,14.299 -9.0993,14.299 -5.0254,0 -9.0993,-6.4018 -9.0993,-14.299 0,-7.897 4.0739,-14.299 9.0993,-14.299 5.0254,0 9.0993,6.4018 9.0993,14.299 z"
         fill="#e9afaf"
         stroke="#000000"
         stroke-width="4"
         id="path100" />
      <path
         transform="translate(-161.62,1526.9)"
         d="m 423.12,257.32 c 0,0 0.29316,-1.5935 -0.0827,-3.2555 -0.40593,-1.7948 -0.94264,-4.4553 -1.7297,-5.7652 -2.3017,-3.8307 -6.9351,-2.4199 -6.6876,-2.967 0.48268,-1.0669 2.3704,-3.0918 4.492,-1.7696 8.3499,5.204 10.162,20.355 2.5998,16.249"
         id="path102" />
    </g>
    <g
       transform="matrix(0.83841,-0.35656,0.35656,0.83841,-524.97,493.35)"
       id="g110">
      <path
         transform="matrix(0.91193,-0.41034,0.41034,0.91193,-227.94,1721.9)"
         d="m 430.27,252.01 c 0,7.897 -4.0739,14.299 -9.0993,14.299 -5.0254,0 -9.0993,-6.4018 -9.0993,-14.299 0,-7.897 4.0739,-14.299 9.0993,-14.299 5.0254,0 9.0993,6.4018 9.0993,14.299 z"
         fill="#e9afaf"
         stroke="#000000"
         stroke-width="4"
         id="path106" />
      <path
         transform="translate(-161.62,1526.9)"
         d="m 423.12,257.32 c 0,0 0.29316,-1.5935 -0.0827,-3.2555 -0.40593,-1.7948 -0.94264,-4.4553 -1.7297,-5.7652 -2.3017,-3.8307 -6.9351,-2.4199 -6.6876,-2.967 0.48268,-1.0669 2.3704,-3.0918 4.492,-1.7696 8.3499,5.204 10.162,20.355 2.5998,16.249"
         id="path108" />
    </g>
    <g
       transform="matrix(0.65131,-0.45254,0.45254,0.65131,-622.07,866.75)"
       id="g116">
      <path
         transform="matrix(0.91193,-0.41034,0.41034,0.91193,-227.94,1721.9)"
         d="m 430.27,252.01 c 0,7.897 -4.0739,14.299 -9.0993,14.299 -5.0254,0 -9.0993,-6.4018 -9.0993,-14.299 0,-7.897 4.0739,-14.299 9.0993,-14.299 5.0254,0 9.0993,6.4018 9.0993,14.299 z"
         fill="#e9afaf"
         stroke="#000000"
         stroke-width="4"
         id="path112" />
      <path
         transform="translate(-161.62,1526.9)"
         d="m 423.12,257.32 c 0,0 0.29316,-1.5935 -0.0827,-3.2555 -0.40593,-1.7948 -0.94264,-4.4553 -1.7297,-5.7652 -2.3017,-3.8307 -6.9351,-2.4199 -6.6876,-2.967 0.48268,-1.0669 2.3704,-3.0918 4.492,-1.7696 8.3499,5.204 10.162,20.355 2.5998,16.249"
         id="path114" />
    </g>
    <g
       transform="matrix(0.43597,-0.66251,0.66251,0.43597,-914.78,1312)"
       id="g122">
      <path
         transform="matrix(0.91193,-0.41034,0.41034,0.91193,-227.94,1721.9)"
         d="m 430.27,252.01 c 0,7.897 -4.0739,14.299 -9.0993,14.299 -5.0254,0 -9.0993,-6.4018 -9.0993,-14.299 0,-7.897 4.0739,-14.299 9.0993,-14.299 5.0254,0 9.0993,6.4018 9.0993,14.299 z"
         fill="#e9afaf"
         stroke="#000000"
         stroke-width="4"
         id="path118" />
      <path
         transform="translate(-161.62,1526.9)"
         d="m 423.12,257.32 c 0,0 0.29316,-1.5935 -0.0827,-3.2555 -0.40593,-1.7948 -0.94264,-4.4553 -1.7297,-5.7652 -2.3017,-3.8307 -6.9351,-2.4199 -6.6876,-2.967 0.48268,-1.0669 2.3704,-3.0918 4.492,-1.7696 8.3499,5.204 10.162,20.355 2.5998,16.249"
         id="path120" />
    </g>
    <g
       transform="matrix(0.3123,-0.72901,0.72901,0.3123,-976.45,1553.9)"
       id="g128">
      <path
         transform="matrix(0.76465,-0.34724,0.40767,0.91308,-163.9,1694.4)"
         d="m 430.27,252.01 c 0,7.897 -4.0739,14.299 -9.0993,14.299 -5.0254,0 -9.0993,-6.4018 -9.0993,-14.299 0,-7.897 4.0739,-14.299 9.0993,-14.299 5.0254,0 9.0993,6.4018 9.0993,14.299 z"
         fill="#e9afaf"
         stroke="#000000"
         stroke-width="4"
         id="path124" />
      <path
         transform="translate(-161.62,1526.9)"
         d="m 423.12,257.32 c 0,0 0.29316,-1.5935 -0.0827,-3.2555 -0.40593,-1.7948 -0.94264,-4.4553 -1.7297,-5.7652 -2.3017,-3.8307 -6.9351,-2.4199 -6.6876,-2.967 0.48268,-1.0669 2.3704,-3.0918 4.492,-1.7696 8.3499,5.204 10.162,20.355 2.5998,16.249"
         id="path126" />
    </g>
    <g
       transform="matrix(0.073412,-0.65818,0.65818,0.073412,-766.64,1957.1)"
       id="g142">
      <path
         transform="matrix(0.91193,-0.41034,0.41034,0.91193,-227.94,1721.9)"
         d="m 430.27,252.01 c 0,7.897 -4.0739,14.299 -9.0993,14.299 -5.0254,0 -9.0993,-6.4018 -9.0993,-14.299 0,-7.897 4.0739,-14.299 9.0993,-14.299 5.0254,0 9.0993,6.4018 9.0993,14.299 z"
         fill="#e9afaf"
         stroke="#000000"
         stroke-width="4"
         id="path130" />
      <path
         transform="translate(-161.62,1526.9)"
         d="m 423.12,257.32 c 0,0 0.29316,-1.5935 -0.0827,-3.2555 -0.40593,-1.7948 -0.94264,-4.4553 -1.7297,-5.7652 -2.3017,-3.8307 -6.9351,-2.4199 -6.6876,-2.967 0.48268,-1.0669 2.3704,-3.0918 4.492,-1.7696 8.3499,5.204 10.162,20.355 2.5998,16.249"
         id="path132" />
      <path
         transform="matrix(0.91193,-0.41034,0.41034,0.91193,-227.94,1721.9)"
         d="m 430.27,252.01 c 0,7.897 -4.0739,14.299 -9.0993,14.299 -5.0254,0 -9.0993,-6.4018 -9.0993,-14.299 0,-7.897 4.0739,-14.299 9.0993,-14.299 5.0254,0 9.0993,6.4018 9.0993,14.299 z"
         fill="#e9afaf"
         stroke="#000000"
         stroke-width="4"
         id="path134" />
      <path
         transform="translate(-161.62,1526.9)"
         d="m 423.12,257.32 c 0,0 0.29316,-1.5935 -0.0827,-3.2555 -0.40593,-1.7948 -0.94264,-4.4553 -1.7297,-5.7652 -2.3017,-3.8307 -6.9351,-2.4199 -6.6876,-2.967 0.48268,-1.0669 2.3704,-3.0918 4.492,-1.7696 8.3499,5.204 10.162,20.355 2.5998,16.249"
         id="path136" />
      <path
         transform="matrix(0.78627,-0.39632,0.36984,0.91645,-163.52,1714.7)"
         d="m 430.27,252.01 c 0,7.897 -4.0739,14.299 -9.0993,14.299 -5.0254,0 -9.0993,-6.4018 -9.0993,-14.299 0,-7.897 4.0739,-14.299 9.0993,-14.299 5.0254,0 9.0993,6.4018 9.0993,14.299 z"
         fill="#e9afaf"
         stroke="#000000"
         stroke-width="4"
         id="path138" />
      <path
         transform="translate(-161.62,1526.9)"
         d="m 423.12,257.32 c 0,0 0.29316,-1.5935 -0.0827,-3.2555 -0.40593,-1.7948 -0.94264,-4.4553 -1.7297,-5.7652 -2.3017,-3.8307 -6.9351,-2.4199 -6.6876,-2.967 0.48268,-1.0669 2.3704,-3.0918 4.492,-1.7696 8.3499,5.204 10.162,20.355 2.5998,16.249"
         id="path140" />
    </g>
    <g
       transform="matrix(0.99362,0.11276,0.11276,-0.99362,-300.32,3835.9)"
       id="g148">
      <path
         transform="matrix(-0.20313,-0.63034,0.63034,-0.20313,185.38,2203)"
         d="m 430.27,252.01 c 0,7.897 -4.0739,14.299 -9.0993,14.299 -5.0254,0 -9.0993,-6.4018 -9.0993,-14.299 0,-7.897 4.0739,-14.299 9.0993,-14.299 5.0254,0 9.0993,6.4018 9.0993,14.299 z"
         fill="#e9afaf"
         stroke="#000000"
         stroke-width="4"
         id="path144" />
      <path
         d="m 262.32,1885.4 c 0,0 -1.0273,-0.31 -2.1488,-0.1846 -1.2111,0.1354 -3.0016,0.2934 -3.9215,0.7152 -2.6903,1.2337 -2.1018,4.387 -2.4438,4.1839 -0.6668,-0.396 -1.861,-1.7871 -0.83493,-3.0865 4.0382,-5.1137 14.143,-5.194 10.885,-0.5183"
         id="path146" />
    </g>
    <g
       transform="matrix(0.83828,0.54524,0.54524,-0.83828,-1085,3415.8)"
       id="g154">
      <path
         transform="matrix(-0.20313,-0.63034,0.63034,-0.20313,185.38,2203)"
         d="m 430.27,252.01 c 0,7.897 -4.0739,14.299 -9.0993,14.299 -5.0254,0 -9.0993,-6.4018 -9.0993,-14.299 0,-7.897 4.0739,-14.299 9.0993,-14.299 5.0254,0 9.0993,6.4018 9.0993,14.299 z"
         fill="#e9afaf"
         stroke="#000000"
         stroke-width="4"
         id="path150" />
      <path
         d="m 262.32,1885.4 c 0,0 -1.0273,-0.31 -2.1488,-0.1846 -1.2111,0.1354 -3.0016,0.2934 -3.9215,0.7152 -2.6903,1.2337 -2.1018,4.387 -2.4438,4.1839 -0.6668,-0.396 -1.861,-1.7871 -0.83493,-3.0865 4.0382,-5.1137 14.143,-5.194 10.885,-0.5183"
         id="path152" />
    </g>
    <g
       transform="matrix(0.26104,0.94579,0.7602,-0.32477,-1340.4,2326.2)"
       id="g160">
      <path
         transform="matrix(-0.20313,-0.63034,0.63034,-0.20313,185.38,2203)"
         d="m 430.27,252.01 c 0,7.897 -4.0739,14.299 -9.0993,14.299 -5.0254,0 -9.0993,-6.4018 -9.0993,-14.299 0,-7.897 4.0739,-14.299 9.0993,-14.299 5.0254,0 9.0993,6.4018 9.0993,14.299 z"
         fill="#e9afaf"
         stroke="#000000"
         stroke-width="4"
         id="path156" />
      <path
         d="m 262.32,1885.4 c 0,0 -1.0273,-0.31 -2.1488,-0.1846 -1.2111,0.1354 -3.0016,0.2934 -3.9215,0.7152 -2.6903,1.2337 -2.1018,4.387 -2.4438,4.1839 -0.6668,-0.396 -1.861,-1.7871 -0.83493,-3.0865 4.0382,-5.1137 14.143,-5.194 10.885,-0.5183"
         id="path158" />
    </g>
    <g
       transform="matrix(0.93012,0.36726,-0.36726,0.93012,317.41,37.681)"
       id="g166">
      <path
         transform="matrix(-0.20313,-0.63034,0.63034,-0.20313,185.38,2203)"
         d="m 430.27,252.01 c 0,7.897 -4.0739,14.299 -9.0993,14.299 -5.0254,0 -9.0993,-6.4018 -9.0993,-14.299 0,-7.897 4.0739,-14.299 9.0993,-14.299 5.0254,0 9.0993,6.4018 9.0993,14.299 z"
         fill="#e9afaf"
         stroke="#000000"
         stroke-width="4"
         id="path162" />
      <path
         d="m 262.32,1885.4 c 0,0 -1.0273,-0.31 -2.1488,-0.1846 -1.2111,0.1354 -3.0016,0.2934 -3.9215,0.7152 -2.6903,1.2337 -2.1018,4.387 -2.4438,4.1839 -0.6668,-0.396 -1.861,-1.7871 -0.83493,-3.0865 4.0382,-5.1137 14.143,-5.194 10.885,-0.5183"
         id="path164" />
    </g>
    <g
       transform="rotate(31.024187,76.390752,1256.7759)"
       id="g172">
      <path
         transform="matrix(-0.20313,-0.63034,0.63034,-0.20313,185.38,2203)"
         d="m 430.27,252.01 c 0,7.897 -4.0739,14.299 -9.0993,14.299 -5.0254,0 -9.0993,-6.4018 -9.0993,-14.299 0,-7.897 4.0739,-14.299 9.0993,-14.299 5.0254,0 9.0993,6.4018 9.0993,14.299 z"
         fill="#e9afaf"
         stroke="#000000"
         stroke-width="4"
         id="path168" />
      <path
         d="m 262.32,1885.4 c 0,0 -1.0273,-0.31 -2.1488,-0.1846 -1.2111,0.1354 -3.0016,0.2934 -3.9215,0.7152 -2.6903,1.2337 -2.1018,4.387 -2.4438,4.1839 -0.6668,-0.396 -1.861,-1.7871 -0.83493,-3.0865 4.0382,-5.1137 14.143,-5.194 10.885,-0.5183"
         id="path170" />
    </g>
    <g
       transform="matrix(0.93012,0.36726,-0.36726,0.93012,339.07,38.114)"
       id="g178">
      <path
         transform="matrix(-0.20313,-0.63034,0.63034,-0.20313,185.38,2203)"
         d="m 430.27,252.01 c 0,7.897 -4.0739,14.299 -9.0993,14.299 -5.0254,0 -9.0993,-6.4018 -9.0993,-14.299 0,-7.897 4.0739,-14.299 9.0993,-14.299 5.0254,0 9.0993,6.4018 9.0993,14.299 z"
         fill="#e9afaf"
         stroke="#000000"
         stroke-width="4"
         id="path174" />
      <path
         d="m 262.32,1885.4 c 0,0 -1.0273,-0.31 -2.1488,-0.1846 -1.2111,0.1354 -3.0016,0.2934 -3.9215,0.7152 -2.6903,1.2337 -2.1018,4.387 -2.4438,4.1839 -0.6668,-0.396 -1.861,-1.7871 -0.83493,-3.0865 4.0382,-5.1137 14.143,-5.194 10.885,-0.5183"
         id="path176" />
    </g>
    <g
       transform="rotate(31.024187,79.187376,1297.191)"
       id="g184">
      <path
         transform="matrix(-0.20313,-0.63034,0.63034,-0.20313,185.38,2203)"
         d="m 430.27,252.01 c 0,7.897 -4.0739,14.299 -9.0993,14.299 -5.0254,0 -9.0993,-6.4018 -9.0993,-14.299 0,-7.897 4.0739,-14.299 9.0993,-14.299 5.0254,0 9.0993,6.4018 9.0993,14.299 z"
         fill="#e9afaf"
         stroke="#000000"
         stroke-width="4"
         id="path180" />
      <path
         d="m 262.32,1885.4 c 0,0 -1.0273,-0.31 -2.1488,-0.1846 -1.2111,0.1354 -3.0016,0.2934 -3.9215,0.7152 -2.6903,1.2337 -2.1018,4.387 -2.4438,4.1839 -0.6668,-0.396 -1.861,-1.7871 -0.83493,-3.0865 4.0382,-5.1137 14.143,-5.194 10.885,-0.5183"
         id="path182" />
    </g>
    <g
       transform="rotate(20.350976,77.748711,1037.9473)"
       id="g190">
      <path
         transform="matrix(-0.20313,-0.63034,0.63034,-0.20313,185.38,2203)"
         d="m 430.27,252.01 c 0,7.897 -4.0739,14.299 -9.0993,14.299 -5.0254,0 -9.0993,-6.4018 -9.0993,-14.299 0,-7.897 4.0739,-14.299 9.0993,-14.299 5.0254,0 9.0993,6.4018 9.0993,14.299 z"
         fill="#e9afaf"
         stroke="#000000"
         stroke-width="4"
         id="path186" />
      <path
         d="m 262.32,1885.4 c 0,0 -1.0273,-0.31 -2.1488,-0.1846 -1.2111,0.1354 -3.0016,0.2934 -3.9215,0.7152 -2.6903,1.2337 -2.1018,4.387 -2.4438,4.1839 -0.6668,-0.396 -1.861,-1.7871 -0.83493,-3.0865 4.0382,-5.1137 14.143,-5.194 10.885,-0.5183"
         id="path188" />
    </g>
    <g
       transform="matrix(1.029,0.11019,-0.23228,0.81922,146.64,322.46)"
       id="g196">
      <path
         transform="matrix(-0.20313,-0.63034,0.63034,-0.20313,185.38,2203)"
         d="m 430.27,252.01 c 0,7.897 -4.0739,14.299 -9.0993,14.299 -5.0254,0 -9.0993,-6.4018 -9.0993,-14.299 0,-7.897 4.0739,-14.299 9.0993,-14.299 5.0254,0 9.0993,6.4018 9.0993,14.299 z"
         fill="#e9afaf"
         stroke="#000000"
         stroke-width="4"
         id="path192" />
      <path
         d="m 262.32,1885.4 c 0,0 -1.0273,-0.31 -2.1488,-0.1846 -1.2111,0.1354 -3.0016,0.2934 -3.9215,0.7152 -2.6903,1.2337 -2.1018,4.387 -2.4438,4.1839 -0.6668,-0.396 -1.861,-1.7871 -0.83493,-3.0865 4.0382,-5.1137 14.143,-5.194 10.885,-0.5183"
         id="path194" />
    </g>
    <g
       transform="matrix(0.93902,-0.27336,0.091293,0.79956,-418.49,453.58)"
       id="g202">
      <path
         transform="matrix(-0.20313,-0.63034,0.63034,-0.20313,185.38,2203)"
         d="m 427.95,252.01 c 0,7.897 -3.0384,14.299 -6.7864,14.299 -3.748,0 -6.7864,-6.4018 -6.7864,-14.299 0,-7.897 3.0384,-14.299 6.7864,-14.299 3.748,0 6.7864,6.4018 6.7864,14.299 z"
         fill="#e9afaf"
         stroke="#000000"
         stroke-width="4"
         id="path198" />
      <path
         d="m 262.32,1885.4 c 0,0 -1.0273,-0.31 -2.1488,-0.1846 -1.2111,0.1354 -3.0016,0.2934 -3.9215,0.7152 -2.6903,1.2337 -2.1018,4.387 -2.4438,4.1839 -0.6668,-0.396 -1.861,-1.7871 -0.83493,-3.0865 4.0382,-5.1137 14.143,-5.194 10.885,-0.5183"
         id="path200" />
    </g>
    <g
       transform="matrix(-1.1268,0.6362,0.6362,1.1268,-938.27,-506.21)"
       id="g208">
      <path
         transform="matrix(-0.20313,-0.63034,0.63034,-0.20313,185.38,2203)"
         d="m 430.27,252.01 c 0,7.897 -4.0739,14.299 -9.0993,14.299 -5.0254,0 -9.0993,-6.4018 -9.0993,-14.299 0,-7.897 4.0739,-14.299 9.0993,-14.299 5.0254,0 9.0993,6.4018 9.0993,14.299 z"
         fill="#e9afaf"
         stroke="#000000"
         stroke-width="4"
         id="path204" />
      <path
         d="m 262.32,1885.4 c 0,0 -1.0273,-0.31 -2.1488,-0.1846 -1.2111,0.1354 -3.0016,0.2934 -3.9215,0.7152 -2.6903,1.2337 -2.1018,4.387 -2.4438,4.1839 -0.6668,-0.396 -1.861,-1.7871 -0.83493,-3.0865 4.0382,-5.1137 14.143,-5.194 10.885,-0.5183"
         id="path206" />
    </g>
    <g
       transform="matrix(-0.85695,0.5154,0.5154,0.85695,-828.73,32.742)"
       id="g214">
      <path
         transform="matrix(-0.20313,-0.63034,0.63034,-0.20313,185.38,2203)"
         d="m 430.27,252.01 c 0,7.897 -4.0739,14.299 -9.0993,14.299 -5.0254,0 -9.0993,-6.4018 -9.0993,-14.299 0,-7.897 4.0739,-14.299 9.0993,-14.299 5.0254,0 9.0993,6.4018 9.0993,14.299 z"
         fill="#e9afaf"
         stroke="#000000"
         stroke-width="4"
         id="path210" />
      <path
         d="m 262.32,1885.4 c 0,0 -1.0273,-0.31 -2.1488,-0.1846 -1.2111,0.1354 -3.0016,0.2934 -3.9215,0.7152 -2.6903,1.2337 -2.1018,4.387 -2.4438,4.1839 -0.6668,-0.396 -1.861,-1.7871 -0.83493,-3.0865 4.0382,-5.1137 14.143,-5.194 10.885,-0.5183"
         id="path212" />
    </g>
    <g
       transform="matrix(-1.0395,0.41044,0.41044,1.0395,-561,-281.41)"
       id="g220">
      <path
         transform="matrix(-0.20313,-0.63034,0.63034,-0.20313,185.38,2203)"
         d="m 430.27,252.01 c 0,7.897 -4.0739,14.299 -9.0993,14.299 -5.0254,0 -9.0993,-6.4018 -9.0993,-14.299 0,-7.897 4.0739,-14.299 9.0993,-14.299 5.0254,0 9.0993,6.4018 9.0993,14.299 z"
         fill="#e9afaf"
         stroke="#000000"
         stroke-width="4"
         id="path216" />
      <path
         d="m 262.32,1885.4 c 0,0 -1.0273,-0.31 -2.1488,-0.1846 -1.2111,0.1354 -3.0016,0.2934 -3.9215,0.7152 -2.6903,1.2337 -2.1018,4.387 -2.4438,4.1839 -0.6668,-0.396 -1.861,-1.7871 -0.83493,-3.0865 4.0382,-5.1137 14.143,-5.194 10.885,-0.5183"
         id="path218" />
    </g>
    <g
       transform="matrix(-0.85695,0.5154,0.5154,0.85695,-849.1,29.709)"
       id="g226">
      <path
         transform="matrix(-0.20313,-0.63034,0.63034,-0.20313,185.38,2203)"
         d="m 430.27,252.01 c 0,7.897 -4.0739,14.299 -9.0993,14.299 -5.0254,0 -9.0993,-6.4018 -9.0993,-14.299 0,-7.897 4.0739,-14.299 9.0993,-14.299 5.0254,0 9.0993,6.4018 9.0993,14.299 z"
         fill="#e9afaf"
         stroke="#000000"
         stroke-width="4"
         id="path222" />
      <path
         d="m 262.32,1885.4 c 0,0 -1.0273,-0.31 -2.1488,-0.1846 -1.2111,0.1354 -3.0016,0.2934 -3.9215,0.7152 -2.6903,1.2337 -2.1018,4.387 -2.4438,4.1839 -0.6668,-0.396 -1.861,-1.7871 -0.83493,-3.0865 4.0382,-5.1137 14.143,-5.194 10.885,-0.5183"
         id="path224" />
    </g>
    <g
       transform="matrix(-0.93758,0.34777,0.34777,0.93758,-534.15,-84.219)"
       id="g232">
      <path
         transform="matrix(-0.20313,-0.63034,0.63034,-0.20313,185.38,2203)"
         d="m 430.27,252.01 c 0,7.897 -4.0739,14.299 -9.0993,14.299 -5.0254,0 -9.0993,-6.4018 -9.0993,-14.299 0,-7.897 4.0739,-14.299 9.0993,-14.299 5.0254,0 9.0993,6.4018 9.0993,14.299 z"
         fill="#e9afaf"
         stroke="#000000"
         stroke-width="4"
         id="path228" />
      <path
         d="m 262.32,1885.4 c 0,0 -1.0273,-0.31 -2.1488,-0.1846 -1.2111,0.1354 -3.0016,0.2934 -3.9215,0.7152 -2.6903,1.2337 -2.1018,4.387 -2.4438,4.1839 -0.6668,-0.396 -1.861,-1.7871 -0.83493,-3.0865 4.0382,-5.1137 14.143,-5.194 10.885,-0.5183"
         id="path230" />
    </g>
    <g
       transform="matrix(-1.1081,0.85148,0.85148,1.1081,-1320.4,-535.19)"
       id="g238">
      <path
         transform="matrix(-0.20313,-0.63034,0.63034,-0.20313,185.38,2203)"
         d="m 430.27,252.01 c 0,7.897 -4.0739,14.299 -9.0993,14.299 -5.0254,0 -9.0993,-6.4018 -9.0993,-14.299 0,-7.897 4.0739,-14.299 9.0993,-14.299 5.0254,0 9.0993,6.4018 9.0993,14.299 z"
         fill="#e9afaf"
         stroke="#000000"
         stroke-width="4"
         id="path234" />
      <path
         d="m 262.32,1885.4 c 0,0 -1.0273,-0.31 -2.1488,-0.1846 -1.2111,0.1354 -3.0016,0.2934 -3.9215,0.7152 -2.6903,1.2337 -2.1018,4.387 -2.4438,4.1839 -0.6668,-0.396 -1.861,-1.7871 -0.83493,-3.0865 4.0382,-5.1137 14.143,-5.194 10.885,-0.5183"
         id="path236" />
    </g>
    <g
       transform="matrix(-1.2177,0.93573,0.93573,1.2177,-1420.5,-777)"
       id="g244">
      <path
         transform="matrix(-0.20313,-0.63034,0.63034,-0.20313,185.38,2203)"
         d="m 430.27,252.01 c 0,7.897 -4.0739,14.299 -9.0993,14.299 -5.0254,0 -9.0993,-6.4018 -9.0993,-14.299 0,-7.897 4.0739,-14.299 9.0993,-14.299 5.0254,0 9.0993,6.4018 9.0993,14.299 z"
         fill="#e9afaf"
         stroke="#000000"
         stroke-width="4"
         id="path240" />
      <path
         d="m 262.32,1885.4 c 0,0 -1.0273,-0.31 -2.1488,-0.1846 -1.2111,0.1354 -3.0016,0.2934 -3.9215,0.7152 -2.6903,1.2337 -2.1018,4.387 -2.4438,4.1839 -0.6668,-0.396 -1.861,-1.7871 -0.83493,-3.0865 4.0382,-5.1137 14.143,-5.194 10.885,-0.5183"
         id="path242" />
    </g>
    <g
       transform="matrix(-1.0444,1.3556,1.3556,1.0444,-2229.2,-583.69)"
       id="g250">
      <path
         transform="matrix(-0.20313,-0.63034,0.63034,-0.20313,185.38,2203)"
         d="m 430.27,252.01 c 0,7.897 -4.0739,14.299 -9.0993,14.299 -5.0254,0 -9.0993,-6.4018 -9.0993,-14.299 0,-7.897 4.0739,-14.299 9.0993,-14.299 5.0254,0 9.0993,6.4018 9.0993,14.299 z"
         fill="#e9afaf"
         stroke="#000000"
         stroke-width="4"
         id="path246" />
      <path
         d="m 262.32,1885.4 c 0,0 -1.0273,-0.31 -2.1488,-0.1846 -1.2111,0.1354 -3.0016,0.2934 -3.9215,0.7152 -2.6903,1.2337 -2.1018,4.387 -2.4438,4.1839 -0.6668,-0.396 -1.861,-1.7871 -0.83493,-3.0865 4.0382,-5.1137 14.143,-5.194 10.885,-0.5183"
         id="path248" />
    </g>
    <path
       transform="translate(-161.62,1526.9)"
       d="m 295.18,153.55 c 0.0146,-0.0108 0.0291,-0.0215 0.0436,-0.0322 4.5093,-3.3269 5.0292,-3.489 6.9828,-5.217 4.0852,-3.6135 11.145,-8.4269 15.83,-3.7418 6.9328,6.9328 11.266,10.399 22.532,17.332 11.266,6.9328 13.866,8.666 17.332,14.732"
       fill="none"
       stroke="#000000"
       stroke-width="4"
       id="path252" />
    <flowRoot
       transform="matrix(0.9785,-0.20624,0.20624,0.9785,-215.67,1645.9)"
       color="#000000"
       fill="#000000"
       letter-spacing="0px"
       word-spacing="0px"
       style="line-height:125%"
       id="flowRoot260"><flowRegion
         id="flowRegion256"><rect
           x="515.35"
           y="351.25"
           width="101.41"
           height="26.656"
           id="rect254" /></flowRegion><flowPara
         fill="#501616"
         id="flowPara258">JJP 2014</flowPara></flowRoot>
  </g>
</svg>
