<?xml version="1.0" encoding="UTF-8" standalone="no"?>
<svg
   xmlns:dc="http://purl.org/dc/elements/1.1/"
   xmlns:cc="http://creativecommons.org/ns#"
   xmlns:rdf="http://www.w3.org/1999/02/22-rdf-syntax-ns#"
   xmlns:svg="http://www.w3.org/2000/svg"
   xmlns="http://www.w3.org/2000/svg"
   xmlns:sodipodi="http://sodipodi.sourceforge.net/DTD/sodipodi-0.dtd"
   xmlns:inkscape="http://www.inkscape.org/namespaces/inkscape"
   version="1.1"
   id="Layer_1"
   width="88mm"
   height="125mm"
   viewBox="0 0 332.59843 472.44093"
   overflow="visible"
   enable-background="new 0 0 167.243 340.247"
   xml:space="preserve"
   sodipodi:docname="olive.svg"
   inkscape:version="1.0.2-2 (e86c870879, 2021-01-15)"><defs
   id="defs33" /><sodipodi:namedview
   pagecolor="#ffffff"
   bordercolor="#666666"
   borderopacity="1"
   objecttolerance="10"
   gridtolerance="10"
   guidetolerance="10"
   inkscape:pageopacity="0"
   inkscape:pageshadow="2"
   inkscape:window-width="687"
   inkscape:window-height="480"
   id="namedview31"
   showgrid="false"
   units="mm"
   inkscape:zoom="0.44507895"
   inkscape:cx="-55.188644"
   inkscape:cy="226.07566"
   inkscape:window-x="0"
   inkscape:window-y="0"
   inkscape:window-maximized="0"
   inkscape:current-layer="Layer_1" />
<g
   id="g26"
   transform="matrix(1.2575349,0,0,1.2575349,67.403824,17.974763)">
	<g
   id="g22">
		<path
   fill="#e7e2b7"
   stroke="#000000"
   stroke-width="2.124"
   d="m 86.663,159.9 10.392,173.875 c 0.211,2.855 0.135,5.186 -2.721,5.396 v 0 c -2.854,0.211 -3.271,-2.084 -3.48,-4.939 L 75.734,161.279 Z"
   id="path2" />
		<g
   id="g14">
			<g
   id="g8">
				<path
   fill="#677718"
   stroke="#000000"
   stroke-width="1.9984"
   d="m 148.281,215.734 c 4.389,-3.089 8.74,-6.02 11.875,-12.838 3.76,-8.184 6.088,-19.482 6.088,-31.962 0,-13.895 -2.887,-26.322 -7.426,-34.62 -2.506,-4.583 -5.676,-6.859 -8.828,-9.51 -15.57,-14.023 -38.486,-22.9 -64.056,-22.9 -46.909,0 -84.935,29.824 -84.935,66.615 0,36.791 38.026,66.614 84.935,66.614 24.648,-0.001 46.831,-8.245 62.347,-21.399 z"
   id="path4" />
				<ellipse
   fill="#c0272d"
   stroke="#000000"
   stroke-width="2.0478"
   cx="143.47"
   cy="170.813"
   rx="15.525"
   ry="35.415001"
   id="ellipse6" />
			</g>
			<g
   id="g12">
				<path
   fill="#b1b579"
   d="m 143.447,127.362 c -14.654,-11.43 -34.688,-18.483 -56.792,-18.483 -44.93,0 -81.35,29.087 -81.35,64.969 0,2.826 0.251,5.601 0.69,8.333 0.878,-35.272 36.93,-63.655 81.308,-63.655 18.574,0 35.685,4.98 49.375,13.352 z"
   id="path10" />
			</g>
		</g>
		<path
   fill="#e7e2b7"
   stroke="#000000"
   stroke-width="2.124"
   d="M 72.194,134.299 61.048,6.777 c -0.21,-2.855 4,-5.491 6.856,-5.7 v 0 c 2.854,-0.211 7.404,1.78 7.615,4.635 l 7.605,127.208 z"
   id="path16" />
		<g
   id="g20">
			<path
   fill="none"
   stroke="#000000"
   stroke-width="1.0247"
   d="m 88.347,131.81 c -8.062,2.905 -12.499,3.576 -21.334,3.033"
   id="path18" />
		</g>
	</g>
	<polygon
   fill="#677718"
   points="97.019,121.252 89.161,120.597 91.125,108.157 102.257,108.157 "
   id="polygon24" />
</g>
<metadata
   id="metadata28"><rdf:RDF><cc:Work><dc:format>image/svg+xml</dc:format><dc:type
         rdf:resource="http://purl.org/dc/dcmitype/StillImage" /><cc:license
         rdf:resource="http://creativecommons.org/publicdomain/zero/1.0/" /><dc:publisher><cc:Agent
           rdf:about="http://openclipart.org/"><dc:title>Open Clip Art Library</dc:title></cc:Agent></dc:publisher><dc:title>green olive on a toothpick</dc:title><dc:date>2006-10-28T19:06:44</dc:date><dc:description>a simple graphic of a green olive stuffed with a pimiento on a toothpick.  Perfect for your martini</dc:description><dc:source>http://openclipart.org/detail/989/green-olive-on-a-toothpick-by-johnny_automatic</dc:source><dc:creator><cc:Agent><dc:title>johnny_automatic</dc:title></cc:Agent></dc:creator><dc:subject><rdf:Bag><rdf:li>clip art</rdf:li><rdf:li>clipart</rdf:li><rdf:li>food</rdf:li><rdf:li>food</rdf:li><rdf:li>green</rdf:li><rdf:li>green</rdf:li><rdf:li>image</rdf:li><rdf:li>media</rdf:li><rdf:li>olive</rdf:li><rdf:li>olive</rdf:li><rdf:li>pimiento</rdf:li><rdf:li>pimiento</rdf:li><rdf:li>png</rdf:li><rdf:li>public domain</rdf:li><rdf:li>svg</rdf:li><rdf:li>toothpick</rdf:li><rdf:li>toothpick</rdf:li></rdf:Bag></dc:subject></cc:Work><cc:License
       rdf:about="http://creativecommons.org/publicdomain/zero/1.0/"><cc:permits
         rdf:resource="http://creativecommons.org/ns#Reproduction" /><cc:permits
         rdf:resource="http://creativecommons.org/ns#Distribution" /><cc:permits
         rdf:resource="http://creativecommons.org/ns#DerivativeWorks" /></cc:License></rdf:RDF></metadata></svg>
