<?xml version="1.0" encoding="UTF-8" standalone="no"?>
<svg
   viewBox="0 0 472.44095 332.59843"
   version="1.1"
   id="svg291"
   sodipodi:docname="paint.svg"
   width="125mm"
   height="88mm"
   inkscape:version="1.2.2 (732a01da63, 2022-12-09)"
   xmlns:inkscape="http://www.inkscape.org/namespaces/inkscape"
   xmlns:sodipodi="http://sodipodi.sourceforge.net/DTD/sodipodi-0.dtd"
   xmlns:xlink="http://www.w3.org/1999/xlink"
   xmlns="http://www.w3.org/2000/svg"
   xmlns:svg="http://www.w3.org/2000/svg">
  <sodipodi:namedview
     id="namedview293"
     pagecolor="#505050"
     bordercolor="#eeeeee"
     borderopacity="1"
     inkscape:showpageshadow="0"
     inkscape:pageopacity="0"
     inkscape:pagecheckerboard="0"
     inkscape:deskcolor="#505050"
     showgrid="false"
     inkscape:zoom="1.0494792"
     inkscape:cx="67.652605"
     inkscape:cy="219.63275"
     inkscape:current-layer="svg291"
     inkscape:document-units="mm" />
  <defs
     id="defs197">
    <filter
       id="az"
       x="-0.055838201"
       y="-0.095114986"
       width="1.1116764"
       height="1.19023">
      <feGaussianBlur
         stdDeviation=".7765"
         id="feGaussianBlur2" />
    </filter>
    <filter
       id="bc"
       x="-0.11258948"
       y="-0.029918882"
       width="1.225179"
       height="1.0598378">
      <feGaussianBlur
         stdDeviation=".3415"
         id="feGaussianBlur5" />
    </filter>
    <filter
       id="be"
       x="-0.053311238"
       y="-0.088843139"
       width="1.1111622"
       height="1.1584167">
      <feGaussianBlur
         stdDeviation=".2121"
         id="feGaussianBlur8" />
    </filter>
    <filter
       id="ay"
       x="0"
       y="0"
       width="1"
       height="1" />
    <filter
       id="ba"
       x="-0.18653768"
       y="-0.026472343"
       width="1.3730754"
       height="1.0529447">
      <feGaussianBlur
         stdDeviation=".3136"
         id="feGaussianBlur12" />
    </filter>
    <filter
       id="ax"
       x="-0.056625882"
       y="-0.13590212"
       width="1.1132518"
       height="1.2718042">
      <feGaussianBlur
         stdDeviation="1.2033"
         id="feGaussianBlur15" />
    </filter>
    <filter
       id="bd"
       x="-0.26959924"
       y="-0.022080548"
       width="1.5403885"
       height="1.0441611">
      <feGaussianBlur
         stdDeviation=".2289"
         id="feGaussianBlur18" />
    </filter>
    <filter
       id="bb"
       x="-0.60535385"
       y="-0.032589832"
       width="2.2103667"
       height="1.0651797">
      <feGaussianBlur
         stdDeviation=".3769"
         id="feGaussianBlur21" />
    </filter>
    <linearGradient
       id="a">
      <stop
         stop-color="#fff"
         offset="0"
         id="stop24" />
      <stop
         stop-color="#e4e4e4"
         offset=".2393"
         id="stop26" />
      <stop
         stop-color="#6f2e02"
         offset=".5883"
         id="stop28" />
      <stop
         stop-color="#b67948"
         offset=".7814"
         id="stop30" />
      <stop
         stop-color="#daa16c"
         offset="1"
         id="stop32" />
    </linearGradient>
    <linearGradient
       id="e">
      <stop
         stop-color="#fff"
         stop-opacity=".6215"
         offset="0"
         id="stop35" />
      <stop
         stop-color="#6a6a6a"
         stop-opacity="0"
         offset="1"
         id="stop37" />
    </linearGradient>
    <linearGradient
       id="c">
      <stop
         stop-color="#ededed"
         offset="0"
         id="stop40" />
      <stop
         stop-color="#bdbdbd"
         offset="1"
         id="stop42" />
    </linearGradient>
    <linearGradient
       id="f">
      <stop
         stop-color="#d7d7d7"
         offset="0"
         id="stop45" />
      <stop
         stop-color="#e7e7e7"
         offset=".0156"
         id="stop47" />
      <stop
         stop-color="#ededed"
         offset=".0625"
         id="stop49" />
      <stop
         stop-color="#f1f1f1"
         offset=".0625"
         id="stop51" />
      <stop
         stop-color="#fcfcfc"
         offset=".0826"
         id="stop53" />
      <stop
         stop-color="#d4d4d4"
         offset=".1054"
         id="stop55" />
      <stop
         stop-color="#dcdcdc"
         offset=".1388"
         id="stop57" />
      <stop
         stop-color="#e7e7e7"
         offset=".5798"
         id="stop59" />
      <stop
         stop-color="#fff"
         offset="1"
         id="stop61" />
    </linearGradient>
    <linearGradient
       id="b">
      <stop
         stop-color="#e2e2e2"
         offset="0"
         id="stop64" />
      <stop
         stop-color="#e8e8e8"
         offset=".25"
         id="stop66" />
      <stop
         stop-color="#eee"
         offset=".5339"
         id="stop68" />
      <stop
         stop-color="#fff"
         offset="1"
         id="stop70" />
    </linearGradient>
    <linearGradient
       id="d">
      <stop
         stop-color="#aeaeae"
         offset="0"
         id="stop73" />
      <stop
         stop-color="#afafaf"
         offset=".0313"
         id="stop75" />
      <stop
         stop-color="#b0b0b0"
         offset=".0625"
         id="stop77" />
      <stop
         stop-color="#b3b3b3"
         offset=".125"
         id="stop79" />
      <stop
         stop-color="#b8b8b8"
         offset=".25"
         id="stop81" />
      <stop
         stop-color="#c3c3c3"
         offset=".5"
         id="stop83" />
      <stop
         stop-color="#fff"
         offset="1"
         id="stop85" />
    </linearGradient>
    <linearGradient
       id="s"
       x1="35.310001"
       x2="34.564999"
       y1="1011"
       y2="1024.2"
       gradientUnits="userSpaceOnUse" />
    <linearGradient
       id="r"
       x1="75.75"
       x2="82.75"
       gradientUnits="userSpaceOnUse">
      <stop
         stop-color="#740000"
         offset="0"
         id="stop89" />
      <stop
         offset="1"
         id="stop91" />
    </linearGradient>
    <linearGradient
       id="aj"
       x1="28.327999"
       x2="5.1897998"
       y1="1003.5"
       y2="1003.1"
       gradientUnits="userSpaceOnUse"
       spreadMethod="reflect">
      <stop
         stop-color="#cecece"
         offset="0"
         id="stop94" />
      <stop
         stop-color="#dedede"
         offset=".1558"
         id="stop96" />
      <stop
         stop-color="#c1c1c1"
         offset="1"
         id="stop98" />
    </linearGradient>
    <linearGradient
       id="av"
       x1="63.153"
       x2="68.821999"
       y1="1025.4"
       y2="1054.4"
       gradientUnits="userSpaceOnUse">
      <stop
         stop-color="#ccc"
         offset="0"
         id="stop101" />
      <stop
         stop-color="#e7e7e7"
         offset=".0625"
         id="stop103" />
      <stop
         stop-color="#e4e4e4"
         offset=".0625"
         id="stop105" />
      <stop
         stop-color="#fff"
         offset=".1054"
         id="stop107" />
      <stop
         stop-color="#e4e4e4"
         offset=".1054"
         id="stop109" />
      <stop
         stop-color="#e2e2e2"
         offset=".1229"
         id="stop111" />
      <stop
         stop-color="#fff"
         offset=".5198"
         id="stop113" />
      <stop
         stop-color="#eaeaea"
         offset="1"
         id="stop115" />
      <stop
         stop-color="#b7b7b7"
         offset="1"
         id="stop117" />
    </linearGradient>
    <linearGradient
       id="t"
       x1="8.7285004"
       x2="34.460999"
       y1="1006.3"
       y2="1006.9"
       gradientUnits="userSpaceOnUse"
       xlink:href="#d"
       spreadMethod="reflect" />
    <linearGradient
       id="au"
       x1="60.873001"
       x2="68.100998"
       gradientTransform="matrix(0.86771,-0.53324,0.55002,0.84604,-536.31,203.95)"
       gradientUnits="userSpaceOnUse"
       xlink:href="#a" />
    <linearGradient
       id="at"
       x1="60.873001"
       x2="68.100998"
       gradientTransform="matrix(0.86771,-0.53324,0.55002,0.84604,-538.73,204.05)"
       gradientUnits="userSpaceOnUse"
       xlink:href="#a" />
    <linearGradient
       id="as"
       x1="60.873001"
       x2="68.100998"
       gradientTransform="matrix(0.86771,-0.53324,0.55002,0.84604,-536.97,203.57)"
       gradientUnits="userSpaceOnUse"
       xlink:href="#a" />
    <linearGradient
       id="ar"
       x1="60.873001"
       x2="68.100998"
       gradientTransform="matrix(0.86771,-0.53324,0.55002,0.84604,-538.06,203.52)"
       gradientUnits="userSpaceOnUse"
       xlink:href="#a" />
    <linearGradient
       id="aq"
       x1="60.873001"
       x2="68.100998"
       gradientTransform="matrix(0.92714,-0.42849,0.44256,0.90362,-433.84,138.39)"
       gradientUnits="userSpaceOnUse"
       xlink:href="#a" />
    <linearGradient
       id="ap"
       x1="60.873001"
       x2="68.100998"
       gradientTransform="matrix(0.93085,-0.42083,0.4347,0.90721,-427.27,134.08)"
       gradientUnits="userSpaceOnUse"
       xlink:href="#a" />
    <linearGradient
       id="an"
       x1="60.873001"
       x2="68.100998"
       gradientTransform="matrix(1.2398,-0.27523,0.38868,0.96219,-400.12,68.875)"
       gradientUnits="userSpaceOnUse"
       xlink:href="#a" />
    <linearGradient
       id="am"
       x1="60.873001"
       x2="68.100998"
       gradientTransform="matrix(1.2398,-0.27523,0.38868,0.96219,-401.6,68.375)"
       gradientUnits="userSpaceOnUse"
       xlink:href="#a" />
    <linearGradient
       id="al"
       x1="60.873001"
       x2="68.100998"
       gradientTransform="matrix(1.2398,-0.27523,0.38868,0.96219,-401.06,68.643)"
       gradientUnits="userSpaceOnUse"
       xlink:href="#a" />
    <linearGradient
       id="ak"
       x1="60.873001"
       x2="68.100998"
       gradientTransform="matrix(1.2398,-0.27523,0.38868,0.96219,-402.13,68.169)"
       gradientUnits="userSpaceOnUse"
       xlink:href="#a" />
    <linearGradient
       id="ai"
       x1="60.873001"
       x2="68.100998"
       gradientTransform="matrix(1.2398,-0.27523,0.38868,0.96219,-403.06,68.441)"
       gradientUnits="userSpaceOnUse"
       xlink:href="#a" />
    <linearGradient
       id="ah"
       x1="60.873001"
       x2="68.100998"
       gradientTransform="matrix(1.2398,-0.27523,0.38868,0.96219,-404.09,67.678)"
       gradientUnits="userSpaceOnUse"
       xlink:href="#a" />
    <linearGradient
       id="ag"
       x1="60.873001"
       x2="68.100998"
       gradientTransform="matrix(1.0518,-0.56687,0.76267,0.82476,-762.08,228.18)"
       gradientUnits="userSpaceOnUse"
       xlink:href="#a" />
    <linearGradient
       id="ae"
       x1="60.873001"
       x2="68.100998"
       gradientTransform="matrix(1.0518,-0.56687,0.76267,0.82476,-760.92,227.71)"
       gradientUnits="userSpaceOnUse"
       xlink:href="#a" />
    <linearGradient
       id="ac"
       x1="60.873001"
       x2="68.100998"
       gradientTransform="matrix(1.0518,-0.56687,0.76267,0.82476,-762.54,227.47)"
       gradientUnits="userSpaceOnUse"
       xlink:href="#a" />
    <linearGradient
       id="aa"
       x1="60.873001"
       x2="68.100998"
       gradientTransform="matrix(1.0518,-0.56687,0.76267,0.82476,-764,227.44)"
       gradientUnits="userSpaceOnUse"
       xlink:href="#a" />
    <linearGradient
       id="z"
       x1="60.873001"
       x2="68.100998"
       gradientTransform="matrix(1.0518,-0.56687,0.76267,0.82476,-764.83,227.54)"
       gradientUnits="userSpaceOnUse"
       xlink:href="#a" />
    <linearGradient
       id="y"
       x1="64.901001"
       x2="74.045998"
       gradientUnits="userSpaceOnUse"
       xlink:href="#a" />
    <linearGradient
       id="w"
       x1="65.471001"
       x2="74.615997"
       gradientUnits="userSpaceOnUse"
       xlink:href="#a" />
    <linearGradient
       id="v"
       x1="66.278"
       x2="75.422997"
       gradientUnits="userSpaceOnUse"
       xlink:href="#a" />
    <linearGradient
       id="u"
       x1="67.527"
       x2="76.671997"
       gradientUnits="userSpaceOnUse"
       xlink:href="#a" />
    <linearGradient
       id="ao"
       x1="16.872"
       x2="18.503"
       y1="53.562"
       y2="55.812"
       gradientUnits="userSpaceOnUse"
       xlink:href="#b"
       spreadMethod="reflect" />
    <linearGradient
       id="af"
       x1="21.059999"
       x2="22.690001"
       y1="1014.9"
       y2="1027.9"
       gradientUnits="userSpaceOnUse"
       xlink:href="#b"
       spreadMethod="reflect" />
    <linearGradient
       id="ad"
       x1="31.059999"
       x2="30.315001"
       y1="1016.7"
       y2="1019.9"
       gradientUnits="userSpaceOnUse"
       xlink:href="#b"
       spreadMethod="repeat" />
    <linearGradient
       id="ab"
       x1="49.185001"
       x2="50.814999"
       y1="1016.1"
       y2="1018.4"
       gradientUnits="userSpaceOnUse"
       xlink:href="#b"
       spreadMethod="reflect" />
    <linearGradient
       id="x"
       x1="20.643"
       x2="18.016001"
       y1="77.508003"
       y2="86.691002"
       gradientUnits="userSpaceOnUse"
       xlink:href="#c" />
    <linearGradient
       id="aw"
       x1="75.195"
       x2="79.221001"
       y1="64.975998"
       y2="65.064003"
       gradientTransform="matrix(1.1892,0.30644,-0.3221,1.1314,2.8745,915.54)"
       gradientUnits="userSpaceOnUse"
       xlink:href="#d"
       spreadMethod="reflect" />
    <radialGradient
       id="k"
       cx="30.171"
       cy="31.933001"
       r="25.101999"
       gradientTransform="matrix(1.2356,-0.02995,0.01849,0.56627,-7.6984,16.799)"
       gradientUnits="userSpaceOnUse">
      <stop
         stop-color="#939393"
         offset="0"
         id="stop148" />
      <stop
         offset="1"
         id="stop150" />
    </radialGradient>
    <radialGradient
       id="j"
       cx="23.565001"
       cy="16.919001"
       r="25.252001"
       gradientTransform="matrix(0.2416,1.3168,-6.0873,0.82906,119.39,-20.219)"
       gradientUnits="userSpaceOnUse">
      <stop
         stop-color="#c4c4c4"
         offset="0"
         id="stop153" />
      <stop
         stop-color="#d7d7d7"
         offset=".0928"
         id="stop155" />
      <stop
         stop-color="#ededed"
         offset=".2062"
         id="stop157" />
      <stop
         stop-color="#fffcfc"
         offset=".4436"
         id="stop159" />
      <stop
         stop-color="#fff"
         offset="1"
         id="stop161" />
    </radialGradient>
    <radialGradient
       id="n"
       cx="27.709999"
       cy="38.300999"
       r="17.545"
       gradientTransform="matrix(1.0598,0,0,0.32831,-5.9576,975.9)"
       gradientUnits="userSpaceOnUse">
      <stop
         stop-color="#c4c4c4"
         stop-opacity=".7897"
         offset="0"
         id="stop164" />
      <stop
         stop-color="#cecece"
         stop-opacity=".8131"
         offset=".0626"
         id="stop166" />
      <stop
         stop-color="#fff"
         stop-opacity=".8551"
         offset="1"
         id="stop168" />
    </radialGradient>
    <radialGradient
       id="p"
       cx="33.683998"
       cy="78.216003"
       r="3.8218"
       gradientTransform="matrix(-0.37426,-0.04284,0.04019,-0.35114,43.233,1064.4)"
       gradientUnits="userSpaceOnUse"
       spreadMethod="reflect">
      <stop
         stop-color="#ccc"
         offset="0"
         id="stop171" />
      <stop
         stop-color="#e7e7e7"
         offset=".0625"
         id="stop173" />
      <stop
         stop-color="#e4e4e4"
         offset=".0625"
         id="stop175" />
      <stop
         stop-color="#fff"
         offset=".1054"
         id="stop177" />
      <stop
         stop-color="#e4e4e4"
         offset=".1054"
         id="stop179" />
      <stop
         stop-color="#e2e2e2"
         offset=".278"
         id="stop181" />
      <stop
         stop-color="#fff"
         offset=".5589"
         id="stop183" />
      <stop
         stop-color="#eaeaea"
         offset="1"
         id="stop185" />
      <stop
         stop-color="#b7b7b7"
         offset="1"
         id="stop187" />
    </radialGradient>
    <radialGradient
       id="i"
       cx="112"
       cy="1041.9"
       r="26.097"
       gradientTransform="matrix(-0.00705,0.99998,-0.50772,-0.00358,564.39,898.47)"
       gradientUnits="userSpaceOnUse"
       xlink:href="#e"
       spreadMethod="reflect" />
    <radialGradient
       id="h"
       cx="34.25"
       cy="1004.1"
       r="26.097"
       gradientTransform="matrix(1,0,0,1.0502,0.375,-47.753)"
       gradientUnits="userSpaceOnUse"
       xlink:href="#e" />
    <radialGradient
       id="g"
       cx="33.125"
       cy="27.5"
       r="24.752001"
       gradientTransform="matrix(0.09457,0.00353,-0.00215,0.06016,31.446,977.65)"
       gradientUnits="userSpaceOnUse"
       xlink:href="#d"
       spreadMethod="reflect" />
    <radialGradient
       id="o"
       cx="27.503"
       cy="41.283001"
       r="16.688"
       gradientTransform="matrix(0.04083,0.04374,-0.05297,0.04945,28.567,39.593)"
       gradientUnits="userSpaceOnUse"
       xlink:href="#f"
       spreadMethod="reflect" />
    <radialGradient
       id="m"
       cx="19.184999"
       cy="1033.2"
       r="7.0592999"
       gradientTransform="matrix(1.8221,0.45379,-0.4506,1.8871,445.28,-928.75)"
       gradientUnits="userSpaceOnUse"
       xlink:href="#c"
       spreadMethod="reflect" />
    <radialGradient
       id="l"
       cx="24.558001"
       cy="71.091003"
       r="7.7262998"
       gradientTransform="matrix(0.09828,0.07347,-0.05049,0.06754,22.202,71.271)"
       gradientUnits="userSpaceOnUse"
       xlink:href="#f"
       spreadMethod="reflect" />
    <radialGradient
       id="q"
       cx="33.683998"
       cy="78.216003"
       r="3.8218"
       gradientTransform="matrix(-1.1827,0.24553,-0.24503,-1.231,88.744,1120.7)"
       gradientUnits="userSpaceOnUse"
       xlink:href="#c" />
  </defs>
  <g
     transform="matrix(3.5902712,0,0,3.5902712,67.838832,-3435.7043)"
     id="g289">
    <path
       d="m 17.457,1043.4 c 3.2449,6.8169 17.033,0.3649 24.749,6.1872 9.3398,0.1357 21.076,0.1297 28.107,-3.8891 8.7181,-2.7764 7.2627,-8.2301 7.4246,-13.258 l -13.435,-3.8891 c 2.8259,15.515 -33.223,10.3 -46.846,14.849 z"
       fill="url(#av)"
       id="path199"
       style="fill:url(#av)" />
    <path
       transform="matrix(0.96629,0,0,1.1454,-4.3815,934.51)"
       d="m 60.217,36.651 c 0,7.8534 -11.238,14.22 -25.102,14.22 -13.864,0 -25.102,-6.3664 -25.102,-14.22 0,-7.8536 11.238,-14.22 25.102,-14.22 13.864,0 25.102,6.3664 25.102,14.22 z"
       fill="url(#k)"
       id="path201"
       style="fill:url(#k)" />
    <path
       transform="matrix(0.96629,0,0,1.1454,-3.5912,940.48)"
       d="m 60.217,36.651 c 0,7.8534 -11.238,14.22 -25.102,14.22 -13.864,0 -25.102,-6.3664 -25.102,-14.22 0,-7.8536 11.238,-14.22 25.102,-14.22 13.864,0 25.102,6.3664 25.102,14.22 z"
       fill="url(#j)"
       id="path203"
       style="fill:url(#j)" />
    <path
       transform="matrix(1.0294,0,0,1.5176,-4.5606,905.46)"
       d="M 59.75,73.375 C 59.75,79.243 48.333,84 34.25,84 20.167,84 8.75,79.243 8.75,73.375 c 0,-5.868 11.417,-10.625 25.5,-10.625 14.083,0 25.5,4.757 25.5,10.625 z"
       fill="#676767"
       fill-opacity="0.5052"
       filter="url(#ax)"
       opacity="0.725"
       id="path205" />
    <g
       transform="translate(-5.3033,-2.2981)"
       id="g213">
      <path
         d="m 8.587,1016.3 c -0.00699,9.9138 11.656,17.745 26.044,17.745 14.388,0 25.98,-7.7594 26.044,-17.745 l 0.10613,-37.068 c 0.04237,9.5525 -11.621,17.384 -26.009,17.384 -14.388,0 -26.051,-7.8317 -26.15,-17.131 z"
         fill="url(#t)"
         id="path207"
         style="fill:url(#t)" />
      <path
         d="m 34.519,961.93 c -14.388,0 -26.065,7.8258 -26.065,17.487 0,9.6612 11.677,17.487 26.065,17.487 14.388,0 26.065,-7.8258 26.065,-17.487 0,-9.6612 -11.677,-17.487 -26.065,-17.487 z m 0.23184,2.4353 c 12.266,0 22.19,6.6796 22.19,14.916 0,8.2364 -9.9236,14.916 -22.19,14.916 -12.2664,0 -22.223,-6.6796 -22.223,-14.916 0,-8.2364 9.9568,-14.916 22.223,-14.916 z"
         fill="url(#g)"
         stroke="#dcdcdc"
         stroke-width="0.33897"
         id="path209"
         style="fill:url(#g)" />
      <path
         d="m 8.5278,1016.4 c -0.007,9.9138 11.656,17.745 26.044,17.745 14.388,0 25.98,-7.7594 26.044,-17.745 l 0.10613,-37.068 c 0.0424,9.5525 -11.621,17.384 -26.009,17.384 -14.388,0 -26.051,-7.8317 -26.15,-17.131 z"
         fill="url(#i)"
         stroke="url(#h)"
         id="path211"
         style="fill:url(#i);stroke:url(#h)" />
    </g>
    <path
       transform="matrix(1.0598,0,0,1.0824,-6.2076,-88.6)"
       d="m 34.188,1000 c 3.103,14.34 -0.68661,23.731 -0.125,36.125"
       fill="none"
       stroke="url(#s)"
       stroke-linecap="round"
       stroke-width="0.5"
       id="path215"
       style="stroke:url(#s)" />
    <path
       d="m 9.5125,1025.2 c -2.157,2.6222 -1.7608,5.3004 4.3091,11.671 7.8684,0.8454 8.6633,-2.5439 9.4613,-5.9314 -4.3501,-0.6061 -8.6898,-1.1554 -13.77,-5.74 z"
       fill="url(#m)"
       id="path217"
       style="fill:url(#m)" />
    <path
       transform="matrix(1.0598,0,0,1.0824,-5.7572,946.92)"
       d="m 14.319,72.577 c -2.0352,2.4227 -1.6614,4.8971 4.0659,10.783 7.4243,0.78108 8.1743,-2.3504 8.9272,-5.4801 -4.1046,-0.56004 -8.1993,-1.0675 -12.993,-5.3033 z"
       fill="url(#l)"
       filter="url(#be)"
       opacity="0.3"
       stroke="url(#x)"
       stroke-width="0.5"
       id="path219"
       style="fill:url(#l);stroke:url(#x)" />
    <g
       transform="translate(0.40084,-0.10021)"
       id="g225">
      <path
         d="m 25.585,1031.9 c 2.791,0.01 4.9288,0.052 7.4342,-0.2169 0.3508,1.0064 1.1821,1.8165 0.21241,3.3623 -2.149,2.792 -7.2969,2.6762 -7.6466,-3.1454 z"
         fill="url(#q)"
         id="path221"
         style="fill:url(#q)" />
      <path
         transform="matrix(1.0598,0,0,1.0824,-5.9576,-88.1)"
         d="m 29.848,1034.9 c 2.6334,0.01 4.6506,0.048 7.0146,-0.2004 0.33099,0.9298 1.1154,1.6783 0.20042,3.1065 -2.0278,2.5796 -6.885,2.4726 -7.215,-2.9061 z"
         fill="url(#p)"
         filter="url(#ay)"
         opacity="0.625"
         id="path223"
         style="fill:url(#p)" />
    </g>
    <path
       d="m 4.7214,983.76 c 3.4492,7.3345 5.9103,14.669 6.37,22.003 l 0.74941,21.621 c 0.17872,1.3922 0.45042,2.2147 1.1241,0.574 l -0.56206,-18.751 c 1.4988,-0.3617 2.9976,1.9349 4.4964,4.5921 l -0.93676,16.072 c 0.52471,0.7266 1.0486,1.4565 2.0609,0.1913 l 1.3115,-16.646 c 0.02085,-2.6999 0.29699,-5.0739 1.3115,-6.5054 2.3739,-1.4768 2.1958,0.025 2.9976,0.3827 l -0.3747,7.0794 c 0.49961,2.3377 0.99921,1.0411 1.4988,0.1913 l 0.56205,-7.462 c 1.8163,-0.8666 3.2817,0.7755 4.8712,1.5306 l 0.74941,1.5307 -1.6862,22.003 c 0.46646,0.9125 0.97264,1.4193 1.6862,-0.1913 l 2.8103,-28.318 c 1.5433,-4.4111 5.4746,-7.4287 8.6182,-10.906 -27.92,4.5974 -32.079,-4.1086 -37.658,-8.9927 z"
       fill="url(#aj)"
       id="path227"
       style="fill:url(#aj)" />
    <path
       d="m 4.8151,983.96 c 2.1653,0.30121 2.3393,-1.8713 4.2154,-1.2437 6.838,8.3217 19.963,11.434 32.88,6.314 -0.70901,1.783 4.6584,2.1118 0.09368,3.9224 -14.677,2.4464 -30.202,1.9236 -37.189,-8.9927 z"
       fill="url(#n)"
       id="path229"
       style="fill:url(#n)" />
    <path
       transform="matrix(1.0598,0,0,1.0824,-5.9576,947.02)"
       d="m 12.125,36.875 c 5.603,13.34 4.8134,25.481 5.375,37.875"
       fill="none"
       filter="url(#ba)"
       stroke="url(#ao)"
       stroke-linecap="round"
       stroke-width="0.5"
       id="path231"
       style="stroke:url(#ao)" />
    <path
       transform="matrix(1.0598,0,0,1.0824,-5.9576,-88.1)"
       d="m 20.812,998.92 c 2.558,13.989 2.1195,22.81 1.124,35.427"
       fill="none"
       filter="url(#bb)"
       stroke="url(#af)"
       stroke-linecap="round"
       stroke-width="0.5"
       id="path233"
       style="stroke:url(#af)" />
    <path
       transform="matrix(1.0598,0,0,0.5661,-5.9576,428.18)"
       d="m 26.312,1000 c 5.603,13.34 1.4384,23.808 2,36.202"
       fill="none"
       filter="url(#bd)"
       stroke="url(#ad)"
       stroke-linecap="round"
       stroke-width="0.5"
       id="path235"
       style="stroke:url(#ad)" />
    <path
       transform="matrix(1.0598,0,0,1.0824,-5.9576,-88.1)"
       d="m 44.438,999.42 c -12.522,6.7146 -8.1866,23.856 -9.5,35.75"
       fill="none"
       filter="url(#bc)"
       stroke="url(#ab)"
       stroke-linecap="round"
       stroke-width="0.5"
       id="path237"
       style="stroke:url(#ab)" />
    <path
       transform="matrix(1.0598,0,0,1.0824,-5.9576,947.02)"
       d="m 11.125,35.25 c 10.946,10.846 22.105,8.5864 33.375,7.125 -4.6021,3.5066 -8.9959,7.1079 -10,12.25 -1.3591,-2.2798 -1.7397,-3.6503 -3.75,-3 -3.3214,6.6511 -3.1712,1.0132 -5,0.5 -1.7341,-2.9387 -4.0603,-3.1336 -7.125,-0.75 -0.57208,10.775 -2.883,-8.309 -7.5,-16.125 z"
       fill="url(#o)"
       filter="url(#az)"
       opacity="0.5844"
       id="path239"
       style="fill:url(#o)" />
    <g
       transform="matrix(1.0262,0.04886,-0.04755,0.99887,44.754,-1.6284)"
       fill="none"
       stroke-linecap="round"
       stroke-width="1.3517"
       id="g249">
      <path
         d="m 73.286,1016.6 -7.6248,10.469"
         stroke="url(#y)"
         id="path241"
         style="stroke:url(#y)" />
      <path
         d="m 73.856,1016.9 -7.6248,10.469"
         stroke="url(#w)"
         id="path243"
         style="stroke:url(#w)" />
      <path
         d="m 74.663,1017.8 -7.6248,10.469"
         stroke="url(#v)"
         id="path245"
         style="stroke:url(#v)" />
      <path
         d="m 75.912,1018.1 -7.6248,10.469"
         stroke="url(#u)"
         id="path247"
         style="stroke:url(#u)" />
    </g>
    <path
       d="m 70.951,1017.9 -3.4026,11.732"
       fill="none"
       stroke="url(#ah)"
       stroke-linecap="round"
       stroke-width="1.3701"
       id="path251"
       style="stroke:url(#ah)" />
    <path
       d="m 71.979,1018.7 -3.4026,11.732"
       fill="none"
       stroke="url(#ai)"
       stroke-linecap="round"
       stroke-width="1.3701"
       id="path253"
       style="stroke:url(#ai)" />
    <path
       d="m 72.91,1018.4 -3.4026,11.732"
       fill="none"
       stroke="url(#ak)"
       stroke-linecap="round"
       stroke-width="1.3701"
       id="path255"
       style="stroke:url(#ak)" />
    <path
       d="m 73.976,1018.9 -3.4026,11.732"
       fill="none"
       stroke="url(#al)"
       stroke-linecap="round"
       stroke-width="1.3701"
       id="path257"
       style="stroke:url(#al)" />
    <path
       d="m 73.437,1018.6 -3.4026,11.732"
       fill="none"
       stroke="url(#am)"
       stroke-linecap="round"
       stroke-width="1.3701"
       id="path259"
       style="stroke:url(#am)" />
    <path
       d="m 74.917,1019.1 -3.4026,11.732"
       fill="none"
       stroke="url(#an)"
       stroke-linecap="round"
       stroke-width="1.3701"
       id="path261"
       style="stroke:url(#an)" />
    <path
       d="m 74.093,1019.7 1.6451,12.05"
       fill="none"
       stroke="url(#z)"
       stroke-linecap="round"
       stroke-width="1.3701"
       id="path263"
       style="stroke:url(#z)" />
    <path
       d="m 74.928,1019.6 1.6451,12.05"
       fill="none"
       stroke="url(#aa)"
       stroke-linecap="round"
       stroke-width="1.3701"
       id="path265"
       style="stroke:url(#aa)" />
    <path
       d="m 76.381,1019.6 1.6451,12.05"
       fill="none"
       stroke="url(#ac)"
       stroke-linecap="round"
       stroke-width="1.3701"
       id="path267"
       style="stroke:url(#ac)" />
    <path
       d="m 78.006,1019.9 1.6451,12.05"
       fill="none"
       stroke="url(#ae)"
       stroke-linecap="round"
       stroke-width="1.3701"
       id="path269"
       style="stroke:url(#ae)" />
    <path
       d="m 76.848,1020.3 1.6451,12.05"
       fill="none"
       stroke="url(#ag)"
       stroke-linecap="round"
       stroke-width="1.3701"
       id="path271"
       style="stroke:url(#ag)" />
    <path
       d="m 73.255,1019.1 -1.0591,12.034"
       fill="none"
       stroke="url(#ap)"
       stroke-linecap="round"
       stroke-width="1.2181"
       id="path273"
       style="stroke:url(#ap)" />
    <path
       d="m 74.351,1019.3 -0.95444,12.042"
       fill="none"
       stroke="url(#aq)"
       stroke-linecap="round"
       stroke-width="1.2181"
       id="path275"
       style="stroke:url(#aq)" />
    <path
       d="m 74.312,1019.4 0.52862,12.071"
       fill="none"
       stroke="url(#ar)"
       stroke-linecap="round"
       stroke-width="1.2181"
       id="path277"
       style="stroke:url(#ar)" />
    <path
       d="m 75.402,1019.4 0.52862,12.071"
       fill="none"
       stroke="url(#as)"
       stroke-linecap="round"
       stroke-width="1.2181"
       id="path279"
       style="stroke:url(#as)" />
    <path
       d="m 73.644,1019.9 0.52862,12.071"
       fill="none"
       stroke="url(#at)"
       stroke-linecap="round"
       stroke-width="1.2181"
       id="path281"
       style="stroke:url(#at)" />
    <path
       d="m 76.067,1019.8 0.52862,12.071"
       fill="none"
       stroke="url(#au)"
       stroke-linecap="round"
       stroke-width="1.2181"
       id="path283"
       style="stroke:url(#au)" />
    <path
       transform="matrix(1.1892,0.30644,-0.3221,1.1314,2.9361,915.09)"
       d="m 82.75,42.5 c 0,14.774 -1.567,26.75 -3.5,26.75 -1.933,0 -3.5,-11.976 -3.5,-26.75 0,-14.774 1.567,-26.75 3.5,-26.75 1.933,0 3.5,11.976 3.5,26.75 z"
       fill="url(#r)"
       id="path285"
       style="fill:url(#r)" />
    <path
       d="m 74.67,1005.8 c 1.8415,1.3035 3.8423,2.2547 6.4885,1.7793 -0.31727,4.0135 -0.65614,8.0529 -2.315,13.679 -3.733,-2.5708 -6.6746,-2.5564 -9.0878,-2.5565 1.1832,-3.8153 2.8673,-8.1652 4.9143,-12.902 z"
       fill="url(#aw)"
       id="path287"
       style="fill:url(#aw)" />
  </g>
</svg>
