<?xml version="1.0" encoding="UTF-8" standalone="no"?>
<!-- Created with Inkscape (http://www.inkscape.org/) -->

<svg
   id="svg2"
   sodipodi:docname="panda.svg"
   inkscape:version="1.2.2 (732a01da63, 2022-12-09)"
   viewBox="0 0 332.59843 472.44094"
   sodipodi:version="0.32"
   version="1.0"
   inkscape:label="Pozadí"
   width="88mm"
   height="125mm"
   xmlns:inkscape="http://www.inkscape.org/namespaces/inkscape"
   xmlns:sodipodi="http://sodipodi.sourceforge.net/DTD/sodipodi-0.dtd"
   xmlns="http://www.w3.org/2000/svg"
   xmlns:svg="http://www.w3.org/2000/svg"
   xmlns:rdf="http://www.w3.org/1999/02/22-rdf-syntax-ns#"
   xmlns:cc="http://creativecommons.org/ns#"
   xmlns:dc="http://purl.org/dc/elements/1.1/">
  <defs
     id="defs36" />
  <sodipodi:namedview
     id="base"
     bordercolor="#666666"
     inkscape:pageshadow="2"
     inkscape:window-y="-4"
     pagecolor="#ffffff"
     inkscape:window-height="712"
     inkscape:zoom="0.7"
     inkscape:window-x="-4"
     borderopacity="1.0"
     inkscape:current-layer="layer1"
     inkscape:cx="228.57143"
     inkscape:cy="257.85714"
     inkscape:window-width="1024"
     inkscape:pageopacity="0.0"
     inkscape:document-units="px"
     inkscape:showpageshadow="0"
     inkscape:pagecheckerboard="0"
     inkscape:deskcolor="#d1d1d1"
     showgrid="false" />
  <g
     id="layer1"
     inkscape:label="Vrstva 1"
     inkscape:groupmode="layer"
     transform="translate(-63.187,-111.19)">
    <g
       id="g4663"
       inkscape:export-ydpi="90"
       inkscape:export-xdpi="90"
       inkscape:export-filename="/media/KINGSTON/inkscape/9.c/Tomas Krauskopf/vyrobky inscapeu/zvirata/panda.png"
       transform="matrix(0.45411004,0,0,0.49166964,105.86308,92.077822)">
      <path
         id="path3758"
         style="fill:#060606;fill-rule:evenodd;stroke:#000000;stroke-width:1px"
         d="m 184.35,852.35 -37.37,3.54 -41.92,3.53 -44.451,3.03 -37.881,6.57 -24.243,2.52 -32.83,-5.05 -37.881,-5.05 -21.213,-16.66 1.01,-31.32 13.637,-35.35 25.254,-3.54 22.728,3.03 24.244,6.06 39.901,-7.57 35.86,-7.08 80.445,7.46 35.54,58.75 z" />
      <g
         id="g3735"
         transform="translate(-451.43,60)">
        <path
           id="path1932"
           style="fill:#cccccc;fill-rule:evenodd;stroke:#000000;stroke-width:1px"
           d="m 731.35,157.45 11.62,-9.59 12.62,-11.11 18.69,-10.11 22.73,-5.05 27.27,-1.01 3.54,10.61 7.07,12.12 9.09,6.57 10.1,6.06 11.62,5.55 16.67,5.56 12.12,1.52 -0.5,-10.11 5.05,-5.05 14.64,10.61 14.15,14.65 14.64,22.22 17.68,17.68 8.08,16.16 22.73,17.68 28.24,27.78 18.2,22.22 1,15.15 -22.2,-14.14 -22.21,-6.06 h -24.24 l -33.34,7.07 -34.85,20.2 -16.67,23.24 -16.16,20.71 -15.15,15.65 -17.17,16.17 -11.62,8.58 -33.34,1.52 -20.2,-3.03 -26.77,-10.11 -6.06,-2.52 -8.08,-13.64 -6.06,-8.58 -17.17,-11.62 -13.14,-27.27 -5.05,-33.34 3.03,-28.28 5.56,-40.41 4.55,-23.23 8.58,-25.26 z" />
        <path
           id="path1934"
           style="fill:#080808;fill-rule:evenodd;stroke:#000000;stroke-width:1px"
           d="m 730.85,156.7 -5.81,-6.82 -4.04,-9.35 -3.03,-7.32 -7.08,-1.52 -7.07,2.28 -6.56,10.1 -2.53,4.8 v 9.59 7.33 l 1.77,7.32 6.82,10.36 4.54,8.58 3.03,-9.34 z" />
        <path
           id="path1936"
           style="fill:#080808;fill-rule:evenodd;stroke:#000000;stroke-width:1px"
           d="m 824.54,120.08 1.76,-20.205 6.82,-14.647 7.07,-9.092 6.07,-4.545 16.41,-2.778 22.48,5.808 13.13,9.092 9.09,20.707 5.56,12.88 1.51,12.12 c 0,0 -2.78,10.86 -4.04,10.86 -1.26,0 -11.62,13.13 -11.62,13.13 l -4.54,3.79 v 10.86 l -12.12,-1.01 -16.17,-5.3 -11.36,-5.31 -8.59,-5.05 -11.36,-8.84 -7.33,-10.86 z" />
        <path
           id="path1938"
           style="fill:#282828;fill-rule:evenodd;stroke:#000000;stroke-width:1px"
           d="m 718.85,249.38 7.5,6.07 v 6.07 7.86 l -3.57,7.5 0.36,8.21 -1.07,10.71 -0.36,8.93 -0.71,8.57 -3.57,2.5 -7.15,-7.85 -2.85,-9.65 3.92,-16.42 1.79,-11.08 v -9.64 z" />
        <path
           id="path1940"
           style="fill:#080808;fill-rule:evenodd;stroke:#000000;stroke-width:1px"
           d="m 721,275.14 3.78,-4.3 -0.75,-7.07 -5.31,0.25 -3.03,5.31 3.03,6.82 z" />
        <path
           id="path1944"
           style="fill:#282828;fill-rule:evenodd;stroke:#000000;stroke-width:1px"
           d="m 823.02,236.5 5.56,1.77 0.25,9.59 -3.54,10.1 -5.8,7.58 -8.08,4.55 -6.82,-2.28 -12.13,-9.34 -10.85,-10.36 -6.82,-7.07 0.25,-11.61 5.56,-8.84 8.58,-5.31 6.06,0.76 7.58,5.05 5.81,7.33 z" />
        <path
           id="path1946"
           style="fill:#080808;fill-rule:evenodd;stroke:#000000;stroke-width:1px"
           d="m 765.64,293.66 -2.5,3.57 -7.5,-0.71 -11.79,2.14 -6.42,5 -6.08,2.14 -6.78,5 -0.72,7.5 3.93,7.5 7.15,2.86 11.78,1.07 4.64,1.43 2.15,-7.5 8.57,-6.07 7.86,-10 v -10 z" />
        <path
           id="path1948"
           style="fill:#1c1c1c;fill-rule:evenodd;stroke:#000000;stroke-width:1px"
           d="m 756.35,304.38 -7.5,3.92 -2.5,3.93 2.5,5.72 10.36,-7.86 2.86,-6.07 z" />
        <path
           id="path1952"
           sodipodi:nodetypes="cccccccccccccc"
           style="fill:#080808;fill-rule:evenodd;stroke:#000000;stroke-width:1px"
           d="m 756.71,346.16 3.57,11.43 6.43,9.64 7.86,6.07 16.07,4.65 18.57,-2.86 8.93,-13.21 0.36,-18.58 1.78,-15.35 v -12.86 l -18.57,15 -21.03,-0.64 -18.97,8.14 z" />
        <path
           id="path1950"
           style="fill:#282828;fill-rule:evenodd;stroke:#000000;stroke-width:1px"
           d="m 740.64,321.16 -8.21,-3.21 h -3.93 v 3.21 l 6.78,3.93 z" />
        <path
           id="path1942"
           style="fill:#080808;fill-rule:evenodd;stroke:#000000;stroke-width:1px"
           d="m 803.32,240.29 -8.08,-2.78 -5.55,2.02 -1.01,6.06 5.05,4.55 5.55,-2.03 z" />
        <path
           id="path2844"
           sodipodi:nodetypes="cccccccccccccccccccc"
           style="fill:none;stroke:#000000;stroke-width:1px"
           d="m 773.96,241.11 13.89,14.4 11.62,9.34 9.34,7.58 13.13,12.62 -0.25,18.19 -1.77,28.28 -1.51,30.81 -9.35,13.38 -12.12,1.77 -29.55,-1.51 -9.59,-11.62 -16.17,-5.56 -20.2,-45.71 1.77,-29.54 -0.25,-6.57 4.04,-7.58 -0.26,-14.14 -7.82,-6.06 -3.03,-4.29" />
        <path
           id="path1954"
           sodipodi:nodetypes="cccccccccccccccc"
           style="fill:#dd9797;fill-rule:evenodd;stroke:#000000;stroke-width:1px"
           d="m 801.71,330.45 -3.93,16.43 v 9.28 l 1.79,6.79 1.07,10 2.5,7.85 v 5.72 l -3.21,6.07 -7.5,2.86 -8.22,0.35 -12.14,-8.57 -5.36,-22.14 -1.78,-14.64 v -12.86 l 15.03,-8.29 z" />
        <path
           id="path2848"
           sodipodi:nodetypes="ccccccccccccccccccccc"
           style="fill:#78965f;fill-rule:evenodd;stroke:#000000;stroke-width:1px"
           d="m 735.36,378.79 15,-11.78 h 6.07 l 31.43,2.85 -1.79,-4.28 -19.64,-1.79 -10.36,-0.71 13.93,-8.57 19.64,-15.36 10.33,-8.15 -9.4,-0.65 -15.57,12.37 -16.43,11.79 -17.5,10.35 -12.14,9.65 -13.22,-11.08 -3.57,0.72 6.07,6.43 -6.07,21.43 9.29,6.07 z" />
        <path
           id="path2846"
           style="fill:#060606;fill-rule:evenodd;stroke:#000000;stroke-width:1px"
           d="m 1037.8,316.88 -21.1,-12.86 -22.49,-7.14 h -24.64 l -33.57,7.14 -35.36,20 -15,21.78 -16.79,21.43 -13.92,14.29 -18.22,18.21 -12.14,9.29 -33.57,1.43 -17.86,-3.57 -34.64,-11.79 -12.5,-20.36 -21.07,-3.21 h -12.15 l -11.78,3.57 -24.29,26.07 -10.36,13.57 -7.14,7.15 -2.14,17.5 2.5,10 5.36,5.71 9.28,0.71 16.07,15 7.15,16.43 12.14,15.72 12.5,9.64 16.43,10.36 13.93,15.71 37.85,38.22 25.36,23.92 20.71,6.08 24.29,1.42 70.71,-11.07 52.86,-13.57 38.59,-11.43 19.6,-0.71 8.6,-0.72 22.9,-10.71 34.6,-20 -3.6,-40 -4.3,-39.29 -7.5,-32.5 -6,-28.21 -2.9,-30 -13.6,-32.86 z" />
      </g>
      <path
         id="path3752"
         sodipodi:nodetypes="cccccccccccccccccccccccccccccc"
         style="fill:#060606;fill-rule:evenodd;stroke:#000000;stroke-width:1px"
         d="m 272.14,590.22 -17.85,24.64 -12.5,24.29 -30.72,45.71 -27.86,31.07 -10.35,16.79 0.35,9.29 -19.28,12.5 -23.93,15 -11.07,18.57 -16.43,12.5 -23.929,-9.29 -9.642,-30 -4.286,-26.07 6.786,-13.21 23.928,-27.5 13.213,-19.29 18.57,-23.21 8.57,-16.43 12.15,-14.65 2.85,-3.57 42.15,-42.14 -5,-12.5 26.78,-19.64 8.93,-2.86 2.14,7.86 13.22,16.07 18.21,11.07 10,8.57 z" />
      <path
         id="path3754"
         style="fill:#cccccc;fill-rule:evenodd;stroke:#000000;stroke-width:1px"
         d="m 273.04,589.86 -16.97,22.86 -15.18,28.57 -24.46,36.43 -5.54,8.21 -26.78,28.93 -11.07,17.86 0.17,10 -42.85,27.32 -7.86,12.5 -1.43,5.89 -1.43,7.33 4.11,6.42 2.14,7.86 18.22,19.64 20.53,6.61 16.68,5.46 3.54,-21.22 9.09,-21.21 14.14,-4.55 22.22,6.06 39.4,-9.09 22.73,-12.12 35.86,-24.24 25.76,-18.69 24.24,-8.59 25.26,-9.59 29.29,-9.6 h 44.95 l 29.8,8.59 16.67,19.19 3.03,26.26 -6.06,25.76 -4.55,27.28 -5.05,25.25 23.74,-8.59 31.82,-10.1 16.16,-15.65 14.65,-24.75 25.25,-36.37 11.62,-36.36 3.03,-61.12 -0.5,-25.76 v -22.73 l -22.95,14.16 -13.57,7.5 -20.89,9.29 -17.68,1.25 -11.07,0.17 -32.32,9.65 -32.14,8.57 -29.11,7.68 -21.07,3.21 -45.9,7.68 -25.35,-1.79 -20.36,-5.17 -18.93,-17.33 -20.89,-22.14 z" />
      <path
         id="path3756"
         style="fill:#060606;fill-rule:evenodd;stroke:#000000;stroke-width:1px"
         d="m 230.31,800.33 -21.97,-6.06 -13.63,4.8 -9.09,20.96 -4.05,20.96 0.26,6.31 8.58,14.4 11.12,16.66 27.77,7.33 h 53.54 l 36.37,-4.55 56.57,-11.62 53.03,-3.53 58.08,-1.01 25.26,-23.74 7.07,-39.9 8.84,-38.39 -4.04,-27.02 -16.67,-18.69 -29.55,-9.09 -45.45,0.51 -78.8,27.52 -23.48,17.18 -36.87,25.76 -22.98,12.12 z" />
      <path
         id="path3760"
         sodipodi:nodetypes="ccccccc"
         style="fill:#dab6b6;fill-rule:evenodd;stroke:#000000;stroke-width:1px"
         d="m -64.902,783.41 -9.597,3.79 -1.515,9.59 5.051,1.77 6.566,-1.01 5.808,-5.55 z" />
      <path
         id="path4649"
         style="fill:#dab6b6;fill-rule:evenodd;stroke:#000000;stroke-width:1px"
         d="m -58.336,836.44 -9.597,5.92 -3.535,10.39 6.061,2.18 8.838,-1.96 4.546,-9.35 z" />
      <path
         id="path4651"
         sodipodi:nodetypes="ccccccc"
         style="fill:#dab6b6;fill-rule:evenodd;stroke:#000000;stroke-width:1px"
         d="m -76.014,823.56 -9.091,1.52 -3.536,9.59 6.061,3.54 7.324,-1.26 3.535,-7.07 z" />
      <path
         id="path4653"
         sodipodi:nodetypes="ccccccc"
         style="fill:#dab6b6;fill-rule:evenodd;stroke:#000000;stroke-width:1px"
         d="m -69.953,803.86 -9.597,1.01 -3.535,9.6 6.061,3.54 8.334,-1.77 2.272,-5.81 z" />
      <path
         id="path4655"
         style="fill:#dab6b6;fill-rule:evenodd;stroke:#000000;stroke-width:1.2054px"
         d="m 218.25,819.88 -3.94,3.96 -0.31,5.81 3.64,3.97 3.95,-3.67 1.82,-10.07 -2.12,-3.67 z" />
      <path
         id="path4657"
         style="fill:#dab6b6;fill-rule:evenodd;stroke:#000000;stroke-width:1px"
         d="m 188.65,822.3 -3.29,3.28 -0.25,4.8 3.03,3.28 3.28,-3.03 1.52,-8.33 -1.77,-3.03 z" />
      <path
         id="path4659"
         style="fill:#dab6b6;fill-rule:evenodd;stroke:#000000;stroke-width:1.2301px"
         d="m 199.33,807.8 -4.38,3.71 -0.34,5.44 4.05,3.72 4.38,-3.43 2.03,-9.44 -2.36,-3.44 z" />
      <path
         id="path4661"
         style="fill:#dab6b6;fill-rule:evenodd;stroke:#000000;stroke-width:1.1733px"
         d="m 209.76,811.08 -3.81,3.9 -0.3,5.69 3.52,3.9 3.81,-3.6 1.76,-9.89 -2.05,-3.59 z" />
    </g>
  </g>
  <metadata
     id="metadata33">
    <rdf:RDF>
      <cc:Work>
        <dc:format>image/svg+xml</dc:format>
        <dc:type
           rdf:resource="http://purl.org/dc/dcmitype/StillImage" />
        <cc:license
           rdf:resource="http://creativecommons.org/publicdomain/zero/1.0/" />
        <dc:publisher>
          <cc:Agent
             rdf:about="http://openclipart.org/">
            <dc:title>Openclipart</dc:title>
          </cc:Agent>
        </dc:publisher>
        <dc:title>panda</dc:title>
        <dc:date>2007-01-01T04:42:18</dc:date>
        <dc:description>Panda bear eating a twig.</dc:description>
        <dc:source>https://openclipart.org/detail/2700/panda-by-machovka</dc:source>
        <dc:creator>
          <cc:Agent>
            <dc:title>Machovka</dc:title>
          </cc:Agent>
        </dc:creator>
        <dc:subject>
          <rdf:Bag>
            <rdf:li>animal</rdf:li>
            <rdf:li>asia</rdf:li>
            <rdf:li>bear</rdf:li>
            <rdf:li>endangered species</rdf:li>
            <rdf:li>mammal</rdf:li>
            <rdf:li>nature</rdf:li>
            <rdf:li>panda</rdf:li>
          </rdf:Bag>
        </dc:subject>
      </cc:Work>
      <cc:License
         rdf:about="http://creativecommons.org/publicdomain/zero/1.0/">
        <cc:permits
           rdf:resource="http://creativecommons.org/ns#Reproduction" />
        <cc:permits
           rdf:resource="http://creativecommons.org/ns#Distribution" />
        <cc:permits
           rdf:resource="http://creativecommons.org/ns#DerivativeWorks" />
      </cc:License>
    </rdf:RDF>
  </metadata>
</svg>
