<?xml version="1.0" encoding="UTF-8" standalone="no"?>
<svg
   xmlns:dc="http://purl.org/dc/elements/1.1/"
   xmlns:cc="http://creativecommons.org/ns#"
   xmlns:rdf="http://www.w3.org/1999/02/22-rdf-syntax-ns#"
   xmlns:svg="http://www.w3.org/2000/svg"
   xmlns="http://www.w3.org/2000/svg"
   xmlns:sodipodi="http://sodipodi.sourceforge.net/DTD/sodipodi-0.dtd"
   xmlns:inkscape="http://www.inkscape.org/namespaces/inkscape"
   viewBox="0 0 460.37916 282.09065"
   version="1.1"
   id="svg41"
   sodipodi:docname="paper_clip.svg"
   width="121.80865mm"
   height="74.636482mm"
   inkscape:version="1.0.2-2 (e86c870879, 2021-01-15)">
  <metadata
     id="metadata45">
    <rdf:RDF>
      <cc:Work
         rdf:about="">
        <dc:format>image/svg+xml</dc:format>
        <dc:type
           rdf:resource="http://purl.org/dc/dcmitype/StillImage" />
        <dc:title />
      </cc:Work>
    </rdf:RDF>
  </metadata>
  <sodipodi:namedview
     pagecolor="#ffffff"
     bordercolor="#666666"
     borderopacity="1"
     objecttolerance="10"
     gridtolerance="10"
     guidetolerance="10"
     inkscape:pageopacity="0"
     inkscape:pageshadow="2"
     inkscape:window-width="1920"
     inkscape:window-height="1017"
     id="namedview43"
     showgrid="false"
     units="mm"
     inkscape:zoom="1.2187965"
     inkscape:cx="125.78765"
     inkscape:cy="161.78905"
     inkscape:window-x="-8"
     inkscape:window-y="-8"
     inkscape:window-maximized="1"
     inkscape:current-layer="svg41"
     inkscape:document-rotation="0" />
  <defs
     id="defs19">
    <filter
       id="e">
      <feGaussianBlur
         stdDeviation=".9661"
         id="feGaussianBlur2" />
    </filter>
    <filter
       id="d">
      <feGaussianBlur
         stdDeviation=".49166"
         id="feGaussianBlur5" />
    </filter>
    <filter
       id="c">
      <feGaussianBlur
         stdDeviation="1.44914"
         id="feGaussianBlur8" />
    </filter>
    <filter
       id="b">
      <feGaussianBlur
         stdDeviation="1.51153"
         id="feGaussianBlur11" />
    </filter>
    <linearGradient
       id="a"
       x1="-20.357"
       x2="88.142998"
       y1="553.58002"
       y2="823.08002"
       gradientUnits="userSpaceOnUse"
       gradientTransform="translate(0.85714,-576.51)">
      <stop
         stop-color="#207a87"
         offset="0"
         id="stop14" />
      <stop
         stop-color="#72cccf"
         offset="1"
         id="stop16" />
    </linearGradient>
  </defs>
  <path
     d="m 59.73214,21.52 c -5.7268,-0.2975 -11.627,1.1813 -16.344,4.7812 -4.717,3.5999 -8.1254,9.3553 -8.9062,16.969 l -0.0312,0.15625 v 159.59 l 0.0312,0.15625 c 2.0915,18.443 15.14,28.406 28.312,28.406 13.172,0 26.281,-9.9671 28.562,-28.406 l 0.0312,-0.15625 v -0.1875 l -1.0625,-103.59 -5.5,0.0625 1.0625,103.38 c -2.0568,16.087 -12.642,23.406 -23.094,23.406 -10.488,0 -21.007,-7.3316 -22.844,-23.531 v -158.72 c 0.6477,-6.3151 3.2504,-10.462 6.7812,-13.156 3.5308,-2.694 8.1331,-3.8945 12.719,-3.6562 4.5859,0.2383 9.0864,1.95 12.375,4.7812 3.2747,2.8192 5.4054,6.6589 5.5,11.75 4e-4,0.0217 -3.3e-4,0.0407 0,0.0625 l -0.375,114.53 c -3.2012,11.056 -9.5063,15.119 -15.25,14.906 -5.7696,-0.21369 -11.726,-4.9096 -13.875,-14.219 l -0.7187,-63.156 -5.5,0.0625 0.71875,63.562 v 0.3125 l 0.0625,0.28125 c 2.5295,11.285 10.436,18.336 19.094,18.656 8.658,0.32 17.256,-6.2974 20.875,-19.25 l 0.0937,-0.34375 v -0.375 l 0.375,-115 v -0.0624 c -0.10094,-6.6623 -3.0721,-12.175 -7.4062,-15.906 -4.3341,-3.731 -9.9607,-5.7962 -15.688,-6.0938 z"
     filter="url(#b)"
     opacity="0.32"
     id="path23"
     transform="matrix(-0.66443309,1.646005,-1.646005,-0.66443309,480.26528,122.60964)" />
  <path
     d="m 412.43387,198.08328 c 4.29475,-9.22866 5.78091,-19.92299 2.98961,-30.0791 -2.79134,-10.1561 -10.00009,-19.59042 -22.0135,-25.93441 l -0.23642,-0.15532 -262.68594,-106.036866 -0.27795,-0.05238 C 98.462743,27.013683 73.393739,41.871835 64.641828,63.553005 55.889914,85.234187 63.585758,113.43414 92.420706,129.44011 l 0.236415,0.15531 0.308625,0.12461 171.215614,67.07975 3.5515,-9.09455 L 96.862913,120.76501 C 71.750235,106.69074 66.736281,84.404457 73.680935,67.200421 80.649509,49.937113 99.706533,37.494145 127.59139,45.233851 L 388.84531,150.69264 c 9.96434,5.26209 15.06082,12.30147 17.14919,19.9032 2.08835,7.60169 1.00645,15.97475 -2.43281,23.36481 -3.43927,7.39009 -9.247,13.66063 -16.09224,17.19254 -6.81623,3.51701 -14.55211,4.47293 -22.99492,1.24594 -0.036,-0.0142 -0.0669,-0.0272 -0.10296,-0.0415 L 176.10384,135.64282 c -16.07124,-12.61517 -18.56964,-25.69298 -14.40274,-35.0056 4.18525,-9.354823 15.87237,-16.038973 32.62356,-13.390753 l 104.43266,40.779863 3.5515,-9.09456 -105.10093,-41.049623 -0.51439,-0.20763 -0.50447,-0.0839 c -20.25586,-3.33456 -37.11518,4.99467 -43.39456,19.03317 -6.27939,14.038483 -1.09991,32.587653 17.81555,47.150683 l 0.50353,0.3827 0.61726,0.24916 189.0414,77.02707 0.10278,0.0413 c 11.03323,4.2605 22.08131,3.03277 31.10227,-1.62218 9.02097,-4.65496 16.15878,-12.54417 20.45405,-21.7736 z"
     fill="#babdb6"
     id="path25"
     style="stroke-width:1.77505" />
  <path
     d="m 39.42714,93.28 0.71429,63.571 c 4.6428,20.714 27.857,23.571 34.643,-0.71428 l 0.35714,-115 c -0.35714,-23.571 -40,-27.857 -42.857,0 v 159.29 c 3.9286,34.643 47.143,34.643 51.429,0 l -1.0714,-103.57"
     fill="none"
     filter="url(#e)"
     stroke="#000000"
     id="path27"
     transform="matrix(-0.66443309,1.646005,-1.646005,-0.66443309,480.26528,122.60964)" />
  <path
     d="m 52.31514,23.14 c -4.0012,0.10689 -7.9105,1.2984 -11,3.6562 -3.5308,2.6947 -6.1336,6.8412 -6.7812,13.156 v 2 c 0.6477,-6.3151 3.2504,-10.462 6.7812,-13.156 3.5308,-2.694 8.1331,-3.8945 12.719,-3.6562 4.5859,0.2383 9.0864,1.95 12.375,4.7812 1.2168,1.0476 2.2698,2.2525 3.125,3.5938 -0.94131,-2.5569 -2.5188,-4.6738 -4.5312,-6.4062 -0.65606,-0.56481 -1.3814,-1.0584 -2.125,-1.5312 -2.6813,-1.4081 -5.732,-2.2758 -8.8438,-2.4375 -0.57321,-0.0298 -1.1472,-0.0153 -1.7188,0 z m 22.125,7.9062 c 0.94266,2.3298 1.5086,4.9095 1.5625,7.6875 v -1.9062 c -0.0177,-1.1661 -0.15598,-2.2825 -0.34375,-3.375 -0.004,-0.009 0.004,-0.0225 0,-0.0312 -0.35808,-0.82298 -0.76811,-1.6166 -1.2188,-2.375 z m -34.125,62.75 0.6875,60.344 c 0.63164,2.7358 1.5934,5.0577 2.7812,7 -0.53831,-1.2772 -1.0232,-2.6637 -1.375,-4.1875 v -0.53125 c -0.5553,-1.2968 -1.0462,-2.7218 -1.4062,-4.2812 l -0.65625,-58.344 h -0.0312 z m 43.219,3.5938 1,99.031 0.0312,-0.0937 v -0.1875 l -1,-98.75 h -0.0312 z m -6.5,57.688 -0.0937,0.34375 c -3.6191,12.953 -12.217,19.571 -20.875,19.25 -3.1641,-0.11719 -6.2357,-1.1131 -8.9688,-2.9062 l -0.0625,-0.0312 c -3.3123,-1.8078 -6.2109,-4.7121 -8.375,-8.5 3.4874,8.2058 10.174,13.17 17.406,13.438 8.6576,0.32065 17.256,-6.2974 20.875,-19.25 l 0.0937,-0.34375 v -2 z m -43.906,40.781 v 2 c 0.56193,4.9552 1.9378,9.0665 3.875,12.406 -0.76082,-1.7653 -1.3817,-3.7221 -1.8438,-5.8438 -0.96985,-2.5108 -1.6693,-5.3707 -2.0312,-8.5625 z m 52.812,3.4375 c -2.2811,18.439 -15.39,28.406 -28.562,28.406 -4.9698,0 -9.93,-1.4008 -14.281,-4.1562 -4.4223,-2.4478 -8.3161,-6.2193 -11.125,-11.219 4.9987,11.354 15.162,17.375 25.406,17.375 13.172,0 26.281,-9.9671 28.562,-28.406 l 0.0312,-0.15625 v -0.1875 l -0.0312,-1.6562 z"
     fill="#555753"
     filter="url(#d)"
     id="path29"
     transform="matrix(-0.66443309,1.646005,-1.646005,-0.66443309,480.26528,122.60964)" />
  <path
     d="m 412.21658,195.06491 c 3.12345,-8.36822 3.99908,-17.6427 1.55711,-26.5303 -2.79139,-10.15595 -10.00008,-19.59043 -22.0135,-25.93442 l -0.23643,-0.15514 -262.68596,-106.036868 -0.27792,-0.05247 c -15.58754,-4.326426 -29.591327,-2.965003 -40.817845,2.127153 10.808128,-4.268141 23.977415,-5.17834 38.507405,-1.14558 l 0.27792,0.05247 262.68594,106.036875 0.23647,0.15514 c 12.01303,6.34398 19.22191,15.77841 22.01348,25.93441 2.79155,10.156 1.30544,20.85015 -2.98963,30.07908 -4.29503,9.22895 -11.43198,17.1174 -20.45403,21.77362 -0.38371,0.19797 -0.80587,0.40823 -1.19675,0.59366 1.18703,-0.47074 2.3795,-0.99331 3.50719,-1.57525 9.02145,-4.65475 16.15878,-12.54417 20.45405,-21.77358 0.53687,-1.15359 0.98645,-2.35368 1.43264,-3.54914 z m -29.80536,18.1175 c -5.96014,2.22037 -12.50081,2.45892 -19.58032,-0.24702 -0.036,-0.0142 -0.0669,-0.0272 -0.10295,-0.0415 L 174.46023,136.1791 c -16.07124,-12.61517 -18.56965,-25.69298 -14.40274,-35.00562 2.02372,-4.523383 5.78969,-8.393423 11.04585,-10.914613 -6.47022,2.41608 -11.04637,6.73337 -13.35629,11.896193 -4.16646,9.3128 -1.66781,22.39109 14.40274,35.00559 l 188.26781,76.71479 c 0.036,0.0142 0.0669,0.0272 0.10277,0.0415 8.00069,3.05809 15.34119,2.33994 21.89074,-0.73455 z m -81.74913,-93.71612 -105.10095,-41.049613 -0.51437,-0.20763 -0.50449,-0.0839 c -10.37144,-1.70749 -19.88749,-0.35858 -27.51376,3.25027 7.19714,-2.84736 15.84967,-3.80882 25.20334,-2.2687 l 0.50447,0.0839 0.51437,0.20763 105.10095,41.049633 z M 266.08205,188.23795 95.212093,121.29774 C 70.099417,107.2235 65.085464,84.937227 72.030116,67.733188 75.514471,59.101365 82.008894,51.688818 91.129703,47.388294 80.799045,51.473221 73.489806,59.37499 69.719681,68.71475 c -6.944652,17.204037 -1.930238,39.49013 23.181975,53.56457 l 170.869954,66.94021 z"
     fill="#ffffff"
     id="path31"
     style="stroke-width:1.77505" />
  <path
     d="m 39.36614,93.28 0.71429,63.571 c 4.6428,20.714 27.857,23.571 34.643,-0.71428 l 0.35715,-115 c -0.35715,-23.571 -40,-27.857 -42.857,0 v 159.29 c 3.9286,34.643 47.143,34.643 51.429,0 l -1.0714,-103.57"
     fill="none"
     filter="url(#c)"
     stroke="#000000"
     id="path33"
     transform="matrix(-0.66443309,1.646005,-1.646005,-0.66443309,480.26528,122.60964)" />
  <path
     d="m 297.70533,127.54847 c -1.72277,-0.69543 -2.31324,-3.25633 -1.31877,-5.71996 0.99447,-2.46361 3.19725,-3.89698 4.92007,-3.20155 1.72282,0.69543 2.31326,3.25635 1.31877,5.71996 -0.99447,2.46361 -3.19726,3.89698 -4.92007,3.20155 z"
     fill="#eaeaea"
     fill-rule="evenodd"
     id="path35"
     style="stroke-width:2.21943" />
  <path
     d="m 263.51974,196.62099 c -1.72279,-0.69543 -2.31326,-3.25634 -1.31879,-5.71995 0.99447,-2.46361 3.19726,-3.897 4.92009,-3.20156 1.72281,0.69545 2.31324,3.25633 1.31877,5.71996 -0.99447,2.46361 -3.19727,3.89698 -4.92007,3.20155 z"
     fill="#efefef"
     fill-rule="evenodd"
     id="path37"
     style="stroke-width:2.21943" />
</svg>
