<?xml version="1.0" encoding="UTF-8" standalone="no"?>
<svg
   xmlns:dc="http://purl.org/dc/elements/1.1/"
   xmlns:cc="http://creativecommons.org/ns#"
   xmlns:rdf="http://www.w3.org/1999/02/22-rdf-syntax-ns#"
   xmlns:svg="http://www.w3.org/2000/svg"
   xmlns="http://www.w3.org/2000/svg"
   xmlns:sodipodi="http://sodipodi.sourceforge.net/DTD/sodipodi-0.dtd"
   xmlns:inkscape="http://www.inkscape.org/namespaces/inkscape"
   version="1.1"
   viewBox="0 0 329.6278 426.8377"
   id="svg57"
   sodipodi:docname="paper.svg"
   width="87.21402mm"
   height="112.93414mm"
   inkscape:version="1.0.2-2 (e86c870879, 2021-01-15)">
  <metadata
     id="metadata61">
    <rdf:RDF>
      <cc:Work
         rdf:about="">
        <dc:format>image/svg+xml</dc:format>
        <dc:type
           rdf:resource="http://purl.org/dc/dcmitype/StillImage" />
        <dc:title />
      </cc:Work>
    </rdf:RDF>
  </metadata>
  <sodipodi:namedview
     pagecolor="#ffffff"
     bordercolor="#666666"
     borderopacity="1"
     objecttolerance="10"
     gridtolerance="10"
     guidetolerance="10"
     inkscape:pageopacity="0"
     inkscape:pageshadow="2"
     inkscape:window-width="1920"
     inkscape:window-height="1017"
     id="namedview59"
     showgrid="false"
     units="mm"
     inkscape:zoom="0.42929293"
     inkscape:cx="95.785737"
     inkscape:cy="559.13555"
     inkscape:window-x="-8"
     inkscape:window-y="-8"
     inkscape:window-maximized="1"
     inkscape:current-layer="svg57"
     inkscape:document-rotation="0" />
  <defs
     id="defs5">
    <filter
       id="a"
       color-interpolation-filters="sRGB">
      <feGaussianBlur
         stdDeviation="2.6717241"
         id="feGaussianBlur2" />
    </filter>
  </defs>
  <g
     transform="matrix(0.36687008,0,0,0.36687008,26.409559,3.9774002)"
     id="g55">
    <path
       transform="matrix(4.4253,0,0,4.4253,998.89,-1567.4)"
       d="m -225.07,373.65 v 10.996 197.1 10.996 h 11.231 125.89 20.867 c 6.2199,0 11.207,-4.9062 11.207,-10.996 v -197.1 c 0,-6.0903 -4.9876,-10.996 -11.207,-10.996 h -20.867 -125.89 z"
       fill="#b3b3b3"
       filter="url(#a)"
       opacity="0.59346"
       stroke="#979797"
       stroke-width="0.80228"
       id="path7" />
    <path
       d="m 11.084,72.444 v 48.663 872.23 48.663 h 49.699 557.12 92.342 c 27.525,0 49.597,-21.711 49.597,-48.663 v -872.23 c 0,-26.952 -22.072,-48.663 -49.597,-48.663 H 617.903 60.783 Z"
       fill="#ffffff"
       stroke="#979797"
       stroke-width="3.5504"
       id="path9" />
    <path
       d="m 10.143,182.56 h 750.64"
       color="#000000"
       fill="#0000ff"
       stroke="#0011ff"
       stroke-width="1.6689px"
       id="path11" />
    <path
       d="m 10.143,229.33 h 750.64"
       fill="#0000ff"
       stroke="#0011ff"
       stroke-width="1.6689px"
       id="path13" />
    <path
       d="m 10.143,277.12 h 750.64"
       fill="#0000ff"
       stroke="#0011ff"
       stroke-width="1.6689px"
       id="path15" />
    <path
       d="m 10.143,324.91 h 750.64"
       fill="#0000ff"
       stroke="#0011ff"
       stroke-width="1.6689px"
       id="path17" />
    <path
       d="m 10.143,372.7 h 750.64"
       fill="#0000ff"
       stroke="#0011ff"
       stroke-width="1.6689px"
       id="path19" />
    <path
       d="m 10.143,420.49 h 750.64"
       fill="#0000ff"
       stroke="#0011ff"
       stroke-width="1.6689px"
       id="path21" />
    <path
       d="m 10.143,468.28 h 750.64"
       fill="#0000ff"
       stroke="#0011ff"
       stroke-width="1.6689px"
       id="path23" />
    <path
       d="m 10.143,516.07 h 750.64"
       fill="#0000ff"
       stroke="#0011ff"
       stroke-width="1.6689px"
       id="path25" />
    <path
       d="m 10.143,563.86 h 750.64"
       fill="#0000ff"
       stroke="#0011ff"
       stroke-width="1.6689px"
       id="path27" />
    <path
       d="m 10.143,611.65 h 750.64"
       fill="#0000ff"
       stroke="#0011ff"
       stroke-width="1.6689px"
       id="path29" />
    <path
       d="m 10.143,659.45 h 750.64"
       fill="#0000ff"
       stroke="#0011ff"
       stroke-width="1.6689px"
       id="path31" />
    <path
       d="m 10.143,707.24 h 750.64"
       fill="#0000ff"
       stroke="#0011ff"
       stroke-width="1.6689px"
       id="path33" />
    <path
       d="m 10.143,755.03 h 750.64"
       fill="#0000ff"
       stroke="#0011ff"
       stroke-width="1.6689px"
       id="path35" />
    <path
       d="m 10.143,802.82 h 750.64"
       fill="#0000ff"
       stroke="#0011ff"
       stroke-width="1.6689px"
       id="path37" />
    <path
       d="m 10.143,850.61 h 750.64"
       fill="#0000ff"
       stroke="#0011ff"
       stroke-width="1.6689px"
       id="path39" />
    <path
       d="m 10.143,898.4 h 750.64"
       fill="#0000ff"
       stroke="#0011ff"
       stroke-width="1.6689px"
       id="path41" />
    <path
       d="m 10.143,946.19 h 750.64"
       fill="#0000ff"
       stroke="#0011ff"
       stroke-width="1.6689px"
       id="path43" />
    <path
       d="m 10.143,993.98 h 750.64"
       fill="#0000ff"
       stroke="#0011ff"
       stroke-width="1.6689px"
       id="path45" />
    <path
       transform="matrix(-0.60548,0,0,-0.46126,65.669,808.19)"
       d="m 40.439,471.52 a 21.445,28.184 0 1 1 -42.889,0 21.445,28.184 0 1 1 42.889,0 z"
       color="#000000"
       fill="#acacac"
       fill-opacity="0.32549"
       stroke="#030000"
       stroke-width="0.80228"
       id="path47" />
    <path
       d="m 106.09,71.503 v 968.48"
       color="#000000"
       fill="#0000ff"
       stroke="#ff0000"
       stroke-width="1.6894px"
       id="path49" />
    <path
       transform="matrix(-0.60548,0,0,-0.46126,65.669,466.26)"
       d="m 40.439,471.52 a 21.445,28.184 0 1 1 -42.889,0 21.445,28.184 0 1 1 42.889,0 z"
       color="#000000"
       fill="#acacac"
       fill-opacity="0.32549"
       stroke="#030000"
       stroke-width="0.80228"
       id="path51" />
    <path
       transform="matrix(-0.60548,0,0,-0.46126,65.669,1189.4)"
       d="m 40.439,471.52 a 21.445,28.184 0 1 1 -42.889,0 21.445,28.184 0 1 1 42.889,0 z"
       color="#000000"
       fill="#e4e4e4"
       stroke="#030000"
       stroke-width="0.80228"
       id="path53" />
  </g>
</svg>
