<?xml version="1.0" encoding="UTF-8" standalone="no"?>
<svg
   xmlns:dc="http://purl.org/dc/elements/1.1/"
   xmlns:cc="http://creativecommons.org/ns#"
   xmlns:rdf="http://www.w3.org/1999/02/22-rdf-syntax-ns#"
   xmlns:svg="http://www.w3.org/2000/svg"
   xmlns="http://www.w3.org/2000/svg"
   xmlns:xlink="http://www.w3.org/1999/xlink"
   xmlns:sodipodi="http://sodipodi.sourceforge.net/DTD/sodipodi-0.dtd"
   xmlns:inkscape="http://www.inkscape.org/namespaces/inkscape"
   enable-background="new 0 0 266.398 251.79"
   viewBox="0 0 472.44093 332.59843"
   version="1.1"
   id="svg157"
   sodipodi:docname="peach.svg"
   width="125mm"
   height="88mm"
   inkscape:version="1.0.2-2 (e86c870879, 2021-01-15)">
  <metadata
     id="metadata161">
    <rdf:RDF>
      <cc:Work
         rdf:about="">
        <dc:format>image/svg+xml</dc:format>
        <dc:type
           rdf:resource="http://purl.org/dc/dcmitype/StillImage" />
        <dc:title></dc:title>
      </cc:Work>
    </rdf:RDF>
  </metadata>
  <sodipodi:namedview
     pagecolor="#ffffff"
     bordercolor="#666666"
     borderopacity="1"
     objecttolerance="10"
     gridtolerance="10"
     guidetolerance="10"
     inkscape:pageopacity="0"
     inkscape:pageshadow="2"
     inkscape:window-width="1920"
     inkscape:window-height="1017"
     id="namedview159"
     showgrid="false"
     units="mm"
     inkscape:zoom="1.6879146"
     inkscape:cx="264.27445"
     inkscape:cy="180.51932"
     inkscape:window-x="-8"
     inkscape:window-y="-8"
     inkscape:window-maximized="1"
     inkscape:current-layer="svg157" />
  <defs
     id="defs67">
    <filter
       id="o">
      <feGaussianBlur
         stdDeviation="1.3715"
         id="feGaussianBlur2" />
    </filter>
    <filter
       id="c">
      <feGaussianBlur
         stdDeviation=".34418"
         id="feGaussianBlur5" />
    </filter>
    <filter
       id="n">
      <feGaussianBlur
         stdDeviation="2.22207"
         id="feGaussianBlur8" />
    </filter>
    <linearGradient
       id="b">
      <stop
         stop-color="#ebae31"
         offset="0"
         id="stop11" />
      <stop
         stop-color="#c13c37"
         offset="1"
         id="stop13" />
    </linearGradient>
    <linearGradient
       id="a"
       x1="39.311001"
       x2="3.9925001"
       y1="327.17001"
       y2="337.29999"
       gradientUnits="userSpaceOnUse">
      <stop
         stop-color="#c54736"
         offset="0"
         id="stop16" />
      <stop
         stop-color="#d67534"
         offset="1"
         id="stop18" />
    </linearGradient>
    <linearGradient
       id="k"
       x1="88.922997"
       x2="128.17"
       y1="100.45"
       y2="189.48"
       gradientTransform="matrix(0.49104,-0.63212,0.63212,0.49104,46.024,157.81)"
       gradientUnits="userSpaceOnUse">
      <stop
         stop-color="#d18434"
         offset="0"
         id="stop21" />
      <stop
         stop-color="#803300"
         offset="1"
         id="stop23" />
    </linearGradient>
    <linearGradient
       id="j"
       x1="708.07001"
       x2="622.53003"
       y1="486.64001"
       y2="251.81"
       gradientUnits="userSpaceOnUse"
       gradientTransform="matrix(1.1194291,0,0,1.3211303,-583.82259,-373.05146)">
      <stop
         offset="0"
         id="stop26" />
      <stop
         stop-color="#3f3f3f"
         stop-opacity="0"
         offset=".33714"
         id="stop28" />
      <stop
         stop-color="#7f7f7f"
         stop-opacity="0"
         offset=".58133"
         id="stop30" />
      <stop
         stop-color="#fff"
         offset="1"
         id="stop32" />
    </linearGradient>
    <linearGradient
       id="m"
       x1="535.91998"
       x2="728.75"
       y1="333.57999"
       y2="413.23999"
       gradientUnits="userSpaceOnUse"
       xlink:href="#b"
       gradientTransform="matrix(1.1194291,0,0,1.3211303,-583.82259,-373.05146)" />
    <linearGradient
       id="l"
       x1="3.0836"
       x2="192.17999"
       y1="108.39"
       y2="143.14"
       gradientTransform="matrix(0.49104,-0.63212,0.63212,0.49104,46.024,157.81)"
       gradientUnits="userSpaceOnUse"
       xlink:href="#b" />
    <radialGradient
       id="i"
       cx="-45.226002"
       cy="-201.64999"
       r="62.078999"
       gradientTransform="matrix(1.0421272,-0.50421189,0.57241143,1.1830911,313.19951,341.04826)"
       gradientUnits="userSpaceOnUse">
      <stop
         stop-color="#ecb127"
         offset="0"
         id="stop37" />
      <stop
         stop-color="#ecb127"
         stop-opacity="0"
         offset="1"
         id="stop39" />
    </radialGradient>
    <radialGradient
       id="h"
       cx="128.92999"
       cy="139.5"
       r="36.034"
       gradientTransform="matrix(1.1541986,-0.73194915,1.251646,1.9736864,-87.74272,-28.972225)"
       gradientUnits="userSpaceOnUse">
      <stop
         stop-color="#bd3833"
         offset="0"
         id="stop42" />
      <stop
         stop-color="#bd3833"
         stop-opacity="0"
         offset="1"
         id="stop44" />
    </radialGradient>
    <radialGradient
       id="g"
       cx="102.5"
       cy="187.48"
       r="69.491997"
       gradientTransform="matrix(0.49104,-0.63212,0.62422,0.4849,47.17,158.7)"
       gradientUnits="userSpaceOnUse">
      <stop
         stop-color="#c22910"
         offset="0"
         id="stop47" />
      <stop
         stop-color="#ec4711"
         offset="1"
         id="stop49" />
    </radialGradient>
    <radialGradient
       id="f"
       cx="646.03998"
       cy="238.75999"
       r="87.377998"
       gradientTransform="matrix(0.49104,-0.63212,0.63835,0.49588,-282.64,455.42)"
       gradientUnits="userSpaceOnUse">
      <stop
         stop-color="#f5f89f"
         offset="0"
         id="stop52" />
      <stop
         stop-color="#fbda4e"
         offset="1"
         id="stop54" />
    </radialGradient>
    <radialGradient
       id="e"
       cx="88.223"
       cy="99.329002"
       r="10.905"
       gradientTransform="matrix(0.1218,-0.37796,0.18705,0.06028,121.36,176.35)"
       gradientUnits="userSpaceOnUse">
      <stop
         stop-color="#520"
         offset="0"
         id="stop57" />
      <stop
         stop-color="#d18434"
         offset="1"
         id="stop59" />
    </radialGradient>
    <radialGradient
       id="d"
       cx="96.255997"
       cy="190.3"
       r="57.790001"
       gradientTransform="matrix(-0.40024518,1.037043,-1.7156489,-0.66216421,586.21633,237.86059)"
       gradientUnits="userSpaceOnUse">
      <stop
         offset="0"
         id="stop62" />
      <stop
         stop-opacity="0"
         offset="1"
         id="stop64" />
    </radialGradient>
    <linearGradient
       inkscape:collect="always"
       xlink:href="#a"
       id="linearGradient986"
       gradientUnits="userSpaceOnUse"
       x1="39.311001"
       y1="327.17001"
       x2="3.9925001"
       y2="337.29999" />
    <linearGradient
       inkscape:collect="always"
       xlink:href="#a"
       id="linearGradient988"
       gradientUnits="userSpaceOnUse"
       x1="39.311001"
       y1="327.17001"
       x2="3.9925001"
       y2="337.29999" />
  </defs>
  <path
     d="m 135.38048,223.20929 c 0,0 23.56506,26.62379 39.17579,34.12027 36.27286,17.42027 118.79156,21.48354 118.79156,21.48354 l -39.17578,-79.61578 z"
     fill="url(#d)"
     id="path69"
     style="fill:url(#d);stroke-width:1.36672" />
  <path
     d="m 105.25431,21.728989 c -1.0508,-0.0028 -2.0875,0.03327 -3.1562,0.09375 -29.363005,1.6618 -57.671005,15.391 -65.719005,41.781 -3.1506,10.331 -10.75,21.416 -10.75,33.031 0,16.876001 7.708,31.452001 17.344,43.969001 13.955,18.127 34.142,30.844 59.125005,30.844 10,0 19.526,-1.8974 28.281,-5.3125 4.7344,8.9615 11.354,17.093 19.844,23.688 12.892,10.014 29.098,13.774 44.375,14.156 23.39,0.58589 45.953,-8.4814 61.625,-28.656 13.136,-18.401 14.201,-26.054 12.719,-45.562 -0.88725,-11.514 -0.48238,-21.304 -6.3438,-31.781001 -2.4555,-4.3897 -5.8429,-8.1059 -8.5938,-12.312 -1.4369,-2.1977 -2.7237,-4.0951 -4.6875,-5.6875 -2.1856,-1.7728 -4.7105,-3.1138 -6.9375,-4.8438 -9.5697,-7.4339 -19.456,-12.11 -31.125,-15.5 -10.585,-3.0749 -20.783,-2.9037 -31.5,-3.6562 -4.0452,1.047 -8.0184,2.4432 -11.875,4.1562 -5.466,-8.7095 -12.72,-16.316 -21.125,-22.531 -11.953,-8.8398 -25.737,-15.833 -41.5,-15.875 z m 127.88,197.280001 c 0.38034,1.2614 0.24703,2.7002 1.5938,3.3125 -0.33906,-1.1462 -0.84649,-2.3408 -1.5938,-3.3125 z"
     filter="url(#n)"
     opacity="0.5"
     id="path71"
     transform="matrix(1.3667242,0,0,1.3667242,33.542712,-0.61227234)" />
  <path
     d="m 281.16029,133.24529 c 0,56.46907 -46.79214,102.24624 -104.51326,102.24624 -34.14483,0 -61.73092,-17.38476 -80.803755,-42.15992 -13.168963,-17.10599 -23.709508,-37.02072 -23.709508,-60.08632 0,-15.8747 10.414497,-31.01882 14.720493,-45.137738 10.999621,-36.068177 49.66123,-54.836154 89.79277,-57.107176 23.37031,-1.322583 43.60623,8.689205 61.03239,21.576699 25.54537,18.890841 43.48087,47.100935 43.48087,80.669535 z"
     fill="url(#m)"
     id="path73"
     style="fill:url(#m);stroke-width:1.21611" />
  <path
     d="m 148.72331,213.24567 c -0.30631,-0.76546 -0.53367,-0.53809 -0.57972,0.57974 -0.0416,1.01151 0.18512,1.57825 0.50397,1.25939 0.31884,-0.31885 0.35293,-1.14646 0.0757,-1.83913 z"
     fill="#9f2d24"
     id="path75"
     style="stroke-width:1.36672" />
  <path
     d="m 113.5785,176.74067 c 5.29209,7.75712 12.88479,14.42851 21.4644,18.2444 4.94645,2.20016 12.1838,5.8858 16.09864,2.14644 5.97231,-5.70484 -4.97337,-16.92414 -2.14644,-24.6844 2.59746,-7.13047 12.35942,-9.49463 16.09864,-16.09864 3.63371,-6.41787 4.808,-14.11006 5.36618,-21.46441 0.87015,-11.46504 -7.75015,-23.77553 -3.21973,-34.34304 5.92202,-13.813484 24.03931,-18.08313 35.41729,-27.90441 6.70515,-5.787393 23.017,-10.197129 19.31865,-18.244401 -2.85454,-6.210121 -13.71098,0.699572 -20.39153,2.146441 -9.95084,2.15546 -22.28033,1.990223 -28.97728,9.659049 -16.66038,24.24842 -16.01118,33.901591 -14.48865,36.490171 -3.20647,-3.038914 -9.38666,-1.5459 -12.3422,-4.829596 -6.32876,-7.031249 -0.0704,-21.527272 -7.51261,-27.367284 -5.06795,-3.976621 -13.37354,-3.018274 -19.31865,-0.536617 -7.00706,2.9252 -15.78156,9.045117 -15.56152,16.635766 0.2993,10.370293 21.14459,11.184041 22.53728,21.464401 0.98034,7.23489 -9.63144,11.66663 -11.26891,18.78153 -1.36932,5.94976 2.96292,12.29149 1.60986,18.2444 -1.24413,5.47427 -8.01461,8.90393 -8.5859,14.48864 -0.61588,6.02124 2.49168,12.17177 5.90275,17.17152 z"
     fill="url(#i)"
     id="path77"
     style="fill:url(#i);stroke-width:1.36672" />
  <path
     d="m 148.28782,136.91433 c -3.19554,-1.54836 -6.12306,-7.65625 -6.12306,-12.77532 0,-5.98215 2.40489,-8.10303 9.2381,-8.14731 5.7222,-0.0372 6.59062,0.72525 8.00244,7.02523 0.87514,3.90501 0.75427,5.19506 -0.82025,8.75455 -2.54074,5.7438 -5.74954,7.34642 -10.29731,5.14285 z"
     fill="#9f2d24"
     id="path79"
     style="stroke-width:1.36672" />
  <path
     transform="matrix(0.67111623,-0.86393367,0.86393367,0.67111623,-161.86015,-73.286477)"
     d="m 23.838,346.8 5.8406,-2.1038 9.1753,-4.9602 13.184,-10.933 c 0,0 -13.001,-12.387 -17.023,-12.284 -0.79661,0.0205 -1.6318,0.0152 -2.4896,0.003 -0.8578,-0.0122 -1.2008,0.50737 -2.0879,0.50163 -0.8871,-0.006 -2.3182,-0.53633 -3.2026,-0.49777 -0.8844,0.0386 -1.7595,0.10882 -2.6092,0.22993 -1.0316,0.14701 -1.4884,0.54978 -2.4168,0.7518 -0.9284,0.20202 -2.3285,0.20329 -3.0966,0.46866 -0.69667,0.24068 -1.4506,0.57228 -2.2366,0.96832 -0.786,0.39604 -0.75956,1.3172 -1.5845,1.8156 -0.82494,0.4984 -2.5014,0.57412 -3.3149,1.1219 -0.8135,0.54778 -1.6854,1.5678 -2.4371,2.112 -0.7517,0.5442 -1.3829,0.61275 -2.0222,1.1004 -0.6393,0.48765 -0.20991,0.93376 -0.68654,1.3118 -0.47663,0.37804 -1.8593,0.68814 -2.1228,0.90368 -0.2635,0.21554 -1.8434,18.853 -1.8434,18.853 z"
     fill="url(#a)"
     filter="url(#c)"
     opacity="0.45"
     id="path81"
     style="fill:url(#linearGradient986)" />
  <path
     d="m 148.00491,135.23326 c -2.70092,-2.70092 -3.41216,-6.30798 -2.10435,-10.67302 2.08945,-6.97399 10.08848,-10.32027 12.42284,-5.19697 4.33744,9.51951 -3.93917,22.2489 -10.31849,15.8704 z"
     fill="#6e372e"
     id="path83"
     style="stroke-width:1.36672" />
  <path
     d="m 154.92463,118.76423 -0.74964,0.17991 c -3.33672,0.67953 -5.43164,3.77434 -6.11705,6.89676 -0.34272,1.56121 -0.34783,3.17709 0.17991,4.67775 0.52775,1.50066 1.68558,2.87504 3.35846,3.53831 l 0.59971,0.23989 0.59972,-0.26987 c 2.73646,-1.19399 4.19858,-4.05562 4.70782,-6.89677 0.50924,-2.84114 0.16267,-5.93336 -1.97902,-7.82627 l -0.59971,-0.53973 z m -1.10948,3.68825 c 0.53664,0.9782 0.90088,2.45764 0.59972,4.13803 -0.32566,1.81719 -1.29396,3.28943 -2.3688,4.07803 -0.36832,-0.30564 -0.65942,-0.68708 -0.83961,-1.19943 -0.28096,-0.79891 -0.33009,-1.87473 -0.09,-2.96852 0.38147,-1.73765 1.46732,-3.29804 2.69874,-4.0481 z"
     id="path85"
     style="stroke-width:1.36672" />
  <path
     d="m 154.91269,126.89909 a 2.6457565,4.7106839 0 1 1 -5.29151,0 2.6457565,4.7106839 0 1 1 5.29151,0 z"
     fill="#552200"
     id="path87"
     style="stroke-width:9.38573" />
  <path
     d="m 154.36018,118.98291 -0.74965,0.17992 c -3.33672,0.67953 -5.43164,3.77434 -6.11705,6.89676 -0.34272,1.56121 -0.34783,3.17709 0.17992,4.67775 0.52774,1.50066 1.68558,2.87504 3.35845,3.53831 l 0.59972,0.23989 0.59972,-0.26988 c 2.73645,-1.19398 4.19857,-4.05561 4.70781,-6.89676 0.50924,-2.84114 0.16267,-5.93336 -1.97901,-7.82627 l -0.59972,-0.53975 z m -1.10948,3.68824 c 0.53663,0.97821 0.90087,2.45764 0.59972,4.13803 -0.32567,1.8172 -1.29396,3.28943 -2.36881,4.07803 -0.36832,-0.30564 -0.65942,-0.68709 -0.83961,-1.19943 -0.28095,-0.79892 -0.33009,-1.87474 -0.09,-2.96853 0.38146,-1.73765 1.46731,-3.29804 2.69873,-4.0481 z"
     fill="#92460c"
     id="path89"
     style="stroke-width:1.36672" />
  <path
     d="m 169.416,210.7721 c 10.03941,17.74555 43.97572,14.13467 61.08984,3.0545 27.06114,-17.52004 36.60771,-57.90401 35.12754,-90.10813 -0.68004,-14.78249 -7.26591,-31.928041 -19.8544,-39.708802 -7.79497,-4.817565 -19.0248,-3.50674 -27.49029,0 -9.97736,4.132701 -19.9774,12.515094 -22.90903,22.909032 -3.55321,12.5971 10.83184,25.19966 9.16361,38.18081 -3.16424,24.6229 -47.35016,44.06455 -35.12754,65.67246 z"
     fill="url(#h)"
     id="path91"
     style="fill:url(#h);stroke-width:1.36672" />
  <path
     d="m 171.62191,68.67106 c 0,0 -12.42872,16.32142 -15.05721,25.978693 -1.87555,6.892117 -0.13101,21.427497 -0.13101,21.427497 2.60826,-1.90466 0.48847,-14.64581 2.53609,-21.601071 2.70598,-9.190263 12.65177,-25.806486 12.65177,-25.806486 z"
     opacity="0.71579"
     id="path93"
     style="stroke-width:1.36672" />
  <path
     d="m 357.91871,305.03507 c -1.84057,-0.83691 -1.65305,-2.81354 -2.17282,-4.53739 1.0213,1.32809 1.7095,2.97085 2.17282,4.53739"
     fill="#ff9e99"
     id="path95"
     style="stroke-width:1.36672" />
  <path
     d="m 281.16029,133.24529 c 0,56.46907 -46.79214,102.24624 -104.51326,102.24624 -34.14483,0 -61.73092,-17.38476 -80.803755,-42.15992 -13.168963,-17.10599 -23.709508,-37.02072 -23.709508,-60.08632 0,-15.8747 10.414497,-31.01882 14.720493,-45.137738 10.999621,-36.068177 49.66123,-54.836154 89.79277,-57.107176 23.37031,-1.322583 43.60623,8.689205 61.03239,21.576699 25.54537,18.890841 43.48087,47.100935 43.48087,80.669535 z"
     fill="url(#j)"
     id="path97"
     style="fill:url(#j);stroke-width:1.21611" />
  <g
     transform="matrix(1.3667242,0,0,1.3667242,50.607363,-44.355524)"
     id="g153">
    <path
       d="m 123.81155,171.8141 c 0,-0.38615 -0.33458,-0.70208 -0.74351,-0.70208 -0.40893,0 -0.54825,0.31593 -0.3096,0.70208 0.23865,0.38615 0.57323,0.70207 0.74351,0.70207 0.17028,0 0.3096,-0.31593 0.3096,-0.70207 z"
       fill="#9f2d24"
       id="path99" />
    <path
       d="m 126.4,165.04 c -0.62829,-0.62828 -3.3587,1.8803 -2.8835,2.6493 0.20433,0.33061 1.0427,-0.0242 1.8631,-0.78849 0.8204,-0.76429 1.2795,-1.6016 1.0204,-1.8608 z"
       fill="#9f2d24"
       id="path101" />
    <path
       d="m 130.83233,154.26216 c 0,-0.38615 -0.29729,-0.70208 -0.66064,-0.70208 -0.36335,0 -0.85591,0.31593 -1.09456,0.70208 -0.23865,0.38615 0.0586,0.70208 0.66065,0.70208 0.60205,0 1.09455,-0.31594 1.09455,-0.70208 z"
       fill="#9f2d24"
       id="path103" />
    <path
       d="m 134.86927,147.76794 c -0.16089,-0.48268 -0.71378,-0.8776 -1.22863,-0.8776 -0.51485,0 -1.06774,0.39492 -1.22864,0.8776 -0.17401,0.52206 0.32374,0.8776 1.22864,0.8776 0.9049,0 1.40265,-0.35554 1.22863,-0.8776 z"
       fill="#9f2d24"
       id="path105" />
    <path
       d="m 132.23648,113.54166 c 0,-0.38614 -0.33458,-0.70208 -0.74351,-0.70208 -0.40893,0 -0.54825,0.31594 -0.3096,0.70208 0.23865,0.38614 0.57323,0.70208 0.74351,0.70208 0.17028,0 0.3096,-0.31594 0.3096,-0.70208 z"
       fill="#9f2d24"
       id="path107" />
    <path
       d="m 128.2,116.85 c -25.908,33.352 -20.475,80.923 12.154,106.27 12.892,10.014 29.08,13.796 44.357,14.178 23.39,0.58589 45.964,-8.4937 61.637,-28.669 13.136,-18.401 14.192,-26.048 12.71,-45.556 -0.88725,-11.514 -0.465,-21.297 -6.3264,-31.774 -2.4555,-4.3897 -5.8564,-8.1177 -8.6073,-12.324 -1.4369,-2.1977 -2.7081,-4.0956 -4.6719,-5.688 -2.1856,-1.7728 -4.726,-3.1011 -6.953,-4.8311 -9.5697,-7.4339 -19.46,-12.113 -31.129,-15.503 -10.585,-3.0749 -20.778,-2.9033 -31.495,-3.6558 -15.915,4.1193 -30.717,13.447 -41.675,27.553 z"
       fill="url(#l)"
       id="path109"
       style="fill:url(#l)" />
    <path
       transform="matrix(0.49104,-0.63212,0.63212,0.49104,-80.931,0.67119)"
       d="m 17.8126,345.15266 8.90631,1.84269 14.43436,-4.2996 0.92134,-26.71892 c 0,0 -3.03809,0.43901 -7.05956,0.54228 -0.79661,0.0205 -1.63181,0.0152 -2.48963,0.003 -0.85782,-0.0122 -1.2008,0.50737 -2.08787,0.50163 -0.88707,-0.006 -2.31825,-0.53633 -3.20264,-0.49777 -0.88439,0.0386 -1.75946,0.10882 -2.60924,0.22993 -1.03157,0.14701 -1.4884,0.54978 -2.41684,0.7518 -0.92844,0.20202 -2.32847,0.20329 -3.09664,0.46866 -0.69667,0.24068 -1.45063,0.57228 -2.23665,0.96832 -0.78602,0.39604 -0.75956,1.3172 -1.58453,1.81562 -0.82497,0.49842 -2.50137,0.57412 -3.31487,1.12194 -0.8135,0.54782 -1.68544,1.56776 -2.43706,2.11198 -0.75162,0.54422 -1.38292,0.61275 -2.02225,1.1004 -0.63933,0.48765 -0.20991,0.93376 -0.68654,1.31185 -0.47663,0.37809 -1.85931,0.68814 -2.12283,0.90368 l -0.40788,0.33655 z"
       fill="url(#a)"
       filter="url(#c)"
       opacity="0.45"
       id="path111"
       style="fill:url(#linearGradient988)" />
    <path
       d="m 138.64,161.97 c 0,0 10.627,-7.3539 13.2,-12.957 0.91267,-1.9871 0.29027,-4.3637 0.43542,-6.5455 0.14515,-2.1818 0.36348,-4.36 0.43543,-6.5455 0.17391,-5.2822 -0.01,-15.855 -0.01,-15.855 l 26.396,-14.712 38.608,11.502 13.555,29.019 14.213,6.6385 -5.1632,33.848 -35.05,24.719 -28.293,3.5539 -31.352,-12.909 -24.405,-20.719 z"
       fill="url(#g)"
       id="path113"
       style="fill:url(#g)" />
    <path
       transform="matrix(0.49104,-0.63212,0.63212,0.49104,-80.931,0.67119)"
       d="m 54.044,338.35 c -3.6777,4.0693 -9.5386,2.8787 -14.094,2.0625 -4.2206,4.8455 -10.68,6.3198 -16.812,4.9375 -6.6506,-1.2682 -5.5747,8.1018 -10.531,10.406 -1.8399,2.2192 -3.1952,2.0676 -3.6562,4.7812 0.35808,2.8637 -4.7341,3.9237 -1.1562,6.6562 -5.374,0.52544 0.87704,6.3475 -2.4688,9 -0.76639,2.0709 3.7681,4.9748 1.3125,7.5 1.4737,2.2039 1.8882,5.2745 0.875,7.5625 1.375,3.5969 5.4165,5.6298 5.25,10.062 -0.73111,5.2462 6.2865,6.4082 6.7812,11.531 1.2178,2.3764 -1.9528,5.532 1.5,6.2188 1.2319,2.5318 5.2866,0.32791 7.4062,2.6875 2.5889,1.3418 3.4513,4.2232 4,6.5312 1.7656,0.98208 3.9088,2.5734 4.8125,4 1.7657,-3.4589 6.4033,-1.4359 6.875,1.8438 6.4325,3.0155 16.715,1.2663 19.375,9.75 2.6703,1.4228 0.51738,-4.6295 2.8125,-5.9375 -2.3517,-3.477 -2.1313,-8.5352 2,-10.406 1.4418,-2.4259 3.2042,-5.1649 5.4062,-6.5938 0.27638,-5.0917 3.6127,-9.3687 5.1562,-14.094 2.2203,-1.1888 -2.3772,-3.4015 0.5,-5.0625 3.7889,-1.7743 1.095,-6.6976 2.9062,-9.8438 0.43577,-5.369 -1.5398,-10.94 -0.625,-16.094 -6.6148,-1.6108 -10.167,-9.0711 -7.9688,-15.281 -0.52439,-3.1401 -2.1965,-6.8904 0.15625,-9.7188 -3.374,2.0365 -6.1245,-0.94512 -9.3125,-1 -4.4468,-1.7147 -8.94,-4.3139 -9.7914,-9.5715 -0.24333,-0.59314 -0.40324,-1.6443 -0.70858,-1.9285 z m 20.688,11.594 c 1.5221,-1.4655 3.1964,2.5009 0,0 z m 0.96875,0.0937 c 0.0761,0.56326 0.37987,-0.28505 0,0 z m 0.0937,0.1875 c 0.34797,0.96901 0.5261,-0.52578 0,0 z m -0.34375,-0.0625 -0.0937,0.0312 z m 0.28125,0.15625 v -0.0312 z m 0.5625,0.1875 c 0.19221,0.033 -0.37805,-0.40375 0,0 z m 0.0312,0 c -0.002,0.095 0.12087,-0.0106 0,0 z"
       fill="#aa0000"
       filter="url(#o)"
       id="path115" />
    <path
       d="m 151.95,142.39 c -1.8515,2.39 -1.2315,5.7319 -3.7778,7.3912 -4.6932,7.992 1.9966,16.465 6.5645,22.742 4.2312,8.3099 12.702,14.454 21.315,17.128 1.8474,-0.50369 3.6342,-1.594 5.0944,0.53663 3.3482,2.4765 7.8862,4.0695 11.776,2.2109 8.4807,2.2878 16.463,-1.8748 23.35,-6.4091 4.1967,-3.0637 9.233,-4.5639 13.596,-6.8595 2.9169,-4.1533 -3.4086,-6.6199 -5.0802,-9.6477 -1.9122,-3.3744 -4.2051,-7.4021 -4.4295,-11.138 1.37,-6.1788 -5.9648,-9.4353 -8.6543,-13.976 -5.0158,-6.659 -13.546,-8.301 -20.818,-11.325 -2.084,-0.36399 -3.7262,-0.7147 -4.7995,-2.5881 -2.7861,-2.1757 -6.3201,-0.39621 -9.0096,0.79299 -5.3067,0.25081 -10.894,-0.23929 -15.865,1.7076 -3.9513,2.0791 -6.4694,6.073 -9.2612,9.4347 z"
       fill="url(#k)"
       id="path117"
       style="fill:url(#k)" />
    <path
       d="m 140.53,107.6 c -5.5689,6.6318 -4.9511,15.8 -1.8113,23.33 0.55876,3.846 2.3209,7.325 5.7052,9.3731 0.99985,2.9678 2.9188,-1.9309 4.7544,0.52587 1.671,2.2713 2.7027,1.8644 4.0826,-0.28107 3.6337,-1.8947 6.2922,-6.4812 3.6115,-10.276 3.5432,2.5629 0.39221,-1.2958 3.2979,0.85143 2.7927,0.96609 5.9777,2.5048 8.6285,0.14621 4.7365,-1.4572 2.6071,-2.9309 3.5852,-2.8212 2.8622,0.51072 3.3543,-2.9797 3.5712,-4.3525 1.4425,0.84091 3.3314,-1.1377 2.6202,1.2752 0.41019,3.646 5.3905,2.9785 6.9142,5.9412 2.5952,3.1461 7.1098,3.3499 10.32,0.98544 -2.0409,-0.77497 1.1392,-1.9961 0.7964,-3.594 0.4581,6.3328 8.5084,7.4777 12.189,11.75 0.26476,0.97273 2.0878,1.8922 3.0998,3.3898 3.4729,1.3937 0.28637,5.0615 2.7883,4.0373 2.9554,-0.61368 1.0102,1.6677 2.264,3.1182 2.6376,2.7806 2.8247,7.765 6.6792,9.1794 -2.0861,2.9727 1.7175,5.8212 0.79299,9.0097 0.30268,2.8573 2.838,3.689 4.4432,4.7185 0.35291,2.6988 -1.6401,-0.68291 0.30758,0.74573 -1.887,0.58069 1.4761,5.2559 -0.79166,4.1995 -6.376,-1.4321 -6.7281,5.8333 -12.141,7.5146 -0.24826,-0.0975 -5.9207,-0.50397 -3.6221,3.5211 -0.63847,1.6032 -0.53,2.3251 -2.2216,1.1882 -2.5,-0.59407 -4.6456,2.5098 -6.8755,0.0436 -3.199,-0.74847 -7.2077,1.4249 -6.8659,5.0872 -3.8535,-4.4367 -1.9725,3.0648 -6.3551,-2.9096 -2.6164,-2.0849 -6.1218,-1.4442 -8.8611,-0.29524 -2.7157,-1.4777 -5.9799,-4.4096 -9.2465,-2.6534 -1.784,-1.1217 -3.2375,-0.0214 -4.0183,-2.3296 -1.7206,-1.6636 -4.2749,-1.7671 -6.5539,-1.512 4.7038,-3.1398 -3.2786,-1.346 -3.6634,-3.1942 0.45183,-3.6584 -5.917,-2.5 -4.9552,-5.9763 -3.4964,-0.49092 -0.27502,-3.3918 -3.8245,-4.7398 -0.74823,-0.95429 -0.68076,-0.27801 -0.43281,-1.033 -0.44459,0.003 -0.14693,-2.6392 -0.21604,-5.1219 0.0181,-3.4755 -3.7827,-5.7969 -2.5724,-9.5554 -0.67366,-3.9192 -6.4884,-3.0189 -8.6881,-0.76264 -1.6068,2.0021 -3.6421,1.8674 -5.7776,1.6883 -2.9086,0.0633 -5.1206,1.8569 -6.7283,4.0539 -4.7704,2.3037 -9.7403,6.4442 -9.0949,12.32 -0.70662,2.4964 -2.3817,4.9625 -1.665,7.6071 -0.95337,2.4128 2.4411,3.383 1.752,5.8587 0.61224,7.7136 6.3752,13.609 10.341,19.879 1.3486,2.8436 5.4432,2.1507 5.9332,5.3692 0.82378,2.1154 3.4653,1.0015 4.133,3.2422 4.7402,4.5752 10.671,7.7854 16.443,10.841 2.5368,1.0535 5.4244,-0.53523 7.1818,2.2532 10.135,8.3912 24.095,4.4548 35.861,4.3552 7.1554,0.0129 14.757,-0.91296 20.503,-5.5167 5.1021,0.43262 8.8028,-3.9396 12.659,-6.7954 3.087,-1.3935 4.0289,-5.276 7.664,-5.8293 6.9661,-5.57 10.81,-14.267 17.095,-20.58 7.4782,-12.008 3.2577,-25.451 3.1753,-38.461 0.42759,-10.162 -2.3867,-20.243 -8.3556,-28.468 -9.7078,-14.517 -24.192,-26.59 -41.055,-31.512 -7.537,-1.9813 -15.432,-2.7267 -22.552,-5.8309 -11.751,-2.5716 -23.066,3.2073 -33.845,6.8717 -3.788,2.9665 -7.5663,6.1492 -10.404,10.131 z m 2.9033,59.871 c 0.0171,0.12424 -0.32308,0.29331 0,0 z m 1.4271,-1.8371 c 0.80023,0.62897 -0.4625,0.52317 0,0 z m 49.141,31.174 c 0.23618,2.0778 0.95971,4.1548 0.64877,6.3003 -2.279,-1.5335 -0.62069,-4.4786 -2.1933,-6.3916 l 0.79904,0.0472 z m -2.6686,2.1713 c 0.14123,0.2469 -0.16578,-0.005 0,0 z"
       fill="url(#f)"
       id="path119"
       style="fill:url(#f)" />
    <path
       d="m 177.25,137.82 c 3.2153,-0.61095 6.5283,0.23758 9.5101,1.4369 1.5537,0.62514 3.1194,1.2191 4.673,1.8431 1.6047,0.64553 2.5138,-0.35512 3.7529,0.0814 2.3115,0.81346 5.3383,3.0025 7.4072,4.264 3.5485,2.1646 6.0088,6.2012 8.7819,9.2048 -0.87415,0.0345 -1.7243,0.61875 -2.5984,0.66239 1.4639,4.1749 11.925,13.124 9.5607,17.404 -0.2137,0.006 -0.86606,-0.0555 -1.1046,-0.11511 0.5322,-4.3646 -4.1548,-6.0017 -5.8532,-9.2367 -1.7421,-3.3196 -6.9667,-9.6992 -6.7316,-12.896 0.11538,-1.5838 -2.0352,-2.851 -3.2097,-3.5363 -2.1188,-1.2364 -2.9555,-0.69036 -5.2493,-1.0999 -2.4316,-0.43444 -4.0767,-2.5181 -6.1958,-3.621 -2.135,-1.1112 -5.3082,-0.28815 -7.5952,-0.0933 1.3504,-3.9864 -6.3077,-3.2995 -8.1668,-3.1909 -5.8768,0.34457 -12.953,1.2768 -16.449,6.7021 -1.2038,-7.5943 15.361,-6.9921 19.468,-7.8092"
       fill="#552200"
       id="path121" />
    <path
       d="m 144.13,166.08 c -0.66397,0.35893 -1.3008,0.77948 -1.948,1.1677 0.94367,-0.13051 1.348,-0.57662 1.948,-1.1677"
       fill="#ff9e99"
       id="path123" />
    <path
       d="m 155.12,154.61 1.0008,0.62842 c -3.3864,2.9684 0.13673,8.6273 2.1632,11.209 1.4928,1.9026 8.2,5.3128 4.5917,6.5458 2.5003,3.4971 8.249,6.3927 12.536,7.0562 1.8186,0.28155 3.7947,-1.6934 4.8305,-1.2354 0.8183,0.36099 0.68925,1.5135 1.2953,1.9742 0.88489,0.6732 1.0551,0.68378 2.1459,1.071 1.8366,0.65236 3.8336,0.50991 5.6731,1.1311 2.2172,0.7483 5.4831,1.4984 8.204,0.93924 3.0374,-0.6234 6.0924,0.13717 9.1726,-0.69124 2.5708,-0.69199 3.9595,-3.0969 6.0848,-0.93201 -2.7937,1.5557 -6.4062,1.9746 -9.5229,2.58 -2.3352,0.45133 -3.6506,2.2908 -6.0672,1.126 -3.0754,-1.4819 -6.7906,-0.69066 -10.071,-1.1286 -1.5513,-0.20673 -3.6513,-1.8796 -4.9053,-1.7763 -1.8276,0.15028 -3.635,-0.16918 -5.2959,-0.9982 -3.1938,-1.5931 -5.7152,-3.1463 -9.229,-3.8589 -4.4395,-0.90155 -5.692,-2.7442 -7.3364,-7.039 -1.421,-3.7108 -3.6193,-5.5259 -5.8166,-8.6132 -1.2642,-1.7767 -3.9269,-9.0052 0.54651,-7.9881"
       fill="#552200"
       id="path125" />
    <path
       d="m 177.17,148.27 c 7.9382,0.91216 15.768,3.7033 21.456,9.4519 1.8301,1.8494 4.1223,3.4131 5.5735,5.5885 1.8498,2.7739 0.42748,2.5994 -0.92579,4.6416 -0.53994,-0.36572 -2.2737,-1.2666 -2.3418,-1.9671 -0.10285,-1.055 1.4471,-0.48239 1.5977,-1.2908 0.46935,-2.5079 -2.1062,-2.9162 -3.7668,-4.638 -1.0311,-1.0696 -1.1399,-2.34 -2.5697,-3.1141 -1.4298,-0.7741 -3.1808,-0.12243 -4.6202,-0.7602 -1.6629,-0.73634 -0.82887,-3.1292 -1.9522,-3.5254 -1.9394,-0.68451 -3.7051,-1.6355 -5.7757,-1.9568 -1.434,-0.22203 -4.4391,1.4857 -5.2078,1.2423 -0.87335,-0.27706 -0.8318,-1.7945 -1.5382,-2.2369 -2.1301,-1.3354 -7.0352,-0.53501 -9.2914,0.077 -0.83079,0.22529 -3.216,1.8358 -3.6804,0.71385 -0.58634,-1.4163 1.7382,-1.7614 2.2676,-1.9614 2.9221,-1.1012 8.0687,-0.94675 10.775,-0.26445"
       fill="#552200"
       id="path127" />
    <path
       d="m 170.46,152.89 c 1.3188,3.0283 -3.3698,3.713 -4.784,1.9415 1.3356,-1.0291 3.3241,-2.292 4.784,-1.9415"
       fill="#552200"
       id="path129" />
    <path
       d="m 172.98,170.92 c 1.0544,-2.2054 3.5584,0.21816 5.1157,1.0762 2.4581,1.3541 5.0082,2.6812 7.696,3.5164 2.5697,0.79815 4.9784,0.94111 7.6412,0.80002 2.0774,-0.11034 2.7987,-1.2477 5.2482,-0.91193 1.8824,0.25813 3.6643,1.1883 5.57,0.30605 0.80058,-0.37038 1.4999,-2.0601 2.4119,-2.1472 3.6136,-0.34609 1.9133,3.3837 1.1166,4.8882 -1.0167,-0.5283 -1.6988,0.0862 -2.7015,-0.16265 -1.7988,-0.44661 -2.4742,-1.6909 -4.6635,-1.0908 -1.8915,0.51825 -3.8486,2.0681 -5.9086,1.6629 -1.4962,-0.29466 -1.4925,-1.5507 -3.2409,-1.4138 -1.1445,0.089 -2.2492,-0.11336 -3.3573,-0.37007 -4.8462,-1.1243 -24.705,-5.4038 -23.647,-12.182 1.7303,3.575 5.4832,4.9415 8.719,6.0291"
       fill="#552200"
       id="path131" />
    <path
       d="m 178.72,156.63 c 0.62763,2.835 -4.1784,0.3868 -5.3625,0.002 1.7079,-1.5853 3.7716,-0.16457 5.3625,-0.002"
       fill="#552200"
       id="path133" />
    <path
       d="m 187.07,159.68 c -0.55728,2.5571 -4.5592,1.0832 -5.6411,-0.21326 1.8559,-0.66552 3.8949,-0.8452 5.6411,0.21326"
       fill="#552200"
       id="path135" />
    <path
       d="m 194.1,160.98 c -0.68126,1.3885 -2.8765,1.4731 -3.9691,1.0856 1.0241,-1.1383 2.8086,-1.5005 3.9691,-1.0856"
       fill="#552200"
       id="path137" />
    <path
       d="m 194.44,170.32 c -0.0243,-0.41622 -0.049,-0.83069 -0.0727,-1.2464 -4.5452,0.48193 2.319,-8.0505 1.8036,-2.3218 -2.798,0.56821 0.60647,2.7983 -2.0503,4.363 -3.1709,1.8678 -6.3784,-0.63805 -8.6844,-2.4294 3.1258,0.2571 5.743,2.723 9.0038,1.6346"
       fill="#552200"
       id="path139" />
    <path
       d="m 200.34,167.32 c -0.28349,0.49942 -0.72871,0.93807 -1.0818,1.3926 -0.14307,-1.4024 0.32398,-1.2038 1.0818,-1.3926"
       fill="#552200"
       id="path141" />
    <path
       d="m 224.46,137.81 1.5149,-1.9501 -1.5149,1.9501"
       fill="#0a192e"
       id="path143" />
    <path
       d="m 216.68,155.49 c 0.16281,1.6641 -1.0753,2.8835 -0.85361,4.5487 -2.8244,-0.89564 -2.5522,-4.1192 -2.9943,-6.4949 1.5794,-0.34214 2.971,0.98218 3.848,1.9462"
       fill="#552200"
       id="path145" />
    <path
       d="m 210.66,170.71 c -0.84683,-1.4646 -2.1876,-2.5791 -2.4675,-4.2987 1.3789,0.91406 3.0935,2.5298 2.4675,4.2987"
       fill="#552200"
       id="path147" />
    <path
       d="m 218.49,175.01 c 0.95088,-0.50905 2.6293,1.3816 2.8581,2.0722 -0.89052,-0.69076 -2.0392,-1.6246 -2.8581,-2.0722"
       fill="#552200"
       id="path149" />
    <path
       d="m 146.04,156.44 c 0.99475,0.80963 2.5092,-0.81279 3.4702,-1.6622 1.3563,-1.1988 1.9924,-3.0238 2.9295,-4.5726 0.59994,-0.99145 1.2973,-1.9417 1.723,-3.0195 0.36374,-0.92087 0.63434,-1.9009 0.6882,-2.8895 0.063,-1.1571 0.42918,-2.6754 -0.43327,-3.4494 -0.60985,-0.5473 -1.729,-0.416 -2.4579,-0.0417 -1.3141,0.67488 -1.9228,2.2943 -2.5204,3.6452 -0.47463,1.0729 -0.45705,2.3053 -0.79568,3.4286 -0.39646,1.3152 -1.0364,2.5479 -1.4422,3.8602 -0.47682,1.542 -2.4133,3.682 -1.1614,4.7009 z"
       fill="url(#e)"
       id="path151"
       style="fill:url(#e)" />
  </g>
  <path
     d="m 150.16842,136.98267 c 0,0 -18.2731,21.35096 -20.45166,34.55762 -3.11408,18.87309 11.81205,56.15596 11.81205,56.15596 0,0 -11.19374,-35.94895 -8.63947,-53.99654 1.89551,-13.39335 17.27949,-36.71841 17.27949,-36.71841 z"
     opacity="0.65224"
     id="path155"
     style="stroke-width:1.36672" />
</svg>
