<?xml version="1.0" encoding="UTF-8" standalone="no"?>
<svg
   xmlns:dc="http://purl.org/dc/elements/1.1/"
   xmlns:cc="http://creativecommons.org/ns#"
   xmlns:rdf="http://www.w3.org/1999/02/22-rdf-syntax-ns#"
   xmlns:svg="http://www.w3.org/2000/svg"
   xmlns="http://www.w3.org/2000/svg"
   xmlns:sodipodi="http://sodipodi.sourceforge.net/DTD/sodipodi-0.dtd"
   xmlns:inkscape="http://www.inkscape.org/namespaces/inkscape"
   version="1.1"
   id="Layer_1"
   width="87.258102mm"
   height="114.73054mm"
   viewBox="0 0 329.7944 433.62722"
   overflow="visible"
   enable-background="new 0 0 323.984 425.979"
   xml:space="preserve"
   sodipodi:docname="pig.svg"
   inkscape:version="1.0.2-2 (e86c870879, 2021-01-15)"><metadata
   id="metadata153"><rdf:RDF><cc:Work
       rdf:about=""><dc:format>image/svg+xml</dc:format><dc:type
         rdf:resource="http://purl.org/dc/dcmitype/StillImage" /><dc:title /></cc:Work></rdf:RDF></metadata><defs
   id="defs151" /><sodipodi:namedview
   pagecolor="#ffffff"
   bordercolor="#666666"
   borderopacity="1"
   objecttolerance="10"
   gridtolerance="10"
   guidetolerance="10"
   inkscape:pageopacity="0"
   inkscape:pageshadow="2"
   inkscape:window-width="1920"
   inkscape:window-height="1017"
   id="namedview149"
   showgrid="false"
   units="mm"
   inkscape:zoom="1.4109634"
   inkscape:cx="195.51179"
   inkscape:cy="190.83728"
   inkscape:window-x="-8"
   inkscape:window-y="-8"
   inkscape:window-maximized="1"
   inkscape:current-layer="Layer_1"
   inkscape:document-rotation="0" />
<g
   id="g146"
   transform="matrix(1.0515613,0,0,1.0515613,-5.6826373,-8.4130565)">
	<path
   fill-rule="evenodd"
   clip-rule="evenodd"
   fill="#ffcecd"
   d="M 288.249,49.581 C 270.589,44.755 250.253,42.445 232.392,46.621 216.161,50.416 206.281,41.703 192.845,32.539 174.07,19.733 156.366,9.202 133.241,8.118 110.829,7.067 91.508,13.132 72.237,23.78 60.945,30.018 47.956,35.475 38.28,44.093 27.162,53.996 21.041,67.989 16.074,81.603 c -0.281,-0.06 -0.01,-0.798 -0.326,-1.011 -4.322,12.724 -11.082,26.963 -10,40.471 0.965,12.069 4.204,23.844 4.782,36.069 0.362,7.656 1.825,14.672 4.822,21.73 2.88,6.783 9.162,14.662 10.652,20.614 1.414,5.644 1.372,11.286 3.159,17.005 3.434,10.987 7.553,22.593 11.537,33.358 2.391,6.463 5.592,10.059 6.77,16.805 2.008,11.498 1.377,24.659 -1.102,35.977 -1.313,6.002 -5.163,12.235 -5.163,18.685 0,5.759 4.883,3.234 8.16,3.553 4.674,0.456 2.026,-1.676 7.24,2.692 4.537,3.801 9.526,-6.235 8.756,-9.693 7.636,-1.588 4.528,-16.659 4.838,-22.926 3.815,9.748 8.622,17.996 9.641,26.498 1.297,10.839 4.08,21.492 4.946,32.169 0.826,10.166 2.131,17.701 1.138,27.959 -0.369,3.799 0.747,15.749 6.986,13.991 -0.22,5.051 4.192,7.124 4.746,11.06 0.936,6.67 1.426,9.065 7.693,11.649 3.48,1.435 18.048,5.052 16.556,-2.671 4.827,2.739 7.448,4.52 12.529,0.686 6.106,-4.608 3.785,-8.856 1.389,-15.001 -1.534,-3.938 -0.283,-6.242 -1.552,-10.615 -2.138,-7.367 -4.96,-13.922 -6.697,-21.535 4.006,2.847 11.667,1.93 13.756,-2.923 -3.046,7.968 16.274,7.109 17.513,-3.179 0.419,-3.483 -1.647,-8.727 -1.879,-12.418 -0.191,-3.076 1.549,-6.347 1.951,-9.747 1.264,-10.668 2.279,-22.523 3.691,-33.639 1.787,-14.089 6.263,-29.84 13.452,-42.052 4.597,-7.809 9.21,-15.59 12.067,-24.242 1.784,-5.41 1.408,-9.27 8.556,-8.916 1.889,0.092 2.09,0.128 4.081,0.612 1.735,0.423 -0.201,2.368 3.502,1.3 1.286,2.148 17.346,-4.667 21.646,-6.39 3.446,-1.38 6.553,-1.233 9.479,-3.755 2.742,-2.364 3.646,-5.084 6.426,-6.787 7.121,-4.358 12.259,-4.409 17.225,-12.998 5.256,-9.09 2.373,-19.092 -3.721,-27.437 0.4,-0.083 0.754,0.313 1.301,0.18 -5.347,-7.284 -13.082,-21.993 -12.528,-30.651 0.583,-9.152 -0.554,-12.793 -5.163,-19.964 -2.048,-3.186 -3.086,-11.354 -4.478,-12.347 -0.463,-3.746 2.231,-4.264 5.019,-1.806 -2.731,-4.999 -3.67,-7.08 -1.444,-12.743 6.936,5.691 24.054,6.539 28.199,-3.213 9.851,4.776 18.235,-4.307 23.758,-11.191 2.176,-2.713 12.839,-20.371 13.829,-20.218 0.605,-0.456 21.417,5.8 12.98,-1.028 -3.62,-2.931 -5.355,-5.712 -10.108,-6.409 -3.908,-0.572 -9.757,-1.841 -11.284,-5.163 2.998,0.31 6.413,1.002 6.281,4.008 0.001,-10e-4 0.492,0.209 0.471,0.108 0.15,-5.485 -9.842,-5.755 -13.903,-6.533 m -51.707,20.434 c -1.468,-0.807 -0.251,-0.139 0,0 m -10.074,24.008 c -0.033,0.045 0.618,-1.233 0.902,-1.48 0.155,0.62 -0.397,0.785 -0.902,1.48 m 4.008,12.779 c 2.988,-0.414 6.209,0.621 7.728,3.394 -3.088,-0.498 -6.503,0.904 -7.728,-3.394 m 0.325,11.301 c 0.108,0.012 0.284,0.031 0,0 m 6.067,21.373 c -0.285,-1.185 -0.215,-0.893 0,0 m 16.609,33.178 c 0.281,0.906 0.454,1.848 1.011,2.671 -1.085,-0.933 -0.868,-2.213 -1.011,-2.671 m -15.454,45.344 c 0.153,-0.531 0.253,-0.873 0,0 m -68.531,13.827 c -0.451,0 -0.715,0.002 0,0 m 1.445,40.111 c 0.01,0.465 0.022,1.123 0,0 M 42.288,94.275 c -0.309,0.904 -0.067,0.197 0,0 M 6.362,120.197 c -0.409,-0.468 0.915,1.046 0,0 m 123.954,116.792 c 3.41,1.188 7.027,1.186 10.579,0.758 -2.372,16.339 -3.868,32.703 -4.729,49.64 -0.495,9.71 -2.602,19.034 -4.377,28.575 -0.858,4.615 -1.748,9.235 -2.736,13.825 -1.419,6.597 -6.319,12.051 -7.257,18.648 -1.555,-8.063 -0.888,-16.543 -1.877,-24.695 -0.613,-5.057 0.39,-10.216 -0.361,-15.233 -0.803,-5.367 -5.302,-11.302 -4.982,-16.752 0.172,-2.947 3.215,-6.899 4.008,-9.999 1.621,-6.346 1.372,-13.01 3.429,-19.298 2.397,-7.33 4.293,-19.201 8.303,-25.469 m -22.927,19.167 c 0.053,0.615 0.06,0.677 0,0 m -0.506,2.204 c -0.665,-1.228 1.316,2.438 0,0 m -58.529,10.398 c 0.456,0.97 0.1,0.212 0,0 m 108.466,79.389 c 0.371,-0.813 -0.305,0.661 0,0 m -57.916,35.056 c -0.461,0.489 -1.352,1.438 0,0 m -1.517,21.012 c -0.441,0.737 -0.15,0.251 0,0 m 21.917,-0.146 c 3.114,3.655 4.578,8.6 6.788,12.854 -5.554,-1.147 -7.504,-9.226 -6.788,-12.854"
   id="path2" />
	<path
   fill-rule="evenodd"
   clip-rule="evenodd"
   fill="#ef9e9e"
   d="m 97.292,188.372 c 3.319,7.635 12.289,19.522 10.064,23.216 -2.232,3.706 -14.371,-4.451 -18.047,-5.471 5.92,1.645 10.957,22.316 0.891,16.138 -3.527,-2.165 -6.004,-8.659 -8.019,-12.117 2.903,4.982 3.984,10.813 7.374,15.903 3.198,4.802 7.164,9.132 9.913,14.231 3.092,5.734 2.939,10.77 4.361,16.822 1.45,6.162 5.061,11.342 5.836,17.813 0.72,6.005 1.119,13.246 3.996,18.268 5.35,-8.896 4.108,-20.08 6.987,-29.733 2.386,-7.997 9.467,-16.663 7.578,-25.414 4.391,-1.126 9.303,-0.839 13.88,-0.636 -6.328,20.182 -4.619,38.361 -5.642,59.38 -0.518,10.637 -2.924,19.991 -6.431,29.987 -2.658,7.575 -9.495,16.092 -8.737,23.583 0.838,8.268 9.938,31.04 19.908,16.162 -0.975,9.335 16.692,4.374 17.638,-3.483 0.419,-3.483 -1.647,-8.727 -1.879,-12.418 -0.191,-3.076 1.549,-6.347 1.951,-9.747 1.264,-10.668 2.279,-22.523 3.691,-33.639 1.787,-14.089 6.263,-29.84 13.452,-42.052 4.597,-7.809 9.21,-15.59 12.067,-24.242 1.784,-5.41 1.408,-9.27 8.556,-8.916 1.889,0.092 2.09,0.128 4.081,0.612 1.735,0.423 -0.201,2.368 3.503,1.3 6.353,-1.831 13.457,-4.822 19.484,-6.297 -0.313,0.075 -11.791,-7.059 -13.348,-8.075 -5.359,-3.499 -7.841,-9.066 -12.675,-12.977 -8.541,-6.912 -13.524,-10.607 -17.905,-21.351 -3.188,2.057 -6.336,-2.857 -7.055,-6.402 3.886,11.486 5.251,15.545 15.787,21.576 4.736,2.71 16.38,12.508 15.062,18.984 -1.522,7.473 -14.47,4.496 -19.931,2.363 -10.835,-4.235 -16.65,-16.75 -21.232,-26.47 0.614,1.303 -26.473,1.044 -29.705,-0.413 -8.39,-3.789 -18.101,-9.912 -22.957,-17.937 2.092,6.652 7.88,12.212 12.007,17.761 1.422,1.913 8.699,9.042 8.557,11.171 -0.494,7.41 -13.516,1.54 -16.734,-0.734 -7.294,-5.153 -12.981,-13.733 -17.507,-21.363 -0.093,1.176 0.379,2.772 1.18,4.617 z"
   id="path4" />
	<path
   fill-rule="evenodd"
   clip-rule="evenodd"
   fill="#ef9e9e"
   d="m 236.542,70.015 c -1.468,-0.807 -0.251,-0.139 0,0"
   id="path6" />
	<path
   fill-rule="evenodd"
   clip-rule="evenodd"
   fill="#ef9e9e"
   d="m 226.468,94.023 c -0.033,0.045 0.618,-1.233 0.902,-1.48 0.155,0.62 -0.397,0.785 -0.902,1.48"
   id="path8" />
	<path
   fill-rule="evenodd"
   clip-rule="evenodd"
   fill="#ef9e9e"
   d="m 230.476,106.802 c 2.988,-0.414 6.209,0.621 7.728,3.394 -3.088,-0.498 -6.503,0.904 -7.728,-3.394"
   id="path10" />
	<path
   fill-rule="evenodd"
   clip-rule="evenodd"
   fill="#ef9e9e"
   d="m 230.801,118.103 c 0.108,0.012 0.284,0.031 0,0"
   id="path12" />
	<path
   fill-rule="evenodd"
   clip-rule="evenodd"
   fill="#ef9e9e"
   d="m 236.868,139.476 c -0.285,-1.185 -0.215,-0.893 0,0"
   id="path14" />
	<path
   fill-rule="evenodd"
   clip-rule="evenodd"
   fill="#ef9e9e"
   d="m 253.477,172.654 c 0.281,0.906 0.454,1.848 1.011,2.671 -1.085,-0.933 -0.868,-2.213 -1.011,-2.671"
   id="path16" />
	<path
   fill-rule="evenodd"
   clip-rule="evenodd"
   fill="#ef9e9e"
   d="m 238.023,217.998 c 0.153,-0.531 0.253,-0.873 0,0"
   id="path18" />
	<path
   fill-rule="evenodd"
   clip-rule="evenodd"
   fill="#ef9e9e"
   d="m 169.492,231.825 c -0.451,0 -0.715,0.002 0,0"
   id="path20" />
	<path
   fill-rule="evenodd"
   clip-rule="evenodd"
   fill="#ef9e9e"
   d="m 170.937,271.936 c 0.01,0.465 0.022,1.123 0,0"
   id="path22" />
	<path
   fill-rule="evenodd"
   clip-rule="evenodd"
   fill="#ef9e9e"
   d="m 42.288,94.275 c -0.309,0.904 -0.067,0.197 0,0"
   id="path24" />
	<path
   fill-rule="evenodd"
   clip-rule="evenodd"
   fill="#ef9e9e"
   d="m 6.362,120.197 c -0.409,-0.468 0.915,1.046 0,0"
   id="path26" />
	<path
   fill-rule="evenodd"
   clip-rule="evenodd"
   fill="#ef9e9e"
   d="m 107.389,256.156 c 0.053,0.615 0.06,0.677 0,0"
   id="path28" />
	<path
   fill-rule="evenodd"
   clip-rule="evenodd"
   fill="#ef9e9e"
   d="m 106.883,258.36 c -0.665,-1.228 1.316,2.438 0,0"
   id="path30" />
	<path
   fill-rule="evenodd"
   clip-rule="evenodd"
   fill="#ef9e9e"
   d="m 48.354,268.758 c 0.456,0.97 0.1,0.212 0,0"
   id="path32" />
	<path
   fill-rule="evenodd"
   clip-rule="evenodd"
   fill="#ef9e9e"
   d="m 156.82,348.147 c 0.371,-0.813 -0.305,0.661 0,0"
   id="path34" />
	<path
   fill-rule="evenodd"
   clip-rule="evenodd"
   fill="#ef9e9e"
   d="m 98.904,383.203 c -0.461,0.489 -1.352,1.438 0,0"
   id="path36" />
	<path
   fill-rule="evenodd"
   clip-rule="evenodd"
   fill="#ef9e9e"
   d="m 97.387,404.215 c -0.441,0.737 -0.15,0.251 0,0"
   id="path38" />
	<path
   fill-rule="evenodd"
   clip-rule="evenodd"
   fill="#ef9e9e"
   d="m 119.304,404.069 c 3.114,3.655 4.578,8.6 6.788,12.854 -5.554,-1.147 -7.504,-9.226 -6.788,-12.854"
   id="path40" />
	<path
   fill-rule="evenodd"
   clip-rule="evenodd"
   fill="#ef9e9e"
   d="m 289.983,84.815 c 5.12,-6.388 9.307,-14.807 12.706,-22.118 -4.629,-2.939 -11.173,-3.952 -16.422,-5.421 -9.997,-2.799 -20.459,-4.161 -30.845,-3.938 -8.684,0.186 -14.293,3.912 -21.598,8.167 -4.613,2.687 -3.864,4.463 -6.565,8.76 3.369,5.134 7.876,8.725 8.995,15.171 1.42,8.191 -0.158,15.175 10.061,17.409 6.831,1.493 16.762,0.565 19.907,-6.835 9.851,4.775 18.236,-4.308 23.761,-11.195 z"
   id="path42" />
	<path
   fill-rule="evenodd"
   clip-rule="evenodd"
   fill="#ef9e9e"
   d="m 236.542,70.015 c -1.468,-0.807 -0.251,-0.139 0,0"
   id="path44" />
	<path
   fill-rule="evenodd"
   clip-rule="evenodd"
   fill="#ef9e9e"
   d="m 226.468,94.023 c -0.033,0.045 0.618,-1.233 0.902,-1.48 0.155,0.62 -0.397,0.785 -0.902,1.48"
   id="path46" />
	<path
   fill-rule="evenodd"
   clip-rule="evenodd"
   fill="#ef9e9e"
   d="m 230.476,106.802 c 2.988,-0.414 6.209,0.621 7.728,3.394 -3.088,-0.498 -6.503,0.904 -7.728,-3.394"
   id="path48" />
	<path
   fill-rule="evenodd"
   clip-rule="evenodd"
   fill="#ef9e9e"
   d="m 230.801,118.103 c 0.108,0.012 0.284,0.031 0,0"
   id="path50" />
	<path
   fill-rule="evenodd"
   clip-rule="evenodd"
   fill="#ef9e9e"
   d="m 236.868,139.476 c -0.285,-1.185 -0.215,-0.893 0,0"
   id="path52" />
	<path
   fill-rule="evenodd"
   clip-rule="evenodd"
   fill="#ef9e9e"
   d="m 253.477,172.654 c 0.281,0.906 0.454,1.848 1.011,2.671 -1.085,-0.933 -0.868,-2.213 -1.011,-2.671"
   id="path54" />
	<path
   fill-rule="evenodd"
   clip-rule="evenodd"
   fill="#ef9e9e"
   d="m 238.023,217.998 c 0.153,-0.531 0.253,-0.873 0,0"
   id="path56" />
	<path
   fill-rule="evenodd"
   clip-rule="evenodd"
   fill="#ef9e9e"
   d="m 169.492,231.825 c -0.451,0 -0.715,0.002 0,0"
   id="path58" />
	<path
   fill-rule="evenodd"
   clip-rule="evenodd"
   fill="#ef9e9e"
   d="m 170.937,271.936 c 0.01,0.465 0.022,1.123 0,0"
   id="path60" />
	<path
   fill-rule="evenodd"
   clip-rule="evenodd"
   fill="#ef9e9e"
   d="m 42.288,94.275 c -0.309,0.904 -0.067,0.197 0,0"
   id="path62" />
	<path
   fill-rule="evenodd"
   clip-rule="evenodd"
   fill="#ef9e9e"
   d="m 6.362,120.197 c -0.409,-0.468 0.915,1.046 0,0"
   id="path64" />
	<path
   fill-rule="evenodd"
   clip-rule="evenodd"
   fill="#ef9e9e"
   d="m 107.389,256.156 c 0.053,0.615 0.06,0.677 0,0"
   id="path66" />
	<path
   fill-rule="evenodd"
   clip-rule="evenodd"
   fill="#ef9e9e"
   d="m 106.883,258.36 c -0.665,-1.228 1.316,2.438 0,0"
   id="path68" />
	<path
   fill-rule="evenodd"
   clip-rule="evenodd"
   fill="#ef9e9e"
   d="m 48.354,268.758 c 0.456,0.97 0.1,0.212 0,0"
   id="path70" />
	<path
   fill-rule="evenodd"
   clip-rule="evenodd"
   fill="#ef9e9e"
   d="m 156.82,348.147 c 0.371,-0.813 -0.305,0.661 0,0"
   id="path72" />
	<path
   fill-rule="evenodd"
   clip-rule="evenodd"
   fill="#ef9e9e"
   d="m 98.904,383.203 c -0.461,0.489 -1.352,1.438 0,0"
   id="path74" />
	<path
   fill-rule="evenodd"
   clip-rule="evenodd"
   fill="#ef9e9e"
   d="m 97.387,404.215 c -0.441,0.737 -0.15,0.251 0,0"
   id="path76" />
	<path
   fill-rule="evenodd"
   clip-rule="evenodd"
   fill="#ef9e9e"
   d="m 119.304,404.069 c 3.114,3.655 4.578,8.6 6.788,12.854 -5.554,-1.147 -7.504,-9.226 -6.788,-12.854"
   id="path78" />
	<path
   fill-rule="evenodd"
   clip-rule="evenodd"
   fill="#ef9e9e"
   d="m 6.362,120.197 c -0.409,-0.468 0.915,1.046 0,0 z"
   id="path80" />
	<path
   fill-rule="evenodd"
   clip-rule="evenodd"
   fill="#ef9e9e"
   d="m 97.387,404.215 c -0.441,0.737 -0.15,0.251 0,0 z"
   id="path82" />
	<path
   fill-rule="evenodd"
   clip-rule="evenodd"
   fill="#ef9e9e"
   d="m 98.904,383.203 c -0.461,0.489 -1.352,1.438 0,0 z"
   id="path84" />
	<path
   fill-rule="evenodd"
   clip-rule="evenodd"
   fill="#ef9e9e"
   d="m 48.539,269.151 c -0.053,-0.111 -0.142,-0.301 -0.185,-0.394 0.097,0.208 0.151,0.322 0.185,0.394 z"
   id="path86" />
	<path
   fill-rule="evenodd"
   clip-rule="evenodd"
   fill="#ef9e9e"
   d="m 106.883,258.36 c -0.073,-0.132 -0.109,-0.199 -0.125,-0.232 0.075,0.141 0.478,0.886 0.567,1.054 -0.039,-0.076 -0.165,-0.308 -0.442,-0.822 z"
   id="path88" />
	<path
   fill-rule="evenodd"
   clip-rule="evenodd"
   fill="#ef9e9e"
   d="m 230.801,118.103 c 0.108,0.012 0.284,0.031 0,0 z"
   id="path90" />
	<path
   fill-rule="evenodd"
   clip-rule="evenodd"
   fill="#ef9e9e"
   d="m 170.945,272.335 c -0.002,-0.096 -0.005,-0.218 -0.008,-0.399 0.002,0.135 0.004,0.281 0.008,0.399 z"
   id="path92" />
	<path
   fill-rule="evenodd"
   clip-rule="evenodd"
   fill="#ef9e9e"
   d="m 236.542,70.015 c -1.468,-0.807 -0.251,-0.139 0,0 z"
   id="path94" />
	<path
   fill-rule="evenodd"
   clip-rule="evenodd"
   fill="#ef9e9e"
   d="m 243.465,165.762 c -10.965,-7.79 -18.276,-0.514 -25.537,7.095 -6.208,6.505 -17.596,10.872 -18.528,21.097 -0.419,4.598 1.511,6.296 4.243,9.661 4.215,5.188 4.473,10.157 11.505,12.203 9.47,2.757 16.054,4.633 25.611,1.073 7.265,-2.704 14.24,-5.918 18.278,-12.9 7.222,-12.489 -2.396,-24.747 -10.66,-33.804 -1.617,-1.772 -3.254,-3.248 -4.912,-4.425 z M 6.362,120.197 c 0.915,1.046 -0.409,-0.468 0,0 z M 42.288,94.275 c -0.309,0.904 -0.067,0.197 0,0 z m 6.066,174.483 c 0.043,0.093 0.132,0.282 0.185,0.394 0.056,0.12 0.043,0.09 0,0 -0.034,-0.073 -0.088,-0.187 -0.185,-0.394 z m 49.033,135.457 c -0.15,0.251 -0.441,0.737 0,0 z m 1.517,-21.012 c -1.352,1.438 -0.461,0.489 0,0 z M 254.488,175.325 c -1.085,-0.933 -0.868,-2.212 -1.011,-2.671 0.281,0.906 0.454,1.847 1.011,2.671 z m -16.465,42.673 c 0.153,-0.531 0.253,-0.873 0,0 z m -67.078,54.337 c -0.004,-0.118 -0.006,-0.264 -0.008,-0.399 0.003,0.181 0.006,0.303 0.008,0.399 0.004,0.227 0.006,0.329 0,0 z m -1.453,-40.51 c -0.715,0.002 -0.451,0 0,0 z M 156.82,348.147 c 0.371,-0.813 -0.305,0.661 0,0 z m -37.516,55.922 c 3.114,3.655 4.578,8.6 6.788,12.854 -5.554,-1.147 -7.504,-9.226 -6.788,-12.854 z M 106.758,258.128 c 0.016,0.033 0.052,0.101 0.125,0.232 0.277,0.514 0.402,0.746 0.442,0.821 0.022,0.038 0.022,0.039 0,0 -0.089,-0.167 -0.492,-0.912 -0.567,-1.053 -0.016,-0.027 -0.016,-0.027 0,0 z m 0.631,-1.972 c 0.06,0.677 0.053,0.615 0,0 z m 129.479,-116.68 c -0.285,-1.185 -0.215,-0.893 0,0 z m -0.326,-69.461 c -0.251,-0.139 -1.468,-0.807 0,0 z m -10.074,24.008 c -0.033,0.045 0.618,-1.233 0.902,-1.48 0.155,0.62 -0.397,0.785 -0.902,1.48 z m 4.333,24.08 c 0.284,0.031 0.108,0.012 0,0 z m 7.403,-7.907 c -3.088,-0.499 -6.503,0.903 -7.728,-3.394 2.988,-0.413 6.209,0.621 7.728,3.394 z"
   id="path96" />
	<path
   fill-rule="evenodd"
   clip-rule="evenodd"
   fill="#ef9e9e"
   d="m 107.389,256.156 c 0.053,0.615 0.06,0.677 0,0 z"
   id="path98" />
	<path
   fill-rule="evenodd"
   clip-rule="evenodd"
   fill="#ef9e9e"
   d="m 169.492,231.825 c -0.451,0 -0.715,0.002 0,0 z"
   id="path100" />
	<path
   fill-rule="evenodd"
   clip-rule="evenodd"
   fill="#fce8e8"
   d="m 37.684,56.641 c 7.937,0.266 10.44,17.282 8.913,23.224 -2.525,9.825 -10.034,18.387 -13.255,28.07 -3.352,10.071 -2.285,22.349 -2.245,32.887 0.042,11.379 3.167,22.349 6.101,33.253 -0.917,-14.482 -3.591,-28.674 -1.652,-43.207 1.159,-8.69 3.248,-18.886 8.513,-26.107 4.895,-6.715 15.711,-14.39 21.78,-4.592 4.526,7.308 5.213,19.713 3.958,28.03 -2.876,19.063 -6.719,36.832 9.522,50.948 -1.716,-3.387 -3.754,-6.678 -5.177,-10.338 2.972,1.255 17.612,5.697 13.685,10.805 4.435,0.347 6.71,5.697 9.233,8.884 0.086,-4.97 -3.75,-27.384 7.778,-18.622 6.599,5.017 10.128,14.49 14.238,21.393 -1.818,-4.274 -3.711,-10.402 -1.582,-14.885 -11.183,0.215 -11.129,-36.846 -10.594,-44.188 0.217,-2.969 0.47,-7.225 2.12,-9.823 1.164,-1.833 3.248,-2.078 4.251,-4.276 2.629,-5.762 -0.179,-15.654 5.25,-19.614 5.129,-3.741 15.773,-1.954 21.47,-1.235 11.875,1.498 22.591,-13.364 32.821,-2.474 0.993,-0.854 2.323,-1.43 3.19,-2.104 4.303,3.387 5.616,6.371 7.807,10.103 2.125,3.619 1.156,7.209 5.345,9.882 0.327,-0.285 0.542,-0.639 0.645,-1.058 1.666,1.254 3.523,3.455 4.796,4.999 0.059,0.074 -8.905,-0.063 -9.488,0.023 -3.256,0.482 -5.422,2.502 -9.106,1.733 -1.519,-0.316 -6.118,-1.161 -7.608,-2.435 -2.658,-2.277 -1.533,-7.372 -3.56,-9.763 -1.862,-2.198 -3.208,-0.794 -6.342,-0.789 0.923,3.167 -0.927,7.375 -4.423,4.441 -2.59,4.756 5.579,4.259 8.193,4.837 3.219,0.709 5.642,3.165 8.698,4.24 3.654,1.285 5.913,-0.033 9.506,-0.042 2.243,-0.007 6.39,2.768 4.379,5.234 -0.715,-0.4 -2.187,-0.518 -2.729,-0.848 2.407,4.814 6.984,9.639 7.23,15.208 -1.243,-0.06 -2.42,-0.278 -3.446,-1.135 0.434,2.148 1.25,6.7 -1.149,7.676 1.854,1.759 4.07,4.45 0.91,5.917 2.416,2.935 2.23,7.826 1.45,11.353 0.816,-2.458 1.4,-8.268 4.387,-7.886 -5.984,-6.677 6.133,-13.045 11.229,-14.155 8.949,-1.952 8.385,7.722 8.631,14.062 0.502,12.929 -0.949,22.761 -9.95,32.549 6.122,-6.656 14.962,-12.809 21.864,-19.275 11.961,-11.202 17.043,-3.405 28.498,4.818 -4.546,-6.204 -4.887,-13.047 -7.814,-19.461 -3.746,-8.208 -10.596,-14.793 -14.239,-23.321 -2.585,-6.048 -13.396,-18.114 -11.047,-25.125 0.498,-1.487 1.611,-1.733 2.657,-2.972 2.587,-3.07 4.458,-6.642 6.954,-9.76 -1.72,4.62 5.405,5.469 7.381,10.079 5.623,-5.24 -1.52,-8.86 -4.291,-13.32 -1.254,-2.018 -1.753,-4.611 -3.659,-5.943 -4.376,-3.053 -9.229,-1.427 -13.61,-5.25 -2.154,-1.879 -9.223,-8.953 -7.367,-12.458 0.002,-0.003 0.933,1.095 0.958,1.089 0.107,-0.967 -0.386,-2.066 0.065,-2.993 4.237,0.563 7.807,3.836 11.66,4.857 -0.377,-3.552 -3.104,-6.754 -5.706,-9.11 7.293,7.319 20.688,-4.425 29.266,-6.921 13.231,-3.851 25.807,2.206 38.513,-1.855 2.499,-0.799 -6.564,-4.92 -6.467,-4.884 -2.205,-0.798 -8.819,0.08 -11.402,-0.008 C 253.01,44.634 242.857,44.175 232.394,46.622 216.163,50.417 206.283,41.704 192.847,32.54 174.072,19.734 156.368,9.203 133.243,8.119 110.831,7.068 91.51,13.133 72.239,23.781 56.623,32.41 39.775,40.614 29.551,56.026 c -3.104,4.681 -5.084,10.075 -7.944,14.75 2.847,-4.661 9.85,-14.343 16.077,-14.135 z"
   id="path102" />
	<path
   fill-rule="evenodd"
   clip-rule="evenodd"
   fill="#e7d7ce"
   d="m 236.542,70.015 c -1.468,-0.807 -0.251,-0.139 0,0"
   id="path104" />
	<path
   fill-rule="evenodd"
   clip-rule="evenodd"
   fill="#e7d7ce"
   d="m 226.468,94.023 c -0.033,0.045 0.618,-1.233 0.902,-1.48 0.155,0.62 -0.397,0.785 -0.902,1.48"
   id="path106" />
	<path
   fill-rule="evenodd"
   clip-rule="evenodd"
   fill="#e7d7ce"
   d="m 230.476,106.802 c 2.988,-0.414 6.209,0.621 7.728,3.394 -3.088,-0.498 -6.503,0.904 -7.728,-3.394"
   id="path108" />
	<path
   fill-rule="evenodd"
   clip-rule="evenodd"
   fill="#e7d7ce"
   d="m 230.801,118.103 c 0.108,0.012 0.284,0.031 0,0"
   id="path110" />
	<path
   fill-rule="evenodd"
   clip-rule="evenodd"
   fill="#e7d7ce"
   d="m 236.868,139.476 c -0.285,-1.185 -0.215,-0.893 0,0"
   id="path112" />
	<path
   fill-rule="evenodd"
   clip-rule="evenodd"
   fill="#e7d7ce"
   d="m 253.477,172.654 c 0.281,0.906 0.454,1.848 1.011,2.671 -1.085,-0.933 -0.868,-2.213 -1.011,-2.671"
   id="path114" />
	<path
   fill-rule="evenodd"
   clip-rule="evenodd"
   fill="#e7d7ce"
   d="m 238.023,217.998 c 0.153,-0.531 0.253,-0.873 0,0"
   id="path116" />
	<path
   fill-rule="evenodd"
   clip-rule="evenodd"
   fill="#e7d7ce"
   d="m 169.492,231.825 c -0.451,0 -0.715,0.002 0,0"
   id="path118" />
	<path
   fill-rule="evenodd"
   clip-rule="evenodd"
   fill="#e7d7ce"
   d="m 170.937,271.936 c 0.01,0.465 0.022,1.123 0,0"
   id="path120" />
	<path
   fill-rule="evenodd"
   clip-rule="evenodd"
   fill="#e7d7ce"
   d="m 42.288,94.275 c -0.309,0.904 -0.067,0.197 0,0"
   id="path122" />
	<path
   fill-rule="evenodd"
   clip-rule="evenodd"
   fill="#e7d7ce"
   d="m 6.362,120.197 c -0.409,-0.468 0.915,1.046 0,0"
   id="path124" />
	<path
   fill-rule="evenodd"
   clip-rule="evenodd"
   fill="#e7d7ce"
   d="m 107.389,256.156 c 0.053,0.615 0.06,0.677 0,0"
   id="path126" />
	<path
   fill-rule="evenodd"
   clip-rule="evenodd"
   fill="#e7d7ce"
   d="m 106.883,258.36 c -0.665,-1.228 1.316,2.438 0,0"
   id="path128" />
	<path
   fill-rule="evenodd"
   clip-rule="evenodd"
   fill="#e7d7ce"
   d="m 48.354,268.758 c 0.456,0.97 0.1,0.212 0,0"
   id="path130" />
	<path
   fill-rule="evenodd"
   clip-rule="evenodd"
   fill="#e7d7ce"
   d="m 156.82,348.147 c 0.371,-0.813 -0.305,0.661 0,0"
   id="path132" />
	<path
   fill-rule="evenodd"
   clip-rule="evenodd"
   fill="#e7d7ce"
   d="m 98.904,383.203 c -0.461,0.489 -1.352,1.438 0,0"
   id="path134" />
	<path
   fill-rule="evenodd"
   clip-rule="evenodd"
   fill="#e7d7ce"
   d="m 97.387,404.215 c -0.441,0.737 -0.15,0.251 0,0"
   id="path136" />
	<path
   fill-rule="evenodd"
   clip-rule="evenodd"
   fill="#e7d7ce"
   d="m 119.304,404.069 c 3.114,3.655 4.578,8.6 6.788,12.854 -5.554,-1.147 -7.504,-9.226 -6.788,-12.854"
   id="path138" />
	<path
   fill-rule="evenodd"
   clip-rule="evenodd"
   fill="#ef9e9e"
   d="m 69.483,288.581 c -0.24,-3.15 -0.819,-6.375 -1.188,-9.473 -1.891,-15.846 -13.343,-26.052 -17.237,-41.688 -1.617,-6.491 0.015,-11.383 -3.372,-16.611 -3.193,-4.93 -9.972,-6.788 -11.999,-13.312 0.583,9.623 2.553,18.79 6.459,27.658 4.013,9.114 8.741,17.553 11.455,27.105 3.685,12.975 2.012,26.427 2.612,39.971 5.328,0.154 1.686,4.967 3.845,8.328 1.27,1.978 6.167,3.123 8.078,3.783 0.402,-7.829 1.765,-16.742 1.425,-24.479 -0.018,-0.425 -0.045,-0.852 -0.078,-1.282 z"
   id="path140" />
	<path
   fill-rule="evenodd"
   clip-rule="evenodd"
   fill="#ef9e9e"
   d="m 119.905,111.757 c 3.558,4.802 15.826,-1.572 22.22,0.702 -1.594,4.732 -0.445,11.932 3.621,15.106 -1.079,-4.531 -0.58,-10.944 3.861,-13.402 -0.016,1.696 1.05,1.945 1.639,3.631 2.306,-0.916 4.601,-1.196 6.974,-1.64 -2.142,-1.032 -4.524,-5.237 -5.765,-8.27 2.127,-2.046 7.731,-4.518 10.695,-3.226 3.762,1.639 2.466,5.692 5.053,9.391 -0.262,-4.703 3.969,-4.767 7.078,-2.423 -1.898,-6.941 -8.504,-10.602 -15.143,-11.521 -0.025,-7.119 16.584,-0.27 20.208,1.783 -1.567,-8.488 -7.54,-10.394 -15.454,-11.461 -7.363,-0.993 -9.965,2.706 -17.422,4.255 -6.771,1.406 -13.982,0.02 -20.802,0.366 -12.707,0.648 -13.758,12.94 -16.054,22.642 3.598,-1.166 5.998,-4.048 9.291,-5.933 z"
   id="path142" />
	<path
   fill-rule="evenodd"
   clip-rule="evenodd"
   d="m 15.261,83.672 c -0.091,0.373 -0.742,3.568 0.145,2.96 0.375,-0.258 0.887,-3.449 1.084,-4.009 1.257,-3.584 2.5,-7.167 3.958,-10.675 2.759,-6.635 6.423,-12.626 10.844,-18.277 4.332,-5.535 9.489,-11.327 15.708,-14.802 6.092,-3.406 12.353,-6.74 18.476,-10.179 6.579,-3.694 13.006,-7.975 19.779,-11.285 6.385,-3.119 13.354,-5.054 20.403,-5.955 14.348,-1.834 29.311,-3.574 43.562,-0.324 7.412,1.691 13.4,5 20.122,8.362 6.983,3.492 13.103,7.485 19.408,12.078 10.345,7.532 21.578,17.957 35.132,17.032 6.564,-0.447 12.816,-3.693 19.37,-3.511 7.799,0.217 15.557,0.864 23.33,1.507 7.641,0.63 14.623,2.095 22.092,3.752 3.588,0.798 7.134,1.619 10.639,2.728 1.239,0.392 1.741,0.443 2.347,1.498 0.142,0.245 -0.112,1.506 0.252,1.481 1.942,-0.132 -1.337,-3.446 -2.022,-3.718 -2.683,-1.074 -5.938,-1.639 -8.779,-2.224 -7.301,-1.505 -14.205,-3.507 -21.669,-4.089 -7.599,-0.593 -15.237,-1.391 -22.838,-1.83 -6.94,-0.401 -13.451,2.479 -20.172,3.702 -2.368,0.43 -5.735,0.589 -7.546,-0.704 -0.352,-0.251 -0.934,-0.234 -1.354,-0.234 -0.634,0 -1.572,-0.97 -2.129,-1.33 -1.206,-0.778 -2.803,-0.756 -4.2,-0.881 -2.897,-0.259 -6.702,-4.088 -8.926,-5.689 -2.997,-2.158 -6.042,-4.253 -9.094,-6.336 C 186.779,28.353 180.146,24.282 173.484,20.321 166.816,16.356 160.296,12.734 152.72,10.854 137.814,7.155 122.489,7.925 107.37,9.933 99.976,10.915 92.825,12.692 86.057,15.865 79.156,19.101 72.605,23.458 65.97,27.215 54.54,33.688 42.434,38.892 33.856,49.051 25.349,59.126 18.667,70.833 15.261,83.672 m 303.766,-17.51 c -1.008,-1.934 -2.897,-3.09 -4.495,-4.495 -1.524,-1.339 -2.746,-3.546 -4.813,-4.037 -5.136,-1.216 -10.285,-1.472 -14.593,-4.934 -0.168,3.411 10.673,5.187 13.074,5.46 2.898,0.329 3.892,2.317 5.944,4.225 1.186,1.102 4.082,2.626 4.091,4.178 -7.308,-0.605 -14.729,-4.145 -21.632,-6.463 -6.962,-2.338 -13.847,-4.244 -21.143,-5.252 -7.062,-0.977 -15.252,-3.019 -22.363,-2.13 -3.552,0.444 -6.555,0.613 -9.912,2.095 -3.193,1.41 -5.953,3.344 -8.521,5.685 -1.81,1.651 -3.867,5.572 -6.085,5.849 -1.125,0.141 0.734,3.966 -2.563,3.683 0.552,0.494 1.383,0.442 2.021,0.036 1.294,-0.822 0.289,-1.417 0.795,-2.527 0.259,-0.569 1.776,-1.735 2.455,-2.635 3.938,-5.234 10.594,-10.328 17.222,-11.264 7.459,-1.052 14.994,0.32 22.359,1.376 6.976,0.999 14.309,1.669 20.971,4.082 5.264,1.907 10.56,3.689 15.885,5.41 1.525,0.489 11.39,4.469 11.303,1.658 m -82.431,3.285 c 7.433,-2.228 14.839,-2.885 22.548,-1.976 3.167,0.375 6.894,0.828 9.912,1.868 1.411,0.485 2.766,1.205 3.946,2.116 1.359,1.049 1.287,-0.36 0.423,-1.141 -2.074,-1.873 -6.501,-2.238 -9.117,-2.762 -3.449,-0.69 -7.046,-1.151 -10.562,-1.318 -7,-0.33 -13.784,0.952 -20.148,3.827 0.933,0.736 2.518,0.209 3.612,0.072 -0.485,-0.164 -1.137,-0.302 -1.697,-0.361 0.349,-0.165 0.703,-0.26 1.083,-0.325 m 67.339,-5.92 c -2.791,-1.159 -4.643,7.348 -5.889,9.342 -2.893,4.626 -6.382,8.949 -9.749,13.257 -2.425,3.103 -6.153,7.615 -10.071,8.791 -2.234,0.671 -4.206,1.266 -6.579,1.344 -1.461,0.05 -4.426,-1.01 -5.371,-0.533 0.59,-2.46 -2.054,-2.773 -2.727,-5.017 -0.289,-0.966 -0.921,-3.298 -1.425,-4.008 -0.815,-1.147 -2.479,-1.325 -3.232,-2.726 -0.204,-0.38 -0.233,-2.022 -0.669,-1.86 -0.896,0.337 0.297,2.318 0.65,2.672 0.994,0.994 2.521,1.833 2.835,3.195 0.308,1.333 0.997,2.554 1.787,3.665 1.35,1.896 3.168,3.787 1.227,5.921 -1.25,1.375 -3.802,2.604 -5.451,3.43 -6.1,3.05 -13.922,1.916 -19.668,-1.555 -0.744,-0.451 -1.176,-0.642 -1.418,-1.226 -1.199,1.041 -2.085,2.883 -2.239,4.622 -0.091,1.03 0.35,2.94 -0.396,4.223 -1.531,-0.699 -5.174,-2.098 -5.597,-0.071 -0.268,1.281 0.659,2.799 -0.03,4.304 -1.185,2.583 -0.223,4.24 -0.223,6.726 0,0.257 3.475,2.236 3.972,2.436 -0.314,-0.642 -0.815,-1.071 -1.392,-1.51 -1.422,-1.084 -0.586,-0.354 -0.052,-1.269 0.587,-1.008 1.313,-1.548 1.731,-2.6 0.629,-1.58 -0.051,-3.208 1.05,-4.425 1.159,-1.281 3.462,0.363 4.439,1.247 -0.786,-0.708 -0.366,-1.439 -0.867,-2.274 -0.645,-1.074 -1.922,-1.729 -2.238,-2.816 -0.309,-1.064 0.797,-2.607 0.596,-3.051 -0.714,-1.571 0.066,-3.243 1.065,-4.603 2.197,1.997 4.837,2.417 7.615,3.181 3.088,0.849 6.027,1.752 9.246,0.972 3.702,-0.899 10.264,-3.455 11.338,-7.365 3.646,2.981 11.031,0.614 14.389,-1.625 3.801,-2.533 6.115,-6.017 9.172,-9.351 3.178,-3.467 6.722,-7.782 8.937,-11.932 1.102,-2.066 2.134,-4.066 2.779,-6.336 0.351,-1.232 0.493,-3.078 2.311,-2.599 -0.07,-0.083 0.003,0.441 0,0.433 0.773,-0.557 0.273,-0.563 0.144,-1.009 m -73.008,54.551 c -0.343,-0.12 -0.001,-0.001 0,0 m 5.489,-10.037 c 0.827,0.535 1.22,1.312 1.77,2.094 -1.345,-0.644 -2.945,-1.469 -4.333,0.506 -0.817,-1.165 -4.275,-2.115 -3.321,-3.718 0.497,-0.84 5.215,0.055 5.884,1.118 M 101.196,90.458 c -1.977,1.359 -2.012,4.371 -0.976,6.427 0.233,-0.976 -0.252,-1.725 -0.252,-2.744 0,-1.737 0.832,-2.074 1.485,-3.505 0.998,-2.183 2.521,-4.129 3.768,-6.17 0.468,-0.764 0.613,-1.667 1.065,-2.419 0.511,-0.849 1.532,-1.373 2.058,-2.237 0.405,-0.666 0.211,-1.282 0.614,-2.023 0.326,-0.597 1.145,-1.014 1.408,-1.587 0.039,-0.083 0.071,-0.997 0.071,-1.282 0,-1.003 1.436,-2.763 1.878,-3.88 1.085,-2.73 1.908,-5.582 2.998,-8.304 2.409,-6.021 8.149,-10.597 12.779,-15.057 7.583,-7.305 18.361,-9.067 28.434,-7.417 4.854,0.796 9.837,0.203 14.627,1.193 2.162,0.448 4.414,-0.25 6.642,0.259 1.741,0.397 2.753,0.584 4.388,-0.242 -0.672,-0.358 -1.216,0.01 -1.949,-0.036 -1.558,-0.099 -2.977,-0.614 -4.557,-0.614 -3.166,0 -6.271,-0.397 -9.471,-0.397 -6.736,0 -13.281,-1.397 -20.059,-1.228 -6.254,0.157 -12.464,3.211 -17.422,6.893 -2.675,1.988 -5.058,4.95 -7.346,7.369 -2.055,2.171 -4.862,4.658 -6.139,7.328 -2.497,5.219 -3.985,11.525 -6.535,16.282 -0.671,1.252 -0.646,2.212 -1.787,3.223 -0.744,0.659 -1.188,1.401 -1.57,2.084 -1.055,1.878 -4.63,6.214 -4.152,8.084 m 72.755,2.925 c 1.744,-0.271 3.354,-0.991 4.947,-1.732 -0.133,0.024 -0.265,0.048 -0.397,0.072 5.738,-3.142 9.703,-6.929 12.292,-12.872 2.53,-5.801 1.295,-14.199 -1.115,-19.776 -1.592,-3.687 -3.144,-7.373 -4.575,-11.126 -0.337,-0.881 -2.663,-8.045 -3.677,-5.651 -0.101,0.238 1.052,1.964 1.227,2.383 0.691,1.654 1.217,3.379 1.881,5.044 1.52,3.81 3.016,7.627 4.504,11.449 2.054,5.272 2.696,11.777 0.691,17.19 -1.102,2.981 -2.322,5.301 -4.62,7.582 -2.384,2.367 -5.269,4.568 -8.449,5.776 -3.485,1.324 -6.979,-0.2 -10.489,-0.957 -2.313,-0.499 -5.037,-1.408 -7.082,-0.896 -0.908,0.227 -1.795,1.204 -2.586,1.726 -1.698,1.113 -3.482,2.025 -5.378,2.75 -3.083,1.179 -6.412,1.819 -9.717,1.819 -8.232,0 -16.302,0.531 -24.537,1.104 -1.834,0.129 -3.68,0.202 -5.51,0.376 -1.302,0.123 -2.492,-0.518 -3.683,-0.254 -1.052,0.234 -8.263,3.25 -6.733,-0.505 -1.878,0.573 -1.999,4.242 -1.583,5.912 1.08,4.327 3.95,3.144 6.854,1.381 1.489,-0.904 2.967,-1.816 4.44,-2.744 1.145,-0.72 3.313,-2.67 4.584,-2.713 3.496,-0.118 6.979,-0.265 10.436,-0.825 3.539,-0.572 6.682,-0.901 10.273,-0.614 3.596,0.287 7.281,0.362 10.814,-0.468 3.219,-0.757 6.438,-2.197 9.359,-3.729 0.789,-0.414 3.572,-2.496 4.287,-2.138 1.397,0.698 3.058,0.728 4.548,1.148 0.073,0.02 0.146,0.041 0.22,0.062 -2.223,0.089 -4.376,1.522 -6.5,2.112 -2.407,0.669 -4.852,1.366 -6.355,3.376 -1.64,2.191 -3.223,7.12 -1.695,9.747 -0.022,0.065 0.256,-0.143 0.252,-0.144 -0.805,-1.689 0.291,-4.559 0.865,-6.246 1.031,-3.029 2.07,-3.669 4.746,-4.853 2.78,-1.229 5.566,-2.765 8.651,-2.945 3.306,-0.193 5.573,1.467 8.377,2.383 -0.758,-0.812 -1.638,-1.474 -2.601,-2.022 1.014,-0.037 2.028,-0.044 3.034,-0.182 m -60.732,5.741 c -3.293,1.625 -6.03,4.237 -9.497,5.451 -1.401,0.492 -2.081,0.783 -2.906,-0.704 -0.804,-1.446 -0.836,-3.576 -0.452,-5.144 0.994,0.739 0.964,1.264 2.375,1.264 1.116,0 2.754,-1.04 3.923,-1.325 2.231,-0.542 4.941,0.026 7.278,0.062 -0.239,0.13 -0.48,0.263 -0.721,0.396 M 197.853,77.39 c -0.673,0.193 -1.348,0.385 -2.021,0.578 2.061,0.404 3.07,-0.818 2.165,-2.671 -0.596,0.646 0.015,1.264 -0.144,2.093 m 27.659,4.477 c -2.25,-1.135 -4.794,-1.544 -7.156,-2.377 -1.285,-0.454 -2.559,-0.964 -3.785,-1.558 -0.917,-0.444 -2.352,-1.822 -2.708,-0.47 -0.8,-1.137 -0.668,-1.643 -0.759,-2.852 -2.067,0.873 0.896,5.253 1.806,3.502 2.508,1.411 5.084,1.524 7.799,2.274 2.938,0.811 5.574,2.195 8.019,3.994 2.184,1.608 2.221,3.914 3.606,6.026 1.365,2.083 3.147,3.598 5.454,4.565 -2.384,-2.399 -4.336,-4.624 -5.813,-7.726 -1.218,-2.558 -3.831,-4.129 -6.463,-5.378 m 7.581,-3.683 c -1.034,-2.122 -2.442,-4.244 -4.136,-5.901 -0.628,-0.615 -2.51,-2.61 -1.714,-0.596 0.405,1.023 1.923,2.167 2.63,3.05 3.193,3.992 4.742,8.872 5.134,13.917 2.117,-0.92 -1.181,-8.974 -1.914,-10.47 m 0.578,20.94 c -1.278,-1.835 -4.797,-4.04 -6.97,-4.476 0.596,-0.449 2.289,-1.988 1.445,-2.726 -0.905,-0.792 -3.081,2.016 -3.444,2.7 -1.2,2.256 -3.429,10.251 -6.27,9.447 2.148,1.706 3.237,-2.902 4.009,-4.422 1.287,-2.532 2.912,-5.132 4.91,-7.166 0.084,0.084 0.169,0.169 0.253,0.253 -1.707,1.203 -2.176,2.888 0.361,2.888 1.479,0 4.399,2.681 5.706,3.502 m -13.829,11.625 c 0.093,0.927 -0.126,1.675 0.758,2.058 -0.076,-1.708 -0.434,-3.386 -0.938,-5.018 -0.951,0.73 -1.061,2.782 -1.048,4.008 -0.381,-1.303 -1.218,-2.299 -2.419,-2.924 0.624,0.716 2.012,3.823 2.636,3.465 0.563,-0.322 0.108,-2.775 0.831,-3.61 0.027,0.674 0.112,1.347 0.18,2.021 m 15.707,-13.034 c -0.075,0.387 -0.07,0.75 0.648,0.939 -0.135,-0.361 -0.365,-0.649 -0.648,-0.939 m 26.323,95.023 c -0.732,-6.062 -3.17,-11.252 -6.573,-16.248 2.146,1.956 0,-1.244 0,-1.498 0,-0.924 -0.972,-2.689 -1.334,-3.628 -1.143,-2.958 -3.436,-5.25 -4.78,-8.131 -1.141,-2.441 -2.52,-5.529 -3.056,-8.079 -0.249,-1.186 -0.021,-1.996 -0.649,-3.141 -0.394,-0.714 -1.668,-1.719 -1.879,-2.527 -0.227,-0.873 0.504,-3.426 0.551,-4.48 0.079,-1.812 0.136,-3.621 0.136,-5.434 0,-2.961 -0.103,-6.032 -1.498,-8.696 -1.415,-2.698 -4.129,-4.604 -5.402,-7.573 -1.296,-3.023 -2.127,-6.202 -2.127,-9.511 0,-0.428 -0.373,-0.648 -0.759,-0.335 -0.326,0.266 -0.148,1.701 -0.168,2.064 -0.092,1.703 0.258,2.735 0.603,4.361 0.68,3.21 2.46,6.078 4.387,8.719 0.892,1.22 2.443,2.439 2.942,3.881 0.446,1.287 0.347,3.004 0.507,4.362 0.467,3.965 0.216,7.976 0.251,11.956 -3.068,-4.354 -5.129,-9.481 -6.126,-14.667 -0.307,-1.592 -0.834,0.792 -0.789,1.417 0.093,1.237 0.362,2.262 0.741,3.358 0.936,2.7 2.169,6.306 3.863,8.665 1.563,2.175 4.296,4.309 4.658,6.968 0.403,2.954 1.27,5.813 2.6,8.484 2.098,4.215 5.097,7.8 6.5,12.239 -3.754,-5.299 -7.443,-9.724 -13.289,-12.816 -3.69,-1.954 -10.319,-1.72 -14.008,0.758 -5.544,3.723 -9.427,9.789 -14.341,14.213 -3.913,3.521 -9.015,6.512 -11.584,11.239 0.139,-0.006 0.291,-0.081 0.433,-0.072 -3.408,4.177 -3.804,8.29 -0.252,12.31 1.838,2.083 3.834,4.52 4.766,7.113 0.863,2.404 1.282,4.474 2.962,6.499 -3.653,-1.397 -6.996,-4.755 -9.987,-7.196 -1.523,-1.244 -2.816,-2.69 -4.475,-3.777 -1.695,-1.107 -3.575,-1.693 -5.29,-2.674 -3.193,-1.826 -5.57,-5.384 -6.571,-8.88 -0.118,-0.413 -0.228,-2.405 -0.433,-2.563 -0.563,-0.432 -0.971,0.088 -0.992,0.614 -0.076,1.805 0.459,3.552 1.316,5.127 -3.016,-0.396 -5.174,-3.072 -6.25,-5.657 -1.315,-3.157 -3.033,-6.448 -4.221,-9.471 0.01,0.023 0.361,-0.295 0.254,-0.542 -0.297,-0.67 -0.908,-1.328 -1.445,-1.805 -1.113,-0.989 -2.461,-1.583 -3.953,-1.644 -1.426,-0.057 -1.438,0.332 -0.162,0.687 1.063,0.297 2.997,0.867 3.646,1.86 0.312,0.476 0.416,2.097 0.762,2.788 0.73,1.459 1.487,2.892 2.131,4.395 1.001,2.334 1.939,6.244 3.975,7.739 2.607,1.912 5.135,3.064 7.539,5.261 2.234,2.041 4.943,3.358 7.402,5.089 2.06,2.694 4.94,8.217 8.981,9.461 0.999,0.308 1.993,0.48 3.043,0.413 1.26,-0.081 1.646,0.667 2.742,1.282 1.177,0.661 2.773,1.303 4.152,1.263 1.196,-0.034 0.844,-0.537 1.874,-0.415 3.169,0.376 6.33,0.766 9.49,1.217 2.012,0.283 1.828,0.247 2.972,1.329 1.132,1.071 2.051,1.924 3.646,2.239 1.571,0.311 3.026,-0.078 3.647,-1.662 0.439,-1.117 -0.498,-2.98 1.226,-2.314 1.306,0.506 2.684,0.753 4.082,0.762 -1.16,2.395 -2.494,4.309 -4.659,5.85 -1.821,1.295 -3.475,1.49 -5.319,2.196 -3.062,1.169 -6.729,0.78 -9.701,-0.573 -1.716,-0.78 -3.137,-1.821 -4.521,-3.091 -0.766,-0.704 0.3,1.183 0.875,1.611 -1.913,-1.177 -4.271,-2.467 -6.499,-2.815 1.887,1.186 3.774,2.369 5.704,3.483 0.688,0.397 4.667,2.861 3.54,1.247 1.862,0.921 3.724,1.563 5.776,1.912 -2.961,1.061 -5.951,2.169 -9.02,2.882 -1.602,0.372 -2.747,1.065 -4.377,1.288 -1.548,0.211 -2.957,0.777 -4.224,1.679 -0.29,-1.624 -2.403,-0.227 -3.502,0.071 -0.157,-1.193 -0.861,-1.412 -1.661,-2.202 -1.317,-1.3 -1.565,-1.87 -3.07,-1.082 -0.785,0.413 -1.033,0.931 -2.094,1.191 -1.803,0.442 -3.431,0.728 -5.235,1.372 -0.269,-1.291 -0.686,0.186 -1.148,0.262 -1.559,0.262 -3.092,0.414 -4.674,0.36 -3.098,-0.103 -6.346,-0.563 -9.379,-1.2 -6.978,-1.463 -14.617,-3.06 -21.158,-5.922 0.479,-0.916 -1.613,-0.771 -2.237,-1.139 -2.165,-1.273 -4.134,-2.759 -6.015,-4.422 -3.667,-3.239 -7.098,-6.881 -10.381,-10.503 -3.787,-4.177 -7.52,-8.403 -11.265,-12.62 -1.569,-1.766 -3.138,-3.532 -4.707,-5.3 -0.333,-0.374 -0.531,-2.374 -0.708,-2.876 -1.186,2.706 0.339,4.404 2.25,6.445 3.24,3.459 6.405,6.978 9.53,10.543 6.053,6.893 12.169,14.387 20.104,19.187 -13.425,-0.376 -25.711,-4.229 -35.634,-13.533 -5.006,-4.692 -8.894,-10.165 -13.073,-15.568 -2.284,-2.952 -5.415,-11.822 -9.39,-12.488 2.415,1.415 4.156,5.278 5.557,7.649 1.971,3.334 4.345,6.404 6.626,9.53 3.89,5.332 8.236,10.364 13.35,14.557 1.294,1.061 2.63,2.037 4.039,2.939 1.462,0.938 0.955,1.535 0.288,3.015 -1.13,2.517 -4.402,4.478 -6.365,6.798 -4.295,5.076 -5.406,11.582 -6.974,17.852 -0.508,2.031 -1.053,4.047 -1.639,6.058 -0.597,2.044 -0.163,4.243 -0.62,6.19 0.064,0.045 0.136,0.058 0.216,0.037 0.084,-0.206 0.169,-0.41 0.253,-0.615 -0.414,6.165 2.096,12.46 3.36,18.408 1.252,5.904 2.281,12.001 3.918,17.673 1.776,6.156 4.718,11.991 4.514,18.495 -0.212,6.764 0.407,13.388 0.882,20.119 -0.024,-0.071 0,-0.096 0.072,-0.071 0.059,-0.243 0.106,-0.308 0.18,-0.505 0.623,6.248 0.074,12.808 1.589,18.736 1.631,6.389 3.885,12.823 5.376,19.351 0.688,3.013 0.984,6.55 2.107,9.395 1.337,3.39 2.919,6.742 4.034,10.208 0.475,1.479 0.879,3.028 1.077,4.566 0.144,1.114 -0.055,1.646 -0.174,2.476 -0.083,0.587 -0.405,1.052 -0.235,1.678 0.354,1.301 1.281,2.581 1.692,3.945 0.515,1.716 1.007,3.438 1.684,5.099 0.915,2.247 1.014,3.409 -0.361,5.488 -1.261,1.909 -3.34,3.439 -5.451,4.296 -1.058,0.43 -3.027,1.174 -4.082,0.362 -0.803,-0.62 -1.8,-3.347 -2.273,-4.295 -1.369,-2.74 -2.071,-6.897 -4.37,-8.991 -0.521,-0.476 -1.614,-1.468 -2.419,-0.867 -0.957,0.711 0.144,2.86 0.379,3.683 0.543,1.892 1.07,3.787 1.595,5.684 0.334,1.213 1.362,3.686 1.023,4.895 -0.489,1.742 -4.761,1.987 -6.464,1.984 -2.923,-0.005 -5.972,-0.85 -8.738,-1.731 -3.312,-1.057 -5.821,-2.234 -6.787,-5.614 -0.99,-3.463 -0.488,-7.775 -1.626,-10.994 -0.676,0.623 -0.282,2.614 -0.18,3.61 -3.945,-3.952 -4.002,-8.491 -3.755,-13.754 -1.031,1.225 -0.007,4.773 -2.492,4.334 -2.892,-0.517 -3.804,-5.926 -4.105,-8.214 -0.452,-3.431 -0.614,-6.403 0.098,-9.787 0.65,-3.091 0.83,-6.226 0.83,-9.42 0,-3.829 -1.238,-7.819 -2.006,-11.524 -0.626,-3.031 0.119,-5.642 -0.07,-8.687 -0.458,-7.333 -2.745,-14.571 -4.314,-21.723 -0.364,-1.657 -1.146,-3.749 -1.119,-5.453 0.021,-1.343 0.638,-2.539 0.379,-3.935 -0.559,-2.998 -2.205,-5.918 -3.557,-8.628 -3.262,-6.536 -6.349,-12.901 -8.63,-19.854 0.072,0.082 0.145,0.168 0.217,0.252 -0.42,-3.47 -1.763,-7.17 -2.546,-10.615 -0.809,-3.559 -1.282,-7.292 -2.438,-10.759 -2.296,-6.891 -6.948,-13.088 -9.535,-19.945 -2.663,-7.059 -5.028,-14.191 -6.346,-21.628 -1.141,-6.438 -2.212,-13.103 -3.797,-19.583 -1.792,-7.326 -3.627,-14.631 -5.375,-21.97 -1.731,-7.268 -3.849,-14.424 -4.302,-21.895 -0.926,-15.26 -2.192,-30.116 -0.068,-45.33 1.302,-9.329 5.1,-17.866 9.673,-25.936 -3.96,5.937 -7.214,11.914 -9.01,18.881 -1.863,7.236 -2.576,15.004 -2.762,22.456 -0.189,7.591 0.636,15.162 1.076,22.731 0.412,7.078 0.901,13.974 2.607,20.88 2.091,8.467 4.082,16.949 6.182,25.416 1.146,4.62 2.502,9.191 3.394,13.87 0.407,2.131 0.861,4.291 1.148,6.438 0.132,0.986 0.133,4.318 0.614,4.314 0.596,6.21 2.819,11.783 4.979,17.602 2.101,5.663 4.368,11.293 7.106,16.684 1.277,2.514 3.073,4.887 3.771,7.604 0.74,2.885 1.441,5.783 2.041,8.7 1.162,5.643 2.178,10.895 4.02,16.416 -0.821,0.372 -0.341,4.391 -0.649,5.597 -0.315,1.238 -1.057,2.771 -0.928,4.007 0.351,3.328 0.711,6.653 1.084,9.98 0.284,2.516 -1.38,3.441 -3.514,4.425 0.063,-1.348 1.831,-6.11 1.173,-6.77 -1.753,-1.751 -2.106,7.071 -2.03,8.075 0.124,1.645 -0.175,3.085 -0.218,4.767 -0.021,0.851 -1.83,1.72 -2.573,2.159 -1.906,1.126 -3.94,2.253 -5.669,0.796 -2.964,-2.503 -3.249,-4.673 -3.249,-8.49 0,-0.819 -0.868,-0.585 -0.868,0.023 0,0.838 -0.174,1.699 -0.267,2.533 -0.114,1.028 -0.02,3.025 -1.104,3.568 -1.937,0.967 -5.236,1.787 -7.257,0.523 -2.791,-1.745 -0.776,-6.456 -0.107,-8.978 0.938,-3.535 2.861,-6.587 3.79,-9.979 1.334,-4.863 1.123,-10.367 1.763,-15.357 1.291,-10.037 0.046,-18.914 -1.654,-28.649 0.613,0.83 1.171,1.482 1.335,2.49 1.283,-2.19 -2.64,-6.693 -3.791,-8.484 -1.855,-2.883 -3.094,-6.025 -3.948,-9.332 -1.011,-3.926 -1.512,-7.505 -2.984,-11.172 -2.46,-6.131 -5.311,-12.041 -7.365,-18.342 -0.864,-2.646 -2.216,-5.386 -2.383,-8.159 -0.188,-3.124 -0.087,-5.942 -1.518,-8.844 -0.848,0.653 0.286,7.755 0.532,9.276 0.562,3.481 1.749,7.11 3.044,10.381 2.664,6.73 5.995,13.355 7.962,20.288 1.021,3.597 1.603,7.534 2.904,10.994 1.24,3.296 3.186,6.558 5.174,9.45 1.254,1.823 1.292,6.186 1.688,8.457 0.618,3.551 0.857,7.142 0.933,10.739 0.155,7.48 -1.251,15.139 -1.959,22.575 -0.523,5.484 -3.995,10.624 -5.022,16.326 -0.327,1.815 -0.487,3.364 -0.487,5.312 0,0.961 2.596,2.38 3.302,2.771 1.976,1.089 7.619,-2.8 8.138,-2.164 1.008,1.236 2.094,2.556 3.363,3.541 1.743,1.351 2.897,0.43 4.785,-0.576 1.824,-0.976 4.458,-1.765 4.522,-4.168 0.04,-1.489 -0.067,-3.02 0.046,-4.499 1.642,-0.228 3.522,-1.545 4.477,-2.977 1.001,-1.504 0.054,-5.131 -0.171,-6.99 -0.324,-2.688 -0.446,-5.239 -0.208,-7.941 0.165,-1.887 0.863,-3.105 0.74,-5.017 1.833,4.482 3.971,8.778 6.211,13.069 0.436,0.836 5.583,10.423 3.14,10.543 0.889,0.504 0.137,1.164 0.208,1.978 0.168,1.899 0.652,3.691 1.128,5.531 0.967,3.737 1.725,7.526 2.507,11.305 0.748,3.608 1.519,7.204 1.807,10.885 0.216,2.752 -0.532,5.171 -0.013,7.999 0.656,3.579 1.684,7.126 2.053,10.75 0.362,3.552 -0.167,6.85 -0.741,10.345 -0.821,5.006 -1.249,12.675 2.366,16.915 0.996,1.166 2.545,2.485 4.043,1.3 -0.055,2.146 0.327,4.354 1.424,6.226 0.908,1.552 3.062,2.981 3.295,4.645 0.356,2.536 0.735,5.052 1.231,7.564 0.261,1.33 2.806,2.603 3.916,3.158 3.888,1.944 8.463,3.163 12.837,3.019 3.701,-0.123 6.934,-0.249 6.291,-4.576 1.827,0.928 3.912,2.772 5.814,3.249 2.032,0.508 4.971,-1.364 6.535,-2.491 1.845,-1.328 4.047,-3.519 4.513,-5.848 0.425,-2.125 -1.58,-5.453 -2.26,-7.397 -0.493,-1.404 -1.926,-3.509 -2,-4.952 -0.064,-1.221 0.608,-1.236 0.722,-2.018 0.364,-2.497 -1.057,-5.861 -1.949,-8.197 -2.393,-6.261 -4.225,-12.237 -5.705,-18.808 2.117,2.022 5.684,1.878 8.341,1.155 1.17,-0.318 2.459,-0.763 3.465,-1.482 1.156,-0.824 1.071,-1.529 1.95,-2.598 -0.205,0.803 -0.957,3.555 0.003,3.966 1.407,0.604 2.817,1.122 4.313,1.466 1.678,0.386 5.921,1.373 7.304,-0.011 1.654,-1.653 5.505,-4.187 6.254,-6.358 0.472,-1.367 -0.611,-3.389 -0.926,-4.898 -0.63,-3.019 -1.08,-6.047 -1.273,-9.126 -0.183,-2.926 1.199,-5.51 1.804,-8.616 0.503,-2.581 -0.552,-5.39 -1.101,-7.884 -0.679,-3.088 -1.523,-6.182 -2.042,-9.299 -1.026,3.3 1.157,6.972 1.679,10.211 0.695,4.304 0.449,8.464 -0.523,12.716 0.093,-0.867 0.27,-1.902 -0.035,-2.602 -0.436,2.908 -0.898,5.375 -0.837,8.449 0.044,2.287 0.185,8.013 1.865,9.692 0.666,0.669 -3.647,5.521 -4.46,6.047 -2.551,1.658 -6.91,0.915 -9.546,-0.084 -2.003,-0.76 -1.759,-1.654 -1.433,-3.644 0.305,-1.876 0.658,-3.741 0.959,-5.616 0.121,-0.751 1.229,-4.885 -0.414,-3.473 -0.79,0.68 -1.256,4.116 -1.617,5.126 -1.226,3.42 -1.377,5.172 -4.882,6.427 -2.883,1.032 -5.789,1.645 -8.395,-0.36 -2.119,-1.631 -2.752,-7.897 -3.629,-10.614 1.875,-0.147 2.275,-7.21 2.275,-8.868 0,-0.394 0.32,-3.098 -0.758,-2.071 -0.235,0.223 -0.096,2.08 -0.137,2.466 -0.215,1.997 -0.72,3.873 -1.272,5.803 -3.092,-4.737 -1.455,-8.733 0.96,-13.451 3.319,-6.482 5.381,-12.949 6.515,-20.089 1.214,-7.655 3.096,-15.167 4.276,-22.829 1.068,-6.947 1.293,-14.171 1.235,-21.188 -0.064,-7.819 -0.237,-15.346 1.617,-23.009 0.785,-3.244 1.63,-6.417 1.935,-9.765 0.144,-1.586 0.233,-3.173 0.271,-4.766 0.01,-0.465 0.125,-1.198 -0.561,-0.991 -0.484,0.144 -0.332,2.472 -0.363,2.979 -0.438,7.026 -3.029,13.638 -3.806,20.62 -0.842,7.573 0.148,15.196 -0.326,22.785 -0.688,10.985 -2.814,21.444 -4.764,32.265 -0.509,2.818 -1.019,5.645 -1.609,8.448 -0.484,2.3 -0.697,5.331 -1.684,7.457 -2.247,4.84 -5.484,9.674 -6.403,14.928 -0.852,-3.622 -0.563,-7.455 -0.479,-11.136 0.07,-3.119 -1.023,-5.921 -1.075,-8.976 -0.056,-3.294 -0.567,-6.552 -0.667,-9.852 -0.109,-3.605 0.575,-7.328 -0.163,-10.907 -0.757,-3.675 -2.418,-7.285 -3.539,-10.866 -0.415,-1.33 -1.475,-3.45 -1.299,-4.837 0.147,-1.161 1.447,-3.019 1.913,-4.262 2.451,-6.53 2.782,-13.061 4.188,-19.854 1.408,-6.801 4.79,-12.785 6.536,-19.479 0.842,-3.229 0.51,-6.764 2.231,-9.761 1.071,-1.866 1.369,-1.39 3.31,-0.835 1.467,0.42 3.167,0.369 4.676,0.324 6.755,-0.197 13.722,-0.924 20.364,-2.238 6.781,-1.342 12.244,-3.428 19.172,-2.346 4.223,0.659 7.932,0.725 12.133,-0.073 -1.918,6.815 -4.115,13.472 -7.366,19.786 -3.417,6.633 -7.442,12.929 -10.868,19.566 0.028,-0.259 0.025,-0.498 0.072,-0.759 -0.914,1.326 -1.564,3.292 -1.806,4.875 -0.358,2.369 -0.649,3.795 -1.743,6.283 -0.734,1.671 -2.229,3.441 -2.578,5.026 -0.726,3.303 -1.43,6.6 -1.982,9.939 -2.113,12.777 -3.883,25.788 -4.673,38.717 1.321,-1.485 1.247,-5.153 1.519,-7.022 0.453,-3.13 0.865,-6.261 1.264,-9.399 1.014,-7.979 1.766,-16.059 3.345,-23.954 0.695,-3.474 1.122,-7.106 2.931,-10.168 1.18,-1.992 1.908,-4.242 2.533,-6.461 0.701,-2.494 0.871,-4.913 2.189,-7.274 2.096,-3.747 4.206,-7.473 6.385,-11.172 4.501,-7.645 8.521,-15.505 10.903,-24.097 0.215,-0.777 0.393,-1.567 0.57,-2.353 0.427,-1.884 0.436,-1.723 2.358,-2.086 1.293,-0.245 2.589,-0.459 3.886,-0.676 0.82,-0.137 1.261,-1.029 2.016,-1.119 0.923,-0.109 2.243,1.021 2.89,1.861 0.325,0.422 -0.035,1.302 0.433,1.643 0.662,0.481 2.316,-0.229 2.888,-0.578 -0.834,1.375 0.564,1.287 1.458,0.769 1.212,-0.707 2.127,-1.236 3.517,-1.548 3.364,-0.757 6.513,-1.877 9.757,-3.011 2.777,-0.972 5.748,-2.551 8.646,-2.965 2.539,-0.362 5.894,-1.228 7.639,-3.266 0.702,-0.815 1.545,-1.463 2.203,-2.327 0.784,-1.027 1.144,-2.643 1.95,-3.539 1.486,-1.649 4.72,-1.567 6.932,-2.236 6.656,-2.02 11.009,-8.13 13.884,-14.153 1.546,-3.249 2.065,-5.139 1.641,-8.849 M 124.881,416.354 c -0.884,-0.379 -2.625,-0.896 -3.249,-1.589 -0.682,-0.754 -0.895,-2.849 -1.165,-3.845 -0.279,-1.025 -1.792,-7.148 -1.417,-7.003 1.435,0.552 2.681,3.53 3.265,4.848 1.204,2.729 2.424,5.425 3.759,8.094 -0.388,-0.165 -0.838,-0.28 -1.193,-0.505 m 3.864,-178.742 c -2.042,4.139 -2.682,9.325 -3.68,13.814 -0.99,4.451 -3.636,8.421 -4.868,12.842 -1.336,4.794 -1.619,9.606 -2.29,14.462 -0.252,1.829 -0.886,4.298 -1.438,5.996 -0.365,1.127 -1.558,4.692 -2.348,5.306 -1.182,-5.229 -2.157,-10.504 -3.38,-15.724 -1.391,-5.935 -2.993,-11.733 -3.19,-17.853 -0.098,0.058 -0.183,0.129 -0.253,0.219 0.839,-6.775 2.563,-13.753 4.907,-20.199 0.576,-1.582 1.089,-3.132 1.917,-4.604 0.902,-1.603 1.053,-2.335 2.664,-1.158 3.1,2.264 6.445,3.979 10.011,5.382 -2.586,1.115 -5.224,2.204 -7.908,3.032 -1.622,0.498 -3.16,0.838 -4.874,0.614 -0.649,-0.084 -4.092,-0.728 -1.986,0.325 2.152,1.074 6.146,0.265 8.377,-0.361 1.406,-0.395 2.818,-0.986 4.086,-1.703 2.007,-1.133 2.408,-1.834 4.723,-1.077 -0.157,0.23 -0.314,0.459 -0.47,0.687 m 40.475,-5.848 c -6.125,1.849 -12.646,3.233 -19.062,3.926 -6.438,0.692 -13.075,1.619 -19.5,0.587 1.211,-1.89 -0.944,-0.154 -1.255,-0.273 -1.567,-0.604 -3.134,-1.033 -4.585,-1.913 -3.029,-1.839 -5.567,-3.655 -9.036,-4.637 1.438,-2.196 3.429,-4.067 5.498,-5.661 1.72,-1.324 1.39,-2.184 2.396,-4.041 -0.195,0.359 12.973,4.646 14.491,4.916 2.819,0.498 5.613,0.904 8.474,1.066 1.665,0.094 3.329,0.156 4.995,0.211 0.985,0.033 2.432,1.081 3.376,1.469 1.731,0.708 14.005,4.687 14.208,4.35 m 91.784,-36.825 c -0.413,7.077 -5.855,14.666 -12.061,18.195 -3.499,1.989 -18.523,6.735 -17.258,-1.226 -0.354,0.783 -0.804,0.783 -1.155,1.1 -0.354,0.317 -0.132,1.058 -0.181,1.1 -0.872,0.774 -2.826,1.797 -3.937,2.167 -2.5,0.835 -7.179,-0.504 -10.046,-0.651 -1.795,-0.092 -3.422,-0.171 -5.082,-0.918 -1.788,-0.808 -2.077,-2.074 -3.016,-3.43 -1.451,-2.096 -1.564,-4.955 -3.138,-7.174 -1.536,-2.168 -4.423,-4.074 -5.239,-6.634 -1.055,-3.313 1.424,-7.259 2.994,-10.06 1.146,-2.041 4.396,-3.91 6.25,-5.394 2.014,-1.61 3.651,-3.604 5.506,-5.343 3.983,-3.736 7.211,-8.009 11.445,-11.534 2.135,-1.778 6.334,-2.634 9.05,-2.812 1.604,-0.106 2.778,-0.38 4.161,0.4 1.563,0.881 3.103,1.576 4.699,2.344 2.226,1.072 3.786,2.792 5.098,4.835 1.772,2.756 3.824,5.276 5.698,7.958 3.524,5.04 6.328,10.822 6.212,17.077 m -35.709,-8.159 c -0.778,-2.577 -3.982,-1.611 -5.706,-0.794 -0.548,0.26 -6.245,2.638 -3.501,3.358 -1.108,0.882 0.452,1.5 -0.091,2.347 -0.264,0.408 -1.703,1.5 -1.716,1.948 -0.047,1.708 3.346,2.169 4.657,2.022 3.393,-0.381 7.34,-5.486 6.357,-8.881 m 25.166,9.459 c -2.854,-0.902 -3.756,-4.415 -1.77,-6.643 -0.773,-0.633 -2.128,-0.833 -2.672,-1.335 -0.722,-0.667 -0.333,-1.861 -1.806,-1.95 -2.549,-0.152 -3.478,4.012 -2.636,5.902 0.399,0.9 0.948,1.54 1.372,2.437 0.809,1.72 1.38,2.375 3.304,2.926 1.022,0.291 4.744,0.257 4.208,-1.337 m -97.85,123.831 c -2.195,-0.019 -4.326,-0.321 -6.479,-0.729 -0.416,-0.079 -3.906,-1.287 -3.414,-0.14 0.461,1.079 4.649,1.318 5.705,1.373 1.903,0.101 3.84,-0.14 5.704,-0.505 -0.484,-0.035 -1.016,-0.035 -1.516,10e-4 m -9.893,-2.816 c -0.058,-0.101 -0.101,-0.354 -0.145,-0.469 -1.3,1.429 -2.245,3.608 -3.537,5.198 1.798,-0.71 3.618,-2.795 3.682,-4.729 m 7.041,40.542 c -1.203,1.949 -2.414,1.753 -3.105,-0.216 -0.566,1.01 -1.362,2.105 -2.745,2.167 1.005,0.775 1.679,-0.324 2.493,-0.867 1.341,3.36 3.346,-0.357 3.826,-1.66 -0.274,0.094 -0.299,0.31 -0.469,0.576 m 3.863,-0.288 c -0.665,-0.344 -1.4,-0.655 -2.129,-0.288 0.729,0.682 1.743,0.954 2.635,0.433 -0.191,-0.154 -0.298,-0.064 -0.506,-0.145 m -18.16,-3.25 c -0.717,0.581 -4.258,0.017 -4.262,1.049 -0.002,0.792 2.595,0.319 3.069,0.143 0.842,-0.313 1.394,-0.932 1.95,-1.731 -0.245,0.191 -0.515,0.349 -0.757,0.539 m 93.263,-232.57 c 0.54,-0.667 -0.271,-1.065 -0.831,-1.696 -1.005,-1.131 -1.271,-1.932 -1.48,-3.358 -2.092,1.008 1.728,3.987 2.311,5.054 m -4.514,-6.282 c 0.113,-0.979 -0.557,-1.199 -1.444,-0.939 0.376,-0.861 0.597,-1.791 0.397,-2.743 -0.716,0.802 -0.904,2.35 -0.903,3.5 0.493,-0.105 1.04,-0.069 1.518,-0.252 -1.4,1.462 0.095,3.476 0.432,0.434 m -25.599,-4.441 c 0.19,-3.62 0.617,-7.161 1.299,-10.722 -0.7,1.141 -1.661,5.066 -1.661,6.373 0,0.939 0.098,2.327 -0.288,3.194 -0.334,0.75 -1.043,0.932 -1.047,1.841 -0.854,-1.861 -1.463,-0.696 -0.47,0.758 2.163,3.165 1.293,-0.857 2.167,-1.444 m -35.71,-9.603 c -1.374,0.338 -2.421,-0.396 -3.629,-0.614 -1.633,-0.296 -3.497,1.125 -4.855,1.878 1.493,-0.566 3.098,-1.577 4.729,-1.335 2.474,0.363 3.834,1.238 6.428,0.287 -0.451,-0.6 -1.982,-1.206 -2.021,-0.36 -0.125,0.035 -0.566,0.065 -0.652,0.144 m 4.152,14.585 c 2.027,0.898 2.789,2.379 3.863,4.188 -0.186,-0.549 -0.604,-1.775 -0.613,-1.914 -1.65,-2.593 -2.695,-5.748 -3.502,-8.701 -0.281,-1.035 -0.658,-5.235 -2.131,-5.235 -3.127,0 -5.898,0.703 -8.99,1.246 -1.23,0.216 -3.344,1.041 -4.369,0.324 -0.508,-0.355 -0.404,0.965 0.576,1.102 -1.375,1.85 -2.063,4.159 -2.815,6.282 -0.602,1.701 -1.61,3.209 -1.787,4.981 -0.081,0.816 -0.688,1.645 -0.145,2.492 0.269,0.418 -1.595,2.562 -1.751,3.286 -0.465,2.174 1.012,3.807 2.925,4.584 -1.501,-1.269 -3.048,-2.859 -2.112,-4.945 0.318,-0.711 1.529,-1.462 1.715,-2.059 0.24,-0.772 -0.297,-1.246 -0.289,-1.913 0.034,-2.84 1.838,-5.621 2.963,-8.253 0.344,-0.808 1.479,-2.838 1.479,-3.57 0,-0.482 0.034,-0.989 0.541,-1.029 0.743,-0.059 0.479,1.17 0.641,1.79 0.24,0.915 -0.125,5.514 0.732,5.395 0.621,-0.085 0.23,-2.056 0.396,-2.6 3.795,6.214 8.656,-0.768 6.788,-5.416 1.056,-0.131 3.003,-0.822 3.72,-0.072 0.383,0.4 0.271,1.899 0.434,2.455 0.814,2.811 2.128,5.469 3.502,8.052 -1.621,-1.338 -3.801,-2.313 -5.814,-2.492 -1.16,-0.102 -2.461,0.029 -3.643,0.007 -0.83,-0.017 -3.451,-0.652 -4.119,-0.295 -1.068,0.571 3.98,1.333 4.813,1.393 2.395,0.171 4.776,-0.26 6.992,0.917 m 15.526,-13.791 c -0.047,0.157 -0.097,0.314 -0.145,0.471 1.484,-0.811 0.494,-2.729 0.561,-4.189 0.067,-1.499 -0.775,0.173 -0.85,0.794 -0.113,0.973 0.389,2.016 0.434,2.924 m -2.346,-3.032 c -0.355,-0.89 -0.817,-2.287 -1.518,-2.815 0.174,2.011 1.268,4.303 2.384,5.992 -0.163,-1.077 -0.511,-2.144 -0.866,-3.177 m 4.838,1.517 c -1.053,-1.756 -0.929,1.554 -0.723,2.311 0.694,-0.408 1.127,-1.455 0.723,-2.311 m 8.557,13.321 c 1.286,1.171 2.762,1.526 4.441,1.083 -2.607,-0.482 -4.752,-1.994 -6.175,-4.224 -0.853,0.986 0.287,3.076 0.866,4.079 -1.072,0.076 -3.293,-2.931 -3.856,-3.998 -0.81,-1.524 -2.097,-4.721 -3.51,-5.496 0.342,2.323 2.885,5.187 3.791,7.508 0.121,0.309 1.224,3.703 1.733,3.033 0.292,-0.383 -0.573,-1.938 -0.686,-2.563 0.639,1.181 1.837,1.879 3.177,1.841 -0.592,-0.941 -1.012,-1.961 -1.155,-3.067 0.393,0.65 0.84,1.265 1.374,1.804 m -13.864,15.127 c -0.636,2.415 4.293,6.262 6.173,7.039 -1.636,-1.212 -3.27,-2.41 -4.513,-4.042 -0.553,-0.726 -1.158,-1.544 -1.373,-2.419 -0.076,-0.317 0.591,-0.119 0.543,-0.29 -0.116,-0.416 -0.398,-0.704 -0.578,-1.155 -0.471,-1.178 -1.277,-1.983 -1.48,-3.213 -0.052,-0.312 0.524,-0.219 0.433,-0.541 -0.329,-1.167 -1.696,-2.089 -2.961,-2.094 0.674,-0.311 0.682,-0.498 0.831,-1.047 -2.926,0.792 0.793,1.759 1.48,2.744 -1.091,1.209 1.093,3.859 2.022,4.982 -0.201,-0.017 -0.382,0.025 -0.577,0.036 m 5.307,-10.543 c 0.626,0.222 1.389,0.246 1.77,-0.324 -0.641,0.19 -1.928,-0.39 -2.148,0.271 -0.325,0.97 0.354,2.17 1.064,2.797 -0.865,-0.491 -1.85,-0.84 -2.852,-0.831 1.313,0.329 2.821,1.526 4.008,1.59 -0.682,-0.641 -1.153,-2.537 -1.733,-2.13 -0.447,-0.461 -0.317,-0.831 -0.109,-1.373 m 3.033,37.764 c 0.469,-0.199 0.769,-0.296 0.975,-0.832 -0.749,0.098 -3.387,-0.126 -0.975,0.832 m -1.986,3.249 c 0.549,0.335 1.078,0.423 1.409,0 -0.26,-0.053 -2.085,-1.372 -2.348,-1.227 -0.692,0.382 0.729,2.181 1.048,2.744 -2.397,-1.15 -0.646,3.528 -1.915,4.837 1.838,-0.045 0.817,-2.523 1.3,-3.574 0.277,-0.603 1.241,-0.767 1.012,-1.569 -0.176,-0.615 -0.577,-1.034 -0.506,-1.211 m -2.636,20.182 c 0.042,-0.141 0.157,-0.295 0.252,-0.397 -1.413,0.224 -2.569,2.122 -3.14,3.14 1.055,-0.454 2.238,-1.643 2.888,-2.743 m 1.552,-2.852 c 0.277,-0.172 0.533,-0.387 0.796,-0.579 -1.951,0.453 -2.661,1.398 -3.829,2.708 1.102,-0.483 2.06,-1.414 3.033,-2.129 m -2.817,6.425 c 0.283,-0.427 0.51,-0.903 0.795,-1.335 -1.324,0.655 -2.666,2.22 -2.6,3.754 0.456,-0.876 1.077,-1.56 1.805,-2.419 m -1.046,4.368 c 1.628,-0.003 -0.29,-2.134 -0.47,-1.949 -0.326,0.341 0.417,1.701 0.47,1.949 m -17.656,4.009 c 1.265,1.46 2.957,2.495 4.874,2.815 -1.606,-0.579 -3.135,-1.584 -4.225,-2.905 -0.979,-1.189 -0.553,-2.632 -1.299,-3.773 0.038,1.156 -0.159,2.972 0.65,3.863 M 58.915,65.115 c 3.529,-3.82 7.221,-7.127 11.518,-10.072 -9.358,4.483 -15.489,14.336 -20.184,23.177 3.451,-3.816 5.46,-9.011 8.666,-13.105 M 26.816,199.164 c 4.112,5.705 8.782,11.311 13.491,16.536 0.749,0.828 2.487,3.412 3.534,3.483 1.649,0.109 -0.591,-1.89 -1.08,-2.379 -2.479,-2.479 -4.564,-4.82 -6.692,-7.612 -2.096,-2.749 -4.882,-5.148 -6.8,-7.987 -2.228,-3.301 -4.52,-6.581 -6.534,-10.021 -3.548,-6.058 -6.752,-12.585 -8.853,-19.299 -2.125,-6.804 -2.077,-14.013 -2.753,-21.063 -0.709,-7.391 -1.781,-14.677 -3.046,-21.996 -0.649,-3.763 -1.74,-7.607 -1.74,-11.354 0,-2.295 1.155,-4.869 1.282,-7.157 0.367,-6.604 3.032,-14.057 5.434,-20.271 0.73,-1.888 1.204,-3.616 1.854,-5.497 0.353,-1.018 1.326,-3.2 0.818,-4.017 -0.419,2.706 -2.002,5.336 -2.922,7.982 -1.231,3.538 -2.52,7.05 -3.577,10.646 -1.457,4.957 -3.267,10.49 -3.456,15.562 -0.066,1.769 -0.372,3.396 -0.372,5.27 0,1.307 0.722,3.143 0.982,4.475 0.718,3.673 1.394,7.353 1.959,11.052 1.155,7.56 1.863,15.104 2.222,22.742 0.705,14.978 7.709,28.825 16.249,40.905 M 157.234,81.073 c -1.359,4.568 -3.852,7.514 -7.908,9.963 2.173,1.091 5.373,-2.935 6.427,-4.603 1.645,-2.6 2.353,-5.386 2.132,-8.466 -0.189,1.042 -0.409,2.076 -0.651,3.106 m -13.397,29.387 c -0.35,4.306 -3.215,7.446 -3.383,11.801 -0.103,2.666 2.024,9.236 5.693,8.38 -2.408,-1.819 -4.367,-3.778 -4.799,-6.8 -0.494,-3.454 0.605,-5.81 2.02,-8.814 1.036,-2.203 1.771,-4.538 1.48,-7.004 -0.311,-2.634 -1.096,-4.045 -0.036,-6.804 -2.43,1.452 -0.573,6.878 -0.975,9.241 M 117.119,98.871 c -2.618,5.7 -4.466,12.431 -5.242,18.646 -0.149,1.189 -0.398,2.434 -0.968,3.502 -0.323,0.604 -1.212,1.35 -1.282,2.039 -0.29,2.9 -2.295,6.247 -3.015,9.17 1.447,-2.389 2.285,-6.086 3.381,-8.783 0.544,-1.339 1.741,-2.19 1.944,-3.636 0.231,-1.645 0.458,-3.279 0.735,-4.919 0.343,-2.022 4.921,-15.832 4.447,-16.019 m 20.364,14.333 c 0.047,2.746 -0.695,3.687 -2.311,5.92 -1.047,1.449 -2.002,3.027 -3.138,4.404 -2.044,2.476 -2.85,5.821 -3.541,8.702 1.407,-1.416 1.825,-3.124 2.676,-4.918 0.494,-1.038 1.002,-2.086 1.6,-3.069 0.305,-0.503 0.615,-0.969 0.963,-1.444 0.201,-0.275 0.978,0.024 1.496,-0.172 3.751,-1.417 3.703,-7.472 2.905,-10.723 -0.274,0.387 -0.51,0.792 -0.65,1.3 m 2.925,28.99 c -2.25,3.486 6.212,4.869 8.088,4.693 -2.352,-0.074 -5.822,-0.249 -7.312,-2.4 -1.273,-1.839 1.271,-3.113 -1.138,-3.592 0.479,-0.153 0.902,-0.391 1.408,-0.471 -1.229,-0.165 -7.993,-0.937 -6.715,-3.212 -1.784,1.849 4.013,3.317 5.163,3.43 -0.829,0.575 0.459,0.894 1.156,1.01 -0.234,0.156 -0.422,0.393 -0.65,0.542 m -17.115,4.802 c 0.808,-3.042 1.799,-5.965 3.069,-8.846 -1.56,1.624 -2.02,4.065 -2.672,6.137 -0.739,2.354 -1.68,4.688 -1.734,7.185 0.267,-0.185 0.861,-0.256 1.083,-0.397 -0.702,2.074 -1.116,7.05 0.181,8.917 -0.012,-0.037 0,-0.047 0.037,-0.037 -0.013,-0.036 0,-0.047 0.036,-0.036 -0.588,-1.937 -0.226,-4.419 -0.184,-6.454 0.017,-0.84 0.907,-3.486 -0.792,-2.716 0.337,-1.249 0.662,-2.499 0.976,-3.753 m -51.849,27.762 c -0.615,-0.522 -1.356,-0.854 -2.167,-0.868 1.43,1.016 7.805,7.049 8.991,6.68 -3.906,-6.096 -9.076,-13.171 -11.013,-20.145 0.574,6.278 5.893,12.722 9.027,18.16 -1.633,-1.254 -3.243,-2.526 -4.838,-3.827 m 24.877,57.546 c 0.781,1.442 2.16,6.254 3.394,6.789 -1.61,-7.074 -6.857,-11.572 -10.251,-17.646 -1.84,-3.292 -3.917,-6.434 -5.739,-9.737 -1.638,-2.967 -2.042,-5.806 -3.111,-8.936 -0.428,4.879 3.044,10.479 5.564,14.623 3.123,5.134 7.189,9.676 10.143,14.907 m -5.054,-51.373 c -0.744,-0.75 -3.499,-2.19 -4.008,-0.866 1.099,-0.195 3.842,1.142 4.008,0.866 m -4.984,-6.028 c -0.345,-0.311 -0.754,-0.596 -1.156,-0.758 0.768,0.684 0.449,2.313 1.662,1.949 -0.159,-0.373 -0.264,-0.879 -0.506,-1.191 m 0.326,2.599 c 0.724,0.177 1.488,0.278 2.238,0.252 -0.616,-0.484 -1.832,-1.042 -2.238,-0.252 m 0.505,10.686 c -1.276,1.247 8.662,7.542 10.652,7.979 -3.511,-2.71 -7.101,-5.322 -10.652,-7.979 m 20.436,26.499 c -3.363,-2.407 -7.337,-3.948 -11.05,-5.719 -3.568,-1.702 -7.172,-4.057 -10.903,-5.219 2.677,2.423 6.902,3.757 10.11,5.306 4.178,2.018 8.342,4.063 12.493,6.137 -0.217,-0.168 -0.433,-0.336 -0.65,-0.505 m 11.735,-34.117 c -0.491,-1.684 -1.115,0.377 -1.155,1.192 0.551,-0.266 0.894,-0.62 1.155,-1.192 m -2.889,6.715 c 0.852,-0.33 2.513,-1.734 2.528,-2.888 0.011,-0.873 -0.334,0.022 -0.361,0.036 -0.97,0.478 -2.049,1.843 -2.852,2.563 0.083,0.046 0.677,0.288 0.685,0.289 m 0.65,-3.429 c 0.892,-0.285 1.846,-0.684 1.661,-1.769 -0.552,0.447 -1.362,0.995 -1.661,1.769 m -29.751,118.2 c -0.447,2.072 -1.546,4.42 -2.241,6.596 -0.745,2.328 -2.563,6.184 -2.272,8.567 1.144,-1.882 1.681,-4.42 2.35,-6.527 0.846,-2.671 2.527,-5.771 2.163,-8.636 m 9.171,-1.554 c 0.465,0.703 0.778,1.491 1.083,2.272 0.456,-1.103 -0.506,-2.996 -1.915,-3.318 0.298,0.325 0.529,0.735 0.832,1.046 m 14.695,28.088 c -0.532,-3.538 -1.971,-7.146 -3.765,-10.229 -0.614,-1.058 -6.121,-9.325 -7.104,-8.506 0.111,-0.093 6.117,7.979 6.755,9.05 2.058,3.452 3.183,7.168 4.077,11.059 0.433,-0.339 0.25,-0.762 0.037,-1.374 m -56.29,-88.884 c 0.721,1.875 1.28,3.747 1.735,5.701 0.283,1.211 0.134,4.735 0.973,5.348 1.449,-3.811 -1.414,-9.352 -3.25,-12.385 0.115,0.48 0.326,0.949 0.542,1.336 m 40.331,139.212 c -0.062,0.519 -0.089,0.904 0.253,1.334 0.164,-0.609 0.081,-1.186 -0.253,-1.334 m 1.047,1.803 c -0.227,0.659 -0.295,1.441 -0.397,2.169 0.756,-0.072 1.444,-0.491 1.841,-1.155 -0.415,0.253 -0.906,0.32 -1.335,0.612 0.218,-0.595 0.187,-1.257 -0.109,-1.626 m -0.037,8.268 c 0.652,-2.626 2.5,-5.315 4.658,-6.933 -1.048,0.072 -2.073,0.475 -2.924,1.083 0.168,-0.49 0.014,-0.929 0.072,-1.405 -0.852,0.523 -0.9,2.366 -1.227,3.356 0.217,-0.072 0.418,-0.075 0.649,-0.184 -1.031,1.39 -1.9,3.468 -1.661,5.237 0.144,-0.379 0.325,-0.761 0.433,-1.154 m 1.915,-5.092 c 0.272,-0.306 0.482,-0.596 0.83,-0.829 -0.24,0.306 -1.055,0.994 -0.83,0.829 m 8.485,13.288 c -0.911,0.332 -0.949,1.279 -1.824,1.571 -1.15,0.383 -2.251,1.316 -2.581,2.509 0.814,-1.367 2.612,-1.127 3.683,-2.528 0.476,1.021 1.407,1.624 2.491,1.843 0.172,-0.688 0.29,-1.393 0.397,-2.095 0.651,1.083 1.798,1.418 2.997,1.191 -0.452,-0.204 -3.069,-2.231 -3.213,-2.203 -0.768,0.153 -0.38,1.804 -0.433,2.458 -1.264,-0.341 -2.071,-1.46 -1.517,-2.746 m 21.808,1.479 c -0.742,-2.654 -5.44,5.323 -2.907,4.17 0.626,-0.284 1.126,-1.648 1.553,-2.219 0.719,-0.96 0.768,0.138 1.39,-0.18 1.504,-0.774 0.932,-1.591 1.661,-3.288 1.038,0.641 2.625,1.505 2.924,-0.146 -1.477,0.567 -3.013,-2.061 -3.971,-0.143 -0.352,0.701 -0.252,1.64 -0.578,2.238 -0.027,-0.124 -0.032,-0.29 -0.072,-0.432 m -15.418,0.94 c 0.796,0.147 1.601,-0.087 2.274,-0.54 -0.761,-0.769 -2.143,-0.198 -2.996,0.251 0.233,0.132 0.468,0.21 0.722,0.289"
   id="path144" />
</g>
</svg>
