<?xml version="1.0" encoding="UTF-8" standalone="no"?>
<svg
   height="88mm"
   width="125mm"
   version="1.1"
   viewBox="0 0 354.33044 249.44267"
   id="svg8"
   sodipodi:docname="polar_bear.svg"
   inkscape:version="1.2.2 (732a01da63, 2022-12-09)"
   xmlns:inkscape="http://www.inkscape.org/namespaces/inkscape"
   xmlns:sodipodi="http://sodipodi.sourceforge.net/DTD/sodipodi-0.dtd"
   xmlns="http://www.w3.org/2000/svg"
   xmlns:svg="http://www.w3.org/2000/svg">
  <defs
     id="defs12" />
  <sodipodi:namedview
     id="namedview10"
     pagecolor="#505050"
     bordercolor="#eeeeee"
     borderopacity="1"
     inkscape:showpageshadow="0"
     inkscape:pageopacity="0"
     inkscape:pagecheckerboard="0"
     inkscape:deskcolor="#505050"
     inkscape:document-units="mm"
     showgrid="false"
     inkscape:zoom="1.6805671"
     inkscape:cx="239.20497"
     inkscape:cy="190.70944"
     inkscape:current-layer="svg8" />
  <path
     d="m 182.35262,0.81138041 c -0.5837,-0.0134045 -1.11961,0.57402909 -0.31295,0.66435509 0.26491,0.066435 1.72182,0.1747052 1.08167,0.4903086 -1.16967,0.3505374 -2.9946,0.9294556 -2.63978,2.0428224 2.30764,0.8476768 4.95518,1.7695908 6.22354,3.4209431 -0.55142,0.5250346 -1.30048,-0.2659328 -1.69562,-0.542129 -2.74235,-1.8261096 -6.89268,-3.1012482 -10.61704,-2.1419903 -0.75981,0.2173891 -1.83322,0.8941401 -2.4874,0.6613211 1.90853,-1.7690707 6.11631,-0.6607663 7.83641,-2.6340152 0.27401,-0.3492025 1.01361,-1.5690187 0.0532,-0.9372746 -5.36913,2.4918515 -12.26673,2.2090846 -17.72935,4.5799236 -4.66759,1.7189147 -8.65033,4.1903608 -12.42253,6.7449718 -2.88713,1.449307 -6.57541,0.728641 -9.84877,1.024203 -5.28692,1.228086 -10.27375,3.056172 -15.69637,3.999826 -7.43105,1.802358 -12.63651,6.316574 -19.67103,8.632282 3.60903,1.031969 7.79347,0.580201 11.23049,1.95319 -5.32054,0.07845 -10.44528,-1.803052 -15.800173,-1.110645 -3.119008,0.07205 -6.890478,-0.622209 -9.424012,1.088644 0.64645,1.028433 2.489121,0.427063 3.532962,0.125002 0.893644,-0.187275 2.188752,-0.750278 3.002698,-0.2513 -0.245968,0.568099 -2.100196,0.06945 -1.969262,0.788626 1.150875,0.665708 2.820873,0.05611 4.166529,0.07285 3.345988,-0.320753 6.780798,-0.790413 10.118188,-0.321394 -1.78626,0.572764 -4.63226,0.04409 -5.65843,1.541383 0.95648,0.295406 2.66751,0.136916 3.9182,0.04841 2.7691,-0.238401 5.64641,-0.785159 8.37797,-0.130367 -4.41142,0.725295 -9.02552,0.424618 -13.4335,1.13639 -1.42133,-0.08346 -1.24903,-1.444504 -0.25831,-1.874826 -3.089809,-0.239806 -6.11729,0.926941 -9.105757,0.602392 0.174651,-0.622833 1.529372,-0.715881 1.862375,-1.334483 -1.786945,0.646515 -4.304677,0.08285 -5.708979,1.242042 -0.477752,0.500763 1.072378,0.463904 1.572214,0.653034 0.695477,0.128176 1.401701,0.251456 2.048544,0.478953 -1.108498,0.353121 -2.641256,1.161165 -2.058408,2.133322 2.41644,1.562292 6.28611,1.332021 8.791425,2.449202 -1.379714,0.263783 -3.17888,-0.951179 -4.32627,0.01016 3.472108,1.431622 7.654836,1.497382 11.299436,2.515256 0.72809,0.215794 0.30133,0.621862 -0.27556,0.486252 -1.64825,-0.133294 -3.43677,-1.455513 -5.08056,-0.596983 -1.07326,0.453224 0.77864,0.51373 1.33174,0.717839 3.66989,0.805323 7.6936,1.114234 11.17111,2.106623 -1.04995,0.433634 -2.53623,-0.562084 -3.57615,-0.02099 -0.38546,0.276109 0.6056,0.812725 -0.2497,0.661303 -4.42196,-0.0228 -9.38033,-1.315898 -11.339187,-4.319348 -1.342221,-0.800381 -3.448305,-0.755235 -4.606983,0.206207 -1.359741,0.994417 -2.344127,2.228849 -3.755765,3.180478 -6.057417,6.716887 -13.812608,12.819002 -17.721981,20.412621 -1.906518,3.615465 -3.668165,7.264217 -6.016929,10.743932 -1.892654,3.558253 -3.307949,7.264563 -5.905282,10.607663 -3.777113,8.159674 -12.413459,14.49896 -18.254942,21.891464 -5.771305,5.51006 -9.348435,12.30201 -9.130784,19.20423 2.385473,-1.13557 2.123531,-3.47035 3.86275,-4.93117 -0.902821,3.81848 -2.706035,7.48821 -3.9663,11.24809 1.206159,0.27688 1.410584,-0.99866 1.878668,-1.48042 0.183489,-0.26665 0.578357,-0.86625 1.089334,-0.54076 -1.605611,3.48336 -3.698347,6.9329 -4.017094,10.63453 1.816685,-0.55319 2.562489,-2.24809 3.952805,-2.86875 -0.712629,2.39199 -2.735972,4.54368 -2.748732,7.05149 -0.690667,3.72746 -2.655978,7.32403 -2.814002,11.11771 1.870497,-1.19835 1.803435,-3.12881 3.115082,-4.55235 -4.346146,11.78155 -7.354488,23.93897 -6.713314,36.15464 -1.614002,5.39355 -4.396449,10.6784 -4.461229,16.26231 -0.557991,6.97278 -1.202649,13.9499 -1.844339,20.91366 0.125006,1.03208 0.18652,2.18742 0.816178,3.08842 1.99164,0.6301 4.112546,-0.58086 6.134466,-0.18353 -7.22591,1.12292 -14.191227,3.32854 -19.9848619,6.5905 -4.1856686,2.85021 -7.44895884,7.06103 -6.0674772,11.27185 0.00401,0.96794 1.5889983,0.33138 2.481514,0.37631 18.7157641,-1.66452 36.7110951,-6.19296 55.5488121,-7.26334 2.20885,-1.26233 0.245551,-4.00885 2.98135,-4.98059 1.446262,-0.42198 3.775151,-0.53008 4.088499,-1.89996 1.050245,-3.03156 -0.949247,-6.00971 -1.080672,-9.01144 0.07702,-1.85455 0.439105,-3.81068 -0.347505,-5.60784 1.347497,0.32496 1.599329,-0.17956 1.382708,-1.04565 0.02794,-3.78589 -0.14929,-7.93741 2.854735,-11.22157 0.600074,-0.0868 1.956232,0.72599 1.752347,-0.0828 -0.536152,-4.85107 0.911361,-9.8587 4.029363,-14.14753 1.341435,0.45034 1.25781,2.15187 2.995336,2.18741 -0.284884,-5.16002 0.286063,-10.37864 1.933314,-15.38419 1.549419,-0.0816 1.722632,1.37524 2.472435,2.04924 0.266604,0.35926 1.430459,0.91765 1.057974,0.13127 -0.593938,-5.33582 0.0063,-10.88124 3.284639,-15.77826 -1.871086,-2.8424 -4.405773,-5.51491 -5.329869,-8.62378 -0.368093,-0.88589 -1.387666,-1.78918 -0.951333,-2.74237 2.522247,5.75936 6.896366,10.99999 11.216993,16.15152 3.432847,2.74931 6.750856,5.87448 9.529029,8.79057 -0.65876,-0.36954 -1.30654,-0.98197 -2.266877,-0.83367 -0.175537,7.46637 -0.837649,15.37188 3.855637,22.29716 -0.17418,0.49785 -1.18283,0.7842 -0.98282,1.42717 -1.58973,7.83564 -3.131765,15.74687 -2.495253,23.68238 7.656793,-0.0646 15.050543,-1.91158 22.487233,-2.73561 -8.12645,3.0163 -18.21495,1.63116 -26.066571,5.19366 -1.234279,0.51513 -2.231424,1.308 -3.282185,1.93932 -4.695565,0.73098 -7.52478,4.28068 -7.532387,7.50433 12.115569,-1.41368 24.434063,-1.51311 36.639933,-2.36893 9.59283,-0.19584 19.33412,-1.59128 28.79764,0.0121 1.74977,-0.0797 1.72916,-1.6824 2.45477,-2.49462 2.05813,-2.64234 -0.0562,-5.61685 -0.74466,-8.29837 -0.48614,-3.26179 -0.19847,-6.59501 0.0354,-9.875 0.70801,-7.45597 3.55455,-15.2604 11.15123,-20.7611 1.93089,-0.65724 1.81735,-2.42458 1.18506,-3.64303 -1.17733,-2.34431 -2.05655,-4.75242 -2.45219,-7.23214 -0.31824,-1.70066 -0.86541,-3.49671 -1.54275,-5.06883 0.77407,-0.0329 1.66546,-0.0485 1.1205,-0.72396 -0.74222,-1.95978 -2.72444,-3.69556 -2.81474,-5.72087 2.45089,-0.26975 3.92262,1.52533 5.75192,2.34552 1.00927,0.60905 1.22594,0.27564 0.82383,-0.53094 -0.86245,-2.99688 -3.01349,-5.80011 -4.03059,-8.69331 1.05467,-0.0709 1.72627,0.73122 2.76861,0.79168 -0.66767,-2.41072 -2.95288,-4.41609 -3.81294,-6.74688 2.01262,2.95145 3.67602,6.41817 7.85408,8.21307 -1.4135,0.90354 -3.07508,-0.32445 -4.23793,-0.88141 -0.64643,-0.33867 -1.3712,-0.60755 -2.16385,-0.72532 2.10712,3.24966 3.18673,6.79109 5.50654,9.98024 -3.21912,-0.0304 -4.55103,-2.93967 -7.78218,-3.01439 -0.76421,-0.0452 0.21386,0.77869 0.38105,1.13505 1.18905,1.52903 2.96,3.07681 2.6891,4.92043 -1.70359,0.62543 -1.03248,2.20683 -0.48469,3.19591 0.4288,0.62843 0.23061,1.51307 1.46606,1.66314 7.63054,2.90655 14.91092,6.30617 22.712,8.97694 0.95268,0.0388 0.26317,-0.79501 -0.0757,-1.02736 -0.42745,-0.31935 -0.63033,-0.84925 0.13898,-0.28951 2.07276,1.41118 3.81711,3.28138 6.70424,3.94522 0.35064,0.13966 1.7559,0.37593 0.7553,0.63152 -1.26037,0.79292 -2.934,-1.0063 -4.13022,-0.0142 -4.06936,4.53918 -8.6572,9.1836 -9.62252,14.65326 -0.33708,1.69956 -1.92605,3.15568 -1.825,4.91331 0.0232,1.30829 -0.61409,2.62882 -2.16675,3.41592 -3.4748,2.52288 -6.19998,5.55461 -7.98486,8.84015 2.23145,1.21443 5.63365,1.5621 6.93145,3.49203 0.15833,0.2808 0.31252,1.172 -0.29234,0.52181 -1.74207,-1.25547 -3.82717,-3.13003 -6.62032,-2.75867 -0.48901,0.44972 -1.99051,0.91857 -1.99848,-0.0149 0.31614,-0.77226 -0.34554,-0.74922 -1.21902,-0.58513 -3.53173,0.44307 -6.64436,1.78589 -9.99844,2.61079 -0.72605,1.53677 -0.87323,3.19053 -1.82451,4.67718 7.98756,0.91056 15.97341,2.13592 24.10403,2.09899 -0.017,-1.15466 2.60126,-1.86789 3.30697,-0.68535 0.18467,0.51065 -0.0332,1.02823 1.05731,0.86693 8.01112,0.56839 15.97636,1.62224 23.71167,3.17614 3.1195,0.31683 6.19336,-0.46963 9.21176,-0.85669 2.36297,-0.83017 2.19918,-2.97417 1.97405,-4.54352 -0.4156,-1.58488 0.79029,-3.0631 0.73024,-4.65551 0.25233,-2.78103 -0.17624,-6.0983 2.95731,-8.20042 2.13229,-1.19875 4.33976,-2.36425 6.9236,-3.05322 -0.15113,0.94206 -1.5902,1.99289 -0.46296,2.90083 0.43837,0.36566 1.22653,0.99898 1.30215,0.11472 1.77036,-3.38072 3.22722,-7.13142 7.09832,-9.63783 -0.26683,0.69388 -1.06254,1.2034 -1.398,1.87829 2.77229,0.72161 2.43688,3.61859 5.24153,4.30167 0.91797,-4.98908 0.31637,-10.49619 4.67349,-14.77687 1.00924,-0.60025 0.34794,-0.83301 -0.71096,-0.99168 -6.22232,-1.47599 -13.03992,-2.52323 -18.54621,-4.90656 5.91657,0.66285 10.98413,3.31589 16.97087,3.79751 -3.02232,-1.69166 -6.18133,-3.32056 -8.64051,-5.44296 3.99991,1.79161 6.98396,4.87968 11.81277,5.65048 1.09165,-0.2022 2.04682,-1.2035 0.9844,-1.83217 -0.16609,-0.21627 -1.42807,-0.59052 -0.3925,-0.406 2.12561,0.46617 3.982,1.65313 6.33959,1.48245 2.50606,0.22308 4.84525,1.31252 7.45902,1.36089 -1.30229,-1.55017 -4.27302,-2.33357 -5.52052,-3.64355 0.98779,0.33708 2.27706,1.41444 3.38205,0.65319 0.53907,-0.41422 1.49377,0.23856 2.206,0.25497 1.31241,0.28078 2.6999,0.4636 4.07132,0.31999 -0.0856,-0.97552 -1.56826,-1.76803 -1.19335,-2.74046 3.31556,4.56553 6.50769,9.33027 10.20579,13.81311 1.63199,-0.54818 0.0359,-1.93759 0.46058,-2.80444 0.40679,-0.25845 0.59487,0.65196 0.89548,0.86014 2.25027,3.15569 3.99796,6.50936 6.81711,9.44938 0.96993,0.01 1.06759,-0.79675 0.5339,-1.22173 -0.40836,-0.20731 -0.21194,-0.85669 0.29474,-0.48726 2.63144,1.97435 4.12973,4.51422 6.21152,6.76041 0.40119,-0.72424 0.24422,-1.74723 0.5775,-2.34258 1.18049,2.44972 4.03378,4.19937 6.04146,6.29317 0.79722,-1.6121 -0.55624,-3.41679 0.59907,-4.95094 0.35018,2.21793 0.86943,4.85402 3.76215,6.1699 2.08974,-1.22886 5.40618,-0.0539 5.92933,1.70999 2.03485,1.93256 1.79619,4.46463 3.01791,6.63679 2.3907,0.34936 5.16694,-0.39022 7.22419,0.72429 -5.44274,-0.29055 -10.31817,1.83894 -15.16514,3.23925 -4.26909,1.83356 -7.84549,5.19452 -7.35375,8.87448 0.1597,0.62918 0.27571,1.48433 0.89286,1.87691 18.33224,-0.12669 35.74676,-4.80756 53.60296,-7.01266 2.26818,-0.13032 4.84476,0.26276 6.81122,-0.77611 -1.70835,-1.53415 1.19455,-3.47347 -0.27654,-5.08148 -2.86038,-4.76162 -5.8194,-9.51613 -7.83199,-14.49411 -0.86511,-1.36045 -3.2817,-2.09275 -3.75822,-3.53207 1.78299,0.61933 2.41555,2.50624 4.68673,2.55652 0.0997,-0.24839 -1.31376,-1.10356 -1.79504,-1.62223 -3.54769,-3.12916 -6.59112,-6.60593 -8.79585,-10.30479 0.11904,-0.21641 0.87161,0.4705 1.14938,0.59959 0.30731,0.22991 1.38227,1.07776 1.52535,0.36005 -0.88697,-1.57598 -2.65524,-2.85038 -3.82693,-4.33269 -3.53885,-3.86772 -6.98617,-8.39598 -6.71012,-13.01925 1.14528,1.08163 1.29903,2.57386 2.79511,3.50191 -0.10161,-2.47764 -1.64563,-4.87829 -2.00185,-7.24671 0.52381,0.13523 0.85424,0.98324 1.65535,0.64271 0.19745,-0.61313 -0.57912,-1.56798 -0.67717,-2.32976 -0.69776,-2.47676 -1.34549,-5.19868 -2.97669,-7.36754 1.76901,0.11579 1.21291,2.16817 3.00491,2.3594 1.07394,0.16584 0.25298,-0.92773 0.29332,-1.37658 -0.92098,-3.27098 -3.04466,-6.30427 -4.38295,-9.47764 -5.24718,-5.92892 -8.22632,-12.95943 -13.35375,-18.7708 4.13561,2.53849 4.59888,6.76855 7.83592,9.77167 1.73144,3.03017 3.7565,6.04542 6.85146,8.5104 0.51547,-1.28731 -0.98014,-2.66782 0.11069,-3.86806 -0.32662,-1.13268 -2.12917,-1.89893 -2.48446,-2.88593 1.06161,0.19149 1.44469,1.08367 2.42888,1.39983 0.64459,-3.29248 -2.01549,-6.26803 -3.50351,-9.24202 -4.15574,-5.72331 -7.79347,-12.09397 -15.32881,-16.07074 -2.20305,-0.98535 -3.31113,-3.22573 -6.22599,-3.36078 1.04966,1.4126 1.97223,2.87864 2.49403,4.44729 -4.15966,-4.88159 -5.73916,-10.6992 -10.70243,-15.28311 -4.70097,-4.66089 -10.79863,-8.47642 -16.33535,-12.61633 -3.47849,-2.4043 -7.54367,-4.3275 -11.64346,-6.15326 -8.70162,-3.50971 -18.79747,-4.49393 -28.30932,-6.38384 -6.36341,-0.550643 -12.77049,-1.947297 -19.21094,-1.048805 -8.39514,0.766973 -16.63888,2.614765 -25.13904,2.481275 -3.36267,-0.18024 -6.91501,-0.68835 -10.16923,0.22958 2.33959,1.20967 5.00327,2.13401 7.03354,3.62257 -8.88197,-3.71307 -16.83936,-9.021844 -27.19531,-10.622052 -1.58908,-0.259084 -3.35409,-0.34974 -4.9012,-0.4151 0.35806,-0.469817 -0.31811,-0.987639 -0.23004,-1.416419 1.31371,0.05233 1.83224,0.120103 0.47925,-0.575312 -1.99697,-1.264407 -3.81736,-2.659327 -5.7875,-3.943828 1.3674,0.285645 2.66776,0.715569 4.03427,1.03887 -2.22755,-2.610783 -6.01104,-4.253814 -8.80639,-6.511269 -0.56796,-0.437066 -1.45721,-0.07193 -1.3606,0.480496 -0.20723,1.004473 0.47704,2.474688 -0.64987,3.157247 0.35524,-2.632282 -0.4632,-5.578537 1.83269,-7.867719 1.08786,-0.775485 0.66078,-2.054958 0.97528,-3.064146 0.2654,-1.833565 0.34822,-3.82611 1.30166,-5.49948 0.89244,0.372521 0.62569,1.339077 1.47227,1.785887 1.89091,-2.599514 -0.58655,-5.977288 2.39102,-8.265603 0.84771,-0.789511 0.74298,-2.081484 2.2525,-2.452496 1.87828,-0.989494 1.36303,-3.268378 3.66547,-3.903606 1.30041,0.0447 1.31547,-1.151214 2.12694,-1.702549 2.03969,-2.041089 4.92377,-3.721394 6.90692,-5.719833 0.25286,0.408304 0.24305,1.534986 1.27626,1.262014 1.25477,-0.658218 1.57602,-1.904646 2.29449,-2.850728 1.42874,-2.37708 2.37036,-4.935506 4.01537,-7.222434 3.02012,-0.938557 3.7273,-3.523752 5.24252,-5.35905 0.29227,-0.396688 0.74691,-0.888557 1.07557,-1.173179 0.20617,0.422191 1.01758,0.582541 1.24151,0.06899 2.21084,-2.242892 4.6568,-4.431172 6.23139,-6.940534 0.58239,-1.304282 0.38775,-3.322989 -1.80775,-3.778606 -1.56794,-0.159248 -3.14698,-0.522469 -4.75863,-0.227219 -2.26862,0.298717 -4.86168,0.839632 -6.93489,-0.161181 -2.34439,0.09347 -5.48102,0.131959 -6.90127,-1.464511 -1.1507,-1.539841 0.94603,-3.0638 2.67782,-3.844313 1.96337,-0.932265 4.46883,-1.225503 6.41885,-2.073336 2.3709,-2.009362 6.92263,-2.610957 8.10903,-5.328017 0.38917,-0.8780509 0.21607,-2.6269066 1.93285,-2.6126902 0.63965,1.9727812 0.42048,4.2612692 2.54629,5.8437932 1.03673,1.163904 0.55569,2.636442 -0.40448,3.737691 2.56028,-0.823284 3.28709,-3.005201 2.74039,-4.800278 -0.37401,-1.688748 -1.26176,-3.3150135 -1.52979,-5.0024268 -0.45204,-0.8457697 -2.29718,-0.5274098 -2.88565,-0.7107489 0.85868,-0.4553918 2.83731,-0.262448 2.8751,-1.3192441 0.60979,-1.2850554 -0.15815,-2.7669902 -1.87916,-3.4041261 -2.19123,-0.9566228 -4.84623,-1.2710472 -7.23131,-1.79247574 z M 138.89852,17.878301 c 1.73615,-0.0078 4.31327,0.526751 4.27352,2.029646 -3.50695,0.928901 -6.37445,2.722088 -9.81319,3.74948 2.30612,-1.459587 5.47416,-2.122226 7.48111,-3.853502 -1.91292,-0.672174 -4.8693,-0.743654 -5.89719,0.853641 -0.46597,0.538661 -0.36657,1.572937 -1.46029,1.642614 -1.53688,-2.23509 2.50678,-4.535194 5.41599,-4.421983 z m 5.36864,4.171637 c 0.80946,0.532298 -0.1637,1.212846 -0.89237,1.460107 -1.98506,1.102705 -3.98765,2.236477 -6.31555,2.960472 2.21103,-1.593655 4.3854,-3.39043 7.208,-4.420597 z m -2.3493,3.970527 c 0.75395,0.04368 0.69677,0.728554 -0.0374,0.781518 -3.25224,1.214286 -5.3122,3.59466 -8.75658,4.585472 2.53722,-2.013176 5.36275,-3.992545 8.67463,-5.369106 l 0.0594,-6.93e-4 0.0599,0.0027 z m -1.25997,3.369625 c -1.14761,2.275139 -4.49976,3.292302 -6.96017,4.71758 -0.66443,0.47337 -1.19406,1.131276 -2.1648,1.311789 1.97657,-2.664008 5.98159,-4.061547 9.0076,-6.022885 0.0205,0.0012 0.12236,-0.03649 0.11742,-0.0064 z m -34.20088,13.503641 c -0.15803,0.41113 -0.67054,0.791262 0.11599,0.995856 1.00647,0.309466 2.55463,-0.348734 3.22501,0.288835 -1.8212,-0.06004 -3.89612,0.675676 -5.46066,-0.183183 -0.004,-0.712587 1.44702,-0.847261 2.11975,-1.101508 z m 2.9978,2.267337 c -0.47707,0.526074 -2.40393,0.666002 -1.45024,1.3233 0.74799,0.588575 2.35679,0.37852 2.86259,1.024983 -0.34189,0.672105 -2.08688,0.876266 -1.92949,1.555253 0.40316,0.418984 1.55298,0.244764 1.81973,0.607472 -0.49397,0.399498 -1.74442,0.691349 -1.26571,1.39577 0.0746,0.292684 1.02769,0.820545 0.21087,0.586477 -0.63141,-0.01439 -1.23485,-0.324202 -0.83007,-0.811997 0.3981,-0.507108 -0.005,-1.137795 -0.86074,-1.132316 -1.20608,-0.345094 0.0829,-1.21654 0.73996,-1.44284 1.24717,-0.323127 -0.13426,-1.107368 -0.93503,-1.090343 -0.78065,-0.0041 -2.17543,-0.485974 -1.27865,-1.110645 0.75871,-0.522018 1.88066,-0.754074 2.91682,-0.905114 z m 1.98268,8.111823 c 0.45064,0.03985 2.70579,-0.0571 1.69081,0.153055 -1.26721,0.174428 -2.81769,0.563193 -3.97637,0.07145 0.33993,-0.380444 1.64409,-0.137147 2.28556,-0.224498 z m 32.28692,30.442094 c -0.16333,1.248856 -1.01734,2.462725 -0.4462,3.725728 0.26135,1.015967 1.15272,2.396671 -0.22189,3.208738 -0.0225,-2.29733 -0.65946,-4.79577 0.66809,-6.934466 z m -1.75169,5.207524 c -0.14421,0.928901 -0.63356,1.845007 -0.18786,2.785714 0.0867,0.870389 1.14223,2.151353 -0.059,2.813627 -0.87313,-1.738731 -1.10195,-4.015776 0.24682,-5.599341 z M 70.120956,125.11703 c 4.318909,4.21949 8.980858,8.47035 15.264268,11.29577 1.155733,0.80815 -0.699746,-0.12041 -1.12722,-0.30645 -6.17618,-2.87431 -11.651068,-6.75416 -14.715111,-11.54872 l 0.577989,0.5594 z m 1.321781,5.57455 c 3.684115,2.71515 4.56257,6.82229 8.668491,9.3535 2.471699,1.78901 5.173317,3.41002 7.944869,4.96082 -8.199572,-2.79906 -13.548336,-8.5 -16.675195,-14.35697 l 0.06182,0.0427 z m 84.029913,3.35159 c 2.93055,3.18499 5.68002,6.5541 8.21625,9.83634 -1.49742,0.72731 -2.93841,-0.5638 -4.17806,-1.02736 -0.76892,-0.35029 -1.68715,-0.65249 -2.62481,-0.51908 -0.67224,-0.75943 1.08734,-0.93385 1.62085,-0.46729 1.02992,0.44149 1.98619,1.17318 3.29396,1.11574 -2.44439,-2.87517 -4.28284,-5.95683 -6.36169,-8.97399 l 0.0335,0.0356 z m -81.585942,5.68898 c 0.997317,0.15797 0.55063,1.0993 1.129601,1.54712 2.855471,4.57143 8.926874,7.45666 13.792977,10.86789 -6.028216,-3.06553 -12.442168,-6.59986 -14.902825,-11.74948 0.02934,-0.17139 -0.574775,-0.76877 -0.01965,-0.66538 z m 84.277742,5.12552 c 1.54657,2.57507 3.67798,4.94677 5.59537,7.37777 0.4551,0.94577 -1.42347,0.79759 -2.16095,0.56075 -0.93654,-0.24069 -1.89388,-0.60556 -2.42599,-1.22443 0.99904,0.16094 2.24419,0.96259 3.24931,0.4551 0.65143,-0.9712 -0.99671,-1.806 -1.41908,-2.65413 -1.25548,-1.60972 -2.27233,-3.30062 -3.15262,-5.02704 0.10463,0.17066 0.20927,0.34133 0.31391,0.51198 z m 78.58496,14.04646 c 6.79134,4.59587 13.81162,9.12223 21.93316,12.52947 -3.58449,-0.11743 -6.06649,-2.24029 -8.85031,-3.56865 -5.11394,-2.80635 -9.96998,-5.91592 -13.94879,-9.54924 l 0.86601,0.58851 z m 3.78717,6.62933 c 6.4726,3.31172 11.57402,7.89668 18.42156,10.84414 -3.956,-1.18417 -7.11279,-3.41348 -10.49092,-5.25728 -2.83707,-1.69988 -5.668,-3.57593 -7.93064,-5.58686 z m 7.2372,11.13298 c 1.293,0.78748 1.91061,2.01196 2.94209,2.96463 5.21405,5.58131 12.89734,9.81588 20.63192,13.44262 -1.43485,0.6514 -2.97988,-0.43201 -4.16309,-0.93494 -7.76231,-4.24185 -14.95804,-9.26369 -19.4757,-15.4922 l 0.0647,0.02 z m -57.93389,10.71741 c 5.34508,1.47907 9.33174,4.74583 14.80516,6.07298 -0.82626,-1.63694 -2.6258,-2.90239 -3.58204,-4.49063 2.88664,2.66192 5.23663,6.11893 10.05488,7.26525 0.66071,0.24406 -0.67764,0.41739 -0.91921,0.44088 -1.59965,0.11438 -2.68248,-1.02309 -4.05464,-1.44799 -5.58874,-2.51907 -11.41624,-4.83859 -16.46564,-7.88314 l 0.16151,0.0427 z m 16.61728,3.97538 c 5.57059,1.14121 9.84533,4.20596 15.25764,5.62569 -0.24317,-1.74948 -3.16759,-2.53467 -3.6581,-4.21706 3.08343,2.81224 6.36267,6.10957 11.58261,6.94158 0.48246,0.31385 -0.80411,0.54304 -1.07545,0.71615 -7.76083,-2.60853 -15.26574,-5.60003 -22.29486,-9.10298 l 0.18835,0.0366 z m -79.60328,27.97156 c 0.37857,-0.0658 1.72175,0.25822 0.69158,0.321 -1.16545,0.14868 -2.42672,0.3849 -3.55407,0.0298 0.95367,-0.12408 1.88078,-0.34327 2.86259,-0.3508 z"
     fill="#e1e3d1"
     id="path2"
     style="stroke-width:0.206256" />
  <path
     d="m 182.89884,0.00148965 c -0.41617,0.0085792 -0.84018,0.06923301 -1.27794,0.19965326 -4.76819,2.40041609 -10.58857,3.15603319 -16.13806,4.24327319 -5.78897,1.5829403 -10.97529,4.144244 -15.29199,7.2815529 -1.35253,0.971151 -3.11533,1.670735 -5.08621,1.707906 -6.01276,-0.807351 -11.40324,1.749653 -16.84083,3.088072 -6.00098,1.176144 -11.97251,2.990291 -16.56011,6.04577 -2.9681,1.815534 -6.48388,3.108183 -10.08408,4.162274 -3.431374,0.303745 -6.978567,-0.18724 -10.33731,0.56172 -2.44986,0.805825 -4.917387,4.289875 -0.747914,4.557559 -3.364631,2.525659 2.836577,3.088765 3.702273,4.524272 -5.396367,4.246879 -9.59136,9.117891 -14.300666,13.742024 -7.32995,6.510403 -9.883851,14.760056 -14.773756,22.151179 -4.194993,8.839112 -9.291016,17.59778 -17.553405,24.968099 -6.611482,7.446606 -15.042691,14.836336 -15.429408,24.056866 -0.139375,1.14702 -0.639947,3.58807 1.95714,3.07073 -0.561426,2.31484 -3.329297,4.82247 -1.044332,7.02636 -0.634058,2.27323 -1.968918,4.47572 -2.088662,6.81137 -0.160969,0.88488 0.785211,1.34258 1.908064,1.13453 -0.84214,4.2025 -2.157369,8.33565 -3.362669,12.48267 -1.09537,1.65048 1.684279,2.8294 0.528055,4.41054 -3.231146,9.59778 -4.64649,19.4452 -4.344183,29.32038 -1.772615,5.49237 -4.460002,10.90152 -4.503189,16.60194 -0.184524,8.1276 -2.50345,16.47711 -1.217078,24.42441 -4.94644,1.51179 -10.0907537,3.00971 -14.0270194,5.70042 -4.4260414,3.27323 -7.9031547,8.33564 -4.8017652,12.67683 19.8089256,-1.28987 38.8895666,-6.39389 58.8476826,-7.46186 2.371339,-0.97087 1.221004,-3.23162 2.489121,-4.67406 1.707835,-1.10957 5.060688,-0.638 5.205953,-2.84327 0.759692,-4.92372 -2.930803,-10.16644 -0.178636,-14.86824 0.03926,-3.63384 -0.107967,-7.44799 2.063143,-10.83218 0.661541,-0.44383 2.530345,0.0139 2.473417,-0.94313 -0.630132,-4.43828 1.27008,-8.77948 2.995582,-12.99584 1.124816,0.54091 1.913953,2.42718 3.922132,1.08183 0.327826,-4.63246 0.06478,-9.40361 1.749059,-13.96671 1.040405,0.58252 1.990511,2.45492 3.924095,1.06796 -0.608539,-5.06242 -0.03533,-10.51317 2.657941,-15.35367 2.871911,3.95284 7.45951,7.08738 10.814327,10.83217 -0.787175,7.62829 -0.404384,15.52011 3.074098,22.88488 -2.190735,8.61304 -3.348923,17.39251 -3.001466,26.15811 -2.630459,0.31901 -4.507115,1.65049 -6.40929,2.84328 -4.405037,0.54091 -6.389659,3.68932 -7.795188,6.31068 -0.45346,0.97087 -0.284639,2.80166 1.67839,2.6491 7.47914,-0.81831 15.038764,-1.59501 22.619984,-1.60888 12.16293,-0.54092 24.35923,-1.74757 36.57712,-1.35922 2.39882,0.0416 4.77408,0.99861 7.15524,0.319 7.752,1.04022 15.74349,2.01109 23.71339,2.28849 2.63242,0.48543 3.10747,-2.70458 4.57386,0.0416 8.4312,0.58253 16.8526,1.70597 25.03843,3.32871 3.31752,-0.24965 6.73319,-0.45769 9.95256,-1.12344 4.24014,-1.81692 0.94225,-5.54785 2.86602,-8.21081 -0.0982,-4.18863 0.17667,-9.55618 6.8706,-11.16505 0.54965,1.10957 1.53116,3.43967 3.71013,2.09431 1.47227,-2.5104 2.29674,-5.27046 4.45607,-7.57281 1.96303,0.33287 2.02192,2.3717 3.41567,3.30097 0.58891,1.22052 3.59234,0.957 3.55308,-0.37448 0.23557,-5.27046 0.86374,-10.67961 5.1824,-15.17337 0.72632,-2.69071 4.10273,-0.80444 6.57615,-0.9154 2.37526,0.29126 4.82905,1.76144 7.2632,0.87379 1.15819,-1.02635 -0.78521,-2.17753 -1.94339,-2.66297 1.78635,0.56865 3.71012,0.76283 5.65352,0.66574 2.66972,3.61997 5.22166,7.32316 8.30361,10.79057 0.72632,0.23578 1.53116,-0.15257 2.29675,-0.19417 2.10044,2.59362 3.25862,5.58945 6.04613,7.87794 5.00572,-1.58113 3.90642,5.78364 8.71584,4.61859 2.23786,1.16505 3.19974,4.90985 6.83134,3.75867 1.21708,1.40083 2.88566,2.46879 5.33944,1.42857 4.27941,1.66435 4.92721,6.04715 5.47685,9.02912 -6.92949,1.58114 -13.99639,4.56311 -15.40977,10.04161 0.80484,1.24827 -0.47113,4.42441 2.51267,4.50763 18.11876,-0.37448 35.35416,-4.85437 53.04105,-7.01803 2.45378,-0.48544 6.24243,0.4577 7.911,-1.276 -0.92262,-1.95562 1.33486,-3.91124 -0.23556,-5.83912 -2.70898,-4.7018 -5.81057,-9.32039 -7.69507,-14.21636 0.49075,-0.63801 1.15818,-1.31762 0.21593,-2.0111 -3.39604,-2.46879 -5.77131,-5.50624 -8.20546,-8.46047 2.31637,-1.15118 -0.0196,-3.19001 -1.31523,-4.31345 -2.5912,-3.32871 -6.478,-6.50486 -7.42025,-10.2774 5.26092,-0.66574 -1.92377,-5.4785 1.64894,-6.90707 -0.31408,-2.20527 -1.60968,-4.42441 -1.84524,-6.69903 2.336,-0.0277 1.9434,-1.81692 1.35449,-2.8294 -0.92263,-3.00971 -3.0427,-5.76977 -3.76902,-8.79334 1.96303,-0.51317 0.66743,-1.8724 0.54965,-2.91262 1.76673,-5.31206 -1.66858,-10.55478 -5.04499,-15.18724 -4.24014,-7.39251 -11.77817,-13.85575 -21.12219,-18.09292 -3.37641,-7.96949 -11.3463,-14.28294 -19.72844,-19.87379 -3.61197,-2.93204 -7.81285,-5.45492 -12.48486,-7.49792 -8.91215,-4.71012 -20.2192,-5.59362 -30.62325,-7.755892 -5.14314,-0.496533 -10.22739,-1.363385 -15.42941,-1.477116 -11.42483,0.468794 -22.6141,3.717058 -34.15278,2.525658 -2.93277,-0.39667 -6.49174,1.36477 -8.81596,-0.51595 -6.32488,-2.981968 -13.16015,-6.260748 -21.05545,-6.312065 1.52527,-1.603329 -1.61361,-2.71706 -3.1114,-3.563107 0.20612,-0.500694 1.6509,-0.772538 0.67921,-1.556172 -2.52446,-2.737864 -6.65467,-4.575589 -9.61492,-7.009709 -0.0452,-0.51595 0.0805,-1.037448 0.31408,-1.525658 3.09766,-1.846048 1.23082,-5.474341 2.59709,-7.68516 0.95403,0.126214 2.32226,0.120666 2.55783,-0.710125 0.81662,-2.540915 -0.55947,-5.506241 1.99247,-7.676837 3.78669,-4.346741 8.0759,-8.234397 13.11304,-12.047157 1.19744,-0.06241 2.75413,0.203884 3.61786,-0.608876 2.09651,-2.829404 3.2704,-5.952843 5.12743,-8.85853 2.88958,-1.50208 3.80828,-4.101248 5.92835,-6.055478 3.6316,-2.015257 5.79093,-5.128988 8.27809,-7.871013 2.65598,-0.79889 1.61754,-3.337031 1.29364,-4.891816 0.34353,-1.998613 -4.70342,-1.194175 -4.49927,-2.923717 3.3666,-0.843274 5.89891,-2.846048 7.33584,-5.102636 0.40439,-3.54355 -2.8405,-6.8597775 -1.65483,-10.3611644 0.3082,-1.6214979 -0.94225,-3.3077669 -3.37837,-3.5846047 -2.23786,-0.2428572 -4.24603,-1.71803045 -6.49567,-1.6717059 z m -0.46328,0.97303743 c 3.24489,0.85861302 10.26468,1.28676832 8.80419,4.89209422 0.14722,1.323717 -2.97596,0.60638 -2.99166,1.6919556 1.25241,0.030097 3.3607,-0.2839112 3.12318,1.1879334 0.70276,2.7131757 3.398,6.6686537 -0.51628,8.6187237 0.97955,-1.190014 0.9187,-2.725382 -0.38475,-3.799029 -1.82954,-1.57018 -1.38197,-3.7138695 -2.15737,-5.549237 -1.77065,-0.1381415 -1.9964,1.4518724 -2.18485,2.367545 -0.87944,3.081276 -5.88516,3.563245 -8.32717,5.783772 -3.5256,1.106796 -8.04842,1.693482 -9.39702,4.686547 -0.15115,2.814147 4.63667,3.058252 7.52429,2.877947 3.32144,1.606103 7.11991,-0.693481 10.69066,0.330097 3.14477,-0.15534 3.29788,2.783634 2.2084,4.214979 -1.73924,2.255201 -3.87109,4.35645 -5.99509,6.434119 -0.43383,0.552012 -0.83821,-0.919556 -1.20726,-0.104022 -2.14559,1.912622 -3.02699,5.664355 -6.2444,6.398058 -2.1397,3.191401 -3.26648,6.757282 -5.734,9.814147 -1.42516,0.938974 -0.88926,-0.943134 -1.68036,-1.165048 -2.48323,2.708738 -6.37002,4.486823 -8.3252,7.478502 -3.34304,0.0097 -2.33404,3.532593 -5.16473,4.277392 -0.8814,0.564494 -0.86766,1.545076 -1.59202,2.205271 -2.93669,2.177531 -0.69098,5.518723 -2.26337,8.040221 -0.61443,-0.472954 -0.46327,-1.696255 -1.64109,-1.640776 -1.28775,2.639389 -1.09145,5.531206 -1.73925,8.266296 -2.85424,1.871013 -2.03762,5.830791 -2.40863,8.600555 2.54212,-0.101248 -0.28857,-5.34258 2.50482,-3.538142 2.42631,2.098475 5.86553,3.510403 7.9699,5.816921 -1.42712,-0.353675 -2.79732,-0.828016 -4.29118,-1.022191 2.39882,1.497919 4.53852,3.201109 6.94716,4.678225 -2.43808,-0.257975 0.3023,1.17337 -1.11304,1.775312 13.04825,-0.07351 23.0597,7.241335 33.75036,11.485435 -1.86488,-1.82663 -4.98413,-2.90707 -7.56944,-4.20804 3.87305,-0.95423 7.8953,0.0416 11.84099,-0.0832 9.20464,-0.32594 18.07753,-2.366159 27.24488,-2.830791 5.08424,0.04022 10.07034,0.962552 15.11532,1.391121 10.89481,2.22053 22.77114,3.17199 31.99737,8.25659 4.29904,1.8724 7.9699,4.33426 11.32668,6.97781 6.30132,4.40915 12.81858,8.94036 16.60723,14.70458 2.336,3.68377 4.22051,7.90291 7.2632,11.10124 -0.15704,-1.38696 -1.35449,-3.49653 -2.47341,-5.01109 2.51267,0.28987 3.55308,2.4036 5.65352,3.27739 7.63618,4.03606 11.2089,10.51317 15.46867,16.31068 1.27597,2.78779 3.76901,5.50624 3.27826,8.54369 -0.86374,-0.38835 -1.49191,-1.49792 -2.61083,-1.22053 0.47113,1.16505 2.27711,1.91401 2.63046,3.05132 -1.04041,1.05409 0.23556,2.6491 -0.0196,3.43966 -2.8464,-2.34396 -4.82905,-5.29819 -6.478,-8.21081 -3.45493,-3.19002 -4.02421,-8.28017 -8.99067,-10.34674 5.7713,6.1165 8.6177,13.43966 14.21233,19.68099 1.2956,3.49515 3.94569,6.82386 4.45607,10.44383 -2.02192,0.0832 -1.31523,-2.82941 -3.74938,-2.30236 2.53231,2.91262 2.49305,6.44938 4.00458,9.65326 -0.88337,0.34674 -1.00115,-1.13731 -1.88451,-0.52705 0.49076,2.27462 1.78636,4.49376 2.02192,6.76838 -1.21708,-0.957 -1.41338,-2.76005 -2.74824,-3.38419 -0.4515,6.40777 5.41796,12.08045 10.32553,17.29543 1.35449,2.14979 -3.39604,-2.52428 -2.29674,-0.0971 2.68935,4.04993 6.00687,7.94729 10.26664,11.28987 -2.10044,-0.26352 -2.74824,-2.48266 -4.59349,-2.53814 0.39261,1.91401 3.72976,2.57975 4.16162,4.47989 1.9434,4.75728 4.82905,9.27878 7.53803,13.82802 1.39375,1.62274 -1.37412,3.45353 0.15705,4.96532 -2.10044,1.02635 -5.00573,0.37448 -7.40062,0.74896 -17.51022,2.28849 -34.66709,6.78225 -52.66807,6.90708 -2.45379,-4.03607 1.88451,-8.52982 6.81171,-10.51318 4.96646,-1.38696 9.81515,-3.57836 15.37052,-3.07906 -1.39375,-1.55339 -5.22166,-0.80444 -7.59692,-1.0957 -1.17782,-2.16366 -0.96189,-4.67406 -3.00344,-6.58807 -0.70669,-1.83079 -3.78865,-2.99584 -6.12465,-1.81692 -2.94454,-1.42857 -3.18011,-4.16089 -3.59234,-6.36616 -1.72747,1.0957 -0.33372,3.32871 -0.903,4.93759 -2.06118,-2.08045 -4.94683,-3.85576 -5.86945,-6.3939 -0.66743,0.69348 -0.41224,1.63662 -0.72632,2.42719 -2.00229,-2.21914 -3.51383,-4.72955 -6.18354,-6.62969 -1.9434,0.11096 0.98151,1.59501 -0.6478,1.81693 -3.08196,-3.25937 -4.88795,-7.0319 -7.53804,-10.4577 -1.66857,0.40222 0.68706,2.38557 -0.64779,2.91262 -3.6905,-4.50763 -6.89024,-9.19556 -10.1685,-13.84189 -1.37412,0.4577 0.54965,1.92788 0.76559,2.85715 -2.04155,0.16643 -3.94569,-0.41609 -5.86946,-0.80444 -1.23671,1.33148 -2.53231,-0.52705 -4.10273,-0.56866 1.31523,1.62275 4.10273,2.24688 5.59463,3.73093 -2.74824,-0.16643 -5.1235,-1.42857 -7.93064,-1.35922 -2.27711,-0.0416 -4.672,-1.91401 -6.6154,-1.4147 1.82561,0.54091 2.86602,1.45631 0.66743,2.1914 -5.06462,-0.81831 -8.22509,-4.41054 -12.74006,-6.04716 2.35563,2.27462 5.575,4.02219 8.71585,5.7559 -5.98724,-0.67962 -11.09112,-3.4258 -17.17651,-3.80028 6.10502,2.85714 13.9964,3.93897 20.65107,5.60333 -4.86831,4.23023 -4.29903,10.02774 -5.1824,15.09015 -2.15933,-0.59639 -2.25748,-3.39806 -4.71127,-4.13315 0.41224,-0.73509 1.45264,-1.35922 1.35449,-2.20527 -4.33829,2.56588 -5.86945,6.68516 -7.79322,10.319 -2.47342,-1.37309 0.0785,-2.1914 -0.21594,-3.52288 -2.76787,0.67961 -5.22165,1.98335 -7.49877,3.27323 -4.12236,3.09293 -1.78635,7.58668 -3.61197,11.2344 -0.25519,2.01109 1.2956,4.99306 -1.96303,6.08876 -3.4353,0.33287 -7.12579,1.44244 -10.52183,0.4577 -7.45559,-1.42857 -15.23507,-2.38558 -22.83592,-2.91262 0.21004,-1.95562 -3.41567,-1.80305 -3.85735,-0.12483 -7.92671,0.0139 -15.78079,-1.16505 -23.56028,-2.06657 0.85,-1.40084 1.00704,-2.95423 1.67839,-4.39667 3.6002,-0.90153 6.93342,-2.38558 10.80452,-2.67684 -0.29053,1.595 1.18959,1.48405 2.38311,0.65187 3.12318,-0.22191 5.05284,2.08044 7.01783,3.23162 0.94814,-2.55201 -4.70734,-3.52288 -6.90593,-4.67406 1.91591,-3.49515 4.91542,-6.68516 8.7394,-9.27878 2.01211,-1.4147 0.82055,-3.63384 2.05725,-5.27046 0.94618,-1.42857 1.25045,-3.00971 1.6568,-4.54924 1.5135,-4.50762 5.33748,-8.40499 8.78652,-12.26074 1.009,-1.52566 2.91902,0.80443 4.42859,-0.30514 1.39179,-0.40221 -0.85588,-0.79056 -1.30541,-1.02635 -2.91117,-0.69348 -4.39719,-2.71844 -6.64289,-4.00832 -2.0494,-0.4577 1.84328,2.0111 -0.12367,1.44244 -7.87371,-2.85714 -15.41763,-6.2552 -23.14608,-9.20943 -0.22771,-1.28987 -2.32815,-3.48128 -0.008,-4.27184 0.4142,-2.28849 -2.14559,-4.02219 -3.31556,-5.99168 3.28023,0.0971 4.82513,3.35645 8.18387,2.99584 -2.34974,-3.13454 -3.42548,-6.62968 -5.45722,-9.8613 2.08081,0.38835 4.34615,2.94036 6.35825,1.30374 -4.75838,-1.90014 -6.31702,-6.06102 -8.75903,-9.27878 0.30034,2.70458 3.14281,4.95146 3.98887,7.60056 -0.88925,-0.15257 -1.8315,-1.05409 -2.76591,-0.62414 1.21512,3.17615 3.50205,6.14425 4.28922,9.41748 -2.20644,-0.7767 -4.10469,-3.17615 -6.796,-2.57975 0.12956,2.28849 2.35956,4.10541 3.01717,6.29681 -0.47112,0.0555 -0.94618,0.0832 -1.41338,0.12482 1.97088,3.70319 1.58024,7.8086 3.71994,11.47018 0.57909,1.47018 1.84329,3.52289 -0.67528,4.47989 -10.5395,7.68377 -11.77229,18.97365 -11.48176,29.12621 -0.13152,3.25937 3.40586,6.72677 0.97366,9.86131 -0.74987,0.79057 -0.75576,2.77392 -2.75412,2.34396 -9.59529,-1.58113 -19.36332,-0.0416 -29.03124,0.0555 -11.87436,0.9154 -23.852765,0.94314 -35.638791,2.3301 0.04515,-2.98197 3.005397,-6.64355 7.54392,-7.15673 7.314251,-5.86685 19.618511,-3.66158 29.023381,-7.05964 0.37887,-0.0971 0.41813,-0.23578 0.11778,-0.42995 -7.42025,0.88765 -14.75805,2.66296 -22.307857,2.77392 -0.616391,-7.97503 0.975627,-15.95007 2.575497,-23.82802 0.0275,-0.54091 1.34663,-0.74896 0.79306,-1.30374 -4.552263,-6.8932 -3.904464,-14.59085 -3.739569,-21.94175 1.044329,-0.0694 1.595939,1.01248 2.716829,1.05409 -3.150659,-3.25935 -6.479956,-6.44937 -10.197933,-9.41747 -4.249958,-5.21498 -8.690329,-10.42996 -11.136263,-16.2552 -1.352527,0.79057 0.583019,2.57975 0.844102,3.7448 0.959921,2.87101 3.360706,5.33981 5.064615,7.97503 -3.305741,4.92372 -3.871093,10.79057 -3.238998,15.96394 -1.311303,-0.40222 -1.4389,-2.9681 -3.54523,-2.49653 -1.592017,5.0208 -2.230001,10.1803 -1.949288,15.31206 -1.234745,-0.0832 -1.533125,-2.17753 -2.92295,-2.17753 -3.140846,4.39667 -4.699491,9.59778 -4.071322,14.5215 -0.677245,-0.0277 -1.680353,-0.67961 -2.016031,0.0971 -2.944543,3.59223 -2.557827,7.94729 -2.61868,11.95561 -0.49861,-0.0277 -0.995256,-0.0555 -1.489939,-0.0693 1.083592,2.12205 0.388679,4.35506 0.457385,6.54646 0.545722,2.70458 1.984623,5.4785 1.089481,8.22469 -0.498609,1.67822 -3.319482,1.13731 -4.703417,2.16366 -1.823654,1.17892 -0.367086,3.43967 -2.228038,4.57697 -19.502693,1.12344 -38.127912,5.9362 -57.5383422,7.43412 -1.78319586,-4.43828 1.7889083,-8.84882 6.2675589,-11.80305 5.8735793,-3.09292 12.7483023,-5.29819 19.9149293,-6.33842 -0.967774,-1.06796 -5.101913,0.65188 -6.607556,-0.0971 -0.382791,-1.0957 -0.624243,-2.20527 -0.632095,-3.32871 0.844102,-7.50347 1.366268,-15.03468 2.039587,-22.55201 0.478979,-4.86824 2.930802,-9.44522 4.281366,-14.18863 -0.657615,-12.46879 2.489121,-24.8405 6.958938,-36.80998 -1.866841,1.0957 -1.784394,3.53675 -3.317519,4.7018 0.286602,-3.89736 2.442008,-7.61442 2.905283,-11.49792 0.263046,-2.31623 2.328152,-4.28849 2.697202,-6.56588 -1.774579,0.62691 -2.290855,2.23301 -3.994764,2.93065 0.394568,-3.60471 2.471453,-6.96948 4.010468,-10.35506 -1.48405,-1.09847 -1.996401,2.14425 -2.950433,1.94036 1.307378,-3.86546 3.180107,-7.6491 4.022247,-11.5853 -2.208408,1.17892 -1.902175,3.85576 -3.975134,5.02913 -0.100115,-6.79334 3.5256,-13.47989 9.24194,-18.88072 5.80664,-7.403606 14.520526,-13.747573 18.21102,-21.957004 2.807132,-3.490985 4.092915,-7.435506 6.212987,-11.130375 2.950432,-4.123439 4.538523,-8.651872 7.298542,-12.833564 4.149843,-6.447989 10.881069,-11.776699 16.161617,-17.742024 2.46949,-1.396672 3.890723,-5.135923 7.88745,-3.188627 2.108294,3.242718 7.577294,4.441054 12.380824,4.345353 -2.17504,-1.952843 3.59431,0.382802 3.14674,-0.993065 -4.13807,-1.037448 -8.58629,-1.393897 -12.73614,-2.409154 1.72551,-1.14147 3.89269,0.887656 5.78898,0.490985 0.68313,-0.341193 -0.33568,-0.846047 -0.83429,-0.958391 -3.47456,-0.751734 -7.292654,-0.995839 -10.476687,-2.212205 0.830361,-0.628294 3.73957,0.841886 4.340257,-0.04022 -2.732536,-1.203884 -6.53296,-0.930652 -9.059379,-2.509016 -0.386716,-0.966712 1.381973,-1.67545 2.445935,-1.984743 -1.222967,-0.545076 -2.697202,-0.621359 -4.02421,-0.976422 0.683134,-0.944521 3.33126,-0.701803 4.756419,-1.055478 -0.4672,0.36061 -1.676426,0.565881 -1.203336,1.176144 2.964173,0.266297 6.048092,-0.768377 8.737441,-0.646324 -1.18763,0.898751 -0.28268,2.320388 1.79225,1.775312 4.29707,-0.647712 9.12415,-0.292649 13.18566,-1.163662 -4.05758,-1.320388 -8.62162,0.364771 -12.73024,-0.01526 0.97562,-1.307906 4.38148,-0.651873 5.97742,-1.547851 -4.65827,-0.825242 -9.57369,0.312067 -14.129881,0.460472 -2.157368,-0.604716 2.147554,-0.131761 1.301489,-1.130374 -1.682316,-0.797504 -5.423849,1.628294 -6.360214,0.367545 2.871911,-1.797504 6.984457,-0.603329 10.439386,-1.054092 5.1451,-0.359223 10.40798,1.542302 15.16636,1.174757 -2.80124,-1.585298 -7.6774,-1.210818 -11.28938,-2.120665 7.37118,-2.549238 12.74203,-7.436893 20.99853,-8.823856 4.81727,-0.930652 9.27334,-2.622746 14.03958,-3.664355 3.49812,-0.131762 7.57729,0.48821 10.36283,-1.394313 4.41092,-3.1527049 9.51284,-5.8686549 15.35874,-7.5436896 4.67593,-1.1814147 9.90151,-1.3854369 14.10632,-3.3789181 -1.02077,2.9199722 -6.69393,1.2496532 -8.40372,3.5370318 0.83821,0.551595 2.54212,-0.654785 3.65516,-0.7850207 3.77294,-0.5850208 7.56551,0.7446601 10.1626,2.6303744 0.37886,0.6227462 2.06118,0.536061 1.48994,-0.2330097 -1.5135,-1.4871012 -3.84754,-2.4393897 -6.13447,-3.2373093 -0.3082,-0.9137309 1.68428,-1.5334257 2.72076,-1.8248266 0.9344,-0.8823162 -3.0211,-0.5927878 -0.98544,-1.09300964 z M 138.8995,17.705456 c -0.61442,0 -1.19941,0.05825 -1.68231,0.17337 -2.58335,0.438281 -5.47489,2.719834 -3.87698,4.596394 1.44871,0.126214 1.33486,-1.363384 1.98658,-1.918169 1.00704,-1.309293 3.41763,-1.17337 5.0921,-0.683773 -2.21626,1.787795 -5.88516,2.428572 -7.99738,4.223301 3.95354,-0.950069 7.06494,-3.054091 10.98118,-4.0638 0.26109,-1.568654 -2.31245,-2.324549 -4.50319,-2.327323 z m 5.35711,4.169209 c -0.11189,-0.0055 -0.24145,0.01942 -0.38672,0.08738 -2.98576,1.281553 -5.37084,3.20111 -7.75985,4.962552 3.22918,-0.803051 5.74775,-2.37448 8.40765,-3.825243 0.46524,-0.252427 0.34746,-1.194174 -0.26108,-1.224689 z m -2.47734,3.972261 c -0.16882,0.0083 -0.34157,0.05548 -0.49665,0.151179 -3.38819,1.582524 -6.30721,3.565881 -8.92982,5.757281 4.08114,-0.79889 6.27384,-3.658807 9.98986,-4.923717 0.85784,-0.366158 0.16882,-1.024965 -0.56339,-0.984743 z m -1.10911,3.359223 c -0.14919,-0.0014 -0.3455,0.05409 -0.50647,0.138697 -3.04662,2.083217 -7.22002,3.423023 -9.04367,6.280166 1.5665,0.0111 2.22019,-1.216366 3.35285,-1.768377 2.43809,-1.142857 5.22951,-2.298197 6.37985,-4.307906 0.12563,-0.245492 0.01,-0.341193 -0.18256,-0.34258 z M 106.53505,40.77203 c 0.5359,0.0319 0.0255,0.730929 -0.54965,0.108183 0.24538,-0.08738 0.42597,-0.116505 0.54965,-0.108183 z m -0.0393,1.944521 c -0.0903,-0.0014 -0.21397,0.02774 -0.3769,0.101249 -0.74006,0.17337 -2.40863,0.567267 -1.96303,1.355062 1.69802,0.872399 4.04777,0.06241 6.00491,0.194175 -0.27875,-1.325936 -3.18796,-0.05964 -3.8495,-0.848821 0.35727,-0.203884 0.57713,-0.793343 0.18452,-0.801665 z m 3.12711,2.220527 c -0.23556,0.0069 -0.65173,0.08322 -1.30738,0.257975 -0.92655,0.231623 -2.14755,0.527046 -2.33208,1.309293 0.23164,1.128987 2.80321,0.531207 3.05055,1.447989 -1.04433,0.381415 -2.8778,1.420249 -0.96385,1.965326 1.81973,0.122052 -0.73613,1.617198 1.26616,1.837725 3.41959,0.773925 -1.52135,-0.87656 1.12285,-1.614424 1.72747,-1.012483 -0.92459,-0.687934 -1.37019,-1.223301 0.6105,-0.550624 1.88647,-0.814147 2.0867,-1.527046 -0.69884,-0.700416 -2.78751,-0.460472 -3.24489,-1.299584 1.07181,-0.343967 2.53427,-1.183079 1.69213,-1.153953 z m 1.46246,8.165049 c -0.70277,0.0042 -1.40161,0.02913 -2.0337,0.08738 -1.16408,1.26491 4.90168,0.545077 5.3041,-0.0069 -0.91281,-0.043 -2.09651,-0.09015 -3.2704,-0.08044 z m 32.74725,30.183078 c -0.0334,0 -0.0726,0.0069 -0.11582,0.0208 -1.69213,2.343966 -0.87944,5.122052 -0.90496,7.667128 2.94258,-1.169209 -0.4672,-3.836338 0.80877,-5.639389 -0.12367,-0.368932 0.69884,-2.036061 0.21201,-2.048544 z m -1.76673,5.436893 c -0.0844,-0.0069 -0.20808,0.02358 -0.38868,0.108183 -1.25634,1.697643 -1.10126,4.216366 -0.0883,5.918169 2.31834,-0.475728 -0.54376,-3.527045 0.4888,-4.944521 -0.053,-0.298197 0.34942,-1.049931 -0.0118,-1.081831 z M 68.550435,123.30323 c 3.025027,5.77809 9.616879,10.38281 16.937014,13.56172 1.735317,0.64078 -0.102078,-0.88626 -0.740062,-0.96948 -6.813674,-3.21498 -11.485683,-8.05271 -16.196952,-12.59224 z m 2.271224,6.76838 c 3.258628,6.51873 9.485356,13.09154 18.860783,15.61581 -3.922132,-2.14979 -7.846227,-4.45215 -11.163746,-7.10679 -2.887616,-2.62414 -4.12825,-6.52427 -7.697037,-8.50902 z m 82.741671,1.72538 c 2.76395,3.61027 4.83298,7.45493 7.7893,10.99168 -1.59594,-0.0416 -3.59431,-2.31623 -4.92131,-0.88766 1.41338,3.20389 3.12906,6.36616 5.73008,9.1817 1.00507,1.94174 -2.41453,0.29126 -3.38819,0.23578 0.52609,1.74757 7.5341,3.03745 4.58564,0.0139 -2.45379,-2.81553 -4.6779,-5.72816 -6.28562,-8.83495 2.48323,-0.26353 4.93701,2.89875 6.97071,1.38696 -3.33518,-4.04993 -6.62522,-8.36061 -10.48061,-12.08738 z m -79.791238,7.76006 c -0.139375,0 -0.284639,0.0277 -0.429904,0.0693 2.070996,5.93619 10.36283,10.24965 17.349251,13.66158 -5.345328,-4.21637 -12.999178,-7.29543 -15.888757,-12.84328 0.05496,-0.55478 -0.429903,-0.90152 -1.03059,-0.88765 z m 160.220458,17.23994 c 4.5346,4.61859 10.54147,8.46047 16.86242,11.84466 2.47342,1.27601 5.3787,3.31484 8.6177,2.91262 -9.52069,-3.86962 -17.76541,-9.50069 -25.48012,-14.75728 z m 5.30018,7.91956 c 4.37756,4.11928 10.20775,7.32316 15.95943,10.41608 1.55079,0.63801 3.10158,1.56727 4.98609,1.56727 -7.89138,-3.06519 -13.46638,-8.51595 -20.94552,-11.98335 z m 8.08768,11.71983 h -0.0982 c 4.5346,6.42163 11.95485,11.60887 19.964,15.95007 1.19745,0.54091 3.29789,1.7337 4.49534,0.638 -8.55881,-3.9251 -16.86242,-8.61304 -22.10371,-14.93759 -0.68706,-0.52704 -1.13855,-1.65048 -2.25748,-1.65048 z m -84.03334,4.23023 c 5.08424,0.99862 9.15556,4.07767 14.19466,5.46464 3.74742,1.66435 8.55292,2.70457 10.98511,5.4785 -4.36185,4.59084 -8.81007,9.45908 -9.72092,15.07628 -1.76869,1.96949 -1.21511,4.27184 -2.24374,6.36616 -4.00458,3.10679 -7.72452,6.53259 -9.63847,10.56865 -4.48749,-0.56865 -8.0602,1.63662 -12.19238,2.27462 -3.11336,-8.33564 -1.7255,-17.1706 1.32505,-25.42302 1.78832,-4.21637 5.80664,-7.75312 9.87796,-10.98475 0.52805,-3.05131 -2.01996,-5.85298 -2.58727,-8.82108 z m 25.25829,6.24133 c 6.13447,3.8835 13.58612,6.58808 20.39783,9.84744 0.88337,0.37448 3.86717,-0.24966 1.92377,-0.7767 -5.08424,-1.28988 -7.18468,-5.1595 -10.36479,-7.69764 0.15704,1.42857 2.68935,3.21775 3.6316,4.86824 -5.59463,-1.48405 -9.82299,-5.09016 -15.58841,-6.24134 z m 16.53067,4.04993 c 7.14542,3.66159 15.39014,6.97643 23.43856,9.66713 0.53002,-0.22191 2.25749,-0.72122 1.07967,-1.10957 -5.39833,-0.84604 -8.53918,-4.34119 -11.77817,-7.18446 -0.68706,1.4147 3.33714,3.17614 3.53345,4.3828 -5.59463,-1.53953 -10.22738,-4.96533 -16.27351,-5.7559 z m -78.28167,28.19695 c -1.10715,0 -2.45575,0.33287 -3.27433,0.40222 0.26893,0.84605 3.78864,0.37448 4.83886,0.0971 -0.3239,-0.37448 -0.90103,-0.49931 -1.56453,-0.49931 z"
     fill="#271f0d"
     id="path4"
     style="stroke-width:0.165004" />
  <path
     d="m 105.98589,40.879393 c 1.31596,-0.469695 0.70993,0.76543 0,0 z"
     fill="#caa46b"
     id="path6"
     style="stroke-width:0.206256" />
</svg>
