<?xml version="1.0" encoding="UTF-8" standalone="no"?>
<svg
   xmlns:dc="http://purl.org/dc/elements/1.1/"
   xmlns:cc="http://creativecommons.org/ns#"
   xmlns:rdf="http://www.w3.org/1999/02/22-rdf-syntax-ns#"
   xmlns:svg="http://www.w3.org/2000/svg"
   xmlns="http://www.w3.org/2000/svg"
   xmlns:xlink="http://www.w3.org/1999/xlink"
   xmlns:sodipodi="http://sodipodi.sourceforge.net/DTD/sodipodi-0.dtd"
   xmlns:inkscape="http://www.inkscape.org/namespaces/inkscape"
   id="svg2"
   sodipodi:docname="pot.svg"
   viewBox="0 0 460.86979 295.9056"
   sodipodi:version="0.32"
   version="1.0"
   inkscape:output_extension="org.inkscape.output.svg.inkscape"
   inkscape:version="1.0.2-2 (e86c870879, 2021-01-15)"
   width="121.93846mm"
   height="78.291695mm">
  <sodipodi:namedview
     id="base"
     bordercolor="#666666"
     inkscape:pageshadow="2"
     guidetolerance="10"
     pagecolor="#ffffff"
     gridtolerance="10000"
     inkscape:zoom="1.4035738"
     objecttolerance="10"
     showgrid="false"
     borderopacity="1.0"
     inkscape:current-layer="layer1"
     inkscape:cx="203.97207"
     inkscape:cy="260.41052"
     showguides="true"
     inkscape:guide-bbox="true"
     inkscape:pageopacity="0.0"
     inkscape:document-units="px"
     inkscape:document-rotation="0"
     units="mm"
     inkscape:window-width="1920"
     inkscape:window-height="1017"
     inkscape:window-x="-8"
     inkscape:window-y="-8"
     inkscape:window-maximized="1" />
  <defs
     id="defs4">
    <linearGradient
       id="linearGradient3652">
      <stop
         id="stop3654"
         style="stop-color:#ffffff"
         offset="0" />
      <stop
         id="stop3656"
         style="stop-color:#666666"
         offset="1" />
    </linearGradient>
    <filter
       id="filter3417"
       height="1.3436"
       width="1.1464"
       y="-0.17182"
       x="-0.073211998"
       inkscape:collect="always">
      <feGaussianBlur
         id="feGaussianBlur3419"
         stdDeviation="18.547905"
         inkscape:collect="always" />
    </filter>
    <filter
       id="filter3593"
       inkscape:collect="always">
      <feGaussianBlur
         id="feGaussianBlur3595"
         stdDeviation="8.7190318"
         inkscape:collect="always" />
    </filter>
    <filter
       id="filter3878"
       inkscape:collect="always">
      <feGaussianBlur
         id="feGaussianBlur3880"
         stdDeviation="0.9623389"
         inkscape:collect="always" />
    </filter>
    <filter
       id="filter4098"
       inkscape:collect="always">
      <feGaussianBlur
         id="feGaussianBlur4100"
         stdDeviation="1.1406617"
         inkscape:collect="always" />
    </filter>
    <filter
       id="filter4298"
       height="1.2309999"
       width="1.2309999"
       y="-0.11551"
       x="-0.11551"
       inkscape:collect="always">
      <feGaussianBlur
         id="feGaussianBlur4300"
         stdDeviation="1.4272666"
         inkscape:collect="always" />
    </filter>
    <filter
       id="filter4984"
       height="1.8314"
       width="1.5164"
       y="-0.41569"
       x="-0.25819999"
       inkscape:collect="always">
      <feGaussianBlur
         id="feGaussianBlur4986"
         stdDeviation="8.7765382"
         inkscape:collect="always" />
    </filter>
    <filter
       id="filter5457"
       height="1.4263999"
       width="1.094"
       y="-0.21318001"
       x="-0.04699"
       inkscape:collect="always">
      <feGaussianBlur
         id="feGaussianBlur5459"
         stdDeviation="7.2465618"
         inkscape:collect="always" />
    </filter>
    <filter
       id="filter9616"
       inkscape:collect="always">
      <feGaussianBlur
         id="feGaussianBlur9618"
         stdDeviation="0.78297011"
         inkscape:collect="always" />
    </filter>
    <filter
       id="filter9794"
       height="1.3005"
       width="1.5884"
       y="-0.15027"
       x="-0.29418999"
       inkscape:collect="always">
      <feGaussianBlur
         id="feGaussianBlur9796"
         stdDeviation="0.93466279"
         inkscape:collect="always" />
    </filter>
    <filter
       id="filter9870"
       height="1.5033"
       width="1.1609"
       y="-0.25163001"
       x="-0.080453999"
       inkscape:collect="always">
      <feGaussianBlur
         id="feGaussianBlur9872"
         stdDeviation="29.458286"
         inkscape:collect="always" />
    </filter>
    <linearGradient
       id="linearGradient9930"
       y2="-477.31"
       spreadMethod="reflect"
       gradientUnits="userSpaceOnUse"
       x2="-2155.5"
       gradientTransform="translate(-2413.6,-1149)"
       y1="-483.04001"
       x1="-2249.8"
       inkscape:collect="always">
      <stop
         id="stop3648"
         style="stop-color:#ffffff"
         offset="0" />
      <stop
         id="stop3650"
         style="stop-color:#666666"
         offset="1" />
    </linearGradient>
    <linearGradient
       id="linearGradient9932"
       y2="-385.26001"
       gradientUnits="userSpaceOnUse"
       x2="-1393.9"
       gradientTransform="matrix(1.0776,0,0,1,-2305.5,-1149)"
       y1="-373.60001"
       x1="-1702.4"
       inkscape:collect="always">
      <stop
         id="stop4312"
         style="stop-color:#7f7f7f"
         offset="0" />
      <stop
         id="stop4314"
         style="stop-color:#8a8a8a"
         offset=".18617" />
      <stop
         id="stop4316"
         style="stop-color:#ededed"
         offset=".26861" />
      <stop
         id="stop4318"
         style="stop-color:#929292"
         offset=".64559" />
      <stop
         id="stop4320"
         style="stop-color:#f1f1f1"
         offset=".70376" />
      <stop
         id="stop4322"
         style="stop-color:#c3c3c3"
         offset=".80983" />
      <stop
         id="stop4324"
         style="stop-color:#434343"
         offset="1" />
    </linearGradient>
    <linearGradient
       id="linearGradient9934"
       y2="-244.52"
       gradientUnits="userSpaceOnUse"
       x2="-1510.5"
       gradientTransform="matrix(1,0,0,0.70079,-2413.6,-1287.5)"
       y1="-244.52"
       x1="-2150"
       inkscape:collect="always">
      <stop
         id="stop3287"
         style="stop-color:#a0a0a0"
         offset="0" />
      <stop
         id="stop3299"
         style="stop-color:#cfcfcf;stop-opacity:.86885"
         offset=".55643" />
      <stop
         id="stop3293"
         style="stop-color:#ffffff;stop-opacity:.73770"
         offset=".64674" />
      <stop
         id="stop3295"
         style="stop-color:#e4e4e4;stop-opacity:.88525"
         offset=".80467" />
      <stop
         id="stop3297"
         style="stop-color:#a0a0a0;stop-opacity:.12157"
         offset=".875" />
      <stop
         id="stop3289"
         style="stop-color:#3e3e3e;stop-opacity:.77869"
         offset="1" />
    </linearGradient>
    <linearGradient
       id="linearGradient9936"
       y2="-130.45"
       gradientUnits="userSpaceOnUse"
       x2="-2198.7"
       gradientTransform="matrix(1,0,0,0.53222,-2413.6,-1365.5)"
       y1="-135.97"
       x1="-1620.1"
       inkscape:collect="always">
      <stop
         id="stop3325"
         style="stop-color:#a0a0a0;stop-opacity:0"
         offset="0" />
      <stop
         id="stop3327"
         style="stop-color:#cfcfcf;stop-opacity:.86885"
         offset=".55643" />
      <stop
         id="stop3329"
         style="stop-color:#ffffff;stop-opacity:.68033"
         offset=".64674" />
      <stop
         id="stop3331"
         style="stop-color:#e4e4e4;stop-opacity:.44262"
         offset=".80467" />
      <stop
         id="stop3333"
         style="stop-color:#a0a0a0;stop-opacity:.12157"
         offset=".84351" />
      <stop
         id="stop3335"
         style="stop-color:#3e3e3e;stop-opacity:0"
         offset="1" />
    </linearGradient>
    <linearGradient
       id="linearGradient9938"
       y2="-77.834999"
       gradientUnits="userSpaceOnUse"
       x2="-1979.3"
       y1="-290.82001"
       x1="-1959.9"
       inkscape:collect="always">
      <stop
         id="stop3277"
         style="stop-color:#737373"
         offset="0" />
      <stop
         id="stop3279"
         style="stop-color:#3b2c28;stop-opacity:0"
         offset="1" />
    </linearGradient>
    <linearGradient
       id="linearGradient9940"
       y2="-244.52"
       gradientUnits="userSpaceOnUse"
       x2="-1829.8"
       gradientTransform="matrix(0.45044,0,0,1,-3573.1,-1185.8)"
       y1="-244.52"
       x1="-1990"
       inkscape:collect="always">
      <stop
         id="stop3433"
         style="stop-color:#ffffff"
         offset="0" />
      <stop
         id="stop3435"
         style="stop-color:#a0a0a0;stop-opacity:0"
         offset="1" />
    </linearGradient>
    <linearGradient
       id="linearGradient9942"
       y2="-348.76001"
       gradientUnits="userSpaceOnUse"
       x2="-1390.8"
       gradientTransform="translate(-2413.6,-1149)"
       y1="-366.10999"
       x1="-1620.1"
       inkscape:collect="always">
      <stop
         id="stop4120"
         style="stop-color:#7f7f7f"
         offset="0" />
      <stop
         id="stop4130"
         style="stop-color:#8a8a8a"
         offset="0.185" />
      <stop
         id="stop4124"
         style="stop-color:#cfcfcf"
         offset=".28214" />
      <stop
         id="stop4126"
         style="stop-color:#929292"
         offset=".41005" />
      <stop
         id="stop4128"
         style="stop-color:#f7f7f7"
         offset=".77127" />
      <stop
         id="stop4132"
         style="stop-color:#c3c3c3"
         offset=".80983" />
      <stop
         id="stop4122"
         style="stop-color:#434343"
         offset="1" />
    </linearGradient>
    <linearGradient
       id="linearGradient9944"
       y2="-405.10999"
       gradientUnits="userSpaceOnUse"
       x2="-1502.3"
       gradientTransform="translate(-2413.6,-1149)"
       y1="-385.26001"
       x1="-1494.4"
       inkscape:collect="always">
      <stop
         id="stop4338"
         style="stop-color:#ffffff;stop-opacity:0"
         offset="0" />
      <stop
         id="stop4340"
         style="stop-color:#191919"
         offset="1" />
    </linearGradient>
    <linearGradient
       id="linearGradient9946"
       y2="-1648.5"
       gradientUnits="userSpaceOnUse"
       x2="-4578.1001"
       y1="-1551.1"
       x1="-4604.5"
       inkscape:collect="always">
      <stop
         id="stop9636"
         style="stop-color:#7f7f7f"
         offset="0" />
      <stop
         id="stop9638"
         style="stop-color:#8a8a8a"
         offset=".34234" />
      <stop
         id="stop9640"
         style="stop-color:#cfcfcf"
         offset=".49120" />
      <stop
         id="stop9642"
         style="stop-color:#929292"
         offset=".76212" />
      <stop
         id="stop9644"
         style="stop-color:#c3c3c3"
         offset=".93653" />
      <stop
         id="stop9646"
         style="stop-color:#ffffff"
         offset="1" />
    </linearGradient>
    <linearGradient
       id="linearGradient9948"
       y2="-65.916"
       xlink:href="#linearGradient3652"
       gradientUnits="userSpaceOnUse"
       x2="-72.225998"
       y1="-75.030998"
       x1="207.81"
       inkscape:collect="always" />
    <linearGradient
       id="linearGradient9952"
       y2="-115.38"
       gradientUnits="userSpaceOnUse"
       x2="-61.077999"
       y1="148.5"
       x1="-123"
       inkscape:collect="always">
      <stop
         id="stop5295"
         style="stop-color:#000000"
         offset="0" />
      <stop
         id="stop5297"
         style="stop-color:#000000;stop-opacity:0"
         offset="1" />
    </linearGradient>
    <linearGradient
       id="linearGradient9954"
       y2="-387.45001"
       gradientUnits="userSpaceOnUse"
       x2="-3231"
       gradientTransform="matrix(1.0049,0,0,0.99991,-884.38,-814.95)"
       y1="-373.64999"
       x1="-3227.7"
       inkscape:collect="always">
      <stop
         id="stop5321"
         style="stop-color:#ffffff"
         offset="0" />
      <stop
         id="stop5323"
         style="stop-color:#ffffff;stop-opacity:0"
         offset="1" />
    </linearGradient>
    <linearGradient
       id="linearGradient9956"
       y2="-70.945"
       xlink:href="#linearGradient3652"
       gradientUnits="userSpaceOnUse"
       x2="-313.85001"
       y1="-75.789001"
       x1="231.10001"
       inkscape:collect="always" />
    <linearGradient
       id="linearGradient9958"
       y2="-67.176003"
       gradientUnits="userSpaceOnUse"
       x2="246.75"
       y1="-67.176003"
       x1="-313.76999"
       inkscape:collect="always">
      <stop
         id="stop3618"
         style="stop-color:#a0a0a0"
         offset="0" />
      <stop
         id="stop3634"
         style="stop-color:#c3c3c3"
         offset=".11731" />
      <stop
         id="stop3636"
         style="stop-color:#949494;stop-opacity:.99180"
         offset=".19810" />
      <stop
         id="stop3620"
         style="stop-color:#584e4e;stop-opacity:.87059"
         offset=".22019" />
      <stop
         id="stop3622"
         style="stop-color:#3e3e3e;stop-opacity:.73725"
         offset=".34640" />
      <stop
         id="stop3632"
         style="stop-color:#a9a9a9;stop-opacity:.81176"
         offset=".53583" />
      <stop
         id="stop3624"
         style="stop-color:#e4e4e4;stop-opacity:.88525"
         offset=".79074" />
      <stop
         id="stop3626"
         style="stop-color:#ffffff"
         offset=".80022" />
      <stop
         id="stop3630"
         style="stop-color:#ffffff;stop-opacity:.89020"
         offset=".86756" />
      <stop
         id="stop3628"
         style="stop-color:#3e3e3e;stop-opacity:.77869"
         offset="1" />
    </linearGradient>
    <radialGradient
       id="radialGradient9960"
       fx="-2954.3"
       gradientUnits="userSpaceOnUse"
       cy="278.76001"
       cx="-2801.1001"
       gradientTransform="matrix(0.9976,-0.069278,0.053468,0.76994,-466.44,-1487.5)"
       r="304.28"
       inkscape:collect="always">
      <stop
         id="stop5163"
         style="stop-color:#a3a3a3"
         offset="0" />
      <stop
         id="stop5165"
         style="stop-color:#666666"
         offset="1" />
    </radialGradient>
    <linearGradient
       id="linearGradient9962"
       y2="-542.40002"
       gradientUnits="userSpaceOnUse"
       x2="-1759"
       gradientTransform="translate(-975.97,746.86)"
       y1="-533.13"
       x1="-1976.3"
       inkscape:collect="always">
      <stop
         id="stop4591"
         style="stop-color:#3b3b3b"
         offset="0" />
      <stop
         id="stop4593"
         style="stop-color:#3b3b3b;stop-opacity:0"
         offset="1" />
    </linearGradient>
    <linearGradient
       id="linearGradient9964"
       y2="-590.90997"
       xlink:href="#linearGradient3652"
       spreadMethod="reflect"
       gradientUnits="userSpaceOnUse"
       x2="-1816.4"
       gradientTransform="translate(-973.97,742.86)"
       y1="-518.29999"
       x1="-1904"
       inkscape:collect="always" />
    <radialGradient
       id="radialGradient9966"
       gradientUnits="userSpaceOnUse"
       cy="285.67001"
       cx="-3009.1001"
       gradientTransform="matrix(3.3834,-0.45171,0.88438,1.9841,6919.4,-1640.4)"
       r="41.351002"
       inkscape:collect="always">
      <stop
         id="stop4754"
         style="stop-color:#e3e3e3"
         offset="0" />
      <stop
         id="stop4756"
         style="stop-color:#f1f1f1"
         offset="1" />
    </radialGradient>
    <linearGradient
       id="linearGradient9968"
       y2="324.69"
       gradientUnits="userSpaceOnUse"
       x2="-2603.8999"
       gradientTransform="translate(-444.81,-1357.5)"
       y1="271.48999"
       x1="-2616.7"
       inkscape:collect="always">
      <stop
         id="stop5039"
         style="stop-color:#525252"
         offset="0" />
      <stop
         id="stop5041"
         style="stop-color:#525252;stop-opacity:0"
         offset="1" />
    </linearGradient>
    <linearGradient
       id="linearGradient9970"
       y2="-1555.6"
       gradientUnits="userSpaceOnUse"
       x2="-4615.5"
       y1="-1552.5"
       x1="-4496.3999"
       inkscape:collect="always">
      <stop
         id="stop9622"
         style="stop-color:#7f7f7f"
         offset="0" />
      <stop
         id="stop9624"
         style="stop-color:#8a8a8a"
         offset="0.185" />
      <stop
         id="stop9626"
         style="stop-color:#cfcfcf"
         offset=".62230" />
      <stop
         id="stop9628"
         style="stop-color:#929292"
         offset=".62230" />
      <stop
         id="stop9630"
         style="stop-color:#c3c3c3"
         offset=".69421" />
      <stop
         id="stop9632"
         style="stop-color:#ffffff"
         offset="1" />
    </linearGradient>
    <radialGradient
       id="radialGradient9972"
       fx="-4618"
       fy="-1085.7"
       gradientUnits="userSpaceOnUse"
       cy="-1160.5"
       cx="-4358.8999"
       gradientTransform="matrix(1,0,0,0.53288,0,-542.09)"
       r="439.38"
       inkscape:collect="always">
      <stop
         id="stop9802"
         style="stop-color:#000000"
         offset="0" />
      <stop
         id="stop9804"
         style="stop-color:#000000;stop-opacity:0"
         offset="1" />
    </radialGradient>
    <linearGradient
       inkscape:collect="always"
       xlink:href="#linearGradient3652"
       id="linearGradient991"
       gradientUnits="userSpaceOnUse"
       x1="207.81"
       y1="-75.030998"
       x2="-72.225998"
       y2="-65.916" />
  </defs>
  <g
     id="layer1"
     inkscape:label="Layer 1"
     inkscape:groupmode="layer"
     transform="translate(4629.4157,1735.203)">
    <g
       id="g9884"
       transform="matrix(0.45363506,0,0,0.45363506,-2523.9101,-943.02624)">
      <path
         id="path5317"
         sodipodi:nodetypes="czszcc"
         style="fill:#5c5c5c;fill-rule:evenodd"
         d="m -4563.7,-1601 c 0,0 7.6,308.6 12.7,318.9 4.4,8.8 34.9,115.7 329.7,117.7 238.8,1.6 276.4,-93.2 280.8,-103.3 5.1,-11.5 16.3,-306.1 16.3,-306.1 z" />
      <path
         id="path3254"
         sodipodi:nodetypes="czszcc"
         style="fill:#a0a0a0;fill-rule:evenodd"
         d="m -4563.7,-1611.9 c 0,0 7.6,308.6 12.7,318.9 4.4,8.8 34.9,115.7 329.7,117.7 238.8,1.6 276.4,-93.2 280.8,-103.2 5.1,-11.6 16.3,-306.2 16.3,-306.2 z" />
      <path
         id="path3260"
         sodipodi:nodetypes="ccccc"
         style="fill:url(#linearGradient9930);fill-rule:evenodd"
         d="m -4631.8,-1626.3 c 12.7,-9.9 27,-15.8 63.8,-21.2 l 3.9,37.7 -55.3,4.6 c -4.2,-7 -9.4,-12.2 -12.4,-21.1 z" />
      <path
         id="path3264"
         sodipodi:nodetypes="cccscc"
         style="fill:url(#linearGradient9932);fill-rule:evenodd"
         d="m -3934.4,-1534.3 c 41.4,-2.9 116.4,-13.5 122.7,-3.9 l 4.2,-28 c 0,0 -5,-7.7 -19.6,-7.8 -33.8,-0.2 -116.3,7.8 -108.7,7.8 z" />
      <path
         id="path3283"
         sodipodi:nodetypes="czcccc"
         style="fill:url(#linearGradient9934);fill-rule:evenodd"
         d="m -4563.7,-1611.9 c 0,0 8.8,217.9 12.7,223.5 4,5.5 100.1,-159.1 152.2,-55.5 80.4,96.9 331,198 465.8,59.9 0.2,0.1 8.8,-208.8 8.8,-208.8 z" />
      <path
         id="path3301"
         sodipodi:nodetypes="czszcc"
         style="opacity:0.34973;fill:url(#linearGradient9936);fill-rule:evenodd"
         d="m -4563.7,-1611.9 c 0,0 -1.5,216 18.3,236 19.7,19.9 -50.1,-210.8 351.7,-58.8 121.5,45.9 248.8,5.6 253.2,0.2 5.1,-6.1 16.3,-162.9 16.3,-162.9 z" />
      <path
         id="path3270"
         style="fill:url(#linearGradient9938);fill-rule:evenodd;filter:url(#filter3417)"
         transform="matrix(0.97561,0,0,0.87927,-2451,-1184.2)"
         d="m -1976.1,-290.82 c -63.4,43.3 -116.8,63.02 -166,72.53 1.6,37.86 3.3,65.84 4.8,68.78 4.4,8.81 34.8,115.72 329.7,117.75 193.5,1.324 254.9,-60.75 273.5,-89.66 -171.7,-28.86 -391.1,-86.07 -442,-169.4 z" />
      <path
         id="path3421"
         sodipodi:nodetypes="czszcc"
         style="fill:url(#linearGradient9940);fill-rule:evenodd;filter:url(#filter3593)"
         d="m -4541.6,-1648.7 c 0,0 3.4,308.6 5.7,318.9 2,8.8 -32.1,71.9 97,103 98.4,23.7 176.1,-78.5 178,-88.5 2.3,-11.6 7.4,-306.2 7.4,-306.2 z" />
      <path
         id="path4569"
         sodipodi:nodetypes="csccczsc"
         style="fill:#3b3b3b;fill-rule:evenodd"
         d="m -4031.3,-1507.7 c -6.3,15.5 -6.1,35 1.9,43.6 3.6,3.9 34.1,-13.4 54.7,-22.1 42.4,-20.7 131.1,-2 166.3,-43.8 -3.5,-9.4 -0.8,-30.8 -4.4,-39.4 -2.6,16.8 -13.9,21.1 -50.1,28.5 -36.7,7.6 -109.9,15.6 -122.9,19.6 z" />
      <path
         id="path3262"
         sodipodi:nodetypes="csccczsc"
         style="fill:url(#linearGradient9942);fill-rule:evenodd"
         d="m -4029.3,-1505.7 c -6.3,15.5 -6.1,35 1.9,43.6 3.6,3.9 33.4,-12.3 53.9,-21 48.7,-17.2 133.4,-1.9 168.6,-44.4 1.3,-25.1 1.1,-29.9 -2.5,-38.5 -4.7,12.2 -17.3,19.7 -53.5,27.1 -36.7,7.6 -109.9,15.6 -122.9,19.6 z" />
      <path
         id="path4136"
         style="fill:#ffffff;fill-rule:evenodd;filter:url(#filter4298)"
         d="m -3857.5,-1536.8 -0.3,0.3 -0.4,-0.1 -0.4,0.1 -0.3,0.3 -0.2,0.6 -0.2,0.6 -0.4,0.3 -0.3,0.3 h -0.4 l -0.3,0.2 h -0.4 l -0.3,0.4 -0.4,0.1 -0.4,-0.4 h -0.3 l -0.4,0.2 -0.3,-0.1 -0.5,0.1 -0.3,0.4 -0.3,0.3 -0.4,0.4 v 0.8 l -0.2,0.6 -0.3,0.5 -0.4,0.2 h -0.3 l -0.2,0.6 -0.3,0.4 -0.2,0.7 -0.3,0.4 h -0.4 l -0.4,0.2 -0.3,0.4 -0.2,0.6 -0.2,0.7 v 0.7 l -0.2,0.7 0.1,0.7 0.2,0.7 v 0.7 l -0.1,0.7 0.2,0.7 -0.2,0.7 -0.3,0.5 0.2,0.6 0.1,0.7 v 0.7 l -0.1,0.7 -0.3,0.4 v 0.7 l -0.3,0.4 -0.2,0.6 -0.3,0.4 -0.4,0.4 -0.1,0.6 -0.1,0.7 -0.3,0.6 v 0.7 l -0.2,0.7 -0.3,0.3 -0.4,0.1 -0.4,0.2 -0.2,0.7 -0.3,0.4 0.3,0.3 0.4,0.2 0.3,0.6 0.4,0.1 0.2,0.6 0.3,0.5 v 0.8 l 0.1,0.7 -0.1,0.6 v 0.7 0.7 l 0.1,0.6 0.3,0.5 0.2,0.6 v 0.7 0.7 l 0.4,-0.1 0.3,0.4 0.3,0.6 0.2,0.6 0.4,0.2 0.3,-0.2 h 0.4 0.4 l 0.3,0.4 0.3,0.3 0.4,0.1 0.4,0.1 0.3,0.3 c 8.2,-1.3 14.7,-2.7 19.9,-4.3 l 0.1,-0.6 v -0.6 l 0.1,-0.7 0.2,-0.6 v -0.6 -0.7 l 0.1,-0.6 0.4,-0.2 0.2,-0.5 0.2,-0.6 0.2,-0.5 0.3,-0.6 0.3,-0.4 h 0.4 l 0.3,-0.1 -0.3,-0.2 -0.3,-0.2 -0.4,-0.4 -0.3,-0.2 -0.1,-0.7 -0.2,-0.5 -0.3,-0.5 -0.3,-0.4 h -0.3 -0.4 l -0.2,-0.5 -0.4,-0.2 -0.4,-0.2 h -0.3 l -0.3,-0.4 -0.4,-0.1 -0.3,-0.4 -0.3,-0.5 -0.4,-0.2 -0.4,-0.1 v -0.8 -0.7 l -0.4,-0.4 -0.2,-0.7 -0.2,-0.6 -0.3,-0.5 -0.1,-0.7 v -0.7 -0.7 l 0.1,-0.7 v -0.7 l 0.1,-0.6 h -0.4 -0.3 l -0.3,-0.4 -0.3,-0.5 -0.2,-0.5 -0.3,-0.4 -0.3,-0.3 -0.4,0.1 -0.3,-0.3 -0.4,0.1 -0.3,-0.4 -0.2,-0.5 -0.3,-0.5 -0.4,-0.3 -0.1,-0.6 -0.1,-0.6 -0.3,-0.4 -0.1,-0.7 -0.1,-0.6 v -0.7 -0.6 l -0.1,-0.6 -0.2,-0.6 v -0.7 l -0.3,-0.3 -0.2,-0.5 -0.3,-0.4 -0.2,-0.4 -0.3,-0.4 -0.3,-0.4 -0.3,-0.3 z" />
      <path
         id="path4326"
         sodipodi:nodetypes="cccscc"
         style="opacity:0.36066;fill:url(#linearGradient9944);fill-rule:evenodd"
         d="m -3925.3,-1534.3 c 38.4,-2.9 108.1,-13.5 113.9,-3.9 l 2.9,-28.6 c 0,0 -3.6,-7.1 -17.2,-7.2 -31.4,-0.2 -107.9,7.8 -100.9,7.8 z" />
      <path
         id="path4597"
         sodipodi:nodetypes="ccc"
         style="fill:#fafafa;fill-rule:evenodd"
         d="m -3849.4,-1540.7 c 19.5,-4.3 51.8,-28.5 15.8,-33.2 47.3,2.1 22.2,25.6 -15.8,33.2 z" />
      <path
         id="path4703"
         sodipodi:nodetypes="cssscssc"
         style="fill:url(#linearGradient9946);fill-rule:evenodd"
         d="m -4562.2,-1545.8 c 0,0 -7.9,0.4 -10,-1.7 -1.7,-1.7 -0.1,-16 -3.8,-20 -4.8,-5.4 -49.4,-11.8 -57,-23.7 -4.3,-6.7 -3.3,-30.9 -0.1,-32.9 5,4.6 5.8,6.3 9.2,9.2 15.5,13.3 61.6,14.8 61.6,20.5 z" />
      <path
         id="path5200"
         style="fill:#ffffff;fill-rule:evenodd"
         d="m -4580.8,-1637.9 c -14.9,3.9 -29.9,8.5 -43.4,15.9 15.9,-2.5 30.5,-9.4 44.9,-16.3 l -1.3,0.4 z" />
      <ellipse
         id="path5279"
         style="fill:url(#linearGradient991);fill-rule:evenodd"
         transform="matrix(1.1807,0.034837,-0.029038,1.0704,-4204.6,-1547.7)"
         cx="-33.513691"
         cy="-67.176201"
         rx="279.88461"
         ry="67.027382" />
      <ellipse
         id="path5309"
         style="fill:url(#linearGradient9948);fill-rule:evenodd"
         transform="matrix(1.1807,0.034837,-0.029038,1.0704,-4204.6,-1547.7)"
         cx="-33.513691"
         cy="-67.176201"
         rx="279.88461"
         ry="67.027382" />
      <ellipse
         id="path5311"
         style="fill:url(#linearGradient9952);fill-rule:evenodd"
         transform="matrix(1.1807,0.034837,-0.029038,1.0704,-4204.6,-1547.7)"
         cx="-33.513691"
         cy="-67.176201"
         rx="279.88461"
         ry="67.027382" />
      <ellipse
         id="path5315"
         style="fill:none;stroke:#a4a4a4;stroke-width:5.3759;stroke-linecap:round;stroke-linejoin:round"
         transform="matrix(1.1807,0.034837,-0.029038,1.0704,-4204.6,-1547.7)"
         cx="-33.513691"
         cy="-67.176201"
         rx="279.88461"
         ry="67.027382" />
      <path
         id="path5327"
         d="m -3414.9,-370.28 c 124.9,-20.42 252.5,-33.13 370.1,-75.18 0,0 -47.1,53.26 -127.2,72.29 -80.3,19.06 -242.9,2.89 -242.9,2.89 z"
         sodipodi:nodetypes="cczc"
         style="fill:#656565;fill-rule:evenodd;filter:url(#filter5457)"
         transform="matrix(1,0,0,1.0709,-902.32,-789.12)" />
      <path
         id="path5461"
         style="fill:none;stroke:url(#linearGradient9954);stroke-width:2.608"
         d="m -4532.8,-1263.2 c 29.7,34.5 107.3,86.5 313.1,87.9 189.7,1.3 253.3,-58.5 273.6,-87.9 z" />
      <g
         id="g6479"
         transform="translate(-26.629,189.76)">
        <g
           id="g5547"
           transform="translate(-966.03,-730.5)">
          <ellipse
             id="path3256"
             style="fill:url(#linearGradient9956);fill-rule:evenodd;stroke:#aeaeae;stroke-width:3.8643;stroke-linecap:round;stroke-linejoin:round"
             transform="matrix(1.1807,0.034837,-0.029038,1.0704,-3210.8,-1014.1)"
             cx="-33.513691"
             cy="-67.176201"
             rx="279.88461"
             ry="67.027382" />
          <ellipse
             id="path3604"
             style="fill:url(#linearGradient9958);fill-rule:evenodd;stroke:#868686;stroke-width:0.752;stroke-linecap:round;stroke-linejoin:round"
             transform="matrix(1.1206,0.030302,-0.02756,0.93103,-3209,-1026.2)"
             cx="-33.513691"
             cy="-67.176201"
             rx="279.88461"
             ry="67.027382" />
          <path
             id="path3601"
             sodipodi:nodetypes="cscsc"
             style="fill:url(#radialGradient9960);fill-rule:evenodd"
             d="m -2941.6,-1068.4 c -27,28 -145,42.8 -310,38.9 -164.9,-3.9 -270.9,-28.6 -298.6,-54.5 82.8,-40.7 212.2,-44.7 300.6,-44.7 87.8,0 210.5,20.4 308,60.3 z" />
          <path
             id="path4740"
             sodipodi:nodetypes="ccscccc"
             style="fill:#c6c6c6;fill-rule:evenodd"
             d="m -3377.4,-1038.6 c 9.1,-29 -36.9,-55.7 -56.9,-66.5 29.2,-23 318.3,-20 310.5,-16.2 -3.7,1.7 -39.3,36.6 -39.3,36.6 -58.5,-11.6 -110.1,-25.4 -210.2,-23.1 12.9,23.1 37.8,42.2 31.2,71.9 z" />
          <g
             id="g4717"
             transform="translate(-444.81,-1357.5)">
            <path
               id="path4579"
               sodipodi:nodetypes="csssszsccccczcss"
               style="fill:url(#linearGradient9962);fill-rule:evenodd"
               d="m -2952.1,262.49 c 1.9,5.2 9,10.63 14.2,8.56 9.9,-4.02 35.2,-6.81 51.5,-11.58 4.8,-1.41 8.8,-8.3 10.4,-13.02 0.1,-0.18 0,-0.65 0,-0.65 -2,-0.29 26.7,-67.49 74.9,-74.16 48.7,-6.75 75.2,45.17 87,70.3 6.1,12.86 13.1,9.15 13.1,9.15 13.5,1.71 31.6,3.42 47.2,6.34 3.2,-8.38 1.6,-4.58 2.3,-7.72 l -9.8,-6.51 -36.4,-5.85 c -19.9,-45.66 -42.4,-78.9 -98.9,-81.32 -56.5,-2.41 -83.6,52.76 -110.6,91.08 -2.9,1.92 -42,3.43 -44.2,8.45 -0.6,1.27 -1.1,5.63 -0.7,6.93 z" />
            <path
               id="path3266"
               sodipodi:nodetypes="csssszsccccczcss"
               style="fill:url(#linearGradient9964);fill-rule:evenodd"
               d="m -2950.1,258.49 c 1.9,5.2 9,10.63 14.2,8.56 9.9,-4.02 35.2,-6.81 51.5,-11.58 4.8,-1.41 8.8,-8.3 10.4,-13.02 0.1,-0.18 0,-0.65 0,-0.65 -2,-0.29 26.7,-67.49 74.9,-74.16 48.7,-6.75 75.2,45.17 87,70.3 6.1,12.86 13.1,9.15 13.1,9.15 13.5,1.71 31.6,3.42 47.2,6.34 3.2,-8.38 1.6,-4.58 2.3,-7.72 l -9.8,-6.51 -36.4,-5.85 c -19.9,-45.66 -42.4,-78.9 -98.9,-81.32 -56.5,-2.41 -83.6,52.76 -110.6,91.08 -2.9,1.92 -42,3.43 -44.2,8.45 -0.6,1.27 -1.1,5.63 -0.7,6.93 z" />
            <path
               id="path3824"
               sodipodi:nodetypes="ccczcc"
               style="fill:none;stroke:#e2e2e2;stroke-width:3.6;stroke-linecap:round;stroke-linejoin:round;filter:url(#filter3878)"
               d="m -2948.5,258.01 8.1,6.64 58.8,-13.28 c 17.9,-60.25 57.7,-89.05 94.3,-88.41 36.9,0.64 69.4,29.76 93,78.92 l 21.8,5.11" />
            <path
               id="path3890"
               sodipodi:nodetypes="csccsc"
               style="fill:#dcdcdc;fill-rule:evenodd"
               d="m -2699.5,245.62 c 3,-2.52 -20.8,-38.73 -27.6,-46 -18,-19.24 -28.4,-22.62 -29.7,-22.35 5.7,3.58 18.2,16.6 18.2,16.6 19.6,23.46 27.2,46.86 29.9,49.19 6.4,5.4 3.4,-1.94 9.2,2.56 z" />
            <path
               id="path3952"
               sodipodi:nodetypes="csccsz"
               style="fill:#dcdcdc;fill-rule:evenodd;filter:url(#filter4098)"
               d="m -2696.6,244.79 c 0.8,-1.93 -22.6,-38.24 -30.2,-45.51 -19.1,-18.21 -24.4,-20.25 -25.6,-19.98 5.7,3.59 16.3,12.37 16.3,12.37 19.6,23.46 26.8,51.31 29.9,53.04 6.2,3.38 8.7,2.22 9.6,0.08 z" />
          </g>
          <g
             id="g5169"
             transform="matrix(1.4614,0,0,1.059,979.97,-1373)">
            <ellipse
               id="path4742"
               style="fill:url(#radialGradient9966);fill-rule:evenodd;filter:url(#filter4984)"
               inkscape:transform-center-x="29.783359"
               inkscape:transform-center-y="1.5076733"
               transform="matrix(1.1973,0.18236,-0.13813,0.78911,633.76,605.76)"
               cx="-3009.1492"
               cy="285.66974"
               rx="41.351227"
               ry="23.726114" />
            <ellipse
               id="path4988"
               style="fill:#ffffff;fill-rule:evenodd;filter:url(#filter4984)"
               inkscape:transform-center-x="24.900364"
               inkscape:transform-center-y="1.1721274"
               transform="matrix(1.001,0.14175,-0.11548,0.61339,19.019,543.88)"
               cx="-3009.1492"
               cy="285.66974"
               rx="41.351227"
               ry="23.726114" />
          </g>
          <path
             id="path5032"
             style="fill:url(#linearGradient9968);fill-rule:evenodd"
             d="m -3107.4,-1094 c 1.2,22.4 8.7,43.3 20.8,61.2 56.6,-4.4 99.7,-12.3 125,-23.1 -46.2,-16.8 -96.7,-29.6 -145.8,-38.1 z" />
          <path
             id="path5179"
             sodipodi:nodetypes="cczcccczcsc"
             style="fill:#e3e3e3;fill-rule:evenodd"
             d="m -3386,-1086.4 c 18.8,-5 39.1,-8.2 57.3,-12.4 12.1,-2.2 21.5,30.1 88.7,32.8 67.2,2.8 76.4,-42.9 92.4,-43.9 17.5,2.5 30.2,4.5 50.2,3.2 l -3.9,5.1 -38.2,2.9 c -19.9,18.3 -39.5,38 -96,39 -56.4,0.9 -79.5,-12.7 -106.5,-28 -2.9,-0.8 -38.6,6.4 -41,4.1 -2.2,-2.2 -3.4,-2.2 -3,-2.8 z" />
        </g>
        <path
           id="path5521"
           sodipodi:nodetypes="ccsccccccc"
           style="fill:#ffffff;fill-rule:evenodd"
           d="m -4544.2,-1815.9 c 17.9,43.3 134,63.5 264,67.5 -53.4,-4.9 -112.9,-17.9 -215.5,-42.6 -27.2,-6.6 -42.9,-15.3 -47.9,-24.8 -0.2,0 -0.4,0 -0.6,-0.1 z m 264,67.5 c 110.6,1.3 112.1,2.6 0,0 z m 309.2,-18.7 c -7,-0.6 -0.4,0.3 -7.5,-0.3 -178.6,22.2 -161.8,25.5 7.5,0.3 z" />
      </g>
      <path
         id="path9440"
         sodipodi:nodetypes="ccccc"
         style="fill:#c4c4c4;fill-rule:evenodd"
         d="m -4626.9,-1617.1 c -2,-3 -3.5,-5.4 0.6,-7.9 l -5.4,-1.3 c -0.6,0.4 -1.5,2 -1.8,2.5 z" />
      <path
         id="path9509"
         sodipodi:nodetypes="cccccssccccccccc"
         style="fill:url(#linearGradient9970);fill-rule:evenodd;filter:url(#filter9616)"
         d="m -4632.8,-1620.4 c -1.4,9.3 -2.3,19.8 1.8,28.6 10.1,9.4 24.8,11.4 37.4,15.6 6.6,2.7 15.4,2.7 20,8.7 3.1,5.7 1.4,13 3.2,18.8 1.7,-3.3 7,3.3 8.1,0.2 5.4,-14 1.2,-34.2 -1,-41.5 -3.3,-11.1 -40.3,-12.1 -57.5,-20.3 -4.8,-2.6 -8.1,-6.9 -11.8,-10.6 z m 61.4,30.7 c 2.2,5.5 2.4,12.2 1.2,18 -2.5,4.4 -6.1,-1.5 -9.2,-2 -14.6,-6.8 -35.2,-6.1 -45.3,-16.8 -1,-1.9 -1,-8.4 2,-11.9 4.9,-7.5 39.3,9.7 51.3,12.7 z" />
      <path
         id="path9648"
         sodipodi:nodetypes="cssss"
         style="fill:#5d5555;fill-rule:evenodd"
         d="m -4560.5,-1548.4 c -0.1,2.3 -3,3 -3.2,0.7 -0.3,-4.5 1.1,-20.2 1.1,-32.8 0,-2.2 3.1,-2.8 3,-0.7 -0.5,10.7 -0.6,26.1 -0.9,32.8 z" />
      <path
         id="path9652"
         d="m -4568.8,-1597.3 6.8,14.4 c 0,0 1.6,-12.3 0.3,-12.3 -1.4,0 -7.4,-4 -7.1,-2.1 z"
         style="fill:#ffffff;fill-rule:evenodd;filter:url(#filter9794)"
         transform="matrix(0.98952,-0.14442,0.14442,0.98952,181.28,-675.39)" />
      <ellipse
         id="path9798"
         style="opacity:0.44809;fill:url(#radialGradient9972);fill-rule:evenodd;filter:url(#filter9870)"
         transform="matrix(-0.89422,-0.047353,0.048913,-0.8657,-7933,-2512)"
         cx="-4358.9365"
         cy="-1160.483"
         rx="439.3808"
         ry="140.4823" />
    </g>
  </g>
  <metadata
     id="metadata165">
    <rdf:RDF>
      <cc:Work>
        <dc:format>image/svg+xml</dc:format>
        <dc:type
           rdf:resource="http://purl.org/dc/dcmitype/StillImage" />
        <cc:license
           rdf:resource="http://creativecommons.org/publicdomain/zero/1.0/" />
        <dc:publisher>
          <cc:Agent
             rdf:about="http://openclipart.org/">
            <dc:title>Openclipart</dc:title>
          </cc:Agent>
        </dc:publisher>
        <dc:title>pan</dc:title>
        <dc:date>2008-08-08T19:45:34</dc:date>
        <dc:description />
        <dc:source>https://openclipart.org/detail/18348/pan-by-pipo</dc:source>
        <dc:creator>
          <cc:Agent>
            <dc:title>pipo</dc:title>
          </cc:Agent>
        </dc:creator>
        <dc:subject>
          <rdf:Bag>
            <rdf:li>cooking</rdf:li>
            <rdf:li>kitchen</rdf:li>
            <rdf:li>pan</rdf:li>
          </rdf:Bag>
        </dc:subject>
      </cc:Work>
      <cc:License
         rdf:about="http://creativecommons.org/publicdomain/zero/1.0/">
        <cc:permits
           rdf:resource="http://creativecommons.org/ns#Reproduction" />
        <cc:permits
           rdf:resource="http://creativecommons.org/ns#Distribution" />
        <cc:permits
           rdf:resource="http://creativecommons.org/ns#DerivativeWorks" />
      </cc:License>
    </rdf:RDF>
  </metadata>
</svg>
