<?xml version="1.0" encoding="UTF-8" standalone="no"?>
<svg
   xmlns:dc="http://purl.org/dc/elements/1.1/"
   xmlns:cc="http://creativecommons.org/ns#"
   xmlns:rdf="http://www.w3.org/1999/02/22-rdf-syntax-ns#"
   xmlns:svg="http://www.w3.org/2000/svg"
   xmlns="http://www.w3.org/2000/svg"
   xmlns:xlink="http://www.w3.org/1999/xlink"
   xmlns:sodipodi="http://sodipodi.sourceforge.net/DTD/sodipodi-0.dtd"
   xmlns:inkscape="http://www.inkscape.org/namespaces/inkscape"
   viewBox="0 0 381.55659 319.90579"
   version="1.1"
   id="svg722"
   sodipodi:docname="purse.svg"
   width="100.95351mm"
   height="84.641739mm"
   inkscape:version="1.0.2-2 (e86c870879, 2021-01-15)">
  <metadata
     id="metadata726">
    <rdf:RDF>
      <cc:Work
         rdf:about="">
        <dc:format>image/svg+xml</dc:format>
        <dc:type
           rdf:resource="http://purl.org/dc/dcmitype/StillImage" />
        <dc:title />
      </cc:Work>
    </rdf:RDF>
  </metadata>
  <sodipodi:namedview
     pagecolor="#ffffff"
     bordercolor="#666666"
     borderopacity="1"
     objecttolerance="10"
     gridtolerance="10"
     guidetolerance="10"
     inkscape:pageopacity="0"
     inkscape:pageshadow="2"
     inkscape:window-width="1920"
     inkscape:window-height="1017"
     id="namedview724"
     showgrid="false"
     units="mm"
     inkscape:zoom="0.96479988"
     inkscape:cx="253.70193"
     inkscape:cy="279.95264"
     inkscape:window-x="-8"
     inkscape:window-y="-8"
     inkscape:window-maximized="1"
     inkscape:current-layer="svg722"
     inkscape:document-rotation="0" />
  <defs
     id="defs410">
    <filter
       id="em">
      <feGaussianBlur
         stdDeviation="4.3764"
         id="feGaussianBlur2" />
    </filter>
    <filter
       id="es">
      <feGaussianBlur
         stdDeviation="3.5443"
         id="feGaussianBlur5" />
    </filter>
    <filter
       id="et">
      <feGaussianBlur
         stdDeviation="1.4311"
         id="feGaussianBlur8" />
    </filter>
    <filter
       id="ep">
      <feGaussianBlur
         stdDeviation="2.0636"
         id="feGaussianBlur11" />
    </filter>
    <filter
       id="er">
      <feGaussianBlur
         stdDeviation="7.9195"
         id="feGaussianBlur14" />
    </filter>
    <filter
       id="ej">
      <feGaussianBlur
         stdDeviation=".9652"
         id="feGaussianBlur17" />
    </filter>
    <filter
       id="dv">
      <feGaussianBlur
         stdDeviation="1.6879"
         id="feGaussianBlur20" />
    </filter>
    <filter
       id="ea">
      <feGaussianBlur
         stdDeviation=".5653"
         id="feGaussianBlur23" />
    </filter>
    <filter
       id="dy">
      <feGaussianBlur
         stdDeviation=".6227"
         id="feGaussianBlur26" />
    </filter>
    <filter
       id="ef">
      <feGaussianBlur
         stdDeviation="2.0757"
         id="feGaussianBlur29" />
    </filter>
    <filter
       id="ed">
      <feGaussianBlur
         stdDeviation="1.8456"
         id="feGaussianBlur32" />
    </filter>
    <filter
       id="du">
      <feGaussianBlur
         stdDeviation=".7691"
         id="feGaussianBlur35" />
    </filter>
    <filter
       id="eb">
      <feGaussianBlur
         stdDeviation=".338"
         id="feGaussianBlur38" />
    </filter>
    <filter
       id="dn">
      <feGaussianBlur
         stdDeviation="2.0545"
         id="feGaussianBlur41" />
    </filter>
    <filter
       id="dr">
      <feGaussianBlur
         stdDeviation=".7596"
         id="feGaussianBlur44" />
    </filter>
    <filter
       id="dp">
      <feGaussianBlur
         stdDeviation=".9085"
         id="feGaussianBlur47" />
    </filter>
    <filter
       id="dq">
      <feGaussianBlur
         stdDeviation="2.4146"
         id="feGaussianBlur50" />
    </filter>
    <filter
       id="dm">
      <feGaussianBlur
         stdDeviation=".3617"
         id="feGaussianBlur53" />
    </filter>
    <filter
       id="dl">
      <feGaussianBlur
         stdDeviation=".4088"
         id="feGaussianBlur56" />
    </filter>
    <filter
       id="dj">
      <feGaussianBlur
         stdDeviation=".4392"
         id="feGaussianBlur59" />
    </filter>
    <filter
       id="di">
      <feGaussianBlur
         stdDeviation=".2411"
         id="feGaussianBlur62" />
    </filter>
    <filter
       id="dh">
      <feGaussianBlur
         stdDeviation=".653"
         id="feGaussianBlur65" />
    </filter>
    <filter
       id="dg">
      <feGaussianBlur
         stdDeviation=".4921"
         id="feGaussianBlur68" />
    </filter>
    <filter
       id="df">
      <feGaussianBlur
         stdDeviation="9.7609"
         id="feGaussianBlur71" />
    </filter>
    <filter
       id="de">
      <feGaussianBlur
         stdDeviation="2.4069"
         id="feGaussianBlur74" />
    </filter>
    <filter
       id="dd">
      <feGaussianBlur
         stdDeviation="2.9579"
         id="feGaussianBlur77" />
    </filter>
    <filter
       id="cw"
       x="-0.078890003"
       y="-0.19696"
       width="1.1578"
       height="1.3939">
      <feGaussianBlur
         stdDeviation="36.7667"
         id="feGaussianBlur80" />
    </filter>
    <filter
       id="eo"
       x="-0.77568001"
       y="-0.10654"
       width="2.5513999"
       height="1.2131">
      <feGaussianBlur
         stdDeviation="22.9585"
         id="feGaussianBlur83" />
    </filter>
    <filter
       id="el"
       x="-0.02028"
       y="-0.14046"
       width="1.0405999"
       height="1.2809">
      <feGaussianBlur
         stdDeviation="1.15"
         id="feGaussianBlur86" />
    </filter>
    <filter
       id="ei"
       x="-0.02427"
       y="-0.12234"
       width="1.0484999"
       height="1.2447">
      <feGaussianBlur
         stdDeviation=".814"
         id="feGaussianBlur89" />
    </filter>
    <filter
       id="eq"
       x="-0.12647"
       y="-0.054269999"
       width="1.253"
       height="1.1085">
      <feGaussianBlur
         stdDeviation="2.2042"
         id="feGaussianBlur92" />
    </filter>
    <filter
       id="en"
       x="-0.63243997"
       y="-0.037549999"
       width="2.2649"
       height="1.0750999">
      <feGaussianBlur
         stdDeviation="5.565"
         id="feGaussianBlur95" />
    </filter>
    <filter
       id="ek"
       x="-0.071350001"
       y="-0.17437001"
       width="1.1427"
       height="1.3487">
      <feGaussianBlur
         stdDeviation="1.0924"
         id="feGaussianBlur98" />
    </filter>
    <filter
       id="cx"
       x="-0.055500001"
       y="-0.21424"
       width="1.1109999"
       height="1.4285001">
      <feGaussianBlur
         stdDeviation="16.6856"
         id="feGaussianBlur101" />
    </filter>
    <filter
       id="dx"
       x="-0.31402999"
       y="-0.044769999"
       width="1.6281"
       height="1.0895">
      <feGaussianBlur
         stdDeviation="4.8636"
         id="feGaussianBlur104" />
    </filter>
    <filter
       id="eh"
       x="-0.02503"
       y="-0.10617"
       width="1.0501"
       height="1.2122999">
      <feGaussianBlur
         stdDeviation="6.4103"
         id="feGaussianBlur107" />
    </filter>
    <filter
       id="ee"
       x="-0.14236"
       y="-0.20058"
       width="1.2847"
       height="1.4012001">
      <feGaussianBlur
         stdDeviation="8.0518"
         id="feGaussianBlur110" />
    </filter>
    <filter
       id="ec"
       x="-0.40267"
       y="-0.086230002"
       width="1.8053"
       height="1.1725">
      <feGaussianBlur
         stdDeviation="2.965"
         id="feGaussianBlur113" />
    </filter>
    <filter
       id="eg"
       x="-0.057459999"
       y="-0.29543"
       width="1.1149"
       height="1.5908999">
      <feGaussianBlur
         stdDeviation="14.1861"
         id="feGaussianBlur116" />
    </filter>
    <filter
       id="dz"
       x="-0.18002"
       y="-0.025119999"
       width="1.36"
       height="1.0502">
      <feGaussianBlur
         stdDeviation="2.3368"
         id="feGaussianBlur119" />
    </filter>
    <filter
       id="dw"
       x="-0.20245001"
       y="-0.01029"
       width="1.4049"
       height="1.0206">
      <feGaussianBlur
         stdDeviation="1.0618"
         id="feGaussianBlur122" />
    </filter>
    <filter
       id="dt"
       x="-0.045559999"
       y="-0.2798"
       width="1.0911"
       height="1.5596">
      <feGaussianBlur
         stdDeviation="3.7943"
         id="feGaussianBlur125" />
    </filter>
    <filter
       id="ds"
       x="-0.035909999"
       y="-0.28064999"
       width="1.0718"
       height="1.5613">
      <feGaussianBlur
         stdDeviation="5.773"
         id="feGaussianBlur128" />
    </filter>
    <filter
       id="do"
       x="-0.12083"
       y="-0.20423999"
       width="1.2417001"
       height="1.4085">
      <feGaussianBlur
         stdDeviation="1.0825"
         id="feGaussianBlur131" />
    </filter>
    <filter
       id="n"
       x="-0.087789997"
       y="-0.10012"
       width="1.1756001"
       height="1.2002">
      <feGaussianBlur
         stdDeviation=".321"
         id="feGaussianBlur134" />
    </filter>
    <filter
       id="cv"
       x="-0.096089996"
       y="-0.23941"
       width="1.1921999"
       height="1.4788001">
      <feGaussianBlur
         stdDeviation="23.826"
         id="feGaussianBlur137" />
    </filter>
    <filter
       id="da"
       x="-0.14619"
       y="-0.0105"
       width="1.2924"
       height="1.021">
      <feGaussianBlur
         stdDeviation="1.6613"
         id="feGaussianBlur140" />
    </filter>
    <filter
       id="cy"
       x="-0.0102"
       y="-0.24703"
       width="1.0204"
       height="1.494">
      <feGaussianBlur
         stdDeviation="1.756"
         id="feGaussianBlur143" />
    </filter>
    <filter
       id="cz"
       x="-0.0175"
       y="-0.83714002"
       width="1.035"
       height="2.6743">
      <feGaussianBlur
         stdDeviation="2.1954"
         id="feGaussianBlur146" />
    </filter>
    <filter
       id="dc"
       x="-0.10244"
       y="-0.38280001"
       width="1.2049"
       height="1.7656">
      <feGaussianBlur
         stdDeviation="7.6902"
         id="feGaussianBlur149" />
    </filter>
    <filter
       id="db"
       x="-0.25095999"
       y="-0.046429999"
       width="1.5019"
       height="1.0929">
      <feGaussianBlur
         stdDeviation="6.5153"
         id="feGaussianBlur152" />
    </filter>
    <filter
       id="dk"
       x="-0.016620001"
       y="-0.12688001"
       width="1.0332"
       height="1.2538" />
    <linearGradient
       id="b">
      <stop
         offset="0"
         id="stop156" />
      <stop
         stop-opacity="0"
         offset="1"
         id="stop158" />
    </linearGradient>
    <linearGradient
       id="j">
      <stop
         stop-color="#4a2e0b"
         offset="0"
         id="stop161" />
      <stop
         stop-color="#d7820c"
         offset="1"
         id="stop163" />
    </linearGradient>
    <linearGradient
       id="e">
      <stop
         stop-color="#0a0a0a"
         offset="0"
         id="stop166" />
      <stop
         stop-color="#565656"
         offset="1"
         id="stop168" />
    </linearGradient>
    <linearGradient
       id="l">
      <stop
         offset="0"
         id="stop171" />
      <stop
         stop-color="#1a1a1a"
         offset="1"
         id="stop173" />
    </linearGradient>
    <linearGradient
       id="k">
      <stop
         stop-color="#d86d00"
         offset="0"
         id="stop176" />
      <stop
         stop-color="#e08c34"
         offset=".192"
         id="stop178" />
      <stop
         stop-color="#fefdfa"
         offset=".3107"
         id="stop180" />
      <stop
         stop-color="#fffdb1"
         offset=".6487"
         id="stop182" />
      <stop
         stop-color="#cc9529"
         offset=".75"
         id="stop184" />
      <stop
         stop-color="#684206"
         offset="1"
         id="stop186" />
    </linearGradient>
    <linearGradient
       id="a">
      <stop
         stop-color="#fff"
         offset="0"
         id="stop189" />
      <stop
         stop-color="#fff"
         stop-opacity="0"
         offset="1"
         id="stop191" />
    </linearGradient>
    <linearGradient
       id="m">
      <stop
         stop-color="#261b0a"
         offset="0"
         id="stop194" />
      <stop
         stop-color="#a57829"
         offset="1"
         id="stop196" />
    </linearGradient>
    <linearGradient
       id="i">
      <stop
         stop-color="#f9f9f9"
         offset="0"
         id="stop199" />
      <stop
         stop-color="#f9f9f9"
         stop-opacity="0"
         offset="1"
         id="stop201" />
    </linearGradient>
    <linearGradient
       id="h">
      <stop
         stop-color="#fff"
         offset="0"
         id="stop204" />
      <stop
         stop-color="#939393"
         offset="1"
         id="stop206" />
    </linearGradient>
    <linearGradient
       id="d">
      <stop
         stop-color="#4d4d4d"
         offset="0"
         id="stop209" />
      <stop
         stop-color="#4d4d4d"
         stop-opacity="0"
         offset="1"
         id="stop211" />
    </linearGradient>
    <linearGradient
       id="g">
      <stop
         stop-color="#fff"
         offset="0"
         id="stop214" />
      <stop
         stop-color="#ccc"
         offset="1"
         id="stop216" />
    </linearGradient>
    <linearGradient
       id="c">
      <stop
         stop-color="#090909"
         offset="0"
         id="stop219" />
      <stop
         stop-color="#2f2f2f"
         offset="1"
         id="stop221" />
    </linearGradient>
    <linearGradient
       id="cm"
       x1="2800.3"
       x2="3009.6001"
       y1="40.877998"
       y2="-209.64"
       gradientUnits="userSpaceOnUse">
      <stop
         stop-opacity="0"
         offset="0"
         id="stop224" />
      <stop
         offset=".5"
         id="stop226" />
      <stop
         stop-opacity="0"
         offset="1"
         id="stop228" />
    </linearGradient>
    <linearGradient
       id="cc"
       x1="3006.8999"
       x2="3016.8"
       y1="573.96997"
       y2="679.69"
       gradientUnits="userSpaceOnUse">
      <stop
         stop-color="#eeddc0"
         offset="0"
         id="stop231" />
      <stop
         stop-color="#c38e35"
         offset=".6056"
         id="stop233" />
      <stop
         stop-color="#d8b270"
         offset="1"
         id="stop235" />
    </linearGradient>
    <linearGradient
       id="cb"
       x1="3026.8999"
       x2="3037.1001"
       y1="600.13"
       y2="691.54999"
       gradientUnits="userSpaceOnUse">
      <stop
         stop-color="#eeddc0"
         offset="0"
         id="stop238" />
      <stop
         stop-color="#c38e35"
         offset=".4975"
         id="stop240" />
      <stop
         stop-color="#d8b270"
         offset="1"
         id="stop242" />
    </linearGradient>
    <linearGradient
       id="bs"
       x1="2600.8999"
       x2="2671.3999"
       y1="44.862"
       y2="44.683998"
       gradientUnits="userSpaceOnUse">
      <stop
         stop-color="#0a0a0a"
         offset="0"
         id="stop245" />
      <stop
         stop-color="#565656"
         stop-opacity="0"
         offset="1"
         id="stop247" />
    </linearGradient>
    <linearGradient
       id="br"
       x1="2600.3"
       x2="2726.8"
       gradientUnits="userSpaceOnUse">
      <stop
         stop-color="#fff"
         stop-opacity="0"
         offset="0"
         id="stop250" />
      <stop
         stop-color="#fff"
         stop-opacity="0"
         offset=".5"
         id="stop252" />
      <stop
         stop-color="#fff"
         stop-opacity=".2196"
         offset=".75"
         id="stop254" />
      <stop
         stop-color="#fff"
         stop-opacity="0"
         offset="1"
         id="stop256" />
    </linearGradient>
    <linearGradient
       id="bn"
       x1="2842.2"
       x2="2911"
       y1="495.35999"
       y2="490.12"
       gradientUnits="userSpaceOnUse"
       gradientTransform="matrix(0.43116556,0,0,0.43116556,-1192.7807,-45.302928)">
      <stop
         offset="0"
         id="stop259" />
      <stop
         stop-color="#1c1c1c"
         offset="1"
         id="stop261" />
    </linearGradient>
    <linearGradient
       id="bm"
       x1="2914.3"
       x2="3276"
       y1="777.59003"
       y2="452.39999"
       gradientUnits="userSpaceOnUse"
       gradientTransform="matrix(0.43116556,0,0,0.43116556,-1192.7807,-45.302928)">
      <stop
         stop-color="#0d0d0d"
         offset="0"
         id="stop264" />
      <stop
         stop-color="#090909"
         offset="1"
         id="stop266" />
    </linearGradient>
    <linearGradient
       id="bl"
       x1="3243.5"
       x2="3263.3999"
       y1="496.01999"
       y2="741.48999"
       gradientUnits="userSpaceOnUse"
       gradientTransform="matrix(0.43116556,0,0,0.43116556,-1192.7807,-45.302928)">
      <stop
         stop-color="#0b0b0b"
         offset="0"
         id="stop269" />
      <stop
         stop-color="#1b1b1b"
         offset="1"
         id="stop271" />
    </linearGradient>
    <linearGradient
       id="bd"
       x1="3302.3999"
       x2="3295.6001"
       y1="564.15002"
       y2="561.65002"
       gradientUnits="userSpaceOnUse"
       gradientTransform="matrix(0.43116556,0,0,0.43116556,-1192.7807,-45.302928)">
      <stop
         stop-color="#666"
         offset="0"
         id="stop274" />
      <stop
         stop-color="#666"
         stop-opacity="0"
         offset="1"
         id="stop276" />
    </linearGradient>
    <linearGradient
       id="at"
       x1="3381.7"
       x2="3394.8"
       y1="217.2"
       y2="189.94"
       gradientUnits="userSpaceOnUse"
       gradientTransform="matrix(0.43116556,0,0,0.43116556,-1192.7807,-45.302928)">
      <stop
         stop-color="#333"
         offset="0"
         id="stop279" />
      <stop
         stop-color="#191919"
         offset="1"
         id="stop281" />
    </linearGradient>
    <linearGradient
       id="ap"
       x1="3016.5"
       x2="3057"
       y1="264.89001"
       y2="194.61"
       gradientUnits="userSpaceOnUse"
       gradientTransform="matrix(0.43116556,0,0,0.43116556,-1192.7807,-45.302928)">
      <stop
         stop-color="#515151"
         offset="0"
         id="stop284" />
      <stop
         stop-color="#fff"
         offset="1"
         id="stop286" />
    </linearGradient>
    <linearGradient
       id="an"
       x1="3391.7"
       x2="3421.5"
       y1="234.95"
       y2="212.50999"
       gradientUnits="userSpaceOnUse"
       gradientTransform="matrix(0.43116556,0,0,0.43116556,-1192.7807,-45.302928)">
      <stop
         offset="0"
         id="stop289" />
      <stop
         stop-color="#353535"
         offset="1"
         id="stop291" />
    </linearGradient>
    <linearGradient
       id="ai"
       x1="3019.1001"
       x2="3486.8999"
       gradientUnits="userSpaceOnUse">
      <stop
         stop-color="#fff"
         stop-opacity="0"
         offset="0"
         id="stop294" />
      <stop
         stop-color="#fff"
         stop-opacity=".9339"
         offset=".5"
         id="stop296" />
      <stop
         stop-color="#fff"
         stop-opacity="0"
         offset="1"
         id="stop298" />
    </linearGradient>
    <linearGradient
       id="w"
       x1="4324.5"
       x2="4322.8999"
       y1="207.46001"
       y2="408.87"
       gradientUnits="userSpaceOnUse">
      <stop
         stop-color="#484848"
         offset="0"
         id="stop301" />
      <stop
         stop-color="#5f5f5f"
         offset=".1289"
         id="stop303" />
      <stop
         stop-color="#1a1a1a"
         offset=".3203"
         id="stop305" />
      <stop
         stop-color="#2a2a2a"
         offset="1"
         id="stop307" />
    </linearGradient>
    <linearGradient
       id="v"
       x1="3921"
       x2="4297.2002"
       gradientUnits="userSpaceOnUse">
      <stop
         stop-color="#4e4e4e"
         offset="0"
         id="stop310" />
      <stop
         stop-color="#1a1a1a"
         offset="1"
         id="stop312" />
    </linearGradient>
    <linearGradient
       id="cu"
       x1="3498.3999"
       x2="2877.7"
       y1="504.95001"
       y2="-227.89999"
       gradientUnits="userSpaceOnUse"
       xlink:href="#b" />
    <linearGradient
       id="ct"
       x1="2695.7"
       x2="2683.2"
       y1="-2.6378"
       y2="52.005001"
       gradientUnits="userSpaceOnUse"
       xlink:href="#j" />
    <linearGradient
       id="cs"
       x1="3069.5"
       x2="3091.1001"
       y1="9.0734997"
       y2="36.216"
       gradientUnits="userSpaceOnUse"
       xlink:href="#j" />
    <linearGradient
       id="cr"
       x1="2311"
       x2="3022.3999"
       y1="606.57001"
       y2="597.78998"
       gradientUnits="userSpaceOnUse"
       xlink:href="#e" />
    <linearGradient
       id="cq"
       x1="2356.7"
       x2="2347.7"
       y1="924.34003"
       y2="860.70001"
       gradientUnits="userSpaceOnUse"
       xlink:href="#l" />
    <linearGradient
       id="cp"
       x1="2379.8999"
       x2="2604.1001"
       y1="668.5"
       y2="663.28003"
       gradientUnits="userSpaceOnUse"
       xlink:href="#e" />
    <linearGradient
       id="co"
       x1="2418.8999"
       x2="2405"
       y1="996.69"
       y2="897.76001"
       gradientUnits="userSpaceOnUse"
       xlink:href="#l" />
    <linearGradient
       id="cn"
       x1="2705.3"
       x2="2698.3"
       y1="30.754"
       y2="66.825996"
       gradientUnits="userSpaceOnUse"
       xlink:href="#e" />
    <linearGradient
       id="cl"
       x1="2732.3"
       x2="2734.3"
       y1="-34.877998"
       y2="51.194"
       gradientUnits="userSpaceOnUse"
       xlink:href="#k" />
    <linearGradient
       id="ck"
       x1="3108.2"
       x2="3107.7"
       y1="47.133999"
       y2="36.779999"
       gradientUnits="userSpaceOnUse"
       xlink:href="#b" />
    <linearGradient
       id="cj"
       x1="2799.1001"
       x2="3043.1001"
       y1="-184.83"
       y2="13.163"
       gradientUnits="userSpaceOnUse"
       xlink:href="#a" />
    <linearGradient
       id="ci"
       x1="3108.2"
       x2="3108.7"
       y1="20.618"
       y2="32.992001"
       gradientUnits="userSpaceOnUse"
       xlink:href="#b" />
    <linearGradient
       id="ch"
       x1="3098.2"
       x2="3146.3999"
       y1="-16.923"
       y2="39.645"
       gradientUnits="userSpaceOnUse"
       xlink:href="#k" />
    <linearGradient
       id="cg"
       x1="2920"
       x2="2931.3999"
       y1="75.219002"
       y2="212.36"
       gradientUnits="userSpaceOnUse"
       xlink:href="#a" />
    <linearGradient
       id="cf"
       x1="3000"
       x2="2974.3"
       y1="729.5"
       y2="298.07999"
       gradientUnits="userSpaceOnUse"
       xlink:href="#a" />
    <linearGradient
       id="ce"
       x1="2944.3"
       x2="2941.3999"
       y1="563.78998"
       y2="453.79001"
       gradientUnits="userSpaceOnUse"
       xlink:href="#a" />
    <linearGradient
       id="cd"
       x1="3025.3999"
       x2="3021.8999"
       y1="539.71002"
       y2="497.28"
       gradientUnits="userSpaceOnUse"
       xlink:href="#a" />
    <linearGradient
       id="ca"
       x1="2754.3"
       x2="2728.6001"
       y1="1143.8"
       y2="663.78998"
       gradientUnits="userSpaceOnUse"
       xlink:href="#a" />
    <linearGradient
       id="bz"
       x1="2946.1001"
       x2="2971.6001"
       y1="623.63"
       y2="622.20001"
       gradientUnits="userSpaceOnUse"
       xlink:href="#m" />
    <linearGradient
       id="by"
       x1="2954.3"
       x2="2969.1001"
       y1="566.83002"
       y2="565.03998"
       gradientUnits="userSpaceOnUse"
       xlink:href="#m" />
    <linearGradient
       id="bx"
       x1="2362.7"
       x2="2356.6001"
       y1="892.40002"
       y2="-181.14999"
       gradientUnits="userSpaceOnUse"
       xlink:href="#a" />
    <linearGradient
       id="bw"
       x1="2426.5"
       x2="2380.6001"
       y1="1061.4"
       y2="-156.88"
       gradientUnits="userSpaceOnUse"
       xlink:href="#a" />
    <linearGradient
       id="bv"
       x1="2024.2"
       x2="3234.3"
       y1="802.64001"
       y2="-187.31"
       gradientUnits="userSpaceOnUse"
       xlink:href="#a" />
    <linearGradient
       id="bu"
       x1="2327.7"
       x2="2341.6001"
       y1="1116.5"
       y2="-212.05"
       gradientUnits="userSpaceOnUse"
       xlink:href="#a" />
    <linearGradient
       id="bt"
       x1="3383"
       x2="3390.1001"
       y1="801.65002"
       y2="447.35999"
       gradientUnits="userSpaceOnUse"
       xlink:href="#a" />
    <linearGradient
       id="bq"
       x1="2981.3"
       x2="2959.3999"
       y1="-84.473"
       y2="-0.90195"
       gradientUnits="userSpaceOnUse"
       xlink:href="#b" />
    <linearGradient
       id="bp"
       x1="2973.2"
       x2="2993.3"
       y1="2.6837001"
       y2="-50.551998"
       gradientUnits="userSpaceOnUse"
       xlink:href="#a" />
    <linearGradient
       id="bo"
       x1="3177"
       x2="2770"
       y1="731.16998"
       y2="197.11"
       gradientUnits="userSpaceOnUse"
       xlink:href="#b" />
    <linearGradient
       id="bk"
       x1="3580.2"
       x2="3511.5"
       y1="575.07001"
       y2="567.72998"
       gradientUnits="userSpaceOnUse"
       xlink:href="#a" />
    <linearGradient
       id="bj"
       x1="2975.7"
       x2="3021.8"
       gradientUnits="userSpaceOnUse"
       xlink:href="#b"
       gradientTransform="matrix(0.43116556,0,0,0.43116556,-1192.7807,-45.302928)" />
    <linearGradient
       id="bi"
       x1="3534.8999"
       x2="3569.8999"
       y1="690.53003"
       y2="384.17999"
       gradientUnits="userSpaceOnUse"
       xlink:href="#a" />
    <linearGradient
       id="bh"
       x1="2882.8999"
       x2="3510"
       y1="132.74001"
       y2="240.78999"
       gradientUnits="userSpaceOnUse"
       xlink:href="#a"
       gradientTransform="matrix(0.43116556,0,0,0.43116556,-1192.7807,-45.302928)" />
    <linearGradient
       id="bg"
       x1="3285.5"
       x2="3271.8"
       y1="521.65002"
       y2="430.38"
       gradientUnits="userSpaceOnUse"
       xlink:href="#i" />
    <linearGradient
       id="bf"
       x1="3282.5"
       x2="3284.6001"
       y1="508.38"
       y2="550.85999"
       gradientUnits="userSpaceOnUse"
       xlink:href="#h"
       gradientTransform="matrix(0.43116556,0,0,0.43116556,-1192.7807,-45.302928)" />
    <linearGradient
       id="be"
       x1="3279.5"
       x2="3281.7"
       y1="557.78998"
       y2="611.28998"
       gradientUnits="userSpaceOnUse"
       xlink:href="#h"
       gradientTransform="matrix(0.43116556,0,0,0.43116556,-1192.7807,-45.302928)" />
    <linearGradient
       id="bc"
       x1="3177.7"
       x2="3179.3"
       y1="224.99001"
       y2="238.89"
       gradientUnits="userSpaceOnUse"
       xlink:href="#i" />
    <linearGradient
       id="bb"
       x1="3276.5"
       x2="3284.6001"
       y1="552.70001"
       y2="575.03998"
       gradientUnits="userSpaceOnUse"
       xlink:href="#d"
       gradientTransform="matrix(0.43116556,0,0,0.43116556,-1192.7807,-45.302928)" />
    <linearGradient
       id="ba"
       x1="3265.1001"
       x2="3271.8999"
       y1="567.34998"
       y2="565.21997"
       gradientUnits="userSpaceOnUse"
       xlink:href="#d"
       gradientTransform="matrix(0.43116556,0,0,0.43116556,-1192.7807,-45.302928)" />
    <linearGradient
       id="az"
       x1="2957.6001"
       x2="2980.2"
       gradientUnits="userSpaceOnUse"
       xlink:href="#b"
       gradientTransform="matrix(0.43116556,0,0,0.43116556,-1192.7807,-45.302928)" />
    <linearGradient
       id="ay"
       x1="2962.5"
       x2="2965.3999"
       y1="772.79999"
       y2="448.67001"
       gradientUnits="userSpaceOnUse"
       xlink:href="#a" />
    <linearGradient
       id="ax"
       x1="3057.8"
       x2="3027.5"
       y1="820.94"
       y2="359.57001"
       gradientUnits="userSpaceOnUse"
       xlink:href="#a"
       gradientTransform="matrix(0.43116556,0,0,0.43116556,-1192.7807,-45.302928)" />
    <linearGradient
       id="aw"
       x1="2903.7"
       x2="2870.5"
       y1="742.38"
       y2="322.79001"
       gradientUnits="userSpaceOnUse"
       xlink:href="#a"
       gradientTransform="matrix(0.43116556,0,0,0.43116556,-1192.7807,-45.302928)" />
    <linearGradient
       id="av"
       x1="2893.3"
       x2="2860.1001"
       y1="741.64001"
       y2="322.04001"
       gradientUnits="userSpaceOnUse"
       xlink:href="#a"
       gradientTransform="matrix(0.43116556,0,0,0.43116556,-1192.7807,-45.302928)" />
    <linearGradient
       id="au"
       x1="2831.3"
       x2="2898.8"
       y1="499.60999"
       y2="495.41"
       gradientUnits="userSpaceOnUse"
       xlink:href="#a"
       gradientTransform="matrix(0.43116556,0,0,0.43116556,-1192.7807,-45.302928)" />
    <linearGradient
       id="as"
       x1="3083.3"
       x2="2736.1001"
       y1="261.23999"
       y2="277.56"
       gradientUnits="userSpaceOnUse"
       xlink:href="#b" />
    <linearGradient
       id="ar"
       x1="3059.3999"
       x2="3069.3"
       y1="208.42999"
       y2="188.78"
       gradientUnits="userSpaceOnUse"
       xlink:href="#b"
       gradientTransform="matrix(0.43116556,0,0,0.43116556,-1192.7807,-45.302928)" />
    <linearGradient
       id="aq"
       x1="3085.1001"
       x2="3114.5"
       y1="201.39"
       y2="180.06"
       gradientUnits="userSpaceOnUse"
       xlink:href="#b"
       gradientTransform="matrix(0.43116556,0,0,0.43116556,-1192.7807,-45.302928)" />
    <linearGradient
       id="ao"
       x1="3089.7"
       x2="3063.1001"
       y1="201.48"
       y2="268.62"
       gradientUnits="userSpaceOnUse"
       xlink:href="#g"
       gradientTransform="matrix(0.43116556,0,0,0.43116556,-1192.7807,-45.302928)" />
    <linearGradient
       id="am"
       x1="3382.6001"
       x2="3404.5"
       y1="214.95"
       y2="210.5"
       gradientUnits="userSpaceOnUse"
       xlink:href="#a" />
    <linearGradient
       id="al"
       x1="3405"
       x2="3431.1001"
       y1="186.48"
       y2="244.7"
       gradientUnits="userSpaceOnUse"
       xlink:href="#g"
       gradientTransform="matrix(0.43116556,0,0,0.43116556,-1192.7807,-45.302928)" />
    <linearGradient
       id="ak"
       x1="2966.2"
       x2="3330.2"
       y1="180.53"
       y2="134.53999"
       gradientUnits="userSpaceOnUse"
       xlink:href="#a" />
    <linearGradient
       id="aj"
       x1="3062.3"
       x2="3404.2"
       y1="101.02"
       y2="176.55"
       gradientUnits="userSpaceOnUse"
       xlink:href="#a" />
    <linearGradient
       id="ah"
       x1="3050.2"
       x2="3388"
       y1="155.73"
       y2="140"
       gradientUnits="userSpaceOnUse"
       xlink:href="#a" />
    <linearGradient
       id="ag"
       x1="3024.3999"
       x2="3123.2"
       y1="209.22"
       y2="222.60001"
       gradientUnits="userSpaceOnUse"
       xlink:href="#d"
       gradientTransform="matrix(0.43116556,0,0,0.43116556,-1192.7807,-45.302928)" />
    <linearGradient
       id="af"
       x1="3054"
       x2="3088.8999"
       gradientUnits="userSpaceOnUse"
       xlink:href="#a" />
    <linearGradient
       id="ae"
       x1="3029.2"
       x2="3061.8999"
       y1="251.32001"
       y2="200.05"
       gradientUnits="userSpaceOnUse"
       xlink:href="#b"
       gradientTransform="matrix(0.43116556,0,0,0.43116556,-1192.7807,-45.302928)" />
    <linearGradient
       id="ad"
       x1="4367.8999"
       x2="3435.1001"
       y1="703"
       y2="171.89999"
       gradientUnits="userSpaceOnUse"
       xlink:href="#b" />
    <linearGradient
       id="ac"
       x1="3931.8"
       x2="4469.2002"
       y1="141.82001"
       y2="521.56"
       gradientUnits="userSpaceOnUse"
       xlink:href="#c" />
    <linearGradient
       id="ab"
       x1="4396.2998"
       x2="4426.7998"
       y1="390.45001"
       y2="392.54001"
       gradientUnits="userSpaceOnUse"
       xlink:href="#b" />
    <linearGradient
       id="aa"
       x1="4274.1001"
       x2="4420.3999"
       y1="397.79001"
       y2="580.31"
       gradientUnits="userSpaceOnUse"
       xlink:href="#c" />
    <linearGradient
       id="z"
       x1="3877.8999"
       x2="4449.7998"
       y1="161.75999"
       y2="210.02"
       gradientUnits="userSpaceOnUse"
       xlink:href="#c" />
    <linearGradient
       id="y"
       x1="4028.7"
       x2="4453.2998"
       gradientUnits="userSpaceOnUse"
       xlink:href="#a" />
    <linearGradient
       id="x"
       x1="4141"
       x2="4455.6001"
       gradientUnits="userSpaceOnUse"
       xlink:href="#a" />
    <linearGradient
       id="u"
       x1="3825.8"
       x2="4355.7998"
       y1="232.73"
       y2="403.32999"
       gradientUnits="userSpaceOnUse"
       xlink:href="#b" />
    <linearGradient
       id="t"
       x1="3912.1001"
       x2="4333.2998"
       y1="152.3"
       y2="262.07999"
       gradientUnits="userSpaceOnUse"
       xlink:href="#a" />
    <linearGradient
       id="s"
       x1="4302.5"
       x2="3992.7"
       y1="656.96002"
       y2="297.95001"
       gradientUnits="userSpaceOnUse"
       xlink:href="#b" />
    <radialGradient
       id="r"
       cx="2698.2"
       cy="7.4727001"
       r="23.653999"
       gradientTransform="matrix(1.7468,0.36004,-0.27595,1.3388,-2009.7,-982.3)"
       gradientUnits="userSpaceOnUse">
      <stop
         stop-color="#fff"
         stop-opacity="0"
         offset="0"
         id="stop381" />
      <stop
         stop-color="#fff"
         stop-opacity="0"
         offset=".5314"
         id="stop383" />
      <stop
         stop-color="#fff"
         stop-opacity=".4449"
         offset=".7946"
         id="stop385" />
      <stop
         stop-color="#fff"
         stop-opacity="0"
         offset="1"
         id="stop387" />
    </radialGradient>
    <radialGradient
       id="p"
       cx="3011.7"
       cy="528.62"
       r="62.118999"
       gradientTransform="matrix(0.11848,0.78988,-1.7077,0.25616,3562.3,-1979.8)"
       gradientUnits="userSpaceOnUse">
      <stop
         stop-color="#eeddc0"
         offset="0"
         id="stop390" />
      <stop
         stop-color="#c38e35"
         offset=".6859"
         id="stop392" />
      <stop
         stop-color="#d8b270"
         offset="1"
         id="stop394" />
    </radialGradient>
    <radialGradient
       id="o"
       cx="3244.6001"
       cy="359"
       r="180.22"
       gradientTransform="matrix(0.4279232,-0.05277467,0.04259053,0.34533774,-1197.5516,98.99956)"
       gradientUnits="userSpaceOnUse">
      <stop
         offset="0"
         id="stop397" />
      <stop
         stop-color="#161616"
         offset="1"
         id="stop399" />
    </radialGradient>
    <radialGradient
       id="f"
       cx="2286.5"
       cy="186.89999"
       r="4.0648999"
       gradientTransform="matrix(1.5415,-0.13792,0.12212,1.3648,-1260.9,247.27)"
       gradientUnits="userSpaceOnUse">
      <stop
         stop-color="#fff"
         offset="0"
         id="stop402" />
      <stop
         stop-color="#fbfbfb"
         offset=".5"
         id="stop404" />
      <stop
         stop-color="#535353"
         offset="1"
         id="stop406" />
    </radialGradient>
    <radialGradient
       id="q"
       cx="2704.6001"
       cy="9.6651001"
       r="17.5"
       gradientTransform="matrix(1.481,0.08714,-0.03872,0.65807,-1300,-243.33)"
       gradientUnits="userSpaceOnUse"
       xlink:href="#b" />
    <radialGradient
       inkscape:collect="always"
       xlink:href="#f"
       id="radialGradient1551"
       gradientUnits="userSpaceOnUse"
       gradientTransform="matrix(0.66464171,-0.05946635,0.05265393,0.58845476,-1253.4026,61.231424)"
       cx="2286.5"
       cy="186.89999"
       r="4.0648999" />
    <radialGradient
       inkscape:collect="always"
       xlink:href="#f"
       id="radialGradient1553"
       gradientUnits="userSpaceOnUse"
       gradientTransform="matrix(0.66464171,-0.05946635,0.05265393,0.58845476,-1387.9392,71.730494)"
       cx="2286.5"
       cy="186.89999"
       r="4.0648999" />
  </defs>
  <path
     transform="matrix(0.43116556,0,0,0.46768528,-1192.7807,-64.182805)"
     d="m 2943.3,767.53 h -28.187 c 0,0 -17.802,-7.4175 -23.736,-13.352 -5.934,-5.9345 -26.703,-31.154 -26.703,-31.154 l -17.802,-16.319 c 0,0 -41.538,-63.791 -38.571,-103.85 1.0339,-13.957 48.956,-19.286 48.956,-19.286 0,0 450.99,-65.274 459.89,-66.758 8.9,-1.484 188.4,63.791 188.4,63.791 0,0 75.659,29.67 48.956,54.89 -26.703,25.22 -489.56,112.75 -496.97,115.71 -7.41,2.96 -114.23,16.319 -114.23,16.319 z"
     fill="url(#bo)"
     filter="url(#cx)"
     stroke="#000000"
     id="path534"
     style="fill:url(#bo)" />
  <path
     d="m 36.98967,73.746193 c 0,0 -3.505247,0.678438 -4.070592,9.385184 -0.703403,10.832173 0.339241,55.969613 0.339241,55.969613 0,0 5.088185,102.66914 6.445063,109.00295 2.14561,10.27555 6.931849,15.37193 16.734829,14.69931 l 7.68898,-0.90459 -12.21191,-137.49439 c 0,0 -2.53258,-26.07733 -4.63589,-34.26084 -2.38947,-9.296366 -7.414752,-17.11426 -10.289764,-16.395511 z"
     fill="url(#bn)"
     id="path536"
     style="fill:url(#bn);stroke-width:0.431166" />
  <path
     d="m 49.321001,118.68227 c 0,0 7.99554,122.80889 8.63496,129.20739 0.63941,6.3985 1.75902,23.66668 3.518,28.94371 1.75899,5.27704 5.43701,9.27481 11.51342,10.71403 6.07642,1.43924 15.03129,0 15.03129,0 L 328.20377,241.49462 c 0,0 6.31657,-1.35922 9.03464,-4.3177 2.71807,-2.95849 6.79603,-10.31434 7.99554,-30.54248 1.19949,-20.22813 2.55853,-56.28866 2.63852,-56.68965 0.08,-0.40098 0.31978,-13.51229 0.31978,-13.51229 l 0.89592,-20.17467 z"
     fill="url(#bm)"
     id="path538"
     style="fill:url(#bm);stroke-width:0.431166" />
  <path
     d="m 2906.3,448.14 c 0,0 12.063,224.49 14.686,233.93 2.623,9.44 -1.6731,52.379 7.8675,63.989 10.194,12.404 16.784,10.49 27.274,12.063 10.49,1.573 53.499,-5.7695 53.499,-5.7695"
     fill="none"
     filter="url(#dv)"
     stroke="#000000"
     stroke-width="3"
     id="path540"
     transform="matrix(0.43116556,0,0,0.43116556,-1192.7807,-45.302928)" />
  <path
     d="m 2975.2,756.4 c 0,0 -11.518,1.6685 -20.503,-8.9246 -4.7863,-5.6427 -9.651,-24.328 -9.9088,-27.421 -0.7417,-8.901 -11.126,-178.76 -11.868,-181.73 -0.742,-2.97 -6.6758,-67.499 -6.6758,-67.499 0,0 34.862,16.319 36.346,19.286 1.484,2.967 17.06,210.66 16.318,215.85 -0.742,5.19 -3.7088,50.439 -3.7088,50.439 z"
     filter="url(#dx)"
     stroke="#000000"
     id="path542"
     transform="matrix(0.43116556,0,0,0.43116556,-1192.7807,-45.302928)" />
  <path
     d="m 58.073671,148.37233 c 0,0 5.20114,98.42648 6.33209,102.56567 1.13095,4.13919 -0.72138,22.96603 3.3922,28.05638 4.3953,5.43872 7.23668,4.59923 11.75961,5.2891 4.52293,0.68987 37.313929,-6.26095 37.313929,-6.26095"
     fill="none"
     stroke="#000000"
     stroke-dasharray="1.72466, 3.44932"
     stroke-linecap="round"
     stroke-linejoin="round"
     stroke-width="1.72466"
     id="path544" />
  <path
     d="m 345.27305,137.06287 c 0,0 -1.6026,52.2745 -4.86527,79.95965 -1.84716,15.67545 -7.93604,20.93481 -13.22644,22.60471"
     fill="none"
     stroke="#000000"
     stroke-dasharray="1.72466, 3.44932"
     stroke-linecap="round"
     stroke-linejoin="round"
     stroke-width="1.72466"
     id="path546" />
  <path
     d="m 82.693221,172.18561 3.16605,105.8339 c 0,0 0.45229,3.61834 6.78439,3.61834 6.3321,0 237.451499,-40.25405 237.451499,-40.25405 0,0 3.61834,0 4.07063,-3.16605 0.45229,-3.16604 8.59356,-90.00581 8.59356,-90.00581 l -0.90458,-13.11649 -259.160689,10.40273 z"
     fill="url(#bl)"
     id="path548"
     style="fill:url(#bl);stroke-width:0.431166" />
  <path
     d="m 3545.1,451.81 c 0,0 -9.3714,132.67 -13.112,166.27 -1.792,16.093 -2.9159,33.299 -8.9165,47.205 l -19.406,2.6225 c 0,0 -20.455,-40.911 -19.406,-49.303 1.049,-8.392 17.833,-84.969 17.833,-89.165 0,-4.196 13.112,-52.45 13.112,-52.45 l 23.078,-24.127 z"
     fill="url(#bk)"
     filter="url(#ea)"
     id="path550"
     style="fill:url(#bk)"
     transform="matrix(0.43116556,0,0,0.43116556,-1192.7807,-45.302928)" />
  <path
     d="m 90.454201,177.66573 0.90459,99.50438 v 4.07063 l 9.950439,-1.35687 6.78439,-0.90459 1.80913,-97.69349 -17.187139,-6.78439 z"
     fill="url(#bj)"
     id="path552"
     style="fill:url(#bj);stroke-width:0.431166" />
  <path
     d="m 3560.4,438.97 c 0,0 0.2117,10.73 -0.071,13.656 -2.1295,22.057 -11.266,117.57 -12.056,131.36 -0.6611,11.532 -5.7275,68.247 -6.294,70.807 -1.2026,5.4359 -6.3576,8.392 -6.3576,8.392"
     fill="none"
     filter="url(#dy)"
     stroke="url(#bi)"
     stroke-width="1.5"
     id="path554"
     style="stroke:url(#bi)"
     transform="matrix(0.43116556,0,0,0.43116556,-1192.7807,-45.302928)" />
  <path
     d="m 37.162136,73.590976 c 0,0 6.076421,0.959432 11.193495,31.342294 3.09378,61.57907 50.17904,91.03198 96.585399,88.59158 38.69796,-0.95942 54.68903,-4.15764 54.68903,-4.15764 l 60.76417,-7.99553 c 0,0 41.89635,-3.19817 63.00622,-19.50895 21.10987,-16.31078 28.78376,-28.1439 31.66222,-39.33739 2.87845,-11.19349 5.43699,-31.02237 -1.91891,-49.571108 -7.35589,-18.548741 -15.03129,-28.143901 -22.06749,-29.103247 -7.03618,-0.959346 -43.17691,1.599104 -43.17691,1.599104 0,0 -32.94105,2.558537 -46.69523,3.837805 -13.75419,1.279268 -103.62202,9.594731 -104.89827,9.274809 -1.27625,-0.319932 -58.845479,5.117073 -64.282479,5.436995 -9.76762,0.78291 -19.48222,2.005226 -29.103239,3.837804 -5.282215,0.07248 -7.159941,2.610492 -8.954883,7.995531 z"
     fill="#0d0d0d"
     stroke="#000000"
     id="path556"
     style="stroke-width:0.431166" />
  <path
     d="m 319.96363,43.896608 c -4.38797,0.105188 -8.20508,-0.06695 -13.16563,0.193076 -9.92156,0.520075 -18.95793,1.158756 -18.95793,1.158756 h -0.0134 c 0,0 -32.93286,2.559356 -46.69954,3.840045 -6.87538,0.639596 -32.78411,3.042697 -57.12944,5.241248 -37.8641,2.990694 -79.26117,7.282819 -112.034069,9.472282 h -0.0134 c -9.74693,0.781223 -19.44126,2.015011 -29.049777,3.840045 -4.732043,1.073213 -6.401084,2.893727 -7.418205,5.494777"
     fill="none"
     stroke="url(#bh)"
     stroke-width="1.2935"
     id="path558"
     style="stroke:url(#bh)" />
  <path
     d="m 2963.4,486.95 c 0,0 67.136,39.862 108.05,45.107 40.914,5.245 170.99,-8.392 170.99,-8.392 0,0 183.57,-20.98 220.29,-37.764 55.562,-21.108 85.292,-49.809 115.39,-97.557 l -409.11,50.352 z"
     fill="url(#bg)"
     filter="url(#eh)"
     opacity="0.1845"
     id="path560"
     style="fill:url(#bg)"
     transform="matrix(0.43116556,0,0,0.43116556,-1192.7807,-45.302928)" />
  <path
     d="m 198.28871,190.16521 v -0.71961 l 3.43803,-0.5597 41.2565,-0.5597 0.31985,2.15877 2.55853,3.91778 -14.39188,2.15876 -31.58201,4.95711 c 0,0 -1.27927,-3.75786 -1.27927,-4.15764 0,-0.39978 -0.31983,-7.19572 -0.31983,-7.19572 z"
     stroke="#000000"
     id="path562"
     style="stroke-width:0.431166" />
  <path
     d="m 3228.5,533.88 c -4.4505,0 -25.961,2.2253 -25.961,2.2253 0,0 1.8544,26.703 1.4835,32.266 -0.3709,5.563 4.0796,20.769 4.8214,25.59 0.7418,4.821 8.901,18.173 8.901,18.173 0,0 -0.7417,11.497 0,13.352 0.7417,1.855 10.014,2.5961 18.173,1.8544 8.159,-0.7417 51.923,-9.2719 57.486,-9.2719 5.563,0 28.558,-4.8214 30.783,-7.4175 2.225,-2.5961 10.014,-8.1593 10.014,-14.835 0,-6.6757 4.0796,-37.458 4.0796,-39.684 0,-2.226 -2.5961,-11.126 -2.967,-13.722 -0.3709,-2.596 -0.3709,-11.126 -2.2253,-11.126 -1.8544,0 -33.379,7.0466 -36.346,7.0466 -2.967,0 -68.241,-4.4505 -68.241,-4.4505 z"
     filter="url(#ee)"
     opacity="0.8589"
     id="path564"
     transform="matrix(0.43116556,0,0,0.43116556,-1192.7807,-45.302928)" />
  <path
     d="m 2869,267.59 c 0,0 9.6428,4.4505 14.093,16.319 4.4502,11.8685 17.802,64.532 17.802,64.532 0,0 3.7088,66.016 22.994,94.573 19.2852,28.557 41.909,78.255 139.82,90.123 97.911,11.868 203.61,-9.6428 203.61,-9.6428 0,0 160.59,-14.464 212.88,-42.651 52.29,-28.187 87.527,-47.843 97.911,-111.63 10.384,-63.787 -20.769,-123.13 -20.769,-123.13 0,0 -11.868,-18.915 -21.511,-24.849 -9.643,-5.934 -21.511,-11.126 -21.511,-11.126"
     fill="none"
     filter="url(#ef)"
     opacity="0.7842"
     stroke="#000000"
     stroke-width="5"
     id="path566"
     transform="matrix(0.43116556,0,0,0.43116556,-1192.7807,-45.302928)" />
  <path
     d="m 41.818724,69.632878 c 0,0 4.197397,1.937393 6.134627,7.103884 1.93722,5.166482 7.74891,28.092158 7.74891,28.092158 0,0 1.6693,30.09493 10.06383,42.52672 8.39454,12.4318 20.50365,34.51826 63.122639,39.68449 42.619,5.16622 87.49643,-4.87606 87.49643,-4.87606 0,0 69.90056,-6.29674 92.6661,-18.56685 22.76554,-12.27011 38.51258,-21.47808 43.03291,-49.24772 4.52034,-27.769666 -9.04068,-54.559703 -9.04068,-54.559703 0,0 -5.16622,-8.233964 -9.36319,-10.817085 -4.19744,-2.583198 -9.36319,-4.843279 -9.36319,-4.843279"
     fill="none"
     stroke="#000000"
     stroke-dasharray="1.72466, 5.17399"
     stroke-dashoffset="4.65659"
     stroke-linecap="round"
     stroke-width="1.72466"
     id="path568" />
  <path
     d="m 3215.5,542.41 c -0.7417,1.4835 -1.8543,47.472 0.7418,55.261 2.5961,7.789 7.7884,25.22 7.7884,25.22 0,0 7.4175,1.4835 8.1593,-0.37087 0.7418,-1.85437 -2.967,-60.453 -2.967,-62.307 0,-1.854 -0.7418,-19.286 -0.7418,-19.286 z"
     filter="url(#ec)"
     opacity="0.6805"
     id="path570"
     transform="matrix(0.43116556,0,0,0.43116556,-1192.7807,-45.302928)" />
  <path
     d="m 3218.8,544.12 c 0,0 10.228,-11.277 11.277,-18.095 1.049,-6.818 0.5245,-13.637 1.5735,-13.637 1.049,0 98.343,-11.539 101.49,-11.539 3.147,0 5.2449,2.3602 5.2449,2.3602 v 26.225 l -118.8,16.259 z"
     filter="url(#ed)"
     stroke="#000000"
     id="path572"
     transform="matrix(0.43116556,0,0,0.43116556,-1192.7807,-45.302928)" />
  <path
     d="m 201.22063,176.7301 -0.31979,12.63272 -0.31984,7.19572 42.21585,-6.07642 c 0,0 2.2387,0.47971 3.19817,-2.39862 0.95948,-2.87833 0.95943,-13.91199 0.95943,-14.71179 0,-0.79982 -0.15988,-2.39862 -1.59906,-2.23875 -1.43919,0.15988 -42.05589,5.11707 -42.05589,5.11707 z"
     fill="url(#bf)"
     id="path574"
     style="fill:url(#bf);stroke-width:0.431166" />
  <path
     d="m 200.57389,200.07771 c 0.31983,0 14.43197,-2.09883 14.43197,-2.09883 l 0.82939,-1.92485 13.33294,-1.80231 2.3082,1.52839 14.43197,-1.45915 c 0,0 0,17.11038 -1.43915,19.50895 -1.43913,2.39858 -5.11707,5.27703 -5.43699,5.27703 -0.31993,0 -6.79604,0.5597 -6.79604,0.5597 0,0 -29.82285,4.15764 -31.58201,4.15764 -1.75915,0 -2.63848,-0.39977 -2.63848,-0.39977 0,0 -0.55969,-0.15991 -0.55969,-1.03941 0,-0.8795 0.71961,-32.22186 0.71961,-32.22186 0,0 0.3198,-0.5597 0.95943,1.3592 0.63964,1.9189 0.95947,7.43588 0.95947,7.43588 z"
     fill="url(#be)"
     id="path576"
     style="fill:url(#be);stroke-width:0.431166" />
  <path
     d="m 229.11705,194.28284 c 0,0.19989 1.07937,4.59753 1.07937,4.59753 0,0 0.99945,-0.04 0.99945,-0.1999 0,-0.15992 0.27982,-2.95831 0.27982,-2.95831 z"
     fill="url(#bd)"
     id="path578"
     style="fill:url(#bd);stroke-width:0.431166" />
  <path
     d="m 2945.6,379.96 c 0,0 13.637,17.833 40.911,1.049 27.274,-16.784 95.459,-35.666 100.7,-35.666 5.241,0 110.14,-14.686 121.68,-14.686 11.54,0 121.68,-8.392 130.08,-11.539 8.4,-3.147 131.12,-26.225 135.32,-26.225 4.2,0 43.009,-7.343 43.009,-7.343 0,0 3.147,-12.588 -9.441,-12.588 -12.588,0 -162.59,10.49 -188.82,15.735 -26.23,5.245 -197.21,20.98 -219.24,19.931 -22.03,-1.049 -54.548,-6.294 -67.136,-5.245 -12.588,1.049 -34.617,11.539 -45.107,11.539 -10.49,0 -59.793,-11.539 -59.793,-11.539 0,0 -4.1959,16.784 -2.098,26.225 2.0979,9.441 19.931,50.352 19.931,50.352 z"
     fill="#ffffff"
     filter="url(#eg)"
     opacity="0.3262"
     id="path580"
     transform="matrix(0.43116556,0,0,0.43116556,-1192.7807,-45.302928)" />
  <path
     d="m 3508.5,206.88 c -10.177,0.24397 -19.03,-0.1553 -30.535,0.44781 -23.011,1.2062 -43.969,2.6875 -43.969,2.6875 h -0.031 c 0,0 -76.381,5.9359 -108.31,8.9062 -15.946,1.4834 -76.036,7.0569 -132.5,12.156 -87.818,6.9363 -183.83,16.891 -259.84,21.969 h -0.031 c -22.906,6.4442 -73.898,0.075 -84.58,21.65 14.108,-14.283 55.828,-16.276 84.798,-18.65 h 0.031 c 91.976,-8.7842 176.33,-9.2094 259.91,-16.755 56.415,-5.095 116.36,-15.88 132.38,-17.37 h 0.125 c 31.847,-2.9625 108.19,-8.9019 108.25,-8.9062 h 0.031 c 0.03,-0.002 20.945,-1.4839 43.906,-2.6875 19.835,-2.0119 40.097,2.2745 55.507,11.049 -9.8245,-10.876 -20.148,-14.331 -25.127,-14.497 z"
     fill="#ffffff"
     filter="url(#du)"
     opacity="0.5602"
     stroke="url(#bc)"
     stroke-width="3"
     id="path582"
     style="stroke:url(#bc)"
     transform="matrix(0.43116556,0,0,0.43116556,-1192.7807,-45.302928)" />
  <path
     d="m 46.302841,91.90258 c 0.85306,5.82936 2.08857,20.41267 4.67643,31.93471 1.52813,6.80379 4.04123,14.31427 5.29341,17.61527 4.97523,13.11649 13.61535,21.2806 13.61535,21.2806 0,0 -6.63089,-6.11823 -11.42028,-15.37795 -5.08818,-9.83747 -8.48059,-24.98906 -8.48059,-24.98906 0,0 -5.834108,-40.64555 -8.706532,-44.211716 -3.2791,-4.070639 -6.332097,-4.748858 -7.010321,-1.130737 -0.678223,3.618131 -2.035316,25.328393 -2.035316,25.328393 l 0.452292,30.30361 c 0,0 -0.226146,-49.29947 0.678439,-54.727844 0.904585,-5.428374 1.907736,-5.550823 3.419574,-5.747438 5.617657,-0.730393 8.659964,14.375489 9.517544,19.721512 z"
     fill="#ffffff"
     id="path584"
     style="stroke-width:0.431166" />
  <path
     d="m 215.92338,200.79775 c 0.15993,0 14.47164,-1.75898 14.47164,-1.75898 l -1.2393,-4.79714 -13.43253,1.75898 z"
     fill="url(#bb)"
     id="path586"
     style="fill:url(#bb);stroke-width:0.431166" />
  <path
     d="m 215.10417,197.83996 0.59966,3.55797 0.25987,-0.45974 -0.13992,-4.97737 z"
     fill="url(#ba)"
     id="path588"
     style="fill:url(#ba);stroke-width:0.431166" />
  <path
     d="m 231.48846,195.82642 c -0.56414,1.51542 0.0933,3.03998 -1.23853,3.04157 l -14.48285,1.94585 -0.0198,0.74031 14.89159,-1.99703 c 0.66349,-0.1647 0.73424,-0.19641 0.98988,-0.78653 l 0.0818,-2.03079 z"
     id="path590"
     style="stroke-width:0.431166" />
  <path
     d="m 215.14729,197.67611 -0.12134,0.23728 0.60635,3.59756 0.41768,-0.0673 z"
     id="path592"
     style="stroke-width:0.431166" />
  <path
     d="m 199.06481,192.21325 c 0.13819,9.82583 0.48048,19.65166 -0.2399,29.47706 0,0 1.94968,-6.37909 2.06274,-11.35431 0.11305,-4.97522 0.33924,-10.28976 0.33924,-10.28976 0,0 -1.28535,-0.79197 -1.32377,-1.24262 -0.0433,-0.50671 -0.10986,-2.1739 -0.15557,-2.84807 -0.1822,-2.68733 -0.68274,-3.74277 -0.68274,-3.74277 z"
     id="path594"
     style="stroke-width:0.431166" />
  <path
     d="m 3236.4,517.11 c 1.049,0 97.819,-12.326 97.819,-12.326"
     fill="none"
     filter="url(#eb)"
     opacity="0.5975"
     stroke="#000000"
     stroke-linecap="round"
     stroke-width="3"
     id="path596"
     transform="matrix(0.43116556,0,0,0.43116556,-1192.7807,-45.302928)" />
  <path
     d="m 82.434521,173.92752 3.39219,103.35038 c 0,0 0,2.26147 2.03533,3.3922 2.03531,1.13073 4.29673,0.67843 4.29673,0.67843 l -1.13073,-101.31527 z"
     fill="url(#az)"
     id="path598"
     style="fill:url(#az);stroke-width:0.431166" />
  <path
     d="m 3523.7,663.68 c 0.3708,-1.4835 5.1922,-5.934 5.5631,-10.385 0.3709,-4.451 10.384,-103.1 12.981,-124.99 2.597,-21.89 3.7088,-71.579 3.7088,-73.063 0,-1.484 8.9011,-14.835 8.9011,-14.835 0,0 -1.8544,5.1923 -1.8544,10.014 0,4.8217 -10.755,145.01 -10.385,146.5 0.37,1.49 -2.5961,35.975 -2.967,41.167 -0.3709,5.192 -4.4505,22.253 -6.3049,24.107 -1.8544,1.854 -9.6427,1.4835 -9.6427,1.4835 z"
     filter="url(#dz)"
     id="path600"
     transform="matrix(0.43116556,0,0,0.43116556,-1192.7807,-45.302928)" />
  <path
     d="m 2957.6,508.46 7.8675,239.7 c 0.9957,7.3837 6.4262,8.5517 11.674,9.5364"
     fill="none"
     filter="url(#dw)"
     opacity="0.8299"
     stroke="url(#ay)"
     stroke-width="2"
     id="path602"
     style="stroke:url(#ay)"
     transform="matrix(0.43116556,0,0,0.43116556,-1192.7807,-45.302928)" />
  <path
     d="m 49.321001,118.68227 c 0,0 7.99554,122.80889 8.63496,129.20739 0.63941,6.3985 1.75902,23.66668 3.518,28.94371 1.75899,5.27704 5.43701,9.27481 11.51342,10.71403 M 337.23582,237.17433 c 2.71846,-2.95831 6.79604,-10.31434 7.99553,-30.54247 1.19951,-20.22813 2.55854,-56.28867 2.63852,-56.68965 0.08,-0.40098 0.3198,-13.5123 0.3198,-13.5123"
     fill="none"
     stroke="url(#ax)"
     stroke-width="0.862331"
     id="path604"
     style="stroke:url(#ax)" />
  <path
     d="m 58.246131,262.35095 c 0,0 -3.6302,-3.43979 -4.8601,-16.29245 -0.55361,-5.78538 -1.8888,-15.09898 -2.60264,-25.09211 -2.30769,-32.30724 -5.92336,-87.34552 -6.953836,-103.09169 -0.0906,-1.38521 -0.521458,-8.14127 0.189929,-12.63315 0.711377,-4.49188 2.565737,-6.72403 2.565737,-6.72403"
     fill="none"
     stroke="url(#aw)"
     stroke-width="1.2935"
     id="path606"
     style="stroke:url(#aw)" />
  <path
     d="m 59.194701,263.14861 c 0,0 -7.78772,-4.55915 -10.2971,-17.41177 -1.11361,-5.70431 -1.88881,-15.09898 -2.60264,-25.0921 -2.307691,-32.30724 -6.563207,-86.22449 -7.593693,-101.97497 -0.09064,-1.38521 -1.895533,-13.26783 0.681025,-18.19131 2.167168,-4.14109 6.871918,-3.40474 6.871918,-3.40474"
     fill="none"
     stroke="url(#av)"
     stroke-width="1.2935"
     id="path608"
     style="stroke:url(#av)" />
  <path
     d="m 36.98967,73.746193 c 0,0 -3.505247,0.678438 -4.070592,9.385184 -0.703403,10.832173 0.339241,55.969613 0.339241,55.969613 0,0 5.088185,102.66914 6.445063,109.00295 2.14561,10.27555 6.931849,15.37193 16.734829,14.69931"
     fill="none"
     stroke="url(#au)"
     stroke-width="1.2935"
     id="path610"
     style="stroke:url(#au)" />
  <path
     d="m 262.23056,34.652411 c 1.93554,4.403931 2.95478,8.02313 2.95832,13.152705 0,0 11.59318,-1.079373 11.9131,-0.999438 0.31993,0.07992 -5.03687,-9.994416 -5.03687,-9.994416 z"
     fill="url(#at)"
     id="path612"
     style="fill:url(#at);stroke-width:0.431166" />
  <path
     d="m 205.35982,2.5176448 c -11.36983,0.07563 -21.50481,2.644556 -32.64742,7.303084 -10.57736,5.3024722 -24.29144,9.6343932 -34.02155,18.1223142 l -0.22904,0.835391 -4.76955,2.115383 c 0,0 -2.1482,0.900401 -2.60049,1.239596 -0.45229,0.339196 -3.04088,2.372489 -4.28466,3.503225 -1.24379,1.130728 -2.61399,3.961332 -2.61399,3.961332 l 5.99579,6.561904 c 0,0 1.24413,2.374863 3.16635,3.166395 1.92223,0.791532 6.79172,0.452299 7.92267,0 1.0958,-0.438318 7.37983,-5.046789 7.77435,-5.335669 l 0.0405,0.01345 c 0,0 23.09625,-17.101314 37.80805,-22.218387 18.20554,-7.614385 39.59264,-5.811685 51.0112,-0.80844 2.55858,0.479716 12.63875,4.796722 12.63875,4.796722 0,0 13.59035,10.953323 15.58922,12.072635 1.99889,1.119303 4.95841,2.479202 4.95841,2.479202 l 8.07099,-8.721184 c 0,0 -0.4416,-2.118149 -2.4792,-3.742306 -1.35929,-0.719569 -6.46749,-3.045109 -6.46749,-3.045109 0,0 -2.48265,-2.555475 -4.00177,-3.35498 -1.51913,-0.799514 -24.551,-13.9119942 -41.66138,-16.9499792 -6.95038,-1.383999 -13.24497,-2.03377 -19.20023,-1.994146 z"
     fill="url(#o)"
     id="path614"
     style="fill:url(#o);stroke-width:0.431166" />
  <path
     d="m 3018.5,251.83 c 0,0 18.792,25.846 21.939,27.158 3.147,1.312 51.138,-9.1787 51.138,-9.1787 0,0 4.7205,3.147 1.5735,6.294 -3.147,3.147 -44.058,11.801 -50.876,12.326 -6.818,0.525 -34.092,-6.5562 -44.32,-9.1787 -10.228,-2.6225 -38.288,-7.343 -44.845,-7.0807 -6.557,0.2623 -40.649,4.196 -46.156,6.5562 -5.507,2.3602 -14.161,1.049 -12.326,-0.78674 1.835,-1.83574 6.5562,-7.8675 16.259,-9.9655 9.7028,-2.098 41.173,-4.196 47.467,-4.196 6.294,0 20.718,-5.7695 28.061,-2.6225 26.151,4.0633 23.812,0.58671 29.507,-1.7271 0.5245,-2.098 2.5776,-7.5975 2.5776,-7.5975 z"
     fill="url(#as)"
     filter="url(#dt)"
     opacity="0.8755"
     id="path616"
     style="fill:url(#as)"
     transform="matrix(0.43116556,0,0,0.43116556,-1192.7807,-45.302928)" />
  <path
     d="m 124.08511,39.610815 c 0.08,0.319817 6.55631,6.876229 6.55631,6.876229 0,0 3.91779,-4.157641 5.27704,-4.717378 1.35925,-0.559737 3.518,-1.599114 3.518,-1.599114 l -11.43365,-5.196836 z"
     fill="url(#ar)"
     id="path618"
     style="fill:url(#ar);stroke-width:0.431166" />
  <path
     d="m 137.75307,40.727533 9.91422,3.917788 5.27703,-3.518007 c 0,0 0.39978,-7.835575 0.0799,-8.075304 -0.31985,-0.23972 -6.71628,-4.717378 -6.71628,-4.717378 0,0 -0.71961,0.959432 -1.11939,3.198171 -0.39978,2.238738 -0.0799,3.438024 -0.47971,3.438024 -0.39978,0 -6.39634,4.557421 -6.39634,4.557421 z"
     fill="url(#aq)"
     id="path620"
     style="fill:url(#aq);stroke-width:0.431166" />
  <path
     d="m 130.63883,31.052181 c 0,0 -6.0803,3.203177 -12.47707,11.358626 -6.39677,8.155449 -9.43175,21.74713 -9.43175,21.74713 l 8.79838,12.786645 2.2367,-1.751612 5.4301,-8.003294 17.27336,-26.058786 -2.85647,-1.14526 c -3.69065,1.440178 -6.7042,3.583417 -9.45891,6.413592 l -1.52258,0.323374 -8.39436,-2.236678 2.83983,-3.008413 c 0.41823,-0.61174 0.83366,-1.228086 1.25646,-1.84056 2.38111,-3.597341 5.70389,-6.777926 8.68583,-8.555182 -0.29505,-0.911406 -1.72375,-0.402298 -2.38025,-0.02937 z"
     fill="url(#ap)"
     id="path622"
     style="fill:url(#ap);stroke-width:0.431166" />
  <path
     d="m 3369.5,218.26 c 0,0 4.4505,-0.74175 2.5961,4.0796 -1.8544,4.82135 -4.4505,4.4505 -12.61,4.4505 -8.1595,0 -38.571,-5.1923 -56.373,-2.2253 -17.802,2.967 -160.22,13.352 -171.34,15.577 -11.12,2.225 -39.313,6.6758 -42.28,8.901 -2.967,2.2252 -22.994,12.61 -22.994,12.61 l 11.126,5.934 c 0,0 3.7088,-1.4835 6.6758,-1.4835 2.967,0 59.34,-14.835 79.368,-16.319 20.028,-1.484 91.235,-8.1593 103.85,-8.901 12.615,-0.7417 59.34,-1.4835 83.076,0 23.736,1.4835 51.181,11.126 60.082,11.868 8.901,0.742 30.606,6.0434 32.704,4.9944 2.098,-1.049 8.9165,-6.8185 8.9165,-6.8185 0,0 0.5245,-4.7205 -2.6225,-4.7205 -3.147,0 1.049,-2.098 -8.392,-2.6225 -9.441,-0.5245 -31.994,-3.6715 -31.994,-3.6715 l -26.225,-17.833 z"
     filter="url(#ds)"
     opacity="0.8797"
     stroke="#000000"
     id="path624"
     transform="matrix(0.43116556,0,0,0.43116556,-1192.7807,-45.302928)" />
  <path
     d="m 138.6154,72.629475 c 0,0 2.71845,-12.472751 4.47722,-16.630487 1.75876,-4.157726 5.59696,-7.835565 5.11707,-10.873989 -0.47989,-3.038424 -3.51797,-5.596961 -5.91645,-5.117073 -2.39849,0.479878 -11.67338,4.957107 -16.31057,13.752019 -3.75881,7.378965 -7.6562,13.631734 -8.31545,23.346758 z"
     fill="url(#ao)"
     id="path626"
     style="fill:url(#ao);stroke-width:0.431166" />
  <path
     d="m 124.34382,39.675492 c 0.31984,0.07992 6.1372,6.41014 6.1372,6.41014 -6.85035,6.530005 -9.68915,13.172103 -12.95263,21.027943 l -6.31658,-8.075295 c 2.5534,-7.834717 4.22714,-12.864692 10.5463,-17.888202 0.94081,-0.747902 1.81379,-1.244174 2.58549,-1.474586 z"
     fill="#808080"
     id="path628"
     style="stroke-width:0.431166" />
  <path
     d="m 265.03314,47.846076 12.15326,-1.119341 16.47053,10.394102 -16.31057,0.159918 z"
     fill="url(#an)"
     id="path630"
     style="fill:url(#an);stroke-width:0.431166" />
  <path
     d="m 3403.1,215.3 c 0,0 -21.233,1.2981 -20.491,0.92718 0.3708,-0.83446 20.213,-2.1325 20.213,-2.1325 z"
     fill="url(#am)"
     filter="url(#dk)"
     id="path632"
     style="fill:url(#am)"
     transform="matrix(0.43116556,0,0,0.43116556,-1192.7807,-45.302928)" />
  <path
     d="m 265.03314,47.764157 -0.3198,2.558536 12.3128,10.554077 v -3.837804 z"
     stroke="#000000"
     id="path634"
     style="stroke-width:0.431166" />
  <path
     d="m 277.01954,58.879611 c 0,-0.319826 -0.58923,-10.238465 -3.67788,-14.87134 -3.03826,-4.557412 -4.79715,-8.715148 -3.43804,-11.67337 1.35913,-2.958231 5.75693,-3.597951 7.83558,-2.558536 2.07865,1.039405 7.84549,6.233791 11.91311,11.753143 7.03748,9.549451 6.15661,18.789328 6.15661,18.789328 0,0 -12.44776,0.69444 -18.70914,0.399771 z"
     fill="url(#al)"
     id="path636"
     style="fill:url(#al);stroke-width:0.431166" />
  <path
     d="m 3088,171.73 c 0,0 2.9483,-0.0318 6.1535,2.7947 3.9779,3.508 6.8185,8.9165 7.343,10.228 0.5245,1.3115 3.5123,-9.1655 3.5123,-9.1655 0,0 3.6134,-3.7483 2.3022,-4.2728 -1.3112,-0.5245 -7.2476,-1.9444 -9.6078,-2.4689 -2.3602,-0.5245 -5.0596,-1.0622 -6.8953,-0.27543 -1.8357,0.78677 -2.8079,3.1602 -2.8079,3.1602 z"
     filter="url(#do)"
     id="path638"
     transform="matrix(0.43116556,0,0,0.43116556,-1192.7807,-45.302928)" />
  <path
     d="m 3106.8,176.72 c 0,0 78.626,-41.167 112.38,-47.472 33.754,-6.305 48.535,-2.2553 60.104,-2.2066 7.571,0.0319 24.455,4.4319 24.455,4.4319 0,0 -22.43,-5.0017 -45.989,-2.8397 -12.402,1.1382 -25.559,2.3679 -41.164,7.0043 -22.183,6.5912 -41.427,15.282 -49.701,19.201 -14.093,6.6758 -50.439,25.22 -54.89,25.59 -4.451,0.37 -5.1922,-3.7088 -5.1922,-3.7088 z"
     fill="url(#ak)"
     filter="url(#dn)"
     id="path640"
     style="fill:url(#ak)"
     transform="matrix(0.43116556,0,0,0.43116556,-1192.7807,-45.302928)" />
  <path
     d="m 3375.1,150.23 c -25.492,-11.3 -55.781,-22.534 -82.474,-30.239 -19.67,-5.6776 -36.268,-3.6367 -53.895,-1.2312 -28.847,4.196 -118.01,45.107 -118.01,45.107 0,0 -14.161,4.7205 -16.259,8.392 -2.098,3.6715 -2.3602,14.424 -2.3602,14.424 -8.633,4.5693 -11.738,7.7206 -16.522,12.326"
     fill="none"
     filter="url(#dr)"
     opacity="0.556"
     stroke="url(#aj)"
     id="path642"
     style="stroke:url(#aj)"
     transform="matrix(0.43116556,0,0,0.43116556,-1192.7807,-45.302928)" />
  <path
     d="m 3392.8,197.12 c -1.4835,0 -33.75,-22.623 -33.75,-22.623 0,0 -8.5301,-8.5302 -10.384,-8.5302 -1.8539,0 -59.34,-21.511 -59.34,-21.511 l -18.915,-1.1126 c 0,0 13.722,-2.2252 15.206,-1.8544 1.484,0.3708 33.008,7.0466 39.684,10.014 6.676,2.9674 27.074,12.981 28.558,13.722 1.484,0.741 24.478,17.06 25.961,17.06 1.483,0 11.126,6.3049 11.126,6.3049 z"
     filter="url(#dp)"
     stroke="#000000"
     id="path644"
     transform="matrix(0.43116556,0,0,0.43116556,-1192.7807,-45.302928)" />
  <path
     d="m 3387.6,173.39 c 0,0 -1.298,2.0398 -1.6689,5.934 -0.3868,4.0612 0.5563,5.0068 0.5563,5.0068 0,0 -25.405,-18.173 -35.048,-22.994 -9.643,-4.821 -48.399,-19.471 -57.3,-20.954 -8.901,-1.483 -58.805,-0.0202 -83.447,8.1593 -44.134,14.65 -85.672,43.392 -85.672,43.392 l -8.5301,7.4175 -5.5632,-4.8214 c 0,0 4.8214,-5.1923 12.61,-6.6758 7.7886,-1.4835 49.326,-25.59 65.274,-32.637 37.342,-16.58 81.497,-20.432 115.71,-14.835 15.206,3.7088 41.909,15.948 45.989,17.802 14.443,6.1183 23.854,10.864 37.088,15.206 z"
     fill="url(#ai)"
     filter="url(#dq)"
     opacity="0.5602"
     id="path646"
     style="fill:url(#ai)"
     transform="matrix(0.43116556,0,0,0.43116556,-1192.7807,-45.302928)" />
  <path
     d="m 3386.6,157.33 c -7.8466,-5.1923 -52.36,-28.604 -71.242,-33.849 -11.089,-3.0802 -19.282,-6.8576 -31.912,-9.4665 -8.8763,-1.8335 -19.944,-3.0899 -35.748,-3.1214 -42.572,-0.085 -81.246,16.484 -112.17,31.08 -5.8596,2.7659 -32.09,13.547 -45.181,27.139"
     fill="none"
     filter="url(#dm)"
     stroke="url(#ah)"
     id="path648"
     style="stroke:url(#ah)"
     transform="matrix(0.43116556,0,0,0.43116556,-1192.7807,-45.302928)" />
  <path
     d="m 132.57908,31.280695 c -3.98204,0.602346 -9.61111,7.382857 -13.28249,10.917982 -4.14065,4.731606 -6.73567,10.762755 -8.08478,16.339012 -0.21206,0 4.84931,-12.833642 6.84087,-13.681744 0.75484,-0.870953 5.41113,-5.429232 6.44506,-5.314546 0,0 4.16032,-5.311094 5.29084,-6.102282 1.13051,-0.791189 2.79024,-2.158069 2.79024,-2.158069 z"
     fill="url(#ag)"
     id="path650"
     style="fill:url(#ag);stroke-width:0.431166" />
  <path
     d="m 3055.5,197.5 c 10.553,-14.611 17.068,-18.771 31.994,-25.241"
     fill="none"
     filter="url(#dl)"
     stroke="url(#af)"
     id="path652"
     style="stroke:url(#af)"
     transform="matrix(0.43116556,0,0,0.43116556,-1192.7807,-45.302928)" />
  <path
     d="m 269.47415,35.700142 c 0,0 1.78976,3.672022 2.6943,5.142087 0.90454,1.470056 3.27915,6.784392 3.73144,8.254229 0.4523,1.469846 1.35684,7.688979 1.80913,7.914909 3.70095,1.491361 9.96984,1.942572 13.68174,1.130727 1.24379,-0.339214 4.40997,-1.696072 4.40997,-1.696072 l 0.33924,3.957536 -18.9963,0.904588 -12.32487,-11.080952 c 0,0 -0.33923,-2.374519 -0.22614,-2.826808 0.1131,-0.452299 0.39702,-0.994746 0.71155,-1.755446 -0.1857,-4.899764 -1.94568,-8.507328 -2.82116,-10.857186 0,0 2.22266,3.906191 3.12725,5.263239 0.90459,1.357048 1.46993,5.088187 1.24378,5.879804 -0.22615,0.791618 -0.79149,1.243783 -0.79149,1.922221 0,0.678439 -0.56535,0.791494 0.22615,1.356886 0.79149,0.565383 9.83747,7.236681 9.83747,7.236681 0,0 -0.67844,-6.558033 -2.60071,-10.628662 -1.92226,-4.070639 -2.82681,-5.879804 -3.166,-6.897362 -0.73902,-1.577332 -0.88518,-3.219723 -0.88518,-3.219723 z"
     id="path654"
     style="stroke-width:0.431166" />
  <path
     d="m 3383.3,217.64 22.067,17.06"
     fill="none"
     filter="url(#dj)"
     stroke="#ffffff"
     stroke-linecap="round"
     stroke-width="1.5"
     id="path656"
     transform="matrix(0.43116556,0,0,0.43116556,-1192.7807,-45.302928)" />
  <path
     d="m 3396.7,176.32 c 3.4334,-2.9182 10.865,-3.5804 13.902,-1.9669 11.369,6.0387 21.404,19.117 28.636,28.204 7.232,9.087 11.883,22.423 12.43,30.524 -6.9463,-20.061 -14.865,-32.788 -22.654,-40.39 -12.87,-11.451 -24.173,-22.697 -33.014,-13.342 -1.6231,1.7174 -2.2159,4.8238 -2.8595,8.8374 -0.8173,-8.1921 0.9929,-9.6858 3.5586,-11.866 z"
     fill="#1a1a1a"
     filter="url(#di)"
     id="path658"
     transform="matrix(0.43116556,0,0,0.43116556,-1192.7807,-45.302928)" />
  <path
     transform="matrix(0.41535903,0,0,0.41535903,-1138.9152,-42.320512)"
     d="m 3410.5,184.83 c 0.5348,0.69686 0.8584,1.5653 0.8584,2.5116 0,2.2839 -1.849,4.1329 -4.1329,4.1329 -1.9262,0 -3.5143,-1.3329 -3.974,-3.1156 0.1183,2.3256 2.0323,4.1647 4.3873,4.1647 2.4312,0 4.3872,-1.956 4.3872,-4.3873 0,-1.3224 -0.6029,-2.4994 -1.526,-3.3064 z"
     filter="url(#n)"
     id="path660" />
  <path
     d="m 278.09746,35.615877 c 0,0.967968 -0.78468,1.752652 -1.75261,1.752652 -0.96795,0 -1.75264,-0.784684 -1.75264,-1.752652 0,-0.967967 0.78469,-1.752642 1.75264,-1.752642 0.96797,0 1.75261,0.784675 1.75261,1.752642 z"
     fill="url(#f)"
     opacity="0.6183"
     id="path662"
     style="fill:url(#radialGradient1551);stroke-width:0.431166" />
  <path
     transform="matrix(0.41535903,0,0,0.41535903,-1273.4389,-31.821242)"
     d="m 3410.5,184.83 c 0.5348,0.69686 0.8584,1.5653 0.8584,2.5116 0,2.2839 -1.849,4.1329 -4.1329,4.1329 -1.9262,0 -3.5143,-1.3329 -3.974,-3.1156 0.1183,2.3256 2.0323,4.1647 4.3873,4.1647 2.4312,0 4.3872,-1.956 4.3872,-4.3873 0,-1.3224 -0.6029,-2.4994 -1.526,-3.3064 z"
     filter="url(#n)"
     id="path664" />
  <path
     d="m 143.56086,46.114948 c 0,0.967967 -0.78467,1.752652 -1.7526,1.752652 -0.96796,0 -1.75265,-0.784685 -1.75265,-1.752652 0,-0.967968 0.78469,-1.752643 1.75265,-1.752643 0.96796,0 1.7526,0.784675 1.7526,1.752643 z"
     fill="url(#f)"
     opacity="0.6183"
     id="path666"
     style="fill:url(#radialGradient1553);stroke-width:0.431166" />
  <path
     d="m 111.10703,58.931347 6.44506,8.028299 c 0,0 1.92223,-4.862248 3.95755,-8.932887 2.03531,-4.070629 3.84448,-6.332093 3.84448,-6.332093 0,0 -1.46997,-0.113075 -2.03532,-0.678438 -0.56534,-0.565373 -0.11309,-2.600669 0.11306,-4.070639 0.22614,-1.46997 1.13073,-5.201147 1.13073,-5.201147 0,0 -1.46993,0.565345 -2.71376,1.469932 -1.24383,0.904578 -2.93986,2.035315 -2.93986,2.035315 0.75321,-2.113142 2.78417,-3.032264 4.52293,-4.296779 l 0.22615,-0.904587 c -4.26234,2.126503 -6.83527,5.664221 -9.0174,9.893958 -1.04342,2.02225 -3.53353,8.989371 -3.53353,8.989371 z"
     fill="url(#ae)"
     id="path668"
     style="fill:url(#ae);stroke-width:0.431166" />
  <path
     transform="matrix(0.39822882,0,0,0.39822882,-1092.9012,-37.075431)"
     d="m 3024.9,239.22 15.762,16.875 -1.4835,4.2651 -15.02,-18.915 z"
     filter="url(#dh)"
     id="path670" />
  <path
     d="m 3019.5,250.29 c 0.7417,0 10.045,1.9087 12.271,4.6903 2.226,2.7816 9.6428,9.2719 9.6428,9.2719 9.2163,-19.015 16.504,-40.116 33.286,-53.87 4.5421,-3.7143 11.342,-9.0669 14.371,-10.014 l 4.4505,-1.3908 c -14.593,8.8717 -23.151,16.845 -32.03,31.85 -6.3491,10.701 -11.599,23.339 -13.031,27.305 -2.4107,6.6758 -4.2651,17.617 -4.2651,17.617 0,0 8.901,-0.18544 14.279,-1.4835 5.378,-1.29806 13.722,-1.2981 20.769,-4.4505 7.047,-3.1524 11.411,-6.142 11.411,-6.142 l -1.3881,10.977 -51.203,10.887 -19.652,-31.613 z"
     filter="url(#dg)"
     id="path672"
     transform="matrix(0.43116556,0,0,0.43116556,-1192.7807,-45.302928)" />
  <path
     d="m 124.3151,39.575921 c 0,-0.244574 -4.76494,2.353425 -7.75382,6.730358 -1.47248,2.156286 -2.85954,5.200813 -3.84005,7.801406 -0.49028,1.300286 -0.87945,2.491551 -1.14531,3.381948 -0.13293,0.445204 -0.23106,0.810033 -0.29642,1.09139 -0.0328,0.140682 -0.0661,0.265334 -0.0809,0.363799 0.0519,0.413504 0.28284,0.219951 0.63325,0.134742 0.0238,0.09393 0.005,0.03042 0.0134,-0.04044 0.0108,-0.07086 0.0238,-0.179602 0.0539,-0.309899 0.0606,-0.260595 0.16612,-0.628028 0.29642,-1.064439 0.26064,-0.872821 0.64683,-2.041819 1.1318,-3.328058 2.75011,-8.615081 7.02327,-11.794064 10.9877,-14.76084 z"
     id="path674"
     style="stroke-width:0.431166" />
</svg>
