<?xml version="1.0" encoding="UTF-8" standalone="no"?>
<svg
   xmlns:dc="http://purl.org/dc/elements/1.1/"
   xmlns:cc="http://creativecommons.org/ns#"
   xmlns:rdf="http://www.w3.org/1999/02/22-rdf-syntax-ns#"
   xmlns:svg="http://www.w3.org/2000/svg"
   xmlns="http://www.w3.org/2000/svg"
   xmlns:sodipodi="http://sodipodi.sourceforge.net/DTD/sodipodi-0.dtd"
   xmlns:inkscape="http://www.inkscape.org/namespaces/inkscape"
   id="svg2"
   inkscape:version="1.0.2-2 (e86c870879, 2021-01-15)"
   viewBox="0 0 324.20679 462.36309"
   version="1.1"
   sodipodi:docname="puzzle.svg"
   width="85.779716mm"
   height="122.33357mm">
  <defs
     id="defs25" />
  <sodipodi:namedview
     id="base"
     bordercolor="#666666"
     inkscape:pageshadow="2"
     inkscape:window-y="-8"
     pagecolor="#ffffff"
     inkscape:window-height="1017"
     inkscape:window-maximized="1"
     inkscape:zoom="1.4"
     inkscape:window-x="-8"
     showgrid="false"
     borderopacity="1.0"
     inkscape:current-layer="layer1"
     inkscape:cx="23.095139"
     inkscape:cy="239.16036"
     inkscape:window-width="1920"
     inkscape:pageopacity="0.0"
     inkscape:document-units="px"
     inkscape:document-rotation="0"
     units="mm" />
  <g
     id="layer1"
     inkscape:label="Layer 1"
     inkscape:groupmode="layer"
     transform="translate(-5.5887171,-2.7669501)"
     style="display:inline">
    <path
       id="path4531"
       style="display:inline;fill:#fdffe4;fill-opacity:1;stroke:#000000;stroke-width:0;stroke-miterlimit:4;stroke-dasharray:none"
       inkscape:connector-curvature="0"
       inkscape:label="innerborder"
       d="m 6.49654,17.736489 c 0,-6.90297 6.90297,-13.8059405 13.80594,-13.8059405 h 294.52674 c 6.90297,0 13.80593,6.9029705 13.80593,13.8059405 V 450.32264 c 0,6.90295 -6.90296,13.80594 -13.80593,13.80594 H 20.30248 c -6.90297,0 -13.80594,-6.90299 -13.80594,-13.80594 V 17.736489" />
    <path
       d="m 91.184168,160.76695 v -23.3097 c 0,0 0.922311,-4.49481 3.964123,-6.48083 3.041813,-1.98604 39.583789,-25.57628 41.081879,-26.64127 1.49808,-1.06497 5.12674,-0.26625 6.35916,-0.93155 0.92787,-0.96366 0.52383,-3.524307 2.38388,-4.887042 L 181.27183,74.91772 c 1.50051,-1.241661 4.46512,-1.549947 5.83222,0.0019 l 38.1525,33.3834 c 1.21385,1.11629 0.1501,5.17925 1.0996,6.23437 1.06625,1.18732 5.62403,0.41141 6.85338,1.18979 l 38.15121,33.91098 c 1.50487,1.76431 1.01374,5.65741 2.1195,6.88921 1.67411,1.81623 5.74512,0.5733 7.95171,2.12384 l 41.33267,37.62122 c 1.24107,1.32075 1.55116,4.77154 0.52942,6.35915 l -48.61784,101.0836 -30.31068,22.89456 c -0.58749,0.43305 -2.32707,0.11053 -2.95222,0.6196 -0.40833,0.36509 0.18472,1.86131 -0.43119,2.34005 l -18.31269,14.5364 4.73696,22.77533 c 0.11541,1.4851 -0.36693,2.97079 -1.08971,3.73866 l -37.62552,29.67627 c -2.58161,2.09483 -5.46032,1.8551 -7.32406,0.47875 l -39.35404,-23.55307 c -2.2437,-0.88524 -2.10837,-2.74592 -3.28523,-3.38098 -1.41032,-0.48491 -2.57667,1.5135 -3.86716,0.72896 L 96.34245,351.46072 c -1.614819,-1.1132 -0.908727,-3.66327 -3.020825,-4.52811 -2.236892,-0.3194 -2.534663,1.66547 -4.972289,0 L 62.037352,331.40472 c -0.9427,-0.46207 -2.125659,-1.76002 -2.649561,-3.17958 l -12.82027,-37.60823 c -0.604779,-1.35348 0.984101,-3.16595 0.560312,-4.39965 -0.2823,-1.17433 -2.659427,-2.12812 -3.180856,-3.78127 L 30.712222,239.76156 c -0.691271,-1.78842 1.36897,-4.45152 0.927879,-6.11516 -1.068101,-2.2369 -3.511304,-1.22191 -4.578147,-3.4588 L 12.723902,184.26874 c -1.333122,-2.87256 -0.505355,-5.40164 1.089696,-6.54449 l 42.393954,-26.4967 c 1.810663,-0.93158 4.019082,-0.66535 5.829745,0 l 24.906621,10.06938 c 2.210938,1.01995 4.157494,0.97665 4.24025,-0.53067 z"
       fill="#1a1a1a"
       id="path2"
       style="stroke-width:5.50604" />
    <path
       d="m 211.31051,162.12913 c 17.17499,15.51656 18.96996,19.22818 -1.18919,1.31028 -20.15916,-17.91793 -22.20972,-22.24715 1.18919,-1.31028 z"
       fill="#4d4d4d"
       id="path4"
       style="stroke-width:5.50604" />
    <path
       d="m 139.39952,171.17169 a 1.66674,2.7080462 0 1 0 -3.33348,0 1.66674,2.7080462 0 1 0 3.33348,0"
       fill="#808080"
       id="path6"
       style="stroke-width:5.50604" />
    <path
       d="m 234.5934,181.8303 a 1.6667359,2.7080397 0 1 0 -3.33346,0 1.6667359,2.7080397 0 1 0 3.33346,0"
       fill="#999999"
       id="path8"
       style="stroke-width:5.50604" />
    <path
       d="m 261.67425,207.37226 c 15.23961,13.76894 16.83252,17.06211 -1.05573,1.16259 -17.88824,-15.89951 -19.70777,-19.74079 1.05573,-1.16259 z"
       fill="#4d4d4d"
       id="path10"
       style="stroke-width:5.50604" />
    <path
       d="m 285.15591,226.83665 a 1.6667385,2.7080438 0 1 0 -3.33347,0 1.6667385,2.7080438 0 1 0 3.33347,0"
       fill="#808080"
       id="path12"
       style="stroke-width:5.50604" />
    <path
       d="m 237.09368,263.09171 a 1.6667329,2.7080349 0 1 0 -3.33344,0 1.6667329,2.7080349 0 1 0 3.33344,0"
       fill="#666666"
       id="path14"
       style="stroke-width:5.50604" />
    <path
       d="m 216.38709,244.46092 c 15.24015,13.76841 16.83304,17.06158 -1.05513,1.16261 -17.88819,-15.89897 -19.70777,-19.7408 1.05513,-1.16261 z"
       fill="#666666"
       id="path16"
       style="stroke-width:5.50604" />
    <path
       d="m 186.66995,137.40811 a 1.6667361,2.70804 0 1 0 -3.33347,0 1.6667361,2.70804 0 1 0 3.33347,0"
       fill="#808080"
       id="path18"
       style="stroke-width:5.50604" />
    <path
       d="m 164.12927,118.58463 c 15.24016,13.7684 16.83306,17.06211 -1.05512,1.16259 -17.88818,-15.89952 -19.70776,-19.74079 1.05512,-1.16259 z"
       fill="#333333"
       id="path20"
       style="stroke-width:5.50604" />
    <path
       d="m 117.60875,153.84806 c 15.24016,13.76894 16.83307,17.0621 -1.05511,1.1626 -17.888185,-15.89952 -19.707773,-19.74081 1.05511,-1.1626 z"
       fill="#333333"
       id="path22"
       style="stroke-width:5.50604" />
    <path
       d="m 144.19972,236.06753 a 2.6176807,2.7080349 0 1 0 -5.23536,0 2.6176807,2.7080349 0 1 0 5.23536,0"
       fill="#808080"
       id="path24"
       style="stroke-width:5.50604" />
    <path
       d="m 96.130301,214.94085 a 1.6667361,2.70804 0 1 0 -3.333467,0 1.6667361,2.70804 0 1 0 3.333467,0"
       fill="#808080"
       id="path26"
       style="stroke-width:5.50604" />
    <path
       d="m 52.611832,196.46479 a 1.6667329,1.989662 0 1 0 -3.33345,0 1.6667329,1.989662 0 1 0 3.33345,0"
       fill="#808080"
       id="path28"
       style="stroke-width:5.50604" />
    <path
       d="m 69.868696,253.48972 a 1.6667358,1.9896653 0 1 0 -3.333467,0 1.6667358,1.9896653 0 1 0 3.333467,0"
       fill="#666666"
       id="path30"
       style="stroke-width:5.50604" />
    <path
       d="m 158.62478,294.43319 a 2.1648641,2.2395811 0 1 0 -4.32968,0 2.1648641,2.2395811 0 1 0 4.32968,0"
       fill="#666666"
       id="path32"
       style="stroke-width:5.50604" />
    <path
       d="m 174.7927,349.78044 a 2.1648641,2.2395811 0 1 0 -4.32967,0 2.1648641,2.2395811 0 1 0 4.32967,0"
       fill="#4d4d4d"
       id="path34"
       style="stroke-width:5.50604" />
    <path
       d="m 127.89007,328.52163 a 2.1648641,2.2395811 0 1 0 -4.32968,0 2.1648641,2.2395811 0 1 0 4.32968,0"
       fill="#4d4d4d"
       id="path36"
       style="stroke-width:5.50604" />
    <path
       d="m 84.526481,306.18636 a 1.3673696,1.4145563 0 1 0 -2.73467,0 1.3673696,1.4145563 0 1 0 2.73467,0"
       fill="#333333"
       id="path38"
       style="stroke-width:5.50604" />
    <path
       d="m 113.02007,274.11591 a 1.6667329,1.989662 0 1 0 -3.33345,0 1.6667329,1.989662 0 1 0 3.33345,0"
       fill="#666666"
       id="path40"
       style="stroke-width:5.50604" />
    <path
       d="m 120.0424,225.21732 c 15.03591,6.35837 17.09186,8.41543 -0.48924,1.14839 -17.58111,-7.26703 -19.94949,-9.67575 0.48924,-1.14839 z"
       fill="#666666"
       id="path42"
       style="stroke-width:5.50604" />
    <path
       d="m 73.769678,206.45824 c 15.035881,6.35837 17.091832,8.41488 -0.489281,1.1484 -17.581113,-7.26648 -19.949466,-9.67576 0.489281,-1.1484 z"
       fill="#666666"
       id="path44"
       style="stroke-width:5.50604" />
    <path
       d="m 32.778706,188.47882 c 12.344585,5.22067 14.032256,6.90899 -0.401565,0.9427 -14.433808,-5.96629 -16.378475,-7.94368 0.401565,-0.9427 z"
       fill="#666666"
       id="path46"
       style="stroke-width:5.50604" />
    <path
       d="m 102.89496,129.31589 34.29645,-21.73939 c 1.46902,-0.93155 3.50884,-0.79814 4.82837,0.36512 l 33.92083,29.93077 c 1.3195,1.16388 1.16567,3.13327 -0.25945,4.12353 l -33.7942,23.49069 c -1.42204,0.98778 -3.53542,0.82529 -4.82835,-0.36512 l -34.42308,-31.68212 c -1.29361,-1.19163 -1.21018,-3.19191 0.25943,-4.12348 z"
       fill="#ffff25"
       id="path48"
       style="stroke-width:5.50604" />
    <path
       d="M 150.39887,98.610869 181.98338,77.77342 c 1.35845,-0.896366 3.28643,-0.748701 4.51765,0.34161 l 32.73416,29.00046 c 1.2312,1.09036 1.10517,2.95719 -0.24276,3.85786 l -32.11578,21.4762 c -1.34425,0.89947 -3.30809,0.77156 -4.517,-0.3416 l -32.20349,-29.63923 c -1.21018,-1.11447 -1.1157,-2.961526 0.24276,-3.857914 z"
       fill="#2a4bb7"
       id="path50"
       style="stroke-width:5.50604" />
    <path
       d="m 198.16981,141.37907 31.0841,-21.08703 c 1.34675,-0.91427 3.27968,-0.74065 4.517,0.3416 l 33.98508,29.75167 c 1.23737,1.08231 1.07429,2.91269 -0.24276,3.85786 l -30.61528,21.97597 c -1.31334,0.94208 -3.28951,0.74932 -4.51699,-0.34226 l -34.45337,-30.63995 c -1.22873,-1.09218 -1.10457,-2.94358 0.24217,-3.85786 z"
       fill="#f03031"
       id="path52"
       style="stroke-width:5.50604" />
    <path
       d="m 244.94139,184.39609 31.08413,-23.08851 c 1.30778,-0.97111 3.305,-0.76418 4.51765,0.3416 l 36.73475,33.50573 c 1.21324,1.10577 1.04835,2.88615 -0.24277,3.85786 l -29.8647,22.47509 c -1.28802,0.96929 -3.27778,0.73264 -4.51699,-0.34159 l -37.95477,-32.89231 c -1.23919,-1.07427 -1.06503,-2.88615 0.24275,-3.85787 z"
       fill="#2ac44b"
       id="path54"
       style="stroke-width:5.50604" />
    <path
       d="m 149.90001,173.64337 34.08458,-24.3389 c 1.32509,-0.94577 3.28216,-0.74006 4.51766,0.34158 l 36.23618,31.75257 c 1.23488,1.08166 1.03414,2.86699 -0.24278,3.85787 l -25.11352,19.47469 c -1.27197,0.98656 -3.58052,1.00258 -4.51699,-0.3416 -2.96155,-4.25017 -5.70432,-6.87314 -9.63513,-8.25009 l -26.92542,-9.43493 -8.64733,-9.20328 c -1.12368,-1.19656 -1.08233,-2.91209 0.24275,-3.85786 z"
       fill="#2a4bb7"
       id="path56"
       style="stroke-width:5.50604" />
    <path
       d="m 198.09712,219.32477 34.29645,-25.491 c 1.39611,-1.03782 3.50387,-0.78948 4.82895,0.36513 l 37.1721,32.4327 c 1.32509,1.15522 1.10023,3.04986 -0.25944,4.12353 l -33.54466,26.49175 c -1.35536,1.06993 -3.51191,0.79629 -4.82835,-0.3657 l -37.92388,-33.43283 c -1.31893,-1.16321 -1.13666,-3.08631 0.25883,-4.12353 z"
       fill="#ffff25"
       id="path58"
       style="stroke-width:5.50604" />
    <path
       d="m 276.38638,241.14628 -11.712,26.04947 c -0.39846,0.88708 -0.766,1.64818 -1.66111,2.37465 l -31.04587,25.18456 c -0.89572,0.72706 -2.61679,0.28911 -2.35916,-0.59675 l 6.39439,-22.03406 c 0.25634,-0.8828 0.76291,-1.65315 1.66111,-2.37465 l 36.36347,-29.20001 c 0.90007,-0.72217 2.75765,-0.29034 2.35917,0.59674 z"
       fill="#284299"
       id="path60"
       style="stroke-width:5.50604" />
    <path
       d="m 319.65558,207.88101 -13.21189,26.29965 c -0.44356,0.88218 -0.75489,1.65682 -1.6618,2.37524 l -29.29635,23.18247 c -0.90746,0.71843 -2.74471,0.28415 -2.35916,-0.59675 l 11.39693,-26.03459 c 0.38487,-0.87782 0.7351,-1.67719 1.66111,-2.37463 l 31.11195,-23.44808 c 0.92847,-0.69933 2.80212,-0.28605 2.35916,0.59674 z"
       fill="#b3b3b3"
       id="path62"
       style="stroke-width:5.50604" />
    <path
       d="m 301.89751,244.89812 -13.21378,27.05016 c -0.43183,0.88339 -0.71287,1.68953 -1.66177,2.37464 l -25.5429,18.4313 c -0.94885,0.68573 -2.73975,0.28538 -2.35856,-0.59674 l 9.39538,-21.78386 c 0.37992,-0.87971 0.766,-1.65188 1.66179,-2.37465 l 29.36061,-23.69706 c 0.89638,-0.72398 2.79041,-0.28725 2.35919,0.59615 z"
       fill="#b3b3b3"
       id="path64"
       style="stroke-width:5.50604" />
    <path
       d="m 261.38022,277.16183 -11.46121,23.54878 c -0.43055,0.88398 -0.82099,1.61234 -1.66177,2.37465 l -24.46365,19.58652 c -0.84138,0.76291 -2.60138,0.28664 -2.35919,-0.59613 l 5.31335,-18.43747 c 0.25387,-0.87971 0.76726,-1.65374 1.66177,-2.37465 l 30.61154,-24.69844 c 0.89758,-0.72337 2.7898,-0.28725 2.35916,0.59674 z"
       fill="#1d8a35"
       id="path66"
       style="stroke-width:5.50604" />
    <path
       d="m 283.90048,281.51107 -10.62414,20.76888 c -0.3793,0.74133 -0.60664,1.41655 -1.39859,1.99908 l -23.5018,17.26621 c -0.79193,0.58194 -2.31843,0.23846 -1.98548,-0.5022 l 8.90988,-19.83733 c 0.33173,-0.73885 0.6023,-1.42512 1.39858,-1.99908 l 25.21545,-18.19778 c 0.79689,-0.5745 2.36539,-0.23967 1.9861,0.50227 z"
       fill="#b34322"
       id="path68"
       style="stroke-width:5.50604" />
    <path
       d="m 246.145,309.9971 -7.05656,18.40476 c -0.2261,0.5887 -0.50905,1.08788 -1.09837,1.56971 l -14.17622,11.1906 c -0.5887,0.48183 -1.4536,0.14279 -1.55981,-0.39413 l -2.22328,-11.26228 c -0.10565,-0.53496 0.2335,-0.81605 0.82101,-1.29357 l 23.73349,-18.60921 c 0.59863,-0.46951 1.82179,-0.19211 1.55983,0.39412 z"
       fill="#b3b31a"
       id="path70"
       style="stroke-width:5.50604" />
    <path
       d="m 229.94294,285.40934 c -4.03018,13.94073 -5.73507,15.99946 -1.1861,-0.2792 4.54898,-16.27866 6.55218,-18.65558 1.1861,0.2792 z"
       fill="#666666"
       id="path72"
       style="stroke-width:5.50604" />
    <path
       d="m 162.17462,286.57276 35.48626,-26.18226 c 1.3998,-1.03287 2.40922,-2.66376 2.05464,-4.38479 l -9.18105,-43.70979 c -0.35955,-1.71861 -2.1152,-2.45742 -3.7189,-1.80074 l -37.75462,27.00325 c -1.40106,1.00259 -2.41973,2.66745 -2.05464,4.38478 l 11.44943,42.8888 c 0.44605,1.69756 2.31963,2.83424 3.71888,1.80075 z"
       fill="#ffff25"
       id="path74"
       style="stroke-width:5.50604" />
    <path
       d="m 177.54804,342.99756 33.72008,-24.98322 c 1.39798,-1.03536 2.40922,-2.66378 2.05463,-4.38481 l -9.72158,-40.78411 c -0.40583,-1.70619 -2.1158,-2.45678 -3.71887,-1.80074 l -34.61212,24.662 c -1.39799,0.99643 -2.41913,2.66745 -2.05465,4.38479 l 10.61302,41.10593 c 0.43861,1.69575 2.31963,2.83424 3.71949,1.80016 z"
       fill="#2ac44b"
       id="path76"
       style="stroke-width:5.50604" />
    <path
       d="m 191.70903,395.92764 31.88903,-25.14504 c 1.22317,-0.96433 2.14732,-2.40366 1.83104,-3.95667 l -9.3454,-39.66969 c -0.29589,-1.55552 -1.88598,-2.21712 -3.31486,-1.62468 l -33.38894,24.80035 c -1.23369,0.91614 -2.15596,2.40675 -1.83105,3.9567 l 10.84592,40.01437 c 0.41389,1.52401 2.09169,2.58899 3.31426,1.62466 z"
       fill="#ffff25"
       id="path78"
       style="stroke-width:5.50604" />
    <path
       d="m 182.4831,201.85301 -38.21053,26.89886 c -1.26458,0.89082 -3.30748,1.18236 -4.93584,0.61712 l -35.32811,-15.06761 c -1.55116,-0.6616 -1.8959,-1.92491 -0.81237,-2.91765 l 35.90014,-25.33035 c 1.25278,-0.8834 3.31366,-1.18793 4.93584,-0.61713 l 37.63911,13.49916 c 1.61482,0.58007 2.07628,2.02748 0.81176,2.91764 z"
       fill="#2a4bb7"
       id="path80"
       style="stroke-width:5.50604" />
    <path
       d="m 132.50259,183.13741 -36.06631,25.11357 c -1.193489,0.83151 -3.121546,1.1033 -4.659121,0.57635 l -33.345097,-14.0681 c -1.464075,-0.61777 -1.789645,-1.79704 -0.766021,-2.72428 l 33.884444,-23.64887 c 1.182363,-0.82529 3.128322,-1.10947 4.65911,-0.57636 l 35.526395,12.60342 c 1.524,0.54114 1.96015,1.89215 0.76666,2.72427 z"
       fill="#f03031"
       id="path82"
       style="stroke-width:5.50604" />
    <path
       d="m 84.943073,165.73615 -34.043785,23.26957 c -1.097127,0.74996 -2.842921,1.00445 -4.24273,0.52444 L 20.293315,178.72069 c -1.342969,-0.54977 -1.629627,-1.63638 -0.698052,-2.48024 L 54.05481,153.90432 c 1.113807,-0.72217 2.848424,-1.01003 4.242131,-0.52511 l 25.94813,9.87663 c 1.364013,0.51955 1.795193,1.73033 0.698058,2.48031 z"
       fill="#ffff25"
       id="path84"
       style="stroke-width:5.50604" />
    <path
       d="m 102.54753,224.60009 32.8015,13.6579 c 1.24725,0.51955 2.44755,2.14483 2.83799,3.87393 l 10.46164,42.04862 c 0.42997,1.72604 -0.44665,2.75644 -1.67907,2.40862 l -31.629,-15.22577 c -1.23054,-0.59246 -2.45497,-2.1467 -2.83731,-3.87335 l -11.63476,-40.48078 c -0.49294,-1.71611 0.43118,-2.95845 1.67907,-2.40922 z"
       fill="#cccccc"
       id="path86"
       style="stroke-width:5.50604" />
    <path
       d="m 121.26146,284.01024 29.49464,14.18917 c 1.24663,0.59983 2.44754,2.14483 2.83732,3.87394 l 10.71182,39.18352 c 0.47138,1.72415 -0.44604,2.75704 -1.67846,2.40922 L 132.01893,328.8474 c -1.23241,-0.59674 -2.45498,-2.14669 -2.83731,-3.87332 l -9.59929,-38.55461 c -0.42869,-1.7229 0.43179,-2.95846 1.67908,-2.40923 z"
       fill="#c02627"
       id="path88"
       style="stroke-width:5.50604" />
    <path
       d="m 134.95884,337.10883 31.00257,15.18004 c 1.12675,0.55165 2.21216,1.9379 2.56492,3.5008 l 9.90751,38.67198 c 0.39968,1.55799 -0.40336,2.49142 -1.51717,2.17759 l -31.39738,-19.18435 c -1.10021,-0.67273 -2.21898,-1.93972 -2.56492,-3.50079 l -9.51279,-34.66834 c -0.42561,-1.55182 0.38983,-2.67363 1.51719,-2.17699 z"
       fill="#2a4bb7"
       id="path90"
       style="stroke-width:5.50604" />
    <path
       d="m 58.754597,206.2281 29.880109,12.80539 c 1.11631,0.47813 2.19057,1.91936 2.539612,3.46682 l 11.503812,40.13919 c 0.4417,1.5413 -0.39969,2.46671 -1.50237,2.15595 L 71.177041,250.27513 c -1.099599,-0.53308 -2.196746,-1.9206 -2.538944,-3.46621 L 57.252272,208.38405 c -0.454687,-1.53575 0.386082,-2.6477 1.502376,-2.15595 z"
       fill="#2a4bb7"
       id="path92"
       style="stroke-width:5.50604" />
    <path
       d="m 18.065637,188.89728 27.818038,11.77627 c 1.018673,0.43117 1.998417,1.75134 2.317227,3.16348 l 11.437076,39.10076 c 0.410807,1.40475 -0.364484,2.2517 -1.37139,1.96753 L 30.905049,231.30237 c -1.001991,-0.4979 -2.005235,-1.75257 -2.317221,-3.16288 L 16.694843,190.86422 c -0.444767,-1.39552 0.35212,-2.4154 1.370794,-1.96694 z"
       fill="#229d3c"
       id="path94"
       style="stroke-width:5.50604" />
    <path
       d="m 75.383496,261.81817 29.902954,14.75441 c 1.17747,0.58068 2.31039,2.02442 2.67858,3.65649 l 10.26398,37.34197 c 0.44786,1.62654 -0.42131,2.60199 -1.58452,2.27395 L 86.63833,304.77798 c -1.161992,-0.58441 -2.317209,-2.02622 -2.678571,-3.65651 L 73.798309,264.0921 c -0.444795,-1.62224 0.407104,-2.79222 1.585126,-2.27393 z"
       fill="#c02627"
       id="path96"
       style="stroke-width:5.50604" />
    <path
       d="m 35.836594,242.4358 26.203231,12.72452 c 1.176802,0.57142 2.310384,2.0244 2.678579,3.6565 l 10.129901,36.69951 c 0.449745,1.62655 -0.421312,2.60198 -1.584524,2.27393 L 48.199622,284.9385 c -1.158915,-0.59485 -2.317807,-2.02681 -2.679173,-3.65709 L 34.251402,244.70975 c -0.497315,-1.61483 0.407723,-2.79288 1.585136,-2.27395 z"
       fill="#2a4bb7"
       id="path98"
       style="stroke-width:5.50604" />
    <path
       d="m 91.045426,315.49598 29.460664,14.33867 c 1.14592,0.5578 2.24923,1.97126 2.60816,3.56009 l 10.37641,35.89827 c 0.4571,1.58144 -0.41023,2.53338 -1.54315,2.21402 l -30.9241,-18.68578 c -1.121864,-0.67828 -2.256649,-1.97247 -2.608158,-3.56011 l -8.912964,-31.55113 c -0.445381,-1.57715 0.396621,-2.7187 1.543138,-2.21403 z"
       fill="#cccccc"
       id="path100"
       style="stroke-width:5.50604" />
    <path
       d="m 52.330596,295.949 24.645298,11.99121 c 1.176807,0.57268 2.310388,2.02439 2.678584,3.6565 l 8.572562,30.65174 c 0.454686,1.62465 -0.421322,2.60199 -1.584529,2.27393 l -23.232502,-13.8587 c -1.150266,-0.68693 -2.317222,-2.02622 -2.678584,-3.6571 L 50.74546,298.22293 c -0.555352,-1.60181 0.407726,-2.79289 1.585136,-2.27393 z"
       fill="#ffff25"
       id="path102"
       style="stroke-width:5.50604" />
    <path
       d="m 164.67437,221.42917 c -15.17685,10.27812 -18.37089,10.95756 -0.78269,-1.1626 17.58823,-12.12017 21.30396,-12.87972 0.78269,1.1626 z"
       fill="#666666"
       id="path104"
       style="stroke-width:5.50604" />
    <g
       id="g3130"
       style="display:inline;stroke:#000000;stroke-width:4"
       inkscape:label="Jigsaw:X5:Y5"
       transform="matrix(0.46052101,0,0,0.46052101,6.6442313,73.323374)">
      <g
         id="g4190"
         style="stroke:#000000;stroke-width:4"
         inkscape:label="Jigsaw:X5:Y5"
         transform="translate(22.047,176.18)">
        <g
           id="g4513"
           style="stroke:#000000;stroke-width:4"
           inkscape:label="Jigsaw:X6:Y8"
           transform="translate(-22.339,-327.39)">
          <g
             id="g4515"
             style="stroke:#000000;stroke-width:4"
             inkscape:label="X_Gridlines">
            <path
               id="XDiv1"
               style="fill:none;stroke:#000000;stroke-width:4"
               inkscape:connector-curvature="0"
               d="m 583.33,0 c 0,0 16.069,22.064 7.7864,40.684 -8.2824,18.62 -11.708,-0.22509 -30.846,0.31493 -19.138,0.54002 -11.943,36.352 3.8315,38.549 15.774,2.1963 18.022,-11.199 27.012,4.7715 8.989,15.97 1.9781,63.346 -5.875,82.26 -7.8531,18.913 -1.7719,-3.3414 -20.637,-2.1151 -18.8651,1.2263 -19.179,41.032 -4.4929,42.234 14.686,1.2025 18.107,-15.321 25.568,-0.83638 7.4605,14.484 -13.338,70.058 -4.7857,88.408 8.5521,18.35 6.7298,-1.9559 25.541,-0.64207 18.8112,1.31383 10.614,35.019 -5.7531,37.399 -16.367,2.3807 -15.21,-15.961 -22.039,-1.5926 -6.8297,14.369 18.959,74.052 9.8496,91.146 -9.1095,17.094 -4.4553,-2.0478 -23.26,-0.724 -18.804,1.3238 -15.715,37.541 0.41719,39.869 16.132,2.3276 12.843,-15.633 19.602,-1.2669 6.7593,14.366 -15.319,68.177 -7.4568,87.085 7.8622,18.908 11.911,-4.9639 28.837,-2.5515 16.926,2.4124 10.177,39.142 -5.8408,41.434 -16.018,2.2925 -16.566,-19.065 -24.216,-4.5103 -7.6492,14.554 19.966,67.459 10.84,84.367 -9.1264,16.908 -1.8835,2.7044 -21.007,3.3059 -19.123,0.60147 -15.801,39.657 -0.40816,41.634 15.392,1.9769 16.498,-13.366 24.065,1.1552 7.5661,14.521 -16.2,63.137 -8.5483,82.146 7.6521,19.009 1.7424,1.5156 20.597,2.7588 18.855,1.2433 15.252,32.525 -0.14747,34.507 -15.4,1.982 -17.373,-14.734 -26.156,0.80143 -8.783,15.53543 17.617,68.334 9.3411,86.96 -8.2754,18.626 -3.0433,1.6507 -21.811,3.0288 -18.7677,1.3781 -13.004,39.307 1.4286,39.87 14.432,0.5629 12.783,-21.993 21.89,-5.543 9.11,16.44 -3.33,45.08 -3.33,45.08" />
            <path
               id="XDiv2"
               style="fill:none;stroke:#000000;stroke-width:4"
               inkscape:connector-curvature="0"
               d="m 466.67,0 c 0,0 -14.485,20.783 -6.1165,39.326 8.3681,18.543 10.384,3.1647 28.964,4.78 18.58,1.6152 11.687,33.425 -4.1081,35.63 -15.795,2.2058 -18.149,-12.65 -26.995,2.9975 -8.8468,15.648 -3.4524,62.481 4.1035,81.528 7.5559,19.047 10.568,0.82823 27.51,3.2396 16.942,2.41137 14.589,38.345 -0.0634,39.486 -14.652,1.1413 -19.733,-12.678 -28.847,3.8312 -9.1141,16.509 22.538,62.776 13.699,80.706 -8.8398,17.93 -13.993,-0.82305 -31.438,1.501 -17.445,2.32405 -10.535,42.611 3.8355,42.762 14.37,0.15063 18.763,-17.999 27.612,-2.3479 8.8487,15.651 -22.319,68.431 -14.018,87.035 8.3007,18.604 4.0322,-2.3914 23.121,-1.6694 19.089,0.72206 17.458,33.742 1.1569,36.11 -16.301,2.3683 -12.973,-9.8727 -21.41,5.2166 -8.4374,15.089 -13.128,64.19 -5.1592,83.038 7.9683,18.847 7.8224,-4.4565 26.906,-3.7182 19.084,0.73831 20.086,40.925 4.6011,42.964 -15.485,2.0386 -16.14,-15.483 -25.225,0.83939 -9.0855,16.323 12.109,65.137 3.716,83.656 -8.393,18.52 -3.5893,1.9706 -22.09,3.6696 -18.5007,1.699 -18.122,37.23 -1.895,39.582 16.227,2.352 19.922,-20.655 28.428,-5.4936 8.5056,15.162 4.5001,66.732 -3.6048,85.49 -8.1049,18.758 -0.48597,1.8724 -19.61,2.4715 -19.124,0.59907 -20.358,40.789 -5.4067,42.366 14.951,1.5768 16.904,-19.701 25.203,-4.743 8.2981,14.958 13.006,68.023 5.3886,87.046 -7.6179,19.023 -14.487,-1.3449 -31.457,1.0644 -16.97,2.4094 -16.607,37.23 -0.14111,39.625 16.466,2.3959 21.889,-15.275 31.018,1.4935 9.12,16.76 -7.68,40.51 -7.68,40.51" />
            <path
               id="XDiv3"
               style="fill:none;stroke:#000000;stroke-width:4"
               inkscape:connector-curvature="0"
               d="m 350,0 c 0,0 15.628,21.56 6.984,39.795 -8.6443,18.235 -10.091,4.5114 -29.241,4.9938 -19.15,0.48238 -12.051,34.213 2.3517,34.636 14.403,0.4233 19.648,-12.681 28.051,2.3737 8.4029,15.055 -24.642,66.551 -15.512,83.338 9.1296,16.787 9.1404,-3.0949 27.072,-0.96908 17.9316,2.12582 17.004,37.951 0.87124,40.278 -16.132,2.3276 -21.061,-10.001 -28.559,4.4952 -7.4977,14.497 17.78,62.174 10.57,81.322 -7.2097,19.147 -2.452,0.80936 -19.693,3.1821 -17.241,2.37274 -20.384,39.917 -3.7845,42.327 16.599,2.4097 19.373,-16.702 28.279,-0.93467 8.9062,15.767 -20.795,61.651 -11.847,79.353 8.9478,17.702 4.1246,1.2246 21.401,3.5902 17.277,2.3656 14.845,39.112 0.0381,40.505 -14.807,1.3922 -14.117,-11.917 -21.378,2.5113 -7.2613,14.429 16.661,65.845 8.7144,84.706 -7.9468,18.86 -3.5447,-6.4456 -21.454,-4.3075 -17.9093,2.1381 -20.588,41.191 -6.221,41.261 14.367,0.0702 21.59,-17.406 28.371,-3.0398 6.7807,14.367 7.2028,73.265 -1.8736,90.552 -9.0764,17.287 -6.6959,-1.814 -24.517,0.36815 -17.821,2.1821 -18.606,35.284 -1.9616,37.696 16.644,2.4127 22.489,-17.095 31.566,-0.81576 9.0767,16.28 -23.63,68.864 -15.417,87.541 8.2132,18.677 11.301,-4.1579 30.384,-3.4166 19.083,0.74128 11.653,36.296 -4.9746,38.708 -16.628,2.4117 -12.448,-15.879 -21.388,-0.0362 -8.9393,15.842 -6.8204,68.367 1.3433,87.082 8.1637,18.715 5.2574,1.1152 23.155,3.259 17.8976,2.1438 13.753,39.282 -0.93999,40.497 -14.693,1.2148 -21.25,-15.722 -28.059,-1.3539 -6.81,14.35 7.67,40.49 7.67,40.49" />
            <path
               id="XDiv4"
               style="fill:none;stroke:#000000;stroke-width:4"
               inkscape:connector-curvature="0"
               d="m 233.33,0 c 0,0 -11.622,27.445 -2.4956,44.345 9.1268,16.9 3.1275,-5.7095 22.269,-5.1853 19.1415,0.5242 15.979,38.808 1.0698,40.335 -14.909,1.5269 -14.361,-10.692 -23.188,4.9182 -8.8265,15.611 -10.349,62.885 -1.2527,80.064 9.0968,17.18 6.9497,4.0146 25.665,5.4652 18.715,1.4505 13.666,34.081 -0.77688,34.687 -14.443,0.60589 -14.308,-12.015 -23.17,3.6623 -8.862,15.6773 12.162,67.468 4.9348,86.612 -7.2276,19.144 -2.7902,-0.26752 -21.894,0.4054 -19.1038,0.67292 -15.437,32.502 0.74993,34.844 16.187,2.3423 12.499,-11.948 19.901,2.5176 7.4019,14.466 13.406,63.501 4.9846,81.993 -8.4209,18.492 -5.6796,-0.0138 -24.867,0.22767 -19.187,0.24149 -16.233,43.248 -0.36829,45.484 15.865,2.2356 19.864,-16.388 26.614,-2.0216 6.7499,14.366 4.7617,68.957 -3.9259,87.133 -8.6876,18.176 -2.1995,-2.7915 -21.315,-2.1615 -19.116,0.63006 -21.191,38.545 -6.1738,40.196 15.017,1.6508 21.748,-14.216 30.567,1.3808 8.819,15.5968 8.5501,62.741 -0.57001,79.737 -9.12011,16.996 -7.6043,-2.2245 -25.903,-0.34259 -18.2987,1.88191 -16.998,44.259 -0.94165,46.564 16.05635,2.305 13.349,-17.591 22.358,-1.5636 9.0086,16.027 8.5193,66.594 0.65591,85.502 -7.86339,18.908 -6.9661,-5.7744 -25.68,-4.3225 -18.7139,1.4519 -15.363,40.397 -0.5822,41.751 14.7808,1.354 22.932,-16.477 30.601,-1.9136 7.6691,14.563 6.7829,66.435 -2.269,83.825 -9.052,17.39 -2.9949,4.4818 -22.193,4.5355 -19.1981,0.0537 -16.492,34.378 -1.3197,36.181 15.173,1.8026 18.567,-11.832 26.763,3.0421 8.2,14.85 -8.25,42.08 -8.25,42.08" />
            <path
               id="XDiv5"
               style="fill:none;stroke:#000000;stroke-width:4"
               inkscape:connector-curvature="0"
               d="m 116.67,0 c 0,0 15.514,21.546 6.779,39.652 -8.735,18.106 -6.2507,4.6523 -25.298,5.4949 -19.047,0.84252 -12.827,36.665 1.5536,36.933 14.381,0.26755 11.056,-18.356 20.135,-2.0675 9.0787,16.289 -17.711,71.201 -9.8581,90.115 7.8529,18.913 12.795,-5.6045 30.017,-3.2281 17.222,2.3764 10.265,36.944 -4.2182,37.687 -14.483,0.74367 -19.616,-12.417 -27.229,2.1222 -7.6132,14.54 22.66,71.03 13.75,88.82 -8.9098,17.789 -8.8488,-7.9503 -27.156,-6.0754 -18.307,1.875 -16.955,38.369 -0.69632,40.728 16.259,2.3592 15.797,-13.532 24.179,1.5027 8.3823,15.035 10.471,63.301 3.5554,82.492 -6.9151,19.191 -6.6348,4.0651 -24.534,6.2085 -17.8992,2.1434 -17.901,33.293 -3.0823,34.701 14.819,1.4086 20.14,-8.8306 27.767,5.7146 7.6269,14.545 5.46,62.736 -3.5628,80.229 -9.0228,17.493 -6.2565,1.5676 -25.059,2.8934 -18.803,1.3257 -8.7128,40.003 5.6637,40.232 14.377,0.22835 17.199,-18.164 24.74,-3.6518 7.5409,14.512 3.2324,69.94 -5.269,88.348 -8.5014,18.408 -1.8953,0.58296 -20.942,1.427 -19.047,0.844 -20.733,36.798 -4.011,39.214 16.722,2.4159 17.894,-14.068 26.311,1.0006 8.4164,15.068 -14.458,64.394 -5.3607,81.569 9.0976,17.174 -0.43798,0.25031 18.749,0.49215 19.187,0.24183 16.084,36.609 0.2489,38.832 -15.835,2.2231 -15.98,-14.014 -25.107,2.6571 -9.1271,16.672 -1.0511,62.978 5.909,82.164 6.9601,19.186 7.2569,-1.0435 25.382,0.96553 18.126,2.0091 9.1236,37.664 -5.2628,37.979 -14.386,0.31538 -13.219,-15.545 -21.707,-0.40301 -8.49,15.15 3.61,45.26003 3.61,45.26003" />
          </g>
          <g
             id="g4522"
             style="stroke:#000000;stroke-width:4"
             inkscape:label="Y_Gridlines">
            <path
               id="YDiv1"
               style="fill:none;stroke:#000000;stroke-width:4"
               inkscape:connector-curvature="0"
               d="m 0,125 c 0,0 19.59,9.9488 38.328,1.8152 18.737,-8.1336 1.5571,-4.3865 2.8281,-23.224 1.271,-18.8375 38.916,-15.435 39.646,-0.95594 0.72996,14.479 -18.701,21.624 -2.8003,30.587 15.901,8.9632 56.49,-17.971 75.505,-10.333 19.015,7.6373 -3.1916,5.4887 -1.4106,23.905 1.781,18.4163 42.735,16.033 43.54,1.5286 0.8056,-14.504 -17.609,-16.356 -1.6401,-25.344 15.969,-8.9885 56.465,13.731 74.875,5.2319 18.411,-8.4989 1.3073,-7.5176 2.2127,-26.541 0.9054,-19.0234 40.984,-11.069 43.32,5.0957 2.3363,16.164 -21.873,12.594 -5.4145,21.702 16.458,9.1078 64.224,8.8594 81.982,-0.0648 17.758,-8.9242 -3.9814,-1.5651 -2.591,-20.324 1.3904,-18.7589 35.374,-21.093 37.598,-5.258 2.2232,15.835 -13.105,15.092 2.6598,23.997 15.765,8.9048 56.057,-13.184 74.112,-4.4168 18.055,8.7674 1.1845,7.632 3.1792,25.779 1.9947,18.147 36.277,13.04 36.475,-1.3343 0.19826,-14.374 -13.472,-21.622 1.3974,-29.811 14.869,-8.1897 63.162,-8.1114 80.298,0.99222 17.136,9.10362 -6.9024,6.8751 -5.3831,25.537 1.5192,18.662 42.663,19.787 44.632,4.4045 1.9699,-15.382 -17.823,-22.161 -1.6053,-31.223 16.2,-9.06 38.24,8.26 38.24,8.26" />
            <path
               id="YDiv2"
               style="fill:none;stroke:#000000;stroke-width:4"
               inkscape:connector-curvature="0"
               d="m 0,250 c 0,0 16.896,-14.79 35.186,-6.189 18.291,8.6013 -2.1628,8.1198 -0.21386,26.331 1.94894,18.2112 45.197,11.824 45.466,-2.5564 0.26893,-14.381 -19.793,-15.502 -5.0721,-23.476 14.721,-7.9744 63.633,-6.0936 82.638,1.5694 19.004,7.663 -6.0541,7.0874 -5.8056,26.274 0.24857,19.186 38.122,16.607 40.495,0.2839 2.3726,-16.323 -9.851,-20.136 5.3469,-28.674 15.198,-8.5378 52.174,-7.6941 70.287,1.0364 18.113,8.7305 1.7308,3.4036 2.8278,22.339 1.0971,18.936 42.698,15.261 42.895,0.88741 0.19611,-14.374 -20.592,-14.093 -5.4531,-22.578 15.1389,-8.485 63.035,18.98 82.173,11.725 19.138,-7.2547 -6.6048,-6.4423 -4.6523,-24.649 1.9525,-18.2067 39.954,-14.244 41.427,0.62269 1.4731,14.867 -17.146,11.164 -1.523,19.998 15.623,8.8336 58.886,6.9768 77.761,-0.94537 18.875,-7.92217 2.0072,-5.7073 3.1106,-24.64 1.1034,-18.932 40.42,-9.7537 40.671,4.6251 0.25113,14.379 -14.213,16.66 0.44312,24.521 14.656,7.8608 51.787,7.6306 70.405,-0.65453 18.618,-8.28513 2.2776,-3.6526 2.3985,-22.849 0.12088,-19.196 41.669,-20.415 43.112,-5.5712 1.4433,14.844 -16.186,21.262 -0.25703,30.236 15.94,8.97 36.35,-7.67 36.35,-7.67" />
            <path
               id="YDiv3"
               style="fill:none;stroke:#000000;stroke-width:4"
               inkscape:connector-curvature="0"
               d="m 0,375 c 0,0 18.198,-16.233 35.881,-7.278 17.683,8.9555 0.23054,13.095 2.5263,30.632 2.2957,17.537 40.032,15.101 42.325,-0.91838 2.2931,-16.02 -17.158,-16.695 -2.6337,-24.27 14.525,-7.5751 55.772,-13.238 73.792,-4.4488 18.02,8.7888 -2.3503,8.598 -0.24811,26.573 2.10219,17.975 40.882,11.73 42.42,-3.1878 1.5378,-14.918 -10.394,-14.124 4.2973,-22.048 14.691,-7.9246 51.27,18.279 69.947,10.065 18.676,-8.2142 3.9415,-9.0247 4.8022,-28.065 0.86064,-19.041 34.403,-16.527 36.819,0.18929 2.4158,16.716 -16.119,21.17 -0.43518,30.035 15.684,8.8656 63.3,4.0803 80.304,-5.0392 17.004,-9.1195 -4.6989,-1.9887 -4.5952,-21.186 0.10366,-19.197 43.848,-13.629 45.356,1.265 1.5077,14.894 -19.279,14.401 -4.9128,21.173 14.366,6.7714 60.068,-19.581 78.987,-11.74 18.919,7.8413 -4.9724,9.4293 -2.7446,27.148 2.2277,17.719 39.146,16.375 40.083,1.8207 0.93691,-14.555 -13.423,-14.731 1.5061,-22.995 14.93,-8.2645 55.881,-11.133 74.967,-3.6892 19.086,7.444 3.383,4.9247 4.9949,23.508 1.6119,18.5833 40.77,15.346 41.14,0.95216 0.37006,-14.394 -20.536,-16.759 -5.6622,-24.954 14.87,-8.19 41.08,6.46 41.08,6.46" />
            <path
               id="YDiv4"
               style="fill:none;stroke:#000000;stroke-width:4"
               inkscape:connector-curvature="0"
               d="m 0,500 c 0,0 15.829,11.23 35.027,4.4443 19.198,-6.7855 -2.2531,-6.5104 0.15979,-23.428 2.4129,-16.917 37.869,-17.388 40.089,-1.5611 2.2197,15.827 -9.0065,16.064 5.4021,23.23 14.4086,7.166 52.254,-15.497 70.982,-7.3515 18.729,8.1458 -2.1041,6.5701 0.31246,23.377 2.4165,16.807 40.243,13.987 40.508,-0.39332 0.26498,-14.38 -11.139,-12.938 3.2885,-20.192 14.427,-7.2542 57.208,17.234 76.365,10.074 19.157,-7.1594 0.0826,-7.0134 1.4034,-25.82 1.3208,-18.806 35.314,-18.877 35.71,-4.4783 0.39629,14.398 -14.558,21.154 1.3101,30.104 15.868,8.9498 59.603,-23.526 78.69,-16.085 19.087,7.4406 -5.2805,8.4554 -2.8866,25.569 2.3939,17.113 43.629,14.555 44.128,0.13733 0.4988,-14.418 -13.62,-13.947 1.1289,-21.965 14.749,-8.0182 52.728,19.373 71.9,12.303 19.173,-7.0701 -0.869,-6.5619 0.97937,-24.901 1.84837,-18.3391 39.716,-21.86 41.866,-6.1821 2.1493,15.678 -13.261,21.26 1.6834,29.542 14.9444,8.282 57.361,8.6617 76.085,0.51006 18.724,-8.1517 -7.7018,-8.8684 -5.8248,-27.173 1.877,-18.3046 44.197,-11.333 44.71,3.0877 0.513,14.4207 -18.584,14.148 -4.2134,21.017 14.35,6.87 41.18,-3.86 41.18,-3.86" />
            <path
               id="YDiv5"
               style="fill:none;stroke:#000000;stroke-width:4"
               inkscape:connector-curvature="0"
               d="m 0,625 c 0,0 15.872,-11.576 35.031,-4.4246 19.159,7.1518 -0.07414,6.1458 0.03725,25.342 0.11139,19.1962 44.232,14.046 46.46,-1.8006 2.228,-15.846 -20.639,-17.132 -6.2715,-23.944 14.368,-6.8127 58.332,-9.1485 76.387,-0.38104 18.055,8.76746 -0.0315,5.3646 0.0928,24.56 0.12436,19.196 40.15,19.836 42.429,3.8585 2.2786,-15.977 -15.554,-22.982 -0.87524,-30.884 14.679,-7.9024 60.032,-2.8598 78.161,5.8605 18.128,8.7203 -3.4192,3.3839 -3.0874,22.56 0.33175,19.176 44.125,11.055 44.95,-3.4556 0.82525,-14.511 -13.15,-16.199 1.3727,-23.77 14.523,-7.5709 57.111,-4.5449 75.46,4.0084 18.349,8.5533 -6.4362,5.0692 -4.9596,23.765 1.4767,18.695 42.935,16.904 44.755,1.7129 1.8193,-15.192 -16.249,-16.136 0.0975,-25.226 16.346,-9.0899 59.513,-10.802 78.017,-2.3939 18.504,8.4085 -5.0826,2.6561 -4.2487,21.707 0.83396,19.051 41.484,20.932 43.579,5.3546 2.0947,-15.577 -14.594,-19.564 0.86972,-28.302 15.464,-8.7383 59.631,-8.7337 76.467,0.39538 16.836,9.129 -8.1206,9.8774 -5.8347,27.444 2.2859,17.5666 40.868,17.489 43.194,1.3635 2.3257,-16.126 -12.146,-23.545 2.2253,-30.416 14.38,-6.87 35.7,7.07 35.7,7.07" />
            <path
               id="YDiv6"
               style="fill:none;stroke:#000000;stroke-width:4"
               inkscape:connector-curvature="0"
               d="m 0,750 c 0,0 24.533,13.422 41.33,4.2926 16.797,-9.1296 -0.99772,-7.4604 -0.80003,-26.651 0.19768,-19.191 38.665,-15.277 41.082,1.4936 2.4166,16.771 -19.914,20.396 -5.1766,28.396 14.7374,8 56.294,-19.402 75.307,-11.759 19.013,7.6427 5.8649,4.1096 6.1569,23.291 0.29203,19.181 37.322,12.425 38.033,-2.0475 0.71099,-14.473 -19.343,-12.744 -3.9546,-21.431 15.389,-8.6872 63.653,-8.4154 82.75,-1.0081 19.097,7.4073 -7.2988,6.7943 -6.4102,25.824 0.88857,19.03 44.791,15.758 46.601,0.57627 1.8102,-15.181 -16.672,-20.972 -1.9155,-29.003 14.757,-8.0311 59.206,19.643 78.391,12.666 19.185,-6.9765 -2.6094,-5.9176 -0.29207,-23.386 2.31733,-17.4684 34.422,-18.706 35.559,-4.0563 1.1366,14.65 -15.761,21.293 -1.2727,28.766 14.488,7.4727 60.888,-17.087 78.234,-8.0237 17.346,9.0629 -3.2191,7.4882 -0.83484,24.665 2.38426,17.1768 37.693,16.385 40.098,-0.16303 2.4052,-16.548 -9.965,-20.121 5.247,-28.671 15.212,-8.5498 59.434,21.354 76.468,12.237 17.034,-9.1165 -2.439,-5.335 -0.78362,-23.878 1.6553,-18.543 37.818,-16.535 40.227,0.0501 2.4086,16.585 -15.171,13.717 0.98368,22.764 16.14,9.05 34.96,-4.94 34.96,-4.94" />
            <path
               id="YDiv7"
               style="fill:none;stroke:#000000;stroke-width:4"
               inkscape:connector-curvature="0"
               d="m 0,875 c 0,0 22.064,13.78 41.147,6.326 19.083,-7.4539 -1.8778,-4.5877 -1.2787,-23.711 0.59916,-19.124 33.025,-18.717 35.416,-2.2874 2.3908,16.43 -12.62,19.281 2.6581,27.886 15.278,8.6046 62.141,-20.95 79.901,-12.027 17.76,8.9228 -3.6623,9.7817 -1.2479,26.669 2.4144,16.8873 40.441,9.3533 40.779,-5.0362 0.33767,-14.389 -15.213,-12.008 0.12023,-20.655 15.33323,-8.647 56.395,-11.976 75.582,-5.0236 19.187,6.9519 1.1628,7.1721 1.231,26.37 0.0682,19.1979 39.272,14.025 39.966,-0.44219 0.69426,-14.468 -20.501,-15.835 -5.5085,-24.171 14.992,-8.3365 58.056,-8.9041 76.895,-0.9221 18.839,7.982 0.0244,5.3449 0.93984,24.364 0.91542,19.019 42.517,16.952 44.687,1.233 2.1704,-15.719 -18.168,-13.81 -3.8021,-20.539 14.366,-6.7292 60.337,12.591 78.734,4.0802 18.397,-8.5108 -0.12148,-0.49676 0.49496,-19.616 0.61643,-19.119 35.299,-18.557 35.593,-4.1734 0.29321,14.384 -13.368,20.826 3.042,29.927 16.41,9.1007 61.439,-21.826 79.388,-12.996 17.949,8.8295 -1.2697,5.5816 -0.0191,24.432 1.2506,18.8504 39.845,14.903 40.31,0.49208 0.47,-14.41 -18.72,-13.02 -2.3,-22.13 16.42,-9.1 37.28,1.95 37.28,1.95" />
          </g>
          <path
             id="path900"
             style="display:inline;fill:none;stroke:#000000;stroke-width:4"
             inkscape:connector-curvature="0"
             inkscape:label="innerborder"
             d="M 0,30 C 0,15 15,0 30,0 h 640 c 15,0 30,15 30,30 v 940 c 0,15 -15,30 -30,30 H 30 C 15,1000 0,985 0,970 V 30" />
        </g>
      </g>
    </g>
  </g>
  <metadata
     id="metadata22">
    <rdf:RDF>
      <cc:Work>
        <dc:format>image/svg+xml</dc:format>
        <dc:type
           rdf:resource="http://purl.org/dc/dcmitype/StillImage" />
        <cc:license
           rdf:resource="http://creativecommons.org/publicdomain/zero/1.0/" />
        <dc:publisher>
          <cc:Agent
             rdf:about="http://openclipart.org/">
            <dc:title>Openclipart</dc:title>
          </cc:Agent>
        </dc:publisher>
        <dc:title />
      </cc:Work>
      <cc:License
         rdf:about="http://creativecommons.org/publicdomain/zero/1.0/">
        <cc:permits
           rdf:resource="http://creativecommons.org/ns#Reproduction" />
        <cc:permits
           rdf:resource="http://creativecommons.org/ns#Distribution" />
        <cc:permits
           rdf:resource="http://creativecommons.org/ns#DerivativeWorks" />
      </cc:License>
    </rdf:RDF>
  </metadata>
</svg>
