<?xml version="1.0" encoding="UTF-8" standalone="no"?>
<!-- Generator: Adobe Illustrator 13.0.0, SVG Export Plug-In . SVG Version: 6.00 Build 14948)  -->

<svg
   version="1.0"
   x="0px"
   y="0px"
   width="125mm"
   height="88mm"
   viewBox="0 0 472.44095 332.59843"
   enable-background="new 0 0 504 383"
   xml:space="preserve"
   id="svg39"
   sodipodi:docname="quarter.svg"
   inkscape:version="1.2.2 (732a01da63, 2022-12-09)"
   xmlns:inkscape="http://www.inkscape.org/namespaces/inkscape"
   xmlns:sodipodi="http://sodipodi.sourceforge.net/DTD/sodipodi-0.dtd"
   xmlns="http://www.w3.org/2000/svg"
   xmlns:svg="http://www.w3.org/2000/svg"><defs
   id="defs43">
	
	
	
	
	<defs
   id="defs12">
		<filter
   id="Adobe_OpacityMaskFilter"
   filterUnits="userSpaceOnUse"
   x="59.769001"
   y="38.987999"
   width="383.40799"
   height="169.679">
			<feColorMatrix
   type="matrix"
   values="1 0 0 0 0  0 1 0 0 0  0 0 1 0 0  0 0 0 1 0"
   id="feColorMatrix9" />
		</filter>
	</defs>
	<mask
   maskUnits="userSpaceOnUse"
   x="59.769"
   y="38.988"
   width="383.408"
   height="169.679"
   id="XMLID_3_">
		<g
   id="g23"
   filter="url(#Adobe_OpacityMaskFilter)">
			
				<linearGradient
   id="rect30_1_"
   gradientUnits="userSpaceOnUse"
   x1="158.78999"
   y1="-9.4629002"
   x2="158.78999"
   y2="300.93231"
   gradientTransform="matrix(1,0,0,-1,94,286)">
				<stop
   offset="0"
   style="stop-color:#FFFFFF"
   id="stop14" />
				<stop
   offset="1"
   style="stop-color:#000000"
   id="stop16" />
			</linearGradient>
			<rect
   id="rect30"
   x="18.815001"
   y="10.884"
   fill="url(#rect30_1_)"
   width="467.95099"
   height="253.23199" />
		</g>
	</mask>
	
	
	
	
	
	
	
	
	
		
	
	
	
		
</defs><sodipodi:namedview
   id="namedview41"
   pagecolor="#505050"
   bordercolor="#eeeeee"
   borderopacity="1"
   inkscape:showpageshadow="0"
   inkscape:pageopacity="0"
   inkscape:pagecheckerboard="0"
   inkscape:deskcolor="#505050"
   showgrid="false"
   inkscape:zoom="2.1044386"
   inkscape:cx="251.84864"
   inkscape:cy="153.7227"
   inkscape:current-layer="svg39"
   inkscape:document-units="mm" />
<path
   id="path11"
   fill="#db8323"
   stroke="#ffb56c"
   stroke-width="5.4915"
   d="m 402.39753,140.45588 c -40.93478,-24.39875 -100.25072,-39.74312 -166.25201,-39.74312 -66.0013,0 -125.31614,15.34437 -166.253108,39.74312 H 12.495205 V 220.723 c 0,64.37032 85.538973,99.88718 85.538973,99.88718 l 147.677542,-87.68615 150.8769,77.07217 c 0,0 63.20612,-53.82663 63.20612,-89.2732 v -80.26712 z" /><polygon
   id="polygon13"
   opacity="0.1"
   enable-background="new    "
   points="261,225 127.333,304 128.333,215.666 261,136 "
   transform="matrix(1.0983009,0,0,1.0983009,-40.91517,-16.939431)" /><path
   id="path15"
   fill="#f2ce33"
   stroke="#ffeda3"
   stroke-width="3.2949"
   d="m 468.52513,141.93089 c 0.21307,20.3021 0.66118,57.23796 -2.1966,67.361 -4.17574,14.804 -12.56017,-2.01868 -15.51899,0.0967 -4.983,3.56508 -7.92974,18.31636 -13.12031,27.89245 -10.61727,19.5838 -1.14662,-8.12853 -15.95062,-0.36354 0.7095,5.87811 -8.40859,18.54701 -16.0967,23.0797 -3.89348,2.29545 -9.05329,-1.17079 -9.05329,-1.17079 l -0.38002,-50.065 -150.49688,-78.02769 -147.104229,87.94864 -0.573313,85.06231 c 0,0 -3.767173,2.88743 -7.316881,-0.66337 -3.695783,-3.69359 -6.149387,-37.75739 -6.149387,-50.39005 0,-8.4701 1.39594,21.62225 -10.183447,17.04453 -6.31523,-2.49753 -9.659557,-23.57613 -12.333919,-29.59811 -6.995079,0.85997 -6.609576,8.35917 -11.613435,13.19169 -10.965436,-7.59585 -14.660121,-31.9979 -20.624993,-43.1764 -6.875364,1.90555 -14.718331,8.44373 -20.5568991,6.50853 -7.9473057,-2.63263 -4.9423543,-21.90232 -4.9423543,-43.97817 0,-32.21756 6.4074874,-70.47577 34.5964804,-98.664761 28.19009,-28.188992 102.130997,-60.955703 176.277297,-60.955703 154.79014,0 252.60592,59.308252 253.33849,128.868034 z" /><path
   id="path32"
   mask="url(#XMLID_3_)"
   fill="#ffffff"
   d="m 443.177,135.724 c 0,51.276 -44.415,62.928 -44.415,62.928 l -137.789,-70.195 -135.072,80.21 c 0,0 -66.132,-9.166 -66.132,-72.942 0,-53.426 85.829,-96.737 191.704,-96.737 105.875,0 191.704,43.31 191.704,96.736 z"
   transform="matrix(1.0983009,0,0,1.0983009,-40.91517,-16.939431)" /><path
   id="path34"
   fill="#ffffff"
   d="m 278.52126,61.388098 c 0.61944,16.162597 37.34004,2.928071 75.41484,21.966019 38.0748,19.036853 43.20057,34.413063 54.18358,27.823263 10.98301,-6.58981 -19.03795,-34.962219 -49.79038,-48.14183 -30.75243,-13.179612 -80.5417,-20.6854 -79.80804,-1.647452 z"
   style="stroke-width:1.0983" /><path
   id="path36"
   opacity="0.5"
   fill="#ffffff"
   enable-background="new    "
   d="m 104.53722,248.65499 c 1.57606,-2.30313 5.34323,-4.6502 7.91215,-6.40089 2.1362,-1.45635 3.61781,-3.22681 5.62989,-4.82923 2.02088,-1.61341 4.01979,-2.1966 6.28997,-3.04339 2.29875,-0.85778 4.36026,-2.89073 6.55576,-4.17135 2.31302,-1.34872 16.64256,-8.89404 17.4564,-11.62442 0.34486,-1.1609 -0.82263,-2.87535 0.33608,-3.78255 0.53048,-0.41625 3.04778,-0.5777 3.84735,-0.88083 5.59474,-2.10435 16.63816,-13.93305 21.69144,-17.31362 5.37508,-3.59254 10.42178,-7.85066 16.15381,-10.89185 3.38936,-1.79792 7.51897,-2.48326 11.02035,-4.00441 3.2345,-1.40692 6.3339,-3.40912 9.61782,-4.82923 7.0467,-3.04558 14.36248,-5.70237 20.48112,-10.58652 1.89017,-1.50797 3.20045,-2.88853 5.48162,-3.85284 2.07689,-0.87754 7.1071,-3.82318 9.29712,-2.92258 0.78089,0.3218 1.57716,2.05492 2.21966,2.61616 1.34103,1.16859 2.30973,1.36958 4.04285,1.65513 2.66667,0.43823 6.51951,0.88963 8.74247,2.73807 1.3608,1.13235 2.87316,2.91379 4.21418,4.27459 2.0099,2.04284 4.44263,3.34432 7.01705,4.77761 2.73257,1.52224 5.5607,3.12576 8.36576,4.47338 2.82483,1.35969 4.64142,3.17409 7.27624,4.83362 2.37892,1.49698 3.99452,3.363 6.73149,4.37453 3.18068,1.17518 6.94455,0.60407 10.32073,1.32785 5.8188,1.24767 10.00333,4.32181 15.17083,7.00386 2.85559,1.48381 5.92863,1.27293 8.84901,2.21308 1.15102,0.37122 2.17793,1.14772 3.31468,1.56837 1.56947,0.57881 7.22462,3.31687 8.74357,3.96816 1.19056,0.51071 2.16805,1.61121 3.47283,2.01648 1.16639,0.36244 2.59309,0.14388 3.85174,0.64361 2.9753,1.18836 7.83528,3.53104 11.06538,4.02198 2.27019,0.34486 3.60023,1.37068 5.687,2.32949 3.33444,1.53543 6.64582,2.1373 9.85506,3.8122 1.676,0.87645 3.52554,2.19002 4.67546,3.59255 0.87645,1.07084 0.87096,1.90225 2.08897,2.82593 2.5887,1.95936 6.42506,1.82647 5.60793,6.24164 -2.85119,0.1933 -8.36137,-1.29819 -11.12909,-2.35036 -1.39594,-0.53048 -1.58924,-1.27403 -2.75234,-1.99342 -1.37727,-0.85009 -2.80726,-0.81494 -4.31742,-1.1005 -5.9484,-1.12356 -11.92645,-6.26361 -16.6744,-9.52446 -2.04834,-1.40473 -5.45197,-1.95388 -7.80673,-2.52829 -3.40802,-0.82592 -10.79849,-3.86273 -14.34381,-5.03461 -2.66118,-0.88084 -5.69798,-1.8803 -8.21968,-3.05218 -3.61231,-1.67821 -6.96323,-4.39101 -10.69416,-5.91875 -2.62713,-1.07413 -5.03022,-1.3575 -7.37729,-2.91159 -2.81165,-1.85503 -5.2301,-5.1082 -8.69744,-5.42561 -2.37233,-0.21636 -4.90172,0.58869 -7.24659,0.12081 -3.52774,-0.70401 -4.80946,-2.70841 -6.35147,-5.60353 -1.43439,-2.68754 -1.60902,-3.15651 -4.85889,-3.29929 -3.82428,-0.16694 -7.80343,-1.46953 -11.50909,-2.43603 -3.07085,-0.80067 -5.21584,-1.41132 -7.89898,-2.95224 -2.48546,-1.42559 -5.33006,-1.56178 -7.77707,-3.20264 -2.31632,-1.5519 -3.20704,-1.53543 -6.08789,-1.47502 -2.5184,0.0538 -4.15267,1.10818 -6.50853,1.96925 -2.93356,1.07085 -5.66174,1.91214 -8.7238,2.30424 -3.63538,0.46678 -5.72764,2.31082 -8.55467,4.63593 -2.56124,2.10544 -4.60627,4.6524 -7.66174,5.86163 -3.47613,1.37507 -6.03846,3.05986 -9.1796,5.17409 -3.48381,2.34378 -5.92534,5.63319 -9.12249,8.24824 -2.17134,1.77706 -5.00606,2.9138 -7.54862,4.04944 -2.70292,1.20374 -4.87976,2.30204 -7.6332,3.06536 -2.87205,0.79627 -4.99177,2.73037 -7.57717,3.99232 -1.12466,0.54696 -8.77982,5.66943 -9.8309,6.4624 -1.08292,0.81824 -2.03405,2.49974 -2.67436,3.64087 -1.89676,3.37618 -3.76937,5.67382 -7.02693,7.93083 -1.66063,1.15212 -13.00827,7.1752 -14.6711,8.2109 -1.18836,0.73916 -2.01209,2.08018 -3.16311,2.88194 -2.95223,2.05383 -6.08239,3.65405 -9.19937,5.44648 -3.21033,1.84514 -6.31413,3.89018 -9.73644,5.25866 -1.95607,0.78199 -5.1016,2.53927 -6.9753,2.69523 -0.92038,-2.40308 -2.44262,-4.37124 -3.05108,-6.97421"
   style="stroke-width:1.0983" /><path
   id="path38"
   opacity="0.5"
   fill="#ffffff"
   enable-background="new    "
   d="m 387.05756,261.45789 c -1.78803,-2.11972 -5.72325,-4.05054 -8.42177,-5.51457 -2.24383,-1.21692 -3.8825,-2.81934 -6.02199,-4.19661 -2.14827,-1.38825 -4.16256,-1.75618 -6.47228,-2.35366 -2.33829,-0.60736 -4.57223,-2.40418 -6.8556,-3.44537 -2.40308,-1.08951 -14.64474,-6.98849 -15.73426,-9.61892 -0.46238,-1.11477 0.49314,-2.94674 -0.73806,-3.72543 -0.56342,-0.35476 -3.04009,-0.25042 -3.85284,-0.46129 -5.69359,-1.49149 -15.68373,-9.57059 -20.98523,-12.38774 -5.64088,-2.99616 -11.03024,-6.68755 -16.95667,-9.09393 -3.50578,-1.4245 -7.61232,-1.66392 -11.19718,-2.79957 -3.31357,-1.05327 -6.55686,-2.7117 -9.91766,-3.77156 -7.21144,-2.27349 -14.64694,-4.12961 -21.15327,-8.32732 -2.00989,-1.29819 -3.43768,-2.52939 -5.77157,-3.24219 -2.12522,-0.65019 -7.35423,-3.04119 -9.39597,-1.90884 -0.72927,0.40417 -1.31906,2.21198 -1.88688,2.83911 -1.18067,1.30478 -2.10654,1.6101 -3.76937,2.07908 -2.55684,0.72158 -6.2713,1.58155 -8.24385,3.65954 -1.20813,1.27073 -2.49204,3.20484 -3.65294,4.70073 -1.74411,2.24602 -3.98025,3.80122 -6.3383,5.50248 -2.50413,1.80671 -5.09392,3.70238 -7.68701,5.34324 -2.61395,1.65514 -4.19111,3.65075 -6.58651,5.58596 -2.16036,1.743 -3.53763,3.77046 -6.10216,5.07085 -2.97969,1.50797 -6.7205,1.34542 -9.93962,2.42615 -5.54862,1.86272 -15.89461,9.7617 -20.65026,12.98192 -2.62933,1.78034 -5.65405,1.90006 -8.4031,3.14773 -1.08402,0.49204 -2.00549,1.37397 -3.06865,1.91434 -1.46843,0.74354 -3.24109,0.92916 -4.6535,1.7397 -1.10709,0.63702 -1.9429,1.83417 -3.17519,2.37673 -1.0983,0.48435 -12.40311,7.01155 -13.5761,7.64417 -2.7776,1.49808 -5.24548,3.02143 -8.34928,3.85723 -2.18013,0.5876 -3.36959,1.7496 -5.3026,2.92588 -3.09281,1.88468 -6.26031,2.83911 -9.21474,4.8468 -1.54202,1.04998 -3.20704,2.55245 -4.17794,4.0714 -0.74025,1.15871 -0.6447,1.98902 -1.73531,3.03351 -2.31851,2.22626 -6.0791,2.50632 -4.80397,6.80727 2.80396,-0.11422 8.02858,-2.18782 10.61617,-3.52994 1.30479,-0.67765 1.41571,-1.43768 2.47338,-2.27678 1.25316,-0.99396 2.65349,-1.11477 4.09776,-1.55739 5.6903,-1.75618 8.94566,-6.18014 13.23013,-9.92974 1.84954,-1.61889 14.9984,-9.11809 17.23893,-9.93962 3.23889,-1.18617 6.67218,-1.85393 10.00772,-3.40254 2.50413,-1.1609 5.36191,-2.47996 7.70019,-3.91434 3.34762,-2.05602 12.91602,-9.5047 16.39763,-11.42233 2.44812,-1.34981 4.76553,-1.89128 6.89074,-3.6859 2.54477,-2.14608 4.55466,-5.63868 7.90777,-6.32731 2.29545,-0.47008 4.85339,0.0604 7.09283,-0.65788 3.36849,-1.07524 4.40309,-3.20814 5.59804,-6.24934 1.11038,-2.82593 1.23119,-3.31247 4.391,-3.80122 3.71775,-0.57551 7.46406,-2.29764 10.97752,-3.65734 2.9116,-1.12246 4.94236,-1.96047 7.39596,-3.77815 2.27348,-1.6837 5.03791,-2.12522 7.25318,-4.01869 2.09446,-1.79133 2.96541,-1.8704 5.78695,-2.11972 2.46459,-0.21527 4.17684,0.65788 6.56894,1.25865 2.98188,0.75124 5.73752,1.296 8.76993,1.35531 3.60352,0.0725 5.84516,1.68369 8.85889,3.68919 2.72818,1.81879 5.00277,4.13291 8.11755,5.00606 3.54641,0.99506 6.23066,2.39539 9.52776,4.15926 3.65624,1.95717 6.3976,4.96542 9.80343,7.22133 2.31193,1.53323 5.20375,2.36135 7.81222,3.21473 2.76881,0.90719 5.01374,1.76607 7.78805,2.22735 2.89073,0.48216 5.1708,2.18123 7.83198,3.15762 1.15871,0.42394 1.62329,0 2.73367,0.67545 1.14773,0.69742 2.25921,2.26799 3.00605,3.33335 2.21967,3.15322 9.78586,7.4333 13.21256,9.32677 1.7474,0.9665 3.77157,1.27842 5.50798,2.1296 1.23889,0.60736 9.32677,6.24494 10.5404,6.9193 3.10489,1.72323 6.33719,2.98079 9.57608,4.42615 3.33554,1.4882 6.58761,3.18947 10.07911,4.18453 1.99452,0.57002 5.25867,1.97694 7.10601,1.93301 0.64031,-2.48655 1.91324,-4.60847 2.22625,-7.25977"
   style="stroke-width:1.0983" /><g
   id="g42"
   transform="matrix(1.0983009,0,0,1.0983009,-40.91517,-16.939431)">
		<path
   id="path44"
   fill="#db8323"
   d="m 121.15,140.877 v -20.15 h -0.065 l -4.94,2.275 -0.91,-4.485 6.76,-2.99 h 5.395 v 25.351 z m 1.82,18.005 24.245,-43.681 h 4.615 l -24.31,43.681 z m 29.9,-0.715 v -6.24 H 140 v -3.38 l 11.765,-15.99 h 6.89 v 15.275 h 3.64 v 4.095 h -3.64 v 6.24 z m 0,-16.38 c 0,-1.625 0.13,-3.12 0.195,-4.551 h -0.13 c -0.845,1.495 -1.495,2.796 -2.275,3.966 l -4.81,6.564 0.13,0.065 h 6.89 z" />
	</g><path
   id="path50"
   fill="#db8323"
   d="m 254.09285,246.76482 c -2.64031,-0.30203 -5.90117,-1.5508 -7.57388,0.66227 -0.16365,0.21527 -1.63537,6.55247 -1.63317,7.02803 0.002,1.48051 0.16804,1.99671 1.12246,3.27514 1.17628,1.57496 1.59803,0.73805 2.59199,1.66722 1.03789,0.9698 1.22351,0.71938 2.3295,2.22406 0.66227,0.9006 0.53707,2.66667 0.49972,3.71994 2.73697,1.10928 6.25922,0.74465 9.17082,0.56233 0.15925,-5.8847 2.94893,-9.09613 1.63427,-15.19829 -1.59364,-0.29434 -2.78419,-1.25206 -3.2949,-2.74575 -1.58485,-0.11422 -3.22681,-0.0747 -4.8479,-0.0966"
   style="stroke-width:1.0983" /><path
   id="path52"
   fill="#db8323"
   d="m 265.51079,262.57816 c -3.296,0.55354 -2.05272,7.28832 2.23724,5.14663 0.0747,0.39979 0.011,0.95443 0.0549,1.37727 2.62275,-0.48105 2.2658,-4.15707 2.01868,-6.43934 -0.82922,0.13729 -1.88908,-0.61395 -2.11423,-0.63152"
   style="stroke-width:1.0983" /><path
   id="path54"
   fill="#db8323"
   d="m 298.45982,270.26626 c -1.28941,-0.53926 -2.40089,-0.46019 -3.76278,0.0813 -0.27567,0.93355 -0.27458,2.74685 10e-4,3.6804 0.59528,-0.0692 1.43548,0.23065 2.03185,0.16475 -0.11422,0.54366 -0.15156,2.95443 0.74136,3.0983 2.5854,0.41406 1.07194,-1.05546 2.08457,-2.08457 -0.24053,0.24492 1.67052,-3.18507 1.64965,-3.14224 0.40527,-0.80066 2.09666,-1.553 2.68864,-2.20978 -1.31906,-0.7117 -2.81385,-0.93795 -4.33609,-0.68644"
   style="stroke-width:1.0983" /><line
   id="line2211"
   opacity="0.99"
   fill="none"
   stroke="#db8323"
   stroke-width="7.13896"
   stroke-linecap="round"
   stroke-linejoin="round"
   stroke-dasharray="13, 13"
   enable-background="new    "
   x1="235.77759"
   y1="124.45584"
   x2="96.280197"
   y2="51.062969" /><g
   id="g2213"
   transform="matrix(1.0983009,0,0,1.0983009,90.040743,-91.669475)">
		<path
   id="path2215"
   fill="#db8323"
   d="m 122.647,144.553 v -18.437 h -0.059 l -4.52,2.082 -0.833,-4.104 6.185,-2.736 h 4.937 v 23.196 z m 1.666,16.474 22.184,-39.968 h 4.223 l -22.243,39.968 z m 27.358,-0.653 v -5.709 h -11.776 v -3.093 l 10.765,-14.63 h 6.306 v 13.977 h 3.329 v 3.747 h -3.329 v 5.709 h -5.295 z m 0,-14.988 c 0,-1.487 0.118,-2.855 0.178,-4.165 h -0.118 c -0.773,1.368 -1.368,2.558 -2.082,3.629 l -4.401,6.006 0.119,0.06 h 6.305 v -5.53 z" />
	</g><g
   id="g2217"
   transform="matrix(1.0983009,0,0,1.0983009,222.50623,-27.516352)">
		<path
   id="path2219"
   fill="#db8323"
   d="m 121.15,140.877 v -20.15 h -0.064 l -4.94,2.275 -0.91,-4.485 6.761,-2.99 h 5.395 v 25.351 z m 1.82,18.005 24.245,-43.681 h 4.615 l -24.311,43.681 z m 29.9,-0.715 v -6.24 H 140 v -3.38 l 11.765,-15.99 h 6.89 v 15.275 h 3.641 v 4.095 h -3.641 v 6.24 z m 0,-16.38 c 0,-1.625 0.13,-3.12 0.194,-4.551 h -0.13 c -0.845,1.495 -1.495,2.796 -2.274,3.966 l -4.811,6.564 0.13,0.065 h 6.891 z" />
	</g><line
   id="line4257"
   opacity="0.99"
   fill="none"
   stroke="#db8323"
   stroke-width="6.58091"
   stroke-linecap="round"
   stroke-linejoin="round"
   stroke-dasharray="11.9838, 11.9838"
   enable-background="new    "
   x1="254.34216"
   y1="123.84957"
   x2="376.91034"
   y2="51.233204" />
<g
   id="Layer_2"
   display="none">
</g>
</svg>
