<?xml version="1.0" encoding="UTF-8" standalone="no"?>
<svg
   xmlns:dc="http://purl.org/dc/elements/1.1/"
   xmlns:cc="http://creativecommons.org/ns#"
   xmlns:rdf="http://www.w3.org/1999/02/22-rdf-syntax-ns#"
   xmlns:svg="http://www.w3.org/2000/svg"
   xmlns="http://www.w3.org/2000/svg"
   xmlns:xlink="http://www.w3.org/1999/xlink"
   xmlns:sodipodi="http://sodipodi.sourceforge.net/DTD/sodipodi-0.dtd"
   xmlns:inkscape="http://www.inkscape.org/namespaces/inkscape"
   viewBox="0 0 330.26238 469.47115"
   version="1.1"
   id="svg150"
   sodipodi:docname="quart_of_milk.svg"
   width="87.38192mm"
   height="124.21424mm"
   inkscape:version="1.0.2-2 (e86c870879, 2021-01-15)">
  <metadata
     id="metadata154">
    <rdf:RDF>
      <cc:Work
         rdf:about="">
        <dc:format>image/svg+xml</dc:format>
        <dc:type
           rdf:resource="http://purl.org/dc/dcmitype/StillImage" />
        <dc:title />
      </cc:Work>
    </rdf:RDF>
  </metadata>
  <sodipodi:namedview
     pagecolor="#ffffff"
     bordercolor="#666666"
     borderopacity="1"
     objecttolerance="10"
     gridtolerance="10"
     guidetolerance="10"
     inkscape:pageopacity="0"
     inkscape:pageshadow="2"
     inkscape:window-width="1920"
     inkscape:window-height="1017"
     id="namedview152"
     showgrid="false"
     units="mm"
     inkscape:zoom="0.75682005"
     inkscape:cx="54.442208"
     inkscape:cy="131.40087"
     inkscape:window-x="-8"
     inkscape:window-y="-8"
     inkscape:window-maximized="1"
     inkscape:current-layer="svg150"
     inkscape:document-rotation="0" />
  <defs
     id="defs92">
    <pattern
       id="b"
       width="10"
       height="10"
       patternTransform="scale(10)"
       patternUnits="userSpaceOnUse">
      <path
         d="m2.717.81a.15,.15 0 1,0 -.3,0 .15,.15 0 1,0 .3,0"
         fill="#fff"
         id="path2" />
      <path
         d="m3.198,2.33a.15,.15 0 1,0 -.3,0 .15,.15 0 1,0 .3,0"
         fill="#fff"
         id="path4" />
      <path
         d="m4.568,2.415a.15,.15 0 1,0 -.3,0 .15,.15 0 1,0 .3,0"
         fill="#fff"
         id="path6" />
      <path
         d="m1.994,3.029a.15,.15 0 1,0 -.3,0 .15,.15 0 1,0 .3,0"
         fill="#fff"
         id="path8" />
      <path
         d="m6.23,1.363a.15,.15 0 1,0 -.3,0 .15,.15 0 1,0 .3,0"
         fill="#fff"
         id="path10" />
      <path
         d="m5.969,4.413a.15,.15 0 1,0 -.3,0 .15,.15 0 1,0 .3,0"
         fill="#fff"
         id="path12" />
      <path
         d="m4.455,4.048a.15,.15 0 1,0 -.3,0 .15,.15 0 1,0 .3,0"
         fill="#fff"
         id="path14" />
      <path
         d="m5.691,3.045a.15,.15 0 1,0 -.3,0 .15,.15 0 1,0 .3,0"
         fill="#fff"
         id="path16" />
      <path
         d="m4.935,5.527a.15,.15 0 1,0 -.3,0 .15,.15 0 1,0 .3,0"
         fill="#fff"
         id="path18" />
      <path
         d="m2.817,5.184a.15,.15 0 1,0 -.3,0 .15,.15 0 1,0 .3,0"
         fill="#fff"
         id="path20" />
      <path
         d="m8.115,1.448a.15,.15 0 1,0 -.3,0 .15,.15 0 1,0 .3,0"
         fill="#fff"
         id="path22" />
      <path
         d="m7.197,5.049a.15,.15 0 1,0 -.3,0 .15,.15 0 1,0 .3,0"
         fill="#fff"
         id="path24" />
      <path
         d="m4.49.895a.15,.15 0 1,0 -.3,0 .15,.15 0 1,0 .3,0"
         fill="#fff"
         id="path26" />
      <path
         d="m7.275.34a.15,.15 0 1,0 -.3,0 .15,.15 0 1,0 .3,0"
         fill="#fff"
         id="path28" />
      <path
         d="m9.703,1.049a.15,.15 0 1,0 -.3,0 .15,.15 0 1,0 .3,0"
         fill="#fff"
         id="path30" />
      <path
         d="m7.156,2.689a.15,.15 0 1,0 -.3,0 .15,.15 0 1,0 .3,0"
         fill="#fff"
         id="path32" />
      <path
         d="m9.059,2.689a.15,.15 0 1,0 -.3,0 .15,.15 0 1,0 .3,0"
         fill="#fff"
         id="path34" />
      <path
         d="m9.465,4.407a.15,.15 0 1,0 -.3,0 .15,.15 0 1,0 .3,0"
         fill="#fff"
         id="path36" />
      <path
         d="m7.97,3.87a.15,.15 0 1,0 -.3,0 .15,.15 0 1,0 .3,0"
         fill="#fff"
         id="path38" />
      <path
         d="m8.42,5.948a.15,.15 0 1,0 -.3,0 .15,.15 0 1,0 .3,0"
         fill="#fff"
         id="path40" />
      <path
         d="m8.123,7.428a.15,.15 0 1,0 -.3,0 .15,.15 0 1,0 .3,0"
         fill="#fff"
         id="path42" />
      <path
         d="m9.492,8.072a.15,.15 0 1,0 -.3,0 .15,.15 0 1,0 .3,0"
         fill="#fff"
         id="path44" />
      <path
         d="m8.356,9.315a.15,.15 0 1,0 -.3,0 .15,.15 0 1,0 .3,0"
         fill="#fff"
         id="path46" />
      <path
         d="m9.832,9.475a.15,.15 0 1,0 -.3,0 .15,.15 0 1,0 .3,0"
         fill="#fff"
         id="path48" />
      <path
         d="m9.838,6.186a.15,.15 0 1,0 -.3,0 .15,.15 0 1,0 .3,0"
         fill="#fff"
         id="path50" />
      <path
         d="m3.529,6.296a.15,.15 0 1,0 -.3,0 .15,.15 0 1,0 .3,0"
         fill="#fff"
         id="path52" />
      <path
         d="m3.021,8.204a.15,.15 0 1,0 -.3,0 .15,.15 0 1,0 .3,0"
         fill="#fff"
         id="path54" />
      <path
         d="m4.74,8.719a.15,.15 0 1,0 -.3,0 .15,.15 0 1,0 .3,0"
         fill="#fff"
         id="path56" />
      <path
         d="m3.331,9.671a.15,.15 0 1,0 -.3,0 .15,.15 0 1,0 .3,0"
         fill="#fff"
         id="path58" />
      <path
         d="m5.884,7.315a.15,.15 0 1,0 -.3,0 .15,.15 0 1,0 .3,0"
         fill="#fff"
         id="path60" />
      <path
         d="m6.857,6.513a.15,.15 0 1,0 -.3,0 .15,.15 0 1,0 .3,0"
         fill="#fff"
         id="path62" />
      <path
         d="m5.88,9.67a.15,.15 0 1,0 -.3,0 .15,.15 0 1,0 .3,0"
         fill="#fff"
         id="path64" />
      <path
         d="m6.685,8.373a.15,.15 0 1,0 -.3,0 .15,.15 0 1,0 .3,0"
         fill="#fff"
         id="path66" />
      <path
         d="m4.52,7.154a.15,.15 0 1,0 -.3,0 .15,.15 0 1,0 .3,0"
         fill="#fff"
         id="path68" />
      <path
         d="m.772,7.25a.15,.15 0 1,0 -.3,0 .15,.15 0 1,0 .3,0"
         fill="#fff"
         id="path70" />
      <path
         d="m.981,5.679a.15,.15 0 1,0 -.3,0 .15,.15 0 1,0 .3,0"
         fill="#fff"
         id="path72" />
      <path
         d="m1.407,8.519a.15,.15 0 1,0 -.3,0 .15,.15 0 1,0 .3,0"
         fill="#fff"
         id="path74" />
      <path
         d="m2.139,6.877a.15,.15 0 1,0 -.3,0 .15,.15 0 1,0 .3,0"
         fill="#fff"
         id="path76" />
      <path
         d="m.524,3.181a.15,.15 0 1,0 -.3,0 .15,.15 0 1,0 .3,0"
         fill="#fff"
         id="path78" />
      <path
         d="m1.316,1.664a.15,.15 0 1,0 -.3,0 .15,.15 0 1,0 .3,0"
         fill="#fff"
         id="path80" />
      <path
         d="m1.301.093a.15,.15 0 1,0 -.3,0 .15,.15 0 1,0 .3,0"
         fill="#fff"
         id="path82" />
      <path
         d="m1.301,10.093a.15,.15 0 1,0 -.3,0 .15,.15 0 1,0 .3,0"
         fill="#fff"
         id="path84" />
      <path
         d="m1.452,4.451a.15,.15 0 1,0 -.3,0 .15,.15 0 1,0 .3,0"
         fill="#fff"
         id="path86" />
      <path
         d="m3.197,3.763a.15,.15 0 1,0 -.3,0 .15,.15 0 1,0 .3,0"
         fill="#fff"
         id="path88" />
    </pattern>
    <pattern
       id="a"
       xlink:href="#b"
       patternTransform="matrix(9.2351454,0,0,11.830102,-140.64959,-388.79259)" />
  </defs>
  <path
     d="m 100.11988,466.61836 224.28474,-102.24638 5.85776,-25.85705 -74.38263,-64.05171 -28.44424,-3.042 -139.847815,24.50488 z"
     fill="#808080"
     id="path94"
     style="stroke-width:1.04523" />
  <path
     d="M 128.57337,49.252402 86.064912,206.43895 199.41709,101.64437 Z"
     fill="#4d4d4d"
     id="path96"
     style="stroke-width:1.04523" />
  <path
     d="m 151.24565,74.403196 v 20.95939 l 48.17606,6.287694 -99.18546,-73.356088 -48.176067,-6.287696 z"
     fill="#cccccc"
     stroke="#000000"
     stroke-linecap="round"
     stroke-linejoin="round"
     stroke-width="2.09048"
     id="path98" />
  <path
     d="m 1.04524,332.19291 99.18547,73.35611 99.18546,-73.35611 -99.18546,-73.35608 z"
     fill="#ffffff"
     stroke="#000000"
     stroke-linecap="round"
     stroke-linejoin="round"
     stroke-width="2.09048"
     id="path100" />
  <path
     d="M 1.04524,395.06991 100.23071,468.426 V 175.004 L 1.04524,101.64792 Z"
     fill="#ffffff"
     stroke="#000000"
     stroke-linecap="round"
     stroke-linejoin="round"
     stroke-width="2.09048"
     id="path102" />
  <path
     d="m 100.23071,174.99454 99.18546,-73.35609 v 293.42199 l -99.18546,73.35609 z"
     fill="#808080"
     stroke="#000000"
     stroke-linecap="round"
     stroke-linejoin="round"
     stroke-width="2.09048"
     id="path104" />
  <path
     d="M 148.41046,76.497124 49.224993,3.1410343 52.05889,1.0452146 151.24436,74.401304 Z"
     fill="#ffffff"
     stroke="#000000"
     stroke-linecap="round"
     stroke-linejoin="round"
     stroke-width="2.09048"
     id="path106" />
  <path
     d="m 148.41046,76.497124 v 20.95939 L 100.2344,175.004 1.0489341,101.64792 49.224993,24.100422 V 3.1410343 Z"
     fill="#ffffff"
     stroke="#000000"
     stroke-linecap="round"
     stroke-linejoin="round"
     stroke-width="2.09048"
     id="path108" />
  <path
     d="M 148.41046,97.448233 49.224993,24.092139"
     fill="#ffffff"
     stroke="#000000"
     stroke-linecap="round"
     stroke-linejoin="round"
     stroke-width="2.09048"
     id="path110" />
  <path
     d="m 151.24565,95.354305 -2.8339,2.095821"
     fill="none"
     stroke="#000000"
     stroke-width="2.09048"
     id="path112" />
  <path
     d="m 1.04524,185.47602 99.18547,73.35608 99.18546,-73.35608 V 332.19291 L 100.23071,405.54902 1.04524,332.19291 Z"
     fill="none"
     stroke="#000000"
     stroke-width="2.09048"
     id="path114" />
  <g
     transform="matrix(0.79978705,0.59150505,-0.46175727,1.0245168,-140.64959,-388.79259)"
     fill="#1a1a1a"
     font-family="Sans"
     font-size="40px"
     letter-spacing="10.28"
     word-spacing="0"
     id="g124">
    <path
       d="m 369.06,234.82 c 0.89841,-1.6146 1.9726,-2.806 3.2226,-3.5742 1.25,-0.7682 2.7213,-1.1523 4.4141,-1.1524 2.2786,2e-5 4.0364,0.80081 5.2734,2.4024 1.237,1.5886 1.8554,3.8542 1.8555,6.7969 v 13.203 h -3.6133 v -13.086 c -3e-5,-2.0963 -0.37113,-3.6523 -1.1133,-4.668 -0.74217,-1.0157 -1.875,-1.5234 -3.3984,-1.5234 -1.862,2e-5 -3.3334,0.61851 -4.4141,1.8555 -1.0807,1.23699 -1.6211,2.9232 -1.6211,5.0586 v 12.363 h -3.6133 v -13.086 c -10e-6,-2.1094 -0.37111,-3.6654 -1.1133,-4.668 -0.7422,-1.0156 -1.888,-1.5234 -3.4375,-1.5234 -1.836,2e-5 -3.2943,0.62502 -4.375,1.875 -1.0807,1.237 -1.6211,2.9167 -1.6211,5.0391 v 12.363 h -3.6133 v -21.875 h 3.6133 v 3.3984 c 0.8203,-1.3411 1.8034,-2.3307 2.9492,-2.9688 1.1458,-0.6381 2.5065,-0.95701 4.082,-0.95703 1.5885,2e-5 2.9362,0.40367 4.043,1.2109 1.1198,0.80731 1.9466,1.9792 2.4805,3.5156"
       id="path116" />
    <path
       d="m 401.29,230.62 h 3.5938 v 21.875 H 401.29 V 230.62 m 0,-8.5156 h 3.5938 v 4.5508 H 401.29 v -4.5508"
       id="path118" />
    <path
       d="m 422.67,222.1 h 3.5938 v 30.391 H 422.67 V 222.1"
       id="path120" />
    <path
       d="m 443.9,222.1 h 3.6133 v 17.949 l 10.723,-9.4336 h 4.5898 l -11.602,10.234 12.09,11.641 h -4.6875 l -11.113,-10.684 v 10.684 h -3.6133 v -30.391"
       id="path122" />
  </g>
  <path
     d="m 25.915486,234.51178 c -6.069799,1.55092 -10.069079,11.66413 -7.781256,18.82405 0.434347,2.16397 0.221496,2.06672 -2.268059,2.8274 -8.2580672,3.7874 -12.6835489,21.27999 -3.538169,26.99275 0.414778,0.20347 0.835993,0.37542 1.252655,0.51771 -1.020391,5.15189 -2.138121,10.23469 -5.5412719,13.55257 -9.082119,5.1882 1.7159824,6.37748 6.2339999,3.40116 8.625164,1.07049 2.935114,14.4197 0.04313,19.76454 6.124471,0.44171 12.530245,-9.96556 19.635766,-4.58203 6.45158,3.4836 12.895034,6.99383 19.690254,9.2251 -1.77832,4.07831 -0.848452,10.40694 3.792227,4.62688 0.547885,-0.60167 1.066013,-1.4331 1.412147,-2.32249 4.558375,4.02377 4.791747,13.4035 3.876175,20.02718 4.398792,5.9102 6.576532,-6.97112 6.907334,-11.36257 0.857391,-6.37903 5.575073,-9.58239 8.336659,-14.16537 0.133992,1.73962 0.307474,3.49248 0.681008,5.18419 1.437728,10.16608 10.800503,19.7255 18.576495,13.71108 7.01132,-8.75499 -4.704752,-2.64402 -8.213461,-1.37099 -7.344342,-1.98272 -7.360688,-12.28674 -9.859441,-19.93491 0.67629,-1.79118 0.998134,-3.83045 0.717626,-6.32318 0.392087,-13.34316 -6.274727,-24.81363 -14.447461,-32.19444 -7.433554,-4.92865 -15.368206,-9.05771 -23.560703,-11.67311 3.608448,-2.77321 14.962782,-18.07995 2.786243,-8.42208 -3.175228,1.57494 -7.101273,2.64059 -10.773721,2.36436 -0.292218,-0.12906 -0.606148,-0.24204 -0.911952,-0.34966 -0.439574,-5.83804 -4.20079,-6.56453 -8.09756,-7.02637 -0.425952,-0.25197 -0.870108,-0.45135 -1.306311,-0.6319 -3.127944,-7.24276 -3.689256,-11.48881 2.357917,-20.66009 z"
     id="path126"
     style="stroke-width:1.04523" />
  <path
     d="m 150.4976,233.25779 42.3062,-31.28825 v 125.15064 l -42.3062,31.28825 z"
     fill="#808080"
     stroke="#000000"
     stroke-linecap="round"
     stroke-linejoin="round"
     stroke-width="2.09048"
     id="path128" />
  <path
     d="m 105.40239,274.79328 40.23845,-29.57526"
     fill="none"
     stroke="#000000"
     stroke-width="2.09048"
     id="path130" />
  <path
     d="m 105.40239,295.92183 40.23845,-29.57525"
     fill="none"
     stroke="#000000"
     stroke-width="2.09048"
     id="path132" />
  <path
     d="m 105.40239,317.05039 40.23845,-29.57525"
     fill="none"
     stroke="#000000"
     stroke-width="2.09048"
     id="path134" />
  <path
     d="m 105.40239,338.17896 40.23845,-29.57527"
     fill="none"
     stroke="#000000"
     stroke-width="2.09048"
     id="path136" />
  <path
     d="m 105.40239,359.29568 40.23845,-29.57525"
     fill="none"
     stroke="#000000"
     stroke-width="2.09048"
     id="path138" />
  <path
     d="m 105.40239,380.42424 40.23845,-29.57525"
     fill="none"
     stroke="#000000"
     stroke-width="2.09048"
     id="path140" />
  <path
     d="m 150.4976,233.25779 42.3062,-31.28825 v 99.80464 l -42.3062,31.28825 z"
     fill="url(#a)"
     stroke="#000000"
     stroke-linecap="round"
     stroke-linejoin="round"
     stroke-width="2.09048"
     id="path142" />
  <path
     d="m 154.87506,335.63548 33.72398,-24.94141"
     fill="none"
     stroke="#000000"
     id="path144"
     style="stroke-width:1.04523" />
  <path
     d="m 155.53076,345.77387 33.09691,-24.47766"
     fill="none"
     stroke="#000000"
     id="path146"
     style="stroke-width:1.04523" />
</svg>
