<?xml version="1.0" encoding="UTF-8" standalone="no"?>
<svg
   xmlns:dc="http://purl.org/dc/elements/1.1/"
   xmlns:cc="http://creativecommons.org/ns#"
   xmlns:rdf="http://www.w3.org/1999/02/22-rdf-syntax-ns#"
   xmlns:svg="http://www.w3.org/2000/svg"
   xmlns="http://www.w3.org/2000/svg"
   xmlns:xlink="http://www.w3.org/1999/xlink"
   xmlns:sodipodi="http://sodipodi.sourceforge.net/DTD/sodipodi-0.dtd"
   xmlns:inkscape="http://www.inkscape.org/namespaces/inkscape"
   viewBox="0 0 332.59843 472.44094"
   version="1.1"
   id="svg150"
   sodipodi:docname="queen_bee.svg"
   width="88mm"
   height="125mm"
   inkscape:version="1.0.2-2 (e86c870879, 2021-01-15)">
  <metadata
     id="metadata154">
    <rdf:RDF>
      <cc:Work
         rdf:about="">
        <dc:format>image/svg+xml</dc:format>
        <dc:type
           rdf:resource="http://purl.org/dc/dcmitype/StillImage" />
        <dc:title></dc:title>
      </cc:Work>
    </rdf:RDF>
  </metadata>
  <sodipodi:namedview
     pagecolor="#ffffff"
     bordercolor="#666666"
     borderopacity="1"
     objecttolerance="10"
     gridtolerance="10"
     guidetolerance="10"
     inkscape:pageopacity="0"
     inkscape:pageshadow="2"
     inkscape:window-width="1920"
     inkscape:window-height="1017"
     id="namedview152"
     showgrid="false"
     units="mm"
     inkscape:zoom="1.0461538"
     inkscape:cx="73.259966"
     inkscape:cy="294.00348"
     inkscape:window-x="-8"
     inkscape:window-y="-8"
     inkscape:window-maximized="1"
     inkscape:current-layer="svg150" />
  <defs
     id="defs34">
    <filter
       id="g">
      <feGaussianBlur
         stdDeviation="1.5047"
         id="feGaussianBlur2" />
    </filter>
    <linearGradient
       id="f">
      <stop
         stop-color="#8088ff"
         offset="0"
         id="stop5" />
      <stop
         stop-color="#0010ff"
         stop-opacity="0"
         offset="1"
         id="stop7" />
    </linearGradient>
    <linearGradient
       id="h"
       x1="-231.91"
       x2="-3.4194"
       gradientUnits="userSpaceOnUse">
      <stop
         stop-color="#fff400"
         offset="0"
         id="stop10" />
      <stop
         stop-color="#fff"
         offset=".3472"
         id="stop12" />
      <stop
         stop-color="#ffc200"
         offset="1"
         id="stop14" />
    </linearGradient>
    <linearGradient
       id="b"
       x1="-124.82"
       x2="-122.11"
       y1="-15.057"
       y2="-12.433"
       gradientUnits="userSpaceOnUse">
      <stop
         stop-color="#fff"
         offset="0"
         id="stop17" />
      <stop
         stop-color="#f00"
         stop-opacity="0"
         offset="1"
         id="stop19" />
    </linearGradient>
    <linearGradient
       id="e"
       x1="-107.95"
       x2="-134.57001"
       y1="131.42"
       y2="114.85"
       gradientUnits="userSpaceOnUse">
      <stop
         stop-color="#000880"
         offset="0"
         id="stop22" />
      <stop
         stop-color="#0010ff"
         stop-opacity="0"
         offset="1"
         id="stop24" />
    </linearGradient>
    <linearGradient
       id="d"
       x1="-127.84"
       x2="-101.7"
       y1="109.05"
       y2="123.41"
       gradientUnits="userSpaceOnUse"
       xlink:href="#f" />
    <linearGradient
       id="c"
       x1="-122.04"
       x2="-101.7"
       y1="112.64"
       y2="123.41"
       gradientUnits="userSpaceOnUse"
       xlink:href="#f" />
    <radialGradient
       id="a"
       cx="-113.8"
       cy="-2.6842"
       r="12.706"
       gradientTransform="matrix(1,0,0,1.4348,0,1.1672)"
       gradientUnits="userSpaceOnUse">
      <stop
         stop-color="#7e0000"
         offset="0"
         id="stop29" />
      <stop
         stop-color="#f00"
         offset="1"
         id="stop31" />
    </radialGradient>
    <radialGradient
       inkscape:collect="always"
       xlink:href="#a"
       id="radialGradient995"
       gradientUnits="userSpaceOnUse"
       gradientTransform="matrix(1,0,0,1.4348,0,1.1672)"
       cx="-113.8"
       cy="-2.6842"
       r="12.706" />
    <linearGradient
       inkscape:collect="always"
       xlink:href="#b"
       id="linearGradient997"
       gradientUnits="userSpaceOnUse"
       x1="-124.82"
       y1="-15.057"
       x2="-122.11"
       y2="-12.433" />
    <radialGradient
       inkscape:collect="always"
       xlink:href="#a"
       id="radialGradient999"
       gradientUnits="userSpaceOnUse"
       gradientTransform="matrix(1,0,0,1.4348,0,1.1672)"
       cx="-113.8"
       cy="-2.6842"
       r="12.706" />
    <linearGradient
       inkscape:collect="always"
       xlink:href="#b"
       id="linearGradient1001"
       gradientUnits="userSpaceOnUse"
       x1="-124.82"
       y1="-15.057"
       x2="-122.11"
       y2="-12.433" />
    <radialGradient
       inkscape:collect="always"
       xlink:href="#a"
       id="radialGradient1003"
       gradientUnits="userSpaceOnUse"
       gradientTransform="matrix(1,0,0,1.4348,0,1.1672)"
       cx="-113.8"
       cy="-2.6842"
       r="12.706" />
    <linearGradient
       inkscape:collect="always"
       xlink:href="#b"
       id="linearGradient1005"
       gradientUnits="userSpaceOnUse"
       x1="-124.82"
       y1="-15.057"
       x2="-122.11"
       y2="-12.433" />
    <radialGradient
       inkscape:collect="always"
       xlink:href="#a"
       id="radialGradient1007"
       gradientUnits="userSpaceOnUse"
       gradientTransform="matrix(1,0,0,1.4348,0,1.1672)"
       cx="-113.8"
       cy="-2.6842"
       r="12.706" />
    <linearGradient
       inkscape:collect="always"
       xlink:href="#b"
       id="linearGradient1009"
       gradientUnits="userSpaceOnUse"
       x1="-124.82"
       y1="-15.057"
       x2="-122.11"
       y2="-12.433" />
    <radialGradient
       inkscape:collect="always"
       xlink:href="#a"
       id="radialGradient1011"
       gradientUnits="userSpaceOnUse"
       gradientTransform="matrix(1,0,0,1.4348,0,1.1672)"
       cx="-113.8"
       cy="-2.6842"
       r="12.706" />
    <linearGradient
       inkscape:collect="always"
       xlink:href="#b"
       id="linearGradient1013"
       gradientUnits="userSpaceOnUse"
       x1="-124.82"
       y1="-15.057"
       x2="-122.11"
       y2="-12.433" />
    <linearGradient
       inkscape:collect="always"
       xlink:href="#e"
       id="linearGradient1015"
       gradientUnits="userSpaceOnUse"
       x1="-107.95"
       y1="131.42"
       x2="-134.57001"
       y2="114.85" />
    <linearGradient
       inkscape:collect="always"
       xlink:href="#f"
       id="linearGradient1017"
       gradientUnits="userSpaceOnUse"
       x1="-127.84"
       y1="109.05"
       x2="-101.7"
       y2="123.41" />
    <linearGradient
       inkscape:collect="always"
       xlink:href="#f"
       id="linearGradient1019"
       gradientUnits="userSpaceOnUse"
       x1="-122.04"
       y1="112.64"
       x2="-101.7"
       y2="123.41" />
    <linearGradient
       inkscape:collect="always"
       xlink:href="#e"
       id="linearGradient1021"
       gradientUnits="userSpaceOnUse"
       x1="-107.95"
       y1="131.42"
       x2="-134.57001"
       y2="114.85" />
    <linearGradient
       inkscape:collect="always"
       xlink:href="#f"
       id="linearGradient1023"
       gradientUnits="userSpaceOnUse"
       x1="-127.84"
       y1="109.05"
       x2="-101.7"
       y2="123.41" />
    <linearGradient
       inkscape:collect="always"
       xlink:href="#f"
       id="linearGradient1025"
       gradientUnits="userSpaceOnUse"
       x1="-122.04"
       y1="112.64"
       x2="-101.7"
       y2="123.41" />
    <linearGradient
       inkscape:collect="always"
       xlink:href="#e"
       id="linearGradient1027"
       gradientUnits="userSpaceOnUse"
       x1="-107.95"
       y1="131.42"
       x2="-134.57001"
       y2="114.85" />
  </defs>
  <path
     d="M 73.678013,325.3112 C 47.964818,363.78614 -10.671334,347.96718 7.0275201,303.61709 28.753087,238.38034 78.260496,217.00558 131.35611,187.15318 l 10.25363,25.1193 c -12.89997,19.41669 -44.351046,82.21587 -67.93268,113.04158 z"
     fill-opacity="0.3099"
     stroke="#000000"
     stroke-width="2.22832"
     id="path38" />
  <path
     d="m 258.81722,325.3112 c 25.71319,38.47494 84.34934,22.65598 66.65049,-21.69411 -21.72557,-65.23675 -71.23298,-86.61151 -124.32858,-116.46391 l -10.25363,25.1193 c 12.89997,19.41669 44.35104,82.21587 67.93267,113.04158 z"
     fill-opacity="0.3099"
     stroke="#000000"
     stroke-width="2.22832"
     id="path40" />
  <path
     d="m 144.93673,367.40866 c 11.13448,12.1993 23.08497,23.65027 19.67313,49.18329 2.04291,-18.41001 1.11888,-36.56359 18.73604,-50.12038 z"
     stroke="#000000"
     stroke-width="0.575198"
     id="path42" />
  <path
     d="m 165.72807,222.51753 c 111.51632,-0.424 17.13355,163.30877 0,163.30877 -22.26513,0 -111.516318,-162.88932 0,-163.30877 z"
     fill="#fff302"
     stroke="#000000"
     stroke-width="2.2186"
     id="path44" />
  <path
     transform="matrix(0.40823856,0,0,0.71928881,-34.704921,187.06453)"
     d="m 581.91,129.71 -31.295,-29.124 24.433,35.08 -29.404,-31.032 22.182,36.545 -27.398,-32.817 19.844,37.866 -25.283,-34.472 17.427,39.037 -23.069,-35.992 14.941,40.054 -20.763,-37.369 12.397,40.913 -18.376,-38.599 9.8035,41.611 -15.916,-39.677 7.1714,42.144 -13.393,-40.598 4.511,42.512 -10.818,-41.359 1.8327,42.711 -8.1995,-41.957 -0.85272,42.742 -5.5488,-42.389 -3.5348,42.604 -2.8763,-42.653 -6.203,42.298 -0.19235,-42.75 -8.8466,41.825 2.4923,-42.678 -11.455,41.187 5.1671,-42.437 -14.019,40.386 7.8216,-42.029 -16.527,39.426 10.445,-41.455 -18.97,38.311 13.027,-40.717 -21.338,37.044 15.558,-39.819 -23.622,35.631 18.028,-38.763 -25.813,34.078 20.426,-37.555 -27.902,32.39 22.744,-36.198 -29.88,30.574 24.972,-34.698 -31.741,28.637 27.102,-33.062 -33.477,26.588 29.124,-31.295 -35.08,24.433 31.032,-29.404 -36.545,22.182 32.817,-27.398 -37.866,19.844 34.472,-25.283 -39.037,17.427 35.992,-23.069 -40.054,14.941 37.369,-20.763 -40.913,12.397 38.599,-18.376 -41.611,9.8035 39.677,-15.916 -42.144,7.1714 40.598,-13.393 -42.512,4.511 41.359,-10.818 -42.711,1.8327 41.957,-8.1995 -42.742,-0.85272 42.389,-5.5488 -42.604,-3.5348 42.653,-2.8763 -42.298,-6.203 42.75,-0.19235 -41.825,-8.8466 42.678,2.4923 -41.187,-11.455 42.437,5.1671 -40.386,-14.019 42.029,7.8216 -39.426,-16.527 41.455,10.445 -38.311,-18.97 40.717,13.027 -37.044,-21.338 39.819,15.558 -35.631,-23.622 38.763,18.028 -34.078,-25.813 37.555,20.426 -32.39,-27.902 36.198,22.744 -30.574,-29.88 34.698,24.972 -28.637,-31.741 33.062,27.102 -26.588,-33.477 31.295,29.124 -24.433,-35.08 29.404,31.032 -22.182,-36.545 27.398,32.817 -19.844,-37.866 25.283,34.472 -17.427,-39.037 23.069,35.992 -14.941,-40.054 20.763,37.369 -12.397,-40.913 18.376,38.599 -9.8035,-41.611 15.916,39.677 -7.1714,-42.144 13.393,40.598 -4.511,-42.512 10.818,41.359 -1.8327,-42.711 8.1995,41.957 0.85273,-42.742 5.5488,42.389 3.5348,-42.604 2.8763,42.653 6.203,-42.298 0.19235,42.75 8.8466,-41.825 -2.4923,42.678 11.455,-41.187 -5.1671,42.437 14.019,-40.386 -7.8216,42.029 16.527,-39.426 -10.445,41.455 18.97,-38.311 -13.027,40.717 21.338,-37.044 -15.558,39.819 23.622,-35.631 -18.028,38.763 25.813,-34.078 -20.426,37.555 27.902,-32.39 -22.744,36.198 29.88,-30.574 -24.972,34.698 31.741,-28.637 -27.102,33.062 33.477,-26.588 -29.124,31.295 35.08,-24.433 -31.032,29.404 36.545,-22.182 -32.817,27.398 37.866,-19.844 -34.472,25.283 39.037,-17.427 -35.992,23.069 40.054,-14.941 -37.369,20.763 40.913,-12.397 -38.599,18.376 41.611,-9.8035 -39.677,15.916 42.144,-7.1714 -40.598,13.393 42.512,-4.511 -41.359,10.818 42.711,-1.8327 -41.957,8.1995 42.742,0.85272 -42.389,5.5488 42.604,3.5348 -42.653,2.8763 42.298,6.203 -42.75,0.19236 41.825,8.8466 -42.678,-2.4923 41.187,11.455 -42.437,-5.1671 40.386,14.019 -42.029,-7.8216 39.426,16.527 -41.455,-10.445 38.311,18.97 -40.717,-13.027 37.044,21.338 -39.819,-15.558 35.631,23.622 -38.763,-18.028 34.078,25.813 -37.555,-20.426 32.39,27.902 -36.198,-22.744 30.574,29.88 -34.698,-24.972 28.637,31.741 -33.062,-27.102 z"
     filter="url(#g)"
     id="path46" />
  <path
     d="m 203.78998,282.24147 -13.77764,-19.46468 8.02801,27.7142 -12.28431,-22.35333 5.99335,29.26858 -10.59746,-24.89027 3.86394,30.36118 -8.74325,-27.03375 1.67373,30.97473 -6.75144,-28.75141 -0.54284,31.10061 -4.65269,-30.01592 -2.75087,30.73521 -2.48107,-30.80642 -4.91561,29.88573 -0.27009,-31.1114 -7.00252,28.5644 1.94509,-30.92583 -8.97921,26.7928 4.12975,-30.25258 -10.81424,24.59825 6.24891,-29.10171 -12.47904,22.01671 8.2701,-27.49266 -13.94666,19.08705 10.16024,-25.44916 -15.19423,15.85673 11.89077,-23.00502 -16.20259,12.3768 13.4331,-20.19763 -16.95496,8.70124 14.76394,-17.07232 -17.44036,4.88814 15.86211,-13.67727 -17.6506,0.99822 16.71002,-10.06644 -17.58243,-2.90736 17.29421,-6.29717 -17.23706,-6.76713 17.6057,-2.42847 -16.6198,-10.52032 17.63958,1.47857 -15.74046,-14.10741 17.39546,5.36223 -14.61249,-17.47225 16.87698,9.16159 -13.25468,-20.56088 16.09194,12.81629 -11.68745,-23.32582 15.05338,16.26888 -9.93611,-25.72321 13.77764,19.46467 -8.02801,-27.71419 12.2843,22.35333 -5.99334,-29.26857 10.59746,24.89027 -3.86389,-30.36118 8.74324,27.03374 -1.67374,-30.97473 6.75145,28.75141 0.54283,-31.1006 4.6527,30.01592 2.75088,-30.73521 2.48107,30.80642 4.91559,-29.88573 0.27011,31.1114 7.00251,-28.5644 -1.94509,30.92582 8.97921,-26.79279 -4.12975,30.25257 10.81425,-24.59824 -6.24891,29.10171 12.47903,-22.01672 -8.2701,27.49266 13.94666,-19.08704 -10.16024,25.44916 15.19423,-15.85673 -11.89076,23.00501 16.20258,-12.3768 -13.43309,20.19763 16.95496,-8.70124 -14.76395,17.07233 17.44036,-4.88815 -15.86211,13.67728 17.6506,-0.99823 -16.71002,10.06644 17.58243,2.90737 -17.29421,6.29716 17.23706,6.76714 -17.6057,2.42846 16.6198,10.52032 -17.63957,-1.47857 15.74045,14.10742 -17.39546,-5.36223 14.61249,17.47224 -16.87699,-9.16158 13.25469,20.56087 -16.09194,-12.81629 11.68746,23.32582 -15.05339,-16.26887 z"
     fill="#ffc400"
     id="path48"
     style="stroke-width:0.541887" />
  <path
     transform="matrix(0.40823856,0,0,0.71928881,-33.768119,188.94252)"
     d="m 581.91,129.71 -31.295,-29.124 24.433,35.08 -29.404,-31.032 22.182,36.545 -27.398,-32.817 19.844,37.866 -25.283,-34.472 17.427,39.037 -23.069,-35.992 14.941,40.054 -20.763,-37.369 12.397,40.913 -18.376,-38.599 9.8035,41.611 -15.916,-39.677 7.1714,42.144 -13.393,-40.598 4.511,42.512 -10.818,-41.359 1.8327,42.711 -8.1995,-41.957 -0.85272,42.742 -5.5488,-42.389 -3.5348,42.604 -2.8763,-42.653 -6.203,42.298 -0.19235,-42.75 -8.8466,41.825 2.4923,-42.678 -11.455,41.187 5.1671,-42.437 -14.019,40.386 7.8216,-42.029 -16.527,39.426 10.445,-41.455 -18.97,38.311 13.027,-40.717 -21.338,37.044 15.558,-39.819 -23.622,35.631 18.028,-38.763 -25.813,34.078 20.426,-37.555 -27.902,32.39 22.744,-36.198 -29.88,30.574 24.972,-34.698 -31.741,28.637 27.102,-33.062 -33.477,26.588 29.124,-31.295 -35.08,24.433 31.032,-29.404 -36.545,22.182 32.817,-27.398 -37.866,19.844 34.472,-25.283 -39.037,17.427 35.992,-23.069 -40.054,14.941 37.369,-20.763 -40.913,12.397 38.599,-18.376 -41.611,9.8035 39.677,-15.916 -42.144,7.1714 40.598,-13.393 -42.512,4.511 41.359,-10.818 -42.711,1.8327 41.957,-8.1995 -42.742,-0.85272 42.389,-5.5488 -42.604,-3.5348 42.653,-2.8763 -42.298,-6.203 42.75,-0.19235 -41.825,-8.8466 42.678,2.4923 -41.187,-11.455 42.437,5.1671 -40.386,-14.019 42.029,7.8216 -39.426,-16.527 41.455,10.445 -38.311,-18.97 40.717,13.027 -37.044,-21.338 39.819,15.558 -35.631,-23.622 38.763,18.028 -34.078,-25.813 37.555,20.426 -32.39,-27.902 36.198,22.744 -30.574,-29.88 34.698,24.972 -28.637,-31.741 33.062,27.102 -26.588,-33.477 31.295,29.124 -24.433,-35.08 29.404,31.032 -22.182,-36.545 27.398,32.817 -19.844,-37.866 25.283,34.472 -17.427,-39.037 23.069,35.992 -14.941,-40.054 20.763,37.369 -12.397,-40.913 18.376,38.599 -9.8035,-41.611 15.916,39.677 -7.1714,-42.144 13.393,40.598 -4.511,-42.512 10.818,41.359 -1.8327,-42.711 8.1995,41.957 0.85273,-42.742 5.5488,42.389 3.5348,-42.604 2.8763,42.653 6.203,-42.298 0.19235,42.75 8.8466,-41.825 -2.4923,42.678 11.455,-41.187 -5.1671,42.437 14.019,-40.386 -7.8216,42.029 16.527,-39.426 -10.445,41.455 18.97,-38.311 -13.027,40.717 21.338,-37.044 -15.558,39.819 23.622,-35.631 -18.028,38.763 25.813,-34.078 -20.426,37.555 27.902,-32.39 -22.744,36.198 29.88,-30.574 -24.972,34.698 31.741,-28.637 -27.102,33.062 33.477,-26.588 -29.124,31.295 35.08,-24.433 -31.032,29.404 36.545,-22.182 -32.817,27.398 37.866,-19.844 -34.472,25.283 39.037,-17.427 -35.992,23.069 40.054,-14.941 -37.369,20.763 40.913,-12.397 -38.599,18.376 41.611,-9.8035 -39.677,15.916 42.144,-7.1714 -40.598,13.393 42.512,-4.511 -41.359,10.818 42.711,-1.8327 -41.957,8.1995 42.742,0.85272 -42.389,5.5488 42.604,3.5348 -42.653,2.8763 42.298,6.203 -42.75,0.19236 41.825,8.8466 -42.678,-2.4923 41.187,11.455 -42.437,-5.1671 40.386,14.019 -42.029,-7.8216 39.426,16.527 -41.455,-10.445 38.311,18.97 -40.717,-13.027 37.044,21.338 -39.819,-15.558 35.631,23.622 -38.763,-18.028 34.078,25.813 -37.555,-20.426 32.39,27.902 -36.198,-22.744 30.574,29.88 -34.698,-24.972 28.637,31.741 -33.062,-27.102 z"
     fill="#ffc400"
     filter="url(#g)"
     id="path50" />
  <path
     d="m 164.59365,109.46736 c 111.51632,-0.42399 17.13355,163.30877 0,163.30877 -22.26513,0 -111.516317,-162.88932 0,-163.30877 z"
     fill="#fff302"
     stroke="#000000"
     stroke-width="2.2186"
     id="path52" />
  <path
     d="m 186.18576,206.62612 c -10.68071,34.07167 -34.42058,33.33287 -45.04314,0"
     fill="none"
     stroke="#000000"
     stroke-width="1.91097"
     id="path54" />
  <path
     d="m 105.41317,131.74393 c 0,-4.1391 3.3554,-7.4946 7.49461,-7.4946 12.61779,-1.10935 -12.13162,18.09447 -7.49461,7.4946 z"
     fill="#ffffff"
     id="path56"
     style="stroke-width:0.953294" />
  <path
     d="m 194.23156,137.17771 c 0,-4.13911 3.3554,-7.49461 7.4946,-7.49461 12.6178,-1.10935 -12.13161,18.09447 -7.4946,7.49461 z"
     fill="#ffffff"
     id="path58"
     style="stroke-width:0.953294" />
  <path
     d="M 149.8176,121.39593 C 145.60127,95.618865 93.598995,57.005697 62.015416,75.346118"
     fill="none"
     stroke="#000000"
     stroke-linecap="round"
     stroke-width="2.85988"
     id="path60" />
  <path
     d="m 112.84886,255.86374 c -1.26502,4.8089 -1.89295,9.96288 -1.99524,15.3509 17.45004,13.52819 34.91153,18.62736 52.36157,23.58353 -17.9858,-5.77696 -34.36624,-21.24129 -50.36633,-38.93443 z m 1.79753,45.00977 c 1.45969,5.84093 3.30517,11.68739 5.3925,17.45386 14.25365,3.55302 27.08689,3.38963 37.55025,-2.91193 -13.83611,-1.05434 -28.20416,-6.26743 -42.94208,-14.54154 z m 40.12033,39.83243 -20.29372,9.25716 c 1.46273,2.63204 2.93262,5.17733 4.42185,7.60347 l 15.87234,-16.86091 z m -0.93471,21.55207 -9.65305,3.41527 c 0.99028,1.42727 1.97275,2.77771 2.94797,4.08039 l 6.7047,-7.49566 z m 4.69154,4.67353 -9.09537,5.78801 c 1.28561,1.60745 2.54796,3.09554 3.77475,4.43987 z m 1.86941,3.75683 -5.84188,7.92702 c 0.60899,0.62918 1.20992,1.22584 1.79753,1.77951 l 4.04445,-9.70643 z m 4.69154,3.73882 -6.1475,8.19661 c 0.96711,0.76049 1.91087,1.40973 2.78609,1.90535 l 3.36132,-10.10206 z"
     id="path62"
     style="stroke-width:0.953294" />
  <path
     d="m 216.79602,252.25076 c -17.0325,19.1736 -34.3834,36.3796 -53.58369,42.54741 18.69123,-5.30822 37.37293,-10.78366 56.06416,-26.60357 -0.16892,-5.64788 -0.94892,-11.01436 -2.48056,-15.94384 z m -1.42002,46.51979 c -16.00867,9.48403 -31.5893,15.50437 -46.55506,16.64451 11.22885,6.76238 25.1803,6.46819 40.69516,2.08514 2.28562,-6.18821 4.27285,-12.47957 5.8599,-18.73032 z m -43.73331,41.93635 17.54347,18.63975 c 1.63318,-2.66312 3.27751,-5.46266 4.90717,-8.39432 l -22.45102,-10.246 z m 0.9347,21.55207 8.39433,9.36506 c 1.17398,-1.59162 2.37542,-3.30097 3.59506,-5.10489 l -11.98958,-4.26008 z m -4.69154,4.67352 6.59689,12.65402 c 1.45797,-1.57522 2.99954,-3.43414 4.61957,-5.51833 l -11.21646,-7.13607 z m -1.86941,3.75683 5.08697,12.20503 c 0.72687,-0.62915 1.50306,-1.36074 2.30077,-2.17504 l -7.38774,-10.03056 z m -4.69154,3.73882 3.79278,11.34229 c 0.20697,0.0252 0.41444,0.0539 0.61115,0.0539 0.87751,0 1.95482,-0.44333 3.19954,-1.25825 l -7.60348,-10.13828 z"
     id="path64"
     style="stroke-width:0.953294" />
  <path
     d="m 178.18762,119.62947 c 3.07676,-20.811351 72.9184,-55.680933 104.18549,-42.698024"
     fill="none"
     stroke="#000000"
     stroke-linecap="round"
     stroke-width="2.85988"
     id="path66" />
  <path
     d="m 242.66153,153.04545 a 30.219475,30.219475 0 1 1 -60.43895,0 30.219475,30.219475 0 1 1 60.43895,0 z"
     id="path68"
     style="stroke-width:0.976554" />
  <path
     d="m 150.27782,153.04545 a 30.219472,30.219472 0 1 1 -60.438944,0 30.219472,30.219472 0 1 1 60.438944,0 z"
     id="path70"
     style="stroke-width:0.976554" />
  <path
     d="m 150.27782,153.04545 c 0,16.68931 -13.53016,30.21947 -30.21947,30.21947 -16.68932,0 -30.219474,-13.53016 -30.219474,-30.21947 0,-3.61833 0.635933,-7.08822 1.802133,-10.30362 0.942258,-2.59813 2.230646,-5.03034 3.809538,-7.24086 0.935569,-1.30986 1.973125,-2.54187 3.101052,-3.68444 -26.326929,-8.32669 -18.043796,-12.60145 -19.370934,-14.7821 0.229217,9.1381 14.446167,9.23273 24.534945,10.5878 -20.185372,-5.45542 -23.710733,-12.97059 -23.791786,-15.15026 1.041299,7.9509 33.701856,16.39927 29.585686,12.24599 3.40163,-2.24921 -25.322051,-9.28792 -25.621853,-13.34657 3.449776,4.72359 16.564313,1.92928 36.170593,11.45498 15.76549,5.47564 30.21946,13.53016 30.21946,30.21948 z"
     id="path72"
     style="stroke-width:0.976554" />
  <path
     d="m 101.84785,137.17771 c 0,-4.13911 3.3554,-7.49461 7.49461,-7.49461 12.61779,-1.10935 -12.131621,18.09447 -7.49461,7.49461 z"
     fill="#ffffff"
     id="path74"
     style="stroke-width:0.953294" />
  <path
     d="m 181.73388,151.56386 c 0,16.69027 13.5301,30.22037 30.22036,30.22037 16.69027,0 30.22037,-13.5301 30.22037,-30.22037 0,-3.61851 -0.63596,-7.0884 -1.8022,-10.30415 -0.94229,-2.5982 -2.2308,-5.03053 -3.80965,-7.24112 -0.9356,-1.30992 -1.97322,-2.54196 -3.10116,-3.68458 26.32712,-8.32702 18.04395,-12.60254 19.37093,-14.78273 -0.22922,9.13837 -14.44716,9.23303 -24.53587,10.58824 20.18599,-5.4557 23.71127,-12.97147 23.7923,-15.1507 -1.04128,7.95114 -33.70275,16.40047 -29.58642,12.24696 -3.40174,-2.24929 25.32234,-9.28822 25.62263,-13.34706 -3.44988,4.72376 -16.56444,1.92928 -36.17178,11.45478 -15.76653,5.47581 -30.22037,13.5301 -30.22037,30.22036 z"
     id="path76"
     style="stroke-width:0.953294" />
  <path
     d="m 200.85695,134.01849 c 0,-4.13911 3.3554,-7.4946 7.49461,-7.4946 12.61779,-1.10935 -12.13162,18.09447 -7.49461,7.4946 z"
     fill="#ffffff"
     id="path78"
     style="stroke-width:0.953294" />
  <g
     transform="matrix(0.43816245,0,0,0.43816245,214.66065,40.486831)"
     id="g140">
    <path
       d="m -230.91,57.116 41.984,133.69 c 49.718,20.486 99.437,14.663 149.16,0 l 35.355,-133.69 -28.312,55.795 -28.312,-55.795 -28.312,55.795 -28.312,-125.4 -28.312,125.4 -28.312,-55.795 -28.312,55.795 z"
       fill="url(#h)"
       stroke="#000000"
       stroke-width="2"
       id="path80"
       style="fill:url(#h)" />
    <path
       d="m -104.96,-6.4131 c 0,7.0172 -5.6886,12.706 -12.706,12.706 -7.0174,0 -12.706,-5.6886 -12.706,-12.706 0,-7.0174 5.6886,-12.706 12.706,-12.706 7.0174,0 12.706,5.6886 12.706,12.706 z"
       fill="url(#a)"
       id="path82"
       style="fill:url(#radialGradient995)" />
    <path
       d="m -123.18,-16.335 c -1.9906,0 -3.4375,1.4469 -3.4375,3.4375 -0.0856,5.7268 9.2284,-3.4538 3.4375,-3.4375 z"
       fill="url(#b)"
       id="path84"
       style="fill:url(#linearGradient997)" />
    <g
       transform="translate(-57.452,60.767)"
       id="g90">
      <path
         d="m -104.96,-6.4131 c 0,7.0172 -5.6886,12.706 -12.706,12.706 -7.0174,0 -12.706,-5.6886 -12.706,-12.706 0,-7.0174 5.6886,-12.706 12.706,-12.706 7.0174,0 12.706,5.6886 12.706,12.706 z"
         fill="url(#a)"
         id="path86"
         style="fill:url(#radialGradient999)" />
      <path
         d="m -123.18,-16.335 c -1.9906,0 -3.4375,1.4469 -3.4375,3.4375 -0.0856,5.7268 9.2284,-3.4538 3.4375,-3.4375 z"
         fill="url(#b)"
         id="path88"
         style="fill:url(#linearGradient1001)" />
    </g>
    <g
       transform="translate(-113.8,61.872)"
       id="g96">
      <path
         d="m -104.96,-6.4131 c 0,7.0172 -5.6886,12.706 -12.706,12.706 -7.0174,0 -12.706,-5.6886 -12.706,-12.706 0,-7.0174 5.6886,-12.706 12.706,-12.706 7.0174,0 12.706,5.6886 12.706,12.706 z"
         fill="url(#a)"
         id="path92"
         style="fill:url(#radialGradient1003)" />
      <path
         d="m -123.18,-16.335 c -1.9906,0 -3.4375,1.4469 -3.4375,3.4375 -0.0856,5.7268 9.2284,-3.4538 3.4375,-3.4375 z"
         fill="url(#b)"
         id="path94"
         style="fill:url(#linearGradient1005)" />
    </g>
    <g
       transform="translate(57.452,65.186)"
       id="g102">
      <path
         d="m -104.96,-6.4131 c 0,7.0172 -5.6886,12.706 -12.706,12.706 -7.0174,0 -12.706,-5.6886 -12.706,-12.706 0,-7.0174 5.6886,-12.706 12.706,-12.706 7.0174,0 12.706,5.6886 12.706,12.706 z"
         fill="url(#a)"
         id="path98"
         style="fill:url(#radialGradient1007)" />
      <path
         d="m -123.18,-16.335 c -1.9906,0 -3.4375,1.4469 -3.4375,3.4375 -0.0856,5.7268 9.2284,-3.4538 3.4375,-3.4375 z"
         fill="url(#b)"
         id="path100"
         style="fill:url(#linearGradient1009)" />
    </g>
    <g
       transform="translate(113.8,62.977)"
       id="g108">
      <path
         d="m -104.96,-6.4131 c 0,7.0172 -5.6886,12.706 -12.706,12.706 -7.0174,0 -12.706,-5.6886 -12.706,-12.706 0,-7.0174 5.6886,-12.706 12.706,-12.706 7.0174,0 12.706,5.6886 12.706,12.706 z"
         fill="url(#a)"
         id="path104"
         style="fill:url(#radialGradient1011)" />
      <path
         d="m -123.18,-16.335 c -1.9906,0 -3.4375,1.4469 -3.4375,3.4375 -0.0856,5.7268 9.2284,-3.4538 3.4375,-3.4375 z"
         fill="url(#b)"
         id="path106"
         style="fill:url(#linearGradient1013)" />
    </g>
    <g
       transform="matrix(0.5725,0,0,0.5725,-50.383,48.048)"
       id="g118">
      <path
         d="m -116.56,83.964 16.799,35.579 -16.799,35.579 -16.799,-35.579 z"
         fill="#0010ff"
         id="path110" />
      <path
         d="m -116.56,83.964 16.799,35.579 -16.799,35.579 -16.799,-35.579 z"
         fill="url(#e)"
         id="path112"
         style="fill:url(#linearGradient1015)" />
      <path
         d="m -116.56,83.964 16.799,35.579 -16.799,35.579 -16.799,-35.579 z"
         fill="url(#d)"
         id="path114"
         style="fill:url(#linearGradient1017)" />
      <path
         d="m -116.56,83.964 16.799,35.579 -16.799,35.579 c -17.765,-51.977 -0.29532,-32.654 0,-71.157 z"
         fill="url(#c)"
         id="path116"
         style="fill:url(#linearGradient1019)" />
    </g>
    <g
       transform="matrix(0.5725,0,0,0.5725,-106.73,48.048)"
       id="g128">
      <path
         d="m -116.56,83.964 16.799,35.579 -16.799,35.579 -16.799,-35.579 z"
         fill="#0010ff"
         id="path120" />
      <path
         d="m -116.56,83.964 16.799,35.579 -16.799,35.579 -16.799,-35.579 z"
         fill="url(#e)"
         id="path122"
         style="fill:url(#linearGradient1021)" />
      <path
         d="m -116.56,83.964 16.799,35.579 -16.799,35.579 -16.799,-35.579 z"
         fill="url(#d)"
         id="path124"
         style="fill:url(#linearGradient1023)" />
      <path
         d="m -116.56,83.964 16.799,35.579 -16.799,35.579 c -17.765,-51.977 -0.29532,-32.654 0,-71.157 z"
         fill="url(#c)"
         id="path126"
         style="fill:url(#linearGradient1025)" />
    </g>
    <g
       transform="matrix(0.5725,0,0,0.5725,4.8597,48.048)"
       id="g138">
      <path
         d="m -116.56,83.964 16.799,35.579 -16.799,35.579 -16.799,-35.579 z"
         fill="#0010ff"
         id="path130" />
      <path
         d="m -116.56,83.964 16.799,35.579 -16.799,35.579 -16.799,-35.579 z"
         fill="url(#e)"
         id="path132"
         style="fill:url(#linearGradient1027)" />
      <path
         d="m -116.56,83.964 16.799,35.579 -16.799,35.579 -16.799,-35.579 z"
         fill="url(#d)"
         id="path134"
         style="fill:url(#d)" />
      <path
         d="m -116.56,83.964 16.799,35.579 -16.799,35.579 c -17.765,-51.977 -0.29532,-32.654 0,-71.157 z"
         fill="url(#c)"
         id="path136"
         style="fill:url(#c)" />
    </g>
  </g>
  <path
     d="m 114.04048,267.00775 c -25.195562,12.85803 -29.743727,16.58827 -42.451134,32.02495 8.75629,41.16991 31.308084,39.88868 50.643744,79.68965"
     fill="none"
     stroke="#000000"
     stroke-width="1.90659"
     id="path142" />
  <path
     d="m 130.45831,378.79275 a 12.288896,6.3304353 50.453757 1 1 -9.76279,8.06107 12.288896,6.3304353 50.453757 1 1 9.76279,-8.06107 z"
     fill="#fff302"
     stroke="#000000"
     stroke-width="1.90659"
     id="path144" />
  <path
     d="m 219.0458,271.4787 c 25.19555,12.85803 29.74372,16.58826 42.45113,32.02495 -8.75629,41.1699 -31.30808,39.88868 -50.64374,79.68965"
     fill="none"
     stroke="#000000"
     stroke-width="1.90659"
     id="path146" />
  <path
     d="m 204.1151,380.27989 a 6.3304353,12.288896 39.546243 1 0 9.76279,8.06107 6.3304353,12.288896 39.546243 1 0 -9.76279,-8.06107 z"
     fill="#fff302"
     stroke="#000000"
     stroke-width="1.90659"
     id="path148" />
  <path
     d="m 114.04048,240.31593 c -25.195562,12.85803 -29.743727,16.58827 -42.451134,32.02496 8.75629,41.1699 31.308084,39.88867 50.643744,79.68964"
     fill="none"
     stroke="#000000"
     stroke-width="1.90659"
     id="path979" />
  <path
     d="m 130.45832,352.10093 a 12.288896,6.3304353 50.453757 1 1 -9.76279,8.06107 12.288896,6.3304353 50.453757 1 1 9.76279,-8.06107 z"
     fill="#fff302"
     stroke="#000000"
     stroke-width="1.90659"
     id="path981" />
  <path
     d="m 219.0458,244.78688 c 25.19555,12.85803 29.74372,16.58827 42.45113,32.02495 -8.75629,41.16991 -31.30808,39.88868 -50.64374,79.68965"
     fill="none"
     stroke="#000000"
     stroke-width="1.90659"
     id="path983" />
  <path
     d="m 204.1151,353.58807 a 6.3304353,12.288896 39.546243 1 0 9.76279,8.06107 6.3304353,12.288896 39.546243 1 0 -9.76279,-8.06107 z"
     fill="#fff302"
     stroke="#000000"
     stroke-width="1.90659"
     id="path985" />
  <path
     d="m 114.04048,293.70039 c -25.195562,12.85803 -29.743727,16.58826 -42.451134,32.02495 8.75629,41.1699 31.308084,39.88868 50.643744,79.68965"
     fill="none"
     stroke="#000000"
     stroke-width="1.90659"
     id="path987" />
  <path
     d="m 130.45832,405.48539 a 12.288896,6.3304353 50.453757 1 1 -9.76279,8.06107 12.288896,6.3304353 50.453757 1 1 9.76279,-8.06107 z"
     fill="#fff302"
     stroke="#000000"
     stroke-width="1.90659"
     id="path989" />
  <path
     d="m 219.0458,298.17134 c 25.19555,12.85802 29.74372,16.58826 42.45113,32.02495 -8.75629,41.1699 -31.30808,39.88867 -50.64374,79.68965"
     fill="none"
     stroke="#000000"
     stroke-width="1.90659"
     id="path991" />
  <path
     d="m 204.1151,406.97253 a 6.3304353,12.288896 39.546243 1 0 9.76279,8.06107 6.3304353,12.288896 39.546243 1 0 -9.76279,-8.06107 z"
     fill="#fff302"
     stroke="#000000"
     stroke-width="1.90659"
     id="path993" />
</svg>
