<?xml version="1.0" encoding="UTF-8" standalone="no"?>
<svg
   xmlns:dc="http://purl.org/dc/elements/1.1/"
   xmlns:cc="http://creativecommons.org/ns#"
   xmlns:rdf="http://www.w3.org/1999/02/22-rdf-syntax-ns#"
   xmlns:svg="http://www.w3.org/2000/svg"
   xmlns="http://www.w3.org/2000/svg"
   xmlns:sodipodi="http://sodipodi.sourceforge.net/DTD/sodipodi-0.dtd"
   xmlns:inkscape="http://www.inkscape.org/namespaces/inkscape"
   width="104.5849"
   height="203.17897"
   viewBox="0 0 104.5849 203.17897"
   id="svg2"
   version="1.1"
   inkscape:version="1.0.2-2 (e86c870879, 2021-01-15)"
   sodipodi:docname="question.svg">
  <title
     id="title4232">glossy question mark</title>
  <defs
     id="defs4">
    <filter
       inkscape:collect="always"
       style="color-interpolation-filters:sRGB"
       id="filter4214"
       x="-0.047237881"
       width="1.0944757"
       y="-0.029081514"
       height="1.058163">
      <feGaussianBlur
         inkscape:collect="always"
         stdDeviation="1.9895178"
         id="feGaussianBlur4216" />
    </filter>
    <filter
       inkscape:collect="always"
       style="color-interpolation-filters:sRGB"
       id="filter4228"
       x="-0.093599997"
       width="1.1872"
       y="-0.093599997"
       height="1.1872">
      <feGaussianBlur
         inkscape:collect="always"
         stdDeviation="1.4799359"
         id="feGaussianBlur4230" />
    </filter>
  </defs>
  <sodipodi:namedview
     id="base"
     pagecolor="#ffffff"
     bordercolor="#666666"
     borderopacity="1.0"
     inkscape:pageopacity="0.0"
     inkscape:pageshadow="2"
     inkscape:zoom="1.839502"
     inkscape:cx="124.68679"
     inkscape:cy="103.10535"
     inkscape:document-units="px"
     inkscape:current-layer="layer1"
     showgrid="false"
     fit-margin-top="0"
     fit-margin-left="0"
     fit-margin-right="0"
     fit-margin-bottom="0"
     units="px"
     inkscape:window-width="1920"
     inkscape:window-height="1017"
     inkscape:window-x="-8"
     inkscape:window-y="-8"
     inkscape:window-maximized="1"
     inkscape:document-rotation="0" />
  <metadata
     id="metadata7">
    <rdf:RDF>
      <cc:Work
         rdf:about="">
        <dc:format>image/svg+xml</dc:format>
        <dc:type
           rdf:resource="http://purl.org/dc/dcmitype/StillImage" />
        <dc:title>glossy question mark</dc:title>
      </cc:Work>
    </rdf:RDF>
  </metadata>
  <g
     inkscape:label="Layer 1"
     inkscape:groupmode="layer"
     id="layer1"
     transform="translate(-80.100503,-19.98277)">
    <circle
       style="opacity:1;fill:#555753;fill-opacity:1;stroke:none;stroke-width:1.79466;stroke-linecap:round;stroke-linejoin:round;stroke-miterlimit:4;stroke-dasharray:none;stroke-dashoffset:0;stroke-opacity:1;filter:url(#filter4228)"
       id="circle4218"
       cx="211.89894"
       cy="206.50879"
       r="18.973537"
       transform="matrix(0.94535333,0,0,0.94535333,-60.515499,6.643519)" />
    <path
       style="opacity:1;fill:#555753;fill-opacity:1;stroke:none;stroke-width:1.79466;stroke-linecap:round;stroke-linejoin:round;stroke-miterlimit:4;stroke-dasharray:none;stroke-dashoffset:0;stroke-opacity:1;filter:url(#filter4214)"
       d="m 204.0605,18.885176 c -27.91275,-6.28e-4 -50.54093,22.626772 -50.54127,50.539522 0.007,3.017368 0.37541,6.012702 0.82723,8.996058 2.2692,12.79838 11.93913,20.03753 21.23791,20.56317 11.4984,1.6e-4 20.82,-9.32065 20.8208,-20.81905 -0.0109,-9.403681 -6.32369,-17.632853 -15.40353,-20.079454 1.7202,-5.815769 6.20504,-12.415813 16.81087,-17.327886 31.76975,-11.693272 63.23515,18.338313 42.43027,48.64497 -11.09308,22.283224 -67.66075,44.590774 -48.10517,84.963944 4.3656,9.73863 15.36613,9.50209 20.36879,7.79983 5.00265,-1.70226 15.99388,-15.61802 6.49778,-33.65816 -9.4961,-18.04013 35.1069,-43.15191 35.59585,-79.083422 C 254.59968,41.51263 231.97257,18.885512 204.0605,18.885176 Z"
       id="path4200"
       inkscape:connector-curvature="0"
       sodipodi:nodetypes="ccccccccczzcc"
       transform="matrix(0.94535333,0,0,0.94535333,-60.515499,6.643519)" />
    <path
       sodipodi:nodetypes="ccccccccczzcc"
       inkscape:connector-curvature="0"
       id="path4174"
       d="M 131.33241,22.020167 C 104.945,22.019574 83.553367,43.410462 83.553047,69.797873 c 0.007,2.852479 0.3549,5.684128 0.78203,8.504453 2.14519,12.098991 11.28669,18.942546 20.077333,19.439461 10.87005,1.51e-4 19.68225,-8.811307 19.68301,-19.681358 -0.0103,-8.889801 -5.97812,-16.669276 -14.56178,-18.982179 1.6262,-5.497956 5.86595,-11.73733 15.89221,-16.380974 30.03364,-11.054274 59.77956,17.336185 40.1116,45.986684 -10.48688,21.06552 -63.96332,42.15404 -45.47638,80.32095 4.12703,9.20645 14.52642,8.98283 19.2557,7.37359 4.72927,-1.60923 15.11987,-14.76454 6.1427,-31.81885 -8.97717,-17.0543 33.18842,-40.7938 33.65065,-74.761777 -3.3e-4,-26.386767 -21.39094,-47.777388 -47.77771,-47.777706 z"
       style="opacity:1;fill:#fcaf3e;fill-opacity:1;stroke:#f57900;stroke-width:1.69658;stroke-linecap:round;stroke-linejoin:round;stroke-miterlimit:4;stroke-dasharray:none;stroke-dashoffset:0;stroke-opacity:1" />
    <circle
       r="17.936697"
       cy="200.27524"
       cx="137.68114"
       id="circle4176"
       style="opacity:1;fill:#fcaf3e;fill-opacity:1;stroke:#f57900;stroke-width:1.69658;stroke-linecap:round;stroke-linejoin:round;stroke-miterlimit:4;stroke-dasharray:none;stroke-dashoffset:0;stroke-opacity:1" />
    <path
       style="opacity:1;fill:#ffffff;fill-opacity:1;stroke:none;stroke-width:1.96517;stroke-linecap:round;stroke-linejoin:round;stroke-miterlimit:4;stroke-dasharray:none;stroke-dashoffset:0;stroke-opacity:1"
       d="m 105.56283,61.136975 a 16.050078,16.050078 0 0 0 -6.796553,1.529028 18.894724,18.894724 0 0 1 1.351533,-0.04827 18.894724,18.894724 0 0 1 18.89486,18.894865 18.894724,18.894724 0 0 1 -0.84237,5.577371 16.050078,16.050078 0 0 0 3.44266,-9.904428 16.050078,16.050078 0 0 0 -16.05013,-16.048566 z"
       id="path4178"
       inkscape:connector-curvature="0" />
    <path
       style="opacity:1;fill:#ffffff;fill-opacity:1;stroke:none;stroke-width:1.79466;stroke-linecap:round;stroke-linejoin:round;stroke-miterlimit:4;stroke-dasharray:none;stroke-dashoffset:0;stroke-opacity:1"
       d="m 131.52182,23.435433 c -8.97979,-2.02e-4 -17.36733,2.527385 -24.49743,6.904514 5.98181,-2.681854 12.60638,-4.184546 19.58635,-4.184388 26.47626,3.18e-4 47.93982,21.462079 47.94015,47.938346 -0.4638,34.083195 -42.77268,57.904225 -33.76506,75.016365 5.2368,9.94858 3.90203,18.56897 0.93691,24.36514 4.89573,-4.07299 11.16462,-15.52043 3.66428,-29.76915 -8.81095,-16.73855 32.57383,-40.03905 33.0275,-73.378124 -3.3e-4,-25.898231 -20.99447,-46.892391 -46.8927,-46.892703 z"
       id="path4183"
       inkscape:connector-curvature="0"
       sodipodi:nodetypes="ccccscscc" />
    <path
       style="opacity:1;fill:#ffffff;fill-opacity:1;stroke:none;stroke-width:1.79466;stroke-linecap:round;stroke-linejoin:round;stroke-miterlimit:4;stroke-dasharray:none;stroke-dashoffset:0;stroke-opacity:1"
       d="m 138.40005,184.52823 a 15.610075,15.610075 0 0 0 -5.11794,0.88217 17.58498,17.58498 0 0 1 17.04269,17.55691 17.58498,17.58498 0 0 1 -3.1961,10.0945 15.610075,15.610075 0 0 0 6.88231,-12.92423 15.610075,15.610075 0 0 0 -15.61096,-15.60935 z"
       id="circle4188"
       inkscape:connector-curvature="0" />
    <path
       style="opacity:1;fill:#f57900;fill-opacity:1;stroke:none;stroke-width:1.79466;stroke-linecap:round;stroke-linejoin:round;stroke-miterlimit:4;stroke-dasharray:none;stroke-dashoffset:0;stroke-opacity:1"
       d="m 123.56387,192.90258 a 15.813724,15.813724 0 0 0 -2.1341,7.90324 15.813724,15.813724 0 0 0 15.81461,15.81463 15.813724,15.813724 0 0 0 9.29668,-3.04573 17.603795,17.603795 0 0 1 -5.87818,1.03043 17.603795,17.603795 0 0 1 -17.60364,-17.60362 17.603795,17.603795 0 0 1 0.50463,-4.09895 z"
       id="circle4195"
       inkscape:connector-curvature="0" />
  </g>
</svg>
