<?xml version="1.0" encoding="UTF-8" standalone="no"?>
<svg
   xmlns:dc="http://purl.org/dc/elements/1.1/"
   xmlns:cc="http://creativecommons.org/ns#"
   xmlns:rdf="http://www.w3.org/1999/02/22-rdf-syntax-ns#"
   xmlns:svg="http://www.w3.org/2000/svg"
   xmlns="http://www.w3.org/2000/svg"
   xmlns:xlink="http://www.w3.org/1999/xlink"
   xmlns:sodipodi="http://sodipodi.sourceforge.net/DTD/sodipodi-0.dtd"
   xmlns:inkscape="http://www.inkscape.org/namespaces/inkscape"
   width="119.32351mm"
   height="86.987114mm"
   viewBox="0 0 422.79983 308.22205"
   id="svg2"
   version="1.1"
   inkscape:version="1.0.2-2 (e86c870879, 2021-01-15)"
   sodipodi:docname="rake.svg">
  <defs
     id="defs4">
    <linearGradient
       id="linearGradient4242"
       inkscape:collect="always">
      <stop
         id="stop4244"
         offset="0"
         style="stop-color:#04534f;stop-opacity:1" />
      <stop
         style="stop-color:#033e33;stop-opacity:1"
         offset="0.04534152"
         id="stop4246" />
      <stop
         id="stop4248"
         offset="0.26433247"
         style="stop-color:#033e33;stop-opacity:1;" />
      <stop
         id="stop4250"
         offset="0.52029026"
         style="stop-color:#033e33;stop-opacity:1" />
      <stop
         id="stop4252"
         offset="1"
         style="stop-color:#04534f;stop-opacity:1" />
    </linearGradient>
    <linearGradient
       inkscape:collect="always"
       id="linearGradient4220">
      <stop
         style="stop-color:#04534f;stop-opacity:1"
         offset="0"
         id="stop4222" />
      <stop
         id="stop4228"
         offset="0.06147293"
         style="stop-color:#033e33;stop-opacity:1" />
      <stop
         style="stop-color:#033e33;stop-opacity:1;"
         offset="0.1853774"
         id="stop4232" />
      <stop
         style="stop-color:#033e33;stop-opacity:1"
         offset="0.41943201"
         id="stop4230" />
      <stop
         style="stop-color:#04534f;stop-opacity:1"
         offset="1"
         id="stop4224" />
    </linearGradient>
    <linearGradient
       inkscape:collect="always"
       id="linearGradient4200">
      <stop
         style="stop-color:#dabd8f;stop-opacity:1"
         offset="0"
         id="stop4202" />
      <stop
         id="stop4208"
         offset="0.07375883"
         style="stop-color:#dcc194;stop-opacity:1;" />
      <stop
         style="stop-color:#d5b57d;stop-opacity:1"
         offset="0.20644374"
         id="stop4214" />
      <stop
         id="stop4216"
         offset="0.45966178"
         style="stop-color:#dabd8f;stop-opacity:1" />
      <stop
         style="stop-color:#d5b47a;stop-opacity:1"
         offset="0.73225713"
         id="stop4210" />
      <stop
         id="stop4212"
         offset="0.94130152"
         style="stop-color:#e2cba2;stop-opacity:1;" />
      <stop
         style="stop-color:#e6d0a9;stop-opacity:1"
         offset="1"
         id="stop4204" />
    </linearGradient>
    <linearGradient
       inkscape:collect="always"
       id="linearGradient4192">
      <stop
         style="stop-color:#04534f;stop-opacity:1"
         offset="0"
         id="stop4194" />
      <stop
         style="stop-color:#04534f;stop-opacity:1"
         offset="1"
         id="stop4196" />
    </linearGradient>
    <linearGradient
       inkscape:collect="always"
       xlink:href="#linearGradient4192"
       id="linearGradient4198"
       x1="-179.80716"
       y1="633.65393"
       x2="-178.29193"
       y2="687.19208"
       gradientUnits="userSpaceOnUse"
       gradientTransform="matrix(0.58278762,0,0,0.58278762,-149.79284,91.006475)" />
    <linearGradient
       inkscape:collect="always"
       xlink:href="#linearGradient4200"
       id="linearGradient4206"
       x1="-99.500023"
       y1="561.42804"
       x2="-85.357887"
       y2="580.11591"
       gradientUnits="userSpaceOnUse"
       gradientTransform="matrix(0.58278762,0,0,0.58278762,-149.79284,91.006475)" />
    <linearGradient
       inkscape:collect="always"
       xlink:href="#linearGradient4220"
       id="linearGradient4226"
       x1="-183.59523"
       y1="628.35071"
       x2="-158.59396"
       y2="538.19458"
       gradientUnits="userSpaceOnUse"
       gradientTransform="matrix(0.58278762,0,0,0.58278762,-149.79284,91.006475)" />
    <linearGradient
       inkscape:collect="always"
       xlink:href="#linearGradient4242"
       id="linearGradient4240"
       gradientUnits="userSpaceOnUse"
       x1="-117.68278"
       y1="607.89514"
       x2="-134.60284"
       y2="583.90399"
       gradientTransform="matrix(0.58278762,0,0,0.58278762,-149.79284,91.006475)" />
  </defs>
  <sodipodi:namedview
     id="base"
     pagecolor="#ffffff"
     bordercolor="#666666"
     borderopacity="1.0"
     inkscape:pageopacity="0.0"
     inkscape:pageshadow="2"
     inkscape:zoom="0.35"
     inkscape:cx="-170.34399"
     inkscape:cy="651.21322"
     inkscape:document-units="px"
     inkscape:current-layer="layer1"
     showgrid="false"
     inkscape:window-width="1920"
     inkscape:window-height="1017"
     inkscape:window-x="-8"
     inkscape:window-y="-8"
     inkscape:window-maximized="1"
     fit-margin-top="0"
     fit-margin-left="0"
     fit-margin-right="0"
     fit-margin-bottom="0"
     inkscape:document-rotation="0" />
  <metadata
     id="metadata7">
    <rdf:RDF>
      <cc:Work
         rdf:about="">
        <dc:format>image/svg+xml</dc:format>
        <dc:type
           rdf:resource="http://purl.org/dc/dcmitype/StillImage" />
        <dc:title></dc:title>
      </cc:Work>
    </rdf:RDF>
  </metadata>
  <g
     inkscape:label="Calque 1"
     inkscape:groupmode="layer"
     id="layer1"
     transform="translate(359.03259,-218.12985)">
    <path
       style="opacity:1;fill:url(#linearGradient4206);fill-opacity:1;stroke:none;stroke-width:0.291394;stroke-linecap:round;stroke-linejoin:round;stroke-miterlimit:4;stroke-dasharray:none;stroke-dashoffset:0;stroke-opacity:1"
       d="M -224.70547,428.79648 52.132766,220.39512 c 8.904092,-6.63078 16.281834,2.72975 8.076837,9.67945 l -280.499793,215.35281 -28.69934,15.74784 -5.73987,-4.12092 27.37475,-22.37077 z"
       id="path4180"
       inkscape:connector-curvature="0"
       sodipodi:nodetypes="cccccccc" />
    <path
       style="opacity:1;fill:url(#linearGradient4198);fill-opacity:1;stroke:none;stroke-width:0.291394;stroke-linecap:round;stroke-linejoin:round;stroke-miterlimit:4;stroke-dasharray:none;stroke-dashoffset:0;stroke-opacity:1"
       d="m -223.4153,428.25269 c -1.2064,-0.0153 -2.51391,0.20119 -3.90878,0.68979 l -17.48363,14.25781 c -0.78526,0.63702 -1.69756,1.24869 -2.91394,1.35339 -4.673,0.40219 -9.0546,3.48646 -12.80084,6.76466 -1.55689,1.36238 -3.67543,2.6486 -6.45229,3.07638 l -89.08276,-16.50213 c -4.08922,14.66647 -5.34885,30.48603 5.41127,51.20222 l 1.77568,0.34262 c 0.32501,-0.59083 0.53777,-1.24871 0.40977,-2.11147 -6.4946,-25.81741 -6.21229,-23.01353 -4.42895,-37.00701 0.0583,-0.45783 0.41904,-0.60743 0.83207,-0.61808 0.13767,-0.003 0.28097,0.009 0.41887,0.0296 l 5.88707,0.88329 c 1.50383,0.22557 1.33122,0.9165 1.25094,1.47177 -3.07531,21.27 3.16573,29.11822 7.54551,39.64777 l 2.62482,0.50652 c 0.45199,-0.69989 0.81379,-1.45399 0.65564,-2.5201 -6.99101,-18.6137 -6.48846,-19.00582 -4.42896,-37.00702 0.0525,-0.45853 0.42018,-0.60742 0.8332,-0.61807 0.13768,-0.004 0.27984,0.009 0.41774,0.0296 l 5.88706,0.88329 c 1.50384,0.22558 1.33124,0.91651 1.25095,1.47177 -3.12267,21.59756 3.35721,29.36223 7.74357,40.14177 l 2.40513,0.46441 c 0.46258,-0.71018 0.83922,-1.4725 0.6784,-2.55652 -6.991,-18.6137 -6.48846,-19.00582 -4.42896,-37.00702 0.0524,-0.45853 0.41905,-0.60629 0.83207,-0.61693 0.13767,-0.004 0.28098,0.008 0.41888,0.0284 l 5.88706,0.88329 c 1.50384,0.22557 1.33123,0.9165 1.25095,1.47177 -3.1269,21.62685 3.373,29.38375 7.7595,40.18616 l 2.17862,0.42002 c 0.54916,-0.80383 1.07242,-1.62306 0.88784,-2.86727 -6.991,-18.6137 -6.48846,-19.00582 -4.42895,-37.00701 0.0525,-0.45854 0.42018,-0.60743 0.8332,-0.61808 0.13767,-0.004 0.27984,0.009 0.41774,0.0296 l 5.88706,0.88215 c 1.50384,0.22557 1.33123,0.9165 1.25095,1.47177 -3.16358,21.88047 3.52711,29.56467 7.91316,40.56861 l 1.94301,0.37449 c 0.57899,-0.84542 1.16519,-1.68638 0.97093,-2.99589 -6.99101,-18.6137 -6.48846,-19.00582 -4.42896,-37.00701 0.0524,-0.45854 0.41905,-0.60743 0.83207,-0.61808 0.13767,-0.003 0.28098,0.009 0.41888,0.0296 l 5.88706,0.88329 c 1.50384,0.22557 1.33123,0.9165 1.25094,1.47176 -3.17844,21.98333 3.59013,29.63591 7.97464,40.72342 l 1.7973,0.34603 c 0.60465,-0.88916 1.25792,-1.74896 1.05403,-3.12337 -6.991,-18.6137 -6.48846,-19.00582 -4.42896,-37.00701 0.0524,-0.45854 0.42019,-0.60743 0.83321,-0.61808 0.13767,-0.003 0.27983,0.009 0.41773,0.0296 l 5.88707,0.88329 c 1.50383,0.22556 1.33123,0.9165 1.25095,1.47176 -3.19338,22.08657 3.65492,29.70688 8.03723,40.87937 l 1.77226,0.34147 c 0.59379,-0.86942 1.21722,-1.72087 1.0176,-3.06646 -6.991,-18.6137 -6.48846,-19.00582 -4.42895,-37.00701 0.0524,-0.45854 0.41904,-0.60743 0.83206,-0.61808 0.13768,-0.003 0.28098,0.009 0.41888,0.0296 l 5.88707,0.88329 c 1.50383,0.22556 1.33123,0.9165 1.25095,1.47176 -3.18673,22.04061 3.62541,29.67541 8.00877,40.80993 l 1.71649,0.33124 c 0.61711,-0.91495 1.31,-1.78419 1.1007,-3.1951 -6.99101,-18.61369 -6.48846,-19.00581 -4.42896,-37.00701 0.0524,-0.45853 0.42018,-0.60629 0.8332,-0.61693 0.13768,-0.003 0.27984,0.008 0.41774,0.0284 l 5.88707,0.88328 c 1.50384,0.22557 1.33123,0.9165 1.25094,1.47177 -3.20178,22.14477 3.69182,29.74614 8.07252,40.96701 l 1.69145,0.32554 c 0.6073,-0.89433 1.26813,-1.75635 1.06313,-3.13818 -6.991,-18.61369 -6.48846,-19.00581 -4.42895,-37.00701 0.0525,-0.45853 0.41904,-0.60629 0.83206,-0.61693 0.13767,-0.004 0.28098,0.008 0.41888,0.0284 l 5.88706,0.88328 c 1.50384,0.22557 1.33124,0.9165 1.25095,1.47177 -3.19504,22.09816 3.66209,29.71434 8.04406,40.89644 l 1.51616,0.29253 c 0.64813,-1.01454 1.49427,-1.91076 1.26574,-3.4512 -6.991,-18.61369 -6.48846,-19.00581 -4.42895,-37.00701 0.0524,-0.45853 0.42018,-0.60629 0.8332,-0.61693 0.13767,-0.004 0.27984,0.008 0.41774,0.0284 l 5.88707,0.88329 c 1.50383,0.22557 1.33122,0.9165 1.25094,1.47176 -3.23172,22.35177 3.82471,29.88307 8.19773,41.2789 l 1.40005,0.26976 c 0.64315,-0.99129 1.45357,-1.88266 1.22932,-3.39428 -6.99101,-18.61369 -6.48846,-19.00582 -4.42896,-37.00701 0.0525,-0.45853 0.41905,-0.60629 0.83207,-0.61694 0.13767,-0.003 0.28098,0.008 0.41888,0.0284 l 5.88706,0.88329 c 1.50384,0.22558 1.33123,0.91651 1.25095,1.47177 -3.22504,22.30556 3.79315,29.85308 8.16813,41.20946 l 1.2259,0.23676 c 0.65501,-1.1293 1.67983,-2.03625 1.43193,-3.70731 -6.99101,-18.61369 -6.48846,-19.00581 -4.42896,-37.00701 0.0525,-0.45854 0.42019,-0.60743 0.83321,-0.61808 0.13767,-0.003 0.27984,0.009 0.41774,0.0296 l 5.88706,0.88215 c 1.50384,0.22558 1.33123,0.91651 1.25095,1.47177 -3.26029,22.54941 3.95338,30.01001 8.3161,41.57711 l 0.5488,0.13147 0.5075,0.0859 c 0.65379,-1.14636 1.70525,-2.05476 1.4547,-3.74373 -6.99101,-18.61369 -6.48847,-19.00582 -4.42896,-37.00701 0.0525,-0.45853 0.41905,-0.60629 0.83207,-0.61693 0.13767,-0.003 0.28097,0.008 0.41887,0.0284 l 5.88707,0.88328 c 1.50384,0.22557 1.33123,0.9165 1.25094,1.47177 -3.26028,22.5494 5.71836,41.41617 8.31497,41.57711 l 0.47387,0.1071 0.93529,0.21731 c 0.77321,-0.58801 1.35891,-1.84171 0.88557,-3.12224 -5.13675,-7.44656 -6.35832,-21.94085 -0.4166,-49.32865 l -92.86324,-16.36162 c 0.0472,-0.21137 0.0106,-0.5976 0.554,-1.01842 2.83402,-2.19471 5.582,-4.14711 8.32521,-6.24448 1.5749,-1.20411 2.73564,-0.54618 3.43413,0.4166 l 3.85072,5.3077 18.7323,-13.11272 c 1.50419,-7.6774 -2.06454,-14.55281 -8.57904,-14.63572 z"
       id="path4147"
       inkscape:connector-curvature="0"
       sodipodi:nodetypes="sccsscccccssccscccssccscccscccscccssccscccssccscccssccscccssccscccssccscccssccscccscccscccscccscccssccsccccscscsccccccsssccs" />
    <path
       sodipodi:nodetypes="sccssccsssccs"
       inkscape:connector-curvature="0"
       id="path4218"
       d="m -223.4153,428.25269 c -1.2064,-0.0153 -2.51391,0.20119 -3.90878,0.68979 l -17.48363,14.25781 c -0.78526,0.63702 -1.69756,1.24869 -2.91394,1.35339 -4.673,0.40219 -9.0546,3.48646 -12.80084,6.76466 -1.55689,1.36238 -3.67543,2.6486 -6.45229,3.07638 l 17.24216,3.14501 c 0.0472,-0.21137 0.0106,-0.5976 0.554,-1.01842 2.83402,-2.19471 5.582,-4.14711 8.32521,-6.24448 1.5749,-1.20411 2.73564,-0.54618 3.43413,0.4166 l 3.85072,5.3077 18.7323,-13.11272 c 1.50419,-7.6774 -2.06454,-14.55281 -8.57904,-14.63572 z"
       style="opacity:1;fill:url(#linearGradient4226);fill-opacity:1;stroke:none;stroke-width:0.291394;stroke-linecap:round;stroke-linejoin:round;stroke-miterlimit:4;stroke-dasharray:none;stroke-dashoffset:0;stroke-opacity:1" />
    <path
       style="opacity:1;fill:url(#linearGradient4240);fill-opacity:1;stroke:none;stroke-width:0.291394;stroke-linecap:round;stroke-linejoin:round;stroke-miterlimit:4;stroke-dasharray:none;stroke-dashoffset:0;stroke-opacity:1"
       d="m -223.4153,428.25269 c -1.2064,-0.0153 -2.51391,0.20119 -3.90878,0.68979 l -17.48363,14.25781 c -0.78526,0.63702 -1.69756,1.24869 -2.91394,1.35339 -4.673,0.40219 -9.0546,3.48646 -12.80084,6.76466 -1.55689,1.36238 -3.67543,2.6486 -6.45229,3.07638 l 17.24216,3.14501 c 0.0472,-0.21137 0.0106,-0.5976 0.554,-1.01842 2.83402,-2.19471 5.582,-4.14711 8.32521,-6.24448 1.5749,-1.20411 2.73564,-0.54618 3.43413,0.4166 l 3.85072,5.3077 18.7323,-13.11272 c 1.50419,-7.6774 -2.06454,-14.55281 -8.57904,-14.63572 z"
       id="path4234"
       inkscape:connector-curvature="0"
       sodipodi:nodetypes="sccssccsssccs" />
    <path
       style="opacity:1;fill:#a2b9b4;fill-opacity:1;stroke:none;stroke-width:0.291394;stroke-linecap:round;stroke-linejoin:round;stroke-miterlimit:4;stroke-dasharray:none;stroke-dashoffset:0;stroke-opacity:1"
       d="m -228.57324,434.87493 a 0.93662293,0.41627688 0 0 1 -0.93662,0.41628 0.93662293,0.41627688 0 0 1 -0.93663,-0.41628 0.93662293,0.41627688 0 0 1 0.93663,-0.41627 0.93662293,0.41627688 0 0 1 0.93662,0.41627 z"
       id="path4254"
       inkscape:connector-curvature="0" />
    <g
       transform="matrix(0.75030508,-0.55852721,0.21682103,0.29126947,-149.79284,91.006475)"
       inkscape:transform-center-x="-8.4595951"
       inkscape:transform-center-y="-5.512035"
       style="font-style:normal;font-weight:normal;font-size:5.61404px;line-height:125%;font-family:sans-serif;letter-spacing:0px;word-spacing:0px;fill:#836c45;fill-opacity:1;stroke:none;stroke-width:1px;stroke-linecap:butt;stroke-linejoin:miter;stroke-opacity:1"
       id="text4305">
      <path
         d="m -197.24813,626.40521 h -0.0164 q 0.0274,0.011 0.0603,0.0274 0.0329,0.011 0.0713,0.0219 h 0.0219 q 0.0274,0.0713 0.0548,0.13706 0,0.12609 -0.17544,0.23574 -0.16996,0.10965 -0.48794,0.20285 -0.23026,0.0603 -0.46601,0.0987 -0.23026,0.0329 -0.42215,0.0329 -0.42215,0 -0.75658,-0.14254 -0.32894,-0.14803 -0.55921,-0.4057 -0.23026,-0.25768 -0.35636,-0.60855 -0.12061,-0.35088 -0.12061,-0.76207 0,-0.37829 0.12061,-0.71272 0.1261,-0.33443 0.35088,-0.58662 0.22478,-0.25219 0.53728,-0.4057 0.31798,-0.15351 0.70175,-0.18092 0.1261,-0.005 0.2522,0.011 0.12609,0.0164 0.23574,0.0384 0.10965,0.0165 0.19189,0.0274 0.0822,0.005 0.11513,-0.0164 0.0384,-0.0274 0.0877,-0.0603 0.0548,-0.0384 0.1261,-0.0384 0.0713,0 0.13158,0.10417 0.0658,0.0987 0.13157,0.26864 0.0713,0.17544 0.0987,0.27412 0.0274,0.0932 0.0219,0.14803 -0.005,0.0439 -0.0384,0.0822 -0.0274,0.0384 -0.0713,0.0603 -0.0384,0.0219 -0.0822,0.0219 -0.0439,-0.005 -0.0713,-0.0384 -0.0439,-0.0493 -0.0713,-0.0713 -0.0274,-0.0274 -0.0548,-0.0439 -0.0219,-0.0164 -0.0493,-0.0329 -0.0274,-0.0219 -0.0658,-0.0658 -0.14254,-0.14255 -0.34539,-0.20834 -0.20285,-0.0713 -0.41119,-0.0713 -0.26315,0 -0.44956,0.15899 -0.18092,0.15351 -0.29605,0.38926 -0.10965,0.23026 -0.16447,0.50438 -0.0493,0.26865 -0.0493,0.49891 0,0.29605 0.0548,0.55921 0.0548,0.26316 0.18092,0.46053 0.13158,0.19736 0.33991,0.3125 0.20833,0.11513 0.52083,0.11513 0.15351,0 0.2522,-0.0274 0.0493,-0.0274 0.0877,-0.0768 0.0439,-0.0493 0.0439,-0.10965 v -0.61952 q 0,-0.16447 -0.14803,-0.21381 -0.21382,-0.0658 -0.21382,-0.17544 0,-0.0768 0.0713,-0.10965 0.0713,-0.0329 0.16995,-0.0329 h 0.99233 q 0.0987,0 0.16995,0.0329 0.0713,0.0329 0.0713,0.10965 0,0.0767 -0.18641,0.16996 -0.0603,0.0384 -0.0987,0.0932 -0.0384,0.0548 -0.0384,0.12609 v 0.49342 z"
         style="font-style:normal;font-variant:normal;font-weight:100;font-stretch:normal;font-family:'AR JULIAN';-inkscape-font-specification:'AR JULIAN Thin';fill:#836c45;fill-opacity:1"
         id="path4354"
         inkscape:connector-curvature="0" />
      <path
         d="m -194.78651,627.15631 q -0.15351,0 -0.15351,-0.14803 0,-0.0877 0.11514,-0.13157 0.12609,-0.0439 0.19736,-0.10965 0.0713,-0.0713 0.0439,-0.14803 l -0.16447,-0.52632 q -0.0822,-0.0219 -0.15899,-0.0274 -0.0713,-0.011 -0.16996,-0.005 -0.10965,0.0274 -0.21929,0.0329 -0.10965,0 -0.18641,-0.0274 -0.0877,-0.0274 -0.12061,-0.0713 -0.0329,-0.0493 -0.0329,-0.10965 0,-0.11513 0.0822,-0.15351 0.0877,-0.0384 0.25219,-0.0384 0.0877,0 0.19737,0.005 0.11513,0 0.16447,-0.0493 -0.011,-0.0658 -0.0658,-0.23027 -0.0494,-0.16995 -0.11514,-0.35636 -0.0658,-0.1864 -0.12609,-0.34539 -0.0603,-0.15899 -0.0822,-0.20834 -0.0713,0.14255 -0.16996,0.42215 -0.0987,0.27413 -0.23574,0.66886 -0.15899,0.4386 -0.23026,0.70724 -0.0658,0.26864 -0.0658,0.36732 0,0.13707 0.14802,0.19189 0.14803,0.0548 0.14803,0.14254 0,0.14803 -0.15351,0.14803 h -0.89364 q -0.0768,0 -0.0932,-0.0384 -0.011,-0.0439 -0.011,-0.12061 0.14803,-0.11513 0.27413,-0.22478 0.12609,-0.10965 0.16995,-0.2193 0.26316,-0.7511 0.49342,-1.49671 0.23575,-0.74561 0.48794,-1.50768 0.0384,-0.0932 0.12062,-0.14254 0.0877,-0.0548 0.1864,-0.0548 0.11513,0 0.24123,0.0439 0.12609,0.0439 0.16447,0.13157 0.26316,0.7511 0.52632,1.49672 0.26315,0.74013 0.52631,1.49122 0.0274,0.0822 0.10965,0.14255 0.0822,0.0548 0.23026,0.16447 0.0768,0.0548 0.13707,0.0987 0.0603,0.0439 0.0603,0.0877 0,0.14803 -0.14802,0.14803 h -1.48027 z"
         style="font-style:normal;font-variant:normal;font-weight:100;font-stretch:normal;font-family:'AR JULIAN';-inkscape-font-specification:'AR JULIAN Thin';fill:#836c45;fill-opacity:1"
         id="path4356"
         inkscape:connector-curvature="0" />
      <path
         d="m -190.30186,627.15631 q -0.21929,0 -0.75109,-0.77851 -0.52632,-0.77851 -0.52632,-1.01973 0,-0.0822 0.37829,-0.24123 0.19189,-0.0768 0.27961,-0.24671 0.0932,-0.17544 0.0932,-0.42215 0,-0.12062 -0.0329,-0.24123 -0.0274,-0.12061 -0.0932,-0.2193 -0.0658,-0.0987 -0.16447,-0.15899 -0.0987,-0.0603 -0.23575,-0.0658 -0.0822,0 -0.16995,0.0219 -0.0822,0.0219 -0.15351,0.0658 -0.0658,0.0384 -0.11513,0.0987 -0.0439,0.0603 -0.0439,0.13707 v 2.56579 q 0,0.14802 0.16995,0.20285 0.16996,0.0548 0.16996,0.1535 0,0.14803 -0.13706,0.14803 h -1.28838 q -0.13706,0 -0.13706,-0.14803 0,-0.0932 0.16995,-0.14802 0.17544,-0.0548 0.17544,-0.20833 v -2.56579 q 0,-0.0987 -0.16447,-0.14803 -0.15899,-0.0493 -0.15899,-0.16447 0,-0.0713 0.10416,-0.1261 0.10965,-0.0603 0.27413,-0.10417 0.16995,-0.0493 0.3728,-0.0822 0.20286,-0.0384 0.38378,-0.0603 0.1864,-0.0219 0.32894,-0.0329 0.14803,-0.011 0.20285,-0.011 0.25768,0 0.50987,0.0603 0.25768,0.0603 0.46053,0.19188 0.20285,0.1261 0.32895,0.32895 0.12609,0.20285 0.12609,0.48246 0,0.19188 -0.0658,0.32894 -0.0603,0.13158 -0.16447,0.24123 -0.10417,0.10417 -0.24671,0.19737 -0.13706,0.0932 -0.29057,0.20285 0.0548,0.19189 0.18092,0.41667 0.1261,0.22478 0.30154,0.44956 0.19188,0.23026 0.38377,0.37829 0.19737,0.14802 0.36184,0.25767 0.0658,0.0494 0.0713,0.0987 0.011,0.0439 -0.0164,0.0822 -0.0274,0.0329 -0.0768,0.0603 -0.0493,0.0219 -0.0932,0.0219 h -0.70176 z"
         style="font-style:normal;font-variant:normal;font-weight:100;font-stretch:normal;font-family:'AR JULIAN';-inkscape-font-specification:'AR JULIAN Thin';fill:#836c45;fill-opacity:1"
         id="path4358"
         inkscape:connector-curvature="0" />
      <path
         d="m -187.77993,627.19469 q -0.3728,0 -0.82236,-0.0822 -0.625,-0.11513 -0.625,-0.31798 0,-0.0384 0.12609,-0.13158 0.1261,-0.0932 0.1261,-0.23575 v -2.38486 q 0,-0.0987 -0.16448,-0.14803 -0.15899,-0.0493 -0.15899,-0.16447 0,-0.19189 0.68531,-0.31799 0.5318,-0.0987 0.89364,-0.0987 0.97588,0 1.51316,0.4989 0.54276,0.49342 0.54276,1.46382 0,0.9046 -0.61403,1.42544 -0.58114,0.49342 -1.5022,0.49342 z m 0.14255,-3.49233 q -0.18092,0 -0.32895,0.0877 -0.14254,0.0822 -0.13706,0.2522 v 2.43421 q -0.005,0.15351 0.15899,0.23574 0.13158,0.0658 0.30153,0.0658 0.54825,0 0.84979,-0.46052 0.25767,-0.39474 0.25767,-0.97588 0,-0.66338 -0.2193,-1.08553 -0.28508,-0.55373 -0.88267,-0.55373 z"
         style="font-style:normal;font-variant:normal;font-weight:100;font-stretch:normal;font-family:'AR JULIAN';-inkscape-font-specification:'AR JULIAN Thin';fill:#836c45;fill-opacity:1"
         id="path4360"
         inkscape:connector-curvature="0" />
      <path
         d="m -182.77993,627.04118 q -0.0164,0.0658 -0.0932,0.0932 -0.0768,0.0219 -0.12061,0.0219 h -2.36294 q -0.13706,0 -0.13706,-0.14254 0,-0.0877 0.16995,-0.14255 0.16996,-0.0548 0.16996,-0.21929 v -2.79058 q 0,-0.1535 -0.16996,-0.20833 -0.16995,-0.0548 -0.16995,-0.15351 0,-0.14254 0.13706,-0.14254 h 2.24232 q 0.13707,0 0.20286,0.0822 0.0658,0.0767 0.12609,0.21381 0.0384,0.0768 0.0603,0.15351 0.0219,0.0768 0.0219,0.13706 -0.0164,0.0165 -0.0274,0.0493 -0.005,0.0274 -0.0219,0.0548 -0.011,0.0274 -0.0329,0.0384 -0.0219,0.011 -0.0603,-0.0164 -0.0493,-0.0329 -0.11513,-0.0713 -0.0603,-0.0439 -0.12061,-0.0822 -0.0603,-0.0384 -0.10965,-0.0713 -0.0493,-0.0329 -0.0713,-0.0493 -0.0713,-0.0439 -0.24671,-0.0658 -0.16996,-0.0219 -0.42215,-0.0219 -0.19737,0 -0.27412,0.0548 -0.0768,0.0493 -0.0768,0.14803 0,0.27412 0,0.41118 0,0.13706 0,0.19737 0,0.0603 0,0.0713 0,0.005 0,0.0165 0,0.0548 0.0219,0.0877 0.0219,0.0274 0.0548,0.0439 0.0384,0.011 0.0768,0.0164 0.0384,0 0.0713,0 0.0329,0 0.0822,0 0.0493,-0.005 0.10417,-0.011 0.0548,-0.005 0.10416,-0.005 0.0548,-0.005 0.0877,-0.005 0.14803,0 0.24123,0.0548 0.0987,0.0493 0.0987,0.1864 0,0.13706 -0.0987,0.18641 -0.0932,0.0493 -0.26316,0.0493 -0.0768,0 -0.17544,-0.011 -0.0987,-0.011 -0.18092,-0.011 -0.0767,0 -0.15351,0.0329 -0.0713,0.0329 -0.0713,0.13707 v 1.20065 q 0,0.1261 0.0384,0.15899 0.0384,0.0329 0.16995,0.0384 0.0658,0.005 0.19189,0.005 0.1261,0 0.25219,0 0.13158,0 0.23575,0 0.10965,-0.005 0.14254,-0.005 0.0439,0.0274 0.13158,-0.0329 0.0877,-0.0603 0.18092,-0.14255 0.0987,-0.0877 0.17544,-0.15899 0.0822,-0.0767 0.10965,-0.0767 0.0603,0 0.0987,0.0329 0.0439,0.0274 0.0439,0.0877 0,0.0384 -0.0329,0.1261 -0.0329,0.0822 -0.0767,0.17544 -0.0439,0.0877 -0.0877,0.16995 -0.0439,0.0768 -0.0713,0.10417 z"
         style="font-style:normal;font-variant:normal;font-weight:100;font-stretch:normal;font-family:'AR JULIAN';-inkscape-font-specification:'AR JULIAN Thin';fill:#836c45;fill-opacity:1"
         id="path4362"
         inkscape:connector-curvature="0" />
      <path
         d="m -179.17247,623.86135 q 0,0.24672 0.005,0.58114 0.005,0.32895 0.011,0.68531 0.005,0.35636 0.005,0.70724 0.005,0.34539 0,0.625 -0.005,0.2796 -0.0219,0.46053 -0.011,0.17543 -0.0384,0.1864 -0.0329,0.0329 -0.0877,0.0493 -0.0493,0.0219 -0.10965,0.0219 -0.0548,0.005 -0.10964,-0.011 -0.0493,-0.0164 -0.0822,-0.0603 -0.2193,-0.29605 -0.45505,-0.61404 -0.23026,-0.32346 -0.48245,-0.64693 -0.24671,-0.32346 -0.50987,-0.64144 -0.26316,-0.32347 -0.5318,-0.625 l -0.005,2.07237 q 0,0.14802 0.16996,0.20285 0.16995,0.0548 0.16995,0.1535 0,0.14803 -0.13706,0.14803 h -0.87719 q -0.13706,0 -0.13706,-0.14803 0,-0.0932 0.16995,-0.14802 0.16996,-0.0548 0.16996,-0.20833 v -2.79058 q 0,-0.1535 -0.16996,-0.20833 -0.16995,-0.0548 -0.16995,-0.15351 0,-0.14802 0.13706,-0.14802 h 0.75658 q 0.0493,0 0.16995,0.13158 0.1261,0.12609 0.29057,0.32894 0.16448,0.19737 0.35636,0.44956 0.19737,0.2522 0.38377,0.49891 0.19189,0.24123 0.36185,0.45504 0.16995,0.21382 0.29605,0.3454 0,-0.005 0,-0.0164 0.005,-0.0165 0,-0.0658 0,-0.0493 0,-0.15351 0,-0.10417 -0.005,-0.29057 0,-0.1864 0,-0.47149 0.005,-0.28509 0.005,-0.70176 0,-0.14254 -0.22478,-0.22478 -0.10965,-0.0439 -0.10965,-0.13158 0,-0.14802 0.13706,-0.14802 h 0.86623 q 0.14254,0 0.14254,0.14802 0,0.0932 -0.16995,0.14803 -0.16996,0.0548 -0.16996,0.20833 z"
         style="font-style:normal;font-variant:normal;font-weight:100;font-stretch:normal;font-family:'AR JULIAN';-inkscape-font-specification:'AR JULIAN Thin';fill:#836c45;fill-opacity:1"
         id="path4364"
         inkscape:connector-curvature="0" />
    </g>
    <g
       transform="matrix(0.75030508,-0.55852721,0.21682103,0.29126947,-149.79284,91.006475)"
       inkscape:transform-center-x="-8.4595994"
       inkscape:transform-center-y="-5.5120211"
       style="font-style:normal;font-weight:normal;font-size:5.61404px;line-height:125%;font-family:sans-serif;letter-spacing:0px;word-spacing:0px;fill:#836c45;fill-opacity:1;stroke:none;stroke-width:1px;stroke-linecap:butt;stroke-linejoin:miter;stroke-opacity:1"
       id="text4309">
      <path
         d="m 36.042806,622.6565 h -0.01645 q 0.02741,0.011 0.06031,0.0274 0.03289,0.011 0.07127,0.0219 h 0.02193 q 0.02741,0.0713 0.05482,0.13706 0,0.1261 -0.175438,0.23575 -0.169957,0.10964 -0.487939,0.20285 -0.230263,0.0603 -0.466009,0.0987 -0.230263,0.0329 -0.422149,0.0329 -0.422149,0 -0.756579,-0.14255 -0.328947,-0.14802 -0.559211,-0.4057 -0.230263,-0.25768 -0.356359,-0.60855 -0.120614,-0.35088 -0.120614,-0.76206 0,-0.37829 0.120614,-0.71272 0.126096,-0.33443 0.350877,-0.58663 0.224781,-0.25219 0.537281,-0.4057 0.317982,-0.15351 0.701754,-0.18092 0.126097,-0.005 0.252193,0.011 0.126097,0.0164 0.235746,0.0384 0.109649,0.0164 0.191886,0.0274 0.08224,0.005 0.115131,-0.0164 0.03838,-0.0274 0.08772,-0.0603 0.05482,-0.0384 0.126096,-0.0384 0.07127,0 0.131579,0.10417 0.06579,0.0987 0.131579,0.26864 0.07127,0.17544 0.09868,0.27412 0.02741,0.0932 0.02193,0.14803 -0.0055,0.0439 -0.03838,0.0822 -0.02741,0.0384 -0.07127,0.0603 -0.03838,0.0219 -0.08224,0.0219 -0.04386,-0.005 -0.07127,-0.0384 -0.04386,-0.0494 -0.07127,-0.0713 -0.02741,-0.0274 -0.05482,-0.0439 -0.02193,-0.0164 -0.04934,-0.0329 -0.02741,-0.0219 -0.06579,-0.0658 -0.142544,-0.14254 -0.345395,-0.20833 -0.202851,-0.0713 -0.411184,-0.0713 -0.263158,0 -0.449561,0.159 -0.180921,0.1535 -0.296053,0.38925 -0.109649,0.23026 -0.164474,0.50439 -0.04934,0.26864 -0.04934,0.4989 0,0.29605 0.05483,0.55921 0.05482,0.26316 0.180921,0.46053 0.131579,0.19737 0.339912,0.3125 0.208333,0.11513 0.520833,0.11513 0.153509,0 0.252194,-0.0274 0.04934,-0.0274 0.08772,-0.0768 0.04386,-0.0493 0.04386,-0.10965 v -0.61951 q 0,-0.16448 -0.148026,-0.21382 -0.213816,-0.0658 -0.213816,-0.17544 0,-0.0767 0.07127,-0.10965 0.07127,-0.0329 0.169956,-0.0329 h 0.992325 q 0.09868,0 0.169956,0.0329 0.07127,0.0329 0.07127,0.10965 0,0.0768 -0.186403,0.16996 -0.06031,0.0384 -0.09868,0.0932 -0.03838,0.0548 -0.03838,0.1261 v 0.49342 z"
         style="font-style:normal;font-variant:normal;font-weight:100;font-stretch:normal;font-family:'AR JULIAN';-inkscape-font-specification:'AR JULIAN Thin';fill:#836c45;fill-opacity:1"
         id="path4341"
         inkscape:connector-curvature="0" />
      <path
         d="m 38.504429,623.40759 q -0.153509,0 -0.153509,-0.14802 0,-0.0877 0.115132,-0.13158 0.126097,-0.0439 0.197368,-0.10965 0.07127,-0.0713 0.04386,-0.14803 L 38.542806,622.344 q -0.08224,-0.0219 -0.158991,-0.0274 -0.07127,-0.011 -0.169956,-0.005 -0.109649,0.0274 -0.219298,0.0329 -0.109649,0 -0.186404,-0.0274 -0.08772,-0.0274 -0.120614,-0.0713 -0.03289,-0.0493 -0.03289,-0.10965 0,-0.11513 0.08224,-0.15351 0.08772,-0.0384 0.252193,-0.0384 0.08772,0 0.197369,0.005 0.115131,0 0.164473,-0.0493 -0.01096,-0.0658 -0.06579,-0.23027 -0.04934,-0.16995 -0.115132,-0.35636 -0.06579,-0.1864 -0.126096,-0.34539 -0.06031,-0.15899 -0.08224,-0.20833 -0.07127,0.14254 -0.169956,0.42215 -0.09868,0.27412 -0.235746,0.66886 -0.158991,0.43859 -0.230263,0.70723 -0.06579,0.26864 -0.06579,0.36733 0,0.13706 0.148026,0.19188 0.148026,0.0548 0.148026,0.14255 0,0.14802 -0.153509,0.14802 h -0.89364 q -0.07675,0 -0.0932,-0.0384 -0.01096,-0.0439 -0.01096,-0.12062 0.148027,-0.11513 0.274123,-0.22478 0.126097,-0.10965 0.169956,-0.2193 0.263158,-0.75109 0.493421,-1.49671 0.235746,-0.74561 0.487939,-1.50767 0.03838,-0.0932 0.120614,-0.14255 0.08772,-0.0548 0.186404,-0.0548 0.115131,0 0.241228,0.0439 0.126096,0.0439 0.164473,0.13158 0.263158,0.75109 0.526316,1.49671 0.263158,0.74013 0.526316,1.49123 0.02741,0.0822 0.109649,0.14254 0.08224,0.0548 0.230263,0.16447 0.07675,0.0548 0.137062,0.0987 0.06031,0.0439 0.06031,0.0877 0,0.14802 -0.148027,0.14802 h -1.480263 z"
         style="font-style:normal;font-variant:normal;font-weight:100;font-stretch:normal;font-family:'AR JULIAN';-inkscape-font-specification:'AR JULIAN Thin';fill:#836c45;fill-opacity:1"
         id="path4343"
         inkscape:connector-curvature="0" />
      <path
         d="m 42.989079,623.40759 q -0.219298,0 -0.751097,-0.77851 -0.526315,-0.7785 -0.526315,-1.01973 0,-0.0822 0.378289,-0.24123 0.191886,-0.0768 0.279605,-0.24671 0.0932,-0.17544 0.0932,-0.42215 0,-0.12061 -0.0329,-0.24123 -0.02741,-0.12061 -0.0932,-0.2193 -0.06579,-0.0987 -0.164474,-0.15899 -0.09868,-0.0603 -0.235746,-0.0658 -0.08224,0 -0.169956,0.0219 -0.08224,0.0219 -0.153509,0.0658 -0.06579,0.0384 -0.115131,0.0987 -0.04386,0.0603 -0.04386,0.13706 v 2.56579 q 0,0.14802 0.169956,0.20285 0.169956,0.0548 0.169956,0.15351 0,0.14802 -0.137061,0.14802 h -1.288377 q -0.137062,0 -0.137062,-0.14802 0,-0.0932 0.169956,-0.14803 0.175439,-0.0548 0.175439,-0.20833 v -2.56579 q 0,-0.0987 -0.164474,-0.14803 -0.158991,-0.0493 -0.158991,-0.16447 0,-0.0713 0.104167,-0.1261 0.109649,-0.0603 0.274123,-0.10417 0.169956,-0.0493 0.372807,-0.0822 0.202851,-0.0384 0.383772,-0.0603 0.186403,-0.0219 0.328947,-0.0329 0.148026,-0.011 0.202851,-0.011 0.257675,0 0.509868,0.0603 0.257676,0.0603 0.460527,0.19188 0.202851,0.1261 0.328947,0.32895 0.126097,0.20285 0.126097,0.48246 0,0.19188 -0.06579,0.32894 -0.06031,0.13158 -0.164474,0.24123 -0.104166,0.10417 -0.24671,0.19737 -0.137062,0.0932 -0.29057,0.20285 0.05482,0.19189 0.180921,0.41667 0.126096,0.22478 0.301535,0.44956 0.191886,0.23026 0.383772,0.37829 0.197368,0.14803 0.361842,0.25767 0.06579,0.0493 0.07127,0.0987 0.01096,0.0439 -0.01645,0.0822 -0.02741,0.0329 -0.07675,0.0603 -0.04934,0.0219 -0.0932,0.0219 h -0.701754 z"
         style="font-style:normal;font-variant:normal;font-weight:100;font-stretch:normal;font-family:'AR JULIAN';-inkscape-font-specification:'AR JULIAN Thin';fill:#836c45;fill-opacity:1"
         id="path4345"
         inkscape:connector-curvature="0" />
      <path
         d="m 45.511009,623.44597 q -0.372807,0 -0.822368,-0.0822 -0.625,-0.11513 -0.625,-0.31798 0,-0.0384 0.126096,-0.13158 0.126097,-0.0932 0.126097,-0.23574 v -2.38487 q 0,-0.0987 -0.164474,-0.14803 -0.158991,-0.0493 -0.158991,-0.16447 0,-0.19189 0.685307,-0.31799 0.531798,-0.0987 0.89364,-0.0987 0.975877,0 1.513158,0.4989 0.542763,0.49343 0.542763,1.46382 0,0.90461 -0.614035,1.42544 -0.58114,0.49342 -1.502193,0.49342 z m 0.142544,-3.49232 q -0.180921,0 -0.328947,0.0877 -0.142544,0.0822 -0.137062,0.2522 v 2.43421 q -0.0055,0.15351 0.158991,0.23574 0.131579,0.0658 0.301536,0.0658 0.548245,0 0.84978,-0.46052 0.257676,-0.39474 0.257676,-0.97588 0,-0.66338 -0.219299,-1.08553 -0.285087,-0.55372 -0.882675,-0.55372 z"
         style="font-style:normal;font-variant:normal;font-weight:100;font-stretch:normal;font-family:'AR JULIAN';-inkscape-font-specification:'AR JULIAN Thin';fill:#836c45;fill-opacity:1"
         id="path4347"
         inkscape:connector-curvature="0" />
      <path
         d="m 50.511009,623.29246 q -0.01645,0.0658 -0.0932,0.0932 -0.07675,0.0219 -0.120614,0.0219 h -2.362939 q -0.137062,0 -0.137062,-0.14254 0,-0.0877 0.169957,-0.14254 0.169956,-0.0548 0.169956,-0.2193 v -2.79057 q 0,-0.15351 -0.169956,-0.20834 -0.169957,-0.0548 -0.169957,-0.15351 0,-0.14254 0.137062,-0.14254 h 2.242325 q 0.137061,0 0.202851,0.0822 0.06579,0.0768 0.126096,0.21381 0.03838,0.0768 0.06031,0.15351 0.02193,0.0768 0.02193,0.13706 -0.01645,0.0164 -0.02741,0.0494 -0.0055,0.0274 -0.02193,0.0548 -0.01096,0.0274 -0.03289,0.0384 -0.02193,0.011 -0.06031,-0.0164 -0.04934,-0.0329 -0.115132,-0.0713 -0.06031,-0.0439 -0.120614,-0.0822 -0.06031,-0.0384 -0.109649,-0.0713 -0.04934,-0.0329 -0.07127,-0.0493 -0.07127,-0.0439 -0.24671,-0.0658 -0.169956,-0.0219 -0.422149,-0.0219 -0.197369,0 -0.274123,0.0548 -0.07675,0.0493 -0.07675,0.14803 0,0.27412 0,0.41118 0,0.13706 0,0.19737 0,0.0603 0,0.0713 0,0.005 0,0.0164 0,0.0548 0.02193,0.0877 0.02193,0.0274 0.05483,0.0439 0.03838,0.011 0.07675,0.0164 0.03838,0 0.07127,0 0.03289,0 0.08224,0 0.04934,-0.005 0.104167,-0.011 0.05482,-0.005 0.104166,-0.005 0.05483,-0.005 0.08772,-0.005 0.148026,0 0.241228,0.0548 0.09868,0.0493 0.09868,0.18641 0,0.13706 -0.09868,0.1864 -0.0932,0.0493 -0.263158,0.0493 -0.07675,0 -0.175439,-0.011 -0.09868,-0.011 -0.180921,-0.011 -0.07675,0 -0.153509,0.0329 -0.07127,0.0329 -0.07127,0.13706 v 1.20065 q 0,0.1261 0.03838,0.159 0.03838,0.0329 0.169956,0.0384 0.06579,0.005 0.191886,0.005 0.126096,0 0.252193,0 0.131579,0 0.235745,0 0.109649,-0.005 0.142544,-0.005 0.04386,0.0274 0.131579,-0.0329 0.08772,-0.0603 0.180921,-0.14255 0.09868,-0.0877 0.175439,-0.15899 0.08224,-0.0768 0.109649,-0.0768 0.06031,0 0.09868,0.0329 0.04386,0.0274 0.04386,0.0877 0,0.0384 -0.03289,0.1261 -0.0329,0.0822 -0.07675,0.17544 -0.04386,0.0877 -0.08772,0.16995 -0.04386,0.0768 -0.07127,0.10417 z"
         style="font-style:normal;font-variant:normal;font-weight:100;font-stretch:normal;font-family:'AR JULIAN';-inkscape-font-specification:'AR JULIAN Thin';fill:#836c45;fill-opacity:1"
         id="path4349"
         inkscape:connector-curvature="0" />
      <path
         d="m 54.118466,620.11264 q 0,0.24671 0.0055,0.58114 0.0055,0.32894 0.01096,0.6853 0.0055,0.35636 0.0055,0.70724 0.0055,0.3454 0,0.625 -0.0055,0.27961 -0.02193,0.46053 -0.01096,0.17544 -0.03838,0.1864 -0.0329,0.0329 -0.08772,0.0493 -0.04934,0.0219 -0.109649,0.0219 -0.05482,0.005 -0.109649,-0.011 -0.04934,-0.0164 -0.08224,-0.0603 -0.219298,-0.29605 -0.455044,-0.61403 -0.230263,-0.32347 -0.482456,-0.64693 -0.24671,-0.32347 -0.509868,-0.64145 -0.263158,-0.32347 -0.531799,-0.625 l -0.0055,2.07237 q 0,0.14802 0.169956,0.20285 0.169956,0.0548 0.169956,0.15351 0,0.14802 -0.137061,0.14802 h -0.877193 q -0.137062,0 -0.137062,-0.14802 0,-0.0932 0.169957,-0.14803 0.169956,-0.0548 0.169956,-0.20833 v -2.79057 q 0,-0.15351 -0.169956,-0.20834 -0.169957,-0.0548 -0.169957,-0.15351 0,-0.14802 0.137062,-0.14802 h 0.756579 q 0.04934,0 0.169956,0.13158 0.126097,0.12609 0.29057,0.32894 0.164474,0.19737 0.35636,0.44957 0.197368,0.25219 0.383772,0.4989 0.191886,0.24123 0.361842,0.45504 0.169956,0.21382 0.296053,0.3454 0,-0.005 0,-0.0164 0.0055,-0.0164 0,-0.0658 0,-0.0493 0,-0.15351 0,-0.10416 -0.0055,-0.29057 0,-0.1864 0,-0.47149 0.0055,-0.28509 0.0055,-0.70175 0,-0.14255 -0.224781,-0.22478 -0.109649,-0.0439 -0.109649,-0.13158 0,-0.14803 0.137061,-0.14803 h 0.866228 q 0.142544,0 0.142544,0.14803 0,0.0932 -0.169956,0.14802 -0.169956,0.0548 -0.169956,0.20834 z"
         style="font-style:normal;font-variant:normal;font-weight:100;font-stretch:normal;font-family:'AR JULIAN';-inkscape-font-specification:'AR JULIAN Thin';fill:#836c45;fill-opacity:1"
         id="path4351"
         inkscape:connector-curvature="0" />
    </g>
  </g>
</svg>
