<?xml version="1.0" encoding="UTF-8" standalone="no"?>
<svg
   xmlns:dc="http://purl.org/dc/elements/1.1/"
   xmlns:cc="http://creativecommons.org/ns#"
   xmlns:rdf="http://www.w3.org/1999/02/22-rdf-syntax-ns#"
   xmlns:svg="http://www.w3.org/2000/svg"
   xmlns="http://www.w3.org/2000/svg"
   xmlns:sodipodi="http://sodipodi.sourceforge.net/DTD/sodipodi-0.dtd"
   xmlns:inkscape="http://www.inkscape.org/namespaces/inkscape"
   version="1.1"
   id="レイヤー_1"
   x="0px"
   y="0px"
   width="88mm"
   height="125mm"
   viewBox="0 0 332.59843 472.44094"
   xml:space="preserve"
   sodipodi:docname="riceball.svg"
   inkscape:version="1.0.2-2 (e86c870879, 2021-01-15)"><metadata
   id="metadata1417"><rdf:RDF><cc:Work
       rdf:about=""><dc:format>image/svg+xml</dc:format><dc:type
         rdf:resource="http://purl.org/dc/dcmitype/StillImage" /><dc:title></dc:title></cc:Work></rdf:RDF></metadata><defs
   id="defs1415" /><sodipodi:namedview
   pagecolor="#ffffff"
   bordercolor="#666666"
   borderopacity="1"
   objecttolerance="10"
   gridtolerance="10"
   guidetolerance="10"
   inkscape:pageopacity="0"
   inkscape:pageshadow="2"
   inkscape:window-width="1920"
   inkscape:window-height="1017"
   id="namedview1413"
   showgrid="false"
   units="mm"
   inkscape:zoom="1.6601563"
   inkscape:cx="85.710014"
   inkscape:cy="234.95984"
   inkscape:window-x="-8"
   inkscape:window-y="-8"
   inkscape:window-maximized="1"
   inkscape:current-layer="レイヤー_1" />
<g
   id="g1410"
   transform="matrix(5.3716749,0,0,5.3716749,-5.4906051,61.435942)">
	<path
   style="fill:#ffffff;stroke:#c8c9ca;stroke-width:1.1201;stroke-miterlimit:10"
   d="m 62.277,45.263 c 0,-0.015 0.002,-0.026 0.002,-0.041 0,-1.438 -0.471,-2.661 -1.132,-3.157 -0.313,-1.375 -0.779,-2.802 -1.409,-4.271 -0.07,-0.205 -0.149,-0.396 -0.241,-0.567 -0.068,-0.15 -0.117,-0.294 -0.19,-0.445 -2.889,-6.066 -7.268,-14.497 -12.521,-21.245 -0.22,-1.4 -0.894,-2.426 -1.699,-2.426 -0.088,0 -0.171,0.025 -0.255,0.048 -4.461,-5.131 -9.452,-8.81 -14.647,-8.81 -4.466,0 -9.26,3.798 -13.562,9.177 -0.113,-0.043 -0.23,-0.067 -0.35,-0.067 -0.894,0 -1.626,1.251 -1.758,2.882 -0.144,0.204 -0.289,0.404 -0.432,0.612 -0.284,0.125 -0.538,0.383 -0.751,0.731 -0.311,-0.508 -0.71,-0.826 -1.152,-0.826 -0.988,0 -1.786,1.521 -1.786,3.399 0,0.771 0.14,1.474 0.367,2.044 -0.624,1.104 -1.219,2.221 -1.784,3.344 -0.221,-0.174 -0.463,-0.272 -0.717,-0.272 -1.045,0 -1.889,1.609 -1.889,3.597 0,0.651 0.098,1.254 0.257,1.781 -0.666,1.602 -1.256,3.172 -1.754,4.684 -0.805,0.282 -1.414,1.616 -1.414,3.229 0,0.477 0.056,0.928 0.151,1.335 -0.334,1.54 -0.528,2.944 -0.57,4.177 -0.708,0.412 -1.225,1.649 -1.225,3.134 0,1.816 0.772,3.292 1.729,3.292 0.056,0 0.108,-0.021 0.162,-0.031 0.129,0.499 0.273,0.977 0.435,1.426 -0.053,0.316 -0.089,0.646 -0.089,0.996 0,1.817 0.773,3.29 1.729,3.29 0.058,0 0.112,-0.021 0.167,-0.031 0.066,0.021 0.114,0.031 0.114,0.031 0.19,-0.029 0.353,-0.1 0.497,-0.195 0.395,0.428 0.809,0.819 1.25,1.158 0.295,1.004 0.853,1.691 1.501,1.691 0.058,0 0.111,-0.021 0.167,-0.032 0.067,0.02 0.115,0.032 0.115,0.032 0.26,-0.04 0.469,-0.157 0.644,-0.316 1.54,0.62 3.192,0.895 4.827,0.895 5.041,0 33.323,0 38.924,0 3.673,-1.092 7.136,-5.357 7.636,-11.4 0.658,-0.833 0.668,-2.397 0.653,-2.853 z"
   id="path2" />
	<g
   id="g8">
		<ellipse
   style="fill:#ffffff"
   cx="56.522999"
   cy="53.880001"
   rx="1.785"
   ry="3.4000001"
   id="ellipse4" />
		<path
   style="fill:#dbdcdc"
   d="m 58.299,53.793 c 0,0 0.214,3.226 -1.483,3.487 0,0 -0.967,-0.213 -1.141,-0.868 0,0 1.622,-0.047 2.624,-2.619 z"
   id="path6" />
	</g>
	<g
   id="g40">
		<g
   id="g14">
			<ellipse
   style="fill:#ffffff"
   cx="54.214001"
   cy="53.882"
   rx="1.785"
   ry="3.398"
   id="ellipse10" />
			<path
   style="fill:#dbdcdc"
   d="m 55.99,53.793 c 0,0 0.213,3.227 -1.484,3.487 0,0 -0.967,-0.213 -1.142,-0.868 0,0 1.625,-0.046 2.626,-2.619 z"
   id="path12" />
		</g>
		<g
   id="g20">
			<ellipse
   style="fill:#ffffff"
   cx="58.308998"
   cy="50.483002"
   rx="1.785"
   ry="3.398"
   id="ellipse16" />
			<path
   style="fill:#dbdcdc"
   d="m 60.085,50.395 c 0,0 0.214,3.228 -1.484,3.487 0,0 -0.967,-0.215 -1.141,-0.869 0,0 1.622,-0.045 2.625,-2.618 z"
   id="path18" />
		</g>
		<g
   id="g26">
			<ellipse
   style="fill:#ffffff"
   cx="51.168999"
   cy="53.835999"
   rx="1.784"
   ry="3.401"
   id="ellipse22" />
			<path
   style="fill:#dbdcdc"
   d="m 52.945,53.748 c 0,0 0.213,3.228 -1.484,3.489 0,0 -0.968,-0.215 -1.142,-0.87 0,0 1.625,-0.046 2.626,-2.619 z"
   id="path24" />
		</g>
		<g
   id="g32">
			<path
   style="fill:#ffffff"
   d="m 50.646,53.837 c 0,1.876 -0.799,3.4 -1.783,3.4 -0.988,0 -1.785,-1.524 -1.785,-3.4 0,-1.877 0.797,-3.397 1.785,-3.397 0.984,-10e-4 1.783,1.52 1.783,3.397 z"
   id="path28" />
			<path
   style="fill:#dbdcdc"
   d="m 50.637,53.748 c 0,0 0.213,3.229 -1.483,3.489 0,0 -0.968,-0.215 -1.143,-0.87 0,0 1.624,-0.045 2.626,-2.619 z"
   id="path30" />
		</g>
		<g
   id="g38">
			<path
   style="fill:#ffffff"
   d="m 54.738,50.439 c 0,1.875 -0.797,3.397 -1.783,3.397 -0.986,0 -1.785,-1.522 -1.785,-3.397 0,-1.88 0.799,-3.4 1.785,-3.4 0.986,0 1.783,1.521 1.783,3.4 z"
   id="path34" />
			<path
   style="fill:#dbdcdc"
   d="m 54.73,50.351 c 0,0 0.213,3.227 -1.484,3.486 0,0 -0.967,-0.214 -1.142,-0.867 0,0 1.625,-0.046 2.626,-2.619 z"
   id="path36" />
		</g>
	</g>
	<g
   id="g60">
		<g
   id="g46">
			<ellipse
   style="fill:#ffffff"
   cx="9.2139997"
   cy="55.780998"
   rx="1.727"
   ry="3.293"
   id="ellipse42" />
			<path
   style="fill:#dbdcdc"
   d="m 10.934,55.697 c 0,0 0.206,3.123 -1.438,3.377 0,0 -0.937,-0.207 -1.105,-0.839 -10e-4,0 1.572,-0.047 2.543,-2.538 z"
   id="path44" />
		</g>
		<g
   id="g52">
			<ellipse
   style="fill:#ffffff"
   cx="5.684"
   cy="53.130001"
   rx="1.727"
   ry="3.2909999"
   id="ellipse48" />
			<path
   style="fill:#dbdcdc"
   d="m 7.403,53.046 c 0,0 0.207,3.124 -1.437,3.375 0,0 -0.937,-0.208 -1.106,-0.84 0,0 1.573,-0.045 2.543,-2.535 z"
   id="path50" />
		</g>
		<g
   id="g58">
			<ellipse
   style="fill:#ffffff"
   cx="10.942"
   cy="52.491001"
   rx="1.728"
   ry="3.2920001"
   id="ellipse54" />
			<path
   style="fill:#dbdcdc"
   d="m 12.663,52.406 c 0,0 0.205,3.124 -1.438,3.377 0,0 -0.936,-0.208 -1.105,-0.841 0,0 1.572,-0.044 2.543,-2.536 z"
   id="path56" />
		</g>
	</g>
	<g
   id="g92">
		<g
   id="g66">
			<path
   style="fill:#ffffff"
   d="m 58.087,48.761 c 0,1.877 -0.798,3.399 -1.782,3.399 -0.988,0 -1.786,-1.522 -1.786,-3.399 0,-1.879 0.798,-3.399 1.786,-3.399 0.984,-0.001 1.782,1.52 1.782,3.399 z"
   id="path62" />
			<path
   style="fill:#dbdcdc"
   d="m 58.08,48.673 c 0,0 0.211,3.227 -1.485,3.487 0,0 -0.967,-0.215 -1.142,-0.869 0,0 1.624,-0.046 2.627,-2.618 z"
   id="path64" />
		</g>
		<g
   id="g72">
			<ellipse
   style="fill:#ffffff"
   cx="60.396999"
   cy="45.361"
   rx="1.785"
   ry="3.3989999"
   id="ellipse68" />
			<path
   style="fill:#dbdcdc"
   d="m 62.174,45.272 c 0,0 0.213,3.228 -1.484,3.488 0,0 -0.968,-0.216 -1.142,-0.868 0,10e-4 1.624,-0.045 2.626,-2.62 z"
   id="path70" />
		</g>
		<g
   id="g78">
			<path
   style="fill:#ffffff"
   d="m 55.041,48.715 c 0,1.88 -0.798,3.402 -1.783,3.402 -0.986,0 -1.784,-1.522 -1.784,-3.402 0,-1.876 0.798,-3.398 1.784,-3.398 0.985,-10e-4 1.783,1.522 1.783,3.398 z"
   id="path74" />
			<path
   style="fill:#dbdcdc"
   d="m 55.034,48.63 c 0,0 0.212,3.225 -1.485,3.487 0,0 -0.967,-0.215 -1.142,-0.869 0,0 1.625,-0.048 2.627,-2.618 z"
   id="path76" />
		</g>
		<g
   id="g84">
			<ellipse
   style="fill:#ffffff"
   cx="50.949001"
   cy="48.716999"
   rx="1.784"
   ry="3.4000001"
   id="ellipse80" />
			<path
   style="fill:#dbdcdc"
   d="m 52.726,48.63 c 0,0 0.212,3.227 -1.484,3.487 0,0 -0.967,-0.215 -1.143,-0.869 0,0 1.625,-0.046 2.627,-2.618 z"
   id="path82" />
		</g>
		<g
   id="g90">
			<ellipse
   style="fill:#ffffff"
   cx="55.042"
   cy="45.318001"
   rx="1.785"
   ry="3.398"
   id="ellipse86" />
			<path
   style="fill:#dbdcdc"
   d="m 56.819,45.229 c 0,0 0.212,3.229 -1.485,3.487 0,0 -0.967,-0.215 -1.141,-0.868 0,10e-4 1.624,-0.044 2.626,-2.619 z"
   id="path88" />
		</g>
	</g>
	<g
   id="g118">
		<g
   id="g98">
			<ellipse
   style="fill:#ffffff"
   cx="9.7679996"
   cy="50.868"
   rx="1.728"
   ry="3.29"
   id="ellipse94" />
			<path
   style="fill:#dbdcdc"
   d="m 11.488,50.781 c 0,0 0.206,3.126 -1.438,3.377 0,0 -0.937,-0.209 -1.106,-0.841 10e-4,0 1.574,-0.045 2.544,-2.536 z"
   id="path96" />
		</g>
		<g
   id="g104">
			<ellipse
   style="fill:#ffffff"
   cx="5.9970002"
   cy="51.972"
   rx="1.728"
   ry="3.293"
   id="ellipse100" />
			<path
   style="fill:#dbdcdc"
   d="m 7.717,51.888 c 0,0 0.206,3.123 -1.438,3.377 0,0 -0.937,-0.207 -1.105,-0.841 0,0 1.573,-0.047 2.543,-2.536 z"
   id="path102" />
		</g>
		<g
   id="g110">
			<ellipse
   style="fill:#ffffff"
   cx="3.447"
   cy="47.446999"
   rx="1.728"
   ry="3.2920001"
   id="ellipse106" />
			<path
   style="fill:#dbdcdc"
   d="m 5.167,47.361 c 0,0 0.206,3.126 -1.438,3.378 0,0 -0.937,-0.208 -1.105,-0.842 0,0 1.572,-0.043 2.543,-2.536 z"
   id="path108" />
		</g>
		<g
   id="g116">
			<ellipse
   style="fill:#ffffff"
   cx="8.5480003"
   cy="47.533001"
   rx="1.728"
   ry="3.2920001"
   id="ellipse112" />
			<path
   style="fill:#dbdcdc"
   d="m 10.268,47.448 c 0,0 0.205,3.125 -1.438,3.377 0,0 -0.937,-0.208 -1.105,-0.842 0,0 1.571,-0.043 2.543,-2.535 z"
   id="path114" />
		</g>
	</g>
	<g
   id="g150">
		<g
   id="g124">
			<ellipse
   style="fill:#ffffff"
   cx="53.771999"
   cy="41.639"
   rx="1.784"
   ry="3.4000001"
   id="ellipse120" />
			<path
   style="fill:#dbdcdc"
   d="m 55.549,41.552 c 0,0 0.212,3.227 -1.484,3.487 0,0 -0.968,-0.215 -1.143,-0.869 0,0 1.625,-0.046 2.627,-2.618 z"
   id="path122" />
		</g>
		<g
   id="g130">
			<ellipse
   style="fill:#ffffff"
   cx="58.146999"
   cy="39.784"
   rx="1.785"
   ry="3.3989999"
   id="ellipse126" />
			<path
   style="fill:#dbdcdc"
   d="m 59.923,39.696 c 0,0 0.213,3.227 -1.483,3.487 0,0 -0.968,-0.215 -1.142,-0.869 0,0 1.622,-0.045 2.625,-2.618 z"
   id="path128" />
		</g>
		<g
   id="g136">
			<path
   style="fill:#ffffff"
   d="m 52.019,43.841 c 0,1.878 -0.799,3.4 -1.782,3.4 -0.988,0 -1.785,-1.522 -1.785,-3.4 0,-1.877 0.797,-3.398 1.785,-3.398 0.983,-10e-4 1.782,1.521 1.782,3.398 z"
   id="path132" />
			<path
   style="fill:#dbdcdc"
   d="m 52.012,43.754 c 0,0 0.212,3.226 -1.486,3.487 0,0 -0.967,-0.214 -1.14,-0.868 0,0 1.623,-0.047 2.626,-2.619 z"
   id="path134" />
		</g>
		<g
   id="g142">
			<path
   style="fill:#ffffff"
   d="m 49.709,45.498 c 0,1.876 -0.798,3.398 -1.781,3.398 -0.989,0 -1.787,-1.522 -1.787,-3.398 0,-1.88 0.798,-3.398 1.787,-3.398 0.983,0 1.781,1.518 1.781,3.398 z"
   id="path138" />
			<path
   style="fill:#dbdcdc"
   d="m 49.702,45.409 c 0,0 0.211,3.228 -1.485,3.487 0,0 -0.967,-0.215 -1.141,-0.868 0,0 1.623,-0.045 2.626,-2.619 z"
   id="path140" />
		</g>
		<g
   id="g148">
			<ellipse
   style="fill:#ffffff"
   cx="51.553001"
   cy="37.417"
   rx="1.784"
   ry="3.3989999"
   id="ellipse144" />
			<path
   style="fill:#dbdcdc"
   d="m 53.33,37.33 c 0,0 0.212,3.227 -1.486,3.486 0,0 -0.967,-0.215 -1.141,-0.868 0,0 1.623,-0.046 2.627,-2.618 z"
   id="path146" />
		</g>
	</g>
	<g
   id="g182">
		<g
   id="g156">
			<path
   style="fill:#ffffff"
   d="m 50.81,38.002 c 0,1.878 -0.797,3.399 -1.783,3.399 -0.988,0 -1.785,-1.521 -1.785,-3.399 0,-1.878 0.797,-3.398 1.785,-3.398 0.986,0 1.783,1.52 1.783,3.398 z"
   id="path152" />
			<path
   style="fill:#dbdcdc"
   d="m 50.802,37.914 c 0,0 0.212,3.228 -1.484,3.487 0,0 -0.969,-0.215 -1.142,-0.869 0,0 1.624,-0.045 2.626,-2.618 z"
   id="path154" />
		</g>
		<g
   id="g162">
			<path
   style="fill:#ffffff"
   d="m 54.903,34.604 c 0,1.876 -0.798,3.398 -1.782,3.398 -0.987,0 -1.786,-1.522 -1.786,-3.398 0,-1.88 0.799,-3.399 1.786,-3.399 0.984,-10e-4 1.782,1.519 1.782,3.399 z"
   id="path158" />
			<path
   style="fill:#dbdcdc"
   d="m 54.897,34.515 c 0,0 0.211,3.227 -1.486,3.487 0,0 -0.967,-0.215 -1.141,-0.868 10e-4,0 1.625,-0.045 2.627,-2.619 z"
   id="path160" />
		</g>
		<g
   id="g168">
			<ellipse
   style="fill:#ffffff"
   cx="45.98"
   cy="37.957001"
   rx="1.784"
   ry="3.401"
   id="ellipse164" />
			<path
   style="fill:#dbdcdc"
   d="m 47.757,37.871 c 0,0 0.211,3.225 -1.485,3.487 0,0 -0.968,-0.215 -1.141,-0.869 0,0 1.622,-0.048 2.626,-2.618 z"
   id="path166" />
		</g>
		<g
   id="g174">
			<path
   style="fill:#ffffff"
   d="m 45.456,37.96 c 0,1.876 -0.798,3.398 -1.782,3.398 -0.988,0 -1.786,-1.522 -1.786,-3.398 0,-1.88 0.798,-3.399 1.786,-3.399 0.984,0 1.782,1.519 1.782,3.399 z"
   id="path170" />
			<path
   style="fill:#dbdcdc"
   d="m 45.448,37.871 c 0,0 0.212,3.228 -1.484,3.487 0,0 -0.969,-0.215 -1.142,-0.869 0,0 1.623,-0.045 2.626,-2.618 z"
   id="path172" />
		</g>
		<g
   id="g180">
			<ellipse
   style="fill:#ffffff"
   cx="47.765999"
   cy="34.561001"
   rx="1.784"
   ry="3.3989999"
   id="ellipse176" />
			<path
   style="fill:#dbdcdc"
   d="m 49.542,34.472 c 0,0 0.212,3.228 -1.485,3.488 0,0 -0.968,-0.215 -1.142,-0.869 0,0 1.625,-0.046 2.627,-2.619 z"
   id="path178" />
		</g>
	</g>
	<g
   id="g208">
		<g
   id="g188">
			<path
   style="fill:#ffffff"
   d="m 13.73,41.628 c 0,1.816 -0.772,3.289 -1.726,3.289 -0.956,0 -1.729,-1.473 -1.729,-3.289 0,-1.82 0.772,-3.292 1.729,-3.292 0.954,0 1.726,1.472 1.726,3.292 z"
   id="path184" />
			<path
   style="fill:#dbdcdc"
   d="m 13.724,41.542 c 0,0 0.206,3.125 -1.438,3.375 0,0 -0.937,-0.207 -1.105,-0.84 -10e-4,0 1.572,-0.044 2.543,-2.535 z"
   id="path186" />
		</g>
		<g
   id="g194">
			<ellipse
   style="fill:#ffffff"
   cx="8.2329998"
   cy="42.731998"
   rx="1.728"
   ry="3.2920001"
   id="ellipse190" />
			<path
   style="fill:#dbdcdc"
   d="m 9.953,42.647 c 0,0 0.206,3.125 -1.438,3.377 0,0 -0.937,-0.207 -1.106,-0.842 0.001,10e-4 1.573,-0.045 2.544,-2.535 z"
   id="path192" />
		</g>
		<g
   id="g200">
			<ellipse
   style="fill:#ffffff"
   cx="5.0910001"
   cy="38.804001"
   rx="1.728"
   ry="3.2909999"
   id="ellipse196" />
			<path
   style="fill:#dbdcdc"
   d="m 6.812,38.719 c 0,0 0.205,3.124 -1.438,3.376 0,0 -0.937,-0.208 -1.105,-0.841 0,0 1.572,-0.044 2.543,-2.535 z"
   id="path198" />
		</g>
		<g
   id="g206">
			<ellipse
   style="fill:#ffffff"
   cx="10.783"
   cy="38.292999"
   rx="1.728"
   ry="3.2920001"
   id="ellipse202" />
			<path
   style="fill:#dbdcdc"
   d="m 12.503,38.209 c 0,0 0.206,3.123 -1.438,3.376 0,0 -0.936,-0.208 -1.104,-0.841 0,0 1.572,-0.044 2.542,-2.535 z"
   id="path204" />
		</g>
	</g>
	<g
   id="g240">
		<g
   id="g214">
			<ellipse
   style="fill:#ffffff"
   cx="45.143002"
   cy="28.42"
   rx="1.689"
   ry="3.2179999"
   id="ellipse210" />
			<path
   style="fill:#dbdcdc"
   d="m 46.825,28.337 c 0,0 0.2,3.055 -1.406,3.301 0,0 -0.915,-0.203 -1.08,-0.822 0,-10e-4 1.537,-0.045 2.486,-2.479 z"
   id="path212" />
		</g>
		<g
   id="g220">
			<ellipse
   style="fill:#ffffff"
   cx="49.688"
   cy="26.749001"
   rx="1.689"
   ry="3.217"
   id="ellipse216" />
			<path
   style="fill:#dbdcdc"
   d="m 51.369,26.665 c 0,0 0.201,3.055 -1.406,3.301 0,0 -0.914,-0.202 -1.08,-0.821 0,0 1.538,-0.043 2.486,-2.48 z"
   id="path218" />
		</g>
		<g
   id="g226">
			<path
   style="fill:#ffffff"
   d="m 42.206,31.191 c 0,1.779 -0.756,3.222 -1.688,3.222 -0.935,0 -1.69,-1.442 -1.69,-3.222 0,-1.775 0.756,-3.217 1.69,-3.217 0.932,0.001 1.688,1.442 1.688,3.217 z"
   id="path222" />
			<path
   style="fill:#dbdcdc"
   d="m 42.2,31.111 c 0,0 0.2,3.053 -1.407,3.302 0,0 -0.916,-0.203 -1.079,-0.822 0,0 1.537,-0.046 2.486,-2.48 z"
   id="path224" />
		</g>
		<g
   id="g232">
			<ellipse
   style="fill:#ffffff"
   cx="34.953999"
   cy="30.861"
   rx="1.689"
   ry="3.22"
   id="ellipse228" />
			<path
   style="fill:#dbdcdc"
   d="m 36.637,30.778 c 0,0 0.2,3.056 -1.405,3.303 0,0 -0.916,-0.203 -1.081,-0.823 -0.001,0 1.536,-0.044 2.486,-2.48 z"
   id="path230" />
		</g>
		<g
   id="g238">
			<ellipse
   style="fill:#ffffff"
   cx="43.453999"
   cy="21.580999"
   rx="1.688"
   ry="3.2179999"
   id="ellipse234" />
			<path
   style="fill:#dbdcdc"
   d="m 45.136,21.498 c 0,0 0.201,3.055 -1.406,3.301 0,0 -0.915,-0.203 -1.079,-0.822 -0.001,0 1.537,-0.043 2.485,-2.479 z"
   id="path236" />
		</g>
	</g>
	<g
   id="g266">
		<g
   id="g246">
			<ellipse
   style="fill:#ffffff"
   cx="15.716"
   cy="32.193001"
   rx="1.888"
   ry="3.596"
   id="ellipse242" />
			<path
   style="fill:#dbdcdc"
   d="m 17.596,32.101 c 0,0 0.225,3.413 -1.571,3.688 0,0 -1.023,-0.228 -1.208,-0.919 0,0 1.718,-0.048 2.779,-2.769 z"
   id="path244" />
		</g>
		<g
   id="g252">
			<ellipse
   style="fill:#ffffff"
   cx="11.595"
   cy="33.398998"
   rx="1.888"
   ry="3.5999999"
   id="ellipse248" />
			<path
   style="fill:#dbdcdc"
   d="m 13.476,33.308 c 0,0 0.224,3.414 -1.572,3.691 0,0 -1.023,-0.228 -1.208,-0.919 0,0 1.719,-0.05 2.78,-2.772 z"
   id="path250" />
		</g>
		<g
   id="g258">
			<ellipse
   style="fill:#ffffff"
   cx="8.1619997"
   cy="29.108"
   rx="1.887"
   ry="3.5969999"
   id="ellipse254" />
			<path
   style="fill:#dbdcdc"
   d="m 10.043,29.016 c 0,0 0.224,3.414 -1.572,3.689 0,0 -1.024,-0.228 -1.208,-0.92 0,0 1.718,-0.049 2.78,-2.769 z"
   id="path256" />
		</g>
		<g
   id="g264">
			<ellipse
   style="fill:#ffffff"
   cx="12.494"
   cy="26.705999"
   rx="1.888"
   ry="3.5969999"
   id="ellipse260" />
			<path
   style="fill:#dbdcdc"
   d="m 14.374,26.612 c 0,0 0.224,3.415 -1.572,3.69 0,0 -1.023,-0.228 -1.208,-0.919 0,0.001 1.719,-0.048 2.78,-2.771 z"
   id="path262" />
		</g>
	</g>
	<g
   id="g272">
		<ellipse
   style="fill:#ffffff"
   cx="56.522999"
   cy="53.880001"
   rx="1.785"
   ry="3.4000001"
   id="ellipse268" />
		<path
   style="fill:#dbdcdc"
   d="m 58.299,53.793 c 0,0 0.214,3.226 -1.483,3.487 0,0 -0.967,-0.213 -1.141,-0.868 0,0 1.622,-0.047 2.624,-2.619 z"
   id="path270" />
	</g>
	<g
   id="g304">
		<g
   id="g278">
			<ellipse
   style="fill:#ffffff"
   cx="54.214001"
   cy="53.882"
   rx="1.785"
   ry="3.398"
   id="ellipse274" />
			<path
   style="fill:#dbdcdc"
   d="m 55.99,53.793 c 0,0 0.213,3.227 -1.484,3.487 0,0 -0.967,-0.213 -1.142,-0.868 0,0 1.625,-0.046 2.626,-2.619 z"
   id="path276" />
		</g>
		<g
   id="g284">
			<ellipse
   style="fill:#ffffff"
   cx="58.308998"
   cy="50.483002"
   rx="1.785"
   ry="3.398"
   id="ellipse280" />
			<path
   style="fill:#dbdcdc"
   d="m 60.085,50.395 c 0,0 0.214,3.228 -1.484,3.487 0,0 -0.967,-0.215 -1.141,-0.869 0,0 1.622,-0.045 2.625,-2.618 z"
   id="path282" />
		</g>
		<g
   id="g290">
			<ellipse
   style="fill:#ffffff"
   cx="51.168999"
   cy="53.835999"
   rx="1.784"
   ry="3.401"
   id="ellipse286" />
			<path
   style="fill:#dbdcdc"
   d="m 52.945,53.748 c 0,0 0.213,3.228 -1.484,3.489 0,0 -0.968,-0.215 -1.142,-0.87 0,0 1.625,-0.046 2.626,-2.619 z"
   id="path288" />
		</g>
		<g
   id="g296">
			<path
   style="fill:#ffffff"
   d="m 50.646,53.837 c 0,1.876 -0.799,3.4 -1.783,3.4 -0.988,0 -1.785,-1.524 -1.785,-3.4 0,-1.877 0.797,-3.397 1.785,-3.397 0.984,-10e-4 1.783,1.52 1.783,3.397 z"
   id="path292" />
			<path
   style="fill:#dbdcdc"
   d="m 50.637,53.748 c 0,0 0.213,3.229 -1.483,3.489 0,0 -0.968,-0.215 -1.143,-0.87 0,0 1.624,-0.045 2.626,-2.619 z"
   id="path294" />
		</g>
		<g
   id="g302">
			<path
   style="fill:#ffffff"
   d="m 54.738,50.439 c 0,1.875 -0.797,3.397 -1.783,3.397 -0.986,0 -1.785,-1.522 -1.785,-3.397 0,-1.88 0.799,-3.4 1.785,-3.4 0.986,0 1.783,1.521 1.783,3.4 z"
   id="path298" />
			<path
   style="fill:#dbdcdc"
   d="m 54.73,50.351 c 0,0 0.213,3.227 -1.484,3.486 0,0 -0.967,-0.214 -1.142,-0.867 0,0 1.625,-0.046 2.626,-2.619 z"
   id="path300" />
		</g>
	</g>
	<g
   id="g324">
		<g
   id="g310">
			<ellipse
   style="fill:#ffffff"
   cx="9.2139997"
   cy="55.780998"
   rx="1.727"
   ry="3.293"
   id="ellipse306" />
			<path
   style="fill:#dbdcdc"
   d="m 10.934,55.697 c 0,0 0.206,3.123 -1.438,3.377 0,0 -0.937,-0.207 -1.105,-0.839 -10e-4,0 1.572,-0.047 2.543,-2.538 z"
   id="path308" />
		</g>
		<g
   id="g316">
			<ellipse
   style="fill:#ffffff"
   cx="5.684"
   cy="53.130001"
   rx="1.727"
   ry="3.2909999"
   id="ellipse312" />
			<path
   style="fill:#dbdcdc"
   d="m 7.403,53.046 c 0,0 0.207,3.124 -1.437,3.375 0,0 -0.937,-0.208 -1.106,-0.84 0,0 1.573,-0.045 2.543,-2.535 z"
   id="path314" />
		</g>
		<g
   id="g322">
			<ellipse
   style="fill:#ffffff"
   cx="10.942"
   cy="52.491001"
   rx="1.728"
   ry="3.2920001"
   id="ellipse318" />
			<path
   style="fill:#dbdcdc"
   d="m 12.663,52.406 c 0,0 0.205,3.124 -1.438,3.377 0,0 -0.936,-0.208 -1.105,-0.841 0,0 1.572,-0.044 2.543,-2.536 z"
   id="path320" />
		</g>
	</g>
	<g
   id="g356">
		<g
   id="g330">
			<path
   style="fill:#ffffff"
   d="m 58.087,48.761 c 0,1.877 -0.798,3.399 -1.782,3.399 -0.988,0 -1.786,-1.522 -1.786,-3.399 0,-1.879 0.798,-3.399 1.786,-3.399 0.984,-0.001 1.782,1.52 1.782,3.399 z"
   id="path326" />
			<path
   style="fill:#dbdcdc"
   d="m 58.08,48.673 c 0,0 0.211,3.227 -1.485,3.487 0,0 -0.967,-0.215 -1.142,-0.869 0,0 1.624,-0.046 2.627,-2.618 z"
   id="path328" />
		</g>
		<g
   id="g336">
			<ellipse
   style="fill:#ffffff"
   cx="60.396999"
   cy="45.361"
   rx="1.785"
   ry="3.3989999"
   id="ellipse332" />
			<path
   style="fill:#dbdcdc"
   d="m 62.174,45.272 c 0,0 0.213,3.228 -1.484,3.488 0,0 -0.968,-0.216 -1.142,-0.868 0,10e-4 1.624,-0.045 2.626,-2.62 z"
   id="path334" />
		</g>
		<g
   id="g342">
			<path
   style="fill:#ffffff"
   d="m 55.041,48.715 c 0,1.88 -0.798,3.402 -1.783,3.402 -0.986,0 -1.784,-1.522 -1.784,-3.402 0,-1.876 0.798,-3.398 1.784,-3.398 0.985,-10e-4 1.783,1.522 1.783,3.398 z"
   id="path338" />
			<path
   style="fill:#dbdcdc"
   d="m 55.034,48.63 c 0,0 0.212,3.225 -1.485,3.487 0,0 -0.967,-0.215 -1.142,-0.869 0,0 1.625,-0.048 2.627,-2.618 z"
   id="path340" />
		</g>
		<g
   id="g348">
			<ellipse
   style="fill:#ffffff"
   cx="50.949001"
   cy="48.716999"
   rx="1.784"
   ry="3.4000001"
   id="ellipse344" />
			<path
   style="fill:#dbdcdc"
   d="m 52.726,48.63 c 0,0 0.212,3.227 -1.484,3.487 0,0 -0.967,-0.215 -1.143,-0.869 0,0 1.625,-0.046 2.627,-2.618 z"
   id="path346" />
		</g>
		<g
   id="g354">
			<ellipse
   style="fill:#ffffff"
   cx="55.042"
   cy="45.318001"
   rx="1.785"
   ry="3.398"
   id="ellipse350" />
			<path
   style="fill:#dbdcdc"
   d="m 56.819,45.229 c 0,0 0.212,3.229 -1.485,3.487 0,0 -0.967,-0.215 -1.141,-0.868 0,10e-4 1.624,-0.044 2.626,-2.619 z"
   id="path352" />
		</g>
	</g>
	<g
   id="g382">
		<g
   id="g362">
			<ellipse
   style="fill:#ffffff"
   cx="9.7679996"
   cy="50.868"
   rx="1.728"
   ry="3.29"
   id="ellipse358" />
			<path
   style="fill:#dbdcdc"
   d="m 11.488,50.781 c 0,0 0.206,3.126 -1.438,3.377 0,0 -0.937,-0.209 -1.106,-0.841 10e-4,0 1.574,-0.045 2.544,-2.536 z"
   id="path360" />
		</g>
		<g
   id="g368">
			<ellipse
   style="fill:#ffffff"
   cx="5.9970002"
   cy="51.972"
   rx="1.728"
   ry="3.293"
   id="ellipse364" />
			<path
   style="fill:#dbdcdc"
   d="m 7.717,51.888 c 0,0 0.206,3.123 -1.438,3.377 0,0 -0.937,-0.207 -1.105,-0.841 0,0 1.573,-0.047 2.543,-2.536 z"
   id="path366" />
		</g>
		<g
   id="g374">
			<ellipse
   style="fill:#ffffff"
   cx="3.447"
   cy="47.446999"
   rx="1.728"
   ry="3.2920001"
   id="ellipse370" />
			<path
   style="fill:#dbdcdc"
   d="m 5.167,47.361 c 0,0 0.206,3.126 -1.438,3.378 0,0 -0.937,-0.208 -1.105,-0.842 0,0 1.572,-0.043 2.543,-2.536 z"
   id="path372" />
		</g>
		<g
   id="g380">
			<ellipse
   style="fill:#ffffff"
   cx="8.5480003"
   cy="47.533001"
   rx="1.728"
   ry="3.2920001"
   id="ellipse376" />
			<path
   style="fill:#dbdcdc"
   d="m 10.268,47.448 c 0,0 0.205,3.125 -1.438,3.377 0,0 -0.937,-0.208 -1.105,-0.842 0,0 1.571,-0.043 2.543,-2.535 z"
   id="path378" />
		</g>
	</g>
	<g
   id="g414">
		<g
   id="g388">
			<ellipse
   style="fill:#ffffff"
   cx="50.505001"
   cy="39.622002"
   rx="1.784"
   ry="3.3989999"
   id="ellipse384" />
			<path
   style="fill:#dbdcdc"
   d="m 52.282,39.534 c 0,0 0.211,3.227 -1.484,3.487 0,0 -0.969,-0.215 -1.143,-0.868 0,0 1.624,-0.046 2.627,-2.619 z"
   id="path386" />
		</g>
		<g
   id="g394">
			<ellipse
   style="fill:#ffffff"
   cx="54.880001"
   cy="37.768002"
   rx="1.784"
   ry="3.3989999"
   id="ellipse390" />
			<path
   style="fill:#dbdcdc"
   d="m 56.656,37.679 c 0,0 0.213,3.228 -1.484,3.488 0,0 -0.967,-0.215 -1.141,-0.869 0,0 1.621,-0.046 2.625,-2.619 z"
   id="path392" />
		</g>
		<g
   id="g400">
			<ellipse
   style="fill:#ffffff"
   cx="46.967999"
   cy="41.823002"
   rx="1.784"
   ry="3.401"
   id="ellipse396" />
			<path
   style="fill:#dbdcdc"
   d="m 48.744,41.737 c 0,0 0.212,3.226 -1.485,3.487 0,0 -0.967,-0.214 -1.141,-0.869 0,0 1.623,-0.046 2.626,-2.618 z"
   id="path398" />
		</g>
		<g
   id="g406">
			<ellipse
   style="fill:#ffffff"
   cx="44.658001"
   cy="43.48"
   rx="1.784"
   ry="3.3989999"
   id="ellipse402" />
			<path
   style="fill:#dbdcdc"
   d="m 46.436,43.393 c 0,0 0.21,3.228 -1.485,3.487 0,0 -0.968,-0.215 -1.142,-0.869 0,0 1.623,-0.045 2.627,-2.618 z"
   id="path404" />
		</g>
		<g
   id="g412">
			<path
   style="fill:#ffffff"
   d="m 50.069,35.4 c 0,1.876 -0.799,3.398 -1.782,3.398 -0.988,0 -1.785,-1.522 -1.785,-3.398 0,-1.879 0.797,-3.399 1.785,-3.399 0.984,0 1.782,1.52 1.782,3.399 z"
   id="path408" />
			<path
   style="fill:#dbdcdc"
   d="m 50.063,35.313 c 0,0 0.212,3.227 -1.486,3.486 0,0 -0.967,-0.215 -1.14,-0.867 0,0 1.623,-0.046 2.626,-2.619 z"
   id="path410" />
		</g>
	</g>
	<g
   id="g440">
		<g
   id="g420">
			<path
   style="fill:#ffffff"
   d="m 13.73,41.628 c 0,1.816 -0.772,3.289 -1.726,3.289 -0.956,0 -1.729,-1.473 -1.729,-3.289 0,-1.82 0.772,-3.292 1.729,-3.292 0.954,0 1.726,1.472 1.726,3.292 z"
   id="path416" />
			<path
   style="fill:#dbdcdc"
   d="m 13.724,41.542 c 0,0 0.206,3.125 -1.438,3.375 0,0 -0.937,-0.207 -1.105,-0.84 -10e-4,0 1.572,-0.044 2.543,-2.535 z"
   id="path418" />
		</g>
		<g
   id="g426">
			<ellipse
   style="fill:#ffffff"
   cx="8.2329998"
   cy="42.731998"
   rx="1.728"
   ry="3.2920001"
   id="ellipse422" />
			<path
   style="fill:#dbdcdc"
   d="m 9.953,42.647 c 0,0 0.206,3.125 -1.438,3.377 0,0 -0.937,-0.207 -1.106,-0.842 0.001,10e-4 1.573,-0.045 2.544,-2.535 z"
   id="path424" />
		</g>
		<g
   id="g432">
			<ellipse
   style="fill:#ffffff"
   cx="5.0910001"
   cy="38.804001"
   rx="1.728"
   ry="3.2909999"
   id="ellipse428" />
			<path
   style="fill:#dbdcdc"
   d="m 6.812,38.719 c 0,0 0.205,3.124 -1.438,3.376 0,0 -0.937,-0.208 -1.105,-0.841 0,0 1.572,-0.044 2.543,-2.535 z"
   id="path430" />
		</g>
		<g
   id="g438">
			<ellipse
   style="fill:#ffffff"
   cx="10.783"
   cy="38.292999"
   rx="1.728"
   ry="3.2920001"
   id="ellipse434" />
			<path
   style="fill:#dbdcdc"
   d="m 12.503,38.209 c 0,0 0.206,3.123 -1.438,3.376 0,0 -0.936,-0.208 -1.104,-0.841 0,0 1.572,-0.044 2.542,-2.535 z"
   id="path436" />
		</g>
	</g>
	<g
   id="g472">
		<g
   id="g446">
			<ellipse
   style="fill:#ffffff"
   cx="45.143002"
   cy="28.42"
   rx="1.689"
   ry="3.2179999"
   id="ellipse442" />
			<path
   style="fill:#dbdcdc"
   d="m 46.825,28.337 c 0,0 0.2,3.055 -1.406,3.301 0,0 -0.915,-0.203 -1.08,-0.822 0,-10e-4 1.537,-0.045 2.486,-2.479 z"
   id="path444" />
		</g>
		<g
   id="g452">
			<ellipse
   style="fill:#ffffff"
   cx="49.688"
   cy="26.749001"
   rx="1.689"
   ry="3.217"
   id="ellipse448" />
			<path
   style="fill:#dbdcdc"
   d="m 51.369,26.665 c 0,0 0.201,3.055 -1.406,3.301 0,0 -0.914,-0.202 -1.08,-0.821 0,0 1.538,-0.043 2.486,-2.48 z"
   id="path450" />
		</g>
		<g
   id="g458">
			<path
   style="fill:#ffffff"
   d="m 42.206,31.191 c 0,1.779 -0.756,3.222 -1.688,3.222 -0.935,0 -1.69,-1.442 -1.69,-3.222 0,-1.775 0.756,-3.217 1.69,-3.217 0.932,0.001 1.688,1.442 1.688,3.217 z"
   id="path454" />
			<path
   style="fill:#dbdcdc"
   d="m 42.2,31.111 c 0,0 0.2,3.053 -1.407,3.302 0,0 -0.916,-0.203 -1.079,-0.822 0,0 1.537,-0.046 2.486,-2.48 z"
   id="path456" />
		</g>
		<g
   id="g464">
			<ellipse
   style="fill:#ffffff"
   cx="34.953999"
   cy="30.861"
   rx="1.689"
   ry="3.22"
   id="ellipse460" />
			<path
   style="fill:#dbdcdc"
   d="m 36.637,30.778 c 0,0 0.2,3.056 -1.405,3.303 0,0 -0.916,-0.203 -1.081,-0.823 -0.001,0 1.536,-0.044 2.486,-2.48 z"
   id="path462" />
		</g>
		<g
   id="g470">
			<ellipse
   style="fill:#ffffff"
   cx="43.453999"
   cy="21.580999"
   rx="1.688"
   ry="3.2179999"
   id="ellipse466" />
			<path
   style="fill:#dbdcdc"
   d="m 45.136,21.498 c 0,0 0.201,3.055 -1.406,3.301 0,0 -0.915,-0.203 -1.079,-0.822 -0.001,0 1.537,-0.043 2.485,-2.479 z"
   id="path468" />
		</g>
	</g>
	<g
   id="g498">
		<g
   id="g478">
			<ellipse
   style="fill:#ffffff"
   cx="15.716"
   cy="32.193001"
   rx="1.888"
   ry="3.596"
   id="ellipse474" />
			<path
   style="fill:#dbdcdc"
   d="m 17.596,32.101 c 0,0 0.225,3.413 -1.571,3.688 0,0 -1.023,-0.228 -1.208,-0.919 0,0 1.718,-0.048 2.779,-2.769 z"
   id="path476" />
		</g>
		<g
   id="g484">
			<ellipse
   style="fill:#ffffff"
   cx="11.595"
   cy="33.398998"
   rx="1.888"
   ry="3.5999999"
   id="ellipse480" />
			<path
   style="fill:#dbdcdc"
   d="m 13.476,33.308 c 0,0 0.224,3.414 -1.572,3.691 0,0 -1.023,-0.228 -1.208,-0.919 0,0 1.719,-0.05 2.78,-2.772 z"
   id="path482" />
		</g>
		<g
   id="g490">
			<ellipse
   style="fill:#ffffff"
   cx="8.1619997"
   cy="29.108"
   rx="1.887"
   ry="3.5969999"
   id="ellipse486" />
			<path
   style="fill:#dbdcdc"
   d="m 10.043,29.016 c 0,0 0.224,3.414 -1.572,3.689 0,0 -1.024,-0.228 -1.208,-0.92 0,0 1.718,-0.049 2.78,-2.769 z"
   id="path488" />
		</g>
		<g
   id="g496">
			<ellipse
   style="fill:#ffffff"
   cx="12.494"
   cy="26.705999"
   rx="1.888"
   ry="3.5969999"
   id="ellipse492" />
			<path
   style="fill:#dbdcdc"
   d="m 14.374,26.612 c 0,0 0.224,3.415 -1.572,3.69 0,0 -1.023,-0.228 -1.208,-0.919 0,0.001 1.719,-0.048 2.78,-2.771 z"
   id="path494" />
		</g>
	</g>
	<g
   id="g504">
		<ellipse
   style="fill:#ffffff"
   cx="23.913"
   cy="54.639"
   rx="1.784"
   ry="3.401"
   id="ellipse500" />
		<path
   style="fill:#dbdcdc"
   d="m 25.689,54.553 c 0,0 0.213,3.226 -1.483,3.487 0,0 -0.967,-0.215 -1.141,-0.869 0,0 1.622,-0.047 2.624,-2.618 z"
   id="path502" />
	</g>
	<g
   id="g536">
		<g
   id="g510">
			<ellipse
   style="fill:#ffffff"
   cx="21.605"
   cy="54.640999"
   rx="1.784"
   ry="3.3989999"
   id="ellipse506" />
			<path
   style="fill:#dbdcdc"
   d="m 23.381,54.553 c 0,0 0.212,3.227 -1.484,3.487 0,0 -0.967,-0.215 -1.142,-0.869 0,0 1.624,-0.046 2.626,-2.618 z"
   id="path508" />
		</g>
		<g
   id="g516">
			<ellipse
   style="fill:#ffffff"
   cx="25.698999"
   cy="51.242001"
   rx="1.785"
   ry="3.398"
   id="ellipse512" />
			<path
   style="fill:#dbdcdc"
   d="m 27.475,51.153 c 0,0 0.213,3.229 -1.484,3.487 0,0 -0.967,-0.215 -1.141,-0.868 0,0 1.622,-0.044 2.625,-2.619 z"
   id="path514" />
		</g>
		<g
   id="g522">
			<ellipse
   style="fill:#ffffff"
   cx="18.559"
   cy="54.595001"
   rx="1.784"
   ry="3.401"
   id="ellipse518" />
			<path
   style="fill:#dbdcdc"
   d="m 20.336,54.508 c 0,0 0.212,3.227 -1.484,3.488 0,0 -0.968,-0.216 -1.142,-0.87 -0.001,0 1.623,-0.046 2.626,-2.618 z"
   id="path520" />
		</g>
		<g
   id="g528">
			<ellipse
   style="fill:#ffffff"
   cx="16.250999"
   cy="54.597"
   rx="1.784"
   ry="3.3989999"
   id="ellipse524" />
			<path
   style="fill:#dbdcdc"
   d="m 18.028,54.508 c 0,0 0.212,3.228 -1.484,3.488 0,0 -0.968,-0.216 -1.142,-0.87 -10e-4,0 1.623,-0.045 2.626,-2.618 z"
   id="path526" />
		</g>
		<g
   id="g534">
			<ellipse
   style="fill:#ffffff"
   cx="20.344999"
   cy="51.198002"
   rx="1.784"
   ry="3.398"
   id="ellipse530" />
			<path
   style="fill:#dbdcdc"
   d="m 22.121,51.109 c 0,0 0.212,3.228 -1.485,3.487 0,0 -0.967,-0.214 -1.142,-0.868 0,10e-4 1.625,-0.045 2.627,-2.619 z"
   id="path532" />
		</g>
	</g>
	<g
   id="g568">
		<g
   id="g542">
			<path
   style="fill:#ffffff"
   d="m 25.477,49.521 c 0,1.875 -0.797,3.397 -1.782,3.397 -0.988,0 -1.786,-1.522 -1.786,-3.397 0,-1.88 0.798,-3.4 1.786,-3.4 0.984,-0.001 1.782,1.52 1.782,3.4 z"
   id="path538" />
			<path
   style="fill:#dbdcdc"
   d="m 25.47,49.432 c 0,0 0.211,3.227 -1.485,3.486 0,0 -0.967,-0.214 -1.141,-0.867 0,0 1.623,-0.046 2.626,-2.619 z"
   id="path540" />
		</g>
		<g
   id="g548">
			<ellipse
   style="fill:#ffffff"
   cx="27.788"
   cy="46.119999"
   rx="1.785"
   ry="3.4000001"
   id="ellipse544" />
			<path
   style="fill:#dbdcdc"
   d="m 29.564,46.032 c 0,0 0.212,3.228 -1.484,3.488 0,0 -0.968,-0.216 -1.142,-0.869 0,0 1.624,-0.046 2.626,-2.619 z"
   id="path546" />
		</g>
		<g
   id="g554">
			<path
   style="fill:#ffffff"
   d="m 22.432,49.475 c 0,1.879 -0.798,3.402 -1.783,3.402 -0.987,0 -1.785,-1.523 -1.785,-3.402 0,-1.876 0.798,-3.399 1.785,-3.399 0.985,-10e-4 1.783,1.523 1.783,3.399 z"
   id="path550" />
			<path
   style="fill:#dbdcdc"
   d="m 22.424,49.389 c 0,0 0.212,3.225 -1.484,3.488 0,0 -0.967,-0.215 -1.142,-0.869 -10e-4,0 1.624,-0.048 2.626,-2.619 z"
   id="path552" />
		</g>
		<g
   id="g560">
			<ellipse
   style="fill:#ffffff"
   cx="18.339001"
   cy="49.477001"
   rx="1.784"
   ry="3.4000001"
   id="ellipse556" />
			<path
   style="fill:#dbdcdc"
   d="m 20.116,49.389 c 0,0 0.212,3.228 -1.484,3.488 0,0 -0.967,-0.215 -1.142,-0.869 -10e-4,0 1.624,-0.046 2.626,-2.619 z"
   id="path558" />
		</g>
		<g
   id="g566">
			<path
   style="fill:#ffffff"
   d="m 24.217,46.078 c 0,1.876 -0.797,3.398 -1.782,3.398 -0.988,0 -1.787,-1.522 -1.787,-3.398 0,-1.88 0.799,-3.398 1.787,-3.398 0.984,0 1.782,1.518 1.782,3.398 z"
   id="path562" />
			<path
   style="fill:#dbdcdc"
   d="m 24.21,45.989 c 0,0 0.211,3.228 -1.485,3.487 0,0 -0.967,-0.215 -1.141,-0.869 0,0 1.623,-0.044 2.626,-2.618 z"
   id="path564" />
		</g>
	</g>
	<g
   id="g600">
		<g
   id="g574">
			<ellipse
   style="fill:#ffffff"
   cx="20.343"
   cy="44.443001"
   rx="1.784"
   ry="3.4000001"
   id="ellipse570" />
			<path
   style="fill:#dbdcdc"
   d="m 22.12,44.355 c 0,0 0.212,3.228 -1.485,3.488 0,0 -0.968,-0.215 -1.142,-0.869 0,0.001 1.625,-0.045 2.627,-2.619 z"
   id="path572" />
		</g>
		<g
   id="g580">
			<ellipse
   style="fill:#ffffff"
   cx="24.718"
   cy="42.59"
   rx="1.785"
   ry="3.398"
   id="ellipse576" />
			<path
   style="fill:#dbdcdc"
   d="m 26.494,42.501 c 0,0 0.213,3.228 -1.484,3.487 0,0 -0.967,-0.214 -1.141,-0.869 0,0 1.622,-0.046 2.625,-2.618 z"
   id="path578" />
		</g>
		<g
   id="g586">
			<path
   style="fill:#ffffff"
   d="m 18.59,46.646 c 0,1.877 -0.799,3.399 -1.783,3.399 -0.988,0 -1.785,-1.522 -1.785,-3.399 0,-1.878 0.797,-3.399 1.785,-3.399 0.984,0 1.783,1.522 1.783,3.399 z"
   id="path582" />
			<path
   style="fill:#dbdcdc"
   d="m 18.583,46.56 c 0,0 0.212,3.226 -1.486,3.486 0,0 -0.967,-0.214 -1.141,-0.867 0,0 1.623,-0.049 2.627,-2.619 z"
   id="path584" />
		</g>
		<g
   id="g592">
			<ellipse
   style="fill:#ffffff"
   cx="14.496"
   cy="48.301998"
   rx="1.784"
   ry="3.3989999"
   id="ellipse588" />
			<path
   style="fill:#dbdcdc"
   d="m 16.273,48.214 c 0,0 0.211,3.229 -1.486,3.487 0,0 -0.967,-0.214 -1.141,-0.869 10e-4,0 1.624,-0.045 2.627,-2.618 z"
   id="path590" />
		</g>
		<g
   id="g598">
			<ellipse
   style="fill:#ffffff"
   cx="18.124001"
   cy="40.222"
   rx="1.784"
   ry="3.3989999"
   id="ellipse594" />
			<path
   style="fill:#dbdcdc"
   d="m 19.9,40.134 c 0,0 0.212,3.227 -1.485,3.487 0,0 -0.967,-0.216 -1.141,-0.868 0,0 1.623,-0.046 2.626,-2.619 z"
   id="path596" />
		</g>
	</g>
	<g
   id="g606">
		<ellipse
   style="fill:#ffffff"
   cx="23.913"
   cy="54.639"
   rx="1.784"
   ry="3.401"
   id="ellipse602" />
		<path
   style="fill:#dbdcdc"
   d="m 25.689,54.553 c 0,0 0.213,3.226 -1.483,3.487 0,0 -0.967,-0.215 -1.141,-0.869 0,0 1.622,-0.047 2.624,-2.618 z"
   id="path604" />
	</g>
	<g
   id="g638">
		<g
   id="g612">
			<ellipse
   style="fill:#ffffff"
   cx="21.605"
   cy="54.640999"
   rx="1.784"
   ry="3.3989999"
   id="ellipse608" />
			<path
   style="fill:#dbdcdc"
   d="m 23.381,54.553 c 0,0 0.212,3.227 -1.484,3.487 0,0 -0.967,-0.215 -1.142,-0.869 0,0 1.624,-0.046 2.626,-2.618 z"
   id="path610" />
		</g>
		<g
   id="g618">
			<ellipse
   style="fill:#ffffff"
   cx="25.698999"
   cy="51.242001"
   rx="1.785"
   ry="3.398"
   id="ellipse614" />
			<path
   style="fill:#dbdcdc"
   d="m 27.475,51.153 c 0,0 0.213,3.229 -1.484,3.487 0,0 -0.967,-0.215 -1.141,-0.868 0,0 1.622,-0.044 2.625,-2.619 z"
   id="path616" />
		</g>
		<g
   id="g624">
			<ellipse
   style="fill:#ffffff"
   cx="18.559"
   cy="54.595001"
   rx="1.784"
   ry="3.401"
   id="ellipse620" />
			<path
   style="fill:#dbdcdc"
   d="m 20.336,54.508 c 0,0 0.212,3.227 -1.484,3.488 0,0 -0.968,-0.216 -1.142,-0.87 -0.001,0 1.623,-0.046 2.626,-2.618 z"
   id="path622" />
		</g>
		<g
   id="g630">
			<ellipse
   style="fill:#ffffff"
   cx="16.250999"
   cy="54.597"
   rx="1.784"
   ry="3.3989999"
   id="ellipse626" />
			<path
   style="fill:#dbdcdc"
   d="m 18.028,54.508 c 0,0 0.212,3.228 -1.484,3.488 0,0 -0.968,-0.216 -1.142,-0.87 -10e-4,0 1.623,-0.045 2.626,-2.618 z"
   id="path628" />
		</g>
		<g
   id="g636">
			<ellipse
   style="fill:#ffffff"
   cx="20.344999"
   cy="51.198002"
   rx="1.784"
   ry="3.398"
   id="ellipse632" />
			<path
   style="fill:#dbdcdc"
   d="m 22.121,51.109 c 0,0 0.212,3.228 -1.485,3.487 0,0 -0.967,-0.214 -1.142,-0.868 0,10e-4 1.625,-0.045 2.627,-2.619 z"
   id="path634" />
		</g>
	</g>
	<g
   id="g670">
		<g
   id="g644">
			<path
   style="fill:#ffffff"
   d="m 25.477,49.521 c 0,1.875 -0.797,3.397 -1.782,3.397 -0.988,0 -1.786,-1.522 -1.786,-3.397 0,-1.88 0.798,-3.4 1.786,-3.4 0.984,-0.001 1.782,1.52 1.782,3.4 z"
   id="path640" />
			<path
   style="fill:#dbdcdc"
   d="m 25.47,49.432 c 0,0 0.211,3.227 -1.485,3.486 0,0 -0.967,-0.214 -1.141,-0.867 0,0 1.623,-0.046 2.626,-2.619 z"
   id="path642" />
		</g>
		<g
   id="g650">
			<ellipse
   style="fill:#ffffff"
   cx="27.788"
   cy="46.119999"
   rx="1.785"
   ry="3.4000001"
   id="ellipse646" />
			<path
   style="fill:#dbdcdc"
   d="m 29.564,46.032 c 0,0 0.212,3.228 -1.484,3.488 0,0 -0.968,-0.216 -1.142,-0.869 0,0 1.624,-0.046 2.626,-2.619 z"
   id="path648" />
		</g>
		<g
   id="g656">
			<path
   style="fill:#ffffff"
   d="m 22.432,49.475 c 0,1.879 -0.798,3.402 -1.783,3.402 -0.987,0 -1.785,-1.523 -1.785,-3.402 0,-1.876 0.798,-3.399 1.785,-3.399 0.985,-10e-4 1.783,1.523 1.783,3.399 z"
   id="path652" />
			<path
   style="fill:#dbdcdc"
   d="m 22.424,49.389 c 0,0 0.212,3.225 -1.484,3.488 0,0 -0.967,-0.215 -1.142,-0.869 -10e-4,0 1.624,-0.048 2.626,-2.619 z"
   id="path654" />
		</g>
		<g
   id="g662">
			<ellipse
   style="fill:#ffffff"
   cx="18.339001"
   cy="49.477001"
   rx="1.784"
   ry="3.4000001"
   id="ellipse658" />
			<path
   style="fill:#dbdcdc"
   d="m 20.116,49.389 c 0,0 0.212,3.228 -1.484,3.488 0,0 -0.967,-0.215 -1.142,-0.869 -10e-4,0 1.624,-0.046 2.626,-2.619 z"
   id="path660" />
		</g>
		<g
   id="g668">
			<path
   style="fill:#ffffff"
   d="m 24.217,46.078 c 0,1.876 -0.797,3.398 -1.782,3.398 -0.988,0 -1.787,-1.522 -1.787,-3.398 0,-1.88 0.799,-3.398 1.787,-3.398 0.984,0 1.782,1.518 1.782,3.398 z"
   id="path664" />
			<path
   style="fill:#dbdcdc"
   d="m 24.21,45.989 c 0,0 0.211,3.228 -1.485,3.487 0,0 -0.967,-0.215 -1.141,-0.869 0,0 1.623,-0.044 2.626,-2.618 z"
   id="path666" />
		</g>
	</g>
	<g
   id="g676">
		<ellipse
   style="fill:#ffffff"
   cx="40.067001"
   cy="54.536999"
   rx="1.785"
   ry="3.3989999"
   id="ellipse672" />
		<path
   style="fill:#dbdcdc"
   d="m 41.844,54.45 c 0,0 0.213,3.226 -1.482,3.486 0,0 -0.967,-0.214 -1.143,-0.867 0,0 1.623,-0.047 2.625,-2.619 z"
   id="path674" />
	</g>
	<g
   id="g708">
		<g
   id="g682">
			<path
   style="fill:#ffffff"
   d="m 39.542,54.539 c 0,1.875 -0.795,3.397 -1.782,3.397 -0.986,0 -1.785,-1.522 -1.785,-3.397 0,-1.88 0.799,-3.4 1.785,-3.4 0.987,0 1.782,1.52 1.782,3.4 z"
   id="path678" />
			<path
   style="fill:#dbdcdc"
   d="m 39.536,54.45 c 0,0 0.213,3.227 -1.485,3.486 0,0 -0.967,-0.214 -1.142,-0.867 0,0 1.625,-0.046 2.627,-2.619 z"
   id="path680" />
		</g>
		<g
   id="g688">
			<ellipse
   style="fill:#ffffff"
   cx="41.853001"
   cy="51.139"
   rx="1.785"
   ry="3.4000001"
   id="ellipse684" />
			<path
   style="fill:#dbdcdc"
   d="m 43.63,51.051 c 0,0 0.214,3.228 -1.483,3.488 0,0 -0.968,-0.216 -1.142,-0.87 0,0 1.622,-0.045 2.625,-2.618 z"
   id="path686" />
		</g>
		<g
   id="g694">
			<ellipse
   style="fill:#ffffff"
   cx="34.714001"
   cy="54.493"
   rx="1.783"
   ry="3.3989999"
   id="ellipse690" />
			<path
   style="fill:#dbdcdc"
   d="m 36.491,54.405 c 0,0 0.213,3.227 -1.485,3.487 0,0 -0.968,-0.215 -1.143,-0.868 0,0 1.625,-0.045 2.628,-2.619 z"
   id="path692" />
		</g>
		<g
   id="g700">
			<path
   style="fill:#ffffff"
   d="m 34.189,54.494 c 0,1.875 -0.798,3.398 -1.782,3.398 -0.988,0 -1.785,-1.523 -1.785,-3.398 0,-1.878 0.797,-3.399 1.785,-3.399 0.985,0 1.782,1.521 1.782,3.399 z"
   id="path696" />
			<path
   style="fill:#dbdcdc"
   d="m 34.183,54.405 c 0,0 0.213,3.228 -1.484,3.487 0,0 -0.968,-0.215 -1.142,-0.868 -10e-4,0 1.622,-0.045 2.626,-2.619 z"
   id="path698" />
		</g>
		<g
   id="g706">
			<ellipse
   style="fill:#ffffff"
   cx="36.499001"
   cy="51.095001"
   rx="1.784"
   ry="3.3989999"
   id="ellipse702" />
			<path
   style="fill:#dbdcdc"
   d="m 38.276,51.007 c 0,0 0.212,3.227 -1.485,3.487 0,0 -0.968,-0.215 -1.142,-0.869 0,0 1.625,-0.046 2.627,-2.618 z"
   id="path704" />
		</g>
	</g>
	<g
   id="g740">
		<g
   id="g714">
			<ellipse
   style="fill:#ffffff"
   cx="39.848"
   cy="49.417"
   rx="1.785"
   ry="3.3989999"
   id="ellipse710" />
			<path
   style="fill:#dbdcdc"
   d="m 41.625,49.328 c 0,0 0.211,3.228 -1.485,3.488 0,0 -0.967,-0.215 -1.142,-0.869 0,0 1.623,-0.046 2.627,-2.619 z"
   id="path712" />
		</g>
		<g
   id="g720">
			<ellipse
   style="fill:#ffffff"
   cx="43.942001"
   cy="46.018002"
   rx="1.785"
   ry="3.3989999"
   id="ellipse716" />
			<path
   style="fill:#dbdcdc"
   d="m 45.719,45.93 c 0,0 0.212,3.228 -1.483,3.487 0,0 -0.969,-0.215 -1.142,-0.869 0,0 1.623,-0.046 2.625,-2.618 z"
   id="path718" />
		</g>
		<g
   id="g726">
			<path
   style="fill:#ffffff"
   d="m 38.587,49.371 c 0,1.88 -0.799,3.402 -1.783,3.402 -0.986,0 -1.785,-1.522 -1.785,-3.402 0,-1.876 0.799,-3.398 1.785,-3.398 0.984,0 1.783,1.522 1.783,3.398 z"
   id="path722" />
			<path
   style="fill:#dbdcdc"
   d="m 38.578,49.286 c 0,0 0.212,3.225 -1.483,3.487 0,0 -0.967,-0.215 -1.142,-0.869 0,0 1.623,-0.048 2.625,-2.618 z"
   id="path724" />
		</g>
		<g
   id="g732">
			<ellipse
   style="fill:#ffffff"
   cx="34.494999"
   cy="49.373001"
   rx="1.785"
   ry="3.4000001"
   id="ellipse728" />
			<path
   style="fill:#dbdcdc"
   d="m 36.27,49.286 c 0,0 0.213,3.227 -1.482,3.487 0,0 -0.967,-0.215 -1.143,-0.869 0,0 1.624,-0.046 2.625,-2.618 z"
   id="path730" />
		</g>
		<g
   id="g738">
			<path
   style="fill:#ffffff"
   d="m 40.371,45.976 c 0,1.875 -0.797,3.397 -1.782,3.397 -0.986,0 -1.785,-1.522 -1.785,-3.397 0,-1.88 0.799,-3.399 1.785,-3.399 0.985,-10e-4 1.782,1.519 1.782,3.399 z"
   id="path734" />
			<path
   style="fill:#dbdcdc"
   d="m 40.365,45.887 c 0,0 0.21,3.228 -1.485,3.486 0,0 -0.967,-0.214 -1.142,-0.868 0,0 1.623,-0.045 2.627,-2.618 z"
   id="path736" />
		</g>
	</g>
	<g
   id="g746">
		<ellipse
   style="fill:#ffffff"
   cx="40.067001"
   cy="54.536999"
   rx="1.785"
   ry="3.3989999"
   id="ellipse742" />
		<path
   style="fill:#dbdcdc"
   d="m 41.844,54.45 c 0,0 0.213,3.226 -1.482,3.486 0,0 -0.967,-0.214 -1.143,-0.867 0,0 1.623,-0.047 2.625,-2.619 z"
   id="path744" />
	</g>
	<g
   id="g778">
		<g
   id="g752">
			<path
   style="fill:#ffffff"
   d="m 39.542,54.539 c 0,1.875 -0.795,3.397 -1.782,3.397 -0.986,0 -1.785,-1.522 -1.785,-3.397 0,-1.88 0.799,-3.4 1.785,-3.4 0.987,0 1.782,1.52 1.782,3.4 z"
   id="path748" />
			<path
   style="fill:#dbdcdc"
   d="m 39.536,54.45 c 0,0 0.213,3.227 -1.485,3.486 0,0 -0.967,-0.214 -1.142,-0.867 0,0 1.625,-0.046 2.627,-2.619 z"
   id="path750" />
		</g>
		<g
   id="g758">
			<ellipse
   style="fill:#ffffff"
   cx="41.853001"
   cy="51.139"
   rx="1.785"
   ry="3.4000001"
   id="ellipse754" />
			<path
   style="fill:#dbdcdc"
   d="m 43.63,51.051 c 0,0 0.214,3.228 -1.483,3.488 0,0 -0.968,-0.216 -1.142,-0.87 0,0 1.622,-0.045 2.625,-2.618 z"
   id="path756" />
		</g>
		<g
   id="g764">
			<ellipse
   style="fill:#ffffff"
   cx="34.714001"
   cy="54.493"
   rx="1.783"
   ry="3.3989999"
   id="ellipse760" />
			<path
   style="fill:#dbdcdc"
   d="m 36.491,54.405 c 0,0 0.213,3.227 -1.485,3.487 0,0 -0.968,-0.215 -1.143,-0.868 0,0 1.625,-0.045 2.628,-2.619 z"
   id="path762" />
		</g>
		<g
   id="g770">
			<path
   style="fill:#ffffff"
   d="m 34.189,54.494 c 0,1.875 -0.798,3.398 -1.782,3.398 -0.988,0 -1.785,-1.523 -1.785,-3.398 0,-1.878 0.797,-3.399 1.785,-3.399 0.985,0 1.782,1.521 1.782,3.399 z"
   id="path766" />
			<path
   style="fill:#dbdcdc"
   d="m 34.183,54.405 c 0,0 0.213,3.228 -1.484,3.487 0,0 -0.968,-0.215 -1.142,-0.868 -10e-4,0 1.622,-0.045 2.626,-2.619 z"
   id="path768" />
		</g>
		<g
   id="g776">
			<ellipse
   style="fill:#ffffff"
   cx="36.499001"
   cy="51.095001"
   rx="1.784"
   ry="3.3989999"
   id="ellipse772" />
			<path
   style="fill:#dbdcdc"
   d="m 38.276,51.007 c 0,0 0.212,3.227 -1.485,3.487 0,0 -0.968,-0.215 -1.142,-0.869 0,0 1.625,-0.046 2.627,-2.618 z"
   id="path774" />
		</g>
	</g>
	<g
   id="g810">
		<g
   id="g784">
			<ellipse
   style="fill:#ffffff"
   cx="39.848"
   cy="49.417"
   rx="1.785"
   ry="3.3989999"
   id="ellipse780" />
			<path
   style="fill:#dbdcdc"
   d="m 41.625,49.328 c 0,0 0.211,3.228 -1.485,3.488 0,0 -0.967,-0.215 -1.142,-0.869 0,0 1.623,-0.046 2.627,-2.619 z"
   id="path782" />
		</g>
		<g
   id="g790">
			<ellipse
   style="fill:#ffffff"
   cx="43.942001"
   cy="46.018002"
   rx="1.785"
   ry="3.3989999"
   id="ellipse786" />
			<path
   style="fill:#dbdcdc"
   d="m 45.719,45.93 c 0,0 0.212,3.228 -1.483,3.487 0,0 -0.969,-0.215 -1.142,-0.869 0,0 1.623,-0.046 2.625,-2.618 z"
   id="path788" />
		</g>
		<g
   id="g796">
			<path
   style="fill:#ffffff"
   d="m 38.587,49.371 c 0,1.88 -0.799,3.402 -1.783,3.402 -0.986,0 -1.785,-1.522 -1.785,-3.402 0,-1.876 0.799,-3.398 1.785,-3.398 0.984,0 1.783,1.522 1.783,3.398 z"
   id="path792" />
			<path
   style="fill:#dbdcdc"
   d="m 38.578,49.286 c 0,0 0.212,3.225 -1.483,3.487 0,0 -0.967,-0.215 -1.142,-0.869 0,0 1.623,-0.048 2.625,-2.618 z"
   id="path794" />
		</g>
		<g
   id="g802">
			<ellipse
   style="fill:#ffffff"
   cx="34.494999"
   cy="49.373001"
   rx="1.785"
   ry="3.4000001"
   id="ellipse798" />
			<path
   style="fill:#dbdcdc"
   d="m 36.27,49.286 c 0,0 0.213,3.227 -1.482,3.487 0,0 -0.967,-0.215 -1.143,-0.869 0,0 1.624,-0.046 2.625,-2.618 z"
   id="path800" />
		</g>
		<g
   id="g808">
			<path
   style="fill:#ffffff"
   d="m 40.371,45.976 c 0,1.875 -0.797,3.397 -1.782,3.397 -0.986,0 -1.785,-1.522 -1.785,-3.397 0,-1.88 0.799,-3.399 1.785,-3.399 0.985,-10e-4 1.782,1.519 1.782,3.399 z"
   id="path804" />
			<path
   style="fill:#dbdcdc"
   d="m 40.365,45.887 c 0,0 0.21,3.228 -1.485,3.486 0,0 -0.967,-0.214 -1.142,-0.868 0,0 1.623,-0.045 2.627,-2.618 z"
   id="path806" />
		</g>
	</g>
	<g
   id="g816">
		<ellipse
   style="fill:#ffffff"
   cx="32.284"
   cy="53.729"
   rx="1.785"
   ry="3.4000001"
   id="ellipse812" />
		<path
   style="fill:#dbdcdc"
   d="m 34.06,53.643 c 0,0 0.213,3.227 -1.483,3.487 0,0 -0.967,-0.214 -1.141,-0.868 -0.001,0 1.622,-0.047 2.624,-2.619 z"
   id="path814" />
	</g>
	<g
   id="g848">
		<g
   id="g822">
			<ellipse
   style="fill:#ffffff"
   cx="29.975"
   cy="53.730999"
   rx="1.784"
   ry="3.398"
   id="ellipse818" />
			<path
   style="fill:#dbdcdc"
   d="m 31.751,53.643 c 0,0 0.212,3.228 -1.484,3.487 0,0 -0.967,-0.214 -1.142,-0.868 0,0 1.625,-0.046 2.626,-2.619 z"
   id="path820" />
		</g>
		<g
   id="g828">
			<ellipse
   style="fill:#ffffff"
   cx="34.069"
   cy="50.332001"
   rx="1.785"
   ry="3.3989999"
   id="ellipse824" />
			<path
   style="fill:#dbdcdc"
   d="m 35.846,50.243 c 0,0 0.214,3.228 -1.484,3.488 0,0 -0.967,-0.216 -1.141,-0.869 0,0 1.622,-0.045 2.625,-2.619 z"
   id="path826" />
		</g>
		<g
   id="g834">
			<ellipse
   style="fill:#ffffff"
   cx="26.93"
   cy="53.686001"
   rx="1.784"
   ry="3.4000001"
   id="ellipse830" />
			<path
   style="fill:#dbdcdc"
   d="m 28.707,53.599 c 0,0 0.212,3.227 -1.485,3.487 0,0 -0.968,-0.215 -1.142,-0.869 0,0 1.624,-0.046 2.627,-2.618 z"
   id="path832" />
		</g>
		<g
   id="g840">
			<ellipse
   style="fill:#ffffff"
   cx="24.622"
   cy="53.687"
   rx="1.784"
   ry="3.3989999"
   id="ellipse836" />
			<path
   style="fill:#dbdcdc"
   d="m 26.398,53.599 c 0,0 0.212,3.228 -1.484,3.487 0,0 -0.968,-0.215 -1.142,-0.869 0,0 1.623,-0.045 2.626,-2.618 z"
   id="path838" />
		</g>
		<g
   id="g846">
			<path
   style="fill:#ffffff"
   d="m 30.499,50.288 c 0,1.876 -0.797,3.398 -1.783,3.398 -0.986,0 -1.785,-1.522 -1.785,-3.398 0,-1.88 0.799,-3.4 1.785,-3.4 0.986,0 1.783,1.52 1.783,3.4 z"
   id="path842" />
			<path
   style="fill:#dbdcdc"
   d="m 30.491,50.199 c 0,0 0.212,3.227 -1.484,3.487 0,0 -0.967,-0.215 -1.142,-0.868 0,0 1.624,-0.046 2.626,-2.619 z"
   id="path844" />
		</g>
	</g>
	<g
   id="g880">
		<g
   id="g854">
			<ellipse
   style="fill:#ffffff"
   cx="32.063"
   cy="48.609001"
   rx="1.784"
   ry="3.3989999"
   id="ellipse850" />
			<path
   style="fill:#dbdcdc"
   d="m 33.841,48.521 c 0,0 0.211,3.227 -1.486,3.487 0,0 -0.967,-0.215 -1.141,-0.869 0,10e-4 1.624,-0.045 2.627,-2.618 z"
   id="path852" />
		</g>
		<g
   id="g860">
			<ellipse
   style="fill:#ffffff"
   cx="36.158001"
   cy="45.209999"
   rx="1.785"
   ry="3.3989999"
   id="ellipse856" />
			<path
   style="fill:#dbdcdc"
   d="m 37.936,45.122 c 0,0 0.212,3.229 -1.485,3.487 0,0 -0.968,-0.215 -1.142,-0.868 0,0 1.623,-0.046 2.627,-2.619 z"
   id="path858" />
		</g>
		<g
   id="g866">
			<ellipse
   style="fill:#ffffff"
   cx="29.018"
   cy="48.563999"
   rx="1.784"
   ry="3.401"
   id="ellipse862" />
			<path
   style="fill:#dbdcdc"
   d="m 30.794,48.479 c 0,0 0.212,3.225 -1.485,3.487 0,0 -0.967,-0.215 -1.141,-0.868 0,0 1.624,-0.049 2.626,-2.619 z"
   id="path864" />
		</g>
		<g
   id="g872">
			<ellipse
   style="fill:#ffffff"
   cx="26.709999"
   cy="48.566002"
   rx="1.784"
   ry="3.3989999"
   id="ellipse868" />
			<path
   style="fill:#dbdcdc"
   d="m 28.486,48.479 c 0,0 0.212,3.227 -1.484,3.487 0,0 -0.967,-0.215 -1.142,-0.868 0,0 1.625,-0.046 2.626,-2.619 z"
   id="path870" />
		</g>
		<g
   id="g878">
			<ellipse
   style="fill:#ffffff"
   cx="30.802999"
   cy="45.167999"
   rx="1.784"
   ry="3.398"
   id="ellipse874" />
			<path
   style="fill:#dbdcdc"
   d="m 32.58,45.079 c 0,0 0.212,3.229 -1.485,3.487 0,0 -0.967,-0.214 -1.141,-0.869 0,0 1.624,-0.045 2.626,-2.618 z"
   id="path876" />
		</g>
	</g>
	<g
   id="g912">
		<g
   id="g886">
			<ellipse
   style="fill:#ffffff"
   cx="28.714001"
   cy="43.534"
   rx="1.784"
   ry="3.398"
   id="ellipse882" />
			<path
   style="fill:#dbdcdc"
   d="m 30.49,43.446 c 0,0 0.212,3.227 -1.484,3.486 0,0 -0.968,-0.214 -1.142,-0.867 0,0 1.624,-0.045 2.626,-2.619 z"
   id="path884" />
		</g>
		<g
   id="g892">
			<path
   style="fill:#ffffff"
   d="m 34.873,41.68 c 0,1.876 -0.799,3.398 -1.783,3.398 -0.987,0 -1.786,-1.522 -1.786,-3.398 0,-1.88 0.799,-3.4 1.786,-3.4 0.984,-10e-4 1.783,1.52 1.783,3.4 z"
   id="path888" />
			<path
   style="fill:#dbdcdc"
   d="m 34.865,41.591 c 0,0 0.213,3.227 -1.485,3.487 0,0 -0.967,-0.215 -1.141,-0.868 0,0 1.622,-0.046 2.626,-2.619 z"
   id="path890" />
		</g>
		<g
   id="g898">
			<path
   style="fill:#ffffff"
   d="m 26.96,45.735 c 0,1.879 -0.799,3.401 -1.783,3.401 -0.988,0 -1.786,-1.522 -1.786,-3.401 0,-1.877 0.797,-3.398 1.786,-3.398 0.985,0 1.783,1.521 1.783,3.398 z"
   id="path894" />
			<path
   style="fill:#dbdcdc"
   d="m 26.953,45.649 c 0,0 0.212,3.226 -1.485,3.487 0,0 -0.967,-0.215 -1.141,-0.869 0,10e-4 1.623,-0.046 2.626,-2.618 z"
   id="path896" />
		</g>
		<g
   id="g904">
			<path
   style="fill:#ffffff"
   d="m 24.65,47.393 c 0,1.876 -0.798,3.399 -1.782,3.399 -0.988,0 -1.787,-1.523 -1.787,-3.399 0,-1.879 0.798,-3.398 1.787,-3.398 0.985,-10e-4 1.782,1.519 1.782,3.398 z"
   id="path900" />
			<path
   style="fill:#dbdcdc"
   d="m 24.644,47.304 c 0,0 0.211,3.229 -1.485,3.488 0,0 -0.967,-0.215 -1.141,-0.869 0,0 1.623,-0.045 2.626,-2.619 z"
   id="path902" />
		</g>
		<g
   id="g910">
			<ellipse
   style="fill:#ffffff"
   cx="26.493999"
   cy="39.312"
   rx="1.784"
   ry="3.3989999"
   id="ellipse906" />
			<path
   style="fill:#dbdcdc"
   d="m 28.271,39.224 c 0,0 0.212,3.227 -1.485,3.487 0,0 -0.967,-0.216 -1.141,-0.868 0,0 1.623,-0.046 2.626,-2.619 z"
   id="path908" />
		</g>
	</g>
	<g
   id="g944">
		<g
   id="g918">
			<ellipse
   style="fill:#ffffff"
   cx="29.843"
   cy="37.632999"
   rx="1.784"
   ry="3.4000001"
   id="ellipse914" />
			<path
   style="fill:#dbdcdc"
   d="m 31.619,37.544 c 0,0 0.212,3.229 -1.484,3.489 0,0 -0.968,-0.216 -1.142,-0.87 0,0 1.624,-0.045 2.626,-2.619 z"
   id="path916" />
		</g>
		<g
   id="g924">
			<path
   style="fill:#ffffff"
   d="m 35.721,34.235 c 0,1.875 -0.797,3.397 -1.781,3.397 -0.988,0 -1.788,-1.522 -1.788,-3.397 0,-1.88 0.799,-3.399 1.788,-3.399 0.984,0 1.781,1.519 1.781,3.399 z"
   id="path920" />
			<path
   style="fill:#dbdcdc"
   d="m 35.715,34.146 c 0,0 0.211,3.227 -1.486,3.486 0,0 -0.967,-0.214 -1.141,-0.867 0,10e-4 1.624,-0.044 2.627,-2.619 z"
   id="path922" />
		</g>
		<g
   id="g930">
			<ellipse
   style="fill:#ffffff"
   cx="26.798"
   cy="37.588001"
   rx="1.784"
   ry="3.401"
   id="ellipse926" />
			<path
   style="fill:#dbdcdc"
   d="m 28.574,37.502 c 0,0 0.212,3.225 -1.486,3.487 0,0 -0.967,-0.214 -1.141,-0.869 0,0 1.624,-0.048 2.627,-2.618 z"
   id="path928" />
		</g>
		<g
   id="g936">
			<ellipse
   style="fill:#ffffff"
   cx="24.49"
   cy="37.59"
   rx="1.784"
   ry="3.3989999"
   id="ellipse932" />
			<path
   style="fill:#dbdcdc"
   d="m 26.266,37.502 c 0,0 0.212,3.229 -1.486,3.487 0,0 -0.967,-0.214 -1.141,-0.869 0.001,0 1.624,-0.045 2.627,-2.618 z"
   id="path934" />
		</g>
		<g
   id="g942">
			<path
   style="fill:#ffffff"
   d="m 30.367,34.192 c 0,1.875 -0.797,3.397 -1.783,3.397 -0.988,0 -1.786,-1.522 -1.786,-3.397 0,-1.88 0.797,-3.4 1.786,-3.4 0.985,0 1.783,1.521 1.783,3.4 z"
   id="path938" />
			<path
   style="fill:#dbdcdc"
   d="m 30.359,34.104 c 0,0 0.212,3.228 -1.484,3.486 0,0 -0.968,-0.213 -1.142,-0.867 0,0 1.624,-0.046 2.626,-2.619 z"
   id="path940" />
		</g>
	</g>
	<g
   id="g950">
		<ellipse
   style="fill:#ffffff"
   cx="32.284"
   cy="53.729"
   rx="1.785"
   ry="3.4000001"
   id="ellipse946" />
		<path
   style="fill:#dbdcdc"
   d="m 34.06,53.643 c 0,0 0.213,3.227 -1.483,3.487 0,0 -0.967,-0.214 -1.141,-0.868 -0.001,0 1.622,-0.047 2.624,-2.619 z"
   id="path948" />
	</g>
	<g
   id="g982">
		<g
   id="g956">
			<ellipse
   style="fill:#ffffff"
   cx="29.975"
   cy="53.730999"
   rx="1.784"
   ry="3.398"
   id="ellipse952" />
			<path
   style="fill:#dbdcdc"
   d="m 31.751,53.643 c 0,0 0.212,3.228 -1.484,3.487 0,0 -0.967,-0.214 -1.142,-0.868 0,0 1.625,-0.046 2.626,-2.619 z"
   id="path954" />
		</g>
		<g
   id="g962">
			<ellipse
   style="fill:#ffffff"
   cx="34.069"
   cy="50.332001"
   rx="1.785"
   ry="3.3989999"
   id="ellipse958" />
			<path
   style="fill:#dbdcdc"
   d="m 35.846,50.243 c 0,0 0.214,3.228 -1.484,3.488 0,0 -0.967,-0.216 -1.141,-0.869 0,0 1.622,-0.045 2.625,-2.619 z"
   id="path960" />
		</g>
		<g
   id="g968">
			<ellipse
   style="fill:#ffffff"
   cx="26.93"
   cy="53.686001"
   rx="1.784"
   ry="3.4000001"
   id="ellipse964" />
			<path
   style="fill:#dbdcdc"
   d="m 28.707,53.599 c 0,0 0.212,3.227 -1.485,3.487 0,0 -0.968,-0.215 -1.142,-0.869 0,0 1.624,-0.046 2.627,-2.618 z"
   id="path966" />
		</g>
		<g
   id="g974">
			<ellipse
   style="fill:#ffffff"
   cx="24.622"
   cy="53.687"
   rx="1.784"
   ry="3.3989999"
   id="ellipse970" />
			<path
   style="fill:#dbdcdc"
   d="m 26.398,53.599 c 0,0 0.212,3.228 -1.484,3.487 0,0 -0.968,-0.215 -1.142,-0.869 0,0 1.623,-0.045 2.626,-2.618 z"
   id="path972" />
		</g>
		<g
   id="g980">
			<path
   style="fill:#ffffff"
   d="m 30.499,50.288 c 0,1.876 -0.797,3.398 -1.783,3.398 -0.986,0 -1.785,-1.522 -1.785,-3.398 0,-1.88 0.799,-3.4 1.785,-3.4 0.986,0 1.783,1.52 1.783,3.4 z"
   id="path976" />
			<path
   style="fill:#dbdcdc"
   d="m 30.491,50.199 c 0,0 0.212,3.227 -1.484,3.487 0,0 -0.967,-0.215 -1.142,-0.868 0,0 1.624,-0.046 2.626,-2.619 z"
   id="path978" />
		</g>
	</g>
	<g
   id="g1014">
		<g
   id="g988">
			<ellipse
   style="fill:#ffffff"
   cx="32.063"
   cy="48.609001"
   rx="1.784"
   ry="3.3989999"
   id="ellipse984" />
			<path
   style="fill:#dbdcdc"
   d="m 33.841,48.521 c 0,0 0.211,3.227 -1.486,3.487 0,0 -0.967,-0.215 -1.141,-0.869 0,10e-4 1.624,-0.045 2.627,-2.618 z"
   id="path986" />
		</g>
		<g
   id="g994">
			<ellipse
   style="fill:#ffffff"
   cx="36.158001"
   cy="45.209999"
   rx="1.785"
   ry="3.3989999"
   id="ellipse990" />
			<path
   style="fill:#dbdcdc"
   d="m 37.936,45.122 c 0,0 0.212,3.229 -1.485,3.487 0,0 -0.968,-0.215 -1.142,-0.868 0,0 1.623,-0.046 2.627,-2.619 z"
   id="path992" />
		</g>
		<g
   id="g1000">
			<ellipse
   style="fill:#ffffff"
   cx="29.018"
   cy="48.563999"
   rx="1.784"
   ry="3.401"
   id="ellipse996" />
			<path
   style="fill:#dbdcdc"
   d="m 30.794,48.479 c 0,0 0.212,3.225 -1.485,3.487 0,0 -0.967,-0.215 -1.141,-0.868 0,0 1.624,-0.049 2.626,-2.619 z"
   id="path998" />
		</g>
		<g
   id="g1006">
			<ellipse
   style="fill:#ffffff"
   cx="26.709999"
   cy="48.566002"
   rx="1.784"
   ry="3.3989999"
   id="ellipse1002" />
			<path
   style="fill:#dbdcdc"
   d="m 28.486,48.479 c 0,0 0.212,3.227 -1.484,3.487 0,0 -0.967,-0.215 -1.142,-0.868 0,0 1.625,-0.046 2.626,-2.619 z"
   id="path1004" />
		</g>
		<g
   id="g1012">
			<ellipse
   style="fill:#ffffff"
   cx="30.802999"
   cy="45.167999"
   rx="1.784"
   ry="3.398"
   id="ellipse1008" />
			<path
   style="fill:#dbdcdc"
   d="m 32.58,45.079 c 0,0 0.212,3.229 -1.485,3.487 0,0 -0.967,-0.214 -1.141,-0.869 0,0 1.624,-0.045 2.626,-2.618 z"
   id="path1010" />
		</g>
	</g>
	<g
   id="g1046">
		<g
   id="g1020">
			<ellipse
   style="fill:#ffffff"
   cx="28.714001"
   cy="43.534"
   rx="1.784"
   ry="3.398"
   id="ellipse1016" />
			<path
   style="fill:#dbdcdc"
   d="m 30.49,43.446 c 0,0 0.212,3.227 -1.484,3.486 0,0 -0.968,-0.214 -1.142,-0.867 0,0 1.624,-0.045 2.626,-2.619 z"
   id="path1018" />
		</g>
		<g
   id="g1026">
			<path
   style="fill:#ffffff"
   d="m 34.873,41.68 c 0,1.876 -0.799,3.398 -1.783,3.398 -0.987,0 -1.786,-1.522 -1.786,-3.398 0,-1.88 0.799,-3.4 1.786,-3.4 0.984,-10e-4 1.783,1.52 1.783,3.4 z"
   id="path1022" />
			<path
   style="fill:#dbdcdc"
   d="m 34.865,41.591 c 0,0 0.213,3.227 -1.485,3.487 0,0 -0.967,-0.215 -1.141,-0.868 0,0 1.622,-0.046 2.626,-2.619 z"
   id="path1024" />
		</g>
		<g
   id="g1032">
			<path
   style="fill:#ffffff"
   d="m 26.96,45.735 c 0,1.879 -0.799,3.401 -1.783,3.401 -0.988,0 -1.786,-1.522 -1.786,-3.401 0,-1.877 0.797,-3.398 1.786,-3.398 0.985,0 1.783,1.521 1.783,3.398 z"
   id="path1028" />
			<path
   style="fill:#dbdcdc"
   d="m 26.953,45.649 c 0,0 0.212,3.226 -1.485,3.487 0,0 -0.967,-0.215 -1.141,-0.869 0,10e-4 1.623,-0.046 2.626,-2.618 z"
   id="path1030" />
		</g>
		<g
   id="g1038">
			<path
   style="fill:#ffffff"
   d="m 24.65,47.393 c 0,1.876 -0.798,3.399 -1.782,3.399 -0.988,0 -1.787,-1.523 -1.787,-3.399 0,-1.879 0.798,-3.398 1.787,-3.398 0.985,-10e-4 1.782,1.519 1.782,3.398 z"
   id="path1034" />
			<path
   style="fill:#dbdcdc"
   d="m 24.644,47.304 c 0,0 0.211,3.229 -1.485,3.488 0,0 -0.967,-0.215 -1.141,-0.869 0,0 1.623,-0.045 2.626,-2.619 z"
   id="path1036" />
		</g>
		<g
   id="g1044">
			<ellipse
   style="fill:#ffffff"
   cx="26.493999"
   cy="39.312"
   rx="1.784"
   ry="3.3989999"
   id="ellipse1040" />
			<path
   style="fill:#dbdcdc"
   d="m 28.271,39.224 c 0,0 0.212,3.227 -1.485,3.487 0,0 -0.967,-0.216 -1.141,-0.868 0,0 1.623,-0.046 2.626,-2.619 z"
   id="path1042" />
		</g>
	</g>
	<g
   id="g1078">
		<g
   id="g1052">
			<ellipse
   style="fill:#ffffff"
   cx="29.843"
   cy="37.632999"
   rx="1.784"
   ry="3.4000001"
   id="ellipse1048" />
			<path
   style="fill:#dbdcdc"
   d="m 31.619,37.544 c 0,0 0.212,3.229 -1.484,3.489 0,0 -0.968,-0.216 -1.142,-0.87 0,0 1.624,-0.045 2.626,-2.619 z"
   id="path1050" />
		</g>
		<g
   id="g1058">
			<path
   style="fill:#ffffff"
   d="m 35.721,34.235 c 0,1.875 -0.797,3.397 -1.781,3.397 -0.988,0 -1.788,-1.522 -1.788,-3.397 0,-1.88 0.799,-3.399 1.788,-3.399 0.984,0 1.781,1.519 1.781,3.399 z"
   id="path1054" />
			<path
   style="fill:#dbdcdc"
   d="m 35.715,34.146 c 0,0 0.211,3.227 -1.486,3.486 0,0 -0.967,-0.214 -1.141,-0.867 0,10e-4 1.624,-0.044 2.627,-2.619 z"
   id="path1056" />
		</g>
		<g
   id="g1064">
			<ellipse
   style="fill:#ffffff"
   cx="26.798"
   cy="37.588001"
   rx="1.784"
   ry="3.401"
   id="ellipse1060" />
			<path
   style="fill:#dbdcdc"
   d="m 28.574,37.502 c 0,0 0.212,3.225 -1.486,3.487 0,0 -0.967,-0.214 -1.141,-0.869 0,0 1.624,-0.048 2.627,-2.618 z"
   id="path1062" />
		</g>
		<g
   id="g1070">
			<ellipse
   style="fill:#ffffff"
   cx="24.49"
   cy="37.59"
   rx="1.784"
   ry="3.3989999"
   id="ellipse1066" />
			<path
   style="fill:#dbdcdc"
   d="m 26.266,37.502 c 0,0 0.212,3.229 -1.486,3.487 0,0 -0.967,-0.214 -1.141,-0.869 0.001,0 1.624,-0.045 2.627,-2.618 z"
   id="path1068" />
		</g>
		<g
   id="g1076">
			<path
   style="fill:#ffffff"
   d="m 30.367,34.192 c 0,1.875 -0.797,3.397 -1.783,3.397 -0.988,0 -1.786,-1.522 -1.786,-3.397 0,-1.88 0.797,-3.4 1.786,-3.4 0.985,0 1.783,1.521 1.783,3.4 z"
   id="path1072" />
			<path
   style="fill:#dbdcdc"
   d="m 30.359,34.104 c 0,0 0.212,3.228 -1.484,3.486 0,0 -0.968,-0.213 -1.142,-0.867 0,0 1.624,-0.046 2.626,-2.619 z"
   id="path1074" />
		</g>
	</g>
	<g
   id="g1084">
		<ellipse
   style="fill:#ffffff"
   cx="19.743"
   cy="20.438"
   rx="1.785"
   ry="3.4000001"
   id="ellipse1080" />
		<path
   style="fill:#dbdcdc"
   d="m 21.519,20.352 c 0,0 0.213,3.226 -1.483,3.487 0,0 -0.967,-0.215 -1.141,-0.868 0,0 1.623,-0.047 2.624,-2.619 z"
   id="path1082" />
	</g>
	<g
   id="g1116">
		<g
   id="g1090">
			<ellipse
   style="fill:#ffffff"
   cx="17.434999"
   cy="20.440001"
   rx="1.784"
   ry="3.398"
   id="ellipse1086" />
			<path
   style="fill:#dbdcdc"
   d="m 19.211,20.352 c 0,0 0.212,3.227 -1.484,3.487 0,0 -0.967,-0.215 -1.142,-0.868 0,0 1.624,-0.046 2.626,-2.619 z"
   id="path1088" />
		</g>
		<g
   id="g1096">
			<ellipse
   style="fill:#ffffff"
   cx="21.528999"
   cy="17.041"
   rx="1.785"
   ry="3.3989999"
   id="ellipse1092" />
			<path
   style="fill:#dbdcdc"
   d="m 23.306,16.952 c 0,0 0.213,3.228 -1.484,3.488 0,0 -0.967,-0.216 -1.141,-0.869 -0.001,0 1.621,-0.045 2.625,-2.619 z"
   id="path1094" />
		</g>
		<g
   id="g1102">
			<ellipse
   style="fill:#ffffff"
   cx="14.39"
   cy="20.395"
   rx="1.784"
   ry="3.4000001"
   id="ellipse1098" />
			<path
   style="fill:#dbdcdc"
   d="m 16.166,20.307 c 0,0 0.212,3.227 -1.484,3.488 0,0 -0.968,-0.216 -1.142,-0.869 0,0 1.624,-0.046 2.626,-2.619 z"
   id="path1100" />
		</g>
		<g
   id="g1108">
			<ellipse
   style="fill:#ffffff"
   cx="12.082"
   cy="20.396"
   rx="1.784"
   ry="3.3989999"
   id="ellipse1104" />
			<path
   style="fill:#dbdcdc"
   d="m 13.858,20.307 c 0,0 0.212,3.228 -1.484,3.488 0,0 -0.968,-0.216 -1.142,-0.869 0,0 1.623,-0.045 2.626,-2.619 z"
   id="path1106" />
		</g>
		<g
   id="g1114">
			<path
   style="fill:#ffffff"
   d="m 17.958,16.997 c 0,1.876 -0.797,3.398 -1.783,3.398 -0.987,0 -1.785,-1.522 -1.785,-3.398 0,-1.88 0.798,-3.399 1.785,-3.399 0.986,0 1.783,1.519 1.783,3.399 z"
   id="path1110" />
			<path
   style="fill:#dbdcdc"
   d="m 17.951,16.908 c 0,0 0.212,3.227 -1.484,3.487 0,0 -0.967,-0.215 -1.142,-0.868 0,0 1.624,-0.046 2.626,-2.619 z"
   id="path1112" />
		</g>
	</g>
	<g
   id="g1148">
		<g
   id="g1122">
			<path
   style="fill:#ffffff"
   d="m 32.166,26.655 c 0,1.875 -0.797,3.398 -1.782,3.398 -0.987,0 -1.786,-1.523 -1.786,-3.398 0,-1.88 0.798,-3.4 1.786,-3.4 0.985,0 1.782,1.52 1.782,3.4 z"
   id="path1118" />
			<path
   style="fill:#dbdcdc"
   d="m 32.16,26.566 c 0,0 0.211,3.227 -1.486,3.487 0,0 -0.967,-0.215 -1.141,-0.868 0,0.001 1.623,-0.045 2.627,-2.619 z"
   id="path1120" />
		</g>
		<g
   id="g1128">
			<ellipse
   style="fill:#ffffff"
   cx="34.477001"
   cy="23.254999"
   rx="1.785"
   ry="3.4000001"
   id="ellipse1124" />
			<path
   style="fill:#dbdcdc"
   d="m 36.253,23.167 c 0,0 0.212,3.228 -1.484,3.488 0,0 -0.969,-0.216 -1.141,-0.869 0,0 1.623,-0.046 2.625,-2.619 z"
   id="path1126" />
		</g>
		<g
   id="g1134">
			<ellipse
   style="fill:#ffffff"
   cx="27.337"
   cy="26.608999"
   rx="1.784"
   ry="3.401"
   id="ellipse1130" />
			<path
   style="fill:#dbdcdc"
   d="m 29.113,26.523 c 0,0 0.212,3.225 -1.485,3.487 0,0 -0.967,-0.215 -1.142,-0.868 10e-4,0.001 1.625,-0.047 2.627,-2.619 z"
   id="path1132" />
		</g>
		<g
   id="g1140">
			<ellipse
   style="fill:#ffffff"
   cx="25.028999"
   cy="26.611"
   rx="1.784"
   ry="3.3989999"
   id="ellipse1136" />
			<path
   style="fill:#dbdcdc"
   d="m 26.805,26.523 c 0,0 0.212,3.227 -1.484,3.487 0,0 -0.967,-0.215 -1.142,-0.868 0,0.001 1.624,-0.045 2.626,-2.619 z"
   id="path1138" />
		</g>
		<g
   id="g1146">
			<path
   style="fill:#ffffff"
   d="m 30.906,23.213 c 0,1.876 -0.797,3.398 -1.782,3.398 -0.987,0 -1.787,-1.522 -1.787,-3.398 0,-1.88 0.799,-3.399 1.787,-3.399 0.985,-0.001 1.782,1.519 1.782,3.399 z"
   id="path1142" />
			<path
   style="fill:#dbdcdc"
   d="m 30.899,23.124 c 0,0 0.211,3.228 -1.485,3.487 0,0 -0.967,-0.215 -1.141,-0.869 0,0 1.623,-0.045 2.626,-2.618 z"
   id="path1144" />
		</g>
	</g>
	<g
   id="g1154">
		<ellipse
   style="fill:#ffffff"
   cx="19.743"
   cy="20.438"
   rx="1.785"
   ry="3.4000001"
   id="ellipse1150" />
		<path
   style="fill:#dbdcdc"
   d="m 21.519,20.352 c 0,0 0.213,3.226 -1.483,3.487 0,0 -0.967,-0.215 -1.141,-0.868 0,0 1.623,-0.047 2.624,-2.619 z"
   id="path1152" />
	</g>
	<g
   id="g1186">
		<g
   id="g1160">
			<ellipse
   style="fill:#ffffff"
   cx="20.122999"
   cy="30.318001"
   rx="1.784"
   ry="3.3989999"
   id="ellipse1156" />
			<path
   style="fill:#dbdcdc"
   d="m 21.899,30.23 c 0,0 0.212,3.227 -1.484,3.487 0,0 -0.967,-0.215 -1.142,-0.869 -0.001,10e-4 1.624,-0.045 2.626,-2.618 z"
   id="path1158" />
		</g>
		<g
   id="g1166">
			<ellipse
   style="fill:#ffffff"
   cx="24.216999"
   cy="26.919001"
   rx="1.785"
   ry="3.3989999"
   id="ellipse1162" />
			<path
   style="fill:#dbdcdc"
   d="m 25.993,26.831 c 0,0 0.213,3.228 -1.484,3.487 0,0 -0.967,-0.215 -1.141,-0.869 0,0 1.622,-0.045 2.625,-2.618 z"
   id="path1164" />
		</g>
		<g
   id="g1172">
			<ellipse
   style="fill:#ffffff"
   cx="17.077"
   cy="30.271999"
   rx="1.784"
   ry="3.401"
   id="ellipse1168" />
			<path
   style="fill:#dbdcdc"
   d="m 18.854,30.186 c 0,0 0.212,3.227 -1.484,3.488 0,0 -0.968,-0.216 -1.142,-0.87 0,0 1.624,-0.046 2.626,-2.618 z"
   id="path1170" />
		</g>
		<g
   id="g1178">
			<ellipse
   style="fill:#ffffff"
   cx="14.769"
   cy="30.274"
   rx="1.784"
   ry="3.3989999"
   id="ellipse1174" />
			<path
   style="fill:#dbdcdc"
   d="m 16.545,30.186 c 0,0 0.212,3.228 -1.484,3.488 0,0 -0.969,-0.216 -1.142,-0.87 0,0 1.623,-0.045 2.626,-2.618 z"
   id="path1176" />
		</g>
		<g
   id="g1184">
			<path
   style="fill:#ffffff"
   d="m 20.646,26.876 c 0,1.875 -0.797,3.398 -1.783,3.398 -0.986,0 -1.785,-1.523 -1.785,-3.398 0,-1.88 0.798,-3.4 1.785,-3.4 0.986,0 1.783,1.52 1.783,3.4 z"
   id="path1180" />
			<path
   style="fill:#dbdcdc"
   d="m 20.639,26.787 c 0,0 0.211,3.227 -1.485,3.487 0,0 -0.967,-0.215 -1.142,-0.869 0,0 1.625,-0.046 2.627,-2.618 z"
   id="path1182" />
		</g>
	</g>
	<g
   id="g1192">
		<ellipse
   style="fill:#ffffff"
   cx="39.571999"
   cy="25.827"
   rx="1.785"
   ry="3.401"
   id="ellipse1188" />
		<path
   style="fill:#dbdcdc"
   d="m 41.349,25.741 c 0,0 0.212,3.226 -1.482,3.487 0,0 -0.967,-0.215 -1.143,-0.869 0,0 1.623,-0.046 2.625,-2.618 z"
   id="path1190" />
	</g>
	<g
   id="g1224">
		<g
   id="g1198">
			<ellipse
   style="fill:#ffffff"
   cx="40.891998"
   cy="20.047001"
   rx="1.784"
   ry="3.398"
   id="ellipse1194" />
			<path
   style="fill:#dbdcdc"
   d="m 42.669,19.958 c 0,0 0.21,3.228 -1.485,3.487 0,0 -0.968,-0.214 -1.142,-0.868 0,0 1.623,-0.046 2.627,-2.619 z"
   id="path1196" />
		</g>
		<g
   id="g1204">
			<ellipse
   style="fill:#ffffff"
   cx="44.986"
   cy="16.646999"
   rx="1.785"
   ry="3.3989999"
   id="ellipse1200" />
			<path
   style="fill:#dbdcdc"
   d="m 46.763,16.559 c 0,0 0.212,3.229 -1.484,3.488 0,0 -0.969,-0.215 -1.142,-0.868 0,0 1.624,-0.046 2.626,-2.62 z"
   id="path1202" />
		</g>
		<g
   id="g1210">
			<path
   style="fill:#ffffff"
   d="m 39.63,20.001 c 0,1.88 -0.798,3.402 -1.782,3.402 -0.986,0 -1.785,-1.522 -1.785,-3.402 0,-1.876 0.799,-3.398 1.785,-3.398 0.984,0 1.782,1.522 1.782,3.398 z"
   id="path1206" />
			<path
   style="fill:#dbdcdc"
   d="m 39.622,19.916 c 0,0 0.211,3.225 -1.483,3.487 0,0 -0.967,-0.215 -1.142,-0.869 0,0 1.622,-0.048 2.625,-2.618 z"
   id="path1208" />
		</g>
		<g
   id="g1216">
			<ellipse
   style="fill:#ffffff"
   cx="35.537998"
   cy="20.003"
   rx="1.784"
   ry="3.4000001"
   id="ellipse1212" />
			<path
   style="fill:#dbdcdc"
   d="m 37.313,19.916 c 0,0 0.212,3.227 -1.482,3.487 0,0 -0.967,-0.215 -1.143,-0.869 0,0 1.624,-0.046 2.625,-2.618 z"
   id="path1214" />
		</g>
		<g
   id="g1222">
			<ellipse
   style="fill:#ffffff"
   cx="39.632"
   cy="16.604"
   rx="1.784"
   ry="3.398"
   id="ellipse1218" />
			<path
   style="fill:#dbdcdc"
   d="m 41.409,16.517 c 0,0 0.21,3.228 -1.486,3.486 0,0 -0.967,-0.214 -1.142,-0.868 0,0 1.624,-0.045 2.628,-2.618 z"
   id="path1220" />
		</g>
	</g>
	<g
   id="g1230">
		<ellipse
   style="fill:#ffffff"
   cx="39.571999"
   cy="25.827"
   rx="1.785"
   ry="3.401"
   id="ellipse1226" />
		<path
   style="fill:#dbdcdc"
   d="m 41.349,25.741 c 0,0 0.212,3.226 -1.482,3.487 0,0 -0.967,-0.215 -1.143,-0.869 0,0 1.623,-0.046 2.625,-2.618 z"
   id="path1228" />
	</g>
	<g
   id="g1262">
		<g
   id="g1236">
			<ellipse
   style="fill:#ffffff"
   cx="40.891998"
   cy="20.047001"
   rx="1.784"
   ry="3.398"
   id="ellipse1232" />
			<path
   style="fill:#dbdcdc"
   d="m 42.669,19.958 c 0,0 0.21,3.228 -1.485,3.487 0,0 -0.968,-0.214 -1.142,-0.868 0,0 1.623,-0.046 2.627,-2.619 z"
   id="path1234" />
		</g>
		<g
   id="g1242">
			<ellipse
   style="fill:#ffffff"
   cx="44.986"
   cy="16.646999"
   rx="1.785"
   ry="3.3989999"
   id="ellipse1238" />
			<path
   style="fill:#dbdcdc"
   d="m 46.763,16.559 c 0,0 0.212,3.229 -1.484,3.488 0,0 -0.969,-0.215 -1.142,-0.868 0,0 1.624,-0.046 2.626,-2.62 z"
   id="path1240" />
		</g>
		<g
   id="g1248">
			<path
   style="fill:#ffffff"
   d="m 39.63,20.001 c 0,1.88 -0.798,3.402 -1.782,3.402 -0.986,0 -1.785,-1.522 -1.785,-3.402 0,-1.876 0.799,-3.398 1.785,-3.398 0.984,0 1.782,1.522 1.782,3.398 z"
   id="path1244" />
			<path
   style="fill:#dbdcdc"
   d="m 39.622,19.916 c 0,0 0.211,3.225 -1.483,3.487 0,0 -0.967,-0.215 -1.142,-0.869 0,0 1.622,-0.048 2.625,-2.618 z"
   id="path1246" />
		</g>
		<g
   id="g1254">
			<ellipse
   style="fill:#ffffff"
   cx="35.537998"
   cy="20.003"
   rx="1.784"
   ry="3.4000001"
   id="ellipse1250" />
			<path
   style="fill:#dbdcdc"
   d="m 37.313,19.916 c 0,0 0.212,3.227 -1.482,3.487 0,0 -0.967,-0.215 -1.143,-0.869 0,0 1.624,-0.046 2.625,-2.618 z"
   id="path1252" />
		</g>
		<g
   id="g1260">
			<ellipse
   style="fill:#ffffff"
   cx="39.632"
   cy="16.604"
   rx="1.784"
   ry="3.398"
   id="ellipse1256" />
			<path
   style="fill:#dbdcdc"
   d="m 41.409,16.517 c 0,0 0.21,3.228 -1.486,3.486 0,0 -0.967,-0.214 -1.142,-0.868 0,0 1.624,-0.045 2.628,-2.618 z"
   id="path1258" />
		</g>
	</g>
	<g
   id="g1268">
		<ellipse
   style="fill:#ffffff"
   cx="31.788"
   cy="25.021"
   rx="1.785"
   ry="3.4000001"
   id="ellipse1264" />
		<path
   style="fill:#dbdcdc"
   d="m 33.563,24.934 c 0,0 0.214,3.226 -1.482,3.487 0,0 -0.967,-0.215 -1.141,-0.868 0,0 1.623,-0.047 2.623,-2.619 z"
   id="path1266" />
	</g>
	<g
   id="g1300">
		<g
   id="g1274">
			<ellipse
   style="fill:#ffffff"
   cx="29.917999"
   cy="14.947"
   rx="1.784"
   ry="3.3989999"
   id="ellipse1270" />
			<path
   style="fill:#dbdcdc"
   d="m 31.694,14.86 c 0,0 0.212,3.227 -1.484,3.486 0,0 -0.968,-0.214 -1.142,-0.868 0,10e-4 1.625,-0.045 2.626,-2.618 z"
   id="path1272" />
		</g>
		<g
   id="g1280">
			<ellipse
   style="fill:#ffffff"
   cx="34.292999"
   cy="13.094"
   rx="1.785"
   ry="3.398"
   id="ellipse1276" />
			<path
   style="fill:#dbdcdc"
   d="m 36.068,13.005 c 0,0 0.213,3.228 -1.485,3.487 0,0 -0.966,-0.214 -1.14,-0.869 0,0 1.622,-0.046 2.625,-2.618 z"
   id="path1278" />
		</g>
		<g
   id="g1286">
			<ellipse
   style="fill:#ffffff"
   cx="26.381001"
   cy="17.149"
   rx="1.784"
   ry="3.4000001"
   id="ellipse1282" />
			<path
   style="fill:#dbdcdc"
   d="m 28.157,17.063 c 0,0 0.212,3.226 -1.485,3.486 0,0 -0.967,-0.214 -1.141,-0.868 0,10e-4 1.623,-0.046 2.626,-2.618 z"
   id="path1284" />
		</g>
		<g
   id="g1292">
			<ellipse
   style="fill:#ffffff"
   cx="24.070999"
   cy="18.806999"
   rx="1.784"
   ry="3.398"
   id="ellipse1288" />
			<path
   style="fill:#dbdcdc"
   d="m 25.848,18.719 c 0,0 0.211,3.228 -1.485,3.486 0,0 -0.967,-0.214 -1.141,-0.868 0,0 1.623,-0.045 2.626,-2.618 z"
   id="path1290" />
		</g>
		<g
   id="g1298">
			<ellipse
   style="fill:#ffffff"
   cx="27.698999"
   cy="10.726"
   rx="1.784"
   ry="3.3989999"
   id="ellipse1294" />
			<path
   style="fill:#dbdcdc"
   d="m 29.475,10.638 c 0,0 0.212,3.227 -1.485,3.487 0,0 -0.967,-0.216 -1.141,-0.868 0,0 1.623,-0.046 2.626,-2.619 z"
   id="path1296" />
		</g>
	</g>
	<g
   id="g1306">
		<ellipse
   style="fill:#ffffff"
   cx="31.788"
   cy="25.021"
   rx="1.785"
   ry="3.4000001"
   id="ellipse1302" />
		<path
   style="fill:#dbdcdc"
   d="m 33.563,24.934 c 0,0 0.214,3.226 -1.482,3.487 0,0 -0.967,-0.215 -1.141,-0.868 0,0 1.623,-0.047 2.623,-2.619 z"
   id="path1304" />
	</g>
	<g
   id="g1338">
		<g
   id="g1312">
			<ellipse
   style="fill:#ffffff"
   cx="35.272999"
   cy="15.59"
   rx="1.784"
   ry="3.3989999"
   id="ellipse1308" />
			<path
   style="fill:#dbdcdc"
   d="m 37.049,15.503 c 0,0 0.213,3.227 -1.483,3.486 0,0 -0.969,-0.214 -1.142,-0.868 0,0 1.623,-0.046 2.625,-2.618 z"
   id="path1310" />
		</g>
		<g
   id="g1318">
			<ellipse
   style="fill:#ffffff"
   cx="39.647999"
   cy="13.735"
   rx="1.786"
   ry="3.398"
   id="ellipse1314" />
			<path
   style="fill:#dbdcdc"
   d="m 41.424,13.647 c 0,0 0.213,3.227 -1.485,3.486 0,0 -0.967,-0.214 -1.14,-0.868 0,10e-4 1.622,-0.045 2.625,-2.618 z"
   id="path1316" />
		</g>
		<g
   id="g1324">
			<ellipse
   style="fill:#ffffff"
   cx="31.736"
   cy="17.792"
   rx="1.784"
   ry="3.4000001"
   id="ellipse1320" />
			<path
   style="fill:#dbdcdc"
   d="m 33.511,17.705 c 0,0 0.213,3.226 -1.484,3.487 0,0 -0.967,-0.215 -1.141,-0.868 0,0 1.623,-0.047 2.625,-2.619 z"
   id="path1322" />
		</g>
		<g
   id="g1330">
			<path
   style="fill:#ffffff"
   d="m 31.209,19.449 c 0,1.875 -0.797,3.398 -1.782,3.398 -0.988,0 -1.786,-1.523 -1.786,-3.398 0,-1.88 0.798,-3.399 1.786,-3.399 0.985,0 1.782,1.519 1.782,3.399 z"
   id="path1326" />
			<path
   style="fill:#dbdcdc"
   d="m 31.203,19.36 c 0,0 0.211,3.228 -1.485,3.487 0,0 -0.967,-0.215 -1.141,-0.868 0,0 1.623,-0.044 2.626,-2.619 z"
   id="path1328" />
		</g>
		<g
   id="g1336">
			<ellipse
   style="fill:#ffffff"
   cx="33.053001"
   cy="11.367"
   rx="1.784"
   ry="3.4000001"
   id="ellipse1332" />
			<path
   style="fill:#dbdcdc"
   d="m 34.83,11.28 c 0,0 0.213,3.227 -1.484,3.487 0,0 -0.968,-0.216 -1.142,-0.869 0,0 1.623,-0.045 2.626,-2.618 z"
   id="path1334" />
		</g>
	</g>
	<g
   id="g1344">
		<g
   id="g1342">
			<path
   style="fill:none;stroke:#231815;stroke-width:3.3602;stroke-linecap:round;stroke-linejoin:round"
   d="m 18.608,37.982 c 0.412,0.713 0.126,-1.014 0.534,-0.309 0.103,0.178 -0.864,1.288 -0.788,1.419 0.553,0.958 1.789,-2.154 2.275,-1.313 0.266,0.46 -2.86,2.728 -2.624,3.137 0.858,1.486 4.956,-4.767 5.781,-3.338 0.43,0.744 -5.873,3.337 -5.486,4.006 0.845,1.463 5.944,-5.445 6.816,-3.936 0.545,0.945 -8.713,4.617 -8.088,5.698 0.856,1.483 9.127,-7.541 10.111,-5.837 0.717,1.242 -11.153,5.676 -10.521,6.77 0.922,1.598 10.085,-8.375 11.19,-6.461 0.615,1.065 -12.229,6.196 -11.446,7.553 1.178,2.041 12.062,-10.317 13.514,-7.802 0.83,1.437 -14.579,7.15 -13.713,8.65 1.498,2.594 13.3,-10.633 14.579,-8.417 1.038,1.797 -15.294,7.732 -14.306,9.445 1.216,2.105 14.985,-11.222 16.098,-9.294 0.786,1.361 -17.544,8.276 -16.351,10.343 1.541,2.669 16.15,-13.467 17.944,-10.359 1.074,1.863 -18.414,10.073 -17.543,11.583 1.552,2.688 19.192,-14.932 20.86,-12.043 1.279,2.216 -20.697,10.42 -19.627,12.272 1.964,3.402 19.557,-14.254 20.84,-12.031 1.229,2.129 -21.872,11.948 -20.871,13.682 2.193,3.799 21.6,-16.551 23.367,-13.49 1.772,3.069 -24.738,12.074 -22.97,15.138 1.662,2.878 22.075,-17.055 23.941,-13.822 1.665,2.885 -25.46,13.063 -24.013,15.568 2.141,3.708 21.689,-15.981 23.187,-13.387 1.225,2.122 -23.926,11.846 -22.515,14.289 1.459,2.527 21.313,-17.019 23.354,-13.483 1.322,2.29 -24.362,12.373 -23.212,14.365 1.385,2.398 21.179,-15.479 22.587,-13.041 1.13,1.957 -23.194,11.381 -21.959,13.521 1.98,3.429 20.157,-15.19 21.695,-12.526 1.138,1.972 -22.144,11.081 -20.787,13.431 1.395,2.416 18.943,-15.546 20.938,-12.089 1.372,2.376 -18.855,10.012 -17.889,11.687 1.451,2.514 16.056,-13.558 17.912,-10.342 0.808,1.398 -16.293,8.474 -15.264,10.255 1.679,2.908 13.671,-11.371 15.177,-8.763 0.81,1.402 -14.567,7.943 -13.887,9.122 1.143,1.979 12.606,-10.807 14.134,-8.16 0.812,1.405 -12.751,6.297 -11.88,7.806 1.298,2.249 10.32,-9.214 11.73,-6.772 0.535,0.927 -10.248,6.021 -9.616,7.117 1.15,1.992 8.247,-7.511 9.437,-5.448 0.507,0.878 -8.456,4.613 -7.988,5.424 0.7,1.213 7.202,-5.941 7.975,-4.604 0.379,0.656 -5.557,3.504 -5.147,4.212 0.618,1.07 5.038,-4.885 5.894,-3.403 0.302,0.522 -4.738,3.272 -4.478,3.723 0.733,1.271 3.31,-3.344 3.931,-2.27 0.187,0.324 -2.008,1.935 -1.85,2.208 0.647,1.122 1.591,-1.937 2.032,-1.173 0.094,0.163 0.086,1.32 0.165,1.457 0.315,0.548 0.251,-0.911 0.583,-0.337"
   id="path1340" />
		</g>
	</g>
	<g
   id="g1376">
		<g
   id="g1350">
			<ellipse
   style="fill:#ffffff"
   cx="50.505001"
   cy="39.622002"
   rx="1.784"
   ry="3.3989999"
   id="ellipse1346" />
			<path
   style="fill:#dbdcdc"
   d="m 52.282,39.534 c 0,0 0.211,3.227 -1.484,3.487 0,0 -0.969,-0.215 -1.143,-0.868 0,0 1.624,-0.046 2.627,-2.619 z"
   id="path1348" />
		</g>
		<g
   id="g1356">
			<ellipse
   style="fill:#ffffff"
   cx="54.880001"
   cy="37.768002"
   rx="1.784"
   ry="3.3989999"
   id="ellipse1352" />
			<path
   style="fill:#dbdcdc"
   d="m 56.656,37.679 c 0,0 0.213,3.228 -1.484,3.488 0,0 -0.967,-0.215 -1.141,-0.869 0,0 1.621,-0.046 2.625,-2.619 z"
   id="path1354" />
		</g>
		<g
   id="g1362">
			<ellipse
   style="fill:#ffffff"
   cx="46.967999"
   cy="41.823002"
   rx="1.784"
   ry="3.401"
   id="ellipse1358" />
			<path
   style="fill:#dbdcdc"
   d="m 48.744,41.737 c 0,0 0.212,3.226 -1.485,3.487 0,0 -0.967,-0.214 -1.141,-0.869 0,0 1.623,-0.046 2.626,-2.618 z"
   id="path1360" />
		</g>
		<g
   id="g1368">
			<ellipse
   style="fill:#ffffff"
   cx="44.658001"
   cy="43.48"
   rx="1.784"
   ry="3.3989999"
   id="ellipse1364" />
			<path
   style="fill:#dbdcdc"
   d="m 46.436,43.393 c 0,0 0.21,3.228 -1.485,3.487 0,0 -0.968,-0.215 -1.142,-0.869 0,0 1.623,-0.045 2.627,-2.618 z"
   id="path1366" />
		</g>
		<g
   id="g1374">
			<path
   style="fill:#ffffff"
   d="m 50.069,35.4 c 0,1.876 -0.799,3.398 -1.782,3.398 -0.988,0 -1.785,-1.522 -1.785,-3.398 0,-1.879 0.797,-3.399 1.785,-3.399 0.984,0 1.782,1.52 1.782,3.399 z"
   id="path1370" />
			<path
   style="fill:#dbdcdc"
   d="m 50.063,35.313 c 0,0 0.212,3.227 -1.486,3.486 0,0 -0.967,-0.215 -1.14,-0.867 0,0 1.623,-0.046 2.626,-2.619 z"
   id="path1372" />
		</g>
	</g>
	<g
   id="g1408">
		<g
   id="g1382">
			<path
   style="fill:#ffffff"
   d="m 50.81,38.002 c 0,1.878 -0.797,3.399 -1.783,3.399 -0.988,0 -1.785,-1.521 -1.785,-3.399 0,-1.878 0.797,-3.398 1.785,-3.398 0.986,0 1.783,1.52 1.783,3.398 z"
   id="path1378" />
			<path
   style="fill:#dbdcdc"
   d="m 50.802,37.914 c 0,0 0.212,3.228 -1.484,3.487 0,0 -0.969,-0.215 -1.142,-0.869 0,0 1.624,-0.045 2.626,-2.618 z"
   id="path1380" />
		</g>
		<g
   id="g1388">
			<path
   style="fill:#ffffff"
   d="m 54.903,34.604 c 0,1.876 -0.798,3.398 -1.782,3.398 -0.987,0 -1.786,-1.522 -1.786,-3.398 0,-1.88 0.799,-3.399 1.786,-3.399 0.984,-10e-4 1.782,1.519 1.782,3.399 z"
   id="path1384" />
			<path
   style="fill:#dbdcdc"
   d="m 54.897,34.515 c 0,0 0.211,3.227 -1.486,3.487 0,0 -0.967,-0.215 -1.141,-0.868 10e-4,0 1.625,-0.045 2.627,-2.619 z"
   id="path1386" />
		</g>
		<g
   id="g1394">
			<ellipse
   style="fill:#ffffff"
   cx="45.98"
   cy="37.957001"
   rx="1.784"
   ry="3.401"
   id="ellipse1390" />
			<path
   style="fill:#dbdcdc"
   d="m 47.757,37.871 c 0,0 0.211,3.225 -1.485,3.487 0,0 -0.968,-0.215 -1.141,-0.869 0,0 1.622,-0.048 2.626,-2.618 z"
   id="path1392" />
		</g>
		<g
   id="g1400">
			<path
   style="fill:#ffffff"
   d="m 45.456,37.96 c 0,1.876 -0.798,3.398 -1.782,3.398 -0.988,0 -1.786,-1.522 -1.786,-3.398 0,-1.88 0.798,-3.399 1.786,-3.399 0.984,0 1.782,1.519 1.782,3.399 z"
   id="path1396" />
			<path
   style="fill:#dbdcdc"
   d="m 45.448,37.871 c 0,0 0.212,3.228 -1.484,3.487 0,0 -0.969,-0.215 -1.142,-0.869 0,0 1.623,-0.045 2.626,-2.618 z"
   id="path1398" />
		</g>
		<g
   id="g1406">
			<ellipse
   style="fill:#ffffff"
   cx="47.765999"
   cy="34.561001"
   rx="1.784"
   ry="3.3989999"
   id="ellipse1402" />
			<path
   style="fill:#dbdcdc"
   d="m 49.542,34.472 c 0,0 0.212,3.228 -1.485,3.488 0,0 -0.968,-0.215 -1.142,-0.869 0,0 1.625,-0.046 2.627,-2.619 z"
   id="path1404" />
		</g>
	</g>
</g>
</svg>
