<?xml version="1.0" encoding="UTF-8" standalone="no"?>
<svg
   xmlns:dc="http://purl.org/dc/elements/1.1/"
   xmlns:cc="http://creativecommons.org/ns#"
   xmlns:rdf="http://www.w3.org/1999/02/22-rdf-syntax-ns#"
   xmlns:svg="http://www.w3.org/2000/svg"
   xmlns="http://www.w3.org/2000/svg"
   xmlns:sodipodi="http://sodipodi.sourceforge.net/DTD/sodipodi-0.dtd"
   xmlns:inkscape="http://www.inkscape.org/namespaces/inkscape"
   enable-background="new 0 0 1024.671 268.791"
   viewBox="0 0 466.89068 314.70367"
   version="1.1"
   id="svg416"
   sodipodi:docname="saw.svg"
   width="123.53149mm"
   height="83.265343mm"
   inkscape:version="1.0.2-2 (e86c870879, 2021-01-15)">
  <metadata
     id="metadata420">
    <rdf:RDF>
      <cc:Work
         rdf:about="">
        <dc:format>image/svg+xml</dc:format>
        <dc:type
           rdf:resource="http://purl.org/dc/dcmitype/StillImage" />
        <dc:title />
      </cc:Work>
    </rdf:RDF>
  </metadata>
  <sodipodi:namedview
     pagecolor="#ffffff"
     bordercolor="#666666"
     borderopacity="1"
     objecttolerance="10"
     gridtolerance="10"
     guidetolerance="10"
     inkscape:pageopacity="0"
     inkscape:pageshadow="2"
     inkscape:window-width="1920"
     inkscape:window-height="1017"
     id="namedview418"
     showgrid="false"
     units="mm"
     inkscape:zoom="1.0169117"
     inkscape:cx="509.33707"
     inkscape:cy="131.34822"
     inkscape:window-x="-8"
     inkscape:window-y="-8"
     inkscape:window-maximized="1"
     inkscape:current-layer="svg416"
     inkscape:document-rotation="0" />
  <defs
     id="defs78">
    <linearGradient
       id="c"
       x1="-4589"
       x2="-2950.6001"
       gradientTransform="matrix(0.01089418,-0.00417283,0.00302139,0.00798633,531.20497,391.62651)"
       gradientUnits="userSpaceOnUse">
      <stop
         stop-color="#bebcb9"
         offset=".0039"
         id="stop2" />
      <stop
         stop-color="#d6d3cc"
         offset=".2078"
         id="stop4" />
      <stop
         stop-color="#babcbe"
         offset=".4157"
         id="stop6" />
      <stop
         stop-color="#5b5a5a"
         offset=".6392"
         id="stop8" />
      <stop
         stop-color="#7e7d7b"
         offset=".9765"
         id="stop10" />
    </linearGradient>
    <linearGradient
       id="b"
       x1="-1038.6"
       x2="599.79999"
       gradientTransform="matrix(0.2405804,0.08729779,-0.02203719,0.06074398,276.34066,241.58402)"
       gradientUnits="userSpaceOnUse">
      <stop
         stop-color="#92918e"
         offset=".0667"
         id="stop13" />
      <stop
         stop-color="#babcbe"
         offset=".4157"
         id="stop15" />
      <stop
         stop-color="#b3b2ac"
         offset=".8275"
         id="stop17" />
      <stop
         stop-color="#7e7d7b"
         offset="1"
         id="stop19" />
    </linearGradient>
    <linearGradient
       id="a"
       x1="-1064.1"
       x2="574.27002"
       gradientTransform="matrix(0.22504792,0.14370647,-0.03446021,0.05395059,317.72298,217.24808)"
       gradientUnits="userSpaceOnUse">
      <stop
         stop-color="#bebcb9"
         offset=".0039"
         id="stop22" />
      <stop
         stop-color="#d6d3cc"
         offset=".2078"
         id="stop24" />
      <stop
         stop-color="#babcbe"
         offset=".4157"
         id="stop26" />
      <stop
         stop-color="#b3b2ac"
         offset=".8275"
         id="stop28" />
      <stop
         stop-color="#7e7d7b"
         offset="1"
         id="stop30" />
    </linearGradient>
    <linearGradient
       id="f"
       x1="-1198.4"
       x2="440"
       gradientTransform="matrix(-0.03588074,0.05957449,-0.09204631,-0.05542678,250.64132,201.36739)"
       gradientUnits="userSpaceOnUse">
      <stop
         stop-color="#d4b292"
         offset="0"
         id="stop33" />
      <stop
         stop-color="#c8aa8a"
         offset=".051"
         id="stop35" />
      <stop
         stop-color="#cdae89"
         offset=".102"
         id="stop37" />
      <stop
         stop-color="#d0ad85"
         offset=".1529"
         id="stop39" />
      <stop
         stop-color="#c7a584"
         offset=".2039"
         id="stop41" />
      <stop
         stop-color="#c09c7d"
         offset=".2941"
         id="stop43" />
      <stop
         stop-color="#caa989"
         offset=".3569"
         id="stop45" />
      <stop
         stop-color="#b99476"
         offset=".4431"
         id="stop47" />
      <stop
         stop-color="#b49074"
         offset=".498"
         id="stop49" />
      <stop
         stop-color="#cdaf8c"
         offset=".5608"
         id="stop51" />
      <stop
         stop-color="#be997b"
         offset=".6392"
         id="stop53" />
      <stop
         stop-color="#cba580"
         offset=".7412"
         id="stop55" />
      <stop
         stop-color="#cba580"
         offset=".8039"
         id="stop57" />
      <stop
         stop-color="#b79478"
         offset=".8941"
         id="stop59" />
      <stop
         stop-color="#c29f7f"
         offset=".9726"
         id="stop61" />
    </linearGradient>
    <linearGradient
       id="e"
       x1="409.17001"
       x2="2047.6"
       gradientTransform="matrix(3.4533101e-4,-0.1077485,0.07195009,2.1020468e-4,159.34992,221.26503)"
       gradientUnits="userSpaceOnUse">
      <stop
         stop-color="#e4ceba"
         offset="0"
         id="stop64" />
      <stop
         stop-color="#c8aa8a"
         offset=".5177"
         id="stop66" />
      <stop
         stop-color="#96806c"
         offset="1"
         id="stop68" />
    </linearGradient>
    <linearGradient
       id="d"
       x1="106.41"
       x2="232.52"
       gradientUnits="userSpaceOnUse"
       gradientTransform="matrix(0.45382566,0.20245004,-0.20245004,0.45382566,42.768402,-12.810137)">
      <stop
         stop-color="#e4ceba"
         offset="0"
         id="stop71" />
      <stop
         stop-color="#c8aa8a"
         offset=".5177"
         id="stop73" />
      <stop
         stop-color="#96806c"
         offset="1"
         id="stop75" />
    </linearGradient>
  </defs>
  <path
     d="m 435.86037,283.66702 c -0.99623,1.62332 -1.0897,3.54051 -0.28529,5.6406 0.82464,2.05469 2.28043,3.79239 4.38271,5.0567 2.12741,1.32992 4.22058,1.88278 6.43588,1.67391 2.30119,-0.27938 3.90696,-1.19546 4.92344,-2.86416 1.01645,-1.6687 1.1553,-3.56565 0.28527,-5.64059 -0.77926,-2.03446 -2.25529,-3.72678 -4.31708,-5.08184 -2.14767,-1.28454 -4.35184,-1.83251 -6.50151,-1.64879 -2.28094,0.23401 -3.90696,1.19547 -4.92342,2.86417 z m 0.6335,5.28867 c -0.70385,-1.83758 -0.61596,-3.37636 0.23366,-4.79301 0.87475,-1.35101 2.26339,-2.14631 4.14567,-2.34049 1.97305,-0.15368 3.95031,0.29306 5.82567,1.45612 1.9005,1.2287 3.28087,2.76951 3.98472,4.60709 0.7241,1.7922 0.61596,3.37636 -0.23366,4.79301 -0.87475,1.35101 -2.19776,2.12117 -4.14566,2.34049 -1.9933,0.19907 -3.95032,-0.29305 -5.85081,-1.52174 -1.87537,-1.16309 -3.2306,-2.63828 -3.95959,-4.54147 z"
     fill="url(#c)"
     id="path80"
     style="fill:url(#c);stroke-width:0.496934" />
  <path
     d="m 466.85682,286.39402 c 0.0405,-0.0907 0.0355,-0.20178 0.0307,-0.31279 -0.0301,-0.17665 -0.0754,-0.19689 -0.19132,-0.303 L 218.42658,92.153801 c -0.11592,-0.106085 -0.20668,-0.14661 -0.2723,-0.121465 -0.0454,-0.0203 -0.0907,-0.04048 -0.11102,0.0044 -0.11101,0.0044 -0.24226,0.05518 -0.34838,0.171062 -0.0405,0.09073 -0.10126,0.226913 -0.0712,0.403548 0.004,0.111021 0.0754,0.196898 0.19132,0.303004 l 247.92684,193.41759 -11.97611,24.04094 -368.160754,-162.60281 9.350492,-19.00905 0.04049,-0.0907 c -0.0049,-0.11102 -0.0098,-0.22202 0.01042,-0.26739 -0.03004,-0.17665 -0.145933,-0.28275 -0.236698,-0.32324 -0.136148,-0.0608 -0.292542,-0.0761 -0.444041,0.0195 -0.06564,0.0251 -0.151504,0.0957 -0.257615,0.21156 l -9.573191,19.50826 c -0.02025,0.0454 -0.06073,0.13615 -0.01042,0.26741 -0.02025,0.0454 0.05028,0.13126 0.07541,0.19688 0.07053,0.0859 0.09565,0.1515 0.186419,0.19199 L 453.76928,311.46274 c 0.13614,0.0608 0.29255,0.0761 0.42378,0.0258 0.0859,-0.0705 0.192,-0.18642 0.2325,-0.27719 z"
     fill="url(#b)"
     id="path82"
     style="fill:url(#b);stroke-width:0.496934" />
  <path
     d="M 453.76573,310.37288 465.74184,286.33194 217.81501,92.914843 c -2.62292,3.074207 -10.35144,9.421027 -23.16535,18.995067 -12.81915,-12.248245 -26.64514,-11.50541 -41.43749,2.1377 -7.46181,6.84671 -15.11475,16.92737 -23.04473,30.31253 -2.42889,1.4195 -14.15783,-3.75832 -35.211976,-15.59911 l -9.350488,19.00904 z m -17.57486,-21.22587 c -0.77438,-1.92345 -0.67113,-3.61864 0.21898,-5.12604 0.91035,-1.55279 2.47562,-2.37811 4.53455,-2.60233 2.08405,-0.15859 4.13183,0.37403 6.1231,1.64322 2.0569,1.24405 3.41701,2.83025 4.1914,4.7537 0.77436,1.92344 0.7165,3.63887 -0.23924,5.17142 -0.93548,1.48716 -2.40999,2.35297 -4.5143,2.55695 -2.08405,0.15858 -4.08646,-0.35379 -6.14335,-1.59784 -2.0115,-1.22382 -3.41702,-2.83026 -4.17114,-4.79908 z"
     fill="url(#a)"
     id="path84"
     style="fill:url(#a);stroke-width:0.496934" />
  <path
     d="m 398.99715,287.13737 -3.53982,-1.5791 0.33673,4.61215 z"
     fill="#aeaeae"
     id="path86"
     style="stroke-width:0.496934" />
  <path
     d="m 403.94385,289.34407 -3.58521,-1.59935 0.38212,4.6324 z"
     fill="#aeaeae"
     id="path88"
     style="stroke-width:0.496934" />
  <path
     d="m 408.32083,291.24221 -3.60547,-1.55397 0.33674,4.61215 z"
     fill="#aeaeae"
     id="path90"
     style="stroke-width:0.496934" />
  <path
     d="m 417.62426,295.39244 -3.53985,-1.57911 0.27111,4.6373 z"
     fill="#aeaeae"
     id="path92"
     style="stroke-width:0.496934" />
  <path
     d="m 422.2079,297.43719 -3.58523,-1.59936 0.3165,4.65754 z"
     fill="#aeaeae"
     id="path94"
     style="stroke-width:0.496934" />
  <path
     d="m 426.53949,299.31509 -3.5601,-1.53373 0.33675,4.61216 z"
     fill="#aeaeae"
     id="path96"
     style="stroke-width:0.496934" />
  <path
     d="m 413.26753,293.44892 -3.58522,-1.59936 0.36188,4.67779 z"
     fill="#aeaeae"
     id="path98"
     style="stroke-width:0.496934" />
  <path
     d="m 435.88829,303.48556 -3.58522,-1.59936 0.33674,4.61214 z"
     fill="#aeaeae"
     id="path100"
     style="stroke-width:0.496934" />
  <path
     d="m 440.2904,305.44933 -3.58523,-1.59936 0.36188,4.67777 z"
     fill="#aeaeae"
     id="path102"
     style="stroke-width:0.496934" />
  <path
     d="m 444.66075,307.39892 -3.58523,-1.59936 0.33673,4.61214 z"
     fill="#aeaeae"
     id="path104"
     style="stroke-width:0.496934" />
  <path
     d="m 453.96417,311.54914 -3.58523,-1.59936 0.33674,4.61214 z"
     fill="#aeaeae"
     id="path106"
     style="stroke-width:0.496934" />
  <path
     d="m 449.60745,309.60563 -3.58523,-1.59936 0.38213,4.63238 z"
     fill="#aeaeae"
     id="path108"
     style="stroke-width:0.496934" />
  <path
     d="m 431.53157,301.54203 -3.58523,-1.59935 0.36188,4.67777 z"
     fill="#aeaeae"
     id="path110"
     style="stroke-width:0.496934" />
  <path
     d="m 252.74871,222.33176 -3.53983,-1.57911 0.33674,4.61216 z"
     fill="#aeaeae"
     id="path112"
     style="stroke-width:0.496934" />
  <path
     d="m 257.12568,224.2299 -3.60546,-1.55397 0.38212,4.6324 z"
     fill="#aeaeae"
     id="path114"
     style="stroke-width:0.496934" />
  <path
     d="m 262.07239,226.43661 -3.53984,-1.57911 0.33674,4.61216 z"
     fill="#aeaeae"
     id="path116"
     style="stroke-width:0.496934" />
  <path
     d="m 271.33043,230.56659 -3.53983,-1.57911 0.33673,4.61216 z"
     fill="#aeaeae"
     id="path118"
     style="stroke-width:0.496934" />
  <path
     d="m 275.7074,232.46473 -3.56009,-1.53372 0.33674,4.61215 z"
     fill="#aeaeae"
     id="path120"
     style="stroke-width:0.496934" />
  <path
     d="m 280.6541,234.67144 -3.58523,-1.59936 0.38213,4.63239 z"
     fill="#aeaeae"
     id="path122"
     style="stroke-width:0.496934" />
  <path
     d="m 266.42912,228.38012 -3.58523,-1.59935 0.38213,4.6324 z"
     fill="#aeaeae"
     id="path124"
     style="stroke-width:0.496934" />
  <path
     d="m 289.61471,238.61432 -3.58523,-1.59936 0.36188,4.67778 z"
     fill="#aeaeae"
     id="path126"
     style="stroke-width:0.496934" />
  <path
     d="m 293.97143,240.55785 -3.58521,-1.59937 0.36187,4.67777 z"
     fill="#aeaeae"
     id="path128"
     style="stroke-width:0.496934" />
  <path
     d="m 298.91814,242.76454 -3.58522,-1.59935 0.36187,4.67777 z"
     fill="#aeaeae"
     id="path130"
     style="stroke-width:0.496934" />
  <path
     d="m 307.67698,246.67183 -3.53985,-1.57911 0.3165,4.65753 z"
     fill="#aeaeae"
     id="path132"
     style="stroke-width:0.496934" />
  <path
     d="m 312.0337,248.61535 -3.53984,-1.57911 0.31651,4.65753 z"
     fill="#aeaeae"
     id="path134"
     style="stroke-width:0.496934" />
  <path
     d="m 317.00065,250.77667 -3.58523,-1.59935 0.36188,4.67777 z"
     fill="#aeaeae"
     id="path136"
     style="stroke-width:0.496934" />
  <path
     d="m 303.29511,244.66268 -3.60547,-1.55397 0.36188,4.67778 z"
     fill="#aeaeae"
     id="path138"
     style="stroke-width:0.496934" />
  <path
     d="m 285.07646,236.58982 -3.60548,-1.55398 0.33675,4.61215 z"
     fill="#aeaeae"
     id="path140"
     style="stroke-width:0.496934" />
  <path
     d="m 325.94101,254.76494 -3.58521,-1.59935 0.36187,4.67777 z"
     fill="#aeaeae"
     id="path142"
     style="stroke-width:0.496934" />
  <path
     d="m 330.29774,256.70846 -3.58522,-1.59936 0.31649,4.65753 z"
     fill="#aeaeae"
     id="path144"
     style="stroke-width:0.496934" />
  <path
     d="m 335.24444,258.91516 -3.58523,-1.59935 0.38214,4.6324 z"
     fill="#aeaeae"
     id="path146"
     style="stroke-width:0.496934" />
  <path
     d="m 344.5681,263.02001 -3.58521,-1.59937 0.33674,4.61216 z"
     fill="#aeaeae"
     id="path148"
     style="stroke-width:0.496934" />
  <path
     d="m 348.87946,264.94328 -3.53985,-1.57911 0.33674,4.61216 z"
     fill="#aeaeae"
     id="path150"
     style="stroke-width:0.496934" />
  <path
     d="m 353.82615,267.14999 -3.53984,-1.57911 0.33674,4.61215 z"
     fill="#aeaeae"
     id="path152"
     style="stroke-width:0.496934" />
  <path
     d="m 339.60117,260.85868 -3.58523,-1.59935 0.33674,4.61215 z"
     fill="#aeaeae"
     id="path154"
     style="stroke-width:0.496934" />
  <path
     d="m 362.78676,271.09288 -3.58522,-1.59936 0.36188,4.67778 z"
     fill="#aeaeae"
     id="path156"
     style="stroke-width:0.496934" />
  <path
     d="m 367.14349,273.03639 -3.63061,-1.6196 0.36188,4.67778 z"
     fill="#aeaeae"
     id="path158"
     style="stroke-width:0.496934" />
  <path
     d="m 370.2829,276.12424 1.17218,-1.16391 -3.58522,-1.59936 0.38213,4.63239 0.51035,-0.53413 0.125,0.81755 1.45006,-1.42085 z"
     fill="#aeaeae"
     id="path160"
     style="stroke-width:0.496934" />
  <path
     d="m 380.77851,279.06452 -3.60548,-1.55398 0.38214,4.6324 z"
     fill="#aeaeae"
     id="path162"
     style="stroke-width:0.496934" />
  <path
     d="m 385.36215,281.10925 -3.58522,-1.59934 0.31649,4.65752 z"
     fill="#aeaeae"
     id="path164"
     style="stroke-width:0.496934" />
  <path
     d="m 389.69373,282.98714 -3.56008,-1.53372 0.38213,4.6324 z"
     fill="#aeaeae"
     id="path166"
     style="stroke-width:0.496934" />
  <path
     d="m 376.44692,277.18663 -3.63061,-1.61961 0.38213,4.63239 z"
     fill="#aeaeae"
     id="path168"
     style="stroke-width:0.496934" />
  <path
     d="m 358.18289,269.0935 -3.58523,-1.59935 0.38212,4.6324 z"
     fill="#aeaeae"
     id="path170"
     style="stroke-width:0.496934" />
  <path
     d="m 321.35738,252.7202 -3.53984,-1.57911 0.3165,4.65753 z"
     fill="#aeaeae"
     id="path172"
     style="stroke-width:0.496934" />
  <path
     d="m 391.41709,288.27227 3.26873,-3.05818 -3.58522,-1.59935 z"
     fill="#aeaeae"
     id="path174"
     style="stroke-width:0.496934" />
  <path
     d="m 106.10719,157.18756 -3.58524,-1.59936 0.33675,4.61215 z"
     fill="#aeaeae"
     id="path176"
     style="stroke-width:0.496934" />
  <path
     d="m 110.48415,159.08571 -3.65084,-1.57422 0.38212,4.63238 z"
     fill="#aeaeae"
     id="path178"
     style="stroke-width:0.496934" />
  <path
     d="m 115.38547,161.27216 -3.53984,-1.57911 0.3165,4.65753 z"
     fill="#aeaeae"
     id="path180"
     style="stroke-width:0.496934" />
  <path
     d="m 124.6889,165.42238 -3.53985,-1.57911 0.29136,4.59192 z"
     fill="#aeaeae"
     id="path182"
     style="stroke-width:0.496934" />
  <path
     d="m 129.06587,167.32052 -3.60546,-1.55397 0.33673,4.61215 z"
     fill="#aeaeae"
     id="path184"
     style="stroke-width:0.496934" />
  <path
     d="m 134.01257,169.52723 -3.53984,-1.57912 0.27111,4.6373 z"
     fill="#aeaeae"
     id="path186"
     style="stroke-width:0.496934" />
  <path
     d="m 119.78758,163.23593 -3.6306,-1.6196 0.38212,4.63239 z"
     fill="#aeaeae"
     id="path188"
     style="stroke-width:0.496934" />
  <path
     d="m 142.97318,173.47011 -3.58522,-1.59935 0.3165,4.65753 z"
     fill="#aeaeae"
     id="path190"
     style="stroke-width:0.496934" />
  <path
     d="m 147.28452,175.3934 -3.53983,-1.57911 0.27111,4.63728 z"
     fill="#aeaeae"
     id="path192"
     style="stroke-width:0.496934" />
  <path
     d="m 152.2766,177.62034 -3.6306,-1.6196 0.36188,4.67777 z"
     fill="#aeaeae"
     id="path194"
     style="stroke-width:0.496934" />
  <path
     d="m 161.03544,181.52763 -3.58522,-1.59935 0.3165,4.65752 z"
     fill="#aeaeae"
     id="path196"
     style="stroke-width:0.496934" />
  <path
     d="m 165.41241,183.42577 -3.60547,-1.55398 0.3165,4.65753 z"
     fill="#aeaeae"
     id="path198"
     style="stroke-width:0.496934" />
  <path
     d="m 170.35911,185.63247 -3.58522,-1.59936 0.3165,4.65753 z"
     fill="#aeaeae"
     id="path200"
     style="stroke-width:0.496934" />
  <path
     d="m 156.60819,179.49823 -3.56008,-1.53372 0.29136,4.59189 z"
     fill="#aeaeae"
     id="path202"
     style="stroke-width:0.496934" />
  <path
     d="m 138.38954,171.42537 -3.60547,-1.55396 0.33674,4.61214 z"
     fill="#aeaeae"
     id="path204"
     style="stroke-width:0.496934" />
  <path
     d="m 179.29947,189.62074 -3.6306,-1.6196 0.38213,4.63238 z"
     fill="#aeaeae"
     id="path206"
     style="stroke-width:0.496934" />
  <path
     d="m 183.63107,191.49863 -3.56009,-1.53373 0.29136,4.5919 z"
     fill="#aeaeae"
     id="path208"
     style="stroke-width:0.496934" />
  <path
     d="m 188.62314,193.72558 -3.63059,-1.61961 0.36188,4.67778 z"
     fill="#aeaeae"
     id="path210"
     style="stroke-width:0.496934" />
  <path
     d="m 197.8812,197.85556 -3.58524,-1.59936 0.33675,4.61215 z"
     fill="#aeaeae"
     id="path212"
     style="stroke-width:0.496934" />
  <path
     d="m 202.23793,199.79908 -3.58523,-1.59936 0.33674,4.61216 z"
     fill="#aeaeae"
     id="path214"
     style="stroke-width:0.496934" />
  <path
     d="m 207.18462,202.00578 -3.58523,-1.59935 0.33674,4.61215 z"
     fill="#aeaeae"
     id="path216"
     style="stroke-width:0.496934" />
  <path
     d="m 192.9345,195.64885 -3.53985,-1.57911 0.27112,4.63729 z"
     fill="#aeaeae"
     id="path218"
     style="stroke-width:0.496934" />
  <path
     d="m 216.09985,205.92842 -3.53985,-1.57911 0.29137,4.5919 z"
     fill="#aeaeae"
     id="path220"
     style="stroke-width:0.496934" />
  <path
     d="m 220.45657,207.87193 -3.58522,-1.59935 0.33675,4.61216 z"
     fill="#aeaeae"
     id="path222"
     style="stroke-width:0.496934" />
  <path
     d="m 225.44865,210.09889 -3.58521,-1.59936 0.33674,4.61216 z"
     fill="#aeaeae"
     id="path224"
     style="stroke-width:0.496934" />
  <path
     d="m 234.50492,214.19327 -3.53983,-1.5791 0.3165,4.65752 z"
     fill="#aeaeae"
     id="path226"
     style="stroke-width:0.496934" />
  <path
     d="m 238.86165,216.13679 -3.58522,-1.59935 0.36188,4.67778 z"
     fill="#aeaeae"
     id="path228"
     style="stroke-width:0.496934" />
  <path
     d="m 243.80835,218.3435 -3.53984,-1.57911 0.33674,4.61215 z"
     fill="#aeaeae"
     id="path230"
     style="stroke-width:0.496934" />
  <path
     d="m 229.78024,211.97679 -3.60546,-1.55397 0.33674,4.61215 z"
     fill="#aeaeae"
     id="path232"
     style="stroke-width:0.496934" />
  <path
     d="m 211.56159,203.90392 -3.60546,-1.55398 0.33674,4.61216 z"
     fill="#aeaeae"
     id="path234"
     style="stroke-width:0.496934" />
  <path
     d="m 174.71583,187.57599 -3.58521,-1.59935 0.3165,4.65753 z"
     fill="#aeaeae"
     id="path236"
     style="stroke-width:0.496934" />
  <path
     d="m 87.888527,149.1147 -3.585223,-1.59936 0.336746,4.61216 z"
     fill="#aeaeae"
     id="path238"
     style="stroke-width:0.496934" />
  <path
     d="m 92.220121,150.99259 -3.605475,-1.55397 0.356991,4.56676 z"
     fill="#aeaeae"
     id="path240"
     style="stroke-width:0.496934" />
  <path
     d="m 97.166819,153.1993 -3.585226,-1.59936 0.38213,4.63239 z"
     fill="#aeaeae"
     id="path242"
     style="stroke-width:0.496934" />
  <path
     d="m 244.62524,218.70791 0.33674,4.61216 3.2031,-3.03305 z"
     fill="#aeaeae"
     id="path244"
     style="stroke-width:0.496934" />
  <path
     d="m 98.275059,158.15561 3.248481,-3.01278 -3.585221,-1.59937 z"
     fill="#aeaeae"
     id="path246"
     style="stroke-width:0.496934" />
  <path
     d="m 399.26946,287.25884 -3.53985,-1.57911 0.33674,4.61216 z"
     id="path248"
     style="stroke-width:0.496934" />
  <path
     d="m 408.59313,291.36368 -3.56009,-1.53373 0.29136,4.59192 z"
     id="path250"
     style="stroke-width:0.496934" />
  <path
     d="m 404.21616,289.46555 -3.58522,-1.59935 0.38211,4.63239 z"
     id="path252"
     style="stroke-width:0.496934" />
  <path
     d="m 426.85716,299.4568 -3.60546,-1.55397 0.33674,4.61215 z"
     id="path254"
     style="stroke-width:0.496934" />
  <path
     d="m 422.48019,297.55865 -3.58522,-1.59935 0.36187,4.67778 z"
     id="path256"
     style="stroke-width:0.496934" />
  <path
     d="m 417.89655,295.51391 -3.53984,-1.57912 0.3165,4.65755 z"
     id="path258"
     style="stroke-width:0.496934" />
  <path
     d="m 413.53983,293.57039 -3.53985,-1.57911 0.3165,4.65754 z"
     id="path260"
     style="stroke-width:0.496934" />
  <path
     d="m 436.16059,303.60703 -3.58522,-1.59935 0.33673,4.61214 z"
     id="path262"
     style="stroke-width:0.496934" />
  <path
     d="m 444.93304,307.52038 -3.58523,-1.59935 0.33675,4.61215 z"
     id="path264"
     style="stroke-width:0.496934" />
  <path
     d="m 440.56269,305.57079 -3.58522,-1.59935 0.36189,4.67777 z"
     id="path266"
     style="stroke-width:0.496934" />
  <path
     d="m 449.87973,309.72709 -3.53984,-1.57911 0.33676,4.61215 z"
     id="path268"
     style="stroke-width:0.496934" />
  <path
     d="m 431.80386,301.66351 -3.58522,-1.59936 0.36188,4.67778 z"
     id="path270"
     style="stroke-width:0.496934" />
  <path
     d="m 262.34469,226.55807 -3.53985,-1.5791 0.33674,4.61215 z"
     id="path272"
     style="stroke-width:0.496934" />
  <path
     d="m 257.39799,224.35137 -3.60548,-1.55397 0.38213,4.6324 z"
     id="path274"
     style="stroke-width:0.496934" />
  <path
     d="m 253.02102,222.45324 -3.53985,-1.57911 0.33674,4.61215 z"
     id="path276"
     style="stroke-width:0.496934" />
  <path
     d="m 280.97177,234.81316 -3.58521,-1.59937 0.33674,4.61215 z"
     id="path278"
     style="stroke-width:0.496934" />
  <path
     d="m 276.02507,232.60645 -3.60546,-1.55397 0.33674,4.61216 z"
     id="path280"
     style="stroke-width:0.496934" />
  <path
     d="m 271.60273,230.68806 -3.53984,-1.57911 0.33674,4.61215 z"
     id="path282"
     style="stroke-width:0.496934" />
  <path
     d="m 266.70141,228.5016 -3.58522,-1.59936 0.38212,4.6324 z"
     id="path284"
     style="stroke-width:0.496934" />
  <path
     d="m 299.19043,242.88602 -3.58522,-1.59936 0.36188,4.67778 z"
     id="path286"
     style="stroke-width:0.496934" />
  <path
     d="m 294.24373,240.67931 -3.58522,-1.59936 0.3165,4.65753 z"
     id="path288"
     style="stroke-width:0.496934" />
  <path
     d="m 289.887,238.73578 -3.58522,-1.59935 0.36189,4.67778 z"
     id="path290"
     style="stroke-width:0.496934" />
  <path
     d="m 317.31832,250.91839 -3.58521,-1.59935 0.31649,4.65753 z"
     id="path292"
     style="stroke-width:0.496934" />
  <path
     d="m 312.306,248.73682 -3.53984,-1.5791 0.31649,4.65752 z"
     id="path294"
     style="stroke-width:0.496934" />
  <path
     d="m 307.94926,246.7933 -3.53983,-1.57911 0.31649,4.65753 z"
     id="path296"
     style="stroke-width:0.496934" />
  <path
     d="m 303.56741,244.78415 -3.60547,-1.55397 0.3165,4.65753 z"
     id="path298"
     style="stroke-width:0.496934" />
  <path
     d="m 285.34874,236.71129 -3.60546,-1.55397 0.33675,4.61214 z"
     id="path300"
     style="stroke-width:0.496934" />
  <path
     d="m 335.51673,259.03663 -3.58522,-1.59936 0.38212,4.63241 z"
     id="path302"
     style="stroke-width:0.496934" />
  <path
     d="m 330.57003,256.82993 -3.58523,-1.59936 0.31651,4.65754 z"
     id="path304"
     style="stroke-width:0.496934" />
  <path
     d="m 326.21332,254.88641 -3.58524,-1.59936 0.36189,4.67778 z"
     id="path306"
     style="stroke-width:0.496934" />
  <path
     d="m 354.14383,267.2917 -3.58522,-1.59936 0.33674,4.61216 z"
     id="path308"
     style="stroke-width:0.496934" />
  <path
     d="m 349.15175,265.06474 -3.58522,-1.59934 0.38213,4.63239 z"
     id="path310"
     style="stroke-width:0.496934" />
  <path
     d="m 344.84041,263.14147 -3.58523,-1.59935 0.33674,4.61216 z"
     id="path312"
     style="stroke-width:0.496934" />
  <path
     d="m 339.87346,260.98016 -3.58523,-1.59936 0.33674,4.61215 z"
     id="path314"
     style="stroke-width:0.496934" />
  <path
     d="m 371.72738,275.08179 -3.53984,-1.57911 0.33674,4.61215 0.55573,-0.51388 0.0342,0.77707 1.49543,-1.40062 -0.0545,-0.73169 z"
     id="path316"
     style="stroke-width:0.496934" />
  <path
     d="m 367.37039,273.13762 -3.58522,-1.59935 0.3619,4.67777 z"
     id="path318"
     style="stroke-width:0.496934" />
  <path
     d="m 363.05906,271.21434 -3.58522,-1.59935 0.3165,4.65753 z"
     id="path320"
     style="stroke-width:0.496934" />
  <path
     d="m 381.0508,279.18598 -3.60547,-1.55396 0.38212,4.63238 z"
     id="path322"
     style="stroke-width:0.496934" />
  <path
     d="m 390.01142,283.12886 -3.60548,-1.55396 0.38213,4.63238 z"
     id="path324"
     style="stroke-width:0.496934" />
  <path
     d="m 385.63445,281.23073 -3.58524,-1.59936 0.36189,4.67778 z"
     id="path326"
     style="stroke-width:0.496934" />
  <path
     d="m 376.67382,277.28784 -3.58522,-1.59935 0.38213,4.6324 z"
     id="path328"
     style="stroke-width:0.496934" />
  <path
     d="m 358.45518,269.21498 -3.58523,-1.59936 0.38213,4.6324 z"
     id="path330"
     style="stroke-width:0.496934" />
  <path
     d="m 321.62967,252.84166 -3.53984,-1.57911 0.31649,4.65753 z"
     id="path332"
     style="stroke-width:0.496934" />
  <path
     d="m 391.37288,283.73621 0.3165,4.65753 3.26873,-3.05817 z"
     id="path334"
     style="stroke-width:0.496934" />
  <path
     d="m 115.70315,161.41388 -3.58522,-1.59936 0.3165,4.65753 z"
     id="path336"
     style="stroke-width:0.496934" />
  <path
     d="m 110.71107,159.18693 -3.56009,-1.53374 0.29136,4.59191 z"
     id="path338"
     style="stroke-width:0.496934" />
  <path
     d="m 106.37947,157.30903 -3.58521,-1.59935 0.33674,4.61214 z"
     id="path340"
     style="stroke-width:0.496934" />
  <path
     d="m 134.28488,169.6487 -3.58524,-1.59936 0.3165,4.65754 z"
     id="path342"
     style="stroke-width:0.496934" />
  <path
     d="m 129.33817,167.44199 -3.60548,-1.55397 0.33674,4.61216 z"
     id="path344"
     style="stroke-width:0.496934" />
  <path
     d="m 124.9612,165.54386 -3.58523,-1.59936 0.33674,4.61215 z"
     id="path346"
     style="stroke-width:0.496934" />
  <path
     d="m 120.0145,163.33715 -3.53985,-1.57911 0.29136,4.59191 z"
     id="path348"
     style="stroke-width:0.496934" />
  <path
     d="m 152.50352,177.72157 -3.53985,-1.57911 0.27113,4.63729 z"
     id="path350"
     style="stroke-width:0.496934" />
  <path
     d="m 147.60221,175.53511 -3.63061,-1.6196 0.36187,4.67777 z"
     id="path352"
     style="stroke-width:0.496934" />
  <path
     d="m 143.20009,173.57135 -3.53985,-1.57912 0.27113,4.63729 z"
     id="path354"
     style="stroke-width:0.496934" />
  <path
     d="m 170.63141,185.75394 -3.58523,-1.59936 0.3165,4.65754 z"
     id="path356"
     style="stroke-width:0.496934" />
  <path
     d="m 165.68471,183.54723 -3.60546,-1.55396 0.31649,4.65753 z"
     id="path358"
     style="stroke-width:0.496934" />
  <path
     d="m 161.30774,181.6491 -3.58523,-1.59936 0.31649,4.65753 z"
     id="path360"
     style="stroke-width:0.496934" />
  <path
     d="m 156.92588,179.63995 -3.65086,-1.57422 0.38213,4.6324 z"
     id="path362"
     style="stroke-width:0.496934" />
  <path
     d="m 138.66183,171.54685 -3.60547,-1.55398 0.33674,4.61216 z"
     id="path364"
     style="stroke-width:0.496934" />
  <path
     d="m 188.85006,193.8268 -3.53983,-1.57911 0.27111,4.63729 z"
     id="path366"
     style="stroke-width:0.496934" />
  <path
     d="m 183.90335,191.62009 -3.60546,-1.55396 0.38214,4.63238 z"
     id="path368"
     style="stroke-width:0.496934" />
  <path
     d="m 179.52638,189.72196 -3.53983,-1.57912 0.29136,4.59191 z"
     id="path370"
     style="stroke-width:0.496934" />
  <path
     d="m 207.45691,202.12726 -3.58522,-1.59937 0.33675,4.61216 z"
     id="path372"
     style="stroke-width:0.496934" />
  <path
     d="m 202.46484,199.90031 -3.53985,-1.57912 0.29135,4.59191 z"
     id="path374"
     style="stroke-width:0.496934" />
  <path
     d="m 198.15348,197.97702 -3.58521,-1.59935 0.33674,4.61216 z"
     id="path376"
     style="stroke-width:0.496934" />
  <path
     d="m 193.20678,195.77032 -3.58522,-1.59935 0.31651,4.65752 z"
     id="path378"
     style="stroke-width:0.496934" />
  <path
     d="m 225.67558,210.20012 -3.58523,-1.59936 0.33673,4.61215 z"
     id="path380"
     style="stroke-width:0.496934" />
  <path
     d="m 220.72887,207.99341 -3.58522,-1.59936 0.33674,4.61215 z"
     id="path382"
     style="stroke-width:0.496934" />
  <path
     d="m 216.41752,206.07014 -3.6306,-1.61961 0.38212,4.6324 z"
     id="path384"
     style="stroke-width:0.496934" />
  <path
     d="m 244.08065,218.46497 -3.53984,-1.57911 0.33674,4.61216 z"
     id="path386"
     style="stroke-width:0.496934" />
  <path
     d="m 239.17933,216.27852 -3.58523,-1.59936 0.31651,4.65752 z"
     id="path388"
     style="stroke-width:0.496934" />
  <path
     d="m 234.77723,214.31475 -3.53985,-1.57912 0.36188,4.67778 z"
     id="path390"
     style="stroke-width:0.496934" />
  <path
     d="m 230.05254,212.09826 -3.60548,-1.55398 0.33675,4.61217 z"
     id="path392"
     style="stroke-width:0.496934" />
  <path
     d="m 211.78851,204.00514 -3.56009,-1.53372 0.29135,4.5919 z"
     id="path394"
     style="stroke-width:0.496934" />
  <path
     d="m 174.98814,187.69746 -3.58522,-1.59936 0.31649,4.65753 z"
     id="path396"
     style="stroke-width:0.496934" />
  <path
     d="m 97.439109,153.32076 -3.585216,-1.59934 0.336745,4.61214 z"
     id="path398"
     style="stroke-width:0.496934" />
  <path
     d="m 92.492412,151.11406 -3.605465,-1.55397 0.356991,4.56676 z"
     id="path400"
     style="stroke-width:0.496934" />
  <path
     d="m 88.11544,149.21593 -3.585223,-1.59935 0.382129,4.63238 z"
     id="path402"
     style="stroke-width:0.496934" />
  <path
     d="m 244.89753,218.82938 0.33674,4.61215 3.20311,-3.03304 z"
     id="path404"
     style="stroke-width:0.496934" />
  <path
     d="m 98.210619,153.66493 0.33674,4.61214 3.248481,-3.01278 z"
     id="path406"
     style="stroke-width:0.496934" />
  <path
     d="m 454.13591,311.4081 -3.48467,-1.33684 0.38213,4.63239 z"
     id="path408"
     style="stroke-width:0.496934" />
  <path
     d="m 218.04327,92.037228 c 0.0203,-0.04542 0.0656,-0.02512 0.11102,-0.0044 -0.0301,-0.176635 0.011,-0.267405 -0.0195,-0.44404 -11.96378,-10.50632 -26.19873,-20.556612 -42.67969,-30.085264 -6.25368,-2.082363 -10.92522,-2.58832 -13.83796,-1.547894 -6.51266,-0.89196 -11.10254,-2.068872 -13.87576,-3.414829 -2.70761,-1.371091 -5.2735,-3.059858 -7.70256,-5.177321 -2.40393,-2.051827 -6.15264,-5.846247 -11.18048,-11.408395 -9.07634,-0.512027 -14.98165,-2.765467 -17.84716,-6.71004 -0.0705,-0.08588 -0.16128,-0.126366 -0.18642,-0.191995 C 90.25321,11.469357 75.796921,0.93942399 67.41532,1.5535226 76.385377,13.281795 74.933138,27.271264 62.94759,43.526825 51.241416,47.446267 42.029942,53.458017 35.444408,61.511822 33.119605,64.283706 31.162757,67.328554 29.462853,70.651263 18.258251,80.399071 9.1555919,84.337228 1.9935805,82.339389 c -2.50835662,4.15917 6.9794674,9.969654 28.5542405,17.471946 5.300647,1.657235 8.698772,3.554015 10.335412,5.862115 13.109662,13.79259 22.954305,20.63287 29.710571,20.49081 7.585634,-1.51331 15.425513,-0.79107 23.474255,2.14649 0.106118,-0.11591 0.191987,-0.18643 0.25762,-0.21158 0.151494,-0.0957 0.307893,-0.0803 0.44404,-0.0195 0.09076,0.0405 0.206667,0.1466 0.236698,0.32324 -0.02025,0.0454 -0.01535,0.15638 -0.01042,0.2674 0.111017,-0.004 0.201777,0.0356 0.337923,0.0963 l -0.337923,-0.0963 -0.04049,0.0907 c 21.054133,11.8408 32.783063,17.01862 35.211973,15.5991 7.92997,-13.38516 15.58291,-23.46583 23.04472,-30.31252 14.79235,-13.64311 28.61834,-14.385945 41.43749,-2.13771 12.81391,-9.57404 20.54243,-15.920851 23.16535,-18.995058 -0.11589,-0.106084 -0.18642,-0.191994 -0.19131,-0.303004 -0.0301,-0.176635 0.0307,-0.312779 0.0712,-0.403559 0.10609,-0.115892 0.23737,-0.166181 0.34838,-0.171062 z M 109.61908,51.124271 c 1.47452,-0.865811 3.80083,-1.079573 7.0041,-0.575633 1.24069,0.390215 3.6662,1.417824 7.20116,2.88592 3.58033,1.48834 5.80205,3.948623 6.66516,7.380826 0.92874,3.407063 0.38785,7.79095 -1.64288,13.197045 -0.89146,2.486258 -2.00425,4.49288 -3.22739,6.01496 l -23.02667,13.561117 c -2.757711,2.034635 -5.432251,5.956429 -8.225382,11.729804 -3.136795,2.51848 -6.004166,3.57915 -8.672623,3.09614 -3.351224,0.68158 -6.481105,1.8428 -9.298871,3.52415 -2.842906,1.61572 -6.546057,1.37852 -11.134587,-0.77724 -4.608775,-2.11037 -7.328359,-5.77218 -8.289995,-10.93518 -0.916259,-5.14273 -0.744006,-9.310176 0.496507,-12.45692 1.240511,-3.146748 2.595578,-5.208537 4.049843,-6.028962 -0.307892,0.0803 0.121473,-0.272301 1.247599,-0.967037 0.343489,-0.28208 0.707225,-0.609546 1.156833,-1.007527 1.459835,-1.198845 2.919667,-2.397682 4.424885,-3.576284 10.662877,-8.411467 21.903916,-15.313493 33.586971,-20.766833 3.63044,-1.917363 6.14521,-3.407404 7.68534,-4.298346 z"
     fill="url(#f)"
     id="path410"
     style="fill:url(#f);stroke-width:0.496934" />
  <path
     d="m 219.61833,91.43393 c -0.06,-0.353281 -0.18574,-0.681419 -0.48808,-0.97953 -11.98893,-10.571941 -26.33488,-20.61734 -42.95198,-30.206725 -0.0705,-0.08588 -0.16129,-0.126366 -0.2723,-0.121469 -6.48059,-2.1836 -11.33366,-2.770534 -14.46843,-1.720319 -6.08886,-0.866146 -10.40644,-1.921585 -12.99814,-3.186568 -2.61684,-1.330598 -5.09195,-2.978882 -7.42537,-4.944837 -2.35855,-2.03159 -6.04161,-5.851147 -11.04433,-11.347665 -0.30232,-0.298106 -0.62,-0.439821 -1.04379,-0.465636 -8.43053,-0.496002 -14.01327,-2.496712 -16.70771,-6.092899 -0.0705,-0.08588 -0.1159,-0.106118 -0.16128,-0.126366 -0.0251,-0.06563 -0.0705,-0.08588 -0.0705,-0.08588 -0.0251,-0.06564 -0.0502,-0.131263 -0.0957,-0.151506 -2.12117,-2.197764 -4.1062,-4.33479 -6.10657,-6.315426 C 87.937181,7.8787363 75.168483,-0.70126461 67.326579,0.04476469 c -0.398659,0.039812 -0.726797,0.1655036 -0.959277,0.4426908 -0.277862,0.2569434 -0.419575,0.57461821 -0.425147,0.95303741 -0.05095,0.3581678 0.07474,0.6863062 0.311437,1.0095518 C 74.664383,13.602341 73.248416,26.90061 62.091562,42.274334 50.23389,46.289431 40.93654,52.371706 34.244891,60.541412 c -2.299662,2.837503 -4.256515,5.882361 -6.001801,9.184826 -4.541464,3.95959 -8.768787,6.971029 -12.686871,8.923323 -4.983479,2.510895 -9.3994193,3.261641 -13.0914338,2.267612 -0.3833069,-0.116576 -0.7163362,-0.101905 -0.9990925,0.04403 -0.2827564,0.145936 -0.58575442,0.337246 -0.70722662,0.609546 -1.98687918,2.868213 -0.068831,6.00922 5.73878632,9.579436 4.7791726,2.948168 12.6457086,6.29417 23.5793636,10.083375 l 0.04538,0.0202 c 4.826579,1.50016 8.018038,3.25033 9.554127,5.29593 l 0.07541,0.19687 c 4.499286,4.67341 8.585909,8.56415 12.350638,11.71276 7.640466,6.29232 13.781794,9.35841 18.534981,9.19342 0.09076,0.0405 0.156394,0.0154 0.24227,-0.0552 0.575293,-0.0699 1.105208,-0.15993 1.635119,-0.25002 6.782751,-1.05527 13.825318,-0.2534 21.036928,2.36512 0.09076,0.0405 0.226913,0.10126 0.292541,0.0761 0.115902,0.10608 0.231804,0.21224 0.413334,0.29322 21.805396,12.23034 34.003516,17.45422 36.655106,15.53551 0.23738,-0.16617 0.40912,-0.30722 0.55573,-0.51389 7.84899,-13.20362 15.39583,-23.16839 22.77176,-29.94456 14.06488,-12.9882 27.17942,-13.72191 39.36877,-2.13552 0.2318,0.21224 0.56973,0.30857 0.9279,0.35951 0.37842,0.005 0.6863,-0.0747 0.9893,-0.26604 12.96542,-9.6697 20.73444,-16.107295 23.39784,-19.27225 0.21223,-0.231795 0.33371,-0.504104 0.31902,-0.837123 0.29811,-0.302335 0.46007,-0.665391 0.42025,-1.064057 0.0357,-0.20178 -0.0601,-0.353271 -0.0448,-0.509655 z m -72.4844,-33.532145 c 2.79837,1.411579 7.54464,2.603849 14.21369,3.511159 l 0.0454,0.02024 0.24716,0.05584 c 0.38331,0.116575 0.76172,0.122149 1.13035,-0.0943 0.19689,-0.07542 0.32814,-0.125689 0.40912,-0.30722 2.76056,-0.455343 6.58942,0.11 11.66803,1.777008 16.04739,9.280814 29.91437,19.058144 41.6666,29.306833 -2.69343,2.988341 -9.97235,8.937175 -21.79627,17.755725 -13.14239,-12.011545 -27.35726,-11.006865 -42.55384,3.05448 -7.39617,6.82155 -15.11475,16.92735 -23.02937,30.15612 -2.64467,0.56146 -13.52113,-4.45373 -32.543513,-15.1161 -0.17107,-0.34838 -0.448256,-0.58087 -0.89719,-0.6723 l -0.292542,-0.076 c -0.136149,-0.0608 -0.226914,-0.10126 -0.337925,-0.0963 -0.1159,-0.10608 -0.297431,-0.1871 -0.478962,-0.26809 -7.710817,-2.84121 -15.242807,-3.64376 -22.55547,-2.4984 -0.529914,0.0901 -1.039584,0.13481 -1.589742,0.27028 -4.162542,-0.0612 -9.648262,-2.88931 -16.436922,-8.52956 -3.648829,-3.04249 -7.619549,-6.82712 -11.957549,-11.37416 -1.737191,-2.5706 -5.432749,-4.65449 -11.071324,-6.408045 l 0.09077,0.0405 C 20.423289,94.696269 12.718039,91.476638 8.0296299,88.568952 5.1712042,86.804088 3.5283226,85.363822 3.2322377,84.197881 c 4.0103692,0.646318 8.5729173,-0.311098 13.6422683,-2.892508 4.135211,-2.073089 8.665537,-5.275849 13.570736,-9.562904 0.17175,-0.141038 0.232484,-0.277184 0.358842,-0.43847 1.618924,-3.141179 3.535283,-6.095269 5.774213,-8.796627 6.45917,-7.892519 15.433276,-13.738099 26.897182,-17.602366 0.262509,-0.100555 0.545265,-0.246485 0.712116,-0.498531 11.586218,-15.72633 13.653567,-29.386984 6.308173,-41.0978814 7.364459,1.5440224 18.403053,9.7331234 33.156262,24.4765514 1.955,1.960392 3.9854,4.117662 6.10657,6.315434 0,0 0.0251,0.06564 0.0705,0.08588 2.9863,4.161698 9.03265,6.586879 18.33591,7.200131 4.8868,5.390398 8.54473,9.144332 10.92352,11.130543 2.47446,2.137699 5.15624,3.932584 8.04537,5.384655 z"
     fill="url(#e)"
     id="path412"
     style="fill:url(#e);stroke-width:0.496934" />
  <path
     d="m 117.09438,49.126421 c -0.0907,-0.04049 -0.13614,-0.06073 -0.24715,-0.05584 -3.62707,-0.529744 -6.28641,-0.301308 -8.01855,0.776059 -1.49476,0.911196 -4.03466,2.335599 -7.6197,4.273217 -4.402625,2.062633 -8.729828,4.322147 -13.047245,6.803681 -7.094691,4.072107 -14.049022,8.805398 -20.777114,14.129331 -1.484967,1.133207 -2.944803,2.332053 -4.424881,3.576275 l -0.06564,0.02514 -0.04049,0.09077 c -0.06564,0.02513 -0.08588,0.07052 -0.131263,0.05028 -0.298108,0.302325 -0.555728,0.51389 -0.767961,0.745691 l -0.04538,-0.02025 c -0.580865,0.448261 -1.01512,0.689851 -1.252494,0.856031 -0.191996,0.186423 -0.318353,0.347711 -0.469852,0.443366 -1.464726,1.087832 -2.840039,3.195004 -4.121039,6.432513 -1.341738,3.373666 -1.56983,7.788254 -0.52789,13.259145 0.145262,0.77217 0.315655,1.60998 0.546787,2.31163 1.376326,4.47735 4.232724,7.71049 8.523827,9.67915 5.13312,2.3987 9.305448,2.68196 12.512091,0.73876 2.64602,-1.5403 5.48825,-2.6666 8.59721,-3.29301 2.910726,0.42785 6.151615,-0.73827 9.571165,-3.40269 0.191996,-0.18642 0.318355,-0.34771 0.399334,-0.52924 2.606034,-5.47593 5.199585,-9.216203 7.715025,-11.195657 L 126.34399,81.33017 c 0.19689,-0.07541 0.303,-0.191321 0.40912,-0.30722 1.3495,-1.683378 2.52303,-3.826136 3.49547,-6.493924 2.12707,-5.744022 2.69866,-10.440691 1.66936,-14.110265 -0.99368,-3.871355 -3.4521,-6.654874 -7.53165,-8.36591 -3.58033,-1.48834 -6.00584,-2.51595 -7.29191,-2.92642 z m -6.70514,3.320856 c 1.23714,-0.699632 3.21018,-0.853322 5.8535,-0.435943 1.28607,0.41047 3.57544,1.377336 6.97424,2.784706 l 0.0454,0.02025 c 3.08113,1.265645 5.00052,3.427811 5.77354,6.330099 l 0.0454,0.02025 c 0.76255,3.169704 0.23214,7.286187 -1.63664,12.329216 -0.76998,2.213958 -1.73617,4.013911 -2.80781,5.440338 l -22.76906,13.349569 c -0.0656,0.02512 -0.0859,0.07054 -0.15149,0.09566 -2.823341,2.059768 -5.694758,6.056983 -8.503246,11.986748 -2.646696,2.02973 -5.100058,2.8942 -7.249065,2.5885 -0.201776,-0.0357 -0.423795,-0.0258 -0.555048,0.0245 -3.593491,0.73676 -6.788998,1.92313 -9.758266,3.70013 -2.479169,1.28825 -5.738276,1.03148 -9.736837,-0.86109 -3.519594,-1.6245 -5.836972,-4.23628 -6.997518,-7.85557 -0.140366,-0.66117 -0.346357,-1.29722 -0.466477,-2.003765 -0.8562,-4.789462 -0.739791,-8.709732 0.399499,-11.629585 1.017814,-2.647527 2.140402,-4.432129 3.30702,-5.217636 0.02025,-0.04538 0.111015,-0.0049 0.151504,-0.09565 0.04539,0.02025 0.111016,-0.0049 0.156394,0.01535 0.151508,-0.09566 0.303003,-0.19132 0.429365,-0.352606 0.323244,-0.236695 0.580863,-0.44826 0.858725,-0.7052 0,0 0.02025,-0.04538 0.08588,-0.07053 0.08588,-0.07052 0.151504,-0.09565 0.237374,-0.16618 0.146607,-0.206659 0.490094,-0.488741 0.808448,-0.836451 1.459836,-1.198847 2.874285,-2.417929 4.359256,-3.551146 6.621976,-5.208031 13.404558,-9.800274 20.433624,-13.847251 4.206407,-2.476638 8.533607,-4.736151 12.850348,-6.728261 0.0454,0.02025 0.11102,-0.0049 0.13126,-0.05028 3.65068,-1.962758 6.19058,-3.38716 7.73073,-4.278111 z"
     fill="url(#d)"
     id="path414"
     style="fill:url(#d);stroke-width:0.496934" />
</svg>
