<?xml version="1.0" encoding="UTF-8" standalone="no"?>
<svg viewBox="0 0 744.09447 1052.362179" xmlns="http://www.w3.org/2000/svg" xmlns:xlink="http://www.w3.org/1999/xlink">
<defs>
<linearGradient id="linearGradient5258">
<stop offset="0"/>
<stop offset="1" stop-color="#fff"/>
</linearGradient>
<linearGradient id="linearGradient16145">
<stop offset="0" stop-color="#dda236"/>
<stop offset=".25" stop-color="#ffff7f"/>
<stop offset=".5" stop-color="#7f5824"/>
<stop offset="1" stop-color="#ffff95"/>
</linearGradient>
<linearGradient id="linearGradient12150">
<stop offset="0"/>
<stop offset="1" stop-opacity="0"/>
</linearGradient>
<linearGradient id="linearGradient11418">
<stop offset="0" stop-color="#f9dbb6"/>
<stop offset="1" stop-color="#ffe"/>
</linearGradient>
<linearGradient id="linearGradient3381">
<stop offset="0" stop-color="#ad6300"/>
<stop offset="1" stop-color="#ffff95"/>
</linearGradient>
<linearGradient gradientUnits="userSpaceOnUse" id="linearGradient19653" spreadMethod="reflect" x1="204.44858" x2="306.33536" xlink:href="#linearGradient16145"/>
<linearGradient gradientTransform="matrix(.50273,.13657,-6.403325e-2,.99134,498.4490,-413.5974)" gradientUnits="userSpaceOnUse" id="linearGradient19657" x1="263.94177" x2="258.53311" xlink:href="#linearGradient16145" y1="804.6463" y2="846.83374"/>
<linearGradient gradientUnits="userSpaceOnUse" id="linearGradient19659" x1="422.63581" x2="473.22157" xlink:href="#linearGradient16145" y1="1039.3077" y2="1039.3078"/>
<linearGradient gradientUnits="userSpaceOnUse" id="linearGradient19665" x1="465.7143" x2="506.42859" xlink:href="#linearGradient12150"/>
<linearGradient gradientUnits="userSpaceOnUse" id="linearGradient19667" x1="494.43507" x2="569.49781" xlink:href="#linearGradient16145"/>
<linearGradient gradientTransform="matrix(.99836,5.718832e-2,-7.100193e-2,1.23951,79.59129,-427.0900)" gradientUnits="userSpaceOnUse" id="linearGradient19669" x1="230.90526" x2="278.55945" xlink:href="#linearGradient16145"/>
<linearGradient gradientTransform="matrix(.99836,5.718832e-2,-7.100193e-2,1.23951,90.43434,-654.4314)" gradientUnits="userSpaceOnUse" id="linearGradient19671" x1="230.90526" x2="278.55945" xlink:href="#linearGradient16145"/>
<linearGradient gradientTransform="matrix(1.04287,2.466506e-2,-7.416720e-2,.5346,83.62952,-506.0473)" gradientUnits="userSpaceOnUse" id="linearGradient19673" x1="230.90526" x2="278.55945" xlink:href="#linearGradient16145"/>
<linearGradient gradientUnits="userSpaceOnUse" id="linearGradient19675" spreadMethod="reflect" x2="0" xlink:href="#linearGradient16145" y1="1172.3033" y2="1073.6851"/>
<linearGradient gradientUnits="userSpaceOnUse" id="linearGradient19677" x1="246.1835" x2="262.17575" xlink:href="#linearGradient3381"/>
<linearGradient gradientTransform="matrix(.99967,1.927836e-2,-3.288268e-2,.9997,-233.1444,1215.500)" gradientUnits="userSpaceOnUse" id="linearGradient19683" x1="443.85336" x2="468.0441" xlink:href="#linearGradient3381" y1="-164.13303" y2="-162.06752"/>
<linearGradient gradientTransform="matrix(-.70003,-5.108555e-2,-2.437422e-2,1.35649,664.4123,-1459.767)" gradientUnits="userSpaceOnUse" id="linearGradient19685" x1="263.94177" x2="258.53311" xlink:href="#linearGradient16145" y1="804.6463" y2="846.83374"/>
<linearGradient gradientTransform="matrix(.46053,-3.763550e-2,1.603510e-2,.99935,392.6998,264.8521)" gradientUnits="userSpaceOnUse" id="linearGradient19687" x1="263.94177" x2="258.53311" xlink:href="#linearGradient16145" y1="804.6463" y2="846.83374"/>
<linearGradient gradientTransform="matrix(.40377,-6.114241e-3,-3.653448e-2,.99847,262.1842,-1504.646)" gradientUnits="userSpaceOnUse" id="linearGradient19689" x1="263.94177" x2="258.53311" xlink:href="#linearGradient16145" y1="804.6463" y2="846.83374"/>
<linearGradient gradientTransform="matrix(-1.33869,-3.763550e-2,-4.661188e-2,.99935,869.2900,-275.4255)" gradientUnits="userSpaceOnUse" id="linearGradient19691" x1="263.94177" x2="258.53311" xlink:href="#linearGradient16145" y1="804.6463" y2="846.83374"/>
<linearGradient gradientTransform="matrix(-.46053,-3.763550e-2,-1.603510e-2,.99935,591.0311,-416.0502)" gradientUnits="userSpaceOnUse" id="linearGradient19693" x1="263.94177" x2="258.53311" xlink:href="#linearGradient16145" y1="804.6463" y2="846.83374"/>
<linearGradient gradientTransform="matrix(-1.31835,-.19471,-.2416,.98232,1030.124,76.84411)" gradientUnits="userSpaceOnUse" id="linearGradient19695" x1="263.94177" x2="258.53311" xlink:href="#linearGradient16145" y1="804.6463" y2="846.83374"/>
<linearGradient gradientTransform="matrix(-1.21894,-3.763550e-2,-4.244232e-2,.99935,835.3037,-151.7426)" gradientUnits="userSpaceOnUse" id="linearGradient19697" x1="263.94177" x2="258.53311" xlink:href="#linearGradient16145" y1="804.6463" y2="846.83374"/>
<linearGradient gradientTransform="matrix(-1.03932,-3.763550e-2,-3.618798e-2,.99935,777.0779,-562.9363)" gradientUnits="userSpaceOnUse" id="linearGradient19699" x1="263.94177" x2="258.53311" xlink:href="#linearGradient16145" y1="804.6463" y2="846.83374"/>
<linearGradient gradientUnits="userSpaceOnUse" id="linearGradient19701" x1="259.29379" x2="253.88513" xlink:href="#linearGradient16145" y1="1126.1204" y2="1168.30784"/>
<linearGradient gradientTransform="matrix(.99967,1.927836e-2,-3.288268e-2,.9997,-204.5610,788.7049)" gradientUnits="userSpaceOnUse" id="linearGradient19703" x1="443.85336" x2="468.0441" xlink:href="#linearGradient3381" y1="-164.13303" y2="-162.06752"/>
<linearGradient gradientTransform="matrix(.74,0,0,1,81.82543,-92.13958)" gradientUnits="userSpaceOnUse" id="linearGradient19705" x1="263.94177" x2="258.53311" xlink:href="#linearGradient16145" y1="804.6463" y2="846.83374"/>
<linearGradient gradientTransform="matrix(.99967,1.927836e-2,-3.288268e-2,.9997,-221.7111,884.7451)" gradientUnits="userSpaceOnUse" id="linearGradient19709" x1="443.85336" x2="468.0441" xlink:href="#linearGradient3381" y1="-164.13303" y2="-162.06752"/>
<linearGradient gradientTransform="matrix(.99967,1.927836e-2,-3.288268e-2,.9997,122.4175,682.9301)" gradientUnits="userSpaceOnUse" id="linearGradient19711" x1="400.85571" x2="419.93304" xlink:href="#linearGradient3381" y1="-115.26937" y2="-115.39263"/>
<linearGradient gradientTransform="matrix(.99885,3.854270e-2,-6.574138e-2,.99853,95.75546,667.7832)" gradientUnits="userSpaceOnUse" id="linearGradient19713" x1="415.47885" x2="437.22382" xlink:href="#linearGradient3381" y1="-110.40659" y2="-111.90128"/>
<linearGradient gradientUnits="userSpaceOnUse" id="linearGradient19715" x1="263.94177" x2="258.53311" xlink:href="#linearGradient16145" y1="804.6463" y2="846.83374"/>
<linearGradient gradientUnits="userSpaceOnUse" id="linearGradient19717" x1="264.70246" x2="259.2938" xlink:href="#linearGradient16145" y1="863.94873" y2="906.13617"/>
<linearGradient gradientTransform="matrix(-1.21894,-3.763550e-2,-4.244232e-2,.99935,833.1403,-712.7091)" gradientUnits="userSpaceOnUse" id="linearGradient19719" x1="263.94177" x2="258.53311" xlink:href="#linearGradient16145" y1="804.6463" y2="846.83374"/>
<linearGradient gradientUnits="userSpaceOnUse" id="linearGradient19721" x1="1750.4321" x2="2215.5183" xlink:href="#linearGradient16145" y1="537.52564" y2="573.9499"/>
<linearGradient gradientUnits="userSpaceOnUse" id="linearGradient19725" spreadMethod="reflect" x1="1829.7876" x2="1492.1189" xlink:href="#linearGradient16145" y1="626.7963" y2="618.39066"/>
<linearGradient gradientUnits="userSpaceOnUse" id="linearGradient19733" x1="428.47144" x2="508.67145" xlink:href="#linearGradient3381"/>
<linearGradient gradientUnits="userSpaceOnUse" id="linearGradient19735" x1="499.38616" x2="572.794" xlink:href="#linearGradient16145"/>
<linearGradient gradientUnits="userSpaceOnUse" id="linearGradient19737" x1="476.84155" x2="550.24939" xlink:href="#linearGradient16145"/>
<linearGradient gradientUnits="userSpaceOnUse" id="linearGradient19739" spreadMethod="reflect" x1="414.6945" x2="414.89239" xlink:href="#linearGradient3381" y1="-226.0082" y2="-186.0082"/>
<linearGradient gradientTransform="matrix(.99967,1.927836e-2,-3.288268e-2,.9997,101.1396,685.1717)" gradientUnits="userSpaceOnUse" id="linearGradient19757" x1="393.96017" x2="413.80722" xlink:href="#linearGradient3381" y1="-116.28008" y2="-116.41817"/>
<linearGradient gradientTransform="matrix(1.04186,0,0,1.32545,-55.48385,1030.983)" gradientUnits="userSpaceOnUse" id="linearGradient19761" x1="437.52893" x2="505.2435" xlink:href="#linearGradient3381" y1="-194.24178" y2="-194.78067"/>
<linearGradient gradientTransform="matrix(1.04186,0,0,1.32545,-83.74890,1030.304)" gradientUnits="userSpaceOnUse" id="linearGradient19763" spreadMethod="reflect" x1="446.41376" x2="446.62088" xlink:href="#linearGradient3381" y1="-222.63837" y2="-182.63837"/>
<linearGradient gradientTransform="matrix(1.46706,-.1401,.12601,1.31944,-134.9918,1099.272)" gradientUnits="userSpaceOnUse" id="linearGradient19765" x1="415.60947" x2="415.81427" xlink:href="#linearGradient3381" y1="-203.19214" y2="-210.96667"/>
<linearGradient gradientUnits="userSpaceOnUse" id="linearGradient19767" x1="402.17559" x2="502.55074" xlink:href="#linearGradient3381"/>
<linearGradient gradientUnits="userSpaceOnUse" id="linearGradient19769" x1="380.7142" x2="436.10355" xlink:href="#linearGradient3381"/>
<linearGradient gradientUnits="userSpaceOnUse" id="linearGradient19793" spreadMethod="reflect" x1="413.33473" x2="413.53262" xlink:href="#linearGradient3381" y1="-109.11017" y2="-69.11017"/>
<linearGradient gradientUnits="userSpaceOnUse" id="linearGradient19811" spreadMethod="reflect" x1="416.19187" x2="416.38976" xlink:href="#linearGradient3381" y1="25.17553" y2="65.17553"/>
<linearGradient gradientUnits="userSpaceOnUse" id="linearGradient19817" spreadMethod="reflect" x1="411.90616" x2="412.10405" xlink:href="#linearGradient3381" y1="142.488" y2="184.26292"/>
<linearGradient gradientUnits="userSpaceOnUse" id="linearGradient19821" x1="436.84335" x2="508.67145" xlink:href="#linearGradient3381"/>
<linearGradient gradientTransform="matrix(1.04186,0,0,1.32545,-76.72951,850.9889)" gradientUnits="userSpaceOnUse" id="linearGradient19823" spreadMethod="reflect" x1="446.41376" x2="446.62088" xlink:href="#linearGradient3381" y1="-222.63837" y2="-182.63837"/>
<linearGradient gradientTransform="matrix(1.46706,-.1401,.12601,1.31944,-127.9724,919.9572)" gradientUnits="userSpaceOnUse" id="linearGradient19825" x1="415.60947" x2="415.81427" xlink:href="#linearGradient3381" y1="-203.19214" y2="-210.96667"/>
<linearGradient gradientUnits="userSpaceOnUse" id="linearGradient19827" x1="409.19498" x2="502.59879" xlink:href="#linearGradient3381"/>
<linearGradient gradientUnits="userSpaceOnUse" id="linearGradient19829" x1="373.56989" x2="414.14291" xlink:href="#linearGradient11418"/>
<linearGradient gradientUnits="userSpaceOnUse" id="linearGradient19831" x1="387.41623" x2="436.53956" xlink:href="#linearGradient3381" y1="575.80631" y2="592.95994"/>
<linearGradient gradientUnits="userSpaceOnUse" id="linearGradient19839" x1="412.41622" x2="467.80557" xlink:href="#linearGradient3381"/>
<linearGradient gradientUnits="userSpaceOnUse" id="linearGradient19841" x1="417.42588" x2="472.81523" xlink:href="#linearGradient3381"/>
<linearGradient gradientTransform="matrix(.99967,1.927836e-2,-3.288268e-2,.9997,45.82928,1168.059)" gradientUnits="userSpaceOnUse" id="linearGradient19843" x1="443.85336" x2="468.0441" xlink:href="#linearGradient3381" y1="-164.13303" y2="-162.06752"/>
<linearGradient gradientUnits="userSpaceOnUse" id="linearGradient19857" x1="361.37427" x2="436.10355" xlink:href="#linearGradient3381" y1="760.57849" y2="773.09448"/>
<linearGradient gradientTransform="matrix(.99885,3.854270e-2,-6.574146e-2,.99853,89.55037,670.2794)" gradientUnits="userSpaceOnUse" id="linearGradient19859" x1="348.0726" x2="373.5954" xlink:href="#linearGradient3381" y1="-256.35992" y2="-257.87698"/>
<linearGradient gradientTransform="matrix(.8552,0,0,1.24273,34.75313,704.2261)" gradientUnits="userSpaceOnUse" id="linearGradient19863" x1="437.52893" x2="505.2435" xlink:href="#linearGradient3381" y1="-194.24178" y2="-194.78067"/>
<linearGradient gradientTransform="matrix(.8552,0,0,1.24273,6.50112,703.5894)" gradientUnits="userSpaceOnUse" id="linearGradient19865" spreadMethod="reflect" x1="446.41376" x2="446.62088" xlink:href="#linearGradient3381" y1="-222.63837" y2="-182.63837"/>
<linearGradient gradientUnits="userSpaceOnUse" id="linearGradient19867" x1="387.7538" x2="433.21992" xlink:href="#linearGradient3381"/>
<linearGradient gradientTransform="matrix(1.21005,-5.652777e-2,2.661878e-2,1.24113,-30.39192,736.3775)" gradientUnits="userSpaceOnUse" id="linearGradient19869" x1="415.60947" x2="415.81427" xlink:href="#linearGradient3381" y1="-203.19214" y2="-210.96667"/>
<linearGradient gradientTransform="matrix(.81927,5.083580e-2,-5.806587e-2,.93579,127.8702,-118.0036)" gradientUnits="userSpaceOnUse" id="linearGradient19871" x1="409.19498" x2="509.57013" xlink:href="#linearGradient3381"/>
<linearGradient gradientUnits="userSpaceOnUse" id="linearGradient19882" x2="0" xlink:href="#linearGradient16145" y1="-538.00833" y2="-484.43273"/>
<linearGradient gradientUnits="userSpaceOnUse" id="linearGradient19894" x1="367.78949" x2="440.66141" xlink:href="#linearGradient3381" y1="1170.2682" y2="1275.5591"/>
<linearGradient gradientUnits="userSpaceOnUse" id="linearGradient19898" x1="565.58398" x2="667.617" xlink:href="#linearGradient3381" y1="730.5603" y2="710.04358"/>
<linearGradient gradientTransform="matrix(.99985,-4.675669e-19,-1.870299e-17,1.00024,-12.70265,-8.61863)" gradientUnits="userSpaceOnUse" id="linearGradient19902" x1="385.64334" x2="398.32898" xlink:href="#linearGradient3381"/>
<linearGradient gradientTransform="matrix(1.11673,0,0,1,-53.20738,-4.107825e-14)" gradientUnits="userSpaceOnUse" id="linearGradient19904" x1="415.60947" x2="415.81427" xlink:href="#linearGradient3381" y1="-203.19214" y2="-210.96667"/>
<linearGradient gradientTransform="matrix(1.10026,0,0,1,-47.63159,116.8980)" gradientUnits="userSpaceOnUse" id="linearGradient19906" x1="415.60947" x2="415.81427" xlink:href="#linearGradient3381" y1="-203.19214" y2="-210.96667"/>
<linearGradient gradientUnits="userSpaceOnUse" id="linearGradient19908" x1="413.74327" x2="413.95769" xlink:href="#linearGradient3381" y1="59.45125" y2="44.4061"/>
<linearGradient gradientUnits="userSpaceOnUse" id="linearGradient19910" x1="414.8628" x2="413.67779" xlink:href="#linearGradient3381" y1="181.15673" y2="168.64074"/>
<linearGradient gradientUnits="userSpaceOnUse" id="linearGradient19916" x1="412.28244" x2="411.6489" xlink:href="#linearGradient3381" y1="1.02326" y2="-10.40369"/>
<linearGradient gradientUnits="userSpaceOnUse" id="linearGradient19926" x1="490.86843" x2="641.01943" xlink:href="#linearGradient3381" y1="892.28264" y2="959.78929"/>
<linearGradient gradientUnits="userSpaceOnUse" id="linearGradient19930" x1="545.49178" x2="585.02584" xlink:href="#linearGradient3381" y1="655.34107" y2="629.33552"/>
<linearGradient gradientTransform="matrix(-2.02581,-1.93716,3.3883,-1.18355,1884.512,1740.638)" gradientUnits="userSpaceOnUse" id="linearGradient19932" x1="415.60947" x2="415.81427" xlink:href="#linearGradient3381" y1="-203.19214" y2="-210.96667"/>
<linearGradient gradientUnits="userSpaceOnUse" id="linearGradient19934" spreadMethod="reflect" x1="314.59375" x2="516.3125" xlink:href="#linearGradient3381"/>
<linearGradient gradientTransform="matrix(-.84343,-1.42618,1.26236,-1.1458,60.76271,2656.235)" gradientUnits="userSpaceOnUse" id="linearGradient19942" spreadMethod="reflect" x1="399.64923" x2="436.10355" xlink:href="#linearGradient3381" y1="764.97327" y2="773.09448"/>
<linearGradient gradientTransform="matrix(-.78208,-1.39952,1.30808,-.85507,1183.059,1541.386)" gradientUnits="userSpaceOnUse" id="linearGradient19946" x1="455.71634" x2="435.06021" xlink:href="#linearGradient3381" y1="-189.13638" y2="-220.96082"/>
<linearGradient gradientTransform="matrix(-.43445,-1.00667,1.03288,-.55192,177.2583,1920.298)" gradientUnits="userSpaceOnUse" id="linearGradient19948" x1="409.19498" x2="509.57013" xlink:href="#linearGradient3381"/>
<linearGradient gradientTransform="matrix(.99985,2.894655e-18,-1.028485e-17,1.00024,-70.24829,93.09223)" gradientUnits="userSpaceOnUse" id="linearGradient19952" x1="385.64334" x2="398.32898" xlink:href="#linearGradient3381"/>
<linearGradient gradientTransform="matrix(.99985,2.894655e-18,-1.028485e-17,1.00024,-81.84616,2.64101)" gradientUnits="userSpaceOnUse" id="linearGradient19956" x1="385.64334" x2="398.32898" xlink:href="#linearGradient3381"/>
<linearGradient gradientTransform="matrix(.99985,2.894655e-18,-1.028485e-17,1.00024,-91.56035,-117.9468)" gradientUnits="userSpaceOnUse" id="linearGradient19962" x1="385.77298" x2="389.61731" xlink:href="#linearGradient3381" y1="-111.54749" y2="-111.50671"/>
<linearGradient gradientTransform="matrix(.99985,2.894655e-18,-1.028485e-17,1.00024,-43.74251,112.3911)" gradientUnits="userSpaceOnUse" id="linearGradient19964" x1="385.64334" x2="398.32898" xlink:href="#linearGradient3381"/>
<linearGradient gradientUnits="userSpaceOnUse" id="linearGradient19980" x2="0" xlink:href="#linearGradient16145" y1="-1027.66908" y2="-987.57072"/>
<linearGradient gradientUnits="userSpaceOnUse" id="linearGradient19982" x1="230.90526" x2="278.55945" xlink:href="#linearGradient16145"/>
<linearGradient gradientUnits="userSpaceOnUse" id="linearGradient19984" x1="229.25439" x2="296.95032" xlink:href="#linearGradient16145"/>
<linearGradient gradientUnits="userSpaceOnUse" id="linearGradient19986" x1="230.25658" x2="297.95251" xlink:href="#linearGradient16145"/>
<linearGradient gradientUnits="userSpaceOnUse" id="linearGradient19988" x1="221.81448" x2="321.19116" xlink:href="#linearGradient16145"/>
<linearGradient gradientUnits="userSpaceOnUse" id="linearGradient19990" spreadMethod="reflect" x1="281.18912" x2="278.82733" xlink:href="#linearGradient5258" y1="934.10962" y2="953.91034"/>
<linearGradient gradientUnits="userSpaceOnUse" id="linearGradient19996" x1="533.96521" x2="573.49927" xlink:href="#linearGradient3381" y1="867.29327" y2="841.28772"/>
<linearGradient gradientTransform="matrix(.99967,1.927836e-2,-3.288268e-2,.9997,136.5829,424.4951)" gradientUnits="userSpaceOnUse" id="linearGradient19998" x1="348.0726" x2="373.5954" xlink:href="#linearGradient3381" y1="-256.35992" y2="-257.87698"/>
<linearGradient gradientUnits="userSpaceOnUse" id="linearGradient20018" spreadMethod="reflect" x1="288.00369" x2="361.29382" xlink:href="#linearGradient16145" y1="792.41925" y2="649.90295"/>
<linearGradient gradientUnits="userSpaceOnUse" id="linearGradient20028" x1="248.03334" x2="517.28009" xlink:href="#linearGradient16145" y1="-674.08063" y2="-678.97601"/>
<linearGradient gradientUnits="userSpaceOnUse" id="linearGradient20030" x1="472.30386" x2="508.40701" xlink:href="#linearGradient16145"/>
<linearGradient gradientUnits="userSpaceOnUse" id="linearGradient20032" x1="472.30386" x2="508.40701" xlink:href="#linearGradient3381"/>
<linearGradient gradientTransform="matrix(.99977,-2.129439e-2,2.129439e-2,.99977,22.68857,1.55367)" gradientUnits="userSpaceOnUse" id="linearGradient20034" x1="26.25605" x2="74.63651" xlink:href="#linearGradient5258" y1="-961.25214" y2="-1048.8905"/>
<radialGradient cx="92.28125" cy="336.23438" gradientTransform="matrix(1.74745,.69118,-.45536,1.08871,510.0297,-5.20395)" gradientUnits="userSpaceOnUse" id="radialGradient19655" r="54.65625" xlink:href="#linearGradient16145"/>
<radialGradient cx="486.07144" cy="-246.56639" gradientTransform="matrix(.65714,.525,-.5277,.61778,36.53953,-349.4293)" gradientUnits="userSpaceOnUse" id="radialGradient19661" r="20.35714" spreadMethod="reflect" xlink:href="#linearGradient3381"/>
<radialGradient cx="486.07144" cy="-246.56639" gradientTransform="matrix(.65714,.525,-.5277,.61778,36.53953,-349.4293)" gradientUnits="userSpaceOnUse" id="radialGradient19663" r="20.35714" spreadMethod="reflect" xlink:href="#linearGradient11418"/>
<radialGradient cx="403.40323" cy="-569.49646" gradientTransform="matrix(1,-8.348012e-6,1.137094e-5,.95835,7.582630e-3,-23.71319)" gradientUnits="userSpaceOnUse" id="radialGradient19707" r="15.22276" spreadMethod="reflect" xlink:href="#linearGradient3381"/>
<radialGradient cx="2131.998" cy="880.32874" gradientTransform="matrix(-.35027,1.88693,-1.22062,-.22658,3630.260,-2904.619)" gradientUnits="userSpaceOnUse" id="radialGradient19723" r="249.89719" spreadMethod="reflect" xlink:href="#linearGradient16145"/>
<radialGradient cx="2006.9415" cy="434.90225" gradientTransform="matrix(-.67384,1.6953,-4.12379,-1.63906,5243.752,-2583.482)" gradientUnits="userSpaceOnUse" id="radialGradient19727" r="211.52873" xlink:href="#linearGradient12150"/>
<radialGradient cx="936.72119" cy="650.69403" gradientTransform="matrix(-3.33467,-4.19728,2.33337,2.12544,2571.796,3087.984)" gradientUnits="userSpaceOnUse" id="radialGradient19729" r="250.51784" xlink:href="#linearGradient3381"/>
<radialGradient cx="457.39474" cy="-194.7695" gradientTransform="matrix(.68295,1.195075e-7,-2.096167e-7,1.0714,149.4636,13.89494)" gradientUnits="userSpaceOnUse" id="radialGradient19731" r="40.1" spreadMethod="reflect" xlink:href="#linearGradient3381"/>
<radialGradient cx="403.40323" cy="-569.49646" gradientTransform="matrix(1.162568e-5,-.5,.49604,1.153353e-5,685.8897,-367.7881)" gradientUnits="userSpaceOnUse" id="radialGradient19753" r="15.22276" spreadMethod="reflect" xlink:href="#linearGradient3381"/>
<radialGradient cx="457.39474" cy="-194.7695" gradientTransform="matrix(.71154,1.584007e-7,-2.183908e-7,1.42008,100.2360,1049.400)" gradientUnits="userSpaceOnUse" id="radialGradient19759" r="40.1" spreadMethod="reflect" xlink:href="#linearGradient3381"/>
<radialGradient cx="457.39474" cy="-194.7695" gradientTransform="matrix(.58407,1.485149e-7,-1.792652e-7,1.33145,162.5752,721.4936)" gradientUnits="userSpaceOnUse" id="radialGradient19861" r="40.1" spreadMethod="reflect" xlink:href="#linearGradient3381"/>
<radialGradient cx="416.16745" cy="1254.2538" gradientTransform="matrix(1.13354,-.83177,1.82705,2.48992,-2340.077,-1510.159)" gradientUnits="userSpaceOnUse" id="radialGradient19892" r="78.31094" xlink:href="#linearGradient3381"/>
<radialGradient cx="631.53906" cy="719.79608" gradientTransform="matrix(.42104,-.11381,.15174,.56135,256.4156,387.6130)" gradientUnits="userSpaceOnUse" id="radialGradient19896" r="85.689" spreadMethod="reflect" xlink:href="#linearGradient3381"/>
<radialGradient cx="430.67737" cy="-462.93713" gradientTransform="matrix(1.78571,1.193801e-5,-1.346032e-5,1.68021,-338.3956,314.8889)" gradientUnits="userSpaceOnUse" id="radialGradient19900" r="36.15406" xlink:href="#linearGradient16145"/>
<radialGradient cx="403.40323" cy="-569.49646" gradientTransform="matrix(-.99999,-5.613424e-6,5.379611e-6,-.95835,806.8075,-1115.268)" gradientUnits="userSpaceOnUse" id="radialGradient19912" r="15.22276" spreadMethod="reflect" xlink:href="#linearGradient3381"/>
<radialGradient cx="631.53906" cy="719.79608" gradientTransform="matrix(.30725,.39001,-.35932,.28896,679.2897,472.0716)" gradientUnits="userSpaceOnUse" id="radialGradient19924" r="85.689" spreadMethod="reflect" xlink:href="#linearGradient3381"/>
<radialGradient cx="750.71338" cy="824.15833" gradientTransform="matrix(-.90534,-1.10722,.99999,-.81767,603.8442,2350.630)" gradientUnits="userSpaceOnUse" id="radialGradient19928" r="78.97514" spreadMethod="reflect" xlink:href="#linearGradient3381"/>
<radialGradient cx="403.40326" cy="1302.9036" gradientTransform="matrix(.64,-1.434940e-6,1.390098e-6,.62,145.2234,495.1040)" gradientUnits="userSpaceOnUse" id="radialGradient19936" r="31.71409" spreadMethod="reflect" xlink:href="#linearGradient3381"/>
<radialGradient cx="578.41772" cy="1168.1326" gradientTransform="matrix(1.34356,-.15858,.12467,1.22649,-344.3462,-172.3255)" gradientUnits="userSpaceOnUse" id="radialGradient19944" r="57.08537" spreadMethod="reflect" xlink:href="#linearGradient3381"/>
<radialGradient cx="403.40323" cy="-569.49646" gradientTransform="matrix(1.00002,-1.573140e-5,1.882490e-5,.95835,4.184200e-3,-23.71408)" gradientUnits="userSpaceOnUse" id="radialGradient19958" r="15.22276" spreadMethod="reflect" xlink:href="#linearGradient3381"/>
<radialGradient cx="403.40323" cy="-569.49646" gradientTransform="matrix(.5,-1.175852e-5,2.253716e-5,.95833,201.7144,-23.72429)" gradientUnits="userSpaceOnUse" id="radialGradient19966" r="15.22276" spreadMethod="reflect" xlink:href="#linearGradient3381"/>
<radialGradient cx="403.40323" cy="-569.49646" gradientTransform="matrix(1.098274e-5,-.95835,1,7.902429e-6,972.8934,-182.8883)" gradientUnits="userSpaceOnUse" id="radialGradient19968" r="15.22276" spreadMethod="reflect" xlink:href="#linearGradient3381"/>
<radialGradient cx="403.40323" cy="-569.49646" gradientTransform="matrix(9.837803e-6,-1.37414,1,1.131018e-6,972.8939,-15.16448)" gradientUnits="userSpaceOnUse" id="radialGradient19970" r="15.22276" spreadMethod="reflect" xlink:href="#linearGradient3381"/>
<radialGradient cx="403.40323" cy="-569.49646" gradientTransform="matrix(1,-1.153353e-5,1.414581e-5,.95833,6.702636e-3,-23.72438)" gradientUnits="userSpaceOnUse" id="radialGradient19974" r="15.22276" spreadMethod="reflect" xlink:href="#linearGradient3381"/>
<radialGradient cx="461.21298" cy="-508.76062" gradientTransform="matrix(3.14504,3.142431e-5,-6.041571e-5,6.09504,-989.3533,2592.141)" gradientUnits="userSpaceOnUse" id="radialGradient19976" r="9.30673" xlink:href="#linearGradient16145"/>
<radialGradient cx="376.32468" cy="-879.94006" gradientTransform="matrix(-1.02327,-.13808,.26984,-1.99961,998.8486,-2589.802)" gradientUnits="userSpaceOnUse" id="radialGradient19978" r="127.9643" xlink:href="#linearGradient16145"/>
<radialGradient cx="403.40323" cy="-569.49646" gradientTransform="matrix(3.18502,9.507223e-5,-3.930958e-6,1.75163,-881.4468,428.0103)" gradientUnits="userSpaceOnUse" id="radialGradient20014" r="15.22276" spreadMethod="reflect" xlink:href="#linearGradient3381"/>
<radialGradient cx="25.48187" cy="-1006.3638" gradientTransform="matrix(.50168,-1.41927,.86447,.30557,870.4055,-676.9546)" gradientUnits="userSpaceOnUse" id="radialGradient20036" r="44.35273" xlink:href="#linearGradient5258"/>
</defs>
<path d="m436.42856,751.29077z" fill="#f00"/>
<g transform="matrix(.35,0,0,.35,217.6736,501.3345)">
<path d="m304.4411,1039.9309c-75.82804-6.5306-63.37023,26.3646-66.26347,89.1075-.91497,19.8421 3.07753,53.0225 23.95243,58.0707 40.06788,9.6898 39.98818,18.1069 44.20531,25.3259l-54.61307-1.2554c-4.6041-.1059-20.26713,3.6451-20.03923-22.8478l.35317-41.0544 .35316-41.0544c.16539-19.2263-33.98411-61.1601-26.99847-84.9778 4.56146-15.5523 29.4189-116.1291 33.27383-116.1291 30.83943,0-84.11511,128.1648 65.77634,134.8148z" fill="url(#linearGradient19653)"/>
<path d="m530.52908,385.75921c-23.60777-7.49772-48.29619,3.84879-55.11255,25.31118s6.80791,44.95308 30.41569,52.4508 48.28934-3.82722 55.10569-25.28958-6.80104-44.97466-30.40883-52.4724zm-3.7083,11.67617c16.52546,5.24841 26.07749,21.70381 21.30604,36.72748s-22.06771,22.95216-38.59316,17.70375-26.05303-21.69605-21.28158-36.71971 22.04325-22.95993 38.5687-17.71152z" fill="url(#radialGradient19655)"/>
<path d="m566.13935,431.74278 26.31119,3.87408-.96973,15.01306-26.98324-10.60373 1.64178-8.28341z" fill="url(#linearGradient19657)"/>
<path d="m457.71947,1014.8307a15.50209,22.84595 0 0,1 15.50209,22.84595v3.26205a15.50209,22.84595 0 0,1 -15.50209,22.84595 15.50209,22.84595 0 0,1 -15.50209-22.84595v-3.26205a15.50209,22.84595 0 0,1 15.50209-22.84595" fill="url(#linearGradient19659)"/>
<path d="m506.42859-246.56639a20.35714,22.5 0 1,1 -40.71429,0 20.35714,22.5 0 1,1 40.71429,0z" fill="url(#radialGradient19661)" transform="matrix(.44305,.14624,-.39803,1.20585,230.06421,278.50247)"/>
<path d="m506.42859-246.56639a20.35714,22.5 0 1,1 -40.71429,0 20.35714,22.5 0 1,1 40.71429,0z" fill="url(#radialGradient19663)" stroke="url(#linearGradient19665)" stroke-linejoin="round" stroke-width="2.2988" transform="matrix(.3671,.12117,-.34828,1.05512,279.46722,253.91284)"/>
<path d="m569.4977,69.2036c0,26.57221-10.44402,48.13805-30.90819,56.29705-10.32093,4.11492 25.35642-35.74179 8.4493-39.57474-23.17659-5.25427-52.60385-23.01779-52.60385-36.3039 0-26.5722 16.3313,17.13389 38.26727,17.13389s36.79547-24.12451 36.79547,2.44769z" fill="url(#linearGradient19667)"/>
<path d="m304.1886,193.38574c-2.12032,22.46722-3.37702,35.09141-18.72292,34.21236s-10.36917-23.31495-9.65184-35.83772c5.5222-96.40363 8.82732-130.23983 24.17321-129.36078 3.83647.21976 30.72588-12.48451 30.81425-4.0659l-.69511,7.65114c-30.96778,2.91369-33.69832,36.73314-18.39579,47.6991l-7.5218,79.70181z" fill="url(#linearGradient19669)"/>
<path d="m315.03165-33.95561c-2.12032,22.46722-3.37702,35.09141-18.72292,34.21236s-10.36917-23.31495-9.65184-35.83772c5.5222-96.40363 8.82732-130.23983 24.17321-129.36078 3.83647.21976 30.72588-12.48452 30.81425-4.0659l-.69511,7.65113c-30.96778,2.9137-33.69832,36.73314-18.39579,47.6991l-7.5218,79.70181z" fill="url(#linearGradient19671)"/>
<path d="m318.2394-238.43901c-2.21484,9.69001 2.12206,15.13476-13.90796,14.75563s-16.48106-10.05563-15.73175-15.45664c5.76838-41.57844 9.22085-56.17184 25.25086-55.79271 4.0075.09479 32.09564-5.38451 32.18795-1.7536l-.7261,3.2999c-32.34833,1.25666-35.20059,15.84283-19.21587,20.5724l-7.85713,34.37502z" fill="url(#linearGradient19673)"/>
<g transform="matrix(.86666,0,0,1,37.37053,-149.0395)">
<path d="m243.88065,1075.0177 37.31507-1.3327 9.32877,90.6223h-46.64384v-89.2896z" fill="url(#linearGradient19675)"/>
<path d="m255.44911,1069.4435h7e-005c4.42983,0 9.16577,3.7258 7.99609,7.9961-7.09311,25.896-2.09605,60.0943 1.87611,84.0258 .72498,4.3679-6.71197,6.7583-11.1418,6.7583l1.88311-.0106c-4.42983,0-6.04737-2.3736-6.73355-6.7477-3.56055-22.6972-6.69212-60.0448-1.87611-84.0258 .87178-4.341 3.56625-7.9961 7.99608-7.9961z" fill="url(#linearGradient19677)" transform="rotate(.32283)"/>
</g>
<g transform="translate(.62774,-1.25547)">
<path d="m243.88065,1075.0177 37.31507-1.3327 9.32877,90.6223h-46.64384v-89.2896z" fill="url(#linearGradient19675)"/>
<path d="m255.44911,1069.4435h7e-005c4.42983,0 9.16577,3.7258 7.99609,7.9961-7.09311,25.896-2.09605,60.0943 1.87611,84.0258 .72498,4.3679-6.71197,6.7583-11.1418,6.7583l1.88311-.0106c-4.42983,0-6.04737-2.3736-6.73355-6.7477-3.56055-22.6972-6.69212-60.0448-1.87611-84.0258 .87178-4.341 3.56625-7.9961 7.99608-7.9961z" fill="url(#linearGradient19677)" transform="rotate(.32283)"/>
</g>
<path d="m226.2478,887.75487 12.68141.24455-8.8431,264.70938-12.68141-.2445 8.8431-264.70943z" fill="url(#linearGradient19683)"/>
<path d="m477.0806-359.94409-36.26842-7.05458-.36913,20.54293 37.9411-1.63903-1.30355-11.84932z" fill="url(#linearGradient19685)"/>
<path d="m515.9399,1075.1084 23.85995-5.1972 .24284,15.1343-24.96036-1.2075 .85757-8.7296z" fill="url(#linearGradient19687)"/>
<path d="m328.76016-687.57507 21.08362-3.55769-.55328,15.12097-21.72005-2.90952 1.18971-8.65376z" fill="url(#linearGradient19689)"/>
<path d="m511.04748,534.83088-69.35767-5.19722-.7059,15.13429 72.55642-1.2075-2.49285-8.72957z" fill="url(#linearGradient19691)"/>
<path d="m467.79103,394.20616-23.85995-5.19722-.24284,15.13429 24.96036-1.2075-.85757-8.72957z" fill="url(#linearGradient19693)"/>
<path d="m516.89841,835.59264-67.66853-13.29753-3.65879,14.87643 72.0888,7.34315-.76148-8.92205z" fill="url(#linearGradient19695)"/>
<path d="m509.10702,658.51364-63.15343-5.19722-.64276,15.13429 66.06605-1.2075-2.26986-8.72957z" fill="url(#linearGradient19697)"/>
<path d="m498.94979,247.32001-53.84708-5.19722-.54804,15.13429 56.33049-1.2075-1.93537-8.72957z" fill="url(#linearGradient19699)"/>
<path d="m230.08713,1140.1829 54.08643-22.7163 3.24519,20.5529-55.16816,11.899-2.16346-9.7356z" fill="url(#linearGradient19701)"/>
<path d="m267.40785,335.19285 12.68141.24455-21.41978,390.47622-12.68141-.2445 21.41978-390.47627z" fill="url(#linearGradient19703)"/>
<path d="m258.73131,727.65096 38.423-3.24519v15.1442l-40.02396-3.24519 1.60096-8.65382z" fill="url(#linearGradient19705)"/>
<path d="m418.62599-569.49646a15.22276,14.58848 0 1,1 -30.44553,0 15.22276,14.58848 0 1,1 30.44553,0z" fill="url(#radialGradient19707)" transform="matrix(.75159,0,0,.77797,-50.39084,1172.865)"/>
<path d="m242.25449,543.27981 12.68141.24455-13.41644,278.4294-12.68141-.2445 13.41644-278.42945z" fill="url(#linearGradient19709)"/>
<path d="m526.92968,112.79774 12.68142.24456 6.02026,798.64687-12.68142-.24456-6.02026-798.64687z" fill="url(#linearGradient19711)"/>
<path d="m518.93547,105.75833 12.67102.48894-.92236,692.5565-12.67101-.4889 .92235-692.55654z" fill="url(#linearGradient19713)"/>
<path d="m239.06202,819.79054 51.92298-3.24519v15.1442l-54.08643-3.24519 2.16345-8.65382z" fill="url(#linearGradient19715)"/>
<path d="m235.49577,878.01124 55.16816-8.65383 1.08173,21.63457-54.08643-3.24519-2.16346-9.73555z" fill="url(#linearGradient19717)"/>
<path d="m506.94356,97.54717-63.15343-5.19722-.64276,15.13429 66.06605-1.2075-2.26986-8.72957z" fill="url(#linearGradient19719)"/>
<g transform="translate(-1315.169,100.2141)">
<path d="m1759.5325-775.72798 4.2857,1684.28565c.0946,37.1939-8.8948,129.26333 31.7319,130.43113 42.6824,1.2269 57.0937-29.3954 57.1131-104.33493 .0182-76.06429 17.1061-376.24248 31.6548-473.71801 15.1506-101.50861 45.0382-245.01051 13.1322-367.37352-15.2056-58.31518 123.0063-84.50403 298.1546,36.58348 140.9858,97.46951 197.0925,205.74333 61.1423,201.67141-75.2017-2.25241-100.8519,132.38362-131.6521,288.76456s-33.0034,319.50178-33.0828,332.21078c-1.8192,299.68303-289.5954,269.74623-311.4114,265.91983-185.8826-32.6025-192.734-172.0851-187.2194-316.28943l66.2133-1731.4365c2.8584-74.74568-14.3319-107.97985-79.8006-147.51072s-177.6809-82.43915-197.4044-90.63235c-50.7208-21.0695-36.5714-55.7143 35.7143-32.8571 131.5787,41.6059 341.4285,44.3428 341.4285,324.28572z" fill="#fc0"/>
<path d="m1851.2993,954.60155c.0485-76.06429 17.1061-393.49325 31.6548-490.96875 15.1506-101.5086 45.0382-245.0105 13.1322-367.3735-15.2056-58.31517 123.0063-84.50402 298.1546,36.58347 140.9857,97.46951 197.0924,205.74333 61.1423,201.67143-75.2017-2.2524-100.8519,132.3836-131.6521,288.7645s-29.6522,336.91986-31.7094,349.46155c-1.8192,11.09072-240.7418,13.72912-240.7224-18.1387z" fill="url(#linearGradient19721)" opacity=".67273"/>
<path d="m1762.8318,918.45025c-1.9071,65.25188-7.4664,119.26445 33.1603,120.43225 42.6824,1.2269 59.3462-36.2501 55.6847-132.903 .9691,22.54879 242.2216,25.42714 240.7774,8.13982 6.7512,351.10558-289.5954,308.31318-311.4114,304.48678-185.8826-32.6025-190.6624-170.2523-187.2194-316.28939l169.0084,16.13354z" fill="url(#radialGradient19723)" opacity=".67273"/>
<path d="m1759.5142-780.12863 4.2857,1739.99345c.0433,17.58096-171.0232,9.69367-170.4368-6.1347l66.2133-1787.14435c2.7694-74.74895-14.3319-107.9798-79.8006-147.5107s-177.6809-82.43907-197.4044-90.63227c-50.7208-21.0695-36.5714-55.7143 35.7143-32.8571 131.5787,41.6059 341.4285,44.3428 341.4285,324.28567z" fill="url(#linearGradient19725)" opacity=".673" stroke="#000" stroke-linejoin="round" stroke-width=".2"/>
<path d="m1902.1859,91.76712c-8.8257-38.899 100.5914-73.29655 275.7397,47.79095 140.9857,97.46951 222.0055,200.4174 86.3591,190.46396-145.2484-10.658-51.6697,294.28245-271.7454,302.77384 38.8416-310.30082-37.5653-308.36679-90.3534-541.02875z" fill="url(#radialGradient19727)" opacity=".40909"/>
<path d="m1115.2084,280.60565c0,64.68209-112.232,117.1777-250.51785,117.1777s-241.05783-58.44292-241.05783-123.12501 102.77199-111.23038 241.05783-111.23038 250.51785,52.4956 250.51785,117.17769z" fill="url(#radialGradient19729)" transform="matrix(.76676,.50796,-.66483,.33686,1637.338,-348.8959)"/>
</g>
<path d="m56.90142-1015.3948 54.86923,13.2093c-25.06372-4.0644-34.88599,37.59559-17.27364,45.72437l-41.65997-15.24146 4.06439-43.69221z" fill="#9f6d00"/>
<path d="m508.57144-194.78067a40,47.14286 0 1,1 -80,0 40,47.14286 0 1,1 80,0z" fill="url(#radialGradient19731)" stroke="url(#linearGradient19733)" stroke-linejoin="round" stroke-width="2.35179" transform="matrix(.95544,0,0,1,14.09267,-2.85714)"/>
<path d="m506.70573-169.021c5.75346,7.85483 33.40035,29.02876 36.59969,32.92245 15.32102,18.64609 16.48905,71.89504 6.33337,79.36905-8.63929,6.35803-4.41518-31.71237-17.93806-59.04395-2.61323-5.28169-51.10738-20.31089-52.49766-36.66004 0,0 20.23317-26.5121 27.50266-16.58751z" fill="url(#linearGradient19735)"/>
<path d="m485.81035-378.90989c0,5.04944 8.35295,20.18431 17.01383,71.42684 4.33044,25.62127-11.60089,20.90387-5.72098,31.70987 2.50827,4.60965 20.45831,8.16094 23.65765,12.05463 15.32102,18.64609 7.83522,82.71232-4.48391,84.77769-10.57904,1.77363 6.4021-37.12101-7.12078-64.45259-2.61323-5.28169-37.65417-20.31089-39.04445-36.66004l-1.12822-201.45736c6.74731-3.2847 9.31144-26.27963 8.54333-38.15774 15.45632,19.73111 8.28353,93.10743 8.28353,140.7587z" fill="url(#linearGradient19737)"/>
<path d="m466.9397-244.57907c-55-2.70286-58.37069,94.01396-2.98349,92.97286l-28.09134.59857c-21.09137.44942-38.21768-21.12-38.21768-47.14286s17.12709-47.62765 38.21768-47.14286l31.07483.71429z" fill="url(#linearGradient19739)"/>
<path d="m506.42859-246.56639a20.35714,22.5 0 1,1 -40.71429,0 20.35714,22.5 0 1,1 40.71429,0z" fill="url(#radialGradient19661)" transform="matrix(1.22807,0,0,1.26984,-114.0727,64.03379)"/>
<path d="m506.42859-246.56639a20.35714,22.5 0 1,1 -40.71429,0 20.35714,22.5 0 1,1 40.71429,0z" fill="url(#radialGradient19663)" stroke="url(#linearGradient19665)" stroke-linejoin="round" stroke-width="2.2988" transform="matrix(1.01754,0,0,1.11111,-10.87697,25.19807)"/>
<path d="m506.42859-246.56639a20.35714,22.5 0 1,1 -40.71429,0 20.35714,22.5 0 1,1 40.71429,0z" fill="url(#radialGradient19661)" transform="matrix(1.22807,0,0,1.26984,-109.63631,128.5371)"/>
<path d="m506.42859-246.56639a20.35714,22.5 0 1,1 -40.71429,0 20.35714,22.5 0 1,1 40.71429,0z" fill="url(#radialGradient19663)" stroke="url(#linearGradient19665)" stroke-linejoin="round" stroke-width="2.2988" transform="matrix(1.01754,0,0,1.11111,-6.44058,89.70138)"/>
<path d="m418.62599-569.49646a15.22276,14.58848 0 1,1 -30.44553,0 15.22276,14.58848 0 1,1 30.44553,0z" fill="url(#radialGradient19753)" transform="matrix(.73713,0,0,.76488,236.5086,1228.663)"/>
<path d="m418.62599-569.49646a15.22276,14.58848 0 1,1 -30.44553,0 15.22276,14.58848 0 1,1 30.44553,0z" fill="url(#radialGradient19753)" transform="matrix(.73713,0,0,.76488,226.2186,1228.663)"/>
<path d="m507.93843,108.17942 12.68141.24455-1.98309,699.17674-12.68141-.24456 1.98309-699.17673z" fill="url(#linearGradient19757)"/>
<path d="m483.66109,772.81174c0,34.4919-22.8688,62.17532-47.38861,63.91388-40.29565,2.85715-54.53146-27.99342-54.53146-62.48531s26.37866-63.91389 50.96003-63.91389c29.41411,0 49.26799,19.70509 50.9575,60.38892l-50.9575,2.0964h50.96004z" fill="url(#radialGradient19759)" stroke="url(#linearGradient19761)" stroke-linejoin="round" stroke-width="2.76366"/>
<path d="m438.32142,710.59388c-82.83167-5.01107-114.36437,115.32471-3.25333,126.08765l-22.06066.79336c-25.57302.91968-69.41061-41.57495-68.81718-69.62816 .63902-30.20787 41.72097-59.33026 70.24576-58.19961l23.88541.94676z" fill="url(#linearGradient19763)"/>
<path d="m518.83845,771.14159c.12864,9.56274-21.38492,5.80639-45.10095,8.07124s-51.4848,2.29165-71.42214-2.96259c19.4004-7.83561 45.28173-9.10784 68.99779-11.3727s47.06305-3.19864 47.5253,6.26405z" fill="url(#linearGradient19765)" stroke="url(#linearGradient19767)" stroke-linejoin="round" stroke-width=".27952"/>
<path d="m389.28571,773.07648c-.71429,68 51.59428,64.28573 40.35714,64.28573-16.95143,0-48.97831-7.67375-48.92858-64.28573 .04529-51.54387 39.83429-64.28571 50.35715-64.28571 11.23714,0-42.5,5.57143-41.78571,64.28571z" fill="url(#linearGradient19769)"/>
<path d="m506.42859-246.56639a20.35714,22.5 0 1,1 -40.71429,0 20.35714,22.5 0 1,1 40.71429,0z" fill="url(#radialGradient19661)" transform="matrix(1.22807,0,0,1.26984,-166.77917,1090.66079)"/>
<path d="m506.42859-246.56639a20.35714,22.5 0 1,1 -40.71429,0 20.35714,22.5 0 1,1 40.71429,0z" fill="url(#radialGradient19663)" stroke="url(#linearGradient19665)" stroke-linejoin="round" stroke-width="2.2988" transform="matrix(1.01754,0,0,1.11111,-63.58344,1051.82507)"/>
<path d="m506.42859-246.56639a20.35714,22.5 0 1,1 -40.71429,0 20.35714,22.5 0 1,1 40.71429,0z" fill="url(#radialGradient19661)" transform="matrix(1.22807,0,0,1.26984,-192.49346,1203.51779)"/>
<path d="m506.42859-246.56639a20.35714,22.5 0 1,1 -40.71429,0 20.35714,22.5 0 1,1 40.71429,0z" fill="url(#radialGradient19663)" stroke="url(#linearGradient19665)" stroke-linejoin="round" stroke-width="2.2988" transform="matrix(1.01754,0,0,1.11111,-89.29773,1164.68207)"/>
<path d="m506.42859-246.56639a20.35714,22.5 0 1,1 -40.71429,0 20.35714,22.5 0 1,1 40.71429,0z" fill="url(#radialGradient19661)" transform="matrix(1.4386,0,0,1.26984,-374.82437,1152.08979)"/>
<path d="m506.42859-246.56639a20.35714,22.5 0 1,1 -40.71429,0 20.35714,22.5 0 1,1 40.71429,0z" fill="url(#radialGradient19663)" stroke="url(#linearGradient19665)" stroke-linejoin="round" stroke-width="2.2988" transform="matrix(1.19198,0,0,1.11111,-253.9379,1113.25407)"/>
<path d="m508.57144-194.78067a40,47.14286 0 1,1 -80,0 40,47.14286 0 1,1 80,0z" fill="url(#radialGradient19731)" stroke="url(#linearGradient19733)" stroke-linejoin="round" stroke-width="2.35179" transform="matrix(.95544,0,0,1,12.73290,114.0409)"/>
<path d="m465.57993-127.68104c-55-2.70286-58.37069,94.01396-2.98349,92.97286l-28.09134.59857c-21.09137.44942-38.21768-21.12-38.21768-47.14286s17.12709-47.62765 38.21768-47.14286l31.07483.71429z" fill="url(#linearGradient19793)"/>
<path d="m506.42859-246.56639a20.35714,22.5 0 1,1 -40.71429,0 20.35714,22.5 0 1,1 40.71429,0z" fill="url(#radialGradient19661)" transform="matrix(.91228,0,0,.98413,58.8599,115.94673)"/>
<path d="m506.42859-246.56639a20.35714,22.5 0 1,1 -40.71429,0 20.35714,22.5 0 1,1 40.71429,0z" fill="url(#radialGradient19663)" stroke="url(#linearGradient19665)" stroke-linejoin="round" stroke-width="2.2988" transform="matrix(.75589,0,0,.86111,135.51957,85.84904)"/>
<path d="m506.42859-246.56639a20.35714,22.5 0 1,1 -40.71429,0 20.35714,22.5 0 1,1 40.71429,0z" fill="url(#radialGradient19661)" transform="matrix(1.22807,0,0,1.26984,-93.92203,252.82279)"/>
<path d="m506.42859-246.56639a20.35714,22.5 0 1,1 -40.71429,0 20.35714,22.5 0 1,1 40.71429,0z" fill="url(#radialGradient19663)" stroke="url(#linearGradient19665)" stroke-linejoin="round" stroke-width="2.2988" transform="matrix(1.01754,0,0,1.11111,9.2737,213.98707)"/>
<path d="m508.57144-194.78067a40,47.14286 0 1,1 -80,0 40,47.14286 0 1,1 80,0z" fill="url(#radialGradient19731)" stroke="url(#linearGradient19733)" stroke-linejoin="round" stroke-width="2.35179" transform="matrix(.95544,0,0,1,15.59004,248.3266)"/>
<path d="m468.43707,6.60466c-55-2.70286-58.37069,94.01396-2.98349,92.97286l-28.09134.59857c-16.79239.35781-37.30262-26.84234-38.21768-47.14286-.9147-20.29249 17.12709-47.62765 38.21768-47.14286l31.07483.71429z" fill="url(#linearGradient19811)"/>
<path d="m508.57144-194.78067a40,47.14286 0 1,1 -80,0 40,47.14286 0 1,1 80,0z" fill="url(#radialGradient19731)" stroke="url(#linearGradient19733)" stroke-linejoin="round" stroke-width="2.35179" transform="matrix(.95544,0,0,1.04437,11.30433,375.5410)"/>
<path d="m464.15136,123.09308c-55-2.82279-58.37069,98.18564-2.98349,97.09835l-28.09134.62513c-18.23552.4058-42.40959-19.83456-43.21768-49.23473-.82899-30.90694 27.12446-49.62107 43.21768-49.23473l31.07483.74598z" fill="url(#linearGradient19817)"/>
<path d="m511.31379-194.78067a42.74235,47.14286 0 1,1 -85.4847,0 42.74235,47.14286 0 1,1 85.4847,0z" fill="url(#radialGradient19731)" stroke="url(#linearGradient19821)" stroke-linejoin="round" stroke-width="2.35179" transform="matrix(1.04186,0,0,1.32545,-48.46446,851.6684)"/>
<path d="m445.34081,531.27908c-59.97453-3.5825-60.79294,128.18185-3.25333,126.08765l-22.77495-.63521c-21.49628-.59954-68.69632-40.14638-68.10289-68.19959 .63902-30.20787 47.25668-59.11082 70.24576-58.19961l23.88541.94676z" fill="url(#linearGradient19823)"/>
<path d="m542.41767,591.58678c.12864,12.41989-29.69909,7.94925-53.41512,10.2141s-59.73046.3888-79.6678-4.86544c19.4004-7.83561 61.77306-7.83928 85.48912-10.10414s46.41727-7.56435 47.5938,4.75548z" fill="url(#linearGradient19825)" stroke="url(#linearGradient19827)" stroke-linejoin="round" stroke-width=".27952"/>
<path d="m380.71429,775.93362c-1.42857,43.51428 27.25077,55.83842 22.14286,52.85714-7.34285-4.28571-29.0507-7.91772-29.28571-51.42857-.26493-50.66148 33.37143-62.14286 39.99999-64.28571 5.62754-1.81925-32.14285,15.05714-32.85714,62.85714z" fill="url(#linearGradient19829)" opacity=".77273"/>
<path d="m397.4163,592.56138c-.71429,68 48.57968,62.41121 37.5,64.28573-12.66572,2.14286-47.54974-6.95946-47.50001-63.57144 .04529-51.54387 35.54857-66.42857 47.50001-64.28571 11.06075,1.98316-38.21429,4.85714-37.5,63.57142z" fill="url(#linearGradient19831)"/>
<path d="m506.42859-246.56639a20.35714,22.5 0 1,1 -40.71429,0 20.35714,22.5 0 1,1 40.71429,0z" fill="url(#radialGradient19661)" transform="matrix(1.22807,0,0,1.26984,-162.49346,963.51819)"/>
<path d="m506.42859-246.56639a20.35714,22.5 0 1,1 -40.71429,0 20.35714,22.5 0 1,1 40.71429,0z" fill="url(#radialGradient19663)" stroke="url(#linearGradient19665)" stroke-linejoin="round" stroke-width="2.2988" transform="matrix(1.01754,0,0,1.11111,-59.29773,924.68247)"/>
<path d="m420.98773,172.31302c-.71429,53.2708 51.59428,50.36106 40.35714,50.36106-16.95143,0-48.97831-6.01157-48.92858-50.36106 .04529-40.37916 32.69143-51.07533 50.35715-50.36104 11.22797.45399-43.21429.79319-41.78571,50.36104z" fill="url(#linearGradient19839)"/>
<path d="m425.99739,50.5438c-.71429,53.2708 47.30857,50.36106 40.35714,50.36106-16.95143,0-48.97831-6.01157-48.92858-50.36106 .04529-40.37916 30.56932-46.51496 50.35715-45.36104 6.94413.40494-43.21429-4.20681-41.78571,45.36104z" fill="url(#linearGradient19841)"/>
<path d="m506.36485,848.31712 12.68141.24455-1.98309,226.97933-12.68141-.2445 1.98309-226.97938z" fill="url(#linearGradient19843)"/>
<path d="m418.62599-569.49646a15.22276,14.58848 0 1,1 -30.44553,0 15.22276,14.58848 0 1,1 30.44553,0z" fill="url(#radialGradient19707)" transform="matrix(.75159,0,0,.77797,210.3058,1287.530)"/>
<g transform="matrix(1.10402,0,0,1.21063,-47.47082,-3.22378)">
<path d="m483.66109,772.81174c0,34.4919-22.8688,62.17532-47.38861,63.91388-40.29565,2.85715-58.19138-27.99342-58.19138-62.48531s30.03858-64.74829 54.61995-63.91389c29.39375.99775 49.26799,19.70509 50.9575,60.38892l-50.9575,2.0964h50.96004z" fill="url(#radialGradient19759)" stroke="url(#linearGradient19761)" stroke-linejoin="round" stroke-width="2.76366"/>
<path d="m438.32142,710.59388c-82.83167-5.01107-114.36437,115.32471-3.25333,126.08765l-22.06066.79336c-38.29078,1.37704-72.83656-47.4426-73.39208-69.62816-.56885-22.71831 39.94279-59.58208 74.82066-58.19961l23.88541.94676z" fill="url(#linearGradient19763)"/>
<path d="m518.83845,771.14159c.12864,9.56274-21.38492,5.80639-45.10095,8.07124s-51.4848,2.29165-71.42214-2.96259c19.4004-7.83561 45.28173-9.10784 68.99779-11.3727s47.06305-3.19864 47.5253,6.26405z" fill="url(#linearGradient19765)" stroke="url(#linearGradient19767)" stroke-linejoin="round" stroke-width=".27952"/>
<path d="m379.22094,773.91088c-.71429,68 57.99913,63.45133 46.76199,63.45133-16.95143,0-55.38316-7.67375-55.33343-64.28573 .04529-51.54387 46.23914-64.28571 56.762-64.28571 11.23714,0-48.90485,6.40583-48.19056,65.12011z" fill="url(#linearGradient19857)"/>
</g>
<path d="m466.99694,351.78531 12.67101.48894-1.8762,136.28726c.10324,6.32739-12.77425,6.16441-12.67101-.48894l1.8762-136.28726z" fill="url(#linearGradient19859)"/>
<path d="m477.3081,462.16726c0,32.33926-18.77176,58.29496-38.89875,59.92501-33.07652,2.67884-44.76193-26.24635-44.76193-58.5856s21.65282-59.92502 41.83034-59.92502c24.14445,0 40.44143,18.47529 41.82826,56.62005l-41.82826,1.96556h41.83034z" fill="url(#radialGradient19861)" stroke="url(#linearGradient19863)" stroke-linejoin="round" stroke-width="2.4245"/>
<path d="m435.04045,403.83242c-50.81945.35243-72.66233,119.23897-2.67048,118.21852l-18.1084.74384c-20.99151.86228-56.97542-38.98026-56.48831-65.28266 .52454-28.3226 34.24649-55.62746 57.66095-54.56738l19.60624.88768z" fill="url(#linearGradient19865)"/>
<path d="m394.78969,462.41548c-.58632,63.75612 42.35096,60.27365 33.12699,60.27365-13.91451,0-40.20364-7.19483-40.16282-60.27365 .03717-48.32702 32.69781-60.27364 41.33546-60.27364 9.22396,0-34.88595,5.22372-34.29963,60.27364z" fill="url(#linearGradient19867)"/>
<path d="m510.18284,461.54437c-.44988,8.95526-3.71505,5.3566-23.2764,6.2704s-42.31303-.47276-58.34202-6.40317c16.34916-6.34625 37.62684-6.22109 57.18821-7.1349s24.60096-1.61092 24.43021,7.26767z" fill="url(#linearGradient19869)" stroke="url(#linearGradient19871)" stroke-linejoin="round" stroke-width=".24522"/>
<g transform="matrix(.74072,0,0,.98333,118.7752,-132.0453)">
<path d="m477.3081,462.16726c0,32.33926-18.77176,58.29496-38.89875,59.92501-33.07652,2.67884-44.76193-26.24635-44.76193-58.5856s21.65282-59.92502 41.83034-59.92502c24.14445,0 40.44143,18.47529 41.82826,56.62005l-41.82826,1.96556h41.83034z" fill="url(#radialGradient19861)" stroke="url(#linearGradient19863)" stroke-linejoin="round" stroke-width="2.4245"/>
<path d="m435.04045,403.83242c-50.81945.35243-72.66233,119.23897-2.67048,118.21852l-18.1084.74384c-20.99151.86228-56.97542-38.98026-56.48831-65.28266 .52454-28.3226 34.24649-55.62746 57.66095-54.56738l19.60624.88768z" fill="url(#linearGradient19865)"/>
<path d="m394.78969,462.41548c-.58632,63.75612 42.35096,60.27365 33.12699,60.27365-13.91451,0-40.20364-7.19483-40.16282-60.27365 .03717-48.32702 32.69781-60.27364 41.33546-60.27364 9.22396,0-34.88595,5.22372-34.29963,60.27364z" fill="url(#linearGradient19867)"/>
</g>
<path d="m452.03237-537.62429h8.83326v56.45604l-9.21732-.38405c-13.82596-21.89112-11.52164-40.32575.38406-56.07199z" fill="url(#linearGradient19882)"/>
<g transform="matrix(.45589,0,0,.6252,250.9792,-860.2916)">
<path d="m477.3081,462.16726c0,32.33926-18.77176,58.29496-38.89875,59.92501-33.07652,2.67884-44.76193-26.24635-44.76193-58.5856s21.65282-59.92502 41.83034-59.92502c24.14445,0 40.44143,18.47529 41.82826,56.62005l-41.82826,1.96556h41.83034z" fill="url(#radialGradient19861)" stroke="url(#linearGradient19863)" stroke-linejoin="round" stroke-width="2.4245"/>
<path d="m435.04045,403.83242c-50.81945.35243-72.66233,119.23897-2.67048,118.21852l-18.1084.74384c-20.99151.86228-56.97542-38.98026-56.48831-65.28266 .52454-28.3226 34.24649-55.62746 57.66095-54.56738l19.60624.88768z" fill="url(#linearGradient19865)"/>
<path d="m394.78969,462.41548c-.58632,63.75612 42.35096,60.27365 33.12699,60.27365-13.91451,0-40.20364-7.19483-40.16282-60.27365 .03717-48.32702 32.69781-60.27364 41.33546-60.27364 9.22396,0-34.88595,5.22372-34.29963,60.27364z" fill="url(#linearGradient19867)"/>
</g>
<path d="m499.01535,1231.1592c0,44.6083-33.94113,80.8123-75.76144,80.8123s-75.76145-36.204-75.76145-80.8123 33.94113-80.8122 75.76145-80.8122 75.76144,36.2039 75.76144,80.8122z" fill="url(#radialGradient19892)" stroke="url(#linearGradient19894)" stroke-linejoin="round" stroke-width="5.099"/>
<path d="m714.23085,698.578c12.36298,49.20203-14.6493,98.64001-60.29529,110.35242s-92.72581-18.71412-105.08878-67.91615 14.64934-98.6399 60.29535-110.35232 92.72575,18.71401 105.08872,67.91605z" fill="url(#radialGradient19896)" stroke="url(#linearGradient19898)" stroke-linejoin="round" stroke-width="2.2988"/>
<path d="m466.83143-462.93713a36.15406,33.61694 0 1,1 -72.30813,0 36.15406,33.61694 0 1,1 72.30813,0z" fill="url(#radialGradient19900)" transform="matrix(.98246,0,0,1.07547,.57864,27.32727)"/>
<path d="m372.88379-586.49915h12.68377v932.61755h-12.68377z" fill="url(#linearGradient19902)" transform="matrix(.99981,1.928121e-2,-3.287468e-2,.99946,0,0)"/>
<path d="m455.7026-201.92354c-.79767,9.33714-14.65151,5.71428-32.70425,5.71428s-40.28474.07181-39.88323-9.28571c.36944-8.61022 21.83048-4.28571 39.88323-4.28571s32.70425-1.48 32.70425,7.85714z" fill="url(#linearGradient19904)" stroke="#000" stroke-linejoin="round" stroke-width=".21135"/>
<path d="m460.05876-84.31125c-8.64489,4.33714-30.15335,4.99999-38.50902,4.99999-17.78646,0-45.1918.7861-44.79621-8.57142 .36399-8.61022 27.00975-5 44.79621-5 7.56978,0 30.65004,2.09143 38.50902,8.57143z" fill="url(#linearGradient19906)" stroke="#000" stroke-linejoin="round" stroke-width=".20979"/>
<path d="m488.63551,57.1173c-20.93915,2.90857-47.38829,2.14285-64.31311,2.14285s-48.98516.7861-48.60874-8.57142c.34635-8.61022 32.43175-5.71428 49.35658-5.71428s43.37395,5.66286 63.56527,12.14285z" fill="url(#linearGradient19908)" stroke="#000" stroke-linejoin="round" stroke-width=".20464"/>
<path d="m477.21488,175.84719c-26.9752,5.27558-44.52152,4.47588-52.56705,4.47588-15.65392,0-63.98194,3.09061-63.63379-6.68213 .32035-8.99228 47.28821-3.76159 62.94213-3.76159 8.73719,0 24.90017-.05371 53.25871,5.96784z" fill="url(#linearGradient19910)" stroke="#000" stroke-linejoin="round" stroke-width=".20113"/>
<path d="m418.62599-569.49646a15.22276,14.58848 0 1,1 -30.44553,0 15.22276,14.58848 0 1,1 30.44553,0z" fill="url(#radialGradient19912)" transform="matrix(.84979,0,0,.84325,53.23582,-93.32180)"/>
<path d="m418.62599-569.49646a15.22276,14.58848 0 1,1 -30.44553,0 15.22276,14.58848 0 1,1 30.44553,0z" fill="url(#radialGradient19753)" transform="matrix(.84979,0,0,.84325,26.03555,839.3647)"/>
<path d="m536.60243-4.35135c0,2.80099-6.71324,5.07425-53.27967,5.07425s-115.06989.25106-114.80501-6.9771c.33566-9.15963 66.97002-3.80569 114.80501-1.90285 46.52963,1.85092 53.27967,1.0047 53.27967,3.80569z" fill="url(#linearGradient19916)"/>
<path d="m506.42859-246.56639a20.35714,22.5 0 1,1 -40.71429,0 20.35714,22.5 0 1,1 40.71429,0z" fill="url(#radialGradient19661)" transform="matrix(1.22807,0,0,1.26984,-69.63631,315.67999)"/>
<path d="m506.42859-246.56639a20.35714,22.5 0 1,1 -40.71429,0 20.35714,22.5 0 1,1 40.71429,0z" fill="url(#radialGradient19663)" stroke="url(#linearGradient19665)" stroke-linejoin="round" stroke-width="2.2988" transform="matrix(1.01754,0,0,1.11111,33.55942,276.84427)"/>
<path d="m694.36264,905.15082c11.91147,49.20203-14.1143,98.63998-58.09326,110.35238s-89.33938-18.71408-101.25085-67.91611 14.11434-98.6399 58.09332-110.35232 89.33933,18.71401 101.25079,67.91605z" fill="url(#radialGradient19924)" stroke="url(#linearGradient19926)" stroke-linejoin="round" stroke-width="2.25643"/>
<path d="m640,623.59375c-6.63078,3.80569-15.81589,38.95474 4.5625,75.34375 3.02694,5.40511-11.32841,19.02971-9.75,35.75 2.17261,23.01475 19.92171,37.79429 26.28125,41.71875 8.72412,5.38363-7.77753,21.89212 17.59375,71.71875-5.70854,5.74405-18.32355,30.09433-26.1875,57.25-2.22133,7.67064-28.00007,4.32704-37.34375,36.21875-7.12489,24.31862 9.29673,39.13835 3.15625,45.59375-12.46038,13.0994-37.58904,54.4909-24,62.625 70.34693,5.0743 111.45208-26.9044 118.40625-90.96875 5.53517-36.63836 8.52425-77.09401 35.625-121.34375-11.80188-18.87846-19.7764-14.92479-11.28125-98.5 3.17142-47.64217-13.82914-76.49373-35.25508-93.43475-10.71298-8.47051-16.18948-40.60322-27.14682-43.97847s-27.39553,22.00697-34.6606,22.00697zm17.84375,27c5.48257.10535 12.52865,3.46803 18.875,9.59375 10.15414,9.80116 14.73355,22.97028 10.21875,29.375s-16.43959,3.64491-26.59375-6.15625-14.73355-22.97027-10.21875-29.375c1.69305-2.40178 4.42921-3.50071 7.71875-3.4375zm41.875,121.03125c1.20137-.25556 2.3354-.22213 3.3125.15625 8.16105,3.16042 2.75477,67.49238-5.40625,69.40625s-17.82692-17.5551-18.4375-35.65625c-.53425-15.8385 12.12167-32.11735 20.53125-33.90625zm25.59375,52.15625c3.13409-1.16416 11.89001,12.95872 13,19.28125-1.26855,5.95715-18.11698,34.90067-17.78125,27.90625 .60892-12.68565.61572-30.46474 3.8125-45.6875 .17989-.85662.52102-1.33369.96875-1.5zm-36.15625,39.28125c1.20137-.25556 2.3354-.22213 3.3125.15625 8.16105,3.16039 2.75477,67.49238-5.40625,69.40625s-17.82692-17.58635-18.4375-35.6875c-.53426-15.83852 12.12166-32.0861 20.53125-33.875zm-41.28125,133.5c4.05696-.01273 7.49464.92034 9.6875,2.84375 5.84762,5.12915.76561,15.50105-11.34375,23.15625s-26.68361,9.6915-32.53125,4.5625-.76565-15.501 11.34375-23.1562c7.56836-4.78456 16.08215-7.38508 22.84375-7.4063z" fill="url(#radialGradient19928)"/>
<path d="m563.61525,660.92884c14.13451,21.80489 65.09851,58.5727 60.56913,62.86994-6.20003,5.88226-32.8452-12.89861-68.46963-53.57337-3.30849-3.77751-12.71629-39.77663-13.19177-58.40487s.36997-14.81137.44238-23.95068c10.77634,4.24323 24.76543,46.86345 29.89782,60.52155-4.61173,3.33617-7.92495,8.61208-9.24793,12.53743z" fill="url(#linearGradient19930)"/>
<path d="m219.82492,1084.0711c-2.37348-.3744-4.21479-15.2204 1.11715-14.0733 14.52254,3.1243 76.6702,28.453 93.04457,44.1107 32.74882,31.3157 81.8304,85.2108 101.62686,124.6167-33.91646-36.2693-71.52047-76.4345-104.26927-107.7502s-59.23066-41.5683-91.51931-46.9039z" fill="url(#linearGradient19932)"/>
<path d="m336.90625,1162.9062c-12.77507,7.7224-22.31249,19.3017-22.3125,49.9376 0,61.2717 50.84885,110.9998 107.21875,111 53.83279,0 93.23143-42.1368 94.5-75.5 0-19.7579-.64645-24.1928-3-29.6563-6.15926,46.5476-27.46198,9.1325-72.90625,30.1875-3.47388,1.6095-10.44067-13.664-23.1875-18.5312s-33.89011.785-38.5625-1.6563c-7.43778-3.8862-19.42385-15.8917-47.5625-25.4687-8.02129-2.7301 14.73716-34.6596 5.8125-40.3126zm2.46875,62.6563c6.54624-.3778 15.31994,7.3314 20.875,18.9375 6.34864,13.2642 6.10082,26.6069-.53125,29.7812s-17.15136-5.0171-23.5-18.2812-6.13207-26.6069.5-29.7812c.82901-.3968 1.72107-.6023 2.65625-.6563zm137.28125,34.4687c3.57424-.0281 6.46761,1.0153 8.125,3.2188 4.4197,5.8759-1.52935,17.8169-13.28125,26.6562s-24.86154,11.2511-29.28125,5.375 1.52935-17.8168 13.28125-26.6562c7.34494-5.5246 15.19918-8.5467 21.15625-8.5938z" fill="url(#linearGradient19934)"/>
<path d="m435.11735,1302.9036a31.71409,31.07981 0 1,1 -63.42818,0 31.71409,31.07981 0 1,1 63.42818,0z" fill="url(#radialGradient19936)" transform="translate(-1.26856,-30.44553)"/>
<path d="m416.0889,1274.9951a13.31992,13.31992 0 1,1 -26.63984,0 13.31992,13.31992 0 1,1 26.63984,0z" fill-opacity=".54487" transform="translate(-1.26856)"/>
<path d="m435.11735,1302.9036a31.71409,31.07981 0 1,1 -63.42818,0 31.71409,31.07981 0 1,1 63.42818,0z" fill="url(#radialGradient19936)" transform="translate(247.83614,-352.37273)"/>
<path d="m416.0889,1274.9951a13.31992,13.31992 0 1,1 -26.63984,0 13.31992,13.31992 0 1,1 26.63984,0z" fill-opacity=".54487" transform="translate(247.83614,-321.9272)"/>
<path d="m435.11735,1302.9036a31.71409,31.07981 0 1,1 -63.42818,0 31.71409,31.07981 0 1,1 63.42818,0z" fill="url(#radialGradient19936)" transform="translate(270.67024,-568.08763)"/>
<path d="m416.0889,1274.9951a13.31992,13.31992 0 1,1 -26.63984,0 13.31992,13.31992 0 1,1 26.63984,0z" fill-opacity=".54487" transform="translate(270.67024,-537.6421)"/>
<path d="m688.69504,1155.0733c-5.88361-50.8606-47.00732-89.4065-96.34673-70.8911 28.25149-10.0754 73.09197,22.4953 79.68865,71.386 8.80592,65.2641-44.03717,86.3644-77.01513,78.9683 29.84778,8.0765 102.00386-7.4493 93.67321-79.4632z" fill="url(#linearGradient19942)"/>
<path d="m673.60734,1165.8987a57.08537,70.40528 0 1,1 -114.17073,0 57.08537,70.40528 0 1,1 114.17073,0z" fill="url(#radialGradient19944)" transform="matrix(1.12248,-.357,.32983,1.04829,-470.2151,156.8226)"/>
<path d="m501.66642,1054.5586c.08568-10.816 67.21105-1.1482 86.34429,50.6826 8.97529,24.3135 24.73485,50.5635 27.96977,73.5337-16.52184-15.2052-30.21626-39.9586-41.72306-63.1813-32.11398-64.8116-73.51012-52.102-72.591-61.035z" fill="url(#linearGradient19946)" stroke="url(#linearGradient19948)" stroke-linejoin="round" stroke-width=".31619"/>
<path d="m466.83143-462.93713a36.15406,33.61694 0 1,1 -72.30813,0 36.15406,33.61694 0 1,1 72.30813,0z" fill="url(#radialGradient19900)" transform="matrix(.54386,0,0,.86792,213.0749,111.2448)"/>
<path d="m315.88426-500.9871h12.68377l-4.15664,904.63622h-12.68377l4.15664-904.63622z" fill="url(#linearGradient19952)" transform="matrix(.99981,1.928121e-2,-3.287472e-2,.99946,0,0)"/>
<path d="m418.62599-569.49646a15.22276,14.58848 0 1,1 -30.44553,0 15.22276,14.58848 0 1,1 30.44553,0z" fill="url(#radialGradient19707)" transform="matrix(.7435,0,0,.77375,37.62396,-59.93685)"/>
<path d="m303.7402-575.23901h12.68377l-1.67414,980.13628h-12.68377l1.67414-980.13628z" fill="url(#linearGradient19956)" transform="matrix(.99981,1.928121e-2,-3.287472e-2,.99946,0,0)"/>
<path d="m418.62599-569.49646a15.22276,14.58848 0 1,1 -30.44553,0 15.22276,14.58848 0 1,1 30.44553,0z" fill="url(#radialGradient19958)" transform="matrix(.7435,0,0,.73456,28.99458,-160.4247)"/>
<path d="m418.62599-569.49646a15.22276,14.58848 0 1,1 -30.44553,0 15.22276,14.58848 0 1,1 30.44553,0z" fill="url(#radialGradient19707)" transform="matrix(.89371,0,0,.85212,-87.76889,821.7575)"/>
<path d="m294.026-695.82684h12.68377l-2.84482,1108.59038h-12.68377l2.84482-1108.59038z" fill="url(#linearGradient19962)" transform="matrix(.99981,1.928121e-2,-3.287472e-2,.99946,0,0)"/>
<path d="m352.41875-266.52305c0,0 6.36393,2.81864 6.36393,6.31983l-4.25507,721.01116c0,3.50119-2.81865,6.31984-6.31984,6.31984h-.04409c-3.50119,0-6.31984-2.81865-6.31984-6.31984l4.25507-721.01116c0-3.50119 2.81865-6.31983 6.31984-6.31983z" fill="url(#linearGradient19964)" transform="matrix(.99981,1.928121e-2,-3.287472e-2,.99946,0,0)"/>
<path d="m418.62599-569.49646a15.22276,14.58848 0 1,1 -30.44553,0 15.22276,14.58848 0 1,1 30.44553,0z" fill="url(#radialGradient19966)" transform="matrix(.89371,0,0,.85212,-53.58573,905.8478)"/>
<path d="m418.62599-569.49646a15.22276,14.58848 0 1,1 -30.44553,0 15.22276,14.58848 0 1,1 30.44553,0z" fill="url(#radialGradient19968)" transform="matrix(.89371,0,0,.85212,-62.75435,905.8475)"/>
<path d="m418.62599-569.49646a15.22276,14.58848 0 1,1 -30.44553,0 15.22276,14.58848 0 1,1 30.44553,0z" fill="url(#radialGradient19970)" transform="matrix(.89371,0,0,.85212,-73.54108,906.9262)"/>
<path d="m418.62599-569.49646a15.22276,14.58848 0 1,1 -30.44553,0 15.22276,14.58848 0 1,1 30.44553,0z" fill="url(#radialGradient19968)" transform="matrix(.7435,0,0,.81293,33.30927,944.4437)"/>
<path d="m418.62599-569.49646a15.22276,14.58848 0 1,1 -30.44553,0 15.22276,14.58848 0 1,1 30.44553,0z" fill="url(#radialGradient19974)" transform="matrix(.66839,0,0,.73456,52.95024,-267.2132)"/>
<path d="m475.00413-489.00227c-2.69365,10.29398-10.14592,13.60481-13.89939,9.50201-3.06369-3.34884-2.14059-58.19238.7474-59.51125 5.25513-2.39985 11.05388,1.25872 13.47392,9.91417 3.67574,13.14652 3.04103,27.24333-.32193,40.09507z" fill="url(#radialGradient19976)"/>
<path d="m442.3413-734.36343c6.63077-30.07181 17.98271-57.14077 10.74588-97.68683 2.9394,49.98909-38.82915,92.84347-51.27986,99.94965-49.83529,28.44325-75.23553,18.80022-51.99489,11.52612 44.1657-13.82345 133.94081-87.56732 68.84912-156.21762-16.93245-17.85816-28.43858,4.00489-41.41651-8.38181-13.36808-12.7591 17.25845-23.35931-14.10446-41.95687-42.78017-25.36777-149.06123-45.97917-149.30864-59.17659-.12528-6.6827 15.91703-1.10505 56.40989,11.62723s105.43627,32.61918 145.19328,72.37649c66.09279,66.09328 55.97072,127.88099 26.90619,167.94023z" fill="url(#radialGradient19978)"/>
<path d="m-28.01287-1017.6445a26.73226,11.13844 0 0,1 26.73226,11.13844 26.73226,11.13844 0 0,1 -26.73226,11.13844 26.73226,11.13844 0 0,1 -26.73226-11.13844 26.73226,11.13844 0 0,1 26.73226-11.13844" fill="url(#linearGradient19980)" transform="rotate(14.76653)"/>
<path d="m259.71369,488.59708c-.83199,18.16421-1.36468,28.37357-16.73573,28.37357s-11.68554-18.2706-11.68554-28.37357c0-77.77533 1.36467-105.13624 16.73572-105.13624 3.84276,0 29.96162-11.45446 30.5313-4.68888l-.25642,6.18452c-30.75047,3.76943-31.54246,31.0904-15.63785,39.20358l-2.95148,64.43702z" fill="url(#linearGradient19982)"/>
<path d="m296.95031,433.21069c0,5.43601-4.79492,67.0009-8.57911,83.69491-4.00163,17.65327-17.85425,10.75502-23.30467,15.86728l-3.07012,44.11139c-1.03515,14.87294-13.90958,22.98221-16.55789,22.98221-10.59325,0-16.61071-6.54342-16.16055-22.22077l1.58272-55.12066c-.97056-4.28484 20.83832-2.83146 28.31058-3.93428 20.17659-2.97785 22.00027-2.55721 27.67869-85.38008h10.10035z" fill="url(#linearGradient19984)"/>
<path d="m301.99264,427.55676c0,5.43601.25526,162.95423-3.52893,179.64824-4.00163,17.65327-26.94457,4.69481-32.39499,9.80707l-3.07012,44.11139c-1.03515,14.87294-13.90958,22.98221-16.55789,22.98221-10.59325,0-16.61071-6.54342-16.16055-22.22077l1.58272-55.12066c-.97056-4.28484 20.83832-2.83146 28.31058-3.93428 20.17659-2.97785 26.04041,5.52307 31.71883-77.2998l10.10035-97.9734z" fill="url(#linearGradient19986)"/>
<path d="m321.19117,944.79345c0,4.11185-2.97329,8.94382-10.04063,8.53271-4.86176-.28281-.73815-13.48162-8.4016-16.75794-9.34434-3.99494-34.80364-6.34908-41.91573-5.03044-8.59939,1.59438-6.81544,16.79079-8.32443,15.78075-25.22663-29.29101-43.6543-40.13651-19.19067-36.86627 8.00408,1.06996 26.28516-12.62545 47.47165-12.62545s40.40141,30.51923 40.40141,46.96664z" fill="url(#linearGradient19988)"/>
<path d="m305.68354,940.37082c1.11846,6.03008 4.64353,12.51047.35711,13.00792-15.38533,1.78551-39.25833-1.23315-48.54296-4.50927-5.78346-2.04071-2.71969-11.22125.82624-15.44635 3.04518-3.62846 46.2883,1.17187 47.35961,6.9477z" fill="url(#linearGradient19990)"/>
<g transform="matrix(.98249,.18634,.18634,-.98249,-174.0268,1838.619)">
<path d="m322.17717,945.34392c0,4.11185-3.95929,8.39335-11.02663,7.98224-4.86176-.28281-.73815-13.48162-8.4016-16.75794-9.34434-3.99494-34.80364-6.34908-41.91573-5.03044-8.59939,1.59438-6.81544,16.79079-8.32443,15.78075-9.35384-24.82671-25.76293-30.44023-11.16959-33.16419 20.56965-3.83949 26.59972-16.20046 50.10905-15.03298 21.16043,1.05084 35.80413,26.01264 30.72893,46.22256z" fill="url(#linearGradient19988)"/>
<path d="m305.68354,940.37082c1.11846,6.03008 4.64353,12.51047.35711,13.00792-15.38533,1.78551-39.25833-1.23315-48.54296-4.50927-5.78346-2.04071-2.71969-11.22125.82624-15.44635 3.04518-3.62846 46.2883,1.17187 47.35961,6.9477z" fill="url(#linearGradient19990)"/>
</g>
<path d="m518.60512,811.98992c14.13451,21.80489 98.58207,119.46376 94.05269,123.761-6.20003,5.88226-70.26783-75.69251-105.89226-116.36727-6.61697-7.55503-7.91715-21.4436 2.47338-20.83021 9.80005.57853 12.01214,5.58578 9.36619,13.43648z" fill="url(#linearGradient19996)"/>
<path d="m503.38898,98.75231 12.68141.24456 2.60547,136.31077-12.68141-.24456-2.60547-136.31077z" fill="url(#linearGradient19998)" transform="matrix(.99981,1.928121e-2,-3.287476e-2,.99946,0,0)"/>
<path d="m418.62599-569.49646a15.22276,14.58848 0 1,1 -30.44553,0 15.22276,14.58848 0 1,1 30.44553,0z" fill="url(#radialGradient19753)" transform="matrix(.73713,0,0,.76488,238.2236,533.7963)"/>
<path d="m418.62599-569.49646a15.22276,14.58848 0 1,1 -30.44553,0 15.22276,14.58848 0 1,1 30.44553,0z" fill="url(#radialGradient19753)" transform="matrix(.73713,0,0,.76488,229.6486,533.7966)"/>
<path d="m418.62599-569.49646a15.22276,14.58848 0 1,1 -30.44553,0 15.22276,14.58848 0 1,1 30.44553,0z" fill="url(#radialGradient19753)" transform="matrix(.73713,0,0,.76488,219.3586,533.7966)"/>
<path d="m418.62599-569.49646a15.22276,14.58848 0 1,1 -30.44553,0 15.22276,14.58848 0 1,1 30.44553,0z" fill="url(#radialGradient19753)" transform="matrix(.73713,0,0,.76488,210.2119,534.9399)"/>
<path d="m418.62599-569.49646a15.22276,14.58848 0 1,1 -30.44553,0 15.22276,14.58848 0 1,1 30.44553,0z" fill="url(#radialGradient19753)" transform="matrix(.73713,0,0,.76488,206.7819,687.0034)"/>
<path d="m418.62599-569.49646a15.22276,14.58848 0 1,1 -30.44553,0 15.22276,14.58848 0 1,1 30.44553,0z" fill="url(#radialGradient19707)" transform="matrix(.89371,0,0,.85212,-4.30544,366.7507)"/>
<path d="m418.62599-569.49646a15.22276,14.58848 0 1,1 -30.44553,0 15.22276,14.58848 0 1,1 30.44553,0z" fill="url(#radialGradient19707)" transform="matrix(.89371,0,0,.85212,-125.4989,1309.914)"/>
<path d="m418.62599-569.49646a15.22276,14.58848 0 1,1 -30.44553,0 15.22276,14.58848 0 1,1 30.44553,0z" fill="url(#radialGradient20014)" transform="matrix(.89371,0,0,.85212,-126.6423,1367.080)"/>
<path d="m418.62599-569.49646a15.22276,14.58848 0 1,1 -30.44553,0 15.22276,14.58848 0 1,1 30.44553,0z" fill="url(#radialGradient19707)" transform="matrix(.89371,0,0,.85212,-135.7890,1632.993)"/>
<path d="m344.14381,658.48328c0,10.3346-1.85347,42.18173-9.15687,65.99866s-20.05673,39.60367-28.13644,49.83088c-7.09553,8.98147-23.10222,4.79229-26.73345-2.06772-7.67675-14.50267 22.10857-56.47752 25.15336-69.17176 3.33894-13.92054 8.28825-28.87515 10.29002-45.16173 1.54579-12.57668 28.58338-8.75337 28.58338.57167z" fill="url(#linearGradient20018)"/>
<path d="m418.62599-569.49646a15.22276,14.58848 0 1,1 -30.44553,0 15.22276,14.58848 0 1,1 30.44553,0z" fill="url(#radialGradient19707)" transform="matrix(.75159,0,0,.85212,209.2240,1563.804)"/>
<path d="m418.62599-569.49646a15.22276,14.58848 0 1,1 -30.44553,0 15.22276,14.58848 0 1,1 30.44553,0z" fill="url(#radialGradient19707)" transform="matrix(.89371,0,0,.85212,112.9502,882.8368)"/>
<path d="m418.62599-569.49646a15.22276,14.58848 0 1,1 -30.44553,0 15.22276,14.58848 0 1,1 30.44553,0z" fill="url(#radialGradient19707)" transform="matrix(.68053,0,0,.70382,197.8659,754.0302)"/>
<path d="m418.62599-569.49646a15.22276,14.58848 0 1,1 -30.44553,0 15.22276,14.58848 0 1,1 30.44553,0z" fill="url(#radialGradient19707)" transform="matrix(.89371,0,0,.85212,200.1676,918.8465)"/>
<path d="m349.04195-708.34839h86.81114c4.42983,0 32.47306,3.56625 32.47306,7.99608v26.4346c0,4.42983-28.04323,7.99608-32.47306,7.99608h-86.81114c-4.42983,0-7.99608-3.56625-7.99608-7.99608v-26.4346c0-4.42983 3.56625-7.99608 7.99608-7.99608z" fill="url(#linearGradient20028)"/>
<path d="m505.85752-680.60779a15.50209,21.21338 0 1,1 -31.00417,0 15.50209,21.21338 0 1,1 31.00417,0z" fill="url(#linearGradient20030)" stroke="url(#linearGradient20032)" stroke-linejoin="round" stroke-width="5.099" transform="translate(-6.52719,-9.79079)"/>
<path d="m88.61478-1006.8368c-24.72517-15.6494-44.35271,40.07317-9.23908,43.39059-6.09968,12.32584-18.03864,20.10035-80.9542-4.46354s-206.4626-89.98145-205.79273-97.66775c1.7368-19.9289 108.23236,22.9752 162.00025-12.98 15.01453-10.0403 36.78368,4.5831 81.01899,18.4752 25.72715,8.0797 60.65914,32.6697 52.96678,53.2455z" fill="url(#linearGradient20034)"/>
<path d="m-3.24672-1080.1081 31.84678,11.2621c4.29962,1.4289 8.707,7.5559 5.33731,8.3305-26.47982,6.0872-42.79869,50.786-37.7795,88.37213 .45766,3.42715-5.88515,4.60091-10.18477,3.17201l-29.81459-10.246c-4.29962-1.42891-4.12626-5.68576-6.35341-8.33049-11.11577-13.19985 6.21919-72.12395 36.76341-89.38815 3.01015-1.7014 5.88516-4.601 10.18477-3.1721z" fill="url(#radialGradient20036)"/>
</g>
</svg>
