<?xml version="1.0" encoding="UTF-8" standalone="no"?>
<svg
   xmlns:dc="http://purl.org/dc/elements/1.1/"
   xmlns:cc="http://creativecommons.org/ns#"
   xmlns:rdf="http://www.w3.org/1999/02/22-rdf-syntax-ns#"
   xmlns:svg="http://www.w3.org/2000/svg"
   xmlns="http://www.w3.org/2000/svg"
   xmlns:xlink="http://www.w3.org/1999/xlink"
   xmlns:sodipodi="http://sodipodi.sourceforge.net/DTD/sodipodi-0.dtd"
   xmlns:inkscape="http://www.inkscape.org/namespaces/inkscape"
   viewBox="0 0 472.44094 332.59843"
   version="1.1"
   id="svg83"
   sodipodi:docname="scale.svg"
   width="125mm"
   height="88mm"
   inkscape:version="1.0.2-2 (e86c870879, 2021-01-15)">
  <metadata
     id="metadata87">
    <rdf:RDF>
      <cc:Work
         rdf:about="">
        <dc:format>image/svg+xml</dc:format>
        <dc:type
           rdf:resource="http://purl.org/dc/dcmitype/StillImage" />
        <dc:title></dc:title>
      </cc:Work>
    </rdf:RDF>
  </metadata>
  <sodipodi:namedview
     pagecolor="#ffffff"
     bordercolor="#666666"
     borderopacity="1"
     objecttolerance="10"
     gridtolerance="10"
     guidetolerance="10"
     inkscape:pageopacity="0"
     inkscape:pageshadow="2"
     inkscape:window-width="1920"
     inkscape:window-height="1017"
     id="namedview85"
     showgrid="false"
     units="mm"
     inkscape:zoom="1.1634688"
     inkscape:cx="240.6958"
     inkscape:cy="256.03123"
     inkscape:window-x="-8"
     inkscape:window-y="-8"
     inkscape:window-maximized="1"
     inkscape:current-layer="svg83" />
  <defs
     id="defs29">
    <filter
       id="i">
      <feGaussianBlur
         stdDeviation="2.70805"
         id="feGaussianBlur2" />
    </filter>
    <filter
       id="h">
      <feGaussianBlur
         stdDeviation="3.79394"
         id="feGaussianBlur5" />
    </filter>
    <linearGradient
       id="a">
      <stop
         stop-color="#bfbebe"
         offset="0"
         id="stop8" />
      <stop
         stop-color="#bfbebe"
         stop-opacity="0"
         offset="1"
         id="stop10" />
    </linearGradient>
    <linearGradient
       id="b">
      <stop
         stop-color="#757575"
         offset="0"
         id="stop13" />
      <stop
         stop-color="#abacac"
         offset=".5"
         id="stop15" />
      <stop
         stop-color="#a3a1a1"
         offset="1"
         id="stop17" />
    </linearGradient>
    <linearGradient
       id="f"
       x1="335.60999"
       x2="438.16"
       y1="157.37"
       y2="220.12"
       gradientUnits="userSpaceOnUse">
      <stop
         offset="0"
         id="stop20" />
      <stop
         stop-opacity="0"
         offset="1"
         id="stop22" />
    </linearGradient>
    <linearGradient
       id="g"
       x1="172.88"
       x2="576.95001"
       gradientUnits="userSpaceOnUse"
       xlink:href="#a" />
    <linearGradient
       id="e"
       x1="207.72"
       x2="296.95999"
       gradientUnits="userSpaceOnUse"
       xlink:href="#b" />
    <linearGradient
       id="d"
       x1="548.96997"
       x2="459.73001"
       gradientUnits="userSpaceOnUse"
       xlink:href="#b" />
    <linearGradient
       id="c"
       x1="329.32999"
       x2="420.19"
       gradientUnits="userSpaceOnUse"
       xlink:href="#a" />
  </defs>
  <g
     transform="matrix(0.77942495,0,0,0.77942495,-55.008091,-60.38118)"
     id="g81">
    <path
       d="m 211.93,114.82 c 104.46,-6.2996 210.69,-9.9358 325.97,0 23.644,0 42.679,19.035 42.679,42.679 -10.537,89.116 -13.979,176.66 0,260.32 0,23.644 -19.035,42.679 -42.679,42.679 -111.64,13.443 -219.79,11.13 -325.97,0 -23.644,0 -42.679,-19.035 -42.679,-42.679 13.863,-85.388 13.489,-172.2 0,-260.32 0,-23.644 19.035,-42.679 42.679,-42.679 z"
       fill="#e5e5e5"
       stroke="#464646"
       stroke-width="0.5"
       id="path31" />
    <path
       transform="matrix(0.97953,0,0,0.97953,7.6759,5.9208)"
       d="m 214.8,117.89 c 102.62,-6.1885 206.98,-9.7606 320.22,0 23.227,0 41.927,18.699 41.927,41.927 -10.351,87.544 -13.732,173.54 0,255.73 0,23.227 -18.699,41.927 -41.927,41.927 -109.68,13.205 -215.91,10.934 -320.22,0 -23.227,0 -41.927,-18.699 -41.927,-41.927 13.619,-83.882 13.251,-169.16 0,-255.73 0,-23.227 18.699,-41.927 41.927,-41.927 z"
       fill="url(#g)"
       filter="url(#h)"
       id="path33"
       style="fill:url(#g)" />
    <path
       d="m 336.96,130.18 h 75.906 a 17.438,17.438 0 0 1 17.438,17.438 v 34.876 a 17.438,17.438 0 0 1 -17.438,17.438 H 336.96 A 17.438,17.438 0 0 1 319.522,182.494 V 147.618 A 17.438,17.438 0 0 1 336.96,130.18"
       fill="#bababb"
       stroke="#464646"
       stroke-linecap="round"
       stroke-linejoin="round"
       stroke-width="0.5"
       id="path35" />
    <path
       transform="matrix(0.96399,0,0,0.92242,13.502,1.4309)"
       d="m 336.96,142.51 h 75.906 a 17.438,17.438 0 0 1 17.438,17.438 v 34.876 a 17.438,17.438 0 0 1 -17.438,17.438 H 336.96 A 17.438,17.438 0 0 1 319.522,194.824 V 159.948 A 17.438,17.438 0 0 1 336.96,142.51"
       fill="none"
       filter="url(#i)"
       stroke="url(#f)"
       stroke-linecap="round"
       stroke-linejoin="round"
       stroke-width="0.53024"
       id="path37"
       style="stroke:url(#f)" />
    <path
       d="m 222.78,189.18 c 23.314,-14.015 48.76,-13.72 58.61,-8.2061 10.732,7.1803 18.65,50.256 9.9306,87.376 -9.4193,19.915 -22.665,129.35 -31.286,144.26 -13.883,18.729 -34.177,15.572 -41.87,9.4177 -6.8596,-8.2061 -10.443,-11.79 -10.443,-20.701 4.9002,-82.645 -10.525,-144.95 -2.5644,-185.29 1.7182,-8.7069 7.174,-18.137 17.624,-26.856 z"
       fill="url(#e)"
       id="path39"
       style="fill:url(#e)" />
    <path
       d="m 533.91,188.56 c -23.314,-14.015 -48.76,-13.72 -58.61,-8.2061 -10.732,7.1803 -18.65,50.256 -9.9306,87.376 9.4193,19.915 22.665,129.35 31.286,144.26 13.883,18.729 34.177,15.572 41.87,9.4177 6.8596,-8.2061 10.443,-11.79 10.443,-20.701 -4.9002,-82.645 10.525,-144.95 2.5644,-185.29 -1.7182,-8.7069 -7.174,-18.137 -17.624,-26.856 z"
       fill="url(#d)"
       id="path41"
       style="fill:url(#d)" />
    <path
       d="m 329.83,468.53 c 5.5256,-30.821 85.474,-31.778 90.178,0.5172"
       fill="url(#c)"
       stroke="#5e5e5e"
       id="path43"
       style="fill:url(#c)" />
    <g
       font-family="'Arial Black'"
       font-size="20px"
       font-weight="bold"
       id="g49">
      <path
         d="m 375.05164,459.39843 c 0,1.296 -0.384,2.372 -1.152,3.228 -0.768,0.856 -1.792,1.284 -3.072,1.284 -1.264,0 -2.284,-0.42 -3.06,-1.26 -0.776,-0.848 -1.164,-1.956 -1.164,-3.324 0,-1.368 0.388,-2.47199 1.164,-3.312 0.776,-0.84799 1.792,-1.27199 3.048,-1.272 1.28,10e-6 2.304,0.42401 3.072,1.272 0.776,0.84801 1.164,1.97601 1.164,3.384 m -4.236,-3.672 c -0.928,1e-5 -1.676,0.33201 -2.244,0.996 -0.568,0.66399 -0.852,1.52401 -0.852,2.604 0,1.07999 0.284,1.952 0.852,2.616 0.576,0.656 1.328,0.984 2.256,0.984 0.928,0 1.676,-0.328 2.244,-0.984 0.576,-0.656 0.864,-1.512 0.864,-2.568 0,-1.10399 -0.284,-1.98799 -0.852,-2.652 -0.568,-0.66401 -1.324,-0.99599 -2.268,-0.996"
         id="path45" />
      <path
         d="m 383.23,454.89 v 8.748 h -1.26 l -4.524,-7.092 v 7.092 h -1.056 v -8.748 h 1.212 l 4.572,7.152 v -7.152 h 1.056"
         id="path47" />
    </g>
    <g
       transform="translate(0,-1.1152)"
       fill="#292929"
       stroke="#282828"
       id="g63">
      <path
         d="m 420.36,168.96 v -11.52 l 0.89974,-1.6457 0.89973,1.6457 v 11.629 l -0.98971,1.536 -0.80976,-1.6457 z"
         id="path51" />
      <path
         d="m 420.36,185.9 v -11.52 l 0.89974,-1.6457 0.89973,1.6457 v 11.629 l -0.98971,1.536 -0.80976,-1.6457 z"
         id="path53" />
      <path
         d="m 408.91,168.96 v -11.52 l 0.89974,-1.6457 0.89973,1.6457 v 11.629 l -0.98971,1.536 -0.80976,-1.6457 z"
         id="path55" />
      <path
         d="m 408.91,185.94 v -11.52 l 0.89974,-1.6457 0.89973,1.6457 v 11.629 l -0.98971,1.536 -0.80976,-1.6457 z"
         id="path57" />
      <path
         d="m 411.71,187.82 h 7.7516 l 1.1074,0.89974 -1.1074,0.89973 h -7.8254 l -1.0336,-0.98971 z"
         id="path59" />
      <path
         d="m 411.71,153.91 h 7.7516 l 1.1074,0.89973 -1.1074,0.89973 h -7.8254 l -1.0336,-0.98971 z"
         id="path61" />
    </g>
    <g
       transform="matrix(0.86689,0,0,0.86689,51.586,24.126)"
       fill="#292929"
       stroke="#282828"
       stroke-width="1.1536"
       id="g77">
      <path
         d="m 393.86,162.54 v -15.098 l 1.1792,-2.1569 1.1792,2.1569 v 15.242 l -1.2972,2.0131 -1.0613,-2.1569 z"
         id="path65" />
      <path
         d="m 393.86,184.74 v -15.098 l 1.1792,-2.1569 1.1792,2.1569 v 15.242 l -1.2972,2.0131 -1.0613,-2.1569 z"
         id="path67" />
      <path
         d="m 378.85,162.54 v -15.098 l 1.1792,-2.1569 1.1792,2.1569 v 15.242 l -1.2972,2.0131 -1.0613,-2.1569 z"
         id="path69" />
      <path
         d="m 378.85,184.79 v -15.098 l 1.1792,-2.1569 1.1792,2.1569 v 15.242 l -1.2972,2.0131 -1.0613,-2.1569 z"
         id="path71" />
      <path
         d="m 382.52,187.26 h 10.159 l 1.4514,1.1792 -1.4514,1.1792 h -10.256 l -1.3546,-1.2972 1.4514,-1.0613 z"
         id="path73" />
      <path
         d="m 382.52,142.82 h 10.159 l 1.4514,1.1792 -1.4514,1.1792 h -10.256 l -1.3546,-1.2972 1.4514,-1.0613 z"
         id="path75" />
    </g>
    <path
       d="m 400.76,184.77 h 3.9912 v 3.9912 H 400.76 Z"
       fill="#292929"
       stroke="#282828"
       stroke-width="0.5"
       id="path79" />
  </g>
</svg>
