<?xml version="1.0" encoding="UTF-8" standalone="no"?>
<svg
   xmlns:dc="http://purl.org/dc/elements/1.1/"
   xmlns:cc="http://creativecommons.org/ns#"
   xmlns:rdf="http://www.w3.org/1999/02/22-rdf-syntax-ns#"
   xmlns:svg="http://www.w3.org/2000/svg"
   xmlns="http://www.w3.org/2000/svg"
   xmlns:sodipodi="http://sodipodi.sourceforge.net/DTD/sodipodi-0.dtd"
   xmlns:inkscape="http://www.inkscape.org/namespaces/inkscape"
   version="1.1"
   x="0px"
   y="0px"
   width="122.92229mm"
   height="84.770981mm"
   viewBox="0 0 464.58818 320.39425"
   xml:space="preserve"
   id="svg58"
   sodipodi:docname="school.svg"
   inkscape:version="1.0.2-2 (e86c870879, 2021-01-15)"><metadata
   id="metadata64"><rdf:RDF><cc:Work
       rdf:about=""><dc:format>image/svg+xml</dc:format><dc:type
         rdf:resource="http://purl.org/dc/dcmitype/StillImage" /><dc:title /></cc:Work></rdf:RDF></metadata><defs
   id="defs62">
	
	
	
	
	
	
	
	
	
	
	
	
	
	
	
</defs><sodipodi:namedview
   pagecolor="#ffffff"
   bordercolor="#666666"
   borderopacity="1"
   objecttolerance="10"
   gridtolerance="10"
   guidetolerance="10"
   inkscape:pageopacity="0"
   inkscape:pageshadow="2"
   inkscape:window-width="1920"
   inkscape:window-height="1017"
   id="namedview60"
   showgrid="false"
   units="mm"
   inkscape:zoom="1.2788101"
   inkscape:cx="283.28136"
   inkscape:cy="137.34429"
   inkscape:window-x="-8"
   inkscape:window-y="-8"
   inkscape:window-maximized="1"
   inkscape:current-layer="svg58"
   inkscape:document-rotation="0" />
<ellipse
   cx="232.29408"
   cy="298.93286"
   rx="232.29408"
   ry="21.461395"
   id="ellipse8"
   style="stroke-width:3.5339" /><rect
   x="30.741432"
   y="138.68098"
   style="fill:#352200;stroke-width:3.5339"
   width="403.09824"
   height="10.432083"
   id="rect10" /><polygon
   style="fill:#d3d5d6"
   points="101.73,111.409 61.74,111.409 61.74,153.814 173.259,153.814 173.259,111.409 133.269,111.409 133.269,85.643 117.5,75.444 117.499,75.444 101.73,85.643 "
   id="polygon12"
   transform="matrix(3.5339035,0,0,3.5339035,-182.93958,-244.63094)" /><rect
   x="206.45419"
   y="229.69666"
   style="fill:#352200;stroke-width:3.5339"
   width="51.683338"
   height="69.239769"
   id="rect14" /><circle
   style="fill:#352200;stroke-width:3.5339"
   cx="232.29408"
   cy="99.755043"
   r="37.936451"
   id="circle16" /><circle
   style="fill:#ffffff;stroke-width:3.5339"
   cx="232.29408"
   cy="99.755043"
   r="32.190327"
   id="circle18" /><path
   style="fill:#352200;stroke-width:3.5339"
   d="m 229.45989,75.6114 v 23.164734 h -23.16474 v 6.785096 h 26.55729 v 0 c 1.86943,-0.004 3.38901,-1.51958 3.38901,-3.39255 h 0.004 V 75.6114 Z"
   id="path20" /><polygon
   style="fill:#352200"
   points="134.316,87.653 134.316,82.305 117.5,72.126 100.684,82.305 100.684,87.653 117.5,77.494 "
   id="polygon22"
   transform="matrix(3.5339035,0,0,3.5339035,-182.93958,-244.63094)" /><g
   id="g36"
   transform="matrix(3.5339035,0,0,3.5339035,-182.93958,-244.63094)">
		<rect
   x="65.498001"
   y="115.703"
   style="fill:#8fbdcf"
   width="9.6619997"
   height="12.749"
   id="rect24" />
		<rect
   x="78.917999"
   y="115.703"
   style="fill:#8fbdcf"
   width="9.6619997"
   height="12.749"
   id="rect26" />
		<rect
   x="92.336998"
   y="115.703"
   style="fill:#8fbdcf"
   width="9.6619997"
   height="12.749"
   id="rect28" />
		<rect
   x="65.498001"
   y="135.295"
   style="fill:#8fbdcf"
   width="9.6619997"
   height="12.749"
   id="rect30" />
		<rect
   x="78.917999"
   y="135.295"
   style="fill:#8fbdcf"
   width="9.6619997"
   height="12.749"
   id="rect32" />
		<rect
   x="92.336998"
   y="135.295"
   style="fill:#8fbdcf"
   width="9.6619997"
   height="12.749"
   id="rect34" />
	</g><g
   id="g50"
   transform="matrix(3.5339035,0,0,3.5339035,-182.93958,-244.63094)">
		<rect
   x="130.985"
   y="115.703"
   style="fill:#8fbdcf"
   width="9.6619997"
   height="12.749"
   id="rect38" />
		<rect
   x="144.405"
   y="115.703"
   style="fill:#8fbdcf"
   width="9.6619997"
   height="12.749"
   id="rect40" />
		<rect
   x="157.825"
   y="115.703"
   style="fill:#8fbdcf"
   width="9.6619997"
   height="12.749"
   id="rect42" />
		<rect
   x="130.985"
   y="135.295"
   style="fill:#8fbdcf"
   width="9.6619997"
   height="12.749"
   id="rect44" />
		<rect
   x="144.405"
   y="135.295"
   style="fill:#8fbdcf"
   width="9.6619997"
   height="12.749"
   id="rect46" />
		<rect
   x="157.825"
   y="135.295"
   style="fill:#8fbdcf"
   width="9.6619997"
   height="12.749"
   id="rect48" />
	</g><path
   style="fill:#58595b;stroke-width:3.5339"
   d="m 117.69313,0 c -2.57975,0 -4.67182,1.318146 -4.67182,2.9437416 V 308.03623 c 0,1.62559 2.09207,2.94374 4.67182,2.94374 2.58328,0 4.67535,-1.31815 4.67535,-2.94374 V 2.9437416 C 122.37248,1.318146 120.27994,0 117.69313,0 Z"
   id="path52" /><path
   style="fill:#ed2224;stroke-width:3.5339"
   d="m 113.02131,5.0040073 c -10.08576,0 -14.340579,7.9512827 -20.606194,10.0115487 -6.265611,2.060265 -16.870855,3.240589 -24.52529,2.943741 v 35.339036 c 11.191872,-0.293314 19.733317,-0.883476 26.801124,-5.891017 7.06781,-5.007541 11.3403,-6.184331 18.33389,-6.184331 V 5.0040073 Z"
   id="path54" />
<g
   id="Layer_1"
   transform="translate(-4.8483887,-5.9739857)">
</g>
</svg>
