<?xml version="1.0" encoding="UTF-8" standalone="no"?>
<svg
   xmlns:dc="http://purl.org/dc/elements/1.1/"
   xmlns:cc="http://creativecommons.org/ns#"
   xmlns:rdf="http://www.w3.org/1999/02/22-rdf-syntax-ns#"
   xmlns:svg="http://www.w3.org/2000/svg"
   xmlns="http://www.w3.org/2000/svg"
   xmlns:sodipodi="http://sodipodi.sourceforge.net/DTD/sodipodi-0.dtd"
   xmlns:inkscape="http://www.inkscape.org/namespaces/inkscape"
   version="1.1"
   viewBox="0 0 469.42498 227.41904"
   id="svg34"
   sodipodi:docname="shake.svg"
   width="124.20203mm"
   height="60.171288mm"
   inkscape:version="1.0.2-2 (e86c870879, 2021-01-15)">
  <metadata
     id="metadata40">
    <rdf:RDF>
      <cc:Work
         rdf:about="">
        <dc:format>image/svg+xml</dc:format>
        <dc:type
           rdf:resource="http://purl.org/dc/dcmitype/StillImage" />
        <dc:title></dc:title>
      </cc:Work>
    </rdf:RDF>
  </metadata>
  <defs
     id="defs38" />
  <sodipodi:namedview
     pagecolor="#ffffff"
     bordercolor="#666666"
     borderopacity="1"
     objecttolerance="10"
     gridtolerance="10"
     guidetolerance="10"
     inkscape:pageopacity="0"
     inkscape:pageshadow="2"
     inkscape:window-width="1920"
     inkscape:window-height="1017"
     id="namedview36"
     showgrid="false"
     units="mm"
     inkscape:zoom="1.2769608"
     inkscape:cx="113.75127"
     inkscape:cy="109.22017"
     inkscape:window-x="-8"
     inkscape:window-y="-8"
     inkscape:window-maximized="1"
     inkscape:current-layer="svg34" />
  <style
     type="text/css"
     id="style2">.st0{fill:#ECC19C;stroke:#000;}
	.st1{fill:none;stroke:#000;}
	.st2{fill:none;stroke:#000;stroke-linecap:round;}
	.st3{fill:#F2F2F2;stroke:#000;}
	.st4{fill:#42210B;stroke:#000;}
	.st5{fill:#9E005D;}</style>
  <path
     class="st0"
     d="m 2.6702376,4.1942486 c 0,0 124.4323124,40.0533244 132.4429924,44.3256794 8.01066,4.272354 61.41509,-21.895818 87.04922,-21.895818 25.63412,0 56.07465,34.178836 77.43642,34.178836 21.36178,0 167.15588,-42.723545 167.15588,-42.723545 V 141.44364 l -97.73011,18.69155 -5.87449,-24.56605 -24.56604,6.40854 c 3.73831,3.20427 5.87449,17.08942 -1.06809,21.36177 -6.94258,4.27236 -14.46007,1.60213 -18.19838,1.60213 4.8064,8.01067 7.88715,19.51261 -1.60213,24.56604 -9.99929,5.32503 -15.44642,1.06809 -20.25282,0 2.13618,4.8064 5.65806,10.76123 -3.90271,16.2275 -7.55724,4.32078 -21.80985,-1.13411 -21.80985,-1.13411 0,0 2.07198,13.95203 -9.45774,13.7161 C 250.76268,218.08119 168.75801,161.73732 158.07712,160.13519 115.35358,153.72666 2.6702376,128.09253 2.6702376,128.09253 Z"
     id="path6"
     sodipodi:nodetypes="cssscccccscscsczscc"
     style="stroke-width:5.34044" />
  <path
     class="st1"
     d="m 213.61772,26.090066 c -4.8064,4.806398 -56.07465,55.006565 -59.27891,57.676787 -3.20428,3.20427 -5.34045,11.74898 4.80639,19.759637 10.14685,8.01066 17.62347,0.53405 23.49795,-5.340447 4.27236,-4.27235 24.56604,-21.361767 34.17884,-29.372431 3.20426,-2.670222 8.01067,-3.204267 11.74897,-0.534045 l 109.47909,73.164073"
     id="path8"
     style="stroke-width:5.34044" />
  <line
     class="st2"
     x1="259.01151"
     x2="320.42661"
     y1="127.55848"
     y2="164.94157"
     id="line10"
     style="stroke-width:5.34044" />
  <line
     class="st2"
     x1="241.38803"
     x2="296.92865"
     y1="151.59047"
     y2="189.5076"
     id="line12"
     style="stroke-width:5.34044" />
  <polygon
     class="st3"
     points="74.8,50.6 88.5,47.9 82.7,24.5 69.7,27.7 "
     id="polygon14"
     transform="matrix(5.3404432,0,0,5.3404432,-30.974571,-104.75079)" />
  <polygon
     class="st4"
     points="88.5,46.9 93,46 93,22.8 83,25.6 "
     id="polygon16"
     transform="matrix(5.3404432,0,0,5.3404432,-30.974571,-104.75079)" />
  <polygon
     class="st3"
     points="13,46.8 24.6,49.2 31.2,26.8 19.8,23.4 "
     id="polygon18"
     transform="matrix(5.3404432,0,0,5.3404432,-30.974571,-104.75079)" />
  <polygon
     class="st4"
     points="19.4,24.5 13.5,45.1 6.3,43.5 6.3,20.3 "
     id="polygon20"
     transform="matrix(5.3404432,0,0,5.3404432,-30.974571,-104.75079)" />
  <path
     class="st0"
     d="m 131.90895,154.79474 c -4.27236,10.68089 -16.02134,36.84906 0,40.05333 16.02132,3.73831 14.95323,-12.81707 19.75963,-24.56604 4.8064,-12.81706 4.27236,-27.23626 -2.67022,-28.83839 -9.07875,-2.13618 -14.4192,6.94257 -17.08941,13.3511 z"
     id="path22"
     style="stroke-width:5.34044" />
  <path
     class="st0"
     d="m 181.04102,177.75865 c -4.27235,10.68089 -16.02133,36.84905 0,40.05333 16.02133,3.7383 14.95324,-12.81707 19.75964,-24.56604 4.8064,-12.81707 4.27235,-27.23626 -2.67022,-28.8384 -9.6128,-2.67022 -14.4192,6.94258 -17.08942,13.35111 z"
     id="path24"
     style="stroke-width:5.34044" />
  <path
     class="st0"
     d="m 207.20919,184.16718 c -4.27236,10.68089 -16.02133,36.84906 0,40.05333 16.02133,3.73831 14.95324,-12.81707 19.75964,-24.56604 4.80639,-12.81706 4.27236,-27.23626 -2.67022,-28.8384 -9.6128,-2.13618 -14.4192,6.94258 -17.08942,13.35111 z"
     id="path26"
     style="stroke-width:5.34044" />
  <path
     class="st0"
     d="m 156.47498,165.47563 c -4.27235,12.81707 -16.02133,42.72354 0,46.9959 16.02133,4.27235 14.95324,-15.48728 19.75964,-28.8384 4.8064,-15.48728 4.27235,-32.04265 -2.67023,-34.17883 -9.61279,-2.13617 -14.41919,8.54471 -17.08941,16.02133 z"
     id="path28"
     style="stroke-width:5.34044" />
  <line
     class="st2"
     x1="226.23137"
     x2="271.75012"
     y1="171.53056"
     y2="204.60101"
     id="line865"
     style="stroke-width:4.51514" />
</svg>
