<?xml version="1.0" encoding="UTF-8" standalone="no"?>
<svg
   xmlns:dc="http://purl.org/dc/elements/1.1/"
   xmlns:cc="http://creativecommons.org/ns#"
   xmlns:rdf="http://www.w3.org/1999/02/22-rdf-syntax-ns#"
   xmlns:svg="http://www.w3.org/2000/svg"
   xmlns="http://www.w3.org/2000/svg"
   xmlns:xlink="http://www.w3.org/1999/xlink"
   xmlns:sodipodi="http://sodipodi.sourceforge.net/DTD/sodipodi-0.dtd"
   xmlns:inkscape="http://www.inkscape.org/namespaces/inkscape"
   viewBox="0 0 472.44094 332.59843"
   version="1.1"
   id="svg411"
   sodipodi:docname="sharpener.svg"
   width="125mm"
   height="88mm"
   inkscape:version="1.0.2-2 (e86c870879, 2021-01-15)">
  <metadata
     id="metadata415">
    <rdf:RDF>
      <cc:Work
         rdf:about="">
        <dc:format>image/svg+xml</dc:format>
        <dc:type
           rdf:resource="http://purl.org/dc/dcmitype/StillImage" />
        <dc:title></dc:title>
      </cc:Work>
    </rdf:RDF>
  </metadata>
  <sodipodi:namedview
     pagecolor="#ffffff"
     bordercolor="#666666"
     borderopacity="1"
     objecttolerance="10"
     gridtolerance="10"
     guidetolerance="10"
     inkscape:pageopacity="0"
     inkscape:pageshadow="2"
     inkscape:window-width="1920"
     inkscape:window-height="1017"
     id="namedview413"
     showgrid="false"
     units="mm"
     inkscape:zoom="0.53125"
     inkscape:cx="373.56943"
     inkscape:cy="552.99489"
     inkscape:window-x="-8"
     inkscape:window-y="-8"
     inkscape:window-maximized="1"
     inkscape:current-layer="svg411" />
  <defs
     id="defs79">
    <filter
       id="ae">
      <feGaussianBlur
         stdDeviation="3.5316"
         id="feGaussianBlur2" />
    </filter>
    <filter
       id="ad">
      <feGaussianBlur
         stdDeviation="9.9934"
         id="feGaussianBlur5" />
    </filter>
    <filter
       id="b"
       x="-0.31277001"
       y="-0.019099999"
       width="1.6255"
       height="1.0382">
      <feGaussianBlur
         stdDeviation="1.7675"
         id="feGaussianBlur8" />
    </filter>
    <linearGradient
       id="c">
      <stop
         stop-color="#020202"
         offset="0"
         id="stop11" />
      <stop
         stop-color="#9c4003"
         stop-opacity=".993"
         offset="1"
         id="stop13" />
    </linearGradient>
    <linearGradient
       id="q">
      <stop
         stop-color="#fff"
         offset="0"
         id="stop16" />
      <stop
         stop-color="#fff"
         stop-opacity="0"
         offset="1"
         id="stop18" />
    </linearGradient>
    <linearGradient
       id="r">
      <stop
         stop-color="#f9f9f9"
         offset="0"
         id="stop21" />
      <stop
         stop-color="#f9f9f9"
         stop-opacity="0"
         offset="1"
         id="stop23" />
    </linearGradient>
    <linearGradient
       id="ac"
       x1="554.07001"
       x2="607.09998"
       y1="584.33002"
       y2="583.32001"
       gradientUnits="userSpaceOnUse">
      <stop
         stop-color="#9c4003"
         offset="0"
         id="stop26" />
      <stop
         stop-color="#f60"
         offset="1"
         id="stop28" />
    </linearGradient>
    <linearGradient
       id="ab"
       x1="733.37"
       x2="586.90002"
       y1="533.31"
       y2="599.97998"
       gradientUnits="userSpaceOnUse">
      <stop
         stop-color="#9c4003"
         offset="0"
         id="stop31" />
      <stop
         stop-color="#9c4003"
         stop-opacity="0"
         offset="1"
         id="stop33" />
    </linearGradient>
    <linearGradient
       id="y"
       x1="305.07001"
       x2="389.92001"
       y1="413.10999"
       y2="425.23001"
       gradientUnits="userSpaceOnUse">
      <stop
         offset="0"
         id="stop36" />
      <stop
         stop-opacity="0"
         offset="1"
         id="stop38" />
    </linearGradient>
    <linearGradient
       id="w"
       x1="375.78"
       x2="351.53"
       y1="342.39999"
       y2="431.29001"
       gradientUnits="userSpaceOnUse">
      <stop
         stop-color="#b3b3b3"
         offset="0"
         id="stop41" />
      <stop
         stop-color="#b3b3b3"
         stop-opacity="0"
         offset="1"
         id="stop43" />
    </linearGradient>
    <linearGradient
       id="v"
       x1="720.97998"
       x2="612.92999"
       y1="507.60001"
       y2="543.34003"
       gradientUnits="userSpaceOnUse">
      <stop
         stop-color="#520"
         offset="0"
         id="stop46" />
      <stop
         stop-color="#520"
         stop-opacity="0"
         offset="1"
         id="stop48" />
    </linearGradient>
    <linearGradient
       id="u"
       x1="222.86"
       x2="272.85999"
       gradientUnits="userSpaceOnUse">
      <stop
         stop-color="#a40"
         offset="0"
         id="stop51" />
      <stop
         stop-color="#a40"
         stop-opacity="0"
         offset="1"
         id="stop53" />
    </linearGradient>
    <linearGradient
       id="aa"
       x1="958.63"
       x2="600.03003"
       y1="387.85001"
       y2="600.98999"
       gradientUnits="userSpaceOnUse"
       xlink:href="#q" />
    <linearGradient
       id="z"
       x1="700.03998"
       x2="504.07001"
       y1="441.39001"
       y2="438.35999"
       gradientUnits="userSpaceOnUse"
       xlink:href="#q" />
    <linearGradient
       id="x"
       x1="391.94"
       x2="358.60001"
       y1="337.35001"
       y2="412.10001"
       gradientUnits="userSpaceOnUse"
       xlink:href="#r" />
    <radialGradient
       id="t"
       cx="594.40002"
       cy="367.29999"
       r="361.22"
       gradientTransform="matrix(1,0,0,0.54814,0,150.14)"
       gradientUnits="userSpaceOnUse">
      <stop
         stop-color="#fff"
         offset="0"
         id="stop59" />
      <stop
         stop-color="#f99d18"
         stop-opacity="0"
         offset="1"
         id="stop61" />
    </radialGradient>
    <radialGradient
       id="s"
       cx="380.07001"
       cy="391.66"
       r="39.143002"
       gradientTransform="matrix(1,0,0,0.57419,0,168.27)"
       gradientUnits="userSpaceOnUse"
       xlink:href="#r" />
    <radialGradient
       id="a"
       cx="306.17999"
       cy="541.54999"
       r="176.88"
       gradientUnits="userSpaceOnUse"
       xlink:href="#c" />
    <radialGradient
       id="p"
       cx="306.17999"
       cy="544.40997"
       r="176.88"
       gradientUnits="userSpaceOnUse"
       xlink:href="#c" />
    <radialGradient
       id="o"
       cx="326.39001"
       cy="549.46002"
       r="176.88"
       gradientUnits="userSpaceOnUse"
       xlink:href="#c" />
    <radialGradient
       id="n"
       cx="347.60001"
       cy="558.03998"
       r="176.88"
       gradientUnits="userSpaceOnUse"
       xlink:href="#c" />
    <radialGradient
       id="m"
       cx="447.10001"
       cy="594.40997"
       r="176.88"
       gradientUnits="userSpaceOnUse"
       xlink:href="#c" />
    <radialGradient
       id="l"
       cx="427.91"
       cy="586.33002"
       r="176.88"
       gradientUnits="userSpaceOnUse"
       xlink:href="#c" />
    <radialGradient
       id="k"
       cx="407.70001"
       cy="580.27002"
       r="176.88"
       gradientUnits="userSpaceOnUse"
       xlink:href="#c" />
    <radialGradient
       id="j"
       cx="388.01001"
       cy="572.69"
       r="176.88"
       gradientUnits="userSpaceOnUse"
       xlink:href="#c" />
    <radialGradient
       id="i"
       cx="367.29999"
       cy="564.09998"
       r="176.88"
       gradientUnits="userSpaceOnUse"
       xlink:href="#c" />
    <radialGradient
       id="h"
       cx="530.94"
       cy="625.71997"
       r="176.88"
       gradientUnits="userSpaceOnUse"
       xlink:href="#c" />
    <radialGradient
       id="g"
       cx="509.73001"
       cy="617.64001"
       r="176.88"
       gradientUnits="userSpaceOnUse"
       xlink:href="#c" />
    <radialGradient
       id="f"
       cx="489.01999"
       cy="609.56"
       r="176.88"
       gradientUnits="userSpaceOnUse"
       xlink:href="#c" />
    <radialGradient
       id="e"
       cx="468.82001"
       cy="603.5"
       r="176.88"
       gradientUnits="userSpaceOnUse"
       xlink:href="#c" />
    <radialGradient
       id="d"
       cx="551.65002"
       cy="633.79999"
       r="176.88"
       gradientUnits="userSpaceOnUse"
       xlink:href="#c" />
    <radialGradient
       inkscape:collect="always"
       xlink:href="#c"
       id="radialGradient1240"
       gradientUnits="userSpaceOnUse"
       cx="306.17999"
       cy="541.54999"
       r="176.88" />
    <radialGradient
       inkscape:collect="always"
       xlink:href="#c"
       id="radialGradient1242"
       gradientUnits="userSpaceOnUse"
       cx="306.17999"
       cy="541.54999"
       r="176.88" />
    <radialGradient
       inkscape:collect="always"
       xlink:href="#c"
       id="radialGradient1244"
       gradientUnits="userSpaceOnUse"
       cx="306.17999"
       cy="544.40997"
       r="176.88" />
    <radialGradient
       inkscape:collect="always"
       xlink:href="#c"
       id="radialGradient1246"
       gradientUnits="userSpaceOnUse"
       cx="306.17999"
       cy="544.40997"
       r="176.88" />
    <radialGradient
       inkscape:collect="always"
       xlink:href="#c"
       id="radialGradient1248"
       gradientUnits="userSpaceOnUse"
       cx="306.17999"
       cy="541.54999"
       r="176.88" />
    <radialGradient
       inkscape:collect="always"
       xlink:href="#c"
       id="radialGradient1250"
       gradientUnits="userSpaceOnUse"
       cx="306.17999"
       cy="541.54999"
       r="176.88" />
    <radialGradient
       inkscape:collect="always"
       xlink:href="#c"
       id="radialGradient1252"
       gradientUnits="userSpaceOnUse"
       cx="326.39001"
       cy="549.46002"
       r="176.88" />
    <radialGradient
       inkscape:collect="always"
       xlink:href="#c"
       id="radialGradient1254"
       gradientUnits="userSpaceOnUse"
       cx="326.39001"
       cy="549.46002"
       r="176.88" />
    <radialGradient
       inkscape:collect="always"
       xlink:href="#c"
       id="radialGradient1256"
       gradientUnits="userSpaceOnUse"
       cx="306.17999"
       cy="541.54999"
       r="176.88" />
    <radialGradient
       inkscape:collect="always"
       xlink:href="#c"
       id="radialGradient1258"
       gradientUnits="userSpaceOnUse"
       cx="306.17999"
       cy="541.54999"
       r="176.88" />
    <radialGradient
       inkscape:collect="always"
       xlink:href="#c"
       id="radialGradient1260"
       gradientUnits="userSpaceOnUse"
       cx="347.60001"
       cy="558.03998"
       r="176.88" />
    <radialGradient
       inkscape:collect="always"
       xlink:href="#c"
       id="radialGradient1262"
       gradientUnits="userSpaceOnUse"
       cx="347.60001"
       cy="558.03998"
       r="176.88" />
    <radialGradient
       inkscape:collect="always"
       xlink:href="#c"
       id="radialGradient1264"
       gradientUnits="userSpaceOnUse"
       cx="306.17999"
       cy="541.54999"
       r="176.88" />
    <radialGradient
       inkscape:collect="always"
       xlink:href="#c"
       id="radialGradient1266"
       gradientUnits="userSpaceOnUse"
       cx="306.17999"
       cy="541.54999"
       r="176.88" />
    <radialGradient
       inkscape:collect="always"
       xlink:href="#c"
       id="radialGradient1268"
       gradientUnits="userSpaceOnUse"
       cx="447.10001"
       cy="594.40997"
       r="176.88" />
    <radialGradient
       inkscape:collect="always"
       xlink:href="#c"
       id="radialGradient1270"
       gradientUnits="userSpaceOnUse"
       cx="447.10001"
       cy="594.40997"
       r="176.88" />
    <radialGradient
       inkscape:collect="always"
       xlink:href="#c"
       id="radialGradient1272"
       gradientUnits="userSpaceOnUse"
       cx="306.17999"
       cy="541.54999"
       r="176.88" />
    <radialGradient
       inkscape:collect="always"
       xlink:href="#c"
       id="radialGradient1274"
       gradientUnits="userSpaceOnUse"
       cx="306.17999"
       cy="541.54999"
       r="176.88" />
    <radialGradient
       inkscape:collect="always"
       xlink:href="#c"
       id="radialGradient1276"
       gradientUnits="userSpaceOnUse"
       cx="427.91"
       cy="586.33002"
       r="176.88" />
    <radialGradient
       inkscape:collect="always"
       xlink:href="#c"
       id="radialGradient1278"
       gradientUnits="userSpaceOnUse"
       cx="427.91"
       cy="586.33002"
       r="176.88" />
    <radialGradient
       inkscape:collect="always"
       xlink:href="#c"
       id="radialGradient1280"
       gradientUnits="userSpaceOnUse"
       cx="306.17999"
       cy="541.54999"
       r="176.88" />
    <radialGradient
       inkscape:collect="always"
       xlink:href="#c"
       id="radialGradient1282"
       gradientUnits="userSpaceOnUse"
       cx="306.17999"
       cy="541.54999"
       r="176.88" />
    <radialGradient
       inkscape:collect="always"
       xlink:href="#c"
       id="radialGradient1284"
       gradientUnits="userSpaceOnUse"
       cx="407.70001"
       cy="580.27002"
       r="176.88" />
    <radialGradient
       inkscape:collect="always"
       xlink:href="#c"
       id="radialGradient1286"
       gradientUnits="userSpaceOnUse"
       cx="407.70001"
       cy="580.27002"
       r="176.88" />
    <radialGradient
       inkscape:collect="always"
       xlink:href="#c"
       id="radialGradient1288"
       gradientUnits="userSpaceOnUse"
       cx="306.17999"
       cy="541.54999"
       r="176.88" />
    <radialGradient
       inkscape:collect="always"
       xlink:href="#c"
       id="radialGradient1290"
       gradientUnits="userSpaceOnUse"
       cx="306.17999"
       cy="541.54999"
       r="176.88" />
    <radialGradient
       inkscape:collect="always"
       xlink:href="#c"
       id="radialGradient1292"
       gradientUnits="userSpaceOnUse"
       cx="388.01001"
       cy="572.69"
       r="176.88" />
    <radialGradient
       inkscape:collect="always"
       xlink:href="#c"
       id="radialGradient1294"
       gradientUnits="userSpaceOnUse"
       cx="388.01001"
       cy="572.69"
       r="176.88" />
    <radialGradient
       inkscape:collect="always"
       xlink:href="#c"
       id="radialGradient1296"
       gradientUnits="userSpaceOnUse"
       cx="306.17999"
       cy="541.54999"
       r="176.88" />
    <radialGradient
       inkscape:collect="always"
       xlink:href="#c"
       id="radialGradient1298"
       gradientUnits="userSpaceOnUse"
       cx="306.17999"
       cy="541.54999"
       r="176.88" />
    <radialGradient
       inkscape:collect="always"
       xlink:href="#c"
       id="radialGradient1300"
       gradientUnits="userSpaceOnUse"
       cx="367.29999"
       cy="564.09998"
       r="176.88" />
    <radialGradient
       inkscape:collect="always"
       xlink:href="#c"
       id="radialGradient1302"
       gradientUnits="userSpaceOnUse"
       cx="367.29999"
       cy="564.09998"
       r="176.88" />
    <radialGradient
       inkscape:collect="always"
       xlink:href="#c"
       id="radialGradient1304"
       gradientUnits="userSpaceOnUse"
       cx="306.17999"
       cy="541.54999"
       r="176.88" />
    <radialGradient
       inkscape:collect="always"
       xlink:href="#c"
       id="radialGradient1306"
       gradientUnits="userSpaceOnUse"
       cx="306.17999"
       cy="541.54999"
       r="176.88" />
    <radialGradient
       inkscape:collect="always"
       xlink:href="#c"
       id="radialGradient1308"
       gradientUnits="userSpaceOnUse"
       cx="530.94"
       cy="625.71997"
       r="176.88" />
    <radialGradient
       inkscape:collect="always"
       xlink:href="#c"
       id="radialGradient1310"
       gradientUnits="userSpaceOnUse"
       cx="530.94"
       cy="625.71997"
       r="176.88" />
    <radialGradient
       inkscape:collect="always"
       xlink:href="#c"
       id="radialGradient1312"
       gradientUnits="userSpaceOnUse"
       cx="306.17999"
       cy="541.54999"
       r="176.88" />
    <radialGradient
       inkscape:collect="always"
       xlink:href="#c"
       id="radialGradient1314"
       gradientUnits="userSpaceOnUse"
       cx="306.17999"
       cy="541.54999"
       r="176.88" />
    <radialGradient
       inkscape:collect="always"
       xlink:href="#c"
       id="radialGradient1316"
       gradientUnits="userSpaceOnUse"
       cx="509.73001"
       cy="617.64001"
       r="176.88" />
    <radialGradient
       inkscape:collect="always"
       xlink:href="#c"
       id="radialGradient1318"
       gradientUnits="userSpaceOnUse"
       cx="509.73001"
       cy="617.64001"
       r="176.88" />
    <radialGradient
       inkscape:collect="always"
       xlink:href="#c"
       id="radialGradient1320"
       gradientUnits="userSpaceOnUse"
       cx="306.17999"
       cy="541.54999"
       r="176.88" />
    <radialGradient
       inkscape:collect="always"
       xlink:href="#c"
       id="radialGradient1322"
       gradientUnits="userSpaceOnUse"
       cx="306.17999"
       cy="541.54999"
       r="176.88" />
    <radialGradient
       inkscape:collect="always"
       xlink:href="#c"
       id="radialGradient1324"
       gradientUnits="userSpaceOnUse"
       cx="489.01999"
       cy="609.56"
       r="176.88" />
    <radialGradient
       inkscape:collect="always"
       xlink:href="#c"
       id="radialGradient1326"
       gradientUnits="userSpaceOnUse"
       cx="489.01999"
       cy="609.56"
       r="176.88" />
    <radialGradient
       inkscape:collect="always"
       xlink:href="#c"
       id="radialGradient1328"
       gradientUnits="userSpaceOnUse"
       cx="306.17999"
       cy="541.54999"
       r="176.88" />
    <radialGradient
       inkscape:collect="always"
       xlink:href="#c"
       id="radialGradient1330"
       gradientUnits="userSpaceOnUse"
       cx="306.17999"
       cy="541.54999"
       r="176.88" />
    <radialGradient
       inkscape:collect="always"
       xlink:href="#c"
       id="radialGradient1332"
       gradientUnits="userSpaceOnUse"
       cx="468.82001"
       cy="603.5"
       r="176.88" />
    <radialGradient
       inkscape:collect="always"
       xlink:href="#c"
       id="radialGradient1334"
       gradientUnits="userSpaceOnUse"
       cx="468.82001"
       cy="603.5"
       r="176.88" />
    <radialGradient
       inkscape:collect="always"
       xlink:href="#c"
       id="radialGradient1336"
       gradientUnits="userSpaceOnUse"
       cx="306.17999"
       cy="541.54999"
       r="176.88" />
    <radialGradient
       inkscape:collect="always"
       xlink:href="#c"
       id="radialGradient1338"
       gradientUnits="userSpaceOnUse"
       cx="306.17999"
       cy="541.54999"
       r="176.88" />
    <radialGradient
       inkscape:collect="always"
       xlink:href="#c"
       id="radialGradient1340"
       gradientUnits="userSpaceOnUse"
       cx="306.17999"
       cy="541.54999"
       r="176.88" />
    <radialGradient
       inkscape:collect="always"
       xlink:href="#c"
       id="radialGradient1342"
       gradientUnits="userSpaceOnUse"
       cx="306.17999"
       cy="541.54999"
       r="176.88" />
    <radialGradient
       inkscape:collect="always"
       xlink:href="#c"
       id="radialGradient1344"
       gradientUnits="userSpaceOnUse"
       cx="306.17999"
       cy="541.54999"
       r="176.88" />
    <radialGradient
       inkscape:collect="always"
       xlink:href="#c"
       id="radialGradient1346"
       gradientUnits="userSpaceOnUse"
       cx="306.17999"
       cy="541.54999"
       r="176.88" />
    <radialGradient
       inkscape:collect="always"
       xlink:href="#c"
       id="radialGradient1348"
       gradientUnits="userSpaceOnUse"
       cx="551.65002"
       cy="633.79999"
       r="176.88" />
    <radialGradient
       inkscape:collect="always"
       xlink:href="#c"
       id="radialGradient1350"
       gradientUnits="userSpaceOnUse"
       cx="551.65002"
       cy="633.79999"
       r="176.88" />
    <radialGradient
       inkscape:collect="always"
       xlink:href="#c"
       id="radialGradient1352"
       gradientUnits="userSpaceOnUse"
       cx="306.17999"
       cy="541.54999"
       r="176.88" />
    <radialGradient
       inkscape:collect="always"
       xlink:href="#c"
       id="radialGradient1354"
       gradientUnits="userSpaceOnUse"
       cx="306.17999"
       cy="541.54999"
       r="176.88" />
    <radialGradient
       inkscape:collect="always"
       xlink:href="#c"
       id="radialGradient1356"
       gradientUnits="userSpaceOnUse"
       cx="306.17999"
       cy="541.54999"
       r="176.88" />
    <radialGradient
       inkscape:collect="always"
       xlink:href="#c"
       id="radialGradient1358"
       gradientUnits="userSpaceOnUse"
       cx="306.17999"
       cy="541.54999"
       r="176.88" />
    <radialGradient
       inkscape:collect="always"
       xlink:href="#c"
       id="radialGradient1360"
       gradientUnits="userSpaceOnUse"
       cx="306.17999"
       cy="541.54999"
       r="176.88" />
    <radialGradient
       inkscape:collect="always"
       xlink:href="#c"
       id="radialGradient1362"
       gradientUnits="userSpaceOnUse"
       cx="306.17999"
       cy="541.54999"
       r="176.88" />
    <radialGradient
       inkscape:collect="always"
       xlink:href="#c"
       id="radialGradient1364"
       gradientUnits="userSpaceOnUse"
       cx="306.17999"
       cy="541.54999"
       r="176.88" />
    <radialGradient
       inkscape:collect="always"
       xlink:href="#c"
       id="radialGradient1366"
       gradientUnits="userSpaceOnUse"
       cx="306.17999"
       cy="541.54999"
       r="176.88" />
    <radialGradient
       inkscape:collect="always"
       xlink:href="#c"
       id="radialGradient1368"
       gradientUnits="userSpaceOnUse"
       cx="306.17999"
       cy="541.54999"
       r="176.88" />
    <radialGradient
       inkscape:collect="always"
       xlink:href="#c"
       id="radialGradient1370"
       gradientUnits="userSpaceOnUse"
       cx="306.17999"
       cy="541.54999"
       r="176.88" />
    <radialGradient
       inkscape:collect="always"
       xlink:href="#c"
       id="radialGradient1372"
       gradientUnits="userSpaceOnUse"
       cx="306.17999"
       cy="541.54999"
       r="176.88" />
    <radialGradient
       inkscape:collect="always"
       xlink:href="#c"
       id="radialGradient1374"
       gradientUnits="userSpaceOnUse"
       cx="306.17999"
       cy="541.54999"
       r="176.88" />
    <radialGradient
       inkscape:collect="always"
       xlink:href="#c"
       id="radialGradient1376"
       gradientUnits="userSpaceOnUse"
       cx="306.17999"
       cy="541.54999"
       r="176.88" />
    <radialGradient
       inkscape:collect="always"
       xlink:href="#c"
       id="radialGradient1378"
       gradientUnits="userSpaceOnUse"
       cx="306.17999"
       cy="541.54999"
       r="176.88" />
    <radialGradient
       inkscape:collect="always"
       xlink:href="#c"
       id="radialGradient1380"
       gradientUnits="userSpaceOnUse"
       cx="306.17999"
       cy="544.40997"
       r="176.88" />
    <radialGradient
       inkscape:collect="always"
       xlink:href="#c"
       id="radialGradient1382"
       gradientUnits="userSpaceOnUse"
       cx="306.17999"
       cy="541.54999"
       r="176.88" />
    <radialGradient
       inkscape:collect="always"
       xlink:href="#c"
       id="radialGradient1384"
       gradientUnits="userSpaceOnUse"
       cx="306.17999"
       cy="541.54999"
       r="176.88" />
    <radialGradient
       inkscape:collect="always"
       xlink:href="#c"
       id="radialGradient1386"
       gradientUnits="userSpaceOnUse"
       cx="326.39001"
       cy="549.46002"
       r="176.88" />
    <radialGradient
       inkscape:collect="always"
       xlink:href="#c"
       id="radialGradient1388"
       gradientUnits="userSpaceOnUse"
       cx="306.17999"
       cy="541.54999"
       r="176.88" />
    <radialGradient
       inkscape:collect="always"
       xlink:href="#c"
       id="radialGradient1390"
       gradientUnits="userSpaceOnUse"
       cx="306.17999"
       cy="541.54999"
       r="176.88" />
    <radialGradient
       inkscape:collect="always"
       xlink:href="#c"
       id="radialGradient1392"
       gradientUnits="userSpaceOnUse"
       cx="347.60001"
       cy="558.03998"
       r="176.88" />
    <radialGradient
       inkscape:collect="always"
       xlink:href="#c"
       id="radialGradient1394"
       gradientUnits="userSpaceOnUse"
       cx="306.17999"
       cy="541.54999"
       r="176.88" />
    <radialGradient
       inkscape:collect="always"
       xlink:href="#c"
       id="radialGradient1396"
       gradientUnits="userSpaceOnUse"
       cx="306.17999"
       cy="541.54999"
       r="176.88" />
    <radialGradient
       inkscape:collect="always"
       xlink:href="#c"
       id="radialGradient1398"
       gradientUnits="userSpaceOnUse"
       cx="447.10001"
       cy="594.40997"
       r="176.88" />
    <radialGradient
       inkscape:collect="always"
       xlink:href="#c"
       id="radialGradient1400"
       gradientUnits="userSpaceOnUse"
       cx="306.17999"
       cy="541.54999"
       r="176.88" />
    <radialGradient
       inkscape:collect="always"
       xlink:href="#c"
       id="radialGradient1402"
       gradientUnits="userSpaceOnUse"
       cx="306.17999"
       cy="541.54999"
       r="176.88" />
    <radialGradient
       inkscape:collect="always"
       xlink:href="#c"
       id="radialGradient1404"
       gradientUnits="userSpaceOnUse"
       cx="427.91"
       cy="586.33002"
       r="176.88" />
    <radialGradient
       inkscape:collect="always"
       xlink:href="#c"
       id="radialGradient1406"
       gradientUnits="userSpaceOnUse"
       cx="306.17999"
       cy="541.54999"
       r="176.88" />
    <radialGradient
       inkscape:collect="always"
       xlink:href="#c"
       id="radialGradient1408"
       gradientUnits="userSpaceOnUse"
       cx="306.17999"
       cy="541.54999"
       r="176.88" />
    <radialGradient
       inkscape:collect="always"
       xlink:href="#c"
       id="radialGradient1410"
       gradientUnits="userSpaceOnUse"
       cx="407.70001"
       cy="580.27002"
       r="176.88" />
    <radialGradient
       inkscape:collect="always"
       xlink:href="#c"
       id="radialGradient1412"
       gradientUnits="userSpaceOnUse"
       cx="306.17999"
       cy="541.54999"
       r="176.88" />
    <radialGradient
       inkscape:collect="always"
       xlink:href="#c"
       id="radialGradient1414"
       gradientUnits="userSpaceOnUse"
       cx="306.17999"
       cy="541.54999"
       r="176.88" />
    <radialGradient
       inkscape:collect="always"
       xlink:href="#c"
       id="radialGradient1416"
       gradientUnits="userSpaceOnUse"
       cx="388.01001"
       cy="572.69"
       r="176.88" />
    <radialGradient
       inkscape:collect="always"
       xlink:href="#c"
       id="radialGradient1418"
       gradientUnits="userSpaceOnUse"
       cx="306.17999"
       cy="541.54999"
       r="176.88" />
    <radialGradient
       inkscape:collect="always"
       xlink:href="#c"
       id="radialGradient1420"
       gradientUnits="userSpaceOnUse"
       cx="306.17999"
       cy="541.54999"
       r="176.88" />
    <radialGradient
       inkscape:collect="always"
       xlink:href="#c"
       id="radialGradient1422"
       gradientUnits="userSpaceOnUse"
       cx="367.29999"
       cy="564.09998"
       r="176.88" />
    <radialGradient
       inkscape:collect="always"
       xlink:href="#c"
       id="radialGradient1424"
       gradientUnits="userSpaceOnUse"
       cx="306.17999"
       cy="541.54999"
       r="176.88" />
    <radialGradient
       inkscape:collect="always"
       xlink:href="#c"
       id="radialGradient1426"
       gradientUnits="userSpaceOnUse"
       cx="306.17999"
       cy="541.54999"
       r="176.88" />
    <radialGradient
       inkscape:collect="always"
       xlink:href="#c"
       id="radialGradient1428"
       gradientUnits="userSpaceOnUse"
       cx="530.94"
       cy="625.71997"
       r="176.88" />
    <radialGradient
       inkscape:collect="always"
       xlink:href="#c"
       id="radialGradient1430"
       gradientUnits="userSpaceOnUse"
       cx="306.17999"
       cy="541.54999"
       r="176.88" />
    <radialGradient
       inkscape:collect="always"
       xlink:href="#c"
       id="radialGradient1432"
       gradientUnits="userSpaceOnUse"
       cx="306.17999"
       cy="541.54999"
       r="176.88" />
    <radialGradient
       inkscape:collect="always"
       xlink:href="#c"
       id="radialGradient1434"
       gradientUnits="userSpaceOnUse"
       cx="509.73001"
       cy="617.64001"
       r="176.88" />
    <radialGradient
       inkscape:collect="always"
       xlink:href="#c"
       id="radialGradient1436"
       gradientUnits="userSpaceOnUse"
       cx="306.17999"
       cy="541.54999"
       r="176.88" />
    <radialGradient
       inkscape:collect="always"
       xlink:href="#c"
       id="radialGradient1438"
       gradientUnits="userSpaceOnUse"
       cx="306.17999"
       cy="541.54999"
       r="176.88" />
    <radialGradient
       inkscape:collect="always"
       xlink:href="#c"
       id="radialGradient1440"
       gradientUnits="userSpaceOnUse"
       cx="489.01999"
       cy="609.56"
       r="176.88" />
    <radialGradient
       inkscape:collect="always"
       xlink:href="#c"
       id="radialGradient1442"
       gradientUnits="userSpaceOnUse"
       cx="306.17999"
       cy="541.54999"
       r="176.88" />
    <radialGradient
       inkscape:collect="always"
       xlink:href="#c"
       id="radialGradient1444"
       gradientUnits="userSpaceOnUse"
       cx="306.17999"
       cy="541.54999"
       r="176.88" />
    <radialGradient
       inkscape:collect="always"
       xlink:href="#c"
       id="radialGradient1446"
       gradientUnits="userSpaceOnUse"
       cx="468.82001"
       cy="603.5"
       r="176.88" />
    <radialGradient
       inkscape:collect="always"
       xlink:href="#c"
       id="radialGradient1448"
       gradientUnits="userSpaceOnUse"
       cx="306.17999"
       cy="541.54999"
       r="176.88" />
    <radialGradient
       inkscape:collect="always"
       xlink:href="#c"
       id="radialGradient1450"
       gradientUnits="userSpaceOnUse"
       cx="306.17999"
       cy="541.54999"
       r="176.88" />
    <radialGradient
       inkscape:collect="always"
       xlink:href="#c"
       id="radialGradient1452"
       gradientUnits="userSpaceOnUse"
       cx="306.17999"
       cy="541.54999"
       r="176.88" />
    <radialGradient
       inkscape:collect="always"
       xlink:href="#c"
       id="radialGradient1454"
       gradientUnits="userSpaceOnUse"
       cx="306.17999"
       cy="541.54999"
       r="176.88" />
    <radialGradient
       inkscape:collect="always"
       xlink:href="#c"
       id="radialGradient1456"
       gradientUnits="userSpaceOnUse"
       cx="306.17999"
       cy="541.54999"
       r="176.88" />
    <radialGradient
       inkscape:collect="always"
       xlink:href="#c"
       id="radialGradient1458"
       gradientUnits="userSpaceOnUse"
       cx="306.17999"
       cy="541.54999"
       r="176.88" />
    <radialGradient
       inkscape:collect="always"
       xlink:href="#c"
       id="radialGradient1460"
       gradientUnits="userSpaceOnUse"
       cx="551.65002"
       cy="633.79999"
       r="176.88" />
    <radialGradient
       inkscape:collect="always"
       xlink:href="#c"
       id="radialGradient1462"
       gradientUnits="userSpaceOnUse"
       cx="306.17999"
       cy="541.54999"
       r="176.88" />
    <radialGradient
       inkscape:collect="always"
       xlink:href="#c"
       id="radialGradient1464"
       gradientUnits="userSpaceOnUse"
       cx="306.17999"
       cy="541.54999"
       r="176.88" />
    <radialGradient
       inkscape:collect="always"
       xlink:href="#c"
       id="radialGradient1466"
       gradientUnits="userSpaceOnUse"
       cx="306.17999"
       cy="541.54999"
       r="176.88" />
    <radialGradient
       inkscape:collect="always"
       xlink:href="#c"
       id="radialGradient1468"
       gradientUnits="userSpaceOnUse"
       cx="306.17999"
       cy="541.54999"
       r="176.88" />
    <radialGradient
       inkscape:collect="always"
       xlink:href="#c"
       id="radialGradient1470"
       gradientUnits="userSpaceOnUse"
       cx="306.17999"
       cy="541.54999"
       r="176.88" />
    <radialGradient
       inkscape:collect="always"
       xlink:href="#c"
       id="radialGradient1472"
       gradientUnits="userSpaceOnUse"
       cx="306.17999"
       cy="541.54999"
       r="176.88" />
    <radialGradient
       inkscape:collect="always"
       xlink:href="#c"
       id="radialGradient1474"
       gradientUnits="userSpaceOnUse"
       cx="306.17999"
       cy="541.54999"
       r="176.88" />
    <radialGradient
       inkscape:collect="always"
       xlink:href="#c"
       id="radialGradient1476"
       gradientUnits="userSpaceOnUse"
       cx="306.17999"
       cy="541.54999"
       r="176.88" />
    <radialGradient
       inkscape:collect="always"
       xlink:href="#c"
       id="radialGradient1478"
       gradientUnits="userSpaceOnUse"
       cx="306.17999"
       cy="541.54999"
       r="176.88" />
    <radialGradient
       inkscape:collect="always"
       xlink:href="#c"
       id="radialGradient1480"
       gradientUnits="userSpaceOnUse"
       cx="306.17999"
       cy="541.54999"
       r="176.88" />
    <radialGradient
       inkscape:collect="always"
       xlink:href="#c"
       id="radialGradient1482"
       gradientUnits="userSpaceOnUse"
       cx="306.17999"
       cy="541.54999"
       r="176.88" />
  </defs>
  <g
     transform="matrix(0.44603914,0,0,0.43974905,53.003931,-63.582944)"
     id="g409">
    <path
       d="m 271.95505,219.12312 c -14.0862,0.0231 -27.7413,2.48726 -40.625,9.125 L 54.54875,394.90437 c -0.1122,1.86597 -0.1647,3.72 -0.1562,5.5625 -0.076,-1.65865 -0.1783,-3.31679 -0.3438,-5.03125 l -1.0312,236.375 c 25.4313,12.27295 51.2656,23.97013 77.4062,35.25 1.4677,0.63328 2.927,2.20165 4.4063,2.5 l 0.031,2.71875 c 3.1108,-0.21124 6.2834,-0.76576 9.1874,-0.96875 v 0.0312 c 0.7247,-0.0511 1.4103,-0.0981 2.0938,-0.0937 0.1742,10e-4 0.3602,-0.006 0.5312,0 0.061,0.002 0.1267,0.0286 0.1876,0.0312 0.1055,0.005 0.2082,-0.007 0.3124,0 0.3293,0.0203 0.6534,0.0526 0.9688,0.0937 0.3154,0.0411 0.604,0.0898 0.9062,0.15625 l 0.125,0.0312 h 0.031 c 0.2454,0.0572 0.4849,0.14329 0.7187,0.21875 l 0.2188,0.0625 c 0.2061,0.0731 0.3977,0.16068 0.5938,0.25 0.1961,0.0893 0.4063,0.17216 0.5937,0.28125 0.064,0.0367 0.1252,0.0861 0.1875,0.125 0.3034,0.1911 0.6044,0.41083 0.875,0.65625 0.164,0.1478 0.3176,0.29949 0.4688,0.46875 0.1512,0.16926 0.3,0.37005 0.4374,0.5625 0.044,0.0615 0.082,0.12359 0.125,0.1875 0.013,0.0198 0.018,0.0425 0.031,0.0625 0.076,0.11737 0.1472,0.21829 0.2187,0.34375 0.087,0.15095 0.17,0.30556 0.25,0.46875 0.035,0.0721 0.06,0.1442 0.094,0.21875 0.1129,0.24745 0.2158,0.4747 0.3125,0.75 0.1871,0.53466 0.3462,1.13499 0.4687,1.78125 v 0.0625 c 0.1171,0.63046 0.1984,1.31796 0.25,2.0625 v -0.28125 c 0.01,0.096 0.024,0.18325 0.031,0.28125 v -2.78125 c 0.5717,-0.0393 1.1439,-0.0976 1.7187,-0.15625 2.5321,-0.25822 5.0855,-0.64611 7.4376,-0.8125 h 0.031 c 0.7135,-0.0497 1.4203,-0.0668 2.0938,-0.0625 0.1672,10e-4 0.3356,-0.006 0.5,0 0.126,0.004 0.2506,0.0245 0.375,0.0312 0.073,0.004 0.1458,-0.005 0.2187,0 0.2966,0.02 0.5898,0.0565 0.875,0.0937 l 0.625,0.0937 0.1875,0.0312 0.125,0.0312 0.2188,0.0625 c 1.1097,0.26719 2.0971,0.70172 2.9374,1.40625 l 0.1563,0.125 c 0.1699,0.15201 0.3126,0.3251 0.4687,0.5 0.1509,0.16985 0.3001,0.3388 0.4376,0.53125 0.013,0.0182 0.018,0.0441 0.031,0.0625 0.038,0.0539 0.088,0.10055 0.125,0.15625 0.085,0.12851 0.1711,0.26792 0.25,0.40625 0.019,0.0329 0.044,0.0602 0.062,0.0937 0.023,0.0415 0.04,0.0826 0.062,0.125 0.08,0.15088 0.1456,0.30649 0.2188,0.46875 0.1728,0.38323 0.3035,0.79991 0.4374,1.25 0.064,0.21463 0.1325,0.4255 0.1876,0.65625 0.048,0.20267 0.084,0.40958 0.125,0.625 0.01,0.0303 -0.01,0.0632 0,0.0937 0.054,0.29598 0.116,0.58574 0.1562,0.90625 0.045,0.35756 0.098,0.7043 0.125,1.09375 l -0.062,-21.75 c 0.3024,0.003 0.6031,-0.005 0.9063,0 l 0.1562,22.53125 c 3.1034,-0.21074 6.2891,-0.76452 9.1875,-0.96875 2.174,-0.15323 4.1756,-0.11096 5.875,0.4375 l 0.2187,0.0625 c 0.2085,0.0737 0.4269,0.15969 0.625,0.25 0.1981,0.0903 0.3751,0.20341 0.5626,0.3125 0.3154,0.1817 0.624,0.38843 0.9062,0.625 l 0.1562,0.125 c 0.1699,0.15201 0.3126,0.3251 0.4688,0.5 0.3017,0.3397 0.5657,0.72378 0.8125,1.15625 0.1812,0.31536 0.3505,0.66174 0.5,1.03125 0.053,0.13285 0.1072,0.26615 0.1563,0.40625 0.083,0.23733 0.1481,0.4912 0.2187,0.75 v 1.375 l 0.3125,-0.0312 v 0.0312 0.0312 c 0.033,0.20279 0.067,0.41123 0.094,0.625 0.045,0.35756 0.098,0.7043 0.125,1.09375 v -1.78125 c 0.4098,-0.0327 0.8389,-0.0831 1.25,-0.125 2.5317,-0.25819 5.0543,-0.64607 7.4062,-0.8125 1.4493,-0.10216 2.8322,-0.10217 4.0938,0.0625 l 0.625,0.0937 0.1874,0.0312 0.125,0.0312 h 0.031 c 0.063,0.0141 0.1252,0.0472 0.1875,0.0625 0.019,0.005 0.043,-0.005 0.062,0 l 0.1563,0.0312 0.4374,0.125 0.125,0.0312 0.063,0.0312 c 0.2158,0.0756 0.4201,0.15663 0.625,0.25 0.2049,0.0934 0.4063,0.20341 0.5937,0.3125 0.1079,0.0628 0.2084,0.11847 0.3125,0.1875 l 0.2188,0.15625 c 0.1201,0.0867 0.2292,0.18524 0.3437,0.28125 0.2195,0.18611 0.4273,0.37115 0.625,0.59375 l 0.031,0.0312 c 0.1407,0.16067 0.2772,0.35064 0.4062,0.53125 0.081,0.11366 0.1737,0.22188 0.25,0.34375 0.053,0.0845 0.1057,0.16149 0.1562,0.25 0.087,0.15095 0.17,0.30556 0.25,0.46875 0.035,0.0721 0.06,0.1442 0.094,0.21875 0.1139,0.24919 0.215,0.50378 0.3125,0.78125 0.1871,0.53466 0.3149,1.10374 0.4375,1.75 0.126,0.65468 0.2271,1.34485 0.2812,2.125 l -0.062,-31.125 c 0.1157,0.0269 0.2279,0.0667 0.3437,0.0937 l 0.2187,31.78125 c 3.1034,-0.21074 6.2891,-0.76452 9.1876,-0.96875 v 0.0312 c 2.1739,-0.15323 4.1756,-0.11096 5.875,0.4375 l 0.2187,0.0625 c 0.2085,0.0737 0.4268,0.15969 0.625,0.25 0.1982,0.0903 0.3751,0.17216 0.5625,0.28125 l 0.1875,0.125 c 0.1224,0.0769 0.2578,0.16456 0.375,0.25 0.1165,0.0845 0.2325,0.18799 0.3437,0.28125 l 0.1563,0.125 c 0.1684,0.15096 0.3138,0.29526 0.4687,0.46875 0.1549,0.17349 0.3001,0.37005 0.4376,0.5625 0.044,0.0615 0.082,0.12359 0.125,0.1875 0.09,0.13581 0.1661,0.25938 0.25,0.40625 0.1849,0.32002 0.3478,0.68643 0.5,1.0625 0.132,0.32943 0.238,0.68768 0.3437,1.0625 l 0.031,2.96875 0.5,-0.0312 c 0.01,0.096 0.024,0.18325 0.031,0.28125 v -0.28125 c 2.934,-0.23385 5.9223,-0.74409 8.6562,-0.9375 h 0.031 c 0.7135,-0.0497 1.4203,-0.0668 2.0937,-0.0625 0.6836,0.004 1.338,0.0427 1.9688,0.125 l 0.625,0.0937 0.1875,0.0312 0.125,0.0312 h 0.031 c 0.063,0.0141 0.1252,0.0472 0.1874,0.0625 0.019,0.005 0.043,-0.005 0.063,0 l 0.1562,0.0312 0.4375,0.125 h 0.031 c 0.013,0.004 0.018,0.0267 0.031,0.0312 h 0.031 l 0.094,0.0312 c 0.7755,0.27133 1.4714,0.6658 2.0938,1.1875 l 0.1562,0.125 0.2188,0.21875 0.031,0.0312 0.031,0.0312 c 0.01,0.006 -0.01,0.0249 0,0.0312 0.5277,0.54663 1.0067,1.21454 1.375,2.03125 0.1095,0.24153 0.2184,0.48208 0.3126,0.75 0.1871,0.53466 0.3149,1.13499 0.4374,1.78125 0.042,0.22089 0.091,0.42148 0.125,0.65625 v 0.0312 c 0.065,0.44816 0.1216,0.9057 0.1563,1.40625 v -1.75 c 3.1108,-0.21124 6.2835,-0.76576 9.1875,-0.96875 1.7874,-0.12598 3.4521,-0.093 4.9375,0.21875 0.04,0.009 0.085,-0.009 0.125,0 l 0.375,0.0937 0.4375,0.125 0.2188,0.0625 c 0.2094,0.074 0.4259,0.19052 0.625,0.28125 0.1852,0.0865 0.3868,0.17902 0.5624,0.28125 l 0.1876,0.125 c 0.118,0.0745 0.2305,0.13622 0.3437,0.21875 0.084,0.0602 0.1687,0.12278 0.25,0.1875 l 0.031,0.0312 0.094,0.0625 0.031,0.0312 c 0.039,0.0335 0.087,0.0591 0.125,0.0937 0.1698,0.15201 0.3125,0.3251 0.4687,0.5 0.1508,0.16985 0.3001,0.3388 0.4375,0.53125 0.014,0.0192 0.018,0.0431 0.031,0.0625 l 0.094,0.125 c 0.2252,0.33768 0.4098,0.7171 0.5938,1.125 l 0.031,4.875 c 3.1034,-0.21074 6.2891,-0.76452 9.1875,-0.96875 v 0.0312 c 0.7247,-0.0511 1.4415,-0.0981 2.125,-0.0937 0.1638,10e-4 0.339,-0.005 0.5,0 0.063,0.002 0.1247,0.0285 0.1875,0.0312 0.1055,0.005 0.2083,-0.007 0.3125,0 0.3293,0.0203 0.6534,0.0526 0.9687,0.0937 0.3441,0.0457 0.6745,0.11331 1,0.1875 0.266,0.0603 0.5288,0.13726 0.7813,0.21875 l 0.2187,0.0625 c 0.2085,0.0737 0.4269,0.15969 0.625,0.25 0.1981,0.0903 0.3751,0.17216 0.5626,0.28125 l 0.1874,0.125 c 0.1225,0.0769 0.2578,0.16456 0.375,0.25 0.1166,0.0845 0.2326,0.18799 0.3438,0.28125 l 0.1562,0.125 c 0.1684,0.15096 0.3139,0.29526 0.4688,0.46875 0.3016,0.3397 0.5657,0.72378 0.8125,1.15625 0.1866,0.32198 0.3467,0.68365 0.5,1.0625 0.2565,0.63982 0.4703,1.34064 0.625,2.15625 v 0.0625 c 0.057,0.30561 0.1146,0.63686 0.1563,0.96875 0.044,0.35068 0.099,0.7125 0.125,1.09375 l -0.094,-32.40625 c 0.4555,0.21141 0.9192,0.41223 1.375,0.625 l 0.2188,33.03125 c 3.1033,-0.21074 6.289,-0.76452 9.1874,-0.96875 v 0.0312 c 0.7247,-0.0511 1.4415,-0.0981 2.125,-0.0937 0.1639,0.001 0.339,-0.005 0.5,0 0.063,0.002 0.1248,0.0285 0.1876,0.0312 0.1055,0.005 0.2082,-0.007 0.3124,0 0.3293,0.0203 0.6534,0.0526 0.9688,0.0937 0.344,0.0457 0.6744,0.11331 1,0.1875 0.2659,0.0603 0.5287,0.13726 0.7812,0.21875 l 0.2188,0.0625 c 0.2085,0.0737 0.4268,0.15969 0.625,0.25 0.1982,0.0903 0.3751,0.17216 0.5625,0.28125 l 0.1875,0.125 c 0.1224,0.0769 0.2578,0.16456 0.375,0.25 0.1165,0.0845 0.2325,0.18799 0.3438,0.28125 l 0.1562,0.125 c 0.1684,0.15096 0.3138,0.29526 0.4688,0.46875 0.155,0.17349 0.3,0.37005 0.4374,0.5625 0.044,0.0615 0.082,0.12359 0.125,0.1875 0.09,0.13581 0.1662,0.25938 0.25,0.40625 0.1832,0.31684 0.349,0.65948 0.5,1.03125 0.2592,0.64343 0.4692,1.36566 0.625,2.1875 v 0.0312 0.0312 c 0.057,0.30561 0.1147,0.63686 0.1563,0.96875 0.044,0.35068 0.099,0.7125 0.125,1.09375 v -1.78125 c 3.1108,-0.21124 6.2835,-0.76576 9.1875,-0.96875 v 0.0312 c 0.7247,-0.0511 1.4102,-0.0981 2.0938,-0.0937 0.1672,10e-4 0.3356,-0.006 0.5,0 0.063,0.002 0.1247,0.0285 0.1874,0.0312 0.1056,0.005 0.2083,-0.007 0.3126,0 0.3292,0.0203 0.6533,0.0526 0.9687,0.0937 0.3154,0.0411 0.6322,0.0888 0.9375,0.15625 l 0.125,0.0312 c 0.02,0.005 0.043,-0.005 0.062,0 0.2351,0.0556 0.463,0.1463 0.6875,0.21875 l 0.2188,0.0625 c 0.206,0.0731 0.3977,0.16068 0.5937,0.25 0.196,0.0893 0.4063,0.17216 0.5937,0.28125 0.064,0.0367 0.1252,0.0861 0.1876,0.125 0.6703,0.42222 1.2479,0.9531 1.75,1.65625 0.053,0.0729 0.1053,0.14242 0.1562,0.21875 0.085,0.12851 0.1711,0.26792 0.25,0.40625 0.019,0.0329 0.044,0.0602 0.062,0.0937 0.023,0.0415 0.04,0.0826 0.062,0.125 0.08,0.15088 0.1456,0.30649 0.2188,0.46875 0.1094,0.24153 0.2183,0.48208 0.3124,0.75 0.1872,0.53466 0.3462,1.13499 0.4688,1.78125 v 0.0312 0.0625 c 0.1141,0.62178 0.1992,1.29909 0.25,2.03125 v -0.28125 c 0.01,0.096 0.024,0.18325 0.031,0.28125 l -0.062,-26.625 c 0.1152,0.061 0.2284,0.1265 0.3437,0.1875 l 0.1875,26.6875 c 3.0996,-0.21049 6.2919,-0.7639 9.1875,-0.96875 h 0.031 c 0.7134,-0.0497 1.4202,-0.0668 2.0937,-0.0625 0.6835,0.004 1.338,0.0427 1.9687,0.125 l 0.625,0.0937 0.1876,0.0312 0.125,0.0312 h 0.031 c 0.063,0.0141 0.1252,0.0472 0.1875,0.0625 0.019,0.005 0.043,-0.005 0.062,0 l 0.1562,0.0312 0.4376,0.125 h 0.031 c 0.013,0.004 0.018,0.0267 0.031,0.0312 h 0.031 l 0.094,0.0312 c 0.7755,0.27133 1.4715,0.6658 2.0938,1.1875 l 0.1562,0.125 c 0.1699,0.15201 0.3126,0.3251 0.4688,0.5 0.3016,0.3397 0.5969,0.72378 0.8438,1.15625 0.081,0.14184 0.1438,0.28495 0.2187,0.4375 0.041,0.0844 0.085,0.16229 0.125,0.25 0.035,0.0785 0.06,0.16879 0.094,0.25 0.1303,0.31361 0.2379,0.64434 0.3438,1 0.064,0.21463 0.1324,0.4255 0.1875,0.65625 0.048,0.20267 0.084,0.40958 0.125,0.625 0.01,0.0303 -0.01,0.0632 0,0.0937 0.054,0.29598 0.116,0.58574 0.1563,0.90625 0.045,0.35756 0.098,0.7043 0.125,1.09375 l -0.063,-23.53125 0.9063,0.5 0.1563,23.28125 c 3.103,-0.21072 6.2892,-0.73322 9.1874,-0.9375 2.174,-0.15323 4.1757,-0.11096 5.875,0.4375 l 0.2188,0.0625 c 0.2085,0.0737 0.4268,0.15969 0.625,0.25 0.1982,0.0903 0.3751,0.17216 0.5625,0.28125 l 0.1875,0.125 c 0.1224,0.0769 0.2578,0.16456 0.375,0.25 0.1165,0.0845 0.2325,0.18799 0.3438,0.28125 l 0.1562,0.125 c 0.1684,0.15096 0.3138,0.29526 0.4688,0.46875 0.155,0.17349 0.3,0.37005 0.4374,0.5625 0.044,0.0615 0.082,0.12359 0.125,0.1875 0.013,0.0198 0.018,0.0425 0.031,0.0625 0.076,0.11737 0.1472,0.21829 0.2187,0.34375 0.087,0.15095 0.17,0.30556 0.25,0.46875 0.3752,0.77219 0.6722,1.68073 0.875,2.75 v 0.0625 c 0.057,0.30561 0.1147,0.63686 0.1563,0.96875 0.044,0.35068 0.099,0.7125 0.125,1.09375 l -0.062,-19.75 c 0.1383,0.0784 0.2679,0.17159 0.4062,0.25 l 0.1563,19.75 c 3.1108,-0.21124 6.2835,-0.76576 9.1875,-0.96875 v 0.0312 c 0.7247,-0.0511 1.4102,-0.0981 2.0938,-0.0937 0.1742,10e-4 0.3601,-0.006 0.5312,0 0.1324,0.004 0.2759,0.024 0.4062,0.0312 h 0.1876 c 0.6026,0.0407 1.1655,0.13388 1.7187,0.25 l 0.1875,0.0312 c 1.14,0.26213 2.1394,0.72226 3,1.4375 0.01,0.005 0.025,-0.005 0.031,0 0.06,0.05 0.1295,0.10361 0.1876,0.15625 0.1595,0.14462 0.3213,0.30372 0.4687,0.46875 0.1474,0.16503 0.2688,0.3388 0.4063,0.53125 0.053,0.0729 0.1053,0.14242 0.1562,0.21875 0.085,0.12851 0.1711,0.26792 0.25,0.40625 0.019,0.0329 0.044,0.0602 0.062,0.0937 0.023,0.0415 0.04,0.0826 0.062,0.125 0.069,0.13049 0.1234,0.26727 0.1875,0.40625 v 3.625 c 0.3225,-0.0219 0.6448,-0.065 0.9687,-0.0937 0.048,0.37231 0.066,0.78052 0.094,1.1875 v -0.28125 c 0.01,0.096 0.024,0.18325 0.031,0.28125 v -1.1875 l 0.6563,-0.0625 c 2.5343,-0.25822 5.084,-0.64611 7.4375,-0.8125 h 0.031 c 0.714,-0.0497 1.4204,-0.0668 2.0938,-0.0625 0.6835,0.004 1.3387,0.0427 1.9688,0.125 l 0.625,0.0937 0.1874,0.0312 0.125,0.0312 h 0.031 c 0.063,0.0141 0.1254,0.0472 0.1875,0.0625 0.019,0.005 0.043,-0.005 0.062,0 l 0.1563,0.0312 0.4374,0.125 0.125,0.0312 0.063,0.0312 c 0.2152,0.0756 0.4209,0.15663 0.625,0.25 0.2041,0.0934 0.376,0.20341 0.5624,0.3125 0.3139,0.1817 0.6262,0.38843 0.9063,0.625 l 0.1563,0.125 c 0.1685,0.15201 0.3141,0.3251 0.4687,0.5 0.1546,0.1749 0.2705,0.3388 0.4063,0.53125 0.017,0.0245 0.045,0.0376 0.062,0.0625 v 0.0312 l -0.125,8.125 c 0.5828,-0.0395 1.1636,-0.0966 1.75,-0.15625 2.549,-0.25936 5.1044,-0.64748 7.4688,-0.8125 0.7258,-0.0511 1.4416,-0.0669 2.125,-0.0625 0.1638,10e-4 0.3391,-0.005 0.5,0 0.126,0.004 0.2508,0.0245 0.375,0.0312 0.073,0.004 0.146,-0.005 0.2188,0 0.6017,0.0407 1.1681,0.13388 1.7187,0.25 l 0.1875,0.0312 c 1.0253,0.23696 1.9265,0.64896 2.7188,1.25 l -0.1876,6.03125 c 0.9999,-0.0677 2.0249,-0.16418 3.0313,-0.28125 0.015,0.11723 0.049,0.22296 0.062,0.34375 v 0.0937 0.0312 c 0.027,0.2655 0.046,0.56093 0.062,0.84375 0,0.077 0.027,0.14047 0.031,0.21875 l 0.031,-1.5625 c 2.0576,-0.24257 4.0892,-0.52145 6,-0.65625 v 0.0312 c 0.7267,-0.0511 1.4417,-0.0981 2.125,-0.0937 0.1672,10e-4 0.3359,-0.006 0.5,0 0.1259,0.004 0.251,0.0245 0.375,0.0312 0.073,0.004 0.1461,-0.005 0.2188,0 0.2957,0.02 0.5913,0.0565 0.875,0.0937 l 0.625,0.0937 0.1874,0.0312 0.125,0.0312 0.125,0.0312 c 1.1368,0.26431 2.1337,0.71343 2.9688,1.4375 0.2999,0.26181 0.5595,0.57077 0.8125,0.90625 0.116,0.15195 0.2382,0.30036 0.3437,0.46875 0.4545,0.73199 0.8214,1.61299 1.0626,2.6875 0.014,0.0624 0.018,0.12385 0.031,0.1875 0.01,0.0433 0.022,0.0811 0.031,0.125 0.016,0.0805 0.017,0.16747 0.031,0.25 0.022,0.12464 0.043,0.24575 0.062,0.375 0.033,0.22011 0.069,0.42237 0.094,0.65625 v 0.0937 c 0.01,0.0863 0.024,0.1618 0.031,0.25 0.031,0.35937 0.051,0.73339 0.062,1.125 l 0.2813,-7.96875 0.2812,0.15625 -0.25,7.5625 c 0.5834,-0.0395 1.1625,-0.0966 1.75,-0.15625 2.5532,-0.25933 5.1017,-0.64744 7.4688,-0.8125 0.8514,-0.0598 1.6782,-0.0814 2.4687,-0.0625 2.4435,1.38322 4.8919,2.76847 7.3125,4.125 l 0.031,0.0625 c 0.1038,0.24858 0.195,0.50454 0.2813,0.78125 0.083,0.26733 0.1526,0.54911 0.2187,0.84375 0.05,0.22442 0.1161,0.44663 0.1563,0.6875 0.013,0.0753 0.02,0.14176 0.031,0.21875 v 0.0312 0.0625 c 0.043,0.29638 0.066,0.61652 0.094,0.9375 0.024,0.28247 0.05,0.57284 0.062,0.875 0,0.077 0.029,0.1404 0.031,0.21875 l 0.1563,-4.125 c 3.51,1.96387 6.9803,3.88253 10.4375,5.78125 2.2473,1.23424 4.8168,1.79263 7.2188,2.6875 20.2249,7.5352 40.38,15.16794 60.4374,22.9375 l 61.125,-10.09375 161.625,-177.28125 v -0.0312 l 1.0313,-214.15625 v -0.0312 -1.46875 l -0.031,0.0312 -0.4062,0.46875 -12.7188,-29.28125 c -30.161,-10.48756 -60.3539,-20.9195 -90.5312,-31.375 -1.3668,-0.47355 -2.7279,-0.9619 -4.0938,-1.4375 l -2.4374,-0.84375 c -0.9369,-0.32468 -1.8757,-0.64403 -2.8126,-0.96875 -3.3743,-1.17813 -6.7474,-2.35988 -10.125,-3.53125 -0.2986,-0.10358 -0.6076,-0.17766 -0.9062,-0.28125 v -0.0312 l -19.4375,-6.75 c 8e-4,0.0102 -8e-4,0.021 0,0.0312 l -0.8437,-0.3125 c -6.4836,-2.25271 -12.9564,-4.52405 -19.4376,-6.78125 v 0.0625 c -0.333,-0.116 -0.6669,-0.22773 -1,-0.34375 v -0.0625 c -6.4589,-2.2498 -12.9192,-4.49448 -19.375,-6.75 10e-4,0.0101 -9e-4,0.0212 0,0.0312 l -0.9687,-0.34375 v -0.0312 l -19.375,-6.78125 c 10e-4,0.01 0,0.0212 0,0.0312 -0.3452,-0.12108 -0.6861,-0.2539 -1.0313,-0.375 l -19.375,-6.8125 c -0.3323,-0.11711 -0.6676,-0.22662 -1,-0.34375 v -0.0312 c -6.448,-2.27237 -12.9008,-4.53062 -19.3437,-6.8125 -0.3414,-0.12093 -0.6898,-0.22279 -1.0313,-0.34375 v -0.0312 c -6.7821,-2.4029 -13.5681,-4.80386 -20.3437,-7.21875 -6.4821,-2.31013 -12.962,-4.61514 -19.4375,-6.9375 -0.1365,-0.049 -0.2697,-0.10728 -0.4062,-0.15625 -0.1676,-0.0601 -0.3325,-0.1274 -0.5,-0.1875 -0.155,-0.0556 -0.3138,-0.10064 -0.4688,-0.15625 -6.6383,-2.38202 -13.2757,-4.75998 -19.9062,-7.15625 v -0.0312 c -6.4928,-2.34634 -12.9842,-4.70124 -19.4688,-7.0625 4e-4,0.0102 -4e-4,0.0211 0,0.0312 -0.2943,-0.10717 -0.5807,-0.23655 -0.875,-0.34375 v -0.0312 c -6.5047,-2.36943 -13.0041,-4.73924 -19.5,-7.125 1e-4,0.0104 -10e-5,0.0209 0,0.0312 l -0.8438,-0.3125 c 9e-4,-0.0102 -7e-4,-0.021 0,-0.0312 -6.5142,-2.39339 -13.0267,-4.77637 -19.5312,-7.1875 -3e-4,0.0102 3e-4,0.021 0,0.0312 l -0.8438,-0.3125 c 5e-4,-0.0105 -3e-4,-0.0208 0,-0.0312 -6.5052,-2.41235 -13.0051,-4.84983 -19.5,-7.28125 -8e-4,0.0106 0.001,0.0208 0,0.0312 -0.2901,-0.10861 -0.5849,-0.20385 -0.875,-0.3125 v -0.0312 c -6.4878,-2.42986 -12.9607,-4.86229 -19.4374,-7.3125 l -0.9063,-0.34375 h -0.031 l -1.9062,-0.71875 c -0.6091,-0.23078 -1.2347,-0.48779 -1.8438,-0.71875 -5.2047,-1.97396 -10.3965,-3.94945 -15.5937,-5.9375 -2.2078,-0.84337 -4.4174,-1.68363 -6.625,-2.53125 l -2.375,-0.90625 c -21.5963,-8.30347 -43.1185,-16.72963 -64.5625,-25.3125 -0.9429,-0.0196 -1.8734,-0.0329 -2.8125,-0.0312 z m -207.2187,212.875 c 1.1926,1.47372 2.5184,2.92212 3.9687,4.34375 l 21.125,6.6875 c -8.1364,-2.51198 -15.4786,-4.61832 -21.6563,-6.1875 -1.2851,-1.70069 -2.3869,-3.28972 -3.4374,-4.84375 z m 40.2812,15.875 27.3125,8.65625 6.5,2.4375 -0.9063,0.15625 c -11.8469,-4.15525 -22.9171,-7.97419 -32.9062,-11.25 z m 253.0938,92.84375 0.2187,0.0937 c -0.071,-0.0265 -0.148,-0.036 -0.2187,-0.0625 z m 21.1874,7.90625 1.0626,0.40625 c -0.3524,-0.13133 -0.7103,-0.24364 -1.0626,-0.375 v -0.0312 z"
       fill="#cccccc"
       filter="url(#ad)"
       id="path81" />
    <g
       transform="translate(24.244,62.629)"
       id="g407">
      <path
         d="m 267.91,134.28 c -14.086,0.0231 -27.741,2.4873 -40.625,9.125 l -176.78,166.66 c -0.89768,14.928 1.6605,29.188 14.156,41.438 l 63.625,20.188 357.59,133.34 73.75,25.25 52.531,-3.0312 160.62,-185.88 -13.156,-30.281 c -133.1,-46.282 -266.68,-91.656 -397.91,-141.38 -0.6091,-0.23078 -1.2348,-0.48779 -1.8438,-0.71875 -7.4171,-2.813 -14.817,-5.6269 -22.219,-8.4688 l -2.375,-0.90625 c -21.596,-8.3035 -43.119,-16.73 -64.562,-25.312 -0.94293,-0.0196 -1.8734,-0.0328 -2.8125,-0.0312 z"
         fill="#f9af7e"
         id="path83" />
      <path
         d="m 267.91,134.28 c -14.086,0.0231 -27.741,2.4873 -40.625,9.125 l -176.78,166.66 c -0.89768,14.928 4.6909,27.926 17.187,40.175 l 59.079,26.248 359.11,128.55 73.75,25.25 52.531,-3.0312 160.62,-185.88 -13.156,-30.281 c -133.1,-46.282 -266.68,-91.656 -397.91,-141.38 -0.6091,-0.23078 -1.2348,-0.48779 -1.8438,-0.71875 -7.4171,-2.813 -14.817,-5.6269 -22.219,-8.4688 l -2.375,-0.90625 c -21.596,-8.3035 -43.119,-16.73 -64.562,-25.312 -0.94293,-0.0196 -1.8734,-0.0328 -2.8125,-0.0312 z"
         fill="url(#t)"
         id="path85"
         style="fill:url(#t)" />
      <path
         d="m 344.28,163.06 c -0.094,0.44103 -0.17038,0.88604 -0.1875,1.375 -0.1781,5.0876 4.0392,10.755 9.4375,12.656 5.3983,1.901 9.9469,-0.66235 10.125,-5.75 l -0.0312,-0.90625 -1.9062,-0.71875 c -0.6091,-0.23078 -1.2348,-0.48779 -1.8438,-0.71875 -5.2049,-1.974 -10.397,-3.9494 -15.594,-5.9375 z m 20.281,7.7188 c -0.0369,0.27029 -0.0837,0.55725 -0.0937,0.84375 -0.1781,5.0876 4.0392,10.755 9.4375,12.656 5.3983,1.901 9.9156,-0.69361 10.094,-5.7812 v -0.40625 c -6.4878,-2.4299 -12.961,-4.8623 -19.438,-7.3125 z m 20.312,7.625 c -0.0104,0.12831 -0.0266,0.24329 -0.0312,0.375 -0.1781,5.0876 4.0705,10.755 9.4688,12.656 5.3983,1.901 9.8844,-0.66236 10.062,-5.75 -6.5052,-2.4124 -13.005,-4.8498 -19.5,-7.2812 z m 20.344,7.5938 c -0.16008,5.0797 4.0501,10.728 9.4375,12.625 5.2747,1.8576 9.7264,-0.57962 10.094,-5.4375 -6.5142,-2.3934 -13.027,-4.7764 -19.531,-7.1875 z m 20.375,7.5 c 0.0334,4.9897 4.2011,10.457 9.4688,12.312 5.1775,1.8233 9.5263,-0.50717 10.031,-5.1875 -6.5047,-2.3694 -13.004,-4.7392 -19.5,-7.125 z m 20.375,7.4688 c 0.1828,4.9122 4.299,10.179 9.4688,12 5.0954,1.7944 9.3836,-0.40583 10,-4.9375 -6.4927,-2.3463 -12.984,-4.7012 -19.469,-7.0625 z m 20.406,7.4062 c 0.29064,4.8485 4.3128,9.9875 9.4062,11.781 5.0371,1.7739 9.3353,-0.3556 10.031,-4.7812 -6.4812,-2.3252 -12.964,-4.6613 -19.438,-7 z m 20.344,7.3438 c 0.38435,4.795 4.44,9.8228 9.4688,11.594 4.9893,1.7571 9.2162,-0.31453 9.9688,-4.6562 -6.4821,-2.3101 -12.962,-4.6151 -19.438,-6.9375 z m 20.438,7.2812 c 0.42615,4.7647 4.3799,9.7409 9.375,11.5 4.9753,1.7521 9.1947,-0.30957 9.9688,-4.625 l -19.344,-6.875 z m 20.375,7.25 c 0.45826,4.7436 4.404,9.6869 9.375,11.438 4.971,1.7511 9.1867,-0.32571 9.9688,-4.625 -6.448,-2.2724 -12.901,-4.5306 -19.344,-6.8125 z m 20.344,7.1875 c 0.47281,4.7382 4.4744,9.6584 9.4375,11.406 4.9631,1.7476 9.1535,-0.29728 9.9375,-4.5938 l -19.375,-6.8125 z m 20.406,7.1562 c 0.45487,4.7459 4.4014,9.686 9.375,11.438 4.9868,1.7562 9.2403,-0.32039 10,-4.6562 l -19.375,-6.7812 z m 20.344,7.125 c 0.44432,4.7569 4.4217,9.7446 9.4062,11.5 5.0121,1.7651 9.2447,-0.36769 9.9688,-4.75 -6.4589,-2.2498 -12.919,-4.4945 -19.375,-6.75 z m 20.375,7.0938 c 0.4009,4.7846 4.4208,9.7958 9.4375,11.562 5.0378,1.7742 9.3086,-0.35295 10,-4.7812 -6.4835,-2.2527 -12.956,-4.524 -19.438,-6.7812 z m 20.281,7.0625 c 0.36623,4.8027 4.3669,9.8816 9.4062,11.656 5.0831,1.7901 9.3955,-0.39778 10.031,-4.9062 l -19.438,-6.75 z m 20.344,7.0625 c 0.30916,4.8406 4.3861,9.9601 9.4688,11.75 5.1072,1.7986 9.3993,-0.41582 10,-4.9688 -6.4946,-2.2501 -12.975,-4.5292 -19.469,-6.7812 z"
         fill="#ffffff"
         id="path87" />
      <path
         d="m 236.43,159.29 -2.8571,100 -88.571,101.43 -65,-24.286 C 72.1968,328.5769 71.1823,320.72 72.859,312.863 Z"
         fill="#ff7f2a"
         id="path89" />
      <path
         d="m 270,155 2.8571,98.571 445.71,76.429 28.825,1.847 -17.397,-8.2756 z"
         fill="#f9af7e"
         id="path91" />
      <path
         d="m 235,160 c 4.8306,5.4459 9.2409,11.259 19.286,12.143 l 2.1429,87.143 c -10.131,3.5566 -18.095,3.1475 -22.944,-1.2194 z"
         fill="#ff7f2a"
         id="path93" />
      <path
         d="m 772.77,339.87 -1.0102,215.67 -161.62,177.28 -61.114,10.102 c -20.058,-7.7696 -40.218,-15.394 -60.443,-22.93 -2.4019,-0.89487 -4.961,-1.4467 -7.2083,-2.6809 -114.91,-63.108 -260.27,-164.79 -349.37,-132.69 -1.9124,0.68915 -3.7354,-1.6033 -5.6008,-2.4082 -26.141,-11.28 -51.974,-22.991 -77.405,-35.263 l 1.0102,-236.38 c 1.1153,11.556 -0.14602,20.08 15.405,40.659 78.535,19.949 323.74,121.79 492.7,178.04 l 53.538,-2.5254 z"
         fill="url(#ac)"
         id="path95"
         style="fill:url(#ac)" />
      <path
         d="m 611.66,527.25 -17.594,0.34375 -35.469,1.6562 -9.2188,213.59 60.75,-10.031 0.1875,-0.21875 1.3438,-205.34 z"
         fill="url(#ab)"
         id="path97"
         style="fill:url(#ab)" />
      <path
         d="m 644.47,435.06 c -8.1955,17.541 -15.811,26.722 -23.125,31.219 -0.80054,0.49218 -1.9396,0.56436 -2.4062,1.3125 -0.85129,1.3649 -1.6601,2.5583 -2.4688,3.5938 12.983,-7.04 26.855,-25.292 32.319,-34.878 z m -56.062,32.094 5.4688,13.656 c 3.729,-1.2354 7.3403,-2.58 10.812,-4.0312 -5.601,-1.6375 -10.587,-8.2764 -16.281,-9.625 z"
         fill="#1a1a1a"
         id="path99" />
      <path
         d="m 163.66,339.75 -16.688,19.312 347.5,125.25 c 40.356,11.083 86.912,4.4541 118.41,-11.281 12.968,-9.9747 25.178,-20.796 32.094,-37.688 l -481.31,-95.594 z"
         fill="#f9af7e"
         id="path101" />
      <path
         d="m 177.44,323.78 -13.156,15.25 484.38,97.812 c 0.6329,-2.5616 0.95921,-5.1683 0.90625,-7.8125 -5.7596,-10.968 -14.539,-20.304 -32.875,-24.5 l -439.25,-80.75 z"
         fill="#1a1a1a"
         id="path103" />
      <path
         d="m 190.47,308.72 -6.7812,7.8438 413.81,77.344 c 20.091,1.0572 32.973,10.767 47.188,18.875 -0.80124,-1.3772 -1.7065,-2.7736 -2.7188,-4.1562 -14.115,-10.987 -27.868,-22.287 -48.5,-27.844 l -403,-72.062 z"
         fill="#333333"
         filter="url(#ae)"
         id="path105" />
      <path
         d="m 275.39,356.76 -27.206,37.478 250.01,93.054 c 40.757,11.384 87.031,3.0214 117.9,-15.094 12.577,-11.33 24.365,-23.581 30.628,-42.436 l -371.34,-73.001 z"
         fill="#999999"
         id="path107" />
      <path
         d="m 270,155 2.8571,98.571 445.71,76.429 28.825,1.847 -17.397,-8.2756 z"
         fill="#ff7f2a"
         id="path109" />
      <path
         d="m 772.78,339.88 -161.12,186.88 -0.375,0.0312 0.75,203.94 159.72,-175.19 1.0312,-215.66 z"
         fill="url(#aa)"
         id="path111"
         style="fill:url(#aa)" />
      <path
         d="m 275.39,356.76 -27.206,37.478 250.01,93.054 c 40.757,11.384 87.031,3.0214 117.9,-15.094 12.577,-11.33 24.365,-23.581 30.628,-42.436 l -371.34,-73.001 z"
         fill="url(#z)"
         id="path113"
         style="fill:url(#z)" />
      <path
         d="m 320.72,393.91 85.358,-1.5152 c 5.0687,9.2657 4.7062,16.721 6.0609,24.749 -27.917,43.482 -57.666,13.278 -90.914,5.5558 z"
         fill="#666666"
         id="path115" />
      <path
         d="m 320.72,393.91 85.358,-1.5152 c 5.0687,9.2657 4.7062,16.721 6.0609,24.749 -9.8793,13.47 -20.669,20.568 -32.037,23.619 -1.0914,0.29295 -2.1914,1.0056 -3.2898,0.76903 l -1.6308,-0.36266 c -19.102,-4.381 -35.3,-12.74 -53.956,-18.722 z"
         fill="url(#y)"
         id="path117"
         style="fill:url(#y)" />
      <path
         d="m 405.58,395.18 c 0,13.529 -18.882,24.496 -42.174,24.496 -23.292,0 -42.174,-10.967 -42.174,-24.496 0,-2.0356 0.42746,-4.0132 1.2331,-5.9041 0.27736,-0.65101 0.23955,-1.9816 0.96454,-1.9211 22.906,1.9112 31.134,-0.29864 11.096,-10.026 -0.86451,-0.41967 1.7196,-0.90115 2.6261,-1.3205 7.2041,-3.3328 16.329,-5.3244 26.255,-5.3244 21.684,0 39.835,9.5512 41.969,22.085"
         fill="#4d4d4d"
         id="path119" />
      <path
         d="m 402.55,395.18 c 0,12.413 -17.525,22.476 -39.143,22.476 -21.618,0 -39.143,-10.063 -39.143,-22.476 0,-1.8677 0.39674,-3.6822 1.1445,-5.4172 0.25743,-0.59732 0.22233,-1.8181 0.89522,-1.7626 21.26,1.7536 28.897,-0.27402 10.298,-9.1992 -0.8024,-0.38506 1.596,-0.82683 2.4374,-1.2116 6.6864,-3.0579 15.156,-4.8853 24.368,-4.8853 20.126,0 36.973,8.7635 38.953,20.264"
         fill="url(#x)"
         id="path121"
         style="fill:url(#x)" />
      <path
         d="m 402.55,395.18 c 0,12.413 -17.525,22.476 -39.143,22.476 -21.618,0 -39.143,-10.063 -39.143,-22.476 0,-1.8677 0.39674,-3.6822 1.1445,-5.4172 0.25743,-0.59732 0.22233,-1.8181 0.89522,-1.7626 21.26,1.7536 28.897,-0.27402 10.298,-9.1992 -0.8024,-0.38506 1.596,-0.82683 2.4374,-1.2116 6.6864,-3.0579 15.156,-4.8853 24.368,-4.8853 20.126,0 36.973,8.7635 38.953,20.264"
         fill="url(#s)"
         id="path123"
         style="fill:url(#s)" />
      <path
         d="m 404.06,417.08 -11.807,9.1572 c -3.1235,-40.619 -31.467,-33.68 -64.207,-39.17 9.7149,1.5674 9.9583,5.4566 4.0454,-9.309 51.719,-1.7382 71.141,13.814 71.969,39.322 z"
         fill="#333333"
         id="path125" />
      <path
         d="m 404.06,417.08 -11.807,9.1572 c -3.1235,-40.619 -33.74,-33.68 -66.479,-39.17 9.7149,1.5674 12.231,5.4566 6.3182,-9.309 51.719,-1.7382 71.141,13.814 71.969,39.322 z"
         fill="url(#w)"
         id="path127"
         style="fill:url(#w)" />
      <path
         transform="matrix(0.69628,0.52178,-0.3907,0.99586,429.27,-353.96)"
         d="m 737.92,517.15 c 0,49.373 -21.143,89.398 -47.225,89.398 -26.082,0 -47.225,-40.025 -47.225,-89.398 0,-49.373 21.143,-89.398 47.225,-89.398 24.281,0 44.606,34.857 46.995,80.6"
         fill="#aa4400"
         id="path129" />
      <path
         transform="matrix(0.62297,0.48185,-0.34957,0.91965,458.63,-286.96)"
         d="m 737.92,517.15 c 0,49.373 -21.143,89.398 -47.225,89.398 -26.082,0 -47.225,-40.025 -47.225,-89.398 0,-49.373 21.143,-89.398 47.225,-89.398 24.281,0 44.606,34.857 46.995,80.6"
         fill="url(#v)"
         id="path131"
         style="fill:url(#v)" />
      <g
         transform="translate(-4.135e-7,2.8571)"
         fill="url(#a)"
         id="g135"
         style="fill:url(#radialGradient1242)">
        <path
           d="m 129.3,372.2 c 9.0321,-1.4659 19.274,-4.2518 21.213,2.0203 l 0.50508,218.19 c -0.85155,-12.276 -10.893,-8.4609 -20.203,-7.8287 z"
           fill="url(#a)"
           id="path133"
           style="fill:url(#radialGradient1240)" />
      </g>
      <path
         d="m 142.56,373.17 c -1.5764,0.0384 -3.3089,0.23428 -5.0938,0.5 l 2.5312,212.81 c 5.7972,-0.40862 10.464,0.59664 11.031,8.7812 l -0.53125,-218.19 c -0.96947,-3.136 -4.0056,-4.002 -7.9375,-3.9062 z"
         fill="url(#p)"
         filter="url(#b)"
         id="path137"
         style="fill:url(#radialGradient1244)" />
      <path
         d="m 142.56,373.17 c -1.5764,0.0384 -3.3089,0.23428 -5.0938,0.5 l 2.5312,212.81 c 5.7972,-0.40862 10.464,0.59664 11.031,8.7812 l -0.53125,-218.19 c -0.96947,-3.136 -4.0056,-4.002 -7.9375,-3.9062 z"
         fill="url(#p)"
         filter="url(#b)"
         id="path139"
         style="fill:url(#radialGradient1246)" />
      <g
         transform="translate(20.203,7.9079)"
         fill="url(#a)"
         id="g143"
         style="fill:url(#radialGradient1250)">
        <path
           d="m 129.3,372.2 c 9.0321,-1.4659 19.274,-4.2518 21.213,2.0203 l 0.50508,218.19 c -0.85155,-12.276 -10.893,-8.4609 -20.203,-7.8287 z"
           fill="url(#a)"
           id="path141"
           style="fill:url(#radialGradient1248)" />
      </g>
      <path
         d="m 162.77,378.22 c -1.5764,0.0384 -3.3089,0.23428 -5.0938,0.5 l 2.5312,212.81 c 5.7972,-0.40862 10.464,0.59664 11.031,8.7812 l -0.53125,-218.19 c -0.96947,-3.136 -4.0056,-4.002 -7.9375,-3.9062 z"
         fill="url(#o)"
         filter="url(#b)"
         id="path145"
         style="fill:url(#radialGradient1252)" />
      <path
         d="m 162.77,378.22 c -1.5764,0.0384 -3.3089,0.23428 -5.0938,0.5 l 2.5312,212.81 c 5.7972,-0.40862 10.464,0.59664 11.031,8.7812 l -0.53125,-218.19 c -0.96947,-3.136 -4.0056,-4.002 -7.9375,-3.9062 z"
         fill="url(#o)"
         filter="url(#b)"
         id="path147"
         style="fill:url(#radialGradient1254)" />
      <g
         transform="translate(41.416,16.494)"
         fill="url(#a)"
         id="g151"
         style="fill:url(#radialGradient1258)">
        <path
           d="m 129.3,372.2 c 9.0321,-1.4659 19.274,-4.2518 21.213,2.0203 l 0.50508,218.19 c -0.85155,-12.276 -10.893,-8.4609 -20.203,-7.8287 z"
           fill="url(#a)"
           id="path149"
           style="fill:url(#radialGradient1256)" />
      </g>
      <path
         d="m 183.98,386.81 c -1.5764,0.0384 -3.3089,0.23428 -5.0938,0.5 l 2.5312,212.81 c 5.7972,-0.40862 10.464,0.59664 11.031,8.7812 l -0.53125,-218.19 c -0.96947,-3.136 -4.0056,-4.002 -7.9375,-3.9062 z"
         fill="url(#n)"
         filter="url(#b)"
         id="path153"
         style="fill:url(#radialGradient1260)" />
      <path
         d="m 183.98,386.81 c -1.5764,0.0384 -3.3089,0.23428 -5.0938,0.5 l 2.5312,212.81 c 5.7972,-0.40862 10.464,0.59664 11.031,8.7812 l -0.53125,-218.19 c -0.96947,-3.136 -4.0056,-4.002 -7.9375,-3.9062 z"
         fill="url(#n)"
         filter="url(#b)"
         id="path155"
         style="fill:url(#radialGradient1262)" />
      <g
         transform="translate(140.92,52.86)"
         fill="url(#a)"
         id="g159"
         style="fill:url(#radialGradient1266)">
        <path
           d="m 129.3,372.2 c 9.0321,-1.4659 19.274,-4.2518 21.213,2.0203 l 0.50508,218.19 c -0.85155,-12.276 -10.893,-8.4609 -20.203,-7.8287 z"
           fill="url(#a)"
           id="path157"
           style="fill:url(#radialGradient1264)" />
      </g>
      <path
         d="m 283.48,423.17 c -1.5764,0.0384 -3.3089,0.23428 -5.0938,0.5 l 2.5312,212.81 c 5.7972,-0.40862 10.464,0.59664 11.031,8.7812 l -0.53125,-218.19 c -0.96947,-3.136 -4.0056,-4.002 -7.9375,-3.9062 z"
         fill="url(#m)"
         filter="url(#b)"
         id="path161"
         style="fill:url(#radialGradient1268)" />
      <path
         d="m 283.48,423.17 c -1.5764,0.0384 -3.3089,0.23428 -5.0938,0.5 l 2.5312,212.81 c 5.7972,-0.40862 10.464,0.59664 11.031,8.7812 l -0.53125,-218.19 c -0.96947,-3.136 -4.0056,-4.002 -7.9375,-3.9062 z"
         fill="url(#m)"
         filter="url(#b)"
         id="path163"
         style="fill:url(#radialGradient1270)" />
      <g
         transform="translate(121.72,44.778)"
         fill="url(#a)"
         id="g167"
         style="fill:url(#radialGradient1274)">
        <path
           d="m 129.3,372.2 c 9.0321,-1.4659 19.274,-4.2518 21.213,2.0203 l 0.50508,218.19 c -0.85155,-12.276 -10.893,-8.4609 -20.203,-7.8287 z"
           fill="url(#a)"
           id="path165"
           style="fill:url(#radialGradient1272)" />
      </g>
      <path
         d="m 264.29,415.09 c -1.5764,0.0384 -3.3089,0.23428 -5.0938,0.5 l 2.5312,212.81 c 5.7972,-0.40862 10.464,0.59664 11.031,8.7812 l -0.53125,-218.19 c -0.96947,-3.136 -4.0056,-4.002 -7.9375,-3.9062 z"
         fill="url(#l)"
         filter="url(#b)"
         id="path169"
         style="fill:url(#radialGradient1276)" />
      <path
         d="m 264.29,415.09 c -1.5764,0.0384 -3.3089,0.23428 -5.0938,0.5 l 2.5312,212.81 c 5.7972,-0.40862 10.464,0.59664 11.031,8.7812 l -0.53125,-218.19 c -0.96947,-3.136 -4.0056,-4.002 -7.9375,-3.9062 z"
         fill="url(#l)"
         filter="url(#b)"
         id="path171"
         style="fill:url(#radialGradient1278)" />
      <g
         transform="translate(101.52,38.718)"
         fill="url(#a)"
         id="g175"
         style="fill:url(#radialGradient1282)">
        <path
           d="m 129.3,372.2 c 9.0321,-1.4659 19.274,-4.2518 21.213,2.0203 l 0.50508,218.19 c -0.85155,-12.276 -10.893,-8.4609 -20.203,-7.8287 z"
           fill="url(#a)"
           id="path173"
           style="fill:url(#radialGradient1280)" />
      </g>
      <path
         d="m 244.08,409.03 c -1.5764,0.0384 -3.3089,0.23428 -5.0938,0.5 l 2.5312,212.81 c 5.7972,-0.40862 10.464,0.59664 11.031,8.7812 l -0.53125,-218.19 c -0.96947,-3.136 -4.0056,-4.002 -7.9375,-3.9062 z"
         fill="url(#k)"
         filter="url(#b)"
         id="path177"
         style="fill:url(#radialGradient1284)" />
      <path
         d="m 244.08,409.03 c -1.5764,0.0384 -3.3089,0.23428 -5.0938,0.5 l 2.5312,212.81 c 5.7972,-0.40862 10.464,0.59664 11.031,8.7812 l -0.53125,-218.19 c -0.96947,-3.136 -4.0056,-4.002 -7.9375,-3.9062 z"
         fill="url(#k)"
         filter="url(#b)"
         id="path179"
         style="fill:url(#radialGradient1286)" />
      <g
         transform="translate(81.822,31.141)"
         fill="url(#a)"
         id="g183"
         style="fill:url(#radialGradient1290)">
        <path
           d="m 129.3,372.2 c 9.0321,-1.4659 19.274,-4.2518 21.213,2.0203 l 0.50508,218.19 c -0.85155,-12.276 -10.893,-8.4609 -20.203,-7.8287 z"
           fill="url(#a)"
           id="path181"
           style="fill:url(#radialGradient1288)" />
      </g>
      <path
         d="m 224.38,401.45 c -1.5764,0.0384 -3.3089,0.23428 -5.0938,0.5 l 2.5312,212.81 c 5.7972,-0.40862 10.464,0.59664 11.031,8.7812 l -0.53125,-218.19 c -0.96947,-3.136 -4.0056,-4.002 -7.9375,-3.9062 z"
         fill="url(#j)"
         filter="url(#b)"
         id="path185"
         style="fill:url(#radialGradient1292)" />
      <path
         d="m 224.38,401.45 c -1.5764,0.0384 -3.3089,0.23428 -5.0938,0.5 l 2.5312,212.81 c 5.7972,-0.40862 10.464,0.59664 11.031,8.7812 l -0.53125,-218.19 c -0.96947,-3.136 -4.0056,-4.002 -7.9375,-3.9062 z"
         fill="url(#j)"
         filter="url(#b)"
         id="path187"
         style="fill:url(#radialGradient1294)" />
      <g
         transform="translate(61.114,22.555)"
         fill="url(#a)"
         id="g191"
         style="fill:url(#radialGradient1298)">
        <path
           d="m 129.3,372.2 c 9.0321,-1.4659 19.274,-4.2518 21.213,2.0203 l 0.50508,218.19 c -0.85155,-12.276 -10.893,-8.4609 -20.203,-7.8287 z"
           fill="url(#a)"
           id="path189"
           style="fill:url(#radialGradient1296)" />
      </g>
      <path
         d="m 203.68,392.87 c -1.5764,0.0384 -3.3089,0.23428 -5.0938,0.5 l 2.5312,212.81 c 5.7972,-0.40862 10.464,0.59664 11.031,8.7812 l -0.53125,-218.19 c -0.96947,-3.136 -4.0056,-4.002 -7.9375,-3.9062 z"
         fill="url(#i)"
         filter="url(#b)"
         id="path193"
         style="fill:url(#radialGradient1300)" />
      <path
         d="m 203.68,392.87 c -1.5764,0.0384 -3.3089,0.23428 -5.0938,0.5 l 2.5312,212.81 c 5.7972,-0.40862 10.464,0.59664 11.031,8.7812 l -0.53125,-218.19 c -0.96947,-3.136 -4.0056,-4.002 -7.9375,-3.9062 z"
         fill="url(#i)"
         filter="url(#b)"
         id="path195"
         style="fill:url(#radialGradient1302)" />
      <g
         transform="translate(224.76,84.174)"
         fill="url(#a)"
         id="g199"
         style="fill:url(#radialGradient1306)">
        <path
           d="m 129.3,372.2 c 9.0321,-1.4659 19.274,-4.2518 21.213,2.0203 l 0.50508,218.19 c -0.85155,-12.276 -10.893,-8.4609 -20.203,-7.8287 z"
           fill="url(#a)"
           id="path197"
           style="fill:url(#radialGradient1304)" />
      </g>
      <path
         d="m 367.32,454.49 c -1.5764,0.0384 -3.3089,0.23428 -5.0938,0.5 l 2.5312,212.81 c 5.7972,-0.40862 10.464,0.59664 11.031,8.7812 l -0.53125,-218.19 c -0.96947,-3.136 -4.0056,-4.002 -7.9375,-3.9062 z"
         fill="url(#h)"
         filter="url(#b)"
         id="path201"
         style="fill:url(#radialGradient1308)" />
      <path
         d="m 367.32,454.49 c -1.5764,0.0384 -3.3089,0.23428 -5.0938,0.5 l 2.5312,212.81 c 5.7972,-0.40862 10.464,0.59664 11.031,8.7812 l -0.53125,-218.19 c -0.96947,-3.136 -4.0056,-4.002 -7.9375,-3.9062 z"
         fill="url(#h)"
         filter="url(#b)"
         id="path203"
         style="fill:url(#radialGradient1310)" />
      <g
         transform="translate(203.55,76.093)"
         fill="url(#a)"
         id="g207"
         style="fill:url(#radialGradient1314)">
        <path
           d="m 129.3,372.2 c 9.0321,-1.4659 19.274,-4.2518 21.213,2.0203 l 0.50508,218.19 c -0.85155,-12.276 -10.893,-8.4609 -20.203,-7.8287 z"
           fill="url(#a)"
           id="path205"
           style="fill:url(#radialGradient1312)" />
      </g>
      <path
         d="m 346.11,446.41 c -1.5764,0.0384 -3.3089,0.23428 -5.0938,0.5 l 2.5312,212.81 c 5.7972,-0.40862 10.464,0.59664 11.031,8.7812 l -0.53125,-218.19 c -0.96947,-3.136 -4.0056,-4.002 -7.9375,-3.9062 z"
         fill="url(#g)"
         filter="url(#b)"
         id="path209"
         style="fill:url(#radialGradient1316)" />
      <path
         d="m 346.11,446.41 c -1.5764,0.0384 -3.3089,0.23428 -5.0938,0.5 l 2.5312,212.81 c 5.7972,-0.40862 10.464,0.59664 11.031,8.7812 l -0.53125,-218.19 c -0.96947,-3.136 -4.0056,-4.002 -7.9375,-3.9062 z"
         fill="url(#g)"
         filter="url(#b)"
         id="path211"
         style="fill:url(#radialGradient1318)" />
      <g
         transform="translate(182.84,68.012)"
         fill="url(#a)"
         id="g215"
         style="fill:url(#radialGradient1322)">
        <path
           d="m 129.3,372.2 c 9.0321,-1.4659 19.274,-4.2518 21.213,2.0203 l 0.50508,218.19 c -0.85155,-12.276 -10.893,-8.4609 -20.203,-7.8287 z"
           fill="url(#a)"
           id="path213"
           style="fill:url(#radialGradient1320)" />
      </g>
      <path
         d="m 325.4,438.32 c -1.5764,0.0384 -3.3089,0.23428 -5.0938,0.5 l 2.5312,212.81 c 5.7972,-0.40862 10.464,0.59664 11.031,8.7812 l -0.53125,-218.19 c -0.96947,-3.136 -4.0056,-4.002 -7.9375,-3.9062 z"
         fill="url(#f)"
         filter="url(#b)"
         id="path217"
         style="fill:url(#radialGradient1324)" />
      <path
         d="m 325.4,438.32 c -1.5764,0.0384 -3.3089,0.23428 -5.0938,0.5 l 2.5312,212.81 c 5.7972,-0.40862 10.464,0.59664 11.031,8.7812 l -0.53125,-218.19 c -0.96947,-3.136 -4.0056,-4.002 -7.9375,-3.9062 z"
         fill="url(#f)"
         filter="url(#b)"
         id="path219"
         style="fill:url(#radialGradient1326)" />
      <g
         transform="translate(162.63,61.951)"
         fill="url(#a)"
         id="g223"
         style="fill:url(#radialGradient1330)">
        <path
           d="m 129.3,372.2 c 9.0321,-1.4659 19.274,-4.2518 21.213,2.0203 l 0.50508,218.19 c -0.85155,-12.276 -10.893,-8.4609 -20.203,-7.8287 z"
           fill="url(#a)"
           id="path221"
           style="fill:url(#radialGradient1328)" />
      </g>
      <path
         d="m 305.2,432.26 c -1.5764,0.0384 -3.3089,0.23428 -5.0938,0.5 l 2.5312,212.81 c 5.7972,-0.40862 10.464,0.59664 11.031,8.7812 l -0.53125,-218.19 c -0.96947,-3.136 -4.0056,-4.002 -7.9375,-3.9062 z"
         fill="url(#e)"
         filter="url(#b)"
         id="path225"
         style="fill:url(#radialGradient1332)" />
      <path
         d="m 305.2,432.26 c -1.5764,0.0384 -3.3089,0.23428 -5.0938,0.5 l 2.5312,212.81 c 5.7972,-0.40862 10.464,0.59664 11.031,8.7812 l -0.53125,-218.19 c -0.96947,-3.136 -4.0056,-4.002 -7.9375,-3.9062 z"
         fill="url(#e)"
         filter="url(#b)"
         id="path227"
         style="fill:url(#radialGradient1334)" />
      <g
         transform="matrix(1,0,-0.00876,1,269.73,98.995)"
         fill="url(#a)"
         id="g231"
         style="fill:url(#radialGradient1338)">
        <path
           d="m 129.3,372.2 c 9.0321,-1.4659 19.274,-4.2518 21.213,2.0203 l 0.50508,218.19 c -0.85155,-12.276 -10.893,-8.4609 -20.203,-7.8287 z"
           fill="url(#a)"
           id="path229"
           style="fill:url(#radialGradient1336)" />
      </g>
      <path
         transform="matrix(1,0,-0.00876,1,269.73,98.995)"
         d="m 142.56,370.31 c -1.5764,0.0384 -3.3089,0.23428 -5.0938,0.5 l 2.5312,212.81 c 5.7972,-0.40862 10.464,0.59664 11.031,8.7812 l -0.53125,-218.19 c -0.96947,-3.136 -4.0056,-4.002 -7.9375,-3.9062 z"
         fill="url(#a)"
         filter="url(#b)"
         id="path233"
         style="fill:url(#radialGradient1340)" />
      <path
         transform="matrix(1,0,-0.00876,1,269.73,98.995)"
         d="m 142.56,370.31 c -1.5764,0.0384 -3.3089,0.23428 -5.0938,0.5 l 2.5312,212.81 c 5.7972,-0.40862 10.464,0.59664 11.031,8.7812 l -0.53125,-218.19 c -0.96947,-3.136 -4.0056,-4.002 -7.9375,-3.9062 z"
         fill="url(#a)"
         filter="url(#b)"
         id="path235"
         style="fill:url(#radialGradient1342)" />
      <g
         transform="translate(245.47,92.256)"
         fill="url(#a)"
         id="g239"
         style="fill:url(#radialGradient1346)">
        <path
           d="m 129.3,372.2 c 9.0321,-1.4659 19.274,-4.2518 21.213,2.0203 l 0.50508,218.19 c -0.85155,-12.276 -10.893,-8.4609 -20.203,-7.8287 z"
           fill="url(#a)"
           id="path237"
           style="fill:url(#radialGradient1344)" />
      </g>
      <path
         d="m 388.03,462.57 c -1.5764,0.0384 -3.3089,0.23428 -5.0938,0.5 l 2.5312,212.81 c 5.7972,-0.40862 10.464,0.59664 11.031,8.7812 l -0.53125,-218.19 c -0.96947,-3.136 -4.0056,-4.002 -7.9375,-3.9062 z"
         fill="url(#d)"
         filter="url(#b)"
         id="path241"
         style="fill:url(#radialGradient1348)" />
      <path
         d="m 388.03,462.57 c -1.5764,0.0384 -3.3089,0.23428 -5.0938,0.5 l 2.5312,212.81 c 5.7972,-0.40862 10.464,0.59664 11.031,8.7812 l -0.53125,-218.19 c -0.96947,-3.136 -4.0056,-4.002 -7.9375,-3.9062 z"
         fill="url(#d)"
         filter="url(#b)"
         id="path243"
         style="fill:url(#radialGradient1350)" />
      <g
         transform="matrix(1,0,-0.03943,1,343.08,123.24)"
         fill="url(#a)"
         id="g247"
         style="fill:url(#radialGradient1354)">
        <path
           d="m 129.3,372.2 c 9.0321,-1.4659 19.274,-4.2518 21.213,2.0203 l 0.50508,218.19 c -0.85155,-12.276 -10.893,-8.4609 -20.203,-7.8287 z"
           fill="url(#a)"
           id="path245"
           style="fill:url(#radialGradient1352)" />
      </g>
      <path
         transform="matrix(1,0,-0.03943,1,343.08,123.24)"
         d="m 142.56,370.31 c -1.5764,0.0384 -3.3089,0.23428 -5.0938,0.5 l 2.5312,212.81 c 5.7972,-0.40862 10.464,0.59664 11.031,8.7812 l -0.53125,-218.19 c -0.96947,-3.136 -4.0056,-4.002 -7.9375,-3.9062 z"
         fill="url(#a)"
         filter="url(#b)"
         id="path249"
         style="fill:url(#radialGradient1356)" />
      <path
         transform="matrix(1,0,-0.03943,1,343.08,123.24)"
         d="m 142.56,370.31 c -1.5764,0.0384 -3.3089,0.23428 -5.0938,0.5 l 2.5312,212.81 c 5.7972,-0.40862 10.464,0.59664 11.031,8.7812 l -0.53125,-218.19 c -0.96947,-3.136 -4.0056,-4.002 -7.9375,-3.9062 z"
         fill="url(#a)"
         filter="url(#b)"
         id="path251"
         style="fill:url(#radialGradient1358)" />
      <g
         transform="matrix(1,0,-0.03943,1,322.88,115.66)"
         fill="url(#a)"
         id="g255"
         style="fill:url(#radialGradient1362)">
        <path
           d="m 129.3,372.2 c 9.0321,-1.4659 19.274,-4.2518 21.213,2.0203 l 0.50508,218.19 c -0.85155,-12.276 -10.893,-8.4609 -20.203,-7.8287 z"
           fill="url(#a)"
           id="path253"
           style="fill:url(#radialGradient1360)" />
      </g>
      <path
         transform="matrix(1,0,-0.03943,1,322.88,115.66)"
         d="m 142.56,370.31 c -1.5764,0.0384 -3.3089,0.23428 -5.0938,0.5 l 2.5312,212.81 c 5.7972,-0.40862 10.464,0.59664 11.031,8.7812 l -0.53125,-218.19 c -0.96947,-3.136 -4.0056,-4.002 -7.9375,-3.9062 z"
         fill="url(#a)"
         filter="url(#b)"
         id="path257"
         style="fill:url(#radialGradient1364)" />
      <path
         transform="matrix(1,0,-0.03943,1,322.88,115.66)"
         d="m 142.56,370.31 c -1.5764,0.0384 -3.3089,0.23428 -5.0938,0.5 l 2.5312,212.81 c 5.7972,-0.40862 10.464,0.59664 11.031,8.7812 l -0.53125,-218.19 c -0.96947,-3.136 -4.0056,-4.002 -7.9375,-3.9062 z"
         fill="url(#a)"
         filter="url(#b)"
         id="path259"
         style="fill:url(#radialGradient1366)" />
      <g
         transform="matrix(1,0,-0.0219,1,295.75,109.1)"
         fill="url(#a)"
         id="g263"
         style="fill:url(#radialGradient1370)">
        <path
           d="m 129.3,372.2 c 9.0321,-1.4659 19.274,-4.2518 21.213,2.0203 l 0.50508,218.19 c -0.85155,-12.276 -10.893,-8.4609 -20.203,-7.8287 z"
           fill="url(#a)"
           id="path261"
           style="fill:url(#radialGradient1368)" />
      </g>
      <path
         transform="matrix(1,0,-0.0219,1,295.75,109.1)"
         d="m 142.56,370.31 c -1.5764,0.0384 -3.3089,0.23428 -5.0938,0.5 l 2.5312,212.81 c 5.7972,-0.40862 10.464,0.59664 11.031,8.7812 l -0.53125,-218.19 c -0.96947,-3.136 -4.0056,-4.002 -7.9375,-3.9062 z"
         fill="url(#a)"
         filter="url(#b)"
         id="path265"
         style="fill:url(#radialGradient1372)" />
      <path
         transform="matrix(1,0,-0.0219,1,295.75,109.1)"
         d="m 142.56,370.31 c -1.5764,0.0384 -3.3089,0.23428 -5.0938,0.5 l 2.5312,212.81 c 5.7972,-0.40862 10.464,0.59664 11.031,8.7812 l -0.53125,-218.19 c -0.96947,-3.136 -4.0056,-4.002 -7.9375,-3.9062 z"
         fill="url(#a)"
         filter="url(#b)"
         id="path267"
         style="fill:url(#radialGradient1374)" />
      <g
         transform="translate(-4.135e-7,2.8571)"
         fill="url(#a)"
         id="g271"
         style="fill:url(#radialGradient1378)">
        <path
           d="m 129.3,372.2 c 9.0321,-1.4659 19.274,-4.2518 21.213,2.0203 l 0.50508,218.19 c -0.85155,-12.276 -10.893,-8.4609 -20.203,-7.8287 z"
           fill="url(#a)"
           id="path269"
           style="fill:url(#radialGradient1376)" />
      </g>
      <path
         d="m 142.56,373.17 c -1.5764,0.0384 -3.3089,0.23428 -5.0938,0.5 l 2.5312,212.81 c 5.7972,-0.40862 10.464,0.59664 11.031,8.7812 l -0.53125,-218.19 c -0.96947,-3.136 -4.0056,-4.002 -7.9375,-3.9062 z"
         fill="url(#p)"
         filter="url(#b)"
         id="path273"
         style="fill:url(#radialGradient1380)" />
      <path
         d="m 142.56,373.17 c -1.5764,0.0384 -3.3089,0.23428 -5.0938,0.5 l 2.5312,212.81 c 5.7972,-0.40862 10.464,0.59664 11.031,8.7812 l -0.53125,-218.19 c -0.96947,-3.136 -4.0056,-4.002 -7.9375,-3.9062 z"
         fill="url(#p)"
         filter="url(#b)"
         id="path275"
         style="fill:url(#p)" />
      <g
         transform="translate(20.203,7.9079)"
         fill="url(#a)"
         id="g279"
         style="fill:url(#radialGradient1384)">
        <path
           d="m 129.3,372.2 c 9.0321,-1.4659 19.274,-4.2518 21.213,2.0203 l 0.50508,218.19 c -0.85155,-12.276 -10.893,-8.4609 -20.203,-7.8287 z"
           fill="url(#a)"
           id="path277"
           style="fill:url(#radialGradient1382)" />
      </g>
      <path
         d="m 162.77,378.22 c -1.5764,0.0384 -3.3089,0.23428 -5.0938,0.5 l 2.5312,212.81 c 5.7972,-0.40862 10.464,0.59664 11.031,8.7812 l -0.53125,-218.19 c -0.96947,-3.136 -4.0056,-4.002 -7.9375,-3.9062 z"
         fill="url(#o)"
         filter="url(#b)"
         id="path281"
         style="fill:url(#radialGradient1386)" />
      <path
         d="m 162.77,378.22 c -1.5764,0.0384 -3.3089,0.23428 -5.0938,0.5 l 2.5312,212.81 c 5.7972,-0.40862 10.464,0.59664 11.031,8.7812 l -0.53125,-218.19 c -0.96947,-3.136 -4.0056,-4.002 -7.9375,-3.9062 z"
         fill="url(#o)"
         filter="url(#b)"
         id="path283"
         style="fill:url(#o)" />
      <g
         transform="translate(41.416,16.494)"
         fill="url(#a)"
         id="g287"
         style="fill:url(#radialGradient1390)">
        <path
           d="m 129.3,372.2 c 9.0321,-1.4659 19.274,-4.2518 21.213,2.0203 l 0.50508,218.19 c -0.85155,-12.276 -10.893,-8.4609 -20.203,-7.8287 z"
           fill="url(#a)"
           id="path285"
           style="fill:url(#radialGradient1388)" />
      </g>
      <path
         d="m 183.98,386.81 c -1.5764,0.0384 -3.3089,0.23428 -5.0938,0.5 l 2.5312,212.81 c 5.7972,-0.40862 10.464,0.59664 11.031,8.7812 l -0.53125,-218.19 c -0.96947,-3.136 -4.0056,-4.002 -7.9375,-3.9062 z"
         fill="url(#n)"
         filter="url(#b)"
         id="path289"
         style="fill:url(#radialGradient1392)" />
      <path
         d="m 183.98,386.81 c -1.5764,0.0384 -3.3089,0.23428 -5.0938,0.5 l 2.5312,212.81 c 5.7972,-0.40862 10.464,0.59664 11.031,8.7812 l -0.53125,-218.19 c -0.96947,-3.136 -4.0056,-4.002 -7.9375,-3.9062 z"
         fill="url(#n)"
         filter="url(#b)"
         id="path291"
         style="fill:url(#n)" />
      <g
         transform="translate(140.92,52.86)"
         fill="url(#a)"
         id="g295"
         style="fill:url(#radialGradient1396)">
        <path
           d="m 129.3,372.2 c 9.0321,-1.4659 19.274,-4.2518 21.213,2.0203 l 0.50508,218.19 c -0.85155,-12.276 -10.893,-8.4609 -20.203,-7.8287 z"
           fill="url(#a)"
           id="path293"
           style="fill:url(#radialGradient1394)" />
      </g>
      <path
         d="m 283.48,423.17 c -1.5764,0.0384 -3.3089,0.23428 -5.0938,0.5 l 2.5312,212.81 c 5.7972,-0.40862 10.464,0.59664 11.031,8.7812 l -0.53125,-218.19 c -0.96947,-3.136 -4.0056,-4.002 -7.9375,-3.9062 z"
         fill="url(#m)"
         filter="url(#b)"
         id="path297"
         style="fill:url(#radialGradient1398)" />
      <path
         d="m 283.48,423.17 c -1.5764,0.0384 -3.3089,0.23428 -5.0938,0.5 l 2.5312,212.81 c 5.7972,-0.40862 10.464,0.59664 11.031,8.7812 l -0.53125,-218.19 c -0.96947,-3.136 -4.0056,-4.002 -7.9375,-3.9062 z"
         fill="url(#m)"
         filter="url(#b)"
         id="path299"
         style="fill:url(#m)" />
      <g
         transform="translate(121.72,44.778)"
         fill="url(#a)"
         id="g303"
         style="fill:url(#radialGradient1402)">
        <path
           d="m 129.3,372.2 c 9.0321,-1.4659 19.274,-4.2518 21.213,2.0203 l 0.50508,218.19 c -0.85155,-12.276 -10.893,-8.4609 -20.203,-7.8287 z"
           fill="url(#a)"
           id="path301"
           style="fill:url(#radialGradient1400)" />
      </g>
      <path
         d="m 264.29,415.09 c -1.5764,0.0384 -3.3089,0.23428 -5.0938,0.5 l 2.5312,212.81 c 5.7972,-0.40862 10.464,0.59664 11.031,8.7812 l -0.53125,-218.19 c -0.96947,-3.136 -4.0056,-4.002 -7.9375,-3.9062 z"
         fill="url(#l)"
         filter="url(#b)"
         id="path305"
         style="fill:url(#radialGradient1404)" />
      <path
         d="m 264.29,415.09 c -1.5764,0.0384 -3.3089,0.23428 -5.0938,0.5 l 2.5312,212.81 c 5.7972,-0.40862 10.464,0.59664 11.031,8.7812 l -0.53125,-218.19 c -0.96947,-3.136 -4.0056,-4.002 -7.9375,-3.9062 z"
         fill="url(#l)"
         filter="url(#b)"
         id="path307"
         style="fill:url(#l)" />
      <g
         transform="translate(101.52,38.718)"
         fill="url(#a)"
         id="g311"
         style="fill:url(#radialGradient1408)">
        <path
           d="m 129.3,372.2 c 9.0321,-1.4659 19.274,-4.2518 21.213,2.0203 l 0.50508,218.19 c -0.85155,-12.276 -10.893,-8.4609 -20.203,-7.8287 z"
           fill="url(#a)"
           id="path309"
           style="fill:url(#radialGradient1406)" />
      </g>
      <path
         d="m 244.08,409.03 c -1.5764,0.0384 -3.3089,0.23428 -5.0938,0.5 l 2.5312,212.81 c 5.7972,-0.40862 10.464,0.59664 11.031,8.7812 l -0.53125,-218.19 c -0.96947,-3.136 -4.0056,-4.002 -7.9375,-3.9062 z"
         fill="url(#k)"
         filter="url(#b)"
         id="path313"
         style="fill:url(#radialGradient1410)" />
      <path
         d="m 244.08,409.03 c -1.5764,0.0384 -3.3089,0.23428 -5.0938,0.5 l 2.5312,212.81 c 5.7972,-0.40862 10.464,0.59664 11.031,8.7812 l -0.53125,-218.19 c -0.96947,-3.136 -4.0056,-4.002 -7.9375,-3.9062 z"
         fill="url(#k)"
         filter="url(#b)"
         id="path315"
         style="fill:url(#k)" />
      <g
         transform="translate(81.822,31.141)"
         fill="url(#a)"
         id="g319"
         style="fill:url(#radialGradient1414)">
        <path
           d="m 129.3,372.2 c 9.0321,-1.4659 19.274,-4.2518 21.213,2.0203 l 0.50508,218.19 c -0.85155,-12.276 -10.893,-8.4609 -20.203,-7.8287 z"
           fill="url(#a)"
           id="path317"
           style="fill:url(#radialGradient1412)" />
      </g>
      <path
         d="m 224.38,401.45 c -1.5764,0.0384 -3.3089,0.23428 -5.0938,0.5 l 2.5312,212.81 c 5.7972,-0.40862 10.464,0.59664 11.031,8.7812 l -0.53125,-218.19 c -0.96947,-3.136 -4.0056,-4.002 -7.9375,-3.9062 z"
         fill="url(#j)"
         filter="url(#b)"
         id="path321"
         style="fill:url(#radialGradient1416)" />
      <path
         d="m 224.38,401.45 c -1.5764,0.0384 -3.3089,0.23428 -5.0938,0.5 l 2.5312,212.81 c 5.7972,-0.40862 10.464,0.59664 11.031,8.7812 l -0.53125,-218.19 c -0.96947,-3.136 -4.0056,-4.002 -7.9375,-3.9062 z"
         fill="url(#j)"
         filter="url(#b)"
         id="path323"
         style="fill:url(#j)" />
      <g
         transform="translate(61.114,22.555)"
         fill="url(#a)"
         id="g327"
         style="fill:url(#radialGradient1420)">
        <path
           d="m 129.3,372.2 c 9.0321,-1.4659 19.274,-4.2518 21.213,2.0203 l 0.50508,218.19 c -0.85155,-12.276 -10.893,-8.4609 -20.203,-7.8287 z"
           fill="url(#a)"
           id="path325"
           style="fill:url(#radialGradient1418)" />
      </g>
      <path
         d="m 203.68,392.87 c -1.5764,0.0384 -3.3089,0.23428 -5.0938,0.5 l 2.5312,212.81 c 5.7972,-0.40862 10.464,0.59664 11.031,8.7812 l -0.53125,-218.19 c -0.96947,-3.136 -4.0056,-4.002 -7.9375,-3.9062 z"
         fill="url(#i)"
         filter="url(#b)"
         id="path329"
         style="fill:url(#radialGradient1422)" />
      <path
         d="m 203.68,392.87 c -1.5764,0.0384 -3.3089,0.23428 -5.0938,0.5 l 2.5312,212.81 c 5.7972,-0.40862 10.464,0.59664 11.031,8.7812 l -0.53125,-218.19 c -0.96947,-3.136 -4.0056,-4.002 -7.9375,-3.9062 z"
         fill="url(#i)"
         filter="url(#b)"
         id="path331"
         style="fill:url(#i)" />
      <g
         transform="translate(224.76,84.174)"
         fill="url(#a)"
         id="g335"
         style="fill:url(#radialGradient1426)">
        <path
           d="m 129.3,372.2 c 9.0321,-1.4659 19.274,-4.2518 21.213,2.0203 l 0.50508,218.19 c -0.85155,-12.276 -10.893,-8.4609 -20.203,-7.8287 z"
           fill="url(#a)"
           id="path333"
           style="fill:url(#radialGradient1424)" />
      </g>
      <path
         d="m 367.32,454.49 c -1.5764,0.0384 -3.3089,0.23428 -5.0938,0.5 l 2.5312,212.81 c 5.7972,-0.40862 10.464,0.59664 11.031,8.7812 l -0.53125,-218.19 c -0.96947,-3.136 -4.0056,-4.002 -7.9375,-3.9062 z"
         fill="url(#h)"
         filter="url(#b)"
         id="path337"
         style="fill:url(#radialGradient1428)" />
      <path
         d="m 367.32,454.49 c -1.5764,0.0384 -3.3089,0.23428 -5.0938,0.5 l 2.5312,212.81 c 5.7972,-0.40862 10.464,0.59664 11.031,8.7812 l -0.53125,-218.19 c -0.96947,-3.136 -4.0056,-4.002 -7.9375,-3.9062 z"
         fill="url(#h)"
         filter="url(#b)"
         id="path339"
         style="fill:url(#h)" />
      <g
         transform="translate(203.55,76.093)"
         fill="url(#a)"
         id="g343"
         style="fill:url(#radialGradient1432)">
        <path
           d="m 129.3,372.2 c 9.0321,-1.4659 19.274,-4.2518 21.213,2.0203 l 0.50508,218.19 c -0.85155,-12.276 -10.893,-8.4609 -20.203,-7.8287 z"
           fill="url(#a)"
           id="path341"
           style="fill:url(#radialGradient1430)" />
      </g>
      <path
         d="m 346.11,446.41 c -1.5764,0.0384 -3.3089,0.23428 -5.0938,0.5 l 2.5312,212.81 c 5.7972,-0.40862 10.464,0.59664 11.031,8.7812 l -0.53125,-218.19 c -0.96947,-3.136 -4.0056,-4.002 -7.9375,-3.9062 z"
         fill="url(#g)"
         filter="url(#b)"
         id="path345"
         style="fill:url(#radialGradient1434)" />
      <path
         d="m 346.11,446.41 c -1.5764,0.0384 -3.3089,0.23428 -5.0938,0.5 l 2.5312,212.81 c 5.7972,-0.40862 10.464,0.59664 11.031,8.7812 l -0.53125,-218.19 c -0.96947,-3.136 -4.0056,-4.002 -7.9375,-3.9062 z"
         fill="url(#g)"
         filter="url(#b)"
         id="path347"
         style="fill:url(#g)" />
      <g
         transform="translate(182.84,68.012)"
         fill="url(#a)"
         id="g351"
         style="fill:url(#radialGradient1438)">
        <path
           d="m 129.3,372.2 c 9.0321,-1.4659 19.274,-4.2518 21.213,2.0203 l 0.50508,218.19 c -0.85155,-12.276 -10.893,-8.4609 -20.203,-7.8287 z"
           fill="url(#a)"
           id="path349"
           style="fill:url(#radialGradient1436)" />
      </g>
      <path
         d="m 325.4,438.32 c -1.5764,0.0384 -3.3089,0.23428 -5.0938,0.5 l 2.5312,212.81 c 5.7972,-0.40862 10.464,0.59664 11.031,8.7812 l -0.53125,-218.19 c -0.96947,-3.136 -4.0056,-4.002 -7.9375,-3.9062 z"
         fill="url(#f)"
         filter="url(#b)"
         id="path353"
         style="fill:url(#radialGradient1440)" />
      <path
         d="m 325.4,438.32 c -1.5764,0.0384 -3.3089,0.23428 -5.0938,0.5 l 2.5312,212.81 c 5.7972,-0.40862 10.464,0.59664 11.031,8.7812 l -0.53125,-218.19 c -0.96947,-3.136 -4.0056,-4.002 -7.9375,-3.9062 z"
         fill="url(#f)"
         filter="url(#b)"
         id="path355"
         style="fill:url(#f)" />
      <g
         transform="translate(162.63,61.951)"
         fill="url(#a)"
         id="g359"
         style="fill:url(#radialGradient1444)">
        <path
           d="m 129.3,372.2 c 9.0321,-1.4659 19.274,-4.2518 21.213,2.0203 l 0.50508,218.19 c -0.85155,-12.276 -10.893,-8.4609 -20.203,-7.8287 z"
           fill="url(#a)"
           id="path357"
           style="fill:url(#radialGradient1442)" />
      </g>
      <path
         d="m 305.2,432.26 c -1.5764,0.0384 -3.3089,0.23428 -5.0938,0.5 l 2.5312,212.81 c 5.7972,-0.40862 10.464,0.59664 11.031,8.7812 l -0.53125,-218.19 c -0.96947,-3.136 -4.0056,-4.002 -7.9375,-3.9062 z"
         fill="url(#e)"
         filter="url(#b)"
         id="path361"
         style="fill:url(#radialGradient1446)" />
      <path
         d="m 305.2,432.26 c -1.5764,0.0384 -3.3089,0.23428 -5.0938,0.5 l 2.5312,212.81 c 5.7972,-0.40862 10.464,0.59664 11.031,8.7812 l -0.53125,-218.19 c -0.96947,-3.136 -4.0056,-4.002 -7.9375,-3.9062 z"
         fill="url(#e)"
         filter="url(#b)"
         id="path363"
         style="fill:url(#e)" />
      <g
         transform="matrix(1,0,-0.00876,1,269.73,98.995)"
         fill="url(#a)"
         id="g367"
         style="fill:url(#radialGradient1450)">
        <path
           d="m 129.3,372.2 c 9.0321,-1.4659 19.274,-4.2518 21.213,2.0203 l 0.50508,218.19 c -0.85155,-12.276 -10.893,-8.4609 -20.203,-7.8287 z"
           fill="url(#a)"
           id="path365"
           style="fill:url(#radialGradient1448)" />
      </g>
      <path
         transform="matrix(1,0,-0.00876,1,269.73,98.995)"
         d="m 142.56,370.31 c -1.5764,0.0384 -3.3089,0.23428 -5.0938,0.5 l 2.5312,212.81 c 5.7972,-0.40862 10.464,0.59664 11.031,8.7812 l -0.53125,-218.19 c -0.96947,-3.136 -4.0056,-4.002 -7.9375,-3.9062 z"
         fill="url(#a)"
         filter="url(#b)"
         id="path369"
         style="fill:url(#radialGradient1452)" />
      <path
         transform="matrix(1,0,-0.00876,1,269.73,98.995)"
         d="m 142.56,370.31 c -1.5764,0.0384 -3.3089,0.23428 -5.0938,0.5 l 2.5312,212.81 c 5.7972,-0.40862 10.464,0.59664 11.031,8.7812 l -0.53125,-218.19 c -0.96947,-3.136 -4.0056,-4.002 -7.9375,-3.9062 z"
         fill="url(#a)"
         filter="url(#b)"
         id="path371"
         style="fill:url(#radialGradient1454)" />
      <g
         transform="translate(245.47,92.256)"
         fill="url(#a)"
         id="g375"
         style="fill:url(#radialGradient1458)">
        <path
           d="m 129.3,372.2 c 9.0321,-1.4659 19.274,-4.2518 21.213,2.0203 l 0.50508,218.19 c -0.85155,-12.276 -10.893,-8.4609 -20.203,-7.8287 z"
           fill="url(#a)"
           id="path373"
           style="fill:url(#radialGradient1456)" />
      </g>
      <path
         d="m 388.03,462.57 c -1.5764,0.0384 -3.3089,0.23428 -5.0938,0.5 l 2.5312,212.81 c 5.7972,-0.40862 10.464,0.59664 11.031,8.7812 l -0.53125,-218.19 c -0.96947,-3.136 -4.0056,-4.002 -7.9375,-3.9062 z"
         fill="url(#d)"
         filter="url(#b)"
         id="path377"
         style="fill:url(#radialGradient1460)" />
      <path
         d="m 388.03,462.57 c -1.5764,0.0384 -3.3089,0.23428 -5.0938,0.5 l 2.5312,212.81 c 5.7972,-0.40862 10.464,0.59664 11.031,8.7812 l -0.53125,-218.19 c -0.96947,-3.136 -4.0056,-4.002 -7.9375,-3.9062 z"
         fill="url(#d)"
         filter="url(#b)"
         id="path379"
         style="fill:url(#d)" />
      <g
         transform="matrix(1,0,-0.03943,1,343.08,123.24)"
         fill="url(#a)"
         id="g383"
         style="fill:url(#radialGradient1464)">
        <path
           d="m 129.3,372.2 c 9.0321,-1.4659 19.274,-4.2518 21.213,2.0203 l 0.50508,218.19 c -0.85155,-12.276 -10.893,-8.4609 -20.203,-7.8287 z"
           fill="url(#a)"
           id="path381"
           style="fill:url(#radialGradient1462)" />
      </g>
      <path
         transform="matrix(1,0,-0.03943,1,343.08,123.24)"
         d="m 142.56,370.31 c -1.5764,0.0384 -3.3089,0.23428 -5.0938,0.5 l 2.5312,212.81 c 5.7972,-0.40862 10.464,0.59664 11.031,8.7812 l -0.53125,-218.19 c -0.96947,-3.136 -4.0056,-4.002 -7.9375,-3.9062 z"
         fill="url(#a)"
         filter="url(#b)"
         id="path385"
         style="fill:url(#radialGradient1466)" />
      <path
         transform="matrix(1,0,-0.03943,1,343.08,123.24)"
         d="m 142.56,370.31 c -1.5764,0.0384 -3.3089,0.23428 -5.0938,0.5 l 2.5312,212.81 c 5.7972,-0.40862 10.464,0.59664 11.031,8.7812 l -0.53125,-218.19 c -0.96947,-3.136 -4.0056,-4.002 -7.9375,-3.9062 z"
         fill="url(#a)"
         filter="url(#b)"
         id="path387"
         style="fill:url(#radialGradient1468)" />
      <g
         transform="matrix(1,0,-0.03943,1,322.88,115.66)"
         fill="url(#a)"
         id="g391"
         style="fill:url(#radialGradient1472)">
        <path
           d="m 129.3,372.2 c 9.0321,-1.4659 19.274,-4.2518 21.213,2.0203 l 0.50508,218.19 c -0.85155,-12.276 -10.893,-8.4609 -20.203,-7.8287 z"
           fill="url(#a)"
           id="path389"
           style="fill:url(#radialGradient1470)" />
      </g>
      <path
         transform="matrix(1,0,-0.03943,1,322.88,115.66)"
         d="m 142.56,370.31 c -1.5764,0.0384 -3.3089,0.23428 -5.0938,0.5 l 2.5312,212.81 c 5.7972,-0.40862 10.464,0.59664 11.031,8.7812 l -0.53125,-218.19 c -0.96947,-3.136 -4.0056,-4.002 -7.9375,-3.9062 z"
         fill="url(#a)"
         filter="url(#b)"
         id="path393"
         style="fill:url(#radialGradient1474)" />
      <path
         transform="matrix(1,0,-0.03943,1,322.88,115.66)"
         d="m 142.56,370.31 c -1.5764,0.0384 -3.3089,0.23428 -5.0938,0.5 l 2.5312,212.81 c 5.7972,-0.40862 10.464,0.59664 11.031,8.7812 l -0.53125,-218.19 c -0.96947,-3.136 -4.0056,-4.002 -7.9375,-3.9062 z"
         fill="url(#a)"
         filter="url(#b)"
         id="path395"
         style="fill:url(#radialGradient1476)" />
      <g
         transform="matrix(1,0,-0.0219,1,295.75,109.1)"
         fill="url(#a)"
         id="g399"
         style="fill:url(#radialGradient1480)">
        <path
           d="m 129.3,372.2 c 9.0321,-1.4659 19.274,-4.2518 21.213,2.0203 l 0.50508,218.19 c -0.85155,-12.276 -10.893,-8.4609 -20.203,-7.8287 z"
           fill="url(#a)"
           id="path397"
           style="fill:url(#radialGradient1478)" />
      </g>
      <path
         transform="matrix(1,0,-0.0219,1,295.75,109.1)"
         d="m 142.56,370.31 c -1.5764,0.0384 -3.3089,0.23428 -5.0938,0.5 l 2.5312,212.81 c 5.7972,-0.40862 10.464,0.59664 11.031,8.7812 l -0.53125,-218.19 c -0.96947,-3.136 -4.0056,-4.002 -7.9375,-3.9062 z"
         fill="url(#a)"
         filter="url(#b)"
         id="path401"
         style="fill:url(#radialGradient1482)" />
      <path
         transform="matrix(1,0,-0.0219,1,295.75,109.1)"
         d="m 142.56,370.31 c -1.5764,0.0384 -3.3089,0.23428 -5.0938,0.5 l 2.5312,212.81 c 5.7972,-0.40862 10.464,0.59664 11.031,8.7812 l -0.53125,-218.19 c -0.96947,-3.136 -4.0056,-4.002 -7.9375,-3.9062 z"
         fill="url(#a)"
         filter="url(#b)"
         id="path403"
         style="fill:url(#a)" />
      <path
         d="m 235,160 c 4.8306,5.4459 9.2409,11.259 19.286,12.143 l 2.1429,87.143 c -10.131,3.5566 -18.095,3.1475 -22.944,-1.2194 z"
         fill="url(#u)"
         id="path405"
         style="fill:url(#u)" />
    </g>
  </g>
</svg>
