<?xml version="1.0" encoding="UTF-8" standalone="no"?>
<svg
   xmlns:dc="http://purl.org/dc/elements/1.1/"
   xmlns:cc="http://creativecommons.org/ns#"
   xmlns:rdf="http://www.w3.org/1999/02/22-rdf-syntax-ns#"
   xmlns:svg="http://www.w3.org/2000/svg"
   xmlns="http://www.w3.org/2000/svg"
   xmlns:xlink="http://www.w3.org/1999/xlink"
   xmlns:sodipodi="http://sodipodi.sourceforge.net/DTD/sodipodi-0.dtd"
   xmlns:inkscape="http://www.inkscape.org/namespaces/inkscape"
   id="svg2"
   viewBox="0 0 332.59844 472.44097"
   version="1.0"
   sodipodi:docname="shirt.svg"
   width="88mm"
   height="125mm"
   inkscape:version="1.0.2-2 (e86c870879, 2021-01-15)">
  <sodipodi:namedview
     pagecolor="#ffffff"
     bordercolor="#666666"
     borderopacity="1"
     objecttolerance="10"
     gridtolerance="10"
     guidetolerance="10"
     inkscape:pageopacity="0"
     inkscape:pageshadow="2"
     inkscape:window-width="1920"
     inkscape:window-height="1017"
     id="namedview222"
     showgrid="false"
     units="mm"
     inkscape:zoom="1.3546249"
     inkscape:cx="-53.757031"
     inkscape:cy="229.50791"
     inkscape:window-x="-8"
     inkscape:window-y="-8"
     inkscape:window-maximized="1"
     inkscape:current-layer="svg2" />
  <title
     id="title4526">Blue Polo Shirt Remix by Merlin2525.svg</title>
  <defs
     id="defs4">
    <filter
       id="filter4619-4"
       width="1.6977"
       y="-0.059749998"
       x="-0.34883001"
       height="1.1195"
       color-interpolation-filters="sRGB">
      <feGaussianBlur
         id="feGaussianBlur4621-4"
         stdDeviation="1.2810301" />
    </filter>
    <filter
       id="filter22155-9"
       height="1.1569999"
       width="2.3717999"
       y="-0.078509003"
       x="-0.68589002"
       color-interpolation-filters="sRGB">
      <feGaussianBlur
         id="feGaussianBlur22157-6"
         stdDeviation="2.3457246" />
    </filter>
    <filter
       id="filter22189-8"
       height="1.09"
       width="2.0018001"
       y="-0.045006"
       x="-0.50088"
       color-interpolation-filters="sRGB">
      <feGaussianBlur
         id="feGaussianBlur22191-8"
         stdDeviation="1.3520084" />
    </filter>
    <filter
       id="filter21900-3"
       height="1.1037"
       width="1.5587"
       y="-0.051837999"
       x="-0.27935001"
       color-interpolation-filters="sRGB">
      <feGaussianBlur
         id="feGaussianBlur21902-7"
         stdDeviation="1.5308489" />
    </filter>
    <filter
       id="filter4567-9"
       width="1.522"
       y="-0.079143003"
       x="-0.26100001"
       height="1.1583"
       color-interpolation-filters="sRGB">
      <feGaussianBlur
         id="feGaussianBlur4569-1"
         stdDeviation="1.8204586" />
    </filter>
    <linearGradient
       id="linearGradient4505-2"
       y2="64.653999"
       gradientUnits="userSpaceOnUse"
       y1="72.514"
       x2="47.431"
       x1="56.824001">
      <stop
         id="stop22169-6"
         offset="0" />
      <stop
         id="stop22171-1"
         stop-color="#b3b3b3"
         stop-opacity="0"
         offset="1" />
    </linearGradient>
    <filter
       id="filter4173-0"
       color-interpolation-filters="sRGB">
      <feGaussianBlur
         id="feGaussianBlur4175-8"
         stdDeviation="0.62121813" />
    </filter>
    <filter
       id="filter22006-9"
       height="1.1939"
       width="1.3625"
       y="-0.096929997"
       x="-0.18127"
       color-interpolation-filters="sRGB">
      <feGaussianBlur
         id="feGaussianBlur22008-4"
         stdDeviation="1.2123305" />
    </filter>
    <filter
       id="filter22014-2"
       height="1.2194999"
       width="1.4337"
       y="-0.10975"
       x="-0.21686999"
       color-interpolation-filters="sRGB">
      <feGaussianBlur
         id="feGaussianBlur22016-4"
         stdDeviation="1.6043371" />
    </filter>
    <filter
       id="filter4535-8"
       width="1.5125"
       y="-0.097152002"
       x="-0.25626001"
       height="1.1943001"
       color-interpolation-filters="sRGB">
      <feGaussianBlur
         id="feGaussianBlur4537-8"
         stdDeviation="1.3248077" />
    </filter>
    <filter
       id="filter22228-0"
       height="1.3534"
       width="1.3102"
       y="-0.17668"
       x="-0.15509"
       color-interpolation-filters="sRGB">
      <feGaussianBlur
         id="feGaussianBlur22230-3"
         stdDeviation="1.7328573" />
    </filter>
    <filter
       id="filter4527-0"
       width="1.2932"
       y="-0.1269"
       x="-0.14658"
       height="1.2538"
       color-interpolation-filters="sRGB">
      <feGaussianBlur
         id="feGaussianBlur4529-4"
         stdDeviation="1.8078158" />
    </filter>
    <filter
       id="filter4195-2"
       height="1.0595"
       width="1.3378"
       y="-0.029750001"
       x="-0.16888"
       color-interpolation-filters="sRGB">
      <feGaussianBlur
         id="feGaussianBlur4197-0"
         stdDeviation="0.94011737" />
    </filter>
    <filter
       id="filter22163-6"
       height="1.114"
       width="1.2445"
       y="-0.056984998"
       x="-0.12224"
       color-interpolation-filters="sRGB">
      <feGaussianBlur
         id="feGaussianBlur22165-4"
         stdDeviation="1.3165579" />
    </filter>
    <filter
       id="filter4203-8"
       height="1.1243"
       width="1.4450001"
       y="-0.062155001"
       x="-0.2225"
       color-interpolation-filters="sRGB">
      <feGaussianBlur
         id="feGaussianBlur4205-1"
         stdDeviation="1.0689097" />
    </filter>
    <filter
       id="filter4541-0"
       width="1.4572999"
       y="-0.042070001"
       x="-0.22864"
       height="1.0841"
       color-interpolation-filters="sRGB">
      <feGaussianBlur
         id="feGaussianBlur4543-5"
         stdDeviation="1.323434" />
    </filter>
    <filter
       id="filter4603-4"
       width="1.3278"
       y="-0.13122"
       x="-0.1639"
       height="1.2624"
       color-interpolation-filters="sRGB">
      <feGaussianBlur
         id="feGaussianBlur4605-4"
         stdDeviation="1.6631027" />
    </filter>
    <radialGradient
       id="radialGradient5605"
       gradientUnits="userSpaceOnUse"
       cy="124.97"
       cx="108.39"
       gradientTransform="matrix(1.9063,-0.0098651,0.016571,3.1906,-135.81,-308.26)"
       r="80.775002">
      <stop
         id="stop22207-8"
         stop-color="#d00000"
         offset="0" />
      <stop
         id="stop22209-6"
         stop-color="#650101"
         offset="1" />
    </radialGradient>
    <filter
       id="filter4519-7"
       color-interpolation-filters="sRGB">
      <feGaussianBlur
         id="feGaussianBlur4521-4"
         stdDeviation="2.4615559" />
    </filter>
    <linearGradient
       id="linearGradient5883"
       y2="60.898998"
       gradientUnits="userSpaceOnUse"
       y1="125.41"
       gradientTransform="translate(-36.374,-31.781)"
       x2="118.19"
       x1="118.23">
      <stop
         id="stop4185-6-7"
         stop-opacity=".44615"
         offset="0" />
      <stop
         id="stop4187-5-6"
         stop-opacity="0"
         offset="1" />
    </linearGradient>
    <filter
       id="filter7160"
       color-interpolation-filters="sRGB">
      <feGaussianBlur
         id="feGaussianBlur7162"
         stdDeviation="10.840151" />
    </filter>
    <radialGradient
       id="radialGradient6237"
       gradientUnits="userSpaceOnUse"
       cy="306.82999"
       cx="298.85999"
       gradientTransform="matrix(1.9901,2.1103e-4,-1.8758e-4,1.7691,-333.04,-271.62)"
       r="189.28999">
      <stop
         id="stop6210"
         stop-color="#fff"
         offset="0" />
      <stop
         id="stop6212"
         stop-color="#333"
         offset="1" />
    </radialGradient>
    <radialGradient
       id="radialGradient6239"
       gradientUnits="userSpaceOnUse"
       cy="406.01001"
       cx="310.42001"
       gradientTransform="matrix(1.9901,2.1103e-4,-1.8758e-4,1.7691,-333.04,-271.62)"
       r="189.28999">
      <stop
         id="stop6216"
         stop-color="#fff"
         offset="0" />
      <stop
         id="stop6218"
         offset="1" />
    </radialGradient>
    <radialGradient
       id="radialGradient6241"
       gradientUnits="userSpaceOnUse"
       cy="423.23001"
       cx="294.5"
       gradientTransform="matrix(1.9901,2.1103e-4,-1.8758e-4,1.7691,-333.04,-271.62)"
       r="189.28999">
      <stop
         id="stop6204"
         stop-color="#fff"
         offset="0" />
      <stop
         id="stop6206"
         stop-color="#888"
         offset="1" />
    </radialGradient>
    <linearGradient
       id="linearGradient5686-0-4"
       y2="49.164001"
       gradientUnits="userSpaceOnUse"
       x2="130.06"
       gradientTransform="translate(-36.374,-31.781)"
       y1="53.250999"
       x1="135.62">
      <stop
         id="stop21779-7-6-3"
         stop-color="#ccc"
         offset="0" />
      <stop
         id="stop21781-6-4-1"
         stop-color="#fff"
         offset="1" />
    </linearGradient>
    <linearGradient
       id="linearGradient6340"
       y2="48.755001"
       gradientUnits="userSpaceOnUse"
       y1="53.414001"
       gradientTransform="translate(-36.374,-31.781)"
       x2="105.94"
       x1="97.443001">
      <stop
         id="stop21769-9-7-9"
         stop-color="#808080"
         offset="0" />
      <stop
         id="stop21771-8-0-1"
         stop-color="#fff"
         offset="1" />
    </linearGradient>
    <filter
       id="filter6407"
       color-interpolation-filters="sRGB">
      <feGaussianBlur
         id="feGaussianBlur6409"
         stdDeviation="0.42992765" />
    </filter>
    <filter
       id="filter6427"
       color-interpolation-filters="sRGB">
      <feGaussianBlur
         id="feGaussianBlur6429"
         stdDeviation="0.42855016" />
    </filter>
    <linearGradient
       id="linearGradient6446"
       y2="25.726999"
       gradientUnits="userSpaceOnUse"
       y1="34.473999"
       gradientTransform="translate(-14.402,-20.909)"
       x2="95.801003"
       x1="95.963997">
      <stop
         id="stop21789-4-6-7"
         stop-color="#666"
         offset="0" />
      <stop
         id="stop21791-7-9-0"
         stop-color="#fff"
         offset="1" />
    </linearGradient>
    <linearGradient
       id="linearGradient6480"
       y2="28.219"
       gradientUnits="userSpaceOnUse"
       y1="50.645"
       gradientTransform="translate(-14.402,-20.467)"
       x2="96.179001"
       x1="95.947998">
      <stop
         id="stop21799-2-2"
         offset="0" />
      <stop
         id="stop21801-8-5"
         stop-color="#666"
         stop-opacity="0"
         offset="1" />
    </linearGradient>
    <filter
       id="filter4384"
       color-interpolation-filters="sRGB">
      <feGaussianBlur
         id="feGaussianBlur4386"
         stdDeviation="0.33681905" />
    </filter>
    <filter
       id="filter4410"
       color-interpolation-filters="sRGB">
      <feGaussianBlur
         id="feGaussianBlur4412"
         stdDeviation="0.28694332" />
    </filter>
    <filter
       id="filter4424"
       color-interpolation-filters="sRGB">
      <feGaussianBlur
         id="feGaussianBlur4426"
         stdDeviation="0.23886637" />
    </filter>
    <filter
       id="filter4434"
       height="1.0266"
       width="1.2786"
       y="-0.013306"
       x="-0.1393"
       color-interpolation-filters="sRGB">
      <feGaussianBlur
         id="feGaussianBlur4436"
         stdDeviation="0.2023608" />
    </filter>
    <filter
       id="filter4440"
       height="1.4358"
       width="1.0203"
       y="-0.21789999"
       x="-0.01017"
       color-interpolation-filters="sRGB">
      <feGaussianBlur
         id="feGaussianBlur4442"
         stdDeviation="0.36548822" />
    </filter>
    <filter
       id="filter4464"
       color-interpolation-filters="sRGB">
      <feGaussianBlur
         id="feGaussianBlur4466"
         stdDeviation="0.21604081" />
    </filter>
    <filter
       id="filter4482"
       color-interpolation-filters="sRGB">
      <feGaussianBlur
         id="feGaussianBlur4484"
         stdDeviation="0.42512894" />
    </filter>
    <filter
       id="filter4508"
       height="1.0451"
       width="1.2798001"
       y="-0.022568"
       x="-0.13992"
       color-interpolation-filters="sRGB">
      <feGaussianBlur
         id="feGaussianBlur4510"
         stdDeviation="0.21862348" />
    </filter>
    <filter
       id="filter4522"
       height="1.0213"
       width="1.2204"
       y="-0.010656"
       x="-0.1102"
       color-interpolation-filters="sRGB">
      <feGaussianBlur
         id="feGaussianBlur4524"
         stdDeviation="0.16460332" />
    </filter>
    <radialGradient
       inkscape:collect="always"
       xlink:href="#radialGradient6237"
       id="radialGradient1047"
       gradientUnits="userSpaceOnUse"
       gradientTransform="matrix(1.9901,2.1103e-4,-1.8758e-4,1.7691,-333.04,-271.62)"
       cx="298.85999"
       cy="306.82999"
       r="189.28999" />
    <radialGradient
       inkscape:collect="always"
       xlink:href="#radialGradient6239"
       id="radialGradient1049"
       gradientUnits="userSpaceOnUse"
       gradientTransform="matrix(1.9901,2.1103e-4,-1.8758e-4,1.7691,-333.04,-271.62)"
       cx="310.42001"
       cy="406.01001"
       r="189.28999" />
    <radialGradient
       inkscape:collect="always"
       xlink:href="#radialGradient6241"
       id="radialGradient1051"
       gradientUnits="userSpaceOnUse"
       gradientTransform="matrix(1.9901,2.1103e-4,-1.8758e-4,1.7691,-333.04,-271.62)"
       cx="294.5"
       cy="423.23001"
       r="189.28999" />
    <radialGradient
       inkscape:collect="always"
       xlink:href="#radialGradient6237"
       id="radialGradient1053"
       gradientUnits="userSpaceOnUse"
       gradientTransform="matrix(1.9901,2.1103e-4,-1.8758e-4,1.7691,-333.04,-271.62)"
       cx="298.85999"
       cy="306.82999"
       r="189.28999" />
    <radialGradient
       inkscape:collect="always"
       xlink:href="#radialGradient6239"
       id="radialGradient1055"
       gradientUnits="userSpaceOnUse"
       gradientTransform="matrix(1.9901,2.1103e-4,-1.8758e-4,1.7691,-333.04,-271.62)"
       cx="310.42001"
       cy="406.01001"
       r="189.28999" />
    <radialGradient
       inkscape:collect="always"
       xlink:href="#radialGradient6241"
       id="radialGradient1057"
       gradientUnits="userSpaceOnUse"
       gradientTransform="matrix(1.9901,2.1103e-4,-1.8758e-4,1.7691,-333.04,-271.62)"
       cx="294.5"
       cy="423.23001"
       r="189.28999" />
    <radialGradient
       inkscape:collect="always"
       xlink:href="#radialGradient6237"
       id="radialGradient1059"
       gradientUnits="userSpaceOnUse"
       gradientTransform="matrix(1.9901,2.1103e-4,-1.8758e-4,1.7691,-333.04,-271.62)"
       cx="298.85999"
       cy="306.82999"
       r="189.28999" />
    <radialGradient
       inkscape:collect="always"
       xlink:href="#radialGradient6239"
       id="radialGradient1061"
       gradientUnits="userSpaceOnUse"
       gradientTransform="matrix(1.9901,2.1103e-4,-1.8758e-4,1.7691,-333.04,-271.62)"
       cx="310.42001"
       cy="406.01001"
       r="189.28999" />
    <radialGradient
       inkscape:collect="always"
       xlink:href="#radialGradient6241"
       id="radialGradient1063"
       gradientUnits="userSpaceOnUse"
       gradientTransform="matrix(1.9901,2.1103e-4,-1.8758e-4,1.7691,-333.04,-271.62)"
       cx="294.5"
       cy="423.23001"
       r="189.28999" />
    <linearGradient
       inkscape:collect="always"
       xlink:href="#linearGradient4505-2"
       id="linearGradient1065"
       gradientUnits="userSpaceOnUse"
       x1="56.824001"
       y1="72.514"
       x2="47.431"
       y2="64.653999" />
    <linearGradient
       inkscape:collect="always"
       xlink:href="#linearGradient4505-2"
       id="linearGradient1067"
       gradientUnits="userSpaceOnUse"
       x1="56.824001"
       y1="72.514"
       x2="47.431"
       y2="64.653999" />
  </defs>
  <g
     id="layer4"
     transform="matrix(1.6893057,0,0,1.6893057,25.716385,92.169523)"
     style="display:inline">
    <path
       id="path4513"
       filter="url(#filter4519-7)"
       d="m 69.456,4.0024 c 11.262,1.5119 20.644,1.1439 29.25,0 l 5.25,7.25 c 22.644,8.5823 35.766,7.6457 60,21 -3.1189,10.486 -3.7062,21.984 -13,30 -7.75,-6.088 -15.5,-4.7999 -23.25,-6.75 0,0 1.0423,13.155 0,19.42 -1.4026,8.4308 1.4592,17.719 0,25.64 -1.3092,7.1069 1.0423,15.704 0,21.679 -1.232,7.0636 0,21.511 0,21.511 -29.128,5.3015 -58.037,6.6657 -86.5,0 0,0 -1.1111,-11.531 0,-17.133 1.6676,-8.4077 -1.2875,-18.158 0,-27.099 1.2507,-8.6856 2.3833,-17.296 0,-25.432 -1.8761,-6.4039 0,-18.586 0,-18.586 -6.7408,0.75138 -12.342,0.20025 -23.5,6 -8.3758,-6.9854 -10.991,-18.452 -13.5,-30 25.954,-11.671 39.005,-13.262 60.25,-19.75 z"
       fill-rule="evenodd"
       fill-opacity="0.29224" />
  </g>
  <g
     id="layer3"
     transform="matrix(1.6893057,0,0,1.6893057,25.716385,92.169523)"
     style="display:inline">
    <path
       id="path4942"
       d="m 65.715,0.56831 c 11.262,1.5119 20.644,1.1439 29.25,0 l 5.25,7.25 c 22.644,8.5823 35.766,7.6457 60,21 -3.1189,10.486 -3.7062,21.984 -13,30 -7.75,-6.088 -15.5,-4.7999 -23.25,-6.75 0,0 1.0423,13.155 0,19.42 -1.4026,8.4308 1.4592,17.719 0,25.64 -1.3092,7.1069 1.0423,15.704 0,21.679 -1.232,7.0636 0,21.511 0,21.511 -29.128,5.3015 -58.037,6.6657 -86.5,0 0,0 -1.1111,-11.531 0,-17.133 1.6676,-8.4077 -1.2875,-18.158 0,-27.099 1.2507,-8.6856 2.3833,-17.296 0,-25.432 -1.8761,-6.4039 0,-18.586 0,-18.586 -6.7408,0.75138 -12.342,0.20025 -23.5,6 -8.3759,-6.9854 -10.991,-18.452 -13.5,-30 25.949,-11.673 39,-13.264 60.245,-19.753 z"
       fill="url(#radialGradient5605)"
       fill-rule="evenodd"
       style="fill:url(#radialGradient5605)" />
  </g>
  <g
     id="layer6"
     style="display:inline"
     transform="matrix(1.6893057,0,0,1.6893057,22.166309,88.275166)">
    <path
       id="path3300"
       d="m 42.081,23.955 c 0,0 7.5566,-1.7712 11.335,-3.9765 3.1436,-1.8349 10.336,-3.5235 10.336,-3.5235"
       stroke-opacity="0.21918"
       stroke="#d40000"
       stroke-width="1px"
       fill="none" />
    <path
       id="path3318"
       d="m 123.48,23.868 c 0,0 -8.5137,-1.4268 -11.933,-4.2461 -3.2498,-2.6797 -11.294,-3.6669 -11.294,-3.6669"
       stroke-opacity="0.21961"
       stroke="#d40000"
       stroke-width="1px"
       fill="none" />
    <path
       id="path3320"
       d="m 157.93,28.81 c -1.5068,2.8206 -3.892,7.6536 -3.6133,11.389 0.39558,5.3017 -1.0741,8.4646 -4.3221,10.808 -4.1436,2.9902 -4.3721,5.2216 -4.6346,7.2352"
       stroke-opacity="0.21961"
       stroke="#d40000"
       stroke-width="1px"
       fill="none" />
    <path
       id="path3302"
       d="m 6.3697,28.834 c 0.63299,1.2466 0.82265,3.321 0.84895,4.7315 0.050021,2.6831 1.0382,5.5318 2.4604,7.6655 1.3374,2.0064 2.5462,4.1906 3.1103,6.5311 0.54053,2.2426 1.3264,3.964 3.2806,5.4958 2.0555,1.6112 2.1401,3.544 3.2683,5.2972"
       stroke-opacity="0.21961"
       stroke="#d40000"
       stroke-width="1px"
       fill="none" />
    <path
       id="path3304"
       d="m 39.501,138.96 c 5.4126,1.9642 11.259,0.48347 16.238,2.0288 4.4542,1.3825 9.6245,2.1971 13.766,1.9541 3.5578,-0.20873 7.159,-0.11034 10.735,-0.30484 5.4876,-0.29851 10.988,0.74416 16.482,-0.16025 4.0113,-0.66032 8.1315,-1.3368 12.266,-1.2372 5.7041,0.13736 11.4,-0.82594 16.764,-2.2806"
       stroke-opacity="0.21961"
       stroke="#ff99aa"
       stroke-width="1px"
       fill="none" />
    <path
       id="path3316"
       d="m 125.28,17.232 c -2.061,11.043 -5.9702,25.399 0.52265,37.072"
       stroke-opacity="0.21961"
       stroke="#d40000"
       stroke-width="1px"
       fill="none" />
    <path
       id="path3298"
       d="m 40.12,16.994 c 2.061,11.043 5.9134,25.617 -0.5795,37.291"
       stroke-opacity="0.21961"
       stroke="#d40000"
       stroke-width="1px"
       fill="none" />
    <path
       id="path3322"
       d="m 70.501,11.455 c 7.4037,-2.3148 14.936,-1.9888 23,0"
       stroke-opacity="0.21961"
       stroke="#e35c72"
       stroke-width="1px"
       fill="none" />
    <path
       id="rect3324"
       d="m 80.251,22.205 h 3.75 v 23.25 h -3.75 z"
       stroke-opacity="0.21961"
       stroke="#ffb899"
       stroke-linecap="round"
       fill="url(#linearGradient5883)"
       style="fill:url(#linearGradient5883)" />
    <path
       id="path4388"
       d="m 123.2,24.375 c 0,0 -8.787,-1.5138 -12.206,-4.3331 C 107.7442,17.3622 99.7,16.375 99.7,16.375"
       stroke-opacity="0.031373"
       filter="url(#filter4410)"
       stroke="#000000"
       stroke-width="1px"
       fill="none" />
    <path
       id="path4414"
       d="m 41.971,24.615 c 0,0 7.8861,-1.7712 11.664,-3.9765 3.1436,-1.8349 10.336,-3.5235 10.336,-3.5235"
       stroke-opacity="0.031373"
       filter="url(#filter4424)"
       stroke="#000000"
       stroke-width="1px"
       fill="none" />
    <path
       id="path4428"
       d="m 41.131,17.235 c 2.061,11.043 6.2429,24.826 -0.25,36.5"
       stroke-opacity="0.03653"
       filter="url(#filter4434)"
       stroke="#000000"
       stroke-width="1px"
       fill="none" />
    <path
       id="path4438"
       d="m 39.285,139.61 c 5.4126,1.9642 11.259,0.48347 16.238,2.0288 4.4542,1.3825 9.6245,2.1971 13.766,1.9541 3.5578,-0.20873 7.159,-0.11034 10.735,-0.30484 5.4876,-0.29851 10.988,0.74416 16.482,-0.16025 4.0113,-0.66032 8.1315,-1.3368 12.266,-1.2372 5.7041,0.13736 11.4,-0.82594 16.764,-2.2806"
       stroke-opacity="0.063927"
       filter="url(#filter4440)"
       stroke="#000000"
       stroke-width="1px"
       fill="none" />
    <path
       id="path4458"
       d="m 6.8749,28.834 c 0.63299,1.2466 0.82265,3.321 0.84895,4.7315 0.050021,2.6831 1.0382,5.5318 2.4604,7.6655 1.3374,2.0064 2.5462,4.1906 3.1103,6.5311 0.54053,2.2426 1.3264,3.964 3.2806,5.4958 2.0555,1.6112 2.1401,3.544 3.2683,5.2972"
       stroke-opacity="0.054795"
       filter="url(#filter4464)"
       stroke="#000000"
       stroke-width="1px"
       fill="none" />
    <path
       id="path4468"
       d="m 158.41,29.455 c -1.5068,2.8206 -3.892,7.6536 -3.6133,11.389 0.39558,5.3017 -1.0741,8.4646 -4.3221,10.808 -4.1436,2.9902 -4.3721,5.2216 -4.6346,7.2352"
       stroke-opacity="0.054795"
       filter="url(#filter4482)"
       stroke="#000000"
       stroke-width="1px"
       fill="none" />
    <path
       id="path4486"
       d="m 80.823,22.396 h 3.75 v 23.25 h -3.75 z"
       stroke-opacity="0.050228"
       filter="url(#filter4508)"
       stroke="#000000"
       stroke-linecap="round"
       fill="none" />
    <path
       id="path4512"
       d="m 126.02,17.48 c -2.061,11.043 -5.9702,25.399 0.52265,37.072"
       stroke-opacity="0.041096"
       filter="url(#filter4522)"
       stroke="#000000"
       stroke-width="1px"
       fill="none" />
  </g>
  <g
     id="layer1"
     stroke-width="1px"
     fill="none"
     transform="matrix(1.6893057,0,0,1.6893057,22.166309,88.275166)">
    <path
       id="path3580"
       stroke="#d40000"
       stroke-opacity="0.68037"
       d="m 92.71,39.542 0.34683,5.244 c 3.5038,-0.56501 6.4043,-0.52085 10.248,0.74082 4.5018,1.4779 6.6278,-0.1283 10.423,-0.93662 1.8419,-0.39228 5.0362,-0.52231 6.9213,0.25213 0.14875,-2.0642 0.88366,-3.8984 -0.44732,-5.5692 0,0 -2.5393,-0.72412 -5.8767,0.21457 -5.6639,1.593 -7.8271,1.8719 -13.018,0.06057 -2.5029,-0.87334 -4.7177,-1.2015 -8.5967,-0.0063 z" />
    <path
       id="path3584"
       stroke="#000000"
       stroke-opacity="0.050228"
       d="m 92.71,39.183 0.34683,5.244 c 3.5038,-0.56501 6.4043,-0.52085 10.248,0.74082 4.5018,1.4779 6.6278,-0.1283 10.423,-0.93662 1.8419,-0.39228 5.0362,-0.52231 6.9213,0.25213 0.14875,-2.0642 0.88366,-3.8984 -0.44732,-5.5692 0,0 -2.5393,-0.72412 -5.8767,0.21457 -5.6639,1.593 -7.8271,1.8719 -13.018,0.06057 -2.5029,-0.87334 -4.7177,-1.2015 -8.5967,-0.0063 z" />
    <path
       id="path3582"
       stroke="#d40000"
       stroke-opacity="0.77626"
       d="m 93.068,45.162 c 1.0056,4.3596 0.44507,8.7015 0.16775,13.11 1.8993,1.7511 3.1905,3.5782 3.9383,5.4733 2.2407,-0.01339 5.2651,0.52852 8.1953,-0.04031 1.8553,-0.36016 4.7498,-0.17461 6.0792,0.03471 4.2368,0.6671 6.3157,-0.08279 6.3157,-0.08279 0.96847,-1.7685 2.3182,-3.0604 3.861,-4.1109 0,0 -1.5479,-9.5737 -0.93581,-14.512" />
    <path
       id="path4370"
       filter="url(#filter4384)"
       stroke="#000000"
       stroke-opacity="0.059361"
       d="m 93.068,45.641 c 1.0056,4.3596 0.44507,8.7015 0.16775,13.11 1.8993,1.7511 3.1905,3.5782 3.9383,5.4733 2.2407,-0.01339 5.2651,0.52852 8.1953,-0.04031 1.8553,-0.36016 4.7498,-0.17461 6.0792,0.03471 4.2368,0.6671 6.3157,-0.08279 6.3157,-0.08279 0.96847,-1.7685 2.3182,-3.0604 3.861,-4.1109 0,0 -1.5479,-9.5737 -0.93581,-14.512" />
  </g>
  <g
     id="g6369"
     transform="matrix(1.6893057,0,0,1.6893057,22.166309,88.275166)">
    <path
       id="path6371"
       opacity="0.206"
       filter="url(#filter6427)"
       d="m 80.306,22.789 -7.0939,8.8901 c -7.733,-5.938 -8.595,-13.761 -10.674,-20.326" />
    <path
       id="path6373"
       opacity="0.206"
       filter="url(#filter6407)"
       d="m 84.16,22.24 7.2152,8.6108 c 7.7328,-5.9371 8.975,-13.243 10.838,-20.562" />
    <path
       id="path21795"
       d="M 79.157,21.257 C 77.0033,19.5805 74.8684,17.2568 73.2198,14.7947 72.665,13.96611 71.559,12.1229 71.559,12.027 c 0,-0.09392 2.378,-0.68042 3.6784,-0.9072 4.6477,-0.81058 10.116,-0.6669 15.32,0.40251 2.0218,0.4155 2.4993,0.52664 2.4993,0.58178 0,0.02965 -0.24247,0.45406 -0.53881,0.94314 -2.0703,3.4168 -4.6398,6.2326 -7.6954,8.4331 l -0.59137,0.42588 h -4.2404 l -0.83396,-0.64917 z"
       fill="url(#linearGradient6480)"
       style="fill:url(#linearGradient6480)" />
  </g>
  <g
     id="layer8"
     transform="matrix(1.6893057,0,0,1.6893057,22.166309,88.275166)">
    <path
       id="path3296"
       d="m 67.538,3.7625 c 2.7397,8.0624 6.1678,14.452 12.235,18.521 l -6.7711,7.9217 c -7.7328,-5.9371 -8.057,-12.685 -10.136,-19.25"
       fill="url(#linearGradient6340)"
       style="fill:url(#linearGradient6340)" />
    <path
       id="path3314"
       d="m 97.08,3.6059 c -2.7397,8.0624 -6.5112,14.28 -12.578,18.349 l 7,7.75 c 7.7328,-5.9371 8.1143,-13.028 10.193,-19.593"
       fill="url(#linearGradient5686-0-4)"
       style="fill:url(#linearGradient5686-0-4)" />
    <path
       id="path21785"
       d="M 92.24,10.381 C 86.5798,9.0589 80.524,8.768 75.524,9.57797 c -0.99102,0.16051 -3.15,0.63446 -3.8915,0.85428 -0.29707,0.08806 -0.56352,0.16012 -0.59212,0.16012 -0.2082,0 -2.8404,-6.2445 -2.8296,-6.7128 0.001,-0.06195 0.0544,-0.18103 0.11772,-0.26462 0.11193,-0.14776 0.16701,-0.14606 1.9796,0.06105 4.7732,0.54538 8.9392,0.74965 13.799,0.67658 4.298,-0.06463 7.4488,-0.2667 11.186,-0.71737 0.75732,-0.09133 1.3902,-0.15277 1.4065,-0.13654 0.0497,0.04968 -0.74887,2.1526 -1.359,3.5788 -0.7843,1.8333 -1.6489,3.5517 -1.795,3.5675 -0.066,0.0071 -0.65326,-0.11168 -1.3052,-0.26394 z"
       fill="url(#linearGradient6446)"
       style="fill:url(#linearGradient6446)" />
  </g>
  <g
     id="layer7"
     transform="matrix(1.6893057,0,0,1.6893057,22.166309,88.275166)">
    <g
       id="g6220"
       transform="matrix(0.1389,0,0,0.1389,65.716,29.466)">
      <path
         id="path6606"
         d="m 568.57,398.79 c 0,104.54 -84.746,189.29 -189.29,189.29 -104.544,0 -189.29,-84.746 -189.29,-189.29 0,-104.544 84.746,-189.29 189.29,-189.29 104.544,0 189.29,84.746 189.29,189.29 z"
         fill="url(#radialGradient6237)"
         transform="matrix(0.047213,0,0,0.047213,101.51,-40.276)"
         style="fill:url(#radialGradient1047)" />
      <path
         id="path7128"
         d="m 568.57,398.79 c 0,104.54 -84.746,189.29 -189.29,189.29 -104.544,0 -189.29,-84.746 -189.29,-189.29 0,-104.544 84.746,-189.29 189.29,-189.29 104.544,0 189.29,84.746 189.29,189.29 z"
         fill="url(#radialGradient6239)"
         transform="matrix(-0.043293,0,0,0.043293,135.9,-38.646)"
         style="fill:url(#radialGradient1049)" />
      <path
         id="path7132"
         filter="url(#filter7160)"
         d="m 568.57,398.79 c 0,104.54 -84.746,189.29 -189.29,189.29 -104.544,0 -189.29,-84.746 -189.29,-189.29 0,-104.544 84.746,-189.29 189.29,-189.29 104.544,0 189.29,84.746 189.29,189.29 z"
         fill="url(#radialGradient6241)"
         transform="matrix(0.039136,0,0,0.039136,105,-37.155)"
         style="fill:url(#radialGradient1051)" />
      <g
         id="g7185"
         transform="matrix(0.047213,0,0,0.047213,101.79,-40.276)">
        <path
           id="path7167"
           d="m 344.46,348.79 c 0,9.7631 -7.9146,17.678 -17.678,17.678 -9.7631,0 -17.678,-7.9146 -17.678,-17.678 0,-9.7631 7.9146,-17.678 17.678,-17.678 9.7631,0 17.678,7.9146 17.678,17.678 z"
           transform="translate(10.102,15.152)"
           fill-opacity="0.94118" />
        <path
           id="path7175"
           d="m 344.46,348.79 c 0,9.7631 -7.9146,17.678 -17.678,17.678 -9.7631,0 -17.678,-7.9146 -17.678,-17.678 0,-9.7631 7.9146,-17.678 17.678,-17.678 9.7631,0 17.678,7.9146 17.678,17.678 z"
           transform="matrix(0.9,0,0,0.9,42.78,50.284)" />
      </g>
      <g
         id="g7191"
         transform="matrix(0.047213,0,0,0.047213,105.18,-40.276)">
        <path
           id="path7193"
           d="m 344.46,348.79 c 0,9.7631 -7.9146,17.678 -17.678,17.678 -9.7631,0 -17.678,-7.9146 -17.678,-17.678 0,-9.7631 7.9146,-17.678 17.678,-17.678 9.7631,0 17.678,7.9146 17.678,17.678 z"
           transform="translate(10.102,15.152)"
           fill-opacity="0.94118" />
        <path
           id="path7195"
           d="m 344.46,348.79 c 0,9.7631 -7.9146,17.678 -17.678,17.678 -9.7631,0 -17.678,-7.9146 -17.678,-17.678 0,-9.7631 7.9146,-17.678 17.678,-17.678 9.7631,0 17.678,7.9146 17.678,17.678 z"
           transform="matrix(0.9,0,0,0.9,42.78,50.284)" />
      </g>
      <g
         id="g7199"
         transform="matrix(0.047213,0,0,0.047213,105.18,-36.604)">
        <path
           id="path7201"
           d="m 344.46,348.79 c 0,9.7631 -7.9146,17.678 -17.678,17.678 -9.7631,0 -17.678,-7.9146 -17.678,-17.678 0,-9.7631 7.9146,-17.678 17.678,-17.678 9.7631,0 17.678,7.9146 17.678,17.678 z"
           transform="translate(10.102,15.152)"
           fill-opacity="0.94118" />
        <path
           id="path7203"
           d="m 344.46,348.79 c 0,9.7631 -7.9146,17.678 -17.678,17.678 -9.7631,0 -17.678,-7.9146 -17.678,-17.678 0,-9.7631 7.9146,-17.678 17.678,-17.678 9.7631,0 17.678,7.9146 17.678,17.678 z"
           transform="matrix(0.9,0,0,0.9,42.78,50.284)" />
      </g>
      <g
         id="g7207"
         transform="matrix(0.047213,0,0,0.047213,101.82,-36.604)">
        <path
           id="path7209"
           d="m 344.46,348.79 c 0,9.7631 -7.9146,17.678 -17.678,17.678 -9.7631,0 -17.678,-7.9146 -17.678,-17.678 0,-9.7631 7.9146,-17.678 17.678,-17.678 9.7631,0 17.678,7.9146 17.678,17.678 z"
           transform="translate(10.102,15.152)"
           fill-opacity="0.94118" />
        <path
           id="path7211"
           d="m 344.46,348.79 c 0,9.7631 -7.9146,17.678 -17.678,17.678 -9.7631,0 -17.678,-7.9146 -17.678,-17.678 0,-9.7631 7.9146,-17.678 17.678,-17.678 9.7631,0 17.678,7.9146 17.678,17.678 z"
           transform="matrix(0.9,0,0,0.9,42.78,50.284)" />
      </g>
    </g>
    <g
       id="g6243"
       transform="matrix(0.1389,0,0,0.1389,65.641,35.474)">
      <path
         id="path6245"
         d="m 568.57,398.79 c 0,104.54 -84.746,189.29 -189.29,189.29 -104.544,0 -189.29,-84.746 -189.29,-189.29 0,-104.544 84.746,-189.29 189.29,-189.29 104.544,0 189.29,84.746 189.29,189.29 z"
         fill="url(#radialGradient6237)"
         transform="matrix(0.047213,0,0,0.047213,101.51,-40.276)"
         style="fill:url(#radialGradient1053)" />
      <path
         id="path6247"
         d="m 568.57,398.79 c 0,104.54 -84.746,189.29 -189.29,189.29 -104.544,0 -189.29,-84.746 -189.29,-189.29 0,-104.544 84.746,-189.29 189.29,-189.29 104.544,0 189.29,84.746 189.29,189.29 z"
         fill="url(#radialGradient6239)"
         transform="matrix(-0.043293,0,0,0.043293,135.9,-38.646)"
         style="fill:url(#radialGradient1055)" />
      <path
         id="path6249"
         filter="url(#filter7160)"
         d="m 568.57,398.79 c 0,104.54 -84.746,189.29 -189.29,189.29 -104.544,0 -189.29,-84.746 -189.29,-189.29 0,-104.544 84.746,-189.29 189.29,-189.29 104.544,0 189.29,84.746 189.29,189.29 z"
         fill="url(#radialGradient6241)"
         transform="matrix(0.039136,0,0,0.039136,105,-37.155)"
         style="fill:url(#radialGradient1057)" />
      <g
         id="g6251"
         transform="matrix(0.047213,0,0,0.047213,101.79,-40.276)">
        <path
           id="path6253"
           d="m 344.46,348.79 c 0,9.7631 -7.9146,17.678 -17.678,17.678 -9.7631,0 -17.678,-7.9146 -17.678,-17.678 0,-9.7631 7.9146,-17.678 17.678,-17.678 9.7631,0 17.678,7.9146 17.678,17.678 z"
           transform="translate(10.102,15.152)"
           fill-opacity="0.94118" />
        <path
           id="path6255"
           d="m 344.46,348.79 c 0,9.7631 -7.9146,17.678 -17.678,17.678 -9.7631,0 -17.678,-7.9146 -17.678,-17.678 0,-9.7631 7.9146,-17.678 17.678,-17.678 9.7631,0 17.678,7.9146 17.678,17.678 z"
           transform="matrix(0.9,0,0,0.9,42.78,50.284)" />
      </g>
      <g
         id="g6257"
         transform="matrix(0.047213,0,0,0.047213,105.18,-40.276)">
        <path
           id="path6259"
           d="m 344.46,348.79 c 0,9.7631 -7.9146,17.678 -17.678,17.678 -9.7631,0 -17.678,-7.9146 -17.678,-17.678 0,-9.7631 7.9146,-17.678 17.678,-17.678 9.7631,0 17.678,7.9146 17.678,17.678 z"
           transform="translate(10.102,15.152)"
           fill-opacity="0.94118" />
        <path
           id="path6261"
           d="m 344.46,348.79 c 0,9.7631 -7.9146,17.678 -17.678,17.678 -9.7631,0 -17.678,-7.9146 -17.678,-17.678 0,-9.7631 7.9146,-17.678 17.678,-17.678 9.7631,0 17.678,7.9146 17.678,17.678 z"
           transform="matrix(0.9,0,0,0.9,42.78,50.284)" />
      </g>
      <g
         id="g6263"
         transform="matrix(0.047213,0,0,0.047213,105.18,-36.604)">
        <path
           id="path6265"
           d="m 344.46,348.79 c 0,9.7631 -7.9146,17.678 -17.678,17.678 -9.7631,0 -17.678,-7.9146 -17.678,-17.678 0,-9.7631 7.9146,-17.678 17.678,-17.678 9.7631,0 17.678,7.9146 17.678,17.678 z"
           transform="translate(10.102,15.152)"
           fill-opacity="0.94118" />
        <path
           id="path6267"
           d="m 344.46,348.79 c 0,9.7631 -7.9146,17.678 -17.678,17.678 -9.7631,0 -17.678,-7.9146 -17.678,-17.678 0,-9.7631 7.9146,-17.678 17.678,-17.678 9.7631,0 17.678,7.9146 17.678,17.678 z"
           transform="matrix(0.9,0,0,0.9,42.78,50.284)" />
      </g>
      <g
         id="g6269"
         transform="matrix(0.047213,0,0,0.047213,101.82,-36.604)">
        <path
           id="path6271"
           d="m 344.46,348.79 c 0,9.7631 -7.9146,17.678 -17.678,17.678 -9.7631,0 -17.678,-7.9146 -17.678,-17.678 0,-9.7631 7.9146,-17.678 17.678,-17.678 9.7631,0 17.678,7.9146 17.678,17.678 z"
           transform="translate(10.102,15.152)"
           fill-opacity="0.94118" />
        <path
           id="path6273"
           d="m 344.46,348.79 c 0,9.7631 -7.9146,17.678 -17.678,17.678 -9.7631,0 -17.678,-7.9146 -17.678,-17.678 0,-9.7631 7.9146,-17.678 17.678,-17.678 9.7631,0 17.678,7.9146 17.678,17.678 z"
           transform="matrix(0.9,0,0,0.9,42.78,50.284)" />
      </g>
    </g>
    <g
       id="g6281"
       transform="matrix(0.1389,0,0,0.1389,65.62,41.386)">
      <path
         id="path6283"
         d="m 568.57,398.79 c 0,104.54 -84.746,189.29 -189.29,189.29 -104.544,0 -189.29,-84.746 -189.29,-189.29 0,-104.544 84.746,-189.29 189.29,-189.29 104.544,0 189.29,84.746 189.29,189.29 z"
         fill="url(#radialGradient6237)"
         transform="matrix(0.047213,0,0,0.047213,101.51,-40.276)"
         style="fill:url(#radialGradient1059)" />
      <path
         id="path6285"
         d="m 568.57,398.79 c 0,104.54 -84.746,189.29 -189.29,189.29 -104.544,0 -189.29,-84.746 -189.29,-189.29 0,-104.544 84.746,-189.29 189.29,-189.29 104.544,0 189.29,84.746 189.29,189.29 z"
         fill="url(#radialGradient6239)"
         transform="matrix(-0.043293,0,0,0.043293,135.9,-38.646)"
         style="fill:url(#radialGradient1061)" />
      <path
         id="path6287"
         filter="url(#filter7160)"
         d="m 568.57,398.79 c 0,104.54 -84.746,189.29 -189.29,189.29 -104.544,0 -189.29,-84.746 -189.29,-189.29 0,-104.544 84.746,-189.29 189.29,-189.29 104.544,0 189.29,84.746 189.29,189.29 z"
         fill="url(#radialGradient6241)"
         transform="matrix(0.039136,0,0,0.039136,105,-37.155)"
         style="fill:url(#radialGradient1063)" />
      <g
         id="g6289"
         transform="matrix(0.047213,0,0,0.047213,101.79,-40.276)">
        <path
           id="path6291"
           d="m 344.46,348.79 c 0,9.7631 -7.9146,17.678 -17.678,17.678 -9.7631,0 -17.678,-7.9146 -17.678,-17.678 0,-9.7631 7.9146,-17.678 17.678,-17.678 9.7631,0 17.678,7.9146 17.678,17.678 z"
           transform="translate(10.102,15.152)"
           fill-opacity="0.94118" />
        <path
           id="path6293"
           d="m 344.46,348.79 c 0,9.7631 -7.9146,17.678 -17.678,17.678 -9.7631,0 -17.678,-7.9146 -17.678,-17.678 0,-9.7631 7.9146,-17.678 17.678,-17.678 9.7631,0 17.678,7.9146 17.678,17.678 z"
           transform="matrix(0.9,0,0,0.9,42.78,50.284)" />
      </g>
      <g
         id="g6295"
         transform="matrix(0.047213,0,0,0.047213,105.18,-40.276)">
        <path
           id="path6297"
           d="m 344.46,348.79 c 0,9.7631 -7.9146,17.678 -17.678,17.678 -9.7631,0 -17.678,-7.9146 -17.678,-17.678 0,-9.7631 7.9146,-17.678 17.678,-17.678 9.7631,0 17.678,7.9146 17.678,17.678 z"
           transform="translate(10.102,15.152)"
           fill-opacity="0.94118" />
        <path
           id="path6299"
           d="m 344.46,348.79 c 0,9.7631 -7.9146,17.678 -17.678,17.678 -9.7631,0 -17.678,-7.9146 -17.678,-17.678 0,-9.7631 7.9146,-17.678 17.678,-17.678 9.7631,0 17.678,7.9146 17.678,17.678 z"
           transform="matrix(0.9,0,0,0.9,42.78,50.284)" />
      </g>
      <g
         id="g6301"
         transform="matrix(0.047213,0,0,0.047213,105.18,-36.604)">
        <path
           id="path6303"
           d="m 344.46,348.79 c 0,9.7631 -7.9146,17.678 -17.678,17.678 -9.7631,0 -17.678,-7.9146 -17.678,-17.678 0,-9.7631 7.9146,-17.678 17.678,-17.678 9.7631,0 17.678,7.9146 17.678,17.678 z"
           transform="translate(10.102,15.152)"
           fill-opacity="0.94118" />
        <path
           id="path6305"
           d="m 344.46,348.79 c 0,9.7631 -7.9146,17.678 -17.678,17.678 -9.7631,0 -17.678,-7.9146 -17.678,-17.678 0,-9.7631 7.9146,-17.678 17.678,-17.678 9.7631,0 17.678,7.9146 17.678,17.678 z"
           transform="matrix(0.9,0,0,0.9,42.78,50.284)" />
      </g>
      <g
         id="g6307"
         transform="matrix(0.047213,0,0,0.047213,101.82,-36.604)">
        <path
           id="path6309"
           d="m 344.46,348.79 c 0,9.7631 -7.9146,17.678 -17.678,17.678 -9.7631,0 -17.678,-7.9146 -17.678,-17.678 0,-9.7631 7.9146,-17.678 17.678,-17.678 9.7631,0 17.678,7.9146 17.678,17.678 z"
           transform="translate(10.102,15.152)"
           fill-opacity="0.94118" />
        <path
           id="path6311"
           d="m 344.46,348.79 c 0,9.7631 -7.9146,17.678 -17.678,17.678 -9.7631,0 -17.678,-7.9146 -17.678,-17.678 0,-9.7631 7.9146,-17.678 17.678,-17.678 9.7631,0 17.678,7.9146 17.678,17.678 z"
           transform="matrix(0.9,0,0,0.9,42.78,50.284)" />
      </g>
    </g>
  </g>
  <g
     id="layer2"
     transform="matrix(1.6893057,0,0,1.6893057,25.716385,92.169523)">
    <path
       id="path21805"
       opacity="0.64198"
       d="m 89.954,55.265 c 0,0 3.5877,12.867 3.2368,19.421 -0.18397,3.4356 -2.0401,8.3748 -2.4546,11.79 -0.91034,7.501 0.37381,20.809 0.37381,20.809 0,0 -3.75,-13.652 -3.2368,-20.577 0.3045,-4.108 1.6555,-9.5381 2.1114,-13.632 0.72754,-6.5324 -0.03065,-17.811 -0.03065,-17.811 z"
       fill-opacity="0.20548"
       transform="matrix(0.98537,0.17045,-0.17045,0.98537,-34.669,-46.712)"
       filter="url(#filter4619-4)" />
    <path
       id="path21890"
       opacity="0.35391"
       filter="url(#filter22155-9)"
       d="m 61.826,49.19 c 4.4072,11.45 9.7518,22.483 7.1001,33.329 -3.078,12.59 0.29211,25.59 0.40428,38.379 -2.464,-12.443 -8.4376,-24.85 -6.6932,-37.545 C 63.94558,73.8312 60.72098,61 61.82601,49.189 Z"
       fill-opacity="0.36073" />
    <path
       id="path21896"
       opacity="0.49794"
       d="m 103.67,74.764 c 4.5819,11.904 7.7278,24.366 4.2284,32.262 -5.0677,11.434 3.1675,27.083 3.2759,39.447 -2.8042,-14.161 -18.533,-30.125 -12.346,-43.41 3.5226,-7.5636 3.9118,-18.364 4.8412,-28.298 z"
       fill-opacity="0.13699"
       transform="matrix(0.99361,0.11286,-0.11286,0.99361,6.4156,-53.502)"
       filter="url(#filter22189-8)" />
    <path
       id="path21898"
       opacity="0.41152"
       filter="url(#filter21900-3)"
       d="m 38.06,71.32 c 3.2163,1.1168 12.099,-46.339 11.673,-46.694 1.6246,27.975 5.8486,61.988 -12.924,70.875 0.47622,-7.9106 3.3619,-9.741 1.2507,-24.181 z"
       fill-opacity="0.24201" />
    <path
       id="path21904"
       opacity="0.37037"
       d="m 65.004,71.382 c -1.154,-4.3201 -3.3525,13.989 -9.5975,24.005 0,0 1.5591,-22.101 3.6431,-25.264 6.69,-10.153 13.248,-20.42 13.041,-20.593 0.61,10.508 -4.082,20.834 -2.677,31.821 2.164,16.921 -1.965,17.836 -13.687,23.389 0.476,-7.915 10.241,0.19 9.277,-33.358 z"
       fill-opacity="0.22831"
       transform="matrix(-1,0,0,1,177.96,-10.233)"
       filter="url(#filter4567-9)" />
    <path
       id="path21906"
       opacity="0.42798"
       d="m 39.398,76.595 c 7.6131,-5.8262 14.551,-12.816 18.344,-25.223 -0.21868,8.0673 2.097,17.517 -3.7522,22.513 z"
       transform="matrix(1.0874,0,0,1.0874,-21.189,-28.375)"
       filter="url(#filter4173-0)"
       fill="url(#linearGradient4505-2)"
       style="fill:url(#linearGradient1065)" />
    <path
       id="path21956"
       opacity="0.39918"
       d="m 160.09,72.842 1.2507,-12.09 8.9636,9.172 -16.051,-27.099 c 2.9359,15.179 -0.9187,15.756 5.8367,30.018 z"
       fill-opacity="0.12329"
       transform="rotate(-28.675621,116.42961,96.642892)"
       filter="url(#filter22006-9)" />
    <path
       id="path21962"
       opacity="0.30453"
       d="m 81.506,138.92 c 5.0029,6.4621 5.5863,13.12 11.048,8.7551 5.9636,-4.7656 0.56866,-18.339 0.83382,-27.516 1.518,11.951 10.414,22.338 2.7539,31.565 -6.6496,8.0093 -10.598,-5.0836 -14.636,-12.804 z"
       fill-opacity="0.22831"
       transform="matrix(0.55077,0.44552,-0.44552,0.55077,120.89,-14.178)"
       filter="url(#filter22014-2)" />
    <path
       id="path21968"
       opacity="0.37449"
       d="m 87.174,141.15 c 0,0 -3.6427,5.4542 -4.586,8.5466 -1.2225,4.0076 -0.14459,8.4661 -1.2507,12.507 -1.1326,4.1379 -5.4198,11.673 -5.4198,11.673 l 12.09,-1.4592 c -0.10539,-4.3343 -1.6273,-8.7097 -1.5497,-12.922 0.10876,-5.9009 3.6277,-11.891 0.71588,-18.346 z"
       fill-opacity="0.17808"
       transform="matrix(-1,0,0,1,125.77,-33.322)"
       filter="url(#filter4535-8)" />
    <path
       id="path21974"
       opacity="0.37449"
       d="M 69.395,92.17 68.42,74.807 82.968,90.977 63.649,53.71 c -1.4166,12.484 -1.0102,24.199 5.7452,38.46 z"
       fill-opacity="0.27397"
       transform="matrix(0.30443,0.95254,-0.95254,0.30443,70.357,-59.506)"
       filter="url(#filter22228-0)" />
    <path
       id="path21988"
       opacity="0.5014"
       d="m 77.337,151.85 c 0,0 5.1665,10.049 10.654,9.6218 7.9567,-0.61945 9.4354,-21.73 8.337,-29.635 -0.79682,-5.7344 10.462,-18.662 10.462,-18.662 0,0 -6.7298,17.297 -5.9551,23.457 0.94151,7.4855 -4.9079,31.365 -12.45,31.166 -6.099,-0.17 -11.048,-15.95 -11.048,-15.95 z"
       fill-opacity="0.22831"
       transform="matrix(-0.94217,0,0,0.84552,150.32,-15.416)"
       filter="url(#filter4527-0)" />
    <path
       id="path22018"
       opacity="0.41152"
       d="m 93.596,86.137 c 0,0 7.0244,27.949 7.8912,34.802 0.6527,5.1603 0.4231,13.707 -0.7251,16.52 -2.8181,6.9033 -0.86646,26.7 -0.86646,26.7 0,0 -4.2493,-18.899 -2.7883,-29.068 0.56924,-3.9621 2.3503,-10.338 1.7449,-14.741 -0.9013,-6.5552 -5.2563,-34.213 -5.2563,-34.213 z"
       fill-opacity="0.21005"
       transform="matrix(-1.5411,0.24238,0.38502,0.97018,182.11,-80.79)"
       filter="url(#filter4195-2)" />
    <path
       id="path22020"
       opacity="0.56379"
       d="m 145.54,123.13 c -7.8161,19.045 -15.253,51.149 -32.932,63.334 l 6.9948,4.7082 c 19.75,-20.503 20.734,-48.941 25.938,-68.042 z"
       fill-opacity="0.14155"
       transform="matrix(0.81517,-0.57922,0.57922,0.81517,-115.48,57.232)"
       filter="url(#filter22163-6)" />
    <path
       id="path22034"
       opacity="0.40741"
       filter="url(#filter4203-8)"
       d="m 53.802,76.532 c 0.206,-14.412 3.49,-40.959 12.647,-52.74 l 4.1691,2.9184 c -7.6229,11.096 -13.773,36.69 -16.816,49.821 z"
       fill-opacity="0.15982" />
    <path
       id="path4177"
       opacity="0.27572"
       d="m 39.398,76.595 c 7.6131,-5.8262 14.551,-12.816 18.344,-25.223 -0.21868,8.0673 2.097,17.517 -3.7522,22.513 z"
       transform="matrix(-1.0874,0,0,1.0874,183.63,-28.154)"
       filter="url(#filter4173-0)"
       fill="url(#linearGradient4505-2)"
       style="fill:url(#linearGradient1067)" />
    <path
       id="path4539"
       opacity="0.34568"
       d="m 93.596,86.137 c 0,0 9.6257,28.884 10.492,35.737 0.6527,5.1603 -0.32089,12.309 -1.4691,15.122 -2.8181,6.9033 -2.7238,27.164 -2.7238,27.164 0,0 -4.2493,-18.899 -2.7883,-29.068 0.56924,-3.9621 2.3503,-10.338 1.7449,-14.741 -0.9013,-6.5552 -5.2563,-34.213 -5.2563,-34.213 z"
       fill-opacity="0.22374"
       transform="matrix(0.96844,0.12055,-0.24195,0.48251,21.603,-23.642)"
       filter="url(#filter4541-0)" />
    <path
       id="path4545"
       opacity="0.28395"
       d="m 93.596,86.137 c 0,0 7.0244,27.949 7.8912,34.802 0.6527,5.1603 0.4231,13.707 -0.7251,16.52 -2.8181,6.9033 -0.86646,26.7 -0.86646,26.7 0,0 -4.2493,-18.899 -2.7883,-29.068 0.56924,-3.9621 2.3503,-10.338 1.7449,-14.741 -0.9013,-6.5552 -5.2563,-34.213 -5.2563,-34.213 z"
       fill-opacity="0.30594"
       transform="matrix(-1.1875,0.16551,0.29666,0.6625,194.91,-55.854)"
       filter="url(#filter4195-2)" />
    <path
       id="path4547"
       opacity="0.76132"
       d="m 163.97,86.529 c -0.90701,-8.5338 -3.5973,-13.911 -2.6221,-25.776 l 12.14,16.929 -17.536,-32.197 c -0.84628,15.278 1.2625,26.783 8.0179,41.044 z"
       fill-opacity="0.12329"
       transform="matrix(0.68835,0.72538,-0.72538,0.68835,47.783,-42.04)"
       filter="url(#filter22006-9)" />
    <path
       id="path4549"
       opacity="0.37449"
       filter="url(#filter4535-8)"
       d="m 123.99,108.59 c 0,0 -3.6427,5.4542 -4.586,8.5466 -1.2225,4.0076 -0.14459,8.4661 -1.2507,12.507 -1.1326,4.1379 -5.4198,11.673 -5.4198,11.673 l 12.09,-1.4592 c -0.10539,-4.3343 -1.6273,-8.7097 -1.5497,-12.922 0.10876,-5.9009 3.6277,-11.891 0.71588,-18.346 z"
       fill-opacity="0.12785" />
    <path
       id="path4571"
       opacity="0.56379"
       d="m 138.47,139.1 c -7.8161,19.045 -8.1825,35.176 -25.862,47.361 l 8.1861,1.4588 c 19.75,-20.503 12.473,-29.719 17.676,-48.819 z"
       fill-opacity="0.14155"
       transform="matrix(-0.97116,-0.23844,-0.23844,0.97116,217.23,-11.435)"
       filter="url(#filter22163-6)" />
    <path
       id="path4573"
       opacity="0.5014"
       d="m 77.337,151.85 c 0,0 5.1665,10.049 10.654,9.6218 7.9567,-0.61945 9.841,-13.593 8.7426,-21.498 -0.79682,-5.7344 2.755,-11.882 2.755,-11.882 0,0 0.97755,8.257 1.7522,14.416 0.94151,7.4855 -5.3135,25.488 -12.855,25.29 -6.1,-0.17 -11.049,-15.95 -11.049,-15.95 z"
       fill-opacity="0.22831"
       transform="matrix(0.94217,0,0,0.84552,-12.835,-0.51077)"
       filter="url(#filter4527-0)" />
    <path
       id="path4575"
       opacity="0.42798"
       filter="url(#filter4603-4)"
       d="M 13.657,53.677 C 28.588,46.968 39.392,38.196 37.867,23.259 35.423,34.336 25.994,44.249 13.657,53.677 Z"
       fill-opacity="0.17352" />
    <path
       id="path4593"
       opacity="0.37449"
       d="M 69.395,92.17 68.42,74.807 82.968,90.977 63.649,53.71 c -1.4166,12.484 -1.0102,24.199 5.7452,38.46 z"
       fill-opacity="0.27397"
       transform="matrix(-0.30443,0.95254,0.95254,0.30443,91.712,-60.747)"
       filter="url(#filter22228-0)" />
  </g>
  <metadata
     id="metadata219">
    <rdf:RDF>
      <cc:Work>
        <dc:format>image/svg+xml</dc:format>
        <dc:type
           rdf:resource="http://purl.org/dc/dcmitype/StillImage" />
        <cc:license
           rdf:resource="http://creativecommons.org/publicdomain/zero/1.0/" />
        <dc:publisher>
          <cc:Agent
             rdf:about="http://openclipart.org/">
            <dc:title>Openclipart</dc:title>
          </cc:Agent>
        </dc:publisher>
        <dc:title>Red Polo Shirt</dc:title>
        <dc:date>2013-04-24T17:43:03</dc:date>
        <dc:description>A Red Polo Shirt.  Added gradients, wrinkles, a pocket and a wavy openclipart logo to the shirt's pocket. Drawn with Inkscape. NOTE: USE INKSCAPE TO GENERATE A CORRECT PNG VERSION OF THIS IMAGE.</dc:description>
        <dc:source>http://openclipart.org/detail/177426/red-polo-shirt-by-merlin2525-177426</dc:source>
        <dc:creator>
          <cc:Agent>
            <dc:title>Merlin2525</dc:title>
          </cc:Agent>
        </dc:creator>
        <dc:subject>
          <rdf:Bag>
            <rdf:li>apparel</rdf:li>
            <rdf:li>art</rdf:li>
            <rdf:li>attire</rdf:li>
            <rdf:li>boton</rdf:li>
            <rdf:li>botón</rdf:li>
            <rdf:li>bouton</rdf:li>
            <rdf:li>button</rdf:li>
            <rdf:li>camisa</rdf:li>
            <rdf:li>camiseta</rdf:li>
            <rdf:li>camiza</rdf:li>
            <rdf:li>camizeta</rdf:li>
            <rdf:li>casual</rdf:li>
            <rdf:li>chemise</rdf:li>
            <rdf:li>clip</rdf:li>
            <rdf:li>clipart</rdf:li>
            <rdf:li>clothe</rdf:li>
            <rdf:li>clothing</rdf:li>
            <rdf:li>golf</rdf:li>
            <rdf:li>logo</rdf:li>
            <rdf:li>open</rdf:li>
            <rdf:li>openclipart</rdf:li>
            <rdf:li>org</rdf:li>
            <rdf:li>polera</rdf:li>
            <rdf:li>polo</rdf:li>
            <rdf:li>ropa</rdf:li>
            <rdf:li>shirt</rdf:li>
            <rdf:li>t</rdf:li>
            <rdf:li>t-shirt</rdf:li>
            <rdf:li>traje</rdf:li>
            <rdf:li>tshirt</rdf:li>
            <rdf:li>vestir</rdf:li>
            <rdf:li>vetements</rdf:li>
            <rdf:li>vetir</rdf:li>
            <rdf:li>vêtements</rdf:li>
            <rdf:li>vêtir</rdf:li>
          </rdf:Bag>
        </dc:subject>
      </cc:Work>
      <cc:License
         rdf:about="http://creativecommons.org/publicdomain/zero/1.0/">
        <cc:permits
           rdf:resource="http://creativecommons.org/ns#Reproduction" />
        <cc:permits
           rdf:resource="http://creativecommons.org/ns#Distribution" />
        <cc:permits
           rdf:resource="http://creativecommons.org/ns#DerivativeWorks" />
      </cc:License>
    </rdf:RDF>
  </metadata>
</svg>
