<?xml version="1.0" encoding="UTF-8" standalone="no"?>
<svg
   xmlns:dc="http://purl.org/dc/elements/1.1/"
   xmlns:cc="http://creativecommons.org/ns#"
   xmlns:rdf="http://www.w3.org/1999/02/22-rdf-syntax-ns#"
   xmlns:svg="http://www.w3.org/2000/svg"
   xmlns="http://www.w3.org/2000/svg"
   xmlns:xlink="http://www.w3.org/1999/xlink"
   xmlns:sodipodi="http://sodipodi.sourceforge.net/DTD/sodipodi-0.dtd"
   xmlns:inkscape="http://www.inkscape.org/namespaces/inkscape"
   viewBox="0 0 306.27489 434.72609"
   version="1.1"
   id="svg108"
   sodipodi:docname="sink.svg"
   width="81.035233mm"
   height="115.02128mm"
   inkscape:version="1.0.2-2 (e86c870879, 2021-01-15)">
  <metadata
     id="metadata112">
    <rdf:RDF>
      <cc:Work
         rdf:about="">
        <dc:format>image/svg+xml</dc:format>
        <dc:type
           rdf:resource="http://purl.org/dc/dcmitype/StillImage" />
        <dc:title />
      </cc:Work>
    </rdf:RDF>
  </metadata>
  <sodipodi:namedview
     pagecolor="#ffffff"
     bordercolor="#666666"
     borderopacity="1"
     objecttolerance="10"
     gridtolerance="10"
     guidetolerance="10"
     inkscape:pageopacity="0"
     inkscape:pageshadow="2"
     inkscape:window-width="1920"
     inkscape:window-height="1017"
     id="namedview110"
     showgrid="false"
     units="mm"
     inkscape:zoom="0.57113489"
     inkscape:cx="356.90697"
     inkscape:cy="547.58645"
     inkscape:window-x="-8"
     inkscape:window-y="-8"
     inkscape:window-maximized="1"
     inkscape:current-layer="svg108"
     inkscape:document-rotation="0" />
  <defs
     id="defs36">
    <linearGradient
       id="d">
      <stop
         stop-color="#ccc"
         offset="0"
         id="stop2" />
      <stop
         stop-color="#ccc"
         stop-opacity="0"
         offset="1"
         id="stop4" />
    </linearGradient>
    <linearGradient
       id="c">
      <stop
         stop-color="#fff"
         offset="0"
         id="stop7" />
      <stop
         stop-color="#fff"
         stop-opacity="0"
         offset="1"
         id="stop9" />
    </linearGradient>
    <linearGradient
       id="a">
      <stop
         stop-color="#333"
         offset="0"
         id="stop12" />
      <stop
         stop-color="#333"
         stop-opacity="0"
         offset="1"
         id="stop14" />
    </linearGradient>
    <linearGradient
       id="b">
      <stop
         stop-color="#b3b3b3"
         offset="0"
         id="stop17" />
      <stop
         stop-color="#b3b3b3"
         stop-opacity="0"
         offset="1"
         id="stop19" />
    </linearGradient>
    <linearGradient
       id="r"
       x1="278.07001"
       x2="350.92001"
       y1="629.84003"
       y2="632.69"
       gradientUnits="userSpaceOnUse"
       xlink:href="#b"
       gradientTransform="matrix(0.53342888,0,0,0.53342888,-43.437984,-100.53587)" />
    <linearGradient
       id="q"
       x1="472.44"
       x2="399.57999"
       y1="610.84998"
       y2="607.98999"
       gradientUnits="userSpaceOnUse"
       xlink:href="#b"
       gradientTransform="matrix(0.53342888,0,0,0.53342888,-43.437984,-100.53587)" />
    <linearGradient
       id="p"
       x1="410.70999"
       x2="410"
       y1="89.504997"
       y2="80.575996"
       gradientUnits="userSpaceOnUse"
       xlink:href="#a" />
    <linearGradient
       id="o"
       x1="463.92999"
       x2="450.70999"
       gradientUnits="userSpaceOnUse"
       xlink:href="#a" />
    <linearGradient
       id="n"
       x2="0"
       y1="74.148003"
       y2="83.433998"
       gradientUnits="userSpaceOnUse"
       xlink:href="#d" />
    <linearGradient
       id="m"
       x2="0"
       y1="123.08"
       y2="117.01"
       gradientUnits="userSpaceOnUse"
       xlink:href="#c" />
    <linearGradient
       id="l"
       x1="617.20001"
       x2="518.21002"
       y1="279.60001"
       y2="308.38"
       gradientUnits="userSpaceOnUse"
       xlink:href="#a"
       gradientTransform="matrix(0.53342888,0,0,0.53342888,-43.437984,-100.53587)" />
    <linearGradient
       id="k"
       x1="181.32001"
       x2="271.23001"
       y1="275.54999"
       y2="277.07001"
       gradientUnits="userSpaceOnUse"
       xlink:href="#a"
       gradientTransform="matrix(0.53342888,0,0,0.53342888,-43.437984,-100.53587)" />
    <linearGradient
       id="j"
       x1="408.66"
       x2="407.23001"
       y1="221.44"
       y2="270.01001"
       gradientUnits="userSpaceOnUse"
       xlink:href="#c"
       gradientTransform="matrix(0.53342888,0,0,0.53342888,-43.437984,-100.53587)" />
    <linearGradient
       id="i"
       x2="0"
       y1="333.45999"
       y2="292.03"
       gradientUnits="userSpaceOnUse"
       xlink:href="#b"
       gradientTransform="matrix(0.53342888,0,0,0.53342888,-43.437984,-100.53587)" />
    <linearGradient
       id="h"
       x2="0"
       y1="196.64999"
       y2="276.64999"
       gradientUnits="userSpaceOnUse"
       xlink:href="#a"
       gradientTransform="matrix(0.53342888,0,0,0.53342888,-43.437984,-100.53587)" />
    <linearGradient
       id="g"
       x1="382.85999"
       x2="385.70999"
       y1="409.51001"
       y2="325.22"
       gradientUnits="userSpaceOnUse"
       xlink:href="#b"
       gradientTransform="matrix(0.53342888,0,0,0.53342888,-43.437984,-100.53587)" />
    <radialGradient
       id="f"
       cx="388.57001"
       cy="838.08002"
       r="254.28999"
       gradientTransform="matrix(0.59487989,0,0,0.37009477,-79.883447,29.85429)"
       gradientUnits="userSpaceOnUse"
       xlink:href="#d" />
    <radialGradient
       id="e"
       cx="35.714001"
       cy="439.51001"
       r="211.81"
       gradientTransform="matrix(0.53342888,0,0,0.09412353,149.35921,7.9528947)"
       gradientUnits="userSpaceOnUse"
       xlink:href="#c" />
  </defs>
  <path
     d="m 302.54104,340.02458 a 151.27201,94.111234 0 1 1 -302.5380645,0 151.27201,94.111234 0 1 1 302.5380645,0 z"
     fill="url(#f)"
     id="path38"
     style="fill:url(#f);stroke-width:0.675041" />
  <path
     d="m 194.19391,345.51202 c -33.80179,21.07151 -56.89019,19.65205 -81.36391,-5.3887 4.60099,-78.31269 17.99096,-158.78044 9.69934,-237.09313 35.51623,7.18581 64.15549,8.06651 82.44144,-0.53887 -16.27919,81.35857 -10.44401,162.98919 -10.77687,243.01953 z"
     fill="#e6e6e6"
     id="path40"
     style="stroke-width:0.533429" />
  <path
     d="m 194.28993,346.55221 c -33.80179,21.07151 -56.89019,19.65205 -81.36391,-5.3887 4.60099,-78.31269 17.99096,-158.78044 9.69934,-237.09313 35.51623,7.18582 64.15549,8.06651 82.44143,-0.53888 -16.27918,81.35858 -10.444,162.9892 -10.77686,243.01954 z"
     fill="url(#r)"
     id="path42"
     style="fill:url(#r);stroke-width:0.533429" />
  <path
     d="m 193.57514,345.56537 c -33.80179,21.0715 -56.8902,19.65205 -81.36391,-5.3887 4.60098,-78.3127 17.99095,-158.78045 9.69934,-237.09314 35.51622,7.18582 64.15549,8.06651 82.44143,-0.53887 -16.27918,81.35857 -10.44401,162.9892 -10.77686,243.01953 z"
     fill="url(#q)"
     id="path44"
     style="fill:url(#q);stroke-width:0.533429" />
  <path
     d="m 126.02704,106.26383 c 27.50039,6.6524 53.30875,4.84588 78.67009,0.80826 81.20388,-22.04609 93.72879,-39.470006 101.57019,-56.580802 0.18321,-3.682097 -2.95717,-7.903285 -9.16058,-11.585007 L 27.682492,42.947593 c 0.577224,3.431868 0.223892,7.476002 2.155374,11.585007 32.061209,40.9636 64.123478,43.87452 96.182554,51.72926 z"
     fill="#e6e6e6"
     id="path46"
     style="stroke-width:0.533429" />
  <path
     d="m 125.93102,105.93844 c 27.50039,6.65239 53.30874,4.84589 78.67009,0.80825 81.20388,-22.04608 93.72879,-39.469993 101.5702,-56.580789 0.18321,-3.682106 -2.95718,-7.903285 -9.16058,-11.585016 L 27.58647,42.622197 c 0.577223,3.431868 0.2239,7.476011 2.155373,11.585008 32.06121,40.963605 64.123491,43.874525 96.182567,51.729265 z"
     fill="url(#g)"
     id="path48"
     style="fill:url(#g);stroke-width:0.533429" />
  <path
     d="M 267.74309,69.355895 C 340.00669,50.161526 293.32154,30.699366 230.83248,17.357244 170.99775,17.730155 111.74981,16.636635 50.586859,20.320875 7.2852365,44.713511 28.308731,63.543549 93.963694,74.474564 152.27814,75.114097 210.80595,76.992778 267.73882,69.355574 Z"
     fill="#999999"
     id="path50"
     style="stroke-width:0.533429" />
  <path
     d="M 269.25803,69.377234 C 341.52163,50.182856 294.83648,30.720705 232.34741,17.378582 172.51269,17.751485 113.26475,16.657973 52.101798,20.342204 8.8001745,44.734841 29.82367,63.564887 95.478634,74.495902 153.79308,75.135435 212.32089,77.014116 269.25376,69.376912 Z"
     fill="url(#h)"
     id="path52"
     style="fill:url(#h);stroke-width:0.533429" />
  <path
     d="m 95.584254,32.80001 c -22.275458,-1.871163 -72.028901,24.524399 0,39.248095 51.281716,5.224561 101.916916,2.694348 152.491306,-0.560688 70.05522,-13.094603 22.5075,-33.884996 -15.0875,-40.930526 z"
     fill="#ffffff"
     id="path54"
     style="stroke-width:0.533429" />
  <path
     d="m 96.075004,34.410971 c -22.275454,-1.798247 -72.028897,23.569023 0,37.719282 50.262336,2.948846 100.807386,4.346754 152.491316,-0.538868 70.05521,-12.584117 22.5075,-32.564762 -15.08751,-39.335573 z"
     fill="url(#i)"
     id="path56"
     style="fill:url(#i);stroke-width:0.533429" />
  <path
     d="m 96.075004,32.570637 c -22.275454,-1.798238 -72.028897,23.569023 0,37.719295 L 248.56632,69.751055 c 70.05521,-12.584121 22.5075,-32.564766 -15.08751,-39.335577 z"
     fill="url(#j)"
     id="path58"
     style="fill:url(#j);stroke-width:0.533429" />
  <path
     d="m 92.586384,74.087403 c 59.146596,3.400986 117.140976,2.185408 173.743116,-4.572229 13.49895,-3.888802 28.01195,-5.544993 37.39283,-18.493973 0.43838,-0.605124 -0.84906,-7.331455 1.28087,-1.890796 0.35696,2.227709 1.66163,0.437711 -0.19051,3.619689 C 295.79988,64.652488 280.491,68.160317 265.5678,72.182367 208.70961,79.463136 150.31515,79.445003 91.440604,77.135628 70.059715,74.221085 49.141828,69.703906 30.475024,55.036211 27.89525,51.734016 27.500037,48.43183 27.426853,45.129903 35.634186,61.448021 68.85827,71.144692 92.579844,74.087618 Z"
     fill="#ffffff"
     id="path60"
     style="stroke-width:0.533429" />
  <path
     d="m 52.20048,20.936551 c 60.20279,-1.345357 120.40024,-1.286735 180.60301,-2.667144 23.99684,6.898305 49.8628,10.596571 68.20423,23.623431 C 280.47657,29.301253 255.96978,25.98546 232.6168,19.984381 L 52.20582,23.604071 C 38.720204,29.067987 28.737078,36.013763 28.391951,47.037073 30.409482,40.516438 26.201641,37.532434 52.20582,20.936926 Z"
     fill="#ffffff"
     id="path62"
     style="stroke-width:0.533429" />
  <path
     d="m 92.981114,31.541122 c -22.275447,-1.798247 -72.028899,23.569023 0,37.719287 L 245.47243,68.721541 c 70.05522,-12.584122 22.5075,-32.564767 -15.0875,-39.335578 z"
     fill="url(#e)"
     id="path64"
     style="fill:url(#e);stroke-width:0.533429" />
  <path
     d="m 106.73291,32.287918 7.18849,40.276547 C 101.28341,73.039372 88.680624,71.256231 76.769145,66.856779 70.181298,64.423597 59.157997,60.257728 58.292243,52.751317 58.844288,46.431789 63.384774,43.272819 68.706902,39.85621 79.377613,33.00592 102.30972,31.125579 106.73291,32.287918 Z"
     fill="url(#k)"
     id="path66"
     style="fill:url(#k);stroke-width:0.533429" />
  <path
     d="m 227.79459,31.189058 -0.31563,41.689062 c 13.66804,-1.355017 33.89353,-4.516643 44.81815,-8.203061 5.81811,-1.963025 12.96393,-5.984009 11.18067,-11.545001 -2.47756,-6.144036 -9.90631,-9.178717 -16.2173,-12.335017 -9.88124,-4.941574 -26.54236,-9.193109 -39.46574,-9.606519 z"
     fill="url(#l)"
     id="path68"
     style="fill:url(#l);stroke-width:0.533429" />
  <g
     transform="matrix(0.53342888,0,0,0.53342888,-87.623499,-38.028678)"
     id="g106">
    <path
       d="m 396.79,122.72 12.5,3.5714 119.64,-0.71429 9.6428,-1.0714 3.2143,-1.7857 -0.3571,-5 -3.5714,2.1428 h -14.286 l -113.57,2.5 -13.929,-4.6428 z"
       fill="#333333"
       id="path70" />
    <path
       d="m 396.07,117.72 8.5714,4.6429 127.14,-1.0714 7.8571,-0.71429 1.0715,-2.1428 -11.072,-6.4286 -122.86,-0.71429 z"
       fill="#333333"
       id="path72" />
    <path
       d="m 431.79,91.648 c 11.659,-6.9339 21.427,-7.6784 27.857,2.5 l 0.3571,22.143 c -8.9384,3.743 -19.162,2.6646 -30,-0.71428 z"
       fill="#b3b3b3"
       id="path74" />
    <path
       d="m 437.68,78.255 -61.607,0.35714 -0.17857,4.6429 61.964,-1.0714 z"
       fill="#808080"
       id="path76" />
    <path
       d="m 381.79,71.291 48.929,1.7857 c 1.9803,4.1667 4.5026,8.3333 1.4286,12.5 l -47.857,4.2857 c 4.739,-8.1287 3.7127,-14.252 -2.5,-18.571 z"
       fill="#cccccc"
       id="path78" />
    <path
       d="m 437.86,77.541 1.6072,-1.7857 2.8571,0.35714 3.2143,-1.0714 2.5,1.4286 2.6786,-1.25 2.5,1.25 2.1428,0.71429 1.9643,1.7857 0.1786,4.4643 -3.75,1.7857 -0.5357,2.3214 -11.607,-0.35714 0.7143,-2.6786 -2.3214,-1.6071 -1.9643,-1.0714 z"
       fill="#808080"
       id="path80" />
    <path
       transform="translate(-560,34.286)"
       d="m 946.96,46.559 c 0,5.079 -2.3185,9.1964 -5.1786,9.1964 -2.8601,0 -5.1786,-4.1174 -5.1786,-9.1964 0,-5.079 2.3185,-9.1964 5.1786,-9.1964 2.8601,0 5.1786,4.1174 5.1786,9.1964 z"
       fill="#e6e6e6"
       id="path82" />
    <path
       d="m 372.86,77.184 3.75,0.89286 1.4286,3.75 -0.35715,2.3214 -2.1428,1.7857 h -2.8572 l -1.6071,-1.7857 -0.71429,-2.8571 0.89286,-2.5 z"
       fill="#808080"
       id="path84" />
    <path
       d="m 503.39,90.219 4.1071,17.5 c 7.8531,-1.1303 15.765,-3.1419 23.393,-0.89285 l -6.7858,-18.393 -8.9285,-6.4286 -12.5,2.8571 -13.036,11.071 -4.8215,-3.0357 -0.8928,-3.3929 0.1785,-1.6071 -7.3214,2.3214 -4.2857,6.6071 -1.4286,5.8928 0.7143,7.3214 0.7143,5.8929 h 24.643 l 0.3571,-3.3929 h -7.8571 l -11.072,-3.2143 -4.6428,-5.7143 2.3214,-3.5714 8.9286,-0.53571 8.3928,-3.2143 6.25,-3.75 z"
       fill="#b3b3b3"
       id="path86" />
    <path
       d="m 484.29,88.076 6.25,-0.17857 5.8929,0.89286 0.3571,0.53571 -6.6071,6.6071 -4.6429,-2.5 -1.6071,-3.9286 z"
       fill="#e6e6e6"
       id="path88" />
    <path
       d="m 510.89,106.65 17.5,-0.89285 -2.6786,-8.0357 -3.0357,-5 -4.4643,-3.0357 -4.4643,1.4286 -3.0357,2.8571 v 5.1786 l -0.3572,4.8214 z"
       fill="#cccccc"
       id="path90" />
    <path
       d="m 507.5,112.9 6.7857,-1.4286 c 4.8575,-0.52126 9.8117,-1.1634 13.75,-0.53571 l 3.5714,1.7857 c 1.7018,-0.44324 2.3257,-1.5332 2.8572,-2.6786 -0.7598,-1.6491 -1.6247,-2.9833 -2.8572,-3.2143 -8.656,-2.107 -16.575,-0.89692 -24.286,1.25 l -2.1428,1.7857 0.8928,2.5 2.5,0.35714 0.8929,6.9643 c 6.2671,-1.8705 13.377,-2.0559 21.071,-1.0714 l -0.3571,-6.6071 c -3.5848,-0.96523 -7.3679,-1.2361 -11.429,-0.53572 l -10.179,1.25"
       fill="#808080"
       id="path92" />
    <path
       d="m 497.14,112.18 5.1785,-5 3.9286,-3.2143 -2.8571,-13.571 -18.393,8.9286 -8.75,0.53571 -2.3214,4.1071 4.1071,5 11.429,3.2143 z"
       fill="#666666"
       id="path94" />
    <path
       d="m 381.6,71.291 48.929,1.7857 c 1.9803,4.1667 4.5026,8.3333 1.4286,12.5 l -47.857,4.2857 c 4.739,-8.1287 3.7127,-14.252 -2.5,-18.571 z"
       fill="url(#p)"
       id="path96"
       style="fill:url(#p)" />
    <path
       d="m 431.43,91.098 c 11.659,-6.9339 21.427,-7.6784 27.857,2.5 l 0.3571,22.143 c -8.9384,3.743 -19.162,2.6646 -30,-0.71429 z"
       fill="url(#o)"
       id="path98"
       style="fill:url(#o)" />
    <path
       d="m 438.39,77.541 1.6072,-1.7857 2.8571,0.35714 3.2143,-1.0714 2.5,1.4286 2.6786,-1.25 2.5,1.25 2.1428,0.71429 1.9643,1.7857 0.1786,4.4643 -3.75,1.7857 -0.5357,2.3214 -11.607,-0.35714 0.7143,-2.6786 -2.3214,-1.6071 -1.9643,-1.0714 z"
       fill="url(#n)"
       id="path100"
       style="fill:url(#n)" />
    <path
       transform="translate(5.3571,31.786)"
       d="m 525.36,88.791 c 0,1.1835 -4.637,2.1429 -10.357,2.1429 -5.72,0 -10.357,-0.95939 -10.357,-2.1429 0,-1.18351 4.637,-2.1429 10.357,-2.1429 5.72,0 10.357,0.95939 10.357,2.1429 z"
       fill="#cccccc"
       id="path102" />
    <path
       d="m 395.54,117.54 8.5714,4.6429 127.14,-1.0714 7.8571,-0.71429 1.0715,-2.1428 -11.072,-6.4286 -122.86,-0.71429 z"
       fill="url(#m)"
       id="path104"
       style="fill:url(#m)" />
  </g>
</svg>
