<?xml version="1.0" encoding="UTF-8" standalone="no"?>
<svg
   xmlns:dc="http://purl.org/dc/elements/1.1/"
   xmlns:cc="http://creativecommons.org/ns#"
   xmlns:rdf="http://www.w3.org/1999/02/22-rdf-syntax-ns#"
   xmlns:svg="http://www.w3.org/2000/svg"
   xmlns="http://www.w3.org/2000/svg"
   xmlns:xlink="http://www.w3.org/1999/xlink"
   xmlns:sodipodi="http://sodipodi.sourceforge.net/DTD/sodipodi-0.dtd"
   xmlns:inkscape="http://www.inkscape.org/namespaces/inkscape"
   width="123.84383mm"
   height="70.383987mm"
   version="1.1"
   viewBox="0 0 438.81981 249.38719"
   id="svg320"
   sodipodi:docname="sled.svg"
   inkscape:version="1.0.2-2 (e86c870879, 2021-01-15)">
  <metadata
     id="metadata324">
    <rdf:RDF>
      <cc:Work
         rdf:about="">
        <dc:format>image/svg+xml</dc:format>
        <dc:type
           rdf:resource="http://purl.org/dc/dcmitype/StillImage" />
        <dc:title></dc:title>
      </cc:Work>
    </rdf:RDF>
  </metadata>
  <sodipodi:namedview
     pagecolor="#ffffff"
     bordercolor="#666666"
     borderopacity="1"
     objecttolerance="10"
     gridtolerance="10"
     guidetolerance="10"
     inkscape:pageopacity="0"
     inkscape:pageshadow="2"
     inkscape:window-width="1920"
     inkscape:window-height="1017"
     id="namedview322"
     showgrid="false"
     inkscape:zoom="1.5541503"
     inkscape:cx="306.93646"
     inkscape:cy="123.12094"
     inkscape:window-x="-8"
     inkscape:window-y="-8"
     inkscape:window-maximized="1"
     inkscape:current-layer="svg320" />
  <defs
     id="defs278">
    <pattern
       id="u"
       patternTransform="matrix(.225 0 0 .3375 33.941 972.98)"
       xlink:href="#a" />
    <pattern
       id="t"
       patternTransform="matrix(.48941 0 0 .45406 48.083 972.98)"
       xlink:href="#a" />
    <pattern
       id="s"
       patternTransform="matrix(.31153 0 0 .31472 32.909 982.54)"
       xlink:href="#a" />
    <pattern
       id="r"
       patternTransform="matrix(.30075 0 0 .36006 48.083 958.84)"
       xlink:href="#a" />
    <pattern
       id="q"
       patternTransform="matrix(.34137 0 0 .32226 56.569 950.35)"
       xlink:href="#a" />
    <pattern
       id="p"
       patternTransform="matrix(.32223 0 0 .30732 44.005 974.72)"
       xlink:href="#a" />
    <pattern
       id="o"
       patternTransform="matrix(.325 0 0 .375 55.508 969.09)"
       xlink:href="#a" />
    <pattern
       id="a"
       width="10"
       height="10"
       patternTransform="translate(0) scale(10)"
       patternUnits="userSpaceOnUse">
      <circle
         cx="2.567"
         cy=".81"
         r=".45"
         id="circle9" />
      <circle
         cx="3.048"
         cy="2.33"
         r=".45"
         id="circle11" />
      <circle
         cx="4.418"
         cy="2.415"
         r=".45"
         id="circle13" />
      <circle
         cx="1.844"
         cy="3.029"
         r=".45"
         id="circle15" />
      <circle
         cx="6.08"
         cy="1.363"
         r=".45"
         id="circle17" />
      <circle
         cx="5.819"
         cy="4.413"
         r=".45"
         id="circle19" />
      <circle
         cx="4.305"
         cy="4.048"
         r=".45"
         id="circle21" />
      <circle
         cx="5.541"
         cy="3.045"
         r=".45"
         id="circle23" />
      <circle
         cx="4.785"
         cy="5.527"
         r=".45"
         id="circle25" />
      <circle
         cx="2.667"
         cy="5.184"
         r=".45"
         id="circle27" />
      <circle
         cx="7.965"
         cy="1.448"
         r=".45"
         id="circle29" />
      <circle
         cx="7.047"
         cy="5.049"
         r=".45"
         id="circle31" />
      <circle
         cx="4.34"
         cy=".895"
         r=".45"
         id="circle33" />
      <circle
         cx="7.125"
         cy=".34"
         r=".45"
         id="circle35" />
      <circle
         cx="9.553"
         cy="1.049"
         r=".45"
         id="circle37" />
      <circle
         cx="7.006"
         cy="2.689"
         r=".45"
         id="circle39" />
      <circle
         cx="8.909"
         cy="2.689"
         r=".45"
         id="circle41" />
      <circle
         cx="9.315"
         cy="4.407"
         r=".45"
         id="circle43" />
      <circle
         cx="7.82"
         cy="3.87"
         r=".45"
         id="circle45" />
      <circle
         cx="8.27"
         cy="5.948"
         r=".45"
         id="circle47" />
      <circle
         cx="7.973"
         cy="7.428"
         r=".45"
         id="circle49" />
      <circle
         cx="9.342"
         cy="8.072"
         r=".45"
         id="circle51" />
      <circle
         cx="8.206"
         cy="9.315"
         r=".45"
         id="circle53" />
      <circle
         cx="9.682"
         cy="9.475"
         r=".45"
         id="circle55" />
      <circle
         cx="9.688"
         cy="6.186"
         r=".45"
         id="circle57" />
      <circle
         cx="3.379"
         cy="6.296"
         r=".45"
         id="circle59" />
      <circle
         cx="2.871"
         cy="8.204"
         r=".45"
         id="circle61" />
      <circle
         cx="4.59"
         cy="8.719"
         r=".45"
         id="circle63" />
      <circle
         cx="3.181"
         cy="9.671"
         r=".45"
         id="circle65" />
      <circle
         cx="5.734"
         cy="7.315"
         r=".45"
         id="circle67" />
      <circle
         cx="6.707"
         cy="6.513"
         r=".45"
         id="circle69" />
      <circle
         cx="5.73"
         cy="9.67"
         r=".45"
         id="circle71" />
      <circle
         cx="6.535"
         cy="8.373"
         r=".45"
         id="circle73" />
      <circle
         cx="4.37"
         cy="7.154"
         r=".45"
         id="circle75" />
      <circle
         cx=".622"
         cy="7.25"
         r=".45"
         id="circle77" />
      <circle
         cx=".831"
         cy="5.679"
         r=".45"
         id="circle79" />
      <circle
         cx="1.257"
         cy="8.519"
         r=".45"
         id="circle81" />
      <circle
         cx="1.989"
         cy="6.877"
         r=".45"
         id="circle83" />
      <circle
         cx=".374"
         cy="3.181"
         r=".45"
         id="circle85" />
      <circle
         cx="1.166"
         cy="1.664"
         r=".45"
         id="circle87" />
      <circle
         cx="1.151"
         cy=".093"
         r=".45"
         id="circle89" />
      <circle
         cx="1.151"
         cy="10.093"
         r=".45"
         id="circle91" />
      <circle
         cx="1.302"
         cy="4.451"
         r=".45"
         id="circle93" />
      <circle
         cx="3.047"
         cy="3.763"
         r=".45"
         id="circle95" />
    </pattern>
    <pattern
       id="w"
       xlink:href="#n"
       patternTransform="matrix(.225 0 0 .3375 58.269 966.25)" />
    <pattern
       id="n"
       width="10"
       height="10"
       patternTransform="translate(0) scale(10)"
       patternUnits="userSpaceOnUse">
      <circle
         cx="2.567"
         cy=".81"
         r=".45"
         id="circle99" />
      <circle
         cx="3.048"
         cy="2.33"
         r=".45"
         id="circle101" />
      <circle
         cx="4.418"
         cy="2.415"
         r=".45"
         id="circle103" />
      <circle
         cx="1.844"
         cy="3.029"
         r=".45"
         id="circle105" />
      <circle
         cx="6.08"
         cy="1.363"
         r=".45"
         id="circle107" />
      <circle
         cx="5.819"
         cy="4.413"
         r=".45"
         id="circle109" />
      <circle
         cx="4.305"
         cy="4.048"
         r=".45"
         id="circle111" />
      <circle
         cx="5.541"
         cy="3.045"
         r=".45"
         id="circle113" />
      <circle
         cx="4.785"
         cy="5.527"
         r=".45"
         id="circle115" />
      <circle
         cx="2.667"
         cy="5.184"
         r=".45"
         id="circle117" />
      <circle
         cx="7.965"
         cy="1.448"
         r=".45"
         id="circle119" />
      <circle
         cx="7.047"
         cy="5.049"
         r=".45"
         id="circle121" />
      <circle
         cx="4.34"
         cy=".895"
         r=".45"
         id="circle123" />
      <circle
         cx="7.125"
         cy=".34"
         r=".45"
         id="circle125" />
      <circle
         cx="9.553"
         cy="1.049"
         r=".45"
         id="circle127" />
      <circle
         cx="7.006"
         cy="2.689"
         r=".45"
         id="circle129" />
      <circle
         cx="8.909"
         cy="2.689"
         r=".45"
         id="circle131" />
      <circle
         cx="9.315"
         cy="4.407"
         r=".45"
         id="circle133" />
      <circle
         cx="7.82"
         cy="3.87"
         r=".45"
         id="circle135" />
      <circle
         cx="8.27"
         cy="5.948"
         r=".45"
         id="circle137" />
      <circle
         cx="7.973"
         cy="7.428"
         r=".45"
         id="circle139" />
      <circle
         cx="9.342"
         cy="8.072"
         r=".45"
         id="circle141" />
      <circle
         cx="8.206"
         cy="9.315"
         r=".45"
         id="circle143" />
      <circle
         cx="9.682"
         cy="9.475"
         r=".45"
         id="circle145" />
      <circle
         cx="9.688"
         cy="6.186"
         r=".45"
         id="circle147" />
      <circle
         cx="3.379"
         cy="6.296"
         r=".45"
         id="circle149" />
      <circle
         cx="2.871"
         cy="8.204"
         r=".45"
         id="circle151" />
      <circle
         cx="4.59"
         cy="8.719"
         r=".45"
         id="circle153" />
      <circle
         cx="3.181"
         cy="9.671"
         r=".45"
         id="circle155" />
      <circle
         cx="5.734"
         cy="7.315"
         r=".45"
         id="circle157" />
      <circle
         cx="6.707"
         cy="6.513"
         r=".45"
         id="circle159" />
      <circle
         cx="5.73"
         cy="9.67"
         r=".45"
         id="circle161" />
      <circle
         cx="6.535"
         cy="8.373"
         r=".45"
         id="circle163" />
      <circle
         cx="4.37"
         cy="7.154"
         r=".45"
         id="circle165" />
      <circle
         cx=".622"
         cy="7.25"
         r=".45"
         id="circle167" />
      <circle
         cx=".831"
         cy="5.679"
         r=".45"
         id="circle169" />
      <circle
         cx="1.257"
         cy="8.519"
         r=".45"
         id="circle171" />
      <circle
         cx="1.989"
         cy="6.877"
         r=".45"
         id="circle173" />
      <circle
         cx=".374"
         cy="3.181"
         r=".45"
         id="circle175" />
      <circle
         cx="1.166"
         cy="1.664"
         r=".45"
         id="circle177" />
      <circle
         cx="1.151"
         cy=".093"
         r=".45"
         id="circle179" />
      <circle
         cx="1.151"
         cy="10.093"
         r=".45"
         id="circle181" />
      <circle
         cx="1.302"
         cy="4.451"
         r=".45"
         id="circle183" />
      <circle
         cx="3.047"
         cy="3.763"
         r=".45"
         id="circle185" />
    </pattern>
    <pattern
       id="v"
       xlink:href="#m"
       patternTransform="matrix(.225 0 0 .3375 79.519 960.31)" />
    <pattern
       id="m"
       width="10"
       height="10"
       patternTransform="translate(0) scale(10)"
       patternUnits="userSpaceOnUse">
      <circle
         cx="2.567"
         cy=".81"
         r=".45"
         id="circle189" />
      <circle
         cx="3.048"
         cy="2.33"
         r=".45"
         id="circle191" />
      <circle
         cx="4.418"
         cy="2.415"
         r=".45"
         id="circle193" />
      <circle
         cx="1.844"
         cy="3.029"
         r=".45"
         id="circle195" />
      <circle
         cx="6.08"
         cy="1.363"
         r=".45"
         id="circle197" />
      <circle
         cx="5.819"
         cy="4.413"
         r=".45"
         id="circle199" />
      <circle
         cx="4.305"
         cy="4.048"
         r=".45"
         id="circle201" />
      <circle
         cx="5.541"
         cy="3.045"
         r=".45"
         id="circle203" />
      <circle
         cx="4.785"
         cy="5.527"
         r=".45"
         id="circle205" />
      <circle
         cx="2.667"
         cy="5.184"
         r=".45"
         id="circle207" />
      <circle
         cx="7.965"
         cy="1.448"
         r=".45"
         id="circle209" />
      <circle
         cx="7.047"
         cy="5.049"
         r=".45"
         id="circle211" />
      <circle
         cx="4.34"
         cy=".895"
         r=".45"
         id="circle213" />
      <circle
         cx="7.125"
         cy=".34"
         r=".45"
         id="circle215" />
      <circle
         cx="9.553"
         cy="1.049"
         r=".45"
         id="circle217" />
      <circle
         cx="7.006"
         cy="2.689"
         r=".45"
         id="circle219" />
      <circle
         cx="8.909"
         cy="2.689"
         r=".45"
         id="circle221" />
      <circle
         cx="9.315"
         cy="4.407"
         r=".45"
         id="circle223" />
      <circle
         cx="7.82"
         cy="3.87"
         r=".45"
         id="circle225" />
      <circle
         cx="8.27"
         cy="5.948"
         r=".45"
         id="circle227" />
      <circle
         cx="7.973"
         cy="7.428"
         r=".45"
         id="circle229" />
      <circle
         cx="9.342"
         cy="8.072"
         r=".45"
         id="circle231" />
      <circle
         cx="8.206"
         cy="9.315"
         r=".45"
         id="circle233" />
      <circle
         cx="9.682"
         cy="9.475"
         r=".45"
         id="circle235" />
      <circle
         cx="9.688"
         cy="6.186"
         r=".45"
         id="circle237" />
      <circle
         cx="3.379"
         cy="6.296"
         r=".45"
         id="circle239" />
      <circle
         cx="2.871"
         cy="8.204"
         r=".45"
         id="circle241" />
      <circle
         cx="4.59"
         cy="8.719"
         r=".45"
         id="circle243" />
      <circle
         cx="3.181"
         cy="9.671"
         r=".45"
         id="circle245" />
      <circle
         cx="5.734"
         cy="7.315"
         r=".45"
         id="circle247" />
      <circle
         cx="6.707"
         cy="6.513"
         r=".45"
         id="circle249" />
      <circle
         cx="5.73"
         cy="9.67"
         r=".45"
         id="circle251" />
      <circle
         cx="6.535"
         cy="8.373"
         r=".45"
         id="circle253" />
      <circle
         cx="4.37"
         cy="7.154"
         r=".45"
         id="circle255" />
      <circle
         cx=".622"
         cy="7.25"
         r=".45"
         id="circle257" />
      <circle
         cx=".831"
         cy="5.679"
         r=".45"
         id="circle259" />
      <circle
         cx="1.257"
         cy="8.519"
         r=".45"
         id="circle261" />
      <circle
         cx="1.989"
         cy="6.877"
         r=".45"
         id="circle263" />
      <circle
         cx=".374"
         cy="3.181"
         r=".45"
         id="circle265" />
      <circle
         cx="1.166"
         cy="1.664"
         r=".45"
         id="circle267" />
      <circle
         cx="1.151"
         cy=".093"
         r=".45"
         id="circle269" />
      <circle
         cx="1.151"
         cy="10.093"
         r=".45"
         id="circle271" />
      <circle
         cx="1.302"
         cy="4.451"
         r=".45"
         id="circle273" />
      <circle
         cx="3.047"
         cy="3.763"
         r=".45"
         id="circle275" />
    </pattern>
  </defs>
  <g
     transform="matrix(4.218269,0,0,4.218269,-5.068506,-4138.8781)"
     id="g318">
    <path
       transform="translate(0,946.06)"
       d="M 84.625,35.424 13.313,52.362 7.3755,53.737 6.813,50.862 c 0,0 -1.8887,-2.0746 -3,-1.75 -1.6636,0.48587 -2.6793,2.8382 -2.1875,4.5 0.81363,2.7494 2.0023,5.367 3.375,7.75 1.2608,2.1888 4.25,6.0625 4.25,6.0625 2.4664,1.5595 4.6417,2.9156 8.375,4 1.0605,0.9925 4.2288,6.1112 7.5,8.625 3.5476,2.0243 6.8024,3.6726 12.312,4.25 5.6116,-0.027 11.035,-1.2979 16.812,-3.3125 l 21.875,-7 c 8.7504,-3.436 17.662,-6.2277 26.25,-10.312 0.90493,-0.461 1.8193,-0.9031 2.5625,-1.6875 0.0288,-1.3317 -0.34225,-2.3968 -1.3125,-3.0625 -1.2435,-0.2929 -2.2894,0.01 -3.375,0.1875 l -0.0625,-11.312 1.3125,-0.375 v -2.5 l -1.875,-1.375 3.6875,-1.125 c -0.23462,-0.48392 0.4389,-1.0435 -1.625,-1.375 l -2.4375,0.625 c -0.24159,-0.75421 0.18588,-1.8429 -2.25,-1.5 L 95.187,40.613 c -0.23645,-0.91014 -0.24868,-1.963 -2.25,-1.75 l -2.1875,0.625 c 0.65703,-1.4331 0.79129,-2.6266 -2.5,-2.25 l -1.6875,0.625 c 0.46295,-1.0589 1.8794,-2.3297 -1.9375,-2.4375 z m 7.4375,10.188 2.6875,1.1875 0.625,14.188 -15.562,5.75 -0.5,-10.188 4.75,-1.625 c 0.40502,-0.3259 0.63891,-1e-4 1.375,-2.1875 -0.184,-0.5625 -0.26355,-1.25 -0.9375,-1.8125 -0.15068,-0.16667 -0.47578,-0.23958 -1.1875,-0.40625 L 81.7505,50.737 81.688,48.5495 Z m -57.438,4.8125 c -0.86962,0.25484 -1.1609,1.2706 -1.125,1.875 0.84143,1.0716 1.5501,0.76216 2.3583,0.53061 -0.14985,2.778 -0.09687,2.9607 -0.30705,5.8393 l -15.551,4.1301 -1.8125,-5 c -0.68528,-1.0483 -1.6748,-1.184 -2.6875,-1.25 -2.1142,0.9453 -1.9149,2.0835 -2.125,3.1875 0.02865,2.4961 1.0641,4.4888 1.6875,6.6875 -1.2083,-0.6832 -2.4167,-0.9237 -3.625,-2.6875 -1.2351,-1.5953 -2.4774,-3.1797 -3.0625,-5.75 l -0.375,-1.625 z m 36.312,1.1562 2.5625,1.1562 0.0625,0.5625 -11.625,3.3125 0.03125,-2.5312 c 0.34375,0 8.9688,-2.5 8.9688,-2.5 z m -12.531,3.5938 -0.0625,2.5 -2.0312,0.59375 -0.03125,-0.5625 c -0.19045,-0.5644 -1.6748,-0.899 -2.4688,-1.3125 z m 15.719,2.9375 1.0312,10.25 -18.562,6.0312 -1.2188,-10.594 z m -27.25,0.4375 2.8438,1.1875 0.03125,0.5 -10.375,3 0.28125,-2.9062 z m -11.5,3.125 v 2.5625 l -8.9375,2 c -2.7998,0.4205 -3.2538,0.4217 -4.9375,0.4375 l -0.75,-1.5625 c 1.75,-0.6506 3.5,-1.1504 5.25,-0.8125 z m 14.938,3.625 1.3125,10.625 L 41.5,78.612 c -2.9337,0.2462 -6.0332,0.6582 -8.5,0.4375 -3.2751,-1.4524 -7.1538,-4.0348 -9.0625,-7.375 L 29,71.112 Z"
       fill="#db9044"
       fill-rule="evenodd"
       stroke="#ffcc00"
       stroke-width="0.35433"
       id="path280" />
    <path
       d="m 5.7209,996.25 c 0.39055,-1.0181 -1.4641,-1.6869 -3.5,-0.375 -0.85291,1.5206 -0.81924,2.8935 -0.6875,4.25 3.6036,9.1776 4.0455,8.8334 5.5,10.438 -1.7577,-2.2726 -2.3117,-5.3478 -3.125,-8.25 l -0.5625,-3.1876 c 0.1407,-1.4635 1.4226,-2.2232 2.375,-2.875 z"
       fill="#616161"
       fill-opacity="0.99216"
       fill-rule="evenodd"
       stroke="#ff6600"
       stroke-width="0.35433"
       id="path282" />
    <path
       d="m 97.016,990.69 c -0.08897,1.0739 -0.49526,2.0843 0.1875,3.3125 -1.7181,-0.75217 -4.2033,-1.6748 -4.5625,-2.125 z"
       fill="url(#v)"
       fill-rule="evenodd"
       opacity="0.527"
       id="path284" />
    <path
       d="m 75.766,996.63 c -0.08897,1.0739 -0.49526,2.0843 0.1875,3.3125 -1.5239,-0.7053 -3.1897,-1.2686 -4.5625,-2.125 z"
       fill="url(#w)"
       fill-rule="evenodd"
       opacity="0.527"
       id="path286" />
    <path
       d="m 51.438,1003.4 c -0.08897,1.0739 -0.49526,2.0843 0.1875,3.3125 l -4.5625,-2.125 z"
       fill="url(#u)"
       fill-rule="evenodd"
       opacity="0.527"
       id="path288" />
    <path
       d="m 17.117,1003.3 c -0.75941,-0.5581 -1.2875,-1.1326 -2.875,0 -0.85291,1.5206 -0.81924,2.8935 -0.6875,4.25 2.7831,9.1775 3.9792,8.8333 5.5,10.438 l -3.125,-8.25 -0.875,-3.6875 c 0.1407,-1.4635 1.1101,-2.0982 2.0625,-2.75 z"
       fill="#616161"
       fill-opacity="0.99216"
       fill-rule="evenodd"
       stroke="#ff6600"
       stroke-width="0.35433"
       id="path290" />
    <path
       d="m 17.062,1003.3 c -0.75941,-0.5581 -1.2875,-1.1326 -2.875,0 -0.85291,1.5206 -0.81924,2.8935 -0.6875,4.25 2.7831,9.1775 3.9792,8.8333 5.5,10.438 l -3.125,-8.25 -0.875,-3.6875 c 0.1407,-1.4635 1.1101,-2.0982 2.0625,-2.75 z"
       fill="url(#t)"
       fill-rule="evenodd"
       opacity="0.527"
       stroke="#ff6600"
       stroke-width="0.35433"
       id="path292" />
    <path
       d="m 79.625,995.11 0.125,1.375 c 0.16667,0.0833 0.48117,0.31372 0.41161,0.51517 l -0.0846,2.3819 -0.88952,0.2904 0.125,2.87503 4.6875,-1.5 c 0.36742,-0.2403 1,-0.566 1.5,-2.06253 -0.06288,-0.69159 -0.54559,-1.1666 -0.875,-1.8049 -0.36656,-0.35094 -0.99845,-0.70249 -1.3826,-0.58459 l -1.4223,0.22411 -0.0076,-1.9596 z"
       fill="url(#s)"
       fill-rule="evenodd"
       opacity="0.426"
       stroke="#ff6600"
       stroke-width="0.35433"
       id="path294" />
    <path
       d="m 56.408,1004.2 1.9665,-0.625 v -2.5 l 3.5,-0.625 v 2.125 l 11.812,-3.5625 0.5,5.1875 -18.812,5.6875 -0.3125,-3.0625 1.3125,-0.5625 c -0.08797,-0.6864 -0.023,-1.4155 0.03347,-2.0625 z"
       fill="url(#r)"
       fill-rule="evenodd"
       opacity="0.426"
       stroke="#ff6600"
       stroke-width="0.35433"
       id="path296" />
    <path
       d="m 35.886,998.84 -0.22097,5.8778 4.2868,-1.1491 0.08839,-3.0052 -1.8562,0.3536 -0.7955,-0.8839 -0.35355,-1.3258 z"
       fill="url(#q)"
       fill-rule="evenodd"
       opacity="0.426"
       stroke="#ff6600"
       stroke-width="0.35433"
       id="path298" />
    <path
       d="m 21.375,1012.7 3.75,-0.375 10.125,-2.25 0.125,-2.375 4.125,-1.25 v 2.75 l 10.125,-2.875 0.625,5.125 -18.875,5.25 -7.375,0.875 z"
       fill="url(#p)"
       fill-rule="evenodd"
       opacity="0.426"
       stroke="#ff8e00"
       stroke-width="0.35433"
       id="path300" />
    <path
       d="m 5.4375,995.55 c -0.84388,-0.34375 -2.078,-0.42791 -2.75,0.1875 -0.97292,0.891 -1.1575,2.4967 -1.0625,3.8125 0.19675,2.7259 2.0033,5.101 3.3125,7.5 1.1598,2.1252 2.2483,4.3912 4,6.0625 1.8587,1.7733 5.8125,3.6875 7.25,4 l 0.1875,-2.125 -1.25,-2.5 c 0,0 -2.4813,-1.1882 -3.375,-2.1875 -2.0496,-2.2918 -3.117,-5.3453 -4.125,-8.25 -0.572,-1.6482 -0.36896,-3.5241 -1.0625,-5.125 -0.27342,-0.63113 -0.48801,-1.1155 -1.125,-1.375 z"
       fill="url(#o)"
       fill-rule="evenodd"
       opacity="0.426"
       stroke="#d45500"
       stroke-width="0.35433"
       id="path302" />
    <path
       d="m 10.43,1002.1 -1.3281,0.3927 0.15625,1.2499 c -0.00884,0.4568 0.30194,0.991 0.60352,1.2735 l 3.7812,3.375 -0.31641,-2.0332 -2.8027,-2.3984 z"
       color="#000000"
       color-rendering="auto"
       fill="#949494"
       fill-rule="evenodd"
       image-rendering="auto"
       shape-rendering="auto"
       solid-color="#000000"
       stroke="#797979"
       stroke-linejoin="round"
       stroke-width="0.70866"
       style="text-indent:0;text-decoration:none;text-decoration-line:none;text-decoration-style:solid;text-decoration-color:#000000;text-transform:none;white-space:normal;isolation:auto;mix-blend-mode:normal"
       id="path304" />
    <path
       transform="translate(0,946.06)"
       d="m 84.949,35.125 c -0.19829,0.01192 -0.34887,0.04042 -0.42383,0.07227 l -76.813,18.279 C 7.655287,53.19979 7.59179,52.91921 7.53834,52.64619 7.461542,51.86004 7.26888,50.47549 6.11064,49.53099 5.60783,49.0813 5.23245,48.67779 3.45834,48.98607 c -3.4157,0.68707 -2.2811,5.4973 -0.95898,8.3086 1.069,2.2731 2.5613,4.9455 3.7012,6.8379 2.4875,4.1296 6.8121,6.9657 11.502,7.8516 0.74173,1.1107 1.5432,2.1857 2.4141,3.2129 1.6022,1.9935 3.6686,4.5239 6.1562,5.9375 6.0124,4.143 13.782,4.2811 20.592,2.5137 11.418,-2.7773 22.625,-6.6752 33.65,-10.768 5.7241,-2.1246 11.4,-4.1064 17.031,-6.4258 2.8038,-1.1547 7.7419,-3.3645 7.6836,-4.9785 -0.10103,-2.7972 -2.4174,-3.4218 -4.6309,-2.7266 v -10.82 c 0.18192,-0.0961 0.79011,-0.30438 1.0156,-0.39258 0.0283,-0.76224 0.13285,-1.7544 0.15235,-2.6074 -0.4627,-0.37696 -0.92777,-0.7478 -1.6035,-1.0586 l 2.7363,-0.77148 c 0.76171,-0.15678 1.2972,-0.50575 0.72656,-1.5059 -0.57067,-1.0001 -2.4111,-0.72306 -2.7168,-0.59375 l -1.3867,0.36719 c 0.09598,-0.27382 0.11263,-0.62696 -0.15625,-0.97656 -0.49235,-0.64014 -1.4953,-0.71007 -2.4258,-0.55273 -0.01964,7.05e-4 -1.4093,0.36617 -1.6504,0.42578 0.02229,-0.01775 0.05609,-0.0345 0.07422,-0.05273 0.12104,-0.12177 0.13996,-0.63749 -0.13867,-1.1621 -0.27863,-0.52461 -1.0177,-0.53193 -1.4551,-0.53711 -0.23264,-0.0027 -0.76774,0.08672 -2.3867,0.45898 0.01608,-0.0172 0.03498,-0.03033 0.05078,-0.05078 0.06461,-0.14372 0.49919,-1.163 -0.12891,-1.6152 -0.7228,-0.70483 -1.706,-0.43463 -2.2461,-0.44141 l -1.7129,0.43164 c 0.43554,-0.47098 0.22038,-1.2052 -0.17773,-1.5684 -0.61194,-0.53366 -1.6258,-0.63733 -2.2207,-0.60157 z m 0.59766,0.70117 c 1.0358,-0.04301 1.6831,0.74969 0.80273,1.084 -24.687,6.0681 -49.213,12.46 -74.111,18.105 -0.95214,0.2159 -2.7812,0.59603 -3.959,0.14453 l -0.20117,-0.94531 77.006,-18.314 c 0.16054,-0.04404 0.31492,-0.06808 0.46289,-0.07422 z m 3.9395,1.6875 c 0.37102,-0.03947 0.7126,-0.0091 0.89258,0.19141 0.43736,0.48735 -0.24815,0.68727 -0.43164,0.79883 l -54.197,13.516 c -0.06108,0.0226 -1.2269,0.08431 -1.5391,-0.33203 -0.30952,-0.41276 0.39671,-0.59074 0.88086,-0.71094 l 53.33,-13.24 c 0.29313,-0.07446 0.69344,-0.18319 1.0645,-0.22266 z m 3.9434,1.5957 c 0.24717,-0.02519 0.50554,-0.0043 0.64258,0.15625 0.21296,0.24952 0.35803,0.49508 -0.25391,0.66211 l -54.465,14.092 c -0.0093,0 -1.1492,0.28324 -1.6328,-0.46484 -0.23061,-0.35669 0.19826,-0.49882 0.29492,-0.57227 0.15191,-0.0404 1.435,-0.37975 1.7109,-0.45312 3.1459,-0.80229 53.127,-13.303 53.127,-13.303 0.09316,-0.0217 0.329,-0.092 0.57617,-0.11719 z m 4.125,1.2656 c 0.29398,-0.0057 0.56004,0.04607 0.67383,0.16797 0.37864,0.40565 0.09638,0.66004 -0.25195,0.75391 -18.436,4.9676 -54.002,14.378 -55.377,14.652 -0.52596,0.1049 -1.7294,0.28235 -1.9785,-0.15625 -0.21054,-0.3707 0.13958,-0.53832 0.26758,-0.66602 l 55.822,-14.574 c 0.22714,-0.10898 0.54977,-0.17201 0.84375,-0.17773 z m 4.4785,1.082 c 0.2051,0.0075 0.40545,0.09868 0.62891,0.33594 0.55761,0.59209 -0.89773,0.72062 -1.0098,0.79297 l -76.301,20.936 c -1.7055,-0.2029 -2.7186,0.24698 -4.0898,0.83398 l -0.55274,-1.2695 c 26.708,-7.0889 54.521,-14.657 80.123,-21.266 0.50437,-0.15589 0.85934,-0.37586 1.2012,-0.36328 z m -1.9648,2.873 0.85156,0.5332 c -0.85603,0.25301 -1.5283,0.47225 -2.2012,0.71289 -0.27751,-0.0885 -0.77213,-0.39972 -1.1504,-0.55273 z m 1.1113,1.0254 -0.0215,1.7695 c -0.59915,0.21833 -1.6672,0.69885 -2.2988,0.80273 L 98.83778,46.078 Z m -4.1738,0.14258 1.0352,0.37695 -0.08594,1.7715 c -0.47165,-0.14461 -0.86248,-0.3003 -1.3223,-0.48633 -0.62349,-0.22679 -1.2565,-0.49955 -1.8711,-0.67773 -0.26564,-0.11123 -0.82146,-0.2369 -0.18945,-0.30078 0.81294,-0.22046 1.624,-0.45125 2.4336,-0.68359 z m -4.8926,0.64062 c 0.6727,0.27771 1.4309,0.59233 1.7461,0.75781 0.23029,0.10437 0.54135,0.1046 0.45312,0.42774 l 0.61523,13.412 c -4.9345,1.7533 -9.8644,3.5253 -14.805,5.2676 -0.15347,-2.989 -0.31088,-6.0774 -0.4668,-9.1738 1.3335,-0.43706 2.6667,-0.87548 3.998,-1.3184 1.2534,-0.4169 2.7386,-1.9522 1.9941,-3.5352 -0.8019,-1.7052 -2.1108,-1.9365 -3.5176,-1.7051 l 0.04102,-1.334 z m 2.9668,1.4297 1.7852,0.79883 0.32422,12.943 c -0.65053,-0.145 -1.1317,-0.38922 -1.3887,-0.45312 z m 4.6777,0.88281 0.15625,12.119 c -0.40197,0.1792 -1.4902,0.58047 -1.8809,0.63867 l -0.3125,-12.518 c 0.58309,0.30443 1.4892,-0.02767 2.0371,-0.24023 z m -18.305,0.83008 -0.10352,3.248 -0.97852,0.29688 0.09961,-1.877 c -0.03832,-0.20138 0.0045,-0.38305 -0.33984,-0.58008 -0.02684,-0.01222 -0.08658,-0.03227 -0.11523,-0.04492 l 0.0098,-0.66406 z m -76.217,0.19922 c 0.1503,0.90208 -2.2401,1.3859 -2.2188,3.8418 0.26306,1.3462 0.64914,3.7615 1.5156,6.5117 -0.76385,-1.2714 -2.1536,-5.6864 -2.2734,-7.6348 -0.082939,-1.3489 0.79954,-2.8137 2.9766,-2.7188 z m 74.08,0.26172 -0.0039,0.31445 c -0.16272,-0.06153 -0.2814,-0.1128 -0.47461,-0.17969 z m -0.70117,0.52539 c 0.3171,0.14174 0.91901,0.33872 1.0176,0.45703 -0.39978,0.0948 -1.7969,0.62211 -2.1953,0.67383 -0.43906,-0.1894 -0.76113,-0.4444 -1.0195,-0.5293 z m 4.6211,0.57617 c 0.76419,-0.09669 1.2125,0.65451 0.82227,0.89844 -0.37683,0.23553 -1.1903,0.55112 -2,0.83789 l 0.04102,-1.3418 c 0.26288,-0.10451 0.52353,-0.2249 0.79297,-0.29688 0.12061,-0.05237 0.23458,-0.08384 0.34374,-0.09766 z m -78.041,0.08008 c 2.2554,1.0772 1.2017,4.5826 2.5234,6.7285 1.268,3.8302 3.5405,7.5582 7.2695,9.3691 0.54744,1.2664 1.1808,2.4902 1.8926,3.6719 -0.99193,-0.23759 -1.9648,-0.55453 -2.9043,-0.98633 -4.0583,-1.8446 -7.3656,-5.3485 -8.4687,-9.7051 -0.65572,-2.5896 -3.1348,-6.9833 -0.3125,-9.0781 z m 74.67,0.17188 -0.02539,1.8926 -0.33008,0.09961 0.0039,0.01367 -1.9297,0.62891 0.01563,-1.9414 z m -4.168,0.17578 1.1504,0.53516 -0.0918,1.8379 -3.916,-1.5664 c 0.92999,-0.24555 1.933,-0.5409 2.8574,-0.80664 z m -42.354,0.13476 c -0.21314,0.56759 -0.34255,1.3854 0.14258,1.8809 0.48664,0.49699 1.4658,0.41557 2.0781,0.31055 l -0.27734,4.7227 -14.906,3.9336 c -0.77525,-2.4495 -1.3153,-5.1469 -3.9336,-6.0469 l -0.74805,-0.0625 c -3.4625,0.6279 -2.7223,4.773 -1.9707,7.3906 0.21299,0.74181 0.46632,1.4666 0.73633,2.1836 -3.2273,-1.8809 -4.8821,-5.2425 -5.9141,-8.7949 l 0.1875,-0.002 c 1.5878,-0.461 3.0767,-0.66836 3.9785,-0.53516 6.9575,-1.6058 13.817,-3.276 20.627,-4.9805 z m 37.727,0.66016 1.7812,0.79883 c -3.526,1.0177 -7.0432,2.0671 -10.561,3.1211 -0.05244,-0.55717 0.03238,-1.2227 0.03675,-1.4514 -0.80763,0.16895 8.7426,-2.4685 8.7425,-2.4685 z m 13.629,0.08789 c 0.81089,0.38126 -0.08209,1.7068 -0.43164,1.9746 -1.2515,0.8543 -3.2578,1.3529 -3.8555,1.5605 -0.26767,0.082 -0.5351,0.16409 -0.80273,0.24609 -0.03248,-0.64872 -0.06637,-1.3008 -0.09766,-1.9355 -0.01181,-0.01319 -0.0253,-0.02325 -0.04492,-0.04102 1.7378,-0.55771 3.6117,-1.2945 5.2324,-1.8047 z m -47.861,1.1426 c -0.02584,0.11214 -0.03227,0.23435 -0.04297,0.35547 -0.12762,-0.08072 -0.2552,-0.16147 -0.38281,-0.24219 z m 37.205,0.10742 c 0.4043,0.20026 1.5508,0.68489 1.9551,0.83789 l 0.91211,14.395 C 76.65515,68.47472 75.6477,68.0716 75.4489,67.8715 Z m -0.625,0.41211 c 0.03108,0.48368 0.07169,0.97063 0.10938,1.457 -3.8016,1.1973 -7.5698,2.3595 -11.324,3.5039 l 0.05273,-1.6641 c 3.7172,-1.1103 7.4355,-2.2198 11.162,-3.2969 z m -37.176,0.32422 c 0.20595,0.13053 0.41124,0.26207 0.61719,0.39258 0.006,0.01996 0.009,0.04086 0.01563,0.06055 0.09887,0.29416 0.30322,0.47459 0.54883,0.5918 l -0.21094,2.627 -1.2031,0.31836 z m 42.672,0.05273 c -0.03801,0.40034 0.60138,13.777 0.60156,13.781 -0.41797,0.1621 -1.4668,0.41993 -1.8848,0.58203 l -1.0195,-14.107 c 0.28977,0.1479 0.6769,0.19004 1.1699,0.08594 0.42819,-0.091 0.97548,-0.32 1.1328,-0.3418 z m -39.295,1.0059 c -0.15126,0.27305 -0.17168,0.60772 -0.02734,0.9707 0.0096,0.02409 0.02727,0.04508 0.03906,0.06836 l -0.08398,0.95898 -1.5117,0.39844 0.16016,-2.2402 c 0.29602,0.01955 0.58654,0.01563 0.80664,0.0039 0.01302,-0.002 0.57201,-0.14956 0.61718,-0.16015 z m 21.979,0.04343 -0.10352,3.5132 -1.375,0.41602 c 0.0071,-0.5066 0.0077,-1.0144 0.05078,-1.5195 l 0.11328,-2.062 z m -3.5789,0.4578 c 0.0014,0.61191 0.02648,0.98032 -0.0012,1.5632 -0.46921,0.14033 -0.93889,0.27996 -1.4082,0.41992 0.0031,-0.10155 -0.02482,-0.21224 -0.27148,-0.44922 -0.27677,-0.26593 -0.87968,-0.4673 -1.3145,-0.64844 z m 15.555,0.19799 c 0.05047,0.61173 0.09986,1.2232 0.1582,1.8379 -6.0118,1.8407 -12.023,3.6709 -18.047,5.4473 l -0.18359,-1.7383 c 5.2102,-1.5914 10.412,-3.2158 15.629,-4.7793 0.79709,-0.25285 1.6171,-0.51049 2.4434,-0.76758 z m -14.071,-0.23759 c -0.0146,0.7461 -0.06098,1.8902 -0.08325,2.636 l -0.04297,0.67188 -0.70898,-0.45117 0.14966,-2.6556 c 0.22852,-0.067 0.45703,-0.13417 0.68554,-0.20117 z m -19.212,1.1477 c 0.09109,0.04395 0.18661,0.08054 0.28906,0.11523 l -0.30664,0.08008 z m 14.316,0.22852 c 0.11722,0.1561 1.0286,0.40224 1.2324,0.55274 -0.63432,0.1655 -1.7583,0.4889 -2.3926,0.6543 -0.16038,-0.097 -0.90038,-0.2763 -1.2441,-0.4707 0.76455,-0.2143 1.6397,-0.52193 2.4043,-0.73633 z m -38.789,0.16211 c 0.55414,0.2096 -0.54621,0.78265 -0.97266,1.627 -0.35618,0.7052 -0.24744,1.8804 0.02539,2.8457 0.75047,2.6553 1.7556,5.4633 2.7188,8.0488 -0.36421,0.2652 -4.3557,-7.0545 -3.6191,-10.883 0.13755,-0.7149 0.99106,-1.7617 1.8477,-1.6387 z m 40.174,0.84961 0.06445,2.0176 -2.4473,0.84766 0.03125,-2.1934 c 0.69171,-0.1626 1.6628,-0.49718 2.3516,-0.67188 z m -4.668,0.02344 1.6582,0.65625 -0.05859,2.1777 c -1.3023,-0.5397 -3.2641,-1.5236 -4.5579,-2.054 0.89062,-0.2377 2.0677,-0.54242 2.9583,-0.78002 z m -34.16,0.20703 c 0.91228,-0.06307 1.0222,0.85811 1.291,1.4766 0.93955,2.1616 1.5501,5.3965 2.6465,7.6719 2.4394,6.5957 8.3897,11.809 15.244,13.324 7.5723,0.9519 14.858,-2.128 22.039,-4.043 15.077,-4.6126 29.813,-10.246 44.512,-15.928 1.08,-0.4351 1.514,0.29097 1.6055,0.57227 0.37326,1.1477 -4.3293,2.8096 -5.5156,3.2617 -6.2162,2.3687 -12.448,4.7717 -18.723,7.084 -10.73,3.9542 -21.582,7.6438 -32.672,10.439 -6.6575,1.7667 -14.288,2.3254 -20.311,-1.627 -4.254,-2.3658 -6.9373,-6.6142 -8.5195,-11.1 -1.3251,-3.0349 -2.5231,-5.7098 -3.043,-8.959 -0.10675,-0.6671 -0.02832,-1.7537 1.002,-2.082 0.16584,-0.05285 0.31303,-0.08279 0.44336,-0.0918 z m 40.801,0.11133 -0.01367,0.29883 c 0.06557,0.1069 0.10461,0.23918 0.1875,0.33008 0.35019,0.22319 0.7006,0.44486 1.0508,0.66797 -0.89156,0.26942 -1.7861,0.54374 -2.6758,0.81055 0.12789,-0.20706 0.10023,-0.49736 0.09375,-0.73242 v -0.9707 c 0.45288,-0.13444 0.90464,-0.26952 1.3574,-0.4043 z m -11.057,0.51589 c 0.92619,0.34349 1.5776,0.64172 2.3172,0.94895 -3.1356,0.9053 -6.2778,1.7836 -9.4316,2.6172 l 0.14453,-1.6367 z m 26.923,-0.18777 c 0.30526,3.0469 0.672,6.111 0.99414,9.1367 -5.9738,2.0696 -11.97,4.0688 -18.014,5.9141 l -1.0098,-9.5117 c 6.0327,-1.7698 12.042,-3.6219 18.029,-5.5391 z m 28.459,0.51367 c 0.30423,0.0046 0.53693,0.0825 0.68164,0.25586 0.3135,0.37554 -1.1316,0.97622 -2.5059,1.4629 0.19659,-0.40401 0.15021,-0.88537 0.13868,-1.3496 0.67192,-0.22331 1.2582,-0.37565 1.6855,-0.36914 z m -52.061,1.4316 1.7637,0.76758 c 0.52074,4.855 1.146,10.168 1.623,15.027 -0.22779,-0.1451 -1.2157,-0.50371 -1.5918,-0.66211 -0.52717,-4.6629 -1.3001,-10.059 -1.9043,-15.102 0.03643,-0.01053 0.07295,-0.02072 0.10938,-0.03125 z m -0.93164,0.26563 0.21875,1.6504 c -3.153,0.92699 -6.3,1.8418 -9.4434,2.7422 -0.1782,0.05105 -0.36398,0.10465 -0.54297,0.15625 l 0.16602,-1.8848 c 3.2111,-0.84872 6.41,-1.7461 9.6016,-2.6641 z m -10.088,0.11133 -0.39648,4.5059 -1.3633,0.33008 0.31445,-4.4277 z m 15.539,0.24805 c 0.08136,0.6588 0.12268,1.0234 0.28906,2.5176 0.25619,2.3006 0.96172,7.375 1.4492,12.035 -0.80937,0.278 -1.5612,0.57147 -2.1758,0.76367 -0.52229,-4.8098 -1.2006,-10.176 -1.6777,-14.99 0.23277,0.1337 0.30267,0.11279 0.66992,0.21289 0.2116,-0.063 1.1477,-0.45136 1.4453,-0.53906 z m 40.729,0.25586 c 0.53255,0.22553 1.1574,0.38886 1.6914,0.56445 -13.323,5.0855 -26.722,10.224 -40.428,14.242 0.14469,-0.23706 0.37186,-0.45464 0.26367,-0.75 l -0.08789,-0.82422 c 6.3459,-1.9914 12.664,-4.0963 18.488,-6.0918 0.01131,0.0041 0.01946,0.01205 0.03125,0.01563 l 1.8105,0.76953 c 0.8626,-0.2999 2.0276,-0.65285 3,-1.0312 -0.02226,-0.43654 -0.04733,-0.95173 -0.07031,-1.4004 5.943,-2.0704 11.448,-4.1123 15.301,-5.4941 z m -58.578,0.14648 -0.30664,3.7539 -0.9375,-1.2402 0.12891,-2.1992 z m -1.8359,0.51758 c -0.03009,0.49849 -0.05699,0.99625 -0.08203,1.4941 -3.4458,0.85039 -6.9064,1.6378 -10.393,2.3281 -0.93141,0.163 -1.8691,0.21699 -2.8086,0.23242 -0.09745,-0.2751 -0.19501,-0.54957 -0.28125,-0.82812 l 0.12305,-0.05664 c 1.2713,-0.5279 2.5512,-0.71635 3.9551,-0.50195 l 1.2227,-0.33984 z m 14.539,1.0156 0.2207,1.6641 c -7.0202,2.0203 -14.067,3.9532 -21.17,5.7227 -1.4436,0.23336 -2.9332,0.41558 -4.4297,0.52539 -0.4323,-0.64627 -0.83008,-1.3149 -1.1914,-2.0039 3.3971,0.08685 6.8809,-0.58589 10.113,-1.3809 2.0346,-0.50042 4.06,-1.0309 6.082,-1.5762 l 0.002,-0.002 c 3.4711,-0.93596 6.9269,-1.9247 10.373,-2.9492 z m -14.445,1.5039 c 0.10865,0.14322 0.23318,0.27754 0.32812,0.42773 0.30662,0.40486 0.6133,0.80991 0.91992,1.2148 -4.451,1.2565 -9.069,2.3748 -13.658,2.2012 -0.20515,-0.41994 -0.39434,-0.8474 -0.57227,-1.2793 4.4005,-0.1888 8.6959,-1.5197 12.982,-2.5645 z m 14.807,1.2129 1.2598,9.4844 c -2.8396,0.81396 -5.6921,1.5905 -8.5586,2.3164 -3.1468,0.8253 -6.4346,1.0646 -9.4629,0.83008 -3.3037,-1.3154 -6.1118,-3.5919 -8.2402,-6.4004 6.4247,-0.49948 12.594,-2.8123 18.787,-4.5 2.0747,-0.56539 4.1458,-1.1438 6.2148,-1.7305 z m 1.6152,10.465 c 0.10653,0.1065 0.23014,0.19162 0.39453,0.22266 0.49596,0.2054 0.99232,0.40994 1.4883,0.61524 0.04312,-0.0077 0.08713,0.01039 0.13086,0.02539 -2.3569,0.65743 -4.7223,1.2843 -7.0996,1.8633 -3.3518,0.7781 -7.1642,1.2714 -10.395,0.34961 5.3286,0 10.424,-1.5297 15.48,-3.0762 z"
       color="#000000"
       color-rendering="auto"
       fill="#4f2500"
       fill-rule="evenodd"
       image-rendering="auto"
       shape-rendering="auto"
       solid-color="#000000"
       style="text-indent:0;text-decoration:none;text-decoration-line:none;text-decoration-style:solid;text-decoration-color:#000000;text-transform:none;white-space:normal;isolation:auto;mix-blend-mode:normal"
       id="path306" />
    <path
       transform="translate(0,946.06)"
       d="m 7.125,66.799 c -0.375,0.25 -2.4375,1.8125 -2.4375,1.8125 l 6.875,15.062 c 1.2274,2.6892 2.8483,4.1874 4.4375,5.1875 0,0 4.7807,3.3791 7.5,4.25 2.0471,0.6556 4.2926,0.515 6.4375,0.375 2.7725,-0.181 6.9555,1.467 9.5133,0.38204 1.0323,-0.4379 1.6653,-1.6531 2.75,-1.9375 3.2584,-0.8543 6.6634,-2.417 9.9375,-4 1.2365,-0.5978 2.5104,-1.1258 3.8125,-1.5625 2.1655,-0.7263 4.3886,-1.2859 6.625,-1.75 2.8474,-0.591 5.7169,-1.3228 8.625,-1.3125 2.9113,0.01 5.8186,0.6004 8.625,1.375 1.7304,0.4776 3.278,1.4931 5,2 3.6648,1.0788 7.4437,2.5139 11.25,2.1875 1.1103,-0.095 2.4626,-0.2914 3.125,-1.1875 0.75705,-1.0241 0.87022,-2.7002 0.25,-3.8125 -0.93042,-1.6687 -3.2533,-2.0734 -5.0625,-2.6875 -2.6206,-0.8894 -5.4357,-1.0816 -8.1875,-1.375 -3.1522,-0.336 -6.332,-0.5514 -9.5,-0.4375 -3.1867,0.1145 -6.3706,0.5123 -9.5,1.125 -2.0783,0.4069 -4.0968,1.0783 -6.125,1.6875 -2.7069,0.8131 -5.396,1.6878 -8.0625,2.625 -2.8364,0.9969 -5.6594,2.038 -8.4375,3.1875 -1.4992,0.6203 -0.30004,1.0388 -4.4375,2 -4.117,0.9565 -8.0622,-0.17034 -12.576,-0.75704 -2.6741,-0.3476 -3.5715,-0.9617 -4.4375,-1.875 -1.1393,-1.2015 -2.6506,-2.7059 -2.25,-4.3125 0.04647,-0.1864 0.40176,-0.1863 0.4375,-0.375 0.21504,-1.1355 -1.6875,-2.75 -1.625,-3.0625 0.0625,-0.3125 -0.125,-2.6875 -0.125,-2.6875 -0.3375,-1.2417 -0.43843,-0.5908 -0.625,-0.625 l -2.5625,1.625 c 0,0 0.29554,1.8696 0.625,2.75 0.78729,2.1038 1.6696,4.2816 3.1875,5.9375 0.92539,1.0095 2.0724,1.801 3.25,2.5 1.1381,0.6756 3.6875,1.625 3.6875,1.625 0,0 -3.4883,-0.093 -5.125,-0.625 C 20.5719,89.6469 19.4003,88.6047 18.0623,87.9235 16.916,87.3399 15.9858,87.0621 14.9998,86.236 14.02514,85.4194 13.1767,84.2565 12.6248,83.111 12.2099,82.2499 11.87936,81.3252 11.5623,80.4235 11.10672,79.1278 10.3871,77.9287 9.9998,76.611 9.45022,74.741 9.51551,72.7224 8.9373,70.861 8.49741,69.4449 7.1248,66.7985 7.1248,66.7985 Z m 74.011,14.736 c 1.7764,-0.05855 6.4484,0.33213 8.9395,1.1465 1.1667,0.3563 2.3333,0.6732 3.5,1.1875 1.5549,0.5076 5.049,1.201 4.4375,1.75 -1.375,0.6695 -2.75,0.7037 -4.125,0.375 -2.1398,-0.07 -6.8556,-1.2725 -7.6875,-1.25 -1.0309,0.028 -5.8411,-2.9232 -5.6875,-3 -0.23926,-0.12042 0.03091,-0.18947 0.62305,-0.20898 z"
       fill="#380000"
       fill-rule="evenodd"
       id="path308" />
    <path
       d="m 4.25,1006.3 c -0.19037,2.8279 -0.12888,5.3543 1,7.6874 0,0 1.1845,-0.5729 1.0625,-0.7187 -0.91969,-1.0984 -1.0263,-5.8069 -1.125,-5.5625 z"
       fill="#595959"
       fill-rule="evenodd"
       stroke="#000000"
       stroke-width="0.70866"
       id="path310" />
    <path
       d="m 16.225,1015.8 c -0.19037,2.8279 -0.12888,5.3543 1,7.6874 0,0 1.1845,-0.5729 1.0625,-0.7187 -0.91969,-1.0984 -1.0263,-5.8069 -1.125,-5.5625 z"
       fill="#7e7e7e"
       fill-rule="evenodd"
       stroke="#000000"
       stroke-width="0.70866"
       id="path312" />
    <path
       d="m 77.428,1026.4 c 0.08839,-0.3535 4.0089,-0.2831 6.0104,-0.1768 3.2663,0.1735 6.5859,0.399 9.7227,1.3259 2.0603,0.6088 4.8944,0.8078 5.8336,2.74 0.34368,0.7071 0.22906,2.0947 -0.53033,2.2981 -1.6371,0.4385 -3.2755,0.2971 -4.6846,0.1768 -2.7702,-0.2366 -5.1223,-0.7684 -7.7782,-1.591 -1.889,-0.5851 -3.651,-1.5365 -5.3917,-2.4749 -0.73398,-0.3957 -1.3356,-1.0466 -2.1213,-1.3258 -2.0144,-0.7159 -4.2283,-0.8914 -6.364,-0.7955 -4.8494,0.2177 -9.6038,1.6245 -14.231,3.0936 -4.1397,1.3144 -7.6184,2.6796 -12.816,4.5962 -0.76459,0.2819 -1.2229,1.0781 -1.8562,1.591 -0.97998,0.7937 -1.8909,1.7076 -3.0052,2.2981 -0.90557,0.4799 -1.8944,0.9009 -2.9168,0.9722 -1.9427,0.1354 -3.8286,-0.7156 -5.7452,-1.0606 -1.6781,-0.3021 -3.3507,-0.6393 -5.0381,-0.8839 -1.7903,-0.2595 -3.7161,0.063 -5.3917,-0.6187 -1.0699,-0.4354 -1.3516,-0.929 -2.2981,-1.591 -1.5406,-1.0776 -3.8797,-1.8631 -5.1265,-3.2703 -1.5557,-1.7559 -2.1458,-4.4832 -3.0936,-6.6292 -0.43767,-0.991 -0.98322,-1.9521 -1.2374,-3.0052 -0.33301,-1.3795 -0.00552,-2.8668 -0.35355,-4.2426 -0.37858,-1.4965 -1.8562,-4.2427 -1.8562,-4.2427"
       fill="none"
       stroke="#9a5126"
       stroke-width="0.35433"
       id="path314" />
    <path
       d="m 19.092,1023.2 c 0,0 -0.3009,1.8206 0,2.6517 0.31334,0.8655 1.5529,1.2263 1.7678,2.1213 0.15519,0.6464 -0.52532,1.2851 -0.44194,1.9446 0.14546,1.1504 0.86731,2.1876 1.591,3.0936 0.74394,0.9314 1.6595,1.7947 2.74,2.298 2.0066,0.9346 4.3441,0.8755 6.5407,1.1491 2.3747,0.2958 4.7818,0.8013 7.1595,0.5303 1.7777,-0.2026 5.1265,-1.591 5.1265,-1.591"
       fill="none"
       stroke="#ae6e48"
       stroke-width="0.35433"
       id="path316" />
  </g>
</svg>
