<?xml version="1.0" encoding="UTF-8" standalone="no"?>
<svg
   enable-background="new"
   viewBox="0 0 472.44095 332.59843"
   version="1.1"
   id="svg875"
   sodipodi:docname="football-156645.svg"
   width="125mm"
   height="88mm"
   inkscape:version="1.2.2 (732a01da63, 2022-12-09)"
   xmlns:inkscape="http://www.inkscape.org/namespaces/inkscape"
   xmlns:sodipodi="http://sodipodi.sourceforge.net/DTD/sodipodi-0.dtd"
   xmlns:xlink="http://www.w3.org/1999/xlink"
   xmlns="http://www.w3.org/2000/svg"
   xmlns:svg="http://www.w3.org/2000/svg">
  <sodipodi:namedview
     id="namedview877"
     pagecolor="#505050"
     bordercolor="#eeeeee"
     borderopacity="1"
     inkscape:showpageshadow="0"
     inkscape:pageopacity="0"
     inkscape:pagecheckerboard="0"
     inkscape:deskcolor="#505050"
     showgrid="false"
     inkscape:zoom="1.7911111"
     inkscape:cx="130.92432"
     inkscape:cy="180.61414"
     inkscape:current-layer="svg875"
     inkscape:document-units="mm" />
  <defs
     id="defs5">
    <filter
       id="a"
       x="0"
       y="0"
       width="1"
       height="1">
      <feBlend
         in2="BackgroundImage"
         mode="multiply"
         id="feBlend2" />
    </filter>
    <linearGradient
       id="f"
       x1="364.97239"
       x2="379.89402"
       y1="531.36655"
       y2="444.61944"
       gradientTransform="matrix(0.70670991,0,0,0.40860668,97.591352,-191.91051)"
       gradientUnits="userSpaceOnUse">
      <stop
         stop-color="#333"
         offset="0"
         id="stop1165" />
      <stop
         stop-opacity="0"
         offset="1"
         id="stop1167" />
    </linearGradient>
    <linearGradient
       id="e"
       x1="446.64139"
       x2="322.32616"
       y1="503.17156"
       y2="463.36444"
       xlink:href="#a-5"
       gradientTransform="matrix(0.48996106,0,0,0.589366,97.591352,-191.91051)"
       gradientUnits="userSpaceOnUse" />
    <linearGradient
       id="a-5">
      <stop
         offset="0"
         id="stop1160" />
      <stop
         stop-opacity="0"
         offset="1"
         id="stop1162" />
    </linearGradient>
    <linearGradient
       id="d"
       x1="556.89771"
       x2="684.48078"
       y1="561.01985"
       y2="581.44672"
       xlink:href="#a-5"
       gradientTransform="matrix(0.50113896,0,0,0.57622016,97.591352,-191.91051)"
       gradientUnits="userSpaceOnUse" />
    <radialGradient
       id="c"
       cx="478.60999"
       cy="550.28998"
       r="225.06"
       gradientUnits="userSpaceOnUse"
       gradientTransform="matrix(0.53736988,0,0,0.53736988,97.591352,-191.91051)">
      <stop
         stop-color="#fff"
         offset="0"
         id="stop1172" />
      <stop
         stop-color="#fff"
         offset=".4702"
         id="stop1174" />
      <stop
         stop-color="#d6d6d6"
         offset="1"
         id="stop1176" />
    </radialGradient>
    <radialGradient
       id="b"
       cx="477.48999"
       cy="544.29999"
       r="206.09"
       gradientUnits="userSpaceOnUse"
       gradientTransform="matrix(0.53736988,0,0,0.53736988,97.591352,-191.91051)">
      <stop
         stop-color="#6a6a6a"
         offset="0"
         id="stop1179" />
      <stop
         offset="1"
         id="stop1181" />
    </radialGradient>
  </defs>
  <g
     filter="url(#a)"
     id="g21"
     transform="matrix(0,-0.82267428,0.82267428,0,5.3812874,329.60757)">
    <path
       d="M 0,0 H 318 V 450 H 0 Z"
       fill="#58b133"
       id="path7" />
    <path
       d="m 33.047,49.497 h 251.91 V 84.726 H 33.047 Z"
       fill="#75bf22"
       id="path9" />
    <path
       d="m 33.047,119.4 h 251.91 v 35.229 H 33.047 Z"
       fill="#75bf22"
       id="path11" />
    <path
       d="m 33.047,189.3 h 251.91 v 35.229 H 33.047 Z"
       fill="#75bf22"
       id="path13" />
    <path
       d="m 33.047,259.21 h 251.91 v 35.229 H 33.047 Z"
       fill="#75bf22"
       id="path15" />
    <path
       d="m 33.047,329.11 h 251.91 v 35.229 H 33.047 Z"
       fill="#75bf22"
       id="path17" />
    <path
       d="m 33.047,399.01 h 251.91 v 35.229 H 33.047 Z"
       fill="#75bf22"
       id="path19" />
  </g>
  <path
     d="m 356.28378,302.17616 c -0.42178,-3.8214 2.22863,-7.30164 6.02469,-7.911 M 356.28378,95.177986 c -0.42178,3.821408 2.22863,7.301644 6.02469,7.910994 M 24.970889,302.17616 c 0.421777,-3.8214 -2.228624,-7.30164 -6.02469,-7.911 m 6.02469,-199.087174 c 0.421777,3.821408 -2.228624,7.301644 -6.02469,7.910994 m 287.195581,73.4714 c -12.27594,4.12637 -18.88284,17.42342 -14.7563,29.69937 2.34166,6.9664 7.81392,12.43225 14.78345,14.76535 m 56.57943,29.54882 H 306.64937 V 147.01568 h 56.09899 m 0,82.11359 h -28.77468 v -60.66483 h 28.77468 m -288.010037,8.10022 c 12.275946,4.12637 18.882843,17.42342 14.756309,29.69936 -2.34166,6.96641 -7.813925,12.43226 -14.783457,14.76536 M 18.131751,250.5782 H 74.230733 V 147.01996 H 18.131751 m 0,82.11359 H 46.90643 V 168.46872 H 18.131751 M 190.47378,156.49223 c 23.36642,0 42.30932,18.94207 42.30932,42.30931 0,23.36724 -18.94208,42.30932 -42.30932,42.30932 -23.36724,0 -42.30932,-18.94208 -42.30932,-42.30932 0,-23.36724 18.94208,-42.30931 42.30932,-42.30931 z m 0,145.14442 V 95.968082 M 17.827362,302.99407 V 94.610669 H 363.1202 V 302.99407 Z"
     fill="none"
     stroke="#ffffff"
     stroke-dashoffset="1.86"
     stroke-linecap="square"
     stroke-width="1.72762"
     id="path23" />
  <path
     d="m 466.83968,125.97602 c 0,66.76821 -54.18837,120.95121 -120.95121,120.95121 -66.76283,0 -120.95121,-54.18838 -120.95121,-120.95121 0,-66.762832 54.18838,-120.9512061 120.95121,-120.9512061 66.76284,0 120.95121,54.1883741 120.95121,120.9512061 z"
     fill="url(#b)"
     fill-rule="evenodd"
     id="path1186"
     style="fill:url(#b);stroke-width:0.53737" />
  <path
     d="m 345.88309,5.0248139 c -26.3999,0 -50.82229,8.4823831 -70.7125,22.8548721 -8.66025,10.47334 -14.72715,20.95743 -14.72715,20.95743 l -11.0494,4.231785 c -15.34675,20.278191 -24.45033,45.541023 -24.45033,72.915719 0,2.55686 0.0785,5.08953 0.2351,7.60701 2.74907,4.91139 4.80273,8.04388 4.80273,8.04388 l -1.41059,13.80397 c 7.89988,31.53286 28.18774,58.16491 55.38134,74.42572 1.94302,1.25654 3.56604,2.01718 5.34909,3.02582 -0.94604,-0.8937 -1.23745,-1.13277 -1.85618,-1.69916 -7.11854,-7.36304 -13.11505,-15.9701 -13.11505,-15.9701 l 17.21249,-15.83575 c 10e-6,0 11.06659,8.36416 23.49328,12.69537 12.42668,4.3312 26.21343,4.63476 26.21343,4.63476 l 8.53075,21.89782 c 0,0 -7.53822,3.86611 -18.23725,5.76007 -1.91583,0.33913 -3.94054,0.61496 -5.96159,0.83963 6.6032,1.11843 13.38212,1.71287 20.30237,1.71287 27.96635,0 53.73162,-9.50284 74.22153,-25.45789 6.41082,-8.58986 10.61305,-15.9701 10.61305,-15.9701 l 9.33681,-3.66083 c 16.56873,-20.53989 26.56542,-46.60018 26.76747,-74.97922 -3.29091,-9.75757 -6.88478,-15.48271 -6.88478,-15.48271 0,0 0.9174,-8.91066 -0.37112,-18.726249 -0.2022,-1.540107 0.83266,-0.991989 2.07818,-1.828245 -0.36942,-1.394369 -1.71153,-5.538137 -2.38862,-7.516732 -2.66551,-7.789715 -5.28739,-11.506161 -7.00945,-14.951781 3.35496,1.874131 -0.0132,-0.01014 -0.0167,-0.01673 C 431.74002,30.632526 391.78119,5.0284636 345.87906,5.0284636 Z m 14.62668,4.6012227 c 10.05096,0.13745 20.53774,3.3921494 20.53774,3.3921494 0,0 11.9151,4.578717 20.42005,11.049399 8.50496,6.470689 13.60191,14.828184 13.60191,14.828184 l -21.62914,14.945332 c 0,-1.8e-5 -11.64265,-7.975644 -23.81194,-12.275673 -12.16927,-4.300038 -24.87001,-4.920266 -24.87001,-4.920266 l -6.12924,-22.317513 c 0,0 9.27661,-4.3582254 19.88269,-4.6852184 0.6629,-0.02046 1.32826,-0.02592 1.99837,-0.01673 z M 289.82951,69.376197 c 7.42645,0.03416 13.6019,0.923632 13.6019,0.923632 l 11.18375,47.523911 -35.90276,34.19016 c 0,0 -11.21115,-7.11316 -19.29481,-14.07264 -8.08365,-6.95948 -13.04788,-13.7701 -13.04788,-13.7701 0,0 1.45939,-13.78569 4.7524,-25.642746 3.293,-11.857077 8.43026,-21.780149 8.43026,-21.780149 0,0 8.87681,-5.108613 19.84936,-6.71712 3.42891,-0.502674 7.05245,-0.670423 10.4282,-0.654948 z m 116.3567,33.938133 c 0,0 10.12297,4.43507 18.28723,10.96556 8.16426,6.5305 14.37465,15.16405 14.37465,15.16405 0,0 -0.57913,11.82267 -4.48371,24.11447 -3.90459,12.2918 -11.13377,25.05487 -11.13377,25.05487 0,0 -10.09073,3.70291 -20.73925,4.70199 -10.64852,0.99907 -21.86451,-0.7053 -21.86451,-0.7053 l -5.55855,-23.25791 -5.72621,-23.91295 c 0,0 7.59948,-9.16324 16.80946,-17.19584 9.20998,-8.03261 20.03369,-14.92868 20.03369,-14.92868 z"
     fill="url(#c)"
     fill-rule="evenodd"
     id="path1188"
     style="fill:url(#c);stroke-width:0.53737" />
  <path
     d="m 437.94531,129.8021 c 0,0 -0.56882,11.52281 -4.37226,23.49649 -3.80345,11.97368 -10.84144,24.39821 -10.84144,24.39821 0,0 -9.83225,3.61338 -20.20511,4.58661 -10.37284,0.97323 -21.28629,-0.69375 -21.28629,-0.69375 l -5.42099,-22.65014 -5.57306,-23.28584 c 0,0 7.40065,-8.93754 16.37258,-16.76219 8.97193,-7.82463 19.51459,-14.53585 19.51459,-14.53585 0,0 9.85912,4.32691 17.8122,10.68829 7.95307,6.36138 14.0001,14.75779 14.0001,14.75779 z"
     fill="none"
     stroke="url(#d)"
     stroke-linejoin="round"
     stroke-width="2.61726"
     id="path1190"
     style="stroke:url(#d)" />
  <path
     d="m 278.75485,150.96372 c 0,0 -10.92849,-6.9353 -18.80849,-13.71906 -7.87998,-6.78375 -12.71148,-13.41704 -12.71148,-13.41704 0,0 1.41694,-13.4321 4.62692,-24.990386 3.20997,-11.558291 8.21316,-21.242232 8.21316,-21.242232 0,0 8.65058,-4.973357 19.34693,-6.541404 10.69635,-1.568048 23.43738,0.269403 23.43738,0.269403 l 10.89733,46.327199 -35.00159,33.31424 z"
     fill="none"
     stroke="url(#e)"
     stroke-linejoin="round"
     stroke-width="2.61914"
     id="path1192"
     style="stroke:url(#e)" />
  <path
     d="m 380.53808,15.293951 c 0,0 10.45937,4.028285 17.92988,9.711882 7.47052,5.683606 11.95111,13.023165 11.95111,13.023165 l -18.99979,13.128478 c 0,0 -10.22668,-7.01482 -20.91604,-10.791456 -10.68937,-3.776636 -25.63953,-5.264832 -25.63953,-5.264832 l -5.00797,-19.798316 c 0,0 10.42229,-3.637461 19.73813,-3.924627 9.31585,-0.287176 20.94453,3.915706 20.94453,3.915706 z"
     fill="none"
     stroke="url(#f)"
     stroke-width="2.69534"
     id="path1194"
     style="stroke:url(#f)" />
  <path
     d="m 302.87201,70.943976 c 0,0 19.44581,-25.837281 42.14968,-34.569544"
     fill="none"
     stroke="#666666"
     id="path1196"
     style="stroke-width:0.53737" />
  <path
     d="m 394.63867,53.183898 c 0,0 14.50092,23.067137 12.62012,49.398262"
     fill="none"
     stroke="#ececec"
     stroke-width="1.61211"
     id="path1198" />
  <path
     d="m 393.34361,53.457957 c 0,0 14.81851,23.846324 12.93771,50.177453"
     fill="none"
     stroke="#666666"
     id="path1200"
     style="stroke-width:0.53737" />
  <path
     d="m 413.45736,38.755519 c 0,0 32.12559,12.681928 46.23154,52.850329"
     fill="none"
     stroke="#666666"
     id="path1202"
     style="stroke-width:0.53737" />
  <path
     d="m 439.04691,129.37757 c 0,0 11.30842,-0.87849 21.18796,-17.59725"
     fill="none"
     stroke="#666666"
     id="path1204"
     style="stroke-width:0.53737" />
  <path
     d="m 430.97024,205.3778 c 0,0 1.56955,-9.74198 -7.80314,-27.38061"
     fill="none"
     stroke="#666666"
     id="path1206"
     style="stroke-width:0.53737" />
  <path
     d="m 341.37994,216.99036 c 0,0 17.38391,-4.60725 39.42253,-35.00535"
     fill="none"
     stroke="#666666"
     id="path1208"
     style="stroke-width:0.53737" />
  <path
     d="m 278.58826,151.58707 c 0,0 -1.04496,27.07323 12.44442,48.352"
     fill="none"
     stroke="#666666"
     id="path1210"
     style="stroke-width:0.53737" />
  <path
     d="m 274.32155,215.36213 c 0,0 -3.99244,0.0497 -19.10081,-9.05898"
     fill="none"
     stroke="#666666"
     id="path1212"
     style="stroke-width:0.53737" />
  <path
     d="m 246.62013,124.13821 c 0,0 -10.82747,4.54798 -16.65954,17.14801"
     fill="none"
     stroke="#666666"
     id="path1214"
     style="stroke-width:0.53737" />
  <path
     d="m 260.25321,48.96555 c 0,0 -3.88605,14.999063 -0.5094,27.600922"
     fill="none"
     stroke="#666666"
     id="path1216"
     style="stroke-width:0.53737" />
  <path
     d="m 273.2683,29.808311 c 0,0 32.27122,-27.3494377 65.13998,-15.190374"
     fill="none"
     stroke="#666666"
     id="path1218"
     style="stroke-width:0.53737" />
  <path
     d="m 349.69842,238.64099 c 0,0 28.15066,7.22816 71.57229,-18.39578"
     fill="none"
     stroke="#666666"
     id="path1220"
     style="stroke-width:0.53737" />
  <path
     d="m 302.97411,69.009447 c 0,0 16.16999,-22.269147 39.94861,-32.949378"
     fill="none"
     stroke="#f2f2f2"
     stroke-linecap="square"
     stroke-width="1.61211"
     id="path1222" />
  <path
     d="m 341.82058,217.92538 c 0,0 16.56281,-3.19525 38.60197,-33.59368"
     fill="none"
     stroke="#ffffff"
     stroke-width="1.61211"
     id="path1224" />
  <path
     d="m 277.49741,152.18892 c 0,0 -1.04498,27.08129 12.44441,48.36007"
     fill="none"
     stroke="#ffffff"
     stroke-width="1.61211"
     id="path1226" />
  <path
     d="m 314.87685,117.91547 c 0,0 14.15432,3.32482 54.4302,17.57414"
     fill="none"
     stroke="#999999"
     id="path1228"
     style="stroke-width:0.53737" />
  <path
     d="m 314.87685,117.22764 c 0,0 14.15432,3.32482 54.4302,17.57414"
     fill="none"
     stroke="#ececec"
     id="path1230"
     style="stroke-width:0.53737" />
</svg>
