<?xml version="1.0" encoding="UTF-8" standalone="no"?>
<svg
   xmlns:dc="http://purl.org/dc/elements/1.1/"
   xmlns:cc="http://creativecommons.org/ns#"
   xmlns:rdf="http://www.w3.org/1999/02/22-rdf-syntax-ns#"
   xmlns:svg="http://www.w3.org/2000/svg"
   xmlns="http://www.w3.org/2000/svg"
   xmlns:xlink="http://www.w3.org/1999/xlink"
   xmlns:sodipodi="http://sodipodi.sourceforge.net/DTD/sodipodi-0.dtd"
   xmlns:inkscape="http://www.inkscape.org/namespaces/inkscape"
   viewBox="0 0 323.19024 323.19023"
   version="1.1"
   id="svg74"
   sodipodi:docname="soccer_ball.svg"
   width="85.51075mm"
   height="85.51075mm"
   inkscape:version="1.0.2-2 (e86c870879, 2021-01-15)">
  <metadata
     id="metadata78">
    <rdf:RDF>
      <cc:Work
         rdf:about="">
        <dc:format>image/svg+xml</dc:format>
        <dc:type
           rdf:resource="http://purl.org/dc/dcmitype/StillImage" />
        <dc:title />
      </cc:Work>
    </rdf:RDF>
  </metadata>
  <sodipodi:namedview
     pagecolor="#ffffff"
     bordercolor="#666666"
     borderopacity="1"
     objecttolerance="10"
     gridtolerance="10"
     guidetolerance="10"
     inkscape:pageopacity="0"
     inkscape:pageshadow="2"
     inkscape:window-width="1920"
     inkscape:window-height="1017"
     id="namedview76"
     showgrid="false"
     units="mm"
     inkscape:zoom="1.2443908"
     inkscape:cx="153.78503"
     inkscape:cy="140.2261"
     inkscape:window-x="-8"
     inkscape:window-y="-8"
     inkscape:window-maximized="1"
     inkscape:current-layer="svg74"
     inkscape:document-rotation="0" />
  <defs
     id="defs26">
    <linearGradient
       id="a">
      <stop
         offset="0"
         id="stop2" />
      <stop
         stop-opacity="0"
         offset="1"
         id="stop4" />
    </linearGradient>
    <linearGradient
       id="f"
       x1="364.97238"
       x2="379.89401"
       y1="531.36658"
       y2="444.61945"
       gradientTransform="matrix(0.94418957,0,0,0.54591306,-170.13867,-263.11258)"
       gradientUnits="userSpaceOnUse">
      <stop
         stop-color="#333"
         offset="0"
         id="stop7" />
      <stop
         stop-opacity="0"
         offset="1"
         id="stop9" />
    </linearGradient>
    <linearGradient
       id="e"
       x1="446.64139"
       x2="322.32617"
       y1="503.17157"
       y2="463.36444"
       xlink:href="#a"
       gradientTransform="matrix(0.6546054,0,0,0.78741394,-170.13867,-263.11258)"
       gradientUnits="userSpaceOnUse" />
    <linearGradient
       id="d"
       x1="556.89771"
       x2="684.48077"
       y1="561.01984"
       y2="581.44672"
       xlink:href="#a"
       gradientTransform="matrix(0.66953948,0,0,0.76985063,-170.13867,-263.11258)"
       gradientUnits="userSpaceOnUse" />
    <radialGradient
       id="c"
       cx="478.60999"
       cy="550.28998"
       r="225.06"
       gradientUnits="userSpaceOnUse"
       gradientTransform="matrix(0.71794527,0,0,0.71794527,-170.13867,-263.11258)">
      <stop
         stop-color="#fff"
         offset="0"
         id="stop14" />
      <stop
         stop-color="#fff"
         offset=".4702"
         id="stop16" />
      <stop
         stop-color="#d6d6d6"
         offset="1"
         id="stop18" />
    </radialGradient>
    <radialGradient
       id="b"
       cx="477.48999"
       cy="544.29999"
       r="206.09"
       gradientUnits="userSpaceOnUse"
       gradientTransform="matrix(0.71794527,0,0,0.71794527,-170.13867,-263.11258)">
      <stop
         stop-color="#6a6a6a"
         offset="0"
         id="stop21" />
      <stop
         offset="1"
         id="stop23" />
    </radialGradient>
  </defs>
  <path
     d="m 323.19024,161.59512 c 0,89.2047 -72.3976,161.59512 -161.59512,161.59512 C 72.397601,323.19024 0,250.79264 0,161.59512 0,72.397603 72.397601,0 161.59512,0 250.79264,0 323.19024,72.397603 323.19024,161.59512 Z"
     fill="url(#b)"
     fill-rule="evenodd"
     id="path28"
     style="fill:url(#b);stroke-width:0.717945" />
  <path
     d="M 161.58794,0 C 126.31673,0 93.68755,11.332766 67.113524,30.534933 55.543118,44.527683 47.437516,58.534793 47.437516,58.534793 l -14.762391,5.65382 C 12.171326,91.280993 0.0086153,125.03304 0.0086153,161.60661 c 0,3.41605 0.1049133,6.7998 0.3141011,10.16323 3.6728644,6.56181 6.4166362,10.74692 6.4166362,10.74692 l -1.8846067,18.44258 c 10.5545131,42.12903 37.6598191,77.7104 73.9914391,99.43542 2.595947,1.67877 4.764357,2.69503 7.146571,4.04261 -1.263942,-1.19402 -1.653284,-1.51343 -2.479926,-2.27014 -9.510621,-9.83729 -17.522173,-21.33662 -17.522173,-21.33662 l 22.996505,-21.15713 c 2.2e-5,0 14.785368,11.17482 31.387848,16.96146 16.60249,5.78664 35.02209,6.1922 35.02209,6.1922 l 11.39738,29.25627 c 0,0 -10.07134,5.16526 -24.36563,7.69566 -2.55961,0.45309 -5.26469,0.82162 -7.96488,1.12179 8.82211,1.49426 17.87899,2.28845 27.12469,2.28845 37.36403,0 71.78735,-12.69614 99.1626,-34.01266 8.56509,-11.47635 14.17942,-21.33661 14.17942,-21.33661 l 12.4743,-4.89101 c 22.13641,-27.44202 35.49234,-62.25949 35.76229,-100.1749 -4.39677,-13.03645 -9.19832,-20.68544 -9.19832,-20.68544 0,0 1.22568,-11.90497 -0.49582,-25.01895 -0.27015,-2.05764 1.11246,-1.32533 2.77651,-2.4426 -0.49354,-1.86292 -2.28665,-7.39914 -3.19126,-10.04262 -3.56123,-10.407327 -7.06415,-15.372637 -9.36488,-19.976107 4.48235,2.50391 -0.0176,-0.0136 -0.0224,-0.0224 C 276.29585,34.212823 222.90944,0.004882 161.58255,0.004882 Z m 19.54175,6.147406 c 13.42845,0.183629 27.43915,4.53203 27.43915,4.53203 0,0 15.919,6.117324 27.28192,14.762391 11.36292,8.645066 18.17264,19.810976 18.17264,19.810976 l -28.8973,19.9675 c 0,-2e-5 -15.555,-10.65575 -31.81359,-16.40074 -16.25859,-5.745 -33.22723,-6.57365 -33.22723,-6.57365 L 151.8964,12.428925 c 0,0 12.39389,-5.822752 26.56397,-6.259621 0.88566,-0.02728 1.77462,-0.03468 2.6699,-0.0224 z M 86.698353,85.975743 c 9.922001,0.0456 18.172627,1.234 18.172627,1.234 l 14.94188,63.493647 -47.967359,45.67927 c 0,0 -14.978492,-9.50344 -25.778543,-18.80155 -10.80005,-9.29811 -17.432429,-18.39735 -17.432429,-18.39735 0,0 1.949796,-18.41817 6.349365,-34.25963 4.399568,-15.84146 11.263125,-29.099037 11.263125,-29.099037 0,0 11.859738,-6.8253 26.519462,-8.97432 4.581137,-0.67159 9.422314,-0.89571 13.932446,-0.87503 z M 242.15504,131.31829 c 0,0 13.52466,5.92542 24.4324,14.65039 10.90774,8.72498 19.20503,20.2597 19.20503,20.2597 0,0 -0.77373,15.79551 -5.99039,32.2178 -5.21666,16.42228 -14.87511,33.47419 -14.87511,33.47419 0,0 -13.48157,4.94722 -27.70838,6.28202 -14.2268,1.33481 -29.21175,-0.9423 -29.21175,-0.9423 l -7.42643,-31.07339 -7.65042,-31.94856 c 0,0 10.15318,-12.24241 22.45804,-22.97425 12.30487,-10.73185 26.76572,-19.94524 26.76572,-19.94524 z"
     fill="url(#c)"
     fill-rule="evenodd"
     id="path30"
     style="fill:url(#c);stroke-width:0.717945" />
  <path
     d="m 284.58633,166.70689 c 0,0 -0.75995,15.3949 -5.84149,31.39216 -5.08155,15.99726 -14.48455,32.59687 -14.48455,32.59687 0,0 -13.13624,4.82761 -26.99474,6.12788 -13.8585,1.30027 -28.43925,-0.92687 -28.43925,-0.92687 l -7.24263,-30.26139 -7.44581,-31.11073 c 0,0 9.88754,-11.94086 21.87435,-22.39486 11.98682,-10.454 26.07219,-19.42042 26.07219,-19.42042 0,0 13.17214,5.78089 23.79773,14.27993 10.62559,8.49903 18.70463,19.71693 18.70463,19.71693 z"
     fill="none"
     stroke="url(#d)"
     stroke-linejoin="round"
     stroke-width="3.49675"
     id="path32"
     style="stroke:url(#d)" />
  <path
     d="m 71.902219,194.97958 c 0,0 -14.600853,-9.26581 -25.128803,-18.32915 -10.527949,-9.06334 -16.982995,-17.92565 -16.982995,-17.92565 0,0 1.893078,-17.94576 6.181724,-33.38805 4.288646,-15.44228 10.973076,-28.380377 10.973076,-28.380377 0,0 11.557483,-6.64458 25.848183,-8.73955 14.290701,-2.09496 31.313186,0.35994 31.313186,0.35994 l 14.55921,61.894777 -46.763366,44.50902 z"
     fill="none"
     stroke="url(#e)"
     stroke-linejoin="round"
     stroke-width="3.49927"
     id="path34"
     style="stroke:url(#e)" />
  <path
     d="m 207.88823,13.719934 c 0,0 13.97409,5.381933 23.95496,12.975425 9.98088,7.593494 15.96711,17.399404 15.96711,17.399404 l -25.38439,17.54012 c 0,0 -13.66322,-9.37206 -27.94459,-14.41778 -14.28136,-5.04572 -34.25532,-7.03399 -34.25532,-7.03399 l -6.69082,-26.451261 c 0,0 13.92455,-4.859772 26.37085,-5.243441 12.4463,-0.38367 27.98263,5.231523 27.98263,5.231523 z"
     fill="none"
     stroke="url(#f)"
     stroke-width="3.60107"
     id="path36"
     style="stroke:url(#f)" />
  <path
     d="m 104.1236,88.070343 c 0,0 25.98029,-34.51952 56.31348,-46.18613"
     fill="none"
     stroke="#666666"
     id="path38"
     style="stroke-width:0.717945" />
  <path
     d="m 226.72712,64.342253 c 0,0 19.37375,30.81852 16.86094,65.997837"
     fill="none"
     stroke="#ececec"
     stroke-width="2.15384"
     id="path40" />
  <path
     d="m 224.99687,64.708403 c 0,0 19.79806,31.85955 17.28525,67.038857"
     fill="none"
     stroke="#666666"
     id="path42"
     style="stroke-width:0.717945" />
  <path
     d="m 251.86956,45.065423 c 0,0 42.92092,16.94351 61.76698,70.609917"
     fill="none"
     stroke="#666666"
     id="path44"
     style="stroke-width:0.717945" />
  <path
     d="m 286.05811,166.13971 c 0,0 15.10844,-1.17369 28.30787,-23.51055"
     fill="none"
     stroke="#666666"
     id="path46"
     style="stroke-width:0.717945" />
  <path
     d="m 275.2674,267.67871 c 0,0 2.09697,-13.01563 -10.42529,-36.58146"
     fill="none"
     stroke="#666666"
     id="path48"
     style="stroke-width:0.717945" />
  <path
     d="m 155.57156,283.19351 c 0,0 23.22553,-6.15545 52.6699,-46.76839"
     fill="none"
     stroke="#666666"
     id="path50"
     style="stroke-width:0.717945" />
  <path
     d="m 71.679656,195.81239 c 0,0 -1.396117,36.1708 16.626176,64.6"
     fill="none"
     stroke="#666666"
     id="path52"
     style="stroke-width:0.717945" />
  <path
     d="m 65.97917,281.01814 c 0,0 -5.334046,0.0663 -25.519364,-12.10312"
     fill="none"
     stroke="#666666"
     id="path54"
     style="stroke-width:0.717945" />
  <path
     d="m 28.969092,159.13975 c 0,0 -14.46588,6.07626 -22.2577394,22.91035"
     fill="none"
     stroke="#666666"
     id="path56"
     style="stroke-width:0.717945" />
  <path
     d="m 47.183363,58.706383 c 0,0 -5.191893,20.03929 -0.680569,36.87583"
     fill="none"
     stroke="#666666"
     id="path58"
     style="stroke-width:0.717945" />
  <path
     d="m 64.571998,33.111633 c 0,0 43.115482,-36.539822 87.029322,-20.294874"
     fill="none"
     stroke="#666666"
     id="path60"
     style="stroke-width:0.717945" />
  <path
     d="m 166.68535,312.11953 c 0,0 37.61028,9.65708 95.62313,-24.57742"
     fill="none"
     stroke="#666666"
     id="path62"
     style="stroke-width:0.717945" />
  <path
     d="m 104.26001,85.485743 c 0,0 21.60369,-29.75237 53.37277,-44.02153"
     fill="none"
     stroke="#f2f2f2"
     stroke-linecap="square"
     stroke-width="2.15384"
     id="path64" />
  <path
     d="m 156.16028,284.44274 c 0,0 22.1285,-4.26898 51.57359,-44.88235"
     fill="none"
     stroke="#ffffff"
     stroke-width="2.15384"
     id="path66" />
  <path
     d="m 70.222227,196.61649 c 0,0 -1.396117,36.18157 16.626176,64.61077"
     fill="none"
     stroke="#ffffff"
     stroke-width="2.15384"
     id="path68" />
  <path
     d="m 120.1625,150.82594 c 0,0 18.91068,4.44207 72.72068,23.47968"
     fill="none"
     stroke="#999999"
     id="path70"
     style="stroke-width:0.717945" />
  <path
     d="m 120.1625,149.90697 c 0,0 18.91068,4.44207 72.72068,23.47968"
     fill="none"
     stroke="#ececec"
     id="path72"
     style="stroke-width:0.717945" />
</svg>
