<?xml version="1.0" encoding="UTF-8" standalone="no"?>
<svg
   xmlns:dc="http://purl.org/dc/elements/1.1/"
   xmlns:cc="http://creativecommons.org/ns#"
   xmlns:rdf="http://www.w3.org/1999/02/22-rdf-syntax-ns#"
   xmlns:svg="http://www.w3.org/2000/svg"
   xmlns="http://www.w3.org/2000/svg"
   xmlns:xlink="http://www.w3.org/1999/xlink"
   xmlns:sodipodi="http://sodipodi.sourceforge.net/DTD/sodipodi-0.dtd"
   xmlns:inkscape="http://www.inkscape.org/namespaces/inkscape"
   enable-background="new 0 0 248 109.45"
   version="1.1"
   viewBox="0 0 466.98953 206.03427"
   id="svg471"
   sodipodi:docname="sofa.svg"
   width="123.55765mm"
   height="54.513233mm"
   inkscape:version="1.0.2-2 (e86c870879, 2021-01-15)">
  <metadata
     id="metadata477">
    <rdf:RDF>
      <cc:Work
         rdf:about="">
        <dc:format>image/svg+xml</dc:format>
        <dc:type
           rdf:resource="http://purl.org/dc/dcmitype/StillImage" />
        <dc:title />
      </cc:Work>
    </rdf:RDF>
  </metadata>
  <defs
     id="defs475">
    <radialGradient
       inkscape:collect="always"
       xlink:href="#a"
       id="radialGradient1035"
       gradientUnits="userSpaceOnUse"
       gradientTransform="matrix(1,0,0,-0.5095,0,-6.416)"
       cx="12.15"
       cy="-4.25"
       r="12.488" />
    <radialGradient
       inkscape:collect="always"
       xlink:href="#a"
       id="radialGradient1037"
       gradientUnits="userSpaceOnUse"
       gradientTransform="matrix(1,0,0,-0.5095,0,-6.416)"
       cx="12.15"
       cy="-4.25"
       r="12.488" />
  </defs>
  <sodipodi:namedview
     pagecolor="#ffffff"
     bordercolor="#666666"
     borderopacity="1"
     objecttolerance="10"
     gridtolerance="10"
     guidetolerance="10"
     inkscape:pageopacity="0"
     inkscape:pageshadow="2"
     inkscape:window-width="1920"
     inkscape:window-height="1017"
     id="namedview473"
     showgrid="false"
     units="mm"
     inkscape:zoom="1.0504032"
     inkscape:cx="116.05084"
     inkscape:cy="8.1094643"
     inkscape:window-x="-8"
     inkscape:window-y="-8"
     inkscape:window-maximized="1"
     inkscape:current-layer="svg471"
     inkscape:document-rotation="0" />
  <symbol
     id="aq"
     viewBox="0 -42.55 36.451 42.508"
     transform="translate(-3.7955639,-57.150328)">
    <g
       clip-rule="evenodd"
       fill="#91a5c1"
       fill-rule="evenodd"
       id="g26">
      <path
         d="m 20.95,-4.6 c 0.933,-1.633 1.417,-3.4 1.45,-5.3 0.067,-3.167 -1.033,-5.9 -3.3,-8.2 -2.233,-2.3 -4.95,-3.467 -8.15,-3.5 -1.833,-0.033 -3.567,0.35 -5.2,1.15 -1.567,0.767 -2.9,1.833 -4,3.2 l 2.15,3.15 c 0.733,-1.233 1.733,-2.217 3,-2.95 1.3,-0.733 2.717,-1.083 4.25,-1.05 2.267,0.033 4.2,0.867 5.8,2.5 1.6,1.633 2.383,3.583 2.35,5.85 -0.033,2.267 -0.883,4.183 -2.55,5.75 -1.633,1.6 -3.583,2.383 -5.85,2.35 -0.733,0 -1.617,-0.15 -2.65,-0.45 0.333,0.6 0.75,1 1.25,1.2 2.167,1.033 4.783,1.133 7.85,0.3 1.533,-1.033 2.733,-2.367 3.6,-4 z"
         id="path2" />
      <path
         d="m 11.05,-4.15 c 1.733,0 3.217,-0.617 4.45,-1.85 1.233,-1.2 1.85,-2.65 1.85,-4.35 0,-1.733 -0.617,-3.2 -1.85,-4.4 -1.233,-1.233 -2.717,-1.85 -4.45,-1.85 -1.4,0 -2.65,0.417 -3.75,1.25 -1.1,0.8 -1.85,1.85 -2.25,3.15 0.333,0.6 0.65,1.25 0.95,1.95 0.733,2.067 1.15,3.683 1.25,4.85 1.1,0.833 2.367,1.25 3.8,1.25 z m 4.6,-6.1 c 0,1.233 -0.433,2.283 -1.3,3.15 -0.867,0.867 -1.917,1.3 -3.15,1.3 -1.233,0 -2.3,-0.433 -3.2,-1.3 -0.867,-0.867 -1.3,-1.917 -1.3,-3.15 0,-1.233 0.433,-2.283 1.3,-3.15 0.9,-0.867 1.967,-1.3 3.2,-1.3 1.233,0 2.283,0.434 3.15,1.3 0.867,0.866 1.3,1.917 1.3,3.15 z"
         id="path4" />
      <path
         d="m 11.05,-7.05 c 0.833,0 1.55,-0.333 2.15,-1 0.6,-0.667 0.9,-1.483 0.9,-2.45 0,-0.967 -0.3,-1.783 -0.9,-2.45 -0.6,-0.667 -1.317,-1 -2.15,-1 -0.833,0 -1.533,0.333 -2.1,1 -0.6,0.667 -0.9,1.483 -0.9,2.45 0,0.933 0.3,1.75 0.9,2.45 0.567,0.667 1.267,1 2.1,1 z m 1.6,-5.15 c 0.4,0.5 0.6,1.1 0.6,1.8 0,0.667 -0.2,1.25 -0.6,1.75 -0.433,0.467 -0.95,0.7 -1.55,0.7 -0.567,0 -1.067,-0.233 -1.5,-0.7 -0.434,-0.5 -0.65,-1.083 -0.65,-1.75 0,-0.7 0.216,-1.3 0.65,-1.8 0.433,-0.466 0.933,-0.7 1.5,-0.7 0.6,0 1.117,0.233 1.55,0.7 z"
         id="path6" />
      <path
         d="m 15.45,-32.75 c -1.467,1.367 -3.217,2.033 -5.25,2 -1.9,-0.033 -3.534,-0.7 -4.9,-2 -1.367,-1.267 -2.133,-2.833 -2.3,-4.7 l -3,0.9 c 0.4,2.4 1.533,4.417 3.4,6.05 1.867,1.6 4.05,2.433 6.55,2.5 2.867,0.033 5.316,-0.933 7.35,-2.9 2.034,-1.934 3.067,-4.317 3.1,-7.15 0,-1.6 -0.333,-3.1 -1,-4.5 l -2.9,0.7 c 0.767,1.167 1.15,2.483 1.15,3.95 -0.033,2.033 -0.767,3.75 -2.2,5.15 z"
         id="path8" />
      <path
         d="m 10.35,-32.95 c 1.533,0 2.85,-0.533 3.95,-1.6 1.067,-1.067 1.6,-2.367 1.6,-3.9 0,-1.167 -0.3,-2.167 -0.9,-3 L 13.4,-41 c 0.7,0.767 1.05,1.65 1.05,2.65 0,1.1 -0.383,2.033 -1.15,2.8 -0.8,0.767 -1.75,1.15 -2.85,1.15 -1.067,0 -2,-0.383 -2.8,-1.15 -0.767,-0.767 -1.15,-1.7 -1.15,-2.8 l 0.05,-0.35 -1.7,0.65 c 0.1,1.433 0.683,2.633 1.75,3.6 1.067,1 2.317,1.5 3.75,1.5 z"
         id="path10" />
      <path
         d="m 10.4,-35.1 c 0.833,0 1.533,-0.333 2.1,-1 0.6,-0.7 0.9,-1.517 0.9,-2.45 0,-0.867 -0.233,-1.617 -0.7,-2.25 l -1,0.3 c 0.6,0.5 0.9,1.167 0.9,2 0,0.667 -0.2,1.25 -0.6,1.75 -0.433,0.467 -0.95,0.7 -1.55,0.7 -0.6,0 -1.1,-0.233 -1.5,-0.7 -0.434,-0.5 -0.65,-1.083 -0.65,-1.75 0,-0.367 0.05,-0.667 0.15,-0.9 l -1,0.35 -0.05,0.5 c 0,0.933 0.3,1.75 0.9,2.45 0.567,0.667 1.267,1 2.1,1 z"
         id="path12" />
      <path
         d="m 33.05,-24.1 c -0.7,0.267 -1.883,0.383 -3.55,0.35 -1.367,-0.033 -2.517,-0.533 -3.45,-1.5 -0.966,-0.933 -1.433,-2.067 -1.4,-3.4 0.033,-1.333 0.533,-2.483 1.5,-3.45 0.967,-0.933 2.133,-1.383 3.5,-1.35 1.267,0.034 2.434,0.85 3.5,2.45 1,1.5 1.483,2.983 1.45,4.45 -0.033,1.233 -0.55,2.05 -1.55,2.45 z M 24.5,-24 c 1.333,1.333 2.933,2.033 4.8,2.1 4.733,0.066 7.117,-1.517 7.15,-4.75 0.033,-1.967 -0.633,-3.9 -2,-5.8 -1.467,-2.033 -3.1,-3.066 -4.9,-3.1 -1.9,-0.034 -3.533,0.6 -4.9,1.9 -1.333,1.333 -2.017,2.933 -2.05,4.8 -0.033,1.867 0.6,3.483 1.9,4.85 z"
         id="path14" />
      <path
         d="m 32.3,-25.3 c 0.767,-0.2 1.15,-0.75 1.15,-1.65 0,-1.1 -0.383,-2.283 -1.15,-3.55 -0.833,-1.367 -1.733,-2.05 -2.7,-2.05 -1.033,0 -1.9,0.35 -2.6,1.05 -0.733,0.733 -1.1,1.6 -1.1,2.6 0,1.033 0.367,1.9 1.1,2.6 0.7,0.733 1.567,1.1 2.6,1.1 1.533,0 2.433,-0.033 2.7,-0.1 z m -0.85,-5.35 c 0.466,0.467 0.75,1.083 0.85,1.85 0.167,1.167 -0.05,1.917 -0.65,2.25 -0.333,0.233 -1,0.35 -2,0.35 -0.733,0 -1.35,-0.25 -1.85,-0.75 -0.533,-0.5 -0.8,-1.117 -0.8,-1.85 0,-0.733 0.267,-1.35 0.8,-1.85 0.5,-0.533 1.117,-0.8 1.85,-0.8 0.7,0 1.3,0.267 1.8,0.8 z"
         id="path16" />
      <path
         d="m 31,-27.35 c 0.4,-0.433 0.6,-0.967 0.6,-1.6 0,-0.633 -0.2,-1.183 -0.6,-1.65 -0.367,-0.433 -0.833,-0.65 -1.4,-0.65 -0.567,0 -1.033,0.217 -1.4,0.65 -0.4,0.467 -0.6,1.017 -0.6,1.65 0,0.633 0.2,1.167 0.6,1.6 0.4,0.467 0.867,0.7 1.4,0.7 0.533,0 1,-0.233 1.4,-0.7 z m -0.3,-2.75 c 0.267,0.333 0.4,0.733 0.4,1.2 0,0.467 -0.133,0.85 -0.4,1.15 -0.3,0.333 -0.65,0.5 -1.05,0.5 -0.4,0 -0.733,-0.167 -1,-0.5 -0.3,-0.3 -0.45,-0.683 -0.45,-1.15 0,-0.467 0.15,-0.867 0.45,-1.2 0.267,-0.3 0.6,-0.45 1,-0.45 0.4,0 0.75,0.15 1.05,0.45 z"
         id="path18" />
      <path
         d="m 27.25,-12.85 c -0.6,-0.6 -0.9,-1.333 -0.9,-2.2 0.033,-0.867 0.35,-1.6 0.95,-2.2 0.633,-0.6 1.383,-0.9 2.25,-0.9 0.867,0.033 1.617,0.35 2.25,0.95 0.6,0.633 0.883,1.383 0.85,2.25 -0.033,0.867 -0.35,1.6 -0.95,2.2 -0.633,0.6 -1.383,0.883 -2.25,0.85 -0.867,0 -1.6,-0.317 -2.2,-0.95 z m -1,0.8 c 0.867,0.867 1.9,1.3 3.1,1.3 1.233,0.033 2.283,-0.367 3.15,-1.2 0.867,-0.833 1.3,-1.867 1.3,-3.1 0.034,-1.2 -0.383,-2.233 -1.25,-3.1 -0.833,-0.867 -1.85,-1.3 -3.05,-1.3 -1.233,-0.033 -2.283,0.367 -3.15,1.2 -0.867,0.833 -1.317,1.867 -1.35,3.1 0,1.2 0.417,2.233 1.25,3.1 z"
         id="path20" />
      <path
         d="m 29.55,-17.55 c -0.667,0 -1.233,0.233 -1.7,0.7 -0.467,0.434 -0.7,0.983 -0.7,1.65 0,0.667 0.233,1.217 0.7,1.65 0.467,0.466 1.033,0.7 1.7,0.7 0.667,0 1.217,-0.233 1.65,-0.7 0.466,-0.467 0.7,-1.017 0.7,-1.65 0,-0.667 -0.233,-1.216 -0.7,-1.65 -0.433,-0.467 -0.983,-0.7 -1.65,-0.7 z m 0,4.1 c -0.466,0 -0.867,-0.167 -1.2,-0.5 -0.333,-0.333 -0.5,-0.733 -0.5,-1.2 0,-0.467 0.167,-0.867 0.5,-1.2 0.333,-0.333 0.733,-0.5 1.2,-0.5 0.467,0 0.867,0.167 1.2,0.5 0.333,0.333 0.5,0.733 0.5,1.2 0,0.467 -0.167,0.867 -0.5,1.2 -0.333,0.333 -0.733,0.5 -1.2,0.5 z"
         id="path22" />
      <path
         d="m 28.25,-15.25 c 0,0.4 0.133,0.75 0.4,1.05 0.267,0.3 0.567,0.45 0.9,0.45 0.367,0 0.667,-0.15 0.9,-0.45 0.267,-0.3 0.4,-0.65 0.4,-1.05 0,-0.4 -0.133,-0.75 -0.4,-1.05 -0.233,-0.3 -0.534,-0.45 -0.9,-0.45 -0.333,0 -0.633,0.15 -0.9,0.45 -0.267,0.3 -0.4,0.65 -0.4,1.05 z m 1.95,0.8 c -0.167,0.2 -0.383,0.3 -0.65,0.3 -0.233,0 -0.45,-0.1 -0.65,-0.3 -0.167,-0.233 -0.25,-0.483 -0.25,-0.75 0,-0.3 0.083,-0.566 0.25,-0.8 0.2,-0.2 0.417,-0.3 0.65,-0.3 0.267,0 0.483,0.1 0.65,0.3 0.2,0.233 0.3,0.5 0.3,0.8 0,0.267 -0.1,0.517 -0.3,0.75 z"
         id="path24" />
    </g>
  </symbol>
  <symbol
     id="ar"
     viewBox="0 -29.9 29.1 29.9"
     transform="translate(-3.7955639,-57.150328)">
    <g
       clip-rule="evenodd"
       fill="#91a5c1"
       fill-rule="evenodd"
       id="g57">
      <path
         d="m 9.05,-24.1 c 0,-0.633 -0.216,-1.167 -0.65,-1.6 -0.433,-0.466 -0.967,-0.7 -1.6,-0.7 -0.6,0 -1.117,0.233 -1.55,0.7 -0.433,0.434 -0.65,0.967 -0.65,1.6 0,0.633 0.217,1.167 0.65,1.6 0.433,0.433 0.95,0.65 1.55,0.65 0.633,0 1.167,-0.217 1.6,-0.65 0.433,-0.433 0.65,-0.967 0.65,-1.6 z"
         id="path29" />
      <path
         d="m 15.95,-12.35 c 0,-0.633 -0.217,-1.167 -0.65,-1.6 -0.433,-0.433 -0.966,-0.65 -1.6,-0.65 -0.6,0 -1.117,0.217 -1.55,0.65 -0.433,0.434 -0.65,0.967 -0.65,1.6 0,0.633 0.217,1.167 0.65,1.6 0.434,0.433 0.95,0.65 1.55,0.65 0.633,0 1.167,-0.217 1.6,-0.65 0.433,-0.433 0.65,-0.967 0.65,-1.6 z"
         id="path31" />
      <path
         d="m 24.35,-20.35 c 0,-0.633 -0.217,-1.167 -0.65,-1.6 -0.434,-0.433 -0.967,-0.65 -1.6,-0.65 -0.6,0 -1.117,0.217 -1.55,0.65 -0.433,0.434 -0.65,0.967 -0.65,1.6 0,0.633 0.217,1.167 0.65,1.6 0.434,0.433 0.95,0.65 1.55,0.65 0.633,0 1.167,-0.217 1.6,-0.65 0.433,-0.433 0.65,-0.967 0.65,-1.6 z"
         id="path33" />
      <path
         d="m 25.85,-27 -0.05,-0.45 c -1.767,-1.333 -3.3,-2.15 -4.6,-2.45 -0.833,0.6 -1.25,1.417 -1.25,2.45 0,0.8 0.3,1.467 0.9,2 0.533,0.5 1.217,0.833 2.05,1 1.267,0.233 2.117,0.083 2.55,-0.45 0.267,-0.367 0.4,-1.067 0.4,-2.1 z"
         id="path35" />
      <path
         d="m 14.1,-7.35 c 0,-0.533 -0.167,-0.967 -0.5,-1.3 -0.367,-0.367 -0.8,-0.55 -1.3,-0.55 -0.5,0 -0.917,0.184 -1.25,0.55 -0.367,0.333 -0.55,0.767 -0.55,1.3 0,0.5 0.183,0.917 0.55,1.25 0.333,0.367 0.75,0.55 1.25,0.55 0.5,0 0.934,-0.184 1.3,-0.55 0.333,-0.333 0.5,-0.75 0.5,-1.25 z"
         id="path37" />
      <path
         d="m 5,-18.85 c 0,-0.7 -0.233,-1.3 -0.7,-1.8 -0.5,-0.5 -1.1,-0.75 -1.8,-0.75 -0.7,0 -1.283,0.25 -1.75,0.75 -0.5,0.5 -0.75,1.1 -0.75,1.8 0,0.7 0.25,1.3 0.75,1.8 0.467,0.5 1.05,0.75 1.75,0.75 0.7,0 1.3,-0.25 1.8,-0.75 0.467,-0.5 0.7,-1.1 0.7,-1.8 z"
         id="path39" />
      <path
         d="m 29.1,-16.4 c 0,-0.733 -0.25,-1.333 -0.75,-1.8 -0.467,-0.5 -1.05,-0.75 -1.75,-0.75 -0.7,0 -1.283,0.25 -1.75,0.75 -0.5,0.467 -0.75,1.067 -0.75,1.8 0,0.7 0.25,1.283 0.75,1.75 0.467,0.5 1.05,0.75 1.75,0.75 h 1.75 c 0.5,-0.233 0.75,-1.067 0.75,-2.5 z"
         id="path41" />
      <path
         d="m 17.4,-0.25 c 0,-0.633 -0.433,-1.133 -1.3,-1.5 -0.733,-0.267 -1.533,-0.4 -2.4,-0.4 -0.633,0 -1.017,0.133 -1.15,0.4 -0.1,0.2 -0.15,0.7 -0.15,1.5 0.933,0.167 1.817,0.25 2.65,0.25 0.567,0 1.35,-0.067 2.35,-0.2 z"
         id="path43" />
      <path
         d="m 8,-16.4 c 0,-0.467 -0.167,-0.867 -0.5,-1.2 -0.3,-0.3 -0.683,-0.45 -1.15,-0.45 -0.467,0 -0.85,0.15 -1.15,0.45 -0.3,0.333 -0.45,0.733 -0.45,1.2 0,0.433 0.15,0.816 0.45,1.15 0.333,0.3 0.716,0.45 1.15,0.45 0.467,0 0.85,-0.15 1.15,-0.45 0.333,-0.333 0.5,-0.717 0.5,-1.15 z"
         id="path45" />
      <path
         d="m 8.85,-8.9 c 0,-0.467 -0.15,-0.85 -0.45,-1.15 -0.3,-0.3 -0.683,-0.45 -1.15,-0.45 -0.433,0 -0.817,0.15 -1.15,0.45 -0.3,0.3 -0.45,0.683 -0.45,1.15 0,0.467 0.15,0.867 0.45,1.2 0.3,0.3 0.683,0.45 1.15,0.45 0.467,0 0.85,-0.15 1.15,-0.45 0.3,-0.333 0.45,-0.733 0.45,-1.2 z"
         id="path47" />
      <path
         d="m 18.2,-27.3 c 0,-0.467 -0.167,-0.85 -0.5,-1.15 -0.3,-0.333 -0.684,-0.5 -1.15,-0.5 -0.433,0 -0.8,0.167 -1.1,0.5 -0.333,0.333 -0.5,0.717 -0.5,1.15 0,0.433 0.167,0.816 0.5,1.15 0.3,0.333 0.667,0.5 1.1,0.5 0.467,0 0.85,-0.167 1.15,-0.5 0.333,-0.333 0.5,-0.717 0.5,-1.15 z"
         id="path49" />
      <path
         d="m 17.5,-22.45 c 0,-0.433 -0.167,-0.816 -0.5,-1.15 -0.3,-0.333 -0.667,-0.5 -1.1,-0.5 -0.433,0 -0.816,0.167 -1.15,0.5 -0.333,0.3 -0.5,0.684 -0.5,1.15 0,0.434 0.167,0.817 0.5,1.15 0.333,0.333 0.717,0.5 1.15,0.5 0.434,0 0.8,-0.167 1.1,-0.5 0.333,-0.333 0.5,-0.717 0.5,-1.15 z"
         id="path51" />
      <path
         d="m 22.25,-10.4 c 0,-0.467 -0.15,-0.85 -0.45,-1.15 -0.333,-0.333 -0.716,-0.5 -1.15,-0.5 -0.433,0 -0.816,0.167 -1.15,0.5 -0.333,0.3 -0.5,0.683 -0.5,1.15 0,0.433 0.167,0.816 0.5,1.15 0.333,0.334 0.717,0.5 1.15,0.5 0.434,0 0.817,-0.167 1.15,-0.5 0.3,-0.3 0.45,-0.683 0.45,-1.15 z"
         id="path53" />
      <path
         d="m 24.45,-4.2 c 0,-0.433 -0.284,-0.8 -0.85,-1.1 -0.5,-0.267 -1,-0.4 -1.5,-0.4 -0.434,0 -0.8,0.167 -1.1,0.5 -0.333,0.333 -0.5,0.717 -0.5,1.15 0,0.433 0.167,0.816 0.5,1.15 0.3,0.333 0.667,0.5 1.1,0.5 0.467,0 0.967,-0.184 1.5,-0.55 0.567,-0.4 0.85,-0.817 0.85,-1.25 z"
         id="path55" />
    </g>
  </symbol>
  <symbol
     id="as"
     viewBox="0 -8.5 24.55 8.5"
     transform="translate(-3.7955639,-57.150328)">
    <radialGradient
       id="a"
       cx="12.15"
       cy="-4.25"
       r="12.488"
       gradientTransform="matrix(1,0,0,-0.5095,0,-6.416)"
       gradientUnits="userSpaceOnUse">
      <stop
         stop-color="#231F20"
         offset="0"
         id="stop60" />
      <stop
         stop-color="#231F20"
         stop-opacity="0"
         offset="1"
         id="stop62" />
    </radialGradient>
    <polygon
       points="24.55,0 24.55,-8.5 0,-8.5 0,0 "
       clip-rule="evenodd"
       fill="url(#a)"
       fill-rule="evenodd"
       id="polygon65"
       style="fill:url(#radialGradient1035)" />
  </symbol>
  <symbol
     id="at"
     viewBox="-0.011 -18.4 36.572 18.401"
     transform="translate(-3.7955639,-57.150328)">
    <radialGradient
       id="aj"
       cx="3110.8999"
       cy="2226.3"
       r="21.058001"
       gradientTransform="matrix(0.9416,0.3366,0.0689,-0.1995,-3064.6,-612.37)"
       gradientUnits="userSpaceOnUse">
      <stop
         stop-color="#231F20"
         offset="0"
         id="stop68" />
      <stop
         stop-color="#231F20"
         stop-opacity="0"
         offset="1"
         id="stop70" />
    </radialGradient>
    <path
       d="m 36.4,-2.7 c 0.633,-1.8 -0.6,-3.966 -3.7,-6.5 -3.1,-2.566 -7.15,-4.733 -12.15,-6.5 -5,-1.8 -9.5,-2.7 -13.5,-2.7 -3.966,0.033 -6.267,0.95 -6.9,2.75 -0.633,1.8 0.6,3.967 3.7,6.5 3.1,2.567 7.15,4.733 12.15,6.5 5,1.8 9.5,2.683 13.5,2.65 3.967,0 6.267,-0.9 6.9,-2.7 z"
       clip-rule="evenodd"
       fill="url(#aj)"
       fill-rule="evenodd"
       id="path73"
       style="fill:url(#aj)" />
  </symbol>
  <symbol
     id="au"
     viewBox="0 -8.5 24.55 8.5"
     transform="translate(-3.7955639,-57.150328)">
    <polygon
       points="24.55,0 24.55,-8.5 0,-8.5 0,0 "
       clip-rule="evenodd"
       fill="url(#a)"
       fill-rule="evenodd"
       id="polygon76"
       style="fill:url(#radialGradient1037)" />
  </symbol>
  <symbol
     id="av"
     viewBox="0 -30.15 15.3 30.15"
     transform="translate(-3.7955639,-57.150328)">
    <path
       d="M 0,-0.4 2.1,0 5.45,-1.55 c 2,-4.867 3.767,-8.967 5.3,-12.3 1.5,-3.333 3.017,-8.217 4.55,-14.65 l -3.15,-1.65 C 11.717,-25.183 10.733,-20.133 9.2,-15 8.266,-11.8 6.916,-8.783 5.15,-5.95 4.283,-4.55 3.5,-3.467 2.8,-2.7 Z"
       clip-rule="evenodd"
       fill="#91a5c1"
       fill-rule="evenodd"
       id="path79" />
  </symbol>
  <symbol
     id="aw"
     viewBox="0 -6.702 16.219 6.682"
     transform="translate(-3.7955639,-57.150328)">
    <path
       d="m 15.75,-3.5 c 0.5,-0.7 0.6,-1.267 0.3,-1.7 C 15.417,-6.166 14.7,-6.666 13.9,-6.7 13.033,-6.733 11.967,-6.233 10.7,-5.2 9.633,-4.367 7.65,-3.633 4.75,-3 2.95,-2.567 1.367,-2.283 0,-2.15 l 0.1,0.2 c 0.833,0.733 1.983,1.333 3.45,1.8 1.767,0.3 3.783,0.083 6.05,-0.65 1.567,-0.5 3.617,-1.4 6.15,-2.7 z"
       clip-rule="evenodd"
       fill="#e5cdac"
       fill-rule="evenodd"
       id="path82" />
  </symbol>
  <symbol
     id="ax"
     viewBox="0 -38.4 229.25 38.4"
     transform="translate(-3.7955639,-57.150328)">
    <radialGradient
       id="ak"
       cx="113.5"
       cy="-19.200001"
       r="116.7"
       gradientTransform="matrix(1,0,0,-0.2459,0,-23.922)"
       gradientUnits="userSpaceOnUse">
      <stop
         stop-color="#231F20"
         offset="0"
         id="stop85" />
      <stop
         stop-color="#231F20"
         stop-opacity="0"
         offset="1"
         id="stop87" />
    </radialGradient>
    <polygon
       points="229.25,0 229.25,-38.4 0,-38.4 0,0 "
       clip-rule="evenodd"
       fill="url(#ak)"
       fill-rule="evenodd"
       id="polygon90"
       style="fill:url(#ak)" />
  </symbol>
  <symbol
     id="ay"
     viewBox="0 -13.2 29.95 13.2"
     transform="translate(-3.7955639,-57.150328)">
    <path
       d="m 4.55,-10.4 c 6.8,2.333 11.717,4.267 14.75,5.8 3.034,1.533 6.45,3.067 10.25,4.6 l 0.4,-2.7 c -2.534,-1.533 -5.567,-3.066 -9.1,-4.6 -3.533,-1.534 -8.467,-3.5 -14.8,-5.9 L 1.9,-13.1 0,-10 Z"
       clip-rule="evenodd"
       fill="#91a5c1"
       fill-rule="evenodd"
       id="path93" />
  </symbol>
  <symbol
     id="az"
     viewBox="0 -14.5 30.7 14.5"
     transform="translate(-3.7955639,-57.150328)">
    <path
       d="M 30.7,-1.9 C 21.1,-7.533 15.533,-10.75 14,-11.55 12.5,-12.317 9.55,-13.3 5.15,-14.5 l -4.05,1.05 -1.1,3.1 3.75,-0.4 c 3.3,0.5 7.217,1.517 11.75,3.05 2.867,0.967 6.067,2.55 9.6,4.75 1.767,1.067 3.25,2.05 4.45,2.95 z"
       clip-rule="evenodd"
       fill="#91a5c1"
       fill-rule="evenodd"
       id="path96" />
  </symbol>
  <symbol
     id="ba"
     viewBox="0 -17.1 16.5 17.1"
     transform="translate(-3.7955639,-57.150328)">
    <path
       d="m 11.05,-12.35 c 0.281,-0.531 0.606,-1.064 0.975,-1.6 -0.559,0.755 -1.301,1.372 -2.225,1.85 -1,0.2 -1.767,-0.017 -2.3,-0.65 -0.667,-0.767 -1.117,-1.717 -1.35,-2.85 -0.133,-0.566 -0.2,-1.066 -0.2,-1.5 -0.4,2.033 -0.217,3.65 0.55,4.85 0.433,0.633 0.017,0.983 -1.25,1.05 -0.633,0 -1.317,-0.05 -2.05,-0.15 0.633,0.267 1.066,0.617 1.3,1.05 0.533,0.9 -0.133,1.816 -2,2.75 -0.7,0.333 -1.533,1.883 -2.5,4.65 1.633,-2 2.967,-3.3 4,-3.9 1.033,-0.6 2.233,-1.067 3.6,-1.4 l -0.85,3.4 c -0.1,0.3 -0.05,0.733 0.15,1.3 0.1,0.267 0.2,0.517 0.3,0.75 l 0.775,-2.675 c 0.331,0.742 0.656,1.334 0.975,1.775 0.466,0.6 1.833,1.816 4.1,3.65 C 10.917,-2.567 9.7,-4.233 9.4,-5 9.1,-5.767 9.25,-6.517 9.85,-7.25 l 1,0.3 c 0.7,0.233 1.183,0.35 1.45,0.35 0.467,0 1.367,0.15 2.7,0.45 -0.733,-0.733 -1.55,-1.184 -2.45,-1.35 -0.566,-0.1 -1.033,-0.317 -1.4,-0.65 L 10.8,-8.6 11.1,-9.4 c 0.367,-0.533 0.917,-0.8 1.65,-0.8 1.2,0 2.45,-0.133 3.75,-0.4 -0.3,-0.2 -0.75,-0.367 -1.35,-0.5 -1.233,-0.233 -2.617,-0.167 -4.15,0.2 -0.567,0.133 -0.55,-0.35 0.05,-1.45 z"
       clip-rule="evenodd"
       fill="#ba906e"
       fill-rule="evenodd"
       id="path99" />
  </symbol>
  <symbol
     id="bb"
     viewBox="0.027 -15.167 32.036 15.167"
     transform="translate(-3.7955639,-57.150328)">
    <radialGradient
       id="al"
       cx="-1445.8"
       cy="-1779.9"
       r="17.812"
       gradientTransform="matrix(0.9798,-0.1998,-0.0499,-0.2448,1343.7,-732.1)"
       gradientUnits="userSpaceOnUse">
      <stop
         stop-color="#231F20"
         offset="0"
         id="stop102" />
      <stop
         stop-color="#231F20"
         stop-opacity="0"
         offset="1"
         id="stop104" />
    </radialGradient>
    <path
       d="m 32,-10.9 c -0.4,-1.867 -2.283,-3.15 -5.65,-3.85 -3.4,-0.667 -7.3,-0.533 -11.7,0.4 -4.4,0.9 -8.017,2.333 -10.85,4.3 -2.867,2 -4.1,3.933 -3.7,5.8 0.367,1.867 2.25,3.133 5.65,3.8 3.367,0.7 7.25,0.583 11.65,-0.35 4.4,-0.9 8.033,-2.333 10.9,-4.3 2.833,-2 4.067,-3.933 3.7,-5.8 z"
       clip-rule="evenodd"
       fill="url(#al)"
       fill-rule="evenodd"
       id="path107"
       style="fill:url(#al)" />
  </symbol>
  <symbol
     id="bc"
     viewBox="0 -32.183 16.411 32.183"
     transform="translate(-3.7955639,-57.150328)">
    <path
       d="M 11.65,-2.4 16.4,0 C 16.533,-0.9 15.5,-3.15 13.3,-6.75 10.7,-10.95 9.017,-15.133 8.25,-19.3 7.417,-23.933 6.633,-27.067 5.9,-28.7 5.367,-30 4.467,-31.05 3.2,-31.85 2.7,-32.183 1.633,-32.267 0,-32.1 c 0.367,0.067 0.6,0.15 0.7,0.25 0.8,0.533 1.4,1.9 1.8,4.1 0.733,4 1.5,7.283 2.3,9.85 0.8,2.566 2.217,5.667 4.25,9.3 1.7,3.033 2.567,5.1 2.6,6.2 z"
       clip-rule="evenodd"
       fill="#ba906e"
       fill-rule="evenodd"
       id="path110" />
  </symbol>
  <symbol
     id="bd"
     viewBox="0.086 -38.763 35.77 38.735"
     transform="translate(-3.7955639,-57.150328)">
    <radialGradient
       id="am"
       cx="22.450001"
       cy="-15.8"
       r="49.762001"
       gradientTransform="matrix(1,0,0,-1.0153,0,-31.842)"
       gradientUnits="userSpaceOnUse">
      <stop
         stop-color="#FFEEC2"
         stop-opacity=".651"
         offset=".0235"
         id="stop113" />
      <stop
         stop-color="#F3DFB4"
         stop-opacity=".6745"
         offset=".0667"
         id="stop115" />
      <stop
         stop-color="#D3B58E"
         stop-opacity=".749"
         offset=".2078"
         id="stop117" />
      <stop
         stop-color="#BC9772"
         stop-opacity=".8"
         offset=".3373"
         id="stop119" />
      <stop
         stop-color="#AE8561"
         stop-opacity=".8353"
         offset=".4471"
         id="stop121" />
      <stop
         stop-color="#A97E5B"
         stop-opacity=".8471"
         offset=".5216"
         id="stop123" />
      <stop
         stop-color="#7A5B42"
         stop-opacity=".8471"
         offset=".5843"
         id="stop125" />
    </radialGradient>
    <path
       d="m 26.15,-2.5 c 0.033,-2.2 0.533,-4.633 1.5,-7.3 0.4,-1.1 1.184,-2.534 2.35,-4.3 0.633,-0.933 1.483,-2.183 2.55,-3.75 1.2,-1.967 2.1,-3.883 2.7,-5.75 0.667,-2 0.783,-3.316 0.35,-3.95 -0.533,-0.833 -1.8,-1.55 -3.8,-2.15 -3.8,-1.2 -6,-1.917 -6.6,-2.15 -0.133,-0.066 -3.2,-1.633 -9.2,-4.7 -3.8,-1.934 -6.133,-2.6 -7,-2 -0.767,0.566 -1.367,1.95 -1.8,4.15 -0.733,3.967 -1.5,7.25 -2.3,9.85 -0.733,2.367 -2.083,5.267 -4.05,8.7 -0.967,1.733 -1.017,3.267 -0.15,4.6 0.833,1.267 2.467,2.083 4.9,2.45 3.167,0.466 5.583,1.167 7.25,2.1 0.566,0.333 3,1.934 7.3,4.8 2.3,1.566 3.917,2.15 4.85,1.75 0.733,-0.333 1.117,-1.117 1.15,-2.35 z"
       clip-rule="evenodd"
       fill="url(#am)"
       fill-rule="evenodd"
       id="path128"
       style="fill:url(#am)" />
  </symbol>
  <symbol
     id="be"
     viewBox="0.004 -41.256 42.913 41.278"
     transform="translate(-3.7955639,-57.150328)">
    <radialGradient
       id="an"
       cx="16.049999"
       cy="-16.799999"
       r="54.737999"
       gradientTransform="matrix(-1,0,0,-1.0158,32.1,-33.863)"
       gradientUnits="userSpaceOnUse">
      <stop
         stop-color="#FFEEC2"
         stop-opacity=".651"
         offset=".0235"
         id="stop131" />
      <stop
         stop-color="#F3DFB4"
         stop-opacity=".6745"
         offset=".0667"
         id="stop133" />
      <stop
         stop-color="#D3B58E"
         stop-opacity=".749"
         offset=".2078"
         id="stop135" />
      <stop
         stop-color="#BC9772"
         stop-opacity=".8"
         offset=".3373"
         id="stop137" />
      <stop
         stop-color="#AE8561"
         stop-opacity=".8353"
         offset=".4471"
         id="stop139" />
      <stop
         stop-color="#A97E5B"
         stop-opacity=".8471"
         offset=".5216"
         id="stop141" />
      <stop
         stop-color="#7A5B42"
         stop-opacity=".8471"
         offset=".5843"
         id="stop143" />
    </radialGradient>
    <path
       d="m 42.45,-9.45 c 0.9,-1.333 0.5,-3.55 -1.2,-6.65 -2.7,-5 -4.4,-8.617 -5.1,-10.85 -0.8,-2.566 -1.566,-5.85 -2.3,-9.85 -0.4,-2.2 -1,-3.567 -1.8,-4.1 -0.933,-0.7 -4.133,-0.367 -9.6,1 -4.667,1.167 -8.633,2.417 -11.9,3.75 -0.7,0.267 -2.9,0.967 -6.6,2.1 -2,0.633 -3.267,1.35 -3.8,2.15 -0.433,0.633 0.1,2.967 1.6,7 1.4,3.833 2.717,6.783 3.95,8.85 0.033,0.066 0.883,1.333 2.55,3.8 1.2,1.8 2,3.233 2.4,4.3 1,2.767 1.434,4.883 1.3,6.35 -0.067,0.6 0.25,1.05 0.95,1.35 1.167,0.533 3.684,0.283 7.55,-0.75 3.8,-1.033 7.1,-2.317 9.9,-3.85 1.633,-0.933 4.05,-1.633 7.25,-2.1 2.4,-0.367 4.017,-1.2 4.85,-2.5 z"
       clip-rule="evenodd"
       fill="url(#an)"
       fill-rule="evenodd"
       id="path146"
       style="fill:url(#an)" />
  </symbol>
  <symbol
     id="bf"
     viewBox="0 -12.25 32.55 12.25"
     transform="translate(-3.7955639,-57.150328)">
    <radialGradient
       id="ao"
       cx="16.1"
       cy="-6.1499"
       r="17.799999"
       gradientTransform="matrix(1,0,0,-0.2205,0,-7.5063)"
       gradientUnits="userSpaceOnUse">
      <stop
         stop-color="#231F20"
         offset="0"
         id="stop149" />
      <stop
         stop-color="#231F20"
         stop-opacity="0"
         offset="1"
         id="stop151" />
    </radialGradient>
    <path
       d="m 32.55,-6.15 c 0,-1.667 -1.583,-3.1 -4.75,-4.3 -3.2,-1.2 -7.05,-1.8 -11.55,-1.8 -4.5,0 -8.333,0.6 -11.5,1.8 -3.167,1.2 -4.75,2.633 -4.75,4.3 0,1.7 1.583,3.15 4.75,4.35 3.167,1.2 7,1.8 11.5,1.8 4.5,0 8.35,-0.6 11.55,-1.8 3.167,-1.2 4.75,-2.65 4.75,-4.35 z"
       clip-rule="evenodd"
       fill="url(#ao)"
       fill-rule="evenodd"
       id="path154"
       style="fill:url(#ao)" />
  </symbol>
  <symbol
     id="bg"
     viewBox="0 -26.8 28.15 26.8"
     transform="translate(-3.7955639,-57.150328)">
    <radialGradient
       id="ap"
       cx="-3282.8"
       cy="-6841.6001"
       r="35.442001"
       gradientTransform="matrix(0.7798,-0.626,-0.6165,-0.7918,-1645.3,-7481.1)"
       gradientUnits="userSpaceOnUse">
      <stop
         stop-color="#FFEEC2"
         stop-opacity=".651"
         offset=".0235"
         id="stop157" />
      <stop
         stop-color="#F3DFB4"
         stop-opacity=".6745"
         offset=".0667"
         id="stop159" />
      <stop
         stop-color="#D3B58E"
         stop-opacity=".749"
         offset=".2078"
         id="stop161" />
      <stop
         stop-color="#BC9772"
         stop-opacity=".8"
         offset=".3373"
         id="stop163" />
      <stop
         stop-color="#AE8561"
         stop-opacity=".8353"
         offset=".4471"
         id="stop165" />
      <stop
         stop-color="#A97E5B"
         stop-opacity=".8471"
         offset=".5216"
         id="stop167" />
      <stop
         stop-color="#7A5B42"
         stop-opacity=".8471"
         offset=".5843"
         id="stop169" />
    </radialGradient>
    <path
       d="m 28.15,-13.4 c 0,-3.7 -1.367,-6.867 -4.1,-9.5 -2.767,-2.6 -6.083,-3.9 -9.95,-3.9 -3.9,0 -7.217,1.3 -9.95,3.9 C 1.383,-20.267 0,-17.1 0,-13.4 0,-9.7 1.383,-6.55 4.15,-3.95 6.883,-1.317 10.2,0 14.1,0 c 3.867,0 7.183,-1.317 9.95,-3.95 2.733,-2.6 4.1,-5.75 4.1,-9.45 z"
       clip-rule="evenodd"
       fill="url(#ap)"
       fill-rule="evenodd"
       id="path172"
       style="fill:url(#ap)" />
  </symbol>
  <symbol
     id="bh"
     transform="translate(-3.7955639,-57.150328)" />
  <use
     transform="matrix(1.8828249,0,0,-1.8828249,25.338984,23.211362)"
     y="-38.400002"
     width="229.25"
     height="38.400002"
     enable-background="new"
     opacity="0.25"
     xlink:href="#ax"
     id="use176"
     x="0" />
  <use
     transform="matrix(1.8828249,0,0,-1.8828249,33.717744,81.578932)"
     y="-8.5"
     width="24.549999"
     height="8.5"
     enable-background="new"
     opacity="0.4492"
     xlink:href="#au"
     id="use178"
     x="0" />
  <use
     transform="matrix(1.8828249,0,0,-1.8828249,402.75143,79.884392)"
     y="-8.5"
     width="24.549999"
     height="8.5"
     enable-background="new"
     opacity="0.4492"
     xlink:href="#as"
     id="use180"
     x="0" />
  <g
     clip-rule="evenodd"
     fill-rule="evenodd"
     id="g195"
     transform="matrix(1.8828249,0,0,1.8828249,0.02353074,-37.697411)">
    <polygon
       points="14.55,117.9 35.4,117 30.1,129.1 18.35,129.45 "
       fill="#5b4139"
       id="polygon182" />
    <linearGradient
       id="bi"
       x1="-135.92"
       x2="-120.31"
       y1="29.656"
       y2="29.656"
       gradientTransform="rotate(-87.707558,-1.9733373e-5,2.6909124e-4)"
       gradientUnits="userSpaceOnUse">
      <stop
         stop-color="#231F20"
         offset="0"
         id="stop184" />
      <stop
         stop-color="#231F20"
         stop-opacity="0"
         offset="1"
         id="stop186" />
    </linearGradient>
    <polygon
       points="14.55,117.9 35.4,117 30.1,129.1 18.35,129.45 "
       fill="url(#bi)"
       id="polygon189"
       style="fill:url(#bi)" />
    <polygon
       points="35.8,121.75 30.1,129.1 33.95,117.25 36.9,115.6 "
       fill="#3a2924"
       id="polygon191" />
    <polygon
       points="14.55,117.9 33.95,117.25 33.15,119.85 14.55,119.45 "
       fill="#3a2924"
       id="polygon193" />
  </g>
  <g
     clip-rule="evenodd"
     fill-rule="evenodd"
     id="g210"
     transform="matrix(1.8828249,0,0,1.8828249,0.02353074,-37.697411)">
    <polygon
       points="217,127.9 211.7,115.85 232.55,116.75 228.75,128.3 "
       fill="#5b4139"
       id="polygon197" />
    <linearGradient
       id="bj"
       x1="221.97"
       x2="221.34"
       y1="120.21"
       y2="135.81"
       gradientUnits="userSpaceOnUse">
      <stop
         stop-color="#231F20"
         offset="0"
         id="stop199" />
      <stop
         stop-color="#231F20"
         stop-opacity="0"
         offset="1"
         id="stop201" />
    </linearGradient>
    <polygon
       points="217,127.9 211.7,115.85 232.55,116.75 228.75,128.3 "
       fill="url(#bj)"
       id="polygon204"
       style="fill:url(#bj)" />
    <polygon
       points="213.15,116.1 217,127.9 211.3,120.6 210.15,114.45 "
       fill="#3a2924"
       id="polygon206" />
    <polygon
       points="232.55,116.75 232.55,118.3 213.95,118.7 213.15,116.1 "
       fill="#3a2924"
       id="polygon208" />
  </g>
  <path
     d="m 24.594395,57.667672 c 2.699971,-3.88992 8.128156,-5.46019 16.286436,-4.70706 8.660995,0.75313 15.345023,3.98594 20.052086,9.69655 4.204348,5.08362 6.904319,12.11409 8.096147,21.08764 0.564847,4.51878 0.721122,8.50472 0.470706,11.95593 l 4.989486,76.725118 c -4.707062,6.46562 -7.781715,9.94885 -9.225842,10.45156 -1.444127,0.50272 -14.059054,0.97342 -37.844781,1.41212 0.941412,-7.0926 1.662534,-14.65591 2.165249,-22.68992 0.941412,-16.06615 0.218407,-26.32754 -2.165249,-30.78419 -1.255844,-2.32152 -2.948504,-4.08008 -5.083627,-5.27191 -2.762105,-1.06568 -4.863337,-1.91483 -6.307464,-2.5437 -5.836757,-2.38365 -10.3555365,-7.43527 -13.5563389,-15.15485 -3.26293556,-7.78172 -3.29494356,-15.471178 -0.094141,-23.064608 0.9414125,-2.38554 2.1972567,-4.61292 3.7656499,-6.68403 0.7531301,-1.06568 1.4121191,-1.88283 1.9769661,-2.44767 z"
     clip-rule="evenodd"
     fill="#b7ccdb"
     fill-rule="evenodd"
     id="path212"
     style="stroke-width:1.88282" />
  <linearGradient
     id="bk"
     x1="-136.64"
     x2="-73.341003"
     y1="14.566"
     y2="14.566"
     gradientTransform="matrix(-0.10637961,-1.8798124,1.8798124,-0.10637961,0.02355684,-37.697092)"
     gradientUnits="userSpaceOnUse">
    <stop
       stop-color="#3C6781"
       offset="0"
       id="stop214" />
    <stop
       stop-color="#7092A7"
       stop-opacity=".5725"
       offset=".4039"
       id="stop216" />
    <stop
       stop-color="#B7CCDB"
       stop-opacity="0"
       offset=".9843"
       id="stop218" />
  </linearGradient>
  <path
     d="m 24.594395,57.667672 c 2.699971,-3.88992 8.128156,-5.46019 16.286436,-4.70706 8.660995,0.75313 15.345023,3.98594 20.052086,9.69655 4.204348,5.08362 6.904319,12.11409 8.096147,21.08764 0.564847,4.51878 0.721122,8.50472 0.470706,11.95593 l 4.989486,76.725118 c -4.707062,6.46562 -7.781715,9.94885 -9.225842,10.45156 -1.444127,0.50272 -14.059054,0.97342 -37.844781,1.41212 0.941412,-7.0926 1.662534,-14.65591 2.165249,-22.68992 0.941412,-16.06615 0.218407,-26.32754 -2.165249,-30.78419 -1.255844,-2.32152 -2.948504,-4.08008 -5.083627,-5.27191 -2.762105,-1.06568 -4.863337,-1.91483 -6.307464,-2.5437 -5.836757,-2.38365 -10.3555365,-7.43527 -13.5563389,-15.15485 -3.26293556,-7.78172 -3.29494356,-15.471178 -0.094141,-23.064608 0.9414125,-2.38554 2.1972567,-4.61292 3.7656499,-6.68403 0.7531301,-1.06568 1.4121191,-1.88283 1.9769661,-2.44767 z"
     clip-rule="evenodd"
     fill="url(#bk)"
     fill-rule="evenodd"
     id="path221"
     style="fill:url(#bk);stroke-width:1.88282" />
  <path
     d="m 49.353543,65.293112 c -1.568393,-6.08717 -2.417547,-9.85282 -2.541813,-11.29695 6.025039,1.56839 10.732102,4.45476 14.121187,8.661 4.204348,5.08362 7.499291,11.98794 9.88483,20.71107 1.191829,4.39451 1.944959,8.25431 2.25939,11.57937 l 4.330498,73.900878 c -6.653904,8.84928 -10.701977,13.52622 -12.144221,14.02705 l -1.317977,0.18828 c 0.376564,-8.53484 0,-21.14977 -1.129695,-37.84478 -1.380111,-19.39498 -3.200803,-32.07204 -5.460193,-38.03306 -1.193711,-3.20081 -1.50626,-5.43007 -0.941412,-6.68403 0.314432,-0.690998 -0.376565,-1.978848 -2.071108,-3.861678 -2.13324,-2.2575 -3.797658,-5.7106 -4.989486,-10.35553 -1.255844,-4.7692 -1.193711,-8.09615 0.188283,-9.97898 1.129695,-1.50437 1.067562,-5.17588 -0.188283,-11.01264 z"
     clip-rule="evenodd"
     fill="#8fb2bc"
     fill-rule="evenodd"
     id="path223"
     style="stroke-width:1.88282" />
  <path
     d="m 52.366063,56.443832 c 2.699971,2.69809 4.456647,5.27191 5.27191,7.71959 0.438698,1.19182 0.594973,2.13324 0.470706,2.82423 -0.941412,0.50272 -2.008974,1.25585 -3.200802,2.25939 -2.385539,2.07299 -4.174223,4.42652 -5.366051,7.0606 -1.380111,3.13867 -2.103116,6.02504 -2.165249,8.66288 -1.944958,-1.57028 -4.424638,-3.17068 -7.437158,-4.80309 -5.962907,-3.26294 -11.549248,-5.01961 -16.757142,-5.27191 -2.509806,-0.12427 -5.584459,0.40857 -9.225842,1.60228 -3.953932,1.3161 -6.6840279,2.00709 -8.1902883,2.07111 0.8792794,-1.25585 1.6625344,-2.22927 2.3535314,-2.91838 L 24.594395,57.669552 c 1.50626,-2.13324 4.236357,-3.60937 8.190289,-4.42464 4.016066,-0.75313 8.252422,-0.62698 12.709068,0.37657 0.250416,0.12426 1.444127,0.53284 3.577368,1.22383 1.632409,0.50084 2.730096,1.03368 3.294943,1.59852 z"
     clip-rule="evenodd"
     fill="#cce4f4"
     fill-rule="evenodd"
     id="path225"
     style="stroke-width:1.88282" />
  <path
     d="m 45.964458,79.226012 c 6.652021,5.4602 11.799664,14.71805 15.439165,27.771668 0.502714,1.75856 2.25939,10.66997 5.27191,26.73612 1.444126,7.65556 1.694542,21.99892 0.75313,43.02443 l 9.696548,-6.49575 -13.179774,12.80321 c 0.376564,-24.28844 -0.12615,-40.51274 -1.50626,-48.67102 -3.13867,-17.57429 -4.801204,-26.76812 -4.989487,-27.58339 -3.515234,-12.991488 -8.755135,-21.464198 -15.721588,-25.418128 -7.154734,-4.01795 -14.780175,-5.55434 -22.876323,-4.61292 -5.334043,0.69099 -10.1051199,2.22926 -14.3094685,4.61292 -2.0711074,1.19371 -2.4777976,1.06568 -1.2238362,-0.37657 0.6269807,-0.68911 1.4441267,-1.50626 2.4476724,-2.44767 l 4.0480734,-1.69454 c 3.3890849,-1.25397 6.7781699,-2.19538 10.1672539,-2.82424 10.794236,-1.94684 19.45523,-0.22029 25.982984,5.17777 z"
     clip-rule="evenodd"
     fill="#889fa5"
     fill-rule="evenodd"
     id="path227"
     style="stroke-width:1.88282" />
  <path
     d="m 11.979468,81.391262 c 5.898891,-2.00709 12.270371,-2.38554 19.110674,-1.12969 3.451218,0.68911 6.275455,1.53639 8.472712,2.54181 -10.167255,-0.62698 -18.107128,-0.31443 -23.817736,0.94142 -3.577367,0.81714 -7.0285849,3.45121 -10.3555363,7.90786 l -3.8597911,6.40161 c -0.62698066,-2.0071 -0.65898866,-4.20435 -0.094141,-6.58989 1.0656789,-4.77108 4.580913,-8.12816 10.5438184,-10.07312 z"
     clip-rule="evenodd"
     fill="#c7dfe8"
     fill-rule="evenodd"
     id="path229"
     style="stroke-width:1.88282" />
  <path
     d="m 12.732598,75.742792 -6.4957449,1.78868 10.9203839,-12.89735 c 1.944958,-2.25939 5.113753,-5.30392 9.508266,-9.1317 -2.071108,2.63596 -3.921924,5.2399 -5.554334,7.81372 -3.326951,5.20978 -3.98594,7.71959 -1.976966,7.5313 5.021494,-0.50271 8.252422,-0.78513 9.696549,-0.84727 4.456646,-0.12426 7.719582,0.31255 9.790689,1.31798 3.008754,1.50438 5.895125,4.32861 8.660995,8.47271 -0.726771,-0.98848 -1.886591,-1.9619 -3.483226,-2.92026 -3.76565,-2.32152 -8.50472,-3.38908 -14.215328,-3.19892 -5.774624,0.18828 -11.391091,0.8774 -16.851284,2.07111 z"
     clip-rule="evenodd"
     fill="#d7edf4"
     fill-rule="evenodd"
     id="path231"
     style="stroke-width:1.88282" />
  <path
     d="m 58.767668,129.68572 c -0.376565,-4.39451 -1.664417,-11.2028 -3.859791,-20.43053 l -3.200803,-12.614928 4.707063,11.673518 c 3.074653,9.41412 4.51878,18.10713 4.330497,26.07901 -0.250416,9.6024 0.250416,25.82482 1.50626,48.67102 l -10.073113,-1.88282 3.859791,-0.84728 c 2.509805,-1.12969 3.76565,-3.07465 3.76565,-5.83675 0,-22.91398 -0.34644,-37.84478 -1.035554,-44.81124 z"
     clip-rule="evenodd"
     fill="#b1ccd3"
     fill-rule="evenodd"
     id="path233"
     style="stroke-width:1.88282" />
  <path
     d="m 40.03356,113.96414 c 2.573822,-0.87928 4.644929,-1.72467 6.213322,-2.54182 l -0.75313,5.36605 c -0.941412,4.3305 -2.603947,8.28443 -4.989486,11.8618 -0.879279,1.38011 -1.50626,4.83321 -1.882825,10.35554 -0.62698,8.84927 -0.941412,13.36994 -0.941412,13.55634 -0.626981,5.14576 -3.01252,13.27391 -7.154735,24.38258 0.626981,-6.65202 1.065679,-13.58835 1.317977,-20.80522 0.438699,-14.31135 -0.314431,-22.65603 -2.259389,-25.04157 -4.017949,-4.83321 -7.499292,-7.93987 -10.449679,-9.31998 -4.831329,-2.25939 -7.5313,-3.60938 -8.096147,-4.04807 -2.9503859,-2.19538 -4.9574775,-5.01962 -6.0250393,-8.47272 l -0.6589887,-4.51878 6.213322,6.58989 c 5.021494,4.3305 9.916839,6.27546 14.686034,5.83676 4.769196,-0.37657 9.696549,-1.44413 14.780176,-3.2008 z"
     clip-rule="evenodd"
     fill="#9ab9c4"
     fill-rule="evenodd"
     id="path235"
     style="stroke-width:1.88282" />
  <g
     clip-rule="evenodd"
     fill-rule="evenodd"
     id="g268"
     transform="matrix(1.8828249,0,0,1.8828249,0.02353074,-37.697411)">
    <path
       d="m 65.5,24.85 c 0.933,0.233 5.983,1.767 15.15,4.6 5.4,1.667 9.333,2.5 11.8,2.5 4.133,0 9.833,-1.017 17.1,-3.05 7.367,-2.033 13.217,-3.083 17.55,-3.15 4.801,-0.033 10.834,0.933 18.101,2.9 6.246,1.695 10.071,2.503 11.475,2.425 0.003,-0.113 1.962,-0.988 5.875,-2.625 4.867,-2 9.75,-3.684 14.65,-5.05 15.666,-4.367 28.149,-4.5 37.45,-0.4 8.866,3.933 10.6,14.167 5.199,30.7 -2.666,8.267 -6.233,16.149 -10.699,23.649 L 41.641,78.3 c -0.533,1.134 -2.066,-0.434 -4.6,-4.7 -2.7,-4.5 -4.983,-9.6 -6.85,-15.3 -5.333,-16.267 -4.05,-26.883 3.85,-31.85 7.333,-4.634 17.817,-5.167 31.45,-1.6 z"
       fill="#b7ccdb"
       id="path237" />
    <linearGradient
       id="bl"
       x1="-83.693001"
       x2="-40.417999"
       y1="124.78"
       y2="124.78"
       gradientTransform="matrix(-0.004,-1,1,-0.004,5.1789e-5,3.1176e-4)"
       gradientUnits="userSpaceOnUse">
      <stop
         stop-color="#3C6781"
         offset="0"
         id="stop239" />
      <stop
         stop-color="#7092A7"
         stop-opacity=".5725"
         offset=".4039"
         id="stop241" />
      <stop
         stop-color="#B7CCDB"
         stop-opacity="0"
         offset=".9843"
         id="stop243" />
    </linearGradient>
    <path
       d="m 65.5,26.05 c 0.933,0.233 5.983,1.767 15.15,4.6 5.4,1.667 9.333,2.5 11.8,2.5 4.133,0 9.116,-0.967 14.95,-2.9 5.934,-1.934 11.067,-2.934 15.4,-3 4.733,-0.067 11.483,0.85 20.25,2.75 7.589,1.637 12.131,2.396 13.625,2.275 -0.06,-0.086 1.898,-0.961 5.875,-2.625 4.867,-2 9.75,-3.683 14.65,-5.05 15.666,-4.367 28.149,-4.5 37.45,-0.4 8.866,3.933 10.6,14.167 5.199,30.7 -2.666,8.267 -6.233,16.15 -10.699,23.65 L 41.64,79.5 c -0.533,1.134 -2.066,-0.434 -4.6,-4.7 -2.7,-4.5 -4.983,-9.6 -6.85,-15.3 -5.333,-16.267 -4.05,-26.883 3.85,-31.85 7.333,-4.633 17.817,-5.167 31.45,-1.6 z"
       fill="url(#bl)"
       id="path246"
       style="fill:url(#bl)" />
    <path
       d="m 27.5,44.85 c 1.4,4.867 3.467,8.983 6.2,12.35 3.866,4.767 8.733,7.533 14.6,8.3 7.9,1.033 20.7,1.116 38.4,0.25 9.633,-0.5 22.6,-1.267 38.899,-2.3 3.134,-0.134 16.934,0.399 41.4,1.6 18.733,0.9 29.967,0.367 33.7,-1.6 3.533,-1.834 7.733,-6.167 12.6,-13 3.5,-4.934 6.333,-9.567 8.5,-13.9 -0.033,1.233 -0.133,2.5 -0.3,3.8 l -3.05,13.75 c -2.101,6.966 -4.884,14.067 -8.351,21.3 l -169.5,0.45 c -0.367,0.7 -1.217,0.167 -2.55,-1.6 -1.333,-1.8 -2.783,-4.35 -4.35,-7.65 -3.333,-7.767 -5.4,-15.017 -6.2,-21.75 z"
       fill="#8aa6ad"
       id="path248" />
    <path
       d="m 52.75,25.45 c -5.2,-0.8 -9.6,-0.95 -13.2,-0.45 -3.566,0.5 -4.633,0.867 -3.2,1.1 l -6.1,2.95 c 1.033,-0.8 2.483,-2 4.35,-3.6 1.633,-1.3 3.083,-2.184 4.35,-2.65 7.3,-2.833 17.116,-3.083 29.45,-0.75 3.233,0.633 7.833,1.633 13.8,3 4.966,1.067 8.683,1.6 11.15,1.6 4.133,0 9.816,-0.617 17.05,-1.85 7.367,-1.267 13.184,-1.917 17.45,-1.95 4.834,-0.034 10.851,0.617 18.051,1.95 6.666,1.167 10.55,1.7 11.649,1.6 1.467,-0.167 8.8,-1.583 22,-4.25 14,-2.167 24.617,-2.267 31.851,-0.3 2.732,0.733 4.883,1.667 6.449,2.8 1.2,0.867 2.667,2.367 4.4,4.5 -1.867,-0.767 -4.367,-1.417 -7.5,-1.95 -3.934,-0.6 -7.033,-1.067 -9.3,-1.4 -4.567,-0.7 -11.483,-0.216 -20.75,1.45 -10,2.1 -16.717,3.417 -20.15,3.95 -4,0.667 -9.733,0.167 -17.2,-1.5 -9.8,-2.134 -15.55,-3.284 -17.25,-3.45 -4.066,-0.367 -9.95,0.15 -17.649,1.55 -10.233,1.9 -15.934,2.9 -17.1,3 -4,0.4 -10.767,-0.133 -20.3,-1.6 -10.8,-1.833 -18.234,-3.083 -22.3,-3.75 z"
       fill="#cce4f4"
       id="path250" />
    <path
       d="m 107.75,27.65 c 0.7,0.233 1.517,0.4 2.45,0.5 -7.3,1.4 -13.8,2.3 -19.5,2.7 C 85.867,30.683 80.083,30.066 73.35,29 l -3.1,-0.9 5.15,-0.5 c 1,-0.1 1.7,-0.567 2.1,-1.4 0.2,-0.534 0.283,-1.117 0.25,-1.75 5.3,0.966 8.333,1.517 9.1,1.65 2.367,0.367 4.533,0.55 6.5,0.55 2.566,0 5.3,-0.167 8.2,-0.5 1.934,-0.233 4.5,-0.617 7.7,-1.15 -0.733,0.467 -1.467,0.883 -2.2,1.25 -1,0.5 -0.77,0.967 0.7,1.4 z"
       fill="#c4dbe8"
       id="path252" />
    <path
       d="m 30.5,29.55 0.95,-1.4 c 0.833,-1.1 1.783,-2.083 2.85,-2.95 3.4,-2.867 7.333,-4.15 11.8,-3.85 3.4,0.2 11.367,1.933 23.9,5.2 11.667,3.034 18.733,4.434 21.2,4.2 1.5,-0.133 6.45,-1.067 14.85,-2.8 7.567,-1.567 13.367,-2.4 17.4,-2.5 2.5,-0.034 9.1,0.917 19.8,2.85 10.4,1.9 17.283,2.75 20.65,2.55 3.666,-0.233 10.85,-1.567 21.55,-4 10.2,-2.3 16.483,-3.45 18.85,-3.45 4.767,0 9.217,1.283 13.351,3.85 2.066,1.267 3.649,2.533 4.75,3.8 -1.867,-0.966 -4.084,-1.933 -6.65,-2.9 -5.134,-1.9 -9.483,-2.816 -13.05,-2.75 -2.767,0.067 -8.95,1.25 -18.55,3.55 -9.834,2.333 -16.934,3.616 -21.301,3.85 -3.233,0.167 -9.933,-0.7 -20.1,-2.6 -10.5,-1.967 -17.15,-2.95 -19.95,-2.95 -3,0 -7.733,0.733 -14.2,2.2 -6.534,1.466 -12.733,2.233 -18.6,2.3 -6.434,0.1 -15.3,-1.267 -26.6,-4.1 -10.767,-2.733 -17.233,-4 -19.4,-3.8 -3.3,0.3 -6.533,1.333 -9.7,3.1 z"
       fill="#d7edf4"
       id="path254" />
    <path
       d="m 40.6,75.85 c -0.1,0.167 -0.217,0.25 -0.35,0.25 h -0.1 c -0.4,-0.1 -1.133,-1.1 -2.2,-3 -2.067,-3.767 -3.667,-6.566 -4.8,-8.399 L 34,65.5 c 0.8,0.733 1.65,1.417 2.55,2.05 l 5.45,1.2 c 5.8,0.767 14.217,1.05 25.25,0.85 59.5,-0.899 90.833,-1.433 94,-1.6 2.533,-0.134 10.816,-0.15 24.85,-0.05 13.167,-0.066 20.551,-0.601 22.15,-1.601 0.167,-0.1 2.467,-1.017 6.9,-2.75 -1.301,3.367 -2.917,7.167 -4.851,11.4 l -169.7,0.851 z"
       fill="#7a919b"
       id="path256" />
    <path
       d="m 146.35,29.4 -0.949,-0.35 2.05,-0.3 c 1.533,-0.3 2.7,-0.6 3.5,-0.9 0.733,-0.267 0.916,-0.667 0.55,-1.2 -0.233,-0.367 -0.617,-0.717 -1.15,-1.05 3.601,0.633 6,0.9 7.2,0.8 0.5,-0.066 3.2,-0.667 8.101,-1.8 5.666,-1.367 10.633,-2.434 14.899,-3.2 -0.366,1.4 -1,2.434 -1.899,3.1 -0.567,0.467 0,0.75 1.699,0.85 0.9,0.066 2.101,0.1 3.601,0.1 -1.634,0.4 -3.834,1.133 -6.601,2.2 -2.866,1.067 -4.933,1.767 -6.199,2.1 l -2.75,0.65 c -1.134,0.3 -2.417,0.567 -3.851,0.8 -2.7,0.433 -5.733,0.433 -9.1,0 -2.2,-0.267 -5.23,-0.867 -9.1,-1.8 z"
       fill="#c4dbe8"
       id="path258" />
    <path
       d="m 211.4,21.85 c 5.267,1.667 8.433,3.533 9.5,5.6 0.533,1 0.466,1.8 -0.2,2.4 -0.134,-0.067 -0.351,-0.034 -0.65,0.1 -0.333,0.167 -0.616,0.2 -0.85,0.1 -0.867,-0.466 -2.65,-1.083 -5.351,-1.85 -3.033,-0.833 -4.949,-1.417 -5.75,-1.75 0.4,-0.067 1.4,-0.034 3,0.1 1.5,0.133 2.5,0.1 3,-0.1 0.667,-0.233 0.483,-0.95 -0.55,-2.15 -1.27,-1.3 -1.98,-2.117 -2.15,-2.45 z"
       fill="#c4dbe8"
       id="path260" />
    <path
       d="m 134.45,26.85 -4.351,-0.6 c -1,-0.1 -2.033,-0.15 -3.1,-0.15 -0.566,-0.1 -2.267,-0.133 -5.1,-0.1 -1.833,0 -2.967,-0.4 -3.4,-1.2 -0.333,-0.566 0.25,-1.05 1.75,-1.45 2.3,-0.267 4.833,-0.434 7.6,-0.5 2.033,0 4.167,0.083 6.4,0.25 5.267,1.333 8.066,2.283 8.4,2.85 0.267,0.433 -0.65,0.716 -2.75,0.85 -2.67,0.033 -4.48,0.05 -5.45,0.05 z"
       fill="#d7eef9"
       id="path262" />
    <path
       d="m 212.6,24.45 c 0.172,0.432 -0.229,0.832 -1.199,1.2 -1.2,0.4 -2.551,0.55 -4.051,0.45 l -1.899,-0.3 c -0.7,-0.233 -2.117,-0.417 -4.25,-0.55 -1.601,-0.133 -2.767,-0.517 -3.5,-1.15 -0.867,-0.733 -0.983,-1.367 -0.351,-1.9 0.801,-0.7 2.684,-0.983 5.65,-0.85 2.6,0.133 5.217,0.85 7.85,2.15 0.23,0.1 0.82,0.417 1.75,0.95 z"
       fill="#d7eef9"
       id="path264" />
    <path
       d="m 54.8,22.35 c -0.667,0.7 -1.85,1.267 -3.55,1.7 l -4.9,1 c -3.7,0 -7.383,0.467 -11.05,1.4 -0.4,-0.067 -0.633,-0.15 -0.7,-0.25 -0.1,-0.2 0.466,-0.7 1.7,-1.5 1.3,-0.833 2,-1.4 2.1,-1.7 l 0.55,-0.2 c 2.3,-0.9 4.433,-1.45 6.4,-1.65 1.133,-0.1 3.6,-0.1 7.4,0 1.933,0.233 2.617,0.633 2.05,1.2 z"
       fill="#d7eef9"
       id="path266" />
  </g>
  <path
     d="m 442.39325,57.665792 c -2.69997,-3.88992 -8.12627,-5.45831 -16.28455,-4.70707 -8.66288,0.75313 -15.34503,3.98594 -20.05209,9.69655 -4.20435,5.08363 -6.90432,12.1141 -8.09615,21.08764 -0.56484,4.5169 -0.723,8.50472 -0.4707,11.95594 l -4.98949,76.725118 c 4.70706,6.46562 7.7836,9.94696 9.22584,10.44968 1.44225,0.50271 14.05906,0.97342 37.84479,1.41211 -0.94142,-7.0926 -1.66254,-14.65402 -2.16337,-22.68804 -0.94141,-16.06614 -0.22029,-26.32754 2.16337,-30.78418 1.25584,-2.32153 2.9485,-4.08009 5.08362,-5.27191 2.76211,-1.06757 4.86334,-1.91484 6.30747,-2.5437 5.83864,-2.38554 10.35553,-7.43716 13.55634,-15.15674 3.26293,-7.7836 3.29494,-15.471168 0.0941,-23.064608 -0.94142,-2.38554 -2.19538,-4.61292 -3.76565,-6.68403 -0.75125,-1.06567 -1.41212,-1.88282 -1.97697,-2.44767 l -16.47468,-17.98098 z"
     clip-rule="evenodd"
     fill="#b7ccdb"
     fill-rule="evenodd"
     id="path270"
     style="stroke-width:1.88282" />
  <linearGradient
     id="bm"
     x1="-455.76999"
     x2="-392.47"
     y1="659.46997"
     y2="659.46997"
     gradientTransform="matrix(0.10637961,-1.8798124,-1.8798124,-0.10637961,1713.2059,-569.0306)"
     gradientUnits="userSpaceOnUse">
    <stop
       stop-color="#3C6781"
       offset="0"
       id="stop272" />
    <stop
       stop-color="#7092A7"
       stop-opacity=".5725"
       offset=".4039"
       id="stop274" />
    <stop
       stop-color="#B7CCDB"
       stop-opacity="0"
       offset=".9843"
       id="stop276" />
  </linearGradient>
  <path
     d="m 442.39325,57.665792 c -2.69997,-3.88992 -8.12627,-5.45831 -16.28455,-4.70707 -8.66288,0.75313 -15.34503,3.98594 -20.05209,9.69655 -4.20435,5.08363 -6.90432,12.1141 -8.09615,21.08764 -0.56484,4.5169 -0.723,8.50472 -0.4707,11.95594 l -4.98949,76.725118 c 4.70706,6.46562 7.7836,9.94696 9.22584,10.44968 1.44225,0.50271 14.05906,0.97342 37.84479,1.41211 -0.94142,-7.0926 -1.66254,-14.65402 -2.16337,-22.68804 -0.94141,-16.06614 -0.22029,-26.32754 2.16337,-30.78418 1.25584,-2.32153 2.9485,-4.08009 5.08362,-5.27191 2.76211,-1.06757 4.86334,-1.91484 6.30747,-2.5437 5.83864,-2.38554 10.35553,-7.43716 13.55634,-15.15674 3.26293,-7.7836 3.29494,-15.471168 0.0941,-23.064608 -0.94142,-2.38554 -2.19538,-4.61292 -3.76565,-6.68403 -0.75125,-1.06567 -1.41212,-1.88282 -1.97697,-2.44767 l -16.47468,-17.98098 z"
     clip-rule="evenodd"
     fill="url(#bm)"
     fill-rule="evenodd"
     id="path279"
     style="fill:url(#bm);stroke-width:1.88282" />
  <path
     d="m 417.6341,65.293112 c 1.5684,-6.08717 2.41567,-9.85282 2.54182,-11.29695 -6.02504,1.56839 -10.73211,4.45476 -14.12119,8.661 -4.20435,5.08362 -7.49929,11.98606 -9.88483,20.71107 -1.19371,4.39263 -1.94496,8.25431 -2.25939,11.57937 l -4.3305,73.900878 c 6.65202,8.8474 10.70198,13.52433 12.14422,14.02517 l 1.31798,0.19016 c -0.37657,-8.53484 0,-21.14977 1.12969,-37.84666 1.38011,-19.3931 3.20081,-32.07016 5.4602,-38.03118 1.19182,-3.20081 1.50626,-5.43007 0.94141,-6.68591 -0.31443,-0.689118 0.37468,-1.976968 2.07111,-3.859798 2.13512,-2.25939 3.79765,-5.7106 4.98948,-10.35553 1.25396,-4.7692 1.19183,-8.09615 -0.19016,-9.97898 -1.1297,-1.50437 -1.07321,-5.17588 0.18828,-11.01264 z"
     clip-rule="evenodd"
     fill="#8fb2bc"
     fill-rule="evenodd"
     id="path281"
     style="stroke-width:1.88282" />
  <path
     d="m 414.62158,56.443832 c -2.69997,2.69997 -4.45476,5.27191 -5.27191,7.71959 -0.4387,1.19371 -0.59497,2.13512 -0.4707,2.82423 0.94141,0.50272 2.00709,1.25585 3.2008,2.25939 2.38554,2.07111 4.17422,4.42464 5.36605,7.0606 1.38011,3.13867 2.10312,6.02504 2.16525,8.66099 1.94496,-1.56839 4.42464,-3.16879 7.43716,-4.8012 5.96102,-3.26294 11.54736,-5.01961 16.75526,-5.27191 2.51168,-0.12427 5.58634,0.40857 9.22584,1.6004 3.95393,1.31798 6.68403,2.00897 8.19029,2.07299 -0.87928,-1.25585 -1.66254,-2.22927 -2.35353,-2.91838 l -16.47472,-17.98286 c -1.50626,-2.13324 -4.23636,-3.60749 -8.19029,-4.42464 -4.01795,-0.75313 -8.25431,-0.62698 -12.70907,0.37657 -0.2523,0.12426 -1.44413,0.53284 -3.57737,1.22195 -1.63805,0.50271 -2.73009,1.03744 -3.29494,1.60228 z"
     clip-rule="evenodd"
     fill="#cce4f4"
     fill-rule="evenodd"
     id="path283"
     style="stroke-width:1.88282" />
  <path
     d="m 421.02319,79.226012 c -6.65202,5.4602 -11.79967,14.71617 -15.43917,27.771668 -0.50271,1.75856 -2.25939,10.66997 -5.27191,26.73612 -1.44412,7.65556 -1.69454,21.99892 -0.75313,43.02255 l -9.69466,-6.49387 13.17977,12.80321 c -0.37656,-24.28844 0.12427,-40.51274 1.50626,-48.6729 3.13679,-17.57241 4.80121,-26.76624 4.98761,-27.58151 3.51523,-12.991488 8.75513,-21.464198 15.72347,-25.418128 7.15473,-4.01795 14.78017,-5.55434 22.87444,-4.61292 5.33592,0.68911 10.10512,2.22926 14.31135,4.61292 2.07111,1.19183 2.4778,1.06568 1.22195,-0.37657 -0.62698,-0.68911 -1.44412,-1.50626 -2.44767,-2.44767 l -4.04619,-1.69454 c -3.39097,-1.25397 -6.78005,-2.19538 -10.16726,-2.82424 -10.78858,-1.94684 -19.44958,-0.22029 -25.98298,5.17777 z"
     clip-rule="evenodd"
     fill="#889fa5"
     fill-rule="evenodd"
     id="path285"
     style="stroke-width:1.88282" />
  <path
     d="m 455.00818,81.391262 c -5.90078,-2.00709 -12.27037,-2.38554 -19.11068,-1.13157 -3.45121,0.69099 -6.27545,1.53827 -8.47271,2.54369 10.16726,-0.62886 18.10713,-0.31443 23.81774,0.94142 3.57736,0.81714 7.02858,3.45121 10.35553,7.90786 l 3.8598,6.39972 c 0.62886,-2.00709 0.66087,-4.20435 0.0941,-6.58988 -1.07321,-4.7692 -4.57527,-8.12628 -10.54382,-10.07124 z"
     clip-rule="evenodd"
     fill="#c7dfe8"
     fill-rule="evenodd"
     id="path287"
     style="stroke-width:1.88282" />
  <path
     d="m 438.15689,70.000172 c -4.45476,-0.12615 -7.71958,0.31255 -9.79069,1.3161 -3.00875,1.50626 -5.89512,4.33049 -8.66099,8.47271 0.72677,-0.9866 1.88659,-1.96002 3.48323,-2.91838 3.76565,-2.32152 8.50472,-3.38908 14.21721,-3.2008 5.77274,0.19016 11.39109,0.87928 16.8494,2.07299 l 6.49574,1.78868 -10.92038,-12.89923 c -1.94496,-2.25939 -5.11564,-5.30204 -9.50827,-9.1317 2.07111,2.63407 3.92193,5.2399 5.55434,7.81184 3.32695,5.20977 3.98405,7.72146 1.97696,7.5313 -5.02714,-0.49895 -8.24677,-0.78137 -9.69655,-0.84351 z"
     clip-rule="evenodd"
     fill="#d7edf4"
     fill-rule="evenodd"
     id="path289"
     style="stroke-width:1.88282" />
  <path
     d="m 408.21998,129.68384 c 0.37468,-4.39263 1.66253,-11.20092 3.85979,-20.42865 l 3.2008,-12.614928 -4.70706,11.673518 c -3.07654,9.41412 -4.51878,18.10524 -4.33238,26.07712 0.2523,9.60429 -0.25042,25.82671 -1.50626,48.67291 l 10.07499,-1.88282 -3.86167,-0.84728 c -2.5098,-1.12969 -3.76565,-3.07653 -3.76565,-5.83675 0,-22.91398 0.33891,-37.84478 1.03555,-44.81312 z"
     clip-rule="evenodd"
     fill="#b1ccd3"
     fill-rule="evenodd"
     id="path291"
     style="stroke-width:1.88282" />
  <path
     d="m 426.95409,113.96414 c -2.57194,-0.87928 -4.64305,-1.72655 -6.21333,-2.54182 l 0.75313,5.36605 c 0.94142,4.3305 2.60395,8.28443 4.98761,11.8618 0.87928,1.38011 1.50814,4.83133 1.88282,10.35554 0.62887,8.84927 0.94141,13.36994 0.94141,13.55634 0.62887,5.14576 3.01441,13.27391 7.15662,24.38258 -0.62886,-6.65202 -1.06756,-13.58835 -1.31798,-20.80522 -0.43869,-14.31135 0.31255,-22.65791 2.25939,-25.04345 4.01607,-4.83133 7.4993,-7.93799 10.44968,-9.3181 4.83133,-2.25939 7.5313,-3.60938 8.09615,-4.04807 2.9485,-2.19726 4.95936,-5.0215 6.02504,-8.47272 l 0.65899,-4.51878 -6.21332,6.58989 c -5.0215,4.33238 -9.91684,6.27734 -14.68604,5.83864 -4.76355,-0.37845 -9.69655,-1.44601 -14.78017,-3.20268 z"
     clip-rule="evenodd"
     fill="#9ab9c4"
     fill-rule="evenodd"
     id="path293"
     style="stroke-width:1.88282" />
  <g
     clip-rule="evenodd"
     fill-rule="evenodd"
     id="g314"
     transform="matrix(1.8828249,0,0,1.8828249,0.02353074,-37.697411)">
    <polygon
       points="35.4,117 35.4,99.85 212.3,95.2 212.7,116.45 "
       fill="#b7ccdb"
       id="polygon295" />
    <polygon
       points="212.3,96.9 35.4,98.1 37.15,91.85 207.5,89.5 "
       fill="#5b3231"
       id="polygon297" />
    <linearGradient
       id="bn"
       x1="-124.81"
       x2="-90.507004"
       y1="126.01"
       y2="126.01"
       gradientTransform="matrix(0.0211,-0.9998,0.9998,0.0211,3.8981e-4,7.0153e-5)"
       gradientUnits="userSpaceOnUse">
      <stop
         stop-color="#3C6781"
         offset="0"
         id="stop299" />
      <stop
         stop-color="#7092A7"
         stop-opacity=".5725"
         offset=".4039"
         id="stop301" />
      <stop
         stop-color="#B7CCDB"
         stop-opacity="0"
         offset=".9843"
         id="stop303" />
    </linearGradient>
    <polygon
       points="35.1,117.3 35.1,100.15 212,95.5 212.4,116.75 "
       fill="url(#bn)"
       id="polygon306"
       style="fill:url(#bn)" />
    <path
       d="m 44.1,103.85 c -4.1,0.301 -6.784,1.584 -8.05,3.851 -0.4,0.733 -0.633,1.5 -0.7,2.3 0,0.434 0.017,0.783 0.05,1.05 -0.367,-1.434 -0.65,-2.916 -0.85,-4.45 -0.4,-3.066 -0.2,-4.783 0.6,-5.149 1,-0.5 13.217,-0.917 36.65,-1.25 19.333,-0.3 36.767,-0.45 52.3,-0.45 h 52 c 23.267,0.033 35.384,0.2 36.351,0.5 0.933,0.3 1.25,2.116 0.95,5.45 -0.134,1.7 -0.367,3.35 -0.7,4.95 -0.167,-0.767 -0.601,-1.617 -1.3,-2.551 -1.4,-1.833 -3.45,-3.133 -6.15,-3.899 -2.2,-0.601 -28.367,-1.316 -78.5,-2.15 -9.2,-0.166 -24.717,0.033 -46.55,0.601 -19.933,0.5 -31.967,0.9 -36.1,1.2 z"
       fill="#8aa6ad"
       id="path308" />
    <path
       d="m 48.2,101.85 c -3.067,0.334 -6.233,0.483 -9.5,0.45 l -4,-0.149 c -0.1,-0.834 -0.15,-1.7 -0.15,-2.601 0,-1.767 0.284,-2.783 0.85,-3.05 0.967,-0.434 30.55,-0.917 88.75,-1.45 58.3,-0.5 87.683,-0.45 88.149,0.15 0.667,0.866 0.75,3 0.25,6.399 -3.366,-1 -6.566,-1.5 -9.6,-1.5 -34.033,-0.166 -57.283,-0.166 -69.75,0 -52.067,0.7 -80.4,1.28 -85,1.75 z"
       fill="#7a919b"
       id="path310" />
    <path
       d="m 46.5,96.7 c -3.033,0.133 -5.833,0.184 -8.4,0.149 L 35.15,96.7 c -0.2,-0.2 -0.333,-0.434 -0.4,-0.7 -0.133,-0.467 0.083,-0.75 0.65,-0.85 1,-0.2 30.583,-0.417 88.75,-0.65 58.3,-0.2 87.683,-0.167 88.149,0.1 0.667,0.367 0.75,1.301 0.25,2.801 -3.366,-0.467 -6.566,-0.7 -9.6,-0.7 -34.033,-0.066 -57.283,-0.066 -69.75,0 -4.101,0.033 -19.967,0 -47.6,-0.101 -23.267,-0.067 -36.3,-0.034 -39.1,0.1 z"
       fill="#465151"
       id="path312" />
  </g>
  <g
     clip-rule="evenodd"
     fill-rule="evenodd"
     id="g335"
     transform="matrix(1.8828249,0,0,1.8828249,0.02353074,-37.697411)">
    <path
       d="M 40.45,98.45 C 38.983,98.283 37.583,96.8 36.25,94 35.183,91.733 34.4,89.267 33.9,86.6 c -0.433,-2.267 0.217,-4.8 1.95,-7.6 1.8,-2.934 4.017,-4.833 6.65,-5.7 2.833,-0.934 11.6,-1.566 26.3,-1.899 14.833,-0.334 23.167,-0.051 25,0.85 1.534,0.767 2.467,2.983 2.8,6.65 0.033,0.399 0.05,2.6 0.05,6.6 0,7.267 -0.9,11.35 -2.7,12.25 -1.267,0.634 -10.134,0.983 -26.6,1.05 -15.467,0.032 -24.433,-0.084 -26.9,-0.351 z"
       fill="#cce4f4"
       id="path316" />
    <path
       d="m 65.75,99.15 c -14.6,0.066 -23.083,-0.034 -25.45,-0.301 -1.333,-0.166 -2.6,-1.616 -3.8,-4.35 -0.967,-2.167 -1.733,-4.684 -2.3,-7.55 3.633,-2.5 11.083,-4.25 22.35,-5.25 7.6,-0.7 15.633,-0.9 24.1,-0.601 4.267,0.134 7.75,0.334 10.45,0.601 l 0.75,1.2 c 0.6,1.033 1.133,2.066 1.6,3.1 0,7.066 -0.867,11.1 -2.6,12.1 -1.167,0.668 -9.534,1.017 -25.1,1.051 z"
       fill="#b7ccdb"
       id="path318" />
    <linearGradient
       id="bo"
       x1="-104.95"
       x2="-80.477997"
       y1="65.329002"
       y2="65.329002"
       gradientTransform="matrix(4.0858e-5,-1,1,-0.001,5.2661e-5,-2.8164e-4)"
       gradientUnits="userSpaceOnUse">
      <stop
         stop-color="#3C6781"
         offset="0"
         id="stop320" />
      <stop
         stop-color="#7092A7"
         stop-opacity=".5725"
         offset=".4039"
         id="stop322" />
      <stop
         stop-color="#B7CCDB"
         stop-opacity="0"
         offset=".9843"
         id="stop324" />
    </linearGradient>
    <path
       d="M 40.45,98.45 C 39.05,98.283 37.7,96.9 36.4,94.3 c -1,-2.033 -1.8,-4.416 -2.4,-7.149 3.7,-2.334 11.583,-4 23.65,-5 8.067,-0.634 16.583,-0.834 25.55,-0.601 4.466,0.134 8.133,0.334 11,0.601 L 95,83.3 c 0.6,1 1.15,1.983 1.65,2.95 0,6.767 -0.9,10.6 -2.7,11.5 -1.267,0.634 -10.134,0.983 -26.6,1.05 -15.467,0.033 -24.433,-0.083 -26.9,-0.35 z"
       fill="url(#bo)"
       id="path327"
       style="fill:url(#bo)" />
    <path
       d="m 52.4,83.05 c -1.775,0.125 -3.575,0.325 -5.4,0.601 -4.867,0.733 -7.55,1.716 -8.05,2.949 -0.667,1.767 -0.65,3.417 0.05,4.95 0.767,1.767 2.316,2.8 4.65,3.101 2.633,0.333 8.367,0.433 17.2,0.3 C 69.883,94.816 76.1,94.5 79.5,94 c 2.367,-0.333 5.233,-0.616 8.6,-0.85 2.267,-0.267 3.566,-0.884 3.9,-1.851 0.2,-0.6 0.533,-1.166 1,-1.7 -0.9,-2.866 -1.367,-4.416 -1.4,-4.649 -0.167,-0.934 -2.017,-1.684 -5.55,-2.25 -2.733,-0.467 -4,-0.717 -3.8,-0.75 1.3,-0.233 3.25,-0.351 5.85,-0.351 l 1.35,-0.149 c 1.033,-0.367 1.883,-1.316 2.55,-2.851 0.633,-1.533 1.133,-3.05 1.5,-4.55 l 0.3,-1.8 5.2,1.651 -1.55,4.35 c -0.7,1.8 -0.5,5.25 0.6,10.35 0.534,2.567 1.133,4.95 1.8,7.15 l -10.375,0.575 c -0.323,0.8 -0.531,0.808 -0.625,0.024 l 0.625,-0.024 c 0.028,-0.059 0.053,-0.117 0.075,-0.175 -27.267,0.633 -43.883,0.733 -49.85,0.3 -1.3,-0.533 -2.534,-2.033 -3.7,-4.5 -0.934,-1.967 -1.633,-4.084 -2.1,-6.351 l 2.95,-0.85 c 2.3,-0.634 4.183,-1.017 5.65,-1.15 2.073,-0.177 5.373,-0.36 9.9,-0.549 z"
       fill="#85a5b2"
       id="path329" />
    <path
       d="M 93.95,91.25 97.3,98.1 86.65,98.35 89.2,97.7 c 1.767,-0.533 2.917,-1.033 3.45,-1.5 0.767,-0.7 1.217,-1.733 1.35,-3.101 z"
       fill="#404d51"
       id="path331" />
    <path
       d="m 66.65,78.7 c 2.733,-0.2 6.717,0 11.95,0.6 4.867,0.566 7.9,0.733 9.1,0.5 0.9,-0.166 2.083,-1 3.55,-2.5 0.733,-0.733 1.367,-1.467 1.9,-2.2 -0.2,1.101 -0.55,2.184 -1.05,3.25 -1.034,2.2 -2.367,3.284 -4,3.25 -3.633,-0.133 -6.917,-0.233 -9.85,-0.3 -5.567,-0.133 -10.6,-0.05 -15.1,0.25 -4.566,0.3 -10.816,1.233 -18.75,2.8 L 33.9,86.6 c -0.2,-0.399 -0.35,-0.883 -0.45,-1.449 -0.167,-1.067 -0.017,-1.9 0.45,-2.5 0.767,-0.967 1.417,-2.167 1.95,-3.601 L 36,80.8 c 0.433,1.134 1.55,1.634 3.35,1.5 0.633,-0.066 4.017,-0.566 10.15,-1.5 6.1,-0.967 11.816,-1.666 17.15,-2.1 z"
       fill="#d7edf4"
       id="path333" />
  </g>
  <g
     clip-rule="evenodd"
     fill-rule="evenodd"
     id="g356"
     transform="matrix(1.8828249,0,0,1.8828249,0.02353074,-37.697411)">
    <path
       d="m 182.45,70.45 c 14.066,0.333 22.45,0.967 25.149,1.899 2.533,0.867 4.667,2.767 6.4,5.7 1.633,2.8 2.25,5.334 1.85,7.601 -0.5,2.733 -1.25,5.199 -2.25,7.399 -1.3,2.8 -2.649,4.283 -4.05,4.45 -2.3,0.267 -10.85,0.366 -25.649,0.3 -15.733,-0.066 -24.2,-0.399 -25.4,-1 -1.767,-0.934 -2.65,-5.017 -2.65,-12.25 0,-3.833 0.033,-6.05 0.101,-6.649 0.3,-3.667 1.183,-5.867 2.649,-6.601 1.73,-0.899 9.68,-1.183 23.85,-0.849 z"
       fill="#cce4f4"
       id="path337" />
    <path
       d="m 158.2,81.2 10.55,-0.601 c 8.566,-0.267 16.7,-0.066 24.4,0.601 11.533,1 19.05,2.666 22.55,5 -0.533,2.666 -1.283,5.05 -2.25,7.149 -1.233,2.601 -2.533,3.983 -3.9,4.15 -2.3,0.267 -10.85,0.366 -25.649,0.3 -15.733,-0.066 -24.2,-0.399 -25.4,-1 -1.767,-0.934 -2.65,-4.767 -2.65,-11.5 0.5,-1 1.051,-1.983 1.65,-2.95 0.27,-0.465 0.5,-0.849 0.7,-1.149 z"
       fill="#b7ccdb"
       id="path339" />
    <linearGradient
       id="bp"
       x1="-81.416"
       x2="-57.883999"
       y1="194.99001"
       y2="194.99001"
       gradientTransform="matrix(0.1243,-0.9922,0.9922,0.1243,-4.9442e-4,-2.2688e-4)"
       gradientUnits="userSpaceOnUse">
      <stop
         stop-color="#3C6781"
         offset="0"
         id="stop341" />
      <stop
         stop-color="#7092A7"
         stop-opacity=".5725"
         offset=".4039"
         id="stop343" />
      <stop
         stop-color="#B7CCDB"
         stop-opacity="0"
         offset=".9843"
         id="stop345" />
    </linearGradient>
    <path
       d="m 158.2,81.2 10.55,-0.601 c 8.566,-0.267 16.7,-0.066 24.4,0.601 11.533,1 19.05,2.666 22.55,5 -0.533,2.666 -1.283,5.05 -2.25,7.149 -1.233,2.601 -2.533,3.983 -3.9,4.15 -2.3,0.267 -10.85,0.366 -25.649,0.3 -15.733,-0.066 -24.2,-0.399 -25.4,-1 -1.767,-0.934 -2.65,-4.767 -2.65,-11.5 0.5,-1 1.051,-1.983 1.65,-2.95 0.27,-0.465 0.5,-0.849 0.7,-1.149 z"
       fill="url(#bp)"
       id="path348"
       style="fill:url(#bp)" />
    <path
       d="m 158.9,73.1 c 0.333,1.5 0.816,3.017 1.449,4.551 0.634,1.533 1.434,2.483 2.4,2.85 0.5,0.2 0.934,0.25 1.3,0.15 l 2.101,0.05 c 1.566,0.066 2.732,0.166 3.5,0.3 0.199,0.033 -1.018,0.283 -3.65,0.75 -3.367,0.566 -5.134,1.316 -5.3,2.25 -0.067,0.434 -0.233,1.134 -0.5,2.1 -0.167,0.534 -0.434,1.384 -0.8,2.551 0.466,0.566 0.783,1.133 0.949,1.699 0.301,0.967 1.533,1.584 3.7,1.851 1.367,0.166 4.101,0.45 8.2,0.85 3.267,0.5 9.217,0.816 17.85,0.95 8.467,0.134 13.95,0.033 16.45,-0.3 2.2,-0.3 3.684,-1.334 4.45,-3.101 0.633,-1.533 0.633,-3.183 0,-4.949 -0.467,-1.233 -3.033,-2.217 -7.7,-2.95 l -6.85,-0.7 4.35,0.2 c 3.167,0.166 5.45,0.316 6.851,0.45 2.232,0.233 4.966,0.899 8.199,2 -0.467,2.267 -1.133,4.383 -2,6.35 -1.133,2.467 -2.316,3.967 -3.55,4.5 -3.167,0.233 -10.467,0.283 -21.899,0.15 -8.9,-0.101 -17.483,-0.267 -25.75,-0.5 0.021,0.06 0.047,0.118 0.074,0.175 l -9.87,-0.527 c 0.634,-2.2 1.217,-4.583 1.75,-7.149 1,-5.134 1.184,-8.584 0.551,-10.351 l -1.5,-4.35 4.949,-1.65 0.3,1.8 z m 3.82,22.225 0.575,0.024 c -0.06,0.816 -0.25,0.807 -0.58,-0.024 z"
       fill="#85a5b2"
       id="path350" />
    <path
       d="m 158.5,90.3 -0.05,1.851 c 0.133,1.333 0.55,2.35 1.25,3.05 0.8,0.767 2.717,1.5 5.75,2.2 l -10.2,-0.25 z"
       fill="#404d51"
       id="path352" />
    <path
       d="m 187.9,80.6 c -4.334,-0.3 -9.15,-0.383 -14.45,-0.25 -5,0.2 -8.134,0.301 -9.4,0.301 -1.533,0.033 -2.8,-1.051 -3.8,-3.25 l -1.05,-3.25 1.85,2.199 c 1.4,1.467 2.533,2.284 3.4,2.45 1.166,0.233 4.05,0.084 8.649,-0.45 5.033,-0.6 8.851,-0.8 11.45,-0.6 5.167,0.434 10.634,1.116 16.4,2.05 6.133,1 9.35,1.517 9.649,1.55 1.7,0.134 2.767,-0.366 3.2,-1.5 l 0.15,-1.75 0.5,1.25 c 0.467,0.967 0.933,1.75 1.399,2.351 0.467,0.6 0.601,1.434 0.4,2.5 -0.066,0.566 -0.2,1.05 -0.4,1.45 -2.899,-0.7 -6.25,-1.45 -10.05,-2.25 -7.57,-1.568 -13.53,-2.501 -17.9,-2.801 z"
       fill="#d7edf4"
       id="path354" />
  </g>
  <g
     clip-rule="evenodd"
     fill-rule="evenodd"
     id="g375"
     transform="matrix(1.8828249,0,0,1.8828249,0.02353074,-37.697411)">
    <path
       d="m 97,72.5 c 2.033,-1.533 11.467,-2.417 28.3,-2.65 16.566,-0.233 26.101,0.233 28.601,1.4 2.199,1 3.75,2.733 4.649,5.2 0.8,2.066 1.083,4.517 0.851,7.35 -0.301,4.2 -0.551,6.867 -0.75,8 -0.601,3.167 -1.634,4.816 -3.101,4.95 -2.767,0.3 -12.366,0.55 -28.8,0.75 -17.7,0.233 -27.2,0.05 -28.5,-0.55 -1.3,-0.634 -2.517,-2.884 -3.65,-6.75 -0.967,-3.2 -1.45,-5.533 -1.45,-7 0,-1.434 0.283,-3.167 0.85,-5.2 0.767,-2.733 1.767,-4.566 3,-5.5 z"
       fill="#cce4f4"
       id="path358" />
    <path
       d="M 98.25,96.95 C 97.283,96.483 96.333,95.016 95.4,92.55 94.7,90.717 94.084,88.567 93.55,86.1 l -0.4,-2.899 8.6,-1.601 c 7.4,-1.1 15.316,-1.649 23.75,-1.649 20.8,0 32.1,0.833 33.9,2.5 l 0.1,0.1 -0.1,1.25 c -0.301,4.134 -0.518,6.65 -0.65,7.55 -0.5,3 -1.367,4.75 -2.6,5.25 l -1.95,0.25 c -6.5,0.334 -16.601,0.567 -30.3,0.7 -15.87,0.166 -24.417,-0.034 -25.65,-0.601 z"
       fill="#b7ccdb"
       id="path360" />
    <linearGradient
       id="bq"
       x1="-95.181999"
       x2="-73.443001"
       y1="131.05"
       y2="131.05"
       gradientTransform="matrix(0.0598,-0.9982,0.9982,0.0598,8.3283e-5,-2.1362e-4)"
       gradientUnits="userSpaceOnUse">
      <stop
         stop-color="#3C6781"
         offset="0"
         id="stop362" />
      <stop
         stop-color="#7092A7"
         stop-opacity=".5725"
         offset=".4039"
         id="stop364" />
      <stop
         stop-color="#B7CCDB"
         stop-opacity="0"
         offset=".9843"
         id="stop366" />
    </linearGradient>
    <path
       d="M 98.25,96.95 C 97.283,96.483 96.333,95.016 95.4,92.55 94.7,90.717 94.084,88.567 93.55,86.1 l -0.4,-2.899 8.6,-1.601 c 7.4,-1.1 15.316,-1.649 23.75,-1.649 20.8,0 32.1,0.833 33.9,2.5 l 0.1,0.1 -0.1,1.25 c -0.301,4.134 -0.518,6.65 -0.65,7.55 -0.5,3 -1.367,4.75 -2.6,5.25 l -1.95,0.25 c -6.5,0.334 -16.601,0.567 -30.3,0.7 -15.87,0.166 -24.417,-0.034 -25.65,-0.601 z"
       fill="url(#bq)"
       id="path369"
       style="fill:url(#bq)" />
    <path
       d="m 95.5,88.2 2.25,1.7 c 1.8,1.199 3.517,1.949 5.15,2.25 2.167,0.399 9.617,0.566 22.35,0.5 11.333,-0.067 19.733,-0.233 25.2,-0.5 3.6,-0.134 5.983,-0.95 7.149,-2.45 0.171,-0.221 0.313,-0.438 0.426,-0.65 l -0.375,2.4 c -0.634,2.733 -1.434,4.333 -2.4,4.8 -1.134,0.5 -9.983,0.816 -26.55,0.95 -16.4,0.1 -25.833,-0.05 -28.3,-0.45 -1.967,-0.3 -3.367,-1.816 -4.2,-4.55 l -0.71,-4 z"
       fill="#7b9aaa"
       id="path371" />
    <path
       d="m 94.45,76.1 1.05,4.8 c 0.066,0.399 4.283,0.116 12.65,-0.851 9.8,-1.1 16.233,-1.616 19.3,-1.55 8.2,0.267 13.116,0.45 14.75,0.55 3.833,0.2 7.616,0.617 11.35,1.25 3.4,0.601 5.15,-0.033 5.25,-1.899 0.014,-0.185 0.022,-0.36 0.025,-0.525 0.268,1.138 0.46,2.663 0.575,4.575 -1.768,-0.167 -4.434,-0.334 -8,-0.5 -7.101,-0.367 -15.084,-0.55 -23.95,-0.55 -7.8,0 -16.117,0.466 -24.95,1.399 -6.1,0.634 -9.217,0.767 -9.35,0.4 -0.2,-0.566 -0.05,-1.917 0.45,-4.05 z"
       fill="#d7edf4"
       id="path373" />
  </g>
  <use
     transform="matrix(1,0,0,-1,124,14.449344)"
     x="16383"
     y="16383"
     width="-32766"
     height="-32766"
     xlink:href="#bh"
     id="use469" />
</svg>
