<?xml version="1.0" encoding="UTF-8" standalone="no"?>
<svg
   xmlns:dc="http://purl.org/dc/elements/1.1/"
   xmlns:cc="http://creativecommons.org/ns#"
   xmlns:rdf="http://www.w3.org/1999/02/22-rdf-syntax-ns#"
   xmlns:svg="http://www.w3.org/2000/svg"
   xmlns="http://www.w3.org/2000/svg"
   xmlns:xlink="http://www.w3.org/1999/xlink"
   xmlns:sodipodi="http://sodipodi.sourceforge.net/DTD/sodipodi-0.dtd"
   xmlns:inkscape="http://www.inkscape.org/namespaces/inkscape"
   viewBox="0 0 306.94123 322.90401"
   version="1.1"
   id="svg184"
   sodipodi:docname="soup.svg"
   width="81.211533mm"
   height="85.43502mm"
   inkscape:version="1.0.2-2 (e86c870879, 2021-01-15)">
  <metadata
     id="metadata188">
    <rdf:RDF>
      <cc:Work
         rdf:about="">
        <dc:format>image/svg+xml</dc:format>
        <dc:type
           rdf:resource="http://purl.org/dc/dcmitype/StillImage" />
        <dc:title />
      </cc:Work>
    </rdf:RDF>
  </metadata>
  <sodipodi:namedview
     pagecolor="#ffffff"
     bordercolor="#666666"
     borderopacity="1"
     objecttolerance="10"
     gridtolerance="10"
     guidetolerance="10"
     inkscape:pageopacity="0"
     inkscape:pageshadow="2"
     inkscape:window-width="1920"
     inkscape:window-height="1017"
     id="namedview186"
     showgrid="false"
     units="mm"
     inkscape:zoom="1.5816862"
     inkscape:cx="38.744418"
     inkscape:cy="162.28854"
     inkscape:window-x="-8"
     inkscape:window-y="-8"
     inkscape:window-maximized="1"
     inkscape:current-layer="svg184"
     inkscape:document-rotation="0" />
  <defs
     id="defs66">
    <linearGradient
       id="c">
      <stop
         stop-color="#333"
         offset="0"
         id="stop2" />
      <stop
         offset=".5"
         id="stop4" />
      <stop
         stop-color="#333"
         offset="1"
         id="stop6" />
    </linearGradient>
    <linearGradient
       id="b">
      <stop
         stop-color="#24280f"
         stop-opacity=".94472"
         offset="0"
         id="stop9" />
      <stop
         stop-color="#250"
         offset=".5"
         id="stop11" />
      <stop
         stop-color="#24280f"
         offset="1"
         id="stop13" />
    </linearGradient>
    <linearGradient
       id="p"
       x1="71.428001"
       x2="260.69"
       y1="272.25"
       y2="156.46001"
       gradientUnits="userSpaceOnUse"
       gradientTransform="matrix(1.3723554,0,0,1.3326938,-81.360678,-174.24674)">
      <stop
         stop-color="#f7e6d2"
         offset="0"
         id="stop16" />
      <stop
         stop-color="#e3cda8"
         offset="1"
         id="stop18" />
    </linearGradient>
    <linearGradient
       id="d"
       x1="1689"
       x2="1691.6"
       y1="322.39001"
       y2="257.12"
       gradientUnits="userSpaceOnUse">
      <stop
         stop-color="#d5bf76"
         offset="0"
         id="stop21" />
      <stop
         stop-color="#fdfdf9"
         offset="1"
         id="stop23" />
    </linearGradient>
    <linearGradient
       id="j"
       x1="1830.3"
       x2="1596.5"
       y1="197.2"
       y2="363.20001"
       gradientUnits="userSpaceOnUse"
       gradientTransform="matrix(1.0896033,0,0,1.0896033,-1745.2939,-179.70827)">
      <stop
         stop-color="#dfcfb8"
         offset="0"
         id="stop26" />
      <stop
         stop-color="#fff"
         offset="1"
         id="stop28" />
    </linearGradient>
    <linearGradient
       id="i"
       x1="1729.3"
       x2="1729.2"
       y1="350.39999"
       y2="487.81"
       gradientUnits="userSpaceOnUse"
       gradientTransform="matrix(1.0896033,0,0,1.0896033,-1745.2939,-179.70827)">
      <stop
         stop-color="#e6d1af"
         offset="0"
         id="stop31" />
      <stop
         stop-color="#736345"
         offset="1"
         id="stop33" />
    </linearGradient>
    <linearGradient
       id="h"
       x1="1750.4"
       x2="1747.4"
       y1="315.60001"
       y2="344.53"
       gradientUnits="userSpaceOnUse"
       gradientTransform="matrix(1.0896033,0,0,1.0896033,-1745.2939,-179.70827)">
      <stop
         stop-color="#e5d2a7"
         offset="0"
         id="stop36" />
      <stop
         stop-color="#e5d2a7"
         stop-opacity="0"
         offset="1"
         id="stop38" />
    </linearGradient>
    <linearGradient
       id="o"
       x1="1980.8"
       x2="1991.5"
       y1="504.67001"
       y2="512.71002"
       gradientTransform="matrix(-0.86303,0.22158,0.22158,0.86303,1803.2,-723.32)"
       gradientUnits="userSpaceOnUse"
       xlink:href="#c" />
    <linearGradient
       id="n"
       x1="2007.9"
       x2="2018.4"
       y1="493.07001"
       y2="498.63"
       gradientTransform="matrix(-0.79331,0.40567,0.40567,0.79331,1604.9,-1069.92)"
       gradientUnits="userSpaceOnUse"
       xlink:href="#c" />
    <linearGradient
       id="m"
       x1="1755.5"
       x2="1785.5"
       y1="316.14999"
       y2="355.14999"
       gradientUnits="userSpaceOnUse"
       xlink:href="#b"
       gradientTransform="matrix(1.0896033,0,0,1.0896033,-1745.2939,-179.70827)" />
    <linearGradient
       id="l"
       x1="1743"
       x2="1756.9"
       y1="227.34"
       y2="273.20001"
       gradientUnits="userSpaceOnUse"
       xlink:href="#b"
       gradientTransform="matrix(1.0896033,0,0,1.0896033,-1745.2939,-179.70827)" />
    <linearGradient
       id="k"
       x1="1754.5"
       x2="1784.5"
       y1="317.14999"
       y2="356.14999"
       gradientUnits="userSpaceOnUse"
       xlink:href="#b"
       gradientTransform="matrix(1.0896033,0,0,1.0896033,-1745.2939,-179.70827)" />
    <radialGradient
       id="g"
       cx="201.71001"
       cy="208.25"
       r="110.77"
       gradientTransform="matrix(1.1378727,0,0,0.88960969,-41.154316,-55.853971)"
       gradientUnits="userSpaceOnUse">
      <stop
         stop-color="#a0520a"
         offset="0"
         id="stop46" />
      <stop
         stop-color="#a0520a"
         stop-opacity=".42211"
         offset="1"
         id="stop48" />
    </radialGradient>
    <radialGradient
       id="f"
       cx="126.06"
       cy="271.94"
       r="110.77"
       gradientTransform="matrix(1.1378727,0,0,0.88960969,-41.154316,-55.853971)"
       gradientUnits="userSpaceOnUse">
      <stop
         stop-color="#d0891f"
         offset="0"
         id="stop51" />
      <stop
         stop-color="#d0891f"
         stop-opacity=".79899"
         offset="1"
         id="stop53" />
    </radialGradient>
    <radialGradient
       id="a"
       cx="439"
       cy="32.5"
       r="20"
       gradientTransform="matrix(1,0,0,1.575,0,-18.688)"
       gradientUnits="userSpaceOnUse">
      <stop
         stop-color="#f6ffd5"
         stop-opacity="0"
         offset="0"
         id="stop56" />
      <stop
         stop-color="#f6ffd5"
         offset="1"
         id="stop58" />
    </radialGradient>
    <radialGradient
       id="e"
       cx="850.71002"
       cy="509.97"
       r="74.831001"
       gradientTransform="matrix(-1.2254995,1.6631302,-1.3821337,-1.2004868,1882.7477,-583.66863)"
       gradientUnits="userSpaceOnUse">
      <stop
         offset="0"
         id="stop61" />
      <stop
         stop-opacity="0"
         offset="1"
         id="stop63" />
    </radialGradient>
    <linearGradient
       inkscape:collect="always"
       xlink:href="#d"
       id="linearGradient1013"
       gradientUnits="userSpaceOnUse"
       x1="1689"
       y1="322.39001"
       x2="1691.6"
       y2="257.12"
       gradientTransform="matrix(1.0896033,0,0,1.0896033,-1745.2939,-179.70827)" />
    <radialGradient
       inkscape:collect="always"
       xlink:href="#a"
       id="radialGradient1015"
       gradientUnits="userSpaceOnUse"
       gradientTransform="matrix(0.10322902,-0.10171447,0.15058999,0.17296826,24.614278,206.0619)"
       cx="439"
       cy="32.5"
       r="20" />
    <radialGradient
       inkscape:collect="always"
       xlink:href="#a"
       id="radialGradient1017"
       gradientUnits="userSpaceOnUse"
       gradientTransform="matrix(0.04741954,-0.0881707,0.13464718,0.08350665,164.81747,178.82639)"
       cx="439"
       cy="32.5"
       r="20" />
    <radialGradient
       inkscape:collect="always"
       xlink:href="#a"
       id="radialGradient1019"
       gradientUnits="userSpaceOnUse"
       gradientTransform="matrix(0.08499995,-0.08374691,0.12399005,0.14240407,104.90678,208.35315)"
       cx="439"
       cy="32.5"
       r="20" />
    <linearGradient
       inkscape:collect="always"
       xlink:href="#d"
       id="linearGradient1021"
       gradientUnits="userSpaceOnUse"
       x1="1689"
       y1="322.39001"
       x2="1691.6"
       y2="257.12"
       gradientTransform="matrix(1.0896033,0,0,1.0896033,-1745.2939,-179.70827)" />
  </defs>
  <path
     d="M 187.49068,291.10138 C 124.31631,332.43404 49.770208,333.6348 20.984968,293.78496 -7.800279,253.93512 20.077688,188.12359 83.250038,146.79226 146.42238,105.46091 220.97051,104.25883 249.75576,144.10867 278.541,183.95852 250.66303,249.77003 187.49068,291.10138 Z"
     fill="url(#e)"
     opacity="0.5"
     id="path68"
     style="fill:url(#e);stroke-width:1.19942" />
  <path
     d="m 2.974617,140.46076 c 8.997291,28.66964 19.536591,58.32537 41.494271,79.82107 18.4666,19.25547 42.43896,32.12695 66.475612,43.0949 25.1001,10.78173 53.02881,7.71134 79.00386,3.73614 22.02306,-3.39314 41.75469,-17.20702 57.85467,-32.25771 18.42083,-16.65023 38.41396,-34.44672 44.45363,-59.64052 5.004,-7.85615 0.66738,-9.52303 -6.47148,-9.13589 L 2.978648,140.46109 Z"
     fill="url(#i)"
     id="path70"
     style="fill:url(#i);stroke-width:1.0896" />
  <path
     d="m 305.43768,122.87734 c 0,67.0838 -68.06335,121.46703 -152.01581,121.46703 -83.952462,0 -152.015797,-54.38323 -152.015797,-121.46703 0,-67.083811 68.063335,-121.4670457 152.015797,-121.4670457 83.95246,0 152.01581,54.3832347 152.01581,121.4670457 z"
     fill="url(#p)"
     id="path72"
     style="fill:url(#p);stroke-width:1.35238" />
  <path
     d="m 279.5551,142.4858 c 0,54.42558 -56.43393,98.54711 -126.04216,98.54711 -69.608212,0 -126.042152,-44.12153 -126.042152,-98.54711 0,-54.425581 56.43394,-98.5471 126.042152,-98.5471 69.60823,0 126.04216,44.121519 126.04216,98.5471 z"
     fill="url(#g)"
     id="path74"
     style="fill:url(#g);stroke-width:1.10918" />
  <path
     d="M 153.44883,0 C 68.849848,0 0,54.854988 0,122.85277 c 0,67.99778 68.847668,122.89635 153.44883,122.89635 84.60116,0 153.49241,-54.89748 153.49241,-122.89635 C 306.94124,54.853899 238.05108,0 153.44883,0 Z m 0,2.7902561 c 83.31978,0 150.61586,53.8994059 150.61586,120.0633839 0,66.16398 -67.29499,120.10697 -150.61586,120.10697 -83.320872,0 -150.572277,-53.94081 -150.572277,-120.10697 0,-66.166157 67.252495,-120.0633839 150.572277,-120.0633839 z"
     fill="url(#j)"
     id="path76"
     style="fill:url(#j);stroke-width:1.0896" />
  <path
     d="m 95.917778,169.41152 31.856732,-8.33154 21.79206,-20.70247 -2.724,-7.62722 -17.43366,3.26881 z"
     fill="#f2edd6"
     id="path84"
     style="stroke-width:1.0896" />
  <path
     d="m 146.80225,157.9271 v -32.18252 l 38.75065,7.22472 -3.94077,37.43659 z"
     fill="#ffffe8"
     id="path86"
     style="stroke-width:1.0896" />
  <path
     d="m 146.14849,157.9271 -0.65682,18.39032 29.55549,15.10626 5.9111,-21.67438 z"
     fill="url(#h)"
     id="path88"
     style="fill:url(#h);stroke-width:1.0896" />
  <path
     d="m 187.33549,112.63229 -0.31598,26.65824 29.13163,20.81687 1.07893,-26.97422 z"
     fill="#f6f3e3"
     id="path90"
     style="stroke-width:1.0896" />
  <path
     d="m 216.53686,159.47434 21.04024,-19.42109 0.26978,-25.62529 -21.84872,20.77002 z"
     fill="#f2f2f2"
     id="path92"
     style="stroke-width:1.0896" />
  <path
     d="m 198.99425,102.4554 -11.82547,10.63354 29.1349,21.57742 21.57742,-20.50416 -12.63613,-8.89312 -26.25072,-2.81336 z"
     fill="#efe7ca"
     id="path94"
     style="stroke-width:1.0896" />
  <path
     d="m 248.02639,121.07672 c -2.4941,-0.078 -5.37991,0.23835 -5.37991,0.23835 0,0 -33.89102,27.56587 -52.30096,39.22572 -10.74883,6.80751 -22.31398,12.22534 -33.71015,17.91089 10.54769,7.35799 17.3661,19.04954 17.3661,32.21086 0,3.00174 -0.34878,5.93626 -1.0215,8.75082 4.46181,-2.2764 8.64556,-4.54659 11.91808,-6.57162 16.73957,-10.36049 31.51133,-23.62042 46.85294,-35.95691 14.06133,-11.30681 41.40492,-34.8673 41.40492,-34.8673 0,0 -1.49232,-8.84584 -4.35841,-11.98564 -4.60063,-5.03985 -11.8636,-7.22821 -18.52325,-8.71682 -0.62032,-0.13865 -1.41594,-0.21236 -2.24731,-0.23835 z"
     fill="url(#k)"
     id="path96"
     style="fill:url(#k);stroke-width:1.0896" />
  <path
     d="m 69.113538,136.65804 26.3891,32.76328 32.733862,-28.16733 -59.122962,-4.59584 z"
     fill="url(#d)"
     id="path98"
     style="fill:url(#linearGradient1013);stroke-width:1.0896" />
  <path
     d="m 120.65177,86.97213 c 0.82712,4.066182 7.07643,4.794581 9.2528,8.327511 3.68875,5.988139 2.46153,14.038449 5.55164,20.355969 2.03255,4.15597 8.3274,11.10306 8.3274,11.10306 l 33.31026,-4.62635 46.26347,-10.17798 c 0,0 6.60561,-8.04487 7.40222,-12.954291 0.75575,-4.65708 -0.40272,-9.801424 -2.77576,-13.879373 -3.07933,-5.291222 -9.9787,-7.30993 -13.87937,-12.028126 -4.31407,-5.219091 -4.63931,-13.685417 -10.17798,-17.579659 -2.82066,-1.983732 -10.17799,-1.850583 -10.17799,-1.850583 l -66.61943,19.430896 c 0,0 -7.49462,8.87623 -6.47693,13.879362 z"
     fill="url(#l)"
     id="path100"
     style="fill:url(#l);stroke-width:1.0896" />
  <path
     d="m 66.171608,161.67533 v 7.46717 c -0.11888,0.72465 -0.1191,1.51073 0,2.33153 v 0.17853 l 0.0316,0.021 c 0.37853,2.27367 1.63211,4.78881 3.66531,6.98403 3.9728,4.28955 9.40655,5.72565 12.13056,3.20321 1.45734,-1.3498 1.84469,-3.56714 1.28126,-5.98628 l 0.24156,-4.46345 -4.29543,-2.40497 c -2.105,-2.08452 -4.54724,-3.40697 -6.76349,-3.80184 l -6.29083,-3.52879 z"
     fill="#f6ffd5"
     id="path102"
     style="stroke-width:1.0896" />
  <path
     d="m 79.659218,162.46771 c 3.97276,4.2895 4.98548,9.81162 2.26198,12.33401 -2.72349,2.52239 -8.15187,1.08985 -12.12463,-3.19965 -3.97277,-4.28952 -4.98548,-9.81164 -2.26199,-12.33403 2.7235,-2.52239 8.15188,-1.08985 12.12464,3.19967 z"
     fill="#f2edd6"
     id="path104"
     style="stroke-width:0.33607" />
  <path
     d="m 79.264728,162.80064 c 3.59023,3.96955 4.50554,9.07979 2.04442,11.41406 -2.46113,2.33426 -7.36671,1.00863 -10.95694,-2.9609 -3.59023,-3.96955 -4.50555,-9.07979 -2.04442,-11.41405 2.46112,-2.33427 7.3667,-1.00864 10.95694,2.96089 z"
     fill="#a7bd02"
     id="path106"
     style="stroke-width:0.30733" />
  <path
     d="m 79.120308,162.88513 c 3.51366,3.88956 4.40943,8.8968 2.00077,11.18401 -2.40865,2.2872 -7.20961,0.98828 -10.72326,-2.90128 -3.51365,-3.88955 -4.40942,-8.89678 -2.00077,-11.18399 2.40865,-2.28721 7.20961,-0.98828 10.72326,2.90126 z"
     fill="#fdfbff"
     id="path108"
     style="stroke-width:0.300956" />
  <path
     d="m 78.869028,163.00498 c 3.29717,3.77656 4.13775,8.63836 1.8775,10.85914 -2.26025,2.22077 -6.76543,0.95957 -10.0626,-2.81701 -3.29718,-3.77656 -4.13776,-8.63836 -1.87751,-10.85914 2.26026,-2.22077 6.76543,-0.95957 10.06261,2.81701 z"
     fill="#aad400"
     id="path110"
     style="stroke-width:0.287273" />
  <path
     d="m 78.752798,163.25393 c 3.24296,3.55024 4.06965,8.12065 1.84646,10.20832 -2.22318,2.08767 -6.65436,0.90203 -9.89732,-2.64822 -3.24296,-3.55023 -4.06965,-8.12064 -1.84646,-10.2083 2.22318,-2.08767 6.65436,-0.90203 9.89732,2.6482 z"
     fill="#f6ffd5"
     id="path112"
     style="stroke-width:0.276235" />
  <path
     d="m 78.494598,163.55236 c 2.97247,3.26743 3.73022,7.47382 1.6925,9.39528 -2.03772,1.92146 -6.09926,0.83035 -9.07173,-2.43707 -2.97246,-3.26742 -3.73021,-7.47381 -1.69249,-9.39527 2.03771,-1.92146 6.09926,-0.83035 9.07172,2.43706 z"
     fill="#aad400"
     id="path114"
     style="stroke-width:0.253713" />
  <path
     d="m 78.115168,163.79079 c 2.64775,3.04127 3.32277,6.95644 1.50771,8.74478 -1.81506,1.78835 -5.43288,0.77265 -8.08063,-2.26862 -2.64775,-3.04126 -3.32277,-6.95644 -1.5077,-8.74478 1.81506,-1.78834 5.43287,-0.77265 8.08062,2.26862 z"
     fill="#f6ffd5"
     id="path116"
     style="stroke-width:0.231014" />
  <path
     d="m 77.375498,164.44872 c 2.10656,2.41952 2.64366,5.53436 1.19965,6.95719 -1.44401,1.42282 -4.32231,0.61485 -6.42887,-1.80467 -2.10656,-2.41952 -2.64366,-5.53436 -1.19965,-6.95718 1.44401,-1.42283 4.32231,-0.61485 6.42887,1.80466 z"
     fill="#aad400"
     id="path118"
     style="stroke-width:0.183791" />
  <path
     d="m 76.890618,164.99647 c 1.66337,1.91056 2.08745,4.37015 0.94722,5.49366 -1.14024,1.12351 -3.41301,0.48548 -5.07638,-1.42508 -1.66338,-1.91056 -2.08746,-4.37014 -0.94722,-5.49365 1.14023,-1.12351 3.413,-0.48549 5.07638,1.42507 z"
     fill="url(#a)"
     id="path120"
     style="fill:url(#radialGradient1015);stroke-width:0.145128" />
  <path
     d="m 183.22736,141.05106 1.5213,4.92919 c 0.0686,0.50258 0.22915,1.02155 0.47496,1.53908 l 0.036,0.11785 0.0251,0.008 c 0.71315,1.42373 2.05303,2.82864 3.84238,3.86353 3.49653,2.0222 7.37607,1.86316 8.65995,-0.35682 0.6871,-1.18793 0.49097,-2.73054 -0.37374,-4.2127 l -0.74997,-2.99565 -3.32547,-0.71247 c -1.81419,-0.94718 -3.69583,-1.32262 -5.23925,-1.13171 l -4.87162,-1.04775 z"
     fill="#f6ffd5"
     id="path122"
     style="stroke-width:1.0896" />
  <path
     d="m 192.30489,138.80952 c 3.49641,2.02221 5.28996,5.46113 4.00601,7.68107 -1.28394,2.21994 -5.15916,2.38023 -8.65557,0.35802 -3.49639,-2.0222 -5.28994,-5.46113 -4.006,-7.68107 1.28395,-2.21993 5.15916,-2.38023 8.65556,-0.35802 z"
     fill="#f2edd6"
     id="path124"
     style="stroke-width:0.23217" />
  <path
     d="m 192.10277,139.13243 c 3.17871,1.88896 4.82398,5.07586 3.67484,7.11814 -1.14914,2.04229 -4.65754,2.16661 -7.83626,0.27766 -3.17869,-1.88895 -4.82396,-5.07584 -3.67482,-7.11813 1.14914,-2.04229 4.65754,-2.16661 7.83624,-0.27767 z"
     fill="#a7bd02"
     id="path126"
     style="stroke-width:0.212319" />
  <path
     d="m 192.0221,139.20266 c 3.11179,1.85179 4.72322,4.9748 3.59923,6.97545 -1.124,2.00066 -4.55776,2.12133 -7.66955,0.26954 -3.11178,-1.8518 -4.72321,-4.97481 -3.59922,-6.97547 1.12399,-2.00065 4.55776,-2.12132 7.66954,-0.26952 z"
     fill="#fdfbff"
     id="path128"
     style="stroke-width:0.207916" />
  <path
     d="m 191.911,139.34398 c 2.94593,1.82127 4.49129,4.85936 3.45166,6.78575 -1.03962,1.92638 -4.27053,2.0116 -7.21646,0.19033 -2.94592,-1.82127 -4.49128,-4.85936 -3.45166,-6.78575 1.03963,-1.92638 4.27054,-2.0116 7.21646,-0.19033 z"
     fill="#aad400"
     id="path130"
     style="stroke-width:0.198458" />
  <path
     d="m 191.86805,139.51617 c 2.86404,1.6829 4.34087,4.53153 3.29859,6.3626 -1.04227,1.83107 -4.20894,1.95119 -7.07298,0.26829 -2.86403,-1.6829 -4.34086,-4.53153 -3.29859,-6.3626 1.04227,-1.83106 4.20894,-1.95119 7.07298,-0.26829 z"
     fill="#f6ffd5"
     id="path132"
     style="stroke-width:0.190836" />
  <path
     d="m 191.7774,139.77963 c 2.62785,1.55134 3.98502,4.17371 3.03133,5.85722 -0.95368,1.68352 -3.85708,1.79067 -6.48494,0.23932 -2.62784,-1.55134 -3.985,-4.17371 -3.03132,-5.85722 0.95369,-1.68352 3.85709,-1.79067 6.48493,-0.23932 z"
     fill="#aad400"
     id="path134"
     style="stroke-width:0.175276" />
  <path
     d="m 191.53966,140.01766 c 2.3674,1.46812 3.61061,3.91502 2.77679,5.46531 -0.83382,1.55029 -3.4289,1.61688 -5.7963,0.14876 -2.36739,-1.46813 -3.61059,-3.91503 -2.77678,-5.46532 0.83382,-1.55028 3.4289,-1.61688 5.79629,-0.14875 z"
     fill="#f6ffd5"
     id="path136"
     style="stroke-width:0.159592" />
  <path
     d="m 191.18101,140.59623 c 1.88345,1.16805 2.8725,3.11482 2.2091,4.3482 -0.66339,1.23339 -2.728,1.28636 -4.61146,0.1183 -1.88346,-1.16805 -2.8725,-3.11482 -2.20911,-4.3482 0.6634,-1.23339 2.72801,-1.28636 4.61147,-0.1183 z"
     fill="#aad400"
     id="path138"
     style="stroke-width:0.12697" />
  <path
     d="m 190.95911,141.07003 c 1.48727,0.9224 2.26834,2.45964 1.74455,3.43355 -0.52378,0.97391 -2.15406,1.01567 -3.64133,0.0933 -1.48728,-0.92239 -2.26834,-2.45964 -1.74456,-3.43355 0.52379,-0.97391 2.15406,-1.01567 3.64134,-0.0933 z"
     fill="url(#a)"
     id="path140"
     style="fill:url(#radialGradient1017);stroke-width:0.100259" />
  <path
     d="m 139.17503,171.80865 v 6.14797 c -0.0981,0.59664 -0.0981,1.24389 0,1.91967 v 0.14699 l 0.0262,0.0173 c 0.31173,1.87194 1.34381,3.94284 3.01776,5.75027 3.27099,3.53173 7.7449,4.71417 9.9872,2.63728 1.19998,-1.11129 1.5188,-2.93692 1.05495,-4.92871 l 0.19885,-3.67491 -3.53652,-1.98014 c -1.73323,-1.71623 -3.74388,-2.80507 -5.56864,-3.13021 l -5.17954,-2.90532 z"
     fill="#f6ffd5"
     id="path142"
     style="stroke-width:1.0896" />
  <path
     d="m 150.31566,172.46244 c 3.27103,3.53167 4.10493,8.07823 1.86262,10.15507 -2.24232,2.07684 -6.71175,0.89747 -9.98277,-2.63419 -3.27103,-3.53166 -4.10493,-8.07822 -1.86262,-10.15506 2.24232,-2.07684 6.71175,-0.89747 9.98277,2.63418 z"
     fill="#f2edd6"
     id="path144"
     style="stroke-width:0.2767" />
  <path
     d="m 150.01645,172.74128 c 2.95597,3.26836 3.70952,7.47592 1.68312,9.39786 -2.0264,1.92194 -6.06541,0.83045 -9.02138,-2.43791 -2.95598,-3.26836 -3.70952,-7.47592 -1.68312,-9.39786 2.0264,-1.92194 6.0654,-0.83045 9.02138,2.43791 z"
     fill="#a7bd02"
     id="path146"
     style="stroke-width:0.253043" />
  <path
     d="m 149.84644,172.81197 c 2.89284,3.2024 3.63025,7.32507 1.64705,9.20825 -1.98319,1.88319 -5.936,0.81376 -8.82886,-2.38864 -2.89284,-3.2024 -3.63025,-7.32506 -1.64705,-9.20825 1.9832,-1.88318 5.936,-0.81375 8.82886,2.38864 z"
     fill="#fdfbff"
     id="path148"
     style="stroke-width:0.24779" />
  <path
     d="m 149.66735,172.90881 c 2.71467,3.10932 3.40667,7.11215 1.54562,8.94057 -1.86104,1.82842 -5.57036,0.79005 -8.28503,-2.31927 -2.71466,-3.10932 -3.40666,-7.11215 -1.54562,-8.94057 1.86105,-1.82842 5.57037,-0.79005 8.28503,2.31927 z"
     fill="#aad400"
     id="path150"
     style="stroke-width:0.236522" />
  <path
     d="m 149.62134,173.11303 c 2.67011,2.92299 3.35078,6.68597 1.52031,8.40487 -1.83047,1.71891 -5.47891,0.74281 -8.14902,-2.18018 -2.67012,-2.92299 -3.35078,-6.68597 -1.52032,-8.40488 1.83047,-1.7189 5.47891,-0.7428 8.14903,2.18019 z"
     fill="#f6ffd5"
     id="path152"
     style="stroke-width:0.227437" />
  <path
     d="m 149.39625,173.35745 c 2.44738,2.69021 3.07129,6.15346 1.39356,7.7354 -1.67774,1.58194 -5.02181,0.68351 -7.46919,-2.0067 -2.44739,-2.69021 -3.07131,-6.15346 -1.39357,-7.7354 1.67774,-1.58194 5.02181,-0.68351 7.4692,2.0067 z"
     fill="#aad400"
     id="path154"
     style="stroke-width:0.208891" />
  <path
     d="m 149.01581,173.56166 c 2.17993,2.50388 2.7356,5.7273 1.24117,7.19971 -1.49444,1.47241 -4.4731,0.63625 -6.65301,-1.86762 -2.17993,-2.50387 -2.7356,-5.72728 -1.24117,-7.1997 1.49444,-1.47241 4.47309,-0.63625 6.65301,1.86761 z"
     fill="#f6ffd5"
     id="path156"
     style="stroke-width:0.1902" />
  <path
     d="m 148.45631,174.10874 c 1.73427,1.99208 2.1763,4.55657 0.98732,5.72798 -1.18897,1.17141 -3.55873,0.50614 -5.29301,-1.48593 -1.73426,-1.99207 -2.17629,-4.55656 -0.98732,-5.72797 1.18898,-1.17141 3.55873,-0.50614 5.29301,1.48592 z"
     fill="#aad400"
     id="path158"
     style="stroke-width:0.15132" />
  <path
     d="m 147.95147,174.54149 c 1.36956,1.57295 1.71869,3.59798 0.7798,4.52302 -0.93889,0.92504 -2.81024,0.39981 -4.1798,-1.17314 -1.36956,-1.57295 -1.71869,-3.59798 -0.7798,-4.52302 0.93889,-0.92504 2.81024,-0.39981 4.1798,1.17314 z"
     fill="url(#a)"
     id="path160"
     style="fill:url(#radialGradient1019);stroke-width:0.119491" />
  <path
     d="m 169.86022,156.94397 c -0.0109,-1.04874 -0.45905,-1.9068 -0.99971,-1.9068 -0.54067,0 -1.49581,-1.47097 -2.12255,-3.26881 -0.62674,-1.79785 -1.58864,-3.26881 -2.13759,-3.26881 -0.71717,0 -6.80795,-7.89892 -7.24716,-9.39867 -0.20234,-0.69069 -4.95955,-1.43966 -4.84177,-0.76228 0.26598,1.52921 -0.0937,3.01296 -1.1249,4.64287 -0.82036,1.29645 -1.28388,1.32025 -2.70723,0.13898 -1.88719,-1.56623 -2.36618,-6.60654 -0.62794,-6.60654 0.59928,0 1.0896,-0.7289 1.0896,-1.61978 0,-1.61247 -3.73875,-3.63423 -13.07393,-7.06984 -6.19973,-2.28164 -7.30633,-5.47522 -1.89711,-5.47522 2.18292,0 3.75837,-0.56102 3.82462,-1.36201 0.57847,-6.98407 2.38972,-10.62363 5.28708,-10.62363 0.82549,0 1.50093,-0.73548 1.50093,-1.6344 0,-0.89893 0.43323,-1.63441 0.96256,-1.63441 0.52933,0 1.26982,-0.85806 1.64541,-1.9068 0.37558,-1.04875 1.84469,-3.79601 3.26456,-6.105031 1.41986,-2.30902 2.33839,-5.128361 2.04115,-6.265221 -0.36621,-1.400107 0.0272,-2.066999 1.2209,-2.066999 0.96888,0 1.76145,-0.437868 1.76145,-0.973027 0,-0.535158 0.71053,-1.245678 1.57895,-1.578911 1.10867,-0.425446 1.37802,-0.08248 0.90448,1.151765 -0.43257,1.12726 -0.24059,1.489488 0.53532,1.009953 0.66542,-0.411238 2.21963,0.336263 3.45393,1.661122 2.35431,2.526976 2.90587,6.892008 1.20979,9.573109 -1.61741,2.55672 -0.31381,3.21659 4.00081,2.02526 2.88483,-0.79654 4.15367,-0.77076 4.44067,0.0902 0.61498,1.84499 3.24757,1.43383 4.49124,-0.70143 0.61094,-1.04874 1.12556,-1.3627 1.14376,-0.69768 0.0196,0.73218 1.7524,1.08667 4.39153,0.89868 2.39713,-0.17074 4.35842,0.0604 4.35842,0.51356 0,0.4532 1.20913,1.47108 2.68685,2.26194 1.47772,0.79087 2.4831,1.76755 2.23412,2.1704 -0.24897,0.40284 1.11619,0.76775 3.03367,0.81092 1.91749,0.0431 5.21648,0.17903 7.33118,0.30191 2.91142,0.16917 5.47776,-0.86118 10.57068,-4.24396 3.69909,-2.45706 7.23987,-4.46738 7.86824,-4.46738 1.90147,0 1.27952,3.28686 -0.76425,4.03876 -1.04874,0.38585 -3.10972,1.47283 -4.57992,2.41551 l -2.67324,1.71397 3.21804,0.64792 c 2.04355,0.41148 2.62147,0.85949 1.58352,1.22763 -3.00676,1.06648 -13.59041,3.17339 -16.14237,3.21352 -1.38728,0.0218 -2.21701,0.345 -1.84382,0.71819 0.37319,0.37318 3.95994,0.58136 7.97045,0.46262 7.20576,-0.21338 7.17808,0.83919 -0.0632,2.39377 -1.64803,0.35381 -2.99641,1.05205 -2.99641,1.55165 0,1.16817 21.94287,2.61077 24.54179,1.61345 1.35274,-0.51906 1.72026,-0.35672 1.17829,0.52031 -0.43333,0.70113 -0.26858,1.27477 0.366,1.27477 0.63459,0 1.154,-0.46732 1.154,-1.03848 0,-0.57116 1.83871,-1.87942 4.08601,-2.90724 2.24731,-1.02781 4.45376,-2.06039 4.90322,-2.29462 0.44946,-0.23424 0.8172,-0.23437 0.8172,-2.9e-4 0,0.23408 -2.5671,2.08903 -5.70473,4.12211 -5.29569,3.43148 -6.45938,3.72683 -16.22996,4.11927 -10.83437,0.43517 -17.2019,-0.77063 -20.83671,-3.94579 -1.63418,-1.42748 -2.34504,-1.45875 -4.90321,-0.21568 -1.64563,0.79963 -4.31853,1.55443 -5.93997,1.67735 -3.57532,0.27106 -12.09318,6.76458 -11.36446,8.66364 0.61476,1.60211 -1.31852,3.80534 -3.33919,3.80534 -0.77907,0 -2.33579,-0.91935 -3.45949,-2.043 -1.12371,-1.12366 -2.71715,-2.29206 -3.54121,-2.59646 -1.14474,-0.42289 -0.91985,-1.15472 0.9534,-3.10234 l 2.45161,-2.54889 v 2.48564 c 0,1.37964 -0.48477,2.186 -1.08961,1.81224 -0.59928,-0.37038 -1.0896,-0.15416 -1.0896,0.48049 0,1.76601 3.25366,1.37165 3.96441,-0.48049 0.34497,-0.89893 1.31025,-1.63441 2.14499,-1.63441 0.83475,0 1.51782,-0.44658 1.51782,-0.9924 0,-0.54581 2.22911,-2.07149 4.95356,-3.39035 5.49846,-2.66176 5.7628,-4.23199 0.97116,-5.77016 -1.76036,-0.56511 -4.05877,-1.77498 -5.10752,-2.68859 -1.51335,-1.31835 -1.9068,-1.35645 -1.9068,-0.1847 0,1.14832 -0.29049,1.18584 -1.30753,0.16888 -0.71913,-0.71914 -2.37805,-1.30752 -3.68645,-1.30752 -2.42437,0 -3.67763,2.45526 -3.70792,7.26402 -0.0109,1.29844 -0.57466,2.54742 -1.25893,2.7755 -0.68427,0.22807 -1.36059,2.33307 -1.50289,4.67776 -0.1423,2.3447 -0.80837,4.44626 -1.4799,4.67014 -0.67152,0.22388 -1.22122,-0.12414 -1.22122,-0.77337 0,-0.64923 -0.44413,-1.1804 -0.98708,-1.1804 -0.54295,0 -0.42026,1.22198 0.27241,2.71551 0.69266,1.49353 1.62721,2.71933 2.07667,2.72401 0.44946,0.004 0.8172,0.62603 0.8172,1.3808 0,1.9752 4.07283,4.3877 4.62275,2.73819 0.39422,-1.18273 11.7213,-2.38937 11.7213,-1.24863 0,0.49899 -6.80686,3.61832 -11.31673,5.186 -1.91073,0.66422 -1.9299,0.85275 -0.2724,2.68428 0.98054,1.08344 1.7827,2.81828 1.7827,3.8552 0,1.03693 0.41863,1.6266 0.93031,1.31037 1.44797,-0.89488 3.37308,4.22621 2.25351,5.99469 -0.78364,1.23784 -0.97443,1.16586 -0.98783,-0.37274 z"
     fill="#9bb305"
     id="path162"
     style="stroke-width:1.0896" />
  <path
     d="m 279.5551,142.4858 c 0,54.42558 -56.43393,98.54711 -126.04216,98.54711 -69.608212,0 -126.042152,-44.12153 -126.042152,-98.54711 0,-54.425581 56.43394,-98.5471 126.042152,-98.5471 69.60823,0 126.04216,44.121519 126.04216,98.5471 z"
     fill="url(#f)"
     fill-opacity="0.51071"
     id="path164"
     style="fill:url(#f);stroke-width:1.10918" />
  <path
     d="m 157.80724,177.35473 c -1.84622,0.92104 -3.68264,1.85003 -5.51611,2.7921 -11.55743,5.93856 -22.86206,12.46071 -34.86731,17.43366 -4.24444,1.75807 -9.55931,1.40123 -13.07524,4.35841 -4.10399,3.45186 -7.627222,14.16484 -7.627222,14.16484 0,0 16.476982,-1.70457 23.971272,1.08961 8.23827,3.07137 20.70246,16.34405 20.70246,16.34405 0,0 18.00679,-7.69522 32.75566,-15.22067 0.67272,-2.81456 1.0215,-5.74919 1.0215,-8.75083 0,-13.16131 -6.81787,-24.85385 -17.3661,-32.21085 z"
     fill="url(#m)"
     id="path166"
     style="fill:url(#m);stroke-width:1.0896" />
  <path
     d="m 96.135698,104.50385 22.139652,-3.35456 30.46857,32.69246 -20.405,7.5625 z"
     fill="#ece2c0"
     id="path168"
     style="stroke-width:1.0896" />
  <path
     d="m 96.026738,104.72177 -28.06491,30.54049 1.12665,1.3936 59.122962,4.59584 1.42324,-1.24531 z"
     fill="url(#d)"
     id="path170"
     style="fill:url(#linearGradient1021);stroke-width:1.0896" />
  <path
     d="m 170.88248,109.63588 c -0.14677,0.31048 -1.50986,0.67896 -3.02909,0.81886 -1.51924,0.13991 -2.95817,0.6687 -3.19766,1.17514 -0.2395,0.50643 -2.28076,1.47107 -4.53624,2.14368 -2.25548,0.67262 -4.38718,1.82847 -4.73716,2.56853 -0.70203,1.48447 -3.29256,3.04653 -7.57405,4.56707 -2.29688,0.81564 -2.78252,1.31395 -2.69056,2.76029 0.0948,1.49428 0.0131,1.55704 -0.53281,0.40937 -0.84521,-1.7754 -2.34418,-1.51335 -3.9326,0.6877 -0.84531,1.17121 -0.99241,2.07264 -0.43475,2.65645 1.45756,1.52544 1.97915,1.49831 4.66176,-0.24197 2.9878,-1.93829 7.36234,-2.33545 6.5386,-0.59368 -0.27011,0.57131 -0.0109,1.69172 0.58392,2.48974 1.29695,1.75056 1.75927,1.10617 1.00189,-1.39654 -0.51125,-1.68987 -0.32263,-2.01707 2.45106,-4.25185 1.65282,-1.33161 3.26401,-2.96873 3.58044,-3.63808 0.31642,-0.66934 1.71808,-1.53797 3.11452,-1.93045 1.39643,-0.39247 2.71878,-1.09363 2.93844,-1.55813 0.21966,-0.4645 1.59888,-1.32594 3.06484,-1.91432 1.46595,-0.58839 2.44278,-1.18756 2.17081,-1.33161 -0.27196,-0.14404 0.38245,-0.44459 1.45441,-0.66794 1.67188,-0.34831 1.84164,-0.57509 1.19464,-1.59507 -0.92529,-1.45865 -1.73574,-1.90724 -2.09041,-1.15716 z"
     fill="#a1c410"
     id="path172"
     style="stroke-width:1.0896" />
  <path
     d="m 138.6056,121.33312 c 0.34639,0.31775 2.26452,0.0811 4.26242,-0.52591 1.9979,-0.60697 4.09484,-0.67959 4.65991,-0.1613 0.56506,0.51829 3.6506,0.68716 6.85676,0.37529 3.20616,-0.31186 6.50515,0.0526 7.33085,0.81011 1.65631,1.51929 5.74646,2.16189 11.95861,1.87872 3.33256,-0.15194 4.20544,0.22898 4.83545,2.10981 0.65093,1.94316 0.78691,1.98055 0.88682,0.24378 0.15462,-2.68684 2.19,-3.12849 5.33982,-1.15859 1.67614,1.04822 2.32816,2.11479 1.92261,3.14274 -1.05997,2.6861 -1.7352,2.9211 -6.03412,2.1001 -4.78793,-0.91439 -10.53799,0.84063 -8.59468,2.62321 0.63742,0.5847 0.88291,2.14053 0.54546,3.45739 -0.74039,2.88857 -1.65892,2.31047 -1.99114,-1.25286 -0.22435,-2.40598 -0.6323,-2.72334 -5.30212,-4.12414 -2.78241,-0.83466 -5.66997,-2.07806 -6.41668,-2.76303 -0.7467,-0.68496 -2.97178,-1.06252 -4.94451,-0.83901 -1.97272,0.22351 -4.01083,0.0174 -4.52915,-0.45804 -0.51832,-0.47547 -2.71137,-0.85528 -4.87325,-0.84421 -2.16188,0.0111 -3.70956,-0.24415 -3.43912,-0.56713 0.27044,-0.32298 -0.71445,-0.36607 -2.18846,-0.0958 -2.29896,0.42162 -2.6314,0.22186 -2.33786,-1.40515 0.41983,-2.3266 1.21556,-3.31367 2.05238,-2.54603 z"
     fill="#5f9200"
     id="path174"
     style="stroke-width:1.0896" />
  <path
     d="m 150.61586,143.23925 c 0,-0.47008 -1.47096,-1.72365 -3.26881,-2.78557 -1.79784,-1.06193 -3.26881,-2.55828 -3.26881,-3.32504 0,-0.76675 -1.96128,-3.15473 -4.35841,-5.30669 -2.39713,-2.15197 -4.35841,-4.82945 -4.35841,-5.94989 0,-2.24763 -2.29122,-5.69612 -6.6991,-10.08253 -2.36466,-2.35311 -2.674,-3.25389 -1.71384,-4.98962 0.99197,-1.79327 0.92758,-1.91869 -0.41982,-0.81835 -2.08452,1.70229 -3.78583,0.5009 -4.46335,-3.1519 -0.36055,-1.94374 -0.0152,-3.14514 1.01639,-3.54121 2.696,-1.03456 3.32557,-0.69585 5.62649,3.02714 2.56264,4.14648 7.74283,7.19759 7.74283,4.56042 0,-0.86498 0.98064,-2.09748 2.17921,-2.73893 2.6291,-1.40701 2.82403,-0.33929 0.42265,2.31421 -1.62144,1.79163 -1.57949,2.3069 0.5448,6.69506 1.2658,2.61473 2.30136,5.58313 2.30136,6.59646 0,1.01333 1.2258,2.90826 2.724,4.21088 1.49821,1.30262 2.72401,2.944 2.72401,3.64734 0,0.70334 1.20249,2.57626 2.67204,4.16196 1.46954,1.5857 2.32761,2.89867 1.9068,2.91774 -0.4208,0.0191 0.21313,0.7739 1.40875,1.67744 1.86475,1.40919 1.94222,1.78924 0.5448,2.67269 -1.99833,1.26329 -3.26358,1.34424 -3.26358,0.20859 z"
     fill="#9bb305"
     id="path176"
     style="stroke-width:1.0896" />
</svg>
