<?xml version="1.0" encoding="UTF-8" standalone="no"?>
<svg
   version="1.1"
   viewBox="0 0 472.44095 332.59844"
   id="svg583"
   sodipodi:docname="spaghetti.svg"
   width="125mm"
   height="88mm"
   inkscape:version="1.2.2 (732a01da63, 2022-12-09)"
   xmlns:inkscape="http://www.inkscape.org/namespaces/inkscape"
   xmlns:sodipodi="http://sodipodi.sourceforge.net/DTD/sodipodi-0.dtd"
   xmlns="http://www.w3.org/2000/svg"
   xmlns:svg="http://www.w3.org/2000/svg">
  <sodipodi:namedview
     id="namedview585"
     pagecolor="#505050"
     bordercolor="#eeeeee"
     borderopacity="1"
     inkscape:showpageshadow="0"
     inkscape:pageopacity="0"
     inkscape:pagecheckerboard="0"
     inkscape:deskcolor="#505050"
     showgrid="false"
     inkscape:zoom="1.6252294"
     inkscape:cx="437.78435"
     inkscape:cy="220.58425"
     inkscape:current-layer="svg583"
     inkscape:document-units="mm" />
  <defs
     id="defs59">
    <filter
       id="l"
       color-interpolation-filters="sRGB"
       x="-0.031122304"
       y="-0.064565832"
       width="1.0622446"
       height="1.1291317">
      <feGaussianBlur
         stdDeviation="11.63289"
         id="feGaussianBlur2" />
    </filter>
    <filter
       id="m"
       color-interpolation-filters="sRGB"
       x="-0.017172896"
       y="-0.018910583"
       width="1.0343458"
       height="1.0378212">
      <feGaussianBlur
         stdDeviation="1.9181061"
         id="feGaussianBlur5" />
    </filter>
    <filter
       id="n"
       color-interpolation-filters="sRGB"
       x="-0.017231735"
       y="-0.018840623"
       width="1.0344635"
       height="1.0376812">
      <feGaussianBlur
         stdDeviation="1.9111942"
         id="feGaussianBlur8" />
    </filter>
    <filter
       id="o"
       color-interpolation-filters="sRGB"
       x="-0.027387336"
       y="-0.071034238"
       width="1.0547747"
       height="1.1420685">
      <feGaussianBlur
         stdDeviation="6.697345"
         id="feGaussianBlur11" />
    </filter>
    <radialGradient
       id="r"
       cx="482.22"
       cy="430.48001"
       r="293.45001"
       gradientTransform="matrix(1,0,0,0.38554,0,267.49)"
       gradientUnits="userSpaceOnUse">
      <stop
         stop-color="#ccc"
         offset="0"
         id="stop14" />
      <stop
         stop-color="#a3a3a3"
         offset=".93009"
         id="stop16" />
      <stop
         stop-color="#eaeaea"
         offset=".95681"
         id="stop18" />
      <stop
         stop-color="#eaeaea"
         offset=".96245"
         id="stop20" />
      <stop
         stop-color="#ccc"
         offset="1"
         id="stop22" />
    </radialGradient>
    <radialGradient
       id="s"
       cx="470.23999"
       cy="432.14001"
       r="293.45001"
       gradientTransform="matrix(1,0,0,0.38554,0,267.49)"
       gradientUnits="userSpaceOnUse">
      <stop
         stop-color="#ccc"
         offset="0"
         id="stop25" />
      <stop
         stop-color="#e8e8e8"
         offset=".61907"
         id="stop27" />
      <stop
         stop-color="#ededed"
         offset=".89828"
         id="stop29" />
      <stop
         stop-color="#ccc"
         offset="1"
         id="stop31" />
    </radialGradient>
    <linearGradient
       id="p"
       x1="800.39001"
       x2="622.60999"
       y1="380.75"
       y2="439.87"
       gradientUnits="userSpaceOnUse">
      <stop
         stop-color="#fff"
         offset="0"
         id="stop34" />
      <stop
         stop-color="#fff"
         stop-opacity="0"
         offset="1"
         id="stop36" />
    </linearGradient>
    <linearGradient
       id="q"
       x1="1065.7"
       x2="505.70999"
       y1="245.71001"
       y2="500"
       gradientTransform="matrix(0.99065,0,0,0.99242,2.6949,0.68254)"
       gradientUnits="userSpaceOnUse">
      <stop
         stop-color="#b3b3b3"
         offset="0"
         id="stop39" />
      <stop
         stop-color="#b3b3b3"
         stop-opacity="0"
         offset="1"
         id="stop41" />
    </linearGradient>
    <radialGradient
       id="t"
       cx="365.47"
       cy="444.5"
       r="134.03"
       gradientTransform="matrix(1,0,0,0.9081,0,40.238)"
       gradientUnits="userSpaceOnUse">
      <stop
         stop-color="#fff"
         offset="0"
         id="stop44" />
      <stop
         stop-color="#fff"
         stop-opacity="0"
         offset="1"
         id="stop46" />
    </radialGradient>
    <radialGradient
       id="u"
       cx="629.45001"
       cy="421.28"
       r="133.10001"
       gradientTransform="matrix(1,0,0,0.91461,0,37.387)"
       gradientUnits="userSpaceOnUse">
      <stop
         stop-color="#666"
         offset="0"
         id="stop49" />
      <stop
         stop-color="#666"
         stop-opacity="0"
         offset="1"
         id="stop51" />
    </radialGradient>
    <radialGradient
       id="v"
       cx="506.48999"
       cy="407.95999"
       r="293.45001"
       gradientTransform="matrix(1.7671,-0.025183,0.0017593,0.31482,-383.55,310.42)"
       gradientUnits="userSpaceOnUse">
      <stop
         stop-color="#fff"
         offset="0"
         id="stop54" />
      <stop
         stop-color="#fff"
         stop-opacity="0"
         offset="1"
         id="stop56" />
    </radialGradient>
  </defs>
  <g
     transform="matrix(0.48848568,0,0,0.48848568,-8.0210244,-127.41333)"
     id="g581">
    <g
       transform="translate(21.143,181.97)"
       id="g77">
      <path
         d="m 507.73,253.58 c -3.268,-0.0151 -6.5255,0.0112 -9.8125,0.0312 -10.346,0.0632 -20.796,0.30095 -31.312,0.71875 -73.792,2.9317 -143.16,14.353 -203.94,32.062 0.9141,0.15251 1.8101,0.31459 2.7187,0.46875 -140.49,40.27 -235.92,113.65 -235.06,193.82 0.01005,0.93902 0.02618,1.8775 0.0625,2.8125 -0.05702,1.6095 -0.07953,3.2288 -0.0625,4.8438 1.2516,118.7 203.07,206.85 450.78,196.88 247.71,-9.9746 447.53,-114.3 446.28,-233 l -2.4062,-21.062 c -20.032,-91.575 -159.99,-159.86 -340.88,-173.91 -0.3623,-0.0334 -0.731,-0.0608 -1.0938,-0.0937 -0.5111,-0.039 -1.0194,-0.0868 -1.5312,-0.125 -23.871,-2.1219 -48.526,-3.3212 -73.75,-3.4375 z"
         fill="#666666"
         filter="url(#l)"
         id="path61" />
      <path
         transform="matrix(1.5285,-0.061546,0.02003,1.8997,-229.05,-358.98)"
         d="m 767.72,435.33 c 0,62.484 -131.38,113.14 -293.45,113.14 -162.07,0 -293.45,-50.653 -293.45,-113.14 0,-62.484 131.38,-113.14 293.45,-113.14 150.88,0 277.17,44.113 292.02,102"
         fill="url(#r)"
         id="path63"
         style="fill:url(#r)" />
      <path
         transform="matrix(1.5009,-0.059525,0.019669,1.8373,-223.92,-339.84)"
         d="m 767.72,435.33 c 0,62.484 -131.38,113.14 -293.45,113.14 -162.07,0 -293.45,-50.653 -293.45,-113.14 0,-62.484 131.38,-113.14 293.45,-113.14 150.88,0 277.17,44.113 292.02,102"
         fill="url(#s)"
         id="path65"
         style="fill:url(#s)" />
      <path
         transform="matrix(1.5009,-0.059525,0.019669,1.8373,-223.92,-339.84)"
         d="m 767.72,435.33 c 0,62.484 -131.38,113.14 -293.45,113.14 -162.07,0 -293.45,-50.653 -293.45,-113.14 0,-62.484 131.38,-113.14 293.45,-113.14 150.88,0 277.17,44.113 292.02,102"
         fill="url(#p)"
         id="path67"
         style="fill:url(#p)" />
      <path
         d="m 523.62,222.18 c -10.346,0.0632 -20.782,0.2955 -31.299,0.7133 -73.792,2.9317 -143.18,14.358 -203.95,32.067 75.277,12.56 132.02,30.71 175.25,52.815 4.8411,2.4755 8.8583,8.0633 14.024,7.5672 291.82,-28.029 383.09,160.1 139.62,225.09 -3.2161,0.85853 1.4708,6.5251 2.198,9.7691 5.2485,23.414 10.779,46.477 18.73,68.539 171.19,-34.61 293.65,-116.39 292.69,-206.89 l -2.3528,-20.22 c -22.13,-99.77 -194.54,-170.74 -404.91,-169.45 z"
         fill="url(#q)"
         id="path69"
         style="fill:url(#q)" />
      <path
         d="m 537.25,316.12 c -5.6978,0.0371 -11.427,0.1606 -17.219,0.40625 -132.71,5.6291 -239.76,64.511 -239.09,131.5 0.65298,65.236 103.23,114.09 231.16,111.41 -108.9,-2.729 -193.43,-49.763 -194,-111.41 -0.61871,-66.989 98.137,-125.87 220.59,-131.5 3.458,-0.15896 6.8898,-0.27256 10.312,-0.34375 -3.8857,-0.0715 -7.8136,-0.0881 -11.75,-0.0625 z"
         fill="url(#t)"
         filter="url(#m)"
         id="path71"
         style="fill:url(#t)" />
      <path
         d="m 537.25,316.12 c -1.4946,0.01 -2.9986,0.0386 -4.5,0.0625 105.1,1.6657 189.95,42.621 201.12,99.562 l 1.2188,11.906 c 0.63366,66.989 -100.52,125.84 -225.94,131.47 -4.6395,0.20824 -9.2405,0.34763 -13.812,0.40625 8.903,0.12683 17.929,-0.0175 27.094,-0.40625 132.71,-5.6291 239.76,-64.48 239.09,-131.47 l -1.27,-11.9 c -12.182,-58.662 -107.14,-100.38 -223,-99.625 z"
         fill="url(#u)"
         filter="url(#n)"
         id="path73"
         style="fill:url(#u)" />
      <path
         transform="matrix(0.69478,-0.031277,0.009105,0.96542,191.8,31.379)"
         d="m 767.72,435.33 c 0,62.484 -131.38,113.14 -293.45,113.14 -162.07,0 -293.45,-50.653 -293.45,-113.14 0,-62.484 131.38,-113.14 293.45,-113.14 150.88,0 277.17,44.113 292.02,102"
         fill="url(#v)"
         filter="url(#o)"
         id="path75"
         style="fill:url(#v)" />
    </g>
    <g
       transform="matrix(2.7959,0,0,2.3499,151.41,423.66)"
       id="g565">
      <g
         clip-rule="evenodd"
         fill-rule="evenodd"
         stroke="#000000"
         stroke-miterlimit="10"
         stroke-width="0.036"
         id="g563">
        <path
           d="M 16.78,54.684 10.444,59.4 C 6.7,60.084 4.324,61.632 3.46,63.9 2.488,66.168 4.108,70.92 5.008,73.152 5.836,75.348 7.024,76.536 8.572,76.86 5.08,81.217 2.74,85.393 1.408,89.783 0.04,94.14 -0.68,99.107 0.652,102.74 c 1.332,3.527 3.96,6.264 8.424,8.207 1.908,3.637 3.924,6.373 5.904,8.209 1.98,1.836 4.068,2.627 6.12,2.664 2.556,3.096 5.04,5.363 7.452,6.805 2.448,1.367 4.608,1.906 6.876,1.619 1.332,2.809 2.484,4.752 3.852,5.543 1.332,0.758 2.484,0.648 3.852,-0.611 0.252,1.584 0.72,2.736 1.26,3.313 0.504,0.539 1.368,0.432 2.016,0.252 0.576,-0.217 1.008,-0.684 1.44,-1.404 0.36,1.584 3.6,3.42 9.864,5.652 6.264,2.16 21.276,6.229 27.396,7.488 6.012,1.115 8.676,1.152 8.424,-0.289 4.536,2.053 9,3.637 13.788,4.609 4.716,0.863 10.98,1.223 14.328,1.223 3.168,-0.035 4.788,-0.395 4.86,-1.223 3.888,1.836 7.812,2.52 11.772,2.051 3.888,-0.539 7.812,-2.195 11.771,-5.111 5.076,1.512 10.692,1.799 17.389,1.008 6.624,-0.936 13.823,-2.736 21.996,-5.939 6.695,0.359 13.859,-0.828 21.491,-3.709 7.633,-2.879 15.517,-7.451 24.048,-13.572 l 17.929,-16.74 c 5.436,-2.555 9.396,-5.975 12.023,-10.654 2.593,-4.752 3.601,-10.262 3.313,-17.064 0.18,-5.293 0.864,-9.289 2.052,-12.132 1.26,-2.88 5.652,-2.88 5.112,-4.716 -0.72,-1.872 -3.744,-3.996 -9.216,-6.372 4.428,-0.54 6.264,-1.152 5.111,-1.44 -1.188,-0.324 -4.968,-0.72 -11.735,-0.792 -1.08,-2.304 -1.98,-3.888 -2.845,-4.752 -0.899,-0.864 -1.619,-1.116 -2.304,-0.612 -0.647,-2.52 -1.188,-4.176 -1.764,-5.112 -0.576,-0.936 -1.044,-1.08 -1.548,-0.432 1.26,-5.292 1.26,-9.648 0,-12.924 -1.368,-3.42 -3.313,-5.364 -7.92,-6.948 -4.753,-1.656 -11.232,-2.34 -19.98,-2.448 -4.428,-3.996 -8.424,-6.876 -12.276,-8.64 -3.852,-1.872 -7.38,-2.628 -10.728,-2.268 -4.176,-4.212 -8.388,-7.02 -12.78,-8.82 -4.428,-1.764 -8.352,-1.44 -13.572,-1.656 -5.327,-0.288 -11.34,-0.216 -18.18,0.216 -3.744,-2.16 -7.452,-3.708 -10.979,-4.5 -3.744,-0.864 -7.344,-0.864 -10.512,-0.432 -3.168,0.324 -5.796,1.152 -8.172,2.484 -1.728,-2.268 -3.132,-3.168 -4.356,-2.7 -1.224,0.468 -2.16,2.16 -2.808,5.364 -3.24,-0.792 -6.588,-0.864 -10.476,-0.216 -4.032,0.504 -9.36,2.628 -12.528,3.888 -3.06,1.26 -5.076,2.376 -5.904,3.492 -3.744,-0.72 -7.056,-0.936 -10.476,-0.792 -3.492,0.144 -7.2,0.684 -9.72,1.62 -2.52,0.9 -4.356,2.16 -5.364,3.924 -3.744,-0.504 -6.948,-0.18 -10.008,0.828 -3.06,1.044 -5.04,3.168 -8.172,5.112 -3.276,1.764 -8.892,3.888 -11.016,5.544 -2.268,1.512 -2.808,2.916 -2.016,3.924 -3.312,1.044 -5.616,2.268 -6.912,3.672 -1.404,1.404 -1.62,2.988 -1.044,4.752 -5.004,1.476 -7.848,3.168 -8.928,4.932 -1.044,1.836 -0.108,3.564 2.808,5.724 -0.752,0.938 -1.508,1.874 -2.3,2.846 z"
           id="path79" />
        <path
           d="M 41.044,59.4 C 38.776,58.824 35.86,58.392 32.152,58.248 28.3,57.96 23.224,57.6 19.012,58.14 14.764,58.644 10.084,60.12 7.6,61.164 5.224,61.992 5.008,62.748 4.576,63.72 4.072,64.692 3.82,65.844 4.108,67.176 c 0.036,1.332 0.684,2.988 1.116,4.428 0.288,1.296 0.756,2.448 1.404,3.312 0.648,0.72 1.548,1.152 2.7,1.296 l 1.26,-1.296 C 9.148,73.872 7.96,72.432 7.42,70.596 6.664,68.616 5.26,65.448 6.808,63.72 c 1.62,-1.764 6.66,-2.772 10.116,-3.42 3.276,-0.72 4.932,-0.972 9.684,-0.756 4.752,0.108 10.836,0.612 18.54,1.512 z"
           fill="#e9da6f"
           id="path81" />
        <path
           d="m 17.896,69.084 c -2.916,-1.656 -4.032,-3.276 -3.492,-4.464 0.54,-1.332 3.456,-2.844 6.66,-3.168 3.06,-0.432 8.424,0.324 12.204,0.756 3.744,0.36 7.128,0.864 10.296,1.512 0.468,-0.036 1.368,-0.036 2.556,0 1.188,-0.072 2.664,-0.108 4.572,-0.108 L 50.548,62.208 C 46.84,61.812 42.988,61.38 39.136,61.056 35.14,60.552 30.712,60.264 27.256,60.048 c -3.42,-0.252 -6.228,-0.216 -8.568,0.108 -2.628,0.252 -4.968,1.08 -6.192,1.908 -1.26,0.792 -1.296,1.404 -0.792,2.952 0.504,1.512 1.872,3.24 3.96,5.724 0.72,-0.54 1.476,-1.08 2.232,-1.656 z"
           fill="#e9da6f"
           id="path83" />
        <path
           d="M 19.804,67.536 23.26,66.78 C 22.72,66.132 22.36,65.412 22.18,65.016 21.892,64.44 21.784,64.332 22,63.864 c 0.18,-0.54 0.9,-1.224 1.764,-2.052 l -3.024,0.144 c -0.972,0.468 -1.404,1.188 -1.584,2.16 -0.18,0.972 0.036,1.98 0.648,3.42 z"
           fill="#e9da6f"
           id="path85" />
        <path
           d="m 25.672,65.772 c -0.504,-0.216 -0.72,-0.612 -0.792,-0.9 -0.144,-0.432 -0.144,-0.756 0.288,-1.26 0.396,-0.504 1.044,-1.152 2.088,-1.8 l 2.052,0.252 c -1.044,0.324 -1.728,0.792 -1.908,1.404 -0.252,0.504 -0.144,1.188 0.468,1.908 -0.72,0.108 -1.44,0.252 -2.196,0.396 z"
           fill="#e9da6f"
           id="path87" />
        <path
           d="m 48.316,64.692 c -3.816,-0.18 -7.74,0 -12.204,0.54 -4.572,0.396 -10.116,0.864 -14.256,2.52 -4.104,1.728 -7.488,5.112 -10.152,7.632 -2.736,2.304 -4.14,3.456 -5.868,6.769 -1.872,3.24 -4.104,9.287 -4.752,12.852 -0.612,3.42 0.036,5.725 1.116,8.027 1.008,2.16 1.908,3.602 5.076,5.58 3.168,2.088 7.524,4.213 13.608,6.373 5.976,1.871 16.704,4.068 22.032,5.219 5.22,1.117 5.652,1.801 9.216,1.514 3.564,-0.396 8.496,-1.656 11.736,-3.926 3.024,-2.41 4.968,-7.344 6.66,-10.078 1.62,-2.736 2.628,-4.896 3.168,-6.338 0.36,-0.791 0.36,-1.26 0,-1.547 -0.432,-0.289 -1.08,-0.324 -2.232,-0.107 -1.728,4.211 -3.528,7.596 -5.4,10.547 -1.98,2.881 -3.852,5.041 -6.012,6.625 -2.232,1.439 -4.284,2.195 -7.128,2.412 -2.916,0.107 -5.184,-0.361 -10.152,-1.404 -5.22,-1.188 -14.004,-2.844 -19.98,-4.969 -6.012,-2.05 -12.204,-4.46 -15.372,-7.38 C 4.252,102.353 3.784,98.608 3.928,94.756 4,90.808 5.512,86.308 7.888,82.673 c 2.304,-3.672 6.552,-7.452 9.54,-9.684 2.844,-2.304 4.176,-3.204 7.452,-4.068 3.24,-0.936 8.388,-1.44 11.7,-1.656 3.132,-0.324 5.616,-0.36 7.308,-0.108 1.476,-0.792 2.952,-1.62 4.428,-2.448 z"
           fill="#e9da6f"
           id="path89" />
        <path
           d="m 40.072,69.408 c -2.88,0.144 -5.436,0.216 -8.064,0.504 -2.628,0.144 -5.112,-0.144 -7.452,0.792 -2.412,0.9 -4.788,3.204 -6.984,4.824 -2.34,1.548 -4.464,3.168 -6.66,4.716 2.772,-2.592 5.148,-4.536 7.128,-6.228 1.944,-1.692 2.736,-2.88 4.608,-3.708 1.836,-0.936 3.996,-1.476 6.336,-1.764 2.232,-0.36 4.608,-0.54 7.128,-0.54 2.376,-0.18 4.86,-0.252 7.308,-0.36 z"
           fill="#e9da6f"
           id="path91" />
        <path
           d="m 15.34,78.084 c 4.032,1.08 7.128,1.368 9.684,1.008 2.376,-0.54 2.268,-2.808 5.076,-3.456 2.7,-0.576 6.552,-0.792 11.412,-0.252 l 1.116,2.808 c -4.032,-0.936 -7.416,-1.152 -10.296,-0.648 -2.844,0.432 -3.78,3.024 -6.84,3.456 -3.312,0.324 -7.236,-0.145 -12.348,-1.404 0.72,-0.504 1.44,-1.008 2.196,-1.512 z"
           fill="#e9da6f"
           id="path93" />
        <path
           d="m 50.692,66.888 c 0.72,0.216 1.188,0.468 1.26,0.756 0.036,0.18 -0.324,0.432 -0.936,0.612 -2.232,0.612 -3.816,1.368 -4.896,2.556 -1.152,1.116 -2.52,2.844 -1.62,4.212 0.864,1.188 4.428,2.196 6.66,3.42 2.196,1.259 4.716,2.449 6.192,3.708 1.332,1.043 1.872,2.016 1.764,2.916 l -4.284,0.252 c -1.296,-1.873 -2.736,-3.313 -4.464,-4.465 -1.8,-1.188 -4.68,-1.476 -6.012,-2.412 -1.404,-1.152 -1.872,-2.376 -2.232,-3.672 -0.504,-1.368 -0.504,-2.952 0,-4.068 0.504,-1.332 1.656,-2.268 3.168,-2.952 1.404,-0.647 3.204,-0.935 5.4,-0.863 z"
           fill="#e9da6f"
           id="path95" />
        <path
           d="m 34.852,70.56 1.908,3.708 -2.7,0.108 -1.764,-3.816 z"
           fill="#e9da6f"
           id="path97" />
        <path
           d="m 35.788,77.688 2.376,6.373 h 3.348 l -2.376,-5.869 z"
           fill="#e9da6f"
           id="path99" />
        <path
           d="m 40.072,88.633 c 1.08,3.059 2.412,5.039 4.14,6.371 1.62,1.188 2.52,0.973 6.012,1.008 3.492,-0.035 8.172,-0.467 14.58,-1.152 l -2.52,-0.611 c -5.004,0.469 -8.82,0.684 -11.592,0.504 -2.844,-0.145 -3.6,-0.611 -4.896,-1.549 -1.296,-1.15 -2.304,-2.627 -2.88,-4.822 -0.936,0.069 -1.872,0.141 -2.844,0.251 z"
           fill="#e9da6f"
           id="path101" />
        <path
           d="m 12.496,80.244 c 0.648,0.756 2.124,1.477 4.428,2.016 2.304,0.469 6.264,0.9 9.36,1.152 3.096,0.217 6.84,0.072 8.892,0.396 1.908,0.252 2.7,0.719 2.52,1.26 -1.728,0.215 -2.952,0.252 -3.816,0.396 -0.936,0.07 -1.224,0.107 -1.26,0.107 -1.908,0.107 -4.176,0.072 -6.948,-0.107 -2.88,-0.324 -7.272,-0.396 -9.828,-1.045 -2.628,-0.684 -4.536,-1.477 -5.724,-2.664 0.792,-0.503 1.584,-1.007 2.376,-1.511 z"
           fill="#e9da6f"
           id="path103" />
        <path
           d="m 10.12,82.908 c -1.008,1.439 -1.224,2.447 -0.648,3.455 0.504,0.828 0.9,1.873 3.816,2.018 2.916,0.143 9.072,-0.648 13.464,-1.01 4.284,-0.504 8.496,-1.332 12.06,-1.654 3.384,-0.324 4.428,-0.324 8.388,-0.145 3.924,0.035 8.856,0.396 15.084,0.791 1.152,0.396 1.944,0.721 2.376,1.117 0.36,0.324 0.36,0.576 0,0.9 -2.88,0.07 -5.796,-0.145 -8.892,-0.252 -3.168,-0.217 -6.336,-0.938 -9.648,-0.9 -3.312,-0.037 -5.4,0.215 -10.008,0.756 -4.86,0.467 -13.716,1.836 -18.216,2.16 -4.428,0.143 -7.092,0.215 -8.568,-0.756 C 7.744,88.343 7.276,86.615 8.212,84.06 8.824,83.699 9.472,83.305 10.12,82.908 Z"
           fill="#e9da6f"
           id="path105" />
        <path
           d="m 69.088,96.012 c 0.612,-0.035 1.224,-0.035 1.44,0.396 0.18,0.252 0.36,0.936 0.144,1.656 -2.484,0.828 -5.076,1.619 -7.92,2.52 -2.88,0.756 -6.588,1.836 -9.036,2.699 -2.448,0.828 -3.708,2.412 -6.012,2.412 -2.628,-0.215 -5.544,-1.619 -8.748,-2.807 -3.348,-1.117 -7.524,-3.133 -10.296,-3.961 -2.772,-0.973 -4.68,-1.477 -6.012,-1.512 -0.396,-0.432 -0.504,-0.9 -0.324,-1.404 0.18,-0.576 0.504,-1.08 1.26,-1.656 2.412,0.613 5.292,1.764 9.036,3.061 3.564,1.297 9.612,4.428 12.852,4.969 3.132,0.432 3.024,-1.225 6.336,-2.053 3.276,-0.973 10.692,-2.447 13.644,-3.168 2.916,-0.719 4.032,-1.15 3.636,-1.15 z"
           fill="#e9da6f"
           id="path107" />
        <path
           d="m 6.484,87.875 c -1.296,3.24 -1.836,6.121 -1.764,8.785 0,2.592 1.116,5.111 2.376,6.984 1.188,1.799 2.376,2.52 5.076,3.959 2.664,1.369 6.912,2.771 10.8,4.213 3.888,1.367 8.496,2.447 12.024,3.527 3.384,0.9 6.192,1.549 8.424,1.943 -5.04,-1.332 -10.116,-2.771 -15.228,-4.715 -5.148,-2.016 -12.132,-4.32 -15.552,-6.625 -3.492,-2.412 -4.644,-4.932 -5.544,-7.02 -1.08,-2.088 -0.54,-3.852 -0.612,-5.58 -0.144,-1.828 -0.144,-3.699 0,-5.465 z"
           fill="#e9da6f"
           id="path109" />
        <path
           d="m 19.156,91.188 c 0.288,1.332 0.072,2.52 -0.648,3.564 -0.864,0.936 -3.204,1.367 -3.96,2.664 -0.756,1.297 -0.684,3.455 -0.612,5.076 -0.036,1.547 0.216,2.699 0.612,3.852 l 2.556,1.117 c -1.044,-3.35 -1.62,-5.762 -1.584,-7.381 0.036,-1.619 0.612,-1.908 1.584,-2.412 0.828,-0.648 2.88,-0.324 3.636,-1.404 0.612,-1.225 0.72,-3.131 0.324,-5.725 -0.612,0.217 -1.26,0.434 -1.908,0.649 z"
           fill="#e9da6f"
           id="path111" />
        <path
           d="m 17.572,105.05 c 2.952,-0.721 5.652,-0.938 8.1,-0.504 2.412,0.287 4.896,1.764 6.48,2.916 1.44,1.008 2.016,2.592 2.556,3.779 0.504,1.225 0.612,2.16 0.468,3.203 l 2.988,1.008 c 0.144,-2.123 -0.324,-4.066 -1.404,-5.975 -1.188,-2.016 -3.132,-4.176 -5.256,-5.365 -2.196,-1.115 -5.004,-1.475 -7.452,-1.512 -2.484,-0.215 -4.86,0 -7.272,0.504 0.252,0.64 0.504,1.29 0.792,1.94 z"
           fill="#e9da6f"
           id="path113" />
        <path
           d="m 35.644,120.02 c -0.072,0.613 -0.072,1.764 0,3.313 0.036,1.477 -0.36,4.068 0.324,5.977 0.54,1.908 2.052,4.031 3.168,5.111 1.044,0.9 2.196,1.115 3.312,0.504 -1.764,-1.043 -3.024,-2.52 -3.78,-4.572 -0.9,-2.123 -0.9,-6.012 -0.972,-7.631 -0.18,-1.656 -0.072,-2.34 0.18,-2.197 -0.72,-0.14 -1.476,-0.32 -2.232,-0.5 z"
           fill="#e9da6f"
           id="path115" />
        <path
           d="m 47.056,136.69 c -0.324,0.648 -0.648,1.08 -1.116,0.9 -0.54,-0.145 -1.116,-0.145 -1.584,-1.656 -0.504,-1.729 -0.972,-5.471 -1.116,-8.027 -0.18,-2.664 -0.18,-4.896 0,-7.236 l 2.88,1.008 c -0.396,1.404 -0.612,2.844 -0.504,4.717 0.036,1.871 0.684,4.139 0.972,5.975 0.252,1.7 0.36,3.14 0.468,4.33 z"
           fill="#e9da6f"
           id="path117" />
        <path
           d="m 44.824,117.11 c 0.036,-0.432 0.36,-0.936 0.972,-1.512 0.612,-0.576 1.512,-1.439 2.7,-2.195 l 2.052,1.908 c -0.828,0.215 -1.512,0.611 -2.052,1.043 -0.576,0.432 -1.008,0.936 -1.296,1.512 -0.792,-0.25 -1.584,-0.5 -2.376,-0.75 z"
           fill="#e9da6f"
           id="path119" />
        <path
           d="m 53.86,111.13 c 0.324,-0.434 1.332,-0.686 3.168,-0.758 1.764,-0.07 4.248,0 7.452,0.361 l -1.584,2.303 c -2.016,-0.107 -3.6,-0.287 -4.896,-0.143 -1.296,0.107 -2.196,0.143 -2.7,0.504 -0.468,-0.75 -0.936,-1.5 -1.44,-2.26 z"
           fill="#e9da6f"
           id="path121" />
        <path
           d="m 69.556,112.39 c 0.072,-0.217 0.864,-0.18 2.232,0.252 1.332,0.324 3.24,1.008 5.868,2.051 l -1.584,1.656 c -1.656,-0.719 -3.276,-1.223 -4.464,-1.656 -1.224,-0.432 -2.412,-0.684 -3.168,-0.756 0.36,-0.49 0.72,-1 1.116,-1.54 z"
           fill="#e9da6f"
           id="path123" />
        <path
           d="m 88.42,117.11 c 4.428,0.648 8.532,1.152 12.852,1.512 4.212,0.324 7.956,0 12.348,0.541 4.356,0.432 8.712,1.152 13.5,2.16 l -0.648,3.168 c -5.148,-1.188 -9.756,-1.943 -14.256,-2.412 -4.536,-0.432 -8.532,0.035 -12.528,-0.252 -4.104,-0.396 -8.064,-1.08 -11.88,-2.053 0.186,-0.87 0.402,-1.77 0.618,-2.67 z"
           fill="#e9da6f"
           id="path125" />
        <path
           d="m 33.7,88.74 c 1.008,2.447 2.268,4.535 3.78,6.264 1.44,1.764 2.088,3.385 5.004,4.031 2.916,0.541 8.856,-0.756 12.42,-1.115 3.42,-0.432 6.228,-1.152 8.424,-1.764 -4.608,0.359 -8.568,0.719 -12.024,0.791 -3.492,0.145 -6.228,1.117 -8.604,-0.143 -2.52,-1.404 -4.392,-4.141 -6.012,-8.209 -0.972,0.038 -1.98,0.073 -2.988,0.145 z"
           fill="#e9da6f"
           id="path127" />
        <path
           d="m 65.704,108.5 c -2.808,-1.188 -5.292,-1.943 -7.596,-2.557 -2.34,-0.611 -4.356,-0.936 -6.192,-0.971 -1.044,0.611 -1.872,1.043 -2.628,1.295 -0.72,0.252 -1.368,0.252 -1.8,0.145 2.304,0.217 4.752,0.469 7.632,1.152 2.772,0.504 5.832,1.439 9.18,2.412 0.468,-0.45 0.936,-0.95 1.404,-1.46 z"
           fill="#e9da6f"
           id="path129" />
        <path
           d="m 76.936,104.33 c -1.62,2.305 -2.088,3.924 -1.404,5.004 0.648,1.008 2.448,1.477 5.4,1.26 l -1.62,2.088 c -3.96,-0.539 -6.444,-1.332 -7.596,-2.232 -1.152,-0.971 0.18,-2.051 0.792,-3.383 0.468,-1.369 1.368,-3.025 2.412,-4.824 0.648,0.67 1.332,1.36 2.016,2.08 z"
           fill="#e9da6f"
           id="path131" />
        <path
           d="m 87.52,111.89 c 2.448,0.359 4.572,0.467 6.804,0.18 2.088,-0.289 4.14,-0.936 6.012,-1.945 0.72,0.686 1.728,1.262 3.024,1.441 1.296,0.252 2.736,0.107 4.608,-0.145 -1.332,1.367 -3.672,2.34 -7.02,3.061 -3.384,0.611 -7.74,0.971 -13.212,0.936 -0.074,-1.16 -0.146,-2.34 -0.218,-3.53 z"
           fill="#e9da6f"
           id="path133" />
        <path
           d="m 74.128,132.48 c 0.036,-2.125 0.648,-4.357 1.98,-7.236 1.296,-2.953 3.492,-6.768 5.616,-9.648 1.944,-2.916 5.58,-5.977 6.192,-7.379 0.468,-1.477 -1.332,-2.412 -2.772,-1.297 -1.656,0.973 -3.744,4.535 -5.832,7.381 -2.052,2.879 -4.644,6.371 -5.976,9.646 -1.332,3.098 -2.052,6.193 -2.016,9.145 0.936,-0.17 1.872,-0.38 2.808,-0.6 z"
           fill="#e9da6f"
           id="path135" />
        <path
           d="m 78.52,105.48 c 0.252,-0.396 0.54,-0.145 1.008,0.467 0.396,0.576 0.864,1.801 1.404,3.385 l 2.196,-2.412 c -0.288,-0.684 -0.864,-1.115 -1.584,-1.297 -0.864,-0.29 -1.728,-0.29 -3.024,-0.15 z"
           fill="#e9da6f"
           id="path137" />
        <path
           d="m 82.732,115.74 c 0.072,0.936 0.072,2.771 0.396,5.795 0.144,2.916 0.432,9.289 1.008,11.881 0.576,2.52 1.332,3.492 2.412,3.061 h 4.176 c -1.584,-0.973 -2.916,-2.736 -3.6,-5.293 -0.684,-2.627 -1.116,-7.523 -1.008,-10.115 -0.036,-2.592 0.72,-4.428 0.612,-5.652 -0.18,-1.297 -0.972,-2.232 -1.98,-2.412 -0.648,0.88 -1.332,1.78 -2.016,2.72 z"
           fill="#e9da6f"
           id="path139" />
        <path
           d="m 91.948,140.65 c 1.116,1.871 3.024,3.023 6.012,3.852 2.916,0.684 7.884,0.9 11.592,0.648 3.636,-0.324 6.876,-1.08 10.008,-2.412 l 1.404,-3.527 c -4.5,1.654 -8.676,2.52 -12.816,2.734 -4.176,0.145 -8.064,-0.395 -11.808,-1.619 -1.432,0.12 -2.908,0.22 -4.384,0.33 z"
           fill="#e9da6f"
           id="path141" />
        <path
           d="m 55.912,117.68 c -0.432,-2.879 -1.764,-5.291 -3.996,-7.236 -2.376,-2.051 -5.724,-2.951 -9.612,-4.643 -3.96,-1.801 -9.648,-4.141 -13.608,-5.473 -4.104,-1.367 -7.452,-2.125 -10.44,-2.412 l -1.584,1.439 c 3.42,0.18 6.732,0.721 9.792,1.621 3.06,0.863 5.472,2.268 8.64,3.672 3.096,1.332 7.056,2.592 9.792,4.176 2.592,1.477 4.464,3.133 6.012,4.824 1.44,1.656 2.376,3.131 2.808,4.824 1.188,-0.361 1.98,-0.576 2.376,-0.648 0.288,-0.17 0.36,-0.17 -0.18,-0.14 z"
           fill="#e9da6f"
           id="path143" />
        <path
           d="m 55.516,122 c 0.324,0.469 0.792,1.477 1.404,2.736 0.576,1.225 1.188,2.988 1.98,5.004 l 2.196,-0.828 -3.384,-7.381 c -0.72,0.15 -1.44,0.29 -2.196,0.47 z"
           fill="#e9da6f"
           id="path145" />
        <path
           d="m 68.908,128.92 c -1.584,0.217 -3.492,0.648 -6.012,1.152 -2.628,0.359 -6.876,1.043 -9,1.908 -2.124,0.936 -2.916,2.447 -3.204,3.707 -0.36,1.045 -1.152,1.98 1.224,3.385 2.304,1.367 7.668,3.455 12.6,5.148 4.968,1.654 11.88,3.348 16.416,4.5 4.284,1.043 7.416,1.439 9.396,1.764 1.728,0.143 2.196,0.035 1.8,-0.324 -0.432,-0.359 0.108,-1.008 -3.78,-1.943 -4.068,-1.262 -13.752,-2.953 -19.62,-4.645 -5.904,-1.729 -13.248,-3.637 -15.228,-5.328 -2.016,-1.836 0.396,-3.672 3.204,-4.969 2.772,-1.26 7.2,-2.268 13.428,-2.736 l 0.396,-2.23 c -0.54,0.17 -1.08,0.39 -1.62,0.61 z"
           fill="#e9da6f"
           id="path147" />
        <path
           d="m 49.684,133.6 c -1.08,-0.252 -1.764,-0.576 -2.196,-0.973 -0.54,-0.504 -1.044,-1.691 -0.396,-1.764 0.648,-0.18 2.124,0.289 4.428,1.117 -0.612,0.53 -1.224,1.07 -1.836,1.61 z"
           fill="#e9da6f"
           id="path149" />
        <path
           d="m 54.688,136.15 c 2.124,0.684 5.472,1.764 10.44,3.24 4.932,1.512 13.464,3.707 18.792,5.615 5.22,1.801 8.964,3.6 12.204,4.969 2.988,1.115 2.988,1.691 6.228,2.412 3.204,0.684 9.648,1.799 13.212,2.088 3.384,0.215 5.148,-0.072 7.812,-0.469 2.664,-0.432 6.804,-0.936 8.388,-2.088 1.548,-1.188 1.764,-2.951 0.792,-5.148 l -3.384,0.973 c 1.188,0.611 1.584,1.152 1.188,1.764 -0.432,0.504 -1.512,1.08 -3.78,1.584 -2.484,0.469 -6.156,1.115 -10.44,0.973 -4.392,-0.324 -9.432,-0.756 -15.408,-2.557 -6.084,-1.943 -12.888,-5.795 -20.412,-8.352 -7.524,-2.592 -15.732,-4.752 -24.624,-6.768 -0.322,0.6 -0.646,1.18 -1.006,1.79 z"
           fill="#e9da6f"
           id="path151" />
        <path
           d="m 59.116,133.74 c 3.528,-0.18 6.48,-0.18 9,-0.145 2.52,0.037 3.6,-0.035 6.012,0.324 2.232,0.287 5.688,0.721 7.596,1.439 1.764,0.504 2.628,1.26 3.42,2.412 0.72,1.117 1.044,2.664 0.972,4.5 l -3.168,-1.295 c -0.396,-1.945 -1.404,-3.24 -3.024,-4.176 -1.692,-1.01 -4.14,-1.117 -6.804,-1.297 -2.736,-0.252 -5.868,-0.252 -9.396,0 -1.512,-0.57 -3.06,-1.15 -4.608,-1.76 z"
           fill="#e9da6f"
           id="path153" />
        <path
           d="m 86.944,138.1 c 2.448,0.324 4.716,0.037 7.2,-0.467 2.34,-0.613 4.14,-0.613 7.2,-3.061 2.988,-2.52 6.66,-6.445 11.016,-11.916 l 3.996,0.504 c -2.412,3.131 -4.752,5.76 -7.02,8.172 -2.412,2.34 -4.176,4.463 -6.804,5.977 -2.736,1.332 -6.516,2.051 -9,2.555 -2.556,0.469 -4.464,0.576 -6.012,0.324 -0.188,-0.68 -0.368,-1.36 -0.584,-2.08 z"
           fill="#e9da6f"
           id="path155" />
        <path
           d="m 89.752,133.42 c 1.332,-0.396 2.592,-1.045 4.176,-2.088 1.476,-1.152 3.78,-2.736 4.824,-4.176 0.972,-1.512 1.26,-2.916 1.008,-4.5 l -3.204,-0.324 c 0.324,2.412 -0.144,4.393 -1.404,5.795 -1.332,1.441 -3.313,2.305 -6.229,2.736 0,0.686 0.072,1.369 0.216,1.764 0.073,0.36 0.325,0.72 0.613,0.8 z"
           fill="#e9da6f"
           id="path157" />
        <path
           d="m 112.14,130.54 c 0.324,-0.18 1.476,-0.432 3.6,-0.467 2.124,-0.18 4.932,-0.145 8.82,-0.18 l -2.592,5.795 c -2.772,0.828 -5.58,1.549 -8.424,1.764 -2.88,0.324 -5.76,0.145 -8.784,-0.143 l 2.592,-2.412 c 1.62,0.287 3.348,0.287 5.616,0 2.16,-0.361 4.572,-1.008 7.38,-1.945 -2.592,-0.107 -4.68,-0.107 -6.408,-0.143 -1.836,-0.037 -3.024,-0.037 -3.996,0 0.72,-0.75 1.44,-1.51 2.19,-2.26 z"
           fill="#e9da6f"
           id="path159" />
        <path
           d="m 104.15,130.07 c -0.576,0.18 -1.44,0.287 -2.592,0.324 -1.296,-0.037 -2.7,-0.145 -4.608,-0.324 l -2.808,2.088 c 0.288,0.467 0.72,0.9 1.584,1.439 0.828,0.469 1.8,1.008 3.204,1.621 l 2.016,-1.477 -3.6,-1.584 4.608,0.467 c 0.72,-0.83 1.44,-1.7 2.19,-2.56 z"
           fill="#e9da6f"
           id="path161" />
        <path
           d="m 113.94,150.48 c 1.44,-0.18 2.664,-0.613 4.212,-1.297 1.332,-0.719 2.7,-0.432 4.392,-2.879 1.764,-2.701 4.176,-8.496 5.832,-12.24 1.476,-3.781 2.916,-6.768 3.204,-9.648 0,-2.844 -1.332,-5.977 -2.196,-7.057 -0.936,-1.152 -2.412,-0.252 -2.628,0.469 -0.18,0.576 1.656,1.26 1.62,3.564 -0.144,2.268 -1.008,6.227 -2.196,9.936 -1.296,3.637 -3.708,9.035 -5.436,11.736 -1.8,2.52 -1.908,3.023 -5.184,3.852 -3.384,0.791 -8.28,1.225 -14.832,1.152 1.152,0.576 2.772,1.008 5.004,1.439 2.19,0.37 4.92,0.69 8.23,0.98 z"
           fill="#e9da6f"
           id="path163" />
        <path
           d="m 72.724,120.89 c -2.16,0.395 -4.032,0.504 -5.616,0.324 -1.62,-0.289 -2.952,-0.828 -3.996,-1.766 l -1.8,0.973 c 1.26,1.26 2.844,2.305 4.608,2.736 1.728,0.396 3.78,0.576 6.012,0.145 0.252,-0.79 0.504,-1.58 0.792,-2.41 z"
           fill="#e9da6f"
           id="path165" />
        <path
           d="m 60.916,121.54 c 1.152,0.721 2.196,1.729 2.988,2.881 0.756,1.152 1.404,2.447 1.8,4.031 l -3.384,0.469 c -0.18,-0.973 -0.468,-1.943 -1.008,-3.203 -0.576,-1.297 -1.26,-2.594 -2.196,-4.178 z"
           fill="#e9da6f"
           id="path167" />
        <path
           d="m 54.508,124.92 -8.028,-0.18 0.216,-1.908 c 1.368,0.18 2.592,0.18 3.816,0.145 1.224,-0.145 2.16,-0.361 3.204,-0.648 0.252,0.86 0.504,1.73 0.792,2.59 z"
           fill="#e9da6f"
           id="path169" />
        <path
           d="m 42.304,123.3 h -3.816 l -0.18,-2.412 4.392,0.646 -0.396,1.76 z"
           fill="#e9da6f"
           id="path171" />
        <path
           d="m 34.276,122 c -1.512,0 -3.492,0 -5.796,-0.145 -2.448,-0.18 -5.976,0.072 -8.208,-0.646 -2.16,-0.938 -3.636,-2.412 -5.004,-3.996 -1.512,-1.514 -2.844,-3.277 -3.996,-5.148 l 2.808,0.936 c 0.72,1.871 1.8,3.275 3.384,4.355 1.476,0.9 2.808,1.549 5.796,1.945 2.952,0.467 6.696,0.684 11.628,0.791 -0.18,0.62 -0.396,1.27 -0.612,1.91 z"
           fill="#e9da6f"
           id="path173" />
        <path
           d="m 23.08,122.51 c 2.34,2.016 4.572,3.42 6.408,4.5 1.8,1.008 3.492,1.549 4.788,1.621 v -2.412 c -2.34,-0.576 -4.068,-1.225 -5.184,-1.801 -1.152,-0.611 -1.692,-1.297 -1.62,-1.908 z"
           fill="#e9da6f"
           id="path175" />
        <path
           d="m 19.876,117.68 -2.988,-3.852 5.184,2.412 2.016,2.557 -4.212,-1.12 z"
           fill="#e9da6f"
           id="path177" />
        <path
           d="m 32.692,109.98 c -1.044,-0.289 -2.196,-0.396 -3.6,-0.324 -1.44,0.072 -2.88,0.287 -4.608,0.791 l 5.4,1.621 c 0.288,-0.361 0.756,-0.576 1.404,-0.504 0.576,-0.037 1.476,0.18 2.412,0.648 -0.324,-0.73 -0.648,-1.48 -1.008,-2.24 z"
           fill="#e9da6f"
           id="path179" />
        <path
           d="m 29.884,107.57 c -0.864,-0.145 -1.836,-0.145 -3.204,0.145 -1.404,0.18 -2.952,0.611 -4.788,1.295 l -2.808,-0.791 c 0.648,-0.793 1.548,-1.441 2.988,-1.801 1.404,-0.396 3.096,-0.648 5.22,-0.611 0.864,0.56 1.728,1.14 2.592,1.75 z"
           fill="#e9da6f"
           id="path181" />
        <path
           d="m 27.472,94.535 c -0.036,-0.791 0.432,-1.439 1.404,-1.943 0.972,-0.611 2.448,-1.043 4.428,-1.439 l 1.188,2.088 c -1.584,-0.072 -2.916,0.145 -3.6,0.504 -0.72,0.287 -1.188,0.863 -1.008,1.584 -0.792,-0.253 -1.584,-0.505 -2.412,-0.794 z"
           fill="#e9da6f"
           id="path183" />
        <path
           d="m 44.284,89.244 c 0.54,-0.396 2.52,-0.504 6.228,-0.324 3.708,0.18 8.712,0.611 15.588,1.439 0.576,0.469 0.576,0.938 0,1.117 -0.612,0.252 -1.62,0.215 -3.6,0.18 -2.088,-0.252 -5.94,-0.721 -8.784,-0.828 -2.88,-0.145 -5.796,-0.037 -8.604,0.324 -0.252,-0.613 -0.54,-1.259 -0.828,-1.908 z"
           fill="#e9da6f"
           id="path185" />
        <path
           d="m 6.88,91.008 c 0.396,1.691 1.476,2.699 3.384,2.881 1.872,0.143 4.428,-0.396 7.812,-1.766 0.72,0.828 0.72,1.477 0,2.09 -0.864,0.467 -2.772,1.223 -4.608,1.295 C 11.56,95.58 9.364,95.256 6.88,94.68 Z"
           fill="#e9da6f"
           id="path187" />
        <path
           d="m 22.468,91.332 9.612,-1.943 c -1.62,0.684 -3.168,1.475 -4.788,2.088 -1.692,0.576 -3.312,1.26 -5.004,1.764 0.036,-0.612 0.108,-1.261 0.18,-1.909 z"
           fill="#e9da6f"
           id="path189" />
        <path
           d="m 38.308,107.57 c 0.54,1.043 0.936,1.98 1.188,3.348 0.252,1.225 0.216,2.664 0.18,4.176 l 2.412,0.648 c 0.144,-1.691 0.036,-3.24 -0.18,-4.5 -0.288,-1.404 -0.756,-2.377 -1.404,-3.348 -0.72,-0.12 -1.44,-0.22 -2.196,-0.33 z"
           fill="#e9da6f"
           id="path191" />
        <path
           d="m 56.704,104.65 c 1.944,-1.045 3.816,-1.801 6.012,-2.412 2.052,-0.611 4.248,-1.08 6.588,-1.26 l -0.792,2.088 c -1.476,0.145 -2.88,0.359 -4.212,0.791 -1.332,0.361 -2.592,0.9 -3.78,1.621 -1.26,-0.25 -2.52,-0.54 -3.816,-0.83 z"
           fill="#e9da6f"
           id="path193" />
        <path
           d="m 76.54,133.27 c -0.72,-1.043 -0.612,-2.807 0.18,-5.291 0.756,-2.557 2.34,-5.832 4.608,-9.828 l 0.612,3.24 c -1.512,1.691 -2.52,3.455 -3.024,5.436 -0.504,2.016 -0.612,3.924 -0.18,6.264 -0.72,0.04 -1.44,0.11 -2.196,0.18 z"
           fill="#e9da6f"
           id="path195" />
        <path
           d="m 77.332,136.48 0.18,3.059 2.412,0.793 -0.396,-3.023 -2.196,-0.83 z"
           fill="#e9da6f"
           id="path197" />
        <path
           d="m 78.34,144.04 -0.216,1.117 1.8,0.504 0.216,-1.297 -1.8,-0.32 z"
           fill="#e9da6f"
           id="path199" />
        <path
           d="m 87.34,122.65 c 2.448,0.504 4.284,0.828 5.796,0.971 1.404,0.072 2.34,-0.035 2.808,-0.322 l -0.612,2.268 c -1.764,0.035 -3.348,-0.072 -4.608,-0.18 -1.296,-0.182 -2.412,-0.396 -3.204,-0.648 -0.036,-0.68 -0.108,-1.37 -0.18,-2.09 z"
           fill="#e9da6f"
           id="path201" />
        <path
           d="m 100.73,123.62 c 1.98,-0.252 3.78,-0.359 5.4,-0.322 1.584,-0.072 2.88,0.035 4.032,0.18 l -2.196,2.879 c -0.756,0.037 -1.764,0.037 -3.024,0 -1.332,-0.107 -2.772,-0.215 -4.608,-0.467 0.11,-0.75 0.26,-1.51 0.4,-2.27 z"
           fill="#e9da6f"
           id="path203" />
        <path
           d="m 128.96,154.26 c 1.548,1.045 3.492,1.621 5.832,1.584 2.34,-0.072 5.076,-0.432 8.208,-1.764 2.952,-1.477 5.688,-3.492 10.008,-6.443 4.393,-2.953 11.809,-7.236 15.984,-10.908 3.996,-3.709 6.624,-7.92 8.027,-11.268 1.404,-3.492 1.332,-6.59 0.181,-9.145 -1.26,-2.592 -6.156,-5.221 -7.597,-5.941 -1.619,-0.791 -2.088,-0.035 -1.403,1.441 0.72,1.404 4.968,4.031 5.796,6.912 0.828,2.771 0.432,6.156 -1.188,9.324 -1.872,3.023 -6.3,6.299 -9.396,9 -3.204,2.592 -6.3,4.57 -9.433,6.912 -3.203,2.34 -6.264,5.004 -9.18,6.73 -3.06,1.477 -6.588,2.197 -8.64,2.592 -2.088,0.361 -3.348,0.252 -3.78,-0.322 -1.12,0.44 -2.27,0.87 -3.42,1.3 z"
           fill="#e9da6f"
           id="path205" />
        <path
           d="m 147.39,146.84 c 2.305,-2.699 4.969,-5.688 7.992,-8.676 3.096,-3.168 7.992,-6.66 9.828,-9.648 1.584,-2.916 1.584,-5.688 0,-8.027 l 0.792,-3.385 c 2.664,2.377 3.996,4.645 3.996,7.236 -0.072,2.447 -2.124,4.969 -4.212,7.705 -2.196,2.734 -5.076,5.398 -8.784,8.387 -3.21,2.13 -6.42,4.25 -9.62,6.41 z"
           fill="#e9da6f"
           id="path207" />
        <path
           d="m 165.78,114.88 c 2.052,1.693 3.528,3.061 4.428,4.645 0.9,1.369 0.792,2.484 0.792,4.176 -0.107,1.693 -0.576,3.529 -1.404,5.797 1.837,-1.404 3.024,-2.809 3.421,-4.645 0.359,-1.799 -0.108,-4.211 -1.009,-6.119 -1.044,-2.16 -3.815,-5.293 -4.823,-5.941 -1.08,-0.62 -1.55,0.02 -1.41,2.08 z"
           fill="#e9da6f"
           id="path209" />
        <path
           d="m 161.79,118.22 c -0.072,2.016 -0.072,3.959 0,5.975 0,1.945 0.18,3.816 0.396,5.762 l 2.016,-2.232 c -0.432,-2.053 -0.685,-3.889 -0.612,-5.797 0.072,-2.016 0.937,-4.859 0.792,-5.471 -0.41,-0.61 -1.13,-0.07 -2.6,1.76 z"
           fill="#e9da6f"
           id="path211" />
        <path
           d="m 159.59,120.64 c 0.36,0.611 0.433,1.799 0.612,3.563 0.072,1.729 0.072,3.924 0,6.732 l -2.628,1.764 c 0.324,-1.295 0.396,-2.268 0.216,-3.059 -0.216,-0.756 -0.684,-1.332 -1.404,-1.584 0.072,-2.018 0.252,-3.492 0.396,-4.824 0.072,-1.404 0.324,-2.412 0.612,-2.881 0.323,-0.467 0.72,0.18 1.188,0.289 0.35,0.03 0.64,0.03 1,0 z"
           fill="#e9da6f"
           id="path213" />
        <path
           d="m 150.2,124.34 c 1.691,0.828 2.844,1.873 3.996,2.736 0.972,0.828 1.979,1.367 2.195,2.736 0.072,1.332 0.324,3.527 -1.188,5.471 -1.548,1.945 -4.5,4.105 -8.028,5.941 -3.672,1.584 -9.972,3.348 -13.212,4.176 -3.204,0.791 -4.536,0.18 -5.796,0.791 -1.404,0.504 -1.944,1.873 -2.016,2.592 -0.072,0.686 0.54,0.973 1.836,1.262 l -4.608,0.826 c -0.72,-1.367 -0.72,-2.555 0,-3.707 0.612,-1.08 1.08,-2.195 4.176,-3.203 3.168,-1.152 10.224,-2.484 14.22,-3.709 3.852,-1.295 6.983,-2.592 8.819,-4.031 1.692,-1.656 1.944,-3.492 1.584,-5.113 -0.504,-1.619 -2.304,-3.348 -3.996,-4.355 -1.764,-1.043 -3.779,-1.836 -6.191,-2.088 2.73,-0.11 5.47,-0.22 8.21,-0.33 z"
           fill="#e9da6f"
           id="path215" />
        <path
           d="m 136.59,124.67 c 3.024,0.072 5.22,0.973 6.588,2.557 1.368,1.584 2.16,4.68 1.404,6.912 -0.864,2.088 -3.06,4.066 -6.588,5.795 l -5.004,1.117 c 3.132,-1.189 5.328,-2.736 6.588,-4.5 1.116,-1.945 1.979,-4.537 0.792,-6.266 -1.188,-1.727 -3.672,-3.059 -7.596,-3.996 l -0.216,-3.059 c 1.34,0.47 2.67,0.93 4.04,1.44 z"
           fill="#e9da6f"
           id="path217" />
        <path
           d="m 126.76,140.58 c 2.016,-0.756 3.852,-1.512 5.796,-2.412 1.908,-0.863 3.672,-1.871 5.436,-2.881 -0.54,-0.756 -1.152,-1.367 -1.836,-1.439 -0.72,-0.252 -1.512,0.037 -2.376,0.469 -1.692,1.152 -3.024,1.908 -3.996,2.555 -1.08,0.576 -1.62,0.9 -2.016,0.973 -0.32,0.89 -0.64,1.79 -1,2.73 z"
           fill="#e9da6f"
           id="path219" />
        <path
           d="m 130.18,133.34 c 0.864,-0.576 2.016,-0.9 3.6,-0.973 1.584,-0.143 3.312,-0.035 5.58,0.324 l -0.181,-2.088 c -1.943,-0.576 -3.456,-0.9 -4.824,-0.971 -1.404,-0.145 -2.412,-0.037 -3.168,0.324 -0.33,1.13 -0.65,2.24 -1.01,3.39 z"
           fill="#e9da6f"
           id="path221" />
        <path
           d="m 145.37,130.93 c 1.62,0.037 2.952,0.252 3.996,0.504 1.044,0.18 1.584,0.541 2.016,0.936 l -1.008,2.412 -4.788,-1.26 c -0.07,-0.86 -0.15,-1.72 -0.22,-2.59 z"
           fill="#e9da6f"
           id="path223" />
        <path
           d="m 113.37,114.05 c 1.188,1.439 2.664,2.627 4.572,3.563 1.8,0.9 5.436,1.908 6.624,1.908 1.116,-0.072 1.512,-1.188 0.216,-2.088 -1.512,-0.936 -4.212,-2.16 -8.64,-3.527 -0.9,0.04 -1.84,0.08 -2.77,0.15 z"
           fill="#e9da6f"
           id="path225" />
        <path
           d="m 103.36,115.02 c 1.44,0.613 3.06,1.225 5.004,1.441 1.908,0.322 3.996,0.252 6.408,0.18 l 1.584,1.908 c -0.504,-0.182 -2.016,-0.289 -4.392,-0.324 -2.376,-0.109 -5.76,-0.109 -10.008,-0.145 -1.584,-0.289 -2.736,-0.611 -3.6,-0.973 -0.864,-0.395 -1.332,-0.828 -1.404,-1.295 2.13,-0.26 4.254,-0.51 6.414,-0.8 z"
           fill="#e9da6f"
           id="path227" />
        <path
           d="m 121.14,124.52 0.216,3.996 2.988,0.504 -0.18,-4.355 -3.03,-0.14 z"
           fill="#e9da6f"
           id="path229" />
        <path
           d="m 165.6,141.7 c -0.721,1.873 -0.505,3.133 0.792,4.176 1.332,0.9 3.743,1.908 6.804,1.621 3.023,-0.396 7.128,-1.764 10.8,-3.527 3.42,-1.945 7.128,-4.537 10.008,-7.236 2.736,-2.629 5.473,-5.473 6.805,-8.676 1.224,-3.457 1.691,-6.984 1.008,-11.27 l 3.42,-1.764 c 1.151,2.484 1.332,5.545 0.396,9.18 -1.008,3.672 -2.735,8.389 -6.012,12.35 -3.456,3.779 -9.18,8.1 -13.824,10.475 -4.788,2.268 -9.972,2.916 -13.607,3.348 -3.564,0.324 -6.048,-0.504 -7.597,-1.115 -1.584,-0.648 -1.439,-1.98 -1.8,-2.881 -0.396,-1.043 -0.647,-2.016 -0.611,-3.059 1.12,-0.54 2.27,-1.08 3.42,-1.62 z"
           fill="#e9da6f"
           id="path231" />
        <path
           d="m 162.4,148.79 c -1.656,0.289 -3.24,0.576 -4.608,0.469 -1.439,0 -2.664,-0.396 -3.816,-0.791 l -2.808,2.555 c 3.024,0.576 5.904,0.9 8.64,0.973 2.736,0.035 5.328,-0.18 7.776,-0.648 -1.584,-0.252 -2.736,-0.576 -3.6,-0.973 -0.86,-0.5 -1.44,-0.9 -1.58,-1.58 z"
           fill="#e9da6f"
           id="path233" />
        <path
           d="m 180.8,144.61 c 1.332,-0.539 2.736,-2.268 4.212,-5.328 1.477,-3.203 2.88,-9.287 4.608,-12.996 1.656,-3.672 2.16,-5.832 5.399,-8.855 3.276,-3.168 9.576,-6.012 13.608,-9.648 3.816,-3.6 6.84,-7.668 9.216,-12.059 0.216,3.42 -0.72,6.408 -2.808,9.504 -2.196,2.916 -7.128,6.299 -9.792,8.352 -2.664,1.98 -4.248,1.908 -6.012,3.527 -1.944,1.477 -3.24,2.16 -5.005,5.797 -1.8,3.672 -3.672,8.893 -5.615,16.057 -0.324,0.898 -1.116,1.764 -2.376,2.734 -1.34,0.91 -3.1,1.88 -5.44,2.92 z"
           fill="#e9da6f"
           id="path235" />
        <path
           d="m 190.62,137.2 4.212,-3.527 c 0.145,-3.168 0.792,-5.797 1.8,-8.027 0.937,-2.27 2.376,-3.889 4.177,-5.148 l -0.396,-3.061 c -1.512,0.504 -2.808,1.691 -4.176,3.852 -1.404,2.125 -2.952,5.941 -3.816,8.678 -0.92,2.7 -1.57,4.97 -1.79,7.24 z"
           fill="#e9da6f"
           id="path237" />
        <path
           d="m 203.22,132.37 c 1.225,-0.863 3.708,-1.764 7.597,-2.555 3.888,-0.865 9,-1.621 15.624,-2.412 l -0.396,2.879 c -5.508,0.613 -10.151,1.549 -14.22,2.412 -4.104,0.828 -7.344,1.98 -10.008,3.061 0.48,-1.12 0.95,-2.24 1.41,-3.39 z"
           fill="#e9da6f"
           id="path239" />
        <path
           d="m 194.44,142.67 c 6.012,-1.152 11.268,-2.447 16.199,-4.031 4.752,-1.584 7.452,-2.629 12.816,-5.617 5.436,-3.24 11.772,-7.451 19.404,-13.176 -3.853,4.393 -7.813,8.209 -12.42,11.592 -4.645,3.313 -10.044,6.193 -14.796,8.496 -4.896,2.232 -9.828,4.285 -13.824,5.328 -4.068,0.936 -7.272,1.332 -10.008,0.793 0.87,-1.11 1.73,-2.23 2.63,-3.38 z"
           fill="#e9da6f"
           id="path241" />
        <path
           d="m 182.02,141.55 c -3.492,0.611 -6.48,0.719 -8.82,0.467 -2.484,-0.287 -4.104,-1.08 -5.4,-2.232 l 1.8,-2.268 c 2.089,0.613 4.429,1.117 7.021,1.117 2.484,0.107 5.22,-0.289 8.208,-0.793 -0.94,1.22 -1.87,2.44 -2.81,3.7 z"
           fill="#e9da6f"
           id="path243" />
        <path
           d="m 173.42,134.32 c -0.18,0.072 0.684,0.18 2.592,0.324 1.836,0.143 4.752,0.252 8.604,0.467 l 0.216,1.764 c -2.988,0.576 -5.544,0.9 -7.813,0.828 -2.34,-0.07 -4.14,-0.504 -5.796,-1.295 0.72,-0.68 1.44,-1.36 2.2,-2.08 z"
           fill="#e9da6f"
           id="path245" />
        <path
           d="m 175.61,132.88 c 1.836,-0.936 3.708,-2.016 6.012,-3.383 2.232,-1.369 4.645,-3.023 7.38,-4.824 l -1.8,5.148 c -2.124,0.576 -3.852,1.115 -5.184,1.764 -1.404,0.576 -2.412,1.225 -3.024,1.943 -1.12,-0.22 -2.24,-0.44 -3.39,-0.65 z"
           fill="#e9da6f"
           id="path247" />
        <path
           d="m 178.42,125.46 c 0.756,0.215 2.088,-0.072 3.996,-0.469 1.908,-0.432 4.176,-1.369 7.2,-2.412 l 2.016,-3.205 -8.208,1.586 6.408,-2.881 c 0.216,-1.729 0.144,-2.844 -0.216,-3.205 -0.432,-0.359 -0.612,-0.143 -2.196,0.793 -1.691,0.721 -4.248,2.053 -7.812,3.852 -0.036,1.549 -0.217,2.881 -0.396,3.852 -0.21,1.01 -0.43,1.66 -0.79,2.09 z"
           fill="#e9da6f"
           id="path249" />
        <path
           d="m 137.56,145.55 c -1.224,0.936 -1.332,1.691 -0.18,2.412 1.152,0.611 3.276,1.15 6.805,1.619 l 2.016,-1.297 c -2.844,0 -4.536,-0.215 -5.22,-0.936 -0.721,-0.719 -0.433,-1.799 1.008,-3.24 -1.48,0.48 -2.95,0.94 -4.43,1.45 z"
           fill="#e9da6f"
           id="path251" />
        <path
           d="m 215.25,107.21 c 4.212,0.938 7.813,1.297 11.196,0.938 3.348,-0.432 6.408,-1.404 8.604,-3.205 2.053,-1.836 3.276,-4.248 3.816,-7.379 -1.008,2.771 -2.34,4.68 -4.393,6.264 -2.124,1.439 -4.716,2.34 -7.632,2.557 -2.952,0.143 -6.12,-0.289 -9.792,-1.441 l 0.792,-2.088 c 2.592,0.793 5.256,1.152 7.992,0.793 2.772,-0.289 6.552,-1.477 8.424,-2.736 1.62,-1.404 1.62,-3.457 1.8,-5.617 0.145,-2.375 -0.72,-5.688 -0.792,-7.848 -0.18,-2.195 -0.359,-3.814 0,-4.859 0.252,-1.08 0.9,-1.512 1.801,-1.439 0.071,-2.772 0.899,-4.645 2.195,-5.617 1.332,-0.936 3.78,-0.72 5.796,-0.324 1.944,0.288 3.996,0.468 6.013,2.088 1.836,1.548 4.68,4.429 5.616,7.093 0.863,2.447 2.088,4.104 -0.217,8.027 -2.483,3.924 -7.128,9.072 -14.22,15.588 0.324,-1.045 0.612,-2.232 1.008,-3.709 0.396,-1.512 0.756,-3.275 1.225,-5.291 3.312,-5.184 5.256,-8.965 5.976,-11.736 0.504,-2.771 -0.576,-3.635 -1.98,-4.68 -1.367,-1.188 -4.896,-2.52 -6.012,-1.908 -1.151,0.611 -0.72,3.275 -0.792,5.615 -0.252,2.16 -0.18,5.006 -0.216,7.705 -0.144,2.664 0.396,5.867 -0.18,8.207 -0.612,2.197 -1.332,3.637 -3.42,5.148 -2.305,1.439 -5.364,3.133 -9.612,3.529 -4.248,0.252 -9.36,-0.289 -15.624,-1.766 0.85,-0.6 1.72,-1.24 2.62,-1.89 z"
           fill="#e9da6f"
           id="path253" />
        <path
           d="m 246.68,99.469 c 2.34,-2.773 4.068,-5.293 5.185,-7.561 1.044,-2.34 1.872,-4.428 1.224,-6.264 -0.792,-2.053 -3.744,-3.996 -5.399,-5.293 -1.656,-1.295 -3.313,-2.087 -4.429,-2.231 -1.224,-0.18 -2.16,0.288 -2.808,1.26 0.036,-2.052 0.792,-2.916 2.412,-2.736 1.584,0.18 5.328,2.34 7.2,3.852 1.728,1.367 2.88,3.096 3.6,4.5 0.756,1.332 1.08,1.871 0.828,3.564 -0.504,1.619 -1.656,4.355 -3.024,6.264 -1.33,1.799 -2.88,3.348 -4.78,4.645 z"
           id="path255" />
        <path
           d="m 228.06,124.88 c 3.527,-2.018 6.947,-3.816 10.8,-5.941 3.78,-2.123 8.1,-4.463 11.592,-6.443 3.313,-2.016 5.796,-3.061 8.424,-5.473 2.521,-2.482 5.437,-6.047 6.805,-9.143 1.224,-3.168 1.691,-6.014 1.008,-9.648 -0.828,-3.672 -2.916,-8.965 -5.004,-12.384 -2.088,-3.6 -4.608,-7.092 -7.021,-8.676 -2.483,-1.548 -4.968,-1.116 -7.596,-0.648 -2.664,0.288 -5.4,1.152 -8.208,2.592 l -0.61,2.877 c 2.16,-1.62 4.464,-2.484 7.2,-2.88 2.7,-0.468 6.192,-1.008 8.82,0.612 2.52,1.62 4.535,5.868 6.191,9 1.512,3.096 3.024,5.975 3.42,9.325 0.288,3.311 0.504,6.73 -1.008,9.971 -1.62,3.096 -4.284,5.617 -7.992,8.533 -3.779,2.879 -9.54,5.58 -14.22,8.496 -4.68,2.771 -9.288,5.508 -13.824,8.207 0.4,0.53 0.79,1.07 1.22,1.61 z"
           fill="#e9da6f"
           id="path257" />
        <path
           d="m 224.86,121.97 c 2.268,-0.504 4.824,-1.621 7.812,-3.205 2.916,-1.799 6.229,-4.463 9.792,-6.588 3.492,-2.16 8.101,-3.672 11.196,-5.939 2.952,-2.449 5.472,-5.4 7.02,-7.885 1.477,-2.484 1.98,-4.355 2.196,-6.732 0.145,-2.555 -0.144,-5.004 -1.008,-7.738 -0.937,-2.846 -2.521,-5.905 -4.176,-8.353 -1.765,-2.448 -3.708,-4.896 -5.832,-5.796 -2.305,-0.936 -4.933,-0.072 -7.2,0.504 -2.304,0.468 -4.392,1.368 -6.408,2.556 l -0.576,2.412 c 2.448,-0.864 4.716,-1.692 6.805,-2.088 2.052,-0.504 3.815,-1.368 5.58,-0.792 1.728,0.504 3.168,2.016 4.607,3.852 1.332,1.8 2.664,4.213 3.601,6.408 0.863,2.088 1.836,3.527 1.8,5.977 -0.181,2.268 -0.468,5.219 -2.376,8.027 -1.944,2.699 -6.301,6.084 -9.036,8.352 -2.736,2.125 -4.824,3.168 -7.38,4.68 -2.736,1.477 -5.652,2.594 -8.604,4.32 -3.023,1.621 -6.048,3.492 -9.216,5.617 0.47,0.8 0.94,1.59 1.41,2.42 z"
           fill="#e9da6f"
           id="path259" />
        <path
           d="m 227.67,125.35 c -1.152,-1.08 -2.088,-1.943 -3.204,-2.879 -1.26,-0.938 -2.195,-0.828 -3.204,-2.592 -0.972,-1.873 -1.62,-4.609 -2.231,-8.354 l -3.78,-0.646 c 0.108,3.311 1.044,6.264 2.808,8.855 1.765,2.555 4.356,4.752 7.776,6.588 0.59,-0.33 1.21,-0.65 1.82,-0.98 z"
           fill="#e9da6f"
           id="path261" />
        <path
           d="m 223.24,126.32 c -1.98,-0.541 -3.708,-1.512 -5.185,-3.061 -1.619,-1.584 -2.987,-3.996 -3.815,-6.119 -0.828,-2.27 -1.116,-4.428 -1.008,-6.912 l -1.98,-0.469 -1.008,1.297 c 0.432,4.32 1.044,7.74 1.979,10.115 0.9,2.232 2.269,3.205 3.421,4.176 1.044,1.045 2.088,1.693 2.987,2.088 1.51,-0.37 3.06,-0.73 4.61,-1.13 z"
           fill="#e9da6f"
           id="path263" />
        <path
           d="m 206.43,129.06 c 0.864,-0.938 1.872,-1.836 3.024,-2.412 1.116,-0.613 2.268,-1.188 3.6,-1.441 l -1.62,-3.238 c -1.115,0.467 -2.159,1.008 -2.987,1.619 -0.9,0.611 -1.584,1.26 -2.196,2.088 0.04,1.11 0.12,2.23 0.19,3.38 z"
           fill="#e9da6f"
           id="path265" />
        <path
           d="m 206.64,122.94 3.779,-1.908 -0.576,-3.24 -2.016,1.152 -1.18,4 z"
           fill="#e9da6f"
           id="path267" />
        <path
           d="m 221.44,113.47 c 0.071,0.252 1.044,0.287 3.204,-0.182 2.088,-0.395 5.22,-1.295 9.396,-2.41 -2.304,0.719 -4.428,1.584 -6.372,2.592 -1.979,0.971 -3.744,2.088 -5.436,3.348 -0.25,-1.12 -0.5,-2.23 -0.79,-3.35 z"
           fill="#e9da6f"
           id="path269" />
        <path
           d="m 200.63,137.56 c 1.044,0.035 2.269,-0.037 3.816,-0.613 1.512,-0.576 3.312,-1.439 5.399,-2.592 l 7.2,-1.115 c -2.231,1.439 -4.968,2.879 -8.208,4.176 -3.348,1.332 -7.02,2.52 -11.412,3.707 1.04,-1.2 2.12,-2.39 3.2,-3.57 z"
           fill="#e9da6f"
           id="path271" />
        <path
           d="m 191.24,109.12 c 1.979,-0.971 8.172,-1.295 11.376,-3.203 3.023,-2.16 5.292,-5.652 7.632,-8.676 2.448,-3.096 5.364,-8.1 6.804,-9.18 1.296,-1.045 1.729,0.287 1.008,2.592 -0.936,2.232 -3.636,7.379 -6.012,10.439 -2.412,3.023 -4.392,5.436 -8.028,7.381 -3.708,1.799 -11.483,3.203 -13.607,3.383 -2.13,0.03 -1.3,-1.81 0.83,-2.74 z"
           fill="#e9da6f"
           id="path273" />
        <path
           d="m 223.46,84.527 c -0.324,2.449 -0.504,4.789 -0.396,7.561 0.144,2.592 1.151,6.805 0.792,8.352 -0.54,1.477 -3.204,1.549 -3.816,0.648 -0.72,-1.043 -0.36,-3.889 -0.18,-6.443 0.071,-2.521 0.396,-5.508 0.972,-8.82 0.87,-0.434 1.74,-0.866 2.64,-1.3 z"
           fill="#e9da6f"
           id="path275" />
        <path
           d="m 231.05,60.264 c 3.889,1.584 7.38,2.016 10.62,1.44 3.276,-0.648 7.74,-2.916 8.389,-5.148 0.432,-2.376 -0.973,-5.112 -5.58,-8.352 -4.752,-3.384 -20.772,-9.9 -22.645,-11.232 -1.84,-1.332 6.26,1.368 11.23,3.528 4.932,2.124 14.472,5.724 17.784,9 3.06,3.204 2.411,7.74 0.827,10.116 -1.728,2.232 -6.84,2.844 -10.619,3.384 -3.816,0.396 -7.776,0.18 -12.024,-0.648 0.64,-0.684 1.33,-1.368 2.01,-2.088 z"
           fill="#e9da6f"
           id="path277" />
        <path
           d="m 227.06,63.972 c 0.685,-1.116 1.332,-2.196 1.801,-3.24 0.54,-1.188 1.619,-1.836 1.008,-3.348 -0.864,-1.512 -2.592,-3.492 -5.616,-5.796 l 1.404,4.032 c 1.403,0.576 2.088,1.188 2.195,2.232 0.072,1.008 -0.575,2.052 -1.8,3.528 0.33,0.864 0.66,1.728 1.02,2.592 z"
           fill="#e9da6f"
           id="path279" />
        <path
           d="m 236.45,65.232 c 1.8,-0.18 4.068,-0.54 6.804,-0.936 2.7,-0.504 6.265,-1.188 9.433,-1.764 3.023,-0.72 6.552,-1.836 8.783,-2.088 2.124,-0.252 4.032,0.324 4.213,0.612 0.071,0.072 -1.729,0.288 -3.601,0.648 -2.052,0.36 -4.032,0.9 -8.028,1.764 -4.104,0.792 -9.287,1.872 -15.983,3.24 -0.53,-0.468 -1.07,-0.972 -1.61,-1.476 z"
           fill="#e9da6f"
           id="path281" />
        <path
           d="m 227.24,64.908 c 0.864,-0.612 1.872,-1.08 3.023,-1.116 1.08,-0.18 2.664,-0.108 3.78,0.504 1.116,0.504 2.232,1.512 2.808,2.88 0.36,1.332 -0.071,3.744 -0.18,5.148 -0.107,1.332 0.036,1.368 -0.396,2.736 -0.469,1.26 -0.973,3.096 -2.628,4.825 -1.872,1.691 -4.393,3.311 -7.992,5.146 l -1.008,-2.088 c 3.312,-1.26 5.579,-2.627 7.199,-4.5 1.513,-1.908 1.584,-4.572 2.017,-6.444 0.324,-1.908 0.432,-3.744 0.18,-4.68 -0.288,-0.936 -0.9,-1.512 -1.979,-1.44 -1.152,-0.072 -3.024,0.108 -5.221,0.828 0.11,-0.575 0.25,-1.187 0.4,-1.799 z"
           fill="#e9da6f"
           id="path283" />
        <path
           d="m 224.86,77.472 c 1.296,-1.728 2.628,-3.348 3.996,-5.004 1.296,-1.62 2.628,-3.276 3.996,-4.824 l -0.181,4.212 c -1.403,1.368 -2.7,2.664 -4.032,4.176 -1.367,1.476 -2.699,2.88 -3.995,4.5 0.06,-1.009 0.13,-2.016 0.2,-3.06 z"
           fill="#e9da6f"
           id="path285" />
        <path
           d="m 264.89,79.38 c -0.72,-2.52 -0.611,-4.608 0.181,-6.408 0.756,-1.8 4.14,-3.06 4.607,-4.176 0.36,-1.152 -0.756,-2.124 -1.979,-2.916 -1.296,-0.972 -3.061,-1.728 -5.437,-2.556 l 3.204,-0.648 c 2.124,0.72 3.744,1.512 5.004,2.232 1.152,0.72 1.62,1.368 2.232,2.088 0.468,0.576 1.44,1.08 0.972,1.8 -0.575,0.612 -2.808,1.404 -3.779,2.232 -0.9,0.792 -1.62,0.396 -2.017,2.412 -0.576,1.908 -0.972,4.86 -1.188,9 -0.55,-1.008 -1.17,-2.016 -1.78,-3.06 z"
           fill="#e9da6f"
           id="path287" />
        <path
           d="m 262.7,73.62 c 1.296,-2.34 1.764,-4.284 1.404,-5.976 -0.36,-1.692 -1.62,-3.132 -3.637,-4.176 l -3.204,0.324 c 2.376,1.152 3.853,2.52 4.429,3.708 0.504,1.152 0.216,2.52 -1.009,3.708 0.65,0.792 1.33,1.584 2.02,2.412 z"
           fill="#e9da6f"
           id="path289" />
        <path
           d="m 255.89,66.384 3.169,-0.504 1.619,1.944 -2.987,0.144 -1.8,-1.584 z"
           fill="#e9da6f"
           id="path291" />
        <path
           d="m 257.69,59.292 c -0.036,-1.08 -0.469,-1.98 -1.008,-2.556 -0.576,-0.648 -1.549,-0.972 -2.629,-1.116 l -0.396,2.376 c 0.432,-0.036 0.792,0.18 1.224,0.648 0.36,0.396 0.648,1.044 1.008,1.944 0.59,-0.432 1.2,-0.864 1.81,-1.296 z"
           fill="#e9da6f"
           id="path293" />
        <path
           d="m 248.26,54 c -1.8,0.576 -4.176,0.36 -6.983,-0.792 -2.916,-1.152 -7.128,-4.032 -10.008,-6.12 -2.988,-2.34 -5.076,-4.788 -7.236,-6.912 -2.16,-2.124 -3.024,-3.996 -5.796,-5.472 -2.952,-1.584 -6.66,-2.772 -11.412,-3.708 l -0.18,1.944 c 3.456,0.36 6.407,1.08 9,2.556 2.483,1.332 3.456,3.132 6.407,5.796 2.952,2.664 6.588,7.38 11.196,9.972 4.5,2.556 9.576,4.032 15.624,4.968 -0.18,-0.72 -0.39,-1.476 -0.61,-2.232 z"
           fill="#e9da6f"
           id="path295" />
        <path
           d="m 247.68,57.852 c -2.881,-0.612 -5.437,-1.368 -8.209,-2.412 -2.844,-1.08 -5.472,-2.268 -8.027,-3.852 -2.448,-1.8 -4.716,-4.68 -6.804,-6.12 -2.269,-1.476 -4.465,-2.088 -6.589,-2.232 l 3.78,3.528 c 1.584,0.792 2.844,1.62 4.212,2.88 1.188,1.152 1.404,2.772 3.42,4.176 2.053,1.26 6.048,2.772 8.784,3.708 2.7,0.828 4.86,1.548 7.021,1.764 0.8,-0.468 1.6,-0.936 2.42,-1.44 z"
           fill="#e9da6f"
           id="path297" />
        <path
           d="m 240.45,61.236 -2.988,-3.204 -2.988,-1.152 2.988,4.68 2.99,-0.324 z"
           fill="#e9da6f"
           id="path299" />
        <path
           d="m 245.45,51.588 c -1.224,-0.504 -3.492,-1.584 -6.408,-3.384 -3.132,-1.836 -6.768,-4.248 -11.592,-7.38 1.872,2.196 3.672,3.996 5.796,5.796 2.124,1.692 4.212,3.564 6.408,4.5 2.08,0.828 3.88,0.936 5.79,0.468 z"
           fill="#e9da6f"
           id="path301" />
        <path
           d="m 250.28,46.728 c 0.936,-2.268 1.08,-4.572 0.576,-6.912 -0.576,-2.484 -1.692,-5.4 -3.78,-7.236 -2.269,-1.8 -5.22,-2.844 -9,-3.528 -3.78,-0.792 -8.208,-1.116 -13.428,-0.972 l 2.016,2.412 c 4.68,-0.072 8.568,0.252 11.808,0.972 3.133,0.612 5.868,1.872 7.38,3.384 1.297,1.584 1.116,4.356 1.404,5.94 0.288,1.368 0.433,2.268 0.433,2.556 0.86,1.116 1.72,2.232 2.59,3.384 z"
           fill="#e9da6f"
           id="path303" />
        <path
           d="m 248.08,45.612 c -0.288,-0.432 -0.792,-1.404 -1.8,-3.06 -1.08,-1.62 -0.756,-5.076 -4.032,-6.768 -3.312,-1.908 -8.352,-3.06 -15.408,-3.996 l 1.404,2.88 c 4.032,0.828 7.056,1.764 9.216,2.412 2.088,0.504 2.304,0.72 3.42,1.764 1.08,1.044 1.872,2.844 2.772,5.004 1.48,0.576 2.95,1.152 4.43,1.764 z"
           fill="#e9da6f"
           id="path305" />
        <path
           d="m 228.06,37.224 c -0.648,-2.844 -1.765,-5.256 -3.204,-7.38 -1.584,-2.268 -2.952,-3.384 -5.616,-5.292 -2.772,-1.836 -7.164,-4.644 -10.404,-5.796 -3.275,-1.296 -6.12,-1.836 -8.819,-1.764 l 1.619,2.412 c 3.78,0.468 7.129,1.692 10.584,3.384 3.349,1.728 7.236,4.536 9.433,6.912 2.124,2.232 2.988,4.32 2.988,6.408 1.12,0.36 2.27,0.72 3.42,1.116 z"
           fill="#e9da6f"
           id="path307" />
        <path
           d="m 202.22,30.492 c -0.432,-3.816 -1.115,-7.092 -2.195,-9.972 -1.152,-2.988 -2.017,-5.076 -4.393,-7.236 -2.448,-2.304 -6.048,-4.5 -9.828,-5.76 -3.852,-1.26 -8.136,-1.044 -12.996,-1.296 -4.859,-0.252 -10.151,-0.36 -16.02,-0.18 l 2.41,2.412 c 10.403,-0.756 18.359,-0.432 24.012,0.828 5.544,1.296 7.308,4.464 9.612,6.732 2.16,2.124 2.735,3.456 3.815,5.796 1.08,2.232 2.053,4.644 2.772,7.38 0.95,0.432 1.89,0.864 2.83,1.296 z"
           fill="#e9da6f"
           id="path309" />
        <path
           d="m 222.63,35.784 c 0,-1.944 -0.504,-3.6 -1.368,-4.968 -0.899,-1.404 -1.332,-2.664 -4.212,-3.384 -3.132,-0.792 -7.668,-1.224 -14.004,-1.296 0.036,1.26 0.145,2.124 0.18,2.592 0.036,0.396 0.036,0.396 0,0 3.276,-0.396 6.049,-0.396 8.604,0 2.484,0.396 5.076,1.188 6.408,2.232 1.224,0.9 1.512,1.98 1.008,3.24 1.11,0.504 2.23,1.044 3.38,1.584 z"
           fill="#e9da6f"
           id="path311" />
        <path
           d="m 212.84,25.02 c 0.324,0.108 -0.396,-0.108 -2.016,-0.792 -1.765,-0.648 -4.284,-1.764 -7.992,-3.204 l 0.216,3.528 c 2.88,0.36 5.148,0.576 6.804,0.648 1.69,0.072 2.55,-0.036 2.99,-0.18 z"
           fill="#e9da6f"
           id="path313" />
        <path
           d="m 195.02,20.52 c -3.203,-0.468 -6.228,-0.684 -9.216,-0.648 -3.096,-0.108 -7.164,0.432 -8.604,0.504 -1.477,0.072 -1.477,0.072 0,0 -0.288,1.224 0.359,2.124 1.8,2.412 1.44,0.252 3.852,-0.612 6.804,-0.504 2.845,0.144 6.048,0.432 10.008,1.152 -0.25,-0.972 -0.51,-1.944 -0.79,-2.916 z"
           fill="#e9da6f"
           id="path315" />
        <path
           d="m 196.82,25.668 -7.813,-0.648 c 1.332,1.152 2.736,1.908 4.212,2.412 1.513,0.396 2.952,0.504 4.608,0.324 -0.33,-0.684 -0.65,-1.368 -1.01,-2.088 z"
           fill="#e9da6f"
           id="path317" />
        <path
           d="m 192.21,17.136 c -4.14,-0.144 -8.172,-0.144 -12.384,0 -4.284,0.072 -11.196,0.288 -12.816,0.648 -1.655,0.36 1.261,0.936 3.204,1.296 1.908,0.144 4.968,-0.18 8.208,-0.144 3.168,-0.072 7.74,0.072 10.404,0.144 2.556,0.036 4.104,0.144 4.788,0.324 -0.47,-0.756 -0.93,-1.512 -1.4,-2.268 z"
           fill="#e9da6f"
           id="path319" />
        <path
           d="m 189.62,14.256 c -2.628,0 -5.688,0 -9.612,-0.144 -3.96,-0.144 -8.352,-0.36 -13.607,-0.648 1.26,0.612 2.124,1.332 2.592,1.764 0.396,0.396 0.396,0.9 0,1.116 3.924,0.036 7.523,0.036 11.231,0 3.601,-0.072 7.021,-0.18 10.404,-0.324 -0.32,-0.576 -0.64,-1.152 -1,-1.764 z"
           fill="#e9da6f"
           id="path321" />
        <path
           d="m 167.98,16.02 c -3.168,-2.412 -5.796,-4.392 -8.173,-6.084 -2.304,-1.764 -3.275,-2.556 -5.832,-3.888 -2.844,-1.476 -7.056,-3.384 -10.403,-4.176 -3.384,-0.756 -6.66,-0.864 -9.396,-0.468 -2.736,0.18 -5.076,1.008 -7.02,2.088 l 1.62,2.088 c 2.052,-1.26 4.464,-2.052 7.38,-2.232 2.916,-0.252 6.372,-0.216 9.828,0.936 3.275,1.116 6.66,3.564 10.008,5.796 3.384,2.16 8.208,5.616 10.008,6.912 1.656,1.116 1.656,1.116 0,0 0.64,-0.324 1.29,-0.648 1.97,-0.972 z"
           fill="#e9da6f"
           id="path323" />
        <path
           d="m 186.23,13.788 c -0.072,-1.044 -0.828,-1.8 -2.412,-2.412 -1.548,-0.612 -3.42,-1.044 -7.021,-1.296 -3.815,-0.324 -8.819,-0.432 -15.408,-0.468 l 3.421,1.908 c 5.004,0.036 8.748,0 11.376,0.18 2.556,0.036 3.168,0.144 4.212,0.468 0.972,0.252 1.62,0.684 1.8,1.296 1.33,0.108 2.66,0.216 4.03,0.324 z"
           fill="#e9da6f"
           id="path325" />
        <path
           d="m 239.66,41.256 c 1.151,-0.504 0.72,-1.008 -1.008,-1.908 -1.872,-0.9 -5.04,-1.98 -9.792,-3.24 l 0.18,1.62 c 3.52,1.152 7.05,2.34 10.62,3.528 z"
           fill="#e9da6f"
           id="path327" />
        <path
           d="m 128.56,7.668 c -0.288,-1.188 -0.936,-2.16 -1.8,-3.204 -1.008,-1.044 -2.628,-2.844 -3.6,-2.916 -0.972,-0.144 -1.476,0.684 -2.196,1.944 -0.936,1.116 -1.8,2.448 -2.592,4.824 -0.756,2.268 -1.476,5.364 -2.016,9.144 l 2.988,-0.144 c -0.432,-3.348 -0.252,-6.084 0.396,-8.208 0.576,-2.232 2.592,-4.248 3.42,-4.644 0.648,-0.396 0.396,1.368 1.188,2.232 0.756,0.792 2.016,1.656 3.636,2.592 0.17,-0.54 0.35,-1.08 0.57,-1.62 z"
           fill="#e9da6f"
           id="path329" />
        <path
           d="m 161.79,16.344 c -1.62,-2.016 -4.104,-4.104 -7.596,-6.12 -3.601,-2.16 -9.252,-5.724 -13.212,-6.264 -3.96,-0.612 -7.813,0.576 -10.008,2.736 -2.268,2.16 -3.24,5.436 -3.204,10.116 l 2.592,-0.144 c -0.36,-3.564 0.144,-6.192 1.224,-8.028 1.116,-1.908 3.096,-2.88 5.4,-3.06 2.161,-0.36 4.068,-0.396 7.812,1.44 3.708,1.8 8.46,4.86 14.4,9.324 h 2.6 z"
           fill="#e9da6f"
           id="path331" />
        <path
           d="m 144.58,7.668 c -2.052,0.144 -3.6,0.72 -4.788,1.44 -1.26,0.684 -2.016,1.8 -2.412,3.06 -0.468,1.152 -0.54,2.736 -0.216,4.356 h 3.42 c -1.908,-2.556 -2.196,-4.248 -1.008,-5.472 1.26,-1.224 3.815,-1.764 8.208,-1.62 -1.04,-0.576 -2.12,-1.152 -3.2,-1.764 z"
           fill="#e9da6f"
           id="path333" />
        <path
           d="m 150.2,10.548 c -1.332,-0.288 -2.736,-0.288 -4.212,0 -1.692,0.144 -4.141,0.684 -4.824,1.62 -0.576,1.008 -0.108,2.268 1.404,4.176 l 4.428,-0.144 c -2.736,-1.584 -3.672,-2.664 -2.808,-3.24 0.899,-0.648 3.42,-0.756 7.991,-0.468 -0.65,-0.648 -1.3,-1.296 -1.98,-1.944 z"
           fill="#e9da6f"
           id="path335" />
        <path
           d="m 155.78,14.112 c -2.809,-0.36 -4.752,-0.468 -5.977,-0.324 -1.224,0.072 -1.584,0.72 -1.224,1.116 0.252,0.36 1.836,0.828 3.204,1.116 1.368,0.144 2.988,0.144 5.004,0 -0.32,-0.612 -0.64,-1.26 -1,-1.908 z"
           fill="#e9da6f"
           id="path337" />
        <path
           d="m 136.98,9.936 -4.428,-0.828 -0.792,1.44 3.816,1.476 1.4,-2.088 z"
           fill="#e9da6f"
           id="path339" />
        <path
           d="m 140.19,8.316 -6.408,-0.324 c 1.332,-0.828 2.592,-1.368 3.78,-1.62 1.152,-0.36 2.448,-0.18 3.204,0 0.648,0.108 0.973,0.432 0.828,0.828 -0.47,0.36 -0.93,0.72 -1.4,1.116 z"
           fill="#e9da6f"
           id="path341" />
        <path
           d="m 131.98,12.492 c -0.216,0.684 -0.396,1.332 -0.396,2.088 -0.072,0.684 0.036,1.476 0.18,2.232 l 2.808,-0.612 c -0.216,-1.044 -0.468,-1.944 -0.612,-2.412 -0.144,-0.612 -0.324,-0.792 -0.396,-0.828 -0.5,-0.144 -1.04,-0.288 -1.58,-0.468 z"
           fill="#e9da6f"
           id="path343" />
        <path
           d="m 122.98,7.344 c -1.044,0.792 -1.836,1.836 -2.232,3.528 -0.432,1.656 -0.612,3.564 -0.396,6.12 l 2.628,-0.18 c -0.576,-1.476 -0.648,-2.628 -0.216,-3.996 0.36,-1.296 1.224,-2.628 2.592,-3.852 l -2.37,-1.62 z"
           fill="#e9da6f"
           id="path345" />
        <path
           d="m 117.15,6.048 c -3.348,-0.18 -6.372,0.036 -9.612,0.504 -3.276,0.396 -6.732,1.188 -9.396,2.232 -2.772,1.116 -4.608,2.556 -6.624,4.032 -2.088,1.152 -4.536,2.484 -5.4,3.852 -1.008,1.44 -1.008,3.6 0,4.68 0.936,0.936 2.88,1.404 5.832,1.26 l 3.204,-0.972 c -4.464,-0.108 -7.021,-0.54 -7.813,-1.44 -0.792,-0.972 1.044,-2.304 2.988,-3.852 1.836,-1.62 5.22,-4.14 8.208,-5.472 2.88,-1.296 6.084,-2.052 9.216,-2.412 3.024,-0.468 5.976,-0.576 9,-0.324 0.1,-0.684 0.24,-1.368 0.39,-2.088 z"
           fill="#e9da6f"
           id="path347" />
        <path
           d="m 116.36,9.612 c -3.06,0.936 -5.724,2.268 -7.992,3.996 -2.34,1.692 -4.284,3.78 -5.832,6.264 l 3.6,-0.468 c 1.584,-2.376 3.384,-4.14 5.004,-5.292 1.584,-1.152 3.384,-1.836 5.004,-1.764 0.07,-0.9 0.14,-1.8 0.22,-2.736 z"
           fill="#e9da6f"
           id="path349" />
        <path
           d="m 101.96,17.46 c -2.808,-0.072 -5.184,0.036 -7.416,0.18 -2.268,0.144 -4.104,0.36 -5.796,0.648 -0.54,0.504 -0.648,0.972 -0.612,1.26 0,0.252 0.432,0.468 1.008,0.504 1.944,-0.18 3.996,-0.288 6.012,-0.324 2.052,-0.072 4.068,-0.072 6.192,0 0.17,-0.756 0.39,-1.512 0.61,-2.268 z"
           fill="#e9da6f"
           id="path351" />
        <path
           d="m 83.344,19.728 c -2.52,0.468 -4.86,1.26 -7.02,2.088 -2.232,0.792 -4.14,1.44 -6.012,3.06 -1.908,1.584 -3.528,3.78 -5.004,6.588 l 3.42,-0.972 c -0.18,-2.124 0.972,-3.888 3.6,-5.292 2.556,-1.404 6.444,-2.664 11.808,-3.384 -0.252,-0.684 -0.504,-1.368 -0.792,-2.088 z"
           fill="#e9da6f"
           id="path353" />
        <path
           d="m 66.316,18.612 c 1.44,-1.44 3.636,-2.52 6.192,-3.24 2.628,-0.828 6.876,-1.116 9.432,-1.26 2.412,-0.144 4.032,-0.036 5.004,0.468 l 1.8,-1.116 c -4.032,-0.72 -7.272,-1.044 -10.404,-0.972 -3.06,0.072 -5.616,0.504 -7.812,1.44 -2.376,0.72 -4.896,2.772 -5.616,3.528 -0.756,0.756 -0.288,1.188 1.404,1.152 z"
           fill="#e9da6f"
           id="path355" />
        <path
           d="m 93.352,14.904 5.976,1.764 -5.58,0.468 -2.016,-1.116 z"
           fill="#e9da6f"
           id="path357" />
        <path
           d="m 84.928,15.696 c -1.944,-0.504 -4.032,-0.612 -6.408,-0.324 -2.52,0.252 -5.868,1.224 -7.812,2.088 -1.836,0.72 -2.592,2.196 -3.384,3.06 -0.936,0.828 -1.44,1.764 -1.8,2.412 l 2.196,0.504 c 0.576,-1.872 1.656,-3.096 3.384,-4.212 1.764,-1.08 4.5,-1.908 6.804,-2.088 2.232,-0.252 4.176,-0.036 6.228,0.648 0.252,-0.684 0.504,-1.368 0.792,-2.088 z"
           fill="#e9da6f"
           id="path359" />
        <path
           d="M 65.92,19.728 C 64.732,19.008 63.4,18.576 61.924,18.432 60.448,18.216 58.828,18 56.92,18.612 c -2.052,0.576 -4.536,1.692 -7.02,3.204 -2.736,1.404 -5.868,3.816 -8.424,5.292 -2.664,1.332 -5.868,2.124 -6.984,3.06 -1.08,0.828 -1.152,1.764 0.18,2.412 l 2.412,-0.972 c -0.468,-0.72 -0.252,-1.116 0.792,-1.584 1.08,-0.504 2.916,0.144 5.22,-0.972 2.124,-1.188 5.112,-4.32 7.596,-5.796 2.412,-1.512 4.356,-2.808 6.804,-3.06 2.412,-0.288 4.752,0.144 7.416,1.296 0.324,-0.576 0.648,-1.152 1.008,-1.764 z"
           fill="#e9da6f"
           id="path361" />
        <path
           d="m 49.9,24.876 c 1.332,-0.828 3.024,-1.26 5.22,-1.296 2.088,-0.144 5.328,0.828 7.776,0.972 2.412,0.072 4.68,-0.036 6.804,-0.324 l -2.196,1.908 c -3.492,-0.18 -6.444,-0.324 -9.396,-0.144 -2.952,-0.036 -5.94,0.036 -7.992,0.792 -2.088,0.72 -3.564,2.052 -4.428,3.852 l -1.404,-1.26 c 0.9,-0.396 1.836,-1.08 2.808,-1.764 0.9,-0.72 1.836,-1.728 2.808,-2.736 z"
           fill="#e9da6f"
           id="path363" />
        <path
           d="m 84.316,22.464 1.62,1.584 c -1.296,0.72 -2.628,1.26 -3.996,1.62 -1.368,0.36 -3.096,-0.036 -4.212,0.468 -1.224,0.288 -1.692,1.44 -2.808,1.944 -1.152,0.468 -2.484,0.792 -3.996,0.972 0.108,-1.476 0.972,-2.556 2.196,-3.24 1.296,-0.756 3.42,-0.612 5.4,-1.116 1.908,-0.54 3.744,-1.332 5.796,-2.232 z"
           fill="#e9da6f"
           id="path365" />
        <path
           d="m 70.528,21.024 1.584,1.116 -1.404,1.116 -1.8,-0.324 z"
           fill="#e9da6f"
           id="path367" />
        <path
           d="m 81.94,18.108 c -0.432,-0.396 -1.44,-0.396 -3.024,-0.144 -1.62,0.18 -3.816,0.756 -6.588,1.584 l 0.792,2.268 c 1.26,-0.9 2.412,-1.548 3.996,-1.944 1.44,-0.468 3.096,-0.684 4.824,-0.648 z"
           fill="#e9da6f"
           id="path369" />
        <path
           d="m 114.56,8.964 c -1.8,-0.288 -3.852,-0.288 -6.012,0 -2.304,0.288 -4.932,0.828 -7.2,1.764 -2.304,0.828 -4.392,2.052 -6.408,3.528 l 4.824,1.44 c 1.368,-1.692 2.7,-2.916 3.996,-3.672 1.224,-0.828 1.728,-0.504 3.6,-0.972 1.83,-0.54 4.14,-1.188 7.2,-2.088 z"
           fill="#e9da6f"
           id="path371" />
        <path
           d="m 115.35,17.64 -1.8,-3.204 c -1.908,0.36 -2.7,0.936 -2.376,1.44 0.36,0.468 1.62,1.152 4.18,1.764 z"
           fill="#e9da6f"
           id="path373" />
        <path
           d="m 64.732,26.964 c -3.492,0.756 -6.12,2.088 -8.028,3.996 -1.944,1.836 -2.916,4.248 -3.204,7.236 l 3.6,-2.412 c -0.072,-1.908 0.432,-3.348 1.8,-4.32 1.332,-1.008 3.24,-1.548 6.012,-1.62 l 1.62,-2.556 z"
           fill="#e9da6f"
           id="path375" />
        <path
           d="m 60.124,26.64 c -3.672,-0.504 -6.48,-0.18 -8.82,1.116 -2.34,1.224 -3.96,3.42 -5.004,6.444 l 1.008,3.996 c 1.188,-3.6 2.772,-6.12 4.608,-7.704 1.836,-1.62 3.924,-2.16 6.408,-1.764 0.576,-0.684 1.188,-1.368 1.8,-2.088 z"
           fill="#e9da6f"
           id="path377" />
        <path
           d="M 51.7,52.524 C 46.768,50.688 43.852,49.068 43.096,47.52 42.232,45.9 46.372,44.784 46.912,43.2 47.416,41.58 46.444,39.672 46.084,37.872 45.58,36 44.968,33.156 44.104,32.112 43.096,30.96 41.8,31.104 40.504,31.284 c -1.44,0.036 -2.772,1.224 -4.428,1.764 -1.836,0.54 -4.32,1.008 -5.796,1.8 -1.512,0.684 -2.376,1.584 -2.988,2.556 -0.612,1.008 -0.936,1.944 -0.828,3.204 l 2.808,-0.144 c -0.432,-1.584 -0.144,-2.916 1.008,-3.708 1.044,-0.864 3.888,-0.972 5.616,-1.44 1.728,-0.612 3.492,-1.908 4.608,-1.944 1.008,-0.072 0.936,0.468 1.584,1.62 0.54,1.224 2.088,3.456 2.016,5.148 -0.216,1.44 -2.124,2.592 -2.808,3.852 -0.9,1.332 -1.764,2.376 -1.62,3.528 0.144,0.9 0.504,1.008 2.628,2.268 2.088,1.26 5.148,3.024 9.612,5.292 -0.072,-0.828 -0.144,-1.692 -0.216,-2.556 z"
           fill="#e9da6f"
           id="path379" />
        <path
           d="m 51.52,60.372 c -3.096,-1.908 -6.156,-3.564 -9.036,-4.824 -2.952,-1.476 -5.688,-3.276 -8.604,-3.024 -3.096,0.216 -6.084,1.764 -9.396,4.644 l 2.988,0.18 c 2.232,-1.692 4.32,-2.556 6.408,-2.736 2.052,-0.252 3.78,0.504 6.012,1.584 2.16,1.044 4.608,2.556 7.2,4.68 1.476,-0.144 2.952,-0.324 4.428,-0.504 z"
           fill="#e9da6f"
           id="path381" />
        <path
           d="m 31.288,57.348 3.996,-2.412 2.808,1.26 -3.42,1.44 z"
           fill="#e9da6f"
           id="path383" />
        <path
           d="m 39.28,53.172 3.204,-2.124 2.808,1.296 -3.78,1.62 z"
           fill="#e9da6f"
           id="path385" />
        <path
           d="m 42.304,40.14 c -4.932,0.936 -9.072,1.8 -12.42,2.736 -3.528,0.828 -6.408,1.584 -7.812,2.556 -1.368,0.792 -1.152,1.584 -0.18,2.916 0.9,1.368 2.88,3.132 5.796,5.292 l -2.412,1.44 C 23.152,53.604 21.424,52.164 20.092,50.904 18.616,49.5 17.14,48.312 17.068,47.196 c -0.144,-1.188 1.224,-2.052 2.592,-2.88 1.368,-0.828 3.24,-1.332 5.616,-1.944 2.232,-0.756 5.544,-1.548 8.424,-2.232 2.844,-0.756 5.724,-1.404 8.784,-2.088 -0.036,0.684 -0.108,1.368 -0.18,2.088 z"
           fill="#e9da6f"
           id="path387" />
        <path
           d="M 31.9,51.876 C 29.488,51.588 28.228,50.58 28.264,49.14 28.228,47.628 29.488,45.54 31.9,42.876 l -4.608,1.584 c -1.26,2.088 -1.8,3.672 -1.62,5.148 0.144,1.368 1.008,2.448 2.592,3.24 1.188,-0.324 2.412,-0.648 3.636,-0.972 z"
           fill="#e9da6f"
           id="path389" />
        <path
           d="m 33.7,39.168 2.772,-3.384 -4.176,0.972 -2.016,3.384 z"
           fill="#e9da6f"
           id="path391" />
        <path
           d="m 35.68,42.552 c -0.828,0.576 -1.476,0.972 -1.8,1.584 -0.468,0.468 -0.648,0.36 -0.396,1.62 0.216,1.26 0.936,3.096 2.016,5.796 l 2.988,0.468 c -1.476,-2.592 -2.34,-4.464 -2.592,-5.616 -0.288,-1.224 0.18,-0.504 1.008,-1.296 0.684,-0.864 2.016,-2.088 3.6,-3.672 -1.584,0.36 -3.204,0.72 -4.824,1.116 z"
           fill="#e9da6f"
           id="path393" />
        <path
           d="m 38.884,37.872 2.196,-2.232 0.828,1.584 z"
           fill="#e9da6f"
           id="path395" />
        <path
           d="m 24.268,55.404 c -0.504,-0.18 -1.368,-0.144 -2.592,-0.18 -1.296,0.036 -2.916,0 -5.004,0.18 l -2.412,2.412 c 1.008,-0.288 2.16,-0.504 3.6,-0.648 1.44,-0.18 2.916,-0.288 4.824,-0.324 0.504,-0.468 1.044,-0.936 1.584,-1.44 z"
           fill="#e9da6f"
           id="path397" />
        <path
           d="M 13.684,70.812 C 12.928,69.984 12.208,69.3 11.668,68.76 10.948,68.184 10.372,68.148 10.084,67.284 9.76,66.348 9.688,64.908 9.868,63.108 c -1.08,1.044 -1.8,2.124 -2.016,3.24 -0.432,1.152 -0.252,2.088 0.396,3.348 0.72,1.116 1.944,2.34 3.816,3.528 0.54,-0.792 1.08,-1.584 1.62,-2.412 z"
           fill="#e9da6f"
           id="path399" />
        <path
           d="m 19.48,75.348 c 1.044,-0.288 2.016,-0.144 3.204,0.144 1.116,0.252 2.268,0.936 3.6,1.764 -0.324,0.684 -1.26,1.152 -2.808,1.116 -1.656,0.036 -3.924,-0.432 -6.804,-1.116 0.936,-0.612 1.872,-1.26 2.808,-1.908 z"
           fill="#e9da6f"
           id="path401" />
        <path
           d="m 30.28,79.668 c 0.864,0.072 1.548,0.396 2.196,0.973 0.54,0.576 1.008,1.188 1.404,2.23 h -4.608 c -0.036,-0.395 0.036,-0.863 -0.18,-1.115 -0.252,-0.287 -0.396,-0.648 -0.828,-0.791 0.648,-0.434 1.332,-0.865 2.016,-1.297 z"
           fill="#e9da6f"
           id="path403" />
        <path
           d="M 51.088,83.375 C 50.116,82.549 48.784,81.9 47.092,81.432 45.328,80.928 43.312,80.604 40.9,80.461 l 1.8,3.383 c 1.26,0.037 2.592,0.037 3.996,0 1.44,-0.108 2.808,-0.215 4.392,-0.469 z"
           fill="#e9da6f"
           id="path405" />
        <path
           d="m 25.276,71.316 3.204,3.708 -1.584,0.792 -3.6,-2.736 z"
           fill="#e9da6f"
           id="path407" />
        <path
           d="m 27.868,70.992 1.8,3.204 h 2.412 l -1.8,-3.204 z"
           fill="#e9da6f"
           id="path409" />
        <path
           d="m 32.476,62.964 -0.792,1.44 2.592,0.144 1.404,-1.26 z"
           fill="#e9da6f"
           id="path411" />
        <path
           d="m 14.26,85.465 10.62,0.971 c -3.816,0.396 -6.768,0.793 -9,0.793 -2.268,0.035 -3.744,-0.072 -4.428,-0.469 -0.792,-0.504 -0.792,-1.367 0,-2.592 0.936,0.432 1.872,0.863 2.808,1.297 z"
           fill="#e9da6f"
           id="path413" />
        <path
           d="m 31.684,95.58 7.992,3.203 -5.004,-3.996 c -0.792,-0.467 -1.548,-0.684 -1.98,-0.504 -0.468,0.072 -0.9,0.504 -1.008,1.297 z"
           fill="#e9da6f"
           id="path415" />
        <path
           d="m 48.712,92.699 c 2.052,-0.252 4.14,-0.359 6.408,-0.324 2.196,-0.035 4.464,0.072 6.804,0.324 -2.34,0.576 -4.608,0.938 -6.804,0.938 -2.268,0 -4.356,-0.362 -6.408,-0.938 z"
           fill="#e9da6f"
           id="path417" />
        <path
           d="m 12.064,97.02 c -0.144,0.396 -0.144,1.441 0,2.736 0.144,1.297 0.216,3.061 0.612,5.293 l -2.808,-3.205 c -0.216,-1.729 -0.396,-3.061 -0.396,-3.996 -0.144,-0.936 -0.468,-1.764 0,-1.799 0.396,-0.178 1.26,0.146 2.592,0.975 z"
           fill="#e9da6f"
           id="path419" />
        <path
           d="m 73.732,119.38 c -1.62,0.182 -3.096,0.361 -4.428,0.145 -1.404,-0.107 -2.664,-0.611 -3.78,-1.115 l 1.404,-2.088 c 0.648,0.467 1.548,0.791 2.988,0.971 1.404,0.182 3.096,0.182 5.22,0.145 -0.468,0.66 -0.936,1.31 -1.404,1.96 z"
           fill="#e9da6f"
           id="path421" />
        <path
           d="m 56.92,129.64 c -2.196,-1.152 -4.14,-1.908 -5.832,-2.412 -1.836,-0.504 -3.24,-0.756 -4.608,-0.613 l 0.828,2.736 c 1.8,-0.252 2.952,-0.252 3.996,0 0.9,0.252 1.476,0.541 1.584,1.26 1.332,-0.34 2.664,-0.66 4.032,-0.98 z"
           fill="#e9da6f"
           id="path423" />
        <path
           d="M 70.708,142.85 57.1,138.49 c 2.232,0.145 4.5,0.576 6.804,1.295 2.232,0.73 4.5,1.7 6.804,3.07 z"
           fill="#e9da6f"
           id="path425" />
        <path
           d="m 88.924,142.99 9.828,4.5 4.608,-0.973 c -3.06,-0.215 -5.472,-0.791 -7.632,-1.584 -2.16,-0.863 -3.78,-1.943 -5.004,-3.383 l -3.204,-0.324 c 0.468,0.56 0.936,1.14 1.404,1.75 z"
           fill="#e9da6f"
           id="path427" />
        <path
           d="m 101.34,139.79 c 0.54,0.289 1.872,0.576 3.996,0.469 2.16,0 4.896,-0.396 8.604,-0.791 -3.96,-0.182 -6.876,-0.252 -8.604,-0.504 -1.8,-0.182 -2.412,-0.541 -1.98,-0.793 -1.296,0.18 -2.052,0.576 -2.412,0.793 -0.36,0.31 -0.18,0.46 0.39,0.82 z"
           fill="#e9da6f"
           id="path429" />
        <path
           d="m 96.952,135.43 c -0.504,-0.396 -1.044,-0.719 -1.62,-1.115 -0.576,-0.396 -1.224,-0.828 -1.8,-1.297 l -2.412,0.973 1.404,2.557 c 1.476,-0.36 2.952,-0.72 4.428,-1.12 z"
           fill="#e9da6f"
           id="path431" />
        <path
           d="m 88.528,126.29 0.396,3.529 c 1.512,0.035 2.52,-0.18 3.42,-0.648 0.756,-0.539 1.224,-1.188 1.404,-2.232 -1.728,-0.22 -3.456,-0.44 -5.22,-0.65 z"
           fill="#e9da6f"
           id="path433" />
        <path
           d="m 39.28,124.85 c -0.144,1.117 0.108,2.449 0.612,3.852 0.504,1.477 1.26,2.846 2.412,4.645 -0.144,-2.447 -0.324,-4.141 -0.396,-5.615 -0.144,-1.404 -0.216,-2.412 -0.216,-2.881 -0.792,0.01 -1.584,0.01 -2.412,0.01 z"
           fill="#e9da6f"
           id="path435" />
        <path
           d="m 24.088,116.96 7.596,1.764 h -6.588 l -1.008,-1.76 z"
           fill="#e9da6f"
           id="path437" />
        <path
           d="m 42.7,109.08 c 0.648,0.504 1.044,1.26 1.188,2.268 0.072,1.008 0.036,2.053 -0.396,3.527 0.36,-0.791 0.9,-1.33 1.62,-1.619 0.684,-0.396 1.548,-0.504 2.592,-0.469 -1.656,-1.23 -3.312,-2.45 -5.004,-3.71 z"
           fill="#e9da6f"
           id="path439" />
        <path
           d="m 166.79,142.02 c -0.396,1.584 0.36,2.736 2.412,3.061 2.052,0.432 5.22,0.035 9.792,-0.793 -2.304,0.145 -4.32,0.072 -6.192,-0.504 -1.907,-0.504 -3.527,-1.512 -5.004,-2.734 -0.32,0.31 -0.65,0.64 -1.01,0.96 z"
           fill="#e9da6f"
           id="path441" />
        <path
           d="m 159.81,144.29 c -0.359,0.396 -0.539,0.828 -0.396,1.584 0.072,0.686 0.396,1.549 0.972,2.594 l -3.38,-0.18 -0.396,-1.584 c 1.05,-0.79 2.13,-1.58 3.21,-2.41 z"
           fill="#e9da6f"
           id="path443" />
        <path
           d="m 145.98,145.87 3.815,-4.643 -5.004,2.232 c -1.368,0.756 -2.016,1.402 -1.8,1.799 0.21,0.36 1.11,0.61 2.98,0.61 z"
           fill="#e9da6f"
           id="path445" />
        <path
           d="m 139.36,150.55 -4.176,-2.592 c 0.252,0.684 0.252,1.475 0,2.088 -0.288,0.684 -0.828,1.188 -1.62,1.799 1.224,0.469 2.16,0.721 3.204,0.469 0.94,-0.18 1.81,-0.87 2.6,-1.77 z"
           fill="#e9da6f"
           id="path447" />
        <path
           d="m 225.87,86.436 c -0.72,2.377 -0.9,4.789 -0.828,7.381 0,2.592 0.972,6.84 1.404,7.883 0.396,0.865 1.08,-0.395 1.224,-2.412 0,-2.158 -0.756,-7.811 -0.612,-10.15 0.108,-2.377 0.576,-3.709 1.404,-3.996 -0.85,0.43 -1.72,0.862 -2.58,1.294 z"
           fill="#e9da6f"
           id="path449" />
        <path
           d="m 228.24,92.375 c 0.612,-1.367 1.476,-2.34 2.592,-2.914 1.08,-0.648 2.304,-0.758 3.816,-0.613 l -0.396,-2.736 c -1.62,0.072 -2.952,0.434 -3.996,0.938 -1.044,0.504 -1.943,1.15 -2.412,2.088 0.12,1.079 0.26,2.159 0.4,3.237 z"
           fill="#e9da6f"
           id="path451" />
        <path
           d="m 243.08,86.76 c 0.144,-0.287 0.72,-0.145 1.584,0.145 0.864,0.252 2.016,0.936 3.6,1.764 l -1.403,2.881 c -0.937,-1.262 -1.729,-2.018 -2.376,-2.412 -0.685,-0.396 -1.332,-0.396 -1.801,0 0.11,-0.794 0.25,-1.585 0.4,-2.378 z"
           fill="#e9da6f"
           id="path453" />
        <path
           d="m 246.06,93.168 c -0.072,-0.324 -0.288,-0.828 -0.792,-1.115 -0.54,-0.324 -1.225,-0.828 -2.196,-1.117 l -0.216,2.701 2.808,1.475 0.4,-1.944 z"
           fill="#e9da6f"
           id="path455" />
        <path
           d="m 234.26,90.756 c -1.188,-0.035 -2.304,0.18 -3.204,0.648 -0.972,0.396 -1.728,1.043 -2.412,1.943 v 3.348 c 1.225,-1.512 2.412,-2.375 3.421,-2.879 1.008,-0.504 1.871,-0.504 2.592,0 -0.12,-1.007 -0.26,-2.015 -0.4,-3.06 z"
           fill="#e9da6f"
           id="path457" />
        <path
           d="m 235.05,96.553 c -0.756,-0.037 -1.188,0.18 -1.584,0.646 -0.504,0.504 0.216,1.332 -0.611,2.088 -0.828,0.576 -2.232,1.152 -4.213,1.584 l 0.612,-2.088 c 0.828,-0.107 1.548,-0.467 2.017,-0.936 0.359,-0.648 0.252,-1.477 0.792,-2.088 0.504,-0.576 1.367,-1.008 2.592,-1.295 0.1,0.685 0.24,1.369 0.39,2.09 z"
           fill="#e9da6f"
           id="path459" />
        <path
           d="m 245.27,81.611 c -0.433,2.125 -0.504,3.564 -0.217,4.32 0.252,0.684 1.225,0.648 1.801,0.18 0.468,-0.432 0.647,-1.584 0.828,-3.059 -0.79,-0.468 -1.58,-0.937 -2.41,-1.441 z"
           fill="#e9da6f"
           id="path461" />
        <path
           d="m 247.47,74.52 0.217,-1.584 2.771,0.288 -0.792,2.268 -2.2,-0.972 z"
           fill="#e9da6f"
           id="path463" />
        <path
           d="m 68.836,31.608 c -3.24,1.296 -6.048,2.628 -8.712,3.996 -2.772,1.332 -5.184,2.448 -7.092,4.032 -1.98,1.548 -4.032,2.988 -4.212,4.86 -0.18,1.764 1.944,3.708 2.88,5.688 0.792,1.944 2.052,3.672 2.124,5.724 0,1.944 -2.052,4.14 -1.836,5.904 0.108,1.656 2.376,3.024 2.628,4.248 0.18,1.116 -0.216,1.728 -1.332,2.952 -1.224,1.044 -6.12,2.376 -5.508,3.996 0.684,1.62 6.768,3.924 9.216,5.94 2.268,1.98 3.708,3.781 4.464,5.689 2.484,-0.037 4.284,0.18 5.256,1.043 0.9,0.793 -0.036,2.449 0.54,3.6 0.576,0.973 2.376,1.945 2.88,2.773 0.396,0.863 -1.44,1.584 -0.504,2.303 0.828,0.684 4.608,1.045 5.508,1.908 0.756,0.793 -1.584,1.908 -0.792,2.953 0.684,0.863 2.304,2.123 5.004,2.951 2.628,0.936 9.36,0.936 11.052,2.34 1.692,1.26 1.296,3.023 -1.044,5.293 2.34,0.359 4.536,0.322 6.588,0.18 1.98,-0.289 3.816,-0.684 5.508,-1.477 0.72,1.439 1.908,2.16 3.708,2.557 1.764,0.287 3.996,0.072 6.84,-0.648 1.368,0.107 3.168,0.721 5.256,1.691 2.196,0.936 4.968,3.529 7.344,4.033 2.052,0.395 3.852,-2.484 5.544,-1.693 1.656,0.648 2.592,4.465 4.752,5.904 2.016,1.404 5.292,2.053 7.884,2.52 2.628,0.361 5.399,0.396 7.632,-0.18 2.16,-0.648 3.96,-2.699 5.256,-3.383 1.188,-0.686 0.828,0.07 1.836,-0.648 0.937,-0.9 2.448,-3.096 3.708,-4.213 1.08,-1.26 2.269,-1.512 3.132,-2.555 0.756,-1.117 0.217,-3.277 1.836,-3.564 1.62,-0.324 5.328,0.359 7.633,1.477 2.088,0.971 3.743,3.887 5.544,4.428 1.764,0.395 4.212,-0.721 5.544,-1.693 1.151,-1.115 -0.792,-3.096 2.088,-4.428 2.771,-1.332 12.132,-2.088 15.012,-3.816 2.772,-1.943 0.685,-5.184 2.088,-7.199 1.44,-2.016 4.752,-3.385 6.336,-4.645 1.44,-1.367 0.648,-1.799 2.628,-3.383 1.944,-1.801 7.38,-4.141 8.929,-6.336 1.332,-2.197 -1.009,-4.5 -0.505,-6.336 0.433,-1.98 1.477,-3.42 3.133,-4.86 0.036,-3.672 -0.036,-6.804 -0.504,-9.936 -0.504,-3.168 -0.792,-6.12 -2.124,-8.424 -1.513,-2.412 -5.148,-4.068 -6.049,-5.508 -0.936,-1.512 1.368,-2.196 0.792,-3.168 -0.756,-1.116 -3.96,-1.728 -4.464,-2.952 -0.396,-1.296 3.456,-3.204 1.836,-4.464 -1.943,-1.296 -9.359,-2.124 -12.384,-3.168 -2.952,-1.188 -2.988,-2.592 -5.256,-3.384 -2.376,-0.828 -6.516,-0.396 -8.676,-1.476 -2.305,-1.188 -2.269,-4.284 -4.752,-5.256 -2.628,-1.008 -7.668,-0.072 -10.26,-0.648 -2.557,-0.756 -3.204,-2.556 -5.005,-3.168 -1.943,-0.648 -4.176,0 -6.3,-0.432 -2.195,-0.54 -4.428,-2.304 -6.84,-2.52 -2.628,-0.216 -5.436,0.504 -8.424,1.044 -3.061,0.36 -6.084,1.404 -9.756,1.476 -3.816,-0.072 -8.532,-1.188 -12.348,-1.26 -3.852,-0.18 -6.3,0.144 -10.548,0.828 -4.32,0.684 -10.8,2.124 -14.976,3.204 -4.212,1.08 -6.624,2.016 -10.008,2.952 -3.576,0.793 -8.328,1.153 -10.524,1.909 -2.124,0.648 -0.612,1.512 -2.124,2.304 -1.512,0.684 -3.924,1.44 -7.092,2.124 z"
           fill="#bd0000"
           id="path465" />
        <path
           d="m 133.49,50.76 c -0.216,-2.124 -0.18,-3.924 0.252,-5.544 0.288,-1.728 1.26,-3.744 1.944,-3.96 0.576,-0.216 1.188,0.72 1.836,2.808 0.072,-2.232 0.468,-3.636 1.044,-4.068 0.577,-0.504 1.404,-0.036 2.484,1.26 3.349,-2.7 5.112,-3.672 5.58,-3.348 0.36,0.36 -0.72,2.16 -3.24,5.544 3.169,-0.9 4.645,-1.008 4.429,-0.324 -0.288,0.72 -2.196,2.016 -5.868,4.284 2.52,-1.26 4.644,-2.16 6.66,-2.7 1.979,-0.648 4.5,-1.08 5.076,-0.756 0.396,0.324 -0.433,1.152 -2.484,2.628 3.168,-1.008 5.076,-1.548 5.868,-1.476 0.684,0 0.252,0.612 -1.44,1.692 1.8,0.684 2.628,1.224 2.34,1.764 -0.323,0.504 -1.619,1.008 -4.031,1.368 1.691,0.648 2.304,1.26 1.548,1.692 -0.792,0.396 -2.7,0.756 -5.868,0.936 2.376,1.404 3.672,2.448 3.924,3.132 0.216,0.684 -0.647,0.828 -2.483,0.936 -1.801,0.108 -1.332,0.612 -4.824,-0.504 -3.456,-1.152 -9.108,-3.996 -9.108,-3.996 l -1.692,0.54 c 0,0 0.18,1.08 1.296,2.484 1.116,1.404 1.584,1.692 3.132,3.168 1.548,1.44 3.132,2.7 3.132,2.7 4.248,-1.512 7.02,-2.412 8.712,-2.7 1.656,-0.36 1.836,0 0.937,0.936 -0.396,1.08 0.035,1.584 1.296,1.656 1.224,-0.036 4.283,-1.512 6.12,-1.368 1.728,0.18 4.5,1.584 4.571,2.412 0,0.684 -1.296,1.476 -4.176,2.088 2.016,0.828 3.096,1.584 3.636,2.412 0.504,0.756 0.072,1.44 -0.899,2.196 1.115,0.9 1.764,1.548 1.943,2.088 0.181,0.504 -0.216,0.9 -1.044,1.044 1.261,2.016 1.656,3.204 1.044,3.564 -0.647,0.36 -2.16,-0.324 -4.68,-1.656 1.044,1.8 1.08,2.52 0.108,2.7 -1.044,0.036 -2.988,-0.684 -5.977,-2.304 0.108,1.584 -0.072,2.52 -0.54,2.412 -0.468,0 -1.296,-1.044 -2.34,-2.736 -0.108,1.584 -0.576,2.34 -1.404,2.412 -0.828,-0.072 -3.168,-1.296 -3.527,-2.304 -0.433,-1.116 -0.181,-2.34 0.899,-3.96 -1.403,1.8 -2.447,2.556 -2.987,2.412 -0.576,-0.36 -0.288,-1.872 -0.54,-3.564 -0.36,-1.656 -0.973,-3.78 -1.692,-6.372 -1.224,-0.864 -2.52,-1.836 -3.888,-3.456 -1.404,-1.584 -2.88,-3.492 -4.428,-5.868 l -4.176,1.476 c -0.108,2.484 -0.108,4.572 -0.144,6.264 -0.072,1.656 0.396,3.42 0,3.78 -0.396,0.216 -1.26,-0.468 -2.448,-2.196 0.396,2.124 0.396,3.42 0,4.176 -0.468,0.648 -2.268,0.432 -2.628,-0.108 -0.468,-0.612 -0.468,-1.8 0,-3.564 -0.972,2.628 -1.62,4.14 -2.34,4.392 -0.756,0.252 -1.188,-0.72 -1.692,-2.916 -2.124,1.548 -3.384,2.304 -4.176,2.412 -0.684,0.036 -0.9,-0.576 -0.252,-1.98 -4.464,0.396 -6.804,0.396 -7.164,0 -0.324,-0.504 1.188,-1.368 4.968,-2.736 -3.312,0.252 -4.788,0.18 -4.572,-0.504 0.216,-0.684 2.124,-1.836 5.868,-3.456 -3.78,-0.108 -5.508,-0.396 -5.616,-0.864 -0.072,-0.54 1.62,-1.188 5.22,-2.088 -1.872,-1.476 -2.736,-2.484 -2.592,-3.024 -0.036,-0.576 0.396,-0.792 3.24,-0.504 2.916,0.252 7.344,0.864 13.824,1.98 0.072,0.144 0.288,0 1.044,-0.432 0.72,-0.432 1.59,-1.368 2.99,-2.412 z"
           id="path467" />
        <path
           d="m 133.89,50.76 c -0.216,-2.196 0,-3.96 0.252,-5.436 0.288,-1.62 0.9,-3.42 1.548,-3.456 0.576,-0.072 1.188,1.008 1.98,3.24 0.396,-2.628 0.864,-4.104 1.404,-4.572 0.54,-0.54 1.008,0.216 1.691,1.872 3.133,-2.844 4.788,-4.104 5.112,-3.78 0.252,0.324 -0.972,2.124 -3.528,5.544 3.168,-1.116 4.465,-1.152 4.032,-0.396 -0.504,0.72 -2.808,2.52 -6.912,5.112 3.853,-1.872 6.805,-2.988 8.856,-3.78 1.908,-0.792 3.168,-1.08 3.384,-0.72 0.18,0.36 -0.288,1.224 -1.8,2.736 3.42,-0.972 5.544,-1.476 6.228,-1.368 0.648,0.036 0,0.54 -2.088,1.656 2.34,-0.036 3.168,0.18 3.024,0.648 -0.288,0.36 -1.765,1.152 -4.572,1.98 2.412,0.468 3.276,0.936 2.592,1.26 -0.792,0.324 -2.987,0.648 -6.876,0.828 2.376,1.44 4.284,2.664 4.536,3.348 0.252,0.684 -0.252,0.72 -2.088,0.828 -1.8,0.108 -1.044,0.396 -4.536,-0.72 -3.492,-1.116 -8.856,-4.068 -8.856,-4.068 l -2.628,1.152 c 0,0 2.664,3.492 3.78,4.896 1.116,1.404 0.937,0.54 2.484,1.98 1.548,1.476 2.34,2.088 2.34,2.088 3.42,-1.332 5.94,-2.196 7.416,-2.592 1.476,-0.504 1.908,-0.54 1.44,-0.108 -0.612,1.944 -0.396,2.808 0.647,3.132 1.008,0.108 3.528,-1.764 5.472,-1.872 1.837,-0.18 5.328,0.612 5.616,1.26 0.036,0.648 -1.439,1.584 -4.824,2.808 2.376,0.324 3.708,0.936 4.284,1.692 0.504,0.72 0.072,1.692 -1.151,2.916 1.367,0.792 2.195,1.584 2.34,1.98 0.107,0.504 -0.324,0.612 -1.44,0.72 1.477,2.052 2.088,3.096 1.44,3.276 -0.648,0.108 -2.34,-0.648 -5.076,-2.412 1.152,1.944 1.332,2.988 0.396,3.132 -1.008,0.072 -2.88,-0.648 -6.012,-2.304 0.396,1.944 0.576,2.772 0.145,2.628 -0.433,-0.288 -1.261,-1.332 -2.484,-3.672 -0.036,2.052 -0.432,3.024 -1.044,3.348 -0.684,0.18 -2.556,-0.9 -2.844,-1.98 -0.252,-1.116 -0.036,-2.736 1.044,-4.716 -1.692,2.088 -2.916,3.024 -3.528,2.808 -0.684,-0.216 -0.216,-2.628 -0.54,-4.176 -0.468,-1.692 -1.116,-3.528 -1.944,-5.652 -1.115,-0.504 -2.376,-1.512 -3.779,-3.024 -1.476,-1.548 -2.988,-3.6 -4.68,-6.156 l -4.824,1.872 c -0.108,2.808 -0.108,4.932 -0.144,6.372 -0.036,1.368 0.288,2.196 0,2.196 -0.36,0 -1.188,-0.648 -2.34,-2.088 0.108,2.736 0.072,4.428 -0.108,5.22 -0.324,0.612 -0.72,-0.036 -1.044,-0.828 -0.324,-0.756 -0.684,-2.088 -0.936,-3.852 -0.72,2.664 -1.512,4.104 -2.088,4.464 -0.72,0.216 -1.224,-0.432 -1.8,-2.484 -1.944,1.548 -3.204,2.304 -3.78,2.412 -0.684,0.108 -0.684,-0.576 0,-1.908 -4.752,0.72 -6.912,0.864 -6.912,0.432 0.036,-0.432 2.376,-1.44 7.164,-3.024 -4.392,0.54 -6.552,0.504 -6.624,-0.108 -0.108,-0.612 2.016,-1.8 6.228,-3.564 -4.068,-0.108 -5.976,-0.396 -6.12,-0.72 -0.072,-0.36 1.62,-0.9 5.472,-1.476 -2.16,-1.692 -3.204,-2.808 -2.988,-3.348 0.144,-0.612 1.116,-0.468 3.888,-0.108 2.74,0.216 6.7,0.972 12.28,1.872 0.936,-0.612 1.8,-1.116 2.592,-1.656 0.69,-0.54 1.3,-1.116 1.84,-1.584 z"
           fill="#108e35"
           id="path469" />
        <path
           d="m 74.092,51.876 c 0.324,3.744 1.332,5.724 3.168,5.94 1.836,0.144 5.22,-3.996 7.632,-4.644 2.16,-0.684 2.232,1.836 6.048,0.612 3.852,-1.332 9.504,-4.104 17.1,-8.46 -3.204,2.628 -6.588,5.004 -10.008,6.984 -3.564,1.98 -8.64,4.392 -10.8,4.86 -2.16,0.288 -0.396,-2.952 -2.088,-2.52 -1.872,0.432 -6.444,4.536 -8.424,5.076 -2.016,0.324 -3.06,-1.224 -3.42,-2.556 -0.504,-1.404 -0.144,-3.024 0.792,-5.292 z"
           id="path471" />
        <path
           d="m 67.756,67.536 c -0.792,-0.864 6.588,4.608 9.504,6.552 2.844,1.8 6.588,3.348 7.632,4.644 0.828,1.295 -2.988,1.584 -1.872,2.952 1.296,1.26 7.344,2.629 8.964,4.645 1.296,1.908 -3.564,5.184 -0.54,6.768 3.06,1.512 15.408,1.584 18.432,2.305 2.844,0.648 2.088,1.619 -1.296,1.512 -3.6,-0.432 -16.344,-1.584 -19.476,-3.168 -3.132,-1.621 2.448,-4.104 1.044,-5.939 -1.584,-1.945 -8.352,-3.637 -9.756,-5.076 -1.26,-1.549 3.528,-1.08 1.584,-3.601 C 79.816,76.428 68.548,68.4 67.756,67.536 Z"
           id="path473" />
        <path
           d="m 133.31,33.084 c 1.008,0.108 2.88,-0.036 6.048,-0.432 3.06,-0.396 7.128,-1.08 12.348,-1.908 -0.432,1.512 -2.232,2.304 -5.256,2.772 -3.17,0.36 -7.41,0.216 -13.14,-0.432 z"
           id="path475" />
        <path
           d="m 170.93,37.296 c 2.629,-0.144 14.4,0.468 16.849,1.692 2.268,1.26 -3.276,4.176 -2.88,6.12 0.432,1.764 2.231,3.312 5.256,5.076 2.88,1.728 12.24,4.968 12.096,5.292 -0.324,0.072 -10.116,-2.448 -13.428,-4.212 -3.313,-1.944 -5.688,-4.644 -6.3,-6.552 -0.685,-1.908 3.996,-3.78 2.376,-4.644 -1.872,-0.972 -10.296,-0.684 -12.637,-1.08 -2.42,-0.576 -3.93,-1.692 -1.34,-1.692 z"
           id="path477" />
        <path
           d="m 204.88,66.672 c -0.72,1.224 -2.088,7.344 -5.508,10.584 -3.42,3.023 -13.896,7.523 -14.76,7.813 -0.9,0.145 6.336,-3.816 9.468,-6.336 3.06,-2.628 6.804,-6.624 8.712,-8.676 1.87,-2.161 2.52,-4.537 2.09,-3.385 z"
           id="path479" />
        <path
           d="m 198.58,87.371 c -0.828,0.252 -3.564,2.27 -5.004,4.248 -1.404,1.836 -4.068,5.148 -3.708,7.164 0.288,1.98 4.68,4.789 5.004,4.682 0.144,-0.289 -4.536,-3.709 -3.924,-5.941 0.612,-2.375 5.616,-5.832 7.092,-7.596 1.12,-1.794 1.3,-2.839 0.54,-2.552 z"
           id="path481" />
        <path
           d="m 158.04,102.6 c 0.504,-0.107 7.236,-2.232 6.588,-3.168 -0.936,-1.008 -8.46,-2.951 -11.34,-2.52 -2.88,0.324 -1.764,4.645 -5.796,5.039 -4.248,0.396 -17.28,-2.664 -18.684,-2.52 -1.26,0.107 6.696,2.412 10.548,3.168 3.744,0.684 9,1.369 11.592,0.648 2.376,-0.9 1.296,-5.076 3.132,-5.725 1.836,-0.684 6.84,0.973 7.632,1.908 0.58,0.827 -4.21,3.127 -3.67,3.167 z"
           id="path483" />
        <path
           d="m 169.35,84.42 c -5.472,-0.252 -10.512,-0.107 -15.516,0.432 -5.147,0.469 -9.756,2.771 -14.22,2.736 -4.5,-0.107 -11.592,-2.881 -11.844,-3.168 -0.252,-0.396 6.408,1.512 10.8,1.26 4.356,-0.396 10.548,-2.375 15.264,-2.736 4.68,-0.324 8.604,-0.035 12.348,0.865 l 3.17,0.611 z"
           id="path485" />
        <path
           d="m 107.79,27.36 c -0.54,-0.18 -7.236,1.512 -8.712,2.556 -1.368,1.044 3.132,2.304 0.288,3.384 -3.204,0.9 -18.612,2.124 -18.18,2.304 0.576,0.036 18.144,-0.432 21.6,-1.26 3.276,-0.828 -2.484,-2.484 -1.584,-3.6 0.85,-1.296 6.79,-3.204 6.58,-3.384 z"
           id="path487" />
        <path
           d="m 134.61,25.884 c -0.324,0.072 -7.524,1.728 -10.512,1.908 -3.024,0 -7.704,-1.116 -7.38,-1.26 0.252,-0.072 5.832,0.612 8.964,0.648 3.06,-0.18 9,-1.44 8.93,-1.296 z"
           id="path489" />
        <path
           d="m 139.07,85.213 -1.584,0.936 0.72,0.936 0.396,-1.08 1.188,0.107 -0.73,-0.899 z"
           id="path491" />
        <path
           d="m 129.68,84.852 h -1.224 l 0.18,0.432 0.936,0.434 0.1,-0.866 z"
           id="path493" />
        <path
           d="m 72.796,82.871 h -1.26 l 0.216,0.396 0.936,0.469 z"
           id="path495" />
        <path
           d="m 135.54,85.787 h -1.26 l 0.18,0.396 0.972,0.432 0.11,-0.828 z"
           id="path497" />
        <path
           d="m 201.17,40.464 -1.943,-0.252 -0.36,1.044 1.26,-0.504 0.72,0.792 0.32,-1.08 z"
           id="path499" />
        <path
           d="m 142.89,82.225 h -1.224 l 0.18,0.432 0.937,0.432 0.1,-0.864 z"
           id="path501" />
        <path
           d="m 147.57,83.916 h -1.261 l 0.181,0.432 0.972,0.432 0.11,-0.864 z"
           id="path503" />
        <path
           d="m 146.09,24.408 -1.26,0.036 0.216,0.396 0.937,0.432 0.1,-0.864 z"
           id="path505" />
        <path
           d="m 152.79,92.195 h -1.26 l 0.18,0.396 0.972,0.469 0.11,-0.865 z"
           id="path507" />
        <path
           d="m 157.18,83.844 h -1.26 l 0.18,0.396 0.973,0.467 0.11,-0.863 z"
           id="path509" />
        <path
           d="m 178.96,103.68 h -1.26 l 0.18,0.396 0.973,0.432 0.11,-0.83 z"
           id="path511" />
        <path
           d="m 115.85,42.228 -1.584,0.972 0.72,0.9 0.396,-1.08 1.188,0.144 -0.73,-0.936 z"
           id="path513" />
        <path
           d="m 180.94,58.068 -1.944,-0.252 -0.36,1.044 1.261,-0.504 0.72,0.792 0.32,-1.08 z"
           id="path515" />
        <path
           d="m 176.58,84.492 -1.944,-0.252 -0.323,1.08 1.26,-0.504 0.684,0.756 0.32,-1.08 z"
           id="path517" />
        <path
           d="m 181.34,72.36 h -1.26 l 0.18,0.432 0.973,0.432 0.11,-0.864 z"
           id="path519" />
        <path
           d="m 169.2,95.436 h -1.26 l 0.216,0.432 0.936,0.434 0.1,-0.866 z"
           id="path521" />
        <path
           d="m 186.52,58.032 h -1.261 l 0.181,0.432 0.936,0.432 0.14,-0.864 z"
           id="path523" />
        <path
           d="m 209.74,82.549 h -1.26 l 0.18,0.395 0.972,0.469 0.11,-0.864 z"
           id="path525" />
        <path
           d="m 167.84,41.436 h -1.26 l 0.18,0.396 0.973,0.432 0.11,-0.828 z"
           id="path527" />
        <path
           d="m 130.04,106.16 h -1.26 l 0.18,0.396 0.972,0.432 0.11,-0.83 z"
           id="path529" />
        <path
           d="m 113.37,32.94 h -1.26 l 0.18,0.432 0.972,0.432 0.11,-0.864 z"
           id="path531" />
        <path
           d="m 99.292,83.412 0.54,-0.9 -0.576,-0.035 -0.9,0.504 z"
           id="path533" />
        <path
           d="m 135.62,68.148 0.54,-0.936 -0.576,-0.036 -0.9,0.504 0.94,0.468 z"
           id="path535" />
        <path
           d="m 156.28,56.664 0.54,-0.9 -0.54,-0.036 -0.9,0.504 z"
           id="path537" />
        <path
           d="m 108.69,102.78 0.54,-0.936 -0.54,-0.035 -0.9,0.504 0.9,0.48 z"
           id="path539" />
        <path
           d="m 88.96,44.208 0.54,-0.9 -0.576,-0.036 -0.9,0.504 z"
           id="path541" />
        <path
           d="m 145.98,115.63 0.54,-0.938 -0.54,-0.035 -0.937,0.504 0.94,0.47 z"
           id="path543" />
        <path
           d="m 167.51,27.828 -1.979,-0.288 -0.324,1.08 1.26,-0.504 0.685,0.756 0.35,-1.044 z"
           id="path545" />
        <path
           d="m 90.724,64.872 -1.98,-0.288 -0.324,1.08 1.26,-0.504 0.684,0.756 z"
           id="path547" />
        <path
           d="m 107.46,70.452 -1.584,0.936 0.756,0.936 0.396,-1.08 1.188,0.108 -0.77,-0.9 z"
           id="path549" />
        <path
           d="m 122.37,74.664 -0.864,0.54 0.396,0.504 0.252,-0.612 0.648,0.072 -0.44,-0.504 z"
           id="path551" />
        <path
           d="m 113.73,88.199 -0.864,0.504 0.396,0.504 0.216,-0.574 0.648,0.07 -0.41,-0.504 z"
           id="path553" />
        <path
           d="m 215.46,60.732 -0.864,0.504 0.396,0.504 0.216,-0.576 0.648,0.072 -0.41,-0.504 z"
           id="path555" />
        <path
           d="m 157.14,77.796 -0.9,0.504 0.432,0.504 0.216,-0.576 0.648,0.072 -0.4,-0.504 z"
           id="path557" />
        <path
           d="m 73.336,42.912 -0.864,0.504 0.396,0.54 0.216,-0.612 0.648,0.072 z"
           id="path559" />
        <path
           d="m 134.68,89.461 -0.86,0.539 0.432,0.504 0.216,-0.576 0.648,0.037 -0.44,-0.504 z"
           id="path561" />
      </g>
    </g>
  </g>
</svg>
