<?xml version="1.0" encoding="UTF-8" standalone="no"?>
<svg
   xmlns:dc="http://purl.org/dc/elements/1.1/"
   xmlns:cc="http://creativecommons.org/ns#"
   xmlns:rdf="http://www.w3.org/1999/02/22-rdf-syntax-ns#"
   xmlns:svg="http://www.w3.org/2000/svg"
   xmlns="http://www.w3.org/2000/svg"
   xmlns:xlink="http://www.w3.org/1999/xlink"
   xmlns:sodipodi="http://sodipodi.sourceforge.net/DTD/sodipodi-0.dtd"
   xmlns:inkscape="http://www.inkscape.org/namespaces/inkscape"
   enable-background="new 0 0 128 128"
   viewBox="0 0 472.44095 332.59842"
   version="1.1"
   id="svg262"
   sodipodi:docname="sponge.svg"
   width="125mm"
   height="88mm"
   inkscape:version="1.0.2-2 (e86c870879, 2021-01-15)">
  <metadata
     id="metadata266">
    <rdf:RDF>
      <cc:Work
         rdf:about="">
        <dc:format>image/svg+xml</dc:format>
        <dc:type
           rdf:resource="http://purl.org/dc/dcmitype/StillImage" />
        <dc:title></dc:title>
      </cc:Work>
    </rdf:RDF>
  </metadata>
  <sodipodi:namedview
     pagecolor="#ffffff"
     bordercolor="#666666"
     borderopacity="1"
     objecttolerance="10"
     gridtolerance="10"
     guidetolerance="10"
     inkscape:pageopacity="0"
     inkscape:pageshadow="2"
     inkscape:window-width="1920"
     inkscape:window-height="1017"
     id="namedview264"
     showgrid="false"
     units="mm"
     inkscape:zoom="1.6601563"
     inkscape:cx="177.2563"
     inkscape:cy="145.50596"
     inkscape:window-x="-8"
     inkscape:window-y="-8"
     inkscape:window-maximized="1"
     inkscape:current-layer="svg262" />
  <path
     d="M 449.8106,102.39336 251.84329,8.8378441 141.22285,107.46672 24.606625,140.4258 l 0.851472,59.88688 c 2.164159,-1.56104 4.754054,-2.16417 7.592295,-1.52556 7.343948,1.63199 13.304254,10.99818 13.304254,20.89655 0,9.89837 -5.960306,16.60371 -13.304254,14.93624 -2.625373,-0.60312 -5.073356,-2.19963 -7.166559,-4.43474 l 0.106434,7.30846 c 0,0 -3.618757,33.98794 65.669801,65.56337 0.70956,-12.13348 9.401672,-19.93865 20.045072,-17.56162 11.10462,2.48346 20.11603,15.07816 20.11603,28.16955 0,1.56103 -0.1419,3.0511 -0.39026,4.43475 89.54651,28.27598 135.77437,8.97594 149.89462,-28.06311 14.75884,-38.70652 73.75878,-50.69808 98.62887,-53.46536 24.90556,-2.76729 64.5345,-9.22429 67.30178,-38.70651 2.76729,-29.48223 2.55442,-95.47134 2.55442,-95.47134 z"
     fill="#eeb400"
     id="path2"
     style="stroke-width:3.5478" />
  <circle
     cx="146.18977"
     cy="84.015747"
     r="58.538719"
     fill="#cde7fc"
     id="circle4"
     style="stroke-width:3.5478" />
  <circle
     cx="87.651054"
     cy="30.798737"
     r="15.53937"
     fill="#cde7fc"
     id="circle6"
     style="stroke-width:3.5478" />
  <circle
     cx="52.208519"
     cy="55.03022"
     r="11.175572"
     fill="#cde7fc"
     id="circle8"
     style="stroke-width:3.5478" />
  <g
     opacity="0.2"
     id="g12"
     transform="matrix(3.5478013,0,0,3.5478013,9.599426,-86.278707)">
    <path
       d="M 38.5,33.5 C 46.5,33.5 53,40 53,48 53,56 46.5,62.5 38.5,62.5 30.5,62.5 24,56 24,48 24,40 30.5,33.5 38.5,33.5 m 0,-2 C 29.39,31.5 22,38.89 22,48 22,57.11 29.39,64.5 38.5,64.5 47.61,64.5 55,57.11 55,48 55,38.89 47.61,31.5 38.5,31.5 Z"
       fill="#424242"
       id="path10" />
  </g>
  <path
     d="m 43.942142,109.77279 c -25.189389,18.16474 -38.600078,62.44131 36.648786,101.18329 75.248862,38.74199 112.891032,59.7095 156.245162,15.22006 26.28922,-26.96328 84.36672,-67.05343 147.26924,-63.61207 38.99033,2.12868 127.22415,-64.534499 -0.24836,-128.146578 C 256.38448,-29.194585 204.83493,15.046497 186.70567,46.870274 168.5764,78.694051 99.252363,69.895503 43.942142,109.77279 Z"
     fill="#ffcf00"
     id="path14"
     style="stroke-width:3.5478" />
  <defs
     id="defs17">
    <path
       id="k"
       d="m 4.23,63.9 0.39,27.35 c 0,0 -1.3,11.95 26.24,21.57 27.54,9.62 41.58,4.16 45.73,-6.76 4.15,-10.92 20.79,-14.29 27.8,-15.07 7.02,-0.78 18.19,-2.6 18.97,-10.91 0.78,-8.32 0.71,-26.89 0.71,-26.89 L 68.27,26.82 37.1,54.61 Z" />
    <radialGradient
       inkscape:collect="always"
       xlink:href="#b"
       id="radialGradient268"
       gradientUnits="userSpaceOnUse"
       cx="83"
       cy="75"
       r="25.966" />
    <radialGradient
       inkscape:collect="always"
       xlink:href="#b"
       id="radialGradient270"
       gradientUnits="userSpaceOnUse"
       cx="83"
       cy="75"
       r="25.966" />
    <radialGradient
       inkscape:collect="always"
       xlink:href="#b"
       id="radialGradient272"
       gradientUnits="userSpaceOnUse"
       cx="83"
       cy="75"
       r="25.966" />
  </defs>
  <clipPath
     id="a">
    <use
       xlink:href="#k"
       id="use19"
       x="0"
       y="0"
       width="100%"
       height="100%" />
  </clipPath>
  <radialGradient
     id="f"
     cx="25"
     cy="96.667"
     r="4.0541"
     gradientUnits="userSpaceOnUse">
    <stop
       stop-color="#DE7F14"
       offset=".0813"
       id="stop22" />
    <stop
       stop-color="#DA7D12"
       offset=".3389"
       id="stop24" />
    <stop
       stop-color="#CE760D"
       offset=".5993"
       id="stop26" />
    <stop
       stop-color="#BA6C05"
       offset=".8602"
       id="stop28" />
    <stop
       stop-color="#AD6500"
       offset=".987"
       id="stop30" />
  </radialGradient>
  <path
     d="m 28.61,97.49 c 0,2.42 -1.62,4 -3.61,3.55 -1.99,-0.46 -3.61,-2.79 -3.61,-5.2 0,-2.41 1.62,-4 3.61,-3.55 1.99,0.45 3.61,2.79 3.61,5.2 z"
     clip-path="url(#a)"
     enable-background="new"
     fill="url(#f)"
     opacity="0.9"
     id="path33"
     style="fill:url(#f)"
     transform="matrix(3.5478013,0,0,3.5478013,9.599426,-86.278707)" />
  <radialGradient
     id="e"
     cx="43"
     cy="103.33"
     r="4.4331002"
     gradientUnits="userSpaceOnUse">
    <stop
       stop-color="#DE7F14"
       offset=".0813"
       id="stop35" />
    <stop
       stop-color="#DA7D12"
       offset=".3389"
       id="stop37" />
    <stop
       stop-color="#CE760D"
       offset=".5993"
       id="stop39" />
    <stop
       stop-color="#BA6C05"
       offset=".8602"
       id="stop41" />
    <stop
       stop-color="#AD6500"
       offset=".987"
       id="stop43" />
  </radialGradient>
  <path
     d="m 46.71,104.16 c 0,2.76 -1.66,4.62 -3.71,4.16 -2.05,-0.46 -3.7,-3.06 -3.7,-5.81 0,-2.75 1.66,-4.62 3.71,-4.16 2.04,0.45 3.7,3.05 3.7,5.81 z"
     clip-path="url(#a)"
     enable-background="new"
     fill="url(#e)"
     opacity="0.9"
     id="path46"
     style="fill:url(#e)"
     transform="matrix(3.5478013,0,0,3.5478013,9.599426,-86.278707)" />
  <radialGradient
     id="d"
     cx="50.473999"
     cy="110.47"
     r="2.4512999"
     gradientUnits="userSpaceOnUse">
    <stop
       stop-color="#DE7F14"
       offset=".0813"
       id="stop48" />
    <stop
       stop-color="#DA7D12"
       offset=".3389"
       id="stop50" />
    <stop
       stop-color="#CE760D"
       offset=".5993"
       id="stop52" />
    <stop
       stop-color="#BA6C05"
       offset=".8602"
       id="stop54" />
    <stop
       stop-color="#AD6500"
       offset=".987"
       id="stop56" />
  </radialGradient>
  <path
     d="m 52.52,110.93 c 0,1.52 -0.92,2.55 -2.05,2.3 -1.13,-0.25 -2.05,-1.69 -2.05,-3.21 0,-1.52 0.92,-2.55 2.05,-2.3 1.13,0.25 2.05,1.68 2.05,3.21 z"
     clip-path="url(#a)"
     enable-background="new"
     fill="url(#d)"
     opacity="0.9"
     id="path59"
     style="fill:url(#d)"
     transform="matrix(3.5478013,0,0,3.5478013,9.599426,-86.278707)" />
  <radialGradient
     id="c"
     cx="70.667"
     cy="105.33"
     r="11.353"
     gradientUnits="userSpaceOnUse">
    <stop
       stop-color="#DE7F14"
       offset=".0813"
       id="stop61" />
    <stop
       stop-color="#DA7D12"
       offset=".3389"
       id="stop63" />
    <stop
       stop-color="#CE760D"
       offset=".5993"
       id="stop65" />
    <stop
       stop-color="#BA6C05"
       offset=".8602"
       id="stop67" />
    <stop
       stop-color="#AD6500"
       offset=".987"
       id="stop69" />
  </radialGradient>
  <path
     d="m 69.26,98.43 c -0.2,3.43 -2.24,6.86 -4.54,7.66 -2.3,0.8 -4.01,-1.33 -3.8,-4.77 0.2,-3.43 2.24,-6.86 4.54,-7.66 2.3,-0.8 4,1.34 3.8,4.77 z"
     clip-path="url(#a)"
     enable-background="new"
     fill="url(#c)"
     opacity="0.9"
     id="path72"
     style="fill:url(#c)"
     transform="matrix(3.5478013,0,0,3.5478013,9.599426,-86.278707)" />
  <radialGradient
     id="b"
     cx="83"
     cy="75"
     r="25.966"
     gradientUnits="userSpaceOnUse">
    <stop
       stop-color="#AD6500"
       offset=".013"
       id="stop74" />
    <stop
       stop-color="#BA6C05"
       offset=".1398"
       id="stop76" />
    <stop
       stop-color="#CE760D"
       offset=".4007"
       id="stop78" />
    <stop
       stop-color="#DA7D12"
       offset=".6611"
       id="stop80" />
    <stop
       stop-color="#DE7F14"
       offset=".9187"
       id="stop82" />
  </radialGradient>
  <path
     d="m 119.97,74.42 c -0.08,1.35 -1.13,2.79 -2.35,3.21 -1.22,0.42 -2.14,-0.33 -2.06,-1.68 0.08,-1.35 1.13,-2.79 2.35,-3.21 1.22,-0.42 2.14,0.33 2.06,1.68 z"
     clip-path="url(#a)"
     enable-background="new"
     fill="url(#b)"
     opacity="0.9"
     id="path85"
     style="fill:url(#radialGradient268)"
     transform="matrix(3.5478013,0,0,3.5478013,9.599426,-86.278707)" />
  <path
     d="m 108.92,79.41 c -0.11,1.82 -1.47,3.74 -3.03,4.28 -1.56,0.54 -2.75,-0.49 -2.64,-2.32 0.11,-1.82 1.47,-3.74 3.03,-4.28 1.57,-0.54 2.75,0.5 2.64,2.32 z"
     clip-path="url(#a)"
     enable-background="new"
     fill="url(#b)"
     opacity="0.9"
     id="path87"
     style="fill:url(#radialGradient270)"
     transform="matrix(3.5478013,0,0,3.5478013,9.599426,-86.278707)" />
  <radialGradient
     id="t"
     cx="102.33"
     cy="87.333"
     r="12.481"
     gradientUnits="userSpaceOnUse">
    <stop
       stop-color="#DE7F14"
       offset=".0813"
       id="stop89" />
    <stop
       stop-color="#DA7D12"
       offset=".3389"
       id="stop91" />
    <stop
       stop-color="#CE760D"
       offset=".5993"
       id="stop93" />
    <stop
       stop-color="#BA6C05"
       offset=".8602"
       id="stop95" />
    <stop
       stop-color="#AD6500"
       offset=".987"
       id="stop97" />
  </radialGradient>
  <path
     d="m 101.91,78.44 c -0.23,3.93 -2.73,7.91 -5.58,8.9 -2.85,0.99 -4.96,-1.39 -4.73,-5.32 0.23,-3.93 2.73,-7.91 5.58,-8.9 2.85,-0.99 4.97,1.39 4.73,5.32 z"
     clip-path="url(#a)"
     enable-background="new"
     fill="url(#t)"
     opacity="0.9"
     id="path100"
     style="fill:url(#t)"
     transform="matrix(3.5478013,0,0,3.5478013,9.599426,-86.278707)" />
  <path
     d="m 88.98,81.21 c -0.09,1.5 -1.29,3.1 -2.67,3.58 -1.38,0.48 -2.44,-0.34 -2.35,-1.84 0.09,-1.5 1.29,-3.1 2.67,-3.58 1.38,-0.48 2.44,0.34 2.35,1.84 z"
     clip-path="url(#a)"
     enable-background="new"
     fill="url(#b)"
     opacity="0.9"
     id="path102"
     style="fill:url(#radialGradient272)"
     transform="matrix(3.5478013,0,0,3.5478013,9.599426,-86.278707)" />
  <path
     d="m 43.942142,109.77279 c -25.189389,18.16474 -38.600078,62.44131 36.648786,101.18329 75.248862,38.74199 112.891032,59.7095 156.245162,15.22006 26.28922,-26.96328 84.36672,-67.05343 147.26924,-63.61207 38.99033,2.12868 127.22415,-64.534499 -0.24836,-128.146578 C 256.38448,-29.194585 204.83493,15.046497 186.70567,46.870274 168.5764,78.694051 99.252363,69.895503 43.942142,109.77279 Z"
     fill="#ffd900"
     id="path104"
     style="stroke-width:3.5478" />
  <g
     opacity="0.2"
     id="g108"
     transform="matrix(3.5478013,0,0,3.5478013,9.599426,-86.278707)">
    <path
       d="m 73.66,27.88 c 8.51,0 18.77,2.97 30.5,8.82 11.9,5.94 17.93,12.58 16.96,18.7 -0.02,0.15 -0.04,0.31 -0.04,0.46 -0.01,5.1 -0.11,17.63 -0.7,23.93 -0.41,4.41 -5.6,7.02 -16.31,8.21 -2.58,0.29 -9.29,1.25 -15.79,3.95 -7.5,3.11 -12.37,7.5 -14.48,13.04 -3.08,8.09 -11.62,9.79 -18.24,9.79 -5.21,0 -11.3,-1.01 -18.14,-3.01 -0.4,-4.72 -3.76,-8.98 -7.98,-9.92 -0.57,-0.13 -1.15,-0.19 -1.71,-0.19 -2.76,0 -5.1,1.49 -6.43,3.84 C 14.45,101.93 11.09,98.49 9.46,96.11 8.75,95.08 8.31,94.18 8.05,93.45 c 3.08,-0.45 5.32,-3.4 5.32,-7.23 0,-4.19 -2.54,-7.92 -5.94,-8.78 L 7.29,67.51 c 0,-0.16 -0.02,-0.33 -0.05,-0.49 -0.93,-5.19 2.98,-8.47 4.21,-9.35 7.23,-5.21 15.47,-7.31 22.74,-9.17 8.13,-2.07 15.14,-3.86 18.36,-9.51 2.88,-5.06 8.89,-11.11 21.11,-11.11 m 0,-3 c -13.6,0 -20.52,7.01 -23.73,12.64 -5.1,8.96 -24.66,6.5 -40.25,17.73 -3.6,2.6 -6.34,7.09 -5.4,12.31 l 0.19,13.21 c 0.45,-0.32 0.97,-0.5 1.53,-0.5 0.2,0 0.4,0.02 0.61,0.07 2.07,0.46 3.75,3.1 3.75,5.89 0,2.51 -1.36,4.28 -3.14,4.28 -0.2,0 -0.41,-0.02 -0.62,-0.07 C 5.86,90.27 5.17,89.82 4.58,89.19 l 0.03,2.06 c 0,0 -1.02,9.58 18.51,18.48 0.18,-3.01 2.09,-5.07 4.59,-5.07 0.34,0 0.7,0.04 1.06,0.12 3.13,0.7 5.67,4.25 5.67,7.94 0,0.44 -0.04,0.86 -0.11,1.25 8.37,2.64 15.4,3.81 21.2,3.81 11.69,0 18.39,-4.74 21.04,-11.72 4.16,-10.91 20.79,-14.29 27.8,-15.07 7.02,-0.78 18.19,-2.6 18.97,-10.91 0.6,-6.37 0.7,-18.75 0.71,-24.2 1.01,-6.39 -3.24,-14.2 -18.58,-21.86 C 92.13,27.35 81.72,24.88 73.66,24.88 Z"
       fill="#424242"
       id="path106" />
  </g>
  <radialGradient
     id="s"
     cx="23"
     cy="53"
     r="7.0868001"
     gradientUnits="userSpaceOnUse"
     gradientTransform="matrix(3.5478014,0,0,3.5478014,9.599425,-86.278709)">
    <stop
       stop-color="#D99914"
       offset=".0875"
       id="stop110" />
    <stop
       stop-color="#D59612"
       offset=".4098"
       id="stop112" />
    <stop
       stop-color="#C98D0D"
       offset=".735"
       id="stop114" />
    <stop
       stop-color="#BA8207"
       offset=".987"
       id="stop116" />
  </radialGradient>
  <ellipse
     cx="108.93786"
     cy="121.87078"
     rx="24.550785"
     ry="13.481645"
     fill="url(#s)"
     id="ellipse119"
     style="fill:url(#s);stroke-width:3.5478" />
  <radialGradient
     id="r"
     cx="49.333"
     cy="57"
     r="12.225"
     gradientUnits="userSpaceOnUse"
     gradientTransform="matrix(3.5478014,0,0,3.5478014,9.599425,-86.278709)">
    <stop
       stop-color="#D99914"
       offset=".0875"
       id="stop121" />
    <stop
       stop-color="#D59612"
       offset=".4098"
       id="stop123" />
    <stop
       stop-color="#C98D0D"
       offset=".735"
       id="stop125" />
    <stop
       stop-color="#BA8207"
       offset=".987"
       id="stop127" />
  </radialGradient>
  <ellipse
     cx="201.14522"
     cy="132.37228"
     rx="42.892918"
     ry="21.002983"
     fill="url(#r)"
     id="ellipse130"
     style="fill:url(#r);stroke-width:3.5478" />
  <radialGradient
     id="q"
     cx="55.667"
     cy="38.667"
     r="12.867"
     gradientUnits="userSpaceOnUse"
     gradientTransform="matrix(3.5478014,0,0,3.5478014,9.599425,-86.278709)">
    <stop
       stop-color="#D99914"
       offset=".0875"
       id="stop132" />
    <stop
       stop-color="#D59612"
       offset=".4098"
       id="stop134" />
    <stop
       stop-color="#C98D0D"
       offset=".735"
       id="stop136" />
    <stop
       stop-color="#BA8207"
       offset=".987"
       id="stop138" />
  </radialGradient>
  <ellipse
     cx="230.73389"
     cy="72.201569"
     rx="30.0144"
     ry="16.497276"
     fill="url(#q)"
     id="ellipse141"
     style="fill:url(#q);stroke-width:3.5478" />
  <radialGradient
     id="p"
     cx="78.575996"
     cy="34.102001"
     r="6.0461998"
     gradientUnits="userSpaceOnUse"
     gradientTransform="matrix(3.5478014,0,0,3.5478014,9.599425,-86.278709)">
    <stop
       stop-color="#D99914"
       offset=".0875"
       id="stop143" />
    <stop
       stop-color="#D59612"
       offset=".4098"
       id="stop145" />
    <stop
       stop-color="#C98D0D"
       offset=".735"
       id="stop147" />
    <stop
       stop-color="#BA8207"
       offset=".987"
       id="stop149" />
  </radialGradient>
  <ellipse
     cx="288.38565"
     cy="34.701313"
     rx="26.57303"
     ry="14.61694"
     fill="url(#p)"
     id="ellipse152"
     style="fill:url(#p);stroke-width:3.5478" />
  <radialGradient
     id="o"
     cx="43.056"
     cy="51.424"
     r="3.0743999"
     gradientUnits="userSpaceOnUse"
     gradientTransform="matrix(3.5478014,0,0,3.5478014,9.599425,-86.278709)">
    <stop
       stop-color="#D99914"
       offset=".0875"
       id="stop154" />
    <stop
       stop-color="#D59612"
       offset=".4098"
       id="stop156" />
    <stop
       stop-color="#C98D0D"
       offset=".735"
       id="stop158" />
    <stop
       stop-color="#BA8207"
       offset=".987"
       id="stop160" />
  </radialGradient>
  <ellipse
     cx="162.36775"
     cy="96.149231"
     rx="13.517122"
     ry="7.4149041"
     fill="url(#o)"
     id="ellipse163"
     style="fill:url(#o);stroke-width:3.5478" />
  <radialGradient
     id="n"
     cx="76.566002"
     cy="46.279999"
     r="3.0743999"
     gradientUnits="userSpaceOnUse"
     gradientTransform="matrix(3.5478014,0,0,3.5478014,9.599425,-86.278709)">
    <stop
       stop-color="#D99914"
       offset=".0875"
       id="stop165" />
    <stop
       stop-color="#D59612"
       offset=".4098"
       id="stop167" />
    <stop
       stop-color="#C98D0D"
       offset=".735"
       id="stop169" />
    <stop
       stop-color="#BA8207"
       offset=".987"
       id="stop171" />
  </radialGradient>
  <ellipse
     cx="281.25455"
     cy="77.913536"
     rx="13.517122"
     ry="7.4149041"
     fill="url(#n)"
     id="ellipse174"
     style="fill:url(#n);stroke-width:3.5478" />
  <radialGradient
     id="m"
     cx="78.125"
     cy="56.414001"
     r="4.9450998"
     gradientUnits="userSpaceOnUse"
     gradientTransform="matrix(3.5478014,0,0,3.5478014,9.599425,-86.278709)">
    <stop
       stop-color="#D99914"
       offset=".0875"
       id="stop176" />
    <stop
       stop-color="#D59612"
       offset=".4098"
       id="stop178" />
    <stop
       stop-color="#C98D0D"
       offset=".735"
       id="stop180" />
    <stop
       stop-color="#BA8207"
       offset=".987"
       id="stop182" />
  </radialGradient>
  <ellipse
     cx="286.78912"
     cy="113.85275"
     rx="21.748022"
     ry="11.95609"
     fill="url(#m)"
     id="ellipse185"
     style="fill:url(#m);stroke-width:3.5478" />
  <radialGradient
     id="l"
     cx="72.667999"
     cy="75.512001"
     r="2.9393001"
     gradientUnits="userSpaceOnUse"
     gradientTransform="matrix(3.5478014,0,0,3.5478014,9.599425,-86.278709)">
    <stop
       stop-color="#D99914"
       offset=".0875"
       id="stop187" />
    <stop
       stop-color="#D59612"
       offset=".4098"
       id="stop189" />
    <stop
       stop-color="#C98D0D"
       offset=".735"
       id="stop191" />
    <stop
       stop-color="#BA8207"
       offset=".987"
       id="stop193" />
  </radialGradient>
  <ellipse
     cx="267.41812"
     cy="181.61578"
     rx="12.913997"
     ry="7.0956025"
     fill="url(#l)"
     id="ellipse196"
     style="fill:url(#l);stroke-width:3.5478" />
  <radialGradient
     id="j"
     cx="50.646"
     cy="76.487"
     r="3.5602"
     gradientUnits="userSpaceOnUse"
     gradientTransform="matrix(3.5478014,0,0,3.5478014,9.599425,-86.278709)">
    <stop
       stop-color="#D99914"
       offset=".0875"
       id="stop198" />
    <stop
       stop-color="#D59612"
       offset=".4098"
       id="stop200" />
    <stop
       stop-color="#C98D0D"
       offset=".735"
       id="stop202" />
    <stop
       stop-color="#BA8207"
       offset=".987"
       id="stop204" />
  </radialGradient>
  <ellipse
     cx="189.29556"
     cy="185.09261"
     rx="15.645803"
     ry="8.5856791"
     fill="url(#j)"
     id="ellipse207"
     style="fill:url(#j);stroke-width:3.5478" />
  <radialGradient
     id="i"
     cx="29.014"
     cy="74.733002"
     r="3.5602"
     gradientUnits="userSpaceOnUse"
     gradientTransform="matrix(3.5478014,0,0,3.5478014,9.599425,-86.278709)">
    <stop
       stop-color="#D99914"
       offset=".0875"
       id="stop209" />
    <stop
       stop-color="#D59612"
       offset=".4098"
       id="stop211" />
    <stop
       stop-color="#C98D0D"
       offset=".735"
       id="stop213" />
    <stop
       stop-color="#BA8207"
       offset=".987"
       id="stop215" />
  </radialGradient>
  <ellipse
     cx="112.52114"
     cy="178.84848"
     rx="15.645803"
     ry="8.5856791"
     fill="url(#i)"
     id="ellipse218"
     style="fill:url(#i);stroke-width:3.5478" />
  <radialGradient
     id="h"
     cx="99"
     cy="49"
     r="12.618"
     gradientUnits="userSpaceOnUse"
     gradientTransform="matrix(3.5478014,0,0,3.5478014,9.599425,-86.278709)">
    <stop
       stop-color="#D99914"
       offset=".0875"
       id="stop220" />
    <stop
       stop-color="#D59612"
       offset=".4098"
       id="stop222" />
    <stop
       stop-color="#C98D0D"
       offset=".735"
       id="stop224" />
    <stop
       stop-color="#BA8207"
       offset=".987"
       id="stop226" />
  </radialGradient>
  <ellipse
     cx="382.86359"
     cy="108.31818"
     rx="26.57303"
     ry="14.581464"
     fill="url(#h)"
     id="ellipse229"
     style="fill:url(#h);stroke-width:3.5478" />
  <radialGradient
     id="g"
     cx="101.71"
     cy="44.331001"
     r="2.6083"
     gradientUnits="userSpaceOnUse"
     gradientTransform="matrix(3.5478014,0,0,3.5478014,9.599425,-86.278709)">
    <stop
       stop-color="#D99914"
       offset=".0875"
       id="stop231" />
    <stop
       stop-color="#D59612"
       offset=".4098"
       id="stop233" />
    <stop
       stop-color="#C98D0D"
       offset=".735"
       id="stop235" />
    <stop
       stop-color="#BA8207"
       offset=".987"
       id="stop237" />
  </radialGradient>
  <ellipse
     cx="370.44629"
     cy="70.995323"
     rx="11.459397"
     ry="6.3150859"
     fill="url(#g)"
     id="ellipse240"
     style="fill:url(#g);stroke-width:3.5478" />
  <circle
     cx="308.89194"
     cy="265.06006"
     r="32.888119"
     fill="#cde7fc"
     opacity="0.76"
     id="circle242"
     style="stroke-width:3.5478" />
  <circle
     cx="374.13599"
     cy="262.00891"
     r="18.874304"
     fill="#cde7fc"
     id="circle244"
     style="stroke-width:3.5478" />
  <g
     opacity="0.2"
     id="g248"
     transform="matrix(3.5478013,0,0,3.5478013,9.599426,-86.278707)">
    <path
       d="m 102.75,94.85 c 1.83,0 3.32,1.49 3.32,3.32 0,1.83 -1.49,3.32 -3.32,3.32 -1.83,0 -3.32,-1.49 -3.32,-3.32 0,-1.83 1.49,-3.32 3.32,-3.32 m 0,-2 c -2.94,0 -5.32,2.38 -5.32,5.32 0,2.94 2.38,5.32 5.32,5.32 2.94,0 5.32,-2.38 5.32,-5.32 0,-2.94 -2.38,-5.32 -5.32,-5.32 z"
       fill="#424242"
       id="path246" />
  </g>
  <g
     opacity="0.2"
     id="g252"
     transform="matrix(3.5478013,0,0,3.5478013,9.599426,-86.278707)">
    <path
       d="m 84.36,91.76 c 4.01,0 7.27,3.26 7.27,7.27 0,4.01 -3.26,7.27 -7.27,7.27 -4.01,0 -7.27,-3.26 -7.27,-7.27 0,-4.01 3.27,-7.27 7.27,-7.27 m 0,-2 c -5.12,0 -9.27,4.15 -9.27,9.27 0,5.12 4.15,9.27 9.27,9.27 5.12,0 9.27,-4.15 9.27,-9.27 0,-5.12 -4.15,-9.27 -9.27,-9.27 z"
       fill="#424242"
       id="path250" />
  </g>
  <g
     opacity="0.2"
     id="g256"
     transform="matrix(3.5478013,0,0,3.5478013,9.599426,-86.278707)">
    <path
       d="m 22,30.62 c 1.31,0 2.38,1.07 2.38,2.38 0,1.31 -1.07,2.38 -2.38,2.38 -1.31,0 -2.38,-1.07 -2.38,-2.38 0,-1.31 1.07,-2.38 2.38,-2.38 m 0,-2 c -2.42,0 -4.38,1.96 -4.38,4.38 0,2.42 1.96,4.38 4.38,4.38 2.42,0 4.38,-1.96 4.38,-4.38 0,-2.42 -1.96,-4.38 -4.38,-4.38 z"
       fill="#424242"
       id="path254" />
  </g>
  <g
     opacity="0.2"
     id="g260"
     transform="matrix(3.5478013,0,0,3.5478013,9.599426,-86.278707)">
    <path
       d="m 12.01,38.68 c 0.63,0 1.15,0.52 1.15,1.15 0,0.63 -0.52,1.15 -1.15,1.15 -0.63,0 -1.15,-0.52 -1.15,-1.15 0,-0.63 0.51,-1.15 1.15,-1.15 m 0,-2 c -1.74,0 -3.15,1.41 -3.15,3.15 0,1.74 1.41,3.15 3.15,3.15 1.74,0 3.15,-1.41 3.15,-3.15 0,-1.74 -1.41,-3.15 -3.15,-3.15 z"
       fill="#424242"
       id="path258" />
  </g>
</svg>
