<?xml version="1.0" encoding="UTF-8" standalone="no"?>
<svg
   xmlns:dc="http://purl.org/dc/elements/1.1/"
   xmlns:cc="http://creativecommons.org/ns#"
   xmlns:rdf="http://www.w3.org/1999/02/22-rdf-syntax-ns#"
   xmlns:svg="http://www.w3.org/2000/svg"
   xmlns="http://www.w3.org/2000/svg"
   xmlns:sodipodi="http://sodipodi.sourceforge.net/DTD/sodipodi-0.dtd"
   xmlns:inkscape="http://www.inkscape.org/namespaces/inkscape"
   viewBox="0 0 472.44094 332.59843"
   version="1.1"
   id="svg313"
   sodipodi:docname="stapler.svg"
   width="125mm"
   height="88mm"
   inkscape:version="1.0.2-2 (e86c870879, 2021-01-15)">
  <metadata
     id="metadata317">
    <rdf:RDF>
      <cc:Work
         rdf:about="">
        <dc:format>image/svg+xml</dc:format>
        <dc:type
           rdf:resource="http://purl.org/dc/dcmitype/StillImage" />
        <dc:title></dc:title>
      </cc:Work>
    </rdf:RDF>
  </metadata>
  <sodipodi:namedview
     pagecolor="#ffffff"
     bordercolor="#666666"
     borderopacity="1"
     objecttolerance="10"
     gridtolerance="10"
     guidetolerance="10"
     inkscape:pageopacity="0"
     inkscape:pageshadow="2"
     inkscape:window-width="1920"
     inkscape:window-height="1017"
     id="namedview315"
     showgrid="false"
     units="mm"
     inkscape:zoom="1.2038668"
     inkscape:cx="432.77213"
     inkscape:cy="216.38606"
     inkscape:window-x="-8"
     inkscape:window-y="-8"
     inkscape:window-maximized="1"
     inkscape:current-layer="svg313" />
  <defs
     id="defs187">
    <filter
       id="al">
      <feGaussianBlur
         stdDeviation=".24107"
         id="feGaussianBlur2" />
    </filter>
    <filter
       id="aj">
      <feGaussianBlur
         stdDeviation="1.16722"
         id="feGaussianBlur5" />
    </filter>
    <filter
       id="ag">
      <feGaussianBlur
         stdDeviation="1.38942"
         id="feGaussianBlur8" />
    </filter>
    <filter
       id="af">
      <feGaussianBlur
         stdDeviation=".86586"
         id="feGaussianBlur11" />
    </filter>
    <filter
       id="ae">
      <feGaussianBlur
         stdDeviation=".3712"
         id="feGaussianBlur14" />
    </filter>
    <filter
       id="ab">
      <feGaussianBlur
         stdDeviation=".23605"
         id="feGaussianBlur17" />
    </filter>
    <filter
       id="aa">
      <feGaussianBlur
         stdDeviation=".49785"
         id="feGaussianBlur20" />
    </filter>
    <filter
       id="z">
      <feGaussianBlur
         stdDeviation=".54792"
         id="feGaussianBlur23" />
    </filter>
    <filter
       id="y">
      <feGaussianBlur
         stdDeviation=".37944"
         id="feGaussianBlur26" />
    </filter>
    <filter
       id="x">
      <feGaussianBlur
         stdDeviation=".4851"
         id="feGaussianBlur29" />
    </filter>
    <filter
       id="w">
      <feGaussianBlur
         stdDeviation="1.26045"
         id="feGaussianBlur32" />
    </filter>
    <filter
       id="v">
      <feGaussianBlur
         stdDeviation="1.4591"
         id="feGaussianBlur35" />
    </filter>
    <filter
       id="q">
      <feGaussianBlur
         stdDeviation="2.51505"
         id="feGaussianBlur38" />
    </filter>
    <filter
       id="a">
      <feGaussianBlur
         stdDeviation=".28654"
         id="feGaussianBlur41" />
    </filter>
    <filter
       id="ac" />
    <filter
       id="at"
       x="-0.01129"
       y="-0.10616"
       width="1.0226001"
       height="1.2122999">
      <feGaussianBlur
         stdDeviation="3.74222"
         id="feGaussianBlur45" />
    </filter>
    <filter
       id="au"
       x="-0.024320001"
       y="-0.15386"
       width="1.0486"
       height="1.3077">
      <feGaussianBlur
         stdDeviation="2.09603"
         id="feGaussianBlur48" />
    </filter>
    <filter
       id="as"
       x="-0.099069998"
       y="-0.32041001"
       width="1.1982"
       height="1.6408">
      <feGaussianBlur
         stdDeviation=".94919"
         id="feGaussianBlur51" />
    </filter>
    <filter
       id="ar"
       x="-0.11355"
       y="-0.60108"
       width="1.2271"
       height="2.2021999">
      <feGaussianBlur
         stdDeviation=".94919"
         id="feGaussianBlur54" />
    </filter>
    <filter
       id="aq"
       x="-0.16542999"
       y="-0.84338999"
       width="1.3309"
       height="2.6868">
      <feGaussianBlur
         stdDeviation=".94919"
         id="feGaussianBlur57" />
    </filter>
    <filter
       id="ap"
       x="-0.082539998"
       y="-0.49179"
       width="1.1651"
       height="1.9836">
      <feGaussianBlur
         stdDeviation=".94919"
         id="feGaussianBlur60" />
    </filter>
    <filter
       id="ao"
       x="-0.19053"
       y="-0.85004002"
       width="1.3811001"
       height="2.7000999">
      <feGaussianBlur
         stdDeviation=".94919"
         id="feGaussianBlur63" />
    </filter>
    <filter
       id="an"
       x="-0.069279999"
       y="-0.17636"
       width="1.1386"
       height="1.3527">
      <feGaussianBlur
         stdDeviation=".94919"
         id="feGaussianBlur66" />
    </filter>
    <filter
       id="am"
       x="-0.01336"
       y="-0.11772"
       width="1.0267"
       height="1.2354">
      <feGaussianBlur
         stdDeviation="1.13679"
         id="feGaussianBlur69" />
    </filter>
    <filter
       id="ak"
       x="-0.0062299999"
       y="-0.16167"
       width="1.0125"
       height="1.3234">
      <feGaussianBlur
         stdDeviation=".46357"
         id="feGaussianBlur72" />
    </filter>
    <filter
       id="ai"
       x="-0.12201"
       y="-0.03455"
       width="1.244"
       height="1.0691">
      <feGaussianBlur
         stdDeviation="1.88425"
         id="feGaussianBlur75" />
    </filter>
    <filter
       id="ah"
       x="-0.042100001"
       y="-0.10441"
       width="1.0842"
       height="1.2088">
      <feGaussianBlur
         stdDeviation="4.58273"
         id="feGaussianBlur78" />
    </filter>
    <filter
       id="ad"
       x="-0.10687"
       y="-0.086860001"
       width="1.2137001"
       height="1.1737">
      <feGaussianBlur
         stdDeviation="1.3375"
         id="feGaussianBlur81" />
    </filter>
    <filter
       id="u"
       x="-0.03266"
       y="-0.36895001"
       width="1.0653"
       height="1.7379">
      <feGaussianBlur
         stdDeviation="3.26912"
         id="feGaussianBlur84" />
    </filter>
    <filter
       id="t"
       x="-0.01268"
       y="-0.22391"
       width="1.0254"
       height="1.4478">
      <feGaussianBlur
         stdDeviation="1.04209"
         id="feGaussianBlur87" />
    </filter>
    <filter
       id="s"
       x="-0.044229999"
       y="-0.19338"
       width="1.0885"
       height="1.3868001">
      <feGaussianBlur
         stdDeviation="7.64891"
         id="feGaussianBlur90" />
    </filter>
    <filter
       id="r"
       x="-0.051720001"
       y="-0.11844"
       width="1.1034"
       height="1.2369">
      <feGaussianBlur
         stdDeviation="3.10327"
         id="feGaussianBlur93" />
    </filter>
    <filter
       id="p"
       x="-0.04253"
       y="-0.1018"
       width="1.0851001"
       height="1.2036">
      <feGaussianBlur
         stdDeviation="1.19777"
         id="feGaussianBlur96" />
    </filter>
    <filter
       id="o"
       x="-0.033920001"
       y="-0.25964999"
       width="1.0678"
       height="1.5193">
      <feGaussianBlur
         stdDeviation="11.48277"
         id="feGaussianBlur99" />
    </filter>
    <linearGradient
       id="n"
       x1="265.67001"
       x2="278.47"
       y1="426.42001"
       y2="434.48001"
       gradientUnits="userSpaceOnUse">
      <stop
         stop-color="#575757"
         offset="0"
         id="stop102" />
      <stop
         stop-color="#616161"
         stop-opacity=".49804"
         offset=".46957"
         id="stop104" />
      <stop
         stop-color="#6b6b6b"
         stop-opacity="0"
         offset="1"
         id="stop106" />
    </linearGradient>
    <linearGradient
       id="m"
       x1="293.82001"
       x2="334.67999"
       gradientUnits="userSpaceOnUse">
      <stop
         stop-color="#575757"
         offset="0"
         id="stop109" />
      <stop
         stop-color="#616161"
         stop-opacity=".49804"
         offset=".38497"
         id="stop111" />
      <stop
         stop-color="#6b6b6b"
         stop-opacity="0"
         offset="1"
         id="stop113" />
    </linearGradient>
    <linearGradient
       id="l"
       x1="310.54001"
       x2="535.08002"
       y1="192.50999"
       y2="252.64999"
       gradientUnits="userSpaceOnUse">
      <stop
         stop-color="#fff"
         offset="0"
         id="stop116" />
      <stop
         stop-color="#fff"
         stop-opacity=".49804"
         offset=".22097"
         id="stop118" />
      <stop
         stop-color="#fff"
         stop-opacity="0"
         offset="1"
         id="stop120" />
    </linearGradient>
    <linearGradient
       id="k"
       x1="306.78"
       x2="554.23999"
       gradientUnits="userSpaceOnUse">
      <stop
         stop-color="#a9acbf"
         stop-opacity=".76078"
         offset="0"
         id="stop123" />
      <stop
         stop-color="#d1d3dc"
         offset="1"
         id="stop125" />
    </linearGradient>
    <linearGradient
       id="j"
       x1="414.89999"
       x2="289.82001"
       y1="203.3"
       y2="175.72"
       gradientUnits="userSpaceOnUse">
      <stop
         stop-color="#3d4680"
         offset="0"
         id="stop128" />
      <stop
         stop-color="#3d4680"
         offset=".96223"
         id="stop130" />
      <stop
         stop-color="#90919a"
         offset="1"
         id="stop132" />
    </linearGradient>
    <linearGradient
       id="i"
       x1="267.85001"
       x2="293.13"
       y1="261.39001"
       y2="135.19"
       gradientUnits="userSpaceOnUse">
      <stop
         stop-color="#a3a4aa"
         offset="0"
         id="stop135" />
      <stop
         stop-color="#838386"
         offset=".08764"
         id="stop137" />
      <stop
         stop-color="#838386"
         offset=".95691"
         id="stop139" />
      <stop
         stop-color="#a3a4aa"
         offset="1"
         id="stop141" />
    </linearGradient>
    <linearGradient
       id="h"
       x1="338.35001"
       x2="843.46002"
       y1="189.92"
       y2="459.37"
       gradientUnits="userSpaceOnUse">
      <stop
         stop-color="#3d4471"
         offset="0"
         id="stop144" />
      <stop
         stop-color="#3d4680"
         offset=".1775"
         id="stop146" />
      <stop
         stop-color="#3d4680"
         offset="1"
         id="stop148" />
    </linearGradient>
    <linearGradient
       id="g"
       x2="0"
       y1="194.35001"
       y2="214.13"
       gradientUnits="userSpaceOnUse">
      <stop
         stop-color="#333964"
         offset="0"
         id="stop151" />
      <stop
         stop-color="#333964"
         stop-opacity="0"
         offset="1"
         id="stop153" />
    </linearGradient>
    <linearGradient
       id="f"
       x1="905.81"
       x2="914.20001"
       y1="408.17999"
       y2="419.03"
       gradientUnits="userSpaceOnUse">
      <stop
         stop-color="#a3887a"
         offset="0"
         id="stop156" />
      <stop
         stop-color="#a3887a"
         stop-opacity="0"
         offset="1"
         id="stop158" />
    </linearGradient>
    <linearGradient
       id="e"
       x1="777.58002"
       x2="777.44"
       y1="447.17999"
       y2="453.20001"
       gradientUnits="userSpaceOnUse">
      <stop
         stop-color="#2e2e2e"
         offset="0"
         id="stop161" />
      <stop
         stop-color="#3d4680"
         offset=".61364"
         id="stop163" />
      <stop
         stop-color="#2e2e2e"
         offset="1"
         id="stop165" />
    </linearGradient>
    <linearGradient
       id="d"
       x1="285.81"
       x2="325.73999"
       gradientUnits="userSpaceOnUse">
      <stop
         stop-color="#343538"
         offset="0"
         id="stop168" />
      <stop
         stop-color="#4e4e4e"
         offset="1"
         id="stop170" />
    </linearGradient>
    <radialGradient
       id="c"
       cx="921.53003"
       cy="382.26999"
       r="8.6777"
       gradientTransform="matrix(-0.79762,-0.057497,0.019515,-0.27071,1647.1,546.44)"
       gradientUnits="userSpaceOnUse">
      <stop
         stop-color="#fff"
         offset="0"
         id="stop173" />
      <stop
         stop-color="#fff"
         stop-opacity=".49804"
         offset=".47823"
         id="stop175" />
      <stop
         stop-color="#fff"
         stop-opacity="0"
         offset="1"
         id="stop177" />
    </radialGradient>
    <radialGradient
       id="b"
       cx="919.21997"
       cy="392.76001"
       r="8.7964001"
       gradientTransform="matrix(-1.3748,0.012809,-0.0033547,-0.36006,2184.3,518.77)"
       gradientUnits="userSpaceOnUse">
      <stop
         stop-color="#fff"
         offset="0"
         id="stop180" />
      <stop
         stop-color="#fff"
         stop-opacity=".49804"
         offset=".48236"
         id="stop182" />
      <stop
         stop-color="#fff"
         stop-opacity="0"
         offset="1"
         id="stop184" />
    </radialGradient>
  </defs>
  <g
     transform="matrix(0.51362505,0,0,0.51362505,-37.03804,-1.1488501)"
     fill-rule="evenodd"
     id="g199">
    <path
       transform="matrix(1.0342,0,0,0.84546,-18.191,84.392)"
       d="m 126.3,505.72 c -1.503,-15.512 15.652,-16.803 24.061,-19.249 l 87.422,-40.102 c 6.4723,-3.3548 14.104,-6.595 22.457,-6.4163 l 599.92,12.833 55.34,14.437 c 12.793,3.9191 10.724,13.783 13.635,21.655 16.087,8.3558 8.3457,22.181 2.1174,22.07 l -755.23,34.875 c -17.034,1.5454 -27.746,-3.806 -32.883,-15.239 l -16.843,-24.863 z"
       filter="url(#o)"
       opacity="0.74828"
       id="path189" />
    <path
       d="m 128.33,494.66 c -1.503,-15.512 15.652,-16.803 24.061,-19.249 l 87.422,-40.102 c 6.4723,-3.3548 14.104,-6.595 22.457,-6.4163 l 599.92,12.833 55.34,14.437 c 12.793,3.9191 10.724,13.783 13.635,21.655 16.087,8.3558 8.3457,22.181 2.1174,22.07 l -755.23,34.875 c -17.034,1.5454 -27.746,-3.806 -32.883,-15.239 l -16.843,-24.863 z"
       fill="#868686"
       id="path191" />
    <path
       d="m 919.28,457.27 -629.25,-6.8664 c -8.3543,0.1268 -15.996,3.0515 -22.469,6.4062 l -102.69,48.438 c -1.149,0.15582 -2.2295,0.35188 -3.25,0.5625 3.1044,2.1352 9.212,4.0318 23.156,4.75 l 750.31,-30.281 c -1.1102,-0.8635 -2.4293,-1.6854 -3.9375,-2.4688 -2.9109,-7.8719 -0.83197,-17.737 -13.625,-21.656 l 1.7506,1.1164 z m 21.124,30.602 -768.25,30.625 c -11.506,-0.0314 -16.507,-4.2185 -20.781,-8.6562 -5.6538,3.8072 -6.3032,8.5206 -6.2188,9.6875 5.1374,11.433 15.872,16.764 32.906,15.219 l 755.22,-34.875 c 4.0267,0.0718 8.6817,-5.6656 7.125,-12 z"
       fill="#3d4680"
       filter="url(#at)"
       id="path193" />
    <path
       d="m 929.81,475.66 -757.53,31.562 c -5.367,0.22229 -5.3985,-2.19 -8.4784,-4.1086 -5.2008,-6.4535 -9.3486,-11.146 -17.505,-20.571 1.8929,-0.35053 2.4361,-0.21327 4.5459,-1.6332 0.79587,-0.45488 1.2713,-1.316 1.2322,-2.2318 -0.0391,-0.9158 -0.58614,-1.7333 -1.4179,-2.1187 -0.83176,-0.3854 -1.809,-0.27428 -2.533,0.28798 -0.67455,0.45398 -2.6946,0.95944 -4.5938,1.3125 -0.94956,0.17653 -1.8834,0.33831 -2.7812,0.625 -0.44894,0.14334 -0.88573,0.29881 -1.4062,0.65625 -0.52047,0.35744 -1.2154,1.0942 -1.375,2.125 -0.10882,0.70689 0.0966,1.426 0.5625,1.9688 10.413,11.829 13.551,16.399 19.594,23.875 0.177,0.21095 0.38829,0.39054 0.625,0.53125 3.1109,1.9196 7.0123,4.4666 13.75,4.1875 l 757.53,-31.594 c 0.9281,0.0435 1.801,-0.44166 2.254,-1.2529 0.453,-0.81124 0.40826,-1.8088 -0.1156,-2.5762 -0.52386,-0.7674 -1.4367,-1.1724 -2.3572,-1.046 z"
       fill="#424859"
       opacity="0.46104"
       id="path195" />
    <path
       d="m 220.38244,444.92745 c 1.0323,0.56626 0.441,0.68585 0.24504,0.66754 l -31.03869,13.76018 c -0.40031,0.19494 -0.39782,1.71349 -0.47802,2.15147 -0.0802,0.43798 0.0527,0.88798 0.35798,1.21211 L 209.5,483.1875 c 0.42314,0.43665 1.07972,0.55029 1.625,0.28125 l 34.90625,-17.03125 c 0.43995,-0.20958 0.73928,-0.63283 0.79029,-1.11747 0.051,-0.48464 -0.15362,-0.96094 -0.54029,-1.25753 L 222.375,445.90625 c -0.30103,-0.23465 -0.6848,-0.33624 -1.0625,-0.28125 z m 0.99256,3.7288 22.37673,17.56919 -31.9375,15.59375 -19.00173,-19.66294 z"
       fill="#4b4b68"
       filter="url(#al)"
       id="path197" />
  </g>
  <g
     transform="matrix(0.51362505,0,0,0.51362505,-37.03804,-1.1488501)"
     id="g225">
    <path
       d="m 263.56,435.54 c 9.3525,3.4369 16.104,9.4753 23.355,15.014 3.8765,3.702 9.2639,4.3821 15.347,3.67 l 163.15,2.6691 c 5.0734,-3.7812 3.5921,-7.5624 3.0027,-11.344 l -35.032,-13.346 c -3.3046,-1.128 -7.7594,-1.6809 -14.013,-1.3346 l -140.8,-5.6718 c -6.1214,0.29017 -14.666,-0.3285 -15.347,2.0018 l 0.33363,8.341 z"
       fill-rule="evenodd"
       filter="url(#au)"
       opacity="0.53571"
       stroke="#000000"
       id="path201" />
    <path
       d="m 263.57,430.14 c 9.3525,3.4369 16.104,9.4753 23.355,15.014 3.8765,3.702 9.2639,4.3821 15.347,3.67 l 163.15,2.6691 c 5.0734,-3.7812 3.5921,-7.5624 3.0027,-11.344 l -35.032,-13.346 c -3.3046,-1.128 -7.7594,-1.6809 -14.013,-1.3346 l -140.8,-5.6718 c -6.1214,0.29017 -14.666,-0.3285 -15.347,2.0018 l 0.33363,8.341 z"
       fill="#bbbcbe"
       fill-rule="evenodd"
       stroke="#aeafb2"
       id="path203" />
    <path
       d="m 266.24,423.33 21.587,13.561 c 4.084,1.5072 7.2299,4.7361 11.901,3.5979 0,0 127.56,5.2938 152.5,3.8747 24.94,-1.4191 13.838,-1.9373 13.838,-1.9373"
       fill="none"
       filter="url(#am)"
       stroke="#6a6d7a"
       stroke-width="1.9"
       id="path205" />
    <path
       d="m 286.53125,422.6875 c -0.50229,0.0744 -0.90341,0.45682 -1.00165,0.955 -0.0982,0.49818 0.12769,1.00426 0.56415,1.26375 l 15.25,9.125 c 0.14119,0.095 0.30097,0.15894 0.46875,0.1875 l 13.84375,1.375 c 0.35813,0.0365 0.71373,-0.0897 0.96875,-0.34375 l 1.40625,-1.375 c 0.47462,-0.47462 0.47462,-1.24413 0,-1.71875 -0.47462,-0.47462 -1.24413,-0.47462 -1.71875,0 l -0.96875,1 -13.0625,-1.3125 -11.03125,-6.65625 6.5,0.15625 c 0.46314,0.0791 0.92982,-0.11941 1.19414,-0.50785 0.26432,-0.38844 0.27766,-0.89539 0.0341,-1.29719 -0.24353,-0.4018 -0.69911,-0.62455 -1.16577,-0.56996 L 286.75,422.6875 c -0.0728,-0.007 -0.14599,-0.007 -0.21875,0 z"
       fill="#6b6b6b"
       fill-rule="evenodd"
       filter="url(#an)"
       id="path207" />
    <path
       d="m 346.84375,422.96875 c -0.59413,0.12094 -1.00473,0.66603 -0.95701,1.27045 0.0477,0.60442 0.53877,1.07834 1.14451,1.10455 l 9.40625,0.28125 c 0.46314,0.0791 0.92982,-0.11941 1.19414,-0.50785 0.26432,-0.38844 0.27766,-0.89539 0.0341,-1.29719 -0.24353,-0.4018 -0.69911,-0.62455 -1.16577,-0.56996 l -9.40625,-0.28125 c -0.0831,-0.009 -0.16689,-0.009 -0.25,0 z"
       fill="#6b6b6b"
       fill-rule="evenodd"
       filter="url(#ao)"
       id="path209" />
    <path
       d="m 352.125,428.21875 c -0.51297,0.0782 -0.91756,0.47727 -1.00287,0.98911 -0.0853,0.51184 0.168,1.02052 0.62787,1.26089 l 2.46875,1.375 c 0.3708,0.22 0.83112,0.2242 1.20587,0.011 0.37475,-0.21322 0.60632,-0.61107 0.60663,-1.04223 l 19.1875,0.90625 1.6875,0.96875 c 0.57817,0.32792 1.31271,0.12505 1.64063,-0.45313 0.32792,-0.57818 0.12504,-1.3127 -0.45313,-1.64062 l -1.9375,-1.125 c -0.16248,-0.0928 -0.34441,-0.14629 -0.53125,-0.15625 l -23.25,-1.09375 c -0.0831,-0.009 -0.16689,-0.009 -0.25,0 z"
       fill="#6b6b6b"
       fill-rule="evenodd"
       filter="url(#ap)"
       id="path211" />
    <path
       d="m 385.09375,435.6875 c -0.23124,0.031 -0.44843,0.12874 -0.625,0.28125 h -10.5625 c -0.66447,0 -1.20313,0.53866 -1.20313,1.20313 0,0.66447 0.53866,1.20312 1.20313,1.20312 h 11.0625 c 0.32001,-0.007 0.62376,-0.14248 0.84375,-0.375 l 0.28125,-0.25 c 0.38363,-0.35934 0.48878,-0.9265 0.25946,-1.39947 -0.22932,-0.47297 -0.73974,-0.74168 -1.25946,-0.66303 z"
       fill="#6b6b6b"
       fill-rule="evenodd"
       filter="url(#aq)"
       id="path213" />
    <path
       d="m 402,424.62 c -0.58863,0.0936 -1.0194,0.60504 -1.0115,1.201 0.008,0.59596 0.45189,1.0959 1.0428,1.174 l 17.719,1.4062 c 0.66447,0.0518 1.2451,-0.44491 1.2969,-1.1094 0.0518,-0.66449 -0.44491,-1.2451 -1.1094,-1.2969 l -17.719,-1.375 c -0.0728,-0.007 -0.14599,-0.007 -0.21875,0 z"
       fill="#6b6b6b"
       fill-rule="evenodd"
       filter="url(#ar)"
       id="path215" />
    <path
       d="m 439.3125,436.25 -6.65625,1.125 c -0.53236,0.10538 -0.92776,0.55491 -0.96434,1.09637 -0.0366,0.54146 0.29474,1.04009 0.80809,1.21613 l 11.90625,3.59375 c 0.14071,0.0477 0.28906,0.0689 0.4375,0.0625 l 8.5625,-0.5625 c 0.46506,0.0297 0.90528,-0.21245 1.12913,-0.62117 0.22385,-0.40872 0.19088,-0.91007 -0.0846,-1.28594 -0.27548,-0.37587 -0.74363,-0.55829 -1.20078,-0.46789 l -8.40625,0.53125 -6.75,-2.0625 1.59375,-0.25 c 0.65584,-0.10355 1.10355,-0.71916 1,-1.375 -0.10355,-0.65584 -0.71916,-1.10355 -1.375,-1 z"
       fill="#6b6b6b"
       fill-rule="evenodd"
       filter="url(#as)"
       id="path217" />
    <path
       d="m 263.76,421.97 17.628,11.059 -7.5667,2.3282 -10.144,-5.3217 0.0831,-8.0656 z"
       fill="url(#n)"
       fill-rule="evenodd"
       opacity="0.50649"
       id="path219"
       style="fill:url(#n)" />
    <path
       d="m 295.69,440.09 c -0.96519,3.1663 -2.3319,6.8274 -0.3326,9.1466 l 45.151,0.24945 c -3.9771,-2.5641 -8.9323,-4.1501 -11.891,-7.733 l -29.269,-0.49891 c -1.8032,-0.24214 -2.7188,-0.70616 -3.6586,-1.1641 z"
       fill="url(#m)"
       fill-rule="evenodd"
       id="path221"
       style="fill:url(#m)" />
    <path
       d="m 291.13,447.19 c -0.6516,-0.20353 -2.7552,-1.1258 -2.9328,-0.59282 -0.1776,0.53298 1.727,1.94 2.178,2.275 0.99998,0.78726 2.4698,1.348 5.0408,1.276 l 169.9,3.1615 c 0.48317,0.0439 0.9506,-0.18484 1.2124,-0.59334 0.2618,-0.4085 0.2743,-0.92874 0.0325,-1.3494 -0.24178,-0.42066 -0.69765,-0.67164 -1.1824,-0.65104 l -169.94,-2.5 h -0.0625 c -4.0621,-0.74708 -3.6007,-0.82466 -4.2452,-1.026 z"
       fill="#232962"
       fill-rule="evenodd"
       filter="url(#ak)"
       opacity="0.815"
       id="path223" />
  </g>
  <g
     transform="matrix(0.51362505,0,0,0.51362505,-37.03804,-1.1488501)"
     id="g247">
    <path
       d="m 637.46,442.03 43.8,13.728 192.2,0.65373 3.2686,-7.191 -98.059,-13.075 -132.71,1.9612 -8.4984,3.9224 z"
       fill-rule="evenodd"
       filter="url(#u)"
       opacity="0.92138"
       stroke="#000000"
       id="path227" />
    <path
       d="m 632.89,438.55 43.593,13.871 8.8345,-0.57932 57.348,-46.977 -24.174,-50.33 -19.419,-4.7556 c -66.312,45.078 -60.414,64.883 -66.182,88.771 z"
       fill="#212121"
       fill-rule="evenodd"
       id="path229" />
    <path
       d="m 676.42,451.46 2.3053,0.78244 190.17,0.78244 c 2.4717,-16.178 14.637,-19.432 26.212,-23.473 l -169.4,-51.25 c -35.187,19.859 -43.927,46.101 -49.294,73.158 z"
       fill="#cbcbcb"
       fill-rule="evenodd"
       id="path231" />
    <path
       d="m 638.19,435.53 35.271,11.493 c 10.842,-43.313 28.96,-60.222 48.542,-67.639 -38.816,27.746 -41.403,55.149 -45.371,70.413 l -40.947,-13.399 2.6766,-0.6617"
       fill="#4d321e"
       fill-rule="evenodd"
       opacity="0.51724"
       id="path233" />
    <path
       d="m 714.1,389.05 c -17.493,14.05 -29.463,34.386 -34.673,61.129"
       fill="none"
       filter="url(#aa)"
       opacity="0.64828"
       stroke="#fff7f7"
       id="path235" />
    <path
       d="m 635,437.48 40.183,12.609"
       fill="none"
       filter="url(#z)"
       opacity="0.74828"
       stroke="#ffffff"
       stroke-width="1.8"
       id="path237" />
    <path
       d="m 647.55,434.74 v 2.2389 l 26.749,8.2487 0.70703,-2.8281 -27.456,-7.6595 z"
       fill="#625247"
       fill-rule="evenodd"
       filter="url(#y)"
       opacity="0.57931"
       id="path239" />
    <path
       d="m 634.78,435.84 c 4.7643,-28.192 11.645,-41.025 33.301,-60.119"
       fill="none"
       filter="url(#x)"
       opacity="0.36897"
       stroke="#d1ba89"
       stroke-width="1.8"
       id="path241" />
    <path
       d="m 714.08,355.57 c -0.52258,0.0183 -1.0007,0.2989 -1.2716,0.74617 -0.2709,0.44727 -1.0882,1.2973 -0.86237,1.7689 l 21.245,47.698 1.9242,1.0463 150.9,25.554 c 0.84569,0.1467 1.6502,-0.41994 1.7969,-1.2656 0.1467,-0.84566 -0.41993,-1.6502 -1.2656,-1.7969 l -149.97,-26.031 -21,-46.781 c -0.25514,-0.5951 -0.85328,-0.96894 -1.5,-0.9375 z"
       fill-rule="evenodd"
       filter="url(#w)"
       opacity="0.76207"
       id="path243" />
    <path
       d="m 676.81,452.46 197.25,2.8452 -5.1214,-2.8452 0.51406,-4.2678 c -0.22286,1.2946 -2.286,1.5475 -3.9283,1.4226 l -180.59,-1.7805 c -2.5484,0.45566 -3.0002,-2.2335 -4.2679,-3.6988 l -3.855,8.3245 z"
       fill="url(#e)"
       fill-rule="evenodd"
       filter="url(#t)"
       opacity="0.84069"
       id="path245"
       style="fill:url(#e)" />
  </g>
  <g
     transform="matrix(0.51362505,0,0,0.51362505,-37.03804,-1.1488501)"
     id="g269">
    <path
       d="m 688.37,400.23 c 10.817,-12.407 21.965,-25.569 37.916,-29.418 l -17.651,-21.573 -409.89,-88.253 -10.46,90.868 13.075,1.3074 15.036,10.46 371.97,36.609 z"
       fill="#bcbdbf"
       fill-rule="evenodd"
       filter="url(#v)"
       stroke="#373747"
       stroke-width="3.2"
       id="path249" />
    <path
       d="m 719.54,349.09 c -15.942,11.339 -35.935,11.052 -53.342,3.8147 -18.397,-5.5378 -37.53,-2.9915 -56.288,-4.5287 -25.194,-5.1665 -50.458,1.2205 -75.654,2.388 -18.71,0.69041 -36.794,-4.241 -54.158,-10.827 -16.156,-5.9961 -32.931,1.241 -49.048,2.9214 -20.959,0.33916 -40.053,-9.795 -59.972,-14.355 -13.75,-8.1796 -21.67,-27.978 -40.514,-25.789 -11.019,0.57368 -32.274,7.711 -22.54,-11.092 7.0373,-7.2726 9.4342,-30.438 21.248,-27.22"
       fill="#909090"
       fill-opacity="0.74182"
       fill-rule="evenodd"
       filter="url(#s)"
       stroke="#000000"
       id="path251" />
    <path
       d="m 449.49,292.24 c -6.4129,-0.0751 -14.033,-2.3428 -18.466,4.0034 -5.5625,5.0471 -3.2697,14.108 -8.9896,18.838 -6.0791,3.4123 -11.97,6.9309 -17.26,11.523 -5.9916,3.5112 -13.434,2.5658 -19.98,1.4154 -6.4885,-1.2584 -11.92,-5.2664 -18.213,-7.109 -7.0414,-1.2914 -7.8596,-10.156 -14.591,-11.676 -7.1065,-1.1381 -15.103,-0.99309 -21.163,3.4528 -5.8118,2.438 -12.319,4.9705 -18.672,4.0323 -5.3102,-2.7516 -7.3473,-9.4287 -6.4714,-15.063 0.32947,-7.7687 1.6156,-15.39 3.0146,-23.024 0.65983,-4.2909 0.22571,-8.6975 2.8062,-12.45 l 137.99,26.057 z"
       fill="#696969"
       fill-rule="evenodd"
       filter="url(#r)"
       opacity="0.63448"
       id="path253" />
    <path
       d="m 321.57,278.02 402.11,83.502 -11.252,-14.805 -393.82,-81.133 2.961,12.436 z"
       fill-rule="evenodd"
       filter="url(#q)"
       opacity="0.57241"
       stroke="#000000"
       id="path255" />
    <path
       d="m 297.71,266.55 -11.401,90.991 6.4532,1.0755 1.7209,-5.1626 0.43021,-1.936 7.959,2.3662 1.5058,10.755 3.8719,1.2906 6.8835,-11.186 10.11,-83.892 -27.534,-4.3022 z"
       fill="url(#d)"
       fill-rule="evenodd"
       opacity="0.8069"
       id="path257"
       style="fill:url(#d)" />
    <g
       filter="url(#p)"
       opacity="0.50345"
       stroke="#000000"
       id="g263">
      <path
         d="m 370.88,281.56 -2.2355,15.649 5.8124,2.012 56.559,7.3773 2.012,-12.072 -62.148,-12.966 z"
         fill="#979797"
         fill-rule="evenodd"
         stroke-width="3.2"
         id="path259" />
      <path
         d="m 374.45,299.22 2.4591,-17.437"
         fill="none"
         stroke-width="1.6"
         id="path261" />
    </g>
    <path
       d="m 313.09,268.27 -13.526,95.251 5.268,1.4238 12.672,-96.105 -4.4137,-0.56952 z"
       fill="#797979"
       fill-rule="evenodd"
       filter="url(#a)"
       id="path265" />
    <path
       d="m 299.74,261.75 -13.526,95.251 5.268,1.4238 12.672,-96.105 -4.4137,-0.56952 z"
       fill="#797979"
       fill-rule="evenodd"
       filter="url(#a)"
       id="path267" />
  </g>
  <g
     transform="matrix(0.51362505,0,0,0.51362505,-37.03804,-1.1488501)"
     fill-rule="evenodd"
     id="g281">
    <path
       d="m 297.8,268.76 -35.89,-5.3388 c -8.2763,-2.3617 -13.107,-7.229 -13.275,-15.488 l 23.232,-102.05 c 2.6698,-5.2569 7.9319,-9.0324 15.764,-11.339 l 20.659,-4.212 14.189,3.9354 -24.678,134.5 z"
       fill="url(#i)"
       id="path271"
       style="fill:url(#i)" />
    <path
       d="m 272.19,254.71 26.081,-116.65 c 4.4189,-7.2168 10.607,-8.2398 17.546,-6.6389 l 233.78,53.585 c 0,0 10.139,5.4384 7.5873,17.546 -2.5697,12.194 -16.123,10.907 -16.123,10.907 l -187.79,-27.504 -49.792,82.986 -25.133,-3.7936 c -2.6442,-0.53117 -4.7839,-3.5846 -6.1647,-10.433 z"
       fill="url(#j)"
       id="path273"
       style="fill:url(#j)" />
    <path
       d="m 310.78,132 c -2.1048,0.0768 -3.8183,1.7178 -3.9859,3.8173 -0.1676,2.0995 1.2638,3.9916 3.3297,4.4014 l 234.79,53.936 c 2.235,0.5264 4.4736,-0.85872 5,-3.0938 0.5264,-2.23508 -0.85872,-4.4736 -3.0938,-5 l -234.79,-53.936 c -0.40791,-0.10485 -0.8294,-0.147 -1.25,-0.125 z"
       fill="url(#k)"
       filter="url(#aj)"
       opacity="0.53896"
       id="path275"
       style="fill:url(#k)" />
    <path
       d="m 308.05,132.76 c -3.6084,-0.10598 -6.8106,1.7543 -8.5312,4.3125 l -0.34375,0.53125 -0.15625,0.625 -24.656,115.72 -0.15625,0.75 0.1875,0.75 c 0.32047,1.2653 0.66058,2.7303 1.5,4.2812 0.83942,1.5509 2.4701,3.2114 4.6562,3.7812 1.1581,0.36048 2.4207,0.0566 3.288,-0.79131 0.8673,-0.84793 1.1996,-2.1033 0.8654,-3.2693 -0.3342,-1.166 -1.2811,-2.0547 -2.4659,-2.3144 -0.32156,-0.0838 -0.26049,-0.031 -0.53125,-0.53125 -0.20673,-0.38196 -0.44873,-1.2606 -0.6875,-2.125 l 24.281,-114.06 c 0.57411,-0.75128 1.0961,-1.0743 2.5625,-1.0312 1.8294,0.0518 3.3545,-1.3893 3.4062,-3.2188 0.0517,-1.8295 -1.3893,-3.3545 -3.2188,-3.4062 z"
       fill-opacity="0.23549"
       filter="url(#ai)"
       id="path277" />
    <path
       d="m 288.65,265.09 c 9.7248,0.47553 12.849,-4.7066 14.93,-10.783 l 22.81,-72.577 c 7.6862,-12.104 19.024,-19.097 37.74,-15.76 l 185.8,42.717 -12.027,7.465 -186.63,-29.031 -39.814,83.36 -22.81,-5.3914 z"
       fill="url(#l)"
       filter="url(#ah)"
       opacity="0.15862"
       id="path279"
       style="fill:url(#l)" />
  </g>
  <g
     transform="matrix(0.51362505,0,0,0.51362505,-37.03804,-1.1488501)"
     fill-rule="evenodd"
     id="g291">
    <path
       d="m 294.66,268.46 c 5.6324,-0.52874 10.136,-2.375 12.78,-6.3899 l 28.298,-75.766 c 5.1081,-9.4992 14.494,-12.126 25.56,-11.867 l 187.13,33.633 c 3.7781,-0.0878 4.9334,-1.3038 7.2805,-3.2996 170.49,46.907 273.25,108.7 379.91,169.79 1.4322,2.277 3.4584,4.356 3.5088,7.0935 l -2.7385,28.298 c -8.1104,26.495 -20.765,25.725 -33.775,22.821 l -166.47,-28.419 -21.392,-48.029 -420.1,-87.865 z"
       fill="url(#h)"
       id="path283"
       style="fill:url(#h)" />
    <path
       d="m 359.75,174.91 c -10.168,0.11025 -18.711,3.0008 -23.5,11.906 l -10.406,27.844 c 5.7414,0.63371 12.167,-0.51286 17.344,0.78125 5.502,1.3755 13.233,0 18.938,0 h 20.188 c 6.8784,0 12.361,-1.2812 18.906,-1.2812 5.7333,10e-6 10.748,-1.25 17.688,-1.25 h 18.906 c 6.3891,10e-6 10.444,1.25 17.656,1.25 5.3982,10e-6 11.373,2.5312 17.688,2.5312 4.1918,0 12.28,1.456 17.656,2.5312 5.3714,1.0743 13.58,1.5122 17.656,2.5312 5.502,1.3755 13.233,0 18.938,0 7.0307,-1e-5 12.504,-1.2431 17.656,-2.5312 6.1502,-1.5376 10.102,-4.7366 16.406,-6.3125 3.2552,-0.8138 6.1899,-2.1626 9,-3.625 -4.704,-1.3468 -9.4398,-2.6766 -14.25,-4 -2.3472,1.9958 -3.5031,3.1935 -7.2812,3.2812 l -187.12,-33.625 c -0.69161,-0.0162 -1.3846,-0.0386 -2.0625,-0.0312 z"
       fill="url(#g)"
       id="path285"
       style="fill:url(#g)" />
    <path
       d="m 558.69,204.25 c -1.788,0.0834 -3.2431,1.4676 -3.4158,3.2491 -0.1727,1.7815 0.98963,3.4194 2.7283,3.8446 126.32,31.847 249.57,93.878 372.34,167.59 1.7086,1.0269 3.9262,0.47426 4.9531,-1.2344 1.0269,-1.70866 0.47425,-3.9262 -1.2344,-4.9531 -123.07,-73.892 -246.92,-136.29 -374.31,-168.41 -0.34755,-0.0838 -0.70564,-0.11543 -1.0625,-0.0937 z"
       fill="#ffffff"
       filter="url(#ag)"
       opacity="0.23448"
       id="path287" />
    <path
       d="m 557.44,209.66 -3.29,1.4973 c 155.78,41.93 262.79,101.29 345.74,147.52 l 0.0182,-0.14191 c -82.917,-46.214 -186.43,-106.87 -342.47,-148.88 z"
       fill="#ffffff"
       filter="url(#af)"
       id="path289" />
  </g>
  <g
     transform="matrix(0.51362505,0,0,0.51362505,-37.03804,-1.1488501)"
     id="g311">
    <path
       d="m 910.24,391.43 a 6.3692,7.3128 0 1 1 -12.738,0 6.3692,7.3128 0 1 1 12.738,0 z"
       fill="#ffffff"
       opacity="0.23448"
       id="path293" />
    <path
       transform="matrix(1.0785,0,0,1.0808,-75.163,-32.45)"
       d="m 933.05,406.21 a 15.019,18.479 0 1 1 -30.037,0 15.019,18.479 0 1 1 30.037,0 z"
       filter="url(#ad)"
       opacity="0.55862"
       id="path295" />
    <path
       transform="matrix(1.0785,0,0,1.0383,-73.276,-16.265)"
       d="m 933.05,406.21 a 15.019,18.479 0 1 1 -30.037,0 15.019,18.479 0 1 1 30.037,0 z"
       fill="#ddc8c8"
       id="path297" />
    <path
       d="m 916.86,386.32 c -8.6396,0 -15.689,8.029 -16.156,18.125 13.594,2.0732 25.813,3.1027 32.312,0.0937 -0.42722,-10.14 -7.4897,-18.219 -16.156,-18.219 z"
       fill="#8a7062"
       id="path299" />
    <path
       d="m 913.23,423.28 c -10.51,-3.6613 -11.755,-11.596 -11.952,-18.557 l 8.6495,1.3316 c -0.362,3.5468 1.0002,7.3351 6.9196,10.463 z"
       fill="url(#f)"
       fill-rule="evenodd"
       id="path301"
       style="fill:url(#f)" />
    <path
       d="m 901.75,405.51 c 0.39338,5.873 3.1346,16.895 15.726,17.928 8.0343,-1.0197 12.589,-7.3504 13.839,-11.008"
       fill="none"
       filter="url(#ae)"
       opacity="0.46897"
       stroke="#ffffff"
       stroke-linecap="round"
       stroke-linejoin="round"
       id="path303" />
    <path
       d="m 924.19,392.25 c -0.94918,0.57121 -2.2142,1.4145 -2.2317,2.6149 0.50882,1.2529 -0.37012,2.2279 -1.6364,2.274 -1.2559,0.5046 -2.3456,-0.31913 -3.2134,-1.1296 -1.0233,-0.81731 -2.0693,-1.6806 -2.6998,-2.8531 -0.978,-0.90714 -2.0357,0.3512 -2.9369,0.70341 -1.0761,0.81043 -0.0105,1.9969 -0.17793,3.01 -0.0988,1.2804 -0.47419,2.5496 -1.0444,3.6934 -1.2506,1.5341 -2.5473,0.21916 -4.4603,0.23421 -1.2663,-0.13435 -2.6717,0.52498 -3.0684,1.7995 -0.46213,1.5709 1.5953,1.9908 2.6754,1.4202 1.8804,-0.3538 3.1185,1.2606 4.6453,-0.0112 1.8314,-1.3115 3.6684,-3.0376 3.9832,-5.387 0.54192,-0.8376 1.22,0.97635 1.8562,1.2032 1.3269,1.1814 3.2295,0.77725 4.7431,0.24907 0.96436,-0.15407 1.7029,-0.82953 2.5859,-1.1481 0.38665,0.96201 0.56594,2.5194 1.8837,2.5728 1.3416,-0.32521 1.1654,1.7534 2.5957,1.6188 1.392,0.15835 2.1575,-1.5752 1.6792,-2.7219 -0.45639,-1.0524 -0.71706,-2.8344 -2.2123,-2.751 -0.91131,0.67062 -1.1069,-1.0712 -1.5335,-1.7251 -0.59793,-1.0697 0.34705,-2.3197 -0.37363,-3.3322 -0.24196,-0.35815 -0.67579,-0.36454 -1.0592,-0.33434 z"
       fill="#73553e"
       filter="url(#ac)"
       opacity="0.64828"
       id="path305" />
    <path
       d="m 910.4,389.31 c 3.193,-3.038 11.172,-3.3282 16.355,1.5726 0,0 -0.36134,4.2396 -5.1897,3.9316 -4.6717,-0.29801 -11.166,-5.5042 -11.166,-5.5042 z"
       fill="url(#c)"
       fill-rule="evenodd"
       id="path307"
       style="fill:url(#c)" />
    <path
       d="m 909.17,389.47 c 5.2805,-3.6634 10.967,-3.5038 17.477,1.442 l -3.2302,-1.0383 c 0,0 -2.3851,3.4491 -4.6145,3.1725 -2.2294,-0.2766 -3.7493,-4.2107 -3.7493,-4.2107 -1.292,-0.20255 -3.7508,0.27658 -5.8835,0.6345 z"
       fill="url(#b)"
       fill-rule="evenodd"
       filter="url(#ab)"
       id="path309"
       style="fill:url(#b)" />
  </g>
</svg>
