<?xml version="1.0" encoding="UTF-8" standalone="no"?>
<svg
   xmlns:dc="http://purl.org/dc/elements/1.1/"
   xmlns:cc="http://creativecommons.org/ns#"
   xmlns:rdf="http://www.w3.org/1999/02/22-rdf-syntax-ns#"
   xmlns:svg="http://www.w3.org/2000/svg"
   xmlns="http://www.w3.org/2000/svg"
   xmlns:sodipodi="http://sodipodi.sourceforge.net/DTD/sodipodi-0.dtd"
   xmlns:inkscape="http://www.inkscape.org/namespaces/inkscape"
   width="117.37623mm"
   height="76.193382mm"
   viewBox="0 0 117.37623 76.193382"
   version="1.1"
   id="svg1075"
   inkscape:version="1.0.2-2 (e86c870879, 2021-01-15)"
   sodipodi:docname="surfboard.svg">
  <defs
     id="defs1069">
    <linearGradient
       id="am"
       x2="0"
       y1="317.82999"
       y2="13.174"
       gradientUnits="userSpaceOnUse"
       gradientTransform="matrix(0.1996082,0.3280912,-0.37668394,0.22917167,32.398584,-150.80241)">
      <stop
         stop-color="#fff"
         offset=".1227"
         id="stop55" />
      <stop
         stop-color="#fff"
         offset=".8098"
         id="stop57" />
      <stop
         stop-color="#fcee21"
         offset=".8589"
         id="stop59" />
    </linearGradient>
    <linearGradient
       id="al"
       x2="0"
       y1="314.95999"
       y2="231.44"
       gradientUnits="userSpaceOnUse"
       gradientTransform="matrix(0.1996082,0.3280912,-0.37668394,0.22917167,32.398584,-150.80241)">
      <stop
         stop-color="#fcee21"
         offset="0"
         id="stop62" />
      <stop
         stop-color="#fcee21"
         offset="1"
         id="stop64" />
    </linearGradient>
    <linearGradient
       id="ak"
       x1="467.34"
       x2="526.53003"
       gradientUnits="userSpaceOnUse"
       gradientTransform="matrix(0.1996082,0.3280912,-0.37668394,0.22917167,32.398584,-150.80241)">
      <stop
         stop-color="#e56525"
         offset="0"
         id="stop67" />
      <stop
         stop-color="#e56525"
         offset=".9755"
         id="stop69" />
    </linearGradient>
    <linearGradient
       id="aj"
       x1="474.87"
       x2="495.20999"
       gradientUnits="userSpaceOnUse"
       gradientTransform="matrix(0.1996082,0.3280912,-0.37668394,0.22917167,32.398584,-150.80241)">
      <stop
         stop-color="#020202"
         stop-opacity=".26"
         offset="0"
         id="stop72" />
      <stop
         stop-color="#020202"
         stop-opacity="0"
         offset="1"
         id="stop74" />
    </linearGradient>
  </defs>
  <sodipodi:namedview
     id="base"
     pagecolor="#ffffff"
     bordercolor="#666666"
     borderopacity="1.0"
     inkscape:pageopacity="0.0"
     inkscape:pageshadow="2"
     inkscape:zoom="0.35"
     inkscape:cx="381.67733"
     inkscape:cy="535.99751"
     inkscape:document-units="mm"
     inkscape:current-layer="layer1"
     inkscape:document-rotation="0"
     showgrid="false"
     inkscape:window-width="1267"
     inkscape:window-height="1040"
     inkscape:window-x="104"
     inkscape:window-y="0"
     inkscape:window-maximized="0" />
  <metadata
     id="metadata1072">
    <rdf:RDF>
      <cc:Work
         rdf:about="">
        <dc:format>image/svg+xml</dc:format>
        <dc:type
           rdf:resource="http://purl.org/dc/dcmitype/StillImage" />
        <dc:title />
      </cc:Work>
    </rdf:RDF>
  </metadata>
  <g
     inkscape:label="Layer 1"
     inkscape:groupmode="layer"
     id="layer1"
     transform="translate(-4.8478729,-6.3506576)">
    <path
       d="M 122.2241,8.0173455 C 67.061006,-5.5102482 8.4940151,67.637103 5.510967,71.522516 c -2.9830755,3.884515 5.065893,4.420176 5.065893,4.420176 0,0 -3.2246124,7.394859 1.59683,6.531178 4.822393,-0.863816 96.7071,-19.251037 110.05041,-74.4565245 z"
       fill="url(#am)"
       id="path294"
       style="fill:url(#am);stroke-width:0.411499" />
    <path
       d="m 31.754997,44.474451 c 0,0 -24.9359034,26.083185 -1.788685,33.237362 -4.674612,1.22208 -17.259906,4.749471 -18.242176,3.134951 -0.982275,-1.614543 -0.205339,-5.625934 -0.205339,-5.625934 0,0 -6.1000496,-0.566058 -5.2727838,-2.544204 C 7.0737634,70.699041 16.163896,58.089441 31.754938,44.474565"
       fill="url(#al)"
       id="path296"
       style="fill:url(#al);stroke-width:0.411499" />
    <path
       d="m 41.542476,36.164262 c 0,0 -36.8995983,39.162116 0.121197,37.677906 C 52.520883,69.793674 90.340784,57.007571 108.20966,32.569405 106.15142,23.990379 93.337814,7.0110632 77.423788,16.103719 68.031928,21.817656 66.8817,30.873763 68.086675,37.120545 c 1.204977,6.246783 -5.704616,-10.489552 6.820309,-22.926799 9.993274,-3.425789 20.302203,-5.9611758 20.302203,-5.9611758 0,0 17.983493,-0.1261737 21.968033,11.8031738 -3.75402,7.003116 -13.23676,20.636889 -25.258935,28.983656 -12.022168,8.346775 -27.723743,17.603699 -53.72848,26.346459 -7.152872,2.434503 -13.645234,3.730395 -13.645234,3.730395 0,0 -27.8257887,-1.210056 10.27333,-37.661681 1.351681,-1.117253 6.726082,-5.271223 6.726082,-5.271223"
       fill="#273370"
       id="path298"
       style="stroke-width:0.411499" />
    <path
       d="m 80.619935,39.078514 c 0,0 -2.097285,-5.949797 3.361459,-10.893198 5.458734,-4.943428 11.283138,-2.883537 13.777221,-1.009212 2.494665,1.87442 6.278205,7.536002 1.294181,16.319559 -4.855582,3.986223 -22.262712,17.673388 -43.52622,25.300998 -8.272908,0.314439 -11.001718,-3.335241 -11.838415,-4.152314 3.935102,1.734422 11.582723,4.777182 22.881373,-0.79634 3.841008,-1.894951 3.604861,-1.164176 5.669704,-2.786342 13.74826,-10.797202 19.362945,-17.015519 21.665609,-22.692822 3.334368,-7.042237 1.339888,-11.432665 -3.240556,-11.447879 -4.580446,-0.01523 -7.552237,4.004925 -8.68551,6.31676 -1.133287,2.311828 -1.467733,3.989776 -1.356963,5.839637 z"
       fill="url(#ak)"
       id="path300"
       style="fill:url(#ak);stroke-width:0.411499" />
    <path
       d="m 46.501933,32.261407 c 0,0 -41.5003809,40.880521 1.878698,39.26449 C 66.51099,64.035118 73.590985,61.201719 90.251962,50.181066 98.08652,42.464765 110.92722,21.085271 89.495689,15.543122 81.879637,13.785701 64.99496,19.24103 68.085,37.122024 c -1.296946,-6.58372 0.173516,-26.060168 23.838715,-24.825877 5.278077,0.327999 17.210665,7.324286 17.689505,19.616234 -8.66208,9.694242 -23.269049,27.429151 -71.426801,43.45554 -8.418076,-0.482364 -33.4740343,1.194189 2.646331,-39.067202 3.212734,-1.954604 5.668426,-4.038853 5.668426,-4.038853"
       fill="#75ccd2"
       id="path302"
       style="stroke-width:0.411499" />
    <path
       d="M 122.2241,8.0173455 C 67.061006,-5.5102482 8.4940151,67.637103 5.510967,71.522516 c -2.9830755,3.884515 5.065893,4.420176 5.065893,4.420176 0,0 -3.2246124,7.394859 1.59683,6.531178 4.822393,-0.863816 96.7071,-19.251037 110.05041,-74.4565245 z M 14.182455,80.940227 c -4.6218968,0.828597 -1.531205,-6.25958 -1.531205,-6.25958 0,0 -7.7154157,-0.513381 -4.8550563,-4.237371 C 10.656545,66.719271 66.797348,-3.3952797 119.67018,9.5711306 106.87793,62.486766 18.804003,80.11274 14.182455,80.940227 Z"
       id="path304"
       style="stroke-width:0.411499" />
    <path
       d="M 119.91653,9.4212496 12.896854,74.531222 c 0,0 -8.4993616,14.314416 37.222158,-13.502212 L 103.75128,28.399547 c 8.27093,-5.328674 16.16564,-18.9785234 16.16564,-18.9785234 z"
       fill="url(#aj)"
       id="path306"
       style="fill:url(#aj);stroke-width:0.411499" />
  </g>
</svg>
