<?xml version="1.0" encoding="UTF-8" standalone="no"?>
<svg
   xmlns:dc="http://purl.org/dc/elements/1.1/"
   xmlns:cc="http://creativecommons.org/ns#"
   xmlns:rdf="http://www.w3.org/1999/02/22-rdf-syntax-ns#"
   xmlns:svg="http://www.w3.org/2000/svg"
   xmlns="http://www.w3.org/2000/svg"
   xmlns:sodipodi="http://sodipodi.sourceforge.net/DTD/sodipodi-0.dtd"
   xmlns:inkscape="http://www.inkscape.org/namespaces/inkscape"
   version="1.1"
   x="0px"
   y="0px"
   width="85.501167mm"
   height="123.9237mm"
   viewBox="0 0 323.15402 465.59987"
   enable-background="new 0 0 600 715.737"
   xml:space="preserve"
   id="svg594"
   sodipodi:docname="swimsuit.svg"
   inkscape:version="1.0.2-2 (e86c870879, 2021-01-15)"><metadata
   id="metadata600"><rdf:RDF><cc:Work
       rdf:about=""><dc:format>image/svg+xml</dc:format><dc:type
         rdf:resource="http://purl.org/dc/dcmitype/StillImage" /><dc:title /></cc:Work></rdf:RDF></metadata><defs
   id="defs598" /><sodipodi:namedview
   pagecolor="#ffffff"
   bordercolor="#666666"
   borderopacity="1"
   objecttolerance="10"
   gridtolerance="10"
   guidetolerance="10"
   inkscape:pageopacity="0"
   inkscape:pageshadow="2"
   inkscape:window-width="1920"
   inkscape:window-height="1017"
   id="namedview596"
   showgrid="false"
   inkscape:zoom="0.83477884"
   inkscape:cx="347.92555"
   inkscape:cy="413.67898"
   inkscape:window-x="-8"
   inkscape:window-y="-8"
   inkscape:window-maximized="1"
   inkscape:current-layer="svg594"
   units="mm"
   inkscape:document-rotation="0" />
<g
   id="colour1"
   transform="matrix(0.68203037,0,0,0.68203037,-19.967973,-15.672841)">
	<path
   fill="#dcdce3"
   d="m 201.954,66.032 c -2.63,-8.481 -3.11,-15.152 -10.065,-24.768 -2.123,-2.935 -3.493,-5.312 -6.4,-7.314 -3.503,-2.412 -6.366,-3.292 -10.332,-5.445 -7.276,-3.95 -9.531,-7.075 -25.415,-7.069 -0.25,0 -0.48,0.042 -0.702,0.088 -9.263,-0.479 -18.417,2.252 -27.4,4.12 -1.923,0.4 -3.706,0.955 -5.497,1.686 -2.113,0.862 -4.326,2.121 -6.412,3.065 -3.98,1.801 -6.971,4.904 -10.133,7.889 -6.7,6.326 -10.298,14.654 -12.871,23.707 -2.695,9.482 -3.278,20.403 -3.324,30.321 -0.014,3.015 -0.235,16.849 4.424,21.63 0.107,-2.723 2.305,-6.225 4.569,-8.845 0.824,-6.499 3.287,-9.97 4.824,-11.842 2.777,-3.385 11.216,-11.711 15.052,-13.407 9.542,-4.218 18.636,-6.388 28.138,-7.35 8.329,-0.843 24.753,-0.275 32.185,2.725 10.219,4.125 17.357,9.314 24.505,17.278 2.308,2.571 2.901,7.688 4.401,9.063 5.562,-8.468 2.916,-27.59 0.453,-35.532 z"
   id="path2" />
	<path
   fill="#eaba7f"
   d="m 247.904,378.817 c -3.613,-9.747 -8.584,-14.466 -10.901,-29.027 -1.286,-8.082 -2.196,-16.372 -4.286,-24.77 -1.089,-4.378 -2.812,-8.306 -3.985,-12.729 -1.074,-7.918 -7.712,-27.86 -8.219,-39.057 -0.557,-12.28 -3.264,-42.05 -4.132,-54.076 -0.868,-12.011 -3.052,-25.805 -6.927,-33.148 -4.779,-9.056 -32.11,-6.804 -47.651,-19.165 -0.265,-3.755 -0.642,-6.118 -0.414,-10.855 10.37,-5.501 16.919,-7.957 18.801,-11.013 0.453,-0.736 1.379,-2.525 2.458,-6.505 10.003,5.908 19.985,-11.079 17.276,-22.135 -1.365,-5.572 -7.389,-4.91 -12.983,0.802 1.949,-12.609 2.701,-26.456 -0.757,-34.583 -4.87,-3.13 -7.304,-4.732 -11.753,-6.564 -18.941,-7.8 -48.083,-2.179 -57.421,1.671 -2.116,0.873 -31.129,21.155 -28.726,41.902 0.763,6.588 4.593,17.567 20.79,15.138 6.372,12.553 16.369,18.522 15.473,18.814 -0.413,8.694 -2.237,13.437 -7.468,16.76 -9.647,0.954 -8.225,1.815 -23.014,8.791 -8.497,2.012 -16.797,1.078 -22.639,13.582 -0.453,0.97 -2.411,9.454 -4.98,21.211 -3.285,15.03 -5.833,31.279 -7.775,48.654 -6.142,17.853 -6.64,23.605 -10.401,39.941 -1.311,5.691 -2.164,10.997 -2.954,16.112 -4.237,10.031 -5.557,20.38 -7.389,30.685 -1.114,6.262 -0.396,12.933 -2.667,18.377 -4.41,10.573 -4.331,20.354 -5.438,31.608 1.009,5.591 3.842,9.683 5.651,13.667 3.966,4.318 8.735,7.063 12.91,8.211 6.597,1.814 11.088,-0.09 12.682,-6.439 0.254,-1.011 5.968,-0.776 6.15,-7.671 0.043,-1.616 3.195,-1.393 3.091,-3.063 -0.133,-2.129 2.325,-6.284 -8.156,-4.407 -0.093,-5.212 2.835,-9.354 3.41,-14.265 0.559,-4.778 -0.333,-9.201 -2.242,-14.297 -1.641,-4.379 -0.304,-8.339 0.821,-12.688 3.964,-15.336 9.69,-24.333 14.861,-41.236 -1.324,-13.7 2.336,-24.586 5.202,-34.079 2.487,-8.238 8.871,-25.369 10.877,-33.263 3.871,8.505 5.854,25.934 7.184,32.34 2.163,10.419 -1.028,30.689 -6.971,40.644 3.888,10.988 16.694,10.607 27.635,14.11 7.7,2.465 29.714,3.669 37.709,3.244 8.903,-0.474 18.258,-2.968 26.935,-5.068 12.874,-3.115 7.521,-11.546 9.259,-24.494 0.594,-4.42 8.054,23.828 13.418,44.961 7.819,12.602 5.714,10.118 7.819,18.153 0.088,4.283 -4.136,10.834 -3.787,16.344 0.879,2.975 1.234,6.605 1.487,10.063 -3.702,3.974 -0.952,8.972 -0.236,13.895 2.536,2.629 3.265,4.945 5.843,6.419 5.799,3.314 21.941,-1.821 25.948,-12.318 0.69,-2.937 -0.23,-7.641 0.054,-10.809 1.663,-5.759 1.954,-10.657 0.528,-18.375 z"
   id="path4" />
	<path
   fill="#eaba7f"
   d="m 141.75,411.692 c -0.871,-6.789 -48.625,-9.465 -54.125,-7.75 -0.821,11.202 -7.018,68.966 -3.546,99.103 -1.104,7.947 -3.285,59.249 -3.341,59.803 -0.211,1.358 -0.52,31.091 -0.492,35.425 -1.993,15.394 -2.223,15.164 -1.977,30.627 -1.22,10.291 -3.479,21.069 -7.923,30.306 -5.173,10.749 -11.842,17.698 -16.786,26.116 -5.325,2.753 -7.754,7.169 -3.024,10.665 1.221,0.207 2.969,0 4.077,-0.369 1.807,3.142 5.531,2.241 7.664,0.821 1.065,1.912 4.426,2.374 6.401,1.42 1.216,1.729 4.689,2.574 8.387,2.239 3.697,2.871 4.398,2.234 6.396,1.899 5.116,-3.588 3.767,-3.646 9.42,-6.38 3.59,-2.308 5.723,-7.275 8.66,-9.231 5.121,-3.411 9.529,-7.002 9.202,-16.75 -0.327,-9.74 -0.995,-22.068 -2.647,-33.553 -1.905,-13.24 2.091,-26.489 3.339,-39.693 1.25,-13.219 4.611,-25.594 9.414,-37.967 6.984,-17.991 3.666,-41.595 3.665,-41.588 -10e-4,-0.037 -0.452,-22.616 3.941,-36.544 4.691,-14.875 15.555,-50.985 13.295,-68.599 z"
   id="path6" />
	<path
   fill="#eaba7f"
   d="m 233.417,669.035 c -4.713,-4.299 -20.609,-18.85 -22.692,-23.271 -2.949,-6.26 -2.179,-48.801 -1.897,-67.765 0.189,-12.737 1.437,-23.581 0.908,-36.447 -0.37,-9.009 -1.971,-24.975 -0.765,-33.654 -1.071,-20.039 -1.807,-30.959 -2.773,-39.851 -1.988,-18.287 -1.536,-47.389 -3.032,-58.021 -8.148,-1.168 -41.891,-1.004 -51.74,1.94 0,8.54 1.339,16.964 2.551,25.671 2.78,19.979 8.643,39.268 13.425,63.425 5.889,15.996 3.415,22.957 0.864,31.712 -0.78,11.326 -3.001,25.953 2.309,39.512 3.26,13.976 4.65,22.956 6.186,36.091 1.251,10.699 -1.375,30.869 -3.016,43.125 -0.581,4.339 -5.89,13.493 -5.189,19.815 0.675,6.094 4.408,10.294 11.043,13.345 3.589,1.65 7.902,1.161 13.545,2.097 3.585,1.163 6.169,0.763 9.847,4.942 5.03,2.327 10.003,2.736 14.328,3.716 6.208,1.406 11.081,1.897 12.874,-1.592 1.949,0.198 5.338,0.203 7.613,-1.896 1.374,-0.222 3.199,-1.236 4.835,-1.599 1.231,-0.272 2.555,-0.229 3.861,-0.677 3.417,-0.356 4.641,0.677 6.796,-2.717 0.825,-3.262 -2.226,-6.564 -8.8,-7.474 -4.244,-3.167 -8.605,-8.168 -11.081,-10.427 z"
   id="path8" />
	<path
   fill="#eaba7f"
   d="m 102.263,282.049 c 1.576,10.903 -2.798,33.292 -6.971,40.644 13.456,8.06 16.694,10.607 27.635,14.11"
   id="path10" />
</g>
<g
   id="colour2"
   transform="matrix(0.68203037,0,0,0.68203037,-19.967973,-15.672841)">
	<path
   fill="#ce8554"
   d="m 102.608,215.567 c 0,-1.279 -1.483,-0.875 -1.546,-2.063 -0.063,-1.188 -0.188,-3.313 -1.125,-2.25 -0.625,-0.625 -2.313,-3.688 -2.563,0.313 -0.25,4.001 -2.125,5.875 -3.313,7.063 0.063,3.063 0.756,28.307 1.23,30.23 1.089,4.423 5.251,19.037 6.792,33.455 1.021,9.557 0.442,19.027 -1.331,25.386 -3.912,14.025 -3.566,10.927 -5.46,14.992 3.89,2.665 5.978,3.808 7.816,4.652 0.267,-4.152 -0.767,-13.726 -0.5,-17.564 2.017,-4.213 5.142,-11.463 6.267,-13.088 0.25,-3 -0.25,-6.697 0,-8.536 1.25,-0.964 0.875,1.286 0.625,-0.964 -0.25,-2.25 -1.75,-18.125 -1.25,-20.375 0.5,-2.25 0.383,-5.875 1.504,-5.75 1.121,-1.125 -0.874,-2.964 0,-4.5 0.996,-1.75 -2.149,-13.508 -3.129,-17.706 -0.875,-3.75 -4.017,-20.545 -4.017,-23.295 z"
   id="path13" />
	<path
   fill="#ce8554"
   d="m 178.895,90.956 c -0.901,3.636 8.966,15.87 8.714,21.718 3.839,-10.703 1.465,-29.139 -1.425,-30.431 -2.89,-1.292 -6.967,7.413 -7.289,8.713 z"
   id="path15" />
	<path
   fill="#ce8554"
   d="m 116.621,79.197 c -0.745,2.233 -5.553,12.307 -4.55,25.137 0.435,5.566 -0.04,3.306 -1.168,4.565 -1.128,1.259 -0.979,1.349 -1.277,3.165 -0.298,1.816 -2.38,3.007 -2.731,-0.604 -0.217,-2.226 2.111,-30.001 5.383,-31.614 3.272,-1.613 3.826,-1.428 5.062,-2.062 1.236,-0.634 -0.719,1.413 -0.719,1.413 z"
   id="path17" />
	<g
   id="g23">
		<g
   id="g21">
			<path
   fill="#5d5d5d"
   d="m 234.701,397.451 c 0.067,0.913 0.035,1.889 -0.325,2.742 -0.414,0.98 1.528,0.885 1.832,0.164 0.465,-1.102 0.512,-2.246 0.425,-3.424 -0.06,-0.803 -1.997,-0.355 -1.932,0.518 z"
   id="path19" />
		</g>
	</g>
	<path
   fill="#ce8554"
   d="m 124.062,494.219 c -2.796,1.025 -14.659,27.504 0.605,44.724"
   id="path25" />
	<path
   fill="#ce8554"
   d="m 100.959,520.063 c 4.041,0 10.289,-10.32 4.308,5.948 -2.79,7.589 -6.769,7.794 -7.794,7.999 -1.025,0.205 -3.833,2.942 -6.666,-4.204 -2.621,-6.61 -5.436,-13.229 1.128,-10.358 6.564,2.871 6.563,0.615 9.024,0.615 z"
   id="path27" />
	<path
   fill="#ce8554"
   d="m 202.08,511.857 c 1.376,-1.376 3.077,6.729 1.846,8.595 -1.231,1.866 -3.077,4.123 -3.282,7.404 -1.026,2.461 -8.548,12.168 -10.666,1.436 -1.23,-2.461 -2.872,-4.307 -3.282,-7.179 -1.846,-2.872 -3.283,-4.307 -3.692,-6.974 -0.409,-2.667 0.458,-5.93 5.538,0.82 2.256,2.998 2.324,2.831 3.008,4.492 2.325,-0.801 4.171,-4.082 5.607,-2.441 2.461,-1.429 3.999,-5.23 4.923,-6.153 z"
   id="path29" />
	<path
   fill="#ce8554"
   d="m 203.252,691.747 c -6.621,-12.102 -18.995,-7.957 -21.938,-6.415 2.797,0.729 9.106,0.193 10.712,0.907 1.606,0.714 7.856,1.868 9.344,3.82 1.488,1.952 1.882,1.688 1.882,1.688 z"
   id="path31" />
	<path
   fill="#ce8554"
   d="m 221.426,696.326 c 0,0 -1.912,-1.912 -2.733,-3.417 1.641,-4.786 -1.436,-2.363 -3.674,-1.162 -2.238,-0.41 -2.446,1.653 -3.821,2.367 2.55,0.516 9.707,1.692 10.228,2.212 z"
   id="path33" />
	<path
   fill="#ce8554"
   d="m 174.488,646.404 c 1.769,-1.768 5.234,-11.883 5.439,-14.14 0.205,-2.257 0.411,-14.152 0,-19.075 -0.411,-4.923 -3.216,-6.765 -3.076,-4.924 0.475,6.259 -2.238,37.175 -2.363,38.139 z"
   id="path35" />
	<path
   fill="#ce8554"
   d="m 61.125,690.317 c -5.01,-0.804 -11.619,-5.286 -2.621,-4.618 5.315,0.395 7.177,1.927 11.484,1.731 4.307,-0.196 6.359,1.661 4.718,2.887 -1.641,1.226 -4.6,1.442 -13.581,0 z"
   id="path37" />
	<path
   fill="#ce8554"
   d="m 167.487,542.792 c 1.507,-0.447 5.672,-10.013 5.365,-12.987 1.128,-1.128 1.333,-1.333 1.333,-5.436 2.461,-3.897 0,-16.409 -1.436,-17.845 -1.436,-1.436 -3.282,-5.128 -3.487,-7.179 -0.205,-2.051 -3.255,-6.83 -3.255,-4.223 0,2.632 2.608,10.036 3.229,12.165 0.621,2.129 2.109,18.843 -1.362,24.904 -0.195,7.394 -0.387,10.601 -0.387,10.601 z"
   id="path39" />
	<path
   fill="#ce8554"
   d="m 207.823,503.04 c -1.23,0.82 -2.051,8.408 -2.051,10.87 0,2.462 1.025,5.744 1.025,7.59 0,1.846 -0.82,21.946 -1.025,26.049 1.026,3.282 3.045,3.282 3.866,3.282 0.198,-2.209 0.141,-12.901 -0.116,-16.059 -0.257,-3.158 -1.22,-19.705 -1.071,-21.308 0.149,-1.603 0.557,-5.164 0.502,-6.898 -0.055,-1.734 -0.108,-3.036 -0.149,-3.813 -0.71,0.06 -0.981,0.287 -0.981,0.287 z"
   id="path41" />
	<path
   fill="#ffffff"
   d="m 115.443,108.433 c 0,6.657 4.638,12.07 10.81,12.07 5.498,0 9.955,-5.067 9.955,-12.054 0,-6.658 -2.391,-12.46 -9.955,-12.055 -5.49,0.294 -10.81,5.381 -10.81,12.039 z"
   id="path43" />
	<path
   fill="#ffffff"
   d="m 164.316,110.131 c -1.781,-9.1 4.857,-12.482 10.006,-12.482 5.148,0 8.45,5.402 8.45,11.573 0,6.171 -3.65,11.914 -8.798,11.914 -9.322,0 -8.472,-4.949 -9.658,-11.005 z"
   id="path45" />
	<path
   d="m 125.328,100.661 c -0.373,-0.131 -0.13,-0.48 1.078,-0.416 2.828,0.15 9.431,2.851 5.796,14.509 -1.428,4.581 -7.423,6.104 -11.008,3.632 -2.539,-1.75 -3.854,-4.397 -3.855,-6.183 -0.001,-3.32 -0.249,-11.237 5.82,-11.958 0.833,0.707 0.089,1.45 -0.625,2.164 -0.714,0.714 -0.927,3.487 0.506,4.849 0.925,0.879 3.645,0.137 3.893,-0.349 0.568,-1.112 0.625,-1.936 0.566,-2.982 -0.053,-0.967 -1.457,-3.016 -2.171,-3.266 z"
   id="path47" />
	<path
   fill="#ce8554"
   d="m 157.125,124.657 c -1.562,-0.493 -6.976,1.383 -8.234,3.098 -1.258,1.715 -0.286,2.353 0.484,3.027 1.84,1.613 4.935,-0.204 6.527,-2.075 1.958,-2.3 1.223,-4.05 1.223,-4.05 z"
   id="path49" />
	<path
   fill="#ce8554"
   d="m 115.895,170.289 c -1.039,0.232 -6.926,6.705 -9.77,7.744 -2.844,1.039 -5.469,0.219 -7.821,1.586 -2.352,1.367 -3.008,3.227 -1.313,3.281 1.695,0.054 3.172,-1.805 4.594,-1.914 1.422,-0.109 3.227,1.369 4.649,1.915 1.422,0.546 17.61,3.718 21.001,3.664 3.391,-0.054 10.117,-0.272 12.524,0 2.653,0.96 4.915,4.052 6.474,5.61 1.559,1.558 5.503,4.299 10.698,0.055 5.195,-4.244 -2.026,-6.637 30.444,-8.478 3.462,-0.196 2.507,-5.854 1.006,-6.212 -1.501,-0.358 -7.643,-1.713 -9.051,-2.229 -1.408,-0.516 -12.798,-5.983 -13.564,-6.542 -0.766,-0.559 -3.146,-1.674 -4.377,-2.768 -1.231,-1.094 0.891,-8.717 1.142,-10.057 -1.608,0.794 -12.051,5.308 -14.195,5.865 -2.754,0.717 -5.178,0.023 -7.434,-0.333 -2.51,-0.397 -13.531,-5.415 -15.951,-7.691 -0.549,2.657 -0.816,14.666 -9.056,16.504 z"
   id="path51" />
	<path
   fill="#ce8554"
   d="m 115.849,170.334 c -1.039,0.232 -6.926,6.705 -9.77,7.744 -2.844,1.039 -5.469,0.219 -7.821,1.586 -2.352,1.367 -3.008,3.227 -1.313,3.281 1.695,0.054 3.172,-1.805 4.594,-1.914 1.422,-0.109 3.227,1.369 4.649,1.915 1.422,0.546 17.61,3.718 21.001,3.664 3.391,-0.054 10.117,-0.272 12.524,0 2.653,0.96 4.915,4.052 6.474,5.61 1.559,1.558 5.503,4.299 10.698,0.055 5.195,-4.244 -2.026,-6.637 30.444,-8.478 3.462,-0.196 2.507,-5.854 1.006,-6.212 -1.501,-0.358 -7.643,-1.713 -9.051,-2.229 -1.408,-0.516 -12.798,-5.983 -13.564,-6.542 -0.766,-0.559 -3.146,-1.674 -4.377,-2.768 -1.231,-1.094 0.891,-8.717 1.142,-10.057 -1.608,0.794 -12.051,5.308 -14.195,5.865 -2.754,0.717 -5.178,0.023 -7.434,-0.333 -2.51,-0.397 -13.531,-5.415 -15.951,-7.691 -0.549,2.658 -0.816,14.667 -9.056,16.504 z"
   id="path53" />
	<path
   fill="#ce8554"
   d="m 151,207.442 c -0.491,1.439 1.875,23.5 2.375,25.125 0.5,1.625 4.625,4.25 4.5,-1 -0.125,-5.25 -1.375,-20.75 -1.5,-21.625 -0.125,-0.875 0.158,-2.467 -0.921,-1.671 -0.329,-1.579 -2.704,-5.954 -4.454,-0.829 z"
   id="path55" />
	<path
   fill="#ce8554"
   d="m 155.341,313.442 c -1.334,0.391 -2.591,4.189 -2.341,6.782 0.25,2.593 -0.5,6.021 0.25,7.12 0.75,1.099 4.434,5.506 6.625,-2.527 1.125,-4.125 -1,-3.375 -1.375,-5.125 -0.375,-1.75 0.682,-7.375 -3.159,-6.25 z"
   id="path57" />
	<path
   fill="#ce8554"
   d="m 195.5,310.14 c 0,-2.563 -4.764,20.232 -6.271,20.986 3.63,-1.99 6.665,-4.056 7.033,-4.598 0.368,-0.542 0.598,-2.291 0.375,-4.949 -0.223,-2.658 -1.137,-10.617 -1.137,-11.439 z"
   id="path59" />
	<path
   fill="#ce8554"
   d="m 194,291.692 c 0,-1.329 -2.25,-2.25 -2.125,-4.875 0.125,-2.625 0.482,-29.875 -0.009,-33.25 -0.491,-3.375 1.384,-8.25 2.134,-10.75 0.75,-2.5 1.035,-14.5 -1.232,-25.125 -2.267,-10.625 1.946,-7.125 1.777,-4.375 0.893,-1.313 4.706,-5.375 4.956,-0.125 0.25,5.25 0.25,18.75 -1.25,22.625 -0.73,5.008 -0.782,19.033 -1.113,22.376 1.613,3.624 1.613,5.749 1.613,7.999 0.625,1.25 0.625,13.875 0.625,16.5 0,2.625 -2.857,4.518 1.875,8.375 0.75,2.125 1,3.125 1.375,4.125 0.375,1 6.697,2.625 2.036,6.625 -0.911,5.625 -2.161,5.27 -1.911,8.322 0.25,3.052 4.333,23.471 2.964,26.596 -1.454,-3.779 -8.6,-24.451 -9.228,-26.596 C 195.859,307.994 194,292.317 194,291.692 Z"
   id="path61" />
	<path
   fill="#ce8554"
   d="m 214.219,201.714 c -0.231,-1.627 -6.909,16.91 3.374,28.944 -0.506,-4.962 -3.23,-27.929 -3.374,-28.944 z"
   id="path63" />
	<path
   fill="none"
   d="m 220.402,376.317 c -1.147,-1.125 -2.959,-13.316 4.229,-5.881 3.961,4.098 -1.802,5.227 -1.841,6.804 -0.039,1.577 -7.149,8.968 -0.327,19.422 -1.688,-1.104 -4.025,-2.188 -4.997,1.155 -0.506,-1.084 -1.34,-5.25 -1.215,-6.667 0.125,-1.417 -0.708,-5.667 0.833,-8.917 1.541,-3.25 1.833,-3.457 2.667,-4.541 0.834,-1.084 0.651,-1.375 0.651,-1.375 z"
   id="path65" />
	<path
   fill="none"
   d="m 235.5,393.317 c 0.923,-0.923 2.067,-3.865 3.5,-0.167 0.565,1.458 0.2,7.241 0.242,7.825 0.042,0.584 -4.2,4.425 -5.379,2.438 0.3,-2.786 0.97,-9.429 1.637,-10.096 z"
   id="path67" />
	<g
   id="g73">
		<g
   id="g71">
			<path
   d="m 235.355,394.726 c -0.073,1.252 0.459,2.353 0.36,3.611 -0.121,1.527 -0.842,2.667 -1.43,4.039 -0.435,1.017 1.511,0.995 1.846,0.215 0.512,-1.195 1.213,-2.259 1.441,-3.558 0.11,-0.629 0.189,-1.324 0.13,-1.961 -0.08,-0.868 -0.443,-1.605 -0.391,-2.497 0.059,-1 -1.905,-0.715 -1.956,0.151 z"
   id="path69" />
		</g>
	</g>
	<path
   fill="#ce8554"
   d="m 155.341,445.854 c 0.726,3.469 10.58,-35.556 7.026,-35.219 -0.495,0.047 -10.699,1.108 -11,1.199 -0.3,1.807 3.37,31.133 3.974,34.02 z"
   id="path75" />
	<path
   fill="none"
   d="m 186.676,409.361 c 1.908,0.839 12.49,2.036 13.357,10.197 0.867,8.161 4.628,22.24 4.628,23.787"
   id="path77" />
	<path
   fill="none"
   stroke="#ee7553"
   stroke-miterlimit="10"
   d="m 127.872,129.019 c -1.732,-1.708 -2.543,-3.854 -5.204,-4.51"
   id="path79" />
	<path
   fill="none"
   stroke="#ee7553"
   stroke-miterlimit="10"
   d="m 132.382,128.672 c -0.962,-0.288 -1.772,-2.025 -2.11,-2.745 -0.736,-0.261 -1.276,-0.871 -1.532,-1.591"
   id="path81" />
	<path
   fill="none"
   stroke="#ee7553"
   stroke-miterlimit="10"
   d="m 173.667,127.111 c -0.623,-0.614 -1.012,-1.796 -1.908,-2.255"
   id="path83" />
	<path
   fill="none"
   stroke="#ee7553"
   stroke-miterlimit="10"
   d="m 178.871,127.978 c 0.33,-1.246 -2.751,-3.904 -3.99,-3.99"
   id="path85" />
	<path
   d="m 172.496,100.793 c 1.69,0 7.917,3.433 5.938,12.716 -0.908,4.262 -4.046,6.028 -5.45,6.567 -1.404,0.539 -5.814,1.282 -7.239,-4.04 -1.425,-5.322 -0.307,-10.213 0.602,-11.82 0.909,-1.607 1.816,-3.284 2.515,-3.214 0.908,0.349 0.14,1.816 -0.279,2.445 -0.419,0.629 -0.562,3.712 1.118,5.589 0.979,1.094 3.216,-0.209 3.844,-0.908 0.628,-0.699 0.698,-2.865 0.488,-3.843 -0.21,-0.978 -0.774,-1.542 -1.383,-2.151 -0.609,-0.609 -0.853,-1.341 -0.154,-1.341 z"
   id="path87" />
	<path
   fill="#ce8554"
   d="m 135.557,454.422 c -0.544,-0.544 -16.713,-47.029 -16.713,-47.029 l -0.031,-0.006 c 11.765,3.345 22.148,2.111 22.937,4.306 2.083,5.793 -1.652,25.934 -6.193,42.729"
   id="path89" />
	<path
   fill="#ce8554"
   d="m 110.575,666.012 c 2.272,10.71 -3.846,16.242 -6.796,18.396 -2.95,2.154 -6,5.484 -8.948,9.14 -2.223,2.756 -4.332,1.965 -4.332,1.965 1.23,-2.188 8.331,-12.629 12.614,-13.571 0.513,-3.384 2.359,-9.126 3.077,-10.768 -2.154,0.615 -4.205,-0.615 -5.025,0 -0.82,0.615 -3.897,-1.437 -0.82,-3.282 3.077,-1.845 3.897,-4.39 4.245,-8 0.348,-3.61 1.291,-10.655 2.791,-11.485 -2.442,-1.847 -5.274,-11.485 -2.442,-18.255 0.063,-4 3.681,-16.714 3.681,-16.714 -1.24,5.728 -0.799,39.591 1.955,52.574 z"
   id="path91" />
	<path
   fill="#ce8554"
   d="m 243.759,679.024 c -2.696,-0.522 -5.255,0.608 -8.528,2.751 -1.309,0.654 -3.749,0.901 -4.82,1.611 -1.488,-0.54 -4.999,-2.741 -5.772,-1.254 -0.773,1.487 4.235,5.213 5.427,5.439 1.192,0.226 5.839,-0.171 5.226,-1.155 1.309,-0.535 5.177,-0.662 5.296,-1.849 1.25,-0.948 2.238,-1.066 3.172,-2.436 0.934,-1.37 3.771,-0.938 2.353,-2.046 -1.418,-1.108 -1.627,-0.92 -2.354,-1.061 z"
   id="path93" />
	<path
   fill="#ce8554"
   d="m 208.609,625.716 c -0.634,2.021 -3.189,13.377 -2.003,23.505 0.655,5.594 2.142,4.938 3.69,6.486 0.625,0.625 1.667,2.202 3.571,1.785 1.13,1.488 7.558,4.165 8.569,3.63 1.011,-0.535 1.012,-0.44 1.012,-1.023 0,-0.583 -10.295,-8.199 -11.188,-10.938 -0.893,-2.739 -3.154,-6.131 -3.095,-12.617 0.059,-6.486 -0.556,-10.828 -0.556,-10.828 z"
   id="path95" />
	<path
   fill="#ce8554"
   d="m 87.673,273.839 c -3.842,0.528 -5.944,9.112 -6.128,10.584 -0.184,1.472 -0.92,-0.736 -2.392,1.472 -1.472,2.208 -4.048,5.521 -4.417,6.809 -0.369,1.288 -2.824,4.381 -0.368,6.518 1.415,1.231 -1.745,7.128 4.697,15.203 -0.672,-6.205 1.014,-17.121 1.744,-18.777 0.684,-1.553 4.502,-14.693 4.876,-15.855 0.374,-1.162 1.988,-5.954 1.988,-5.954 z"
   id="path97" />
	<path
   fill="#ce8554"
   d="m 72.599,333.953 c -0.359,-1.396 -18.271,25.794 -13.925,28.977 -1.811,-1.326 -5.491,-2.534 -2.896,0.905 2.595,3.439 8.205,12.247 8.446,15.203 0.181,2.896 1.388,1.688 1.78,1.297 0.392,-0.391 -1.437,-7.539 -2.845,-9.516 -0.021,-3.304 0.281,-12.594 1.729,-16.154 1.448,-3.56 3.197,-10.317 4.283,-12.006 1.086,-1.689 3.779,-7.339 3.428,-8.706 z"
   id="path99" />
	<path
   fill="#ce8554"
   d="m 51.012,399.02 c -1.393,0.53 -4.826,-2.685 -5.792,-4.696 -0.966,-2.011 -2.111,-3.641 0,-5.873 2.111,-2.232 2.094,-2.183 3.016,-3.378 0.815,-1.057 2.892,-4.946 3.558,0 0.666,4.946 0.636,2.021 0.787,3.619 0.151,1.598 0.151,1.931 0.151,3.74 0,1.809 0.15,5.876 -1.72,6.588 z"
   id="path101" />
	<path
   fill="#b2b2b9"
   d="m 88.809,56.09 c 0.878,4.492 -5.146,38.167 3.586,46.868 -0.29,0.617 0.167,1.522 -0.17,2.005 -3.435,4.937 -4.399,6.956 -4.399,8.695 -2.685,-1.619 -4.33,-12.149 -4.431,-24.53 -0.092,-11.252 1.654,-23.77 5.414,-33.038"
   id="path103" />
	<path
   fill="#b2b2b9"
   d="m 197.617,52.129 c 0.351,4.261 1.667,43.389 1.615,44.103 0.367,0.833 1.939,5.037 1.963,5.735 0.8,-1.191 3.039,-7.02 3.222,-11.667 0.183,-4.647 -0.601,-17.119 -1.167,-19.347 -0.514,-2.021 -3.856,-17.523 -5.633,-18.824"
   id="path105" />
	<path
   fill="#423228"
   d="m 110.084,80.791 c -0.684,0.769 -1.563,1.194 -2.404,1.763 -0.85,0.574 -1.554,1.381 -2.338,2.04 -1.262,1.061 -2.29,2.27 -3.262,3.553 -0.027,0.021 -0.056,0.025 -0.083,0.049 -1.868,1.693 -3.933,3.547 -5.301,5.703 -0.829,1.307 -1.743,2.545 -2.493,3.901 -1.01,1.829 -0.972,3.942 -1.766,5.835 -0.271,0.645 0.391,1.222 0.964,1.266 4.043,0.309 8.877,-0.584 10.869,4.061 0.386,0.9 1.969,0.46 1.863,-0.505 -0.017,-0.154 -0.463,-2.289 0.481,-2.073 0.614,0.141 1.287,-0.29 1.266,-0.964 -0.06,-1.922 0.591,-3.601 0.684,-5.43 0.164,-3.221 -0.1,-6.619 1.027,-9.682 0.136,-0.371 0.037,-0.665 -0.161,-0.876 0.919,-2.436 0.972,-5.124 2.224,-7.429 0.528,-0.97 -0.791,-2.087 -1.57,-1.212 z"
   id="path107" />
	<path
   fill="#423228"
   d="m 185.388,82.074 c 0.083,-1.582 -11.069,-6.043 -10.958,-5.791 1.062,2.401 3.575,7.971 4.53,10.431 0.765,1.969 2.263,6.896 2.34,8.567 0.625,-1.203 3.95,-10.595 4.088,-13.207 z"
   id="path109" />
	<path
   fill="#423228"
   d="m 201.501,103.547 c -0.479,-2.518 -1.233,-5.006 -1.921,-7.475 -0.53,-1.901 -2.047,-2.561 -2.842,-4.26 -0.243,-0.521 -0.981,-0.602 -1.444,-0.316 0.044,-0.249 0.085,-0.52 0.121,-0.819 -0.504,-1.091 -2.058,-2.658 -4.678,-4.855 -1.382,-1.319 -2.775,-2.503 -3.938,-3.169 -0.576,-0.33 -0.673,0.216 -0.584,0.954 -0.11,0.915 0.469,2.06 0.635,2.344 1.522,2.598 0.936,7.852 1.041,10.771 0.122,3.403 0.036,6.577 -0.038,9.948 -0.01,0.464 0.299,0.789 0.676,0.919 -0.121,0.132 -0.233,0.269 -0.36,0.396 -0.243,0.243 -0.313,0.52 -0.28,0.78 -0.139,0.204 -0.214,0.457 -0.165,0.755 0.234,1.408 0.113,2.721 -0.438,4.031 -0.364,0.866 0.782,1.506 1.469,1.129 3.361,-1.841 8.965,-5.169 10.593,1.027 0.24,0.914 1.743,0.999 1.929,0 0.271,-1.459 0.952,-2.959 1.098,-4.391 0.265,-2.587 -0.39,-5.229 -0.874,-7.769 z m -7.243,-8.268 c 0.133,-0.719 0.325,-1.246 0.521,-1.827 -0.139,2.394 0.089,4.387 -1.518,6.797 -0.277,0.415 -0.536,0.84 -0.79,1.269 0.758,-1.888 1.344,-3.853 1.787,-6.239 z"
   id="path111" />
	<path
   fill="#ce8554"
   d="m 196.625,123.692 c -1.453,-1.172 -1.418,-11.031 -7.353,-4.085 -3.097,3.625 -1.574,2.042 -1.239,4.97 0.335,2.928 0.057,2.65 1.276,3.869 1.219,1.219 4.068,-0.441 5.192,-1.816 1.124,-1.375 4.657,-0.813 2.999,-2.642"
   id="path113" />
	<path
   fill="#423228"
   d="m 114.632,143.892 c -2.309,-2.439 -4.394,-7.027 -5.395,-9.42 -2.557,0.23 -6.874,0.821 -10.051,0.23 0.81,4.913 1.856,11.27 1.948,16.225 0.011,0.582 -0.184,0.956 -0.847,2.109 3.433,-0.909 8.23,-2.337 11.881,-3.52 -0.104,2.418 -0.341,7.241 -0.098,9.564 2.229,-1.618 5.311,-4.512 6.541,-6.83 0.768,2.443 4.109,8.889 4.489,9.862 0.312,0.8 1.696,-7.234 1.851,-8.329 -5.327,-3.372 -6.333,-4.89 -10.319,-9.891 z"
   id="path115" />
	<path
   fill="none"
   d="m 145.097,162.099 c -6.904,0.289 -11.814,-3.731 -20.553,-8.583 -7.315,-4.061 -14.772,-18.029 -14.998,-18.558 -0.235,-0.552 -3.257,-0.309 -2.301,-0.484"
   id="path117" />
	<path
   fill="#ce8554"
   d="m 107.245,134.474 c 4.795,-5.062 5.442,0.403 5.606,0.403 0.164,0 1.223,-0.181 2.188,1.149 2.245,4.481 6.098,9.434 6.344,9.68 0.246,0.246 0.82,0.82 0.984,1.531 2.584,1.303 10.992,7.546 11.921,8.477 0.929,0.931 13.728,6.203 11.503,6.454 -2.902,0.328 -14.115,-3.853 -21.368,-8.72 -9.676,-6.493 -11.953,-13.27 -13.366,-15.764 -1.819,-3.213 -2.15,-3.876 -3.812,-3.21 z"
   id="path119" />
	<path
   fill="#333554"
   stroke="#000000"
   stroke-linecap="round"
   stroke-linejoin="round"
   stroke-miterlimit="10"
   d="m 197.75,322.692 c -2.523,-0.765 0.688,1.688 -1.75,4.125 -2.438,2.437 -15.375,10.5 -35.125,11.375 -10.368,0.459 -31.5,-4.625 -40.75,-5.5 -9.25,-0.875 -23.79,-8.25 -24.833,-10 -1.042,3.25 -4.644,25.136 -4.042,38.375 -0.875,5.5 -1.75,13.959 -1.625,22.625 -1.063,7.563 -2.125,18 -2,20.25 5,-0.25 29.508,2.171 37.125,5 4.375,1.625 13.375,-0.375 17,2.75 2.125,-1.875 6.25,-7 9.625,0 2.625,0 30.875,-4 52,-1.875 0.5,-6.875 2.625,-30.323 0,-35.375 -0.063,-6.313 -1,-26.625 -3.75,-30.5 -0.125,-2.875 0.75,-6.875 0.875,-8.75 0.125,-1.875 1.375,-11.25 -2.75,-12.5 z"
   id="path121" />
	<path
   fill="#ce8554"
   d="m 101.97,116.426 c 0.294,-1.254 2.297,-2.483 -2.369,-6.295 -6.412,-5.238 -8.887,4.134 -6.727,6.295 1.131,1.131 5.73,2.262 7.413,1.131 1.683,-1.131 1.683,-1.131 1.683,-1.131 z"
   id="path123" />
	<path
   fill="#423228"
   d="m 178.567,147.117 c -0.225,0.207 -7.479,4.313 -9.502,5.834 1.183,0.879 7.888,6.121 10.013,7.553 0.085,-1.338 -0.426,-11.241 -0.511,-13.387 z"
   id="path125" />
	<path
   fill="#423228"
   d="m 167.958,153.599 c -0.384,-0.654 -5.722,2.21 -6.263,4.483 -0.19,0.797 5.497,5.704 6.326,6.56 0.091,-1.885 0.38,-10.287 -0.063,-11.043 z"
   id="path127" />
	<path
   fill="#292b47"
   d="m 90.923,363.268 c 1.736,1.139 3.328,2.231 3.139,3.854 -0.189,1.623 0.851,13.244 1.719,16.887 0.868,3.643 -0.229,4.74 -1.719,6.229 -1.49,1.489 -5.037,11.735 -6.347,13.33"
   id="path129" />
	<path
   fill="#292b47"
   d="m 164.473,409.361 c -0.425,-1.029 -1.174,-1.276 -0.694,-1.975 4.251,-6.179 5.03,-4.124 8.5,-5.744 3.47,-1.62 3.816,-2.63 2.602,-2.595 -1.214,0.035 -6.853,-0.035 -9.881,0.958 1.116,-2.518 1.468,-2.554 1.977,-3.063 0.509,-0.509 3.047,-3.047 -0.08,-3.451 -14.401,11.564 -39.025,1.271 -40.858,1.159 -1.833,-0.112 -3.914,2.292 -3.914,3.851 6.048,1.559 6.441,4.588 7.829,8.058 -1.214,0.694 -5.712,-2.475 -7.829,-0.358 -0.775,0.775 -0.704,1.264 -0.704,1.264 1.368,0.51 3.586,1.207 6.179,1.514 2.858,0.339 6.149,0.275 8.781,0.613 3.183,0.408 5.262,1.73 5.674,1.823 1.457,-1.353 5.711,-7.136 9.319,0.278 3.973,-0.498 13.201,-1.76 13.432,-1.78 0.231,-0.02 -0.333,-0.552 -0.333,-0.552 z"
   id="path131" />
	<path
   fill="#292b47"
   d="m 172.626,344.285 c -0.934,0 -0.92,2.134 -1.501,2.715 -0.581,0.581 -24.022,5.254 -28.607,-4.194 2.527,-0.602 23.863,-0.602 28.026,-0.602 4.163,0 4.336,-1.214 6.938,-1.388 2.602,-0.174 3.991,1.215 0.434,1.995 -3.557,0.78 -4.249,1.474 -5.29,1.474 z"
   id="path133" />
	<path
   fill="#292b47"
   d="m 200.644,327.922 c -1.344,-2.465 -4.947,7.857 -5.988,8.814 -1.041,0.957 -1.214,1.998 0,5.294 1.214,3.296 4.332,15.264 4.421,17.693 0.089,2.429 1.311,16.827 1.567,19.429 1.817,0.693 0.95,-0.174 1.817,0.693 -1.301,1.301 -3.3,3.123 -3.385,5.204 -0.085,2.081 -8.857,10.084 -9.848,10.593 -0.991,0.509 -3.172,3.232 0,3.952 3.172,0.72 5.315,6.481 5.08,9.384 2.301,0.366 8.34,0.401 9.066,0.384 0.726,-0.017 3.141,-31.953 0.346,-34.046 -0.346,-5.268 -1.315,-29.81 -4.096,-31.373 0.082,-2.472 1.958,-14.301 1.02,-16.021 z"
   id="path135" />
	<path
   fill="#292b47"
   d="m 94.619,325.595 c 0.462,1.541 1.82,3.251 2.847,4.792 1.027,1.541 0.375,2.76 -1.087,4.278 -1.993,2.071 -0.351,3.251 -1.086,4.962 -0.735,1.711 -3.1,2.422 -3.128,2.683"
   id="path137" />
</g>
<g
   id="lines"
   transform="matrix(0.68203037,0,0,0.68203037,-19.967973,-15.672841)">
	<path
   fill="none"
   stroke="#000000"
   stroke-linecap="round"
   stroke-miterlimit="10"
   d="m 51.31,384.613 c -0.156,2.819 0.47,15.189 0.626,16.286 0.156,1.097 4.385,5.168 5.481,5.951 1.723,0.626 4.229,1.409 4.542,-2.192 0.313,-3.601 -0.109,-9.237 1.252,-11.275 2.203,-3.299 5.324,-17.853 -2.036,-25.056"
   id="path140" />
	<g
   id="g144">
		<path
   d="m 62.12,399.762 c 1.109,-0.483 2.321,-0.602 3.507,-0.694 1.193,-0.057 2.397,-0.085 3.592,0.223 0.149,0.041 0.297,0.099 0.443,0.174 0.145,0.052 0.302,0.256 0.356,0.393 0.137,0.294 0.21,0.59 0.275,0.888 0.125,0.596 0.188,1.197 0.206,1.804 0.009,0.607 -0.003,1.219 -0.191,1.839 -0.068,0.305 -0.33,0.649 -0.56,0.825 -0.231,0.206 -0.471,0.392 -0.714,0.572 -0.998,0.701 -1.951,1.352 -3.133,1.868 -0.992,0.453 -2.053,1.111 -3.05,1.713 -1.008,0.62 -2.002,1.265 -2.964,1.945 -0.947,0.683 -1.927,1.396 -2.645,2.226 l -0.043,0.05 -0.052,0.033 c -0.524,0.332 -1.121,0.622 -1.807,0.693 -0.688,0.086 -1.399,-0.156 -1.932,-0.459 -1.111,-0.594 -1.99,-1.382 -2.915,-2.112 -1.82,-1.494 -3.575,-3.047 -5.341,-4.584 -1.745,-1.562 -3.519,-3.086 -5.314,-4.58 -0.897,-0.748 -1.81,-1.477 -2.749,-2.167 -0.934,-0.696 -1.895,-1.363 -2.949,-1.862 l 0.035,-0.094 c 2.244,0.796 4.176,2.219 6.089,3.574 1.903,1.389 3.719,2.885 5.537,4.371 1.798,1.509 3.564,3.056 5.33,4.582 1.749,1.438 3.625,3.462 5.591,1.956 l -0.096,0.083 c 0.869,-0.953 1.858,-1.619 2.847,-2.308 0.995,-0.672 2.012,-1.301 3.043,-1.905 1.054,-0.599 2.026,-1.197 3.21,-1.702 1.008,-0.416 2.063,-1.078 3.017,-1.726 0.239,-0.168 0.476,-0.341 0.694,-0.524 0.239,-0.191 0.355,-0.335 0.447,-0.611 0.176,-0.517 0.215,-1.113 0.221,-1.691 0,-0.582 -0.044,-1.17 -0.146,-1.742 -0.052,-0.284 -0.118,-0.572 -0.226,-0.821 -0.062,-0.236 -0.328,-0.326 -0.601,-0.423 -1.108,-0.318 -2.322,-0.332 -3.497,-0.305 -1.175,0.061 -2.384,0.148 -3.477,0.592 z"
   id="path142" />
	</g>
	<g
   id="g148">
		<path
   d="m 67.949,406.087 c -0.366,0.271 -0.558,0.679 -0.66,1.095 -0.108,0.418 -0.156,0.854 -0.205,1.298 -0.093,0.885 -0.2,1.813 -0.541,2.72 -0.155,0.459 -0.427,0.875 -0.739,1.247 -0.302,0.382 -0.652,0.723 -1.029,1.021 -0.756,0.597 -1.612,1.021 -2.483,1.341 -0.423,0.161 -0.908,0.29 -1.295,0.413 -0.418,0.13 -0.748,0.284 -1.135,0.495 -0.741,0.401 -1.439,0.934 -2.168,1.456 -0.726,0.526 -1.49,1.051 -2.334,1.468 -0.238,0.098 -0.376,0.198 -0.699,0.288 -0.395,0.08 -0.628,0.031 -0.897,-0.013 -0.509,-0.106 -0.945,-0.288 -1.371,-0.481 -1.677,-0.801 -3.153,-1.825 -4.627,-2.852 -1.465,-1.037 -2.893,-2.115 -4.312,-3.201 -1.42,-1.075 -2.82,-2.204 -4.256,-3.2 l -0.499,-0.388 c -0.141,-0.112 -0.331,-0.196 -0.538,-0.314 -0.407,-0.226 -0.789,-0.459 -1.171,-0.698 l -1.137,-0.712 c -0.38,-0.223 -0.748,-0.499 -1.191,-0.563 0.919,0.022 1.737,0.505 2.569,0.798 0.413,0.163 0.832,0.323 1.24,0.46 0.197,0.07 0.434,0.127 0.676,0.247 0.223,0.108 0.429,0.214 0.625,0.335 1.48,1.06 2.87,2.159 4.29,3.241 1.415,1.082 2.833,2.154 4.281,3.179 1.448,1.01 2.922,2.023 4.469,2.76 0.384,0.177 0.78,0.334 1.146,0.408 0.167,0.041 0.386,0.039 0.43,0.031 0.11,-0.017 0.36,-0.151 0.533,-0.225 0.756,-0.373 1.471,-0.859 2.188,-1.38 0.72,-0.515 1.444,-1.07 2.273,-1.521 0.203,-0.117 0.421,-0.216 0.636,-0.318 0.229,-0.092 0.474,-0.196 0.677,-0.253 0.463,-0.146 0.842,-0.244 1.253,-0.399 1.614,-0.565 3.021,-1.582 3.732,-3.071 0.419,-0.715 0.672,-1.552 0.912,-2.415 0.125,-0.431 0.244,-0.874 0.441,-1.295 0.196,-0.419 0.503,-0.815 0.916,-1.002 z"
   id="path146" />
	</g>
	<path
   fill="none"
   stroke="#000000"
   stroke-linecap="round"
   stroke-miterlimit="10"
   d="m 59.876,415.145 c -0.53,1.425 -3.549,4.977 -6.45,5.036 -2.901,0.059 -15.273,-3.561 -16.338,-5.036"
   id="path150" />
	<path
   fill="none"
   stroke="#000000"
   stroke-linecap="round"
   stroke-miterlimit="10"
   d="m 61.814,414.446 c -1.048,2.123 -3.416,5.971 -5.606,6.918 -2.19,0.947 -6.135,1.509 -14.68,-3.518 -3.178,-1.869 -3.944,-2.549 -5.387,-3.947 -1.085,-1.052 -5.799,-11.716 -6.155,-13.255 -0.356,-1.539 -0.296,-6.57 0.533,-9.116 0.829,-2.546 0.295,-17.881 4.735,-23.504 1.371,-13.673 6.187,-41.642 9.996,-49.457 1.938,-13.063 9.625,-47.25 13.375,-55.625 1.25,-12.5 5.5,-42.625 7.375,-47.375 1.875,-4.75 1.25,-32.125 19.75,-34.75 18.5,-2.625 16.625,-8.875 30.875,-10.625 4.375,-3.125 6,-2.25 8.125,-15.875"
   id="path152" />
	<path
   fill="none"
   stroke="#000000"
   stroke-linecap="round"
   stroke-miterlimit="10"
   d="m 95.875,181.442 c 4.375,0.375 11.875,0.375 16,1.75 4.125,1.375 22.25,4 27.125,2.125 4.5,2.25 5.375,4.5 5.875,5.5"
   id="path154" />
	<path
   fill="none"
   stroke="#000000"
   stroke-linecap="round"
   stroke-miterlimit="10"
   d="m 192.125,182.692 c -2.528,0.266 -4.77,1.409 -7.509,1.381 -2.24,-0.022 -4.731,0.381 -6.984,0.625 -4.428,0.481 -9.299,0.39 -13.375,2.1 -1.182,0.496 -3.269,0.763 -4.256,1.546 -0.754,0.599 -1.73,2.435 -1.875,3.347"
   id="path156" />
	<path
   fill="none"
   stroke="#000000"
   stroke-linecap="round"
   stroke-miterlimit="10"
   d="m 165.245,154.562 c -1.574,0.824 -3.245,0.88 -3.62,5.255 -0.375,4.375 -0.25,15 0,16.375"
   id="path158" />
	<path
   fill="none"
   stroke="#000000"
   stroke-linecap="round"
   stroke-miterlimit="10"
   d="m 140.625,141.817 c 3.25,-0.375 11.25,-2.75 17.5,0"
   id="path160" />
	<g
   id="g166">
		<g
   id="g164">
			<path
   d="m 156.249,125.507 c -1.335,1.063 -2.467,2.852 -2.952,4.477 -0.126,0.421 1.758,0.169 1.907,-0.332 0.466,-1.561 1.518,-3.255 2.798,-4.273 0.361,-0.288 -0.316,-0.349 -0.462,-0.338 -0.457,0.033 -0.931,0.179 -1.291,0.466 z"
   id="path162" />
		</g>
	</g>
	<g
   id="g172">
		<g
   id="g170">
			<path
   d="m 156.159,126.076 c 0.163,1.519 -1.14,2.586 -2.054,3.612 -0.315,0.354 0.267,0.523 0.512,0.524 0.463,0.002 0.966,-0.166 1.278,-0.516 1.072,-1.202 2.384,-2.377 2.196,-4.138 -0.064,-0.597 -2.007,-0.178 -1.932,0.518 z"
   id="path168" />
		</g>
	</g>
	<g
   id="g178">
		<g
   id="g176">
			<path
   d="m 136.716,100.809 c -1.772,-2.127 -2.771,-4.813 -5.681,-5.401 -2.792,-0.564 -6.504,-0.232 -9.213,0.707 -6.701,2.323 -11.166,10.575 -7.46,17.134 0.245,0.435 2.053,-0.303 1.932,-0.518 -2.776,-4.915 -0.917,-10.61 2.997,-14.195 2.495,-2.286 8.047,-3.351 11.428,-2.068 1.657,0.629 2.981,3.556 4.066,4.857 0.359,0.432 2.019,-0.411 1.931,-0.516 z"
   id="path174" />
		</g>
	</g>
	<g
   id="g184">
		<g
   id="g182">
			<path
   d="m 165.88,102.015 c 2.674,-3.137 6.035,-5.067 10.202,-3.828 2.389,0.711 4.014,2.156 5.158,4.338 1.688,3.219 2.107,8.135 0.555,11.452 -0.173,0.371 1.669,0.198 1.911,-0.319 2.406,-5.141 0.613,-13.091 -4.616,-15.682 -5.534,-2.742 -11.23,-0.243 -14.97,4.144 -0.433,0.508 1.442,0.268 1.76,-0.105 z"
   id="path180" />
		</g>
	</g>
	<path
   fill="none"
   stroke="#000000"
   stroke-linecap="round"
   stroke-miterlimit="10"
   d="m 92.875,116.067 c 0.25,-2.375 0.022,-10.15 6.72,-5.941 1.908,1.199 2.647,2.357 2.762,3.327 0.146,1.229 -0.232,2.239 -0.482,3.364 -1.625,1.25 -5.75,7.5 1.625,10.813"
   id="path186" />
	<path
   fill="none"
   stroke="#000000"
   stroke-linecap="round"
   stroke-linejoin="round"
   stroke-miterlimit="10"
   d="m 105,235.317 c -0.625,-3.375 -1.75,-15.5 -2,-18 -1.625,4.875 -7.75,32.75 -8.75,35.375 -1,2.625 -5.125,17.625 -6.375,20.625 -1.25,3 -7,22.125 -7.75,23.625 -0.25,1.875 -2,17.125 -1.125,19 0.188,2.563 -4.5,14.75 -5.625,16.375 -1.125,1.625 -2.375,7.375 -3.875,10 -1.5,2.625 -7.125,15.375 -6.25,28.656"
   id="path188" />
	<path
   fill="none"
   stroke="#000000"
   stroke-linecap="round"
   stroke-miterlimit="10"
   d="m 95.292,322.692 c 14.271,-28.129 3.953,-56.5 0,-73.833"
   id="path190" />
	<path
   fill="none"
   stroke="#000000"
   stroke-linecap="round"
   stroke-miterlimit="10"
   d="m 158.5,321.692 c -1.625,-0.875 -2.188,-2.813 -3.75,0 -1.562,2.813 0.875,5.375 1.125,6 0.25,0.625 1,-0.125 1.938,-1.063"
   id="path192" />
	<path
   fill="none"
   stroke="#000000"
   stroke-linecap="round"
   stroke-miterlimit="10"
   d="m 159.323,338.221 c 3.512,15.762 3.142,64.882 -9.858,70.757"
   id="path194" />
	<path
   fill="none"
   stroke="#000000"
   stroke-linecap="round"
   stroke-miterlimit="10"
   d="m 169.625,389.942 c -3,3 -8.25,13 -9.125,13.75 -0.875,0.75 -2.19,4.953 -9.595,4.414"
   id="path196" />
	<path
   fill="none"
   stroke="#000000"
   stroke-linecap="round"
   stroke-miterlimit="10"
   d="m 181.75,399.692 c -6.75,-0.645 -15.875,2 -21.25,4"
   id="path198" />
	<path
   fill="none"
   stroke="#000000"
   stroke-linecap="round"
   stroke-miterlimit="10"
   d="m 122.125,396.942 c 2.625,1.5 19.875,6.75 22.79,12.035"
   id="path200" />
	<path
   fill="none"
   stroke="#000000"
   stroke-linecap="round"
   stroke-miterlimit="10"
   d="m 87.625,403.942 c 0.012,3.283 -7.094,79.632 -3.546,99.103 -2.106,26.814 -4.143,65.045 -3.833,95.228 -2.246,14.549 -1.927,21.24 -1.98,31.655 C 76,641.026 75,643.859 73.167,651.526 c -1.833,7.667 -8.667,18 -10.167,20 -1.5,2 -8.167,11.167 -9.5,14 -8.833,3.167 -6.086,13.354 1.267,9.667"
   id="path202" />
	<path
   fill="none"
   stroke="#000000"
   stroke-linecap="round"
   stroke-miterlimit="10"
   d="m 59.333,688.526 c -7.333,0.5 -5.981,14.313 3.063,7.397"
   id="path204" />
	<path
   fill="none"
   stroke="#000000"
   stroke-linecap="round"
   stroke-miterlimit="10"
   d="m 65.667,689.693 c -1.858,1.351 -5.462,5.456 -1.833,8.165 2.097,0.817 3.75,0.584 5.286,-0.465"
   id="path206" />
	<path
   fill="none"
   stroke="#000000"
   stroke-miterlimit="10"
   d="m 73.333,689.693 c -2.167,0 -10.202,12.652 3.731,10.053"
   id="path208" />
	<g
   id="g214">
		<g
   id="g212">
			<path
   d="m 106.684,654.655 c 0.054,2.403 0.443,4.763 -0.156,7.126 -0.492,1.938 -1.539,3.682 -2.011,5.637 -0.089,0.369 0.885,0.22 0.967,-0.117 0.532,-2.202 1.644,-4.189 2.201,-6.385 0.525,-2.067 0.013,-4.425 -0.035,-6.519 -0.008,-0.317 -0.975,-0.125 -0.966,0.258 z"
   id="path210" />
		</g>
	</g>
	<path
   fill="none"
   stroke="#000000"
   stroke-linecap="round"
   stroke-miterlimit="10"
   d="m 141.75,411.692 c 2.878,8.849 -3.278,31.745 -6.802,44.998 -3.165,11.899 -7.975,28.734 -10.886,39.494 -0.923,4.306 -0.517,12.154 -0.127,15.572 0.231,2.028 4.177,27.469 -4.177,51.52 -8.354,24.051 -9.93,46.224 -11.139,50.635 -2.429,8.862 1.012,43.547 1.772,50.635 0.76,7.088 0.864,14.685 -5.391,19.115 -6.255,4.43 -7.9,7.797 -9.292,9.531 -1.392,1.734 -8.734,5.784 -11.013,8.063 -6.076,4.938 -15.644,-8.244 -2.152,-12.729"
   id="path216" />
	<path
   fill="none"
   stroke="#000000"
   stroke-miterlimit="10"
   d="m 107.738,515.14 c -1.11,1.913 -5.343,9.559 -5.548,10.625"
   id="path218" />
	<path
   fill="none"
   stroke="#000000"
   stroke-miterlimit="10"
   d="m 183.004,510.217 c 1.231,1.231 5.128,8.164 5.538,10.235"
   id="path220" />
	<path
   fill="none"
   stroke="#000000"
   stroke-linejoin="round"
   stroke-miterlimit="10"
   d="m 151.375,411.692 c -0.205,2.988 4.055,44.37 9.125,57.498 1.993,6.975 6.207,33.023 9.125,38.767 1.277,7.384 1.278,17.028 -1.184,24.207 -1.231,8.615 -2.051,27.075 0.615,34.665 2.666,7.59 7.178,34.463 7.794,41.437 0.616,6.974 -1.436,36.317 -3.692,46.261 -1.846,3.79 -9.025,16.916 -0.82,24.916 8.205,8 13.743,6.563 17.229,6.563 3.486,0 10,1.877 11.486,3.688 2.872,3.499 6.359,3.934 9.846,4.328 3.487,0.394 12.716,3.469 15.793,2.648 3.077,-0.821 5.948,-5.742 3.897,-8.204 -2.051,-2.462 -6.768,-5.947 -7.999,-6.769"
   id="path222" />
	<path
   fill="none"
   stroke="#000000"
   stroke-linecap="round"
   stroke-linejoin="round"
   stroke-miterlimit="10"
   d="m 232.436,684.568 c 3.692,0 11.073,9.858 -2.371,9.448"
   id="path224" />
	<path
   fill="none"
   stroke="#000000"
   stroke-linecap="round"
   stroke-linejoin="round"
   stroke-miterlimit="10"
   d="m 237.807,683.133 c 2.683,-0.466 10.671,7.772 -0.443,8.798"
   id="path226" />
	<path
   fill="none"
   stroke="#000000"
   stroke-linecap="round"
   stroke-linejoin="round"
   stroke-miterlimit="10"
   d="m 243.398,681.081 c 2.54,0.624 8.208,9.662 -1.151,9.236"
   id="path228" />
	<g
   id="g234">
		<g
   id="g232">
			<path
   d="m 173.291,660.085 c 0.612,3.408 0.108,7.452 3.311,9.679 0.231,0.161 1.067,-0.226 0.908,-0.336 -3.174,-2.207 -2.649,-6.236 -3.253,-9.603 -0.04,-0.221 -1.013,10e-4 -0.966,0.26 z"
   id="path230" />
		</g>
	</g>
	<path
   fill="none"
   stroke="#000000"
   stroke-miterlimit="10"
   d="m 203.375,409.817 c 0,4.606 1.816,27.17 1.286,33.528 -0.53,6.358 5.212,61.543 4.187,66.871 -1.025,5.328 0.041,12.104 0.123,16.719 0.082,4.615 1.61,14.982 0.744,23.028 -0.866,8.046 -1.707,74.358 -0.867,80.661 1.231,9.231 -1.447,15.876 9.641,25.229 12.399,10.46 21.014,18.832 24.332,22.357 1.695,1.802 4.092,2.101 4.65,2.048 4.791,-0.456 11.13,10.423 -1.399,9.364"
   id="path236" />
	<path
   fill="none"
   stroke="#000000"
   stroke-linecap="round"
   stroke-miterlimit="10"
   d="m 161.388,166.538 c 2.535,2.072 15.908,8.338 19.007,9.091 3.099,0.753 14.934,3.57 18.596,4.416 3.662,0.846 12.115,1.409 14.651,17.75 2.536,16.341 6.48,54.661 6.48,69.594 0,14.933 8.228,32.582 8.453,44.518 6.895,16.75 3.831,21.381 10.425,45.961 2.95,10.996 3.677,9.252 4.928,12.306 0,0 8.636,11.44 3.455,26.628 -0.06,3.752 -0.06,10.066 -0.06,11.198 -0.655,1.37 -4.109,8.936 -11.138,11.259"
   id="path238" />
	<path
   fill="none"
   stroke="#000000"
   stroke-linecap="round"
   stroke-miterlimit="10"
   d="m 245.834,404.191 c -1.132,0.357 -1.191,1.786 -1.549,2.799 -1.489,0.417 -7.386,5.421 -8.875,7.803 -2.472,1.222 -9.351,1.072 -10.78,0.953 -1.429,-0.119 -7.385,-10.304 -7.624,-11.555 -0.239,-1.251 -1.283,-11.825 5.455,-7.529"
   id="path240" />
	<path
   fill="none"
   stroke="#000000"
   stroke-linecap="round"
   stroke-miterlimit="10"
   d="m 216.863,400.006 c -0.97,0.652 -4.502,1.267 -2.119,8.891 5.123,5.718 4.824,5.004 6.254,7.267"
   id="path242" />
	<path
   fill="none"
   stroke="#000000"
   stroke-linecap="round"
   stroke-miterlimit="10"
   d="m 220.998,416.401 c 0.238,0.476 2.621,4.229 15.188,2.858"
   id="path244" />
	<path
   fill="none"
   stroke="#000000"
   stroke-linecap="round"
   stroke-miterlimit="10"
   d="m 215.161,409.361 c 0.06,1.311 0,3.644 1.251,4.896 0.685,0.686 2.025,3.395 2.263,4.169 0.238,0.774 2.085,2.085 4.586,2.264 2.501,0.179 2.382,1.729 10.84,-1.131"
   id="path246" />
	<path
   fill="none"
   stroke="#000000"
   stroke-linecap="round"
   stroke-miterlimit="10"
   d="m 239.283,383.58 c 0.06,2.442 -4.943,11.198 -5.42,19.834 -4.229,11.901 -12.927,13.043 -11.495,-1.07 0.842,-8.296 -1.277,-10.27 -2.263,-12.806 -0.834,-2.145 -1.825,-4.764 1.191,-9.944 2.409,-4.138 3.276,-4.234 4.229,-5.246"
   id="path248" />
	<path
   fill="none"
   stroke="#000000"
   stroke-linecap="round"
   stroke-miterlimit="10"
   d="m 218.496,363.268 c 0.655,2.204 3.097,9.053 3.812,10.125"
   id="path250" />
	<path
   fill="none"
   stroke="#000000"
   stroke-linecap="round"
   stroke-linejoin="round"
   stroke-miterlimit="10"
   d="m 215.815,400.582 c -0.119,-1.072 -0.417,-8.424 -1.37,-10.211 -0.953,-1.787 0.417,-6.97 1.548,-9.293 1.131,-2.323 3.336,-4.943 1.132,-11.138 -2.204,-6.195 -5.958,-12.688 -6.612,-13.76 -0.654,-1.072 -6.671,-26.685 -7.981,-28.174 -1.31,-1.489 -5.361,-16.38 -5.956,-18.227 -0.715,2.204 0,11.937 0.06,12.77"
   id="path252" />
	<path
   fill="none"
   stroke="#000000"
   stroke-linecap="round"
   stroke-linejoin="round"
   stroke-miterlimit="10"
   d="m 198.78,208.271 c -2.144,3.335 -2.218,7.267 -2.144,10.84 0.088,4.262 1.489,30.5 1.012,34.313 -0.477,3.813 -2.264,22.876 -2.383,25.021 -0.119,2.145 -1.311,25.792 1.221,31.695"
   id="path254" />
	<path
   fill="none"
   stroke="#000000"
   stroke-linecap="round"
   stroke-linejoin="round"
   stroke-miterlimit="10"
   d="m 112.271,79.848 c -1.152,3.375 -3.986,11.337 -3.698,21.339 -0.371,0.288 -0.136,0.233 -0.466,0.439 0,0.453 -0.888,2.972 0.301,5.282 -0.658,-0.453 -12.101,-6.216 -12.143,-12.596"
   id="path256" />
	<path
   fill="none"
   stroke="#000000"
   stroke-linecap="round"
   stroke-linejoin="round"
   stroke-miterlimit="10"
   d="m 103.027,87.142 c 0.083,1.399 -0.011,4.537 0.894,7.254 0.905,2.717 3.062,6.024 4.186,7.231"
   id="path258" />
	<path
   fill="none"
   stroke="#000000"
   stroke-linecap="round"
   stroke-linejoin="round"
   stroke-miterlimit="10"
   d="m 105.873,105.424 c -0.188,1.479 0.313,3.213 0,6.036 -2.744,-8.418 -12.243,-6.568 -13.478,-6.363"
   id="path260" />
	<path
   fill="none"
   stroke="#000000"
   stroke-linecap="round"
   stroke-linejoin="round"
   stroke-miterlimit="10"
   d="m 83.75,101.627 c -4.629,-72.727 37.5,-75.935 45,-77.419 0.536,-0.106 26.171,-7.476 43.167,2.235 2.309,1.319 2.996,1.995 11.25,6.083 8.917,4.417 14.25,19 14.801,20.547 2.102,5.898 6.091,19.796 6.256,22.801 0.165,3.005 1.77,20.54 -3.167,26.261 -3.087,-18.934 -29.676,-27.496 -34.656,-28.689 -4.98,-1.193 -10.7,-0.988 -18.479,-1.276 -7.779,-0.288 -18.768,1.852 -29.347,4.98 -10.579,3.128 -16.751,11.606 -20.991,15.558 -4.24,3.952 -5.187,12.39 -5.187,12.39 -1.811,1.852 -3.952,5.063 -4.569,9.055 -2.27,-2.269 -3.891,-9.588 -4.078,-12.526 z"
   id="path262" />
	<path
   fill="none"
   stroke="#000000"
   stroke-linecap="round"
   stroke-linejoin="round"
   stroke-miterlimit="10"
   d="M 204.417,90.436 C 199.702,77.748 179.315,61.098 154.25,58.442 125.497,55.396 91.529,69.246 83.892,102.958"
   id="path264" />
	<path
   fill="none"
   stroke="#000000"
   stroke-linecap="round"
   stroke-linejoin="round"
   stroke-miterlimit="10"
   d="m 126.024,24.685 c -3.281,3.061 -6.641,7.306 -8.524,12.673 -1.883,5.367 -8.319,10.335 -6.16,29.456"
   id="path266" />
	<path
   fill="none"
   stroke="#000000"
   stroke-linecap="round"
   stroke-linejoin="round"
   stroke-miterlimit="10"
   d="m 170.5,25.682 c 3.708,2.292 21.625,18.511 21.625,48.935"
   id="path268" />
	<g
   id="g274">
		<g
   id="g272">
			<path
   d="m 136.227,87.309 c -4.205,-1.1 -6.418,-4.389 -10.92,-4.404 -4.681,-0.016 -8.675,1.707 -12.435,4.392 -1.07,0.764 0.532,1.309 1.257,0.791 3.773,-2.695 9.928,-5.739 14.499,-2.993 2.301,1.382 3.775,2.739 6.464,3.442 0.765,0.2 2.289,-0.926 1.135,-1.228 z"
   id="path270" />
		</g>
	</g>
	<g
   id="g280">
		<g
   id="g278">
			<path
   d="m 186.216,88.184 c -4.037,-5.344 -16.042,-4.905 -19.211,1.394 -0.152,0.302 1.657,0.161 1.906,-0.335 2.703,-5.37 12.017,-4.984 15.373,-0.542 0.362,0.479 2.088,-0.311 1.932,-0.517 z"
   id="path276" />
		</g>
	</g>
	<path
   fill="none"
   stroke="#000000"
   stroke-linecap="round"
   stroke-linejoin="round"
   stroke-miterlimit="10"
   d="m 87.826,114.152 c 0,5.095 1.668,25.646 21.117,19.992 1.535,1.535 4.807,10.483 10.534,15.555 5.727,5.072 19.325,12.788 26.429,12.504 7.104,-0.284 27.66,-12.125 29.933,-13.451 2.273,-1.326 5.059,-2.558 6.65,-10.041 0.04,-0.188 0.081,-0.381 0.123,-0.578 1.492,-7.086 4.449,-19.767 4.689,-21.398 0.43,-2.917 10.711,-9.179 12.883,0.568 2.004,8.996 -7.312,22.018 -11.784,22.018 -2.747,0 -3.903,-0.216 -5.854,-0.881"
   id="path282" />
	<path
   fill="none"
   stroke="#000000"
   stroke-linecap="round"
   stroke-linejoin="round"
   stroke-miterlimit="10"
   d="m 196.044,123.393 c 0,-1.528 -0.264,-5.405 -1.292,-5.875 -1.028,-0.47 -2.526,-0.441 -3.819,0.264 -1.293,0.705 -2.909,2.792 -3.32,3.467 -0.411,0.675 -0.177,1.704 -0.147,2.145 0.03,0.441 0.544,0.955 0.882,1.292 0.059,0.764 0.088,3.73 -0.147,4.171 -0.235,0.441 -3.887,4.131 -4.485,4.181"
   id="path284" />
	<path
   fill="none"
   stroke="#000000"
   stroke-linecap="round"
   stroke-linejoin="round"
   stroke-miterlimit="10"
   d="m 174.322,76.104 c 1.496,2.91 6.98,14.479 6.99,19.575 1.744,-4.45 3.938,-10.947 3.938,-14.032"
   id="path286" />
	<path
   fill="none"
   stroke="#000000"
   stroke-linecap="round"
   stroke-linejoin="round"
   stroke-miterlimit="10"
   d="m 195.435,90.3 c -0.163,4.321 -2.909,15.691 -7.401,18.138"
   id="path288" />
	<path
   fill="none"
   stroke="#000000"
   stroke-linecap="round"
   stroke-linejoin="round"
   stroke-miterlimit="10"
   d="m 194.501,112.063 c -0.226,-4.324 -1.191,-11.855 -1.191,-11.855"
   id="path290" />
	<path
   fill="none"
   stroke="#000000"
   stroke-linecap="round"
   stroke-linejoin="round"
   stroke-miterlimit="10"
   d="m 185.512,81.908 c 3.368,6.064 2.521,21.867 2.521,23.624 0,1.977 -0.733,11.202 -0.733,11.202"
   id="path292" />
	<path
   fill="none"
   stroke="#000000"
   stroke-linecap="round"
   stroke-linejoin="round"
   stroke-miterlimit="10"
   d="m 201.056,102.135 c 0.489,1.467 2.339,8.179 -0.723,15.992"
   id="path294" />
	<path
   fill="none"
   stroke="#000000"
   stroke-linecap="round"
   stroke-miterlimit="10"
   d="m 99.187,134.702 c 0.635,2.44 1.754,14.529 2.202,16.544"
   id="path296" />
	<path
   fill="none"
   stroke="#000000"
   stroke-linecap="round"
   stroke-miterlimit="10"
   d="m 113.5,149.007 c -6.739,2.462 -13.212,4.029 -13.212,4.029 0,0 4.46,-7.611 5.691,-8.059"
   id="path298" />
	<path
   fill="none"
   stroke="#000000"
   stroke-linecap="round"
   stroke-miterlimit="10"
   d="m 112.071,149.517 v 9.564 c 0,0 5.605,-3.629 6.505,-6.505 0.9,2.476 2.645,6.944 4.593,9.635"
   id="path300" />
	<polyline
   fill="none"
   stroke="#000000"
   stroke-linecap="round"
   stroke-miterlimit="10"
   points="161.802,158.548 167.958,164.704    167.958,153.134  "
   id="polyline302" />
	<polyline
   fill="none"
   stroke="#000000"
   stroke-linecap="round"
   stroke-miterlimit="10"
   points="168.744,152.713 178.818,160.2    178.818,146.683  "
   id="polyline304" />
	<path
   fill="none"
   stroke="#000000"
   stroke-miterlimit="10"
   d="m 51.561,394.635 c -0.297,0 -2.191,1.429 -2.311,2.333"
   id="path306" />
	<path
   fill="none"
   stroke="#000000"
   stroke-miterlimit="10"
   d="m 48.021,394.323 c 0.157,1.409 0.313,1.565 0.94,2.349 0.627,0.784 2.801,1.859 2.833,2.348"
   id="path308" />
</g>
<g
   id="colour1_girl"
   transform="matrix(0.68203037,0,0,0.68203037,-63.967973,-15.672844)">
	<path
   fill="#dcdce3"
   d="m 503.08,112.194 c 2.517,-2.648 0.929,-4.109 1.869,-12.116 1.426,-12.136 0.764,-27.759 -6.82,-43.095 -6.656,-13.46 -14.615,-19.791 -30.804,-30.033 -2.82,-1.785 -5.714,-1.969 -9.062,-3.056 -10.561,-2.342 -20.863,-1.85 -30.146,-1.251 -22.399,1.446 -50.867,23.425 -52.681,67.3 0.551,7.249 0.551,17.398 2.628,18.252 2.085,-4.028 5.061,-21.422 24.886,-29.734 5.084,-2.132 64.375,-27.301 90.08,25.119 4.997,-0.053 8.095,-0.061 10.05,8.614 z"
   id="path311" />
	<path
   fill="#dcdce3"
   d="m 430.981,178.736 c -2.085,0 -10.594,-1.227 -15.702,5.893 -5.108,7.12 -20.051,36.529 -21.379,40.134 6.767,-3.59 12.317,-15.469 15.225,-21.321 3.223,4.793 5.532,8.899 10.036,10.938 4.504,2.039 21.519,3.059 26.707,1.671 5.188,-1.388 18.492,-6.063 21.144,-9.144 0.02,5.398 -2.638,20.417 6.791,31.369 9.429,10.952 12.909,14.724 17.168,17.761 0.404,-3.001 0.404,-3.936 0.404,-5.846 -1.407,-1.273 -9.619,-8.694 -13.226,-14.231 -3.607,-5.537 -7.017,-24.61 -5.774,-30.519 1.327,-6.311 5.458,-19.07 7.548,-24.109 1.077,-2.597 1.077,-5.431 1.077,-7.016 -0.932,-0.055 -4.202,-0.625 -5.844,-0.206 0.41,2.77 -4.199,20.21 -11.389,27.544 -7.19,7.334 -15.005,8.934 -19.651,10.113 -4.646,1.179 -18.603,-0.893 -20.354,-1.117 -4.079,-0.521 -13.538,-5.49 -10.282,-15.028 3.256,-9.538 10.771,-13.918 11.521,-14.362 0.75,-0.444 5.98,-1.531 5.98,-2.524 z"
   id="path313" />
	<path
   fill="#f8d8a5"
   d="M 493.807,103.579 C 483.06,81.611 463.675,74.192 453.73,71.758 c -5.163,-1.264 -18.432,-1.154 -22.137,-0.64 -6.704,0.93 -23.146,4.089 -27.866,7.342 -8.487,5.851 -14.468,13.789 -14.251,24.175 0.122,5.841 2.791,11.197 4.997,17.419 -16.539,-10.273 -19.239,23.779 9.96,24.852 2.137,5.961 1.939,7 6.089,9.995 4.326,3.123 8.899,4.378 13.813,6.399 4.844,1.992 13.641,4.723 18.691,6.771 2.389,0.969 9.104,-2.321 14.742,-5.14 3.465,-1.732 7.671,-2.479 10.832,-4.938 1.299,-1.01 1.81,-3.421 2.982,-4.561 2.8,-2.717 9.58,-12.352 10.1,-19.29 23.961,10.54 30.153,-34.469 12.125,-30.563 z"
   id="path315" />
	<path
   fill="#f8d8a5"
   d="m 474.5,179.543 c -4.271,-4.271 -45.002,-1.146 -49.548,2.359 -6.129,4.726 -13.107,10.052 -11.781,18.606 1.249,8.055 10.111,10.469 18.178,11.251 8.032,0.779 16.134,0.078 23.466,-3.355 3.136,-1.468 6.135,-3.336 8.385,-5.985 2.345,-2.763 4.132,-5.963 6.081,-9.042 3.784,-5.98 3.896,-8.81 5.219,-13.834 z"
   id="path317" />
	<path
   fill="#f8d8a5"
   d="m 478.894,364.222 c -7.234,3.308 -11.141,5.388 -15.646,9.194 -7.383,6.238 -13.667,13.584 -20.548,20.38 -0.119,0.117 -0.202,0.242 -0.302,0.364 -9.679,-1.255 -11.734,-7.964 -17.516,-12.42 -6.338,-4.885 -9.012,-3.959 -10.279,-5.131 -10.462,-9.673 -18.97,-9.921 -21.197,-10.975 -1.399,1.463 0,2.673 -0.347,5.494 -0.002,-0.068 -4.071,-6.216 -2.511,-6.669 0.246,-9.686 1.396,-29.892 1.358,-34.079 -0.003,-0.36 -0.02,-31.661 -0.21,-32.119 0.117,-1.489 -0.483,-52.1 -0.343,-55.77 0.026,-0.682 2.035,-15.531 2.054,-15.542 3.725,-13.683 20.356,-39.48 22.856,-43.356 -8.486,4.235 -14.618,4.063 -15.883,4.762 -5.455,1.272 -9.866,8.296 -12.143,13.085 -3.6,7.572 -4.988,39.713 -4.771,40.231 -0.059,0.258 -2.29,36.727 -2.193,37.69 -1.505,9.499 -5.386,28.25 -5.477,29.432 -0.375,4.835 -5.589,22.673 -7.506,27.781 -0.813,6.386 -3.544,19.912 -5.701,24.241 -0.869,1.742 -1.975,5.768 -1.969,6.043 -0.07,0.156 -0.798,6.176 -0.96,8.914 -0.414,7.01 -2.125,13.228 -2.004,16.819 3.308,3.139 8.007,7.491 10.54,9.722 4.74,0.471 7.912,1.212 12.18,1.278 3.077,0.047 6.645,-0.669 7.248,-1.146 0.387,0.146 4.448,0.945 5.51,-2.268 0.025,-0.015 0.223,-0.011 0.556,0.006 0.431,7.797 1.016,14.169 1.915,20.384 0.817,5.643 1.064,7.42 2.141,13.023 1.494,7.775 4.36,20.188 5.91,29.616 2.566,15.609 10.832,30.313 8.156,48.419 -0.725,4.903 3.113,-10.273 7.566,-8.427 4.134,1.714 6.025,15.05 15.067,3.317 -0.396,6.67 13.609,145.679 12.92,150.149 -1.062,6.889 -4.22,21.986 -8.733,35.367 -10.299,16.568 5.625,14.939 6.985,14.509 1.197,0.649 3.747,1.611 7.034,0 2.251,0.545 4.889,0.31 7.625,-0.919 3.162,3.427 4.199,1.105 7,0 4.968,2.771 5.277,0.961 6.399,-0.635 3.454,-10.294 9.655,-27.403 11.094,-33.584 1.807,-7.763 -2.854,-8.727 -3.358,-16.599 -0.511,-7.992 -2.493,-17.318 -4.645,-26.626 -0.169,-0.729 0.655,-15.563 0.623,-17.104 -0.696,-33.787 2.617,-38.003 4.169,-56.815 -0.007,-0.025 -1.146,-15.68 -3.298,-24.228 -0.028,-0.776 -4.042,-17.541 -4.509,-21.189 0,-8.868 7.929,-36.309 8.494,-39.746 6.577,-23.589 21.225,-75.225 19.724,-103 -3.96,-3.159 -10.927,-7.428 -23.075,-1.873 z"
   id="path319" />
	<path
   fill="#f8d8a5"
   d="m 566.314,369.858 c -1.188,-9.119 -3.249,-12.251 -3.958,-13.849 -3.231,-7.28 -4.027,-12.864 -5.744,-19.663 -2.284,-9.047 -4.549,-13.34 -7.855,-23.942 -0.641,-10.05 -6.068,-23.369 -8.128,-29.981 -2.08,-6.679 -4.841,-15.383 -8.357,-28.73 -4.372,-13.517 -8.44,-23.901 -12.182,-37.746 -6.211,-22.983 -5.896,-35.392 -38.859,-39.107 -1.938,5.781 -9.106,26.259 -9.109,31.306 -0.005,9.297 -0.662,24.563 18.469,41.485 1.064,-4.564 1.557,-6.487 2.428,-7.558 3.395,13.085 13.905,39.294 20.226,46.773 1.685,21.807 4.459,31.465 11.616,40.885 9.029,14.053 9.838,20.965 12.316,32.708 -3.785,7.812 -4.375,8.213 -6.452,12.374 0.066,0.149 0.155,17.593 -0.368,22.859 1.904,-9.53 -20.063,-6.381 -2.355,3.395 2.08,1.148 4.732,5.215 8,4.25 3.053,2.045 3.835,0.558 5.75,0.875 2.81,3.065 5.447,2.632 7.915,1.273 3.398,1.688 9.382,-2.372 10.827,-5.008 2.789,-2.68 4.082,-6.241 4.286,-8.016 0.474,-4.142 3.734,-14.221 1.534,-24.583 z"
   id="path321" />
	<path
   fill="#333554"
   d="m 475.826,240.928 c -11.688,-13.979 -8.833,-21.908 -8.814,-34.02 -7.405,5.239 -18.176,10.237 -31.255,9.963 -13.694,-0.287 -20.668,-2.163 -26.632,-13.429 -4.677,9.015 -5.079,12.224 -14.911,22.318 -2.876,14.229 -3.053,17.752 -2.735,30.278 0.44,17.364 -0.003,58.479 1.096,73.418 0.475,6.455 0.151,27.944 0.428,35.486 12.363,3.313 16.034,7.899 21.314,11.406 2.643,1.755 4.946,2.119 7.087,2.916 12.83,9.381 34.994,-0.389 38.482,-3.192 0.033,-0.026 12.231,-10.869 20.54,-13.306 5.063,-1.484 7.363,-4.577 10.65,-10.908 -5.628,-17.736 -14.032,-109.473 -15.25,-110.93 z"
   id="path323" />
</g>
<g
   id="colour2_girl"
   transform="matrix(0.68203037,0,0,0.68203037,-63.967973,-15.672844)">
	<path
   opacity="0.47"
   fill="#ce8554"
   d="m 431,129.821 c 1.527,-0.386 5.64,2.152 6.667,2.746 2.056,-0.048 2.335,1.371 1.617,1.882 -0.718,0.511 -1.69,3.338 -6.601,2.182 -1.999,-2.124 -1.683,-6.81 -1.683,-6.81 z"
   id="path326" />
	<path
   fill="#ce8554"
   d="m 493.687,122.217 c 0,2.37 0.82,1.485 3.044,2.167 3.123,-1.887 2.395,-7.888 2.395,-9.192 0,-1.304 -2.406,-6.821 -6.492,-4.833 -4.086,1.988 -2.64,5.767 -1.938,6.085 0.702,0.318 2.991,3.822 2.991,5.773 z"
   id="path328" />
	<path
   fill="#ce8554"
   d="m 440.454,95.259 c -0.544,3.476 -0.7,7.099 -0.142,10.32 -2.998,-5.659 -5.959,-12.477 -6.68,-15.254 2.062,1.539 7.007,3.754 6.822,4.934 z"
   id="path330" />
	<path
   fill="#ce8554"
   d="m 479.586,133.458 c -0.241,-1.701 -4.038,6.695 -4.43,8.336 -0.744,3.116 -9.62,15.078 -10.776,16.199 3.557,-2.412 16.782,-13.443 15.206,-24.535 z"
   id="path332" />
	<path
   fill="#ce8554"
   d="m 486.618,110.02 c -0.771,2.709 -5.196,10.977 -6.902,5.172 5.846,-4.905 6.902,-5.172 6.902,-5.172 z"
   id="path334" />
	<path
   fill="#ce8554"
   d="m 475.156,109.545 c -1.335,1.333 4.33,-0.893 5.712,-3.416 1.382,-2.523 0.867,-5.157 -0.481,-3.519 -1.348,1.638 -4.68,6.385 -5.231,6.935 z"
   id="path336" />
	<path
   fill="#ce8554"
   d="m 449,94.63 c 1.981,1.981 -4.011,-17.188 -3.368,-19.202 -0.771,-1.758 -1.489,-3.083 -1.516,-4.541 -1.696,-0.172 -5.604,0.446 -5.604,0.446 0,0 9.132,21.941 10.488,23.297 z"
   id="path338" />
	<path
   fill="#ce8554"
   d="m 388.97,124.384 c -1.915,0.905 -1.225,4.718 -2.189,5.683 -0.964,0.965 -0.642,2.808 0.967,3.014 1.609,0.206 4.348,0.961 5.378,-0.514 1.03,-1.475 2.221,-6.24 2.485,-6.995 0.264,-0.755 -3.3,-2.766 -6.641,-1.188 z"
   id="path340" />
	<path
   fill="#ce8554"
   d="m 408.757,79.709 c -2.573,1.801 -12.897,9.753 -13.265,16.761 -0.368,7.008 1.202,27.362 1.837,30.098 -1.454,-1.751 -6.324,-9.037 -5.8,-14.2 0.524,-5.163 2.987,-32.041 13.641,-34.663 10.654,-2.622 3.587,2.004 3.587,2.004 z"
   id="path342" />
	<path
   fill="#ce8554"
   d="m 416.209,97.348 c 0,1.782 -0.712,5.179 -2.412,6.683 -2.308,-2.759 -1.7,-6.776 -2.214,-6.683 -0.514,0.093 0.178,-7.813 2,-8.438 1.916,1.916 2.626,5.775 2.626,8.438 z"
   id="path344" />
	<path
   fill="#b24248"
   d="m 399.875,144.907 c -6.037,-0.309 -13.887,-6.059 -14.88,-8.835 -1.598,3.445 -4.852,9.237 -1.415,12.805 2.536,2.633 6.324,3.924 9.77,3.411 2.407,-0.359 5.55,-3.365 6.525,-7.381 z"
   id="path346" />
	<path
   fill="#b24248"
   d="m 515.743,110.359 c -2.078,-0.701 -4.121,-0.501 -6.089,0.424 -1.979,0.93 -4.788,2.778 -5.699,4.402 -1.353,9.508 -5.826,16.66 -8.678,19.222 1.93,0.316 6.994,-0.192 8.396,-2.162 1.479,-2.077 1.745,-4.774 1.804,-7.33 0.888,0.821 1.938,1.457 3.068,1.912 4.733,1.909 9.986,-1.422 11.172,-6.039 0.951,-3.699 0.176,-9.03 -3.974,-10.429 z"
   id="path348" />
	<path
   fill="#b2b2b9"
   d="m 472.74,30.474 c 17.438,19.622 13.816,55.49 15.499,64.995 2.533,3.496 4.494,7.467 4.791,8.111 1.634,0.297 9.179,-1.744 10.05,8.615 2.517,-0.415 2.517,-21.369 2.172,-30.186 C 505.1,78.108 502.931,64.245 495.231,51.711 486.118,36.876 472.74,30.474 472.74,30.474 Z"
   id="path350" />
	<path
   fill="#b2b2b9"
   d="m 394.75,39.817 c -4.81,6.62 -19.789,23.516 -18.707,51.008 10e-4,2.306 -0.056,13.242 1.332,17.305 2.086,-4.603 3.029,-7.753 3.6,-8.644 -1.354,-4.997 2.775,-40.669 13.775,-59.669 z"
   id="path352" />
	<path
   fill="#424242"
   d="m 445.557,87.116 c -2.224,-4.834 -4.182,-9.227 -7.235,-16.22 -11.276,-0.216 -25.606,3.592 -29.849,5.434 0.007,1.337 -2.135,6.854 -1.065,13.612 0.285,1.798 1.957,9.865 5.759,13.34 0.782,-2.986 -0.404,-13.348 1.016,-13.773 -0.086,4.714 6.479,11.406 15.261,15.324 4.817,2.149 7.678,2.89 11.429,3.967 -1.458,-3.708 -6.742,-16.641 -7.238,-18.476 2.2,2.109 12.217,7.607 16.353,7.02 -2.561,-5.777 -2.476,-5.977 -4.431,-10.228 z"
   id="path354" />
	<path
   fill="#424242"
   d="m 404.006,78.022 c -22.471,9.468 -26.414,27.282 -25.881,35.42 0.161,2.463 0.79,8.075 2.962,12.13 1.146,-6.728 6.778,-9.469 12.195,-6.142 -4.52,-6.05 -0.233,-31.442 10.724,-41.408 z"
   id="path356" />
	<path
   fill="#424242"
   d="m 403.353,145.211 c 0,0 0,0 -3.103,-0.301 -0.375,2.199 -3.75,6.283 -5.973,7.332 -1.284,2.851 -9.661,11.58 -11.5,16.801 -1.346,3.821 -9.527,16.9 -0.91,35.961 3.37,-8.729 1.883,-6.477 6.748,-11.61 2.481,-2.619 3.878,-3.134 6.877,-5.064 3.755,-2.417 14.841,-8.427 11.209,-35.873 -1.535,-3.148 -1.791,-3.727 -3.348,-7.246 z"
   id="path358" />
	<path
   fill="#424242"
   d="m 528.874,152.542 c -5.541,-15.017 -21.355,-26.475 -23.891,-28.158 1.35,5.558 -0.9,9.058 -5.858,10.11 0,0.677 -3.848,12.948 2.906,27.51 1.019,2.197 7.348,6.711 8.938,7.648 1.836,1.083 7.531,5.839 9.693,12.968 1.088,-7.511 -3.298,-14.451 -2.829,-14.095 0.821,0.625 12.875,9.125 10.042,24.292 8.041,-8.25 2.627,-35.863 0.999,-40.275 z"
   id="path360" />
	<path
   fill="#424242"
   d="m 467.742,77.706 c 3.193,6.308 7.156,21.895 7.008,31.236 1.531,-1.304 5.085,-4.407 6.379,-6.914 -0.172,3.338 -0.206,6.102 -1.879,13.164 1.81,-1.887 5.354,-3.901 7.75,-6.125 0.479,-1.614 1.108,-2.598 2.076,-3.292 2.165,-1.551 2.485,-1.645 3.954,-2.197 -6.563,-14.019 -21.99,-25.872 -25.288,-25.872 z"
   id="path362" />
	<path
   fill="#424242"
   d="m 490.695,135.702 c -0.624,0.018 -6.366,0 -10.442,-1.462 0.73,4.448 -3.545,13.742 -9.392,18.866 -1.966,1.723 -2.068,5.602 -2.385,7.928 2.346,-1.249 3.081,-2.196 4.813,-3.584 1.933,-1.548 4.576,-1.035 6.382,-2.726 1.579,-1.477 8.313,-5.131 11.024,-19.022 z"
   id="path364" />
	<path
   fill="#ffffff"
   d="m 421.982,114.575 c 1.254,6.617 -1.216,13.013 -7.994,14.143 -5.984,0.998 -10.515,-3.473 -11.769,-10.09 -1.254,-6.616 0.737,-13.305 6.699,-14.435 5.961,-1.13 11.811,3.766 13.064,10.382 z"
   id="path366" />
	<path
   fill="#ffffff"
   d="m 470.941,106.148 c 1.254,6.617 -2.604,12.691 -8.522,14.026 -6.238,1.407 -11.467,0.238 -13.419,-8.396 -1.485,-6.568 -0.038,-14.896 7.865,-15.951 6.442,-0.858 12.823,3.705 14.076,10.321 z"
   id="path368" />
	<path
   opacity="0.53"
   fill="#ce8554"
   d="m 484.05,127.361 c 0.771,-1.423 4.584,2.647 5.825,3.196 -1.071,0.934 -5.275,0.361 -5.825,-3.196 z"
   id="path370" />
	<path
   fill="#dc9f74"
   d="m 433.059,164.813 c 1.396,3.037 3.239,13.142 -1.434,16.005 -5.493,3.365 -6.373,3.086 -11.344,4.439 -2.786,2.603 -4.127,4.357 -4.971,5.959 -0.844,1.602 15.547,2.737 17.217,5.811 1.67,3.074 14.275,2.697 16.973,0 2.698,-2.697 17.47,-6.929 20.742,-7.526 2.946,-4.968 5.902,-14.205 4.508,-15.406 -2.195,-0.206 -8.303,1.723 -5.604,-19.606 -5.739,4.5 -17.1,11.112 -19.646,12.037 -2.546,0.925 -6.152,1.902 -8.696,0.924 -2.544,-0.978 -7.745,-2.637 -7.745,-2.637 z"
   id="path372" />
	<path
   fill="none"
   d="m 481,178.736 c 1.894,0.549 10.374,2.515 7.933,7.956 -3.754,0.195 -10.165,1.167 -11.507,1.167 0,-1.027 3.574,-9.123 3.574,-9.123 z"
   id="path374" />
	<path
   fill="#b2b2b9"
   d="m 475.156,176.84 c -0.004,-0.127 0.265,0.025 0.41,0.042 1.654,0.195 4.38,0.801 5.162,1.583 0.851,0.851 -3.945,7.977 -4.038,10.438 -1.763,0.404 -2.918,0.404 -5.231,0.404 0.49,-1.514 3.751,-10.886 3.697,-12.467 z"
   id="path376" />
	<path
   fill="#b2b2b9"
   d="m 424.294,181.969 c -2.045,0.4 -7.887,1.431 -8.152,1.798 -0.75,1.048 -5.182,7.862 -5.445,8.295 1.916,0.714 2.799,0.797 3.771,0.755 1.322,-3.219 9.826,-10.848 9.826,-10.848 z"
   id="path378" />
	<path
   fill="#b2b2b9"
   d="m 477.426,234.419 c -0.672,-1.669 -2.868,1.272 -3.131,4.547 2.179,2.842 13.57,15.58 16.676,17.072 0.276,-2.344 0.532,-3.102 0.404,-5.846 -2.622,-2.247 -13.117,-13.705 -13.949,-15.773 z"
   id="path380" />
	<path
   fill="#242642"
   d="m 472.813,237.287 c 0,-3.068 -0.967,4.307 -2.509,5.721 -1.542,1.414 -5.781,15.675 -6.167,16.703 1.028,1.414 1.156,0.643 1.413,2.698 0.257,2.055 3.797,22.72 0,31.351 -1.413,3.212 0.385,4.882 0.257,5.91 -0.128,1.028 -1.156,9.25 3.598,13.747 4.754,4.497 18.63,34.561 15.996,45.225 -2.376,1.156 -3.403,3.069 -2.376,3.526 1.919,-0.451 12.439,-3.761 19.699,3.499 -0.406,-7.652 -5.21,-31.407 -6.729,-35.967 -1.495,-4.486 -7.777,-22.537 -9.667,-24.357 -1.89,-1.82 -5.962,-11.971 -3.988,-21.34 1.691,-8.029 2.277,-9.991 3.602,-13.311 1.325,-3.32 5.502,-12.031 3.927,-14.654 -1.765,-2.211 -17.056,-17.019 -17.056,-18.751 z"
   id="path382" />
	<path
   fill="#dc9f74"
   d="m 486.107,217.442 c -2.184,1.028 -2.592,1.927 -2.709,4.24 -1.273,1.799 -2.373,1.927 -2.466,2.955 -0.479,0.643 -1.249,2.185 -1.249,3.727 -0.899,1.413 -0.644,1.798 -1.028,2.698 -1.156,-0.899 -3.536,-2.679 -3.499,-2.734 0.668,5.208 10.101,17.549 15.601,21.303 0.618,-2.878 1.978,-6.858 1.978,-8.987 -0.901,-2.814 -6.628,-23.202 -6.628,-23.202 z"
   id="path384" />
	<path
   fill="#dc9f74"
   d="m 516.939,204.364 c -0.767,2.158 -2.252,15.467 5.493,21.79 -1.268,-4.756 -5.493,-21.79 -5.493,-21.79 z"
   id="path386" />
	<path
   fill="#dc9f74"
   d="m 532.26,343.673 c 2.411,1.735 8.155,11.534 7.037,13.737 -1.118,2.203 -0.559,3.038 -2.244,3.329 -0.562,-2.552 -4.249,-15.909 -4.793,-16.487"
   id="path388" />
	<path
   fill="#dc9f74"
   d="m 530.075,388.143 c -1.956,0.043 -6.979,0.386 -3.407,3.8 2.616,2.5 2.616,2.5 3.832,2.5 0,-2.781 -0.425,-6.3 -0.425,-6.3 z"
   id="path390" />
	<path
   fill="#dc9f74"
   d="m 481.866,362.716 c 17.987,2.487 12.977,40.496 14.262,52.927 3.369,-17.384 6.933,-46.485 6.597,-49.976 -4.028,-2.275 -9.552,-7.225 -20.859,-2.951 z"
   id="path392" />
	<path
   fill="#dc9f74"
   d="m 431.245,388.338 c 4.954,7.36 6.938,29.108 8.047,34.286 0.482,-4.204 3.958,-27.912 3.958,-29.182 -2.625,0 -9.683,-2.782 -12.005,-5.104 z"
   id="path394" />
	<path
   fill="#242642"
   d="m 422.509,379.567 c -2.016,0 -1.366,-5.799 2.698,-2.427 10.168,8.437 15.551,5.484 34.694,-1.328 -4.112,5.06 -13.513,11.189 -16.651,17.63 -6.002,0 -11.536,-5.073 -14.187,-7.865 -2.651,-2.792 -5.92,-6.01 -6.554,-6.01 z"
   id="path396" />
	<path
   fill="#dc9f74"
   d="m 392.042,307.247 c 2.093,-2.093 -2.292,17.602 -2.549,19.529 -0.257,1.927 -4.24,9.122 -4.497,13.234 -1.998,4.112 -2.968,3.774 -2.704,5.742 0.264,1.968 -1.664,1.454 -2.82,1.71 -1.156,0.256 0.129,3.983 0,4.754 -1.745,0.419 -7.581,0.514 -0.918,3.104 -1.267,1.624 -1.266,2.608 -1.138,4.185 0.128,1.577 -1.126,2.831 -1.977,3.682 -0.851,0.851 -3.262,1.493 0,7.146 3.262,5.653 3.544,2.697 4.623,9.379 3.097,1.452 10.029,0.873 13.565,4.696 -0.065,-6.237 -0.708,-12.421 -0.631,-14.153 0.077,-1.732 -2.992,-2.884 -1.709,-7.585 1.283,-4.701 0.226,-54.894 0.755,-55.423 z"
   id="path398" />
	<path
   fill="#dc9f74"
   d="m 398.518,366.524 c -1.746,1.189 -3.37,0.681 -3.756,1.73 -0.386,1.049 -0.854,4.519 -1.134,5.161 -0.631,-3.161 -0.523,-8.191 0,-8.213 0.523,-0.022 4.89,1.322 4.89,1.322 z"
   id="path400" />
	<path
   fill="#dc9f74"
   d="m 368.197,379.454 c -0.675,1.928 -1.004,7.452 1.409,10.407 1.899,0.257 0.614,1.064 0.679,-1.523 0.065,-2.587 -2.088,-8.884 -2.088,-8.884 z"
   id="path402" />
	<path
   fill="#242642"
   d="m 392.128,238.365 c 0.505,-2.698 2.506,12.217 3.533,12.927 1.027,0.71 2.055,4.324 1.541,5.151 -0.514,0.827 1.157,7.123 1.157,9.307 0,2.184 1.028,1.799 0,3.854 0,1.275 -0.732,7.409 -0.769,13.108 -0.033,5.209 0.621,9.949 0.769,12.46 0.188,3.2 -0.515,4.24 -0.771,5.396 -0.256,1.156 0.258,4.288 0.129,5.549 -0.129,1.261 -5.052,25.157 -5.143,26.572 -0.017,-4.375 -1.098,-90.836 -0.446,-94.324 z"
   id="path404" />
	<path
   fill="#dc9f74"
   d="m 398.816,213.33 c -0.843,-1.028 -3.622,-2.827 -2.811,6.167 1.267,-2.35 2.811,-6.167 2.811,-6.167 z"
   id="path406" />
	<path
   fill="#dc9f74"
   d="m 434.722,504.981 c -5.996,4.542 -4.387,9.608 -13.636,-0.964 -3.913,-4.473 -5.744,-2.1 -9.686,7.609 -3.942,9.709 -1.817,39.967 4.078,54.374 5.895,14.407 7.033,24.972 7.639,26.518 0.606,1.546 -5.579,21.287 -2.936,29.896 1.875,6.105 2.218,4.571 3.265,12.131 1.047,7.56 2.268,31.952 2.592,36.428 0.324,4.476 4.772,4.95 8.587,3.531 2.886,0.944 7.035,0.414 8.211,-0.821 1.176,-1.235 5.316,-12.675 6.367,-14.513 1.051,-1.838 2.889,-9.714 3.938,-11.026 -0.263,-2.888 -3.413,-22.841 -3.413,-23.629 0,-0.788 1.313,-3.151 0,-5.776 -1.313,-2.625 -3.414,-7.219 -3.729,-10.326 -0.315,-3.107 -4.882,-43.699 -5.549,-49.259 -0.667,-5.56 -6.82,-50.05 -5.728,-54.173 z"
   id="path408" />
	<path
   fill="#dc9f74"
   d="m 478.784,483.712 c -2.014,2.445 -3.589,4.02 -5.558,5.989 -1.969,1.969 -1.444,9.846 -1.707,10.896 -0.263,1.05 -4.988,9.156 -0.263,7.876 0,4.201 -0.188,9.788 5.334,11.937 -1.057,-3.637 -2.938,-15.072 -1.997,-18.099 0.941,-3.027 4.191,-18.599 4.191,-18.599 z"
   id="path410" />
	<path
   fill="#dc9f74"
   d="m 462.593,503.484 c 1.838,-1.575 6.573,-4.2 2.889,5.251 -0.983,2.523 -0.787,6.826 -1.838,8.401 1.05,3.413 1.049,9.453 -1.051,11.29 -2.1,1.837 -6.302,3.412 -6.826,5.25 -0.524,1.838 -1.575,0.787 -4.594,-2.231 -3.019,-3.018 -3.02,-8.008 -5.12,-9.058 -2.1,-1.05 -0.788,-5.776 -2.101,-7.352 -1.313,-1.576 -0.818,-4.956 4.727,-0.524 3.937,-2.363 13.914,-11.027 13.914,-11.027 z"
   id="path412" />
	<path
   fill="#dc9f74"
   d="m 478.199,586.437 c -1.954,7.359 -9.415,30.081 0.288,47.873 -3.213,-10.829 -0.288,-47.873 -0.288,-47.873 z"
   id="path414" />
	<path
   fill="#dc9f74"
   d="m 467.779,695.807 c -1.111,-0.236 -8.223,-0.85 -9.303,-0.423 -1.785,0.705 -3.023,0.768 -3.975,0.163 -0.952,-0.605 -5.013,-0.686 -5.963,0.133 -0.647,-0.176 -1.563,-0.542 -2.203,-1.083 -1.404,-1.188 -9.115,0.951 -0.907,3.975 0.203,0.075 1.383,-0.819 3.5,0.563 2.117,1.382 3.877,1.037 4.509,0.95 0.632,-0.087 5.952,1.222 7.196,0.886 1.38,-0.373 4.577,-1.016 7.146,-0.886 1.239,-0.001 7.099,-2.768 0,-4.278 z"
   id="path416" />
	<path
   fill="#dc9f74"
   d="m 480.41,685.853 c -2.273,3.343 -9.661,9.996 -4.995,13.539 1.431,-4.076 5.082,-12.804 4.995,-13.539 z"
   id="path418" />
	<path
   fill="#dc9f74"
   d="m 478.935,636.403 c -1.06,3.039 -2.874,12.914 -1.779,19.914 -0.28,1.25 -2.03,3.375 1.332,4.5 0.5,0.875 1.193,2.731 2.781,2.856 1.588,0.125 0.556,11.886 -0.731,21.519 2.158,-5.606 4.238,-12.47 4.456,-14.219 0.218,-1.749 0.104,-7.82 -1.757,-10.176 -1.861,-2.356 -2.825,-20.48 -4.302,-24.394 z"
   id="path420" />
</g>
<g
   id="lines_girl"
   transform="matrix(0.68203037,0,0,0.68203037,-63.967973,-15.672844)">
	<path
   fill="none"
   stroke="#000000"
   stroke-miterlimit="10"
   d="m 376.834,105.733 c -0.593,-2.927 -1.437,-13.127 0,-15.588 0.064,-0.11 10.666,-30.151 56.611,-33.023 18.019,-1.126 32.976,4.894 40.611,7.589 3.461,1.222 18.358,8.512 30.767,34.254 -0.41,8.615 0.205,7.589 0,9.64 -0.205,2.051 -1.025,2.872 -1.743,3.589 -0.718,0.717 0.719,-9.538 -10.05,-8.615 -2.709,-5.323 -9.759,-18.822 -28.613,-28.203 -19.007,-9.456 -57.784,-4.251 -74.661,11.691 -10.029,9.474 -10.871,19.896 -11.691,21.126 -0.616,-0.409 -0.896,-0.807 -1.231,-2.46 z"
   id="path423" />
	<path
   fill="none"
   stroke="#000000"
   stroke-miterlimit="10"
   d="m 376.078,94.269 c -3.911,-16.313 8.756,-45.968 18.806,-54.992 16.196,-14.543 22.5,-19.747 63.38,-15.383 7.589,0.81 10.484,4.392 15.162,6.974 27.501,15.178 34.789,47.191 31.397,68.097"
   id="path425" />
	<path
   fill="none"
   stroke="#000000"
   stroke-miterlimit="10"
   d="M 398.563,36.002 C 396.631,39.89 384.528,58.25 387.142,75.428"
   id="path427" />
	<path
   fill="none"
   stroke="#000000"
   stroke-miterlimit="10"
   d="m 458.264,23.894 c 9.999,9.691 13.219,31.474 15.793,40.817"
   id="path429" />
	<path
   fill="none"
   stroke="#000000"
   stroke-miterlimit="10"
   d="m 403.656,144.907 c -17.581,0.209 -22.104,-13.743 -22.925,-19.691 -2.872,-5.333 -2.667,-13.125 -2.667,-17.022"
   id="path431" />
	<path
   fill="none"
   stroke="#000000"
   stroke-miterlimit="10"
   d="m 393.696,120.3 c -4.365,-4.265 -12.337,-2.988 -12.474,7.445"
   id="path433" />
	<path
   fill="none"
   stroke="#000000"
   stroke-linecap="round"
   stroke-miterlimit="10"
   d="m 386.78,130.067 c 0.595,-3.375 -0.03,-9.375 9.095,-5.25 -1.875,5.25 -1.685,6.242 -1.875,7.875 -0.422,3.625 4.555,4.125 7.375,5"
   id="path435" />
	<path
   fill="none"
   stroke="#000000"
   stroke-linecap="round"
   stroke-miterlimit="10"
   d="m 431,142.567 c 1.875,1 9.875,4.25 17.125,-3.125"
   id="path437" />
	<path
   fill="none"
   stroke="#000000"
   stroke-linecap="round"
   stroke-miterlimit="10"
   d="m 420.25,109.192 c -1.25,-1.75 -5.75,-7.625 -13.25,-5 -7.5,2.625 -5.5,14.5 -4.625,16.75"
   id="path439" />
	<path
   fill="none"
   stroke="#000000"
   stroke-linecap="round"
   stroke-miterlimit="10"
   d="m 413,92.067 c -2.875,-1 -14.75,-4.331 -17.875,6.897"
   id="path441" />
	<path
   fill="none"
   stroke="#000000"
   stroke-linecap="round"
   stroke-miterlimit="10"
   d="m 449,87.442 c 1.625,-1.5 11.875,-9.125 24,2.5"
   id="path443" />
	<path
   fill="none"
   stroke="#000000"
   stroke-linecap="round"
   stroke-miterlimit="10"
   d="m 493.03,103.579 c -1.134,1.134 -5.78,1.863 -6.03,5.488 -1.625,1.5 -7.75,6.125 -7.75,6.125 0,0 2.25,-9.875 1.875,-14.125"
   id="path445" />
	<path
   fill="none"
   stroke="#000000"
   stroke-linecap="round"
   stroke-miterlimit="10"
   d="m 483.514,89.559 c -0.5,2.492 -0.014,13.384 -8.764,19.384 -0.375,-5.5 -2.375,-22.75 -7.425,-32.035"
   id="path447" />
	<path
   fill="none"
   stroke="#000000"
   stroke-linecap="round"
   stroke-miterlimit="10"
   d="m 438.247,70.681 c 0.378,1.387 11.503,25.637 12.003,26.637 -1.375,0.375 -14.691,-2.75 -17.566,-8.875"
   id="path449" />
	<path
   fill="none"
   stroke="#000000"
   stroke-linecap="round"
   stroke-miterlimit="10"
   d="m 427.5,74.192 c 0.625,2.625 11.125,30.375 13.875,34.75 -2,-0.625 -24.976,-5.792 -27.5,-19.75 -2.125,-11.75 -0.778,-13.833 -0.278,-14.708"
   id="path451" />
	<path
   fill="none"
   stroke="#000000"
   stroke-linecap="round"
   stroke-linejoin="round"
   stroke-miterlimit="10"
   d="m 408.532,76.156 c -0.782,2.162 -4.532,16.582 4.843,27.372 0,-4.085 0.212,-13.463 0.222,-15.946"
   id="path453" />
	<path
   fill="none"
   stroke="#000000"
   stroke-linecap="round"
   stroke-linejoin="round"
   stroke-miterlimit="10"
   d="M 404.063,77.956 C 401,81.567 392.7,88.005 391.438,113.38"
   id="path455" />
	<path
   fill="none"
   stroke="#000000"
   stroke-linecap="round"
   stroke-linejoin="round"
   stroke-miterlimit="10"
   d="m 503.08,112.194 c 0,2.204 1.786,5.713 -2.705,15.279 -5.811,12.375 -16.125,7.72 -20.125,6.47 0.375,15.5 -18.375,27 -28.25,31.5 -9.875,4.5 -9.625,2.125 -14.25,0.875 -4.625,-1.25 -26.125,-9 -29.75,-12.75 -3.625,-3.75 -4.5,-9.375 -4.911,-11.25 -0.411,-1.875 -1.589,-9.875 -5.964,-16.25 -4.375,-6.375 -5.5,-10.625 -5.688,-12.688 -1.438,-1.438 -2.813,-2.813 -5.313,-8.688 -1,-5 1,-12 1.216,-15.134"
   id="path457" />
	<path
   fill="none"
   stroke="#000000"
   stroke-linecap="round"
   stroke-linejoin="round"
   stroke-miterlimit="10"
   d="m 499.125,115.192 c -0.5,-2 -3.375,-10 -9.25,-2.5"
   id="path459" />
	<path
   fill="none"
   stroke="#000000"
   stroke-linecap="round"
   stroke-linejoin="round"
   stroke-miterlimit="10"
   d="m 499.125,115.192 c -0.5,-2 -2.835,-9.544 -9.25,-2.5 -1.125,2.75 1,3.5 1.875,4.375 0.875,0.875 2.811,4.207 0.655,5.729 -2.156,1.522 -4.999,2.521 -6.265,3.271"
   id="path461" />
	<path
   fill="none"
   stroke="#000000"
   stroke-linecap="round"
   stroke-linejoin="round"
   stroke-miterlimit="10"
   d="m 474.75,156.317 c 3.375,0.125 12.413,-3.577 15.945,-20.615"
   id="path463" />
	<path
   fill="none"
   stroke="#000000"
   stroke-linecap="round"
   stroke-linejoin="round"
   stroke-miterlimit="10"
   d="m 482.734,144.146 c -0.734,3.172 -2.398,8.165 -7.984,12.172 -5.75,4.125 -5.353,4.477 -6.353,6.102"
   id="path465" />
	<path
   fill="none"
   stroke="#000000"
   stroke-linecap="round"
   stroke-linejoin="round"
   stroke-miterlimit="10"
   d="m 432.522,164.627 c 0.978,1.94 4.353,11.065 -0.897,16.19"
   id="path467" />
	<path
   fill="none"
   stroke="#000000"
   stroke-linecap="round"
   stroke-linejoin="round"
   stroke-miterlimit="10"
   d="m 425.75,180.817 c 3,-0.25 3.867,-0.415 7.309,-1.833"
   id="path469" />
	<path
   fill="none"
   stroke="#000000"
   stroke-linecap="round"
   stroke-linejoin="round"
   stroke-miterlimit="10"
   d="m 503.431,115.503 c 15.319,-15.436 20.444,5.439 13.819,9.689 -1.284,0.824 -9.412,6.521 -14.331,-4.74"
   id="path471" />
	<path
   fill="none"
   stroke="#000000"
   stroke-linecap="round"
   stroke-linejoin="round"
   stroke-miterlimit="10"
   d="m 494.5,134.407 c 3.125,-0.125 13.322,1.212 10.366,-10.523"
   id="path473" />
	<path
   fill="none"
   stroke="#000000"
   stroke-linecap="round"
   stroke-linejoin="round"
   stroke-miterlimit="10"
   d="m 499.125,134.24 c -0.875,4.375 -3.25,18.39 3.794,29.121 3.327,5.069 15.956,7.456 18.081,21.206 -0.912,-9.875 0,-9.875 -4.252,-17.123"
   id="path475" />
	<path
   fill="none"
   stroke="#000000"
   stroke-linecap="round"
   stroke-linejoin="round"
   stroke-miterlimit="10"
   d="m 508.276,126.754 c 2.486,2.752 22.224,15.313 23.599,39.688 1.375,24.375 -2.625,25 -4,26.375 0.813,-6.563 1.125,-14.243 -10.5,-24.747 -11.625,-10.504 -12.432,-17.628 -11.778,-19.753"
   id="path477" />
	<path
   stroke="#000000"
   stroke-miterlimit="10"
   d="m 430.098,130.557 c -0.875,0.886 -0.025,1.276 0.6,2.901 0.625,1.625 1.9,1.04 2.4,0.95 0.5,-0.09 0.871,-0.591 -0.129,-1.84 -1,-1.249 -1.382,-2.011 -2.871,-2.011 z"
   id="path479" />
	<path
   fill="none"
   stroke="#000000"
   stroke-miterlimit="10"
   d="m 384.995,136.072 c -2.87,3.37 -5.117,11.21 0.852,14.842 6.415,3.903 13.171,-0.136 14.028,-6.187"
   id="path481" />
	<path
   fill="none"
   stroke="#000000"
   stroke-miterlimit="10"
   d="m 406.645,151.905 c 0.5,5.125 2.918,21.225 -4.707,30.725 -5.959,7.424 -10.936,5.938 -18.357,16.813"
   id="path483" />
	<path
   fill="none"
   stroke="#000000"
   stroke-linecap="round"
   stroke-miterlimit="10"
   d="m 394.441,151.905 c -2.199,5.162 -25.941,24.912 -12.313,53.662 0.996,-3.875 1.246,-9.125 6.871,-16.375 5.625,-7.25 14.75,-13.961 13,-25.293"
   id="path485" />
	<path
   fill="none"
   stroke="#000000"
   stroke-linecap="round"
   stroke-linejoin="round"
   stroke-miterlimit="10"
   d="m 425.75,180.817 c -2,1.875 -15.536,9.818 -12.125,22 1.75,6.25 10.75,8.25 14.125,8.625 3.375,0.375 11.375,0.875 14.375,0.625 3,-0.25 16.271,-3.158 21.25,-9.875 9.581,-12.928 11.201,-20.898 11.781,-27.5 -2.26,-0.25 -5.656,-2 -6.156,-4.5 -0.5,-2.5 -0.625,-0.375 -0.625,-6.5 0,-6.125 1.375,-7.875 2.353,-10.586"
   id="path487" />
	<path
   fill="none"
   stroke="#000000"
   stroke-linecap="round"
   stroke-linejoin="round"
   stroke-miterlimit="10"
   d="m 431.625,179.558 c -2.725,-1.517 -8.375,-1.509 -14.625,3.063 -5.25,6.822 -11.375,18.322 -12.75,20.447 -1.375,2.125 -10.375,20.75 -11.125,23.875 4.25,-4.625 7.75,-8.25 10.125,-12.25 2.375,-4 4.125,-8.5 5.875,-11.25 1.938,1.813 4.625,9.75 11.563,11.438 6.938,1.688 17.063,2.563 22.563,1.688 5.5,-0.875 19.5,-4.875 23.75,-10.375 0.125,6.25 -0.125,14.875 0,17.75 0.125,2.875 4.625,16.625 24.375,32.5 0,-4.375 -0.625,-3 0,-6.25 -2.25,-1.25 -10.875,-11.125 -12.625,-13.25 -1.75,-2.125 -8.375,-20.125 -6.375,-31.5 2,-11.375 6.125,-22 7.375,-24 1.25,-2 1.25,-5.75 1.25,-7.125 -1,-0.125 -7.141,-0.118 -8.445,-0.43"
   id="path489" />
	<path
   fill="none"
   stroke="#000000"
   stroke-linecap="round"
   stroke-linejoin="round"
   stroke-miterlimit="10"
   d="m 492.734,240.644 c -0.238,1.011 -1.95,7.982 -1.747,9.295"
   id="path491" />
	<path
   fill="none"
   stroke="#000000"
   stroke-linecap="round"
   stroke-linejoin="round"
   stroke-miterlimit="10"
   d="m 485.401,251.292 c -1,6.75 -4.151,22.151 -5.651,32.151 -1.5,10 -3,10.75 -2,16.25 3.25,5.5 18.969,35.5 14.984,61.25"
   id="path493" />
	<path
   fill="none"
   stroke="#000000"
   stroke-linecap="round"
   stroke-linejoin="round"
   stroke-miterlimit="10"
   d="m 394.504,225.446 c -1.754,7.246 -2.754,10.246 -3.004,27.996 -0.25,17.75 1.504,108 1.502,111.5 4.248,0.75 13.56,4.079 20.074,10.5 2.376,2.342 4.924,1.5 8.799,4.125 3.875,2.625 3.875,2.375 6.375,5.125 2.5,2.75 8,8.75 15,8.75 4.75,-6 38,-46.25 60.125,-27.125 -1.375,-12.5 -3.976,-27.875 -9.603,-43.125 -5.627,-15.25 -5.785,-14.935 -8.937,-20.435 -3.152,-5.5 -3.688,-9.217 -2.287,-20.516 0.61,-4.919 1.451,-5.799 3.393,-11.549 1.909,-5.654 3.446,-5.366 3.972,-15.447"
   id="path495" />
	<path
   fill="none"
   stroke="#000000"
   stroke-linecap="round"
   stroke-linejoin="round"
   stroke-miterlimit="10"
   d="m 449,101.426 c 1.575,-2.652 3.628,-6.845 10.815,-6.075 7.187,0.77 10.867,6.759 11.637,8.727 0.77,1.968 0.171,6.845 0,7.701"
   id="path497" />
	<path
   fill="none"
   stroke="#000000"
   stroke-linecap="round"
   stroke-linejoin="round"
   stroke-miterlimit="10"
   d="m 433.059,197.026 c -3.892,-2.167 -12.125,-4.25 -18.592,-4.208"
   id="path499" />
	<path
   fill="none"
   stroke="#000000"
   stroke-linecap="round"
   stroke-linejoin="round"
   stroke-miterlimit="10"
   d="m 406.167,192.817 c 1.333,0.042 1.666,-0.042 3.666,0"
   id="path501" />
	<path
   fill="none"
   stroke="#000000"
   stroke-linecap="round"
   stroke-linejoin="round"
   stroke-miterlimit="10"
   d="m 449.5,197.026 c 1.667,-2.167 2.833,-3.942 9,-4.888 6.167,-0.946 12.702,-2.662 12.959,-3.236"
   id="path503" />
	<path
   fill="none"
   stroke="#000000"
   stroke-linecap="round"
   stroke-linejoin="round"
   stroke-miterlimit="10"
   d="m 477.426,187.859 c 1.407,-0.167 8.908,-1.167 9.741,-1.167"
   id="path505" />
	<path
   fill="none"
   stroke="#000000"
   stroke-linecap="round"
   stroke-linejoin="round"
   stroke-miterlimit="10"
   d="m 417,182.621 c -4.467,2.739 -10.363,4.904 -15.833,5.238 -5.47,0.334 -12.334,9.25 -14.334,17.708 -2,8.458 -4.332,53.292 -4.666,56.792 -0.334,3.5 -0.667,12.5 -0.667,16.167 0,3.667 -7.334,41.5 -10.834,50.833 -3.5,9.333 -3.333,16.167 -4.333,19.667 -1,3.5 -3.166,11.333 -4.333,13.833 -1.167,2.5 -1.834,8.833 -1.667,12.833 0.167,4 -1.834,11.333 -2,13 -0.166,1.667 -2.166,3.333 2.334,6.833 4.5,3.5 5.667,4.667 7.667,6.667 4.333,0.5 11.165,1.001 11.999,1.167 3.5,-2.5 5.549,-7.167 5.774,-9.917 0.225,-2.75 -0.44,-9.917 -1.94,-12.75 -0.534,-1.132 -2.4,-1.57 -3.83,1.36"
   id="path507" />
	<path
   fill="none"
   stroke="#000000"
   stroke-linecap="round"
   stroke-linejoin="round"
   stroke-miterlimit="10"
   d="m 374.938,368.255 c 1.563,1.438 4.875,5.75 5,9.688 0.125,3.938 0.125,12.5 0.125,14.688 0,2.188 -1.375,4.125 -2.063,5 -0.688,0.875 -1.198,1.774 -3.063,0.438 -3.094,-2.219 -4.875,-7.875 -8.313,-9.688"
   id="path509" />
	<path
   fill="none"
   stroke="#000000"
   stroke-linecap="round"
   stroke-linejoin="round"
   stroke-miterlimit="10"
   d="m 368.313,377.942 c -0.813,3.625 2.943,10.977 2.69,15.27"
   id="path511" />
	<path
   fill="none"
   stroke="#000000"
   stroke-linecap="round"
   stroke-linejoin="round"
   stroke-miterlimit="10"
   d="m 383.938,371.442 c -0.625,1.313 -3.075,7.986 -3.338,10.118"
   id="path513" />
	<path
   fill="none"
   stroke="#000000"
   stroke-linecap="round"
   stroke-linejoin="round"
   stroke-miterlimit="10"
   d="m 383.938,380.344 c 3.5,0.599 5.875,2.036 6.625,4.536 -0.125,3.125 -2.188,14.875 -2.656,16.375 -1.406,1.563 -4.591,2.363 -7.307,2.104"
   id="path515" />
	<path
   fill="none"
   stroke="#000000"
   stroke-linecap="round"
   stroke-linejoin="round"
   stroke-miterlimit="10"
   d="m 388.063,381.755 c 3.413,-0.194 5.313,1.563 5.5,2.875 0.187,1.312 -0.1,11.502 0,13.625 0.064,1.375 -1.688,3.86 -2.688,4 -1.627,0.228 -2.578,-0.273 -3.758,-0.324"
   id="path517" />
	<path
   fill="none"
   stroke="#000000"
   stroke-linecap="round"
   stroke-linejoin="round"
   stroke-miterlimit="10"
   d="m 378.375,355.692 c 1.313,2.125 2.475,2.625 3.894,3.813 1.419,1.188 4.288,4.375 8.104,4.75 1.378,3.75 1.909,4.656 2.909,6.531"
   id="path519" />
	<path
   fill="none"
   stroke="#000000"
   stroke-linecap="round"
   stroke-linejoin="round"
   stroke-miterlimit="10"
   d="m 392.878,356.943 c -0.565,1.437 -1.132,5.938 -2.506,7.312"
   id="path521" />
	<path
   fill="none"
   stroke="#000000"
   stroke-linecap="round"
   stroke-linejoin="round"
   stroke-miterlimit="10"
   d="m 432.5,667.442 c 0.688,1.188 3.063,4.5 2.125,7.063"
   id="path523" />
	<path
   fill="none"
   stroke="#000000"
   stroke-linecap="round"
   stroke-linejoin="round"
   stroke-miterlimit="10"
   d="m 439.5,667.442 c 1.313,1 4.047,3.357 3.336,6.241"
   id="path525" />
	<path
   fill="none"
   stroke="#000000"
   stroke-linecap="round"
   stroke-linejoin="round"
   stroke-miterlimit="10"
   d="m 426.038,606.192 c -0.15,-1.804 -1.885,-12.171 -2.921,-13.674"
   id="path527" />
	<path
   fill="none"
   stroke="#000000"
   stroke-linecap="round"
   stroke-linejoin="round"
   stroke-miterlimit="10"
   d="m 419.379,502.311 c 0.501,1.753 2.954,7.162 3.405,8.414"
   id="path529" />
	<path
   fill="none"
   stroke="#000000"
   stroke-linecap="round"
   stroke-linejoin="round"
   stroke-miterlimit="10"
   d="m 460.501,506.117 c -0.501,2.154 -3.206,10.118 -3.456,11.02"
   id="path531" />
	<path
   fill="none"
   stroke="#000000"
   stroke-linecap="round"
   stroke-linejoin="round"
   stroke-miterlimit="10"
   d="m 382.269,348.942 c 0.106,3.625 0,7.5 0,10.563"
   id="path533" />
	<path
   fill="none"
   stroke="#000000"
   stroke-linecap="round"
   stroke-linejoin="round"
   stroke-miterlimit="10"
   d="m 443.25,393.442 c -3.319,9.836 -10.395,87.145 -9.25,106 0.638,10.499 1.5,23.5 2.625,29.625 1.125,6.125 9.75,79.125 10,86.75 0.25,7.625 1.375,38.625 0.25,43.625 -1.125,5 -2.063,12.438 -3.25,13.625 -4.142,4.142 -7.125,2 -9,1.438 -9.563,2.875 -9,-3.438 -9,-6.938 0,-3.5 -2.125,-33.813 -2.506,-36.563 -0.381,-2.75 -2.932,-8 -2.932,-10 0,-2 -0.063,-14.625 0.375,-15.75 0.438,-1.125 3.296,-11.632 2.375,-14.25 -4.442,-12.629 -12.875,-43.563 -13.5,-53.375 -0.228,-3.569 0.313,-11.688 0.25,-14.875 -0.063,-3.187 1.563,-10.563 2.125,-12.938 0.562,-2.375 0.914,-8.767 0,-12.125 -0.627,-2.304 -0.687,-5.05 -1.553,-8.045 -7.563,-26.142 -17.304,-76.928 -16.198,-87.334 0.264,-2.486 -1.153,-35.246 -1.06,-37.371"
   id="path535" />
	<path
   fill="none"
   stroke="#000000"
   stroke-linecap="round"
   stroke-linejoin="round"
   stroke-miterlimit="10"
   d="m 501.973,365.203 c 3.125,39.25 -27.973,125.114 -27.848,141.989 -0.75,7.25 10.938,37.563 6.75,56.125 -3.829,16.976 -3,47.375 -3.375,51.25 -0.375,3.875 -0.375,9.25 -0.375,12.25 0,3 5,21.375 4.375,26.75 0.75,5.625 1.875,7.625 3,10 1.125,2.375 1,5.232 0,10.116 -1,4.884 -7.625,21.009 -8.375,23.759 -0.75,2.75 -1.625,12.625 -8.625,7.375 -1.625,1.125 -5,4 -7,0.375 -1.125,0.75 -4.5,2.5 -7.625,0.75 -2,0.875 -4.75,2.25 -6.875,0 -1.625,0.875 -6.375,2.5 -10.625,-3.625 0.125,-5.125 0.875,-5.375 1.375,-7.125 0.5,-1.75 0.75,-2 1.813,-3.063 1.063,-1.063 4.814,-17.739 5.449,-19.682"
   id="path537" />
	<path
   fill="none"
   stroke="#000000"
   stroke-linecap="round"
   stroke-linejoin="round"
   stroke-miterlimit="10"
   d="M 447.366,695.067 C 447,696.817 446,702.817 446,705.942"
   id="path539" />
	<path
   fill="none"
   stroke="#000000"
   stroke-linecap="round"
   stroke-linejoin="round"
   stroke-miterlimit="10"
   d="m 454,697.317 c -0.625,4.125 -1.125,6.875 -1.125,8.625"
   id="path541" />
	<path
   fill="none"
   stroke="#000000"
   stroke-linecap="round"
   stroke-linejoin="round"
   stroke-miterlimit="10"
   d="m 461.25,698.192 c -0.5,3.5 -1,2 -0.75,7"
   id="path543" />
	<path
   fill="none"
   stroke="#000000"
   stroke-linecap="round"
   stroke-linejoin="round"
   stroke-miterlimit="10"
   d="m 468.125,698.192 c -0.375,3.25 -0.875,5 -0.625,6.625"
   id="path545" />
	<path
   fill="none"
   stroke="#000000"
   stroke-linecap="round"
   stroke-linejoin="round"
   stroke-miterlimit="10"
   d="m 530.5,388.567 c -2.375,-0.25 -5,-1.625 -5.063,2.438 1.438,1.188 4.688,3.313 5.063,3.438"
   id="path547" />
	<path
   fill="none"
   stroke="#000000"
   stroke-linecap="round"
   stroke-linejoin="round"
   stroke-miterlimit="10"
   d="m 526.199,391.942 c -2.375,0.125 -7.824,1 -4.324,4.25 3.5,3.25 4.625,3.875 6.125,4.875 1.5,1 4.625,5.75 8,4.25 2.875,-2.25 12.5,-12 14.25,-13.375"
   id="path549" />
	<path
   fill="none"
   stroke="#000000"
   stroke-linecap="round"
   stroke-linejoin="round"
   stroke-miterlimit="10"
   d="m 553.875,395.567 c -1.375,1.875 -10.375,9.875 -12.125,10.625 -2.5,0.375 -5,-0.125 -5.75,-0.875"
   id="path551" />
	<path
   fill="none"
   stroke="#000000"
   stroke-linecap="round"
   stroke-linejoin="round"
   stroke-miterlimit="10"
   d="m 559.125,397.817 c -1.25,1.5 -7.063,7.313 -8.875,9.125 -3.313,3.313 -6.938,0.938 -8.5,-0.75"
   id="path553" />
	<path
   fill="none"
   stroke="#000000"
   stroke-linecap="round"
   stroke-linejoin="round"
   stroke-miterlimit="10"
   d="m 542.625,380.442 c -1,2.125 -3.5,4.875 -4,9.375 -0.5,4.5 -2.5,9.125 -8.125,8 -0.25,-5.25 -0.125,-19 0,-22 0.125,-3 8,-12.814 8,-18.407"
   id="path555" />
	<path
   fill="none"
   stroke="#000000"
   stroke-linecap="round"
   stroke-linejoin="round"
   stroke-miterlimit="10"
   d="m 486.75,217.442 c 0.75,6 6.875,26 7.75,30.625 0.875,4.625 14.375,36.5 18.75,40.75 0.375,6.375 1.75,28.625 9.875,38.625 8.125,10 13.365,26.125 13.928,35.273"
   id="path557" />
	<path
   fill="none"
   stroke="#000000"
   stroke-linecap="round"
   stroke-linejoin="round"
   stroke-miterlimit="10"
   d="m 480.933,176.667 c 2.567,0.15 12.692,2.4 15.567,3.025 2.875,0.625 13.375,4.5 17.375,14.875 4,10.375 7.25,29.25 9.875,35.5 2.625,6.25 9.625,26.875 8.5,23.25 -1.081,-3.483 5.174,21.201 10.5,35 1.769,4.582 6.25,17.75 6,24.875 2.125,7.25 7.875,21.5 8.5,25.875 0.625,4.375 3.875,14.228 5.875,18.801 2,4.573 5.625,19.074 3.125,27.949 -2.5,8.875 0.327,9.928 -5.875,16.75 -1.25,1.375 -3.375,3.5 -4.625,4.375 -1.25,0.875 -3.545,1.547 -6.085,0.523"
   id="path559" />
	<path
   fill="none"
   stroke="#000000"
   stroke-linecap="round"
   stroke-linejoin="round"
   stroke-miterlimit="10"
   d="m 481,174.317 c 1.875,0.625 3.057,1.7 3.6,2.35"
   id="path561" />
	<path
   fill="none"
   stroke="#000000"
   stroke-linecap="round"
   stroke-linejoin="round"
   stroke-miterlimit="10"
   d="m 392.574,327.812 c -0.125,4.25 -1.123,17.13 -1.099,23.755 0.024,6.625 -0.356,9.5 -1.104,12.125"
   id="path563" />
	<path
   d="m 407.644,108.8 c -0.663,0.281 -3.701,3.805 -1.923,11.064 1.778,7.259 5.829,7.595 6.952,7.595 1.123,0 7.373,0.816 7.229,-7.884 -0.144,-8.7 -3.567,-10.328 -4.471,-11.104 -0.569,-0.489 -3.702,-1.058 -5.288,-0.817 -0.528,0.24 -0.012,0.757 0.223,0.991 0.235,0.234 2.95,1.358 2.35,3.548 -0.6,2.19 -2.139,3.968 -4.062,2.719 -1.923,-1.249 -1.059,-3.316 -0.529,-4.374 0.53,-1.058 0.672,-2.227 -0.481,-1.738 z"
   id="path565" />
	<path
   d="m 452.753,102.245 c -0.591,0.413 -3.291,3.961 -1.401,11.192 1.164,4.454 6.634,6.523 7.757,6.523 1.123,0 7.852,0.816 7.707,-7.884 -0.145,-8.7 -4.046,-10.664 -4.949,-11.44 -0.569,-0.489 -3.702,-0.721 -5.288,-0.481 -0.528,0.24 -0.277,1.022 -0.043,1.257 0.234,0.235 3.597,-0.101 3.597,3.889 0,4.186 -3.391,4.739 -5.043,3.219 -1.688,-1.553 -1.806,-4.013 -0.867,-5.48 0.636,-0.997 -0.771,-1.284 -1.47,-0.795 z"
   id="path567" />
	<g
   id="g571">
		<path
   fill="#ed6547"
   d="m 412.186,132.569 c -0.04,0.198 0.002,0.345 0.003,0.54 -0.003,0.098 -0.007,0.203 -0.04,0.32 -0.072,0.204 -0.075,0.163 -0.19,0.274 -0.361,0.319 -0.683,0.42 -0.88,0.585 -0.19,0.15 -0.358,0.427 -0.576,0.716 -0.211,0.271 -0.51,0.655 -1.046,0.733 l 0.283,-0.193 c -0.299,0.513 -0.721,0.77 -1.053,1.046 l -0.241,0.202 c -0.056,0.089 -0.155,0.12 -0.259,0.156 -0.196,0.081 -0.373,0.193 -0.531,0.394 -0.084,-0.245 -0.022,-0.533 0.073,-0.789 0.044,-0.134 0.104,-0.259 0.217,-0.32 l 0.274,-0.229 c 0.358,-0.282 0.71,-0.54 0.861,-0.817 l 0.097,-0.179 0.187,-0.014 c 0.158,-0.012 0.352,-0.186 0.539,-0.441 0.192,-0.244 0.367,-0.567 0.704,-0.848 0.336,-0.253 0.67,-0.388 0.813,-0.524 0.011,0 0.123,-0.169 0.136,-0.111 0.058,-0.025 0.117,-0.078 0.178,-0.137 0.12,-0.118 0.275,-0.297 0.451,-0.364 z"
   id="path569" />
	</g>
	<g
   id="g575">
		<path
   fill="#ed6547"
   d="m 418.596,129.729 c -0.202,0.269 -0.457,0.472 -0.575,0.685 -0.094,0.174 -0.225,0.56 -0.502,0.807 -0.312,0.275 -0.521,0.275 -0.714,0.532 -0.198,0.215 -0.314,0.534 -0.537,0.796 -0.217,0.248 -0.318,0.488 -0.429,0.787 -0.116,0.299 -0.33,0.587 -0.509,0.837 l -0.034,0.048 -0.017,0.024 -0.009,0.012 -0.057,0.056 c 0.01,0.005 -0.143,0.105 -0.175,0.118 -0.033,0.015 0.007,0.018 0.064,-0.062 -0.035,0.07 0.058,-0.096 0.044,-0.107 0.004,-0.038 0.002,-0.034 0.003,0.001 0.022,0.052 -0.065,0.309 -0.108,0.337 l -0.068,0.095 -0.13,0.17 -0.052,0.065 -0.052,0.091 -0.108,0.196 c -0.097,0.132 -0.17,0.391 -0.575,0.482 l 0.25,-0.284 c -0.022,0.179 -0.1,0.274 -0.168,0.364 -0.072,0.087 -0.15,0.157 -0.233,0.22 -0.165,0.115 -0.375,0.215 -0.587,0.168 l -0.002,-0.075 c 0.148,-0.076 0.234,-0.219 0.313,-0.353 0.076,-0.122 0.12,-0.318 0.088,-0.339 l -0.326,-0.217 0.576,-0.066 c -0.089,0.01 -0.016,-0.056 0.017,-0.193 0.04,-0.131 0.09,-0.315 0.2,-0.48 0.047,-0.076 0.09,-0.155 0.137,-0.212 l 0.069,-0.094 c 0.005,-0.033 -0.057,0.147 -0.038,0.121 0.002,-0.004 -0.004,-0.039 0.008,-0.115 -0.009,-0.05 0.098,-0.254 0.086,-0.214 0.106,-0.139 0.216,-0.177 0.253,-0.194 0.036,-0.022 -0.043,0.049 0.024,0 l 0.006,-0.004 0.003,-0.002 c 0.042,-0.042 -0.055,0.056 -0.044,0.045 l 0.001,-0.001 0.01,-0.01 0.021,-0.021 0.04,-0.042 c 0.22,-0.228 0.395,-0.425 0.603,-0.657 0.202,-0.239 0.485,-0.492 0.724,-0.669 0.22,-0.185 0.31,-0.474 0.406,-0.801 0.072,-0.323 0.405,-0.678 0.55,-0.816 0.188,-0.176 0.281,-0.396 0.573,-0.708 0.292,-0.263 0.627,-0.313 0.942,-0.38 z"
   id="path573" />
	</g>
	<g
   id="g579">
		<path
   fill="#ed6547"
   d="m 421.999,129.118 c -0.005,0.189 -0.062,0.334 -0.173,0.464 -0.094,0.112 -0.195,0.208 -0.327,0.243 -0.135,0.028 -0.305,0.011 -0.42,0.073 -0.117,0.059 -0.182,0.186 -0.197,0.318 -0.012,0.265 -0.131,0.539 -0.217,0.731 -0.12,0.197 -0.27,0.321 -0.475,0.605 l -0.074,0.011 c -0.282,-0.252 -0.284,-0.669 -0.176,-0.955 0.058,-0.146 0.16,-0.263 0.255,-0.367 0.09,-0.112 0.201,-0.188 0.362,-0.276 0.143,-0.083 0.276,-0.144 0.365,-0.254 0.089,-0.112 0.143,-0.28 0.229,-0.404 0.092,-0.113 0.214,-0.166 0.344,-0.203 0.109,-0.023 0.263,-0.045 0.453,-0.041 z"
   id="path577" />
	</g>
	<g
   id="g583">
		<path
   fill="#ed6547"
   d="m 453.639,124.445 c 0.1,0.322 0.043,0.715 -0.103,1.022 -0.064,0.159 -0.171,0.314 -0.264,0.439 l -0.244,0.323 c -0.167,0.186 -0.318,0.5 -0.492,0.788 -0.173,0.283 -0.278,0.558 -0.363,0.876 -0.166,0.655 -0.579,1.215 -1.016,1.68 l -0.682,0.606 c -0.237,0.2 -0.476,0.42 -0.769,0.593 l -0.059,-0.047 c 0.093,-0.321 0.214,-0.615 0.361,-0.909 0.144,-0.292 0.379,-0.578 0.568,-0.795 0.427,-0.441 0.823,-0.855 1.23,-1.318 0.193,-0.243 0.401,-0.512 0.507,-0.79 0.111,-0.274 0.028,-0.602 0.158,-0.972 0.061,-0.169 0.177,-0.342 0.282,-0.453 l 0.283,-0.323 c 0.184,-0.225 0.351,-0.433 0.525,-0.733 z"
   id="path581" />
	</g>
	<g
   id="g587">
		<path
   fill="#ed6547"
   d="m 461.471,123.215 c -0.343,0.54 -0.601,1.008 -1.074,1.432 -0.135,0.102 -0.331,0.199 -0.498,0.237 -0.166,0.036 -0.315,0.051 -0.448,0.102 -0.284,0.092 -0.394,0.336 -0.503,0.632 -0.109,0.316 -0.343,0.593 -0.52,0.797 -0.178,0.206 -0.246,0.412 -0.405,0.68 -0.142,0.25 -0.396,0.567 -0.599,0.729 -0.203,0.184 -0.377,0.374 -0.509,0.66 h -0.074 c -0.126,-0.317 -0.041,-0.697 0.099,-0.999 0.161,-0.313 0.252,-0.485 0.38,-0.772 0.124,-0.255 0.344,-0.586 0.605,-0.793 0.242,-0.222 0.473,-0.334 0.681,-0.531 0.354,-0.508 1.176,-0.755 1.334,-1.168 0.337,-0.45 0.826,-0.941 1.488,-1.067 z"
   id="path585" />
	</g>
	<g
   id="g591">
		<path
   fill="#ed6547"
   d="m 468.102,122.449 c -0.162,0.243 -0.197,0.47 -0.372,0.727 -0.192,0.256 -0.34,0.429 -0.588,0.6 -0.241,0.151 -0.558,0.25 -0.804,0.345 -0.25,0.109 -0.469,0.276 -0.677,0.459 -0.406,0.381 -0.857,0.666 -1.256,0.958 -0.417,0.267 -0.767,0.489 -1.099,0.972 l -0.074,-0.014 c -0.16,-0.601 0.24,-1.267 0.704,-1.607 0.481,-0.333 0.985,-0.554 1.534,-0.672 0.269,-0.067 0.528,-0.15 0.747,-0.306 0.233,-0.154 0.35,-0.382 0.505,-0.596 0.147,-0.195 0.389,-0.396 0.573,-0.525 0.182,-0.14 0.446,-0.389 0.769,-0.403 z"
   id="path589" />
	</g>
</g>
</svg>
