<?xml version="1.0" encoding="UTF-8" standalone="no"?>
<svg
   xmlns:dc="http://purl.org/dc/elements/1.1/"
   xmlns:cc="http://creativecommons.org/ns#"
   xmlns:rdf="http://www.w3.org/1999/02/22-rdf-syntax-ns#"
   xmlns:svg="http://www.w3.org/2000/svg"
   xmlns="http://www.w3.org/2000/svg"
   xmlns:xlink="http://www.w3.org/1999/xlink"
   xmlns:sodipodi="http://sodipodi.sourceforge.net/DTD/sodipodi-0.dtd"
   xmlns:inkscape="http://www.inkscape.org/namespaces/inkscape"
   enable-background="new 0 0 219.7 84.75"
   version="1.1"
   viewBox="0 0 463.46327 178.81325"
   id="svg180"
   sodipodi:docname="table.svg"
   width="122.62466mm"
   height="47.311005mm"
   inkscape:version="1.0.2-2 (e86c870879, 2021-01-15)">
  <metadata
     id="metadata186">
    <rdf:RDF>
      <cc:Work
         rdf:about="">
        <dc:format>image/svg+xml</dc:format>
        <dc:type
           rdf:resource="http://purl.org/dc/dcmitype/StillImage" />
        <dc:title />
      </cc:Work>
    </rdf:RDF>
  </metadata>
  <defs
     id="defs184" />
  <sodipodi:namedview
     pagecolor="#ffffff"
     bordercolor="#666666"
     borderopacity="1"
     objecttolerance="10"
     gridtolerance="10"
     guidetolerance="10"
     inkscape:pageopacity="0"
     inkscape:pageshadow="2"
     inkscape:window-width="1920"
     inkscape:window-height="1017"
     id="namedview182"
     showgrid="false"
     units="mm"
     inkscape:zoom="1.1857078"
     inkscape:cx="121.53343"
     inkscape:cy="-48.227936"
     inkscape:window-x="-8"
     inkscape:window-y="-8"
     inkscape:window-maximized="1"
     inkscape:current-layer="svg180"
     inkscape:document-rotation="0" />
  <symbol
     id="o"
     transform="translate(-5.8806467,-76.253357)" />
  <symbol
     id="p"
     viewBox="0 -83.072 209.4 83.072"
     transform="translate(-5.8806467,-76.253357)">
    <g
       clip-rule="evenodd"
       fill-rule="evenodd"
       id="g98">
      <radialGradient
         id="i"
         cx="23.75"
         cy="-92.050003"
         r="6.6374998"
         gradientTransform="matrix(1.0859,0,0,-0.7435,5.1997,-125.79)"
         gradientUnits="userSpaceOnUse">
        <stop
           stop-opacity=".4471"
           offset="0"
           id="stop3" />
        <stop
           stop-opacity="0"
           offset=".8118"
           id="stop5" />
      </radialGradient>
      <path
         d="m 30.99,-51.994 c 2.208,0 4.072,-0.536 5.592,-1.606 1.557,-1.026 2.334,-2.275 2.334,-3.748 0,-1.562 -0.778,-2.855 -2.334,-3.881 -1.521,-1.026 -3.385,-1.539 -5.592,-1.539 -2.172,0 -4.018,0.513 -5.539,1.539 -1.556,1.026 -2.334,2.32 -2.334,3.881 0,1.472 0.778,2.721 2.334,3.748 1.521,1.07 3.367,1.606 5.539,1.606 z"
         fill="url(#i)"
         id="path8"
         style="fill:url(#i)" />
      <path
         d="m 37.65,-30.8 3.6,-0.4 c -1.6,-1.167 -3.167,-2.467 -4.7,-3.9 -3.1,-2.867 -4.534,-4.967 -4.3,-6.3 0.233,-1.167 0.95,-2.933 2.15,-5.3 1.267,-2.433 1.983,-4 2.15,-4.7 0.233,-0.966 0.15,-2.117 -0.25,-3.45 l -0.65,-1.65 -2.7,-2.25 -8.1,27.05 12.35,0.9 z"
         fill="#758a8e"
         id="path10" />
      <path
         d="m 23.05,-31 15.45,0.25 c -1.333,-1 -2.717,-2.133 -4.15,-3.4 -2.833,-2.566 -4.433,-4.55 -4.8,-5.95 -0.367,-1.434 0.066,-3.533 1.3,-6.3 1.5,-2.9 2.417,-4.733 2.75,-5.5 0.533,-1.133 0.583,-2.617 0.15,-4.45 l -0.8,-2.4 -5.4,-0.15 0.55,1.55 c 0.367,1.3 0.55,2.583 0.55,3.85 0,0.833 -1.483,3.45 -4.45,7.85 -2.9,4.3 -4.267,7.217 -4.1,8.75 0.2,1.733 0.75,3.233 1.65,4.5 0.467,0.633 0.9,1.1 1.3,1.4 z"
         fill="#bacdd6"
         id="path12" />
      <path
         d="m 23.05,-31 15.45,0.25 c -1.333,-1 -2.717,-2.133 -4.15,-3.4 -2.833,-2.566 -4.433,-4.55 -4.8,-5.95 -0.367,-1.434 0.066,-3.533 1.3,-6.3 1.5,-2.9 2.417,-4.733 2.75,-5.5 0.533,-1.133 0.583,-2.617 0.15,-4.45 l -0.8,-2.4 -5.4,-0.15 0.55,1.55 c 0.367,1.3 0.55,2.583 0.55,3.85 0,0.833 -1.483,3.45 -4.45,7.85 -2.9,4.3 -4.267,7.217 -4.1,8.75 0.2,1.733 0.75,3.233 1.65,4.5 0.467,0.633 0.9,1.1 1.3,1.4 z"
         fill="#a1b2b7"
         id="path14" />
      <path
         d="m 29.15,-47.2 c -1.933,3.9 -2.816,6.45 -2.65,7.65 0.3,2.2 0.9,4.333 1.8,6.4 l -6.65,0.65 c 0.367,0.533 0.767,0.966 1.2,1.3 l 14.8,-0.25 c -1.633,-1.267 -3.15,-2.567 -4.55,-3.9 -2.033,-2 -3.217,-3.583 -3.55,-4.75 -0.367,-1.434 0.066,-3.533 1.3,-6.3 1.5,-2.9 2.417,-4.733 2.75,-5.5 0.533,-1.133 0.583,-2.617 0.15,-4.45 l -0.8,-2.4 -2.35,-0.05 c 0.4,0.6 0.7,1.3 0.9,2.1 0.1,0.433 0.184,0.983 0.25,1.65 0.2,1.366 -0.667,3.983 -2.6,7.85 z"
         fill="#96a6aa"
         id="path16" />
      <path
         d="m 22.75,-32.35 c -0.367,-0.733 -0.683,-1.583 -0.95,-2.55 -0.567,-1.9 -0.65,-3.417 -0.25,-4.55 0.3,-0.8 1.833,-3.317 4.6,-7.55 2.4,-3.667 3.517,-5.95 3.35,-6.85 -0.233,-1.333 -0.767,-3.017 -1.6,-5.05 h -0.35 l 0.55,1.55 c 0.367,1.3 0.55,2.583 0.55,3.85 0,0.833 -1.483,3.45 -4.45,7.85 -2.9,4.3 -4.267,7.217 -4.1,8.75 0.2,1.8 0.767,3.333 1.7,4.6 z"
         fill="#a1b2b7"
         id="path18" />
      <path
         d="m 22.75,-35.15 0.35,-0.5 c 0.333,-0.367 0.717,-0.6 1.15,-0.7 0.7,-0.2 1.45,0.066 2.25,0.8 -0.6,-1.167 -0.9,-2.283 -0.9,-3.35 0,-0.433 0.1,-1.083 0.3,-1.95 0.133,-0.533 0.083,-0.867 -0.15,-1 -0.233,-0.167 -0.683,-0.2 -1.35,-0.1 l -0.9,0.25 c -0.233,0.333 -0.467,0.733 -0.7,1.2 -0.5,0.933 -0.817,1.733 -0.95,2.4 -0.2,1.066 0.1,2.05 0.9,2.95 z"
         fill="#c5d6dd"
         id="path20" />
      <path
         d="m 29.65,-52.65 1.65,0.4 c 0.1,-1.4 0.1,-2.333 0,-2.8 -0.034,-0.267 -0.167,-0.7 -0.4,-1.3 l -0.35,-0.8 H 28.9 l 0.65,2.1 c 0.233,0.733 0.267,1.533 0.1,2.4 z"
         fill="#b1c1c4"
         id="path22" />
      <path
         d="m 38.5,-30.75 c -1.333,-1 -2.717,-2.133 -4.15,-3.4 -2.833,-2.566 -4.433,-4.55 -4.8,-5.95 -0.367,-1.434 0.066,-3.533 1.3,-6.3 1.5,-2.9 2.417,-4.733 2.75,-5.5 0.533,-1.133 0.583,-2.617 0.15,-4.45 l -0.8,-2.4 -1.1,-0.05 c 0.167,0.5 0.367,1.283 0.6,2.35 0.267,1.2 0.383,2.033 0.35,2.5 -0.067,1 -0.483,2.333 -1.25,4 -0.434,0.933 -1.117,2.267 -2.05,4 -0.667,1.367 -1.117,2.467 -1.35,3.3 -0.267,1.1 -0.316,2.35 -0.15,3.75 0.1,0.9 0.65,2.15 1.65,3.75 0.833,1.4 1.184,2.2 1.05,2.4 -0.233,0.333 -3.15,0.55 -8.75,0.65 0.4,0.5 0.767,0.867 1.1,1.1 z"
         fill="#8c989b"
         id="path24" />
      <path
         d="m 38.5,-30.75 c -1.2,-1.034 -2.45,-2.2 -3.75,-3.5 -2.566,-2.633 -4.033,-4.65 -4.4,-6.05 -0.367,-1.433 0.05,-3.566 1.25,-6.4 1.433,-2.967 2.333,-4.833 2.7,-5.6 0.533,-1.133 0.466,-2.55 -0.2,-4.25 l -1.15,-2.2 H 32.5 c 0.4,1.733 0.75,2.883 1.05,3.45 0.267,0.6 0.1,1.65 -0.5,3.15 -0.267,0.6 -0.9,1.9 -1.9,3.9 -1.7,3.433 -2.5,6.466 -2.4,9.1 0.067,1.333 1.3,3.117 3.7,5.35 1.2,1.133 2.383,2.133 3.55,3 z"
         fill="#6d7a7a"
         id="path26" />
      <polygon
         points="37.9,-33.8 34.75,-34 38.5,-30.75 41.25,-31.2 "
         fill="#6a7d7f"
         id="polygon28" />
      <path
         d="m 34.5,-54.4 0.3,-0.45 c 0.233,-0.233 0.517,-0.25 0.85,-0.05 0.266,0.166 0.49,0.449 0.675,0.85 l -0.675,-2.45 -2.7,-2.25 z"
         fill="#6d7a7a"
         id="path30" />
      <path
         d="m 35.65,-49.5 c 0.534,-0.8 0.8,-1.6 0.8,-2.4 l -0.15,-1.7 c -0.2,-0.467 -0.534,-0.434 -1,0.1 -0.267,0.333 -0.534,0.917 -0.8,1.75 -0.133,0.4 -0.233,0.783 -0.3,1.15 l 0.4,-0.3 c 0.333,-0.167 0.567,-0.167 0.7,0 0.233,0.267 0.35,0.733 0.35,1.4 z"
         fill="#7c9396"
         id="path32" />
      <radialGradient
         id="j"
         cx="23.75"
         cy="-92.050003"
         r="6.6374998"
         gradientTransform="matrix(1,0,0,-0.6936,-5.75,-141.86)"
         gradientUnits="userSpaceOnUse">
        <stop
           stop-opacity=".4471"
           offset="0"
           id="stop34" />
        <stop
           stop-opacity="0"
           offset=".8118"
           id="stop36" />
      </radialGradient>
      <path
         d="m 18,-73.022 c 2.033,0 3.75,-0.5 5.15,-1.498 1.434,-0.957 2.15,-2.123 2.15,-3.496 0,-1.457 -0.716,-2.663 -2.15,-3.621 -1.4,-0.957 -3.117,-1.436 -5.15,-1.436 -2,0 -3.7,0.479 -5.1,1.436 -1.433,0.958 -2.15,2.164 -2.15,3.621 0,1.373 0.717,2.539 2.15,3.496 1.4,0.998 3.1,1.498 5.1,1.498 z"
         fill="url(#j)"
         id="path39"
         style="fill:url(#j)" />
      <path
         d="m 24.087,-41.27 3.46,-0.535 c -1.538,-1.563 -3.044,-3.304 -4.518,-5.225 -2.98,-3.84 -4.357,-6.654 -4.133,-8.439 0.225,-1.563 0.913,-3.93 2.067,-7.1 1.217,-3.26 1.906,-5.358 2.066,-6.296 0.225,-1.295 0.144,-2.835 -0.24,-4.622 l -0.625,-2.21 -2.596,-3.014 -7.786,36.236 11.871,1.205 z"
         fill="#7a8789"
         id="path41" />
      <path
         d="m 24.904,-41.27 c -1.282,-1.339 -2.611,-2.857 -3.989,-4.554 -2.724,-3.394 -4.262,-6.028 -4.614,-7.904 -0.353,-1.92 0.064,-4.733 1.25,-8.439 1.442,-3.886 2.323,-6.341 2.643,-7.368 0.513,-1.519 0.561,-3.504 0.144,-5.961 l -0.769,-3.214 -5.19,-0.201 0.529,2.076 c 0.353,1.741 0.528,3.461 0.528,5.158 0,1.116 -1.426,4.621 -4.278,10.515 -2.787,5.76 -4.101,9.668 -3.94,11.722 0.192,2.322 0.721,4.332 1.586,6.028 0.449,0.849 0.865,1.451 1.25,1.808 z"
         fill="#bacdd6"
         id="path43" />
      <path
         d="m 24.904,-41.27 c -1.282,-1.339 -2.611,-2.857 -3.989,-4.554 -2.724,-3.394 -4.262,-6.028 -4.614,-7.904 -0.353,-1.92 0.064,-4.733 1.25,-8.439 1.442,-3.886 2.323,-6.341 2.643,-7.368 0.513,-1.519 0.561,-3.504 0.144,-5.961 l -0.769,-3.214 -5.19,-0.201 0.529,2.076 c 0.353,1.741 0.528,3.461 0.528,5.158 0,1.116 -1.426,4.621 -4.278,10.515 -2.787,5.76 -4.101,9.668 -3.94,11.722 0.192,2.322 0.721,4.332 1.586,6.028 0.449,0.849 0.865,1.451 1.25,1.808 z"
         fill="#bacdd6"
         id="path45" />
      <path
         d="m 16.301,-53.728 c -0.353,-1.92 0.064,-4.733 1.25,-8.439 1.442,-3.886 2.323,-6.341 2.643,-7.368 0.513,-1.519 0.561,-3.504 0.144,-5.961 l -0.769,-3.214 -2.259,-0.068 c 0.385,0.805 0.673,1.743 0.865,2.814 0.096,0.581 0.176,1.317 0.24,2.209 0.192,1.832 -0.641,5.336 -2.499,10.517 -1.858,5.224 -2.708,8.641 -2.547,10.248 0.288,2.947 0.865,5.783 1.73,8.507 l -6.392,0.938 c 0.449,0.803 0.833,1.384 1.154,1.741 l 14.226,-0.335 c -1.57,-1.696 -3.028,-3.438 -4.374,-5.225 -1.955,-2.68 -3.092,-4.801 -3.412,-6.364 z"
         fill="#a1b2b7"
         id="path47" />
      <path
         d="m 9.765,-43.413 c -0.353,-0.982 -0.657,-2.099 -0.914,-3.349 -0.544,-2.546 -0.625,-4.578 -0.24,-6.095 0.289,-1.071 1.762,-4.442 4.422,-10.113 2.307,-4.913 3.38,-7.971 3.22,-9.177 -0.225,-1.786 -0.737,-4.041 -1.538,-6.765 h -0.336 l 0.529,2.076 c 0.353,1.741 0.528,3.461 0.528,5.158 0,1.116 -1.426,4.621 -4.278,10.515 -2.787,5.76 -4.101,9.668 -3.94,11.722 0.192,2.411 0.737,4.465 1.634,6.162 z"
         fill="#a1b2b7"
         id="path49" />
      <path
         d="m 9.765,-47.097 0.336,-0.67 c 0.32,-0.49 0.688,-0.825 1.105,-1.004 0.673,-0.224 1.394,0.133 2.163,1.071 -0.577,-1.518 -0.865,-2.992 -0.865,-4.42 0,-0.581 0.096,-1.451 0.289,-2.612 0.128,-0.714 0.08,-1.161 -0.145,-1.34 -0.224,-0.222 -0.657,-0.268 -1.297,-0.133 l -0.865,0.335 c -0.224,0.446 -0.449,0.982 -0.673,1.607 -0.481,1.25 -0.785,2.322 -0.913,3.214 -0.193,1.429 0.095,2.746 0.865,3.952 z"
         fill="#c5d6dd"
         id="path51" />
      <path
         d="m 16.397,-70.54 1.586,0.536 c 0.096,-1.876 0.096,-3.126 0,-3.752 -0.032,-0.357 -0.16,-0.937 -0.384,-1.741 l -0.337,-1.071 h -1.586 l 0.625,2.813 c 0.224,0.982 0.256,2.055 0.096,3.215 z"
         fill="#c5d6dd"
         id="path53" />
      <path
         d="m 24.904,-41.27 c -1.282,-1.339 -2.611,-2.857 -3.989,-4.554 -2.724,-3.394 -4.262,-6.028 -4.614,-7.904 -0.353,-1.92 0.064,-4.733 1.25,-8.439 1.442,-3.886 2.323,-6.341 2.643,-7.368 0.513,-1.519 0.561,-3.504 0.144,-5.961 l -0.769,-3.214 -1.057,-0.068 c 0.16,0.625 0.353,1.675 0.577,3.149 0.256,1.608 0.368,2.724 0.336,3.349 -0.064,1.339 -0.465,3.125 -1.202,5.358 -0.417,1.25 -1.073,3.036 -1.97,5.358 -0.641,1.83 -1.074,3.304 -1.298,4.42 -0.256,1.473 -0.305,3.147 -0.144,5.023 0.096,1.206 0.625,2.88 1.586,5.023 0.801,1.83 1.137,2.881 1.009,3.147 -0.224,0.492 -3.028,0.805 -8.411,0.938 0.385,0.67 0.737,1.14 1.058,1.406 z"
         fill="#96a6aa"
         id="path55" />
      <path
         d="m 24.904,-41.27 c -1.153,-1.384 -2.355,-2.946 -3.604,-4.688 -2.467,-3.482 -3.877,-6.162 -4.229,-8.038 -0.353,-1.919 0.048,-4.778 1.202,-8.573 1.377,-3.974 2.243,-6.476 2.595,-7.502 0.512,-1.518 0.449,-3.416 -0.192,-5.693 l -1.106,-2.946 -0.432,-0.068 c 0.384,2.278 0.721,3.841 1.009,4.688 0.256,0.805 0.096,2.211 -0.48,4.22 -0.256,0.804 -0.865,2.546 -1.826,5.225 -1.634,4.599 -2.403,8.662 -2.307,12.19 0.064,1.741 1.25,4.13 3.557,7.167 1.153,1.519 2.291,2.858 3.413,4.019 h 2.4 z"
         fill="#6d7a7a"
         id="path57" />
      <path
         d="m 10.197,-44.819 2.451,0.2 c -1.057,-3.349 -1.538,-5.738 -1.442,-7.166 0.128,-1.92 0.849,-4.711 2.163,-8.373 0.449,-1.206 1.217,-3.282 2.307,-6.229 0.93,-2.5 1.41,-4.063 1.442,-4.689 0.064,-1.027 -0.08,-2.098 -0.433,-3.214 l -0.576,-1.406 0.384,1.606 c 0.224,1.162 0.336,1.987 0.336,2.479 0,0.535 -0.336,1.741 -1.009,3.617 -0.385,1.027 -0.913,2.456 -1.586,4.286 -0.224,0.715 -1.042,2.435 -2.451,5.158 -1.442,2.724 -2.308,4.509 -2.596,5.358 -0.353,1.027 -0.288,2.724 0.192,5.09 0.225,1.207 0.497,2.3 0.818,3.283 z"
         fill="#cee8ef"
         id="path59" />
      <polygon
         points="24.327,-45.289 21.299,-45.556 24.904,-41.27 27.547,-41.805 "
         fill="#6d7a7a"
         id="polygon61" />
      <path
         d="m 21.059,-72.884 0.288,-0.603 c 0.225,-0.313 0.497,-0.335 0.817,-0.067 0.255,0.222 0.471,0.602 0.648,1.138 l -0.648,-3.281 -2.596,-3.014 z"
         fill="#6a7d7f"
         id="path63" />
      <path
         d="m 22.165,-66.319 c 0.512,-1.073 0.769,-2.144 0.769,-3.216 l -0.144,-2.277 c -0.192,-0.625 -0.513,-0.581 -0.961,0.135 -0.256,0.446 -0.512,1.227 -0.769,2.344 -0.128,0.535 -0.225,1.049 -0.289,1.54 l 0.385,-0.401 c 0.32,-0.224 0.544,-0.224 0.672,0 0.224,0.356 0.337,0.981 0.337,1.875 z"
         fill="#7c9396"
         id="path65" />
      <polygon
         points="204.21,-42.127 3.729,-42.127 3.729,-32.839 204.21,-32.186 "
         fill="#bacdd6"
         id="polygon67" />
      <polygon
         points="196.23,-40.213 9.67,-40.213 9.67,-34.473 196.23,-34.052 "
         fill="#97acb2"
         id="polygon69" />
      <polygon
         points="194.74,-38.486 11.526,-38.486 11.526,-35.173 194.74,-35.032 "
         fill="#bacdd6"
         id="polygon71" />
      <polygon
         points="196.95,-39.7 196.95,-40.6 9.3,-40.6 9.65,-39.7 "
         fill="#bdd8df"
         id="polygon73" />
      <polygon
         points="9.67,-34.473 11.526,-34.473 11.526,-38.486 9.67,-39.793 "
         fill="#758a8e"
         id="polygon75" />
      <polygon
         points="196.16,-34.052 196.16,-39.793 194.62,-38.486 194.62,-35.032 "
         fill="#758a8e"
         id="polygon77" />
      <polygon
         points="204.02,-34.052 3.729,-34.66 3.729,-32.186 204.02,-32.186 "
         fill="#a1b2b7"
         id="polygon79" />
      <polygon
         points="204.02,-41.987 3.729,-42.22 3.729,-41.287 204.02,-41.287 "
         fill="#a1b2b7"
         id="polygon81" />
      <polygon
         points="204.02,-32.886 3.729,-33.259 3.729,-31.859 204.02,-31.859 "
         fill="#96a6aa"
         id="polygon83" />
      <polygon
         points="209.03,-26.958 0.017,-26.958 25.077,-0.074 183.6,-0.074 "
         fill="#bacdd6"
         id="polygon85" />
      <linearGradient
         id="k"
         x1="-80.634003"
         x2="-33.609001"
         y1="-16127"
         y2="-16127"
         gradientTransform="matrix(2.1265e-5,-1,1,-0.001,16232,-74.149)"
         gradientUnits="userSpaceOnUse">
        <stop
           stop-opacity=".1451"
           offset="0"
           id="stop87" />
        <stop
           stop-opacity="0"
           offset="1"
           id="stop89" />
      </linearGradient>
      <polygon
         points="25.4,0 183.95,0 209.35,-26.9 0.35,-26.9 "
         fill="url(#k)"
         id="polygon92"
         style="fill:url(#k)" />
      <polygon
         points="0,-26.95 209.4,-26.95 209.4,-32.4 0,-32.4 "
         fill="#abc4d0"
         id="polygon94" />
      <polygon
         points="209.4,-26.95 209.2,-28.55 0.1,-28.9 0,-26.95 "
         fill="#bdd8df"
         id="polygon96" />
    </g>
  </symbol>
  <g
     clip-rule="evenodd"
     fill-rule="evenodd"
     id="g132"
     transform="matrix(2.1092687,0,0,2.1092687,0.0485132,-27.42049)"
     style="display:inline">
    <radialGradient
       id="l"
       cx="23.75"
       cy="92.050003"
       r="6.6374998"
       gradientTransform="matrix(1.2206,0,0,-0.7603,153.5,140.22)"
       gradientUnits="userSpaceOnUse">
      <stop
         stop-opacity=".4471"
         offset="0"
         id="stop101" />
      <stop
         stop-opacity="0"
         offset=".8118"
         id="stop103" />
    </radialGradient>
    <path
       d="m 182.49,64.757 c 2.481,0 4.577,0.548 6.285,1.643 1.75,1.049 2.624,2.327 2.624,3.832 0,1.597 -0.874,2.92 -2.624,3.97 -1.708,1.049 -3.804,1.573 -6.285,1.573 -2.441,0 -4.517,-0.524 -6.226,-1.573 -1.749,-1.05 -2.624,-2.373 -2.624,-3.97 0,-1.505 0.875,-2.783 2.624,-3.832 1.7,-1.095 3.78,-1.643 6.22,-1.643 z"
       fill="url(#l)"
       id="path106"
       style="fill:url(#l)" />
    <path
       d="m 177.45,43.801 -3.6,0.399 c 1.601,1.167 3.167,2.467 4.7,3.899 3.101,2.867 4.533,4.967 4.3,6.301 -0.233,1.166 -0.949,2.934 -2.149,5.3 -1.267,2.433 -1.983,4 -2.15,4.7 -0.233,0.967 -0.149,2.117 0.25,3.449 l 0.65,1.65 2.7,2.25 8.1,-27.05 -12.35,-0.899 h -0.45 z"
       fill="#758a8e"
       id="path108" />
    <path
       d="M 192.05,44 176.6,43.75 c 1.334,1 2.717,2.133 4.15,3.4 2.833,2.566 4.434,4.55 4.8,5.949 0.367,1.434 -0.066,3.533 -1.3,6.301 -1.5,2.9 -2.417,4.732 -2.75,5.5 -0.533,1.133 -0.583,2.617 -0.15,4.449 l 0.801,2.4 5.399,0.15 L 187,70.35 c -0.366,-1.299 -0.55,-2.582 -0.55,-3.85 0,-0.833 1.483,-3.449 4.45,-7.85 2.899,-4.301 4.267,-7.217 4.1,-8.75 -0.2,-1.733 -0.75,-3.233 -1.65,-4.5 -0.47,-0.632 -0.9,-1.099 -1.3,-1.4 z"
       fill="#bacdd6"
       id="path110" />
    <path
       d="M 192.05,44 176.6,43.75 c 1.334,1 2.717,2.133 4.15,3.4 2.833,2.566 4.434,4.55 4.8,5.949 0.367,1.434 -0.066,3.533 -1.3,6.301 -1.5,2.9 -2.417,4.732 -2.75,5.5 -0.533,1.133 -0.583,2.617 -0.15,4.449 l 0.801,2.4 5.399,0.15 L 187,70.35 c -0.366,-1.299 -0.55,-2.582 -0.55,-3.85 0,-0.833 1.483,-3.449 4.45,-7.85 2.899,-4.301 4.267,-7.217 4.1,-8.75 -0.2,-1.733 -0.75,-3.233 -1.65,-4.5 -0.47,-0.632 -0.9,-1.099 -1.3,-1.4 z"
       fill="#a1b2b7"
       id="path112" />
    <path
       d="m 185.95,60.2 c 1.934,-3.899 2.816,-6.45 2.649,-7.649 -0.3,-2.201 -0.899,-4.334 -1.8,-6.4 l 6.65,-0.65 c -0.367,-0.533 -0.767,-0.967 -1.2,-1.3 l -14.8,0.25 c 1.633,1.267 3.149,2.567 4.55,3.899 2.033,2 3.217,3.584 3.55,4.75 0.367,1.434 -0.066,3.533 -1.3,6.301 -1.5,2.9 -2.417,4.732 -2.75,5.5 -0.533,1.133 -0.583,2.617 -0.15,4.449 l 0.801,2.4 2.35,0.051 C 184.1,71.2 183.8,70.5 183.6,69.7 c -0.1,-0.433 -0.183,-0.983 -0.25,-1.649 -0.2,-1.367 0.67,-3.985 2.6,-7.851 z"
       fill="#96a6aa"
       id="path114" />
    <path
       d="m 192.35,45.35 c 0.367,0.734 0.684,1.584 0.95,2.551 0.566,1.9 0.65,3.416 0.25,4.55 -0.3,0.8 -1.833,3.317 -4.6,7.55 -2.4,3.667 -3.517,5.95 -3.351,6.85 0.233,1.334 0.767,3.018 1.601,5.051 h 0.35 L 187,70.35 c -0.366,-1.299 -0.55,-2.582 -0.55,-3.85 0,-0.833 1.483,-3.449 4.45,-7.85 2.899,-4.301 4.267,-7.217 4.1,-8.75 -0.2,-1.801 -0.767,-3.334 -1.7,-4.6 z"
       fill="#a1b2b7"
       id="path116" />
    <path
       d="m 192.35,48.15 -0.35,0.5 c -0.333,0.367 -0.717,0.6 -1.15,0.699 -0.699,0.201 -1.449,-0.066 -2.25,-0.799 0.601,1.166 0.9,2.283 0.9,3.35 0,0.434 -0.1,1.083 -0.3,1.949 -0.134,0.533 -0.084,0.867 0.149,1 0.233,0.168 0.684,0.201 1.351,0.101 l 0.899,-0.25 c 0.233,-0.333 0.467,-0.733 0.7,-1.2 0.5,-0.934 0.816,-1.732 0.95,-2.4 0.2,-1.067 -0.1,-2.049 -0.9,-2.95 z"
       fill="#c5d6dd"
       id="path118" />
    <path
       d="m 185.45,65.65 -1.65,-0.4 c -0.1,1.4 -0.1,2.334 0,2.801 0.033,0.266 0.167,0.699 0.4,1.299 l 0.35,0.801 h 1.65 l -0.65,-2.1 c -0.23,-0.735 -0.27,-1.533 -0.1,-2.401 z"
       fill="#b1c1c4"
       id="path120" />
    <path
       d="m 176.6,43.75 c 1.334,1 2.717,2.133 4.15,3.4 2.833,2.566 4.434,4.55 4.8,5.949 0.367,1.434 -0.066,3.533 -1.3,6.301 -1.5,2.9 -2.417,4.732 -2.75,5.5 -0.533,1.133 -0.583,2.617 -0.15,4.449 l 0.801,2.4 1.1,0.051 c -0.167,-0.5 -0.366,-1.283 -0.6,-2.351 -0.267,-1.2 -0.384,-2.033 -0.351,-2.5 0.066,-1 0.483,-2.333 1.25,-4 0.434,-0.933 1.117,-2.267 2.05,-4 0.667,-1.366 1.117,-2.467 1.351,-3.3 0.267,-1.1 0.316,-2.35 0.149,-3.75 -0.1,-0.9 -0.649,-2.15 -1.649,-3.75 -0.834,-1.4 -1.184,-2.2 -1.05,-2.4 0.233,-0.333 3.149,-0.55 8.75,-0.65 -0.4,-0.5 -0.767,-0.866 -1.101,-1.1 z"
       fill="#8c989b"
       id="path122" />
    <path
       d="m 176.6,43.75 c 1.2,1.033 2.45,2.2 3.75,3.5 2.567,2.633 4.034,4.65 4.4,6.051 0.366,1.433 -0.05,3.566 -1.25,6.399 -1.434,2.967 -2.333,4.833 -2.7,5.601 -0.533,1.133 -0.467,2.549 0.2,4.25 l 1.15,2.199 h 0.449 c -0.399,-1.732 -0.75,-2.883 -1.05,-3.449 -0.267,-0.601 -0.1,-1.65 0.5,-3.15 0.267,-0.6 0.9,-1.9 1.9,-3.9 1.7,-3.434 2.5,-6.467 2.399,-9.1 -0.066,-1.334 -1.3,-3.117 -3.699,-5.35 -1.2,-1.134 -2.384,-2.134 -3.551,-3 l -2.5,-0.051 z"
       fill="#6d7a7a"
       id="path124" />
    <polygon
       points="177.2,46.801 180.35,47 176.6,43.75 173.85,44.2 "
       fill="#6a7d7f"
       id="polygon126" />
    <path
       d="m 180.6,67.4 -0.3,0.449 c -0.233,0.234 -0.517,0.25 -0.85,0.051 -0.266,-0.166 -0.49,-0.449 -0.675,-0.85 l 0.675,2.449 2.7,2.25 -1.56,-4.349 z"
       fill="#6d7a7a"
       id="path128" />
    <path
       d="m 179.45,62.5 c -0.533,0.801 -0.8,1.6 -0.8,2.4 l 0.15,1.7 c 0.2,0.467 0.533,0.434 1,-0.1 0.267,-0.333 0.533,-0.916 0.8,-1.75 0.134,-0.4 0.233,-0.783 0.301,-1.15 l -0.4,0.301 c -0.333,0.166 -0.566,0.166 -0.7,0 -0.23,-0.268 -0.35,-0.734 -0.35,-1.401 z"
       fill="#7c9396"
       id="path130" />
  </g>
  <g
     clip-rule="evenodd"
     fill-rule="evenodd"
     id="g167"
     transform="matrix(2.1092687,0,0,2.1092687,0.0485132,-27.42049)"
     style="display:inline">
    <radialGradient
       id="m"
       cx="23.75"
       cy="92.050003"
       r="6.6374998"
       gradientTransform="matrix(1,0,0,-0.6418,171.6,149.72)"
       gradientUnits="userSpaceOnUse">
      <stop
         stop-opacity=".4471"
         offset="0"
         id="stop134" />
      <stop
         stop-opacity="0"
         offset=".8118"
         id="stop136" />
    </radialGradient>
    <path
       d="m 195.35,86.021 c 2.033,0 3.75,0.463 5.15,1.387 1.434,0.886 2.149,1.964 2.149,3.234 0,1.348 -0.716,2.465 -2.149,3.351 -1.4,0.886 -3.117,1.328 -5.15,1.328 -2,0 -3.7,-0.442 -5.1,-1.328 -1.434,-0.886 -2.15,-2.003 -2.15,-3.351 0,-1.271 0.717,-2.349 2.15,-3.234 1.4,-0.924 3.1,-1.387 5.1,-1.387 z"
       fill="url(#m)"
       id="path139"
       style="fill:url(#m)" />
    <path
       d="m 189.91,54.27 -3.461,0.535 c 1.538,1.563 3.044,3.305 4.518,5.225 2.98,3.841 4.358,6.653 4.134,8.439 -0.225,1.563 -0.913,3.93 -2.066,7.1 -1.218,3.26 -1.907,5.358 -2.067,6.297 -0.225,1.295 -0.144,2.835 0.241,4.621 l 0.624,2.211 2.596,3.014 7.786,-36.236 -11.871,-1.205 h -0.43 z"
       fill="#7a8789"
       id="path141" />
    <path
       d="m 189.1,54.27 c 1.281,1.339 2.611,2.857 3.989,4.554 2.724,3.395 4.262,6.028 4.614,7.904 0.353,1.92 -0.064,4.733 -1.25,8.439 -1.442,3.885 -2.323,6.341 -2.644,7.368 -0.513,1.518 -0.561,3.505 -0.145,5.961 l 0.77,3.215 5.19,0.201 -0.528,-2.076 c -0.353,-1.742 -0.529,-3.461 -0.529,-5.158 0,-1.116 1.427,-4.621 4.278,-10.516 2.787,-5.76 4.101,-9.668 3.94,-11.722 -0.191,-2.321 -0.721,-4.331 -1.586,-6.028 -0.448,-0.848 -0.865,-1.451 -1.249,-1.809 L 189.11,54.27 Z"
       fill="#bacdd6"
       id="path143" />
    <path
       d="m 189.1,54.27 c 1.281,1.339 2.611,2.857 3.989,4.554 2.724,3.395 4.262,6.028 4.614,7.904 0.353,1.92 -0.064,4.733 -1.25,8.439 -1.442,3.885 -2.323,6.341 -2.644,7.368 -0.513,1.518 -0.561,3.505 -0.145,5.961 l 0.77,3.215 5.19,0.201 -0.528,-2.076 c -0.353,-1.742 -0.529,-3.461 -0.529,-5.158 0,-1.116 1.427,-4.621 4.278,-10.516 2.787,-5.76 4.101,-9.668 3.94,-11.722 -0.191,-2.321 -0.721,-4.331 -1.586,-6.028 -0.448,-0.848 -0.865,-1.451 -1.249,-1.809 L 189.11,54.27 Z"
       fill="#bacdd6"
       id="path145" />
    <path
       d="m 197.7,66.728 c 0.353,1.92 -0.064,4.733 -1.25,8.439 -1.442,3.885 -2.323,6.341 -2.644,7.368 -0.513,1.518 -0.561,3.505 -0.145,5.961 l 0.77,3.215 2.259,0.066 c -0.385,-0.804 -0.673,-1.74 -0.865,-2.813 -0.096,-0.58 -0.176,-1.317 -0.24,-2.211 -0.192,-1.83 0.642,-5.336 2.499,-10.516 1.858,-5.225 2.708,-8.64 2.548,-10.248 -0.288,-2.946 -0.865,-5.782 -1.73,-8.506 l 6.393,-0.938 c -0.449,-0.804 -0.833,-1.385 -1.154,-1.742 l -14.226,0.335 c 1.569,1.697 3.027,3.438 4.373,5.225 1.96,2.681 3.1,4.801 3.42,6.365 z"
       fill="#a1b2b7"
       id="path147" />
    <path
       d="m 204.24,56.412 c 0.353,0.982 0.657,2.1 0.913,3.35 0.545,2.545 0.625,4.576 0.24,6.095 -0.288,1.072 -1.763,4.443 -4.422,10.114 -2.307,4.912 -3.38,7.971 -3.22,9.177 0.224,1.785 0.736,4.041 1.538,6.765 h 0.336 l -0.528,-2.076 c -0.353,-1.742 -0.529,-3.461 -0.529,-5.158 0,-1.116 1.427,-4.621 4.278,-10.516 2.787,-5.76 4.101,-9.668 3.94,-11.722 -0.191,-2.411 -0.736,-4.465 -1.634,-6.162 l -0.92,0.133 z"
       fill="#a1b2b7"
       id="path149" />
    <path
       d="m 204.24,60.097 -0.337,0.67 c -0.32,0.491 -0.688,0.826 -1.105,1.004 -0.672,0.224 -1.394,-0.134 -2.162,-1.071 0.576,1.519 0.864,2.991 0.864,4.421 0,0.58 -0.096,1.451 -0.288,2.612 -0.128,0.714 -0.08,1.161 0.145,1.34 0.225,0.223 0.657,0.268 1.298,0.133 l 0.865,-0.335 c 0.224,-0.445 0.448,-0.981 0.673,-1.606 0.48,-1.251 0.784,-2.322 0.913,-3.215 0.19,-1.431 -0.09,-2.748 -0.86,-3.953 z"
       fill="#c5d6dd"
       id="path151" />
    <path
       d="m 197.6,83.539 -1.586,-0.535 c -0.096,1.875 -0.096,3.125 0,3.75 0.032,0.357 0.16,0.938 0.385,1.742 l 0.336,1.071 h 1.586 l -0.624,-2.813 c -0.23,-0.983 -0.27,-2.054 -0.11,-3.215 z"
       fill="#c5d6dd"
       id="path153" />
    <path
       d="m 189.1,54.27 c 1.281,1.339 2.611,2.857 3.989,4.554 2.724,3.395 4.262,6.028 4.614,7.904 0.353,1.92 -0.064,4.733 -1.25,8.439 -1.442,3.885 -2.323,6.341 -2.644,7.368 -0.513,1.518 -0.561,3.505 -0.145,5.961 l 0.77,3.215 1.057,0.066 c -0.159,-0.625 -0.352,-1.674 -0.576,-3.147 -0.257,-1.607 -0.368,-2.724 -0.336,-3.35 0.063,-1.339 0.464,-3.125 1.201,-5.358 0.416,-1.25 1.073,-3.036 1.971,-5.358 0.641,-1.83 1.073,-3.304 1.298,-4.42 0.256,-1.474 0.305,-3.148 0.144,-5.023 -0.096,-1.206 -0.625,-2.88 -1.586,-5.023 -0.801,-1.831 -1.137,-2.88 -1.009,-3.148 0.224,-0.491 3.027,-0.804 8.411,-0.938 -0.386,-0.67 -0.738,-1.139 -1.058,-1.407 l -14.83,-0.335 z"
       fill="#96a6aa"
       id="path155" />
    <path
       d="m 189.1,54.27 c 1.153,1.384 2.355,2.947 3.604,4.688 2.468,3.482 3.877,6.162 4.229,8.037 0.353,1.921 -0.048,4.778 -1.201,8.573 -1.378,3.975 -2.243,6.476 -2.596,7.502 -0.513,1.519 -0.448,3.416 0.192,5.693 l 1.105,2.947 0.433,0.066 c -0.385,-2.276 -0.722,-3.84 -1.01,-4.688 -0.256,-0.804 -0.096,-2.21 0.481,-4.22 0.256,-0.804 0.864,-2.545 1.826,-5.224 1.634,-4.6 2.402,-8.663 2.307,-12.19 -0.063,-1.741 -1.25,-4.131 -3.557,-7.167 -1.153,-1.519 -2.291,-2.858 -3.412,-4.019 h -2.39 z"
       fill="#6d7a7a"
       id="path157" />
    <path
       d="m 203.8,57.819 -2.451,-0.201 c 1.058,3.349 1.538,5.737 1.441,7.167 -0.128,1.92 -0.849,4.711 -2.162,8.372 -0.449,1.206 -1.218,3.282 -2.308,6.229 -0.929,2.5 -1.409,4.063 -1.441,4.688 -0.064,1.027 0.08,2.099 0.433,3.215 l 0.576,1.407 -0.384,-1.608 c -0.225,-1.161 -0.337,-1.986 -0.337,-2.478 0,-0.536 0.337,-1.742 1.01,-3.617 0.384,-1.026 0.913,-2.456 1.586,-4.287 0.225,-0.714 1.041,-2.433 2.451,-5.157 1.441,-2.724 2.307,-4.51 2.595,-5.358 0.353,-1.027 0.289,-2.724 -0.192,-5.09 -0.23,-1.205 -0.51,-2.299 -0.83,-3.282 z"
       fill="#cee8ef"
       id="path159" />
    <polygon
       points="189.67,58.288 192.7,58.556 189.1,54.27 186.45,54.805 "
       fill="#6d7a7a"
       id="polygon161" />
    <path
       d="m 192.94,85.884 -0.288,0.603 c -0.225,0.313 -0.496,0.335 -0.817,0.067 -0.255,-0.222 -0.471,-0.602 -0.648,-1.139 l 0.648,3.282 2.596,3.014 -1.49,-5.827 z"
       fill="#6a7d7f"
       id="path163" />
    <path
       d="m 191.84,79.32 c -0.513,1.071 -0.769,2.143 -0.769,3.215 l 0.145,2.277 c 0.191,0.624 0.512,0.58 0.961,-0.135 0.256,-0.446 0.513,-1.228 0.769,-2.344 0.128,-0.536 0.225,-1.049 0.289,-1.54 l -0.385,0.401 c -0.32,0.223 -0.545,0.223 -0.673,0 -0.24,-0.356 -0.35,-0.981 -0.35,-1.874 z"
       fill="#7c9396"
       id="path165" />
  </g>
  <radialGradient
     id="n"
     cx="254.25"
     cy="-80.25"
     r="167.67999"
     gradientTransform="matrix(1.2621864,0,0,-0.23919107,-89.173553,115.74612)"
     gradientUnits="userSpaceOnUse">
    <stop
       stop-opacity=".2"
       offset="0"
       id="stop169" />
    <stop
       stop-opacity="0"
       offset="1"
       id="stop171" />
  </radialGradient>
  <path
     d="M 67.903686,103.90047 C 113.08844,95.343163 167.69951,91.067683 231.73269,91.067683 c 64.03318,0 118.66324,4.27548 163.89018,12.832787 45.22693,8.55519 67.8404,18.90115 67.8404,31.03999 0,12.13884 -22.61347,22.48481 -67.8404,31.04 -45.22694,8.55519 -99.857,12.83279 -163.89018,12.83279 -64.03318,0 -118.64214,-4.2797 -163.826895,-12.8349 C 22.636671,157.42527 0,147.0772 0,134.94046 0,122.80373 22.636671,112.45355 67.905795,103.90047 Z"
     clip-rule="evenodd"
     fill="url(#n)"
     fill-rule="evenodd"
     id="path174"
     style="display:inline;fill:url(#n);stroke-width:2.10927" />
  <use
     transform="matrix(2.1092687,0,0,-2.1092687,26.162623,-160.83882)"
     y="-83.071999"
     width="209.39999"
     height="83.071999"
     xlink:href="#p"
     id="use176"
     x="0"
     style="display:inline" />
  <use
     transform="matrix(1,0,0,-1,110,-90.706714)"
     x="16383"
     y="16383"
     width="-32766"
     height="-32766"
     xlink:href="#o"
     id="use178" />
</svg>
