<?xml version="1.0" encoding="UTF-8" standalone="no"?>
<svg
   id="Layer_1"
   xml:space="preserve"
   sodipodi:version="0.32"
   viewBox="0 0 472.44094 332.59842"
   version="1.0"
   sodipodi:docname="13977367228476.svg"
   width="125mm"
   height="88mm"
   inkscape:version="1.2.2 (732a01da63, 2022-12-09)"
   xmlns:inkscape="http://www.inkscape.org/namespaces/inkscape"
   xmlns:sodipodi="http://sodipodi.sourceforge.net/DTD/sodipodi-0.dtd"
   xmlns="http://www.w3.org/2000/svg"
   xmlns:svg="http://www.w3.org/2000/svg"
   xmlns:rdf="http://www.w3.org/1999/02/22-rdf-syntax-ns#"
   xmlns:cc="http://creativecommons.org/ns#"
   xmlns:dc="http://purl.org/dc/elements/1.1/"><defs
   id="defs3324">
	
	
	
	
	
	
	
	
	
	
	
	
	
	
	
	
	
	
	
	
	
	
	
	
	
	
	
	
	
	
	
	
	
	
	
	
	
	
	
	
	
	
	
	
	
	
	
	
	
	
	
	
	
	
	
	
	
	
	
	
	
	
	
	
	
	
	
	
	
	
	
	
	
	
	
	
	
	
	
	
	
	
	
	
</defs>
<sodipodi:namedview
   id="base"
   bordercolor="#666666"
   borderopacity="1.0"
   pagecolor="#ffffff"
   inkscape:showpageshadow="0"
   inkscape:pageopacity="0"
   inkscape:pagecheckerboard="0"
   inkscape:deskcolor="#d1d1d1"
   showgrid="false"
   inkscape:zoom="1.6965982"
   inkscape:cx="368.97364"
   inkscape:cy="136.44952"
   inkscape:current-layer="Layer_1"
   inkscape:document-units="mm" />
<g
   id="g4002"><polygon
     id="polygon5"
     points="336.48,253.37 324.56,258.63 313.48,263.34 303.79,268.05 291.6,273.31 273.59,280.52 251.15,288.83 225.94,298.25 199.9,307.39 174.41,316.25 151.14,324.29 131.75,330.38 117.89,334.54 111.24,335.92 106.53,334.54 98.222,331.21 87.141,326.23 74.397,320.41 60.821,314.04 47.524,307.67 35.058,301.57 24.806,296.31 17.327,292.7 13.447,290.49 13.171,289.38 14.557,288 17.05,286.61 20.928,284.95 25.361,283.29 30.07,281.62 35.058,280.24 39.49,279.13 43.369,278.3 46.416,278.02 56.666,276.08 80.769,270.82 114.84,263.06 155.85,253.64 199.9,243.39 243.67,233.14 284.12,223.72 317.08,215.97 339.25,210.7 347.56,208.76 347.56,208.76 347.56,208.49 351.72,209.87 356.43,211.81 361.69,213.75 367.51,215.69 373.05,217.9 378.59,220.12 383.58,222.06 387.73,224 391.06,225.39 392.72,226.49 392.16,228.16 387.73,230.65 380.8,234.25 371.66,238.4 360.58,243.12 348.67,248.1 "
     fill="#bdbdbd"
     transform="matrix(0.96841668,0,0,0.96841668,43.470738,5.2878945)" /><polygon
     id="polygon7"
     points="333.15,250.87 321.8,255.86 310.99,260.29 301.57,264.72 289.38,269.99 271.65,277.19 249.49,285.23 224.83,294.09 199.07,303.23 174.13,311.82 151.14,319.3 132.02,325.12 118.45,329 111.8,330.38 107.36,329 99.607,325.95 89.08,321.79 77.168,316.25 64.424,310.44 51.68,304.62 40.044,299.08 30.347,294.37 23.421,291.04 19.82,289.11 19.265,288 20.374,286.89 22.868,285.78 26.192,284.67 30.347,283.56 34.78,282.46 39.49,281.62 43.646,281.07 47.247,280.52 50.294,280.52 60.544,278.3 84.094,273.04 117.89,265 158.34,255.03 201.84,244.5 245.05,233.97 284.95,224.28 317.36,216.24 339.53,210.7 347.56,208.76 347.56,208.76 347.56,208.49 351.44,209.87 355.59,211.81 360.03,213.75 364.74,215.69 369.17,217.9 373.6,220.12 377.48,222.06 380.8,224 383.3,225.39 384.96,226.49 384.4,228.16 380.53,230.37 374.16,233.7 365.57,237.3 355.59,241.73 344.51,246.16 "
     fill="#404040"
     transform="matrix(0.96841668,0,0,0.96841668,43.470738,5.2878945)" /><polygon
     id="polygon9"
     points="165.54,172.19 150.86,167.76 134.79,159.72 117.34,147.81 127.04,143.38 140.61,135.62 157.23,124.82 175.79,111.8 195.19,97.946 214.02,83.816 231.48,70.242 246.44,58.052 257.52,48.079 264.17,41.707 264.17,41.707 263.89,41.43 264.17,50.849 264.45,61.376 264.73,73.012 264.73,85.202 263.89,97.391 262.23,109.58 259.46,121.22 255.31,131.47 249.21,140.61 241.45,147.81 232.31,153.91 222.89,160 213.19,165.54 202.39,169.98 191.03,173.02 178.84,173.86 "
     fill="#55ba45"
     transform="matrix(0.96841668,0,0,0.96841668,43.470738,5.2878945)" /><polygon
     id="polygon11"
     points="302.68,123.99 307.11,123.99 309.88,123.99 310.99,123.99 311.27,112.08 311.54,101.55 311.82,92.683 311.82,85.479 311.82,79.384 311.82,74.674 311.82,71.073 311.82,68.857 311.82,67.471 311.82,66.917 264.17,41.707 264.17,41.707 263.89,41.43 264.17,46.693 264.45,53.62 265,61.653 265.28,70.796 265.28,80.493 265.28,90.189 265,99.886 264.17,109.03 262.79,117.06 260.57,123.99 265.28,123.99 271.1,123.99 277.74,123.99 284.4,123.99 291.04,123.99 297.14,123.99 "
     fill="#99ff66"
     transform="matrix(0.96841668,0,0,0.96841668,43.470738,5.2878945)" /><polygon
     id="polygon13"
     points="277.19,119 270.82,118.45 265.56,118.17 261.12,118.17 263.06,112.35 264.17,105.43 265,97.946 265.28,89.635 265.28,81.324 265,73.012 264.73,65.256 264.45,58.33 264.17,52.234 264.17,47.801 311.82,73.012 311.82,73.012 311.54,73.012 311.82,73.567 311.82,74.674 311.82,76.891 311.82,80.215 311.82,84.371 311.82,89.635 311.82,96.006 311.54,103.49 311.54,112.35 310.99,122.32 310.16,122.32 307.11,122.05 302.4,121.5 296.86,120.94 290.49,120.11 283.84,119.55 "
     fill="#7ed953"
     transform="matrix(0.96841668,0,0,0.96841668,43.470738,5.2878945)" /><polygon
     id="polygon15"
     points="276.64,114.01 270.54,112.91 265.56,112.35 261.96,112.08 263.34,107.64 264.17,102.1 264.73,95.73 265,89.08 265,82.154 265,75.505 264.73,68.857 264.45,63.039 264.17,57.775 264.17,53.62 311.82,79.108 311.82,79.384 311.82,80.769 311.82,82.708 311.82,85.479 311.82,89.357 311.82,93.791 311.82,99.332 311.82,105.43 311.54,112.63 311.27,120.94 310.16,120.66 307.11,119.83 302.4,119 296.59,117.89 290.21,116.51 283.28,115.12 "
     fill="#70bf49"
     transform="matrix(0.96841668,0,0,0.96841668,43.470738,5.2878945)" /><polygon
     id="polygon17"
     points="276.08,109.03 270.27,107.64 265.56,106.54 262.51,106.26 263.62,102.66 264.17,98.5 264.73,93.791 265,88.526 265,83.263 264.73,77.722 264.73,72.458 264.45,67.749 264.45,63.315 264.17,59.715 311.82,85.202 311.82,85.202 311.82,84.925 311.82,85.479 311.82,86.587 311.82,88.526 312.1,91.02 312.1,94.067 312.1,97.946 311.82,102.38 311.82,107.36 311.82,113.18 311.54,119.28 310.44,119 307.11,117.89 302.13,116.51 296.31,114.57 289.66,112.63 282.73,110.69 "
     fill="#69b344"
     transform="matrix(0.96841668,0,0,0.96841668,43.470738,5.2878945)" /><polygon
     id="polygon19"
     points="275.81,104.04 269.99,102.1 265.56,100.72 263.06,100.16 263.89,97.946 264.45,94.898 264.73,91.574 264.73,87.973 264.73,84.094 264.73,79.938 264.73,76.06 264.45,72.458 264.45,68.857 264.45,65.809 311.82,91.297 311.82,91.297 311.82,91.02 311.82,91.574 312.1,92.683 312.1,94.345 312.1,96.284 312.1,99.054 312.1,102.1 312.1,105.7 311.82,109.58 311.82,113.46 311.82,117.62 310.44,117.34 307.11,115.95 302.13,114.01 296.03,111.52 289.1,109.03 282.18,106.54 "
     fill="#60a63f"
     transform="matrix(0.96841668,0,0,0.96841668,43.470738,5.2878945)" /><polygon
     id="polygon21"
     points="275.25,99.054 269.71,96.561 265.83,94.898 263.89,94.345 264.17,93.236 264.45,91.574 264.45,89.635 264.73,87.419 264.73,84.925 264.73,82.432 264.45,79.661 264.45,77.167 264.45,74.398 264.45,71.904 312.1,97.115 312.1,97.115 311.82,97.115 312.1,97.668 312.1,98.5 312.1,99.886 312.1,101.82 312.1,104.04 312.1,106.54 312.1,109.03 312.1,111.52 311.82,114.01 311.82,116.23 310.71,115.68 307.11,114.01 301.85,111.52 295.75,108.47 288.83,105.15 281.62,102.1 "
     fill="#5a993a"
     transform="matrix(0.96841668,0,0,0.96841668,43.470738,5.2878945)" /><polygon
     id="polygon23"
     points="264.45,83.263 264.45,84.648 264.45,85.756 264.45,86.864 264.45,87.419 264.45,87.973 264.45,88.25 264.45,88.526 312.1,114.57 312.1,103.21 264.45,77.999 264.45,79.938 264.45,81.601 "
     fill="#528c35"
     transform="matrix(0.96841668,0,0,0.96841668,43.470738,5.2878945)" /><polygon
     id="polygon25"
     points="298.52,60.269 295.48,58.605 292.43,56.945 289.1,55.282 285.78,53.62 282.73,51.68 279.68,50.294 277.19,48.909 274.7,47.524 272.48,46.416 270.82,45.308 269.16,44.478 267.77,43.646 266.94,43.093 266.11,42.815 265.28,42.538 264.73,42.26 263.89,42.26 263.34,42.538 262.51,42.815 261.96,43.369 261.12,43.923 260.29,44.753 259.46,45.863 257.8,47.524 255.03,50.018 251.43,53.064 247.27,56.39 242.84,59.715 238.41,63.039 234.53,65.809 231.48,68.302 229.26,69.964 228.71,70.519 186.88,67.471 196.57,60.545 205.99,54.174 215.13,47.524 223.72,41.152 232.03,34.781 239.79,28.408 246.72,22.037 253.09,15.664 258.63,9.016 263.34,2.644 264.73,1.536 266.94,0.704 270.27,0.151 274.14,0.427 279.13,0.704 284.4,1.536 290.49,2.921 297.14,4.582 304.06,6.522 311.82,8.738 319.58,11.786 327.34,15.111 334.82,18.989 342.3,22.868 348.94,26.746 355.32,30.348 360.58,33.949 365.01,36.997 368.62,39.212 370.55,40.875 371.66,41.707 372.22,43.093 372.49,44.478 372.49,46.139 371.94,48.079 371.11,50.294 369.72,52.789 367.78,55.559 365.29,58.605 361.97,61.931 356.43,67.194 345.34,77.999 329.55,92.405 310.44,109.58 289.1,128.14 266.66,146.98 244.5,164.99 223.17,180.23 204.33,192.14 189.09,199.34 176.62,202.39 164.99,203.22 154.46,201.84 144.49,198.51 135.35,192.97 126.48,185.21 117.89,175.52 109.3,163.88 100.99,150.03 92.405,134.52 98.777,130.91 105.98,126.76 114.01,122.05 122.05,116.78 130.36,111.52 138.12,106.26 145.32,101.27 151.97,96.561 157.23,92.405 161.11,89.357 161.11,95.175 160.56,100.99 159.45,106.54 157.79,111.8 156.12,116.78 153.91,121.22 151.69,125.1 149.75,128.42 147.81,130.64 146.15,132.02 144.49,133.41 141.72,135.07 138.39,137.01 134.79,138.95 131.19,141.16 127.59,143.1 124.54,145.04 122.05,146.43 120.39,147.54 119.83,147.81 124.82,151.42 130.64,154.74 136.73,158.06 143.1,161.39 149.48,164.16 155.57,166.93 161.11,168.87 166.38,170.53 170.81,171.64 174.41,171.92 174.96,171.92 175.79,171.92 176.35,171.92 177.18,171.92 177.73,171.64 178.56,171.64 179.12,171.36 179.95,171.36 180.5,171.08 181.06,171.08 183.28,170.25 185.49,169.42 187.98,168.04 190.48,166.65 192.97,164.99 196.02,163.33 199.07,161.11 202.39,158.62 206.27,156.12 210.42,153.35 210.42,153.08 210.7,153.08 210.98,152.8 211.26,152.8 211.53,152.52 211.53,152.25 211.81,152.25 212.09,151.97 212.36,151.97 212.36,151.69 218.18,147.81 223.17,144.21 227.6,141.16 231.2,138.4 234.25,136.18 236.47,134.52 238.41,133.13 239.79,132.02 240.34,131.47 240.62,131.47 240.9,131.47 241.18,131.75 241.73,132.02 242.28,132.58 243.11,133.13 243.95,133.68 244.78,133.96 245.61,134.24 246.44,134.52 246.99,134.52 247.27,134.52 247.55,134.24 248.1,133.96 248.66,133.41 249.21,133.13 249.76,132.58 250.6,132.02 251.15,131.19 251.98,130.64 252.81,130.08 253.92,128.98 254.75,128.14 255.86,127.31 256.69,126.48 257.52,125.65 258.08,124.82 258.91,124.26 259.18,123.71 259.74,123.16 259.74,122.88 259.74,122.32 259.46,122.05 258.91,121.5 258.08,121.22 257.52,120.94 256.69,120.66 255.86,120.39 255.31,120.11 254.75,120.11 254.75,120.11 255.03,119.83 255.58,119 256.69,118.17 258.08,116.78 259.46,115.12 261.12,113.46 263.06,111.8 264.73,109.86 266.66,108.2 268.33,106.81 269.16,106.26 269.71,105.43 270.82,104.6 271.93,103.49 273.31,102.38 274.42,101.27 276.08,99.886 277.47,98.777 279.13,97.115 281.07,95.73 281.07,95.73 280.79,95.453 284.67,92.405 288.83,88.804 292.71,85.202 296.31,81.878 299.91,78.553 303.23,75.505 305.73,72.735 307.94,70.519 309.33,68.857 309.6,67.749 309.33,66.917 308.77,65.809 307.39,64.979 305.73,63.87 303.51,62.761 301.29,61.376 "
     fill="#a6ff66"
     transform="matrix(0.96841668,0,0,0.96841668,43.470738,5.2878945)" /><polyline
     id="polyline27"
     points="280.79 95.453 284.67 92.405 288.83 88.804 292.71 85.202 296.31 81.878 299.91 78.553 303.23 75.505 305.73 72.735 307.94 70.519 309.33 68.857 309.6 67.749 309.33 66.917 308.77 65.809 307.39 64.979 305.73 63.87 303.51 62.761 301.29 61.376 298.52 60.269 295.48 58.605 292.43 56.945 289.1 55.282 285.78 53.62 282.73 51.68 279.68 50.294 277.19 48.909 274.7 47.524 272.48 46.416 270.82 45.308 269.16 44.478 267.77 43.646 266.94 43.093 266.11 42.815 265.28 42.538 264.73 42.26 263.89 42.26 263.34 42.538 262.51 42.815 261.96 43.369 261.12 43.923 260.29 44.753 259.46 45.863 257.8 47.524 255.03 50.018 251.43 53.064 247.27 56.39 242.84 59.715 238.41 63.039 234.53 65.809 231.48 68.302 229.26 69.964 228.71 70.519 186.88 67.471 196.57 60.545 205.99 54.174 215.13 47.524 223.72 41.152 232.03 34.781 239.79 28.408 246.72 22.037 253.09 15.664 258.63 9.016 263.34 2.644 264.73 1.536 266.94 0.704 270.27 0.151 274.14 0.427 279.13 0.704 284.4 1.536 290.49 2.921 297.14 4.582 304.06 6.522 311.82 8.738 319.58 11.786 327.34 15.111 334.82 18.989 342.3 22.868 348.94 26.746 355.32 30.348 360.58 33.949 365.01 36.997 368.62 39.212 370.55 40.875 371.66 41.707 372.22 43.093 372.49 44.478 372.49 46.139 371.94 48.079 371.11 50.294 369.72 52.789 367.78 55.559 365.29 58.605 361.97 61.931 356.43 67.194 345.34 77.999 329.55 92.405 310.44 109.58 289.1 128.14 266.66 146.98 244.5 164.99 223.17 180.23 204.33 192.14 189.09 199.34 176.62 202.39 164.99 203.22 154.46 201.84 144.49 198.51 135.35 192.97 126.48 185.21 117.89 175.52 109.3 163.88 100.99 150.03 92.405 134.52 98.777 130.91 105.98 126.76 114.01 122.05 122.05 116.78 130.36 111.52 138.12 106.26 145.32 101.27 151.97 96.561 157.23 92.405 161.11 89.357 161.11 95.175 160.56 100.99 159.45 106.54 157.79 111.8 156.12 116.78 153.91 121.22 151.69 125.1 149.75 128.42 147.81 130.64 146.15 132.02 144.49 133.41 141.72 135.07 138.39 137.01 134.79 138.95 131.19 141.16 127.59 143.1 124.54 145.04 122.05 146.43 120.39 147.54 119.83 147.81 124.82 151.42 130.64 154.74 136.73 158.06 143.1 161.39 149.48 164.16 155.57 166.93 161.11 168.87 166.38 170.53 170.81 171.64 174.41 171.92 174.96 171.92 175.79 171.92 176.35 171.92 177.18 171.92 177.73 171.64 178.56 171.64 179.12 171.36 179.95 171.36 180.5 171.08 181.06 171.08 183.28 170.25 185.49 169.42 187.98 168.04 190.48 166.65 192.97 164.99 196.02 163.33 199.07 161.11 202.39 158.62 206.27 156.12 210.42 153.35 210.42 153.08 210.7 153.08 210.98 152.8 211.26 152.8 211.53 152.52 211.53 152.25 211.81 152.25 212.09 151.97 212.36 151.97 212.36 151.69 218.18 147.81 223.17 144.21 227.6 141.16 231.2 138.4 234.25 136.18 236.47 134.52 238.41 133.13 239.79 132.02 240.34 131.47 240.62 131.47 240.9 131.47 241.18 131.75 241.73 132.02 242.28 132.58 243.11 133.13 243.95 133.68 244.78 133.96 245.61 134.24 246.44 134.52 246.99 134.52 247.27 134.52 247.55 134.24 248.1 133.96 248.66 133.41 249.21 133.13 249.76 132.58 250.6 132.02 251.15 131.19 251.98 130.64 252.81 130.08 253.92 128.98 254.75 128.14 255.86 127.31 256.69 126.48 257.52 125.65 258.08 124.82 258.91 124.26 259.18 123.71 259.74 123.16 259.74 122.88 259.74 122.32 259.46 122.05 258.91 121.5 258.08 121.22 257.52 120.94 256.69 120.66 255.86 120.39 255.31 120.11 254.75 120.11 254.75 120.11 255.03 119.83 255.58 119 256.69 118.17 258.08 116.78 259.46 115.12 261.12 113.46 263.06 111.8 264.73 109.86 266.66 108.2 268.33 106.81 269.16 106.26 269.71 105.43 270.82 104.6 271.93 103.49 273.31 102.38 274.42 101.27 276.08 99.886 277.47 98.777 279.13 97.115 281.07 95.73 281.07 95.73"
     stroke="#000000"
     stroke-linecap="square"
     stroke-miterlimit="10"
     stroke-width="0.3"
     fill="none"
     transform="matrix(0.96841668,0,0,0.96841668,43.470738,5.2878945)" /><polygon
     id="polygon29"
     points="259.46,115.12 258.08,116.78 256.69,118.17 255.58,119 255.03,119.83 254.75,120.11 254.75,120.11 255.31,120.11 255.86,120.39 256.69,120.66 257.52,120.94 258.08,121.22 258.91,121.5 259.46,122.05 259.74,122.32 259.74,122.88 259.74,123.16 259.18,123.71 258.91,124.26 258.08,124.82 257.52,125.65 256.69,126.48 255.86,127.31 254.75,128.14 253.92,128.98 252.81,130.08 251.98,130.64 251.15,131.19 250.6,132.02 249.76,132.58 249.21,133.13 248.66,133.41 248.1,133.96 247.55,134.24 247.27,134.52 246.99,134.52 246.44,134.52 245.61,134.24 244.78,133.96 243.95,133.68 243.11,133.13 242.28,132.58 241.73,132.02 241.18,131.75 240.9,131.47 240.62,131.47 240.34,131.47 239.79,132.02 238.41,133.13 236.47,134.52 234.25,136.18 231.2,138.4 227.6,141.16 223.17,144.21 218.18,147.81 212.36,151.69 212.36,151.97 212.09,151.97 211.81,152.25 211.53,152.25 211.53,152.52 211.26,152.8 210.98,152.8 210.7,153.08 210.42,153.08 210.42,153.35 206.27,156.12 202.39,158.62 199.07,161.11 196.02,163.33 192.97,164.99 190.48,166.65 187.98,168.04 185.49,169.42 183.28,170.25 181.06,171.08 179.95,166.38 178.84,161.67 177.73,156.68 177.18,151.69 176.9,146.43 177.18,141.16 177.46,135.62 178.29,130.08 179.67,124.54 181.33,119 186.04,107.36 191.86,96.561 198.51,86.864 205.99,78.553 213.75,71.626 222.06,66.086 230.65,62.208 239.24,59.991 247.82,59.715 256.14,61.653 256.69,61.931 257.24,61.931 257.52,62.208 258.08,62.485 258.63,62.761 258.91,63.039 259.46,63.315 260.02,63.593 260.29,63.87 260.85,64.146 260.85,64.146 260.57,64.146 263.89,66.363 266.66,69.134 269.43,72.458 271.93,75.783 274.14,79.108 276.08,82.708 277.74,86.034 279.41,89.357 280.52,92.405 281.35,95.175 279.68,96.838 278.02,98.223 276.36,99.609 274.7,100.99 273.31,102.38 272.2,103.49 270.82,104.6 269.99,105.43 269.16,106.26 268.33,106.81 266.66,108.2 264.73,109.86 263.06,111.8 261.12,113.46 "
     fill="#b8b8b8"
     transform="matrix(0.95302586,0,0,0.97820321,46.193375,3.6136223)" /><polyline
     id="polyline31"
     points="256.14 61.653 256.69 61.931 257.24 61.931 257.52 62.208 258.08 62.485 258.63 62.761 258.91 63.039 259.46 63.315 260.02 63.593 260.29 63.87 260.85 64.146 263.89 66.363 266.66 69.134 269.43 72.458 271.93 75.783 274.14 79.108 276.08 82.708 277.74 86.034 279.41 89.357 280.52 92.405 281.35 95.175"
     stroke="#000000"
     stroke-linecap="square"
     stroke-miterlimit="10"
     stroke-width="0.2"
     fill="none"
     transform="matrix(0.96841668,0,0,0.96841668,43.470738,5.2878945)" /><polyline
     id="polyline33"
     points="210.15 153.08 206.27 156.12 202.39 158.62 199.07 161.11 196.02 163.33 192.97 164.99 190.48 166.65 187.98 168.04 185.49 169.42 183.28 170.25 181.06 171.08"
     stroke="#000000"
     stroke-linecap="square"
     stroke-miterlimit="10"
     stroke-width="0.1"
     fill="none"
     transform="matrix(0.96841668,0,0,0.96841668,43.470738,5.2878945)" /><polyline
     id="polyline35"
     points="268.33 106.81 266.66 108.2 264.73 109.86 263.06 111.8 261.12 113.46 259.46 115.12 258.08 116.78 256.69 118.17 255.58 119 255.03 119.83 254.75 120.11 254.75 120.11 255.31 120.11 255.86 120.39 256.69 120.66 257.52 120.94 258.08 121.22 258.91 121.5 259.46 122.05 259.74 122.32 259.74 122.88"
     stroke="#000000"
     stroke-linecap="square"
     stroke-miterlimit="10"
     stroke-width="0.1"
     fill="none"
     transform="matrix(0.96841668,0,0,0.96841668,43.470738,5.2878945)" /><polyline
     id="polyline37"
     points="259.74 122.6 259.74 123.16 259.18 123.71 258.91 124.26 258.08 124.82 257.52 125.65 256.69 126.48 255.86 127.31 254.75 128.14 253.92 128.98 252.81 130.08"
     stroke="#000000"
     stroke-linecap="square"
     stroke-miterlimit="10"
     stroke-width="0.1"
     fill="none"
     transform="matrix(0.96841668,0,0,0.96841668,43.470738,5.2878945)" /><polygon
     id="polygon39"
     points="254.75,126.48 254.75,127.04 254.75,127.59 254.75,127.59 255.58,127.04 256.14,126.48 256.97,125.93 257.52,125.37 258.08,124.82 258.63,124.26 259.18,123.71 259.46,123.44 259.74,123.16 259.74,122.88 259.74,122.88 259.74,122.6 259.74,122.32 259.46,122.05 258.91,121.5 258.08,121.22 257.52,120.94 256.69,120.66 255.86,120.39 255.31,120.11 254.75,120.11 254.75,120.66 254.75,121.77 254.75,122.6 254.75,123.71 254.75,124.54 254.75,125.65 "
     fill="#1fb316"
     transform="matrix(0.96841668,0,0,0.96841668,43.470738,5.2878945)" /><polyline
     id="polyline41"
     points="259.74 122.6 259.74 122.32 259.46 122.05 258.91 121.5 258.08 121.22 257.52 120.94 256.69 120.66 255.86 120.39 255.31 120.11 254.75 120.11 254.75 120.11 254.75 120.66 254.75 121.77 254.75 122.6 254.75 123.71 254.75 124.54 254.75 125.65 254.75 126.48 254.75 127.04 254.75 127.59 254.75 127.59 255.58 127.04 256.14 126.48 256.97 125.93 257.52 125.37 258.08 124.82 258.63 124.26 259.18 123.71 259.46 123.44 259.74 123.16 259.74 122.88 259.74 122.88"
     stroke="#000000"
     stroke-linecap="square"
     stroke-miterlimit="10"
     stroke-width="0.1"
     fill="none"
     transform="matrix(0.96841668,0,0,0.96841668,43.470738,5.2878945)" /><polygon
     id="polygon43"
     points="230.65,104.04 234.25,103.21 237.85,102.93 241.45,103.76 243.67,104.87 245.88,106.54 247.55,108.47 249.21,110.69 250.6,113.46 251.43,116.51 252.26,119.55 252.81,122.88 253.09,126.2 253.09,129.81 252.26,130.36 251.43,131.19 250.87,131.75 250.04,132.3 249.21,132.85 248.66,133.41 248.1,133.96 247.55,134.24 247.27,134.52 246.99,134.52 246.44,134.52 245.61,134.24 244.78,133.96 243.95,133.68 243.11,133.13 242.28,132.58 241.73,132.02 241.18,131.75 240.9,131.47 240.62,131.47 240.34,131.47 239.79,132.02 238.41,133.13 236.47,134.52 234.25,136.18 231.2,138.4 227.6,141.16 223.17,144.21 218.18,147.81 212.36,151.69 212.36,151.97 212.09,151.97 211.81,152.25 211.53,152.25 211.53,152.52 211.26,152.8 210.98,152.8 210.7,153.08 210.42,153.08 210.42,153.35 210.42,153.35 210.15,153.08 209.59,151.14 208.76,148.92 208.21,146.43 207.93,144.21 207.65,141.44 207.65,138.95 207.93,136.18 208.21,133.41 209.04,130.64 209.87,127.87 211.81,122.88 214.3,118.45 217.07,114.57 220.12,110.97 223.44,107.92 227.05,105.7 "
     fill="#0d0d0d"
     transform="matrix(0.96841668,0,0,0.96841668,43.470738,5.2878945)" /><polygon
     id="polygon45"
     points="237.57,59.438 228.99,61.653 220.95,65.809 212.92,71.35 205.16,78.276 198.24,86.864 191.86,96.561 186.04,107.36 181.33,119 179.67,124.54 178.29,130.08 177.46,135.62 177.18,141.16 176.9,146.43 177.18,151.69 177.73,156.68 178.84,161.67 179.95,166.38 181.06,171.08 178.01,171.92 174.41,171.92 170.53,171.64 166.38,170.53 161.94,169.15 157.51,167.76 153.35,165.82 149.2,164.16 145.32,162.22 141.99,160.56 141.99,160.56 141.72,160.56 140.61,156.12 139.5,151.14 138.67,146.43 138.39,141.16 138.12,135.9 138.12,130.64 138.67,125.1 139.78,119.55 140.89,114.01 142.83,108.47 147.54,96.561 153.08,85.479 159.45,75.505 166.65,66.363 174.13,58.605 182.17,52.234 190.48,47.801 198.79,45.308 207.38,44.478 215.69,46.416 254.2,61.1 245.88,59.438 "
     fill="#f5f5f5"
     transform="matrix(0.96841668,0,0,0.96841668,43.470738,5.2878945)" /><polyline
     id="polyline47"
     points="141.72 160.56 140.61 156.12 139.5 151.14 138.67 146.43 138.39 141.16 138.12 135.9 138.12 130.64 138.67 125.1 139.78 119.55 140.89 114.01 142.83 108.47 147.54 96.561 153.08 85.479 159.45 75.505 166.65 66.363 174.13 58.605 182.17 52.234 190.48 47.801 198.79 45.308 207.38 44.478 215.69 46.416 254.2 61.1 245.88 59.438 237.57 59.438 228.99 61.653 220.95 65.809 212.92 71.35 205.16 78.276 198.24 86.864 191.86 96.561 186.04 107.36 181.33 119 179.67 124.54 178.29 130.08 177.46 135.62 177.18 141.16 176.9 146.43 177.18 151.69 177.73 156.68 178.84 161.67 179.95 166.38 181.06 171.08 178.01 171.92 174.41 171.92 170.53 171.64 166.38 170.53 161.94 169.15 157.51 167.76 153.35 165.82 149.2 164.16 145.32 162.22 141.99 160.56 141.99 160.56"
     stroke="#000000"
     stroke-linecap="square"
     stroke-miterlimit="10"
     stroke-width="0.1"
     fill="none"
     transform="matrix(0.96841668,0,0,0.96841668,43.470738,5.2878945)" /><polygon
     id="polygon49"
     points="144.76,137.01 146.98,135.07 150.03,134.24 153.63,134.24 157.51,135.07 161.11,136.45 164.16,138.67 166.38,140.89 168.31,143.38 169.7,146.15 169.98,148.64 169.98,151.14 168.87,153.35 166.93,155.29 165.27,156.68 165.27,158.34 166.1,159.72 168.04,161.39 170.53,163.05 173.02,164.71 175.79,166.1 178.29,167.76 180.23,169.42 181.06,171.08 181.06,171.08 181.06,170.81 178.01,171.92 174.41,171.92 170.53,171.64 166.38,170.53 161.94,169.15 157.51,167.76 153.35,165.82 149.2,164.16 145.32,162.22 141.99,160.56 141.44,157.51 140.89,153.91 140.89,150.03 141.16,146.43 141.72,142.83 143.1,139.78 "
     fill="#d9d9d9"
     transform="matrix(0.96841668,0,0,0.96841668,43.470738,5.2878945)" /><polygon
     id="polygon53"
     points="22.313,110.41 20.651,110.69 18.988,110.97 16.772,111.8 14.002,113.18 11.786,114.29 10.124,115.4 9.016,116.51 8.184,117.62 7.63,118.72 7.63,119.83 7.63,121.22 7.906,122.6 8.184,123.99 12.063,126.2 18.158,129.53 25.638,133.41 34.226,137.84 43.369,142.27 51.957,146.43 59.991,150.31 66.362,153.63 70.518,155.57 72.182,156.4 87.695,141.44 80.493,138.4 72.734,135.07 64.7,131.47 56.389,128.14 48.91,124.82 41.706,122.05 35.61,119.55 30.902,117.62 27.854,116.23 26.746,115.68 26.746,114.57 26.469,113.18 25.915,112.35 25.361,111.52 24.529,110.97 23.421,110.41 "
     fill="#8c8c8c"
     transform="matrix(0.96841668,0,0,0.96841668,43.470738,5.2878945)" /><polyline
     id="polyline55"
     points="87.695 141.44 80.493 138.4 72.734 135.07 64.7 131.47 56.389 128.14 48.91 124.82 41.706 122.05 35.61 119.55 30.902 117.62 27.854 116.23 26.746 115.68 26.746 114.57 26.469 113.18 25.915 112.35 25.361 111.52 24.529 110.97 23.421 110.41 22.313 110.41 20.651 110.69 18.988 110.97 16.772 111.8 14.002 113.18 11.786 114.29 10.124 115.4 9.016 116.51 8.184 117.62 7.63 118.72 7.63 119.83 7.63 121.22 7.906 122.6 8.184 123.99 12.063 126.2 18.158 129.53 25.638 133.41 34.226 137.84 43.369 142.27 51.957 146.43 59.991 150.31 66.362 153.63 70.518 155.57 72.182 156.4 87.695 141.44 87.695 141.44"
     stroke="#000000"
     stroke-linecap="square"
     stroke-miterlimit="10"
     stroke-width="0.3"
     fill="none"
     transform="matrix(0.96841668,0,0,0.96841668,43.470738,5.2878945)" /><polygon
     id="polygon57"
     points="25.915,112.08 26.469,113.18 26.746,114.29 26.746,115.68 25.361,116.51 23.144,117.62 20.928,118.45 18.435,119.55 15.941,120.66 13.447,121.77 11.231,122.6 9.569,123.44 8.461,123.71 8.184,123.99 8.184,123.99 7.906,123.99 7.906,122.88 7.63,122.05 7.353,120.94 7.353,119.83 7.906,118.72 8.738,117.34 9.847,116.23 11.509,114.85 13.725,113.46 16.772,111.8 18.158,111.24 19.543,110.97 21.205,110.69 22.59,110.69 23.699,110.97 24.806,111.52 "
     fill="#5e5e5e"
     transform="matrix(0.96841668,0,0,0.96841668,43.470738,5.2878945)" /><polyline
     id="polyline59"
     points="7.906 123.99 7.906 122.88 7.63 122.05 7.353 120.94 7.353 119.83 7.906 118.72 8.738 117.34 9.847 116.23 11.509 114.85 13.725 113.46 16.772 111.8 18.158 111.24 19.543 110.97 21.205 110.69 22.59 110.69 23.699 110.97 24.806 111.52 25.915 112.08 26.469 113.18 26.746 114.29 26.746 115.68 25.361 116.51 23.144 117.62 20.928 118.45 18.435 119.55 15.941 120.66 13.447 121.77 11.231 122.6 9.569 123.44 8.461 123.71 8.184 123.99 8.184 123.99"
     stroke="#000000"
     stroke-linecap="square"
     stroke-miterlimit="10"
     stroke-width="0.3"
     fill="none"
     transform="matrix(0.96841668,0,0,0.96841668,43.470738,5.2878945)" /><polygon
     id="polygon61"
     points="52.788,143.1 58.051,145.6 61.93,147.26 64.424,147.81 66.085,147.54 68.856,146.98 71.627,146.15 74.952,144.77 78.275,143.66 81.045,142.27 83.264,140.89 84.649,139.5 84.925,138.4 83.815,137.56 81.045,136.45 76.89,134.79 71.627,132.3 65.81,129.81 59.437,126.76 53.065,124.26 47.247,121.5 42.261,119.55 38.381,117.89 36.165,117.34 33.117,117.34 30.07,117.62 26.746,118.17 23.699,119 20.928,119.83 18.435,120.94 16.495,122.05 15.388,122.88 15.11,123.71 15.941,124.26 18.158,125.37 22.313,127.31 27.577,130.08 33.672,133.41 40.044,136.73 46.692,140.06 "
     fill="#262626"
     transform="matrix(0.96841668,0,0,0.96841668,43.470738,5.2878945)" /><polyline
     id="polyline63"
     points="36.165 117.34 33.117 117.34 30.07 117.62 26.746 118.17 23.699 119 20.928 119.83 18.435 120.94 16.495 122.05 15.388 122.88 15.11 123.71 15.941 124.26 18.158 125.37 22.313 127.31 27.577 130.08 33.672 133.41 40.044 136.73 46.692 140.06 52.788 143.1 58.051 145.6 61.93 147.26 64.424 147.81 66.085 147.54 68.856 146.98 71.627 146.15 74.952 144.77 78.275 143.66 81.045 142.27 83.264 140.89 84.649 139.5 84.925 138.4 83.815 137.56 81.045 136.45 76.89 134.79 71.627 132.3 65.81 129.81 59.437 126.76 53.065 124.26 47.247 121.5 42.261 119.55 38.381 117.89 36.165 117.34 36.165 117.34"
     stroke="#a6a6a6"
     stroke-linecap="square"
     stroke-miterlimit="10"
     stroke-width="0.2"
     fill="none"
     transform="matrix(0.96841668,0,0,0.96841668,43.470738,5.2878945)" /><polygon
     id="polygon71"
     points="95.452,135.62 89.08,135.35 84.37,135.62 81.878,136.18 80.493,137.01 78.275,138.67 76.059,140.33 73.567,142.27 70.797,144.21 68.303,145.87 66.085,147.54 64.424,148.92 63.314,149.75 62.762,150.03 61.376,148.37 59.991,147.26 59.159,146.71 58.051,146.43 57.498,146.43 56.666,146.71 55.835,146.98 55.281,147.26 54.451,147.26 53.896,146.98 53.065,146.43 52.788,145.87 52.51,145.04 52.233,144.49 52.233,143.66 52.233,142.83 51.957,142.27 51.68,141.44 51.403,140.89 50.572,140.33 49.74,140.06 48.91,139.78 47.802,140.06 46.692,140.06 45.862,140.33 44.754,140.61 43.922,140.89 42.814,140.89 42.261,140.89 41.706,140.61 41.429,140.33 41.151,139.78 40.875,139.22 40.875,138.4 40.875,137.56 40.875,137.01 40.875,136.18 40.599,135.62 40.599,135.35 40.044,134.79 39.49,134.79 38.936,134.79 37.828,134.79 36.996,135.07 35.888,135.07 35.058,135.35 33.95,135.35 33.117,135.35 32.287,135.35 31.455,134.79 31.179,134.52 30.902,133.96 30.625,133.13 30.625,132.58 30.902,132.02 30.902,131.47 31.179,130.91 31.179,130.36 30.902,130.08 30.625,129.81 30.347,129.81 29.793,129.81 28.962,129.81 28.131,130.08 27.023,130.36 26.192,130.64 25.361,130.91 24.529,131.19 23.699,131.19 22.868,130.91 22.59,130.64 22.313,130.08 22.036,129.53 22.036,128.7 22.036,128.14 22.036,127.31 22.313,126.48 22.036,125.93 22.036,125.37 21.758,125.1 21.482,125.1 20.928,124.82 20.374,125.1 19.82,125.1 19.265,125.37 18.712,125.65 18.158,125.65 17.603,125.93 16.772,125.93 16.218,125.93 18.158,124.54 20.374,123.16 22.59,122.05 25.083,120.94 27.577,120.11 30.07,119.28 32.01,118.72 33.95,118.17 35.334,117.62 36.165,117.34 37.273,117.06 39.213,117.06 41.706,117.06 44.754,117.34 48.632,117.62 52.788,118.17 57.221,118.45 61.93,119 66.917,119.55 71.627,120.11 76.89,120.66 82.431,121.22 88.525,122.05 94.897,122.6 101.27,123.44 107.36,124.26 112.9,124.82 117.89,125.37 122.05,125.65 124.82,125.93 127.04,125.93 129.25,125.93 131.19,125.65 133.13,125.1 134.79,124.26 136.45,123.16 137.84,121.77 138.95,120.11 139.78,118.17 140.33,115.68 177.46,133.13 176.62,135.35 176.07,137.29 175.24,138.95 174.13,140.33 172.47,141.44 170.53,142.27 167.76,142.55 164.44,142.83 160,142.55 154.74,142 147.81,141.44 139.78,140.33 130.91,139.22 121.5,138.4 112.35,137.29 103.49,136.45 "
     fill="#f5f5f5"
     transform="matrix(0.96841668,0,0,0.96841668,43.470738,5.2878945)" /><polyline
     id="polyline73"
     points="177.46 133.13 176.62 135.35 176.07 137.29 175.24 138.95 174.13 140.33 172.47 141.44 170.53 142.27 167.76 142.55 164.44 142.83 160 142.55 154.74 142 147.81 141.44 139.78 140.33 130.91 139.22 121.5 138.4 112.35 137.29 103.49 136.45 95.452 135.62 89.08 135.35 84.37 135.62 81.878 136.18 80.493 137.01 78.275 138.67 76.059 140.33 73.567 142.27 70.797 144.21 68.303 145.87 66.085 147.54 64.424 148.92 63.314 149.75 62.762 150.03 61.376 148.37 59.991 147.26 59.159 146.71 58.051 146.43 57.498 146.43 56.666 146.71 55.835 146.98 55.281 147.26 54.451 147.26 53.896 146.98 53.065 146.43 52.788 145.87 52.51 145.04 52.233 144.49 52.233 143.66 52.233 142.83 51.957 142.27 51.68 141.44 51.403 140.89 50.572 140.33 49.74 140.06 48.91 139.78 47.802 140.06 46.692 140.06 45.862 140.33 44.754 140.61 43.922 140.89 42.814 140.89 42.261 140.89 41.706 140.61 41.429 140.33 41.151 139.78 40.875 139.22 40.875 138.4 40.875 137.56 40.875 137.01 40.875 136.18 40.599 135.62 40.599 135.35 40.044 134.79 39.49 134.79 38.936 134.79 37.828 134.79 36.996 135.07 35.888 135.07 35.058 135.35 33.95 135.35 33.117 135.35 32.287 135.35 31.455 134.79 31.179 134.52 30.902 133.96 30.625 133.13 30.625 132.58 30.902 132.02 30.902 131.47 31.179 130.91 31.179 130.36 30.902 130.08 30.625 129.81 30.347 129.81 29.793 129.81 28.962 129.81 28.131 130.08 27.023 130.36 26.192 130.64 25.361 130.91 24.529 131.19 23.699 131.19 22.868 130.91 22.59 130.64 22.313 130.08 22.036 129.53 22.036 128.7 22.036 128.14 22.036 127.31 22.313 126.48 22.036 125.93 22.036 125.37 21.758 125.1 21.482 125.1 20.928 124.82 20.374 125.1 19.82 125.1 19.265 125.37 18.712 125.65 18.158 125.65 17.603 125.93 16.772 125.93 16.218 125.93 18.158 124.54 20.374 123.16 22.59 122.05 25.083 120.94 27.577 120.11 30.07 119.28 32.01 118.72 33.95 118.17 35.334 117.62 36.165 117.34 37.273 117.06 39.213 117.06 41.706 117.06 44.754 117.34 48.632 117.62 52.788 118.17 57.221 118.45 61.93 119 66.917 119.55 71.627 120.11 76.89 120.66 82.431 121.22 88.525 122.05 94.897 122.6 101.27 123.44 107.36 124.26 112.9 124.82 117.89 125.37 122.05 125.65 124.82 125.93 127.04 125.93 129.25 125.93 131.19 125.65 133.13 125.1 134.79 124.26 136.45 123.16 137.84 121.77 138.95 120.11 139.78 118.17 140.33 115.68"
     stroke="#000000"
     stroke-linecap="square"
     stroke-miterlimit="10"
     stroke-width="0.1"
     fill="none"
     transform="matrix(0.96841668,0,0,0.96841668,43.470738,5.2878945)" /><polygon
     id="polygon75"
     points="71.627,142.55 70.518,143.94 69.133,144.77 67.471,145.04 64.978,144.49 61.099,143.1 56.389,141.16 51.403,138.4 46.416,135.35 41.706,132.02 37.828,128.98 35.334,125.93 34.226,123.16 35.334,121.22 37.273,120.94 39.767,121.22 43.092,121.77 46.692,123.16 50.848,124.54 55.003,125.93 58.883,127.59 62.762,129.25 66.085,130.64 68.58,131.75 70.518,132.85 71.903,134.24 72.734,135.9 73.013,137.56 73.013,139.5 72.458,141.16 "
     fill="#d9d9d9"
     transform="matrix(0.96841668,0,0,0.96841668,43.470738,5.2878945)" /><polygon
     id="polygon77"
     points="181.61,306.28 152.25,315.98 128.7,323.18 112.63,326.51 113.74,318.2 114.57,310.16 114.84,302.96 115.12,296.03 115.4,290.21 115.4,284.67 115.4,280.24 115.12,276.64 115.12,273.87 115.12,271.93 131.19,265.56 157.51,256.14 191.03,243.95 228.99,230.09 268.6,215.97 307.39,201.84 342.57,188.82 371.11,177.73 390.78,169.7 398.26,165.82 398.26,165.82 398.26,165.54 398.26,167.76 397.71,171.64 397.15,176.9 396.04,183.27 394.38,190.76 392.44,198.51 389.95,206.27 386.9,214.03 383.02,221.23 378.86,227.32 365.29,234.25 343.68,244.22 315.7,255.86 283.56,268.6 249.21,281.9 214.58,294.65 "
     fill="#80e326"
     transform="matrix(0.96841668,0,0,0.96841668,43.470738,5.2878945)" /><polyline
     id="polyline79"
     points="398.26 165.54 398.26 167.76 397.71 171.64 397.15 176.9 396.04 183.27 394.38 190.76 392.44 198.51 389.95 206.27 386.9 214.03 383.02 221.23 378.86 227.32 365.29 234.25 343.68 244.22 315.7 255.86 283.56 268.6 249.21 281.9 214.58 294.65 181.61 306.28 152.25 315.98 128.7 323.18 112.63 326.51 113.74 318.2 114.57 310.16 114.84 302.96 115.12 296.03 115.4 290.21 115.4 284.67 115.4 280.24 115.12 276.64 115.12 273.87 115.12 271.93 131.19 265.56 157.51 256.14 191.03 243.95 228.99 230.09 268.6 215.97 307.39 201.84 342.57 188.82 371.11 177.73 390.78 169.7 398.26 165.82 398.26 165.82"
     stroke="#d9ad98"
     stroke-linecap="square"
     stroke-miterlimit="10"
     stroke-width="0.1"
     fill="none"
     transform="matrix(0.96841668,0,0,0.96841668,43.470738,5.2878945)" /><polygon
     id="polygon81"
     points="24.253,234.8 13.447,229.82 5.968,225.94 1.812,223.44 7.076,222.06 13.171,220.12 20.098,218.46 27.299,216.52 34.226,214.58 41.151,212.92 46.969,211.53 51.68,210.42 54.727,209.59 55.835,209.32 57.498,210.42 63.314,212.92 74.12,215.97 91.02,218.18 115.12,218.74 146.98,216.8 187.98,210.7 238.68,200.17 300.46,183.55 374.16,160.28 376.65,159.72 379.42,159.45 382.47,159.45 385.52,159.72 388.56,160 391.33,160.84 393.83,161.94 396.04,163.05 397.43,164.16 398.26,165.82 398.26,165.82 398.26,165.54 390.78,169.7 371.11,177.73 342.57,188.82 307.39,201.84 268.6,215.97 228.99,230.09 191.03,243.95 157.51,256.14 131.19,265.56 115.12,271.93 105.7,268.88 94.066,264.45 80.493,258.91 65.81,253.09 51.125,246.72 36.996,240.62 "
     fill="#996b5c"
     transform="matrix(0.96841668,0,0,0.96841668,43.470738,5.2878945)" /><polyline
     id="polyline83"
     points="398.26 165.54 390.78 169.7 371.11 177.73 342.57 188.82 307.39 201.84 268.6 215.97 228.99 230.09 191.03 243.95 157.51 256.14 131.19 265.56 115.12 271.93 105.7 268.88 94.066 264.45 80.493 258.91 65.81 253.09 51.125 246.72 36.996 240.62 24.253 234.8 13.447 229.82 5.968 225.94 1.812 223.44 7.076 222.06 13.171 220.12 20.098 218.46 27.299 216.52 34.226 214.58 41.151 212.92 46.969 211.53 51.68 210.42 54.727 209.59 55.835 209.32 57.498 210.42 63.314 212.92 74.12 215.97 91.02 218.18 115.12 218.74 146.98 216.8 187.98 210.7 238.68 200.17 300.46 183.55 374.16 160.28 376.65 159.72 379.42 159.45 382.47 159.45 385.52 159.72 388.56 160 391.33 160.84 393.83 161.94 396.04 163.05 397.43 164.16 398.26 165.82 398.26 165.82"
     stroke="#000000"
     stroke-linecap="square"
     stroke-miterlimit="10"
     stroke-width="0.3"
     fill="#89ff3f"
     transform="matrix(0.96841668,0,0,0.96841668,43.470738,5.2878945)" /><polygon
     id="polygon85"
     points="155.02,253.37 134.79,260.57 120.94,265.56 114.29,268.05 110.14,267.22 101.82,264.17 90.19,259.74 76.338,253.92 61.099,247.55 46.139,240.9 32.287,234.8 20.374,229.54 12.063,225.39 8.184,223.44 15.664,222.89 28.131,222.06 44.754,221.51 64.424,220.67 85.755,219.84 107.92,218.74 129.53,217.63 149.75,216.52 167.48,215.13 181.33,213.2 198.24,209.87 220.12,204.33 245.33,197.4 272.2,189.92 299.91,182.44 326.23,175.52 350.33,169.42 370.55,165.54 384.96,163.61 392.72,164.99 355.04,179.4 317.08,193.53 279.68,207.66 243.95,220.95 210.42,233.14 180.5,243.95 "
     fill="#7ba13f"
     transform="matrix(0.96841668,0,0,0.96841668,43.470738,5.2878945)" /><polygon
     id="polygon87"
     points="24.253,234.8 13.447,229.82 5.968,225.94 1.812,223.44 2.366,232.03 3.198,240.07 4.583,247.27 5.968,253.92 7.353,259.74 9.016,264.72 10.401,268.88 11.786,272.48 12.894,274.98 13.447,276.64 14.002,277.74 14.557,278.85 15.388,279.96 16.218,281.07 17.05,281.9 18.158,283.01 19.543,284.12 21.205,285.23 23.144,286.34 25.361,287.44 29.24,289.38 35.888,292.7 44.477,297.14 54.727,301.85 65.81,307.39 77.168,312.65 87.972,317.36 97.946,321.52 106.53,324.84 112.63,326.51 112.63,326.51 112.63,326.23 113.74,318.2 114.57,310.16 114.84,302.96 115.12,296.03 115.4,290.21 115.4,284.67 115.4,280.24 115.12,276.64 115.12,273.87 115.12,271.93 105.7,268.88 94.066,264.45 80.493,258.91 65.81,253.09 51.125,246.72 36.996,240.62 "
     fill="#80f53b"
     transform="matrix(0.96841668,0,0,0.96841668,43.470738,5.2878945)" /><polyline
     id="polyline89"
     points="112.63 326.23 113.74 318.2 114.57 310.16 114.84 302.96 115.12 296.03 115.4 290.21 115.4 284.67 115.4 280.24 115.12 276.64 115.12 273.87 115.12 271.93 105.7 268.88 94.066 264.45 80.493 258.91 65.81 253.09 51.125 246.72 36.996 240.62 24.253 234.8 13.447 229.82 5.968 225.94 1.812 223.44 2.366 232.03 3.198 240.07 4.583 247.27 5.968 253.92 7.353 259.74 9.016 264.72 10.401 268.88 11.786 272.48 12.894 274.98 13.447 276.64 14.002 277.74 14.557 278.85 15.388 279.96 16.218 281.07 17.05 281.9 18.158 283.01 19.543 284.12 21.205 285.23 23.144 286.34 25.361 287.44 29.24 289.38 35.888 292.7 44.477 297.14 54.727 301.85 65.81 307.39 77.168 312.65 87.972 317.36 97.946 321.52 106.53 324.84 112.63 326.51 112.63 326.51"
     stroke="#000000"
     stroke-linecap="square"
     stroke-miterlimit="10"
     stroke-width="0.3"
     fill="none"
     transform="matrix(0.96841668,0,0,0.96841668,43.470738,5.2878945)" /><polygon
     id="polygon91"
     points="181.61,306.28 152.25,315.98 128.7,323.18 112.63,326.51 112.9,324.56 113.18,322.63 113.46,320.69 113.74,318.47 113.74,316.53 114.01,314.32 114.01,312.38 114.29,310.44 114.29,308.5 114.57,306.56 140.33,304.62 169.98,299.63 202.11,292.15 235.91,282.46 269.43,270.26 301.85,256.41 332.05,241.18 358.36,224.55 379.7,206.82 394.66,188.26 394.66,189.09 394.38,191.31 393.55,194.36 392.44,198.51 391.06,203.22 389.39,208.49 387.45,213.47 384.96,218.74 382.19,223.44 378.86,227.32 365.29,234.25 343.68,244.22 315.7,255.86 283.56,268.6 249.21,281.9 214.58,294.65 "
     fill="#64c431"
     transform="matrix(0.96841668,0,0,0.96841668,43.470738,5.2878945)" /><polygon
     id="polygon93"
     points="15.388,279.96 14.557,278.85 14.002,277.74 13.447,276.64 12.894,274.7 12.063,272.48 11.231,270.26 10.401,267.77 9.569,265.56 8.738,263.34 8.184,261.68 7.63,260.29 7.353,259.18 7.353,258.91 10.954,265 16.772,272.2 24.529,279.96 33.95,287.44 45.031,294.92 57.221,301.02 70.797,306 84.925,308.78 99.607,309.33 114.57,306.56 114.29,309.33 114.29,312.1 114.01,314.87 113.74,317.36 113.46,319.86 113.18,322.07 112.9,323.74 112.9,325.12 112.63,326.23 112.63,326.51 112.63,326.51 112.63,326.23 106.53,324.84 97.946,321.52 87.972,317.36 77.168,312.65 65.81,307.39 54.727,301.85 44.477,297.14 35.888,292.7 29.24,289.38 25.361,287.44 23.144,286.34 21.205,285.23 19.543,284.12 18.158,283.01 17.05,281.9 16.218,281.07 "
     fill="#35c400"
     transform="matrix(0.96841668,0,0,0.96841668,43.470738,5.2878945)" /><polyline
     id="polyline95"
     points="114.57 306.56 114.29 309.33 114.29 312.1 114.01 314.87 113.74 317.36 113.46 319.86 113.18 322.07 112.9 323.74 112.9 325.12 112.63 326.23 112.63 326.51"
     stroke="#d9ad98"
     stroke-linecap="square"
     stroke-miterlimit="10"
     stroke-width="0.1"
     fill="none"
     transform="matrix(0.96841668,0,0,0.96841668,43.470738,5.2878945)" /><polyline
     id="polyline97"
     points="13.447 276.36 14.002 277.74 14.557 278.85 15.388 279.96 16.218 281.07 17.05 281.9 18.158 283.01 19.543 284.12 21.205 285.23 23.144 286.34 25.361 287.44 29.24 289.38 35.888 292.7 44.477 297.14 54.727 301.85 65.81 307.39 77.168 312.65 87.972 317.36 97.946 321.52 106.53 324.84 112.63 326.51"
     stroke="#000000"
     stroke-linecap="square"
     stroke-miterlimit="10"
     stroke-width="0.1"
     fill="none"
     transform="matrix(0.96841668,0,0,0.96841668,43.470738,5.2878945)" /><polygon
     id="polygon99"
     points="329.55,92.405 345.34,77.999 356.43,67.194 361.97,61.931 365.29,58.605 367.78,55.559 369.72,52.789 371.11,50.294 371.94,48.079 372.49,46.139 372.49,44.478 372.22,43.093 371.66,41.707 370.55,40.875 371.94,41.983 373.05,43.093 374.16,44.478 374.99,45.863 375.54,47.248 376.37,48.633 376.65,50.294 377.2,51.68 377.76,53.064 378.03,54.45 378.86,56.945 380.53,61.653 382.74,68.302 385.52,76.891 388.29,87.142 391.06,99.054 393.55,112.08 395.49,126.2 397.15,141.16 397.43,157.23 397.15,158.34 396.04,159.45 394.66,160.84 392.72,161.94 390.5,163.05 388.29,164.16 386.07,165.27 384.13,166.1 382.47,166.65 381.08,167.21 370.28,171.64 348.67,179.67 318.75,190.76 283.56,203.5 245.61,217.08 208.21,230.65 173.85,243.12 145.6,253.37 125.65,260.29 117.34,263.34 115.95,263.61 114.57,263.61 113.74,263.34 112.9,263.06 112.07,262.51 111.8,261.4 111.24,260.57 110.69,259.18 110.41,257.8 109.86,256.14 109.03,252.53 107.09,245.61 104.32,235.64 100.72,223.72 96.562,210.15 91.851,195.74 86.865,181.34 81.324,167.21 75.504,154.46 69.688,143.38 69.688,142.83 70.518,141.72 71.627,140.61 73.013,139.5 74.673,138.4 76.614,137.01 78.275,135.9 79.938,134.79 81.324,133.96 82.155,133.41 82.985,132.85 84.094,132.58 84.925,132.02 86.034,131.75 87.419,131.75 88.525,131.75 89.635,132.02 90.742,132.58 91.575,133.41 92.405,134.52 100.99,150.03 109.3,163.88 117.89,175.52 126.48,185.21 135.35,192.97 144.49,198.51 154.46,201.84 164.99,203.22 176.62,202.39 189.09,199.34 204.33,192.14 223.17,180.23 244.5,164.99 266.66,146.98 289.1,128.14 310.44,109.58 "
     fill="#80e326"
     transform="matrix(0.96841668,0,0,0.96841668,43.470738,5.2878945)" /><polyline
     id="polyline101"
     points="92.405 134.52 100.99 150.03 109.3 163.88 117.89 175.52 126.48 185.21 135.35 192.97 144.49 198.51 154.46 201.84 164.99 203.22 176.62 202.39 189.09 199.34 204.33 192.14 223.17 180.23 244.5 164.99 266.66 146.98 289.1 128.14 310.44 109.58 329.55 92.405 345.34 77.999 356.43 67.194 361.97 61.931 365.29 58.605 367.78 55.559 369.72 52.789 371.11 50.294 371.94 48.079 372.49 46.139 372.49 44.478 372.22 43.093 371.66 41.707 370.55 40.875 371.94 41.983 373.05 43.093 374.16 44.478 374.99 45.863 375.54 47.248 376.37 48.633 376.65 50.294 377.2 51.68 377.76 53.064 378.03 54.45 378.86 56.945 380.53 61.653 382.74 68.302 385.52 76.891 388.29 87.142 391.06 99.054 393.55 112.08 395.49 126.2 397.15 141.16 397.43 157.23 397.15 158.34 396.04 159.45 394.66 160.84 392.72 161.94 390.5 163.05 388.29 164.16 386.07 165.27 384.13 166.1 382.47 166.65 381.08 167.21 370.28 171.64 348.67 179.67 318.75 190.76 283.56 203.5 245.61 217.08 208.21 230.65 173.85 243.12 145.6 253.37 125.65 260.29 117.34 263.34 115.95 263.61 114.57 263.61 113.74 263.34 112.9 263.06 112.07 262.51 111.8 261.4 111.24 260.57 110.69 259.18 110.41 257.8 109.86 256.14 109.03 252.53 107.09 245.61 104.32 235.64 100.72 223.72 96.562 210.15 91.851 195.74 86.865 181.34 81.324 167.21 75.504 154.46 69.688 143.38 69.688 142.83 70.518 141.72 71.627 140.61 73.013 139.5 74.673 138.4 76.614 137.01 78.275 135.9 79.938 134.79 81.324 133.96 82.155 133.41 82.985 132.85 84.094 132.58 84.925 132.02 86.034 131.75 87.419 131.75 88.525 131.75 89.635 132.02 90.742 132.58 91.575 133.41 92.405 134.52 92.405 134.52"
     stroke="#000000"
     stroke-linecap="square"
     stroke-miterlimit="10"
     stroke-width="0.3"
     fill="none"
     transform="matrix(0.96841668,0,0,0.96841668,43.470738,5.2878945)" /><polygon
     id="polygon103"
     points="113.74,263.34 114.57,263.61 115.95,263.61 117.34,263.34 115.95,263.89 114.29,264.17 112.9,264.17 111.24,264.17 109.58,263.89 107.92,263.61 106.53,263.06 104.87,262.79 103.76,262.23 102.66,261.68 99.053,260.29 91.575,256.97 81.045,252.53 68.303,247.27 54.727,241.45 40.875,235.64 28.131,230.09 17.327,225.39 9.569,221.78 5.691,219.57 4.583,218.18 3.475,216.8 2.643,215.41 1.812,213.75 1.258,212.09 0.98,210.15 0.705,208.49 0.427,206.54 0.427,204.88 0.427,203.22 0.15,197.12 0.15,189.92 0.15,181.61 0.427,173.02 0.98,164.16 1.258,155.57 1.812,146.98 2.366,139.5 3.198,133.13 3.751,127.87 4.583,123.99 5.414,120.94 5.968,118.45 7.076,116.78 8.184,115.4 9.292,114.29 10.677,113.74 12.34,113.18 14.279,112.63 16.772,111.8 13.725,113.46 11.509,114.85 9.847,116.23 8.738,117.34 7.906,118.72 7.353,119.83 7.353,120.94 7.63,122.05 7.906,122.88 8.184,123.99 11.786,126.2 17.327,128.98 24.253,132.58 32.01,136.45 40.044,140.61 47.524,144.49 54.451,147.81 60.268,150.58 63.869,152.25 65.255,153.08 65.532,153.08 65.81,153.08 66.085,152.52 66.085,152.25 66.362,151.69 66.64,151.14 66.917,150.31 66.917,149.75 67.194,149.2 67.194,148.64 67.471,148.37 67.471,147.81 67.748,146.98 68.025,146.43 68.58,145.87 68.856,145.04 69.133,144.49 69.412,143.94 69.412,143.38 69.688,143.1 75.504,154.18 81.324,166.93 86.865,181.06 91.851,195.46 96.562,209.87 100.72,223.44 104.32,235.64 107.09,245.61 109.03,252.53 109.86,256.14 110.41,257.8 110.69,259.18 111.24,260.57 111.8,261.4 112.07,262.51 112.9,263.06 "
     fill="#95f03a"
     transform="matrix(0.96841668,0,0,0.96841668,43.470738,5.2878945)" /><polyline
     id="polyline105"
     points="69.688 143.1 75.504 154.18 81.324 166.93 86.865 181.06 91.851 195.46 96.562 209.87 100.72 223.44 104.32 235.64 107.09 245.61 109.03 252.53 109.86 256.14 110.41 257.8 110.69 259.18 111.24 260.57 111.8 261.4 112.07 262.51 112.9 263.06 113.74 263.34 114.57 263.61 115.95 263.61 117.34 263.34 115.95 263.89 114.29 264.17 112.9 264.17 111.24 264.17 109.58 263.89 107.92 263.61 106.53 263.06 104.87 262.79 103.76 262.23 102.66 261.68 99.053 260.29 91.575 256.97 81.045 252.53 68.303 247.27 54.727 241.45 40.875 235.64 28.131 230.09 17.327 225.39 9.569 221.78 5.691 219.57 4.583 218.18 3.475 216.8 2.643 215.41 1.812 213.75 1.258 212.09 0.98 210.15 0.705 208.49 0.427 206.54 0.427 204.88 0.427 203.22 0.15 197.12 0.15 189.92 0.15 181.61 0.427 173.02 0.98 164.16 1.258 155.57 1.812 146.98 2.366 139.5 3.198 133.13 3.751 127.87 4.583 123.99 5.414 120.94 5.968 118.45 7.076 116.78 8.184 115.4 9.292 114.29 10.677 113.74 12.34 113.18 14.279 112.63 16.772 111.8 13.725 113.46 11.509 114.85 9.847 116.23 8.738 117.34 7.906 118.72 7.353 119.83 7.353 120.94 7.63 122.05 7.906 122.88 8.184 123.99 11.786 126.2 17.327 128.98 24.253 132.58 32.01 136.45 40.044 140.61 47.524 144.49 54.451 147.81 60.268 150.58 63.869 152.25 65.255 153.08 65.532 153.08 65.81 153.08 66.085 152.52 66.085 152.25 66.362 151.69 66.64 151.14 66.917 150.31 66.917 149.75 67.194 149.2 67.194 148.64 67.471 148.37 67.471 147.81 67.748 146.98 68.025 146.43 68.58 145.87 68.856 145.04 69.133 144.49 69.412 143.94 69.412 143.38 69.688 143.1 69.688 143.1"
     stroke="#000000"
     stroke-linecap="square"
     stroke-miterlimit="10"
     stroke-width="0.3"
     fill="none"
     transform="matrix(0.96841668,0,0,0.96841668,43.470738,5.2878945)" /><polygon
     id="polygon109"
     points="229.26,128.14 228.43,128.42 227.6,129.25 227.05,130.08 226.49,131.19 226.22,132.58 225.94,133.68 225.66,134.79 225.66,135.9 225.94,137.01 226.22,138.12 226.49,138.95 227.05,139.5 227.88,140.06 226.77,139.78 225.66,139.5 224.56,139.22 223.72,138.95 222.89,138.67 222.34,138.4 221.78,138.4 221.51,138.12 221.23,138.12 221.23,138.12 220.68,136.73 220.68,135.07 220.68,133.68 220.95,132.58 221.23,131.19 221.51,130.08 222.34,128.98 222.89,128.14 223.72,127.59 224.56,127.04 225.66,126.76 226.77,126.76 227.88,126.76 228.99,126.76 229.82,127.04 230.93,127.31 232.03,127.59 232.87,127.87 233.42,128.14 234.25,128.42 234.53,128.7 235.08,129.25 235.36,129.81 235.64,130.64 235.64,131.19 235.64,132.02 235.64,132.85 235.64,133.68 235.36,134.24 235.08,134.79 235.64,133.96 235.64,133.41 235.91,132.58 235.91,132.02 235.64,131.47 235.64,130.91 235.36,130.36 235.36,129.81 235.08,129.53 234.8,128.98 234.25,128.42 233.7,128.14 232.87,127.87 232.03,127.59 230.93,127.59 230.1,127.59 "
     fill="#2e2e2e"
     transform="matrix(0.96841668,0,0,0.96841668,43.470738,5.2878945)" /><polygon
     id="polygon111"
     points="169.7,123.16 171.36,124.54 172.75,125.93 173.58,127.04 174.13,128.42 174.13,129.53 174.13,130.64 173.85,131.75 173.3,132.85 172.75,133.68 171.92,134.52 171.08,135.07 170.25,135.35 169.15,135.62 168.04,135.62 165.82,135.07 163.05,134.52 160,133.41 156.96,132.3 153.63,130.91 150.58,129.53 147.81,128.42 145.87,127.04 144.21,125.93 143.38,124.54 142.55,123.16 142.27,121.77 142.27,120.11 142.55,118.72 143.38,117.34 144.49,116.51 146.43,115.95 148.64,115.68 151.42,116.23 154.46,117.06 157.23,117.89 160.28,118.72 163.05,119.83 165.54,120.94 167.76,122.05 "
     fill="#d9d9d9"
     transform="matrix(0.96841668,0,0,0.96841668,43.470738,5.2878945)" /><polygon
     id="polygon117"
     points="68.303,139.78 67.471,140.61 66.362,141.16 65.255,141.44 63.314,141.16 60.821,140.06 57.498,138.67 53.896,136.73 50.294,134.52 47.247,132.3 44.477,130.08 42.537,127.87 41.983,126.2 42.814,124.82 42.814,124.82 42.814,124.54 43.922,124.54 45.862,124.54 48.078,125.1 50.848,125.93 53.619,127.04 56.389,128.14 59.159,129.25 61.93,130.36 64.146,131.47 66.085,132.02 67.471,132.85 68.303,133.96 68.856,135.07 69.133,136.18 69.133,137.56 68.856,138.67 "
     fill="#c7c7c7"
     transform="matrix(0.96841668,0,0,0.96841668,43.470738,5.2878945)" /><polygon
     id="polygon119"
     points="65.81,137.56 65.255,138.4 64.424,138.67 63.592,138.95 62.484,138.67 60.544,138.12 58.329,137.01 55.835,135.62 53.342,134.24 51.125,132.58 49.187,130.91 47.802,129.53 47.524,128.14 48.078,127.31 48.078,127.31 47.802,127.04 48.91,127.04 50.017,127.04 51.68,127.59 53.619,128.14 55.558,128.7 57.498,129.53 59.437,130.36 61.376,131.19 63.039,131.75 64.146,132.3 65.255,132.85 65.81,133.68 66.362,134.52 66.362,135.35 66.362,136.18 66.085,137.01 "
     fill="#b8b8b8"
     transform="matrix(0.96841668,0,0,0.96841668,43.470738,5.2878945)" /><polygon
     id="polygon123"
     points="174.96,78.831 176.62,79.384 178.01,79.938 178.84,80.215 179.67,80.769 181.06,81.324 182.72,82.154 184.94,82.986 187.15,83.539 189.37,84.371 191.31,84.925 193.25,85.202 194.91,84.925 195.74,84.648 196.57,83.816 197.4,82.432 198.51,81.324 199.9,79.661 201.28,77.999 202.67,76.337 204.33,74.674 205.99,73.012 207.93,71.626 209.87,70.519 209.59,69.687 207.65,68.58 204.61,67.194 200.45,65.532 196.02,63.593 191.03,61.931 186.6,60.545 182.72,59.715 179.67,59.16 177.73,59.16 176.35,60.269 174.69,61.653 173.02,63.039 171.64,64.424 169.98,66.086 168.31,67.471 167.21,69.134 165.82,70.796 164.99,72.182 164.16,73.567 164.44,74.398 165.54,74.952 166.93,75.783 168.87,76.613 170.81,77.445 172.75,77.999 "
     fill="#ffffff"
     transform="matrix(0.96841668,0,0,0.96841668,43.470738,5.2878945)" /><polygon
     id="polygon147"
     points="270.27,0.151 266.94,0.704 264.73,1.536 263.34,2.644 260.29,6.522 256.69,10.678 253.09,14.833 248.93,19.266 244.5,23.7 239.79,28.131 234.8,32.841 229.26,37.274 223.17,41.983 216.8,46.693 219.02,47.524 221.23,48.356 223.72,48.909 225.94,49.187 228.16,49.463 230.37,49.463 232.31,49.187 233.97,48.633 235.64,47.524 236.74,45.863 238.13,43.923 240.34,41.43 242.84,38.382 245.88,35.334 248.93,32.287 252.54,29.241 256.14,26.746 259.46,24.53 263.06,22.868 266.11,22.037 269.16,21.759 272.76,20.929 276.91,20.375 281.62,19.544 286.89,19.266 292.71,18.989 299.08,19.544 306.28,20.375 313.76,22.037 322.35,24.53 329.55,27.3 334.54,30.071 337.86,32.563 339.53,35.334 340.36,37.552 340.91,40.045 341.19,42.26 341.74,44.478 343.4,46.693 346.45,49.187 350.33,50.849 354.21,51.68 358.09,51.68 361.69,50.849 365.01,49.741 367.78,48.356 369.72,46.416 371.11,44.478 371.39,42.538 370.55,40.875 368.62,39.212 365.01,36.997 360.58,33.949 355.32,30.348 348.94,26.746 342.3,22.868 334.82,18.989 327.34,15.111 319.58,11.786 311.82,8.738 304.06,6.522 297.14,4.582 290.49,2.921 284.4,1.536 279.13,0.704 274.14,0.427 "
     fill="#9df261"
     transform="matrix(0.96841668,0,0,0.96841668,43.470738,5.2878945)" /><polygon
     id="polygon149"
     points="270.27,0.151 266.94,0.704 264.73,1.536 263.34,2.644 261.96,4.582 260.57,6.522 258.63,8.738 256.97,10.955 255.03,13.171 253.36,15.111 251.7,17.049 250.32,18.435 249.21,19.82 248.38,20.652 250.87,18.989 254.2,17.049 258.08,14.833 262.79,12.894 268.05,11.232 274.42,9.848 281.9,9.57 290.21,10.123 299.63,12.063 310.16,15.389 320.14,19.266 328.72,22.314 335.65,24.807 341.46,27.023 346.17,28.963 350.88,30.625 355.04,32.841 359.47,35.057 364.18,37.828 370,41.152 370,41.152 369.72,40.875 367.78,39.49 364.46,36.997 360.03,34.227 354.76,30.625 348.67,26.746 342.02,22.868 334.82,18.989 327.06,15.111 319.58,11.786 311.82,8.738 304.06,6.522 297.14,4.582 290.49,2.921 284.4,1.536 279.13,0.704 274.14,0.427 "
     fill="#95e65c"
     transform="matrix(0.96841668,0,0,0.96841668,43.470738,5.2878945)" /><polyline
     id="polyline151"
     points="263.06 2.644 264.73 1.536 266.94 0.704 270.27 0.151 274.14 0.427 279.13 0.704 284.4 1.536 290.49 2.921 297.14 4.582 304.06 6.522 311.82 8.738 319.58 11.786 327.34 15.111 335.09 18.989 342.57 22.868 349.5 27.023 355.87 30.901 361.41 34.504 365.85 37.552 369.45 40.045 371.39 41.43"
     stroke="#000000"
     stroke-linecap="square"
     stroke-miterlimit="10"
     stroke-width="0.1"
     fill="none"
     transform="matrix(0.96841668,0,0,0.96841668,43.470738,5.2878945)" /><polyline
     id="polyline153"
     points="263.06 2.644 260.29 6.522 256.69 10.678 252.81 14.556 248.66 18.989 244.22 23.145 239.24 27.578 233.97 32.287 228.71 36.997 222.89 41.707 216.8 46.693"
     stroke="#000000"
     stroke-linecap="square"
     stroke-miterlimit="10"
     stroke-width="0.3"
     fill="none"
     transform="matrix(0.96841668,0,0,0.96841668,43.470738,5.2878945)" /><polyline
     id="polyline155"
     points="398.26 165.54 398.26 167.76 397.71 171.64 397.15 176.9 396.04 183.27 394.38 190.76 392.44 198.51 389.95 206.27 386.9 214.03 383.02 221.23 378.86 227.32"
     stroke="#000000"
     stroke-linecap="square"
     stroke-miterlimit="10"
     stroke-width="0.3"
     fill="none"
     transform="matrix(0.96841668,0,0,0.96841668,43.470738,5.2878945)" /><polyline
     id="polyline157"
     points="1.812 223.44 2.366 232.03 3.198 240.07 4.583 247.27 5.968 253.92 7.353 259.74 9.016 264.72 10.401 268.88 11.786 272.48 12.894 274.98 13.447 276.64"
     stroke="#000000"
     stroke-linecap="square"
     stroke-miterlimit="10"
     stroke-width="0.1"
     fill="none"
     transform="matrix(0.96841668,0,0,0.96841668,43.470738,5.2878945)" /><polyline
     id="polyline159"
     points="378.59 227.32 365.29 234.25 343.68 244.22 315.7 255.86 283.56 268.6 249.21 281.9 214.58 294.65 181.61 306.28 152.25 315.98 128.7 323.18 112.63 326.51"
     stroke="#000000"
     stroke-linecap="square"
     stroke-miterlimit="10"
     stroke-width="0.1"
     fill="none"
     transform="matrix(0.96841668,0,0,0.96841668,43.470738,5.2878945)" /><polyline
     id="polyline161"
     points="281.35 95.175 279.68 96.838 278.02 98.223 276.36 99.609 274.7 100.99 273.31 102.38 272.2 103.49 270.82 104.6 269.99 105.43 269.16 106.26 268.33 106.81"
     stroke="#000000"
     stroke-linecap="square"
     stroke-miterlimit="10"
     stroke-width="0.1"
     fill="none"
     transform="matrix(0.96841668,0,0,0.96841668,43.470738,5.2878945)" /><polygon
     id="polygon163"
     points="174.13,171.92 172.47,171.92 170.53,171.64 168.31,171.08 165.82,170.53 181.06,170.81 179.95,171.36 178.84,171.64 177.73,171.64 176.62,171.92 175.52,171.92 "
     fill="#a3a3a3"
     transform="matrix(0.96841668,0,0,0.96841668,43.470738,5.2878945)" /><polyline
     id="polyline165"
     points="181.06 170.81 179.95 171.36 178.84 171.64 177.73 171.64 176.62 171.92 175.52 171.92 174.13 171.92 172.47 171.92 170.53 171.64 168.31 171.08 165.82 170.53"
     stroke="#000000"
     stroke-linecap="square"
     stroke-miterlimit="10"
     stroke-width="0.1"
     fill="none"
     transform="matrix(0.96841668,0,0,0.96841668,43.470738,5.2878945)" /><polyline
     id="polyline167"
     points="112.63 326.23 113.74 318.2 114.57 310.16 114.84 302.96 115.12 296.03 115.4 290.21 115.4 284.67 115.4 280.24 115.12 276.64 115.12 273.87 115.12 271.93"
     stroke="#000000"
     stroke-linecap="square"
     stroke-miterlimit="10"
     stroke-width="0.3"
     fill="none"
     transform="matrix(0.96841668,0,0,0.96841668,43.470738,5.2878945)" /><polyline
     id="polyline169"
     points="112.63 326.23 112.9 324.56 113.18 322.63 113.46 320.69 113.74 318.47 113.74 316.53 114.01 314.32 114.01 312.38 114.29 310.44 114.29 308.5 114.57 306.56"
     stroke="#000000"
     stroke-linecap="square"
     stroke-miterlimit="10"
     stroke-width="0.3"
     fill="none"
     transform="matrix(0.96841668,0,0,0.96841668,43.470738,5.2878945)" /><polyline
     id="polyline171"
     points="114.57 306.56 114.29 309.33 114.29 312.1 114.01 314.87 113.74 317.36 113.46 319.86 113.18 322.07 112.9 323.74 112.9 325.12 112.63 326.23 112.63 326.51"
     stroke="#000000"
     stroke-linecap="square"
     stroke-miterlimit="10"
     stroke-width="0.3"
     fill="none"
     transform="matrix(0.96841668,0,0,0.96841668,43.470738,5.2878945)" /></g>
<metadata
   id="metadata3321"><rdf:RDF><cc:Work><dc:format>image/svg+xml</dc:format><dc:type
         rdf:resource="http://purl.org/dc/dcmitype/StillImage" /><cc:license
         rdf:resource="http://creativecommons.org/publicdomain/zero/1.0/" /><dc:publisher><cc:Agent
           rdf:about="http://openclipart.org/"><dc:title>Openclipart</dc:title></cc:Agent></dc:publisher><dc:title>Architetto -- scotch</dc:title><dc:date>2010-03-26T08:36:31</dc:date><dc:description>Drawing by Francesco 'Architetto' Rollandin. From OCAL 0.18 release.</dc:description><dc:source>http://openclipart.org/detail/34249/architetto----scotch-by-anonymous</dc:source><dc:creator><cc:Agent><dc:title>Anonymous</dc:title></cc:Agent></dc:creator><dc:subject><rdf:Bag><rdf:li>clip art</rdf:li><rdf:li>clipart</rdf:li><rdf:li>glue</rdf:li><rdf:li>office</rdf:li><rdf:li>scotch</rdf:li><rdf:li>tape</rdf:li></rdf:Bag></dc:subject></cc:Work><cc:License
       rdf:about="http://creativecommons.org/publicdomain/zero/1.0/"><cc:permits
         rdf:resource="http://creativecommons.org/ns#Reproduction" /><cc:permits
         rdf:resource="http://creativecommons.org/ns#Distribution" /><cc:permits
         rdf:resource="http://creativecommons.org/ns#DerivativeWorks" /></cc:License></rdf:RDF></metadata></svg>
