<?xml version="1.0" encoding="UTF-8" standalone="no"?>
<svg
   xmlns:dc="http://purl.org/dc/elements/1.1/"
   xmlns:cc="http://creativecommons.org/ns#"
   xmlns:rdf="http://www.w3.org/1999/02/22-rdf-syntax-ns#"
   xmlns:svg="http://www.w3.org/2000/svg"
   xmlns="http://www.w3.org/2000/svg"
   xmlns:sodipodi="http://sodipodi.sourceforge.net/DTD/sodipodi-0.dtd"
   xmlns:inkscape="http://www.inkscape.org/namespaces/inkscape"
   viewBox="0 0 467.38207 306.40538"
   version="1.1"
   id="svg35"
   sodipodi:docname="tape.svg"
   width="123.66151mm"
   height="81.069756mm"
   inkscape:version="1.0.2-2 (e86c870879, 2021-01-15)">
  <metadata
     id="metadata39">
    <rdf:RDF>
      <cc:Work
         rdf:about="">
        <dc:format>image/svg+xml</dc:format>
        <dc:type
           rdf:resource="http://purl.org/dc/dcmitype/StillImage" />
        <dc:title />
      </cc:Work>
    </rdf:RDF>
  </metadata>
  <sodipodi:namedview
     pagecolor="#ffffff"
     bordercolor="#666666"
     borderopacity="1"
     objecttolerance="10"
     gridtolerance="10"
     guidetolerance="10"
     inkscape:pageopacity="0"
     inkscape:pageshadow="2"
     inkscape:window-width="1920"
     inkscape:window-height="1017"
     id="namedview37"
     showgrid="false"
     units="mm"
     inkscape:zoom="1.7366667"
     inkscape:cx="297.43265"
     inkscape:cy="184.72356"
     inkscape:window-x="-8"
     inkscape:window-y="-8"
     inkscape:window-maximized="1"
     inkscape:current-layer="svg35"
     inkscape:document-rotation="0" />
  <defs
     id="defs7">
    <linearGradient
       id="a"
       x1="604.95001"
       x2="351.23001"
       y1="128.10001"
       y2="228.36"
       gradientUnits="userSpaceOnUse"
       gradientTransform="matrix(0.78371842,0,0,0.78371842,-2.0120772,-3.8494333)">
      <stop
         stop-color="#4d4d4d"
         offset="0"
         id="stop2" />
      <stop
         stop-color="#4d4d4d"
         stop-opacity="0"
         offset="1"
         id="stop4" />
    </linearGradient>
  </defs>
  <path
     d="m 167.1653,125.90847 c -0.49688,-0.19123 -1.2085,-2.25711 -1.7955,-5.2133 -0.85582,-4.30888 -0.87385,-5.17802 -0.14734,-7.23607 1.42323,-4.0338 3.14976,-6.96882 5.03069,-8.55193 1.53373,-1.29 2.37701,-1.52747 5.43038,-1.52747 7.13262,0 13.66256,2.67797 22.30855,9.14756 5.3763,4.02361 8.34581,7.76116 11.88509,14.96119 2.6905,5.47427 7.52604,16.69085 7.13105,17.70184 z"
     fill="#1a1a1a"
     stroke="#000000"
     stroke-width="1.97889"
     id="path9" />
  <path
     d="m 148.08019,119.08228 8.45161,-10.75026 c 3.46874,-5.07693 9.96498,-5.95156 14.39299,-5.95156 1.13404,0 2.36997,0.43575 1.15677,1.7281 -0.68262,0.7265 -4.17565,3.14349 -5.18821,5.37552 -1.64111,3.61921 -2.05726,5.90689 -1.72732,9.02217 0.0933,4.69134 2.58079,10.37408 2.30335,10.36624 -0.27744,-0.008 -8.90539,-4.64902 -11.71032,-6.14278 z"
     fill="#cccccc"
     stroke="#000000"
     stroke-width="1.97889"
     id="path11" />
  <path
     d="M 65.725489,64.366201 108.27121,33.237689 c 6.37712,25.529628 11.51831,60.953702 11.21579,63.576022 z"
     fill="#1a1a1a"
     stroke="#000000"
     stroke-width="1.97889"
     id="path13" />
  <path
     d="M 118.53322,97.585671 C 108.30569,43.108623 108.49065,32.982981 108.61213,32.861504 l 72.87562,39.759603 c 0.19671,0.166932 -43.63509,33.619163 -43.95563,33.598793 z"
     fill="#1a1a1a"
     stroke="#000000"
     stroke-width="1.97889"
     id="path15" />
  <path
     d="m 295.44825,199.8233 c -10.07,-1.29548 -23.46924,-4.29869 -35.36687,-7.92652 C 248.45571,188.35202 230.43645,180.73741 172.23439,154.7736 144.84735,142.557 120.86321,130.46579 104.74996,120.75552 95.339857,115.08375 73.953748,101.10848 54.322386,87.802521 46.105098,82.23263 34.716886,74.686205 29.015334,71.03251 11.474933,59.791637 10.456882,58.78691 10.923979,53.155109 11.233547,49.425393 11.13088,49.547653 21.558254,40.454168 29.386817,33.627197 30.673683,32.77843 54.718947,18.578236 70.841603,9.0568407 81.181983,3.3121857 83.806656,2.4187467 l 4.072201,-1.386398 4.829273,1.258652 C 183.63514,50.575108 300.033,112.31722 300.033,112.51315 289.32349,114.97246 287.14005,127.9477 285.3469,129.5026 240.44297,105.05215 109.30023,32.587987 108.97891,32.587987 c -0.73905,0 -42.928178,31.378518 -42.893694,31.902825 81.185384,46.704128 87.063274,49.835078 87.212184,49.951858 0.14891,0.11677 -0.69751,1.17166 -1.86995,2.34332 l -2.13093,2.13093 8.23296,4.26264 8.23218,4.26265 2.39974,-2.35508 2.39975,-2.35507 7.23529,3.58002 c 26.84235,13.2809 50.37036,23.71297 65.41149,30.02974 19.93466,8.3709 29.27737,12.1782 30.31031,11.05905 l 24.24903,-33.00473 c 87.00058,-4.08631 111.51529,-5.25013 111.51529,-4.40528 -1.76415,7.34344 -2.81355,8.722 -2.76652,9.3623 0.0846,1.13717 -5.84184,9.29176 -12.25736,17.44087 -11.47991,14.58186 -21.14316,22.23252 -39.35285,31.15594 -22.02171,10.79024 -39.98532,14.37731 -59.45994,11.87255 z"
     fill="#555555"
     stroke="#000000"
     stroke-width="1.97889"
     id="path17" />
  <path
     d="m 242.28706,155.8277 c 14.68845,-18.39622 14.62967,-19.20972 14.74958,-19.24263 0.64892,-0.17712 38.0652,-1.50161 38.23762,-1.35349 0.65754,0.5635 -21.96919,31.89499 -23.19101,32.07917 z"
     fill="#1a1a1a"
     stroke="#000000"
     stroke-width="1.97889"
     id="path19" />
  <path
     d="m 235.44676,152.87073 -0.90206,-16.03487 c 22.09851,0.9671 22.61577,-0.44751 22.80151,0.86052 l -14.22057,18.43776 z"
     fill="#b3b3b3"
     stroke="#000000"
     stroke-width="1.97889"
     id="path21" />
  <path
     d="m 216.26447,144.71301 c 0.55723,-0.90128 -3.41231,-12.96662 -6.18902,-18.45108 -3.23911,-6.39593 -6.18511,-10.13427 -11.08727,-14.06853 -10.2769,-8.24786 -19.22931,-11.17191 -30.14102,-9.84586 -2.98754,0.36365 -6.27602,1.01335 -7.30661,1.44361 -2.22106,0.92792 -5.52443,4.19681 -6.98763,6.91397 l -1.29863,3.38566 c -15.95807,-10.01592 -17.69244,-9.70008 -17.8531,-10.75027 0.49296,-1.84017 1.15285,-4.843379 1.93578,-6.396709 2.82452,-3.33236 4.06829,-4.20151 5.09182,-5.08319 2.42326,-2.08704 8.36071,-4.90137 13.03951,-6.17962 5.12473,-1.400505 16.08268,-1.366021 22.32892,0.0713 11.45718,2.63486 24.70907,8.26274 31.52586,13.38826 9.99397,7.515069 20.18858,21.939409 24.38775,34.507899 1.14579,3.42955 1.58389,6.1616 1.82214,11.35216 0.17477,3.8269 0.20299,7.29642 -0.0854,7.2925 z"
     fill="#cccccc"
     stroke="#000000"
     stroke-width="1.97889"
     id="path23" />
  <path
     d="M 366.02209,305.46071 C 64.000525,214.91772 46.860603,208.49907 31.758349,201.64937 16.146678,182.2014 8.9764385,164.15158 6.3564681,158.58874 4.0868195,153.76888 1.2670007,142.40496 0.91354367,137.06784 0.25051787,127.05975 2.306995,116.74367 3.3344499,106.83982 5.0492258,90.319821 6.1895361,71.057589 10.398103,54.932583 c 7.86148,7.312092 14.076367,13.549707 20.441728,17.796677 43.999519,29.24131 59.621378,40.15694 76.005789,49.61643 21.32733,12.313 43.61315,22.82423 66.06355,32.90598 36.88727,16.56546 93.85812,44.92274 133.60831,45.07792 25.44342,0.0995 58.31963,-14.06932 76.83027,-31.66615 8.77843,-8.34425 15.5623,-18.41738 22.67846,-28.14097 11.46032,1.59643 22.80386,3.99147 34.24144,5.75249 l 0.30095,0.28449 0.0447,0.20769 z"
     fill="#333333"
     stroke="#000000"
     stroke-width="1.56744"
     id="path25" />
  <path
     d="m 5.290611,156.52286 8.687518,8.60993 46.249575,12.50736 321.716406,92.79227"
     fill="none"
     stroke="#000000"
     stroke-width="1.56744"
     id="path27" />
  <path
     d="m 440.39697,146.27966 c -11.32944,-1.98516 -23.35795,-3.54711 -34.59098,-6.05736 0.57368,-3.71169 1.65443,-7.41946 2.56589,-11.05435 19.54359,-40.357569 25.53511,-45.857707 29.57126,-49.208104 l 28.05869,5.885725 z"
     fill="url(#a)"
     stroke="#000000"
     stroke-width="1.97889"
     id="path29"
     style="fill:url(#a)" />
  <path
     d="m 441.90171,96.921081 -10.49164,-1.7618 2.04785,-3.01418 c 1.12699,-1.65678 2.79553,-3.25086 3.70856,-3.54006 2.33548,-0.74139 10.26201,1.72575 12.59671,3.92016 1.96948,1.85193 4.34101,6.44922 3.22892,6.26034 z"
     fill="#d7d7d7"
     stroke="#000000"
     stroke-width="2.79866"
     id="path31" />
  <path
     d="m 239.33322,136.58115 c -4.41233,-0.63952 -5.79089,-1.47339 -6.392,-3.87 -0.77745,-3.09804 -4.40842,-10.19305 -8.09895,-15.82485 -4.20073,-6.4116 -10.93679,-13.78952 -16.30291,-17.857019 -9.70087,-7.35206 -31.56975,-14.726851 -43.62804,-14.71196 -1.94362,0.0024 -5.218,0.27822 -7.27682,0.61208 -3.24146,0.52588 -5.46017,1.8872 -11.67506,4.01343 3.63802,-4.348858 9.0449,-9.3529 14.05364,-14.074803 6.98764,-6.587153 10.54493,-9.457914 15.28173,-12.330242 7.51899,-4.559674 10.34978,-5.083198 20.1157,-5.201539 4.90608,-0.05878 9.92031,0.256276 14.835,1.94754 8.11619,2.793173 16.46201,7.431218 26.54611,16.686933 9.01904,8.278417 13.78091,14.237811 17.00042,21.274821 2.60979,5.704679 2.94052,6.151399 5.50327,7.435919 2.53925,1.27275 3.562,1.38404 14.8883,1.61994 80.10621,-4.05652 129.63016,-7.942199 143.45888,-9.205549 6.87948,-0.62855 14.34048,-1.1411 16.58034,-1.14031 3.44209,0.002 22.90809,2.86057 26.00221,3.81827 l -14.63594,34.419349 -26.49203,-4.5346 -13.96195,0.35738 c -106.71031,4.93037 -147.90725,6.1036 -158.23901,6.88967 -1.91933,0.14655 -5.32302,0 -7.56289,-0.32446 z"
     fill="#ffffff"
     stroke="#000000"
     stroke-width="1.97889"
     id="path33" />
</svg>
