<?xml version="1.0" encoding="UTF-8" standalone="no"?>
<svg
   xmlns:dc="http://purl.org/dc/elements/1.1/"
   xmlns:cc="http://creativecommons.org/ns#"
   xmlns:rdf="http://www.w3.org/1999/02/22-rdf-syntax-ns#"
   xmlns:svg="http://www.w3.org/2000/svg"
   xmlns="http://www.w3.org/2000/svg"
   xmlns:sodipodi="http://sodipodi.sourceforge.net/DTD/sodipodi-0.dtd"
   xmlns:inkscape="http://www.inkscape.org/namespaces/inkscape"
   viewBox="0 0 472.44095 332.59842"
   version="1.1"
   id="svg157"
   sodipodi:docname="thum_btack.svg"
   width="125mm"
   height="88mm"
   inkscape:version="1.0.2-2 (e86c870879, 2021-01-15)">
  <metadata
     id="metadata161">
    <rdf:RDF>
      <cc:Work
         rdf:about="">
        <dc:format>image/svg+xml</dc:format>
        <dc:type
           rdf:resource="http://purl.org/dc/dcmitype/StillImage" />
        <dc:title></dc:title>
      </cc:Work>
    </rdf:RDF>
  </metadata>
  <sodipodi:namedview
     pagecolor="#ffffff"
     bordercolor="#666666"
     borderopacity="1"
     objecttolerance="10"
     gridtolerance="10"
     guidetolerance="10"
     inkscape:pageopacity="0"
     inkscape:pageshadow="2"
     inkscape:window-width="1920"
     inkscape:window-height="1017"
     id="namedview159"
     showgrid="false"
     units="mm"
     inkscape:zoom="1.2306915"
     inkscape:cx="192.01992"
     inkscape:cy="228.78409"
     inkscape:window-x="-8"
     inkscape:window-y="-8"
     inkscape:window-maximized="1"
     inkscape:current-layer="svg157" />
  <defs
     id="defs97">
    <clipPath
       id="aa">
      <text
         transform="translate(174.29,-1065.7)"
         x="-2043.1331"
         y="909.42334"
         id="text4"><tspan
           id="tspan2">Rémi BERTHOLET</tspan></text>
    </clipPath>
    <clipPath
       id="z">
      <path
         d="m 293.56,-220.47 v 9.5938 h 0.0937 c 0.4163,8.6591 16.318,15.625 35.844,15.625 19.526,0 35.395,-6.9663 35.812,-15.625 h 0.0937 v -8.3125 c 1e-5,7.1408 -16.057,12.938 -35.844,12.938 -19.787,0 -35.844,-5.7967 -35.844,-12.938 0,-0.43624 0.0704,-0.85606 0.1875,-1.2812 h -0.34375 z m 71.844,1.2812 v -1.2812 h -0.1875 c 0.11696,0.425 0.1875,0.84521 0.1875,1.2812 z"
         fill-rule="evenodd"
         id="path7" />
    </clipPath>
    <clipPath
       id="y">
      <path
         d="m 421.78421,17.09382 c -5.20067,1.31227 -11.19089,2.0625 -17.59375,2.0625 -5.95424,0 -11.5874,-0.63527 -16.53125,-1.78125 l -5.875,56.03125 c -0.23308,0.58529 -0.32094,1.19873 -0.34375,1.8125 -0.002,0.08254 -0.0307,0.16723 -0.0312,0.25 0.009,0.71049 0.14165,1.3915 0.4375,2.0625 0.30453,0.69059 0.76546,1.36529 1.34375,2 0.57829,0.63471 1.27236,1.21668 2.09375,1.78125 0.82139,0.56457 1.77871,1.11357 2.8125,1.59375 1.03379,0.48018 2.15952,0.89973 3.375,1.28125 1.21548,0.38152 2.50852,0.73139 3.875,1 1.36648,0.26861 2.79446,0.48357 4.28125,0.625 1.48679,0.14143 3.04861,0.1875 4.625,0.1875 1.57639,0 3.10697,-0.04607 4.59375,-0.1875 1.48678,-0.14143 2.91476,-0.35639 4.28125,-0.625 1.36649,-0.26861 2.65951,-0.61848 3.875,-1 1.21549,-0.38152 2.34121,-0.80107 3.375,-1.28125 1.03379,-0.48018 1.9911,-1.02918 2.8125,-1.59375 0.8214,-0.56457 1.51546,-1.14654 2.09375,-1.78125 0.57829,-0.63471 1.03926,-1.30941 1.34375,-2 0.15454,-0.35044 0.14069,-0.70044 0.21875,-1.0625 0.014,-0.29559 0.0937,-0.57632 0.0937,-0.875 0,-0.55352 -0.13975,-1.08249 -0.1875,-1.625 -0.0685,-0.23338 -0.0243,-0.49044 -0.125,-0.71875 -0.0962,-0.21823 -0.2491,-0.41216 -0.375,-0.625 z"
         fill-rule="evenodd"
         id="path10" />
    </clipPath>
    <clipPath
       id="x">
      <path
         d="m 168.84,-47.468 c -20.105,-1.614 -35.808,-8.7122 -39.258,-17.746 -0.80175,-2.099 -1.0226,-4.2947 -0.72796,-7.2365 1.1994,-11.975 7.6403,-22.51 18.37,-30.048 1.3765,-0.96704 5.9685,-3.6596 5.9485,-3.4879 -0.0312,0.2682 -0.82959,6.8059 -0.94027,7.6998 -0.55933,4.5176 5.9976,8.9055 15.698,10.505 3.005,0.49555 10.636,0.5565 13.594,0.10858 6.1675,-0.93386 11.205,-2.9227 14.054,-5.5486 1.909,-1.7597 2.5431,-3.5369 2.1037,-5.8968 -0.56125,-3.0147 -0.7102,-4.0468 -0.8437,-5.8461 l -0.13895,-1.8728 1.6026,0.80413 c 10.792,5.4149 18.885,14.276 22.42,24.543 1.496,4.3463 1.9252,6.8916 1.945,11.534 0.0187,4.3887 0.0166,4.4051 -0.75781,5.954 -0.99146,1.9832 -4.7324,5.7902 -7.3779,7.5083 -6.4244,4.1722 -15.389,7.0418 -26.793,8.5766 -2.7435,0.36923 -15.975,0.68345 -18.898,0.44879 z"
         id="path13" />
    </clipPath>
    <clipPath
       id="w">
      <path
         d="m 425.78901,68.88538 0.5,6.25 c 0.1259,0.21284 0.27878,0.40676 0.375,0.625 0.10068,0.22831 0.0565,0.48537 0.125,0.71875 0.0478,0.54252 0.18749,1.07148 0.1875,1.625 0,0.29868 -0.0797,0.57941 -0.0937,0.875 -0.0781,0.36207 -0.0642,0.71206 -0.21875,1.0625 -0.30449,0.69059 -0.76544,1.36529 -1.34375,2 -0.57831,0.63471 -1.27235,1.21668 -2.09375,1.78125 -0.8214,0.56457 -1.77873,1.11357 -2.8125,1.59375 -1.03377,0.48018 -2.15952,0.89973 -3.375,1.28125 -1.21548,0.38152 -2.50851,0.73139 -3.875,1 -1.36649,0.26861 -2.79445,0.48357 -4.28125,0.625 -1.4868,0.14143 -3.01736,0.1875 -4.59375,0.1875 -1.57639,0 -3.13821,-0.04607 -4.625,-0.1875 -1.48679,-0.14143 -2.91475,-0.3564 -4.28125,-0.625 -1.3665,-0.2686 -2.65952,-0.61847 -3.875,-1 -1.21548,-0.38153 -2.34123,-0.80107 -3.375,-1.28125 -1.03377,-0.48018 -1.99111,-1.02918 -2.8125,-1.59375 -0.82139,-0.56457 -1.51547,-1.14655 -2.09375,-1.78125 -0.57828,-0.6347 -1.03923,-1.30941 -1.34375,-2 -0.29585,-0.671 -0.42871,-1.35201 -0.4375,-2.0625 5.5e-4,-0.08277 0.0296,-0.16746 0.0312,-0.25 0.0228,-0.61376 0.11066,-1.22721 0.34375,-1.8125 l 0.65625,-6.25 c -14.72852,7.21675 -24.75,21.27672 -24.75,37.4375 0,14.16064 7.7147,26.6987 19.53125,34.4375 -11.7661,-7.74752 -19.40625,-20.30544 -19.40625,-34.4375 0,-0.0859 0.0307,-0.16418 0.0312,-0.25 0.0182,1.47325 0.324,2.92112 0.9375,4.3125 0.6314,1.43199 1.55087,2.80888 2.75,4.125 1.19913,1.31612 2.67177,2.54806 4.375,3.71875 1.70323,1.17069 3.6376,2.28556 5.78125,3.28125 2.14365,0.99569 4.47958,1.89638 7,2.6875 2.52042,0.79112 5.22897,1.47427 8.0625,2.03125 2.83353,0.55698 5.79202,0.98798 8.875,1.28125 3.08298,0.29327 6.29373,0.4375 9.5625,0.4375 3.26877,0 6.44827,-0.14423 9.53125,-0.4375 3.08298,-0.29327 6.07272,-0.72427 8.90625,-1.28125 2.83353,-0.55698 5.51083,-1.24013 8.03125,-2.03125 2.52042,-0.79112 4.85635,-1.69181 7,-2.6875 2.14365,-0.99569 4.10927,-2.11056 5.8125,-3.28125 1.70323,-1.17069 3.14461,-2.40263 4.34375,-3.71875 1.19914,-1.31612 2.14985,-2.69301 2.78125,-4.125 0.32041,-0.72667 0.33815,-1.49923 0.5,-2.25 -0.0882,1.85802 -0.28368,3.6809 -0.625,5.46875 0.46332,-2.3702 0.71875,-4.78936 0.71875,-7.28125 0,-16.7807 -10.77593,-31.27856 -26.4375,-38.21875 z m 25.71875,45.5 c -0.22324,1.16937 -0.48624,2.33394 -0.8125,3.46875 0.32968,-1.1281 0.5853,-2.30648 0.8125,-3.46875 z m -0.90625,3.71875 c -0.15153,0.51389 -0.32793,1.02507 -0.5,1.53125 0.17532,-0.50869 0.34527,-1.01482 0.5,-1.53125 z m -1.03125,3 c -0.24414,0.62724 -0.5067,1.26094 -0.78125,1.875 0.27425,-0.61697 0.53855,-1.24455 0.78125,-1.875 z m -72.28125,20.4375 c 2.14203,1.40115 4.38985,2.65235 6.78125,3.71875 -2.3834,-1.06993 -4.6475,-2.31541 -6.78125,-3.71875 z m 10.5,5.1875 c 1.24574,0.43966 2.51812,0.84269 3.8125,1.1875 -1.30092,-0.34916 -2.56116,-0.74239 -3.8125,-1.1875 z"
         fill-rule="evenodd"
         id="path16" />
    </clipPath>
    <clipPath
       id="v">
      <path
         d="m 350.71619,7.53276 0.5,6.25 c 0.1259,0.21284 0.27878,0.40676 0.375,0.625 0.10068,0.22831 0.0565,0.48536 0.125,0.71875 0.0478,0.54251 0.18749,1.07147 0.1875,1.625 0,0.29868 -0.0797,0.5794 -0.0937,0.875 -0.0781,0.36206 -0.0642,0.71205 -0.21875,1.0625 -0.30449,0.69059 -0.76544,1.36528 -1.34375,2 -0.57831,0.63472 -1.27235,1.21667 -2.09375,1.78125 -0.8214,0.56458 -1.77873,1.11357 -2.8125,1.59375 -1.03377,0.48018 -2.15952,0.89973 -3.375,1.28125 -1.21548,0.38152 -2.50851,0.73138 -3.875,1 -1.36649,0.26862 -2.79445,0.48356 -4.28125,0.625 -1.4868,0.14144 -3.01736,0.1875 -4.59375,0.1875 -1.57639,0 -3.13821,-0.04608 -4.625,-0.1875 -1.48679,-0.14142 -2.91476,-0.3564 -4.28125,-0.625 -1.36649,-0.2686 -2.65952,-0.61848 -3.875,-1 -1.21548,-0.38152 -2.34123,-0.80108 -3.375,-1.28125 -1.03377,-0.48017 -1.99111,-1.02918 -2.8125,-1.59375 -0.82139,-0.56457 -1.51547,-1.14655 -2.09375,-1.78125 -0.57828,-0.6347 -1.03923,-1.30942 -1.34375,-2 -0.29585,-0.671 -0.42871,-1.35202 -0.4375,-2.0625 5.5e-4,-0.08277 0.0296,-0.16746 0.0312,-0.25 0.0228,-0.61377 0.11066,-1.22721 0.34375,-1.8125 l 0.65625,-6.25 c -14.72852,7.21674 -24.75,21.27672 -24.75,37.4375 0,14.16064 7.7147,26.6987 19.53125,34.4375 -11.7661,-7.74752 -19.40625,-20.30544 -19.40625,-34.4375 0,-0.08593 0.0307,-0.16418 0.0312,-0.25 0.0183,1.47325 0.324,2.92112 0.9375,4.3125 0.6314,1.43199 1.55087,2.80888 2.75,4.125 1.19913,1.31612 2.67177,2.54806 4.375,3.71875 1.70323,1.17069 3.6376,2.28556 5.78125,3.28125 2.14365,0.99569 4.47958,1.89638 7,2.6875 2.52042,0.79112 5.22897,1.47427 8.0625,2.03125 2.83353,0.55698 5.79202,0.98798 8.875,1.28125 3.08298,0.29327 6.29373,0.4375 9.5625,0.4375 3.26877,0 6.44827,-0.14423 9.53125,-0.4375 3.08298,-0.29327 6.07272,-0.72427 8.90625,-1.28125 2.83353,-0.55698 5.51083,-1.24013 8.03125,-2.03125 2.52042,-0.79112 4.85635,-1.69181 7,-2.6875 2.14365,-0.99569 4.10927,-2.11056 5.8125,-3.28125 1.70323,-1.17069 3.14461,-2.40263 4.34375,-3.71875 1.19914,-1.31612 2.14985,-2.69301 2.78125,-4.125 0.32041,-0.72667 0.33815,-1.49923 0.5,-2.25 -0.0882,1.85802 -0.28368,3.6809 -0.625,5.46875 0.46332,-2.3702 0.71875,-4.78936 0.71875,-7.28125 0,-16.78071 -10.77593,-31.27856 -26.4375,-38.21875 z m 25.71875,45.5 c -0.22324,1.16937 -0.48624,2.33394 -0.8125,3.46875 0.32968,-1.1281 0.5853,-2.30648 0.8125,-3.46875 z m -0.90625,3.71875 c -0.15153,0.51389 -0.32793,1.02507 -0.5,1.53125 0.17532,-0.50869 0.34527,-1.01482 0.5,-1.53125 z m -1.03125,3 c -0.24414,0.62724 -0.5067,1.26094 -0.78125,1.875 0.27425,-0.61697 0.53855,-1.24455 0.78125,-1.875 z m -72.28125,20.4375 c 2.14203,1.40115 4.38985,2.65235 6.78125,3.71875 -2.3834,-1.06993 -4.6475,-2.31541 -6.78125,-3.71875 z m 10.5,5.1875 c 1.24574,0.43966 2.51812,0.84269 3.8125,1.1875 -1.30092,-0.34916 -2.56116,-0.74239 -3.8125,-1.1875 z"
         fill-rule="evenodd"
         id="path19" />
    </clipPath>
    <clipPath
       id="u">
      <path
         d="m 404.11,101.8 10.617,-0.3661 c 0,0 0.93936,21.265 1.2814,29.288 -0.30808,0.81126 -0.7703,1.0088 -1.5615,1.4209 -0.77751,0.40501 -2.1923,0.29328 -3.9522,0.0222 -1.7599,-0.27108 -2.6699,-0.89399 -3.4557,-1.4431 -0.87489,-0.6114 -0.89399,-0.57041 -1.8305,-2.0136 -0.91868,-1.4157 -1.0983,-2.7458 -1.0983,-2.7458 v -24.163 z"
         id="path22" />
    </clipPath>
    <clipPath
       id="t">
      <path
         d="m 398.22,94.615 11.523,-0.3661 c 0,0 0.93936,21.265 1.2814,29.288 -0.30808,0.81126 -0.7703,1.0088 -1.5615,1.4209 -0.77751,0.40501 -2.1923,0.29328 -3.9522,0.0222 -1.7599,-0.27108 -2.6699,-0.89399 -3.4557,-1.4431 -0.87489,-0.6114 -0.89399,-0.57041 -1.8305,-2.0136 -0.91868,-1.4157 -1.0983,-2.7458 -1.0983,-2.7458 l -0.90605,-24.163 z"
         id="path25" />
    </clipPath>
    <clipPath
       id="s">
      <path
         d="m 380.27,99.759 11.523,-0.3661 c 0,0 0.93936,21.265 1.2814,29.288 -0.30808,0.81126 -0.7703,1.0088 -1.5615,1.4209 -0.77751,0.40501 -2.1923,0.29328 -3.9522,0.0222 -1.7599,-0.27108 -2.6699,-0.89399 -3.4557,-1.4431 -0.87489,-0.6114 -0.89399,-0.57041 -1.8305,-2.0136 -0.91868,-1.4157 -1.0983,-2.7458 -1.0983,-2.7458 l -0.90605,-24.163 z"
         id="path28" />
    </clipPath>
    <filter
       id="r"
       x="-0.054480001"
       y="-0.17075001"
       width="1.109"
       height="1.3415">
      <feGaussianBlur
         stdDeviation="1.62673"
         id="feGaussianBlur31" />
    </filter>
    <filter
       id="q"
       x="-0.30245"
       y="-0.23614"
       width="1.6049"
       height="1.4723001">
      <feGaussianBlur
         stdDeviation="7.2618"
         id="feGaussianBlur34" />
    </filter>
    <filter
       id="p"
       x="-0.1796"
       y="-0.11946"
       width="1.3592"
       height="1.2388999">
      <feGaussianBlur
         stdDeviation="2.8089"
         id="feGaussianBlur37" />
    </filter>
    <filter
       id="o"
       x="-0.13259"
       y="-0.54174"
       width="1.2652"
       height="2.0834999">
      <feGaussianBlur
         stdDeviation="2.50639"
         id="feGaussianBlur40" />
    </filter>
    <filter
       id="n"
       x="-0.54624999"
       y="-0.32097"
       width="2.0925"
       height="1.6418999">
      <feGaussianBlur
         stdDeviation="7.95065"
         id="feGaussianBlur43" />
    </filter>
    <filter
       id="m"
       x="-0.052749999"
       y="-0.1904"
       width="1.1055"
       height="1.3808">
      <feGaussianBlur
         stdDeviation="2.04998"
         id="feGaussianBlur46" />
    </filter>
    <filter
       id="l"
       x="-0.082419999"
       y="-0.11394"
       width="1.1648"
       height="1.2279">
      <feGaussianBlur
         stdDeviation=".41785"
         id="feGaussianBlur49" />
    </filter>
    <filter
       id="k"
       x="-0.13420001"
       y="-0.33302999"
       width="1.2684"
       height="1.666">
      <feGaussianBlur
         stdDeviation=".33232"
         id="feGaussianBlur52" />
    </filter>
    <filter
       id="j"
       x="-0.49722001"
       y="-0.04764"
       width="1.9944"
       height="1.0953">
      <feGaussianBlur
         stdDeviation=".61145"
         id="feGaussianBlur55" />
    </filter>
    <filter
       id="i"
       x="-0.33794999"
       y="-0.052779999"
       width="1.6759"
       height="1.1056">
      <feGaussianBlur
         stdDeviation=".64653"
         id="feGaussianBlur58" />
    </filter>
    <filter
       id="h"
       x="-0.42798001"
       y="-0.32517999"
       width="1.8559999"
       height="1.6504">
      <feGaussianBlur
         stdDeviation="4.86493"
         id="feGaussianBlur61" />
    </filter>
    <filter
       id="g"
       x="-0.13613001"
       y="-0.21430001"
       width="1.2723"
       height="1.4286">
      <feGaussianBlur
         stdDeviation="10.14409"
         id="feGaussianBlur64" />
    </filter>
    <linearGradient
       id="f"
       x1="-208.57001"
       x2="-348.57001"
       y1="1549.5"
       y2="1643.8"
       gradientUnits="userSpaceOnUse">
      <stop
         stop-color="#0f0"
         offset="0"
         id="stop67" />
      <stop
         stop-color="#0ff"
         stop-opacity="0"
         offset="1"
         id="stop69" />
    </linearGradient>
    <linearGradient
       id="e"
       x1="114.29"
       x2="257.14001"
       y1="469.51001"
       y2="106.65"
       gradientUnits="userSpaceOnUse">
      <stop
         stop-color="#ff0"
         offset="0"
         id="stop72" />
      <stop
         stop-color="#ff0"
         stop-opacity="0"
         offset="1"
         id="stop74" />
    </linearGradient>
    <linearGradient
       id="d"
       x1="314.29001"
       x2="185.71001"
       y1="338.07999"
       y2="466.64999"
       gradientUnits="userSpaceOnUse">
      <stop
         stop-color="#f00"
         offset="0"
         id="stop77" />
      <stop
         stop-color="#f00"
         stop-opacity="0"
         offset="1"
         id="stop79" />
    </linearGradient>
    <linearGradient
       id="c"
       x1="494.29001"
       x2="337.14001"
       y1="1512.4"
       y2="1198.1"
       gradientUnits="userSpaceOnUse">
      <stop
         stop-color="#f0f"
         offset="0"
         id="stop82" />
      <stop
         stop-color="#f0f"
         stop-opacity="0"
         offset="1"
         id="stop84" />
    </linearGradient>
    <linearGradient
       id="b"
       x1="-197.14"
       x2="-645.71002"
       y1="1505.2"
       y2="1543.8"
       gradientUnits="userSpaceOnUse">
      <stop
         stop-color="#0f0"
         offset="0"
         id="stop87" />
      <stop
         stop-color="#0f0"
         stop-opacity="0"
         offset="1"
         id="stop89" />
    </linearGradient>
    <linearGradient
       id="a"
       x1="146.19"
       x2="203.92999"
       y1="-99.078003"
       y2="-25.858"
       gradientUnits="userSpaceOnUse">
      <stop
         stop-color="#34434f"
         offset="0"
         id="stop92" />
      <stop
         stop-color="#43acff"
         offset="1"
         id="stop94" />
    </linearGradient>
  </defs>
  <g
     transform="matrix(1.3266,-0.08311,-0.76937,0.80198,1328.9,216.03)"
     clip-path="url(#aa)"
     fill-rule="evenodd"
     stroke="#000000"
     id="g109">
    <path
       d="m -190,1266.8 h 494.29 a 215.57,215.57 0 0 1 215.57,215.57 v 0 A 215.57,215.57 0 0 1 304.29,1697.94 H -190 a 215.57,215.57 0 0 1 -215.57,-215.57 v 0 A 215.57,215.57 0 0 1 -190,1266.8"
       fill="url(#f)"
       stroke-width="1.2961"
       id="path99" />
    <path
       transform="translate(-157.14,1185.7)"
       d="m 300,500.93 -136.8,61.684 -140.35,-53.112 -61.684,-136.8 53.112,-140.35 136.8,-61.684 140.35,53.112 61.684,136.8 z"
       fill="url(#e)"
       id="path101" />
    <path
       transform="translate(-157.14,1185.7)"
       d="m 522.86,303.79 a 210,117.14 0 1 1 -420,0 210,117.14 0 1 1 420,0 z"
       fill="url(#d)"
       id="path103" />
    <path
       transform="translate(34.286,114.29)"
       d="m 668.57,1580.9 -192.53,-48.628 0.23517,198.57 -101.75,-170.52 -140.24,140.58 48.628,-192.53 -198.57,0.2352 170.52,-101.75 -140.58,-140.24 192.53,48.628 -0.23517,-198.57 101.75,170.52 140.24,-140.58 -48.628,192.53 198.57,-0.2351 -170.52,101.75 140.58,140.24 z"
       fill="url(#c)"
       id="path105" />
    <path
       transform="translate(45.714,-17.143)"
       d="m -225.71,1505.2 a 167.145,132.86397 0 1 1 -334.29,0 167.145,132.86397 0 1 1 334.29,0 z"
       fill="url(#b)"
       id="path107" />
  </g>
  <g
     transform="matrix(1.7171085,-0.29925429,0.29925429,1.7171085,324.85963,-36.67594)"
     id="g155">
    <path
       d="m -50.053,165.09 6.6468,-10.351 c 0,0 14.827,20.347 20.414,28.033 0.35994,1.0743 0.21598,1.6714 0.01921,2.7673 -0.19337,1.0769 -1.1146,2.1919 -2.3491,3.4475 -1.2313,1.2524 -2.1967,1.4244 -3.0351,1.5591 -0.93345,0.14988 -0.91738,0.20721 -2.4456,-0.41716 -1.4992,-0.61248 -2.4989,-1.7803 -2.4989,-1.7803 l -16.751,-23.258 z"
       filter="url(#h)"
       opacity="0.61029"
       id="path111" />
    <path
       transform="matrix(0.83168,0.11563,-0.3233,0.8085,-170.57,11.883)"
       d="m 223.11,162.74 c -16.131,6.9374 -34.363,10.064 -47.598,8.1618 -5.9221,-0.85095 -10.048,-2.5546 -14.167,-5.8498 -11.664,-9.3318 -15.756,-20.757 -11.094,-30.976 0.5967,-1.3079 0.79664,-2.1741 0.54254,-2.3504 -0.47702,-0.33102 -40.15,-32.991 -41.293,-33.993 -0.77338,-0.67842 -0.80408,-0.68443 -2.0511,-0.40177 -9.1806,2.081 -18.734,2.2799 -24.484,0.50986 -2.4665,-0.75926 -3.0852,-1.1106 -8.5251,-4.8402 -4.5471,-3.1175 -4.6226,-3.1799 -5.0907,-4.2012 -4.1247,-9.0001 23.003,-26.165 47.752,-30.216 6.8876,-1.1272 13.216,-0.96314 16.704,0.43296 3.8164,1.5275 10.694,6.6169 11.927,8.825 1.2124,2.1728 0.89422,5.0976 -0.90492,8.3195 -0.77216,1.3828 -4.4921,5.7057 -5.203,6.0464 -0.19186,0.09195 -0.19739,0.2723 -0.0123,0.40075 0.18509,0.12845 11.35,6.9526 24.811,15.165 13.461,8.2124 24.674,15.069 24.918,15.238 0.244,0.169 0.47893,0.2123 0.5228,0.0966 0.0439,-0.11573 1.3801,-0.30972 2.9694,-0.4311 9.2936,-0.70977 20.153,0.20191 30.037,2.5218 3.7978,0.89138 9.7786,2.8401 13.397,4.3651 5.4904,2.3141 7.2456,3.2681 11.794,6.4105 4.1343,2.8563 4.1757,2.8917 4.762,4.0707 1.4285,2.8727 1.3871,5.8284 -0.13449,9.5954 -2.3957,5.931 -10.695,13.488 -20.447,18.617 -1.7287,0.90929 -3.5856,1.9007 -4.1266,2.2032 -0.541,0.3025 -2.7927,1.3281 -5.004,2.279 h 1e-5 z"
       filter="url(#g)"
       opacity="0.5"
       id="path113" />
    <g
       transform="matrix(0.99916,0.04103,-0.04103,0.99916,-411.19,93.96)"
       id="g123">
      <path
         d="m 380.64,53.631 11.523,-0.3661 c 0,0 0.93936,21.265 1.2814,29.288 -0.30808,0.81126 -0.7703,1.0088 -1.5615,1.4209 -0.77751,0.40501 -2.1923,0.29328 -3.9522,0.0222 -1.7599,-0.27108 -2.6699,-0.89399 -3.4557,-1.4431 -0.87489,-0.6114 -0.89399,-0.57041 -1.8305,-2.0136 -0.91868,-1.4157 -1.0983,-2.7458 -1.0983,-2.7458 l -0.90605,-24.163 z"
         fill="#b8b17a"
         id="path115" />
      <g
         transform="translate(0.3661,-46.129)"
         clip-path="url(#s)"
         id="g121">
        <path
           transform="matrix(2.5569,0.036779,-0.042224,1.0598,-663.15,-23.945)"
           d="m 413.27644,131.73365 c 0.46347,-0.24434 0.94858,-0.67046 1.11526,-0.97963 0.10282,-0.19073 -0.83894,-24.13318 -1.11765,-28.41376 l -0.0779,-1.19728 h 0.65253 c 0.5734,0 0.65947,0.0353 0.70987,0.29123 0.0316,0.16017 0.1524,2.62107 0.26856,5.46866 0.11616,2.84759 0.29578,6.71329 0.39914,8.59044 0.10336,1.87715 0.24483,5.08068 0.31438,7.11897 0.0696,2.03829 0.16527,4.65313 0.2127,5.81076 l 0.0863,2.10478 -0.52585,0.50023 c -0.53371,0.5077 -1.48738,0.92491 -2.09266,0.91549 l -0.33289,-0.005 z"
           clip-path="url(#u)"
           fill="#85807d"
           filter="url(#j)"
           id="path117" />
        <path
           transform="matrix(1.768,0,0,1.1557,-325.37,-11.57)"
           d="m 402.08492,123.81544 c -0.7624,-0.52025 -0.97421,-0.71105 -1.37402,-1.23777 -0.78012,-1.02772 -1.37427,-2.22936 -1.59884,-3.23359 -0.0859,-0.38421 -0.18701,-2.67013 -0.52191,-11.80215 -0.22845,-6.2291 -0.43258,-11.63415 -0.45362,-12.01122 l -0.0383,-0.68559 0.85648,-0.04097 c 0.47107,-0.02253 0.86602,-0.03143 0.87767,-0.01978 0.0117,0.01165 0.20947,5.63283 0.43959,12.49151 0.44656,13.30981 0.40674,12.61367 0.78884,13.79209 0.25035,0.77214 0.99253,2.19274 1.49707,2.86553 0.0875,0.11666 0.14552,0.22562 0.129,0.24215 -0.0165,0.0165 -0.28742,-0.14557 -0.60199,-0.36022 z"
           clip-path="url(#t)"
           fill="#464845"
           filter="url(#i)"
           id="path119" />
      </g>
    </g>
    <g
       transform="translate(-310.79,62.969)"
       id="g153">
      <g
         transform="translate(19.933,184.31)"
         fill="#347fb6"
         id="g129">
        <path
           d="m 256.7,-84.119 c -20.105,-1.614 -35.808,-8.7122 -39.258,-17.746 -0.80175,-2.099 -1.0226,-4.2947 -0.72796,-7.2365 1.1994,-11.975 7.6403,-22.51 18.37,-30.048 1.3765,-0.96704 5.9685,-3.6596 5.9485,-3.4879 -0.0312,0.2682 1.2414,7.0648 1.1307,7.9587 -0.55933,4.5176 5.9976,6.5756 15.698,8.1753 3.005,0.49555 7.788,0.81537 10.746,0.36745 6.1675,-0.93386 9.134,-2.1461 11.983,-4.772 1.909,-1.7597 2.5431,-1.9837 2.1037,-4.3436 -0.56125,-3.0147 0.84303,-4.5646 0.70953,-6.3638 l 0.24936,-1.8728 2.5086,0.80412 c 10.792,5.4149 18.885,14.276 22.42,24.543 1.496,4.3463 1.9252,6.8916 1.945,11.534 0.0187,4.3887 0.0166,4.4051 -0.75781,5.954 -0.99146,1.9832 -4.7324,5.7902 -7.3779,7.5083 -6.4244,4.1722 -15.389,7.0418 -26.793,8.5766 -2.7435,0.36923 -15.975,0.68345 -18.898,0.44879 z"
           id="path125" />
        <path
           d="m 256.7,-84.119 c -20.105,-1.614 -35.808,-8.7122 -39.258,-17.746 -0.80175,-2.099 -1.0226,-4.2947 -0.72796,-7.2365 1.1994,-11.975 7.6403,-22.51 18.37,-30.048 1.3765,-0.96704 5.9685,-3.6596 5.9485,-3.4879 -0.0312,0.2682 -0.82959,6.8059 -0.94027,7.6998 -0.55933,4.5176 5.9976,8.9055 15.698,10.505 3.005,0.49555 10.636,0.5565 13.594,0.10858 6.1675,-0.93386 11.205,-2.9227 14.054,-5.5486 1.909,-1.7597 2.5431,-3.5369 2.1037,-5.8968 -0.56125,-3.0147 -0.7102,-4.0468 -0.8437,-5.8461 l -0.13895,-1.8728 1.6026,0.80412 c 10.792,5.4149 18.885,14.276 22.42,24.543 1.496,4.3463 1.9252,6.8916 1.945,11.534 0.0187,4.3887 0.0166,4.4051 -0.75781,5.954 -0.99146,1.9832 -4.7324,5.7902 -7.3779,7.5082 -6.4244,4.1722 -15.389,7.0418 -26.793,8.5766 -2.7435,0.36923 -15.975,0.68345 -18.898,0.44879 z"
           id="path127" />
      </g>
      <path
         d="m 299.8898,-9.09817 c -5.20067,1.31227 -11.19089,2.0625 -17.59375,2.0625 -5.95424,0 -11.5874,-0.63527 -16.53125,-1.78125 l -5.875,56.03125 c -0.23308,0.58529 -0.32094,1.19874 -0.34375,1.8125 -0.002,0.08254 -0.0307,0.16723 -0.0312,0.25 0.009,0.71049 0.14165,1.3915 0.4375,2.0625 0.30453,0.69059 0.76546,1.36529 1.34375,2 0.57829,0.63471 1.27236,1.21668 2.09375,1.78125 0.82139,0.56457 1.77871,1.11357 2.8125,1.59375 1.03379,0.48018 2.15952,0.89973 3.375,1.28125 1.21548,0.38152 2.50852,0.73139 3.875,1 1.36648,0.26861 2.79446,0.48357 4.28125,0.625 1.48679,0.14143 3.04861,0.1875 4.625,0.1875 1.57639,0 3.10697,-0.04607 4.59375,-0.1875 1.48678,-0.14143 2.91476,-0.35639 4.28125,-0.625 1.36649,-0.26861 2.65951,-0.61848 3.875,-1 1.21549,-0.38152 2.34121,-0.80107 3.375,-1.28125 1.03379,-0.48018 1.9911,-1.02918 2.8125,-1.59375 0.8214,-0.56457 1.51546,-1.14654 2.09375,-1.78125 0.57829,-0.63471 1.03926,-1.30941 1.34375,-2 0.15454,-0.35044 0.14069,-0.70044 0.21875,-1.0625 0.014,-0.29559 0.0937,-0.57632 0.0937,-0.875 0,-0.55352 -0.13975,-1.08249 -0.1875,-1.625 -0.0685,-0.23338 -0.0243,-0.49044 -0.125,-0.71875 -0.0962,-0.21823 -0.2491,-0.41216 -0.375,-0.625 z"
         fill="#347fb6"
         fill-rule="evenodd"
         id="path131" />
      <path
         transform="translate(-121.89,-25.674)"
         d="m 374.15,12.455 51.254,4.0271 c 0,0 -5.8576,6.2237 -11.898,9.1525 -6.0404,2.9288 -12.447,3.2949 -13.363,5.4915 -2.9453,18.527 -1.8479,35.783 -2.9288,54.549 -0.3661,2.0136 -28.19,-1.8305 -29.288,-1.8305 -1.098,0 4.3932,-40.454 4.0271,-49.057 -0.3661,-8.603 2.5627,-21.966 2.1966,-22.332 z"
         clip-path="url(#y)"
         fill="#32597d"
         filter="url(#q)"
         id="path133" />
      <path
         d="m 279.68,61.223 c -4.3013,-0.29113 -8.636,-1.2544 -12.07,-2.6825 -3.2479,-1.3505 -5.8459,-3.41 -6.8228,-5.4086 -0.4126,-0.84415 -0.55741,-1.4508 -0.55276,-2.3155 l 0.003,-0.61329 0.17576,0.48853 c 1.459,4.0555 8.023,7.415 16.661,8.527 4.3116,0.55507 10.048,0.41032 14.184,-0.35792 2.4787,-0.46039 4.9626,-1.1832 7.0854,-2.062 3.7074,-1.5347 6.6488,-4.0537 7.1921,-6.1594 0.0687,-0.26618 0.0799,-0.13331 0.0491,0.58362 -0.0642,1.495 -0.47382,2.4084 -1.6455,3.6694 -3.1673,3.4086 -9.8594,5.7906 -17.806,6.3379 -1.5271,0.10518 -4.8472,0.1015 -6.4525,-0.0072 z"
         fill="#004080"
         filter="url(#o)"
         id="path135" />
      <path
         transform="translate(107.41,147.8)"
         d="m 151.57,-111.84 5.8576,15.376 c 0,0 -10.983,6.5898 -10.983,10.983 0,4.3932 6.5898,8.0542 8.7864,14.644 2.1966,6.5898 10.251,17.573 8.0542,25.627 -2.1968,8.054 -46.861,13.912 -46.861,13.912 l -29.288,-43.2 23.43,-33.681 41.003,-3.661 z"
         clip-path="url(#x)"
         fill="url(#a)"
         filter="url(#n)"
         id="path137"
         style="fill:url(#a)" />
      <path
         transform="translate(-121.41,-28.088)"
         d="m 420.67,74.603 c 0,0 3.1642,0.41201 5.4363,1.2944 2.2721,0.88239 6.413,2.3282 9.3194,5.1774 2.9064,2.8492 6.791,10.378 8.2839,14.238 1.4929,3.86 2.4541,8.3112 2.3298,10.873 -0.1243,2.5618 -0.94633,4.2726 -1.8121,5.6952 -0.86577,1.4226 -3.6242,3.6242 -3.6242,3.6242 l 2.3298,2.071 13.461,-13.461 -9.0605,-37.278 -17.344,-5.6952 -11.131,6.7307 1.8121,6.7307 z"
         clip-path="url(#w)"
         fill="#366889"
         filter="url(#p)"
         id="path139" />
      <path
         transform="translate(-46.132,33.336)"
         d="m 322.59,66.739 c -17.062,-1.072 -31.934,-6.6434 -37.978,-14.227 -1.5242,-1.9124 -2.7676,-4.8972 -2.7432,-6.5847 0.007,-0.49183 0.008,-0.49132 0.2658,0.10068 1.1494,2.6444 4.2366,5.8553 7.8728,8.1882 7.9225,5.0829 19.241,8.2205 32.674,9.0582 13.122,0.81821 27.179,-1.2125 37.342,-5.3943 2.9773,-1.2251 7.0219,-3.4853 8.9874,-5.0222 2.6646,-2.0836 5.3246,-5.187 5.9528,-6.945 0.21026,-0.58844 0.24058,-0.61155 0.26941,-0.20541 0.063,0.88689 0.31811,-1.3954 0.3581,-3.2034 0.0358,-1.6174 0.0571,-1.724 0.18305,-0.91525 0.20995,1.348 0.20291,5.2009 -0.0116,6.3318 -0.10241,0.54001 -0.42916,1.478 -0.72611,2.0843 l -0.5399,1.1024 0.0794,-0.7322 c 0.0692,-0.63783 0.0472,-0.60794 -0.17015,0.23197 -0.3102,1.1984 -0.54239,1.554 -2.0787,3.1838 -8.421,8.933 -28.878,14.259 -49.737,12.948 z"
         clip-path="url(#v)"
         fill="#67a6c0"
         filter="url(#m)"
         id="path141" />
      <path
         d="m 290.86,71.996 3.3653,5.6952 8.8016,-3.1065 -2.8476,-5.6952 -9.3194,3.1065 z"
         fill="#c3f2ff"
         filter="url(#l)"
         id="path143" />
      <path
         d="m 289.03,58.049 0.43654,1.485 5.5067,-1.276 -0.28489,-1.1189 -5.6584,0.90986 z"
         fill="#c3f2ff"
         filter="url(#k)"
         id="path145" />
      <path
         d="m 246.42,-31.761 v 9.5938 h 0.0937 c 0.41629,8.6591 16.318,15.625 35.844,15.625 19.526,0 35.395,-6.9663 35.812,-15.625 h 0.0937 v -8.3125 c 0,7.1408 -16.057,12.938 -35.844,12.938 -19.787,0 -35.844,-5.7967 -35.844,-12.938 0,-0.43624 0.0704,-0.85606 0.1875,-1.2812 h -0.34375 z m 71.844,1.2812 v -1.2812 h -0.1875 c 0.11696,0.425 0.1875,0.84521 0.1875,1.2812 z"
         fill="#347fb6"
         fill-rule="evenodd"
         id="path147" />
      <path
         transform="translate(-47.13,188.63)"
         d="m 326.71,-195.52 c -16.794,-0.62813 -30.368,-6.4468 -32.51,-13.936 -0.17432,-0.60948 -0.22122,-1.5302 -0.2556,-5.0178 -0.0388,-3.9396 -0.0273,-4.2183 0.14827,-3.5877 0.10471,0.37604 0.39495,1.0692 0.64498,1.5404 0.25003,0.4712 0.45461,1.0424 0.45461,1.2695 0,0.589 0.46143,2.3142 0.84033,3.1418 1.5948,3.4836 5.7868,6.9884 11.391,9.5241 5.8544,2.6488 12.454,4.2709 20.451,5.0263 2.7845,0.26304 10.341,0.22329 12.944,-0.0681 6.7336,-0.75386 11.412,-1.9672 15.791,-4.0951 4.9996,-2.4295 7.952,-5.4481 8.6659,-8.86 0.21955,-1.0493 0.39005,-1.3045 0.26493,-0.39642 -0.3286,2.3848 -1.0802,3.8936 -2.8754,5.7727 -4.5859,4.8 -13.735,8.2078 -25.147,9.3669 -1.7354,0.17626 -3.369,0.26537 -6.8601,0.3742 -0.7475,0.0233 -2.524,-0.001 -3.9478,-0.0545 z"
         clip-path="url(#z)"
         fill="#365677"
         filter="url(#r)"
         id="path149" />
      <path
         transform="matrix(1.1078,0,0,0.94286,-162.37,-39.616)"
         d="m 433.87,9.8854 a 32.359,13.72 0 1 1 -64.718,0 32.359,13.72 0 1 1 64.718,0 z"
         fill="#336894"
         fill-rule="evenodd"
         id="path151" />
    </g>
  </g>
</svg>
