<?xml version="1.0" encoding="UTF-8" standalone="no"?>
<svg
   xmlns:dc="http://purl.org/dc/elements/1.1/"
   xmlns:cc="http://creativecommons.org/ns#"
   xmlns:rdf="http://www.w3.org/1999/02/22-rdf-syntax-ns#"
   xmlns:svg="http://www.w3.org/2000/svg"
   xmlns="http://www.w3.org/2000/svg"
   xmlns:sodipodi="http://sodipodi.sourceforge.net/DTD/sodipodi-0.dtd"
   xmlns:inkscape="http://www.inkscape.org/namespaces/inkscape"
   version="1.1"
   x="0"
   y="0"
   width="125mm"
   height="88mm"
   viewBox="0 0 472.44095 332.59842"
   id="svg172"
   sodipodi:docname="tiger.svg"
   inkscape:version="1.0.2-2 (e86c870879, 2021-01-15)">
  <metadata
     id="metadata178">
    <rdf:RDF>
      <cc:Work
         rdf:about="">
        <dc:format>image/svg+xml</dc:format>
        <dc:type
           rdf:resource="http://purl.org/dc/dcmitype/StillImage" />
        <dc:title></dc:title>
      </cc:Work>
    </rdf:RDF>
  </metadata>
  <defs
     id="defs176" />
  <sodipodi:namedview
     pagecolor="#ffffff"
     bordercolor="#666666"
     borderopacity="1"
     objecttolerance="10"
     gridtolerance="10"
     guidetolerance="10"
     inkscape:pageopacity="0"
     inkscape:pageshadow="2"
     inkscape:window-width="1920"
     inkscape:window-height="1017"
     id="namedview174"
     showgrid="false"
     units="mm"
     inkscape:zoom="0.87360576"
     inkscape:cx="306.49256"
     inkscape:cy="353.38754"
     inkscape:window-x="-8"
     inkscape:window-y="-8"
     inkscape:window-maximized="1"
     inkscape:current-layer="svg172" />
  <g
     id="ƒŒƒCƒ_x201e__x0081__x005b__x0020_1"
     transform="matrix(0.48866119,0,0,0.48866119,76.896958,-2.3630369)">
    <g
       id="_417358768">
      <path
         d="m 93.084,146.938 c 0,0 8.928,100.797 -15.84,104.253 0,0 -24.767,1.728 -29.951,-31.967 0,0 -20.448,-84.094 6.336,-96.477 0,0 11.52,-11.52 3.456,-21.312 0,0 -12.384,-12.383 -29.952,3.456 0,0 -24.768,22.175 -15.84,104.253 0,0 16.704,92.734 69.119,90.142 0,0 23.904,-6.048 25.632,-14.112 l 3.456,107.997 c 0,0 9.792,29.952 3.456,52.991 0,0 -7.2,64.51 10.656,110.589 0,0 -1.728,52.991 33.696,60.19 0,0 76.895,12.384 80.351,-8.063 l -3.456,-23.04 c 0,0 27.36,-14.111 25.632,-40.607 0,0 -47.808,-79.486 -18.432,-122.108 0,0 49.536,-26.496 50.4,-52.127 0,0 29.087,29.951 74.303,15.84 0,0 23.04,19.583 37.152,15.839 0,0 7.2,83.23 -28.224,141.404 0,0 -30.816,49.535 -6.048,72.574 0,0 11.52,-0.864 21.312,14.112 l 66.239,5.184 c 0,0 21.312,-9.792 8.064,-36.287 l -24.768,-25.631 11.52,-38.015 c 0,0 19.584,35.423 21.312,57.598 0,0 0,20.448 4.32,27.359 0,0 -12.384,46.079 10.656,48.671 0,0 31.968,20.447 56.735,5.184 0,0 37.152,0.864 43.488,-14.112 0,0 8.064,-24.767 -14.976,-46.943 0,0 -58.463,-117.5 -52.991,-167.035 0,0 15.84,-82.366 33.695,-114.045 0,0 2.016,-0.576 5.184,-1.44 0.576,-0.288 2.304,-4.32 3.168,-4.608 0.864,-0.288 0.864,3.456 1.728,2.88 2.016,-0.864 4.32,-1.728 6.336,-2.88 0.864,-0.576 1.44,-4.896 2.304,-5.472 0.576,-0.288 1.728,3.168 2.304,2.592 4.896,-3.168 8.352,-7.488 8.064,-12.383 0,0 10.08,3.743 22.752,2.304 1.44,-0.288 -0.576,-4.032 0.576,-4.32 1.152,-0.288 5.472,3.168 6.624,2.88 0.864,-0.288 0.576,-5.472 1.728,-5.76 0.864,-0.288 3.168,4.032 4.032,3.744 1.152,-0.576 1.44,-3.456 2.88,-4.32 0.576,-0.288 2.304,1.44 2.88,1.152 0.864,-0.576 2.016,-1.44 2.88,-2.304 0.864,-0.576 1.152,-5.76 2.016,-6.624 0.576,-0.576 2.016,2.88 2.88,2.304 0.864,-0.864 1.152,-5.472 1.728,-6.624 1.44,0.576 4.608,-2.016 2.304,1.44 1.152,-1.728 2.592,-3.744 3.744,-6.048 0.288,-0.576 -0.288,-4.608 0,-5.184 0.576,-0.864 2.016,1.44 2.304,0.288 0,0 0,-6.048 1.44,-8.639 0.576,-1.152 2.016,2.303 2.592,1.152 0.864,-1.728 0.576,-6.912 1.44,-8.928 0.864,-1.728 2.88,0.288 3.456,-1.728 3.456,-7.776 6.911,-17.28 9.503,-28.223 0.288,-0.864 -2.016,-2.016 -1.728,-3.168 0.289,-0.864 2.592,-1.728 2.88,-2.592 4.032,-21.024 3.168,-45.215 -11.231,-66.239 l 9.791,-28.223 -0.864,-9.792 c 0,0 23.04,-50.398 -8.063,-60.19 0,0 -37.152,-14.112 -58.464,31.967 0,0 -29.952,-27.359 -72.575,-24.767 0,0 -52.992,-40.607 -98.207,1.728 0,0 -16.704,6.336 -54.72,-20.448 0,0 -63.647,-54.718 -163.583,-40.607 0,0 -115.775,20.448 -109.727,131.037 z"
         fill="#373435"
         id="path2" />
      <path
         d="M 591.896,103.739 C 547.544,70.908 515.865,78.972 515.865,78.972 453.945,45.277 427.449,79.836 427.449,79.836 400.09,87.9 368.122,66.588 368.122,66.588 293.819,2.942 206.267,21.373 206.267,21.373 101.148,48.733 97.404,124.763 97.404,124.763 l 9.792,145.148 7.2,120.381 7.2,38.878 -2.592,16.704 c -11.52,46.079 15.84,143.42 15.84,143.42 8.064,25.632 24.768,18.72 24.768,18.72 l 10.656,-14.112 5.184,11.52 c 1.728,7.2 16.703,2.592 16.703,2.592 7.2,-2.592 4.32,-17.568 4.32,-17.568 l 8.064,16.704 c 3.456,5.184 8.928,0.864 8.928,0.864 l 8.064,-18.72 3.456,19.584 c 18.432,-15.84 -18.432,-38.015 -18.432,-38.015 -36.287,-7.2 -32.831,-79.486 -32.831,-79.486 10.656,-48.671 36.287,-183.163 36.287,-183.163 0,0 50.4,47.806 82.368,57.598 0,0 39.743,29.087 74.303,15.84 l 48.672,21.311 c 0,0 14.975,100.797 39.743,132.765 0,0 27.36,58.462 24.768,83.229 0,0 -5.184,45.215 7.2,47.807 0,0 7.2,-15.839 7.2,-25.631 v 9.792 l 8.928,-18.432 v 35.423 c 0,0 8.928,8.064 15.84,4.32 l 6.048,-23.903 1.728,23.903 c 0,0 7.2,3.456 8.928,-3.456 v -22.175 c 0,0 2.591,24.767 15.839,22.175 l 4.32,-24.767 10.656,21.311 c 0,0 18.72,0.864 13.248,-19.583 0,0 -6.336,-23.04 -15.84,-31.967 0,0 -56.735,-124.701 -52.991,-163.58 0,0 18.432,-91.006 35.423,-117.789 0,0 -40.607,4.32 -56.735,-32.831 0,0 -58.464,-3.456 -55.584,-82.366 0,0 4.32,-32.831 21.312,-54.718 l -6.048,-14.976 -4.32,-19.584 c 0,0 -20.448,-27.359 -0.864,-46.078 0,0 11.52,-31.967 60.192,8.063 0,0 44.351,-6.335 88.415,14.112 z"
         fill="#e5ac50"
         id="path4" />
      <path
         d="m 561.944,623.277 c 0,0 -13.248,-11.807 -63.647,7.2 0,0 21.888,-15.263 58.463,-13.823 0,0 14.688,0.575 5.184,6.623 z"
         fill="#fefefe"
         id="path6" />
      <path
         d="m 286.619,368.692 c 0,0 -10.08,38.591 -48.384,50.399 0,0 -35.136,28.511 10.656,120.668 0,0 17.28,10.368 -1.728,29.088 -0.288,0.288 2.304,-18.72 2.016,-18.144 -0.576,0.576 -4.32,20.448 -5.184,21.312 -2.592,2.304 -5.472,4.607 -9.216,6.911 l -4.608,1.728 8.064,-30.239 c 0,0 -11.52,30.239 -12.96,28.799 -1.728,-1.728 -4.608,-4.607 -8.064,-7.199 -0.576,-0.576 0,-22.176 -0.576,-22.464 -0.576,-0.576 -2.016,20.448 -2.592,19.872 -6.048,-4.896 -13.248,-9.504 -17.568,-9.504 0,0 -16.703,-19.872 -15.263,-49.823 l -0.576,-36.575 12.671,-57.598 18.432,-98.782 c 0,0 41.76,42.335 74.88,51.839 z"
         fill="#fefefe"
         id="path8" />
      <path
         d="m 407.29,406.419 c 0,0 4.032,85.534 -33.12,150.62 0,0 -25.344,42.335 0,57.022 0,0 27.648,-6.623 33.408,-17.279 5.184,14.112 -16.992,27.647 -15.552,31.103 l 14.112,1.44 11.52,-4.32 11.807,-25.055 -8.063,31.103 18.143,2.016 8.928,-31.391 -1.728,32.255 7.488,0.864 c 0,0 14.688,-13.248 5.184,-31.103 0,0 -10.08,-20.448 -32.544,-23.328 l -13.823,-4.608 22.463,2.016 9.216,-45.214 c 0,0 -27.935,-63.647 -32.543,-125.277 l -5.184,-0.576 z"
         fill="#fefefe"
         id="path10" />
      <path
         d="m 98.844,214.616 5.184,67.678 c 0,0 -58.463,43.775 -80.351,-50.974 0,0 -35.424,-87.838 15.84,-129.021 0,0 24.192,-3.168 9.504,12.96 0,0 -30.528,11.231 -6.624,107.997 0,0 13.248,43.775 39.743,32.543 0,0 10.656,-3.456 16.704,-41.183 z"
         fill="#d19d4b"
         id="path12" />
      <path
         d="m 534.009,360.052 -8.064,9.216 -2.592,-16.704 -3.456,-13.247 -10.656,6.048 -7.2,-13.824 -13.248,12.672 c 0,0 -29.088,62.206 -13.248,98.205 l 50.4,137.948 19.871,23.904 4.032,-4.608 5.184,9.216 1.44,-8.064 c 0,0 -49.535,-122.109 -46.079,-151.196 l 23.328,-89.566 z"
         fill="#fefefe"
         id="path14" />
      <path
         d="m 415.066,402.675 c 0,0 -18.432,-81.214 -34.272,-91.005 l -18.432,8.639 -15.84,-5.183 -6.048,10.079 -13.248,-14.687 -12.672,13.247 -21.311,1.44 -6.624,11.232 -9.216,-4.032 -10.08,9.216 -8.064,7.2 c 0,0 23.616,14.399 32.832,16.703 0,0 35.423,29.951 74.303,15.84 z"
         fill="#fefefe"
         id="path16" />
      <path
         d="m 207.131,320.021 c 0,0 -21.888,11.808 -27.935,27.072 l -12.672,14.687 -5.184,15.84 -6.048,-1.44 -1.44,36.575 -8.64,52.414 -5.184,35.712 -12.672,-6.048 -3.456,16.703 -2.016,17.28 9.216,50.974 c 0,0 6.336,34.847 28.224,27.648 l 8.928,-13.824 10.08,14.688 c 0,0 4.608,2.592 17.279,-4.032 l 0.576,-11.808 10.656,15.84 c 0,0 6.048,2.016 9.216,-6.624 l 5.184,-12.96 3.456,19.584 c 0,0 13.248,-9.216 -2.016,-25.344 0,0 -10.656,-13.823 -25.92,-15.839 0,0 -25.919,-14.688 -23.327,-74.878 l 33.119,-172.508 z"
         fill="#fefefe"
         id="path18" />
      <path
         d="m 437.817,514.416 -12.672,29.087 -0.576,-8.063 -10.655,31.967 -8.064,-13.248 -13.248,16.704 -8.064,-4.608 -7.2,8.64 -5.184,-13.248 c 0,0 39.168,-59.615 35.136,-155.228 l 5.184,0.576 c 0,0 1.44,34.559 25.343,107.421 z"
         fill="#d19d4b"
         id="path20" />
      <path
         d="m 183.228,461.426 14.687,-31.104 4.032,23.904 20.448,-19.872 3.456,17.28 c 0,0 5.184,-26.495 12.672,-32.543 0,0 34.56,-6.624 48.384,-50.399 0,0 -29.088,-5.184 -74.88,-51.839 0,0 -22.464,119.517 -28.511,144.573 z"
         fill="#d19d4b"
         id="path22" />
      <path
         d="m 444.441,189.849 c -1.728,2.592 -2.304,5.184 -2.304,5.184 l 0.576,3.744 -3.456,3.168 2.304,1.727 -4.32,5.184 2.016,0.864 -4.32,4.896 1.728,0.576 0.288,3.744 c -4.32,29.951 10.944,50.399 10.944,50.399 l 2.304,2.304 3.744,0.864 -2.592,2.016 4.608,1.728 6.336,2.304 -2.592,3.455 h 8.64 l -2.304,4.032 5.184,-2.016 -1.44,2.88 26.496,8.928 3.456,10.08 3.168,-5.76 4.32,14.976 3.168,-5.184 2.304,10.943 3.168,-5.183 3.456,8.063 3.168,-5.184 3.456,7.488 6.624,-3.168 3.168,4.896 8.063,-5.184 5.76,4.32 3.168,-4.32 3.456,3.456 5.184,-7.2 4.896,4.896 4.032,-6.624 3.456,2.304 2.304,-5.759 2.304,1.44 0.576,-7.2 c 0,0 6.048,-3.168 12.96,0.864 l 8.352,0.864 -2.304,-5.76 10.944,3.456 1.44,-8.064 5.184,4.032 3.168,-4.32 4.896,2.592 0.864,-6.624 2.592,-8.064 0.864,7.488 2.592,-11.52 3.456,4.896 1.728,-12.383 3.168,4.895 0.864,-9.791 4.032,1.728 -0.576,-11.52 4.032,2.592 v -8.928 l 4.032,-0.864 0.864,-6.624 2.592,-6.623 -0.865,-7.2 2.304,-3.456 c 0,0 7.2,-26.496 -3.455,-47.231 C 641.72,158.458 601.4,121.883 601.4,121.883 c 15.552,5.184 42.048,42.047 42.048,42.047 l 9.216,-17.568 c 7.199,-8.064 2.303,-18.719 2.303,-18.719 l 6.048,-18.144 c 0,-25.343 -16.415,-32.255 -16.415,-32.255 -30.816,-13.248 -54.72,31.967 -54.72,31.967 l -1.44,-4.32 c 0,0 -48.672,-20.735 -84.095,-8.352 0,0 -27.072,-29.087 -52.992,-12.959 l -12.96,19.007 c 0,0 -0.864,7.2 13.248,17.28 0,0 -8.352,30.815 24.192,31.967 0,0 -14.112,2.304 -19.008,14.687 l -7.2,13.824 -1.728,6.048 -0.864,12.672 2.016,0.576 -1.728,8.927 2.016,-2.304 -2.304,8.928 2.88,-0.576 -2.592,9.504 2.88,-1.44 -2.592,8.064 2.88,-0.288 -2.016,6.912 2.016,0.288 -1.44,10.367 2.592,-4.032 -2.592,10.944 2.592,-1.728 -2.304,5.76 -2.304,-3.456 1.44,-6.048 -1.728,0.576 0.864,-10.943 -1.728,0.288 0.864,-7.2 -2.304,-1.728 1.44,-3.744 -1.44,-2.016 2.016,-8.352 -2.304,-0.576 0.576,-5.184 -1.44,-0.864 2.304,-8.639 -1.728,-2.304 -0.576,-9.216 z"
         fill="#e5ac50"
         id="path24" />
      <path
         d="m 652.664,182.937 c 10.655,20.735 3.455,47.231 3.455,47.231 l -2.304,3.456 0.865,7.199 -2.592,6.624 -0.864,6.624 -4.032,0.864 v 8.928 l -4.032,-2.592 0.576,11.52 -4.032,-1.728 -0.864,9.791 -3.168,-4.895 -1.728,12.383 -3.456,-4.896 -2.592,11.52 -0.864,-7.488 -2.592,8.064 -0.864,6.624 -4.896,-2.592 -3.168,4.32 -5.184,-4.032 -1.44,8.064 -10.944,-3.456 2.304,5.76 -8.352,-0.864 c -6.624,-4.032 -12.96,-0.864 -12.96,-0.864 l -0.576,7.199 -2.304,-1.439 -2.304,5.759 -3.456,-2.304 -4.032,6.624 -4.896,-4.896 -5.184,7.2 -3.456,-3.456 -3.168,4.32 -5.76,-4.32 -8.063,5.184 -3.168,-4.896 -6.624,3.168 -3.456,-7.488 -3.168,5.184 -3.456,-8.064 -3.168,5.184 -2.304,-10.943 -3.168,5.183 -4.32,-14.975 -3.168,5.76 -3.456,-10.08 -26.496,-8.928 1.44,-2.88 -5.184,2.016 2.304,-4.032 h -8.64 l 2.592,-3.456 -6.336,-2.303 -4.608,-1.728 2.592,-2.016 -3.744,-0.864 -2.304,-2.304 c 0,0 -15.264,-20.448 -10.944,-50.399 l -0.288,-3.744 -1.728,-0.576 4.32,-4.896 -2.016,-0.864 4.32,-5.184 -2.304,-1.728 3.456,-3.167 -0.576,-3.744 c 0,0 0.576,-2.592 2.304,-5.184 l 0.576,9.216 1.728,2.304 -2.304,8.639 1.44,0.864 -0.576,5.184 2.304,0.576 -2.016,8.352 1.44,2.016 -1.44,3.744 2.304,1.728 -0.864,7.199 1.728,-0.287 -0.864,10.943 1.728,-0.576 -1.44,6.048 2.304,3.456 2.304,-5.76 -2.592,1.728 2.592,-10.944 -2.592,4.032 1.44,-10.367 -2.016,-0.288 2.016,-6.912 -2.88,0.288 2.592,-8.064 -2.88,1.44 2.592,-9.504 -2.88,0.576 2.304,-8.928 -2.016,2.304 1.728,-8.927 -2.016,-0.576 0.864,-12.672 1.728,-6.048 7.2,-13.824 2.592,13.824 c 0,0 8.352,-9.504 19.296,-11.52 l 13.536,-8.351 2.016,-6.048 c 0,0 4.896,-14.4 13.536,-10.944 l 6.912,0.864 8.928,1.44 -4.608,6.624 6.624,1.728 c 0,0 -8.928,12.959 -9.216,27.071 0,0 -4.032,-10.656 -6.336,-4.32 0,0 -9.216,-6.048 -4.32,4.896 0,0 11.232,8.64 2.88,12.96 l -0.576,15.551 c 0,0 -5.184,-0.288 -6.048,-6.624 l -2.016,-3.455 c 0,0 -10.368,-3.744 -11.232,-9.216 l -6.336,-11.52 -4.032,22.463 -6.336,4.608 0.288,19.296 10.08,4.896 5.184,13.823 5.184,15.552 20.448,9.504 8.928,-2.016 c 0,0 9.504,9.215 19.295,14.975 L 565.4,265.015 c 0,0 7.488,-2.016 9.504,4.32 l 21.024,-6.336 6.336,-7.2 -8.64,-13.824 -2.88,-4.319 14.688,-6.624 0.864,-4.32 -5.184,-9.216 c 0,0 11.808,-8.64 9.504,-31.391 l -6.624,-0.576 c 0,0 -3.744,15.552 -16.992,16.991 0,0 0.288,4.608 -3.456,5.184 0,0 -4.32,2.304 -4.032,-5.759 l -11.52,-1.728 c 0,0 0,-10.368 6.624,-18.144 l 1.728,-2.88 -0.288,-6.624 -8.928,3.456 -3.744,-19.007 c 0,0 4.896,-4.896 8.064,0.288 l -4.032,-7.776 c 0,0 -2.592,-6.912 1.728,-6.336 0,0 26.496,3.744 32.544,18.144 0,0 11.52,-2.88 18.432,9.215 l 17.28,32.543 6.336,-15.551 c 0,0 10.079,7.2 8.352,25.343 0,0 3.455,-6.048 0.863,-29.087 z"
         fill="#fefefe"
         id="path26" />
      <path
         d="m 525.369,301.014 c 0,0 6.336,8.928 16.991,-0.576 0,0 9.504,9.504 17.856,4.032 0,0 0.576,-5.76 -6.624,-8.352 l -7.488,-4.032 v -7.488 l 6.336,-6.048 c 0,0 17.568,-10.943 17.28,-22.175 l -1.44,-2.016 -4.032,6.912 -15.264,11.808 -2.016,5.759 -2.88,0.576 -0.288,-11.231 c 0,0 12.96,-8.64 16.128,-6.048 0,0 4.32,-2.016 -1.728,-2.304 0,0 -8.352,1.44 -15.264,5.184 0,0 -11.519,-6.048 -20.447,-3.744 0,0 14.688,0.576 19.007,5.76 v 12.959 c 0,0 -4.319,0.288 -4.607,-4.031 0,0 -3.744,-5.76 -7.2,-7.2 0,0 -9.216,-2.304 -10.368,-14.4 0,0 -4.608,-2.016 -3.744,5.76 0,0 4.608,9.504 16.704,16.992 0,0 4.608,7.487 9.503,8.639 l -0.864,4.896 c 0,0 -10.943,6.048 -15.263,10.368 z"
         fill="#373435"
         id="path28" />
      <path
         d="m 611.192,127.354 2.304,-6.047 4.032,-5.76 0.864,-4.032 -7.2,-0.576 8.64,-4.896 11.808,-5.76 -4.608,-1.728 -11.808,-0.288 c 0,0 17.28,-17.279 26.208,-16.991 l -13.536,9.503 c 0,0 14.976,-2.88 17.856,4.608 l -0.576,8.928 -13.248,1.44 4.32,4.608 -12.96,0.288 8.352,5.184 -9.504,2.016 6.048,4.032 -4.896,1.728 3.456,2.591 -2.88,2.88 4.608,2.88 -4.896,3.744 3.744,6.624 c 0,0 -13.536,-14.4 -15.264,-15.552 z"
         fill="#fefefe"
         id="path30" />
      <path
         d="m 495.129,102.875 -14.976,-7.488 -9.504,-4.896 -19.008,3.456 6.048,2.016 -10.08,10.368 8.352,-4.32 2.016,2.592 -7.2,6.912 9.216,-2.592 2.304,3.744 -10.08,6.912 11.232,-3.744 2.592,4.896 -10.08,10.943 10.656,-5.183 2.304,7.199 5.184,4.032 h 3.456 l 15.552,-22.175 c 0,0 4.032,-8.928 1.728,-12.384 z"
         fill="#fefefe"
         id="path32" />
      <path
         d="m 531.705,101.435 c 0,0 35.423,2.88 41.183,2.016 0,0 -3.744,-3.744 -16.992,-4.608 0,0 -26.207,-3.456 -24.191,2.592 z"
         fill="#373435"
         id="path34" />
      <path
         d="m 547.544,106.619 c 0,0 -21.023,-6.336 -34.559,4.896 0,0 6.336,-2.592 19.872,-1.728 l 13.823,0.864 c 0,0 10.08,-4.32 21.888,-0.576 l 17.28,3.744 -10.656,-5.184 c 0,0 -16.992,-5.184 -27.936,-2.016 z"
         fill="#373435"
         id="path36" />
      <path
         d="m 566.84,302.454 c 0,0 3.744,5.76 10.368,1.44 l 4.032,0.576 0.576,-5.184 5.184,-2.88 4.032,-6.336 4.32,-5.184 2.304,-3.168 0.288,-6.335 12.384,-8.064 17.28,-8.64 5.76,-1.728 2.016,-3.744 1.44,-7.488 2.016,-6.912 0.288,-10.655 c 0,0 8.928,-41.471 -10.08,-63.647 0,0 -15.84,-27.935 -25.632,-26.783 0,0 11.808,10.944 12.384,19.872 l 6.336,2.304 -9.216,0.864 c 0,0 12.96,19.007 16.128,34.559 l 4.032,17.279 2.304,2.304 -1.728,2.88 -0.288,4.032 1.728,6.336 -4.608,-2.592 -0.576,4.32 -0.288,4.32 -2.88,-1.44 c 0,0 -6.048,-5.184 -4.608,-11.232 l 2.304,-2.016 -2.88,-2.88 0.576,-2.88 4.032,2.016 -2.88,-6.048 0.864,-4.896 -1.728,-7.199 1.44,-3.744 -2.88,-2.592 v -4.608 l -2.592,-3.456 0.576,-4.032 -4.32,-4.032 -2.304,-2.88 4.032,-0.576 -4.608,-3.744 c 0,0 -2.592,-10.655 -6.624,-10.655 0,0 -8.064,-0.864 -4.608,6.623 l 0.288,2.88 c 0,0 -8.064,-6.335 -11.808,-1.728 0,0 -6.048,-14.687 -21.888,-16.127 0,0 10.08,16.991 9.504,28.223 0,0 2.592,-16.127 -2.016,-21.887 0,0 10.944,2.016 8.928,14.975 l -4.896,9.216 c 0,0 6.336,-6.624 15.264,-6.336 0,0 8.64,0 10.368,-2.88 0,0 2.304,8.064 -4.896,8.64 0,0 -20.16,-8.64 -25.632,13.536 l 1.44,15.263 4.896,11.232 c 0,0 -2.016,-16.704 -0.288,-21.599 0,0 14.688,3.455 18.72,-13.536 l 1.728,-0.288 c 0,0 3.744,15.264 -15.264,16.991 0,0 6.336,4.608 15.552,-5.183 0,0 7.2,-2.016 7.2,-9.216 l 2.304,2.88 1.44,-8.352 4.032,11.808 c 0,0 9.504,23.903 0,30.239 l -8.064,0.864 -1.44,-6.624 c 0,0 9.504,-14.688 6.336,-25.919 0,0 -4.032,17.567 -9.504,21.599 l -0.576,2.016 -7.776,0.864 8.352,4.032 c 0,0 4.608,7.2 2.016,8.64 l -10.368,-9.504 6.912,12.672 c 0,0 -4.608,3.456 5.184,2.016 l 6.912,0.288 v 6.623 l -5.184,-1.152 4.896,5.76 -4.896,0.576 2.592,4.032 -2.304,1.44 -1.728,-2.304 0.576,6.048 4.32,-1.728 3.456,-5.76 3.744,-0.288 1.44,-6.048 2.016,-0.576 2.016,2.88 -2.592,4.608 -0.288,2.592 -2.304,0.288 -1.44,2.016 -7.488,2.88 -3.744,3.744 h -0.864 -1.44 l 2.304,-24.479 -5.184,6.911 c 0,0 -4.896,-0.288 -6.624,-2.88 l -6.336,-12.671 c 0,0 4.32,21.311 11.232,27.071 l 1.44,6.336 -3.744,-0.288 -7.488,-7.2 -0.288,4.032 -4.32,1.728 6.624,2.304 0.864,3.456 -23.328,8.64 c 0,0 19.584,-2.016 25.92,-6.048 l 9.216,-3.456 h 11.808 c 0,0 -17.28,1.728 -19.296,6.912 l -1.728,4.32 -31.392,7.775 21.6,-2.016 4.896,2.016 -4.608,4.32 -8.064,7.2 c 0,0 -10.944,5.76 -10.08,9.504 z"
         fill="#373435"
         id="path38" />
      <path
         d="m 576.344,188.409 c 0,0 3.744,6.912 8.928,5.184 0,0 7.776,-3.456 6.048,-9.216 0,0 -2.304,-5.472 -11.52,0 0,0 -2.88,1.152 -3.456,4.032 z"
         fill="#b97542"
         id="path40" />
      <path
         d="m 579.8,186.969 c 0,0 2.304,6.048 6.048,1.152 0,0 2.304,-2.592 1.728,-6.048 0,0 -9.504,-0.864 -7.776,4.896 z"
         fill="#373435"
         id="path42" />
      <path
         d="m 546.68,133.978 -1.152,22.752 1.728,7.2 3.744,-6.624 10.08,4.32 c 0,0 5.184,13.823 0.576,28.223 0,0 8.928,-13.824 6.336,-26.207 l -2.016,-8.64 -4.608,-1.152 -0.864,-4.32 -3.744,2.88 -1.152,-4.032 -2.88,3.456 -1.728,-3.168 -1.728,-4.608 2.304,-2.016 v -4.32 l -4.608,-4.032 z"
         fill="#373435"
         id="path44" />
      <path
         d="m 551.864,131.674 2.592,7.776 c 0,0 16.416,2.592 22.752,7.2 l 2.592,-0.576 1.44,2.304 6.624,-5.184 -8.928,-2.304 -27.072,-8.928 z"
         fill="#373435"
         id="path46" />
      <path
         d="m 553.88,125.051 c 0,0 20.736,8.927 23.904,12.095 0,0 0.576,-3.744 -4.608,-5.472 0,0 3.168,-3.744 7.2,1.44 l 1.44,5.184 c 0,0 3.456,-9.216 -4.32,-12.383 0,0 -23.04,-4.32 -23.616,-0.576 z"
         fill="#373435"
         id="path48" />
      <path
         d="m 551.288,115.547 c 0,0 -2.592,-1.728 3.456,-2.304 0,0 13.824,-2.304 19.584,2.016 0,0 4.896,-0.288 9.504,3.168 l 2.304,2.016 -4.608,-0.864 -1.44,0.864 -4.608,-3.456 -3.456,1.152 -15.84,0.288 -4.608,-2.88 z"
         fill="#373435"
         id="path50" />
      <path
         d="m 543.224,115.259 -0.576,7.2 2.592,1.44 v 6.047 l 3.744,-5.471 2.016,-1.728 z"
         fill="#373435"
         id="path52" />
      <path
         d="m 517.593,118.427 2.88,-1.152 6.624,1.152 6.048,-0.864 4.32,-0.288 1.439,2.016 0.864,-3.168 1.152,-2.592 -2.303,-0.864 -4.896,0.864 -5.472,0.864 -10.656,0.576 -3.744,3.744 z"
         fill="#373435"
         id="path54" />
      <path
         d="m 537.465,123.035 -4.032,1.44 -0.576,2.304 -6.336,3.167 -7.2,2.304 -3.456,1.44 3.168,-3.168 1.44,-3.456 5.184,-2.879 c 0,0 8.064,-2.592 11.808,-1.152 z"
         fill="#373435"
         id="path56" />
      <path
         d="m 537.464,132.826 c 0,0 -22.463,3.744 -25.919,8.64 l -4.608,4.32 -2.592,2.304 8.928,-1.44 c 0,0 20.736,-10.656 23.904,-10.656 l 0.287,-3.456 z"
         fill="#373435"
         id="path58" />
      <path
         d="m 542.36,133.402 -2.303,4.32 -0.576,4.32 0.864,6.336 c 0,0 -4.032,4.608 -7.2,4.32 l -5.472,-2.304 h -5.184 -6.048 c 0,0 -6.048,0.288 -7.776,4.032 l -0.576,3.744 2.592,2.592 -0.576,12.959 6.912,-13.823 2.016,-6.336 5.76,0.576 c 0,0 -11.808,7.776 -8.64,21.311 l 3.456,14.688 1.44,-6.336 1.152,12.672 1.44,-12.672 -0.576,-8.064 -2.304,-8.928 c 0,0 0.576,-8.927 8.64,-6.623 0,0 12.096,-1.728 12.383,-6.336 l 0.289,-2.88 c 0,0 2.303,-11.808 0.864,-17.568 z"
         fill="#373435"
         id="path60" />
      <path
         d="m 506.073,159.034 c 0,0 -2.016,6.911 -0.576,10.943 l 2.304,4.032 3.456,2.304 -1.44,2.592 -2.592,-1.728 -2.88,-2.304 -5.472,-2.304 -8.928,-1.44 -3.456,1.44 4.32,6.048 c 0,0 20.736,-3.168 23.328,10.368 l 0.864,13.535 -2.592,-0.864 c 0,0 -3.168,7.2 -3.744,8.928 -0.576,1.728 -1.44,-12.959 -1.44,-12.959 0,0 -13.824,-0.576 -14.688,-13.824 0,0 -9.216,6.336 10.656,15.552 l 0.576,7.199 -4.608,-3.744 c 0,0 -1.44,6.048 -8.064,1.152 l -6.336,-5.471 8.064,4.031 c 0,0 4.032,2.304 4.608,-1.152 l -12.672,-10.943 -0.576,-4.32 c 0,0 -7.488,11.232 -1.44,18.143 0,0 6.912,7.488 11.808,7.2 l 2.592,0.576 c 0,0 -3.456,6.912 -10.08,4.032 0,0 -8.64,-5.184 -8.928,-13.248 0,0 -0.864,-4.319 0.576,-5.183 l 1.152,-8.352 0.576,-12.96 c 0,0 -4.896,2.016 -5.76,23.328 0,0 -1.44,20.159 1.728,23.903 l 5.76,0.864 0.576,2.304 1.728,-0.576 c 0,0 3.456,-7.488 8.928,-7.488 l 2.016,0.288 -3.456,4.032 7.2,0.288 c 0,0 -5.184,10.944 -12.672,12.384 l 2.304,7.199 c 0,0 6.912,-3.744 8.064,-10.367 0,0 -0.288,11.519 -3.744,18.719 l -0.288,4.896 c 0,0 -10.08,-7.776 -10.08,-23.903 0.288,-16.128 0,-0.576 0,-0.576 0,0 -7.488,1.44 -6.048,7.487 l 5.472,7.488 c 0,0 4.32,8.064 -3.744,1.152 0,0 -7.2,-3.744 -8.928,-19.007 0,0 -6.048,-46.367 15.84,-67.102 l 10.368,-10.368 -5.76,14.399 1.44,3.168 6.336,-3.456 3.456,3.456 1.728,0.288 c 0,0 0.576,-9.503 2.88,-9.503 z"
         fill="#373435"
         id="path62" />
      <path
         d="m 502.905,276.247 c 0,0 20.736,3.167 25.632,8.351 0,0 -16.704,-4.32 -22.176,-1.44 0,0 0.576,8.64 21.312,6.624 0,0 -13.536,4.32 -22.464,0.864 l 1.728,4.032 10.656,0.576 12.96,-1.728 -9.792,10.08 -4.032,3.456 -9.504,-1.728 -0.864,-3.456 -4.32,-3.744 -2.016,0.864 -2.592,-7.2 -3.456,-1.152 -2.592,-12.096 -0.864,-2.591 c 0,0 -6.336,-2.88 -8.352,-10.08 l -9.216,0.576 -2.016,-3.168 -7.776,-4.032 -2.304,-7.2 -0.288,-4.32 h -2.592 l 2.016,-3.456 -0.288,-4.895 -3.168,1.439 2.304,-6.335 -0.864,-5.472 -3.456,0.864 3.456,-5.472 -1.44,-2.592 -2.304,0.576 2.016,-4.32 1.728,-7.2 -3.168,-1.152 2.592,-4.32 v -3.743 l -4.032,0.575 3.456,-6.335 3.456,-10.08 -3.168,0.864 c 0,0 5.472,-24.191 14.112,-27.359 0,0 23.04,-25.632 28.224,-23.328 0,0 -36.288,31.103 -36.576,72.574 0,0 -5.184,27.936 14.688,42.047 l 14.688,9.792 8.064,-10.08 -0.576,5.76 3.744,1.44 -5.76,2.016 -1.152,3.744 22.176,7.776 c 0,0 -20.448,0.576 -27.936,-5.472 l -4.032,-0.576 c 0,0 -0.576,7.2 15.84,10.944 z"
         fill="#373435"
         id="path64" />
      <path
         d="m 522.489,261.559 c 0,0 13.823,1.152 19.007,5.76 v 12.959 c 0,0 -4.032,1.44 -4.608,-4.032 0,0 -3.743,-6.623 -7.775,-7.199 0,0 -9.504,-5.76 -6.336,-7.488 z"
         fill="#e18c4d"
         id="path66" />
      <path
         d="m 543.8,268.183 0.289,11.231 c 0,0 1.727,1.44 2.879,-0.576 l 1.44,-4.895 13.536,-10.368 c 0,0 0.576,-1.44 -2.88,-1.728 0,0 -3.744,-1.152 -15.552,6.336 z"
         fill="#e18c4d"
         id="path68" />
      <path
         d="m 525.369,201.081 c 0,0 -11.52,28.511 -7.488,47.518 0,0 -4.32,-11.807 -1.44,-28.223 0,0 4.032,-18.431 8.928,-19.295 z"
         fill="#373435"
         id="path70" />
      <path
         d="m 564.536,201.081 c 0,0 5.184,24.191 2.304,41.182 l 1.728,7.488 4.896,-11.807 -1.44,-6.336 1.728,-16.128 c 0,0 4.032,4.896 8.064,29.087 l 4.608,5.76 -2.88,-28.223 -4.32,-3.456 -6.048,-8.64 c 0,0 -4.608,-13.535 -8.352,-10.079 l -0.288,0.864 z"
         fill="#373435"
         id="path72" />
      <path
         d="m 498.297,184.665 c 0,0 -0.864,7.488 6.624,8.64 0,0 6.048,-1.44 5.76,-4.608 0,0 -6.336,-9.792 -12.384,-4.032 z"
         fill="#b97542"
         id="path74" />
      <path
         d="m 500.313,183.513 c 0,0 0.288,8.928 7.2,4.896 l 1.44,-2.592 c 0,0 -5.184,-4.608 -8.64,-2.304 z"
         fill="#373435"
         id="path76" />
      <path
         d="m 438.393,258.391 c 0,0 6.048,52.991 69.12,124.125 l -39.168,-33.695 c 0,0 -57.023,-80.926 -29.952,-90.142 z"
         fill="#373435"
         id="path78" />
      <path
         d="m 415.354,313.397 c 0,0 19.871,82.942 90.143,99.646 0,0 -6.048,17.279 -45.216,-9.216 0,0 -41.759,-31.967 -45.215,-90.142 z"
         fill="#373435"
         id="path80" />
      <path
         d="m 417.946,419.091 c 0,0 26.495,21.311 52.415,15.839 0,0 -6.624,13.248 -49.823,0 z"
         fill="#373435"
         id="path82" />
      <path
         d="m 428.889,467.185 c 0,0 39.456,-8.063 56.736,-2.303 0,0 -20.736,0.576 -36.576,9.215 l -13.824,15.84 -6.336,-23.04 z"
         fill="#373435"
         id="path84" />
      <path
         d="m 445.305,516.144 38.592,-9.792 c 0,0 -27.936,22.176 -28.8,28.8 z"
         fill="#373435"
         id="path86" />
      <path
         d="m 462.297,550.703 38.016,-22.463 -16.128,19.871 -7.2,-0.864 -4.896,8.352 -2.304,-8.064 -4.608,12.096 z"
         fill="#373435"
         id="path88" />
      <path
         d="m 427.449,534 -0.864,-7.488 -10.943,-12.384 -1.728,-12.959 -5.184,10.079 -1.44,4.32 4.896,0.576 -4.032,22.176 6.048,-13.824 -2.592,16.704 9.791,-14.976 2.592,4.032 -12.959,14.687 8.064,-0.576 -9.792,9.216 2.304,3.168 c 0,0 10.943,-6.624 15.839,-23.039 z"
         fill="#373435"
         id="path90" />
      <path
         d="m 427.161,483.601 -3.455,-10.656 -1.44,12.96 -2.592,-15.552 -4.32,10.944 0.864,-17.568 -4.032,12.96 0.864,-16.703 -4.032,6.623 -1.728,-14.111 0.576,-26.496 4.32,-6.623 c 0,0 11.52,57.598 14.975,64.51 z"
         fill="#373435"
         id="path92" />
      <path
         d="m 116.124,462.866 15.84,18.143 c 0,0 17.28,25.343 35.712,11.808 0,0 4.032,-4.32 -6.336,-8.064 0,0 -28.224,-8.064 -30.528,-24.191 0,0 -8.928,-10.08 -14.976,2.304 z"
         fill="#373435"
         id="path94" />
      <path
         d="m 119.58,397.203 c 0,0 5.184,47.231 28.8,51.263 l 15.84,-0.864 11.52,7.2 4.32,-6.336 c 0,0 9.215,-3.456 -0.576,-9.792 l -9.216,-7.488 -1.728,-6.047 -10.944,12.383 3.456,-8.928 -4.896,-2.304 -7.2,4.896 v -4.896 l -5.76,3.168 3.168,-6.335 -6.624,0.864 0.576,-4.32 -5.184,4.32 2.304,-11.808 -5.184,8.064 v -11.808 l -4.32,5.184 c 0,0 -3.456,-25.631 -8.064,-16.416 z"
         fill="#373435"
         id="path96" />
      <path
         d="m 123.324,348.533 c 0,0 -4.896,20.447 4.032,34.559 l -1.728,6.624 6.624,-0.864 -0.864,12.959 4.32,-7.2 -0.864,10.656 4.32,-8.064 -1.44,9.792 8.352,-7.2 c 0,0 12.96,23.328 24.768,5.184 l 1.728,8.064 8.064,-2.304 4.32,-0.864 3.168,-8.352 -3.168,-5.184 -10.944,0.576 c 0,0 -3.456,-4.032 -10.08,-4.896 l -19.008,-10.943 c 0,0 -15.552,-20.448 -14.976,-35.711 v -10.08 l -17.28,-39.743 -0.576,14.112 0.864,20.735 h 1.728 l 0.864,10.656 2.592,-2.592 4.896,10.656 z"
         fill="#373435"
         id="path98" />
      <path
         d="m 113.82,292.95 3.456,-11.808 0.864,-7.199 -5.76,-56.735 1.44,-6.336 -7.2,21.6 c 0,0 6.048,49.534 7.2,60.19 z"
         fill="#373435"
         id="path100" />
      <path
         d="m 146.076,54.204 c 0,0 -41.472,43.199 -29.664,146.013 0,0 6.048,106.557 38.592,150.908 0,0 22.176,34.559 38.879,34.847 l 4.32,-23.328 -1.728,-8.064 -4.896,4.32 -4.031,-9.791 -2.592,2.304 -5.76,-10.656 -4.32,4.032 v -14.688 l -4.896,4.32 3.168,-10.656 -7.2,5.184 c 0,0 -7.2,-14.111 -6.624,-33.695 0,0 -28.224,-37.151 -28.8,-65.95 0,0 -11.52,-65.374 -1.44,-113.757 l -1.44,-2.592 4.896,-8.928 -4.32,1.44 c 0,0 10.08,-45.215 17.568,-51.839 z"
         fill="#373435"
         id="path102" />
      <path
         d="m 173.724,34.621 c 0,0 -20.736,18.72 -25.632,42.335 l -8.064,11.808 4.32,-4.32 -4.32,17.279 3.456,-7.2 -4.032,20.736 2.592,-4.032 -4.32,18.143 3.456,-1.727 -8.064,20.447 6.624,-11.52 -5.184,43.199 c 0,0 10.08,-42.911 10.656,-53.566 0,0 8.064,-74.302 28.224,-91.87 z"
         fill="#373435"
         id="path104" />
      <path
         d="m 227.291,22.237 c 0,0 -40.608,2.592 -50.399,32.831 0,0 35.711,-31.391 50.399,-32.831 z"
         fill="#373435"
         id="path106" />
      <path
         d="m 205.979,41.821 c 0,0 -26.207,11.807 -31.391,32.831 0,0 -10.944,11.52 -14.976,37.151 l -11.808,45.503 -4.896,36.287 11.808,-48.671 -0.864,18.144 -1.44,11.807 -4.032,18.144 -5.76,9.791 -0.576,10.08 3.168,25.632 2.592,24.767 6.624,3.456 8.352,26.207 11.808,24.767 10.944,13.824 -10.08,-21.599 -7.488,-38.015 -4.32,-1.44 2.304,-8.064 h -3.456 l 2.592,-9.216 -6.624,-7.2 -3.456,-24.191 v -13.248 l 2.304,-8.927 2.592,-2.592 c 0,0 1.44,-29.088 3.456,-60.479 0,0 0.864,-48.958 8.352,-52.702 l -2.304,45.214 -2.304,34.559 0.864,14.688 -0.576,4.032 -2.304,7.2 2.592,-1.44 -3.168,12.959 3.456,-6.047 -1.728,19.871 -0.864,20.448 6.336,36.287 12.384,42.91 6.335,9.792 5.184,2.592 10.944,-6.048 -0.576,-15.839 -5.184,13.247 c 0,0 -4.896,-9.215 2.304,-16.703 0,0 -10.944,8.928 -11.52,18.143 l -2.304,-6.624 -1.44,-3.167 0.576,-5.76 -4.031,-5.184 3.455,-12.96 -3.455,1.728 1.728,-18.431 -1.44,2.304 -4.896,-14.976 -3.168,-15.84 -0.576,-14.687 3.168,-11.52 6.336,26.207 4.031,14.688 0.576,12.96 5.76,-5.76 2.304,-21.312 -3.168,2.304 -1.44,-13.823 -2.592,4.896 v -9.216 l -1.728,0.576 -0.864,-6.336 -2.303,1.728 0.576,-8.928 3.167,-11.808 0.864,-4.319 -3.167,0.576 1.727,-5.184 2.304,-4.32 -3.456,-2.592 5.184,-10.656 -5.184,-0.864 9.216,-11.807 -5.184,-0.864 4.896,-9.216 0.864,-5.76 4.896,-9.216 -3.168,-2.304 10.08,-8.927 -8.064,1.439 1.728,-12.671 1.44,-19.872 6.624,-17.279 c 0,0 -15.552,3.168 -19.584,13.823 l -2.304,12.96 5.184,-0.576 -2.592,14.688 -3.168,4.32 3.168,4.319 -4.32,10.656 -4.319,15.552 c 0,0 -2.304,15.551 -3.168,24.767 l -3.168,9.216 3.168,-1.728 -3.168,10.08 3.168,-4.896 0.864,7.2 -1.44,7.199 -4.896,0.576 -2.592,-10.079 c 0,0 -2.304,-25.344 4.032,-44.351 0,0 3.456,-65.374 11.519,-75.742 0,0 11.52,-27.359 17.568,-30.815 z"
         fill="#373435"
         id="path108" />
      <path
         d="m 201.371,70.044 c 0,0 7.2,-22.175 28.8,-28.223 l -7.2,-0.864 c 0,0 30.816,-16.416 55.584,-12.384 0,0 -29.664,8.928 -38.016,14.976 0,0 -29.088,9.215 -39.456,26.495 z"
         fill="#373435"
         id="path110" />
      <path
         d="m 247.163,49.597 c 0,0 -24.192,5.759 -29.664,16.703 l 14.112,-5.76 c 0,0 -16.704,10.656 -19.584,18.144 l 1.728,0.864 -4.32,10.944 -3.456,18.719 c 0,0 31.392,-55.295 41.184,-59.614 z"
         fill="#373435"
         id="path112" />
      <path
         d="m 319.162,39.229 c 0,0 -57.023,7.488 -76.607,48.671 l -12.384,10.079 -18.144,36.287 3.168,-17.279 10.656,-19.872 h -5.76 l 10.656,-5.76 -1.728,-3.455 10.944,-6.336 -9.216,-1.44 8.928,-7.2 1.728,-4.896 8.352,-5.76 5.76,-9.216 c 0,0 34.56,-21.599 63.647,-14.111 z"
         fill="#373435"
         id="path114" />
      <path
         d="m 201.371,224.696 11.52,-30.527 c 0,0 27.936,-71.71 32.256,-73.726 l 10.08,-18.432 -25.344,14.112 v 7.488 l -5.76,9.215 -8.352,8.352 -1.728,7.488 -1.728,6.336 -4.32,20.735 -3.168,15.84 -2.304,3.168 0.864,2.592 -3.168,6.047 0.576,8.064 z"
         fill="#373435"
         id="path116" />
      <path
         d="m 258.683,113.531 c 0,0 24.192,-43.487 54.719,-50.975 0,0 -9.216,-3.456 -22.463,2.592 l -20.736,16.416 -10.08,10.943 2.304,0.576 -4.32,7.488 2.304,0.576 -4.32,8.928 c 0,0 -4.896,19.007 3.168,3.456 z"
         fill="#373435"
         id="path118" />
      <path
         d="m 259.547,125.339 6.624,-9.792 -0.864,-3.168 7.2,-6.048 -3.168,-4.032 8.352,-2.592 1.728,-6.336 8.064,-5.184 17.567,-14.111 32.832,-13.248 -1.728,-3.168 -15.552,2.592 11.808,-6.624 -4.896,-3.168 h -10.08 l 3.456,-4.319 15.552,-0.864 20.448,11.807 c 0,0 -69.119,28.8 -97.343,67.967 z"
         fill="#373435"
         id="path120" />
      <path
         d="m 369.85,74.94 c 0,0 -38.016,-4.032 -53.856,18.143 0,0 -9.792,-1.728 -15.551,8.352 l -24.768,36.287 c 0,0 -12.384,4.896 -22.464,25.632 l -19.584,28.799 0.864,4.032 -7.2,21.599 -3.168,10.08 2.592,4.032 -6.624,9.215 -0.576,10.08 1.44,11.52 4.032,15.839 3.168,20.448 c 0,0 18.144,27.935 45.216,51.263 l 38.879,26.495 c 0,0 23.328,14.975 53.856,4.32 l -16.416,-21.6 c 0,0 -21.312,-15.839 -20.448,-50.974 l -4.896,22.175 1.728,4.32 4.032,15.552 10.08,9.791 5.184,8.352 c 0,0 -17.28,1.44 -23.04,-4.896 0,0 -4.32,-4.32 0.576,-6.336 0,0 -16.704,-27.071 -8.928,-56.734 0,0 -7.2,-61.343 -2.304,-69.118 l 5.184,-3.456 4.032,33.983 c 0,0 0.576,-98.205 15.552,-120.381 0,0 26.208,-50.111 70.272,-53.566 0,0 -23.328,-4.32 -41.184,6.047 l -21.312,13.248 10.944,-4.32 -20.448,16.416 10.08,-3.456 -14.976,13.823 3.456,1.728 -9.792,17.28 -0.864,11.52 -8.064,61.342 c 0,0 -10.943,8.928 -17.279,29.663 l -4.896,19.008 -0.864,8.063 8.064,-9.791 -8.928,19.871 0.864,3.456 5.184,-5.76 -5.184,12.384 -0.576,10.944 -0.864,4.895 6.624,-7.487 -3.168,8.351 -2.592,5.76 0.576,15.552 6.624,17.567 14.975,7.2 2.592,5.184 c 0,0 -26.495,-10.08 -37.727,-21.311 0,0 -24.768,-23.904 -29.088,-52.991 l -7.488,-42.047 -7.488,13.824 -3.456,-6.336 7.488,-10.944 -0.576,-14.687 5.184,-6.624 2.592,-16.416 4.896,-12.383 7.488,-30.528 12.384,-22.175 -7.2,23.039 -11.52,48.095 -1.44,18.432 4.32,-22.464 8.064,-30.527 7.488,-10.944 7.488,-10.079 -3.168,-1.44 6.048,-9.216 2.304,-10.08 11.808,-19.871 7.2,-17.568 9.791,-6.624 -6.047,15.84 -4.032,11.808 -6.048,17.567 -5.76,5.76 -1.44,6.048 -2.304,11.52 -3.456,5.759 -0.864,6.048 -2.304,6.336 0.864,5.76 -2.592,7.488 c 0,0 -3.456,9.791 -5.76,17.279 l -8.928,14.976 -0.864,11.808 -2.304,7.487 0.864,10.08 v 8.352 10.08 l 2.304,14.687 0.576,12.96 2.304,10.656 0.864,-14.976 0.864,-10.08 -0.576,-9.216 -1.728,-23.903 2.592,-19.871 5.76,-13.824 5.76,-16.704 7.488,-28.799 8.064,-19.007 4.896,-10.944 2.304,-15.84 6.335,-6.623 -0.864,-2.592 8.064,-7.488 8.064,-10.656 -7.2,1.728 5.184,-7.2 10.08,-4.032 -2.592,-3.456 14.976,-7.199 c 0,0 15.84,-10.08 24.192,-8.928 z"
         fill="#373435"
         id="path122" />
      <path
         d="m 362.362,84.156 c 0,0 -38.592,21.599 -57.024,89.853 l -10.079,19.008 4.896,-2.304 -8.928,16.703 -6.336,12.096 5.184,-4.896 -8.352,17.568 -2.304,45.503 -1.728,18.143 4.032,-4.896 -4.896,15.552 6.336,-10.656 -4.896,19.008 2.304,4.895 1.728,5.76 1.728,-12.383 1.44,-7.488 0.864,-6.624 0.576,-5.184 v -6.624 l 4.032,-10.079 0.864,-19.584 7.2,-29.663 4.032,-13.824 3.167,-14.975 2.592,-13.248 1.44,-10.944 3.168,-10.655 c 0,0 19.872,-65.375 49.536,-80.062 z"
         fill="#373435"
         id="path124" />
      <path
         d="m 331.546,259.831 7.2,31.391 24.192,46.943 14.112,36.575 0.864,6.624 -4.32,-6.336 -5.76,-4.32 -3.168,-4.896 -2.592,-3.168 -0.864,-6.624 -6.624,0.864 -0.576,-4.895 -3.168,-5.184 -8.064,-19.872 -6.048,-13.247 -3.168,-13.248 -4.32,-8.064 -0.576,-10.656 0.576,-7.199 c 0,0 -4.032,-12.96 2.304,-14.976 z"
         fill="#373435"
         id="path126" />
      <path
         d="m 384.25,376.18 c 0,0 -3.168,-23.903 -7.2,-25.631 0,0 -16.416,-22.464 -18.432,-31.392 l -14.112,-38.591 c 0,0 -10.944,-49.534 -6.048,-76.894 0,0 3.168,-44.638 16.416,-62.206 l 19.584,-27.359 -11.52,21.599 -8.352,14.688 2.592,3.168 -6.624,12.383 -2.592,10.08 5.184,-8.064 -5.76,20.448 -0.576,32.255 9.792,66.814 c 0,0 4.32,28.223 16.416,46.367 0,0 14.112,20.447 11.52,42.335 z"
         fill="#373435"
         id="path128" />
      <path
         d="m 396.922,360.052 c 0,0 -8.064,-21.599 -14.976,-24.767 0,0 -17.28,-23.039 -15.552,-33.119 l 5.184,3.456 h 4.32 l 2.304,10.943 c 0,0 20.736,13.824 18.432,43.487 z"
         fill="#373435"
         id="path130" />
      <path
         d="m 381.082,307.062 c 0,0 -21.312,-43.775 -18.432,-82.654 0,0 -5.184,-101.373 31.392,-123.261 l -6.624,9.792 -6.624,11.52 v 8.927 l 3.168,-4.031 -4.32,13.823 -1.728,15.84 -4.896,27.359 v 41.183 c 0,0 1.44,54.43 8.352,81.79 z"
         fill="#373435"
         id="path132" />
      <path
         d="m 393.754,204.536 -5.184,27.072 0.576,15.551 c 0,0 -6.048,5.184 -0.576,23.328 l 10.656,25.631 -0.576,-20.447 -4.032,-34.56 c 0,0 -4.896,-24.191 -0.864,-36.575 z"
         fill="#373435"
         id="path134" />
      <path
         d="m 406.138,98.843 -13.248,13.824 -4.896,24.479 -0.864,12.384 -2.592,12.384 2.592,-2.592 -0.576,14.975 1.44,19.872 3.168,3.168 -0.864,-7.488 c 0,0 0.864,-41.471 3.456,-45.503 l 4.896,-10.08 -4.32,2.592 3.168,-10.656 3.168,-3.167 -1.728,-3.456 3.168,-6.624 v -5.184 l 4.32,-8.352 z"
         fill="#373435"
         id="path136" />
      <path
         d="m 438.393,79.836 c 0,0 -30.527,27.935 -37.727,64.51 l -1.44,17.568 6.624,-20.736 6.624,-15.839 c 0,0 18.143,-39.743 25.631,-45.503 z"
         fill="#373435"
         id="path138" />
      <path
         d="m 425.721,117.851 c 0,0 -17.567,44.639 -15.551,110.877 0,0 1.44,65.95 21.311,98.493 0,0 -18.719,-55.582 -14.111,-83.518 l -1.728,-35.711 1.44,-25.631 5.184,-21.599 -4.896,8.063 c 0,0 6.623,-45.214 8.351,-50.974 z"
         fill="#373435"
         id="path140" />
      <path
         d="m 440.409,123.899 c 0,0 -23.039,39.455 -8.928,91.581 l 7.2,-24.191 c 0,0 -0.864,-41.471 4.032,-58.463 0,0 0.576,-10.079 -2.304,-8.927 z"
         fill="#373435"
         id="path142" />
      <path
         d="m 190.427,449.618 c 0,0 30.528,-1.728 26.496,2.592 l -9.792,5.184 17.28,0.576 0.576,4.896 -23.04,4.031 4.896,-4.031 -2.592,-4.032 -18.144,-1.44 4.32,-8.064 z"
         fill="#373435"
         id="path144" />
      <path
         d="m 195.611,483.025 c 0,0 25.344,-5.76 28.224,-1.44 l -0.576,10.944 -5.184,-6.048 -7.488,1.728 c 0,0 2.304,8.928 7.488,6.624 0,0 -8.064,6.623 -9.792,0 0,0 -3.168,7.487 -10.656,4.896 0,0 10.944,-4.896 10.08,-8.352 l -0.864,-3.168 -4.32,2.304 -1.44,5.184 -1.728,-7.2 -5.184,2.304 1.44,-8.064 z"
         fill="#373435"
         id="path146" />
      <path
         d="m 119.58,508.656 c 0,0 26.208,1.44 36.576,18.432 l 14.976,12.959 -13.248,-6.623 -16.704,-8.352 c 0,0 -8.928,-11.808 -21.312,-10.08 l -0.576,-6.048 z"
         fill="#373435"
         id="path148" />
      <path
         d="m 231.611,426.866 -7.488,-0.863 -8.064,-3.168 -9.792,-2.304 v -5.76 l -0.576,-3.456 4.896,-2.304 c 0,0 6.048,10.944 13.248,8.064 l 4.32,-5.76 c 0,0 7.488,4.032 11.808,2.592 0,0 18.144,-2.592 21.312,-14.976 l -5.76,2.304 1.44,-6.624 -7.488,5.184 -9.792,-0.576 -5.76,2.304 3.168,-10.656 -10.08,7.488 -17.28,-17.567 9.216,20.735 -0.864,9.216 c 0,0 -6.336,-2.304 -6.624,-5.184 l 3.456,-5.76 -14.688,-14.687 -2.304,7.199 9.216,12.96 -5.76,6.336 -1.728,-3.456 -2.304,4.896 -1.728,-4.032 -4.32,19.583 7.2,-1.728 1.728,9.216 8.064,-7.488 0.576,7.2 5.184,-4.32 -2.592,7.2 7.2,-5.184 6.336,4.032 c 0,0 5.184,-5.76 6.624,-9.792 z"
         fill="#373435"
         id="path150" />
      <path
         d="m 220.379,373.012 5.184,4.032 -0.864,3.168 8.064,-1.728 -4.32,5.76 8.928,-2.592 1.728,5.184 6.336,-3.456 8.064,3.168 5.76,1.728 h 5.76 l 13.248,-4.32 2.304,-4.32 h -6.336 l -6.048,0.576 -1.728,-7.2 -8.928,6.048 -5.76,-6.048 -7.488,1.728 -2.592,-3.456 0.864,-6.336 -7.2,3.456 -1.44,-6.048 -5.184,6.624 -4.32,-6.048 c 0,0 -7.2,0.576 -3.456,10.656 z"
         fill="#373435"
         id="path152" />
      <path
         d="m 93.66,243.991 -1.44,15.84 12.096,22.463 -5.472,-64.222 z"
         fill="#373435"
         id="path154" />
      <path
         d="m 87.036,254.359 2.016,16.704 -2.592,19.295 -15.264,2.016 4.032,-8.64 v -8.639 l 2.592,-2.592 1.44,-4.608 -2.592,-3.456 c 0,0 6.048,-9.216 10.656,-10.08 z"
         fill="#373435"
         id="path156" />
      <path
         d="m 73.788,258.391 -1.44,11.232 -12.671,19.295 -13.248,-9.216 4.032,-6.623 7.2,-11.232 8.64,-5.472 z"
         fill="#373435"
         id="path158" />
      <path
         d="m 59.101,251.191 -8.064,9.216 -11.232,10.656 -5.184,-11.232 c 0,0 13.824,-11.808 24.48,-8.64 z"
         fill="#373435"
         id="path160" />
      <path
         d="m 49.021,239.96 c 0,0 -16.704,4.607 -17.856,11.231 l -9.216,-29.087 6.624,-0.576 9.216,4.032 2.016,-3.456 2.592,1.44 6.624,16.704 z"
         fill="#373435"
         id="path162" />
      <path
         d="m 38.653,207.704 h -3.456 l -2.304,7.2 -8.064,-9.792 -6.048,-4.896 -4.032,-2.591 -1.44,-8.352 c 0,0 2.592,-14.112 12.384,-12.96 l 8.928,1.44 z"
         fill="#373435"
         id="path164" />
      <path
         d="m 33.469,165.081 -4.032,5.184 -4.032,-10.079 -3.168,6.623 -3.456,-7.487 -5.184,2.304 c 0,0 -2.304,-18.432 5.184,-18.432 l 14.688,3.168 v 19.007 z"
         fill="#373435"
         id="path166" />
      <path
         d="m 34.909,137.722 -4.896,-2.304 -5.76,3.168 -0.864,-8.928 -5.76,3.456 c 0,0 8.064,-21.599 22.176,-31.103 0,0 16.416,-2.592 13.824,5.76 0,0 -1.44,6.048 -6.624,8.352 0,0 -8.352,5.76 -11.808,21.311 z"
         fill="#373435"
         id="path168" />
    </g>
  </g>
</svg>
