<?xml version="1.0" encoding="UTF-8" standalone="no"?>
<svg
   xmlns:dc="http://purl.org/dc/elements/1.1/"
   xmlns:cc="http://creativecommons.org/ns#"
   xmlns:rdf="http://www.w3.org/1999/02/22-rdf-syntax-ns#"
   xmlns:svg="http://www.w3.org/2000/svg"
   xmlns="http://www.w3.org/2000/svg"
   xmlns:sodipodi="http://sodipodi.sourceforge.net/DTD/sodipodi-0.dtd"
   xmlns:inkscape="http://www.inkscape.org/namespaces/inkscape"
   width="125mm"
   height="88mm"
   version="1.1"
   viewBox="0 0 442.92294 311.80986"
   id="svg49"
   sodipodi:docname="toilet_paper.svg"
   inkscape:version="1.0.2-2 (e86c870879, 2021-01-15)">
  <metadata
     id="metadata53">
    <rdf:RDF>
      <cc:Work
         rdf:about="">
        <dc:format>image/svg+xml</dc:format>
        <dc:type
           rdf:resource="http://purl.org/dc/dcmitype/StillImage" />
        <dc:title></dc:title>
      </cc:Work>
    </rdf:RDF>
  </metadata>
  <sodipodi:namedview
     pagecolor="#ffffff"
     bordercolor="#666666"
     borderopacity="1"
     objecttolerance="10"
     gridtolerance="10"
     guidetolerance="10"
     inkscape:pageopacity="0"
     inkscape:pageshadow="2"
     inkscape:window-width="1920"
     inkscape:window-height="1017"
     id="namedview51"
     showgrid="false"
     inkscape:zoom="0.52715727"
     inkscape:cx="421.398"
     inkscape:cy="491.73643"
     inkscape:window-x="-8"
     inkscape:window-y="-8"
     inkscape:window-maximized="1"
     inkscape:current-layer="svg49" />
  <defs
     id="defs27">
    <linearGradient
       id="d"
       x1="196.48"
       x2="377.01999"
       y1="478.63"
       y2="478.63"
       gradientUnits="userSpaceOnUse">
      <stop
         stop-color="#d4d4d4"
         offset="0"
         id="stop2" />
      <stop
         stop-color="#f1f1f1"
         offset="1"
         id="stop4" />
    </linearGradient>
    <linearGradient
       id="c"
       x1="196.37"
       x2="379.04001"
       y1="585.82001"
       y2="585.82001"
       gradientUnits="userSpaceOnUse">
      <stop
         stop-color="#d4d4d4"
         offset="0"
         id="stop7" />
      <stop
         stop-color="#f1f1f1"
         offset="1"
         id="stop9" />
    </linearGradient>
    <linearGradient
       id="b"
       x1="379.04001"
       x2="469.72"
       y1="551.45001"
       y2="551.45001"
       gradientUnits="userSpaceOnUse">
      <stop
         stop-color="#d4d4d4"
         offset="0"
         id="stop12" />
      <stop
         stop-color="#f1f1f1"
         offset="1"
         id="stop14" />
    </linearGradient>
    <linearGradient
       id="e"
       x1="227.74001"
       x2="165.45"
       y1="352.75"
       y2="319.42001"
       gradientUnits="userSpaceOnUse">
      <stop
         stop-color="#bcbcbc"
         offset="0"
         id="stop17" />
      <stop
         stop-color="#e8e8e8"
         offset="1"
         id="stop19" />
    </linearGradient>
    <linearGradient
       id="a"
       x1="261.95999"
       x2="234.86"
       y1="314.72"
       y2="388.29999"
       gradientUnits="userSpaceOnUse">
      <stop
         stop-color="#efefef"
         offset="0"
         id="stop22" />
      <stop
         stop-color="#989898"
         offset="1"
         id="stop24" />
    </linearGradient>
  </defs>
  <g
     transform="matrix(0.39998482,0,0,0.39998482,140.4987,-39.302971)"
     id="g47">
    <g
       transform="matrix(2,0,0,2,-552.81,-537.84)"
       id="g45">
      <path
         d="m 469.72,324.72 -181.8,15.47 c -0.45,-0.02 -0.89,-0.11 -1.34,-0.11 -3.8,0 -7.52,0.46 -11.19,1.16 -44.45,8.57 -78.91,67.31 -78.91,138.58 0,71.26 34.46,130 78.91,138.57 3.67,0.71 7.39,1.2 11.19,1.2 0.86,0 1.69,-0.18 2.55,-0.22 l 180.59,13.18 z"
         fill="url(#d)"
         fill-rule="evenodd"
         id="path29"
         style="fill:url(#d)" />
      <path
         d="m 196.37,469 v 213.51 c 1,-0.4 4.2,-1.15 4.59,-1.15 -0.11,0.07 -0.6,0.23 -1.64,0.54 -0.02,0.01 -0.05,0.02 -0.07,0.03 -0.65,0.2 -1.52,0.47 -2.63,0.79 0.35,-0.03 0.87,-0.07 1.61,-0.18 0.29,-0.17 0.61,-0.35 0.95,-0.55 -0.2,0.16 -0.37,0.33 -0.59,0.48 0.42,-0.06 0.89,-0.14 1.43,-0.23 -0.77,0.37 -1.6,0.76 -2.38,1.14 l 1.14,0.14 c 1.08,-0.64 1.92,-1.15 2.55,-1.53 -0.47,0.08 -0.88,0.18 -1.28,0.25 1.33,-0.64 2.47,-1.2 2.78,-1.28 h 0.03 c 0,0.01 0.01,0.04 0,0.04 -0.11,0.12 -0.59,0.41 -1.53,0.99 0.59,-0.1 1.25,-0.19 1.97,-0.32 2.64,-0.19 4.49,2.3 7.08,3.16 1.1,0.12 2.02,0.22 2.74,0.35 l 0.29,0.04 3.9,0.45 c 0.23,-0.06 0.42,-0.09 0.55,-0.08 h 0.04 c 0,0 0.03,0.01 0.03,0.01 h 0.04 c 0,0 0.03,0.04 0.04,0.04 0,0.01 0.03,0.04 0.03,0.04 v 0.08 l 4.24,0.49 c 0.53,-0.22 1.13,-0.43 1.75,-0.67 0.12,0.04 0.22,0.1 0.33,0.14 0.01,0.01 0.05,0 0.07,0.01 0.01,0 0.02,0.01 0.03,0.01 0.63,-0.1 1.5,0.25 2.49,0.61 0.01,0 0.02,0.01 0.03,0.01 1.2,-0.46 2.8,-1 4.89,-1.66 0.17,0.4 0.36,0.74 0.55,1.05 0.88,-0.32 1.68,-0.48 2.12,-0.45 0.02,0 0.08,0.01 0.11,0.01 0,0.01 0.02,0.01 0.03,0.01 1.22,0.34 1.99,1.23 2.81,2.08 0.88,-0.19 1.82,-0.43 2.81,-0.59 0.52,0.24 0.98,0.52 1.42,0.79 0.02,0 0.03,-0.01 0.04,0 1.84,-0.96 3.43,-1.8 3.65,-1.87 0.3,0.12 2.86,2.35 3.87,3.18 0.47,-0.89 1.87,-0.86 3.17,-0.43 1.58,-0.11 3.11,0.25 3.98,1.59 2.55,-0.67 5.18,-0.07 7.81,0.14 -0.93,0.26 -1.7,0.46 -2.34,0.64 l 1.03,0.12 c 0.15,-0.03 0.28,-0.06 0.43,-0.09 1.15,-0.7 1.74,-1.02 1.97,-1.05 h 0.04 c 0.01,0 0.03,0.01 0.04,0.01 h 0.03 c 0.01,0 0,0.03 0,0.04 v 0.07 c 0,0.02 -0.02,0.05 -0.03,0.07 -0.04,0.07 -0.08,0.18 -0.15,0.27 0.63,-0.14 1.26,-0.12 1.86,-0.03 h 0.07 c 0.02,0 0.03,0.01 0.04,0.01 1.17,-0.15 2.12,-0.22 2.52,-0.07 0.03,0.01 0.09,0.03 0.11,0.05 0,0 0.03,0.03 0.03,0.04 0.02,0.01 0.04,0.05 0.04,0.07 v 0.04 c 0,0.02 0.01,0.06 0,0.07 -0.05,0.12 -0.19,0.28 -0.44,0.46 0.04,0.01 0.08,0 0.11,0.02 0.01,-0.01 0.03,0 0.04,0 1.47,-0.41 2.51,-0.21 3.39,0.36 h 0.04 c 0.85,-0.46 2.18,-1 3.68,-1.36 0.12,-0.14 0.29,-0.27 0.44,-0.35 0.22,-0.11 0.5,-0.17 0.73,-0.17 0.08,0 0.19,0.02 0.26,0.03 0.02,0 0.08,0.01 0.11,0.01 0,0 0.03,0.01 0.03,0.01 0.03,0.01 0.09,0.04 0.11,0.05 0.02,0 0.06,0.03 0.08,0.04 0.01,0.01 0.05,0.04 0.07,0.05 0.01,0 0.03,0.03 0.04,0.04 2.08,-0.19 4.22,0.15 5.76,1.69 3.77,1.23 6.76,-1.23 10.55,0.75 3.51,1.36 7.14,0.56 10.76,1.14 3.99,0.63 7.13,-0.41 10.55,2.03 0.69,-0.19 1.54,-0.37 2.48,-0.4 -0.03,0.01 -0.04,0.08 -0.07,0.1 0.08,-0.04 0.16,-0.09 0.21,-0.12 2.17,-0.06 4.81,0.51 7.19,2.58 v 0.22 c 0.01,0.01 0.03,0.04 0.04,0.04 0.01,0.01 0.03,0.04 0.04,0.04 0,0.01 0.03,0.04 0.03,0.04 0.02,0.01 0.06,0.04 0.08,0.05 0.01,0.01 0.06,0.04 0.07,0.04 0.01,0.01 0.03,0.01 0.04,0.01 0.1,0.03 0.23,0.06 0.36,0.08 1.65,-1.04 4.4,-2.21 6.64,-2.11 0.02,-0.01 0.05,-0.03 0.07,-0.03 0.03,-0.01 0.09,-0.01 0.11,-0.02 0.02,-0.01 0.06,-0.03 0.08,-0.03 h 0.03 c 0,0 0.03,0 0.04,0.01 v 0.03 c 0,0.01 -0.03,0.02 -0.04,0.03 v 0.04 c 0.77,0.07 1.45,0.28 2.01,0.75 0.52,0.3 0.98,0.37 1.39,0.3 2.9,-1.55 2.84,-1.72 6.53,0.32 4.31,-0.36 7.45,0.03 11.82,1.41 4.68,-0.77 7.87,0.72 12.08,2.28 3.54,-0.93 4.6,0.11 7.37,1.7 1.35,-0.52 2.75,-0.72 4.2,-0.83 V 469 Z m 66.99,221.88 c -0.07,0.04 -0.14,0.07 -0.22,0.12 l 0.44,0.05 c 0.13,-0.09 0.24,-0.18 0.37,-0.25 -0.19,0.03 -0.4,0.04 -0.59,0.08 z m 55.18,4.11 c -0.03,0.02 -0.05,0.05 -0.08,0.07 0.04,-0.02 0.05,-0.05 0.08,-0.07 z m -1.24,0.48 c -0.06,0.02 -0.1,0.07 -0.15,0.09 0.07,-0.01 0.15,-0.03 0.22,-0.05 0.01,0 0.03,0.01 0.04,0.01 -0.01,-0.01 0,-0.04 0,-0.04 h -0.04 c 0,-0.01 -0.03,-0.01 -0.04,-0.01 -0.01,0.01 -0.02,-0.01 -0.03,0 z m 16.42,3.11 c -0.1,0.04 -0.18,0.08 -0.26,0.12 0.08,-0.04 0.18,-0.08 0.26,-0.12 z M 196.37,682.73 v 0.07 c 0.04,-0.01 0.07,-0.05 0.11,-0.06 -0.05,0 -0.08,-0.02 -0.11,-0.01 z m 80.42,9.42 c -0.21,0.12 -0.41,0.23 -0.66,0.36 l 0.95,0.11 c -0.1,-0.17 -0.21,-0.32 -0.29,-0.47 z m 59.33,7.29 c -0.01,0.01 -0.02,0.03 -0.03,0.04 l 0.14,0.01 c 0,0 0.01,-0.03 0,-0.03 0,-0.01 -0.03,-0.01 -0.03,-0.01 -0.03,0 -0.05,-0.01 -0.08,-0.01 z"
         fill="url(#c)"
         id="path31"
         style="fill:url(#c)" />
      <g
         fill-rule="evenodd"
         id="g43">
        <path
           d="m 379.04,470.35 v 155.59 l 90.68,6.61 v -162.2 z"
           fill="url(#b)"
           id="path33"
           style="fill:url(#b)" />
        <ellipse
           transform="matrix(0,3.4238,-3.2908,0,1572,-325.45)"
           cx="234.86"
           cy="334.64999"
           rx="44.952"
           ry="27.778999"
           fill="url(#e)"
           id="ellipse35"
           style="fill:url(#e)" />
        <ellipse
           transform="matrix(0,3.4238,-3.2908,0,1572,-325.45)"
           cx="234.86"
           cy="334.64999"
           rx="44.952"
           ry="27.778999"
           fill="#eaeaea"
           id="ellipse37" />
        <ellipse
           transform="matrix(0,1.1677,-1.1677,0,863.86,205.56)"
           cx="234.86"
           cy="334.64999"
           rx="44.952"
           ry="27.778999"
           fill="#bcbcbc"
           id="ellipse39" />
        <ellipse
           transform="matrix(0,1.0516,-1.0516,0,824.7,232.05)"
           cx="234.86"
           cy="334.64999"
           rx="44.952"
           ry="27.778999"
           fill="url(#a)"
           id="ellipse41"
           style="fill:url(#a)" />
      </g>
    </g>
  </g>
</svg>
