<?xml version="1.0" encoding="UTF-8" standalone="no"?>
<svg
   xmlns:dc="http://purl.org/dc/elements/1.1/"
   xmlns:cc="http://creativecommons.org/ns#"
   xmlns:rdf="http://www.w3.org/1999/02/22-rdf-syntax-ns#"
   xmlns:svg="http://www.w3.org/2000/svg"
   xmlns="http://www.w3.org/2000/svg"
   xmlns:xlink="http://www.w3.org/1999/xlink"
   xmlns:sodipodi="http://sodipodi.sourceforge.net/DTD/sodipodi-0.dtd"
   xmlns:inkscape="http://www.inkscape.org/namespaces/inkscape"
   id="svg2"
   viewBox="0 0 332.59841 472.44093"
   version="1.1"
   sodipodi:docname="tricycle.svg"
   width="88mm"
   height="125mm"
   inkscape:version="1.0.2-2 (e86c870879, 2021-01-15)">
  <sodipodi:namedview
     pagecolor="#ffffff"
     bordercolor="#666666"
     borderopacity="1"
     objecttolerance="10"
     gridtolerance="10"
     guidetolerance="10"
     inkscape:pageopacity="0"
     inkscape:pageshadow="2"
     inkscape:window-width="1920"
     inkscape:window-height="1017"
     id="namedview247"
     showgrid="false"
     units="mm"
     inkscape:zoom="0.57111436"
     inkscape:cx="390.24714"
     inkscape:cy="619.53783"
     inkscape:window-x="-8"
     inkscape:window-y="-8"
     inkscape:window-maximized="1"
     inkscape:current-layer="svg2" />
  <defs
     id="defs4">
    <linearGradient
       id="linearGradient4133">
      <stop
         id="stop4135"
         stop-color="#030501"
         offset="0" />
      <stop
         id="stop4137"
         stop-color="#030501"
         stop-opacity="0"
         offset="1" />
    </linearGradient>
    <linearGradient
       id="linearGradient4417">
      <stop
         id="stop4419"
         stop-color="#4d4d4d"
         offset="0" />
      <stop
         id="stop4421"
         stop-color="#4d4d4d"
         stop-opacity="0"
         offset="1" />
    </linearGradient>
    <linearGradient
       id="linearGradient3802">
      <stop
         id="stop3804"
         stop-color="#100005"
         offset="0" />
      <stop
         id="stop3806"
         stop-color="#e6e6e6"
         stop-opacity="0"
         offset="1" />
    </linearGradient>
    <linearGradient
       id="linearGradient3778">
      <stop
         id="stop3780"
         stop-color="#000202"
         offset="0" />
      <stop
         id="stop3786"
         stop-color="#f2f2f2"
         stop-opacity=".49804"
         offset=".58578" />
      <stop
         id="stop3782"
         stop-color="#f2f2f2"
         stop-opacity="0"
         offset="1" />
    </linearGradient>
    <linearGradient
       id="linearGradient3796"
       y2="398.70001"
       xlink:href="#linearGradient3778"
       gradientUnits="userSpaceOnUse"
       x2="615.84998"
       y1="57.240002"
       x1="614.63" />
    <linearGradient
       id="linearGradient3798"
       y2="398.70001"
       xlink:href="#linearGradient3778"
       gradientUnits="userSpaceOnUse"
       x2="615.84998"
       gradientTransform="matrix(1,0,0,-1,0,592.51)"
       y1="57.240002"
       x1="614.63" />
    <filter
       id="filter3959"
       y="-0.039999001"
       width="1.2031"
       height="1.08"
       x="-0.10154">
      <feGaussianBlur
         id="feGaussianBlur3961"
         stdDeviation="1.4134009" />
    </filter>
    <linearGradient
       id="linearGradient4190"
       y2="824.31"
       xlink:href="#linearGradient3802"
       gradientUnits="userSpaceOnUse"
       x2="235.37"
       y1="845.04999"
       x1="235.37" />
    <linearGradient
       id="linearGradient4192"
       y2="824.31"
       xlink:href="#linearGradient3802"
       gradientUnits="userSpaceOnUse"
       x2="235.37"
       gradientTransform="translate(0,-1654.7)"
       y1="845.04999"
       x1="235.37" />
    <linearGradient
       id="linearGradient4194"
       y2="846.92999"
       gradientUnits="userSpaceOnUse"
       x2="184.09"
       y1="805.13"
       x1="183.48">
      <stop
         id="stop3868"
         stop-color="#000202"
         offset="0" />
      <stop
         id="stop3870"
         stop-color="#f2f2f2"
         stop-opacity=".49804"
         offset=".43687" />
      <stop
         id="stop3872"
         stop-color="#f2f2f2"
         stop-opacity="0"
         offset="1" />
    </linearGradient>
    <linearGradient
       id="linearGradient4196"
       y2="846.92999"
       gradientUnits="userSpaceOnUse"
       x2="184.09"
       y1="805.13"
       x1="183.48">
      <stop
         id="stop3858"
         stop-color="#000202"
         offset="0" />
      <stop
         id="stop3860"
         stop-color="#f2f2f2"
         stop-opacity=".49804"
         offset=".39408" />
      <stop
         id="stop3862"
         stop-color="#f2f2f2"
         stop-opacity="0"
         offset="1" />
    </linearGradient>
    <filter
       id="filter4358">
      <feGaussianBlur
         id="feGaussianBlur4360"
         stdDeviation="3.3011983" />
    </filter>
    <filter
       id="filter4456">
      <feGaussianBlur
         id="feGaussianBlur4458"
         stdDeviation="0.40495739" />
    </filter>
    <linearGradient
       id="linearGradient4490"
       y2="472.26001"
       xlink:href="#linearGradient4417"
       gradientUnits="userSpaceOnUse"
       x2="341.54999"
       gradientTransform="translate(192.17,30.665)"
       y1="488.07001"
       x1="340.66" />
    <linearGradient
       id="linearGradient4498"
       y2="463.07999"
       xlink:href="#linearGradient4417"
       gradientUnits="userSpaceOnUse"
       x2="338.32999"
       gradientTransform="translate(23.396,-37.701)"
       y1="492.01001"
       x1="338.32999" />
    <filter
       id="filter4537"
       y="-0.15591"
       width="1.0627"
       height="1.3118"
       x="-0.031328999">
      <feGaussianBlur
         id="feGaussianBlur4539"
         stdDeviation="0.91133522" />
    </filter>
    <filter
       id="filter4575">
      <feGaussianBlur
         id="feGaussianBlur4577"
         stdDeviation="20.943851" />
    </filter>
    <filter
       id="filter4619"
       y="-9.5117998"
       width="1.0536"
       height="20.024"
       x="-0.026779">
      <feGaussianBlur
         id="feGaussianBlur4621"
         stdDeviation="2.1466161" />
    </filter>
    <filter
       id="filter4582"
       y="-0.33954999"
       width="1.0818"
       height="1.6791"
       x="-0.040922999">
      <feGaussianBlur
         id="feGaussianBlur4584"
         stdDeviation="0.99116748" />
    </filter>
    <linearGradient
       id="linearGradient4601"
       y2="291.53"
       gradientUnits="userSpaceOnUse"
       x2="268.06"
       gradientTransform="matrix(3.5287,0,0,1.7814,-669.98,-229.29)"
       y1="291.53"
       x1="254.82001">
      <stop
         id="stop4318"
         stop-color="#000202"
         offset="0" />
      <stop
         id="stop4320"
         stop-color="#f2f2f2"
         stop-opacity=".49804"
         offset=".36707" />
      <stop
         id="stop4322"
         stop-color="#f2f2f2"
         stop-opacity="0"
         offset="1" />
    </linearGradient>
    <filter
       id="filter4656"
       y="-0.23827"
       width="1.5718"
       height="1.4765"
       x="-0.28591999">
      <feGaussianBlur
         id="feGaussianBlur4658"
         stdDeviation="0.88030967" />
    </filter>
    <linearGradient
       id="linearGradient4741"
       y2="533.94"
       gradientUnits="userSpaceOnUse"
       x2="95.113998"
       gradientTransform="translate(0.1292,0.12921)"
       y1="543.5"
       x1="94.711998">
      <stop
         id="stop4289"
         stop-color="#000202"
         offset="0" />
      <stop
         id="stop4291"
         stop-color="#f2f2f2"
         stop-opacity=".49804"
         offset=".58865" />
      <stop
         id="stop4293"
         stop-color="#f2f2f2"
         stop-opacity="0"
         offset="1" />
    </linearGradient>
    <filter
       id="filter4035"
       y="-0.055059001"
       width="1.4559"
       height="1.1101"
       x="-0.22796001">
      <feGaussianBlur
         id="feGaussianBlur4037"
         stdDeviation="3.5317294" />
    </filter>
    <linearGradient
       id="linearGradient4111"
       y2="269.87"
       xlink:href="#linearGradient3802"
       gradientUnits="userSpaceOnUse"
       x2="486.81"
       gradientTransform="translate(1.6854,-0.2809)"
       y1="273.51999"
       x1="473.62" />
    <linearGradient
       id="linearGradient4113"
       y2="268.75"
       gradientUnits="userSpaceOnUse"
       x2="472.48001"
       gradientTransform="translate(13.764,4.4944)"
       y1="265.10001"
       x1="486.26001">
      <stop
         id="stop4084"
         stop-color="#fff"
         offset="0" />
      <stop
         id="stop4086"
         stop-color="#f2f2f2"
         stop-opacity=".49804"
         offset=".73041" />
      <stop
         id="stop4088"
         stop-color="#f2f2f2"
         stop-opacity="0"
         offset="1" />
    </linearGradient>
    <linearGradient
       id="linearGradient4158"
       y2="217.11"
       xlink:href="#linearGradient4133"
       gradientUnits="userSpaceOnUse"
       x2="436.20001"
       gradientTransform="translate(-56.742,4.4944)"
       y1="219.07001"
       x1="428.42001" />
    <linearGradient
       id="linearGradient4160"
       y2="217.11"
       gradientUnits="userSpaceOnUse"
       x2="436.20001"
       gradientTransform="translate(-57.303,4.4944)"
       y1="214.02"
       x1="447.51999">
      <stop
         id="stop4147"
         stop-color="#fff"
         offset="0" />
      <stop
         id="stop4149"
         stop-color="#f2f2f2"
         stop-opacity=".49804"
         offset=".39246" />
      <stop
         id="stop4151"
         stop-color="#f2f2f2"
         stop-opacity="0"
         offset="1" />
    </linearGradient>
    <linearGradient
       id="linearGradient4184"
       y2="-6.9576998"
       gradientUnits="userSpaceOnUse"
       x2="537.19"
       y1="19.983"
       x1="445.85001">
      <stop
         id="stop4180"
         stop-color="#666"
         offset="0" />
      <stop
         id="stop4182"
         stop-color="#666"
         stop-opacity="0"
         offset="1" />
    </linearGradient>
    <linearGradient
       id="linearGradient4199"
       y2="-72.641998"
       xlink:href="#linearGradient4133"
       gradientUnits="userSpaceOnUse"
       x2="336.48999"
       y1="-61.223"
       x1="313.34" />
    <linearGradient
       inkscape:collect="always"
       xlink:href="#linearGradient3778"
       id="linearGradient249"
       gradientUnits="userSpaceOnUse"
       x1="614.63"
       y1="57.240002"
       x2="615.84998"
       y2="398.70001" />
    <linearGradient
       inkscape:collect="always"
       xlink:href="#linearGradient3778"
       id="linearGradient251"
       gradientUnits="userSpaceOnUse"
       gradientTransform="matrix(1,0,0,-1,0,592.51)"
       x1="614.63"
       y1="57.240002"
       x2="615.84998"
       y2="398.70001" />
    <linearGradient
       inkscape:collect="always"
       xlink:href="#linearGradient4741"
       id="linearGradient253"
       gradientUnits="userSpaceOnUse"
       gradientTransform="translate(0.1292,0.12921)"
       x1="94.711998"
       y1="543.5"
       x2="95.113998"
       y2="533.94" />
    <linearGradient
       inkscape:collect="always"
       xlink:href="#linearGradient3778"
       id="linearGradient255"
       gradientUnits="userSpaceOnUse"
       x1="614.63"
       y1="57.240002"
       x2="615.84998"
       y2="398.70001" />
    <linearGradient
       inkscape:collect="always"
       xlink:href="#linearGradient3778"
       id="linearGradient257"
       gradientUnits="userSpaceOnUse"
       gradientTransform="matrix(1,0,0,-1,0,592.51)"
       x1="614.63"
       y1="57.240002"
       x2="615.84998"
       y2="398.70001" />
    <linearGradient
       inkscape:collect="always"
       xlink:href="#linearGradient4741"
       id="linearGradient259"
       gradientUnits="userSpaceOnUse"
       gradientTransform="translate(0.1292,0.12921)"
       x1="94.711998"
       y1="543.5"
       x2="95.113998"
       y2="533.94" />
  </defs>
  <g
     id="g6016"
     transform="matrix(0.80747587,0,0,0.80747587,-120.6702,-171.08857)">
    <g
       id="g4517"
       transform="matrix(0.97649,0,0,0.97649,1.1837,157.81)">
      <rect
         id="rect4475"
         transform="rotate(-37.114)"
         rx="2.9726"
         ry="1.1773"
         height="8.1101999"
         width="33.551998"
         stroke="#000304"
         y="735.13"
         x="115.55"
         stroke-width="1.017"
         fill="#f4e3d7" />
      <path
         id="path4477"
         d="m 501.28,523.85 39.139,-1.8701 26.148,-18.375 -40.199,-0.0866 z"
         stroke="#000000"
         stroke-width="1px"
         fill="#f2f2f2" />
      <path
         id="path4479"
         d="m 526.49,501.99 41.923,-0.26608 -2.4676,-5.5957 -42.395,0.36917 z"
         stroke="#000000"
         stroke-width="1.0154px"
         fill="#f9f9f9" />
      <path
         id="path4481"
         d="m 500.11,523.91 26.03,-20.593 c 0.30733,-0.49392 -0.0197,-0.92952 0.16474,-1.4827 l -3.2949,-5.4366 c -1.1256,-0.0629 -1.5565,0.0565 -1.8122,0.82373 l -24.547,19.934 c -1.1435,1.0937 -0.82372,1.7868 -0.82372,2.3064 l 2.6359,4.1186 c 1.1658,0.37633 1.09,0.66393 1.6474,0.32949 z"
         stroke="#000000"
         stroke-width="1px"
         fill="#ffffff" />
      <path
         id="path4483"
         d="m 526.26,503.48 h 41.176 c 1.2461,-0.17496 1.274,-0.72333 1.2032,-2.0054 l -42.38,0.26738 c 0.18409,0.56731 1.1642,2.029 0,1.738 z"
         stroke="#000000"
         stroke-width="0.7"
         fill="#cccccc" />
      <path
         id="path4485"
         d="m 502.62,523.32 39.139,-1.8701 26.148,-18.375 -40.199,-0.0866 z"
         fill="url(#linearGradient4490)"
         style="fill:url(#linearGradient4490)" />
    </g>
    <g
       id="g4465"
       transform="matrix(-0.97649,0,0,-0.97649,876.03,1087.8)">
      <path
         id="path4467"
         stroke-linejoin="round"
         d="m 331.45,472.5 c 0,4.0982 -1.8984,7.4205 -4.2403,7.4205 -2.3418,0 -4.2403,-3.3223 -4.2403,-7.4205 0,-4.0982 1.8984,-7.4205 4.2403,-7.4205 2.3418,0 4.2403,3.3223 4.2403,7.4205 z"
         transform="translate(101.41,3.5336)"
         stroke="#000304"
         stroke-linecap="round"
         stroke-width="0.56"
         fill="#e6e6e6" />
      <path
         id="path4469"
         d="m 427.21,479.22 c 3.6007,0.62712 4.7801,-4.953 2.1201,-6.0071 -3.8203,-1.5138 -17.356,2.5962 -21.887,-4.0325 -5.6807,-8.3107 -13.164,-19.335 -17.336,-25.65 -0.58386,-0.88356 -1.6603,-5.0758 -5.8901,-2.803 -4.0381,2.1699 0.51887,7.0833 2.458,10.442 3.4619,5.3342 12.162,18.787 15.229,21.869 4.1629,4.9866 7.0383,6.1277 10.722,6.3913 5.3531,0.38304 7.5158,0.0964 14.583,-0.21015 z"
         stroke="#000000"
         stroke-width="1px"
         fill="#e6e6e6" />
      <path
         id="path4471"
         d="m 414.37,479.18 c 4.5209,0.0337 8.637,-0.23614 13.158,-0.20243 1.7975,-0.30931 3.0131,-2.9928 -0.0267,-2.7943 -5.4275,0.22642 -9.3852,1.118 -14.487,0.47822 -3.0036,-0.15679 -5.0093,-0.70917 -6.909,-2.3137 -3.4542,-3.12 -4.586,-5.3525 -6.7803,-7.703 -1.347,-1.5936 -2.5134,-3.144 -4.1709,-5.4999 -1.7319,-1.8849 -2.8612,-3.9872 -4.8631,-6.5893 -2.0184,-3.0591 -4.3449,-6.2198 -6.4212,-9.2319 -1.9113,-1.6171 -0.89024,1.2674 -0.0649,2.0895 1.7747,2.6894 3.1783,4.1587 4.7699,6.8167 1.6426,2.7075 3.2962,4.8361 5.2953,7.512 1.2734,2.3056 2.5941,4.5665 4.6551,7.2298 2.4611,3.1035 4.2736,6.3857 7.6352,8.6833 3.4788,1.7973 4.6648,1.6728 8.21,1.5251 z"
         fill-opacity="0.60317"
         transform="matrix(0.97497,0,0,1,10.773,0)"
         filter="url(#filter4456)"
         fill="#000003" />
    </g>
    <path
       id="path4668"
       d="m 276.33,483.13 c 1.1955,11.16 -1.4431,25.359 1.4431,35.115 6.3878,9.7344 20.824,13.964 19.722,10.102 -1.5478,-5.4258 -7.714,-8.8981 -12.507,-12.507 -2.9926,-2.2532 -1.7819,-18.902 -1.9241,-22.608 -0.10198,-2.6568 0.21722,-6.2534 0.48103,-10.102 -4.439,0 -5.0251,0.10285 -7.2154,0 z"
       stroke="#000000"
       stroke-width="0.97649px"
       fill="#e6e6e6" />
    <g
       id="g4596"
       transform="matrix(0.97649,0,0,0.97649,11.766,181.38)">
      <path
         id="path4054"
         d="m 233,302.61 c 11.828,2.5031 22.346,-2.9557 31.527,-2.9557 h 23.153 c 9.664,0 17.932,3.7425 23.645,-1.9704 1.8051,-1.8051 3.917,-6.0463 3.9409,-9.3596 -2.7926,-7.0392 -12.844,-5.8545 -19.704,-5.9113 -6.7935,0 -8.7776,-2.9557 -19.212,-2.9557 -9.1023,0 -11.91,0.0436 -19.704,3.9409 -8.5473,4.2737 -40.19,-8.3632 -23.645,19.212 z"
         stroke="#000000"
         stroke-width="1px"
         fill="#4d4d4d" />
      <path
         id="path4056"
         d="m 231.53,287.83 c 7.5776,-5.8886 21.645,1.5082 25.123,-1.9704 6.1322,-6.1322 26.953,-6.5091 33.005,-1.9704"
         filter="url(#filter4582)"
         stroke="#fffbfc"
         stroke-width="1.8"
         fill="none" />
      <path
         id="path4586"
         fill="url(#linearGradient4601)"
         d="m 275.65,279.95 c 6.8213,39.454 -107.84,10.888 0,0 z"
         style="fill:url(#linearGradient4601)" />
    </g>
    <g
       id="g4628"
       transform="matrix(0.97649,0,0,0.97649,1.1837,157.81)">
      <path
         id="path4228"
         d="m 389.69,269.77 c -4.3233,0.0637 -9.1773,2.7188 -12.312,2.7188 l -8.7618,4.8244 c -53.844,31.998 -73.093,71.611 -84.332,119.08 -8.5134,40.014 -11.622,89.608 -9.3438,127.84 9.005,13.368 21.521,11.806 26.75,-0.0603 4.5222,-120.35 14.063,-177.71 66.875,-222.26 13.236,-9.9249 19.906,-15.959 24.219,-20.139 0.825,-0.8181 3.2131,-5.4983 3.6875,-6.447 0.99748,-3.5238 -3.6559,-5.574 -6.7812,-5.5625 z"
         stroke="#000000"
         stroke-width="1px"
         fill="#d40000" />
      <path
         id="path4345"
         d="m 298.78,521.94 c 0.87055,-30.576 4.4284,-59.624 6.6934,-89.711 3.1821,-23.323 3.8012,-32.749 8.387,-50.227 3.0508,-11.668 5.5587,-19.177 9.3396,-27.353 12.073,-26.101 35.672,-53.44 56.494,-67.672 2.9606,-2.0473 9.2416,-7.302 11.313,-10.267"
         filter="url(#filter4358)"
         stroke="#000000"
         stroke-width="3.5"
         fill="none" />
      <path
         id="path4362"
         fill="#ffffff"
         d="m 292.58,399.36 c 4.3257,-26.954 11.893,-50.269 28.004,-71.613 4.2639,-4.9425 9.4326,-12.516 13.131,-15.875 4.7525,-4.458 8.9117,-8.7856 14.185,-13.323 3.7899,-2.8755 8.5065,-6.0402 13.511,-9.0704 6.3486,-3.825 12.105,-6.1594 13.162,-7.9267 -2.9911,-4.3698 -6.8818,-0.002 -12.989,2.9316 -11.308,8.0581 -22.936,17.535 -28.932,23.448 -16.713,14.722 -27.344,35.647 -36.625,57.178 -2.1391,5.9002 -6.1283,13.439 -7.2898,22.24 -2.4057,5.2648 -0.30145,11.259 3.8427,12.011 z" />
    </g>
    <g
       id="g4743"
       transform="matrix(0.97649,0,0,0.97649,190.84,156.8)">
      <path
         id="path4746"
         d="m 188.96,451.7 c -18.435,0 -33.381,28.557 -33.381,63.795 0,35.238 14.946,63.81 33.381,63.81 18.435,0 33.381,-28.572 33.381,-63.81 0,-35.238 -14.946,-63.795 -33.381,-63.795 z m -4.7233,6.7671 c 14.356,0 25.993,25.532 25.993,57.028 0,31.496 -11.637,57.028 -25.993,57.028 -14.356,0 -25.993,-25.532 -25.993,-57.028 0,-31.496 11.637,-57.028 25.993,-57.028 z"
         fill="#333333" />
      <path
         id="path4748"
         stroke-linejoin="round"
         d="m 81.455,513.8 c 0,4.7354 -1.4395,8.5742 -3.2153,8.5742 -1.7758,0 -3.2153,-3.8388 -3.2153,-8.5742 0,-4.7354 1.4395,-8.5742 3.2153,-8.5742 1.7758,0 3.2153,3.8388 3.2153,8.5742 z"
         transform="translate(117.09,0.012992)"
         stroke="#010000"
         stroke-linecap="round"
         stroke-width="0.8"
         fill="#cccccc" />
      <path
         id="path4750"
         d="m 197.17,521.38 -0.0332,44.747 c -0.32205,2.1095 -1.1872,0.61418 -1.31,0 l 0.0762,-44.895 c -0.0858,-1.381 1.0534,-1.8954 1.267,0.14812 z"
         stroke="#000000"
         stroke-width="0.5"
         fill="#dbe3e2" />
      <path
         id="path4752"
         d="m 195.37,463.58 2.5668,45.947 c -0.32205,2.1095 -1.1872,0.61418 -1.31,0 l -2.7238,-45.895 c 0.42347,-0.85619 1.467,-0.0519 1.467,-0.0519 z"
         stroke="#000000"
         stroke-width="0.5"
         fill="#dbe3e2" />
      <path
         id="path4754"
         d="m 198.44,512.18 8.7691,-21.215 c -0.32205,-2.1095 -0.5872,-2.0142 -0.71004,-1.4 l -9.6603,22.178 c -0.50355,2.1329 1.0534,3.065 1.6012,0.43668 z"
         stroke="#000000"
         stroke-width="0.5"
         fill="#dbe3e2" />
      <g
         id="g4756"
         transform="translate(47.6,4.8)">
        <g
           id="g4758"
           stroke="#010000"
           transform="matrix(0.48444,0,0,0.48444,-158.85,367.33)"
           fill="#ececec">
          <path
             id="path4760"
             d="m 610.96,178.54 c -29.635,0 -53.656,52.703 -53.656,117.72 0,65.015 24.021,117.72 53.656,117.72 29.635,0 53.688,-52.703 53.688,-117.72 0,-65.015 -24.053,-117.72 -53.688,-117.72 z m 10.375,9.2188 c 22.563,0 40.875,48.568 40.875,108.5 0,59.932 -18.312,108.53 -40.875,108.53 -22.563,0 -40.844,-48.599 -40.844,-108.53 0,-59.932 18.281,-108.5 40.844,-108.5 z" />
          <path
             id="path4762"
             d="m 610.96,413.98 c -29.635,0 -53.656,-52.703 -53.656,-117.72 0,-65.015 24.021,-117.72 53.656,-117.72 29.635,0 53.688,52.703 53.688,117.72 0,65.015 -24.053,117.72 -53.688,117.72 z m 10.375,-9.2188 c 22.563,0 40.875,-48.568 40.875,-108.5 0,-59.932 -18.312,-108.53 -40.875,-108.53 -22.563,0 -40.844,48.599 -40.844,108.53 0,59.932 18.281,108.5 40.844,108.5 z" />
        </g>
        <g
           id="g4764"
           transform="matrix(0.48444,0,0,0.48444,-158.85,367.33)">
          <path
             id="path4766"
             d="m 610.96,178.54 c -29.635,0 -53.656,52.703 -53.656,117.72 0,65.015 24.021,117.72 53.656,117.72 29.635,0 53.688,-52.703 53.688,-117.72 0,-65.015 -24.053,-117.72 -53.688,-117.72 z m 10.375,9.2188 c 22.563,0 40.875,48.568 40.875,108.5 0,59.932 -18.312,108.53 -40.875,108.53 -22.563,0 -40.844,-48.599 -40.844,-108.53 0,-59.932 18.281,-108.5 40.844,-108.5 z"
             fill="url(#linearGradient3796)"
             style="fill:url(#linearGradient249)" />
          <path
             id="path4768"
             fill="url(#linearGradient3798)"
             d="m 610.96,413.98 c -29.635,0 -53.656,-52.703 -53.656,-117.72 0,-65.015 24.021,-117.72 53.656,-117.72 29.635,0 53.688,52.703 53.688,117.72 0,65.015 -24.053,117.72 -53.688,117.72 z m 10.375,-9.2188 c 22.563,0 40.875,-48.568 40.875,-108.5 0,-59.932 -18.312,-108.53 -40.875,-108.53 -22.563,0 -40.844,48.599 -40.844,108.53 0,59.932 18.281,108.5 40.844,108.5 z"
             style="fill:url(#linearGradient251)" />
        </g>
      </g>
      <path
         id="path4770"
         d="m 193.1,513.72 -27.421,26.337 c -0.18639,0.93172 0.24172,0.67103 0.86307,0.5848 l 27.2,-25.92 c 0.57584,-0.70349 0.22331,-1.6787 -0.64643,-1.0025 z"
         stroke="#000000"
         stroke-width="0.384"
         fill="#dbdee3" />
      <path
         id="path4772"
         d="m 163.84,509.99 c -0.36367,0.002 -1.0036,-0.79838 -0.0846,-1.5187 l 30.175,0.4834 c 0.18463,0.62792 0.55403,0.73664 -0.0985,1.2017 -9.998,-0.0727 -19.996,-0.16637 -29.992,-0.16637 z"
         fill-opacity="0.98942"
         stroke="#000000"
         stroke-width="0.36791"
         fill="#dbe3e2" />
      <g
         id="g4774"
         stroke="#010000"
         stroke-width="0.72308"
         transform="translate(92.122,-23.879)">
        <rect
           id="rect4776"
           rx="1.2575999"
           ry="5.1252999"
           height="10.251"
           width="18.025999"
           y="532.56"
           x="85.641998"
           fill="#e6e6e6" />
        <rect
           id="rect4778"
           rx="1.2575999"
           ry="5.1252999"
           height="10.251"
           width="18.025999"
           y="532.56"
           x="85.641998"
           fill="url(#linearGradient4741)"
           style="fill:url(#linearGradient253)" />
      </g>
      <path
         id="path4780"
         d="m 180.42,512.99 c -0.34964,0.002 -0.96485,-0.80145 -0.0813,-1.5246 l 29.01,0.48526 c 0.17751,0.63033 0.53265,0.73947 -0.0947,1.2063 -9.612,-0.073 -19.224,-0.16701 -28.834,-0.16701 z"
         fill-opacity="0.98942"
         stroke="#000000"
         stroke-width="0.36144"
         fill="#dbe3e2" />
      <path
         id="path4782"
         d="m 194.85,506.56 -22.325,-34.022 c 0.31486,-2.0178 1.1607,-0.58749 1.2808,0 l 22.61,33.605 c 0.4923,2.0402 -1.0298,2.9318 -1.5654,0.4177 z"
         stroke="#000000"
         stroke-width="0.48352"
         fill="#dbdee3" />
      <path
         id="path4784"
         d="m 166.88,488.88 c -0.36367,0.002 -0.66942,0.28767 -0.66942,1.0711 l 10.041,19.949 c 1.5213,0.795 1.3894,0.15184 1.0711,-0.80331 l -9.7735,-19.547 c 0.0237,-0.86559 0.0908,-0.66942 -0.66942,-0.66942 z"
         fill-opacity="0.98942"
         stroke="#000000"
         stroke-width="0.36791"
         fill="#dbe3e2" />
      <path
         id="path4786"
         d="m 179.04,507.38 7.5691,-45.415 c -0.32205,-2.1095 -1.1872,-0.61418 -1.31,0 l -7.8603,44.978 c -0.50355,2.1329 1.0534,3.065 1.6012,0.43668 z"
         stroke="#000000"
         stroke-width="0.5"
         fill="#dbe3e2" />
      <path
         id="path4788"
         d="m 164.07,524 11.371,-11.265 c 0.52136,0.27726 0.77516,0.4221 0.57945,1.0138 -3.4653,3.3446 -7.2085,7.5143 -11.578,11.499 -0.45093,0.20424 -1.1329,-0.94247 -0.37237,-1.2474 z"
         fill-opacity="0.98942"
         stroke="#000000"
         stroke-width="0.28511"
         fill="#dbe3e2" />
      <path
         id="path4790"
         d="m 169.75,553.57 6.6087,-35.66 c 0.52136,0.27726 1.1093,0.25502 0.91362,0.84667 -1.1261,6.0179 -4.5351,25.392 -6.3145,35.225 -0.95481,1.2634 -1.4074,0.43705 -1.2078,-0.41199 z"
         fill-opacity="0.98942"
         stroke="#000000"
         stroke-width="0.28511"
         fill="#dbe3e2" />
      <path
         id="path4792"
         d="m 181.29,510.52 19.936,-37.539 c -0.29766,-1.9497 -1.2822,-1.1222 -1.3957,-0.55456 l -20.02,37.69 c -0.46541,1.9714 0.9736,2.8329 1.4799,0.40361 z"
         stroke="#000000"
         stroke-width="0.46214"
         fill="#dbe3e2" />
      <path
         id="path4794"
         d="m 193.01,520.13 -16.759,44.997 c 0.15497,0.85634 0.76949,1.0319 1.31,0.41771 l 16.632,-45.062 c 0.002,-0.87974 -0.46858,-1.3107 -1.1834,-0.35314 z"
         stroke="#000000"
         stroke-width="0.4"
         fill="#dbe3e2" />
      <path
         id="path4796"
         d="m 179.37,522.3 8.1539,46.752 c -0.32205,2.1095 -1.1872,0.61418 -1.31,0 l -8.1109,-46.9 c -0.50355,-2.1329 0.7192,-2.4802 1.267,0.14812 z"
         stroke="#000000"
         stroke-width="0.5"
         fill="#dbe3e2" />
      <path
         id="path4798"
         stroke-linejoin="round"
         d="m 81.455,513.8 c 0,4.7354 -1.4395,8.5742 -3.2153,8.5742 -1.7758,0 -3.2153,-3.8388 -3.2153,-8.5742 0,-4.7354 1.4395,-8.5742 3.2153,-8.5742 1.7758,0 3.2153,3.8388 3.2153,8.5742 z"
         transform="translate(99.94,0.012992)"
         stroke="#010000"
         stroke-linecap="round"
         stroke-width="0.8"
         fill="#cccccc" />
      <path
         id="path4800"
         d="m 178.12,516.28 c 0.58289,-1.2163 0.65167,-3.3766 -0.0323,-4.8757 -3.4458,-0.26613 -5.4425,-0.11232 -5.4645,2.5301 0.2638,3.2625 1.9634,2.1536 5.4968,2.3456 z"
         stroke="#000000"
         stroke-width="0.29486"
         fill="#cccccc" />
      <path
         id="path4802"
         d="m 197.28,516.48 c -0.36367,0.002 -0.66942,0.28767 -0.66942,1.0711 l 10.785,20.692 c 0.0344,-1.0636 0.646,-0.59161 0.32763,-1.5468 l -9.7735,-19.547 c 0.0237,-0.86559 0.0908,-0.66942 -0.66942,-0.66942 z"
         fill-opacity="0.98942"
         stroke="#000000"
         stroke-width="0.36791"
         fill="#dbe3e2" />
      <path
         id="path4804"
         d="m 180.59,520.58 19.314,39.006 c 0.17083,-0.43755 -0.32293,-0.10158 0.87014,-0.97878 l -18.832,-38.817 c -0.1641,-2.8812 -1.3317,-0.63887 -1.3523,0.78938 z"
         fill-opacity="0.98942"
         stroke="#000000"
         stroke-width="0.512"
         fill="#dbe3e2" />
      <path
         id="path4806"
         d="m 209.03,526.76 -27.558,-9.4673 c -0.70133,-1.3329 0.11006,-1.7057 0.11006,-1.7057 l 27.54,9.8808 c -0.0902,0.98253 0.4085,1.4039 -0.27706,0.36286 z"
         stroke="#000000"
         stroke-width="0.47009"
         fill="#dbdee3" />
    </g>
    <g
       id="g4623"
       transform="matrix(0.79236,0,0,0.97649,59.528,496.9)">
      <path
         id="path4525"
         d="m 139.87,173.51 77.704,1.6077 h 191.85 v -11.79 c -0.59987,-3.9427 -4.2895,-4.2871 -6.9665,-4.2871 h -259.9 c -5.4299,3.355 -6.7843,13.443 -2.6794,14.469 z"
         stroke="#000000"
         stroke-width="1px"
         fill="#d40000" />
      <path
         id="path4527"
         filter="url(#filter4537)"
         fill="#aa0000"
         d="m 206.99,174.63 v -8.4171 c -2.5611,-4.0673 -5.9269,-4.3325 -10.05,-5.6114 h -54.771 c -4.8506,4.949 -8.0325,12.626 -0.50249,12.626 z" />
      <path
         id="path4597"
         d="m 217.03,162.78 c 67.605,0.004 133.13,0.54163 192.38,0.54163"
         transform="matrix(1.0425,0,0,0.99467,-17.615,0.87271)"
         filter="url(#filter4619)"
         stroke="#fcfbff"
         stroke-width="3.437"
         fill="none" />
    </g>
    <path
       id="path2996"
       d="m 426.19,503.09 c -37.159,0 -67.286,54.873 -67.286,122.59 0,67.712 30.127,122.61 67.286,122.61 37.159,0 67.286,-54.902 67.286,-122.61 0,-67.712 -30.127,-122.59 -67.286,-122.59 z m -9.5208,13.003 c 28.938,0 52.395,49.061 52.395,109.58 0,60.522 -23.457,109.58 -52.395,109.58 -28.938,0 -52.395,-49.061 -52.395,-109.58 0,-60.522 23.457,-109.58 52.395,-109.58 z"
       fill="#333333" />
    <path
       id="path2998"
       d="m 416.77,516.74 c -28.938,0 -52.395,48.688 -52.395,108.75 0,60.062 23.457,108.75 52.395,108.75 28.938,0 52.425,-48.688 52.425,-108.75 0,-60.062 -23.487,-108.75 -52.425,-108.75 z m 10.131,8.5164 c 22.032,0 39.914,44.868 39.914,100.23 0,55.366 -17.882,100.26 -39.914,100.26 -22.032,0 -39.883,-44.897 -39.883,-100.26 0,-55.366 17.851,-100.23 39.883,-100.23 z"
       fill="#f2f2f2" />
    <g
       id="g3792"
       stroke="#000304"
       transform="matrix(0.97672,0,0,0.92557,-179.97,351.48)">
      <path
         id="path3008"
         d="m 610.96,178.54 c -29.635,0 -53.656,52.703 -53.656,117.72 0,65.015 24.021,117.72 53.656,117.72 29.635,0 53.688,-52.703 53.688,-117.72 0,-65.015 -24.053,-117.72 -53.688,-117.72 z m 10.375,9.2188 c 22.563,0 40.875,48.568 40.875,108.5 0,59.932 -18.312,108.53 -40.875,108.53 -22.563,0 -40.844,-48.599 -40.844,-108.53 0,-59.932 18.281,-108.5 40.844,-108.5 z"
         fill="url(#linearGradient3796)"
         style="fill:url(#linearGradient255)" />
      <path
         id="path3788"
         d="m 610.96,413.98 c -29.635,0 -53.656,-52.703 -53.656,-117.72 0,-65.015 24.021,-117.72 53.656,-117.72 29.635,0 53.688,52.703 53.688,117.72 0,65.015 -24.053,117.72 -53.688,117.72 z m 10.375,-9.2188 c 22.563,0 40.875,-48.568 40.875,-108.5 0,-59.932 -18.312,-108.53 -40.875,-108.53 -22.563,0 -40.844,48.599 -40.844,108.53 0,59.932 18.281,108.5 40.844,108.5 z"
         fill="url(#linearGradient3798)"
         style="fill:url(#linearGradient257)" />
    </g>
    <path
       id="path3976"
       d="m 435.1,527.82 c 8.6013,34.143 21.427,85.225 20.993,89.002 -1.6915,14.715 6.5228,14.292 3.8146,2.4777 -2.4972,-10.893 -12.825,-53.925 -21.208,-88.525 -1.7725,-2.4998 -1.6898,-0.92845 -3.5991,-2.9556 z"
       stroke="#000000"
       stroke-width="1.0688px"
       fill="#c83737" />
    <path
       id="path3978"
       d="m 425.01,526.05 c -1.3076,0 -3.11,1.1727 -4.3882,1.4513 1.115,4.8212 1.9931,7.0322 2.7465,9.9915 1.9548,9.0109 4.7347,18.208 6.4389,25.114 4.7936,17.552 11.434,46.002 14.739,57.046 4.1185,6.9701 4.8118,8.4359 12.329,9.528 3.0679,0.44571 0.0674,-10.363 -4.1442,-26.98 -2.2953,-9.0564 -5.8747,-25.527 -7.9037,-32.967 -3.6101,-13.238 -7.3617,-30.401 -9.8932,-40.659 -0.0868,-0.27829 -0.15918,-0.56924 -0.24413,-0.85233 -3.2722,-1.941 -6.1647,-1.6713 -9.6798,-1.6713 z"
       stroke="#000000"
       stroke-width="1.0675px"
       fill="#666666" />
    <path
       id="path4605"
       d="m 116.75,425.51 c 0,6.1214 -2.9774,11.084 -6.6502,11.084 -3.6728,0 -6.6502,-4.9624 -6.6502,-11.084 0,-6.1214 2.9774,-11.084 6.6502,-11.084 3.6728,0 6.6502,4.9624 6.6502,11.084 z"
       transform="matrix(1.1432,0,0,1.2284,326.52,99.193)"
       stroke="#000004"
       stroke-width="0.9"
       fill="#ececec" />
    <path
       id="path4680"
       d="m 458.29,615.49 5.5343,-29.364 c -0.90335,-4.235 -1.2136,-5.1449 -1.2136,-5.1449 l -7.2558,33.243 c -0.24533,2.7258 0.23141,3.4302 2.935,1.2657 z"
       stroke="#000000"
       stroke-width="1.1865"
       fill="#dbe3e2" />
    <path
       id="path4688"
       d="m 445.44,626.88 -62.765,56.093 c -0.42663,1.9844 0.55327,1.4292 1.9755,1.2455 l 62.269,-55.203 c 1.318,-1.4983 0.51113,-3.5753 -1.4796,-2.1352 z"
       stroke="#000000"
       stroke-width="0.84785"
       fill="#dbdee3" />
    <g
       id="g4179"
       stroke="#000004"
       transform="matrix(0.97649,0,0,0.97649,-112.87,158.83)">
      <rect
         id="rect4165"
         rx="2.4721"
         ry="4.9868999"
         height="9.9737997"
         width="35.432999"
         y="471.17999"
         x="547.23999"
         fill="#f9f9f9" />
      <g
         id="g3882"
         transform="matrix(0.23661,0,0,0.34653,440.2,225.6)">
        <g
           id="g3822"
           transform="translate(281.03,-104.31)">
          <rect
             id="rect3824"
             opacity="0.58"
             ry="0"
             height="28.049"
             width="135.37"
             y="813.34003"
             x="179.27"
             fill="url(#linearGradient4190)"
             style="fill:url(#linearGradient4190)" />
          <rect
             id="rect3826"
             opacity="0.58"
             ry="0"
             transform="scale(1,-1)"
             height="28.049"
             width="135.37"
             y="-841.39001"
             x="179.27"
             fill="url(#linearGradient4192)"
             style="fill:url(#linearGradient4192)" />
        </g>
        <path
           id="path3818"
           d="m 193.1,827.36 c 0,8.0938 -3.6666,14.655 -8.1896,14.655 -4.523,0 -8.1897,-6.5613 -8.1897,-14.655 0,-8.0938 3.6666,-14.655 8.1897,-14.655 4.523,0 8.1896,6.5613 8.1896,14.655 z"
           fill="#ececec"
           transform="matrix(0.68421,0,0,1,331.67,-104.31)" />
        <g
           id="g3874"
           transform="translate(18.966,-31.601)">
          <path
             id="path3820"
             d="m 193.1,827.36 c 0,8.0938 -3.6666,14.655 -8.1896,14.655 -4.523,0 -8.1897,-6.5613 -8.1897,-14.655 0,-8.0938 3.6666,-14.655 8.1897,-14.655 4.523,0 8.1896,6.5613 8.1896,14.655 z"
             fill="url(#linearGradient4194)"
             transform="matrix(0.7652,0,0,0.96925,433.74,-47.267)"
             style="fill:url(#linearGradient4194)" />
          <path
             id="path3840"
             d="m 193.1,827.36 c 0,8.0938 -3.6666,14.655 -8.1896,14.655 -4.523,0 -8.1897,-6.5613 -8.1897,-14.655 0,-8.0938 3.6666,-14.655 8.1897,-14.655 4.523,0 8.1896,6.5613 8.1896,14.655 z"
             fill="url(#linearGradient4196)"
             transform="matrix(0.7652,0,0,-0.96925,433.74,1556.6)"
             style="fill:url(#linearGradient4196)" />
        </g>
      </g>
    </g>
    <path
       id="path4670"
       d="m 418.11,610.11 -31.871,-49.338 c 0.44947,-1.1772 0.55976,-1.3193 1.8284,-1.5147 l 32.277,50.212 c 0.70277,3.1317 -1.4702,4.5003 -2.2347,0.64118 z"
       stroke="#000000"
       stroke-width="0.71576"
       fill="#dbdee3" />
    <path
       id="path4676"
       d="m 400.5,538.49 49.106,77.459 c -0.72935,4.2188 -2.6886,1.2283 -2.9668,0 l -48.99,-77.35 c 1.9484,-1.7731 0.87311,-1.0879 2.8414,-0.10375 z"
       stroke="#000000"
       stroke-width="1.0641"
       fill="#dbe3e2" />
    <path
       id="path4678"
       d="m 436.58,527.98 16.415,83.262 c -0.69446,4.0708 -2.5601,1.1852 -2.825,0 l -16.456,-84.237 c 2.24,-0.56226 0.11227,1.587 2.8665,0.975 z"
       stroke="#000000"
       stroke-width="1.02"
       fill="#dbe3e2" />
    <path
       id="path4674"
       d="m 427.97,616.91 24.484,-70.283 c -1.7669,-1.9794 -0.83266,-2.921 -1.5066,-2.3446 l -25.608,69.873 c -2.7626,2.0014 -0.37497,5.2208 2.6303,2.7544 z"
       stroke="#000000"
       stroke-width="1.1345"
       fill="#dbe3e2" />
    <path
       id="path4682"
       d="m 377.93,618.95 c -0.79032,0.003 -2.181,-1.3526 -0.18386,-2.5731 l 65.574,0.81899 c 0.40123,1.0638 1.204,1.248 -0.21405,2.036 -21.727,-0.12316 -43.453,-0.28186 -65.176,-0.28186 z"
       fill-opacity="0.98942"
       stroke="#000000"
       stroke-width="0.70595"
       fill="#dbe3e2" />
    <path
       id="path4603"
       d="m 116.75,425.51 c 0,6.1214 -2.9774,11.084 -6.6502,11.084 -3.6728,0 -6.6502,-4.9624 -6.6502,-11.084 0,-6.1214 2.9774,-11.084 6.6502,-11.084 3.6728,0 6.6502,4.9624 6.6502,11.084 z"
       transform="matrix(1.1432,0,0,1.2284,297.66,99.674)"
       stroke="#000004"
       stroke-width="0.9"
       fill="#ececec" />
    <path
       id="path4672"
       d="m 412.08,524.99 11.016,86.911 c 10.05,1.1057 1.4825,2.1353 2.7465,-0.6362 l -11.172,-86.761 c -1.3658,-1.3074 -2.554,-1.1933 -2.5913,0.48699 z"
       fill-opacity="0.98942"
       stroke="#000000"
       stroke-width="1.1152"
       fill="#dbe3e2" />
    <path
       id="path4684"
       d="m 382.99,594.12 35.489,22.604 c -0.72934,4.2188 -2.6887,1.2283 -2.9668,0 l -34.975,-20.944 c 0,0 0.48409,-2.6441 2.4523,-1.6599 z"
       stroke="#000000"
       stroke-width="1.0641"
       fill="#dbe3e2" />
    <g
       id="g4045"
       transform="matrix(0.97649,0,0,0.97649,1.1837,157.81)">
      <g
         id="g4029"
         transform="translate(0.98522,-0.49261)">
        <path
           id="path3899"
           d="m 412.82,320.8 c -1.8269,4.5e-4 -3.6585,0.19184 -5.4375,0.625 -6.7998,1.8904 -8.9012,7.3096 -13.031,14.594 -2.5138,7.5496 -5.1438,14.296 -6.0312,21.594 1.206,9.8833 2.6031,17.92 5.9375,28.938 4.707,18.031 9.1642,32.425 13.031,47.125 4.7119,16.893 6.6285,24.178 12.469,39.062 3.669,9.1202 6.4736,12.151 9.3125,12.188 0,0 4.0457,-0.61953 5.75,-7.4375 0.53443,-9.594 -2.3733,-13.506 -6.4375,-24.031 -4.9956,-13.424 -6.6744,-23.593 -11.031,-40.25 -2.6996,-11.229 -5.1263,-19.578 -7.5625,-32.219 -3.1761,-14.354 -6.5445,-26.922 -5.7812,-40.844 2.8262,-8.7684 11.77,-5.3034 17.656,-5.9688 6.6498,-1.6138 9.9621,5.6833 13.688,15.344 0.18976,0.46241 0.75444,2.4772 1.5312,5.375 1.4331,0.14133 2.9242,0.35287 4.4375,0.65625 -2.2649,-9.2235 -4.0218,-16.191 -4.4688,-17.719 -4.1648,-10.88 -14.166,-17.034 -24.031,-17.031 z m 51.938,158.81 c 0.72061,3.121 2.3054,4.2434 3.5938,3.5938 -1.2036,-1.177 -2.398,-2.3718 -3.5938,-3.5938 z"
           stroke="#000000"
           stroke-width="1.0945px"
           fill="#c83737" />
      </g>
      <path
         id="path3903"
         d="m 419.51,333 c -0.64467,-0.006 -1.2916,0.009 -1.9062,0.0312 -10.654,0.39009 -16.727,5.4156 -11.281,22.5 2.3074,-0.95139 12.501,-5.8679 14.781,-2 0.96403,0.76962 1.8305,1.9529 2.6562,3.3438 4.1049,-1.957 9.0688,-2.5658 14.656,-1.9375 -1.9576,-7.654 -3.8556,-13.831 -6.125,-16.062 -1.8437,-1.599 -4.4158,-5.2229 -6.6562,-5.4688 -2.1457,-0.23545 -4.191,-0.38702 -6.125,-0.40625 z"
         stroke="#000000"
         stroke-width="1.0945px"
         fill="#666666" />
      <path
         id="path3905"
         d="m -142.86,405.07 c -2.4599,-2.4599 -14.959,-24.461 -18.719,-32.02 -5.643,-11.344 -8.8706,-17.741 -13.3,-26.601 -1.8501,-3.7003 -3.5044,-8.9232 -5.4187,-13.793 -1.6633,-4.2314 -4.6148,-10.212 -5.9113,-15.271 -2.614,-10.199 6.8805,-10.948 11.33,-13.3 3.374,-0.0127 9.0354,-0.98522 12.808,-0.98522"
         transform="matrix(0.98489,0.18542,-0.17848,1.1827,642.62,2.1172)"
         filter="url(#filter3959)"
         stroke="#faf8fb"
         stroke-width="2.1"
         fill="none" />
    </g>
    <path
       id="path4686"
       d="m 416.65,626.45 -39.938,20.931 c -0.28406,2.1054 0.92632,2.4886 0.92632,2.4886 l 39.997,-21.154 c 0.87761,-1.5896 0.34036,-3.7932 -0.98517,-2.2653 z"
       stroke="#000000"
       stroke-width="0.7126"
       fill="#dbdee3" />
    <g
       id="g4460"
       transform="matrix(0.97649,0,0,0.97649,1.1837,157.81)">
      <path
         id="path4398"
         stroke-linejoin="round"
         d="m 331.45,472.5 c 0,4.0982 -1.8984,7.4205 -4.2403,7.4205 -2.3418,0 -4.2403,-3.3223 -4.2403,-7.4205 0,-4.0982 1.8984,-7.4205 4.2403,-7.4205 2.3418,0 4.2403,3.3223 4.2403,7.4205 z"
         transform="translate(101.41,3.5336)"
         stroke="#000304"
         stroke-linecap="round"
         stroke-width="0.56"
         fill="#e6e6e6" />
      <path
         id="path4400"
         d="m 427.21,479.22 c 3.6007,0.62712 4.7801,-4.953 2.1201,-6.0071 -3.8203,-1.5138 -17.356,2.5962 -21.887,-4.0325 -5.6807,-8.3107 -13.164,-19.335 -17.336,-25.65 -0.58386,-0.88356 -1.6603,-5.0758 -5.8901,-2.803 -4.0381,2.1699 0.51887,7.0833 2.458,10.442 3.4619,5.3342 12.162,18.787 15.229,21.869 4.1629,4.9866 7.0383,6.1277 10.722,6.3913 5.3531,0.38304 7.5158,0.0964 14.583,-0.21015 z"
         stroke="#000000"
         stroke-width="1px"
         fill="#e6e6e6" />
      <path
         id="path4447"
         d="m 414.37,479.18 c 4.5209,0.0337 8.637,-0.23614 13.158,-0.20243 1.7975,-0.30931 3.0131,-2.9928 -0.0267,-2.7943 -5.4275,0.22642 -9.3852,1.118 -14.487,0.47822 -3.0036,-0.15679 -5.0093,-0.70917 -6.909,-2.3137 -3.4542,-3.12 -4.586,-5.3525 -6.7803,-7.703 -1.347,-1.5936 -2.5134,-3.144 -4.1709,-5.4999 -1.7319,-1.8849 -2.8612,-3.9872 -4.8631,-6.5893 -2.0184,-3.0591 -4.3449,-6.2198 -6.4212,-9.2319 -1.9113,-1.6171 -0.89024,1.2674 -0.0649,2.0895 1.7747,2.6894 3.1783,4.1587 4.7699,6.8167 1.6426,2.7075 3.2962,4.8361 5.2953,7.512 1.2734,2.3056 2.5941,4.5665 4.6551,7.2298 2.4611,3.1035 4.2736,6.3857 7.6352,8.6833 3.4788,1.7973 4.6648,1.6728 8.21,1.5251 z"
         fill-opacity="0.60317"
         transform="matrix(0.97497,0,0,1,10.773,0)"
         filter="url(#filter4456)"
         fill="#000003" />
    </g>
    <g
       id="g4505"
       transform="matrix(0.97649,0,0,0.97649,1.1837,157.81)">
      <rect
         id="rect4371"
         ry="1.1773"
         rx="2.9726"
         transform="rotate(-37.114)"
         height="8.1101999"
         width="33.551998"
         stroke="#000304"
         y="578.78003"
         x="22.212999"
         stroke-width="1.017"
         fill="#f4e3d7" />
      <path
         id="path4375"
         d="m 332.5,455.48 39.139,-1.8701 26.148,-18.375 -40.199,-0.0866 z"
         stroke="#000000"
         stroke-width="1px"
         fill="#f2f2f2" />
      <path
         id="path4377"
         d="m 357.71,433.63 41.923,-0.26608 -2.4676,-5.5957 -42.395,0.36917 z"
         stroke="#000000"
         stroke-width="1.0154px"
         fill="#f9f9f9" />
      <path
         id="path4411"
         d="m 331.33,455.55 26.03,-20.593 c 0.30733,-0.49392 -0.0197,-0.92952 0.16474,-1.4827 l -3.2949,-5.4366 c -1.1256,-0.0629 -1.5565,0.0565 -1.8122,0.82373 l -24.547,19.934 c -1.1435,1.0937 -0.82372,1.7868 -0.82372,2.3064 l 2.6359,4.1186 c 1.1658,0.37633 1.09,0.66393 1.6474,0.32949 z"
         stroke="#000000"
         stroke-width="1px"
         fill="#ffffff" />
      <path
         id="path4413"
         d="m 357.49,435.12 h 41.176 c 1.2461,-0.17496 1.274,-0.72333 1.2032,-2.0054 l -42.38,0.26738 c 0.18409,0.56731 1.1642,2.029 0,1.738 z"
         stroke="#000000"
         stroke-width="0.7"
         fill="#cccccc" />
      <path
         id="path4415"
         d="m 333.84,454.95 39.139,-1.8701 26.148,-18.375 -40.199,-0.0866 z"
         fill="url(#linearGradient4498)"
         style="fill:url(#linearGradient4498)" />
      <g
         id="g4443"
         stroke-linejoin="round"
         transform="translate(8.4008,7.6923)"
         stroke="#000304"
         stroke-linecap="round"
         fill="#e6e6e6">
        <path
           id="path4383"
           stroke-width="0.53028"
           d="m 333.71,428.16 c 1.4824,0 2.6875,1.9899 2.6875,4.4375 0,2.4476 -1.2051,4.4375 -2.6875,4.4375 -0.29749,0 -0.57631,-0.13373 -0.84375,-0.28125 -0.36276,-0.009 -0.75,-0.007 -0.75,-0.0312 v -0.59375 c -0.65838,-0.80765 -1.0938,-2.073 -1.0938,-3.5312 0,-1.4583 0.43537,-2.7548 1.0938,-3.5625 v -0.6875 c 0,-0.0323 0.43927,-0.0625 1,-0.0625 0.19385,-0.0735 0.3864,-0.125 0.59375,-0.125 z" />
        <path
           id="path4437"
           d="m 127.92,301.3 c 0,2.4394 -1.3447,4.417 -3.0035,4.417 -1.6588,0 -3.0035,-1.9776 -3.0035,-4.417 0,-2.4394 1.3447,-4.417 3.0035,-4.417 1.6588,0 3.0035,1.9775 3.0035,4.417 z"
           stroke-width="0.56"
           transform="matrix(-0.89367,0,0,1.0034,443.83,130.27)" />
      </g>
      <path
         id="path4381"
         stroke-linejoin="round"
         d="m 127.21,308.02 c 0,1.2685 -1.5029,2.2968 -3.3569,2.2968 -1.854,0 -3.3569,-1.0283 -3.3569,-2.2968 0,-1.2685 1.5029,-2.2968 3.3569,-2.2968 1.854,0 3.3569,1.0283 3.3569,2.2968 z"
         transform="translate(214.51,132.29)"
         stroke="#000304"
         stroke-linecap="round"
         stroke-width="0.56"
         fill="#e6e6e6" />
    </g>
    <g
       id="g4819"
       transform="matrix(0.97649,0,0,0.97649,1.1837,157.81)">
      <rect
         id="rect4607"
         stroke-linejoin="round"
         rx="1.2575999"
         ry="5.1252999"
         height="9.3596001"
         width="24.631001"
         stroke="#000004"
         stroke-linecap="round"
         y="323.79001"
         x="271.92001"
         stroke-width="0.9"
         fill="#ececec" />
      <path
         id="path4704"
         d="m 274.44,325.2 c -1.9266,0 -3.5,1.3812 -3.5,3.0938 0,1.7125 1.5734,3.0938 3.5,3.0938 0.45741,0 0.88098,-0.0765 1.2812,-0.21875 1.112,-0.3025 0.94131,-1.1173 0.99836,-2.8446 0.0623,-1.8877 0.13686,-1.8129 -0.35362,-2.6143 -0.41734,-0.15691 -1.4444,-0.50987 -1.926,-0.50987 z"
         fill-opacity="0.60317"
         stroke="#010000"
         stroke-width="0.4"
         fill="#b3b3b3" />
      <rect
         id="rect4609"
         stroke-linejoin="round"
         transform="matrix(1.4588,0,0,0.98556,-108.43,-16.459)"
         rx="0"
         ry="0"
         height="8.8669996"
         filter="url(#filter4656)"
         width="7.3892002"
         stroke="#000004"
         stroke-linecap="round"
         y="344.97"
         x="267"
         stroke-width="0.9"
         fill="#f9f9f9" />
    </g>
    <path
       id="path4690"
       d="m 396.65,707.59 23.577,-75.421 c 0.96995,0.56824 2.0638,0.52267 1.6997,1.7353 -3.6513,14.279 -16.218,50.876 -23.03,74.53 -1.7764,2.5894 -2.6183,0.89574 -2.2471,-0.8444 z"
       fill-opacity="0.98942"
       stroke="#000000"
       stroke-width="0.55673"
       fill="#dbe3e2" />
    <path
       id="path4692"
       d="m 412.37,723.31 36.363,-93.365 c 1.496,0.70347 2.0159,0.64704 1.4544,2.1482 -5.6313,17.676 -25.013,62.591 -35.518,91.873 -2.7397,3.2055 -2.8711,1.4979 -2.2986,-0.65626 z"
       fill-opacity="0.98942"
       stroke="#000000"
       stroke-width="0.76926"
       fill="#dbe3e2" />
    <path
       id="path4694"
       d="m 424.14,632.76 11.404,90.404 c 1.1018,-1.2338 1.5792,-1.4252 1.5792,-1.4252 l -10.781,-88.872 c -1.1865,-2.4598 -2.1647,-1.7943 -2.202,-0.10686 z"
       fill-opacity="0.98942"
       stroke="#000000"
       stroke-width="0.72605"
       fill="#dbe3e2" />
    <path
       id="path4696"
       d="m 450.65,704.52 5.3351,-71.309 c -0.62269,-3.6722 -2.2955,-1.0692 -2.533,0 l -5.898,75.199 c -0.97362,3.713 2.0367,0.68578 3.0959,-3.8898 z"
       stroke="#000000"
       stroke-width="0.91732"
       fill="#dbe3e2" />
    <path
       id="path4698"
       d="m 456.66,629.15 9.0899,18.084 c -0.0734,-2.2211 -1.3202,-2.2338 0.19991,-3.1381 l -7.8926,-16.054 c -1.9792,-0.90505 -1.371,-0.36358 -1.3972,1.1087 z"
       fill-opacity="0.98942"
       stroke="#000000"
       stroke-width="0.81616"
       fill="#dbe3e2" />
    <path
       id="path4700"
       d="m 458.6,677.46 -31.066,-47.767 c 0.43812,-2.9986 1.6151,-3.6673 1.7822,-2.7943 l 31.462,49.941 c 0.68503,3.0319 -1.433,4.357 -2.1783,0.62076 z"
       stroke="#000000"
       stroke-width="0.69532"
       fill="#dbdee3" />
    <g
       id="g4704"
       transform="matrix(0.97649,0,0,0.97649,4.9004,156.8)">
      <path
         id="path3972"
         fill="#333333"
         d="m 188.96,451.7 c -18.435,0 -33.381,28.557 -33.381,63.795 0,35.238 14.946,63.81 33.381,63.81 18.435,0 33.381,-28.572 33.381,-63.81 0,-35.238 -14.946,-63.795 -33.381,-63.795 z m -4.7233,6.7671 c 14.356,0 25.993,25.532 25.993,57.028 0,31.496 -11.637,57.028 -25.993,57.028 -14.356,0 -25.993,-25.532 -25.993,-57.028 0,-31.496 11.637,-57.028 25.993,-57.028 z" />
      <path
         id="path4667"
         stroke-linejoin="round"
         d="m 81.455,513.8 c 0,4.7354 -1.4395,8.5742 -3.2153,8.5742 -1.7758,0 -3.2153,-3.8388 -3.2153,-8.5742 0,-4.7354 1.4395,-8.5742 3.2153,-8.5742 1.7758,0 3.2153,3.8388 3.2153,8.5742 z"
         transform="translate(117.09,0.012992)"
         stroke="#010000"
         stroke-linecap="round"
         stroke-width="0.8"
         fill="#cccccc" />
      <path
         id="path4755"
         d="m 197.17,521.38 -0.0332,44.747 c -0.32205,2.1095 -1.1872,0.61418 -1.31,0 l 0.0762,-44.895 c -0.0858,-1.381 1.0534,-1.8954 1.267,0.14812 z"
         stroke="#000000"
         stroke-width="0.5"
         fill="#dbe3e2" />
      <path
         id="path4779"
         d="m 195.37,463.58 2.5668,45.947 c -0.32205,2.1095 -1.1872,0.61418 -1.31,0 l -2.7238,-45.895 c 0.42347,-0.85619 1.467,-0.0519 1.467,-0.0519 z"
         stroke="#000000"
         stroke-width="0.5"
         fill="#dbe3e2" />
      <path
         id="path4783"
         d="m 198.44,512.18 8.7691,-21.215 c -0.32205,-2.1095 -0.5872,-2.0142 -0.71004,-1.4 l -9.6603,22.178 c -0.50355,2.1329 1.0534,3.065 1.6012,0.43668 z"
         stroke="#000000"
         stroke-width="0.5"
         fill="#dbe3e2" />
      <g
         id="g4767"
         transform="translate(47.6,4.8)">
        <g
           id="g4757"
           stroke="#010000"
           transform="matrix(0.48444,0,0,0.48444,-158.85,367.33)"
           fill="#ececec">
          <path
             id="path4759"
             d="m 610.96,178.54 c -29.635,0 -53.656,52.703 -53.656,117.72 0,65.015 24.021,117.72 53.656,117.72 29.635,0 53.688,-52.703 53.688,-117.72 0,-65.015 -24.053,-117.72 -53.688,-117.72 z m 10.375,9.2188 c 22.563,0 40.875,48.568 40.875,108.5 0,59.932 -18.312,108.53 -40.875,108.53 -22.563,0 -40.844,-48.599 -40.844,-108.53 0,-59.932 18.281,-108.5 40.844,-108.5 z" />
          <path
             id="path4761"
             d="m 610.96,413.98 c -29.635,0 -53.656,-52.703 -53.656,-117.72 0,-65.015 24.021,-117.72 53.656,-117.72 29.635,0 53.688,52.703 53.688,117.72 0,65.015 -24.053,117.72 -53.688,117.72 z m 10.375,-9.2188 c 22.563,0 40.875,-48.568 40.875,-108.5 0,-59.932 -18.312,-108.53 -40.875,-108.53 -22.563,0 -40.844,48.599 -40.844,108.53 0,59.932 18.281,108.5 40.844,108.5 z" />
        </g>
        <g
           id="g3982"
           transform="matrix(0.48444,0,0,0.48444,-158.85,367.33)">
          <path
             id="path3984"
             fill="url(#linearGradient3796)"
             d="m 610.96,178.54 c -29.635,0 -53.656,52.703 -53.656,117.72 0,65.015 24.021,117.72 53.656,117.72 29.635,0 53.688,-52.703 53.688,-117.72 0,-65.015 -24.053,-117.72 -53.688,-117.72 z m 10.375,9.2188 c 22.563,0 40.875,48.568 40.875,108.5 0,59.932 -18.312,108.53 -40.875,108.53 -22.563,0 -40.844,-48.599 -40.844,-108.53 0,-59.932 18.281,-108.5 40.844,-108.5 z"
             style="fill:url(#linearGradient3796)" />
          <path
             id="path3986"
             d="m 610.96,413.98 c -29.635,0 -53.656,-52.703 -53.656,-117.72 0,-65.015 24.021,-117.72 53.656,-117.72 29.635,0 53.688,52.703 53.688,117.72 0,65.015 -24.053,117.72 -53.688,117.72 z m 10.375,-9.2188 c 22.563,0 40.875,-48.568 40.875,-108.5 0,-59.932 -18.312,-108.53 -40.875,-108.53 -22.563,0 -40.844,48.599 -40.844,108.53 0,59.932 18.281,108.5 40.844,108.5 z"
             fill="url(#linearGradient3798)"
             style="fill:url(#linearGradient3798)" />
        </g>
      </g>
      <path
         id="path4741"
         d="m 193.1,513.72 -27.421,26.337 c -0.18639,0.93172 0.24172,0.67103 0.86307,0.5848 l 27.2,-25.92 c 0.57584,-0.70349 0.22331,-1.6787 -0.64643,-1.0025 z"
         stroke="#000000"
         stroke-width="0.384"
         fill="#dbdee3" />
      <path
         id="path4737"
         d="m 163.84,509.99 c -0.36367,0.002 -1.0036,-0.79838 -0.0846,-1.5187 l 30.175,0.4834 c 0.18463,0.62792 0.55403,0.73664 -0.0985,1.2017 -9.998,-0.0727 -19.996,-0.16637 -29.992,-0.16637 z"
         fill-opacity="0.98942"
         stroke="#000000"
         stroke-width="0.36791"
         fill="#dbe3e2" />
      <g
         id="g4698"
         stroke="#010000"
         stroke-width="0.72308"
         transform="translate(92.122,-23.879)">
        <rect
           id="rect4694"
           rx="1.2575999"
           ry="5.1252999"
           height="10.251"
           width="18.025999"
           y="532.56"
           x="85.641998"
           fill="#e6e6e6" />
        <rect
           id="rect4639"
           rx="1.2575999"
           ry="5.1252999"
           height="10.251"
           width="18.025999"
           y="532.56"
           x="85.641998"
           fill="url(#linearGradient4741)"
           style="fill:url(#linearGradient259)" />
      </g>
      <path
         id="path4785"
         d="m 180.42,512.99 c -0.34964,0.002 -0.96485,-0.80145 -0.0813,-1.5246 l 29.01,0.48526 c 0.17751,0.63033 0.53265,0.73947 -0.0947,1.2063 -9.612,-0.073 -19.224,-0.16701 -28.834,-0.16701 z"
         fill-opacity="0.98942"
         stroke="#000000"
         stroke-width="0.36144"
         fill="#dbe3e2" />
      <path
         id="path4725"
         d="m 194.85,506.56 -22.325,-34.022 c 0.31486,-2.0178 1.1607,-0.58749 1.2808,0 l 22.61,33.605 c 0.4923,2.0402 -1.0298,2.9318 -1.5654,0.4177 z"
         stroke="#000000"
         stroke-width="0.48352"
         fill="#dbdee3" />
      <path
         id="path4735"
         d="m 166.88,488.88 c -0.36367,0.002 -0.66942,0.28767 -0.66942,1.0711 l 10.041,19.949 c 1.5213,0.795 1.3894,0.15184 1.0711,-0.80331 l -9.7735,-19.547 c 0.0237,-0.86559 0.0908,-0.66942 -0.66942,-0.66942 z"
         fill-opacity="0.98942"
         stroke="#000000"
         stroke-width="0.36791"
         fill="#dbe3e2" />
      <path
         id="path4723"
         d="m 179.04,507.38 7.5691,-45.415 c -0.32205,-2.1095 -1.1872,-0.61418 -1.31,0 l -7.8603,44.978 c -0.50355,2.1329 1.0534,3.065 1.6012,0.43668 z"
         stroke="#000000"
         stroke-width="0.5"
         fill="#dbe3e2" />
      <path
         id="path4739"
         d="m 164.07,524 11.371,-11.265 c 0.52136,0.27726 0.77516,0.4221 0.57945,1.0138 -3.4653,3.3446 -7.2085,7.5143 -11.578,11.499 -0.45093,0.20424 -1.1329,-0.94247 -0.37237,-1.2474 z"
         fill-opacity="0.98942"
         stroke="#000000"
         stroke-width="0.28511"
         fill="#dbe3e2" />
      <path
         id="path4743"
         d="m 169.75,553.57 6.6087,-35.66 c 0.52136,0.27726 1.1093,0.25502 0.91362,0.84667 -1.1261,6.0179 -4.5351,25.392 -6.3145,35.225 -0.95481,1.2634 -1.4074,0.43705 -1.2078,-0.41199 z"
         fill-opacity="0.98942"
         stroke="#000000"
         stroke-width="0.28511"
         fill="#dbe3e2" />
      <path
         id="path4781"
         d="m 181.29,510.52 19.936,-37.539 c -0.29766,-1.9497 -1.2822,-1.1222 -1.3957,-0.55456 l -20.02,37.69 c -0.46541,1.9714 0.9736,2.8329 1.4799,0.40361 z"
         stroke="#000000"
         stroke-width="0.46214"
         fill="#dbe3e2" />
      <path
         id="path4745"
         d="m 193.01,520.13 -16.759,44.997 c 0.15497,0.85634 0.76949,1.0319 1.31,0.41771 l 16.632,-45.062 c 0.002,-0.87974 -0.46858,-1.3107 -1.1834,-0.35314 z"
         stroke="#000000"
         stroke-width="0.4"
         fill="#dbe3e2" />
      <path
         id="path4747"
         d="m 179.37,522.3 8.1539,46.752 c -0.32205,2.1095 -1.1872,0.61418 -1.31,0 l -8.1109,-46.9 c -0.50355,-2.1329 0.7192,-2.4802 1.267,0.14812 z"
         stroke="#000000"
         stroke-width="0.5"
         fill="#dbe3e2" />
      <path
         id="path4665"
         stroke-linejoin="round"
         d="m 81.455,513.8 c 0,4.7354 -1.4395,8.5742 -3.2153,8.5742 -1.7758,0 -3.2153,-3.8388 -3.2153,-8.5742 0,-4.7354 1.4395,-8.5742 3.2153,-8.5742 1.7758,0 3.2153,3.8388 3.2153,8.5742 z"
         transform="translate(99.94,0.012992)"
         stroke="#010000"
         stroke-linecap="round"
         stroke-width="0.8"
         fill="#cccccc" />
      <path
         id="path4709"
         d="m 178.12,516.28 c 0.58289,-1.2163 0.65167,-3.3766 -0.0323,-4.8757 -3.4458,-0.26613 -5.4425,-0.11232 -5.4645,2.5301 0.2638,3.2625 1.9634,2.1536 5.4968,2.3456 z"
         stroke="#000000"
         stroke-width="0.29486"
         fill="#cccccc" />
      <path
         id="path4048"
         d="m 197.28,516.48 c -0.36367,0.002 -0.66942,0.28767 -0.66942,1.0711 l 10.785,20.692 c 0.0344,-1.0636 0.646,-0.59161 0.32763,-1.5468 l -9.7735,-19.547 c 0.0237,-0.86559 0.0908,-0.66942 -0.66942,-0.66942 z"
         fill-opacity="0.98942"
         stroke="#000000"
         stroke-width="0.36791"
         fill="#dbe3e2" />
      <path
         id="path4050"
         d="m 180.59,520.58 19.314,39.006 c 0.17083,-0.43755 -0.32293,-0.10158 0.87014,-0.97878 l -18.832,-38.817 c -0.1641,-2.8812 -1.3317,-0.63887 -1.3523,0.78938 z"
         fill-opacity="0.98942"
         stroke="#000000"
         stroke-width="0.512"
         fill="#dbe3e2" />
      <path
         id="path4702"
         d="m 209.03,526.76 -27.558,-9.4673 c -0.70133,-1.3329 0.11006,-1.7057 0.11006,-1.7057 l 27.54,9.8808 c -0.0902,0.98253 0.4085,1.4039 -0.27706,0.36286 z"
         stroke="#000000"
         stroke-width="0.47009"
         fill="#dbdee3" />
    </g>
    <g
       id="g4162"
       stroke="#000000"
       stroke-width="1px"
       transform="matrix(0.97649,0,0,0.97649,1.1837,157.81)"
       fill="#dbe2e3">
      <path
         id="path4826"
         d="m 402.6,247.77 c 0.29663,-1.8174 -0.58832,-3.805 -1.6586,-5.1027 -2.2858,-1.5733 -7.9016,-2.778 -13.912,-0.81456 -6.0824,2.0164 -7.3705,3.4085 -10.469,7.5591 -0.36634,1.573 -0.11214,2.6015 0.62736,4.1363 3.8016,3.3821 10.293,1.7439 13.813,1.0716 4.7058,-1.8205 8.018,-1.5824 11.599,-6.8498 z" />
      <path
         id="path4831"
         d="m 376.46,250.67 -1.956,-7.6887 c 1.9589,-2.2473 3.8688,-4.848 10.758,-6.846 6.53,-1.8938 13.625,-1.4447 14.914,0.489 l 1.7115,6.1125 c -6.2652,-4.604 -23.879,-0.077 -25.428,7.9332 z" />
    </g>
    <path
       id="path3250"
       opacity="0.66"
       d="m 464.33,376.8 c 2.4853,7.4349 8.6398,15.739 11.051,24.54 5.4495,16.74 9.9563,28.041 11.944,43.037 1.2758,10.619 3.7451,22.224 3.2691,33.004 0.67046,11.537 -1.079,20.923 -1.9868,33.075 0.84225,7.8692 -1.301,14.516 3.0978,14.091 3.5756,-9.6091 4.6286,-15.966 6.1329,-22.526 1.4213,-11.713 0.7518,-19.079 0.96801,-28.075 -0.23514,-7.2122 -0.46636,-18.728 -1.2667,-26.768 -1.9257,-9.4685 -4.2622,-16.309 -7.116,-28.412 -3.8395,-16.785 -7.391,-19.007 -13.941,-32.974 -4.4687,-6.1257 -7.5834,-9.8756 -16.367,-15.171"
       transform="matrix(0.97649,0,0,0.97649,1.1837,157.81)"
       filter="url(#filter4035)"
       stroke="#000000"
       stroke-width="1px"
       fill="#fbfbfe" />
    <path
       id="path4039"
       opacity="0.66"
       d="m 223.37,384.51 c 2.4853,7.4349 9.4304,13.367 11.841,22.168 5.4495,16.74 9.9563,28.041 11.944,43.037 1.2758,10.619 2.1639,22.224 6.4314,33.795 0.67046,11.537 2.874,23.295 5.1284,32.284 0.84225,7.8692 -0.51044,14.516 3.8884,14.091 3.5756,-9.6091 4.6286,-16.756 6.1329,-23.316 -2.5316,-12.503 -0.82935,-19.87 -2.9849,-27.285 -0.23514,-7.2122 -2.0475,-18.728 -2.8479,-26.768 -1.9257,-9.4685 -5.8434,-19.471 -10.278,-29.202 -7.7924,-16.785 -9.7627,-18.217 -16.312,-32.183 -4.4687,-6.1257 -13.118,-20.153 -33.759,-29.402"
       transform="matrix(0.34695,0,0,0.34695,126.86,475.38)"
       filter="url(#filter4035)"
       stroke="#000000"
       stroke-width="1px"
       fill="#fbfbfe" />
    <g
       id="g4106"
       transform="matrix(0.97649,0,0,0.97649,-85.493,166.86)">
      <path
         id="path4824"
         d="m 487.15,236.55 c -5.9835,-3.6908 -14.78,-1.5804 -18.093,4.401 l 20.538,75.061 c 1.7549,-2.3999 3.643,-4.0844 8.2848,-4.6173 3.6787,-0.42236 10.053,-0.58364 10.053,1.1944 z"
         stroke="#000000"
         stroke-width="1px"
         fill="#d40000" />
      <path
         id="path4051"
         d="m 487.43,235.99 c -4.0172,-5.3762 -15.341,-2.1422 -18.093,4.401 l 20.538,75.061 c 2.3167,-3.2426 3.6618,-4.2212 8.2848,-4.6173 4.8358,-0.41434 10.053,-0.58364 10.053,1.1944 z"
         fill="url(#linearGradient4111)"
         style="fill:url(#linearGradient4111)" />
      <path
         id="path4064"
         d="m 486.87,235.99 c -5.9835,-2.2864 -13.656,0.10497 -18.093,4.401 l 20.538,75.061 c 2.3167,-3.2426 3.6618,-4.2212 8.2848,-4.6173 4.8358,-0.41434 10.053,-0.58364 10.053,1.1944 z"
         fill="url(#linearGradient4113)"
         style="fill:url(#linearGradient4113)" />
    </g>
    <g
       id="g4215"
       transform="matrix(0.70672,0,0,0.70672,-18.038,322.43)">
      <g
         id="g4166"
         fill="#aa0000">
        <path
           id="path3262"
           stroke="#000000"
           stroke-width="1px"
           d="m 642.06,-66.685 c -4.9138,-0.70958 -10.106,-1.7444 -12.698,0.39682 -7.6885,6.3492 -5.3563,15.279 0.79365,18.651 1.1138,0.61071 3.1445,0.76355 3.9682,1.5873 0.32126,0.32125 2.6699,0 3.1746,0 9.4037,0 15.867,-13.972 4.7619,-20.635 z" />
        <path
           id="path3260"
           stroke-linejoin="round"
           d="m 678.17,-55.376 c 0,8.2185 -6.6624,14.881 -14.881,14.881 -8.2185,0 -14.881,-6.6624 -14.881,-14.881 0,-8.2185 6.6624,-14.881 14.881,-14.881 8.2185,0 14.881,6.6624 14.881,14.881 z"
           transform="matrix(1.0256,0,0,1.1056,-29.142,7.4929)"
           stroke="#000004"
           stroke-linecap="round"
           stroke-width="0.512" />
      </g>
      <path
         id="path3256"
         d="m 400.78,-57.735 7.7924,0.39683 c 13.736,1.2694 17.031,1.5984 33.13,3.5005 20.622,4.2324 26.76,9.5193 34.644,30.277 2.6007,6.8477 9.9989,51.155 19.919,62.61 3.0039,3.4687 11.186,6.5656 16.239,7.6506 7.9915,1.7159 22.9,0.95863 29.88,1.4432 5.6747,0.39395 38.155,-1.1299 48.717,-3.8974 14.151,-3.7563 17.313,-11.483 27.931,-24.034 16.829,-20.095 23.595,-27.689 39.623,-48.717 8.224,-12.121 5.7796,-29.425 -2.5982,-29.23 -4.9101,0.11416 -8.8393,2.1499 -8.4019,7.1108 0.93262,10.577 -3.7366,11.566 -9.1362,20.82 -12.28,16.413 -16.67,22.639 -23.02,30.642 -19.3,21.587 -22.65,32.766 -51.02,32.369 -11.936,-0.16694 -32.32,1.4567 -45.469,-0.64956 -20.717,-1.4174 -21.153,-59.522 -33.777,-79.896 -10.006,-12.695 -24.398,-19.273 -38.324,-21.435 -13.841,-2.6932 -36.806,-4.3956 -43.748,-5.5097 -2.5904,4.4414 -4.1687,11.654 -2.3706,16.552 z"
         stroke="#000000"
         stroke-width="1px"
         fill="#dbdbe3" />
      <path
         id="path3258"
         stroke-linejoin="round"
         d="m 410.32,-67.876 c 0,10.301 -2.0432,18.651 -4.5635,18.651 -2.5204,0 -4.5635,-8.3502 -4.5635,-18.651 0,-10.3008 2.0432,-18.651 4.5635,-18.651 2.5203,0 4.5635,8.3502 4.5635,18.651 z"
         transform="matrix(1.1093,0.112,-0.12512,0.99293,-58.581,-45.131)"
         stroke="#000004"
         stroke-linecap="round"
         stroke-width="0.512"
         fill="#aa0000" />
      <path
         id="path3277"
         d="m 396.43,-77.4 c -16.371,-3.1998 -24.812,-4.7101 -36.094,-5.8316 -12.549,-1.386 -23.225,0.65087 -30.205,2.0485 -1.286,0.09747 -0.0873,-2.0153 -1.7038,-3.3552 -1.8606,-0.3962 -1.5453,-0.18694 -4.1731,-0.40737 -2.4042,4.1907 -3.1512,6.9808 -3.4895,10.039 -0.3645,4.7819 -0.78955,9.2085 0.53708,13.72 1.3394,0.01087 3.1233,0.91406 4.5105,0.62988 1.3872,-0.28418 0.99352,-2.1017 2.13,-2.688 2.8548,-0.98266 6.0152,2.5599 8.837,2.6342 7.9669,2.1284 16.231,2.7806 24.406,3.6328 9.8626,0.83969 19.774,0.65958 29.659,0.52554 1.7775,-0.17701 4.6141,0.33219 3.0396,-2.2079 -0.69725,-2.9858 0.73708,-5.8132 0.76087,-8.7759 0.50917,-3.3363 1.7175,-6.5637 1.7851,-9.9642 z"
         stroke="#000000"
         stroke-width="1px"
         fill="#aa0000" />
      <path
         id="path4170"
         d="m 403.65,-57.455 c -0.0828,-7.0797 9.2213,-2.8407 14.394,-3.2731 6.2086,0.60978 11.128,0.84136 17.302,1.4738 5.4341,0.52609 10.948,1.6831 18.431,3.1187 15.342,6.9787 18.611,13.949 23.314,25.343 3.8553,16.632 8.6135,33.053 12.86,49.593 1.181,5.8327 3.7556,10.617 6.9222,15.608 3.5757,4.8609 10.066,8.9833 19.116,10.207 6.6861,0.70197 12.158,0.9844 19.655,0.42559 10.346,0.14521 20.506,-0.15265 30.334,0.70013 4.9919,1.2547 8.7227,0.8107 1.9742,1.0235 -15.498,0.26044 -31.015,0.88203 -46.501,0.9169 -9.2656,-1.4206 -19.866,-2.2824 -26.641,-9.5395 -3.4218,-6.004 -6.1968,-12.363 -7.7068,-19.128 -3.8455,-14.303 -7.2344,-29.518 -11.08,-43.821 -2.9042,-8.7959 -5.5742,-13.625 -10.731,-19.406 -7.0126,-4.5438 -11.477,-7.7471 -20.643,-9.0558 -6.6713,-1.0831 -12.824,-1.7107 -19.974,-2.6437 -6.7896,-0.50942 -14.024,-1.4044 -21.027,-1.5425 z"
         fill="url(#linearGradient4184)"
         style="fill:url(#linearGradient4184)" />
      <path
         id="path4173"
         fill="#ffffff"
         d="m 656.62,-57.227 c 3.7644,0.83619 5.5656,5.2312 5.8376,8.3224 0.94884,4.0699 0.65333,8.1155 0.0984,11.541 -2.1178,5.5528 -4.3697,9.5853 -7.3186,13.031 -2.6602,3.5563 -5.5277,7.5471 -8.7593,10.427 -2.6635,3.5759 -4.9411,6.6017 -8.0794,10.58 -2.7173,2.312 -4.2487,5.0837 -6.4597,7.8285 -0.73288,0.61704 -4.7843,3.9795 -2.4807,2.2046 2.9025,-5.0441 6.4915,-9.6506 9.5646,-14.574 3.0283,-4.1455 6.483,-7.3219 9.1218,-11.117 2.4769,-3.1166 5.1936,-6.2503 8.088,-10.247 2.2032,-3.3577 4.2844,-7.139 4.4674,-13.618 -0.24095,-5.6853 -2.3037,-9.7242 -4.0802,-14.377 z" />
      <path
         id="path4186"
         fill="#f9f9f9"
         d="m 405.94,-74.122 c 15.068,1.9787 30.137,3.9574 45.205,5.9361 10.899,2.5225 22.211,8.3551 29.385,15.647 5.9593,5.4009 7.5208,10.606 9.9623,18.054 1.9352,5.745 3.1721,11.943 4.7782,17.101 1.5607,6.3746 2.1356,10.331 3.2947,15.32 1.1611,5.2262 2.1355,9.2365 4.1709,14.239 1.0953,3.6763 2.5974,7.0446 4.8967,11.82 -8.77,-6.8875 -10.346,-22.831 -13.66,-32.974 -1.775,-7.6295 -4.2849,-16.361 -6.598,-23.875 -2.5728,-5.8841 -3.8669,-12.539 -8.5229,-17.35 -4.9066,-5.4847 -9.6465,-8.5958 -18.408,-11.883 -6.794,-2.5078 -12.699,-4.0706 -19.389,-5.594 -5.1494,-0.92923 -9.5592,-2 -16.163,-3.6684 -6.2732,-1.202 -12.604,-2.0832 -18.953,-2.7742 z" />
      <path
         id="path4191"
         fill="url(#linearGradient4199)"
         d="m 326.99,-62.171 c 3.6382,-0.97886 2.3282,-18.245 3.4602,-19.377 0.19471,-0.19471 5.133,-0.11453 5.1903,0 1.403,2.806 -3.4652,13.144 -0.69204,15.917 1.178,1.1781 4.1522,5.519 4.1522,5.8824 0,1.7276 -7.6108,-5.1221 -12.111,-2.4221 z"
         style="fill:url(#linearGradient4199)" />
    </g>
    <g
       id="g4153"
       transform="matrix(0.97649,0,0,0.97649,2.0066,158.08)">
      <path
         id="path4833"
         d="m 378.34,238.26 c 4.9287,-2.8615 9.3729,-3.4998 15.159,-3.912 l -8.802,-32.763 c -4.1882,-5.9985 -14.425,-3.5396 -14.425,3.6675 z"
         stroke="#000000"
         stroke-width="1px"
         fill="#dbdee3" />
      <path
         id="path4123"
         d="m 378.62,238.82 c 4.9287,-2.8615 9.3729,-3.4998 15.159,-3.912 l -8.802,-32.763 c -4.1882,-5.9985 -14.425,-3.5396 -14.425,3.6675 z"
         fill="url(#linearGradient4158)"
         style="fill:url(#linearGradient4158)" />
      <path
         id="path4141"
         d="m 378.06,238.82 c 4.9287,-2.8615 9.3729,-3.4998 15.159,-3.912 l -8.802,-32.763 c -4.1882,-5.9985 -14.425,-3.5396 -14.425,3.6675 z"
         fill="url(#linearGradient4160)"
         style="fill:url(#linearGradient4160)" />
    </g>
  </g>
  <metadata
     id="metadata244">
    <rdf:RDF>
      <cc:Work>
        <dc:format>image/svg+xml</dc:format>
        <dc:type
           rdf:resource="http://purl.org/dc/dcmitype/StillImage" />
        <cc:license
           rdf:resource="http://creativecommons.org/publicdomain/zero/1.0/" />
        <dc:publisher>
          <cc:Agent
             rdf:about="http://openclipart.org/">
            <dc:title>Openclipart</dc:title>
          </cc:Agent>
        </dc:publisher>
        <dc:title>tricycle - final</dc:title>
        <dc:date>2013-09-22T13:13:11</dc:date>
        <dc:description>tricycle</dc:description>
        <dc:source>https://openclipart.org/detail/183658/tricycle---final-by-polylingua-183658</dc:source>
        <dc:creator>
          <cc:Agent>
            <dc:title>PolyLingua</dc:title>
          </cc:Agent>
        </dc:creator>
        <dc:subject>
          <rdf:Bag>
            <rdf:li>bicycle</rdf:li>
            <rdf:li>children</rdf:li>
            <rdf:li>cycle</rdf:li>
            <rdf:li>dreirad</rdf:li>
            <rdf:li>fahrzeug</rdf:li>
            <rdf:li>kinder</rdf:li>
            <rdf:li>play</rdf:li>
            <rdf:li>spiel</rdf:li>
            <rdf:li>tricycle</rdf:li>
          </rdf:Bag>
        </dc:subject>
      </cc:Work>
      <cc:License
         rdf:about="http://creativecommons.org/publicdomain/zero/1.0/">
        <cc:permits
           rdf:resource="http://creativecommons.org/ns#Reproduction" />
        <cc:permits
           rdf:resource="http://creativecommons.org/ns#Distribution" />
        <cc:permits
           rdf:resource="http://creativecommons.org/ns#DerivativeWorks" />
      </cc:License>
    </rdf:RDF>
  </metadata>
</svg>
