<?xml version="1.0" encoding="UTF-8" standalone="no"?>
<svg
   xmlns:dc="http://purl.org/dc/elements/1.1/"
   xmlns:cc="http://creativecommons.org/ns#"
   xmlns:rdf="http://www.w3.org/1999/02/22-rdf-syntax-ns#"
   xmlns:svg="http://www.w3.org/2000/svg"
   xmlns="http://www.w3.org/2000/svg"
   xmlns:xlink="http://www.w3.org/1999/xlink"
   xmlns:sodipodi="http://sodipodi.sourceforge.net/DTD/sodipodi-0.dtd"
   xmlns:inkscape="http://www.inkscape.org/namespaces/inkscape"
   version="1.1"
   viewBox="0 0 456.77784 300.43928"
   id="svg397"
   sodipodi:docname="vibraphone.svg"
   inkscape:version="1.0.2-2 (e86c870879, 2021-01-15)"
   width="120.8558mm"
   height="79.491226mm">
  <metadata
     id="metadata401">
    <rdf:RDF>
      <cc:Work
         rdf:about="">
        <dc:format>image/svg+xml</dc:format>
        <dc:type
           rdf:resource="http://purl.org/dc/dcmitype/StillImage" />
        <dc:title />
      </cc:Work>
    </rdf:RDF>
  </metadata>
  <sodipodi:namedview
     pagecolor="#ffffff"
     bordercolor="#666666"
     borderopacity="1"
     objecttolerance="10"
     gridtolerance="10"
     guidetolerance="10"
     inkscape:pageopacity="0"
     inkscape:pageshadow="2"
     inkscape:window-width="1920"
     inkscape:window-height="1017"
     id="namedview399"
     showgrid="false"
     inkscape:zoom="1.535011"
     inkscape:cx="256.99413"
     inkscape:cy="165.06291"
     inkscape:window-x="-8"
     inkscape:window-y="-8"
     inkscape:window-maximized="1"
     inkscape:current-layer="g395"
     fit-margin-top="0"
     fit-margin-left="0"
     fit-margin-right="0"
     fit-margin-bottom="0"
     inkscape:document-rotation="0"
     units="mm" />
  <defs
     id="defs35">
    <linearGradient
       id="a">
      <stop
         stop-opacity="0"
         offset="0"
         id="stop2" />
      <stop
         offset=".057343"
         id="stop4" />
      <stop
         stop-color="#fff"
         offset=".3"
         id="stop6" />
      <stop
         offset=".57511"
         id="stop8" />
      <stop
         stop-opacity="0"
         offset="1"
         id="stop10" />
    </linearGradient>
    <linearGradient
       id="x"
       x1="111.19"
       x2="121.29"
       y1="580.16998"
       y2="580.16998"
       gradientTransform="matrix(0.98368,0,0,0.98368,-213.06,-194.31)"
       gradientUnits="userSpaceOnUse"
       spreadMethod="reflect"
       xlink:href="#a" />
    <linearGradient
       id="y"
       x1="120.43"
       x2="130.64"
       y1="581.85999"
       y2="581.85999"
       gradientTransform="translate(-214.96,-203.65)"
       gradientUnits="userSpaceOnUse"
       xlink:href="#a" />
    <linearGradient
       id="z"
       x1="130.17999"
       x2="140.78"
       y1="583.38"
       y2="583.38"
       gradientTransform="translate(-214.96,-203.65)"
       gradientUnits="userSpaceOnUse"
       xlink:href="#a" />
    <linearGradient
       id="aa"
       x1="149.96001"
       x2="160.72"
       y1="587.96997"
       y2="587.96997"
       gradientTransform="translate(-214.96,-203.65)"
       gradientUnits="userSpaceOnUse"
       xlink:href="#a" />
    <linearGradient
       id="ab"
       x1="160.12"
       x2="171.25"
       y1="590.32001"
       y2="590.32001"
       gradientTransform="translate(-214.96,-203.65)"
       gradientUnits="userSpaceOnUse"
       xlink:href="#a" />
    <linearGradient
       id="ac"
       x1="180.84"
       x2="191.97"
       y1="595.59003"
       y2="595.59003"
       gradientTransform="translate(-214.96,-203.65)"
       gradientUnits="userSpaceOnUse"
       xlink:href="#a" />
    <linearGradient
       id="ad"
       x1="191.17999"
       x2="202.60001"
       y1="597.96997"
       y2="597.96997"
       gradientTransform="translate(-214.96,-203.65)"
       gradientUnits="userSpaceOnUse"
       xlink:href="#a" />
    <linearGradient
       id="ae"
       x1="201.49001"
       x2="213.41"
       y1="600.81"
       y2="600.81"
       gradientTransform="translate(-214.96,-203.65)"
       gradientUnits="userSpaceOnUse"
       xlink:href="#a" />
    <linearGradient
       id="af"
       x1="222.64"
       x2="235.00999"
       y1="607.16998"
       y2="607.16998"
       gradientTransform="translate(-214.96,-203.65)"
       gradientUnits="userSpaceOnUse"
       xlink:href="#a" />
    <linearGradient
       id="ag"
       x1="234.47"
       x2="246.81"
       y1="610.60999"
       y2="610.60999"
       gradientTransform="translate(-214.96,-203.65)"
       gradientUnits="userSpaceOnUse"
       xlink:href="#a" />
    <linearGradient
       id="ah"
       x1="257.70001"
       x2="269.95001"
       y1="618.58002"
       y2="618.58002"
       gradientTransform="translate(-214.96,-203.65)"
       gradientUnits="userSpaceOnUse"
       xlink:href="#a" />
    <linearGradient
       id="ai"
       x1="268.98001"
       x2="281.17999"
       y1="622.59998"
       y2="622.59998"
       gradientTransform="translate(-214.96,-203.65)"
       gradientUnits="userSpaceOnUse"
       xlink:href="#a" />
    <linearGradient
       id="aj"
       x1="280.39999"
       x2="293.51001"
       y1="627.02002"
       y2="627.02002"
       gradientTransform="translate(-214.96,-203.65)"
       gradientUnits="userSpaceOnUse"
       xlink:href="#a" />
    <linearGradient
       id="ak"
       x1="306.01001"
       x2="320.07999"
       y1="638.37"
       y2="638.37"
       gradientTransform="translate(-214.96,-203.65)"
       gradientUnits="userSpaceOnUse"
       xlink:href="#a" />
    <linearGradient
       id="al"
       x1="319.35999"
       x2="333.35001"
       y1="644.60999"
       y2="644.60999"
       gradientTransform="translate(-214.96,-203.65)"
       gradientUnits="userSpaceOnUse"
       xlink:href="#a" />
    <linearGradient
       id="am"
       x1="345.64001"
       x2="359.62"
       y1="657.59003"
       y2="657.59003"
       gradientTransform="translate(-214.96,-203.65)"
       gradientUnits="userSpaceOnUse"
       xlink:href="#a" />
    <linearGradient
       id="an"
       x1="359.06"
       x2="372.67001"
       y1="664.38"
       y2="664.38"
       gradientTransform="translate(-214.96,-203.65)"
       gradientUnits="userSpaceOnUse"
       xlink:href="#a" />
    <linearGradient
       id="ao"
       x1="371.85001"
       x2="387.28"
       y1="672.15002"
       y2="672.15002"
       gradientTransform="translate(-214.96,-203.65)"
       gradientUnits="userSpaceOnUse"
       xlink:href="#a" />
    <linearGradient
       id="ap"
       x1="403.06"
       x2="419.60999"
       y1="689.28998"
       y2="689.28998"
       gradientTransform="translate(-214.96,-203.65)"
       gradientUnits="userSpaceOnUse"
       xlink:href="#a" />
    <linearGradient
       id="aq"
       x1="419.01999"
       x2="435.39999"
       y1="699.76001"
       y2="699.76001"
       gradientTransform="translate(-214.96,-203.65)"
       gradientUnits="userSpaceOnUse"
       xlink:href="#a" />
    <linearGradient
       id="ar"
       x1="451.91"
       x2="469.78"
       y1="720.23999"
       y2="720.23999"
       gradientTransform="matrix(0.96444627,0,0,0.96444627,-193.64798,-774.28093)"
       gradientUnits="userSpaceOnUse"
       xlink:href="#a" />
    <linearGradient
       id="b"
       x1="451.91"
       x2="469.78"
       y1="720.23999"
       y2="720.23999"
       gradientTransform="translate(148.85,-34.5)"
       gradientUnits="userSpaceOnUse"
       xlink:href="#a" />
    <linearGradient
       inkscape:collect="always"
       xlink:href="#a"
       id="linearGradient1792"
       gradientUnits="userSpaceOnUse"
       gradientTransform="translate(148.85,-34.5)"
       x1="451.91"
       y1="720.23999"
       x2="469.78"
       y2="720.23999" />
    <linearGradient
       inkscape:collect="always"
       xlink:href="#a"
       id="linearGradient1794"
       gradientUnits="userSpaceOnUse"
       gradientTransform="translate(148.85,-34.5)"
       x1="451.91"
       y1="720.23999"
       x2="469.78"
       y2="720.23999" />
    <linearGradient
       inkscape:collect="always"
       xlink:href="#a"
       id="linearGradient1796"
       gradientUnits="userSpaceOnUse"
       gradientTransform="translate(148.85,-34.5)"
       x1="451.91"
       y1="720.23999"
       x2="469.78"
       y2="720.23999" />
    <linearGradient
       inkscape:collect="always"
       xlink:href="#a"
       id="linearGradient1798"
       gradientUnits="userSpaceOnUse"
       gradientTransform="translate(148.85,-34.5)"
       x1="451.91"
       y1="720.23999"
       x2="469.78"
       y2="720.23999" />
    <linearGradient
       inkscape:collect="always"
       xlink:href="#a"
       id="linearGradient1800"
       gradientUnits="userSpaceOnUse"
       gradientTransform="translate(148.85,-34.5)"
       x1="451.91"
       y1="720.23999"
       x2="469.78"
       y2="720.23999" />
    <linearGradient
       inkscape:collect="always"
       xlink:href="#a"
       id="linearGradient1802"
       gradientUnits="userSpaceOnUse"
       gradientTransform="translate(148.85,-34.5)"
       x1="451.91"
       y1="720.23999"
       x2="469.78"
       y2="720.23999" />
    <linearGradient
       inkscape:collect="always"
       xlink:href="#a"
       id="linearGradient1804"
       gradientUnits="userSpaceOnUse"
       gradientTransform="translate(148.85,-34.5)"
       x1="451.91"
       y1="720.23999"
       x2="469.78"
       y2="720.23999" />
    <linearGradient
       inkscape:collect="always"
       xlink:href="#a"
       id="linearGradient1806"
       gradientUnits="userSpaceOnUse"
       gradientTransform="translate(148.85,-34.5)"
       x1="451.91"
       y1="720.23999"
       x2="469.78"
       y2="720.23999" />
    <linearGradient
       inkscape:collect="always"
       xlink:href="#a"
       id="linearGradient1808"
       gradientUnits="userSpaceOnUse"
       gradientTransform="translate(148.85,-34.5)"
       x1="451.91"
       y1="720.23999"
       x2="469.78"
       y2="720.23999" />
  </defs>
  <g
     transform="translate(134.51716,258.93857)"
     id="g395"
     inkscape:label="all"
     style="display:inline">
    <g
       id="g1342"
       style="display:inline"
       inkscape:label="back"
       transform="matrix(0.98518577,0,0,0.98518577,8.7408877,-590.38356)">
      <g
         transform="matrix(0.72336,0,0,0.30646,-360.84,179.72)"
         fill-rule="evenodd"
         stroke="#ffffff"
         stroke-width="0.5789"
         id="g41"
         style="display:inline">
        <path
           d="m 601.46,772.45 c 0.7318,4.0909 11.003,6.9396 16.886,1.9532 l -0.31872,-176.18 -16.975,-3.716 z"
           id="path37" />
        <path
           d="m 601.46,772.45 c 0.7318,4.0909 11.003,6.9396 16.886,1.9532 l -0.31872,-176.18 -16.975,-3.716 z"
           fill="url(#b)"
           id="path39"
           style="fill:url(#linearGradient1792)" />
      </g>
      <g
         transform="matrix(0.72266,0,0,0.33354,-349.45,165.74)"
         fill-rule="evenodd"
         stroke="#ffffff"
         stroke-width="0.5789"
         id="g47"
         style="display:inline">
        <path
           d="m 601.46,772.45 c 0.7318,4.0909 11.003,6.9396 16.886,1.9532 l -0.31872,-176.18 -16.975,-3.716 z"
           id="path43" />
        <path
           d="m 601.46,772.45 c 0.7318,4.0909 11.003,6.9396 16.886,1.9532 l -0.31872,-176.18 -16.975,-3.716 z"
           fill="url(#b)"
           id="path45"
           style="fill:url(#linearGradient1794)" />
      </g>
      <g
         transform="matrix(0.86007,0,0,0.42817,-408.65,106.34)"
         fill-rule="evenodd"
         stroke="#ffffff"
         stroke-width="0.5789"
         id="g53"
         style="display:inline">
        <path
           d="m 601.46,772.45 c 0.7318,4.0909 11.003,6.9396 16.886,1.9532 l -0.31872,-176.18 -16.975,-3.716 z"
           id="path49" />
        <path
           d="m 601.46,772.45 c 0.7318,4.0909 11.003,6.9396 16.886,1.9532 l -0.31872,-176.18 -16.975,-3.716 z"
           fill="url(#b)"
           id="path51"
           style="fill:url(#linearGradient1796)" />
      </g>
      <g
         transform="matrix(0.86007,0,0,0.42817,-392.39,114.82)"
         fill-rule="evenodd"
         stroke="#ffffff"
         stroke-width="0.5789"
         id="g59"
         style="display:inline">
        <path
           d="m 601.46,772.45 c 0.7318,4.0909 11.003,6.9396 16.886,1.9532 l -0.31872,-176.18 -16.975,-3.716 z"
           id="path55" />
        <path
           d="m 601.46,772.45 c 0.7318,4.0909 11.003,6.9396 16.886,1.9532 l -0.31872,-176.18 -16.975,-3.716 z"
           fill="url(#b)"
           id="path57"
           style="fill:url(#linearGradient1798)" />
      </g>
      <g
         transform="matrix(0.85725,0,0,0.54999,-353.19,46.66)"
         fill-rule="evenodd"
         stroke="#ffffff"
         stroke-width="0.5789"
         id="g65"
         style="display:inline">
        <path
           d="m 601.46,772.45 c 0.7318,4.0909 11.003,6.9396 16.886,1.9532 l -0.31872,-176.18 -16.975,-3.716 z"
           id="path61" />
        <path
           d="m 601.46,772.45 c 0.7318,4.0909 11.003,6.9396 16.886,1.9532 l -0.31872,-176.18 -16.975,-3.716 z"
           fill="url(#b)"
           id="path63"
           style="fill:url(#linearGradient1800)" />
      </g>
      <g
         transform="matrix(0.85725,0,0,0.54999,-337.02,57.797)"
         fill-rule="evenodd"
         stroke="#ffffff"
         stroke-width="0.5789"
         id="g71"
         style="display:inline">
        <path
           d="m 601.46,772.45 c 0.7318,4.0909 11.003,6.9396 16.886,1.9532 l -0.31872,-176.18 -16.975,-3.716 z"
           id="path67" />
        <path
           d="m 601.46,772.45 c 0.7318,4.0909 11.003,6.9396 16.886,1.9532 l -0.31872,-176.18 -16.975,-3.716 z"
           fill="url(#b)"
           id="path69"
           style="fill:url(#linearGradient1802)" />
      </g>
      <g
         transform="matrix(0.85469,0,0,0.67373,-306.21,-14.993)"
         fill-rule="evenodd"
         stroke="#ffffff"
         stroke-width="0.5789"
         id="g77"
         style="display:inline">
        <path
           d="m 601.46,772.45 c 0.7318,4.0909 11.003,6.9396 16.886,1.9532 l -0.31872,-176.18 -16.975,-3.716 z"
           id="path73" />
        <path
           d="m 601.46,772.45 c 0.7318,4.0909 11.003,6.9396 16.886,1.9532 l -0.31872,-176.18 -16.975,-3.716 z"
           fill="url(#b)"
           id="path75"
           style="fill:url(#linearGradient1804)" />
      </g>
      <g
         transform="matrix(0.85186,0,0,0.82545,-289.23,-118.91)"
         fill-rule="evenodd"
         stroke="#ffffff"
         stroke-width="0.5789"
         id="g83"
         style="display:inline">
        <path
           d="m 601.46,772.45 c 0.7318,4.0909 11.003,6.9396 16.886,1.9532 l -0.31872,-176.18 -16.975,-3.716 z"
           id="path79" />
        <path
           d="m 601.46,772.45 c 0.7318,4.0909 11.003,6.9396 16.886,1.9532 l -0.31872,-176.18 -16.975,-3.716 z"
           fill="url(#b)"
           id="path81"
           style="fill:url(#linearGradient1806)" />
      </g>
      <g
         transform="matrix(0.88916,-0.0052476,0.0059206,1.0032,-283.15,-219.73)"
         fill-rule="evenodd"
         stroke="#ffffff"
         stroke-width="0.5789"
         id="g89"
         style="display:inline">
        <path
           d="m 601.46,772.45 c 0.7318,4.0909 11.003,6.9396 16.886,1.9532 l -0.31872,-176.18 -16.975,-3.716 z"
           id="path85" />
        <path
           d="m 601.46,772.45 c 0.7318,4.0909 11.003,6.9396 16.886,1.9532 l -0.31872,-176.18 -16.975,-3.716 z"
           fill="url(#b)"
           id="path87"
           style="fill:url(#linearGradient1808)" />
      </g>
      <g
         transform="matrix(0.99825,0,0,1.1025,-328.02,-281.95)"
         fill-rule="evenodd"
         stroke="#ffffff"
         stroke-width="0.5789"
         id="g95"
         style="display:inline">
        <path
           d="m 601.46,772.45 c 0.7318,4.0909 11.003,6.9396 16.886,1.9532 l -0.31872,-176.18 -16.975,-3.716 z"
           id="path91" />
        <path
           d="m 601.46,772.45 c 0.7318,4.0909 11.003,6.9396 16.886,1.9532 l -0.31872,-176.18 -16.975,-3.716 z"
           fill="url(#b)"
           id="path93"
           style="fill:url(#b)" />
      </g>
    </g>
    <path
       d="m 307.53789,-40.856799 c -2.88186,1.59e-4 -5.21806,1.440442 -5.21842,3.217223 0.003,0.342797 0.0931,0.683179 0.26938,1.008238 l -0.0386,0.0079 4.89707,5.085626 c -1.03216,1.348621 -1.19601,2.605914 -1.19976,4.287825 -2e-5,5.076563 3.73347,8.637714 8.45298,8.637714 4.71945,5e-5 7.31395,-4.053744 7.31384,-9.130307 -0.46574,-5.022381 -3.78341,-6.889603 -6.78565,-7.65519 l 0.19046,-2.27243 -2.76699,-0.596498 c -0.48544,-1.504675 -2.62621,-2.588774 -5.1145,-2.589956 z"
       fill-rule="evenodd"
       stroke="#ffffff"
       stroke-linecap="square"
       stroke-linejoin="round"
       stroke-width="0.492593"
       id="path181" />
    <path
       d="m 276.75084,16.776567 c -2.8819,1.59e-4 -5.21807,1.440443 -5.21846,3.217224 0.003,0.342796 0.0931,0.683178 0.26941,1.008238 l -0.0385,0.0079 4.52763,6.28637 c -1.0322,1.348624 -1.24707,3.084324 -1.25071,4.766231 -3e-5,5.076563 3.82587,9.191883 8.54532,9.191883 4.71941,4.9e-5 8.5454,-4.11532 8.54531,-9.191883 -0.004,-4.652933 -3.23982,-8.568752 -7.5351,-9.118779 l 0.0365,-2.980584 -2.76702,-0.596497 c -0.48544,-1.504676 -2.62618,-2.588775 -5.11447,-2.589957 z"
       fill-rule="evenodd"
       stroke="#ffffff"
       stroke-linecap="square"
       stroke-linejoin="round"
       stroke-width="0.492593"
       id="path183" />
    <path
       d="m 278.68178,20.352792 -7.44524,-1.306158 0.13063,-12.9748968 35.18001,-62.1307392 6.09552,1.044987 0.26124,10.449863 z"
       fill-rule="evenodd"
       stroke="#ffffff"
       stroke-width="0.492593"
       id="path185" />
    <path
       d="m -127.45119,-68.27452 c -2.40592,1.3e-4 -4.35629,1.202519 -4.35659,2.685913 0.002,0.286186 0.0778,0.570354 0.2249,0.841765 l -0.4016,0.961292 3.13338,5.525218 c -0.39988,1.310693 -0.57931,1.774516 -0.58236,3.178604 -5e-5,4.238171 3.19397,7.673908 7.13412,7.673808 3.94005,5e-5 7.13413,-3.435637 7.13413,-7.673808 -0.003,-3.88449 -2.15057,-6.84576 -5.67498,-7.766713 l -0.031,-2.765417 -2.31007,-0.49799 c -0.40527,-1.25621 -2.19253,-2.161202 -4.26989,-2.162287 z"
       fill-rule="evenodd"
       stroke="#ffffff"
       stroke-linecap="square"
       stroke-linejoin="round"
       stroke-width="0.411247"
       id="path189" />
    <path
       d="m -87.152168,-95.731644 c -2.190067,1.16e-4 -3.903898,1.771955 -3.904191,3.12225 0.002,0.260513 0.07071,0.519182 0.204717,0.766247 l -0.36557,0.875053 2.852311,5.029568 c -0.364007,1.193063 -0.527331,1.61531 -0.530129,2.893493 -1.9e-5,3.857986 2.90748,6.98546 6.494148,6.98546 3.586568,4.6e-5 6.494148,-3.127474 6.494148,-6.98546 -0.0029,-3.53603 -1.957663,-6.231595 -5.165921,-7.06999 l -0.02828,-2.517347 -2.164354,-1.1306 c -0.368903,-1.143505 -1.99579,-1.967316 -3.886756,-1.9683 z"
       fill-rule="evenodd"
       stroke="#ffffff"
       stroke-linecap="square"
       stroke-linejoin="round"
       stroke-width="0.37435"
       id="path187" />
    <path
       d="m -134.25882,-66.422367 0.61574,-11.144424 47.596291,-31.833329 4.741207,1.23149 0.246296,9.543988 -47.288914,33.064805 z"
       fill-rule="evenodd"
       stroke="#ffffff"
       stroke-width="0.492593"
       id="path191" />
    <path
       d="m -3.8123475,-188.22088 -87.1524845,85.07275 -3.592482,2.85162 0.06544,0.0636 c -1.078085,1.086757 -0.954484,3.082553 -0.804306,4.312158 l -9.40546,-0.240523 c 0.37734,-0.999171 1.63728,-2.383854 0.84857,-2.872801 -0.74055,-0.341524 -1.41158,-0.415969 -1.54517,1.589399 -0.23221,0.241725 -0.46435,0.250837 -0.69655,0 l -0.0212,-0.761975 c -0.38854,-0.199462 -0.79049,-0.249089 -1.21996,0.04239 l -0.0212,0.80624 c -0.13536,0.23013 -0.20242,0.685416 -0.60997,0.02119 -0.0979,-0.395379 -0.18151,-0.666786 -0.45797,-1.000555 -0.94258,-0.992282 -1.85332,0.829485 -0.6523,1.633635 0.29494,0.259389 0.77338,0.476198 0.36945,0.89089 l -1.74142,1.110306 c -0.34535,0.405165 -0.41964,0.786839 0.17511,1.110303 l 14.216231,3.2653 2.917033,0.392539 366.429986,62.436148 0.43486,0.783142 3.57131,0.479126 0.56572,-0.827397 1.74141,0.261685 1.00055,-0.8274 14.41229,2.52454 c 1.42104,0.262866 4.74788,-3.805183 0.38868,-4.500723 l 0.0462,-0.548394 c 0.13993,-1.068433 -0.42202,-1.388326 -0.86975,-1.829885 -0.47078,-0.882774 -1.25524,-0.748513 -2.04731,-0.586884 -1.11752,-1.136807 -1.63454,-0.338462 -1.17572,0.652299 l 0.66574,1.697181 -12.00743,-2.031944 -1.35462,-0.923612 -0.3079,-2.031947 c 1.06657,-1.970373 -0.83928,-3.940742 -2.64766,-5.911115 l -1.53936,-0.985185 -14.78369,-17.794427 0.01,5.787967 11.88037,15.331461 c 0.43157,0.492011 1.06851,0.778661 1.04676,1.724077 0.25496,0.608165 0.43002,1.248326 1.47778,1.53935 l 0.92169,1.677872 -365.770032,-61.372154 c 0.02803,-0.478662 0.06934,-1.025774 0.101977,-1.585554 l 0.01533,0.01348 3.232591,-4.833523 87.56626628,-85.58604 -3.67139258,-1.01789 z"
       fill-rule="evenodd"
       stroke="#ffffff"
       stroke-width="0.492593"
       id="path193"
       style="display:inline" />
    <g
       id="g1371"
       style="display:inline"
       inkscape:label="front"
       transform="matrix(0.98518577,0,0,0.98518577,8.7408877,-590.38356)">
      <path
         d="m -64.612,375.84 -0.13258,16.014 c 2.7926,1.4676 7.8042,1.2824 10.253,-0.28125 v -13.668 z"
         fill-rule="evenodd"
         stroke="#ffffff"
         stroke-width="0.5"
         id="path141"
         style="display:inline;fill:#969696;fill-opacity:1"
         inkscape:label="path141" />
      <path
         d="m -54.554,377.9 -0.0312,16.344 c 2.3542,1.894 8.3021,1.5318 10.625,-0.3125 v -13.656 z"
         fill-rule="evenodd"
         stroke="#ffffff"
         stroke-width="0.5"
         id="path143"
         style="display:inline;fill:#969696;fill-opacity:1" />
      <path
         d="m -33.867,400.68 0.0312,-18.656 10.469,1.8125 0.125,17 c -2.3203,1.1587 -9.0114,1.7447 -10.625,-0.15625 z"
         fill-rule="evenodd"
         stroke="#ffffff"
         stroke-width="0.5"
         id="path145"
         style="display:inline;fill:#969696;fill-opacity:1" />
      <path
         d="m -23.335,404.28 c 2.1502,1.3684 6.6839,1.5676 10.719,0.0937 l -0.5,-18.781 -10.406,-2.2812 z"
         fill-rule="evenodd"
         stroke="#ffffff"
         stroke-width="0.5"
         id="path147"
         style="display:inline;fill:#969696;fill-opacity:1" />
      <path
         d="m -12.742,408.22 c 1.4858,1.5549 8.4695,1.4059 10.938,-0.5625 l -0.0312,-20.25 -11.375,-2.2812 z"
         fill-rule="evenodd"
         stroke="#ffffff"
         stroke-width="0.5"
         id="path149"
         style="display:inline;fill:#969696;fill-opacity:1" />
      <path
         d="m 8.216,416.26 c 1.8537,1.9027 9.1244,2.5914 11.583,0.27578 l -0.2186,-26.01 -11.644,-1.4336 z"
         fill-rule="evenodd"
         stroke="#ffffff"
         stroke-width="0.5"
         id="path151"
         style="display:inline;fill:#969696;fill-opacity:1" />
      <path
         d="m 20.041,421.52 c 1.8497,2.0777 9.1049,2.3923 11.558,-0.13636 l -0.21813,-28.73 -11.619,-1.8623 z"
         fill-rule="evenodd"
         stroke="#ffffff"
         stroke-width="0.5"
         id="path153"
         style="display:inline;fill:#969696;fill-opacity:1" />
      <path
         d="m 43.271,433.17 c 1.8356,2.2579 8.0982,2.9437 11.47,0.39972 l -0.21647,-35.98 -11.53,-2.8619 z"
         fill-rule="evenodd"
         stroke="#ffffff"
         stroke-width="0.5"
         id="path157"
         style="display:inline;fill:#969696;fill-opacity:1" />
      <path
         d="m 54.544,439.79 c 2.5003,2.5003 8.5606,2.9932 11.423,0.20821 l -0.21557,-41.555 -11.482,-2.3551 z"
         fill-rule="evenodd"
         stroke="#ffffff"
         stroke-width="0.5"
         id="path161"
         style="display:inline;fill:#969696;fill-opacity:1" />
      <path
         d="m 65.984,446.71 c 3.5958,2.8686 8.4508,2.6385 12.315,0.53354 l -0.2324,-46.835 -12.379,-2.446 z"
         fill-rule="evenodd"
         stroke="#ffffff"
         stroke-width="0.5"
         id="path165"
         style="display:inline;fill:#969696;fill-opacity:1" />
      <path
         d="m 91.622,463.79 c 3.4951,3.2023 9.9048,2.2714 13.248,0.45329 l -0.25002,-57.676 -13.317,-2.9656 z"
         fill-rule="evenodd"
         stroke="#ffffff"
         stroke-width="0.50342"
         id="path169"
         style="display:inline;fill:#969696;fill-opacity:1" />
      <path
         d="m 104.97,474.58 c 2.6771,2.45 10.246,2.5796 13.167,0.24011 l -0.24849,-66.614 -13.236,-2.7219 z"
         fill-rule="evenodd"
         stroke="#ffffff"
         stroke-width="0.50324"
         id="path173"
         style="display:inline;fill:#969696;fill-opacity:1" />
      <path
         d="m 131.25,497.2 c 0.56992,2.0158 8.5693,3.4196 13.151,0.96247 l -0.24819,-86.631 -13.22,-3.0492 z"
         fill-rule="evenodd"
         stroke="#ffffff"
         stroke-width="0.50574"
         id="path177"
         style="display:inline;fill:#969696;fill-opacity:1" />
      <path
         d="m 188.73,551.44 c 0.67854,3.099 10.203,5.257 15.658,1.4796 l -0.29553,-131.37 -15.74,-5.0967 z"
         fill-rule="evenodd"
         stroke="#ffffff"
         stroke-width="0.51759"
         id="path195"
         style="display:inline;fill:#969696;fill-opacity:1" />
      <path
         d="m 204.68,567.2 c 0.67204,3.3231 10.105,5.6372 15.508,1.5866 l -0.29268,-143.31 -15.589,-4.1203 z"
         fill-rule="evenodd"
         stroke="#ffffff"
         stroke-width="0.5"
         id="path209"
         style="display:inline;fill:#969696;fill-opacity:1" />
      <path
         d="m -103.63,368.36 h 9.6494 l 0.0442,15.413 c 0,0 -1.5371,0.90598 -4.8468,0.90598 -3.3097,0 -4.8468,-0.51359 -4.8468,-0.51359 z"
         fill-rule="evenodd"
         stroke="#ffffff"
         stroke-linecap="square"
         stroke-linejoin="round"
         stroke-width="0.53807"
         id="path221"
         style="display:inline;fill:#969696;fill-opacity:1" />
      <path
         d="m -94.26,369.91 h 9.6494 l 0.0221,15.678 c 0,0 -1.4929,0.92807 -4.8026,0.92807 -3.3097,0 -4.8689,-0.7071 -4.8689,-0.7071 z"
         fill-rule="evenodd"
         stroke="#ffffff"
         stroke-linecap="square"
         stroke-linejoin="round"
         stroke-width="0.53807"
         id="path223"
         style="display:inline;fill:#969696;fill-opacity:1" />
      <path
         d="m -84.4,371.5 h 9.9506 v 14.985 c 0,0 -1.5174,1.4803 -4.9304,1.4803 -3.413,0 -5.1307,-1.0604 -5.1307,-1.0604 z"
         fill-rule="evenodd"
         stroke="#ffffff"
         stroke-linecap="square"
         stroke-linejoin="round"
         stroke-width="0.54626"
         id="path225"
         style="display:inline;fill:#969696;fill-opacity:1" />
      <path
         d="m 237.64,603.3 c 0.7318,4.0909 11.003,6.9396 16.886,1.9532 l -0.31872,-176.18 -16.975,-3.716 z"
         fill-rule="evenodd"
         stroke="#ffffff"
         stroke-width="0.5789"
         id="path227"
         style="display:inline;fill:#969696;fill-opacity:1" />
      <path
         d="m 144.66,508.98 c 0.55455,2.2088 8.3384,3.5702 12.797,0.87782 l -0.2415,-95.277 -12.864,-4.3668 z"
         fill-rule="evenodd"
         stroke="#ffffff"
         stroke-width="0.5"
         id="path231"
         style="display:inline;fill:#969696;fill-opacity:1" />
      <path
         d="m 157.49,521.08 c 0.63157,2.4358 9.4964,4.132 14.574,1.163 l -0.27505,-105.08 -14.65,-3.8944 z"
         fill-rule="evenodd"
         stroke="#ffffff"
         stroke-width="0.5"
         id="path233"
         style="display:inline;fill:#969696;fill-opacity:1" />
      <path
         d="m -103.55,368.36 h 9.4919 l 0.0435,15.162 c 0,0 -1.512,0.8912 -4.7677,0.8912 -3.2557,0 -4.7677,-0.50521 -4.7677,-0.50521 z"
         fill="url(#x)"
         fill-rule="evenodd"
         id="path235"
         style="display:inline;fill:url(#x)" />
      <path
         d="m -94.26,369.91 h 9.6494 l 0.0221,15.678 c 0,0 -1.4929,0.92807 -4.8026,0.92807 -3.3097,0 -4.8689,-0.7071 -4.8689,-0.7071 z"
         fill="url(#y)"
         fill-rule="evenodd"
         stroke="#ffffff"
         stroke-linecap="square"
         stroke-linejoin="round"
         stroke-width="0.53807"
         id="path237"
         style="display:inline;fill:url(#y)" />
      <path
         d="m -84.4,371.5 h 9.9506 v 14.985 c 0,0 -1.5174,1.4803 -4.9304,1.4803 -3.413,0 -5.1307,-1.0604 -5.1307,-1.0604 z"
         fill="url(#z)"
         fill-rule="evenodd"
         stroke="#ffffff"
         stroke-linecap="square"
         stroke-linejoin="round"
         stroke-width="0.54626"
         id="path239"
         style="display:inline;fill:url(#z)" />
      <path
         d="m -64.612,375.84 -0.13258,16.014 c 2.7926,1.4676 7.8042,1.2824 10.253,-0.28125 v -13.668 z"
         fill="url(#aa)"
         fill-rule="evenodd"
         stroke="#ffffff"
         stroke-width="0.5"
         id="path241"
         style="display:inline;fill:url(#aa)" />
      <path
         d="m -54.554,377.9 -0.0312,16.344 c 2.3542,1.894 8.3021,1.5318 10.625,-0.3125 v -13.656 z"
         fill="url(#ab)"
         fill-rule="evenodd"
         stroke="#ffffff"
         stroke-width="0.5"
         id="path243"
         style="display:inline;fill:url(#ab)" />
      <path
         d="m -33.867,400.68 0.0312,-18.656 10.469,1.8125 0.125,17 c -2.3203,1.1587 -9.0114,1.7447 -10.625,-0.15625 z"
         fill="url(#ac)"
         fill-rule="evenodd"
         stroke="#ffffff"
         stroke-width="0.5"
         id="path245"
         style="display:inline;fill:url(#ac)" />
      <path
         d="m -23.335,404.28 c 2.1502,1.3684 6.6839,1.5676 10.719,0.0937 l -0.5,-18.781 -10.406,-2.2812 z"
         fill="url(#ad)"
         fill-rule="evenodd"
         stroke="#ffffff"
         stroke-width="0.5"
         id="path247"
         style="display:inline;fill:url(#ad)" />
      <path
         d="m -12.742,408.22 c 1.4858,1.5549 8.4695,1.4059 10.938,-0.5625 l -0.0312,-20.25 -11.375,-2.2812 z"
         fill="url(#ae)"
         fill-rule="evenodd"
         stroke="#ffffff"
         stroke-width="0.5"
         id="path249"
         style="display:inline;fill:url(#ae)" />
      <path
         d="m 8.216,416.26 c 1.8537,1.9027 9.1244,2.5914 11.583,0.27578 l -0.2186,-26.01 -11.644,-1.4336 z"
         fill="url(#af)"
         fill-rule="evenodd"
         stroke="#ffffff"
         stroke-width="0.5"
         id="path251"
         style="display:inline;fill:url(#af)" />
      <path
         d="m 20.041,421.52 c 1.8497,2.0777 9.1049,2.3923 11.558,-0.13636 l -0.21813,-28.73 -11.619,-1.8623 z"
         fill="url(#ag)"
         fill-rule="evenodd"
         stroke="#ffffff"
         stroke-width="0.5"
         id="path253"
         style="display:inline;fill:url(#ag)" />
      <path
         d="m 43.271,433.17 c 1.8356,2.2579 8.0982,2.9437 11.47,0.39972 l -0.21647,-35.98 -11.53,-2.8619 z"
         fill="url(#ah)"
         fill-rule="evenodd"
         stroke="#ffffff"
         stroke-width="0.5"
         id="path255"
         style="display:inline;fill:url(#ah)" />
      <path
         d="m 54.544,439.79 c 2.5003,2.5003 8.5606,2.9932 11.423,0.20821 l -0.21557,-41.555 -11.482,-2.3551 z"
         fill="url(#ai)"
         fill-rule="evenodd"
         stroke="#ffffff"
         stroke-width="0.5"
         id="path257"
         style="display:inline;fill:url(#ai)" />
      <path
         d="m 65.984,446.71 c 3.5958,2.8686 8.4508,2.6385 12.315,0.53354 l -0.2324,-46.835 -12.379,-2.446 z"
         fill="url(#aj)"
         fill-rule="evenodd"
         stroke="#ffffff"
         stroke-width="0.5"
         id="path259"
         style="display:inline;fill:url(#aj)" />
      <path
         d="m 91.622,463.79 c 3.4951,3.2023 9.9048,2.2714 13.248,0.45329 l -0.25002,-57.676 -13.317,-2.9656 z"
         fill="url(#ak)"
         fill-rule="evenodd"
         stroke="#ffffff"
         stroke-width="0.50342"
         id="path261"
         style="display:inline;fill:url(#ak)" />
      <path
         d="m 104.97,474.58 c 2.6771,2.45 10.246,2.5796 13.167,0.24011 l -0.24849,-66.614 -13.236,-2.7219 z"
         fill="url(#al)"
         fill-rule="evenodd"
         stroke="#ffffff"
         stroke-width="0.50324"
         id="path263"
         style="display:inline;fill:url(#al)" />
      <path
         d="m 131.25,497.2 c 0.56992,2.0158 8.5693,3.4196 13.151,0.96247 l -0.24819,-86.631 -13.22,-3.0492 z"
         fill="url(#am)"
         fill-rule="evenodd"
         stroke="#ffffff"
         stroke-width="0.50574"
         id="path265"
         style="display:inline;fill:url(#am)" />
      <path
         d="m 144.66,508.98 c 0.55455,2.2088 8.3384,3.5702 12.797,0.87782 l -0.2415,-95.277 -12.864,-4.3668 z"
         fill="url(#an)"
         fill-rule="evenodd"
         stroke="#ffffff"
         stroke-width="0.5"
         id="path267"
         style="display:inline;fill:url(#an)" />
      <path
         d="m 157.49,521.08 c 0.63157,2.4358 9.4964,4.132 14.574,1.163 l -0.27505,-105.08 -14.65,-3.8944 z"
         fill="url(#ao)"
         fill-rule="evenodd"
         stroke="#ffffff"
         stroke-width="0.5"
         id="path269"
         style="display:inline;fill:url(#ao)" />
      <path
         d="m 204.68,567.2 c 0.67204,3.3231 10.105,5.6372 15.508,1.5866 l -0.29268,-143.31 -15.589,-4.1203 z"
         fill="url(#aq)"
         fill-rule="evenodd"
         stroke="#ffffff"
         stroke-width="0.5"
         id="path271"
         style="display:inline;fill:url(#aq)" />
      <path
         d="m 188.73,551.44 c 0.67854,3.099 10.203,5.257 15.658,1.4796 l -0.29553,-131.37 -15.74,-5.0967 z"
         fill="url(#ap)"
         fill-rule="evenodd"
         stroke="#ffffff"
         stroke-width="0.51759"
         id="path273"
         style="display:inline;fill:url(#ap)" />
    </g>
    <g
       id="g1432"
       inkscape:label="bottom"
       style="display:inline;fill:#964600;fill-opacity:1"
       transform="matrix(0.98518577,0,0,0.98518577,8.7408877,-590.38356)">
      <path
         d="m -110.31,348.23 c 9.329,-0.39394 2.9857,8.9443 11.641,5.2683 3.3611,-1.4275 16.855,-7.8815 17.607,-11.422 0.0477,-0.97227 0.16582,-2.7849 -0.0155,-3.7461 -0.0802,-0.42511 -0.29428,-0.93333 -0.48843,-0.94842 -0.72525,-0.13347 -6.5129,-0.86727 -6.6163,-0.66909 -11.434,5.4391 -20.684,10.801 -22.128,11.517 z"
         fill-rule="evenodd"
         stroke="#ffffff"
         stroke-width="0.5"
         id="path97"
         style="display:inline;fill:#964600;fill-opacity:1" />
      <path
         d="m -105.37,354.04 c 9.329,-0.39394 23.298,2.8818 31.954,-0.79419 3.3611,-1.4275 0.98024,-7.1315 1.7318,-10.672 0.0477,-0.97227 0.16582,-2.7849 -0.0155,-3.7461 -0.0802,-0.42511 -0.29428,-0.93333 -0.48843,-0.94842 -0.72525,-0.13347 -6.5129,-0.86727 -6.6163,-0.66909 -10.197,6.8123 -15.684,9.6133 -26.565,16.829 z"
         fill-rule="evenodd"
         stroke="#ffffff"
         stroke-width="0.5"
         id="path99"
         style="fill:#964600;fill-opacity:1" />
      <path
         d="m -96.248,353.54 c 9.329,-0.39394 17.548,4.3193 26.204,0.64331 3.3611,-1.4275 8.1677,-7.569 8.9192,-11.109 0.0477,-0.97227 0.16582,-2.7849 -0.0155,-3.7461 -0.0802,-0.42511 -0.29428,-0.93333 -0.48843,-0.94842 -0.72525,-0.13347 -6.5129,-0.86727 -6.6163,-0.66909 -10.197,6.8123 -17.122,8.6133 -28.003,15.829 z"
         fill-rule="evenodd"
         stroke="#ffffff"
         stroke-width="0.5"
         id="path101"
         style="fill:#964600;fill-opacity:1" />
      <path
         d="m -92.803,357.19 c 9.329,-0.39394 23.298,2.8818 31.954,-0.79419 3.3611,-1.4275 8.7232,-9.0897 9.4747,-12.63 0.0477,-0.97227 0.16582,-2.7849 -0.0155,-3.7461 -0.0802,-0.42511 -0.29428,-0.93333 -0.48843,-0.94842 -0.72525,-0.13347 -6.5129,-0.86727 -6.6163,-0.66909 -10.197,6.8123 -23.427,11.571 -34.308,18.788 z"
         fill-rule="evenodd"
         stroke="#ffffff"
         stroke-width="0.5"
         id="path103"
         style="fill:#964600;fill-opacity:1" />
      <path
         d="m -82.053,357.62 c 9.329,-0.39394 23.298,2.8818 31.954,-0.79419 3.3611,-1.4275 8.7232,-9.0897 9.4747,-12.63 0.0477,-0.97227 0.16582,-2.7849 -0.0155,-3.7461 -0.0802,-0.42511 -0.29428,-0.93333 -0.48843,-0.94842 -0.72525,-0.13347 -6.5129,-0.86727 -6.6163,-0.66909 -10.197,6.8123 -23.427,11.571 -34.308,18.788 z"
         fill-rule="evenodd"
         stroke="#ffffff"
         stroke-width="0.5"
         id="path105"
         style="fill:#964600;fill-opacity:1" />
      <path
         d="m -71.428,358.37 c 9.329,-0.39394 23.298,2.8818 31.954,-0.79419 3.3611,-1.4275 8.7232,-9.0897 9.4747,-12.63 0.0477,-0.97227 0.16582,-2.7849 -0.0155,-3.7461 -0.0802,-0.42511 -0.29428,-0.93333 -0.48843,-0.94842 -0.72525,-0.13347 -6.5129,-0.86727 -6.6163,-0.66909 -10.197,6.8123 -23.427,11.571 -34.308,18.788 z"
         fill-rule="evenodd"
         stroke="#ffffff"
         stroke-width="0.5"
         id="path107"
         style="fill:#964600;fill-opacity:1" />
      <path
         d="m -60.178,358.94 c 9.329,-0.39394 23.298,2.8818 31.954,-0.79419 3.3611,-1.4275 8.7232,-9.0897 9.4747,-12.63 0.0477,-0.97227 0.16582,-2.7849 -0.0155,-3.7461 -0.0802,-0.42511 -0.29428,-0.93333 -0.48843,-0.94842 -0.72525,-0.13347 -6.5129,-0.86727 -6.6163,-0.66909 -10.197,6.8123 -23.427,11.571 -34.308,18.788 z"
         fill-rule="evenodd"
         stroke="#ffffff"
         stroke-width="0.5"
         id="path109"
         style="fill:#964600;fill-opacity:1" />
      <path
         d="m -49.116,359.81 c 9.329,-0.39394 23.298,2.8818 31.954,-0.79419 3.3611,-1.4275 8.7232,-9.0897 9.4747,-12.63 0.0477,-0.97227 0.16582,-2.7849 -0.0155,-3.7461 -0.0802,-0.42511 -0.29428,-0.93333 -0.48843,-0.94842 -0.72525,-0.13347 -6.5129,-0.86727 -6.6163,-0.66909 -10.197,6.8123 -23.427,11.571 -34.308,18.788 z"
         fill-rule="evenodd"
         stroke="#ffffff"
         stroke-width="0.5"
         id="path111"
         style="fill:#964600;fill-opacity:1" />
      <path
         d="m -35.928,360.81 c 9.329,-0.39394 20.236,2.6318 28.891,-1.0442 3.3611,-1.4275 8.7232,-9.0897 9.4747,-12.63 0.0477,-0.97227 0.16582,-2.7849 -0.0155,-3.7461 -0.0802,-0.42511 -0.29428,-0.93333 -0.48843,-0.94842 -0.72525,-0.13347 -6.5129,-0.86727 -6.6163,-0.66909 -10.197,6.8123 -20.365,11.821 -31.246,19.038 z"
         fill-rule="evenodd"
         stroke="#ffffff"
         stroke-width="0.5"
         id="path113"
         style="fill:#964600;fill-opacity:1" />
      <path
         d="m -23.991,361.37 c 9.329,-0.39394 20.236,2.6318 28.891,-1.0442 3.3611,-1.4275 8.7232,-9.0897 9.4747,-12.63 0.0477,-0.97227 0.16582,-2.7849 -0.0155,-3.7461 -0.0802,-0.42511 -0.29428,-0.93333 -0.48843,-0.94842 -0.72525,-0.13347 -6.5129,-0.86727 -6.6163,-0.66909 -10.197,6.8123 -20.365,11.821 -31.246,19.038 z"
         fill-rule="evenodd"
         stroke="#ffffff"
         stroke-width="0.5"
         id="path115"
         style="fill:#964600;fill-opacity:1" />
      <path
         d="m -13.616,362 c 9.329,-0.39394 20.236,2.6318 28.891,-1.0442 3.3611,-1.4275 8.7232,-9.0897 9.4747,-12.63 0.0477,-0.97227 0.16582,-2.7849 -0.0155,-3.7461 -0.0802,-0.42511 -0.29428,-0.93333 -0.48843,-0.94842 -0.72525,-0.13347 -6.5129,-0.86727 -6.6163,-0.66909 -10.197,6.8123 -20.365,11.821 -31.246,19.038 z"
         fill-rule="evenodd"
         stroke="#ffffff"
         stroke-width="0.5"
         id="path117"
         style="fill:#964600;fill-opacity:1" />
      <path
         d="m -3.0533,363.12 c 9.329,-0.39394 20.236,2.6318 28.891,-1.0442 3.3611,-1.4275 9.8482,-9.1522 10.6,-12.692 0.0477,-0.97227 0.16582,-2.7849 -0.0155,-3.7461 -0.0802,-0.42511 -0.29428,-0.93333 -0.48843,-0.94842 -0.72525,-0.13347 -7.5598,-0.93758 -7.6632,-0.7394 -10.197,6.8123 -20.443,11.954 -31.324,19.17 z"
         fill-rule="evenodd"
         stroke="#ffffff"
         stroke-width="0.5"
         id="path119"
         style="fill:#964600;fill-opacity:1" />
      <path
         d="m 7.0022,367.91 c 9.329,-0.39394 20.048,1.5693 28.704,-2.1067 3.3611,-1.4275 11.793,-12.069 12.544,-15.609 0.0477,-0.97227 0.16582,-2.7849 -0.0155,-3.7461 -0.0802,-0.42511 -0.29428,-0.93333 -0.48843,-0.94842 -0.72525,-0.13347 -7.5598,-0.93758 -7.6632,-0.7394 -10.144,7.1537 -22.257,15.585 -33.081,23.15 z"
         fill-rule="evenodd"
         stroke="#ffffff"
         stroke-width="0.5"
         id="path121"
         style="fill:#964600;fill-opacity:1" />
      <path
         d="m 19.315,368.54 c 9.329,-0.39394 20.048,1.5693 28.704,-2.1067 3.3611,-1.4275 11.793,-12.069 12.544,-15.609 0.0477,-0.97227 0.16582,-2.7849 -0.0155,-3.7461 -0.0802,-0.42511 -0.29428,-0.93333 -0.48843,-0.94842 -0.72525,-0.13347 -7.5598,-0.93758 -7.6632,-0.7394 -10.144,7.1537 -22.257,15.585 -33.081,23.15 z"
         fill-rule="evenodd"
         stroke="#ffffff"
         stroke-width="0.5"
         id="path123"
         style="fill:#964600;fill-opacity:1" />
      <path
         d="m 30.815,369.29 c 9.329,-0.39394 20.048,1.5693 28.704,-2.1067 3.3611,-1.4275 11.793,-12.069 12.544,-15.609 0.0477,-0.97227 0.16582,-2.7849 -0.0155,-3.7461 -0.0802,-0.42511 -0.29428,-0.93333 -0.48843,-0.94842 -0.72525,-0.13347 -7.5598,-0.93758 -7.6632,-0.7394 -10.144,7.1537 -22.257,15.585 -33.081,23.15 z"
         fill-rule="evenodd"
         stroke="#ffffff"
         stroke-width="0.5"
         id="path125"
         style="fill:#964600;fill-opacity:1" />
      <path
         d="m 42.877,370.23 c 9.329,-0.39394 20.048,1.5693 28.704,-2.1067 3.3611,-1.4275 11.793,-12.069 12.544,-15.609 0.0477,-0.97227 0.16582,-2.7849 -0.0155,-3.7461 -0.0802,-0.42511 -0.29428,-0.93333 -0.48843,-0.94842 -0.72525,-0.13347 -7.5598,-0.93758 -7.6632,-0.7394 -10.144,7.1537 -22.257,15.585 -33.081,23.15 z"
         fill-rule="evenodd"
         stroke="#ffffff"
         stroke-width="0.5"
         id="path127"
         style="fill:#964600;fill-opacity:1" />
      <path
         d="m 55.252,371.16 c 9.329,-0.39394 20.048,1.5693 28.704,-2.1067 3.3611,-1.4275 11.793,-12.069 12.544,-15.609 0.0477,-0.97227 0.16582,-2.7849 -0.0155,-3.7461 -0.0802,-0.42511 -0.29428,-0.93333 -0.48843,-0.94842 -0.72525,-0.13347 -7.5598,-0.93758 -7.6632,-0.7394 -10.144,7.1537 -22.257,15.585 -33.081,23.15 z"
         fill-rule="evenodd"
         stroke="#ffffff"
         stroke-width="0.5"
         id="path129"
         style="fill:#964600;fill-opacity:1" />
      <path
         d="m 68.111,372.18 c 9.329,-0.39394 19.298,1.1318 27.954,-2.5442 3.3611,-1.4275 11.793,-12.069 12.544,-15.609 0.0477,-0.97227 0.16582,-2.7849 -0.0155,-3.7461 -0.0802,-0.42511 -0.29428,-0.93333 -0.48843,-0.94842 -0.72525,-0.13347 -7.5598,-0.93758 -7.6632,-0.7394 -9.9017,7.2887 -21.753,15.882 -32.331,23.587 z"
         fill-rule="evenodd"
         stroke="#ffffff"
         stroke-width="0.5"
         id="path131"
         style="fill:#964600;fill-opacity:1" />
      <path
         d="m 81.016,373.06 c 9.329,-0.39394 19.298,1.1318 27.954,-2.5442 3.3611,-1.4275 12.98,-11.944 13.732,-15.484 0.0477,-0.97227 0.16582,-2.7849 -0.0155,-3.7461 -0.0802,-0.42511 -0.29428,-0.93333 -0.48843,-0.94842 -0.72525,-0.13347 -8.7473,-1.0626 -8.8507,-0.8644 -9.9017,7.2887 -21.753,15.882 -32.331,23.587 z"
         fill-rule="evenodd"
         stroke="#ffffff"
         stroke-width="0.5"
         id="path133"
         style="fill:#964600;fill-opacity:1" />
      <path
         d="m 97.55,372.25 c 9.329,-0.39394 14.702,2.6344 23.358,-1.0416 3.3611,-1.4275 13.386,-11.913 14.138,-15.453 0.0477,-0.97227 0.16582,-2.7849 -0.0155,-3.7461 -0.0802,-0.42511 -0.29428,-0.93333 -0.48843,-0.94842 -0.72525,-0.13347 -9.1536,-1.0938 -9.2569,-0.89565 -8.3786,6.7601 -18.686,14.895 -27.735,22.085 z"
         fill-rule="evenodd"
         stroke="#ffffff"
         stroke-width="0.5"
         id="path135"
         style="fill:#964600;fill-opacity:1" />
      <path
         d="m 112.05,372.86 c 9.329,-0.39394 13.73,2.6344 22.385,-1.0416 3.3611,-1.4275 13.166,-11.846 13.917,-15.387 0.0477,-0.97227 0.16582,-2.7849 -0.0155,-3.7461 -0.0802,-0.42511 -0.29428,-0.93333 -0.48843,-0.94842 -0.72525,-0.13347 -8.9326,-1.1601 -9.036,-0.96194 -8.0606,6.7502 -18.035,14.9 -26.762,22.085 z"
         fill-rule="evenodd"
         stroke="#ffffff"
         stroke-width="0.5"
         id="path137"
         style="fill:#964600;fill-opacity:1" />
      <path
         d="m 125.66,373.84 c 9.329,-0.39394 13.73,2.6344 22.385,-1.0416 3.3611,-1.4275 13.697,-11.784 14.448,-15.324 0.0477,-0.97227 0.16582,-2.7849 -0.0155,-3.7461 -0.0802,-0.42511 -0.29428,-0.93333 -0.48843,-0.94842 -0.72525,-0.13347 -9.4638,-1.2226 -9.5672,-1.0244 -8.0606,6.7502 -18.035,14.9 -26.762,22.085 z"
         fill-rule="evenodd"
         stroke="#ffffff"
         stroke-width="0.5"
         id="path139"
         style="fill:#964600;fill-opacity:1" />
      <path
         d="m 139.36,374.63 c 9.329,-0.39394 13.73,2.6344 22.385,-1.0416 3.3611,-1.4275 12.697,-11.815 13.448,-15.355 0.0477,-0.97227 0.16582,-2.7849 -0.0155,-3.7461 -0.0802,-0.42511 -0.29428,-0.93333 -0.48843,-0.94842 -0.72525,-0.13347 -8.4638,-1.1914 -8.5672,-0.99319 -8.0606,6.7502 -18.035,14.9 -26.762,22.085 z"
         fill-rule="evenodd"
         stroke="#ffffff"
         stroke-width="0.5"
         id="path155"
         style="fill:#964600;fill-opacity:1" />
      <path
         d="m 152.62,375.69 c 9.329,-0.39394 13.73,2.6344 22.385,-1.0416 3.3611,-1.4275 13.697,-11.784 14.448,-15.324 0.0477,-0.97227 0.16582,-2.7849 -0.0155,-3.7461 -0.0802,-0.42511 -0.29428,-0.93333 -0.48843,-0.94842 -0.72525,-0.13347 -9.4638,-1.2226 -9.5672,-1.0244 -8.0606,6.7502 -18.035,14.9 -26.762,22.085 z"
         fill-rule="evenodd"
         stroke="#ffffff"
         stroke-width="0.5"
         id="path159"
         style="fill:#964600;fill-opacity:1" />
      <path
         d="m 159.86,384.71 c 9.329,-0.39394 8.8684,5.728 17.524,2.052 3.3611,-1.4275 24.657,-23.009 25.408,-26.549 0.0477,-0.97227 0.16582,-2.7849 -0.0155,-3.7461 -0.0802,-0.42511 -0.29428,-0.93333 -0.48843,-0.94842 -0.72525,-0.13347 -9.4638,-1.2226 -9.5672,-1.0244 -10.135,9.448 -22.076,20.323 -32.861,30.216 z"
         fill-rule="evenodd"
         stroke="#ffffff"
         stroke-width="0.5"
         id="path167"
         style="fill:#964600;fill-opacity:1" />
      <path
         d="m 174.62,385.5 c 9.329,-0.39394 8.8684,5.728 17.524,2.052 3.3611,-1.4275 25.629,-22.921 26.381,-26.461 0.0477,-0.97227 0.16582,-2.7849 -0.0155,-3.7461 -0.0802,-0.42511 -0.29428,-0.93333 -0.48843,-0.94842 -0.72525,-0.13347 -10.436,-1.311 -10.539,-1.1128 -10.135,9.448 -22.076,20.323 -32.861,30.216 z"
         fill-rule="evenodd"
         stroke="#ffffff"
         stroke-width="0.5"
         id="path163"
         style="fill:#964600;fill-opacity:1" />
      <path
         d="m 191.77,387.63 c 9.329,-0.39394 16.116,5.4628 24.772,1.7868 3.3611,-1.4275 16.172,-23.805 16.923,-27.345 0.0477,-0.97227 0.16582,-2.7849 -0.0155,-3.7461 -0.0802,-0.42511 -0.29428,-0.93333 -0.48843,-0.94842 -0.72525,-0.13347 -10.436,-1.311 -10.539,-1.1128 -9.4229,9.8066 -20.59,21.1 -30.651,31.365 z"
         fill-rule="evenodd"
         stroke="#ffffff"
         stroke-width="0.5"
         id="path171"
         style="fill:#964600;fill-opacity:1" />
      <path
         d="m 206.77,388.31 c 9.329,-0.39394 16.116,5.4628 24.772,1.7868 3.3611,-1.4275 16.172,-23.805 16.923,-27.345 0.0477,-0.97227 0.16582,-2.7849 -0.0155,-3.7461 -0.0802,-0.42511 -0.29428,-0.93333 -0.48843,-0.94842 -0.72525,-0.13347 -10.436,-1.311 -10.539,-1.1128 -9.4229,9.8066 -20.59,21.1 -30.651,31.365 z"
         fill-rule="evenodd"
         stroke="#ffffff"
         stroke-width="0.5"
         id="path175"
         style="fill:#964600;fill-opacity:1" />
      <path
         d="m 221.9,389.69 c 9.329,-0.39394 16.116,5.4628 24.772,1.7868 3.3611,-1.4275 16.172,-23.805 16.923,-27.345 0.0477,-0.97227 0.16582,-2.7849 -0.0155,-3.7461 -0.0802,-0.42511 -0.29428,-0.93333 -0.48843,-0.94842 -0.72525,-0.13347 -10.436,-1.311 -10.539,-1.1128 -9.4229,9.8066 -20.59,21.1 -30.651,31.365 z"
         fill-rule="evenodd"
         stroke="#ffffff"
         stroke-width="0.5"
         id="path179"
         style="fill:#964600;fill-opacity:1" />
      <path
         d="m 268.56,359.1 -27.479,29.507 c 0.86751,3.9733 18.477,8.6416 18.947,7.1147 7.5331,-7.4747 19.154,-29.685 20.709,-29.606 0.0598,-3.8859 0.73978,-5.7977 -1.563,-5.9615 -2.4809,-0.27458 -8.1846,-0.84978 -10.679,-0.9723 -0.30073,0.0822 0.0155,-0.0446 0.0642,-0.0816 z"
         fill-rule="evenodd"
         stroke="#ffffff"
         stroke-width="0.5"
         id="path197"
         style="fill:#964600;fill-opacity:1" />
      <path
         d="m 256.66,392.01 c 2.0606,0.38669 15.197,2.8801 17.356,1.1639 l 23.451,-26.833 c 0.39469,-5.3663 -0.0275,-4.865 -4.1227,-5.1523 -2.8408,-0.29054 -5.6806,-0.74725 -8.5338,-0.83183 -10.923,12.83 -18.489,18.405 -28.151,31.653 z"
         fill-rule="evenodd"
         stroke="#ffffff"
         stroke-width="0.5"
         id="path199"
         style="display:inline;fill:#964600;fill-opacity:1" />
    </g>
    <path
       d="m 242.86043,3.9790159 c 0.70579,3.945456 10.6118,6.6928731 16.28564,1.8837591 l -0.30739,-169.916155 -16.37147,-3.58387 z"
       fill="url(#ar)"
       fill-rule="evenodd"
       stroke="#ffffff"
       stroke-width="0.558316"
       id="path229"
       style="display:inline;fill:url(#ar)" />
    <g
       id="g1839"
       style="display:inline"
       transform="matrix(0.331066,0,0,0.331066,-86.376122,-170.84037)">
      <path
         d="m -99.816366,-157.69312 23.255272,-5.78644 v 6.83273 c -4.938636,2.71372 -4.698787,5.41298 -1.980514,5.49809 0.795759,0.0238 -0.710561,2.47345 1.980514,1.8666 l 14.202594,-8.44324 1.812618,1.99483 -9.946607,7.98615 0.03928,3.90604 -5.246928,3.63404 0.717018,7.55853 -1.578155,0.78906 v 14.65164 c -1.490637,0.92342 -2.976394,1.67987 -4.457449,2.27655 -1.618061,0.65182 1.124793,366.2613 0.08898,367.51114 -2.343353,2.8559 -12.758142,3.44657 -15.332506,0.0509 -0.728326,-0.9607 0.688273,-366.58864 -0.500023,-366.94573 -0.996952,-0.30874 -1.993101,-0.67988 -2.988595,-1.11117 l -0.06576,-14.65164 c -3.334673,-2.13769 -2.632953,-8.27421 0,-10.65246 z"
         fill-rule="evenodd"
         stroke="#ffffff"
         stroke-linecap="square"
         stroke-linejoin="round"
         stroke-width="1.4879"
         id="path205"
         style="display:inline" />
      <path
         d="m 1160.6427,-51.129767 25.2383,-28.718838 0.372,13.217307 c -21.4903,20.813927 -14.0154,18.256823 6.947,6.954442 1.0874,-0.05476 2.0817,0.061 2.134,1.904035 l -9.9415,9.219619 -0.1676,4.914829 1.9152,1.012665 c 0.095,1.695223 2.2874,2.938928 0.9484,8.565241 l -0.9972,2.277974 0.5585,14.772757 c -1.755,0.881402 -3.504,1.60342 -5.2478,2.172958 -1.905,0.622151 3.2989,400.602018 2.0794,401.822098 -2.7588,2.72592 -15.0203,3.28974 -18.0511,0.0485 -0.8575,-0.91696 -1.1644,-400.929353 -2.5633,-401.286448 -1.1738,-0.294604 -2.3466,-0.648963 -3.5186,-1.060635 l -0.077,-16.154718 c -3.926,-2.040416 -3.0999,-7.89777 0,-10.167709 z"
         fill-rule="evenodd"
         stroke="#ffffff"
         stroke-linecap="square"
         stroke-linejoin="round"
         stroke-width="1.57726"
         id="path389" />
      <path
         d="m 942.12978,211.33568 51.78485,63.14347 0.0414,18.04018 -51.7908,-64.07489 z"
         fill-rule="evenodd"
         stroke="#ffffff"
         stroke-width="1.4879"
         id="path381" />
      <path
         d="m 798.69629,37.727581 49.47265,58.679774 0.0512,18.320205 -49.4786,-60.355146 z"
         fill-rule="evenodd"
         stroke="#ffffff"
         stroke-width="1.4879"
         id="path379" />
      <path
         d="m 281.88903,-84.78605 23.63647,-22.56072 5.96321,1.04927 -0.45709,7.518054 -29.11938,29.197942 z"
         fill-rule="evenodd"
         stroke="#ffffff"
         stroke-width="1.4879"
         id="path365" />
      <path
         d="m -57.173171,-241.75943 c -0.787337,0.29103 -1.663323,0.71434 -2.667744,1.33096 l -34.406184,16.36689 c -7.197561,2.3968 -10.842621,7.39873 -10.601281,15.25097 l 0.18599,58.77202 c 0.0902,0.47675 0.20146,0.95133 0.587,1.35423 0.75624,-0.18361 1.50177,-0.41409 2.22605,-0.71488 15.073608,-6.76399 30.192451,-13.80622 45.752902,-23.6204 l 2.789812,-61.56332 c -0.904971,-4.88894 -2.32642,-6.40779 -3.864968,-7.17793 z"
         fill-rule="evenodd"
         stroke="#ffffff"
         stroke-width="1.4879"
         id="path207"
         style="display:inline" />
      <path
         d="m -47.739889,-183.85039 23.263306,-5.67395 v 6.69971 c -4.940421,2.66093 -4.700274,5.30763 -1.981197,5.39125 0.796026,0.0238 -0.7108,2.42534 1.981197,1.83027 l 14.207653,-8.27897 1.8132436,1.95602 -9.9498806,7.83082 0.03928,3.83015 -5.248714,3.56322 0.717257,7.41152 -1.578691,0.77374 v 14.36656 c -1.491143,0.90548 -2.977287,1.64719 -4.458937,2.23227 -1.618596,0.63914 1.125179,359.11938 0.08898,360.36922 -2.344155,2.80037 -12.762605,3.37961 -15.337563,0.05 -0.728565,-0.94202 0.68851,-359.44672 -0.500202,-359.80382 -0.99731,-0.30273 -1.993786,-0.66664 -2.989488,-1.08953 l -0.06576,-14.36656 c -3.33587,-2.09609 -2.633879,-8.11322 0,-10.44535 z"
         fill-rule="evenodd"
         stroke="#ffffff"
         stroke-linecap="square"
         stroke-linejoin="round"
         stroke-width="1.47362"
         id="path217"
         style="display:inline" />
      <path
         d="M -54.613984,-239.31928 1122.7012,-99.65314 1119.019,-65.723084 -61.926712,-208.99886 l -0.690326,-26.68875 z"
         fill-rule="evenodd"
         stroke="#ffffff"
         stroke-linejoin="round"
         stroke-width="1.4879"
         id="path211"
         style="display:inline" />
      <path
         d="m -49.525368,-221.34545 1173.089568,171.483373 -4.5994,33.816976 -1176.630763,-175.188239 0.03244,-26.69768 z"
         fill-rule="evenodd"
         stroke="#ffffff"
         stroke-linejoin="round"
         stroke-width="1.4879"
         id="path275"
         style="display:inline" />
      <path
         d="M -90.14502,-176.97629 1071.3687,27.395608 1068.4754,-30.733643 -85.866625,-225.45205 l -6.50956,3.34777 z"
         fill-rule="evenodd"
         stroke="#ffffff"
         stroke-width="1.4879"
         id="path277"
         style="display:inline" />
      <path
         d="m -78.539405,-245.15184 c -1.253318,0.12855 -2.748746,0.61745 -4.725271,1.83083 l -34.406184,16.36689 c -7.19756,2.3968 -10.84262,7.39873 -10.60128,15.25097 l 0.18598,58.77202 c 0.15117,0.79913 0.26068,1.60875 1.85988,2.04587 l 17.11084,2.41783 c 1.77524,0.29044 3.43675,0.17111 5.02732,-0.21515 -0.38564,-0.40289 -0.49678,-0.87747 -0.58701,-1.35422 l -0.18599,-58.77203 c -0.24163,-7.85224 3.40372,-12.85426 10.601284,-15.25097 l 34.406185,-16.36689 c 1.004421,-0.61661 1.880407,-1.03998 2.667744,-1.33095 -0.684166,-0.34249 -1.390145,-0.55651 -2.086541,-0.81951 l -15.994918,-2.23185 c -1.007665,-0.23985 -2.018901,-0.47151 -3.272188,-0.34293 z"
         fill-rule="evenodd"
         stroke="#ffffff"
         stroke-width="1.4879"
         id="path201"
         style="display:inline" />
      <path
         d="m 1100.0257,27.342044 25.585,-23.0868413 v 6.8366003 c -21.4692,21.818853 -14.0014,19.138551 6.9401,7.290409 l 2.1319,1.995987 -9.9317,9.664799 1.2553,7.0702 2.5703,3.542986 c 0.095,1.777087 2.088,2.874056 0.7504,8.772059 l -2.5072,1.905464 0.558,16.520146 c -1.7533,0.923985 -3.5005,1.68088 -5.2428,2.277914 -1.9031,0.652206 3.2957,422.236073 2.0774,423.485913 -2.7561,2.85757 -15.0054,3.44865 -18.0333,0.0509 -0.8566,-0.96124 -1.1632,-422.563409 -2.5608,-422.920505 -1.1726,-0.308947 -2.3442,-0.680297 -3.515,-1.111847 l -0.077,-14.660273 c -3.9221,-2.138944 -3.0967,-8.278969 0,-10.658715 z"
         fill-rule="evenodd"
         stroke="#ffffff"
         stroke-linecap="square"
         stroke-linejoin="round"
         stroke-width="1.6141"
         id="path387" />
      <path
         d="m 1055.0911,-14.170348 6.8387,-16.570735 59.7064,-71.017437 c 1.6222,-1.73141 3.9081,-2.90982 7.6279,-2.89328 l 14.7296,2.10419 46.2915,-56.02536 c 1.7569,-1.73602 4.8217,-2.38225 8.6798,-2.36722 l 14.9924,2.10422 c 4.7514,0.68633 6.997,3.60964 6.8387,8.67981 l -0.5261,34.98349 -1.8412,6.83868 -129.9472,173.387884 -5.0216,2.603824 -25.6663,-3.161786 -2.7898,-3.161786 z"
         fill-rule="evenodd"
         stroke="#ffffff"
         stroke-width="1.4879"
         id="path391" />
    </g>
    <g
       transform="matrix(0.98518577,0,0,0.98518577,-203.03464,-791.01664)"
       fill-rule="evenodd"
       stroke="#ffffff"
       stroke-width="0.5"
       id="g363"
       style="display:inline;fill:#964600;fill-opacity:1"
       inkscape:label="top">
      <path
         d="m 123.55,543.36 c -0.79535,8.1e-4 -1.3693,0.0574 -1.4824,0.18945 l -19.619,10.066 6.25,0.75977 c 0.26689,0.0358 0.4509,0.45469 0.57032,1.0215 0.0271,0.11788 0.0509,0.26293 0.0703,0.41797 0.004,0.0285 0.008,0.0486 0.0117,0.0781 0.10319,0.82837 0.0834,1.7987 -0.0508,2.5254 -0.0271,0.14671 -0.0572,0.27802 -0.0937,0.39844 -0.0342,0.12098 -0.0751,0.21667 -0.11914,0.30469 -0.0232,0.0446 -0.0428,0.1042 -0.0684,0.13868 -0.003,0.004 -0.005,0.0134 -0.008,0.0176 l 21.567,-11.436 c 0,-1.3042 0.26489,-3.5093 -0.22852,-3.5781 -0.0214,-0.41275 -4.4128,-0.90669 -6.7988,-0.9043 z m -14.539,15.918 -0.0176,0.01 c -0.0182,0.0214 -0.0373,0.0406 -0.0566,0.0566 0.0247,-0.0213 0.0515,-0.0368 0.0742,-0.0664 z m -0.11523,0.10547 c -0.0481,0.0286 -0.0978,0.0434 -0.15234,0.0371 0.0553,0.008 0.10518,-0.008 0.15234,-0.0371 z"
         stroke-linecap="square"
         stroke-linejoin="round"
         id="path279"
         style="fill:#964600;fill-opacity:1" />
      <path
         d="m 102.45,553.62 c -0.80498,0.4548 -0.67126,4.7276 0.15625,4.8661 l 6.1384,0.9375 c 0.90759,0.10415 0.92611,-4.9144 -0.0446,-5.0446 z"
         id="path281"
         style="fill:#964600;fill-opacity:1" />
      <path
         d="m 134,544.35 c -0.85439,8.6e-4 -1.4709,0.0617 -1.5925,0.20351 l -21.254,10.593 6.8925,0.81616 c 0.2867,0.0385 0.48437,0.48844 0.61265,1.0973 0.0291,0.12662 0.0547,0.28245 0.0755,0.449 0.004,0.0306 0.009,0.0522 0.0126,0.0839 0.11085,0.88985 0.0896,1.9322 -0.0546,2.7128 -0.0291,0.1576 -0.0614,0.29866 -0.10066,0.42802 -0.0367,0.12995 -0.0807,0.23275 -0.12798,0.3273 -0.0249,0.0479 -0.046,0.11193 -0.0735,0.14897 -0.003,0.004 -0.005,0.0144 -0.009,0.0189 l 22.284,-12.411 c 0,-1.401 0.28455,-3.5488 -0.24548,-3.6228 -0.023,-0.44339 -3.8565,-0.84773 -6.4196,-0.84516 z m -15.618,16.879 -0.0189,0.0107 c -0.0195,0.023 -0.0401,0.0436 -0.0608,0.0608 0.0265,-0.0229 0.0553,-0.0395 0.0797,-0.0713 z m -0.12379,0.1133 c -0.0517,0.0307 -0.10506,0.0466 -0.16365,0.0399 0.0594,0.009 0.11299,-0.009 0.16365,-0.0399 z"
         stroke-linejoin="round"
         id="path283"
         style="fill:#964600;fill-opacity:1" />
      <path
         d="m 111.15,555.15 c -0.86473,0.48856 -0.72108,5.0785 0.16785,5.2273 -0.35714,-0.0669 6.7726,1.0071 6.7726,1.0071 0.97496,0.11189 0.99486,-5.2792 -0.0479,-5.4191 z"
         id="path285"
         style="fill:#964600;fill-opacity:1" />
      <path
         d="m 143.44,545.7 c -0.85438,8.6e-4 -1.4709,0.0617 -1.5925,0.20352 l -21.566,11.084 6.8925,0.81617 c 0.2867,0.0385 0.48437,0.48844 0.61265,1.0973 0.0291,0.12662 0.0547,0.28244 0.0755,0.44899 0.004,0.0306 0.009,0.0522 0.0126,0.0839 0.11085,0.88986 0.0896,1.9322 -0.0546,2.7128 -0.0291,0.1576 -0.0614,0.29866 -0.10066,0.42802 -0.0367,0.12995 -0.0807,0.23275 -0.12798,0.32731 -0.0249,0.0479 -0.046,0.11192 -0.0735,0.14896 -0.003,0.004 -0.005,0.0144 -0.009,0.0189 l 22.596,-12.902 c 0,-1.401 0.28455,-3.5488 -0.24548,-3.6228 -0.023,-0.44338 -3.8565,-0.84772 -6.4196,-0.84516 z m -15.931,17.37 -0.0189,0.0107 c -0.0195,0.023 -0.0401,0.0436 -0.0608,0.0608 0.0265,-0.0229 0.0553,-0.0395 0.0797,-0.0713 z m -0.12378,0.1133 c -0.0517,0.0307 -0.10506,0.0466 -0.16365,0.0399 0.0594,0.009 0.11299,-0.009 0.16365,-0.0399 z"
         stroke-linejoin="round"
         id="path287"
         style="fill:#964600;fill-opacity:1" />
      <path
         d="m 120.28,556.99 c -0.86473,0.48856 -0.72109,5.0785 0.16785,5.2273 -0.35714,-0.0669 6.7726,1.0071 6.7726,1.0071 0.97496,0.11189 0.99485,-5.2792 -0.0479,-5.4191 z"
         id="path289"
         style="fill:#964600;fill-opacity:1" />
      <path
         d="m 163.3,547.94 c -0.85439,8.6e-4 -1.4709,0.0617 -1.5925,0.20351 l -22.683,12.334 6.8925,0.81617 c 0.2867,0.0385 0.48437,0.48844 0.61265,1.0973 0.0291,0.12662 0.0547,0.28245 0.0755,0.449 0.004,0.0306 0.009,0.0522 0.0126,0.0839 0.11085,0.88986 0.0896,1.9322 -0.0546,2.7128 -0.0291,0.1576 -0.0615,0.29865 -0.10066,0.42801 -0.0367,0.12995 -0.0807,0.23276 -0.12798,0.32731 -0.0249,0.0479 -0.046,0.11192 -0.0735,0.14896 -0.003,0.004 -0.005,0.0144 -0.009,0.0189 l 24.828,-14.241 c 0,-1.401 0.28455,-3.5488 -0.24548,-3.6228 -0.023,-0.44338 -4.9725,-0.75844 -7.5357,-0.75588 z m -17.047,18.62 -0.0189,0.0107 c -0.0195,0.023 -0.0401,0.0436 -0.0608,0.0608 0.0265,-0.0229 0.0553,-0.0395 0.0797,-0.0713 z m -0.12378,0.1133 c -0.0517,0.0307 -0.10506,0.0466 -0.16365,0.0399 0.0594,0.009 0.11299,-0.009 0.16365,-0.0399 z"
         stroke-linejoin="round"
         id="path291"
         style="fill:#964600;fill-opacity:1" />
      <path
         d="m 139.03,560.47 c -0.86473,0.48855 -0.72109,5.0785 0.16785,5.2273 -0.35714,-0.0669 6.7726,1.0071 6.7726,1.0071 0.97496,0.11189 0.99485,-5.2792 -0.0479,-5.4191 z"
         id="path293"
         style="fill:#964600;fill-opacity:1" />
      <path
         d="m 173.7,548.96 c -0.85439,8.5e-4 -1.4709,0.0617 -1.5925,0.20351 l -23.486,13.093 6.8925,0.81616 c 0.2867,0.0385 0.48437,0.48844 0.61265,1.0973 0.0291,0.12661 0.0547,0.28244 0.0755,0.44899 0.004,0.0306 0.009,0.0522 0.0126,0.0839 0.11085,0.88986 0.0896,1.9322 -0.0546,2.7128 -0.0291,0.1576 -0.0615,0.29866 -0.10066,0.42802 -0.0367,0.12995 -0.0807,0.23275 -0.12798,0.3273 -0.0249,0.0479 -0.046,0.11193 -0.0735,0.14897 -0.003,0.004 -0.005,0.0144 -0.009,0.0189 l 25.632,-15 c 0,-1.401 0.28455,-3.5488 -0.24548,-3.6227 -0.023,-0.44339 -4.9725,-0.75845 -7.5357,-0.75588 z m -17.85,19.379 -0.0189,0.0108 c -0.0195,0.023 -0.0401,0.0436 -0.0608,0.0608 0.0265,-0.0229 0.0553,-0.0395 0.0797,-0.0713 z m -0.12379,0.1133 c -0.0517,0.0307 -0.10506,0.0466 -0.16364,0.0399 0.0594,0.009 0.11298,-0.009 0.16364,-0.0399 z"
         stroke-linejoin="round"
         id="path295"
         style="fill:#964600;fill-opacity:1" />
      <path
         d="m 148.63,562.26 c -0.86473,0.48856 -0.72108,5.0785 0.16785,5.2273 -0.35713,-0.0669 6.7726,1.0071 6.7726,1.0071 0.97496,0.11189 0.99486,-5.2792 -0.0479,-5.4191 z"
         id="path297"
         style="fill:#964600;fill-opacity:1" />
      <path
         d="m 194.82,551.42 c -0.85438,8.6e-4 -1.4709,0.0617 -1.5925,0.20351 l -24.244,13.85 6.8925,0.81617 c 0.2867,0.0385 0.48437,0.48844 0.61266,1.0973 0.0291,0.12662 0.0547,0.28245 0.0755,0.449 0.004,0.0306 0.009,0.0522 0.0126,0.0839 0.11085,0.88986 0.0896,1.9322 -0.0546,2.7128 -0.0291,0.1576 -0.0614,0.29865 -0.10065,0.42801 -0.0367,0.12995 -0.0807,0.23276 -0.12799,0.32731 -0.0249,0.0479 -0.046,0.11192 -0.0735,0.14896 -0.003,0.004 -0.005,0.0144 -0.009,0.0189 l 26.389,-15.758 c 0,-1.401 0.28456,-3.5488 -0.24548,-3.6228 -0.023,-0.44339 -4.9725,-0.75845 -7.5357,-0.75588 z m -18.608,20.136 -0.0189,0.0107 c -0.0196,0.023 -0.0401,0.0436 -0.0608,0.0608 0.0265,-0.0229 0.0553,-0.0395 0.0797,-0.0713 z m -0.12378,0.1133 c -0.0517,0.0307 -0.10506,0.0466 -0.16365,0.0399 0.0594,0.009 0.11299,-0.009 0.16365,-0.0399 z"
         stroke-linejoin="round"
         id="path299"
         style="fill:#964600;fill-opacity:1" />
      <path
         d="m 168.98,565.47 c -0.86474,0.48855 -0.72109,5.0785 0.16785,5.2273 -0.35714,-0.0669 6.7726,1.0071 6.7726,1.0071 0.97495,0.11189 0.99485,-5.2792 -0.0479,-5.4191 z"
         id="path301"
         style="fill:#964600;fill-opacity:1" />
      <path
         d="m 206.06,552.49 c -0.85439,8.6e-4 -1.4709,0.0617 -1.5925,0.20352 l -25.317,14.671 6.8925,0.81616 c 0.2867,0.0385 0.48437,0.48845 0.61266,1.0973 0.0291,0.12662 0.0547,0.28244 0.0755,0.44899 0.004,0.0306 0.009,0.0522 0.0126,0.0839 0.11085,0.88986 0.0896,1.9322 -0.0546,2.7128 -0.0291,0.1576 -0.0614,0.29866 -0.10065,0.42802 -0.0367,0.12995 -0.0807,0.23275 -0.12799,0.32731 -0.0249,0.0479 -0.046,0.11192 -0.0735,0.14896 -0.003,0.004 -0.005,0.0144 -0.009,0.0189 l 27.463,-16.578 c 0,-1.401 0.28455,-3.5488 -0.24549,-3.6228 -0.023,-0.44338 -4.9725,-0.75844 -7.5357,-0.75588 z m -19.681,20.957 -0.0189,0.0107 c -0.0196,0.023 -0.0401,0.0436 -0.0608,0.0608 0.0265,-0.0229 0.0553,-0.0395 0.0797,-0.0713 z m -0.12378,0.11329 c -0.0517,0.0307 -0.10506,0.0466 -0.16365,0.0399 0.0594,0.009 0.11299,-0.009 0.16365,-0.0399 z"
         stroke-linejoin="round"
         id="path303"
         style="fill:#964600;fill-opacity:1" />
      <path
         d="m 179.15,567.37 c -0.86474,0.48856 -0.72109,5.0785 0.16785,5.2273 -0.35714,-0.0669 6.7726,1.0071 6.7726,1.0071 0.97495,0.11189 0.99485,-5.2792 -0.0479,-5.4191 z"
         id="path305"
         style="fill:#964600;fill-opacity:1" />
      <path
         d="m 215.9,553.42 c -0.85439,8.5e-4 -1.4709,0.0617 -1.5925,0.20351 l -25.942,15.385 7.7764,0.94243 c 0.2867,0.0385 0.48437,0.48844 0.61265,1.0973 0.0291,0.12662 0.0547,0.28245 0.0755,0.44899 0.004,0.0306 0.009,0.0522 0.0126,0.0839 0.11085,0.88986 0.0896,1.9322 -0.0546,2.7128 -0.0291,0.1576 -0.0614,0.29865 -0.10065,0.42801 -0.0367,0.12995 -0.0807,0.23275 -0.12799,0.32731 -0.0249,0.0479 -0.046,0.11192 -0.0735,0.14896 -0.003,0.004 -0.005,0.0144 -0.009,0.0189 l 28.088,-17.293 c 0,-1.401 0.28455,-3.5488 -0.24548,-3.6228 -0.023,-0.44339 -5.8564,-0.88471 -8.4196,-0.88214 z m -19.422,21.797 -0.0189,0.0107 c -0.0196,0.023 -0.0401,0.0436 -0.0608,0.0608 0.0265,-0.0229 0.0553,-0.0395 0.0797,-0.0713 z m -0.12379,0.1133 c -0.0517,0.0307 -0.10506,0.0466 -0.16364,0.0399 0.0594,0.009 0.11298,-0.009 0.16364,-0.0399 z"
         stroke-linejoin="round"
         id="path307"
         style="fill:#964600;fill-opacity:1" />
      <path
         d="m 188.36,569.01 c -0.86473,0.48856 -0.72109,5.0785 0.16785,5.2273 -0.35714,-0.0669 7.6565,1.1334 7.6565,1.1334 0.97496,0.11189 0.99486,-5.2792 -0.0479,-5.4191 z"
         id="path309"
         style="fill:#964600;fill-opacity:1" />
      <path
         d="m 239.47,556.19 c -0.85439,8.6e-4 -1.4709,0.0617 -1.5925,0.20352 l -27.013,16.725 7.7764,0.94243 c 0.2867,0.0385 0.48437,0.48844 0.61265,1.0973 0.0291,0.12662 0.0547,0.28245 0.0755,0.449 0.004,0.0306 0.009,0.0522 0.0126,0.0839 0.11085,0.88986 0.0896,1.9322 -0.0546,2.7128 -0.0291,0.1576 -0.0614,0.29866 -0.10066,0.42801 -0.0367,0.12995 -0.0807,0.23276 -0.12798,0.32731 -0.0249,0.0479 -0.046,0.11192 -0.0735,0.14896 -0.003,0.004 -0.005,0.0144 -0.009,0.0189 l 29.159,-18.632 c 0,-1.401 0.28456,-3.5488 -0.24548,-3.6228 -0.023,-0.44339 -5.8564,-0.88471 -8.4196,-0.88215 z m -20.494,23.137 -0.0189,0.0107 c -0.0196,0.023 -0.0401,0.0436 -0.0608,0.0608 0.0265,-0.0229 0.0553,-0.0395 0.0797,-0.0713 z m -0.12379,0.1133 c -0.0517,0.0307 -0.10506,0.0466 -0.16365,0.0399 0.0594,0.009 0.11299,-0.009 0.16365,-0.0399 z"
         stroke-linejoin="round"
         id="path311"
         style="fill:#964600;fill-opacity:1" />
      <path
         d="m 210.86,573.12 c -0.86474,0.48856 -0.72109,5.0785 0.16785,5.2273 -0.35714,-0.0669 7.6565,1.1334 7.6565,1.1334 0.97496,0.1119 0.99486,-5.2792 -0.0479,-5.4191 z"
         id="path313"
         style="fill:#964600;fill-opacity:1" />
      <path
         d="m 250.54,557.8 c -0.85439,8.6e-4 -1.4709,0.0617 -1.5925,0.20351 l -27.013,16.725 7.7764,0.94243 c 0.2867,0.0385 0.48437,0.48844 0.61265,1.0973 0.0291,0.12661 0.0547,0.28244 0.0755,0.44899 0.004,0.0306 0.009,0.0522 0.0126,0.0839 0.11085,0.88986 0.0896,1.9322 -0.0546,2.7128 -0.0291,0.1576 -0.0615,0.29866 -0.10066,0.42802 -0.0367,0.12995 -0.0807,0.23275 -0.12798,0.3273 -0.0249,0.0479 -0.046,0.11193 -0.0735,0.14897 -0.003,0.004 -0.005,0.0144 -0.009,0.0189 l 29.159,-18.632 c 0,-1.401 0.28456,-3.5488 -0.24548,-3.6228 -0.023,-0.44338 -5.8564,-0.88471 -8.4196,-0.88214 z m -20.494,23.137 -0.0189,0.0108 c -0.0195,0.023 -0.0401,0.0436 -0.0608,0.0608 0.0265,-0.0229 0.0553,-0.0395 0.0797,-0.0713 z m -0.12379,0.1133 c -0.0517,0.0307 -0.10506,0.0466 -0.16365,0.0399 0.0594,0.009 0.11299,-0.009 0.16365,-0.0399 z"
         stroke-linejoin="round"
         id="path315"
         style="fill:#964600;fill-opacity:1" />
      <path
         d="m 221.94,574.72 c -0.86474,0.48856 -0.72109,5.0785 0.16785,5.2273 -0.35714,-0.0669 7.6565,1.1334 7.6565,1.1334 0.97496,0.11189 0.99486,-5.2792 -0.0479,-5.4191 z"
         id="path317"
         style="fill:#964600;fill-opacity:1" />
      <path
         d="m 272.78,559.85 c -0.85439,8.6e-4 -1.4709,0.0617 -1.5925,0.20351 l -27.817,18.778 7.7764,0.94244 c 0.2867,0.0385 0.48437,0.48844 0.61265,1.0973 0.0291,0.12662 0.0547,0.28244 0.0755,0.44899 0.004,0.0306 0.009,0.0522 0.0126,0.0839 0.11085,0.88986 0.0896,1.9322 -0.0546,2.7128 -0.0291,0.1576 -0.0614,0.29865 -0.10066,0.42801 -0.0367,0.12995 -0.0807,0.23275 -0.12798,0.32731 -0.0249,0.0479 -0.046,0.11192 -0.0735,0.14896 -0.003,0.004 -0.005,0.0144 -0.009,0.0189 l 29.963,-20.685 c 0,-1.401 0.28455,-3.5488 -0.24548,-3.6227 -0.023,-0.44339 -5.8564,-0.88472 -8.4196,-0.88215 z m -21.297,25.19 -0.0189,0.0107 c -0.0196,0.023 -0.0401,0.0436 -0.0608,0.0608 0.0265,-0.0229 0.0553,-0.0395 0.0797,-0.0713 z m -0.12379,0.1133 c -0.0517,0.0307 -0.10506,0.0466 -0.16365,0.0399 0.0594,0.009 0.11299,-0.009 0.16365,-0.0399 z"
         stroke-linejoin="round"
         id="path319"
         style="fill:#964600;fill-opacity:1" />
      <path
         d="m 243.36,578.83 c -0.86474,0.48856 -0.72109,5.0785 0.16785,5.2273 -0.35714,-0.0669 7.6565,1.1334 7.6565,1.1334 0.97496,0.11189 0.99486,-5.2792 -0.0479,-5.4191 z"
         id="path321"
         style="fill:#964600;fill-opacity:1" />
      <path
         d="m 285.19,561.01 c -0.85439,8.6e-4 -1.4709,0.0617 -1.5925,0.20351 l -28.621,19.671 7.7764,0.94243 c 0.2867,0.0385 0.48437,0.48844 0.61265,1.0973 0.0291,0.12662 0.0547,0.28245 0.0755,0.44899 0.004,0.0306 0.009,0.0522 0.0126,0.0839 0.11085,0.88986 0.0896,1.9322 -0.0546,2.7128 -0.0291,0.1576 -0.0614,0.29865 -0.10066,0.42801 -0.0367,0.12995 -0.0807,0.23275 -0.12798,0.32731 -0.0249,0.0479 -0.046,0.11192 -0.0735,0.14896 -0.003,0.004 -0.005,0.0144 -0.009,0.0189 l 30.766,-21.578 c 0,-1.401 0.28455,-3.5488 -0.24549,-3.6228 -0.023,-0.44339 -5.8564,-0.88471 -8.4196,-0.88214 z m -22.101,26.083 -0.0189,0.0107 c -0.0195,0.023 -0.0401,0.0436 -0.0608,0.0608 0.0265,-0.0229 0.0553,-0.0395 0.0797,-0.0713 z m -0.12379,0.1133 c -0.0517,0.0307 -0.10506,0.0466 -0.16365,0.0399 0.0594,0.009 0.11299,-0.009 0.16365,-0.0399 z"
         stroke-linejoin="round"
         id="path323"
         style="fill:#964600;fill-opacity:1" />
      <path
         d="m 254.97,580.88 c -0.86474,0.48856 -0.72109,5.0785 0.16785,5.2273 -0.35714,-0.0669 7.6565,1.1334 7.6565,1.1334 0.97496,0.11189 0.99486,-5.2792 -0.0479,-5.4191 z"
         id="path325"
         style="fill:#964600;fill-opacity:1" />
      <path
         d="m 298.22,562.44 c -0.85438,8.6e-4 -1.4263,0.41881 -1.5478,0.56066 l -29.647,20.251 7.9996,0.94243 c 0.2867,0.0385 0.48437,0.48844 0.61265,1.0973 0.0291,0.12662 0.0547,0.28245 0.0755,0.449 0.004,0.0306 0.009,0.0522 0.0126,0.0839 0.11085,0.88986 0.17888,2.2001 0.0347,2.9807 -0.0291,0.1576 -0.0614,0.29865 -0.10066,0.42801 -0.0367,0.12995 -0.0807,0.23276 -0.12798,0.32731 -0.0249,0.0479 -0.046,0.11192 -0.0735,0.14896 -0.003,0.004 -0.005,0.0144 -0.009,0.0189 l 31.481,-22.427 c 0,-1.401 0.28455,-3.9953 -0.24548,-4.0692 -0.023,-0.44338 -5.9011,-0.79542 -8.4642,-0.79285 z m -22.771,27.289 -0.0189,0.0107 c -0.0196,0.023 -0.0401,0.0436 -0.0608,0.0608 0.0265,-0.0229 0.0553,-0.0395 0.0797,-0.0713 z m -0.12379,0.1133 c -0.0517,0.0307 -0.10506,0.0466 -0.16365,0.0399 0.0594,0.009 0.11299,-0.009 0.16365,-0.0399 z"
         stroke-linejoin="round"
         id="path327"
         style="fill:#964600;fill-opacity:1" />
      <path
         d="m 267.03,583.25 c -0.86473,0.48856 -0.63179,5.3463 0.25714,5.4951 -0.35713,-0.0669 7.8797,1.1334 7.8797,1.1334 0.97496,0.11189 0.90557,-5.5471 -0.1372,-5.687 z"
         id="path329"
         style="fill:#964600;fill-opacity:1" />
      <path
         d="m 323.85,565.52 c -0.85439,8.6e-4 -1.4263,0.41881 -1.5478,0.56066 l -30.451,21.635 9.7853,1.1656 c 0.2867,0.0385 0.48437,0.48844 0.61265,1.0973 0.0291,0.12662 0.0547,0.28245 0.0755,0.449 0.004,0.0306 0.009,0.0522 0.0126,0.0839 0.11085,0.88986 0.17888,2.2001 0.0347,2.9807 -0.0291,0.1576 -0.0614,0.29865 -0.10066,0.42801 -0.0367,0.12995 -0.0807,0.23276 -0.12798,0.32731 -0.0249,0.0479 -0.046,0.11192 -0.0735,0.14896 -0.003,0.004 -0.005,0.0144 -0.009,0.0189 l 31.213,-23.855 c 0,-1.401 0.28455,-3.9953 -0.24548,-4.0692 -0.023,-0.44339 -11.742,-0.97142 -9.1785,-0.97142 z m -21.788,28.896 -0.0189,0.0107 c -0.0195,0.023 -0.0401,0.0436 -0.0608,0.0608 0.0265,-0.0229 0.0553,-0.0395 0.0797,-0.0713 z m -0.12379,0.1133 c -0.0517,0.0307 -0.10506,0.0466 -0.16364,0.0399 0.0594,0.009 0.11298,-0.009 0.16364,-0.0399 z"
         stroke-linejoin="round"
         id="path331"
         style="fill:#964600;fill-opacity:1" />
      <path
         d="m 291.85,587.72 c -0.86473,0.48856 -0.63179,5.3463 0.25714,5.4951 -0.35713,-0.0669 9.6654,1.3566 9.6654,1.3566 0.97496,0.11189 0.90557,-5.5471 -0.1372,-5.687 z"
         id="path333"
         style="fill:#964600;fill-opacity:1" />
      <path
         d="m 336.13,566.85 c -0.85439,8.6e-4 -1.4263,0.41881 -1.5478,0.56066 l -29.964,22.311 9.8523,1.3442 c 0.2867,0.0385 0.48437,0.48844 0.61266,1.0973 0.0291,0.12662 0.0547,0.28245 0.0755,0.449 0.004,0.0306 0.009,0.0522 0.0126,0.0839 0.11085,0.88986 3e-4,2.2447 -0.14388,3.0254 -0.0291,0.1576 -0.0614,0.29866 -0.10065,0.42802 -0.0367,0.12995 -0.0807,0.23275 -0.12799,0.3273 -0.0249,0.0479 -0.046,0.11193 -0.0735,0.14897 -0.003,0.004 -0.005,0.0144 -0.009,0.0189 l 31.28,-24.123 c 0,-1.401 0.24757,-4.7751 -0.28247,-4.849 -0.023,-0.44339 -12.147,-0.82294 -9.5834,-0.82294 z m -21.414,29.795 -0.0189,0.0108 c -0.0195,0.023 -0.0401,0.0436 -0.0608,0.0608 0.0265,-0.0229 0.0553,-0.0395 0.0797,-0.0713 z m -0.12378,0.1133 c -0.0517,0.0307 -0.10506,0.0466 -0.16365,0.0399 0.0594,0.009 0.11299,-0.009 0.16365,-0.0399 z"
         stroke-linejoin="round"
         id="path335"
         style="fill:#964600;fill-opacity:1" />
      <path
         d="m 304.61,589.72 c -0.86474,0.48856 -0.85501,5.882 0.0338,6.0308 -0.35714,-0.0669 9.777,1.0441 9.777,1.0441 0.97496,0.11189 1.0841,-5.5917 0.0414,-5.7316 z"
         id="path337"
         style="fill:#964600;fill-opacity:1" />
      <path
         d="m 362.82,569.79 c -0.85438,8.6e-4 -1.4263,0.41881 -1.5478,0.56066 l -29.902,24.124 9.8523,1.3442 c 0.2867,0.0385 0.48437,0.48844 0.61266,1.0973 0.0291,0.12662 0.0547,0.28245 0.0755,0.449 0.004,0.0306 0.009,0.0522 0.0126,0.0839 0.11085,0.88986 3e-4,2.2447 -0.14388,3.0254 -0.0291,0.1576 -0.0614,0.29866 -0.10065,0.42802 -0.0367,0.12995 -0.0807,0.23275 -0.12799,0.3273 -0.0249,0.0479 -0.046,0.11193 -0.0735,0.14897 -0.003,0.004 -0.005,0.0144 -0.009,0.0189 l 31.842,-26.123 c 0,-1.401 0.24757,-4.7751 -0.28247,-4.849 -0.023,-0.44338 -12.772,-0.63544 -10.208,-0.63544 z m -21.351,31.607 -0.0189,0.0108 c -0.0195,0.023 -0.0401,0.0436 -0.0608,0.0608 0.0265,-0.0229 0.0553,-0.0395 0.0797,-0.0713 z m -0.12378,0.1133 c -0.0517,0.0307 -0.10506,0.0466 -0.16365,0.0399 0.0594,0.009 0.11299,-0.009 0.16365,-0.0399 z"
         stroke-linejoin="round"
         id="path339"
         style="fill:#964600;fill-opacity:1" />
      <path
         d="m 376.52,570.89 c -0.85439,8.6e-4 -1.4263,0.41881 -1.5478,0.56067 l -30.672,25.272 9.8523,1.3442 c 0.2867,0.0385 0.48437,0.48844 0.61266,1.0973 0.0291,0.12662 0.0547,0.28245 0.0755,0.449 0.004,0.0306 0.009,0.0522 0.0126,0.0839 0.11085,0.88986 3e-4,2.2447 -0.14388,3.0254 -0.0291,0.1576 -0.0614,0.29866 -0.10065,0.42802 -0.0367,0.12995 -0.0807,0.23275 -0.12799,0.3273 -0.0249,0.0479 -0.046,0.11193 -0.0735,0.14897 -0.003,0.004 -0.005,0.0144 -0.009,0.0189 l 32.826,-27.128 c 0,-1.401 -0.19437,-4.7309 -0.7244,-4.8048 -0.023,-0.44339 -12.544,-0.82295 -9.9812,-0.82295 z m -22.121,32.756 -0.0189,0.0108 c -0.0195,0.023 -0.0401,0.0436 -0.0608,0.0608 0.0265,-0.0229 0.0553,-0.0395 0.0797,-0.0713 z m -0.12378,0.1133 c -0.0517,0.0307 -0.10506,0.0466 -0.16365,0.0399 0.0594,0.009 0.11299,-0.009 0.16365,-0.0399 z"
         stroke-linejoin="round"
         id="path341"
         style="fill:#964600;fill-opacity:1" />
      <path
         d="m 344.3,596.72 c -0.86474,0.48856 -0.85501,5.882 0.0338,6.0308 -0.35714,-0.0669 9.777,1.0441 9.777,1.0441 0.97496,0.11189 1.0841,-5.5917 0.0414,-5.7316 z"
         id="path343"
         style="fill:#964600;fill-opacity:1" />
      <path
         d="m 331.36,594.47 c -0.86474,0.48856 -0.85501,5.882 0.0338,6.0308 -0.35714,-0.0669 9.777,1.0441 9.777,1.0441 0.97496,0.11189 1.0841,-5.5917 0.0414,-5.7316 z"
         id="path345"
         style="fill:#964600;fill-opacity:1" />
      <path
         d="m 390.46,572.45 c -0.85438,8.6e-4 -1.4263,0.41881 -1.5478,0.56066 l -30.609,25.938 9.8523,1.3442 c 0.2867,0.0385 0.5,0.59 0.62829,1.1989 0.0291,0.12662 0.0547,0.28245 0.0755,0.44899 0.004,0.0306 0.009,0.0522 0.0126,0.0839 0.11085,0.88986 3e-4,2.2447 -0.14388,3.0254 -0.0291,0.1576 -0.0614,0.29866 -0.10065,0.42801 -0.0367,0.12995 -0.0807,0.23276 -0.12799,0.32731 -0.0249,0.0479 -0.046,0.11192 -0.0735,0.14896 -0.003,0.004 -0.005,0.0144 -0.009,0.0189 l 32.248,-27.521 c 0.375,-0.83854 0.30562,-5.1059 -0.22441,-5.1798 -0.023,-0.44339 -12.544,-0.82295 -9.9812,-0.82295 z m -22.043,33.524 -0.0189,0.0107 c -0.0195,0.023 -0.0401,0.0436 -0.0608,0.0608 0.0265,-0.0229 0.0553,-0.0395 0.0797,-0.0713 z m -0.12378,0.1133 c -0.0517,0.0307 -0.10506,0.0466 -0.16365,0.0399 0.0594,0.009 0.11299,-0.009 0.16365,-0.0399 z"
         stroke-linejoin="round"
         id="path347"
         style="fill:#964600;fill-opacity:1" />
      <path
         d="m 358.3,598.95 c -0.86474,0.48856 -0.85501,5.882 0.0338,6.0308 -0.35714,-0.0669 9.7926,1.1456 9.7926,1.1456 0.97496,0.1119 1.0685,-5.6933 0.0257,-5.8332 z"
         id="path349"
         style="fill:#964600;fill-opacity:1" />
      <path
         d="m 420.86,575.65 c -0.85438,8.5e-4 -1.4263,0.4188 -1.5478,0.56066 l -30.255,28.236 11.841,1.6094 c 0.2867,0.0385 0.5,0.59 0.62829,1.1989 0.0291,0.12662 0.0547,0.28245 0.0755,0.449 0.004,0.0306 0.009,0.0522 0.0126,0.0839 0.11085,0.88986 -0.0309,2.5572 -0.17513,3.3378 -0.0291,0.1576 -0.0614,0.29866 -0.10065,0.42802 -0.0367,0.12995 -0.0807,0.23275 -0.12799,0.32731 -0.0249,0.0479 -0.046,0.11192 -0.0735,0.14896 -0.003,0.004 -0.005,0.0144 -0.009,0.0189 l 30.644,-30.441 c 0.375,-0.83854 0.30562,-5.1059 -0.22441,-5.1798 -0.023,-0.44339 -13.251,-0.77875 -10.688,-0.77875 z m -19.731,36.399 -0.0189,0.0107 c -0.0195,0.023 -0.0401,0.0436 -0.0608,0.0608 0.0265,-0.0229 0.0553,-0.0395 0.0797,-0.0713 z m -0.12378,0.1133 c -0.0517,0.0307 -0.10506,0.0466 -0.16365,0.0399 0.0594,0.009 0.11299,-0.009 0.16365,-0.0399 z"
         stroke-linejoin="round"
         id="path351"
         style="fill:#964600;fill-opacity:1" />
      <path
         d="m 389.05,604.45 c -0.86474,0.48856 -0.88626,6.1945 0.002,6.3434 -0.35714,-0.0669 11.781,1.4108 11.781,1.4108 0.97496,0.11189 1.0998,-6.0058 0.0569,-6.1457 z"
         id="path353"
         style="fill:#964600;fill-opacity:1" />
      <path
         d="m 436.85,577.64 c -0.85439,8.6e-4 -1.4263,0.41881 -1.5478,0.56066 l -30.167,29.076 11.841,1.6094 c 0.2867,0.0385 0.5,0.59 0.62829,1.1989 0.0291,0.12662 0.0547,0.28244 0.0755,0.44899 0.004,0.0306 0.009,0.0522 0.0126,0.0839 0.11085,0.88986 -0.0309,2.5572 -0.17513,3.3378 -0.0291,0.1576 -0.0614,0.29866 -0.10065,0.42802 -0.0367,0.12995 -0.0807,0.23275 -0.12799,0.3273 -0.0249,0.0479 -0.046,0.11193 -0.0735,0.14897 -0.003,0.004 -0.005,0.0144 -0.009,0.0189 l 30.556,-31.28 c 0.375,-0.83853 0.30563,-5.1059 -0.22441,-5.1798 -0.023,-0.44339 -13.251,-0.77875 -10.688,-0.77875 z m -19.643,37.239 -0.0189,0.0107 c -0.0195,0.023 -0.0401,0.0436 -0.0608,0.0608 0.0265,-0.0229 0.0553,-0.0395 0.0797,-0.0713 z m -0.12378,0.1133 c -0.0517,0.0307 -0.10506,0.0466 -0.16365,0.0399 0.0594,0.009 0.11299,-0.009 0.16365,-0.0399 z"
         stroke-linejoin="round"
         id="path355"
         style="fill:#964600;fill-opacity:1" />
      <path
         d="m 405.14,607.28 c -0.86474,0.48856 -0.88626,6.1946 0.002,6.3434 -0.35714,-0.0669 11.781,1.4108 11.781,1.4108 0.97496,0.11189 1.0998,-6.0058 0.0569,-6.1457 z"
         id="path357"
         style="fill:#964600;fill-opacity:1" />
      <path
         d="m 468.84,580.75 c -0.85439,8.6e-4 -1.4263,0.41881 -1.5478,0.56066 l -28.448,31.889 13.404,1.6094 c 0.2867,0.0385 0.5,0.58999 0.62828,1.1989 0.0291,0.12662 0.0547,0.28244 0.0755,0.44899 0.004,0.0306 0.009,0.0522 0.0126,0.0839 0.11085,0.88986 -0.0309,2.5572 -0.17513,3.3378 -0.0291,0.1576 -0.0614,0.29866 -0.10066,0.42802 -0.0367,0.12995 -0.0807,0.23275 -0.12798,0.3273 -0.0249,0.0479 -0.046,0.11193 -0.0735,0.14897 -0.003,0.004 -0.005,0.0144 -0.009,0.0189 l 29.025,-33.218 c 0.375,-0.83853 0.30562,-5.1059 -0.22441,-5.1798 -0.023,-0.44339 -15.001,-1.6538 -12.438,-1.6538 z m -16.362,40.051 -0.0189,0.0107 c -0.0195,0.023 -0.0401,0.0436 -0.0608,0.0608 0.0265,-0.0229 0.0553,-0.0395 0.0797,-0.0713 z m -0.12378,0.1133 c -0.0517,0.0307 -0.10506,0.0466 -0.16365,0.0399 0.0594,0.009 0.11299,-0.009 0.16365,-0.0399 z"
         stroke-linejoin="round"
         id="path359"
         style="fill:#964600;fill-opacity:1" />
      <path
         d="m 438.85,613.2 c -0.86473,0.48856 -0.88626,6.1946 0.002,6.3434 -0.35714,-0.0669 13.344,1.4108 13.344,1.4108 0.97496,0.11189 1.0998,-6.0058 0.0569,-6.1457 z"
         id="path361"
         style="fill:#964600;fill-opacity:1" />
    </g>
  </g>
</svg>
