<?xml version="1.0" encoding="UTF-8" standalone="no"?>
<svg
   xmlns:dc="http://purl.org/dc/elements/1.1/"
   xmlns:cc="http://creativecommons.org/ns#"
   xmlns:rdf="http://www.w3.org/1999/02/22-rdf-syntax-ns#"
   xmlns:svg="http://www.w3.org/2000/svg"
   xmlns="http://www.w3.org/2000/svg"
   xmlns:sodipodi="http://sodipodi.sourceforge.net/DTD/sodipodi-0.dtd"
   xmlns:inkscape="http://www.inkscape.org/namespaces/inkscape"
   version="1.1"
   id="レイヤー_1"
   x="0px"
   y="0px"
   width="88mm"
   height="125mm"
   viewBox="0 0 332.59843 472.44094"
   xml:space="preserve"
   sodipodi:docname="walking_stick.svg"
   inkscape:version="1.0.2-2 (e86c870879, 2021-01-15)"><metadata
   id="metadata611"><rdf:RDF><cc:Work
       rdf:about=""><dc:format>image/svg+xml</dc:format><dc:type
         rdf:resource="http://purl.org/dc/dcmitype/StillImage" /><dc:title></dc:title></cc:Work></rdf:RDF></metadata><defs
   id="defs609" /><sodipodi:namedview
   pagecolor="#ffffff"
   bordercolor="#666666"
   borderopacity="1"
   objecttolerance="10"
   gridtolerance="10"
   guidetolerance="10"
   inkscape:pageopacity="0"
   inkscape:pageshadow="2"
   inkscape:window-width="1920"
   inkscape:window-height="1017"
   id="namedview607"
   showgrid="false"
   units="mm"
   inkscape:zoom="0.60104076"
   inkscape:cx="538.4975"
   inkscape:cy="557.50259"
   inkscape:window-x="-8"
   inkscape:window-y="-8"
   inkscape:window-maximized="1"
   inkscape:current-layer="レイヤー_1" />
<style
   type="text/css"
   id="style2">
	.st0{fill:#715D1A;}
	.st1{fill:#7F7328;}
	.st2{fill:#8D872E;}
	.st3{fill:#A8C432;}
	.st4{fill:#AEC70E;}
	.st5{fill:#CAE012;}
</style>
<g
   id="g604"
   transform="matrix(0.47382316,0,0,0.47382316,-71.27612,-4.328326)">
	<path
   class="st0"
   d="m 512.25,990.57 c -1.73,3.83 -4.82,5.37 -7.93,6.96 -1.3,0.66 -3.64,0.36 -2.75,3.22 -0.02,0.25 -0.46,0.25 -1.24,0.25 1.81,-1.76 0.2,-2.49 -1.28,-2.94 -8.63,-2.62 -10.34,-8.79 -9.97,-17.05 0.62,-13.9 1.68,-27.84 -1.63,-41.72 -1.21,-5.08 0.25,-10.73 0,-16.1 -0.73,-15.77 -2.27,-31.53 -1.28,-47.33 0.71,-11.4 -2.37,-22.47 -2.54,-33.78 -0.17,-11.13 0.04,-22.3 -0.88,-33.38 -1.52,-18.27 0.98,-36.47 -0.01,-54.78 -0.71,-13.02 -1.79,-26.34 0.78,-39.5 1.32,-6.79 -0.72,-13.85 0.35,-20.77 0.31,-1.97 0.8,-3.91 1.3,-6.25 1.45,-4.11 0.96,-7.89 0.32,-12.02 -0.19,-0.79 -0.29,-1.23 -0.35,-2.02 1.06,-1.23 1.97,-0.75 3.12,0.19 1.06,1.65 1.43,3.16 1.86,5.06 0.16,1.15 0.17,1.93 0.21,3.1 0.01,1.44 -0.02,2.48 -0.01,3.93 -0.02,1.21 -0.13,2.01 -0.33,3.21 -0.78,2.54 -0.6,4.75 -0.61,7.37 -1.64,11.92 -1.51,23.55 -2.71,35.09 -0.41,3.91 -0.85,8.01 2.32,11.3 0.59,0.61 0.72,1.55 0.43,2.35 -3.67,10.16 -1.28,20.71 -2.01,31.06 -0.09,1.32 -0.02,2.65 -0.04,4.39 -0.04,1.06 -0.02,1.75 -0.26,2.36 -1.59,4.11 -0.55,7.3 3.33,9.92 0.05,0.59 0.01,0.83 -0.22,1.36 -3.51,2.01 -3.23,4.8 -2.33,8.09 0.31,1.33 0.39,2.32 0.46,3.72 -0.31,4.43 0.49,8.34 1.43,12.65 0.51,2.6 -0.33,4.67 -0.72,7.19 -1.17,3.78 -0.5,7.3 -0.78,10.75 -0.03,0.33 -0.1,0.84 0.09,0.96 4.79,3.1 3.02,6.29 0.24,9.6 -0.36,0.42 -0.2,1.3 -0.07,1.95 1.51,7.48 1.73,15.09 2.45,23.06 0.57,2.9 0.45,5.43 0.46,8.38 -0.32,4.66 -2.97,9.14 1.67,12.84 1.05,0.84 -0.16,2.16 -1.08,2.89 -2.4,1.9 -2.93,4.61 -2.44,7.24 1.89,10.14 2.23,20.51 2.93,30.67 0.54,7.93 1.31,16.11 0.93,24.19 -0.12,2.67 -0.07,5.34 0.93,8.31 -1.95,6.1 -1.33,12.1 -2.02,18.32 -0.6,2.79 -0.36,5 2.01,6.86 0.98,0.64 1.57,1.22 2.32,1.65 -1.01,-1.32 -1.94,-2.7 -3.28,-4.19 -0.51,-0.59 -0.74,-0.96 -0.97,-1.68 -0.06,-0.52 -0.05,-0.72 0.02,-1.22 0.34,-0.88 0.09,-1.47 0.1,-2.38 -0.06,-2.79 0.64,-5.27 0.39,-7.68 -0.47,-4.55 1.32,-7.27 5.96,-8.62 0.98,-0.42 1.68,-0.47 2.69,-0.18 0.69,0.46 0.82,1.24 1.12,1.29 4.6,0.75 6.7,3.11 6.47,8.03 -0.12,2.54 0.25,5.2 0.31,8.16 0.01,0.57 0.01,0.8 0.02,1.38 0.35,0.86 -1.39,0.77 -0.17,1.8 0.4,1.3 0.04,2.13 -0.82,3.12 -1.26,0.88 -2.55,1.12 -3.27,2.3 0.74,-0.27 1.15,-0.94 2.12,-1.37 3.47,-1.8 2.59,-4.52 2.14,-7.54 -0.07,-2.72 0.08,-5.03 -0.3,-7.35 -0.35,-2.18 -0.22,-4.34 3.15,-5.43 0.22,6.29 0.09,12.32 -0.13,18.76 z"
   id="path4" />
	<path
   class="st0"
   d="m 452.63,364.7 c 5.26,5.59 8,12.19 10.36,18.96 4.66,13.41 12.85,24.24 23.99,32.87 1.32,1.03 1.57,3.46 5.15,3.06 -5.42,-5.5 -3.71,-12.87 -6.93,-18.73 -1.65,-3 -1.1,-5.76 1.15,-8.16 2.19,-2.34 3.73,-4.96 4.51,-8.42 0.72,-0.44 1.18,-0.3 1.75,0.45 0.11,6.97 1.61,13.6 -0.86,20.25 -2.14,5.75 0.55,10.86 7.26,15.73 0.24,0.87 0.05,1.32 -0.69,1.9 -4.88,0.74 -6.21,3.5 -6.04,7.78 0.23,5.47 -0.07,10.99 5.23,14.62 0.67,0.46 0.86,1.38 0.46,2.62 -3.67,3.09 -4.48,6.72 -4.5,10.98 -0.07,21.46 1.63,42.88 0.99,64.35 -0.16,5.33 -1.46,10.56 -1.08,16.37 -1.19,14.8 -1.84,29.07 -0.24,43.53 1.37,12.31 0.31,24.85 0.31,37.72 -0.09,1.24 -0.14,2.06 -0.34,3.25 -0.51,1.97 -1.06,3.56 -0.49,5.59 0.24,1.02 0.29,1.72 0.19,2.76 -0.18,0.78 -0.34,1.21 -0.68,1.92 -0.26,0.49 -0.37,0.67 -0.67,1.13 -1.17,1.3 -1.16,2.5 -0.67,4.09 0.26,1.51 0.14,2.65 -0.67,3.99 -1.78,1.68 -2.42,3.56 -2.87,5.51 -0.46,2.04 -1.41,3.81 -3.23,4.82 -2.9,1.6 -4.09,4.19 -4.96,7.48 -1.24,0.75 -2.19,0.7 -3.27,-0.3 -0.1,-0.61 -0.02,-0.88 0.25,-1.52 0.57,-1.15 0.38,-2.01 0.72,-3.07 10.55,-9.42 10.82,-22.24 12.14,-34.47 2.19,-20.12 0.08,-40.21 -2,-60.22 -0.65,-6.28 -5.43,-10.74 -9.67,-15.57 -0.47,-0.31 -0.64,-0.44 -1.07,-0.75 -0.26,-0.19 -0.19,-0.24 -0.22,-0.21 -0.21,-0.46 -0.1,-0.88 0.58,-1.41 0.56,-0.18 0.8,-0.2 1.39,-0.16 2.74,0.85 3.85,2.9 5.19,4.79 0.55,0.77 1.16,2.53 2.51,1.08 0.78,-0.83 0.78,-2.66 -0.44,-2.99 -3.07,-0.83 -3.88,-3.92 -6.42,-5.72 -0.94,-1 -1.42,-1.83 -1.17,-3.23 2.62,-0.56 4.23,1.02 5.59,2.66 1,1.21 1.74,2.4 3.54,1.81 1.8,-0.59 1.71,-2.18 2,-3.64 1.32,-6.56 1.52,-13.23 1.71,-19.86 0.56,-19.8 -0.52,-39.59 -0.88,-59.39 -0.08,-4.15 0.14,-8.22 0.85,-12.37 0.7,-4.05 -1.36,-7.98 -3.11,-11.62 -1.7,-3.54 -3.76,-6.9 -4.74,-10.77 -0.61,-2.4 -2.51,-3.84 -4.29,-5.34 -12.64,-10.66 -20.61,-24.59 -27.53,-39.25 -0.7,-1.49 -1.54,-2.93 -2.43,-4.74 -0.06,-0.6 0.01,-0.84 0.44,-1.19 3.35,0.45 3.97,3.12 5.04,5.28 2.35,4.77 4.25,9.76 7.7,14.35 5.61,9.33 11.9,17.58 20.22,24.21 5.16,4.11 5.82,5.91 6.97,14.54 -1.33,-9.49 -1.24,-9.59 -8.43,-16.52 -6.15,-5.92 -11.71,-12.24 -15.96,-20.1 -0.51,-0.89 -0.22,-0.12 -0.42,-0.75 -3.96,-12.46 -10.51,-23.53 -18.15,-34.03 -0.39,-0.54 -0.42,-1.25 -0.38,-2.3 0.18,-0.61 0.31,-0.84 0.82,-1.08 2.13,1.99 3.88,3.98 5.74,6.29 0.27,0.51 0.41,0.69 0.75,1.14 z"
   id="path6" />
	<path
   class="st1"
   d="m 441.51,40.95 c 2.26,3.6 2.61,7.48 3.56,11.6 0.08,0.57 0.2,0.74 0.27,1.21 -0.31,1.06 -0.36,1.88 -0.66,2.94 -0.18,0.75 -0.92,1.22 0.08,1.96 1.66,4.79 2.69,9.41 3.27,14.14 0.08,0.65 0.29,1.28 0.41,1.92 0.02,-0.78 -0.31,-1.57 0.32,-2.59 2.8,4.97 3.86,9.8 1.16,15.83 -3.77,8.42 -5.96,17.55 -8.97,26.71 -0.37,0.41 -0.6,0.48 -1.11,0.31 -1.25,-2.03 -0.64,-3.79 -0.28,-5.59 -3.82,12.85 -9.3,25.16 -12.65,38.56 -2.01,6.1 -3.42,12.02 -5.84,18.01 -4.6,14.83 -10.04,28.99 -13.97,44.04 -0.26,0.86 -0.45,1.34 -0.82,2.16 -0.27,0.58 -0.38,0.81 -0.68,1.37 -3.11,8.39 -4.95,16.77 -7.79,25.25 -4.56,10.96 -7.39,22.1 -11.17,33.31 -0.98,1.04 -1.25,1.94 -1.35,3.31 -1.35,2.35 -0.66,4.68 -1.25,6.25 -0.12,-1.22 0.72,-2.92 0.61,-5.03 0.88,-1.07 0.83,-2.04 1.12,-3.28 4.41,-7.18 5.41,-15.34 9.22,-22.76 0.09,-0.81 1.66,-0.47 0.55,-1.69 -0.43,-1.05 -0.42,-1.79 -0.1,-2.89 2.46,-3.86 3.25,-7.93 4.45,-11.85 0.71,-2.31 0.92,-4.93 3.79,-6.19 -2.9,11.23 -6.23,22.34 -9.42,33.48 -1.41,4.91 -3.24,9.61 -5.37,14.25 -1.33,2.9 -2.31,5.78 2.14,8.09 2.79,1.45 4.27,5.34 6.45,8.05 12.21,15.1 23.62,30.8 34.94,46.56 4.36,6.07 9,11.92 13.62,18.21 -0.24,0.65 -0.55,1.01 -1.13,1.56 -3.09,-0.5 -4.09,-3.01 -5.5,-4.96 -13.77,-19.19 -28.43,-37.7 -42.54,-56.62 -2.37,-3.19 -5.46,-5.71 -8,-9.24 -1.3,2 -0.16,2.95 0.53,3.89 3.82,5.23 7.86,10.3 11.58,15.61 1.45,2.06 2.82,4.1 3.18,6.97 -0.32,0.45 -0.53,0.55 -1.07,0.51 -7.28,-8.38 -13.17,-17.43 -20.26,-25.58 -2.66,-3.06 -2.65,-7.44 -1.24,-11.76 16.32,-49.94 32.45,-99.95 48.73,-149.9 4.58,-14.06 9.66,-27.97 14.17,-42.05 1.73,-5.39 1.82,-11.01 0.29,-16.68 -2.82,-10.43 -5.28,-20.96 -7.88,-31.87 -0.11,-0.6 -0.24,-0.79 -0.24,-1.28 2.61,-0.43 2.26,1.96 3.35,3.46 0.22,0.43 0.3,0.6 0.49,1.01 0.31,0.53 0.45,0.84 1.01,1.28 z"
   id="path8" />
	<path
   class="st1"
   d="m 641.17,490.93 c 8.9,-7.48 19.31,-10.93 28.89,-15.82 26.94,-13.74 53.94,-27.38 81.11,-40.67 4.63,-2.27 7.65,-5.6 9.92,-9.62 2.3,-4.09 5.37,-8.18 9.05,-9.66 4.81,-1.93 8.71,-6.98 14.91,-5.37 3.49,0.9 4.95,-1.87 6.64,-4.63 0.55,-0.5 0.86,-0.56 1.37,-0.22 0.17,0.18 0.3,0.65 0.6,0.86 1.42,0.78 4.78,0.24 1.73,2.89 -1.73,1.51 -3.61,2.8 -5.84,3.68 -11.65,4.61 -21.38,11.86 -29.23,21.65 -2.09,2.6 -2.59,6.7 -7.11,7.46 -6.31,2.97 -12.68,4.49 -19.56,5.49 -9.35,4.66 -18.36,9.22 -27.7,13.91 -4.64,2.21 -8.91,4.35 -13.46,6.74 -7.71,4.11 -15.15,7.94 -22.9,11.96 -10.8,4.69 -20.39,10.86 -30.64,16.52 -0.53,0.2 -0.75,0.26 -1.29,0.31 -1.46,-0.47 -2.53,-1.3 -4.17,-0.46 -11.11,3.93 -21.58,8.57 -32.59,12.84 -1.74,0.6 -3.12,1.11 -4.78,1.93 -12.87,5.82 -25.97,10.13 -38.37,16.14 -5.6,2.72 -11.64,4.6 -18.18,5.64 -0.52,-0.36 -0.68,-0.56 -0.72,-1.14 10.78,-6.14 22.26,-10.05 33.44,-14.63 20.38,-8.36 40.92,-16.33 61.76,-24.58 0.84,-0.77 1.56,-0.64 2.54,-0.8 0.83,-0.11 1.33,-0.11 2.2,0 0.36,0.11 0.75,0.09 0.95,0.06 0.37,-0.09 0.58,-0.19 1.43,-0.48 z"
   id="path10" />
	<path
   class="st0"
   d="m 524,545.85 c -6.32,7.21 -9.34,15.44 -10.04,25.08 -1.68,23.22 -2.99,46.34 1.82,69.41 1.15,5.5 4.66,9.31 6.92,14.48 -2.02,1.05 -3.31,-0.4 -5.27,-0.98 -1.09,-0.49 -1.78,-0.91 -2.78,-1.64 -2.04,-1.8 -2.75,-3.79 -3.07,-5.98 -3.19,-21.74 -4.15,-43.54 -2.07,-65.45 0.34,-3.62 -0.29,-7.32 0.93,-11.29 -0.07,-3.45 1.03,-6.44 0.2,-9.84 -0.43,-1.07 -0.53,-1.82 -0.44,-2.96 0.22,-1.09 0.45,-1.82 -0.13,-2.91 -0.22,-1.04 -0.23,-0.2 -0.25,-0.87 -0.58,-23.85 -3.66,-47.6 -2.03,-71.55 0.53,-7.73 1.15,-15.55 0.76,-23.36 -0.16,-3.34 -0.04,-6.64 -2.14,-9.54 -0.93,-1.29 -1.3,-2.82 -0.11,-4.13 3.45,-3.82 3.85,-8.7 5.08,-13.75 0.55,-0.78 0.95,-1.14 1.72,-1.62 2.68,-4.31 3.25,-9.65 8.59,-12.13 1.17,-0.91 2.05,-1.63 3.05,-2.72 0.39,-0.42 0.55,-0.58 0.95,-0.99 6.07,-6.11 10.82,-12.79 14.94,-20.33 0.21,-0.54 0.29,-0.75 0.54,-1.28 0.28,-0.5 0.4,-0.7 0.74,-1.16 3.17,-4.07 5.14,-8.39 6.99,-13.17 0.25,-0.52 0.37,-0.73 0.74,-1.18 0.47,-0.33 0.69,-0.41 1.26,-0.48 0.8,0.19 1.15,0.49 1.28,1.24 -5.98,15.4 -14.09,29.21 -26.2,39.92 -7.07,6.25 -8.95,14.72 -12.8,22.35 -3.77,7.46 -0.47,15.55 -0.69,23.33 -0.62,22.95 -2.33,45.93 -0.12,68.89 0.14,1.49 0.03,3.07 0.52,4.43 0.74,2.04 -0.52,4.94 2.47,6.05 3.26,1.21 3.19,-2.77 5.6,-3.54 0.98,-0.79 1.59,-0.61 2.28,0.28 -0.07,1.33 -0.7,2.06 -1.45,3.12 -1.15,1.65 -2.38,2.7 -3.72,3.67 -1.61,1.16 -2.25,2.71 -1.32,4.76 3.07,-0.37 3.32,-5.19 7.25,-4.16 z"
   id="path12" />
	<path
   class="st1"
   d="m 209.84,404.77 c 2.33,3.5 4.56,6.57 9.32,4.6 1,-0.41 1.84,0.42 2.75,0.82 7.79,3.42 15.32,7.15 19.29,15.36 3.56,7.35 11.07,9.4 17.51,12.67 31,15.72 62.25,30.94 93.05,47.03 6.45,3.37 13.05,5.8 19.72,8.79 -1.64,1.36 -3.38,1.13 -5.44,1.22 -0.59,0.01 -0.82,0.01 -1.4,0 -1.47,-0.06 -2.59,-0.13 -4.03,-0.24 -0.54,-0.09 -0.75,-0.14 -1.26,-0.3 -0.48,-0.22 -0.67,-0.33 -1.36,-0.79 -0.86,-0.59 -1.21,-0.81 -1.84,-1.19 -0.46,-0.27 -0.64,-0.39 -1.07,-0.7 -1.97,-1.91 -3.91,-3.28 -6.42,-4.45 -4.66,-2.84 -9.08,-5.41 -14.44,-6.83 -7.91,-4.72 -15.97,-8.39 -24.07,-12.76 -4.51,-2.45 -8.83,-4.51 -13.44,-6.76 -8.89,-4.5 -17.5,-8.73 -26.34,-13.31 -2.18,-1.29 -4.21,-1.84 -6.86,-1.95 4.37,2.1 8.27,4.17 12.6,6.18 6.74,3.34 13.25,6.37 19.94,9.83 4.48,2.84 9.02,4.76 13.86,6.87 1.49,0.6 2.58,1.16 3.52,2.52 0.26,0.84 0.23,1.34 -0.18,2.11 -22.76,-10.07 -44.44,-22.09 -66.7,-32.95 -0.85,-0.42 -1.84,-1.08 -2.22,-1.88 -3.52,-7.49 -9.87,-12.57 -15.86,-17.71 -3.94,-3.38 -9.15,-5.38 -13.96,-7.64 -2.87,-1.35 -5.8,-2.51 -8.1,-4.74 -1.87,-1.82 -1.29,-2.48 1.62,-2.25 0.49,-0.26 0.61,-0.73 0.69,-0.97 0.28,-0.52 0.57,-0.68 1.12,-0.58 z"
   id="path14" />
	<path
   class="st0"
   d="m 621.24,282.75 c -0.15,0.49 -0.12,0.65 -0.19,1.05 -0.4,0.59 -0.57,1 -0.89,1.7 -0.23,0.46 -0.21,0.68 -0.31,1.22 -0.92,2.03 -1.79,1.48 -2.62,0.35 -0.58,-0.8 -1.04,-1.75 -2.61,-1.22 -0.93,0.41 -1.56,0.67 -2.59,0.87 -1.12,-0.02 -1.75,-0.31 -2.11,-1.34 5.37,-5.7 5.4,-5.72 1.1,-13.31 -1.91,-3.38 -2.61,-7.16 -3.75,-10.78 -13.46,-42.86 -26.72,-85.77 -40.28,-128.59 -5.39,-17.04 -11.37,-33.91 -17.06,-51.24 -0.09,-0.57 -0.2,-0.75 -0.14,-1.19 0.17,-0.44 0.16,-0.62 0.3,-1.02 0.54,-0.71 1.05,-1.05 1.87,-1.48 1.69,-1.58 0.91,-3.86 2.49,-5.55 0.44,-0.32 0.64,-0.4 1.16,-0.36 0.24,6.24 1.15,12.22 3.12,18.33 0.59,0.38 0.76,0.63 0.74,1.26 0.01,0.24 -0.02,0.7 -0.16,0.88 -0.14,0.18 0.29,0.34 0.44,0.51 0.15,0.17 0.33,0.62 0.32,0.86 0.49,4.21 0.04,8.31 1.8,12.45 4.24,14.69 8.91,28.87 13.79,43.39 1.5,6.16 3.23,11.85 5.39,17.82 4.97,16.29 9.78,32.22 15.63,48.22 3.35,11.85 7.06,23.19 10.95,34.87 1.57,5.97 3.5,11.43 5.2,17.33 1.27,2.9 3.19,5.07 4.1,8.13 0.9,1.49 0.32,2.89 0.82,4.32 -0.37,-1.42 -0.01,-2.73 -0.72,-4.23 -0.58,-0.94 -0.78,-1.62 -0.44,-2.71 0.6,-0.65 1.07,-0.77 1.9,-0.46 1.27,2.57 2.34,4.89 2.52,7.87 0.34,0.76 0.47,1.21 0.23,2.05 z"
   id="path16" />
	<path
   class="st1"
   d="m 405.35,841.82 c -0.22,0.78 -0.24,1.22 -0.37,1.96 -0.8,1.35 -0.34,2.54 -0.74,3.94 -0.16,11.83 -4.97,22.28 -8.19,32.98 -3.6,12 -7.35,24.1 -13.71,35.42 -2.12,-1.83 -0.8,-3.79 -0.12,-5.72 0.64,-1.82 1.75,-3.52 1.12,-5.62 0.22,-0.59 -0.98,-0.54 -0.36,-0.31 0.13,0.05 0.1,0.17 0.13,0.33 0.15,1.14 -0.46,1.81 -1.71,2.26 -1.05,-2.31 -0.86,-4.41 -0.07,-6.72 3.97,-11.53 8.37,-22.96 11.4,-34.73 3.54,-13.76 6.21,-27.76 8.37,-42.24 1.35,-1.92 1.21,-5.38 4.05,-4.57 2.44,0.69 1.63,3.52 1.4,5.93 -4.6,3.65 -3.64,8.81 -4.79,14.01 1.28,-1.11 2.08,-2.37 3.71,-1.41 0.59,1.59 0.6,2.87 -0.12,4.49 z"
   id="path18" />
	<path
   class="st2"
   d="m 619.63,899.33 c 1.78,6.65 3.76,13.16 7.28,19.35 6.18,10.87 13.2,21.25 18.68,32.56 1.31,2.7 4.11,4.63 3.11,8.14 -0.21,0.73 -0.65,2.63 -1.42,1.75 -3.4,-3.88 -4.1,1.92 -6.82,1.15 -0.3,-1.83 3.31,-3.09 1.7,-5.9 1.17,-1.32 1.29,-2.31 -0.06,-3.61 -5.86,-6.65 -9.99,-14.01 -13.67,-22 -0.06,-0.73 -0.01,-1.14 0.13,-1.82 -0.02,-0.46 -0.09,-0.64 -0.28,-1.08 -0.31,-0.61 -0.49,-0.97 -0.82,-1.6 -0.23,-0.47 -0.32,-0.67 -0.53,-1.17 -2.14,-6.23 -6.43,-11.1 -8,-17.24 0.65,2.22 1.64,4.32 1.82,7 -0.16,0.56 -0.27,0.77 -0.66,1.18 -4.64,-4.81 -5.78,-11.34 -8,-17.25 -3.16,-8.43 -6.74,-16.79 -8.22,-26.2 0.13,-0.9 0.37,-1.31 1.08,-1.75 3.85,1.72 2.75,6.12 5.29,8.86 -1.19,-5.29 -3.7,-9.9 -3.98,-15.45 0.3,-1.55 0.53,-2.76 1.49,-4.06 2.79,11.74 7.32,23.15 10.4,35.36 -1.42,1.28 -1.71,-0.72 -3.31,-0.8 1.53,1.88 -0.77,6.5 4.79,4.58 z"
   id="path20" />
	<path
   class="st2"
   d="m 333.72,479.95 c 6.05,0.3 10.36,3.71 15.15,6.73 1.8,2.57 4.26,3.66 6.89,5.12 0.27,0.19 0.24,0.2 0.24,0.19 0.42,0.45 1.01,0.52 1.8,0.84 0.24,0.17 0.19,0.18 0.19,0.16 0.21,0.23 0.43,0.46 0.85,0.85 0.18,0.16 0.16,0.17 0.16,0.16 1.44,1.05 3.31,0.72 5.14,1.69 3.4,4.99 9.14,4.91 13.56,7.24 4.9,2.59 10.19,4.57 15.96,6.12 9.62,4.46 19.12,8.23 29.11,11.72 0.95,0.34 1.55,0.62 2.46,0.96 0.48,0.17 0.67,0.24 1.14,0.41 0.62,0.28 0.97,0.45 1.56,0.75 0.42,0.2 0.59,0.28 1,0.48 0.58,0.28 0.91,0.42 1.53,0.62 0.45,0.12 0.64,0.17 1.63,0.56 1.66,0.88 2.57,1.26 3.87,1.5 0.52,0.12 0.72,0.18 1.23,0.35 2.62,1.37 5.06,2.35 7.84,3.35 0.5,0.21 0.7,0.3 1.2,0.53 1.48,0.69 2.73,1.1 4.25,1.71 1.38,0.55 2.46,0.91 3.93,1.3 6.52,2.43 12.9,4.16 19,6.67 1.61,0.66 3.65,0.86 3.88,3.5 -0.45,0.6 -0.75,0.85 -1.2,1.36 -18.69,-7 -37.17,-14.44 -55.8,-21.47 -17.25,-6.51 -34.12,-14.01 -51.39,-20.41 -7.58,-2.81 -13.27,-8.27 -20.52,-11.44 -11.85,-5.19 -23.2,-11.51 -35.07,-17.53 -0.29,-0.59 -0.28,-1 -0.26,-1.7 2.15,-1.68 3.8,-0.07 5.51,0.7 4.96,2.23 9.6,5.18 15.16,6.98 z"
   id="path22" />
	<path
   class="st1"
   d="m 561.15,106.16 c -2.38,-3.83 -2.52,-7.71 -1.27,-11.97 9.52,23.54 16.56,48.12 24.57,72.37 9.53,28.86 18.85,57.79 28.26,87.08 -0.39,0.77 -0.86,0.97 -1.8,0.91 -1.13,-0.45 -1.59,-1.07 -2.06,-2.17 -3.86,-12.79 -7.67,-25.19 -12.34,-37.69 -2.7,-9.4 -5.74,-18.31 -9.01,-27.14 -2.32,-6.27 -4.26,-12.66 -7.02,-19.12 -2.65,-5.81 -4.58,-11.51 -5.51,-17.91 0.04,-3.78 -1.35,-6.87 -2.34,-9.96 -3.67,-11.43 -7.28,-22.89 -11.48,-34.4 z"
   id="path24" />
	<path
   class="st1"
   d="m 478.81,660.97 c -0.84,-2.14 -0.17,-4.86 0.78,-5.28 5.54,-2.45 6.36,-7.96 9.16,-12.53 2.72,2.94 0.34,5.7 -0.28,9 -1.88,7.37 -0.11,14.32 -0.36,21.56 -1,-0.03 -1.69,-0.34 -2.66,-0.67 -0.65,-0.94 -0.87,-1.96 -1.41,-2.77 -0.89,-1.33 -0.59,-4.03 -2.37,-3.95 -1.88,0.08 -3.17,2.05 -4.17,3.9 -14.48,26.66 -29.35,53.12 -43.39,80.01 -5.6,10.73 -11.58,21.27 -17.12,32.41 -0.97,0.56 -1.6,0.24 -2.34,-0.62 -0.23,-0.57 -0.27,-0.81 -0.3,-1.43 5.33,-12.23 12.19,-23.25 18.38,-34.63 6.52,-11.96 13.27,-23.79 19.22,-36.46 4.12,-4.53 6,-9.99 8.62,-14.94 5.92,-11.16 12.34,-22.03 18.24,-33.6 z"
   id="path26" />
	<path
   class="st2"
   d="m 637.78,496.04 c 9.81,-6.59 19.76,-12.31 30.62,-17.05 0.83,0.05 1.39,0.37 1.8,0.2 7.41,-3.29 15.11,-6.06 21.52,-11.85 3.93,-3.33 8.59,-4.65 12.98,-7.19 1.47,0.96 2.75,0.75 3.98,0.14 8.24,-4.06 16.54,-8.02 24.05,-14.01 6.64,-2.1 13.5,-2.09 19.88,-4.88 -22.18,12 -44.83,23.41 -67.62,34.56 -12.94,6.33 -25.72,12.97 -38.59,19.45 -1.16,0.58 -2.41,1 -3.96,1.62 -1.82,0.12 -3,1.41 -4.73,0.8 -0.29,-0.68 -0.27,-1.11 0.07,-1.79 z"
   id="path28" />
	<path
   class="st0"
   d="m 516.65,689.02 c 2.51,4.8 1.91,9.59 1.68,14.35 -0.46,9.48 1.37,18.86 1.51,28.29 0.13,8.82 -0.63,17.65 -0.68,26.5 -0.05,9.63 -0.65,19.26 -0.01,29.35 1.59,5.87 -0.86,11.24 -0.23,17.03 -0.04,0.89 -0.04,1.38 -0.13,2.25 0.26,2.49 -0.18,4.14 -3.01,4.26 -2.02,-2.07 -1.36,-4.26 -1.3,-6.4 0.11,-3.74 1.17,-7.72 -2.5,-10.63 -0.7,-0.56 -0.59,-1.79 0.13,-2.22 5.05,-3.06 2.4,-7.7 2.51,-12.16 0.02,-1.43 0.06,-2.47 0.04,-3.91 -0.01,-0.92 -0.01,-1.45 -0.02,-2.38 0.02,-1.2 0.04,-2.01 -0.01,-3.22 -0.05,-1.24 -0.04,-2.07 -0.02,-3.32 -0.51,-6.96 1.07,-13.6 -1.15,-20.47 4.42,-15.36 -0.7,-30.26 -0.4,-45.19 0.06,-3.1 -0.55,-6.26 -0.55,-9.83 -0.05,-0.94 -0.08,-1.46 -0.17,-2.37 -0.11,-0.87 -0.12,-1.36 -0.05,-2.21 0.12,-0.94 0.89,-1.49 0.01,-2.45 -0.65,-2.4 -0.29,-4.3 1.34,-6.24 2.77,0 2.2,1.96 2.32,3.45 0.19,2.39 -0.26,4.84 0.69,7.52 z"
   id="path30" />
	<path
   class="st0"
   d="m 517.72,848.72 c 0.09,0.76 0.07,1.25 -0.09,2.07 -0.61,4.38 -1.33,8.39 -1.73,12.8 -0.06,7.11 -0.08,13.86 -0.18,21.09 0.14,1.13 0.21,1.8 -0.07,2.8 0.9,6.08 0.86,11.84 0.06,17.63 -1.15,8.38 -1.57,16.76 -0.67,25.23 0.34,3.16 0.16,6.53 -0.58,9.62 -1.91,7.98 -2.06,16.07 -2.38,24.62 1.41,4.77 -1.81,3.94 -4.45,3.99 -0.76,-0.47 -0.89,-0.9 -0.64,-1.75 0.43,-0.74 0.7,-1.15 1.15,-1.88 0.76,-7.7 0.96,-15.1 1.77,-22.85 0.16,-0.89 0.27,-1.4 0.45,-2.29 0.12,-0.91 0.18,-1.43 0.24,-2.35 0.8,-6.43 -0.29,-12.47 0.07,-18.91 1.11,-5.26 0.79,-10.28 1.78,-15.14 0.81,-3.95 -1.6,-6.48 -3.91,-9.47 0.25,-1.52 1.31,-1.97 2.21,-3.07 0.81,-1.21 0.8,-2.2 0.66,-3.21 -1.69,-11.85 0.12,-23.55 1.58,-35.26 0.38,-3.01 0.86,-5.94 -0.52,-8.82 -0.28,-0.6 -0.8,-1.36 -0.52,-1.88 4.28,-7.85 0.1,-16.49 2.36,-24.51 0.4,-1.43 -0.31,-3.65 2.75,-3.27 2.24,4.31 1.11,8.62 1.38,12.82 0.22,3.42 -0.29,6.87 0.33,10.72 -0.01,1.31 0.01,2.17 -0.21,3.39 0.02,2.4 -0.1,4.44 -0.38,6.8 -0.21,0.32 -0.2,0.34 -0.21,0.35 -0.11,0.17 -0.24,0.31 -0.25,0.73 z"
   id="path32" />
	<path
   class="st1"
   d="m 516.93,688.84 c -3.83,-2.5 -0.64,-6.97 -2.67,-10.67 -1.35,-1.66 -0.82,-3.14 -0.54,-4.58 1.03,-5.39 1.95,-10.76 0.63,-16.25 -0.4,-1.66 -0.02,-3.3 1.26,-5.02 0.83,0 1.36,0.28 2.16,0.68 2.86,2.93 2.55,7.17 5.43,10.19 3.97,4.17 6.17,9.06 8.57,13.78 3.99,7.87 8.11,15.65 12.86,23.5 10.85,20.78 21.94,41.01 33.21,61.15 3.78,6.75 8.83,13 9.61,21.52 0.08,1.15 -0.16,1.84 -1.07,2.54 -5.75,-13.14 -13.46,-25.26 -20.06,-37.93 -13.47,-25.86 -27.66,-51.34 -41.55,-76.98 -0.4,-0.73 -0.66,-1.57 -1.21,-2.17 -1.98,-2.18 -3.61,-3.89 -5.28,0.61 -2.36,6.36 -1.94,12.7 -1.35,19.63 z"
   id="path34" />
	<path
   class="st0"
   d="m 509.34,374.12 c 0.95,7.02 1.45,14.03 7.11,19.49 1.35,1.3 2.2,4.06 0.83,6.04 -4.11,5.98 -0.93,14.29 -7.59,19.37 0.52,0.33 1.05,0.66 1.57,0.99 2.72,-2.31 5.54,-4.5 8.13,-6.95 9.03,-8.55 16.2,-18.35 19.92,-30.41 2.91,-9.41 8.81,-17.01 15.2,-24.62 0.72,-0.44 1.18,-0.59 2.05,-0.46 1.9,4.16 -2.59,5.29 -3.7,8.44 -5.5,6.71 -9.63,13.76 -12.03,21.78 -0.8,2.69 -1.96,5.24 -3.41,8.02 -0.44,0.85 -0.78,1.38 -1.23,2.17 -0.23,0.42 -0.32,0.58 -0.56,0.98 -0.33,0.54 -0.52,0.85 -0.81,1.39 -0.2,0.39 -0.28,0.54 -0.51,0.9 -0.25,0.35 -0.36,0.48 -0.77,1.02 -0.49,0.7 -0.67,0.99 -0.97,1.52 -0.24,0.38 -0.35,0.52 -0.63,0.88 -0.53,0.64 -0.86,1.1 -1.3,1.84 -0.65,0.94 -1.31,1.45 -2.17,2.24 -3.94,3.68 -7.41,7.37 -11.05,10.88 -1.51,1.46 -2.9,3.14 -3.13,5.77 -0.11,1.33 -0.24,2.29 -0.91,3.48 -2.48,1.27 -3.14,-0.41 -3.7,-1.94 -0.9,-2.46 -2.69,-3.53 -5.54,-3.8 -2.52,-0.81 -2.83,-1.9 -0.72,-3.63 7,-3.55 8.8,-8.92 5.43,-15.81 -0.77,-1.57 -1.44,-3.24 -0.77,-4.77 2.15,-4.93 0.76,-9.79 -0.02,-15.05 -0.13,-0.63 -0.18,-0.89 -0.27,-1.53 -0.11,-1.18 -0.12,-1.97 -0.14,-3.17 0.12,-2.02 0,-3.7 1.69,-5.06 z"
   id="path36" />
	<path
   class="st2"
   d="m 524.62,546.04 c -4.09,-0.19 -4.03,3.95 -6.41,5.29 -0.81,0.46 -1.4,1.77 -2.47,1.01 -0.51,-0.36 -0.49,-1.45 -0.73,-2.2 -1.66,-5.06 3.54,-5.86 5.69,-8.93 7.79,-1.1 14.46,-4.66 21.91,-6.99 19.09,-6.02 37.04,-13.97 55.78,-20.93 10.15,-4.63 20.69,-7.32 30.18,-12.56 1.59,-0.88 3.48,-1.09 5.7,-0.43 0.54,0.35 0.73,0.53 0.83,1.11 -29.31,13.19 -59.32,24 -88.94,35.8 -7.11,2.83 -14.13,5.85 -21.54,8.83 z"
   id="path38" />
	<path
   class="st0"
   d="m 414.81,781.97 c 0.71,0.33 1.14,0.55 1.79,0.87 0.24,0.57 0.25,1.05 0.15,1.86 -0.18,0.51 -0.24,0.68 -0.52,0.98 -3.93,5.57 -2.21,12.09 -3.76,18 -1.68,6.4 -2.36,13.05 -3.56,20 -0.67,1.42 -0.28,2.56 -0.68,3.89 -0.2,0.26 -0.15,0.41 -0.22,0.45 -0.28,0.13 -0.48,0.22 -0.98,0.16 -0.89,-0.89 -1.08,-1.75 -1.04,-3 -0.3,-2.18 -0.62,-4.02 -0.93,-5.84 -2.36,0.2 -1.41,3.02 -3.5,3.58 2.45,-11.9 3.86,-24.09 5.94,-36.16 0.14,-0.8 0.48,-2.08 0.11,-2.38 -4.55,-3.69 0.48,-5.02 2.02,-7.38 0.7,-0.31 1.07,-0.29 1.6,0.2 0.37,0.79 0.34,1.35 0.31,2.18 0.07,0.42 0.13,0.58 0.57,1.09 1.06,0.69 1.79,0.94 2.7,1.5 z"
   id="path40" />
	<path
   class="st1"
   d="m 526.03,660.87 c 5.74,7.67 9.88,16.2 14.53,24.44 9.38,16.64 19,33.15 28.12,49.92 5.87,10.8 11.84,21.54 18.18,32.45 -0.1,0.83 -0.37,1.23 -1.16,1.54 -4.99,-4.67 -7.25,-10.84 -10.55,-16.35 -10.23,-17.08 -19.59,-34.66 -29.77,-52.19 -5.86,-8.7 -9.54,-18.17 -14.75,-26.83 -2.18,-3.62 -5.33,-6.88 -5.44,-11.85 0.23,-0.57 0.36,-0.78 0.84,-1.13 z"
   id="path42" />
	<path
   class="st1"
   d="m 614.07,285.33 c 3.45,-3.72 3.35,1.29 5.41,1.8 -2.27,5.13 -6.64,8.99 -10.04,13.58 -18.84,25.41 -37.86,50.68 -57.09,76.18 -0.4,-0.13 -0.58,-0.4 -1.05,-0.74 -1.1,-2.46 1.29,-3.38 2.12,-5.31 0.29,-0.43 0.41,-0.59 0.7,-1.01 0.5,-0.76 0.77,-1.29 1.06,-2.15 0.18,-0.49 0.27,-0.68 0.52,-1.14 0.43,-0.62 0.7,-0.96 1.21,-1.54 7.71,-8.54 13.65,-18.01 20.41,-26.86 6.56,-8.58 13.07,-17.2 19.89,-25.58 0.74,-0.91 1.37,-1.88 1.92,-3.3 3.42,-6.23 8.29,-10.98 12.08,-16.53 1.48,-2.16 3.31,-4.14 2.86,-7.4 z"
   id="path44" />
	<path
   class="st1"
   d="m 557.28,358.13 c -0.79,-0.14 -1.27,-0.15 -2.1,-0.19 17.24,-23 33.4,-47.06 52.01,-69.26 0.85,-1.01 1.5,-2.19 2.52,-3.48 0.73,0.12 1.18,0.42 1.92,0.74 1.15,2.3 -0.89,3.22 -1.91,4.56 -14.99,19.63 -30.14,39.14 -44.62,59.58 -0.27,0.51 -0.39,0.71 -0.74,1.18 -2.84,2.09 -3.87,5.46 -7.08,6.87 z"
   id="path46" />
	<path
   class="st1"
   d="m 397.67,503.78 c 16.24,6.67 32.16,13.09 48.05,19.6 5.43,2.22 10.77,4.65 16.26,7.25 -0.81,1.5 -2.18,1.53 -3.92,1.55 -5.96,-1.21 -11.1,-3.58 -16.66,-5.88 -0.56,-0.2 -0.78,-0.29 -1.31,-0.54 -1.28,-0.76 -2.21,-1.44 -3.68,-1.83 -0.56,-0.18 -0.78,-0.25 -1.34,-0.46 -12.6,-6.83 -25.83,-11.21 -39.07,-16.56 -0.67,-0.61 -0.96,-1.03 -1.23,-1.9 0.42,-1.73 1.51,-1.54 2.9,-1.23 z"
   id="path48" />
	<path
   class="st1"
   d="m 608.01,859.55 c -0.12,1.58 -0.28,2.77 -0.68,4.21 -0.37,0.39 -0.49,0.52 -0.88,0.68 -0.6,-0.06 -0.93,-0.12 -1.49,-0.06 -0.36,0.22 -0.5,0.34 -0.81,0.7 -0.54,0.76 -0.95,1.24 -1.79,1.75 -1.86,-1.3 -2.12,-3.2 -2.24,-5.49 0.23,-0.66 0.34,-0.97 0.12,-1.36 -1.09,-0.98 -1.12,-2.15 -1.13,-3.66 0.87,-4.79 -1.66,-8.97 -0.84,-13.79 2.51,-3.16 1.47,-6.42 1.04,-9.39 -0.44,-3.12 -0.68,-6.21 -0.63,-9.75 0.09,-1.24 0.3,-2.03 1.02,-3.06 2.3,10.19 4.28,20.69 6.34,31.17 0.52,2.58 1.29,5.1 1.97,8.05 z"
   id="path50" />
	<path
   class="st2"
   d="m 419.9,166.36 c 1.93,-6.22 3.77,-12.07 5.89,-18.15 2.86,-2.86 3.45,-6.38 4.43,-9.68 1.88,-6.35 4.61,-12.43 6.04,-18.93 0.38,-1.74 1.46,-3.34 3.43,-4.51 0.37,-0.11 0.74,-0.11 0.93,-0.1 -6.85,21.95 -13.89,43.89 -21.26,65.97 -2.23,-2.28 -0.57,-4.64 -0.13,-6.98 0.45,-2.4 1.79,-4.72 0.67,-7.62 z"
   id="path52" />
	<path
   class="st2"
   d="m 404.05,228.04 c -3.42,3.49 -2.79,8.55 -4.81,12.59 -0.85,1.7 -0.7,3.86 -2.67,5.33 -2.05,-2.13 -0.21,-4.18 0.21,-6.67 2.16,-9.04 4.45,-17.62 7.96,-26.1 2.38,-0.74 2.33,-2.64 2.77,-4.16 2.26,-7.82 5.47,-15.28 8.36,-22.87 0.47,-1.24 0.97,-2.48 2.59,-3.16 -2.78,11.72 -5.64,23.52 -11.39,34.73 -0.38,3.61 -2.25,6.46 -2.84,10.03 -0.19,0.33 -0.21,0.27 -0.18,0.28 z"
   id="path54" />
	<path
   class="st0"
   d="m 599.45,841.38 c -1.54,4.89 1.57,9.37 -0.02,14.28 -0.34,-0.14 -0.43,-0.57 -0.49,-1.34 -0.6,-1.02 -0.35,-1.88 -0.55,-2.97 -0.21,-1.07 -0.33,-1.84 -0.43,-3.01 -0.91,-1.73 -0.22,-3.27 -0.7,-5 -0.32,-0.68 -0.44,-1.05 -0.5,-1.7 -0.83,-1.71 -0.75,-3.31 -0.87,-5.27 -0.15,-1.01 -0.26,-1.63 -0.26,-2.55 -0.11,-1.32 -0.8,-2.14 -1.14,-3.44 -2.89,-12.68 -4.89,-25.2 -6.38,-37.8 -0.26,-2.16 -0.34,-4.28 -1.8,-6.46 -0.04,-0.77 0.21,-1.27 0.51,-2.04 0.13,-2.3 1.39,-2.86 3.53,-2.62 0.54,0.32 0.71,0.5 0.94,1.06 -0.75,7.65 1.14,14.61 2.5,22 0.21,4.31 1.2,8.21 1.25,12.13 0.03,2.65 2.91,3.06 3.09,5.64 0.14,1.34 0.07,2.31 -0.25,3.6 0,0.9 -1.5,0.87 -0.44,2.01 0.45,0.93 0.58,1.6 0.69,2.62 0.08,1.43 0.05,2.53 0.45,3.9 0.2,0.73 0.3,1.15 0.44,1.89 0.18,0.95 0.3,1.58 0.57,2.51 0.24,0.99 0.23,1.64 -0.14,2.56 z"
   id="path56" />
	<path
   class="st1"
   d="m 432.66,737.01 c 5.12,-9.33 10.14,-18.31 15.15,-27.28 7.52,-13.48 15.04,-26.96 22.84,-40.64 0.78,-0.08 1.2,0.16 1.71,0.88 -0.43,4.97 -3.43,8.46 -5.65,12.3 -3.08,5.33 -5.61,10.98 -9.4,16.32 -6.36,11.99 -12.77,23.54 -19.66,34.82 -1.11,1.81 -1.93,3.88 -4.46,4.73 -0.45,-0.31 -0.54,-0.54 -0.53,-1.13 z"
   id="path58" />
	<path
   class="st2"
   d="m 380.88,907.3 c 1.05,-1.44 1.92,-2.6 2.94,-3.96 3.32,4.85 -2.28,8.04 -1.77,12.55 -0.12,0.65 -0.24,0.9 -0.71,1.35 -3.25,7.88 -8.68,14.18 -11.97,21.64 -0.67,1.52 -1.46,2.98 -2.15,4.87 -0.19,0.3 -0.22,0.25 -0.2,0.27 -3.33,1.4 -4.09,-0.36 -3.59,-3.16 0.37,-2.08 1.6,-3.84 2.79,-5.97 -0.03,-0.42 0.2,-0.49 0.3,-0.42 0.1,0.07 0.53,0.28 0.53,0.28 0,0 0.04,-0.48 -0.2,-0.41 -0.23,0.07 -0.26,-0.02 -0.3,-0.04 0.02,-0.25 0.07,-0.48 0.28,-1.03 4.72,-8.79 9.29,-17.23 14.05,-25.97 z"
   id="path60" />
	<path
   class="st3"
   d="m 418.9,182.71 c -4.43,9.33 -7.67,18.77 -10.72,28.28 -0.79,2.47 -0.84,2.46 -2.99,2.32 -0.12,-0.28 -0.08,-0.72 -0.08,-0.94 0.12,-0.41 0.23,-0.59 0.5,-1.07 1.34,-8.38 4.47,-15.89 7,-23.58 2.33,-7.07 4.54,-14.18 7.09,-21.49 2.13,1.25 2.68,2.85 1.74,5.25 -1.1,2.83 -1.64,5.87 -2.42,9.23 0,0.83 -0.01,1.26 -0.12,2 z"
   id="path62" />
	<path
   class="st3"
   d="m 519.73,342.74 c -1.56,4.86 -3.26,9.44 -5.29,14.19 -1.11,0.59 -0.85,1.6 -1.96,2.08 4.02,-16.11 9.29,-31.89 17.03,-46.79 -1.71,10.11 -5.5,19.56 -9.16,29.38 -0.72,0.19 -0.87,0.41 -0.62,1.14 z"
   id="path64" />
	<path
   class="st4"
   d="m 456.25,698.54 c 5.23,-9.5 10.46,-18.65 15.73,-28.15 -0.5,-3.47 3.01,-5.18 2.98,-8.46 0.26,-0.62 0.31,-0.96 0.52,-1.37 0.97,0.6 1.87,0.82 3.21,0.26 0.21,1.31 0.47,2.77 -0.32,4.2 -8.05,14.65 -16.05,29.34 -24.07,44.01 -0.15,0.28 -0.44,0.49 -0.99,0.86 -1.81,-2.3 0.15,-4.11 0.87,-6.11 0.6,-1.66 1.71,-3.12 2.07,-5.24 z"
   id="path66" />
	<path
   class="st2"
   d="m 448.12,373.86 c -11.19,-14.21 -22.1,-28.67 -32.84,-43.69 3.35,-0.94 4.13,1.87 5.7,3.6 1.32,1.46 2.27,3.22 3.89,4.88 0.4,0.42 0.56,0.59 0.93,1.03 4.95,6.97 9.83,13.58 14.9,20.46 3.67,3.65 6.57,7.41 8.03,12.45 -0.14,0.58 -0.24,0.8 -0.61,1.27 z"
   id="path68" />
	<path
   class="st3"
   d="m 555.43,71.84 c -0.74,2.45 -1.22,4.6 -1.96,6.89 -2.29,-1.85 -1.38,-4.12 -0.89,-6.36 3.22,-14.67 7.36,-29.12 11.2,-44.05 0.2,-0.37 0.23,-0.32 0.2,-0.32 0.24,-0.2 0.48,-0.43 0.86,-0.87 0.15,-0.2 0.14,-0.13 0.12,-0.15 1.65,-0.74 2.46,-0.17 2.25,2.08 -1.76,6.73 -3.32,13.01 -5.07,19.6 -2.77,7.7 -3.69,15.55 -6.71,23.18 z"
   id="path70" />
	<path
   class="st0"
   d="m 495.43,373.06 c 1.95,2.83 3.34,5.74 3.42,9.12 0.03,1.28 0.07,2.6 2.08,2.62 1.95,0.02 2.06,-1.14 2.22,-2.51 0.3,-2.63 0.66,-5.24 2.18,-7.93 3.88,-0.06 2.04,2.46 2.05,4.6 -0.64,3.27 -1.2,6.12 -0.3,9.09 0.48,1.6 0.67,3.36 -2.13,3.67 -2.07,-0.46 -2.59,-2.16 -3.75,-3.17 -2.16,-1.86 -0.79,1.07 -1.7,1.48 -1.27,1.58 -2.64,2.19 -4.14,1.28 -1.42,-0.87 -0.97,-2.36 -0.55,-3.62 1.08,-3.22 0.21,-6.24 -0.84,-9.65 -0.2,-2.03 -0.28,-3.66 1.46,-4.98 z"
   id="path72" />
	<path
   class="st2"
   d="m 432.49,736.86 c 0.34,0.07 0.4,0.36 0.55,1.07 0.93,1.77 0.31,3.03 -0.28,4.2 -5.78,11.6 -12.28,22.81 -18.78,34.02 -0.5,0.86 -1.2,1.6 -2.52,2.03 -0.59,-0.32 -0.81,-0.64 -1.28,-1.13 5.88,-10.95 12.02,-21.72 18.12,-32.52 1.38,-2.45 2.61,-4.98 4.19,-7.67 z"
   id="path74" />
	<path
   class="st1"
   d="m 563.67,28.14 c -0.53,8.72 -3.46,17.14 -5.68,25.73 -2.06,7.96 -4.73,15.81 -4.86,24.57 -0.66,0.47 -1.4,0.52 -2.5,0.57 4.04,-16.88 7.16,-34.09 13.04,-50.87 z"
   id="path76" />
	<path
   class="st2"
   d="m 506.84,967.68 c 1.95,-0.32 4.66,1.14 5.14,-2.36 1.73,8.09 0.86,16.52 0.26,25.3 -0.18,-5.62 -0.18,-11.61 -0.18,-17.6 -2.97,3.73 -1.61,7.89 -1.98,12.29 -0.11,0.62 -0.24,0.8 -0.68,0.85 -0.65,-4.2 -0.62,-8.36 -1.51,-12.31 -0.45,-2.02 -2.85,-3.3 -5.13,-3.72 -1.06,-0.2 -0.58,-0.93 -0.81,-1.69 0.2,-3.27 0.87,-3.39 4.89,-0.76 z"
   id="path78" />
	<path
   class="st1"
   d="m 629.17,928.73 c 2.85,8.71 7.76,16.05 13.6,23.21 0.52,0.88 0.28,1.4 -0.49,1.97 -3.95,-0.91 -4.62,-4.57 -6.19,-7.16 -4.58,-7.57 -8.63,-15.46 -12.97,-23.58 -0.42,-0.68 -0.62,-1.08 -0.84,-1.85 -0.17,-0.3 -0.31,-0.35 -0.28,-0.42 -0.12,-0.24 -0.27,-0.42 -0.44,-0.95 0.06,-0.56 0.13,-0.78 0.52,-1.13 3.59,0.95 3.77,4.37 5.68,6.91 0.2,0.27 0.22,0.27 0.22,0.28 0.44,0.43 0.48,1.02 0.82,1.78 0.17,0.22 0.19,0.21 0.18,0.21 0.12,0.16 0.24,0.32 0.19,0.73 z"
   id="path80" />
	<path
   class="st3"
   d="m 478.53,326.08 c 5.52,12.45 9.5,25.3 13.45,38.54 0.35,2.21 -0.75,1.27 -1.74,1.19 -1.86,-2.72 -2.56,-5.77 -3.3,-9.18 -0.27,-2 -0.25,-3.73 -1.64,-5.32 -0.21,-0.47 -0.26,-0.66 -0.32,-1.15 -0.74,-1.66 -0.34,-3.43 -1.74,-4.9 -0.51,-0.73 -0.81,-1.19 -1.11,-1.93 0.14,-0.75 1.13,-1.19 -0.09,-1.59 -0.67,-0.94 -1.17,-2 -1.72,-3.35 0.99,-3.09 -1.41,-5.13 -1.71,-7.66 -0.18,-1.57 -1.3,-3.02 -0.08,-4.65 z"
   id="path82" />
	<path
   class="st0"
   d="m 434.51,28.08 c -3.88,-2.62 -5.38,-7.58 -10.35,-8.43 -0.38,-0.06 -1.35,-0.66 -0.91,-1.45 0.79,-1.42 1.52,-3.03 2.72,-4.01 0.69,-0.56 2.52,0 2.91,1.19 1.49,4.57 6.02,6.83 8.19,11.27 -0.41,1.21 -1.26,1.5 -2.56,1.43 z"
   id="path84" />
	<path
   class="st3"
   d="m 477.36,543.85 c -2.67,-3.45 -6.84,-3.37 -10.21,-4.85 -4.08,-1.8 -8.43,-2.98 -12.92,-4.69 -0.47,-2.42 0.6,-3.11 2.26,-1.92 1.03,0.74 0.77,-0.36 1.45,-0.55 4.04,0.65 7.35,2.59 10.88,3.95 2.32,0.89 4.39,1.11 7.01,0.39 0.79,0.16 1.24,0.3 1.81,0.66 0.47,0.98 0.82,1.75 1.34,2.79 0.83,1.86 2.87,3.59 -0.61,4.58 -0.33,-0.25 -0.79,-0.32 -1.01,-0.36 z"
   id="path86" />
	<path
   class="st1"
   d="m 567.19,29.19 c -0.15,-0.75 -0.24,-1.74 -1.9,-2.15 1.29,-4.84 6.36,-7.17 8.01,-11.99 0.35,-1.03 2.1,-1.44 3.08,-0.91 1.34,0.73 0.81,2.83 2.31,3.87 0.89,0.61 -0.46,1.69 -0.95,1.77 -5.38,0.9 -6.96,6.03 -10.55,9.41 z"
   id="path88" />
	<path
   class="st1"
   d="m 365.9,934.55 c 1.85,2.27 -0.35,3.82 -1,5.69 -0.61,1.74 -1.81,3.51 1.77,3.78 0.12,0.5 -0.14,0.97 -0.56,1.67 -0.52,0.35 -0.66,0.6 -0.41,1.14 -0.99,1.98 -2.15,3.79 -3.52,5.83 -1.72,-0.66 -2.79,-2.03 -4.18,-3.49 2.45,-5.05 5.03,-9.79 7.9,-14.62 z"
   id="path90" />
	<path
   class="st2"
   d="m 518.91,837.6 c -1.63,-7.45 -1.8,-15.3 -1.98,-23.64 -0.72,-0.89 -1.05,-1.49 -1.05,-2.56 1.89,-0.84 1.97,-2.45 2.61,-4.05 1.42,6.02 0.32,12.28 0.52,18.53 0.12,3.81 0.04,7.62 -0.1,11.72 z"
   id="path92" />
	<path
   class="st2"
   d="m 478.86,325.76 c -0.33,3.06 1.45,5.25 1.81,7.76 0.2,1.41 2.22,2.84 -0.09,4.47 -3.27,-8.38 -6.22,-16.86 -9.18,-25.34 3.9,1.59 3.8,5.21 5.51,8.25 0.72,1.02 0.97,1.88 1.62,2.9 0.23,0.72 0.28,1.17 0.33,1.96 z"
   id="path94" />
	<path
   class="st1"
   d="m 367.31,943.85 c -0.23,-6.55 3.98,-11.62 7.47,-16.61 2.15,-3.08 2.37,-7.34 6.05,-9.62 0.55,3.68 -2.47,6.01 -3.94,9.03 -2.83,5.81 -5.66,11.64 -9.58,17.2 z"
   id="path96" />
	<path
   class="st2"
   d="m 357.87,948.88 c 2.03,0.26 3.37,1.38 4.07,3.66 -2.95,3.37 -3.35,6.51 0.57,10.23 -2.61,-0.16 -3.31,-1.54 -4.57,-2.94 -0.42,-0.87 -0.67,-1.1 -1.25,-1.13 -0.51,0.28 -0.76,0.5 -1.16,0.96 -1.18,1.6 -2.25,2.28 -2.51,-0.15 -0.35,-3.28 0.37,-6.22 3.84,-8.2 0.6,-0.75 0.65,-1.34 0.93,-2.16 0.12,-0.27 0.09,-0.25 0.08,-0.27 z"
   id="path98" />
	<path
   class="st2"
   d="m 475.85,536.03 c -3.61,5.42 -7.19,-0.12 -10.9,-0.41 -2.2,-0.17 -4.26,-2.17 -6.71,-3.47 -0.78,0.03 -1.15,-0.07 -1.37,-0.79 1.5,-0.35 2.93,-0.37 4.8,-0.43 0.43,-0.04 0.4,0 0.4,-0.02 0.28,0.65 0.81,0.7 1.68,0.4 4.22,1.11 8.12,2.52 12.1,4.72 z"
   id="path100" />
	<path
   class="st0"
   d="m 590.93,776.02 c 1.11,0.56 2.3,1.16 2.72,2.1 0.86,1.96 3.62,2.98 1.01,6.54 -1.99,2.72 0.61,7.63 1.27,11.94 0.96,1.79 0.38,3.34 0.54,5.2 -0.08,0.63 -0.14,0.88 -0.53,1.32 -0.58,0.15 -0.84,0.11 -1.38,-0.18 -3.06,-6.67 -2.68,-13.55 -3.38,-20.63 -0.18,-0.33 -0.17,-0.31 -0.16,-0.3 -0.79,-1.41 -0.32,-3.01 -0.63,-4.83 0.1,-0.55 0.18,-0.76 0.54,-1.16 z"
   id="path102" />
	<path
   class="st2"
   d="m 489.97,366.26 c -0.06,-2.61 0.99,-1.21 1.85,-1.09 1.32,2.31 1.98,5.06 3.95,7.51 -1.29,1.61 -0.55,3.34 -0.97,5.22 0.1,2.86 0.72,5.46 -2.31,7.12 -0.58,-0.29 -0.79,-0.56 -1.23,-0.94 0.84,-5.96 1.7,-11.8 -1.29,-17.82 z"
   id="path104" />
	<path
   class="st2"
   d="m 397.76,503.74 c -0.61,0.39 -1.47,0.54 -2.53,0.94 -7.66,-0.99 -14.61,-3.47 -20.47,-8.91 7.7,2.09 15.23,4.9 23,7.97 z"
   id="path106" />
	<path
   class="st0"
   d="m 619.93,898.84 c -0.39,1.88 -0.43,3.98 -2.53,3.94 -1.7,-0.03 -1.92,-1.97 -2.41,-3.32 -0.34,-0.92 -0.7,-1.84 -0.93,-2.79 -0.39,-1.61 -1.9,-3.7 0.89,-4.41 2.63,-0.67 1.63,2.26 2.96,3.46 1.43,0.7 1.7,1.77 2.02,3.12 z"
   id="path108" />
	<path
   class="st3"
   d="m 443.63,57.26 c 0.24,-1.21 0.48,-2.18 0.98,-3.41 1.46,4.05 2.44,8.41 3.3,13.19 0.99,1.25 1.06,2.43 1.09,4.22 -0.43,2.7 1.5,4.88 -0.44,7.7 -1.68,-7.18 -3.2,-13.67 -4.8,-20.56 -0.08,-0.4 -0.13,-0.89 -0.13,-1.14 z"
   id="path110" />
	<path
   class="st2"
   d="m 523.33,539.24 c -0.72,-0.53 -1.12,-0.84 -1.79,-1.18 5.37,-2.4 11.01,-4.76 17.03,-7.08 0.39,0.27 0.41,0.49 0.46,1.05 -4.12,4.84 -9.87,5.87 -15.7,7.21 z"
   id="path112" />
	<path
   class="st2"
   d="m 506.52,379.24 c -0.91,-1.74 1.64,-3.41 -0.67,-5.1 0.75,-2.65 2.83,-4.73 3.33,-7.93 0.58,-0.59 1.03,-0.68 1.75,-0.33 -0.18,2.63 -0.6,5.02 -1.1,7.8 -1.25,1.66 -0.6,3.32 -1.12,5.11 -0.68,0.64 -1.28,0.67 -2.19,0.45 z"
   id="path114" />
	<path
   class="st2"
   d="m 434.29,28.31 c 0.69,-0.68 1.47,-1.01 2.58,-1.33 3.58,3.83 3.83,8.75 5.11,13.7 -0.04,0.41 -0.03,0.38 -0.02,0.37 -0.71,0.38 -1.16,-0.03 -1.78,-0.79 -0.21,-0.24 -0.19,-0.25 -0.19,-0.25 -0.8,-1.78 -1.05,-3.74 -1.78,-5.55 -0.15,-0.38 0.03,-0.85 -0.35,-1.16 0,0.5 -0.14,0.96 -0.58,1.66 -0.21,0.27 -0.24,0.68 -0.28,0.87 -0.9,-2.25 -1.75,-4.71 -2.71,-7.52 z"
   id="path116" />
	<path
   class="st2"
   d="m 555.36,72.08 c 1.89,-7.52 2.95,-15.37 6.3,-22.89 -1.58,7.25 -3.44,14.72 -5.51,22.48 -0.22,0.29 -0.6,0.37 -0.79,0.41 z"
   id="path118" />
	<path
   class="st0"
   d="m 600,819.61 c -0.03,1.3 -0.06,2.18 -0.14,3.5 -0.32,0.36 -0.6,0.29 -1.16,-0.11 -2.3,-6.49 -4.6,-12.61 -2.97,-19.64 0.26,-0.34 0.27,-0.35 0.27,-0.35 0.13,-0.16 0.25,-0.32 0.55,-0.22 1.25,5.63 2.35,11.02 3.45,16.82 z"
   id="path120" />
	<path
   class="st2"
   d="m 519.06,804.57 c -2.32,-5.07 0.17,-10.45 0,-16.23 2.42,5.03 0.52,10.46 0,16.23 z"
   id="path122" />
	<path
   class="st2"
   d="m 415.07,329.93 c -3.22,-3.86 -6.31,-7.85 -9.55,-12.15 -0.12,-0.54 -0.08,-0.78 0.3,-1.12 2.71,0.11 3.75,2.12 5.46,3.79 0.41,0.39 0.58,0.54 0.99,0.92 0.4,0.4 0.55,0.57 0.91,1 0.32,0.46 0.44,0.66 0.71,1.15 0.67,2 2.06,3.42 1.71,5.69 -0.12,0.33 -0.39,0.59 -0.53,0.72 z"
   id="path124" />
	<path
   class="st2"
   d="m 406.34,828.09 c 0.6,-0.08 0.8,-0.08 1.29,-0.06 -0.47,4.55 -1.24,9.08 -2.24,13.87 -0.29,-1.18 -0.34,-2.62 -0.4,-4.5 -0.69,-3.47 -0.84,-6.45 1.35,-9.31 z"
   id="path126" />
	<path
   class="st1"
   d="m 485.35,675.49 c 2.77,3.34 1.97,7.31 0.27,11.42 -0.31,-3.58 0.49,-7.26 -0.27,-11.42 z"
   id="path128" />
	<path
   class="st1"
   d="m 635.37,501.76 c -0.37,0.04 -0.36,-0.36 -0.36,-0.56 0.2,-1.61 0.96,-2.63 2.5,-3.34 1.63,-0.41 2.3,-2.81 4.41,-0.97 -1.36,2.6 -2.79,5.09 -6.55,4.87 z"
   id="path130" />
	<path
   class="st2"
   d="m 448.07,67.11 c -1.59,-3.9 -2.76,-8.16 -3.13,-13.07 -0.06,-0.46 0,-0.78 0.05,-0.93 1.57,4.35 2.69,8.96 3.08,14 z"
   id="path132" />
	<path
   class="st2"
   d="m 516.03,863.61 c -1.12,-3.87 0.17,-7.87 1.25,-12.19 -0.22,3.76 -0.64,7.8 -1.25,12.19 z"
   id="path134" />
	<path
   class="st0"
   d="m 617.68,269.72 c 0.21,0.41 0.29,0.57 0.37,1 -0.39,0.63 -0.85,0.8 -1.75,0.68 -1.86,-1.6 -2.02,-3.7 -2.95,-5.86 -0.54,-1.78 -1.08,-3.18 -0.81,-5.06 0.5,-0.71 0.94,-0.89 1.77,-0.66 0.46,0.6 0.6,0.99 0.76,1.7 0.11,0.5 0.22,0.68 0.46,1.15 0.24,0.46 0.35,0.64 0.44,1.13 0.73,0.95 0.39,1.86 0.73,2.91 0.16,0.27 0.39,0.7 0.37,0.94 0.33,0.72 0.4,1.27 0.61,2.07 z"
   id="path136" />
	<path
   class="st1"
   d="m 404.26,227.81 c -0.58,-3.19 1.2,-6.13 2.38,-9.52 0.8,3.27 -1.37,6.08 -2.38,9.52 z"
   id="path138" />
	<path
   class="st0"
   d="m 523.05,654.94 c 3.74,-0.01 1.78,3.56 3.26,5.4 -0.06,0.49 -0.18,0.6 -0.47,0.91 -0.68,0.35 -1.2,0.33 -2.02,-0.11 -1.32,-1.86 -2.01,-3.54 -1.08,-5.8 0.23,-0.31 0.29,-0.37 0.31,-0.4 z"
   id="path140" />
	<path
   class="st0"
   d="m 474.85,661.87 c 1.65,3.2 -1.3,5.07 -2.65,7.87 -0.45,0.07 -0.73,-0.16 -1.14,-0.62 1.07,-2.5 2.28,-4.77 3.79,-7.25 z"
   id="path142" />
	<path
   class="st3"
   d="m 511.15,366.1 c -0.38,-0.03 -0.78,-0.09 -1.48,-0.18 0.41,-2.17 1.12,-4.3 2.05,-6.7 0.22,-0.26 0.35,-0.18 0.41,-0.13 0.5,0.49 0.79,1.04 1.2,1.87 0.11,0.74 0.05,1.22 -0.19,1.88 -0.84,0.96 -1.05,2.01 -1.88,3.05 -0.19,0.24 -0.14,0.19 -0.11,0.21 z"
   id="path144" />
	<path
   class="st0"
   d="m 585.82,769.37 c 0.22,-0.65 0.41,-0.91 0.88,-1.23 1.25,1.62 2.3,3.35 3.07,5.6 -2.72,-0.02 -3.69,-1.79 -3.95,-4.37 z"
   id="path146" />
	<path
   class="st1"
   d="m 595.72,836.26 c 1.87,0.89 1.19,2.66 1.18,4.67 -1.37,-0.95 -1.14,-2.72 -1.18,-4.67 z"
   id="path148" />
	<path
   class="st2"
   d="m 602.06,867.17 c 0.47,-1.09 0.97,-1.95 1.72,-2.96 1.75,0.85 2.19,2.25 1.7,4.3 -0.98,0.94 -1.59,0.56 -2.49,-0.23 -0.64,-0.32 -0.83,-0.55 -0.93,-1.11 z"
   id="path150" />
	<path
   class="st0"
   d="m 641.98,954.35 c 0.28,-0.8 0.54,-1.27 0.94,-1.97 0.64,1.09 3.01,2.55 -0.47,3.59 -0.37,-0.42 -0.42,-0.85 -0.47,-1.62 z"
   id="path152" />
	<path
   class="st1"
   d="m 614.64,259.69 c -0.45,0.33 -0.9,0.33 -1.68,0.34 -0.79,-0.06 -1.1,-0.32 -1.3,-1.06 0.12,-1.39 0.3,-2.45 1.07,-3.63 0.8,1.19 1.36,2.61 1.91,4.35 z"
   id="path154" />
	<path
   class="st2"
   d="m 513.72,360.84 c -2.17,1.21 -1.68,-0.19 -1.59,-1.44 0.51,-0.89 0.97,-1.5 1.7,-2.21 0.23,1.04 0.17,2.16 -0.11,3.65 z"
   id="path156" />
	<path
   class="st2"
   d="m 402.93,314.42 c 0.1,-0.31 0.32,-0.34 0.87,-0.4 0.53,-0.14 0.73,-0.24 1.25,-0.25 1.09,0.66 1.54,1.4 1.35,2.7 -0.28,0.43 -0.42,0.56 -0.81,0.84 -1,-0.76 -1.77,-1.68 -2.66,-2.89 z"
   id="path158" />
	<path
   class="st2"
   d="m 485.11,351.38 c 1.71,0.74 2.99,2.01 1.94,4.56 -0.72,-1.2 -1.34,-2.7 -1.94,-4.56 z"
   id="path160" />
	<path
   class="st0"
   d="m 612.97,254.83 c -0.12,1.43 -0.23,2.56 -0.61,3.93 -1.7,-0.83 -2.06,-2.33 -1.84,-4.38 0.61,-0.36 1.06,-0.36 1.84,-0.36 0.43,0.17 0.52,0.34 0.61,0.81 z"
   id="path162" />
	<path
   class="st2"
   d="m 518.21,847.66 c -0.22,-1.74 -0.23,-3.79 -0.05,-6.14 0.24,1.74 0.97,3.77 0.05,6.14 z"
   id="path164" />
	<path
   class="st2"
   d="m 515.72,887.64 c -0.92,-0.54 -0.78,-1.34 -0.27,-2.33 0.89,0.55 0.69,1.36 0.27,2.33 z"
   id="path166" />
	<path
   class="st2"
   d="m 596.78,802.64 c -0.07,0.39 -0.43,0.42 -0.61,0.39 -0.18,-1.75 -0.19,-3.47 -0.16,-5.62 1.31,1.18 0.73,3.06 0.77,5.23 z"
   id="path168" />
	<path
   class="st1"
   d="m 483.04,345.33 c 1.85,0.47 2.18,2 1.91,4.17 -1.39,-0.69 -0.98,-2.56 -1.91,-4.17 z"
   id="path170" />
	<path
   class="st1"
   d="m 615.86,271.28 c 0.66,-0.32 1.1,-0.3 1.87,-0.29 0.61,0.49 0.89,0.98 1.11,1.77 -0.46,0.27 -0.86,0.25 -1.57,0.23 -1.43,0.19 -1.66,-0.46 -1.41,-1.71 z"
   id="path172" />
	<path
   class="st3"
   d="m 478.78,323.77 c -1.4,0.16 -1.76,-0.73 -1.76,-2.2 0.92,0.18 1.65,0.82 1.76,2.2 z"
   id="path174" />
	<path
   class="st2"
   d="m 793.34,406.16 c -0.47,-0.41 -0.68,-0.7 -1.14,-1.12 -0.19,-0.85 -0.41,-1.9 0.66,-1.85 1.29,0.06 1.02,1.24 1.08,2.47 0.03,0.36 0.06,0.3 0.09,0.31 -0.13,0.11 -0.29,0.21 -0.69,0.19 z"
   id="path176" />
	<path
   class="st2"
   d="m 210.04,404.56 c -0.29,0.57 -0.58,0.79 -1,1.25 -0.3,0.32 -0.46,0.4 -0.86,0.32 -0.23,-0.15 -0.17,-0.16 -0.15,-0.13 0.28,-0.92 -0.49,-2.23 0.87,-2.78 0.77,-0.3 1.02,0.34 1.14,1.34 z"
   id="path178" />
	<path
   class="st1"
   d="m 602.71,868.43 c 0.51,-0.12 1.07,0.1 1.89,0.47 0.63,0.46 0.84,0.85 0.7,1.65 -0.4,0.64 -0.64,0.96 -1.14,1.45 -0.26,0.16 -0.28,0.11 -0.28,0.08 -0.25,-0.51 -0.35,-1.03 -0.57,-1.78 -0.28,-0.66 -0.42,-1.09 -0.6,-1.87 z"
   id="path180" />
	<path
   class="st2"
   d="m 511.39,366.04 c -0.57,-1.16 -0.07,-2.07 1.27,-2.88 -0.12,0.82 -0.54,1.8 -1.27,2.88 z"
   id="path182" />
	<path
   class="st3"
   d="m 355.68,959.84 c -0.23,-0.48 -0.16,-0.98 0.12,-1.65 1.34,-0.78 1.77,0.09 2.31,1.15 0.03,0.33 -0.1,0.43 -0.18,0.45 -0.71,0.02 -1.33,0.03 -2.25,0.05 z"
   id="path184" />
	<path
   class="st1"
   d="m 594.5,830.38 c 0.98,0.33 1.51,1.24 1.33,2.8 -0.48,-0.61 -0.89,-1.55 -1.33,-2.8 z"
   id="path186" />
	<path
   class="st1"
   d="m 481.93,342.15 c 0.16,-0.98 0.19,-2.45 0.44,-2.23 0.82,0.71 1.65,1.87 0.05,3.07 -0.33,-0.14 -0.39,-0.34 -0.49,-0.84 z"
   id="path188" />
	<path
   class="st1"
   d="m 597.01,843.4 c 1.46,0.77 0.87,2.38 1.01,4.18 -0.88,-0.9 -0.98,-2.36 -1.01,-4.18 z"
   id="path190" />
	<path
   class="st2"
   d="m 408.25,827.6 c -0.13,-0.86 -0.02,-1.96 0.32,-3.29 0.13,0.87 0.02,1.96 -0.32,3.29 z"
   id="path192" />
	<path
   class="st2"
   d="m 404.23,847.72 c -0.06,-0.85 0.04,-2 0.38,-3.39 0.1,0.87 -0.06,1.98 -0.38,3.39 z"
   id="path194" />
	<path
   class="st2"
   d="m 365.96,946.73 c -0.84,0.12 -1.73,0.07 -1.46,-1.04 0.04,-0.15 0.74,-0.14 1.29,0 0.19,0.4 0.23,0.58 0.17,1.04 z"
   id="path196" />
	<path
   class="st1"
   d="m 476.8,656.25 c 0.08,0.57 -0.01,1.41 -0.32,2.47 -0.1,-0.59 0.03,-1.4 0.32,-2.47 z"
   id="path198" />
	<path
   class="st1"
   d="m 371.98,494.03 c 0.82,0.19 1.65,0.37 2.72,0.78 0.23,0.23 0.16,0.23 0.15,0.27 -1.04,0.78 -1.99,0.69 -2.86,-0.64 -0.02,-0.4 0,-0.42 -0.01,-0.41 z"
   id="path200" />
	<path
   class="st1"
   d="m 559.95,92.71 c -0.04,0.29 -0.5,0.28 -0.72,0.29 -0.25,-0.64 -0.27,-1.28 -0.28,-2.25 0.35,0.34 0.7,1.01 1,1.96 z"
   id="path202" />
	<path
   class="st1"
   d="m 598.24,851.37 c 0.81,0.3 0.81,1.15 0.76,2.31 -0.3,-0.46 -0.56,-1.23 -0.76,-2.31 z"
   id="path204" />
	<path
   class="st2"
   d="m 636.63,491.16 c -0.38,0.37 -1.03,0.62 -1.95,0.89 0.15,-0.76 0.82,-1.06 1.95,-0.89 z"
   id="path206" />
	<path
   class="st0"
   d="m 599.98,860.19 c 0.19,-0.64 0.36,-1.02 0.53,-1.39 0.79,0.57 0.36,1.19 -0.14,1.98 -0.27,0.01 -0.34,-0.15 -0.39,-0.59 z"
   id="path208" />
	<path
   class="st1"
   d="m 519.95,342.73 c -1.01,-0.37 -1.28,-1.14 -0.51,-2.1 0.18,0.24 0.37,0.47 0.61,0.97 0.04,0.45 0.01,0.65 -0.1,1.13 z"
   id="path210" />
	<path
   class="st1"
   d="m 463.69,531.04 c -0.26,0.86 -0.74,2.25 -1.64,0.11 0.46,-0.25 0.9,-0.24 1.64,-0.11 z"
   id="path212" />
	<path
   class="st1"
   d="m 616.93,266.66 c -0.89,-0.21 -0.98,-1.05 -0.97,-2.23 0.35,0.43 0.68,1.17 0.97,2.23 z"
   id="path214" />
	<path
   class="st1"
   d="m 617.85,269.68 c -0.31,-0.2 -0.58,-0.7 -0.81,-1.49 0.3,0.2 0.58,0.7 0.81,1.49 z"
   id="path216" />
	<path
   class="st1"
   d="m 619.82,916.46 c 0.04,-0.46 0.09,-0.7 0.19,-1.3 0.83,-0.46 1.24,-0.03 1.35,1.27 -0.32,0.74 -0.52,0.85 -0.98,0.77 -0.27,-0.19 -0.55,-0.52 -0.56,-0.74 z"
   id="path218" />
	<path
   class="st1"
   d="m 621.15,282.88 c -0.14,-0.25 -0.19,-0.69 -0.2,-1.46 0.12,0.2 0.21,0.74 0.2,1.46 z"
   id="path220" />
	<path
   class="st1"
   d="m 621.35,919.25 c -0.22,-0.23 -0.51,-0.54 -0.51,-0.76 -0.08,-0.44 -0.15,-0.67 -0.03,-1.19 0.19,-0.3 0.3,-0.38 0.35,-0.42 0.89,0.02 1.24,0.53 1.18,1.63 -0.13,0.32 -0.24,0.41 -0.29,0.45 -0.2,0.21 -0.34,0.36 -0.7,0.29 z"
   id="path222" />
	<path
   class="st2"
   d="m 603.13,870.36 c 0.29,0.19 0.55,0.66 0.78,1.42 -0.3,-0.2 -0.56,-0.67 -0.78,-1.42 z"
   id="path224" />
	<path
   class="st1"
   d="m 620.13,285.57 c -0.02,-0.31 0.17,-0.79 0.59,-1.41 0.02,0.32 -0.18,0.78 -0.59,1.41 z"
   id="path226" />
	<path
   class="st1"
   d="m 357.65,949.05 c 0.14,0.42 0.03,1 -0.34,1.78 -0.14,-0.42 -0.03,-1.02 0.34,-1.78 z"
   id="path228" />
	<path
   class="st0"
   d="m 590.06,773.95 c 0.4,0.4 0.75,0.85 1.12,1.58 0.03,0.29 -0.13,0.42 -0.22,0.49 -1,0.09 -1.33,-0.47 -1.23,-1.61 0.15,-0.32 0.27,-0.41 0.33,-0.46 z"
   id="path230" />
	<path
   class="st2"
   d="m 622.1,921.29 c 0.31,0.15 0.61,0.57 0.92,1.26 -0.3,-0.15 -0.62,-0.57 -0.92,-1.26 z"
   id="path232" />
	<path
   class="st2"
   d="m 621.12,919.3 c 0.01,-0.27 0.44,-0.3 0.66,-0.29 0.23,0.41 0.25,0.82 0.26,1.53 -0.32,-0.13 -0.62,-0.55 -0.92,-1.24 z"
   id="path234" />
	<path
   class="st1"
   d="m 549.87,80.1 c 0.13,0.07 0.15,0.25 0.13,0.69 -0.29,0.03 -0.36,-0.25 -0.13,-0.69 z"
   id="path236" />
	<path
   class="st1"
   d="m 564.72,26.99 c 0.1,0.25 -0.07,0.57 -0.5,0.95 -0.1,-0.26 0.06,-0.57 0.5,-0.95 z"
   id="path238" />
	<path
   class="st1"
   d="m 366.63,934.42 c 0.23,0 0.48,0.03 0.73,0.07 -0.12,0.06 -0.24,0.12 -0.55,0.1 -0.2,-0.07 -0.17,-0.13 -0.18,-0.17 z"
   id="path240" />
	<path
   class="st1"
   d="m 366.78,933.06 c 0.15,0.1 0.1,0.33 -0.11,0.88 -0.25,0.08 -0.38,-0.16 -0.4,-0.41 -0.01,-0.1 0.2,-0.22 0.51,-0.47 z"
   id="path242" />
	<path
   class="st1"
   d="m 615.71,262.72 c -0.33,0.11 -0.52,-0.11 -0.62,-0.65 0.32,-0.12 0.54,0.09 0.62,0.65 z"
   id="path244" />
	<path
   class="st2"
   d="m 476.01,545.28 c 0.25,-0.24 0.52,-0.12 0.84,0.33 -0.25,0.28 -0.54,0.18 -0.84,-0.33 z"
   id="path246" />
	<path
   class="st2"
   d="m 639.71,491.35 c 0.2,0.07 -0.05,0.35 -0.05,0.35 0,0 -0.37,-0.01 -0.45,-0.11 -0.08,-0.1 0.29,-0.31 0.5,-0.24 z"
   id="path248" />
	<path
   class="st2"
   d="m 641.68,490.68 c 0.13,0.07 -0.25,0.31 -0.36,0.33 -0.12,-0.22 -0.01,-0.36 0.36,-0.33 z"
   id="path250" />
	<path
   class="st2"
   d="m 620.77,917 c 0.21,0.22 0.2,0.43 0.13,0.97 -0.3,0.07 -0.55,-0.18 -0.79,-0.69 0,-0.27 0.44,-0.28 0.66,-0.28 z"
   id="path252" />
	<path
   class="st2"
   d="m 517.95,848.76 c -0.25,0.05 -0.4,-0.13 -0.49,-0.33 -0.03,-0.06 0.12,-0.19 0.36,-0.36 0.19,0.11 0.22,0.28 0.13,0.69 z"
   id="path254" />
	<path
   class="st0"
   d="m 445.06,358.24 c 0.12,-0.45 0.36,-0.75 0.86,-1.19 0.26,-0.13 0.51,-0.02 0.58,0.1 -0.1,0.33 -0.27,0.53 -0.7,1.03 -0.27,0.29 -0.63,0.2 -0.74,0.06 z"
   id="path256" />
	<path
   class="st1"
   d="m 452.81,364.73 c -0.3,0.14 -0.53,-0.07 -0.74,-0.61 0.28,-0.14 0.54,0.06 0.74,0.61 z"
   id="path258" />
	<path
   class="st0"
   d="m 447.91,374.24 c -0.01,-0.38 0.03,-0.63 0.11,-1.27 0.51,-0.31 0.87,-0.07 1.07,0.67 -0.06,0.34 -0.45,0.64 -0.66,0.75 -0.23,0.12 -0.48,-0.02 -0.52,-0.15 z"
   id="path260" />
	<path
   class="st1"
   d="m 416.21,785.81 c -0.19,-0.23 -0.08,-0.44 0.26,-0.69 0.35,0.25 0.28,0.5 -0.26,0.69 z"
   id="path262" />
	<path
   class="st4"
   d="m 515.9,810.69 c 0.34,1.02 0.6,1.66 0.91,2.54 -2.56,5.73 -1.7,11.51 -1.66,17.29 0.03,3.51 2.39,7.72 -2,10.47 -0.4,0.25 -0.64,0.59 -0.15,1.13 3.4,3.64 1.47,7.74 1.08,11.78 -1.06,11.2 -3.02,22.38 -1.23,33.7 0.2,1.26 -0.18,2.61 -0.58,4.2 -2.05,-0.74 -3.37,-2.22 -4.51,-3.84 -1.87,-2.65 -3.6,-2.56 -5.32,0.29 3.65,-0.8 6.06,0.53 6.85,4.48 8.84,7.43 2.87,16.36 2.64,25 -2.41,4.5 -1.5,9.07 -2.07,13.42 -0.29,2.22 -0.44,4.53 -3.5,1.41 -0.84,-3.7 -2.56,-6.98 -1.16,-10.6 0.74,-1.92 -1.67,-2.66 -1.99,-4.58 -0.53,-0.86 -0.12,-0.12 -0.47,-0.69 -0.17,-0.28 -0.32,-0.57 -0.45,-0.87 -0.17,0.34 0.28,0.38 0.48,0.88 1.14,2.38 -0.68,4.06 -0.82,6.36 -0.16,0.56 -0.24,0.78 -0.48,1.32 -0.56,0.93 -1.05,1.45 -2.08,1.75 -4.76,-2.51 -7.37,-5.89 -6.42,-11.32 0.36,-2.05 -0.03,-4.16 -0.51,-5.65 1.03,5.4 0.59,11.42 0.76,17.38 0.11,3.9 1.22,5.73 5.64,4.73 2.25,0.3 4.12,1.41 6.43,0.35 1.26,2.97 4.45,3.5 6.24,5.95 0.15,0.85 0.17,1.37 0.09,2.27 -0.1,0.38 -0.18,0.77 -0.36,0.85 -0.67,8.4 -1.16,16.72 -1.97,25.33 -0.8,-0.16 -0.64,-0.95 -1.08,-1.33 0.38,0.49 0.26,1.14 0.03,2.08 -0.49,0.36 -0.77,0.53 -1.06,1.02 -1.82,1.08 -3.24,-2.23 -5.16,0.12 -0.79,0.28 -1.52,0.26 -2.62,0.28 -1.89,-0.39 -3.6,0.64 -5.27,-0.8 -1.69,-1.09 -2.15,-2.34 -2.14,-4 0.05,-8.13 -1.77,-16.33 -1.33,-24.24 0.57,-10.07 -1.74,-19.72 -1.77,-29.6 -0.01,-2.8 -0.76,-5.59 -0.83,-8.39 -0.08,-3.22 0.73,-6.15 4.94,-7.1 -6.5,-3.15 -3.29,-7.97 -2.91,-12.61 3.25,0.6 1.36,3.59 2.52,5.2 0.2,-3.88 0.06,-7.99 0.05,-12.1 0,-1.27 0.2,-2.88 -2.33,-2.43 -1.29,-8.76 -2.36,-17.43 -3.16,-26.12 -0.24,-2.66 1.24,-4.31 4.95,-3.72 -6.75,-0.9 -5.57,-5.22 -5.17,-9.2 0.22,-2.15 0.3,-4.3 0.7,-6.78 3.09,-0.09 1.96,2.21 2.35,3.45 -0.29,-6.95 0.08,-14.18 -0.73,-21.36 -0.23,-2.02 -0.02,-4.34 -2.13,-6.13 -0.61,-3.13 -3.74,-6.88 2.38,-8.14 0.41,-0.04 0.75,0.19 0.63,0.02 -0.27,-0.64 -0.33,-1.45 -0.58,-1.52 -5.91,-1.53 -4.88,-5.65 -3.67,-10.23 0.8,-0.99 0.44,-2.36 1.98,-2.49 1.58,1.68 1.18,3.58 1.41,5.35 0.24,1.85 1.17,3.16 3.09,3.28 2.08,0.12 3.41,-1.12 3.98,-3.04 0.58,-1.96 -0.85,-2.36 -2.17,-3.51 -2.74,-2.39 -5.4,-5.29 -5.47,-9.53 -0.04,-2.43 0.89,-4.92 -0.44,-7.65 -0.61,-2.75 -0.52,-4.81 2.03,-6.3 0.63,-0.37 2.44,2.79 1.58,-0.44 -1.56,-5.87 -0.39,-12.15 -2.75,-18.28 0.96,-7.51 0.2,-14.64 0.54,-22.15 0.78,-3.9 1.88,-7.3 -1.11,-10.56 -1.27,-1.38 0.02,-3.45 0.34,-5.2 0.33,-1.79 0.18,-3.59 -0.21,-5.73 -0.2,-1.07 -0.19,-1.79 -0.06,-2.86 4.35,-2.66 5.01,-6.32 5.34,-10.92 0.22,-3.16 -3.95,-2.43 -2.95,-5.12 -0.37,0.64 -0.5,1.44 -1.59,1.8 -0.72,-1.45 -1.09,-2.88 -1.54,-4.67 -1.55,-7.35 -2.83,-14.35 -0.93,-21.92 4.51,-2.83 8.94,-5.63 7.82,-11.56 -0.98,-5.22 -1.53,-10.28 -0.52,-15.53 0.19,-1 -0.91,-2.08 -2.04,-3.12 -0.24,-8.56 -0.32,-16.89 -0.2,-25.21 0.13,-9.83 -0.68,-19.58 -1.85,-29.33 -1.08,-9 1.33,-17.87 1.63,-27.21 0.39,-0.75 0.8,-0.98 1.66,-0.97 1.91,0.9 2.14,2.74 3.14,3.82 -1.72,-4.27 0.86,-7.64 2.47,-11.6 2.53,1.19 2.1,3.88 3.56,5.32 0.31,-0.04 0.61,-0.32 0.46,-0.67 -2.48,-5.53 0.42,-10.79 0.67,-16.18 0.03,-0.62 1.79,-1.95 -0.67,-2.39 -1.7,-0.3 -2.03,0.47 -2.54,1.49 -1.2,2.37 -1.97,4.9 -2.7,7.44 -0.24,0.83 -0.79,1.43 -2.03,1.63 -2.87,-1.95 -1.87,-4.7 -1.66,-6.99 0.65,-7.16 -0.06,-14.3 0.15,-21.41 0.32,-10.82 -1.41,-21.59 -0.45,-32.33 0.4,-4.49 2.45,-8.86 7.06,-11.18 3.62,-1.82 1.12,-4.19 0.48,-6.74 0.07,-0.83 0.3,-1.22 0.59,-1.61 0.4,-0.53 0.06,0.25 0.29,-0.37 0.06,-0.16 -0.01,-0.04 -0.6,0.53 -1.59,0.52 -2.64,0.02 -3.75,-1.15 -9.05,-5.15 -6.78,-13.65 -6.76,-21.21 0.01,-3.53 2.98,-4.37 6.59,-3.86 2.13,0.01 3.84,0.01 5.83,0.29 6.14,-1.71 6.54,3.53 9.06,6.61 0.48,0.18 0.59,0.33 0.47,0.64 -1.83,3.79 -0.57,8.28 -3.1,11.49 -2.84,3.6 -3.84,6.66 -0.22,10.36 0.77,0.79 0.25,2.89 0.23,4.38 -0.3,21.56 -2.01,43.12 -0.68,64.66 0.68,11.07 1.96,22.1 1.82,33.66 0.07,0.76 0.16,1.07 0.1,1.85 -0.08,0.98 -0.02,1.5 0.02,2.28 -3.15,2.27 -2.01,5.21 -2.17,8.15 -0.4,7.12 -1.62,14.2 -2.87,21.24 -0.44,2.46 -1.04,4.88 -1.31,7.54 -0.24,0.41 0.81,0.15 0.18,-0.05 -0.19,-0.06 -0.06,-0.19 0.04,-0.5 0.21,-0.65 0.44,-1.45 1.11,-1.51 1.35,-0.14 1.27,0.89 1.24,1.22 -2.31,-7.56 1.26,-15.34 1.52,-23.33 0.04,-1.38 0.69,-2.57 2.5,-3.04 -1.67,15.71 -2.01,31.46 -1.35,47.19 0.45,10.72 1.06,21.47 2.98,32.07 0.31,1.72 1.08,3.11 2.63,4.48 -0.1,7.73 1.68,15.24 -0.85,22.56 -0.32,0.93 -0.58,1.89 -0.89,3.21 -0.51,2.47 -1.32,4.52 -0.83,7.14 0.05,0.41 0.21,0.85 0.15,1.07 -0.06,0.7 -0.05,1.18 0.02,2 0.12,0.54 0.18,0.72 0.36,1.17 1.12,14.41 2.14,28.55 3.08,42.7 0.32,4.73 0.78,9.55 -2.7,13.93 1.5,7.14 0.46,14.08 1.5,21.23 0.23,1.07 0.27,1.8 0.26,2.9 -0.45,1.13 -0.35,1.95 -0.17,3.03 0.15,0.73 0.17,1.19 0.14,1.98 -1.54,1.41 0.21,2.65 -0.08,4.05 0.27,1.92 0.08,3.67 0.59,5.19 1.41,4.29 0.77,7.46 -4.61,9.02 4.6,0.66 4.19,3.59 4.32,6.58 0.07,3.63 -1.35,7.2 -0.19,11.19 z"
   id="path264" />
	<path
   class="st3"
   d="m 489.99,739.69 c 3.57,5.38 1.19,11.41 2.87,16.73 0.32,1 1.73,3.8 -2.25,3.2 -2.06,-0.31 -1.42,2.81 -1.68,4.9 -0.4,5.21 0.49,10.07 -0.74,15.15 -0.78,0.85 -1.26,1.43 -1.97,2.17 -0.24,-9.66 -0.25,-19.47 -0.22,-29.28 0.01,-2.46 -0.36,-5.04 1.8,-6.99 0.59,-0.54 1.38,-1.56 0.49,-2.09 -6,-3.62 -2.91,-9.31 -2.9,-13.97 0.02,-8.6 1,-17.2 1.64,-25.79 0.17,-2.3 0.59,-4.59 0.92,-7.3 0.21,-0.6 0.39,-0.77 0.82,-0.66 1.7,2.78 2.52,5.33 0.83,8.06 -0.94,1.52 -0.66,3.3 0.52,4.08 3.27,2.14 1.79,4.74 1.03,7.67 -2.1,4.57 -0.88,9.04 -1.12,13.4 -0.19,3.4 -0.03,6.85 -0.04,10.72 z"
   id="path266" />
	<path
   class="st5"
   d="m 489.05,679.38 c 1.69,-1.75 0.34,-3.89 1.3,-5.47 0.3,0.01 0.82,-0.01 0.83,0.05 0.7,4.02 4.55,6.64 4.08,11.5 -0.4,4.11 -1.4,6.51 -5.77,7.43 -1.36,-0.82 -0.85,-1.97 -0.9,-3.39 0.17,-1.17 0.27,-1.94 0.43,-3.09 0.83,-1.48 0.42,-2.7 0.27,-4.14 -0.18,-1.02 -0.23,-1.77 -0.24,-2.89 z"
   id="path268" />
	<path
   class="st5"
   d="m 486.85,802.46 c 1.36,-0.93 2.82,-2.06 3.17,0.67 1.33,10.21 1.23,20.46 0.7,30.71 -0.01,0.18 -0.47,0.33 -0.92,0.63 -1.89,-2.44 0.04,-5.51 -1.59,-8.23 -0.08,-2.23 0.14,-4.19 0.42,-6.51 -0.13,-4.61 -0.7,-8.82 -1.43,-13.39 -0.28,-1.39 -0.32,-2.44 -0.35,-3.88 z"
   id="path270" />
	<path
   class="st5"
   d="m 489.99,872.46 c 1.37,-0.98 0.74,-3.87 2.88,-3.17 1.85,0.6 1.08,2.55 1.1,3.93 0.08,4.79 0.08,9.58 0.03,14.37 -0.01,1.04 0.49,2.72 -1.11,2.83 -1.76,0.11 -1.77,-1.58 -1.86,-2.89 -0.13,-1.97 -0.23,-3.93 -0.6,-6.2 -0.31,-3.01 -0.38,-5.72 -0.44,-8.87 z"
   id="path272" />
	<path
   class="st2"
   d="m 493.62,967.41 c 1.76,1.02 3.72,-1.64 5.29,0.52 -7.44,3.58 -4.56,10.74 -5.82,16.73 0.08,0.5 0.16,0.65 0.14,1.03 -0.1,0.23 -0.14,0.3 -0.19,0.31 -0.39,0.35 -0.82,0.49 -1.6,0.27 1.19,-4.64 0.2,-9.25 0.52,-13.77 0.14,-1.7 -0.66,-3.67 1.66,-5.09 z"
   id="path274" />
	<path
   class="st1"
   d="m 492.98,988.23 c 3.38,1.3 3.86,5.11 6.95,6.74 -2.53,0.86 -3.88,-0.65 -5.7,-1.93 -0.98,-1.56 -2.19,-2.8 -1.25,-4.81 z"
   id="path276" />
	<path
   class="st4"
   d="m 486.93,806.44 c 3,3.33 1.88,7.74 1.87,12.45 -1.65,-3.55 -1.79,-7.78 -1.87,-12.45 z"
   id="path278" />
	<path
   class="st1"
   d="m 508.32,992.45 c -1.93,1.27 -3.21,3.22 -6.01,3.12 0.81,-2.61 2.67,-3.72 5.18,-4.58 0.76,0.26 0.98,0.64 0.83,1.46 z"
   id="path280" />
	<path
   class="st5"
   d="m 508.49,992.63 c -0.35,-0.26 -0.4,-0.67 -0.55,-1.37 0.25,-1.08 0.6,-1.86 0.93,-2.97 -0.1,-0.49 -0.17,-0.65 -0.1,-1.03 0.18,-0.39 0.23,-0.55 0.31,-0.96 0.2,-0.3 0.37,-0.35 0.78,-0.47 1.83,2.57 1.49,4.84 -1.37,6.8 z"
   id="path282" />
	<path
   class="st3"
   d="m 493.23,987.66 c 0.3,1.72 0.53,3.11 0.73,4.85 -2.95,-0.72 -3.19,-3.06 -2.84,-6.04 0.46,-0.43 0.87,-0.47 1.59,-0.49 0.35,0.48 0.4,0.91 0.52,1.68 z"
   id="path284" />
	<path
   class="st2"
   d="m 488.45,689.4 c 0.32,0.72 0.44,1.74 0.62,3.14 0.03,1.16 -0.01,1.94 -0.05,3.1 -0.17,0.39 -0.35,0.39 -0.78,0.37 -0.17,-2.12 -0.09,-4.21 0.21,-6.61 z"
   id="path286" />
	<path
   class="st4"
   d="m 489.07,682.39 c 1.17,0.69 1.1,1.91 0.24,3.4 -0.26,-0.85 -0.29,-1.93 -0.24,-3.4 z"
   id="path288" />
	<path
   class="st1"
   d="m 493.28,985.84 c -0.14,0.08 -0.2,-0.37 -0.19,-0.6 0.39,-0.06 0.49,0.18 0.19,0.6 z"
   id="path290" />
	<path
   class="st1"
   d="m 508.77,987.12 c 0.14,-0.08 0.18,0.39 0.13,0.62 -0.42,0.03 -0.49,-0.22 -0.13,-0.62 z"
   id="path292" />
	<path
   class="st3"
   d="m 449.33,374.14 c -0.49,-0.48 -0.67,-0.81 -1.06,-1.34 -2.26,-4.21 -4.4,-8.16 -7.97,-11.53 -0.45,-3.68 -3,-5.67 -4.91,-8.09 -3.33,-4.22 -5.7,-9.19 -10.13,-12.97 -0.29,-0.18 -0.25,-0.21 -0.26,-0.19 -3.23,-5.92 -8.12,-10.69 -11.79,-16.73 -0.23,-0.26 -0.2,-0.29 -0.21,-0.27 -0.2,-0.24 -0.41,-0.48 -0.83,-0.83 -0.18,-0.15 -0.18,-0.17 -0.19,-0.16 -2.2,-2.59 -4.13,-5.4 -6.74,-7.93 -0.33,0 -0.71,-0.06 -0.91,-0.09 -4.9,-8.27 -11.04,-15.49 -16.63,-23.1 -0.97,-1.32 -3.1,-3.06 -0.78,-4.59 1.85,-1.22 3.06,0.12 4.61,1.97 12.64,15.03 23.91,31.1 35.85,46.66 5.77,7.52 11.34,15.18 17.29,22.96 0.28,0.18 0.59,0.36 0.73,0.46 2.82,4.04 5.38,8.06 8.21,11.88 4.58,6.18 7.77,12.94 9.55,20.41 0.3,1.25 1.1,2.38 1.73,3.92 -1.52,3.02 -2.38,0.32 -3.86,-0.33 -3.95,-4.57 -5.88,-9.86 -8.24,-14.92 -0.86,-1.8 -1.65,-3.64 -3.46,-5.19 z"
   id="path294" />
	<path
   class="st4"
   d="m 506.18,379.5 c 0.69,-0.8 1.3,-1.37 2.25,-0.49 0.21,0.82 0.25,1.5 0.27,2.52 -0.05,0.56 -0.09,0.78 0,1.31 1.06,5.34 3.74,10.27 0.65,15.51 -0.86,1.45 -0.58,3.18 0.53,4.68 4.39,5.93 1.85,14.33 -5.51,17.14 -1.98,-0.97 -1.8,-2.16 -0.47,-3.1 3.41,-2.39 3.05,-6.02 3.17,-9.43 0.06,-1.78 0,-3.94 -2.42,-4.26 -2.38,-0.31 -5,-1.41 -7.11,0.62 -1.68,1.62 -1.35,3.79 -0.39,5.55 1.27,2.31 1.59,4.93 2.78,7.23 0.61,1.17 0.29,2.24 -0.58,3.52 -7.58,-1 -12.34,-10.99 -8.37,-17.16 0.87,-1.35 1.84,-2.95 1.32,-4.02 -2.18,-4.49 0.22,-8.91 -0.22,-13.71 2.1,-2.01 1.68,-4.5 2.44,-6.87 2.11,3 2.83,6.31 1.39,9.98 -1.42,3.6 0.56,2.74 2.81,1.57 1.8,-0.52 3.21,-0.24 4.88,0.61 2.42,0.77 3.28,0.14 2.39,-2.01 -1.23,-2.98 -0.78,-5.89 0.19,-9.19 z"
   id="path296" />
	<path
   class="st5"
   d="m 494.2,539.84 c -0.73,0.21 -1.19,0.21 -2.01,0.23 0.76,-15.71 1.08,-31.46 0.71,-47.22 -0.29,-12.6 -1.06,-25.18 -0.97,-37.8 0.03,-4.12 1.36,-6.65 5.49,-8.1 1.47,0.19 2.63,0.54 4.22,1 0.12,2.51 3.18,3.49 2.87,5.95 -0.31,2.42 -0.15,4.96 -3.97,4.26 -2.85,-0.52 -2.23,1.99 -2.48,3.52 -0.3,1.78 -0.21,1.77 -2.3,2.39 -1.41,0.42 -0.66,1.6 -0.68,2.39 -0.28,8.21 1.28,16.48 0.65,24.55 -0.8,10.36 2.09,20.72 -0.57,31 -0.43,1.67 0.13,3.59 0.52,5.68 0.54,0.62 0.69,1 0.7,1.74 0.05,0.71 0.1,1.11 0.23,1.8 0.09,0.71 0.08,1.12 -0.07,1.83 -0.22,0.7 -0.37,1.1 -0.63,1.8 -0.65,1.77 -0.63,3.4 -1.71,4.98 z"
   id="path298" />
	<path
   class="st3"
   d="m 499.07,420.86 c 0.01,-3.47 -0.9,-6.26 -2.41,-9.05 -1.55,-2.87 -3.16,-6.44 -0.08,-9.12 3.08,-2.68 6.94,-0.41 10.44,-0.27 1,0.04 0.8,1.61 1.02,2.56 1.3,5.66 -0.1,10.52 -4.13,14.91 0.08,1 -2.36,0.88 -0.29,2.26 -1.42,1.4 -3.22,0.83 -5.24,0.25 0.06,-0.57 0.36,-0.89 0.69,-1.54 z"
   id="path300" />
	<path
   class="st4"
   d="m 460.82,394.39 c 1.47,-0.82 2.35,0.83 3.93,0.75 5.56,8.93 13.06,16.26 20.43,23.71 4.3,4.34 4.68,6.56 3.21,14.15 -0.8,-8.21 -5.82,-13.29 -11.81,-18.34 -6.45,-5.44 -11.37,-12.54 -15.76,-20.27 z"
   id="path302" />
	<path
   class="st5"
   d="m 491.93,622.36 c 3.17,-0.48 3.99,1.33 3.81,4.08 -0.25,3.69 -1.99,6.85 0.57,11.22 1.78,3.03 -0.27,9.01 -2.84,12.98 -1.25,1.93 -4.05,0.05 -6.16,1.36 0.04,-2.8 2.11,-5.19 1.77,-8.59 0.92,-1.34 0.79,-2.57 0.88,-4.09 0.09,-1.49 -0.06,-2.64 0.57,-4.03 0.24,-0.46 0.31,-0.63 0.49,-1.04 0.32,-0.52 0.52,-0.8 0.73,-1.35 0.02,-0.91 0.01,-1.56 0.04,-2.53 0.3,-1.8 0.23,-3.29 0.14,-5.1 -0.04,-1.05 -0.04,-1.79 0,-2.91 z"
   id="path304" />
	<path
   class="st2"
   d="m 478.21,544.26 c 2.57,-0.72 0.21,-2.65 0.89,-4.04 3.57,0.11 3.36,5.59 7.83,5.34 0.71,-0.04 0.95,4.77 -0.63,6.2 -1.48,1.35 -2.99,-1.09 -3.96,-2.33 -1.29,-1.65 -1.76,-3.95 -4.13,-5.17 z"
   id="path306" />
	<path
   class="st5"
   d="m 489.14,398.8 c -2.85,-1.65 0.31,2.28 -1.91,1.47 -0.72,-0.05 -1.17,-0.68 -1.3,-1.54 -0.26,-1.86 0.22,-3.63 2.31,-3.56 2.66,0.09 1.41,2.4 1.61,3.85 0.02,0.16 0.03,0.4 -0.06,0.48 -0.62,0.58 -0.54,-0.05 -0.65,-0.7 z"
   id="path308" />
	<path
   class="st4"
   d="m 491.65,625.22 c 1.87,1.14 1.5,2.75 0.46,4.63 -1.47,-1.23 -1.07,-2.81 -0.46,-4.63 z"
   id="path310" />
	<path
   class="st1"
   d="m 490.38,635.07 c 0.64,1.12 0.62,2.29 -0.16,3.66 -1.51,-1.08 -1.68,-2.36 0.16,-3.66 z"
   id="path312" />
	<path
   class="st4"
   d="m 491.58,632.84 c 0.12,0.16 0.04,0.5 -0.24,1.01 -0.13,-0.17 -0.04,-0.5 0.24,-1.01 z"
   id="path314" />
	<path
   class="st3"
   d="m 440.04,114.58 c -4.62,9.51 -6.53,19.58 -10.11,29.06 -0.62,1.65 -0.24,4.23 -3.47,4.36 0.88,-8.77 4.26,-16.9 7.21,-25.12 1.51,-4.21 2.82,-8.46 4.15,-12.71 0.6,-1.91 1.34,-3.65 3.44,-5.13 0.79,3.44 -1.42,6.16 -1.22,9.54 z"
   id="path316" />
	<path
   class="st3"
   d="m 396.67,239.09 c 0.51,2 0.25,4.12 -0.47,6.57 -0.03,1.13 -0.09,1.86 -0.13,2.97 0.11,0.54 0.21,0.71 0.14,1.13 -3.42,7.82 -4.08,16.46 -9.86,23.19 -0.79,-3.19 0.47,-6.1 1.56,-9.03 3.04,-8.14 4.59,-16.79 8.76,-24.83 z"
   id="path318" />
	<path
   class="st3"
   d="m 437.35,35.38 c -0.45,-2.05 -0.63,-3.94 -0.93,-7.03 2.71,3.97 3.12,7.42 3.6,11.26 -1.57,-0.7 -1.69,-2.54 -2.67,-4.23 z"
   id="path320" />
	<path
   class="st3"
   d="m 384.75,276.25 c -0.14,1.77 0.92,4.03 -1.64,6.87 0.62,-2.94 1.01,-4.78 1.64,-6.87 z"
   id="path322" />
	<path
   class="st3"
   d="m 439.96,40.35 c 0.51,-0.07 1.01,0.19 1.76,0.57 0.3,0.92 0.23,1.76 -0.84,1.58 -0.94,-0.16 -0.81,-1.11 -0.92,-2.15 z"
   id="path324" />
	<path
   class="st3"
   d="m 385.02,276.02 c 0.17,-0.85 0.34,-1.72 0.75,-2.79 0.25,-0.21 0.23,-0.23 0.22,-0.24 -0.16,0.87 -0.3,1.74 -0.73,2.81 -0.28,0.19 -0.25,0.21 -0.24,0.22 z"
   id="path326" />
	<path
   class="st2"
   d="m 443.53,57.12 c 0.11,-0.11 0.21,0.38 0.18,0.63 -0.33,0.05 -0.42,-0.21 -0.18,-0.63 z"
   id="path328" />
	<path
   class="st2"
   d="m 405.59,211.14 c 0.21,0.19 0.11,0.47 -0.31,0.85 -0.18,-0.18 -0.08,-0.46 0.31,-0.85 z"
   id="path330" />
	<path
   class="st2"
   d="m 396.2,249.91 c -0.16,-0.08 -0.17,-0.25 -0.15,-0.66 0.18,-0.08 0.35,0.08 0.47,0.27 0.03,0.05 -0.1,0.2 -0.32,0.39 z"
   id="path332" />
	<path
   class="st3"
   d="m 637.89,497.52 c -0.82,1.29 -1.58,2.23 -2.62,3.33 -5.33,-0.84 -8.86,2.87 -13.08,4.39 -7.56,2.72 -14.98,5.82 -22.82,8.81 -1.16,-1.93 0.24,-3.63 0.51,-5.76 11.08,-4.98 21.97,-9.75 33.72,-13.3 1.25,0.03 2.12,0 3.19,0.62 0.28,0.17 0.74,0.22 0.98,0.2 0.21,0.45 0.2,0.91 0.12,1.71 z"
   id="path334" />
	<path
   class="st5"
   d="m 522.76,539.16 c 5.43,-2.21 10.61,-4.28 16.05,-6.58 17.68,-6.02 34.19,-14.13 51.31,-20.7 1.68,-0.64 3.13,-1.86 5.41,-1.98 1.68,-0.32 1.81,0.46 1.43,1.33 -0.77,1.79 -2.27,2.81 -4.07,3.41 -13.08,4.38 -25.37,10.67 -38.11,15.86 -3.68,1.5 -7.78,1.79 -11.44,4.32 -5.62,2.38 -11.02,4.4 -16.32,6.67 -1.98,0.85 -3.51,-0.46 -5.66,-0.46 0.12,-0.59 0.63,-1.16 1.4,-1.87 z"
   id="path336" />
	<path
   class="st4"
   d="m 543.47,535.08 c 0.3,-1.85 1.76,-3.04 3.56,-3.5 14.5,-3.76 27.33,-11.64 41.28,-16.78 2.83,-1.04 6.73,-0.63 7.79,-4.75 0.96,-0.79 2.12,-1.38 3.62,-2 1.69,2.04 0.44,3.7 -0.6,5.74 -8,4.7 -16.67,7.11 -25.07,10.14 -10.1,3.63 -19.55,9 -30.58,11.15 z"
   id="path338" />
	<path
   class="st3"
   d="m 732.63,446.07 c -0.8,4.19 -5.03,5.19 -7.97,7.2 -5.02,3.42 -10.77,5.77 -16.26,8.48 -1.29,0.64 -3.18,2.32 -3.37,-1.37 9.08,-5 18.16,-9.64 27.6,-14.31 z"
   id="path340" />
	<path
   class="st3"
   d="m 691.6,467.12 c 0.52,1.55 0.23,2.92 -1.35,3.72 -6.16,3.12 -12.32,6.25 -18.5,9.35 -1.02,0.51 -2.18,1.11 -2.91,-0.92 7.41,-4.26 14.91,-8.18 22.76,-12.15 z"
   id="path342" />
	<path
   class="st2"
   d="m 637,495.48 c -0.85,0.5 -1.76,0.63 -2.81,-0.25 0.87,-1.47 1.87,-1.61 2.81,0.25 z"
   id="path344" />
	<path
   class="st3"
   d="m 600.11,308.6 c -1.19,5.88 -5.85,9.08 -8.88,13.29 -9.6,13.32 -19.64,26.32 -29.55,39.42 -1.2,1.58 -2.64,2.98 -4.27,4.63 -0.6,0.29 -0.86,0.47 -1.21,0.92 -0.13,0.2 -0.19,0.15 -0.16,0.17 -0.85,0.64 -0.45,1.62 -0.81,2.71 -0.16,0.29 -0.18,0.31 -0.19,0.33 -2.26,1.23 -3.04,3.7 -4.76,5.78 -0.14,0.3 -0.2,0.3 -0.19,0.27 -3.02,4.53 -5.07,9.6 -7.78,14.69 -0.26,0.23 -0.31,0.21 -0.29,0.23 -0.13,0.15 -0.27,0.27 -0.29,0.65 -3.25,8.65 -8.87,15.43 -15.47,21.79 -1.56,-2.2 0.67,-3.32 1.5,-5.26 0.8,-0.77 1.42,-1.25 2.18,-1.98 0.55,-0.89 0.91,-1.56 1.78,-2.15 0.17,-0.22 0.25,-0.16 0.2,-0.16 0.52,-0.34 0.56,-0.95 0.87,-1.75 0.15,-0.25 0.19,-0.19 0.16,-0.2 0.25,-0.18 0.5,-0.4 0.85,-0.85 0.14,-0.2 0.17,-0.13 0.14,-0.15 0.49,-0.39 0.55,-0.99 0.83,-1.8 0.14,-0.26 0.21,-0.19 0.16,-0.21 0.52,-0.38 0.56,-1 0.87,-1.82 4.61,-10.77 7.35,-22.14 15.71,-31.03 5.42,-4 7.61,-10.21 12.21,-14.91 0.23,-0.26 0.28,-0.23 0.25,-0.23 8.84,-11.94 17.49,-24.05 27.18,-35.34 1.96,-2.28 3.37,-4.92 5.28,-7.22 1.13,-1.37 2.4,-2.66 3.68,0.18 z"
   id="path346" />
	<path
   class="st3"
   d="m 511.87,567.6 c -1.57,1.25 -1.83,2.64 -1.88,4.23 -0.29,8.74 -3.13,17.25 -1.8,26.42 -2.07,-1.22 -0.37,-3.22 -1.78,-4.23 -1.17,1.98 0.59,4.55 -2.23,7.44 -1.08,-15.59 5.45,-29.54 3.2,-43.8 2.13,-0.93 1.99,1.88 3.7,1.12 3.98,2.34 -0.3,5.59 0.79,8.82 z"
   id="path348" />
	<path
   class="st4"
   d="m 527.66,408.08 c -0.32,1.52 -0.94,3.18 -1.63,5.15 -0.07,0.31 -0.22,0.55 -0.33,0.64 -0.9,0.94 -2.09,1.33 -2.96,2.61 -3.42,3.95 -7.79,6.98 -7.4,13.07 -1.27,-0.33 -1.27,-1.47 -1.66,-2.73 -0.11,-0.47 -0.12,-0.66 0.08,-1.01 0.06,-0.26 -0.09,-0.35 -0.4,-0.68 0.73,-5.24 5.13,-7.56 8.1,-10.95 1.83,-2.1 3.92,-3.98 6.2,-6.1 z"
   id="path350" />
	<path
   class="st2"
   d="m 522.63,654.98 c 0.67,1.83 0.99,3.61 1.33,5.8 0.48,1.31 0.08,2.06 -0.68,2.99 -4.98,-1.65 -3.44,-6.6 -5.25,-10.26 1.83,-0.71 2.68,1.23 4.6,1.47 z"
   id="path352" />
	<path
   class="st4"
   d="m 542.41,391 c 1.16,-5.35 3.17,-10.48 7.39,-14.79 -0.98,5.41 -3.58,10.29 -7.39,14.79 z"
   id="path354" />
	<path
   class="st4"
   d="m 550.39,376.15 c 0.23,-2.66 1.4,-4.83 4.3,-6.05 -0.89,1.76 -2.13,3.55 -3.49,5.63 -0.12,0.31 -0.57,0.42 -0.81,0.42 z"
   id="path356" />
	<path
   class="st2"
   d="m 513.12,425.3 c 0.09,-0.4 0.48,-0.35 0.68,-0.32 0.56,1.4 0.91,2.78 1.29,4.51 -0.49,0.39 -0.99,0.43 -1.87,0.37 -0.37,-0.1 -0.32,-0.48 -0.28,-0.67 0.06,-1.29 0.07,-2.39 0.18,-3.89 z"
   id="path358" />
	<path
   class="st3"
   d="m 522.86,416.73 c -1.21,-2.38 0.59,-2.45 2.42,-2.76 0.12,1.44 -1.08,2 -2.42,2.76 z"
   id="path360" />
	<path
   class="st3"
   d="m 511.28,556.25 c -0.21,-0.11 -0.22,-0.42 -0.2,-1.2 0.16,0.02 0.28,0.51 0.2,1.2 z"
   id="path362" />
	<path
   class="st4"
   d="m 541.95,391.74 c -0.22,0.04 -0.37,-0.13 -0.48,-0.32 -0.02,-0.03 0.15,-0.16 0.4,-0.3 0.17,-0.05 0.17,0.41 0.08,0.62 z"
   id="path364" />
	<path
   class="st5"
   d="m 371.55,494.04 c 0.88,0.96 1.78,0.98 2.97,1.08 2.59,4.06 7.27,3.81 10.73,5.75 2.86,1.6 6.05,2.62 9.44,3.98 0.61,0.28 0.88,0.48 1.29,0.89 -1.44,4.54 -3.16,-1.32 -4.48,0.4 -0.91,-0.38 -0.82,0.66 -0.64,0.01 0.06,-0.23 0.21,-0.2 0.48,-0.15 1.87,0.39 2.8,1.57 2.8,3.76 -10.18,-1.62 -18.81,-7.31 -28.49,-10.17 -1.25,-0.37 -1.57,-1.58 -1.64,-3.17 -0.14,-0.52 -0.28,-0.66 -0.38,-1.09 0.3,-0.6 0.63,-0.82 1.26,-1.11 2.23,-0.16 4.23,-0.18 6.66,-0.18 z"
   id="path366" />
	<path
   class="st3"
   d="m 269.84,447.22 c 9.31,3.13 17.68,8.27 26.81,12.65 1.09,1.18 1.23,2.18 -0.23,3.18 -6.93,-3.17 -13.43,-6.37 -20.15,-9.84 -2.04,-2.39 -5.8,-2.25 -6.43,-5.99 z"
   id="path368" />
	<path
   class="st3"
   d="m 333.89,479.69 c -1.56,2.35 -3.14,0.66 -4.63,-0.04 -5.2,-2.46 -10.34,-5.06 -15.86,-7.66 -1.19,-0.62 -2.03,-1.19 -3.14,-1.88 -0.84,-0.81 -0.98,-1.57 -0.47,-2.72 8.42,3.26 16.47,7.04 24.1,12.3 z"
   id="path370" />
	<path
   class="st2"
   d="m 309.85,466.79 c 0.18,1.02 0.15,1.74 0.13,2.84 -4.82,-1.15 -9.14,-3.73 -13.81,-6.24 0.72,-0.86 0.87,-1.73 0.82,-3.02 4.2,1.81 8.43,3.97 12.86,6.42 z"
   id="path372" />
	<path
   class="st2"
   d="m 269.78,446.56 c 1.08,3.34 4.78,3.25 6.22,6.06 -5.65,-1.33 -10.52,-4.6 -15.59,-7.66 3.19,0.08 6.41,-0.76 9.37,1.6 z"
   id="path374" />
	<path
   class="st3"
   d="m 355.89,491.69 c -2.86,-0.04 -5.88,-0.34 -6.87,-4.33 2.94,0.05 4.9,1.94 6.87,4.33 z"
   id="path376" />
	<path
   class="st3"
   d="m 364.21,495.03 c -0.17,0.35 -0.15,0.68 -0.19,0.84 -1.72,0.15 -3.26,-0.35 -4.83,-1.61 1.15,-0.25 2.49,-0.21 4.23,-0.15 0.59,0.21 0.78,0.39 0.79,0.92 z"
   id="path378" />
	<path
   class="st3"
   d="m 357.87,492.75 c -0.41,0.09 -1,-0.07 -1.73,-0.5 0.42,-0.1 0.99,0.07 1.73,0.5 z"
   id="path380" />
	<path
   class="st2"
   d="m 364.25,495.19 c -0.25,-0.02 -0.28,-0.23 -0.37,-0.75 0.15,-0.33 0.37,-0.35 0.91,-0.38 0.12,0.32 -0.1,0.63 -0.54,1.13 z"
   id="path382" />
	<path
   class="st3"
   d="m 358.96,493.74 c -0.23,0.08 -0.52,-0.1 -0.89,-0.53 0.22,-0.07 0.52,0.1 0.89,0.53 z"
   id="path384" />
	<path
   class="st5"
   d="m 600.3,308.76 c -2.23,-3.12 -2.87,0.24 -3.49,1.04 -10.08,12.91 -20.05,25.91 -30.07,38.87 -0.6,0.78 -1.44,1.37 -2.48,2.18 -0.77,-2.44 1.32,-3.73 2.55,-5.38 14.73,-19.8 29.24,-39.77 44.97,-59.21 0.66,-0.55 1.18,-0.8 1.96,-1.15 4.28,1.1 1.6,3.39 0.7,4.68 -4.48,6.36 -9.23,12.53 -14.14,18.97 z"
   id="path386" />
	<path
   class="st3"
   d="m 580.26,168.54 c 1.88,-0.87 3.24,0.34 3.15,1.83 -0.45,7.22 4.41,12.66 6.22,19.13 2.22,7.95 5.66,15.56 7.37,24.11 0.61,1.24 0.53,1.99 -0.72,2.64 -5.58,-11.08 -8.13,-23.08 -12.18,-34.57 -1.48,-4.19 -2.54,-8.52 -3.84,-13.14 z"
   id="path388" />
	<path
   class="st2"
   d="m 595.88,216.66 c 0.34,-0.92 0.71,-1.46 1.13,-2.33 2.82,1.77 2.8,5.23 3.78,8.07 3.29,9.55 6.1,19.26 9.12,29.29 -1.16,1.21 -1.96,0.55 -3.08,-0.48 -4.14,-11.44 -7.96,-22.67 -10.95,-34.55 z"
   id="path390" />
	<path
   class="st3"
   d="m 560.9,106.41 c 2.06,-1.12 1.82,0.92 2.12,1.8 4.28,12.8 8.48,25.64 12.61,38.49 0.27,0.85 -0.08,1.91 -0.39,3.15 -4.61,-8.69 -6.6,-18.47 -9.9,-27.79 -1.77,-4.98 -2.92,-10.17 -4.44,-15.65 z"
   id="path392" />
	<path
   class="st3"
   d="m 606.63,251.4 c 0.77,-0.09 1.69,0.21 2.96,0.58 0.47,0.61 0.59,1.14 0.91,1.85 0.62,1.6 1.05,3.02 1.55,4.8 0.04,0.65 0.11,0.91 0.44,1.28 0.56,1.55 0.97,2.98 1.41,4.77 0.41,1.91 0.29,3.31 -1.45,4.32 -2.15,-5.78 -3.91,-11.5 -5.82,-17.6 z"
   id="path394" />
	<path
   class="st2"
   d="m 612.09,269.28 c 1.41,-1 0.88,-2.63 1.7,-3.94 1.64,1.09 1.79,3.04 2.25,5.24 0.16,0.93 0.3,1.49 0.68,2.23 0.28,0.91 0.33,1.63 0.23,2.85 -1.7,-1.68 -3.27,-3.86 -4.86,-6.38 z"
   id="path396" />
	<path
   class="st2"
   d="m 617.05,275.96 c 0.76,1.98 1.43,4.01 2.11,6.05 -2.85,-1.07 -2.02,-3.24 -2.3,-5.47 -0.04,-0.38 0.11,-0.51 0.19,-0.58 z"
   id="path398" />
	<path
   class="st1"
   d="m 559,93 c -0.09,0.03 -0.19,0.07 -0.14,0.06 C 559,93 559,93 559,93 Z"
   id="path400" />
	<path
   class="st3"
   d="m 394.47,877.33 c -0.77,2.58 -1.68,4.64 -3.87,6.16 0.3,-7.4 2.71,-14.26 4.86,-21.7 2.65,3.91 2.65,3.91 -0.99,15.54 z"
   id="path402" />
	<path
   class="st4"
   d="m 406.81,827.66 c -1.8,2.87 0.05,6.03 -1.69,8.94 -2.8,0.77 -1.32,6.02 -4.24,4.74 -2.05,-0.9 -0.16,-4.33 0.32,-6.31 0.83,-3.48 -1.03,-8.28 4.4,-10.16 1.34,0.56 1.35,1.49 1.21,2.79 z"
   id="path404" />
	<path
   class="st3"
   d="m 605.37,871.14 c -0.28,-0.68 -0.33,-1.09 -0.45,-1.79 -0.31,-1.72 -0.56,-3.15 -0.85,-4.93 -0.04,-0.36 -0.04,-0.39 -0.03,-0.4 0.37,-0.37 0.81,-0.57 1.67,-0.56 0.53,0.15 0.7,0.22 1.12,0.42 1.79,5.33 3.37,10.52 4.86,15.74 0.29,1.01 0.89,2.46 -0.75,2.88 -1.14,0.29 -1.7,-0.87 -2.04,-1.77 -1.14,-3.08 -2.2,-6.2 -3.53,-9.59 z"
   id="path406" />
	<path
   class="st3"
   d="m 622.47,919.04 c -0.46,-0.73 -0.65,-1.27 -1.05,-2 -0.44,-0.75 -0.66,-1.3 -1.12,-2.05 -1.11,-2.84 -1.97,-5.48 -2.84,-8.13 -0.28,-0.86 -0.2,-1.68 0.62,-2.14 0.77,-0.44 1.44,0.26 1.5,0.78 0.94,7.41 6.86,12.66 8.44,20.13 -3.07,-0.89 -3.24,-4.37 -5.55,-6.59 z"
   id="path408" />
	<path
   class="st3"
   d="m 629.01,927.71 c -0.36,-0.15 -0.7,-0.61 -1.03,-1.38 0.35,0.15 0.7,0.61 1.03,1.38 z"
   id="path410" />
	<path
   class="st3"
   d="m 629.19,928.89 c -0.18,0.09 -0.23,-0.4 -0.22,-0.64 0.42,-0.11 0.77,0.04 0.22,0.64 z"
   id="path412" />
	<path
   class="st4"
   d="m 394.19,510.35 c -0.55,-2.29 -2.63,-3.15 -3.58,-4.79 2.21,-1.46 3.15,2.1 5.31,0.64 13.65,4.57 27.1,9.39 39.97,16.41 -0.56,1.58 -1.84,2.18 -3.57,2.54 -0.35,-0.08 -0.32,-0.14 -0.34,-0.12 -0.25,-0.24 -0.39,-0.53 -0.42,-0.85 -0.06,-0.56 -0.03,-1.12 0.01,-1.69 -0.11,0.65 -0.07,1.31 -0.39,2.22 -0.24,0.26 -0.7,0.22 -0.94,0.19 -0.46,-0.29 -0.66,-0.57 -1.07,-0.84 -0.25,0.04 -0.69,0.01 -0.9,-0.03 -0.73,-0.55 -0.71,-1.2 -0.76,-1.86 -0.03,-0.34 0.22,-0.61 0.12,-0.94 -0.22,0.44 -0.15,0.92 -0.49,1.62 -0.25,0.24 -0.66,0.23 -0.86,0.2 -1.53,-0.62 -1.63,-1.96 -1.97,-2.97 0.37,0.37 0.1,0.97 -0.14,1.77 -10.48,-2.56 -20.19,-6.74 -29.98,-11.5 z"
   id="path414" />
	<path
   class="st4"
   d="m 456.61,530.86 c 0.46,0.47 0.65,0.71 1.1,1.04 0.17,0.98 0.15,2.01 -1.1,1.12 -1.08,-0.77 -1.78,-0.53 -2.51,0.76 -1.23,-0.01 -2.35,-0.3 -3.77,-0.75 -1.09,-1.43 -1.8,-2.84 -3.99,-1.88 -0.31,-0.08 -0.37,-0.1 -0.4,-0.12 -1.9,-2.06 -5.33,-2.38 -5.97,-5.87 5.84,0.87 10.82,3.9 16.64,5.7 z"
   id="path416" />
	<path
   class="st3"
   d="m 440.12,524.88 c 1.24,2.6 4.77,2.75 5.82,5.81 -3.05,-0.36 -5.88,-1.53 -8.79,-3.33 -1.04,-2.49 0.05,-3.05 2.46,-2.64 0.42,0.19 0.48,0.17 0.51,0.16 z"
   id="path418" />
	<path
   class="st3"
   d="m 432.14,525.37 c 0.91,-1.11 1.54,-2.65 3.63,-2.46 0.36,-0.04 0.33,-0.01 0.32,0 0.83,1.04 0.5,2.2 0.16,3.72 -1.62,0.39 -2.99,0.28 -4.11,-1.26 z"
   id="path420" />
	<path
   class="st3"
   d="m 446.23,531.32 c 0.82,-0.77 1.07,-2.69 2.74,-2.05 1.36,0.51 0.92,1.83 1.05,3.23 -1.19,-0.07 -2.39,-0.51 -3.79,-1.18 z"
   id="path422" />
	<path
   class="st4"
   d="m 436.26,527.04 c -0.22,-1.12 -0.23,-2.21 -0.21,-3.71 1.43,-0.4 2.83,-0.36 3.88,1.25 -1.05,0.51 -2.42,0.23 -2.95,2.17 -0.07,0.35 -0.5,0.31 -0.72,0.29 z"
   id="path424" />
	<path
   class="st3"
   d="m 424.12,522.35 c -0.07,-0.96 0.07,-1.7 0.21,-2.44 1.21,0.43 0.68,1.86 1.6,2.84 -0.45,0.14 -1.03,-0.02 -1.81,-0.4 z"
   id="path426" />
	<path
   class="st3"
   d="m 427.03,523.32 c 0.04,-0.92 0.22,-1.63 0.41,-2.34 1.01,0.58 0.37,1.57 0.6,2.68 -0.28,0.18 -0.57,0.02 -1.01,-0.34 z"
   id="path428" />
	<path
   class="st3"
   d="m 431.19,525.01 c -0.07,-0.75 0.11,-1.46 0.29,-2.17 0.17,0.53 0.33,1.06 0.48,1.9 -0.18,0.31 -0.35,0.31 -0.77,0.27 z"
   id="path430" />
	<path
   class="st3"
   d="m 429.05,524.3 c 0.5,-1.05 0.78,-0.68 0.95,0.35 -0.31,0.19 -0.59,0.06 -0.95,-0.35 z"
   id="path432" />
	<path
   class="st5"
   d="m 410.97,778.41 c 8.32,-12.78 15.16,-26.1 22.08,-39.73 8.27,-13.17 15.73,-26.43 22.99,-40.21 1.68,4.14 -2.89,6.83 -3.02,11.18 -11.52,24.4 -25.28,47.2 -37.93,70.98 -1.1,1.19 -2.26,0.78 -3.72,0.56 -0.36,-0.23 -0.38,-0.2 -0.37,-0.21 -0.24,-0.22 -0.47,-0.44 -0.83,-0.88 0.13,-0.61 0.41,-1.03 0.8,-1.69 z"
   id="path434" />
	<path
   class="st2"
   d="m 411.19,781.22 c 0.89,-0.22 1.95,-0.19 3.4,-0.21 0.41,0.13 0.43,0.32 0.47,0.78 -1.4,1.24 -2.5,0.09 -3.87,-0.57 z"
   id="path436" />
	<path
   class="st3"
   d="m 515.85,766.62 c -3.43,-0.6 -0.34,-2.94 -1.04,-4.41 -2.41,-5.07 -0.8,-10.27 -0.77,-15.87 2.21,0.76 1.9,2.91 1.92,4.85 0.06,4.99 -0.01,9.97 -0.11,15.43 z"
   id="path438" />
	<path
   class="st3"
   d="m 515.91,778.59 c 0.37,-1.04 -3.69,-1.69 -0.45,-3.58 0.35,1.06 0.42,2.12 0.45,3.58 z"
   id="path440" />
	<path
   class="st3"
   d="m 515.86,772.6 c -0.92,-0.37 -0.99,-1.23 -0.28,-2.38 0.25,0.54 0.3,1.28 0.28,2.38 z"
   id="path442" />
	<path
   class="st1"
   d="m 513.37,685.86 c -0.12,0.09 -0.22,-0.35 -0.19,-0.58 0.36,-0.06 0.45,0.17 0.19,0.58 z"
   id="path444" />
	<path
   class="st1"
   d="m 513.82,688.95 c -0.23,0.03 -0.38,-0.2 -0.44,-0.68 0.25,-0.03 0.39,0.2 0.44,0.68 z"
   id="path446" />
	<path
   class="st3"
   d="m 505.89,932.28 c 0.98,0.07 1.87,0.41 2.61,0.7 1.21,-4.71 -1.44,-10.23 3.02,-14.71 0.21,6.14 1.21,12.45 0.18,19.16 -1.9,-1.46 -6.13,-0.7 -5.81,-5.15 z"
   id="path448" />
	<path
   class="st3"
   d="m 509.44,893.01 c -3.43,-4.44 -3.89,-4.61 -8.3,-2.88 -0.5,-2.68 1.27,-4.49 3.01,-5.35 2.26,-1.13 3.91,0.57 4.72,2.83 0.57,1.61 2.87,1.81 3.08,4.1 -0.47,1.25 -1.35,1.23 -2.51,1.3 z"
   id="path450" />
	<path
   class="st2"
   d="m 508.26,966.96 c -0.05,-0.61 0.09,-1.29 0.24,-1.97 0.14,0.25 0.28,0.5 0.44,1.03 -0.07,0.53 -0.24,0.73 -0.68,0.94 z"
   id="path452" />
	<path
   class="st3"
   d="m 511.22,940.71 c -0.15,0.02 0.11,-0.39 0.21,-0.46 0.19,0.15 0.13,0.32 -0.21,0.46 z"
   id="path454" />
	<path
   class="st4"
   d="m 589.58,773.97 c 0.46,0.69 0.62,1.26 1.04,1.97 0.18,1.91 2.22,3.55 0.48,5.74 -1.53,0.12 -2.87,0.27 -4.02,1.83 -3.87,-13.41 -12.75,-24.49 -19.06,-36.86 -7.71,-15.11 -15.97,-29.94 -24.04,-45.25 0.16,-1.09 0.67,-1.49 1.7,-1.56 5.15,6.11 8.11,13.21 11.96,19.77 9.48,16.2 18.54,32.64 28.03,49.19 1.14,2.01 2.04,3.76 3.91,5.17 z"
   id="path456" />
	<path
   class="st5"
   d="m 545.93,699.64 c -0.44,0.62 -0.95,0.9 -1.73,1.29 -7.25,-9.89 -11.78,-21.25 -17.97,-31.7 -0.93,-1.57 -1.91,-3.12 -3.03,-4.98 0.07,-1.05 0.3,-1.8 0.66,-2.82 0.51,-0.21 0.89,-0.14 1.55,-0.04 0.35,2.1 1.38,3.73 2.37,5.48 5.1,9.09 10.99,17.76 14.75,27.59 0.66,1.79 2.19,3.24 3.4,5.18 z"
   id="path458" />
	<path
   class="st5"
   d="m 563.6,350.91 c -2.99,5.39 -5.65,11.26 -11.44,15.03 1.32,-2.42 3,-4.85 4.74,-7.61 2.47,-2.43 3.6,-5.66 6.7,-7.42 z"
   id="path460" />
	<path
   class="st4"
   d="m 515.99,398.47 c -0.49,2.36 -1.96,2.48 -3.36,1.77 -1.19,-0.6 -0.56,-2.05 -0.65,-3.12 -0.09,-1.08 0.34,-2.02 1.56,-2.01 1.92,0.02 2.31,1.45 2.45,3.36 z"
   id="path462" />
	<path
   class="st4"
   d="m 531.59,403.91 c -0.11,0.59 -0.55,1.2 -1.23,1.95 -0.43,-0.87 0.01,-1.52 1.23,-1.95 z"
   id="path464" />
	<path
   class="st4"
   d="m 532.68,402.08 c 0.09,0.42 -0.08,0.99 -0.53,1.71 -0.08,-0.42 0.09,-0.99 0.53,-1.71 z"
   id="path466" />
	<path
   class="st4"
   d="m 534.64,399.07 c 0.12,0.43 -0.04,1.01 -0.46,1.74 -0.11,-0.43 0.04,-1.01 0.46,-1.74 z"
   id="path468" />
	<path
   class="st4"
   d="m 535.71,397.07 c 0.09,0.42 -0.09,1 -0.54,1.73 -0.09,-0.42 0.1,-0.99 0.54,-1.73 z"
   id="path470" />
	<path
   class="st2"
   d="m 508.82,382.82 c -0.13,0 -0.26,-0.33 -0.26,-0.8 0.17,0.06 0.21,0.27 0.26,0.8 z"
   id="path472" />
	<path
   class="st4"
   d="m 533.69,400.98 c 0.09,0.24 -0.09,0.52 -0.52,0.9 -0.08,-0.22 0.08,-0.54 0.52,-0.9 z"
   id="path474" />
	<path
   class="st5"
   d="m 410.38,783.85 c 2.55,0.57 2.24,2.56 1.95,4.38 -0.74,4.73 -1.6,9.44 -2.46,14.14 -0.19,1.03 0.04,2.73 -1.71,2.35 -1.52,-0.33 -1.07,-1.9 -0.91,-2.95 0.94,-5.87 1.96,-11.73 3.13,-17.92 z"
   id="path476" />
	<path
   class="st2"
   d="m 410.09,780.18 c 0.21,-0.08 0.46,0.13 0.81,0.59 -0.16,0.02 -0.45,-0.16 -0.81,-0.59 z"
   id="path478" />
	<path
   class="st4"
   d="m 555.34,369.82 c -0.1,-0.65 0.04,-1.52 0.47,-2.57 0.11,0.66 -0.06,1.51 -0.47,2.57 z"
   id="path480" />
	<path
   class="st4"
   d="m 556.31,366.98 c -0.05,-0.19 0.14,-0.46 0.57,-0.8 0.13,0.24 -0.06,0.51 -0.57,0.8 z"
   id="path482" />
	<path
   class="st5"
   d="m 598.63,822.8 c 0.42,0.33 0.56,0.43 0.94,0.63 0.73,5.33 1.19,10.56 1.73,15.77 0.13,1.26 1.02,2.75 -1.7,2.55 -0.44,-0.77 -0.54,-1.44 -0.75,-2.45 -0.31,-0.85 -0.32,-1.41 -0.65,-2.17 -0.16,-0.66 -0.18,-1.08 -0.24,-1.83 -0.73,-1.4 -0.27,-2.64 -0.72,-4.08 -0.24,-1.03 -0.27,-1.78 -0.38,-2.88 -0.08,-0.36 -0.22,-0.82 -0.21,-1.07 0.06,-1.41 0.11,-2.59 0.24,-4.19 0.53,-0.63 1,-0.67 1.74,-0.28 z"
   id="path484" />
	<path
   class="st2"
   d="m 606,863.29 c -0.36,0.39 -0.81,0.52 -1.6,0.69 -0.23,-1.24 -0.01,-2.32 1.6,-0.69 z"
   id="path486" />
	<path
   class="st4"
   d="m 590.84,782.3 c 1.16,-0.13 1.74,0.09 1.79,1.52 0.2,6.2 0.99,12.35 2.48,18.8 0.6,1.88 0.04,2.75 -1.93,2.97 -1.44,-6.22 -2.36,-12.37 -3.48,-18.48 -0.32,-1.76 -0.43,-3.24 1.14,-4.81 z"
   id="path488" />
	<path
   class="st1"
   d="m 592.63,805.78 c 1.03,-0.66 2.08,-0.9 2.52,-2.42 0.1,-0.36 0.47,-0.36 0.65,-0.35 0.26,6.55 1.9,12.85 3.12,19.62 -0.45,0.33 -0.88,0.26 -1.63,0.1 -4.5,-4.88 -3.85,-10.98 -4.66,-16.95 z"
   id="path490" />
	<path
   class="st1"
   d="m 597.01,831.31 c 0.93,0.58 0.89,1.79 0.92,3.33 -1.17,-0.52 -0.92,-1.78 -0.92,-3.33 z"
   id="path492" />
	<path
   class="st1"
   d="m 598.03,837.2 c 0.29,0.21 0.56,0.71 0.77,1.49 -0.3,-0.21 -0.54,-0.7 -0.77,-1.49 z"
   id="path494" />
	<path
   class="st1"
   d="m 596.54,827.15 c 0.11,-0.11 0.28,0.35 0.26,0.59 -0.36,0.09 -0.47,-0.15 -0.26,-0.59 z"
   id="path496" />
	<path
   class="st5"
   d="m 425.07,340.35 c 1.43,-0.5 2.42,0.48 3.23,1.52 3.96,5.11 7.87,10.26 11.74,15.43 0.69,0.92 1.22,2.03 0.31,3.48 -5.21,-6.56 -10.18,-13.34 -15.28,-20.43 z"
   id="path498" />
	<path
   class="st5"
   d="m 412.92,323.4 c 5.3,4.14 8.86,9.9 12.08,16.28 -3.78,-2.33 -5.23,-7.07 -9.24,-9.97 -1.15,-2.1 -2.01,-4.02 -2.84,-6.31 z"
   id="path500" />
	<path
   class="st2"
   d="m 503.8,390.52 c -1.36,0.34 -2.88,0.73 -4.53,-0.34 0.12,-1.36 -1.07,-3.16 0.96,-3.4 2.4,-0.29 2.7,1.86 3.57,3.74 z"
   id="path502" />
	<path
   class="st0"
   d="m 358.37,959.53 c -0.79,-0.33 -1.33,-0.8 -2.13,-1.39 -0.12,-0.93 0.03,-2.09 1.06,-1.66 1.05,0.43 1.55,1.62 1.07,3.05 z"
   id="path504" />
	<path
   class="st5"
   d="m 405.05,314.36 c 0.04,-1.29 0.39,-2.51 1.49,-1.05 1.93,2.58 3.61,5.34 5.4,8.38 -2.64,-0.28 -3.15,-3.19 -5.41,-4.71 -0.61,-0.92 -0.97,-1.64 -1.48,-2.62 z"
   id="path506" />
	<path
   class="st5"
   d="m 412,322.31 c 0.24,-0.1 0.52,0.08 0.88,0.49 -0.22,0.08 -0.53,-0.07 -0.88,-0.49 z"
   id="path508" />
	<path
   class="st3"
   d="m 495.69,533.25 c 0.19,-0.68 0.22,-1.14 0.25,-1.93 -0.14,-0.5 -0.28,-0.65 -0.63,-1.03 0.01,-0.74 0.23,-1.25 0.55,-2.03 1.72,-4.85 3.03,-9.57 5.78,-13.68 1.47,-0.91 1.08,4.72 3.77,0.69 -1.42,8.46 -1.95,16.68 -1.09,26.36 -3.16,-3.29 -3.92,-5.92 -4.78,-9.11 -1,4.44 -3.61,7.97 -2.46,12.52 -1.37,-1.34 -3.07,-2.18 -3.12,-4.61 0.2,-2.19 -0.36,-4.14 0.96,-6.2 0.32,-0.5 0.46,-0.62 0.77,-0.98 z"
   id="path510" />
	<path
   class="st5"
   d="m 487.92,780.39 c 0.4,-5.27 -1.5,-10.16 0.74,-15.2 2.76,0.07 1.39,1.7 1.56,3.02 0.39,3.01 -2.61,7.25 2.9,8.7 1.1,0.29 0.4,1.68 0.16,2.64 -0.23,0.91 -0.72,1.78 1.24,1.06 2.4,-0.88 3.34,0.96 3.53,3.34 0.3,3.75 -2.29,5.67 -4.97,6.36 -1.57,0.4 -4.66,-0.66 -5.04,-3.53 -0.25,-1.94 -0.07,-3.95 -0.12,-6.39 z"
   id="path512" />
	<path
   class="st3"
   d="m 508.78,711.75 c 0.72,4.44 1.1,8.61 3.02,12.49 0.95,1.93 -0.61,3.85 -0.81,5.81 -0.16,1.62 -1.14,3.57 -2.43,3.16 -1.54,-0.5 -3.58,-1.86 -2.95,-4.4 0.24,-0.96 0.45,-1.92 0.7,-2.97 1.06,1.15 3.05,3.23 3.17,0.47 0.17,-3.86 -0.19,-9.23 -2.6,-11.33 -2.81,-2.44 -3.18,-5.61 -5.17,-8.09 -1,-1.25 -0.43,-3.04 0.59,-4.56 2.25,1.08 0.31,5.75 3.67,4.68 1.69,-0.54 2.61,-3.51 3.91,-5.44 1.67,0.76 2.37,2.02 1.53,3.2 -1.59,2.21 -1.58,3.97 -0.14,6.34 1.12,1.84 -0.42,1.69 -1.95,0.99 -0.98,-0.9 -0.82,-1.82 -0.73,-2.79 -0.23,0.76 -0.06,1.46 0.19,2.44 z"
   id="path514" />
	<path
   class="st5"
   d="m 500.23,931.97 c -1.79,0.4 -3.23,0.8 -4.68,1 -2.46,0.34 -3.56,-0.63 -3.58,-3.31 -0.05,-7.91 0.74,-15.88 -1.45,-23.66 -0.25,-0.91 -0.21,-1.67 0.93,-1.79 0.75,-0.08 1.27,0.38 1.41,1.1 0.41,2.1 1.4,4.33 1.03,6.29 -1.16,6.01 1.67,10.15 6.22,14.25 0.84,0.4 1.04,0.53 1.49,0.92 1.59,2.34 0.97,3.9 -1.37,5.2 z"
   id="path516" />
	<path
   class="st5"
   d="m 499.74,497.15 c -1.28,-1.21 -2.34,-2.52 -1.29,-3.7 4.46,-5.02 2.97,-11.18 3.56,-16.96 0.16,-1.56 -0.59,-3.35 1.39,-4.91 1,1.73 0.72,3.5 0.47,5.11 -0.37,2.39 -0.03,4.53 1.02,6.69 2.51,5.17 1.46,9.96 -3.04,13.96 -0.35,0.32 -1.21,0.04 -2.11,-0.19 z"
   id="path518" />
	<path
   class="st5"
   d="m 491.99,731.27 c 0.23,-1.85 -0.74,-3.77 0.75,-4.58 1.86,-1.01 2.3,1.41 3.32,2.23 4.1,3.27 4.12,8.36 0.25,10.88 -0.93,0.6 -1.97,1.41 -3.21,0.91 -1.41,-0.56 -1.07,-1.9 -1.1,-3.01 -0.04,-2 -0.01,-3.99 -0.01,-6.43 z"
   id="path520" />
	<path
   class="st3"
   d="m 511.99,768.9 c 0,1.91 0,3.4 0,5.72 -3.36,-5.04 -2.32,-10.69 -5.01,-15.08 -0.42,-0.69 -0.66,-1.51 -0.92,-2.29 -0.42,-1.26 -3.16,-2.18 -1.37,-3.57 2.12,-1.65 1.98,0.92 2.51,2.1 0.4,0.88 1.11,0.4 1.67,0.1 0.71,-0.38 0.88,-1.03 0.32,-1.62 -2.08,-2.19 -0.73,-3.59 1.34,-3.72 2.36,-0.14 1.75,2.49 1.36,3.39 -2.17,4.94 -0.26,9.72 0.1,14.97 z"
   id="path522" />
	<path
   class="st3"
   d="m 500.1,932.3 c 0.35,-1.7 2.58,-2.66 1.03,-5.03 -0.28,-0.45 -0.45,-0.61 -0.84,-1.02 -0.23,-0.26 -0.24,-0.29 -0.24,-0.31 0.16,-0.55 0.31,-1.07 0.72,-1.78 -0.09,-2.52 0.73,-4.56 2.1,-6.83 2.3,1.47 6.81,2.07 2.72,6.69 -1.08,1.22 2.39,4.57 0.44,7.62 -0.04,0.37 -0.03,0.36 -0.03,0.36 -1.85,0.57 -3.61,2.24 -5.9,0.3 z"
   id="path524" />
	<path
   class="st3"
   d="m 503.95,773.04 c 0.62,5.28 1.41,5.63 5.5,2.76 2.67,3.83 0.78,8.27 2.25,12.88 -3.06,-0.92 -3.56,-2.65 -3.13,-4.64 0.4,-1.86 0.91,-3.56 -1.43,-4.74 -1.92,1.08 0.9,3.2 -1.57,4.61 -2.87,-5.64 -5.03,-11.3 -4.39,-18.71 1.12,3.03 1.93,5.24 2.77,7.84 z"
   id="path526" />
	<path
   class="st5"
   d="m 492.23,833.65 c 1.64,-4.46 -0.07,-8.87 1.79,-13.26 -0.12,3.92 3.45,5.62 4.52,8.75 1.13,3.32 -2.3,7.66 -5.54,7.01 -0.85,-0.17 -0.93,-1.26 -0.77,-2.5 z"
   id="path528" />
	<path
   class="st3"
   d="m 501.88,818.69 c 1.01,-2.02 -0.13,-4.01 0.35,-5.89 5.8,3.6 7.18,7.26 5.37,14.56 -0.83,-3.74 -4.82,-4.92 -5.72,-8.67 z"
   id="path530" />
	<path
   class="st5"
   d="m 490.29,739.81 c -1.8,-7.65 -2.4,-15.6 0.35,-23.72 0.21,7.67 0.87,15.56 -0.35,23.72 z"
   id="path532" />
	<path
   class="st3"
   d="m 508.56,539.22 c 1.74,4.87 -2.32,5.91 -4.54,8.04 -0.47,0.45 -1.28,0.64 -1.66,-0.17 -0.59,-1.26 -0.74,-3.38 0.19,-3.69 7.17,-2.35 3.63,-8.26 4.51,-12.67 0.05,-0.25 0.31,-0.45 0.64,-0.88 0.24,3.13 0.47,6.05 0.86,9.37 z"
   id="path534" />
	<path
   class="st5"
   d="m 495.23,880.02 c 2.52,-0.01 3.13,2.25 4.39,3.7 0.79,0.91 0.86,2.66 -0.22,3.66 -0.93,0.86 -2.32,1.56 -3.6,1.03 -1.31,-0.54 -0.79,-2.01 -0.82,-3.1 -0.04,-1.65 0.05,-3.3 0.25,-5.29 z"
   id="path536" />
	<path
   class="st3"
   d="m 502.74,827.82 c 3.64,1.86 7.42,3.23 5.87,8.53 -3.59,-1.64 -5.17,-5.36 -8.08,-7.61 -0.67,-0.52 -0.7,-1.68 0.06,-2.17 0.96,-0.62 1.32,0.55 2.15,1.25 z"
   id="path538" />
	<path
   class="st3"
   d="m 498.65,561.48 c -0.26,-5.62 5.09,-2.67 6.9,-6.16 1.06,7.31 -8.25,4.58 -6.42,11.53 -2.94,-2.9 -1.27,-3.88 -0.48,-5.37 z"
   id="path540" />
	<path
   class="st5"
   d="m 496.29,688.13 c -0.16,-2.42 -0.83,-4.56 0.75,-7.26 1.12,2.25 2.24,3.98 2.82,5.87 0.33,1.09 0.8,2.9 -0.71,3.53 -1.26,0.53 -1.69,-1.29 -2.86,-2.14 z"
   id="path542" />
	<path
   class="st3"
   d="m 505.33,875.03 c -1.17,-3.47 -2,-6.92 -3.12,-11.57 2.24,3.31 4.08,5.5 5.25,8 0.53,1.1 2.53,4.31 -2.13,3.57 z"
   id="path544" />
	<path
   class="st3"
   d="m 505.86,625.69 c -1.18,2.53 -0.78,4.9 -1.42,7.12 -0.1,-4.65 -1.24,-9.36 1.49,-13.82 0,2.1 0,4.19 -0.07,6.7 z"
   id="path546" />
	<path
   class="st3"
   d="m 504.25,648.99 c -0.6,-4.64 1.66,-8.4 4.05,-12.14 1.18,4.44 -3.18,7.33 -3.3,11.77 -0.17,0.37 -0.33,0.37 -0.75,0.37 z"
   id="path548" />
	<path
   class="st3"
   d="m 503.12,715.42 c 1.57,2.57 2.49,4.94 1.55,7.75 -2.93,-2.05 -2.93,-4.92 -2.47,-7.92 0.01,-0.1 0.18,-0.23 0.28,-0.24 0.14,-0.01 0.3,0.08 0.64,0.41 z"
   id="path550" />
	<path
   class="st3"
   d="m 501.63,669.3 c 0.13,1.12 0.44,2.25 0.04,2.63 -0.93,0.88 -1.28,-0.33 -1.64,-0.92 -0.51,-0.83 -0.92,-1.72 -1.33,-2.61 -0.45,-1.01 -1.3,-2.35 0.19,-2.89 1.38,-0.49 1.81,0.95 2.14,2.07 0.13,0.47 0.3,0.93 0.6,1.72 z"
   id="path552" />
	<path
   class="st3"
   d="m 507.46,772.95 c -0.49,0.54 -0.83,0.77 -1.17,1 -0.41,-2.68 -0.82,-5.37 -1.42,-9.33 2.54,3.1 3.43,5.31 2.59,8.33 z"
   id="path554" />
	<path
   class="st2"
   d="m 498.03,424.41 c 2.32,-0.27 4.39,-0.89 6.97,0.62 -2.92,0.9 -5.15,2.16 -6.97,-0.62 z"
   id="path556" />
	<path
   class="st3"
   d="m 512.83,825.5 c -0.38,3.1 -0.83,5.82 -1.28,8.54 -0.17,-0.01 -0.35,-0.02 -0.52,-0.02 0,-2.63 -0.06,-5.27 0.03,-7.9 0.03,-0.97 0.23,-2.22 1.77,-0.62 z"
   id="path558" />
	<path
   class="st3"
   d="m 508.64,878.01 c 0.43,0.47 0.46,0.97 0.59,1.44 0.34,1.18 1.47,2.51 -0.46,3.27 -0.95,0.37 -1.52,-0.39 -1.72,-1.26 -0.3,-1.37 -1.96,-3.29 1.59,-3.45 z"
   id="path560" />
	<path
   class="st3"
   d="m 512.86,738.45 c 0.01,1.6 0.48,3.06 -1.51,3.91 -0.2,-1.76 -1.15,-3.37 0.68,-4.75 0.07,-0.05 0.3,0.04 0.42,0.13 0.14,0.08 0.23,0.24 0.41,0.71 z"
   id="path562" />
	<path
   class="st3"
   d="m 505.33,651.97 c -0.33,-0.73 -0.33,-1.48 -0.33,-2.6 0,-0.37 0,-0.37 0,-0.37 0.81,0.1 1.02,-2.17 2.09,-0.66 1.22,1.73 0.7,3.05 -1.76,3.63 z"
   id="path564" />
	<path
   class="st3"
   d="m 503,917 c -0.7,-1.2 -3.28,0.04 -3.02,-2.25 0.05,-0.44 1,-1.14 1.47,-1.1 1.53,0.16 1.47,1.51 1.57,2.99 C 503.01,916.99 503,917 503,917 Z"
   id="path566" />
	<path
   class="st5"
   d="m 498.86,647.43 c -0.23,1.33 -0.65,2.27 -1.88,2.15 -0.79,-0.07 -1.06,-0.84 -0.77,-1.49 0.5,-1.12 1.25,-1.98 2.65,-0.66 z"
   id="path568" />
	<path
   class="st3"
   d="m 503.88,675.25 c 0.02,0.86 0.34,1.88 -0.48,1.76 -0.78,-0.11 -1.24,-1.17 -1,-1.99 0.26,-0.87 0.9,-0.71 1.48,0.23 z"
   id="path570" />
	<path
   class="st3"
   d="m 507.97,749.66 c -0.6,-0.3 -0.92,-0.63 -1.24,-0.96 0.38,-0.17 0.8,-0.54 1.12,-0.46 0.74,0.19 1.06,0.69 0.12,1.42 z"
   id="path572" />
	<path
   class="st3"
   d="m 504.65,762.99 c -0.75,-0.52 -0.74,-1.84 -0.3,-1.85 1.09,-0.03 0.43,1.05 0.3,1.85 z"
   id="path574" />
	<path
   class="st3"
   d="m 503,828 c 0.15,-0.46 0.31,-0.91 0.47,-1.36 0.28,0.14 0.72,0.2 0.81,0.42 0.31,0.69 -0.25,0.81 -1.01,0.94 -0.26,0.01 -0.27,0 -0.27,0 z"
   id="path576" />
	<path
   class="st3"
   d="m 498.65,917.74 c -0.01,0.25 -0.15,0.39 -0.28,0.53 0.05,-0.21 0.11,-0.43 0.28,-0.53 z"
   id="path578" />
	<path
   class="st3"
   d="m 509,878 c 0.12,-0.43 0.24,-0.87 0.37,-1.3 0.69,0.32 0.33,0.7 -0.16,1.18 C 509,878 509,878 509,878 Z"
   id="path580" />
	<path
   class="st3"
   d="m 505,875 c -0.12,0.44 -0.25,0.87 -0.37,1.31 -0.7,-0.32 -0.34,-0.7 0.16,-1.19 C 505,875 505,875 505,875 Z"
   id="path582" />
	<path
   class="st3"
   d="m 504,649 c -0.09,0.03 -0.18,0.07 -0.13,0.06 C 504.01,649.01 504,649 504,649 Z"
   id="path584" />
	<path
   class="st3"
   d="m 505,652 c -0.09,0.04 -0.19,0.07 -0.15,0.05 C 504.99,651.99 505,652 505,652 Z"
   id="path586" />
	<path
   class="st5"
   d="m 501.97,447.96 c 0.1,-0.08 0.23,-0.84 0.25,0.03 -0.14,0.08 -0.22,0.01 -0.25,-0.03 z"
   id="path588" />
	<path
   class="st0"
   d="m 490.02,793.99 c 0.14,0.15 0.25,0.32 0.36,0.49 -0.11,-0.04 -0.22,-0.07 -0.39,-0.26 -0.05,-0.15 0,-0.21 0.03,-0.23 z"
   id="path590" />
	<path
   class="st4"
   d="m 495.69,533.12 c 0.15,0.19 0.02,0.43 -0.41,0.67 -0.12,-0.2 0.02,-0.41 0.41,-0.67 z"
   id="path592" />
	<path
   class="st4"
   d="m 495.17,530.26 c 0.22,-0.13 0.45,0.04 0.69,0.51 -0.21,0.12 -0.44,-0.05 -0.69,-0.51 z"
   id="path594" />
	<path
   class="st2"
   d="m 514,425 c 0.1,-0.03 0.2,-0.06 0.15,-0.05 C 514,425 514,425 514,425 Z"
   id="path596" />
	<path
   class="st4"
   d="m 508.99,712.01 c -1.35,-1.09 -1.11,-2.47 -0.73,-3.95 1.32,0.87 0.5,2.15 0.76,3.55 0.01,0.36 -0.02,0.39 -0.03,0.4 z"
   id="path598" />
	<path
   class="st4"
   d="m 500.15,926.21 c 0.22,-0.12 0.47,0.06 0.76,0.55 -0.22,0.12 -0.48,-0.06 -0.76,-0.55 z"
   id="path600" />
	<path
   class="st4"
   d="m 501.01,923.99 c 0.13,0.15 0.25,0.3 0.37,0.45 -0.09,-0.05 -0.19,-0.09 -0.34,-0.28 -0.06,-0.14 -0.04,-0.16 -0.03,-0.17 z"
   id="path602" />
</g>
</svg>
