<?xml version="1.0" encoding="UTF-8" standalone="no"?>
<svg
   xmlns:dc="http://purl.org/dc/elements/1.1/"
   xmlns:cc="http://creativecommons.org/ns#"
   xmlns:rdf="http://www.w3.org/1999/02/22-rdf-syntax-ns#"
   xmlns:svg="http://www.w3.org/2000/svg"
   xmlns="http://www.w3.org/2000/svg"
   xmlns:sodipodi="http://sodipodi.sourceforge.net/DTD/sodipodi-0.dtd"
   xmlns:inkscape="http://www.inkscape.org/namespaces/inkscape"
   version="1.1"
   id="svg2"
   sodipodi:docname="watch.svg"
   inkscape:version="1.0.2-2 (e86c870879, 2021-01-15)"
   sodipodi:version="0.32"
   inkscape:output_extension="org.inkscape.output.svg.inkscape"
   x="0px"
   y="0px"
   width="145.97742"
   height="218.11746"
   viewBox="0 0 145.97742 218.11746"
   xml:space="preserve"><metadata
   id="metadata357"><rdf:RDF><cc:Work
       rdf:about=""><dc:format>image/svg+xml</dc:format><dc:type
         rdf:resource="http://purl.org/dc/dcmitype/StillImage" /></cc:Work></rdf:RDF></metadata><defs
   id="defs355"><inkscape:perspective
     sodipodi:type="inkscape:persp3d"
     inkscape:vp_x="0 : 107.91272 : 1"
     inkscape:vp_y="0 : 1000 : 0"
     inkscape:vp_z="300 : 107.91272 : 1"
     inkscape:persp3d-origin="150 : 57.91272 : 1"
     id="perspective359" /></defs><sodipodi:namedview
   id="base"
   gridtolerance="10000"
   objecttolerance="10"
   showgrid="false"
   guidetolerance="10"
   borderopacity="1.0"
   bordercolor="#666666"
   inkscape:cy="195.45428"
   inkscape:cx="-11.428436"
   inkscape:zoom="1.7881111"
   pagecolor="#ffffff"
   inkscape:document-units="px"
   inkscape:current-layer="svg2"
   inkscape:window-width="1920"
   inkscape:window-height="1017"
   inkscape:window-x="-8"
   inkscape:window-y="-8"
   inkscape:pageopacity="0.0"
   inkscape:pageshadow="2"
   fit-margin-top="0"
   fit-margin-left="0"
   fit-margin-right="0"
   fit-margin-bottom="0"
   inkscape:window-maximized="1"
   inkscape:document-rotation="0">
	</sodipodi:namedview>

<g
   id="g9"
   transform="matrix(0.5427545,0,0,0.5427545,860.29839,-111.11358)">
	<path
   d="m -1491.648,492.495 31.557,-20.286 29.303,-45.983 59.056,-68.523 11.722,-81.146 4.057,-27.049 25.696,-19.385 8.565,5.41 c 0,0 6.762,9.918 5.41,25.696 -1.352,15.778 -16.68,141.555 -57.704,204.669 -41.024,63.114 -72.367,118.505 -96.474,134.793 -16.68,11.271 -27.049,0 -33.36,-8.565 -6.312,-8.566 12.172,-99.631 12.172,-99.631 z"
   id="path11"
   style="fill:#8f8259"
   inkscape:connector-curvature="0" />
	<path
   d="m -1409.149,445.16 c 0,0 -71.68,76.639 -79.794,100.982 -1.086,3.257 7.213,-48.688 7.213,-48.688 l 50.491,-57.704 6.311,-2.254 z"
   id="path13"
   style="opacity:0.14"
   inkscape:connector-curvature="0" />
	<path
   d="m -1366.322,314.424 c 0,0 30.655,11.722 35.163,10.82 4.508,-0.902 7.213,-0.451 4.959,-6.763 0,0 5.41,3.156 6.762,4.058 1.353,0.901 -6.762,27.049 -6.762,27.049 0,0 -4.057,-0.451 -10.369,-0.901 -6.311,-0.451 -32.458,-7.664 -32.458,-7.664 z"
   id="path15"
   style="fill:#58443b"
   inkscape:connector-curvature="0" />
	<path
   d="m -1364.068,455.979 c -3.156,2.705 -59.057,-16.229 -59.057,-16.229 l 29.754,-57.704 c 0,0 57.253,9.017 58.605,10.369 1.352,1.352 -7.213,23.893 -8.565,25.696 -1.352,1.803 -4.057,-0.901 -6.312,-0.901 -2.253,0 -11.27,36.064 -14.425,38.769 z"
   id="path17"
   style="fill:#58443b"
   inkscape:connector-curvature="0" />
	<path
   d="m -1318.536,245.45 c 0,0 -10.819,-1.353 -17.582,10.368 -6.762,11.722 -20.286,59.508 -21.188,61.311 -0.902,1.804 -13.524,-2.254 -13.524,-2.254 l -1.803,-58.605 42.376,-26.147 c 0,-10e-4 11.27,5.409 11.721,15.327 z"
   id="path19"
   style="opacity:0.12"
   inkscape:connector-curvature="0" />
	<path
   d="m -1365.872,445.611 c 0,0 -10.82,-11.271 -9.918,-27.049 0.902,-15.779 -9.016,-28.401 -9.016,-28.401 l -38.319,47.335 53.647,16.681 c 0,0 5.41,-3.607 3.606,-8.566 z"
   id="path21"
   style="opacity:0.21"
   inkscape:connector-curvature="0" />
	<path
   d="m -1381.65,389.5 36.966,4.268 9.017,0.45 c 0,0 -4.959,7.664 -10.82,10.82 -5.86,3.155 -22.991,-0.451 -26.598,-1.804 -3.606,-1.352 -8.565,-13.734 -8.565,-13.734 l 7.213,2.254"
   id="path23"
   style="opacity:0.26;fill:#1a1a1a"
   inkscape:connector-curvature="0" />
	<path
   d="m -1363.618,446.513 6.762,3.155 c 0,0 -16.68,45.082 -18.483,49.59 -1.803,4.508 -28.401,20.988 -28.401,13.976 0,-1.353 2.705,-4.058 2.705,-4.058 l 16.229,-11.722 c 0,0 5.41,2.705 21.188,-50.941 z"
   id="path25"
   style="fill:#adadad"
   inkscape:connector-curvature="0" />
	<path
   d="m -1341.979,326.146 c -4.959,2.705 -11.721,7.213 -18.032,11.271 -6.312,4.057 -5.41,-18.935 -5.41,-18.935 0,0 24.344,4.058 23.893,5.86 -0.451,1.804 -0.451,1.804 -0.451,1.804 z"
   id="path27"
   style="opacity:0.25"
   inkscape:connector-curvature="0" />
	<polyline
   points="-1564.68,429.382 -1569.639,444.709 -1573.696,449.218 -1578.205,444.259    -1576.401,428.931 -1564.229,400.98 -1559.271,412.251 -1564.68,429.382  "
   id="polyline29"
   style="fill:#b9b9b9;stroke:#000000" />
	<polygon
   points="-1455.583,227.868 -1455.133,233.277 -1465.952,247.253 -1479.927,249.057 -1455.583,227.868 "
   id="polygon31"
   style="fill:#a3a3a3" />
	<path
   d="m -1469.822,598.753 c -6.857,3.956 -21.323,8.766 -25.319,-4.407 -5.454,-17.983 6.523,-51.088 11.969,-68.477 5.927,-18.927 7.422,-38.787 12.192,-55.848 -14.331,-2.632 -32.643,-14.42 -46.336,-18.988 -12.201,-4.07 -37.535,-20.092 -48.717,-21.201 0,0 -8.115,7.214 -8.565,14.877 -0.451,7.664 1.803,10.369 0,14.877 -1.803,4.509 -9.918,61.311 -8.565,65.368 1.353,4.057 -3.606,32.459 26.598,55.45 30.204,22.991 58.155,27.95 73.031,25.696 14.877,-2.254 13.074,-5.41 13.074,-5.41"
   id="path33"
   style="fill:#58443b"
   inkscape:connector-curvature="0" />
	<path
   d="m -1319.889,240.04 c 0.936,-23.029 -62.657,-34.262 -77.538,-34.262 -30.651,0 -50.811,19.22 -69.526,36.19 18.147,9.782 41.522,7.405 59.46,18.39 6.458,3.955 26.34,11.063 33.868,9.445 13.856,-2.977 46.611,-50.499 54.341,-28.467"
   id="path35"
   style="fill:#58443b"
   inkscape:connector-curvature="0" />
	<path
   d="m -1351.445,260.777 c 0,0 2.705,6.312 2.705,8.115 0,1.803 -2.705,10.819 -4.057,11.721 -1.352,0.902 -8.565,25.696 -8.565,29.754 0,4.057 3.606,35.163 0.451,46.434 -3.155,11.271 -19.385,44.18 -19.385,44.18 0,0 -13.975,18.032 -16.68,19.385 -2.705,1.353 -18.483,12.172 -21.188,14.877 -2.705,2.705 -18.934,20.737 -19.836,22.991 -0.901,2.254 -20.737,35.164 -23.442,35.614 -2.705,0.451 -12.172,-0.45 -12.172,-0.45 l -2.254,-4.058"
   id="path37"
   style="fill:#9e9e9e;stroke:#000000"
   inkscape:connector-curvature="0" />
	
		<linearGradient
   id="SVGID_1_"
   gradientUnits="userSpaceOnUse"
   x1="-1439.3657"
   y1="251.48241"
   x2="-1447.0294"
   y2="270.8671"
   gradientTransform="matrix(0.9978,-0.0658,0.0658,0.9978,8.217,-101.3641)">
		<stop
   offset="0.0769"
   style="stop-color:#000000"
   id="stop40" />
		<stop
   offset="0.467"
   style="stop-color:#FFFFFF"
   id="stop42" />
		<stop
   offset="0.4888"
   style="stop-color:#DBDBDB"
   id="stop44" />
		<stop
   offset="0.5155"
   style="stop-color:#B7B7B7"
   id="stop46" />
		<stop
   offset="0.5454"
   style="stop-color:#969696"
   id="stop48" />
		<stop
   offset="0.5786"
   style="stop-color:#7B7B7B"
   id="stop50" />
		<stop
   offset="0.616"
   style="stop-color:#656565"
   id="stop52" />
		<stop
   offset="0.6597"
   style="stop-color:#545454"
   id="stop54" />
		<stop
   offset="0.7138"
   style="stop-color:#484848"
   id="stop56" />
		<stop
   offset="0.7896"
   style="stop-color:#424242"
   id="stop58" />
		<stop
   offset="1"
   style="stop-color:#404040"
   id="stop60" />
	</linearGradient>
	<path
   d="m -1460.55,233.567 c 0,0 -4.142,5.695 -1.745,7.796 2.397,2.101 82.865,30.226 89.671,30.68 6.807,0.455 6.931,-4.523 6.931,-4.523 0,0 -89.039,-34.788 -94.857,-33.953 z"
   id="path62"
   style="opacity:0.11;fill:url(#SVGID_1_)"
   inkscape:connector-curvature="0" />
	<path
   d="m -1465.952,451.922 c 0,0 -54.999,6.312 -86.556,-33.359 l 8.115,-11.271 83.4,31.105 z"
   id="path64"
   style="fill:#484848;stroke:#000000"
   inkscape:connector-curvature="0" />
	<path
   d="m -1358.659,255.818 c 0,0 7.664,3.156 7.213,4.959 -0.451,1.804 -13.524,31.106 -13.524,40.573 0,9.467 4.508,43.729 -1.804,51.844 -6.311,8.114 -2.254,-0.901 -2.254,-0.901 l -19.836,39.671 3.156,3.606 c 0,0 -9.917,13.074 -18.934,19.386 -9.016,6.311 -18.934,13.524 -21.188,17.131 -2.254,3.606 -19.385,20.737 -21.639,24.794 -2.254,4.058 -20.287,33.36 -20.287,33.36 l -8.115,-0.901 11.271,-43.729 c 0,0 -41.281,4.274 -64.466,-10.369 -17.131,-10.819 -29.303,-21.188 -35.164,-29.303 l -13.975,38.319 c 0,0 -4.508,-1.353 -6.312,-5.861 0,0 7.664,-17.131 8.565,-55.449 0.902,-38.319 10.369,-62.213 10.369,-62.213 l 56.803,-62.212 c 0,0 35.163,-24.344 43.729,-31.106 l 9.467,0.451 -21.639,20.286 95.122,30.655 c 0,0 1.165,4.564 7.213,-4.508 0.902,-1.352 16.229,-18.483 16.229,-18.483 z"
   id="path66"
   style="fill:#80817c;stroke:#000000"
   inkscape:connector-curvature="0" />
	<path
   d="m -1546.647,290.08 c 0,0 -54.098,60.86 -4.058,118.113 50.04,57.253 131.638,19.836 160.039,-18.032 28.401,-37.868 36.967,-118.564 -36.065,-139.302 -73.032,-20.738 -119.916,39.221 -119.916,39.221 z"
   id="path68"
   style="fill:#bdbdbd"
   inkscape:connector-curvature="0" />
	<path
   d="m -1384.904,356.598 c -14.133,47.048 -83.141,84.3 -133.757,62.855 -44.667,-18.924 -62.438,-73.166 -38.216,-112.638 27.154,-44.25 79.603,-64.452 115.655,-54.81 43.244,11.566 73.998,45.739 56.318,104.593 z"
   id="path70"
   style="fill:#5c5c5c"
   inkscape:connector-curvature="0" />
	<radialGradient
   id="SVGID_2_"
   cx="-1438.9033"
   cy="332.457"
   r="373.3829"
   gradientUnits="userSpaceOnUse">
		<stop
   offset="0"
   style="stop-color:#FFFFFF"
   id="stop73" />
		<stop
   offset="0.06"
   style="stop-color:#E9E6E0"
   id="stop75" />
		<stop
   offset="0.1274"
   style="stop-color:#D7D1C5"
   id="stop77" />
		<stop
   offset="0.2049"
   style="stop-color:#C7BFAF"
   id="stop79" />
		<stop
   offset="0.2954"
   style="stop-color:#BBB19E"
   id="stop81" />
		<stop
   offset="0.4072"
   style="stop-color:#B3A893"
   id="stop83" />
		<stop
   offset="0.5642"
   style="stop-color:#AEA38C"
   id="stop85" />
		<stop
   offset="1"
   style="stop-color:#ADA18A"
   id="stop87" />
	</radialGradient>
	<path
   d="m -1392.58,354.962 c -12.913,42.984 -75.961,77.02 -122.206,57.428 -40.81,-17.29 -57.045,-66.848 -34.916,-102.911 24.809,-40.429 72.728,-58.886 105.667,-50.076 39.511,10.566 67.609,41.787 51.455,95.559 z"
   id="path89"
   style="fill:url(#SVGID_2_);stroke:#000000"
   inkscape:connector-curvature="0" />
	<polygon
   points="-1473.165,383.398 -1475.419,397.374 -1472.264,401.882 -1469.559,396.923 -1473.165,383.398 "
   id="polygon91"
   style="fill:#828282" />
	<polygon
   points="-1481.641,291.457 -1484.707,277.637 -1481.82,272.952 -1478.83,277.744 -1481.641,291.457 "
   id="polygon93"
   style="fill:#828282" />
	<polygon
   points="-1520.631,365.708 -1533.189,372.241 -1534.923,377.464 -1529.33,376.674 -1520.631,365.708 "
   id="polygon95"
   style="fill:#828282" />
	<polygon
   points="-1435.187,302.311 -1425.242,292.236 -1419.741,292.119 -1422.145,297.231 -1435.187,302.311 "
   id="polygon97"
   style="fill:#828282" />
	<polygon
   points="-1428.706,349.367 -1414.713,351.511 -1411.392,355.898 -1416.941,356.95 -1428.706,349.367 "
   id="polygon99"
   style="fill:#828282" />
	<polygon
   points="-1519.393,319.713 -1531.788,312.875 -1537.096,314.324 -1533.34,318.544 -1519.393,319.713 "
   id="polygon101"
   style="fill:#828282" />
	<radialGradient
   id="SVGID_3_"
   cx="-1488.6401"
   cy="308.5098"
   r="77.8936"
   gradientUnits="userSpaceOnUse">
		<stop
   offset="0"
   style="stop-color:#FFFFFF"
   id="stop104" />
		<stop
   offset="0.0409"
   style="stop-color:#DBDBDB"
   id="stop106" />
		<stop
   offset="0.0909"
   style="stop-color:#B7B7B7"
   id="stop108" />
		<stop
   offset="0.1471"
   style="stop-color:#969696"
   id="stop110" />
		<stop
   offset="0.2093"
   style="stop-color:#7B7B7B"
   id="stop112" />
		<stop
   offset="0.2796"
   style="stop-color:#656565"
   id="stop114" />
		<stop
   offset="0.3616"
   style="stop-color:#545454"
   id="stop116" />
		<stop
   offset="0.463"
   style="stop-color:#484848"
   id="stop118" />
		<stop
   offset="0.6052"
   style="stop-color:#424242"
   id="stop120" />
		<stop
   offset="1"
   style="stop-color:#404040"
   id="stop122" />
	</radialGradient>
	<polygon
   points="-1506.075,291.433 -1506.075,291.433 -1491.198,325.244 -1486.239,327.948 -1481.28,325.694 -1481.73,318.933 "
   id="polygon124"
   style="fill:url(#SVGID_3_)" />
	<g
   id="g126">
		<line
   x1="-1442.059"
   y1="266.18799"
   x2="-1446.116"
   y2="271.146"
   id="line128"
   style="fill:none;stroke:#000000;stroke-width:3" />
		<line
   x1="-1412.718"
   y1="286.07001"
   x2="-1417.7531"
   y2="290.03299"
   id="line130"
   style="fill:none;stroke:#000000;stroke-width:3" />
		<line
   x1="-1396.7321"
   y1="318.28299"
   x2="-1403.083"
   y2="319.13101"
   id="line132"
   style="fill:none;stroke:#000000;stroke-width:3" />
		<line
   x1="-1402.321"
   y1="358.60901"
   x2="-1408.314"
   y2="356.34399"
   id="line134"
   style="fill:none;stroke:#000000;stroke-width:3" />
		<line
   x1="-1434.7321"
   y1="387.81699"
   x2="-1430.903"
   y2="392.95499"
   id="line136"
   style="fill:none;stroke:#000000;stroke-width:3" />
		<line
   x1="-1471.59"
   y1="403.89499"
   x2="-1470.684"
   y2="410.23801"
   id="line138"
   style="fill:none;stroke:#000000;stroke-width:3" />
		<line
   x1="-1510.635"
   y1="399.991"
   x2="-1512.7841"
   y2="406.02701"
   id="line140"
   style="fill:none;stroke:#000000;stroke-width:3" />
		<line
   x1="-1538.152"
   y1="378.80801"
   x2="-1542.9709"
   y2="383.03"
   id="line142"
   style="fill:none;stroke:#000000;stroke-width:3" />
		<line
   x1="-1547.884"
   y1="346.116"
   x2="-1553.9771"
   y2="348.10101"
   id="line144"
   style="fill:none;stroke:#000000;stroke-width:3" />
		<line
   x1="-1539.649"
   y1="313.33301"
   x2="-1545.9821"
   y2="312.35901"
   id="line146"
   style="fill:none;stroke:#000000;stroke-width:3" />
		<line
   x1="-1519.495"
   y1="281.43301"
   x2="-1515.646"
   y2="286.556"
   id="line148"
   style="fill:none;stroke:#000000;stroke-width:3" />
		<line
   x1="-1481.824"
   y1="264.564"
   x2="-1482.088"
   y2="270.966"
   id="line150"
   style="fill:none;stroke:#000000;stroke-width:3" />
	</g>
	<radialGradient
   id="SVGID_4_"
   cx="-1422.2637"
   cy="330.15039"
   r="83.023499"
   gradientUnits="userSpaceOnUse">
		<stop
   offset="0"
   style="stop-color:#FFFFFF"
   id="stop153" />
		<stop
   offset="0.0227"
   style="stop-color:#E7E7E7"
   id="stop155" />
		<stop
   offset="0.0674"
   style="stop-color:#BEBEBE"
   id="stop157" />
		<stop
   offset="0.1176"
   style="stop-color:#989898"
   id="stop159" />
		<stop
   offset="0.1722"
   style="stop-color:#787878"
   id="stop161" />
		<stop
   offset="0.2325"
   style="stop-color:#5D5D5D"
   id="stop163" />
		<stop
   offset="0.3007"
   style="stop-color:#474747"
   id="stop165" />
		<stop
   offset="0.3803"
   style="stop-color:#363636"
   id="stop167" />
		<stop
   offset="0.4787"
   style="stop-color:#2A2A2A"
   id="stop169" />
		<stop
   offset="0.6168"
   style="stop-color:#232323"
   id="stop171" />
		<stop
   offset="1"
   style="stop-color:#212121"
   id="stop173" />
	</radialGradient>
	<polygon
   points="-1473.616,332.457 -1473.616,332.457 -1467.305,334.711 -1400.584,329.301 -1465.952,326.146 -1472.714,327.948 "
   id="polygon175"
   style="fill:url(#SVGID_4_)" />
	<polygon
   points="-1506.525,291.433 -1483.534,326.146 -1484.886,327.948 -1490.296,326.596 -1506.525,291.433 "
   id="polygon177"
   style="opacity:0.34" />
	<ellipse
   cx="-1480.153"
   cy="331.55499"
   rx="8.7910004"
   ry="8.1899996"
   id="ellipse179"
   style="fill:#484848;stroke:#000000" />
	<radialGradient
   id="SVGID_5_"
   cx="-1477.0811"
   cy="330.66599"
   r="32.465401"
   gradientUnits="userSpaceOnUse">
		<stop
   offset="0"
   style="stop-color:#FFFFFF"
   id="stop182" />
		<stop
   offset="0.0238"
   style="stop-color:#F4F4F4"
   id="stop184" />
		<stop
   offset="0.0937"
   style="stop-color:#D9D9D9"
   id="stop186" />
		<stop
   offset="0.1742"
   style="stop-color:#C3C3C3"
   id="stop188" />
		<stop
   offset="0.2682"
   style="stop-color:#B3B3B3"
   id="stop190" />
		<stop
   offset="0.3844"
   style="stop-color:#A7A7A7"
   id="stop192" />
		<stop
   offset="0.5474"
   style="stop-color:#A0A0A0"
   id="stop194" />
		<stop
   offset="1"
   style="stop-color:#9E9E9E"
   id="stop196" />
	</radialGradient>
	<ellipse
   cx="-1480.3781"
   cy="331.104"
   rx="8.1149998"
   ry="6.7620001"
   id="ellipse198"
   style="fill:url(#SVGID_5_);stroke:#000000" />
	<radialGradient
   id="SVGID_6_"
   cx="-1478.8394"
   cy="330.89941"
   r="15.1512"
   gradientUnits="userSpaceOnUse">
		<stop
   offset="0"
   style="stop-color:#FFFFFF"
   id="stop201" />
		<stop
   offset="0.0238"
   style="stop-color:#F4F4F4"
   id="stop203" />
		<stop
   offset="0.0937"
   style="stop-color:#D9D9D9"
   id="stop205" />
		<stop
   offset="0.1742"
   style="stop-color:#C3C3C3"
   id="stop207" />
		<stop
   offset="0.2682"
   style="stop-color:#B3B3B3"
   id="stop209" />
		<stop
   offset="0.3844"
   style="stop-color:#A7A7A7"
   id="stop211" />
		<stop
   offset="0.5474"
   style="stop-color:#A0A0A0"
   id="stop213" />
		<stop
   offset="1"
   style="stop-color:#9E9E9E"
   id="stop215" />
	</radialGradient>
	<ellipse
   cx="-1480.3781"
   cy="331.104"
   rx="3.7869999"
   ry="3.155"
   id="ellipse217"
   style="fill:url(#SVGID_6_);stroke:#000000" />
	<ellipse
   cx="-1480.3781"
   cy="331.104"
   rx="1.984"
   ry="1.652"
   id="ellipse219"
   style="fill:#4b4b4b;stroke:#000000" />
	<polygon
   points="-1471.813,330.653 -1404.642,329.752 -1465.501,334.711 -1471.813,332.907 -1471.813,330.653 "
   id="polygon221"
   style="opacity:0.68;fill:#ffffff" />
	<path
   d="m -1364.218,356.02 c -3.837,-1.342 -10.21,6.901 -14.236,18.413 -4.025,11.511 -4.178,21.93 -0.341,23.271 l 8.114,2.254 8.416,-17.01 6.162,-24.675 z"
   id="path223"
   style="fill:#676767"
   inkscape:connector-curvature="0" />
	
		<ellipse
   transform="matrix(-0.944,-0.3301,0.3301,-0.944,-2775.5105,286.9902)"
   cx="-1363.392"
   cy="379.116"
   rx="7.3600001"
   ry="22.08"
   id="ellipse225"
   style="fill:#cdcdcd" />
	<path
   d="m -1357.705,364.377 c -0.283,-0.368 -0.618,-0.631 -1.008,-0.768 -2.938,-1.027 -7.818,5.284 -10.9,14.098 -3.082,8.814 -3.198,16.79 -0.261,17.817 l 1.297,1.398 6.312,-13.975 5.861,-17.582 z"
   id="path227"
   style="fill:#404040"
   inkscape:connector-curvature="0" />
	
		<ellipse
   transform="matrix(-0.9439,-0.3301,0.3301,-0.9439,-2774.0479,288.9157)"
   cx="-1362.49"
   cy="380.01801"
   rx="5.6350002"
   ry="16.906"
   id="ellipse229"
   style="fill:#9c9c9c" />
	<line
   x1="-1366.322"
   y1="356.35001"
   x2="-1359.109"
   y2="358.604"
   id="line231"
   style="fill:none;stroke:#1a1a1a;stroke-width:2" />
	<line
   x1="-1369.478"
   y1="358.935"
   x2="-1362.265"
   y2="361.18799"
   id="line233"
   style="fill:none;stroke:#1a1a1a;stroke-width:2" />
	<line
   x1="-1371.281"
   y1="361.51999"
   x2="-1364.068"
   y2="363.77301"
   id="line235"
   style="fill:none;stroke:#1a1a1a;stroke-width:2" />
	<line
   x1="-1373.084"
   y1="364.104"
   x2="-1365.8719"
   y2="366.358"
   id="line237"
   style="fill:none;stroke:#1a1a1a;stroke-width:2" />
	<line
   x1="-1374.8879"
   y1="366.68799"
   x2="-1367.675"
   y2="368.94199"
   id="line239"
   style="fill:none;stroke:#1a1a1a;stroke-width:2" />
	<line
   x1="-1381.199"
   y1="384.78101"
   x2="-1373.986"
   y2="387.035"
   id="line241"
   style="fill:none;stroke:#1a1a1a;stroke-width:2" />
	<line
   x1="-1380.749"
   y1="382.19601"
   x2="-1373.535"
   y2="384.45001"
   id="line243"
   style="fill:none;stroke:#1a1a1a;stroke-width:2" />
	<line
   x1="-1380.298"
   y1="379.612"
   x2="-1373.084"
   y2="381.866"
   id="line245"
   style="fill:none;stroke:#1a1a1a;stroke-width:2" />
	<line
   x1="-1381.199"
   y1="387.366"
   x2="-1373.986"
   y2="389.62"
   id="line247"
   style="fill:none;stroke:#1a1a1a;stroke-width:2" />
	<line
   x1="-1377.593"
   y1="374.44199"
   x2="-1370.38"
   y2="376.69601"
   id="line249"
   style="fill:none;stroke:#1a1a1a;stroke-width:2" />
	<line
   x1="-1379.396"
   y1="377.02701"
   x2="-1372.183"
   y2="379.28101"
   id="line251"
   style="fill:none;stroke:#1a1a1a;stroke-width:2" />
	<line
   x1="-1376.691"
   y1="371.85699"
   x2="-1369.478"
   y2="374.112"
   id="line253"
   style="fill:none;stroke:#1a1a1a;stroke-width:2" />
	<line
   x1="-1375.79"
   y1="369.27301"
   x2="-1368.577"
   y2="371.52701"
   id="line255"
   style="fill:none;stroke:#1a1a1a;stroke-width:2" />
	<line
   x1="-1381.199"
   y1="392.535"
   x2="-1373.986"
   y2="394.789"
   id="line257"
   style="fill:none;stroke:#1a1a1a;stroke-width:2" />
	<line
   x1="-1380.749"
   y1="395.12"
   x2="-1373.535"
   y2="397.37399"
   id="line259"
   style="fill:none;stroke:#1a1a1a;stroke-width:2" />
	<path
   d="m -1474.226,552.36 5.156,-5.37 c 0,0 -1.323,-1.704 -2.403,-1.562 -1.081,0.142 -4.436,5.276 -4.436,5.276 z"
   id="path261"
   style="fill:#3d2a04"
   inkscape:connector-curvature="0" />
	<path
   d="m -1458.55,535.071 6.271,-7.645 c 0,0 -1.693,-2.505 -3.034,-2.329 -1.341,0.176 -5.376,7.527 -5.376,7.527 z"
   id="path263"
   style="fill:#3d2a04"
   inkscape:connector-curvature="0" />
	<path
   d="m -1441.419,509.713 6.271,-7.645 c 0,0 -1.693,-2.505 -3.034,-2.329 -1.341,0.176 -5.377,7.527 -5.377,7.527 z"
   id="path265"
   style="fill:#3d2a04"
   inkscape:connector-curvature="0" />
	<path
   d="m -1423.838,481.988 6.271,-7.645 c 0,0 -1.693,-2.506 -3.034,-2.329 -1.341,0.176 -5.377,7.526 -5.377,7.526 z"
   id="path267"
   style="fill:#3d2a04"
   inkscape:connector-curvature="0" />
	<path
   d="m -1557.017,577.248 c -11.27,-13.975 -10.369,-27.95 -12.172,-35.163 -1.803,-7.213 6.762,-77.54 6.762,-77.54 l 60.409,25.246 c 0,0 -16.68,76.638 -17.131,83.4 -0.451,6.762 4.959,25.696 7.664,29.303"
   id="path269"
   style="opacity:0.24;fill:none;stroke:#000000;stroke-width:3;stroke-dasharray:12"
   inkscape:connector-curvature="0" />
	<path
   d="m -1389.314,206.229 c -1.803,-0.451 -40.573,20.286 -40.573,20.286"
   id="path271"
   style="opacity:0.24;fill:none;stroke:#000000;stroke-width:3;stroke-dasharray:12"
   inkscape:connector-curvature="0" />
	<path
   d="m -1362.265,241.844 c 0,0 21.639,-21.188 25.246,-21.64"
   id="path273"
   style="opacity:0.24;fill:none;stroke:#000000;stroke-width:3;stroke-dasharray:12"
   inkscape:connector-curvature="0" />
	<linearGradient
   id="SVGID_7_"
   gradientUnits="userSpaceOnUse"
   x1="-1517.8936"
   y1="448.50879"
   x2="-1526.7206"
   y2="470.83609">
		<stop
   offset="0.0769"
   style="stop-color:#000000"
   id="stop276" />
		<stop
   offset="0.467"
   style="stop-color:#FFFFFF"
   id="stop278" />
		<stop
   offset="0.4888"
   style="stop-color:#DBDBDB"
   id="stop280" />
		<stop
   offset="0.5155"
   style="stop-color:#B7B7B7"
   id="stop282" />
		<stop
   offset="0.5454"
   style="stop-color:#969696"
   id="stop284" />
		<stop
   offset="0.5786"
   style="stop-color:#7B7B7B"
   id="stop286" />
		<stop
   offset="0.616"
   style="stop-color:#656565"
   id="stop288" />
		<stop
   offset="0.6597"
   style="stop-color:#545454"
   id="stop290" />
		<stop
   offset="0.7138"
   style="stop-color:#484848"
   id="stop292" />
		<stop
   offset="0.7896"
   style="stop-color:#424242"
   id="stop294" />
		<stop
   offset="1"
   style="stop-color:#404040"
   id="stop296" />
	</linearGradient>
	<path
   d="m -1568.191,434.341 c 0,0 -4.657,5.795 -2.329,8.21 2.328,2.415 83.368,38.151 90.354,39.117 6.986,0.966 7.452,-4.346 7.452,-4.346 0,0 -89.423,-43.464 -95.477,-42.981 z"
   id="path298"
   style="opacity:0.11;fill:url(#SVGID_7_)"
   inkscape:connector-curvature="0" />
	<linearGradient
   id="SVGID_8_"
   gradientUnits="userSpaceOnUse"
   x1="-1515.958"
   y1="476.93161"
   x2="-1589.4404"
   y2="633.36353">
		<stop
   offset="0"
   style="stop-color:#000000"
   id="stop301" />
		<stop
   offset="0.1759"
   style="stop-color:#050505"
   id="stop303" />
		<stop
   offset="0.3805"
   style="stop-color:#131313"
   id="stop305" />
		<stop
   offset="0.5993"
   style="stop-color:#2A2A2A"
   id="stop307" />
		<stop
   offset="0.8265"
   style="stop-color:#4B4B4B"
   id="stop309" />
		<stop
   offset="1"
   style="stop-color:#696969"
   id="stop311" />
	</linearGradient>
	<path
   d="m -1573.696,455.078 c 0,0 34.712,50.933 34.712,94.671 0,10.368 30.205,33.811 36.516,52.745 l 20.286,-95.572 c 0,0 4.508,-21.64 -6.311,-24.344 -10.82,-2.705 -82.499,-39.222 -85.204,-36.517 -2.704,2.706 10e-4,9.017 10e-4,9.017 z"
   id="path313"
   style="opacity:0.19;fill:url(#SVGID_8_)"
   inkscape:connector-curvature="0" />
	<path
   d="m -1495.706,574.093 c 0,0 25.246,22.541 59.958,-30.655 34.712,-53.196 63.114,-89.261 63.114,-89.261 l 3.606,2.254 c 0,0 -77.089,125.326 -99.63,139.752 -12.888,8.248 -22.541,6.312 -25.245,2.705 -2.704,-3.607 -1.803,-24.795 -1.803,-24.795 z"
   id="path315"
   style="opacity:0.1;fill:#ffffff"
   inkscape:connector-curvature="0" />
	<polygon
   points="-1363.618,446.513 -1361.363,448.315 -1378.494,495.651 -1381.199,494.75 -1363.618,446.513 "
   id="polygon317"
   style="opacity:0.72;fill:#ffffff" />
	<path
   d="m -1403.74,513.233 c 0,0 9.016,-0.902 26.598,-14.877 4.25,-3.378 6.762,-14.877 6.762,-14.877 l -4.959,15.778 c 0,0 -18.483,14.877 -25.696,15.778 -7.213,0.901 -2.705,-1.802 -2.705,-1.802 z"
   id="path319"
   style="opacity:0.47"
   inkscape:connector-curvature="0" />
	<line
   x1="-1361.363"
   y1="448.315"
   x2="-1376.24"
   y2="494.29901"
   id="line321"
   style="opacity:0.62;fill:none;stroke:#000000;stroke-width:3" />
	<path
   id="path323"
   style="fill:none;stroke:#1a1a1a;stroke-width:2"
   d=""
   inkscape:connector-curvature="0" />
	<path
   d="m -1353.7,420.816 c 0,0 -2.705,16.68 -5.86,20.286 -3.155,3.606 -17.131,-3.606 -23.893,-4.508 -6.762,-0.901 23.442,0.451 29.753,-17.582"
   id="path325"
   style="opacity:0.18;fill:#ffffff"
   inkscape:connector-curvature="0" />
	<path
   d="m -1327.552,327.047 c 0,0 -2.705,18.935 -8.566,19.385 -5.86,0.451 -5.86,0.451 -5.86,0.451 l 15.778,2.705 4.959,-23.894 c 0,0 -3.155,-2.254 -6.311,1.353 z"
   id="path327"
   style="opacity:0.28;fill:#ffffff"
   inkscape:connector-curvature="0" />
	<path
   d="m -1425.379,332.457 c 0,0 -13.074,33.811 -16.229,39.671 -3.155,5.861 9.467,6.312 19.836,1.353 10.369,-4.959 16.229,-48.236 14.877,-47.335 -1.352,0.901 -15.328,-2.706 -18.484,6.311 z"
   id="path329"
   style="opacity:0.62;fill:#ffffff"
   inkscape:connector-curvature="0" />
	<path
   d="m -1446.567,374.383 c 0,0 -37.868,8.565 -50.942,5.409 -13.073,-3.155 7.664,-66.27 21.188,-72.581 13.524,-6.311 44.18,-3.606 49.589,7.213 5.41,10.82 -6.311,48.688 -19.835,59.959 z"
   id="path331"
   style="opacity:0.12;fill:#ffffff"
   inkscape:connector-curvature="0" />
	<path
   d="m -1493.001,275.203 c 0,0 -41.475,13.524 -47.335,68.073 -5.86,54.549 55,39.672 64.917,40.122 9.917,0.451 73.482,-15.778 73.031,-8.565 -0.451,7.213 -71.679,54.098 -120.367,30.655 -48.688,-23.442 -34.262,-84.302 -22.09,-103.236 12.172,-18.934 59.508,-44.18 69.876,-42.827 10.368,1.353 -2.704,5.86 -18.032,15.778 z"
   id="path333"
   style="opacity:0.09"
   inkscape:connector-curvature="0" />
	<path
   d="m -1360.462,275.654 c 0,0 -20.737,6.312 -22.541,6.312 -1.804,0 -8.115,-15.778 -14.426,-17.131 -6.311,-1.353 12.172,13.975 19.385,30.655 7.213,16.68 9.918,4.058 11.27,4.058 1.353,0 5.861,-26.148 6.312,-23.894 z"
   id="path335"
   style="opacity:0.36;fill:#ffffff"
   inkscape:connector-curvature="0" />
	<path
   d="m -1398.781,440.201 c 0,0 -8.565,10.819 -9.016,16.229 -0.451,5.409 -5.41,2.254 -5.41,2.254 0,0 6.312,-19.385 7.664,-19.385 1.352,0 6.762,0.902 6.762,0.902 z"
   id="path337"
   style="fill:#9c9c9c"
   inkscape:connector-curvature="0" />
	<polygon
   points="-1406.896,443.808 -1409.601,451.021 -1406.445,452.824 -1405.092,446.062 -1406.896,443.808 "
   id="polygon339"
   style="opacity:0.39;fill:#ffffff" />
	<path
   d="m -1464.149,487.987 c 0,0 19.385,-23.442 25.246,-36.516 5.86,-13.074 10.819,-17.582 12.172,-17.131 1.353,0.45 10.369,-9.468 10.369,-9.468 l 0.451,6.763 c 0,0 -16.229,10.819 -16.229,14.426 0,3.607 -23.893,36.967 -24.795,39.221 -0.901,2.254 -4.508,8.565 -4.508,8.565 z"
   id="path341"
   style="opacity:0.17;fill:#ffffff"
   inkscape:connector-curvature="0" />
	<path
   d="m -1337.621,223.41 c 0,0 4.733,4.057 0,9.466 -4.733,5.409 -29.076,23.667 -29.076,23.667 0,0 17.581,-8.114 29.752,-17.581 6.056,-4.71 14.995,-1.656 15.252,-3.43 0.977,-6.713 -15.928,-12.122 -15.928,-12.122 z"
   id="path343"
   style="opacity:0.16"
   inkscape:connector-curvature="0" />
	<path
   d="m -1386.306,246.4 c 0,0 -27.047,-8.114 -19.609,-21.639 7.438,-13.523 4.057,-14.199 4.057,-14.199 0,0 -27.048,5.409 -29.752,8.114 -2.705,2.704 -17.581,10.143 -17.581,10.143 0,0 48.009,21.638 62.885,17.581 z"
   id="path345"
   style="opacity:0.11"
   inkscape:connector-curvature="0" />
	<line
   x1="-1422.223"
   y1="295.94"
   x2="-1433.494"
   y2="301.802"
   id="line347"
   style="opacity:0.53;fill:none;stroke:#ffffff;stroke-width:0.75" />
	<line
   x1="-1473.165"
   y1="384.75101"
   x2="-1470.911"
   y2="395.57001"
   id="line349"
   style="opacity:0.53;fill:none;stroke:#ffffff;stroke-width:0.75" />
	<path
   d="m -1422.223,266.638 c 0,0 42.213,15.463 34.712,69.876 -8.265,59.959 -60.628,75.611 -73.935,79.74 -13.307,4.131 -39.92,4.589 -51.391,-1.835"
   id="path351"
   style="opacity:0.65;fill:none;stroke:#ffffff;stroke-width:3;stroke-linecap:round"
   inkscape:connector-curvature="0" />
	<path
   d="m -1413.354,339.037 c 0,0 -10.819,12.172 -10.819,18.258 0,6.085 5.41,8.114 5.41,8.114 z"
   id="path353"
   style="opacity:0.36;fill:#ffffff"
   inkscape:connector-curvature="0" />
</g></svg>
