<?xml version="1.0" encoding="UTF-8" standalone="no"?>
<svg
   xmlns:dc="http://purl.org/dc/elements/1.1/"
   xmlns:cc="http://creativecommons.org/ns#"
   xmlns:rdf="http://www.w3.org/1999/02/22-rdf-syntax-ns#"
   xmlns:svg="http://www.w3.org/2000/svg"
   xmlns="http://www.w3.org/2000/svg"
   xmlns:sodipodi="http://sodipodi.sourceforge.net/DTD/sodipodi-0.dtd"
   xmlns:inkscape="http://www.inkscape.org/namespaces/inkscape"
   viewBox="0 0 320.86087 264.19017"
   version="1.1"
   id="svg278"
   sodipodi:docname="watering_can.svg"
   width="84.89444mm"
   height="69.900314mm"
   inkscape:version="1.0.2-2 (e86c870879, 2021-01-15)">
  <metadata
     id="metadata284">
    <rdf:RDF>
      <cc:Work
         rdf:about="">
        <dc:format>image/svg+xml</dc:format>
        <dc:type
           rdf:resource="http://purl.org/dc/dcmitype/StillImage" />
        <dc:title />
      </cc:Work>
    </rdf:RDF>
  </metadata>
  <defs
     id="defs282" />
  <sodipodi:namedview
     pagecolor="#ffffff"
     bordercolor="#666666"
     borderopacity="1"
     objecttolerance="10"
     gridtolerance="10"
     guidetolerance="10"
     inkscape:pageopacity="0"
     inkscape:pageshadow="2"
     inkscape:window-width="1920"
     inkscape:window-height="1017"
     id="namedview280"
     showgrid="false"
     units="mm"
     inkscape:zoom="1.4549761"
     inkscape:cx="353.79735"
     inkscape:cy="72.349464"
     inkscape:window-x="-8"
     inkscape:window-y="-8"
     inkscape:window-maximized="1"
     inkscape:current-layer="svg278"
     inkscape:document-rotation="0" />
  <g
     transform="matrix(1.0151795,0,0,1.0151795,-199.63168,-381.57868)"
     id="g182">
    <path
       transform="matrix(0.92073,0.56745,-0.67232,0.68088,322.05,8.472)"
       d="m 236.81,430.58 a 19.669,44.167 0 1 1 -39.337,0 19.669,44.167 0 1 1 39.337,0 z"
       fill="#d4043f"
       stroke="#000000"
       stroke-linecap="round"
       stroke-linejoin="bevel"
       stroke-width="1.4828"
       id="path38" />
    <path
       d="m 478.57,455.76 0.71429,162.14 c -17.585,16.933 -87.933,28.739 -133.93,0.35714 l -2.1429,-162.85 c 5.3753,10.347 97.904,18.526 135.36,0.35714 z"
       fill="#a70432"
       stroke="#000000"
       stroke-linecap="round"
       stroke-linejoin="bevel"
       stroke-width="1.489"
       id="path40" />
    <path
       transform="matrix(0.95202,0,0,0.94203,15.107,26.824)"
       d="m 486.07,450.4 a 70.715,12.321174 0 1 1 -141.43,0 70.715,12.321174 0 1 1 141.43,0 z"
       fill="none"
       stroke="#000000"
       stroke-linecap="round"
       stroke-linejoin="bevel"
       stroke-width="1.5723"
       id="path42" />
    <path
       transform="matrix(1,0,0,1.1594,-3.3929,-70.374)"
       d="m 486.07,450.4 a 70.715,12.321174 0 1 1 -141.43,0 70.715,12.321174 0 1 1 141.43,0 z"
       fill="none"
       stroke="#000000"
       stroke-linecap="round"
       stroke-linejoin="bevel"
       stroke-width="1.3828"
       id="path44" />
    <path
       d="m 387.86,440.22 c 17.708,14.546 42.254,23.137 89.286,12.143"
       fill="none"
       stroke="#000000"
       stroke-width="1.489"
       id="path46" />
    <path
       transform="matrix(0.75047,-0.6609,0.67842,0.73467,0,0)"
       d="m -126.71,496.09 h 16.456 c 1.1633,0 2.0998,0.93652 2.0998,2.0998 l 3.2743,147.6 c -1.0519,5.9203 -10.82,26.14 -24.264,20.574 l 0.334,-168.18 c 0,-1.1633 0.93652,-2.0998 2.0998,-2.0998 z"
       fill="#a70432"
       stroke="#000000"
       stroke-linecap="round"
       stroke-linejoin="bevel"
       stroke-width="1.4892"
       id="path48" />
    <path
       d="m 362.86,450.22 c 1.5336,-11.667 -0.79711,-23.333 5,-35 18.17,-40.674 72.107,-37.317 114.82,-20 9.5844,6.9276 18.071,14.939 17.321,36.429 l -22.857,70.714 1.4286,29.286 32.857,-97.857 c 7.405,-48.539 -63.31,-57.795 -102.14,-57.143 -29.56,1.7218 -46.679,18.114 -56.25,45.536 l -0.89286,29.464 c 4.0281,1.3758 7.4422,1.0222 10.714,-1.4286 z"
       fill="#a70432"
       fill-rule="evenodd"
       stroke="#000000"
       stroke-width="1.489"
       id="path50" />
    <path
       d="m 347.86,493.79 c 44.18,14.549 86.891,13.426 128.21,-2.5"
       fill="none"
       stroke="#000000"
       stroke-width="1.489"
       id="path52" />
    <path
       d="m 348.21,501.65 c 43.437,14.184 85.606,10.628 127.14,-1.7857"
       fill="none"
       stroke="#000000"
       stroke-width="1.489"
       id="path54" />
    <path
       d="m 349.64,510.22 c 41.534,12.014 83.586,11.077 126.07,-0.71428"
       fill="none"
       stroke="#000000"
       stroke-width="1.489"
       id="path56" />
    <path
       d="m 267.45,448.53 95.814,116.34"
       fill="none"
       stroke="#000000"
       stroke-width="1.489"
       id="path58" />
    <path
       d="m 488.91,398.79 c 15.148,10.424 13.685,23.868 14.647,36.871 l -24.244,75.256"
       fill="none"
       stroke="#000000"
       stroke-width="1.489"
       id="path60" />
    <path
       d="m 400.45,440 c -3.6909,0.15747 -7.4697,-0.187 -11.08,0.63135 3.1756,3.3163 7.9268,5.9627 12.217,8.2391 13.339,6.7461 28.571,8.9995 43.405,7.7971 10.849,-0.34314 21.681,-1.9888 32.135,-4.7667 1.0891,-2.3612 -2.5041,-4.0214 -4.2142,-4.7982 -13.718,-4.8943 -28.455,-5.786 -42.883,-6.7772 -9.8554,-0.32493 -19.72,-0.37083 -29.579,-0.32549 z"
       fill="#7e0325"
       id="path62" />
    <path
       d="m 489.08,399.42 c 5.7729,6.2481 10.288,14.298 10.468,19.878 1.3454,5.088 1.066,11.581 -0.56821,16.746 -2.7444,9.4695 -6.5314,18.906 -9.7543,30.115 -4.4747,11.745 -7.0502,24.18 -11.62,35.867 -0.0644,4.0764 0.3526,4.5159 0.49462,9.4348 1.3327,-0.53283 3.112,-8.5514 4.2655,-11.207 4.134,-12.87 8.3488,-25.737 12.315,-38.645 3.015,-7.4078 5.8664,-19.865 8.4416,-25.755 0.41092,-7.5362 -1.1319,-17.388 -1.7429,-17.361 0.005,-6.5221 -8.7493,-18.643 -12.299,-19.073 z"
       fill="#65021e"
       id="path64" />
    <path
       d="m 409.4,438.02 c -14.211,0.15296 -28.489,0.85662 -42.505,3.2593 -0.40252,0.82912 1.2738,0.309 1.6652,0.37091 15.942,-2.023 32.032,-2.6303 48.093,-2.3819 15.356,0.18399 30.769,1.2008 45.867,4.1102 4.9176,1.1448 10.222,2.1463 14.308,5.2165 1.4479,1.0089 1.8399,3.2326 0.4814,4.4352 -3.0983,3.0018 -7.638,3.9687 -11.681,5.0986 -13.017,3.013 -26.407,4.0503 -39.726,4.6394 -12.839,0.2004 -25.706,0.42069 -38.528,-0.40207 -12.573,-1.0256 -25.378,-1.8582 -37.423,-5.826 -2.6074,-1.0315 -5.7335,-2.1335 -7.0477,-4.7332 -0.21295,-0.71178 0.54466,-2.0125 -0.22097,-2.3439 -1.3549,1.3327 -1.183,3.7365 0.29989,4.9166 3.9827,3.4856 9.4026,4.6624 14.387,6.053 16.836,3.9084 34.191,5.0337 51.431,5.2664 14.861,-0.0223 29.805,-0.42694 44.49,-2.8812 8.4648,-1.5429 16.853,-3.7336 24.761,-7.1439 1.0182,-0.0759 2.0278,-0.29891 2.7464,-1.1364 1.532,-1.1559 1.9522,-3.5377 0.47351,-4.9245 -3.4471,-3.3889 -8.402,-4.5827 -12.91,-5.9445 -16.911,-4.2842 -34.458,-5.325 -51.842,-5.6341 -2.3727,-0.0313 -4.7457,-0.0247 -7.1185,-0.0145 z"
       fill="#d4043f"
       id="path66" />
    <path
       d="m 366.79133,441.1593 c -0.95819,0.16305 -1.9174,0.32343 -2.87064,0.51297 -0.23213,0.0957 -0.16711,0.40425 -0.1243,0.60273 0.13199,0.24785 0.44742,0.0683 0.65962,0.0662 0.85958,-0.14989 1.72464,-0.25294 2.57997,-0.40853 0.1867,-0.0695 0.16271,-0.33505 0.003,-0.42123 0.0302,-0.16519 -0.0443,-0.36854 -0.24761,-0.35217 z"
       fill="#65021e"
       id="path68" />
    <path
       d="m 380.41,441.13 c -5.4997,0.48643 -11.005,1.073 -16.44,2.0312 -0.72256,2.2094 -0.30134,4.9358 -0.91518,7.2321 -3.3624,2.9266 -7.292,2.939 -11.406,1.7188 -0.12734,-1.9798 0.8725,-4.5752 0.0781,-6.183 -3.0213,0.73277 -6.4823,1.9911 -8.0469,4.8438 -0.0949,2.6074 3.1231,3.602 5.0558,4.5536 11.921,4.2045 24.694,5.1272 37.207,6.2064 22.081,1.2418 44.328,1.1048 66.291,-1.6968 7.7072,-1.2528 15.774,-2.2107 22.797,-5.782 0.75885,-1.1319 -1.4613,-0.59344 -2.0032,-0.43834 -20.407,4.1991 -42.223,6.4051 -62.361,-0.26478 -8.4928,-2.7503 -16.172,-7.5145 -23.214,-12.857 l -7.0424,0.63616 z"
       fill="#e10141"
       id="path70" />
    <path
       d="m 274.57,456.95 c 0.29327,1.0545 1.4127,1.7973 2.0033,2.7344 28.625,34.774 57.401,69.433 86.105,104.15 0.80668,0.30161 0.6598,-1.1192 0.77009,-1.6518 0.15109,-5.8417 -1.0926,-11.735 -3.5379,-17.015 -2.6139,-3.3973 -5.7887,-6.3475 -8.6915,-9.5096 -25.116,-26.121 -50.273,-52.202 -75.538,-78.178 -0.31332,-0.19583 -0.69107,-1.0491 -1.1112,-0.52657 z"
       fill="#65021e"
       id="path72" />
    <path
       d="m 378.75,486.29 -64.107,-0.71428 28.393,-6.4286 v -3.9286 l -41.071,8.0357 4.4643,6.0714 71.964,0.35714 0.35714,-3.3929 z"
       fill="#a70432"
       fill-rule="evenodd"
       stroke="#000000"
       stroke-width="1.489"
       id="path74" />
    <path
       d="m 206.43,456.83 c 2.3044,-0.43986 14.515,8.8582 41.607,-11.071 24.726,-21.473 18.6,-34.775 19.464,-38.75 -2.4052,20.229 -32.729,51.017 -61.071,49.821 z"
       fill="#a70432"
       fill-rule="evenodd"
       stroke="#000000"
       stroke-width="1.489"
       id="path76" />
    <path
       transform="matrix(0.52388,0.85179,-0.85179,0.52388,460.86,-4.4103)"
       d="m 235.89,410.04 a 1.5179,2.3214 0 1 1 -3.0357,0 1.5179,2.3214 0 1 1 3.0357,0 z"
       fill="#65021e"
       id="path78" />
    <path
       transform="matrix(0.52388,0.85179,-0.85179,0.52388,466.13,0.41121)"
       d="m 235.89,410.04 a 1.5179,2.3214 0 1 1 -3.0357,0 1.5179,2.3214 0 1 1 3.0357,0 z"
       fill="#65021e"
       id="path80" />
    <path
       transform="matrix(0.52388,0.85179,-0.85179,0.52388,467.73,-7.4459)"
       d="m 235.89,410.04 a 1.5179,2.3214 0 1 1 -3.0357,0 1.5179,2.3214 0 1 1 3.0357,0 z"
       fill="#65021e"
       id="path82" />
    <path
       transform="matrix(0.52388,0.85179,-0.85179,0.52388,472.2,-15.482)"
       d="m 235.89,410.04 a 1.5179,2.3214 0 1 1 -3.0357,0 1.5179,2.3214 0 1 1 3.0357,0 z"
       fill="#65021e"
       id="path84" />
    <path
       transform="matrix(0.52388,0.85179,-0.85179,0.52388,479.52,-15.482)"
       d="m 235.89,410.04 a 1.5179,2.3214 0 1 1 -3.0357,0 1.5179,2.3214 0 1 1 3.0357,0 z"
       fill="#65021e"
       id="path86" />
    <path
       transform="matrix(0.52388,0.85179,-0.85179,0.52388,473.63,-7.4459)"
       d="m 235.89,410.04 a 1.5179,2.3214 0 1 1 -3.0357,0 1.5179,2.3214 0 1 1 3.0357,0 z"
       fill="#65021e"
       id="path88" />
    <path
       transform="matrix(0.52388,0.85179,-0.85179,0.52388,484.88,-10.482)"
       d="m 235.89,410.04 a 1.5179,2.3214 0 1 1 -3.0357,0 1.5179,2.3214 0 1 1 3.0357,0 z"
       fill="#65021e"
       id="path90" />
    <path
       transform="matrix(0.52388,0.85179,-0.85179,0.52388,485.23,-3.3388)"
       d="m 235.89,410.04 a 1.5179,2.3214 0 1 1 -3.0357,0 1.5179,2.3214 0 1 1 3.0357,0 z"
       fill="#65021e"
       id="path92" />
    <path
       transform="matrix(0.52388,0.85179,-0.85179,0.52388,477.02,-4.2316)"
       d="m 235.89,410.04 a 1.5179,2.3214 0 1 1 -3.0357,0 1.5179,2.3214 0 1 1 3.0357,0 z"
       fill="#65021e"
       id="path94" />
    <path
       transform="matrix(0.52388,0.85179,-0.85179,0.52388,475.95,0.58978)"
       d="m 235.89,410.04 a 1.5179,2.3214 0 1 1 -3.0357,0 1.5179,2.3214 0 1 1 3.0357,0 z"
       fill="#65021e"
       id="path96" />
    <path
       transform="matrix(0.52388,0.85179,-0.85179,0.52388,467.38,5.2326)"
       d="m 235.89,410.04 a 1.5179,2.3214 0 1 1 -3.0357,0 1.5179,2.3214 0 1 1 3.0357,0 z"
       fill="#65021e"
       id="path98" />
    <path
       transform="matrix(0.52388,0.85179,-0.85179,0.52388,473.98,6.1255)"
       d="m 235.89,410.04 a 1.5179,2.3214 0 1 1 -3.0357,0 1.5179,2.3214 0 1 1 3.0357,0 z"
       fill="#65021e"
       id="path100" />
    <path
       transform="matrix(0.52388,0.85179,-0.85179,0.52388,481.31,6.3041)"
       d="m 235.89,410.04 a 1.5179,2.3214 0 1 1 -3.0357,0 1.5179,2.3214 0 1 1 3.0357,0 z"
       fill="#65021e"
       id="path102" />
    <path
       transform="matrix(0.52388,0.85179,-0.85179,0.52388,451.84,-6.0174)"
       d="m 235.89,410.04 a 1.5179,2.3214 0 1 1 -3.0357,0 1.5179,2.3214 0 1 1 3.0357,0 z"
       fill="#65021e"
       id="path104" />
    <path
       transform="matrix(0.52388,0.85179,-0.85179,0.52388,462.38,-12.446)"
       d="m 235.89,410.04 a 1.5179,2.3214 0 1 1 -3.0357,0 1.5179,2.3214 0 1 1 3.0357,0 z"
       fill="#65021e"
       id="path106" />
    <path
       transform="matrix(0.52388,0.85179,-0.85179,0.52388,452.73,-0.83879)"
       d="m 235.89,410.04 a 1.5179,2.3214 0 1 1 -3.0357,0 1.5179,2.3214 0 1 1 3.0357,0 z"
       fill="#65021e"
       id="path108" />
    <path
       transform="matrix(0.52388,0.85179,-0.85179,0.52388,459.88,2.1969)"
       d="m 235.89,410.04 a 1.5179,2.3214 0 1 1 -3.0357,0 1.5179,2.3214 0 1 1 3.0357,0 z"
       fill="#65021e"
       id="path110" />
    <path
       transform="matrix(0.52388,0.85179,-0.85179,0.52388,474.34,15.768)"
       d="m 235.89,410.04 a 1.5179,2.3214 0 1 1 -3.0357,0 1.5179,2.3214 0 1 1 3.0357,0 z"
       fill="#65021e"
       id="path112" />
    <path
       transform="matrix(0.52388,0.85179,-0.85179,0.52388,467.91,14.161)"
       d="m 235.89,410.04 a 1.5179,2.3214 0 1 1 -3.0357,0 1.5179,2.3214 0 1 1 3.0357,0 z"
       fill="#65021e"
       id="path114" />
    <path
       transform="matrix(0.52388,0.85179,-0.85179,0.52388,463.09,11.304)"
       d="m 235.89,410.04 a 1.5179,2.3214 0 1 1 -3.0357,0 1.5179,2.3214 0 1 1 3.0357,0 z"
       fill="#65021e"
       id="path116" />
    <path
       transform="matrix(0.52388,0.85179,-0.85179,0.52388,457.73,9.3398)"
       d="m 235.89,410.04 a 1.5179,2.3214 0 1 1 -3.0357,0 1.5179,2.3214 0 1 1 3.0357,0 z"
       fill="#65021e"
       id="path118" />
    <path
       transform="matrix(0.52388,0.85179,-0.85179,0.52388,453.09,7.3755)"
       d="m 235.89,410.04 a 1.5179,2.3214 0 1 1 -3.0357,0 1.5179,2.3214 0 1 1 3.0357,0 z"
       fill="#65021e"
       id="path120" />
    <path
       transform="matrix(0.52388,0.85179,-0.85179,0.52388,447.38,4.6969)"
       d="m 235.89,410.04 a 1.5179,2.3214 0 1 1 -3.0357,0 1.5179,2.3214 0 1 1 3.0357,0 z"
       fill="#65021e"
       id="path122" />
    <path
       transform="matrix(0.52388,0.85179,-0.85179,0.52388,442.56,2.7326)"
       d="m 235.89,410.04 a 1.5179,2.3214 0 1 1 -3.0357,0 1.5179,2.3214 0 1 1 3.0357,0 z"
       fill="#65021e"
       id="path124" />
    <path
       transform="matrix(0.52388,0.85179,-0.85179,0.52388,461.13,20.054)"
       d="m 235.89,410.04 a 1.5179,2.3214 0 1 1 -3.0357,0 1.5179,2.3214 0 1 1 3.0357,0 z"
       fill="#65021e"
       id="path126" />
    <path
       transform="matrix(0.52388,0.85179,-0.85179,0.52388,456.66,16.304)"
       d="m 235.89,410.04 a 1.5179,2.3214 0 1 1 -3.0357,0 1.5179,2.3214 0 1 1 3.0357,0 z"
       fill="#65021e"
       id="path128" />
    <path
       transform="matrix(0.52388,0.85179,-0.85179,0.52388,448.27,13.983)"
       d="m 235.89,410.04 a 1.5179,2.3214 0 1 1 -3.0357,0 1.5179,2.3214 0 1 1 3.0357,0 z"
       fill="#65021e"
       id="path130" />
    <path
       transform="matrix(0.52388,0.85179,-0.85179,0.52388,442.38,11.84)"
       d="m 235.89,410.04 a 1.5179,2.3214 0 1 1 -3.0357,0 1.5179,2.3214 0 1 1 3.0357,0 z"
       fill="#65021e"
       id="path132" />
    <path
       transform="matrix(0.52388,0.85179,-0.85179,0.52388,434.43,11.572)"
       d="m 235.89,410.04 a 1.5179,2.3214 0 1 1 -3.0357,0 1.5179,2.3214 0 1 1 3.0357,0 z"
       fill="#65021e"
       id="path134" />
    <path
       transform="matrix(0.52388,0.85179,-0.85179,0.52388,449.34,18.536)"
       d="m 235.89,410.04 a 1.5179,2.3214 0 1 1 -3.0357,0 1.5179,2.3214 0 1 1 3.0357,0 z"
       fill="#65021e"
       id="path136" />
    <path
       transform="matrix(0.52388,0.85179,-0.85179,0.52388,463.54,25.411)"
       d="m 235.89,410.04 a 1.5179,2.3214 0 1 1 -3.0357,0 1.5179,2.3214 0 1 1 3.0357,0 z"
       fill="#65021e"
       id="path138" />
    <path
       transform="matrix(0.52388,0.85179,-0.85179,0.52388,439.16,18)"
       d="m 235.89,410.04 a 1.5179,2.3214 0 1 1 -3.0357,0 1.5179,2.3214 0 1 1 3.0357,0 z"
       fill="#65021e"
       id="path140" />
    <path
       transform="matrix(0.52388,0.85179,-0.85179,0.52388,439.34,22.911)"
       d="m 235.89,410.04 a 1.5179,2.3214 0 1 1 -3.0357,0 1.5179,2.3214 0 1 1 3.0357,0 z"
       fill="#65021e"
       id="path142" />
    <path
       transform="matrix(0.52388,0.85179,-0.85179,0.52388,441.66,26.483)"
       d="m 235.89,410.04 a 1.5179,2.3214 0 1 1 -3.0357,0 1.5179,2.3214 0 1 1 3.0357,0 z"
       fill="#65021e"
       id="path144" />
    <path
       transform="matrix(0.52388,0.85179,-0.85179,0.52388,446.75,27.554)"
       d="m 235.89,410.04 a 1.5179,2.3214 0 1 1 -3.0357,0 1.5179,2.3214 0 1 1 3.0357,0 z"
       fill="#65021e"
       id="path146" />
    <path
       transform="matrix(0.52388,0.85179,-0.85179,0.52388,454.07,24.608)"
       d="m 235.89,410.04 a 1.5179,2.3214 0 1 1 -3.0357,0 1.5179,2.3214 0 1 1 3.0357,0 z"
       fill="#65021e"
       id="path148" />
    <path
       transform="matrix(0.52388,0.85179,-0.85179,0.52388,430.06,22.018)"
       d="m 235.89,410.04 a 1.5179,2.3214 0 1 1 -3.0357,0 1.5179,2.3214 0 1 1 3.0357,0 z"
       fill="#65021e"
       id="path150" />
    <path
       transform="matrix(0.52388,0.85179,-0.85179,0.52388,430.06,28.536)"
       d="m 235.89,410.04 a 1.5179,2.3214 0 1 1 -3.0357,0 1.5179,2.3214 0 1 1 3.0357,0 z"
       fill="#65021e"
       id="path152" />
    <path
       transform="matrix(0.52388,0.85179,-0.85179,0.52388,434.25,34.429)"
       d="m 235.89,410.04 a 1.5179,2.3214 0 1 1 -3.0357,0 1.5179,2.3214 0 1 1 3.0357,0 z"
       fill="#65021e"
       id="path154" />
    <path
       transform="matrix(0.52388,0.85179,-0.85179,0.52388,442.2,35.322)"
       d="m 235.89,410.04 a 1.5179,2.3214 0 1 1 -3.0357,0 1.5179,2.3214 0 1 1 3.0357,0 z"
       fill="#65021e"
       id="path156" />
    <path
       transform="matrix(0.52388,0.85179,-0.85179,0.52388,452.2,32.197)"
       d="m 235.89,410.04 a 1.5179,2.3214 0 1 1 -3.0357,0 1.5179,2.3214 0 1 1 3.0357,0 z"
       fill="#65021e"
       id="path158" />
    <path
       d="m 344.97,613.7 c 38.341,19.178 88.542,27.522 134.35,0"
       fill="none"
       stroke="#000000"
       stroke-width="1.489"
       id="path160" />
    <path
       d="m 344.97,611.7 c 38.341,19.178 88.542,27.522 134.35,0"
       fill="none"
       stroke="#000000"
       stroke-width="1.489"
       id="path162" />
    <path
       d="m 345.88,612.57 c -0.93902,0.4329 0.18847,1.3872 0.74972,1.5626 11.15,5.6716 23.066,9.8615 35.215,12.846 19.465,4.6695 40.017,5.7303 59.645,1.3971 12.843,-2.7712 25.376,-7.44 36.562,-14.33 0.62006,-0.1526 1.42,-1.4232 0.31568,-1.4205 -2.7635,1.3205 -5.343,3.0305 -8.1917,4.2458 -22.501,11.302 -48.534,14.922 -73.422,11.364 -17.476,-2.3463 -34.445,-7.9511 -50.298,-15.554 -0.18309,-0.0623 -0.37916,-0.1382 -0.5761,-0.11049 z"
       fill="#65021e"
       id="path164" />
    <path
       d="m 349.64,512.93 c 41.534,12.014 83.586,11.077 126.07,-0.71428"
       fill="none"
       stroke="#000000"
       stroke-width="1.489"
       id="path166" />
    <path
       d="m 347.86,496.51 c 44.18,14.549 86.891,13.426 128.21,-2.5"
       fill="none"
       stroke="#000000"
       stroke-width="1.489"
       id="path168" />
    <path
       d="m 348.21,504.36 c 43.437,14.184 85.606,10.628 127.14,-1.7857"
       fill="none"
       stroke="#000000"
       stroke-width="1.489"
       id="path170" />
    <path
       d="m 474.42,492.26 c -2.7971,0.71961 -5.465,1.9252 -8.2491,2.7282 -22.51,7.3644 -46.448,10.523 -70.104,8.7151 -15.394,-1.1003 -30.615,-4.2382 -45.345,-8.77 -0.7074,-0.063 -1.9034,-0.85727 -2.3676,0.0108 -0.0559,0.75066 -0.0736,1.8145 0.96223,1.782 18.698,5.9776 38.266,9.5082 57.931,9.7882 21.942,0.13077 43.892,-3.6723 64.512,-11.183 1.1338,-0.48739 2.4322,-0.71554 3.4642,-1.3635 0.0318,-0.60287 0.20016,-1.8529 -0.80357,-1.7076 z"
       fill="#65021e"
       id="path172" />
    <path
       d="m 474.39,500.47 c -3.9962,0.90416 -7.9026,2.2303 -11.903,3.1516 -16.749,4.1606 -33.925,6.8732 -51.2,7.3025 -10.001,0.1342 -20.028,-0.15627 -29.937,-1.5438 -10.451,-1.3319 -20.728,-3.6942 -30.806,-6.7432 -0.62188,-0.24606 -1.8708,-0.42206 -1.8021,0.59513 -0.43643,1.4042 1.2034,1.3433 2.0876,1.7111 17.248,5.4011 35.335,8.1932 53.415,8.3224 23.567,0.25478 47.005,-3.8594 69.57,-10.463 0.99241,-0.0786 1.7641,-0.58691 1.4118,-1.6741 0.004,-0.44138 -0.42055,-0.72789 -0.83705,-0.65848 z"
       fill="#65021e"
       id="path174" />
    <path
       d="m 474.62,510.09 c -6.1797,1.4856 -12.332,3.1149 -18.583,4.2786 -29.269,5.8521 -59.712,6.2973 -88.996,0.30566 -5.8793,-1.1508 -11.673,-2.693 -17.47,-4.2215 -0.78352,0.18226 -0.36691,1.3561 -0.45201,1.9531 0.0548,0.85243 1.0907,0.37737 1.6141,0.6747 7.4066,1.8713 14.846,3.7749 22.405,5.0111 12.018,2.0247 24.187,3.29 36.389,3.055 8.2347,-0.0194 16.494,-0.17641 24.669,-1.1794 13.762,-1.463 27.387,-4.104 40.728,-7.7735 0.34898,-0.47077 0.456,-1.438 0.0949,-1.9866 -0.10674,-0.092 -0.25658,-0.13883 -0.39622,-0.11719 z"
       fill="#65021e"
       id="path176" />
    <path
       d="m 360.88,451.07 c -0.74316,-15.779 -0.43205,-23.59 3.7881,-37.376 7.9231,-15.263 23.363,-28.529 42.679,-29.042"
       fill="none"
       stroke="#000000"
       stroke-width="1.489"
       id="path178" />
    <path
       d="m 398.29,386.17 c -11.406,2.714 -21.306,10.204 -28.253,19.483 -3.078,4.0614 -5.7446,8.5355 -6.6958,13.601 -2.6029,10.025 -2.999,20.516 -2.182,30.809 0.09,1.1701 1.4813,0.40708 1.4205,-0.41037 0.80544,-5.9266 0.60929,-11.961 1.1644,-17.922 0.32268,-5.9344 1.4214,-11.881 4.2067,-17.164 5.001,-10.93 13.715,-19.947 24.597,-25.069 1.9665,-1.0777 4.2769,-1.6087 6.1761,-2.7992 0.21321,-0.27429 -0.15026,-0.62429 -0.43405,-0.52875 z"
       fill="#7e0325"
       id="path180" />
  </g>
</svg>
