<?xml version="1.0" encoding="UTF-8" standalone="no"?>
<svg
   xmlns:dc="http://purl.org/dc/elements/1.1/"
   xmlns:cc="http://creativecommons.org/ns#"
   xmlns:rdf="http://www.w3.org/1999/02/22-rdf-syntax-ns#"
   xmlns:svg="http://www.w3.org/2000/svg"
   xmlns="http://www.w3.org/2000/svg"
   xmlns:xlink="http://www.w3.org/1999/xlink"
   xmlns:sodipodi="http://sodipodi.sourceforge.net/DTD/sodipodi-0.dtd"
   xmlns:inkscape="http://www.inkscape.org/namespaces/inkscape"
   width="125mm"
   height="88mm"
   viewBox="0 0 125 88"
   version="1.1"
   id="svg10079"
   inkscape:version="1.0.2-2 (e86c870879, 2021-01-15)"
   sodipodi:docname="watermelon.svg">
  <defs
     id="defs10073">
    <linearGradient
       id="cj"
       x1="152.46001"
       x2="119.31"
       y1="254.03999"
       y2="309.76999"
       gradientUnits="userSpaceOnUse"
       xlink:href="#k" />
    <linearGradient
       id="k">
      <stop
         offset="0"
         id="stop290" />
      <stop
         stop-opacity="0"
         offset="1"
         id="stop292" />
    </linearGradient>
    <filter
       id="ej">
      <feGaussianBlur
         stdDeviation="4.54"
         id="feGaussianBlur77" />
    </filter>
    <linearGradient
       id="ci"
       x1="154.22"
       x2="121.07"
       y1="247.31"
       y2="303.04001"
       gradientUnits="userSpaceOnUse"
       xlink:href="#k" />
    <filter
       id="em">
      <feGaussianBlur
         stdDeviation="1.743"
         id="feGaussianBlur80" />
    </filter>
    <radialGradient
       id="bi"
       cx="555.52002"
       cy="173.92999"
       r="164.59"
       gradientTransform="matrix(1.0608,0,0,0.88142,-414.24,16.112)"
       gradientUnits="userSpaceOnUse"
       xlink:href="#k" />
    <filter
       id="ep">
      <feGaussianBlur
         stdDeviation="3.027"
         id="feGaussianBlur83" />
    </filter>
    <linearGradient
       id="ch"
       x1="-62.508999"
       x2="-193.13"
       y1="60.140999"
       y2="359.12"
       gradientTransform="matrix(0,-0.8568,0.8568,0,-9.8166,57.069)"
       gradientUnits="userSpaceOnUse">
      <stop
         stop-color="#75ae49"
         offset="0"
         id="stop354" />
      <stop
         stop-color="#7bac55"
         offset=".187"
         id="stop356" />
      <stop
         stop-color="#668935"
         offset=".502"
         id="stop358" />
      <stop
         stop-color="#8aaf45"
         offset=".805"
         id="stop360" />
      <stop
         stop-color="#3c6c3a"
         offset="1"
         id="stop362" />
    </linearGradient>
    <linearGradient
       id="cg"
       x1="81.419998"
       x2="184.55"
       y1="308.07999"
       y2="75.708"
       gradientTransform="matrix(0,-0.8568,0.8568,0,-10.64,304.88)"
       gradientUnits="userSpaceOnUse">
      <stop
         stop-color="#121e18"
         offset="0"
         id="stop347" />
      <stop
         stop-color="#273419"
         offset=".5"
         id="stop349" />
      <stop
         stop-color="#283329"
         offset="1"
         id="stop351" />
    </linearGradient>
    <radialGradient
       id="bh"
       cx="196.03"
       cy="61.990002"
       r="14.424"
       gradientTransform="matrix(1.9706,6.3917e-8,-3.9268e-8,1.2106,-190.26,-12.915)"
       gradientUnits="userSpaceOnUse">
      <stop
         stop-color="#b2c689"
         offset="0"
         id="stop502" />
      <stop
         stop-color="#decd87"
         offset="1"
         id="stop504" />
    </radialGradient>
    <linearGradient
       id="cf"
       x1="188.09"
       x2="195.53999"
       y1="15.498"
       y2="21.743999"
       gradientUnits="userSpaceOnUse"
       xlink:href="#ad" />
    <linearGradient
       id="ad">
      <stop
         stop-color="#7fa347"
         offset="0"
         id="stop365" />
      <stop
         stop-color="#7fa347"
         stop-opacity="0"
         offset="1"
         id="stop367" />
    </linearGradient>
    <linearGradient
       id="ce"
       x1="246.98"
       x2="189.31"
       y1="47.250999"
       y2="45.569"
       gradientUnits="userSpaceOnUse"
       xlink:href="#ad" />
    <linearGradient
       id="cd"
       x1="190.47"
       x2="212.07001"
       y1="187.16"
       y2="279.73001"
       gradientUnits="userSpaceOnUse">
      <stop
         stop-color="#d82f2d"
         offset="0"
         id="stop342" />
      <stop
         stop-color="#d82f2d"
         stop-opacity="0"
         offset="1"
         id="stop344" />
    </linearGradient>
    <linearGradient
       id="i"
       x1="-40.837002"
       x2="-38.435001"
       gradientUnits="userSpaceOnUse">
      <stop
         stop-color="#520"
         offset="0"
         id="stop337" />
      <stop
         stop-color="#520"
         stop-opacity="0"
         offset="1"
         id="stop339" />
    </linearGradient>
    <linearGradient
       id="linearGradient9918"
       x1="-40.837002"
       x2="-38.435001"
       gradientUnits="userSpaceOnUse">
      <stop
         stop-color="#520"
         offset="0"
         id="stop9914" />
      <stop
         stop-color="#520"
         stop-opacity="0"
         offset="1"
         id="stop9916" />
    </linearGradient>
    <linearGradient
       id="linearGradient9924"
       x1="-40.837002"
       x2="-38.435001"
       gradientUnits="userSpaceOnUse">
      <stop
         stop-color="#520"
         offset="0"
         id="stop9920" />
      <stop
         stop-color="#520"
         stop-opacity="0"
         offset="1"
         id="stop9922" />
    </linearGradient>
    <linearGradient
       id="linearGradient9930"
       x1="-40.837002"
       x2="-38.435001"
       gradientUnits="userSpaceOnUse">
      <stop
         stop-color="#520"
         offset="0"
         id="stop9926" />
      <stop
         stop-color="#520"
         stop-opacity="0"
         offset="1"
         id="stop9928" />
    </linearGradient>
    <linearGradient
       id="linearGradient9936"
       x1="-40.837002"
       x2="-38.435001"
       gradientUnits="userSpaceOnUse">
      <stop
         stop-color="#520"
         offset="0"
         id="stop9932" />
      <stop
         stop-color="#520"
         stop-opacity="0"
         offset="1"
         id="stop9934" />
    </linearGradient>
    <linearGradient
       id="linearGradient9942"
       x1="-40.837002"
       x2="-38.435001"
       gradientUnits="userSpaceOnUse">
      <stop
         stop-color="#520"
         offset="0"
         id="stop9938" />
      <stop
         stop-color="#520"
         stop-opacity="0"
         offset="1"
         id="stop9940" />
    </linearGradient>
    <linearGradient
       id="linearGradient9948"
       x1="-40.837002"
       x2="-38.435001"
       gradientUnits="userSpaceOnUse">
      <stop
         stop-color="#520"
         offset="0"
         id="stop9944" />
      <stop
         stop-color="#520"
         stop-opacity="0"
         offset="1"
         id="stop9946" />
    </linearGradient>
    <linearGradient
       id="linearGradient9954"
       x1="-40.837002"
       x2="-38.435001"
       gradientUnits="userSpaceOnUse">
      <stop
         stop-color="#520"
         offset="0"
         id="stop9950" />
      <stop
         stop-color="#520"
         stop-opacity="0"
         offset="1"
         id="stop9952" />
    </linearGradient>
    <linearGradient
       id="linearGradient9960"
       x1="-40.837002"
       x2="-38.435001"
       gradientUnits="userSpaceOnUse">
      <stop
         stop-color="#520"
         offset="0"
         id="stop9956" />
      <stop
         stop-color="#520"
         stop-opacity="0"
         offset="1"
         id="stop9958" />
    </linearGradient>
    <linearGradient
       id="linearGradient9966"
       x1="-40.837002"
       x2="-38.435001"
       gradientUnits="userSpaceOnUse">
      <stop
         stop-color="#520"
         offset="0"
         id="stop9962" />
      <stop
         stop-color="#520"
         stop-opacity="0"
         offset="1"
         id="stop9964" />
    </linearGradient>
    <linearGradient
       id="linearGradient9972"
       x1="-40.837002"
       x2="-38.435001"
       gradientUnits="userSpaceOnUse">
      <stop
         stop-color="#520"
         offset="0"
         id="stop9968" />
      <stop
         stop-color="#520"
         stop-opacity="0"
         offset="1"
         id="stop9970" />
    </linearGradient>
    <linearGradient
       id="linearGradient9978"
       x1="-40.837002"
       x2="-38.435001"
       gradientUnits="userSpaceOnUse">
      <stop
         stop-color="#520"
         offset="0"
         id="stop9974" />
      <stop
         stop-color="#520"
         stop-opacity="0"
         offset="1"
         id="stop9976" />
    </linearGradient>
    <linearGradient
       id="linearGradient9984"
       x1="-40.837002"
       x2="-38.435001"
       gradientUnits="userSpaceOnUse">
      <stop
         stop-color="#520"
         offset="0"
         id="stop9980" />
      <stop
         stop-color="#520"
         stop-opacity="0"
         offset="1"
         id="stop9982" />
    </linearGradient>
    <linearGradient
       id="linearGradient9990"
       x1="-40.837002"
       x2="-38.435001"
       gradientUnits="userSpaceOnUse">
      <stop
         stop-color="#520"
         offset="0"
         id="stop9986" />
      <stop
         stop-color="#520"
         stop-opacity="0"
         offset="1"
         id="stop9988" />
    </linearGradient>
    <linearGradient
       id="linearGradient9996"
       x1="-40.837002"
       x2="-38.435001"
       gradientUnits="userSpaceOnUse">
      <stop
         stop-color="#520"
         offset="0"
         id="stop9992" />
      <stop
         stop-color="#520"
         stop-opacity="0"
         offset="1"
         id="stop9994" />
    </linearGradient>
    <linearGradient
       id="cc"
       x1="250.16"
       x2="293.94"
       y1="225.12"
       y2="212.12"
       gradientUnits="userSpaceOnUse">
      <stop
         stop-color="#fff"
         stop-opacity="0"
         offset="0"
         id="stop330" />
      <stop
         stop-color="#fff"
         stop-opacity=".171"
         offset=".5"
         id="stop332" />
      <stop
         stop-color="#fff"
         stop-opacity="0"
         offset="1"
         id="stop334" />
    </linearGradient>
    <linearGradient
       id="cb"
       x1="200.24001"
       x2="197.99001"
       y1="200.42"
       y2="337.23001"
       gradientUnits="userSpaceOnUse">
      <stop
         stop-color="#cde09e"
         offset="0"
         id="stop325" />
      <stop
         stop-color="#cde09e"
         stop-opacity="0"
         offset="1"
         id="stop327" />
    </linearGradient>
    <filter
       id="en"
       x="-0.2084"
       y="-0.1998"
       width="1.4169"
       height="1.3995">
      <feGaussianBlur
         stdDeviation="8.359"
         id="feGaussianBlur171" />
    </filter>
    <linearGradient
       inkscape:collect="always"
       xlink:href="#i"
       id="linearGradient10043"
       gradientUnits="userSpaceOnUse"
       x1="-40.837002"
       x2="-38.435001" />
    <linearGradient
       inkscape:collect="always"
       xlink:href="#i"
       id="linearGradient10045"
       gradientUnits="userSpaceOnUse"
       x1="-40.837002"
       x2="-38.435001" />
    <linearGradient
       inkscape:collect="always"
       xlink:href="#i"
       id="linearGradient10047"
       gradientUnits="userSpaceOnUse"
       x1="-40.837002"
       x2="-38.435001" />
    <linearGradient
       inkscape:collect="always"
       xlink:href="#i"
       id="linearGradient10049"
       gradientUnits="userSpaceOnUse"
       x1="-40.837002"
       x2="-38.435001" />
    <linearGradient
       inkscape:collect="always"
       xlink:href="#i"
       id="linearGradient10051"
       gradientUnits="userSpaceOnUse"
       x1="-40.837002"
       x2="-38.435001" />
    <linearGradient
       inkscape:collect="always"
       xlink:href="#i"
       id="linearGradient10053"
       gradientUnits="userSpaceOnUse"
       x1="-40.837002"
       x2="-38.435001" />
    <linearGradient
       inkscape:collect="always"
       xlink:href="#i"
       id="linearGradient10055"
       gradientUnits="userSpaceOnUse"
       x1="-40.837002"
       x2="-38.435001" />
    <linearGradient
       inkscape:collect="always"
       xlink:href="#i"
       id="linearGradient10057"
       gradientUnits="userSpaceOnUse"
       x1="-40.837002"
       x2="-38.435001" />
    <linearGradient
       inkscape:collect="always"
       xlink:href="#i"
       id="linearGradient10059"
       gradientUnits="userSpaceOnUse"
       x1="-40.837002"
       x2="-38.435001" />
    <linearGradient
       inkscape:collect="always"
       xlink:href="#i"
       id="linearGradient10061"
       gradientUnits="userSpaceOnUse"
       x1="-40.837002"
       x2="-38.435001" />
    <linearGradient
       inkscape:collect="always"
       xlink:href="#i"
       id="linearGradient10063"
       gradientUnits="userSpaceOnUse"
       x1="-40.837002"
       x2="-38.435001" />
    <linearGradient
       inkscape:collect="always"
       xlink:href="#i"
       id="linearGradient10065"
       gradientUnits="userSpaceOnUse"
       x1="-40.837002"
       x2="-38.435001" />
    <linearGradient
       inkscape:collect="always"
       xlink:href="#i"
       id="linearGradient10067"
       gradientUnits="userSpaceOnUse"
       x1="-40.837002"
       x2="-38.435001" />
    <linearGradient
       inkscape:collect="always"
       xlink:href="#i"
       id="linearGradient10069"
       gradientUnits="userSpaceOnUse"
       x1="-40.837002"
       x2="-38.435001" />
    <linearGradient
       inkscape:collect="always"
       xlink:href="#i"
       id="linearGradient10071"
       gradientUnits="userSpaceOnUse"
       x1="-40.837002"
       x2="-38.435001" />
  </defs>
  <sodipodi:namedview
     id="base"
     pagecolor="#ffffff"
     bordercolor="#666666"
     borderopacity="1.0"
     inkscape:pageopacity="0.0"
     inkscape:pageshadow="2"
     inkscape:zoom="0.49497475"
     inkscape:cx="417.41456"
     inkscape:cy="785.69234"
     inkscape:document-units="mm"
     inkscape:current-layer="layer1"
     inkscape:document-rotation="0"
     showgrid="false"
     inkscape:window-width="1267"
     inkscape:window-height="1040"
     inkscape:window-x="26"
     inkscape:window-y="0"
     inkscape:window-maximized="0" />
  <metadata
     id="metadata10076">
    <rdf:RDF>
      <cc:Work
         rdf:about="">
        <dc:format>image/svg+xml</dc:format>
        <dc:type
           rdf:resource="http://purl.org/dc/dcmitype/StillImage" />
        <dc:title></dc:title>
      </cc:Work>
    </rdf:RDF>
  </metadata>
  <g
     inkscape:label="Layer 1"
     inkscape:groupmode="layer"
     id="layer1">
    <g
       transform="matrix(0.24531956,0,0,0.24531956,19.606625,1.8112497)"
       id="g655">
      <path
         d="m 155.98,38.063 c -1.0581,0.0042 -2.0974,0.0297 -3.1563,0.0625 -47.293,0.5913 -91.995,30.892 -110.5,74.219 -2.836,6.6201 -5.2601,13.433 -6.8438,20.469 -1.2213,-5.329 -7.7438,-6.6435 -11.656,-3.2813 -6.8902,4.5566 -12.114,11.876 -15.125,19.312 -0.2562,4.0217 6.208,7.1088 7.8438,2.625 3.9603,-3.3834 7.1895,-8.2084 11.469,-10.844 1.6686,2.4382 6.7471,2.6939 4.875,6.3438 -0.3648,3.9846 -1.1869,7.3739 -0.75,10.125 -2.3294,46.656 24.584,92.646 65.875,113.97 5.0339,2.822 10.362,5.0176 15.812,6.9063 12.38,9.6565 27.296,16.809 44.375,22 16.474,8.2571 34.77,12.894 53.281,13.594 24.251,2.189 49.637,-0.7794 70.781,-13.406 21.608,-11.707 38.528,-31.107 47.312,-54 8.7087,-20.536 9.5376,-43.468 7.1563,-65.531 -8.3833,3.9709 -17.325,9.1298 -27.25,9.6563 -7.8344,1.4033 -16.057,-0.231 -23.562,2.9375 -3.0866,0.7022 -6.1347,1.1643 -9.2813,1.2813 9.8793,-42.066 -1.9969,-88.884 -32.719,-119.5 -22.816,-23.529 -55.135,-37.068 -87.938,-36.938 z"
         fill="url(#cj)"
         filter="url(#ej)"
         opacity="0.5"
         id="path589"
         style="fill:url(#cj)" />
      <path
         d="m 95.108,249.6 c 23.122,-0.7202 142.71,-4.6932 142.71,-4.6932 l 30.748,53.809 -47.563,5.1283 c -57.151,-4.5585 -101.69,-18.956 -125.89,-54.244 z"
         fill="url(#ci)"
         filter="url(#em)"
         id="path591"
         style="fill:url(#ci)" />
      <path
         d="m 154.57,31.394 c -47.293,0.5913 -91.995,30.892 -110.5,74.219 -2.836,6.6201 -5.2601,13.433 -6.8438,20.469 -1.2213,-5.329 -7.7438,-6.6435 -11.656,-3.2813 -6.8902,4.5566 -12.114,11.876 -15.125,19.312 -0.2562,4.0217 6.2124,7.1056 7.8482,2.6218 3.9603,-3.3834 7.1851,-8.2052 11.464,-10.84 1.6686,2.4382 6.7471,2.6939 4.875,6.3438 -0.3648,3.9846 -1.1869,7.3739 -0.75,10.125 -2.3294,46.656 24.584,92.646 65.875,113.97 11.153,6.2523 23.792,9.5348 35.864,12.857 21.591,18.342 49.327,28.574 77.605,29.643 24.251,2.189 49.643,-0.7684 70.787,-13.395 21.608,-11.707 38.522,-31.118 47.307,-54.011 8.7087,-20.536 9.5376,-43.468 7.1563,-65.531 -8.3833,3.9709 -17.325,9.1298 -27.25,9.6563 -7.8344,1.4033 -16.057,-0.231 -23.562,2.9375 -3.0866,0.7022 -6.1347,1.1643 -9.2813,1.2813 9.8793,-42.066 -1.9803,-88.885 -32.702,-119.5 -23.552,-24.288 -57.227,-37.922 -91.11,-36.874 z"
         fill="url(#bi)"
         filter="url(#ep)"
         id="path593"
         style="fill:url(#bi)" />
      <path
         d="m 156.39,33.783 c 67.356,0 120.92,54.481 121.96,121.67 1.1643,75.346 -54.603,121.67 -121.96,121.67 -67.357,0 -121.96,-54.473 -121.96,-121.67 0,-67.197 54.603,-121.67 121.96,-121.67 z"
         fill="url(#ch)"
         id="path595"
         style="fill:url(#ch)" />
      <path
         d="m 35.012,143.45 c 4.149,-5.7938 1.8525,-9.2154 0.6158,-5.0337 -0.2341,1.666 -0.4501,3.3467 -0.6158,5.0337 z m 3.3201,10.121 c 0.6769,14.866 4.2141,29.324 11.299,42.438 5.5941,14.184 11.236,27.668 21.42,39.091 11.19,10.46 22.871,21.438 37.057,27.846 14.216,6.3736 29.227,12.3 45.143,11.781 2.4128,1.4244 5.0058,2.0843 7.6844,2.3026 3.2306,-0.1007 6.419,-0.3023 9.5854,-0.6158 4.3189,-0.6944 8.666,-1.6732 12.718,-1.8475 0.0258,-0.005 0.0545,0.005 0.0803,0 1.8124,-0.3542 3.5996,-0.7791 5.3818,-1.2049 2.9896,-1.217 3.5208,-2.7525 -3.454,-1.7136 -17.732,-0.4005 -36.548,3.1559 -53.122,-4.8998 -4.4823,-1.1068 -2.3528,-7.6025 -9.7996,-5.7834 -13.059,0.9012 -22.552,-8.6206 -32.103,-15.878 -12.993,-7.8192 -24.22,-18.783 -31.139,-32.424 -5.3023,-10.999 -8.4536,-23.339 -13.388,-34.272 -0.3128,-4.3357 -2.7814,-7.3331 -3.3201,-11.674 -3.2257,-3.3363 -1.9997,-22.359 -4.043,-13.146 z m 4.5517,-34.111 c 6.4298,-5.6328 8.0447,-14.695 11.915,-22.518 1.7733,-5.9834 5.057,-11.069 9.5319,-15.396 6.126,-7.8459 13.413,-14.518 21.206,-20.67 4.924,-3.386 8.4953,-9.0445 14.753,-9.8532 10.289,-2.591 20.374,-6.4625 30.791,-8.2467 14.56,-0.2933 29.14,-1.6395 43.67,-1.2316 12.276,1.6292 24.761,2.0548 36.735,5.4353 -0.3529,-0.1857 -0.7164,-0.3538 -1.071,-0.5355 -0.348,-0.1737 -0.6943,-0.3651 -1.0442,-0.5355 -0.0967,-0.0482 -0.1977,-0.0859 -0.2945,-0.1339 -12.95,-6.2631 -27.202,-10.264 -42.278,-11.54 l -0.241,-0.0267 c -0.7801,-0.0611 -1.5482,-0.1144 -2.3294,-0.1606 -0.7812,-0.0462 -1.5742,-0.1025 -2.3562,-0.1339 -17.682,-0.7098 -35.538,2.3954 -51.943,9.0232 -0.2813,0.1157 -0.5765,0.2035 -0.8568,0.3213 -0.0557,0.023 -0.105,0.0572 -0.1606,0.0803 -13.649,5.7594 -26.027,13.948 -36.601,23.99 -0.0226,0.0221 -0.0578,0.0314 -0.0803,0.0536 l -0.2677,0.2677 c -3.754,3.7734 -7.4687,7.7452 -10.924,11.942 l -0.589,0.7497 c -4.0232,5.1073 -7.643,10.534 -10.817,16.252 -3.2141,6.3003 -5.4918,13.023 -6.3189,20.215 z m 3.1327,37.967 c 3.7001,11.206 3.4065,23.792 8.4609,34.165 3.3185,5.3052 8.0881,10.59 10.442,16.199 8.8013,9.4811 22.305,13.073 30.256,23.749 9.6037,13.797 27.236,15.628 41.903,20.992 5.6127,3.549 30.294,-1.3381 18.796,9.5587 -3.5278,3.7639 17.556,0.2857 23.16,0.7765 17.536,-1.1924 34.993,-4.2736 51.997,-8.4609 1.4611,-1.0383 2.9029,-2.1081 4.3108,-3.213 1.1599,-1.3654 -0.5415,-1.42 -5.4889,0.83 -10.391,0.0134 -21.092,1.584 -31.193,3.6414 -9.458,2.8965 -19.365,4.371 -25.061,-4.5517 -11.26,-4.4647 -24.092,-0.9855 -35.209,-6.7741 -13.17,-1.7308 -19.229,-13.305 -32.21,-15.449 -8.0132,-5.684 -20.477,-8.553 -23.562,-18.983 -7.4285,-8.1972 -16.295,-17.573 -24.446,-26.721 -4.6736,-8.0163 -4.5714,-19.49 -12.156,-25.758 z m 0.8836,-15.101 c 5.1965,12.675 15.538,-4.9844 24.981,2.2759 6.6067,5.0589 7.0112,13.943 17.672,14.458 8.9379,3.2262 28.755,5.7628 25.035,18.314 1.61,0.1749 3.1036,0.5735 4.4179,1.1513 8.8594,-8.7991 12.74,14.855 22.143,5.8637 6.6095,-2.8975 25.493,1.5626 27.23,8.809 -5.822,9.6318 10.526,-7.1052 15.53,-0.4016 11.359,-2.2145 2.3973,20.713 11.513,9.1838 6.2921,-11.025 20.092,-11.268 29.319,-5.596 12.202,2.3352 24.911,-3.3626 35.638,3.213 3.2083,2.0133 6.4396,3.7564 9.4516,5.1943 1.2559,-3.1903 2.3819,-6.4527 3.3737,-9.8264 -1.4551,-1.1272 -3.0592,-2.3069 -4.8195,-3.5878 -9.6402,-1.4728 -19.228,-16.287 -28.382,-7.5238 -12.095,5.6814 -28.428,-1.0683 -29.881,-12.825 -12.83,-0.5339 -22.603,7.7858 -32.906,12.076 -9.2567,-1.353 -9.476,-24.118 -19.894,-16.547 -10.535,1.6897 -12.863,-18.869 -20.429,-7.0686 -12.068,-5.0807 -27.01,-4.9932 -36.842,-14.057 -11.494,2.376 -26.126,-6.8884 -39.172,-7.1757 -3.6497,2.497 -12.645,1.4231 -13.976,4.0698 z m 0.0803,6.8276 c 0,0 2.3578,4.5577 4.0966,6.3992 2.2772,2.4118 8.0593,5.8369 8.0593,5.8369 2.5749,10.206 8.1694,19.554 17.404,24.981 4.6159,10.743 19.903,14.166 26.106,21.902 11.334,0.0237 25.323,7.1397 25.436,17.136 9.4312,4.3571 19.872,-2.6368 27.23,7.8986 4.4079,5.2944 12.229,3.3625 13.736,-3.3469 7.3204,12.665 27.482,-8.6991 29.827,10.844 5.1399,-14.292 22.349,-9.7535 34.808,-10.603 6.2209,-0.9446 16.351,-0.6648 24.017,-2.6775 1.9799,-2.8486 3.8462,-5.8212 5.5692,-8.8893 -2.4939,-2.0368 -6.9932,-4.4896 -16.922,-3.0256 -8.7501,11.221 -26.72,0.305 -37.351,7.1221 -5.7386,-2.721 -11.053,-7.8875 -16.574,-6.9615 -10.9,-5.472 -22.198,8.2182 -33.977,1.1781 -10.694,-6.6854 -21.565,-10.479 -33.683,-12.343 -5.6572,-2.1033 -11.482,-6.733 -13.414,-11.754 -3.1562,-0.2592 -5.8989,-1.3953 -7.738,-3.0256 -5.7641,1.8007 -12.4,-0.389 -16.975,-6.8276 -11.173,-9.1336 -8.495,-22.614 -17.805,-29.185 -5.021,-3.5438 -18.046,-3.7753 -18.046,-3.7753 z m 1.7671,-30.336 c 7.9562,-12.501 17.18,-24.744 30.095,-32.424 7.7016,-8.3867 19.446,-11.582 28.837,-15.958 7.4153,-8.6746 20.616,-3.396 26.721,-1.901 9.8154,-12.314 25.444,-15.057 39.172,-9.6658 12.244,-1.9393 23.213,5.208 35.504,5.8369 11.955,1.8255 30.27,5.6915 40.082,12.879 0.3129,0.1471 0.5379,0.2328 0.8033,0.3481 -2.5064,-3.0352 -5.1715,-5.9519 -7.9522,-8.7286 -1.0299,-0.7091 -1.9656,-1.3201 -2.5436,-1.6065 -13,-6.8082 -34.599,-13.397 -48.891,-14.057 -12.026,-6.9777 -23.477,-2.0936 -36.146,-1.0978 -12.99,2.9712 -26.837,2.7915 -38.556,9.88 -6.1176,3.9175 -16.098,0.8793 -6.4795,-4.7392 5.1022,-3.0636 10.386,-10.662 0.589,-4.873 -11.497,4.0216 -19.793,12.499 -26.614,22.063 -8.8488,13.147 -23.579,21.581 -30.122,36.441 z m 2.5168,9.7729 c 9.454,0.4623 18.547,-3.8082 23.964,4.2304 11.188,-0.8129 3.2122,-22.981 16.011,-11.942 8.1424,4.7256 13.384,15.282 24.071,8.809 6.8263,-4.5007 11.206,9.9288 14.298,-0.9639 7.2627,-7.3286 18.829,5.7318 28.863,3.6146 9.0706,5.2292 21.566,-4.8453 25.918,7.6844 13.156,-5.4346 26.901,0.1656 37.324,6.1315 4.9343,12.302 11.647,-5.5336 19.385,2.8917 7.8979,7.5905 27.073,8.7883 37.083,15.476 0.1388,-2.9744 0.2081,-6.0046 0.1606,-9.0767 -0.0578,-3.743 -0.2922,-7.428 -0.6694,-11.085 -9.193,-5.239 -30.512,-6.4411 -34.62,-15.637 -1.9037,-9.287 -19.051,5.2752 -22.464,-10.094 -6.751,12.096 -19.144,-0.6563 -28.114,1.5262 -5.7145,-10.329 -8.7729,-0.7831 -11.272,2.1152 -7.3764,-11.146 -18.092,-7.3467 -29.586,-9.6925 -11.864,2.7977 -23.165,-2.8661 -34.245,-2.7043 -2.8994,5.5979 -11.813,9.1399 -15.021,1.6065 -10.753,11.916 -28.322,-5.3358 -39.627,8.0325 -4.574,1.7971 -9.6584,4.1013 -11.46,9.0767 z m 5.8905,-14.619 c 8.8629,-7.0586 21.219,-2.9674 29.64,-10.951 10.293,-4.997 21.046,-10.436 33.281,-8.7554 14.214,3.2773 20.78,-14.738 35.022,-8.6751 10.886,1.153 15.921,18.382 27.043,7.4702 9.5929,-6.879 19.517,14.991 25.731,-1.8207 2.4054,-8.4314 8.3843,-2.7929 13.12,-0.1606 4.4806,3.4099 11.719,4.3804 13.066,10.603 1.5755,15.106 17.93,-4.2629 21.741,11.004 0.6772,5.3483 12.937,16.014 19.144,15.583 -1.0452,-4.4081 -2.3064,-8.7208 -3.802,-12.932 -8.8135,-10.779 -22.577,-19.335 -31.996,-28.14 -12.417,1.1594 -22.7,-6.0889 -33.014,-12.263 -8.2797,0.1775 -20.119,-9.1917 -20.322,4.7124 -8.3505,5.5153 -18.385,8.3261 -24.686,-2.4633 -11.262,-11.002 -20.542,10.921 -33.201,10.416 -10.576,3.5171 -21.144,-0.4487 -31.675,5.3818 -9.9887,6.3878 -21.396,10.601 -32.692,13.682 -2.9754,1.4745 -5.4481,4.087 -6.3992,7.3096 z"
         fill="url(#cg)"
         id="path597"
         style="fill:url(#cg)" />
      <g
         transform="matrix(0,-0.8568,0.8568,0,-10.64,304.88)"
         id="g609">
        <path
           d="m 181.6054,61.6445 c 0.0985,2.4656 2.3179,4.5579 4.3028,6.0239 2.189,1.6167 5.0936,1.9688 7.745,2.5817 4.2293,0.9776 8.9539,3.5114 12.9083,1.7211 1.8844,-0.8531 2.8428,-3.1836 3.4422,-5.1633 0.4156,-1.3727 0.754,-3.0827 0,-4.3028 -2.3605,-3.8194 -7.6479,-5.1292 -12.0478,-6.0239 -4.5064,-0.9164 -9.8399,-1.5289 -13.7689,0.8606 -1.4291,0.8691 -2.6484,2.6315 -2.5817,4.3028 z"
           fill="url(#bh)"
           id="path599"
           style="fill:url(#bh)" />
        <g
           transform="matrix(0.71425,0,0,0.71425,56.729,18.573)"
           id="g607">
          <path
             d="m 189.76,60.27 c 0,0 2.6958,3.3301 4.5924,4.132 2.219,0.9383 7.2113,0.4868 7.2113,0.4868 0,0 2.1084,-10.594 5.1321,-14.883 2.5246,-3.5811 9.2664,-3.9449 10.264,-8.2113 1.2895,-5.5146 -3.5916,-11.019 -7.1849,-15.396 -6.0569,-7.3786 -23.094,-16.936 -23.094,-16.936 0,0 -2.266,-0.0267 -3.1465,0.5744 -1.3088,0.8934 -2.4987,4.0444 -2.4987,4.0444 0,0 9.5159,8.9753 13.856,13.856 2.7518,3.0946 7.5319,5.6131 7.6981,9.7509 0.099,2.4652 -2.8411,4.04 -4.1056,6.1585 -3.1772,5.3225 -8.7245,16.423 -8.7245,16.423 z"
             fill="#a5bc6e"
             id="path601" />
          <path
             d="m 186.3125,9.4688 c -0.6786,0.0207 -2.1208,0.1117 -2.7813,0.5625 -1.3088,0.8934 -2.5,4.0625 -2.5,4.0625 0,0 5.8242,5.4596 10.4375,10.1875 l 10.125,-5.1875 c -6.9666,-5.1748 -14.9063,-9.625 -14.9063,-9.625 0,0 -0.1488,-0.0069 -0.375,0 z"
             fill="url(#cf)"
             id="path603"
             style="fill:url(#cf)" />
          <path
             d="m 202.69,19.906 c 1.515,1.8638 6.482,8.0616 8.7188,11.938 1.3979,2.4224 3.7968,4.9276 3.3438,7.6875 -0.3856,2.3493 -2.9714,3.7719 -4.8125,5.2813 -2.5275,2.0721 -6.4917,2.3824 -8.4063,5.0313 -1.9231,2.6608 -1.1832,6.4895 -2.1563,9.625 -0.5186,1.6712 -1.4442,3.8914 -2.125,5.4688 2.1272,0.1403 4.3125,-0.0625 4.3125,-0.0625 0,0 2.1014,-10.586 5.125,-14.875 2.5246,-3.5811 9.2836,-3.9524 10.281,-8.2188 1.2895,-5.5146 -3.5942,-10.998 -7.1875,-15.375 -1.7035,-2.0752 -4.2764,-4.3412 -7.0938,-6.5 z"
             fill="url(#ce)"
             id="path605"
             style="fill:url(#ce)" />
        </g>
      </g>
      <path
         d="m 103.14,206.23 c 2.2175,7.6527 3.976,15.53 6.4773,23.044 l 30.57,40.76 48.985,19.759 81.093,-2.4698 48.162,-46.104 12.349,-60.099 c -11.962,3.8851 -24.477,6.2157 -37.099,5.66 -8.7016,3.2508 -18.034,4.344 -27.22,2.7786 -9.1664,0.6359 -18.176,2.2542 -27.22,3.7786 -11.932,0.3745 -23.95,0.7099 -35.642,3.4075 -10.038,1.7012 -20.276,0.7258 -30.34,2.3279 -9.1948,0.8132 -18.344,1.8633 -27.386,3.7533 -9.3458,0.8073 -18.747,0.5282 -28.057,1.9063 l -14.672,1.4978 z"
         fill="#bd1c17"
         id="path611" />
      <path
         d="m 322.06,183.62 c -9.2675,2.3243 -18.789,3.5783 -28.375,3.1563 -8.7016,3.2508 -18.033,4.3466 -27.219,2.7813 -9.1664,0.6359 -18.176,2.2569 -27.219,3.7813 -11.932,0.3745 -23.964,0.7086 -35.656,3.4063 -10.038,1.7012 -20.28,0.7104 -30.344,2.3125 -9.1948,0.8132 -18.334,1.86 -27.375,3.75 -9.0121,0.7784 -18.079,0.5631 -27.062,1.7813 1.2737,1.37 3.681,3.9922 5.0625,6 6.4542,9.38 7.8153,22.421 16.312,30 13.137,11.717 31.64,16.689 48.969,19.781 26.626,4.751 56.15,7.9875 81.094,-2.4688 20.498,-8.5927 38.262,-26.238 48.188,-46.125 3.8733,-7.7609 3.7408,-23.589 3.625,-28.156 z"
         fill="url(#cd)"
         id="path613"
         style="fill:url(#cd)" />
      <path
         transform="translate(202.26,45.642)"
         d="m -38.435,175 a 1.2011,5.0446 0 1 1 -2.4022,0 1.2011,5.0446 0 1 1 2.4022,0 z"
         fill="url(#i)"
         id="path615"
         style="fill:url(#linearGradient10043)" />
      <path
         transform="translate(205.26,61.642)"
         d="m -38.435,175 a 1.2011,5.0446 0 1 1 -2.4022,0 1.2011,5.0446 0 1 1 2.4022,0 z"
         fill="url(#i)"
         id="path617"
         style="fill:url(#linearGradient10045)" />
      <path
         transform="translate(275.26,61.642)"
         d="m -38.435,175 a 1.2011,5.0446 0 1 1 -2.4022,0 1.2011,5.0446 0 1 1 2.4022,0 z"
         fill="url(#i)"
         id="path619"
         style="fill:url(#linearGradient10047)" />
      <path
         transform="translate(265.26,46.642)"
         d="m -38.435,175 a 1.2011,5.0446 0 1 1 -2.4022,0 1.2011,5.0446 0 1 1 2.4022,0 z"
         fill="url(#i)"
         id="path621"
         style="fill:url(#linearGradient10049)" />
      <path
         transform="translate(313.26,46.642)"
         d="m -38.435,175 a 1.2011,5.0446 0 1 1 -2.4022,0 1.2011,5.0446 0 1 1 2.4022,0 z"
         fill="url(#i)"
         id="path623"
         style="fill:url(#linearGradient10051)" />
      <path
         transform="translate(327.26,55.642)"
         d="m -38.435,175 a 1.2011,5.0446 0 1 1 -2.4022,0 1.2011,5.0446 0 1 1 2.4022,0 z"
         fill="url(#i)"
         id="path625"
         style="fill:url(#linearGradient10053)" />
      <path
         transform="translate(297.26,62.642)"
         d="m -38.435,175 a 1.2011,5.0446 0 1 1 -2.4022,0 1.2011,5.0446 0 1 1 2.4022,0 z"
         fill="url(#i)"
         id="path627"
         style="fill:url(#linearGradient10055)" />
      <path
         transform="translate(295.26,34.642)"
         d="m -38.435,175 a 1.2011,5.0446 0 1 1 -2.4022,0 1.2011,5.0446 0 1 1 2.4022,0 z"
         fill="url(#i)"
         id="path629"
         style="fill:url(#linearGradient10057)" />
      <path
         transform="translate(247.26,34.642)"
         d="m -38.435,175 a 1.2011,5.0446 0 1 1 -2.4022,0 1.2011,5.0446 0 1 1 2.4022,0 z"
         fill="url(#i)"
         id="path631"
         style="fill:url(#linearGradient10059)" />
      <path
         transform="translate(251.26,62.642)"
         d="m -38.435,175 a 1.2011,5.0446 0 1 1 -2.4022,0 1.2011,5.0446 0 1 1 2.4022,0 z"
         fill="url(#i)"
         id="path633"
         style="fill:url(#linearGradient10061)" />
      <path
         transform="translate(237.26,67.642)"
         d="m -38.435,175 a 1.2011,5.0446 0 1 1 -2.4022,0 1.2011,5.0446 0 1 1 2.4022,0 z"
         fill="url(#i)"
         id="path635"
         style="fill:url(#linearGradient10063)" />
      <path
         transform="translate(226.26,45.642)"
         d="m -38.435,175 a 1.2011,5.0446 0 1 1 -2.4022,0 1.2011,5.0446 0 1 1 2.4022,0 z"
         fill="url(#i)"
         id="path637"
         style="fill:url(#linearGradient10065)" />
      <path
         transform="translate(183.26,42.642)"
         d="m -38.435,175 a 1.2011,5.0446 0 1 1 -2.4022,0 1.2011,5.0446 0 1 1 2.4022,0 z"
         fill="url(#i)"
         id="path639"
         style="fill:url(#linearGradient10067)" />
      <path
         transform="translate(324.26,30.642)"
         d="m -38.435,175 a 1.2011,5.0446 0 1 1 -2.4022,0 1.2011,5.0446 0 1 1 2.4022,0 z"
         fill="url(#i)"
         id="path641"
         style="fill:url(#linearGradient10069)" />
      <path
         transform="translate(339.26,29.642)"
         d="m -38.435,175 a 1.2011,5.0446 0 1 1 -2.4022,0 1.2011,5.0446 0 1 1 2.4022,0 z"
         fill="url(#i)"
         id="path643"
         style="fill:url(#linearGradient10071)" />
      <path
         d="m 266.47,189.56 c -8.1002,0.5619 -16.076,1.8965 -24.062,3.25 l -17.25,95.875 45.094,-1.375 43.688,-41.781 -31.344,-55.844 c -5.3235,0.806 -10.746,0.7917 -16.125,-0.125 z"
         fill="url(#cc)"
         id="path645"
         style="fill:url(#cc)" />
      <path
         d="m 333.12,178.55 c -2.9434,2.6667 -8.6836,2.6211 -8.3538,7.256 -0.086,15.994 -0.0916,33.706 -10.647,46.937 -13.936,17.841 -29.85,37.805 -51.551,46.245 -25.732,8.7797 -54.029,5.5645 -80.167,-0.4472 -22.109,-5.8271 -46.841,-16.834 -60.342,-35.881 -7.3371,-11.106 -11.15,-23.831 -13.019,-36.879 -5.2138,0.2852 -7.8529,0.6429 -13.066,0.9371 2.2521,13.875 3.9638,28.619 13.146,39.895 19.882,30.166 52.223,52.473 88.438,57.191 25.374,3.1179 52.638,4.084 76.07,-7.6393 22.783,-10.326 42.325,-28.433 52.033,-51.775 7.0822,-13.957 10.08,-29.543 10.511,-45.115 0.305,-7.2903 -0.0866,-14.59 -0.7765,-21.848 l -2.2759,1.1245 z"
         fill="#27341a"
         id="path647" />
      <path
         d="m 97.969,206.62 c 0,0 2.6579,19.524 6.8719,28.251 23.349,39.837 58.689,62.91 100.79,66.428 17.787,1.4402 36.418,2.2785 53.448,-3.0542 17.662,-5.5308 34.555,-15.632 47.34,-29.015 11.646,-12.191 18.872,-28.37 24.433,-44.286 3.5061,-15.748 4.5428,-30.371 3.0542,-46.576 l -9.1625,4.5813 c 0,0 0.824,24.525 -3.0541,35.887 -3.0332,8.8861 -9.2418,16.472 -15.271,23.67 -9.5978,11.459 -20.01,22.86 -32.832,30.542 -8.0781,4.8399 -17.424,7.6848 -26.724,9.1625 -16.592,2.6363 -33.8,1.8603 -50.394,-0.7635 -13.677,-2.1627 -27.338,-5.9856 -39.704,-12.217 -10.728,-5.4061 -21.042,-12.392 -29.015,-21.379 -5.8241,-6.5651 -9.7613,-14.742 -12.98,-22.906 -2.4001,-6.0876 -4.5812,-19.089 -4.5812,-19.089 z"
         fill="#bbc773"
         id="path649" />
      <path
         d="m 333.04,178.36 -9.1035,4.5518 c -0.005,0.5963 -0.0159,1.2057 -0.0267,1.8475 0.1027,4.4998 0.3595,24.01 -3.0791,34.084 -3.0332,8.8861 -9.2594,16.471 -15.288,23.669 -9.5978,11.459 -20.004,22.841 -32.826,30.524 -8.0781,4.8399 -17.421,7.7061 -26.721,9.1838 -16.592,2.6363 -33.797,1.8473 -50.39,-0.7765 -13.677,-2.1627 -27.341,-5.9782 -39.707,-12.209 -10.728,-5.4061 -21.052,-12.406 -29.024,-21.393 -5.8241,-6.5651 -9.7401,-14.728 -12.959,-22.893 -2.4001,-6.0876 -4.5785,-19.091 -4.5785,-19.091 l -10.978,0.6694 c 1.173,6.452 3.1123,15.444 5.6227,20.644 23.349,39.837 58.682,62.91 100.78,66.429 17.787,1.4402 36.413,2.2536 53.443,-3.0791 17.662,-5.5307 34.553,-15.615 47.338,-28.997 11.646,-12.191 18.884,-28.37 24.446,-44.286 2.1626,-9.7133 3.3709,-18.996 3.6414,-28.489 -0.0853,-3.4045 -0.2651,-6.8623 -0.589,-10.389 z"
         fill="url(#cb)"
         id="path651"
         style="fill:url(#cb)" />
      <path
         d="m 203.71,53.693 c -5.1336,-2.6434 -10.564,-5.5773 -16.335,-5.7653 -5.3207,-0.1733 -10.92,1.4082 -15.374,4.3239 -3.8087,2.4933 -7.1916,6.2567 -8.6479,10.57 -1.4866,4.4028 -1.5975,9.7762 0.4804,13.933 3.3103,6.6219 10.135,12.055 17.296,13.933 7.5381,1.977 15.428,-5.4154 23.061,-3.8435 7.8318,1.6128 14.243,7.6134 20.178,12.972 10.036,9.0608 21.989,20.132 25.296,31.709 9.9072,24.274 8.887,17.193 14.374,3.3631 4.1352,-12.137 -7.0555,-26.07 -13.246,-37.955 -3.9217,-7.5291 -8.8522,-14.695 -14.894,-20.659 -9.3274,-9.2077 -20.537,-16.58 -32.189,-22.581 z"
         fill="#ffffff"
         fill-opacity="0.436"
         filter="url(#en)"
         id="path653" />
    </g>
  </g>
</svg>
