<?xml version="1.0" encoding="UTF-8" standalone="no"?>
<svg
   xmlns:dc="http://purl.org/dc/elements/1.1/"
   xmlns:cc="http://creativecommons.org/ns#"
   xmlns:rdf="http://www.w3.org/1999/02/22-rdf-syntax-ns#"
   xmlns:svg="http://www.w3.org/2000/svg"
   xmlns="http://www.w3.org/2000/svg"
   xmlns:sodipodi="http://sodipodi.sourceforge.net/DTD/sodipodi-0.dtd"
   xmlns:inkscape="http://www.inkscape.org/namespaces/inkscape"
   id="svg2"
   sodipodi:docname="yo-yo.svg"
   viewBox="0 0 292.10041 314.00723"
   version="1.1"
   inkscape:version="1.0.2-2 (e86c870879, 2021-01-15)"
   width="77.284897mm"
   height="83.081078mm">
  <defs
     id="defs6">
    <linearGradient
       id="linearGradient4614"
       y2="122.97"
       gradientUnits="userSpaceOnUse"
       x2="113.12"
       gradientTransform="matrix(1.0803411,0,0,0.99917507,-12.450995,10.846128)"
       y1="122.97"
       x1="41.652"
       inkscape:collect="always">
      <stop
         id="stop4606"
         style="stop-color:#ffffff;stop-opacity:.57658"
         offset="0" />
      <stop
         id="stop4608"
         style="stop-color:#c48600;stop-opacity:0"
         offset="1" />
    </linearGradient>
    <linearGradient
       id="linearGradient4633"
       y2="122.97"
       gradientUnits="userSpaceOnUse"
       y1="122.97"
       gradientTransform="matrix(1.0803411,0,0,1.0783965,-45.674725,-2.0060421)"
       x2="113.12"
       x1="41.652"
       inkscape:collect="always">
      <stop
         id="stop4606-4"
         style="stop-color:#ffffff;stop-opacity:.57658"
         offset="0" />
      <stop
         id="stop4608-0"
         style="stop-color:#c48600;stop-opacity:0"
         offset="1" />
    </linearGradient>
  </defs>
  <sodipodi:namedview
     id="namedview4"
     bordercolor="#666666"
     inkscape:pageshadow="2"
     guidetolerance="10"
     pagecolor="#ffffff"
     gridtolerance="10"
     inkscape:window-maximized="1"
     inkscape:zoom="1.6701207"
     objecttolerance="10"
     borderopacity="1"
     inkscape:current-layer="svg2"
     inkscape:cx="154.25713"
     inkscape:cy="165.84081"
     inkscape:window-y="-8"
     inkscape:window-x="-8"
     inkscape:window-width="1920"
     showgrid="false"
     inkscape:pageopacity="0"
     inkscape:window-height="1017"
     inkscape:document-rotation="0"
     units="mm" />
  <path
     id="path2824"
     style="fill:none;stroke:#d09237;stroke-width:3.99726;stroke-linecap:round;stroke-linejoin:round"
     d="m 190.38738,268.95799 c 0,0 76.3866,0 82.33279,4.11664 5.9462,4.11664 17.38161,12.34938 17.38161,15.55152 0,3.2018 -5.48878,11.43541 -10.97734,11.43541 -5.48878,0 -23.78479,2.74439 -29.27401,1.82966 -5.48878,-0.91481 -14.63646,1.37225 -18.29557,-0.91481 -3.65923,-2.28697 -21.95578,-2.74439 -32.47506,-0.9148 -10.52025,1.82967 -21.04072,12.80744 -33.84817,11.8924 -12.80744,-0.9148 -46.65453,-10.06284 -63.12109,-9.60543 -16.466561,0.45741 -41.623381,13.7225 -52.143741,4.11664 -10.52026,-9.60542 -16.92355,-10.97734 -12.80745,-16.92354 4.11664,-5.9462 3.20181,-8.23328 8.69059,-5.9462 5.48878,2.28698 12.80744,3.20181 19.21063,8.23328 6.40361,5.03137 9.148,4.57406 9.60542,10.06284 0.4574,5.48878 0.9148,5.9462 0.9148,5.9462" />
  <path
     id="path2818"
     sodipodi:nodetypes="ccc"
     style="fill:#af1515;stroke-width:1.08034"
     d="M 114.52582,0.909258 C -48.702923,10.721889 -28.532954,276.18018 118.59871,274.45164 321.77847,292.01798 322.09177,-14.658458 114.52582,0.909258 Z" />
  <path
     id="path4602-9"
     sodipodi:nodetypes="csscc"
     style="fill:url(#linearGradient4633);stroke-width:1.08034"
     d="m 76.451359,11.213444 c -16.77014,13.384347 -28.15153,18.504083 -39.43353,33.62994 -25.96816,34.813993 -42.9867798,107.362146 -9.83867,170.553456 12.74586,24.29471 25.81043,30.92369 46.07115,50.13755 C -36.685208,206.37491 -10.18336,32.331953 76.451359,11.211283 Z" />
  <path
     id="path2820"
     sodipodi:nodetypes="ccc"
     style="fill:#e71515;stroke-width:1.08034"
     d="M 156.2702,0 C 322.89122,0.836227 308.49027,280.31612 155.40593,276.28645 -9.5945738,274.52549 -18.755866,3.284237 156.2702,0 Z" />
  <path
     id="path2822"
     sodipodi:nodetypes="ccc"
     style="fill:#fff1cc;stroke:#000000;stroke-width:3.27235;stroke-linejoin:round"
     d="m 160.42952,72.822059 c 69.61394,-1.502863 74.25076,121.559991 0,124.952261 -71.422441,-0.78804 -72.596771,-123.634245 0,-124.952261 z" />
  <path
     id="path4602"
     sodipodi:nodetypes="csscc"
     style="fill:url(#linearGradient4614);stroke-width:1.08034"
     d="M 109.22135,20.132741 C 95.429709,32.072671 80.775959,45.169647 70.416569,60.134532 43.266519,99.354154 33.231229,152.1299 67.448879,208.8651 c 9.92185,16.44279 24.40166,30.13071 42.226211,47.74027 C -1.6324608,208.5626 19.381259,50.271018 109.22135,20.1295 Z" />
  <metadata
     id="metadata16">
    <rdf:RDF>
      <cc:Work>
        <dc:format>image/svg+xml</dc:format>
        <dc:type
           rdf:resource="http://purl.org/dc/dcmitype/StillImage" />
        <cc:license
           rdf:resource="http://creativecommons.org/publicdomain/zero/1.0/" />
        <dc:publisher>
          <cc:Agent
             rdf:about="http://openclipart.org/">
            <dc:title>Openclipart</dc:title>
          </cc:Agent>
        </dc:publisher>
        <dc:title>Yo-Yo</dc:title>
        <dc:date>2010-06-06T18:31:31</dc:date>
        <dc:description />
        <dc:source>https://openclipart.org/detail/64711/yo-yo-by-deluge</dc:source>
        <dc:creator>
          <cc:Agent>
            <dc:title>Deluge</dc:title>
          </cc:Agent>
        </dc:creator>
        <dc:subject>
          <rdf:Bag>
            <rdf:li>child</rdf:li>
            <rdf:li>children</rdf:li>
            <rdf:li>play</rdf:li>
            <rdf:li>string</rdf:li>
            <rdf:li>toy</rdf:li>
          </rdf:Bag>
        </dc:subject>
      </cc:Work>
      <cc:License
         rdf:about="http://creativecommons.org/publicdomain/zero/1.0/">
        <cc:permits
           rdf:resource="http://creativecommons.org/ns#Reproduction" />
        <cc:permits
           rdf:resource="http://creativecommons.org/ns#Distribution" />
        <cc:permits
           rdf:resource="http://creativecommons.org/ns#DerivativeWorks" />
      </cc:License>
    </rdf:RDF>
  </metadata>
</svg>
